P2
80 60
389
134 127 124 118 115 114 110 105 98 92 91 89 82 79 75 73 71 66 63 64 57 53 52 49 48 46 32 28 31 27 46 108 200 281 291 294 313 319 328 333 335 344 337 332 325 314 308 329 353 349 342 336 337 330 336 289 217 114 61 59 55 51 53 56 55 64 63 65 72 81 84 80 84 98 98 107 113 104 107 110 
132 125 121 117 116 116 108 103 99 93 88 89 85 79 76 75 66 65 58 59 58 54 53 48 49 50 40 32 29 24 28 49 142 246 287 299 308 311 327 332 337 340 342 351 344 327 324 333 341 342 336 329 329 328 332 288 211 98 46 45 41 39 41 43 46 49 49 59 67 75 82 84 97 111 114 127 130 125 119 116 
133 125 124 119 112 115 109 101 101 98 92 90 84 82 77 72 69 64 60 62 57 56 52 52 49 50 38 31 29 23 22 22 62 165 252 274 282 292 315 337 334 319 319 336 338 334 338 340 335 328 331 331 327 324 325 279 193 71 40 40 39 39 43 47 50 57 56 55 67 71 78 85 93 98 105 135 151 150 130 121 
138 123 120 119 112 112 106 101 100 97 94 91 86 81 79 73 68 66 65 64 60 54 52 54 49 47 39 36 28 21 19 20 27 72 216 277 305 302 302 329 318 310 306 312 330 335 342 336 322 315 325 328 331 322 317 265 150 54 40 47 48 46 52 56 55 57 54 55 58 70 79 82 89 109 144 183 200 195 164 131 
132 128 124 115 115 114 109 106 100 98 94 91 84 82 81 74 70 67 63 64 56 54 51 52 51 47 37 30 25 17 17 15 20 36 139 283 313 315 327 323 304 314 318 319 328 331 336 330 321 318 319 324 330 330 312 246 100 54 50 53 50 45 52 54 50 52 50 52 58 67 76 76 91 156 312 351 244 317 339 173 
129 122 122 118 111 111 106 105 102 101 95 95 87 83 83 75 71 65 63 63 59 59 57 51 51 46 39 31 25 20 18 13 17 24 76 242 310 319 326 310 297 315 317 321 326 338 342 334 331 322 315 315 324 333 319 235 91 62 56 52 50 50 48 49 42 46 42 52 61 63 71 74 90 234 357 346 172 287 374 266 
127 123 123 114 111 108 107 105 101 99 93 89 90 86 81 77 72 63 65 67 60 58 57 51 48 46 35 31 23 20 19 12 16 18 40 164 287 305 313 301 297 310 305 301 306 348 347 342 336 324 317 312 316 324 314 267 121 65 56 54 50 47 48 48 48 48 46 51 54 60 66 68 85 147 302 280 124 188 316 256 
125 123 117 117 112 110 105 100 100 99 94 94 88 84 84 76 72 67 67 68 60 57 58 50 46 45 34 30 26 17 17 14 15 15 26 82 251 284 301 304 294 295 303 300 317 352 357 344 340 331 320 312 311 311 312 294 171 75 53 54 52 44 45 49 50 51 50 47 57 61 62 67 72 94 154 164 104 111 186 163 
123 118 119 113 111 109 106 103 101 100 93 91 87 85 81 81 74 68 73 71 63 58 54 50 47 50 37 31 27 19 14 12 15 14 24 33 160 268 296 303 307 303 313 324 340 347 352 347 344 330 326 318 306 315 319 315 215 92 56 51 49 43 42 49 50 51 48 51 57 59 65 63 70 76 72 82 90 82 91 100 
125 118 115 114 108 108 106 99 102 98 96 92 89 88 80 79 76 70 70 70 64 61 54 47 47 44 33 30 25 20 16 14 13 15 20 24 67 232 281 293 307 318 324 317 330 337 346 347 344 338 335 321 316 322 328 337 274 124 67 53 47 46 49 51 49 52 51 52 64 64 68 67 75 76 69 77 88 77 80 80 
121 120 117 114 113 107 105 99 102 95 94 93 90 88 82 78 74 69 71 69 62 59 55 51 51 47 34 28 27 20 17 14 14 17 24 18 34 139 271 292 308 316 317 321 336 345 348 351 346 340 335 323 321 335 343 349 318 235 115 68 54 55 59 56 57 57 62 62 70 82 98 102 105 109 97 91 91 77 75 75 
119 113 116 114 111 106 102 98 99 94 91 89 88 86 85 78 75 72 67 67 63 57 54 47 47 47 34 31 24 19 16 12 14 13 19 14 23 56 225 288 307 325 326 330 333 332 340 344 348 343 337 331 328 333 343 345 337 327 281 181 119 150 153 128 111 110 121 135 160 203 240 243 245 246 220 184 141 97 79 72 
118 117 115 115 111 111 100 97 98 94 91 91 85 84 82 77 74 68 67 67 62 58 53 47 45 42 34 29 22 16 10 9 8 5 14 13 20 29 123 261 317 323 317 328 339 335 340 341 347 349 344 336 332 336 339 342 345 341 343 314 255 245 246 250 250 240 242 251 274 290 301 296 299 294 284 254 234 200 137 80 
119 114 114 110 106 109 100 97 97 93 92 90 87 84 77 75 72 69 71 65 57 55 51 45 44 43 32 30 25 15 12 6 10 5 14 11 18 18 42 183 306 325 330 330 326 328 338 347 347 339 341 335 330 338 335 339 346 347 335 283 257 255 257 269 264 259 275 280 292 307 310 305 312 309 283 252 255 258 234 152 
113 111 111 109 106 104 100 96 92 92 89 88 86 83 78 75 73 68 68 64 58 53 52 46 41 45 34 27 22 16 15 3 4 5 13 12 18 19 27 57 230 317 329 315 312 314 324 341 344 341 343 331 336 333 335 334 335 335 286 265 260 255 257 256 256 278 277 278 291 303 306 307 317 309 268 248 270 267 261 230 
107 109 113 108 102 102 98 95 91 90 86 87 85 81 75 74 71 67 67 64 56 54 50 46 45 43 31 26 22 17 11 6 6 5 13 12 18 18 19 13 68 248 306 308 306 306 317 331 342 342 342 333 337 336 332 327 307 291 285 280 266 253 253 256 271 274 266 275 280 302 303 295 310 294 260 253 280 270 269 247 
107 109 109 105 106 101 97 92 90 88 83 83 80 76 74 74 70 66 66 62 54 53 51 44 45 44 34 29 22 14 9 4 3 7 14 10 16 14 16 11 19 69 221 282 296 302 313 328 340 331 328 332 335 329 315 293 287 290 286 271 266 267 267 261 256 248 258 255 278 293 279 291 296 279 257 250 282 276 264 258 
109 108 109 101 99 99 94 89 88 89 87 85 80 78 73 71 67 62 66 60 55 53 46 43 44 43 35 29 26 18 11 0 4 10 13 11 21 13 15 6 12 15 37 136 229 290 313 325 316 307 312 318 321 295 284 289 292 281 277 277 281 277 266 250 233 247 245 248 266 282 258 279 282 264 262 243 273 280 260 265 
105 106 104 102 96 98 92 89 86 85 81 82 77 75 74 70 67 62 57 57 50 48 45 44 44 44 36 31 26 18 15 7 4 9 15 9 15 14 12 4 10 14 9 12 35 198 300 315 310 306 299 283 279 279 287 286 274 282 289 289 285 266 255 236 238 244 235 248 257 266 241 271 270 260 266 242 261 281 251 264 
103 102 103 101 99 95 92 88 84 83 81 83 79 75 72 69 64 58 60 55 51 48 48 42 45 45 39 35 37 29 18 7 10 8 16 14 20 15 11 9 7 8 4 5 16 80 277 317 321 289 265 269 281 276 264 270 282 283 299 294 281 260 241 235 243 232 235 242 258 253 232 262 261 257 271 243 247 284 253 261 
102 101 101 98 95 96 91 88 87 81 80 79 81 76 73 70 64 60 57 55 47 46 46 45 45 48 42 59 157 178 61 16 10 7 14 15 22 19 11 5 7 8 7 5 17 56 219 273 275 272 263 259 256 259 282 274 281 294 300 314 317 274 248 244 236 228 232 236 254 240 229 264 264 255 272 250 243 280 250 256 
102 102 99 95 92 92 89 90 86 83 80 82 81 74 74 72 65 58 53 57 46 48 46 45 44 48 48 150 315 306 216 33 12 11 15 11 19 19 13 7 8 14 10 21 76 177 227 259 265 248 236 240 265 276 272 281 288 290 308 339 336 314 272 253 230 229 232 238 255 237 237 269 268 261 282 249 244 275 253 251 
102 98 97 97 95 91 90 89 87 83 83 80 80 74 70 70 63 60 53 51 48 47 45 44 42 53 59 191 318 317 295 112 19 10 17 15 18 15 13 11 15 28 51 139 225 226 228 235 239 240 255 257 263 274 282 282 277 280 319 346 348 332 286 243 228 238 230 241 255 236 241 276 269 262 288 260 240 276 253 238 
101 97 99 94 94 93 91 86 86 85 80 79 80 76 71 66 63 58 52 52 51 46 46 43 47 58 92 271 314 312 316 240 39 12 18 15 20 19 18 26 62 153 212 228 241 239 241 255 262 265 255 247 256 277 278 274 267 274 327 347 348 343 293 234 233 243 239 251 259 232 241 280 275 272 293 269 240 274 259 231 
99 97 94 97 93 95 92 90 87 85 79 78 78 74 70 64 60 55 50 51 51 49 47 47 55 93 227 303 301 317 331 290 103 19 24 18 27 27 62 148 211 236 234 221 232 247 239 247 246 241 243 249 285 288 282 271 259 274 329 344 348 348 301 242 246 242 245 260 255 228 244 284 279 284 292 276 239 271 268 227 
102 96 97 95 97 95 92 92 86 84 79 80 77 76 69 66 59 55 52 53 51 49 48 52 83 258 318 315 310 331 341 322 186 29 25 18 29 67 200 237 225 236 215 211 233 240 251 239 227 227 252 307 328 329 332 319 286 295 335 349 357 349 314 254 248 246 251 257 249 226 250 290 280 286 294 282 244 263 269 222 
99 99 99 94 93 96 94 88 86 82 75 75 77 72 68 64 59 54 54 54 54 51 52 55 131 324 330 329 307 323 358 338 279 65 30 26 50 173 248 247 218 216 208 220 231 233 249 252 235 237 287 323 326 331 339 334 316 318 323 349 357 354 327 255 243 248 254 256 245 225 255 297 281 294 303 293 251 258 277 218 
101 91 99 93 94 95 91 89 87 79 77 75 76 74 69 66 59 55 57 57 52 51 53 60 135 327 340 343 204 173 350 342 327 208 51 39 124 210 255 246 207 213 213 225 224 229 242 241 242 242 297 321 328 338 345 343 327 329 328 334 342 351 329 261 241 250 251 248 237 227 256 293 277 294 302 299 255 257 283 218 
96 98 97 96 93 92 90 85 81 80 75 76 72 71 70 63 62 56 60 60 59 56 61 68 136 324 346 351 263 140 335 351 343 313 133 61 188 215 254 235 205 214 221 223 219 223 230 234 232 237 260 310 331 342 344 343 331 331 333 337 335 333 324 267 244 252 243 233 231 226 255 291 277 296 304 297 263 254 291 219 
98 95 95 91 89 88 89 82 81 82 76 76 74 68 66 62 61 58 63 62 62 61 67 77 180 336 354 359 350 309 344 358 349 333 246 117 207 217 250 223 210 220 220 216 216 216 219 221 231 235 239 248 284 324 335 331 324 330 335 341 333 320 312 284 247 247 231 226 222 220 251 289 279 298 306 297 271 260 289 222 
101 97 98 95 89 89 88 85 84 82 74 79 76 71 69 69 66 60 66 67 65 64 70 79 218 344 355 367 364 354 353 353 351 335 317 185 214 220 243 218 213 223 217 212 213 217 212 214 229 233 233 231 237 260 290 321 329 330 335 332 326 316 309 298 258 245 235 225 228 224 242 277 274 301 308 295 280 256 294 225 
103 100 98 91 88 90 88 86 84 79 76 78 73 69 66 65 68 65 67 68 67 67 68 80 183 352 364 362 358 349 351 345 338 333 330 248 219 226 237 212 220 221 214 209 209 215 202 202 219 226 231 234 241 253 255 271 316 333 336 327 322 313 313 311 295 258 234 232 229 227 237 265 273 302 308 294 284 262 291 229 
105 101 101 92 93 92 91 88 84 86 79 77 74 72 69 65 70 66 67 71 67 70 71 92 227 339 345 348 350 347 348 341 334 337 328 271 214 235 232 209 220 217 217 209 211 214 198 198 212 220 234 238 247 256 257 266 294 337 347 333 322 316 317 320 313 274 240 230 230 228 234 260 271 305 316 300 294 270 294 233 
106 102 99 94 94 93 92 90 88 82 77 81 72 74 71 66 70 68 71 72 67 70 76 159 298 329 339 349 351 353 355 346 343 341 338 300 219 235 221 207 213 209 216 205 207 207 197 200 206 225 242 265 264 264 267 282 285 321 346 345 335 325 319 323 308 279 250 229 227 229 239 252 269 301 318 302 298 277 300 240 
109 105 98 93 92 94 91 90 90 82 79 77 74 72 70 70 71 69 72 72 68 67 80 176 310 343 356 360 363 361 361 353 351 351 345 320 244 233 214 205 212 210 208 203 206 198 196 195 211 235 282 309 318 327 316 321 320 339 355 352 343 333 325 317 300 281 250 233 233 232 238 252 267 301 322 302 299 287 301 251 
104 105 100 93 96 95 96 96 90 83 80 77 76 71 69 71 73 71 73 75 72 71 78 115 291 357 362 366 360 351 342 337 338 336 340 311 233 231 208 201 207 207 204 196 203 198 195 197 209 257 314 321 322 327 334 334 335 342 352 350 345 336 327 315 301 284 253 229 231 234 241 247 261 294 323 311 298 292 302 251 
110 104 104 97 96 99 96 91 87 83 85 80 77 72 69 73 76 73 76 76 73 73 75 102 275 353 354 356 353 343 334 335 334 332 334 311 228 222 203 200 208 207 198 198 202 196 200 199 214 278 316 320 323 326 332 331 332 336 340 338 338 335 325 319 310 299 255 224 231 236 241 246 260 289 324 313 301 298 309 259 
113 104 106 101 99 102 95 91 88 88 84 81 77 74 72 77 75 77 79 76 78 77 81 111 306 349 347 354 353 346 348 342 342 337 329 317 231 217 202 202 206 206 198 195 197 196 199 202 214 277 315 320 327 327 334 333 331 335 334 329 326 318 312 311 310 299 277 225 226 237 241 249 258 277 311 312 301 299 319 262 
113 109 102 103 100 104 98 93 88 87 86 83 78 77 73 77 78 77 80 77 78 77 84 102 265 352 355 358 360 351 349 345 348 340 326 276 221 219 205 209 210 205 198 202 204 200 202 207 215 237 301 320 326 330 334 334 335 333 329 320 310 301 293 297 297 300 287 237 227 237 242 250 257 270 303 311 297 299 319 275 
111 109 111 105 103 103 99 94 90 90 84 88 80 79 78 82 78 79 80 81 76 79 82 96 205 350 353 358 355 344 343 335 336 336 322 266 228 215 203 208 212 203 203 207 207 204 206 207 214 232 292 319 325 336 337 341 336 342 332 325 314 300 295 291 293 301 302 270 248 243 243 244 259 266 293 312 298 297 321 280 
116 118 114 109 103 107 97 97 94 92 84 89 82 80 82 86 79 80 86 88 79 83 82 94 188 342 351 356 349 341 341 331 335 326 315 267 225 209 207 212 215 203 207 213 213 209 209 208 220 245 304 312 320 325 329 338 345 340 347 334 324 310 299 296 296 306 313 302 289 284 271 252 257 267 287 311 305 295 324 291 
118 120 115 114 110 104 103 97 94 95 92 88 84 86 85 82 81 81 87 90 86 84 83 90 142 315 346 355 352 345 346 342 335 327 311 268 222 206 214 214 209 204 209 219 216 214 213 214 222 252 310 322 320 323 329 332 336 339 343 338 335 325 320 317 311 315 316 309 304 310 305 284 278 276 283 307 310 297 318 298 
122 118 121 115 108 107 103 100 98 95 91 90 89 85 85 86 82 82 85 90 86 83 86 83 98 190 312 345 350 348 349 345 330 324 307 274 221 210 215 218 209 207 217 226 220 216 217 217 225 237 297 316 319 325 330 335 338 339 338 336 330 325 327 331 327 321 319 315 311 313 321 311 309 306 301 310 319 297 316 303 
120 119 118 115 111 111 105 105 99 100 100 95 90 89 85 88 86 82 83 85 86 84 84 84 86 97 131 232 321 341 347 331 325 317 301 281 226 207 220 219 216 213 223 236 226 222 221 220 220 230 252 289 322 327 336 338 338 341 331 326 319 320 327 329 328 329 323 320 320 325 327 322 328 323 317 323 321 300 316 308 
124 123 122 118 120 115 107 104 104 103 100 96 92 91 91 87 85 84 89 87 87 87 84 81 85 89 85 100 195 314 326 324 320 306 302 279 229 213 221 227 220 219 228 239 231 227 228 222 222 232 244 282 331 340 346 346 341 342 335 327 320 320 320 321 323 326 326 321 328 335 333 329 335 335 328 339 346 329 316 309 
132 134 132 129 126 122 114 110 109 104 100 95 91 92 91 90 88 83 87 90 90 84 86 86 80 86 76 86 167 291 312 321 322 309 305 276 237 223 228 225 224 223 236 245 239 230 231 226 224 227 239 290 323 335 345 349 345 344 337 334 325 322 316 322 325 325 322 323 327 336 339 339 340 337 331 343 358 347 351 318 
139 137 134 128 131 126 118 112 112 112 105 103 97 97 97 92 93 88 91 92 89 88 86 84 82 84 78 84 175 284 300 311 323 310 303 271 232 222 228 229 228 230 240 246 240 238 242 229 224 223 233 262 307 323 335 340 342 344 342 335 330 324 325 325 330 329 321 322 328 336 340 338 344 341 335 345 361 355 368 350 
145 140 133 129 129 130 121 114 118 116 112 111 108 108 105 97 97 97 94 93 92 87 89 84 82 86 79 86 195 290 307 312 317 307 294 269 226 222 233 226 222 235 242 244 238 235 246 239 234 223 227 230 265 300 324 331 337 340 335 325 324 322 327 327 327 325 315 319 329 338 341 341 348 346 340 348 365 362 370 363 
147 144 139 134 127 127 122 115 116 114 112 112 111 108 104 104 100 98 95 97 97 90 92 87 87 91 77 93 221 288 311 317 312 295 293 276 231 232 236 220 209 223 241 240 236 235 242 239 239 226 229 226 222 254 302 324 331 331 321 315 314 312 314 318 320 312 303 308 324 342 347 346 354 350 344 351 361 363 370 363 
151 148 144 135 130 126 122 116 119 109 112 109 111 107 107 101 100 100 99 95 94 95 92 87 88 88 81 111 259 291 304 311 307 292 295 291 246 234 240 226 212 224 232 229 237 240 241 245 246 239 234 225 221 217 235 281 316 325 325 312 307 308 305 310 306 301 297 301 316 334 345 347 356 350 345 353 362 360 367 361 
148 146 144 137 131 132 126 122 117 114 109 109 105 103 104 101 101 100 100 97 94 94 92 88 88 88 84 135 285 296 300 303 297 292 300 292 255 244 242 230 227 241 238 230 239 238 241 244 247 240 235 228 226 215 215 234 259 299 318 316 309 302 303 305 309 302 296 298 311 331 344 346 351 347 341 360 362 357 368 360 
146 145 142 140 135 129 127 123 120 120 117 112 112 111 108 102 100 101 103 96 92 97 94 90 86 92 90 181 294 294 297 302 301 297 308 296 267 252 248 246 246 252 240 230 240 239 245 247 249 235 230 225 222 212 212 224 234 246 267 300 298 284 273 289 307 306 297 298 310 322 340 347 353 348 343 351 360 359 368 369 
150 145 141 141 137 133 131 128 129 129 122 124 123 122 116 110 108 103 105 102 99 99 91 92 88 92 106 235 299 295 296 304 305 299 306 297 275 249 258 253 243 242 236 234 239 240 242 229 219 220 227 228 229 225 222 229 233 237 240 238 244 239 247 260 279 291 291 297 306 319 338 341 346 351 341 354 363 363 372 370 
181 155 147 144 142 138 139 139 137 137 134 131 130 127 125 121 117 114 117 113 104 103 96 93 91 95 120 265 300 304 300 307 309 300 305 297 278 249 267 256 244 244 238 234 233 222 222 222 233 250 266 268 269 265 263 262 262 267 259 252 244 242 248 255 264 269 277 295 314 328 339 336 345 351 348 359 370 367 374 375 
277 210 158 147 144 145 141 140 139 138 137 135 135 131 128 127 121 121 120 116 112 109 101 103 99 99 126 277 305 302 302 305 311 301 302 296 278 253 258 255 250 238 225 219 223 227 235 242 253 269 281 283 281 284 282 286 287 286 277 264 252 244 247 251 257 265 266 273 295 321 337 337 343 352 350 362 371 366 376 378 
312 303 217 159 150 150 150 146 145 143 139 142 141 142 133 131 128 121 127 128 115 114 109 104 103 104 124 268 306 302 302 309 314 304 301 292 271 246 241 221 220 221 223 224 230 238 245 241 243 251 260 271 276 269 256 252 251 255 253 251 242 237 242 248 255 264 265 283 301 326 335 340 347 353 348 364 372 369 377 380 
307 303 283 201 171 159 159 159 161 157 152 152 151 147 145 140 134 132 128 125 119 117 109 108 109 106 111 228 302 306 304 311 318 306 301 293 278 248 235 216 220 230 233 236 244 255 254 249 248 245 248 247 246 236 230 229 231 242 247 244 241 245 243 252 268 275 287 300 320 330 334 326 341 351 346 360 375 372 382 382 
274 265 258 237 197 176 172 167 168 167 161 164 159 153 154 148 143 138 134 130 124 121 115 110 104 108 101 172 295 298 299 305 314 301 300 291 272 242 231 227 232 241 243 239 241 244 242 236 236 233 239 245 249 242 246 251 257 265 271 272 269 273 275 281 288 295 296 302 309 313 318 311 328 341 343 356 372 369 381 389 
253 248 250 251 245 208 185 184 182 181 176 173 171 162 158 157 147 141 142 137 127 127 121 115 110 108 100 123 258 296 294 300 307 298 289 271 257 239 230 230 232 234 236 229 235 239 242 241 247 252 266 271 274 277 282 285 288 290 290 284 280 274 273 275 276 277 276 276 284 295 309 318 329 343 341 359 370 366 371 377 
245 245 252 262 266 259 216 188 185 186 186 189 180 183 171 176 165 154 156 151 165 161 161 158 148 122 96 103 204 293 294 295 307 297 267 253 252 242 233 229 227 231 232 226 236 244 248 248 248 251 259 252 258 257 250 249 251 258 260 259 257 247 244 251 253 255 251 256 270 296 316 333 341 343 341 354 365 350 367 374 


