P2
80 60
8335
8228 8232 8243 8243 8246 8248 8249 8248 8247 8243 8246 8246 8244 8245 8246 8252 8254 8258 8262 8263 8264 8259 8256 8262 8264 8270 8277 8281 8285 8285 8285 8287 8290 8290 8291 8294 8292 8297 8293 8294 8292 8290 8291 8288 8286 8287 8284 8284 8286 8284 8286 8288 8289 8288 8285 8283 8285 8279 8278 8278 8279 8275 8271 8270 8266 8269 8260 8255 8254 8255 8252 8249 8249 8248 8245 8248 8241 8238 8239 8240 
8233 8238 8240 8244 8248 8249 8251 8249 8244 8247 8244 8241 8246 8248 8249 8255 8257 8261 8260 8261 8260 8263 8261 8259 8265 8268 8276 8284 8284 8285 8286 8289 8291 8290 8291 8295 8296 8296 8292 8297 8293 8293 8292 8291 8290 8288 8285 8286 8285 8284 8286 8287 8287 8287 8280 8283 8282 8280 8276 8275 8278 8273 8272 8269 8269 8269 8267 8261 8264 8258 8255 8252 8249 8248 8248 8245 8242 8243 8242 8242 
8234 8239 8244 8246 8247 8248 8248 8248 8243 8245 8243 8242 8243 8245 8249 8255 8256 8261 8261 8260 8262 8260 8258 8257 8263 8268 8278 8279 8280 8281 8284 8287 8285 8290 8288 8291 8292 8292 8294 8294 8293 8291 8291 8290 8289 8288 8283 8285 8283 8285 8283 8285 8287 8282 8281 8280 8281 8277 8277 8274 8274 8273 8272 8271 8268 8267 8265 8264 8267 8261 8257 8254 8253 8251 8249 8250 8245 8242 8245 8240 
8238 8238 8244 8245 8248 8246 8250 8247 8244 8241 8239 8241 8243 8243 8246 8252 8253 8259 8257 8258 8259 8257 8252 8255 8261 8266 8275 8278 8275 8276 8280 8279 8280 8282 8281 8284 8284 8288 8286 8289 8286 8287 8286 8288 8281 8283 8281 8284 8281 8280 8282 8284 8283 8281 8278 8277 8274 8275 8273 8272 8271 8271 8271 8269 8264 8262 8259 8263 8264 8259 8257 8254 8252 8253 8252 8249 8248 8249 8249 8244 
8237 8241 8246 8246 8249 8248 8246 8241 8243 8239 8239 8240 8239 8241 8244 8251 8252 8253 8253 8255 8255 8253 8251 8253 8257 8262 8267 8271 8270 8272 8276 8273 8269 8269 8267 8275 8273 8276 8280 8279 8280 8280 8283 8281 8278 8279 8280 8279 8278 8276 8281 8279 8277 8276 8273 8272 8273 8269 8269 8270 8271 8266 8263 8262 8263 8261 8257 8257 8260 8256 8256 8254 8255 8252 8252 8252 8251 8248 8253 8249 
8241 8242 8243 8239 8245 8246 8244 8241 8239 8235 8238 8237 8239 8240 8239 8247 8250 8252 8249 8252 8253 8252 8249 8249 8253 8258 8264 8265 8262 8263 8265 8265 8265 8262 8261 8262 8263 8266 8265 8269 8272 8268 8272 8271 8271 8274 8273 8274 8270 8267 8272 8270 8273 8268 8264 8267 8264 8262 8264 8262 8262 8260 8259 8258 8255 8256 8254 8255 8256 8253 8256 8251 8249 8252 8251 8255 8247 8249 8253 8247 
8237 8239 8239 8239 8241 8241 8242 8242 8240 8235 8235 8237 8238 8240 8239 8245 8245 8249 8250 8252 8250 8250 8248 8252 8250 8253 8261 8259 8260 8259 8263 8262 8262 8260 8257 8261 8262 8262 8262 8262 8265 8262 8264 8265 8266 8266 8266 8268 8268 8266 8269 8267 8263 8261 8259 8262 8261 8259 8260 8258 8259 8253 8253 8250 8251 8251 8248 8250 8246 8246 8248 8246 8247 8248 8248 8249 8245 8243 8249 8242 
8236 8237 8236 8236 8240 8239 8240 8242 8239 8236 8237 8239 8240 8242 8243 8242 8243 8247 8248 8251 8250 8251 8249 8251 8253 8255 8257 8262 8260 8258 8264 8259 8262 8259 8259 8259 8262 8259 8256 8261 8262 8259 8261 8260 8259 8262 8261 8266 8272 8266 8264 8267 8265 8261 8257 8255 8257 8255 8256 8255 8255 8250 8252 8249 8245 8246 8246 8245 8243 8242 8243 8243 8241 8243 8241 8241 8239 8239 8241 8242 
8233 8233 8232 8230 8235 8235 8238 8241 8239 8241 8239 8236 8239 8242 8241 8245 8243 8248 8251 8251 8254 8250 8253 8250 8255 8256 8259 8260 8258 8257 8262 8262 8259 8259 8259 8258 8257 8258 8255 8259 8263 8260 8260 8261 8258 8259 8260 8261 8265 8261 8262 8265 8263 8259 8258 8255 8257 8252 8252 8253 8252 8249 8248 8247 8245 8244 8243 8242 8240 8240 8238 8239 8236 8236 8235 8238 8237 8236 8238 8235 
8229 8229 8231 8233 8235 8239 8237 8240 8241 8242 8237 8239 8240 8240 8239 8247 8245 8251 8252 8256 8256 8256 8253 8256 8254 8257 8260 8260 8259 8257 8258 8258 8258 8257 8255 8255 8259 8262 8256 8258 8258 8262 8262 8264 8259 8259 8256 8260 8259 8260 8258 8260 8265 8259 8257 8254 8253 8250 8253 8251 8252 8252 8248 8246 8244 8244 8241 8241 8241 8238 8240 8237 8234 8232 8235 8235 8235 8239 8238 8234 
8228 8227 8234 8230 8236 8239 8239 8241 8243 8239 8242 8241 8243 8246 8243 8250 8246 8253 8253 8258 8257 8255 8254 8254 8256 8258 8259 8261 8255 8255 8259 8257 8257 8256 8254 8255 8257 8257 8257 8257 8258 8259 8263 8261 8259 8258 8257 8259 8259 8256 8259 8257 8263 8257 8253 8253 8252 8252 8253 8249 8252 8248 8249 8245 8243 8242 8239 8238 8243 8238 8236 8236 8232 8231 8230 8233 8234 8235 8239 8234 
8231 8230 8233 8235 8236 8240 8240 8243 8244 8243 8242 8245 8246 8246 8245 8250 8249 8253 8252 8257 8258 8255 8253 8252 8255 8255 8259 8260 8255 8256 8259 8257 8254 8250 8254 8251 8255 8256 8254 8255 8257 8256 8258 8258 8259 8258 8256 8259 8259 8258 8258 8258 8259 8254 8253 8254 8252 8252 8251 8250 8251 8250 8246 8246 8244 8241 8241 8243 8240 8238 8237 8235 8233 8233 8229 8231 8231 8232 8238 8234 
8231 8233 8240 8238 8240 8242 8243 8245 8246 8247 8247 8245 8245 8245 8243 8248 8249 8252 8254 8257 8258 8257 8252 8251 8254 8257 8258 8259 8256 8256 8254 8256 8254 8251 8251 8249 8254 8254 8252 8253 8254 8254 8258 8256 8258 8257 8259 8257 8256 8257 8258 8259 8256 8260 8255 8253 8254 8249 8248 8249 8250 8248 8248 8246 8244 8245 8240 8241 8237 8234 8234 8232 8231 8230 8228 8228 8229 8232 8234 8228 
8234 8236 8246 8242 8247 8247 8246 8246 8248 8246 8247 8248 8246 8244 8243 8249 8249 8251 8253 8256 8259 8255 8249 8252 8252 8254 8256 8258 8254 8253 8258 8255 8249 8252 8253 8251 8252 8256 8251 8254 8255 8256 8255 8256 8254 8254 8258 8258 8255 8254 8255 8258 8255 8254 8254 8255 8250 8251 8251 8248 8247 8245 8246 8246 8246 8245 8242 8241 8243 8235 8232 8229 8228 8225 8226 8225 8225 8226 8228 8232 
8234 8240 8246 8244 8250 8249 8247 8243 8247 8247 8249 8247 8246 8246 8244 8248 8249 8254 8253 8259 8257 8258 8251 8252 8251 8253 8258 8257 8255 8253 8253 8252 8252 8252 8249 8250 8252 8253 8249 8252 8253 8254 8256 8257 8253 8256 8251 8255 8253 8255 8256 8256 8255 8254 8253 8252 8251 8250 8248 8248 8247 8248 8244 8245 8245 8245 8245 8243 8246 8239 8239 8236 8233 8228 8227 8225 8227 8224 8226 8227 
8243 8245 8245 8244 8250 8249 8244 8246 8248 8249 8248 8249 8249 8250 8245 8249 8249 8252 8256 8257 8255 8259 8251 8251 8253 8252 8257 8257 8255 8254 8253 8251 8251 8250 8249 8248 8251 8252 8251 8254 8256 8253 8254 8254 8253 8253 8252 8253 8249 8249 8258 8253 8254 8251 8252 8253 8249 8249 8246 8245 8247 8248 8243 8245 8246 8246 8245 8244 8248 8245 8243 8241 8239 8238 8233 8228 8227 8225 8224 8227 
8242 8242 8247 8247 8246 8247 8246 8246 8246 8247 8248 8248 8246 8250 8246 8252 8252 8255 8254 8256 8254 8254 8250 8252 8251 8251 8256 8259 8254 8252 8252 8250 8249 8250 8248 8251 8248 8251 8250 8252 8252 8252 8252 8251 8250 8253 8249 8251 8251 8252 8253 8250 8252 8252 8251 8248 8247 8248 8249 8243 8245 8244 8244 8244 8246 8245 8246 8243 8245 8245 8244 8244 8243 8242 8238 8238 8236 8233 8232 8233 
8240 8244 8246 8243 8244 8246 8244 8249 8246 8247 8251 8247 8248 8249 8249 8251 8248 8253 8252 8253 8253 8256 8248 8248 8250 8250 8256 8257 8253 8250 8251 8251 8253 8248 8252 8250 8250 8250 8248 8249 8252 8251 8252 8249 8249 8251 8250 8250 8251 8249 8255 8253 8254 8252 8248 8246 8251 8245 8245 8244 8243 8245 8243 8244 8244 8244 8247 8246 8246 8245 8243 8244 8244 8242 8241 8240 8242 8237 8242 8233 
8244 8241 8239 8241 8244 8243 8246 8246 8249 8246 8248 8248 8246 8250 8246 8250 8249 8249 8253 8255 8253 8254 8252 8249 8248 8247 8255 8255 8252 8250 8249 8249 8248 8246 8248 8249 8250 8248 8245 8250 8250 8249 8249 8253 8247 8247 8246 8252 8249 8250 8252 8252 8254 8251 8250 8249 8246 8245 8243 8243 8243 8244 8242 8246 8243 8245 8247 8246 8245 8248 8247 8247 8247 8243 8241 8243 8240 8241 8242 8240 
8247 8242 8243 8239 8243 8249 8245 8246 8249 8250 8251 8247 8250 8249 8245 8249 8249 8251 8249 8252 8254 8254 8248 8247 8248 8247 8252 8255 8253 8246 8249 8252 8249 8248 8248 8246 8248 8245 8242 8246 8247 8249 8248 8246 8248 8249 8247 8250 8250 8250 8252 8250 8251 8250 8244 8245 8247 8244 8245 8242 8244 8243 8243 8244 8247 8248 8246 8248 8247 8249 8252 8246 8248 8244 8246 8244 8242 8245 8244 8239 
8248 8246 8245 8242 8243 8246 8242 8247 8248 8249 8247 8246 8249 8247 8248 8248 8247 8248 8251 8251 8254 8253 8251 8249 8247 8248 8254 8254 8252 8252 8250 8249 8248 8250 8244 8241 8239 8239 8234 8235 8238 8239 8242 8244 8247 8248 8247 8248 8247 8250 8250 8249 8252 8250 8245 8244 8246 8243 8243 8243 8241 8243 8243 8243 8246 8250 8249 8247 8252 8249 8250 8248 8248 8248 8246 8246 8246 8248 8246 8246 
8248 8250 8247 8244 8243 8246 8243 8246 8247 8248 8250 8247 8246 8247 8249 8251 8248 8248 8252 8251 8252 8254 8249 8251 8250 8248 8256 8254 8251 8252 8249 8248 8246 8241 8237 8235 8231 8233 8230 8232 8232 8232 8238 8240 8241 8241 8244 8246 8249 8250 8252 8255 8253 8248 8247 8245 8245 8245 8247 8243 8242 8245 8244 8246 8247 8249 8248 8252 8251 8251 8252 8250 8247 8251 8247 8247 8246 8245 8248 8243 
8253 8250 8250 8247 8244 8244 8242 8246 8245 8249 8248 8247 8249 8247 8249 8249 8250 8249 8250 8252 8252 8252 8250 8253 8252 8258 8259 8256 8253 8249 8246 8241 8238 8236 8233 8232 8231 8234 8234 8237 8235 8236 8239 8236 8237 8243 8240 8246 8247 8250 8254 8255 8251 8253 8248 8250 8247 8249 8249 8247 8250 8246 8249 8250 8250 8254 8252 8255 8255 8252 8256 8254 8250 8250 8248 8248 8245 8248 8250 8247 
8252 8252 8249 8247 8244 8245 8242 8244 8245 8248 8249 8250 8248 8250 8248 8252 8249 8250 8253 8251 8252 8253 8255 8252 8255 8256 8261 8261 8255 8243 8234 8235 8234 8235 8238 8238 8242 8244 8245 8249 8249 8245 8244 8245 8242 8238 8237 8238 8240 8249 8255 8256 8254 8254 8255 8253 8252 8253 8249 8251 8251 8252 8249 8252 8253 8255 8255 8258 8256 8255 8256 8254 8249 8250 8249 8252 8248 8248 8247 8250 
8255 8251 8249 8248 8245 8244 8242 8242 8248 8247 8249 8248 8250 8250 8249 8251 8249 8250 8249 8251 8252 8256 8255 8256 8257 8256 8260 8260 8241 8233 8233 8235 8240 8244 8248 8259 8265 8274 8272 8276 8275 8269 8263 8256 8250 8245 8240 8240 8242 8244 8255 8260 8261 8257 8254 8257 8255 8258 8256 8257 8256 8258 8254 8258 8260 8259 8258 8261 8258 8259 8258 8257 8253 8255 8253 8255 8253 8251 8249 8251 
8254 8254 8250 8249 8248 8244 8244 8244 8245 8248 8250 8250 8252 8250 8249 8249 8250 8249 8250 8251 8252 8254 8256 8257 8258 8255 8258 8248 8236 8231 8238 8244 8253 8261 8279 8295 8310 8315 8311 8316 8314 8308 8299 8287 8267 8256 8248 8244 8238 8246 8257 8260 8260 8262 8261 8260 8259 8259 8257 8258 8261 8261 8258 8261 8260 8265 8261 8263 8263 8259 8259 8258 8256 8256 8255 8255 8252 8256 8254 8254 
8253 8252 8252 8248 8244 8244 8245 8244 8247 8246 8251 8250 8251 8251 8248 8252 8250 8248 8248 8251 8250 8254 8253 8255 8254 8255 8252 8240 8233 8235 8246 8256 8275 8300 8324 8327 8328 8328 8319 8325 8330 8323 8321 8310 8297 8278 8258 8251 8239 8243 8254 8252 8262 8260 8260 8260 8259 8261 8261 8264 8262 8263 8263 8261 8263 8262 8262 8262 8263 8262 8257 8260 8255 8257 8254 8256 8255 8257 8259 8254 
8254 8250 8249 8243 8247 8246 8241 8248 8248 8248 8250 8249 8252 8252 8250 8250 8248 8251 8249 8253 8251 8252 8251 8253 8256 8255 8243 8237 8233 8238 8256 8286 8321 8330 8328 8323 8329 8334 8326 8331 8323 8328 8326 8324 8310 8300 8283 8264 8245 8241 8240 8243 8259 8262 8261 8264 8262 8265 8262 8264 8265 8263 8262 8261 8264 8265 8262 8262 8261 8258 8258 8254 8257 8259 8257 8261 8258 8261 8259 8257 
8251 8248 8246 8246 8245 8245 8243 8247 8248 8250 8252 8250 8249 8251 8251 8250 8247 8249 8250 8248 8245 8248 8249 8252 8258 8253 8238 8235 8234 8247 8283 8320 8329 8330 8329 8323 8324 8322 8317 8328 8319 8330 8325 8327 8314 8308 8302 8289 8261 8247 8240 8241 8251 8264 8262 8265 8265 8262 8263 8264 8263 8262 8260 8260 8264 8262 8262 8260 8260 8257 8256 8255 8254 8258 8259 8260 8259 8259 8260 8263 
8248 8247 8247 8245 8245 8244 8244 8246 8248 8250 8253 8250 8250 8251 8248 8248 8246 8250 8247 8246 8246 8247 8248 8256 8267 8242 8236 8235 8241 8266 8310 8324 8327 8329 8328 8310 8295 8312 8319 8320 8314 8317 8307 8316 8317 8310 8310 8308 8286 8256 8241 8242 8247 8260 8264 8264 8262 8260 8260 8262 8259 8260 8259 8262 8261 8260 8259 8257 8255 8252 8255 8253 8255 8256 8257 8261 8259 8259 8260 8258 
8247 8250 8247 8245 8246 8244 8243 8247 8247 8249 8250 8250 8250 8247 8247 8249 8246 8247 8246 8247 8244 8246 8250 8264 8271 8237 8234 8238 8252 8296 8319 8323 8328 8325 8314 8310 8322 8327 8330 8314 8315 8323 8316 8305 8309 8311 8311 8316 8315 8276 8249 8240 8247 8257 8261 8261 8260 8260 8259 8258 8259 8260 8258 8260 8258 8258 8257 8257 8252 8255 8256 8254 8256 8256 8256 8261 8257 8259 8259 8259 
8247 8246 8244 8246 8248 8245 8244 8249 8248 8249 8250 8248 8249 8248 8246 8244 8244 8245 8242 8243 8241 8247 8260 8281 8268 8237 8238 8244 8273 8310 8318 8326 8327 8314 8327 8319 8309 8327 8326 8314 8313 8325 8327 8313 8302 8308 8314 8312 8330 8299 8260 8245 8242 8248 8258 8259 8259 8257 8256 8259 8257 8261 8256 8260 8257 8256 8256 8254 8252 8254 8253 8255 8256 8255 8256 8259 8259 8259 8261 8259 
8250 8249 8249 8245 8247 8248 8246 8252 8249 8251 8251 8249 8247 8248 8246 8247 8243 8243 8241 8241 8243 8251 8268 8289 8259 8232 8237 8248 8293 8314 8314 8317 8312 8312 8329 8325 8308 8314 8319 8311 8298 8310 8313 8302 8309 8301 8315 8311 8322 8324 8276 8247 8242 8242 8256 8257 8255 8258 8257 8257 8258 8257 8257 8257 8257 8258 8256 8253 8252 8255 8256 8255 8255 8255 8254 8257 8257 8257 8260 8258 
8250 8249 8251 8245 8249 8247 8245 8249 8246 8249 8250 8246 8246 8246 8244 8246 8242 8242 8240 8242 8244 8258 8276 8289 8249 8232 8236 8254 8305 8314 8308 8304 8304 8311 8320 8316 8305 8315 8319 8315 8304 8299 8310 8321 8316 8299 8306 8314 8307 8335 8291 8256 8241 8241 8254 8258 8257 8258 8257 8256 8257 8257 8254 8256 8253 8255 8253 8253 8251 8252 8251 8251 8254 8254 8255 8256 8258 8259 8257 8256 
8251 8252 8250 8247 8243 8245 8246 8248 8247 8247 8249 8248 8247 8246 8244 8248 8243 8245 8243 8242 8247 8262 8280 8283 8249 8231 8236 8259 8307 8307 8299 8290 8290 8295 8304 8303 8306 8318 8325 8325 8316 8301 8309 8322 8319 8305 8302 8310 8300 8331 8300 8258 8240 8241 8252 8258 8257 8259 8257 8258 8257 8256 8255 8257 8256 8255 8251 8252 8251 8248 8253 8250 8251 8252 8253 8255 8254 8256 8255 8253 
8249 8250 8251 8245 8247 8247 8246 8248 8247 8245 8248 8248 8248 8249 8243 8244 8244 8244 8242 8241 8249 8267 8281 8282 8248 8229 8233 8262 8306 8299 8294 8289 8277 8297 8307 8304 8302 8310 8317 8324 8321 8313 8316 8314 8312 8314 8315 8311 8301 8332 8305 8256 8239 8239 8255 8258 8258 8257 8254 8254 8257 8259 8253 8254 8256 8252 8251 8250 8247 8247 8249 8250 8251 8252 8252 8257 8255 8255 8252 8255 
8250 8249 8252 8249 8249 8247 8247 8249 8248 8247 8248 8249 8247 8248 8246 8247 8243 8240 8241 8244 8253 8271 8283 8279 8246 8227 8234 8258 8300 8288 8287 8265 8212 8286 8303 8296 8296 8295 8306 8315 8318 8320 8316 8314 8302 8301 8304 8302 8302 8330 8300 8252 8238 8241 8252 8259 8257 8255 8256 8256 8258 8256 8254 8256 8254 8253 8249 8248 8248 8247 8249 8249 8248 8249 8251 8256 8255 8255 8255 8253 
8250 8249 8250 8250 8248 8250 8248 8250 8250 8247 8249 8247 8249 8248 8243 8242 8241 8242 8240 8243 8249 8269 8278 8276 8251 8223 8232 8249 8291 8285 8279 8278 8246 8281 8295 8286 8283 8284 8290 8298 8306 8308 8311 8315 8312 8309 8310 8309 8307 8333 8288 8247 8240 8243 8255 8257 8259 8258 8256 8257 8258 8256 8253 8253 8253 8253 8251 8251 8249 8248 8246 8246 8249 8251 8252 8253 8254 8255 8253 8251 
8252 8252 8250 8248 8249 8251 8247 8250 8246 8247 8248 8248 8245 8247 8241 8242 8241 8240 8238 8240 8247 8265 8280 8273 8259 8226 8228 8240 8276 8285 8273 8279 8270 8271 8273 8275 8284 8280 8286 8293 8293 8285 8283 8299 8295 8289 8307 8300 8314 8328 8273 8245 8240 8250 8258 8261 8258 8258 8258 8255 8256 8255 8254 8253 8252 8252 8250 8249 8246 8247 8246 8246 8246 8251 8251 8252 8255 8251 8251 8251 
8249 8252 8253 8250 8249 8254 8252 8249 8248 8245 8246 8248 8245 8244 8238 8243 8238 8239 8239 8240 8245 8264 8279 8272 8261 8234 8226 8237 8261 8281 8267 8265 8270 8265 8268 8284 8281 8283 8280 8294 8299 8258 8185 8250 8275 8291 8300 8295 8319 8311 8257 8244 8240 8253 8259 8258 8258 8258 8255 8254 8255 8252 8252 8256 8250 8251 8253 8250 8249 8247 8248 8245 8245 8249 8248 8253 8250 8251 8251 8254 
8253 8251 8251 8250 8252 8250 8248 8246 8248 8246 8246 8247 8246 8244 8240 8242 8241 8241 8239 8241 8244 8258 8270 8270 8261 8246 8225 8231 8241 8264 8264 8265 8266 8263 8261 8267 8273 8271 8272 8288 8284 8262 8172 8177 8252 8295 8288 8298 8318 8281 8247 8238 8244 8258 8259 8261 8261 8258 8257 8257 8256 8255 8253 8251 8249 8250 8251 8250 8247 8250 8249 8245 8247 8249 8252 8250 8250 8252 8254 8247 
8252 8250 8252 8249 8250 8247 8249 8247 8249 8244 8248 8247 8246 8246 8242 8245 8241 8239 8241 8241 8240 8251 8263 8265 8262 8253 8236 8226 8228 8245 8262 8261 8256 8260 8264 8258 8258 8267 8270 8267 8207 8176 8162 8207 8276 8285 8290 8306 8296 8252 8237 8235 8251 8260 8259 8261 8260 8259 8257 8255 8255 8250 8253 8255 8253 8252 8249 8250 8248 8247 8247 8245 8247 8247 8250 8251 8250 8251 8252 8250 
8248 8249 8251 8246 8246 8248 8248 8246 8247 8246 8247 8248 8247 8249 8245 8245 8240 8243 8241 8241 8240 8245 8255 8262 8264 8255 8250 8229 8221 8226 8247 8260 8257 8251 8261 8262 8262 8270 8279 8264 8204 8225 8255 8276 8287 8290 8296 8298 8260 8236 8228 8242 8256 8260 8258 8258 8257 8256 8257 8256 8257 8255 8255 8257 8253 8253 8253 8249 8249 8251 8251 8248 8245 8247 8249 8247 8250 8251 8250 8249 
8248 8251 8247 8248 8246 8249 8248 8246 8249 8247 8249 8249 8248 8249 8247 8246 8242 8246 8243 8242 8237 8244 8247 8256 8262 8260 8259 8245 8224 8222 8229 8248 8258 8261 8259 8260 8269 8276 8284 8291 8285 8283 8279 8284 8294 8298 8285 8260 8235 8226 8231 8250 8260 8263 8256 8258 8258 8257 8254 8257 8258 8255 8255 8257 8257 8256 8252 8254 8254 8248 8248 8251 8250 8249 8251 8250 8250 8249 8249 8249 
8249 8253 8249 8245 8248 8245 8245 8247 8249 8249 8248 8247 8247 8249 8246 8247 8244 8247 8241 8242 8242 8241 8244 8250 8259 8259 8261 8256 8236 8226 8224 8230 8250 8271 8276 8276 8277 8281 8281 8285 8286 8286 8291 8294 8295 8282 8250 8233 8227 8232 8249 8257 8258 8259 8257 8258 8257 8256 8256 8255 8255 8254 8254 8254 8252 8254 8255 8251 8252 8248 8250 8248 8248 8249 8252 8250 8249 8246 8246 8246 
8250 8249 8248 8247 8245 8249 8247 8247 8250 8249 8250 8248 8250 8250 8246 8248 8247 8247 8245 8243 8244 8242 8242 8248 8253 8257 8262 8257 8252 8239 8228 8225 8229 8245 8267 8283 8287 8291 8288 8290 8291 8294 8296 8284 8259 8236 8225 8226 8231 8244 8253 8256 8257 8258 8258 8258 8255 8255 8254 8258 8256 8257 8254 8255 8252 8255 8253 8250 8252 8249 8249 8249 8246 8249 8248 8248 8248 8248 8244 8244 
8248 8252 8249 8248 8247 8248 8248 8255 8246 8248 8247 8251 8249 8247 8246 8249 8244 8247 8250 8247 8245 8247 8244 8244 8249 8254 8258 8259 8254 8256 8245 8236 8231 8229 8231 8242 8253 8263 8269 8267 8265 8261 8249 8233 8224 8225 8226 8234 8242 8250 8252 8256 8257 8255 8254 8254 8256 8254 8255 8255 8256 8255 8253 8254 8250 8252 8250 8249 8250 8246 8247 8248 8247 8247 8248 8248 8248 8246 8247 8244 
8247 8253 8253 8249 8249 8252 8249 8248 8249 8249 8252 8249 8250 8251 8247 8250 8248 8250 8252 8253 8251 8254 8249 8252 8250 8251 8255 8258 8257 8258 8257 8258 8252 8243 8236 8229 8226 8230 8227 8230 8227 8229 8229 8231 8228 8232 8240 8244 8250 8252 8253 8253 8257 8258 8255 8255 8254 8254 8252 8256 8256 8256 8255 8256 8252 8253 8248 8251 8248 8248 8249 8247 8249 8250 8248 8250 8250 8248 8245 8245 
8249 8252 8251 8252 8250 8252 8251 8250 8250 8252 8249 8249 8248 8251 8247 8248 8251 8248 8251 8252 8255 8260 8258 8260 8258 8258 8260 8263 8261 8260 8262 8264 8261 8255 8251 8245 8236 8234 8228 8228 8231 8233 8237 8236 8236 8244 8245 8248 8248 8252 8254 8254 8255 8257 8252 8255 8251 8250 8252 8254 8253 8253 8254 8254 8248 8250 8246 8246 8250 8246 8249 8249 8248 8248 8248 8247 8245 8247 8245 8243 
8250 8253 8251 8250 8255 8252 8251 8250 8250 8249 8252 8251 8254 8252 8247 8251 8248 8252 8254 8257 8258 8265 8260 8261 8260 8260 8265 8264 8259 8259 8260 8259 8261 8257 8254 8248 8248 8246 8244 8244 8245 8244 8246 8244 8246 8249 8246 8249 8250 8250 8253 8256 8254 8254 8250 8253 8252 8250 8252 8250 8251 8254 8253 8250 8248 8244 8248 8247 8250 8244 8248 8251 8245 8247 8248 8247 8246 8244 8241 8237 
8249 8251 8250 8248 8253 8251 8245 8249 8248 8247 8250 8250 8252 8254 8250 8249 8247 8253 8254 8259 8264 8267 8263 8262 8262 8261 8263 8264 8262 8257 8259 8260 8258 8257 8252 8254 8249 8252 8248 8248 8250 8248 8253 8247 8249 8247 8246 8248 8250 8249 8252 8251 8253 8252 8246 8248 8247 8245 8247 8247 8250 8248 8246 8245 8240 8239 8241 8240 8239 8242 8242 8240 8240 8241 8245 8238 8238 8239 8234 8235 
8251 8251 8248 8248 8252 8251 8247 8249 8249 8246 8246 8248 8251 8252 8248 8251 8250 8251 8252 8255 8256 8256 8259 8257 8258 8261 8258 8258 8257 8254 8255 8254 8252 8250 8249 8249 8247 8249 8248 8245 8246 8246 8248 8247 8244 8243 8238 8243 8242 8243 8244 8240 8243 8244 8240 8242 8239 8239 8240 8239 8237 8237 8238 8235 8231 8231 8234 8234 8233 8234 8234 8235 8235 8235 8237 8237 8235 8231 8228 8228 
8248 8247 8250 8251 8252 8252 8246 8248 8250 8248 8248 8248 8250 8251 8251 8253 8250 8253 8254 8252 8254 8253 8250 8252 8249 8249 8252 8250 8248 8246 8247 8246 8244 8241 8241 8241 8237 8244 8238 8240 8238 8239 8237 8237 8235 8236 8232 8234 8233 8234 8234 8238 8236 8238 8232 8235 8233 8235 8234 8233 8231 8235 8235 8227 8226 8227 8228 8231 8232 8230 8233 8233 8234 8236 8233 8233 8232 8231 8229 8225 
8246 8250 8253 8250 8252 8250 8249 8251 8246 8247 8247 8246 8249 8252 8250 8251 8249 8252 8250 8251 8250 8250 8246 8250 8248 8246 8251 8247 8246 8241 8241 8238 8241 8236 8235 8235 8236 8236 8233 8235 8234 8235 8233 8233 8233 8232 8233 8231 8229 8234 8235 8234 8232 8230 8227 8229 8233 8230 8232 8229 8230 8228 8226 8226 8224 8222 8225 8229 8229 8227 8229 8230 8230 8234 8232 8230 8229 8226 8225 8224 
8251 8254 8254 8249 8251 8249 8247 8249 8251 8244 8245 8247 8250 8252 8249 8250 8248 8252 8252 8252 8252 8250 8245 8245 8246 8243 8247 8244 8240 8240 8238 8238 8235 8235 8232 8233 8232 8233 8229 8233 8231 8231 8232 8234 8230 8231 8229 8230 8230 8233 8232 8232 8232 8231 8227 8229 8230 8228 8229 8225 8228 8225 8226 8221 8224 8223 8222 8223 8230 8225 8227 8227 8229 8229 8226 8228 8222 8222 8222 8223 
8251 8253 8254 8252 8250 8247 8248 8248 8246 8246 8247 8246 8248 8250 8246 8248 8248 8247 8249 8249 8246 8248 8244 8244 8243 8240 8244 8242 8242 8239 8237 8236 8235 8229 8231 8232 8231 8231 8225 8230 8232 8227 8231 8230 8228 8229 8226 8231 8230 8232 8234 8230 8231 8229 8227 8227 8228 8224 8225 8226 8224 8225 8219 8221 8220 8222 8221 8221 8225 8225 8225 8226 8226 8229 8226 8222 8220 8220 8217 8216 
8251 8253 8254 8249 8248 8249 8246 8247 8245 8247 8247 8246 8246 8250 8245 8247 8244 8248 8245 8248 8249 8247 8244 8242 8242 8242 8242 8244 8237 8238 8237 8235 8233 8230 8229 8231 8228 8226 8226 8229 8228 8230 8229 8228 8228 8230 8229 8230 8227 8231 8231 8230 8229 8229 8225 8228 8227 8225 8221 8224 8222 8220 8221 8220 8222 8224 8225 8223 8225 8223 8228 8226 8224 8223 8222 8220 8216 8215 8218 8213 
8251 8252 8251 8249 8247 8248 8248 8249 8246 8245 8246 8245 8246 8248 8245 8244 8243 8245 8246 8246 8247 8245 8241 8239 8240 8236 8242 8242 8240 8237 8237 8235 8231 8228 8226 8224 8225 8223 8222 8227 8229 8229 8229 8227 8226 8228 8225 8230 8230 8230 8230 8230 8230 8228 8226 8225 8227 8221 8220 8222 8220 8219 8222 8222 8221 8224 8226 8225 8226 8224 8225 8229 8223 8224 8218 8218 8214 8213 8213 8215 
8249 8249 8245 8245 8248 8244 8242 8248 8246 8245 8245 8243 8245 8247 8245 8244 8241 8245 8246 8246 8249 8248 8240 8241 8242 8242 8243 8242 8237 8238 8235 8234 8230 8230 8224 8224 8222 8223 8222 8224 8224 8228 8225 8226 8223 8224 8224 8228 8229 8227 8229 8227 8231 8228 8224 8223 8225 8221 8221 8222 8221 8224 8222 8224 8224 8224 8225 8226 8231 8227 8228 8225 8225 8223 8214 8217 8213 8216 8215 8214 
8252 8242 8243 8242 8245 8243 8240 8241 8245 8242 8245 8239 8242 8246 8244 8245 8241 8246 8245 8248 8248 8248 8239 8244 8241 8239 8243 8244 8240 8239 8236 8234 8232 8233 8225 8226 8225 8225 8223 8228 8228 8230 8232 8229 8227 8227 8227 8229 8229 8229 8231 8230 8233 8230 8228 8225 8222 8224 8222 8222 8220 8226 8223 8221 8223 8227 8231 8229 8235 8228 8232 8229 8228 8226 8218 8218 8216 8218 8216 8214 


