P2
80 60
8208
8149 8158 8155 8152 8154 8156 8157 8155 8154 8154 8158 8158 8156 8156 8157 8156 8152 8152 8154 8157 8158 8158 8157 8159 8161 8166 8164 8161 8163 8164 8169 8163 8162 8162 8164 8166 8165 8165 8170 8172 8172 8168 8176 8172 8173 8171 8170 8169 8163 8163 8163 8161 8162 8162 8160 8164 8164 8164 8163 8165 8163 8165 8167 8167 8169 8169 8170 8175 8174 8173 8172 8172 8175 8174 8171 8174 8174 8172 8169 8174 
8152 8155 8160 8155 8153 8153 8154 8156 8156 8155 8160 8158 8157 8156 8156 8153 8152 8154 8154 8157 8158 8158 8157 8157 8161 8163 8160 8162 8163 8163 8165 8160 8163 8166 8162 8161 8163 8162 8172 8172 8172 8172 8176 8172 8175 8175 8171 8171 8164 8165 8166 8160 8162 8160 8162 8162 8162 8163 8165 8165 8164 8167 8167 8168 8171 8169 8174 8172 8174 8169 8171 8176 8175 8174 8174 8173 8175 8175 8167 8166 
8153 8155 8158 8153 8153 8154 8153 8153 8155 8155 8154 8155 8156 8156 8156 8152 8151 8154 8156 8155 8157 8157 8155 8160 8156 8159 8151 8145 8151 8158 8164 8162 8165 8167 8166 8164 8164 8158 8168 8174 8175 8172 8177 8176 8178 8175 8173 8169 8167 8167 8165 8166 8166 8162 8164 8163 8163 8161 8165 8163 8163 8166 8165 8165 8168 8168 8170 8171 8171 8167 8171 8175 8176 8176 8172 8174 8177 8172 8166 8169 
8153 8155 8157 8151 8153 8149 8155 8149 8154 8150 8154 8156 8154 8158 8154 8155 8155 8157 8158 8161 8155 8156 8153 8157 8154 8141 8133 8134 8139 8146 8165 8168 8170 8172 8172 8167 8167 8157 8171 8175 8181 8181 8183 8177 8182 8182 8182 8180 8175 8172 8171 8172 8169 8168 8165 8163 8165 8162 8163 8162 8163 8163 8168 8167 8167 8168 8168 8171 8169 8167 8171 8175 8175 8174 8173 8172 8172 8174 8164 8165 
8151 8153 8163 8156 8152 8154 8151 8153 8150 8151 8153 8156 8153 8154 8152 8157 8153 8155 8159 8158 8159 8157 8155 8160 8148 8134 8129 8133 8142 8154 8177 8178 8180 8184 8182 8166 8159 8153 8159 8162 8159 8161 8165 8159 8165 8171 8178 8183 8181 8181 8175 8176 8175 8172 8166 8166 8159 8161 8164 8164 8164 8163 8167 8166 8169 8172 8169 8169 8171 8168 8175 8171 8176 8176 8172 8174 8173 8170 8163 8165 
8153 8156 8162 8154 8153 8153 8155 8151 8153 8151 8153 8154 8157 8155 8153 8156 8155 8160 8163 8165 8163 8148 8142 8155 8162 8144 8135 8141 8155 8163 8171 8172 8177 8174 8172 8169 8167 8155 8157 8156 8157 8151 8154 8152 8154 8159 8163 8180 8184 8180 8179 8178 8176 8175 8169 8169 8166 8165 8167 8167 8166 8166 8166 8170 8172 8170 8169 8170 8172 8169 8170 8172 8174 8176 8173 8174 8171 8166 8165 8165 
8152 8158 8158 8153 8153 8151 8151 8151 8153 8150 8154 8153 8155 8155 8155 8157 8155 8163 8167 8167 8167 8152 8141 8134 8158 8160 8138 8145 8152 8148 8149 8149 8152 8161 8172 8183 8186 8175 8157 8155 8151 8157 8164 8169 8172 8178 8187 8189 8187 8181 8181 8178 8177 8174 8171 8169 8168 8168 8164 8167 8166 8165 8166 8170 8166 8166 8167 8171 8172 8166 8169 8171 8171 8173 8174 8172 8169 8162 8161 8166 
8152 8157 8159 8152 8151 8153 8153 8158 8156 8152 8156 8156 8155 8156 8154 8160 8161 8166 8168 8171 8165 8161 8151 8138 8154 8147 8142 8141 8140 8146 8141 8143 8164 8179 8188 8192 8190 8177 8159 8155 8170 8185 8194 8191 8193 8195 8196 8196 8188 8184 8185 8184 8181 8178 8174 8170 8169 8169 8166 8166 8167 8167 8168 8170 8169 8168 8171 8172 8170 8168 8168 8171 8175 8173 8174 8172 8167 8164 8161 8161 
8151 8158 8158 8155 8158 8151 8160 8158 8158 8158 8157 8157 8160 8159 8160 8164 8163 8162 8150 8152 8152 8139 8134 8135 8147 8139 8139 8139 8145 8143 8145 8143 8161 8189 8195 8193 8193 8171 8165 8155 8158 8169 8184 8186 8194 8200 8198 8198 8188 8188 8188 8186 8183 8179 8177 8172 8174 8171 8169 8169 8165 8164 8166 8169 8172 8170 8170 8174 8169 8167 8167 8171 8172 8173 8170 8172 8168 8167 8162 8161 
8153 8155 8161 8159 8161 8161 8163 8162 8161 8164 8166 8167 8168 8166 8167 8168 8166 8151 8134 8137 8163 8141 8126 8135 8153 8146 8141 8142 8145 8149 8148 8147 8151 8177 8195 8192 8189 8175 8169 8163 8174 8162 8155 8156 8175 8191 8193 8193 8188 8187 8189 8187 8181 8178 8174 8172 8174 8173 8170 8171 8170 8168 8167 8170 8172 8173 8171 8173 8171 8168 8171 8171 8165 8171 8172 8170 8169 8168 8163 8165 
8156 8157 8163 8160 8162 8162 8167 8164 8170 8170 8173 8174 8170 8171 8168 8170 8162 8139 8132 8135 8150 8152 8137 8126 8143 8145 8146 8169 8175 8175 8168 8158 8163 8165 8190 8195 8183 8178 8169 8180 8187 8179 8162 8152 8160 8182 8179 8177 8176 8180 8182 8185 8182 8180 8176 8172 8175 8173 8171 8174 8171 8170 8172 8174 8173 8172 8172 8171 8172 8168 8171 8169 8166 8171 8171 8171 8168 8166 8162 8164 
8155 8161 8162 8164 8165 8166 8170 8171 8172 8171 8172 8175 8172 8171 8169 8166 8154 8134 8130 8128 8130 8135 8142 8125 8129 8139 8156 8181 8180 8180 8185 8170 8181 8187 8191 8192 8173 8171 8167 8156 8156 8156 8173 8163 8161 8159 8150 8147 8147 8149 8167 8180 8181 8181 8178 8175 8175 8174 8174 8174 8173 8173 8174 8176 8178 8173 8175 8173 8174 8168 8170 8170 8169 8166 8170 8169 8168 8167 8163 8163 
8156 8162 8164 8164 8165 8170 8172 8171 8170 8169 8171 8174 8174 8171 8165 8151 8147 8153 8131 8122 8121 8122 8131 8138 8132 8132 8163 8173 8159 8152 8161 8164 8157 8165 8172 8181 8165 8157 8145 8140 8141 8143 8182 8194 8179 8148 8145 8146 8141 8141 8144 8153 8168 8181 8174 8176 8176 8174 8175 8175 8176 8173 8175 8174 8177 8178 8176 8174 8172 8169 8169 8172 8170 8165 8168 8167 8166 8171 8165 8166 
8156 8162 8166 8165 8170 8172 8175 8171 8172 8168 8172 8175 8174 8173 8174 8173 8170 8173 8154 8131 8128 8129 8142 8135 8132 8134 8135 8146 8137 8137 8139 8157 8131 8132 8137 8140 8150 8147 8137 8136 8140 8150 8193 8196 8189 8155 8148 8141 8142 8137 8144 8140 8142 8171 8177 8178 8178 8178 8180 8178 8177 8177 8176 8180 8178 8175 8175 8173 8172 8170 8172 8171 8167 8166 8167 8168 8169 8167 8165 8172 
8158 8162 8165 8166 8168 8172 8173 8170 8171 8169 8173 8176 8177 8174 8177 8176 8172 8173 8174 8165 8156 8144 8148 8139 8146 8131 8127 8129 8136 8136 8142 8165 8149 8129 8129 8131 8130 8131 8133 8136 8139 8175 8198 8193 8193 8154 8143 8141 8138 8138 8142 8141 8144 8173 8179 8182 8180 8178 8181 8179 8176 8178 8180 8181 8179 8175 8178 8176 8178 8173 8173 8171 8171 8168 8166 8168 8169 8168 8164 8168 
8161 8166 8168 8169 8171 8172 8174 8171 8172 8169 8174 8173 8173 8171 8178 8177 8175 8175 8173 8171 8170 8170 8136 8126 8133 8131 8130 8133 8135 8133 8138 8149 8138 8133 8131 8128 8125 8128 8134 8140 8156 8187 8194 8190 8183 8149 8137 8132 8128 8131 8133 8144 8160 8179 8177 8178 8177 8178 8181 8176 8177 8176 8179 8182 8181 8179 8177 8179 8176 8175 8176 8174 8175 8170 8167 8167 8169 8169 8164 8170 
8164 8169 8171 8171 8175 8174 8173 8175 8175 8171 8174 8175 8174 8178 8178 8180 8178 8176 8161 8144 8164 8174 8146 8132 8126 8135 8135 8135 8135 8132 8135 8133 8133 8132 8130 8128 8128 8128 8137 8144 8140 8155 8159 8153 8162 8174 8145 8135 8128 8127 8129 8141 8155 8172 8177 8179 8179 8172 8174 8178 8178 8181 8179 8179 8181 8183 8179 8181 8182 8180 8179 8177 8177 8177 8172 8173 8171 8170 8162 8165 
8161 8170 8172 8172 8176 8173 8173 8176 8176 8173 8174 8176 8177 8177 8178 8179 8175 8164 8144 8145 8151 8180 8177 8150 8132 8134 8136 8136 8140 8138 8133 8132 8130 8133 8132 8126 8128 8123 8130 8135 8135 8133 8138 8135 8153 8164 8183 8173 8148 8135 8130 8156 8172 8175 8180 8180 8174 8150 8150 8172 8181 8180 8178 8182 8182 8183 8184 8184 8182 8179 8179 8182 8183 8181 8177 8177 8172 8170 8165 8168 
8166 8171 8176 8172 8178 8174 8176 8175 8178 8176 8175 8176 8177 8177 8179 8178 8172 8150 8142 8145 8154 8165 8167 8151 8134 8139 8141 8138 8143 8137 8133 8130 8132 8133 8132 8128 8123 8124 8130 8132 8133 8135 8138 8136 8137 8152 8185 8192 8187 8169 8140 8165 8178 8180 8175 8176 8175 8142 8131 8146 8170 8179 8178 8182 8182 8185 8186 8183 8182 8178 8181 8185 8183 8183 8183 8179 8172 8170 8164 8170 
8167 8174 8175 8172 8173 8175 8178 8177 8177 8174 8178 8176 8168 8176 8178 8177 8157 8144 8153 8174 8176 8182 8176 8147 8132 8137 8138 8137 8138 8136 8135 8130 8131 8131 8131 8125 8144 8129 8130 8131 8132 8134 8136 8133 8139 8138 8150 8166 8179 8170 8161 8155 8161 8167 8174 8173 8158 8133 8133 8135 8147 8172 8180 8180 8181 8185 8183 8182 8183 8180 8182 8179 8182 8182 8182 8179 8177 8168 8167 8165 
8170 8177 8179 8176 8177 8174 8178 8178 8177 8173 8178 8157 8146 8170 8178 8171 8147 8155 8178 8176 8178 8177 8169 8145 8133 8133 8135 8138 8140 8134 8133 8130 8128 8136 8130 8127 8129 8125 8130 8131 8128 8126 8139 8141 8143 8142 8141 8140 8139 8133 8134 8135 8135 8137 8141 8146 8130 8130 8137 8135 8133 8155 8176 8181 8180 8181 8182 8183 8183 8181 8182 8182 8182 8183 8178 8181 8175 8171 8164 8166 
8170 8181 8180 8179 8178 8177 8178 8178 8178 8176 8172 8148 8140 8148 8162 8157 8146 8166 8155 8156 8163 8154 8155 8143 8134 8139 8136 8133 8134 8135 8132 8130 8133 8135 8133 8126 8125 8127 8137 8134 8128 8126 8130 8135 8138 8145 8145 8142 8136 8133 8134 8134 8135 8134 8133 8136 8148 8144 8132 8131 8135 8143 8169 8180 8181 8183 8183 8183 8181 8179 8183 8180 8181 8181 8178 8178 8176 8171 8165 8169 
8177 8180 8184 8178 8176 8176 8178 8176 8177 8179 8167 8142 8139 8140 8138 8139 8143 8149 8145 8145 8146 8169 8174 8148 8133 8139 8132 8130 8137 8135 8134 8133 8133 8131 8131 8123 8125 8130 8139 8134 8127 8124 8129 8133 8146 8147 8142 8140 8136 8134 8132 8134 8133 8136 8135 8131 8151 8170 8162 8140 8135 8136 8153 8178 8181 8183 8184 8185 8181 8182 8182 8182 8181 8178 8176 8175 8177 8168 8164 8174 
8178 8180 8182 8180 8179 8174 8177 8180 8182 8174 8157 8140 8138 8138 8135 8135 8139 8146 8146 8145 8142 8146 8160 8143 8133 8136 8136 8139 8139 8140 8137 8130 8129 8134 8130 8128 8125 8127 8131 8131 8129 8126 8128 8130 8150 8151 8141 8141 8136 8135 8133 8131 8134 8136 8135 8133 8140 8149 8167 8171 8145 8135 8141 8168 8182 8184 8187 8185 8181 8181 8179 8180 8182 8175 8176 8174 8171 8170 8165 8165 
8178 8181 8183 8179 8177 8178 8180 8181 8183 8177 8152 8141 8139 8139 8136 8140 8155 8165 8152 8148 8142 8140 8137 8137 8134 8139 8138 8139 8140 8142 8139 8135 8133 8133 8130 8129 8126 8128 8131 8130 8131 8129 8130 8127 8145 8149 8141 8139 8136 8133 8133 8136 8135 8135 8133 8136 8133 8130 8136 8162 8166 8149 8137 8157 8180 8180 8187 8183 8181 8181 8183 8179 8179 8176 8174 8175 8172 8170 8164 8165 
8176 8180 8179 8178 8176 8178 8180 8179 8181 8171 8148 8139 8141 8136 8140 8150 8175 8179 8176 8157 8143 8141 8134 8136 8131 8140 8140 8142 8143 8142 8140 8143 8136 8135 8134 8131 8136 8130 8133 8133 8134 8142 8136 8127 8142 8146 8140 8139 8136 8134 8135 8132 8130 8136 8132 8133 8132 8131 8129 8137 8163 8170 8152 8149 8177 8182 8182 8183 8183 8182 8180 8179 8182 8178 8176 8171 8172 8169 8165 8164 
8177 8179 8183 8177 8179 8179 8179 8179 8180 8173 8147 8143 8140 8139 8139 8168 8181 8181 8180 8179 8160 8142 8134 8134 8137 8141 8140 8138 8140 8142 8143 8146 8138 8134 8133 8134 8150 8140 8134 8134 8136 8135 8136 8133 8136 8134 8140 8139 8132 8133 8132 8132 8131 8133 8132 8130 8135 8134 8128 8131 8148 8178 8172 8160 8172 8184 8184 8185 8185 8181 8185 8185 8182 8180 8178 8174 8172 8170 8166 8168 
8175 8180 8183 8182 8178 8179 8183 8180 8182 8172 8148 8142 8143 8140 8148 8178 8182 8183 8182 8180 8170 8142 8136 8138 8136 8140 8141 8140 8140 8144 8146 8143 8141 8140 8136 8136 8136 8141 8135 8132 8133 8133 8135 8131 8134 8132 8136 8142 8136 8135 8136 8127 8129 8131 8129 8129 8124 8127 8126 8129 8149 8176 8182 8170 8172 8181 8183 8184 8184 8179 8180 8181 8181 8179 8174 8177 8174 8173 8168 8172 
8177 8184 8182 8183 8184 8181 8187 8183 8182 8175 8150 8147 8143 8145 8157 8183 8180 8183 8184 8180 8163 8137 8139 8140 8138 8143 8141 8138 8142 8149 8152 8146 8138 8140 8138 8132 8131 8132 8144 8139 8136 8134 8139 8133 8133 8131 8131 8140 8140 8137 8132 8124 8121 8126 8124 8124 8122 8120 8127 8128 8156 8178 8181 8176 8179 8185 8183 8187 8183 8179 8181 8183 8181 8179 8177 8179 8176 8175 8171 8172 
8180 8183 8184 8184 8184 8185 8184 8181 8184 8175 8152 8146 8143 8144 8158 8181 8184 8184 8180 8180 8152 8132 8138 8140 8142 8145 8141 8137 8138 8152 8152 8138 8134 8134 8135 8131 8133 8128 8133 8137 8136 8134 8138 8137 8133 8134 8130 8141 8135 8138 8132 8122 8123 8122 8119 8121 8123 8125 8128 8138 8173 8180 8181 8183 8182 8183 8187 8187 8183 8179 8182 8184 8183 8182 8179 8175 8177 8174 8172 8175 
8181 8184 8189 8190 8185 8184 8187 8185 8185 8177 8151 8146 8148 8145 8157 8182 8184 8185 8185 8183 8151 8134 8136 8142 8144 8148 8136 8135 8141 8144 8141 8139 8135 8138 8134 8136 8133 8134 8131 8135 8137 8137 8137 8138 8133 8131 8125 8138 8136 8134 8132 8127 8124 8125 8125 8122 8124 8127 8137 8167 8187 8181 8186 8185 8186 8186 8187 8188 8184 8182 8184 8184 8184 8182 8184 8180 8179 8179 8174 8178 
8182 8187 8189 8186 8185 8183 8184 8185 8183 8175 8152 8148 8145 8146 8164 8181 8185 8185 8187 8182 8147 8137 8135 8153 8174 8158 8143 8141 8142 8137 8135 8136 8134 8138 8137 8136 8136 8141 8143 8149 8136 8135 8139 8133 8131 8127 8126 8127 8131 8135 8128 8126 8123 8125 8120 8122 8125 8143 8170 8184 8184 8185 8185 8186 8188 8189 8189 8187 8183 8185 8186 8185 8183 8181 8183 8178 8182 8178 8172 8174 
8186 8187 8191 8186 8188 8186 8185 8187 8186 8183 8164 8151 8151 8149 8176 8183 8186 8186 8186 8187 8173 8164 8166 8182 8182 8168 8146 8149 8142 8136 8134 8133 8132 8137 8139 8137 8142 8148 8147 8141 8134 8131 8148 8139 8130 8130 8126 8127 8123 8138 8133 8127 8128 8125 8123 8126 8153 8178 8185 8185 8184 8183 8184 8189 8188 8188 8189 8186 8186 8183 8185 8186 8184 8182 8183 8182 8179 8181 8177 8185 
8186 8187 8192 8189 8188 8188 8189 8188 8189 8187 8186 8176 8170 8179 8185 8187 8184 8187 8187 8187 8185 8184 8185 8188 8185 8177 8146 8148 8145 8137 8131 8133 8129 8132 8139 8151 8157 8156 8149 8143 8142 8136 8148 8138 8133 8132 8127 8134 8136 8143 8136 8131 8122 8125 8122 8137 8177 8183 8186 8187 8187 8185 8186 8187 8188 8189 8188 8191 8189 8184 8185 8185 8188 8189 8185 8186 8186 8180 8180 8181 
8186 8189 8191 8189 8188 8186 8189 8189 8187 8184 8186 8188 8187 8187 8187 8189 8185 8188 8187 8188 8187 8185 8186 8187 8188 8188 8149 8144 8144 8136 8133 8130 8132 8138 8148 8152 8156 8153 8155 8151 8144 8139 8138 8136 8133 8136 8142 8150 8150 8147 8133 8133 8129 8129 8123 8128 8172 8184 8187 8185 8187 8186 8188 8187 8185 8188 8191 8189 8187 8184 8184 8188 8190 8185 8191 8187 8190 8184 8186 8189 
8189 8193 8193 8187 8188 8189 8190 8187 8188 8186 8187 8189 8189 8191 8189 8189 8188 8190 8188 8188 8190 8186 8187 8188 8188 8192 8165 8149 8150 8143 8135 8140 8139 8142 8139 8138 8148 8152 8156 8159 8145 8136 8138 8133 8132 8140 8150 8160 8154 8151 8133 8133 8129 8127 8121 8124 8159 8184 8187 8189 8188 8187 8186 8188 8190 8187 8189 8191 8189 8189 8186 8188 8188 8189 8191 8187 8188 8190 8183 8184 
8186 8191 8192 8189 8191 8189 8191 8188 8190 8186 8192 8186 8190 8190 8187 8188 8188 8184 8188 8189 8189 8190 8186 8187 8188 8192 8182 8158 8150 8144 8141 8143 8141 8143 8142 8139 8147 8146 8155 8157 8143 8138 8135 8133 8130 8132 8141 8153 8152 8150 8135 8130 8126 8125 8121 8124 8160 8185 8188 8187 8186 8188 8187 8187 8188 8188 8192 8189 8191 8189 8186 8191 8187 8188 8192 8187 8189 8190 8190 8184 
8188 8189 8193 8191 8190 8188 8190 8189 8190 8189 8190 8193 8189 8193 8189 8186 8184 8186 8187 8190 8189 8190 8187 8190 8190 8190 8188 8168 8151 8149 8147 8144 8142 8145 8142 8143 8144 8149 8156 8147 8138 8136 8138 8131 8132 8133 8136 8140 8147 8151 8143 8130 8127 8124 8123 8132 8176 8185 8188 8189 8186 8186 8189 8191 8191 8188 8188 8190 8192 8188 8188 8189 8190 8187 8189 8188 8192 8190 8185 8188 
8187 8192 8192 8190 8192 8187 8188 8187 8190 8188 8188 8190 8190 8190 8188 8189 8185 8187 8185 8188 8189 8189 8189 8188 8189 8191 8190 8167 8149 8147 8147 8143 8145 8146 8143 8143 8145 8147 8148 8139 8135 8135 8137 8134 8135 8135 8133 8135 8143 8146 8146 8140 8132 8129 8131 8157 8186 8188 8189 8191 8188 8186 8190 8191 8189 8188 8190 8190 8190 8188 8189 8190 8191 8192 8188 8189 8189 8191 8186 8187 
8189 8193 8193 8192 8192 8190 8188 8188 8188 8191 8191 8191 8192 8191 8193 8193 8188 8189 8189 8190 8189 8189 8188 8189 8188 8195 8193 8173 8150 8151 8147 8146 8144 8147 8143 8145 8147 8147 8149 8140 8139 8140 8142 8137 8135 8138 8135 8132 8141 8145 8141 8147 8154 8142 8148 8180 8189 8191 8192 8189 8189 8188 8189 8192 8187 8191 8190 8191 8190 8187 8189 8192 8191 8190 8189 8191 8191 8193 8186 8189 
8188 8192 8194 8190 8192 8191 8188 8189 8189 8186 8191 8192 8190 8191 8191 8190 8187 8187 8185 8189 8189 8188 8191 8190 8188 8194 8188 8182 8157 8153 8148 8144 8143 8146 8141 8145 8143 8146 8142 8142 8139 8142 8144 8141 8140 8140 8137 8133 8140 8142 8150 8155 8163 8157 8179 8187 8189 8191 8194 8191 8189 8188 8190 8192 8189 8188 8190 8193 8191 8188 8185 8193 8191 8186 8192 8188 8191 8192 8186 8191 
8189 8192 8194 8189 8191 8190 8189 8188 8189 8187 8193 8193 8192 8190 8190 8189 8186 8187 8188 8187 8189 8187 8190 8190 8188 8192 8192 8189 8158 8157 8149 8144 8141 8145 8145 8143 8144 8147 8146 8144 8143 8146 8144 8144 8145 8140 8135 8135 8144 8158 8159 8159 8175 8184 8188 8186 8190 8188 8190 8190 8188 8188 8189 8189 8189 8187 8190 8189 8191 8186 8187 8189 8190 8186 8189 8191 8192 8191 8184 8191 
8189 8190 8194 8189 8190 8190 8190 8188 8190 8192 8192 8193 8193 8192 8192 8191 8188 8188 8188 8190 8188 8189 8188 8189 8191 8195 8192 8190 8169 8154 8153 8141 8147 8144 8145 8147 8145 8145 8150 8142 8146 8141 8143 8141 8144 8141 8139 8149 8165 8162 8158 8160 8182 8190 8187 8191 8189 8188 8192 8190 8190 8188 8186 8189 8190 8189 8188 8190 8188 8187 8191 8189 8187 8187 8190 8189 8189 8188 8183 8185 
8188 8194 8194 8190 8191 8192 8191 8192 8193 8189 8192 8192 8194 8191 8190 8187 8189 8190 8189 8188 8187 8188 8189 8194 8194 8195 8191 8191 8190 8156 8154 8146 8144 8147 8153 8158 8153 8147 8150 8151 8146 8145 8143 8138 8142 8148 8146 8164 8165 8163 8152 8169 8186 8189 8188 8190 8191 8191 8190 8190 8189 8188 8188 8187 8188 8187 8189 8189 8189 8186 8189 8190 8190 8189 8188 8188 8188 8189 8184 8192 
8190 8190 8194 8189 8190 8192 8193 8192 8195 8191 8193 8193 8190 8192 8190 8188 8189 8192 8190 8192 8189 8191 8191 8193 8192 8197 8192 8192 8193 8179 8148 8151 8146 8151 8159 8168 8171 8167 8168 8169 8155 8146 8146 8139 8147 8150 8159 8172 8167 8154 8164 8186 8186 8192 8188 8187 8188 8189 8190 8191 8189 8188 8187 8188 8187 8188 8187 8188 8189 8185 8191 8189 8188 8188 8186 8185 8189 8188 8184 8181 
8188 8190 8196 8191 8194 8192 8194 8191 8191 8194 8191 8194 8193 8192 8191 8193 8189 8189 8190 8189 8189 8193 8193 8192 8193 8198 8196 8194 8195 8192 8172 8144 8146 8150 8162 8164 8167 8168 8171 8166 8157 8149 8144 8136 8149 8165 8171 8170 8157 8161 8185 8191 8190 8191 8186 8186 8187 8188 8188 8189 8189 8191 8188 8187 8186 8188 8187 8191 8187 8184 8187 8190 8188 8186 8183 8187 8189 8186 8184 8182 
8190 8192 8195 8194 8192 8187 8193 8190 8191 8188 8194 8194 8192 8194 8192 8191 8189 8190 8189 8190 8189 8194 8190 8193 8192 8198 8198 8196 8195 8195 8189 8171 8151 8150 8162 8166 8165 8163 8160 8157 8155 8150 8148 8135 8153 8166 8165 8163 8160 8180 8188 8190 8190 8191 8185 8184 8187 8186 8188 8191 8189 8189 8188 8191 8186 8188 8190 8190 8190 8185 8189 8188 8187 8186 8183 8184 8187 8185 8180 8181 
8192 8194 8193 8194 8193 8189 8194 8193 8194 8188 8192 8195 8193 8195 8193 8195 8189 8189 8190 8191 8189 8192 8191 8193 8191 8198 8197 8195 8198 8194 8193 8190 8185 8166 8155 8159 8158 8150 8156 8158 8157 8154 8150 8150 8160 8160 8161 8176 8188 8190 8192 8190 8191 8190 8187 8186 8187 8188 8188 8190 8189 8192 8188 8192 8191 8191 8190 8190 8190 8187 8188 8188 8188 8185 8184 8184 8186 8186 8183 8186 
8190 8194 8193 8193 8195 8189 8191 8191 8192 8190 8194 8195 8196 8193 8191 8193 8190 8188 8189 8190 8193 8192 8190 8195 8192 8198 8197 8199 8197 8197 8194 8195 8192 8191 8176 8150 8146 8149 8154 8158 8159 8155 8153 8150 8158 8171 8188 8196 8190 8192 8189 8192 8190 8189 8188 8188 8190 8188 8191 8191 8191 8191 8189 8194 8192 8192 8190 8186 8191 8186 8187 8187 8191 8186 8181 8182 8186 8186 8181 8185 
8194 8194 8198 8195 8192 8194 8193 8191 8193 8193 8195 8196 8196 8193 8194 8193 8190 8190 8189 8192 8190 8191 8194 8193 8194 8196 8196 8199 8200 8202 8199 8195 8193 8187 8159 8146 8146 8155 8158 8159 8157 8155 8157 8152 8160 8182 8192 8195 8194 8191 8192 8194 8190 8191 8189 8193 8192 8190 8193 8192 8194 8193 8191 8191 8191 8189 8191 8190 8193 8188 8187 8191 8187 8187 8185 8184 8183 8187 8184 8185 
8192 8194 8196 8193 8186 8191 8191 8191 8194 8190 8194 8194 8193 8194 8194 8193 8191 8190 8190 8192 8191 8191 8193 8195 8194 8196 8193 8198 8200 8202 8197 8193 8189 8165 8150 8150 8153 8155 8157 8157 8157 8159 8158 8155 8153 8156 8173 8194 8193 8195 8192 8193 8191 8191 8192 8192 8193 8192 8195 8194 8195 8191 8191 8189 8192 8188 8190 8190 8189 8187 8189 8188 8187 8185 8183 8183 8185 8185 8181 8181 
8192 8195 8196 8192 8192 8191 8193 8188 8189 8190 8193 8194 8195 8194 8197 8195 8190 8191 8190 8191 8190 8196 8190 8195 8191 8197 8198 8198 8200 8202 8197 8195 8186 8159 8153 8149 8149 8152 8158 8158 8159 8157 8155 8155 8155 8157 8155 8180 8194 8193 8193 8195 8194 8195 8191 8192 8192 8194 8196 8190 8193 8190 8191 8192 8190 8188 8189 8191 8191 8186 8190 8193 8186 8186 8185 8184 8185 8186 8186 8183 
8193 8197 8198 8193 8194 8191 8191 8192 8192 8195 8195 8194 8195 8193 8193 8194 8189 8191 8193 8194 8190 8196 8195 8195 8197 8201 8199 8200 8199 8202 8198 8196 8188 8161 8154 8151 8151 8156 8160 8158 8158 8158 8159 8157 8157 8159 8156 8162 8185 8194 8194 8193 8193 8195 8190 8194 8195 8195 8195 8193 8192 8191 8191 8193 8192 8191 8188 8192 8191 8189 8188 8188 8190 8189 8186 8188 8185 8185 8184 8186 
8191 8194 8196 8194 8192 8190 8193 8193 8192 8192 8196 8196 8198 8197 8198 8197 8193 8193 8194 8191 8193 8193 8194 8195 8195 8198 8195 8196 8198 8200 8198 8197 8192 8167 8149 8149 8150 8159 8158 8158 8156 8155 8157 8155 8157 8156 8156 8158 8174 8192 8196 8196 8193 8195 8194 8196 8196 8193 8193 8193 8195 8193 8193 8189 8194 8188 8189 8189 8191 8185 8189 8188 8186 8185 8185 8188 8186 8183 8186 8186 
8197 8197 8200 8195 8196 8192 8194 8190 8193 8190 8195 8197 8198 8198 8199 8194 8191 8192 8194 8191 8192 8192 8195 8195 8195 8197 8197 8199 8200 8201 8200 8200 8195 8174 8153 8152 8154 8159 8155 8161 8157 8156 8158 8157 8155 8158 8156 8159 8175 8193 8197 8196 8195 8196 8195 8198 8196 8195 8196 8196 8194 8193 8192 8190 8188 8188 8188 8187 8191 8188 8187 8191 8187 8188 8188 8185 8186 8188 8189 8184 
8197 8201 8199 8190 8194 8191 8191 8192 8194 8190 8194 8193 8195 8196 8195 8192 8190 8193 8191 8192 8190 8190 8192 8195 8195 8200 8194 8199 8199 8199 8202 8199 8197 8187 8156 8149 8154 8153 8156 8159 8157 8154 8157 8162 8158 8155 8157 8158 8180 8196 8198 8198 8196 8197 8196 8195 8197 8194 8195 8198 8192 8193 8193 8192 8188 8187 8188 8190 8193 8187 8192 8190 8189 8188 8189 8189 8186 8188 8185 8185 
8194 8198 8198 8191 8189 8184 8189 8189 8188 8189 8192 8192 8191 8194 8194 8193 8194 8195 8192 8190 8189 8191 8192 8194 8193 8196 8194 8196 8197 8199 8199 8199 8196 8197 8170 8152 8153 8153 8158 8157 8155 8153 8157 8157 8160 8157 8155 8163 8189 8200 8201 8199 8196 8196 8194 8196 8197 8196 8196 8194 8193 8195 8193 8193 8190 8191 8191 8189 8191 8189 8187 8191 8189 8187 8188 8186 8186 8188 8186 8187 
8196 8199 8194 8189 8189 8188 8187 8187 8190 8187 8192 8192 8193 8194 8193 8194 8191 8192 8188 8193 8193 8192 8191 8191 8190 8197 8196 8197 8201 8200 8200 8201 8198 8199 8191 8161 8156 8151 8159 8159 8157 8154 8153 8154 8158 8156 8159 8172 8198 8194 8199 8202 8196 8196 8196 8195 8197 8196 8197 8196 8197 8195 8193 8194 8193 8192 8195 8196 8192 8192 8191 8188 8193 8189 8189 8189 8191 8191 8186 8185 
8197 8201 8198 8189 8190 8186 8189 8187 8188 8187 8192 8192 8195 8194 8194 8194 8190 8191 8190 8195 8191 8195 8190 8193 8191 8198 8197 8195 8201 8198 8199 8198 8198 8200 8197 8182 8160 8155 8160 8156 8156 8155 8159 8156 8157 8160 8163 8187 8198 8201 8198 8202 8202 8199 8198 8200 8201 8198 8202 8200 8201 8203 8196 8194 8195 8193 8191 8193 8192 8192 8190 8189 8191 8190 8192 8190 8190 8190 8187 8189 
8204 8200 8197 8187 8187 8185 8184 8187 8189 8185 8189 8192 8195 8194 8195 8194 8192 8190 8193 8191 8192 8192 8190 8194 8193 8197 8192 8194 8193 8197 8201 8199 8201 8198 8193 8184 8167 8151 8159 8159 8158 8153 8156 8153 8158 8159 8168 8190 8202 8201 8201 8200 8200 8201 8198 8202 8203 8203 8203 8202 8208 8198 8202 8196 8198 8196 8193 8192 8196 8192 8190 8190 8190 8189 8192 8189 8190 8190 8189 8192 


