P2
80 60
8425
8302 8299 8302 8300 8307 8305 8300 8300 8297 8298 8300 8302 8305 8301 8300 8303 8305 8302 8303 8302 8300 8300 8306 8302 8301 8307 8309 8312 8314 8313 8316 8320 8318 8313 8313 8312 8315 8314 8314 8315 8308 8303 8301 8305 8301 8297 8295 8296 8296 8293 8295 8296 8292 8291 8291 8294 8292 8294 8293 8296 8300 8295 8294 8291 8294 8287 8291 8292 8296 8294 8292 8297 8297 8301 8298 8300 8302 8300 8301 8303 
8296 8302 8305 8302 8302 8302 8298 8296 8297 8303 8300 8299 8300 8301 8299 8300 8300 8301 8301 8301 8298 8300 8301 8300 8303 8306 8306 8311 8315 8313 8314 8319 8315 8313 8313 8307 8311 8314 8317 8313 8307 8306 8301 8299 8297 8299 8297 8295 8296 8296 8293 8294 8292 8294 8292 8290 8290 8290 8293 8296 8296 8292 8293 8292 8286 8288 8291 8292 8293 8296 8290 8295 8295 8300 8300 8298 8304 8300 8300 8301 
8295 8290 8296 8297 8300 8297 8296 8295 8297 8297 8296 8293 8295 8296 8297 8296 8299 8297 8297 8299 8296 8298 8296 8296 8301 8305 8300 8309 8311 8308 8309 8313 8313 8309 8308 8305 8308 8308 8312 8308 8303 8297 8296 8299 8296 8292 8290 8294 8292 8291 8291 8287 8288 8290 8290 8290 8287 8291 8291 8291 8294 8292 8289 8288 8286 8284 8286 8289 8291 8291 8287 8288 8292 8296 8298 8297 8303 8299 8303 8302 
8294 8288 8296 8295 8297 8292 8295 8295 8295 8291 8290 8287 8291 8289 8295 8294 8296 8295 8295 8292 8292 8288 8288 8295 8297 8300 8304 8308 8309 8309 8306 8311 8309 8309 8307 8306 8308 8308 8309 8306 8302 8299 8297 8291 8292 8291 8289 8292 8294 8289 8291 8289 8289 8291 8294 8288 8286 8287 8288 8290 8293 8291 8287 8289 8283 8282 8283 8282 8289 8289 8286 8288 8289 8293 8292 8295 8301 8299 8301 8304 
8295 8286 8292 8292 8296 8296 8297 8291 8295 8291 8287 8286 8289 8291 8289 8293 8293 8291 8293 8290 8290 8288 8289 8292 8296 8300 8301 8303 8308 8308 8308 8311 8309 8306 8306 8303 8306 8306 8304 8299 8299 8298 8296 8292 8290 8287 8285 8289 8289 8288 8289 8288 8288 8291 8291 8291 8290 8288 8289 8290 8292 8288 8283 8283 8280 8280 8280 8279 8285 8289 8280 8286 8283 8288 8287 8293 8296 8293 8297 8301 
8295 8287 8292 8293 8296 8296 8297 8293 8292 8289 8285 8286 8290 8290 8289 8288 8290 8288 8290 8290 8292 8291 8290 8290 8296 8299 8300 8302 8304 8310 8308 8315 8306 8305 8307 8302 8303 8304 8305 8303 8300 8299 8294 8290 8291 8288 8285 8288 8287 8288 8288 8288 8288 8287 8291 8292 8289 8288 8288 8290 8289 8286 8283 8278 8278 8278 8278 8272 8280 8281 8283 8283 8285 8282 8283 8286 8292 8287 8294 8297 
8296 8291 8292 8299 8292 8293 8297 8295 8293 8285 8284 8291 8290 8288 8286 8292 8287 8289 8291 8294 8290 8292 8294 8294 8297 8297 8296 8303 8304 8310 8306 8309 8304 8304 8306 8302 8303 8303 8304 8301 8300 8295 8290 8291 8290 8286 8286 8286 8287 8286 8287 8287 8287 8288 8285 8287 8286 8287 8287 8288 8284 8284 8281 8279 8278 8281 8282 8279 8274 8275 8279 8281 8279 8277 8277 8280 8282 8280 8285 8292 
8298 8292 8289 8295 8294 8293 8299 8299 8295 8283 8287 8291 8289 8286 8289 8287 8288 8288 8292 8291 8290 8289 8289 8291 8293 8298 8294 8301 8305 8310 8306 8310 8304 8304 8304 8303 8303 8299 8300 8302 8297 8295 8292 8290 8289 8287 8289 8289 8288 8284 8285 8281 8285 8286 8288 8288 8285 8286 8283 8285 8282 8281 8281 8277 8275 8279 8282 8282 8271 8276 8274 8275 8274 8273 8275 8274 8279 8276 8279 8287 
8294 8290 8289 8293 8293 8294 8296 8297 8290 8284 8287 8289 8283 8285 8281 8286 8284 8286 8289 8289 8287 8288 8288 8292 8291 8294 8294 8297 8302 8305 8303 8305 8303 8300 8302 8301 8301 8300 8302 8299 8297 8295 8290 8288 8287 8285 8283 8285 8282 8282 8281 8281 8282 8286 8283 8284 8282 8284 8281 8281 8283 8280 8280 8277 8276 8279 8279 8278 8273 8272 8274 8274 8268 8271 8271 8273 8275 8270 8275 8283 
8296 8286 8290 8297 8291 8294 8287 8291 8293 8289 8286 8285 8287 8284 8282 8285 8281 8283 8288 8287 8285 8289 8285 8286 8290 8293 8295 8302 8304 8303 8301 8304 8297 8301 8302 8299 8300 8301 8301 8298 8298 8293 8292 8288 8287 8285 8288 8283 8283 8281 8285 8280 8285 8284 8282 8280 8279 8281 8280 8282 8279 8281 8278 8276 8276 8274 8275 8274 8270 8272 8269 8273 8269 8265 8265 8265 8273 8270 8269 8275 
8296 8284 8291 8291 8289 8291 8289 8292 8290 8286 8287 8286 8284 8285 8280 8282 8282 8285 8283 8283 8288 8284 8286 8289 8285 8293 8296 8303 8304 8302 8301 8302 8297 8299 8300 8295 8299 8303 8300 8299 8294 8294 8290 8289 8289 8286 8287 8285 8283 8282 8284 8282 8282 8282 8282 8282 8279 8279 8279 8284 8281 8278 8276 8276 8271 8274 8276 8271 8273 8269 8269 8268 8266 8261 8263 8261 8265 8262 8266 8269 
8298 8290 8286 8290 8283 8287 8287 8288 8286 8281 8283 8279 8283 8279 8280 8281 8280 8281 8283 8288 8283 8281 8284 8286 8288 8293 8295 8305 8305 8305 8301 8303 8295 8300 8295 8293 8296 8298 8300 8290 8293 8293 8291 8290 8286 8286 8285 8285 8281 8283 8284 8283 8284 8286 8283 8281 8280 8278 8280 8280 8279 8277 8276 8275 8270 8272 8272 8269 8267 8264 8263 8263 8261 8262 8257 8256 8261 8257 8261 8265 
8296 8293 8288 8284 8282 8286 8285 8282 8282 8282 8284 8279 8278 8282 8282 8280 8282 8286 8283 8283 8284 8282 8281 8286 8289 8293 8292 8297 8297 8302 8302 8300 8297 8294 8297 8292 8295 8298 8296 8291 8290 8290 8292 8288 8288 8286 8284 8282 8281 8283 8285 8287 8283 8284 8284 8278 8278 8279 8278 8275 8276 8275 8272 8272 8270 8271 8271 8271 8267 8265 8261 8261 8260 8256 8254 8257 8257 8253 8252 8259 
8295 8296 8289 8290 8285 8287 8284 8282 8280 8279 8282 8278 8280 8278 8281 8283 8283 8284 8283 8281 8282 8281 8278 8285 8284 8291 8291 8297 8297 8300 8300 8299 8296 8296 8292 8292 8293 8296 8296 8289 8289 8289 8289 8286 8287 8282 8280 8282 8282 8283 8284 8283 8286 8284 8284 8279 8278 8278 8278 8276 8273 8273 8269 8270 8270 8274 8270 8267 8265 8260 8259 8259 8260 8254 8252 8252 8252 8250 8250 8250 
8296 8288 8292 8290 8285 8286 8284 8282 8280 8276 8281 8280 8282 8280 8280 8282 8284 8284 8283 8284 8278 8279 8279 8281 8285 8288 8294 8293 8293 8294 8295 8295 8294 8295 8293 8293 8292 8295 8291 8291 8291 8287 8288 8289 8283 8283 8281 8277 8281 8278 8281 8284 8282 8283 8280 8282 8282 8278 8278 8276 8273 8270 8270 8270 8268 8271 8271 8263 8263 8261 8260 8253 8254 8250 8247 8247 8247 8245 8244 8247 
8296 8286 8284 8288 8287 8280 8281 8283 8281 8279 8284 8282 8282 8281 8279 8280 8280 8282 8281 8282 8278 8279 8275 8278 8283 8287 8292 8291 8296 8295 8294 8298 8294 8293 8293 8293 8296 8295 8293 8290 8291 8286 8286 8283 8284 8280 8277 8276 8279 8277 8282 8280 8284 8282 8283 8280 8279 8277 8275 8276 8272 8268 8267 8268 8268 8269 8268 8263 8261 8260 8258 8257 8255 8251 8246 8245 8246 8243 8242 8248 
8292 8285 8281 8285 8282 8280 8278 8280 8281 8281 8283 8280 8279 8280 8279 8281 8278 8282 8279 8281 8277 8275 8276 8276 8280 8289 8293 8292 8295 8290 8293 8295 8293 8293 8292 8293 8292 8291 8292 8288 8289 8285 8286 8283 8280 8278 8273 8274 8279 8275 8280 8280 8282 8280 8275 8276 8275 8275 8271 8272 8271 8266 8268 8265 8265 8266 8263 8262 8259 8258 8256 8254 8251 8251 8250 8244 8245 8239 8241 8243 
8291 8284 8282 8284 8283 8280 8278 8283 8280 8277 8279 8278 8281 8278 8277 8280 8277 8279 8276 8276 8278 8277 8278 8277 8280 8285 8290 8288 8294 8290 8288 8293 8291 8289 8292 8287 8290 8292 8290 8287 8288 8282 8282 8281 8280 8277 8273 8272 8278 8277 8282 8280 8278 8278 8274 8274 8273 8273 8270 8271 8268 8265 8266 8266 8263 8266 8264 8260 8260 8256 8254 8258 8253 8250 8248 8246 8242 8240 8240 8245 
8292 8284 8282 8284 8279 8277 8282 8281 8279 8279 8280 8280 8280 8277 8278 8278 8277 8276 8276 8275 8276 8273 8276 8275 8276 8285 8289 8287 8289 8285 8286 8291 8290 8289 8290 8287 8288 8289 8285 8287 8282 8282 8281 8280 8280 8273 8275 8272 8272 8274 8279 8279 8277 8272 8274 8272 8271 8270 8272 8268 8266 8267 8267 8266 8263 8259 8261 8258 8256 8259 8257 8256 8253 8252 8248 8247 8247 8243 8238 8242 
8293 8283 8280 8280 8277 8275 8280 8280 8280 8277 8280 8277 8284 8277 8278 8277 8278 8272 8276 8272 8271 8274 8275 8273 8276 8279 8284 8284 8287 8287 8285 8287 8284 8290 8285 8282 8284 8287 8287 8285 8279 8278 8280 8277 8277 8273 8271 8269 8273 8276 8276 8278 8274 8273 8271 8270 8272 8268 8267 8267 8264 8266 8266 8263 8263 8262 8260 8256 8256 8258 8256 8258 8250 8250 8248 8247 8244 8243 8242 8245 
8292 8283 8281 8277 8277 8276 8273 8282 8278 8277 8277 8278 8275 8274 8273 8278 8275 8277 8276 8270 8269 8271 8273 8273 8273 8277 8280 8283 8282 8282 8282 8289 8284 8284 8284 8283 8281 8283 8283 8280 8279 8277 8277 8274 8271 8271 8267 8267 8269 8270 8273 8273 8273 8271 8273 8272 8270 8268 8268 8266 8266 8264 8264 8260 8259 8258 8259 8257 8257 8258 8253 8257 8253 8252 8245 8246 8245 8244 8240 8242 
8295 8287 8278 8279 8277 8276 8270 8274 8275 8274 8276 8271 8276 8277 8274 8276 8274 8274 8271 8270 8269 8273 8271 8275 8272 8276 8275 8263 8255 8251 8271 8275 8275 8271 8278 8281 8281 8279 8279 8278 8273 8275 8275 8275 8271 8270 8265 8267 8270 8265 8270 8270 8272 8268 8271 8271 8269 8266 8264 8265 8263 8262 8265 8260 8261 8261 8259 8256 8257 8256 8253 8252 8250 8247 8245 8249 8248 8246 8243 8242 
8294 8286 8280 8281 8280 8273 8271 8273 8268 8277 8278 8276 8275 8277 8274 8272 8272 8270 8270 8267 8269 8270 8273 8274 8273 8275 8274 8231 8217 8209 8238 8217 8215 8217 8242 8265 8271 8273 8273 8270 8272 8273 8272 8271 8268 8264 8261 8265 8264 8269 8270 8271 8269 8271 8269 8269 8269 8265 8262 8263 8263 8260 8265 8258 8260 8260 8259 8259 8258 8256 8254 8249 8250 8246 8247 8247 8244 8242 8242 8244 
8289 8286 8281 8278 8276 8277 8272 8265 8273 8276 8276 8275 8278 8274 8274 8274 8273 8276 8266 8270 8269 8273 8270 8272 8270 8273 8271 8229 8212 8202 8196 8188 8205 8216 8223 8228 8213 8239 8233 8247 8266 8271 8269 8273 8268 8265 8261 8262 8266 8267 8271 8269 8268 8265 8269 8266 8267 8263 8264 8259 8259 8261 8262 8262 8258 8261 8262 8260 8255 8256 8254 8251 8250 8245 8246 8246 8247 8245 8245 8245 
8290 8278 8278 8284 8277 8276 8271 8278 8273 8272 8274 8273 8280 8276 8274 8274 8271 8272 8268 8266 8270 8270 8273 8267 8268 8274 8267 8233 8212 8197 8191 8191 8203 8232 8212 8244 8217 8240 8223 8217 8248 8268 8269 8270 8267 8263 8259 8263 8261 8265 8267 8267 8264 8265 8267 8266 8268 8265 8263 8263 8262 8258 8261 8258 8260 8258 8258 8258 8257 8254 8252 8249 8248 8246 8244 8243 8244 8244 8245 8243 
8288 8277 8275 8281 8276 8273 8274 8272 8269 8275 8272 8278 8278 8275 8274 8275 8272 8273 8269 8266 8267 8271 8268 8266 8268 8272 8269 8231 8206 8194 8183 8186 8204 8217 8198 8220 8209 8192 8180 8187 8216 8263 8264 8266 8264 8265 8258 8257 8260 8263 8265 8265 8264 8264 8264 8266 8263 8262 8265 8264 8263 8260 8259 8257 8257 8260 8258 8256 8252 8252 8251 8248 8247 8248 8245 8247 8245 8242 8244 8245 
8288 8280 8277 8281 8274 8275 8275 8270 8271 8272 8271 8275 8275 8273 8272 8270 8270 8270 8268 8262 8263 8266 8265 8267 8270 8270 8270 8230 8204 8189 8190 8206 8183 8190 8183 8181 8185 8184 8194 8217 8211 8215 8234 8246 8257 8260 8260 8258 8261 8264 8264 8259 8261 8265 8263 8261 8261 8262 8263 8260 8259 8259 8259 8258 8257 8258 8257 8251 8253 8252 8247 8247 8245 8243 8245 8247 8245 8243 8245 8251 
8287 8282 8278 8280 8279 8275 8273 8273 8268 8273 8272 8274 8273 8272 8266 8264 8268 8271 8265 8262 8264 8263 8265 8267 8265 8269 8268 8235 8199 8176 8184 8188 8166 8167 8175 8186 8184 8176 8190 8188 8180 8205 8241 8241 8236 8252 8255 8254 8258 8258 8258 8260 8258 8260 8265 8262 8263 8261 8266 8263 8262 8259 8259 8257 8258 8256 8255 8245 8247 8248 8246 8241 8244 8244 8240 8246 8245 8244 8243 8244 
8286 8276 8279 8282 8278 8280 8277 8274 8275 8274 8272 8275 8274 8268 8266 8253 8265 8269 8268 8265 8261 8259 8261 8266 8269 8270 8267 8235 8187 8166 8191 8204 8171 8174 8178 8176 8193 8170 8192 8200 8170 8197 8237 8253 8245 8248 8254 8253 8256 8258 8259 8258 8262 8262 8264 8264 8262 8260 8263 8260 8259 8257 8254 8257 8258 8253 8253 8245 8241 8244 8244 8242 8242 8240 8241 8244 8243 8243 8245 8246 
8285 8277 8280 8284 8278 8279 8280 8277 8278 8274 8279 8274 8272 8269 8269 8264 8265 8268 8268 8262 8255 8257 8260 8263 8265 8262 8242 8201 8183 8168 8184 8239 8200 8164 8163 8163 8185 8175 8176 8176 8157 8156 8183 8247 8251 8249 8249 8254 8256 8259 8262 8261 8261 8261 8260 8263 8259 8261 8257 8256 8255 8255 8255 8257 8255 8253 8252 8243 8241 8238 8240 8238 8240 8239 8239 8242 8242 8244 8242 8242 
8286 8279 8278 8284 8281 8282 8277 8275 8276 8272 8277 8274 8274 8271 8270 8269 8270 8267 8270 8260 8258 8256 8260 8265 8261 8260 8241 8222 8178 8165 8171 8197 8171 8170 8173 8168 8172 8182 8193 8154 8151 8157 8158 8208 8237 8252 8249 8255 8255 8260 8261 8260 8261 8258 8259 8257 8257 8255 8255 8257 8256 8255 8256 8255 8250 8250 8248 8240 8239 8237 8237 8238 8239 8236 8237 8237 8239 8237 8240 8242 
8285 8281 8278 8278 8279 8280 8278 8280 8281 8275 8276 8274 8272 8271 8273 8269 8269 8266 8264 8258 8260 8260 8259 8261 8263 8260 8255 8226 8169 8173 8193 8169 8174 8184 8183 8173 8167 8187 8194 8188 8173 8168 8163 8200 8243 8254 8249 8252 8254 8256 8258 8256 8260 8259 8255 8254 8254 8258 8256 8258 8256 8252 8252 8254 8248 8247 8246 8240 8239 8239 8239 8236 8235 8231 8233 8233 8236 8233 8239 8236 
8290 8281 8274 8281 8278 8280 8279 8278 8281 8276 8275 8272 8266 8268 8265 8267 8266 8265 8266 8258 8260 8262 8260 8259 8263 8250 8199 8182 8183 8193 8190 8179 8190 8191 8191 8190 8171 8160 8167 8176 8201 8164 8167 8186 8232 8247 8249 8254 8254 8255 8257 8257 8258 8257 8252 8255 8255 8254 8256 8255 8254 8252 8255 8251 8246 8245 8244 8238 8242 8241 8237 8238 8234 8231 8233 8233 8232 8231 8234 8236 
8289 8282 8281 8281 8283 8285 8280 8280 8280 8272 8276 8272 8267 8267 8269 8267 8265 8266 8267 8262 8261 8261 8257 8258 8264 8218 8181 8203 8202 8198 8173 8168 8176 8184 8173 8168 8168 8167 8167 8172 8191 8181 8194 8181 8242 8243 8253 8253 8254 8252 8259 8258 8256 8260 8253 8254 8256 8255 8254 8253 8253 8252 8252 8250 8247 8246 8242 8241 8240 8242 8239 8237 8233 8234 8233 8230 8233 8232 8231 8233 
8293 8284 8282 8284 8284 8282 8284 8286 8283 8276 8274 8273 8269 8266 8268 8269 8271 8268 8269 8268 8265 8264 8259 8259 8257 8197 8199 8235 8204 8197 8174 8168 8171 8179 8169 8157 8154 8157 8156 8171 8188 8194 8233 8192 8236 8251 8250 8249 8250 8254 8255 8257 8255 8258 8256 8254 8254 8256 8252 8251 8251 8251 8255 8249 8249 8248 8242 8239 8240 8239 8236 8237 8235 8232 8232 8232 8234 8231 8230 8230 
8294 8285 8285 8287 8285 8283 8287 8289 8283 8275 8273 8280 8274 8268 8270 8269 8269 8268 8268 8265 8264 8269 8261 8255 8256 8238 8249 8245 8201 8188 8179 8167 8157 8168 8166 8155 8149 8159 8163 8171 8189 8228 8218 8219 8245 8249 8244 8247 8250 8251 8252 8254 8254 8257 8253 8255 8255 8252 8254 8250 8253 8255 8253 8252 8249 8249 8248 8240 8242 8240 8238 8237 8236 8234 8233 8231 8231 8230 8229 8225 
8293 8288 8282 8281 8282 8285 8283 8284 8280 8274 8276 8277 8275 8272 8271 8272 8268 8269 8268 8266 8263 8263 8262 8260 8261 8263 8260 8246 8190 8186 8190 8182 8155 8165 8168 8153 8146 8159 8164 8176 8193 8239 8245 8243 8247 8248 8245 8248 8248 8249 8254 8254 8257 8257 8256 8254 8256 8254 8253 8254 8255 8255 8249 8252 8251 8246 8247 8241 8239 8242 8239 8237 8235 8233 8235 8233 8232 8230 8227 8232 
8290 8286 8285 8283 8282 8281 8284 8279 8281 8274 8277 8277 8273 8273 8269 8271 8264 8266 8266 8263 8260 8260 8260 8257 8259 8251 8234 8220 8200 8212 8202 8172 8156 8173 8169 8162 8157 8154 8161 8156 8189 8218 8242 8245 8247 8247 8245 8245 8247 8248 8252 8255 8255 8255 8255 8255 8255 8255 8251 8252 8251 8253 8250 8250 8249 8253 8247 8244 8243 8243 8242 8241 8239 8238 8236 8234 8233 8231 8225 8229 
8289 8286 8283 8287 8286 8284 8282 8279 8274 8276 8276 8275 8274 8273 8269 8270 8268 8264 8265 8261 8261 8258 8259 8266 8261 8214 8207 8242 8205 8212 8202 8172 8160 8144 8146 8153 8175 8172 8165 8163 8203 8218 8239 8247 8244 8245 8240 8243 8244 8247 8251 8252 8255 8253 8253 8257 8256 8253 8254 8250 8250 8251 8250 8252 8249 8248 8252 8248 8244 8245 8243 8239 8240 8239 8242 8238 8235 8228 8224 8230 
8290 8283 8286 8285 8286 8287 8288 8284 8280 8279 8279 8271 8276 8272 8270 8272 8265 8265 8269 8266 8261 8257 8262 8264 8259 8232 8256 8253 8207 8197 8182 8171 8188 8146 8147 8154 8158 8170 8162 8175 8213 8243 8252 8250 8252 8255 8251 8249 8248 8249 8257 8250 8252 8254 8256 8253 8255 8255 8255 8252 8250 8253 8253 8251 8248 8250 8249 8247 8246 8246 8248 8243 8244 8240 8244 8236 8235 8227 8225 8232 
8293 8285 8283 8283 8286 8285 8283 8284 8278 8280 8281 8276 8275 8272 8275 8271 8267 8270 8276 8271 8267 8264 8261 8260 8255 8244 8251 8247 8207 8199 8182 8169 8192 8155 8148 8148 8154 8172 8162 8174 8228 8254 8257 8240 8258 8276 8279 8286 8286 8282 8283 8275 8260 8252 8256 8257 8255 8254 8253 8251 8252 8252 8251 8250 8250 8250 8247 8246 8249 8244 8248 8244 8251 8245 8247 8244 8241 8231 8228 8232 
8290 8285 8287 8282 8287 8286 8285 8282 8283 8279 8284 8280 8278 8276 8276 8273 8274 8272 8275 8271 8269 8266 8257 8250 8233 8236 8244 8249 8216 8205 8189 8169 8175 8160 8155 8156 8161 8171 8166 8171 8237 8256 8255 8244 8265 8280 8285 8295 8297 8300 8303 8308 8292 8262 8259 8259 8252 8253 8251 8255 8256 8252 8254 8253 8253 8251 8249 8245 8247 8246 8246 8249 8247 8245 8248 8246 8244 8237 8233 8233 
8291 8289 8284 8286 8284 8287 8286 8282 8285 8281 8283 8281 8280 8283 8276 8274 8271 8275 8271 8267 8268 8266 8252 8247 8219 8222 8235 8240 8225 8214 8213 8205 8206 8201 8208 8195 8194 8184 8184 8209 8263 8267 8252 8256 8268 8289 8291 8294 8291 8286 8289 8286 8269 8258 8257 8258 8255 8253 8254 8255 8253 8255 8258 8255 8253 8252 8250 8247 8247 8249 8249 8252 8251 8251 8251 8251 8246 8242 8234 8233 
8291 8288 8287 8283 8283 8283 8283 8286 8282 8285 8285 8284 8283 8282 8278 8275 8275 8272 8272 8270 8270 8264 8257 8250 8241 8238 8240 8244 8244 8243 8241 8241 8247 8250 8252 8258 8252 8231 8230 8258 8265 8254 8253 8276 8279 8279 8273 8273 8275 8274 8281 8279 8266 8253 8253 8256 8253 8253 8254 8254 8258 8258 8258 8256 8252 8251 8249 8248 8251 8252 8254 8253 8254 8252 8248 8250 8251 8242 8237 8239 
8294 8294 8285 8282 8285 8286 8288 8286 8287 8286 8286 8285 8287 8288 8283 8277 8279 8279 8276 8276 8271 8267 8268 8260 8251 8244 8236 8246 8251 8250 8251 8254 8251 8256 8255 8259 8258 8255 8252 8261 8261 8266 8268 8278 8278 8279 8271 8273 8274 8277 8286 8288 8263 8251 8253 8256 8255 8252 8254 8256 8253 8256 8254 8257 8254 8254 8249 8251 8253 8252 8251 8253 8252 8252 8253 8255 8252 8243 8240 8245 
8297 8288 8284 8290 8293 8290 8291 8290 8287 8288 8289 8287 8287 8288 8286 8284 8285 8282 8279 8278 8276 8272 8273 8267 8256 8249 8223 8236 8248 8254 8257 8261 8262 8270 8267 8269 8269 8259 8249 8252 8273 8279 8283 8285 8290 8291 8286 8292 8295 8296 8299 8282 8252 8247 8251 8254 8254 8252 8252 8255 8254 8257 8253 8256 8251 8252 8251 8250 8252 8254 8252 8250 8255 8251 8254 8253 8254 8247 8246 8253 
8295 8291 8287 8293 8289 8292 8294 8292 8289 8290 8288 8292 8291 8291 8284 8290 8287 8280 8282 8279 8276 8277 8274 8270 8249 8239 8237 8238 8240 8253 8265 8273 8276 8285 8290 8296 8287 8277 8257 8262 8283 8300 8303 8306 8311 8312 8310 8306 8301 8299 8285 8253 8250 8247 8251 8250 8251 8251 8252 8254 8256 8254 8253 8252 8252 8253 8253 8250 8254 8256 8256 8253 8257 8254 8255 8254 8253 8247 8247 8251 
8295 8295 8289 8292 8292 8289 8290 8292 8293 8291 8291 8288 8290 8284 8284 8287 8289 8285 8278 8278 8276 8276 8274 8271 8245 8238 8235 8236 8237 8244 8246 8252 8258 8273 8279 8285 8279 8280 8271 8264 8288 8300 8298 8299 8302 8295 8294 8283 8278 8284 8275 8249 8250 8250 8252 8252 8249 8253 8250 8251 8252 8252 8254 8253 8253 8251 8251 8249 8251 8254 8251 8255 8255 8255 8255 8257 8255 8252 8250 8256 
8295 8289 8292 8296 8288 8290 8296 8293 8292 8291 8291 8294 8292 8287 8286 8288 8286 8285 8282 8278 8276 8276 8275 8271 8251 8242 8237 8235 8234 8238 8240 8241 8249 8248 8260 8264 8268 8270 8264 8267 8276 8281 8278 8278 8276 8279 8279 8281 8276 8280 8264 8254 8250 8248 8251 8250 8250 8252 8250 8249 8253 8253 8256 8250 8252 8250 8251 8252 8254 8256 8257 8255 8260 8258 8260 8257 8258 8254 8253 8257 
8295 8290 8292 8294 8288 8295 8296 8291 8294 8290 8291 8293 8292 8289 8288 8288 8286 8287 8285 8278 8275 8277 8279 8273 8253 8241 8236 8231 8231 8237 8243 8241 8242 8244 8247 8249 8257 8257 8257 8257 8263 8268 8263 8267 8263 8269 8270 8276 8277 8272 8260 8251 8251 8248 8249 8251 8252 8251 8251 8253 8252 8253 8256 8254 8248 8248 8252 8255 8251 8257 8256 8256 8258 8258 8262 8258 8260 8260 8253 8259 
8288 8285 8285 8287 8293 8288 8297 8288 8288 8287 8290 8294 8290 8291 8287 8288 8287 8287 8285 8280 8278 8277 8276 8273 8250 8236 8232 8229 8231 8234 8237 8241 8231 8237 8244 8243 8247 8250 8252 8252 8253 8257 8257 8256 8256 8260 8262 8271 8273 8268 8253 8252 8250 8251 8246 8250 8253 8252 8251 8255 8254 8254 8252 8249 8246 8248 8251 8250 8256 8260 8262 8265 8263 8261 8261 8258 8262 8261 8257 8260 
8286 8279 8280 8286 8286 8288 8291 8296 8292 8289 8292 8290 8296 8294 8290 8290 8288 8288 8288 8282 8283 8278 8280 8278 8255 8243 8234 8229 8231 8230 8232 8241 8230 8234 8240 8240 8243 8244 8245 8246 8248 8252 8249 8251 8251 8253 8256 8257 8264 8259 8249 8248 8248 8248 8250 8252 8252 8253 8252 8255 8256 8256 8256 8251 8250 8249 8254 8254 8255 8258 8261 8259 8261 8262 8262 8260 8262 8259 8256 8257 
8286 8273 8275 8280 8276 8281 8291 8301 8296 8285 8287 8289 8291 8289 8292 8289 8288 8290 8289 8286 8282 8280 8279 8277 8261 8240 8237 8230 8230 8225 8228 8241 8237 8236 8237 8235 8238 8243 8240 8242 8244 8245 8246 8250 8246 8250 8248 8251 8254 8253 8248 8250 8249 8247 8253 8252 8251 8250 8253 8257 8257 8259 8256 8250 8252 8257 8256 8255 8257 8259 8259 8264 8264 8263 8262 8265 8263 8258 8258 8255 
8291 8282 8280 8286 8279 8288 8304 8304 8283 8281 8280 8279 8282 8287 8288 8289 8290 8286 8289 8285 8287 8283 8280 8282 8267 8243 8232 8230 8222 8225 8224 8235 8235 8236 8235 8233 8239 8240 8238 8236 8238 8240 8243 8244 8243 8244 8241 8245 8249 8247 8248 8251 8248 8248 8249 8251 8250 8248 8253 8256 8257 8259 8258 8255 8254 8253 8257 8259 8258 8259 8260 8261 8262 8263 8263 8259 8260 8254 8251 8256 
8320 8301 8304 8307 8310 8307 8302 8295 8280 8287 8273 8269 8268 8276 8275 8279 8284 8282 8283 8285 8284 8283 8281 8279 8262 8240 8226 8222 8222 8224 8224 8231 8231 8233 8235 8236 8240 8238 8234 8233 8235 8243 8238 8239 8240 8239 8236 8240 8242 8238 8235 8244 8247 8248 8253 8252 8251 8250 8251 8256 8257 8260 8255 8254 8256 8251 8256 8255 8258 8263 8261 8265 8266 8261 8263 8264 8259 8254 8248 8252 
8336 8337 8365 8379 8355 8324 8317 8318 8329 8327 8299 8280 8282 8286 8290 8287 8280 8273 8275 8272 8280 8274 8275 8266 8249 8231 8222 8220 8220 8221 8223 8227 8229 8228 8236 8236 8238 8236 8229 8229 8232 8238 8237 8237 8237 8235 8233 8239 8237 8231 8227 8230 8237 8247 8249 8250 8253 8251 8253 8252 8255 8259 8257 8257 8257 8255 8258 8257 8257 8260 8264 8263 8263 8263 8260 8260 8255 8251 8246 8252 
8380 8398 8421 8407 8367 8350 8346 8367 8405 8374 8316 8298 8299 8333 8377 8343 8293 8282 8280 8287 8308 8291 8275 8266 8250 8218 8213 8220 8218 8220 8217 8221 8222 8224 8228 8231 8231 8233 8221 8225 8225 8230 8230 8230 8231 8227 8227 8229 8230 8224 8224 8224 8223 8237 8248 8248 8249 8250 8249 8254 8254 8256 8254 8258 8256 8256 8259 8258 8256 8260 8260 8261 8264 8259 8259 8262 8257 8250 8245 8248 
8423 8418 8410 8394 8395 8403 8425 8416 8418 8404 8389 8386 8384 8411 8412 8367 8325 8312 8311 8345 8365 8312 8277 8275 8270 8229 8220 8214 8216 8216 8215 8216 8218 8221 8220 8224 8225 8225 8218 8218 8221 8222 8223 8221 8223 8224 8221 8220 8226 8226 8222 8219 8220 8234 8244 8245 8248 8247 8252 8253 8256 8252 8256 8256 8254 8254 8258 8257 8257 8260 8257 8260 8261 8258 8255 8259 8254 8249 8245 8245 
8421 8397 8386 8385 8398 8414 8414 8402 8387 8381 8387 8400 8412 8409 8393 8367 8361 8363 8372 8373 8375 8355 8341 8342 8320 8262 8236 8223 8210 8206 8209 8207 8206 8211 8209 8209 8210 8211 8213 8214 8215 8215 8214 8214 8215 8214 8219 8218 8221 8218 8221 8221 8227 8238 8240 8243 8243 8244 8249 8248 8254 8253 8253 8253 8257 8254 8258 8260 8258 8260 8260 8258 8258 8255 8256 8258 8256 8249 8243 8246 
8404 8383 8387 8400 8410 8392 8377 8379 8379 8386 8407 8419 8410 8400 8377 8357 8355 8359 8366 8355 8343 8334 8331 8336 8340 8273 8253 8250 8232 8223 8211 8213 8200 8203 8201 8201 8198 8203 8205 8207 8209 8204 8204 8209 8206 8204 8210 8212 8217 8218 8222 8225 8224 8227 8221 8230 8236 8236 8236 8239 8244 8248 8249 8254 8251 8253 8256 8253 8254 8255 8257 8256 8255 8251 8253 8255 8251 8248 8236 8245 


