P2
80 60
8358
8262 8265 8275 8271 8274 8275 8269 8271 8268 8268 8269 8273 8272 8271 8269 8271 8273 8271 8272 8279 8277 8277 8278 8284 8280 8279 8277 8279 8282 8285 8288 8288 8288 8290 8287 8288 8285 8291 8290 8291 8282 8282 8276 8277 8279 8276 8279 8280 8272 8271 8266 8267 8262 8263 8264 8264 8264 8265 8263 8262 8263 8259 8258 8257 8256 8256 8258 8265 8263 8264 8261 8264 8265 8268 8265 8266 8271 8268 8266 8268 
8263 8266 8278 8271 8272 8273 8267 8269 8267 8272 8266 8266 8267 8268 8268 8266 8269 8269 8270 8278 8277 8276 8282 8281 8280 8278 8274 8280 8282 8284 8284 8288 8288 8288 8287 8284 8284 8290 8289 8285 8281 8281 8276 8277 8277 8279 8280 8277 8271 8271 8265 8262 8261 8261 8262 8261 8261 8260 8264 8261 8261 8256 8258 8256 8254 8257 8258 8260 8263 8265 8262 8262 8261 8265 8263 8267 8265 8267 8269 8266 
8262 8257 8270 8269 8272 8267 8265 8266 8267 8268 8267 8264 8263 8267 8266 8267 8267 8267 8268 8273 8274 8273 8275 8278 8280 8278 8274 8279 8281 8280 8286 8288 8288 8286 8286 8285 8284 8286 8290 8285 8281 8276 8275 8275 8275 8275 8276 8278 8268 8269 8267 8262 8259 8261 8260 8259 8262 8258 8258 8260 8261 8260 8256 8254 8254 8253 8256 8260 8265 8262 8258 8261 8261 8264 8262 8262 8268 8267 8271 8266 
8259 8256 8269 8267 8268 8263 8263 8266 8269 8263 8264 8260 8264 8259 8266 8261 8265 8266 8270 8269 8273 8271 8273 8276 8274 8277 8273 8278 8281 8280 8281 8283 8284 8285 8287 8283 8287 8285 8287 8282 8279 8274 8273 8272 8274 8272 8275 8275 8270 8269 8264 8262 8258 8259 8261 8258 8258 8257 8260 8259 8260 8255 8253 8251 8251 8255 8253 8256 8259 8259 8259 8258 8260 8261 8259 8261 8263 8264 8269 8263 
8260 8255 8267 8263 8267 8265 8266 8267 8266 8262 8257 8257 8257 8261 8260 8264 8264 8265 8267 8269 8270 8269 8272 8272 8276 8276 8271 8276 8282 8282 8288 8286 8282 8281 8284 8283 8280 8282 8284 8279 8276 8275 8273 8269 8271 8270 8276 8276 8267 8267 8263 8256 8257 8258 8259 8257 8257 8253 8258 8258 8258 8256 8254 8250 8249 8253 8251 8255 8259 8256 8254 8254 8255 8256 8255 8259 8262 8259 8265 8258 
8264 8259 8266 8264 8266 8267 8267 8264 8264 8260 8258 8260 8262 8262 8258 8262 8265 8261 8266 8270 8271 8270 8275 8271 8274 8275 8272 8275 8279 8283 8285 8288 8282 8282 8283 8279 8282 8284 8279 8276 8276 8277 8268 8267 8269 8269 8272 8272 8266 8266 8265 8258 8257 8257 8257 8257 8258 8256 8255 8258 8257 8253 8254 8247 8249 8251 8248 8252 8253 8255 8252 8254 8252 8250 8249 8252 8253 8253 8260 8256 
8265 8259 8266 8270 8265 8269 8266 8266 8264 8255 8257 8264 8261 8259 8257 8263 8262 8263 8268 8270 8269 8272 8279 8278 8278 8273 8269 8274 8277 8282 8286 8286 8281 8283 8285 8284 8284 8282 8279 8277 8279 8276 8270 8267 8271 8269 8274 8272 8266 8265 8260 8257 8256 8256 8259 8257 8254 8256 8257 8255 8253 8253 8253 8250 8250 8251 8251 8248 8250 8249 8249 8250 8248 8247 8247 8248 8247 8250 8258 8255 
8266 8260 8263 8268 8266 8270 8271 8271 8267 8256 8261 8264 8260 8261 8261 8257 8263 8262 8268 8273 8271 8273 8273 8279 8275 8273 8267 8273 8279 8279 8285 8285 8283 8283 8283 8283 8280 8281 8281 8280 8278 8275 8273 8269 8269 8270 8274 8274 8264 8264 8259 8255 8256 8258 8255 8254 8253 8255 8251 8250 8251 8252 8249 8249 8248 8250 8251 8252 8251 8247 8246 8243 8244 8243 8244 8242 8244 8245 8251 8248 
8266 8258 8264 8265 8266 8268 8267 8271 8267 8255 8262 8260 8255 8258 8256 8257 8256 8260 8268 8269 8271 8269 8272 8273 8273 8271 8266 8274 8279 8280 8282 8285 8282 8285 8283 8280 8277 8282 8281 8280 8274 8273 8270 8270 8269 8269 8273 8269 8265 8259 8256 8255 8257 8254 8253 8254 8252 8252 8253 8249 8251 8252 8250 8245 8246 8249 8249 8249 8251 8247 8246 8244 8241 8240 8238 8240 8239 8241 8245 8244 
8268 8256 8266 8267 8262 8265 8258 8266 8265 8263 8259 8257 8257 8258 8256 8254 8255 8257 8265 8270 8268 8268 8267 8270 8270 8270 8268 8276 8279 8277 8279 8279 8279 8279 8281 8279 8280 8281 8282 8277 8276 8273 8273 8270 8274 8269 8269 8268 8262 8263 8258 8255 8255 8256 8254 8251 8252 8253 8249 8248 8249 8246 8247 8244 8243 8246 8247 8245 8248 8245 8241 8241 8237 8238 8234 8236 8237 8237 8238 8238 
8267 8254 8267 8263 8259 8261 8260 8265 8263 8259 8261 8256 8256 8253 8253 8254 8256 8257 8259 8264 8272 8268 8269 8272 8269 8272 8271 8274 8276 8277 8280 8280 8278 8280 8280 8277 8277 8278 8276 8275 8268 8272 8270 8271 8272 8270 8272 8269 8263 8261 8260 8256 8251 8254 8254 8252 8251 8250 8251 8247 8247 8245 8246 8246 8243 8247 8243 8244 8245 8242 8239 8240 8235 8236 8232 8232 8232 8231 8234 8232 
8266 8260 8266 8262 8257 8261 8259 8264 8259 8253 8259 8252 8254 8253 8253 8254 8256 8257 8261 8267 8268 8264 8269 8271 8271 8270 8273 8277 8277 8276 8279 8279 8279 8279 8276 8276 8278 8279 8278 8272 8272 8272 8270 8274 8271 8269 8269 8271 8265 8263 8262 8255 8256 8257 8255 8252 8248 8249 8247 8246 8245 8246 8245 8242 8243 8244 8249 8243 8242 8242 8237 8235 8235 8230 8228 8229 8230 8228 8229 8231 
8270 8264 8264 8257 8258 8262 8260 8258 8257 8255 8258 8252 8251 8254 8254 8257 8254 8259 8260 8265 8266 8263 8268 8268 8271 8270 8270 8269 8275 8274 8279 8278 8277 8276 8275 8274 8277 8275 8274 8270 8267 8271 8270 8272 8269 8268 8271 8267 8264 8262 8262 8256 8259 8258 8255 8250 8252 8248 8249 8244 8244 8246 8244 8241 8239 8246 8247 8244 8243 8239 8237 8233 8230 8232 8227 8226 8223 8223 8225 8224 
8268 8266 8266 8264 8260 8263 8263 8255 8253 8251 8257 8251 8250 8251 8253 8256 8257 8256 8259 8263 8262 8260 8265 8267 8267 8269 8265 8268 8273 8274 8277 8279 8275 8273 8275 8272 8275 8276 8271 8274 8268 8271 8269 8268 8269 8268 8269 8267 8261 8260 8260 8258 8260 8257 8255 8251 8252 8247 8246 8244 8242 8243 8240 8239 8239 8246 8241 8243 8238 8236 8234 8230 8229 8226 8221 8221 8221 8218 8220 8219 
8265 8259 8270 8263 8258 8258 8256 8256 8252 8250 8257 8255 8252 8253 8253 8254 8254 8256 8258 8264 8259 8261 8264 8266 8265 8262 8264 8266 8269 8271 8275 8276 8277 8275 8274 8275 8275 8274 8274 8271 8268 8268 8268 8269 8269 8269 8268 8264 8258 8261 8259 8258 8258 8257 8255 8250 8251 8249 8245 8244 8243 8241 8241 8239 8240 8243 8241 8240 8238 8236 8234 8231 8226 8226 8220 8219 8221 8215 8218 8215 
8267 8256 8260 8263 8259 8255 8255 8255 8253 8253 8257 8256 8252 8254 8253 8253 8255 8255 8259 8261 8259 8259 8261 8265 8263 8261 8263 8269 8270 8270 8275 8276 8272 8274 8277 8274 8276 8274 8273 8268 8268 8267 8266 8269 8266 8263 8269 8263 8258 8261 8259 8255 8257 8257 8253 8252 8249 8248 8247 8244 8243 8237 8238 8240 8238 8239 8240 8239 8237 8235 8230 8232 8225 8226 8219 8216 8218 8214 8215 8215 
8264 8255 8260 8259 8256 8253 8251 8250 8249 8250 8259 8253 8254 8255 8250 8253 8251 8254 8257 8258 8258 8257 8261 8261 8263 8264 8262 8269 8267 8268 8272 8271 8271 8272 8273 8276 8273 8272 8272 8268 8264 8265 8263 8261 8261 8263 8264 8261 8259 8259 8257 8256 8253 8252 8251 8249 8249 8247 8242 8243 8239 8240 8240 8239 8236 8237 8236 8237 8236 8235 8229 8226 8221 8221 8217 8217 8216 8214 8218 8214 
8266 8255 8262 8256 8255 8255 8251 8254 8253 8251 8257 8252 8252 8254 8252 8251 8251 8255 8254 8257 8258 8260 8262 8262 8263 8263 8261 8263 8268 8268 8270 8274 8272 8271 8273 8270 8272 8270 8269 8262 8260 8262 8261 8263 8262 8262 8259 8260 8257 8258 8257 8255 8250 8251 8250 8244 8246 8243 8246 8242 8239 8239 8237 8236 8234 8236 8237 8233 8234 8230 8228 8226 8222 8220 8218 8216 8213 8210 8216 8215 
8264 8254 8256 8256 8254 8252 8252 8255 8252 8252 8256 8257 8256 8254 8253 8251 8250 8253 8255 8257 8257 8256 8262 8262 8261 8261 8258 8263 8266 8264 8270 8269 8270 8269 8269 8269 8268 8270 8266 8265 8259 8259 8260 8260 8260 8258 8260 8261 8254 8258 8256 8254 8249 8248 8250 8246 8248 8243 8243 8241 8238 8238 8237 8234 8233 8233 8231 8236 8231 8231 8229 8227 8226 8221 8215 8216 8216 8217 8217 8216 
8263 8252 8258 8252 8251 8255 8254 8256 8256 8251 8256 8255 8256 8254 8255 8251 8255 8251 8254 8255 8254 8257 8261 8259 8260 8259 8258 8259 8262 8261 8262 8267 8267 8266 8269 8267 8264 8264 8263 8255 8252 8253 8256 8259 8257 8255 8261 8259 8255 8255 8253 8252 8250 8249 8246 8247 8246 8243 8241 8238 8238 8235 8237 8232 8230 8233 8232 8229 8230 8229 8227 8225 8221 8221 8216 8216 8219 8214 8219 8215 
8261 8255 8254 8248 8249 8251 8249 8254 8251 8252 8251 8252 8249 8251 8248 8252 8251 8252 8253 8254 8252 8254 8260 8261 8256 8256 8254 8255 8257 8256 8259 8259 8250 8251 8255 8262 8260 8253 8226 8224 8197 8224 8249 8254 8253 8253 8254 8257 8253 8251 8251 8246 8246 8247 8250 8245 8244 8241 8243 8236 8236 8233 8236 8231 8230 8231 8231 8232 8231 8227 8230 8226 8221 8223 8216 8214 8220 8215 8214 8215 
8262 8258 8254 8255 8252 8254 8246 8249 8250 8250 8249 8250 8250 8253 8248 8249 8247 8247 8251 8253 8253 8254 8254 8244 8251 8254 8251 8248 8237 8221 8207 8191 8181 8190 8203 8230 8244 8227 8174 8177 8196 8217 8238 8247 8249 8248 8250 8249 8248 8246 8249 8246 8246 8246 8243 8242 8241 8240 8237 8232 8235 8234 8234 8230 8229 8233 8231 8232 8230 8229 8227 8225 8222 8221 8217 8216 8218 8212 8219 8216 
8265 8254 8255 8258 8255 8253 8246 8247 8244 8250 8254 8254 8249 8252 8250 8246 8245 8246 8248 8253 8248 8251 8254 8210 8248 8254 8250 8235 8204 8192 8170 8173 8176 8207 8197 8198 8211 8173 8183 8202 8230 8241 8240 8219 8224 8209 8232 8233 8239 8247 8246 8245 8243 8245 8244 8240 8241 8238 8236 8236 8236 8232 8232 8230 8227 8231 8230 8232 8231 8228 8228 8223 8220 8220 8218 8217 8216 8214 8218 8216 
8261 8257 8257 8255 8253 8253 8250 8244 8249 8251 8252 8250 8252 8249 8248 8248 8246 8249 8244 8250 8250 8246 8250 8216 8234 8246 8231 8213 8178 8169 8166 8173 8200 8197 8205 8239 8201 8175 8200 8175 8172 8187 8231 8210 8181 8176 8190 8221 8241 8245 8246 8245 8242 8244 8243 8242 8240 8238 8237 8233 8231 8230 8228 8229 8228 8232 8231 8232 8228 8229 8227 8223 8219 8220 8213 8215 8218 8217 8219 8218 
8262 8249 8257 8257 8254 8253 8250 8253 8249 8247 8254 8250 8252 8252 8249 8249 8246 8247 8245 8245 8240 8223 8234 8191 8195 8238 8232 8225 8178 8167 8169 8171 8193 8203 8198 8211 8187 8170 8201 8198 8174 8194 8188 8167 8166 8181 8173 8181 8218 8241 8243 8242 8242 8242 8240 8239 8239 8238 8236 8232 8229 8229 8228 8227 8228 8231 8229 8229 8230 8229 8227 8221 8220 8218 8217 8210 8213 8216 8217 8219 
8261 8251 8255 8256 8254 8253 8249 8245 8245 8247 8247 8254 8251 8254 8248 8247 8244 8244 8245 8225 8200 8238 8248 8222 8218 8243 8234 8222 8202 8175 8170 8166 8165 8168 8186 8185 8173 8181 8188 8222 8208 8188 8189 8175 8160 8171 8166 8169 8179 8204 8227 8239 8241 8239 8240 8238 8237 8236 8235 8232 8230 8230 8230 8226 8230 8230 8230 8231 8228 8229 8225 8219 8218 8217 8212 8216 8217 8215 8218 8219 
8260 8255 8257 8255 8254 8253 8251 8245 8247 8244 8251 8253 8248 8248 8250 8246 8244 8243 8226 8184 8225 8244 8246 8248 8208 8205 8205 8198 8181 8194 8177 8174 8170 8159 8154 8162 8169 8192 8177 8183 8219 8168 8160 8162 8159 8167 8163 8165 8169 8189 8195 8234 8238 8242 8240 8237 8235 8235 8235 8231 8233 8229 8230 8229 8228 8231 8230 8228 8228 8225 8221 8221 8214 8215 8214 8214 8215 8217 8219 8220 
8259 8254 8257 8255 8257 8253 8248 8248 8246 8250 8250 8250 8249 8247 8245 8243 8244 8235 8190 8200 8228 8207 8222 8232 8190 8169 8200 8216 8196 8215 8209 8188 8174 8161 8163 8166 8197 8220 8191 8195 8207 8162 8156 8158 8160 8164 8158 8159 8171 8186 8208 8234 8239 8238 8239 8236 8236 8235 8233 8232 8230 8229 8232 8227 8229 8232 8226 8224 8223 8223 8218 8219 8216 8216 8212 8215 8217 8216 8218 8216 
8259 8251 8258 8257 8251 8254 8253 8250 8249 8250 8250 8251 8250 8248 8247 8235 8240 8226 8183 8224 8189 8222 8242 8248 8227 8177 8220 8209 8195 8211 8180 8183 8199 8180 8176 8174 8190 8217 8215 8203 8191 8178 8158 8160 8156 8157 8157 8158 8166 8190 8228 8233 8236 8240 8240 8235 8235 8234 8233 8228 8228 8226 8225 8227 8228 8225 8221 8222 8217 8219 8215 8214 8210 8214 8210 8212 8213 8211 8220 8217 
8256 8247 8257 8258 8257 8257 8255 8254 8251 8250 8253 8251 8249 8248 8244 8239 8242 8231 8203 8215 8205 8239 8248 8247 8240 8207 8195 8224 8198 8172 8171 8171 8177 8171 8181 8178 8177 8183 8186 8212 8205 8211 8161 8165 8169 8156 8162 8162 8183 8200 8236 8235 8239 8239 8238 8235 8233 8232 8232 8228 8225 8225 8227 8226 8223 8224 8221 8217 8213 8214 8215 8210 8210 8209 8209 8210 8211 8213 8216 8212 
8256 8249 8255 8255 8257 8261 8253 8254 8252 8251 8252 8251 8248 8248 8247 8244 8244 8241 8234 8215 8237 8239 8248 8216 8228 8205 8198 8214 8180 8164 8163 8168 8176 8174 8179 8173 8168 8168 8169 8180 8194 8206 8179 8199 8196 8175 8175 8185 8192 8213 8234 8235 8238 8236 8235 8232 8233 8229 8230 8227 8224 8226 8225 8226 8222 8221 8222 8218 8213 8213 8212 8208 8209 8207 8207 8206 8209 8209 8213 8210 
8256 8250 8255 8253 8255 8258 8251 8254 8256 8249 8251 8250 8245 8245 8247 8243 8244 8241 8241 8239 8243 8244 8245 8237 8246 8230 8196 8204 8177 8182 8178 8182 8179 8173 8170 8164 8166 8163 8161 8172 8178 8159 8173 8216 8225 8205 8186 8205 8211 8233 8235 8237 8236 8235 8232 8228 8230 8230 8228 8229 8226 8224 8226 8225 8221 8222 8218 8217 8214 8212 8212 8209 8208 8206 8200 8204 8208 8206 8215 8206 
8260 8251 8254 8258 8254 8258 8251 8251 8252 8250 8252 8250 8244 8245 8242 8244 8245 8244 8244 8244 8243 8249 8244 8247 8242 8213 8195 8193 8194 8194 8179 8181 8187 8177 8167 8165 8161 8164 8164 8163 8180 8163 8157 8178 8218 8203 8206 8205 8226 8236 8235 8232 8234 8235 8231 8228 8230 8231 8227 8229 8225 8222 8223 8223 8222 8219 8217 8216 8216 8215 8211 8210 8206 8203 8204 8205 8204 8204 8208 8208 
8257 8252 8258 8255 8259 8261 8253 8254 8252 8246 8250 8248 8244 8243 8243 8243 8240 8244 8244 8247 8245 8246 8240 8222 8204 8197 8223 8209 8201 8184 8180 8188 8176 8173 8170 8165 8163 8165 8169 8166 8159 8186 8162 8165 8204 8211 8233 8210 8228 8237 8233 8237 8233 8237 8231 8232 8231 8228 8225 8227 8224 8223 8221 8223 8220 8221 8217 8217 8216 8216 8213 8210 8205 8206 8203 8205 8203 8201 8206 8203 
8261 8252 8258 8257 8260 8256 8259 8260 8255 8251 8253 8249 8247 8243 8244 8245 8247 8244 8249 8252 8248 8246 8226 8188 8182 8188 8215 8192 8192 8183 8175 8172 8169 8173 8171 8172 8168 8166 8181 8183 8168 8218 8178 8164 8198 8208 8219 8227 8227 8236 8237 8234 8235 8232 8231 8230 8228 8228 8224 8224 8224 8225 8224 8222 8221 8220 8216 8216 8213 8214 8212 8210 8205 8202 8204 8204 8204 8203 8204 8209 
8263 8253 8259 8259 8258 8258 8260 8259 8254 8252 8250 8252 8250 8247 8246 8246 8247 8245 8249 8251 8249 8245 8202 8183 8183 8176 8180 8192 8187 8183 8178 8176 8179 8178 8178 8177 8174 8172 8188 8190 8185 8229 8212 8169 8195 8203 8207 8235 8234 8234 8235 8233 8232 8230 8230 8228 8231 8226 8227 8225 8224 8227 8224 8224 8221 8223 8221 8216 8215 8214 8214 8211 8207 8207 8204 8205 8205 8204 8203 8202 
8264 8258 8261 8258 8255 8259 8257 8255 8255 8248 8252 8253 8249 8246 8246 8245 8246 8245 8249 8252 8247 8228 8191 8184 8182 8179 8195 8195 8194 8183 8180 8189 8186 8187 8187 8183 8177 8175 8175 8175 8192 8226 8223 8184 8198 8199 8218 8234 8231 8233 8232 8230 8231 8232 8227 8225 8229 8228 8226 8228 8224 8222 8223 8219 8223 8223 8217 8216 8213 8217 8214 8214 8207 8208 8206 8206 8204 8201 8207 8198 
8258 8254 8262 8253 8255 8259 8259 8254 8254 8250 8254 8250 8248 8250 8244 8246 8240 8243 8245 8247 8242 8223 8197 8184 8183 8191 8211 8204 8197 8184 8175 8184 8187 8185 8187 8185 8182 8180 8173 8189 8189 8215 8216 8206 8205 8200 8230 8234 8231 8233 8228 8228 8231 8229 8230 8227 8228 8225 8223 8222 8223 8221 8221 8222 8220 8221 8217 8219 8219 8218 8214 8214 8213 8212 8207 8208 8207 8198 8200 8201 
8254 8255 8258 8259 8260 8258 8255 8256 8249 8251 8253 8249 8251 8249 8245 8246 8242 8242 8244 8248 8246 8238 8221 8191 8186 8206 8227 8200 8193 8184 8181 8177 8186 8184 8187 8184 8183 8187 8191 8219 8219 8202 8208 8211 8205 8213 8233 8230 8228 8229 8230 8228 8230 8232 8231 8228 8227 8228 8225 8223 8221 8222 8221 8223 8222 8221 8222 8223 8221 8222 8218 8215 8213 8215 8210 8207 8207 8197 8205 8200 
8259 8253 8261 8256 8259 8259 8260 8255 8253 8251 8253 8247 8251 8246 8244 8243 8242 8241 8247 8248 8244 8237 8236 8203 8187 8204 8224 8200 8193 8187 8185 8182 8188 8185 8186 8187 8181 8196 8216 8229 8225 8218 8211 8211 8205 8223 8230 8230 8226 8230 8228 8228 8228 8229 8232 8229 8226 8227 8223 8224 8225 8222 8223 8220 8219 8223 8223 8221 8224 8223 8220 8220 8213 8215 8213 8210 8207 8200 8201 8208 
8258 8251 8257 8252 8257 8255 8252 8254 8254 8252 8254 8252 8247 8247 8247 8242 8242 8246 8243 8238 8230 8228 8225 8223 8204 8205 8220 8199 8196 8189 8190 8190 8184 8186 8187 8188 8194 8223 8216 8207 8224 8216 8214 8216 8223 8234 8234 8233 8228 8229 8228 8227 8227 8231 8233 8228 8231 8228 8224 8225 8224 8223 8222 8222 8221 8224 8218 8220 8221 8223 8220 8217 8217 8218 8215 8213 8210 8204 8205 8206 
8254 8254 8262 8254 8255 8257 8253 8254 8254 8253 8254 8255 8256 8249 8249 8247 8247 8246 8248 8239 8232 8234 8236 8234 8236 8229 8225 8213 8209 8198 8211 8204 8191 8190 8190 8205 8207 8233 8232 8205 8220 8220 8223 8222 8239 8239 8238 8236 8232 8232 8227 8226 8230 8230 8231 8231 8228 8228 8224 8226 8225 8222 8226 8224 8223 8224 8221 8221 8222 8223 8219 8223 8221 8216 8215 8218 8214 8207 8209 8209 
8259 8257 8262 8252 8254 8257 8253 8255 8256 8257 8261 8257 8255 8257 8250 8248 8247 8248 8243 8242 8239 8238 8247 8245 8240 8237 8228 8222 8228 8213 8228 8215 8207 8199 8204 8209 8214 8236 8245 8234 8220 8224 8226 8235 8248 8248 8246 8238 8232 8229 8230 8227 8229 8232 8231 8228 8230 8226 8226 8229 8228 8226 8227 8225 8226 8228 8222 8222 8223 8223 8226 8222 8223 8222 8221 8221 8220 8213 8212 8214 
8261 8259 8261 8255 8256 8256 8255 8259 8259 8259 8260 8261 8259 8259 8255 8250 8249 8247 8249 8250 8246 8242 8247 8246 8247 8242 8234 8240 8241 8238 8241 8240 8238 8233 8225 8227 8228 8233 8237 8238 8236 8244 8248 8256 8255 8249 8247 8242 8234 8233 8227 8224 8227 8231 8229 8231 8229 8226 8229 8230 8233 8230 8232 8229 8229 8229 8227 8227 8225 8227 8225 8226 8228 8224 8221 8222 8221 8217 8216 8216 
8262 8262 8260 8253 8256 8258 8258 8259 8260 8259 8263 8261 8261 8258 8254 8253 8252 8253 8257 8261 8255 8247 8248 8250 8250 8246 8242 8242 8244 8246 8245 8244 8241 8240 8237 8235 8236 8235 8237 8237 8238 8244 8246 8249 8250 8248 8244 8245 8240 8230 8224 8223 8227 8229 8229 8229 8229 8226 8228 8228 8229 8228 8228 8228 8226 8226 8223 8227 8227 8225 8226 8224 8225 8221 8221 8224 8221 8216 8218 8213 
8265 8254 8258 8259 8260 8261 8261 8260 8258 8262 8261 8263 8263 8261 8257 8257 8257 8257 8259 8266 8266 8260 8255 8260 8257 8254 8244 8249 8252 8256 8254 8250 8250 8250 8244 8243 8242 8240 8243 8243 8240 8247 8251 8255 8255 8250 8248 8248 8241 8230 8222 8224 8225 8225 8224 8228 8226 8226 8225 8227 8226 8230 8227 8226 8224 8225 8225 8225 8228 8228 8225 8225 8223 8222 8223 8225 8221 8217 8220 8219 
8260 8260 8262 8263 8259 8260 8261 8261 8259 8259 8263 8266 8263 8263 8258 8261 8261 8257 8260 8260 8251 8253 8261 8266 8267 8259 8251 8259 8259 8263 8265 8263 8259 8259 8258 8252 8249 8251 8250 8252 8254 8257 8259 8262 8257 8254 8254 8247 8230 8226 8224 8227 8225 8225 8224 8225 8223 8225 8223 8224 8226 8222 8227 8226 8222 8225 8224 8226 8227 8229 8226 8225 8225 8226 8223 8224 8224 8219 8224 8219 
8263 8261 8264 8263 8265 8262 8262 8264 8266 8266 8268 8264 8263 8261 8258 8260 8263 8261 8258 8258 8247 8242 8242 8253 8256 8254 8247 8251 8251 8256 8261 8262 8266 8272 8266 8266 8257 8258 8261 8261 8262 8270 8265 8263 8253 8245 8244 8241 8229 8228 8227 8226 8228 8226 8222 8227 8224 8224 8223 8222 8223 8224 8224 8223 8223 8225 8223 8225 8225 8224 8225 8224 8222 8228 8229 8224 8226 8225 8230 8223 
8262 8255 8267 8265 8259 8261 8265 8266 8263 8262 8264 8268 8266 8260 8258 8260 8258 8260 8259 8258 8246 8245 8250 8251 8255 8251 8242 8249 8246 8245 8244 8253 8255 8260 8264 8262 8255 8256 8259 8259 8258 8259 8256 8254 8248 8246 8243 8239 8229 8229 8225 8226 8228 8225 8226 8222 8226 8225 8219 8221 8221 8222 8225 8223 8222 8225 8222 8221 8224 8228 8224 8224 8225 8232 8228 8230 8230 8224 8225 8224 
8261 8258 8265 8263 8260 8269 8268 8265 8265 8263 8270 8271 8267 8261 8259 8256 8258 8259 8259 8258 8247 8252 8255 8255 8259 8254 8245 8245 8246 8246 8248 8251 8253 8255 8256 8254 8252 8251 8256 8250 8248 8252 8246 8251 8254 8252 8246 8235 8224 8227 8227 8226 8227 8224 8224 8223 8226 8224 8220 8223 8223 8224 8227 8222 8218 8223 8223 8226 8230 8228 8226 8226 8227 8234 8230 8232 8229 8229 8232 8227 
8256 8252 8256 8256 8264 8263 8267 8259 8261 8262 8267 8268 8263 8266 8261 8260 8258 8259 8260 8258 8248 8252 8252 8251 8247 8249 8243 8244 8246 8248 8250 8256 8250 8253 8252 8250 8251 8247 8248 8243 8241 8244 8241 8245 8247 8246 8241 8234 8225 8228 8224 8224 8225 8223 8220 8224 8226 8225 8223 8225 8224 8226 8225 8218 8219 8220 8220 8224 8228 8230 8229 8231 8230 8232 8228 8228 8232 8231 8233 8226 
8249 8244 8250 8254 8254 8257 8259 8265 8260 8257 8264 8263 8265 8265 8259 8259 8258 8261 8259 8260 8246 8243 8248 8247 8246 8248 8244 8245 8248 8250 8249 8253 8250 8250 8251 8244 8245 8242 8243 8239 8238 8235 8238 8238 8239 8237 8237 8230 8227 8224 8223 8225 8225 8225 8225 8225 8226 8226 8221 8225 8224 8225 8221 8218 8219 8222 8225 8227 8227 8230 8230 8230 8227 8234 8230 8229 8232 8231 8230 8226 
8252 8239 8248 8246 8246 8250 8260 8269 8262 8255 8256 8260 8261 8262 8261 8256 8259 8258 8260 8260 8247 8237 8242 8244 8245 8246 8245 8248 8247 8244 8247 8248 8246 8246 8247 8242 8241 8243 8237 8237 8235 8233 8233 8235 8234 8232 8230 8229 8222 8223 8226 8225 8227 8223 8226 8225 8223 8225 8225 8227 8226 8229 8226 8218 8219 8226 8223 8227 8228 8230 8231 8232 8228 8230 8233 8230 8233 8229 8231 8226 
8259 8248 8255 8255 8253 8257 8274 8277 8254 8250 8249 8249 8252 8258 8257 8254 8257 8256 8260 8261 8248 8238 8240 8244 8243 8245 8244 8246 8241 8242 8241 8247 8242 8244 8242 8240 8237 8237 8234 8229 8231 8230 8230 8235 8233 8231 8232 8231 8229 8226 8228 8228 8228 8222 8226 8227 8223 8221 8226 8226 8227 8228 8228 8220 8222 8222 8224 8231 8230 8232 8231 8231 8233 8234 8231 8230 8233 8228 8228 8228 
8275 8261 8272 8270 8274 8278 8269 8265 8250 8256 8248 8244 8243 8249 8244 8246 8247 8249 8255 8257 8248 8240 8235 8240 8239 8235 8237 8247 8245 8241 8239 8239 8238 8242 8241 8239 8233 8233 8236 8229 8227 8231 8229 8232 8230 8227 8226 8233 8228 8227 8227 8228 8226 8224 8226 8225 8223 8224 8224 8224 8223 8228 8226 8224 8220 8219 8223 8228 8229 8233 8232 8230 8232 8229 8233 8233 8231 8226 8226 8224 
8286 8282 8308 8303 8295 8279 8276 8280 8278 8274 8260 8251 8251 8255 8256 8252 8245 8243 8243 8240 8235 8235 8235 8238 8234 8226 8231 8240 8245 8240 8239 8240 8237 8237 8242 8239 8232 8230 8228 8227 8224 8231 8228 8231 8228 8225 8219 8221 8226 8228 8228 8225 8228 8225 8222 8220 8223 8224 8224 8220 8224 8225 8223 8225 8223 8225 8223 8230 8227 8230 8234 8232 8230 8233 8228 8231 8230 8228 8222 8220 
8310 8323 8344 8327 8305 8298 8291 8303 8319 8294 8273 8262 8269 8289 8300 8274 8254 8247 8235 8232 8229 8227 8233 8230 8231 8223 8222 8238 8241 8239 8238 8238 8235 8235 8236 8234 8227 8228 8229 8227 8223 8225 8222 8224 8222 8217 8208 8209 8208 8221 8224 8226 8224 8224 8223 8220 8219 8221 8223 8223 8222 8221 8222 8224 8221 8224 8222 8229 8228 8229 8229 8230 8229 8229 8232 8229 8228 8221 8223 8221 
8337 8341 8358 8334 8338 8337 8344 8333 8345 8334 8331 8325 8322 8336 8333 8299 8276 8265 8244 8235 8227 8218 8221 8226 8229 8226 8228 8234 8236 8234 8233 8237 8237 8236 8231 8227 8223 8224 8224 8223 8219 8220 8216 8219 8217 8214 8205 8203 8203 8206 8221 8221 8220 8218 8219 8216 8218 8217 8222 8221 8221 8219 8223 8222 8220 8220 8223 8229 8230 8228 8228 8229 8228 8232 8229 8228 8224 8219 8224 8221 
8347 8335 8331 8333 8340 8339 8329 8340 8340 8343 8345 8348 8341 8338 8344 8323 8317 8314 8282 8239 8230 8214 8214 8218 8225 8224 8221 8227 8223 8226 8230 8226 8223 8229 8225 8221 8219 8219 8218 8218 8215 8218 8211 8215 8212 8207 8205 8205 8199 8204 8217 8214 8211 8211 8209 8211 8211 8214 8216 8217 8219 8216 8220 8218 8218 8222 8222 8228 8227 8228 8227 8226 8225 8227 8227 8228 8229 8218 8218 8215 
8347 8325 8333 8334 8332 8326 8315 8325 8332 8340 8352 8357 8349 8338 8327 8314 8309 8307 8306 8262 8225 8202 8202 8209 8216 8213 8214 8222 8212 8216 8214 8217 8211 8215 8215 8214 8212 8210 8210 8213 8211 8212 8204 8209 8205 8203 8202 8203 8202 8202 8206 8210 8201 8204 8193 8202 8203 8204 8205 8210 8212 8213 8214 8218 8214 8219 8222 8224 8221 8225 8226 8223 8226 8221 8222 8223 8219 8222 8215 8215 


