P2
80 60
8227
8127 8120 8133 8135 8138 8137 8135 8141 8144 8147 8156 8161 8160 8164 8167 8171 8172 8170 8177 8176 8179 8184 8180 8180 8176 8184 8183 8185 8189 8198 8199 8199 8201 8200 8198 8201 8195 8202 8199 8195 8195 8194 8187 8180 8167 8165 8166 8167 8166 8170 8166 8172 8166 8168 8164 8168 8167 8166 8180 8180 8185 8188 8190 8189 8190 8189 8191 8197 8202 8202 8200 8205 8209 8209 8213 8211 8207 8211 8208 8209 
8127 8135 8144 8139 8142 8144 8151 8165 8170 8182 8184 8186 8180 8180 8179 8186 8184 8182 8181 8183 8189 8189 8187 8182 8189 8182 8182 8187 8192 8191 8196 8199 8200 8200 8196 8195 8194 8201 8201 8201 8196 8195 8184 8180 8169 8166 8166 8166 8164 8167 8165 8168 8170 8172 8165 8174 8173 8169 8176 8180 8186 8187 8190 8189 8186 8189 8195 8198 8200 8206 8205 8203 8211 8210 8214 8209 8213 8211 8206 8205 
8115 8127 8131 8133 8146 8138 8146 8166 8175 8184 8183 8179 8173 8181 8180 8180 8186 8184 8184 8183 8184 8185 8182 8180 8184 8187 8187 8191 8190 8190 8192 8198 8194 8203 8198 8194 8189 8199 8200 8199 8194 8193 8181 8182 8164 8164 8162 8166 8160 8161 8161 8166 8164 8171 8174 8172 8174 8176 8179 8179 8189 8191 8188 8191 8191 8189 8192 8198 8204 8207 8204 8204 8205 8208 8210 8200 8215 8209 8204 8208 
8138 8124 8146 8133 8144 8141 8150 8155 8172 8179 8182 8174 8179 8182 8182 8181 8184 8184 8185 8180 8185 8182 8175 8185 8188 8191 8193 8191 8192 8200 8194 8198 8201 8202 8201 8195 8199 8200 8197 8197 8195 8186 8183 8175 8161 8159 8163 8166 8161 8161 8157 8164 8171 8170 8173 8174 8169 8170 8174 8174 8185 8186 8186 8187 8185 8185 8191 8193 8202 8206 8200 8206 8206 8203 8207 8201 8212 8207 8203 8209 
8137 8127 8151 8138 8151 8147 8151 8144 8148 8170 8178 8169 8175 8181 8182 8182 8180 8177 8184 8182 8178 8182 8175 8176 8182 8190 8188 8190 8187 8196 8194 8200 8197 8196 8195 8195 8195 8198 8195 8200 8193 8197 8179 8171 8160 8162 8162 8168 8164 8166 8159 8164 8166 8168 8177 8178 8171 8177 8180 8183 8188 8186 8190 8186 8183 8189 8187 8188 8203 8203 8199 8208 8201 8207 8199 8203 8207 8205 8196 8207 
8151 8138 8144 8142 8148 8152 8157 8151 8155 8159 8162 8174 8183 8178 8176 8178 8184 8176 8185 8188 8186 8183 8183 8179 8185 8191 8192 8190 8188 8198 8201 8200 8198 8201 8201 8199 8199 8201 8197 8204 8198 8199 8195 8182 8171 8174 8174 8178 8177 8180 8181 8179 8180 8180 8184 8186 8185 8186 8187 8190 8189 8191 8189 8188 8188 8190 8191 8189 8197 8206 8202 8200 8207 8198 8197 8202 8204 8198 8197 8208 
8154 8150 8157 8163 8157 8154 8167 8160 8157 8144 8148 8175 8179 8173 8180 8180 8182 8177 8185 8189 8184 8182 8188 8184 8191 8192 8182 8189 8191 8205 8204 8206 8203 8201 8202 8204 8204 8207 8207 8213 8206 8202 8198 8193 8191 8187 8193 8195 8189 8194 8191 8183 8191 8187 8189 8193 8189 8190 8195 8198 8191 8192 8188 8189 8183 8190 8193 8199 8191 8193 8204 8208 8205 8201 8202 8203 8198 8198 8201 8210 
8173 8169 8162 8176 8166 8170 8177 8177 8170 8146 8164 8172 8178 8175 8182 8178 8182 8179 8188 8183 8186 8188 8190 8190 8192 8193 8186 8197 8198 8216 8210 8211 8214 8211 8214 8211 8204 8211 8209 8211 8206 8204 8199 8201 8194 8195 8196 8191 8193 8192 8191 8185 8192 8190 8189 8192 8196 8195 8193 8195 8192 8192 8190 8190 8189 8194 8197 8198 8194 8197 8202 8198 8204 8197 8201 8200 8197 8204 8201 8208 
8187 8177 8174 8179 8186 8178 8187 8181 8177 8167 8172 8176 8176 8181 8179 8183 8182 8184 8190 8196 8194 8192 8192 8192 8190 8196 8192 8200 8198 8201 8205 8208 8207 8205 8210 8211 8212 8214 8210 8213 8206 8205 8199 8200 8193 8199 8191 8196 8196 8194 8189 8190 8190 8190 8193 8188 8192 8192 8192 8195 8193 8188 8188 8186 8189 8188 8192 8196 8194 8197 8194 8192 8198 8197 8200 8201 8202 8206 8200 8205 
8191 8179 8187 8186 8187 8190 8179 8188 8182 8179 8180 8179 8184 8184 8183 8183 8188 8190 8196 8203 8194 8196 8194 8190 8190 8192 8197 8204 8201 8205 8203 8209 8205 8209 8214 8216 8214 8213 8210 8213 8208 8210 8205 8205 8196 8207 8203 8203 8198 8191 8193 8194 8193 8194 8193 8188 8194 8195 8194 8198 8195 8193 8189 8188 8189 8189 8192 8193 8194 8197 8198 8200 8202 8196 8199 8195 8200 8202 8196 8197 
8189 8177 8188 8181 8185 8190 8175 8187 8187 8181 8184 8183 8183 8186 8184 8189 8190 8188 8186 8195 8198 8194 8194 8199 8195 8190 8203 8204 8209 8212 8209 8207 8203 8217 8208 8211 8209 8212 8210 8214 8208 8204 8200 8210 8203 8207 8205 8201 8201 8197 8196 8194 8199 8195 8191 8183 8194 8191 8195 8199 8196 8194 8193 8189 8188 8191 8195 8191 8192 8193 8195 8199 8197 8194 8197 8192 8194 8196 8195 8194 
8193 8189 8190 8184 8182 8186 8182 8188 8186 8183 8188 8183 8187 8189 8189 8191 8189 8190 8191 8201 8203 8201 8194 8199 8199 8201 8207 8205 8214 8212 8218 8212 8205 8218 8207 8210 8210 8212 8208 8207 8209 8216 8208 8217 8204 8207 8207 8203 8199 8198 8203 8201 8201 8196 8195 8192 8195 8191 8197 8197 8199 8195 8194 8188 8188 8189 8195 8196 8192 8190 8191 8195 8195 8195 8193 8192 8198 8199 8195 8193 
8191 8184 8180 8178 8182 8187 8192 8178 8184 8188 8184 8185 8186 8188 8191 8193 8193 8196 8194 8202 8199 8202 8195 8197 8201 8200 8194 8205 8208 8206 8222 8213 8209 8211 8197 8202 8212 8198 8182 8188 8204 8210 8213 8216 8208 8209 8207 8204 8202 8198 8203 8200 8196 8197 8199 8188 8193 8192 8196 8197 8195 8195 8192 8185 8186 8192 8195 8191 8192 8183 8183 8188 8191 8192 8192 8193 8201 8192 8188 8192 
8192 8198 8192 8190 8192 8189 8192 8189 8183 8193 8195 8192 8189 8191 8197 8189 8198 8196 8200 8202 8202 8202 8197 8201 8196 8204 8205 8207 8200 8213 8221 8209 8217 8217 8211 8214 8210 8193 8179 8185 8203 8212 8210 8214 8208 8207 8205 8204 8200 8201 8200 8202 8201 8200 8204 8193 8196 8196 8197 8196 8199 8197 8197 8190 8190 8192 8194 8194 8192 8186 8187 8188 8187 8187 8185 8190 8195 8197 8193 8195 
8198 8187 8194 8196 8191 8195 8191 8193 8190 8188 8194 8191 8195 8194 8200 8198 8198 8198 8204 8205 8197 8202 8196 8203 8201 8204 8204 8204 8201 8217 8206 8208 8209 8210 8209 8209 8212 8201 8183 8184 8201 8210 8206 8211 8206 8207 8204 8204 8204 8202 8202 8202 8202 8197 8197 8194 8195 8194 8195 8199 8198 8195 8193 8194 8193 8196 8195 8191 8192 8183 8186 8189 8188 8189 8186 8188 8195 8195 8193 8193 
8202 8183 8186 8197 8192 8187 8189 8190 8192 8193 8196 8194 8195 8192 8199 8203 8201 8197 8207 8207 8197 8205 8200 8200 8198 8205 8208 8206 8199 8214 8214 8210 8214 8215 8211 8214 8212 8208 8186 8188 8202 8214 8207 8214 8207 8206 8200 8203 8200 8202 8203 8206 8207 8203 8195 8202 8198 8196 8198 8202 8199 8198 8195 8191 8195 8194 8193 8191 8191 8192 8190 8189 8189 8187 8191 8194 8198 8198 8197 8194 
8201 8186 8186 8198 8190 8189 8188 8188 8195 8194 8191 8192 8189 8191 8191 8201 8198 8206 8207 8203 8196 8204 8199 8198 8197 8207 8203 8210 8207 8212 8217 8213 8210 8217 8210 8214 8216 8215 8194 8203 8205 8215 8207 8211 8209 8209 8201 8203 8204 8202 8206 8203 8203 8196 8189 8189 8190 8196 8193 8200 8196 8194 8197 8196 8194 8192 8195 8194 8194 8188 8191 8191 8194 8194 8194 8192 8196 8200 8195 8196 
8202 8191 8194 8185 8189 8201 8189 8199 8188 8199 8197 8194 8199 8202 8202 8201 8200 8200 8206 8206 8203 8210 8203 8199 8195 8209 8210 8203 8206 8210 8212 8212 8215 8219 8213 8217 8215 8212 8201 8208 8212 8209 8210 8208 8206 8207 8203 8199 8204 8204 8202 8205 8198 8198 8194 8195 8191 8191 8193 8200 8197 8200 8200 8197 8192 8192 8195 8194 8195 8191 8188 8196 8197 8197 8194 8198 8197 8198 8197 8195 
8199 8192 8199 8194 8194 8193 8201 8201 8201 8191 8197 8193 8197 8195 8203 8201 8201 8203 8205 8201 8198 8210 8202 8202 8199 8210 8210 8203 8201 8206 8210 8217 8216 8217 8214 8213 8211 8211 8207 8211 8214 8206 8203 8209 8207 8203 8204 8206 8201 8201 8204 8202 8197 8199 8193 8188 8194 8195 8195 8198 8195 8197 8200 8195 8192 8189 8194 8191 8191 8193 8193 8195 8197 8194 8197 8199 8193 8198 8199 8202 
8204 8188 8194 8194 8187 8199 8198 8197 8198 8194 8203 8198 8198 8194 8205 8203 8203 8200 8203 8208 8197 8206 8202 8198 8199 8200 8204 8198 8198 8204 8188 8189 8209 8213 8208 8208 8203 8205 8210 8205 8197 8200 8201 8207 8205 8205 8205 8203 8203 8204 8202 8204 8196 8196 8200 8199 8198 8199 8196 8198 8200 8198 8203 8200 8197 8192 8190 8193 8195 8197 8193 8199 8200 8194 8201 8198 8199 8198 8199 8199 
8201 8195 8192 8182 8187 8195 8191 8202 8199 8195 8195 8201 8197 8195 8196 8201 8202 8200 8197 8205 8197 8202 8204 8203 8194 8184 8170 8163 8171 8186 8154 8168 8178 8178 8183 8176 8177 8188 8197 8191 8190 8201 8197 8205 8200 8208 8206 8203 8201 8202 8197 8201 8196 8193 8196 8197 8197 8197 8196 8190 8196 8195 8197 8197 8193 8190 8191 8197 8193 8199 8196 8200 8194 8196 8198 8197 8198 8195 8198 8201 
8202 8200 8192 8199 8198 8197 8181 8204 8190 8198 8192 8191 8198 8197 8194 8197 8201 8198 8194 8199 8201 8203 8197 8203 8188 8163 8143 8152 8150 8145 8143 8149 8169 8157 8152 8151 8153 8163 8184 8184 8180 8193 8191 8204 8227 8218 8197 8206 8201 8200 8199 8199 8201 8198 8198 8197 8197 8197 8192 8197 8201 8200 8203 8200 8198 8194 8194 8201 8196 8197 8194 8192 8198 8196 8199 8193 8196 8196 8192 8206 
8200 8194 8199 8202 8200 8195 8188 8179 8182 8197 8200 8195 8194 8196 8197 8194 8196 8193 8192 8198 8198 8203 8198 8202 8195 8172 8150 8144 8146 8153 8147 8146 8146 8150 8150 8151 8164 8173 8178 8166 8167 8176 8173 8180 8203 8214 8196 8205 8194 8197 8198 8200 8195 8193 8198 8196 8195 8197 8190 8192 8197 8197 8201 8194 8193 8193 8193 8204 8192 8193 8193 8190 8193 8193 8198 8195 8198 8205 8198 8214 
8209 8205 8197 8196 8202 8198 8197 8185 8198 8199 8199 8189 8191 8190 8195 8196 8198 8196 8188 8207 8199 8203 8200 8197 8195 8195 8184 8157 8152 8147 8154 8152 8150 8154 8148 8155 8166 8174 8165 8164 8169 8175 8173 8172 8189 8204 8189 8197 8195 8202 8204 8199 8196 8192 8199 8196 8202 8199 8195 8195 8193 8198 8204 8198 8204 8195 8194 8199 8192 8193 8188 8192 8192 8195 8196 8197 8197 8203 8199 8208 
8212 8192 8201 8203 8205 8196 8195 8201 8200 8193 8196 8192 8199 8194 8201 8199 8197 8201 8191 8192 8200 8202 8204 8198 8195 8191 8184 8147 8136 8130 8151 8150 8154 8168 8161 8162 8168 8170 8160 8167 8166 8176 8170 8166 8173 8183 8183 8191 8196 8198 8204 8198 8193 8190 8195 8193 8198 8197 8192 8197 8196 8193 8198 8199 8200 8194 8195 8200 8196 8196 8196 8200 8200 8197 8197 8197 8200 8201 8204 8210 
8211 8192 8197 8210 8209 8192 8208 8188 8185 8195 8191 8200 8191 8193 8195 8195 8192 8199 8193 8189 8198 8198 8204 8193 8191 8190 8171 8147 8142 8144 8142 8153 8155 8148 8152 8146 8160 8166 8160 8158 8162 8167 8166 8164 8175 8173 8184 8183 8196 8197 8199 8199 8197 8193 8198 8194 8198 8197 8196 8200 8199 8196 8198 8196 8199 8197 8198 8196 8191 8184 8185 8193 8193 8195 8194 8197 8196 8198 8202 8215 
8205 8201 8194 8202 8202 8202 8202 8189 8198 8200 8189 8201 8192 8193 8195 8197 8196 8199 8196 8189 8197 8195 8196 8196 8191 8193 8180 8156 8153 8145 8136 8146 8143 8141 8140 8145 8144 8156 8159 8159 8154 8155 8158 8167 8168 8171 8173 8175 8191 8200 8192 8198 8196 8196 8200 8191 8197 8194 8196 8199 8194 8193 8196 8192 8195 8197 8194 8194 8193 8197 8194 8195 8194 8195 8195 8197 8204 8199 8201 8215 
8209 8205 8204 8208 8215 8190 8201 8199 8195 8202 8198 8196 8198 8192 8194 8196 8196 8198 8197 8195 8195 8192 8198 8200 8193 8195 8190 8180 8164 8156 8143 8147 8145 8140 8142 8152 8147 8148 8153 8155 8151 8158 8160 8171 8165 8168 8172 8170 8187 8201 8192 8195 8191 8194 8200 8195 8200 8197 8204 8206 8202 8200 8200 8197 8201 8201 8199 8189 8192 8194 8195 8193 8190 8194 8192 8199 8206 8205 8203 8214 
8206 8200 8201 8208 8198 8203 8204 8203 8204 8210 8205 8202 8204 8195 8201 8188 8196 8198 8199 8192 8196 8193 8195 8202 8198 8196 8193 8173 8170 8154 8146 8144 8142 8141 8152 8156 8147 8143 8149 8153 8152 8155 8159 8167 8166 8163 8170 8172 8183 8195 8196 8198 8200 8203 8201 8201 8197 8201 8199 8188 8196 8187 8195 8200 8194 8200 8196 8198 8194 8196 8197 8197 8190 8191 8197 8204 8199 8211 8206 8211 
8205 8198 8207 8212 8200 8211 8210 8204 8205 8200 8209 8204 8202 8198 8198 8202 8200 8199 8203 8194 8192 8195 8196 8201 8200 8197 8190 8175 8157 8154 8153 8144 8146 8142 8153 8154 8152 8155 8151 8149 8147 8150 8162 8169 8164 8170 8169 8175 8176 8196 8200 8198 8199 8197 8199 8200 8199 8195 8193 8190 8196 8191 8201 8195 8200 8203 8199 8195 8193 8194 8196 8195 8192 8189 8199 8195 8198 8214 8207 8210 
8208 8205 8201 8213 8205 8213 8203 8205 8209 8198 8207 8199 8195 8200 8201 8201 8203 8195 8202 8196 8192 8193 8198 8204 8196 8191 8187 8170 8144 8140 8147 8150 8144 8148 8146 8148 8151 8159 8149 8151 8147 8154 8160 8165 8168 8169 8171 8177 8179 8197 8198 8198 8197 8196 8198 8191 8195 8186 8191 8187 8189 8194 8203 8203 8204 8200 8203 8199 8197 8190 8195 8197 8197 8199 8202 8191 8208 8208 8206 8213 
8211 8202 8198 8205 8203 8212 8198 8205 8210 8197 8196 8202 8201 8199 8203 8202 8200 8195 8195 8195 8190 8202 8200 8204 8196 8194 8185 8180 8158 8154 8146 8145 8150 8149 8155 8157 8148 8149 8154 8156 8148 8161 8156 8174 8173 8176 8176 8179 8185 8200 8199 8194 8198 8191 8198 8189 8192 8198 8196 8197 8196 8198 8198 8204 8203 8196 8198 8190 8197 8190 8197 8200 8200 8194 8197 8194 8207 8212 8209 8215 
8212 8209 8202 8206 8195 8209 8201 8201 8210 8204 8203 8202 8192 8199 8197 8201 8196 8196 8194 8196 8193 8205 8198 8201 8197 8195 8192 8179 8154 8156 8143 8148 8157 8143 8153 8154 8151 8145 8151 8152 8149 8159 8153 8172 8173 8180 8182 8184 8188 8195 8191 8192 8196 8193 8193 8186 8196 8193 8198 8190 8197 8193 8200 8202 8203 8197 8195 8196 8200 8198 8198 8195 8192 8192 8201 8204 8196 8205 8204 8217 
8213 8198 8214 8208 8209 8209 8200 8203 8209 8203 8202 8202 8194 8203 8201 8198 8194 8204 8201 8193 8196 8203 8192 8196 8198 8197 8195 8185 8160 8159 8150 8159 8145 8155 8160 8159 8156 8162 8155 8157 8158 8161 8160 8168 8173 8178 8182 8186 8193 8193 8192 8190 8200 8195 8194 8190 8195 8195 8192 8193 8203 8199 8201 8203 8203 8198 8197 8197 8197 8202 8204 8202 8194 8201 8208 8199 8202 8211 8204 8218 
8217 8209 8211 8203 8212 8201 8209 8206 8203 8198 8201 8200 8196 8193 8199 8195 8198 8199 8201 8198 8200 8198 8193 8190 8194 8201 8188 8189 8165 8161 8165 8156 8147 8156 8162 8159 8166 8169 8157 8163 8163 8163 8165 8173 8172 8177 8180 8194 8195 8200 8197 8192 8191 8188 8191 8192 8196 8199 8189 8195 8204 8204 8208 8202 8203 8199 8198 8195 8200 8201 8198 8199 8188 8198 8199 8199 8204 8207 8204 8210 
8221 8208 8210 8210 8207 8203 8212 8209 8203 8196 8188 8201 8197 8199 8202 8203 8202 8201 8203 8201 8198 8199 8198 8189 8194 8193 8190 8189 8176 8169 8165 8157 8169 8165 8165 8163 8164 8167 8167 8170 8167 8175 8169 8175 8181 8181 8182 8193 8193 8196 8192 8199 8192 8196 8198 8194 8201 8201 8198 8201 8206 8209 8213 8206 8206 8199 8200 8194 8200 8197 8200 8193 8191 8192 8196 8206 8206 8207 8207 8208 
8222 8209 8214 8204 8207 8206 8210 8199 8206 8194 8199 8205 8199 8198 8198 8198 8198 8189 8202 8198 8196 8199 8200 8191 8193 8190 8193 8197 8187 8186 8168 8162 8168 8174 8169 8170 8172 8173 8171 8175 8170 8171 8176 8177 8187 8189 8197 8199 8197 8198 8192 8200 8198 8196 8201 8197 8197 8204 8203 8205 8207 8205 8212 8199 8210 8205 8208 8191 8195 8194 8198 8204 8198 8204 8207 8206 8202 8202 8203 8202 
8217 8209 8209 8208 8210 8208 8210 8204 8203 8202 8201 8203 8199 8198 8200 8201 8193 8194 8192 8192 8189 8200 8199 8194 8190 8200 8200 8204 8201 8193 8186 8174 8168 8178 8177 8172 8180 8175 8169 8181 8170 8177 8180 8184 8188 8193 8190 8188 8195 8194 8198 8202 8204 8203 8195 8203 8201 8206 8207 8206 8202 8207 8205 8203 8209 8206 8198 8202 8197 8197 8199 8201 8196 8205 8203 8204 8202 8211 8202 8206 
8216 8211 8209 8207 8212 8205 8205 8205 8201 8202 8206 8203 8196 8195 8200 8188 8197 8192 8195 8196 8194 8191 8192 8200 8201 8195 8196 8202 8201 8191 8200 8187 8176 8173 8169 8183 8184 8184 8176 8183 8176 8185 8190 8191 8182 8176 8194 8190 8194 8197 8201 8196 8203 8202 8198 8205 8200 8205 8199 8196 8200 8203 8204 8202 8209 8202 8209 8203 8200 8195 8191 8195 8194 8198 8198 8202 8205 8202 8193 8208 
8215 8215 8221 8214 8213 8210 8211 8202 8201 8207 8202 8194 8198 8194 8196 8192 8194 8195 8202 8198 8198 8189 8200 8200 8190 8189 8198 8197 8204 8193 8194 8198 8189 8180 8187 8197 8199 8197 8204 8209 8198 8195 8190 8184 8180 8193 8188 8197 8194 8192 8198 8201 8205 8198 8204 8204 8208 8208 8211 8205 8200 8203 8210 8200 8211 8205 8205 8203 8194 8200 8191 8193 8195 8198 8203 8202 8201 8191 8201 8212 
8210 8213 8223 8197 8212 8213 8204 8208 8202 8202 8195 8203 8191 8192 8203 8194 8193 8195 8202 8203 8199 8196 8197 8197 8193 8192 8198 8203 8201 8206 8198 8192 8191 8176 8181 8193 8199 8192 8202 8193 8186 8185 8188 8184 8185 8190 8191 8195 8196 8194 8206 8206 8203 8204 8206 8209 8205 8201 8203 8213 8201 8204 8202 8205 8211 8204 8202 8195 8201 8197 8201 8192 8189 8197 8202 8200 8199 8191 8190 8197 
8212 8203 8219 8200 8210 8210 8197 8207 8200 8205 8196 8205 8200 8196 8208 8203 8193 8200 8203 8204 8204 8197 8198 8202 8203 8197 8195 8202 8200 8201 8198 8202 8202 8190 8183 8185 8187 8190 8181 8188 8186 8187 8191 8188 8195 8190 8197 8201 8199 8202 8201 8204 8202 8209 8209 8215 8202 8204 8203 8207 8201 8213 8212 8215 8211 8213 8204 8199 8203 8193 8202 8204 8196 8202 8197 8206 8201 8205 8194 8203 
8214 8208 8206 8202 8197 8209 8206 8203 8202 8206 8204 8203 8198 8206 8197 8197 8195 8206 8194 8194 8199 8193 8199 8201 8197 8197 8195 8201 8204 8202 8199 8202 8202 8191 8197 8195 8191 8192 8179 8183 8184 8190 8194 8194 8195 8200 8195 8198 8202 8208 8206 8205 8203 8210 8206 8210 8202 8199 8203 8208 8198 8212 8207 8207 8214 8211 8209 8195 8198 8197 8196 8207 8199 8193 8203 8196 8199 8204 8192 8202 
8217 8210 8216 8209 8212 8208 8209 8206 8206 8208 8201 8208 8206 8209 8195 8197 8197 8194 8195 8200 8204 8194 8197 8204 8205 8195 8194 8201 8204 8200 8199 8205 8204 8201 8195 8200 8195 8204 8201 8207 8197 8199 8196 8209 8206 8208 8203 8209 8200 8199 8208 8203 8214 8216 8216 8209 8215 8207 8210 8214 8214 8219 8212 8215 8211 8213 8201 8197 8200 8200 8205 8200 8203 8207 8207 8196 8203 8205 8192 8199 
8218 8215 8208 8200 8205 8206 8208 8192 8209 8208 8200 8201 8202 8205 8199 8197 8202 8203 8195 8202 8194 8192 8198 8199 8189 8205 8198 8205 8198 8208 8206 8201 8206 8198 8192 8189 8194 8196 8198 8200 8192 8208 8196 8209 8204 8204 8208 8205 8202 8198 8205 8192 8208 8204 8215 8206 8208 8206 8205 8204 8205 8205 8211 8214 8210 8214 8202 8209 8203 8199 8199 8200 8203 8198 8189 8199 8206 8194 8191 8191 
8215 8207 8205 8208 8208 8209 8206 8204 8199 8202 8202 8199 8205 8203 8205 8206 8209 8201 8197 8201 8199 8204 8202 8201 8196 8200 8204 8202 8202 8206 8205 8205 8205 8212 8206 8206 8204 8198 8202 8201 8201 8205 8201 8213 8203 8209 8210 8212 8206 8204 8209 8197 8200 8194 8213 8211 8215 8200 8212 8207 8212 8210 8205 8214 8209 8214 8212 8205 8204 8206 8199 8198 8204 8203 8192 8196 8203 8197 8192 8198 
8219 8217 8197 8207 8205 8206 8213 8207 8206 8200 8199 8205 8202 8204 8201 8205 8205 8200 8203 8198 8205 8202 8198 8203 8195 8199 8194 8204 8204 8209 8204 8206 8208 8208 8205 8212 8202 8205 8205 8198 8203 8201 8198 8205 8206 8208 8203 8209 8202 8205 8205 8205 8209 8205 8204 8210 8209 8206 8210 8202 8208 8203 8205 8206 8207 8205 8208 8200 8202 8201 8199 8194 8202 8202 8202 8193 8198 8199 8192 8195 
8211 8216 8209 8207 8209 8207 8208 8206 8213 8214 8217 8201 8207 8191 8202 8209 8204 8201 8202 8200 8208 8199 8194 8210 8204 8204 8196 8203 8205 8209 8208 8212 8209 8214 8210 8214 8204 8204 8202 8205 8210 8213 8207 8211 8209 8206 8211 8211 8212 8209 8214 8201 8207 8202 8211 8206 8206 8208 8207 8197 8205 8206 8204 8207 8211 8208 8209 8195 8203 8200 8194 8205 8197 8195 8201 8205 8200 8197 8193 8196 
8216 8202 8211 8212 8206 8208 8217 8211 8215 8196 8204 8205 8204 8197 8203 8205 8205 8200 8202 8200 8205 8197 8203 8204 8206 8210 8202 8206 8201 8206 8216 8208 8222 8206 8213 8207 8216 8216 8208 8210 8216 8215 8211 8211 8201 8209 8213 8210 8204 8213 8208 8208 8211 8211 8208 8209 8207 8205 8203 8188 8207 8207 8212 8206 8199 8206 8203 8183 8205 8189 8202 8198 8203 8205 8209 8207 8198 8192 8190 8201 
8212 8204 8211 8206 8202 8212 8222 8201 8211 8208 8209 8211 8211 8207 8200 8201 8202 8206 8211 8200 8191 8205 8207 8204 8206 8209 8209 8214 8204 8202 8214 8211 8219 8208 8216 8211 8216 8221 8208 8217 8212 8222 8205 8213 8208 8213 8207 8218 8203 8198 8205 8215 8206 8204 8206 8205 8205 8213 8208 8194 8203 8203 8207 8200 8192 8194 8199 8197 8201 8203 8198 8208 8209 8209 8205 8204 8202 8200 8187 8204 
8210 8194 8199 8200 8206 8203 8215 8201 8204 8206 8206 8205 8204 8210 8206 8212 8206 8198 8209 8197 8201 8202 8203 8210 8200 8202 8200 8202 8208 8209 8218 8214 8212 8215 8213 8212 8209 8224 8218 8227 8212 8221 8215 8204 8209 8211 8217 8214 8210 8209 8205 8214 8210 8212 8180 8210 8208 8204 8195 8186 8202 8200 8199 8196 8186 8192 8197 8198 8203 8210 8201 8202 8210 8213 8206 8192 8198 8195 8190 8196 
8207 8201 8196 8201 8204 8206 8202 8213 8193 8199 8211 8205 8213 8210 8206 8197 8198 8203 8205 8198 8204 8205 8214 8209 8195 8210 8209 8206 8212 8222 8200 8225 8215 8210 8219 8209 8217 8221 8222 8225 8218 8219 8214 8210 8210 8213 8207 8212 8214 8204 8208 8204 8210 8206 8205 8210 8206 8203 8190 8207 8203 8201 8198 8182 8189 8199 8197 8192 8210 8199 8209 8207 8202 8197 8205 8204 8203 8199 8191 8196 
8207 8200 8199 8205 8205 8197 8201 8212 8210 8206 8196 8197 8196 8207 8208 8187 8200 8210 8204 8207 8197 8205 8207 8210 8206 8210 8211 8217 8212 8207 8214 8223 8214 8212 8220 8212 8219 8216 8213 8222 8215 8215 8203 8220 8211 8209 8209 8210 8200 8205 8196 8213 8196 8214 8218 8204 8213 8208 8210 8204 8201 8203 8201 8187 8187 8203 8191 8196 8208 8192 8204 8210 8204 8216 8203 8202 8192 8191 8203 8199 
8201 8198 8204 8201 8209 8207 8212 8214 8199 8211 8198 8208 8197 8209 8207 8205 8205 8211 8205 8202 8205 8208 8206 8210 8214 8205 8213 8215 8205 8208 8219 8211 8214 8217 8222 8213 8222 8221 8221 8217 8214 8213 8208 8215 8213 8216 8211 8208 8215 8210 8210 8209 8209 8193 8217 8205 8210 8202 8202 8198 8206 8203 8202 8194 8195 8200 8186 8201 8204 8195 8201 8214 8206 8214 8200 8196 8194 8191 8204 8199 
8208 8208 8198 8201 8195 8195 8208 8207 8197 8213 8199 8212 8204 8213 8205 8202 8204 8201 8206 8205 8206 8208 8207 8209 8217 8205 8210 8209 8211 8209 8212 8205 8213 8212 8215 8210 8217 8220 8218 8217 8218 8206 8217 8214 8211 8214 8201 8214 8211 8214 8208 8219 8206 8198 8215 8207 8214 8198 8197 8206 8206 8198 8190 8193 8201 8185 8195 8185 8201 8206 8203 8199 8199 8205 8194 8203 8187 8191 8193 8193 
8204 8207 8207 8201 8203 8203 8215 8207 8195 8216 8208 8205 8214 8205 8206 8204 8210 8203 8199 8199 8207 8210 8206 8213 8208 8181 8210 8211 8214 8211 8203 8215 8222 8210 8223 8217 8219 8221 8215 8216 8218 8214 8214 8219 8215 8219 8197 8212 8218 8213 8213 8208 8212 8206 8208 8208 8214 8212 8205 8205 8203 8192 8195 8193 8201 8192 8189 8197 8202 8191 8206 8210 8208 8208 8204 8198 8193 8190 8183 8188 
8198 8190 8207 8195 8198 8193 8213 8194 8207 8215 8212 8198 8206 8205 8204 8197 8190 8209 8198 8203 8212 8206 8208 8211 8209 8192 8181 8211 8216 8219 8217 8211 8222 8214 8213 8221 8219 8218 8208 8214 8209 8220 8210 8215 8215 8205 8211 8210 8209 8212 8209 8215 8196 8204 8210 8207 8204 8205 8199 8200 8198 8191 8199 8193 8185 8204 8191 8203 8192 8193 8202 8204 8199 8200 8197 8188 8194 8185 8178 8188 
8210 8211 8213 8173 8208 8198 8217 8197 8210 8204 8204 8197 8201 8207 8210 8208 8197 8211 8207 8207 8199 8202 8202 8206 8221 8202 8215 8214 8213 8211 8209 8214 8219 8214 8197 8212 8213 8204 8211 8219 8216 8210 8198 8214 8210 8206 8211 8214 8204 8207 8209 8213 8198 8196 8207 8201 8204 8200 8197 8197 8190 8197 8197 8188 8189 8194 8190 8200 8200 8194 8197 8195 8199 8190 8196 8192 8193 8173 8180 8178 
8216 8194 8186 8192 8203 8192 8194 8211 8213 8204 8209 8199 8183 8210 8200 8190 8186 8197 8202 8194 8211 8189 8198 8197 8217 8205 8213 8212 8206 8210 8217 8198 8206 8216 8200 8212 8211 8214 8209 8217 8212 8210 8202 8202 8202 8201 8214 8207 8207 8205 8206 8200 8199 8203 8198 8196 8203 8204 8203 8201 8204 8195 8187 8187 8189 8193 8187 8201 8197 8202 8192 8202 8198 8186 8198 8193 8192 8173 8169 8179 
8210 8202 8198 8193 8203 8200 8199 8212 8212 8210 8209 8191 8203 8204 8207 8201 8198 8202 8198 8202 8200 8202 8205 8200 8213 8210 8216 8215 8211 8207 8196 8207 8213 8214 8216 8215 8207 8218 8214 8210 8215 8220 8207 8211 8206 8207 8217 8215 8214 8210 8209 8202 8199 8201 8201 8198 8198 8202 8203 8201 8197 8191 8190 8192 8191 8187 8192 8205 8197 8205 8192 8205 8203 8203 8195 8189 8166 8180 8175 8174 


