P2
80 60
8199
8092 8078 8095 8090 8106 8095 8092 8091 8095 8094 8097 8098 8093 8092 8095 8099 8096 8093 8097 8096 8103 8111 8108 8092 8104 8122 8110 8116 8118 8117 8123 8120 8120 8120 8118 8119 8120 8120 8129 8125 8128 8128 8121 8121 8125 8131 8126 8122 8125 8128 8126 8129 8130 8119 8119 8126 8119 8124 8132 8136 8141 8136 8142 8142 8153 8152 8148 8152 8156 8164 8164 8170 8171 8170 8176 8177 8171 8170 8173 8170 
8084 8095 8105 8095 8103 8099 8093 8094 8088 8102 8094 8097 8092 8092 8091 8102 8096 8099 8094 8104 8110 8109 8109 8103 8114 8108 8106 8113 8122 8116 8122 8122 8120 8127 8122 8128 8128 8143 8148 8141 8143 8144 8137 8140 8135 8122 8126 8120 8124 8130 8125 8128 8128 8125 8120 8129 8124 8123 8129 8133 8143 8140 8147 8143 8146 8147 8155 8156 8163 8166 8165 8160 8171 8167 8176 8166 8173 8172 8173 8162 
8062 8082 8085 8085 8101 8089 8087 8097 8089 8099 8100 8097 8090 8099 8098 8100 8105 8105 8102 8115 8111 8120 8120 8115 8123 8134 8131 8133 8143 8131 8142 8146 8144 8161 8153 8148 8146 8155 8159 8154 8155 8150 8142 8147 8136 8124 8122 8120 8120 8120 8124 8120 8121 8130 8129 8125 8125 8131 8132 8126 8143 8144 8136 8149 8147 8147 8149 8153 8161 8172 8163 8159 8166 8165 8168 8158 8176 8163 8164 8163 
8090 8079 8104 8085 8103 8091 8103 8106 8116 8115 8113 8106 8119 8122 8120 8124 8128 8137 8133 8136 8140 8138 8125 8146 8149 8149 8152 8155 8161 8159 8153 8157 8159 8159 8163 8152 8157 8159 8156 8153 8155 8146 8148 8144 8136 8118 8130 8124 8129 8124 8126 8120 8134 8127 8127 8131 8119 8124 8128 8129 8139 8142 8130 8146 8137 8139 8147 8151 8160 8167 8162 8169 8165 8170 8167 8159 8177 8167 8170 8168 
8083 8077 8103 8086 8098 8098 8103 8111 8129 8146 8142 8132 8137 8143 8138 8144 8142 8139 8146 8139 8143 8148 8140 8140 8148 8153 8151 8149 8152 8155 8155 8161 8158 8155 8153 8155 8153 8154 8154 8156 8158 8154 8138 8140 8128 8119 8122 8123 8120 8123 8123 8124 8125 8122 8127 8129 8121 8130 8130 8131 8138 8142 8137 8141 8137 8145 8140 8141 8161 8159 8156 8162 8159 8171 8151 8162 8166 8164 8166 8165 
8097 8089 8097 8094 8102 8099 8111 8116 8138 8150 8137 8146 8147 8144 8139 8144 8151 8135 8147 8149 8148 8146 8152 8140 8155 8157 8157 8151 8151 8157 8164 8163 8155 8155 8158 8158 8158 8157 8157 8162 8158 8153 8156 8140 8133 8129 8119 8125 8120 8123 8127 8125 8134 8127 8128 8135 8132 8133 8133 8135 8139 8144 8139 8141 8134 8146 8145 8143 8154 8164 8161 8153 8170 8155 8155 8162 8167 8153 8164 8177 
8102 8100 8105 8112 8107 8102 8116 8116 8121 8135 8130 8155 8149 8137 8142 8150 8138 8142 8147 8157 8146 8150 8156 8148 8158 8158 8146 8151 8157 8163 8162 8165 8158 8157 8156 8159 8154 8154 8162 8160 8161 8148 8152 8144 8135 8124 8130 8122 8121 8121 8120 8119 8130 8130 8127 8133 8121 8123 8132 8137 8129 8141 8139 8145 8139 8146 8148 8160 8143 8153 8168 8168 8164 8160 8166 8161 8159 8147 8168 8173 
8107 8108 8098 8114 8105 8112 8119 8125 8120 8107 8147 8154 8150 8144 8156 8151 8148 8148 8150 8145 8155 8155 8156 8156 8161 8162 8142 8156 8159 8169 8168 8166 8166 8164 8163 8163 8153 8160 8158 8161 8160 8149 8152 8150 8127 8125 8127 8114 8124 8114 8116 8112 8132 8124 8125 8130 8128 8136 8127 8134 8129 8137 8140 8145 8140 8153 8153 8159 8151 8154 8158 8158 8168 8156 8169 8163 8160 8165 8167 8173 
8111 8104 8104 8109 8117 8113 8123 8115 8114 8106 8135 8143 8142 8146 8141 8146 8144 8139 8151 8152 8154 8144 8148 8150 8145 8157 8150 8156 8155 8155 8161 8160 8157 8157 8160 8158 8153 8153 8158 8159 8154 8152 8151 8141 8128 8133 8120 8121 8122 8116 8117 8116 8123 8124 8133 8122 8127 8132 8129 8133 8127 8130 8130 8138 8135 8141 8144 8159 8151 8157 8155 8151 8150 8159 8158 8161 8165 8166 8165 8164 
8120 8104 8116 8120 8121 8125 8115 8124 8123 8120 8123 8142 8144 8151 8146 8137 8150 8144 8157 8161 8147 8150 8155 8147 8142 8156 8156 8164 8160 8159 8161 8159 8154 8153 8163 8160 8139 8150 8145 8153 8147 8157 8157 8141 8136 8143 8143 8142 8142 8135 8135 8140 8140 8139 8139 8128 8141 8144 8141 8147 8144 8144 8138 8145 8141 8143 8148 8153 8148 8161 8158 8159 8160 8157 8162 8154 8162 8166 8163 8160 
8124 8112 8127 8124 8124 8130 8109 8130 8125 8116 8124 8125 8140 8144 8141 8143 8152 8136 8136 8147 8147 8149 8149 8151 8148 8149 8160 8163 8170 8169 8165 8139 8119 8146 8163 8161 8148 8129 8128 8140 8126 8141 8147 8163 8156 8161 8159 8149 8156 8148 8146 8144 8150 8148 8141 8129 8150 8138 8149 8148 8147 8143 8149 8139 8135 8146 8156 8151 8148 8155 8157 8160 8151 8154 8156 8151 8158 8154 8161 8154 
8143 8146 8147 8143 8135 8144 8137 8143 8145 8133 8140 8130 8145 8148 8150 8148 8146 8143 8144 8158 8160 8158 8149 8159 8163 8162 8165 8165 8171 8169 8169 8127 8121 8169 8163 8160 8165 8157 8157 8123 8118 8126 8153 8171 8159 8164 8165 8155 8158 8156 8162 8158 8153 8153 8148 8144 8151 8141 8156 8155 8148 8147 8145 8143 8138 8145 8158 8150 8152 8151 8157 8153 8157 8158 8147 8151 8166 8159 8164 8157 
8148 8151 8138 8138 8139 8150 8150 8133 8141 8146 8137 8136 8143 8147 8151 8157 8146 8153 8154 8157 8153 8164 8154 8157 8167 8163 8138 8147 8147 8148 8162 8124 8151 8171 8149 8155 8161 8158 8150 8114 8112 8133 8163 8148 8139 8152 8165 8157 8156 8156 8162 8160 8151 8157 8156 8134 8149 8144 8149 8148 8146 8147 8148 8132 8142 8146 8152 8150 8156 8141 8140 8150 8153 8152 8153 8155 8169 8152 8154 8156 
8152 8164 8155 8157 8152 8154 8152 8154 8138 8152 8155 8152 8150 8150 8156 8150 8160 8159 8158 8163 8164 8166 8160 8165 8163 8161 8132 8126 8126 8138 8145 8136 8170 8177 8166 8170 8136 8139 8124 8118 8124 8148 8146 8128 8126 8136 8155 8163 8168 8162 8158 8163 8161 8156 8159 8142 8151 8148 8154 8150 8148 8141 8149 8142 8149 8152 8150 8148 8157 8156 8153 8156 8155 8159 8150 8156 8164 8167 8170 8156 
8162 8150 8159 8157 8154 8156 8150 8156 8147 8147 8152 8154 8156 8159 8162 8163 8159 8152 8167 8170 8152 8166 8159 8166 8162 8161 8158 8160 8147 8149 8145 8148 8159 8168 8169 8168 8162 8136 8123 8109 8114 8118 8116 8123 8123 8119 8121 8147 8161 8163 8159 8164 8162 8162 8154 8153 8156 8155 8152 8152 8153 8148 8147 8148 8149 8153 8154 8149 8155 8147 8154 8155 8154 8156 8149 8152 8155 8154 8161 8152 
8161 8140 8149 8155 8153 8149 8149 8153 8150 8158 8160 8154 8157 8156 8166 8167 8166 8157 8171 8174 8161 8171 8161 8166 8164 8177 8180 8160 8142 8144 8137 8153 8151 8153 8165 8169 8170 8159 8129 8112 8124 8132 8132 8128 8122 8121 8113 8138 8155 8159 8158 8154 8159 8160 8150 8155 8152 8150 8153 8161 8160 8146 8149 8145 8152 8154 8142 8150 8148 8153 8158 8152 8150 8155 8152 8156 8161 8161 8157 8153 
8164 8145 8150 8161 8156 8149 8151 8150 8157 8158 8156 8159 8148 8156 8149 8167 8158 8171 8171 8165 8150 8170 8169 8164 8161 8172 8172 8173 8149 8127 8126 8146 8139 8140 8156 8151 8136 8156 8135 8117 8132 8162 8158 8138 8116 8117 8113 8113 8146 8131 8131 8127 8134 8144 8141 8146 8145 8151 8149 8155 8156 8141 8148 8147 8152 8146 8149 8154 8145 8143 8144 8145 8146 8154 8153 8148 8151 8155 8152 8148 
8162 8154 8158 8149 8150 8165 8156 8162 8153 8166 8162 8159 8170 8170 8171 8168 8166 8167 8173 8172 8169 8178 8174 8164 8162 8183 8184 8173 8144 8118 8123 8127 8120 8128 8136 8121 8119 8116 8125 8114 8152 8152 8127 8122 8124 8124 8122 8109 8129 8123 8117 8123 8117 8122 8140 8156 8147 8150 8150 8160 8157 8153 8154 8152 8150 8149 8155 8155 8157 8145 8142 8150 8155 8152 8149 8155 8149 8148 8152 8156 
8159 8152 8161 8158 8155 8154 8163 8165 8165 8154 8163 8160 8169 8162 8164 8168 8163 8172 8169 8166 8165 8178 8172 8171 8171 8180 8182 8156 8123 8103 8138 8148 8139 8125 8121 8124 8129 8127 8128 8121 8151 8118 8115 8120 8135 8125 8129 8129 8110 8118 8123 8123 8112 8121 8114 8139 8155 8152 8154 8157 8153 8149 8159 8152 8148 8143 8150 8149 8147 8145 8148 8143 8148 8142 8149 8151 8149 8149 8156 8161 
8162 8149 8159 8157 8153 8165 8164 8162 8164 8158 8176 8164 8166 8162 8172 8171 8166 8168 8169 8178 8166 8179 8175 8165 8171 8168 8178 8145 8129 8113 8117 8113 8111 8121 8123 8134 8127 8118 8124 8137 8123 8100 8122 8123 8123 8124 8126 8115 8120 8122 8121 8121 8114 8116 8124 8133 8150 8156 8155 8153 8159 8153 8160 8154 8153 8148 8148 8150 8151 8152 8147 8152 8150 8145 8156 8156 8155 8157 8166 8158 
8165 8158 8155 8142 8148 8154 8155 8168 8165 8160 8161 8167 8164 8161 8159 8176 8169 8171 8160 8173 8155 8169 8175 8173 8167 8165 8162 8161 8119 8114 8114 8111 8108 8112 8118 8135 8120 8121 8129 8136 8142 8114 8114 8118 8115 8123 8120 8113 8115 8116 8112 8117 8112 8112 8114 8127 8142 8155 8155 8146 8153 8155 8157 8155 8152 8149 8150 8159 8152 8153 8152 8152 8145 8151 8154 8158 8151 8153 8160 8152 
8166 8166 8155 8168 8167 8167 8147 8166 8154 8167 8159 8153 8173 8172 8156 8167 8168 8170 8161 8170 8168 8180 8172 8179 8168 8172 8173 8179 8130 8106 8115 8097 8117 8126 8119 8128 8134 8143 8139 8139 8130 8123 8113 8106 8117 8128 8111 8118 8124 8115 8114 8114 8116 8113 8118 8122 8128 8152 8148 8153 8156 8155 8159 8156 8152 8153 8151 8158 8153 8154 8152 8146 8152 8147 8158 8153 8152 8154 8155 8167 
8162 8156 8164 8166 8161 8159 8150 8143 8150 8164 8170 8164 8165 8164 8164 8162 8164 8164 8153 8169 8166 8176 8169 8174 8174 8171 8177 8168 8144 8131 8118 8106 8122 8122 8115 8120 8140 8140 8129 8117 8146 8150 8129 8119 8112 8116 8104 8112 8108 8113 8118 8118 8109 8114 8116 8120 8127 8144 8146 8149 8156 8159 8159 8155 8153 8150 8152 8158 8150 8145 8150 8140 8149 8145 8155 8152 8157 8159 8155 8170 
8167 8167 8164 8161 8166 8166 8160 8148 8164 8168 8170 8158 8167 8162 8169 8169 8166 8168 8163 8184 8170 8174 8179 8162 8169 8164 8174 8164 8147 8120 8108 8126 8127 8120 8102 8114 8144 8149 8131 8138 8148 8158 8157 8127 8121 8118 8114 8107 8108 8139 8155 8129 8109 8115 8117 8125 8146 8157 8144 8155 8151 8159 8163 8159 8163 8159 8156 8160 8149 8151 8146 8145 8156 8154 8155 8156 8152 8160 8162 8167 
8169 8152 8163 8169 8162 8162 8155 8168 8171 8158 8166 8164 8174 8166 8170 8170 8169 8173 8164 8163 8173 8172 8176 8156 8142 8156 8167 8160 8138 8112 8130 8133 8122 8118 8113 8115 8128 8134 8123 8146 8145 8154 8154 8144 8148 8154 8147 8121 8118 8148 8170 8156 8128 8124 8127 8140 8155 8160 8154 8161 8155 8159 8156 8163 8160 8152 8151 8163 8154 8153 8157 8156 8157 8150 8159 8152 8155 8156 8170 8171 
8173 8151 8156 8174 8166 8157 8172 8150 8147 8162 8160 8169 8165 8166 8171 8166 8166 8170 8162 8157 8172 8167 8173 8120 8108 8136 8159 8137 8125 8121 8114 8120 8106 8117 8125 8119 8131 8130 8122 8131 8147 8154 8157 8132 8149 8148 8163 8157 8165 8165 8167 8165 8159 8163 8152 8155 8155 8154 8151 8164 8159 8156 8155 8156 8155 8156 8157 8156 8152 8142 8143 8151 8159 8157 8154 8158 8154 8158 8164 8176 
8167 8164 8153 8164 8163 8166 8162 8151 8158 8163 8154 8173 8157 8164 8158 8155 8163 8165 8165 8155 8165 8158 8137 8113 8102 8123 8130 8118 8124 8123 8101 8110 8103 8118 8121 8124 8121 8127 8126 8129 8133 8125 8114 8117 8119 8116 8132 8153 8168 8169 8155 8167 8158 8161 8159 8154 8148 8154 8155 8162 8156 8149 8161 8155 8157 8153 8153 8152 8152 8153 8148 8148 8153 8154 8150 8159 8162 8155 8161 8175 
8170 8172 8169 8172 8174 8153 8168 8165 8158 8168 8156 8164 8166 8157 8141 8129 8161 8168 8167 8162 8164 8147 8123 8118 8107 8114 8118 8124 8122 8123 8116 8126 8118 8128 8119 8125 8113 8118 8128 8120 8115 8115 8111 8122 8118 8116 8122 8146 8172 8175 8154 8164 8158 8160 8165 8157 8159 8158 8164 8165 8160 8162 8164 8159 8164 8161 8160 8146 8148 8152 8152 8149 8152 8155 8155 8162 8166 8159 8168 8179 
8169 8166 8165 8176 8169 8173 8169 8165 8164 8177 8170 8171 8167 8157 8137 8107 8133 8161 8160 8159 8155 8137 8138 8155 8126 8112 8117 8121 8123 8120 8116 8129 8118 8122 8118 8124 8120 8121 8130 8116 8116 8112 8114 8120 8120 8110 8121 8155 8165 8162 8158 8158 8162 8162 8160 8161 8162 8162 8161 8151 8160 8149 8155 8159 8155 8156 8155 8155 8146 8153 8153 8148 8147 8148 8158 8160 8157 8172 8170 8169 
8168 8161 8171 8178 8164 8180 8180 8166 8171 8161 8171 8171 8164 8155 8120 8121 8120 8149 8161 8160 8154 8160 8160 8147 8116 8113 8118 8123 8113 8124 8120 8120 8123 8122 8123 8121 8127 8137 8131 8119 8122 8107 8116 8127 8114 8113 8105 8136 8126 8121 8130 8140 8164 8170 8164 8163 8160 8153 8152 8148 8153 8150 8160 8151 8158 8159 8153 8151 8145 8151 8152 8153 8151 8151 8166 8156 8158 8172 8168 8171 
8174 8171 8168 8180 8173 8181 8166 8172 8176 8162 8177 8164 8155 8149 8121 8125 8136 8148 8156 8149 8144 8142 8134 8132 8106 8105 8118 8120 8110 8111 8120 8124 8129 8132 8119 8107 8123 8131 8120 8117 8125 8124 8116 8114 8117 8116 8113 8116 8115 8126 8124 8115 8144 8154 8161 8154 8157 8149 8153 8147 8144 8153 8163 8157 8161 8154 8161 8156 8150 8149 8153 8155 8153 8162 8161 8150 8172 8166 8169 8174 
8182 8171 8164 8176 8167 8181 8167 8174 8176 8165 8163 8172 8163 8128 8119 8141 8159 8154 8159 8160 8148 8136 8110 8114 8109 8103 8114 8123 8119 8117 8114 8118 8120 8117 8119 8118 8118 8114 8122 8113 8117 8126 8112 8127 8125 8123 8122 8119 8125 8129 8121 8121 8138 8151 8160 8150 8154 8156 8158 8158 8155 8157 8156 8159 8162 8155 8155 8152 8157 8154 8158 8168 8162 8155 8157 8154 8168 8171 8175 8177 
8180 8175 8170 8174 8159 8179 8167 8171 8177 8174 8171 8170 8142 8122 8129 8166 8163 8155 8158 8158 8154 8133 8105 8113 8113 8110 8119 8117 8119 8120 8108 8113 8118 8101 8110 8119 8118 8112 8124 8118 8111 8121 8117 8121 8122 8123 8130 8125 8120 8124 8114 8119 8133 8155 8156 8148 8157 8153 8157 8147 8154 8151 8149 8154 8159 8149 8155 8156 8160 8162 8163 8157 8150 8155 8160 8161 8158 8166 8167 8178 
8184 8163 8187 8178 8178 8180 8166 8177 8177 8174 8174 8169 8126 8124 8153 8164 8165 8167 8171 8156 8156 8129 8109 8109 8118 8118 8121 8123 8125 8120 8115 8122 8099 8110 8114 8121 8121 8128 8128 8128 8122 8124 8126 8129 8136 8126 8126 8124 8117 8125 8126 8120 8133 8153 8158 8150 8156 8155 8150 8144 8158 8147 8153 8158 8163 8160 8162 8162 8163 8171 8170 8165 8154 8163 8170 8159 8165 8172 8162 8180 
8180 8177 8183 8175 8184 8173 8181 8184 8173 8170 8176 8161 8123 8126 8170 8165 8169 8165 8170 8167 8146 8127 8115 8108 8118 8119 8108 8117 8119 8116 8118 8104 8094 8105 8112 8120 8126 8135 8123 8130 8124 8123 8122 8125 8125 8121 8121 8130 8124 8131 8130 8126 8125 8141 8151 8150 8155 8156 8146 8149 8157 8155 8162 8158 8161 8158 8166 8159 8163 8164 8159 8160 8143 8160 8155 8153 8164 8166 8169 8168 
8187 8177 8176 8183 8176 8178 8185 8187 8176 8166 8164 8159 8134 8152 8174 8172 8172 8171 8174 8167 8165 8167 8157 8128 8135 8110 8110 8109 8118 8119 8115 8105 8112 8113 8106 8115 8121 8125 8124 8128 8122 8119 8110 8122 8127 8121 8115 8121 8119 8133 8124 8137 8137 8153 8157 8148 8157 8158 8150 8152 8155 8161 8165 8163 8165 8157 8163 8154 8162 8165 8164 8156 8154 8153 8153 8167 8167 8164 8171 8171 
8194 8181 8184 8178 8179 8179 8183 8172 8176 8165 8172 8174 8170 8166 8171 8172 8172 8162 8174 8171 8166 8168 8172 8155 8136 8103 8119 8117 8115 8125 8122 8116 8115 8119 8108 8110 8119 8121 8120 8122 8119 8116 8119 8118 8126 8128 8133 8144 8140 8141 8141 8158 8158 8154 8161 8153 8153 8163 8157 8159 8159 8161 8168 8153 8168 8167 8167 8153 8150 8155 8158 8165 8157 8163 8162 8167 8161 8158 8165 8165 
8181 8180 8179 8180 8180 8180 8186 8174 8176 8177 8176 8182 8175 8170 8175 8174 8158 8163 8163 8159 8158 8165 8166 8154 8151 8143 8122 8117 8116 8123 8130 8124 8126 8132 8123 8116 8121 8118 8119 8127 8112 8122 8124 8124 8126 8129 8133 8157 8164 8159 8160 8163 8166 8163 8154 8162 8157 8164 8160 8158 8156 8160 8162 8161 8164 8163 8157 8165 8161 8162 8164 8163 8160 8168 8167 8165 8167 8171 8171 8168 
8182 8181 8177 8178 8182 8182 8179 8178 8174 8173 8176 8171 8171 8165 8172 8160 8168 8160 8161 8164 8161 8156 8159 8167 8166 8154 8122 8109 8113 8114 8146 8133 8134 8127 8113 8127 8120 8117 8121 8123 8113 8119 8124 8125 8126 8118 8156 8159 8169 8164 8164 8156 8162 8165 8148 8164 8156 8161 8154 8150 8161 8164 8165 8160 8172 8157 8171 8166 8164 8158 8154 8158 8159 8162 8162 8167 8168 8165 8156 8175 
8183 8186 8196 8182 8182 8182 8185 8173 8174 8178 8180 8166 8170 8165 8166 8162 8160 8161 8165 8154 8161 8147 8161 8164 8157 8148 8146 8113 8116 8116 8137 8139 8135 8121 8122 8129 8124 8114 8127 8121 8115 8110 8118 8124 8126 8147 8162 8167 8162 8161 8165 8164 8166 8161 8162 8162 8161 8165 8169 8158 8161 8162 8168 8159 8170 8162 8166 8166 8161 8166 8158 8159 8156 8160 8165 8162 8165 8155 8171 8175 
8174 8181 8199 8172 8183 8184 8175 8178 8174 8171 8165 8174 8163 8158 8177 8160 8158 8161 8169 8168 8163 8161 8162 8165 8154 8152 8155 8116 8113 8138 8144 8130 8137 8128 8127 8130 8119 8109 8125 8115 8114 8116 8124 8124 8125 8146 8163 8164 8163 8160 8170 8167 8163 8162 8163 8166 8163 8160 8163 8172 8163 8171 8164 8171 8172 8166 8163 8158 8164 8160 8166 8156 8152 8161 8166 8164 8163 8150 8157 8159 
8181 8171 8191 8170 8180 8182 8164 8171 8172 8173 8166 8173 8171 8167 8178 8172 8160 8165 8167 8168 8167 8161 8159 8164 8169 8161 8155 8132 8134 8147 8145 8143 8141 8137 8135 8132 8123 8123 8113 8120 8118 8120 8125 8118 8125 8144 8166 8168 8164 8170 8167 8167 8163 8168 8170 8171 8162 8164 8160 8168 8162 8172 8169 8177 8171 8173 8167 8158 8166 8158 8166 8166 8155 8165 8158 8168 8164 8171 8164 8174 
8180 8175 8178 8171 8165 8176 8173 8176 8176 8174 8178 8171 8166 8171 8164 8164 8161 8171 8159 8148 8165 8157 8167 8166 8156 8159 8153 8158 8156 8156 8154 8152 8145 8131 8133 8124 8122 8122 8116 8123 8115 8112 8121 8124 8129 8166 8164 8164 8169 8174 8170 8166 8156 8165 8164 8168 8160 8160 8164 8167 8161 8175 8172 8170 8180 8174 8171 8156 8159 8159 8157 8169 8157 8154 8166 8159 8167 8166 8162 8167 
8186 8177 8189 8175 8181 8178 8177 8173 8174 8176 8169 8177 8179 8180 8160 8161 8161 8161 8160 8164 8169 8153 8163 8166 8168 8161 8156 8159 8166 8150 8154 8157 8159 8156 8142 8123 8117 8122 8128 8129 8129 8117 8118 8134 8149 8177 8170 8172 8166 8160 8171 8165 8176 8180 8174 8168 8175 8168 8173 8178 8179 8178 8173 8177 8176 8177 8161 8156 8158 8165 8167 8163 8161 8165 8168 8157 8168 8167 8156 8165 
8182 8186 8178 8165 8177 8175 8177 8158 8181 8179 8173 8167 8170 8174 8167 8163 8165 8171 8153 8165 8158 8152 8162 8163 8148 8169 8159 8163 8155 8160 8161 8156 8165 8155 8145 8117 8119 8121 8127 8132 8119 8132 8120 8141 8166 8173 8182 8171 8167 8158 8169 8147 8169 8171 8175 8168 8172 8168 8167 8164 8173 8172 8175 8180 8174 8176 8165 8169 8166 8161 8158 8159 8164 8159 8152 8165 8167 8156 8157 8158 
8180 8175 8175 8178 8178 8174 8178 8176 8171 8172 8169 8164 8178 8170 8172 8176 8175 8164 8162 8163 8161 8166 8168 8171 8161 8165 8167 8166 8166 8160 8163 8156 8161 8167 8162 8156 8130 8118 8128 8122 8132 8127 8129 8157 8165 8174 8177 8175 8167 8163 8171 8164 8167 8161 8177 8175 8173 8163 8176 8170 8176 8175 8167 8179 8170 8180 8173 8168 8165 8169 8169 8158 8171 8168 8152 8159 8165 8157 8159 8166 
8191 8184 8161 8180 8178 8179 8186 8177 8169 8171 8170 8175 8176 8175 8169 8176 8173 8164 8163 8156 8166 8166 8166 8167 8158 8161 8158 8160 8167 8163 8165 8163 8168 8165 8163 8172 8158 8142 8128 8119 8131 8121 8138 8169 8177 8178 8166 8174 8169 8167 8170 8170 8179 8171 8169 8176 8171 8171 8173 8169 8174 8170 8165 8174 8172 8172 8170 8161 8165 8163 8164 8159 8167 8168 8161 8156 8160 8160 8162 8161 
8176 8187 8182 8180 8175 8180 8180 8177 8185 8184 8185 8173 8181 8156 8173 8182 8175 8170 8165 8165 8173 8158 8164 8171 8172 8167 8160 8161 8168 8167 8170 8172 8171 8178 8171 8173 8163 8160 8146 8125 8137 8152 8166 8174 8177 8170 8176 8174 8174 8173 8182 8170 8176 8170 8175 8172 8171 8177 8171 8165 8170 8173 8165 8175 8177 8177 8175 8159 8168 8165 8162 8174 8163 8159 8168 8171 8161 8160 8164 8160 
8191 8172 8187 8186 8178 8184 8190 8181 8187 8162 8177 8175 8176 8168 8176 8172 8174 8164 8164 8164 8170 8162 8170 8161 8173 8171 8166 8164 8168 8165 8176 8167 8182 8168 8175 8171 8178 8176 8167 8161 8169 8176 8177 8174 8169 8173 8179 8172 8170 8180 8173 8175 8179 8177 8172 8175 8171 8172 8163 8152 8170 8179 8177 8178 8168 8178 8175 8149 8170 8153 8167 8161 8168 8165 8170 8171 8159 8152 8162 8165 
8188 8180 8187 8182 8176 8187 8194 8176 8180 8175 8181 8184 8183 8180 8171 8171 8173 8173 8177 8168 8155 8170 8176 8168 8173 8176 8174 8175 8167 8162 8177 8172 8182 8170 8178 8169 8176 8175 8165 8175 8175 8181 8169 8178 8174 8181 8171 8181 8173 8164 8173 8186 8177 8175 8171 8171 8171 8181 8172 8163 8169 8175 8179 8175 8166 8170 8173 8170 8171 8170 8164 8170 8176 8172 8170 8170 8168 8164 8155 8165 
8187 8168 8179 8175 8183 8177 8190 8174 8175 8179 8184 8175 8175 8182 8177 8182 8174 8166 8179 8162 8167 8168 8167 8174 8166 8168 8167 8166 8174 8170 8180 8175 8172 8176 8175 8172 8172 8183 8176 8183 8176 8179 8178 8164 8179 8175 8185 8179 8179 8181 8174 8184 8178 8179 8144 8176 8176 8171 8163 8154 8170 8169 8169 8171 8163 8170 8175 8169 8171 8177 8165 8164 8175 8177 8171 8152 8163 8153 8155 8158 
8185 8180 8174 8181 8180 8180 8175 8184 8160 8168 8182 8179 8183 8183 8179 8168 8173 8171 8175 8165 8170 8171 8180 8176 8160 8181 8177 8174 8183 8186 8165 8188 8176 8172 8179 8167 8178 8179 8184 8183 8180 8179 8179 8174 8178 8180 8174 8181 8189 8175 8180 8179 8183 8178 8175 8179 8175 8171 8158 8174 8173 8175 8171 8160 8163 8173 8174 8164 8181 8165 8177 8170 8168 8155 8172 8169 8171 8165 8161 8160 
8184 8174 8178 8182 8181 8169 8173 8190 8183 8178 8167 8172 8169 8178 8181 8153 8172 8177 8174 8175 8166 8173 8172 8174 8176 8183 8182 8185 8185 8172 8181 8186 8178 8177 8182 8175 8182 8179 8175 8183 8177 8179 8169 8188 8181 8180 8182 8181 8171 8177 8165 8184 8166 8181 8183 8171 8174 8173 8178 8170 8169 8171 8171 8153 8164 8177 8163 8163 8177 8160 8171 8174 8167 8181 8172 8164 8158 8155 8169 8163 
8174 8176 8183 8175 8183 8184 8184 8186 8168 8184 8171 8181 8169 8180 8178 8174 8175 8180 8174 8171 8176 8178 8176 8179 8183 8180 8188 8187 8177 8176 8186 8177 8176 8184 8183 8177 8185 8184 8186 8181 8180 8181 8175 8184 8185 8188 8185 8182 8190 8183 8183 8187 8179 8164 8186 8174 8175 8169 8166 8165 8173 8172 8171 8159 8164 8172 8158 8170 8175 8165 8168 8179 8172 8180 8168 8163 8160 8153 8173 8160 
8182 8183 8171 8174 8171 8170 8182 8183 8167 8186 8170 8180 8177 8187 8177 8169 8175 8171 8175 8176 8178 8181 8175 8180 8188 8177 8181 8180 8186 8178 8179 8171 8177 8179 8179 8173 8181 8186 8182 8183 8181 8174 8188 8186 8187 8189 8176 8188 8186 8186 8178 8188 8176 8165 8181 8172 8178 8162 8161 8167 8169 8163 8151 8155 8165 8146 8156 8150 8166 8168 8172 8164 8166 8169 8160 8173 8153 8156 8170 8162 
8178 8178 8183 8175 8174 8175 8187 8178 8165 8189 8185 8178 8188 8177 8177 8175 8180 8174 8166 8169 8180 8182 8179 8183 8181 8152 8183 8183 8188 8183 8175 8182 8186 8176 8185 8181 8182 8185 8180 8182 8185 8187 8186 8193 8190 8195 8171 8184 8195 8183 8184 8179 8184 8180 8177 8175 8180 8176 8169 8169 8165 8157 8156 8158 8168 8159 8153 8164 8169 8157 8175 8174 8178 8172 8171 8166 8157 8156 8158 8153 
8166 8165 8180 8170 8170 8166 8183 8166 8178 8187 8184 8172 8182 8180 8180 8168 8161 8181 8168 8175 8182 8180 8181 8182 8183 8166 8155 8183 8191 8190 8191 8177 8186 8179 8176 8187 8186 8185 8175 8183 8180 8189 8182 8188 8192 8181 8185 8181 8183 8185 8180 8185 8164 8173 8176 8174 8169 8174 8162 8164 8160 8150 8159 8158 8146 8168 8154 8168 8158 8158 8170 8171 8167 8164 8166 8157 8162 8153 8155 8156 
8179 8180 8181 8147 8178 8170 8185 8169 8180 8176 8177 8171 8173 8179 8185 8180 8169 8178 8178 8178 8171 8174 8175 8177 8192 8178 8189 8181 8189 8183 8182 8187 8185 8181 8162 8178 8183 8172 8177 8182 8185 8177 8166 8189 8190 8182 8185 8186 8181 8178 8179 8182 8169 8168 8176 8167 8172 8166 8161 8162 8154 8159 8160 8153 8159 8156 8156 8168 8167 8159 8164 8159 8165 8155 8162 8160 8161 8141 8157 8148 
8183 8166 8160 8164 8172 8164 8159 8185 8186 8175 8184 8171 8159 8184 8176 8161 8156 8167 8172 8165 8186 8158 8174 8173 8193 8181 8191 8187 8183 8181 8191 8168 8173 8189 8169 8180 8178 8183 8175 8183 8182 8177 8172 8172 8179 8177 8185 8180 8183 8180 8177 8174 8172 8173 8167 8164 8169 8169 8172 8163 8167 8155 8150 8148 8155 8154 8154 8167 8165 8168 8159 8168 8166 8151 8163 8161 8160 8136 8142 8144 
8178 8171 8168 8159 8179 8168 8167 8182 8183 8179 8175 8161 8182 8174 8180 8169 8175 8175 8168 8172 8175 8178 8183 8174 8187 8183 8189 8188 8188 8178 8166 8176 8181 8184 8183 8185 8173 8189 8182 8172 8184 8191 8181 8182 8177 8179 8190 8187 8185 8188 8174 8172 8169 8172 8171 8165 8165 8168 8173 8165 8160 8148 8151 8153 8159 8151 8162 8167 8161 8166 8158 8163 8169 8170 8157 8153 8134 8151 8148 8142 


