P2
80 60
8222
8123 8118 8130 8124 8138 8129 8125 8124 8125 8123 8128 8127 8125 8125 8124 8128 8127 8126 8129 8126 8131 8136 8135 8128 8133 8147 8140 8144 8143 8143 8148 8150 8149 8150 8156 8154 8150 8152 8155 8151 8156 8155 8149 8141 8146 8150 8152 8154 8154 8157 8156 8162 8163 8157 8157 8163 8162 8164 8172 8176 8179 8183 8179 8186 8187 8186 8192 8193 8197 8201 8203 8206 8207 8204 8213 8213 8204 8202 8203 8202 
8116 8129 8137 8127 8133 8132 8125 8123 8115 8129 8123 8128 8123 8122 8121 8130 8126 8128 8123 8128 8136 8135 8133 8129 8140 8134 8132 8137 8143 8140 8146 8150 8146 8151 8151 8153 8150 8158 8163 8157 8159 8156 8149 8148 8149 8147 8151 8150 8154 8156 8157 8157 8159 8162 8157 8168 8164 8163 8168 8174 8181 8179 8183 8180 8187 8184 8192 8192 8196 8202 8202 8199 8205 8205 8211 8203 8205 8205 8206 8202 
8096 8118 8119 8118 8131 8123 8118 8126 8118 8127 8128 8124 8119 8130 8123 8127 8130 8132 8126 8135 8133 8137 8134 8132 8139 8146 8142 8140 8149 8138 8149 8153 8158 8173 8166 8165 8162 8176 8176 8174 8175 8171 8167 8166 8159 8149 8148 8150 8147 8153 8156 8154 8155 8164 8166 8165 8165 8170 8171 8170 8181 8184 8175 8185 8185 8183 8187 8191 8201 8204 8200 8200 8200 8200 8202 8196 8210 8198 8202 8200 
8121 8112 8134 8120 8133 8121 8131 8130 8135 8132 8127 8117 8132 8133 8127 8131 8136 8140 8138 8137 8146 8145 8134 8154 8161 8161 8166 8169 8177 8181 8173 8180 8185 8184 8190 8183 8185 8185 8182 8182 8182 8174 8174 8166 8154 8144 8153 8153 8153 8153 8155 8152 8163 8161 8163 8164 8161 8163 8169 8172 8177 8181 8178 8184 8179 8176 8186 8188 8197 8204 8196 8201 8197 8204 8201 8196 8207 8201 8202 8203 
8118 8112 8133 8117 8129 8128 8134 8129 8135 8150 8148 8144 8150 8157 8153 8161 8159 8157 8169 8163 8165 8169 8164 8164 8174 8178 8177 8174 8174 8182 8179 8190 8185 8185 8187 8186 8183 8183 8181 8182 8184 8182 8167 8162 8152 8147 8148 8149 8148 8154 8155 8155 8158 8158 8167 8168 8160 8167 8169 8172 8177 8181 8178 8179 8175 8177 8181 8180 8197 8197 8192 8200 8193 8204 8188 8198 8201 8197 8197 8202 
8131 8126 8127 8122 8131 8128 8141 8157 8168 8173 8162 8169 8176 8171 8166 8171 8173 8165 8172 8174 8175 8169 8175 8167 8180 8183 8182 8179 8174 8183 8188 8190 8183 8186 8190 8189 8185 8185 8183 8188 8184 8180 8178 8162 8155 8154 8146 8151 8149 8152 8156 8157 8161 8161 8164 8171 8172 8173 8173 8177 8177 8180 8182 8179 8177 8179 8181 8178 8194 8200 8198 8192 8203 8193 8191 8197 8198 8189 8197 8206 
8132 8133 8136 8143 8137 8129 8146 8151 8159 8164 8159 8179 8177 8169 8172 8178 8166 8173 8178 8184 8170 8173 8177 8175 8185 8184 8171 8176 8180 8190 8189 8192 8184 8184 8189 8191 8185 8183 8188 8187 8189 8178 8177 8165 8156 8149 8154 8151 8148 8151 8150 8150 8161 8164 8164 8168 8164 8166 8170 8177 8173 8180 8176 8177 8176 8182 8186 8191 8181 8188 8197 8200 8198 8193 8198 8197 8192 8186 8199 8204 
8138 8141 8129 8147 8137 8140 8147 8154 8153 8146 8173 8181 8179 8172 8181 8178 8173 8178 8177 8171 8181 8179 8181 8180 8184 8186 8170 8181 8182 8192 8194 8193 8192 8195 8194 8192 8181 8187 8183 8187 8185 8179 8178 8171 8149 8148 8150 8147 8152 8148 8148 8147 8159 8160 8160 8166 8165 8172 8166 8172 8171 8175 8176 8179 8177 8185 8186 8193 8187 8192 8192 8194 8198 8193 8200 8196 8190 8198 8201 8207 
8143 8136 8135 8142 8149 8142 8151 8150 8145 8140 8165 8172 8170 8175 8169 8175 8173 8170 8178 8180 8179 8172 8175 8178 8173 8183 8177 8182 8182 8182 8186 8188 8188 8187 8193 8194 8190 8182 8187 8187 8184 8180 8177 8166 8150 8152 8149 8151 8153 8146 8146 8148 8156 8159 8167 8161 8164 8167 8168 8172 8170 8170 8173 8177 8176 8178 8184 8191 8187 8193 8188 8190 8186 8194 8193 8197 8196 8198 8200 8195 
8152 8139 8148 8151 8149 8156 8144 8158 8152 8149 8152 8171 8176 8176 8175 8168 8178 8174 8182 8186 8174 8177 8178 8172 8172 8180 8183 8188 8185 8185 8187 8191 8191 8188 8195 8195 8195 8192 8189 8187 8186 8187 8183 8162 8156 8164 8165 8171 8168 8166 8163 8167 8170 8172 8174 8163 8175 8178 8176 8183 8180 8182 8178 8181 8180 8181 8186 8188 8187 8194 8195 8193 8195 8191 8197 8191 8193 8197 8194 8194 
8160 8150 8159 8156 8158 8163 8143 8159 8155 8148 8152 8153 8170 8175 8171 8172 8176 8166 8166 8176 8176 8175 8176 8178 8174 8177 8185 8188 8193 8194 8194 8189 8188 8200 8197 8192 8191 8192 8194 8193 8192 8187 8177 8182 8173 8181 8183 8177 8180 8175 8178 8174 8179 8179 8176 8169 8183 8180 8186 8185 8185 8183 8182 8178 8176 8182 8188 8185 8188 8189 8190 8194 8190 8188 8191 8186 8192 8187 8193 8193 
8179 8184 8180 8174 8168 8174 8166 8174 8173 8162 8169 8157 8172 8176 8172 8173 8171 8171 8172 8182 8184 8180 8173 8184 8187 8186 8191 8192 8200 8197 8202 8197 8193 8218 8202 8192 8196 8195 8194 8189 8193 8191 8189 8190 8181 8185 8187 8181 8182 8182 8191 8186 8183 8184 8180 8177 8185 8180 8186 8189 8185 8183 8180 8180 8179 8182 8190 8186 8188 8183 8190 8189 8189 8190 8183 8189 8200 8194 8194 8195 
8180 8184 8171 8169 8168 8183 8179 8166 8170 8174 8168 8164 8171 8174 8177 8182 8174 8181 8180 8181 8178 8186 8177 8180 8189 8187 8177 8194 8195 8191 8209 8195 8197 8209 8186 8185 8198 8200 8188 8186 8190 8191 8199 8195 8185 8184 8188 8183 8180 8183 8189 8186 8182 8186 8188 8172 8183 8182 8185 8187 8182 8183 8184 8176 8179 8183 8186 8184 8187 8177 8181 8186 8187 8187 8187 8191 8198 8186 8191 8191 
8185 8197 8185 8185 8183 8185 8180 8184 8169 8182 8182 8178 8176 8176 8181 8174 8185 8185 8183 8188 8186 8186 8185 8188 8186 8190 8192 8192 8188 8194 8205 8192 8199 8192 8188 8201 8195 8200 8195 8193 8195 8193 8194 8194 8191 8189 8189 8186 8187 8188 8184 8187 8186 8184 8187 8178 8186 8185 8185 8185 8187 8180 8185 8181 8184 8187 8189 8186 8189 8188 8186 8188 8188 8189 8181 8193 8193 8198 8199 8192 
8191 8183 8187 8189 8183 8187 8179 8186 8174 8175 8180 8181 8184 8184 8188 8185 8183 8181 8187 8190 8176 8187 8180 8186 8188 8192 8196 8192 8192 8201 8193 8192 8193 8193 8203 8200 8198 8197 8197 8191 8193 8197 8196 8196 8190 8187 8188 8185 8186 8185 8188 8190 8189 8188 8184 8185 8186 8185 8185 8189 8189 8183 8180 8184 8185 8190 8187 8185 8190 8182 8186 8190 8187 8189 8180 8185 8187 8186 8191 8186 
8193 8176 8181 8189 8184 8179 8181 8185 8178 8187 8187 8179 8182 8182 8189 8191 8192 8184 8197 8195 8186 8192 8183 8190 8191 8198 8203 8188 8190 8203 8200 8196 8201 8216 8204 8203 8200 8201 8197 8192 8199 8199 8195 8194 8193 8192 8185 8189 8183 8186 8189 8188 8193 8187 8182 8188 8185 8185 8188 8194 8189 8180 8183 8182 8188 8190 8182 8187 8185 8185 8187 8185 8184 8187 8182 8186 8192 8187 8189 8186 
8192 8176 8180 8191 8183 8182 8178 8177 8184 8185 8182 8188 8181 8183 8175 8192 8183 8194 8198 8190 8179 8192 8190 8188 8191 8196 8197 8199 8198 8198 8207 8203 8197 8204 8192 8194 8203 8202 8201 8196 8197 8200 8196 8191 8190 8191 8184 8183 8187 8190 8192 8190 8191 8185 8178 8181 8181 8185 8186 8191 8189 8180 8182 8184 8184 8183 8187 8189 8186 8178 8179 8180 8182 8188 8184 8182 8181 8185 8186 8180 
8194 8187 8190 8178 8182 8197 8184 8190 8180 8194 8188 8185 8195 8196 8193 8194 8190 8192 8199 8196 8193 8200 8194 8187 8189 8201 8207 8199 8203 8201 8205 8205 8201 8190 8172 8189 8204 8198 8202 8195 8200 8198 8199 8196 8193 8191 8191 8185 8192 8194 8188 8193 8185 8185 8181 8183 8181 8184 8186 8188 8190 8186 8188 8188 8186 8185 8189 8190 8189 8179 8174 8183 8187 8186 8182 8186 8178 8182 8185 8184 
8189 8183 8192 8186 8187 8186 8193 8194 8193 8182 8191 8187 8193 8186 8192 8190 8190 8196 8193 8190 8189 8198 8195 8194 8198 8206 8210 8190 8196 8193 8203 8210 8205 8185 8169 8184 8198 8199 8200 8197 8200 8196 8197 8193 8198 8190 8189 8194 8186 8189 8193 8193 8183 8188 8181 8179 8187 8185 8186 8189 8187 8187 8191 8186 8185 8184 8186 8186 8184 8179 8177 8178 8180 8175 8181 8185 8180 8185 8188 8194 
8191 8183 8191 8190 8185 8196 8192 8192 8194 8187 8199 8191 8192 8186 8197 8196 8190 8194 8193 8200 8187 8200 8197 8190 8196 8191 8205 8197 8198 8202 8200 8203 8200 8188 8171 8182 8198 8199 8199 8203 8196 8192 8195 8192 8191 8189 8191 8188 8189 8193 8191 8194 8183 8184 8189 8187 8187 8189 8189 8186 8189 8186 8188 8188 8188 8183 8184 8184 8188 8186 8180 8184 8184 8177 8187 8189 8186 8189 8196 8185 
8195 8190 8187 8173 8178 8183 8185 8195 8195 8187 8187 8192 8190 8188 8185 8200 8196 8198 8187 8197 8184 8193 8196 8197 8191 8187 8190 8202 8191 8204 8201 8195 8189 8186 8171 8176 8195 8197 8199 8204 8201 8197 8194 8190 8185 8192 8190 8184 8189 8186 8186 8191 8187 8183 8186 8188 8189 8190 8188 8182 8186 8186 8190 8188 8186 8185 8184 8188 8188 8188 8186 8186 8176 8184 8188 8191 8183 8184 8193 8186 
8193 8195 8186 8196 8197 8196 8176 8196 8182 8194 8186 8183 8196 8198 8186 8192 8191 8195 8184 8193 8192 8198 8192 8197 8191 8193 8195 8204 8198 8186 8191 8158 8176 8189 8169 8171 8187 8194 8200 8203 8196 8197 8195 8187 8184 8197 8182 8190 8191 8182 8185 8187 8188 8186 8187 8187 8186 8191 8181 8189 8189 8187 8192 8191 8185 8185 8186 8195 8189 8190 8182 8179 8185 8182 8190 8188 8184 8186 8184 8202 
8191 8188 8191 8195 8190 8190 8181 8170 8180 8191 8196 8191 8191 8194 8189 8189 8192 8190 8181 8190 8191 8196 8189 8195 8186 8155 8168 8169 8171 8162 8161 8163 8174 8175 8167 8167 8172 8172 8182 8175 8184 8192 8194 8192 8185 8187 8181 8187 8182 8184 8186 8188 8184 8185 8186 8186 8185 8189 8183 8183 8186 8191 8191 8188 8186 8186 8186 8195 8185 8179 8182 8176 8181 8181 8192 8185 8188 8189 8186 8202 
8197 8200 8195 8189 8195 8197 8190 8178 8192 8196 8198 8184 8193 8190 8193 8194 8194 8197 8187 8205 8193 8195 8194 8160 8155 8133 8151 8145 8147 8142 8152 8158 8152 8161 8149 8148 8176 8183 8171 8170 8175 8182 8191 8190 8186 8184 8187 8183 8182 8191 8196 8189 8180 8184 8187 8186 8188 8192 8182 8189 8186 8191 8194 8190 8194 8188 8189 8195 8186 8184 8181 8178 8189 8187 8187 8187 8184 8192 8191 8201 
8198 8184 8193 8198 8194 8194 8182 8197 8199 8189 8193 8190 8198 8190 8194 8196 8194 8199 8191 8188 8195 8192 8192 8150 8139 8134 8147 8155 8155 8135 8163 8148 8154 8163 8147 8143 8166 8174 8167 8155 8171 8184 8185 8185 8193 8188 8186 8188 8187 8190 8196 8189 8180 8181 8183 8185 8190 8191 8188 8191 8187 8188 8188 8195 8194 8185 8187 8194 8191 8187 8190 8190 8190 8184 8193 8184 8188 8187 8198 8202 
8202 8182 8188 8205 8197 8187 8196 8180 8178 8190 8187 8195 8195 8192 8194 8192 8192 8196 8188 8181 8196 8192 8196 8157 8141 8138 8140 8165 8172 8164 8142 8155 8157 8155 8150 8139 8151 8149 8155 8163 8181 8186 8181 8173 8193 8190 8190 8183 8194 8189 8191 8189 8183 8188 8184 8184 8187 8186 8187 8193 8189 8189 8185 8188 8186 8189 8191 8190 8186 8177 8176 8182 8186 8188 8186 8188 8183 8188 8196 8208 
8193 8194 8181 8196 8189 8196 8189 8179 8187 8191 8183 8196 8185 8189 8190 8191 8192 8192 8192 8180 8189 8179 8171 8139 8156 8148 8143 8143 8146 8149 8138 8147 8140 8152 8150 8148 8144 8145 8143 8150 8156 8167 8178 8177 8186 8187 8188 8181 8190 8191 8179 8189 8185 8188 8188 8184 8186 8185 8187 8193 8190 8184 8189 8185 8188 8185 8186 8186 8185 8185 8183 8182 8185 8183 8183 8189 8193 8187 8191 8202 
8200 8201 8196 8199 8201 8181 8193 8191 8185 8190 8182 8190 8193 8186 8190 8190 8192 8193 8191 8185 8185 8180 8162 8138 8136 8147 8160 8159 8142 8147 8145 8151 8143 8148 8149 8149 8135 8138 8138 8138 8140 8156 8168 8183 8176 8184 8191 8183 8194 8196 8180 8188 8182 8189 8191 8188 8188 8190 8196 8196 8193 8189 8191 8188 8192 8192 8191 8179 8180 8184 8184 8183 8182 8188 8189 8194 8195 8191 8198 8213 
8196 8195 8194 8203 8195 8196 8193 8192 8192 8199 8192 8193 8190 8186 8190 8178 8188 8190 8188 8183 8182 8169 8138 8139 8139 8145 8150 8142 8143 8141 8142 8150 8141 8146 8145 8146 8135 8136 8138 8131 8137 8140 8148 8170 8175 8174 8188 8189 8190 8190 8188 8183 8187 8193 8193 8192 8191 8192 8191 8183 8192 8180 8186 8190 8185 8188 8185 8186 8179 8185 8184 8180 8179 8183 8188 8194 8185 8204 8199 8202 
8196 8193 8199 8205 8189 8202 8202 8193 8198 8188 8194 8194 8191 8187 8183 8192 8185 8193 8189 8184 8178 8171 8148 8144 8143 8144 8148 8145 8134 8145 8141 8145 8146 8146 8148 8143 8146 8153 8144 8132 8137 8140 8152 8165 8169 8172 8181 8190 8184 8186 8193 8186 8193 8193 8194 8191 8189 8186 8186 8183 8186 8181 8190 8185 8188 8190 8186 8182 8178 8184 8184 8184 8184 8184 8197 8185 8188 8202 8196 8201 
8200 8200 8197 8209 8200 8207 8195 8197 8204 8189 8197 8188 8185 8194 8188 8192 8189 8184 8187 8181 8174 8157 8158 8144 8147 8156 8153 8149 8139 8134 8139 8144 8146 8152 8147 8137 8145 8148 8141 8138 8145 8145 8146 8149 8171 8174 8184 8187 8184 8191 8191 8183 8186 8185 8193 8185 8185 8181 8183 8179 8180 8187 8194 8187 8191 8184 8190 8189 8183 8181 8185 8186 8184 8192 8190 8181 8200 8193 8197 8205 
8207 8197 8192 8201 8194 8210 8192 8201 8203 8187 8184 8195 8193 8186 8188 8188 8188 8182 8183 8183 8173 8182 8165 8147 8156 8146 8140 8147 8147 8141 8135 8139 8142 8143 8149 8144 8145 8134 8142 8142 8141 8144 8133 8146 8171 8181 8188 8185 8192 8196 8192 8189 8192 8186 8189 8180 8184 8188 8189 8190 8186 8186 8186 8188 8189 8184 8185 8187 8192 8184 8189 8198 8193 8186 8187 8183 8197 8202 8202 8208 
8206 8205 8197 8201 8188 8208 8194 8196 8201 8197 8194 8196 8183 8192 8187 8191 8183 8180 8181 8178 8178 8190 8179 8168 8165 8141 8143 8142 8141 8147 8131 8140 8142 8134 8141 8138 8139 8133 8140 8142 8139 8142 8130 8148 8170 8181 8193 8193 8185 8190 8182 8186 8190 8189 8186 8178 8188 8184 8187 8181 8186 8180 8182 8186 8187 8179 8184 8189 8192 8192 8190 8188 8181 8182 8191 8193 8185 8194 8196 8208 
8211 8193 8211 8205 8202 8206 8189 8201 8201 8198 8197 8198 8186 8194 8191 8184 8185 8191 8190 8178 8182 8188 8184 8170 8169 8149 8146 8153 8145 8141 8134 8146 8124 8139 8147 8138 8139 8145 8142 8144 8140 8140 8142 8148 8175 8184 8193 8191 8185 8189 8187 8184 8192 8191 8190 8181 8186 8186 8180 8181 8187 8179 8183 8187 8189 8189 8191 8194 8194 8199 8201 8196 8183 8194 8204 8188 8193 8200 8193 8209 
8210 8206 8208 8199 8209 8198 8206 8205 8200 8195 8197 8196 8193 8188 8195 8187 8191 8189 8190 8186 8188 8188 8184 8170 8170 8158 8143 8148 8140 8140 8144 8135 8124 8139 8148 8149 8145 8148 8138 8142 8143 8139 8139 8141 8160 8179 8186 8195 8189 8194 8192 8187 8181 8180 8182 8181 8184 8186 8177 8179 8188 8186 8189 8185 8188 8187 8196 8190 8191 8195 8191 8192 8175 8190 8185 8184 8191 8195 8199 8199 
8211 8207 8202 8208 8203 8203 8208 8210 8202 8193 8187 8201 8196 8193 8196 8196 8196 8195 8197 8189 8192 8194 8190 8174 8173 8158 8151 8142 8140 8140 8136 8130 8142 8142 8142 8149 8144 8135 8133 8139 8140 8141 8137 8152 8170 8182 8180 8183 8183 8194 8183 8193 8184 8185 8189 8179 8187 8187 8180 8184 8185 8188 8192 8192 8191 8188 8191 8184 8195 8194 8191 8190 8186 8183 8182 8201 8196 8192 8199 8203 
8220 8209 8210 8202 8203 8202 8207 8198 8201 8190 8194 8200 8200 8194 8191 8193 8195 8185 8197 8192 8187 8189 8193 8180 8173 8158 8155 8149 8142 8143 8134 8134 8137 8140 8134 8140 8132 8131 8128 8136 8141 8143 8150 8158 8183 8189 8192 8188 8187 8187 8178 8186 8185 8183 8188 8182 8181 8191 8187 8189 8189 8189 8194 8181 8196 8194 8200 8184 8184 8186 8187 8194 8188 8198 8194 8196 8191 8189 8194 8193 
8205 8206 8206 8204 8205 8205 8209 8199 8199 8199 8198 8200 8197 8192 8196 8194 8183 8188 8185 8182 8181 8188 8188 8179 8176 8175 8162 8153 8155 8147 8144 8148 8140 8143 8140 8135 8139 8136 8131 8139 8135 8143 8160 8171 8182 8188 8185 8179 8180 8182 8183 8183 8188 8188 8179 8189 8185 8192 8190 8189 8184 8187 8188 8187 8191 8190 8187 8195 8193 8192 8192 8194 8190 8197 8196 8197 8194 8199 8198 8199 
8206 8209 8203 8207 8208 8205 8202 8201 8197 8197 8197 8195 8195 8188 8196 8184 8192 8181 8185 8186 8186 8176 8180 8189 8189 8176 8169 8159 8155 8142 8156 8152 8149 8139 8132 8143 8145 8140 8142 8146 8144 8159 8167 8169 8178 8170 8183 8174 8182 8181 8180 8177 8183 8186 8176 8192 8183 8190 8185 8181 8186 8193 8190 8188 8198 8186 8201 8193 8193 8189 8186 8190 8188 8191 8191 8195 8198 8196 8188 8209 
8209 8212 8218 8208 8207 8206 8208 8198 8198 8199 8199 8187 8192 8188 8189 8183 8182 8183 8189 8176 8183 8167 8182 8185 8182 8175 8183 8174 8165 8150 8151 8152 8147 8136 8146 8155 8154 8146 8160 8157 8164 8162 8166 8173 8177 8179 8177 8181 8176 8179 8180 8184 8186 8186 8186 8188 8189 8191 8198 8188 8186 8191 8193 8184 8196 8189 8193 8196 8191 8195 8188 8183 8184 8189 8194 8195 8194 8186 8201 8204 
8198 8208 8222 8194 8206 8208 8196 8203 8196 8192 8185 8196 8187 8181 8195 8183 8180 8185 8191 8188 8184 8183 8181 8186 8180 8178 8184 8181 8175 8178 8165 8151 8155 8149 8155 8163 8158 8157 8172 8169 8167 8164 8174 8176 8177 8178 8177 8182 8181 8179 8189 8186 8184 8187 8188 8191 8189 8187 8191 8200 8191 8196 8191 8195 8196 8191 8192 8185 8194 8188 8194 8185 8179 8191 8198 8194 8193 8182 8184 8187 
8206 8195 8214 8193 8203 8204 8184 8195 8196 8196 8187 8194 8191 8190 8199 8190 8181 8188 8189 8188 8189 8182 8183 8188 8194 8187 8186 8188 8185 8178 8171 8178 8176 8171 8175 8183 8181 8176 8165 8166 8162 8168 8183 8174 8179 8176 8182 8186 8183 8191 8187 8188 8185 8193 8195 8199 8189 8191 8191 8196 8189 8198 8195 8202 8199 8199 8195 8188 8196 8184 8194 8193 8183 8193 8188 8198 8195 8197 8191 8201 
8211 8204 8201 8193 8188 8200 8196 8196 8198 8195 8195 8191 8187 8195 8187 8186 8184 8193 8182 8171 8186 8177 8188 8188 8186 8184 8178 8183 8181 8177 8172 8172 8173 8161 8174 8176 8173 8172 8159 8160 8163 8174 8181 8181 8180 8187 8181 8182 8189 8196 8189 8188 8182 8191 8192 8195 8188 8188 8192 8198 8189 8203 8198 8198 8205 8202 8200 8183 8190 8188 8186 8197 8189 8185 8198 8190 8195 8195 8196 8197 
8209 8205 8211 8198 8206 8199 8198 8198 8197 8199 8188 8200 8199 8204 8182 8185 8184 8183 8181 8187 8189 8174 8184 8193 8193 8186 8183 8184 8189 8176 8176 8173 8171 8168 8165 8168 8161 8163 8167 8173 8180 8178 8180 8188 8189 8193 8186 8194 8182 8182 8195 8188 8199 8203 8199 8196 8198 8194 8202 8206 8204 8205 8199 8204 8201 8202 8189 8185 8189 8192 8197 8192 8190 8195 8198 8188 8195 8196 8186 8192 
8207 8218 8204 8192 8198 8197 8198 8179 8203 8203 8194 8190 8197 8196 8190 8187 8188 8195 8179 8190 8184 8177 8184 8187 8177 8194 8186 8185 8182 8185 8186 8180 8185 8173 8164 8158 8168 8172 8176 8184 8176 8193 8182 8193 8189 8187 8197 8192 8188 8181 8193 8173 8191 8196 8201 8197 8196 8193 8197 8193 8200 8199 8202 8205 8202 8203 8193 8197 8194 8192 8189 8186 8189 8186 8183 8197 8198 8186 8191 8194 
8208 8203 8202 8203 8199 8197 8202 8197 8193 8192 8193 8187 8198 8194 8190 8199 8196 8189 8188 8189 8187 8191 8192 8196 8190 8192 8195 8193 8191 8188 8190 8184 8186 8191 8189 8189 8184 8177 8182 8179 8187 8187 8187 8193 8181 8188 8192 8195 8187 8187 8194 8185 8189 8185 8200 8200 8201 8191 8203 8198 8202 8202 8192 8207 8196 8205 8201 8196 8196 8197 8195 8185 8197 8194 8183 8192 8194 8189 8188 8195 
8214 8213 8182 8203 8199 8199 8206 8200 8192 8191 8189 8199 8197 8199 8193 8196 8197 8189 8189 8182 8192 8191 8189 8192 8185 8186 8182 8187 8189 8191 8189 8190 8191 8190 8189 8195 8186 8189 8185 8178 8188 8179 8183 8187 8189 8190 8184 8194 8187 8191 8193 8190 8199 8195 8194 8202 8200 8198 8199 8196 8196 8198 8190 8197 8199 8195 8194 8188 8191 8191 8194 8184 8195 8190 8190 8187 8189 8193 8191 8191 
8203 8214 8205 8203 8196 8203 8199 8200 8206 8204 8205 8195 8203 8177 8192 8203 8194 8194 8191 8189 8198 8181 8186 8198 8197 8192 8187 8186 8191 8194 8194 8199 8194 8201 8198 8198 8186 8184 8184 8182 8195 8198 8192 8188 8190 8185 8194 8193 8196 8195 8203 8190 8197 8192 8200 8198 8196 8203 8196 8191 8194 8201 8190 8201 8201 8202 8200 8185 8195 8192 8191 8200 8192 8188 8195 8198 8191 8190 8191 8190 
8214 8199 8212 8209 8201 8205 8213 8203 8208 8183 8197 8197 8198 8189 8193 8192 8195 8189 8188 8187 8193 8185 8195 8189 8198 8197 8192 8190 8190 8191 8199 8193 8204 8190 8202 8195 8199 8198 8190 8188 8201 8201 8196 8189 8182 8189 8197 8194 8189 8198 8195 8193 8200 8200 8197 8201 8196 8200 8191 8178 8196 8203 8201 8203 8192 8203 8198 8176 8196 8177 8194 8187 8194 8192 8197 8203 8189 8183 8191 8195 
8210 8205 8211 8207 8200 8209 8216 8199 8205 8197 8201 8205 8204 8200 8190 8192 8192 8196 8200 8189 8176 8193 8200 8192 8197 8198 8198 8200 8189 8184 8200 8197 8205 8195 8204 8195 8199 8198 8187 8196 8195 8202 8191 8192 8189 8198 8192 8204 8191 8183 8194 8205 8200 8196 8196 8195 8197 8204 8199 8190 8196 8201 8203 8202 8189 8193 8195 8196 8195 8196 8192 8195 8201 8200 8198 8200 8197 8195 8187 8195 
8211 8193 8201 8197 8210 8199 8212 8194 8199 8199 8203 8195 8196 8202 8196 8204 8196 8189 8202 8181 8188 8190 8190 8196 8189 8192 8190 8189 8196 8196 8202 8198 8195 8200 8202 8197 8195 8204 8197 8204 8197 8202 8201 8183 8195 8194 8206 8201 8199 8198 8194 8203 8199 8200 8169 8201 8201 8197 8188 8178 8196 8198 8193 8194 8185 8193 8198 8194 8196 8205 8193 8191 8201 8201 8198 8185 8194 8186 8187 8189 
8208 8208 8198 8204 8202 8202 8195 8209 8184 8190 8201 8198 8204 8204 8198 8190 8191 8194 8198 8187 8190 8193 8204 8197 8180 8201 8198 8195 8200 8207 8185 8212 8199 8195 8207 8193 8200 8199 8205 8205 8202 8199 8200 8191 8196 8196 8191 8198 8205 8195 8198 8198 8204 8198 8200 8204 8199 8197 8183 8199 8197 8201 8195 8185 8184 8197 8199 8190 8206 8192 8199 8198 8191 8184 8197 8198 8197 8194 8191 8192 
8205 8202 8200 8207 8203 8192 8193 8214 8205 8198 8187 8190 8191 8198 8199 8173 8192 8202 8195 8194 8184 8192 8192 8194 8195 8200 8202 8203 8203 8192 8200 8209 8201 8199 8207 8201 8206 8199 8195 8205 8197 8199 8190 8203 8195 8195 8196 8197 8186 8195 8183 8203 8187 8205 8207 8196 8200 8201 8206 8198 8193 8198 8197 8178 8188 8201 8188 8187 8201 8186 8198 8202 8195 8207 8195 8191 8185 8185 8196 8190 
8197 8199 8206 8200 8201 8203 8204 8207 8190 8205 8192 8199 8188 8200 8196 8195 8198 8203 8194 8188 8193 8196 8195 8200 8206 8198 8204 8203 8197 8194 8206 8201 8195 8208 8210 8202 8209 8207 8204 8202 8201 8202 8196 8198 8198 8202 8200 8197 8205 8198 8200 8204 8200 8187 8209 8199 8201 8195 8192 8191 8201 8199 8197 8187 8190 8194 8183 8196 8198 8190 8193 8204 8200 8206 8193 8188 8187 8181 8198 8189 
8204 8210 8195 8200 8191 8194 8203 8205 8190 8207 8190 8204 8196 8207 8195 8190 8194 8193 8196 8194 8195 8197 8193 8198 8208 8195 8200 8199 8201 8195 8197 8194 8199 8204 8206 8201 8206 8209 8203 8204 8202 8196 8206 8198 8197 8200 8189 8202 8201 8204 8200 8206 8196 8187 8205 8194 8203 8187 8186 8193 8197 8189 8179 8184 8190 8174 8185 8175 8189 8197 8197 8192 8191 8196 8187 8198 8180 8182 8192 8188 
8202 8208 8209 8200 8200 8198 8210 8202 8188 8207 8202 8197 8209 8196 8197 8197 8198 8195 8187 8187 8202 8199 8195 8200 8200 8171 8199 8198 8203 8201 8192 8202 8213 8199 8212 8207 8205 8206 8201 8204 8208 8208 8203 8205 8200 8204 8182 8200 8209 8200 8204 8198 8203 8201 8201 8199 8202 8200 8195 8196 8191 8186 8184 8186 8196 8184 8179 8190 8196 8183 8200 8199 8201 8199 8197 8191 8181 8184 8185 8181 
8190 8190 8206 8194 8189 8186 8204 8187 8198 8207 8202 8189 8201 8198 8197 8187 8183 8202 8188 8192 8201 8195 8197 8200 8200 8186 8169 8200 8205 8206 8206 8198 8210 8202 8205 8211 8208 8207 8195 8202 8198 8208 8198 8197 8201 8191 8198 8196 8197 8203 8196 8202 8183 8195 8202 8197 8193 8198 8188 8188 8184 8178 8188 8184 8172 8194 8182 8194 8184 8187 8196 8197 8191 8193 8190 8181 8187 8178 8180 8183 
8206 8208 8208 8167 8198 8194 8207 8189 8202 8197 8196 8191 8193 8198 8203 8199 8186 8200 8197 8196 8188 8193 8191 8195 8212 8195 8203 8201 8203 8199 8199 8204 8207 8203 8188 8200 8200 8192 8198 8205 8206 8196 8183 8198 8198 8190 8199 8199 8194 8193 8196 8199 8188 8191 8199 8193 8195 8192 8187 8188 8182 8188 8190 8180 8183 8185 8182 8192 8191 8184 8192 8184 8191 8183 8186 8184 8185 8169 8185 8173 
8208 8197 8188 8193 8193 8189 8181 8205 8209 8196 8203 8189 8177 8204 8194 8179 8172 8188 8192 8182 8204 8175 8189 8192 8212 8199 8204 8202 8197 8197 8206 8188 8195 8207 8195 8203 8200 8203 8196 8204 8201 8196 8188 8181 8186 8185 8197 8194 8193 8193 8194 8189 8189 8192 8190 8191 8196 8196 8197 8187 8192 8182 8179 8176 8180 8180 8180 8192 8192 8195 8186 8190 8192 8180 8190 8187 8186 8164 8171 8178 
8206 8202 8196 8185 8200 8192 8184 8203 8203 8201 8193 8179 8202 8195 8199 8192 8192 8197 8186 8189 8192 8194 8197 8191 8205 8200 8204 8205 8199 8195 8183 8195 8200 8205 8208 8205 8190 8207 8198 8191 8204 8206 8197 8191 8185 8187 8202 8200 8197 8202 8189 8188 8190 8192 8194 8190 8188 8193 8198 8190 8188 8175 8180 8180 8184 8178 8187 8193 8187 8193 8184 8191 8194 8192 8181 8178 8157 8179 8175 8170 


