P2
80 60
8344
8255 8241 8257 8258 8267 8257 8252 8252 8258 8249 8254 8262 8254 8252 8248 8254 8252 8242 8252 8251 8254 8263 8260 8244 8248 8263 8254 8252 8254 8254 8256 8255 8254 8258 8251 8248 8250 8251 8257 8252 8254 8250 8244 8234 8241 8247 8244 8247 8252 8257 8248 8248 8241 8237 8236 8239 8238 8236 8240 8243 8246 8237 8240 8239 8247 8246 8244 8245 8245 8249 8246 8245 8245 8247 8249 8251 8245 8245 8251 8248 
8259 8254 8266 8257 8265 8261 8249 8252 8248 8262 8253 8258 8252 8252 8241 8249 8246 8245 8248 8256 8260 8262 8260 8248 8256 8250 8242 8245 8252 8242 8254 8253 8250 8251 8243 8243 8241 8254 8257 8254 8251 8244 8241 8238 8242 8241 8245 8243 8248 8256 8244 8250 8244 8240 8238 8245 8238 8236 8240 8241 8244 8241 8245 8237 8240 8240 8243 8244 8245 8248 8245 8237 8245 8248 8247 8240 8243 8239 8245 8248 
8244 8242 8250 8245 8261 8247 8244 8255 8249 8251 8255 8253 8243 8250 8246 8243 8253 8248 8248 8258 8253 8255 8255 8248 8250 8256 8246 8247 8249 8238 8244 8246 8241 8257 8247 8242 8240 8256 8256 8250 8247 8239 8235 8239 8242 8242 8241 8244 8245 8249 8244 8238 8236 8246 8248 8242 8237 8242 8242 8230 8243 8244 8235 8240 8243 8241 8241 8243 8244 8247 8242 8238 8239 8240 8237 8232 8241 8236 8236 8241 
8265 8237 8263 8242 8263 8246 8254 8255 8258 8256 8247 8239 8248 8249 8242 8246 8248 8249 8250 8251 8252 8249 8235 8254 8255 8253 8251 8250 8252 8254 8242 8248 8249 8248 8253 8239 8253 8251 8250 8249 8247 8236 8240 8231 8239 8235 8242 8245 8248 8248 8249 8241 8246 8239 8241 8245 8236 8236 8238 8232 8242 8247 8233 8241 8235 8235 8239 8242 8245 8246 8235 8241 8241 8241 8238 8228 8239 8231 8231 8236 
8260 8237 8261 8244 8254 8257 8255 8245 8246 8252 8247 8244 8242 8245 8239 8246 8244 8242 8252 8248 8253 8252 8240 8242 8248 8250 8245 8244 8242 8251 8245 8250 8248 8244 8246 8243 8249 8246 8249 8243 8245 8241 8230 8228 8231 8233 8234 8242 8243 8252 8245 8243 8239 8240 8243 8244 8233 8240 8241 8240 8242 8246 8239 8242 8236 8236 8233 8233 8246 8245 8236 8243 8236 8240 8229 8231 8235 8226 8225 8229 
8265 8248 8250 8248 8252 8247 8259 8254 8249 8254 8237 8247 8247 8239 8237 8240 8243 8234 8249 8255 8253 8248 8253 8240 8253 8252 8247 8242 8243 8245 8253 8249 8242 8242 8243 8244 8245 8247 8244 8248 8241 8239 8245 8228 8235 8236 8234 8242 8241 8249 8246 8244 8245 8245 8240 8247 8244 8245 8242 8244 8243 8244 8239 8241 8234 8240 8238 8235 8240 8243 8238 8234 8244 8230 8225 8228 8230 8221 8222 8226 
8264 8251 8255 8262 8257 8247 8263 8259 8250 8239 8232 8256 8248 8234 8241 8242 8232 8236 8247 8257 8245 8251 8252 8247 8255 8248 8236 8238 8243 8249 8248 8248 8240 8245 8240 8244 8239 8238 8244 8243 8241 8230 8235 8230 8234 8233 8237 8240 8241 8250 8244 8236 8240 8243 8240 8246 8237 8232 8242 8242 8235 8240 8238 8236 8235 8238 8242 8247 8233 8229 8243 8243 8238 8230 8230 8231 8229 8219 8228 8230 
8269 8254 8246 8263 8253 8254 8256 8260 8256 8227 8250 8255 8245 8237 8243 8243 8240 8241 8242 8244 8255 8251 8248 8252 8251 8250 8228 8239 8240 8248 8249 8248 8245 8246 8243 8242 8232 8189 8215 8226 8210 8193 8204 8209 8212 8224 8230 8234 8240 8242 8242 8236 8243 8236 8237 8241 8239 8241 8236 8239 8231 8238 8237 8239 8234 8243 8242 8247 8235 8235 8232 8234 8240 8230 8234 8232 8226 8230 8230 8230 
8272 8248 8252 8254 8257 8249 8260 8253 8254 8239 8246 8244 8239 8240 8234 8239 8237 8235 8246 8252 8252 8237 8242 8243 8237 8249 8232 8236 8237 8240 8242 8238 8236 8237 8238 8236 8225 8162 8162 8160 8150 8144 8146 8145 8155 8177 8202 8224 8234 8239 8235 8234 8239 8236 8238 8235 8239 8234 8233 8235 8232 8233 8233 8234 8234 8235 8234 8245 8236 8239 8230 8230 8227 8230 8227 8232 8232 8228 8226 8230 
8272 8241 8252 8259 8252 8255 8243 8256 8252 8252 8243 8245 8242 8241 8237 8231 8240 8235 8251 8256 8245 8240 8242 8239 8231 8242 8236 8237 8235 8235 8237 8232 8228 8229 8230 8227 8189 8207 8165 8148 8143 8142 8145 8127 8133 8149 8155 8193 8225 8235 8234 8241 8236 8235 8240 8228 8239 8238 8233 8237 8234 8234 8239 8236 8236 8235 8233 8237 8234 8242 8238 8238 8238 8231 8231 8221 8230 8227 8229 8229 
8270 8240 8250 8249 8247 8252 8232 8249 8250 8239 8247 8242 8240 8240 8232 8232 8240 8229 8230 8243 8244 8240 8243 8239 8233 8230 8233 8236 8235 8236 8233 8220 8200 8167 8143 8143 8156 8204 8196 8140 8145 8136 8130 8142 8138 8146 8149 8153 8178 8221 8234 8233 8235 8238 8235 8227 8237 8235 8238 8236 8235 8233 8235 8228 8228 8233 8241 8236 8231 8235 8233 8237 8228 8226 8228 8221 8223 8220 8221 8229 
8263 8257 8253 8249 8242 8248 8240 8251 8252 8238 8250 8236 8241 8240 8234 8234 8235 8228 8234 8251 8251 8247 8234 8235 8231 8222 8212 8210 8221 8225 8222 8189 8113 8110 8109 8123 8159 8187 8160 8128 8134 8141 8131 8140 8136 8140 8143 8145 8155 8194 8239 8240 8237 8236 8234 8233 8237 8229 8237 8233 8232 8235 8230 8230 8225 8229 8238 8234 8231 8232 8234 8229 8232 8230 8217 8220 8233 8225 8221 8224 
8265 8246 8237 8236 8234 8247 8249 8235 8242 8243 8241 8237 8234 8232 8237 8238 8232 8235 8237 8239 8238 8239 8227 8208 8173 8141 8117 8122 8130 8162 8146 8109 8094 8108 8102 8111 8130 8137 8120 8120 8126 8132 8140 8137 8135 8136 8136 8141 8146 8170 8231 8237 8233 8238 8241 8230 8238 8230 8238 8234 8232 8232 8232 8227 8228 8230 8236 8234 8236 8222 8223 8227 8228 8227 8222 8227 8236 8223 8222 8226 
8263 8256 8252 8251 8251 8247 8247 8248 8235 8245 8248 8245 8238 8235 8237 8230 8239 8236 8239 8244 8235 8227 8206 8183 8201 8209 8202 8162 8108 8110 8118 8098 8109 8118 8113 8122 8115 8123 8115 8122 8127 8128 8137 8135 8135 8135 8137 8143 8147 8159 8215 8237 8239 8236 8239 8232 8235 8235 8236 8235 8233 8230 8233 8227 8235 8235 8233 8232 8235 8233 8232 8236 8231 8233 8219 8230 8231 8233 8224 8227 
8270 8240 8251 8253 8250 8248 8241 8251 8239 8239 8244 8246 8240 8239 8239 8236 8236 8229 8238 8238 8191 8152 8158 8208 8218 8215 8185 8145 8126 8114 8102 8101 8113 8121 8114 8110 8100 8106 8110 8117 8118 8121 8127 8133 8131 8130 8126 8135 8144 8155 8207 8235 8231 8237 8235 8238 8234 8237 8235 8232 8233 8226 8227 8232 8233 8236 8235 8231 8233 8227 8231 8233 8233 8233 8224 8227 8227 8224 8229 8227 
8271 8228 8242 8250 8250 8240 8241 8242 8242 8244 8247 8239 8237 8231 8239 8237 8235 8220 8230 8229 8186 8137 8127 8178 8167 8142 8148 8168 8164 8123 8113 8117 8121 8124 8106 8104 8104 8115 8135 8132 8132 8119 8126 8134 8131 8133 8126 8138 8141 8155 8215 8233 8235 8234 8232 8236 8233 8232 8232 8234 8233 8222 8230 8228 8236 8234 8230 8232 8228 8229 8231 8228 8231 8230 8229 8229 8230 8228 8225 8230 
8266 8233 8241 8258 8249 8242 8242 8238 8243 8243 8240 8241 8231 8229 8224 8236 8205 8166 8143 8166 8129 8121 8115 8113 8116 8121 8152 8177 8175 8129 8127 8150 8140 8111 8102 8108 8104 8114 8147 8142 8123 8101 8114 8122 8130 8134 8131 8136 8145 8169 8229 8236 8233 8229 8227 8233 8227 8228 8229 8231 8231 8220 8225 8228 8236 8230 8230 8234 8230 8226 8224 8224 8229 8232 8228 8228 8227 8227 8227 8228 
8268 8242 8247 8240 8244 8248 8242 8246 8239 8241 8236 8223 8233 8235 8236 8216 8201 8158 8127 8129 8130 8127 8118 8102 8102 8112 8113 8107 8111 8143 8121 8114 8104 8110 8121 8122 8121 8110 8118 8143 8146 8115 8135 8141 8130 8138 8140 8137 8150 8199 8228 8233 8229 8232 8226 8235 8228 8228 8229 8232 8230 8227 8232 8234 8234 8232 8235 8235 8233 8230 8224 8230 8236 8231 8229 8229 8226 8224 8227 8226 
8265 8238 8248 8246 8247 8243 8247 8248 8244 8205 8180 8164 8193 8181 8190 8183 8136 8137 8131 8130 8125 8136 8117 8099 8104 8122 8117 8100 8105 8114 8121 8111 8104 8129 8152 8168 8119 8116 8101 8109 8118 8137 8167 8120 8120 8133 8136 8141 8136 8181 8225 8228 8226 8229 8223 8225 8231 8229 8228 8228 8224 8225 8232 8232 8229 8225 8232 8226 8229 8228 8226 8227 8232 8226 8228 8228 8226 8226 8224 8228 
8264 8238 8249 8250 8245 8252 8247 8245 8224 8152 8158 8155 8148 8134 8145 8131 8119 8129 8122 8130 8118 8118 8115 8104 8115 8116 8120 8106 8106 8112 8126 8114 8107 8121 8119 8128 8124 8122 8125 8133 8127 8123 8124 8122 8134 8132 8139 8133 8136 8148 8187 8218 8208 8217 8229 8228 8230 8231 8230 8224 8226 8223 8234 8234 8234 8224 8226 8228 8229 8230 8229 8231 8230 8223 8227 8227 8228 8224 8228 8228 
8264 8251 8241 8229 8235 8240 8235 8244 8236 8164 8151 8157 8148 8163 8196 8172 8139 8135 8119 8131 8109 8107 8123 8120 8121 8120 8118 8125 8114 8118 8128 8127 8126 8131 8130 8132 8131 8127 8130 8133 8133 8122 8124 8134 8140 8134 8140 8154 8139 8138 8141 8159 8156 8169 8215 8229 8227 8229 8226 8221 8224 8225 8228 8231 8227 8229 8229 8232 8232 8229 8227 8230 8226 8228 8227 8226 8224 8223 8228 8228 
8267 8249 8243 8254 8249 8246 8221 8241 8225 8185 8147 8142 8151 8175 8154 8141 8139 8128 8113 8119 8126 8143 8133 8136 8123 8134 8135 8145 8137 8135 8141 8132 8140 8145 8142 8138 8133 8134 8132 8134 8128 8127 8128 8121 8122 8126 8128 8153 8160 8149 8137 8145 8153 8161 8181 8203 8220 8226 8222 8223 8224 8224 8230 8228 8227 8230 8227 8234 8231 8226 8228 8225 8226 8222 8228 8227 8223 8222 8224 8230 
8262 8242 8246 8251 8244 8233 8207 8187 8203 8166 8153 8149 8147 8146 8133 8151 8136 8166 8159 8137 8139 8148 8140 8146 8146 8142 8143 8140 8147 8148 8150 8139 8145 8145 8142 8141 8138 8137 8128 8120 8116 8122 8123 8124 8117 8120 8117 8134 8185 8206 8186 8155 8153 8163 8163 8169 8182 8216 8218 8217 8225 8224 8229 8223 8227 8228 8226 8232 8228 8224 8225 8222 8225 8220 8226 8225 8227 8226 8227 8228 
8264 8249 8248 8245 8244 8213 8159 8134 8153 8148 8152 8150 8149 8142 8149 8173 8161 8165 8151 8160 8149 8145 8154 8149 8149 8143 8147 8141 8146 8143 8147 8151 8149 8152 8141 8142 8145 8146 8126 8119 8129 8127 8124 8121 8119 8117 8121 8126 8165 8221 8218 8173 8151 8156 8164 8170 8176 8187 8206 8221 8221 8222 8231 8228 8230 8230 8229 8234 8226 8227 8224 8221 8227 8224 8227 8223 8222 8224 8229 8227 
8263 8236 8244 8249 8230 8161 8139 8149 8158 8150 8155 8155 8151 8144 8158 8204 8211 8189 8150 8147 8151 8151 8159 8148 8147 8147 8147 8147 8151 8144 8154 8152 8153 8155 8144 8143 8150 8145 8133 8131 8134 8135 8127 8119 8121 8117 8122 8123 8145 8179 8167 8144 8133 8141 8149 8165 8174 8178 8199 8224 8216 8223 8223 8229 8229 8226 8228 8233 8228 8226 8228 8228 8228 8225 8224 8224 8221 8220 8228 8230 
8266 8232 8238 8249 8204 8147 8153 8160 8198 8194 8183 8177 8147 8143 8146 8195 8213 8195 8154 8141 8156 8148 8154 8147 8146 8140 8146 8152 8151 8153 8146 8152 8149 8154 8150 8148 8151 8151 8142 8131 8135 8140 8135 8127 8126 8120 8121 8125 8137 8140 8132 8129 8126 8136 8135 8153 8168 8175 8182 8216 8223 8216 8220 8221 8223 8225 8228 8232 8224 8222 8219 8223 8225 8224 8221 8224 8221 8223 8225 8231 
8259 8241 8231 8234 8171 8151 8170 8212 8230 8224 8212 8205 8149 8142 8140 8169 8211 8199 8158 8137 8144 8141 8148 8166 8156 8143 8150 8151 8151 8152 8145 8153 8146 8153 8149 8150 8147 8150 8137 8131 8134 8136 8136 8132 8122 8127 8122 8126 8140 8143 8130 8136 8129 8136 8137 8144 8154 8178 8183 8198 8221 8215 8228 8223 8223 8224 8225 8226 8224 8225 8220 8221 8224 8223 8223 8222 8230 8224 8225 8230 
8257 8246 8244 8219 8167 8162 8217 8230 8229 8236 8228 8222 8166 8145 8142 8144 8197 8181 8143 8137 8142 8144 8158 8165 8147 8153 8152 8156 8148 8145 8150 8170 8153 8151 8148 8146 8146 8143 8133 8131 8131 8137 8137 8137 8121 8124 8127 8128 8137 8143 8133 8137 8135 8136 8140 8143 8149 8175 8193 8200 8218 8224 8226 8225 8230 8228 8228 8218 8222 8225 8224 8223 8224 8226 8223 8229 8230 8222 8227 8230 
8254 8236 8234 8200 8164 8210 8230 8235 8234 8240 8236 8236 8191 8147 8144 8133 8146 8141 8140 8136 8144 8146 8162 8155 8155 8154 8155 8158 8156 8152 8149 8157 8158 8155 8151 8150 8151 8138 8132 8128 8129 8141 8162 8158 8136 8119 8144 8174 8140 8139 8136 8139 8177 8157 8146 8151 8153 8162 8192 8185 8209 8213 8226 8227 8228 8229 8226 8220 8216 8225 8222 8223 8221 8220 8222 8225 8222 8230 8230 8233 
8252 8234 8220 8180 8195 8236 8240 8234 8238 8228 8237 8235 8215 8156 8141 8143 8147 8189 8167 8142 8147 8147 8149 8159 8156 8155 8155 8155 8142 8152 8150 8147 8153 8150 8150 8151 8147 8139 8133 8141 8139 8137 8176 8193 8182 8150 8193 8203 8149 8137 8139 8142 8172 8167 8151 8153 8155 8155 8182 8190 8201 8210 8227 8224 8228 8231 8227 8220 8216 8221 8220 8222 8225 8220 8227 8220 8223 8228 8227 8230 
8255 8234 8192 8189 8233 8243 8234 8238 8241 8228 8238 8233 8220 8179 8147 8145 8144 8181 8173 8148 8148 8143 8153 8159 8157 8153 8154 8156 8141 8142 8145 8148 8144 8150 8146 8154 8163 8138 8133 8152 8173 8161 8149 8157 8190 8199 8207 8206 8160 8143 8141 8143 8149 8146 8152 8149 8150 8152 8190 8195 8195 8218 8228 8227 8228 8225 8227 8227 8220 8218 8218 8224 8221 8227 8228 8223 8230 8226 8227 8229 
8256 8206 8173 8218 8231 8243 8230 8236 8242 8231 8227 8235 8224 8198 8146 8141 8143 8151 8162 8158 8148 8154 8154 8153 8156 8146 8154 8155 8149 8145 8143 8143 8141 8134 8134 8144 8147 8132 8165 8207 8212 8209 8197 8166 8156 8192 8209 8212 8183 8146 8141 8141 8154 8150 8150 8147 8149 8162 8201 8214 8205 8217 8221 8224 8226 8224 8226 8221 8223 8219 8221 8225 8227 8220 8222 8222 8226 8226 8225 8227 
8249 8183 8195 8238 8234 8242 8232 8232 8241 8234 8226 8232 8215 8212 8161 8141 8141 8136 8150 8153 8149 8159 8153 8156 8153 8149 8160 8155 8152 8153 8141 8145 8140 8122 8118 8121 8122 8152 8206 8214 8214 8214 8209 8210 8185 8168 8198 8214 8193 8150 8143 8144 8152 8158 8154 8148 8156 8169 8206 8215 8218 8214 8216 8223 8224 8224 8223 8225 8226 8224 8225 8219 8220 8221 8224 8226 8221 8221 8223 8228 
8232 8174 8230 8248 8244 8243 8230 8235 8236 8229 8206 8189 8187 8198 8174 8138 8138 8139 8152 8155 8158 8160 8151 8147 8151 8156 8158 8160 8158 8152 8150 8151 8135 8124 8123 8125 8125 8156 8198 8217 8217 8214 8216 8218 8217 8199 8172 8206 8209 8164 8149 8148 8153 8158 8160 8158 8161 8184 8211 8216 8219 8214 8218 8224 8226 8225 8225 8225 8227 8228 8227 8226 8220 8225 8224 8219 8223 8222 8222 8229 
8215 8193 8243 8244 8247 8236 8239 8242 8234 8204 8156 8143 8146 8144 8182 8152 8145 8139 8148 8157 8158 8157 8151 8147 8154 8158 8158 8158 8156 8156 8155 8149 8134 8130 8128 8128 8131 8138 8154 8208 8215 8215 8219 8216 8218 8213 8187 8212 8217 8201 8157 8151 8149 8150 8161 8163 8171 8197 8212 8216 8219 8222 8223 8223 8222 8224 8225 8222 8229 8228 8226 8227 8219 8226 8225 8222 8224 8221 8224 8228 
8210 8200 8240 8249 8244 8236 8244 8240 8217 8155 8139 8149 8149 8154 8206 8179 8150 8146 8151 8144 8162 8160 8158 8148 8158 8152 8154 8154 8155 8156 8151 8142 8142 8138 8132 8136 8136 8142 8150 8208 8216 8213 8215 8213 8215 8212 8208 8214 8215 8205 8156 8161 8155 8156 8162 8158 8183 8216 8215 8218 8221 8223 8227 8224 8225 8220 8226 8221 8225 8226 8225 8226 8221 8222 8220 8231 8223 8221 8222 8226 
8210 8225 8247 8247 8240 8239 8242 8225 8181 8142 8143 8156 8158 8189 8206 8177 8156 8148 8155 8151 8153 8158 8162 8153 8158 8152 8159 8155 8153 8153 8148 8140 8140 8142 8143 8141 8143 8142 8173 8210 8216 8213 8217 8212 8217 8217 8217 8220 8218 8193 8152 8161 8160 8157 8163 8177 8209 8223 8219 8220 8223 8223 8224 8219 8227 8225 8225 8221 8218 8223 8220 8226 8225 8228 8227 8228 8225 8221 8226 8229 
8215 8235 8244 8247 8244 8242 8239 8206 8160 8153 8156 8162 8186 8204 8168 8158 8157 8150 8149 8148 8150 8155 8162 8155 8152 8156 8158 8154 8154 8154 8150 8154 8165 8165 8190 8182 8162 8153 8197 8210 8213 8212 8215 8214 8214 8217 8213 8214 8215 8175 8160 8162 8164 8168 8191 8217 8220 8222 8219 8218 8214 8219 8220 8219 8223 8227 8222 8226 8224 8227 8225 8227 8226 8230 8229 8229 8225 8224 8225 8227 
8250 8248 8244 8248 8244 8240 8234 8203 8161 8158 8162 8186 8209 8171 8179 8204 8205 8157 8153 8155 8157 8149 8153 8162 8160 8154 8153 8151 8153 8146 8160 8169 8180 8161 8175 8181 8182 8179 8185 8192 8187 8193 8198 8198 8202 8203 8209 8206 8205 8163 8160 8159 8183 8206 8212 8223 8220 8220 8217 8211 8215 8219 8218 8222 8224 8222 8226 8228 8221 8222 8221 8220 8224 8224 8227 8227 8226 8223 8228 8230 
8260 8253 8259 8247 8245 8244 8242 8207 8166 8168 8190 8206 8175 8190 8220 8218 8211 8169 8159 8154 8157 8148 8152 8157 8152 8153 8153 8153 8152 8149 8160 8167 8169 8163 8164 8173 8168 8171 8172 8173 8171 8171 8180 8179 8185 8185 8180 8191 8172 8158 8172 8201 8216 8216 8221 8223 8223 8222 8222 8216 8215 8216 8221 8216 8224 8222 8225 8227 8222 8226 8219 8219 8221 8226 8230 8229 8226 8217 8225 8225 
8257 8249 8255 8239 8243 8245 8238 8228 8180 8182 8208 8180 8191 8221 8234 8206 8176 8168 8165 8163 8162 8160 8161 8155 8150 8147 8153 8152 8143 8156 8174 8170 8171 8167 8169 8179 8175 8173 8174 8172 8174 8183 8190 8184 8188 8194 8194 8194 8168 8178 8197 8214 8215 8218 8221 8224 8220 8219 8219 8219 8218 8222 8220 8223 8225 8221 8223 8222 8222 8223 8222 8219 8221 8228 8228 8230 8223 8217 8222 8225 
8258 8245 8250 8235 8242 8243 8230 8233 8220 8219 8200 8206 8234 8233 8236 8219 8179 8170 8168 8164 8164 8165 8161 8160 8153 8151 8150 8152 8150 8148 8169 8171 8164 8170 8169 8173 8168 8168 8165 8173 8172 8183 8191 8187 8193 8203 8205 8199 8192 8202 8212 8219 8216 8220 8225 8227 8222 8220 8217 8219 8217 8224 8221 8227 8226 8226 8225 8220 8220 8224 8224 8226 8221 8227 8225 8232 8229 8228 8224 8227 
8265 8244 8245 8239 8234 8241 8239 8238 8238 8227 8214 8234 8236 8241 8230 8224 8188 8174 8167 8166 8171 8164 8168 8171 8174 8174 8166 8170 8164 8147 8157 8162 8158 8157 8157 8163 8162 8167 8164 8169 8170 8178 8188 8185 8187 8196 8192 8198 8204 8213 8219 8217 8217 8221 8224 8225 8221 8218 8217 8219 8222 8224 8224 8225 8227 8227 8226 8217 8220 8222 8222 8227 8227 8226 8232 8230 8229 8229 8221 8227 
8263 8247 8247 8238 8244 8238 8240 8240 8241 8227 8232 8243 8244 8245 8231 8227 8197 8171 8168 8174 8171 8163 8170 8182 8206 8209 8209 8207 8198 8174 8168 8171 8173 8173 8169 8174 8173 8179 8178 8179 8185 8183 8188 8194 8197 8201 8202 8207 8205 8208 8221 8221 8224 8225 8227 8223 8221 8220 8221 8222 8226 8227 8226 8227 8225 8230 8221 8220 8219 8224 8226 8225 8228 8231 8228 8230 8232 8227 8223 8225 
8261 8254 8248 8238 8243 8240 8242 8233 8243 8243 8242 8238 8241 8244 8237 8230 8208 8184 8172 8174 8173 8167 8172 8179 8187 8210 8210 8204 8191 8176 8174 8174 8175 8178 8183 8191 8181 8184 8185 8186 8186 8191 8190 8200 8202 8206 8211 8210 8210 8211 8218 8215 8216 8220 8227 8223 8223 8222 8220 8222 8222 8222 8226 8227 8226 8229 8221 8226 8226 8224 8224 8225 8227 8226 8227 8231 8229 8225 8225 8227 
8264 8245 8243 8245 8241 8241 8245 8239 8240 8241 8241 8237 8245 8242 8236 8241 8228 8190 8180 8179 8178 8179 8183 8186 8183 8196 8199 8193 8187 8180 8182 8181 8180 8194 8204 8210 8195 8187 8191 8190 8197 8197 8199 8205 8208 8213 8210 8210 8211 8218 8222 8217 8217 8216 8226 8225 8224 8221 8222 8220 8222 8222 8217 8224 8224 8228 8227 8229 8225 8227 8227 8222 8230 8230 8228 8229 8230 8222 8228 8231 
8264 8254 8239 8247 8243 8244 8246 8241 8238 8240 8238 8245 8241 8242 8238 8239 8237 8219 8186 8176 8181 8179 8186 8189 8184 8184 8186 8180 8182 8184 8187 8186 8188 8191 8198 8207 8195 8196 8197 8193 8203 8199 8201 8204 8205 8208 8204 8207 8210 8219 8222 8218 8221 8218 8218 8225 8224 8223 8221 8218 8219 8220 8220 8221 8222 8222 8225 8224 8224 8228 8226 8224 8230 8232 8227 8226 8229 8227 8229 8233 
8264 8257 8250 8250 8245 8247 8246 8242 8250 8251 8251 8244 8245 8233 8237 8240 8237 8228 8197 8176 8179 8171 8171 8183 8185 8182 8178 8178 8178 8179 8182 8184 8183 8194 8190 8194 8189 8190 8193 8192 8207 8208 8209 8209 8208 8209 8209 8216 8223 8224 8225 8219 8221 8220 8223 8222 8223 8223 8218 8217 8215 8222 8219 8225 8224 8226 8224 8219 8226 8224 8225 8228 8229 8229 8236 8235 8230 8229 8232 8230 
8267 8244 8253 8251 8246 8251 8250 8245 8248 8240 8246 8245 8242 8236 8238 8236 8234 8228 8208 8187 8186 8176 8179 8182 8191 8184 8182 8180 8179 8181 8185 8182 8192 8188 8193 8191 8199 8203 8199 8201 8213 8215 8221 8215 8216 8220 8226 8223 8218 8226 8218 8223 8225 8220 8220 8225 8221 8221 8214 8214 8215 8221 8222 8225 8218 8226 8223 8223 8225 8223 8227 8228 8233 8229 8231 8236 8229 8224 8232 8233 
8267 8244 8256 8249 8244 8251 8257 8240 8247 8240 8247 8248 8241 8245 8233 8236 8233 8232 8222 8195 8190 8192 8189 8190 8196 8191 8189 8190 8185 8186 8195 8190 8198 8198 8199 8198 8210 8210 8210 8213 8219 8224 8224 8228 8227 8232 8227 8233 8219 8219 8219 8224 8221 8222 8218 8220 8222 8223 8215 8214 8217 8222 8220 8224 8219 8219 8221 8221 8223 8225 8226 8228 8234 8233 8232 8232 8234 8230 8231 8232 
8267 8243 8247 8244 8246 8239 8251 8240 8244 8245 8247 8246 8242 8244 8238 8241 8237 8231 8228 8198 8200 8199 8193 8198 8199 8197 8192 8188 8196 8195 8204 8198 8201 8206 8205 8205 8212 8223 8222 8226 8228 8231 8235 8230 8235 8237 8239 8240 8223 8222 8219 8226 8219 8224 8209 8224 8225 8219 8212 8211 8217 8220 8219 8216 8217 8220 8222 8223 8228 8231 8227 8226 8232 8237 8231 8231 8232 8224 8226 8232 
8267 8250 8243 8246 8244 8244 8240 8251 8236 8234 8243 8241 8243 8243 8239 8235 8234 8234 8233 8208 8207 8203 8210 8206 8200 8208 8204 8198 8202 8210 8199 8211 8208 8209 8211 8210 8221 8227 8233 8236 8237 8235 8241 8236 8240 8243 8240 8239 8220 8220 8222 8220 8224 8222 8220 8223 8221 8220 8214 8219 8222 8223 8222 8216 8214 8224 8223 8223 8227 8228 8231 8230 8230 8229 8234 8231 8232 8231 8230 8234 
8265 8249 8246 8248 8245 8236 8236 8251 8246 8240 8233 8238 8238 8239 8240 8230 8236 8234 8232 8218 8212 8214 8213 8210 8208 8214 8214 8209 8209 8201 8206 8216 8212 8217 8217 8220 8228 8229 8235 8238 8239 8241 8241 8246 8245 8249 8248 8238 8216 8220 8218 8223 8217 8223 8222 8222 8221 8223 8222 8219 8222 8223 8224 8217 8219 8227 8220 8221 8230 8224 8230 8234 8232 8236 8231 8233 8226 8223 8234 8235 
8276 8256 8258 8262 8257 8252 8247 8248 8232 8241 8234 8242 8233 8238 8240 8235 8235 8236 8233 8221 8218 8217 8217 8218 8214 8214 8217 8215 8207 8206 8215 8215 8215 8229 8225 8224 8232 8237 8241 8238 8242 8247 8245 8251 8252 8254 8253 8237 8219 8222 8224 8222 8219 8214 8224 8218 8221 8216 8216 8215 8225 8224 8226 8221 8223 8223 8217 8227 8231 8226 8226 8232 8230 8234 8226 8226 8224 8222 8233 8231 
8317 8301 8313 8344 8321 8288 8279 8261 8230 8242 8231 8241 8234 8241 8236 8231 8229 8229 8235 8230 8225 8224 8221 8219 8216 8216 8215 8215 8218 8215 8216 8216 8222 8234 8234 8234 8238 8240 8240 8243 8247 8248 8254 8256 8255 8259 8245 8236 8218 8219 8221 8222 8216 8215 8220 8216 8221 8216 8215 8218 8223 8218 8218 8221 8225 8215 8218 8215 8227 8228 8230 8230 8230 8234 8227 8228 8221 8221 8229 8232 
8324 8327 8342 8335 8319 8303 8295 8263 8229 8238 8236 8231 8234 8228 8228 8231 8229 8233 8232 8231 8233 8228 8223 8219 8220 8201 8218 8218 8223 8224 8221 8228 8232 8242 8247 8239 8239 8243 8245 8244 8250 8254 8259 8259 8259 8260 8248 8227 8211 8212 8217 8218 8219 8219 8220 8219 8222 8217 8216 8218 8219 8215 8217 8222 8226 8222 8218 8224 8225 8224 8230 8229 8232 8231 8229 8228 8219 8223 8224 8229 
8300 8283 8295 8290 8279 8273 8256 8227 8235 8238 8235 8229 8232 8227 8225 8212 8215 8225 8227 8233 8237 8224 8220 8223 8221 8205 8199 8220 8224 8230 8231 8228 8238 8246 8245 8243 8240 8244 8244 8251 8251 8254 8256 8260 8261 8255 8248 8224 8210 8212 8210 8211 8208 8212 8216 8215 8215 8214 8212 8212 8214 8211 8220 8221 8219 8225 8221 8225 8222 8221 8225 8229 8225 8225 8225 8218 8226 8220 8220 8226 
8289 8276 8272 8251 8269 8262 8244 8222 8236 8233 8244 8242 8234 8229 8229 8227 8217 8232 8239 8234 8227 8226 8220 8225 8234 8220 8222 8221 8229 8229 8228 8233 8237 8248 8240 8241 8240 8241 8244 8251 8253 8250 8250 8259 8257 8253 8245 8217 8206 8210 8210 8205 8206 8206 8212 8207 8208 8205 8206 8203 8204 8211 8214 8214 8216 8220 8218 8226 8225 8220 8225 8224 8227 8217 8222 8222 8223 8210 8216 8223 
8301 8276 8272 8280 8286 8256 8237 8248 8252 8245 8274 8262 8234 8240 8228 8215 8224 8236 8232 8229 8228 8211 8217 8219 8232 8227 8223 8220 8225 8225 8228 8225 8228 8243 8232 8234 8235 8243 8242 8252 8255 8250 8253 8250 8252 8250 8243 8216 8207 8211 8205 8198 8201 8199 8192 8193 8199 8198 8192 8195 8203 8203 8197 8202 8208 8213 8214 8230 8230 8229 8224 8229 8232 8223 8222 8222 8223 8217 8218 8223 
8322 8303 8304 8296 8295 8285 8284 8298 8307 8304 8298 8289 8279 8269 8267 8257 8268 8252 8235 8238 8224 8216 8212 8214 8221 8230 8229 8219 8220 8223 8219 8220 8224 8228 8229 8231 8235 8241 8250 8251 8253 8250 8252 8249 8248 8252 8237 8215 8210 8212 8202 8196 8202 8202 8197 8198 8206 8206 8203 8203 8213 8216 8207 8215 8217 8215 8212 8227 8227 8228 8219 8230 8234 8234 8230 8233 8239 8233 8226 8226 


