P2
80 60
8356
8278 8257 8278 8280 8284 8279 8269 8269 8270 8266 8270 8276 8268 8267 8266 8271 8267 8263 8264 8262 8265 8272 8268 8255 8263 8274 8263 8260 8263 8262 8267 8265 8265 8263 8262 8256 8258 8256 8265 8267 8265 8269 8261 8257 8262 8271 8266 8263 8267 8268 8262 8262 8260 8252 8250 8255 8256 8254 8261 8263 8266 8261 8262 8260 8263 8263 8262 8260 8262 8263 8261 8258 8261 8263 8267 8267 8262 8262 8266 8269 
8285 8272 8285 8278 8283 8281 8265 8271 8264 8279 8270 8271 8266 8272 8260 8269 8261 8262 8259 8267 8272 8273 8271 8259 8269 8257 8252 8257 8266 8253 8263 8266 8258 8260 8256 8254 8249 8263 8265 8268 8263 8265 8257 8259 8264 8263 8269 8262 8266 8268 8256 8264 8261 8258 8254 8264 8255 8254 8260 8264 8266 8264 8269 8258 8259 8262 8261 8261 8263 8266 8265 8256 8261 8264 8268 8255 8262 8260 8261 8256 
8264 8258 8270 8264 8280 8269 8263 8270 8260 8268 8273 8266 8257 8265 8265 8263 8269 8265 8260 8268 8263 8265 8266 8259 8266 8266 8258 8258 8260 8245 8254 8257 8251 8264 8255 8249 8250 8264 8264 8263 8263 8257 8253 8263 8265 8263 8261 8263 8265 8261 8261 8255 8256 8263 8266 8260 8254 8259 8259 8249 8265 8265 8255 8263 8262 8259 8262 8260 8262 8265 8257 8254 8254 8256 8255 8248 8259 8255 8249 8253 
8286 8252 8280 8259 8278 8265 8273 8270 8269 8270 8262 8251 8262 8264 8260 8265 8262 8266 8260 8259 8262 8258 8244 8264 8264 8261 8265 8260 8265 8264 8251 8261 8259 8257 8265 8248 8262 8261 8259 8266 8261 8258 8262 8254 8262 8258 8268 8264 8265 8263 8262 8253 8264 8255 8260 8264 8253 8252 8257 8256 8264 8263 8254 8263 8255 8255 8259 8258 8262 8266 8253 8260 8255 8257 8257 8248 8259 8252 8248 8250 
8280 8255 8277 8263 8275 8274 8272 8262 8260 8267 8261 8255 8256 8267 8254 8266 8263 8257 8264 8257 8262 8264 8253 8253 8260 8261 8256 8255 8252 8261 8253 8261 8259 8252 8255 8254 8258 8257 8260 8258 8260 8262 8250 8250 8252 8255 8256 8260 8260 8265 8256 8254 8257 8254 8259 8260 8249 8257 8260 8262 8264 8267 8260 8262 8254 8256 8252 8251 8265 8264 8255 8259 8255 8258 8243 8249 8253 8250 8245 8247 
8289 8262 8269 8264 8268 8261 8275 8268 8262 8270 8249 8261 8262 8259 8253 8261 8264 8252 8261 8268 8263 8258 8263 8251 8264 8264 8259 8257 8251 8258 8268 8261 8256 8250 8254 8256 8254 8258 8258 8267 8262 8260 8263 8250 8257 8260 8259 8262 8258 8263 8259 8257 8264 8257 8255 8264 8262 8262 8260 8265 8265 8265 8260 8259 8255 8261 8254 8251 8260 8260 8256 8251 8263 8246 8242 8248 8248 8242 8243 8244 
8286 8270 8271 8279 8274 8264 8279 8273 8263 8259 8247 8270 8264 8251 8264 8266 8253 8256 8263 8273 8257 8263 8266 8258 8269 8262 8248 8253 8259 8262 8261 8260 8254 8255 8252 8254 8250 8255 8260 8262 8263 8254 8262 8256 8260 8255 8264 8261 8257 8264 8256 8251 8258 8258 8255 8260 8255 8251 8263 8265 8257 8263 8261 8260 8254 8257 8261 8264 8249 8251 8263 8263 8258 8247 8252 8248 8246 8240 8244 8242 
8290 8270 8262 8277 8266 8270 8274 8280 8272 8243 8266 8268 8262 8259 8268 8265 8260 8265 8258 8261 8268 8264 8262 8266 8269 8260 8243 8253 8254 8261 8263 8259 8264 8258 8259 8256 8251 8258 8256 8268 8263 8258 8262 8257 8253 8258 8259 8256 8260 8253 8255 8248 8259 8250 8253 8257 8254 8257 8256 8260 8254 8259 8258 8257 8255 8261 8261 8264 8255 8253 8253 8250 8259 8246 8253 8250 8242 8247 8247 8242 
8294 8267 8269 8269 8275 8269 8274 8272 8268 8254 8260 8257 8254 8259 8255 8260 8259 8258 8264 8268 8266 8253 8258 8260 8256 8261 8247 8252 8255 8255 8258 8254 8251 8252 8257 8252 8256 8255 8257 8260 8255 8258 8257 8253 8255 8260 8251 8253 8256 8250 8249 8248 8255 8250 8257 8248 8256 8253 8252 8260 8256 8255 8256 8256 8255 8252 8253 8266 8255 8261 8251 8247 8246 8250 8249 8252 8252 8249 8243 8244 
8293 8257 8267 8276 8270 8274 8262 8272 8268 8266 8261 8260 8258 8263 8255 8252 8261 8257 8268 8274 8261 8258 8260 8254 8249 8258 8253 8257 8253 8251 8253 8252 8249 8250 8260 8258 8260 8259 8255 8258 8258 8257 8259 8242 8250 8259 8260 8259 8258 8251 8248 8256 8256 8249 8256 8247 8258 8255 8256 8258 8261 8258 8257 8257 8253 8252 8252 8257 8252 8264 8257 8256 8253 8251 8252 8243 8252 8251 8242 8244 
8291 8253 8269 8265 8264 8271 8250 8266 8263 8254 8263 8255 8257 8260 8250 8256 8262 8252 8246 8261 8260 8257 8260 8257 8253 8249 8257 8258 8255 8257 8254 8246 8244 8257 8252 8245 8248 8250 8254 8254 8258 8250 8244 8257 8255 8258 8260 8253 8255 8250 8251 8247 8251 8254 8252 8243 8255 8249 8258 8257 8256 8258 8258 8251 8249 8252 8260 8257 8254 8255 8251 8256 8247 8245 8247 8240 8244 8243 8244 8242 
8286 8270 8270 8265 8260 8268 8257 8268 8267 8255 8266 8251 8258 8257 8254 8257 8255 8250 8249 8268 8270 8264 8253 8257 8260 8254 8256 8255 8255 8252 8258 8251 8244 8255 8248 8242 8247 8254 8255 8249 8252 8258 8252 8258 8255 8256 8256 8251 8253 8253 8256 8255 8253 8254 8250 8250 8256 8249 8261 8260 8254 8256 8255 8254 8248 8250 8259 8254 8252 8250 8253 8247 8247 8247 8239 8240 8254 8249 8241 8242 
8288 8263 8256 8254 8253 8268 8267 8251 8256 8257 8257 8250 8251 8252 8256 8260 8254 8260 8258 8256 8252 8258 8251 8251 8260 8251 8240 8256 8253 8247 8260 8248 8250 8251 8239 8238 8253 8258 8246 8244 8249 8250 8260 8259 8252 8252 8254 8250 8250 8251 8257 8256 8254 8256 8256 8245 8254 8248 8258 8255 8253 8252 8256 8249 8252 8251 8257 8254 8257 8244 8244 8247 8245 8244 8242 8246 8257 8247 8242 8246 
8288 8272 8270 8267 8266 8264 8262 8264 8249 8264 8264 8258 8253 8255 8256 8254 8260 8257 8258 8261 8258 8257 8250 8253 8252 8253 8257 8253 8242 8249 8258 8241 8250 8250 8246 8250 8246 8254 8247 8247 8251 8248 8257 8257 8253 8255 8254 8254 8254 8254 8248 8257 8255 8253 8258 8247 8254 8254 8256 8258 8257 8254 8254 8252 8258 8256 8253 8252 8257 8254 8252 8254 8247 8248 8243 8250 8254 8258 8250 8249 
8294 8257 8267 8270 8266 8264 8258 8265 8254 8255 8258 8259 8258 8259 8263 8259 8257 8252 8260 8261 8249 8254 8248 8253 8249 8250 8252 8248 8244 8253 8243 8242 8245 8242 8244 8247 8244 8249 8246 8239 8246 8248 8247 8252 8248 8250 8248 8247 8251 8250 8249 8255 8255 8257 8252 8254 8251 8255 8255 8256 8256 8247 8251 8257 8254 8255 8255 8255 8255 8248 8253 8251 8253 8250 8243 8246 8250 8249 8249 8245 
8295 8247 8260 8267 8266 8257 8257 8256 8255 8262 8262 8253 8252 8251 8262 8261 8260 8254 8259 8260 8250 8256 8248 8250 8247 8256 8257 8243 8244 8252 8247 8246 8244 8248 8242 8245 8247 8248 8246 8241 8248 8249 8244 8250 8247 8250 8243 8249 8246 8249 8250 8251 8254 8250 8250 8254 8251 8252 8254 8258 8257 8249 8253 8253 8260 8258 8254 8253 8252 8251 8257 8249 8249 8247 8247 8249 8253 8252 8246 8248 
8293 8249 8257 8270 8260 8255 8254 8254 8257 8260 8258 8259 8251 8253 8249 8260 8253 8258 8260 8253 8247 8256 8255 8247 8246 8252 8250 8249 8249 8247 8253 8250 8242 8252 8247 8247 8248 8251 8247 8245 8248 8246 8248 8247 8246 8250 8245 8242 8246 8248 8251 8253 8253 8248 8242 8253 8247 8249 8251 8256 8256 8247 8251 8251 8256 8251 8253 8258 8252 8247 8246 8246 8250 8253 8249 8246 8249 8253 8249 8249 
8292 8257 8264 8256 8260 8263 8259 8262 8254 8261 8261 8254 8261 8261 8265 8257 8256 8255 8258 8256 8256 8258 8255 8243 8246 8258 8262 8250 8248 8247 8251 8251 8248 8253 8248 8249 8246 8249 8247 8247 8247 8244 8249 8250 8250 8246 8250 8242 8253 8257 8250 8255 8249 8252 8241 8253 8244 8247 8249 8255 8255 8251 8256 8259 8257 8254 8260 8256 8260 8254 8245 8253 8253 8253 8250 8250 8249 8251 8246 8246 
8286 8255 8265 8260 8261 8258 8262 8263 8263 8257 8260 8256 8262 8254 8259 8257 8252 8259 8254 8251 8250 8259 8254 8248 8253 8259 8258 8242 8241 8242 8246 8248 8251 8252 8248 8248 8241 8244 8246 8247 8244 8244 8248 8247 8250 8246 8248 8251 8241 8245 8252 8249 8245 8252 8240 8245 8252 8249 8248 8254 8249 8247 8260 8257 8251 8246 8252 8250 8252 8253 8251 8251 8255 8245 8251 8250 8247 8250 8246 8246 
8283 8253 8259 8264 8254 8265 8264 8263 8260 8258 8266 8257 8259 8255 8263 8260 8254 8255 8250 8257 8246 8259 8255 8247 8252 8249 8259 8247 8246 8246 8250 8249 8244 8253 8247 8249 8244 8246 8246 8252 8242 8240 8252 8246 8245 8246 8250 8244 8250 8254 8253 8254 8245 8248 8251 8246 8251 8251 8251 8249 8250 8248 8257 8258 8256 8248 8249 8251 8251 8254 8254 8253 8253 8247 8250 8249 8247 8250 8248 8247 
8282 8261 8254 8241 8249 8254 8250 8264 8260 8257 8254 8258 8255 8252 8253 8260 8255 8254 8245 8258 8242 8252 8254 8248 8244 8244 8244 8254 8241 8251 8250 8248 8244 8247 8246 8250 8242 8245 8244 8254 8249 8244 8249 8242 8241 8248 8246 8241 8247 8242 8243 8246 8251 8246 8247 8257 8247 8253 8248 8245 8248 8249 8254 8254 8250 8251 8250 8255 8252 8253 8250 8249 8250 8247 8251 8249 8245 8249 8248 8247 
8285 8263 8257 8267 8266 8261 8240 8265 8247 8261 8255 8249 8256 8258 8248 8252 8252 8254 8241 8250 8251 8256 8252 8257 8248 8250 8246 8257 8244 8242 8247 8239 8248 8251 8246 8243 8242 8247 8246 8250 8246 8248 8245 8240 8239 8246 8239 8244 8245 8243 8240 8247 8249 8247 8250 8254 8250 8251 8247 8249 8250 8247 8255 8252 8250 8252 8253 8257 8254 8250 8251 8247 8248 8244 8253 8248 8244 8248 8245 8243 
8283 8252 8260 8264 8258 8255 8245 8241 8246 8259 8262 8254 8254 8258 8253 8252 8251 8247 8240 8251 8248 8261 8249 8252 8253 8247 8252 8248 8252 8249 8249 8240 8247 8247 8249 8246 8241 8244 8249 8239 8239 8244 8245 8246 8240 8240 8234 8241 8238 8242 8248 8249 8245 8246 8246 8251 8246 8250 8245 8244 8250 8250 8253 8251 8252 8254 8247 8256 8251 8248 8248 8242 8246 8241 8248 8248 8248 8252 8247 8248 
8283 8261 8260 8261 8262 8265 8254 8244 8257 8262 8264 8251 8256 8256 8257 8255 8250 8255 8243 8262 8254 8253 8258 8245 8251 8243 8250 8246 8246 8239 8242 8253 8249 8248 8241 8240 8249 8249 8239 8242 8242 8250 8247 8247 8243 8237 8240 8239 8240 8248 8251 8244 8241 8243 8246 8247 8250 8253 8240 8249 8244 8249 8255 8255 8256 8255 8255 8258 8248 8251 8246 8242 8246 8244 8246 8244 8245 8249 8251 8251 
8284 8249 8261 8264 8259 8257 8251 8262 8258 8251 8260 8253 8261 8255 8255 8254 8252 8254 8246 8246 8253 8252 8258 8246 8249 8246 8247 8247 8246 8238 8251 8251 8247 8249 8242 8237 8249 8246 8242 8251 8244 8250 8246 8244 8244 8242 8244 8242 8242 8243 8248 8244 8236 8240 8239 8247 8246 8251 8249 8252 8242 8250 8247 8256 8254 8249 8250 8257 8250 8248 8249 8247 8244 8243 8245 8242 8244 8247 8250 8249 
8285 8245 8254 8267 8261 8254 8256 8245 8243 8257 8253 8261 8252 8253 8255 8251 8250 8255 8248 8243 8257 8251 8256 8244 8243 8240 8244 8247 8245 8249 8243 8245 8241 8248 8245 8237 8249 8246 8244 8249 8247 8249 8245 8242 8245 8243 8242 8239 8246 8246 8245 8244 8237 8245 8237 8242 8244 8246 8247 8251 8248 8243 8245 8250 8246 8252 8249 8254 8244 8240 8240 8240 8240 8242 8242 8243 8240 8245 8246 8244 
8275 8253 8246 8260 8257 8260 8251 8248 8253 8255 8250 8264 8251 8258 8255 8252 8248 8252 8252 8242 8251 8245 8248 8250 8241 8242 8249 8247 8247 8246 8241 8244 8240 8242 8245 8242 8241 8244 8243 8246 8242 8245 8242 8243 8242 8246 8242 8240 8247 8247 8240 8244 8237 8245 8244 8246 8240 8244 8245 8252 8249 8241 8249 8248 8248 8248 8249 8244 8244 8246 8241 8239 8242 8240 8240 8243 8247 8245 8249 8245 
8277 8257 8258 8259 8260 8250 8255 8253 8246 8256 8249 8254 8259 8252 8252 8252 8250 8252 8250 8245 8248 8245 8247 8247 8243 8246 8248 8250 8248 8246 8245 8250 8245 8245 8242 8242 8237 8238 8240 8242 8241 8244 8243 8248 8246 8242 8245 8236 8248 8247 8234 8246 8236 8243 8247 8245 8246 8252 8255 8256 8252 8249 8251 8248 8254 8252 8248 8241 8240 8244 8242 8238 8241 8243 8242 8246 8248 8247 8250 8250 
8271 8246 8253 8258 8256 8259 8254 8255 8253 8261 8257 8259 8257 8250 8256 8246 8248 8251 8245 8245 8247 8247 8246 8249 8248 8247 8252 8250 8248 8244 8245 8245 8242 8247 8243 8242 8243 8241 8246 8241 8239 8243 8241 8249 8244 8241 8246 8247 8249 8250 8244 8245 8244 8250 8250 8252 8253 8251 8254 8243 8250 8240 8250 8251 8251 8252 8249 8243 8236 8243 8242 8240 8238 8238 8241 8245 8242 8256 8253 8249 
8270 8247 8255 8256 8253 8263 8261 8254 8256 8249 8257 8255 8252 8247 8247 8253 8248 8254 8249 8246 8243 8244 8245 8249 8250 8244 8248 8249 8242 8246 8246 8244 8243 8243 8242 8239 8245 8248 8245 8239 8242 8241 8245 8248 8243 8243 8242 8245 8243 8245 8247 8245 8253 8256 8249 8252 8251 8244 8244 8241 8242 8239 8252 8246 8248 8248 8247 8240 8237 8240 8242 8241 8241 8238 8248 8240 8243 8256 8247 8248 
8276 8255 8255 8259 8258 8264 8251 8259 8256 8248 8261 8251 8245 8252 8247 8252 8247 8245 8246 8245 8240 8240 8246 8249 8244 8240 8250 8249 8238 8239 8242 8246 8243 8244 8239 8232 8241 8248 8239 8238 8241 8242 8242 8243 8242 8243 8243 8243 8244 8250 8247 8245 8245 8241 8246 8246 8246 8240 8246 8240 8238 8244 8251 8248 8252 8244 8245 8245 8241 8236 8240 8244 8241 8248 8247 8241 8252 8254 8247 8245 
8280 8251 8254 8256 8251 8264 8247 8256 8260 8251 8247 8255 8249 8247 8247 8249 8249 8244 8245 8245 8241 8248 8248 8252 8250 8244 8252 8251 8246 8243 8237 8243 8245 8237 8243 8241 8243 8240 8240 8244 8239 8242 8239 8248 8245 8246 8246 8243 8252 8253 8246 8242 8251 8242 8244 8242 8242 8246 8250 8252 8242 8246 8246 8248 8245 8246 8244 8242 8245 8240 8242 8247 8244 8243 8243 8245 8247 8254 8253 8249 
8277 8258 8251 8260 8252 8261 8251 8251 8256 8255 8249 8250 8241 8248 8246 8249 8246 8243 8242 8243 8240 8248 8244 8248 8250 8246 8251 8249 8246 8246 8236 8240 8247 8238 8240 8241 8239 8238 8240 8242 8240 8241 8237 8247 8247 8250 8250 8247 8246 8246 8242 8243 8247 8247 8243 8240 8249 8244 8249 8243 8245 8239 8242 8243 8242 8243 8240 8244 8245 8243 8247 8239 8239 8242 8243 8246 8242 8247 8245 8248 
8283 8250 8264 8261 8259 8261 8249 8255 8255 8252 8254 8253 8239 8251 8246 8242 8244 8245 8249 8245 8246 8251 8245 8243 8251 8252 8248 8251 8248 8240 8238 8242 8231 8239 8243 8240 8237 8242 8241 8246 8243 8244 8243 8246 8249 8248 8251 8247 8246 8242 8242 8239 8246 8247 8243 8240 8244 8247 8242 8240 8246 8241 8244 8246 8248 8244 8245 8242 8245 8249 8247 8246 8237 8245 8249 8244 8247 8248 8247 8247 
8284 8259 8264 8261 8262 8256 8262 8262 8253 8255 8254 8251 8251 8247 8249 8244 8250 8246 8252 8248 8249 8249 8243 8241 8248 8249 8245 8247 8244 8244 8243 8239 8234 8239 8244 8242 8242 8245 8241 8244 8243 8243 8248 8244 8245 8245 8246 8249 8245 8250 8247 8241 8240 8239 8240 8240 8245 8243 8239 8244 8245 8245 8246 8247 8242 8242 8248 8240 8249 8247 8244 8246 8240 8247 8246 8244 8249 8251 8248 8248 
8290 8261 8257 8261 8260 8256 8263 8262 8255 8248 8245 8254 8253 8251 8249 8246 8250 8248 8252 8249 8255 8253 8251 8237 8250 8241 8245 8244 8245 8244 8240 8233 8245 8240 8241 8241 8241 8245 8242 8242 8242 8246 8241 8247 8249 8244 8242 8240 8242 8252 8245 8248 8243 8242 8246 8239 8246 8247 8241 8244 8245 8248 8247 8244 8245 8241 8247 8239 8246 8246 8245 8244 8239 8242 8242 8252 8245 8246 8246 8247 
8290 8262 8263 8261 8258 8258 8262 8255 8256 8245 8249 8257 8256 8251 8251 8247 8248 8246 8252 8252 8249 8249 8257 8241 8247 8238 8249 8246 8241 8243 8235 8235 8243 8244 8242 8238 8243 8241 8241 8246 8243 8243 8246 8244 8249 8249 8250 8248 8245 8246 8239 8246 8246 8242 8245 8242 8241 8250 8244 8247 8246 8243 8247 8242 8248 8247 8246 8239 8239 8241 8244 8245 8246 8251 8253 8253 8247 8250 8248 8247 
8283 8262 8259 8264 8259 8260 8258 8255 8254 8255 8254 8255 8250 8250 8248 8248 8241 8245 8243 8245 8246 8246 8253 8242 8245 8246 8250 8249 8246 8242 8242 8243 8243 8241 8242 8236 8240 8238 8240 8241 8240 8245 8244 8246 8248 8249 8245 8241 8244 8241 8244 8244 8251 8244 8237 8250 8243 8247 8245 8242 8238 8240 8237 8240 8244 8243 8241 8245 8245 8244 8244 8247 8246 8249 8253 8251 8249 8252 8249 8248 
8280 8261 8256 8258 8258 8259 8255 8258 8252 8251 8254 8252 8251 8248 8247 8244 8245 8243 8245 8249 8249 8243 8245 8254 8252 8246 8246 8248 8247 8238 8246 8244 8242 8238 8235 8239 8241 8240 8240 8242 8239 8243 8244 8244 8242 8242 8244 8240 8246 8242 8243 8237 8242 8241 8237 8246 8245 8244 8239 8236 8237 8240 8238 8239 8243 8239 8247 8248 8244 8240 8236 8239 8244 8246 8250 8252 8249 8249 8250 8247 
8279 8261 8275 8261 8261 8262 8261 8254 8256 8256 8256 8248 8247 8248 8244 8241 8241 8246 8249 8247 8250 8242 8246 8252 8244 8243 8248 8248 8249 8241 8243 8243 8240 8232 8234 8238 8241 8239 8242 8241 8236 8236 8242 8242 8240 8242 8237 8243 8237 8236 8238 8238 8242 8241 8241 8242 8243 8246 8244 8239 8236 8236 8241 8238 8244 8241 8245 8247 8244 8247 8239 8237 8241 8248 8251 8251 8251 8244 8248 8244 
8274 8261 8268 8253 8260 8266 8255 8257 8254 8253 8249 8252 8243 8245 8254 8241 8239 8247 8254 8254 8250 8249 8249 8251 8246 8242 8249 8248 8241 8245 8243 8239 8244 8232 8236 8242 8240 8237 8238 8240 8237 8246 8246 8243 8243 8242 8236 8241 8239 8236 8242 8238 8240 8236 8241 8244 8242 8239 8239 8240 8239 8241 8236 8244 8245 8240 8239 8238 8242 8242 8243 8238 8238 8249 8253 8249 8245 8242 8242 8244 
8277 8254 8262 8247 8260 8261 8249 8251 8253 8254 8250 8252 8250 8249 8255 8251 8242 8250 8250 8253 8251 8248 8246 8249 8252 8246 8247 8250 8245 8244 8238 8243 8241 8236 8240 8243 8240 8240 8233 8238 8237 8242 8247 8241 8242 8238 8240 8241 8240 8242 8240 8239 8237 8241 8244 8247 8239 8237 8239 8240 8240 8242 8243 8248 8243 8246 8243 8238 8238 8243 8244 8245 8238 8249 8248 8250 8251 8253 8242 8243 
8281 8256 8256 8253 8248 8257 8254 8255 8252 8252 8253 8250 8250 8255 8246 8246 8242 8250 8241 8241 8250 8244 8250 8252 8248 8246 8242 8247 8243 8241 8239 8243 8241 8236 8237 8240 8240 8238 8233 8236 8236 8240 8245 8243 8239 8247 8236 8238 8240 8243 8242 8238 8237 8241 8240 8241 8238 8234 8237 8239 8239 8245 8247 8243 8247 8247 8244 8237 8240 8243 8241 8252 8245 8242 8253 8248 8251 8255 8243 8242 
8280 8255 8258 8254 8255 8252 8256 8252 8255 8256 8248 8252 8255 8258 8242 8243 8244 8240 8238 8247 8248 8239 8241 8250 8250 8246 8242 8242 8244 8236 8237 8239 8240 8235 8232 8234 8231 8235 8235 8238 8237 8237 8236 8245 8244 8244 8244 8243 8234 8232 8241 8236 8239 8244 8243 8240 8240 8238 8241 8242 8247 8246 8243 8247 8242 8245 8237 8238 8237 8241 8245 8240 8247 8248 8252 8253 8250 8251 8245 8246 
8278 8265 8259 8249 8254 8255 8256 8246 8257 8258 8253 8246 8250 8255 8248 8245 8246 8252 8241 8248 8244 8238 8243 8244 8243 8248 8243 8242 8239 8238 8239 8237 8239 8231 8229 8228 8229 8235 8233 8236 8232 8239 8234 8244 8242 8240 8242 8237 8234 8231 8237 8230 8234 8239 8244 8241 8239 8237 8241 8242 8242 8242 8246 8247 8244 8247 8239 8244 8247 8247 8241 8241 8248 8246 8246 8253 8252 8250 8249 8246 
8281 8257 8255 8257 8255 8256 8257 8252 8250 8250 8251 8249 8257 8256 8252 8254 8253 8250 8245 8248 8249 8247 8247 8249 8244 8248 8246 8244 8241 8240 8238 8236 8236 8240 8237 8232 8232 8231 8232 8232 8236 8237 8237 8244 8240 8243 8241 8239 8236 8232 8234 8232 8234 8233 8241 8241 8241 8237 8239 8239 8243 8240 8239 8248 8242 8246 8245 8246 8246 8246 8247 8242 8251 8249 8246 8250 8248 8247 8250 8251 
8281 8265 8248 8258 8258 8258 8259 8256 8249 8252 8249 8256 8254 8256 8255 8254 8255 8248 8245 8244 8249 8244 8245 8248 8243 8242 8239 8240 8238 8239 8235 8234 8234 8231 8231 8232 8227 8232 8228 8228 8235 8228 8230 8239 8238 8239 8235 8235 8234 8233 8236 8233 8237 8235 8233 8239 8240 8240 8242 8239 8240 8242 8240 8242 8242 8241 8242 8242 8244 8246 8246 8242 8245 8248 8248 8247 8250 8251 8250 8244 
8280 8264 8258 8259 8256 8255 8257 8256 8260 8262 8258 8252 8258 8246 8249 8251 8252 8247 8245 8247 8249 8242 8241 8247 8248 8242 8238 8237 8233 8233 8232 8236 8234 8234 8232 8231 8225 8225 8225 8227 8240 8239 8235 8238 8238 8234 8235 8234 8235 8237 8239 8230 8237 8237 8235 8234 8237 8240 8239 8237 8238 8241 8240 8242 8244 8244 8243 8239 8245 8246 8245 8248 8245 8246 8254 8258 8249 8251 8252 8252 
8283 8255 8260 8260 8257 8261 8265 8258 8259 8251 8259 8252 8255 8246 8253 8249 8247 8244 8242 8245 8245 8240 8244 8239 8246 8240 8236 8232 8229 8229 8233 8230 8237 8228 8234 8228 8234 8233 8228 8230 8239 8239 8238 8234 8236 8232 8237 8232 8231 8238 8231 8236 8240 8234 8233 8237 8239 8239 8233 8232 8238 8239 8242 8245 8239 8244 8246 8240 8246 8243 8247 8245 8251 8249 8255 8259 8250 8250 8253 8249 
8285 8255 8263 8258 8257 8265 8269 8254 8257 8254 8256 8254 8255 8256 8246 8247 8245 8247 8247 8242 8240 8244 8244 8242 8241 8237 8234 8232 8224 8223 8230 8225 8233 8228 8232 8228 8230 8230 8225 8230 8236 8238 8232 8235 8231 8234 8229 8233 8230 8228 8230 8236 8238 8235 8229 8232 8239 8239 8237 8235 8239 8241 8243 8245 8236 8238 8240 8240 8246 8248 8245 8249 8254 8253 8251 8254 8256 8254 8250 8248 
8284 8253 8257 8256 8260 8257 8266 8254 8253 8255 8258 8254 8254 8255 8250 8251 8246 8243 8248 8237 8239 8239 8239 8239 8237 8235 8229 8224 8226 8225 8232 8225 8225 8228 8228 8225 8226 8235 8227 8236 8235 8234 8233 8229 8231 8231 8234 8235 8232 8232 8230 8239 8238 8236 8221 8237 8239 8237 8234 8232 8241 8240 8239 8238 8234 8236 8242 8243 8246 8251 8248 8247 8255 8258 8252 8252 8253 8250 8248 8246 
8281 8257 8255 8258 8259 8259 8254 8265 8247 8248 8257 8253 8253 8253 8250 8246 8245 8246 8247 8237 8239 8238 8241 8242 8234 8235 8233 8222 8225 8228 8216 8229 8223 8223 8228 8225 8227 8230 8231 8231 8230 8227 8228 8225 8229 8229 8227 8230 8229 8229 8233 8234 8240 8236 8234 8239 8239 8237 8231 8241 8242 8243 8242 8237 8233 8240 8242 8240 8248 8246 8253 8252 8248 8250 8254 8254 8253 8256 8247 8250 
8279 8256 8261 8261 8259 8255 8253 8268 8262 8255 8247 8248 8249 8251 8252 8240 8242 8247 8242 8244 8238 8241 8241 8238 8237 8236 8234 8229 8226 8215 8217 8225 8221 8224 8231 8228 8232 8228 8223 8225 8222 8222 8220 8228 8224 8226 8228 8230 8224 8229 8227 8234 8232 8237 8237 8236 8235 8241 8237 8241 8242 8243 8246 8234 8237 8243 8238 8238 8251 8243 8251 8253 8252 8256 8254 8251 8243 8245 8256 8250 
8291 8265 8269 8266 8264 8265 8261 8264 8246 8257 8250 8252 8246 8254 8253 8249 8246 8248 8243 8242 8243 8239 8241 8240 8239 8233 8231 8224 8213 8211 8215 8216 8217 8229 8231 8227 8230 8229 8224 8219 8218 8221 8214 8222 8219 8222 8225 8224 8228 8232 8234 8235 8235 8229 8235 8235 8236 8234 8236 8239 8244 8245 8245 8240 8240 8241 8235 8247 8252 8245 8248 8253 8248 8254 8248 8245 8242 8246 8254 8250 
8334 8318 8319 8309 8286 8274 8270 8264 8246 8259 8246 8254 8247 8259 8252 8248 8243 8246 8249 8248 8243 8240 8239 8232 8228 8218 8213 8212 8213 8211 8215 8215 8221 8226 8232 8227 8227 8226 8224 8225 8225 8223 8227 8224 8222 8220 8211 8220 8225 8230 8231 8234 8230 8229 8232 8231 8237 8231 8233 8237 8242 8242 8239 8238 8242 8232 8235 8234 8244 8249 8252 8250 8250 8252 8249 8252 8240 8247 8251 8249 
8341 8340 8356 8342 8322 8311 8298 8274 8243 8258 8254 8251 8255 8251 8249 8248 8248 8251 8244 8245 8245 8234 8229 8227 8224 8200 8217 8218 8222 8222 8218 8225 8229 8225 8233 8228 8229 8230 8226 8222 8225 8225 8227 8227 8223 8223 8216 8222 8227 8224 8225 8231 8234 8234 8235 8236 8239 8236 8236 8240 8236 8235 8237 8240 8244 8240 8238 8244 8245 8244 8251 8251 8251 8252 8251 8248 8241 8247 8246 8247 
8319 8300 8310 8307 8298 8291 8278 8249 8248 8254 8249 8241 8247 8248 8248 8236 8238 8249 8243 8239 8236 8233 8233 8236 8233 8214 8208 8228 8230 8229 8230 8226 8231 8225 8228 8228 8226 8226 8224 8228 8225 8229 8231 8233 8232 8221 8223 8225 8227 8228 8224 8224 8225 8226 8233 8232 8233 8234 8231 8233 8234 8236 8240 8241 8237 8241 8240 8248 8240 8242 8248 8248 8245 8245 8247 8240 8247 8247 8240 8241 
8311 8291 8287 8270 8290 8289 8264 8241 8251 8251 8258 8249 8244 8245 8246 8241 8231 8245 8247 8238 8231 8237 8239 8239 8250 8230 8232 8231 8231 8227 8229 8233 8230 8226 8219 8219 8220 8220 8219 8223 8223 8222 8219 8228 8226 8225 8228 8229 8225 8226 8228 8219 8220 8222 8228 8226 8230 8229 8229 8225 8228 8237 8236 8235 8237 8240 8236 8245 8245 8242 8247 8245 8246 8238 8245 8242 8243 8234 8236 8241 
8327 8293 8294 8305 8311 8283 8260 8268 8269 8264 8291 8278 8248 8256 8244 8229 8239 8258 8243 8231 8245 8233 8237 8240 8253 8242 8241 8238 8239 8240 8244 8233 8234 8238 8226 8227 8223 8222 8217 8221 8219 8219 8217 8218 8216 8217 8229 8231 8232 8228 8223 8214 8217 8219 8220 8220 8227 8224 8229 8226 8232 8232 8232 8232 8234 8235 8234 8243 8245 8247 8242 8241 8240 8240 8241 8242 8239 8233 8231 8235 
8350 8324 8330 8323 8321 8312 8308 8321 8327 8328 8318 8307 8296 8290 8289 8280 8289 8286 8255 8242 8240 8238 8239 8245 8257 8254 8254 8248 8250 8262 8263 8258 8255 8251 8257 8247 8244 8240 8231 8228 8227 8226 8224 8220 8216 8222 8226 8231 8228 8229 8217 8214 8219 8217 8216 8220 8221 8223 8224 8222 8231 8229 8230 8229 8229 8233 8238 8242 8245 8247 8243 8242 8239 8238 8241 8238 8234 8233 8234 8237 


