P2
80 60
8267
8177 8182 8186 8191 8196 8195 8192 8196 8202 8207 8207 8206 8209 8207 8210 8210 8210 8203 8205 8205 8211 8212 8209 8205 8201 8197 8193 8193 8190 8192 8185 8181 8180 8171 8170 8165 8160 8158 8176 8216 8232 8237 8241 8238 8242 8244 8244 8246 8247 8245 8245 8240 8236 8235 8234 8235 8232 8229 8235 8234 8235 8242 8242 8242 8245 8244 8250 8251 8257 8258 8260 8260 8263 8267 8266 8263 8259 8258 8258 8255 
8173 8178 8182 8181 8185 8187 8187 8194 8192 8192 8196 8200 8201 8205 8209 8210 8207 8210 8206 8208 8210 8209 8209 8204 8201 8204 8200 8193 8194 8190 8180 8180 8176 8172 8168 8164 8159 8159 8172 8214 8228 8238 8238 8240 8243 8244 8243 8248 8249 8247 8245 8242 8235 8237 8235 8234 8232 8230 8234 8235 8242 8239 8241 8244 8245 8243 8247 8252 8255 8255 8256 8258 8261 8265 8265 8263 8260 8253 8247 8244 
8167 8163 8167 8162 8168 8173 8175 8182 8184 8185 8187 8188 8191 8194 8194 8197 8198 8197 8198 8198 8202 8206 8206 8203 8204 8202 8196 8196 8197 8195 8190 8194 8190 8189 8185 8179 8176 8176 8181 8221 8233 8240 8239 8241 8239 8244 8243 8246 8248 8245 8242 8242 8239 8236 8235 8236 8232 8229 8238 8237 8239 8239 8241 8239 8244 8243 8247 8251 8252 8256 8254 8256 8257 8261 8261 8256 8255 8251 8244 8243 
8154 8157 8163 8157 8167 8164 8170 8174 8180 8184 8182 8185 8188 8194 8201 8202 8203 8209 8210 8211 8211 8216 8218 8223 8226 8226 8227 8230 8234 8235 8235 8238 8237 8237 8238 8239 8233 8232 8233 8244 8246 8246 8245 8246 8243 8252 8249 8254 8253 8251 8248 8244 8242 8241 8239 8237 8235 8232 8236 8237 8238 8237 8236 8237 8237 8234 8238 8241 8240 8248 8247 8250 8250 8253 8252 8251 8252 8250 8238 8236 
8145 8163 8189 8191 8191 8190 8193 8197 8202 8200 8201 8203 8208 8209 8208 8213 8212 8215 8217 8224 8223 8226 8226 8230 8236 8237 8238 8242 8239 8243 8243 8249 8247 8250 8251 8250 8249 8251 8249 8250 8252 8254 8251 8249 8251 8253 8251 8255 8255 8253 8251 8246 8244 8244 8245 8239 8238 8236 8238 8233 8236 8230 8233 8228 8231 8228 8233 8231 8233 8236 8231 8238 8233 8237 8231 8228 8238 8241 8229 8231 
8147 8183 8205 8210 8210 8211 8214 8214 8211 8208 8209 8213 8214 8214 8215 8215 8213 8218 8218 8223 8228 8229 8229 8229 8236 8238 8238 8242 8244 8248 8247 8252 8254 8253 8256 8254 8253 8257 8251 8255 8254 8253 8255 8253 8252 8253 8254 8256 8258 8250 8251 8246 8246 8244 8244 8240 8238 8238 8240 8237 8238 8238 8232 8230 8231 8232 8229 8233 8230 8236 8234 8234 8233 8233 8228 8218 8229 8234 8227 8227 
8153 8204 8218 8213 8212 8214 8218 8224 8216 8209 8211 8218 8218 8216 8216 8215 8217 8220 8222 8226 8226 8228 8230 8233 8232 8238 8242 8240 8247 8249 8250 8253 8256 8255 8255 8255 8256 8257 8256 8255 8257 8253 8255 8254 8254 8254 8254 8253 8255 8249 8250 8247 8248 8248 8245 8243 8244 8239 8243 8242 8243 8236 8234 8230 8233 8229 8231 8234 8230 8233 8234 8233 8232 8231 8227 8220 8218 8225 8221 8225 
8167 8210 8215 8214 8216 8220 8221 8224 8216 8217 8220 8224 8223 8224 8221 8221 8221 8224 8228 8229 8230 8230 8233 8234 8237 8241 8239 8242 8245 8251 8250 8259 8255 8253 8253 8256 8254 8254 8257 8255 8259 8260 8260 8259 8256 8257 8258 8254 8254 8252 8251 8248 8248 8250 8248 8241 8240 8240 8243 8243 8242 8234 8235 8230 8236 8232 8231 8232 8229 8233 8230 8233 8232 8232 8227 8224 8216 8218 8221 8222 
8177 8208 8214 8214 8217 8219 8220 8222 8225 8220 8224 8225 8227 8226 8223 8224 8222 8228 8228 8232 8234 8234 8234 8235 8235 8240 8239 8240 8245 8247 8252 8254 8253 8254 8254 8254 8255 8257 8257 8259 8260 8258 8258 8255 8256 8255 8254 8253 8253 8248 8255 8248 8249 8245 8249 8241 8240 8244 8246 8245 8242 8237 8233 8231 8232 8230 8231 8232 8233 8233 8230 8231 8229 8228 8227 8223 8214 8213 8220 8217 
8193 8210 8214 8217 8217 8218 8221 8224 8227 8225 8222 8223 8225 8224 8223 8225 8223 8227 8233 8235 8236 8232 8235 8234 8237 8239 8242 8244 8249 8248 8252 8253 8256 8258 8256 8255 8258 8258 8258 8259 8262 8262 8261 8257 8255 8255 8255 8254 8254 8249 8255 8251 8249 8249 8249 8244 8243 8241 8241 8240 8241 8236 8234 8233 8235 8232 8231 8231 8230 8234 8234 8234 8231 8229 8226 8224 8220 8215 8218 8217 
8200 8212 8213 8217 8221 8221 8223 8226 8227 8223 8225 8225 8223 8222 8224 8225 8225 8228 8231 8234 8233 8235 8233 8237 8238 8240 8245 8245 8248 8250 8250 8255 8256 8257 8257 8258 8256 8258 8257 8258 8260 8260 8259 8259 8257 8258 8255 8253 8256 8249 8253 8249 8250 8247 8246 8244 8246 8245 8244 8241 8240 8235 8231 8230 8232 8229 8232 8231 8232 8232 8230 8234 8230 8227 8223 8222 8216 8214 8215 8213 
8206 8215 8216 8216 8219 8220 8221 8223 8224 8225 8228 8226 8224 8223 8223 8225 8228 8227 8232 8233 8234 8236 8237 8236 8238 8241 8245 8246 8249 8253 8252 8253 8257 8257 8257 8254 8256 8257 8259 8257 8261 8261 8259 8256 8259 8263 8257 8255 8260 8250 8256 8250 8249 8253 8248 8246 8244 8243 8242 8238 8241 8236 8232 8231 8235 8233 8234 8231 8233 8233 8232 8229 8228 8221 8223 8219 8217 8215 8214 8220 
8212 8223 8222 8216 8219 8219 8222 8225 8222 8223 8224 8224 8225 8226 8224 8228 8229 8232 8233 8237 8240 8239 8237 8238 8241 8244 8245 8247 8249 8251 8252 8254 8256 8256 8257 8254 8257 8255 8255 8255 8260 8258 8259 8260 8259 8259 8257 8256 8260 8249 8257 8251 8251 8250 8246 8246 8246 8244 8242 8239 8239 8232 8230 8231 8232 8231 8232 8233 8234 8236 8231 8231 8228 8223 8221 8221 8215 8218 8216 8216 
8225 8228 8224 8221 8222 8220 8223 8223 8224 8225 8229 8226 8228 8227 8229 8232 8231 8235 8236 8241 8239 8240 8240 8241 8243 8245 8246 8248 8250 8250 8249 8255 8253 8253 8257 8254 8254 8256 8262 8256 8256 8256 8258 8255 8258 8255 8255 8255 8256 8253 8257 8252 8254 8254 8253 8248 8246 8246 8242 8241 8240 8235 8234 8232 8234 8234 8237 8235 8234 8232 8230 8229 8230 8223 8220 8219 8219 8218 8216 8215 
8225 8224 8224 8225 8225 8227 8227 8227 8225 8226 8231 8229 8231 8231 8231 8234 8235 8238 8242 8240 8238 8241 8240 8238 8244 8248 8249 8250 8251 8253 8252 8253 8256 8254 8259 8255 8253 8262 8260 8258 8262 8258 8259 8257 8255 8255 8257 8251 8258 8252 8257 8253 8254 8251 8251 8248 8245 8248 8247 8245 8242 8236 8235 8233 8238 8236 8236 8237 8237 8233 8230 8227 8223 8219 8221 8222 8219 8218 8216 8216 
8229 8225 8225 8227 8227 8225 8229 8231 8227 8229 8232 8230 8231 8232 8236 8237 8239 8240 8242 8243 8241 8240 8243 8243 8245 8249 8251 8253 8253 8253 8256 8259 8258 8255 8256 8260 8259 8262 8262 8260 8261 8262 8259 8255 8258 8255 8253 8252 8257 8252 8258 8256 8253 8252 8252 8251 8245 8246 8245 8243 8244 8239 8235 8234 8236 8237 8238 8238 8235 8233 8230 8228 8227 8221 8222 8221 8220 8220 8219 8220 
8232 8231 8232 8232 8231 8231 8230 8230 8230 8232 8230 8232 8234 8234 8238 8239 8235 8240 8245 8244 8243 8243 8244 8243 8248 8252 8253 8256 8258 8262 8261 8261 8261 8260 8263 8263 8261 8261 8263 8262 8263 8264 8262 8261 8256 8254 8252 8252 8256 8254 8255 8250 8252 8248 8251 8245 8247 8246 8249 8247 8246 8240 8237 8234 8236 8240 8242 8239 8234 8233 8230 8228 8225 8221 8222 8223 8219 8220 8221 8221 
8235 8237 8236 8239 8237 8238 8236 8236 8232 8233 8235 8236 8236 8239 8238 8239 8238 8242 8245 8245 8245 8245 8249 8249 8253 8256 8263 8262 8261 8264 8264 8267 8265 8263 8264 8262 8261 8266 8262 8265 8259 8262 8260 8258 8256 8256 8254 8255 8255 8251 8254 8249 8253 8250 8250 8246 8248 8246 8248 8243 8244 8241 8241 8240 8237 8237 8240 8239 8235 8233 8227 8228 8226 8226 8224 8225 8223 8223 8226 8222 
8240 8239 8237 8240 8239 8242 8244 8245 8237 8233 8237 8237 8239 8240 8243 8243 8239 8242 8241 8248 8247 8250 8256 8251 8254 8261 8259 8263 8264 8263 8264 8264 8266 8266 8267 8261 8263 8265 8261 8263 8262 8262 8258 8259 8255 8254 8255 8253 8254 8249 8253 8252 8250 8248 8248 8244 8248 8243 8246 8242 8244 8239 8242 8239 8236 8239 8235 8234 8233 8229 8230 8228 8228 8226 8226 8227 8223 8225 8227 8226 
8244 8243 8242 8238 8240 8243 8244 8246 8244 8240 8238 8239 8239 8242 8239 8244 8242 8245 8245 8247 8250 8249 8249 8257 8250 8257 8255 8259 8260 8261 8262 8263 8267 8265 8265 8265 8263 8263 8260 8261 8260 8260 8255 8259 8254 8254 8256 8253 8254 8247 8251 8251 8251 8246 8247 8243 8247 8242 8247 8243 8242 8239 8241 8240 8238 8237 8236 8235 8232 8230 8227 8228 8225 8223 8224 8225 8226 8226 8229 8231 
8246 8245 8241 8232 8237 8237 8239 8247 8245 8244 8245 8240 8240 8239 8244 8244 8243 8245 8245 8246 8245 8247 8251 8252 8254 8255 8253 8255 8257 8260 8258 8259 8261 8263 8262 8260 8258 8262 8260 8259 8261 8255 8259 8256 8254 8254 8253 8252 8254 8252 8255 8252 8248 8248 8248 8246 8245 8242 8243 8243 8240 8242 8239 8238 8239 8234 8233 8234 8231 8228 8224 8224 8223 8222 8225 8226 8229 8229 8229 8231 
8239 8245 8240 8240 8237 8236 8232 8239 8235 8244 8247 8245 8246 8242 8245 8243 8240 8242 8237 8238 8243 8251 8253 8252 8253 8253 8251 8251 8256 8257 8258 8258 8262 8260 8260 8262 8257 8259 8257 8258 8257 8257 8256 8254 8251 8252 8256 8254 8253 8249 8251 8251 8249 8250 8250 8248 8242 8243 8240 8245 8242 8240 8240 8240 8237 8234 8233 8233 8231 8227 8223 8223 8224 8223 8224 8223 8227 8229 8231 8231 
8233 8241 8235 8234 8235 8232 8230 8229 8229 8241 8246 8247 8244 8244 8243 8240 8228 8210 8181 8192 8240 8246 8251 8250 8250 8253 8251 8249 8251 8252 8254 8253 8255 8256 8258 8258 8253 8235 8225 8256 8257 8253 8253 8252 8253 8253 8251 8252 8251 8249 8250 8251 8249 8247 8249 8246 8246 8244 8238 8242 8240 8245 8240 8239 8237 8237 8234 8233 8229 8228 8223 8222 8223 8223 8225 8223 8225 8229 8233 8230 
8233 8236 8233 8230 8234 8232 8228 8226 8233 8243 8248 8245 8246 8245 8245 8231 8162 8143 8141 8147 8219 8243 8247 8247 8249 8253 8252 8233 8205 8217 8232 8228 8224 8247 8252 8251 8251 8220 8235 8256 8257 8256 8252 8250 8253 8249 8252 8252 8251 8251 8252 8246 8246 8247 8247 8247 8243 8242 8241 8245 8243 8244 8242 8245 8244 8239 8236 8235 8231 8227 8225 8220 8224 8221 8225 8223 8227 8226 8232 8230 
8230 8230 8231 8230 8234 8230 8231 8229 8235 8241 8244 8244 8247 8247 8245 8238 8174 8132 8136 8140 8178 8236 8246 8247 8250 8251 8251 8228 8153 8147 8151 8155 8162 8178 8204 8198 8206 8172 8213 8247 8250 8249 8250 8249 8248 8249 8250 8249 8248 8245 8247 8245 8246 8247 8245 8248 8244 8242 8242 8245 8244 8244 8243 8248 8246 8244 8241 8241 8233 8229 8226 8222 8227 8223 8223 8222 8227 8223 8229 8229 
8229 8226 8228 8228 8229 8231 8233 8235 8235 8238 8240 8250 8247 8249 8247 8247 8222 8149 8136 8139 8146 8214 8242 8244 8246 8248 8247 8238 8170 8167 8164 8150 8190 8195 8194 8146 8142 8142 8155 8186 8214 8240 8248 8250 8248 8246 8251 8247 8250 8246 8248 8245 8244 8248 8246 8246 8244 8244 8244 8247 8246 8249 8246 8247 8246 8244 8243 8242 8241 8236 8233 8228 8226 8224 8225 8226 8225 8228 8228 8233 
8229 8230 8228 8231 8233 8236 8238 8236 8238 8242 8241 8246 8249 8246 8246 8249 8242 8196 8142 8141 8144 8169 8234 8244 8244 8237 8192 8164 8175 8174 8152 8146 8168 8171 8171 8151 8145 8139 8142 8147 8150 8177 8239 8249 8245 8246 8245 8245 8247 8243 8246 8246 8245 8249 8248 8246 8246 8247 8247 8249 8249 8246 8248 8246 8247 8247 8245 8243 8240 8238 8239 8235 8232 8225 8228 8228 8226 8228 8229 8234 
8229 8229 8231 8235 8241 8239 8243 8243 8244 8246 8244 8248 8248 8246 8245 8245 8242 8230 8160 8136 8139 8142 8208 8238 8246 8240 8205 8154 8138 8136 8140 8143 8148 8150 8153 8145 8143 8135 8136 8142 8141 8142 8160 8185 8213 8215 8229 8242 8246 8243 8245 8246 8244 8248 8246 8245 8243 8246 8248 8248 8248 8245 8248 8246 8247 8248 8245 8242 8244 8239 8242 8240 8239 8234 8234 8229 8232 8232 8230 8234 
8226 8233 8235 8237 8238 8240 8241 8243 8245 8247 8248 8250 8247 8244 8245 8244 8244 8241 8215 8146 8140 8138 8163 8227 8243 8240 8202 8145 8138 8136 8132 8134 8138 8140 8141 8136 8134 8133 8132 8139 8145 8139 8142 8147 8147 8157 8183 8213 8240 8240 8241 8233 8241 8246 8246 8248 8246 8247 8252 8245 8247 8246 8246 8246 8248 8246 8244 8242 8242 8241 8242 8237 8240 8242 8241 8236 8237 8235 8235 8236 
8229 8233 8234 8238 8245 8241 8244 8243 8244 8246 8249 8250 8246 8246 8245 8247 8246 8245 8237 8170 8136 8137 8143 8196 8237 8229 8156 8136 8136 8137 8132 8129 8135 8138 8140 8139 8136 8129 8128 8133 8140 8146 8156 8146 8146 8145 8168 8179 8204 8235 8232 8172 8226 8243 8244 8245 8247 8248 8246 8248 8248 8247 8247 8249 8251 8249 8246 8243 8242 8240 8243 8242 8241 8244 8239 8242 8240 8242 8240 8239 
8230 8237 8237 8239 8242 8241 8242 8245 8244 8242 8245 8245 8244 8246 8246 8247 8246 8244 8241 8223 8150 8137 8141 8156 8214 8168 8137 8131 8131 8129 8131 8129 8128 8132 8134 8140 8139 8131 8125 8127 8135 8155 8154 8148 8153 8153 8187 8188 8173 8197 8181 8148 8177 8218 8211 8222 8241 8245 8244 8246 8244 8247 8248 8248 8247 8246 8248 8245 8243 8242 8245 8242 8243 8243 8243 8243 8245 8242 8243 8243 
8235 8241 8240 8241 8241 8245 8245 8246 8244 8242 8244 8245 8243 8243 8242 8246 8244 8245 8239 8234 8187 8139 8139 8140 8148 8138 8135 8133 8128 8130 8128 8130 8129 8122 8129 8134 8132 8139 8135 8128 8133 8143 8142 8147 8145 8136 8163 8151 8144 8143 8138 8142 8146 8153 8170 8205 8236 8243 8243 8244 8244 8245 8247 8247 8247 8245 8245 8247 8243 8245 8246 8245 8245 8245 8242 8246 8246 8245 8247 8248 
8239 8243 8246 8242 8242 8245 8245 8245 8245 8245 8244 8246 8243 8243 8245 8246 8247 8241 8241 8238 8224 8173 8140 8140 8136 8138 8147 8143 8132 8130 8130 8131 8132 8126 8135 8137 8137 8136 8133 8132 8128 8131 8134 8146 8164 8157 8149 8138 8140 8139 8137 8139 8147 8157 8206 8234 8240 8240 8241 8245 8243 8247 8246 8248 8249 8248 8245 8247 8246 8243 8247 8245 8247 8245 8245 8244 8243 8243 8249 8246 
8246 8247 8248 8245 8247 8247 8245 8245 8243 8243 8245 8247 8243 8244 8242 8244 8246 8247 8243 8241 8236 8213 8150 8142 8139 8134 8135 8133 8134 8135 8133 8131 8124 8128 8133 8141 8138 8139 8129 8128 8130 8127 8130 8136 8153 8146 8133 8133 8133 8139 8142 8145 8144 8145 8182 8234 8238 8239 8242 8244 8244 8245 8245 8245 8247 8243 8246 8244 8244 8245 8247 8245 8247 8245 8243 8243 8245 8245 8246 8245 
8247 8249 8249 8246 8245 8246 8244 8245 8243 8244 8247 8244 8244 8244 8245 8246 8245 8245 8244 8241 8241 8227 8173 8144 8143 8141 8134 8133 8132 8133 8132 8130 8131 8135 8130 8137 8142 8139 8133 8132 8126 8128 8123 8126 8128 8129 8128 8126 8127 8132 8137 8147 8142 8140 8189 8232 8240 8241 8244 8248 8247 8246 8247 8246 8246 8248 8245 8243 8244 8246 8246 8244 8245 8242 8242 8246 8245 8244 8245 8244 
8253 8254 8249 8249 8245 8246 8249 8250 8249 8244 8245 8244 8244 8245 8246 8248 8246 8247 8247 8241 8243 8229 8165 8141 8139 8139 8134 8132 8130 8134 8138 8128 8132 8138 8133 8129 8136 8134 8142 8162 8162 8133 8128 8124 8126 8140 8132 8126 8130 8134 8143 8152 8148 8142 8177 8232 8241 8243 8247 8246 8246 8245 8246 8247 8248 8247 8247 8248 8245 8242 8244 8246 8244 8245 8244 8246 8246 8243 8243 8244 
8250 8256 8252 8247 8249 8246 8250 8246 8247 8242 8243 8245 8244 8242 8241 8244 8246 8243 8243 8243 8239 8212 8158 8149 8145 8143 8135 8133 8132 8135 8135 8139 8132 8135 8128 8129 8131 8139 8129 8146 8155 8132 8128 8119 8129 8136 8130 8126 8130 8130 8135 8156 8179 8176 8181 8233 8238 8243 8242 8246 8244 8244 8245 8247 8246 8247 8245 8246 8244 8242 8248 8245 8245 8243 8244 8245 8245 8241 8243 8240 
8251 8254 8252 8248 8251 8251 8248 8250 8246 8246 8247 8248 8247 8243 8243 8242 8243 8244 8245 8242 8241 8202 8160 8160 8153 8152 8145 8140 8141 8138 8145 8143 8144 8132 8130 8132 8133 8138 8130 8128 8132 8128 8125 8121 8128 8134 8128 8131 8128 8126 8132 8158 8180 8214 8228 8237 8238 8241 8244 8242 8244 8244 8247 8247 8247 8245 8245 8247 8243 8240 8245 8243 8244 8243 8246 8247 8245 8242 8240 8242 
8254 8257 8251 8250 8248 8251 8249 8250 8242 8243 8252 8246 8244 8246 8239 8242 8239 8244 8243 8243 8238 8193 8163 8163 8154 8157 8160 8161 8161 8146 8143 8141 8141 8134 8133 8137 8132 8132 8134 8134 8130 8129 8125 8127 8145 8142 8132 8129 8124 8131 8132 8141 8164 8212 8233 8239 8239 8241 8243 8243 8244 8247 8248 8247 8245 8245 8244 8248 8246 8245 8245 8242 8244 8244 8245 8247 8244 8241 8239 8240 
8256 8255 8255 8251 8253 8252 8251 8248 8245 8245 8249 8247 8243 8243 8241 8239 8240 8241 8245 8243 8236 8192 8172 8163 8150 8157 8158 8161 8155 8147 8145 8143 8146 8139 8134 8134 8132 8131 8125 8122 8129 8129 8126 8128 8149 8151 8127 8122 8125 8134 8139 8145 8165 8204 8235 8238 8237 8239 8242 8241 8242 8248 8245 8248 8247 8247 8247 8249 8244 8243 8245 8245 8245 8243 8243 8244 8246 8242 8241 8237 
8253 8255 8253 8250 8250 8252 8246 8246 8243 8244 8245 8245 8242 8242 8241 8238 8240 8244 8244 8243 8240 8198 8199 8181 8155 8157 8159 8155 8152 8146 8143 8140 8142 8139 8138 8139 8137 8132 8131 8120 8125 8127 8126 8129 8141 8154 8143 8123 8128 8155 8157 8146 8170 8202 8235 8236 8240 8239 8241 8242 8245 8249 8246 8248 8248 8247 8246 8244 8244 8243 8245 8246 8244 8246 8242 8245 8241 8239 8241 8240 
8251 8255 8254 8248 8246 8247 8243 8244 8242 8245 8246 8244 8246 8244 8244 8242 8241 8242 8244 8244 8240 8207 8213 8193 8166 8162 8160 8160 8155 8150 8151 8142 8140 8147 8141 8140 8133 8132 8127 8124 8129 8125 8122 8128 8131 8164 8155 8128 8140 8162 8169 8175 8178 8203 8235 8238 8238 8238 8242 8243 8241 8249 8247 8253 8250 8251 8247 8245 8244 8243 8244 8247 8245 8243 8245 8246 8242 8241 8239 8237 
8249 8254 8251 8247 8242 8244 8243 8245 8244 8248 8248 8245 8246 8246 8241 8239 8243 8245 8243 8243 8239 8223 8210 8189 8168 8165 8169 8162 8160 8154 8152 8148 8146 8145 8146 8144 8130 8137 8142 8128 8135 8126 8117 8125 8134 8147 8136 8138 8159 8163 8173 8179 8181 8209 8237 8241 8238 8240 8242 8243 8245 8249 8252 8252 8250 8246 8246 8244 8243 8245 8243 8244 8244 8246 8247 8247 8242 8239 8241 8237 
8252 8254 8254 8248 8248 8247 8246 8245 8247 8247 8252 8246 8249 8249 8246 8243 8241 8243 8241 8240 8241 8227 8211 8195 8178 8172 8169 8170 8169 8164 8158 8158 8151 8147 8147 8149 8146 8155 8152 8135 8131 8124 8124 8123 8130 8134 8130 8135 8155 8155 8166 8183 8182 8218 8237 8239 8239 8237 8239 8243 8245 8248 8249 8248 8251 8247 8248 8249 8244 8244 8244 8244 8246 8246 8249 8248 8244 8241 8237 8239 
8251 8257 8250 8245 8242 8242 8244 8245 8244 8246 8248 8246 8247 8247 8246 8244 8244 8246 8241 8240 8238 8231 8212 8200 8183 8181 8179 8177 8184 8164 8160 8153 8142 8144 8145 8149 8154 8161 8153 8130 8123 8120 8125 8130 8130 8128 8123 8130 8143 8148 8165 8176 8182 8226 8240 8242 8240 8237 8242 8241 8244 8246 8249 8247 8248 8245 8247 8246 8244 8244 8245 8242 8247 8244 8246 8249 8244 8239 8237 8238 
8251 8256 8253 8245 8246 8243 8246 8245 8246 8247 8247 8243 8243 8248 8250 8248 8247 8243 8241 8241 8241 8236 8215 8203 8188 8179 8179 8181 8180 8172 8158 8152 8134 8138 8149 8147 8158 8159 8156 8147 8130 8125 8139 8145 8127 8127 8129 8130 8135 8149 8171 8176 8197 8232 8238 8240 8238 8239 8242 8242 8244 8245 8243 8244 8249 8249 8246 8246 8245 8245 8246 8245 8246 8245 8244 8243 8245 8239 8238 8238 
8255 8256 8249 8248 8250 8247 8252 8248 8245 8250 8246 8247 8247 8248 8246 8246 8245 8245 8241 8240 8239 8241 8219 8201 8198 8181 8175 8181 8179 8172 8164 8161 8146 8134 8146 8151 8149 8152 8153 8139 8131 8138 8156 8148 8124 8126 8145 8142 8144 8160 8177 8180 8217 8235 8239 8240 8238 8239 8242 8246 8242 8241 8240 8242 8247 8248 8247 8245 8244 8243 8244 8241 8245 8243 8244 8241 8241 8238 8239 8236 
8256 8255 8251 8248 8249 8249 8244 8250 8247 8250 8248 8246 8249 8247 8247 8247 8251 8245 8248 8242 8245 8242 8235 8197 8204 8197 8172 8176 8178 8174 8162 8166 8158 8149 8142 8146 8152 8152 8152 8140 8153 8164 8164 8170 8131 8137 8158 8163 8155 8173 8182 8193 8234 8238 8240 8238 8239 8240 8241 8241 8242 8242 8241 8244 8247 8245 8243 8245 8244 8246 8243 8246 8245 8243 8243 8239 8235 8238 8238 8237 
8251 8253 8252 8248 8249 8252 8250 8249 8252 8248 8249 8247 8246 8243 8247 8245 8248 8245 8245 8242 8241 8243 8240 8213 8195 8201 8188 8182 8181 8183 8179 8173 8171 8167 8159 8152 8165 8155 8162 8162 8172 8172 8168 8164 8158 8162 8164 8167 8167 8176 8182 8219 8236 8238 8238 8236 8238 8237 8235 8240 8241 8240 8240 8242 8240 8240 8241 8239 8242 8242 8240 8242 8239 8239 8237 8234 8236 8237 8232 8235 
8252 8250 8252 8249 8248 8248 8250 8249 8252 8246 8249 8249 8249 8248 8246 8242 8244 8243 8247 8245 8240 8244 8242 8231 8195 8200 8203 8196 8187 8181 8180 8181 8176 8174 8173 8170 8184 8172 8167 8167 8170 8171 8165 8165 8170 8165 8163 8175 8178 8183 8208 8238 8238 8242 8239 8240 8239 8237 8236 8237 8239 8240 8239 8238 8236 8234 8235 8238 8239 8236 8239 8236 8240 8238 8239 8235 8235 8234 8233 8234 
8250 8248 8246 8247 8247 8251 8251 8247 8247 8246 8248 8248 8248 8250 8245 8244 8244 8243 8247 8245 8242 8245 8244 8238 8206 8191 8198 8201 8191 8186 8183 8184 8181 8174 8171 8186 8189 8186 8174 8174 8168 8172 8179 8183 8183 8177 8176 8187 8181 8192 8228 8241 8242 8242 8240 8239 8239 8237 8236 8237 8239 8240 8236 8234 8230 8232 8231 8232 8238 8240 8238 8234 8236 8236 8235 8238 8236 8234 8233 8232 
8244 8250 8246 8247 8247 8247 8246 8251 8248 8244 8246 8247 8245 8250 8242 8243 8241 8248 8244 8244 8242 8243 8244 8245 8223 8203 8194 8203 8203 8194 8190 8179 8179 8177 8183 8185 8187 8181 8181 8180 8165 8164 8172 8187 8192 8185 8187 8188 8193 8213 8236 8239 8242 8243 8240 8239 8235 8235 8235 8239 8236 8239 8236 8232 8228 8229 8229 8230 8236 8235 8236 8236 8234 8235 8234 8235 8235 8232 8232 8233 
8246 8250 8248 8249 8249 8249 8248 8253 8252 8248 8242 8245 8247 8248 8242 8243 8242 8248 8241 8245 8242 8248 8244 8243 8238 8214 8205 8200 8201 8204 8198 8187 8187 8190 8189 8188 8187 8187 8181 8179 8169 8167 8170 8183 8188 8189 8188 8198 8211 8225 8242 8244 8241 8243 8242 8236 8236 8236 8234 8237 8237 8242 8234 8232 8229 8230 8229 8230 8235 8234 8237 8237 8237 8232 8239 8232 8230 8232 8231 8233 
8246 8250 8251 8249 8252 8250 8252 8248 8247 8246 8242 8247 8247 8250 8248 8243 8241 8246 8240 8243 8241 8243 8247 8244 8243 8231 8207 8205 8208 8206 8205 8200 8197 8192 8189 8187 8183 8182 8171 8169 8167 8170 8181 8189 8191 8197 8208 8214 8221 8239 8246 8244 8240 8241 8240 8237 8235 8233 8234 8238 8240 8237 8232 8230 8231 8228 8229 8227 8230 8232 8236 8233 8234 8231 8233 8234 8231 8227 8232 8229 
8244 8254 8255 8251 8249 8244 8250 8248 8246 8248 8245 8247 8247 8248 8245 8246 8242 8244 8243 8244 8244 8243 8244 8248 8246 8238 8222 8210 8208 8222 8223 8211 8204 8200 8199 8191 8186 8186 8181 8182 8186 8191 8198 8206 8214 8219 8214 8223 8234 8245 8246 8239 8240 8237 8238 8234 8234 8233 8235 8237 8235 8236 8231 8228 8230 8228 8224 8230 8228 8230 8230 8232 8236 8230 8229 8228 8227 8228 8224 8228 
8248 8256 8256 8249 8246 8247 8246 8245 8243 8248 8246 8243 8247 8245 8248 8246 8239 8247 8238 8243 8246 8244 8246 8247 8247 8235 8235 8223 8214 8211 8222 8236 8234 8217 8209 8206 8201 8199 8195 8201 8213 8222 8233 8231 8222 8214 8217 8234 8241 8245 8242 8239 8237 8240 8234 8230 8230 8231 8233 8236 8228 8228 8227 8227 8228 8226 8229 8227 8228 8231 8232 8229 8230 8228 8231 8224 8225 8224 8222 8224 
8252 8257 8256 8249 8244 8244 8250 8244 8244 8248 8246 8248 8247 8247 8245 8240 8239 8244 8240 8242 8242 8243 8241 8248 8247 8239 8237 8237 8229 8218 8212 8212 8232 8236 8240 8240 8237 8237 8231 8236 8237 8237 8227 8219 8216 8219 8234 8241 8243 8243 8240 8237 8233 8238 8233 8232 8228 8229 8229 8230 8228 8224 8224 8227 8225 8229 8231 8230 8231 8229 8229 8229 8229 8227 8224 8225 8225 8224 8219 8220 
8252 8254 8249 8241 8242 8243 8245 8241 8246 8247 8245 8243 8242 8242 8243 8236 8236 8243 8243 8239 8239 8238 8242 8243 8245 8242 8245 8241 8241 8231 8214 8212 8213 8208 8216 8223 8231 8230 8226 8223 8220 8213 8209 8216 8222 8229 8236 8245 8239 8242 8238 8237 8231 8237 8233 8227 8228 8226 8224 8224 8223 8227 8222 8225 8225 8226 8229 8229 8236 8232 8228 8227 8225 8224 8223 8223 8221 8217 8216 8217 
8253 8248 8241 8237 8236 8234 8240 8247 8241 8239 8240 8234 8236 8240 8239 8232 8232 8234 8237 8235 8237 8234 8235 8243 8247 8247 8247 8249 8242 8239 8234 8226 8214 8213 8204 8207 8210 8207 8210 8215 8214 8216 8221 8226 8231 8233 8236 8240 8243 8243 8237 8234 8231 8233 8228 8226 8224 8225 8225 8225 8225 8228 8224 8225 8224 8224 8230 8230 8234 8230 8230 8225 8226 8225 8226 8222 8218 8214 8213 8216 
8255 8242 8239 8236 8234 8238 8242 8245 8240 8236 8237 8233 8232 8233 8233 8230 8237 8231 8232 8237 8234 8232 8238 8242 8244 8249 8247 8250 8246 8243 8239 8235 8232 8227 8222 8217 8222 8219 8228 8234 8236 8235 8236 8235 8234 8237 8238 8242 8241 8242 8238 8234 8235 8232 8230 8229 8224 8225 8224 8226 8225 8225 8222 8223 8227 8225 8234 8233 8236 8231 8232 8229 8227 8226 8221 8219 8214 8218 8213 8215 


