P2
80 60
8300
8263 8262 8263 8263 8260 8262 8261 8260 8259 8264 8262 8257 8256 8259 8257 8260 8260 8263 8260 8262 8260 8261 8261 8262 8264 8262 8261 8263 8261 8263 8266 8271 8266 8264 8266 8268 8266 8263 8265 8261 8259 8261 8261 8260 8258 8255 8255 8255 8253 8253 8252 8250 8251 8250 8242 8244 8241 8245 8238 8242 8240 8236 8239 8237 8238 8236 8234 8236 8240 8244 8240 8242 8246 8247 8244 8246 8243 8239 8242 8240 
8260 8262 8264 8264 8261 8258 8263 8263 8260 8260 8262 8261 8257 8260 8258 8260 8259 8262 8260 8264 8263 8262 8262 8265 8265 8262 8262 8262 8261 8263 8267 8270 8263 8267 8266 8267 8267 8266 8262 8265 8260 8262 8259 8258 8259 8257 8258 8255 8253 8254 8253 8251 8253 8249 8246 8242 8243 8242 8242 8241 8241 8239 8237 8237 8237 8236 8236 8235 8238 8239 8238 8238 8245 8245 8243 8243 8244 8237 8239 8236 
8260 8264 8260 8265 8264 8262 8262 8263 8261 8266 8259 8258 8258 8261 8257 8261 8260 8261 8260 8261 8264 8260 8262 8264 8265 8260 8260 8263 8264 8268 8268 8270 8265 8265 8266 8266 8265 8264 8263 8264 8260 8262 8263 8260 8259 8257 8256 8255 8255 8254 8254 8249 8249 8249 8242 8244 8245 8242 8243 8240 8240 8238 8237 8236 8233 8235 8239 8235 8237 8237 8236 8242 8245 8244 8241 8242 8239 8239 8240 8236 
8259 8266 8263 8263 8264 8261 8259 8263 8261 8263 8264 8260 8257 8260 8261 8260 8259 8262 8261 8262 8262 8263 8260 8264 8265 8262 8263 8263 8263 8262 8268 8272 8266 8265 8266 8266 8265 8263 8261 8263 8260 8261 8262 8262 8255 8256 8256 8255 8254 8255 8253 8249 8251 8247 8243 8246 8245 8243 8243 8243 8241 8239 8239 8238 8236 8237 8236 8237 8238 8238 8238 8239 8241 8243 8241 8242 8239 8235 8235 8242 
8263 8264 8264 8267 8263 8262 8259 8264 8265 8263 8261 8261 8258 8258 8258 8256 8257 8257 8259 8260 8262 8259 8259 8261 8262 8259 8262 8260 8261 8264 8264 8268 8264 8261 8263 8266 8266 8265 8264 8264 8258 8259 8257 8257 8257 8258 8257 8253 8253 8254 8252 8247 8251 8247 8247 8245 8245 8243 8244 8243 8240 8239 8239 8240 8233 8236 8235 8233 8234 8237 8233 8236 8241 8239 8236 8240 8237 8235 8236 8231 
8261 8264 8260 8264 8261 8263 8260 8261 8261 8263 8259 8259 8259 8254 8259 8257 8259 8262 8261 8261 8259 8257 8259 8262 8262 8257 8259 8260 8261 8262 8264 8266 8263 8263 8263 8265 8266 8266 8265 8262 8258 8260 8261 8258 8257 8255 8254 8253 8251 8252 8251 8246 8247 8247 8246 8245 8244 8244 8241 8244 8242 8236 8238 8235 8233 8233 8233 8233 8238 8237 8234 8235 8234 8236 8237 8239 8239 8235 8232 8241 
8260 8260 8260 8267 8260 8259 8261 8263 8261 8263 8260 8260 8255 8258 8256 8258 8259 8260 8260 8260 8259 8255 8260 8260 8260 8257 8259 8259 8258 8260 8263 8265 8260 8259 8260 8261 8265 8262 8261 8259 8255 8257 8260 8259 8256 8253 8253 8251 8249 8250 8252 8247 8248 8248 8244 8246 8246 8243 8244 8242 8241 8238 8234 8236 8235 8234 8231 8234 8236 8234 8230 8234 8235 8234 8233 8235 8232 8233 8234 8232 
8257 8259 8257 8261 8261 8261 8257 8263 8261 8261 8257 8260 8253 8258 8257 8253 8255 8258 8259 8260 8257 8255 8256 8261 8259 8255 8256 8259 8258 8259 8259 8263 8257 8258 8256 8261 8259 8263 8259 8259 8258 8257 8257 8257 8255 8253 8252 8251 8250 8249 8248 8247 8246 8244 8242 8246 8246 8241 8240 8238 8240 8237 8233 8236 8232 8233 8229 8231 8231 8228 8230 8228 8229 8230 8231 8229 8230 8226 8230 8230 
8259 8259 8259 8262 8258 8259 8257 8258 8258 8262 8258 8257 8255 8260 8256 8255 8258 8256 8257 8258 8257 8252 8253 8256 8258 8254 8255 8253 8259 8258 8259 8266 8257 8256 8256 8259 8264 8260 8257 8259 8253 8258 8258 8258 8255 8250 8249 8252 8250 8251 8250 8244 8243 8245 8246 8243 8243 8241 8239 8241 8238 8235 8234 8235 8233 8232 8231 8233 8227 8231 8226 8226 8231 8230 8228 8227 8227 8224 8224 8231 
8256 8258 8257 8261 8258 8258 8258 8260 8257 8259 8256 8259 8253 8255 8255 8255 8255 8257 8256 8256 8255 8252 8254 8259 8259 8251 8251 8254 8255 8257 8258 8262 8259 8256 8254 8258 8260 8260 8259 8261 8256 8257 8258 8255 8253 8254 8250 8250 8248 8248 8248 8246 8246 8244 8244 8241 8241 8239 8239 8242 8237 8236 8234 8230 8231 8231 8230 8232 8227 8227 8227 8226 8227 8229 8226 8225 8226 8223 8225 8223 
8259 8260 8260 8259 8259 8257 8258 8262 8256 8260 8260 8257 8252 8258 8253 8254 8255 8255 8254 8256 8253 8249 8252 8256 8254 8253 8251 8251 8253 8257 8258 8261 8258 8254 8257 8258 8260 8258 8257 8257 8255 8255 8253 8254 8252 8248 8249 8248 8249 8249 8249 8246 8245 8242 8242 8241 8243 8239 8236 8241 8237 8229 8232 8230 8228 8229 8230 8228 8228 8224 8229 8225 8227 8223 8222 8226 8223 8221 8221 8227 
8254 8258 8258 8262 8261 8256 8255 8258 8261 8258 8257 8253 8255 8254 8253 8253 8254 8255 8253 8255 8252 8252 8251 8255 8256 8249 8253 8255 8254 8254 8260 8260 8257 8253 8254 8255 8256 8254 8255 8257 8253 8255 8252 8254 8249 8247 8250 8247 8246 8249 8247 8244 8243 8242 8238 8240 8241 8241 8235 8235 8235 8231 8231 8230 8228 8228 8228 8227 8227 8226 8225 8221 8225 8223 8221 8224 8221 8219 8221 8215 
8255 8258 8256 8261 8258 8256 8257 8258 8257 8257 8254 8253 8254 8255 8256 8253 8255 8254 8252 8253 8252 8250 8252 8255 8252 8248 8248 8250 8250 8255 8254 8256 8254 8251 8252 8255 8255 8254 8255 8251 8253 8253 8253 8254 8250 8249 8244 8242 8243 8247 8247 8242 8244 8240 8237 8242 8241 8236 8234 8234 8232 8230 8233 8230 8228 8228 8224 8227 8226 8226 8223 8220 8224 8223 8219 8224 8218 8216 8217 8218 
8250 8256 8256 8259 8256 8254 8256 8256 8253 8254 8252 8251 8251 8255 8253 8254 8252 8253 8257 8253 8251 8249 8251 8253 8254 8248 8248 8250 8249 8251 8252 8256 8254 8254 8254 8250 8252 8254 8251 8252 8251 8250 8252 8249 8248 8249 8246 8247 8246 8245 8243 8240 8241 8242 8239 8239 8236 8234 8234 8234 8231 8229 8230 8229 8226 8225 8225 8227 8226 8227 8222 8221 8222 8221 8219 8218 8215 8213 8216 8216 
8254 8256 8256 8256 8255 8253 8255 8257 8254 8253 8255 8252 8250 8248 8250 8251 8254 8252 8255 8254 8251 8253 8253 8255 8255 8247 8247 8250 8249 8250 8252 8254 8251 8252 8253 8251 8251 8250 8255 8252 8247 8250 8248 8251 8249 8247 8246 8246 8242 8242 8242 8239 8240 8239 8237 8238 8237 8232 8236 8230 8228 8234 8230 8229 8228 8228 8227 8229 8222 8226 8221 8222 8221 8221 8219 8219 8215 8215 8216 8214 
8251 8255 8256 8258 8253 8253 8255 8255 8253 8253 8251 8250 8250 8250 8250 8251 8251 8248 8254 8252 8251 8249 8250 8251 8253 8248 8247 8246 8247 8250 8251 8251 8250 8246 8246 8247 8248 8250 8247 8245 8243 8248 8249 8249 8247 8243 8245 8244 8240 8242 8239 8235 8237 8237 8236 8233 8232 8233 8233 8231 8230 8231 8230 8230 8226 8227 8227 8226 8225 8226 8221 8219 8216 8220 8218 8218 8214 8212 8212 8212 
8252 8256 8252 8253 8256 8254 8254 8252 8251 8254 8249 8252 8251 8252 8248 8251 8251 8254 8253 8252 8248 8247 8248 8251 8250 8246 8246 8246 8248 8248 8249 8251 8247 8248 8248 8247 8248 8247 8246 8243 8240 8244 8243 8246 8243 8241 8237 8238 8238 8241 8240 8233 8236 8237 8233 8235 8232 8235 8232 8229 8230 8228 8228 8230 8229 8227 8227 8225 8224 8223 8225 8220 8218 8220 8217 8218 8214 8213 8211 8212 
8254 8255 8254 8254 8255 8251 8255 8253 8252 8252 8249 8247 8250 8252 8248 8252 8251 8254 8252 8249 8249 8246 8246 8251 8251 8245 8243 8247 8246 8249 8244 8250 8246 8246 8249 8245 8245 8246 8247 8246 8239 8238 8241 8240 8238 8238 8235 8232 8234 8237 8237 8235 8237 8235 8233 8236 8233 8233 8230 8229 8229 8229 8227 8230 8228 8231 8229 8229 8225 8224 8221 8222 8219 8218 8218 8217 8214 8210 8213 8209 
8248 8256 8251 8256 8252 8253 8250 8254 8250 8254 8248 8251 8250 8250 8248 8247 8247 8251 8247 8248 8246 8242 8246 8245 8249 8243 8244 8245 8244 8246 8245 8248 8244 8245 8242 8246 8250 8248 8241 8243 8236 8240 8236 8237 8234 8232 8235 8235 8232 8235 8238 8233 8236 8234 8233 8237 8235 8233 8232 8229 8227 8230 8230 8227 8227 8227 8228 8225 8224 8225 8222 8219 8219 8216 8214 8214 8213 8211 8211 8210 
8251 8256 8254 8255 8252 8251 8252 8251 8250 8252 8249 8248 8247 8251 8250 8246 8247 8248 8248 8247 8244 8243 8243 8248 8245 8239 8241 8240 8243 8246 8245 8248 8240 8240 8241 8241 8244 8243 8238 8241 8233 8237 8237 8238 8235 8231 8231 8236 8231 8237 8239 8234 8236 8235 8234 8232 8234 8232 8230 8231 8227 8227 8230 8229 8229 8229 8227 8224 8222 8222 8223 8220 8216 8216 8216 8217 8212 8209 8209 8208 
8251 8253 8252 8256 8252 8250 8251 8248 8246 8252 8246 8250 8250 8248 8248 8248 8250 8248 8245 8243 8240 8241 8240 8242 8245 8242 8236 8239 8239 8242 8246 8247 8240 8238 8241 8240 8242 8241 8239 8236 8232 8232 8228 8230 8231 8228 8229 8231 8231 8235 8235 8233 8232 8233 8233 8235 8234 8232 8230 8232 8228 8228 8229 8228 8227 8227 8226 8226 8226 8223 8220 8217 8217 8216 8214 8214 8212 8209 8211 8212 
8254 8253 8253 8252 8255 8250 8247 8249 8246 8251 8247 8250 8247 8248 8248 8247 8247 8248 8244 8240 8240 8241 8239 8241 8242 8238 8236 8238 8239 8245 8245 8244 8239 8238 8239 8239 8238 8239 8236 8219 8184 8192 8198 8229 8228 8229 8229 8229 8228 8232 8234 8229 8231 8233 8233 8232 8232 8233 8231 8229 8227 8230 8229 8230 8228 8227 8227 8224 8226 8223 8221 8220 8216 8218 8215 8212 8214 8207 8210 8211 
8248 8253 8251 8252 8250 8250 8250 8249 8249 8247 8251 8244 8246 8247 8247 8245 8245 8247 8243 8239 8237 8233 8226 8231 8233 8234 8235 8235 8238 8238 8237 8240 8238 8236 8229 8227 8234 8234 8230 8214 8158 8143 8165 8187 8215 8223 8227 8227 8207 8212 8217 8226 8229 8231 8230 8231 8234 8235 8231 8227 8226 8227 8229 8229 8224 8227 8226 8224 8223 8222 8220 8218 8216 8219 8216 8216 8215 8212 8210 8208 
8251 8252 8251 8254 8249 8247 8249 8251 8246 8246 8241 8246 8244 8246 8245 8246 8245 8244 8240 8242 8235 8231 8187 8184 8227 8231 8234 8231 8211 8186 8198 8217 8209 8195 8192 8170 8183 8218 8213 8185 8166 8149 8183 8177 8217 8206 8199 8217 8156 8156 8164 8212 8227 8232 8228 8233 8232 8234 8229 8228 8223 8227 8225 8227 8228 8228 8223 8224 8222 8221 8221 8218 8218 8218 8216 8219 8214 8211 8212 8210 
8251 8251 8250 8251 8248 8248 8248 8245 8246 8245 8243 8246 8241 8247 8248 8247 8244 8239 8240 8237 8236 8229 8190 8184 8231 8227 8228 8213 8181 8147 8147 8148 8147 8150 8166 8165 8194 8189 8174 8175 8192 8177 8198 8199 8224 8224 8208 8174 8160 8152 8204 8223 8226 8230 8229 8230 8233 8234 8227 8225 8224 8226 8227 8228 8226 8224 8224 8222 8222 8222 8221 8218 8216 8216 8214 8216 8214 8211 8210 8213 
8251 8251 8254 8253 8250 8246 8245 8246 8242 8245 8243 8244 8243 8244 8244 8242 8241 8236 8232 8224 8226 8226 8204 8201 8228 8224 8222 8193 8169 8141 8157 8143 8142 8148 8174 8188 8195 8218 8177 8183 8180 8168 8154 8154 8179 8218 8207 8167 8146 8146 8197 8218 8217 8218 8228 8229 8230 8215 8219 8222 8224 8227 8228 8227 8224 8223 8222 8223 8224 8224 8219 8219 8215 8218 8215 8217 8217 8211 8209 8212 
8251 8255 8249 8252 8248 8249 8246 8244 8245 8245 8242 8243 8245 8244 8244 8233 8212 8200 8213 8225 8221 8207 8191 8171 8179 8218 8206 8190 8148 8139 8152 8145 8145 8153 8166 8167 8199 8214 8165 8152 8176 8215 8184 8175 8154 8182 8154 8147 8137 8155 8174 8182 8209 8222 8231 8230 8217 8201 8204 8203 8217 8224 8224 8225 8225 8225 8226 8224 8222 8222 8219 8217 8219 8220 8215 8217 8214 8213 8211 8208 
8250 8252 8247 8249 8247 8246 8248 8246 8245 8244 8245 8242 8242 8240 8220 8180 8203 8231 8234 8236 8234 8226 8175 8165 8195 8219 8201 8185 8156 8142 8140 8147 8152 8148 8141 8141 8154 8165 8150 8153 8165 8199 8213 8168 8166 8174 8155 8142 8135 8181 8162 8164 8212 8226 8226 8226 8209 8204 8204 8205 8221 8228 8227 8226 8220 8224 8223 8223 8224 8221 8221 8219 8217 8220 8217 8217 8213 8212 8211 8214 
8252 8249 8251 8251 8250 8244 8243 8245 8250 8245 8244 8247 8245 8236 8185 8214 8240 8237 8237 8241 8236 8228 8205 8199 8217 8221 8197 8170 8173 8142 8138 8150 8141 8143 8141 8132 8136 8143 8150 8173 8168 8157 8198 8156 8145 8154 8152 8147 8146 8163 8154 8164 8194 8226 8227 8225 8207 8204 8206 8210 8226 8226 8227 8224 8222 8223 8223 8225 8222 8223 8219 8219 8220 8219 8216 8218 8212 8211 8212 8211 
8248 8250 8249 8251 8248 8246 8244 8247 8246 8248 8245 8246 8244 8234 8199 8240 8238 8241 8239 8240 8231 8228 8231 8215 8196 8203 8184 8171 8149 8144 8142 8150 8138 8139 8143 8135 8144 8144 8160 8172 8156 8153 8180 8155 8146 8137 8143 8147 8146 8154 8168 8174 8173 8224 8227 8221 8207 8210 8212 8217 8227 8225 8225 8224 8221 8223 8223 8224 8222 8220 8222 8217 8217 8220 8215 8219 8215 8214 8211 8211 
8249 8249 8250 8252 8247 8247 8247 8249 8247 8250 8248 8248 8246 8244 8232 8239 8243 8239 8233 8205 8182 8186 8204 8207 8155 8143 8159 8199 8179 8150 8149 8153 8139 8149 8165 8139 8152 8168 8198 8218 8181 8179 8209 8163 8153 8137 8141 8143 8152 8154 8161 8175 8177 8220 8225 8214 8209 8212 8210 8221 8224 8227 8225 8226 8219 8223 8221 8221 8221 8220 8219 8216 8219 8216 8216 8216 8217 8213 8213 8212 
8247 8249 8250 8251 8249 8249 8249 8248 8250 8250 8246 8246 8248 8248 8246 8244 8242 8239 8197 8161 8205 8226 8230 8229 8180 8139 8181 8203 8184 8167 8157 8148 8142 8155 8146 8147 8154 8169 8199 8217 8219 8223 8194 8195 8169 8147 8142 8159 8161 8158 8162 8187 8189 8216 8224 8211 8213 8215 8213 8226 8228 8226 8223 8222 8223 8223 8220 8222 8220 8219 8219 8219 8220 8219 8218 8220 8220 8212 8211 8212 
8249 8253 8248 8251 8250 8249 8247 8248 8252 8249 8247 8245 8246 8247 8247 8245 8240 8233 8173 8211 8236 8237 8237 8235 8219 8165 8181 8186 8207 8158 8150 8154 8149 8158 8147 8152 8159 8175 8191 8194 8190 8203 8187 8219 8201 8158 8148 8158 8166 8174 8163 8203 8213 8207 8218 8210 8214 8214 8215 8225 8226 8226 8224 8225 8223 8221 8220 8222 8220 8216 8218 8218 8215 8219 8219 8220 8217 8215 8213 8213 
8253 8253 8252 8252 8251 8251 8246 8252 8250 8253 8249 8248 8247 8247 8248 8246 8240 8217 8208 8236 8239 8236 8232 8228 8218 8184 8182 8175 8180 8153 8149 8181 8170 8168 8152 8159 8164 8153 8152 8158 8159 8179 8183 8208 8213 8189 8153 8166 8165 8170 8169 8209 8226 8217 8210 8208 8209 8209 8219 8226 8227 8228 8227 8223 8224 8223 8222 8222 8220 8219 8219 8217 8222 8221 8219 8220 8218 8217 8217 8215 
8253 8255 8249 8255 8255 8253 8252 8256 8252 8254 8249 8247 8248 8248 8245 8244 8243 8237 8239 8241 8238 8237 8205 8201 8224 8195 8185 8174 8169 8156 8149 8157 8151 8151 8158 8160 8173 8154 8153 8156 8154 8165 8193 8165 8158 8167 8164 8208 8209 8168 8189 8223 8227 8223 8202 8206 8210 8208 8225 8226 8229 8228 8225 8224 8223 8222 8221 8221 8220 8218 8216 8217 8219 8217 8217 8220 8218 8211 8214 8209 
8253 8253 8254 8255 8254 8253 8253 8257 8255 8253 8250 8247 8247 8249 8246 8245 8248 8241 8242 8242 8240 8236 8225 8237 8235 8226 8184 8165 8170 8168 8145 8152 8164 8160 8154 8155 8161 8154 8156 8157 8152 8159 8191 8175 8148 8145 8153 8203 8218 8200 8177 8220 8228 8218 8200 8209 8212 8218 8225 8229 8228 8226 8225 8225 8224 8224 8222 8221 8219 8219 8219 8220 8220 8220 8217 8222 8215 8214 8215 8214 
8251 8256 8254 8257 8256 8250 8254 8257 8254 8255 8255 8251 8251 8251 8248 8244 8247 8242 8241 8242 8241 8236 8237 8239 8234 8202 8175 8161 8173 8153 8146 8153 8169 8170 8166 8157 8153 8155 8160 8165 8164 8162 8159 8169 8157 8145 8147 8167 8219 8223 8183 8202 8225 8209 8204 8208 8212 8224 8229 8226 8225 8225 8225 8225 8222 8226 8222 8223 8219 8221 8218 8218 8217 8220 8219 8222 8216 8214 8216 8214 
8254 8257 8255 8256 8256 8253 8257 8257 8254 8258 8252 8252 8248 8250 8250 8246 8246 8246 8242 8243 8240 8237 8234 8234 8212 8172 8207 8185 8164 8152 8151 8148 8160 8170 8164 8156 8154 8155 8166 8171 8162 8177 8156 8159 8196 8169 8148 8163 8221 8223 8207 8191 8218 8204 8204 8207 8212 8230 8232 8225 8225 8224 8228 8225 8225 8226 8224 8223 8221 8220 8220 8220 8220 8221 8219 8223 8220 8216 8218 8214 
8254 8254 8259 8258 8258 8261 8256 8259 8252 8260 8253 8251 8253 8250 8246 8249 8248 8247 8245 8243 8239 8238 8225 8182 8165 8164 8205 8196 8150 8152 8149 8152 8153 8159 8159 8159 8158 8154 8166 8175 8182 8203 8160 8167 8216 8201 8162 8175 8218 8227 8223 8198 8214 8204 8204 8211 8220 8231 8231 8227 8226 8225 8224 8225 8222 8224 8224 8223 8219 8220 8222 8221 8219 8222 8220 8219 8219 8217 8221 8214 
8255 8258 8258 8259 8260 8257 8256 8257 8253 8258 8255 8254 8251 8250 8251 8250 8247 8246 8247 8244 8242 8230 8196 8160 8158 8157 8165 8162 8151 8149 8150 8152 8150 8165 8164 8165 8176 8159 8164 8170 8183 8199 8167 8180 8221 8222 8192 8185 8221 8229 8228 8219 8212 8204 8205 8212 8226 8233 8231 8229 8226 8226 8224 8225 8224 8224 8227 8222 8222 8220 8219 8221 8221 8223 8222 8221 8221 8222 8220 8217 
8257 8258 8256 8259 8259 8256 8255 8256 8254 8256 8256 8253 8249 8252 8247 8251 8248 8247 8246 8246 8237 8220 8181 8159 8159 8157 8170 8173 8151 8153 8151 8152 8152 8167 8168 8165 8168 8163 8164 8169 8174 8179 8169 8194 8223 8227 8219 8194 8222 8229 8232 8223 8208 8205 8208 8213 8230 8230 8232 8228 8227 8224 8225 8226 8224 8224 8225 8221 8221 8221 8222 8219 8224 8225 8224 8225 8220 8220 8217 8217 
8255 8258 8257 8261 8260 8255 8253 8257 8256 8254 8250 8250 8251 8252 8249 8251 8245 8249 8244 8244 8239 8205 8165 8158 8159 8156 8172 8168 8161 8160 8157 8153 8158 8173 8178 8176 8171 8173 8168 8170 8174 8182 8187 8181 8216 8228 8228 8217 8226 8231 8228 8217 8209 8209 8207 8219 8232 8229 8229 8230 8228 8224 8228 8227 8223 8226 8224 8222 8222 8223 8220 8221 8225 8225 8221 8224 8220 8220 8219 8218 
8255 8257 8257 8260 8259 8257 8256 8258 8256 8258 8256 8255 8254 8253 8251 8249 8248 8248 8247 8247 8234 8190 8183 8163 8159 8158 8194 8196 8190 8176 8162 8156 8167 8181 8178 8172 8174 8179 8173 8177 8183 8197 8223 8208 8204 8228 8230 8232 8230 8229 8231 8208 8214 8213 8213 8226 8234 8229 8228 8229 8229 8227 8228 8227 8227 8226 8227 8225 8222 8222 8223 8221 8224 8225 8224 8225 8222 8220 8220 8218 
8254 8261 8253 8262 8258 8259 8256 8256 8253 8258 8256 8257 8252 8253 8252 8251 8251 8250 8249 8249 8238 8230 8212 8169 8162 8160 8200 8208 8188 8169 8167 8165 8169 8179 8176 8170 8175 8176 8181 8175 8197 8217 8220 8223 8193 8225 8231 8231 8233 8237 8228 8205 8210 8216 8215 8228 8233 8230 8227 8231 8229 8226 8225 8227 8225 8226 8226 8224 8222 8224 8222 8226 8224 8226 8225 8227 8223 8221 8219 8219 
8257 8257 8256 8260 8257 8258 8259 8257 8256 8259 8255 8257 8254 8255 8252 8250 8250 8250 8246 8238 8224 8217 8214 8186 8164 8163 8194 8206 8184 8176 8176 8176 8176 8185 8181 8170 8177 8182 8179 8183 8198 8213 8223 8226 8225 8231 8232 8234 8237 8240 8229 8205 8212 8218 8224 8230 8229 8227 8225 8230 8228 8224 8228 8228 8225 8224 8223 8224 8226 8226 8222 8225 8225 8226 8224 8227 8224 8222 8221 8218 
8259 8257 8254 8257 8258 8257 8255 8257 8258 8259 8256 8257 8254 8255 8254 8250 8252 8239 8219 8211 8208 8215 8217 8216 8188 8167 8194 8207 8187 8185 8184 8182 8173 8172 8173 8175 8177 8184 8183 8203 8212 8209 8212 8228 8235 8237 8238 8239 8241 8246 8219 8211 8218 8230 8239 8233 8230 8229 8229 8227 8228 8226 8226 8226 8227 8223 8227 8223 8226 8226 8222 8225 8225 8224 8221 8225 8224 8217 8220 8220 
8256 8257 8257 8263 8257 8256 8257 8259 8258 8260 8256 8255 8255 8255 8253 8249 8248 8227 8211 8216 8212 8216 8223 8228 8226 8202 8210 8222 8206 8198 8191 8192 8184 8168 8171 8180 8180 8187 8186 8208 8220 8224 8204 8231 8235 8238 8244 8243 8244 8243 8219 8214 8222 8230 8247 8236 8228 8230 8229 8227 8225 8225 8224 8226 8223 8222 8223 8224 8224 8223 8223 8225 8224 8221 8222 8224 8221 8217 8220 8216 
8258 8261 8261 8262 8253 8258 8257 8260 8260 8260 8255 8256 8254 8256 8254 8251 8248 8233 8217 8221 8221 8222 8233 8241 8243 8236 8236 8228 8224 8208 8201 8210 8209 8186 8181 8183 8187 8190 8191 8201 8216 8223 8215 8226 8231 8235 8240 8244 8246 8233 8226 8218 8223 8232 8232 8230 8231 8231 8226 8226 8224 8226 8223 8225 8222 8224 8224 8225 8224 8225 8224 8224 8228 8225 8223 8226 8225 8221 8226 8221 
8257 8256 8256 8257 8257 8254 8257 8258 8257 8259 8259 8254 8255 8253 8251 8251 8250 8244 8217 8210 8218 8227 8235 8238 8237 8232 8227 8204 8218 8214 8209 8209 8212 8196 8196 8191 8196 8192 8202 8206 8208 8212 8222 8227 8227 8228 8235 8237 8240 8229 8230 8224 8228 8230 8233 8227 8228 8226 8225 8225 8223 8221 8223 8220 8220 8222 8223 8219 8223 8226 8224 8224 8222 8227 8223 8224 8223 8220 8219 8224 
8261 8258 8259 8257 8256 8256 8252 8259 8254 8261 8259 8256 8254 8257 8253 8250 8253 8251 8226 8207 8204 8203 8207 8213 8210 8217 8215 8210 8209 8211 8215 8212 8210 8204 8214 8211 8208 8206 8228 8226 8222 8222 8219 8224 8232 8235 8236 8233 8230 8232 8231 8227 8231 8234 8234 8229 8230 8227 8224 8225 8223 8223 8221 8219 8220 8218 8222 8226 8225 8225 8225 8224 8224 8224 8226 8224 8223 8221 8225 8218 
8261 8261 8256 8257 8255 8253 8255 8258 8259 8258 8258 8253 8254 8254 8254 8254 8252 8250 8230 8213 8208 8202 8207 8214 8221 8214 8210 8208 8206 8209 8211 8212 8208 8209 8213 8214 8214 8220 8220 8224 8218 8223 8223 8225 8225 8224 8229 8231 8234 8234 8236 8233 8238 8242 8234 8230 8228 8226 8225 8225 8223 8220 8223 8219 8220 8220 8225 8224 8223 8222 8224 8225 8224 8227 8223 8229 8227 8221 8224 8223 
8261 8261 8260 8260 8257 8257 8256 8258 8255 8258 8254 8255 8254 8256 8256 8249 8247 8251 8239 8219 8215 8210 8211 8215 8222 8219 8213 8214 8215 8218 8220 8215 8214 8214 8215 8218 8218 8218 8219 8219 8216 8219 8218 8224 8225 8225 8233 8234 8234 8244 8243 8239 8248 8244 8230 8230 8228 8225 8226 8223 8220 8220 8218 8218 8219 8220 8221 8223 8222 8222 8226 8223 8228 8223 8221 8227 8222 8220 8220 8220 
8260 8264 8258 8261 8257 8255 8253 8255 8254 8256 8255 8253 8254 8255 8253 8251 8250 8249 8247 8235 8221 8214 8216 8219 8229 8230 8225 8224 8224 8224 8225 8230 8226 8218 8222 8222 8221 8221 8221 8221 8217 8224 8223 8228 8232 8234 8242 8244 8245 8250 8252 8250 8247 8235 8233 8231 8229 8227 8226 8222 8221 8219 8218 8217 8215 8220 8221 8222 8224 8222 8222 8223 8226 8227 8221 8227 8224 8218 8222 8219 
8260 8263 8262 8259 8255 8254 8252 8255 8251 8256 8252 8253 8254 8251 8250 8250 8251 8248 8246 8241 8226 8217 8221 8228 8240 8242 8236 8234 8232 8235 8235 8236 8234 8230 8228 8228 8229 8230 8228 8229 8226 8232 8232 8237 8247 8248 8249 8252 8250 8254 8260 8258 8245 8231 8230 8227 8228 8225 8223 8224 8218 8217 8219 8218 8216 8218 8221 8222 8222 8223 8220 8220 8225 8228 8224 8222 8223 8217 8222 8220 
8262 8261 8259 8258 8254 8250 8250 8250 8250 8253 8252 8253 8249 8251 8248 8248 8247 8246 8243 8242 8239 8227 8231 8239 8242 8249 8249 8251 8247 8246 8244 8248 8243 8241 8239 8246 8248 8246 8244 8244 8242 8247 8248 8251 8250 8252 8251 8253 8250 8253 8258 8256 8239 8232 8230 8225 8224 8226 8224 8224 8217 8218 8218 8218 8216 8220 8221 8219 8220 8222 8221 8221 8223 8224 8220 8220 8221 8216 8221 8218 
8263 8264 8261 8261 8255 8250 8249 8248 8248 8249 8249 8248 8245 8248 8247 8247 8245 8242 8239 8243 8245 8241 8243 8242 8246 8248 8255 8259 8254 8258 8257 8258 8254 8256 8257 8260 8263 8265 8260 8258 8253 8255 8251 8251 8251 8249 8250 8252 8251 8255 8262 8251 8235 8229 8227 8227 8227 8223 8224 8224 8221 8220 8220 8219 8218 8217 8216 8220 8218 8222 8222 8222 8222 8224 8221 8221 8218 8217 8220 8220 
8268 8268 8261 8264 8256 8253 8247 8246 8245 8246 8244 8242 8243 8242 8242 8243 8243 8239 8238 8240 8250 8257 8267 8263 8264 8260 8259 8263 8258 8257 8258 8261 8257 8253 8255 8256 8261 8260 8258 8257 8253 8255 8258 8259 8256 8256 8257 8258 8260 8265 8265 8252 8235 8227 8227 8227 8226 8226 8224 8224 8223 8222 8219 8220 8221 8218 8219 8225 8223 8221 8219 8221 8220 8221 8219 8221 8221 8217 8216 8219 
8273 8274 8274 8278 8272 8252 8244 8242 8238 8243 8238 8239 8235 8240 8238 8239 8236 8234 8234 8236 8247 8266 8277 8277 8280 8277 8272 8274 8270 8270 8265 8266 8259 8262 8264 8268 8265 8264 8261 8263 8260 8263 8264 8264 8263 8263 8264 8266 8266 8272 8272 8251 8234 8226 8228 8227 8228 8225 8224 8225 8219 8221 8221 8221 8220 8223 8221 8221 8222 8223 8218 8221 8222 8219 8219 8222 8217 8215 8218 8218 
8283 8290 8282 8281 8275 8258 8246 8239 8237 8239 8236 8234 8237 8235 8240 8233 8236 8232 8236 8235 8246 8277 8285 8290 8293 8287 8281 8285 8283 8283 8281 8280 8276 8270 8276 8277 8276 8273 8272 8274 8268 8272 8273 8273 8270 8266 8268 8272 8273 8277 8271 8249 8232 8228 8228 8225 8229 8227 8222 8223 8225 8225 8222 8224 8221 8226 8225 8227 8225 8224 8222 8222 8224 8223 8221 8227 8220 8216 8222 8219 
8291 8276 8275 8278 8266 8256 8244 8240 8237 8239 8235 8229 8236 8234 8235 8235 8232 8231 8229 8232 8248 8285 8294 8300 8300 8296 8291 8297 8290 8293 8290 8291 8285 8283 8282 8284 8284 8282 8275 8281 8277 8279 8278 8280 8277 8271 8274 8279 8278 8282 8277 8245 8231 8230 8230 8229 8232 8229 8224 8224 8231 8228 8229 8230 8229 8230 8235 8230 8229 8234 8223 8226 8228 8227 8228 8223 8225 8222 8217 8213 


