P2
80 60
8297
8279 8282 8282 8283 8277 8283 8281 8277 8277 8273 8273 8270 8274 8273 8273 8275 8273 8278 8283 8284 8279 8282 8282 8277 8283 8282 8282 8284 8284 8287 8284 8285 8285 8283 8276 8282 8281 8276 8278 8283 8279 8279 8274 8271 8269 8265 8253 8247 8255 8256 8256 8260 8260 8260 8258 8263 8264 8269 8261 8262 8257 8260 8259 8258 8260 8260 8260 8258 8256 8257 8261 8261 8265 8266 8268 8266 8260 8259 8254 8257 
8284 8281 8284 8283 8282 8287 8285 8283 8280 8275 8276 8272 8272 8272 8274 8275 8277 8279 8281 8286 8282 8285 8282 8278 8280 8283 8282 8281 8283 8285 8283 8287 8284 8283 8279 8285 8283 8280 8282 8283 8279 8277 8274 8268 8262 8225 8202 8191 8227 8249 8254 8263 8261 8262 8259 8264 8270 8271 8259 8262 8256 8260 8261 8259 8260 8260 8257 8256 8256 8257 8260 8267 8271 8268 8269 8267 8263 8262 8254 8257 
8280 8281 8281 8283 8284 8287 8285 8280 8273 8277 8276 8273 8273 8271 8272 8276 8275 8278 8281 8285 8281 8282 8283 8277 8280 8282 8282 8281 8283 8285 8282 8282 8282 8283 8277 8281 8282 8278 8280 8282 8279 8278 8272 8244 8210 8183 8169 8160 8161 8206 8250 8260 8259 8262 8262 8262 8268 8269 8260 8260 8260 8259 8260 8260 8260 8265 8260 8258 8256 8258 8261 8261 8265 8268 8269 8267 8261 8259 8254 8254 
8282 8285 8285 8286 8284 8285 8286 8281 8280 8277 8272 8273 8274 8271 8277 8274 8276 8280 8281 8284 8280 8283 8280 8276 8279 8281 8281 8282 8281 8282 8281 8282 8284 8285 8280 8282 8279 8278 8278 8282 8278 8276 8262 8193 8172 8166 8160 8149 8154 8229 8251 8261 8260 8259 8260 8263 8272 8270 8262 8264 8261 8261 8262 8262 8260 8261 8262 8258 8257 8254 8256 8259 8263 8266 8262 8266 8261 8263 8259 8258 
8283 8285 8286 8285 8283 8284 8287 8279 8280 8277 8275 8272 8276 8268 8274 8271 8272 8276 8280 8281 8279 8279 8276 8277 8279 8281 8280 8279 8280 8282 8281 8280 8282 8283 8279 8283 8278 8279 8281 8281 8279 8273 8241 8175 8164 8162 8155 8149 8169 8239 8256 8260 8259 8261 8259 8265 8267 8269 8258 8259 8259 8259 8262 8261 8259 8259 8255 8256 8257 8253 8257 8257 8258 8261 8262 8266 8263 8259 8256 8258 
8273 8281 8285 8281 8284 8283 8286 8284 8278 8276 8275 8272 8272 8270 8270 8272 8273 8278 8280 8281 8280 8280 8278 8274 8277 8279 8274 8277 8278 8280 8280 8281 8277 8280 8279 8279 8279 8275 8279 8278 8272 8270 8226 8171 8166 8170 8168 8177 8227 8253 8254 8262 8257 8262 8261 8264 8266 8269 8261 8261 8261 8259 8257 8257 8258 8257 8257 8255 8250 8257 8253 8253 8255 8258 8258 8264 8264 8259 8260 8259 
8282 8282 8281 8284 8283 8284 8288 8281 8276 8275 8273 8272 8272 8266 8270 8270 8273 8274 8278 8284 8277 8279 8277 8274 8274 8276 8274 8278 8275 8281 8278 8277 8280 8279 8275 8277 8274 8274 8281 8274 8270 8268 8241 8179 8215 8224 8235 8247 8255 8256 8253 8256 8257 8259 8260 8267 8268 8266 8262 8262 8258 8258 8258 8258 8258 8256 8255 8253 8255 8253 8253 8252 8253 8253 8252 8258 8258 8257 8257 8254 
8282 8282 8283 8282 8282 8284 8283 8282 8277 8274 8273 8273 8272 8268 8266 8266 8262 8266 8275 8281 8275 8277 8277 8272 8273 8276 8276 8277 8277 8279 8279 8280 8281 8278 8275 8277 8274 8269 8277 8273 8258 8254 8248 8185 8184 8187 8227 8253 8256 8256 8251 8258 8257 8262 8258 8266 8267 8269 8259 8260 8258 8258 8259 8259 8256 8258 8254 8255 8255 8249 8251 8248 8249 8250 8252 8252 8252 8254 8252 8254 
8281 8279 8281 8282 8281 8281 8282 8280 8277 8274 8273 8269 8268 8261 8261 8253 8215 8216 8254 8272 8275 8273 8274 8270 8271 8274 8274 8275 8274 8277 8278 8279 8276 8278 8270 8277 8271 8271 8262 8221 8187 8181 8200 8176 8185 8162 8172 8232 8254 8254 8252 8255 8255 8258 8257 8262 8268 8267 8260 8260 8257 8255 8256 8257 8258 8253 8254 8253 8250 8251 8246 8244 8246 8249 8249 8249 8247 8246 8250 8251 
8280 8281 8277 8281 8281 8281 8284 8280 8276 8271 8270 8264 8265 8251 8219 8211 8171 8163 8193 8245 8268 8271 8268 8268 8272 8272 8270 8272 8274 8274 8277 8276 8276 8275 8269 8271 8271 8270 8251 8179 8158 8172 8194 8193 8160 8161 8167 8202 8251 8253 8250 8255 8251 8255 8255 8261 8262 8264 8255 8258 8256 8256 8255 8253 8256 8253 8252 8249 8248 8245 8244 8247 8245 8245 8242 8246 8244 8245 8247 8250 
8277 8281 8281 8281 8279 8279 8282 8280 8276 8272 8269 8266 8253 8222 8172 8162 8153 8156 8162 8203 8257 8264 8265 8269 8268 8270 8272 8274 8273 8273 8272 8271 8272 8269 8264 8271 8268 8263 8235 8170 8164 8195 8181 8183 8162 8156 8215 8246 8252 8255 8250 8252 8253 8254 8252 8258 8263 8263 8257 8256 8256 8253 8254 8255 8254 8256 8250 8247 8246 8244 8245 8243 8244 8245 8242 8243 8245 8246 8243 8244 
8278 8279 8278 8279 8278 8280 8279 8277 8276 8272 8269 8259 8202 8168 8161 8160 8155 8153 8165 8186 8237 8219 8255 8266 8269 8268 8267 8271 8267 8270 8270 8265 8254 8250 8251 8260 8252 8225 8199 8184 8167 8199 8194 8176 8158 8168 8239 8252 8252 8252 8252 8251 8249 8252 8249 8257 8260 8262 8252 8256 8255 8251 8254 8256 8253 8252 8250 8249 8245 8244 8246 8245 8242 8244 8243 8242 8238 8240 8239 8242 
8276 8279 8277 8279 8277 8276 8279 8276 8274 8269 8268 8253 8211 8181 8161 8160 8156 8158 8168 8188 8176 8163 8198 8253 8262 8263 8265 8270 8266 8270 8263 8241 8194 8183 8189 8205 8199 8187 8186 8163 8179 8186 8221 8171 8161 8196 8249 8253 8251 8250 8249 8251 8249 8250 8249 8256 8258 8261 8253 8252 8250 8249 8253 8253 8254 8251 8248 8244 8248 8243 8246 8239 8243 8241 8240 8240 8238 8240 8234 8238 
8276 8277 8277 8280 8279 8279 8280 8274 8272 8268 8268 8267 8254 8239 8207 8206 8182 8158 8177 8200 8155 8154 8172 8213 8219 8250 8264 8266 8262 8262 8235 8191 8184 8178 8177 8186 8187 8183 8181 8149 8160 8176 8212 8177 8161 8172 8225 8250 8247 8250 8246 8248 8245 8250 8246 8254 8257 8259 8253 8251 8250 8252 8253 8254 8253 8254 8248 8247 8243 8246 8242 8244 8243 8241 8240 8242 8235 8237 8232 8241 
8272 8276 8274 8276 8277 8279 8277 8275 8270 8268 8268 8264 8266 8260 8256 8231 8210 8235 8249 8226 8149 8166 8180 8179 8155 8182 8244 8260 8248 8204 8182 8173 8174 8174 8176 8186 8185 8179 8154 8143 8154 8151 8150 8153 8161 8172 8210 8235 8236 8241 8241 8242 8243 8247 8246 8250 8259 8256 8249 8250 8251 8250 8254 8254 8256 8256 8251 8245 8242 8243 8240 8241 8241 8241 8242 8239 8237 8236 8232 8236 
8268 8276 8274 8274 8276 8276 8278 8272 8273 8266 8268 8266 8266 8266 8265 8265 8259 8264 8262 8208 8157 8225 8235 8190 8195 8166 8220 8253 8205 8177 8173 8169 8172 8168 8172 8184 8183 8156 8142 8146 8166 8182 8142 8142 8151 8161 8172 8180 8185 8214 8228 8233 8235 8240 8239 8250 8252 8253 8248 8247 8250 8248 8251 8252 8251 8256 8248 8242 8242 8242 8244 8239 8240 8239 8237 8240 8234 8236 8231 8232 
8270 8272 8272 8274 8275 8274 8276 8276 8270 8269 8265 8266 8267 8263 8264 8263 8262 8261 8255 8174 8174 8246 8249 8207 8223 8240 8240 8241 8185 8176 8173 8172 8167 8177 8181 8189 8178 8144 8140 8151 8172 8185 8134 8145 8183 8187 8200 8202 8193 8171 8173 8175 8177 8203 8229 8244 8251 8253 8248 8247 8247 8248 8252 8252 8251 8250 8247 8246 8244 8243 8241 8242 8243 8242 8239 8240 8236 8232 8233 8230 
8271 8273 8273 8275 8271 8275 8276 8272 8271 8265 8262 8263 8261 8262 8264 8265 8265 8266 8242 8164 8217 8247 8235 8206 8175 8218 8241 8192 8176 8175 8173 8173 8175 8184 8184 8188 8168 8137 8134 8143 8140 8144 8144 8200 8219 8214 8221 8219 8209 8175 8161 8164 8161 8163 8182 8229 8249 8249 8244 8247 8244 8247 8250 8252 8252 8249 8249 8244 8243 8244 8241 8242 8239 8237 8237 8238 8237 8235 8232 8228 
8272 8276 8273 8275 8273 8274 8274 8271 8269 8264 8264 8263 8264 8262 8263 8264 8262 8255 8224 8188 8200 8179 8158 8140 8136 8145 8195 8154 8171 8176 8170 8176 8178 8182 8184 8178 8153 8148 8136 8132 8134 8137 8140 8168 8183 8193 8206 8218 8229 8225 8188 8157 8155 8161 8162 8190 8236 8248 8245 8245 8244 8247 8252 8252 8252 8251 8248 8245 8243 8243 8241 8241 8241 8240 8238 8237 8235 8233 8230 8231 
8272 8276 8276 8274 8271 8271 8273 8269 8266 8263 8266 8265 8267 8262 8261 8264 8260 8229 8216 8244 8234 8227 8216 8199 8175 8149 8149 8155 8170 8172 8170 8181 8185 8184 8179 8158 8143 8162 8158 8157 8157 8155 8151 8151 8143 8150 8163 8185 8210 8228 8224 8190 8150 8149 8157 8166 8193 8237 8242 8244 8243 8247 8252 8254 8252 8251 8250 8249 8245 8243 8240 8239 8241 8243 8239 8236 8236 8235 8231 8234 
8273 8272 8272 8271 8272 8270 8272 8269 8263 8262 8262 8263 8263 8260 8261 8264 8258 8256 8255 8263 8257 8255 8255 8246 8242 8187 8151 8152 8167 8171 8179 8187 8187 8184 8170 8145 8145 8167 8173 8170 8169 8164 8158 8155 8140 8145 8166 8176 8208 8209 8200 8198 8169 8150 8145 8160 8172 8207 8235 8244 8242 8245 8251 8254 8251 8252 8248 8244 8245 8243 8243 8239 8242 8239 8238 8238 8240 8235 8230 8232 
8274 8274 8270 8272 8267 8271 8270 8266 8262 8258 8264 8260 8262 8260 8260 8261 8261 8262 8260 8265 8259 8257 8252 8247 8246 8231 8181 8172 8179 8185 8186 8190 8185 8178 8159 8157 8154 8162 8174 8172 8159 8152 8150 8147 8137 8132 8137 8141 8153 8148 8147 8154 8150 8153 8150 8153 8163 8193 8232 8241 8241 8244 8250 8254 8257 8253 8250 8249 8246 8245 8243 8241 8239 8241 8242 8239 8238 8237 8232 8232 
8272 8272 8269 8270 8268 8267 8267 8264 8260 8259 8260 8259 8262 8260 8262 8263 8261 8262 8261 8261 8255 8257 8250 8248 8243 8240 8202 8186 8188 8195 8193 8193 8189 8159 8156 8159 8158 8167 8163 8169 8160 8158 8151 8141 8135 8135 8152 8174 8173 8207 8203 8206 8206 8202 8184 8163 8165 8174 8214 8239 8240 8244 8249 8252 8251 8253 8250 8248 8247 8245 8239 8237 8241 8240 8243 8241 8236 8239 8233 8235 
8272 8272 8270 8270 8269 8268 8267 8261 8263 8259 8260 8259 8261 8259 8258 8263 8259 8260 8259 8261 8254 8253 8248 8223 8196 8188 8185 8182 8190 8197 8192 8196 8189 8166 8160 8161 8157 8162 8148 8153 8154 8160 8155 8152 8147 8161 8179 8188 8182 8175 8158 8157 8159 8154 8161 8180 8167 8182 8203 8235 8238 8244 8246 8250 8249 8249 8248 8247 8247 8245 8242 8238 8241 8243 8239 8241 8239 8237 8234 8231 
8270 8272 8268 8271 8267 8266 8265 8262 8262 8255 8259 8258 8254 8258 8257 8261 8259 8258 8260 8258 8247 8242 8212 8192 8189 8191 8193 8189 8187 8193 8188 8194 8198 8171 8162 8160 8158 8158 8148 8144 8151 8157 8163 8161 8160 8162 8163 8159 8182 8196 8162 8141 8138 8138 8147 8158 8172 8180 8211 8233 8238 8242 8247 8247 8249 8251 8252 8247 8246 8242 8240 8238 8242 8240 8238 8239 8239 8238 8233 8235 
8269 8273 8271 8272 8267 8268 8265 8265 8261 8259 8259 8257 8257 8259 8257 8260 8254 8253 8242 8217 8184 8162 8155 8160 8188 8213 8207 8207 8192 8193 8187 8175 8169 8171 8187 8172 8170 8159 8148 8152 8159 8176 8172 8179 8176 8169 8166 8156 8162 8182 8178 8154 8143 8142 8142 8159 8163 8173 8194 8226 8230 8238 8245 8250 8249 8252 8247 8246 8244 8241 8242 8238 8242 8242 8242 8240 8235 8239 8236 8236 
8269 8271 8267 8272 8267 8267 8266 8262 8261 8259 8258 8258 8255 8256 8259 8255 8235 8203 8186 8177 8163 8160 8168 8174 8184 8194 8192 8189 8191 8189 8175 8176 8170 8176 8182 8172 8175 8166 8160 8161 8178 8184 8178 8178 8183 8183 8178 8170 8161 8160 8176 8161 8147 8151 8155 8171 8167 8169 8171 8183 8183 8215 8239 8246 8248 8249 8243 8244 8245 8242 8240 8238 8243 8241 8240 8242 8237 8238 8237 8235 
8271 8271 8268 8270 8264 8268 8266 8263 8260 8256 8255 8253 8254 8247 8247 8224 8191 8183 8179 8179 8181 8183 8176 8166 8166 8176 8194 8187 8183 8187 8165 8181 8163 8169 8167 8181 8179 8165 8160 8177 8182 8181 8182 8180 8178 8195 8220 8216 8205 8183 8165 8174 8167 8171 8168 8171 8180 8178 8171 8172 8170 8178 8219 8242 8244 8245 8248 8243 8242 8243 8240 8243 8241 8239 8238 8238 8237 8238 8233 8237 
8270 8271 8268 8267 8268 8266 8267 8265 8259 8256 8251 8222 8208 8206 8203 8187 8177 8176 8189 8213 8208 8173 8162 8159 8161 8164 8171 8174 8166 8175 8164 8161 8160 8163 8183 8206 8191 8208 8183 8188 8186 8185 8199 8220 8207 8199 8228 8225 8221 8222 8209 8186 8161 8161 8171 8185 8190 8189 8183 8179 8172 8174 8191 8235 8242 8243 8243 8245 8243 8244 8239 8239 8241 8239 8239 8240 8238 8238 8234 8234 
8265 8272 8269 8272 8269 8266 8268 8262 8262 8239 8201 8192 8199 8228 8215 8184 8184 8218 8233 8236 8182 8161 8161 8161 8165 8165 8173 8197 8172 8165 8160 8158 8158 8157 8159 8175 8199 8218 8223 8197 8188 8194 8204 8219 8225 8208 8208 8220 8218 8216 8213 8218 8195 8156 8166 8180 8194 8194 8185 8184 8184 8175 8178 8214 8241 8244 8242 8242 8241 8241 8238 8239 8239 8239 8239 8239 8239 8237 8237 8238 
8268 8270 8270 8266 8270 8269 8267 8263 8246 8205 8194 8200 8237 8246 8196 8197 8233 8250 8250 8240 8202 8164 8162 8162 8168 8176 8188 8192 8178 8166 8158 8156 8154 8156 8154 8162 8174 8183 8212 8202 8189 8191 8194 8202 8208 8206 8190 8201 8206 8204 8201 8204 8190 8164 8167 8174 8188 8195 8185 8187 8183 8184 8178 8193 8234 8243 8241 8240 8239 8241 8237 8238 8237 8239 8238 8240 8240 8236 8234 8235 
8267 8274 8269 8267 8270 8269 8267 8263 8220 8197 8204 8235 8256 8230 8209 8246 8257 8255 8251 8248 8214 8166 8163 8168 8173 8193 8203 8200 8176 8165 8162 8156 8156 8159 8154 8162 8165 8178 8180 8189 8191 8197 8205 8209 8203 8160 8148 8174 8214 8221 8221 8226 8215 8191 8171 8179 8185 8197 8187 8189 8188 8189 8187 8190 8230 8237 8239 8240 8238 8239 8237 8238 8241 8243 8240 8244 8240 8239 8235 8236 
8272 8275 8271 8272 8272 8270 8267 8247 8209 8202 8229 8256 8257 8233 8253 8260 8258 8259 8257 8254 8194 8168 8168 8176 8190 8209 8203 8193 8173 8167 8160 8158 8161 8166 8162 8170 8168 8168 8172 8188 8194 8200 8206 8194 8153 8145 8141 8150 8212 8223 8222 8228 8226 8226 8189 8183 8191 8193 8195 8192 8191 8187 8192 8195 8229 8240 8241 8241 8241 8239 8239 8238 8241 8245 8242 8244 8240 8241 8235 8237 
8272 8273 8274 8274 8270 8265 8261 8220 8204 8216 8256 8260 8250 8256 8260 8262 8260 8258 8258 8248 8181 8168 8176 8189 8234 8222 8208 8198 8173 8170 8161 8160 8160 8167 8167 8170 8181 8196 8192 8192 8197 8194 8199 8177 8145 8140 8140 8146 8195 8218 8222 8224 8228 8231 8213 8188 8193 8192 8195 8203 8200 8193 8193 8195 8223 8240 8245 8240 8239 8236 8239 8240 8238 8239 8241 8242 8244 8242 8239 8241 
8272 8278 8272 8270 8268 8264 8243 8204 8205 8243 8260 8260 8258 8258 8264 8263 8260 8259 8257 8247 8180 8174 8187 8232 8247 8242 8214 8201 8175 8163 8159 8162 8163 8168 8170 8179 8203 8227 8227 8200 8190 8187 8187 8178 8147 8143 8145 8141 8162 8191 8213 8225 8225 8230 8226 8191 8195 8191 8203 8214 8206 8202 8196 8199 8202 8230 8240 8236 8238 8236 8238 8241 8241 8240 8239 8242 8243 8240 8238 8238 
8271 8277 8274 8274 8269 8263 8219 8204 8208 8252 8264 8264 8261 8263 8263 8262 8261 8257 8259 8244 8183 8187 8233 8247 8248 8248 8234 8203 8183 8164 8158 8162 8167 8173 8178 8198 8199 8221 8227 8200 8195 8196 8194 8175 8167 8160 8159 8139 8121 8127 8173 8218 8223 8228 8230 8203 8191 8199 8208 8220 8210 8206 8203 8202 8201 8213 8235 8238 8237 8237 8241 8239 8242 8244 8241 8244 8244 8242 8238 8237 
8271 8272 8277 8271 8268 8240 8215 8206 8209 8239 8266 8262 8263 8264 8264 8262 8257 8262 8260 8227 8201 8241 8252 8251 8248 8244 8238 8216 8181 8161 8158 8165 8170 8182 8202 8209 8196 8212 8205 8192 8185 8191 8183 8176 8177 8176 8169 8144 8135 8128 8136 8180 8215 8228 8232 8212 8190 8202 8206 8219 8214 8208 8206 8202 8208 8205 8231 8237 8236 8240 8239 8239 8242 8244 8242 8242 8243 8243 8238 8242 
8270 8273 8272 8273 8254 8217 8206 8206 8217 8251 8267 8266 8264 8264 8264 8261 8261 8261 8256 8239 8250 8252 8247 8226 8213 8194 8186 8188 8169 8162 8159 8169 8171 8206 8225 8212 8191 8192 8178 8181 8173 8174 8176 8178 8185 8177 8176 8159 8141 8137 8147 8169 8194 8205 8213 8209 8191 8196 8203 8217 8217 8214 8210 8207 8206 8206 8223 8236 8241 8238 8238 8240 8242 8244 8242 8243 8244 8245 8238 8240 
8274 8271 8269 8261 8226 8206 8201 8213 8230 8262 8267 8269 8263 8265 8261 8263 8261 8262 8259 8257 8239 8222 8197 8188 8190 8195 8202 8195 8167 8167 8167 8175 8193 8228 8224 8195 8189 8191 8190 8180 8176 8172 8171 8174 8182 8180 8184 8167 8160 8156 8161 8167 8187 8220 8228 8214 8192 8189 8198 8210 8214 8214 8213 8210 8211 8204 8221 8233 8236 8239 8241 8241 8239 8245 8243 8246 8245 8242 8241 8241 
8269 8272 8264 8231 8210 8204 8208 8215 8251 8267 8267 8263 8263 8261 8262 8260 8259 8260 8248 8220 8209 8210 8219 8232 8243 8249 8242 8194 8172 8175 8177 8185 8189 8217 8206 8190 8190 8190 8191 8181 8176 8188 8185 8184 8189 8194 8201 8189 8174 8162 8154 8169 8204 8225 8227 8205 8188 8189 8189 8208 8213 8215 8221 8216 8215 8208 8217 8235 8235 8241 8239 8242 8240 8241 8245 8245 8243 8245 8238 8243 
8269 8270 8249 8209 8208 8209 8211 8242 8262 8266 8270 8265 8266 8263 8265 8260 8260 8255 8227 8228 8244 8255 8256 8252 8252 8254 8235 8185 8177 8196 8202 8193 8191 8186 8181 8184 8180 8189 8188 8180 8176 8186 8195 8207 8223 8218 8213 8197 8190 8180 8171 8172 8182 8216 8224 8199 8186 8186 8186 8202 8211 8217 8222 8218 8218 8211 8221 8234 8238 8240 8241 8245 8243 8246 8246 8247 8249 8245 8242 8240 
8270 8276 8256 8213 8211 8217 8229 8260 8265 8263 8267 8268 8264 8265 8263 8264 8256 8244 8251 8262 8257 8259 8258 8254 8252 8238 8201 8189 8204 8240 8221 8197 8195 8193 8186 8183 8185 8199 8186 8178 8176 8180 8191 8227 8231 8224 8224 8227 8225 8224 8216 8188 8171 8181 8199 8194 8189 8190 8185 8195 8209 8221 8226 8223 8218 8211 8226 8236 8239 8237 8239 8244 8244 8247 8245 8246 8247 8244 8241 8243 
8274 8274 8270 8230 8218 8221 8250 8268 8268 8267 8267 8267 8266 8266 8264 8264 8259 8261 8262 8263 8258 8262 8262 8254 8245 8209 8195 8213 8241 8243 8210 8195 8194 8196 8189 8193 8196 8202 8195 8182 8175 8176 8190 8221 8223 8233 8239 8232 8230 8232 8230 8221 8190 8178 8191 8192 8189 8191 8187 8192 8208 8218 8222 8225 8221 8209 8224 8240 8241 8241 8245 8245 8246 8249 8249 8250 8247 8247 8243 8244 
8273 8273 8275 8246 8222 8227 8263 8269 8268 8269 8270 8269 8268 8264 8266 8266 8261 8265 8265 8269 8263 8260 8256 8251 8226 8204 8207 8217 8218 8215 8202 8199 8191 8196 8190 8191 8194 8189 8194 8191 8181 8176 8183 8201 8214 8218 8222 8218 8216 8223 8220 8225 8221 8203 8194 8195 8188 8190 8186 8189 8205 8217 8224 8222 8215 8208 8223 8239 8241 8244 8244 8249 8247 8250 8249 8250 8250 8246 8245 8243 
8272 8274 8271 8251 8225 8246 8274 8271 8271 8271 8266 8269 8267 8262 8264 8265 8262 8263 8264 8266 8263 8259 8254 8238 8224 8210 8205 8209 8213 8212 8206 8203 8195 8192 8186 8190 8189 8193 8186 8187 8180 8182 8197 8203 8211 8212 8214 8206 8204 8207 8203 8209 8210 8206 8198 8191 8189 8189 8187 8190 8196 8212 8222 8220 8213 8209 8223 8239 8239 8239 8242 8245 8248 8251 8248 8250 8250 8246 8247 8245 
8276 8271 8274 8251 8242 8268 8273 8272 8271 8266 8268 8265 8267 8265 8266 8264 8262 8264 8265 8267 8261 8262 8248 8221 8219 8213 8207 8208 8211 8212 8209 8204 8199 8194 8187 8190 8186 8185 8177 8178 8179 8186 8184 8196 8207 8213 8214 8208 8204 8206 8206 8214 8210 8197 8192 8188 8189 8192 8188 8193 8209 8210 8211 8212 8227 8227 8230 8240 8244 8245 8244 8245 8247 8251 8250 8250 8251 8250 8247 8249 
8274 8272 8271 8264 8265 8273 8275 8274 8271 8269 8272 8269 8269 8264 8267 8264 8262 8263 8262 8267 8263 8259 8253 8228 8217 8208 8197 8183 8184 8185 8186 8185 8183 8179 8176 8185 8180 8172 8171 8169 8173 8181 8163 8175 8194 8209 8210 8207 8207 8209 8208 8214 8206 8192 8186 8194 8195 8198 8194 8217 8225 8211 8211 8225 8241 8243 8241 8240 8242 8243 8248 8248 8245 8249 8246 8250 8249 8250 8248 8248 
8268 8272 8274 8274 8272 8274 8278 8275 8269 8272 8268 8266 8267 8266 8265 8262 8262 8266 8267 8267 8261 8259 8257 8236 8218 8209 8190 8181 8175 8173 8165 8168 8170 8168 8165 8170 8165 8166 8171 8173 8175 8176 8176 8178 8182 8194 8197 8191 8190 8195 8199 8209 8194 8191 8186 8191 8195 8202 8214 8229 8234 8224 8236 8240 8241 8245 8244 8244 8242 8245 8242 8249 8249 8249 8249 8252 8251 8250 8242 8246 
8274 8274 8274 8273 8271 8274 8278 8272 8267 8269 8267 8265 8267 8264 8266 8264 8260 8265 8266 8264 8262 8261 8259 8240 8224 8214 8211 8215 8207 8203 8193 8187 8183 8180 8173 8175 8172 8168 8175 8181 8181 8179 8182 8182 8182 8186 8187 8179 8182 8188 8187 8189 8186 8188 8181 8189 8200 8222 8223 8233 8235 8237 8240 8238 8240 8242 8242 8243 8243 8243 8245 8245 8248 8250 8248 8253 8252 8248 8244 8248 
8277 8278 8276 8273 8273 8274 8278 8272 8268 8269 8270 8266 8267 8265 8268 8266 8261 8263 8264 8268 8260 8261 8259 8244 8227 8221 8221 8223 8220 8225 8225 8223 8219 8216 8206 8202 8193 8192 8192 8194 8194 8182 8193 8194 8192 8194 8196 8191 8189 8191 8189 8189 8187 8191 8194 8204 8219 8236 8238 8235 8239 8241 8239 8238 8240 8244 8244 8245 8242 8244 8242 8247 8249 8252 8252 8253 8253 8254 8248 8249 
8276 8276 8274 8274 8273 8275 8277 8272 8270 8268 8267 8267 8269 8267 8265 8264 8260 8265 8267 8265 8263 8260 8260 8249 8230 8227 8224 8225 8231 8231 8234 8230 8228 8231 8222 8224 8223 8219 8223 8226 8221 8222 8220 8220 8225 8223 8220 8216 8210 8205 8201 8202 8201 8206 8210 8220 8230 8242 8238 8238 8239 8240 8242 8241 8242 8243 8246 8246 8239 8246 8243 8244 8249 8252 8253 8253 8251 8252 8244 8250 
8274 8276 8276 8273 8274 8275 8277 8271 8270 8268 8269 8267 8264 8265 8268 8264 8262 8265 8265 8265 8263 8261 8263 8255 8251 8234 8230 8235 8234 8238 8240 8240 8235 8233 8229 8232 8228 8225 8231 8234 8229 8225 8229 8227 8230 8231 8227 8220 8212 8209 8206 8209 8210 8211 8221 8232 8243 8247 8238 8240 8236 8240 8239 8242 8240 8242 8245 8244 8244 8244 8243 8246 8250 8251 8256 8254 8252 8252 8246 8252 
8273 8276 8279 8272 8272 8274 8277 8274 8268 8267 8267 8264 8267 8264 8265 8264 8264 8263 8263 8265 8263 8262 8260 8259 8256 8247 8238 8234 8238 8237 8243 8245 8243 8240 8231 8234 8232 8230 8238 8240 8234 8235 8233 8233 8234 8233 8231 8226 8218 8213 8211 8216 8215 8222 8231 8240 8248 8248 8239 8239 8234 8240 8240 8241 8243 8243 8244 8242 8243 8244 8246 8248 8248 8250 8251 8256 8251 8248 8245 8249 
8275 8276 8276 8274 8273 8271 8274 8272 8269 8270 8265 8264 8266 8262 8264 8264 8265 8263 8263 8264 8262 8262 8262 8260 8258 8254 8245 8242 8241 8241 8238 8243 8241 8242 8239 8237 8233 8232 8239 8239 8240 8238 8243 8239 8241 8240 8238 8235 8226 8225 8219 8221 8222 8233 8236 8244 8246 8247 8240 8237 8237 8238 8240 8242 8242 8243 8241 8242 8241 8244 8244 8247 8250 8252 8252 8251 8253 8249 8245 8248 
8276 8278 8278 8273 8271 8273 8272 8270 8267 8264 8265 8258 8264 8264 8262 8262 8263 8263 8265 8261 8261 8263 8262 8259 8258 8255 8249 8249 8246 8241 8245 8242 8240 8243 8236 8239 8237 8231 8236 8238 8238 8244 8245 8243 8242 8241 8241 8238 8232 8234 8230 8233 8239 8246 8249 8252 8249 8247 8239 8240 8237 8242 8243 8244 8244 8243 8243 8239 8242 8245 8246 8247 8254 8250 8251 8251 8250 8250 8247 8249 
8274 8278 8276 8277 8272 8270 8267 8266 8264 8261 8263 8260 8259 8257 8260 8260 8259 8260 8264 8261 8256 8260 8263 8255 8258 8256 8252 8253 8254 8253 8254 8252 8252 8252 8246 8245 8242 8239 8241 8240 8240 8246 8246 8246 8248 8248 8248 8242 8240 8241 8242 8246 8253 8258 8258 8255 8249 8247 8241 8240 8241 8244 8241 8243 8244 8244 8244 8243 8242 8243 8246 8247 8248 8247 8252 8253 8251 8251 8248 8248 
8276 8276 8275 8274 8271 8272 8265 8266 8262 8257 8259 8260 8259 8253 8259 8257 8258 8260 8259 8262 8258 8256 8260 8255 8256 8254 8252 8257 8256 8258 8257 8258 8257 8263 8256 8254 8250 8249 8252 8254 8257 8258 8258 8256 8258 8258 8263 8255 8253 8252 8253 8260 8262 8268 8262 8261 8250 8245 8240 8240 8239 8245 8244 8243 8244 8244 8241 8243 8242 8244 8245 8245 8252 8250 8248 8251 8250 8248 8241 8247 
8277 8277 8283 8280 8280 8262 8260 8253 8252 8255 8256 8252 8252 8251 8256 8255 8254 8255 8252 8255 8254 8254 8253 8249 8253 8251 8253 8255 8257 8259 8258 8259 8261 8262 8262 8264 8262 8257 8258 8261 8261 8262 8265 8266 8266 8268 8271 8262 8264 8264 8261 8270 8270 8276 8267 8259 8247 8245 8242 8242 8240 8242 8244 8246 8245 8246 8244 8243 8244 8243 8242 8245 8244 8245 8250 8250 8245 8246 8245 8241 
8283 8287 8285 8282 8279 8263 8254 8247 8247 8246 8248 8245 8251 8245 8251 8252 8251 8248 8251 8253 8248 8248 8249 8244 8247 8254 8256 8260 8260 8261 8263 8266 8266 8269 8264 8270 8266 8265 8267 8269 8264 8264 8266 8267 8269 8269 8275 8273 8269 8273 8270 8278 8277 8278 8273 8260 8249 8249 8242 8243 8241 8242 8244 8248 8247 8246 8241 8244 8244 8244 8242 8246 8248 8249 8248 8247 8246 8247 8245 8245 
8297 8278 8280 8282 8275 8263 8259 8250 8246 8247 8251 8247 8248 8245 8253 8254 8250 8250 8255 8253 8251 8250 8248 8246 8247 8253 8260 8260 8261 8265 8262 8264 8268 8268 8268 8269 8269 8271 8271 8274 8272 8275 8270 8268 8276 8276 8277 8272 8269 8274 8272 8281 8281 8282 8275 8258 8251 8254 8246 8246 8244 8250 8249 8250 8252 8248 8244 8243 8245 8248 8244 8247 8249 8252 8248 8248 8251 8248 8241 8248 


