P2
80 60
8332
8235 8242 8250 8254 8269 8277 8278 8274 8284 8279 8279 8282 8287 8283 8281 8280 8282 8278 8275 8273 8272 8273 8267 8266 8267 8266 8269 8271 8275 8275 8277 8278 8273 8276 8278 8276 8277 8281 8285 8289 8284 8282 8283 8285 8289 8292 8290 8290 8293 8291 8289 8290 8291 8293 8292 8295 8299 8302 8301 8303 8307 8309 8308 8307 8313 8313 8308 8312 8314 8310 8309 8312 8332 8330 8331 8324 8330 8331 8329 8323 
8230 8237 8247 8252 8266 8273 8278 8276 8276 8277 8276 8278 8280 8278 8278 8279 8280 8274 8273 8272 8272 8270 8272 8269 8266 8268 8274 8280 8280 8281 8283 8286 8281 8285 8285 8284 8284 8288 8289 8291 8287 8286 8285 8288 8289 8290 8290 8290 8293 8290 8289 8289 8288 8293 8293 8293 8294 8296 8295 8298 8301 8306 8305 8306 8311 8311 8310 8314 8317 8312 8309 8312 8325 8327 8326 8326 8328 8330 8328 8328 
8234 8241 8251 8254 8264 8268 8269 8277 8274 8275 8269 8271 8272 8271 8267 8267 8268 8266 8266 8268 8268 8266 8267 8264 8268 8271 8276 8281 8283 8283 8285 8287 8283 8281 8287 8285 8288 8288 8293 8292 8288 8286 8285 8287 8289 8290 8288 8290 8291 8292 8292 8288 8290 8294 8294 8295 8298 8295 8295 8296 8300 8302 8300 8304 8307 8308 8306 8312 8315 8314 8311 8311 8323 8325 8325 8324 8330 8329 8327 8329 
8240 8246 8256 8257 8263 8260 8264 8266 8266 8263 8256 8258 8261 8262 8264 8264 8266 8264 8264 8264 8263 8264 8262 8264 8268 8271 8272 8278 8278 8280 8282 8287 8286 8288 8289 8286 8289 8289 8292 8291 8284 8284 8284 8288 8289 8291 8292 8289 8289 8289 8287 8291 8291 8292 8293 8292 8295 8297 8296 8296 8298 8300 8298 8302 8302 8302 8303 8307 8312 8311 8310 8312 8319 8324 8323 8324 8328 8328 8325 8327 
8237 8248 8256 8257 8261 8261 8262 8262 8262 8262 8257 8254 8259 8263 8260 8261 8265 8264 8264 8264 8266 8265 8266 8266 8268 8266 8269 8275 8277 8277 8281 8281 8280 8284 8286 8285 8290 8288 8288 8290 8287 8288 8288 8288 8290 8289 8289 8284 8282 8283 8285 8288 8288 8289 8289 8293 8294 8296 8294 8296 8298 8301 8299 8300 8299 8301 8302 8300 8307 8308 8307 8306 8310 8321 8321 8321 8323 8324 8323 8325 
8238 8256 8260 8260 8261 8263 8264 8263 8264 8263 8259 8261 8261 8263 8258 8261 8264 8263 8264 8267 8265 8265 8266 8264 8267 8268 8270 8273 8275 8280 8280 8281 8282 8281 8282 8282 8285 8285 8287 8288 8284 8289 8289 8289 8287 8289 8281 8254 8249 8252 8261 8276 8281 8285 8289 8288 8294 8293 8293 8299 8297 8300 8298 8301 8300 8300 8300 8300 8306 8303 8301 8302 8305 8315 8319 8320 8322 8323 8323 8327 
8242 8262 8265 8266 8264 8268 8269 8269 8268 8262 8258 8264 8263 8259 8261 8263 8267 8265 8266 8266 8265 8262 8265 8266 8269 8269 8271 8276 8278 8278 8278 8283 8281 8280 8282 8283 8282 8284 8286 8288 8286 8286 8289 8291 8288 8279 8263 8210 8186 8189 8200 8223 8250 8271 8281 8288 8290 8290 8295 8295 8299 8298 8299 8298 8301 8302 8300 8302 8305 8302 8299 8301 8301 8308 8320 8318 8326 8325 8322 8322 
8246 8267 8265 8271 8269 8272 8272 8270 8266 8262 8263 8263 8261 8260 8265 8266 8266 8263 8266 8267 8268 8266 8267 8264 8263 8266 8269 8270 8274 8279 8277 8282 8278 8281 8283 8281 8284 8285 8286 8288 8287 8287 8291 8289 8284 8233 8200 8184 8193 8213 8210 8190 8185 8231 8273 8284 8287 8292 8295 8296 8299 8298 8297 8299 8300 8300 8301 8301 8304 8299 8299 8298 8300 8302 8317 8319 8323 8322 8323 8325 
8252 8265 8269 8266 8272 8274 8272 8266 8264 8262 8260 8262 8262 8261 8264 8262 8263 8261 8264 8266 8264 8264 8263 8263 8263 8264 8268 8270 8271 8276 8279 8279 8278 8281 8285 8280 8284 8284 8286 8286 8286 8284 8291 8290 8287 8272 8233 8197 8203 8231 8217 8188 8177 8188 8237 8278 8290 8293 8294 8299 8298 8302 8300 8298 8300 8300 8299 8298 8304 8299 8298 8302 8301 8300 8313 8318 8320 8319 8321 8320 
8258 8268 8268 8271 8269 8267 8263 8265 8264 8262 8259 8259 8260 8260 8261 8260 8265 8262 8261 8263 8263 8267 8262 8262 8262 8259 8265 8272 8271 8276 8275 8275 8278 8280 8280 8282 8282 8283 8284 8285 8285 8283 8280 8283 8282 8282 8270 8227 8234 8209 8197 8184 8174 8176 8209 8270 8291 8292 8291 8295 8299 8301 8300 8301 8300 8300 8299 8303 8304 8301 8300 8301 8300 8298 8307 8314 8318 8321 8317 8317 
8257 8265 8268 8267 8267 8265 8260 8263 8261 8261 8260 8259 8257 8261 8260 8262 8262 8261 8260 8263 8265 8264 8263 8264 8263 8259 8252 8254 8263 8271 8274 8280 8277 8279 8282 8281 8282 8280 8281 8279 8275 8255 8227 8229 8248 8273 8278 8258 8205 8220 8207 8205 8191 8193 8221 8276 8285 8289 8291 8293 8292 8297 8294 8296 8300 8299 8301 8299 8300 8302 8301 8299 8301 8296 8300 8309 8317 8316 8319 8322 
8262 8269 8270 8268 8264 8260 8256 8260 8260 8260 8259 8260 8257 8259 8261 8262 8260 8260 8259 8264 8265 8265 8263 8263 8263 8259 8220 8205 8216 8252 8279 8277 8277 8279 8279 8280 8279 8276 8266 8245 8226 8218 8196 8213 8234 8221 8249 8248 8219 8269 8268 8261 8256 8266 8272 8281 8285 8287 8288 8287 8289 8293 8291 8293 8293 8298 8299 8296 8301 8299 8298 8297 8298 8293 8299 8309 8318 8318 8315 8314 
8265 8272 8272 8265 8267 8264 8260 8257 8259 8263 8258 8260 8258 8264 8261 8260 8265 8262 8261 8265 8264 8264 8265 8263 8263 8260 8230 8204 8207 8238 8277 8280 8279 8279 8281 8278 8275 8235 8193 8180 8178 8207 8238 8241 8192 8180 8183 8203 8243 8279 8279 8282 8282 8283 8281 8278 8285 8285 8285 8286 8288 8289 8286 8292 8290 8294 8295 8294 8297 8294 8296 8291 8297 8293 8295 8303 8316 8319 8315 8312 
8273 8283 8277 8271 8269 8264 8263 8259 8260 8263 8261 8265 8264 8262 8264 8266 8263 8262 8265 8267 8265 8262 8263 8264 8264 8263 8242 8208 8213 8230 8274 8280 8276 8280 8278 8275 8238 8187 8186 8198 8189 8185 8202 8234 8197 8181 8197 8204 8266 8276 8280 8284 8282 8283 8281 8280 8286 8285 8285 8285 8286 8287 8288 8290 8292 8293 8291 8294 8297 8294 8293 8295 8297 8296 8296 8302 8316 8317 8311 8312 
8276 8274 8277 8274 8271 8265 8257 8260 8258 8259 8261 8259 8259 8262 8263 8264 8262 8264 8264 8265 8265 8263 8262 8261 8263 8265 8255 8208 8212 8224 8269 8277 8277 8276 8277 8272 8247 8236 8256 8246 8188 8169 8175 8182 8190 8189 8209 8192 8228 8242 8270 8282 8282 8282 8279 8278 8282 8284 8284 8285 8284 8287 8282 8289 8292 8289 8292 8291 8294 8292 8293 8294 8293 8297 8297 8297 8313 8313 8310 8311 
8281 8271 8274 8273 8271 8263 8259 8257 8255 8262 8259 8259 8260 8260 8263 8265 8264 8261 8263 8264 8263 8262 8263 8261 8261 8265 8264 8216 8214 8222 8263 8278 8276 8277 8275 8277 8276 8276 8259 8195 8173 8171 8170 8171 8170 8193 8203 8175 8173 8175 8204 8266 8276 8279 8276 8278 8281 8282 8282 8280 8284 8284 8283 8285 8289 8289 8290 8290 8291 8289 8292 8289 8293 8294 8298 8296 8304 8307 8306 8307 
8281 8273 8271 8273 8267 8265 8257 8257 8259 8262 8259 8261 8261 8259 8263 8262 8264 8263 8265 8263 8263 8265 8261 8260 8264 8264 8269 8228 8214 8217 8255 8277 8276 8276 8277 8278 8274 8273 8222 8180 8171 8172 8166 8168 8170 8209 8192 8190 8175 8170 8175 8215 8253 8243 8249 8266 8277 8281 8279 8281 8283 8281 8285 8287 8287 8288 8288 8287 8291 8288 8288 8288 8289 8294 8292 8293 8293 8304 8303 8306 
8280 8272 8273 8271 8266 8263 8255 8258 8258 8263 8261 8262 8268 8262 8267 8266 8263 8265 8265 8265 8265 8264 8264 8262 8261 8268 8264 8239 8215 8219 8245 8276 8276 8275 8274 8270 8265 8249 8190 8188 8192 8188 8167 8168 8172 8185 8178 8170 8171 8169 8172 8178 8195 8200 8202 8229 8267 8276 8277 8279 8279 8284 8282 8285 8285 8285 8285 8288 8290 8288 8286 8289 8290 8289 8290 8291 8290 8294 8301 8298 
8280 8273 8272 8267 8266 8259 8256 8260 8262 8263 8261 8264 8264 8265 8265 8263 8263 8265 8267 8266 8267 8265 8266 8265 8263 8266 8268 8254 8213 8221 8240 8272 8271 8271 8255 8247 8242 8231 8217 8232 8209 8168 8166 8168 8168 8188 8174 8172 8168 8168 8172 8175 8189 8201 8193 8202 8245 8270 8273 8276 8279 8279 8281 8283 8283 8283 8283 8284 8287 8286 8286 8286 8289 8290 8288 8289 8284 8289 8296 8293 
8275 8272 8271 8265 8258 8259 8260 8257 8261 8264 8261 8266 8264 8262 8265 8264 8265 8263 8264 8265 8265 8266 8265 8264 8267 8266 8268 8264 8218 8219 8229 8263 8250 8237 8238 8242 8245 8246 8249 8237 8180 8163 8163 8165 8165 8175 8169 8169 8171 8168 8181 8199 8194 8238 8220 8228 8235 8248 8265 8273 8276 8279 8279 8282 8283 8282 8281 8283 8284 8284 8284 8283 8286 8286 8284 8285 8282 8283 8291 8287 
8271 8274 8267 8258 8255 8257 8253 8258 8264 8264 8264 8266 8265 8264 8266 8266 8263 8265 8263 8266 8267 8265 8267 8265 8267 8264 8268 8268 8226 8220 8222 8235 8228 8236 8245 8247 8253 8233 8206 8192 8166 8165 8162 8163 8160 8165 8164 8166 8170 8167 8173 8205 8201 8218 8206 8218 8222 8217 8252 8273 8275 8280 8278 8282 8282 8282 8282 8284 8283 8285 8283 8285 8285 8286 8286 8283 8282 8282 8285 8286 
8276 8272 8265 8264 8258 8261 8250 8258 8259 8264 8264 8262 8266 8266 8265 8264 8266 8265 8264 8266 8268 8269 8269 8267 8265 8267 8268 8269 8236 8219 8222 8226 8234 8240 8248 8250 8205 8174 8177 8176 8166 8172 8165 8160 8158 8162 8159 8173 8193 8180 8170 8181 8190 8195 8181 8198 8197 8204 8239 8269 8275 8278 8279 8282 8283 8285 8284 8284 8285 8285 8283 8282 8282 8283 8282 8280 8280 8278 8281 8286 
8271 8271 8264 8266 8263 8256 8252 8254 8261 8267 8265 8268 8266 8269 8269 8267 8267 8264 8266 8269 8274 8270 8268 8268 8271 8265 8273 8274 8246 8217 8220 8227 8239 8239 8230 8205 8193 8195 8185 8189 8180 8175 8165 8161 8158 8156 8157 8178 8219 8212 8180 8180 8184 8196 8181 8185 8191 8199 8241 8273 8275 8277 8278 8280 8285 8286 8287 8283 8284 8284 8285 8280 8285 8282 8282 8283 8279 8281 8282 8279 
8272 8267 8262 8263 8264 8262 8258 8258 8266 8269 8272 8273 8268 8272 8273 8267 8267 8266 8268 8272 8274 8272 8272 8269 8269 8266 8272 8268 8233 8210 8215 8226 8229 8197 8179 8174 8185 8175 8168 8178 8174 8176 8164 8160 8157 8154 8156 8174 8212 8209 8186 8177 8183 8229 8193 8181 8190 8208 8247 8272 8274 8281 8279 8283 8283 8286 8286 8286 8286 8285 8282 8282 8284 8282 8284 8285 8283 8284 8282 8288 
8269 8262 8263 8263 8266 8263 8260 8266 8270 8269 8273 8276 8273 8273 8275 8270 8268 8268 8267 8269 8272 8272 8271 8269 8268 8266 8268 8250 8222 8213 8215 8219 8207 8181 8175 8175 8177 8176 8171 8169 8172 8176 8168 8160 8158 8153 8163 8187 8212 8215 8188 8179 8200 8283 8222 8188 8189 8221 8261 8272 8276 8281 8278 8282 8285 8285 8287 8286 8287 8285 8283 8283 8283 8285 8283 8285 8286 8286 8282 8283 
8264 8260 8261 8265 8265 8265 8269 8262 8267 8269 8273 8275 8274 8273 8274 8271 8270 8270 8269 8268 8272 8270 8270 8267 8267 8264 8264 8236 8230 8218 8216 8212 8192 8182 8187 8184 8180 8176 8177 8175 8173 8176 8168 8162 8160 8164 8182 8195 8212 8211 8192 8183 8238 8294 8259 8194 8194 8245 8269 8275 8277 8277 8279 8282 8282 8284 8284 8284 8286 8285 8282 8284 8286 8286 8288 8286 8288 8288 8285 8285 
8264 8266 8269 8268 8267 8266 8263 8264 8269 8269 8272 8275 8272 8275 8270 8271 8269 8270 8268 8267 8269 8270 8268 8267 8263 8263 8252 8233 8235 8233 8218 8210 8186 8179 8181 8177 8181 8178 8176 8176 8176 8173 8173 8166 8171 8174 8180 8192 8198 8203 8197 8201 8233 8278 8295 8236 8220 8265 8273 8277 8276 8279 8277 8280 8283 8285 8286 8283 8284 8285 8282 8283 8285 8284 8284 8287 8292 8290 8289 8286 
8266 8271 8271 8266 8270 8266 8267 8266 8270 8270 8272 8275 8274 8273 8272 8270 8269 8270 8269 8268 8269 8270 8268 8266 8266 8262 8238 8235 8241 8235 8222 8208 8188 8176 8175 8182 8185 8183 8178 8179 8172 8178 8177 8180 8179 8178 8178 8186 8197 8202 8203 8210 8220 8243 8288 8299 8283 8276 8278 8274 8275 8275 8278 8283 8283 8284 8283 8281 8281 8281 8282 8281 8284 8284 8283 8286 8289 8291 8288 8292 
8264 8267 8266 8265 8268 8267 8266 8265 8270 8273 8275 8279 8272 8270 8272 8269 8268 8270 8268 8267 8267 8269 8269 8268 8267 8260 8238 8241 8240 8224 8217 8204 8187 8174 8174 8180 8186 8186 8185 8180 8174 8182 8186 8181 8178 8179 8187 8188 8199 8209 8217 8222 8225 8225 8260 8321 8310 8282 8275 8276 8275 8278 8277 8280 8281 8283 8283 8281 8280 8279 8281 8281 8285 8285 8286 8287 8288 8292 8293 8291 
8262 8266 8265 8264 8268 8270 8267 8268 8274 8271 8271 8276 8273 8272 8269 8270 8268 8268 8268 8266 8267 8268 8269 8267 8265 8262 8233 8241 8237 8207 8195 8191 8185 8180 8177 8183 8192 8195 8197 8194 8188 8190 8184 8183 8179 8182 8188 8191 8199 8215 8227 8226 8224 8228 8254 8317 8317 8282 8275 8274 8274 8277 8274 8279 8282 8283 8282 8278 8278 8277 8277 8281 8281 8281 8287 8287 8293 8294 8293 8293 
8267 8267 8264 8266 8268 8268 8267 8269 8274 8272 8275 8273 8269 8273 8270 8270 8269 8269 8267 8268 8266 8267 8268 8269 8270 8263 8239 8241 8235 8205 8193 8186 8185 8183 8174 8189 8197 8201 8194 8198 8194 8192 8193 8197 8190 8188 8187 8192 8201 8213 8223 8227 8228 8232 8250 8314 8318 8282 8276 8273 8273 8275 8277 8280 8275 8279 8278 8279 8277 8278 8276 8279 8283 8286 8285 8287 8291 8295 8293 8293 
8266 8266 8266 8263 8264 8269 8266 8269 8271 8272 8270 8271 8271 8271 8268 8269 8268 8269 8266 8265 8267 8267 8269 8270 8269 8265 8243 8242 8225 8206 8189 8187 8190 8191 8184 8193 8199 8199 8193 8200 8196 8205 8208 8210 8210 8212 8206 8210 8221 8216 8229 8241 8241 8240 8267 8318 8312 8281 8273 8271 8273 8279 8275 8275 8280 8278 8276 8278 8276 8278 8275 8279 8279 8282 8283 8283 8285 8292 8287 8289 
8269 8269 8272 8267 8269 8267 8266 8266 8271 8272 8270 8272 8267 8267 8270 8267 8269 8270 8266 8267 8269 8268 8271 8272 8268 8271 8249 8242 8219 8208 8199 8195 8192 8194 8196 8195 8196 8184 8190 8199 8209 8216 8223 8226 8223 8231 8232 8230 8241 8237 8242 8244 8250 8246 8280 8325 8300 8277 8272 8271 8273 8276 8274 8277 8275 8275 8278 8276 8276 8276 8274 8279 8277 8278 8277 8280 8282 8284 8283 8285 
8271 8272 8275 8269 8269 8270 8265 8269 8272 8272 8270 8271 8271 8270 8270 8269 8268 8270 8271 8270 8268 8272 8273 8269 8273 8271 8259 8248 8240 8211 8208 8211 8207 8209 8218 8215 8202 8189 8190 8197 8222 8231 8234 8236 8233 8234 8251 8249 8246 8240 8247 8245 8251 8250 8280 8314 8286 8276 8270 8269 8270 8275 8271 8272 8272 8274 8273 8273 8275 8273 8272 8273 8274 8278 8276 8276 8276 8279 8277 8279 
8276 8276 8276 8271 8272 8269 8270 8270 8271 8273 8273 8271 8272 8269 8272 8270 8269 8270 8273 8271 8270 8274 8272 8271 8273 8268 8268 8254 8253 8221 8206 8208 8219 8227 8234 8225 8215 8200 8203 8211 8221 8233 8240 8237 8226 8227 8239 8244 8247 8246 8252 8246 8241 8259 8302 8302 8276 8274 8270 8269 8272 8274 8272 8272 8272 8270 8268 8271 8276 8273 8274 8271 8272 8272 8275 8274 8278 8277 8276 8277 
8279 8276 8274 8271 8276 8270 8271 8271 8272 8269 8270 8275 8277 8274 8271 8272 8269 8270 8271 8271 8272 8272 8273 8273 8272 8269 8271 8260 8249 8220 8212 8209 8216 8218 8235 8235 8222 8215 8205 8215 8224 8235 8237 8220 8217 8217 8238 8252 8254 8260 8254 8242 8238 8273 8305 8281 8273 8274 8269 8271 8271 8275 8270 8271 8270 8271 8271 8271 8272 8274 8272 8275 8274 8272 8276 8274 8278 8275 8274 8278 
8277 8279 8277 8270 8271 8269 8275 8271 8274 8268 8271 8273 8275 8272 8270 8269 8271 8267 8272 8270 8271 8274 8273 8271 8272 8272 8272 8260 8251 8236 8224 8216 8217 8207 8218 8229 8220 8213 8212 8223 8235 8243 8235 8220 8222 8217 8242 8260 8270 8258 8244 8240 8242 8288 8287 8274 8274 8276 8274 8271 8270 8274 8271 8270 8272 8273 8274 8274 8276 8278 8274 8276 8277 8278 8280 8278 8279 8279 8277 8278 
8276 8275 8276 8275 8276 8274 8273 8270 8274 8270 8272 8272 8272 8267 8269 8267 8266 8266 8268 8269 8270 8272 8271 8272 8269 8270 8274 8254 8245 8259 8246 8230 8223 8211 8206 8210 8196 8197 8223 8239 8240 8247 8238 8237 8241 8228 8242 8252 8261 8258 8243 8242 8270 8289 8273 8276 8276 8277 8273 8271 8271 8272 8271 8274 8275 8275 8272 8275 8275 8276 8275 8276 8277 8280 8281 8283 8282 8280 8279 8282 
8274 8279 8279 8274 8277 8274 8273 8269 8273 8272 8270 8268 8269 8269 8269 8269 8266 8265 8267 8269 8272 8273 8271 8272 8272 8271 8271 8259 8242 8250 8264 8253 8237 8220 8218 8216 8218 8215 8234 8238 8234 8235 8230 8237 8240 8229 8245 8252 8251 8245 8247 8272 8291 8274 8276 8278 8279 8277 8271 8275 8272 8274 8271 8274 8275 8276 8274 8273 8275 8278 8275 8276 8279 8281 8282 8283 8284 8282 8282 8279 
8275 8278 8281 8276 8277 8274 8275 8273 8274 8272 8272 8272 8268 8268 8267 8265 8265 8267 8267 8272 8271 8272 8272 8273 8271 8270 8274 8267 8241 8240 8261 8279 8263 8234 8227 8230 8241 8242 8241 8229 8221 8223 8239 8243 8234 8243 8259 8256 8252 8247 8268 8294 8282 8270 8277 8281 8278 8276 8274 8272 8275 8277 8276 8274 8276 8278 8275 8275 8275 8275 8278 8277 8277 8281 8283 8281 8280 8282 8283 8284 
8274 8279 8279 8273 8276 8273 8272 8273 8272 8273 8270 8268 8269 8264 8270 8268 8267 8269 8270 8275 8273 8272 8272 8270 8269 8269 8275 8276 8249 8243 8253 8272 8282 8267 8255 8248 8256 8246 8231 8235 8228 8245 8258 8252 8239 8251 8253 8256 8270 8279 8299 8295 8274 8272 8277 8281 8279 8278 8274 8277 8277 8279 8274 8275 8275 8278 8279 8278 8278 8278 8276 8279 8278 8280 8281 8280 8283 8280 8283 8283 
8275 8277 8277 8271 8273 8272 8270 8269 8273 8271 8268 8271 8268 8267 8273 8273 8268 8269 8274 8273 8271 8271 8272 8272 8272 8270 8275 8279 8264 8244 8251 8268 8274 8279 8281 8267 8258 8245 8231 8245 8246 8262 8276 8258 8250 8257 8265 8281 8289 8296 8301 8287 8269 8277 8282 8280 8281 8277 8277 8278 8278 8282 8278 8278 8280 8281 8278 8278 8281 8279 8280 8281 8281 8283 8281 8282 8283 8284 8283 8284 
8275 8277 8276 8272 8269 8271 8269 8271 8273 8274 8271 8271 8270 8274 8269 8270 8270 8271 8267 8267 8273 8270 8273 8269 8273 8272 8275 8279 8276 8249 8244 8263 8269 8270 8270 8274 8275 8276 8274 8275 8275 8286 8294 8286 8288 8289 8287 8286 8299 8304 8296 8272 8274 8281 8282 8281 8280 8283 8280 8280 8282 8283 8282 8281 8282 8281 8281 8278 8282 8282 8279 8283 8285 8284 8284 8282 8283 8285 8283 8280 
8278 8280 8278 8273 8274 8272 8269 8270 8278 8277 8272 8274 8274 8273 8272 8270 8269 8271 8270 8269 8272 8271 8273 8273 8276 8271 8278 8280 8279 8268 8249 8253 8268 8272 8272 8272 8266 8272 8280 8289 8288 8292 8295 8294 8290 8290 8295 8300 8301 8293 8278 8273 8279 8281 8281 8282 8286 8285 8282 8286 8282 8287 8287 8287 8285 8285 8285 8283 8282 8282 8281 8283 8285 8285 8288 8285 8286 8284 8282 8286 
8279 8280 8276 8270 8272 8271 8272 8272 8276 8275 8272 8274 8271 8275 8275 8270 8269 8272 8272 8270 8269 8269 8269 8270 8273 8274 8275 8276 8281 8274 8267 8253 8255 8272 8275 8274 8274 8276 8276 8281 8281 8284 8286 8295 8295 8299 8301 8300 8293 8273 8271 8281 8280 8282 8279 8282 8284 8285 8285 8286 8284 8284 8286 8286 8285 8281 8282 8282 8283 8283 8280 8283 8285 8285 8285 8284 8287 8284 8286 8287 
8278 8281 8277 8278 8273 8276 8275 8273 8274 8272 8273 8268 8275 8275 8277 8273 8273 8276 8270 8273 8271 8271 8273 8273 8272 8272 8277 8280 8282 8279 8277 8269 8254 8259 8275 8280 8276 8277 8284 8285 8285 8286 8291 8295 8296 8300 8296 8285 8272 8269 8278 8279 8278 8283 8279 8280 8286 8283 8284 8285 8282 8284 8285 8283 8284 8282 8282 8285 8283 8284 8281 8284 8287 8286 8285 8284 8285 8287 8284 8283 
8283 8286 8281 8276 8280 8282 8277 8277 8276 8278 8275 8277 8277 8277 8278 8277 8278 8275 8273 8273 8271 8276 8274 8274 8273 8275 8277 8282 8283 8283 8282 8282 8276 8266 8259 8268 8274 8279 8281 8284 8286 8286 8289 8290 8294 8285 8277 8274 8275 8277 8279 8281 8281 8285 8281 8281 8284 8285 8281 8283 8284 8285 8281 8285 8285 8283 8285 8284 8282 8285 8286 8285 8287 8288 8284 8284 8283 8287 8283 8286 
8291 8293 8287 8286 8285 8285 8280 8280 8285 8284 8286 8280 8279 8279 8280 8280 8278 8277 8275 8274 8279 8276 8277 8276 8275 8274 8278 8281 8283 8285 8284 8285 8280 8283 8280 8272 8269 8269 8271 8276 8277 8275 8275 8277 8277 8277 8278 8276 8279 8278 8283 8287 8283 8285 8280 8282 8283 8285 8286 8284 8284 8284 8283 8283 8283 8283 8282 8283 8285 8289 8283 8286 8287 8285 8287 8284 8289 8287 8285 8284 
8294 8293 8298 8293 8289 8290 8288 8290 8291 8289 8287 8287 8283 8286 8283 8282 8281 8279 8276 8277 8277 8275 8278 8277 8280 8278 8284 8286 8285 8287 8293 8290 8283 8284 8283 8283 8284 8284 8284 8286 8286 8285 8285 8286 8285 8282 8281 8278 8278 8281 8284 8288 8281 8284 8281 8283 8284 8284 8283 8285 8285 8287 8285 8284 8283 8281 8284 8283 8285 8285 8286 8284 8287 8290 8288 8286 8288 8284 8289 8289 
8293 8291 8293 8293 8289 8292 8290 8289 8290 8289 8291 8291 8290 8288 8284 8283 8287 8285 8284 8280 8277 8279 8279 8282 8281 8278 8285 8287 8287 8291 8290 8295 8289 8289 8288 8284 8287 8288 8287 8289 8289 8286 8289 8289 8287 8283 8282 8282 8284 8280 8285 8287 8285 8286 8285 8283 8285 8286 8282 8285 8284 8288 8285 8283 8281 8281 8282 8282 8282 8288 8287 8285 8289 8291 8291 8287 8286 8287 8285 8287 
8292 8293 8292 8289 8292 8289 8293 8290 8291 8291 8292 8291 8290 8290 8291 8290 8290 8290 8288 8283 8279 8282 8283 8284 8283 8284 8287 8288 8293 8294 8296 8296 8290 8290 8290 8289 8288 8290 8292 8292 8290 8292 8291 8291 8291 8284 8283 8285 8285 8283 8284 8289 8289 8289 8282 8285 8284 8283 8285 8284 8285 8287 8284 8283 8283 8282 8283 8285 8287 8287 8286 8289 8292 8294 8291 8287 8290 8290 8286 8285 
8295 8295 8295 8295 8292 8291 8290 8298 8291 8290 8290 8292 8295 8292 8292 8293 8290 8292 8294 8287 8283 8286 8287 8289 8287 8287 8288 8294 8293 8296 8299 8302 8292 8297 8294 8292 8293 8292 8298 8297 8295 8293 8294 8294 8292 8290 8290 8289 8286 8286 8286 8288 8289 8289 8285 8285 8288 8289 8285 8287 8287 8288 8287 8285 8284 8283 8286 8283 8286 8284 8287 8289 8294 8291 8292 8288 8288 8289 8287 8287 
8294 8299 8298 8295 8295 8294 8298 8302 8301 8298 8290 8294 8295 8296 8292 8292 8293 8294 8293 8293 8287 8291 8291 8290 8289 8291 8297 8297 8296 8294 8299 8300 8293 8299 8300 8295 8294 8299 8301 8300 8298 8296 8296 8300 8299 8294 8293 8292 8292 8290 8291 8296 8289 8291 8286 8288 8287 8291 8286 8290 8290 8288 8287 8285 8285 8285 8284 8286 8286 8289 8289 8295 8294 8293 8292 8289 8288 8288 8288 8286 
8295 8298 8297 8297 8294 8298 8299 8303 8298 8301 8298 8301 8299 8295 8295 8297 8298 8301 8295 8293 8292 8296 8294 8293 8296 8294 8302 8301 8299 8295 8294 8297 8295 8299 8301 8299 8300 8299 8301 8301 8299 8298 8297 8300 8299 8298 8295 8295 8296 8296 8297 8297 8293 8291 8286 8287 8289 8290 8287 8291 8289 8290 8288 8287 8285 8284 8285 8286 8288 8292 8293 8301 8295 8296 8298 8289 8289 8287 8283 8285 
8294 8301 8300 8297 8292 8295 8300 8300 8296 8299 8297 8301 8299 8296 8296 8296 8298 8298 8299 8299 8296 8299 8296 8297 8295 8295 8300 8301 8301 8300 8297 8301 8295 8299 8301 8301 8301 8304 8306 8305 8301 8301 8304 8305 8305 8300 8298 8297 8303 8302 8298 8300 8293 8293 8286 8286 8288 8289 8288 8287 8290 8286 8286 8286 8286 8283 8287 8286 8291 8294 8297 8298 8300 8298 8297 8293 8291 8288 8286 8285 
8296 8306 8305 8297 8295 8298 8300 8302 8300 8301 8300 8297 8299 8295 8297 8298 8299 8296 8298 8297 8298 8300 8295 8300 8296 8293 8299 8302 8307 8305 8302 8306 8299 8302 8302 8299 8302 8306 8308 8308 8303 8305 8307 8309 8306 8303 8301 8302 8307 8304 8302 8300 8297 8295 8289 8287 8288 8291 8287 8286 8288 8288 8285 8287 8287 8286 8287 8288 8294 8296 8300 8304 8302 8303 8302 8297 8292 8291 8288 8287 
8297 8305 8306 8298 8296 8299 8304 8303 8302 8300 8298 8296 8294 8294 8296 8293 8295 8296 8293 8292 8297 8294 8294 8297 8296 8291 8294 8304 8307 8305 8307 8305 8304 8302 8303 8303 8303 8303 8305 8305 8304 8304 8309 8310 8308 8304 8302 8307 8307 8302 8302 8300 8295 8291 8287 8285 8288 8291 8287 8286 8282 8285 8286 8288 8288 8290 8291 8289 8293 8297 8300 8303 8300 8303 8298 8297 8292 8291 8289 8288 
8297 8309 8305 8296 8298 8300 8301 8300 8306 8302 8296 8293 8293 8293 8297 8297 8291 8293 8295 8295 8294 8289 8291 8297 8297 8295 8301 8303 8308 8309 8305 8307 8302 8304 8300 8301 8301 8302 8300 8302 8300 8300 8304 8308 8302 8305 8303 8303 8304 8303 8299 8299 8293 8289 8285 8285 8287 8287 8284 8283 8282 8286 8286 8285 8287 8286 8288 8291 8292 8297 8298 8298 8299 8303 8299 8294 8289 8288 8287 8285 
8297 8297 8293 8289 8293 8293 8293 8302 8297 8295 8292 8290 8289 8296 8297 8289 8287 8288 8291 8294 8294 8291 8292 8294 8303 8302 8303 8307 8306 8306 8306 8303 8299 8303 8301 8301 8303 8303 8305 8303 8302 8300 8298 8303 8304 8303 8297 8301 8303 8300 8298 8294 8289 8287 8282 8281 8283 8286 8282 8283 8281 8286 8285 8285 8288 8285 8290 8294 8293 8296 8296 8298 8295 8296 8297 8290 8287 8286 8282 8283 
8303 8290 8288 8285 8286 8286 8292 8293 8294 8291 8287 8288 8294 8290 8290 8289 8283 8288 8288 8291 8291 8292 8291 8294 8300 8304 8306 8309 8313 8309 8306 8303 8299 8303 8302 8304 8303 8304 8303 8306 8300 8294 8297 8299 8298 8298 8300 8300 8301 8298 8295 8292 8287 8286 8284 8282 8283 8285 8283 8282 8282 8285 8285 8285 8283 8286 8289 8291 8296 8296 8296 8296 8297 8296 8296 8289 8281 8287 8285 8285 


