P2
80 60
8330
8230 8237 8250 8251 8270 8277 8276 8276 8281 8279 8279 8283 8287 8284 8284 8284 8280 8278 8274 8274 8276 8274 8268 8268 8266 8265 8270 8273 8278 8275 8274 8279 8280 8277 8267 8233 8213 8233 8266 8288 8285 8286 8284 8285 8289 8292 8301 8299 8294 8292 8290 8290 8291 8295 8300 8297 8298 8303 8306 8307 8307 8309 8311 8308 8310 8311 8310 8311 8311 8307 8307 8311 8327 8330 8330 8330 8329 8328 8326 8328 
8227 8240 8249 8251 8265 8275 8279 8277 8279 8280 8278 8279 8282 8279 8284 8284 8281 8278 8273 8274 8276 8274 8275 8272 8271 8269 8279 8284 8286 8283 8285 8288 8288 8282 8238 8184 8170 8178 8221 8285 8290 8286 8280 8281 8284 8290 8298 8296 8296 8293 8291 8290 8293 8293 8297 8293 8297 8298 8299 8299 8304 8307 8307 8308 8309 8312 8313 8315 8313 8315 8309 8312 8326 8327 8330 8327 8329 8325 8329 8325 
8228 8242 8250 8255 8266 8270 8270 8277 8277 8274 8271 8273 8274 8275 8274 8274 8273 8274 8268 8268 8273 8269 8274 8272 8271 8275 8278 8286 8285 8286 8285 8288 8289 8284 8258 8195 8170 8172 8213 8281 8278 8246 8225 8227 8233 8251 8274 8288 8292 8292 8292 8288 8292 8295 8296 8297 8296 8296 8296 8299 8301 8302 8303 8303 8305 8309 8311 8312 8312 8317 8311 8315 8323 8325 8327 8328 8330 8325 8329 8323 
8238 8246 8256 8255 8266 8265 8265 8266 8271 8266 8263 8262 8265 8270 8271 8273 8269 8267 8263 8265 8271 8271 8270 8273 8271 8274 8273 8277 8277 8278 8281 8283 8287 8278 8262 8230 8187 8181 8208 8260 8229 8188 8183 8185 8194 8207 8227 8248 8278 8287 8288 8291 8290 8287 8273 8270 8283 8290 8298 8298 8299 8298 8300 8298 8299 8300 8304 8308 8310 8312 8314 8313 8318 8324 8326 8327 8330 8324 8324 8322 
8235 8249 8257 8255 8260 8263 8263 8262 8266 8264 8262 8257 8263 8264 8267 8269 8269 8269 8264 8264 8269 8269 8272 8275 8271 8272 8267 8237 8233 8246 8265 8258 8249 8219 8188 8181 8191 8197 8196 8219 8222 8182 8177 8171 8174 8194 8235 8260 8279 8288 8287 8288 8288 8251 8221 8222 8239 8270 8291 8297 8301 8301 8300 8299 8299 8298 8300 8302 8303 8310 8309 8306 8310 8323 8322 8325 8329 8318 8321 8327 
8239 8253 8260 8259 8260 8262 8265 8266 8268 8268 8263 8261 8264 8264 8267 8267 8267 8269 8266 8269 8268 8270 8273 8271 8273 8274 8263 8189 8169 8177 8197 8195 8187 8168 8168 8173 8191 8212 8208 8205 8204 8210 8211 8196 8183 8196 8265 8289 8289 8285 8289 8283 8260 8217 8212 8211 8219 8235 8277 8297 8297 8300 8300 8300 8300 8300 8303 8303 8302 8305 8302 8306 8305 8315 8319 8322 8322 8318 8320 8320 
8240 8259 8265 8261 8265 8270 8269 8269 8268 8266 8262 8264 8266 8261 8267 8271 8270 8271 8269 8271 8270 8271 8275 8276 8274 8272 8260 8194 8172 8169 8178 8184 8180 8163 8166 8176 8199 8233 8203 8227 8247 8271 8259 8229 8218 8223 8242 8268 8267 8262 8264 8249 8217 8207 8210 8212 8218 8223 8245 8284 8296 8298 8300 8299 8299 8302 8301 8303 8303 8304 8303 8303 8303 8309 8321 8319 8323 8316 8323 8320 
8242 8264 8262 8268 8270 8271 8275 8272 8269 8265 8263 8263 8263 8266 8271 8273 8272 8270 8271 8270 8274 8271 8273 8272 8264 8263 8256 8234 8195 8187 8189 8190 8217 8179 8175 8192 8247 8223 8200 8242 8275 8246 8202 8187 8191 8197 8215 8252 8256 8248 8250 8247 8230 8220 8218 8217 8217 8222 8233 8261 8292 8298 8301 8301 8300 8300 8302 8301 8301 8300 8301 8300 8301 8306 8315 8321 8319 8317 8321 8319 
8248 8264 8266 8263 8270 8274 8272 8269 8268 8261 8262 8264 8264 8268 8270 8272 8267 8268 8266 8268 8269 8269 8269 8262 8237 8206 8201 8221 8249 8253 8228 8199 8203 8208 8232 8241 8259 8203 8218 8264 8257 8197 8184 8183 8186 8193 8200 8216 8204 8193 8210 8269 8275 8249 8228 8223 8222 8221 8227 8245 8286 8299 8299 8300 8298 8301 8298 8298 8301 8301 8299 8301 8300 8299 8312 8320 8320 8315 8319 8318 
8252 8264 8265 8266 8265 8269 8264 8264 8266 8263 8261 8263 8263 8266 8269 8268 8268 8267 8266 8268 8269 8267 8264 8229 8179 8163 8162 8171 8209 8233 8188 8173 8170 8195 8252 8188 8208 8186 8200 8209 8195 8185 8182 8179 8184 8189 8194 8198 8192 8188 8204 8273 8290 8283 8259 8231 8226 8223 8229 8238 8277 8297 8300 8300 8297 8298 8299 8299 8299 8303 8302 8299 8298 8298 8306 8318 8317 8315 8317 8317 
8254 8261 8265 8262 8264 8261 8259 8263 8262 8263 8262 8262 8261 8264 8267 8269 8266 8267 8263 8267 8271 8267 8248 8193 8176 8165 8166 8179 8229 8226 8171 8163 8160 8193 8230 8179 8188 8181 8184 8182 8184 8185 8186 8193 8191 8194 8197 8200 8200 8225 8270 8287 8292 8293 8286 8264 8240 8227 8227 8232 8258 8291 8297 8296 8295 8299 8297 8300 8296 8299 8301 8298 8298 8296 8302 8311 8317 8312 8317 8318 
8255 8268 8269 8265 8258 8260 8257 8260 8262 8260 8263 8264 8263 8264 8269 8269 8267 8267 8263 8268 8272 8269 8227 8191 8181 8191 8214 8250 8278 8273 8227 8174 8165 8170 8203 8176 8179 8178 8176 8178 8182 8183 8194 8242 8206 8203 8200 8201 8215 8277 8287 8288 8289 8291 8292 8288 8272 8245 8231 8231 8241 8278 8294 8294 8294 8295 8295 8296 8295 8300 8298 8297 8295 8296 8299 8310 8316 8317 8316 8315 
8260 8269 8270 8261 8262 8256 8258 8259 8258 8263 8263 8264 8265 8268 8269 8270 8269 8268 8267 8268 8270 8267 8238 8214 8237 8257 8267 8276 8277 8276 8274 8229 8175 8173 8169 8175 8191 8179 8175 8175 8182 8187 8229 8257 8241 8252 8206 8202 8214 8279 8289 8292 8293 8292 8292 8290 8289 8274 8239 8229 8229 8241 8272 8291 8292 8295 8293 8295 8298 8298 8299 8296 8295 8296 8297 8307 8317 8316 8312 8314 
8269 8277 8274 8267 8265 8260 8262 8255 8260 8261 8267 8267 8266 8266 8273 8272 8269 8267 8267 8270 8270 8270 8263 8267 8265 8266 8268 8271 8262 8259 8265 8223 8179 8174 8169 8177 8197 8191 8173 8179 8183 8214 8261 8235 8230 8214 8205 8201 8219 8277 8288 8291 8292 8291 8292 8287 8290 8287 8272 8241 8235 8247 8279 8291 8290 8296 8296 8297 8296 8297 8295 8295 8296 8296 8298 8301 8316 8312 8311 8313 
8271 8267 8274 8269 8265 8260 8257 8259 8260 8258 8264 8266 8265 8266 8273 8273 8269 8271 8268 8267 8272 8267 8268 8266 8265 8267 8264 8231 8190 8186 8207 8213 8180 8172 8175 8180 8211 8221 8180 8179 8186 8217 8233 8212 8199 8197 8202 8200 8203 8237 8277 8286 8294 8291 8293 8289 8289 8290 8288 8272 8258 8277 8288 8291 8294 8294 8295 8297 8295 8296 8295 8296 8299 8299 8302 8300 8313 8309 8307 8306 
8276 8266 8270 8271 8268 8261 8260 8257 8257 8261 8261 8261 8264 8266 8269 8271 8270 8268 8267 8270 8269 8269 8268 8267 8260 8256 8235 8182 8176 8174 8199 8216 8181 8176 8177 8181 8180 8177 8174 8174 8176 8175 8191 8191 8193 8196 8198 8198 8192 8196 8243 8284 8289 8288 8289 8284 8280 8280 8284 8288 8291 8291 8293 8291 8293 8296 8296 8294 8294 8295 8295 8293 8295 8297 8299 8298 8304 8305 8306 8305 
8275 8265 8266 8266 8265 8260 8255 8255 8258 8260 8260 8264 8265 8266 8268 8269 8269 8270 8267 8267 8270 8265 8262 8249 8226 8211 8186 8170 8177 8172 8176 8172 8174 8177 8179 8183 8177 8165 8162 8166 8174 8171 8180 8193 8189 8191 8198 8194 8192 8190 8210 8270 8282 8284 8269 8241 8221 8231 8270 8285 8287 8290 8289 8292 8292 8294 8294 8292 8291 8293 8292 8291 8294 8296 8295 8298 8297 8299 8302 8300 
8277 8270 8268 8265 8263 8260 8256 8256 8262 8259 8264 8264 8268 8266 8273 8273 8268 8270 8266 8267 8265 8253 8234 8229 8210 8188 8172 8172 8174 8175 8178 8165 8164 8178 8184 8183 8185 8171 8166 8185 8185 8171 8177 8216 8192 8193 8196 8194 8192 8197 8203 8248 8272 8246 8211 8200 8194 8202 8226 8273 8286 8290 8289 8291 8288 8293 8289 8292 8291 8293 8291 8292 8291 8294 8293 8293 8290 8293 8304 8300 
8277 8272 8269 8264 8262 8258 8255 8260 8262 8266 8263 8266 8269 8265 8266 8266 8262 8265 8262 8260 8241 8236 8253 8215 8175 8177 8177 8169 8169 8192 8206 8168 8164 8176 8187 8188 8188 8179 8173 8171 8171 8173 8191 8220 8225 8214 8209 8202 8202 8224 8245 8256 8232 8204 8198 8195 8196 8197 8207 8246 8280 8285 8290 8288 8288 8288 8290 8291 8292 8292 8290 8291 8291 8293 8292 8290 8290 8288 8296 8297 
8271 8272 8267 8258 8255 8255 8258 8260 8266 8268 8266 8268 8265 8250 8232 8223 8219 8220 8215 8214 8242 8256 8219 8174 8169 8172 8176 8170 8167 8172 8198 8190 8175 8166 8179 8186 8183 8173 8175 8173 8176 8175 8186 8192 8205 8207 8227 8226 8224 8225 8224 8226 8236 8229 8214 8203 8198 8199 8205 8222 8265 8280 8287 8286 8291 8288 8289 8292 8286 8289 8290 8288 8287 8286 8289 8288 8285 8285 8293 8294 
8269 8270 8264 8251 8253 8254 8250 8261 8266 8268 8269 8265 8259 8199 8185 8182 8181 8182 8178 8229 8264 8226 8176 8172 8176 8201 8195 8179 8174 8165 8165 8176 8176 8170 8169 8174 8171 8171 8171 8172 8173 8178 8183 8185 8182 8175 8180 8214 8244 8243 8236 8234 8248 8271 8264 8231 8202 8201 8200 8206 8224 8266 8286 8289 8287 8289 8289 8292 8286 8288 8289 8287 8287 8287 8287 8287 8287 8282 8286 8291 
8272 8268 8261 8257 8257 8257 8251 8258 8259 8267 8267 8264 8246 8186 8178 8176 8176 8178 8204 8255 8262 8212 8175 8175 8175 8182 8191 8201 8182 8169 8168 8165 8166 8173 8173 8173 8172 8170 8171 8171 8169 8174 8182 8186 8187 8174 8176 8192 8230 8240 8239 8237 8236 8258 8279 8275 8243 8212 8204 8205 8218 8255 8284 8289 8289 8290 8290 8291 8289 8290 8286 8287 8285 8284 8284 8284 8283 8280 8285 8285 
8265 8265 8257 8258 8259 8255 8252 8256 8267 8270 8269 8267 8239 8187 8181 8178 8172 8177 8238 8260 8265 8215 8178 8177 8181 8178 8200 8206 8187 8176 8178 8161 8165 8163 8158 8169 8173 8168 8165 8161 8157 8167 8183 8187 8194 8186 8176 8182 8217 8233 8239 8243 8237 8239 8273 8281 8279 8255 8240 8239 8245 8271 8286 8286 8288 8292 8290 8292 8289 8289 8288 8288 8287 8285 8287 8287 8283 8281 8286 8282 
8268 8262 8258 8260 8263 8260 8260 8260 8271 8274 8274 8269 8234 8186 8182 8179 8174 8197 8258 8265 8257 8191 8182 8179 8176 8178 8202 8192 8186 8184 8182 8173 8165 8164 8160 8162 8168 8171 8168 8164 8157 8164 8178 8185 8196 8193 8190 8194 8214 8220 8230 8236 8241 8237 8259 8282 8282 8282 8281 8283 8282 8285 8287 8288 8286 8290 8292 8293 8289 8289 8286 8288 8285 8286 8287 8288 8288 8282 8283 8285 
8263 8256 8262 8259 8265 8263 8264 8270 8271 8273 8276 8273 8240 8187 8184 8178 8178 8225 8263 8259 8232 8188 8187 8182 8182 8220 8201 8196 8192 8185 8183 8178 8177 8175 8166 8170 8175 8174 8172 8172 8170 8169 8172 8176 8183 8188 8189 8191 8207 8214 8216 8222 8237 8239 8248 8280 8285 8284 8286 8287 8286 8289 8287 8288 8290 8292 8292 8294 8290 8292 8287 8289 8285 8289 8287 8288 8289 8289 8287 8286 
8261 8257 8259 8262 8268 8267 8273 8267 8273 8272 8277 8277 8257 8193 8186 8178 8184 8252 8263 8216 8196 8189 8193 8211 8243 8234 8196 8198 8198 8191 8188 8184 8183 8184 8178 8169 8174 8172 8168 8176 8181 8169 8163 8169 8187 8188 8192 8189 8199 8210 8205 8200 8228 8240 8243 8270 8282 8285 8286 8286 8289 8286 8287 8289 8288 8291 8292 8290 8288 8290 8288 8288 8288 8286 8290 8290 8292 8286 8293 8287 
8262 8262 8265 8268 8270 8270 8269 8269 8274 8274 8274 8276 8267 8212 8186 8178 8198 8262 8267 8244 8227 8229 8250 8265 8260 8221 8198 8199 8199 8197 8187 8183 8188 8184 8169 8164 8167 8167 8174 8183 8179 8177 8166 8166 8194 8197 8193 8190 8197 8206 8208 8200 8218 8241 8241 8264 8280 8285 8286 8287 8287 8285 8283 8288 8287 8291 8292 8291 8288 8287 8287 8287 8288 8288 8287 8288 8292 8288 8290 8289 
8263 8270 8273 8267 8272 8271 8273 8270 8277 8276 8277 8275 8272 8235 8189 8181 8213 8267 8269 8267 8271 8272 8276 8272 8263 8213 8194 8198 8198 8194 8187 8187 8187 8184 8170 8168 8165 8164 8175 8188 8184 8188 8189 8179 8198 8211 8198 8194 8194 8209 8215 8214 8219 8241 8247 8259 8283 8286 8287 8286 8286 8284 8288 8288 8289 8290 8291 8285 8284 8285 8286 8288 8286 8287 8288 8289 8291 8291 8291 8290 
8264 8268 8270 8266 8269 8270 8272 8273 8275 8277 8275 8277 8275 8248 8191 8183 8211 8267 8268 8268 8273 8273 8277 8275 8262 8210 8200 8200 8199 8194 8189 8184 8187 8189 8185 8179 8168 8172 8187 8189 8189 8191 8203 8201 8196 8200 8208 8203 8203 8208 8217 8217 8232 8241 8252 8261 8282 8285 8286 8288 8285 8286 8286 8286 8288 8289 8287 8286 8285 8284 8286 8286 8285 8289 8288 8292 8293 8294 8295 8290 
8262 8267 8268 8267 8270 8272 8274 8272 8277 8276 8278 8281 8277 8257 8192 8192 8227 8267 8270 8272 8272 8275 8275 8276 8264 8212 8200 8196 8196 8191 8190 8187 8188 8191 8191 8188 8184 8185 8192 8195 8196 8203 8207 8207 8200 8193 8200 8206 8204 8209 8212 8215 8233 8245 8249 8266 8284 8284 8287 8285 8284 8285 8285 8287 8286 8289 8288 8286 8284 8282 8283 8287 8284 8286 8289 8292 8293 8291 8295 8289 
8264 8269 8266 8265 8271 8272 8272 8273 8277 8276 8279 8279 8272 8249 8202 8218 8259 8272 8272 8273 8273 8274 8278 8276 8271 8221 8202 8196 8197 8194 8191 8189 8191 8188 8190 8192 8188 8192 8190 8190 8195 8206 8210 8210 8198 8194 8196 8200 8199 8206 8215 8220 8236 8247 8251 8272 8282 8286 8286 8284 8282 8281 8285 8286 8283 8287 8284 8283 8281 8283 8283 8283 8287 8287 8286 8292 8292 8294 8295 8289 
8267 8268 8268 8265 8270 8274 8270 8271 8277 8275 8275 8274 8275 8261 8259 8272 8274 8275 8272 8271 8274 8273 8279 8279 8274 8236 8206 8197 8198 8195 8190 8187 8186 8186 8186 8188 8185 8182 8179 8188 8193 8207 8211 8209 8204 8198 8198 8200 8209 8218 8219 8229 8241 8249 8252 8274 8281 8285 8282 8284 8284 8285 8286 8283 8285 8286 8283 8282 8282 8285 8281 8284 8282 8284 8287 8288 8289 8290 8290 8288 
8269 8274 8274 8270 8271 8272 8270 8272 8278 8276 8275 8276 8272 8273 8275 8276 8274 8276 8272 8273 8276 8277 8279 8279 8272 8257 8220 8209 8201 8192 8182 8178 8188 8188 8188 8190 8187 8178 8187 8187 8192 8210 8216 8210 8204 8199 8200 8200 8222 8227 8234 8235 8249 8247 8261 8276 8279 8281 8284 8282 8284 8284 8283 8285 8281 8283 8284 8283 8280 8281 8283 8284 8281 8281 8283 8284 8285 8280 8283 8284 
8269 8275 8280 8271 8274 8277 8274 8276 8279 8275 8276 8278 8277 8275 8281 8277 8274 8277 8274 8273 8273 8278 8280 8277 8275 8271 8239 8221 8204 8187 8180 8176 8192 8192 8192 8196 8193 8184 8193 8186 8190 8209 8214 8207 8203 8198 8203 8198 8219 8239 8246 8246 8248 8249 8272 8277 8279 8281 8281 8281 8284 8283 8281 8281 8279 8283 8282 8281 8281 8279 8281 8279 8279 8278 8280 8280 8280 8279 8281 8284 
8274 8278 8279 8273 8276 8274 8276 8276 8277 8274 8280 8277 8278 8274 8279 8279 8275 8278 8277 8275 8276 8280 8281 8280 8278 8274 8266 8240 8215 8193 8182 8180 8186 8194 8194 8197 8194 8195 8197 8192 8187 8202 8211 8209 8206 8199 8201 8202 8204 8231 8247 8250 8252 8262 8275 8279 8279 8280 8278 8281 8282 8282 8283 8279 8279 8278 8279 8281 8280 8280 8280 8278 8278 8277 8280 8282 8282 8275 8280 8283 
8280 8279 8280 8275 8276 8276 8279 8277 8279 8275 8277 8279 8283 8280 8281 8281 8278 8278 8278 8274 8280 8279 8281 8279 8276 8278 8275 8265 8235 8207 8182 8175 8180 8190 8195 8186 8187 8192 8200 8195 8189 8197 8208 8209 8206 8204 8206 8202 8207 8233 8251 8250 8256 8271 8278 8278 8279 8280 8279 8281 8284 8283 8282 8280 8279 8281 8278 8280 8279 8280 8280 8279 8279 8277 8282 8284 8281 8275 8275 8280 
8278 8281 8281 8274 8275 8278 8280 8278 8279 8272 8276 8281 8281 8280 8280 8280 8278 8275 8278 8275 8280 8280 8282 8278 8278 8276 8275 8266 8255 8226 8195 8183 8181 8183 8187 8190 8184 8194 8200 8196 8198 8198 8198 8204 8208 8207 8208 8213 8225 8243 8249 8256 8272 8277 8280 8280 8280 8282 8286 8282 8285 8281 8281 8282 8282 8284 8282 8282 8282 8284 8284 8281 8282 8284 8285 8285 8285 8280 8280 8281 
8279 8278 8278 8276 8278 8279 8278 8276 8278 8275 8276 8279 8279 8277 8280 8276 8275 8275 8274 8274 8277 8278 8280 8279 8275 8275 8276 8266 8254 8243 8215 8201 8190 8180 8189 8197 8189 8197 8200 8194 8192 8191 8200 8209 8211 8213 8214 8221 8229 8244 8254 8272 8273 8278 8282 8284 8284 8284 8285 8283 8279 8280 8279 8283 8281 8285 8280 8284 8281 8284 8284 8282 8284 8284 8284 8287 8288 8282 8284 8285 
8274 8283 8283 8279 8278 8279 8278 8273 8278 8277 8277 8276 8275 8275 8280 8275 8274 8275 8272 8274 8277 8280 8278 8281 8278 8275 8276 8267 8260 8252 8242 8221 8207 8194 8188 8190 8188 8188 8198 8190 8189 8188 8196 8202 8213 8213 8226 8234 8241 8254 8276 8276 8274 8277 8285 8286 8284 8283 8285 8285 8282 8280 8282 8280 8282 8282 8283 8282 8280 8284 8280 8285 8281 8286 8286 8288 8288 8281 8286 8283 
8274 8279 8285 8277 8281 8280 8281 8276 8278 8280 8277 8275 8276 8273 8276 8276 8273 8275 8272 8274 8277 8276 8282 8281 8276 8275 8278 8273 8261 8257 8265 8258 8235 8212 8204 8205 8206 8202 8214 8198 8185 8179 8196 8199 8211 8230 8243 8253 8262 8271 8281 8278 8274 8280 8286 8286 8283 8282 8282 8283 8284 8282 8284 8282 8283 8282 8282 8282 8281 8283 8282 8282 8284 8285 8284 8287 8285 8280 8284 8283 
8276 8281 8282 8278 8276 8282 8277 8276 8279 8276 8278 8274 8274 8274 8278 8277 8277 8277 8277 8279 8281 8278 8280 8278 8276 8275 8278 8282 8268 8258 8265 8274 8264 8244 8237 8231 8224 8219 8223 8210 8202 8200 8215 8217 8230 8247 8258 8271 8278 8279 8283 8277 8276 8279 8285 8287 8283 8283 8281 8287 8285 8286 8288 8283 8282 8284 8284 8284 8283 8285 8286 8285 8284 8286 8283 8284 8286 8280 8284 8285 
8277 8280 8282 8273 8279 8277 8278 8276 8281 8278 8278 8277 8274 8277 8281 8284 8276 8276 8278 8278 8278 8277 8279 8281 8279 8277 8280 8283 8275 8260 8266 8277 8280 8271 8262 8253 8249 8244 8242 8238 8228 8218 8224 8223 8240 8267 8277 8283 8281 8282 8280 8275 8279 8282 8285 8284 8283 8284 8287 8286 8286 8290 8287 8286 8286 8285 8287 8285 8284 8286 8288 8289 8285 8285 8285 8285 8287 8285 8286 8285 
8275 8279 8278 8275 8275 8277 8276 8277 8280 8281 8277 8278 8280 8280 8279 8279 8278 8280 8273 8273 8277 8276 8279 8280 8278 8278 8281 8284 8283 8266 8263 8272 8277 8276 8275 8272 8264 8266 8262 8258 8235 8221 8228 8229 8239 8278 8285 8285 8283 8280 8274 8273 8279 8282 8284 8281 8282 8288 8288 8288 8291 8289 8288 8287 8289 8289 8287 8285 8285 8288 8287 8289 8288 8289 8287 8287 8286 8283 8285 8282 
8275 8282 8280 8275 8280 8279 8276 8276 8281 8281 8279 8278 8279 8282 8278 8278 8277 8277 8271 8275 8278 8276 8279 8281 8281 8278 8282 8286 8286 8276 8264 8266 8279 8281 8278 8280 8274 8276 8279 8276 8261 8239 8230 8235 8255 8283 8289 8286 8281 8276 8273 8275 8278 8279 8284 8284 8289 8291 8291 8293 8289 8291 8294 8294 8289 8292 8290 8291 8286 8289 8289 8290 8288 8288 8287 8288 8286 8282 8281 8281 
8279 8282 8281 8275 8279 8277 8278 8280 8282 8279 8279 8278 8278 8282 8283 8279 8278 8281 8275 8275 8277 8276 8276 8277 8280 8280 8281 8281 8290 8280 8277 8268 8270 8281 8284 8284 8281 8281 8283 8283 8282 8278 8270 8269 8279 8287 8290 8287 8279 8272 8274 8278 8280 8282 8283 8288 8289 8290 8293 8292 8289 8294 8295 8291 8290 8288 8287 8289 8287 8289 8287 8287 8291 8289 8287 8287 8286 8284 8284 8285 
8280 8284 8283 8281 8280 8282 8281 8277 8282 8280 8281 8277 8281 8283 8285 8283 8284 8284 8277 8277 8276 8279 8285 8280 8279 8278 8282 8285 8289 8286 8282 8276 8273 8275 8282 8288 8284 8282 8282 8281 8279 8279 8284 8283 8286 8290 8291 8281 8280 8277 8277 8276 8279 8280 8283 8287 8291 8288 8290 8292 8291 8290 8293 8290 8291 8288 8290 8290 8287 8291 8290 8292 8290 8290 8289 8289 8287 8285 8283 8284 
8286 8292 8286 8282 8285 8287 8285 8282 8285 8284 8283 8283 8284 8284 8285 8288 8286 8285 8279 8279 8280 8282 8282 8283 8279 8281 8282 8287 8291 8289 8283 8285 8285 8278 8274 8282 8284 8288 8290 8288 8289 8287 8292 8285 8288 8288 8289 8286 8282 8280 8280 8281 8280 8283 8283 8286 8288 8291 8291 8290 8292 8292 8291 8290 8289 8291 8292 8291 8288 8290 8293 8290 8291 8290 8288 8287 8287 8284 8285 8284 
8293 8296 8292 8289 8291 8292 8288 8288 8293 8288 8289 8287 8287 8284 8291 8290 8287 8286 8280 8283 8283 8283 8285 8286 8283 8283 8283 8286 8292 8289 8285 8288 8286 8290 8288 8284 8282 8284 8286 8284 8286 8284 8284 8284 8286 8286 8291 8284 8282 8280 8280 8281 8282 8282 8282 8286 8289 8290 8293 8291 8291 8290 8292 8289 8289 8290 8289 8288 8288 8292 8289 8291 8290 8289 8289 8288 8289 8284 8286 8284 
8296 8297 8301 8297 8296 8298 8295 8294 8298 8296 8295 8293 8292 8290 8293 8293 8295 8291 8284 8285 8285 8283 8286 8285 8288 8285 8286 8290 8292 8292 8295 8291 8291 8288 8292 8294 8291 8293 8294 8290 8294 8291 8290 8290 8288 8290 8290 8288 8281 8281 8282 8283 8283 8285 8287 8289 8292 8290 8293 8294 8294 8295 8293 8289 8289 8289 8289 8291 8291 8292 8291 8288 8292 8293 8292 8289 8288 8284 8288 8285 
8295 8296 8299 8297 8294 8299 8298 8295 8297 8295 8298 8295 8296 8296 8295 8296 8299 8298 8292 8284 8283 8288 8290 8292 8291 8285 8287 8290 8296 8297 8293 8297 8295 8293 8294 8295 8293 8296 8298 8295 8294 8292 8295 8290 8292 8289 8290 8288 8286 8281 8284 8284 8287 8287 8290 8290 8292 8292 8294 8292 8292 8295 8296 8291 8286 8288 8291 8290 8291 8294 8292 8291 8293 8292 8293 8292 8287 8287 8288 8290 
8293 8297 8300 8294 8294 8299 8301 8295 8295 8299 8297 8297 8297 8300 8301 8303 8302 8300 8295 8288 8286 8291 8292 8295 8293 8289 8289 8289 8296 8296 8299 8301 8298 8297 8297 8301 8298 8300 8303 8300 8298 8299 8300 8295 8294 8292 8295 8291 8287 8284 8285 8289 8291 8293 8288 8292 8291 8292 8294 8295 8294 8294 8293 8291 8289 8290 8289 8293 8293 8294 8291 8294 8293 8295 8293 8291 8291 8289 8286 8287 
8295 8299 8299 8297 8297 8297 8298 8302 8299 8297 8298 8300 8303 8302 8306 8303 8302 8303 8298 8290 8290 8294 8299 8299 8296 8292 8290 8291 8294 8296 8298 8301 8298 8302 8302 8303 8302 8302 8308 8305 8302 8300 8302 8299 8298 8297 8298 8299 8293 8290 8290 8294 8294 8296 8296 8293 8294 8296 8294 8298 8296 8293 8298 8292 8290 8291 8292 8290 8291 8294 8294 8294 8297 8297 8294 8293 8289 8289 8288 8290 
8296 8303 8304 8300 8300 8299 8303 8309 8306 8304 8299 8302 8302 8304 8305 8305 8304 8304 8298 8299 8296 8301 8300 8301 8298 8298 8297 8295 8298 8293 8298 8300 8298 8301 8301 8305 8307 8310 8310 8306 8307 8301 8303 8302 8303 8302 8306 8302 8299 8297 8297 8300 8296 8297 8296 8296 8294 8296 8297 8299 8297 8295 8295 8292 8290 8292 8291 8295 8291 8295 8294 8300 8299 8297 8294 8294 8292 8287 8293 8288 
8294 8302 8304 8300 8300 8303 8305 8307 8304 8304 8302 8305 8306 8306 8306 8308 8310 8310 8303 8300 8300 8304 8304 8302 8305 8303 8304 8300 8301 8296 8294 8297 8297 8302 8306 8307 8306 8306 8311 8306 8306 8303 8305 8304 8304 8306 8307 8307 8305 8303 8302 8300 8300 8297 8300 8295 8294 8294 8297 8298 8298 8296 8296 8290 8292 8289 8289 8292 8292 8298 8298 8304 8300 8299 8302 8295 8292 8287 8287 8288 
8299 8305 8304 8302 8297 8304 8308 8307 8309 8305 8304 8308 8306 8303 8308 8309 8306 8308 8307 8307 8306 8307 8307 8308 8306 8304 8305 8305 8306 8303 8303 8303 8303 8305 8310 8313 8307 8310 8313 8309 8311 8305 8310 8311 8309 8308 8315 8311 8310 8308 8299 8304 8302 8299 8299 8297 8295 8297 8298 8297 8298 8294 8293 8293 8289 8292 8294 8295 8295 8298 8304 8302 8303 8300 8303 8298 8295 8288 8292 8295 
8299 8310 8310 8303 8300 8304 8308 8310 8307 8309 8308 8307 8305 8303 8310 8306 8309 8306 8306 8306 8310 8307 8305 8311 8306 8303 8305 8307 8314 8312 8311 8312 8308 8311 8313 8310 8307 8313 8316 8313 8311 8310 8313 8311 8310 8311 8315 8316 8315 8311 8304 8303 8304 8302 8300 8296 8295 8295 8294 8298 8298 8295 8293 8294 8292 8291 8294 8294 8299 8300 8307 8307 8306 8306 8303 8301 8299 8292 8293 8289 
8300 8310 8313 8303 8304 8305 8310 8310 8312 8308 8304 8303 8304 8304 8308 8303 8304 8305 8300 8301 8307 8304 8306 8309 8307 8300 8300 8311 8316 8314 8315 8312 8316 8311 8312 8315 8313 8312 8318 8311 8312 8312 8315 8314 8314 8312 8316 8317 8314 8309 8305 8301 8303 8299 8298 8297 8295 8298 8296 8296 8294 8292 8293 8292 8292 8294 8295 8293 8295 8302 8303 8305 8305 8306 8303 8302 8297 8293 8292 8291 
8296 8312 8308 8297 8304 8307 8309 8307 8312 8308 8305 8300 8301 8304 8308 8307 8297 8303 8303 8301 8302 8300 8301 8310 8309 8307 8309 8311 8318 8316 8315 8314 8313 8312 8312 8312 8311 8314 8310 8310 8312 8307 8311 8311 8308 8309 8315 8315 8313 8308 8304 8302 8298 8296 8298 8294 8293 8295 8294 8292 8291 8294 8295 8291 8291 8292 8294 8296 8295 8300 8301 8302 8302 8304 8302 8298 8293 8286 8290 8288 
8300 8299 8294 8293 8297 8301 8299 8310 8307 8301 8300 8298 8301 8303 8306 8300 8297 8298 8298 8303 8305 8302 8305 8307 8314 8310 8311 8314 8317 8317 8315 8313 8311 8314 8314 8315 8314 8317 8319 8313 8312 8307 8310 8307 8306 8308 8312 8312 8311 8308 8301 8295 8296 8291 8294 8292 8291 8293 8294 8291 8291 8293 8292 8290 8290 8288 8293 8296 8297 8298 8300 8302 8299 8299 8300 8294 8290 8284 8285 8287 
8305 8294 8294 8289 8289 8294 8298 8299 8303 8300 8296 8298 8300 8299 8301 8300 8291 8297 8295 8298 8301 8302 8304 8304 8308 8312 8311 8319 8324 8319 8315 8312 8310 8314 8314 8315 8313 8318 8316 8314 8310 8303 8307 8307 8306 8307 8313 8310 8310 8306 8301 8295 8295 8294 8295 8292 8290 8293 8294 8296 8291 8290 8292 8289 8285 8288 8292 8294 8297 8299 8300 8300 8301 8299 8300 8293 8284 8284 8286 8289 


