P2
80 60
8295
8162 8165 8180 8220 8229 8230 8237 8234 8240 8243 8242 8240 8243 8240 8239 8239 8238 8245 8242 8235 8238 8231 8236 8234 8239 8247 8250 8237 8219 8232 8165 8117 8107 8123 8165 8241 8232 8190 8124 8117 8108 8108 8111 8118 8131 8177 8253 8276 8283 8285 8289 8291 8292 8290 8295 8292 8289 8294 8293 8291 8292 8287 8289 8282 8280 8276 8271 8272 8271 8264 8264 8261 8260 8257 8256 8252 8249 8246 8250 8250 
8162 8159 8184 8218 8226 8228 8233 8236 8241 8245 8243 8237 8239 8239 8239 8238 8241 8245 8238 8234 8231 8231 8234 8222 8213 8220 8197 8157 8144 8189 8227 8172 8147 8120 8169 8186 8137 8123 8112 8112 8110 8110 8111 8116 8131 8184 8256 8279 8284 8284 8287 8291 8291 8291 8291 8289 8288 8291 8289 8290 8291 8289 8285 8281 8279 8275 8274 8269 8268 8266 8263 8262 8256 8257 8255 8250 8253 8250 8250 8246 
8161 8169 8198 8222 8228 8231 8232 8236 8245 8245 8242 8238 8239 8235 8238 8238 8239 8240 8237 8234 8233 8229 8233 8201 8150 8147 8143 8136 8135 8155 8212 8220 8226 8196 8205 8142 8107 8109 8111 8143 8151 8150 8170 8190 8231 8275 8285 8285 8286 8284 8285 8290 8288 8289 8291 8292 8291 8291 8292 8289 8290 8285 8286 8282 8280 8275 8274 8271 8266 8265 8265 8263 8256 8259 8254 8252 8250 8246 8246 8248 
8163 8191 8214 8227 8226 8227 8232 8239 8242 8245 8240 8234 8235 8236 8237 8235 8239 8239 8237 8233 8235 8233 8233 8205 8148 8144 8145 8138 8137 8132 8129 8137 8152 8163 8169 8122 8098 8091 8119 8238 8261 8265 8273 8280 8292 8288 8290 8284 8284 8285 8287 8291 8289 8289 8292 8293 8291 8292 8290 8288 8288 8286 8285 8285 8282 8281 8278 8275 8272 8268 8265 8264 8257 8257 8253 8251 8251 8247 8243 8246 
8189 8218 8222 8227 8229 8227 8230 8236 8234 8239 8238 8232 8238 8234 8236 8235 8238 8242 8240 8233 8237 8232 8236 8222 8180 8164 8167 8144 8125 8123 8124 8113 8104 8107 8113 8109 8095 8091 8104 8211 8275 8288 8287 8290 8292 8289 8286 8281 8285 8286 8287 8292 8291 8289 8293 8292 8289 8295 8291 8286 8287 8288 8285 8283 8284 8284 8283 8278 8274 8267 8267 8265 8260 8259 8257 8252 8247 8242 8243 8244 
8218 8229 8225 8232 8231 8230 8230 8233 8236 8237 8233 8228 8232 8232 8239 8236 8242 8242 8239 8237 8237 8234 8238 8233 8230 8211 8187 8129 8128 8203 8200 8154 8125 8127 8115 8148 8100 8094 8101 8176 8266 8286 8270 8278 8287 8287 8284 8280 8284 8284 8284 8291 8291 8290 8292 8290 8290 8292 8290 8286 8285 8286 8285 8283 8281 8284 8281 8281 8276 8271 8268 8265 8261 8261 8256 8254 8248 8244 8240 8240 
8229 8232 8229 8231 8229 8231 8231 8232 8236 8237 8233 8227 8230 8234 8235 8238 8238 8244 8242 8233 8238 8238 8242 8232 8230 8152 8113 8105 8117 8187 8172 8107 8184 8203 8126 8114 8097 8096 8105 8136 8208 8272 8231 8206 8266 8280 8284 8279 8282 8278 8285 8286 8289 8290 8293 8289 8289 8292 8288 8287 8287 8286 8282 8278 8281 8282 8278 8277 8274 8268 8269 8268 8263 8260 8257 8253 8249 8242 8243 8247 
8237 8236 8233 8235 8234 8233 8233 8235 8234 8235 8231 8226 8233 8233 8238 8235 8241 8244 8244 8237 8242 8239 8244 8238 8194 8114 8101 8097 8148 8154 8141 8097 8126 8210 8134 8108 8105 8110 8120 8135 8155 8253 8217 8144 8177 8244 8277 8279 8280 8280 8283 8272 8275 8287 8288 8289 8287 8291 8287 8285 8286 8283 8281 8279 8279 8278 8281 8276 8273 8270 8267 8264 8260 8260 8258 8252 8246 8245 8243 8242 
8246 8241 8237 8235 8239 8236 8236 8234 8231 8231 8225 8225 8234 8234 8231 8215 8230 8241 8241 8238 8240 8239 8243 8240 8212 8150 8096 8090 8118 8170 8124 8117 8106 8187 8121 8121 8137 8129 8130 8137 8143 8202 8152 8131 8139 8164 8239 8263 8272 8274 8277 8244 8226 8275 8284 8285 8281 8286 8283 8278 8280 8276 8277 8279 8278 8278 8279 8271 8269 8266 8265 8264 8264 8262 8256 8257 8253 8243 8246 8244 
8254 8249 8241 8244 8241 8235 8239 8234 8231 8228 8225 8222 8227 8222 8190 8152 8215 8238 8241 8236 8239 8238 8243 8242 8245 8222 8152 8095 8091 8116 8105 8154 8100 8119 8105 8151 8177 8138 8132 8141 8142 8153 8127 8131 8143 8145 8160 8187 8226 8246 8258 8208 8165 8229 8272 8278 8277 8282 8281 8277 8276 8272 8274 8273 8275 8273 8270 8272 8271 8261 8263 8263 8262 8267 8258 8256 8253 8244 8244 8241 
8257 8257 8248 8247 8246 8240 8237 8234 8228 8231 8225 8223 8224 8189 8144 8133 8207 8237 8239 8234 8239 8233 8240 8240 8244 8228 8144 8099 8095 8095 8096 8095 8090 8093 8110 8118 8114 8112 8111 8127 8138 8140 8163 8213 8198 8143 8141 8149 8164 8168 8196 8170 8151 8181 8255 8272 8273 8278 8275 8271 8270 8266 8270 8270 8271 8272 8273 8271 8269 8263 8259 8259 8259 8260 8258 8256 8247 8247 8247 8240 
8263 8259 8255 8257 8251 8247 8240 8235 8228 8228 8222 8218 8210 8149 8133 8136 8212 8235 8235 8228 8232 8235 8239 8239 8244 8174 8120 8145 8116 8098 8096 8088 8086 8086 8095 8096 8097 8090 8092 8095 8124 8147 8193 8233 8221 8138 8135 8142 8150 8149 8151 8153 8149 8159 8218 8261 8267 8270 8269 8267 8267 8264 8263 8264 8268 8270 8269 8268 8263 8257 8256 8255 8257 8252 8251 8246 8244 8241 8242 8237 
8262 8264 8260 8260 8255 8248 8243 8234 8228 8225 8222 8222 8178 8135 8133 8129 8205 8232 8236 8229 8236 8233 8241 8241 8247 8213 8200 8183 8130 8110 8096 8083 8085 8084 8097 8123 8094 8093 8091 8103 8147 8187 8221 8243 8214 8130 8136 8139 8144 8147 8142 8150 8155 8159 8183 8242 8256 8264 8262 8259 8261 8259 8261 8260 8263 8266 8264 8259 8261 8256 8255 8255 8249 8248 8243 8239 8244 8238 8240 8238 
8263 8268 8263 8262 8256 8247 8239 8232 8226 8227 8225 8217 8163 8136 8129 8123 8166 8229 8237 8232 8236 8240 8245 8245 8247 8247 8186 8106 8094 8108 8092 8078 8080 8088 8097 8091 8088 8087 8093 8110 8198 8254 8262 8255 8183 8127 8127 8129 8140 8139 8139 8143 8153 8160 8160 8173 8212 8249 8257 8256 8261 8256 8260 8258 8261 8259 8262 8259 8258 8254 8252 8249 8247 8248 8239 8238 8234 8233 8236 8233 
8265 8265 8260 8259 8249 8245 8236 8229 8228 8226 8220 8208 8150 8137 8129 8124 8128 8189 8228 8229 8234 8237 8242 8243 8243 8214 8121 8098 8089 8095 8093 8076 8079 8086 8078 8079 8083 8085 8092 8103 8190 8253 8260 8234 8149 8138 8134 8141 8130 8133 8140 8144 8145 8151 8146 8141 8150 8199 8243 8252 8254 8253 8254 8256 8255 8256 8256 8255 8254 8250 8249 8247 8243 8244 8237 8235 8233 8229 8231 8229 
8263 8262 8259 8250 8244 8238 8229 8226 8226 8222 8221 8182 8143 8136 8132 8127 8121 8133 8171 8206 8226 8230 8235 8237 8235 8156 8107 8097 8093 8097 8088 8072 8068 8082 8076 8080 8080 8085 8092 8112 8220 8250 8237 8180 8176 8173 8228 8232 8209 8159 8123 8132 8134 8136 8143 8137 8137 8144 8188 8235 8251 8251 8249 8249 8252 8249 8250 8251 8255 8247 8247 8243 8240 8239 8234 8229 8229 8224 8231 8226 
8256 8257 8251 8244 8238 8233 8228 8225 8225 8224 8220 8171 8142 8135 8131 8126 8134 8138 8145 8154 8176 8178 8187 8196 8195 8114 8103 8099 8086 8083 8082 8070 8069 8070 8073 8073 8076 8084 8087 8123 8228 8216 8166 8160 8190 8237 8239 8222 8174 8120 8102 8110 8123 8132 8136 8138 8135 8137 8140 8187 8235 8245 8248 8245 8246 8248 8245 8246 8250 8244 8245 8241 8239 8238 8229 8227 8225 8222 8226 8228 
8250 8250 8245 8239 8235 8230 8228 8226 8221 8224 8223 8174 8141 8129 8130 8129 8138 8166 8201 8215 8224 8217 8214 8196 8144 8100 8096 8083 8077 8083 8076 8067 8066 8067 8063 8065 8077 8090 8085 8137 8125 8094 8092 8126 8193 8180 8176 8177 8163 8125 8101 8104 8109 8118 8133 8136 8134 8137 8139 8153 8219 8241 8246 8244 8244 8243 8243 8244 8245 8243 8246 8245 8242 8241 8236 8230 8230 8225 8229 8225 
8248 8249 8242 8240 8233 8232 8229 8224 8225 8229 8227 8180 8143 8131 8132 8141 8189 8228 8232 8227 8232 8228 8228 8217 8141 8098 8089 8076 8071 8080 8076 8073 8067 8064 8064 8068 8077 8084 8079 8075 8074 8074 8079 8086 8098 8119 8194 8231 8232 8223 8175 8120 8113 8119 8132 8140 8135 8135 8154 8184 8226 8238 8238 8240 8240 8240 8237 8242 8241 8241 8242 8246 8242 8245 8241 8238 8237 8234 8231 8229 
8246 8246 8240 8241 8237 8228 8229 8227 8229 8234 8232 8187 8138 8131 8136 8189 8231 8235 8235 8226 8229 8227 8203 8124 8091 8079 8076 8074 8067 8066 8073 8072 8070 8064 8063 8069 8072 8071 8070 8067 8071 8069 8076 8081 8088 8095 8135 8216 8233 8229 8229 8187 8120 8123 8132 8135 8126 8132 8140 8206 8231 8233 8238 8237 8234 8236 8236 8237 8240 8240 8240 8243 8242 8244 8242 8242 8243 8239 8235 8229 
8245 8247 8240 8240 8234 8228 8232 8233 8233 8235 8231 8198 8137 8130 8178 8229 8231 8233 8230 8229 8223 8205 8132 8087 8087 8079 8076 8075 8072 8067 8072 8075 8071 8063 8064 8070 8072 8071 8068 8067 8071 8070 8074 8085 8089 8120 8185 8165 8204 8222 8227 8223 8136 8125 8132 8132 8128 8130 8134 8165 8215 8229 8238 8232 8237 8236 8235 8233 8239 8237 8240 8242 8239 8244 8240 8245 8243 8240 8237 8236 
8243 8244 8239 8239 8237 8233 8237 8236 8236 8240 8230 8193 8123 8120 8168 8203 8222 8231 8227 8222 8214 8141 8101 8078 8071 8070 8073 8075 8071 8071 8070 8108 8092 8064 8059 8063 8066 8065 8065 8067 8068 8078 8095 8123 8106 8104 8110 8102 8120 8151 8163 8175 8134 8123 8129 8130 8128 8126 8129 8142 8183 8220 8230 8231 8231 8232 8231 8231 8234 8232 8236 8236 8239 8245 8241 8241 8242 8239 8238 8234 
8247 8245 8242 8241 8239 8236 8235 8239 8237 8238 8218 8142 8115 8112 8119 8127 8145 8173 8197 8207 8168 8106 8097 8079 8069 8073 8073 8069 8068 8069 8067 8092 8115 8062 8054 8060 8063 8062 8063 8073 8085 8125 8130 8130 8123 8097 8097 8100 8102 8105 8108 8120 8119 8118 8120 8124 8127 8125 8129 8134 8154 8191 8222 8230 8228 8231 8229 8231 8232 8230 8234 8235 8237 8240 8239 8240 8239 8238 8238 8238 
8246 8250 8247 8242 8237 8239 8237 8235 8238 8241 8216 8163 8134 8119 8123 8119 8120 8126 8131 8132 8120 8095 8091 8082 8071 8067 8072 8071 8070 8072 8066 8067 8082 8061 8059 8054 8057 8055 8063 8067 8072 8100 8119 8119 8119 8093 8092 8094 8096 8101 8104 8114 8113 8111 8115 8115 8115 8125 8133 8133 8143 8166 8217 8226 8229 8229 8228 8230 8230 8228 8230 8231 8233 8236 8239 8238 8242 8236 8236 8238 
8252 8256 8252 8249 8243 8240 8241 8240 8236 8240 8235 8229 8221 8201 8174 8144 8134 8128 8123 8114 8107 8092 8087 8084 8085 8072 8069 8067 8067 8072 8070 8068 8093 8072 8058 8054 8058 8059 8059 8064 8069 8079 8092 8093 8095 8092 8092 8092 8100 8104 8104 8109 8111 8112 8112 8115 8110 8126 8131 8128 8139 8158 8210 8225 8227 8227 8227 8228 8230 8228 8232 8231 8231 8237 8234 8239 8240 8238 8237 8236 
8258 8260 8257 8252 8245 8242 8241 8241 8239 8239 8240 8236 8240 8237 8236 8219 8204 8180 8153 8125 8107 8093 8094 8087 8084 8070 8068 8071 8067 8068 8073 8073 8076 8069 8063 8061 8062 8059 8064 8068 8075 8085 8086 8089 8092 8094 8097 8098 8106 8107 8108 8108 8111 8111 8115 8113 8110 8116 8124 8131 8137 8153 8208 8224 8226 8227 8229 8228 8229 8229 8231 8234 8233 8235 8233 8237 8237 8237 8239 8237 
8261 8268 8259 8256 8247 8244 8243 8243 8240 8238 8238 8236 8239 8238 8240 8232 8228 8230 8220 8201 8169 8138 8114 8097 8086 8064 8062 8063 8065 8080 8071 8066 8066 8066 8062 8057 8058 8059 8064 8066 8063 8069 8081 8084 8092 8095 8100 8099 8104 8101 8107 8107 8110 8111 8114 8112 8107 8111 8121 8131 8137 8151 8207 8226 8229 8228 8230 8231 8231 8231 8232 8233 8235 8236 8236 8238 8238 8238 8239 8242 
8267 8267 8261 8254 8247 8244 8244 8243 8242 8243 8234 8237 8238 8238 8240 8235 8232 8232 8227 8216 8211 8196 8200 8176 8127 8071 8065 8064 8064 8073 8072 8073 8071 8060 8059 8059 8062 8063 8065 8064 8063 8064 8075 8080 8087 8090 8094 8094 8103 8101 8106 8111 8115 8113 8113 8113 8107 8112 8112 8127 8132 8156 8215 8226 8223 8227 8231 8229 8231 8232 8233 8236 8236 8239 8237 8240 8239 8241 8242 8245 
8262 8266 8259 8254 8246 8245 8244 8243 8243 8240 8238 8237 8239 8242 8238 8232 8230 8231 8224 8216 8147 8085 8110 8165 8187 8086 8068 8063 8068 8070 8070 8071 8062 8053 8050 8058 8060 8062 8062 8067 8061 8062 8072 8077 8084 8086 8088 8091 8099 8105 8107 8114 8110 8112 8111 8112 8110 8113 8110 8121 8135 8176 8222 8226 8224 8227 8229 8229 8234 8232 8234 8236 8236 8236 8237 8236 8239 8241 8243 8241 
8261 8264 8257 8252 8247 8245 8245 8240 8241 8244 8237 8236 8241 8238 8238 8233 8231 8235 8227 8203 8098 8063 8062 8062 8121 8117 8067 8066 8069 8069 8069 8065 8062 8055 8052 8059 8060 8060 8060 8063 8063 8066 8073 8085 8086 8081 8082 8089 8096 8106 8106 8113 8109 8111 8110 8108 8109 8117 8117 8127 8140 8200 8225 8227 8231 8231 8227 8228 8233 8233 8236 8236 8235 8239 8240 8241 8243 8240 8241 8245 
8257 8259 8255 8252 8245 8247 8245 8241 8242 8239 8237 8236 8240 8241 8239 8235 8230 8231 8224 8180 8076 8060 8057 8052 8053 8093 8074 8069 8068 8068 8068 8063 8063 8054 8054 8060 8059 8066 8066 8068 8064 8066 8068 8074 8077 8077 8075 8076 8094 8098 8102 8109 8110 8110 8109 8105 8103 8114 8120 8131 8166 8217 8225 8225 8227 8227 8226 8224 8230 8232 8232 8236 8237 8236 8239 8240 8239 8242 8242 8242 
8256 8263 8253 8248 8247 8245 8244 8240 8241 8239 8238 8238 8242 8240 8241 8235 8232 8232 8224 8157 8070 8055 8058 8052 8053 8066 8076 8075 8069 8066 8069 8066 8065 8056 8056 8064 8057 8061 8065 8070 8069 8065 8067 8063 8059 8060 8074 8073 8081 8085 8098 8104 8105 8094 8095 8106 8104 8114 8121 8136 8194 8222 8227 8223 8226 8227 8225 8224 8230 8232 8234 8234 8233 8237 8238 8239 8242 8242 8244 8243 
8256 8256 8248 8249 8245 8244 8245 8237 8240 8238 8237 8237 8240 8241 8237 8235 8231 8230 8223 8137 8070 8056 8057 8051 8053 8060 8074 8076 8073 8069 8073 8066 8066 8065 8059 8074 8069 8061 8065 8066 8070 8068 8055 8051 8055 8056 8066 8077 8078 8080 8083 8092 8095 8084 8090 8118 8115 8117 8120 8136 8206 8227 8225 8225 8223 8225 8221 8227 8229 8231 8234 8234 8232 8235 8238 8241 8243 8242 8242 8244 
8257 8258 8246 8245 8243 8241 8238 8240 8243 8238 8239 8237 8239 8237 8238 8228 8223 8230 8218 8116 8069 8058 8060 8051 8052 8060 8071 8077 8074 8069 8071 8064 8059 8057 8072 8083 8082 8076 8067 8072 8070 8058 8056 8052 8055 8056 8074 8077 8083 8084 8083 8086 8086 8085 8092 8117 8136 8142 8139 8173 8220 8212 8189 8195 8213 8220 8223 8223 8228 8231 8231 8231 8233 8236 8237 8240 8239 8240 8239 8238 
8254 8253 8247 8244 8242 8239 8240 8237 8240 8241 8242 8236 8239 8237 8232 8189 8157 8219 8213 8138 8068 8061 8059 8058 8053 8059 8081 8076 8073 8071 8063 8050 8054 8071 8079 8091 8094 8090 8080 8078 8065 8052 8054 8052 8057 8056 8071 8072 8077 8082 8084 8090 8095 8095 8095 8098 8131 8170 8209 8214 8208 8160 8138 8143 8169 8205 8218 8220 8228 8225 8231 8232 8231 8235 8237 8236 8240 8239 8238 8244 
8249 8253 8244 8243 8241 8238 8236 8237 8236 8240 8236 8234 8237 8235 8220 8119 8105 8192 8180 8123 8077 8062 8062 8061 8061 8074 8084 8088 8083 8073 8057 8052 8067 8077 8083 8091 8096 8093 8092 8087 8067 8053 8055 8056 8057 8062 8073 8073 8081 8084 8087 8094 8096 8093 8094 8100 8129 8165 8203 8187 8146 8131 8132 8137 8139 8175 8212 8222 8227 8225 8227 8230 8232 8235 8235 8239 8240 8239 8241 8237 
8247 8249 8242 8240 8238 8237 8236 8235 8238 8238 8234 8231 8235 8231 8222 8130 8090 8118 8104 8089 8081 8081 8080 8074 8094 8097 8090 8080 8082 8069 8063 8070 8075 8077 8079 8091 8096 8094 8089 8088 8081 8063 8059 8061 8064 8063 8083 8076 8089 8088 8082 8079 8083 8090 8107 8111 8130 8143 8148 8124 8126 8125 8130 8133 8135 8155 8200 8218 8222 8222 8226 8228 8230 8234 8234 8238 8239 8236 8237 8233 
8241 8244 8237 8237 8238 8239 8240 8234 8236 8237 8235 8228 8232 8226 8221 8172 8090 8093 8094 8085 8077 8080 8079 8087 8139 8100 8090 8080 8081 8068 8075 8077 8079 8076 8080 8083 8096 8091 8086 8091 8086 8080 8075 8068 8066 8089 8101 8082 8086 8084 8071 8073 8085 8095 8104 8115 8122 8130 8127 8122 8124 8121 8130 8133 8135 8152 8190 8215 8220 8221 8223 8224 8227 8235 8234 8235 8235 8237 8235 8234 
8238 8243 8237 8237 8238 8244 8237 8236 8233 8234 8231 8227 8227 8224 8162 8107 8090 8091 8089 8083 8079 8077 8075 8103 8140 8100 8086 8079 8069 8065 8084 8080 8080 8076 8078 8081 8089 8088 8086 8087 8087 8086 8091 8083 8093 8091 8086 8070 8071 8072 8075 8080 8087 8100 8105 8116 8128 8126 8132 8133 8126 8122 8127 8129 8140 8150 8187 8212 8220 8220 8224 8226 8227 8231 8231 8234 8232 8233 8234 8231 
8239 8242 8237 8240 8238 8241 8238 8234 8231 8227 8219 8212 8206 8209 8184 8109 8094 8086 8080 8077 8075 8070 8069 8089 8115 8097 8084 8069 8060 8065 8084 8079 8079 8073 8074 8076 8084 8085 8086 8089 8087 8091 8094 8086 8080 8078 8077 8065 8068 8068 8082 8088 8093 8094 8096 8120 8111 8112 8131 8141 8137 8134 8134 8141 8145 8153 8181 8213 8220 8220 8221 8225 8221 8227 8225 8225 8229 8227 8231 8225 
8236 8240 8243 8240 8240 8239 8237 8233 8215 8175 8144 8127 8112 8130 8132 8111 8089 8082 8074 8074 8076 8067 8102 8177 8183 8129 8086 8066 8063 8071 8085 8078 8073 8071 8071 8075 8081 8083 8082 8085 8087 8091 8091 8085 8076 8075 8078 8069 8064 8066 8078 8094 8097 8093 8094 8102 8110 8111 8118 8131 8140 8141 8139 8142 8148 8157 8180 8212 8223 8217 8220 8221 8220 8222 8221 8221 8222 8220 8224 8222 
8239 8242 8236 8240 8240 8239 8237 8230 8195 8128 8093 8090 8107 8114 8125 8102 8084 8078 8076 8076 8079 8078 8171 8188 8119 8090 8070 8071 8065 8077 8084 8077 8078 8076 8077 8075 8083 8083 8080 8084 8083 8088 8087 8084 8082 8079 8075 8077 8070 8070 8074 8088 8095 8088 8097 8099 8109 8107 8110 8120 8130 8145 8151 8153 8155 8160 8180 8209 8216 8217 8217 8216 8214 8216 8216 8217 8218 8219 8219 8217 
8239 8239 8237 8238 8239 8234 8235 8225 8165 8099 8089 8094 8097 8096 8097 8092 8091 8079 8074 8070 8082 8107 8187 8143 8063 8057 8060 8068 8063 8071 8078 8073 8079 8079 8078 8077 8085 8081 8084 8083 8082 8084 8083 8084 8082 8078 8073 8083 8081 8076 8080 8088 8091 8091 8095 8104 8102 8112 8106 8119 8124 8150 8167 8167 8168 8172 8185 8211 8216 8214 8214 8212 8208 8213 8212 8212 8215 8218 8219 8214 
8238 8240 8236 8239 8238 8233 8230 8208 8165 8101 8085 8083 8088 8089 8105 8108 8094 8092 8079 8071 8081 8105 8089 8058 8052 8055 8061 8068 8064 8066 8082 8078 8084 8082 8079 8077 8081 8083 8084 8083 8080 8080 8084 8081 8086 8080 8078 8089 8089 8090 8086 8090 8097 8094 8095 8105 8127 8141 8112 8116 8124 8148 8175 8181 8180 8182 8192 8210 8212 8210 8210 8210 8209 8212 8212 8214 8216 8217 8215 8216 
8238 8242 8235 8237 8232 8233 8223 8180 8115 8098 8086 8084 8094 8120 8183 8124 8104 8102 8093 8077 8078 8078 8058 8052 8050 8054 8066 8074 8073 8067 8072 8079 8084 8077 8076 8079 8079 8082 8079 8082 8080 8083 8085 8086 8092 8089 8088 8085 8088 8092 8097 8102 8106 8101 8102 8109 8114 8120 8113 8115 8128 8145 8177 8188 8191 8191 8196 8210 8212 8208 8210 8210 8206 8212 8214 8213 8219 8215 8217 8216 
8235 8240 8233 8236 8234 8231 8228 8203 8145 8126 8104 8102 8118 8195 8226 8148 8133 8145 8138 8132 8113 8065 8057 8048 8051 8057 8068 8074 8077 8075 8071 8079 8080 8076 8078 8077 8084 8084 8086 8085 8083 8082 8085 8087 8081 8083 8091 8087 8093 8097 8101 8105 8110 8110 8114 8114 8111 8117 8116 8115 8126 8144 8180 8192 8198 8193 8200 8208 8211 8210 8206 8210 8208 8214 8212 8214 8214 8215 8216 8214 
8236 8238 8235 8233 8232 8236 8232 8226 8193 8170 8175 8175 8207 8229 8234 8214 8218 8226 8219 8211 8186 8076 8060 8056 8056 8060 8066 8078 8075 8076 8078 8076 8083 8080 8080 8081 8086 8082 8087 8086 8084 8082 8087 8084 8068 8086 8090 8092 8094 8099 8104 8113 8117 8122 8143 8154 8121 8121 8116 8110 8129 8143 8179 8192 8195 8194 8206 8208 8208 8208 8211 8208 8207 8211 8211 8212 8213 8213 8217 8213 
8236 8238 8234 8236 8236 8235 8233 8230 8230 8227 8225 8227 8228 8233 8237 8231 8231 8232 8226 8217 8202 8095 8063 8058 8057 8062 8070 8081 8081 8082 8080 8076 8084 8083 8078 8082 8087 8086 8088 8086 8087 8087 8090 8087 8072 8093 8100 8097 8103 8119 8130 8140 8156 8177 8201 8165 8122 8119 8112 8111 8127 8145 8174 8190 8190 8196 8206 8212 8209 8210 8207 8211 8207 8210 8212 8213 8211 8216 8215 8213 
8235 8236 8234 8236 8233 8236 8237 8233 8234 8235 8234 8232 8227 8210 8227 8231 8229 8230 8226 8215 8211 8115 8070 8062 8057 8066 8076 8086 8086 8083 8085 8073 8081 8080 8086 8088 8089 8088 8086 8088 8088 8090 8092 8088 8091 8104 8107 8104 8122 8140 8152 8167 8185 8204 8206 8182 8130 8122 8114 8118 8128 8144 8170 8182 8193 8202 8208 8205 8208 8207 8209 8209 8208 8212 8213 8211 8210 8215 8213 8213 
8232 8235 8230 8232 8233 8236 8237 8235 8236 8238 8231 8231 8226 8158 8154 8203 8201 8206 8205 8205 8186 8126 8080 8066 8064 8073 8085 8092 8089 8089 8088 8080 8079 8081 8089 8089 8090 8089 8088 8094 8087 8088 8087 8084 8098 8109 8124 8130 8138 8150 8166 8181 8200 8208 8208 8204 8167 8133 8121 8123 8124 8136 8167 8188 8200 8204 8206 8208 8208 8206 8207 8210 8208 8210 8211 8210 8211 8210 8211 8206 
8239 8234 8230 8234 8233 8236 8235 8236 8236 8235 8232 8229 8228 8166 8124 8120 8113 8117 8116 8126 8148 8190 8115 8074 8071 8099 8106 8101 8094 8090 8092 8082 8084 8090 8101 8104 8097 8093 8088 8093 8089 8083 8079 8084 8092 8125 8143 8148 8159 8166 8174 8197 8207 8209 8209 8207 8198 8175 8149 8134 8131 8143 8190 8202 8204 8204 8207 8206 8208 8205 8207 8207 8207 8209 8207 8210 8211 8213 8209 8211 
8236 8236 8229 8233 8234 8236 8236 8237 8237 8234 8233 8232 8235 8220 8156 8114 8109 8108 8105 8117 8192 8207 8173 8089 8086 8165 8128 8139 8114 8096 8091 8087 8088 8120 8151 8163 8153 8096 8091 8085 8079 8078 8085 8088 8098 8162 8173 8170 8170 8176 8193 8204 8209 8209 8209 8207 8205 8205 8199 8195 8195 8196 8201 8204 8205 8207 8205 8209 8209 8206 8212 8208 8205 8208 8208 8210 8210 8207 8211 8205 
8231 8237 8230 8234 8236 8233 8239 8236 8238 8238 8233 8232 8237 8235 8213 8134 8111 8111 8111 8119 8202 8214 8210 8137 8135 8206 8197 8208 8162 8106 8094 8092 8116 8153 8153 8157 8159 8108 8089 8090 8081 8079 8086 8091 8106 8167 8178 8176 8185 8193 8201 8207 8208 8208 8213 8208 8205 8207 8206 8210 8210 8210 8208 8206 8207 8208 8206 8207 8208 8209 8207 8212 8210 8209 8209 8209 8210 8211 8212 8209 
8235 8236 8236 8235 8237 8234 8238 8238 8238 8237 8234 8236 8236 8237 8232 8166 8119 8113 8113 8125 8208 8211 8217 8203 8203 8217 8219 8218 8202 8135 8118 8131 8177 8188 8178 8165 8162 8133 8102 8093 8080 8078 8087 8096 8122 8171 8185 8193 8200 8203 8208 8213 8213 8213 8213 8213 8210 8211 8212 8211 8213 8210 8208 8206 8207 8206 8207 8207 8211 8209 8214 8210 8210 8210 8208 8210 8214 8212 8210 8208 
8236 8241 8237 8239 8236 8234 8237 8235 8238 8237 8235 8233 8237 8239 8236 8191 8123 8118 8116 8135 8213 8214 8219 8215 8216 8224 8223 8220 8210 8193 8191 8195 8197 8196 8194 8193 8189 8179 8155 8110 8086 8085 8092 8117 8176 8200 8208 8205 8207 8210 8214 8216 8218 8216 8219 8216 8214 8216 8215 8217 8215 8211 8208 8207 8207 8210 8209 8209 8215 8213 8211 8214 8210 8214 8212 8211 8211 8213 8215 8210 
8239 8240 8240 8241 8237 8235 8236 8234 8236 8237 8234 8236 8236 8234 8234 8218 8145 8122 8113 8137 8214 8215 8222 8214 8218 8220 8223 8222 8213 8215 8207 8203 8201 8201 8199 8199 8200 8203 8196 8128 8111 8119 8153 8190 8209 8212 8215 8212 8213 8216 8218 8224 8222 8222 8223 8220 8219 8222 8218 8220 8217 8214 8214 8209 8212 8212 8212 8212 8213 8212 8213 8214 8210 8212 8209 8212 8213 8210 8215 8212 
8239 8242 8240 8243 8239 8238 8233 8234 8237 8236 8232 8233 8235 8237 8238 8227 8180 8123 8112 8128 8210 8215 8223 8218 8217 8222 8223 8218 8220 8219 8213 8205 8204 8205 8202 8203 8208 8206 8204 8184 8190 8201 8208 8210 8214 8220 8218 8214 8218 8219 8225 8230 8229 8226 8224 8224 8223 8226 8223 8222 8217 8219 8215 8213 8210 8215 8210 8213 8216 8215 8213 8214 8214 8216 8211 8211 8213 8212 8211 8211 
8243 8245 8241 8240 8239 8235 8235 8233 8237 8236 8231 8232 8236 8236 8237 8230 8198 8134 8113 8115 8199 8215 8224 8225 8218 8221 8219 8216 8212 8216 8213 8202 8203 8201 8207 8206 8214 8212 8214 8216 8212 8212 8213 8211 8218 8218 8221 8217 8220 8226 8228 8238 8231 8229 8232 8227 8227 8231 8227 8222 8221 8220 8214 8217 8213 8214 8214 8215 8217 8213 8213 8215 8214 8217 8213 8211 8213 8213 8213 8207 
8242 8245 8239 8237 8236 8235 8234 8234 8235 8234 8230 8232 8235 8236 8240 8233 8220 8160 8115 8106 8179 8216 8228 8222 8219 8219 8219 8211 8208 8210 8208 8201 8204 8208 8213 8215 8217 8218 8221 8218 8217 8218 8216 8215 8220 8221 8228 8221 8224 8226 8231 8236 8233 8234 8237 8234 8231 8228 8229 8222 8220 8221 8215 8214 8212 8214 8215 8216 8219 8214 8220 8218 8215 8215 8217 8214 8216 8212 8212 8210 
8251 8239 8239 8240 8239 8234 8231 8235 8234 8232 8228 8234 8232 8237 8239 8231 8223 8195 8112 8113 8136 8220 8228 8219 8222 8219 8216 8211 8206 8206 8207 8200 8204 8208 8217 8216 8221 8222 8222 8227 8220 8222 8220 8219 8225 8227 8230 8224 8229 8232 8233 8238 8239 8238 8237 8234 8231 8231 8228 8221 8221 8218 8218 8215 8212 8213 8212 8214 8216 8214 8220 8215 8213 8214 8213 8212 8213 8211 8213 8213 


