P2
80 60
8316
8153 8150 8167 8196 8203 8206 8210 8212 8218 8217 8220 8217 8219 8215 8215 8217 8218 8219 8223 8224 8228 8231 8233 8236 8238 8253 8264 8271 8270 8278 8278 8283 8283 8287 8287 8292 8296 8298 8297 8297 8304 8304 8302 8301 8298 8299 8300 8297 8298 8298 8298 8295 8292 8284 8281 8280 8279 8278 8277 8272 8268 8268 8265 8259 8257 8253 8249 8246 8250 8245 8239 8239 8236 8233 8232 8233 8228 8223 8228 8225 
8150 8150 8169 8193 8203 8208 8213 8214 8219 8221 8218 8220 8218 8214 8215 8217 8219 8222 8223 8225 8228 8234 8232 8235 8240 8260 8264 8270 8271 8274 8276 8282 8285 8285 8288 8295 8298 8298 8299 8299 8301 8308 8308 8300 8298 8297 8298 8297 8300 8299 8296 8290 8286 8283 8278 8280 8281 8275 8276 8273 8268 8268 8267 8259 8256 8252 8250 8249 8249 8246 8241 8242 8238 8234 8233 8230 8227 8224 8227 8224 
8150 8150 8180 8199 8208 8212 8218 8216 8222 8219 8223 8220 8222 8216 8216 8220 8224 8220 8226 8225 8231 8231 8234 8237 8243 8261 8265 8271 8270 8276 8278 8283 8283 8289 8290 8298 8301 8302 8299 8300 8304 8305 8301 8301 8300 8297 8296 8300 8298 8294 8294 8291 8285 8281 8281 8283 8281 8278 8277 8274 8274 8271 8266 8262 8258 8254 8252 8249 8248 8246 8240 8241 8237 8235 8235 8228 8230 8225 8225 8227 
8153 8169 8193 8204 8206 8214 8216 8222 8220 8221 8222 8220 8219 8220 8218 8217 8222 8222 8227 8228 8232 8235 8236 8238 8242 8260 8265 8271 8273 8278 8277 8284 8286 8287 8292 8298 8300 8300 8300 8300 8303 8305 8304 8299 8300 8297 8296 8296 8297 8296 8296 8295 8288 8284 8284 8284 8281 8279 8276 8276 8276 8272 8271 8262 8261 8257 8256 8254 8250 8248 8244 8243 8240 8236 8235 8230 8228 8224 8226 8225 
8177 8191 8201 8204 8209 8212 8215 8218 8221 8220 8222 8219 8217 8219 8218 8219 8223 8226 8231 8231 8233 8235 8237 8245 8251 8262 8265 8274 8271 8277 8280 8284 8283 8289 8292 8294 8303 8305 8302 8302 8306 8308 8305 8304 8301 8302 8299 8298 8300 8299 8296 8295 8288 8286 8285 8283 8283 8285 8281 8278 8277 8272 8271 8262 8263 8258 8261 8259 8254 8256 8248 8247 8240 8236 8234 8233 8228 8219 8225 8225 
8201 8205 8206 8208 8211 8209 8213 8218 8218 8215 8219 8219 8219 8220 8223 8223 8227 8228 8231 8230 8237 8239 8240 8244 8248 8266 8268 8274 8275 8282 8279 8283 8286 8289 8294 8298 8302 8303 8304 8308 8312 8313 8309 8309 8304 8302 8303 8298 8302 8301 8298 8298 8292 8290 8288 8287 8283 8283 8282 8277 8278 8273 8268 8267 8263 8261 8261 8261 8258 8256 8253 8250 8243 8239 8239 8232 8227 8221 8223 8226 
8208 8208 8208 8211 8211 8211 8213 8214 8214 8214 8218 8217 8217 8218 8223 8225 8226 8228 8230 8234 8235 8235 8240 8248 8253 8265 8268 8276 8277 8281 8277 8285 8287 8290 8289 8299 8304 8307 8306 8309 8311 8316 8312 8308 8306 8305 8301 8302 8301 8298 8300 8298 8293 8289 8287 8286 8283 8284 8281 8278 8274 8272 8269 8266 8265 8262 8259 8259 8260 8255 8253 8252 8245 8243 8241 8234 8229 8222 8225 8225 
8217 8215 8213 8214 8213 8211 8210 8214 8213 8214 8217 8217 8219 8220 8223 8228 8229 8230 8235 8236 8240 8242 8245 8250 8258 8274 8270 8280 8282 8281 8278 8287 8287 8290 8295 8297 8302 8302 8306 8309 8311 8314 8314 8308 8310 8302 8301 8302 8302 8299 8301 8298 8291 8286 8284 8285 8283 8281 8281 8277 8273 8267 8268 8264 8264 8263 8263 8261 8259 8263 8255 8253 8249 8244 8243 8232 8232 8224 8225 8229 
8223 8219 8215 8214 8217 8215 8212 8214 8214 8214 8219 8218 8217 8224 8226 8228 8229 8233 8236 8238 8243 8245 8245 8253 8259 8273 8275 8283 8283 8286 8282 8289 8287 8291 8295 8296 8299 8299 8302 8308 8312 8311 8314 8310 8309 8307 8301 8303 8302 8300 8298 8297 8290 8286 8285 8286 8282 8282 8279 8275 8272 8272 8266 8264 8266 8263 8264 8263 8258 8261 8256 8253 8254 8246 8247 8239 8234 8229 8228 8227 
8229 8224 8218 8217 8217 8214 8211 8214 8216 8212 8217 8215 8219 8224 8229 8230 8231 8231 8236 8239 8243 8246 8249 8253 8262 8273 8277 8283 8281 8284 8281 8290 8287 8290 8291 8293 8296 8296 8298 8303 8306 8309 8310 8309 8306 8304 8303 8297 8296 8294 8297 8294 8288 8288 8281 8285 8280 8278 8273 8273 8269 8269 8265 8262 8265 8263 8262 8264 8260 8258 8251 8251 8249 8245 8243 8241 8240 8233 8232 8232 
8231 8227 8220 8221 8222 8216 8215 8215 8216 8212 8214 8215 8221 8223 8225 8227 8233 8233 8235 8238 8241 8244 8248 8254 8260 8272 8276 8283 8280 8282 8281 8288 8285 8287 8291 8292 8291 8294 8294 8297 8296 8301 8304 8300 8297 8299 8296 8295 8295 8292 8290 8292 8286 8284 8279 8279 8280 8278 8274 8269 8270 8265 8266 8262 8263 8264 8261 8260 8257 8257 8250 8251 8247 8244 8244 8243 8239 8233 8228 8229 
8235 8233 8233 8232 8230 8226 8221 8216 8215 8211 8216 8215 8220 8222 8225 8227 8234 8235 8237 8238 8242 8243 8245 8254 8261 8273 8273 8281 8279 8287 8286 8287 8286 8290 8291 8292 8294 8292 8290 8294 8296 8299 8297 8294 8294 8291 8289 8290 8288 8286 8285 8283 8278 8276 8274 8274 8276 8272 8268 8267 8265 8263 8262 8258 8260 8261 8257 8258 8257 8256 8253 8249 8245 8237 8243 8240 8234 8230 8230 8227 
8242 8243 8241 8237 8235 8228 8224 8220 8215 8211 8215 8216 8219 8221 8227 8233 8234 8234 8236 8237 8243 8242 8246 8254 8263 8274 8277 8284 8283 8287 8282 8288 8286 8291 8286 8290 8292 8291 8289 8291 8292 8296 8294 8290 8288 8291 8283 8277 8270 8259 8259 8266 8263 8267 8266 8271 8268 8268 8267 8261 8263 8259 8257 8258 8257 8257 8254 8253 8254 8254 8248 8245 8241 8239 8240 8237 8233 8226 8227 8226 
8248 8248 8245 8243 8240 8230 8224 8217 8215 8213 8216 8222 8222 8228 8231 8234 8238 8237 8239 8237 8241 8244 8255 8257 8267 8277 8277 8282 8282 8283 8281 8284 8285 8288 8288 8287 8290 8290 8290 8291 8290 8291 8286 8287 8286 8280 8252 8176 8143 8131 8140 8183 8187 8219 8247 8259 8265 8264 8261 8260 8259 8258 8258 8257 8257 8256 8252 8254 8253 8252 8247 8245 8241 8237 8234 8232 8232 8227 8227 8221 
8252 8246 8246 8245 8237 8231 8220 8214 8216 8213 8217 8220 8229 8230 8232 8240 8239 8239 8242 8241 8246 8250 8253 8259 8266 8273 8273 8282 8281 8285 8279 8283 8284 8284 8287 8286 8291 8290 8288 8286 8281 8272 8255 8272 8278 8277 8233 8113 8095 8093 8095 8099 8097 8108 8163 8216 8240 8257 8258 8257 8256 8258 8256 8256 8256 8255 8254 8252 8250 8248 8244 8244 8236 8234 8230 8231 8228 8222 8224 8223 
8253 8249 8244 8237 8238 8227 8222 8218 8217 8213 8218 8222 8228 8232 8236 8243 8242 8241 8242 8243 8247 8248 8252 8259 8264 8273 8272 8280 8278 8281 8279 8284 8283 8282 8281 8285 8287 8289 8282 8283 8278 8182 8135 8225 8252 8252 8227 8156 8098 8088 8093 8094 8094 8094 8093 8104 8139 8216 8248 8253 8254 8256 8254 8252 8256 8253 8254 8251 8246 8246 8241 8240 8237 8231 8229 8225 8224 8220 8223 8223 
8246 8245 8240 8236 8231 8224 8221 8216 8214 8214 8222 8224 8234 8238 8239 8246 8242 8244 8244 8244 8245 8249 8254 8257 8265 8272 8270 8277 8277 8276 8276 8282 8282 8282 8281 8281 8285 8282 8278 8278 8270 8148 8085 8096 8113 8109 8105 8134 8093 8087 8090 8095 8136 8150 8113 8077 8078 8131 8220 8245 8254 8253 8251 8252 8254 8255 8252 8250 8249 8248 8243 8240 8237 8232 8229 8228 8226 8217 8223 8222 
8243 8236 8233 8230 8230 8223 8218 8218 8220 8214 8223 8234 8238 8239 8242 8244 8243 8244 8244 8246 8248 8250 8255 8258 8265 8271 8272 8276 8274 8277 8276 8279 8280 8281 8278 8280 8281 8279 8279 8273 8252 8114 8079 8076 8079 8079 8081 8081 8086 8091 8098 8124 8150 8112 8098 8076 8075 8079 8124 8219 8245 8250 8253 8253 8253 8255 8254 8251 8248 8248 8243 8246 8241 8236 8231 8233 8226 8222 8222 8229 
8235 8236 8231 8224 8225 8219 8220 8220 8221 8223 8230 8237 8239 8242 8243 8247 8245 8243 8244 8245 8246 8252 8255 8256 8265 8269 8270 8275 8271 8278 8274 8276 8281 8280 8278 8278 8280 8279 8277 8273 8245 8108 8080 8075 8076 8080 8077 8081 8084 8083 8133 8230 8165 8144 8078 8073 8071 8071 8080 8141 8226 8244 8253 8250 8253 8251 8252 8248 8249 8249 8244 8245 8244 8243 8242 8236 8232 8222 8223 8228 
8233 8229 8229 8226 8224 8221 8220 8219 8222 8228 8232 8237 8240 8242 8242 8244 8244 8243 8245 8244 8247 8252 8253 8258 8267 8271 8271 8274 8272 8274 8272 8274 8278 8275 8276 8276 8276 8276 8270 8269 8243 8117 8082 8077 8079 8079 8072 8077 8084 8083 8137 8217 8118 8103 8129 8115 8082 8079 8074 8089 8188 8240 8251 8247 8252 8250 8250 8245 8246 8247 8243 8243 8243 8244 8240 8240 8236 8233 8229 8225 
8230 8229 8224 8228 8224 8221 8221 8226 8226 8230 8235 8239 8241 8243 8244 8246 8246 8243 8245 8246 8248 8249 8254 8259 8265 8269 8268 8272 8272 8272 8274 8274 8275 8275 8275 8277 8273 8272 8231 8189 8186 8141 8086 8081 8099 8115 8075 8080 8083 8115 8203 8148 8069 8064 8119 8204 8182 8122 8152 8154 8208 8240 8246 8246 8249 8250 8251 8247 8246 8246 8245 8245 8244 8240 8245 8240 8238 8235 8235 8236 
8228 8228 8224 8225 8223 8222 8227 8228 8234 8233 8235 8240 8241 8245 8243 8244 8244 8240 8245 8246 8248 8251 8254 8258 8263 8270 8267 8272 8272 8272 8269 8275 8274 8271 8272 8271 8272 8268 8189 8093 8088 8085 8119 8119 8090 8087 8079 8096 8093 8105 8116 8075 8064 8060 8066 8093 8176 8205 8220 8225 8230 8236 8245 8246 8247 8245 8244 8248 8247 8251 8246 8246 8246 8246 8247 8244 8239 8236 8239 8237 
8228 8227 8227 8227 8227 8227 8228 8232 8234 8235 8238 8240 8241 8243 8244 8244 8243 8243 8244 8245 8245 8249 8253 8261 8265 8267 8264 8269 8267 8270 8268 8272 8270 8270 8270 8266 8262 8257 8245 8141 8082 8082 8108 8104 8083 8080 8111 8201 8218 8149 8067 8066 8061 8061 8065 8067 8071 8103 8118 8113 8120 8171 8238 8244 8246 8242 8244 8245 8246 8247 8248 8249 8245 8244 8246 8244 8244 8238 8234 8235 
8231 8234 8231 8229 8231 8231 8231 8234 8235 8235 8240 8243 8239 8240 8242 8241 8245 8241 8246 8246 8247 8247 8252 8258 8262 8266 8264 8269 8267 8270 8263 8268 8265 8262 8263 8235 8158 8160 8180 8163 8115 8101 8087 8083 8080 8084 8134 8144 8136 8096 8066 8066 8059 8059 8061 8062 8059 8059 8062 8063 8069 8153 8235 8240 8242 8244 8246 8245 8246 8248 8244 8249 8244 8244 8245 8245 8241 8239 8234 8238 
8238 8238 8239 8238 8237 8236 8235 8236 8238 8237 8238 8244 8243 8241 8242 8244 8243 8241 8243 8245 8248 8249 8251 8257 8260 8267 8265 8265 8265 8263 8259 8262 8259 8234 8233 8147 8098 8092 8085 8078 8078 8082 8078 8075 8075 8077 8083 8085 8072 8068 8066 8066 8061 8056 8054 8053 8058 8061 8063 8063 8077 8194 8239 8240 8242 8244 8246 8246 8246 8248 8244 8247 8245 8244 8244 8243 8241 8238 8238 8239 
8241 8240 8243 8239 8239 8236 8238 8235 8237 8237 8241 8243 8242 8240 8240 8238 8241 8243 8246 8247 8246 8250 8252 8255 8260 8263 8264 8266 8259 8261 8253 8249 8220 8117 8107 8093 8085 8079 8066 8063 8066 8069 8068 8069 8074 8068 8067 8062 8070 8067 8071 8070 8060 8054 8055 8058 8066 8065 8063 8061 8114 8219 8235 8235 8241 8239 8244 8245 8245 8246 8246 8245 8244 8244 8243 8243 8241 8239 8236 8237 
8242 8244 8242 8241 8239 8236 8238 8240 8242 8239 8242 8242 8241 8240 8241 8241 8243 8242 8244 8245 8247 8253 8254 8257 8257 8263 8264 8265 8257 8244 8169 8141 8110 8089 8083 8083 8079 8076 8073 8067 8063 8062 8064 8066 8069 8067 8065 8062 8070 8069 8076 8068 8067 8063 8055 8062 8066 8065 8062 8074 8163 8201 8214 8230 8236 8240 8241 8244 8245 8245 8242 8247 8244 8241 8243 8246 8242 8237 8236 8235 
8240 8244 8243 8241 8240 8240 8239 8238 8236 8236 8242 8238 8242 8243 8241 8240 8239 8238 8242 8244 8243 8250 8255 8255 8261 8263 8264 8264 8258 8248 8148 8105 8088 8084 8083 8083 8082 8076 8077 8079 8072 8061 8063 8070 8075 8076 8072 8069 8068 8068 8075 8075 8116 8104 8066 8073 8065 8065 8059 8066 8071 8081 8100 8197 8231 8238 8237 8243 8243 8243 8243 8246 8242 8240 8243 8244 8240 8239 8236 8235 
8240 8244 8243 8243 8240 8237 8238 8238 8239 8235 8239 8241 8244 8242 8244 8241 8242 8240 8243 8241 8244 8247 8248 8253 8257 8262 8259 8264 8255 8246 8170 8097 8081 8087 8094 8105 8111 8079 8070 8069 8065 8064 8067 8066 8068 8066 8071 8072 8071 8071 8081 8081 8091 8101 8091 8082 8069 8073 8061 8061 8060 8063 8072 8123 8183 8224 8233 8240 8242 8247 8239 8241 8239 8240 8240 8240 8241 8233 8236 8238 
8242 8244 8242 8241 8236 8238 8237 8242 8241 8236 8238 8243 8244 8245 8243 8239 8242 8241 8243 8244 8244 8250 8253 8252 8254 8257 8256 8260 8252 8215 8133 8091 8083 8096 8104 8110 8100 8072 8062 8061 8065 8067 8068 8067 8064 8059 8058 8065 8075 8074 8079 8069 8070 8074 8079 8074 8065 8071 8068 8069 8064 8061 8061 8062 8083 8168 8218 8231 8237 8241 8238 8238 8236 8236 8237 8237 8234 8230 8229 8236 
8239 8240 8242 8238 8236 8239 8238 8237 8239 8238 8238 8241 8245 8245 8241 8242 8243 8239 8245 8244 8246 8250 8248 8250 8256 8257 8254 8251 8231 8174 8146 8136 8086 8089 8095 8096 8081 8068 8060 8061 8064 8067 8069 8068 8064 8060 8058 8056 8064 8068 8071 8064 8060 8062 8066 8072 8067 8065 8060 8064 8060 8059 8060 8058 8066 8110 8170 8215 8232 8240 8233 8236 8235 8233 8236 8233 8233 8228 8230 8230 
8239 8239 8237 8236 8238 8240 8241 8236 8239 8237 8240 8240 8242 8242 8243 8241 8239 8238 8241 8244 8245 8247 8247 8248 8250 8252 8245 8245 8198 8173 8167 8109 8087 8085 8091 8096 8074 8061 8061 8062 8063 8067 8068 8065 8065 8062 8059 8060 8063 8064 8069 8064 8061 8060 8060 8065 8065 8064 8059 8060 8059 8058 8061 8067 8100 8146 8194 8219 8229 8233 8230 8234 8232 8234 8234 8232 8232 8230 8230 8233 
8237 8239 8238 8235 8235 8237 8235 8239 8238 8235 8237 8239 8240 8242 8241 8239 8242 8237 8240 8244 8243 8246 8242 8243 8242 8241 8239 8229 8176 8181 8179 8105 8086 8087 8102 8094 8067 8062 8059 8062 8062 8071 8068 8060 8064 8059 8060 8066 8063 8063 8065 8066 8061 8063 8060 8064 8062 8061 8060 8072 8069 8066 8091 8124 8164 8201 8219 8221 8227 8232 8227 8229 8228 8229 8233 8231 8231 8223 8222 8224 
8235 8235 8236 8236 8236 8238 8237 8238 8238 8235 8235 8238 8241 8240 8241 8242 8238 8237 8240 8242 8240 8244 8239 8239 8236 8238 8230 8206 8176 8204 8202 8155 8129 8100 8108 8072 8062 8061 8063 8068 8071 8080 8080 8063 8066 8060 8063 8065 8062 8063 8065 8066 8070 8073 8064 8064 8061 8060 8062 8086 8117 8120 8145 8184 8207 8216 8217 8220 8221 8225 8225 8226 8228 8229 8230 8228 8232 8224 8223 8222 
8232 8233 8235 8234 8236 8236 8235 8238 8237 8236 8236 8239 8239 8239 8239 8240 8240 8239 8239 8240 8240 8242 8238 8234 8233 8233 8228 8192 8179 8216 8196 8166 8147 8134 8111 8068 8065 8070 8084 8084 8085 8080 8080 8071 8063 8068 8076 8075 8069 8061 8066 8066 8071 8090 8072 8065 8060 8062 8061 8102 8137 8162 8199 8208 8213 8217 8217 8220 8223 8226 8223 8224 8227 8227 8229 8228 8228 8224 8224 8226 
8232 8235 8233 8236 8234 8233 8237 8234 8240 8237 8239 8239 8238 8238 8240 8237 8240 8239 8240 8243 8242 8239 8237 8233 8230 8230 8219 8182 8191 8221 8186 8166 8148 8138 8109 8080 8077 8077 8098 8092 8086 8088 8081 8080 8071 8071 8076 8072 8071 8066 8066 8065 8073 8111 8113 8104 8066 8063 8061 8101 8174 8201 8208 8208 8215 8213 8216 8217 8221 8220 8221 8224 8225 8228 8227 8228 8225 8222 8223 8223 
8234 8232 8233 8233 8234 8233 8235 8235 8240 8238 8241 8238 8241 8237 8239 8238 8237 8238 8240 8239 8240 8239 8234 8230 8231 8228 8210 8178 8196 8212 8183 8171 8160 8146 8109 8099 8088 8088 8101 8095 8080 8082 8078 8070 8073 8070 8070 8073 8075 8070 8061 8063 8070 8096 8106 8116 8104 8077 8063 8113 8192 8205 8209 8210 8213 8215 8215 8217 8215 8220 8220 8223 8223 8226 8228 8228 8227 8222 8223 8222 
8230 8233 8230 8228 8232 8236 8237 8239 8238 8240 8240 8241 8239 8237 8241 8238 8236 8237 8238 8239 8234 8234 8231 8228 8228 8226 8204 8180 8200 8202 8187 8187 8181 8157 8130 8111 8093 8091 8095 8089 8072 8073 8074 8068 8071 8072 8071 8075 8072 8066 8065 8061 8063 8060 8070 8101 8125 8152 8116 8126 8197 8205 8211 8211 8212 8213 8213 8216 8215 8217 8216 8221 8221 8224 8223 8225 8223 8219 8220 8218 
8224 8229 8230 8231 8231 8235 8237 8236 8239 8238 8238 8239 8238 8235 8238 8237 8237 8234 8238 8236 8235 8234 8231 8227 8224 8223 8203 8176 8198 8195 8186 8189 8202 8179 8147 8134 8109 8097 8087 8088 8077 8072 8067 8065 8064 8069 8071 8070 8067 8068 8070 8067 8064 8060 8067 8072 8118 8181 8201 8172 8196 8205 8207 8208 8211 8211 8213 8215 8214 8216 8214 8217 8219 8221 8223 8223 8219 8216 8216 8213 
8227 8230 8231 8233 8234 8238 8238 8239 8239 8238 8240 8241 8239 8234 8237 8238 8240 8237 8237 8233 8235 8234 8232 8227 8225 8227 8201 8176 8198 8191 8188 8190 8217 8203 8163 8139 8122 8097 8085 8068 8066 8062 8062 8063 8066 8068 8072 8076 8077 8067 8069 8067 8061 8063 8060 8072 8124 8176 8202 8182 8200 8206 8207 8208 8212 8214 8214 8213 8213 8215 8217 8218 8217 8217 8220 8217 8218 8216 8214 8215 
8225 8228 8227 8233 8238 8236 8236 8237 8241 8238 8240 8238 8236 8234 8233 8238 8237 8233 8237 8234 8233 8234 8230 8225 8227 8224 8205 8175 8197 8190 8182 8198 8222 8220 8175 8149 8126 8098 8086 8068 8062 8062 8064 8065 8067 8068 8073 8077 8075 8070 8073 8063 8058 8065 8074 8099 8141 8171 8200 8186 8200 8209 8209 8209 8212 8212 8211 8212 8212 8214 8213 8212 8212 8214 8215 8211 8212 8208 8208 8211 
8226 8227 8228 8230 8236 8235 8238 8239 8242 8237 8239 8237 8235 8234 8234 8237 8237 8235 8234 8235 8235 8230 8230 8226 8225 8226 8210 8176 8193 8198 8195 8209 8221 8232 8212 8171 8139 8101 8088 8073 8065 8065 8065 8067 8067 8074 8077 8077 8079 8071 8076 8071 8076 8078 8090 8110 8145 8179 8204 8189 8200 8206 8207 8206 8212 8210 8213 8211 8213 8213 8210 8212 8211 8209 8209 8207 8206 8204 8201 8204 
8222 8225 8227 8227 8232 8229 8234 8236 8241 8236 8237 8237 8237 8236 8236 8233 8238 8234 8237 8235 8235 8231 8230 8228 8226 8225 8216 8181 8183 8200 8185 8202 8210 8231 8228 8177 8144 8121 8099 8088 8081 8077 8069 8071 8063 8064 8067 8077 8073 8067 8069 8066 8068 8086 8114 8132 8158 8192 8202 8195 8205 8208 8210 8209 8211 8212 8211 8208 8209 8211 8207 8207 8205 8204 8204 8206 8202 8197 8204 8202 
8226 8222 8225 8228 8231 8229 8232 8234 8237 8235 8237 8235 8236 8236 8236 8234 8236 8235 8236 8235 8234 8232 8230 8225 8224 8227 8218 8195 8177 8208 8188 8201 8206 8219 8220 8175 8138 8124 8108 8105 8100 8086 8071 8072 8070 8069 8070 8078 8080 8070 8072 8068 8068 8082 8125 8145 8168 8207 8197 8201 8205 8209 8211 8207 8210 8210 8211 8209 8207 8208 8203 8203 8202 8201 8205 8205 8202 8197 8199 8200 
8221 8223 8225 8226 8231 8230 8232 8237 8238 8235 8235 8235 8235 8234 8236 8238 8238 8236 8237 8235 8234 8230 8228 8225 8224 8222 8219 8211 8178 8206 8201 8198 8218 8216 8206 8178 8160 8140 8119 8109 8103 8090 8072 8069 8068 8072 8073 8081 8084 8081 8079 8074 8069 8071 8085 8145 8181 8212 8203 8205 8206 8209 8208 8207 8211 8212 8208 8208 8205 8203 8198 8201 8203 8201 8201 8202 8199 8196 8199 8199 
8221 8224 8223 8228 8230 8227 8230 8234 8234 8235 8235 8236 8235 8234 8237 8237 8237 8237 8237 8236 8232 8230 8228 8225 8220 8221 8219 8219 8184 8191 8219 8208 8222 8224 8200 8174 8169 8155 8131 8114 8104 8092 8067 8063 8070 8080 8075 8080 8089 8080 8077 8079 8076 8072 8075 8132 8201 8208 8204 8207 8205 8208 8207 8207 8208 8208 8206 8203 8201 8201 8200 8199 8199 8200 8203 8198 8203 8197 8199 8199 
8220 8223 8225 8227 8227 8230 8229 8232 8236 8233 8233 8237 8236 8235 8238 8237 8239 8236 8235 8234 8231 8230 8228 8226 8220 8223 8219 8221 8206 8185 8213 8216 8215 8209 8186 8179 8168 8150 8137 8125 8119 8089 8067 8065 8067 8074 8077 8079 8085 8079 8079 8083 8079 8077 8078 8119 8210 8208 8205 8207 8203 8206 8207 8204 8208 8209 8206 8206 8202 8200 8197 8201 8200 8201 8201 8200 8203 8198 8196 8199 
8223 8223 8223 8223 8232 8228 8229 8233 8237 8231 8234 8235 8235 8235 8237 8238 8238 8237 8233 8232 8233 8230 8226 8226 8221 8225 8221 8223 8217 8198 8197 8229 8208 8184 8178 8182 8173 8160 8148 8133 8132 8090 8072 8070 8072 8076 8073 8077 8084 8078 8083 8099 8095 8099 8116 8153 8199 8203 8205 8205 8205 8205 8208 8205 8208 8207 8206 8204 8201 8198 8197 8201 8200 8200 8202 8203 8202 8198 8202 8199 
8222 8223 8225 8228 8228 8228 8230 8230 8235 8232 8234 8235 8234 8233 8235 8236 8238 8233 8234 8229 8231 8230 8226 8226 8219 8224 8221 8221 8220 8212 8194 8213 8231 8190 8191 8199 8188 8171 8154 8149 8146 8097 8087 8086 8083 8080 8073 8074 8075 8079 8087 8127 8150 8178 8203 8207 8197 8202 8206 8206 8207 8207 8208 8206 8205 8206 8209 8201 8201 8204 8200 8201 8201 8204 8204 8203 8204 8198 8199 8203 
8221 8226 8223 8227 8230 8227 8231 8232 8235 8233 8235 8236 8232 8236 8238 8238 8237 8233 8235 8232 8227 8228 8227 8225 8225 8225 8221 8224 8223 8222 8203 8203 8220 8238 8217 8215 8202 8177 8158 8152 8129 8113 8116 8129 8126 8089 8076 8076 8077 8083 8089 8149 8184 8212 8213 8192 8198 8204 8205 8209 8210 8209 8210 8207 8207 8206 8207 8207 8204 8205 8200 8204 8204 8205 8202 8205 8202 8200 8202 8198 
8220 8223 8223 8227 8230 8226 8230 8232 8234 8228 8235 8234 8231 8233 8233 8237 8237 8236 8234 8230 8230 8230 8229 8227 8223 8225 8222 8225 8223 8224 8219 8207 8208 8229 8256 8231 8205 8191 8168 8156 8147 8144 8146 8142 8131 8103 8094 8081 8085 8092 8094 8126 8199 8209 8193 8197 8205 8210 8211 8211 8212 8213 8213 8211 8209 8210 8207 8205 8205 8212 8206 8206 8210 8207 8207 8205 8208 8202 8202 8201 
8220 8221 8221 8222 8227 8229 8229 8229 8235 8230 8234 8235 8233 8232 8231 8235 8233 8233 8235 8233 8230 8228 8232 8228 8224 8223 8224 8231 8229 8229 8227 8219 8206 8208 8227 8238 8220 8197 8186 8171 8168 8170 8163 8157 8148 8144 8114 8090 8097 8132 8165 8177 8199 8194 8193 8210 8214 8216 8213 8217 8217 8216 8217 8209 8211 8212 8210 8207 8206 8205 8207 8209 8207 8208 8207 8208 8205 8201 8202 8204 
8222 8223 8222 8221 8225 8229 8230 8232 8234 8230 8234 8232 8231 8234 8231 8233 8232 8233 8234 8235 8233 8239 8236 8231 8228 8229 8227 8235 8232 8235 8234 8233 8220 8203 8202 8209 8211 8212 8203 8193 8191 8182 8184 8180 8167 8163 8154 8141 8171 8190 8200 8198 8195 8201 8215 8223 8222 8222 8224 8222 8222 8221 8219 8215 8212 8212 8213 8208 8207 8211 8206 8209 8207 8206 8207 8205 8207 8200 8206 8205 
8222 8220 8225 8222 8225 8227 8227 8230 8230 8232 8233 8231 8229 8226 8230 8232 8232 8229 8235 8233 8235 8237 8236 8237 8231 8229 8224 8234 8234 8240 8235 8237 8236 8221 8205 8200 8201 8204 8207 8210 8211 8212 8217 8210 8199 8193 8188 8190 8196 8195 8198 8202 8206 8217 8225 8229 8231 8228 8227 8224 8226 8220 8223 8213 8214 8212 8211 8208 8210 8211 8209 8212 8207 8208 8210 8207 8205 8202 8201 8200 
8224 8224 8223 8223 8229 8228 8228 8226 8229 8230 8230 8230 8231 8226 8226 8230 8231 8229 8236 8236 8237 8234 8232 8235 8228 8228 8223 8231 8234 8236 8233 8237 8236 8236 8226 8213 8207 8203 8202 8211 8223 8228 8231 8229 8220 8224 8216 8209 8207 8203 8208 8213 8221 8230 8231 8234 8231 8232 8228 8227 8228 8221 8220 8215 8213 8213 8212 8208 8208 8212 8208 8205 8209 8207 8209 8205 8205 8202 8197 8201 
8223 8225 8225 8226 8229 8226 8228 8228 8229 8227 8230 8230 8231 8227 8226 8229 8233 8232 8234 8235 8235 8232 8232 8231 8226 8224 8221 8228 8229 8231 8230 8234 8236 8237 8241 8235 8230 8223 8218 8210 8213 8216 8215 8214 8214 8210 8210 8208 8209 8215 8224 8234 8234 8235 8235 8235 8233 8231 8226 8227 8226 8221 8217 8214 8213 8211 8210 8207 8208 8211 8209 8208 8212 8209 8208 8204 8201 8198 8202 8199 
8225 8226 8230 8228 8231 8228 8228 8223 8227 8225 8230 8229 8231 8227 8225 8227 8234 8229 8235 8231 8234 8234 8230 8229 8226 8224 8219 8225 8229 8230 8227 8228 8229 8236 8244 8245 8249 8241 8233 8225 8220 8221 8219 8221 8230 8225 8220 8224 8230 8235 8239 8245 8240 8236 8234 8235 8233 8234 8230 8229 8226 8221 8216 8212 8216 8214 8210 8209 8210 8211 8208 8209 8211 8207 8203 8203 8204 8197 8199 8201 
8229 8229 8229 8230 8231 8226 8227 8226 8229 8225 8227 8227 8229 8228 8227 8229 8230 8226 8233 8231 8231 8231 8229 8228 8224 8225 8222 8225 8223 8225 8223 8227 8230 8235 8243 8249 8252 8252 8248 8242 8241 8241 8240 8235 8242 8241 8241 8242 8245 8247 8247 8247 8240 8240 8237 8238 8235 8231 8230 8226 8225 8219 8217 8214 8211 8213 8210 8211 8207 8212 8210 8210 8210 8205 8206 8203 8202 8196 8200 8199 
8233 8231 8231 8229 8234 8231 8230 8226 8229 8229 8230 8229 8229 8228 8230 8230 8231 8227 8228 8229 8229 8227 8230 8228 8223 8221 8219 8221 8219 8221 8220 8227 8227 8234 8245 8248 8252 8252 8251 8245 8245 8247 8248 8247 8249 8246 8248 8251 8249 8248 8249 8246 8245 8242 8238 8238 8235 8233 8229 8227 8223 8217 8216 8211 8213 8213 8211 8210 8211 8209 8208 8209 8205 8206 8205 8202 8200 8197 8196 8202 
8239 8225 8229 8228 8231 8227 8230 8230 8229 8229 8229 8229 8230 8229 8228 8227 8229 8226 8232 8228 8222 8226 8229 8227 8221 8223 8219 8222 8217 8221 8217 8226 8227 8233 8244 8246 8250 8250 8245 8246 8241 8245 8247 8249 8250 8249 8250 8253 8253 8252 8249 8245 8240 8239 8235 8236 8235 8231 8228 8226 8225 8218 8214 8211 8212 8213 8209 8210 8206 8210 8205 8207 8207 8205 8203 8199 8199 8195 8196 8198 


