P2
80 60
8281
8130 8138 8149 8187 8196 8206 8207 8207 8212 8219 8222 8227 8226 8222 8219 8222 8226 8226 8224 8231 8227 8226 8230 8229 8228 8234 8235 8239 8248 8250 8250 8247 8249 8245 8253 8250 8252 8256 8258 8264 8265 8266 8266 8268 8269 8270 8270 8268 8269 8275 8273 8269 8270 8267 8268 8264 8266 8264 8268 8262 8268 8266 8266 8263 8259 8256 8250 8251 8244 8244 8238 8236 8234 8231 8231 8226 8224 8220 8217 8219 
8131 8125 8160 8189 8200 8204 8206 8210 8215 8226 8228 8228 8226 8220 8220 8220 8226 8230 8226 8230 8225 8228 8231 8226 8229 8237 8239 8243 8244 8247 8251 8248 8251 8244 8251 8254 8257 8262 8263 8265 8268 8267 8271 8269 8269 8268 8271 8271 8269 8273 8272 8266 8270 8268 8268 8262 8266 8264 8263 8262 8268 8265 8262 8262 8259 8257 8250 8251 8245 8246 8241 8234 8233 8230 8231 8228 8219 8222 8218 8217 
8128 8137 8169 8196 8204 8205 8207 8213 8222 8231 8229 8226 8226 8221 8222 8224 8226 8228 8226 8232 8227 8227 8230 8227 8231 8234 8238 8243 8245 8250 8251 8247 8253 8248 8253 8256 8260 8262 8264 8267 8269 8268 8271 8273 8272 8269 8276 8271 8270 8274 8272 8269 8270 8271 8269 8266 8269 8263 8267 8263 8265 8264 8265 8261 8259 8257 8252 8254 8249 8244 8241 8237 8233 8232 8230 8224 8218 8219 8218 8214 
8140 8159 8184 8199 8207 8209 8204 8213 8222 8227 8224 8224 8223 8224 8224 8225 8230 8230 8227 8232 8227 8228 8228 8227 8234 8238 8240 8244 8247 8252 8253 8248 8254 8250 8256 8260 8262 8266 8268 8267 8269 8269 8269 8274 8273 8274 8278 8273 8270 8272 8270 8268 8269 8271 8272 8270 8268 8268 8268 8262 8266 8266 8264 8263 8260 8260 8257 8253 8248 8249 8246 8236 8233 8231 8231 8223 8218 8217 8213 8211 
8166 8182 8192 8204 8202 8206 8207 8214 8214 8219 8223 8223 8225 8223 8222 8225 8228 8231 8229 8230 8227 8226 8228 8226 8234 8239 8240 8247 8249 8255 8255 8251 8256 8251 8262 8265 8267 8270 8274 8273 8275 8273 8273 8278 8276 8272 8272 8272 8270 8272 8271 8271 8271 8270 8271 8268 8267 8270 8267 8265 8269 8266 8264 8263 8261 8260 8260 8260 8254 8253 8247 8241 8238 8233 8231 8220 8216 8212 8211 8208 
8193 8199 8197 8204 8204 8206 8209 8208 8213 8217 8218 8217 8218 8220 8222 8223 8226 8231 8226 8228 8226 8227 8230 8235 8239 8242 8243 8251 8253 8254 8254 8252 8256 8255 8264 8266 8269 8273 8276 8278 8279 8277 8278 8278 8275 8274 8275 8272 8272 8273 8270 8273 8274 8273 8273 8268 8268 8270 8266 8264 8268 8265 8258 8262 8259 8259 8259 8259 8259 8256 8251 8242 8242 8236 8230 8224 8216 8209 8206 8211 
8207 8201 8201 8204 8206 8210 8210 8210 8212 8218 8216 8213 8217 8216 8220 8225 8228 8230 8228 8229 8226 8230 8231 8234 8241 8247 8247 8253 8257 8257 8258 8258 8259 8259 8263 8266 8270 8274 8277 8278 8281 8280 8277 8278 8278 8275 8278 8272 8274 8272 8270 8270 8277 8272 8272 8268 8269 8267 8264 8264 8265 8262 8260 8258 8257 8261 8259 8260 8254 8255 8253 8248 8243 8238 8233 8225 8219 8212 8208 8208 
8210 8205 8203 8205 8208 8210 8207 8209 8211 8215 8215 8214 8217 8219 8223 8226 8228 8231 8229 8229 8230 8232 8236 8240 8246 8246 8250 8253 8258 8261 8258 8256 8259 8259 8266 8266 8269 8275 8280 8281 8281 8280 8279 8278 8279 8277 8278 8273 8271 8277 8272 8271 8275 8272 8270 8268 8266 8266 8262 8261 8262 8256 8254 8256 8256 8255 8255 8260 8250 8250 8250 8246 8244 8239 8236 8224 8217 8214 8213 8211 
8218 8212 8210 8214 8212 8211 8206 8210 8211 8213 8210 8211 8216 8218 8220 8224 8226 8230 8226 8230 8232 8233 8238 8238 8245 8244 8248 8252 8255 8256 8257 8255 8257 8255 8261 8263 8265 8272 8276 8276 8281 8278 8272 8277 8275 8271 8271 8270 8271 8272 8271 8268 8270 8270 8269 8264 8266 8261 8262 8257 8258 8254 8251 8253 8251 8250 8254 8255 8248 8245 8246 8242 8245 8238 8233 8224 8215 8219 8212 8211 
8227 8222 8218 8218 8218 8210 8211 8214 8211 8213 8212 8212 8214 8217 8218 8222 8227 8227 8225 8228 8227 8228 8234 8233 8240 8244 8245 8249 8253 8254 8251 8250 8252 8250 8255 8256 8259 8262 8267 8274 8273 8270 8268 8268 8266 8264 8263 8265 8266 8271 8267 8267 8267 8263 8265 8258 8262 8258 8257 8254 8254 8249 8248 8248 8245 8248 8246 8247 8242 8241 8238 8238 8236 8234 8230 8219 8216 8213 8215 8210 
8231 8228 8224 8228 8226 8221 8215 8213 8209 8213 8210 8213 8214 8217 8217 8221 8224 8224 8223 8223 8222 8227 8233 8234 8236 8238 8236 8247 8248 8249 8250 8246 8249 8246 8248 8251 8251 8256 8260 8260 8262 8262 8263 8263 8261 8258 8259 8260 8261 8265 8260 8258 8262 8259 8257 8254 8257 8254 8248 8248 8247 8246 8247 8243 8242 8245 8243 8242 8238 8239 8234 8232 8230 8229 8225 8219 8211 8214 8213 8205 
8239 8237 8238 8239 8230 8225 8220 8216 8211 8212 8210 8211 8211 8216 8216 8221 8223 8225 8219 8222 8222 8228 8228 8231 8236 8239 8240 8244 8245 8247 8248 8246 8249 8245 8251 8250 8254 8255 8257 8257 8260 8260 8258 8257 8259 8255 8262 8257 8263 8259 8259 8256 8261 8255 8256 8250 8247 8246 8246 8245 8245 8244 8241 8240 8244 8242 8240 8242 8234 8233 8231 8227 8230 8224 8222 8216 8210 8209 8210 8206 
8242 8242 8241 8241 8232 8226 8221 8211 8210 8212 8213 8214 8213 8214 8219 8222 8224 8220 8220 8221 8222 8225 8226 8229 8235 8236 8240 8246 8247 8250 8253 8250 8252 8247 8254 8254 8257 8258 8257 8258 8260 8255 8256 8256 8260 8256 8261 8259 8256 8257 8255 8254 8256 8253 8253 8247 8247 8245 8246 8239 8244 8240 8240 8239 8241 8240 8238 8239 8234 8232 8229 8227 8225 8219 8217 8208 8207 8206 8206 8201 
8244 8240 8242 8239 8230 8223 8219 8212 8211 8213 8213 8217 8214 8218 8220 8222 8221 8221 8219 8224 8220 8227 8227 8228 8236 8237 8238 8243 8249 8253 8251 8249 8252 8250 8253 8254 8258 8258 8256 8257 8258 8256 8257 8256 8255 8255 8257 8255 8253 8254 8250 8250 8251 8248 8249 8244 8247 8243 8241 8240 8239 8235 8236 8235 8236 8235 8237 8237 8230 8230 8227 8223 8220 8217 8213 8204 8201 8203 8197 8199 
8241 8243 8241 8237 8226 8222 8213 8213 8213 8214 8215 8218 8216 8217 8219 8222 8223 8222 8221 8220 8220 8225 8229 8236 8236 8241 8240 8245 8249 8253 8250 8251 8251 8249 8255 8256 8258 8255 8254 8256 8256 8253 8256 8256 8255 8254 8255 8252 8250 8249 8249 8248 8249 8247 8248 8242 8243 8242 8242 8236 8237 8234 8231 8233 8233 8232 8229 8233 8228 8227 8227 8220 8219 8216 8211 8201 8197 8196 8193 8191 
8236 8241 8236 8231 8223 8219 8219 8208 8213 8212 8214 8216 8218 8221 8219 8223 8224 8227 8223 8225 8224 8226 8231 8233 8240 8244 8243 8244 8251 8252 8252 8247 8252 8249 8253 8252 8253 8254 8251 8250 8252 8254 8253 8253 8255 8251 8251 8248 8244 8249 8248 8244 8247 8244 8245 8240 8240 8236 8233 8234 8235 8231 8230 8231 8231 8232 8228 8229 8224 8223 8222 8220 8215 8210 8207 8201 8195 8191 8189 8192 
8235 8236 8227 8227 8220 8216 8213 8211 8210 8213 8213 8218 8226 8226 8228 8229 8226 8228 8225 8227 8226 8229 8229 8236 8241 8241 8240 8247 8250 8249 8250 8248 8247 8246 8253 8249 8252 8252 8254 8248 8252 8248 8251 8251 8255 8251 8249 8247 8246 8247 8244 8244 8246 8242 8243 8239 8239 8233 8232 8228 8231 8230 8227 8231 8228 8227 8227 8226 8222 8220 8217 8214 8212 8208 8203 8196 8191 8191 8189 8187 
8234 8230 8228 8223 8217 8215 8213 8211 8212 8213 8217 8224 8230 8229 8229 8231 8228 8227 8224 8224 8224 8226 8230 8233 8240 8242 8241 8244 8248 8249 8251 8251 8250 8247 8251 8249 8252 8252 8251 8247 8248 8249 8249 8250 8250 8246 8251 8246 8243 8247 8242 8242 8243 8241 8240 8237 8234 8232 8232 8228 8231 8227 8227 8231 8226 8228 8224 8226 8226 8224 8222 8216 8215 8210 8207 8200 8195 8190 8190 8190 
8230 8232 8222 8224 8217 8215 8214 8212 8213 8218 8223 8226 8229 8230 8229 8229 8224 8227 8222 8226 8226 8227 8231 8235 8240 8239 8240 8245 8246 8251 8253 8250 8250 8248 8251 8249 8249 8253 8247 8245 8248 8249 8249 8248 8249 8247 8247 8243 8242 8240 8239 8240 8241 8240 8238 8232 8232 8229 8227 8226 8226 8224 8224 8224 8226 8224 8221 8221 8223 8227 8224 8220 8219 8215 8215 8207 8198 8199 8191 8189 
8230 8226 8222 8224 8219 8215 8212 8217 8219 8224 8228 8228 8229 8236 8231 8228 8227 8226 8225 8225 8227 8229 8234 8234 8237 8243 8238 8247 8247 8249 8251 8249 8250 8250 8252 8248 8248 8249 8248 8244 8247 8244 8247 8247 8245 8243 8245 8240 8240 8240 8240 8237 8243 8236 8237 8228 8230 8227 8223 8225 8224 8222 8220 8221 8220 8222 8220 8225 8222 8225 8224 8217 8222 8218 8215 8214 8212 8207 8195 8194 
8226 8227 8222 8224 8217 8218 8220 8221 8225 8229 8228 8229 8230 8234 8230 8229 8224 8226 8223 8228 8226 8228 8234 8234 8240 8239 8238 8241 8248 8249 8249 8248 8250 8247 8253 8248 8246 8245 8244 8244 8244 8243 8243 8243 8243 8241 8242 8239 8236 8237 8236 8237 8237 8235 8233 8229 8226 8225 8223 8222 8223 8220 8220 8217 8218 8219 8218 8223 8217 8220 8221 8217 8218 8216 8216 8215 8213 8212 8205 8197 
8227 8229 8224 8223 8221 8224 8227 8224 8228 8231 8232 8232 8232 8231 8232 8229 8227 8226 8225 8227 8228 8230 8237 8237 8236 8236 8239 8242 8244 8246 8247 8247 8250 8248 8252 8247 8244 8243 8241 8240 8241 8238 8241 8244 8244 8243 8244 8238 8239 8239 8235 8234 8231 8230 8230 8225 8226 8222 8221 8218 8220 8218 8215 8218 8216 8216 8218 8219 8220 8221 8220 8216 8216 8218 8214 8214 8214 8212 8208 8206 
8227 8226 8228 8225 8229 8226 8226 8227 8226 8229 8231 8231 8233 8233 8229 8231 8224 8228 8226 8228 8228 8229 8234 8235 8238 8235 8238 8242 8244 8246 8246 8246 8247 8246 8249 8245 8242 8235 8237 8234 8232 8236 8241 8247 8251 8250 8251 8248 8243 8242 8237 8234 8232 8230 8227 8228 8227 8222 8221 8219 8222 8217 8215 8214 8215 8216 8215 8218 8217 8217 8218 8214 8218 8220 8215 8213 8211 8213 8210 8209 
8230 8232 8233 8234 8229 8230 8230 8228 8227 8232 8233 8232 8227 8230 8229 8226 8223 8226 8226 8229 8227 8230 8233 8234 8234 8235 8235 8240 8243 8247 8246 8244 8244 8242 8245 8234 8217 8201 8198 8196 8199 8200 8201 8209 8221 8233 8246 8253 8250 8248 8244 8239 8238 8232 8230 8228 8231 8227 8225 8220 8223 8217 8215 8215 8213 8213 8215 8218 8217 8218 8217 8212 8214 8217 8215 8214 8211 8210 8210 8207 
8237 8239 8237 8237 8233 8231 8230 8230 8229 8232 8234 8231 8228 8229 8223 8222 8222 8224 8224 8230 8229 8232 8237 8237 8234 8232 8232 8237 8239 8242 8243 8238 8242 8229 8217 8199 8190 8190 8184 8181 8189 8187 8191 8197 8197 8202 8202 8214 8241 8252 8251 8244 8244 8239 8235 8231 8232 8228 8230 8227 8223 8219 8219 8220 8217 8212 8213 8218 8215 8217 8217 8211 8217 8214 8216 8210 8211 8211 8210 8205 
8241 8243 8241 8239 8233 8231 8228 8228 8226 8229 8230 8226 8224 8226 8224 8221 8224 8224 8223 8228 8227 8230 8235 8233 8235 8232 8229 8233 8237 8238 8242 8234 8219 8196 8193 8187 8185 8185 8186 8186 8191 8192 8193 8199 8200 8193 8188 8189 8193 8223 8243 8250 8247 8243 8241 8239 8238 8230 8230 8227 8228 8220 8218 8216 8214 8214 8213 8216 8215 8217 8214 8212 8215 8213 8212 8212 8208 8209 8208 8207 
8245 8244 8238 8239 8234 8235 8233 8231 8227 8230 8230 8226 8227 8224 8224 8223 8223 8225 8223 8227 8225 8231 8231 8232 8234 8232 8232 8235 8237 8238 8234 8206 8197 8185 8187 8185 8189 8191 8196 8197 8202 8200 8205 8203 8201 8196 8191 8184 8181 8190 8210 8238 8247 8247 8245 8241 8238 8232 8232 8227 8227 8221 8221 8221 8217 8216 8216 8217 8215 8218 8217 8214 8218 8213 8212 8209 8207 8209 8209 8211 
8243 8245 8244 8240 8232 8233 8231 8232 8226 8228 8225 8225 8224 8224 8223 8220 8222 8226 8222 8226 8225 8230 8232 8235 8238 8235 8231 8234 8235 8232 8212 8196 8191 8185 8193 8197 8206 8215 8227 8229 8237 8236 8236 8228 8216 8203 8195 8186 8184 8184 8185 8203 8243 8248 8247 8244 8238 8234 8232 8230 8225 8222 8221 8220 8218 8219 8216 8218 8215 8217 8214 8215 8215 8212 8214 8209 8207 8210 8212 8210 
8243 8243 8238 8236 8235 8233 8232 8231 8229 8228 8227 8227 8224 8223 8219 8221 8222 8225 8224 8225 8225 8232 8236 8235 8238 8232 8233 8233 8230 8212 8197 8188 8195 8196 8209 8225 8250 8266 8273 8268 8269 8269 8269 8263 8256 8241 8217 8199 8188 8188 8180 8181 8215 8241 8245 8240 8238 8235 8231 8231 8227 8220 8221 8220 8221 8218 8217 8217 8220 8217 8218 8216 8215 8212 8213 8213 8210 8211 8212 8210 
8242 8240 8237 8237 8233 8232 8232 8229 8230 8229 8227 8225 8224 8224 8220 8221 8222 8229 8226 8226 8227 8230 8234 8235 8238 8234 8232 8231 8218 8199 8189 8183 8203 8214 8244 8272 8277 8273 8266 8259 8267 8265 8258 8260 8257 8257 8251 8233 8203 8188 8176 8177 8186 8230 8245 8236 8236 8234 8233 8228 8225 8222 8220 8221 8221 8219 8217 8220 8216 8218 8215 8216 8215 8215 8215 8213 8210 8211 8213 8210 
8238 8239 8235 8233 8231 8232 8228 8232 8229 8229 8224 8229 8224 8223 8222 8224 8224 8228 8225 8225 8227 8233 8235 8233 8235 8234 8230 8228 8201 8192 8187 8198 8217 8248 8274 8272 8270 8269 8267 8269 8266 8266 8263 8259 8254 8238 8239 8251 8236 8205 8183 8172 8180 8200 8240 8238 8237 8233 8232 8228 8226 8222 8218 8219 8218 8217 8218 8218 8216 8218 8218 8215 8215 8214 8215 8213 8211 8215 8210 8211 
8234 8235 8231 8232 8234 8229 8232 8226 8229 8228 8226 8228 8228 8224 8225 8224 8225 8229 8226 8228 8230 8233 8236 8234 8236 8234 8229 8216 8192 8187 8198 8212 8248 8268 8250 8221 8263 8266 8258 8260 8260 8251 8243 8238 8249 8235 8162 8205 8242 8233 8198 8179 8179 8186 8228 8236 8238 8231 8233 8229 8225 8223 8221 8217 8217 8218 8216 8219 8218 8222 8218 8212 8213 8213 8213 8211 8210 8216 8213 8206 
8233 8238 8231 8234 8229 8231 8229 8228 8226 8229 8231 8230 8230 8225 8223 8222 8227 8227 8226 8229 8231 8233 8236 8233 8235 8232 8229 8203 8191 8194 8208 8237 8269 8271 8232 8218 8260 8263 8262 8269 8255 8254 8256 8246 8243 8212 8194 8160 8210 8247 8220 8190 8185 8185 8208 8233 8236 8230 8228 8227 8226 8222 8218 8220 8220 8220 8216 8221 8216 8222 8218 8215 8218 8214 8214 8218 8213 8211 8216 8213 
8237 8235 8228 8230 8229 8229 8226 8225 8228 8229 8228 8227 8228 8225 8224 8225 8224 8228 8225 8227 8229 8233 8234 8233 8233 8229 8220 8197 8188 8195 8219 8260 8274 8269 8271 8267 8261 8264 8267 8261 8247 8249 8252 8251 8232 8228 8239 8236 8225 8241 8238 8199 8186 8182 8193 8226 8230 8229 8226 8222 8225 8216 8217 8217 8218 8216 8218 8220 8215 8219 8218 8215 8216 8215 8217 8214 8212 8213 8211 8213 
8232 8230 8226 8229 8227 8228 8226 8227 8226 8228 8229 8227 8224 8225 8223 8222 8223 8226 8221 8224 8225 8230 8229 8225 8227 8224 8214 8189 8186 8196 8235 8264 8273 8267 8264 8259 8267 8262 8256 8251 8247 8242 8241 8237 8235 8244 8234 8236 8240 8234 8242 8212 8186 8176 8184 8218 8227 8226 8224 8221 8224 8220 8216 8214 8216 8215 8212 8215 8217 8215 8216 8214 8215 8212 8216 8210 8209 8210 8211 8206 
8228 8228 8224 8226 8227 8226 8225 8224 8227 8227 8227 8227 8224 8223 8220 8222 8223 8224 8222 8224 8225 8226 8227 8226 8223 8217 8206 8184 8187 8199 8242 8255 8267 8260 8257 8254 8264 8262 8255 8250 8250 8247 8244 8236 8242 8249 8240 8233 8238 8227 8238 8223 8187 8175 8181 8215 8223 8223 8222 8221 8222 8213 8217 8217 8214 8215 8213 8217 8214 8213 8217 8212 8215 8213 8214 8211 8209 8210 8209 8205 
8228 8227 8219 8225 8226 8224 8221 8225 8226 8225 8225 8224 8222 8222 8219 8223 8224 8223 8222 8223 8220 8222 8224 8219 8217 8215 8200 8184 8188 8204 8245 8250 8256 8250 8249 8253 8256 8252 8250 8253 8255 8249 8244 8239 8237 8238 8236 8226 8236 8233 8233 8224 8189 8175 8181 8212 8222 8222 8222 8217 8219 8214 8214 8212 8213 8216 8211 8214 8210 8211 8211 8211 8214 8212 8215 8206 8206 8206 8204 8200 
8224 8226 8220 8226 8220 8221 8224 8225 8225 8226 8220 8222 8221 8223 8221 8220 8221 8223 8221 8221 8219 8217 8221 8219 8214 8209 8202 8182 8186 8206 8245 8245 8249 8245 8246 8238 8242 8248 8249 8253 8253 8246 8244 8238 8229 8226 8228 8224 8230 8236 8236 8222 8187 8175 8178 8208 8222 8221 8221 8218 8217 8212 8213 8213 8211 8215 8211 8214 8207 8210 8209 8205 8206 8210 8205 8205 8203 8205 8204 8199 
8221 8224 8222 8222 8222 8222 8223 8225 8222 8224 8220 8220 8221 8221 8219 8221 8220 8221 8218 8218 8217 8218 8215 8213 8216 8210 8201 8177 8183 8202 8236 8243 8240 8243 8243 8244 8245 8245 8248 8245 8246 8236 8234 8228 8229 8234 8232 8213 8227 8220 8225 8218 8186 8172 8181 8210 8219 8219 8219 8218 8218 8216 8214 8214 8212 8215 8215 8216 8208 8206 8206 8205 8202 8203 8202 8201 8199 8199 8200 8194 
8220 8221 8221 8222 8221 8222 8225 8224 8224 8225 8220 8219 8219 8220 8219 8219 8223 8221 8217 8221 8219 8217 8216 8213 8213 8211 8206 8179 8177 8193 8232 8236 8237 8237 8235 8236 8240 8240 8237 8227 8224 8221 8218 8218 8222 8228 8216 8203 8222 8215 8228 8211 8186 8171 8185 8212 8219 8217 8218 8217 8218 8216 8215 8214 8213 8214 8213 8209 8202 8202 8201 8197 8197 8197 8197 8197 8195 8194 8191 8190 
8221 8222 8222 8225 8223 8224 8223 8225 8222 8224 8220 8219 8219 8219 8218 8219 8219 8220 8216 8220 8216 8217 8216 8214 8214 8211 8208 8187 8174 8185 8219 8232 8232 8228 8225 8224 8226 8218 8223 8221 8215 8214 8215 8215 8197 8187 8202 8208 8213 8213 8221 8200 8178 8171 8200 8215 8217 8217 8218 8217 8216 8215 8214 8216 8211 8211 8207 8204 8202 8200 8196 8196 8192 8190 8196 8190 8194 8192 8190 8188 
8220 8223 8222 8223 8223 8222 8223 8224 8218 8220 8220 8218 8218 8219 8221 8219 8218 8221 8218 8217 8218 8217 8215 8211 8212 8210 8208 8200 8175 8179 8199 8225 8223 8216 8228 8220 8207 8211 8223 8221 8215 8211 8221 8219 8183 8112 8173 8206 8202 8213 8213 8183 8172 8172 8210 8212 8218 8214 8212 8217 8216 8214 8210 8208 8211 8206 8204 8205 8196 8198 8197 8192 8190 8192 8192 8191 8189 8192 8192 8189 
8220 8218 8217 8221 8222 8225 8221 8221 8223 8223 8218 8217 8219 8220 8220 8220 8219 8222 8218 8219 8219 8219 8216 8213 8212 8212 8211 8210 8185 8174 8184 8208 8224 8213 8214 8208 8211 8211 8212 8216 8207 8206 8214 8208 8193 8164 8176 8180 8190 8213 8200 8171 8164 8192 8216 8214 8216 8214 8211 8214 8212 8213 8207 8207 8207 8203 8203 8201 8192 8194 8194 8192 8192 8193 8193 8189 8186 8189 8188 8184 
8217 8218 8215 8221 8219 8221 8220 8222 8219 8221 8221 8217 8220 8219 8220 8221 8222 8222 8219 8219 8218 8216 8214 8211 8213 8207 8210 8214 8202 8176 8175 8188 8220 8214 8210 8207 8213 8207 8200 8204 8204 8204 8201 8200 8201 8204 8200 8195 8204 8203 8179 8162 8177 8205 8213 8210 8215 8210 8213 8209 8211 8208 8204 8206 8203 8201 8199 8201 8195 8196 8193 8193 8193 8194 8195 8191 8190 8188 8187 8188 
8217 8216 8214 8222 8216 8218 8219 8219 8221 8223 8220 8217 8220 8222 8220 8218 8222 8223 8219 8220 8217 8216 8216 8212 8210 8210 8208 8213 8211 8195 8176 8171 8195 8210 8212 8206 8201 8208 8207 8202 8203 8205 8207 8209 8206 8196 8198 8204 8204 8185 8165 8166 8198 8209 8212 8210 8212 8208 8208 8205 8209 8203 8203 8202 8200 8197 8200 8198 8194 8195 8192 8192 8191 8191 8191 8188 8188 8187 8186 8183 
8215 8216 8214 8218 8216 8219 8216 8216 8219 8220 8219 8219 8218 8221 8222 8219 8221 8223 8218 8219 8216 8213 8214 8208 8211 8210 8208 8211 8210 8208 8186 8170 8170 8185 8210 8208 8203 8200 8199 8199 8204 8203 8198 8195 8194 8196 8206 8201 8177 8166 8170 8186 8205 8207 8209 8208 8209 8208 8205 8203 8203 8200 8198 8197 8198 8195 8200 8197 8194 8191 8193 8189 8192 8192 8191 8188 8187 8187 8186 8182 
8215 8214 8214 8218 8213 8219 8217 8216 8217 8218 8218 8218 8219 8218 8222 8221 8223 8223 8219 8218 8217 8214 8216 8211 8209 8209 8208 8211 8210 8213 8211 8184 8172 8165 8178 8194 8205 8204 8202 8197 8203 8205 8200 8202 8201 8201 8188 8169 8163 8169 8188 8199 8207 8206 8210 8207 8208 8205 8204 8201 8203 8199 8198 8195 8193 8197 8199 8199 8192 8196 8194 8190 8191 8191 8196 8187 8184 8182 8184 8180 
8213 8214 8214 8215 8214 8215 8215 8213 8216 8217 8219 8218 8219 8218 8222 8219 8219 8223 8220 8219 8218 8214 8212 8211 8210 8210 8207 8210 8213 8209 8210 8204 8193 8172 8168 8163 8174 8186 8195 8200 8200 8200 8197 8193 8180 8170 8163 8163 8172 8187 8195 8204 8206 8204 8210 8203 8205 8204 8202 8201 8201 8196 8193 8193 8195 8197 8199 8200 8194 8196 8195 8193 8193 8190 8190 8191 8187 8186 8183 8181 
8209 8212 8212 8218 8213 8214 8217 8216 8219 8216 8216 8219 8217 8219 8219 8220 8220 8222 8219 8220 8217 8213 8215 8209 8209 8208 8205 8210 8211 8210 8211 8209 8205 8191 8184 8170 8163 8159 8160 8164 8167 8165 8160 8159 8161 8163 8172 8181 8184 8193 8200 8202 8204 8205 8204 8202 8201 8201 8199 8195 8198 8192 8192 8189 8192 8194 8199 8200 8195 8193 8193 8192 8191 8190 8189 8184 8182 8187 8187 8180 
8206 8214 8209 8215 8215 8216 8216 8215 8217 8220 8217 8218 8219 8215 8216 8219 8220 8220 8215 8216 8214 8216 8215 8211 8208 8207 8207 8210 8213 8213 8214 8206 8207 8199 8199 8190 8180 8176 8171 8167 8166 8166 8170 8175 8178 8180 8187 8187 8193 8201 8203 8201 8201 8198 8201 8196 8199 8196 8193 8191 8193 8190 8192 8191 8190 8194 8195 8198 8195 8194 8190 8190 8187 8188 8186 8185 8183 8185 8186 8180 
8207 8206 8206 8215 8214 8216 8219 8216 8219 8219 8217 8218 8218 8217 8215 8216 8218 8220 8213 8216 8215 8214 8212 8210 8209 8207 8207 8210 8211 8212 8207 8207 8208 8204 8203 8200 8190 8187 8183 8180 8181 8181 8185 8187 8187 8188 8193 8192 8195 8202 8203 8199 8200 8200 8201 8198 8193 8192 8191 8190 8192 8190 8189 8189 8191 8192 8196 8196 8191 8192 8189 8187 8191 8190 8185 8184 8180 8184 8182 8177 
8211 8212 8211 8216 8214 8216 8220 8217 8218 8218 8217 8218 8217 8216 8215 8216 8215 8220 8214 8215 8215 8214 8214 8211 8210 8208 8205 8207 8208 8212 8212 8206 8209 8203 8207 8198 8198 8194 8189 8184 8186 8186 8189 8191 8191 8192 8197 8196 8197 8203 8201 8199 8203 8200 8199 8194 8194 8191 8189 8188 8190 8190 8187 8189 8189 8190 8192 8194 8190 8190 8192 8186 8188 8183 8184 8180 8179 8183 8181 8180 
8217 8216 8212 8217 8217 8219 8217 8217 8218 8219 8213 8217 8216 8215 8215 8215 8216 8215 8214 8215 8215 8212 8213 8211 8207 8207 8207 8208 8209 8212 8210 8207 8206 8203 8205 8200 8199 8197 8193 8193 8193 8191 8194 8197 8197 8197 8198 8197 8199 8199 8202 8198 8200 8198 8201 8194 8195 8191 8189 8188 8188 8189 8190 8190 8192 8191 8194 8195 8191 8190 8191 8188 8187 8183 8184 8181 8181 8180 8182 8181 
8213 8216 8213 8218 8216 8216 8220 8217 8214 8218 8213 8213 8214 8215 8214 8216 8213 8215 8211 8214 8213 8211 8212 8208 8208 8206 8206 8208 8210 8209 8209 8205 8207 8204 8204 8200 8199 8198 8195 8194 8194 8193 8194 8199 8197 8195 8199 8199 8200 8203 8202 8198 8204 8199 8203 8193 8196 8193 8194 8187 8191 8188 8189 8190 8191 8194 8193 8195 8189 8188 8193 8187 8188 8182 8186 8181 8181 8180 8178 8183 
8215 8222 8219 8224 8217 8220 8218 8215 8215 8216 8218 8212 8216 8213 8212 8213 8212 8213 8210 8213 8212 8210 8210 8208 8208 8206 8204 8206 8210 8210 8209 8207 8207 8204 8206 8202 8198 8196 8196 8196 8195 8195 8194 8194 8197 8200 8202 8200 8205 8207 8206 8202 8204 8203 8201 8196 8199 8195 8191 8191 8192 8190 8189 8189 8190 8192 8193 8194 8189 8192 8190 8187 8185 8187 8183 8182 8179 8181 8180 8177 
8218 8222 8223 8226 8219 8218 8219 8214 8215 8218 8215 8214 8215 8210 8209 8211 8214 8214 8213 8211 8213 8211 8210 8209 8208 8207 8203 8205 8211 8213 8209 8209 8206 8202 8205 8200 8202 8201 8198 8199 8201 8199 8200 8200 8200 8203 8206 8206 8208 8208 8207 8205 8206 8204 8201 8198 8201 8196 8193 8190 8192 8192 8193 8191 8193 8193 8195 8197 8190 8193 8192 8188 8190 8185 8184 8180 8178 8179 8180 8176 
8223 8223 8223 8222 8222 8217 8220 8217 8218 8215 8216 8213 8215 8215 8210 8211 8215 8214 8215 8213 8213 8213 8212 8211 8208 8209 8206 8204 8210 8210 8210 8205 8207 8206 8206 8205 8206 8203 8202 8204 8205 8202 8204 8203 8204 8208 8213 8212 8213 8210 8214 8213 8209 8208 8204 8202 8202 8199 8194 8191 8195 8197 8192 8192 8193 8198 8198 8200 8193 8194 8190 8190 8190 8189 8188 8181 8178 8179 8184 8183 
8221 8221 8221 8222 8220 8216 8216 8217 8216 8213 8216 8214 8214 8213 8213 8213 8214 8214 8210 8211 8212 8210 8214 8216 8212 8209 8203 8206 8206 8207 8207 8201 8203 8203 8209 8208 8209 8206 8207 8205 8205 8203 8207 8206 8206 8210 8216 8217 8214 8215 8214 8210 8210 8207 8207 8201 8201 8199 8196 8195 8196 8195 8195 8195 8197 8199 8198 8199 8195 8196 8192 8192 8191 8192 8187 8183 8182 8181 8182 8177 
8220 8223 8217 8220 8217 8216 8213 8214 8214 8216 8214 8211 8212 8211 8212 8213 8214 8213 8212 8211 8213 8213 8211 8213 8210 8206 8205 8203 8206 8209 8207 8201 8202 8201 8210 8208 8212 8207 8207 8203 8205 8205 8206 8208 8210 8209 8216 8215 8214 8215 8214 8206 8208 8207 8206 8200 8202 8197 8195 8193 8196 8196 8194 8194 8193 8198 8201 8201 8196 8195 8194 8192 8194 8191 8189 8183 8182 8182 8183 8179 
8228 8214 8219 8221 8219 8217 8213 8213 8211 8213 8212 8213 8212 8210 8215 8211 8213 8216 8207 8212 8211 8211 8210 8209 8208 8207 8206 8207 8208 8207 8207 8203 8203 8205 8209 8210 8211 8210 8203 8201 8204 8202 8206 8208 8208 8212 8216 8217 8215 8218 8216 8211 8209 8206 8205 8204 8203 8195 8199 8194 8196 8194 8194 8195 8197 8198 8200 8202 8192 8197 8195 8191 8190 8189 8189 8182 8183 8179 8185 8180 


