P2
80 60
8299
8159 8157 8185 8210 8217 8221 8222 8231 8229 8233 8234 8232 8225 8222 8225 8225 8219 8218 8224 8224 8228 8228 8233 8229 8234 8254 8266 8270 8275 8277 8278 8279 8274 8277 8276 8282 8288 8289 8289 8288 8293 8293 8299 8294 8287 8285 8290 8289 8284 8284 8284 8282 8278 8279 8278 8279 8281 8283 8280 8278 8274 8274 8266 8262 8262 8255 8251 8251 8248 8248 8246 8243 8246 8240 8243 8239 8240 8236 8236 8234 
8158 8158 8187 8209 8218 8220 8224 8231 8231 8235 8235 8231 8226 8222 8223 8224 8222 8223 8224 8224 8229 8224 8231 8229 8233 8255 8265 8271 8272 8274 8274 8275 8274 8275 8277 8284 8289 8288 8291 8287 8291 8294 8296 8293 8289 8288 8289 8288 8285 8281 8281 8280 8277 8276 8276 8278 8281 8282 8278 8276 8273 8272 8267 8263 8260 8256 8256 8251 8248 8249 8246 8244 8244 8241 8242 8237 8235 8238 8231 8236 
8159 8158 8201 8213 8220 8226 8227 8233 8237 8236 8236 8231 8226 8223 8223 8224 8223 8220 8226 8227 8227 8227 8226 8231 8237 8255 8263 8271 8272 8274 8274 8274 8274 8278 8275 8284 8289 8287 8290 8287 8290 8292 8291 8290 8287 8283 8286 8285 8282 8276 8279 8279 8278 8277 8275 8275 8279 8281 8279 8277 8276 8273 8267 8263 8262 8255 8254 8251 8248 8247 8247 8243 8241 8239 8241 8234 8237 8233 8233 8230 
8162 8179 8210 8215 8222 8223 8228 8235 8236 8235 8233 8227 8223 8223 8223 8223 8222 8223 8224 8225 8228 8227 8228 8234 8237 8254 8262 8269 8269 8273 8276 8272 8274 8277 8279 8281 8287 8287 8287 8279 8278 8278 8281 8286 8288 8282 8288 8283 8281 8280 8279 8281 8279 8280 8276 8275 8277 8282 8280 8278 8277 8272 8270 8264 8264 8256 8257 8255 8253 8251 8248 8244 8244 8240 8238 8236 8234 8233 8232 8231 
8186 8204 8218 8217 8222 8225 8225 8231 8231 8232 8231 8224 8220 8221 8221 8225 8221 8222 8226 8229 8229 8227 8228 8235 8241 8255 8265 8269 8269 8274 8270 8272 8273 8277 8277 8281 8285 8282 8273 8230 8195 8189 8216 8264 8280 8279 8285 8287 8283 8279 8280 8281 8275 8279 8277 8277 8278 8280 8279 8279 8275 8274 8271 8266 8264 8259 8259 8255 8254 8253 8248 8247 8245 8242 8238 8235 8235 8231 8228 8229 
8216 8217 8222 8221 8225 8225 8225 8229 8229 8227 8226 8223 8221 8221 8224 8225 8222 8224 8225 8226 8231 8230 8231 8235 8243 8259 8264 8271 8272 8272 8271 8276 8273 8276 8276 8279 8283 8274 8188 8120 8110 8109 8116 8169 8254 8280 8285 8283 8283 8279 8281 8285 8279 8279 8278 8280 8280 8280 8281 8280 8275 8277 8271 8265 8265 8260 8261 8263 8258 8255 8253 8250 8246 8242 8240 8237 8234 8233 8231 8229 
8221 8222 8224 8221 8222 8226 8226 8225 8226 8225 8226 8223 8219 8225 8221 8223 8224 8224 8225 8226 8230 8229 8231 8238 8245 8262 8270 8268 8273 8273 8273 8273 8274 8275 8274 8276 8280 8241 8122 8096 8095 8095 8099 8106 8208 8277 8283 8286 8283 8282 8281 8284 8282 8282 8279 8281 8282 8282 8278 8279 8276 8277 8269 8263 8265 8263 8262 8261 8259 8259 8256 8249 8248 8247 8240 8235 8234 8231 8227 8230 
8231 8226 8228 8224 8225 8223 8226 8226 8227 8226 8225 8223 8222 8224 8224 8227 8221 8224 8224 8226 8231 8232 8233 8239 8248 8264 8267 8271 8274 8275 8273 8272 8273 8277 8274 8275 8278 8217 8108 8086 8091 8090 8092 8105 8238 8278 8281 8283 8283 8279 8279 8283 8281 8282 8277 8281 8278 8283 8279 8278 8276 8272 8273 8264 8266 8262 8263 8264 8263 8260 8256 8252 8251 8248 8243 8238 8234 8231 8230 8229 
8237 8230 8234 8229 8228 8228 8223 8228 8226 8228 8225 8223 8221 8226 8225 8227 8225 8222 8224 8225 8230 8232 8234 8240 8248 8263 8270 8274 8271 8273 8269 8271 8270 8277 8272 8273 8279 8240 8120 8088 8092 8091 8091 8111 8241 8269 8272 8272 8274 8273 8278 8278 8279 8277 8277 8278 8279 8280 8280 8274 8273 8271 8268 8264 8264 8264 8264 8264 8261 8257 8255 8254 8252 8245 8245 8241 8240 8237 8232 8234 
8241 8241 8241 8231 8233 8228 8226 8230 8227 8226 8223 8223 8220 8222 8227 8227 8222 8221 8225 8227 8228 8230 8235 8241 8247 8262 8263 8260 8248 8248 8260 8263 8267 8271 8269 8269 8274 8262 8176 8099 8090 8096 8092 8110 8190 8196 8185 8209 8235 8256 8266 8276 8274 8274 8275 8272 8276 8277 8273 8274 8273 8270 8265 8262 8265 8260 8259 8262 8254 8254 8250 8250 8250 8246 8243 8245 8241 8238 8235 8231 
8246 8244 8244 8238 8238 8233 8232 8231 8228 8223 8221 8222 8221 8223 8227 8225 8224 8221 8224 8227 8227 8229 8232 8240 8245 8253 8219 8172 8125 8121 8164 8224 8261 8263 8263 8265 8266 8253 8234 8153 8097 8093 8101 8113 8111 8123 8135 8146 8154 8183 8231 8266 8270 8272 8269 8272 8273 8273 8272 8272 8268 8263 8264 8261 8259 8261 8258 8257 8254 8252 8253 8248 8247 8246 8244 8241 8242 8238 8234 8238 
8253 8250 8255 8252 8248 8246 8237 8232 8226 8223 8221 8219 8219 8223 8225 8227 8223 8222 8224 8225 8229 8231 8230 8243 8242 8200 8109 8090 8087 8082 8091 8126 8247 8263 8259 8258 8246 8183 8135 8142 8143 8097 8134 8119 8097 8100 8119 8131 8139 8148 8169 8250 8265 8267 8268 8270 8271 8270 8268 8269 8265 8263 8264 8259 8261 8257 8257 8254 8253 8248 8249 8243 8248 8242 8241 8242 8241 8238 8235 8230 
8259 8259 8262 8256 8252 8248 8238 8233 8225 8222 8220 8221 8221 8220 8225 8231 8226 8225 8225 8224 8227 8230 8231 8240 8234 8132 8087 8083 8078 8080 8080 8092 8213 8253 8238 8204 8126 8084 8078 8080 8099 8113 8147 8127 8089 8092 8105 8115 8127 8139 8180 8255 8261 8263 8263 8269 8271 8268 8266 8264 8262 8263 8257 8258 8260 8256 8255 8253 8251 8250 8249 8245 8245 8242 8239 8238 8235 8234 8232 8233 
8259 8261 8265 8260 8255 8247 8240 8230 8228 8221 8224 8226 8221 8222 8224 8230 8227 8224 8225 8228 8230 8233 8237 8245 8236 8118 8082 8081 8075 8075 8074 8077 8137 8182 8124 8089 8083 8077 8074 8077 8086 8144 8172 8098 8086 8078 8096 8153 8160 8187 8232 8252 8257 8261 8260 8263 8264 8264 8263 8261 8257 8259 8257 8254 8253 8257 8254 8252 8251 8249 8249 8245 8242 8238 8236 8236 8236 8231 8229 8231 
8264 8263 8266 8258 8249 8243 8233 8230 8225 8223 8222 8223 8220 8226 8231 8234 8230 8228 8231 8231 8235 8239 8237 8248 8239 8167 8095 8081 8076 8073 8075 8083 8101 8095 8082 8076 8081 8081 8083 8083 8094 8119 8127 8117 8085 8076 8081 8094 8094 8102 8141 8206 8244 8253 8257 8262 8259 8264 8259 8257 8257 8258 8255 8254 8256 8254 8254 8253 8248 8248 8245 8244 8239 8236 8232 8231 8229 8227 8225 8224 
8259 8258 8259 8245 8247 8240 8232 8227 8225 8221 8221 8223 8225 8227 8235 8238 8235 8232 8232 8229 8235 8235 8238 8242 8244 8246 8194 8115 8085 8077 8075 8079 8084 8081 8076 8079 8089 8117 8155 8141 8166 8110 8185 8128 8081 8077 8077 8074 8073 8070 8078 8112 8207 8245 8249 8253 8256 8257 8256 8257 8253 8257 8253 8255 8254 8252 8252 8250 8246 8247 8242 8239 8236 8233 8228 8225 8224 8222 8222 8224 
8255 8253 8255 8241 8239 8236 8229 8224 8223 8221 8223 8224 8230 8234 8237 8238 8232 8233 8232 8232 8237 8238 8240 8244 8245 8258 8254 8236 8185 8112 8080 8070 8070 8074 8079 8119 8193 8231 8196 8202 8172 8129 8154 8088 8078 8079 8082 8075 8072 8075 8073 8084 8138 8235 8247 8251 8253 8255 8253 8255 8255 8256 8253 8252 8252 8252 8251 8247 8247 8247 8245 8236 8237 8232 8229 8223 8224 8223 8222 8226 
8252 8248 8248 8236 8238 8232 8224 8224 8223 8221 8224 8234 8236 8235 8237 8238 8233 8229 8232 8233 8235 8235 8239 8245 8250 8254 8247 8241 8245 8208 8092 8077 8071 8090 8153 8229 8250 8244 8198 8178 8124 8140 8136 8084 8076 8077 8080 8082 8074 8074 8075 8081 8104 8216 8243 8249 8254 8256 8255 8254 8253 8254 8252 8251 8250 8251 8248 8249 8243 8244 8245 8242 8236 8235 8231 8227 8226 8223 8224 8224 
8248 8245 8245 8236 8238 8230 8227 8225 8222 8227 8230 8237 8235 8234 8239 8238 8235 8229 8234 8233 8235 8235 8238 8244 8245 8249 8196 8156 8163 8203 8117 8084 8110 8198 8238 8243 8221 8197 8153 8106 8090 8113 8127 8088 8074 8073 8081 8079 8075 8074 8074 8082 8090 8158 8236 8249 8252 8254 8253 8251 8251 8249 8249 8246 8247 8246 8243 8244 8244 8243 8245 8241 8243 8243 8241 8236 8232 8227 8223 8224 
8245 8241 8247 8239 8236 8231 8225 8228 8227 8232 8233 8237 8237 8238 8237 8237 8233 8229 8233 8232 8237 8239 8236 8243 8245 8231 8144 8079 8078 8100 8096 8169 8187 8236 8243 8194 8092 8075 8080 8081 8089 8097 8095 8087 8077 8077 8081 8079 8072 8073 8075 8082 8088 8136 8231 8247 8248 8252 8249 8250 8246 8250 8244 8243 8246 8241 8241 8243 8241 8242 8246 8240 8241 8241 8241 8240 8238 8238 8232 8230 
8247 8245 8247 8238 8234 8229 8229 8228 8230 8233 8232 8234 8232 8236 8238 8237 8232 8230 8230 8230 8233 8234 8236 8239 8236 8174 8082 8074 8094 8148 8120 8127 8172 8195 8210 8103 8075 8073 8078 8084 8082 8085 8089 8082 8081 8076 8083 8081 8078 8078 8078 8082 8088 8118 8220 8245 8247 8249 8245 8245 8246 8245 8241 8239 8241 8241 8240 8241 8239 8241 8242 8241 8244 8241 8239 8239 8239 8240 8233 8234 
8246 8241 8243 8236 8234 8232 8230 8231 8231 8232 8236 8235 8234 8237 8238 8236 8231 8228 8229 8229 8232 8234 8235 8237 8218 8105 8068 8061 8064 8069 8067 8078 8087 8090 8091 8071 8075 8074 8080 8081 8090 8090 8084 8084 8083 8081 8084 8081 8078 8077 8089 8096 8094 8107 8197 8239 8244 8244 8240 8240 8234 8232 8232 8235 8237 8236 8238 8239 8241 8241 8242 8244 8243 8240 8241 8243 8241 8242 8233 8239 
8249 8242 8241 8236 8237 8230 8231 8230 8232 8232 8236 8234 8234 8235 8234 8238 8229 8227 8231 8228 8230 8233 8233 8234 8175 8072 8066 8060 8061 8062 8059 8075 8075 8072 8066 8066 8073 8073 8080 8084 8092 8086 8084 8084 8084 8080 8084 8083 8079 8079 8090 8116 8121 8124 8177 8236 8241 8236 8214 8174 8160 8162 8192 8221 8232 8235 8235 8236 8239 8240 8241 8242 8244 8240 8239 8240 8242 8240 8239 8242 
8251 8244 8248 8237 8238 8236 8230 8233 8236 8234 8233 8230 8232 8235 8234 8236 8230 8229 8230 8228 8231 8230 8227 8224 8123 8068 8060 8062 8061 8064 8060 8063 8069 8070 8075 8072 8070 8072 8080 8084 8093 8087 8089 8086 8083 8081 8083 8083 8080 8082 8082 8109 8126 8162 8215 8230 8224 8183 8137 8134 8137 8141 8147 8183 8228 8233 8236 8238 8238 8240 8241 8241 8243 8242 8240 8242 8241 8241 8238 8240 
8251 8249 8247 8243 8240 8238 8235 8237 8235 8235 8234 8234 8231 8233 8233 8232 8229 8227 8230 8230 8232 8230 8228 8218 8104 8064 8063 8060 8060 8060 8059 8067 8071 8070 8088 8087 8073 8071 8078 8079 8083 8093 8102 8101 8084 8086 8090 8090 8087 8083 8086 8149 8209 8180 8166 8157 8140 8132 8130 8135 8141 8145 8149 8169 8222 8231 8234 8235 8237 8238 8238 8239 8243 8242 8238 8240 8241 8239 8236 8240 
8254 8253 8255 8244 8240 8237 8234 8237 8235 8234 8234 8236 8232 8232 8231 8230 8227 8226 8227 8228 8230 8228 8223 8216 8103 8066 8061 8058 8061 8058 8060 8067 8070 8073 8071 8073 8072 8066 8072 8078 8089 8104 8105 8109 8098 8102 8094 8094 8092 8092 8093 8148 8220 8218 8178 8141 8137 8135 8138 8146 8148 8150 8156 8163 8216 8231 8236 8236 8236 8240 8240 8239 8239 8239 8237 8241 8242 8239 8239 8236 
8254 8255 8254 8246 8239 8239 8236 8239 8235 8234 8235 8233 8229 8232 8234 8231 8224 8225 8226 8225 8224 8211 8160 8195 8098 8063 8060 8056 8057 8060 8063 8071 8069 8068 8066 8067 8071 8071 8074 8086 8098 8108 8111 8110 8115 8098 8088 8092 8096 8097 8096 8129 8205 8220 8203 8142 8144 8138 8141 8147 8150 8157 8163 8164 8215 8228 8234 8235 8234 8236 8237 8237 8239 8239 8236 8241 8241 8242 8235 8239 
8254 8254 8255 8244 8240 8240 8237 8239 8240 8236 8235 8235 8230 8233 8233 8229 8221 8223 8222 8223 8211 8148 8105 8119 8082 8064 8061 8061 8058 8059 8069 8073 8065 8067 8062 8065 8071 8074 8082 8091 8102 8110 8111 8096 8095 8084 8086 8086 8089 8093 8100 8105 8167 8214 8218 8145 8140 8146 8145 8149 8148 8160 8166 8165 8215 8231 8233 8237 8235 8238 8237 8236 8239 8238 8238 8239 8240 8243 8239 8242 
8253 8256 8257 8246 8241 8239 8239 8240 8237 8235 8234 8234 8231 8232 8231 8232 8223 8222 8220 8209 8153 8110 8099 8091 8068 8064 8063 8061 8060 8060 8070 8072 8069 8067 8063 8063 8068 8078 8088 8093 8102 8104 8095 8088 8084 8083 8089 8090 8087 8087 8097 8099 8131 8196 8216 8170 8143 8146 8154 8153 8154 8161 8167 8172 8216 8227 8229 8232 8236 8238 8236 8237 8240 8242 8236 8238 8243 8241 8238 8243 
8254 8252 8254 8244 8239 8238 8236 8239 8238 8239 8237 8235 8231 8232 8229 8229 8221 8216 8198 8156 8117 8106 8095 8076 8060 8065 8063 8065 8062 8068 8076 8075 8069 8067 8065 8068 8070 8075 8084 8086 8089 8078 8078 8084 8080 8082 8085 8086 8088 8091 8092 8102 8115 8190 8211 8192 8145 8147 8156 8162 8161 8168 8167 8180 8221 8224 8227 8230 8233 8235 8236 8238 8242 8239 8238 8239 8242 8240 8238 8239 
8257 8248 8251 8244 8240 8241 8237 8237 8236 8234 8234 8201 8181 8202 8205 8209 8206 8187 8175 8172 8115 8104 8088 8072 8061 8061 8065 8064 8066 8075 8076 8073 8073 8073 8068 8071 8069 8070 8070 8067 8069 8077 8081 8084 8086 8087 8084 8086 8090 8091 8101 8135 8164 8210 8209 8208 8152 8146 8155 8163 8164 8167 8165 8191 8220 8222 8226 8225 8230 8234 8235 8236 8236 8238 8238 8237 8238 8240 8237 8239 
8257 8247 8246 8239 8238 8240 8238 8236 8238 8233 8233 8210 8127 8124 8123 8123 8133 8174 8212 8166 8118 8093 8069 8063 8068 8064 8068 8068 8066 8077 8077 8076 8073 8076 8072 8069 8073 8068 8070 8068 8069 8073 8079 8089 8092 8097 8096 8093 8091 8106 8157 8250 8273 8258 8222 8209 8175 8151 8154 8159 8164 8170 8166 8192 8217 8218 8221 8222 8224 8229 8233 8230 8235 8235 8235 8236 8236 8237 8236 8233 
8248 8248 8246 8240 8239 8237 8237 8239 8237 8236 8236 8224 8143 8116 8112 8118 8146 8209 8215 8169 8163 8139 8088 8071 8072 8075 8088 8089 8074 8076 8078 8077 8074 8076 8073 8074 8075 8067 8070 8074 8080 8083 8080 8083 8085 8088 8097 8121 8146 8193 8232 8258 8274 8280 8242 8212 8199 8151 8147 8156 8161 8171 8174 8192 8212 8215 8217 8221 8223 8227 8229 8226 8229 8232 8230 8232 8234 8232 8230 8229 
8252 8245 8247 8239 8238 8237 8234 8238 8236 8235 8233 8227 8184 8124 8115 8122 8179 8212 8218 8217 8213 8206 8171 8100 8076 8078 8088 8100 8082 8075 8077 8081 8077 8078 8072 8071 8073 8072 8074 8079 8086 8091 8084 8087 8084 8085 8093 8103 8144 8182 8222 8255 8267 8271 8256 8211 8201 8156 8146 8154 8161 8171 8174 8180 8206 8209 8213 8216 8220 8222 8225 8222 8227 8230 8229 8228 8231 8233 8229 8228 
8245 8244 8244 8236 8234 8240 8234 8239 8238 8234 8232 8230 8217 8162 8120 8126 8202 8213 8207 8191 8176 8177 8184 8159 8098 8086 8077 8081 8077 8082 8081 8081 8080 8077 8071 8071 8072 8065 8069 8080 8090 8083 8086 8089 8088 8088 8099 8100 8113 8176 8216 8240 8234 8242 8248 8210 8186 8152 8140 8148 8157 8165 8168 8180 8208 8211 8210 8214 8215 8220 8220 8222 8225 8231 8228 8233 8230 8232 8229 8229 
8244 8243 8241 8237 8235 8236 8234 8236 8237 8238 8232 8231 8224 8199 8131 8141 8211 8207 8146 8113 8109 8107 8102 8101 8096 8063 8063 8064 8063 8081 8076 8076 8078 8074 8067 8063 8071 8070 8082 8092 8095 8090 8083 8084 8082 8088 8100 8105 8105 8170 8194 8200 8191 8184 8160 8127 8112 8112 8133 8146 8153 8162 8178 8194 8209 8209 8211 8213 8214 8218 8220 8223 8224 8228 8230 8230 8232 8230 8228 8226 
8243 8238 8240 8235 8235 8234 8234 8234 8235 8234 8233 8229 8225 8211 8131 8155 8210 8178 8119 8115 8112 8107 8100 8110 8083 8062 8062 8066 8057 8064 8065 8067 8068 8073 8069 8077 8080 8082 8085 8077 8079 8088 8088 8085 8086 8087 8087 8088 8089 8164 8222 8222 8179 8133 8113 8101 8098 8103 8120 8140 8154 8185 8200 8204 8209 8209 8208 8208 8211 8213 8217 8221 8222 8226 8227 8231 8228 8228 8226 8228 
8239 8237 8238 8232 8236 8234 8235 8232 8234 8233 8232 8230 8225 8203 8123 8170 8191 8154 8130 8123 8116 8103 8099 8117 8077 8064 8066 8067 8062 8067 8065 8066 8070 8079 8077 8079 8088 8091 8079 8074 8081 8081 8088 8091 8087 8082 8083 8080 8086 8146 8190 8192 8169 8157 8144 8113 8099 8102 8113 8127 8170 8199 8205 8204 8206 8207 8210 8211 8213 8210 8214 8216 8219 8225 8223 8225 8227 8225 8224 8226 
8235 8234 8234 8233 8234 8236 8234 8234 8233 8233 8232 8230 8225 8207 8127 8166 8184 8136 8133 8124 8117 8104 8093 8094 8074 8063 8067 8067 8071 8078 8069 8071 8081 8085 8080 8087 8091 8091 8095 8086 8083 8087 8094 8101 8103 8087 8082 8086 8086 8146 8178 8177 8174 8163 8160 8136 8107 8104 8110 8121 8168 8201 8206 8207 8207 8209 8208 8212 8212 8209 8214 8215 8217 8221 8219 8226 8224 8226 8222 8223 
8238 8235 8237 8234 8233 8235 8231 8234 8235 8231 8232 8229 8227 8212 8137 8180 8211 8175 8146 8128 8119 8102 8096 8093 8082 8068 8068 8068 8078 8077 8072 8071 8083 8085 8082 8086 8090 8094 8099 8097 8087 8093 8100 8109 8106 8104 8092 8095 8105 8165 8192 8183 8180 8171 8163 8164 8123 8110 8115 8134 8158 8199 8205 8205 8208 8207 8210 8209 8210 8213 8212 8214 8217 8217 8220 8219 8224 8225 8222 8219 
8235 8235 8239 8234 8235 8233 8232 8237 8233 8236 8232 8228 8222 8214 8151 8202 8216 8212 8202 8188 8166 8108 8098 8093 8089 8076 8072 8069 8074 8076 8072 8062 8069 8081 8079 8082 8091 8092 8098 8089 8085 8091 8104 8114 8114 8131 8129 8129 8153 8212 8222 8195 8180 8173 8165 8172 8147 8125 8124 8141 8150 8193 8202 8205 8207 8209 8210 8210 8209 8210 8210 8212 8216 8216 8218 8218 8222 8218 8220 8218 
8236 8235 8238 8234 8236 8233 8233 8235 8236 8232 8233 8230 8226 8221 8191 8203 8220 8216 8215 8210 8188 8111 8100 8094 8091 8089 8076 8077 8069 8073 8071 8062 8062 8073 8071 8068 8073 8077 8088 8087 8082 8089 8106 8118 8117 8149 8172 8193 8227 8248 8236 8197 8175 8168 8170 8174 8179 8144 8144 8146 8156 8196 8206 8205 8208 8208 8211 8209 8208 8211 8213 8212 8212 8214 8214 8213 8213 8215 8207 8207 
8234 8232 8238 8231 8233 8232 8232 8235 8233 8230 8231 8228 8227 8224 8220 8218 8221 8220 8219 8217 8194 8115 8100 8098 8094 8093 8092 8081 8077 8077 8070 8059 8064 8067 8066 8062 8066 8072 8082 8092 8082 8082 8085 8105 8123 8168 8191 8219 8245 8262 8240 8202 8185 8175 8176 8185 8196 8201 8190 8176 8182 8203 8211 8207 8209 8205 8208 8210 8210 8209 8208 8207 8211 8211 8207 8207 8208 8208 8205 8202 
8233 8232 8234 8229 8231 8232 8231 8231 8233 8231 8231 8228 8225 8226 8224 8227 8221 8220 8220 8218 8209 8157 8102 8099 8100 8098 8099 8094 8086 8080 8076 8068 8068 8065 8060 8068 8069 8072 8082 8099 8097 8087 8087 8090 8127 8179 8204 8236 8258 8252 8247 8221 8204 8186 8185 8189 8205 8209 8204 8206 8205 8209 8207 8208 8205 8207 8206 8209 8205 8203 8206 8204 8204 8203 8205 8205 8204 8204 8203 8202 
8231 8228 8232 8230 8232 8234 8229 8231 8233 8231 8231 8228 8227 8227 8227 8227 8224 8222 8222 8218 8215 8195 8118 8103 8101 8103 8104 8110 8097 8096 8081 8069 8070 8067 8062 8088 8088 8089 8094 8113 8105 8085 8091 8088 8116 8196 8222 8255 8265 8263 8259 8254 8235 8205 8192 8197 8208 8209 8211 8209 8207 8205 8206 8206 8207 8205 8205 8206 8202 8199 8199 8199 8201 8199 8200 8204 8208 8205 8201 8202 
8232 8230 8232 8228 8230 8231 8230 8233 8226 8230 8232 8227 8224 8224 8227 8230 8225 8221 8222 8219 8214 8208 8156 8133 8125 8116 8122 8125 8100 8092 8084 8072 8070 8071 8062 8087 8101 8108 8105 8106 8107 8094 8090 8094 8126 8227 8260 8271 8265 8273 8266 8267 8261 8230 8201 8201 8207 8210 8209 8210 8205 8206 8206 8203 8205 8203 8202 8202 8200 8197 8196 8198 8197 8199 8202 8203 8204 8205 8199 8203 
8230 8230 8230 8228 8227 8229 8233 8229 8229 8231 8229 8228 8226 8224 8227 8228 8223 8222 8221 8220 8214 8214 8203 8202 8189 8177 8137 8116 8097 8096 8082 8074 8072 8074 8073 8091 8095 8110 8126 8103 8112 8113 8108 8108 8170 8246 8272 8284 8275 8278 8276 8269 8252 8225 8200 8201 8207 8208 8209 8209 8205 8204 8203 8205 8206 8205 8201 8201 8196 8197 8195 8195 8198 8201 8198 8202 8204 8204 8200 8201 
8226 8223 8228 8224 8228 8228 8228 8230 8230 8229 8226 8227 8224 8224 8225 8225 8221 8218 8220 8218 8216 8213 8207 8207 8199 8200 8171 8125 8110 8099 8087 8078 8078 8077 8088 8098 8093 8092 8128 8108 8117 8122 8122 8128 8182 8255 8289 8295 8275 8271 8289 8276 8239 8209 8197 8201 8201 8208 8205 8205 8202 8206 8203 8202 8202 8200 8201 8199 8199 8198 8197 8197 8199 8197 8198 8200 8203 8201 8201 8200 
8226 8225 8230 8223 8227 8228 8228 8231 8229 8228 8229 8227 8221 8225 8226 8226 8222 8220 8221 8216 8213 8213 8208 8209 8207 8205 8196 8161 8123 8108 8096 8083 8083 8091 8098 8096 8096 8091 8098 8108 8118 8121 8126 8132 8147 8234 8269 8283 8274 8283 8291 8261 8216 8200 8193 8198 8203 8206 8204 8205 8201 8203 8203 8199 8201 8197 8200 8198 8195 8196 8196 8195 8197 8199 8197 8201 8202 8202 8198 8201 
8227 8222 8231 8226 8228 8228 8227 8230 8229 8229 8229 8227 8224 8226 8228 8228 8224 8218 8222 8216 8214 8213 8210 8207 8205 8208 8201 8193 8156 8120 8107 8095 8095 8099 8095 8096 8098 8097 8101 8118 8121 8119 8121 8133 8173 8237 8261 8265 8261 8277 8257 8220 8201 8198 8197 8200 8204 8206 8202 8206 8206 8202 8203 8200 8199 8198 8199 8196 8197 8197 8197 8196 8198 8200 8199 8199 8203 8201 8201 8202 
8225 8223 8231 8224 8230 8229 8226 8231 8230 8227 8227 8228 8225 8226 8225 8230 8226 8221 8220 8217 8216 8214 8210 8211 8206 8207 8203 8201 8195 8159 8132 8119 8117 8109 8101 8103 8105 8103 8108 8119 8130 8126 8122 8133 8178 8245 8265 8266 8262 8245 8216 8201 8198 8200 8199 8202 8206 8208 8206 8207 8207 8205 8201 8199 8201 8198 8198 8200 8197 8200 8201 8197 8201 8201 8202 8202 8202 8205 8205 8201 
8222 8221 8228 8223 8228 8230 8228 8231 8231 8227 8227 8230 8227 8224 8225 8226 8223 8218 8222 8217 8214 8213 8212 8212 8207 8209 8205 8203 8204 8201 8187 8162 8139 8124 8112 8110 8113 8107 8117 8124 8128 8133 8123 8137 8217 8249 8269 8261 8234 8206 8200 8205 8206 8203 8204 8208 8210 8211 8207 8210 8206 8206 8203 8199 8201 8199 8198 8197 8199 8201 8202 8201 8203 8201 8204 8204 8207 8208 8206 8204 
8227 8223 8226 8224 8227 8228 8229 8229 8229 8228 8227 8226 8223 8226 8222 8225 8222 8217 8222 8217 8216 8219 8213 8214 8209 8213 8214 8210 8208 8212 8209 8198 8177 8159 8136 8132 8134 8118 8127 8131 8135 8133 8130 8139 8217 8234 8231 8214 8202 8201 8209 8209 8207 8211 8211 8214 8216 8215 8212 8211 8211 8207 8204 8199 8204 8202 8203 8200 8201 8203 8203 8208 8209 8204 8204 8207 8211 8208 8205 8206 
8227 8225 8226 8221 8227 8229 8227 8229 8228 8227 8229 8229 8224 8223 8224 8227 8221 8219 8223 8220 8221 8217 8218 8218 8212 8214 8213 8218 8217 8220 8219 8213 8208 8196 8175 8168 8160 8126 8133 8135 8134 8132 8127 8132 8157 8190 8201 8209 8213 8215 8216 8220 8217 8219 8219 8220 8222 8222 8219 8214 8213 8210 8207 8201 8204 8202 8201 8204 8204 8203 8204 8204 8209 8205 8207 8207 8212 8211 8207 8202 
8225 8227 8228 8223 8226 8227 8226 8228 8226 8226 8227 8226 8224 8221 8223 8223 8221 8218 8224 8219 8220 8218 8215 8216 8217 8217 8217 8223 8222 8221 8223 8220 8217 8215 8209 8202 8190 8141 8134 8134 8136 8133 8129 8142 8136 8179 8217 8222 8223 8223 8221 8227 8225 8226 8224 8224 8228 8224 8222 8220 8218 8210 8206 8203 8203 8202 8202 8204 8204 8205 8206 8209 8209 8207 8207 8207 8210 8206 8204 8204 
8228 8227 8230 8224 8231 8227 8226 8230 8227 8225 8224 8227 8222 8223 8218 8221 8218 8217 8223 8219 8222 8217 8215 8218 8214 8216 8215 8222 8223 8225 8221 8221 8218 8220 8213 8211 8208 8168 8139 8133 8137 8132 8132 8137 8144 8151 8217 8226 8228 8227 8229 8235 8229 8229 8223 8227 8227 8227 8222 8219 8219 8213 8207 8204 8205 8204 8202 8206 8203 8201 8207 8207 8206 8208 8207 8207 8208 8206 8201 8201 
8228 8228 8233 8226 8228 8227 8227 8225 8227 8227 8226 8227 8222 8224 8221 8221 8216 8214 8223 8220 8218 8219 8214 8215 8213 8218 8214 8219 8223 8224 8221 8217 8215 8222 8220 8218 8219 8198 8145 8140 8144 8135 8134 8139 8151 8166 8221 8231 8230 8231 8231 8237 8232 8232 8226 8228 8230 8227 8225 8221 8217 8212 8207 8205 8205 8205 8206 8203 8205 8207 8210 8205 8205 8208 8204 8206 8206 8207 8204 8201 
8231 8226 8233 8227 8229 8228 8225 8225 8226 8225 8224 8224 8221 8223 8219 8222 8216 8215 8220 8218 8221 8214 8215 8215 8216 8217 8220 8218 8220 8222 8220 8214 8217 8222 8223 8225 8229 8223 8211 8202 8204 8176 8140 8161 8190 8198 8229 8235 8234 8235 8232 8233 8232 8232 8230 8231 8229 8228 8223 8224 8216 8215 8204 8201 8205 8202 8202 8206 8208 8207 8206 8206 8207 8206 8206 8204 8206 8204 8199 8200 
8235 8231 8234 8230 8227 8227 8225 8228 8229 8223 8224 8224 8222 8220 8223 8219 8216 8213 8216 8216 8214 8214 8215 8215 8212 8216 8219 8219 8216 8217 8216 8215 8219 8225 8226 8230 8234 8230 8231 8225 8224 8216 8198 8213 8224 8226 8235 8237 8233 8232 8233 8233 8230 8231 8233 8230 8229 8229 8224 8221 8216 8212 8206 8205 8204 8203 8202 8204 8205 8206 8207 8204 8204 8208 8202 8203 8202 8203 8198 8203 
8240 8224 8233 8228 8228 8227 8228 8231 8230 8228 8225 8221 8220 8224 8221 8221 8215 8212 8214 8213 8202 8215 8213 8213 8209 8216 8217 8221 8218 8216 8217 8215 8218 8224 8228 8232 8231 8230 8231 8227 8225 8220 8221 8223 8229 8229 8236 8239 8236 8233 8233 8232 8228 8231 8231 8231 8226 8229 8224 8220 8214 8211 8208 8201 8202 8205 8199 8206 8205 8204 8209 8207 8207 8206 8203 8204 8204 8200 8204 8201 


