P2
80 60
8229
8173 8173 8179 8179 8185 8185 8190 8182 8187 8186 8190 8190 8190 8189 8192 8190 8193 8192 8195 8196 8198 8196 8198 8195 8195 8197 8200 8202 8200 8202 8201 8206 8207 8209 8211 8216 8214 8213 8215 8220 8216 8220 8220 8222 8220 8218 8221 8218 8220 8219 8220 8218 8216 8219 8217 8217 8212 8210 8209 8210 8205 8204 8205 8205 8202 8201 8202 8202 8199 8201 8196 8202 8206 8201 8204 8202 8202 8201 8194 8196 
8175 8180 8178 8178 8183 8186 8189 8189 8191 8190 8188 8191 8192 8194 8190 8193 8195 8197 8196 8196 8198 8196 8201 8197 8197 8197 8198 8203 8199 8201 8203 8208 8208 8211 8208 8215 8214 8216 8216 8219 8217 8219 8216 8220 8218 8218 8220 8221 8219 8221 8217 8220 8215 8217 8217 8215 8213 8211 8212 8207 8208 8207 8208 8203 8203 8202 8200 8201 8202 8201 8202 8206 8206 8206 8205 8199 8203 8198 8199 8196 
8171 8178 8179 8181 8187 8189 8190 8187 8188 8191 8190 8191 8191 8193 8197 8194 8195 8197 8196 8194 8198 8197 8201 8199 8198 8200 8200 8202 8201 8202 8203 8210 8209 8209 8212 8212 8211 8212 8220 8222 8219 8220 8219 8221 8220 8220 8220 8217 8221 8221 8219 8221 8218 8217 8214 8216 8215 8212 8211 8209 8206 8207 8206 8204 8203 8204 8202 8205 8200 8204 8204 8205 8207 8202 8205 8203 8205 8198 8200 8193 
8171 8181 8181 8181 8185 8187 8187 8189 8189 8191 8191 8193 8190 8192 8192 8198 8199 8198 8195 8198 8199 8200 8198 8198 8198 8201 8199 8200 8202 8203 8207 8208 8207 8207 8209 8212 8215 8215 8219 8220 8222 8221 8219 8224 8218 8221 8225 8221 8218 8220 8217 8217 8216 8217 8215 8216 8218 8213 8214 8211 8208 8210 8208 8207 8208 8205 8206 8204 8204 8206 8205 8208 8208 8204 8205 8203 8203 8199 8198 8203 
8176 8179 8179 8184 8183 8188 8190 8189 8190 8190 8189 8188 8186 8193 8192 8196 8195 8195 8200 8200 8204 8200 8198 8198 8200 8198 8198 8202 8200 8205 8205 8208 8206 8210 8211 8211 8215 8218 8219 8221 8222 8221 8218 8224 8221 8219 8220 8220 8220 8222 8218 8218 8219 8216 8214 8216 8213 8216 8214 8210 8209 8210 8208 8211 8207 8208 8208 8205 8205 8206 8206 8210 8208 8202 8206 8204 8203 8200 8200 8197 
8175 8182 8182 8182 8186 8186 8192 8188 8187 8187 8191 8186 8187 8191 8193 8194 8193 8195 8200 8201 8206 8198 8200 8201 8199 8197 8201 8200 8201 8207 8205 8206 8208 8209 8211 8212 8215 8220 8220 8220 8222 8222 8218 8221 8222 8221 8223 8219 8220 8219 8218 8218 8220 8216 8214 8217 8212 8214 8214 8214 8212 8213 8209 8212 8210 8207 8209 8208 8209 8203 8206 8209 8205 8206 8202 8204 8206 8202 8202 8201 
8177 8183 8185 8182 8186 8190 8189 8188 8190 8188 8188 8187 8185 8188 8190 8193 8194 8195 8197 8198 8199 8198 8199 8200 8200 8197 8199 8200 8202 8204 8204 8209 8207 8208 8208 8216 8215 8220 8219 8220 8221 8223 8219 8224 8223 8220 8221 8216 8218 8221 8217 8218 8220 8217 8215 8217 8214 8212 8216 8213 8210 8212 8212 8209 8209 8207 8209 8208 8209 8206 8207 8207 8208 8204 8204 8205 8203 8202 8199 8203 
8180 8185 8186 8186 8192 8193 8191 8188 8189 8188 8189 8187 8188 8190 8192 8193 8193 8194 8196 8199 8197 8199 8202 8198 8199 8198 8199 8201 8200 8202 8204 8208 8207 8210 8212 8214 8216 8217 8221 8223 8219 8219 8218 8224 8221 8221 8223 8218 8219 8222 8217 8215 8218 8219 8216 8215 8216 8213 8214 8210 8210 8212 8213 8210 8212 8209 8207 8209 8211 8208 8208 8210 8207 8205 8208 8207 8206 8202 8202 8201 
8182 8187 8186 8188 8192 8193 8194 8193 8188 8190 8188 8189 8187 8188 8193 8193 8196 8195 8198 8194 8201 8199 8198 8197 8199 8199 8198 8200 8202 8204 8206 8206 8207 8209 8212 8214 8215 8218 8218 8218 8218 8217 8219 8221 8224 8220 8220 8219 8218 8220 8219 8218 8216 8218 8209 8211 8217 8213 8214 8211 8212 8212 8211 8210 8210 8212 8208 8207 8210 8209 8209 8210 8210 8207 8208 8209 8206 8204 8203 8204 
8179 8189 8188 8193 8195 8194 8192 8192 8189 8190 8187 8189 8190 8191 8191 8192 8195 8195 8196 8196 8196 8196 8196 8197 8199 8197 8199 8202 8200 8204 8205 8207 8206 8210 8213 8215 8214 8214 8215 8216 8217 8217 8218 8220 8220 8219 8221 8219 8218 8217 8216 8217 8215 8205 8188 8191 8206 8210 8212 8210 8210 8212 8211 8210 8211 8211 8209 8209 8209 8210 8208 8210 8211 8205 8207 8209 8208 8204 8203 8204 
8183 8189 8193 8191 8192 8194 8191 8190 8191 8191 8192 8191 8188 8190 8193 8194 8191 8194 8195 8199 8198 8198 8199 8196 8201 8199 8200 8201 8202 8204 8206 8211 8209 8212 8212 8212 8215 8213 8215 8217 8215 8216 8212 8217 8213 8222 8219 8217 8218 8215 8218 8211 8200 8188 8179 8178 8180 8189 8198 8206 8208 8211 8210 8208 8214 8208 8209 8210 8207 8207 8210 8212 8210 8209 8208 8210 8210 8203 8204 8203 
8184 8192 8191 8195 8195 8197 8191 8188 8190 8192 8190 8191 8190 8191 8193 8193 8196 8195 8196 8194 8197 8195 8197 8197 8198 8195 8198 8201 8201 8204 8209 8210 8208 8212 8210 8212 8212 8212 8215 8214 8216 8215 8195 8192 8204 8216 8219 8217 8217 8215 8202 8186 8177 8176 8176 8176 8176 8176 8180 8188 8203 8210 8210 8209 8213 8215 8209 8208 8208 8207 8210 8213 8209 8209 8209 8209 8209 8205 8210 8200 
8187 8191 8189 8192 8197 8198 8195 8191 8194 8193 8193 8193 8191 8193 8195 8194 8197 8195 8199 8196 8199 8195 8198 8199 8198 8197 8201 8203 8205 8208 8208 8214 8213 8210 8213 8215 8214 8215 8218 8215 8214 8209 8181 8176 8179 8204 8215 8216 8216 8192 8180 8176 8175 8177 8181 8183 8178 8173 8183 8192 8203 8208 8210 8207 8211 8210 8212 8211 8206 8208 8211 8211 8211 8212 8208 8213 8210 8208 8210 8205 
8189 8196 8192 8193 8197 8198 8197 8192 8189 8193 8192 8195 8193 8193 8198 8196 8196 8195 8200 8197 8199 8195 8199 8198 8198 8199 8202 8206 8205 8208 8210 8211 8214 8209 8212 8215 8214 8215 8217 8219 8216 8204 8176 8180 8178 8182 8202 8215 8210 8183 8179 8177 8176 8189 8195 8184 8174 8174 8175 8177 8181 8192 8206 8210 8211 8211 8212 8211 8208 8208 8210 8212 8210 8208 8211 8209 8206 8205 8207 8199 
8189 8195 8192 8195 8197 8198 8194 8195 8192 8194 8196 8194 8195 8194 8197 8198 8196 8198 8198 8197 8199 8199 8199 8197 8201 8198 8203 8205 8201 8207 8208 8212 8214 8211 8212 8212 8214 8213 8214 8217 8213 8198 8174 8174 8172 8175 8184 8207 8199 8184 8174 8174 8181 8192 8182 8180 8173 8172 8173 8174 8173 8175 8190 8203 8211 8208 8212 8211 8206 8206 8208 8208 8211 8211 8208 8208 8209 8204 8200 8198 
8191 8193 8194 8196 8197 8196 8198 8193 8194 8195 8195 8198 8197 8196 8199 8199 8197 8197 8202 8197 8200 8198 8199 8198 8196 8199 8203 8204 8201 8210 8210 8212 8214 8211 8213 8213 8211 8213 8211 8213 8211 8202 8177 8175 8177 8178 8186 8185 8172 8171 8171 8193 8206 8196 8176 8173 8172 8171 8176 8173 8173 8176 8180 8191 8211 8209 8208 8208 8205 8208 8207 8208 8211 8208 8207 8212 8204 8206 8200 8194 
8188 8192 8195 8196 8197 8196 8197 8194 8197 8197 8198 8197 8197 8196 8198 8198 8199 8200 8197 8198 8201 8197 8197 8199 8203 8198 8202 8205 8207 8208 8210 8212 8213 8212 8213 8214 8214 8213 8206 8185 8181 8184 8175 8180 8176 8182 8182 8174 8169 8173 8171 8192 8207 8188 8183 8173 8174 8172 8173 8174 8177 8178 8186 8203 8208 8208 8207 8208 8208 8210 8205 8209 8214 8210 8210 8208 8205 8204 8204 8201 
8190 8192 8193 8197 8198 8197 8198 8194 8197 8199 8200 8202 8198 8202 8197 8198 8198 8200 8198 8202 8201 8198 8199 8200 8199 8200 8201 8207 8206 8207 8211 8214 8212 8215 8212 8213 8213 8210 8199 8175 8174 8178 8178 8193 8179 8177 8177 8172 8170 8171 8173 8198 8195 8171 8171 8172 8191 8184 8178 8181 8194 8200 8206 8208 8207 8206 8206 8205 8206 8208 8209 8207 8209 8208 8208 8208 8205 8206 8202 8198 
8190 8195 8190 8197 8197 8199 8200 8196 8198 8201 8200 8201 8200 8201 8199 8200 8201 8201 8200 8203 8199 8199 8198 8198 8199 8199 8203 8204 8206 8207 8215 8212 8212 8216 8212 8213 8211 8212 8206 8180 8172 8176 8176 8187 8177 8176 8176 8170 8172 8174 8190 8189 8170 8170 8166 8171 8188 8196 8200 8195 8204 8202 8207 8207 8207 8208 8206 8204 8207 8208 8210 8208 8209 8205 8206 8207 8205 8204 8201 8200 
8190 8196 8196 8196 8197 8199 8198 8197 8196 8200 8203 8200 8201 8205 8200 8201 8199 8200 8203 8201 8203 8198 8199 8201 8199 8199 8203 8207 8207 8210 8210 8214 8212 8216 8214 8213 8213 8210 8211 8203 8188 8183 8189 8184 8180 8180 8182 8177 8178 8177 8181 8170 8166 8170 8167 8166 8168 8173 8185 8178 8179 8178 8181 8190 8203 8205 8208 8207 8208 8209 8210 8209 8209 8209 8209 8208 8205 8203 8202 8200 
8190 8195 8197 8197 8200 8200 8199 8199 8200 8201 8202 8202 8199 8201 8199 8200 8202 8199 8201 8201 8203 8202 8203 8201 8202 8202 8201 8207 8205 8209 8213 8211 8215 8214 8213 8212 8212 8199 8192 8180 8178 8180 8194 8188 8192 8197 8216 8220 8213 8207 8176 8169 8168 8169 8169 8166 8170 8168 8168 8169 8165 8167 8168 8174 8201 8206 8207 8208 8208 8209 8210 8209 8207 8206 8208 8208 8207 8208 8203 8202 
8190 8195 8198 8199 8201 8199 8202 8199 8200 8199 8205 8201 8201 8201 8202 8201 8198 8201 8199 8201 8204 8201 8201 8201 8202 8202 8206 8205 8208 8210 8212 8212 8215 8210 8206 8201 8189 8179 8175 8175 8174 8171 8194 8185 8177 8176 8191 8212 8206 8187 8171 8164 8165 8169 8168 8169 8169 8167 8168 8169 8165 8166 8168 8184 8203 8208 8206 8208 8208 8210 8208 8209 8209 8210 8209 8209 8209 8211 8203 8202 
8193 8197 8198 8198 8201 8205 8201 8198 8200 8200 8201 8201 8198 8202 8202 8199 8201 8202 8200 8202 8204 8201 8199 8203 8202 8202 8205 8206 8207 8211 8212 8210 8208 8201 8178 8176 8174 8173 8170 8171 8172 8170 8177 8179 8173 8171 8172 8172 8169 8168 8169 8163 8167 8168 8170 8168 8167 8167 8170 8169 8167 8166 8168 8193 8205 8207 8207 8209 8211 8210 8208 8209 8210 8208 8211 8210 8208 8207 8201 8200 
8189 8201 8199 8199 8208 8201 8200 8199 8201 8199 8200 8201 8202 8205 8202 8201 8203 8203 8201 8202 8204 8202 8203 8202 8205 8201 8205 8206 8208 8209 8208 8188 8179 8174 8175 8175 8172 8170 8173 8170 8168 8168 8171 8172 8172 8172 8173 8169 8167 8170 8169 8167 8166 8169 8167 8169 8171 8168 8167 8168 8164 8166 8169 8178 8180 8201 8206 8206 8209 8209 8207 8206 8209 8212 8208 8211 8208 8207 8203 8200 
8192 8202 8201 8204 8203 8204 8201 8199 8201 8199 8201 8201 8204 8204 8202 8203 8204 8204 8204 8203 8205 8201 8204 8203 8204 8202 8206 8210 8210 8209 8209 8188 8175 8171 8173 8174 8175 8172 8172 8171 8172 8169 8171 8173 8170 8169 8170 8167 8167 8168 8170 8167 8168 8173 8169 8169 8170 8168 8170 8165 8165 8168 8163 8167 8168 8184 8198 8206 8209 8209 8210 8207 8210 8210 8207 8208 8206 8210 8202 8203 
8194 8202 8203 8204 8201 8203 8202 8199 8201 8199 8203 8202 8203 8201 8205 8204 8203 8202 8202 8203 8205 8202 8203 8202 8203 8204 8207 8206 8210 8211 8203 8183 8174 8173 8174 8173 8171 8171 8170 8172 8169 8168 8168 8170 8174 8172 8172 8169 8169 8169 8170 8168 8175 8202 8187 8177 8173 8169 8168 8167 8166 8166 8165 8166 8167 8167 8175 8195 8207 8209 8206 8208 8210 8206 8206 8207 8209 8205 8205 8202 
8195 8202 8203 8203 8209 8203 8203 8202 8200 8201 8204 8203 8202 8202 8202 8203 8207 8203 8202 8204 8206 8201 8203 8202 8203 8203 8207 8210 8208 8206 8189 8174 8176 8173 8174 8165 8167 8169 8172 8170 8168 8168 8167 8172 8173 8172 8168 8170 8170 8171 8169 8169 8173 8178 8179 8176 8173 8168 8171 8170 8165 8166 8167 8168 8168 8170 8173 8191 8206 8210 8210 8209 8214 8212 8210 8211 8207 8206 8205 8211 
8195 8204 8203 8203 8204 8203 8201 8200 8201 8202 8203 8203 8205 8205 8204 8205 8208 8205 8205 8206 8208 8204 8205 8206 8203 8204 8208 8212 8207 8190 8180 8180 8173 8172 8170 8169 8168 8168 8169 8170 8170 8171 8169 8173 8172 8173 8172 8171 8170 8170 8168 8169 8171 8175 8177 8173 8169 8168 8169 8167 8165 8167 8167 8167 8165 8169 8176 8199 8207 8210 8209 8211 8208 8209 8211 8210 8210 8206 8206 8206 
8197 8201 8200 8202 8204 8202 8205 8204 8203 8206 8204 8200 8205 8203 8205 8205 8206 8205 8206 8206 8206 8205 8204 8204 8203 8202 8204 8208 8194 8181 8182 8175 8171 8169 8167 8166 8167 8169 8171 8173 8172 8173 8173 8173 8172 8171 8172 8172 8172 8171 8169 8168 8169 8172 8170 8167 8168 8171 8171 8169 8169 8168 8169 8170 8167 8176 8194 8204 8208 8205 8209 8210 8210 8209 8213 8211 8211 8206 8206 8208 
8195 8203 8204 8203 8203 8207 8203 8205 8201 8201 8204 8204 8206 8209 8206 8204 8210 8205 8205 8205 8206 8205 8206 8206 8202 8207 8207 8203 8184 8182 8183 8178 8172 8169 8167 8169 8166 8170 8171 8171 8175 8176 8174 8176 8174 8172 8172 8173 8172 8173 8169 8167 8169 8170 8168 8169 8168 8166 8171 8167 8171 8170 8173 8171 8171 8189 8196 8202 8205 8208 8208 8210 8212 8212 8213 8209 8211 8207 8206 8205 
8198 8203 8206 8204 8209 8204 8205 8205 8200 8204 8208 8206 8201 8206 8205 8207 8209 8209 8205 8208 8206 8204 8206 8206 8204 8205 8207 8193 8177 8179 8182 8179 8170 8165 8168 8169 8169 8171 8171 8173 8172 8170 8173 8174 8174 8174 8172 8172 8171 8173 8169 8169 8171 8171 8168 8167 8168 8167 8168 8166 8168 8169 8174 8178 8174 8180 8181 8185 8201 8206 8205 8209 8211 8211 8211 8211 8214 8210 8207 8204 
8201 8203 8208 8204 8205 8206 8206 8209 8206 8206 8203 8206 8206 8205 8209 8211 8208 8207 8205 8208 8212 8206 8209 8207 8207 8205 8207 8186 8178 8179 8181 8176 8170 8168 8170 8170 8172 8170 8173 8178 8172 8173 8172 8173 8174 8173 8170 8171 8174 8172 8171 8169 8172 8171 8171 8169 8170 8169 8169 8165 8166 8167 8171 8175 8177 8181 8186 8198 8206 8207 8208 8209 8210 8210 8211 8209 8212 8213 8208 8204 
8200 8206 8209 8206 8205 8209 8207 8206 8207 8210 8206 8207 8204 8206 8207 8209 8209 8206 8210 8209 8212 8208 8209 8205 8207 8207 8200 8181 8178 8182 8179 8173 8169 8170 8174 8176 8176 8173 8174 8177 8169 8169 8173 8176 8173 8174 8171 8172 8174 8174 8172 8172 8172 8171 8172 8173 8175 8171 8167 8167 8167 8168 8166 8177 8185 8197 8204 8204 8207 8210 8208 8210 8209 8213 8212 8212 8214 8213 8210 8205 
8200 8212 8209 8206 8206 8211 8208 8207 8206 8209 8210 8205 8206 8206 8208 8208 8209 8210 8207 8210 8208 8210 8208 8207 8208 8206 8191 8179 8177 8181 8175 8173 8172 8174 8175 8175 8171 8171 8174 8177 8169 8166 8168 8175 8171 8171 8172 8176 8175 8175 8171 8171 8171 8169 8175 8178 8178 8175 8172 8172 8169 8168 8168 8185 8203 8202 8208 8205 8208 8205 8209 8210 8208 8214 8213 8216 8213 8212 8207 8209 
8202 8207 8211 8208 8213 8212 8207 8207 8208 8209 8209 8208 8209 8209 8206 8208 8205 8208 8209 8208 8208 8207 8207 8206 8205 8204 8189 8179 8180 8178 8173 8171 8170 8176 8178 8174 8172 8174 8172 8176 8170 8167 8169 8172 8172 8171 8171 8174 8175 8176 8173 8172 8168 8174 8177 8175 8177 8179 8178 8179 8174 8176 8173 8194 8207 8206 8205 8207 8206 8205 8206 8210 8209 8212 8212 8212 8213 8213 8209 8207 
8204 8211 8210 8211 8212 8212 8210 8207 8208 8209 8209 8208 8207 8209 8207 8209 8206 8207 8209 8206 8209 8206 8209 8204 8204 8206 8185 8175 8182 8175 8174 8173 8175 8177 8177 8175 8170 8171 8172 8172 8172 8169 8171 8173 8170 8170 8173 8172 8175 8174 8173 8170 8170 8174 8176 8176 8176 8173 8179 8184 8187 8199 8203 8202 8208 8208 8208 8207 8209 8205 8210 8207 8208 8211 8208 8213 8213 8212 8207 8208 
8204 8211 8211 8212 8212 8211 8210 8211 8208 8211 8207 8206 8207 8204 8204 8207 8203 8208 8207 8209 8212 8205 8209 8204 8204 8202 8183 8179 8179 8172 8174 8175 8175 8172 8175 8173 8171 8170 8170 8168 8171 8169 8172 8177 8171 8173 8170 8170 8174 8177 8177 8171 8172 8179 8179 8177 8175 8180 8185 8197 8191 8208 8206 8208 8208 8206 8205 8209 8208 8208 8209 8209 8208 8211 8211 8212 8214 8212 8207 8205 
8206 8213 8212 8213 8213 8209 8213 8212 8210 8209 8213 8207 8210 8209 8204 8206 8204 8205 8208 8206 8208 8205 8209 8203 8206 8205 8184 8177 8177 8176 8175 8176 8177 8175 8177 8170 8167 8172 8166 8168 8170 8172 8168 8174 8172 8176 8172 8173 8177 8176 8176 8173 8172 8176 8180 8176 8176 8184 8186 8192 8190 8207 8209 8209 8208 8206 8207 8209 8206 8206 8209 8210 8211 8212 8211 8213 8210 8209 8212 8207 
8208 8215 8213 8214 8211 8213 8210 8211 8211 8211 8209 8207 8207 8206 8206 8207 8203 8209 8208 8207 8209 8207 8206 8206 8207 8202 8185 8177 8180 8173 8175 8173 8177 8174 8172 8170 8169 8172 8166 8168 8169 8172 8170 8173 8172 8174 8173 8174 8176 8174 8175 8174 8176 8178 8179 8173 8177 8177 8188 8187 8194 8208 8211 8211 8210 8209 8208 8206 8205 8204 8208 8212 8207 8209 8212 8213 8212 8215 8208 8208 
8209 8214 8211 8212 8212 8212 8211 8209 8208 8208 8205 8206 8210 8203 8207 8209 8204 8206 8205 8207 8206 8205 8209 8206 8205 8203 8188 8178 8181 8177 8177 8175 8175 8171 8170 8171 8168 8167 8168 8168 8168 8170 8168 8171 8171 8174 8172 8169 8172 8174 8177 8173 8175 8177 8174 8172 8173 8179 8188 8188 8197 8209 8211 8210 8207 8210 8209 8208 8206 8208 8206 8209 8209 8211 8213 8211 8210 8209 8207 8206 
8208 8213 8211 8212 8213 8214 8210 8209 8209 8206 8209 8208 8205 8207 8208 8205 8206 8208 8208 8208 8207 8205 8209 8208 8207 8204 8193 8178 8180 8178 8175 8174 8173 8169 8169 8172 8170 8170 8169 8170 8168 8169 8170 8171 8174 8170 8174 8171 8170 8173 8173 8172 8175 8174 8172 8173 8175 8180 8189 8193 8205 8209 8215 8210 8207 8207 8207 8206 8206 8208 8208 8208 8210 8209 8211 8212 8213 8208 8209 8205 
8210 8213 8211 8210 8213 8210 8213 8207 8208 8205 8209 8205 8207 8205 8206 8208 8206 8209 8207 8209 8212 8208 8208 8207 8206 8208 8197 8180 8181 8181 8175 8172 8175 8170 8174 8169 8166 8170 8171 8173 8171 8171 8170 8173 8172 8171 8171 8172 8175 8172 8175 8173 8173 8168 8172 8169 8175 8184 8191 8211 8215 8212 8213 8211 8212 8209 8205 8208 8206 8208 8208 8210 8210 8211 8212 8213 8210 8212 8208 8211 
8208 8212 8211 8210 8210 8209 8208 8206 8206 8207 8203 8207 8204 8208 8206 8207 8206 8206 8204 8209 8208 8208 8208 8209 8209 8206 8204 8185 8181 8184 8176 8174 8174 8170 8176 8172 8167 8169 8171 8170 8170 8175 8173 8173 8175 8172 8173 8173 8175 8173 8173 8175 8176 8175 8169 8171 8180 8189 8199 8223 8211 8214 8214 8210 8208 8209 8207 8210 8208 8209 8208 8213 8211 8215 8212 8214 8212 8210 8210 8209 
8207 8213 8209 8212 8212 8212 8208 8208 8207 8208 8208 8206 8207 8208 8208 8211 8210 8208 8210 8210 8211 8208 8210 8207 8205 8206 8206 8192 8181 8185 8179 8176 8175 8172 8173 8173 8171 8172 8174 8172 8174 8172 8170 8176 8172 8173 8172 8173 8174 8173 8174 8172 8178 8176 8172 8174 8183 8197 8217 8219 8212 8215 8212 8211 8211 8210 8210 8209 8212 8209 8210 8214 8212 8211 8211 8213 8212 8213 8208 8204 
8205 8212 8212 8210 8211 8208 8210 8208 8209 8209 8209 8208 8205 8209 8210 8206 8205 8208 8208 8210 8209 8208 8207 8207 8207 8207 8209 8205 8185 8183 8183 8179 8173 8175 8175 8175 8173 8176 8175 8173 8170 8172 8172 8175 8175 8175 8173 8172 8174 8174 8174 8172 8177 8179 8174 8180 8195 8206 8217 8216 8212 8215 8214 8212 8211 8209 8210 8208 8212 8212 8212 8212 8213 8216 8213 8217 8216 8213 8207 8206 
8206 8214 8212 8209 8213 8212 8214 8210 8210 8209 8210 8208 8207 8209 8208 8209 8209 8208 8210 8210 8208 8207 8212 8206 8207 8207 8207 8208 8202 8188 8185 8184 8175 8174 8176 8173 8176 8178 8177 8175 8171 8171 8172 8176 8175 8175 8174 8172 8176 8176 8176 8176 8176 8181 8180 8196 8210 8202 8210 8214 8214 8213 8215 8215 8212 8212 8209 8210 8211 8209 8212 8217 8215 8217 8214 8221 8214 8214 8212 8206 
8206 8215 8213 8210 8211 8210 8212 8208 8209 8209 8211 8210 8208 8209 8209 8208 8209 8208 8209 8209 8210 8208 8208 8208 8206 8208 8210 8209 8209 8196 8188 8190 8179 8177 8177 8180 8176 8179 8178 8173 8171 8172 8172 8175 8174 8174 8171 8175 8173 8178 8173 8177 8176 8180 8195 8218 8215 8200 8213 8217 8215 8218 8215 8212 8209 8211 8211 8209 8210 8212 8214 8214 8218 8216 8215 8218 8218 8214 8208 8210 
8208 8215 8210 8212 8213 8209 8213 8210 8213 8210 8212 8210 8208 8207 8211 8212 8209 8212 8210 8208 8209 8208 8209 8207 8207 8208 8210 8213 8210 8208 8195 8186 8190 8179 8181 8183 8183 8180 8177 8176 8175 8175 8177 8176 8173 8174 8174 8174 8175 8176 8177 8178 8180 8193 8213 8218 8202 8206 8217 8217 8216 8214 8217 8212 8213 8212 8210 8211 8211 8210 8213 8218 8218 8216 8219 8221 8219 8215 8210 8206 
8208 8214 8211 8211 8214 8215 8210 8210 8213 8209 8208 8207 8207 8211 8210 8210 8209 8209 8210 8209 8211 8210 8210 8208 8211 8209 8212 8212 8211 8214 8205 8192 8186 8188 8184 8184 8181 8177 8179 8178 8178 8180 8176 8175 8174 8178 8176 8177 8178 8176 8175 8179 8188 8201 8208 8201 8202 8214 8217 8217 8219 8216 8215 8212 8211 8211 8214 8212 8212 8210 8213 8214 8218 8219 8220 8220 8214 8216 8209 8208 
8208 8213 8211 8209 8214 8213 8212 8211 8211 8212 8211 8211 8208 8208 8212 8209 8206 8211 8209 8209 8209 8211 8208 8211 8208 8210 8211 8214 8214 8215 8212 8200 8193 8187 8186 8184 8179 8181 8182 8180 8178 8179 8179 8182 8175 8176 8178 8177 8178 8174 8179 8184 8195 8200 8199 8202 8211 8217 8217 8216 8219 8218 8217 8214 8210 8211 8209 8211 8211 8213 8213 8219 8218 8219 8217 8219 8215 8215 8210 8210 
8207 8215 8212 8212 8211 8210 8211 8211 8211 8211 8210 8209 8208 8212 8211 8213 8209 8209 8212 8210 8210 8209 8210 8209 8212 8207 8212 8214 8212 8217 8216 8213 8196 8189 8184 8189 8189 8190 8188 8187 8183 8184 8184 8187 8182 8184 8181 8183 8180 8184 8187 8193 8192 8198 8199 8209 8222 8220 8218 8218 8217 8218 8217 8214 8211 8212 8210 8214 8213 8213 8214 8218 8216 8217 8218 8218 8214 8211 8210 8205 
8203 8211 8213 8215 8216 8215 8211 8208 8211 8209 8209 8213 8212 8208 8210 8210 8210 8210 8213 8211 8210 8207 8211 8207 8210 8211 8215 8214 8212 8215 8218 8215 8208 8199 8193 8192 8192 8196 8199 8200 8199 8199 8195 8196 8187 8188 8190 8190 8194 8194 8194 8197 8200 8201 8211 8219 8220 8219 8221 8218 8219 8219 8218 8213 8214 8214 8213 8216 8212 8214 8215 8217 8218 8214 8219 8219 8217 8215 8209 8206 
8208 8213 8211 8211 8214 8212 8213 8212 8208 8213 8212 8211 8212 8212 8212 8212 8212 8210 8211 8209 8212 8209 8209 8206 8209 8209 8211 8213 8215 8215 8218 8218 8215 8210 8201 8196 8194 8195 8198 8202 8212 8222 8223 8218 8213 8199 8199 8198 8202 8208 8201 8202 8205 8207 8220 8226 8224 8223 8218 8221 8219 8219 8217 8218 8216 8213 8213 8215 8210 8214 8216 8219 8219 8215 8215 8221 8219 8212 8210 8205 
8206 8214 8211 8212 8211 8213 8213 8210 8207 8211 8215 8213 8211 8205 8211 8213 8209 8210 8210 8209 8212 8208 8207 8210 8208 8209 8209 8212 8213 8215 8217 8217 8217 8217 8212 8201 8197 8195 8197 8198 8207 8213 8219 8221 8220 8217 8215 8212 8210 8203 8202 8204 8212 8222 8222 8224 8225 8221 8221 8221 8221 8218 8221 8217 8216 8217 8214 8212 8213 8213 8220 8219 8219 8217 8218 8218 8215 8212 8211 8207 
8208 8210 8209 8213 8214 8215 8212 8209 8208 8212 8212 8210 8210 8211 8211 8211 8210 8210 8212 8210 8210 8209 8210 8210 8210 8211 8210 8212 8212 8220 8217 8219 8218 8217 8218 8212 8208 8204 8200 8197 8201 8203 8204 8207 8203 8207 8209 8206 8205 8209 8210 8219 8222 8227 8224 8223 8222 8219 8219 8219 8220 8221 8218 8219 8218 8218 8211 8217 8213 8213 8221 8220 8214 8214 8216 8215 8213 8213 8208 8206 
8209 8213 8209 8210 8211 8213 8215 8210 8206 8207 8210 8213 8208 8209 8211 8210 8210 8207 8210 8209 8208 8206 8211 8203 8208 8209 8211 8212 8212 8217 8217 8219 8216 8217 8217 8220 8218 8212 8211 8209 8205 8205 8203 8203 8207 8210 8212 8213 8217 8222 8225 8224 8228 8229 8224 8226 8224 8224 8219 8222 8221 8218 8218 8219 8215 8215 8217 8216 8214 8215 8218 8218 8217 8216 8216 8216 8215 8214 8209 8204 
8207 8210 8212 8214 8212 8212 8209 8205 8207 8207 8211 8211 8211 8207 8209 8206 8206 8208 8209 8209 8208 8206 8206 8209 8211 8208 8209 8210 8210 8216 8215 8217 8215 8216 8216 8216 8216 8219 8219 8217 8216 8215 8215 8219 8219 8217 8227 8223 8226 8226 8228 8225 8224 8229 8221 8224 8225 8221 8226 8219 8220 8222 8222 8217 8216 8220 8217 8217 8212 8216 8216 8218 8217 8218 8214 8213 8215 8211 8207 8208 
8209 8213 8210 8208 8210 8211 8204 8202 8203 8205 8208 8210 8208 8209 8207 8207 8205 8206 8206 8207 8208 8206 8206 8205 8206 8206 8205 8210 8211 8211 8213 8212 8214 8216 8217 8217 8215 8217 8216 8218 8220 8222 8223 8226 8223 8226 8226 8226 8227 8229 8227 8224 8227 8225 8224 8227 8226 8225 8220 8223 8223 8221 8222 8220 8220 8219 8215 8218 8215 8213 8217 8219 8216 8217 8214 8214 8215 8211 8210 8211 
8211 8213 8214 8210 8212 8208 8209 8207 8205 8207 8208 8206 8204 8205 8208 8205 8207 8203 8203 8205 8204 8205 8204 8204 8205 8205 8206 8209 8207 8211 8215 8213 8214 8214 8216 8215 8218 8219 8217 8219 8226 8222 8221 8227 8225 8224 8227 8228 8229 8229 8228 8228 8225 8227 8224 8225 8224 8223 8224 8223 8224 8225 8223 8220 8220 8218 8216 8214 8215 8215 8218 8217 8218 8218 8214 8213 8212 8211 8209 8201 
8213 8215 8213 8213 8212 8208 8206 8206 8206 8210 8210 8207 8206 8204 8207 8205 8207 8204 8201 8204 8206 8206 8206 8205 8209 8204 8209 8211 8213 8214 8215 8219 8216 8221 8217 8216 8220 8217 8222 8222 8226 8223 8219 8221 8222 8218 8224 8223 8220 8221 8221 8223 8226 8224 8225 8225 8218 8220 8220 8218 8219 8217 8222 8221 8221 8217 8215 8213 8215 8216 8215 8216 8219 8219 8212 8212 8210 8204 8209 8203 


