P2
80 60
8203
8186 8181 8186 8186 8183 8185 8179 8184 8183 8187 8185 8185 8185 8184 8185 8186 8191 8188 8190 8188 8189 8185 8184 8186 8186 8182 8187 8185 8188 8185 8186 8187 8187 8184 8184 8180 8176 8178 8181 8181 8185 8180 8180 8171 8172 8172 8175 8172 8175 8172 8171 8167 8169 8170 8170 8164 8156 8158 8158 8158 8161 8160 8161 8161 8163 8163 8160 8159 8160 8167 8161 8166 8165 8167 8167 8168 8163 8169 8167 8171 
8183 8184 8185 8187 8182 8181 8179 8186 8182 8187 8187 8185 8182 8181 8186 8187 8188 8188 8190 8188 8190 8185 8185 8187 8185 8182 8186 8187 8188 8190 8189 8189 8186 8184 8182 8181 8176 8177 8182 8182 8184 8183 8182 8176 8175 8173 8173 8173 8173 8170 8171 8168 8168 8166 8154 8142 8135 8142 8150 8156 8159 8162 8163 8160 8163 8163 8159 8161 8160 8159 8161 8163 8165 8165 8169 8166 8163 8169 8166 8165 
8184 8180 8183 8184 8181 8185 8184 8183 8185 8188 8183 8185 8184 8183 8187 8185 8189 8190 8188 8187 8186 8187 8184 8189 8187 8185 8189 8186 8188 8188 8191 8185 8186 8185 8186 8183 8174 8178 8181 8185 8181 8176 8176 8175 8176 8173 8174 8171 8174 8169 8167 8163 8152 8140 8107 8091 8085 8102 8121 8147 8157 8161 8162 8159 8160 8162 8161 8163 8160 8158 8157 8158 8163 8163 8168 8164 8163 8167 8167 8168 
8180 8182 8181 8182 8183 8183 8182 8183 8185 8186 8181 8182 8181 8183 8182 8187 8187 8186 8189 8187 8186 8184 8185 8189 8187 8187 8189 8187 8189 8189 8187 8184 8186 8186 8183 8181 8176 8177 8182 8182 8183 8180 8176 8172 8170 8170 8170 8170 8174 8165 8166 8137 8095 8082 8067 8063 8061 8065 8093 8139 8155 8155 8162 8160 8156 8157 8158 8162 8159 8157 8154 8157 8156 8156 8162 8161 8161 8166 8165 8165 
8181 8180 8182 8180 8181 8183 8180 8183 8184 8183 8184 8181 8182 8182 8184 8186 8183 8187 8185 8185 8185 8181 8181 8184 8185 8183 8188 8185 8190 8188 8185 8184 8186 8183 8182 8180 8175 8175 8179 8180 8181 8173 8173 8171 8169 8166 8168 8164 8167 8163 8153 8086 8060 8059 8050 8042 8030 8045 8096 8139 8151 8154 8159 8156 8155 8156 8156 8158 8159 8152 8154 8153 8155 8152 8154 8156 8156 8161 8156 8159 
8185 8183 8184 8180 8183 8182 8180 8181 8182 8182 8182 8183 8183 8181 8183 8183 8184 8182 8185 8184 8184 8183 8182 8185 8185 8184 8186 8183 8185 8186 8185 8186 8187 8179 8178 8179 8176 8177 8178 8177 8181 8174 8176 8169 8165 8165 8167 8162 8164 8160 8118 8055 8050 8048 8043 8035 8037 8066 8120 8148 8153 8153 8157 8157 8156 8156 8153 8156 8156 8152 8151 8152 8152 8147 8148 8151 8150 8153 8153 8151 
8180 8182 8186 8180 8182 8179 8178 8183 8178 8181 8182 8182 8182 8180 8180 8180 8185 8182 8179 8179 8184 8176 8181 8186 8180 8180 8185 8181 8183 8185 8181 8185 8184 8178 8179 8173 8169 8175 8177 8177 8178 8173 8172 8169 8163 8167 8164 8163 8163 8153 8099 8052 8053 8071 8068 8062 8081 8121 8146 8151 8149 8152 8154 8153 8154 8153 8152 8153 8152 8150 8150 8149 8146 8142 8148 8145 8145 8145 8149 8142 
8179 8179 8181 8179 8180 8176 8179 8181 8178 8181 8183 8181 8178 8177 8177 8179 8179 8175 8170 8168 8172 8173 8177 8183 8179 8181 8182 8178 8179 8185 8182 8181 8183 8178 8177 8173 8168 8171 8178 8174 8171 8171 8170 8164 8164 8162 8163 8156 8159 8148 8124 8052 8082 8109 8121 8134 8138 8142 8148 8147 8147 8148 8151 8149 8151 8152 8150 8152 8151 8144 8145 8149 8145 8139 8144 8141 8136 8143 8141 8140 
8177 8180 8182 8179 8180 8180 8181 8184 8179 8179 8181 8180 8177 8176 8176 8172 8170 8168 8134 8114 8131 8163 8174 8178 8176 8177 8180 8178 8178 8182 8180 8179 8179 8175 8172 8169 8170 8169 8173 8175 8171 8168 8170 8163 8159 8160 8160 8156 8140 8117 8110 8051 8058 8055 8063 8114 8139 8143 8146 8147 8146 8144 8148 8147 8147 8150 8148 8149 8148 8146 8145 8143 8141 8138 8138 8138 8135 8139 8140 8139 
8179 8180 8183 8180 8181 8178 8179 8180 8178 8179 8179 8177 8178 8174 8176 8167 8134 8117 8103 8075 8066 8095 8146 8173 8172 8172 8175 8178 8179 8181 8176 8177 8177 8174 8170 8168 8168 8168 8173 8169 8170 8164 8167 8160 8155 8154 8154 8136 8078 8064 8051 8054 8101 8066 8053 8081 8131 8143 8145 8145 8145 8143 8145 8146 8147 8148 8146 8148 8142 8142 8138 8139 8134 8132 8138 8133 8132 8134 8140 8135 
8179 8179 8183 8180 8176 8174 8175 8178 8176 8179 8177 8179 8175 8172 8161 8136 8077 8060 8056 8054 8055 8058 8093 8168 8172 8170 8174 8178 8177 8178 8175 8172 8175 8169 8169 8166 8161 8163 8165 8166 8163 8163 8167 8155 8152 8150 8150 8122 8061 8054 8045 8046 8081 8123 8109 8099 8131 8139 8146 8143 8147 8143 8147 8143 8146 8146 8144 8146 8140 8137 8138 8136 8134 8130 8133 8134 8132 8133 8134 8134 
8177 8179 8179 8177 8176 8174 8172 8176 8176 8176 8178 8174 8169 8151 8103 8073 8057 8058 8055 8048 8048 8060 8074 8143 8146 8168 8172 8172 8176 8178 8174 8169 8172 8167 8167 8166 8157 8157 8153 8152 8156 8155 8154 8139 8125 8116 8114 8101 8082 8075 8049 8045 8067 8132 8142 8137 8139 8140 8145 8142 8140 8140 8143 8143 8145 8144 8142 8143 8137 8134 8135 8136 8134 8131 8129 8131 8129 8131 8132 8129 
8176 8180 8180 8174 8173 8172 8170 8174 8174 8174 8175 8172 8170 8147 8092 8066 8046 8044 8041 8040 8031 8043 8065 8074 8086 8141 8165 8169 8173 8173 8171 8169 8168 8166 8165 8157 8146 8114 8100 8108 8125 8132 8113 8099 8095 8087 8088 8083 8094 8070 8097 8074 8047 8080 8132 8139 8140 8140 8143 8140 8140 8138 8143 8142 8141 8143 8139 8141 8138 8131 8132 8134 8131 8130 8131 8129 8124 8131 8133 8129 
8181 8179 8180 8177 8177 8174 8171 8178 8174 8172 8173 8170 8171 8162 8143 8124 8060 8042 8032 8028 8030 8044 8071 8051 8052 8065 8132 8150 8154 8168 8170 8168 8165 8162 8158 8147 8109 8090 8090 8093 8093 8092 8093 8086 8079 8074 8079 8080 8077 8078 8137 8117 8049 8048 8085 8126 8139 8138 8140 8141 8140 8138 8143 8138 8138 8139 8139 8139 8132 8128 8131 8130 8130 8129 8129 8127 8126 8128 8127 8129 
8180 8179 8181 8179 8177 8173 8169 8173 8171 8171 8173 8173 8171 8165 8167 8152 8142 8096 8073 8082 8104 8127 8135 8053 8046 8054 8083 8070 8086 8144 8163 8163 8163 8160 8143 8103 8080 8074 8083 8081 8086 8080 8082 8082 8079 8074 8080 8078 8060 8111 8135 8134 8079 8048 8076 8112 8137 8138 8141 8141 8141 8136 8141 8140 8136 8139 8138 8139 8133 8130 8128 8127 8129 8127 8128 8126 8126 8127 8127 8124 
8182 8179 8179 8181 8175 8174 8167 8171 8171 8174 8174 8172 8171 8171 8167 8168 8169 8164 8163 8160 8160 8155 8130 8049 8063 8102 8068 8066 8054 8070 8142 8159 8158 8151 8109 8082 8080 8072 8081 8079 8070 8072 8073 8076 8078 8073 8074 8071 8049 8096 8106 8110 8119 8071 8090 8135 8136 8139 8140 8137 8137 8135 8139 8141 8139 8137 8136 8138 8135 8129 8131 8129 8129 8125 8130 8126 8122 8127 8126 8121 
8177 8176 8177 8178 8173 8168 8166 8173 8171 8172 8175 8174 8170 8171 8169 8170 8174 8169 8172 8169 8166 8149 8066 8037 8103 8152 8111 8099 8122 8098 8148 8154 8136 8112 8083 8079 8076 8075 8078 8066 8065 8072 8079 8078 8078 8075 8076 8053 8062 8073 8078 8083 8092 8096 8100 8130 8134 8139 8140 8139 8139 8136 8137 8140 8138 8140 8140 8140 8133 8129 8127 8129 8127 8126 8128 8127 8123 8126 8127 8124 
8176 8175 8176 8176 8170 8169 8166 8172 8170 8169 8172 8172 8169 8168 8168 8165 8172 8170 8172 8171 8165 8117 8044 8055 8139 8150 8150 8078 8133 8150 8155 8137 8096 8064 8071 8078 8075 8074 8064 8064 8066 8073 8086 8079 8079 8078 8077 8045 8088 8079 8074 8064 8069 8077 8086 8086 8099 8127 8137 8138 8137 8138 8137 8140 8137 8141 8138 8136 8135 8132 8130 8131 8129 8127 8128 8128 8124 8126 8125 8124 
8170 8172 8177 8173 8168 8166 8166 8171 8168 8169 8170 8169 8169 8167 8170 8167 8171 8166 8169 8162 8163 8108 8052 8119 8153 8150 8149 8107 8086 8132 8109 8116 8084 8041 8055 8076 8074 8072 8072 8071 8068 8076 8082 8080 8078 8075 8064 8016 8041 8109 8093 8068 8064 8066 8070 8071 8078 8096 8125 8134 8136 8138 8140 8139 8138 8142 8137 8135 8134 8134 8130 8131 8131 8128 8130 8126 8120 8126 8121 8122 
8170 8171 8174 8169 8167 8166 8165 8168 8168 8168 8168 8169 8167 8165 8165 8165 8167 8167 8167 8162 8160 8144 8118 8154 8147 8127 8079 8070 8054 8057 8050 8050 8042 8036 8045 8068 8067 8060 8064 8073 8073 8067 8074 8078 8079 8076 8030 8014 8023 8097 8113 8084 8074 8071 8069 8066 8068 8072 8098 8123 8131 8137 8139 8141 8140 8143 8138 8138 8135 8131 8134 8130 8130 8130 8130 8128 8119 8125 8121 8122 
8173 8170 8170 8169 8169 8165 8165 8167 8167 8169 8170 8168 8169 8165 8166 8165 8168 8165 8162 8162 8163 8157 8155 8158 8111 8085 8081 8061 8049 8049 8049 8040 8036 8028 8042 8065 8066 8067 8075 8069 8066 8072 8072 8074 8075 8067 8039 8056 8032 8033 8060 8115 8098 8084 8077 8067 8061 8065 8078 8096 8122 8132 8139 8140 8144 8144 8140 8142 8137 8134 8133 8131 8130 8130 8128 8130 8125 8124 8123 8123 
8174 8170 8174 8172 8168 8166 8164 8167 8167 8171 8170 8172 8168 8164 8164 8161 8164 8162 8163 8162 8166 8161 8160 8161 8126 8140 8136 8076 8059 8058 8061 8043 8036 8029 8030 8066 8068 8077 8080 8078 8074 8076 8078 8072 8077 8044 8044 8056 8047 8030 8060 8119 8128 8108 8089 8068 8066 8066 8073 8115 8113 8121 8137 8142 8142 8143 8141 8139 8136 8135 8135 8133 8132 8131 8130 8129 8125 8127 8127 8123 
8169 8173 8171 8170 8170 8166 8166 8166 8164 8166 8169 8166 8164 8163 8162 8162 8165 8159 8157 8158 8163 8161 8161 8160 8157 8153 8155 8116 8097 8121 8078 8098 8047 8030 8026 8064 8074 8081 8085 8077 8076 8075 8079 8076 8053 8026 8024 8014 8023 8048 8048 8080 8130 8132 8117 8080 8070 8068 8070 8120 8130 8118 8127 8136 8143 8140 8144 8137 8136 8133 8135 8133 8131 8129 8130 8130 8126 8125 8127 8125 
8168 8170 8172 8168 8166 8164 8163 8165 8166 8169 8166 8165 8164 8163 8161 8160 8159 8160 8157 8154 8161 8158 8158 8159 8156 8152 8155 8145 8147 8149 8075 8067 8045 8030 8025 8055 8077 8084 8082 8081 8082 8077 8076 8059 8030 8022 8028 8035 8080 8099 8092 8078 8091 8075 8054 8046 8064 8075 8074 8112 8130 8131 8120 8132 8142 8143 8142 8141 8138 8134 8135 8135 8136 8127 8131 8128 8126 8127 8128 8125 
8170 8169 8171 8169 8168 8163 8161 8167 8164 8166 8166 8166 8164 8158 8160 8157 8158 8157 8155 8155 8158 8155 8152 8155 8151 8145 8134 8152 8152 8142 8094 8050 8053 8039 8037 8065 8080 8080 8077 8078 8081 8080 8065 8036 8029 8042 8083 8057 8048 8053 8051 8056 8061 8089 8092 8079 8068 8084 8082 8107 8129 8132 8134 8132 8139 8143 8141 8141 8137 8133 8135 8135 8136 8128 8131 8129 8124 8129 8128 8123 
8168 8168 8168 8166 8167 8163 8162 8167 8165 8165 8168 8167 8162 8157 8158 8156 8155 8155 8154 8154 8154 8150 8152 8149 8144 8119 8114 8144 8141 8107 8119 8061 8042 8059 8079 8085 8074 8072 8073 8069 8077 8066 8034 8034 8036 8088 8100 8053 8034 8043 8052 8063 8072 8073 8078 8098 8115 8108 8086 8090 8128 8130 8136 8140 8140 8142 8140 8143 8141 8138 8136 8133 8133 8129 8131 8129 8126 8128 8129 8126 
8168 8171 8170 8166 8164 8162 8163 8168 8164 8168 8168 8167 8160 8156 8157 8156 8154 8155 8149 8148 8145 8142 8145 8143 8125 8079 8070 8108 8108 8100 8079 8050 8039 8075 8068 8062 8061 8064 8072 8071 8057 8030 8029 8044 8084 8081 8081 8057 8053 8043 8054 8059 8064 8072 8068 8060 8071 8084 8100 8090 8100 8125 8137 8137 8139 8142 8139 8139 8135 8134 8134 8131 8136 8126 8132 8132 8127 8129 8125 8126 
8166 8169 8171 8168 8165 8164 8164 8168 8165 8169 8169 8165 8161 8157 8159 8156 8155 8149 8147 8127 8099 8103 8130 8095 8049 8033 8043 8065 8070 8063 8055 8043 8038 8058 8049 8041 8057 8064 8066 8042 8020 8022 8034 8037 8047 8050 8046 8050 8056 8049 8043 8047 8046 8051 8062 8064 8062 8060 8056 8057 8075 8100 8117 8104 8122 8139 8140 8138 8133 8132 8134 8132 8132 8132 8135 8131 8129 8131 8129 8127 
8165 8167 8168 8170 8167 8167 8162 8165 8166 8169 8167 8166 8163 8158 8158 8156 8154 8146 8117 8084 8077 8073 8065 8052 8044 8076 8100 8073 8055 8055 8065 8036 8034 8035 8037 8049 8063 8061 8033 8027 8017 8020 8037 8030 8030 8031 8043 8051 8090 8063 8043 8042 8043 8044 8049 8064 8070 8059 8064 8063 8070 8074 8081 8077 8097 8130 8134 8137 8133 8128 8131 8131 8131 8131 8134 8133 8127 8133 8127 8123 
8171 8171 8168 8167 8167 8162 8166 8167 8170 8170 8168 8168 8161 8157 8156 8155 8152 8142 8117 8070 8063 8056 8053 8056 8067 8081 8077 8060 8050 8039 8045 8035 8054 8054 8047 8066 8077 8046 8031 8042 8031 8029 8031 8048 8074 8106 8112 8074 8092 8101 8052 8042 8047 8046 8044 8064 8085 8065 8056 8054 8064 8068 8078 8076 8083 8102 8121 8134 8132 8130 8129 8130 8130 8130 8135 8130 8128 8127 8128 8132 
8172 8170 8172 8168 8171 8165 8167 8171 8169 8171 8171 8169 8163 8155 8144 8132 8129 8115 8094 8070 8068 8063 8069 8085 8121 8110 8068 8053 8048 8044 8039 8036 8063 8084 8070 8079 8107 8078 8037 8037 8035 8031 8027 8032 8042 8053 8091 8110 8097 8103 8083 8045 8045 8043 8047 8059 8085 8062 8060 8051 8047 8050 8073 8078 8076 8086 8103 8124 8131 8131 8129 8131 8130 8130 8133 8132 8128 8131 8128 8126 
8172 8171 8172 8171 8170 8169 8168 8169 8167 8170 8168 8165 8156 8122 8097 8096 8089 8078 8072 8068 8070 8068 8072 8080 8101 8115 8073 8052 8048 8044 8044 8042 8061 8075 8072 8042 8068 8093 8052 8046 8041 8036 8032 8034 8037 8039 8053 8076 8115 8095 8094 8054 8047 8051 8055 8068 8083 8069 8064 8062 8056 8052 8058 8058 8064 8074 8092 8109 8126 8130 8129 8129 8132 8130 8131 8131 8128 8134 8130 8125 
8171 8174 8174 8172 8172 8172 8167 8171 8168 8169 8170 8164 8133 8098 8096 8094 8077 8072 8086 8106 8106 8077 8073 8074 8071 8106 8089 8060 8051 8050 8050 8058 8071 8073 8065 8027 8026 8045 8058 8069 8054 8042 8034 8040 8040 8046 8061 8071 8084 8093 8109 8100 8055 8047 8053 8081 8117 8094 8061 8059 8058 8054 8055 8056 8060 8066 8084 8102 8116 8125 8128 8129 8130 8129 8132 8130 8127 8132 8131 8130 
8173 8172 8177 8175 8175 8172 8169 8170 8168 8170 8164 8145 8111 8101 8098 8087 8086 8098 8136 8125 8135 8117 8071 8068 8066 8074 8116 8099 8059 8059 8061 8070 8078 8074 8046 8024 8020 8030 8053 8073 8072 8065 8046 8044 8057 8068 8077 8080 8103 8132 8136 8135 8089 8053 8054 8104 8124 8116 8071 8063 8061 8058 8054 8053 8056 8060 8070 8093 8106 8116 8126 8131 8133 8132 8135 8131 8130 8132 8129 8127 
8177 8174 8179 8174 8173 8172 8171 8172 8167 8165 8160 8118 8105 8098 8103 8104 8120 8151 8146 8135 8150 8146 8103 8071 8066 8070 8086 8094 8067 8065 8069 8076 8080 8067 8039 8033 8030 8029 8067 8069 8077 8073 8064 8062 8068 8075 8080 8082 8109 8129 8137 8137 8132 8082 8078 8122 8127 8125 8092 8064 8061 8063 8060 8051 8047 8057 8050 8077 8112 8114 8120 8127 8133 8130 8133 8133 8130 8133 8130 8129 
8181 8177 8180 8178 8175 8171 8169 8170 8167 8164 8146 8108 8106 8100 8111 8133 8155 8159 8158 8157 8158 8152 8144 8097 8068 8066 8065 8069 8069 8071 8077 8079 8085 8086 8097 8115 8110 8075 8052 8046 8070 8068 8068 8069 8075 8075 8079 8081 8107 8130 8137 8141 8140 8134 8124 8135 8132 8131 8112 8070 8059 8056 8060 8051 8050 8056 8055 8068 8100 8121 8116 8129 8132 8133 8135 8137 8130 8134 8132 8131 
8185 8183 8179 8176 8177 8170 8169 8172 8169 8163 8125 8109 8101 8104 8124 8156 8162 8162 8163 8160 8164 8158 8152 8138 8080 8064 8064 8068 8071 8078 8081 8083 8110 8121 8119 8108 8105 8085 8048 8034 8045 8061 8068 8065 8072 8072 8080 8079 8093 8128 8133 8136 8141 8140 8141 8140 8137 8130 8124 8078 8052 8052 8060 8056 8056 8055 8059 8066 8084 8117 8121 8122 8128 8133 8135 8136 8132 8138 8133 8134 
8179 8181 8181 8179 8173 8169 8171 8172 8165 8153 8109 8107 8108 8114 8146 8160 8160 8163 8164 8162 8163 8158 8159 8157 8126 8070 8063 8065 8074 8077 8084 8108 8128 8119 8068 8045 8096 8100 8062 8036 8038 8061 8060 8060 8066 8069 8077 8089 8097 8114 8134 8138 8141 8143 8144 8136 8130 8124 8114 8074 8056 8060 8067 8063 8058 8058 8063 8065 8075 8112 8130 8125 8126 8136 8139 8138 8137 8139 8137 8140 
8178 8178 8184 8178 8179 8172 8169 8169 8163 8135 8106 8112 8111 8127 8155 8163 8166 8162 8162 8164 8162 8162 8159 8159 8151 8107 8069 8066 8076 8084 8099 8121 8109 8063 8065 8085 8083 8056 8033 8027 8041 8058 8061 8063 8065 8068 8076 8065 8078 8104 8130 8137 8138 8139 8133 8114 8099 8102 8109 8097 8069 8064 8071 8069 8068 8066 8066 8068 8072 8104 8132 8131 8126 8132 8138 8138 8135 8140 8138 8134 
8173 8178 8182 8176 8176 8173 8169 8168 8167 8150 8112 8111 8121 8153 8160 8163 8167 8164 8166 8161 8170 8163 8163 8165 8155 8144 8096 8080 8088 8087 8086 8078 8070 8103 8083 8079 8072 8036 8041 8048 8052 8060 8066 8068 8070 8072 8086 8097 8083 8059 8104 8116 8109 8103 8114 8126 8130 8133 8134 8133 8102 8071 8079 8078 8076 8072 8067 8066 8070 8093 8129 8132 8138 8133 8140 8139 8137 8142 8141 8138 
8175 8181 8178 8178 8175 8168 8169 8170 8170 8158 8115 8120 8144 8161 8160 8163 8165 8162 8163 8166 8168 8164 8161 8164 8158 8149 8125 8094 8084 8070 8053 8042 8052 8053 8061 8099 8070 8072 8056 8048 8056 8068 8074 8070 8070 8060 8065 8063 8070 8051 8070 8099 8109 8116 8127 8134 8136 8137 8137 8138 8131 8091 8083 8087 8081 8073 8070 8067 8069 8091 8130 8133 8144 8141 8144 8143 8139 8146 8141 8140 
8177 8177 8177 8176 8173 8166 8166 8171 8167 8148 8119 8135 8163 8162 8164 8163 8166 8162 8166 8163 8167 8165 8161 8162 8147 8114 8087 8074 8058 8055 8053 8050 8058 8090 8086 8064 8055 8089 8057 8060 8070 8074 8077 8066 8057 8065 8093 8101 8084 8073 8070 8074 8075 8076 8079 8103 8127 8134 8136 8137 8139 8133 8099 8083 8080 8079 8075 8070 8067 8087 8133 8133 8145 8149 8142 8146 8142 8144 8146 8143 
8178 8177 8178 8175 8174 8168 8168 8166 8168 8137 8120 8155 8167 8164 8164 8164 8168 8166 8166 8166 8164 8162 8159 8147 8111 8094 8084 8074 8070 8067 8057 8040 8040 8056 8066 8088 8089 8060 8054 8060 8083 8068 8052 8050 8046 8074 8116 8117 8101 8097 8093 8080 8081 8084 8082 8075 8080 8118 8132 8137 8144 8142 8128 8088 8082 8080 8080 8073 8071 8098 8139 8139 8139 8145 8144 8147 8143 8146 8147 8142 
8175 8176 8177 8175 8173 8169 8168 8168 8160 8130 8109 8157 8168 8166 8163 8163 8167 8165 8163 8164 8165 8159 8158 8132 8107 8104 8115 8138 8131 8086 8047 8041 8044 8048 8087 8091 8058 8089 8086 8067 8083 8045 8047 8062 8043 8051 8086 8097 8122 8127 8130 8130 8109 8082 8083 8075 8069 8074 8122 8141 8142 8146 8143 8123 8093 8087 8082 8076 8078 8114 8140 8145 8133 8137 8137 8146 8146 8146 8145 8141 
8175 8178 8176 8174 8172 8169 8166 8165 8142 8104 8099 8152 8168 8165 8167 8164 8170 8167 8163 8164 8162 8160 8156 8133 8125 8141 8153 8148 8127 8076 8047 8044 8044 8039 8069 8110 8093 8070 8083 8089 8052 8042 8046 8057 8045 8047 8065 8105 8115 8118 8127 8129 8130 8121 8086 8070 8067 8067 8101 8134 8144 8144 8147 8143 8114 8091 8091 8084 8092 8131 8144 8144 8130 8128 8135 8145 8144 8147 8147 8141 
8176 8179 8177 8175 8170 8170 8168 8154 8108 8094 8121 8165 8169 8170 8169 8167 8167 8165 8164 8165 8166 8160 8155 8145 8155 8155 8155 8146 8104 8054 8054 8045 8041 8043 8044 8055 8061 8061 8054 8044 8050 8040 8045 8054 8038 8052 8059 8075 8082 8084 8095 8100 8102 8105 8104 8079 8058 8057 8082 8133 8142 8145 8147 8145 8111 8096 8100 8094 8115 8141 8147 8145 8129 8124 8134 8145 8144 8147 8147 8144 
8179 8176 8179 8175 8174 8172 8168 8139 8096 8112 8158 8168 8169 8168 8168 8168 8172 8168 8167 8166 8165 8163 8159 8163 8157 8153 8140 8113 8069 8053 8066 8058 8045 8042 8041 8042 8048 8055 8054 8046 8039 8037 8039 8049 8052 8074 8087 8083 8085 8085 8089 8094 8093 8091 8095 8089 8074 8062 8071 8108 8128 8134 8140 8141 8105 8099 8104 8110 8139 8145 8150 8150 8129 8121 8146 8150 8148 8146 8145 8145 
8177 8181 8176 8177 8176 8173 8169 8147 8104 8150 8171 8170 8172 8169 8168 8166 8170 8170 8170 8167 8166 8164 8163 8166 8158 8131 8098 8078 8064 8068 8069 8067 8056 8043 8041 8041 8033 8039 8038 8034 8033 8028 8035 8051 8075 8089 8096 8096 8097 8091 8091 8094 8095 8099 8094 8090 8083 8078 8075 8093 8103 8102 8115 8130 8102 8101 8111 8136 8150 8152 8153 8153 8140 8146 8156 8154 8150 8148 8150 8142 
8178 8175 8180 8177 8176 8175 8168 8161 8131 8165 8172 8172 8169 8166 8169 8166 8172 8169 8166 8166 8168 8162 8160 8164 8156 8110 8088 8068 8063 8071 8068 8064 8058 8044 8033 8033 8027 8029 8030 8024 8023 8024 8031 8029 8063 8078 8088 8093 8094 8091 8086 8088 8093 8097 8092 8085 8078 8075 8073 8086 8088 8093 8100 8108 8102 8108 8125 8148 8156 8149 8154 8153 8156 8152 8157 8151 8148 8151 8146 8141 
8176 8177 8178 8178 8178 8176 8169 8154 8150 8169 8172 8170 8167 8166 8166 8168 8169 8169 8167 8168 8166 8162 8162 8164 8158 8132 8097 8068 8066 8068 8059 8050 8030 8026 8023 8023 8024 8020 8020 8019 8021 8024 8029 8030 8042 8049 8058 8061 8066 8065 8069 8063 8067 8068 8065 8063 8050 8052 8060 8076 8089 8092 8100 8107 8105 8125 8149 8152 8155 8154 8155 8155 8156 8156 8154 8154 8148 8152 8151 8144 
8178 8177 8179 8180 8180 8176 8170 8149 8165 8170 8176 8169 8167 8166 8166 8167 8170 8167 8166 8164 8163 8163 8162 8159 8158 8140 8100 8081 8069 8049 8036 8025 8021 8022 8019 8019 8018 8016 8021 8025 8021 8025 8036 8036 8036 8044 8059 8059 8062 8056 8060 8059 8063 8057 8056 8052 8046 8043 8048 8061 8085 8097 8106 8110 8125 8145 8153 8154 8155 8154 8156 8155 8158 8155 8156 8151 8150 8152 8147 8146 
8176 8172 8183 8182 8178 8175 8166 8154 8169 8169 8170 8169 8170 8166 8165 8166 8168 8165 8164 8162 8163 8160 8158 8163 8158 8145 8107 8083 8077 8079 8078 8070 8060 8048 8042 8035 8031 8031 8033 8034 8034 8033 8039 8043 8037 8041 8059 8060 8062 8061 8063 8062 8073 8077 8073 8070 8061 8067 8075 8083 8094 8096 8105 8116 8142 8153 8153 8154 8156 8156 8157 8154 8155 8155 8157 8153 8149 8152 8148 8144 
8177 8177 8183 8182 8177 8172 8170 8164 8171 8170 8172 8167 8163 8167 8167 8164 8165 8165 8163 8163 8162 8157 8157 8161 8157 8147 8109 8089 8088 8091 8093 8086 8092 8082 8083 8083 8084 8087 8083 8075 8068 8064 8064 8061 8064 8066 8076 8085 8090 8092 8095 8100 8118 8124 8125 8120 8116 8112 8107 8101 8098 8103 8114 8136 8148 8149 8153 8155 8154 8150 8153 8154 8155 8153 8154 8153 8146 8148 8148 8144 
8178 8177 8178 8180 8179 8172 8171 8173 8170 8172 8170 8165 8166 8166 8167 8163 8165 8161 8162 8159 8159 8153 8158 8163 8154 8149 8124 8093 8090 8092 8091 8092 8096 8092 8094 8093 8092 8096 8095 8091 8091 8091 8094 8089 8092 8098 8108 8110 8117 8122 8125 8129 8129 8130 8131 8127 8124 8121 8119 8113 8114 8124 8134 8143 8147 8152 8152 8154 8154 8152 8153 8156 8156 8151 8155 8150 8143 8149 8144 8142 
8176 8177 8178 8178 8177 8173 8173 8171 8168 8171 8169 8167 8168 8166 8166 8162 8162 8161 8161 8162 8160 8158 8156 8160 8154 8151 8148 8117 8088 8084 8091 8089 8097 8100 8100 8101 8097 8098 8094 8095 8097 8097 8104 8095 8097 8101 8110 8110 8119 8116 8122 8123 8130 8127 8135 8134 8133 8132 8128 8125 8132 8139 8144 8145 8147 8149 8151 8152 8151 8152 8150 8153 8155 8149 8150 8147 8142 8144 8144 8147 
8176 8173 8175 8174 8174 8173 8174 8173 8167 8170 8171 8165 8164 8165 8161 8162 8160 8160 8157 8157 8157 8158 8157 8157 8154 8145 8151 8131 8088 8079 8083 8085 8093 8101 8102 8108 8099 8102 8097 8097 8097 8099 8104 8100 8098 8097 8101 8101 8111 8110 8121 8125 8135 8140 8141 8143 8141 8138 8137 8134 8137 8137 8144 8140 8145 8147 8146 8149 8148 8149 8150 8150 8150 8149 8152 8147 8144 8143 8140 8141 
8174 8173 8171 8174 8169 8165 8167 8172 8168 8170 8170 8166 8165 8161 8161 8162 8161 8159 8157 8156 8155 8155 8158 8156 8152 8145 8148 8136 8103 8085 8078 8072 8082 8095 8100 8107 8105 8106 8105 8105 8100 8100 8105 8100 8098 8096 8101 8098 8107 8113 8123 8135 8142 8145 8147 8142 8140 8138 8131 8127 8130 8135 8141 8144 8144 8147 8146 8147 8146 8149 8145 8148 8146 8145 8146 8148 8142 8140 8141 8143 
8168 8170 8170 8167 8167 8166 8166 8167 8167 8170 8167 8164 8163 8160 8161 8159 8162 8156 8155 8154 8154 8152 8154 8158 8153 8147 8154 8142 8113 8100 8087 8081 8083 8081 8084 8085 8080 8089 8097 8099 8098 8100 8105 8101 8102 8100 8101 8095 8104 8112 8128 8138 8139 8142 8148 8143 8141 8137 8131 8127 8128 8134 8143 8141 8142 8145 8148 8146 8149 8149 8148 8150 8144 8142 8149 8144 8142 8144 8145 8141 
8179 8160 8157 8159 8154 8155 8154 8158 8162 8166 8163 8162 8162 8160 8161 8159 8159 8158 8154 8156 8153 8152 8155 8159 8155 8153 8154 8148 8123 8107 8092 8087 8086 8085 8091 8091 8082 8084 8088 8090 8088 8090 8095 8095 8093 8089 8090 8092 8097 8103 8117 8125 8136 8146 8153 8150 8142 8138 8130 8131 8131 8136 8141 8142 8143 8144 8147 8146 8150 8146 8151 8147 8146 8147 8145 8148 8140 8143 8142 8139 
8203 8160 8157 8156 8155 8152 8155 8158 8158 8160 8162 8157 8153 8154 8154 8157 8157 8156 8155 8152 8151 8146 8153 8153 8149 8148 8147 8140 8126 8111 8097 8089 8091 8092 8097 8099 8095 8089 8091 8092 8095 8098 8101 8096 8098 8097 8099 8096 8111 8116 8118 8131 8140 8143 8152 8141 8142 8134 8127 8127 8128 8133 8136 8136 8137 8142 8143 8148 8149 8143 8147 8148 8152 8149 8150 8151 8142 8147 8140 8140 


