P2
80 60
8245
8231 8239 8234 8233 8238 8233 8230 8233 8231 8227 8228 8227 8227 8226 8228 8230 8231 8233 8229 8228 8230 8224 8225 8229 8224 8226 8226 8229 8227 8228 8223 8224 8226 8234 8239 8239 8237 8238 8234 8231 8231 8233 8227 8231 8223 8220 8222 8217 8218 8214 8216 8214 8210 8211 8210 8209 8209 8208 8209 8204 8204 8207 8208 8201 8200 8199 8199 8197 8198 8199 8201 8204 8206 8208 8211 8212 8206 8203 8206 8205 
8232 8233 8237 8238 8233 8233 8232 8232 8227 8229 8229 8227 8227 8229 8228 8230 8229 8229 8229 8231 8229 8225 8222 8227 8227 8225 8230 8229 8229 8229 8226 8225 8226 8232 8239 8236 8234 8234 8235 8235 8232 8230 8227 8231 8220 8223 8222 8220 8214 8214 8217 8211 8211 8214 8210 8212 8209 8208 8210 8206 8205 8207 8204 8203 8198 8201 8199 8197 8199 8197 8201 8200 8204 8203 8210 8213 8207 8204 8206 8200 
8231 8235 8235 8234 8232 8234 8230 8228 8232 8229 8228 8229 8230 8228 8225 8230 8228 8228 8227 8230 8228 8227 8223 8224 8227 8227 8227 8227 8229 8229 8224 8228 8225 8230 8236 8236 8234 8235 8230 8234 8230 8230 8226 8228 8222 8219 8221 8219 8215 8216 8213 8210 8210 8212 8209 8211 8208 8205 8207 8205 8203 8207 8200 8200 8202 8202 8198 8200 8197 8199 8198 8200 8202 8205 8208 8213 8208 8205 8204 8202 
8232 8233 8234 8232 8233 8229 8230 8229 8227 8228 8225 8227 8227 8225 8228 8228 8226 8229 8225 8228 8227 8226 8223 8228 8229 8224 8225 8224 8230 8228 8224 8225 8225 8232 8234 8238 8231 8235 8234 8232 8232 8232 8224 8223 8219 8221 8216 8220 8213 8212 8212 8212 8209 8210 8208 8211 8208 8205 8208 8203 8202 8202 8199 8199 8199 8195 8193 8200 8199 8197 8197 8199 8195 8197 8201 8207 8204 8202 8203 8200 
8231 8233 8229 8229 8231 8226 8231 8228 8229 8223 8223 8228 8226 8223 8228 8227 8230 8233 8230 8230 8229 8223 8221 8225 8226 8220 8224 8222 8226 8228 8222 8222 8226 8228 8233 8232 8232 8234 8234 8232 8231 8227 8223 8222 8219 8216 8219 8217 8212 8212 8213 8207 8206 8208 8206 8207 8204 8203 8206 8202 8201 8201 8198 8197 8195 8194 8194 8197 8196 8195 8196 8197 8194 8193 8195 8198 8196 8195 8199 8195 
8228 8232 8234 8231 8230 8228 8228 8226 8225 8226 8225 8224 8225 8222 8223 8225 8226 8227 8224 8229 8225 8225 8220 8220 8226 8222 8225 8224 8227 8223 8221 8222 8226 8226 8231 8229 8232 8233 8232 8230 8229 8228 8220 8220 8217 8217 8213 8214 8209 8208 8211 8206 8202 8206 8206 8207 8203 8200 8201 8199 8200 8200 8194 8195 8193 8192 8189 8191 8191 8191 8193 8191 8190 8191 8189 8195 8193 8188 8193 8188 
8229 8240 8233 8233 8231 8229 8225 8223 8223 8221 8222 8225 8224 8220 8223 8225 8224 8226 8224 8223 8222 8221 8220 8223 8221 8218 8221 8224 8223 8222 8218 8223 8222 8225 8231 8230 8229 8232 8229 8229 8226 8222 8220 8218 8213 8213 8214 8210 8207 8204 8206 8201 8203 8204 8205 8204 8200 8198 8200 8196 8195 8196 8192 8193 8191 8192 8188 8187 8191 8190 8189 8187 8187 8185 8186 8190 8185 8184 8188 8183 
8229 8229 8230 8226 8232 8229 8225 8226 8224 8224 8221 8225 8223 8220 8222 8223 8221 8224 8222 8226 8221 8223 8220 8220 8221 8219 8220 8222 8222 8220 8219 8219 8220 8223 8228 8227 8226 8231 8228 8227 8226 8223 8220 8215 8212 8212 8211 8208 8205 8205 8207 8202 8202 8203 8201 8202 8198 8197 8198 8193 8195 8194 8191 8193 8189 8190 8186 8188 8187 8186 8188 8183 8182 8181 8179 8187 8180 8181 8183 8181 
8227 8228 8230 8225 8229 8228 8225 8225 8223 8223 8223 8223 8218 8219 8219 8222 8224 8221 8220 8221 8223 8219 8219 8221 8218 8215 8220 8219 8222 8223 8218 8216 8217 8221 8226 8227 8227 8230 8226 8227 8220 8223 8217 8215 8212 8211 8209 8207 8202 8201 8205 8201 8201 8200 8197 8200 8196 8193 8193 8192 8194 8191 8188 8191 8185 8186 8183 8188 8184 8184 8184 8179 8180 8178 8178 8181 8178 8175 8177 8177 
8224 8226 8226 8227 8227 8225 8225 8222 8222 8225 8224 8224 8220 8218 8219 8222 8222 8221 8219 8223 8221 8218 8218 8219 8218 8217 8217 8218 8219 8220 8216 8217 8215 8218 8223 8224 8227 8228 8226 8225 8220 8220 8214 8214 8208 8209 8209 8205 8200 8200 8202 8199 8197 8199 8200 8199 8191 8190 8191 8189 8191 8187 8185 8188 8186 8181 8182 8180 8183 8180 8178 8178 8175 8172 8176 8178 8176 8172 8178 8169 
8226 8228 8229 8225 8225 8224 8225 8224 8222 8221 8221 8223 8218 8218 8217 8221 8219 8218 8220 8221 8220 8215 8217 8219 8217 8214 8216 8218 8217 8219 8214 8214 8210 8214 8222 8222 8223 8225 8222 8220 8217 8218 8212 8211 8208 8208 8207 8207 8203 8201 8202 8199 8197 8196 8196 8194 8187 8188 8190 8187 8188 8189 8184 8184 8181 8180 8179 8180 8178 8178 8177 8176 8172 8171 8172 8177 8171 8169 8170 8172 
8226 8224 8225 8226 8229 8223 8222 8220 8221 8220 8219 8219 8215 8215 8215 8216 8217 8218 8217 8215 8221 8215 8212 8217 8216 8212 8214 8215 8217 8216 8212 8210 8210 8213 8218 8221 8221 8224 8221 8215 8214 8213 8209 8211 8207 8204 8206 8202 8202 8198 8202 8199 8195 8192 8192 8193 8188 8190 8184 8188 8188 8187 8182 8182 8179 8178 8174 8175 8175 8171 8173 8171 8170 8171 8170 8172 8169 8168 8171 8166 
8223 8228 8227 8224 8223 8224 8222 8217 8219 8220 8217 8217 8212 8213 8217 8216 8218 8217 8220 8217 8216 8214 8212 8218 8216 8214 8211 8213 8216 8213 8212 8208 8211 8214 8218 8219 8219 8219 8215 8215 8212 8214 8212 8211 8205 8205 8205 8201 8202 8198 8199 8197 8194 8195 8193 8195 8189 8186 8190 8185 8185 8187 8180 8181 8173 8173 8172 8172 8170 8167 8168 8168 8165 8165 8168 8171 8165 8169 8171 8168 
8221 8225 8229 8223 8221 8220 8221 8214 8215 8215 8212 8216 8214 8212 8213 8217 8215 8217 8219 8217 8215 8213 8211 8214 8215 8210 8211 8216 8216 8209 8206 8205 8207 8208 8214 8217 8215 8215 8213 8211 8212 8210 8210 8208 8204 8205 8202 8201 8196 8196 8196 8193 8192 8195 8193 8193 8188 8190 8188 8184 8183 8185 8179 8181 8176 8173 8167 8169 8172 8170 8168 8166 8165 8166 8164 8167 8165 8167 8167 8164 
8222 8225 8226 8223 8224 8220 8216 8213 8214 8216 8214 8219 8213 8213 8213 8215 8214 8216 8213 8214 8217 8212 8212 8213 8213 8208 8212 8213 8212 8208 8209 8207 8208 8209 8212 8214 8211 8213 8210 8209 8210 8206 8208 8204 8206 8201 8201 8199 8197 8195 8197 8191 8193 8194 8192 8189 8187 8186 8187 8184 8186 8187 8181 8179 8175 8172 8170 8169 8167 8169 8163 8163 8164 8163 8164 8169 8165 8164 8166 8162 
8222 8225 8221 8222 8226 8219 8216 8214 8212 8218 8218 8215 8210 8213 8211 8215 8210 8218 8215 8216 8213 8208 8208 8211 8209 8208 8209 8209 8210 8208 8205 8204 8207 8208 8212 8213 8211 8212 8210 8208 8206 8208 8203 8204 8201 8200 8200 8199 8195 8193 8192 8190 8194 8193 8188 8190 8190 8186 8187 8183 8183 8183 8178 8177 8173 8171 8170 8168 8167 8166 8166 8163 8166 8164 8162 8168 8162 8164 8167 8165 
8218 8222 8221 8220 8220 8216 8213 8215 8214 8215 8211 8216 8213 8209 8214 8211 8211 8215 8213 8211 8211 8209 8205 8207 8209 8205 8207 8208 8208 8207 8206 8204 8205 8208 8211 8209 8210 8209 8207 8205 8204 8201 8202 8199 8197 8196 8197 8196 8195 8192 8192 8190 8190 8189 8190 8191 8188 8187 8186 8184 8182 8184 8180 8179 8173 8171 8171 8167 8170 8166 8167 8169 8166 8162 8163 8166 8161 8161 8165 8165 
8219 8221 8221 8218 8220 8216 8214 8210 8213 8210 8210 8215 8211 8210 8212 8211 8209 8211 8209 8209 8210 8210 8205 8206 8208 8206 8207 8206 8208 8205 8204 8204 8202 8208 8209 8210 8210 8208 8203 8205 8203 8201 8198 8198 8194 8194 8193 8190 8188 8189 8191 8190 8185 8187 8188 8189 8188 8184 8185 8182 8180 8184 8174 8178 8171 8170 8170 8169 8168 8170 8165 8164 8166 8165 8164 8164 8162 8159 8165 8160 
8219 8218 8219 8216 8217 8219 8213 8211 8211 8209 8209 8214 8211 8210 8209 8210 8207 8209 8211 8208 8210 8206 8205 8206 8208 8203 8205 8205 8203 8205 8203 8204 8203 8208 8209 8207 8209 8207 8201 8202 8201 8200 8195 8194 8190 8194 8192 8191 8189 8189 8192 8187 8187 8188 8188 8189 8186 8187 8185 8181 8182 8181 8177 8176 8174 8171 8168 8169 8167 8170 8166 8166 8168 8163 8165 8166 8161 8160 8165 8160 
8219 8221 8220 8215 8216 8214 8213 8210 8211 8209 8208 8211 8212 8208 8210 8209 8208 8211 8207 8208 8207 8205 8204 8204 8209 8203 8205 8207 8205 8205 8201 8202 8201 8205 8209 8207 8207 8203 8200 8201 8199 8198 8194 8193 8191 8194 8190 8192 8186 8189 8189 8189 8189 8193 8192 8191 8185 8184 8184 8183 8180 8184 8180 8177 8173 8172 8168 8171 8171 8169 8166 8169 8168 8165 8164 8165 8158 8159 8164 8160 
8217 8221 8217 8216 8215 8214 8210 8208 8209 8209 8207 8211 8211 8207 8209 8208 8208 8210 8205 8208 8209 8205 8204 8205 8207 8204 8204 8204 8205 8203 8200 8199 8201 8204 8208 8205 8204 8205 8200 8197 8197 8198 8196 8195 8191 8190 8190 8191 8190 8190 8186 8184 8187 8186 8190 8189 8186 8184 8185 8181 8184 8182 8181 8177 8173 8174 8168 8168 8172 8168 8169 8169 8166 8165 8165 8167 8162 8159 8162 8162 
8217 8215 8216 8215 8216 8211 8210 8211 8210 8210 8208 8212 8210 8208 8208 8208 8207 8205 8207 8205 8206 8205 8203 8205 8205 8201 8202 8199 8204 8201 8199 8199 8201 8203 8208 8208 8204 8202 8199 8196 8198 8194 8197 8196 8191 8188 8185 8186 8186 8187 8187 8183 8186 8185 8186 8189 8186 8184 8183 8179 8179 8184 8181 8179 8176 8173 8173 8174 8171 8171 8170 8166 8167 8165 8166 8167 8159 8160 8160 8159 
8215 8219 8217 8215 8216 8209 8211 8209 8207 8208 8207 8209 8208 8205 8209 8205 8206 8205 8202 8204 8205 8206 8201 8206 8206 8198 8199 8201 8201 8201 8198 8198 8200 8202 8206 8203 8204 8200 8196 8193 8197 8197 8194 8192 8176 8171 8168 8177 8183 8185 8184 8182 8183 8184 8185 8188 8185 8185 8183 8178 8181 8182 8178 8178 8175 8175 8173 8175 8172 8171 8171 8166 8166 8166 8167 8167 8160 8159 8164 8163 
8216 8214 8219 8213 8216 8213 8209 8205 8209 8206 8205 8208 8209 8207 8206 8207 8204 8203 8201 8203 8199 8203 8203 8203 8203 8198 8194 8198 8195 8198 8195 8194 8197 8197 8200 8201 8201 8197 8192 8191 8195 8196 8190 8188 8139 8106 8099 8144 8163 8178 8184 8182 8182 8178 8176 8188 8186 8187 8183 8181 8179 8182 8178 8179 8177 8178 8175 8175 8175 8173 8171 8171 8170 8168 8165 8165 8162 8162 8164 8159 
8213 8217 8214 8215 8216 8209 8208 8206 8207 8207 8207 8210 8208 8208 8207 8206 8202 8203 8200 8202 8201 8200 8197 8201 8202 8194 8163 8150 8169 8197 8194 8194 8192 8180 8181 8192 8191 8191 8182 8144 8161 8176 8187 8179 8142 8104 8084 8110 8134 8160 8156 8171 8162 8126 8128 8159 8181 8184 8185 8183 8179 8180 8178 8179 8181 8179 8176 8173 8175 8174 8171 8171 8169 8169 8168 8169 8164 8163 8165 8158 
8212 8214 8219 8212 8212 8211 8206 8207 8210 8208 8208 8207 8206 8204 8204 8201 8199 8200 8201 8200 8199 8197 8196 8198 8201 8195 8173 8100 8175 8195 8188 8189 8159 8129 8113 8121 8128 8130 8119 8112 8123 8148 8145 8130 8127 8135 8130 8150 8164 8171 8165 8131 8136 8081 8091 8142 8177 8182 8185 8184 8183 8183 8180 8181 8179 8177 8174 8175 8176 8173 8172 8169 8164 8168 8168 8170 8163 8165 8165 8163 
8213 8215 8216 8214 8211 8207 8206 8207 8207 8209 8207 8207 8205 8205 8203 8201 8200 8200 8198 8200 8198 8196 8192 8194 8195 8193 8172 8111 8182 8192 8187 8171 8146 8111 8092 8091 8091 8097 8111 8117 8149 8157 8158 8135 8162 8130 8111 8123 8133 8168 8175 8155 8108 8084 8112 8172 8180 8182 8184 8184 8182 8181 8175 8178 8177 8181 8176 8173 8177 8174 8173 8172 8173 8173 8170 8171 8167 8166 8168 8162 
8213 8215 8212 8214 8209 8207 8208 8205 8206 8205 8205 8205 8204 8205 8204 8200 8199 8198 8195 8194 8181 8169 8164 8173 8172 8165 8163 8127 8153 8176 8179 8160 8121 8093 8098 8103 8088 8099 8106 8121 8145 8182 8167 8119 8116 8133 8141 8103 8104 8121 8152 8102 8098 8075 8107 8144 8153 8157 8175 8182 8182 8164 8159 8165 8167 8176 8175 8176 8177 8175 8173 8176 8169 8170 8167 8168 8166 8165 8167 8165 
8212 8212 8214 8211 8213 8210 8210 8207 8210 8207 8206 8206 8204 8203 8202 8202 8197 8193 8187 8151 8142 8175 8194 8195 8197 8192 8156 8100 8097 8160 8164 8166 8114 8103 8096 8093 8086 8098 8099 8102 8122 8148 8140 8109 8115 8155 8174 8136 8110 8101 8105 8092 8093 8080 8130 8113 8136 8173 8183 8184 8176 8162 8160 8159 8162 8176 8177 8177 8179 8174 8173 8174 8172 8167 8169 8173 8168 8168 8167 8169 
8212 8213 8213 8213 8214 8210 8208 8206 8208 8205 8205 8207 8201 8203 8202 8206 8199 8192 8147 8151 8188 8193 8198 8199 8197 8195 8164 8153 8131 8181 8158 8153 8120 8109 8094 8088 8086 8104 8097 8094 8091 8093 8112 8104 8115 8100 8152 8132 8084 8103 8134 8105 8088 8091 8118 8101 8116 8169 8182 8183 8168 8164 8160 8159 8167 8177 8175 8176 8174 8172 8169 8172 8168 8165 8168 8174 8166 8165 8169 8163 
8211 8213 8216 8212 8214 8209 8209 8204 8208 8206 8205 8206 8205 8202 8202 8202 8200 8195 8147 8190 8195 8195 8193 8197 8198 8193 8190 8190 8141 8180 8165 8121 8105 8082 8082 8095 8091 8090 8096 8092 8088 8092 8093 8105 8117 8101 8097 8119 8085 8080 8100 8100 8084 8103 8099 8117 8111 8150 8181 8179 8167 8167 8160 8158 8171 8178 8178 8176 8176 8172 8169 8171 8167 8167 8170 8169 8168 8163 8170 8165 
8215 8215 8217 8214 8213 8212 8210 8207 8208 8208 8206 8204 8204 8201 8202 8202 8202 8196 8181 8197 8197 8196 8191 8192 8173 8167 8174 8185 8124 8120 8107 8130 8136 8093 8093 8093 8095 8090 8115 8097 8098 8109 8111 8155 8128 8101 8121 8134 8089 8087 8092 8090 8085 8105 8104 8115 8115 8131 8177 8176 8163 8170 8159 8161 8177 8177 8175 8177 8174 8169 8169 8169 8169 8167 8169 8172 8170 8166 8169 8167 
8215 8220 8219 8215 8215 8213 8211 8211 8208 8206 8205 8207 8203 8200 8201 8206 8204 8205 8200 8200 8199 8197 8183 8136 8130 8163 8179 8173 8120 8089 8097 8165 8158 8109 8110 8095 8093 8095 8104 8099 8096 8119 8118 8167 8173 8157 8167 8125 8096 8088 8085 8080 8092 8113 8107 8112 8127 8134 8174 8171 8167 8169 8159 8169 8179 8176 8173 8172 8172 8172 8169 8170 8167 8167 8170 8172 8166 8167 8168 8166 
8215 8217 8220 8217 8218 8213 8210 8210 8209 8207 8203 8205 8206 8202 8204 8203 8203 8203 8201 8201 8199 8194 8160 8132 8187 8194 8195 8194 8180 8111 8116 8133 8142 8118 8101 8090 8088 8101 8103 8092 8107 8116 8143 8166 8168 8168 8159 8122 8159 8106 8084 8085 8095 8110 8111 8120 8158 8134 8172 8166 8169 8167 8159 8174 8177 8176 8172 8176 8173 8171 8171 8171 8168 8169 8169 8172 8168 8167 8169 8169 
8217 8218 8220 8216 8216 8213 8213 8206 8210 8207 8203 8205 8205 8205 8204 8203 8202 8201 8197 8200 8199 8191 8141 8185 8198 8197 8194 8191 8190 8141 8132 8105 8148 8106 8096 8096 8115 8117 8097 8092 8099 8112 8104 8106 8100 8116 8137 8142 8169 8154 8093 8092 8096 8111 8126 8125 8171 8162 8163 8160 8163 8164 8159 8178 8175 8173 8172 8176 8174 8171 8171 8168 8172 8169 8170 8173 8171 8166 8169 8166 
8220 8223 8220 8218 8217 8213 8211 8206 8211 8207 8208 8205 8204 8204 8203 8205 8202 8202 8200 8201 8200 8192 8187 8199 8201 8196 8187 8154 8162 8147 8117 8105 8135 8097 8101 8107 8133 8106 8093 8101 8096 8111 8097 8104 8090 8093 8094 8127 8124 8146 8107 8104 8143 8116 8119 8147 8177 8176 8159 8152 8159 8156 8163 8175 8177 8174 8176 8177 8174 8171 8173 8172 8171 8171 8170 8176 8170 8169 8170 8169 
8221 8223 8224 8220 8221 8215 8213 8206 8207 8207 8205 8207 8205 8203 8204 8203 8201 8201 8200 8200 8200 8196 8198 8198 8200 8196 8176 8157 8188 8182 8128 8105 8121 8119 8110 8107 8112 8099 8093 8100 8104 8111 8095 8100 8105 8105 8112 8147 8089 8088 8095 8134 8171 8158 8115 8160 8177 8177 8160 8149 8156 8157 8172 8178 8175 8175 8175 8177 8174 8175 8174 8171 8171 8169 8173 8175 8174 8171 8171 8168 
8219 8224 8222 8219 8222 8213 8213 8208 8209 8207 8206 8211 8203 8203 8201 8202 8198 8200 8198 8200 8199 8199 8199 8202 8202 8198 8196 8193 8190 8178 8140 8085 8088 8112 8109 8111 8115 8105 8100 8092 8097 8103 8097 8099 8103 8109 8117 8140 8100 8087 8088 8098 8162 8179 8135 8137 8182 8174 8156 8153 8156 8161 8175 8179 8178 8177 8178 8179 8177 8177 8176 8176 8175 8175 8174 8174 8171 8172 8173 8173 
8220 8219 8221 8219 8220 8212 8208 8209 8207 8207 8204 8206 8203 8200 8202 8199 8198 8198 8196 8199 8199 8198 8202 8201 8202 8198 8194 8191 8187 8143 8123 8117 8094 8120 8111 8105 8094 8099 8107 8095 8103 8104 8102 8103 8101 8094 8104 8110 8107 8112 8089 8090 8142 8178 8170 8129 8172 8165 8154 8152 8154 8169 8178 8181 8179 8177 8180 8178 8180 8178 8179 8178 8176 8175 8175 8175 8173 8169 8175 8176 
8218 8218 8219 8215 8218 8215 8211 8206 8210 8202 8204 8204 8203 8199 8199 8199 8199 8199 8201 8200 8198 8199 8200 8201 8203 8195 8190 8157 8126 8104 8137 8157 8106 8110 8100 8094 8093 8099 8097 8096 8101 8103 8101 8109 8097 8111 8122 8105 8126 8154 8101 8093 8143 8180 8182 8146 8158 8155 8151 8150 8153 8176 8180 8183 8181 8180 8180 8180 8179 8178 8180 8178 8176 8177 8174 8176 8175 8174 8177 8173 
8217 8220 8218 8216 8218 8211 8209 8208 8205 8207 8204 8205 8203 8203 8196 8200 8196 8201 8197 8201 8197 8200 8200 8198 8199 8194 8174 8114 8099 8102 8117 8118 8110 8093 8091 8091 8091 8097 8097 8094 8103 8101 8102 8101 8109 8151 8130 8104 8144 8169 8140 8106 8151 8180 8184 8175 8157 8150 8151 8151 8158 8182 8183 8184 8185 8182 8181 8181 8181 8179 8184 8184 8177 8179 8178 8179 8176 8174 8177 8174 
8215 8220 8219 8218 8216 8212 8212 8207 8208 8206 8205 8206 8203 8201 8201 8201 8199 8202 8198 8200 8198 8199 8198 8198 8198 8179 8148 8104 8097 8099 8098 8119 8099 8084 8090 8091 8092 8099 8096 8100 8113 8104 8102 8102 8103 8112 8119 8108 8159 8170 8171 8122 8149 8182 8184 8186 8165 8149 8156 8151 8167 8182 8183 8188 8184 8182 8182 8182 8183 8184 8184 8185 8183 8183 8182 8184 8178 8177 8180 8177 
8219 8222 8218 8216 8217 8214 8211 8208 8210 8207 8206 8206 8203 8201 8204 8203 8203 8200 8199 8202 8200 8198 8197 8197 8197 8186 8134 8102 8099 8098 8100 8117 8101 8089 8090 8094 8099 8103 8095 8101 8099 8101 8102 8103 8101 8104 8107 8120 8157 8175 8179 8152 8155 8183 8185 8184 8160 8152 8158 8158 8176 8187 8188 8188 8189 8184 8183 8185 8184 8188 8185 8185 8181 8184 8183 8185 8181 8182 8181 8181 
8219 8223 8219 8219 8216 8215 8212 8212 8212 8210 8210 8209 8207 8204 8204 8204 8203 8203 8201 8203 8201 8197 8194 8196 8196 8151 8112 8098 8099 8097 8114 8133 8121 8102 8094 8099 8098 8106 8098 8106 8101 8104 8102 8106 8105 8109 8134 8137 8131 8175 8179 8177 8180 8185 8184 8181 8158 8154 8158 8161 8183 8190 8189 8190 8187 8185 8186 8186 8187 8186 8184 8187 8186 8184 8184 8188 8181 8183 8181 8183 
8220 8223 8219 8216 8216 8215 8212 8211 8212 8214 8212 8212 8205 8206 8205 8206 8204 8205 8203 8203 8201 8200 8193 8198 8196 8175 8161 8105 8096 8099 8132 8153 8137 8113 8095 8093 8098 8105 8098 8100 8107 8105 8103 8110 8117 8155 8185 8182 8141 8166 8187 8185 8183 8184 8185 8170 8153 8157 8158 8170 8183 8190 8188 8189 8187 8187 8188 8185 8187 8187 8189 8187 8190 8187 8188 8187 8186 8180 8187 8181 
8222 8221 8220 8220 8219 8215 8214 8214 8214 8215 8214 8213 8207 8209 8207 8207 8207 8207 8205 8205 8202 8198 8199 8198 8196 8183 8167 8113 8097 8096 8119 8139 8121 8101 8097 8098 8096 8105 8101 8099 8104 8106 8104 8112 8126 8180 8187 8188 8161 8167 8190 8192 8196 8194 8190 8162 8153 8159 8163 8180 8189 8189 8191 8191 8187 8187 8187 8188 8189 8189 8189 8192 8189 8190 8189 8191 8183 8182 8188 8183 
8219 8221 8223 8219 8220 8217 8217 8212 8217 8216 8213 8213 8210 8208 8209 8209 8208 8207 8206 8204 8201 8199 8194 8185 8171 8158 8146 8134 8110 8099 8117 8140 8120 8113 8115 8102 8099 8108 8097 8100 8107 8105 8116 8123 8164 8159 8184 8184 8184 8182 8186 8186 8188 8192 8182 8161 8154 8163 8172 8189 8188 8190 8188 8192 8187 8188 8191 8190 8188 8188 8189 8190 8191 8189 8188 8191 8184 8183 8185 8180 
8221 8225 8223 8222 8224 8218 8217 8217 8216 8215 8214 8211 8210 8209 8209 8211 8212 8211 8209 8207 8203 8187 8166 8166 8161 8154 8150 8148 8137 8116 8118 8146 8129 8124 8120 8114 8108 8106 8097 8098 8108 8114 8118 8144 8202 8199 8152 8184 8198 8197 8196 8195 8195 8193 8171 8160 8158 8168 8183 8195 8190 8190 8190 8191 8189 8191 8186 8188 8191 8191 8192 8192 8193 8193 8191 8192 8186 8186 8185 8183 
8219 8227 8224 8223 8224 8224 8219 8219 8219 8215 8214 8212 8212 8208 8212 8211 8211 8214 8210 8208 8205 8187 8166 8171 8172 8165 8164 8162 8159 8158 8161 8171 8162 8125 8127 8117 8109 8120 8101 8099 8107 8125 8131 8147 8225 8229 8187 8194 8229 8225 8227 8219 8218 8208 8167 8159 8162 8168 8191 8201 8189 8194 8187 8190 8191 8189 8190 8191 8190 8190 8194 8192 8193 8194 8193 8193 8188 8179 8186 8188 
8224 8223 8227 8224 8228 8222 8220 8219 8222 8217 8213 8214 8210 8211 8211 8212 8214 8215 8208 8211 8205 8198 8181 8187 8192 8193 8191 8180 8172 8167 8159 8149 8154 8147 8137 8119 8136 8129 8116 8108 8114 8127 8134 8151 8194 8196 8191 8201 8212 8221 8234 8242 8245 8214 8167 8166 8171 8180 8191 8189 8191 8190 8188 8190 8189 8186 8186 8191 8191 8192 8191 8193 8193 8194 8193 8193 8189 8187 8187 8183 
8220 8223 8226 8226 8224 8223 8221 8222 8220 8217 8216 8214 8214 8210 8209 8211 8212 8211 8209 8208 8204 8201 8172 8168 8180 8198 8191 8171 8140 8144 8152 8147 8156 8155 8139 8122 8136 8115 8120 8134 8120 8122 8148 8165 8160 8181 8192 8202 8209 8215 8232 8231 8226 8195 8180 8186 8182 8188 8190 8187 8185 8189 8186 8188 8185 8186 8183 8188 8190 8191 8194 8192 8196 8196 8190 8191 8187 8186 8187 8181 
8226 8225 8227 8226 8226 8222 8222 8218 8218 8219 8215 8215 8210 8208 8209 8212 8211 8211 8206 8204 8202 8198 8172 8159 8163 8165 8175 8180 8175 8169 8167 8164 8160 8159 8152 8136 8117 8122 8131 8139 8133 8131 8161 8153 8145 8169 8201 8200 8199 8212 8217 8214 8208 8195 8185 8186 8182 8187 8190 8185 8184 8186 8183 8187 8184 8184 8186 8188 8189 8192 8192 8192 8192 8190 8192 8192 8189 8182 8187 8188 
8223 8222 8225 8221 8223 8223 8217 8216 8216 8217 8210 8212 8207 8205 8209 8211 8209 8210 8205 8205 8203 8197 8181 8167 8169 8171 8175 8176 8173 8165 8161 8161 8158 8159 8163 8156 8153 8155 8153 8153 8151 8146 8148 8152 8151 8161 8174 8184 8185 8192 8193 8194 8197 8195 8190 8188 8186 8195 8193 8186 8184 8184 8183 8187 8181 8184 8181 8187 8188 8190 8190 8189 8192 8191 8192 8193 8186 8180 8186 8183 
8220 8224 8224 8222 8224 8219 8217 8217 8220 8213 8211 8210 8209 8208 8209 8211 8208 8207 8203 8204 8204 8200 8193 8181 8181 8184 8182 8180 8176 8163 8157 8159 8156 8155 8157 8153 8150 8155 8155 8152 8150 8149 8143 8148 8145 8153 8163 8174 8181 8186 8192 8200 8209 8208 8201 8203 8202 8205 8189 8183 8181 8186 8183 8185 8183 8180 8185 8186 8189 8186 8191 8193 8190 8188 8192 8190 8186 8182 8185 8182 
8218 8224 8223 8223 8223 8218 8215 8213 8216 8212 8211 8210 8207 8206 8210 8208 8206 8207 8204 8206 8204 8200 8198 8196 8180 8190 8194 8197 8190 8178 8162 8158 8157 8155 8158 8158 8155 8157 8152 8153 8153 8152 8147 8152 8151 8158 8165 8178 8187 8194 8203 8214 8220 8219 8215 8217 8210 8189 8182 8181 8185 8181 8181 8181 8182 8178 8183 8185 8185 8186 8188 8189 8189 8187 8188 8189 8183 8182 8187 8184 
8221 8222 8224 8221 8219 8214 8215 8213 8215 8213 8209 8212 8206 8208 8209 8208 8207 8204 8203 8207 8201 8204 8200 8199 8174 8168 8187 8204 8209 8203 8176 8166 8160 8158 8162 8164 8159 8162 8154 8156 8155 8158 8152 8156 8157 8164 8176 8185 8190 8200 8211 8211 8210 8207 8207 8208 8200 8180 8174 8177 8181 8180 8181 8183 8181 8181 8181 8186 8185 8186 8188 8187 8185 8188 8189 8190 8182 8180 8184 8181 
8217 8221 8224 8217 8215 8213 8213 8212 8212 8211 8209 8209 8210 8204 8205 8206 8205 8206 8199 8202 8203 8202 8200 8200 8182 8163 8170 8185 8196 8201 8192 8178 8170 8169 8169 8167 8165 8170 8164 8166 8164 8166 8158 8161 8167 8179 8183 8185 8183 8187 8194 8192 8193 8185 8187 8197 8189 8177 8178 8175 8177 8179 8179 8181 8181 8181 8184 8184 8185 8186 8188 8187 8185 8187 8187 8187 8183 8182 8183 8184 
8217 8218 8216 8209 8214 8210 8213 8207 8210 8208 8205 8208 8206 8202 8203 8201 8203 8201 8201 8201 8199 8199 8194 8199 8188 8178 8168 8173 8186 8191 8183 8174 8163 8163 8164 8165 8160 8164 8165 8169 8167 8167 8165 8163 8166 8173 8173 8175 8175 8178 8186 8189 8187 8184 8189 8197 8178 8173 8173 8173 8176 8179 8178 8176 8179 8179 8182 8182 8184 8188 8188 8190 8187 8186 8187 8188 8181 8180 8184 8181 
8221 8217 8212 8207 8207 8206 8202 8200 8202 8203 8202 8199 8201 8198 8200 8199 8200 8198 8196 8199 8194 8193 8191 8198 8192 8190 8183 8186 8185 8180 8181 8171 8158 8165 8163 8160 8156 8160 8159 8165 8166 8167 8161 8164 8164 8167 8167 8176 8180 8184 8190 8191 8191 8185 8194 8198 8179 8176 8176 8174 8177 8178 8179 8182 8183 8182 8184 8187 8191 8191 8190 8192 8188 8186 8188 8188 8179 8183 8184 8182 
8245 8213 8211 8203 8204 8197 8201 8200 8199 8201 8198 8197 8198 8195 8196 8194 8195 8196 8193 8195 8193 8195 8190 8195 8197 8195 8189 8189 8187 8179 8180 8178 8171 8164 8169 8166 8160 8163 8162 8166 8167 8170 8166 8169 8168 8174 8176 8181 8185 8187 8195 8197 8199 8195 8199 8203 8189 8183 8178 8177 8176 8181 8181 8182 8185 8187 8186 8189 8191 8190 8187 8192 8191 8190 8184 8191 8181 8185 8187 8183 


