P2
80 60
8261
8254 8260 8259 8254 8258 8258 8253 8259 8254 8250 8249 8249 8251 8251 8251 8250 8250 8252 8252 8250 8251 8251 8251 8248 8246 8249 8250 8245 8251 8252 8249 8253 8249 8253 8256 8257 8257 8256 8248 8254 8254 8258 8251 8251 8252 8250 8248 8244 8240 8241 8237 8239 8234 8233 8230 8229 8228 8226 8229 8227 8224 8229 8226 8223 8224 8222 8222 8223 8219 8225 8229 8231 8228 8235 8230 8234 8229 8227 8226 8227 
8256 8256 8260 8255 8255 8256 8254 8258 8253 8253 8250 8250 8252 8252 8253 8252 8248 8252 8252 8254 8251 8253 8249 8248 8247 8250 8250 8249 8249 8251 8251 8251 8249 8250 8253 8257 8255 8253 8253 8253 8252 8255 8251 8252 8254 8249 8251 8242 8243 8240 8241 8239 8235 8232 8229 8228 8231 8229 8229 8228 8230 8230 8227 8223 8224 8221 8226 8221 8223 8221 8223 8230 8230 8230 8232 8234 8237 8233 8233 8225 
8257 8257 8257 8252 8255 8254 8255 8258 8252 8250 8248 8250 8253 8251 8247 8253 8251 8252 8252 8250 8251 8254 8252 8248 8245 8249 8249 8247 8249 8251 8249 8255 8249 8251 8255 8258 8257 8253 8248 8253 8251 8253 8252 8250 8251 8249 8251 8246 8242 8243 8240 8237 8233 8233 8230 8228 8228 8228 8229 8226 8226 8229 8225 8220 8222 8220 8225 8225 8223 8222 8223 8225 8225 8229 8231 8231 8235 8229 8230 8232 
8252 8254 8255 8252 8253 8253 8256 8258 8254 8253 8251 8249 8249 8249 8250 8249 8249 8248 8250 8249 8249 8249 8249 8246 8247 8246 8248 8244 8250 8252 8247 8248 8250 8248 8251 8255 8252 8252 8252 8250 8247 8253 8250 8250 8251 8248 8249 8245 8239 8238 8239 8237 8232 8231 8227 8226 8228 8225 8223 8223 8224 8227 8222 8220 8219 8223 8221 8225 8224 8222 8222 8222 8220 8222 8226 8228 8228 8230 8226 8224 
8251 8250 8252 8249 8253 8248 8253 8252 8253 8246 8247 8250 8249 8250 8249 8247 8250 8247 8250 8248 8248 8250 8246 8245 8245 8245 8247 8243 8248 8250 8247 8249 8249 8248 8250 8253 8252 8253 8249 8254 8250 8250 8246 8250 8245 8242 8243 8241 8236 8239 8236 8235 8231 8228 8224 8223 8226 8221 8225 8224 8219 8222 8221 8215 8215 8216 8217 8223 8219 8222 8218 8220 8219 8219 8220 8222 8225 8223 8224 8227 
8250 8251 8250 8251 8254 8249 8253 8252 8251 8244 8244 8245 8245 8246 8247 8247 8244 8245 8248 8246 8248 8249 8246 8243 8241 8244 8245 8243 8246 8247 8246 8245 8248 8245 8244 8251 8250 8248 8248 8246 8248 8249 8247 8246 8246 8242 8241 8238 8235 8234 8233 8230 8226 8227 8225 8222 8221 8219 8221 8218 8219 8220 8218 8215 8217 8215 8216 8216 8214 8216 8218 8218 8214 8214 8213 8215 8221 8217 8219 8213 
8249 8252 8252 8253 8252 8250 8251 8251 8247 8244 8245 8246 8245 8244 8243 8245 8245 8245 8246 8244 8245 8245 8245 8244 8242 8245 8244 8241 8245 8244 8245 8247 8243 8244 8247 8248 8247 8248 8245 8246 8245 8245 8243 8244 8241 8239 8242 8235 8233 8233 8233 8231 8223 8223 8221 8220 8218 8218 8219 8217 8214 8217 8214 8214 8215 8213 8215 8214 8211 8216 8215 8213 8211 8211 8209 8210 8212 8211 8211 8209 
8245 8251 8250 8245 8254 8248 8248 8249 8244 8244 8243 8242 8243 8242 8242 8244 8243 8242 8245 8246 8243 8246 8245 8243 8240 8240 8239 8237 8241 8241 8243 8241 8240 8242 8246 8245 8244 8246 8241 8244 8242 8243 8242 8241 8241 8236 8237 8233 8233 8231 8228 8227 8224 8221 8219 8219 8218 8215 8213 8211 8215 8216 8211 8212 8211 8210 8212 8211 8210 8213 8213 8210 8205 8208 8207 8209 8209 8205 8208 8206 
8246 8252 8251 8244 8251 8252 8250 8252 8247 8244 8242 8241 8243 8242 8240 8243 8242 8242 8245 8240 8242 8244 8243 8238 8240 8239 8242 8237 8241 8242 8239 8241 8241 8239 8242 8245 8246 8242 8242 8243 8238 8243 8240 8245 8239 8238 8237 8233 8229 8229 8229 8226 8222 8220 8215 8214 8216 8212 8209 8212 8213 8213 8210 8208 8206 8208 8206 8213 8209 8207 8210 8203 8202 8202 8204 8209 8202 8204 8207 8203 
8245 8245 8249 8244 8249 8249 8250 8246 8244 8240 8239 8239 8240 8241 8240 8240 8241 8244 8245 8241 8243 8242 8244 8236 8237 8238 8236 8236 8241 8241 8240 8240 8237 8237 8240 8244 8241 8240 8237 8240 8241 8238 8239 8241 8239 8235 8237 8230 8227 8229 8226 8225 8220 8219 8215 8215 8212 8211 8211 8209 8211 8212 8208 8205 8207 8204 8207 8207 8207 8204 8204 8202 8201 8201 8201 8207 8199 8202 8198 8200 
8243 8248 8247 8241 8247 8245 8246 8246 8240 8238 8239 8237 8239 8239 8238 8238 8238 8239 8242 8239 8240 8242 8239 8237 8232 8235 8235 8233 8238 8237 8235 8235 8235 8232 8235 8240 8239 8239 8235 8233 8234 8235 8235 8235 8234 8232 8230 8227 8227 8225 8225 8222 8217 8215 8212 8212 8210 8207 8209 8207 8208 8211 8206 8203 8205 8202 8203 8202 8202 8202 8201 8198 8195 8197 8195 8200 8197 8194 8196 8194 
8245 8247 8247 8243 8247 8244 8243 8242 8239 8238 8234 8238 8237 8238 8238 8237 8238 8239 8239 8236 8240 8240 8236 8237 8233 8233 8231 8232 8237 8236 8236 8235 8233 8232 8234 8235 8235 8236 8234 8232 8227 8232 8234 8232 8238 8229 8231 8228 8225 8224 8223 8224 8216 8216 8210 8208 8208 8207 8207 8206 8206 8210 8204 8200 8200 8200 8200 8201 8197 8196 8196 8197 8191 8195 8195 8195 8193 8192 8192 8189 
8244 8245 8246 8242 8244 8245 8243 8242 8240 8235 8235 8236 8233 8234 8236 8238 8235 8238 8241 8239 8237 8239 8235 8236 8233 8232 8232 8231 8234 8234 8238 8232 8230 8229 8234 8235 8235 8234 8230 8231 8228 8232 8232 8234 8232 8231 8231 8225 8225 8226 8222 8220 8217 8213 8212 8209 8208 8206 8208 8204 8205 8209 8202 8201 8197 8196 8196 8198 8194 8193 8193 8194 8191 8194 8191 8192 8191 8194 8191 8189 
8244 8246 8245 8238 8244 8239 8243 8241 8237 8237 8234 8235 8236 8235 8233 8234 8237 8236 8241 8239 8236 8236 8239 8233 8233 8230 8232 8230 8235 8232 8234 8230 8227 8224 8230 8232 8231 8228 8228 8229 8226 8232 8231 8232 8234 8228 8225 8223 8219 8222 8219 8219 8213 8214 8210 8209 8210 8206 8207 8207 8204 8208 8201 8199 8198 8197 8193 8194 8192 8193 8192 8190 8190 8192 8191 8191 8189 8191 8194 8185 
8242 8243 8244 8241 8243 8240 8238 8237 8236 8237 8232 8233 8233 8233 8234 8234 8236 8237 8237 8235 8236 8235 8233 8233 8231 8230 8232 8229 8227 8231 8234 8232 8228 8227 8230 8231 8231 8229 8227 8228 8225 8229 8228 8227 8231 8227 8228 8220 8218 8219 8220 8217 8215 8214 8209 8210 8206 8207 8203 8204 8205 8206 8200 8197 8196 8194 8190 8195 8191 8192 8187 8187 8186 8188 8188 8192 8188 8191 8193 8186 
8244 8244 8242 8238 8242 8240 8238 8237 8234 8232 8232 8235 8233 8235 8233 8236 8234 8235 8238 8234 8236 8234 8231 8230 8228 8230 8227 8228 8232 8230 8231 8230 8227 8229 8227 8229 8228 8227 8225 8225 8221 8225 8226 8227 8226 8225 8226 8223 8219 8220 8218 8217 8213 8213 8205 8207 8206 8205 8205 8204 8204 8206 8201 8194 8196 8191 8191 8189 8191 8189 8191 8186 8187 8187 8185 8188 8184 8189 8186 8186 
8241 8242 8242 8235 8240 8237 8240 8237 8235 8232 8231 8234 8233 8233 8230 8232 8230 8234 8234 8233 8232 8232 8231 8226 8227 8229 8229 8225 8230 8228 8232 8230 8226 8226 8227 8229 8229 8220 8220 8222 8218 8218 8221 8221 8222 8222 8220 8218 8218 8216 8215 8213 8210 8208 8204 8207 8205 8204 8205 8204 8202 8203 8201 8197 8195 8194 8195 8188 8188 8190 8191 8191 8186 8188 8187 8186 8187 8188 8185 8179 
8239 8242 8240 8237 8241 8238 8238 8236 8234 8231 8230 8233 8234 8232 8235 8229 8230 8229 8233 8230 8232 8232 8233 8227 8226 8229 8229 8225 8228 8228 8230 8229 8226 8224 8228 8227 8222 8221 8214 8216 8212 8215 8215 8217 8207 8211 8216 8215 8214 8215 8214 8215 8208 8208 8201 8206 8205 8207 8204 8203 8201 8204 8198 8197 8193 8190 8194 8193 8190 8193 8191 8190 8188 8186 8186 8190 8185 8183 8183 8181 
8241 8240 8239 8235 8236 8235 8237 8237 8234 8229 8229 8232 8234 8233 8230 8232 8229 8229 8233 8231 8230 8231 8231 8227 8228 8229 8229 8223 8227 8227 8229 8229 8226 8227 8226 8221 8206 8178 8163 8156 8152 8176 8168 8165 8131 8155 8211 8210 8211 8215 8216 8211 8206 8207 8203 8203 8201 8206 8205 8202 8202 8203 8199 8196 8192 8193 8194 8192 8192 8192 8189 8188 8187 8189 8186 8193 8185 8186 8185 8185 
8238 8239 8239 8235 8238 8237 8236 8233 8234 8231 8227 8231 8230 8231 8230 8230 8228 8231 8231 8227 8230 8231 8232 8226 8227 8225 8229 8225 8227 8226 8226 8227 8226 8224 8216 8206 8203 8182 8163 8156 8147 8129 8127 8164 8111 8110 8186 8210 8207 8211 8203 8202 8177 8174 8173 8178 8192 8200 8201 8200 8200 8202 8201 8195 8194 8194 8193 8195 8194 8196 8191 8190 8189 8189 8189 8191 8187 8184 8185 8184 
8236 8240 8238 8231 8237 8238 8233 8230 8231 8231 8228 8228 8233 8231 8226 8228 8227 8227 8228 8228 8227 8230 8227 8227 8227 8227 8224 8225 8225 8226 8228 8225 8224 8223 8225 8222 8224 8219 8210 8207 8164 8117 8113 8163 8121 8121 8186 8205 8203 8168 8140 8129 8128 8131 8126 8118 8141 8188 8198 8200 8203 8203 8198 8195 8197 8196 8195 8191 8193 8198 8194 8191 8187 8192 8192 8190 8183 8187 8185 8180 
8233 8233 8235 8234 8236 8234 8230 8230 8231 8229 8225 8231 8230 8230 8227 8228 8227 8226 8228 8224 8225 8226 8229 8226 8223 8224 8223 8221 8227 8226 8224 8225 8224 8222 8223 8225 8225 8216 8188 8197 8176 8133 8114 8126 8138 8175 8185 8167 8131 8120 8127 8170 8186 8189 8184 8165 8141 8148 8181 8190 8196 8202 8196 8196 8194 8200 8195 8193 8194 8196 8196 8189 8190 8191 8186 8190 8187 8184 8188 8181 
8234 8235 8236 8231 8239 8232 8234 8233 8227 8230 8228 8231 8230 8228 8230 8226 8227 8225 8228 8223 8227 8229 8224 8226 8222 8224 8223 8219 8223 8223 8224 8225 8222 8222 8223 8224 8223 8217 8188 8137 8148 8100 8126 8105 8135 8132 8124 8142 8127 8149 8184 8206 8202 8202 8200 8200 8194 8162 8132 8151 8190 8200 8196 8197 8197 8197 8197 8197 8197 8198 8194 8192 8190 8189 8188 8190 8185 8186 8186 8183 
8234 8234 8237 8233 8237 8234 8228 8230 8228 8227 8227 8228 8230 8230 8227 8229 8224 8224 8225 8221 8223 8228 8228 8222 8221 8221 8222 8215 8220 8222 8223 8222 8222 8221 8222 8224 8220 8211 8182 8133 8091 8096 8089 8096 8109 8102 8144 8148 8170 8201 8204 8205 8204 8203 8203 8204 8202 8198 8168 8128 8153 8194 8196 8194 8200 8199 8198 8197 8196 8196 8196 8192 8191 8193 8191 8189 8187 8188 8189 8185 
8235 8234 8237 8232 8235 8231 8229 8233 8229 8226 8229 8226 8228 8229 8227 8223 8224 8221 8220 8219 8222 8221 8223 8222 8220 8218 8216 8216 8217 8223 8220 8222 8222 8221 8223 8224 8221 8206 8178 8152 8105 8097 8110 8122 8153 8156 8130 8172 8202 8205 8207 8204 8204 8201 8198 8201 8203 8205 8195 8177 8140 8170 8194 8195 8197 8197 8198 8194 8197 8198 8193 8192 8191 8192 8191 8193 8187 8187 8184 8184 
8233 8235 8235 8231 8236 8233 8226 8231 8230 8230 8228 8227 8226 8228 8225 8224 8220 8220 8222 8219 8219 8222 8222 8219 8218 8220 8219 8215 8218 8222 8220 8222 8222 8219 8222 8221 8222 8217 8213 8211 8188 8114 8154 8176 8156 8143 8171 8202 8202 8202 8204 8207 8201 8202 8199 8202 8203 8204 8201 8200 8193 8179 8192 8197 8197 8196 8198 8195 8199 8199 8197 8193 8190 8194 8192 8194 8190 8189 8186 8186 
8237 8235 8236 8231 8235 8232 8230 8230 8229 8226 8227 8226 8227 8229 8224 8223 8221 8222 8221 8220 8220 8222 8221 8219 8220 8222 8218 8217 8220 8219 8218 8221 8221 8221 8221 8222 8222 8218 8217 8218 8210 8149 8173 8154 8115 8157 8201 8201 8199 8202 8200 8203 8201 8199 8197 8202 8209 8205 8206 8202 8199 8199 8197 8195 8200 8200 8199 8198 8198 8197 8194 8195 8194 8197 8194 8195 8193 8189 8190 8188 
8233 8235 8233 8232 8231 8229 8227 8230 8226 8225 8224 8226 8225 8227 8223 8222 8219 8220 8222 8221 8221 8222 8222 8220 8222 8221 8220 8215 8218 8222 8220 8222 8221 8219 8222 8219 8219 8216 8215 8215 8212 8171 8162 8140 8108 8131 8163 8174 8160 8146 8148 8169 8190 8198 8200 8199 8202 8205 8204 8203 8194 8195 8195 8196 8200 8198 8196 8198 8196 8197 8195 8197 8195 8193 8192 8194 8191 8192 8187 8188 
8234 8234 8234 8231 8234 8230 8229 8231 8227 8226 8228 8222 8225 8226 8226 8220 8219 8221 8222 8220 8219 8220 8221 8221 8220 8221 8219 8215 8222 8219 8220 8222 8220 8221 8223 8222 8219 8219 8214 8214 8211 8179 8109 8107 8128 8123 8108 8108 8112 8105 8102 8102 8120 8153 8187 8199 8202 8203 8202 8199 8155 8147 8165 8181 8194 8196 8197 8199 8194 8195 8195 8196 8192 8194 8192 8192 8190 8192 8191 8185 
8232 8231 8232 8229 8232 8231 8231 8230 8229 8228 8229 8225 8223 8226 8224 8223 8223 8219 8220 8219 8221 8219 8220 8220 8219 8220 8220 8219 8220 8221 8221 8221 8221 8220 8223 8221 8220 8217 8213 8213 8204 8134 8108 8115 8139 8103 8104 8105 8133 8111 8100 8097 8121 8115 8130 8184 8197 8205 8200 8189 8138 8141 8147 8155 8189 8197 8197 8198 8197 8197 8193 8193 8192 8193 8193 8193 8191 8190 8192 8188 
8233 8233 8234 8230 8237 8229 8230 8229 8227 8228 8228 8228 8226 8223 8224 8224 8219 8224 8225 8218 8218 8218 8222 8219 8219 8221 8222 8219 8221 8220 8219 8218 8218 8220 8217 8221 8218 8215 8213 8210 8189 8131 8111 8115 8124 8120 8121 8139 8098 8093 8097 8096 8100 8155 8136 8132 8190 8203 8200 8170 8137 8143 8145 8162 8192 8198 8201 8196 8194 8193 8192 8193 8189 8194 8192 8194 8192 8191 8192 8190 
8233 8235 8236 8231 8235 8232 8231 8232 8229 8228 8226 8224 8225 8227 8224 8223 8223 8220 8221 8217 8218 8218 8219 8220 8218 8224 8223 8218 8219 8220 8220 8216 8219 8216 8215 8217 8216 8215 8208 8203 8152 8143 8144 8131 8180 8132 8177 8194 8148 8111 8093 8096 8101 8149 8182 8140 8158 8197 8196 8151 8136 8146 8149 8179 8198 8199 8195 8196 8196 8194 8191 8193 8190 8197 8191 8193 8190 8193 8192 8190 
8233 8239 8240 8233 8234 8236 8232 8231 8229 8229 8226 8225 8223 8227 8224 8224 8223 8223 8224 8217 8220 8219 8221 8223 8220 8220 8218 8217 8218 8218 8217 8216 8214 8215 8215 8217 8216 8211 8202 8185 8134 8188 8160 8135 8161 8149 8201 8198 8191 8186 8111 8094 8093 8161 8190 8190 8159 8194 8186 8140 8139 8151 8154 8187 8198 8194 8198 8195 8195 8192 8194 8192 8190 8198 8191 8192 8191 8190 8191 8189 
8237 8239 8236 8233 8238 8236 8234 8233 8230 8227 8224 8227 8227 8225 8225 8224 8222 8225 8224 8219 8221 8221 8221 8223 8220 8222 8216 8217 8219 8221 8218 8215 8212 8213 8212 8214 8208 8200 8195 8138 8169 8161 8134 8118 8128 8179 8184 8136 8138 8180 8110 8088 8101 8166 8192 8200 8194 8197 8169 8142 8150 8157 8167 8192 8198 8198 8198 8198 8197 8197 8197 8194 8192 8194 8196 8193 8194 8192 8194 8190 
8238 8241 8239 8235 8239 8238 8233 8230 8230 8227 8225 8225 8228 8229 8226 8225 8223 8224 8223 8223 8223 8223 8224 8222 8220 8220 8220 8215 8221 8218 8215 8217 8212 8212 8213 8207 8155 8136 8155 8131 8138 8107 8097 8100 8102 8131 8140 8094 8092 8099 8105 8088 8118 8191 8195 8200 8199 8197 8153 8146 8153 8161 8180 8198 8196 8198 8201 8197 8198 8195 8193 8193 8193 8198 8194 8194 8190 8194 8196 8188 
8238 8244 8240 8237 8240 8236 8237 8236 8234 8230 8228 8228 8227 8228 8227 8225 8223 8222 8225 8222 8226 8225 8224 8222 8218 8220 8217 8217 8221 8220 8217 8214 8214 8208 8210 8180 8125 8114 8100 8095 8093 8098 8097 8103 8109 8103 8105 8100 8092 8092 8091 8091 8140 8189 8197 8200 8198 8189 8145 8151 8158 8170 8190 8197 8198 8196 8197 8198 8197 8197 8196 8197 8195 8197 8192 8198 8196 8195 8196 8194 
8246 8246 8244 8237 8240 8239 8236 8237 8231 8228 8226 8228 8228 8225 8226 8224 8221 8221 8223 8223 8222 8224 8226 8221 8221 8222 8216 8215 8220 8217 8214 8214 8208 8207 8204 8175 8115 8107 8095 8088 8093 8099 8094 8103 8107 8102 8098 8101 8095 8101 8100 8097 8099 8150 8194 8196 8200 8176 8152 8158 8160 8177 8195 8196 8198 8198 8201 8198 8199 8203 8196 8197 8193 8199 8196 8198 8193 8194 8196 8194 
8244 8247 8245 8241 8243 8238 8239 8235 8229 8228 8229 8230 8225 8228 8224 8224 8221 8224 8224 8220 8222 8224 8224 8224 8220 8223 8218 8217 8216 8214 8210 8209 8206 8202 8192 8137 8112 8102 8083 8092 8090 8099 8098 8105 8119 8101 8096 8100 8094 8124 8133 8107 8101 8107 8158 8195 8198 8168 8163 8167 8165 8190 8197 8197 8198 8200 8200 8201 8200 8200 8201 8196 8198 8202 8197 8198 8199 8198 8196 8193 
8243 8241 8243 8240 8240 8238 8237 8232 8230 8229 8227 8229 8227 8222 8226 8221 8221 8222 8220 8221 8221 8222 8225 8224 8222 8221 8218 8215 8215 8216 8212 8210 8203 8191 8136 8121 8109 8101 8095 8108 8094 8099 8101 8095 8100 8091 8095 8092 8094 8099 8124 8162 8134 8111 8111 8172 8189 8163 8164 8166 8169 8198 8200 8199 8199 8198 8198 8202 8201 8202 8200 8201 8198 8200 8195 8203 8197 8195 8195 8200 
8239 8243 8242 8235 8240 8241 8235 8233 8232 8226 8228 8225 8226 8223 8221 8222 8221 8222 8223 8219 8223 8224 8223 8222 8221 8219 8216 8212 8214 8217 8212 8205 8201 8164 8112 8112 8098 8103 8098 8104 8097 8108 8106 8086 8094 8092 8091 8091 8090 8096 8108 8150 8189 8175 8138 8134 8167 8163 8165 8168 8175 8200 8200 8199 8201 8204 8202 8203 8202 8203 8202 8200 8201 8199 8198 8202 8199 8197 8198 8196 
8242 8243 8242 8237 8239 8238 8237 8236 8229 8229 8227 8224 8226 8226 8222 8220 8218 8220 8221 8223 8222 8223 8222 8221 8220 8221 8215 8212 8215 8214 8210 8198 8176 8130 8109 8109 8092 8095 8084 8098 8101 8092 8092 8084 8093 8088 8092 8092 8088 8091 8099 8165 8195 8195 8194 8177 8151 8162 8166 8163 8189 8205 8205 8205 8204 8205 8207 8205 8204 8207 8209 8203 8201 8204 8202 8204 8201 8200 8206 8195 
8240 8242 8243 8239 8240 8239 8236 8234 8231 8231 8230 8226 8226 8222 8224 8221 8219 8224 8224 8220 8219 8223 8223 8220 8219 8221 8215 8213 8215 8208 8181 8134 8128 8134 8106 8104 8090 8084 8074 8083 8078 8087 8089 8084 8095 8085 8092 8091 8087 8090 8098 8126 8187 8197 8196 8188 8161 8162 8164 8170 8200 8209 8204 8207 8206 8206 8206 8204 8208 8209 8210 8206 8203 8205 8206 8205 8203 8205 8201 8202 
8242 8242 8241 8240 8241 8236 8235 8235 8231 8229 8229 8231 8226 8223 8224 8224 8221 8223 8226 8224 8221 8224 8222 8220 8217 8220 8214 8215 8211 8168 8118 8127 8174 8164 8107 8106 8088 8083 8078 8085 8085 8089 8107 8097 8102 8096 8090 8082 8082 8095 8102 8106 8161 8196 8198 8173 8161 8164 8164 8182 8201 8207 8205 8205 8209 8207 8206 8210 8209 8210 8207 8208 8205 8211 8206 8205 8209 8203 8206 8201 
8240 8244 8240 8234 8239 8235 8234 8235 8235 8232 8229 8229 8231 8228 8227 8225 8224 8222 8225 8224 8220 8221 8220 8218 8217 8219 8213 8206 8169 8120 8135 8185 8185 8117 8098 8100 8088 8116 8087 8099 8116 8117 8175 8120 8126 8118 8090 8080 8080 8091 8105 8112 8149 8195 8193 8163 8159 8162 8165 8192 8204 8206 8206 8208 8205 8208 8214 8213 8207 8210 8209 8209 8208 8208 8210 8207 8205 8204 8201 8199 
8241 8243 8241 8235 8239 8237 8236 8236 8233 8236 8233 8228 8227 8227 8228 8226 8225 8224 8224 8225 8223 8222 8220 8220 8218 8219 8215 8177 8126 8133 8188 8198 8154 8104 8096 8089 8085 8144 8121 8125 8140 8106 8134 8117 8121 8138 8091 8082 8079 8094 8115 8119 8153 8193 8181 8159 8160 8162 8168 8200 8203 8208 8208 8206 8209 8208 8213 8209 8212 8211 8210 8212 8211 8210 8209 8210 8206 8203 8210 8201 
8242 8241 8241 8236 8239 8238 8237 8237 8236 8236 8235 8233 8232 8233 8228 8230 8226 8228 8227 8227 8224 8226 8223 8224 8222 8220 8212 8175 8149 8159 8169 8162 8116 8103 8099 8095 8096 8116 8165 8157 8108 8109 8107 8132 8127 8149 8099 8083 8088 8105 8115 8116 8141 8180 8167 8158 8162 8161 8183 8203 8208 8210 8208 8207 8210 8212 8214 8210 8213 8212 8214 8215 8214 8213 8214 8212 8207 8207 8206 8203 
8241 8246 8243 8239 8242 8240 8239 8237 8238 8237 8235 8230 8232 8230 8231 8229 8227 8228 8230 8227 8225 8226 8225 8229 8221 8212 8194 8179 8164 8167 8167 8140 8114 8112 8111 8102 8124 8139 8173 8154 8107 8107 8094 8109 8112 8141 8111 8091 8115 8124 8119 8120 8131 8152 8154 8160 8162 8166 8199 8210 8209 8211 8207 8209 8207 8211 8212 8211 8214 8214 8213 8215 8213 8216 8212 8215 8212 8208 8212 8209 
8243 8245 8244 8239 8244 8241 8239 8239 8236 8236 8233 8231 8232 8231 8227 8231 8231 8230 8233 8230 8227 8227 8225 8214 8208 8205 8196 8183 8173 8171 8168 8127 8149 8165 8138 8112 8136 8177 8188 8154 8149 8122 8106 8102 8111 8138 8152 8131 8169 8154 8123 8131 8159 8150 8155 8159 8161 8173 8199 8209 8205 8211 8210 8211 8208 8211 8212 8214 8211 8215 8215 8215 8213 8216 8212 8214 8210 8208 8208 8205 
8243 8246 8245 8241 8244 8246 8242 8242 8238 8237 8235 8231 8233 8234 8232 8231 8231 8229 8230 8229 8227 8226 8221 8207 8214 8219 8214 8193 8178 8176 8173 8145 8179 8176 8162 8119 8140 8193 8203 8157 8108 8098 8107 8106 8107 8154 8190 8183 8181 8153 8130 8152 8186 8162 8158 8162 8165 8194 8197 8201 8214 8213 8208 8207 8211 8210 8214 8216 8210 8215 8214 8216 8217 8218 8216 8217 8212 8205 8208 8207 
8241 8246 8248 8244 8248 8244 8244 8243 8239 8238 8234 8234 8232 8234 8230 8233 8233 8230 8232 8228 8229 8227 8224 8211 8216 8239 8236 8213 8190 8179 8174 8175 8175 8161 8152 8121 8127 8179 8163 8111 8110 8103 8102 8109 8105 8130 8178 8181 8181 8180 8150 8181 8185 8157 8156 8161 8175 8221 8212 8214 8216 8212 8209 8208 8208 8210 8214 8217 8214 8218 8223 8216 8215 8220 8216 8216 8214 8211 8211 8208 
8242 8248 8247 8243 8251 8246 8246 8241 8238 8241 8238 8238 8235 8237 8232 8233 8230 8230 8233 8227 8227 8229 8228 8206 8200 8220 8239 8215 8186 8178 8170 8168 8159 8140 8130 8119 8118 8136 8124 8117 8134 8117 8109 8105 8110 8129 8170 8181 8178 8179 8177 8193 8176 8159 8161 8165 8198 8225 8219 8218 8213 8212 8205 8206 8211 8210 8212 8215 8214 8217 8217 8220 8219 8220 8216 8216 8215 8211 8209 8208 
8242 8244 8250 8244 8247 8243 8245 8243 8239 8239 8238 8237 8232 8233 8229 8233 8229 8232 8227 8227 8226 8229 8227 8211 8195 8197 8198 8190 8187 8181 8175 8163 8158 8150 8137 8130 8119 8121 8118 8119 8119 8117 8113 8112 8116 8129 8152 8167 8160 8168 8182 8194 8186 8185 8190 8195 8197 8202 8205 8212 8207 8211 8208 8208 8208 8207 8212 8213 8217 8217 8218 8218 8216 8218 8213 8215 8213 8213 8207 8208 
8244 8244 8247 8241 8244 8245 8246 8245 8242 8238 8237 8232 8228 8233 8233 8233 8229 8230 8230 8225 8226 8225 8229 8223 8200 8197 8192 8187 8185 8188 8183 8178 8171 8167 8168 8162 8157 8157 8158 8163 8170 8172 8173 8174 8175 8174 8180 8183 8186 8189 8194 8202 8201 8205 8202 8199 8197 8197 8205 8210 8204 8208 8207 8205 8204 8208 8212 8213 8213 8217 8216 8214 8215 8217 8214 8216 8214 8211 8208 8205 
8244 8246 8245 8241 8244 8242 8246 8239 8241 8235 8235 8231 8228 8232 8232 8233 8228 8226 8229 8227 8226 8227 8226 8227 8218 8210 8200 8192 8188 8189 8184 8183 8174 8167 8171 8169 8165 8166 8166 8173 8179 8186 8184 8187 8185 8182 8182 8182 8190 8192 8199 8206 8205 8207 8205 8211 8213 8222 8227 8216 8204 8208 8207 8204 8206 8205 8209 8213 8213 8215 8216 8216 8215 8218 8216 8213 8209 8210 8216 8204 
8240 8246 8246 8240 8243 8241 8241 8238 8238 8235 8233 8231 8231 8232 8231 8230 8230 8228 8228 8227 8226 8225 8226 8226 8224 8231 8220 8206 8197 8196 8190 8188 8179 8171 8174 8173 8169 8169 8169 8176 8180 8187 8184 8186 8187 8184 8184 8181 8194 8202 8206 8212 8211 8213 8217 8228 8236 8243 8223 8206 8203 8205 8203 8200 8202 8206 8206 8211 8208 8212 8214 8215 8213 8218 8215 8212 8207 8206 8208 8202 
8242 8245 8244 8238 8242 8237 8240 8236 8234 8233 8234 8232 8229 8233 8231 8230 8228 8226 8226 8227 8223 8228 8225 8224 8224 8229 8231 8223 8216 8214 8208 8200 8186 8179 8180 8178 8173 8175 8175 8180 8186 8188 8189 8190 8190 8188 8188 8190 8201 8213 8221 8226 8222 8224 8238 8248 8242 8216 8203 8196 8198 8205 8202 8203 8205 8206 8208 8211 8209 8215 8216 8212 8211 8215 8211 8210 8208 8213 8210 8203 
8241 8243 8241 8233 8237 8239 8237 8237 8232 8229 8230 8229 8232 8227 8226 8225 8225 8225 8221 8223 8222 8227 8226 8222 8222 8225 8225 8217 8219 8226 8226 8218 8201 8190 8190 8186 8183 8179 8183 8195 8198 8201 8201 8198 8194 8191 8196 8197 8207 8223 8233 8230 8227 8239 8243 8239 8222 8208 8195 8194 8197 8202 8201 8201 8201 8204 8209 8209 8212 8216 8215 8214 8210 8214 8207 8210 8208 8208 8212 8209 
8239 8241 8237 8230 8234 8231 8233 8233 8232 8229 8228 8226 8227 8227 8222 8222 8219 8220 8220 8222 8220 8223 8222 8219 8217 8218 8223 8216 8214 8218 8222 8222 8213 8200 8198 8198 8195 8191 8190 8200 8203 8201 8204 8200 8194 8189 8198 8197 8203 8208 8213 8215 8227 8244 8239 8226 8217 8206 8196 8195 8197 8202 8202 8201 8201 8205 8208 8211 8211 8217 8210 8215 8212 8214 8207 8207 8208 8205 8210 8201 
8241 8234 8231 8223 8228 8225 8226 8221 8225 8226 8223 8223 8222 8225 8221 8219 8219 8217 8218 8215 8218 8217 8216 8215 8214 8217 8215 8210 8202 8198 8197 8201 8194 8187 8190 8190 8197 8192 8193 8196 8195 8197 8198 8198 8194 8193 8198 8199 8203 8210 8213 8216 8224 8236 8231 8228 8217 8207 8199 8198 8199 8204 8203 8201 8204 8208 8210 8212 8216 8219 8214 8214 8216 8214 8212 8207 8205 8206 8209 8206 
8261 8230 8225 8222 8222 8222 8224 8222 8222 8224 8220 8217 8221 8219 8215 8215 8212 8214 8213 8213 8216 8218 8212 8218 8212 8214 8213 8201 8198 8192 8191 8187 8186 8179 8177 8180 8188 8184 8185 8193 8192 8195 8199 8196 8199 8199 8205 8201 8201 8206 8212 8215 8226 8235 8231 8228 8222 8206 8199 8201 8200 8208 8205 8207 8206 8210 8213 8222 8222 8223 8221 8219 8215 8220 8213 8213 8209 8213 8210 8208 


