P2
80 60
8266
8240 8241 8238 8243 8244 8239 8245 8241 8242 8240 8244 8245 8246 8240 8243 8246 8247 8246 8250 8249 8250 8256 8256 8255 8251 8249 8251 8255 8257 8257 8257 8254 8256 8250 8251 8252 8255 8256 8257 8260 8255 8257 8252 8247 8248 8248 8246 8244 8241 8237 8236 8238 8237 8236 8235 8232 8233 8233 8226 8224 8222 8225 8219 8222 8219 8220 8215 8218 8219 8221 8218 8221 8217 8216 8217 8218 8221 8219 8220 8217 
8239 8238 8244 8242 8246 8244 8241 8236 8241 8241 8245 8246 8245 8242 8245 8247 8244 8244 8246 8249 8247 8258 8255 8251 8248 8254 8253 8258 8254 8256 8255 8257 8258 8253 8249 8250 8256 8258 8256 8260 8256 8256 8251 8248 8246 8245 8247 8242 8241 8238 8237 8234 8234 8237 8233 8233 8231 8232 8229 8224 8221 8221 8220 8216 8215 8219 8219 8220 8219 8219 8220 8217 8217 8217 8217 8218 8220 8222 8218 8216 
8235 8235 8240 8238 8241 8236 8234 8238 8241 8240 8238 8240 8238 8238 8242 8242 8242 8242 8243 8245 8243 8249 8250 8248 8246 8252 8248 8251 8252 8251 8256 8254 8252 8250 8255 8247 8256 8254 8258 8257 8257 8251 8246 8243 8243 8242 8244 8242 8240 8237 8235 8236 8233 8237 8234 8232 8231 8228 8228 8223 8224 8225 8218 8216 8215 8216 8215 8219 8221 8223 8221 8218 8219 8218 8218 8218 8223 8219 8217 8217 
8235 8227 8236 8237 8242 8235 8237 8236 8240 8240 8237 8234 8237 8237 8241 8239 8239 8237 8241 8242 8242 8248 8241 8243 8242 8247 8249 8249 8251 8251 8249 8249 8250 8248 8247 8248 8252 8253 8256 8256 8252 8248 8245 8236 8233 8228 8237 8234 8234 8232 8234 8233 8233 8233 8232 8229 8228 8227 8227 8224 8223 8223 8219 8214 8213 8215 8212 8216 8221 8221 8221 8223 8219 8220 8219 8220 8223 8222 8221 8215 
8236 8230 8237 8232 8240 8236 8238 8236 8238 8234 8233 8232 8233 8232 8231 8234 8232 8235 8234 8234 8238 8243 8239 8241 8240 8242 8247 8248 8247 8247 8246 8245 8249 8249 8248 8246 8250 8250 8255 8251 8248 8243 8238 8227 8199 8173 8196 8192 8197 8221 8232 8233 8229 8227 8230 8228 8230 8225 8224 8219 8220 8222 8218 8215 8212 8212 8211 8212 8216 8221 8220 8224 8220 8220 8218 8221 8222 8223 8223 8221 
8238 8230 8235 8236 8237 8232 8239 8234 8234 8233 8227 8231 8230 8229 8231 8229 8231 8233 8235 8241 8235 8239 8237 8239 8238 8241 8243 8243 8243 8243 8247 8248 8248 8246 8246 8245 8249 8250 8250 8250 8246 8244 8234 8197 8139 8131 8131 8118 8141 8213 8226 8227 8227 8227 8229 8227 8227 8224 8226 8220 8217 8218 8215 8212 8211 8212 8208 8212 8215 8218 8220 8220 8223 8219 8221 8226 8226 8222 8224 8220 
8237 8231 8234 8237 8235 8234 8237 8235 8233 8224 8226 8230 8231 8229 8233 8232 8232 8230 8236 8236 8237 8238 8238 8240 8238 8242 8239 8239 8242 8242 8245 8241 8245 8243 8242 8240 8242 8246 8246 8249 8242 8240 8231 8156 8121 8113 8104 8102 8151 8214 8224 8225 8224 8227 8230 8225 8225 8224 8219 8218 8214 8216 8211 8210 8213 8209 8207 8208 8207 8213 8216 8217 8219 8217 8219 8222 8224 8222 8221 8220 
8239 8236 8232 8235 8231 8229 8234 8236 8236 8223 8228 8230 8230 8229 8231 8231 8231 8231 8233 8234 8236 8237 8238 8238 8233 8239 8237 8238 8240 8241 8243 8241 8241 8242 8240 8239 8239 8241 8240 8241 8239 8238 8222 8141 8112 8100 8090 8095 8127 8212 8221 8220 8224 8223 8226 8221 8224 8221 8221 8215 8215 8214 8211 8211 8206 8209 8206 8205 8208 8206 8209 8214 8214 8213 8216 8218 8223 8220 8218 8217 
8240 8228 8231 8228 8230 8226 8234 8233 8234 8226 8231 8229 8231 8228 8230 8232 8228 8230 8231 8234 8234 8236 8235 8234 8232 8235 8237 8237 8241 8239 8239 8238 8239 8233 8234 8236 8238 8241 8241 8240 8234 8235 8214 8129 8103 8107 8090 8104 8166 8218 8219 8222 8221 8220 8220 8219 8222 8216 8216 8208 8213 8210 8209 8208 8208 8203 8203 8203 8202 8203 8204 8204 8205 8208 8206 8215 8215 8215 8214 8212 
8238 8226 8231 8232 8228 8230 8226 8232 8232 8231 8228 8228 8228 8223 8220 8224 8220 8222 8230 8233 8230 8234 8231 8230 8230 8231 8235 8236 8236 8234 8238 8234 8236 8235 8238 8234 8237 8239 8236 8236 8231 8230 8197 8112 8097 8104 8125 8165 8210 8220 8218 8220 8218 8217 8219 8217 8218 8218 8216 8209 8207 8207 8207 8203 8205 8204 8200 8201 8206 8202 8202 8199 8200 8200 8204 8207 8208 8208 8206 8208 
8234 8227 8230 8229 8226 8227 8225 8231 8231 8229 8227 8227 8224 8218 8219 8196 8196 8217 8222 8229 8228 8231 8231 8230 8229 8228 8235 8236 8235 8237 8235 8235 8231 8231 8232 8229 8231 8232 8229 8220 8210 8204 8171 8114 8110 8173 8207 8216 8219 8218 8218 8216 8215 8217 8217 8214 8213 8214 8213 8208 8206 8206 8204 8208 8201 8202 8202 8197 8201 8197 8198 8194 8196 8193 8196 8201 8202 8198 8200 8198 
8236 8232 8230 8228 8222 8224 8225 8225 8229 8226 8225 8224 8214 8192 8176 8146 8131 8183 8217 8225 8224 8227 8225 8218 8223 8228 8233 8232 8234 8235 8232 8234 8233 8230 8228 8229 8229 8231 8202 8148 8135 8136 8128 8114 8107 8133 8202 8218 8220 8219 8217 8218 8217 8218 8213 8214 8214 8215 8209 8206 8204 8204 8201 8204 8201 8199 8199 8195 8201 8197 8195 8194 8194 8193 8189 8196 8194 8197 8193 8192 
8238 8228 8226 8225 8225 8225 8228 8227 8226 8225 8224 8219 8179 8142 8124 8113 8111 8120 8189 8219 8222 8219 8199 8176 8207 8224 8232 8229 8230 8230 8230 8230 8227 8225 8224 8226 8232 8228 8215 8187 8165 8151 8153 8128 8121 8101 8149 8214 8216 8216 8216 8217 8214 8215 8215 8216 8210 8214 8205 8204 8204 8203 8199 8199 8202 8198 8198 8194 8195 8193 8190 8191 8187 8191 8187 8190 8190 8193 8188 8188 
8236 8231 8232 8231 8225 8225 8224 8226 8225 8224 8223 8218 8162 8120 8105 8108 8113 8117 8149 8168 8182 8174 8135 8159 8215 8228 8227 8230 8228 8229 8228 8227 8226 8228 8224 8223 8227 8226 8225 8223 8217 8211 8178 8122 8108 8103 8136 8207 8214 8214 8213 8216 8215 8214 8213 8211 8211 8209 8205 8202 8201 8199 8197 8196 8199 8198 8199 8195 8195 8190 8191 8188 8186 8185 8186 8188 8189 8185 8188 8184 
8233 8227 8229 8231 8226 8220 8222 8224 8225 8223 8225 8222 8205 8155 8110 8103 8113 8116 8120 8121 8125 8135 8163 8210 8217 8220 8225 8228 8226 8225 8228 8227 8226 8224 8225 8224 8225 8224 8222 8221 8215 8176 8128 8099 8110 8118 8119 8196 8214 8213 8211 8215 8212 8213 8212 8214 8208 8208 8206 8201 8198 8197 8196 8196 8197 8198 8193 8193 8193 8191 8187 8188 8188 8184 8182 8185 8186 8187 8180 8182 
8236 8226 8227 8234 8223 8221 8224 8227 8226 8222 8225 8226 8218 8195 8171 8167 8159 8151 8120 8107 8153 8182 8187 8214 8219 8223 8225 8226 8225 8225 8224 8224 8224 8223 8219 8221 8224 8223 8223 8220 8192 8140 8110 8093 8094 8153 8172 8201 8210 8211 8209 8213 8210 8209 8212 8207 8206 8204 8203 8199 8193 8194 8196 8194 8196 8200 8197 8194 8193 8188 8190 8189 8183 8184 8182 8184 8181 8183 8180 8180 
8235 8222 8230 8227 8225 8225 8221 8223 8223 8222 8225 8225 8219 8213 8218 8216 8215 8206 8126 8107 8136 8147 8191 8216 8214 8220 8223 8228 8223 8225 8223 8226 8222 8224 8219 8221 8216 8220 8217 8208 8155 8114 8101 8097 8093 8123 8188 8207 8208 8209 8208 8212 8206 8208 8204 8209 8207 8204 8199 8201 8194 8195 8191 8195 8196 8198 8196 8197 8193 8190 8190 8189 8188 8186 8182 8184 8180 8181 8180 8178 
8232 8226 8229 8226 8224 8224 8223 8227 8222 8224 8223 8222 8220 8221 8220 8218 8220 8191 8111 8105 8117 8130 8184 8216 8217 8221 8223 8224 8221 8218 8222 8216 8215 8206 8209 8213 8214 8210 8195 8165 8119 8111 8111 8151 8118 8108 8129 8175 8199 8207 8206 8207 8206 8209 8205 8202 8204 8204 8200 8195 8190 8191 8194 8196 8198 8196 8195 8194 8194 8193 8188 8190 8185 8186 8183 8182 8181 8180 8178 8178 
8230 8225 8226 8224 8221 8223 8226 8223 8227 8224 8222 8225 8223 8217 8219 8222 8216 8155 8122 8147 8147 8114 8122 8193 8209 8215 8220 8221 8219 8219 8218 8206 8168 8154 8159 8180 8179 8162 8152 8142 8128 8140 8139 8192 8175 8108 8109 8140 8183 8202 8202 8203 8203 8201 8205 8203 8204 8205 8204 8198 8194 8192 8194 8195 8196 8199 8197 8194 8194 8193 8192 8189 8188 8184 8183 8183 8181 8176 8178 8177 
8232 8221 8224 8221 8221 8222 8224 8221 8227 8222 8221 8222 8218 8219 8219 8220 8213 8135 8175 8171 8115 8111 8123 8137 8159 8203 8218 8220 8219 8206 8194 8156 8146 8145 8146 8148 8150 8146 8145 8141 8130 8111 8141 8186 8195 8155 8119 8166 8201 8200 8202 8203 8202 8200 8203 8199 8201 8200 8196 8194 8190 8192 8196 8195 8197 8197 8195 8195 8196 8194 8193 8191 8189 8186 8184 8183 8184 8182 8178 8175 
8231 8221 8219 8218 8214 8217 8212 8222 8224 8221 8217 8223 8217 8216 8214 8219 8214 8197 8207 8159 8112 8159 8137 8131 8105 8154 8207 8212 8211 8184 8149 8139 8140 8141 8141 8140 8144 8147 8146 8142 8122 8102 8103 8119 8139 8162 8151 8167 8178 8186 8191 8196 8197 8198 8202 8205 8202 8206 8198 8194 8191 8193 8194 8194 8197 8197 8199 8194 8197 8194 8194 8190 8188 8186 8185 8186 8186 8179 8179 8181 
8230 8225 8221 8223 8221 8221 8212 8223 8216 8223 8218 8217 8215 8213 8217 8218 8216 8214 8201 8125 8134 8202 8189 8149 8136 8130 8199 8214 8201 8145 8133 8131 8138 8135 8133 8135 8141 8149 8144 8135 8105 8105 8120 8131 8127 8127 8142 8125 8120 8120 8148 8185 8194 8200 8203 8203 8202 8200 8197 8190 8190 8192 8195 8196 8196 8200 8198 8195 8196 8196 8194 8194 8191 8188 8188 8188 8190 8185 8186 8183 
8232 8222 8223 8225 8223 8218 8209 8207 8212 8218 8218 8219 8215 8213 8215 8218 8217 8211 8177 8118 8167 8211 8206 8153 8171 8167 8205 8209 8190 8137 8137 8137 8133 8129 8131 8143 8143 8147 8145 8119 8101 8152 8167 8146 8153 8142 8128 8124 8120 8110 8111 8133 8177 8194 8200 8202 8204 8201 8197 8193 8192 8194 8197 8197 8199 8200 8200 8196 8195 8192 8196 8194 8188 8190 8189 8188 8193 8191 8187 8185 
8233 8224 8225 8225 8218 8219 8215 8211 8220 8218 8217 8218 8211 8214 8219 8218 8217 8215 8195 8161 8204 8215 8210 8184 8152 8201 8202 8192 8159 8129 8133 8133 8134 8135 8139 8149 8150 8150 8141 8107 8102 8120 8113 8107 8134 8153 8154 8123 8116 8121 8117 8113 8124 8176 8198 8198 8200 8200 8196 8191 8191 8194 8194 8198 8198 8200 8198 8198 8194 8193 8195 8192 8192 8192 8192 8193 8194 8192 8188 8185 
8227 8220 8222 8226 8217 8217 8211 8216 8218 8215 8219 8219 8217 8216 8215 8220 8216 8216 8213 8210 8212 8210 8173 8135 8115 8163 8158 8117 8111 8128 8133 8134 8135 8141 8140 8149 8152 8152 8142 8110 8101 8106 8099 8088 8094 8108 8114 8121 8119 8116 8115 8116 8111 8144 8193 8199 8200 8201 8197 8192 8193 8194 8193 8196 8200 8199 8199 8197 8195 8193 8195 8194 8191 8195 8192 8196 8196 8194 8190 8192 
8229 8215 8221 8222 8218 8215 8218 8211 8212 8214 8216 8220 8219 8216 8218 8217 8218 8215 8216 8211 8215 8210 8158 8112 8103 8108 8109 8099 8105 8128 8132 8133 8136 8145 8139 8142 8150 8141 8112 8110 8110 8113 8107 8091 8100 8147 8142 8120 8116 8139 8119 8107 8114 8131 8191 8198 8200 8204 8199 8196 8193 8195 8196 8199 8199 8200 8199 8198 8197 8193 8192 8193 8192 8193 8193 8196 8200 8198 8199 8192 
8224 8216 8218 8219 8217 8217 8210 8211 8215 8213 8216 8218 8219 8214 8214 8217 8218 8215 8214 8208 8199 8171 8132 8114 8103 8104 8108 8100 8105 8126 8135 8140 8143 8148 8143 8140 8140 8116 8099 8101 8102 8094 8089 8089 8126 8163 8161 8156 8142 8124 8120 8117 8112 8127 8184 8196 8199 8200 8199 8196 8191 8196 8196 8197 8198 8201 8200 8196 8195 8194 8193 8193 8193 8196 8193 8197 8199 8199 8200 8196 
8222 8214 8216 8219 8213 8214 8211 8212 8212 8213 8214 8218 8218 8213 8215 8218 8215 8215 8215 8191 8135 8121 8145 8152 8111 8149 8134 8118 8114 8134 8142 8146 8145 8142 8138 8139 8116 8097 8101 8097 8094 8095 8105 8114 8128 8121 8109 8101 8107 8098 8111 8119 8120 8114 8151 8192 8199 8205 8198 8197 8194 8196 8196 8198 8201 8199 8199 8195 8194 8195 8191 8192 8194 8195 8195 8199 8201 8202 8201 8200 
8223 8212 8216 8218 8213 8214 8215 8211 8216 8215 8217 8215 8215 8213 8217 8213 8218 8215 8210 8176 8122 8131 8160 8157 8134 8150 8170 8136 8168 8145 8146 8148 8151 8150 8144 8123 8098 8094 8102 8095 8100 8110 8120 8123 8132 8136 8115 8095 8099 8094 8115 8156 8141 8119 8128 8174 8195 8200 8197 8195 8196 8197 8196 8197 8201 8200 8197 8197 8193 8193 8196 8192 8193 8197 8194 8197 8203 8200 8202 8200 
8219 8214 8214 8218 8210 8215 8214 8210 8217 8212 8215 8220 8214 8213 8213 8215 8213 8211 8212 8194 8135 8151 8169 8174 8167 8163 8164 8147 8145 8139 8148 8146 8146 8144 8124 8102 8098 8100 8097 8094 8111 8111 8116 8127 8128 8129 8125 8108 8104 8095 8101 8125 8157 8161 8137 8147 8190 8199 8195 8193 8190 8192 8196 8198 8199 8199 8196 8194 8192 8192 8195 8192 8194 8198 8193 8200 8203 8203 8201 8200 
8219 8215 8212 8214 8214 8213 8212 8210 8213 8213 8214 8215 8210 8208 8213 8213 8214 8212 8208 8173 8164 8182 8190 8189 8188 8191 8179 8143 8116 8131 8138 8144 8143 8140 8106 8098 8095 8101 8095 8096 8106 8132 8137 8126 8116 8124 8123 8122 8114 8100 8098 8104 8116 8136 8133 8125 8162 8188 8191 8190 8192 8190 8195 8196 8194 8197 8195 8194 8193 8190 8192 8195 8196 8196 8193 8199 8198 8201 8200 8198 
8219 8214 8212 8213 8214 8212 8210 8210 8216 8211 8210 8214 8210 8206 8208 8212 8213 8211 8190 8165 8159 8147 8129 8127 8172 8175 8140 8113 8113 8128 8139 8135 8116 8119 8106 8096 8098 8106 8102 8105 8101 8108 8116 8134 8151 8150 8153 8144 8121 8119 8111 8109 8119 8130 8129 8142 8144 8161 8174 8186 8191 8193 8193 8194 8196 8196 8199 8190 8193 8192 8193 8191 8193 8194 8193 8199 8198 8202 8200 8197 
8221 8214 8212 8214 8212 8212 8211 8209 8215 8213 8210 8214 8205 8206 8207 8209 8210 8200 8170 8142 8123 8114 8126 8157 8158 8128 8124 8117 8114 8128 8130 8112 8102 8103 8106 8102 8104 8104 8103 8122 8130 8137 8144 8152 8175 8175 8169 8148 8115 8111 8116 8103 8109 8119 8130 8137 8148 8149 8151 8170 8188 8191 8192 8193 8195 8195 8194 8193 8195 8190 8192 8193 8191 8198 8192 8198 8197 8199 8197 8199 
8222 8210 8217 8214 8211 8210 8207 8211 8212 8210 8209 8211 8201 8199 8194 8187 8187 8176 8141 8130 8127 8132 8139 8151 8137 8121 8114 8115 8109 8117 8111 8127 8122 8112 8105 8113 8116 8114 8112 8161 8182 8176 8177 8162 8151 8139 8126 8112 8123 8127 8105 8104 8117 8131 8116 8125 8147 8151 8151 8149 8170 8189 8191 8192 8188 8191 8192 8191 8194 8192 8193 8193 8192 8192 8189 8194 8197 8199 8192 8192 
8223 8215 8216 8217 8215 8211 8212 8211 8210 8209 8207 8204 8182 8152 8154 8148 8145 8138 8138 8140 8147 8151 8150 8156 8117 8108 8113 8110 8109 8119 8118 8114 8124 8118 8113 8112 8116 8126 8126 8153 8173 8166 8158 8140 8117 8115 8112 8107 8132 8139 8122 8109 8114 8129 8119 8119 8141 8146 8149 8145 8151 8175 8185 8192 8191 8192 8191 8186 8189 8186 8187 8188 8191 8189 8188 8194 8194 8195 8194 8193 
8222 8219 8212 8216 8215 8210 8215 8212 8211 8204 8203 8186 8159 8150 8144 8151 8137 8134 8154 8181 8159 8153 8152 8130 8112 8111 8113 8117 8119 8128 8135 8121 8125 8126 8117 8121 8128 8127 8132 8132 8119 8102 8096 8100 8112 8108 8099 8098 8154 8170 8165 8126 8120 8124 8116 8116 8131 8145 8145 8150 8145 8154 8182 8189 8192 8190 8186 8188 8186 8188 8186 8187 8188 8188 8185 8189 8193 8192 8188 8189 
8225 8215 8216 8215 8212 8212 8214 8211 8215 8204 8197 8174 8166 8157 8167 8165 8141 8153 8192 8201 8185 8155 8148 8122 8111 8110 8112 8121 8126 8130 8124 8118 8127 8128 8121 8126 8126 8135 8135 8132 8104 8083 8081 8087 8101 8105 8091 8097 8161 8175 8175 8170 8151 8166 8129 8115 8124 8142 8149 8153 8155 8150 8161 8182 8187 8188 8187 8187 8184 8185 8183 8187 8187 8188 8188 8190 8190 8187 8186 8185 
8223 8213 8217 8218 8218 8213 8214 8212 8211 8209 8182 8167 8162 8164 8195 8155 8158 8194 8203 8200 8194 8178 8146 8132 8115 8113 8113 8124 8129 8129 8129 8124 8125 8131 8127 8126 8128 8135 8135 8134 8104 8086 8080 8084 8085 8092 8088 8104 8169 8175 8177 8179 8175 8176 8160 8117 8118 8134 8149 8158 8155 8151 8150 8164 8183 8189 8186 8188 8187 8189 8185 8184 8185 8184 8188 8190 8188 8190 8184 8183 
8224 8214 8219 8215 8216 8210 8213 8213 8210 8198 8170 8166 8162 8178 8188 8169 8196 8199 8204 8200 8201 8197 8165 8148 8123 8112 8118 8124 8128 8133 8131 8129 8125 8121 8119 8124 8128 8139 8136 8129 8132 8102 8112 8092 8084 8086 8094 8121 8170 8178 8174 8179 8179 8174 8135 8112 8119 8126 8143 8155 8157 8147 8147 8151 8176 8185 8185 8183 8186 8186 8185 8186 8185 8186 8185 8189 8187 8186 8183 8177 
8221 8215 8223 8218 8217 8216 8215 8211 8208 8178 8163 8165 8167 8194 8186 8197 8202 8200 8202 8203 8198 8198 8188 8157 8124 8114 8116 8122 8129 8132 8123 8117 8112 8119 8116 8126 8128 8132 8129 8121 8115 8121 8134 8114 8098 8094 8115 8163 8174 8176 8176 8173 8170 8158 8125 8121 8116 8124 8133 8150 8155 8149 8146 8149 8164 8184 8187 8188 8187 8185 8185 8185 8186 8188 8188 8190 8186 8187 8180 8180 
8223 8217 8219 8214 8216 8213 8213 8210 8201 8166 8165 8166 8177 8191 8203 8204 8206 8205 8206 8203 8202 8201 8197 8183 8131 8112 8117 8125 8131 8131 8122 8111 8114 8119 8113 8118 8123 8127 8121 8113 8133 8111 8115 8118 8119 8138 8166 8170 8168 8160 8149 8153 8162 8164 8149 8124 8123 8125 8130 8139 8149 8145 8153 8153 8157 8183 8184 8186 8188 8186 8188 8185 8188 8190 8190 8189 8187 8184 8181 8180 
8223 8215 8218 8212 8213 8213 8209 8207 8206 8177 8165 8171 8194 8196 8204 8205 8204 8206 8207 8206 8202 8202 8198 8193 8152 8115 8119 8123 8132 8122 8120 8122 8123 8122 8116 8120 8123 8120 8112 8113 8108 8109 8124 8132 8109 8108 8123 8131 8131 8151 8170 8180 8179 8184 8182 8138 8127 8126 8127 8135 8152 8155 8149 8159 8156 8180 8185 8189 8191 8187 8190 8191 8191 8193 8192 8190 8188 8187 8185 8179 
8223 8214 8216 8216 8211 8210 8209 8209 8205 8179 8173 8190 8207 8207 8205 8205 8207 8204 8206 8207 8203 8207 8199 8191 8149 8117 8115 8120 8121 8116 8114 8124 8126 8120 8117 8119 8123 8114 8111 8110 8108 8112 8132 8142 8132 8131 8117 8115 8112 8121 8147 8170 8180 8182 8186 8165 8132 8131 8126 8137 8154 8172 8158 8157 8156 8174 8185 8187 8186 8189 8192 8188 8191 8189 8187 8190 8192 8187 8182 8181 
8222 8213 8215 8213 8210 8209 8207 8209 8202 8174 8180 8207 8212 8214 8209 8209 8207 8208 8207 8206 8203 8197 8175 8149 8126 8130 8141 8131 8127 8120 8116 8132 8129 8128 8116 8117 8114 8111 8112 8109 8116 8140 8160 8169 8169 8156 8153 8146 8128 8123 8126 8128 8157 8184 8186 8181 8146 8135 8132 8148 8156 8187 8178 8158 8152 8176 8189 8191 8190 8191 8192 8192 8195 8193 8191 8195 8192 8189 8184 8182 
8224 8215 8217 8214 8208 8207 8210 8202 8191 8173 8185 8209 8211 8211 8208 8210 8208 8209 8209 8208 8197 8167 8148 8156 8165 8189 8185 8145 8125 8129 8129 8137 8130 8131 8126 8121 8130 8114 8110 8114 8128 8165 8174 8159 8172 8180 8179 8178 8163 8139 8128 8124 8126 8155 8185 8183 8151 8141 8136 8149 8151 8187 8204 8169 8160 8185 8190 8189 8190 8193 8191 8192 8194 8191 8190 8193 8192 8192 8185 8182 
8225 8212 8214 8212 8210 8211 8209 8200 8178 8160 8187 8208 8210 8213 8210 8212 8214 8208 8209 8207 8182 8164 8183 8197 8200 8195 8171 8150 8138 8133 8128 8127 8143 8161 8147 8144 8137 8116 8112 8112 8115 8138 8154 8167 8179 8177 8180 8178 8175 8173 8164 8142 8126 8130 8172 8179 8153 8143 8140 8156 8147 8175 8211 8190 8179 8191 8193 8194 8193 8194 8193 8193 8197 8196 8194 8193 8195 8189 8186 8184 
8226 8216 8212 8218 8212 8211 8212 8189 8158 8162 8199 8214 8213 8211 8212 8216 8214 8214 8210 8201 8183 8201 8207 8207 8201 8175 8173 8168 8139 8134 8129 8126 8136 8159 8150 8131 8133 8125 8111 8112 8111 8122 8147 8156 8160 8160 8162 8164 8162 8163 8167 8167 8160 8141 8159 8179 8152 8147 8150 8161 8172 8173 8189 8202 8193 8192 8193 8189 8191 8192 8196 8194 8196 8195 8193 8198 8197 8193 8187 8186 
8226 8217 8216 8220 8216 8215 8212 8180 8163 8197 8212 8215 8218 8213 8216 8216 8215 8215 8210 8204 8208 8212 8206 8200 8180 8171 8184 8163 8148 8139 8127 8127 8128 8128 8135 8135 8125 8118 8112 8114 8121 8133 8144 8148 8150 8151 8154 8155 8152 8156 8153 8152 8147 8150 8156 8166 8147 8151 8153 8163 8182 8180 8184 8193 8194 8192 8194 8191 8193 8195 8194 8194 8196 8197 8195 8199 8198 8194 8191 8189 
8230 8218 8221 8217 8215 8219 8219 8189 8185 8207 8214 8217 8218 8209 8214 8214 8214 8212 8214 8212 8213 8213 8207 8189 8168 8165 8165 8159 8150 8147 8137 8130 8128 8125 8126 8130 8124 8122 8115 8118 8133 8144 8152 8154 8154 8155 8158 8160 8157 8157 8151 8148 8144 8146 8150 8148 8146 8150 8153 8172 8183 8192 8189 8194 8193 8195 8191 8193 8193 8194 8193 8198 8197 8200 8198 8199 8201 8196 8191 8192 
8222 8213 8217 8218 8219 8220 8219 8187 8206 8213 8213 8220 8216 8218 8216 8218 8215 8213 8215 8216 8214 8211 8208 8189 8160 8157 8161 8159 8149 8147 8144 8130 8124 8126 8119 8120 8113 8113 8118 8120 8117 8136 8146 8150 8150 8153 8159 8162 8160 8157 8150 8147 8142 8144 8149 8147 8144 8146 8164 8183 8186 8193 8192 8191 8189 8193 8193 8194 8195 8195 8198 8199 8198 8200 8197 8198 8199 8199 8196 8198 
8223 8211 8217 8217 8216 8215 8214 8186 8208 8215 8217 8218 8217 8218 8217 8218 8215 8217 8217 8215 8213 8217 8215 8207 8173 8164 8154 8147 8142 8126 8126 8122 8122 8122 8116 8114 8111 8114 8117 8119 8122 8126 8127 8131 8132 8133 8141 8138 8140 8144 8128 8135 8131 8143 8151 8148 8144 8167 8181 8186 8186 8192 8189 8187 8189 8190 8192 8190 8194 8197 8194 8200 8201 8202 8202 8203 8203 8202 8196 8195 
8221 8212 8218 8219 8217 8215 8205 8206 8211 8213 8215 8220 8219 8221 8222 8215 8215 8220 8219 8217 8213 8215 8213 8211 8181 8163 8155 8153 8146 8130 8123 8123 8125 8122 8123 8120 8116 8116 8121 8125 8124 8125 8127 8125 8128 8134 8138 8145 8148 8164 8184 8200 8211 8189 8157 8148 8164 8181 8185 8187 8186 8188 8186 8188 8189 8190 8191 8193 8193 8196 8197 8198 8198 8201 8200 8202 8205 8203 8198 8193 
8221 8215 8221 8221 8215 8214 8209 8218 8219 8217 8215 8212 8213 8218 8219 8218 8218 8218 8222 8215 8215 8217 8217 8212 8190 8171 8161 8165 8160 8159 8159 8159 8161 8157 8157 8152 8154 8150 8154 8156 8153 8152 8155 8158 8159 8168 8170 8177 8196 8235 8260 8266 8242 8184 8152 8159 8181 8189 8185 8187 8186 8187 8188 8189 8188 8187 8191 8189 8197 8196 8199 8200 8198 8200 8199 8204 8205 8203 8202 8199 
8223 8216 8219 8221 8219 8219 8219 8221 8216 8217 8212 8215 8219 8218 8220 8219 8218 8221 8220 8215 8216 8220 8217 8214 8195 8168 8163 8166 8167 8166 8165 8165 8165 8166 8164 8162 8167 8169 8171 8171 8176 8173 8171 8172 8171 8176 8178 8179 8191 8221 8249 8250 8218 8174 8160 8169 8182 8188 8188 8185 8189 8192 8188 8190 8189 8188 8193 8190 8195 8194 8198 8198 8201 8200 8200 8205 8205 8203 8199 8197 
8222 8221 8222 8219 8214 8216 8216 8216 8212 8213 8215 8219 8218 8220 8219 8217 8217 8218 8218 8217 8213 8221 8219 8215 8208 8186 8164 8169 8166 8167 8166 8167 8170 8169 8166 8173 8172 8171 8172 8174 8176 8178 8181 8183 8181 8186 8185 8187 8191 8203 8217 8214 8191 8172 8175 8177 8182 8188 8183 8182 8184 8187 8186 8187 8187 8191 8188 8189 8194 8197 8199 8200 8201 8201 8203 8201 8203 8203 8197 8198 
8226 8222 8225 8218 8211 8216 8223 8215 8213 8219 8221 8216 8218 8219 8223 8220 8222 8218 8218 8216 8216 8220 8217 8217 8208 8199 8171 8163 8164 8163 8165 8168 8174 8172 8171 8172 8178 8173 8176 8178 8180 8189 8190 8197 8200 8203 8205 8208 8210 8214 8218 8202 8179 8174 8173 8184 8186 8186 8185 8181 8187 8185 8184 8189 8189 8192 8188 8191 8194 8195 8199 8202 8200 8203 8200 8198 8199 8201 8196 8195 
8226 8219 8225 8217 8214 8211 8216 8209 8217 8219 8219 8216 8220 8214 8219 8214 8220 8217 8217 8218 8219 8220 8216 8216 8209 8201 8179 8167 8164 8160 8156 8157 8163 8168 8169 8168 8171 8173 8174 8179 8190 8215 8228 8239 8240 8245 8242 8230 8210 8193 8180 8174 8170 8175 8181 8182 8183 8183 8184 8180 8180 8186 8188 8187 8190 8191 8192 8193 8195 8197 8201 8201 8200 8198 8196 8194 8198 8197 8195 8187 
8228 8218 8223 8211 8212 8214 8216 8211 8216 8215 8212 8211 8213 8216 8217 8216 8211 8216 8216 8217 8213 8218 8213 8214 8210 8204 8190 8177 8169 8166 8161 8160 8163 8166 8159 8162 8165 8163 8164 8170 8183 8204 8217 8233 8240 8240 8239 8223 8201 8183 8177 8175 8176 8180 8183 8186 8183 8183 8182 8182 8181 8184 8188 8186 8187 8192 8190 8192 8196 8197 8200 8198 8196 8196 8194 8193 8195 8192 8193 8190 
8232 8213 8210 8210 8212 8208 8204 8210 8216 8212 8210 8207 8205 8212 8212 8211 8208 8209 8215 8212 8218 8213 8209 8210 8211 8207 8194 8187 8174 8174 8167 8162 8168 8167 8163 8165 8167 8169 8169 8176 8176 8186 8190 8203 8208 8218 8211 8202 8187 8180 8180 8186 8187 8186 8186 8187 8185 8187 8182 8183 8183 8186 8186 8188 8188 8191 8194 8195 8200 8202 8199 8200 8195 8197 8193 8193 8194 8194 8197 8194 
8236 8212 8214 8211 8205 8206 8203 8207 8212 8213 8211 8208 8206 8206 8212 8207 8206 8203 8206 8211 8210 8209 8206 8207 8207 8206 8196 8188 8180 8178 8173 8173 8176 8176 8175 8172 8181 8176 8179 8180 8182 8188 8182 8182 8187 8191 8194 8192 8189 8188 8191 8201 8202 8199 8194 8189 8191 8194 8192 8195 8193 8196 8197 8202 8204 8209 8206 8208 8211 8212 8212 8212 8204 8206 8205 8200 8195 8206 8208 8198 


