P2
80 60
8296
8235 8236 8240 8241 8244 8248 8246 8246 8245 8243 8250 8250 8251 8255 8257 8255 8256 8257 8258 8259 8261 8256 8262 8263 8264 8266 8267 8271 8273 8270 8274 8270 8276 8274 8275 8279 8278 8279 8280 8280 8286 8285 8287 8287 8288 8289 8291 8293 8289 8289 8287 8286 8289 8286 8285 8286 8281 8284 8280 8281 8277 8276 8276 8279 8280 8276 8279 8278 8281 8283 8288 8289 8289 8290 8288 8288 8283 8280 8280 8283 
8233 8241 8240 8244 8248 8247 8248 8247 8245 8245 8248 8251 8252 8251 8257 8257 8255 8256 8259 8257 8259 8260 8260 8264 8268 8267 8270 8274 8276 8272 8275 8270 8276 8278 8276 8279 8277 8279 8282 8277 8283 8285 8285 8284 8287 8288 8291 8290 8290 8288 8286 8287 8284 8282 8280 8282 8281 8280 8277 8279 8278 8276 8277 8275 8276 8278 8278 8280 8280 8283 8286 8288 8285 8288 8290 8287 8284 8282 8286 8281 
8237 8240 8240 8244 8247 8251 8251 8248 8247 8247 8247 8251 8250 8255 8256 8258 8259 8257 8259 8257 8260 8263 8261 8266 8270 8267 8275 8273 8275 8274 8275 8272 8279 8279 8273 8282 8281 8281 8284 8282 8284 8286 8284 8285 8284 8287 8291 8290 8289 8285 8285 8283 8284 8283 8281 8283 8280 8278 8277 8279 8279 8278 8276 8275 8273 8274 8275 8280 8283 8283 8287 8287 8288 8286 8289 8287 8284 8280 8286 8284 
8239 8244 8241 8243 8247 8249 8252 8249 8249 8249 8251 8248 8253 8252 8257 8256 8258 8254 8259 8258 8259 8262 8265 8268 8268 8269 8274 8272 8278 8275 8277 8271 8279 8277 8276 8279 8278 8283 8283 8279 8284 8284 8285 8283 8282 8282 8284 8289 8286 8286 8287 8285 8285 8285 8281 8280 8279 8278 8278 8276 8276 8275 8274 8273 8277 8274 8277 8277 8279 8279 8283 8282 8282 8285 8284 8285 8279 8276 8279 8282 
8239 8244 8243 8245 8250 8248 8253 8251 8249 8252 8249 8246 8251 8253 8255 8256 8258 8259 8259 8261 8260 8262 8267 8267 8269 8273 8272 8273 8276 8275 8278 8277 8281 8279 8277 8284 8283 8282 8282 8283 8287 8286 8286 8288 8283 8285 8288 8288 8287 8285 8286 8284 8283 8283 8282 8282 8280 8276 8276 8278 8277 8277 8270 8272 8276 8274 8278 8280 8282 8281 8282 8282 8282 8278 8286 8284 8278 8276 8274 8279 
8245 8251 8248 8247 8253 8249 8255 8253 8250 8251 8252 8251 8250 8254 8256 8257 8257 8258 8261 8260 8261 8263 8264 8267 8269 8270 8275 8276 8279 8280 8282 8280 8282 8281 8282 8288 8290 8291 8291 8292 8293 8294 8292 8288 8289 8289 8293 8288 8288 8286 8282 8280 8284 8281 8280 8279 8278 8279 8274 8276 8275 8274 8272 8274 8276 8276 8279 8279 8278 8280 8281 8279 8280 8281 8281 8282 8275 8271 8273 8277 
8251 8253 8253 8250 8253 8252 8255 8250 8251 8248 8251 8251 8250 8255 8255 8256 8257 8258 8265 8261 8266 8266 8269 8272 8275 8274 8279 8282 8285 8284 8288 8283 8287 8288 8289 8294 8293 8292 8294 8293 8293 8294 8291 8292 8286 8292 8291 8287 8286 8284 8282 8280 8281 8280 8279 8280 8279 8281 8279 8278 8272 8272 8274 8273 8275 8275 8278 8275 8277 8278 8280 8278 8278 8283 8281 8279 8279 8275 8275 8276 
8256 8257 8257 8253 8254 8252 8254 8253 8250 8249 8251 8250 8254 8254 8255 8257 8260 8261 8267 8269 8267 8269 8269 8276 8278 8277 8280 8279 8283 8283 8288 8282 8286 8289 8288 8293 8292 8296 8292 8291 8294 8294 8292 8290 8287 8286 8288 8286 8284 8282 8281 8278 8278 8278 8276 8279 8278 8279 8277 8278 8275 8271 8272 8272 8270 8272 8275 8275 8276 8273 8277 8278 8278 8279 8277 8277 8275 8275 8276 8273 
8253 8255 8255 8252 8254 8252 8257 8251 8251 8251 8252 8252 8255 8259 8259 8260 8260 8266 8270 8270 8272 8272 8273 8278 8279 8281 8283 8281 8286 8285 8287 8284 8290 8288 8288 8291 8292 8292 8292 8290 8294 8292 8291 8289 8283 8260 8262 8264 8260 8271 8272 8275 8276 8276 8276 8280 8277 8277 8277 8277 8275 8273 8272 8273 8273 8274 8276 8274 8273 8271 8274 8276 8275 8276 8278 8277 8272 8270 8274 8268 
8253 8253 8256 8251 8253 8252 8253 8252 8253 8252 8255 8256 8256 8260 8264 8265 8267 8264 8270 8271 8271 8274 8275 8274 8280 8279 8284 8283 8287 8283 8286 8282 8287 8286 8284 8287 8290 8292 8289 8290 8289 8290 8288 8286 8270 8210 8202 8202 8203 8210 8224 8260 8274 8277 8278 8279 8275 8280 8275 8273 8275 8271 8274 8272 8274 8274 8277 8275 8277 8275 8275 8273 8273 8278 8278 8275 8272 8269 8273 8272 
8253 8256 8251 8250 8251 8253 8253 8252 8251 8258 8257 8259 8259 8263 8264 8268 8267 8266 8271 8272 8270 8271 8273 8274 8276 8280 8282 8284 8286 8285 8285 8280 8284 8285 8283 8287 8290 8287 8290 8284 8270 8256 8249 8249 8248 8205 8196 8192 8192 8195 8200 8237 8271 8275 8275 8275 8274 8277 8275 8272 8272 8269 8271 8272 8274 8273 8276 8277 8277 8275 8277 8272 8274 8271 8274 8272 8271 8268 8270 8266 
8254 8256 8252 8250 8252 8251 8252 8253 8257 8257 8261 8262 8262 8266 8266 8266 8263 8266 8270 8268 8269 8271 8271 8273 8275 8278 8283 8282 8283 8282 8281 8281 8281 8276 8278 8283 8285 8288 8286 8272 8208 8194 8197 8197 8195 8193 8195 8199 8199 8202 8206 8233 8271 8275 8274 8277 8275 8273 8273 8271 8272 8270 8270 8272 8272 8271 8275 8276 8277 8275 8274 8273 8276 8275 8275 8273 8272 8266 8270 8271 
8250 8255 8254 8246 8249 8248 8251 8255 8260 8260 8261 8258 8260 8265 8265 8268 8268 8268 8269 8270 8270 8269 8272 8271 8276 8275 8282 8279 8283 8280 8282 8277 8277 8244 8239 8275 8281 8284 8282 8263 8196 8188 8189 8192 8193 8193 8198 8205 8197 8205 8229 8255 8262 8268 8272 8275 8275 8274 8272 8269 8271 8270 8270 8272 8272 8273 8275 8278 8276 8273 8275 8272 8275 8276 8275 8275 8275 8272 8275 8271 
8251 8255 8252 8251 8250 8247 8255 8255 8258 8258 8260 8260 8262 8263 8263 8268 8266 8267 8270 8269 8269 8269 8270 8274 8275 8275 8280 8279 8282 8277 8280 8274 8265 8196 8187 8240 8274 8278 8276 8255 8195 8189 8190 8191 8196 8210 8213 8217 8205 8202 8205 8210 8215 8239 8262 8272 8271 8273 8271 8268 8268 8267 8269 8271 8270 8274 8274 8274 8276 8274 8274 8274 8275 8277 8275 8276 8277 8274 8278 8272 
8250 8248 8251 8251 8253 8252 8255 8256 8258 8260 8261 8262 8261 8263 8263 8266 8268 8268 8267 8269 8268 8269 8269 8273 8274 8275 8278 8282 8280 8276 8279 8274 8249 8183 8175 8189 8242 8264 8266 8254 8208 8190 8191 8197 8206 8248 8231 8208 8203 8204 8204 8207 8201 8202 8216 8249 8268 8272 8271 8264 8270 8268 8268 8273 8273 8275 8274 8273 8272 8274 8272 8272 8275 8274 8275 8278 8276 8277 8281 8275 
8249 8247 8250 8249 8257 8256 8258 8259 8259 8263 8264 8262 8264 8266 8268 8269 8268 8267 8268 8268 8266 8268 8268 8271 8274 8275 8279 8278 8281 8278 8274 8269 8216 8181 8176 8180 8187 8200 8202 8202 8199 8191 8192 8200 8222 8213 8212 8204 8203 8204 8204 8204 8200 8201 8204 8231 8266 8270 8266 8265 8268 8266 8267 8269 8270 8275 8277 8272 8271 8274 8274 8275 8275 8275 8276 8276 8277 8276 8281 8276 
8247 8249 8252 8252 8261 8259 8265 8262 8265 8262 8261 8265 8263 8264 8267 8271 8270 8268 8271 8266 8266 8268 8268 8272 8272 8276 8280 8280 8280 8278 8276 8267 8214 8182 8177 8180 8181 8185 8181 8179 8185 8191 8196 8238 8260 8212 8201 8202 8199 8203 8203 8203 8202 8207 8231 8263 8267 8272 8266 8270 8270 8268 8269 8271 8271 8276 8277 8273 8274 8274 8273 8273 8271 8274 8278 8276 8276 8276 8279 8275 
8249 8255 8256 8258 8259 8263 8264 8262 8263 8262 8263 8264 8263 8265 8266 8265 8267 8270 8267 8267 8265 8268 8267 8270 8270 8274 8275 8279 8279 8273 8274 8267 8212 8184 8178 8182 8182 8183 8175 8176 8182 8192 8196 8246 8254 8213 8207 8198 8204 8203 8200 8215 8234 8246 8264 8266 8268 8270 8265 8262 8266 8264 8268 8268 8271 8272 8275 8273 8271 8273 8272 8274 8270 8273 8277 8275 8272 8274 8279 8280 
8254 8258 8262 8257 8264 8262 8267 8264 8265 8264 8264 8264 8265 8263 8266 8269 8269 8267 8265 8265 8265 8269 8272 8271 8271 8270 8274 8276 8276 8270 8270 8266 8236 8189 8180 8184 8184 8182 8178 8180 8186 8188 8196 8241 8235 8195 8191 8196 8242 8245 8223 8225 8262 8265 8265 8266 8265 8267 8264 8264 8262 8268 8268 8271 8271 8271 8273 8273 8271 8273 8271 8272 8270 8271 8271 8272 8275 8269 8276 8275 
8256 8261 8263 8258 8261 8263 8268 8266 8260 8266 8265 8264 8265 8263 8264 8266 8268 8267 8267 8267 8266 8266 8268 8272 8268 8272 8275 8273 8272 8248 8233 8225 8208 8189 8188 8189 8189 8192 8190 8189 8193 8186 8211 8253 8209 8186 8182 8187 8204 8219 8233 8251 8259 8262 8261 8266 8265 8267 8266 8266 8265 8262 8269 8271 8271 8272 8271 8271 8269 8271 8271 8270 8269 8270 8271 8272 8272 8269 8271 8273 
8257 8263 8266 8262 8266 8262 8261 8265 8267 8261 8261 8264 8264 8262 8263 8264 8265 8264 8264 8264 8262 8266 8269 8269 8267 8269 8270 8272 8267 8204 8189 8185 8191 8193 8224 8206 8196 8192 8192 8191 8184 8186 8212 8215 8186 8183 8181 8184 8185 8186 8187 8202 8235 8249 8249 8252 8254 8263 8263 8267 8265 8265 8268 8271 8271 8271 8269 8271 8272 8268 8272 8269 8270 8269 8270 8268 8268 8269 8270 8271 
8261 8268 8266 8267 8263 8263 8260 8264 8260 8263 8263 8266 8262 8260 8264 8264 8264 8265 8263 8265 8263 8266 8269 8267 8267 8271 8273 8271 8271 8232 8188 8183 8186 8189 8212 8197 8192 8195 8195 8194 8188 8203 8212 8191 8181 8182 8183 8187 8187 8183 8181 8182 8184 8193 8194 8195 8204 8253 8264 8264 8263 8264 8267 8270 8269 8269 8272 8271 8271 8269 8268 8269 8265 8269 8270 8267 8271 8269 8271 8273 
8260 8267 8271 8265 8266 8264 8257 8256 8258 8263 8265 8265 8261 8263 8262 8263 8263 8262 8261 8264 8267 8264 8265 8267 8267 8270 8271 8271 8270 8255 8205 8182 8188 8190 8196 8194 8198 8202 8208 8226 8223 8230 8203 8186 8181 8183 8184 8184 8185 8182 8181 8181 8180 8181 8184 8186 8201 8256 8259 8261 8262 8264 8264 8267 8269 8267 8271 8267 8268 8267 8268 8268 8269 8270 8269 8266 8268 8266 8273 8273 
8265 8270 8270 8265 8267 8264 8261 8257 8260 8261 8263 8264 8264 8264 8262 8264 8262 8261 8263 8264 8269 8267 8268 8267 8266 8267 8271 8269 8265 8241 8196 8188 8190 8197 8214 8213 8231 8235 8227 8214 8204 8208 8196 8184 8178 8179 8183 8185 8180 8183 8181 8179 8179 8181 8181 8185 8221 8258 8261 8260 8263 8261 8264 8269 8270 8269 8271 8269 8268 8270 8268 8267 8265 8266 8269 8268 8271 8266 8273 8272 
8265 8268 8267 8266 8266 8264 8263 8260 8262 8262 8264 8265 8264 8263 8264 8264 8261 8262 8265 8264 8268 8271 8270 8268 8267 8265 8266 8255 8228 8204 8189 8184 8188 8197 8215 8206 8208 8202 8196 8192 8190 8189 8187 8182 8178 8178 8185 8184 8180 8182 8179 8179 8181 8179 8177 8186 8235 8259 8257 8263 8261 8263 8264 8268 8267 8269 8268 8267 8267 8269 8269 8267 8268 8268 8268 8268 8271 8266 8271 8268 
8264 8267 8269 8270 8268 8266 8264 8263 8260 8264 8264 8263 8260 8265 8262 8263 8264 8261 8263 8262 8267 8269 8266 8267 8261 8258 8244 8218 8194 8189 8191 8183 8183 8186 8195 8187 8185 8188 8190 8183 8184 8187 8185 8182 8180 8182 8183 8181 8177 8175 8176 8178 8179 8178 8176 8185 8219 8227 8251 8259 8260 8260 8263 8269 8266 8270 8267 8267 8264 8264 8267 8264 8268 8268 8267 8267 8267 8268 8270 8267 
8264 8269 8271 8269 8270 8265 8263 8258 8263 8265 8266 8265 8266 8265 8263 8263 8264 8265 8264 8262 8263 8263 8265 8265 8234 8198 8196 8195 8198 8192 8191 8181 8182 8183 8186 8191 8190 8189 8186 8180 8181 8184 8186 8183 8178 8181 8185 8191 8177 8175 8175 8176 8177 8175 8178 8176 8178 8187 8236 8251 8256 8262 8261 8265 8266 8267 8263 8265 8262 8261 8260 8262 8266 8265 8266 8264 8267 8268 8267 8268 
8264 8267 8266 8267 8270 8263 8264 8263 8265 8267 8267 8265 8264 8262 8264 8263 8263 8265 8265 8260 8261 8263 8267 8265 8248 8200 8195 8191 8192 8187 8187 8186 8185 8183 8179 8186 8192 8188 8180 8182 8181 8185 8186 8183 8180 8181 8200 8225 8192 8179 8174 8177 8177 8180 8175 8175 8176 8180 8192 8219 8248 8257 8258 8263 8263 8264 8264 8263 8259 8261 8263 8259 8262 8265 8266 8263 8267 8265 8270 8268 
8259 8265 8267 8263 8268 8265 8264 8262 8264 8264 8267 8264 8268 8264 8265 8261 8264 8263 8263 8262 8262 8262 8267 8265 8254 8209 8192 8188 8184 8182 8180 8179 8183 8186 8183 8183 8188 8195 8197 8202 8185 8181 8185 8180 8178 8178 8189 8215 8206 8189 8181 8177 8180 8176 8177 8178 8180 8177 8178 8185 8221 8250 8256 8260 8261 8264 8262 8259 8258 8259 8258 8258 8262 8261 8266 8264 8266 8263 8266 8267 
8260 8267 8266 8266 8269 8266 8265 8263 8265 8265 8268 8268 8269 8266 8264 8265 8265 8263 8263 8260 8264 8263 8263 8264 8232 8196 8188 8182 8180 8178 8178 8175 8181 8183 8182 8177 8175 8189 8192 8193 8184 8179 8175 8179 8179 8178 8180 8195 8199 8184 8181 8178 8177 8177 8175 8176 8175 8177 8179 8184 8219 8234 8251 8259 8259 8260 8261 8258 8260 8257 8258 8260 8264 8260 8264 8262 8263 8265 8267 8268 
8257 8263 8266 8265 8269 8264 8265 8263 8266 8266 8267 8264 8264 8262 8261 8263 8263 8265 8265 8260 8261 8263 8265 8254 8213 8206 8199 8189 8189 8182 8178 8177 8182 8180 8173 8176 8178 8187 8190 8187 8189 8183 8187 8186 8182 8185 8185 8183 8178 8178 8176 8177 8179 8179 8178 8175 8176 8175 8183 8198 8208 8228 8253 8258 8260 8259 8259 8259 8255 8257 8256 8257 8257 8260 8262 8264 8263 8262 8263 8266 
8259 8266 8267 8265 8267 8268 8266 8264 8268 8267 8265 8261 8265 8262 8264 8264 8264 8261 8260 8259 8260 8263 8262 8236 8212 8208 8195 8191 8191 8183 8179 8175 8183 8179 8173 8186 8188 8187 8189 8187 8192 8184 8189 8186 8184 8188 8186 8185 8179 8180 8179 8181 8182 8180 8180 8181 8181 8181 8201 8219 8239 8250 8256 8257 8259 8257 8261 8257 8260 8255 8256 8255 8257 8259 8262 8261 8262 8261 8263 8262 
8263 8268 8266 8266 8268 8269 8267 8266 8267 8267 8267 8263 8264 8263 8262 8262 8261 8260 8259 8261 8260 8259 8259 8221 8215 8211 8195 8190 8185 8179 8176 8172 8175 8181 8183 8183 8182 8185 8182 8185 8189 8183 8190 8188 8187 8189 8189 8188 8183 8182 8183 8181 8182 8179 8182 8185 8189 8200 8223 8246 8250 8249 8255 8257 8256 8259 8260 8256 8257 8257 8256 8255 8259 8259 8257 8260 8263 8263 8264 8260 
8260 8267 8269 8267 8269 8265 8266 8266 8269 8267 8268 8261 8261 8263 8264 8260 8258 8260 8257 8259 8258 8260 8245 8221 8218 8226 8204 8184 8182 8177 8176 8173 8178 8184 8184 8183 8183 8182 8178 8179 8188 8184 8183 8189 8192 8192 8195 8194 8190 8185 8184 8184 8182 8182 8180 8182 8187 8226 8246 8253 8251 8252 8255 8256 8258 8258 8257 8255 8258 8257 8256 8258 8256 8258 8261 8261 8263 8259 8259 8260 
8265 8271 8271 8270 8267 8267 8267 8266 8266 8265 8266 8263 8262 8260 8261 8262 8262 8263 8264 8259 8261 8260 8239 8220 8225 8229 8206 8184 8179 8177 8176 8175 8178 8185 8183 8183 8180 8185 8180 8178 8181 8184 8185 8186 8189 8192 8193 8194 8202 8203 8192 8185 8186 8184 8184 8185 8184 8208 8247 8253 8250 8254 8257 8257 8259 8257 8258 8257 8257 8256 8256 8255 8255 8254 8259 8255 8256 8254 8258 8259 
8261 8271 8273 8268 8268 8270 8268 8269 8269 8266 8266 8264 8262 8263 8266 8262 8262 8261 8259 8259 8260 8260 8235 8226 8233 8223 8183 8179 8180 8175 8177 8180 8180 8185 8182 8181 8183 8187 8184 8176 8180 8183 8185 8190 8188 8193 8191 8193 8201 8223 8216 8206 8192 8192 8190 8187 8184 8195 8241 8250 8250 8251 8253 8255 8258 8255 8257 8254 8254 8255 8253 8255 8254 8255 8255 8255 8254 8255 8257 8254 
8265 8272 8271 8267 8267 8270 8271 8270 8269 8266 8267 8269 8266 8265 8264 8262 8262 8262 8259 8261 8262 8258 8234 8231 8240 8223 8183 8178 8181 8179 8181 8187 8185 8185 8183 8184 8181 8180 8178 8177 8180 8182 8186 8185 8187 8188 8191 8190 8195 8212 8222 8222 8223 8232 8223 8221 8211 8209 8233 8252 8251 8253 8254 8257 8255 8255 8257 8258 8257 8254 8255 8253 8255 8255 8256 8253 8253 8254 8259 8260 
8264 8270 8270 8270 8271 8270 8271 8269 8269 8267 8268 8268 8266 8265 8267 8263 8262 8259 8257 8260 8258 8257 8236 8238 8247 8204 8178 8180 8182 8181 8184 8215 8198 8186 8181 8183 8179 8180 8178 8175 8178 8177 8181 8188 8184 8186 8188 8189 8188 8197 8210 8226 8231 8245 8241 8243 8243 8253 8254 8252 8250 8250 8248 8254 8257 8258 8256 8253 8253 8250 8253 8253 8250 8256 8255 8255 8256 8257 8256 8256 
8269 8273 8273 8270 8272 8271 8271 8269 8267 8267 8270 8268 8263 8267 8263 8259 8261 8260 8260 8257 8256 8258 8239 8245 8253 8195 8182 8184 8193 8218 8213 8241 8199 8180 8183 8179 8180 8178 8180 8170 8174 8176 8179 8184 8184 8184 8185 8182 8186 8196 8195 8202 8231 8243 8242 8247 8250 8258 8255 8251 8251 8252 8250 8253 8254 8253 8254 8254 8253 8253 8253 8254 8257 8259 8259 8259 8257 8255 8258 8258 
8267 8275 8277 8269 8269 8266 8268 8269 8269 8271 8268 8266 8262 8264 8263 8259 8260 8260 8261 8260 8258 8255 8241 8248 8255 8192 8192 8218 8256 8267 8270 8261 8228 8180 8165 8176 8175 8180 8178 8178 8175 8178 8183 8188 8191 8190 8186 8182 8189 8194 8198 8219 8232 8251 8245 8250 8250 8258 8257 8252 8253 8251 8252 8255 8252 8253 8253 8254 8254 8253 8256 8257 8257 8256 8258 8256 8258 8257 8258 8258 
8267 8274 8274 8269 8271 8268 8269 8268 8268 8267 8269 8267 8262 8262 8262 8259 8258 8258 8260 8262 8260 8255 8244 8248 8257 8233 8247 8265 8271 8273 8275 8263 8243 8185 8170 8171 8174 8174 8172 8173 8180 8174 8189 8186 8189 8198 8197 8191 8190 8199 8215 8237 8243 8257 8246 8247 8250 8259 8254 8255 8253 8255 8253 8254 8254 8254 8255 8253 8254 8257 8255 8256 8257 8260 8261 8261 8255 8257 8260 8256 
8265 8273 8273 8269 8268 8270 8266 8266 8268 8267 8266 8265 8264 8263 8262 8259 8260 8258 8259 8259 8257 8257 8245 8245 8263 8258 8252 8267 8271 8270 8278 8265 8247 8193 8186 8174 8173 8171 8173 8174 8182 8186 8190 8182 8189 8202 8197 8197 8199 8222 8239 8242 8246 8254 8245 8245 8254 8259 8256 8255 8256 8253 8257 8256 8255 8250 8255 8254 8255 8254 8256 8255 8256 8261 8262 8259 8259 8258 8258 8257 
8263 8273 8268 8270 8266 8266 8265 8266 8265 8268 8267 8268 8264 8266 8264 8260 8257 8259 8260 8258 8255 8259 8249 8245 8260 8260 8254 8271 8272 8268 8278 8271 8256 8230 8217 8181 8176 8174 8173 8170 8179 8187 8184 8185 8188 8209 8202 8211 8220 8243 8245 8248 8249 8246 8245 8249 8257 8261 8257 8260 8257 8256 8257 8257 8252 8252 8254 8253 8251 8253 8257 8258 8259 8260 8263 8259 8258 8254 8257 8259 
8267 8273 8272 8264 8265 8262 8266 8262 8264 8265 8266 8267 8266 8266 8263 8260 8258 8258 8258 8258 8258 8256 8251 8245 8252 8263 8257 8263 8268 8265 8278 8279 8267 8260 8249 8226 8198 8179 8178 8178 8181 8189 8188 8191 8193 8196 8194 8203 8205 8237 8242 8242 8246 8242 8245 8253 8260 8260 8260 8257 8259 8256 8256 8256 8257 8255 8254 8252 8253 8256 8258 8260 8261 8259 8262 8261 8259 8258 8259 8258 
8265 8273 8270 8265 8264 8263 8262 8262 8264 8265 8268 8267 8263 8265 8262 8262 8261 8259 8258 8257 8259 8258 8256 8245 8245 8262 8262 8259 8266 8259 8272 8279 8274 8270 8264 8261 8236 8188 8176 8181 8185 8189 8188 8195 8195 8201 8200 8198 8202 8214 8235 8244 8246 8241 8246 8256 8262 8261 8258 8260 8256 8256 8255 8256 8255 8253 8253 8252 8251 8254 8259 8260 8256 8261 8262 8258 8261 8257 8257 8262 
8266 8270 8269 8266 8264 8263 8262 8263 8262 8262 8266 8266 8262 8265 8265 8266 8262 8261 8258 8259 8257 8258 8263 8254 8239 8255 8266 8258 8263 8270 8273 8278 8282 8270 8270 8262 8223 8180 8174 8184 8189 8192 8197 8219 8198 8201 8203 8205 8201 8197 8218 8246 8243 8243 8250 8260 8263 8264 8258 8258 8258 8256 8256 8255 8254 8255 8254 8252 8250 8258 8254 8257 8260 8260 8261 8261 8260 8258 8257 8258 
8263 8269 8266 8264 8264 8260 8261 8260 8260 8264 8262 8264 8261 8264 8264 8267 8261 8260 8261 8258 8258 8260 8258 8260 8243 8241 8263 8262 8255 8267 8276 8276 8281 8278 8264 8263 8208 8179 8177 8179 8189 8196 8202 8226 8199 8202 8206 8206 8199 8195 8200 8234 8244 8250 8256 8263 8262 8264 8257 8256 8257 8252 8253 8253 8251 8253 8253 8255 8254 8252 8260 8255 8259 8261 8262 8258 8258 8255 8254 8257 
8265 8273 8269 8266 8261 8262 8266 8262 8265 8260 8262 8264 8265 8263 8264 8267 8263 8262 8260 8259 8259 8259 8261 8261 8258 8243 8250 8265 8257 8258 8278 8274 8272 8273 8271 8262 8203 8181 8178 8182 8195 8193 8196 8204 8200 8204 8205 8205 8197 8196 8204 8231 8255 8264 8258 8264 8262 8263 8258 8258 8256 8253 8253 8254 8255 8253 8254 8253 8251 8255 8255 8257 8259 8259 8260 8257 8256 8254 8254 8255 
8266 8267 8268 8265 8260 8262 8264 8259 8261 8261 8262 8264 8261 8262 8263 8263 8263 8263 8260 8259 8257 8257 8262 8264 8263 8254 8245 8252 8264 8256 8261 8276 8276 8269 8270 8267 8203 8184 8182 8185 8198 8192 8198 8195 8200 8212 8216 8211 8214 8230 8237 8255 8265 8258 8262 8262 8262 8263 8259 8257 8256 8252 8252 8254 8251 8252 8253 8249 8252 8254 8257 8256 8255 8259 8259 8256 8258 8254 8255 8251 
8262 8266 8265 8262 8260 8260 8263 8258 8257 8259 8257 8261 8261 8264 8263 8262 8261 8261 8259 8261 8257 8259 8263 8267 8265 8266 8256 8246 8261 8262 8261 8265 8277 8277 8273 8272 8215 8194 8197 8207 8202 8195 8201 8197 8193 8200 8226 8249 8248 8246 8253 8265 8262 8260 8260 8264 8262 8262 8259 8258 8256 8253 8256 8252 8256 8251 8253 8251 8253 8255 8257 8255 8256 8256 8260 8256 8257 8255 8256 8252 
8259 8263 8260 8259 8259 8260 8261 8261 8259 8258 8258 8260 8261 8264 8263 8261 8261 8264 8261 8257 8257 8259 8263 8266 8266 8269 8267 8256 8249 8256 8267 8263 8267 8270 8262 8262 8248 8244 8244 8245 8207 8198 8199 8196 8193 8204 8239 8251 8247 8252 8260 8261 8262 8260 8262 8268 8261 8262 8257 8255 8256 8251 8253 8251 8252 8250 8253 8252 8253 8253 8259 8256 8256 8256 8258 8255 8255 8251 8254 8250 
8260 8264 8260 8256 8256 8259 8259 8259 8256 8257 8257 8260 8260 8262 8263 8266 8262 8262 8260 8259 8261 8262 8266 8267 8267 8270 8272 8270 8264 8250 8254 8266 8270 8264 8261 8264 8262 8263 8259 8255 8216 8217 8202 8200 8197 8204 8209 8241 8248 8255 8258 8260 8263 8263 8266 8265 8263 8262 8259 8260 8259 8254 8253 8254 8253 8248 8255 8254 8254 8251 8255 8257 8257 8258 8258 8252 8254 8249 8249 8255 
8260 8263 8262 8258 8256 8257 8259 8258 8258 8258 8259 8260 8261 8265 8266 8263 8261 8263 8262 8263 8262 8261 8267 8268 8268 8268 8271 8275 8273 8268 8267 8262 8261 8265 8262 8262 8259 8257 8258 8255 8254 8234 8207 8201 8206 8222 8222 8245 8257 8263 8260 8265 8266 8267 8264 8265 8262 8264 8259 8260 8258 8256 8255 8251 8252 8249 8252 8250 8254 8254 8256 8256 8258 8254 8260 8254 8251 8253 8251 8250 
8260 8263 8260 8257 8255 8258 8259 8256 8255 8257 8256 8255 8258 8263 8261 8261 8261 8264 8263 8264 8262 8264 8266 8269 8268 8271 8271 8273 8275 8275 8276 8272 8270 8261 8254 8255 8255 8251 8250 8247 8248 8248 8226 8227 8235 8247 8252 8260 8264 8263 8266 8264 8268 8267 8267 8266 8262 8265 8259 8258 8258 8255 8253 8250 8252 8250 8250 8249 8250 8254 8255 8257 8259 8254 8255 8253 8250 8248 8251 8247 
8261 8264 8261 8255 8256 8259 8260 8256 8256 8255 8255 8257 8256 8260 8259 8262 8259 8261 8263 8262 8264 8266 8266 8269 8269 8267 8270 8273 8277 8273 8274 8272 8278 8275 8268 8265 8257 8258 8250 8250 8253 8256 8259 8258 8259 8262 8264 8263 8266 8268 8269 8266 8267 8267 8265 8266 8265 8263 8258 8258 8260 8256 8253 8252 8252 8251 8254 8252 8252 8255 8257 8257 8257 8257 8255 8252 8251 8248 8249 8244 
8255 8259 8259 8257 8254 8256 8256 8254 8255 8254 8254 8255 8256 8258 8257 8257 8258 8256 8258 8260 8262 8260 8267 8266 8265 8270 8270 8271 8276 8270 8274 8270 8278 8278 8277 8279 8279 8278 8274 8269 8272 8273 8275 8272 8267 8267 8266 8269 8270 8271 8272 8267 8267 8266 8266 8265 8260 8260 8257 8255 8254 8252 8253 8251 8253 8251 8250 8251 8255 8254 8259 8258 8256 8253 8254 8247 8248 8244 8246 8245 
8255 8259 8258 8253 8250 8250 8253 8254 8252 8253 8254 8254 8250 8253 8256 8254 8255 8256 8256 8259 8260 8260 8265 8266 8269 8269 8271 8275 8275 8273 8274 8273 8276 8279 8280 8281 8282 8284 8281 8279 8279 8281 8277 8277 8269 8270 8270 8272 8275 8272 8271 8267 8264 8264 8262 8262 8257 8261 8257 8253 8253 8254 8248 8250 8252 8252 8250 8252 8256 8254 8258 8255 8252 8251 8248 8248 8241 8240 8241 8238 
8258 8260 8255 8247 8250 8249 8253 8252 8250 8253 8252 8252 8249 8250 8253 8251 8250 8254 8252 8258 8257 8258 8260 8264 8266 8267 8273 8272 8273 8272 8274 8274 8278 8274 8278 8279 8281 8282 8281 8280 8280 8281 8277 8273 8273 8273 8272 8270 8272 8270 8268 8264 8262 8261 8259 8263 8259 8257 8254 8253 8255 8252 8248 8251 8250 8251 8254 8254 8250 8255 8257 8255 8251 8246 8250 8244 8242 8235 8236 8233 
8261 8261 8251 8247 8250 8249 8250 8251 8249 8250 8251 8245 8247 8250 8248 8244 8247 8248 8251 8255 8255 8253 8256 8264 8267 8269 8270 8270 8273 8273 8272 8269 8275 8274 8276 8281 8280 8279 8279 8277 8280 8283 8278 8275 8271 8270 8274 8272 8271 8273 8267 8264 8264 8262 8258 8258 8254 8254 8255 8254 8253 8249 8250 8251 8251 8250 8252 8253 8252 8253 8257 8251 8251 8250 8248 8244 8242 8234 8232 8233 
8265 8257 8251 8246 8246 8244 8250 8246 8248 8250 8250 8243 8243 8245 8247 8243 8245 8244 8248 8248 8249 8251 8257 8261 8262 8264 8266 8268 8270 8266 8267 8260 8270 8270 8267 8271 8270 8270 8268 8264 8270 8277 8271 8269 8266 8266 8266 8266 8268 8266 8262 8258 8254 8253 8250 8249 8249 8249 8248 8251 8248 8244 8245 8248 8249 8247 8247 8245 8245 8245 8252 8249 8247 8243 8244 8235 8238 8231 8228 8236 


