P2
80 60
8231
8144 8144 8144 8145 8145 8148 8143 8144 8146 8147 8145 8145 8149 8150 8151 8149 8152 8150 8152 8154 8155 8161 8162 8169 8165 8165 8165 8167 8171 8170 8171 8172 8170 8174 8172 8173 8175 8171 8175 8172 8171 8171 8168 8173 8169 8170 8170 8168 8162 8166 8167 8163 8166 8163 8163 8159 8163 8163 8160 8163 8161 8162 8166 8167 8167 8171 8171 8175 8178 8179 8178 8179 8179 8179 8176 8177 8176 8174 8170 8167 
8142 8145 8142 8146 8146 8148 8146 8146 8149 8147 8149 8144 8149 8148 8152 8150 8150 8150 8154 8155 8158 8159 8163 8164 8163 8165 8167 8169 8170 8173 8174 8173 8173 8175 8171 8173 8171 8175 8175 8173 8172 8173 8170 8170 8171 8167 8172 8171 8168 8167 8166 8163 8165 8163 8163 8162 8161 8165 8164 8166 8163 8165 8166 8164 8168 8170 8170 8177 8178 8176 8178 8180 8177 8175 8174 8175 8173 8174 8165 8165 
8143 8141 8143 8144 8146 8147 8149 8148 8147 8148 8143 8145 8146 8147 8152 8150 8147 8150 8153 8155 8159 8160 8162 8166 8164 8163 8168 8167 8168 8173 8171 8173 8176 8174 8173 8172 8172 8173 8175 8172 8173 8172 8168 8169 8172 8167 8170 8168 8165 8166 8166 8165 8165 8165 8163 8161 8161 8161 8162 8163 8165 8165 8168 8163 8163 8169 8169 8172 8177 8178 8180 8177 8177 8175 8174 8176 8173 8174 8168 8164 
8140 8141 8146 8147 8147 8149 8147 8145 8150 8145 8141 8148 8145 8148 8150 8154 8151 8147 8153 8153 8156 8156 8160 8165 8164 8166 8167 8167 8170 8172 8172 8173 8175 8174 8175 8170 8172 8174 8173 8171 8173 8171 8167 8169 8170 8168 8168 8170 8167 8165 8167 8161 8163 8166 8166 8163 8163 8161 8162 8163 8165 8165 8163 8164 8164 8166 8168 8171 8174 8175 8176 8175 8177 8174 8172 8173 8172 8173 8165 8162 
8139 8146 8145 8146 8144 8149 8148 8145 8148 8143 8145 8146 8146 8146 8147 8146 8150 8150 8154 8152 8157 8160 8160 8163 8166 8168 8164 8165 8169 8170 8170 8172 8174 8174 8173 8174 8172 8175 8174 8173 8173 8173 8167 8171 8171 8166 8169 8168 8168 8165 8165 8162 8163 8167 8163 8162 8166 8165 8165 8165 8165 8165 8164 8164 8165 8169 8167 8169 8173 8175 8173 8177 8176 8177 8173 8173 8170 8169 8163 8166 
8141 8145 8145 8145 8146 8149 8147 8147 8149 8147 8143 8146 8145 8145 8147 8145 8147 8149 8152 8154 8155 8157 8162 8165 8163 8164 8167 8163 8168 8171 8172 8174 8169 8173 8172 8173 8172 8177 8173 8171 8173 8172 8170 8170 8170 8167 8167 8166 8164 8165 8165 8162 8164 8163 8165 8163 8163 8163 8164 8166 8165 8163 8163 8166 8163 8165 8166 8169 8170 8170 8172 8172 8175 8175 8173 8169 8172 8170 8164 8156 
8145 8143 8145 8142 8146 8153 8150 8153 8147 8145 8145 8142 8146 8148 8149 8148 8149 8151 8153 8154 8157 8158 8161 8166 8163 8165 8162 8164 8169 8170 8172 8172 8176 8173 8173 8171 8174 8174 8177 8174 8172 8171 8169 8171 8173 8172 8172 8168 8166 8166 8166 8165 8166 8165 8163 8164 8161 8163 8160 8163 8163 8163 8162 8163 8165 8166 8166 8166 8167 8171 8168 8168 8172 8174 8171 8171 8170 8170 8163 8157 
8147 8147 8144 8147 8147 8152 8150 8150 8150 8141 8140 8146 8144 8148 8151 8148 8148 8150 8152 8151 8155 8157 8161 8163 8161 8162 8163 8165 8168 8169 8170 8171 8172 8174 8171 8171 8170 8171 8172 8173 8171 8170 8169 8170 8171 8169 8171 8170 8165 8164 8164 8163 8163 8164 8163 8162 8163 8161 8165 8162 8162 8162 8163 8164 8163 8167 8165 8167 8170 8172 8168 8164 8169 8168 8170 8171 8170 8168 8162 8152 
8147 8150 8148 8145 8145 8152 8150 8151 8149 8146 8143 8146 8144 8149 8148 8149 8150 8147 8153 8155 8155 8157 8160 8163 8161 8159 8164 8166 8168 8170 8171 8170 8169 8170 8170 8173 8173 8173 8172 8171 8170 8171 8170 8171 8173 8170 8170 8169 8170 8166 8166 8161 8164 8166 8161 8163 8162 8163 8164 8162 8162 8164 8162 8160 8160 8163 8164 8166 8168 8169 8165 8168 8170 8169 8166 8167 8169 8167 8159 8157 
8148 8151 8147 8147 8146 8151 8152 8149 8149 8143 8143 8146 8144 8146 8146 8146 8150 8149 8153 8155 8157 8158 8160 8162 8159 8161 8163 8168 8166 8168 8172 8170 8170 8171 8170 8170 8169 8171 8173 8170 8171 8167 8170 8172 8174 8170 8171 8170 8167 8167 8164 8163 8166 8165 8163 8163 8163 8164 8163 8163 8166 8166 8163 8160 8164 8165 8162 8165 8167 8167 8165 8166 8169 8166 8166 8166 8166 8167 8160 8154 
8147 8150 8145 8144 8148 8150 8149 8146 8149 8142 8144 8145 8145 8146 8149 8151 8149 8150 8154 8155 8156 8157 8159 8163 8162 8163 8164 8164 8168 8169 8169 8171 8168 8169 8163 8168 8170 8169 8172 8168 8169 8170 8170 8173 8174 8173 8175 8171 8168 8165 8165 8165 8167 8165 8166 8164 8162 8159 8163 8163 8164 8162 8162 8160 8160 8165 8163 8163 8165 8165 8165 8165 8166 8166 8169 8165 8167 8165 8158 8156 
8148 8149 8147 8147 8146 8150 8144 8146 8148 8143 8142 8145 8147 8148 8148 8151 8150 8148 8154 8155 8157 8157 8159 8166 8161 8163 8162 8165 8169 8168 8169 8171 8170 8168 8169 8168 8170 8168 8172 8170 8169 8171 8168 8171 8173 8171 8170 8170 8166 8166 8167 8164 8166 8166 8163 8165 8161 8164 8163 8163 8165 8164 8165 8163 8161 8163 8164 8164 8167 8161 8165 8164 8168 8163 8164 8167 8164 8166 8157 8154 
8144 8149 8147 8148 8145 8144 8146 8150 8149 8146 8145 8148 8142 8145 8152 8148 8149 8151 8152 8156 8155 8160 8162 8164 8161 8164 8163 8166 8168 8170 8169 8168 8171 8168 8170 8169 8169 8171 8169 8165 8169 8167 8166 8172 8175 8169 8172 8169 8166 8166 8169 8163 8163 8166 8166 8163 8162 8164 8163 8162 8162 8162 8160 8163 8165 8164 8163 8162 8165 8164 8166 8165 8166 8165 8165 8165 8166 8167 8159 8158 
8150 8147 8148 8148 8150 8150 8150 8147 8152 8146 8147 8150 8145 8147 8146 8147 8150 8152 8154 8154 8156 8156 8160 8160 8161 8162 8163 8164 8165 8168 8169 8168 8168 8166 8165 8167 8168 8168 8167 8168 8168 8166 8168 8174 8170 8169 8166 8171 8168 8166 8166 8164 8164 8165 8167 8161 8164 8164 8163 8163 8159 8161 8163 8160 8162 8165 8162 8163 8166 8165 8164 8165 8167 8166 8164 8162 8166 8162 8156 8154 
8145 8149 8150 8149 8151 8154 8150 8149 8149 8150 8147 8150 8146 8147 8150 8150 8155 8151 8155 8158 8157 8161 8159 8165 8165 8164 8165 8164 8164 8169 8168 8169 8171 8168 8164 8171 8169 8168 8167 8166 8169 8169 8165 8170 8170 8168 8169 8169 8168 8167 8166 8166 8166 8164 8165 8162 8162 8164 8164 8162 8163 8160 8162 8161 8162 8162 8163 8164 8165 8164 8165 8164 8167 8163 8167 8165 8165 8165 8159 8164 
8145 8148 8149 8149 8149 8150 8150 8151 8147 8148 8148 8150 8145 8151 8151 8149 8153 8151 8157 8154 8157 8155 8158 8164 8163 8161 8165 8166 8166 8169 8168 8168 8171 8170 8170 8167 8168 8168 8169 8165 8167 8167 8166 8169 8170 8166 8167 8168 8165 8164 8165 8163 8164 8164 8164 8160 8161 8164 8163 8163 8160 8159 8161 8162 8162 8163 8162 8165 8163 8163 8164 8162 8168 8164 8167 8165 8166 8167 8156 8163 
8148 8149 8149 8151 8149 8148 8147 8150 8149 8148 8149 8150 8148 8149 8152 8149 8150 8152 8155 8151 8157 8158 8161 8164 8164 8165 8164 8165 8168 8168 8169 8168 8171 8170 8168 8170 8166 8169 8167 8166 8167 8165 8166 8170 8169 8168 8166 8169 8164 8165 8165 8164 8161 8164 8163 8161 8162 8161 8160 8161 8162 8161 8161 8160 8163 8162 8165 8164 8165 8165 8165 8164 8164 8168 8167 8167 8169 8166 8158 8155 
8148 8150 8150 8147 8148 8150 8150 8149 8149 8150 8150 8156 8149 8150 8153 8152 8153 8151 8154 8155 8157 8157 8159 8165 8164 8166 8163 8165 8167 8170 8172 8171 8170 8169 8169 8168 8169 8172 8169 8167 8168 8166 8167 8167 8171 8166 8166 8167 8165 8165 8163 8162 8164 8165 8163 8162 8159 8162 8161 8162 8162 8162 8161 8160 8158 8162 8163 8165 8164 8165 8165 8166 8167 8167 8169 8164 8164 8164 8162 8158 
8150 8147 8148 8151 8150 8152 8150 8151 8149 8149 8151 8152 8150 8153 8153 8152 8156 8149 8155 8153 8159 8159 8160 8162 8163 8163 8163 8165 8167 8170 8169 8170 8171 8172 8169 8171 8170 8172 8169 8169 8167 8168 8166 8167 8168 8162 8165 8165 8165 8163 8161 8160 8162 8165 8168 8161 8160 8161 8163 8163 8161 8158 8160 8159 8160 8163 8165 8162 8165 8166 8165 8164 8167 8166 8169 8165 8165 8163 8159 8158 
8152 8147 8150 8149 8149 8150 8150 8151 8150 8149 8152 8152 8151 8154 8151 8153 8151 8151 8154 8154 8157 8156 8158 8165 8162 8161 8165 8166 8167 8168 8169 8170 8172 8171 8172 8170 8168 8172 8168 8169 8167 8167 8164 8166 8167 8162 8164 8166 8164 8164 8162 8159 8163 8165 8163 8162 8159 8161 8157 8159 8158 8159 8162 8161 8161 8163 8161 8164 8165 8165 8163 8166 8166 8166 8164 8165 8162 8162 8158 8156 
8150 8149 8151 8152 8150 8154 8151 8151 8151 8150 8153 8150 8150 8151 8151 8149 8152 8152 8151 8153 8155 8158 8158 8166 8162 8163 8164 8165 8167 8170 8171 8172 8171 8175 8172 8170 8167 8169 8170 8167 8165 8164 8166 8166 8167 8164 8166 8164 8161 8163 8161 8158 8161 8163 8162 8159 8160 8158 8156 8159 8159 8163 8158 8163 8160 8161 8161 8162 8166 8166 8163 8164 8163 8164 8166 8165 8160 8162 8158 8154 
8148 8150 8153 8151 8150 8155 8153 8151 8149 8151 8149 8153 8151 8152 8153 8152 8152 8150 8154 8152 8154 8158 8162 8164 8161 8162 8162 8163 8165 8168 8169 8171 8171 8170 8170 8169 8168 8166 8167 8164 8165 8163 8165 8168 8167 8162 8164 8161 8161 8162 8160 8157 8161 8162 8165 8159 8159 8159 8159 8160 8158 8162 8163 8161 8161 8163 8163 8163 8169 8166 8165 8166 8169 8165 8167 8162 8162 8163 8156 8149 
8148 8152 8152 8151 8150 8150 8148 8149 8148 8148 8151 8155 8150 8152 8152 8151 8153 8148 8152 8154 8158 8158 8161 8163 8163 8162 8162 8162 8166 8169 8168 8168 8170 8169 8169 8172 8167 8169 8169 8166 8167 8167 8160 8166 8165 8164 8163 8164 8161 8162 8159 8158 8161 8164 8164 8162 8160 8162 8159 8161 8160 8162 8161 8162 8163 8163 8166 8160 8166 8165 8163 8168 8166 8164 8166 8163 8162 8163 8156 8155 
8151 8153 8150 8149 8151 8152 8150 8149 8148 8152 8150 8155 8150 8151 8153 8152 8153 8150 8154 8155 8157 8159 8161 8164 8161 8161 8162 8162 8166 8168 8168 8171 8172 8168 8169 8168 8169 8168 8167 8168 8165 8163 8164 8162 8165 8163 8164 8164 8160 8162 8162 8157 8163 8162 8162 8160 8163 8159 8160 8162 8161 8163 8162 8163 8163 8167 8165 8165 8166 8167 8165 8168 8167 8166 8162 8163 8159 8160 8152 8151 
8151 8154 8154 8152 8151 8153 8150 8151 8150 8151 8152 8155 8153 8156 8155 8154 8153 8153 8153 8155 8155 8159 8161 8163 8163 8161 8163 8163 8167 8169 8167 8170 8172 8170 8170 8168 8166 8163 8157 8158 8163 8163 8163 8165 8165 8158 8156 8163 8161 8162 8160 8158 8163 8162 8165 8161 8161 8161 8159 8162 8160 8160 8165 8165 8163 8167 8166 8165 8166 8164 8164 8165 8166 8164 8164 8161 8158 8159 8154 8156 
8151 8154 8150 8149 8151 8153 8152 8153 8152 8151 8151 8151 8153 8157 8155 8155 8155 8155 8154 8154 8157 8158 8159 8163 8162 8161 8161 8163 8168 8170 8169 8169 8173 8170 8169 8167 8166 8145 8131 8134 8153 8159 8158 8164 8150 8136 8134 8158 8162 8162 8159 8161 8163 8162 8160 8162 8160 8162 8159 8162 8160 8161 8164 8167 8165 8165 8166 8168 8167 8167 8165 8164 8164 8161 8160 8159 8159 8159 8155 8153 
8149 8153 8152 8150 8151 8151 8149 8149 8150 8152 8151 8154 8155 8152 8155 8153 8153 8154 8157 8154 8155 8157 8158 8163 8161 8165 8160 8162 8164 8168 8168 8168 8164 8155 8158 8165 8163 8148 8136 8134 8133 8152 8154 8152 8144 8124 8144 8163 8159 8163 8160 8160 8162 8161 8163 8159 8160 8162 8161 8164 8163 8161 8164 8166 8166 8167 8164 8164 8167 8166 8166 8165 8164 8162 8159 8161 8156 8158 8149 8152 
8150 8152 8153 8152 8150 8156 8149 8154 8149 8150 8151 8156 8151 8153 8153 8153 8154 8154 8154 8152 8155 8147 8143 8158 8160 8161 8159 8151 8143 8145 8145 8144 8142 8139 8147 8149 8139 8142 8145 8144 8144 8155 8160 8159 8137 8124 8136 8160 8159 8158 8160 8161 8158 8156 8161 8157 8160 8161 8161 8159 8163 8162 8165 8165 8165 8165 8165 8166 8166 8166 8163 8163 8163 8161 8160 8158 8160 8155 8152 8150 
8152 8153 8150 8153 8153 8155 8152 8151 8150 8149 8153 8152 8155 8153 8155 8154 8155 8152 8155 8153 8154 8146 8135 8159 8162 8164 8155 8139 8133 8132 8134 8132 8137 8142 8146 8155 8140 8151 8141 8129 8129 8134 8153 8149 8133 8123 8130 8138 8148 8156 8162 8157 8139 8130 8131 8141 8157 8161 8158 8162 8162 8161 8163 8162 8163 8164 8163 8167 8164 8163 8160 8160 8162 8159 8158 8160 8155 8155 8151 8151 
8151 8150 8154 8153 8154 8156 8155 8150 8151 8151 8155 8154 8152 8154 8154 8153 8156 8151 8150 8149 8151 8151 8138 8160 8160 8159 8148 8135 8131 8130 8133 8132 8135 8137 8144 8158 8135 8140 8150 8150 8139 8135 8136 8129 8129 8122 8142 8128 8140 8159 8161 8158 8130 8126 8128 8144 8158 8160 8159 8162 8163 8163 8161 8161 8162 8165 8163 8162 8165 8161 8163 8161 8160 8159 8160 8159 8157 8157 8148 8144 
8151 8155 8155 8155 8153 8152 8155 8152 8154 8148 8151 8152 8152 8152 8153 8152 8148 8140 8146 8144 8147 8144 8129 8138 8156 8155 8151 8132 8129 8131 8131 8131 8129 8128 8131 8129 8130 8134 8136 8152 8140 8131 8138 8135 8128 8122 8130 8129 8129 8153 8160 8153 8128 8127 8128 8152 8159 8160 8162 8162 8160 8161 8161 8162 8159 8160 8161 8161 8161 8163 8158 8159 8160 8160 8160 8159 8159 8159 8151 8151 
8154 8154 8155 8152 8153 8151 8152 8153 8153 8152 8151 8155 8151 8152 8146 8133 8147 8151 8154 8151 8154 8139 8136 8144 8158 8155 8149 8141 8132 8128 8128 8129 8134 8129 8129 8126 8130 8133 8130 8133 8139 8128 8125 8131 8126 8124 8127 8134 8129 8143 8160 8148 8128 8127 8132 8155 8158 8159 8159 8161 8161 8158 8162 8158 8159 8157 8161 8161 8159 8159 8161 8157 8160 8160 8160 8159 8160 8157 8148 8151 
8153 8158 8155 8154 8154 8156 8154 8151 8154 8152 8155 8155 8150 8151 8136 8146 8155 8152 8153 8154 8157 8151 8158 8149 8159 8156 8149 8132 8129 8129 8133 8129 8134 8131 8131 8130 8141 8147 8132 8133 8145 8131 8127 8130 8126 8132 8133 8129 8136 8141 8160 8139 8128 8127 8139 8157 8159 8158 8160 8162 8159 8161 8158 8156 8157 8159 8160 8162 8160 8163 8158 8158 8160 8158 8158 8161 8160 8157 8149 8152 
8156 8157 8156 8156 8154 8156 8157 8154 8154 8155 8153 8155 8150 8152 8142 8151 8154 8155 8158 8155 8153 8154 8156 8141 8137 8134 8139 8136 8136 8135 8135 8129 8132 8131 8130 8139 8147 8164 8156 8155 8146 8134 8128 8129 8131 8130 8142 8131 8147 8143 8157 8130 8123 8128 8146 8158 8159 8161 8160 8162 8158 8161 8159 8155 8156 8161 8163 8161 8163 8161 8159 8158 8161 8160 8158 8161 8159 8159 8154 8151 
8158 8160 8162 8156 8157 8157 8156 8156 8154 8152 8153 8155 8155 8152 8153 8153 8159 8155 8153 8137 8133 8146 8150 8144 8128 8130 8155 8146 8138 8142 8132 8131 8138 8134 8137 8136 8148 8158 8156 8154 8144 8158 8136 8132 8132 8129 8147 8140 8149 8159 8147 8129 8126 8132 8147 8160 8159 8160 8158 8161 8160 8158 8159 8158 8158 8161 8158 8160 8159 8160 8157 8160 8162 8160 8160 8159 8161 8159 8153 8149 
8160 8164 8162 8156 8156 8159 8157 8157 8154 8155 8152 8154 8155 8153 8154 8155 8157 8153 8143 8137 8154 8158 8160 8163 8141 8139 8141 8153 8132 8128 8136 8132 8133 8132 8129 8129 8130 8133 8132 8135 8143 8155 8156 8140 8137 8144 8137 8151 8157 8161 8149 8126 8127 8132 8158 8158 8158 8158 8161 8160 8160 8160 8160 8158 8158 8160 8159 8160 8158 8158 8160 8161 8162 8161 8163 8160 8161 8156 8150 8151 
8158 8160 8158 8157 8160 8157 8159 8159 8156 8150 8153 8155 8152 8155 8153 8154 8157 8152 8136 8153 8161 8158 8162 8162 8152 8144 8137 8144 8131 8130 8139 8136 8133 8126 8130 8130 8129 8129 8130 8126 8142 8129 8131 8135 8157 8163 8151 8142 8157 8160 8139 8126 8129 8137 8161 8161 8161 8160 8157 8161 8161 8157 8160 8156 8157 8161 8157 8160 8160 8159 8162 8156 8163 8161 8163 8163 8159 8157 8154 8150 
8158 8164 8160 8157 8157 8161 8160 8159 8155 8152 8156 8152 8155 8152 8155 8154 8156 8148 8150 8157 8159 8159 8152 8149 8154 8141 8135 8139 8139 8131 8132 8127 8130 8129 8127 8131 8127 8126 8129 8128 8134 8129 8125 8132 8139 8162 8164 8145 8151 8158 8133 8128 8130 8148 8163 8161 8161 8161 8160 8163 8157 8158 8161 8159 8162 8161 8160 8158 8159 8159 8161 8159 8158 8162 8161 8158 8158 8160 8154 8153 
8160 8159 8163 8158 8159 8160 8160 8156 8156 8153 8152 8156 8153 8153 8152 8151 8152 8154 8155 8158 8160 8159 8153 8162 8160 8154 8132 8131 8140 8131 8132 8131 8129 8133 8129 8127 8131 8126 8127 8122 8131 8129 8131 8133 8132 8155 8166 8158 8147 8152 8130 8127 8130 8155 8165 8165 8161 8164 8159 8161 8159 8160 8160 8157 8157 8162 8159 8159 8160 8157 8160 8156 8161 8160 8161 8160 8159 8161 8156 8153 
8160 8160 8157 8158 8161 8159 8158 8158 8154 8154 8154 8155 8153 8152 8153 8153 8154 8150 8155 8157 8160 8161 8162 8165 8158 8142 8134 8128 8136 8133 8129 8129 8130 8132 8130 8131 8130 8128 8126 8131 8130 8131 8153 8140 8136 8152 8166 8164 8154 8145 8128 8131 8135 8159 8165 8163 8162 8163 8163 8161 8163 8162 8163 8160 8160 8159 8159 8159 8159 8164 8159 8157 8161 8160 8160 8162 8159 8160 8155 8152 
8159 8160 8159 8154 8157 8160 8159 8156 8149 8153 8154 8154 8155 8155 8154 8152 8155 8152 8155 8155 8158 8159 8158 8151 8136 8134 8155 8136 8131 8130 8131 8127 8127 8127 8129 8129 8129 8127 8129 8149 8135 8135 8162 8161 8139 8149 8166 8166 8161 8142 8127 8130 8140 8163 8168 8163 8162 8163 8159 8162 8161 8163 8162 8160 8158 8158 8157 8157 8161 8161 8161 8159 8160 8160 8162 8162 8157 8160 8152 8148 
8158 8158 8159 8153 8153 8159 8156 8156 8151 8153 8155 8154 8155 8156 8155 8155 8155 8154 8158 8157 8160 8156 8144 8127 8127 8131 8147 8140 8130 8131 8131 8132 8130 8129 8134 8133 8130 8131 8130 8132 8134 8141 8164 8167 8152 8148 8167 8165 8161 8135 8130 8127 8149 8164 8166 8161 8163 8161 8161 8162 8165 8162 8159 8160 8159 8161 8157 8159 8160 8160 8163 8161 8162 8162 8162 8162 8161 8158 8156 8152 
8160 8158 8157 8153 8154 8155 8154 8153 8154 8151 8153 8158 8154 8154 8155 8154 8154 8155 8156 8154 8161 8154 8136 8128 8126 8127 8127 8128 8132 8130 8134 8131 8131 8129 8129 8132 8132 8129 8130 8127 8134 8137 8156 8169 8165 8157 8168 8164 8158 8130 8132 8130 8153 8164 8165 8165 8163 8164 8158 8164 8161 8162 8160 8160 8159 8159 8160 8159 8162 8160 8161 8160 8163 8165 8161 8161 8159 8159 8150 8148 
8157 8160 8155 8155 8154 8156 8156 8155 8151 8155 8155 8157 8155 8156 8158 8158 8155 8158 8156 8158 8157 8154 8136 8128 8127 8128 8132 8131 8132 8131 8133 8133 8131 8129 8131 8131 8134 8132 8129 8129 8150 8156 8146 8166 8169 8165 8168 8168 8151 8133 8130 8132 8159 8164 8167 8164 8166 8165 8162 8163 8163 8161 8162 8159 8160 8159 8161 8160 8158 8160 8161 8160 8162 8163 8163 8161 8159 8160 8152 8150 
8158 8161 8159 8155 8155 8157 8154 8156 8157 8154 8156 8155 8153 8155 8157 8156 8159 8156 8158 8158 8156 8152 8133 8130 8127 8130 8152 8147 8147 8136 8134 8136 8132 8131 8130 8133 8132 8133 8130 8137 8157 8158 8145 8157 8164 8162 8163 8164 8143 8133 8131 8140 8161 8165 8165 8165 8163 8165 8163 8164 8163 8165 8161 8161 8160 8159 8161 8160 8159 8161 8162 8162 8165 8162 8161 8161 8162 8162 8154 8150 
8161 8161 8158 8156 8156 8157 8158 8158 8156 8155 8158 8156 8156 8156 8159 8158 8158 8158 8157 8155 8159 8151 8140 8132 8128 8132 8155 8157 8155 8138 8136 8132 8132 8131 8131 8130 8134 8136 8131 8134 8137 8135 8136 8144 8144 8142 8141 8142 8137 8134 8132 8142 8161 8163 8166 8164 8165 8163 8163 8165 8164 8162 8161 8158 8159 8161 8162 8161 8160 8165 8163 8161 8162 8161 8163 8163 8163 8163 8156 8151 
8157 8160 8157 8158 8156 8158 8156 8159 8156 8153 8155 8156 8157 8159 8162 8156 8159 8155 8158 8154 8157 8155 8153 8139 8126 8130 8138 8139 8141 8135 8137 8136 8131 8130 8131 8133 8133 8133 8132 8132 8131 8134 8134 8141 8139 8136 8138 8139 8133 8134 8136 8146 8161 8167 8168 8165 8159 8162 8162 8164 8162 8162 8162 8160 8159 8164 8161 8160 8163 8162 8163 8164 8164 8165 8164 8162 8162 8162 8152 8148 
8159 8160 8163 8156 8157 8161 8159 8159 8160 8157 8158 8158 8156 8156 8158 8156 8158 8156 8158 8148 8142 8136 8136 8136 8132 8130 8134 8135 8136 8136 8139 8136 8135 8131 8133 8133 8131 8137 8133 8133 8133 8136 8135 8136 8142 8138 8140 8136 8132 8136 8161 8183 8167 8169 8167 8163 8163 8164 8163 8162 8162 8161 8161 8159 8158 8160 8160 8161 8163 8163 8163 8163 8166 8165 8166 8165 8163 8162 8154 8153 
8159 8161 8162 8156 8159 8161 8158 8157 8161 8157 8158 8160 8159 8158 8158 8159 8160 8159 8145 8130 8131 8131 8134 8137 8133 8136 8137 8135 8135 8137 8137 8134 8134 8130 8131 8130 8130 8132 8133 8133 8135 8134 8136 8139 8142 8142 8141 8138 8138 8143 8176 8182 8166 8166 8164 8163 8162 8162 8163 8161 8165 8161 8161 8159 8157 8159 8159 8162 8161 8162 8162 8166 8165 8164 8165 8162 8162 8158 8154 8156 
8163 8162 8161 8161 8160 8160 8162 8159 8159 8155 8157 8159 8158 8161 8159 8158 8160 8155 8150 8136 8131 8130 8132 8136 8132 8137 8137 8137 8138 8135 8135 8135 8136 8135 8135 8132 8131 8132 8134 8135 8136 8138 8142 8145 8145 8143 8145 8144 8143 8145 8152 8158 8165 8167 8168 8161 8163 8163 8163 8162 8162 8161 8161 8158 8157 8160 8159 8160 8162 8164 8167 8165 8166 8165 8166 8165 8166 8161 8158 8153 
8158 8164 8161 8159 8160 8163 8164 8162 8160 8157 8158 8160 8160 8161 8162 8159 8158 8159 8156 8137 8130 8129 8132 8135 8135 8137 8135 8140 8137 8137 8142 8140 8141 8142 8137 8137 8140 8140 8140 8138 8139 8141 8141 8144 8147 8147 8150 8146 8144 8150 8156 8159 8165 8166 8167 8161 8163 8165 8163 8164 8162 8162 8162 8160 8157 8159 8158 8159 8161 8165 8164 8165 8167 8168 8167 8166 8164 8160 8152 8153 
8161 8162 8163 8160 8159 8162 8162 8160 8161 8159 8160 8159 8161 8161 8161 8158 8158 8156 8155 8141 8130 8127 8131 8136 8135 8134 8137 8138 8138 8140 8141 8141 8143 8143 8139 8139 8137 8141 8140 8137 8138 8139 8140 8144 8149 8145 8151 8155 8160 8172 8173 8166 8166 8168 8169 8164 8161 8165 8163 8162 8163 8161 8161 8161 8161 8162 8161 8159 8162 8163 8163 8163 8164 8168 8166 8165 8162 8161 8155 8153 
8164 8163 8163 8161 8160 8166 8161 8160 8160 8158 8161 8163 8158 8159 8163 8161 8159 8156 8159 8146 8131 8128 8130 8136 8135 8135 8138 8137 8142 8139 8143 8141 8146 8143 8142 8140 8143 8141 8143 8142 8144 8143 8143 8147 8152 8150 8166 8198 8203 8176 8165 8169 8168 8167 8168 8165 8165 8166 8163 8163 8165 8161 8160 8161 8158 8160 8165 8162 8161 8166 8162 8162 8171 8168 8164 8163 8158 8161 8154 8153 
8162 8161 8165 8158 8159 8165 8162 8160 8159 8160 8159 8163 8160 8162 8161 8159 8157 8154 8157 8155 8141 8131 8132 8136 8134 8134 8134 8139 8141 8140 8143 8143 8144 8143 8140 8143 8146 8146 8144 8141 8142 8144 8145 8146 8147 8166 8209 8231 8212 8163 8161 8167 8170 8170 8168 8166 8165 8166 8163 8163 8163 8163 8160 8157 8160 8159 8160 8162 8164 8165 8166 8163 8168 8165 8163 8163 8158 8160 8151 8154 
8163 8167 8163 8159 8162 8164 8160 8162 8162 8160 8156 8161 8158 8158 8161 8159 8158 8156 8158 8157 8158 8132 8126 8132 8137 8139 8137 8138 8141 8139 8142 8141 8141 8142 8142 8139 8140 8143 8140 8140 8143 8141 8142 8146 8151 8162 8181 8187 8167 8146 8161 8167 8167 8170 8168 8164 8163 8168 8162 8162 8163 8162 8159 8160 8159 8162 8164 8163 8164 8162 8164 8164 8167 8168 8164 8160 8157 8156 8155 8149 
8166 8169 8164 8161 8162 8164 8159 8160 8160 8157 8160 8161 8157 8157 8160 8157 8157 8156 8158 8159 8161 8139 8127 8132 8131 8132 8132 8132 8135 8137 8140 8138 8136 8139 8140 8138 8139 8140 8138 8138 8140 8141 8140 8144 8144 8147 8150 8148 8145 8145 8161 8167 8171 8170 8169 8162 8164 8168 8164 8166 8163 8159 8161 8160 8161 8164 8164 8164 8163 8164 8164 8167 8168 8165 8163 8156 8156 8157 8153 8148 
8162 8166 8161 8158 8158 8161 8157 8157 8162 8157 8160 8158 8156 8155 8160 8158 8158 8156 8158 8160 8162 8143 8128 8134 8132 8127 8131 8132 8136 8135 8137 8136 8138 8137 8135 8138 8136 8137 8139 8140 8138 8139 8136 8139 8141 8139 8144 8141 8139 8141 8161 8167 8171 8168 8170 8165 8164 8166 8163 8166 8165 8163 8159 8157 8161 8162 8162 8166 8165 8168 8164 8163 8167 8164 8163 8161 8157 8156 8151 8149 
8159 8167 8159 8158 8158 8160 8158 8155 8156 8153 8158 8159 8157 8155 8159 8156 8155 8154 8157 8158 8160 8146 8130 8131 8131 8129 8130 8130 8133 8136 8138 8135 8138 8137 8133 8134 8136 8136 8137 8136 8139 8138 8138 8140 8140 8139 8138 8140 8137 8144 8162 8166 8168 8167 8167 8163 8165 8166 8162 8165 8166 8162 8159 8163 8160 8164 8163 8166 8168 8165 8164 8162 8168 8163 8163 8157 8155 8156 8150 8150 
8161 8161 8157 8155 8154 8156 8155 8155 8156 8150 8155 8159 8155 8155 8158 8150 8154 8153 8156 8155 8158 8152 8130 8132 8131 8131 8129 8132 8134 8135 8136 8136 8134 8135 8136 8137 8134 8136 8133 8135 8137 8136 8136 8140 8142 8140 8138 8143 8141 8147 8163 8168 8171 8170 8174 8167 8166 8168 8168 8166 8164 8162 8161 8162 8165 8167 8164 8165 8167 8168 8167 8165 8166 8167 8162 8160 8157 8156 8154 8151 
8161 8153 8152 8153 8153 8151 8148 8143 8143 8142 8142 8142 8135 8145 8145 8148 8150 8150 8154 8156 8159 8152 8129 8129 8130 8127 8128 8129 8131 8133 8135 8137 8139 8139 8139 8138 8143 8144 8141 8140 8141 8141 8143 8144 8146 8144 8143 8145 8144 8149 8169 8171 8171 8174 8169 8171 8168 8170 8173 8172 8171 8166 8166 8170 8169 8171 8166 8167 8171 8173 8167 8165 8169 8165 8165 8160 8160 8155 8155 8155 


