P2
80 60
8277
8106 8103 8113 8111 8117 8119 8132 8150 8166 8173 8174 8173 8169 8163 8157 8157 8149 8145 8146 8146 8146 8150 8156 8164 8164 8170 8174 8176 8183 8184 8184 8184 8182 8182 8184 8189 8193 8189 8186 8188 8180 8171 8165 8159 8159 8164 8170 8171 8172 8172 8172 8173 8173 8167 8167 8165 8159 8156 8162 8166 8187 8215 8224 8224 8229 8232 8234 8234 8236 8241 8242 8245 8249 8249 8250 8252 8254 8252 8248 8250 
8104 8108 8110 8117 8121 8126 8149 8165 8177 8178 8175 8173 8160 8152 8142 8143 8138 8137 8136 8136 8131 8136 8142 8148 8158 8164 8168 8179 8184 8185 8185 8184 8179 8182 8186 8191 8196 8192 8190 8187 8175 8170 8166 8160 8159 8165 8170 8170 8172 8163 8158 8161 8160 8154 8157 8156 8146 8151 8161 8165 8191 8212 8220 8223 8231 8237 8238 8238 8237 8242 8243 8245 8249 8249 8246 8248 8252 8251 8248 8250 
8106 8117 8119 8122 8130 8144 8169 8175 8178 8178 8173 8164 8149 8138 8134 8130 8132 8129 8129 8130 8128 8127 8134 8143 8149 8151 8160 8169 8176 8173 8173 8176 8173 8174 8179 8189 8190 8183 8184 8183 8169 8160 8156 8149 8147 8155 8159 8156 8149 8144 8141 8141 8137 8139 8146 8142 8139 8146 8155 8164 8192 8210 8221 8223 8232 8235 8235 8236 8239 8241 8240 8242 8243 8244 8244 8244 8248 8251 8249 8244 
8115 8120 8120 8128 8134 8155 8179 8180 8181 8173 8164 8151 8139 8134 8128 8129 8128 8127 8128 8128 8126 8128 8130 8140 8143 8151 8157 8162 8171 8171 8172 8172 8173 8174 8172 8172 8178 8174 8177 8168 8159 8152 8146 8143 8144 8147 8152 8145 8141 8138 8133 8136 8136 8135 8138 8133 8138 8144 8157 8172 8198 8218 8223 8224 8229 8233 8235 8237 8236 8241 8240 8242 8245 8246 8242 8245 8246 8251 8248 8242 
8119 8126 8127 8133 8144 8170 8188 8188 8182 8167 8152 8147 8136 8130 8128 8127 8129 8126 8131 8130 8127 8132 8135 8144 8149 8153 8158 8164 8168 8171 8170 8169 8171 8176 8173 8172 8175 8172 8168 8166 8158 8150 8144 8141 8144 8151 8152 8146 8146 8145 8144 8140 8139 8136 8135 8134 8132 8137 8144 8165 8202 8216 8223 8227 8232 8233 8234 8235 8239 8239 8239 8239 8243 8242 8239 8242 8246 8250 8246 8248 
8124 8131 8133 8143 8172 8195 8195 8191 8181 8165 8147 8142 8134 8134 8132 8127 8129 8130 8133 8134 8132 8140 8143 8156 8166 8168 8163 8169 8167 8168 8167 8168 8172 8174 8172 8170 8175 8171 8172 8164 8156 8148 8147 8145 8146 8159 8159 8151 8150 8142 8135 8140 8137 8135 8136 8135 8131 8138 8136 8163 8200 8215 8224 8225 8229 8237 8232 8239 8237 8240 8238 8238 8239 8239 8242 8242 8246 8244 8245 8243 
8128 8130 8140 8157 8187 8195 8201 8191 8185 8170 8159 8150 8141 8143 8137 8138 8138 8140 8142 8148 8153 8159 8161 8173 8173 8173 8174 8169 8174 8167 8172 8170 8171 8174 8172 8171 8180 8177 8173 8166 8159 8156 8157 8157 8160 8166 8159 8145 8150 8149 8136 8134 8133 8129 8134 8132 8130 8139 8136 8168 8205 8216 8226 8229 8230 8232 8233 8236 8238 8239 8237 8242 8238 8240 8236 8239 8242 8244 8242 8244 
8128 8136 8148 8179 8199 8203 8205 8194 8194 8193 8181 8179 8178 8175 8172 8167 8166 8166 8172 8175 8174 8176 8177 8186 8186 8185 8188 8181 8179 8179 8181 8178 8175 8180 8180 8182 8195 8186 8183 8174 8163 8162 8160 8159 8164 8167 8157 8151 8150 8141 8137 8136 8133 8132 8132 8132 8137 8136 8142 8175 8204 8217 8221 8228 8229 8231 8230 8231 8235 8238 8235 8234 8234 8234 8231 8233 8243 8243 8236 8236 
8133 8144 8169 8197 8211 8212 8207 8197 8196 8199 8200 8199 8200 8202 8195 8198 8196 8197 8201 8202 8203 8199 8199 8205 8203 8204 8209 8208 8207 8205 8206 8206 8204 8204 8208 8206 8209 8203 8200 8189 8183 8183 8180 8172 8172 8169 8167 8160 8156 8147 8143 8144 8143 8145 8146 8146 8145 8149 8162 8188 8212 8217 8222 8221 8224 8225 8229 8227 8230 8230 8231 8233 8231 8230 8230 8233 8236 8243 8238 8234 
8139 8154 8190 8211 8220 8216 8206 8198 8199 8198 8198 8204 8205 8204 8201 8203 8203 8202 8205 8208 8203 8204 8203 8208 8206 8209 8214 8204 8198 8186 8184 8202 8196 8194 8200 8212 8215 8210 8209 8209 8212 8205 8208 8203 8197 8198 8196 8204 8204 8199 8195 8197 8192 8190 8192 8186 8188 8190 8198 8208 8216 8220 8222 8220 8220 8224 8226 8225 8228 8231 8231 8233 8232 8228 8229 8232 8237 8236 8233 8233 
8143 8175 8201 8224 8229 8222 8204 8201 8199 8199 8200 8204 8208 8205 8204 8205 8207 8205 8208 8207 8205 8206 8208 8206 8203 8207 8215 8219 8222 8216 8192 8169 8159 8160 8157 8212 8217 8212 8211 8215 8213 8212 8208 8202 8198 8203 8207 8211 8217 8220 8218 8224 8225 8221 8225 8224 8220 8221 8218 8220 8223 8225 8225 8224 8220 8227 8224 8227 8230 8233 8226 8229 8231 8232 8230 8230 8233 8236 8233 8235 
8161 8197 8212 8228 8237 8217 8203 8200 8200 8200 8200 8205 8206 8209 8203 8206 8206 8206 8211 8208 8206 8206 8206 8208 8193 8171 8209 8220 8225 8224 8208 8215 8211 8213 8208 8218 8215 8209 8215 8218 8213 8214 8210 8207 8203 8209 8211 8214 8220 8219 8223 8231 8227 8231 8230 8228 8228 8227 8225 8221 8226 8224 8224 8225 8225 8231 8228 8231 8233 8233 8229 8231 8232 8231 8230 8228 8230 8234 8235 8233 
8192 8216 8230 8239 8241 8215 8205 8202 8203 8205 8204 8208 8207 8209 8207 8209 8206 8211 8210 8211 8209 8205 8207 8209 8182 8145 8185 8215 8221 8222 8202 8218 8216 8220 8219 8218 8216 8212 8210 8212 8213 8214 8211 8208 8205 8208 8213 8215 8223 8222 8224 8233 8232 8233 8233 8233 8230 8230 8226 8223 8225 8223 8226 8224 8227 8231 8232 8235 8235 8236 8232 8233 8234 8236 8232 8229 8232 8236 8237 8233 
8214 8238 8243 8241 8238 8211 8209 8205 8203 8206 8205 8205 8209 8207 8208 8209 8211 8210 8211 8212 8211 8209 8209 8189 8139 8136 8152 8200 8186 8201 8187 8162 8166 8196 8193 8208 8212 8207 8204 8181 8211 8215 8211 8211 8208 8210 8214 8216 8221 8226 8230 8232 8234 8235 8236 8235 8230 8228 8229 8227 8225 8225 8228 8227 8229 8230 8228 8231 8236 8239 8235 8236 8236 8235 8234 8232 8231 8239 8233 8229 
8228 8244 8244 8244 8226 8210 8209 8205 8205 8209 8207 8209 8210 8210 8209 8211 8211 8212 8213 8211 8207 8207 8189 8158 8166 8156 8165 8164 8142 8167 8166 8153 8145 8178 8203 8205 8200 8181 8152 8184 8210 8212 8213 8210 8209 8212 8215 8210 8205 8219 8222 8230 8234 8234 8236 8239 8232 8234 8232 8228 8226 8225 8228 8226 8227 8229 8227 8229 8237 8238 8237 8236 8236 8238 8235 8232 8234 8237 8233 8232 
8238 8246 8246 8243 8217 8206 8209 8207 8207 8208 8208 8208 8208 8210 8211 8212 8213 8213 8214 8210 8204 8172 8149 8191 8195 8170 8138 8120 8137 8158 8147 8162 8156 8143 8196 8165 8132 8135 8127 8144 8170 8188 8202 8210 8210 8212 8213 8197 8159 8197 8217 8225 8232 8238 8238 8237 8238 8234 8231 8230 8231 8227 8228 8227 8229 8230 8229 8231 8234 8239 8235 8237 8239 8238 8232 8232 8234 8237 8231 8233 
8241 8245 8245 8232 8209 8209 8208 8206 8208 8209 8206 8209 8212 8210 8211 8212 8211 8213 8213 8200 8155 8135 8153 8187 8173 8167 8143 8118 8145 8141 8132 8129 8127 8115 8129 8120 8116 8164 8144 8163 8166 8198 8208 8210 8211 8213 8210 8165 8138 8148 8192 8219 8231 8235 8240 8240 8236 8235 8233 8231 8232 8227 8228 8227 8230 8232 8232 8234 8235 8239 8235 8237 8235 8235 8233 8233 8233 8236 8232 8229 
8239 8244 8244 8220 8211 8205 8207 8209 8210 8208 8207 8213 8210 8211 8211 8212 8211 8211 8207 8200 8173 8171 8146 8118 8108 8137 8145 8139 8143 8121 8122 8116 8119 8121 8111 8099 8117 8164 8158 8127 8121 8137 8176 8209 8207 8208 8189 8160 8167 8148 8137 8190 8225 8232 8234 8235 8238 8233 8230 8229 8231 8229 8226 8233 8233 8234 8234 8239 8239 8239 8237 8235 8237 8234 8237 8233 8235 8236 8233 8232 
8240 8246 8234 8216 8207 8204 8210 8211 8206 8210 8210 8214 8212 8211 8210 8210 8208 8210 8209 8205 8201 8171 8109 8108 8126 8145 8150 8148 8142 8127 8119 8111 8110 8132 8115 8112 8122 8142 8141 8132 8139 8148 8188 8199 8190 8188 8203 8207 8183 8145 8128 8143 8201 8227 8232 8233 8233 8228 8229 8232 8232 8230 8230 8233 8235 8235 8240 8239 8240 8239 8240 8239 8237 8237 8235 8235 8235 8236 8235 8237 
8241 8249 8228 8210 8209 8208 8208 8207 8209 8210 8210 8213 8213 8210 8209 8209 8208 8210 8210 8206 8188 8142 8142 8116 8143 8148 8148 8145 8147 8142 8128 8119 8105 8110 8100 8104 8119 8131 8170 8141 8167 8188 8180 8180 8196 8203 8208 8203 8140 8129 8126 8133 8163 8210 8229 8229 8229 8227 8229 8230 8232 8230 8236 8235 8235 8240 8240 8241 8240 8240 8240 8239 8240 8240 8238 8234 8235 8237 8236 8232 
8242 8251 8221 8210 8210 8206 8209 8206 8210 8207 8209 8210 8210 8208 8205 8205 8205 8204 8205 8203 8191 8183 8153 8133 8146 8150 8146 8147 8145 8144 8132 8128 8105 8110 8106 8108 8116 8127 8134 8125 8118 8117 8145 8192 8196 8165 8180 8185 8150 8135 8141 8146 8153 8182 8222 8225 8228 8230 8228 8233 8234 8231 8237 8239 8241 8241 8242 8244 8244 8242 8245 8242 8242 8242 8238 8236 8233 8233 8233 8233 
8242 8252 8214 8208 8206 8203 8206 8204 8207 8210 8207 8212 8205 8204 8206 8202 8202 8202 8198 8197 8193 8188 8159 8141 8143 8144 8148 8149 8139 8137 8126 8119 8106 8109 8104 8107 8117 8116 8121 8122 8116 8115 8118 8126 8147 8133 8171 8191 8203 8200 8204 8203 8183 8189 8225 8225 8229 8228 8229 8230 8234 8237 8240 8238 8241 8238 8239 8239 8241 8241 8241 8242 8243 8241 8235 8235 8232 8231 8228 8230 
8254 8237 8214 8208 8208 8205 8208 8205 8211 8210 8205 8207 8208 8205 8204 8201 8201 8193 8187 8185 8190 8191 8154 8138 8138 8143 8142 8147 8140 8131 8123 8109 8106 8112 8110 8106 8113 8114 8108 8111 8117 8119 8119 8116 8114 8115 8126 8124 8153 8176 8205 8215 8221 8210 8222 8223 8228 8231 8229 8232 8235 8235 8238 8238 8237 8238 8239 8236 8242 8241 8238 8239 8238 8241 8236 8232 8230 8230 8227 8230 
8256 8223 8215 8213 8209 8207 8210 8208 8208 8211 8206 8211 8209 8207 8207 8201 8190 8149 8145 8143 8150 8155 8134 8133 8134 8138 8141 8136 8136 8132 8122 8117 8117 8120 8116 8113 8113 8113 8108 8112 8116 8109 8108 8113 8116 8108 8114 8118 8127 8129 8148 8182 8213 8216 8222 8224 8225 8230 8232 8234 8233 8236 8238 8236 8238 8235 8233 8237 8238 8239 8236 8238 8239 8238 8232 8231 8229 8224 8220 8220 
8243 8218 8216 8212 8211 8206 8210 8209 8207 8210 8208 8211 8208 8208 8207 8205 8174 8150 8143 8137 8138 8145 8148 8133 8133 8134 8144 8136 8137 8134 8128 8124 8123 8123 8126 8120 8121 8117 8111 8116 8113 8110 8119 8112 8108 8119 8134 8166 8157 8148 8167 8202 8217 8217 8222 8224 8228 8234 8235 8234 8238 8236 8239 8236 8240 8236 8234 8237 8238 8237 8237 8237 8236 8235 8230 8229 8228 8220 8215 8218 
8224 8215 8212 8213 8209 8209 8210 8206 8209 8206 8209 8207 8209 8209 8208 8206 8169 8151 8145 8144 8138 8170 8191 8158 8136 8130 8129 8131 8123 8127 8128 8126 8119 8124 8122 8120 8124 8118 8110 8116 8115 8117 8118 8118 8112 8120 8153 8199 8205 8207 8208 8194 8202 8216 8227 8228 8232 8235 8237 8240 8241 8240 8241 8239 8241 8240 8235 8239 8238 8239 8237 8238 8239 8239 8235 8233 8229 8219 8215 8215 
8216 8213 8214 8215 8210 8210 8208 8210 8208 8210 8206 8209 8207 8213 8212 8211 8175 8166 8156 8138 8136 8134 8142 8132 8132 8127 8128 8129 8131 8124 8127 8129 8122 8122 8120 8122 8127 8119 8113 8117 8121 8118 8118 8114 8116 8117 8134 8200 8208 8209 8192 8156 8171 8184 8221 8228 8234 8238 8240 8242 8243 8243 8243 8240 8241 8238 8238 8240 8240 8241 8237 8237 8241 8241 8240 8234 8233 8231 8217 8225 
8214 8216 8214 8212 8211 8211 8209 8207 8208 8211 8209 8213 8211 8216 8215 8211 8179 8170 8154 8140 8135 8122 8115 8111 8127 8130 8129 8133 8130 8120 8118 8122 8119 8121 8117 8120 8116 8113 8112 8116 8120 8120 8113 8115 8114 8119 8129 8185 8203 8198 8159 8162 8169 8175 8198 8227 8237 8240 8241 8243 8245 8245 8245 8242 8242 8238 8240 8241 8243 8241 8240 8239 8240 8241 8237 8236 8238 8238 8229 8233 
8212 8215 8214 8214 8211 8209 8211 8209 8210 8211 8212 8214 8218 8218 8215 8212 8180 8165 8149 8143 8138 8119 8114 8116 8125 8137 8136 8133 8133 8122 8117 8118 8115 8121 8120 8112 8107 8105 8110 8114 8119 8116 8115 8112 8113 8114 8124 8173 8192 8196 8162 8158 8165 8172 8183 8214 8232 8237 8243 8240 8243 8239 8241 8239 8237 8238 8234 8236 8240 8240 8240 8240 8238 8241 8238 8237 8239 8240 8239 8244 
8212 8213 8211 8215 8211 8209 8214 8209 8212 8218 8214 8215 8217 8216 8217 8212 8179 8165 8146 8143 8138 8135 8114 8115 8126 8135 8133 8126 8133 8121 8115 8118 8115 8122 8122 8115 8111 8116 8120 8113 8116 8116 8114 8110 8112 8113 8129 8194 8206 8212 8213 8169 8168 8169 8179 8202 8231 8234 8239 8237 8239 8236 8240 8235 8236 8235 8235 8235 8240 8240 8239 8241 8242 8242 8240 8240 8238 8243 8240 8255 
8212 8213 8212 8215 8214 8213 8217 8214 8214 8214 8213 8219 8219 8219 8217 8215 8183 8163 8154 8145 8139 8123 8114 8116 8123 8134 8127 8127 8126 8122 8119 8119 8120 8130 8128 8124 8125 8121 8123 8127 8119 8114 8111 8109 8109 8113 8149 8201 8212 8219 8226 8205 8172 8172 8177 8198 8233 8234 8237 8237 8238 8236 8237 8236 8231 8236 8236 8234 8241 8241 8241 8239 8245 8244 8241 8240 8239 8241 8250 8267 
8214 8217 8216 8216 8211 8210 8215 8214 8213 8215 8212 8217 8219 8219 8219 8216 8200 8177 8169 8180 8193 8187 8164 8134 8117 8127 8131 8127 8125 8128 8120 8117 8119 8131 8125 8124 8126 8125 8125 8132 8128 8120 8113 8110 8111 8126 8189 8208 8219 8228 8228 8230 8213 8192 8201 8225 8236 8234 8235 8234 8235 8237 8236 8233 8233 8234 8237 8239 8238 8241 8239 8240 8241 8247 8244 8239 8240 8242 8250 8276 
8217 8216 8215 8217 8216 8216 8214 8211 8207 8210 8209 8211 8214 8214 8214 8214 8211 8210 8211 8217 8215 8208 8203 8172 8124 8121 8128 8120 8119 8129 8123 8119 8123 8132 8127 8123 8125 8128 8127 8135 8133 8131 8121 8121 8120 8170 8213 8219 8223 8228 8229 8232 8233 8231 8236 8231 8231 8232 8235 8234 8234 8232 8233 8232 8231 8233 8234 8238 8239 8239 8239 8240 8242 8243 8242 8239 8242 8245 8248 8277 
8215 8221 8219 8217 8216 8213 8218 8210 8208 8208 8207 8212 8214 8214 8210 8210 8209 8208 8213 8216 8214 8215 8213 8200 8145 8121 8122 8118 8120 8118 8123 8125 8130 8133 8128 8121 8126 8128 8132 8139 8141 8143 8166 8166 8181 8211 8217 8216 8223 8223 8229 8234 8235 8234 8235 8232 8230 8234 8238 8233 8232 8232 8232 8231 8230 8232 8234 8238 8236 8242 8238 8242 8240 8241 8240 8239 8241 8241 8246 8275 
8218 8217 8223 8220 8218 8216 8214 8211 8208 8212 8210 8213 8212 8213 8211 8212 8211 8210 8211 8213 8210 8214 8212 8207 8186 8145 8127 8124 8121 8124 8122 8128 8135 8134 8127 8128 8133 8132 8143 8146 8145 8157 8184 8177 8209 8210 8209 8212 8216 8219 8222 8233 8234 8236 8238 8232 8233 8232 8232 8231 8233 8233 8233 8230 8231 8231 8231 8232 8242 8241 8238 8237 8238 8240 8240 8237 8239 8241 8244 8260 
8221 8224 8220 8217 8213 8216 8214 8211 8207 8211 8210 8212 8210 8211 8210 8210 8211 8211 8209 8208 8208 8208 8206 8208 8203 8172 8165 8134 8123 8135 8132 8134 8134 8138 8136 8134 8133 8135 8145 8150 8150 8183 8185 8184 8208 8211 8211 8210 8215 8212 8216 8226 8230 8236 8235 8234 8235 8232 8235 8234 8235 8232 8231 8229 8231 8230 8228 8231 8234 8238 8238 8239 8240 8242 8238 8239 8235 8244 8245 8253 
8224 8224 8221 8220 8215 8215 8218 8215 8212 8214 8210 8212 8214 8211 8211 8213 8215 8213 8207 8206 8201 8202 8204 8209 8209 8185 8172 8145 8134 8133 8135 8135 8140 8148 8141 8140 8143 8141 8150 8157 8165 8201 8185 8200 8207 8212 8211 8210 8216 8214 8217 8222 8230 8231 8235 8232 8233 8236 8234 8233 8234 8233 8230 8228 8226 8231 8229 8230 8232 8236 8233 8239 8239 8239 8239 8237 8241 8244 8244 8251 
8223 8224 8223 8219 8216 8214 8216 8217 8215 8213 8211 8215 8213 8212 8212 8214 8214 8216 8210 8205 8204 8206 8207 8208 8209 8198 8172 8159 8138 8142 8139 8141 8164 8164 8147 8148 8150 8148 8156 8169 8196 8198 8191 8209 8211 8218 8212 8211 8217 8216 8217 8228 8231 8229 8230 8230 8232 8232 8233 8233 8234 8233 8230 8230 8230 8230 8228 8229 8230 8234 8233 8238 8238 8241 8239 8238 8242 8243 8244 8250 
8226 8227 8224 8219 8217 8217 8218 8218 8217 8217 8216 8218 8216 8214 8216 8220 8218 8220 8213 8208 8204 8208 8208 8211 8209 8204 8183 8166 8152 8143 8142 8151 8169 8171 8163 8153 8157 8155 8160 8181 8205 8186 8209 8214 8218 8222 8221 8220 8219 8223 8225 8230 8232 8229 8230 8230 8231 8233 8237 8235 8232 8230 8232 8229 8232 8230 8232 8230 8231 8235 8234 8233 8236 8238 8237 8240 8240 8242 8244 8253 
8224 8226 8225 8221 8220 8217 8216 8215 8213 8219 8217 8217 8219 8216 8217 8218 8219 8219 8217 8210 8205 8208 8214 8213 8207 8206 8201 8180 8159 8150 8156 8173 8177 8173 8174 8165 8163 8164 8168 8202 8194 8208 8213 8215 8219 8225 8227 8227 8229 8230 8229 8233 8233 8229 8230 8227 8231 8233 8231 8232 8232 8230 8230 8230 8232 8230 8231 8231 8234 8235 8234 8233 8233 8234 8236 8236 8237 8244 8244 8244 
8226 8226 8229 8223 8220 8215 8216 8214 8216 8219 8215 8217 8216 8215 8216 8217 8217 8220 8220 8215 8209 8211 8216 8218 8210 8208 8205 8202 8191 8161 8178 8193 8184 8184 8183 8184 8187 8174 8183 8196 8210 8214 8215 8216 8221 8226 8225 8225 8228 8231 8231 8231 8231 8229 8231 8231 8232 8231 8231 8233 8233 8232 8233 8229 8235 8232 8232 8233 8233 8234 8232 8233 8234 8236 8231 8234 8240 8244 8242 8240 
8226 8227 8225 8223 8223 8215 8219 8216 8217 8216 8218 8219 8219 8217 8218 8220 8218 8220 8222 8221 8217 8216 8218 8218 8215 8212 8213 8209 8209 8198 8198 8194 8193 8197 8199 8197 8193 8195 8207 8215 8216 8220 8220 8218 8221 8225 8225 8222 8228 8232 8230 8230 8229 8229 8231 8232 8232 8232 8233 8231 8233 8232 8230 8232 8236 8231 8233 8233 8235 8234 8237 8234 8237 8236 8234 8236 8239 8242 8243 8236 
8225 8227 8226 8226 8221 8217 8223 8218 8216 8220 8217 8219 8221 8221 8219 8220 8221 8221 8223 8224 8217 8216 8218 8223 8219 8217 8218 8213 8212 8212 8214 8212 8208 8211 8209 8212 8216 8219 8220 8222 8220 8226 8225 8220 8225 8226 8226 8222 8226 8228 8227 8228 8231 8231 8233 8230 8233 8237 8236 8235 8233 8231 8235 8234 8233 8235 8234 8234 8236 8238 8238 8236 8238 8241 8238 8237 8242 8242 8240 8239 
8225 8227 8226 8224 8220 8219 8222 8221 8221 8220 8222 8222 8220 8221 8220 8222 8220 8221 8221 8220 8218 8216 8218 8220 8217 8219 8218 8215 8216 8216 8216 8215 8215 8215 8213 8214 8221 8219 8219 8224 8225 8228 8227 8223 8224 8226 8228 8224 8229 8227 8227 8230 8234 8236 8235 8232 8237 8243 8240 8239 8239 8237 8239 8236 8241 8239 8239 8239 8241 8237 8238 8238 8240 8238 8235 8235 8238 8243 8239 8237 
8223 8221 8219 8217 8214 8219 8220 8220 8217 8220 8218 8219 8221 8221 8221 8219 8222 8221 8220 8222 8217 8217 8216 8220 8216 8217 8216 8213 8218 8217 8221 8217 8214 8216 8220 8219 8220 8223 8221 8230 8225 8224 8223 8224 8223 8227 8229 8223 8229 8228 8230 8233 8235 8238 8239 8234 8236 8239 8243 8245 8243 8240 8244 8242 8239 8239 8238 8240 8240 8241 8239 8239 8239 8237 8236 8237 8242 8243 8239 8235 
8220 8220 8219 8217 8217 8214 8220 8219 8220 8217 8219 8221 8220 8218 8220 8222 8218 8221 8221 8220 8216 8216 8216 8218 8215 8213 8216 8213 8215 8216 8218 8220 8218 8221 8221 8220 8223 8219 8220 8225 8222 8223 8220 8224 8226 8229 8228 8228 8231 8231 8236 8238 8238 8238 8241 8236 8238 8243 8244 8244 8244 8244 8242 8242 8242 8242 8239 8240 8242 8242 8240 8239 8240 8238 8236 8236 8242 8243 8238 8238 
8222 8219 8219 8220 8217 8220 8218 8218 8219 8219 8219 8221 8220 8221 8223 8223 8221 8221 8225 8223 8216 8216 8214 8215 8215 8216 8216 8216 8216 8218 8219 8218 8219 8222 8220 8220 8221 8222 8223 8225 8222 8223 8226 8225 8229 8228 8231 8231 8231 8233 8235 8236 8240 8239 8240 8241 8243 8247 8245 8249 8248 8243 8246 8241 8243 8241 8240 8240 8239 8241 8241 8240 8240 8239 8235 8239 8241 8239 8236 8236 
8221 8220 8216 8214 8214 8217 8220 8215 8219 8218 8216 8220 8221 8221 8219 8222 8221 8222 8223 8224 8218 8213 8216 8215 8216 8215 8215 8212 8217 8219 8221 8218 8217 8221 8223 8219 8222 8221 8222 8224 8223 8224 8223 8226 8228 8231 8231 8232 8234 8234 8236 8242 8239 8238 8241 8242 8246 8246 8247 8250 8250 8243 8244 8244 8243 8243 8242 8239 8240 8243 8241 8239 8242 8239 8239 8235 8236 8239 8234 8238 
8217 8218 8220 8214 8216 8217 8220 8216 8218 8221 8218 8220 8220 8222 8222 8225 8225 8223 8223 8223 8219 8220 8217 8215 8215 8215 8216 8213 8218 8220 8221 8222 8222 8221 8219 8220 8227 8221 8222 8224 8223 8224 8225 8226 8227 8228 8233 8232 8233 8235 8237 8241 8241 8239 8244 8247 8248 8247 8245 8250 8247 8244 8245 8242 8242 8242 8241 8239 8239 8243 8241 8239 8238 8240 8237 8236 8239 8237 8237 8236 
8218 8220 8217 8219 8215 8215 8217 8218 8217 8219 8217 8223 8222 8220 8219 8223 8224 8224 8227 8224 8218 8217 8219 8216 8220 8218 8219 8215 8219 8219 8221 8221 8219 8225 8224 8222 8225 8224 8222 8222 8221 8223 8225 8225 8230 8231 8228 8229 8233 8234 8237 8238 8242 8241 8245 8243 8245 8247 8244 8247 8247 8246 8245 8241 8244 8239 8239 8239 8240 8241 8240 8239 8240 8239 8236 8234 8238 8240 8235 8235 
8219 8220 8216 8218 8218 8217 8218 8213 8218 8218 8219 8220 8220 8221 8222 8224 8224 8224 8226 8224 8219 8220 8221 8222 8220 8216 8218 8219 8220 8217 8221 8220 8221 8224 8225 8226 8226 8218 8221 8222 8222 8226 8227 8227 8225 8228 8230 8229 8233 8233 8236 8242 8243 8240 8246 8244 8243 8249 8246 8246 8244 8243 8246 8240 8241 8240 8236 8240 8239 8243 8239 8238 8239 8239 8234 8233 8238 8239 8234 8235 
8222 8223 8217 8221 8220 8216 8220 8219 8218 8219 8221 8225 8221 8222 8222 8225 8225 8224 8224 8226 8220 8221 8222 8222 8221 8218 8218 8220 8223 8223 8221 8221 8221 8227 8227 8224 8223 8220 8221 8226 8225 8226 8229 8229 8231 8233 8230 8230 8235 8235 8240 8242 8243 8242 8246 8242 8245 8248 8247 8247 8249 8243 8247 8243 8242 8239 8238 8241 8243 8244 8243 8241 8238 8241 8237 8236 8238 8239 8236 8237 
8219 8221 8219 8216 8217 8221 8220 8216 8217 8221 8220 8222 8220 8218 8220 8223 8222 8222 8223 8224 8217 8220 8221 8222 8219 8217 8217 8220 8224 8226 8224 8224 8224 8229 8227 8226 8222 8220 8223 8225 8226 8227 8233 8232 8233 8233 8233 8231 8236 8238 8239 8241 8243 8244 8245 8245 8247 8247 8247 8247 8248 8243 8245 8243 8245 8239 8241 8242 8240 8244 8241 8239 8239 8238 8238 8235 8236 8239 8240 8238 
8219 8218 8217 8221 8218 8221 8221 8221 8215 8217 8218 8218 8221 8220 8220 8220 8222 8222 8222 8222 8219 8220 8219 8221 8219 8216 8216 8217 8226 8228 8226 8228 8228 8226 8228 8224 8221 8220 8225 8229 8231 8232 8236 8235 8235 8232 8234 8232 8235 8238 8238 8243 8243 8240 8245 8243 8245 8248 8246 8244 8248 8246 8246 8244 8244 8244 8243 8242 8243 8243 8243 8239 8239 8239 8239 8236 8239 8244 8236 8237 
8221 8222 8221 8224 8222 8219 8219 8220 8217 8218 8217 8219 8218 8223 8218 8221 8222 8221 8221 8220 8218 8219 8219 8218 8215 8214 8217 8221 8224 8227 8230 8230 8227 8229 8228 8222 8221 8218 8222 8230 8230 8232 8235 8237 8235 8235 8234 8232 8237 8240 8240 8242 8244 8244 8245 8243 8246 8248 8246 8246 8250 8246 8245 8243 8246 8244 8243 8246 8245 8242 8242 8242 8242 8243 8236 8240 8244 8247 8241 8239 
8223 8225 8223 8221 8222 8218 8221 8214 8217 8218 8218 8218 8219 8221 8218 8221 8218 8220 8221 8220 8216 8217 8216 8215 8215 8213 8216 8218 8223 8225 8227 8224 8226 8229 8228 8223 8222 8219 8221 8229 8230 8233 8234 8235 8237 8238 8238 8232 8238 8239 8242 8240 8244 8242 8245 8241 8245 8247 8245 8246 8245 8244 8247 8242 8243 8244 8243 8245 8245 8248 8243 8244 8244 8242 8241 8244 8249 8247 8249 8243 
8221 8224 8225 8225 8219 8218 8219 8217 8220 8216 8216 8217 8216 8218 8216 8218 8218 8219 8221 8219 8212 8217 8213 8214 8212 8210 8213 8216 8222 8222 8227 8227 8226 8230 8227 8224 8221 8220 8222 8229 8231 8233 8234 8236 8234 8239 8236 8236 8242 8241 8241 8244 8242 8242 8243 8244 8245 8247 8246 8246 8247 8246 8243 8244 8241 8248 8239 8241 8243 8246 8244 8244 8245 8243 8244 8245 8249 8258 8248 8247 
8229 8229 8228 8224 8223 8218 8219 8215 8216 8216 8215 8215 8218 8219 8219 8219 8217 8218 8219 8216 8215 8214 8213 8213 8211 8213 8212 8214 8220 8225 8223 8225 8226 8232 8227 8222 8224 8223 8223 8229 8230 8233 8235 8236 8234 8238 8240 8238 8240 8239 8241 8241 8243 8241 8241 8240 8246 8245 8245 8245 8244 8244 8243 8241 8243 8241 8244 8244 8242 8245 8244 8244 8246 8246 8246 8250 8263 8271 8265 8255 
8227 8230 8226 8225 8221 8217 8219 8213 8215 8216 8215 8216 8217 8218 8217 8218 8221 8215 8220 8216 8210 8211 8209 8211 8208 8210 8211 8213 8222 8224 8223 8225 8224 8227 8227 8223 8224 8225 8224 8227 8229 8231 8233 8235 8234 8238 8241 8239 8239 8237 8237 8240 8240 8241 8242 8243 8242 8246 8243 8241 8244 8240 8242 8240 8241 8239 8239 8243 8243 8242 8242 8242 8242 8246 8244 8249 8271 8273 8263 8261 
8234 8235 8229 8224 8219 8215 8221 8218 8215 8215 8212 8218 8217 8217 8218 8220 8217 8219 8218 8216 8213 8213 8210 8208 8208 8210 8208 8215 8222 8223 8221 8223 8222 8229 8227 8223 8224 8224 8224 8225 8228 8232 8229 8235 8233 8238 8239 8236 8239 8236 8239 8238 8243 8240 8242 8243 8244 8244 8240 8241 8246 8241 8241 8241 8238 8240 8240 8241 8239 8243 8239 8239 8244 8245 8247 8249 8264 8266 8261 8263 


