P2
80 60
8282
8185 8193 8192 8192 8197 8199 8207 8209 8206 8198 8200 8201 8202 8206 8221 8222 8222 8226 8228 8234 8235 8237 8237 8240 8242 8242 8239 8242 8241 8245 8251 8249 8245 8245 8256 8259 8261 8266 8266 8259 8252 8246 8244 8240 8236 8231 8231 8227 8227 8229 8236 8239 8242 8243 8239 8228 8223 8217 8211 8203 8199 8195 8199 8199 8202 8204 8207 8208 8210 8207 8215 8228 8230 8228 8231 8233 8231 8232 8232 8226 
8191 8196 8196 8200 8206 8210 8213 8214 8211 8208 8211 8213 8213 8220 8229 8229 8231 8226 8233 8237 8235 8238 8238 8246 8249 8243 8242 8241 8243 8239 8223 8209 8197 8211 8250 8258 8262 8267 8264 8251 8242 8233 8215 8204 8208 8213 8220 8228 8231 8233 8237 8245 8244 8221 8190 8204 8219 8225 8217 8214 8203 8199 8200 8198 8201 8205 8209 8207 8208 8210 8214 8229 8227 8230 8232 8231 8233 8231 8229 8224 
8192 8197 8200 8207 8214 8217 8222 8220 8215 8217 8220 8219 8220 8225 8234 8234 8230 8230 8234 8238 8237 8238 8242 8245 8241 8233 8232 8242 8235 8193 8175 8173 8175 8228 8249 8257 8259 8259 8231 8204 8192 8187 8184 8181 8181 8182 8188 8216 8229 8234 8241 8244 8226 8166 8144 8155 8185 8212 8218 8217 8215 8208 8209 8204 8205 8205 8207 8209 8212 8211 8211 8226 8226 8226 8231 8231 8231 8228 8224 8223 
8194 8201 8208 8217 8219 8224 8222 8222 8219 8217 8218 8222 8222 8229 8236 8233 8231 8229 8232 8237 8234 8235 8233 8235 8213 8200 8229 8236 8207 8168 8165 8169 8204 8244 8251 8255 8258 8243 8194 8179 8184 8186 8183 8181 8181 8179 8186 8197 8208 8222 8228 8224 8186 8147 8143 8145 8153 8175 8212 8221 8217 8215 8215 8211 8211 8207 8210 8209 8207 8213 8212 8224 8225 8228 8231 8234 8226 8228 8222 8218 
8194 8205 8211 8221 8223 8223 8226 8223 8221 8219 8217 8222 8227 8231 8235 8233 8230 8230 8230 8233 8231 8234 8229 8199 8174 8210 8221 8207 8170 8160 8170 8167 8220 8247 8249 8254 8257 8256 8206 8183 8178 8183 8183 8182 8177 8193 8220 8198 8183 8182 8176 8162 8149 8140 8145 8142 8141 8156 8190 8219 8222 8219 8223 8219 8218 8216 8215 8214 8214 8212 8211 8221 8221 8225 8225 8226 8223 8222 8219 8218 
8201 8204 8209 8218 8225 8225 8230 8224 8220 8222 8220 8222 8226 8234 8238 8235 8229 8226 8236 8231 8230 8223 8193 8162 8169 8178 8181 8173 8172 8178 8182 8174 8207 8245 8250 8253 8254 8254 8216 8191 8177 8176 8177 8175 8190 8219 8227 8203 8177 8195 8187 8159 8143 8144 8142 8142 8141 8145 8167 8216 8221 8222 8225 8224 8226 8223 8224 8221 8220 8219 8214 8216 8222 8224 8226 8225 8220 8219 8224 8222 
8202 8210 8210 8220 8227 8227 8225 8227 8220 8220 8221 8224 8227 8232 8237 8233 8228 8225 8221 8220 8212 8178 8154 8161 8211 8216 8222 8226 8229 8237 8238 8231 8209 8231 8241 8238 8242 8242 8239 8192 8153 8162 8166 8164 8180 8203 8215 8180 8163 8154 8139 8138 8141 8141 8143 8136 8139 8143 8154 8209 8225 8223 8223 8223 8225 8231 8233 8230 8231 8226 8222 8218 8222 8223 8224 8221 8219 8218 8221 8222 
8204 8211 8216 8223 8227 8224 8227 8224 8219 8223 8224 8228 8231 8235 8236 8222 8208 8187 8173 8164 8167 8162 8158 8171 8224 8233 8234 8226 8222 8238 8248 8247 8245 8210 8197 8192 8180 8174 8174 8170 8153 8153 8153 8148 8146 8149 8157 8157 8140 8137 8137 8135 8141 8146 8147 8141 8140 8141 8145 8202 8230 8230 8229 8228 8231 8234 8239 8237 8239 8236 8230 8224 8220 8219 8222 8221 8215 8213 8223 8226 
8207 8215 8217 8222 8227 8225 8227 8227 8223 8223 8226 8229 8227 8234 8236 8227 8223 8219 8226 8220 8217 8204 8177 8170 8222 8231 8224 8225 8208 8204 8232 8244 8245 8237 8203 8214 8154 8140 8151 8197 8160 8152 8150 8144 8135 8135 8140 8142 8141 8140 8137 8135 8141 8144 8149 8146 8142 8140 8143 8185 8230 8236 8235 8234 8233 8237 8240 8241 8239 8240 8240 8235 8229 8219 8216 8214 8213 8215 8227 8229 
8212 8218 8224 8227 8228 8223 8223 8221 8220 8221 8221 8222 8224 8230 8232 8226 8224 8223 8229 8234 8234 8229 8222 8193 8193 8200 8176 8198 8228 8219 8188 8192 8210 8218 8200 8180 8142 8133 8139 8175 8174 8152 8148 8136 8136 8133 8137 8135 8148 8144 8141 8138 8140 8144 8147 8168 8153 8147 8142 8170 8228 8241 8244 8243 8242 8243 8247 8244 8246 8246 8242 8240 8232 8225 8221 8213 8210 8215 8228 8231 
8218 8220 8219 8220 8218 8219 8214 8215 8214 8211 8215 8218 8220 8224 8228 8221 8215 8218 8222 8226 8219 8196 8210 8204 8152 8130 8153 8219 8223 8235 8227 8181 8171 8178 8161 8150 8132 8130 8136 8149 8184 8150 8140 8138 8133 8137 8136 8137 8134 8128 8136 8137 8141 8141 8162 8212 8175 8155 8145 8164 8220 8236 8245 8246 8247 8251 8256 8257 8257 8250 8246 8246 8234 8228 8217 8212 8210 8218 8233 8227 
8216 8220 8216 8212 8213 8209 8209 8211 8209 8210 8215 8216 8216 8219 8223 8219 8215 8213 8217 8209 8165 8171 8180 8147 8124 8130 8143 8218 8228 8236 8237 8226 8179 8162 8158 8157 8138 8134 8136 8158 8213 8175 8145 8139 8139 8138 8138 8134 8120 8111 8119 8131 8136 8149 8193 8202 8192 8184 8166 8161 8209 8228 8238 8238 8247 8250 8255 8259 8261 8252 8251 8252 8246 8238 8214 8211 8206 8223 8231 8230 
8220 8220 8216 8214 8217 8216 8213 8215 8212 8213 8218 8222 8220 8224 8220 8208 8208 8209 8210 8164 8133 8135 8127 8122 8162 8186 8161 8189 8224 8233 8239 8237 8225 8160 8162 8142 8138 8145 8149 8161 8192 8195 8151 8148 8144 8144 8143 8135 8133 8130 8130 8129 8131 8140 8142 8162 8180 8214 8203 8169 8197 8206 8219 8235 8239 8248 8250 8255 8258 8252 8255 8256 8253 8249 8219 8212 8209 8226 8237 8232 
8222 8224 8221 8226 8224 8221 8218 8220 8218 8219 8221 8225 8223 8220 8177 8131 8133 8160 8166 8136 8135 8136 8136 8144 8157 8169 8189 8163 8183 8225 8238 8237 8239 8181 8135 8127 8138 8141 8140 8135 8158 8189 8166 8148 8147 8142 8141 8137 8135 8148 8186 8154 8123 8129 8189 8201 8152 8186 8213 8173 8173 8186 8227 8232 8235 8244 8248 8250 8252 8248 8252 8255 8255 8250 8226 8210 8209 8229 8239 8238 
8226 8224 8229 8225 8229 8227 8222 8221 8220 8221 8222 8230 8222 8186 8121 8104 8101 8114 8134 8143 8145 8145 8143 8154 8167 8201 8227 8212 8174 8176 8214 8215 8228 8180 8133 8128 8124 8130 8133 8131 8140 8155 8157 8144 8143 8138 8137 8136 8143 8189 8198 8135 8110 8110 8121 8117 8117 8140 8170 8159 8171 8207 8236 8234 8242 8246 8248 8252 8253 8254 8253 8255 8251 8250 8235 8210 8210 8232 8244 8237 
8227 8229 8226 8231 8228 8224 8224 8225 8224 8223 8228 8231 8225 8152 8114 8107 8104 8119 8149 8152 8151 8150 8156 8169 8177 8219 8229 8231 8206 8155 8149 8145 8166 8163 8135 8127 8126 8128 8122 8128 8133 8140 8143 8142 8132 8129 8126 8130 8166 8215 8182 8117 8104 8102 8106 8101 8104 8125 8146 8164 8185 8225 8236 8237 8240 8246 8250 8252 8260 8258 8257 8258 8257 8255 8246 8214 8210 8230 8243 8239 
8228 8230 8230 8232 8228 8228 8226 8228 8227 8229 8230 8237 8226 8164 8120 8115 8112 8122 8144 8154 8155 8159 8174 8215 8211 8187 8207 8229 8227 8183 8141 8133 8141 8133 8133 8123 8119 8110 8115 8127 8134 8134 8139 8134 8131 8128 8130 8133 8152 8191 8149 8110 8106 8107 8110 8109 8108 8127 8151 8169 8208 8232 8235 8241 8245 8249 8253 8256 8259 8259 8259 8263 8262 8259 8254 8235 8212 8230 8239 8234 
8231 8232 8234 8230 8231 8230 8232 8232 8232 8232 8232 8232 8228 8165 8124 8122 8129 8123 8146 8150 8153 8166 8206 8233 8229 8217 8187 8188 8198 8135 8126 8129 8130 8135 8132 8114 8108 8110 8118 8120 8119 8131 8128 8129 8125 8128 8135 8155 8143 8152 8114 8103 8105 8110 8111 8125 8140 8143 8157 8163 8207 8227 8237 8239 8241 8251 8256 8258 8261 8261 8262 8263 8261 8261 8259 8245 8218 8224 8232 8231 
8232 8232 8228 8228 8230 8231 8233 8234 8233 8231 8235 8236 8231 8196 8141 8160 8180 8147 8173 8140 8144 8172 8229 8223 8176 8143 8135 8145 8146 8129 8126 8127 8130 8126 8121 8116 8108 8115 8117 8110 8110 8120 8122 8122 8125 8124 8145 8147 8135 8123 8106 8102 8103 8107 8111 8134 8169 8149 8169 8198 8207 8225 8239 8238 8240 8250 8252 8255 8257 8258 8259 8260 8259 8258 8260 8255 8230 8220 8227 8226 
8235 8235 8228 8227 8229 8235 8235 8236 8233 8234 8239 8240 8239 8238 8210 8176 8139 8134 8195 8181 8148 8207 8236 8171 8121 8123 8127 8131 8125 8126 8129 8132 8134 8132 8127 8124 8121 8126 8126 8126 8124 8123 8126 8124 8126 8123 8125 8132 8132 8119 8105 8101 8104 8110 8111 8142 8153 8158 8196 8220 8217 8227 8237 8235 8243 8248 8256 8251 8256 8259 8258 8256 8256 8259 8259 8253 8234 8223 8223 8224 
8237 8237 8232 8232 8234 8236 8236 8235 8235 8236 8238 8241 8240 8228 8197 8205 8158 8136 8153 8211 8198 8237 8237 8168 8134 8133 8135 8132 8121 8119 8125 8135 8140 8144 8142 8137 8130 8137 8135 8138 8133 8126 8126 8127 8129 8130 8128 8122 8128 8129 8114 8112 8115 8119 8145 8155 8147 8140 8145 8161 8205 8224 8234 8237 8241 8248 8251 8253 8255 8255 8252 8255 8253 8255 8257 8252 8242 8226 8223 8221 
8236 8238 8233 8237 8235 8236 8236 8233 8234 8239 8239 8242 8233 8169 8146 8136 8122 8164 8192 8147 8176 8237 8234 8186 8136 8132 8126 8127 8131 8128 8130 8143 8151 8156 8150 8152 8134 8130 8131 8129 8132 8129 8129 8137 8134 8132 8126 8123 8127 8130 8145 8163 8191 8218 8213 8144 8127 8126 8124 8134 8162 8218 8234 8235 8240 8244 8251 8252 8254 8254 8251 8252 8247 8252 8252 8250 8243 8232 8225 8226 
8240 8244 8237 8239 8237 8235 8236 8234 8230 8236 8238 8240 8209 8151 8143 8131 8129 8161 8184 8143 8143 8212 8186 8123 8118 8115 8111 8118 8130 8128 8140 8147 8155 8154 8150 8153 8146 8131 8133 8128 8130 8122 8122 8132 8131 8128 8124 8120 8123 8126 8120 8120 8164 8182 8155 8129 8119 8113 8115 8129 8141 8200 8229 8234 8241 8246 8249 8249 8254 8251 8252 8251 8249 8250 8251 8251 8249 8241 8224 8226 
8242 8246 8241 8239 8236 8239 8235 8236 8229 8234 8238 8236 8176 8153 8152 8150 8187 8226 8205 8141 8125 8140 8128 8114 8113 8113 8114 8121 8126 8131 8140 8153 8152 8148 8145 8147 8147 8137 8146 8150 8148 8144 8127 8132 8127 8124 8124 8122 8126 8113 8109 8113 8132 8140 8142 8133 8124 8116 8113 8125 8134 8184 8231 8238 8240 8246 8249 8247 8252 8252 8252 8254 8251 8249 8254 8250 8247 8243 8225 8227 
8245 8245 8241 8238 8240 8239 8238 8239 8230 8232 8237 8214 8160 8169 8178 8192 8229 8230 8193 8169 8125 8122 8116 8122 8118 8114 8114 8125 8128 8136 8143 8145 8147 8138 8134 8144 8140 8138 8156 8153 8156 8150 8139 8132 8127 8130 8135 8127 8118 8107 8109 8118 8128 8123 8130 8149 8134 8132 8130 8137 8136 8173 8228 8235 8239 8244 8250 8247 8253 8250 8251 8251 8251 8255 8255 8253 8246 8246 8229 8228 
8242 8247 8241 8240 8242 8239 8239 8238 8235 8232 8228 8179 8188 8171 8158 8166 8212 8207 8144 8125 8135 8125 8112 8123 8125 8117 8131 8121 8125 8130 8133 8135 8134 8136 8130 8132 8123 8118 8147 8150 8147 8147 8143 8129 8127 8130 8136 8123 8113 8107 8111 8120 8117 8112 8103 8105 8126 8161 8169 8160 8147 8170 8228 8236 8240 8244 8247 8251 8252 8249 8246 8252 8251 8255 8252 8258 8250 8249 8232 8229 
8243 8247 8239 8239 8239 8240 8236 8236 8235 8231 8204 8189 8150 8142 8139 8146 8172 8195 8150 8119 8133 8140 8116 8131 8127 8139 8127 8098 8114 8126 8123 8127 8129 8126 8125 8124 8114 8109 8139 8144 8145 8147 8142 8128 8130 8132 8135 8124 8119 8116 8122 8124 8117 8112 8113 8126 8147 8178 8175 8163 8165 8180 8228 8237 8240 8244 8246 8246 8249 8251 8246 8252 8253 8253 8254 8257 8255 8256 8241 8238 
8244 8244 8243 8239 8238 8237 8240 8240 8238 8230 8214 8158 8121 8125 8138 8155 8220 8213 8131 8116 8115 8132 8124 8113 8107 8121 8130 8099 8107 8121 8127 8126 8127 8122 8118 8126 8126 8126 8125 8135 8143 8147 8133 8128 8133 8133 8126 8121 8119 8114 8119 8123 8116 8121 8123 8132 8145 8160 8206 8222 8203 8187 8210 8228 8238 8241 8243 8243 8250 8246 8244 8241 8237 8245 8254 8255 8258 8260 8250 8244 
8246 8248 8244 8241 8243 8241 8245 8242 8241 8238 8233 8146 8111 8117 8136 8186 8229 8207 8126 8097 8087 8102 8135 8123 8111 8104 8107 8106 8105 8122 8124 8117 8115 8116 8126 8131 8132 8138 8128 8122 8138 8140 8130 8129 8134 8128 8127 8120 8121 8116 8127 8126 8126 8129 8131 8139 8150 8158 8173 8224 8227 8221 8210 8204 8226 8234 8234 8229 8229 8226 8205 8197 8195 8205 8235 8252 8259 8259 8250 8246 
8249 8253 8243 8245 8243 8243 8244 8242 8243 8242 8239 8156 8113 8119 8141 8189 8227 8156 8094 8090 8098 8112 8164 8207 8182 8125 8102 8100 8115 8112 8120 8120 8123 8134 8139 8138 8140 8144 8140 8126 8130 8124 8125 8130 8130 8125 8125 8123 8121 8123 8134 8134 8131 8132 8135 8142 8152 8164 8162 8189 8227 8232 8234 8221 8195 8184 8181 8175 8175 8174 8175 8178 8185 8192 8207 8242 8258 8258 8249 8247 
8248 8249 8245 8246 8245 8244 8247 8246 8246 8243 8241 8172 8110 8124 8163 8217 8223 8144 8111 8115 8142 8176 8199 8189 8156 8131 8110 8109 8121 8110 8118 8118 8134 8143 8138 8132 8143 8146 8145 8139 8137 8126 8125 8129 8135 8134 8127 8126 8125 8128 8139 8142 8138 8139 8140 8148 8152 8161 8161 8165 8206 8228 8238 8233 8205 8179 8174 8175 8179 8177 8182 8187 8191 8195 8199 8230 8256 8263 8252 8251 
8252 8252 8248 8246 8250 8244 8247 8246 8245 8245 8244 8186 8116 8147 8221 8238 8238 8227 8212 8215 8216 8192 8126 8117 8117 8151 8116 8120 8123 8116 8120 8123 8140 8138 8135 8132 8141 8145 8145 8146 8143 8135 8133 8139 8138 8138 8125 8124 8123 8127 8137 8142 8143 8141 8138 8139 8148 8156 8160 8170 8183 8225 8238 8236 8222 8185 8182 8180 8182 8184 8191 8197 8196 8196 8200 8213 8250 8263 8256 8252 
8253 8252 8251 8251 8248 8246 8249 8248 8249 8246 8247 8218 8132 8186 8243 8244 8237 8228 8225 8216 8186 8144 8108 8116 8128 8159 8133 8135 8124 8118 8125 8124 8134 8136 8131 8135 8145 8141 8144 8142 8147 8140 8144 8142 8144 8140 8131 8125 8125 8122 8133 8145 8143 8145 8142 8138 8139 8150 8163 8179 8188 8211 8239 8235 8229 8201 8187 8183 8186 8191 8197 8199 8193 8193 8193 8203 8230 8261 8255 8248 
8256 8257 8253 8253 8250 8248 8251 8248 8247 8242 8252 8240 8162 8213 8244 8244 8237 8228 8201 8194 8217 8166 8116 8124 8146 8189 8149 8140 8120 8121 8124 8126 8134 8134 8132 8136 8143 8147 8145 8146 8150 8145 8147 8144 8147 8141 8132 8130 8129 8127 8130 8141 8146 8143 8139 8139 8140 8147 8185 8225 8229 8231 8239 8238 8236 8211 8187 8186 8187 8190 8187 8186 8190 8195 8195 8201 8216 8251 8251 8246 
8256 8260 8255 8254 8252 8253 8252 8249 8247 8251 8247 8239 8160 8163 8194 8223 8221 8195 8209 8232 8227 8195 8128 8128 8128 8200 8168 8138 8123 8118 8118 8117 8119 8134 8134 8141 8148 8152 8151 8147 8144 8144 8145 8145 8143 8137 8134 8131 8135 8138 8138 8144 8148 8146 8140 8139 8143 8151 8213 8238 8236 8235 8235 8235 8235 8207 8189 8191 8190 8191 8189 8182 8176 8194 8197 8196 8204 8237 8249 8248 
8260 8264 8257 8255 8254 8253 8252 8253 8247 8245 8247 8224 8146 8128 8127 8138 8171 8221 8233 8236 8234 8223 8170 8133 8120 8187 8179 8143 8134 8126 8126 8119 8113 8133 8139 8140 8143 8149 8149 8144 8126 8139 8141 8147 8143 8138 8135 8140 8140 8142 8149 8152 8155 8147 8143 8146 8149 8163 8225 8242 8238 8235 8237 8234 8234 8198 8189 8189 8192 8190 8187 8191 8182 8179 8180 8188 8195 8231 8248 8248 
8261 8260 8258 8257 8256 8253 8255 8253 8249 8248 8244 8202 8138 8125 8129 8135 8211 8230 8237 8235 8233 8228 8220 8168 8127 8159 8160 8157 8145 8134 8137 8126 8119 8124 8135 8140 8143 8146 8146 8127 8123 8129 8142 8146 8133 8137 8143 8142 8146 8150 8159 8168 8192 8175 8154 8152 8155 8173 8231 8240 8238 8233 8236 8234 8233 8199 8187 8189 8191 8190 8191 8190 8176 8173 8170 8176 8187 8234 8250 8244 
8261 8264 8258 8260 8256 8257 8254 8253 8248 8248 8247 8200 8136 8124 8131 8164 8229 8231 8230 8234 8226 8230 8226 8223 8183 8137 8144 8159 8158 8145 8136 8130 8124 8115 8129 8138 8142 8144 8137 8124 8127 8130 8136 8143 8135 8142 8143 8150 8157 8162 8171 8194 8207 8224 8202 8166 8162 8177 8237 8244 8240 8236 8234 8233 8232 8200 8186 8190 8186 8192 8196 8190 8180 8186 8186 8183 8199 8244 8250 8249 
8257 8262 8259 8259 8256 8256 8253 8249 8249 8250 8248 8206 8137 8129 8137 8190 8230 8233 8230 8230 8226 8220 8218 8205 8160 8134 8143 8134 8128 8135 8135 8130 8134 8118 8123 8125 8127 8133 8133 8133 8129 8132 8132 8140 8141 8146 8148 8155 8170 8178 8208 8210 8211 8242 8252 8236 8205 8192 8242 8246 8242 8236 8240 8235 8234 8202 8187 8181 8181 8188 8195 8195 8196 8199 8200 8198 8224 8255 8256 8254 
8259 8262 8261 8258 8258 8256 8255 8252 8251 8246 8246 8215 8136 8130 8133 8178 8229 8218 8200 8191 8173 8155 8136 8127 8126 8138 8139 8136 8122 8131 8132 8128 8135 8138 8128 8125 8131 8137 8138 8135 8129 8133 8137 8142 8143 8148 8158 8172 8199 8210 8226 8208 8223 8254 8258 8256 8254 8244 8249 8249 8244 8239 8240 8237 8235 8219 8188 8176 8177 8185 8190 8198 8197 8204 8207 8213 8240 8257 8259 8253 
8257 8260 8260 8258 8256 8251 8254 8253 8247 8247 8247 8229 8151 8138 8132 8146 8203 8152 8118 8117 8114 8110 8112 8123 8125 8141 8143 8134 8123 8126 8132 8128 8130 8159 8162 8155 8150 8149 8149 8144 8144 8144 8145 8150 8163 8181 8195 8202 8202 8220 8216 8210 8242 8256 8258 8257 8256 8258 8250 8250 8243 8237 8240 8235 8240 8236 8206 8180 8173 8182 8186 8197 8199 8199 8206 8212 8244 8258 8255 8253 
8261 8261 8257 8255 8254 8251 8253 8250 8247 8245 8246 8240 8173 8140 8128 8138 8147 8110 8107 8110 8108 8114 8121 8122 8129 8141 8147 8143 8127 8128 8130 8132 8132 8145 8168 8178 8184 8183 8182 8176 8175 8166 8163 8178 8190 8194 8194 8196 8212 8222 8211 8228 8255 8258 8257 8260 8258 8257 8250 8249 8241 8240 8244 8241 8240 8241 8210 8172 8176 8182 8188 8194 8200 8199 8201 8220 8251 8257 8253 8256 
8262 8261 8258 8254 8253 8251 8250 8250 8249 8244 8247 8242 8193 8145 8133 8129 8117 8108 8107 8111 8117 8124 8121 8125 8139 8142 8143 8142 8135 8128 8132 8132 8138 8164 8173 8171 8168 8177 8184 8182 8185 8190 8193 8196 8191 8195 8196 8208 8225 8211 8222 8250 8253 8258 8256 8259 8259 8260 8253 8252 8245 8243 8245 8242 8244 8244 8226 8188 8180 8183 8189 8194 8198 8199 8206 8233 8256 8259 8258 8253 
8258 8264 8258 8255 8255 8249 8245 8247 8243 8246 8247 8247 8221 8157 8146 8141 8121 8113 8107 8114 8115 8114 8115 8126 8143 8145 8136 8143 8139 8130 8136 8138 8148 8194 8199 8183 8175 8177 8177 8177 8182 8188 8194 8194 8196 8203 8216 8219 8211 8223 8244 8252 8258 8259 8258 8258 8264 8261 8255 8255 8248 8242 8245 8247 8249 8248 8245 8229 8212 8207 8203 8201 8195 8201 8220 8249 8253 8258 8255 8256 
8264 8262 8261 8253 8255 8249 8252 8248 8247 8246 8248 8246 8241 8215 8215 8191 8126 8118 8117 8116 8111 8114 8122 8130 8140 8142 8141 8140 8144 8141 8140 8140 8166 8178 8193 8204 8194 8192 8186 8183 8188 8195 8198 8205 8210 8217 8217 8214 8229 8240 8248 8248 8254 8255 8258 8263 8262 8263 8256 8256 8250 8245 8248 8248 8247 8249 8253 8250 8250 8248 8244 8239 8234 8232 8244 8254 8254 8256 8253 8252 
8261 8262 8259 8257 8256 8251 8252 8249 8244 8244 8247 8248 8248 8243 8246 8218 8132 8119 8120 8118 8119 8122 8124 8133 8136 8139 8141 8139 8140 8142 8143 8139 8173 8197 8185 8186 8195 8210 8213 8210 8208 8213 8216 8217 8216 8221 8229 8234 8238 8238 8240 8245 8251 8257 8257 8261 8261 8261 8258 8255 8250 8245 8249 8249 8250 8252 8255 8251 8255 8257 8254 8257 8256 8255 8257 8258 8254 8255 8255 8257 
8264 8266 8261 8265 8258 8252 8251 8250 8246 8246 8247 8249 8244 8247 8249 8234 8155 8121 8122 8119 8126 8132 8131 8138 8140 8141 8146 8139 8138 8143 8148 8143 8170 8209 8211 8211 8205 8203 8203 8202 8208 8217 8220 8228 8234 8239 8239 8241 8241 8240 8242 8244 8249 8258 8257 8260 8262 8261 8255 8254 8251 8247 8250 8249 8251 8254 8256 8256 8257 8257 8257 8259 8258 8260 8263 8256 8257 8257 8257 8253 
8263 8266 8262 8263 8258 8254 8252 8250 8247 8244 8245 8248 8245 8249 8252 8238 8173 8127 8125 8130 8130 8127 8133 8142 8148 8147 8149 8147 8143 8148 8151 8147 8159 8209 8211 8214 8216 8219 8224 8221 8228 8236 8238 8240 8238 8240 8240 8239 8243 8241 8241 8242 8246 8253 8256 8259 8260 8259 8254 8252 8246 8243 8245 8250 8250 8252 8255 8255 8258 8257 8258 8262 8257 8263 8262 8260 8258 8257 8255 8253 
8267 8265 8255 8264 8258 8256 8255 8253 8251 8245 8248 8251 8248 8245 8247 8240 8204 8134 8127 8132 8129 8127 8138 8150 8151 8149 8148 8146 8147 8155 8163 8158 8176 8217 8215 8218 8220 8220 8225 8226 8231 8236 8238 8241 8238 8240 8241 8241 8240 8244 8238 8243 8249 8251 8253 8258 8259 8258 8253 8252 8246 8242 8249 8250 8251 8252 8253 8257 8256 8258 8258 8262 8260 8262 8263 8264 8259 8263 8250 8253 
8265 8262 8258 8255 8253 8255 8257 8254 8251 8249 8248 8252 8251 8246 8245 8238 8222 8155 8136 8137 8138 8137 8143 8156 8157 8149 8147 8150 8154 8164 8166 8171 8201 8218 8217 8220 8222 8224 8226 8228 8232 8236 8239 8239 8241 8239 8238 8242 8244 8247 8244 8246 8252 8252 8251 8254 8255 8260 8252 8251 8248 8242 8248 8247 8247 8250 8254 8253 8261 8262 8257 8264 8260 8265 8266 8264 8262 8261 8259 8256 
8261 8260 8257 8254 8256 8255 8257 8253 8251 8249 8251 8252 8247 8250 8246 8240 8231 8195 8142 8141 8142 8140 8148 8157 8155 8153 8150 8151 8160 8169 8174 8191 8219 8221 8220 8222 8222 8225 8228 8226 8233 8235 8238 8240 8238 8241 8242 8242 8245 8246 8246 8248 8252 8257 8249 8256 8260 8255 8251 8250 8248 8246 8247 8247 8243 8252 8251 8253 8258 8263 8260 8263 8263 8267 8265 8264 8264 8264 8258 8259 
8261 8263 8257 8255 8254 8253 8257 8255 8256 8247 8252 8252 8250 8252 8249 8239 8231 8226 8164 8140 8147 8146 8153 8162 8156 8152 8156 8154 8159 8170 8194 8218 8224 8223 8219 8224 8223 8227 8229 8228 8232 8235 8238 8240 8239 8239 8242 8243 8249 8245 8245 8249 8256 8255 8256 8255 8256 8256 8253 8252 8247 8244 8247 8248 8246 8252 8253 8254 8260 8261 8263 8265 8267 8266 8265 8263 8261 8262 8259 8260 
8263 8264 8260 8256 8259 8259 8256 8254 8253 8249 8252 8249 8249 8254 8254 8244 8239 8235 8213 8152 8145 8144 8156 8163 8159 8156 8160 8161 8173 8201 8222 8224 8226 8223 8218 8224 8226 8230 8232 8231 8233 8236 8241 8242 8239 8243 8243 8247 8250 8247 8248 8250 8252 8251 8252 8254 8253 8250 8246 8245 8243 8245 8249 8247 8248 8251 8256 8259 8263 8261 8264 8265 8262 8266 8267 8265 8262 8263 8263 8260 
8267 8270 8260 8259 8259 8255 8257 8255 8252 8249 8252 8253 8251 8259 8256 8245 8238 8236 8235 8182 8152 8149 8158 8169 8164 8166 8178 8196 8221 8225 8229 8228 8222 8219 8219 8223 8223 8232 8230 8228 8233 8239 8240 8242 8243 8243 8244 8247 8246 8250 8247 8249 8247 8245 8247 8246 8243 8244 8241 8240 8239 8239 8246 8244 8248 8249 8254 8257 8261 8262 8261 8267 8263 8266 8265 8262 8260 8262 8260 8258 
8272 8273 8265 8263 8260 8254 8259 8255 8250 8252 8250 8253 8251 8257 8257 8249 8240 8238 8241 8236 8188 8164 8174 8198 8202 8211 8221 8225 8226 8227 8232 8230 8226 8219 8218 8225 8226 8232 8233 8231 8233 8239 8242 8246 8244 8244 8248 8247 8249 8248 8249 8249 8246 8244 8241 8243 8246 8246 8240 8244 8238 8242 8244 8245 8247 8255 8255 8256 8262 8263 8262 8266 8262 8262 8264 8262 8259 8261 8257 8255 
8270 8274 8262 8258 8256 8259 8253 8253 8248 8250 8253 8253 8254 8263 8262 8252 8240 8238 8243 8249 8240 8236 8240 8246 8240 8233 8231 8233 8226 8232 8235 8232 8223 8222 8221 8226 8229 8228 8230 8228 8233 8239 8246 8249 8246 8246 8245 8247 8249 8255 8250 8250 8246 8243 8238 8240 8246 8242 8241 8239 8238 8237 8246 8247 8249 8253 8254 8254 8261 8262 8263 8266 8261 8261 8260 8260 8257 8262 8259 8260 
8274 8276 8267 8261 8258 8257 8257 8252 8250 8251 8254 8254 8254 8258 8259 8248 8241 8239 8246 8249 8249 8249 8249 8252 8246 8239 8234 8239 8237 8239 8238 8235 8229 8225 8223 8227 8230 8234 8232 8229 8232 8239 8243 8245 8246 8246 8246 8252 8256 8256 8253 8245 8245 8240 8239 8243 8243 8246 8243 8244 8238 8237 8242 8245 8247 8253 8256 8259 8262 8261 8263 8266 8258 8259 8259 8258 8256 8258 8258 8257 
8276 8276 8266 8259 8258 8255 8256 8252 8250 8251 8250 8256 8252 8256 8256 8253 8245 8242 8245 8247 8247 8248 8248 8250 8248 8245 8241 8243 8236 8240 8241 8236 8231 8226 8221 8222 8227 8230 8235 8231 8235 8237 8243 8244 8245 8246 8251 8250 8254 8253 8250 8247 8242 8242 8242 8241 8245 8250 8243 8240 8238 8238 8243 8245 8251 8254 8258 8256 8262 8259 8262 8261 8258 8258 8258 8255 8252 8256 8260 8255 
8280 8276 8265 8262 8258 8254 8251 8250 8250 8252 8249 8250 8252 8254 8253 8249 8244 8242 8245 8248 8247 8245 8247 8250 8247 8244 8247 8246 8243 8241 8239 8231 8229 8219 8218 8224 8229 8229 8236 8232 8234 8240 8240 8242 8245 8247 8250 8252 8254 8252 8251 8246 8245 8242 8244 8243 8244 8247 8244 8240 8238 8241 8246 8249 8250 8254 8258 8259 8264 8261 8263 8263 8258 8255 8255 8251 8250 8253 8259 8259 
8282 8272 8264 8259 8254 8253 8256 8252 8246 8252 8247 8247 8252 8252 8249 8249 8244 8239 8244 8247 8244 8247 8245 8250 8246 8244 8248 8248 8238 8240 8237 8226 8226 8218 8219 8223 8223 8230 8236 8232 8236 8235 8242 8238 8245 8250 8245 8252 8254 8251 8250 8246 8249 8240 8246 8247 8246 8246 8247 8240 8241 8243 8247 8245 8246 8251 8255 8258 8260 8263 8261 8263 8256 8257 8254 8252 8245 8251 8258 8259 


