P2
80 60
8392
8365 8370 8372 8366 8366 8365 8367 8369 8365 8364 8367 8364 8364 8363 8363 8368 8363 8362 8362 8366 8363 8363 8364 8361 8364 8359 8358 8360 8359 8361 8361 8361 8362 8364 8366 8366 8365 8364 8365 8364 8361 8359 8358 8358 8356 8360 8358 8357 8355 8355 8353 8352 8353 8350 8346 8343 8343 8339 8338 8339 8343 8345 8346 8350 8353 8349 8351 8351 8349 8349 8351 8344 8349 8347 8351 8348 8351 8349 8350 8348 
8365 8370 8374 8370 8369 8370 8365 8368 8366 8359 8365 8363 8363 8366 8367 8366 8367 8364 8364 8365 8364 8360 8364 8364 8363 8359 8361 8358 8359 8361 8362 8361 8363 8363 8367 8364 8367 8364 8366 8366 8360 8361 8359 8355 8361 8357 8359 8355 8358 8355 8353 8352 8352 8348 8347 8347 8342 8342 8341 8343 8344 8345 8347 8349 8351 8350 8349 8350 8350 8348 8349 8345 8347 8348 8352 8349 8350 8351 8348 8343 
8364 8368 8371 8366 8368 8370 8368 8367 8363 8361 8363 8366 8365 8367 8364 8366 8366 8363 8364 8366 8361 8358 8359 8361 8362 8361 8360 8360 8362 8362 8363 8364 8363 8367 8366 8367 8368 8366 8365 8365 8358 8360 8360 8354 8360 8360 8356 8354 8353 8354 8355 8350 8349 8346 8346 8343 8341 8337 8338 8341 8341 8345 8345 8346 8348 8345 8347 8349 8350 8349 8350 8348 8347 8347 8349 8348 8349 8351 8347 8347 
8366 8370 8369 8362 8362 8367 8363 8363 8358 8358 8363 8363 8366 8367 8360 8363 8364 8364 8359 8363 8358 8360 8359 8360 8363 8361 8360 8360 8360 8365 8363 8361 8360 8366 8362 8366 8364 8362 8365 8365 8357 8361 8360 8354 8358 8354 8357 8354 8353 8352 8354 8351 8349 8345 8343 8341 8340 8338 8336 8342 8337 8344 8346 8347 8352 8344 8348 8349 8348 8349 8348 8346 8349 8345 8350 8347 8350 8350 8347 8345 
8365 8368 8365 8361 8362 8362 8358 8362 8354 8355 8362 8360 8366 8364 8361 8359 8358 8356 8358 8360 8355 8358 8358 8357 8364 8358 8359 8359 8359 8361 8359 8359 8358 8361 8358 8360 8361 8358 8361 8360 8352 8354 8355 8351 8353 8352 8352 8351 8352 8348 8346 8347 8346 8344 8338 8338 8336 8335 8337 8341 8341 8339 8344 8342 8345 8346 8348 8346 8347 8345 8343 8346 8344 8346 8347 8345 8347 8348 8344 8341 
8365 8367 8360 8360 8362 8360 8357 8359 8354 8358 8357 8356 8362 8361 8356 8353 8356 8356 8357 8360 8356 8355 8355 8360 8358 8357 8358 8358 8358 8357 8356 8359 8357 8362 8362 8361 8360 8358 8362 8360 8353 8353 8354 8351 8353 8353 8350 8353 8348 8346 8348 8347 8346 8338 8339 8334 8337 8332 8336 8337 8338 8339 8342 8339 8341 8345 8343 8347 8345 8346 8343 8340 8343 8343 8346 8343 8347 8347 8345 8341 
8365 8364 8362 8359 8359 8355 8356 8354 8355 8357 8355 8352 8361 8357 8354 8355 8356 8355 8358 8358 8355 8352 8359 8359 8359 8358 8357 8356 8355 8357 8356 8355 8354 8358 8360 8361 8360 8357 8364 8358 8353 8354 8352 8348 8354 8354 8351 8345 8348 8346 8345 8345 8344 8338 8336 8335 8335 8334 8334 8335 8336 8337 8338 8338 8340 8339 8339 8341 8344 8340 8338 8335 8337 8341 8343 8342 8347 8346 8342 8340 
8364 8362 8362 8357 8356 8356 8353 8355 8352 8355 8357 8354 8355 8356 8354 8354 8355 8356 8357 8361 8354 8354 8358 8356 8360 8359 8356 8356 8355 8357 8355 8356 8355 8354 8357 8359 8359 8358 8358 8355 8351 8354 8354 8347 8350 8351 8347 8345 8343 8348 8347 8342 8342 8336 8335 8334 8332 8328 8332 8335 8335 8334 8336 8338 8338 8337 8335 8336 8337 8336 8340 8334 8334 8333 8340 8339 8343 8341 8338 8341 
8354 8355 8355 8358 8354 8355 8356 8354 8355 8354 8357 8357 8356 8358 8352 8350 8354 8356 8357 8359 8355 8355 8355 8355 8357 8357 8356 8354 8354 8356 8352 8353 8354 8356 8355 8356 8358 8353 8358 8353 8349 8353 8351 8347 8349 8346 8346 8346 8343 8345 8347 8346 8342 8337 8336 8335 8331 8328 8330 8332 8335 8336 8334 8336 8336 8334 8334 8334 8334 8331 8334 8330 8330 8330 8331 8331 8336 8337 8336 8330 
8348 8353 8354 8350 8350 8350 8352 8353 8353 8352 8356 8353 8355 8354 8352 8353 8355 8353 8356 8358 8353 8353 8353 8355 8358 8356 8355 8352 8356 8353 8351 8352 8350 8352 8356 8353 8354 8353 8355 8351 8348 8348 8350 8346 8347 8346 8346 8343 8343 8343 8344 8345 8339 8337 8334 8332 8331 8333 8332 8334 8333 8329 8331 8331 8334 8332 8331 8333 8332 8328 8330 8324 8326 8329 8329 8330 8330 8333 8333 8332 
8348 8348 8355 8346 8341 8347 8349 8350 8353 8355 8353 8355 8356 8351 8354 8355 8354 8352 8356 8357 8349 8351 8351 8352 8355 8353 8351 8352 8353 8353 8352 8350 8348 8350 8351 8351 8352 8353 8353 8350 8344 8347 8345 8340 8344 8343 8343 8340 8340 8344 8342 8341 8340 8336 8334 8332 8330 8329 8328 8330 8331 8329 8330 8330 8335 8328 8330 8331 8329 8325 8329 8325 8322 8327 8328 8325 8330 8325 8331 8327 
8345 8351 8353 8348 8349 8349 8351 8349 8350 8347 8353 8354 8355 8352 8351 8353 8351 8356 8356 8356 8352 8352 8352 8356 8354 8354 8349 8351 8351 8352 8347 8351 8350 8345 8349 8349 8352 8346 8349 8347 8340 8343 8342 8339 8344 8341 8342 8338 8341 8338 8339 8342 8339 8336 8335 8330 8330 8327 8324 8327 8328 8328 8329 8330 8331 8328 8328 8328 8325 8325 8325 8322 8321 8324 8324 8321 8324 8321 8322 8324 
8345 8348 8347 8341 8345 8349 8345 8351 8345 8349 8352 8353 8352 8352 8349 8353 8349 8351 8349 8352 8348 8356 8353 8352 8354 8351 8350 8348 8349 8349 8349 8346 8347 8348 8346 8349 8349 8346 8348 8346 8340 8343 8340 8335 8339 8340 8340 8338 8337 8336 8338 8339 8336 8333 8332 8330 8329 8325 8326 8327 8327 8325 8328 8329 8329 8328 8327 8329 8325 8324 8322 8317 8316 8317 8317 8318 8321 8316 8319 8317 
8343 8347 8344 8344 8342 8345 8348 8347 8347 8347 8351 8351 8351 8350 8351 8349 8347 8345 8349 8351 8348 8348 8350 8355 8351 8347 8346 8347 8348 8348 8347 8345 8343 8345 8344 8344 8343 8341 8345 8343 8337 8339 8335 8336 8339 8339 8335 8336 8334 8331 8336 8334 8334 8330 8331 8327 8330 8324 8327 8322 8325 8327 8324 8328 8327 8326 8325 8322 8322 8321 8320 8316 8314 8314 8312 8314 8314 8313 8314 8320 
8341 8347 8347 8343 8343 8341 8345 8346 8344 8346 8348 8351 8349 8349 8347 8347 8346 8346 8346 8347 8347 8350 8349 8345 8347 8344 8344 8345 8342 8344 8341 8342 8337 8339 8339 8345 8341 8340 8341 8338 8335 8337 8332 8333 8334 8333 8334 8330 8329 8328 8331 8332 8334 8330 8329 8332 8328 8325 8320 8326 8325 8326 8327 8324 8326 8325 8324 8325 8323 8318 8317 8312 8317 8314 8312 8310 8315 8312 8314 8313 
8342 8346 8346 8342 8343 8346 8345 8347 8347 8347 8345 8346 8347 8349 8347 8344 8345 8347 8348 8350 8346 8342 8344 8346 8344 8341 8340 8342 8343 8343 8338 8336 8335 8338 8335 8337 8338 8333 8338 8336 8330 8331 8330 8329 8333 8329 8325 8311 8309 8323 8330 8332 8332 8329 8330 8330 8328 8325 8324 8325 8325 8325 8323 8324 8324 8321 8321 8323 8318 8317 8317 8313 8312 8312 8310 8306 8309 8309 8309 8313 
8339 8344 8343 8341 8342 8338 8345 8345 8340 8344 8349 8347 8347 8345 8345 8342 8344 8344 8343 8350 8343 8342 8344 8342 8342 8340 8337 8337 8336 8335 8333 8334 8326 8321 8322 8321 8309 8320 8329 8332 8326 8326 8326 8322 8325 8315 8292 8271 8257 8298 8324 8328 8330 8326 8326 8329 8326 8323 8324 8327 8325 8324 8324 8324 8326 8322 8320 8324 8320 8315 8316 8315 8311 8314 8311 8310 8310 8308 8306 8309 
8338 8342 8345 8343 8340 8342 8341 8345 8342 8346 8345 8348 8346 8344 8343 8342 8343 8343 8344 8343 8342 8337 8343 8342 8341 8337 8335 8330 8306 8313 8320 8319 8313 8259 8235 8249 8250 8233 8275 8314 8299 8290 8288 8314 8302 8315 8325 8320 8304 8263 8278 8312 8325 8327 8326 8325 8323 8322 8323 8325 8323 8322 8323 8322 8321 8319 8319 8321 8316 8313 8310 8310 8310 8309 8312 8309 8310 8311 8306 8305 
8339 8342 8342 8338 8337 8341 8340 8340 8342 8344 8348 8346 8344 8343 8340 8342 8342 8341 8340 8340 8336 8336 8338 8339 8338 8338 8333 8317 8268 8278 8254 8243 8249 8275 8230 8222 8228 8228 8231 8247 8259 8301 8299 8270 8286 8315 8324 8323 8322 8307 8255 8258 8308 8322 8323 8326 8323 8320 8321 8322 8326 8322 8323 8321 8323 8321 8319 8320 8315 8310 8310 8309 8310 8308 8311 8306 8310 8308 8305 8307 
8337 8340 8342 8336 8339 8340 8340 8341 8342 8345 8346 8343 8342 8343 8339 8338 8338 8336 8301 8287 8300 8315 8323 8321 8331 8328 8321 8305 8270 8242 8237 8236 8231 8238 8240 8235 8247 8257 8245 8242 8265 8288 8255 8237 8242 8282 8320 8322 8324 8321 8297 8244 8258 8301 8317 8322 8321 8317 8321 8321 8322 8322 8321 8322 8323 8320 8318 8319 8314 8311 8310 8307 8309 8309 8309 8307 8311 8304 8303 8305 
8334 8341 8341 8334 8337 8338 8339 8341 8338 8339 8343 8341 8341 8337 8335 8332 8334 8334 8285 8234 8244 8266 8263 8260 8267 8284 8268 8257 8251 8244 8239 8238 8227 8224 8224 8223 8256 8255 8272 8246 8246 8244 8233 8233 8233 8271 8315 8316 8317 8317 8318 8277 8242 8257 8305 8319 8319 8321 8320 8319 8324 8321 8322 8321 8324 8320 8319 8317 8313 8312 8313 8306 8305 8307 8306 8307 8311 8308 8305 8305 
8335 8344 8342 8336 8335 8338 8337 8340 8339 8342 8346 8338 8318 8302 8300 8286 8296 8313 8282 8247 8235 8244 8261 8291 8291 8258 8255 8248 8244 8239 8236 8237 8234 8234 8238 8243 8260 8263 8290 8258 8239 8234 8232 8227 8239 8281 8276 8266 8278 8303 8315 8307 8254 8239 8278 8315 8318 8317 8319 8322 8321 8320 8322 8322 8321 8316 8319 8316 8317 8311 8312 8307 8306 8310 8311 8307 8312 8310 8304 8306 
8335 8336 8341 8335 8335 8336 8336 8337 8335 8336 8336 8311 8258 8245 8248 8249 8255 8274 8253 8248 8247 8241 8236 8238 8249 8250 8242 8240 8237 8239 8230 8235 8241 8242 8241 8246 8239 8240 8269 8269 8237 8231 8223 8223 8225 8217 8210 8209 8214 8228 8267 8301 8292 8243 8248 8301 8314 8318 8316 8321 8318 8317 8321 8323 8321 8317 8316 8318 8313 8310 8311 8308 8307 8306 8311 8305 8309 8308 8306 8302 
8332 8336 8340 8331 8334 8333 8335 8338 8338 8340 8331 8261 8231 8241 8243 8247 8257 8275 8274 8259 8251 8234 8222 8221 8222 8239 8242 8240 8240 8240 8232 8235 8242 8235 8239 8239 8244 8227 8261 8299 8277 8239 8215 8209 8217 8211 8207 8206 8197 8197 8205 8243 8292 8261 8240 8285 8311 8315 8316 8319 8317 8318 8319 8319 8319 8318 8318 8316 8311 8308 8311 8309 8307 8306 8309 8305 8309 8302 8300 8303 
8332 8335 8340 8329 8331 8331 8332 8334 8337 8335 8293 8238 8237 8252 8243 8243 8257 8289 8282 8244 8256 8250 8225 8216 8218 8232 8241 8241 8243 8240 8239 8240 8240 8240 8245 8266 8243 8233 8254 8270 8270 8248 8216 8225 8247 8228 8227 8234 8217 8211 8211 8225 8249 8274 8244 8263 8309 8315 8314 8317 8317 8314 8318 8317 8318 8317 8316 8314 8312 8308 8310 8303 8302 8308 8310 8306 8306 8306 8301 8301 
8332 8333 8339 8330 8331 8332 8333 8340 8335 8324 8255 8249 8254 8254 8249 8246 8248 8248 8251 8245 8257 8255 8228 8225 8229 8236 8242 8238 8238 8241 8238 8240 8241 8244 8272 8273 8250 8237 8237 8232 8228 8230 8228 8226 8263 8261 8248 8250 8231 8220 8217 8249 8264 8289 8270 8252 8304 8312 8311 8314 8315 8314 8314 8314 8319 8314 8314 8313 8313 8309 8306 8304 8301 8304 8307 8303 8304 8302 8301 8299 
8328 8334 8335 8331 8333 8334 8334 8335 8333 8321 8261 8260 8259 8259 8255 8255 8259 8252 8261 8263 8265 8267 8248 8242 8239 8241 8241 8245 8245 8244 8242 8241 8238 8252 8254 8244 8237 8231 8233 8228 8220 8236 8241 8240 8240 8247 8232 8236 8239 8236 8221 8252 8261 8292 8295 8256 8298 8308 8306 8307 8307 8306 8306 8309 8316 8314 8313 8312 8311 8310 8307 8303 8304 8303 8303 8303 8303 8304 8301 8299 
8330 8331 8336 8331 8332 8333 8335 8333 8333 8307 8272 8261 8259 8261 8260 8257 8263 8259 8266 8270 8266 8266 8235 8230 8231 8230 8241 8241 8241 8250 8253 8258 8245 8248 8260 8241 8234 8231 8234 8232 8222 8226 8244 8244 8242 8239 8242 8244 8246 8243 8228 8234 8246 8280 8285 8263 8257 8269 8262 8255 8254 8259 8268 8284 8305 8310 8313 8313 8311 8305 8307 8303 8302 8304 8302 8301 8306 8304 8301 8301 
8328 8330 8334 8332 8332 8334 8334 8332 8324 8279 8265 8260 8261 8257 8259 8262 8268 8272 8273 8273 8261 8265 8240 8226 8224 8222 8227 8230 8226 8232 8232 8260 8281 8272 8280 8266 8238 8234 8235 8232 8222 8227 8231 8245 8247 8248 8248 8248 8247 8243 8231 8234 8234 8237 8252 8271 8243 8243 8241 8239 8240 8241 8246 8248 8263 8283 8306 8314 8311 8306 8304 8303 8304 8301 8302 8303 8303 8301 8299 8299 
8328 8333 8337 8329 8329 8331 8332 8335 8306 8267 8267 8260 8263 8264 8268 8273 8272 8277 8275 8276 8263 8267 8255 8240 8231 8232 8234 8234 8224 8227 8227 8261 8260 8267 8285 8255 8239 8242 8240 8229 8224 8228 8227 8240 8250 8247 8248 8249 8251 8254 8247 8235 8226 8228 8233 8238 8243 8240 8242 8242 8240 8239 8241 8243 8249 8255 8281 8308 8307 8305 8303 8302 8304 8300 8304 8301 8303 8300 8298 8296 
8326 8336 8334 8329 8326 8331 8333 8326 8287 8267 8265 8265 8265 8269 8273 8277 8277 8279 8277 8280 8254 8262 8280 8260 8241 8244 8244 8246 8231 8231 8253 8265 8254 8265 8255 8247 8258 8252 8237 8230 8222 8228 8234 8253 8260 8247 8246 8250 8255 8256 8257 8253 8243 8226 8226 8220 8228 8238 8241 8244 8245 8243 8244 8246 8249 8249 8252 8288 8304 8301 8302 8302 8300 8298 8303 8297 8299 8298 8295 8297 
8330 8332 8336 8329 8332 8328 8332 8315 8273 8268 8268 8269 8270 8275 8285 8280 8279 8280 8285 8280 8270 8282 8277 8282 8251 8247 8252 8245 8243 8270 8286 8268 8256 8262 8242 8251 8293 8288 8246 8236 8227 8237 8255 8272 8260 8250 8250 8246 8251 8254 8260 8259 8254 8247 8226 8224 8216 8236 8243 8244 8245 8248 8248 8246 8246 8249 8250 8262 8291 8301 8303 8299 8297 8299 8302 8301 8298 8300 8297 8301 
8330 8330 8331 8328 8331 8328 8326 8308 8277 8276 8278 8271 8274 8285 8288 8276 8285 8288 8284 8317 8316 8304 8265 8268 8256 8253 8246 8242 8258 8296 8291 8269 8261 8260 8242 8271 8292 8295 8269 8239 8231 8260 8279 8266 8241 8233 8243 8244 8250 8251 8259 8256 8254 8258 8239 8220 8213 8245 8249 8246 8250 8254 8248 8242 8245 8255 8257 8253 8268 8292 8304 8300 8301 8298 8300 8299 8300 8296 8295 8297 
8330 8333 8334 8329 8328 8330 8328 8301 8281 8282 8278 8279 8282 8286 8287 8283 8286 8288 8309 8329 8322 8312 8276 8273 8273 8280 8248 8253 8291 8300 8294 8269 8262 8258 8242 8248 8254 8266 8274 8244 8264 8290 8271 8254 8230 8232 8237 8238 8247 8251 8260 8253 8241 8256 8251 8237 8234 8231 8249 8244 8250 8253 8255 8246 8247 8250 8257 8254 8258 8277 8301 8302 8299 8298 8300 8299 8301 8299 8295 8298 
8327 8332 8333 8329 8332 8330 8327 8294 8286 8282 8286 8290 8283 8288 8286 8287 8300 8316 8326 8328 8320 8311 8269 8274 8293 8298 8285 8294 8300 8299 8294 8272 8262 8251 8237 8234 8232 8237 8243 8264 8291 8282 8262 8238 8234 8235 8242 8239 8239 8251 8260 8255 8241 8256 8257 8278 8273 8259 8245 8250 8247 8246 8250 8248 8248 8246 8248 8251 8251 8258 8292 8299 8299 8299 8301 8300 8302 8298 8298 8300 
8326 8334 8334 8332 8331 8332 8324 8290 8284 8284 8294 8289 8288 8290 8297 8312 8324 8322 8326 8323 8314 8278 8263 8270 8290 8259 8269 8274 8297 8289 8286 8269 8263 8254 8245 8242 8242 8242 8250 8271 8281 8273 8276 8240 8237 8240 8241 8230 8228 8238 8254 8252 8237 8254 8270 8296 8288 8284 8252 8252 8254 8249 8251 8250 8250 8249 8251 8251 8248 8256 8293 8299 8301 8303 8303 8299 8304 8299 8300 8298 
8327 8333 8329 8329 8331 8330 8324 8291 8282 8287 8288 8291 8292 8309 8321 8324 8321 8318 8315 8300 8283 8269 8281 8250 8255 8260 8288 8297 8280 8250 8259 8267 8265 8263 8251 8253 8252 8249 8245 8258 8262 8275 8294 8259 8241 8240 8231 8223 8226 8225 8233 8238 8237 8270 8277 8299 8299 8299 8273 8255 8252 8251 8254 8252 8251 8250 8254 8255 8250 8255 8293 8300 8304 8301 8303 8303 8304 8297 8299 8300 
8328 8331 8337 8328 8329 8329 8323 8288 8284 8289 8292 8294 8308 8320 8317 8317 8317 8309 8288 8259 8254 8256 8255 8252 8269 8270 8290 8302 8268 8240 8242 8268 8262 8256 8251 8255 8254 8259 8266 8258 8246 8266 8293 8279 8249 8243 8239 8233 8229 8229 8233 8238 8241 8270 8290 8302 8302 8302 8297 8277 8259 8260 8255 8254 8257 8257 8254 8256 8255 8262 8295 8303 8303 8302 8302 8301 8300 8301 8298 8301 
8327 8333 8332 8329 8330 8331 8318 8292 8293 8304 8303 8264 8268 8300 8314 8313 8306 8271 8253 8251 8268 8278 8280 8275 8285 8283 8297 8304 8275 8239 8238 8265 8256 8253 8272 8265 8262 8266 8263 8265 8241 8259 8277 8279 8261 8251 8249 8246 8251 8253 8250 8248 8247 8245 8267 8298 8301 8301 8304 8305 8294 8280 8263 8260 8261 8259 8259 8257 8257 8275 8301 8305 8304 8302 8306 8301 8303 8303 8303 8300 
8324 8333 8333 8329 8332 8330 8317 8296 8314 8321 8286 8281 8307 8325 8325 8320 8296 8256 8254 8250 8287 8292 8292 8288 8286 8287 8284 8299 8295 8263 8241 8260 8256 8248 8255 8256 8248 8242 8241 8259 8268 8273 8288 8295 8278 8253 8253 8249 8257 8270 8261 8255 8272 8260 8250 8277 8301 8306 8307 8307 8307 8307 8293 8270 8263 8261 8260 8261 8262 8284 8303 8306 8309 8303 8305 8304 8302 8301 8301 8301 
8327 8332 8331 8331 8331 8331 8324 8319 8325 8307 8301 8320 8323 8327 8324 8322 8307 8306 8284 8264 8262 8265 8288 8301 8295 8298 8286 8285 8293 8294 8275 8264 8252 8253 8253 8256 8252 8247 8242 8247 8279 8294 8295 8297 8295 8268 8252 8251 8260 8267 8261 8274 8299 8297 8295 8287 8302 8306 8307 8309 8308 8309 8307 8297 8275 8266 8264 8265 8269 8292 8306 8307 8307 8308 8307 8306 8310 8305 8304 8303 
8324 8330 8330 8325 8333 8332 8330 8327 8316 8305 8328 8324 8327 8328 8324 8324 8316 8291 8272 8272 8264 8267 8271 8276 8275 8286 8289 8278 8271 8265 8276 8262 8250 8255 8256 8260 8256 8248 8252 8255 8270 8282 8283 8286 8288 8281 8262 8255 8260 8260 8262 8285 8302 8300 8303 8303 8305 8305 8306 8310 8309 8309 8309 8310 8303 8284 8271 8269 8277 8299 8310 8306 8310 8306 8311 8304 8308 8304 8303 8302 
8326 8329 8331 8328 8331 8327 8330 8326 8308 8325 8328 8329 8327 8331 8325 8321 8307 8274 8273 8269 8262 8268 8278 8275 8279 8290 8288 8272 8260 8268 8270 8262 8253 8257 8257 8262 8259 8253 8257 8259 8271 8279 8278 8279 8285 8281 8276 8270 8265 8265 8268 8281 8291 8298 8303 8305 8307 8304 8305 8310 8309 8313 8310 8313 8311 8305 8287 8280 8294 8309 8312 8309 8311 8309 8309 8309 8307 8306 8305 8300 
8324 8327 8332 8328 8328 8331 8328 8319 8324 8329 8331 8332 8327 8330 8326 8325 8303 8273 8274 8276 8275 8271 8276 8279 8294 8298 8298 8296 8284 8272 8269 8260 8252 8255 8259 8264 8265 8260 8261 8266 8274 8277 8281 8280 8286 8284 8286 8280 8269 8272 8274 8283 8286 8295 8304 8305 8304 8303 8304 8309 8308 8311 8311 8311 8313 8311 8306 8303 8308 8313 8311 8311 8309 8310 8311 8310 8307 8306 8303 8303 
8324 8329 8331 8328 8329 8332 8327 8317 8331 8330 8332 8335 8334 8331 8332 8328 8297 8279 8282 8282 8276 8279 8292 8292 8289 8288 8291 8295 8294 8285 8268 8266 8262 8264 8267 8269 8267 8271 8266 8260 8261 8269 8272 8275 8281 8282 8281 8284 8283 8281 8285 8286 8296 8303 8306 8304 8306 8305 8304 8306 8309 8310 8314 8309 8314 8310 8311 8312 8314 8311 8313 8312 8312 8309 8311 8307 8311 8310 8307 8304 
8326 8329 8333 8329 8333 8335 8319 8327 8333 8337 8338 8335 8333 8334 8330 8331 8296 8281 8284 8291 8288 8301 8317 8299 8287 8288 8285 8289 8291 8292 8288 8285 8286 8292 8294 8295 8292 8287 8285 8281 8278 8285 8283 8285 8290 8289 8291 8291 8290 8292 8293 8294 8301 8306 8306 8305 8305 8305 8305 8309 8309 8308 8311 8311 8311 8313 8313 8312 8313 8310 8313 8315 8312 8313 8312 8312 8316 8310 8310 8310 
8323 8325 8333 8330 8334 8329 8317 8332 8335 8335 8336 8336 8335 8334 8335 8331 8300 8286 8289 8296 8315 8326 8323 8304 8295 8291 8290 8295 8293 8292 8289 8292 8293 8299 8301 8304 8299 8294 8289 8292 8286 8288 8285 8287 8296 8295 8293 8292 8290 8293 8296 8301 8305 8308 8306 8307 8306 8304 8305 8309 8307 8310 8308 8310 8312 8314 8313 8316 8314 8314 8313 8313 8312 8316 8318 8312 8314 8310 8311 8310 
8323 8327 8329 8331 8333 8336 8327 8334 8335 8335 8339 8334 8335 8335 8335 8332 8309 8289 8299 8321 8330 8334 8332 8317 8301 8297 8294 8300 8299 8299 8295 8295 8297 8301 8301 8302 8301 8293 8295 8296 8290 8289 8288 8290 8295 8297 8293 8294 8290 8291 8301 8304 8307 8306 8306 8308 8306 8305 8305 8305 8306 8308 8311 8309 8312 8312 8313 8315 8315 8314 8319 8313 8313 8314 8318 8312 8315 8316 8311 8313 
8326 8328 8333 8333 8333 8336 8336 8338 8337 8336 8339 8340 8337 8340 8339 8336 8322 8316 8331 8335 8336 8336 8333 8333 8313 8298 8294 8294 8296 8297 8295 8302 8300 8301 8303 8299 8298 8292 8290 8293 8290 8294 8291 8289 8295 8298 8299 8299 8301 8303 8310 8310 8309 8305 8304 8307 8308 8307 8304 8307 8306 8312 8311 8313 8314 8316 8315 8318 8315 8316 8318 8316 8315 8315 8317 8315 8318 8316 8311 8316 
8326 8330 8334 8334 8335 8335 8338 8336 8334 8335 8341 8337 8339 8339 8341 8338 8338 8334 8336 8338 8339 8336 8334 8333 8323 8302 8294 8294 8293 8297 8297 8298 8296 8297 8297 8298 8295 8291 8298 8298 8295 8297 8297 8299 8304 8309 8312 8309 8313 8315 8320 8316 8312 8306 8309 8307 8308 8304 8304 8307 8307 8310 8312 8312 8314 8316 8316 8318 8316 8317 8320 8312 8316 8316 8317 8315 8321 8316 8314 8315 
8322 8329 8331 8330 8332 8338 8342 8341 8341 8340 8343 8338 8336 8341 8340 8339 8340 8339 8338 8338 8335 8338 8338 8338 8327 8313 8306 8303 8301 8306 8307 8307 8306 8303 8308 8307 8309 8303 8309 8306 8307 8309 8308 8307 8311 8313 8319 8323 8323 8325 8326 8316 8312 8311 8309 8309 8307 8306 8305 8306 8307 8312 8313 8310 8314 8315 8314 8316 8321 8317 8319 8318 8318 8318 8318 8316 8316 8322 8316 8316 
8321 8327 8332 8331 8334 8334 8340 8340 8341 8341 8346 8341 8338 8341 8341 8340 8337 8338 8340 8341 8338 8335 8340 8338 8332 8321 8315 8310 8311 8312 8315 8312 8311 8316 8316 8316 8315 8315 8318 8313 8316 8315 8313 8312 8318 8320 8320 8328 8330 8334 8330 8317 8312 8310 8308 8311 8307 8305 8308 8310 8308 8311 8313 8310 8313 8312 8310 8318 8320 8320 8318 8316 8318 8317 8319 8313 8318 8319 8313 8316 
8321 8325 8331 8332 8332 8338 8337 8337 8339 8336 8344 8341 8338 8341 8341 8344 8338 8339 8339 8339 8338 8335 8338 8334 8333 8322 8320 8313 8314 8314 8316 8319 8318 8319 8320 8321 8320 8319 8321 8323 8316 8321 8323 8321 8322 8326 8328 8332 8337 8340 8331 8314 8314 8311 8310 8310 8308 8305 8306 8309 8308 8310 8310 8314 8315 8316 8317 8317 8322 8317 8320 8319 8318 8315 8317 8314 8318 8317 8314 8309 
8321 8323 8329 8332 8334 8334 8337 8340 8339 8336 8337 8336 8338 8337 8339 8340 8339 8337 8338 8339 8337 8335 8337 8333 8333 8326 8324 8319 8317 8321 8320 8323 8321 8323 8323 8325 8324 8323 8324 8322 8325 8323 8329 8326 8327 8330 8330 8335 8338 8338 8335 8315 8314 8311 8308 8310 8310 8309 8305 8309 8306 8308 8310 8313 8314 8311 8316 8317 8318 8320 8320 8316 8317 8317 8318 8315 8317 8316 8317 8315 
8335 8332 8342 8348 8350 8346 8342 8342 8342 8339 8337 8338 8339 8335 8337 8334 8332 8334 8336 8338 8335 8333 8336 8331 8332 8328 8323 8320 8321 8320 8322 8326 8325 8325 8327 8326 8325 8325 8326 8327 8322 8328 8327 8325 8329 8330 8333 8338 8339 8339 8330 8315 8316 8310 8310 8309 8308 8304 8308 8306 8305 8309 8313 8312 8315 8314 8315 8316 8319 8319 8321 8318 8317 8316 8321 8316 8314 8315 8316 8321 
8356 8364 8371 8377 8371 8358 8360 8371 8390 8365 8352 8345 8344 8339 8331 8327 8327 8326 8333 8334 8332 8329 8331 8330 8331 8324 8323 8322 8321 8325 8325 8325 8325 8326 8326 8330 8330 8325 8328 8327 8323 8329 8330 8329 8333 8333 8337 8337 8339 8341 8324 8314 8312 8312 8309 8309 8308 8305 8306 8305 8304 8307 8312 8316 8314 8317 8316 8318 8321 8320 8320 8319 8320 8318 8321 8317 8317 8318 8317 8320 
8358 8377 8371 8363 8361 8358 8364 8374 8372 8365 8366 8371 8360 8334 8320 8316 8320 8324 8323 8324 8321 8321 8325 8325 8326 8321 8323 8320 8320 8326 8325 8323 8326 8327 8331 8329 8333 8326 8328 8331 8327 8330 8334 8334 8336 8335 8338 8340 8343 8341 8312 8299 8308 8311 8308 8311 8305 8305 8302 8302 8306 8309 8314 8317 8319 8316 8317 8318 8320 8322 8321 8318 8319 8316 8318 8316 8319 8315 8317 8322 
8362 8354 8355 8349 8347 8354 8355 8357 8355 8363 8367 8361 8334 8324 8319 8316 8317 8317 8319 8321 8312 8313 8316 8324 8323 8319 8323 8321 8324 8325 8324 8327 8324 8327 8329 8332 8332 8332 8330 8331 8326 8333 8333 8338 8337 8333 8339 8344 8345 8341 8309 8299 8302 8306 8307 8307 8303 8302 8300 8305 8304 8308 8313 8310 8315 8315 8316 8321 8316 8316 8316 8316 8315 8315 8319 8313 8318 8320 8319 8318 
8366 8361 8362 8371 8372 8353 8344 8346 8351 8374 8366 8333 8322 8322 8329 8329 8322 8316 8318 8322 8318 8319 8314 8324 8319 8318 8321 8322 8321 8325 8324 8325 8327 8329 8328 8330 8331 8332 8331 8332 8332 8338 8335 8334 8338 8341 8340 8343 8343 8333 8307 8299 8302 8302 8303 8307 8303 8299 8303 8307 8307 8307 8310 8315 8313 8312 8313 8321 8320 8314 8317 8317 8316 8315 8317 8315 8320 8323 8323 8324 
8388 8390 8392 8378 8370 8357 8354 8357 8355 8358 8358 8342 8338 8337 8338 8338 8332 8324 8327 8330 8322 8319 8314 8320 8325 8319 8316 8317 8320 8323 8322 8325 8325 8328 8323 8331 8331 8330 8330 8330 8331 8332 8336 8334 8338 8341 8341 8343 8343 8329 8304 8300 8300 8300 8300 8304 8302 8301 8295 8302 8303 8307 8310 8311 8312 8311 8313 8329 8322 8321 8326 8325 8324 8324 8326 8322 8329 8332 8325 8326 


