P2
80 60
8319
8192 8188 8189 8187 8187 8188 8189 8186 8182 8183 8184 8181 8184 8177 8179 8179 8179 8183 8184 8181 8177 8176 8175 8178 8180 8177 8180 8182 8180 8176 8174 8179 8181 8177 8176 8175 8174 8177 8175 8177 8176 8181 8184 8187 8184 8186 8183 8186 8189 8185 8184 8184 8182 8182 8176 8170 8168 8168 8167 8166 8164 8163 8162 8165 8165 8165 8168 8165 8167 8169 8171 8174 8173 8179 8178 8178 8174 8170 8166 8160 
8191 8190 8188 8188 8192 8185 8187 8187 8184 8182 8185 8182 8183 8181 8180 8181 8183 8186 8184 8182 8181 8179 8180 8182 8183 8182 8180 8183 8184 8184 8180 8187 8183 8180 8178 8181 8178 8178 8179 8180 8182 8178 8185 8185 8185 8186 8184 8183 8187 8186 8185 8182 8181 8178 8176 8169 8168 8168 8166 8164 8161 8160 8161 8164 8162 8162 8165 8163 8165 8164 8167 8168 8169 8172 8173 8174 8171 8172 8163 8160 
8190 8190 8186 8190 8189 8186 8189 8186 8186 8185 8184 8182 8182 8178 8181 8180 8184 8186 8186 8185 8182 8182 8181 8183 8183 8185 8185 8189 8184 8185 8185 8189 8188 8187 8184 8182 8184 8188 8186 8182 8179 8181 8184 8186 8182 8184 8183 8183 8188 8183 8181 8179 8180 8178 8174 8167 8165 8167 8165 8163 8164 8162 8160 8161 8163 8158 8163 8162 8160 8162 8161 8162 8164 8165 8165 8168 8167 8166 8162 8159 
8189 8188 8184 8192 8191 8188 8187 8188 8188 8182 8184 8184 8184 8182 8181 8183 8183 8185 8192 8189 8183 8183 8181 8185 8185 8185 8187 8186 8188 8186 8184 8187 8190 8187 8187 8185 8186 8187 8184 8180 8178 8179 8183 8183 8183 8184 8182 8181 8185 8181 8179 8181 8178 8177 8174 8167 8166 8168 8167 8162 8161 8162 8159 8162 8163 8159 8161 8160 8162 8163 8159 8158 8158 8157 8161 8160 8161 8159 8153 8154 
8189 8189 8188 8189 8191 8187 8189 8186 8185 8185 8184 8181 8183 8181 8181 8183 8183 8188 8189 8186 8184 8183 8181 8186 8185 8182 8187 8188 8187 8186 8187 8186 8188 8190 8184 8187 8187 8186 8184 8181 8175 8173 8180 8183 8184 8185 8179 8178 8186 8183 8178 8181 8178 8178 8174 8166 8164 8163 8164 8161 8162 8160 8160 8160 8160 8158 8157 8154 8159 8159 8158 8156 8153 8153 8151 8151 8152 8150 8148 8149 
8191 8189 8189 8189 8191 8188 8189 8191 8186 8184 8184 8185 8185 8184 8182 8183 8185 8188 8188 8186 8184 8185 8184 8185 8187 8183 8185 8186 8186 8186 8187 8187 8188 8185 8184 8188 8189 8186 8182 8180 8172 8174 8178 8182 8179 8180 8180 8182 8183 8179 8178 8177 8178 8177 8173 8167 8163 8163 8164 8161 8161 8159 8157 8159 8160 8156 8160 8155 8156 8160 8160 8156 8154 8151 8150 8146 8144 8144 8140 8142 
8188 8189 8185 8190 8191 8184 8192 8190 8191 8183 8182 8184 8186 8183 8180 8182 8183 8188 8190 8185 8184 8186 8182 8182 8185 8184 8185 8185 8186 8187 8183 8186 8188 8185 8186 8188 8188 8185 8182 8176 8172 8171 8178 8183 8180 8180 8180 8181 8182 8180 8178 8176 8173 8173 8169 8166 8162 8161 8161 8158 8158 8157 8151 8158 8157 8155 8157 8158 8157 8157 8156 8155 8152 8148 8145 8143 8139 8136 8134 8134 
8192 8185 8186 8188 8191 8186 8189 8192 8192 8181 8181 8184 8182 8182 8178 8179 8183 8184 8191 8186 8185 8183 8183 8186 8186 8184 8185 8184 8184 8186 8181 8186 8188 8186 8185 8190 8184 8181 8176 8179 8172 8172 8178 8181 8177 8182 8179 8179 8181 8179 8177 8173 8172 8168 8168 8161 8161 8162 8158 8158 8152 8156 8152 8155 8154 8153 8158 8155 8157 8157 8156 8152 8148 8147 8147 8140 8139 8136 8132 8129 
8190 8187 8186 8187 8186 8188 8189 8189 8191 8180 8183 8181 8184 8183 8181 8180 8183 8187 8188 8185 8183 8185 8182 8185 8184 8185 8183 8184 8187 8185 8181 8185 8186 8184 8184 8185 8184 8182 8177 8175 8172 8174 8177 8184 8177 8179 8178 8178 8178 8173 8173 8174 8171 8169 8166 8159 8162 8158 8161 8158 8151 8149 8151 8152 8154 8155 8157 8154 8155 8156 8155 8152 8148 8143 8141 8141 8139 8136 8130 8134 
8191 8188 8186 8189 8187 8189 8189 8189 8184 8182 8181 8181 8181 8179 8177 8178 8182 8182 8185 8183 8182 8182 8180 8181 8181 8179 8185 8186 8182 8186 8180 8182 8182 8184 8177 8180 8183 8178 8174 8172 8170 8173 8177 8182 8178 8176 8173 8160 8152 8153 8166 8169 8168 8166 8163 8161 8160 8161 8158 8155 8151 8150 8150 8153 8153 8157 8157 8154 8156 8156 8152 8151 8145 8148 8145 8140 8141 8135 8131 8135 
8191 8190 8182 8190 8187 8184 8182 8183 8184 8179 8182 8182 8179 8178 8179 8178 8182 8185 8185 8180 8179 8184 8176 8180 8179 8178 8179 8181 8180 8182 8175 8179 8180 8175 8172 8176 8179 8174 8171 8168 8165 8166 8167 8166 8171 8169 8151 8147 8143 8132 8144 8156 8161 8163 8164 8161 8161 8160 8158 8153 8154 8153 8151 8155 8153 8152 8157 8152 8151 8156 8154 8151 8147 8146 8145 8141 8138 8137 8134 8134 
8191 8187 8183 8188 8188 8181 8181 8181 8181 8180 8183 8181 8180 8178 8178 8182 8181 8180 8185 8180 8179 8178 8175 8177 8178 8175 8174 8170 8169 8169 8166 8172 8169 8165 8150 8139 8150 8148 8138 8148 8146 8130 8104 8107 8139 8156 8168 8172 8169 8151 8132 8127 8135 8156 8161 8160 8161 8160 8160 8157 8154 8153 8153 8153 8157 8159 8157 8153 8153 8155 8155 8151 8146 8146 8144 8144 8142 8136 8134 8137 
8190 8188 8181 8189 8190 8184 8183 8186 8181 8182 8183 8183 8179 8174 8178 8179 8183 8181 8184 8175 8180 8177 8176 8177 8172 8153 8137 8120 8112 8108 8118 8134 8115 8101 8083 8089 8094 8081 8076 8085 8090 8106 8131 8124 8135 8172 8172 8172 8173 8169 8155 8118 8118 8125 8139 8153 8161 8159 8158 8153 8153 8150 8150 8155 8158 8158 8156 8155 8156 8156 8155 8156 8151 8147 8148 8148 8144 8137 8138 8134 
8190 8190 8186 8188 8186 8185 8185 8184 8183 8181 8183 8184 8179 8178 8180 8176 8179 8177 8181 8166 8175 8178 8176 8177 8172 8158 8119 8103 8097 8098 8094 8096 8092 8087 8082 8072 8080 8085 8080 8093 8119 8130 8133 8140 8166 8175 8170 8172 8170 8166 8153 8114 8108 8095 8098 8140 8159 8158 8160 8156 8153 8155 8151 8153 8158 8158 8161 8158 8156 8156 8155 8152 8150 8147 8151 8148 8147 8143 8137 8141 
8192 8186 8182 8188 8188 8184 8183 8185 8183 8184 8185 8184 8181 8174 8168 8173 8156 8142 8132 8140 8168 8176 8171 8173 8169 8131 8116 8108 8103 8091 8088 8090 8070 8072 8068 8069 8084 8086 8091 8102 8111 8094 8104 8126 8162 8166 8167 8166 8154 8131 8121 8102 8090 8076 8075 8111 8148 8157 8158 8155 8156 8152 8153 8155 8156 8160 8158 8157 8156 8159 8157 8154 8152 8153 8152 8151 8154 8144 8138 8141 
8186 8187 8179 8188 8188 8190 8188 8189 8185 8182 8181 8182 8166 8130 8106 8119 8097 8086 8118 8160 8169 8169 8162 8152 8154 8131 8126 8123 8112 8104 8100 8094 8090 8065 8066 8072 8070 8065 8072 8089 8094 8094 8106 8114 8149 8151 8140 8115 8086 8083 8092 8086 8076 8074 8082 8102 8141 8154 8157 8154 8151 8154 8152 8154 8160 8160 8159 8159 8156 8158 8155 8156 8157 8154 8156 8157 8153 8150 8143 8142 
8187 8186 8181 8190 8191 8186 8187 8189 8182 8183 8183 8181 8157 8118 8130 8102 8083 8080 8094 8114 8138 8143 8131 8135 8132 8135 8133 8127 8111 8098 8085 8123 8137 8094 8086 8085 8082 8080 8082 8077 8083 8091 8089 8096 8094 8091 8089 8086 8076 8078 8080 8073 8069 8089 8112 8103 8124 8150 8157 8157 8150 8154 8155 8153 8158 8158 8159 8159 8158 8160 8157 8160 8156 8155 8156 8153 8151 8148 8144 8142 
8188 8186 8183 8191 8190 8190 8191 8191 8181 8155 8140 8141 8130 8117 8120 8101 8086 8086 8094 8098 8103 8103 8120 8131 8129 8126 8123 8114 8104 8102 8091 8114 8114 8116 8107 8110 8106 8092 8092 8094 8087 8091 8106 8141 8116 8099 8090 8088 8074 8085 8081 8078 8072 8066 8086 8102 8113 8136 8152 8152 8150 8153 8153 8156 8157 8156 8156 8160 8157 8159 8158 8158 8158 8158 8157 8155 8157 8152 8147 8147 
8192 8187 8185 8191 8192 8190 8192 8185 8161 8109 8108 8121 8138 8149 8143 8116 8088 8092 8095 8086 8090 8091 8107 8125 8125 8116 8112 8109 8103 8098 8102 8090 8081 8104 8113 8114 8112 8087 8097 8097 8092 8096 8138 8146 8140 8151 8133 8101 8092 8082 8071 8073 8076 8077 8078 8079 8096 8116 8147 8151 8151 8154 8154 8157 8158 8160 8157 8155 8157 8158 8158 8158 8155 8155 8156 8157 8155 8150 8146 8146 
8189 8187 8187 8189 8189 8191 8193 8179 8115 8093 8105 8121 8129 8129 8125 8099 8085 8098 8100 8088 8087 8083 8093 8122 8125 8109 8104 8114 8121 8120 8106 8101 8094 8106 8110 8113 8099 8085 8091 8090 8089 8118 8139 8116 8129 8154 8153 8135 8102 8089 8089 8099 8119 8133 8143 8131 8116 8099 8126 8143 8148 8149 8154 8153 8157 8157 8159 8157 8157 8160 8159 8158 8155 8157 8155 8155 8156 8153 8149 8149 
8194 8189 8185 8188 8187 8190 8181 8152 8103 8097 8101 8107 8108 8107 8112 8095 8092 8098 8102 8082 8072 8075 8082 8120 8125 8107 8107 8115 8115 8109 8109 8111 8110 8113 8109 8103 8084 8089 8074 8085 8099 8106 8101 8087 8090 8137 8145 8128 8092 8093 8086 8077 8093 8144 8155 8151 8150 8141 8111 8138 8142 8140 8149 8149 8153 8155 8155 8157 8155 8158 8159 8158 8157 8155 8155 8155 8158 8154 8150 8150 
8194 8192 8189 8193 8191 8187 8160 8110 8104 8103 8112 8113 8110 8103 8102 8100 8102 8102 8105 8081 8083 8086 8092 8117 8122 8100 8105 8111 8110 8112 8113 8112 8110 8108 8099 8086 8086 8094 8095 8097 8098 8098 8091 8082 8099 8109 8098 8093 8077 8060 8067 8074 8083 8113 8149 8152 8151 8144 8128 8133 8124 8123 8126 8123 8122 8124 8132 8144 8151 8156 8156 8157 8155 8156 8157 8161 8160 8154 8151 8152 
8196 8193 8189 8191 8189 8183 8132 8112 8146 8123 8117 8112 8107 8108 8109 8112 8121 8121 8118 8103 8089 8093 8098 8114 8118 8108 8105 8108 8110 8115 8116 8117 8113 8104 8088 8079 8075 8093 8097 8093 8087 8087 8095 8109 8118 8114 8106 8093 8074 8067 8072 8079 8082 8094 8132 8125 8124 8132 8137 8142 8141 8129 8122 8116 8115 8115 8119 8124 8131 8145 8154 8157 8155 8154 8155 8158 8158 8157 8153 8154 
8196 8195 8193 8194 8191 8182 8129 8154 8156 8124 8120 8117 8115 8119 8119 8123 8127 8129 8125 8115 8099 8099 8103 8108 8115 8107 8100 8109 8111 8113 8106 8111 8104 8086 8080 8076 8081 8099 8094 8088 8077 8095 8135 8140 8129 8123 8115 8105 8087 8079 8079 8082 8085 8089 8086 8108 8140 8148 8149 8148 8147 8136 8129 8129 8128 8126 8129 8127 8124 8130 8139 8148 8155 8156 8157 8158 8156 8155 8154 8155 
8201 8199 8195 8194 8190 8174 8151 8166 8142 8131 8122 8121 8125 8122 8118 8125 8132 8126 8123 8121 8106 8103 8106 8102 8112 8104 8086 8095 8103 8102 8096 8092 8089 8086 8090 8087 8092 8101 8095 8079 8083 8092 8136 8148 8135 8125 8122 8121 8106 8095 8085 8081 8084 8087 8076 8075 8102 8138 8150 8147 8149 8146 8130 8127 8127 8136 8133 8129 8126 8131 8133 8138 8152 8152 8154 8154 8157 8155 8149 8154 
8201 8202 8198 8197 8192 8169 8172 8160 8146 8136 8129 8123 8119 8116 8123 8132 8137 8129 8127 8123 8111 8104 8105 8103 8105 8101 8085 8067 8075 8074 8078 8084 8104 8091 8098 8090 8096 8104 8088 8077 8092 8100 8133 8138 8134 8115 8119 8123 8121 8107 8093 8085 8081 8083 8085 8080 8078 8108 8146 8149 8150 8150 8147 8133 8126 8133 8134 8130 8127 8126 8127 8137 8143 8151 8155 8153 8158 8153 8148 8151 
8199 8200 8194 8194 8190 8175 8168 8147 8145 8140 8131 8125 8120 8122 8129 8135 8139 8131 8129 8126 8118 8113 8104 8094 8094 8100 8091 8070 8070 8075 8077 8089 8108 8090 8104 8108 8101 8091 8079 8078 8095 8120 8141 8133 8128 8099 8099 8118 8123 8116 8102 8090 8091 8090 8092 8082 8081 8090 8138 8148 8152 8151 8151 8146 8126 8126 8135 8132 8124 8119 8122 8132 8134 8143 8153 8154 8156 8156 8149 8151 
8205 8198 8195 8195 8189 8185 8162 8145 8142 8144 8142 8144 8132 8131 8133 8133 8141 8137 8133 8132 8129 8116 8096 8072 8080 8101 8096 8079 8072 8081 8080 8090 8098 8095 8120 8116 8105 8094 8086 8089 8116 8139 8122 8105 8102 8089 8084 8086 8113 8121 8113 8107 8100 8098 8117 8121 8086 8088 8126 8146 8151 8152 8152 8139 8122 8123 8133 8139 8132 8124 8123 8125 8130 8134 8147 8151 8156 8154 8148 8147 
8200 8201 8194 8196 8191 8183 8157 8144 8145 8145 8149 8149 8136 8136 8143 8142 8148 8144 8140 8137 8134 8126 8098 8078 8084 8099 8101 8087 8079 8082 8086 8088 8089 8102 8136 8106 8107 8105 8103 8120 8131 8101 8094 8098 8090 8080 8065 8060 8070 8106 8115 8112 8108 8105 8119 8143 8121 8086 8099 8140 8151 8152 8151 8123 8119 8123 8129 8137 8137 8133 8119 8117 8120 8127 8135 8145 8152 8152 8149 8146 
8203 8201 8191 8194 8189 8177 8152 8156 8160 8155 8157 8154 8147 8151 8152 8151 8156 8154 8153 8149 8134 8114 8096 8106 8106 8105 8107 8106 8095 8096 8105 8090 8086 8109 8142 8111 8102 8103 8121 8138 8099 8091 8093 8092 8087 8076 8071 8064 8065 8080 8117 8119 8113 8105 8119 8144 8146 8104 8090 8132 8148 8151 8147 8136 8123 8127 8129 8134 8139 8140 8124 8114 8112 8113 8120 8132 8147 8151 8146 8150 
8201 8197 8192 8193 8191 8180 8157 8156 8161 8160 8161 8158 8156 8158 8154 8153 8159 8158 8161 8149 8122 8097 8098 8118 8124 8124 8114 8115 8140 8134 8117 8090 8084 8102 8131 8109 8097 8125 8141 8119 8083 8091 8090 8090 8083 8074 8073 8067 8066 8067 8108 8124 8113 8110 8115 8144 8146 8129 8088 8126 8148 8147 8150 8146 8132 8128 8128 8131 8135 8137 8134 8126 8114 8105 8108 8118 8145 8152 8146 8146 
8199 8196 8189 8192 8185 8178 8160 8163 8168 8166 8162 8165 8160 8157 8158 8157 8157 8162 8157 8132 8110 8090 8118 8109 8135 8141 8119 8112 8137 8144 8119 8090 8087 8092 8095 8089 8077 8102 8094 8081 8082 8087 8089 8092 8083 8076 8100 8072 8069 8071 8075 8088 8094 8102 8109 8142 8146 8148 8113 8117 8145 8149 8147 8150 8147 8131 8129 8134 8135 8139 8147 8144 8134 8120 8109 8113 8140 8151 8147 8149 
8198 8195 8192 8194 8189 8179 8161 8165 8165 8166 8163 8162 8160 8156 8158 8155 8152 8147 8117 8094 8134 8096 8100 8104 8115 8105 8112 8116 8128 8143 8120 8090 8085 8094 8096 8091 8081 8079 8077 8081 8086 8084 8086 8085 8081 8076 8081 8073 8074 8071 8069 8074 8077 8082 8100 8111 8134 8146 8139 8117 8144 8146 8148 8150 8148 8148 8144 8135 8133 8136 8142 8149 8144 8137 8128 8129 8148 8152 8145 8146 
8197 8198 8192 8193 8187 8179 8162 8166 8169 8165 8166 8167 8161 8159 8154 8147 8136 8113 8096 8102 8147 8113 8088 8082 8085 8120 8129 8117 8110 8107 8085 8086 8084 8086 8098 8103 8100 8094 8092 8092 8094 8084 8081 8083 8085 8077 8075 8071 8073 8074 8079 8096 8094 8089 8092 8090 8102 8117 8136 8132 8142 8145 8150 8150 8150 8152 8152 8147 8142 8138 8141 8147 8143 8140 8138 8136 8152 8149 8146 8146 
8200 8195 8192 8194 8187 8182 8158 8161 8161 8160 8168 8165 8164 8157 8139 8123 8097 8099 8107 8134 8141 8117 8063 8077 8096 8142 8144 8114 8105 8085 8080 8083 8080 8082 8108 8130 8125 8123 8119 8113 8098 8077 8075 8084 8082 8075 8075 8077 8071 8072 8083 8131 8128 8137 8134 8125 8120 8113 8114 8128 8143 8147 8149 8151 8149 8151 8153 8153 8147 8143 8138 8142 8141 8137 8139 8139 8150 8149 8146 8146 
8197 8196 8190 8192 8191 8180 8156 8160 8160 8158 8160 8163 8157 8143 8121 8092 8080 8104 8114 8116 8111 8083 8071 8083 8086 8105 8127 8112 8103 8096 8087 8083 8085 8111 8137 8137 8134 8131 8121 8107 8085 8076 8074 8079 8080 8073 8065 8079 8083 8078 8100 8141 8149 8149 8146 8145 8144 8144 8136 8130 8133 8150 8147 8150 8151 8150 8151 8149 8150 8150 8140 8137 8139 8138 8135 8140 8153 8152 8144 8145 
8198 8196 8191 8192 8189 8177 8153 8159 8152 8154 8162 8155 8150 8131 8088 8097 8121 8095 8098 8095 8089 8084 8084 8090 8087 8115 8140 8112 8104 8100 8093 8085 8088 8126 8116 8097 8109 8127 8102 8076 8078 8085 8081 8078 8073 8069 8070 8085 8092 8092 8120 8149 8151 8150 8146 8146 8149 8148 8146 8145 8142 8146 8146 8147 8150 8149 8150 8147 8146 8149 8149 8142 8139 8137 8139 8145 8153 8153 8144 8148 
8199 8194 8194 8196 8189 8178 8152 8161 8156 8156 8156 8154 8108 8090 8128 8155 8121 8093 8097 8114 8120 8111 8111 8101 8097 8094 8130 8123 8105 8099 8100 8089 8093 8106 8078 8075 8081 8100 8078 8078 8088 8090 8087 8080 8072 8073 8080 8091 8095 8105 8137 8149 8153 8150 8150 8147 8148 8152 8152 8147 8144 8146 8144 8148 8151 8151 8151 8151 8147 8151 8152 8153 8149 8139 8136 8150 8153 8151 8149 8148 
8196 8198 8193 8193 8188 8149 8141 8152 8151 8162 8169 8126 8119 8156 8167 8161 8110 8092 8097 8135 8153 8148 8138 8135 8134 8098 8095 8116 8103 8102 8131 8100 8090 8096 8081 8078 8076 8078 8077 8084 8092 8092 8089 8082 8067 8075 8083 8095 8105 8129 8146 8149 8151 8150 8150 8146 8148 8149 8149 8145 8141 8144 8143 8148 8149 8151 8154 8147 8146 8152 8151 8149 8151 8152 8150 8154 8153 8151 8149 8150 
8202 8201 8195 8191 8166 8140 8141 8146 8164 8175 8160 8154 8168 8170 8171 8161 8125 8099 8102 8113 8117 8139 8147 8130 8132 8131 8100 8086 8100 8106 8111 8100 8092 8101 8085 8081 8077 8083 8083 8090 8090 8091 8093 8079 8064 8071 8081 8098 8118 8134 8144 8148 8149 8144 8147 8144 8150 8149 8148 8143 8142 8143 8142 8148 8150 8149 8148 8149 8148 8150 8151 8152 8151 8155 8155 8153 8153 8153 8150 8148 
8201 8199 8193 8181 8155 8152 8151 8161 8181 8181 8178 8178 8181 8175 8173 8172 8154 8125 8122 8120 8111 8110 8109 8108 8111 8122 8112 8088 8092 8107 8100 8097 8085 8108 8093 8087 8084 8086 8090 8088 8085 8093 8099 8075 8069 8073 8081 8102 8118 8133 8143 8144 8144 8141 8143 8140 8147 8149 8146 8144 8143 8145 8145 8147 8150 8150 8152 8146 8149 8151 8151 8151 8153 8154 8158 8159 8157 8157 8149 8152 
8197 8197 8190 8167 8155 8153 8173 8185 8187 8185 8184 8184 8184 8178 8177 8173 8141 8129 8127 8120 8111 8110 8108 8112 8125 8145 8136 8118 8098 8102 8094 8078 8074 8093 8102 8096 8093 8094 8096 8093 8089 8096 8091 8077 8073 8074 8074 8084 8105 8135 8145 8145 8136 8136 8134 8139 8144 8143 8145 8143 8141 8145 8143 8147 8148 8150 8149 8149 8148 8151 8152 8153 8155 8155 8157 8157 8157 8154 8147 8147 
8199 8196 8185 8161 8158 8173 8186 8192 8192 8190 8190 8188 8190 8186 8181 8162 8139 8130 8120 8106 8107 8114 8122 8123 8137 8132 8137 8132 8108 8104 8093 8081 8078 8080 8105 8101 8102 8108 8109 8107 8103 8104 8096 8088 8089 8097 8108 8121 8134 8144 8140 8137 8134 8135 8137 8137 8143 8143 8146 8147 8143 8144 8146 8146 8150 8150 8149 8150 8150 8150 8154 8154 8154 8156 8154 8161 8156 8154 8151 8153 
8202 8197 8185 8159 8166 8191 8194 8195 8194 8195 8194 8193 8192 8190 8187 8159 8139 8128 8116 8111 8116 8128 8134 8127 8127 8126 8136 8144 8141 8150 8151 8151 8148 8148 8152 8162 8158 8159 8152 8145 8135 8126 8124 8124 8123 8126 8133 8138 8140 8136 8138 8139 8137 8137 8138 8142 8143 8144 8146 8142 8145 8145 8147 8147 8150 8150 8148 8151 8149 8151 8155 8155 8153 8160 8159 8158 8157 8159 8152 8154 
8201 8196 8179 8162 8189 8196 8198 8196 8197 8193 8193 8196 8195 8192 8187 8157 8134 8126 8122 8124 8129 8135 8125 8119 8120 8128 8135 8146 8147 8151 8152 8154 8151 8150 8148 8154 8154 8154 8146 8137 8129 8123 8122 8119 8120 8129 8133 8137 8138 8134 8135 8132 8131 8132 8138 8144 8146 8146 8143 8142 8145 8146 8148 8148 8150 8148 8151 8149 8148 8151 8153 8153 8154 8158 8160 8156 8157 8156 8153 8152 
8203 8199 8180 8180 8196 8200 8202 8201 8199 8195 8196 8199 8195 8194 8193 8160 8134 8128 8138 8135 8138 8147 8131 8119 8125 8132 8138 8151 8155 8156 8155 8155 8157 8150 8146 8151 8153 8156 8143 8132 8126 8123 8116 8117 8122 8131 8136 8137 8138 8134 8133 8128 8126 8133 8142 8143 8143 8144 8144 8145 8144 8144 8147 8146 8149 8151 8149 8147 8148 8151 8154 8152 8153 8155 8159 8159 8158 8156 8151 8152 
8202 8198 8188 8195 8202 8206 8203 8202 8203 8199 8198 8198 8198 8195 8194 8167 8140 8145 8150 8142 8152 8176 8165 8138 8126 8131 8140 8153 8163 8167 8163 8162 8157 8156 8149 8152 8151 8151 8138 8128 8117 8114 8114 8118 8121 8127 8129 8133 8133 8130 8127 8122 8129 8133 8142 8145 8145 8145 8146 8146 8143 8143 8145 8143 8148 8148 8149 8149 8149 8151 8153 8153 8156 8154 8158 8154 8158 8157 8149 8152 
8201 8199 8199 8203 8202 8204 8206 8204 8205 8201 8200 8202 8198 8199 8194 8180 8158 8159 8158 8154 8173 8182 8179 8165 8129 8121 8134 8147 8160 8167 8164 8167 8163 8154 8151 8148 8148 8143 8134 8123 8117 8114 8117 8121 8121 8122 8127 8128 8129 8128 8127 8131 8135 8137 8144 8142 8145 8145 8143 8142 8140 8142 8144 8143 8146 8150 8147 8147 8148 8152 8152 8154 8154 8156 8158 8159 8157 8157 8155 8152 
8199 8198 8196 8203 8204 8205 8205 8204 8203 8198 8201 8199 8200 8197 8195 8187 8167 8164 8163 8172 8185 8184 8182 8173 8139 8127 8131 8133 8136 8149 8139 8138 8137 8140 8136 8128 8132 8127 8123 8122 8119 8120 8120 8127 8123 8127 8126 8131 8131 8134 8137 8142 8139 8141 8143 8142 8143 8144 8144 8140 8140 8140 8141 8143 8145 8147 8148 8146 8150 8151 8153 8151 8154 8159 8157 8157 8158 8158 8153 8151 
8198 8194 8193 8200 8202 8203 8205 8203 8201 8199 8200 8201 8200 8197 8195 8191 8179 8167 8181 8187 8186 8180 8178 8176 8147 8142 8142 8136 8137 8144 8137 8138 8140 8136 8133 8134 8135 8136 8134 8130 8130 8128 8130 8131 8130 8132 8133 8136 8135 8137 8141 8144 8139 8141 8143 8142 8142 8145 8138 8138 8138 8140 8141 8140 8142 8144 8147 8146 8148 8151 8153 8154 8155 8158 8157 8157 8158 8156 8152 8154 
8195 8195 8192 8200 8197 8198 8203 8200 8200 8196 8200 8199 8199 8196 8197 8194 8187 8186 8197 8186 8184 8183 8179 8175 8157 8149 8150 8143 8136 8143 8144 8142 8144 8147 8136 8139 8137 8139 8137 8138 8138 8135 8133 8139 8137 8135 8136 8135 8135 8136 8139 8139 8139 8144 8144 8138 8143 8145 8143 8140 8140 8140 8142 8139 8142 8143 8142 8146 8149 8152 8154 8158 8156 8158 8160 8157 8158 8161 8151 8154 
8197 8194 8193 8197 8201 8198 8200 8200 8199 8199 8199 8199 8200 8199 8198 8195 8195 8194 8196 8188 8186 8185 8181 8179 8163 8152 8150 8142 8142 8142 8146 8150 8148 8146 8142 8144 8140 8143 8142 8142 8141 8140 8138 8142 8139 8137 8134 8137 8141 8136 8140 8140 8142 8148 8146 8142 8140 8141 8140 8136 8139 8139 8139 8139 8140 8141 8144 8147 8148 8155 8154 8153 8155 8157 8160 8157 8157 8160 8152 8155 
8196 8195 8194 8198 8200 8196 8198 8198 8195 8196 8198 8201 8198 8198 8198 8196 8195 8196 8198 8193 8187 8185 8183 8182 8170 8160 8156 8148 8148 8148 8149 8151 8154 8148 8148 8149 8145 8146 8144 8142 8141 8139 8138 8147 8141 8140 8137 8140 8143 8140 8141 8145 8146 8145 8146 8138 8140 8143 8140 8136 8136 8138 8140 8140 8137 8143 8141 8145 8147 8153 8156 8156 8156 8158 8158 8156 8157 8157 8151 8147 
8194 8193 8189 8197 8200 8194 8194 8196 8195 8195 8197 8197 8200 8198 8198 8197 8198 8197 8198 8194 8192 8190 8186 8187 8175 8164 8161 8154 8147 8151 8147 8154 8156 8155 8145 8152 8150 8151 8146 8144 8136 8140 8142 8146 8140 8143 8138 8139 8143 8142 8145 8148 8144 8145 8146 8138 8138 8138 8139 8134 8135 8137 8141 8136 8141 8139 8142 8145 8145 8150 8152 8152 8153 8155 8155 8155 8156 8157 8149 8149 
8188 8184 8184 8189 8189 8189 8190 8192 8190 8195 8194 8198 8199 8195 8197 8197 8197 8200 8200 8196 8189 8190 8188 8187 8179 8167 8156 8152 8147 8149 8142 8151 8154 8153 8146 8147 8147 8148 8144 8146 8142 8140 8142 8143 8141 8143 8142 8141 8146 8143 8146 8143 8142 8139 8142 8140 8136 8137 8137 8133 8134 8136 8136 8136 8138 8137 8143 8142 8148 8149 8152 8150 8153 8157 8156 8151 8153 8158 8150 8149 
8188 8182 8185 8180 8172 8166 8174 8189 8187 8188 8189 8189 8189 8190 8188 8192 8194 8196 8201 8195 8189 8190 8187 8187 8179 8164 8159 8154 8151 8147 8145 8153 8154 8155 8153 8152 8151 8151 8143 8146 8144 8143 8144 8145 8141 8140 8141 8142 8144 8143 8140 8144 8140 8130 8130 8132 8130 8131 8133 8130 8133 8134 8137 8136 8138 8141 8142 8143 8144 8149 8149 8148 8152 8153 8154 8153 8153 8154 8152 8155 
8218 8211 8191 8184 8180 8185 8190 8190 8184 8179 8181 8177 8174 8173 8175 8179 8184 8191 8189 8185 8182 8180 8175 8174 8164 8159 8155 8149 8147 8147 8146 8151 8153 8154 8150 8154 8157 8154 8146 8147 8142 8144 8144 8144 8142 8138 8139 8141 8142 8143 8140 8142 8133 8125 8124 8125 8124 8127 8131 8130 8129 8131 8135 8136 8136 8140 8140 8137 8145 8153 8157 8160 8159 8166 8165 8164 8164 8164 8159 8153 
8265 8242 8233 8237 8237 8242 8243 8234 8234 8230 8229 8220 8215 8215 8222 8227 8231 8234 8224 8216 8210 8212 8194 8167 8164 8152 8155 8149 8152 8150 8149 8149 8151 8152 8148 8151 8156 8150 8148 8150 8146 8139 8141 8143 8142 8140 8140 8139 8143 8137 8138 8139 8128 8124 8122 8122 8120 8118 8124 8124 8125 8126 8133 8139 8138 8141 8149 8151 8149 8155 8159 8160 8157 8164 8169 8170 8167 8166 8157 8155 
8262 8253 8264 8300 8291 8263 8243 8244 8262 8288 8272 8241 8230 8232 8253 8287 8280 8256 8244 8229 8227 8254 8211 8167 8163 8156 8149 8151 8149 8148 8145 8148 8144 8147 8146 8152 8148 8148 8147 8149 8144 8136 8138 8140 8140 8138 8139 8137 8138 8138 8137 8133 8127 8125 8123 8121 8121 8120 8123 8123 8125 8123 8128 8132 8137 8135 8142 8146 8149 8154 8159 8162 8161 8160 8165 8163 8164 8163 8156 8154 
8290 8299 8315 8319 8295 8274 8272 8273 8300 8315 8293 8266 8262 8255 8279 8300 8276 8256 8240 8231 8231 8257 8228 8176 8168 8157 8147 8144 8139 8142 8143 8146 8140 8143 8145 8151 8149 8146 8146 8150 8146 8141 8138 8141 8139 8141 8141 8140 8144 8138 8140 8135 8134 8137 8129 8121 8116 8117 8121 8124 8124 8126 8127 8132 8140 8141 8143 8149 8151 8154 8156 8160 8159 8163 8162 8164 8172 8159 8156 8160 


