P2
80 60
8144
8009 8036 8062 8076 8077 8079 8078 8083 8087 8092 8092 8087 8089 8088 8084 8085 8088 8090 8090 8093 8090 8098 8096 8073 8034 8027 8028 8029 8044 8093 8111 8108 8112 8110 8111 8109 8100 8084 8097 8119 8126 8121 8120 8121 8120 8116 8116 8116 8115 8117 8116 8111 8110 8109 8104 8104 8099 8099 8100 8095 8091 8094 8090 8090 8094 8095 8097 8095 8097 8097 8096 8096 8098 8098 8095 8098 8091 8093 8075 8074 
8005 8043 8063 8075 8078 8078 8080 8084 8089 8087 8093 8088 8086 8084 8084 8084 8090 8089 8091 8093 8095 8098 8094 8046 8026 8024 8024 8037 8077 8105 8111 8110 8111 8111 8108 8108 8105 8080 8072 8089 8114 8115 8117 8120 8115 8116 8117 8117 8117 8115 8115 8113 8113 8108 8106 8103 8102 8103 8100 8099 8094 8094 8093 8092 8095 8093 8091 8096 8097 8097 8097 8094 8094 8095 8093 8096 8088 8087 8076 8073 
8015 8051 8064 8072 8077 8079 8080 8087 8088 8091 8091 8086 8082 8085 8084 8088 8089 8094 8091 8093 8087 8088 8090 8069 8032 8027 8044 8073 8096 8101 8108 8111 8108 8107 8101 8080 8080 8076 8068 8070 8075 8084 8085 8085 8090 8096 8104 8110 8120 8119 8117 8115 8116 8117 8109 8106 8108 8105 8101 8099 8100 8097 8095 8092 8093 8093 8096 8097 8099 8099 8098 8094 8097 8096 8096 8092 8085 8078 8075 8071 
8029 8061 8070 8071 8078 8078 8079 8085 8091 8091 8089 8082 8083 8086 8083 8084 8092 8092 8092 8076 8046 8046 8067 8084 8053 8033 8064 8073 8068 8068 8087 8091 8085 8076 8075 8078 8072 8069 8069 8066 8065 8059 8059 8055 8060 8059 8069 8085 8111 8118 8120 8116 8118 8117 8109 8108 8105 8107 8104 8103 8099 8095 8097 8096 8095 8092 8096 8093 8099 8095 8099 8098 8098 8098 8097 8091 8073 8075 8070 8067 
8045 8068 8072 8072 8077 8077 8084 8086 8087 8091 8090 8080 8084 8083 8081 8084 8088 8089 8090 8078 8067 8063 8055 8079 8039 8049 8044 8050 8053 8051 8052 8055 8051 8061 8091 8113 8106 8071 8066 8069 8062 8058 8062 8066 8073 8081 8092 8107 8118 8120 8120 8121 8120 8119 8112 8112 8110 8110 8108 8106 8102 8101 8099 8095 8097 8095 8096 8097 8100 8099 8095 8098 8097 8096 8096 8083 8068 8070 8068 8070 
8056 8078 8074 8073 8079 8080 8086 8089 8089 8088 8088 8086 8089 8087 8085 8084 8071 8065 8081 8087 8077 8056 8040 8051 8031 8031 8036 8045 8048 8051 8055 8083 8086 8105 8117 8122 8120 8075 8059 8062 8086 8098 8107 8115 8116 8116 8118 8120 8124 8121 8124 8119 8122 8121 8115 8115 8112 8112 8112 8109 8108 8106 8101 8098 8096 8096 8097 8099 8099 8100 8100 8096 8096 8095 8097 8084 8070 8071 8065 8065 
8066 8084 8079 8081 8081 8085 8090 8093 8094 8092 8089 8087 8086 8086 8087 8080 8039 8035 8046 8058 8028 8023 8040 8044 8030 8030 8035 8045 8050 8054 8057 8073 8108 8117 8122 8125 8114 8075 8055 8049 8067 8098 8120 8124 8122 8121 8122 8125 8127 8126 8127 8124 8122 8122 8119 8118 8116 8114 8113 8112 8110 8106 8109 8104 8102 8103 8100 8099 8100 8099 8101 8097 8097 8096 8093 8087 8067 8072 8065 8065 
8073 8087 8088 8085 8084 8084 8094 8098 8098 8092 8092 8088 8091 8087 8086 8066 8027 8029 8041 8057 8021 8017 8042 8050 8039 8037 8053 8062 8058 8055 8057 8059 8089 8118 8122 8123 8093 8097 8058 8059 8064 8055 8067 8100 8118 8121 8123 8124 8125 8125 8128 8128 8122 8124 8118 8120 8117 8118 8117 8115 8113 8109 8110 8108 8108 8105 8104 8105 8103 8100 8099 8098 8098 8098 8094 8090 8072 8074 8068 8068 
8083 8091 8089 8089 8093 8091 8099 8098 8099 8092 8094 8093 8087 8084 8074 8044 8028 8023 8026 8040 8048 8015 8030 8042 8034 8067 8097 8103 8101 8093 8071 8078 8072 8111 8120 8116 8086 8094 8092 8115 8118 8090 8049 8048 8083 8117 8119 8118 8119 8123 8126 8125 8124 8122 8121 8119 8120 8118 8118 8119 8114 8114 8112 8109 8109 8110 8108 8105 8108 8104 8100 8098 8102 8099 8096 8092 8082 8078 8071 8070 
8089 8096 8092 8096 8093 8094 8097 8098 8096 8094 8093 8092 8079 8045 8040 8037 8025 8014 8011 8014 8032 8032 8034 8023 8023 8076 8090 8097 8109 8108 8085 8107 8106 8111 8117 8096 8088 8070 8089 8084 8098 8115 8079 8049 8065 8087 8074 8076 8094 8112 8118 8120 8123 8121 8115 8118 8122 8117 8117 8118 8116 8112 8110 8112 8112 8112 8110 8113 8109 8109 8104 8102 8103 8102 8100 8098 8092 8081 8073 8072 
8091 8101 8096 8094 8098 8093 8091 8096 8097 8095 8096 8091 8085 8071 8062 8073 8047 8019 8011 8011 8034 8028 8041 8016 8035 8077 8034 8045 8066 8081 8072 8066 8095 8105 8110 8074 8061 8049 8051 8057 8063 8116 8116 8075 8063 8061 8055 8056 8057 8067 8090 8112 8121 8123 8115 8116 8120 8120 8121 8117 8113 8114 8116 8114 8110 8115 8110 8114 8113 8109 8108 8110 8104 8107 8105 8102 8097 8088 8073 8078 
8096 8104 8094 8092 8090 8095 8094 8094 8099 8094 8096 8093 8087 8089 8087 8089 8086 8056 8040 8029 8036 8038 8024 8016 8023 8049 8025 8029 8039 8050 8049 8037 8043 8057 8073 8058 8043 8044 8048 8054 8090 8123 8124 8095 8064 8058 8059 8058 8055 8058 8062 8071 8102 8116 8117 8117 8117 8120 8122 8122 8116 8113 8113 8115 8113 8113 8115 8113 8112 8113 8113 8108 8107 8106 8110 8108 8108 8093 8078 8076 
8098 8103 8094 8095 8090 8092 8092 8092 8093 8097 8095 8091 8089 8090 8090 8094 8095 8090 8085 8046 8031 8022 8028 8012 8017 8026 8027 8029 8033 8077 8058 8033 8034 8035 8035 8042 8037 8042 8045 8067 8118 8126 8129 8102 8063 8058 8059 8059 8057 8059 8058 8059 8068 8102 8114 8115 8119 8120 8120 8117 8114 8115 8112 8114 8114 8116 8114 8113 8113 8112 8109 8108 8108 8109 8110 8113 8107 8105 8077 8078 
8096 8100 8098 8095 8096 8094 8095 8091 8093 8093 8095 8092 8090 8092 8093 8096 8096 8092 8073 8052 8018 8015 8012 8010 8015 8016 8021 8025 8033 8070 8048 8035 8030 8030 8035 8032 8038 8041 8045 8093 8119 8122 8126 8106 8058 8056 8053 8055 8057 8058 8058 8056 8068 8111 8113 8116 8114 8119 8116 8118 8113 8113 8112 8114 8117 8116 8113 8111 8111 8112 8112 8109 8106 8108 8111 8108 8108 8103 8083 8081 
8097 8100 8095 8098 8097 8096 8094 8094 8096 8097 8100 8098 8095 8096 8096 8097 8097 8069 8037 8053 8046 8020 8019 8021 8018 8020 8020 8023 8027 8033 8033 8027 8027 8029 8029 8040 8044 8058 8059 8070 8112 8116 8114 8089 8077 8048 8038 8042 8043 8053 8053 8059 8088 8116 8110 8111 8113 8115 8115 8115 8113 8111 8115 8114 8117 8113 8113 8115 8111 8110 8110 8108 8107 8111 8110 8109 8104 8106 8085 8087 
8096 8097 8096 8097 8094 8091 8092 8092 8096 8099 8102 8099 8097 8096 8097 8097 8085 8043 8033 8042 8079 8038 8029 8027 8026 8024 8022 8023 8027 8031 8028 8029 8026 8026 8034 8036 8045 8056 8066 8059 8059 8070 8085 8082 8096 8095 8044 8037 8038 8040 8046 8053 8093 8113 8113 8113 8108 8110 8111 8113 8112 8112 8116 8116 8115 8117 8112 8113 8110 8113 8114 8110 8110 8112 8112 8112 8104 8108 8093 8090 
8097 8100 8094 8096 8096 8091 8094 8097 8093 8088 8102 8097 8098 8099 8098 8094 8055 8038 8052 8068 8064 8032 8029 8026 8031 8029 8025 8023 8026 8022 8024 8024 8022 8026 8028 8032 8035 8042 8042 8045 8043 8045 8054 8104 8102 8071 8087 8066 8044 8043 8042 8047 8073 8084 8105 8113 8110 8096 8074 8090 8103 8112 8112 8114 8115 8118 8113 8115 8114 8112 8111 8109 8108 8108 8111 8110 8104 8111 8098 8092 
8096 8101 8096 8094 8093 8096 8098 8094 8064 8056 8095 8104 8102 8099 8098 8077 8052 8080 8097 8101 8064 8033 8027 8024 8028 8028 8032 8025 8027 8030 8031 8030 8030 8028 8027 8029 8036 8039 8040 8042 8041 8038 8044 8050 8059 8095 8112 8113 8108 8079 8047 8046 8070 8101 8108 8113 8108 8079 8053 8056 8072 8104 8114 8116 8117 8115 8114 8114 8114 8112 8111 8109 8111 8110 8107 8109 8107 8108 8100 8098 
8098 8099 8093 8092 8097 8096 8101 8085 8046 8038 8068 8096 8101 8102 8087 8048 8061 8091 8099 8092 8049 8029 8026 8027 8026 8024 8030 8027 8025 8027 8030 8032 8030 8032 8035 8037 8039 8037 8042 8039 8042 8038 8041 8042 8041 8058 8073 8103 8115 8110 8096 8078 8043 8067 8103 8109 8104 8059 8047 8044 8049 8076 8108 8115 8115 8115 8119 8115 8117 8116 8115 8109 8108 8112 8108 8107 8104 8111 8101 8097 
8097 8100 8095 8099 8097 8100 8099 8067 8039 8033 8036 8056 8083 8087 8059 8036 8039 8049 8061 8063 8042 8029 8023 8025 8023 8026 8029 8026 8025 8028 8030 8033 8031 8033 8038 8038 8034 8036 8038 8038 8042 8034 8036 8039 8041 8046 8041 8051 8073 8085 8096 8094 8035 8037 8091 8101 8071 8046 8043 8044 8047 8056 8091 8114 8116 8118 8116 8117 8116 8117 8116 8116 8111 8111 8105 8105 8104 8111 8104 8101 
8097 8104 8096 8095 8099 8103 8092 8047 8037 8030 8030 8028 8033 8032 8033 8033 8038 8037 8045 8083 8062 8025 8021 8025 8034 8053 8024 8025 8029 8029 8033 8030 8028 8031 8036 8040 8036 8034 8035 8037 8038 8035 8036 8042 8040 8044 8044 8046 8044 8046 8052 8050 8034 8030 8053 8054 8042 8044 8048 8049 8044 8054 8071 8104 8114 8112 8117 8119 8116 8119 8117 8116 8116 8114 8115 8112 8110 8113 8106 8102 
8101 8107 8102 8104 8104 8101 8077 8038 8035 8032 8030 8024 8025 8032 8054 8042 8039 8037 8034 8043 8051 8025 8022 8027 8059 8034 8022 8023 8026 8028 8028 8025 8026 8028 8028 8035 8039 8034 8034 8036 8037 8036 8040 8044 8044 8044 8045 8048 8047 8048 8049 8046 8044 8041 8040 8085 8084 8065 8051 8048 8046 8053 8058 8091 8112 8117 8118 8119 8119 8117 8116 8118 8116 8119 8120 8119 8116 8119 8111 8107 
8107 8112 8108 8109 8107 8101 8073 8037 8032 8037 8031 8029 8033 8068 8098 8087 8057 8036 8033 8029 8027 8031 8025 8023 8028 8031 8029 8025 8027 8024 8028 8025 8030 8028 8027 8029 8032 8031 8032 8034 8034 8039 8040 8045 8042 8042 8045 8047 8049 8046 8048 8046 8043 8041 8038 8067 8093 8099 8086 8061 8052 8053 8059 8075 8107 8117 8121 8119 8119 8120 8116 8116 8114 8119 8121 8116 8121 8125 8125 8115 
8108 8112 8108 8105 8106 8104 8061 8035 8033 8034 8035 8034 8057 8098 8104 8104 8098 8057 8034 8027 8027 8028 8027 8024 8024 8026 8030 8027 8027 8028 8030 8027 8029 8032 8028 8029 8032 8031 8030 8036 8035 8038 8040 8044 8041 8044 8043 8046 8044 8047 8042 8042 8038 8039 8036 8032 8044 8072 8093 8096 8062 8057 8060 8068 8097 8116 8120 8124 8120 8122 8122 8118 8118 8117 8120 8117 8121 8127 8128 8123 
8103 8108 8108 8107 8106 8100 8060 8034 8032 8031 8032 8035 8086 8104 8103 8109 8108 8096 8057 8029 8024 8028 8025 8023 8022 8025 8031 8031 8029 8030 8031 8031 8032 8033 8032 8031 8029 8034 8032 8037 8041 8036 8042 8042 8043 8044 8043 8043 8043 8043 8042 8037 8034 8036 8035 8029 8029 8030 8051 8091 8092 8067 8061 8066 8088 8115 8121 8120 8121 8120 8123 8114 8118 8117 8121 8120 8121 8130 8126 8127 
8105 8111 8104 8107 8106 8104 8060 8039 8035 8033 8033 8054 8102 8106 8108 8108 8113 8104 8058 8030 8027 8031 8026 8026 8018 8026 8028 8025 8035 8031 8032 8031 8032 8030 8036 8038 8034 8035 8040 8043 8042 8038 8042 8046 8043 8042 8043 8041 8038 8041 8044 8037 8034 8034 8034 8034 8027 8026 8028 8062 8102 8087 8064 8066 8081 8113 8121 8121 8119 8120 8121 8119 8116 8121 8123 8122 8123 8129 8130 8132 
8108 8109 8104 8110 8109 8102 8055 8039 8036 8036 8033 8075 8103 8106 8109 8106 8110 8100 8048 8028 8028 8027 8026 8027 8019 8026 8028 8031 8036 8033 8034 8033 8032 8034 8034 8035 8035 8038 8036 8038 8039 8032 8041 8044 8039 8040 8040 8037 8040 8038 8036 8038 8033 8033 8030 8032 8023 8027 8029 8046 8097 8109 8087 8067 8075 8106 8119 8118 8121 8120 8120 8119 8120 8121 8124 8124 8125 8134 8132 8128 
8105 8115 8110 8111 8114 8105 8062 8042 8040 8036 8037 8082 8109 8108 8108 8109 8112 8104 8050 8029 8029 8029 8030 8025 8022 8023 8028 8034 8035 8031 8033 8030 8031 8031 8034 8032 8034 8038 8040 8040 8036 8028 8037 8046 8040 8036 8040 8037 8038 8037 8039 8037 8034 8034 8029 8034 8031 8032 8032 8050 8099 8112 8112 8085 8080 8108 8119 8118 8118 8118 8120 8117 8118 8123 8128 8126 8130 8137 8136 8134 
8106 8115 8110 8110 8106 8104 8060 8045 8042 8041 8042 8086 8110 8108 8109 8110 8110 8103 8058 8029 8026 8033 8041 8044 8025 8025 8030 8030 8031 8034 8034 8031 8032 8030 8027 8029 8030 8036 8039 8039 8037 8030 8035 8044 8041 8038 8041 8039 8031 8037 8036 8034 8032 8033 8030 8036 8034 8037 8042 8079 8108 8111 8115 8109 8103 8112 8118 8117 8117 8115 8119 8117 8119 8125 8128 8128 8132 8141 8139 8138 
8106 8114 8110 8112 8112 8107 8083 8049 8044 8041 8049 8096 8109 8108 8107 8109 8111 8105 8050 8032 8031 8059 8089 8060 8026 8027 8031 8029 8029 8031 8034 8029 8029 8034 8029 8031 8030 8033 8036 8035 8034 8031 8031 8038 8041 8039 8042 8039 8030 8033 8038 8038 8037 8039 8035 8036 8042 8052 8082 8109 8112 8111 8114 8115 8116 8117 8118 8116 8115 8116 8119 8117 8120 8124 8124 8127 8130 8139 8139 8139 
8105 8116 8111 8113 8114 8111 8106 8077 8057 8048 8066 8105 8109 8109 8109 8108 8111 8106 8094 8076 8081 8103 8103 8065 8033 8034 8023 8026 8034 8034 8035 8031 8033 8034 8032 8030 8030 8039 8038 8034 8036 8031 8028 8038 8040 8043 8044 8040 8036 8036 8036 8035 8038 8037 8037 8053 8081 8101 8110 8114 8114 8113 8114 8116 8116 8116 8116 8115 8114 8116 8115 8117 8118 8126 8126 8127 8130 8139 8141 8135 
8106 8117 8110 8115 8113 8116 8113 8109 8094 8094 8104 8108 8109 8108 8106 8113 8115 8109 8107 8106 8103 8110 8108 8070 8039 8038 8029 8034 8035 8035 8034 8034 8035 8033 8031 8033 8030 8036 8038 8041 8038 8029 8027 8032 8041 8042 8043 8042 8037 8037 8035 8036 8038 8043 8042 8062 8102 8109 8112 8114 8113 8114 8112 8116 8116 8115 8118 8114 8112 8115 8117 8117 8122 8127 8129 8128 8132 8140 8133 8137 
8112 8119 8112 8113 8114 8115 8112 8115 8114 8116 8112 8112 8108 8107 8108 8112 8111 8111 8107 8107 8108 8110 8106 8073 8039 8037 8035 8034 8037 8037 8035 8035 8036 8031 8032 8034 8033 8036 8039 8041 8038 8030 8028 8029 8034 8040 8044 8041 8041 8037 8038 8040 8040 8045 8047 8088 8106 8109 8112 8112 8110 8112 8111 8116 8115 8117 8114 8115 8114 8116 8117 8117 8121 8128 8130 8129 8132 8141 8139 8138 
8115 8121 8117 8117 8114 8117 8118 8116 8115 8115 8115 8116 8109 8111 8107 8108 8110 8113 8112 8109 8107 8107 8102 8073 8032 8030 8030 8034 8034 8038 8040 8034 8034 8032 8038 8038 8038 8041 8039 8044 8040 8032 8033 8030 8032 8035 8041 8046 8045 8044 8039 8036 8040 8045 8061 8102 8109 8109 8113 8112 8112 8113 8112 8115 8115 8112 8114 8113 8116 8117 8119 8120 8123 8130 8131 8131 8132 8143 8142 8142 
8117 8123 8119 8121 8116 8119 8116 8122 8119 8117 8118 8115 8111 8111 8112 8109 8114 8114 8114 8112 8108 8109 8103 8090 8040 8031 8030 8036 8038 8040 8033 8031 8031 8033 8037 8037 8040 8045 8046 8047 8043 8036 8035 8034 8039 8039 8041 8048 8047 8046 8043 8043 8043 8045 8087 8104 8109 8109 8114 8114 8109 8114 8114 8113 8114 8115 8115 8118 8116 8122 8118 8118 8122 8125 8128 8128 8134 8140 8144 8140 
8121 8127 8120 8117 8119 8118 8121 8124 8120 8111 8113 8114 8113 8113 8114 8111 8119 8115 8116 8114 8108 8109 8104 8097 8063 8032 8033 8037 8036 8037 8033 8028 8039 8034 8036 8037 8040 8045 8044 8045 8044 8043 8041 8041 8040 8040 8040 8046 8046 8042 8044 8045 8043 8046 8087 8105 8107 8110 8110 8115 8115 8113 8112 8114 8115 8115 8114 8114 8117 8118 8120 8121 8119 8127 8129 8132 8130 8143 8140 8137 
8122 8129 8122 8120 8116 8118 8123 8122 8124 8118 8118 8115 8111 8110 8111 8115 8119 8114 8114 8115 8111 8111 8105 8102 8088 8041 8037 8039 8034 8037 8035 8038 8046 8037 8037 8040 8038 8041 8041 8044 8043 8035 8038 8044 8040 8043 8045 8046 8045 8044 8043 8043 8046 8045 8078 8104 8110 8111 8113 8117 8114 8114 8114 8112 8115 8116 8113 8113 8115 8115 8119 8118 8121 8125 8134 8130 8133 8144 8140 8137 
8125 8131 8124 8122 8121 8122 8120 8123 8125 8120 8119 8116 8115 8111 8111 8111 8111 8111 8112 8113 8110 8112 8104 8100 8098 8057 8038 8039 8039 8037 8042 8040 8042 8042 8038 8041 8037 8039 8039 8038 8039 8035 8036 8041 8041 8043 8042 8041 8042 8042 8042 8043 8041 8046 8078 8107 8111 8114 8114 8116 8113 8112 8115 8114 8114 8114 8115 8115 8117 8116 8118 8119 8123 8127 8133 8134 8133 8138 8139 8136 
8123 8130 8125 8122 8123 8120 8122 8121 8123 8123 8121 8117 8116 8111 8109 8107 8115 8112 8112 8112 8113 8113 8108 8106 8099 8054 8040 8039 8042 8042 8042 8044 8044 8044 8039 8036 8036 8039 8037 8039 8038 8034 8036 8039 8039 8041 8044 8039 8043 8042 8040 8035 8039 8052 8098 8112 8108 8113 8116 8117 8116 8112 8112 8113 8116 8114 8116 8116 8115 8116 8117 8117 8120 8128 8130 8132 8129 8137 8133 8131 
8121 8133 8129 8126 8123 8121 8120 8122 8120 8121 8120 8117 8111 8109 8107 8107 8111 8110 8111 8112 8111 8114 8111 8110 8097 8057 8038 8039 8039 8042 8047 8048 8046 8040 8035 8037 8037 8042 8040 8039 8037 8035 8038 8040 8037 8040 8042 8042 8039 8039 8039 8039 8042 8071 8105 8109 8108 8111 8112 8112 8114 8112 8111 8111 8113 8114 8116 8117 8117 8115 8117 8120 8122 8126 8126 8130 8130 8136 8131 8132 
8119 8128 8126 8121 8116 8123 8118 8119 8118 8120 8118 8116 8111 8111 8111 8108 8113 8113 8112 8114 8111 8114 8112 8107 8101 8062 8039 8038 8044 8045 8046 8044 8039 8039 8037 8038 8040 8041 8042 8040 8043 8037 8037 8039 8038 8038 8038 8044 8047 8050 8048 8043 8055 8104 8111 8112 8112 8111 8113 8114 8113 8112 8115 8114 8116 8115 8115 8114 8114 8117 8117 8122 8121 8124 8126 8123 8129 8135 8130 8130 
8117 8130 8119 8117 8117 8117 8115 8117 8120 8118 8120 8115 8112 8111 8109 8112 8113 8113 8110 8111 8111 8112 8110 8106 8103 8083 8042 8040 8044 8042 8042 8041 8034 8034 8037 8039 8044 8046 8045 8040 8042 8036 8041 8039 8040 8044 8041 8051 8062 8069 8066 8053 8084 8109 8110 8114 8112 8116 8116 8116 8117 8116 8117 8116 8115 8119 8114 8112 8116 8115 8119 8117 8120 8122 8124 8126 8126 8136 8133 8132 
8117 8123 8121 8119 8116 8119 8119 8119 8124 8122 8122 8115 8115 8110 8110 8109 8112 8111 8110 8113 8113 8114 8112 8110 8106 8098 8048 8039 8041 8044 8048 8039 8036 8034 8035 8044 8045 8050 8049 8046 8047 8043 8043 8045 8047 8054 8059 8067 8076 8077 8070 8071 8102 8111 8113 8115 8113 8115 8114 8119 8117 8118 8120 8122 8118 8117 8115 8112 8114 8114 8118 8117 8116 8121 8123 8126 8128 8136 8130 8129 
8122 8126 8119 8120 8118 8120 8119 8118 8122 8122 8121 8118 8117 8113 8110 8111 8115 8108 8107 8110 8109 8115 8113 8112 8110 8102 8074 8040 8041 8046 8053 8057 8059 8050 8043 8044 8046 8055 8051 8050 8052 8045 8043 8049 8056 8068 8070 8072 8074 8079 8084 8094 8109 8116 8112 8114 8116 8115 8117 8121 8119 8121 8120 8121 8118 8118 8114 8112 8112 8117 8120 8115 8120 8121 8123 8119 8123 8133 8126 8128 
8124 8129 8118 8117 8121 8119 8118 8115 8125 8122 8122 8120 8115 8115 8114 8113 8117 8110 8104 8106 8106 8109 8112 8114 8112 8105 8093 8052 8046 8053 8068 8073 8068 8068 8070 8062 8051 8048 8054 8052 8049 8046 8045 8052 8069 8072 8076 8078 8073 8080 8090 8104 8112 8113 8110 8112 8117 8118 8120 8118 8119 8120 8120 8118 8120 8118 8117 8117 8119 8114 8116 8114 8117 8119 8120 8118 8120 8133 8128 8124 
8121 8123 8116 8117 8116 8117 8116 8116 8121 8122 8119 8116 8118 8115 8114 8115 8116 8110 8104 8104 8104 8107 8109 8108 8108 8109 8106 8073 8050 8057 8077 8070 8077 8087 8082 8071 8059 8051 8054 8052 8051 8050 8051 8064 8068 8072 8087 8078 8077 8083 8103 8111 8111 8114 8108 8108 8112 8117 8118 8122 8115 8117 8117 8115 8118 8117 8119 8115 8117 8116 8116 8115 8115 8120 8115 8120 8121 8129 8120 8121 
8121 8127 8120 8118 8120 8120 8120 8123 8123 8119 8120 8121 8119 8117 8113 8114 8122 8113 8106 8107 8102 8109 8104 8109 8109 8112 8109 8096 8056 8082 8087 8080 8082 8092 8082 8063 8068 8065 8053 8051 8057 8057 8061 8066 8069 8078 8077 8079 8086 8098 8112 8111 8111 8111 8107 8110 8110 8115 8117 8116 8113 8116 8116 8115 8116 8117 8116 8114 8115 8115 8116 8116 8113 8117 8120 8117 8121 8129 8119 8119 
8123 8129 8122 8122 8120 8120 8123 8122 8130 8127 8124 8121 8117 8115 8115 8114 8119 8115 8110 8109 8107 8107 8105 8109 8113 8113 8110 8109 8093 8105 8103 8088 8077 8064 8056 8055 8069 8076 8071 8060 8066 8082 8074 8072 8074 8073 8081 8090 8101 8107 8117 8114 8112 8111 8111 8110 8116 8114 8114 8117 8113 8114 8116 8115 8117 8115 8117 8115 8116 8114 8112 8118 8117 8123 8120 8122 8119 8129 8122 8122 
8118 8122 8123 8121 8120 8123 8124 8127 8126 8126 8123 8122 8122 8111 8114 8115 8118 8115 8112 8109 8105 8105 8107 8108 8111 8115 8117 8112 8109 8109 8106 8085 8056 8053 8056 8056 8058 8092 8102 8087 8081 8092 8084 8079 8082 8085 8097 8106 8112 8113 8118 8119 8116 8115 8111 8114 8114 8114 8115 8115 8112 8115 8114 8116 8114 8114 8114 8111 8114 8114 8118 8115 8118 8123 8119 8120 8117 8128 8119 8122 
8117 8121 8122 8122 8121 8126 8126 8124 8126 8124 8127 8123 8120 8117 8118 8113 8118 8115 8116 8115 8107 8111 8110 8110 8114 8118 8119 8116 8107 8095 8072 8053 8052 8052 8054 8059 8060 8072 8095 8100 8095 8091 8095 8094 8098 8106 8113 8114 8115 8116 8121 8123 8122 8121 8116 8116 8117 8115 8112 8118 8115 8117 8118 8116 8118 8112 8113 8114 8116 8114 8116 8117 8119 8123 8123 8122 8121 8128 8125 8123 
8121 8124 8118 8120 8125 8122 8133 8125 8124 8122 8130 8124 8122 8119 8117 8118 8120 8117 8114 8114 8111 8115 8110 8112 8118 8117 8113 8095 8059 8057 8055 8054 8056 8057 8057 8059 8057 8062 8101 8110 8113 8113 8115 8114 8108 8114 8116 8118 8119 8121 8120 8120 8121 8122 8116 8116 8119 8115 8118 8116 8120 8119 8115 8115 8112 8114 8115 8113 8116 8113 8116 8119 8120 8121 8127 8118 8119 8126 8123 8122 
8121 8123 8117 8122 8123 8126 8120 8126 8122 8121 8121 8118 8118 8117 8115 8114 8118 8119 8116 8114 8114 8114 8119 8117 8119 8119 8108 8064 8055 8054 8056 8054 8056 8053 8056 8057 8055 8059 8076 8105 8118 8118 8118 8119 8115 8114 8118 8121 8120 8121 8124 8121 8121 8120 8115 8116 8114 8116 8113 8113 8116 8117 8113 8112 8113 8114 8113 8115 8112 8116 8118 8119 8116 8124 8122 8121 8117 8125 8120 8120 
8123 8126 8126 8124 8127 8122 8124 8123 8128 8125 8119 8119 8119 8118 8117 8117 8119 8116 8117 8120 8118 8122 8122 8121 8120 8118 8096 8056 8051 8058 8058 8054 8054 8054 8057 8061 8058 8061 8064 8068 8100 8116 8118 8119 8117 8116 8120 8121 8121 8123 8120 8122 8122 8119 8117 8114 8114 8117 8117 8118 8117 8115 8117 8112 8114 8114 8113 8112 8115 8114 8114 8113 8118 8123 8118 8115 8113 8120 8116 8113 
8125 8131 8123 8123 8130 8127 8126 8130 8124 8128 8120 8118 8120 8119 8116 8115 8117 8120 8119 8116 8115 8120 8121 8124 8122 8118 8103 8055 8050 8056 8057 8054 8058 8051 8057 8062 8064 8062 8062 8061 8067 8099 8113 8121 8116 8117 8120 8120 8123 8125 8128 8123 8121 8123 8118 8117 8117 8115 8117 8119 8117 8113 8114 8112 8111 8110 8111 8115 8111 8117 8117 8115 8113 8120 8118 8111 8112 8120 8113 8111 
8129 8131 8131 8128 8127 8126 8129 8127 8129 8129 8124 8124 8121 8119 8116 8116 8119 8114 8118 8118 8120 8124 8122 8124 8123 8120 8107 8063 8052 8052 8056 8060 8054 8050 8057 8061 8065 8066 8064 8063 8061 8070 8110 8120 8120 8118 8119 8121 8126 8124 8124 8125 8124 8123 8121 8119 8116 8116 8113 8115 8113 8113 8114 8110 8111 8107 8109 8108 8111 8114 8113 8114 8114 8115 8115 8110 8109 8114 8112 8108 
8119 8132 8127 8128 8122 8129 8127 8127 8124 8128 8125 8121 8119 8117 8113 8114 8117 8117 8112 8116 8119 8124 8122 8118 8120 8111 8115 8083 8051 8053 8061 8061 8053 8051 8053 8057 8060 8068 8066 8068 8066 8059 8090 8118 8119 8112 8118 8125 8122 8124 8123 8123 8119 8120 8115 8113 8115 8115 8113 8114 8110 8111 8112 8107 8107 8108 8107 8110 8108 8112 8110 8110 8111 8108 8115 8108 8111 8113 8109 8106 
8122 8133 8131 8123 8122 8124 8129 8125 8130 8135 8128 8121 8120 8119 8116 8113 8112 8114 8118 8116 8116 8122 8123 8125 8120 8113 8114 8103 8062 8056 8058 8052 8055 8053 8054 8058 8058 8062 8064 8066 8066 8058 8079 8114 8116 8115 8120 8121 8124 8124 8124 8119 8116 8118 8116 8116 8113 8118 8111 8112 8111 8109 8108 8105 8105 8106 8107 8105 8109 8110 8115 8109 8108 8110 8110 8105 8104 8110 8105 8106 
8118 8135 8127 8117 8120 8118 8125 8122 8127 8127 8124 8117 8114 8115 8116 8111 8113 8115 8116 8116 8114 8117 8117 8121 8120 8118 8123 8118 8084 8059 8055 8054 8053 8052 8048 8054 8058 8064 8060 8064 8067 8059 8077 8116 8118 8117 8119 8127 8122 8123 8123 8116 8118 8116 8110 8112 8113 8111 8110 8109 8105 8105 8105 8103 8104 8105 8104 8107 8106 8108 8109 8108 8107 8104 8108 8106 8103 8106 8102 8103 
8127 8121 8113 8113 8119 8120 8114 8124 8128 8124 8122 8116 8114 8111 8110 8107 8109 8110 8111 8112 8110 8115 8117 8118 8122 8125 8122 8124 8112 8071 8056 8048 8047 8050 8048 8051 8054 8071 8060 8063 8060 8061 8087 8117 8118 8117 8121 8121 8123 8120 8120 8113 8114 8115 8110 8108 8108 8109 8108 8108 8104 8105 8104 8103 8105 8103 8105 8109 8112 8109 8111 8106 8107 8104 8105 8106 8101 8103 8100 8102 
8127 8115 8115 8116 8118 8116 8116 8117 8123 8123 8122 8114 8113 8107 8105 8105 8107 8103 8108 8114 8111 8115 8117 8121 8122 8124 8124 8123 8116 8084 8058 8050 8049 8045 8048 8050 8050 8057 8061 8063 8061 8061 8100 8113 8119 8115 8117 8120 8118 8116 8116 8113 8109 8108 8107 8110 8110 8108 8108 8107 8105 8106 8103 8102 8107 8107 8107 8108 8109 8111 8115 8109 8110 8106 8109 8099 8100 8104 8105 8103 


