P2
80 60
8299
8240 8229 8241 8237 8250 8243 8240 8241 8249 8248 8247 8247 8243 8242 8245 8246 8246 8244 8245 8246 8253 8258 8252 8248 8252 8260 8255 8251 8255 8252 8257 8257 8257 8257 8251 8248 8247 8246 8246 8253 8257 8254 8255 8253 8257 8260 8260 8255 8252 8253 8251 8255 8252 8245 8245 8248 8247 8245 8250 8255 8250 8249 8255 8255 8257 8257 8261 8261 8264 8269 8267 8269 8271 8273 8273 8274 8267 8267 8267 8265 
8234 8239 8248 8242 8246 8242 8236 8242 8240 8251 8241 8244 8239 8242 8240 8243 8242 8241 8242 8252 8255 8257 8253 8247 8256 8247 8243 8245 8255 8248 8248 8255 8255 8252 8241 8243 8239 8248 8252 8251 8254 8255 8250 8254 8254 8257 8256 8252 8248 8249 8247 8251 8251 8248 8242 8250 8249 8244 8247 8248 8250 8249 8257 8247 8255 8253 8259 8259 8262 8268 8266 8258 8269 8270 8271 8266 8271 8263 8266 8258 
8223 8224 8235 8228 8240 8234 8234 8242 8239 8246 8244 8239 8231 8239 8242 8240 8243 8243 8237 8249 8248 8254 8249 8244 8248 8254 8247 8247 8252 8242 8245 8250 8245 8255 8245 8241 8238 8245 8246 8249 8250 8248 8246 8256 8253 8256 8253 8252 8245 8247 8247 8245 8245 8249 8252 8247 8246 8248 8247 8241 8251 8251 8244 8252 8246 8248 8256 8254 8261 8265 8256 8254 8261 8261 8263 8257 8270 8257 8258 8261 
8235 8221 8247 8227 8239 8231 8243 8243 8245 8242 8233 8228 8238 8237 8236 8238 8239 8242 8238 8244 8244 8243 8232 8245 8250 8251 8250 8252 8251 8252 8243 8251 8251 8246 8249 8238 8245 8246 8244 8250 8249 8249 8251 8249 8253 8250 8256 8249 8246 8243 8245 8243 8249 8243 8247 8247 8244 8242 8245 8240 8248 8251 8239 8250 8244 8239 8249 8251 8257 8262 8252 8259 8258 8262 8262 8256 8269 8260 8260 8262 
8235 8223 8242 8230 8236 8236 8241 8236 8237 8241 8232 8225 8229 8235 8229 8238 8237 8233 8244 8241 8242 8247 8237 8240 8245 8248 8246 8244 8246 8247 8246 8251 8250 8244 8244 8243 8242 8240 8244 8247 8251 8251 8247 8245 8247 8244 8246 8245 8242 8247 8245 8243 8247 8244 8247 8243 8241 8247 8246 8245 8248 8251 8244 8246 8241 8241 8239 8237 8254 8253 8247 8258 8253 8260 8248 8256 8264 8257 8258 8262 
8245 8226 8232 8227 8232 8234 8243 8241 8238 8239 8223 8232 8237 8229 8230 8232 8238 8229 8241 8247 8243 8239 8245 8239 8247 8252 8249 8244 8242 8246 8252 8251 8245 8240 8242 8244 8241 8240 8241 8249 8251 8249 8253 8244 8246 8248 8246 8249 8239 8243 8245 8244 8249 8244 8243 8248 8246 8247 8247 8249 8245 8245 8245 8244 8236 8244 8241 8234 8245 8255 8252 8250 8258 8245 8243 8248 8256 8244 8252 8277 
8244 8234 8236 8240 8239 8231 8246 8248 8240 8229 8224 8240 8235 8225 8230 8235 8232 8233 8241 8248 8241 8243 8243 8243 8249 8250 8235 8239 8240 8245 8250 8250 8246 8243 8241 8242 8237 8238 8243 8248 8249 8249 8252 8249 8250 8247 8252 8244 8244 8243 8242 8239 8246 8245 8245 8248 8240 8241 8244 8248 8240 8244 8244 8244 8238 8243 8247 8253 8236 8240 8251 8253 8248 8244 8250 8248 8245 8243 8253 8264 
8239 8235 8229 8240 8232 8235 8243 8250 8246 8223 8240 8241 8233 8227 8238 8235 8234 8239 8237 8240 8247 8244 8245 8249 8248 8249 8234 8243 8241 8250 8249 8249 8247 8247 8242 8241 8236 8239 8240 8248 8248 8246 8253 8250 8246 8247 8248 8243 8240 8240 8238 8236 8248 8241 8242 8244 8243 8244 8239 8242 8237 8242 8245 8243 8238 8248 8250 8252 8240 8239 8241 8244 8250 8244 8246 8244 8245 8246 8253 8258 
8244 8233 8231 8237 8238 8235 8248 8244 8244 8229 8235 8232 8228 8232 8226 8232 8234 8232 8241 8245 8244 8241 8238 8244 8235 8245 8235 8241 8240 8241 8244 8244 8242 8240 8243 8238 8236 8234 8234 8244 8244 8245 8243 8245 8245 8249 8241 8242 8239 8234 8236 8239 8244 8238 8245 8239 8241 8242 8237 8237 8235 8235 8235 8234 8233 8233 8240 8247 8237 8244 8238 8233 8234 8238 8238 8242 8243 8241 8240 8243 
8244 8225 8240 8239 8237 8241 8231 8244 8240 8236 8233 8235 8231 8230 8229 8226 8238 8235 8243 8248 8240 8237 8241 8238 8231 8239 8240 8242 8242 8236 8242 8242 8240 8239 8238 8220 8202 8226 8229 8235 8232 8230 8234 8232 8236 8244 8244 8246 8237 8236 8237 8244 8247 8238 8242 8234 8243 8239 8239 8237 8239 8238 8238 8237 8233 8231 8233 8239 8231 8243 8240 8239 8237 8236 8238 8234 8242 8238 8237 8238 
8243 8226 8237 8233 8234 8239 8230 8242 8244 8234 8237 8230 8230 8230 8229 8229 8234 8228 8225 8236 8242 8240 8240 8242 8237 8233 8242 8242 8243 8241 8242 8237 8232 8241 8225 8189 8182 8194 8200 8197 8196 8193 8189 8205 8208 8226 8239 8239 8240 8235 8237 8235 8241 8240 8238 8230 8242 8230 8240 8237 8235 8233 8241 8232 8226 8231 8240 8235 8230 8234 8230 8234 8228 8227 8228 8223 8230 8226 8232 8229 
8241 8236 8238 8233 8229 8233 8231 8242 8240 8234 8237 8230 8230 8228 8230 8231 8230 8228 8229 8245 8245 8243 8231 8240 8240 8241 8239 8240 8243 8239 8242 8240 8232 8238 8207 8179 8184 8182 8191 8185 8187 8190 8187 8194 8192 8196 8203 8225 8235 8234 8242 8243 8242 8242 8239 8235 8236 8229 8239 8239 8233 8232 8235 8230 8227 8230 8239 8232 8232 8227 8234 8230 8228 8230 8219 8223 8232 8226 8226 8227 
8238 8230 8230 8224 8225 8235 8235 8229 8235 8235 8231 8227 8227 8227 8232 8236 8229 8234 8234 8238 8235 8241 8231 8232 8239 8236 8227 8239 8238 8233 8248 8234 8232 8225 8184 8177 8189 8189 8180 8178 8182 8182 8196 8197 8192 8190 8193 8206 8220 8224 8229 8233 8239 8240 8242 8232 8238 8233 8234 8235 8234 8228 8235 8225 8230 8231 8235 8230 8234 8220 8223 8224 8225 8226 8222 8224 8235 8223 8222 8217 
8244 8240 8242 8235 8238 8236 8238 8241 8229 8237 8236 8233 8226 8226 8236 8228 8235 8235 8237 8241 8239 8238 8234 8236 8235 8236 8236 8232 8227 8229 8239 8220 8217 8184 8164 8182 8185 8188 8181 8180 8180 8182 8187 8190 8190 8191 8189 8190 8181 8173 8173 8206 8242 8246 8247 8235 8240 8235 8239 8236 8232 8229 8231 8230 8234 8236 8232 8230 8232 8232 8227 8230 8228 8231 8222 8232 8229 8234 8227 8219 
8249 8228 8242 8238 8235 8236 8233 8239 8235 8231 8234 8233 8231 8232 8236 8233 8233 8229 8239 8240 8228 8237 8230 8236 8229 8226 8213 8201 8195 8188 8186 8179 8171 8163 8158 8159 8184 8186 8177 8171 8176 8179 8181 8186 8182 8182 8182 8176 8163 8160 8183 8222 8244 8247 8239 8242 8237 8238 8236 8238 8234 8228 8229 8233 8233 8235 8235 8230 8229 8228 8231 8232 8232 8227 8224 8221 8226 8225 8224 8217 
8249 8219 8229 8237 8236 8228 8232 8238 8233 8237 8235 8229 8225 8228 8235 8236 8235 8232 8240 8242 8227 8230 8229 8231 8210 8190 8184 8178 8175 8175 8176 8166 8158 8155 8151 8165 8178 8183 8180 8176 8185 8180 8179 8188 8183 8182 8182 8178 8161 8182 8210 8235 8242 8245 8237 8243 8237 8237 8236 8239 8234 8229 8230 8231 8237 8237 8228 8229 8227 8230 8230 8226 8227 8225 8223 8225 8228 8225 8221 8218 
8247 8219 8229 8236 8232 8227 8230 8231 8236 8237 8232 8232 8224 8230 8225 8234 8227 8235 8235 8234 8222 8229 8228 8220 8184 8175 8184 8215 8198 8169 8175 8169 8153 8152 8145 8145 8174 8182 8181 8177 8185 8179 8175 8181 8183 8183 8184 8177 8191 8226 8235 8238 8243 8236 8230 8235 8233 8232 8234 8236 8233 8228 8230 8230 8233 8230 8231 8232 8227 8226 8225 8224 8227 8227 8226 8226 8223 8224 8224 8219 
8243 8230 8234 8227 8232 8236 8235 8237 8233 8242 8236 8230 8234 8234 8236 8236 8230 8228 8225 8219 8213 8212 8212 8185 8170 8179 8182 8172 8152 8171 8174 8156 8152 8152 8151 8184 8186 8182 8185 8182 8182 8180 8180 8178 8183 8186 8187 8186 8207 8231 8234 8242 8237 8239 8232 8238 8228 8229 8232 8235 8230 8229 8232 8232 8232 8231 8235 8233 8231 8227 8224 8232 8233 8229 8229 8230 8223 8222 8220 8219 
8244 8228 8236 8231 8230 8231 8238 8240 8242 8234 8234 8232 8234 8230 8231 8228 8219 8210 8197 8185 8182 8191 8187 8172 8164 8164 8168 8154 8147 8163 8160 8162 8157 8153 8158 8202 8193 8183 8187 8187 8191 8182 8182 8187 8185 8184 8184 8199 8194 8222 8236 8237 8236 8237 8227 8230 8237 8231 8233 8236 8226 8227 8236 8233 8231 8222 8231 8223 8228 8229 8229 8230 8231 8223 8225 8226 8223 8220 8224 8228 
8239 8226 8235 8232 8228 8237 8240 8240 8240 8233 8241 8235 8231 8227 8227 8212 8197 8187 8170 8181 8169 8184 8184 8168 8161 8154 8160 8152 8155 8160 8159 8157 8151 8155 8153 8156 8178 8193 8185 8191 8190 8184 8185 8186 8184 8181 8183 8191 8194 8213 8231 8240 8235 8235 8239 8234 8239 8237 8233 8229 8227 8224 8236 8236 8233 8224 8226 8228 8230 8230 8228 8232 8229 8226 8228 8232 8226 8225 8227 8223 
8241 8232 8226 8223 8221 8230 8229 8240 8240 8235 8233 8236 8227 8212 8181 8188 8187 8183 8153 8166 8155 8160 8169 8164 8149 8156 8161 8161 8154 8158 8155 8157 8156 8156 8156 8153 8147 8153 8183 8191 8190 8185 8188 8185 8180 8184 8189 8191 8188 8194 8219 8234 8236 8235 8238 8238 8233 8234 8233 8229 8229 8230 8232 8233 8229 8227 8228 8234 8230 8229 8230 8230 8227 8228 8229 8230 8224 8223 8227 8223 
8241 8235 8231 8237 8234 8235 8220 8237 8228 8235 8229 8225 8230 8220 8177 8179 8179 8181 8166 8164 8156 8158 8157 8162 8157 8157 8166 8169 8159 8151 8151 8147 8159 8162 8159 8158 8155 8169 8188 8183 8182 8180 8178 8177 8181 8189 8197 8216 8203 8181 8209 8235 8234 8235 8237 8236 8232 8236 8229 8229 8229 8228 8235 8229 8230 8232 8229 8231 8230 8230 8228 8227 8227 8224 8232 8226 8226 8225 8227 8230 
8243 8230 8234 8237 8236 8230 8223 8222 8227 8234 8234 8216 8214 8218 8187 8176 8176 8174 8167 8170 8161 8169 8163 8165 8160 8159 8159 8165 8168 8160 8157 8154 8156 8161 8157 8156 8153 8154 8171 8166 8172 8177 8176 8176 8171 8177 8169 8198 8214 8201 8195 8231 8233 8236 8236 8233 8234 8231 8227 8223 8231 8230 8234 8227 8229 8228 8229 8233 8227 8229 8228 8227 8228 8223 8229 8227 8227 8227 8230 8235 
8244 8234 8236 8234 8235 8235 8234 8224 8232 8227 8217 8187 8186 8186 8182 8179 8185 8188 8182 8193 8180 8176 8175 8165 8156 8153 8156 8152 8165 8158 8159 8167 8164 8160 8150 8147 8154 8159 8162 8169 8169 8172 8171 8170 8177 8176 8175 8172 8187 8227 8212 8223 8232 8232 8237 8232 8236 8239 8223 8230 8225 8230 8237 8232 8237 8233 8230 8232 8226 8229 8225 8224 8229 8225 8229 8226 8227 8226 8230 8235 
8243 8221 8237 8238 8235 8232 8229 8235 8223 8189 8180 8183 8188 8183 8187 8190 8194 8194 8186 8182 8181 8178 8181 8174 8162 8157 8158 8155 8157 8153 8170 8163 8159 8159 8147 8142 8155 8160 8160 8168 8164 8174 8176 8179 8174 8175 8179 8177 8176 8209 8229 8231 8226 8229 8229 8229 8236 8236 8234 8233 8225 8229 8230 8232 8231 8230 8230 8234 8228 8230 8229 8227 8227 8225 8229 8224 8224 8222 8231 8238 
8246 8223 8233 8238 8234 8227 8233 8218 8186 8178 8184 8190 8189 8189 8193 8191 8193 8188 8180 8177 8180 8178 8183 8171 8158 8153 8157 8158 8160 8158 8164 8165 8153 8158 8153 8149 8157 8164 8180 8157 8159 8164 8169 8176 8171 8169 8176 8174 8179 8185 8209 8214 8204 8204 8191 8188 8213 8227 8227 8237 8230 8224 8226 8230 8227 8231 8232 8232 8227 8221 8222 8228 8229 8228 8226 8226 8221 8223 8229 8237 
8240 8230 8227 8233 8227 8232 8229 8199 8180 8185 8180 8192 8185 8190 8188 8189 8190 8187 8190 8183 8184 8182 8177 8176 8177 8161 8170 8164 8163 8162 8164 8161 8154 8159 8157 8156 8154 8156 8175 8169 8154 8155 8157 8175 8186 8175 8173 8170 8176 8183 8188 8202 8188 8193 8194 8188 8192 8219 8225 8231 8226 8224 8231 8228 8227 8229 8230 8227 8223 8226 8226 8223 8227 8223 8224 8227 8229 8223 8228 8236 
8243 8235 8240 8238 8237 8224 8221 8183 8178 8186 8176 8185 8189 8185 8187 8187 8186 8188 8192 8183 8190 8186 8181 8174 8185 8172 8172 8178 8167 8163 8162 8168 8161 8161 8158 8159 8159 8169 8158 8175 8164 8155 8155 8172 8180 8181 8182 8176 8181 8182 8180 8211 8216 8213 8204 8193 8191 8197 8220 8234 8230 8231 8232 8231 8235 8233 8235 8224 8223 8225 8227 8223 8227 8226 8227 8231 8235 8223 8231 8232 
8242 8228 8233 8237 8229 8230 8203 8183 8188 8188 8181 8190 8198 8183 8189 8176 8178 8189 8182 8183 8184 8185 8177 8170 8159 8176 8174 8184 8173 8165 8163 8164 8162 8163 8154 8159 8177 8180 8179 8173 8163 8163 8166 8175 8176 8177 8185 8183 8179 8179 8179 8188 8222 8234 8228 8212 8197 8192 8203 8217 8228 8224 8229 8231 8233 8230 8230 8224 8219 8223 8225 8222 8218 8218 8225 8226 8228 8235 8232 8234 
8238 8227 8236 8236 8230 8216 8192 8184 8185 8179 8187 8201 8188 8184 8176 8175 8170 8188 8185 8186 8181 8184 8169 8162 8161 8184 8172 8188 8174 8168 8168 8161 8164 8162 8167 8172 8178 8184 8180 8176 8176 8166 8172 8180 8175 8175 8174 8176 8168 8171 8181 8185 8216 8236 8235 8233 8217 8190 8189 8199 8222 8225 8235 8230 8235 8232 8231 8226 8220 8222 8224 8225 8222 8219 8232 8222 8226 8234 8232 8234 
8246 8231 8232 8232 8215 8197 8205 8213 8186 8176 8192 8184 8183 8184 8178 8174 8178 8179 8182 8179 8176 8182 8179 8170 8154 8189 8169 8195 8184 8170 8169 8167 8165 8166 8178 8195 8206 8211 8203 8192 8189 8182 8173 8177 8180 8178 8174 8181 8173 8177 8176 8175 8192 8210 8223 8226 8225 8207 8195 8191 8209 8224 8236 8237 8236 8230 8231 8227 8223 8223 8222 8227 8225 8232 8231 8223 8237 8231 8236 8240 
8245 8228 8229 8224 8189 8214 8224 8221 8191 8181 8181 8190 8185 8174 8174 8175 8181 8182 8182 8186 8181 8216 8219 8217 8181 8195 8171 8166 8169 8177 8165 8167 8169 8163 8192 8210 8208 8203 8209 8202 8185 8190 8177 8185 8184 8184 8179 8188 8186 8185 8180 8168 8169 8165 8173 8196 8223 8229 8211 8200 8200 8229 8231 8233 8232 8231 8230 8225 8226 8225 8227 8231 8230 8226 8227 8228 8233 8230 8240 8244 
8246 8234 8225 8207 8192 8225 8227 8216 8190 8185 8182 8190 8173 8172 8170 8172 8181 8181 8181 8179 8179 8224 8219 8223 8204 8183 8171 8156 8167 8179 8162 8166 8175 8164 8192 8208 8207 8203 8211 8207 8196 8196 8186 8185 8186 8182 8185 8185 8182 8178 8180 8170 8166 8166 8163 8161 8199 8226 8226 8207 8201 8214 8227 8230 8232 8231 8229 8225 8229 8227 8229 8229 8223 8222 8227 8230 8228 8230 8236 8239 
8249 8229 8235 8200 8216 8231 8226 8201 8189 8183 8187 8185 8172 8173 8170 8173 8184 8183 8177 8169 8171 8209 8214 8200 8172 8166 8163 8165 8167 8180 8170 8173 8160 8170 8199 8210 8210 8212 8211 8217 8214 8200 8192 8186 8188 8183 8180 8179 8180 8177 8185 8179 8173 8168 8161 8158 8161 8208 8223 8220 8207 8202 8226 8230 8233 8231 8233 8227 8229 8232 8233 8231 8223 8233 8236 8230 8229 8237 8238 8243 
8250 8233 8232 8203 8229 8229 8227 8193 8188 8186 8182 8181 8177 8168 8170 8174 8177 8164 8169 8172 8171 8194 8190 8163 8157 8159 8158 8160 8167 8176 8178 8165 8153 8164 8179 8186 8192 8211 8211 8217 8220 8210 8195 8184 8174 8176 8171 8177 8181 8189 8215 8191 8168 8157 8157 8160 8163 8179 8213 8222 8222 8211 8225 8233 8231 8229 8230 8228 8229 8228 8228 8225 8221 8231 8229 8224 8233 8230 8234 8239 
8252 8235 8238 8231 8231 8231 8222 8196 8189 8181 8172 8183 8184 8176 8173 8168 8164 8163 8170 8172 8177 8176 8181 8157 8157 8177 8170 8155 8164 8172 8172 8163 8163 8156 8177 8187 8174 8183 8201 8195 8188 8197 8190 8187 8184 8172 8169 8183 8176 8196 8210 8193 8167 8177 8177 8161 8168 8173 8204 8226 8230 8221 8217 8229 8233 8232 8230 8227 8228 8228 8229 8227 8222 8227 8226 8232 8234 8230 8232 8242 
8251 8242 8248 8236 8236 8232 8219 8186 8193 8179 8182 8189 8185 8175 8170 8162 8163 8158 8167 8174 8171 8172 8203 8160 8165 8162 8165 8161 8160 8171 8167 8157 8149 8156 8166 8172 8171 8173 8178 8177 8180 8184 8190 8183 8188 8180 8181 8211 8214 8197 8201 8191 8166 8184 8192 8164 8162 8175 8201 8229 8232 8229 8219 8222 8231 8235 8234 8225 8222 8224 8228 8230 8227 8229 8232 8234 8230 8230 8236 8233 
8245 8239 8245 8241 8237 8235 8218 8192 8192 8191 8191 8190 8181 8172 8170 8168 8158 8159 8162 8167 8165 8171 8183 8171 8171 8179 8178 8171 8168 8171 8166 8163 8161 8169 8170 8172 8174 8169 8158 8156 8157 8162 8185 8186 8185 8184 8194 8217 8220 8220 8207 8193 8164 8169 8163 8161 8162 8175 8191 8226 8229 8230 8223 8221 8231 8231 8232 8232 8233 8231 8231 8228 8227 8231 8231 8228 8236 8238 8236 8240 
8247 8242 8242 8242 8239 8239 8213 8192 8190 8188 8189 8185 8179 8174 8165 8159 8168 8163 8166 8174 8170 8157 8160 8188 8185 8186 8186 8175 8178 8169 8178 8169 8166 8176 8191 8194 8187 8186 8168 8161 8155 8157 8185 8187 8177 8184 8221 8220 8222 8222 8223 8195 8167 8167 8162 8160 8164 8175 8191 8218 8226 8228 8229 8214 8225 8229 8235 8232 8232 8225 8223 8227 8228 8227 8232 8233 8233 8232 8233 8250 
8245 8245 8255 8245 8241 8240 8219 8188 8190 8189 8189 8182 8181 8190 8169 8159 8162 8160 8169 8171 8166 8155 8168 8208 8188 8182 8191 8185 8178 8162 8171 8174 8167 8188 8195 8197 8212 8197 8206 8188 8166 8157 8183 8184 8190 8216 8219 8223 8217 8219 8221 8188 8166 8163 8166 8164 8171 8180 8204 8222 8221 8230 8229 8210 8220 8228 8232 8233 8230 8232 8227 8223 8227 8229 8233 8231 8232 8225 8235 8248 
8243 8242 8255 8236 8240 8240 8214 8192 8189 8185 8182 8194 8204 8206 8186 8166 8156 8167 8207 8200 8167 8162 8162 8186 8179 8174 8182 8176 8160 8164 8161 8155 8175 8167 8165 8204 8211 8199 8211 8206 8206 8195 8186 8184 8219 8223 8219 8221 8219 8215 8215 8166 8161 8158 8171 8173 8177 8181 8215 8231 8226 8230 8232 8213 8221 8226 8228 8225 8228 8228 8232 8225 8222 8230 8234 8231 8231 8223 8233 8237 
8247 8235 8248 8235 8239 8237 8209 8186 8191 8186 8196 8219 8227 8220 8203 8168 8160 8190 8189 8181 8165 8155 8156 8161 8162 8169 8171 8163 8158 8157 8155 8158 8170 8169 8169 8182 8188 8177 8169 8176 8177 8186 8191 8198 8210 8210 8219 8221 8214 8218 8186 8158 8158 8162 8173 8178 8177 8195 8221 8228 8227 8232 8231 8223 8230 8231 8232 8221 8227 8226 8233 8232 8226 8231 8232 8236 8236 8236 8236 8249 
8251 8234 8241 8237 8235 8237 8212 8189 8190 8207 8228 8231 8228 8229 8185 8166 8171 8176 8170 8155 8160 8140 8148 8154 8155 8161 8162 8159 8156 8154 8156 8160 8172 8166 8165 8170 8177 8169 8160 8165 8160 8169 8177 8185 8180 8185 8179 8179 8192 8202 8163 8151 8154 8166 8173 8174 8189 8219 8227 8231 8228 8234 8231 8231 8234 8232 8233 8222 8227 8229 8227 8235 8231 8229 8239 8238 8240 8241 8241 8255 
8250 8244 8248 8241 8241 8239 8213 8198 8212 8235 8232 8236 8235 8228 8181 8201 8189 8164 8162 8156 8156 8136 8139 8149 8162 8159 8156 8163 8163 8148 8153 8160 8178 8165 8161 8168 8166 8167 8163 8162 8164 8162 8168 8184 8186 8183 8179 8176 8182 8162 8155 8155 8161 8168 8175 8198 8226 8227 8229 8234 8234 8236 8235 8233 8234 8232 8225 8219 8223 8230 8232 8231 8235 8239 8240 8237 8242 8241 8237 8246 
8251 8249 8246 8237 8238 8238 8236 8220 8240 8242 8234 8231 8229 8226 8211 8221 8215 8183 8152 8160 8158 8139 8143 8145 8147 8168 8161 8161 8153 8157 8158 8159 8169 8164 8158 8156 8155 8168 8162 8166 8161 8170 8171 8180 8180 8183 8183 8179 8170 8148 8155 8153 8171 8189 8214 8227 8228 8230 8232 8229 8230 8230 8233 8235 8229 8232 8225 8231 8231 8230 8228 8229 8234 8237 8233 8238 8236 8238 8235 8243 
8252 8238 8243 8244 8241 8238 8241 8235 8239 8240 8236 8230 8236 8230 8234 8236 8227 8194 8174 8173 8173 8170 8166 8162 8158 8166 8169 8161 8165 8159 8164 8160 8164 8170 8165 8165 8161 8160 8164 8161 8167 8171 8170 8180 8179 8186 8182 8178 8156 8157 8178 8192 8204 8217 8230 8230 8232 8230 8236 8234 8231 8232 8225 8233 8231 8234 8233 8231 8232 8231 8232 8231 8241 8237 8237 8236 8239 8235 8237 8247 
8257 8249 8240 8243 8239 8242 8248 8240 8239 8235 8232 8242 8234 8233 8234 8237 8232 8189 8183 8181 8188 8185 8185 8181 8172 8161 8163 8179 8180 8177 8174 8179 8180 8178 8176 8173 8167 8168 8165 8170 8176 8178 8185 8196 8210 8213 8208 8200 8193 8214 8245 8219 8218 8227 8225 8231 8230 8231 8232 8230 8228 8228 8227 8229 8226 8226 8232 8227 8228 8232 8235 8234 8239 8241 8240 8238 8239 8232 8237 8252 
8250 8252 8245 8244 8240 8241 8243 8243 8253 8249 8245 8237 8237 8224 8235 8242 8235 8201 8182 8185 8196 8188 8190 8194 8189 8178 8173 8186 8191 8196 8201 8202 8201 8203 8198 8198 8191 8186 8184 8190 8207 8227 8243 8264 8271 8271 8259 8226 8226 8243 8258 8212 8226 8229 8233 8228 8231 8234 8230 8227 8224 8231 8226 8236 8230 8229 8232 8227 8230 8231 8234 8240 8240 8242 8248 8251 8237 8226 8238 8255 
8252 8235 8251 8247 8241 8244 8250 8243 8248 8240 8240 8239 8239 8228 8238 8235 8234 8219 8194 8185 8184 8182 8193 8191 8191 8193 8190 8192 8199 8198 8206 8204 8212 8204 8207 8198 8196 8193 8189 8193 8210 8220 8233 8245 8257 8261 8244 8238 8246 8261 8247 8216 8232 8233 8231 8232 8231 8232 8228 8224 8228 8231 8232 8234 8227 8228 8230 8224 8232 8228 8237 8234 8244 8245 8249 8250 8235 8226 8244 8259 
8253 8233 8250 8245 8239 8249 8254 8240 8247 8240 8243 8245 8239 8239 8234 8232 8235 8235 8222 8196 8176 8184 8192 8193 8194 8197 8197 8198 8201 8198 8205 8208 8215 8207 8208 8201 8200 8197 8188 8199 8207 8216 8215 8226 8225 8236 8238 8253 8254 8261 8243 8227 8234 8229 8230 8228 8230 8234 8230 8227 8230 8232 8235 8232 8223 8226 8226 8229 8234 8239 8241 8245 8250 8249 8249 8246 8248 8246 8253 8270 
8251 8233 8243 8239 8246 8239 8254 8238 8245 8242 8245 8239 8237 8242 8239 8241 8237 8235 8228 8196 8196 8195 8187 8191 8190 8193 8188 8187 8197 8198 8203 8208 8215 8220 8217 8212 8205 8208 8200 8210 8217 8220 8221 8213 8212 8214 8228 8234 8231 8229 8225 8234 8236 8232 8217 8230 8231 8231 8225 8224 8232 8230 8232 8226 8223 8227 8232 8231 8239 8247 8245 8241 8249 8249 8251 8245 8249 8249 8259 8265 
8255 8239 8237 8241 8243 8244 8243 8250 8232 8236 8246 8242 8241 8241 8241 8234 8235 8234 8231 8201 8205 8202 8203 8201 8193 8199 8194 8192 8200 8200 8197 8216 8218 8225 8235 8226 8226 8227 8231 8229 8227 8222 8212 8206 8202 8197 8194 8197 8201 8207 8226 8232 8236 8231 8230 8232 8232 8235 8224 8231 8233 8236 8231 8223 8220 8230 8232 8232 8241 8238 8249 8245 8245 8240 8252 8249 8254 8255 8259 8271 
8249 8239 8245 8247 8243 8234 8237 8251 8248 8242 8235 8236 8234 8238 8243 8227 8238 8241 8227 8213 8205 8208 8203 8205 8207 8211 8205 8205 8207 8201 8202 8210 8215 8218 8228 8223 8222 8219 8213 8216 8202 8202 8197 8202 8201 8196 8195 8198 8207 8212 8227 8232 8223 8235 8235 8226 8235 8235 8235 8235 8234 8235 8233 8223 8229 8239 8232 8236 8246 8242 8241 8246 8246 8251 8250 8251 8245 8247 8268 8273 
8244 8236 8245 8242 8244 8246 8246 8247 8236 8244 8232 8239 8231 8241 8241 8237 8237 8241 8231 8212 8210 8205 8205 8208 8214 8212 8212 8211 8206 8205 8209 8206 8212 8222 8226 8223 8221 8225 8215 8205 8207 8203 8198 8204 8202 8206 8203 8203 8222 8222 8231 8236 8232 8221 8236 8228 8231 8232 8230 8230 8236 8236 8231 8230 8234 8238 8232 8242 8244 8243 8244 8245 8248 8249 8246 8246 8249 8252 8270 8270 
8247 8243 8244 8241 8237 8236 8242 8240 8231 8243 8232 8238 8233 8243 8239 8235 8237 8234 8236 8220 8216 8213 8205 8212 8215 8211 8211 8210 8208 8205 8206 8206 8213 8217 8222 8221 8219 8216 8212 8203 8206 8204 8209 8206 8208 8204 8198 8216 8229 8227 8230 8240 8229 8227 8234 8230 8239 8224 8227 8231 8234 8232 8232 8232 8235 8229 8234 8231 8243 8243 8247 8244 8245 8247 8245 8248 8246 8253 8268 8265 
8254 8254 8251 8242 8242 8245 8244 8238 8226 8244 8235 8229 8239 8232 8233 8230 8234 8234 8227 8216 8222 8217 8208 8210 8211 8191 8209 8208 8214 8206 8205 8211 8219 8215 8224 8218 8217 8212 8200 8202 8207 8211 8211 8212 8208 8202 8195 8217 8231 8229 8232 8229 8233 8231 8230 8231 8232 8234 8231 8230 8232 8231 8231 8234 8237 8235 8235 8239 8244 8239 8243 8246 8247 8244 8249 8248 8249 8252 8262 8274 
8256 8239 8253 8237 8236 8249 8253 8229 8241 8247 8245 8227 8233 8234 8231 8224 8220 8233 8225 8219 8227 8213 8209 8210 8205 8198 8196 8209 8213 8210 8212 8206 8218 8215 8217 8217 8209 8203 8194 8202 8201 8209 8206 8205 8210 8199 8205 8218 8226 8227 8225 8231 8222 8227 8230 8230 8229 8234 8228 8228 8229 8225 8235 8237 8229 8241 8237 8244 8235 8240 8242 8246 8246 8244 8243 8244 8251 8254 8261 8275 
8273 8262 8271 8244 8264 8255 8253 8236 8248 8247 8248 8236 8236 8240 8242 8232 8221 8225 8223 8229 8218 8212 8207 8209 8214 8207 8212 8211 8215 8207 8205 8211 8214 8209 8202 8200 8198 8191 8191 8199 8205 8200 8195 8207 8206 8197 8204 8215 8215 8219 8225 8231 8220 8224 8226 8226 8227 8228 8225 8224 8224 8230 8232 8228 8235 8232 8234 8241 8244 8236 8245 8239 8240 8239 8245 8244 8255 8244 8268 8277 
8275 8255 8262 8277 8261 8233 8232 8256 8267 8269 8268 8248 8235 8243 8239 8227 8225 8224 8224 8216 8219 8201 8197 8198 8214 8209 8211 8210 8212 8204 8206 8196 8197 8201 8194 8195 8190 8191 8187 8198 8201 8197 8192 8194 8196 8191 8202 8206 8201 8210 8216 8215 8217 8218 8219 8220 8227 8228 8229 8223 8235 8225 8228 8225 8228 8230 8236 8240 8238 8243 8241 8240 8238 8238 8242 8248 8251 8254 8266 8275 
8299 8284 8298 8286 8260 8239 8242 8260 8285 8296 8272 8248 8235 8236 8246 8255 8242 8225 8221 8223 8221 8212 8205 8207 8212 8218 8216 8213 8204 8205 8206 8201 8198 8199 8193 8191 8185 8187 8188 8188 8190 8198 8193 8197 8200 8201 8203 8211 8202 8194 8208 8223 8229 8225 8225 8225 8228 8226 8230 8232 8232 8229 8229 8232 8233 8239 8240 8245 8248 8244 8244 8244 8245 8249 8250 8255 8255 8262 8276 8283 


