P2
80 60
8168
8079 8089 8096 8101 8103 8102 8102 8103 8108 8108 8111 8112 8115 8116 8120 8129 8128 8133 8130 8130 8127 8130 8133 8135 8133 8135 8134 8142 8143 8146 8153 8153 8151 8138 8124 8100 8114 8138 8151 8149 8149 8150 8146 8142 8136 8131 8107 8097 8094 8095 8094 8100 8099 8107 8130 8133 8133 8132 8139 8140 8140 8141 8138 8140 8139 8140 8142 8143 8139 8140 8147 8158 8156 8157 8155 8154 8152 8154 8153 8152 
8088 8097 8100 8105 8108 8109 8105 8107 8109 8113 8114 8118 8119 8119 8127 8132 8132 8130 8132 8129 8133 8131 8135 8137 8135 8138 8138 8136 8127 8128 8146 8143 8130 8106 8093 8094 8134 8149 8154 8152 8150 8150 8145 8128 8104 8097 8090 8090 8095 8099 8096 8088 8084 8096 8127 8130 8132 8134 8136 8139 8142 8141 8140 8141 8137 8142 8140 8138 8140 8140 8147 8156 8158 8155 8156 8160 8153 8155 8156 8155 
8089 8096 8099 8107 8110 8116 8115 8116 8119 8117 8116 8121 8120 8125 8131 8136 8140 8136 8135 8135 8135 8132 8134 8135 8136 8138 8138 8130 8106 8104 8111 8119 8122 8114 8098 8097 8141 8153 8155 8152 8152 8150 8147 8132 8089 8082 8084 8087 8101 8125 8104 8081 8084 8096 8124 8130 8131 8133 8137 8140 8142 8142 8139 8139 8137 8140 8143 8142 8139 8143 8143 8156 8158 8156 8155 8158 8148 8154 8155 8154 
8100 8105 8112 8113 8116 8119 8123 8124 8122 8121 8119 8119 8123 8126 8132 8139 8139 8141 8138 8139 8135 8134 8136 8137 8136 8137 8139 8139 8114 8101 8112 8146 8148 8146 8139 8111 8133 8149 8148 8139 8137 8136 8137 8111 8080 8082 8094 8094 8096 8123 8095 8087 8087 8094 8107 8117 8128 8132 8136 8140 8139 8141 8141 8138 8138 8139 8140 8138 8140 8143 8141 8149 8156 8157 8153 8153 8151 8153 8150 8150 
8106 8109 8118 8119 8123 8127 8128 8127 8125 8123 8122 8123 8125 8132 8135 8143 8141 8140 8142 8141 8139 8138 8134 8134 8134 8139 8140 8142 8132 8104 8105 8141 8146 8145 8145 8137 8116 8115 8107 8095 8094 8094 8106 8091 8080 8088 8089 8098 8089 8095 8082 8082 8089 8086 8092 8094 8104 8119 8133 8138 8139 8141 8142 8139 8140 8139 8141 8139 8139 8139 8140 8142 8153 8153 8152 8151 8148 8150 8150 8147 
8110 8115 8119 8124 8133 8130 8130 8130 8127 8128 8122 8128 8131 8134 8138 8145 8143 8141 8143 8142 8139 8139 8139 8136 8135 8138 8138 8139 8136 8111 8098 8115 8127 8127 8140 8131 8105 8092 8093 8104 8093 8080 8080 8096 8086 8080 8103 8100 8082 8081 8084 8084 8085 8084 8087 8086 8093 8100 8123 8140 8140 8141 8144 8140 8141 8141 8141 8139 8139 8140 8140 8138 8148 8150 8153 8152 8149 8147 8146 8144 
8115 8118 8124 8131 8134 8132 8135 8136 8129 8113 8111 8120 8126 8136 8139 8140 8143 8139 8141 8139 8140 8138 8139 8139 8135 8137 8137 8133 8126 8106 8093 8092 8088 8088 8101 8095 8087 8084 8085 8091 8087 8076 8076 8083 8084 8085 8097 8107 8086 8086 8093 8084 8087 8086 8089 8089 8090 8094 8108 8135 8143 8142 8140 8142 8141 8146 8144 8140 8137 8142 8139 8139 8142 8149 8148 8148 8148 8145 8141 8143 
8117 8128 8131 8133 8132 8133 8135 8137 8131 8092 8101 8099 8111 8125 8131 8140 8143 8141 8140 8139 8140 8139 8135 8137 8135 8139 8136 8109 8085 8084 8084 8088 8078 8080 8082 8078 8080 8085 8083 8106 8087 8081 8082 8083 8087 8091 8091 8096 8086 8089 8113 8105 8097 8115 8104 8098 8096 8095 8101 8138 8144 8148 8145 8144 8144 8143 8142 8143 8142 8140 8141 8139 8134 8147 8147 8150 8147 8143 8137 8142 
8118 8125 8125 8129 8135 8136 8138 8136 8133 8091 8084 8091 8095 8097 8112 8139 8141 8140 8143 8140 8140 8136 8138 8135 8133 8137 8120 8086 8081 8079 8080 8080 8078 8077 8079 8078 8085 8080 8079 8093 8096 8085 8086 8100 8125 8109 8094 8090 8089 8097 8134 8137 8123 8127 8127 8127 8128 8121 8117 8139 8146 8147 8145 8144 8145 8147 8145 8143 8143 8141 8140 8139 8134 8141 8143 8148 8145 8141 8136 8137 
8121 8120 8125 8132 8133 8134 8130 8137 8137 8111 8091 8094 8095 8090 8099 8132 8143 8141 8144 8143 8138 8135 8133 8133 8132 8137 8108 8082 8078 8081 8078 8079 8076 8077 8081 8086 8093 8082 8082 8080 8098 8099 8118 8136 8141 8115 8097 8092 8091 8115 8128 8126 8107 8095 8099 8123 8143 8145 8142 8148 8148 8148 8149 8149 8148 8150 8148 8149 8147 8144 8145 8141 8136 8139 8145 8146 8145 8138 8136 8133 
8122 8126 8125 8132 8133 8131 8131 8139 8140 8132 8106 8092 8090 8086 8089 8126 8142 8137 8141 8133 8125 8117 8106 8104 8103 8120 8110 8083 8081 8080 8078 8078 8076 8074 8078 8077 8079 8082 8087 8082 8080 8106 8103 8094 8103 8103 8097 8091 8087 8098 8095 8094 8092 8087 8089 8098 8135 8144 8147 8152 8150 8148 8151 8150 8149 8151 8153 8154 8151 8149 8148 8144 8139 8139 8142 8145 8143 8137 8134 8133 
8122 8132 8131 8132 8133 8135 8132 8140 8146 8136 8117 8098 8095 8085 8084 8109 8132 8124 8117 8098 8082 8073 8071 8072 8072 8101 8121 8085 8081 8078 8077 8080 8073 8071 8074 8075 8076 8076 8078 8077 8077 8081 8085 8086 8091 8094 8092 8090 8090 8090 8090 8094 8095 8089 8090 8093 8120 8141 8146 8150 8148 8148 8150 8148 8147 8151 8153 8153 8149 8150 8148 8146 8144 8143 8143 8144 8141 8137 8135 8131 
8127 8133 8132 8134 8134 8138 8138 8137 8140 8139 8134 8130 8122 8105 8085 8092 8093 8088 8080 8074 8074 8072 8071 8065 8071 8084 8086 8079 8082 8084 8076 8076 8074 8069 8072 8072 8076 8073 8073 8073 8080 8082 8085 8089 8091 8092 8094 8094 8095 8097 8091 8093 8094 8092 8093 8093 8106 8136 8145 8148 8152 8148 8149 8150 8148 8151 8153 8152 8152 8148 8152 8149 8146 8141 8143 8143 8142 8140 8135 8131 
8131 8140 8140 8141 8139 8143 8139 8140 8140 8139 8138 8139 8136 8132 8123 8101 8081 8081 8076 8074 8072 8073 8072 8070 8073 8079 8079 8083 8082 8081 8078 8075 8071 8070 8070 8073 8077 8077 8076 8076 8077 8084 8087 8089 8091 8096 8096 8097 8099 8100 8097 8096 8095 8094 8096 8095 8099 8126 8142 8147 8147 8148 8149 8150 8150 8149 8151 8147 8150 8150 8147 8148 8146 8146 8144 8142 8140 8139 8138 8132 
8137 8137 8140 8141 8143 8143 8140 8140 8137 8138 8138 8140 8138 8133 8117 8091 8080 8076 8074 8077 8080 8092 8108 8102 8107 8094 8076 8081 8084 8089 8089 8094 8074 8075 8075 8075 8076 8081 8083 8083 8080 8082 8086 8092 8096 8097 8100 8100 8103 8101 8101 8099 8096 8095 8094 8096 8095 8119 8144 8147 8147 8144 8150 8148 8149 8151 8152 8152 8150 8150 8150 8152 8147 8148 8141 8141 8139 8142 8142 8142 
8136 8133 8135 8141 8138 8141 8139 8135 8131 8137 8140 8136 8134 8116 8088 8085 8080 8076 8077 8083 8112 8130 8128 8121 8113 8088 8077 8074 8073 8082 8082 8082 8076 8080 8081 8078 8081 8085 8081 8080 8082 8079 8083 8093 8099 8103 8101 8102 8104 8103 8104 8103 8099 8096 8090 8092 8096 8117 8141 8148 8145 8147 8146 8151 8148 8149 8150 8149 8151 8150 8149 8149 8146 8149 8141 8141 8142 8140 8137 8137 
8140 8133 8133 8142 8143 8139 8134 8131 8111 8134 8139 8134 8109 8076 8073 8081 8080 8081 8086 8083 8088 8100 8108 8094 8073 8076 8076 8075 8080 8080 8079 8082 8079 8076 8078 8080 8083 8086 8080 8078 8095 8097 8089 8092 8097 8097 8103 8102 8104 8103 8104 8105 8105 8098 8093 8096 8096 8113 8139 8142 8145 8146 8151 8148 8147 8146 8149 8145 8147 8150 8151 8150 8145 8145 8141 8141 8137 8140 8140 8137 
8136 8135 8134 8137 8138 8142 8137 8117 8095 8122 8135 8108 8075 8070 8075 8082 8081 8084 8087 8086 8089 8112 8104 8088 8071 8077 8080 8080 8080 8082 8078 8113 8102 8079 8077 8076 8082 8083 8085 8077 8093 8102 8095 8095 8100 8099 8102 8102 8101 8102 8101 8100 8104 8110 8100 8092 8094 8108 8136 8142 8142 8148 8146 8149 8147 8149 8146 8148 8146 8149 8149 8142 8143 8144 8140 8137 8135 8138 8137 8136 
8136 8133 8137 8140 8139 8138 8138 8105 8096 8099 8114 8080 8074 8070 8077 8081 8082 8086 8085 8083 8085 8078 8076 8079 8085 8100 8081 8081 8081 8078 8071 8075 8076 8079 8082 8084 8086 8086 8085 8085 8093 8101 8095 8092 8097 8100 8103 8102 8100 8101 8100 8100 8099 8111 8117 8105 8095 8106 8129 8136 8142 8143 8146 8146 8147 8144 8148 8147 8145 8145 8148 8145 8141 8143 8138 8137 8134 8139 8136 8132 
8136 8136 8137 8138 8135 8142 8127 8097 8096 8091 8087 8079 8080 8085 8084 8085 8084 8083 8083 8081 8072 8074 8082 8115 8118 8124 8084 8080 8084 8073 8072 8074 8078 8086 8094 8096 8097 8090 8092 8093 8098 8092 8092 8089 8099 8097 8100 8102 8104 8098 8101 8101 8101 8101 8107 8115 8099 8098 8099 8111 8131 8140 8147 8148 8148 8145 8147 8146 8147 8146 8146 8143 8140 8142 8136 8137 8135 8132 8133 8134 
8139 8139 8140 8139 8137 8138 8104 8101 8121 8109 8091 8108 8104 8100 8084 8084 8083 8080 8082 8078 8075 8084 8115 8138 8122 8122 8079 8077 8079 8075 8076 8085 8090 8092 8097 8098 8098 8097 8097 8092 8101 8091 8084 8085 8093 8098 8098 8099 8101 8100 8099 8101 8103 8104 8099 8100 8092 8094 8094 8096 8103 8127 8147 8147 8150 8147 8146 8149 8147 8149 8146 8145 8143 8141 8137 8137 8133 8131 8134 8133 
8138 8141 8142 8146 8141 8120 8100 8130 8138 8137 8138 8140 8140 8126 8086 8079 8080 8083 8080 8077 8085 8113 8096 8129 8116 8101 8072 8074 8073 8075 8083 8091 8096 8096 8098 8099 8099 8096 8095 8093 8087 8081 8080 8083 8085 8096 8098 8098 8101 8101 8100 8105 8107 8106 8103 8101 8096 8093 8095 8093 8097 8113 8141 8150 8147 8150 8151 8150 8150 8151 8149 8149 8146 8145 8141 8142 8137 8135 8138 8137 
8144 8145 8147 8144 8120 8101 8124 8135 8140 8144 8149 8149 8143 8125 8083 8081 8083 8079 8070 8072 8083 8108 8096 8083 8085 8074 8068 8072 8075 8080 8091 8093 8098 8101 8100 8097 8095 8097 8097 8090 8082 8079 8081 8083 8079 8082 8085 8092 8093 8092 8096 8103 8108 8104 8099 8099 8100 8097 8099 8096 8098 8105 8136 8150 8149 8151 8152 8152 8151 8148 8151 8145 8148 8149 8143 8144 8143 8140 8139 8137 
8143 8149 8146 8124 8102 8118 8141 8138 8145 8145 8150 8147 8143 8116 8083 8084 8087 8080 8066 8070 8080 8076 8076 8077 8075 8072 8067 8072 8072 8082 8094 8096 8097 8096 8097 8096 8098 8097 8100 8095 8094 8086 8082 8078 8077 8085 8086 8083 8082 8084 8087 8099 8104 8103 8098 8100 8103 8097 8098 8096 8095 8101 8139 8149 8153 8153 8155 8154 8152 8150 8149 8148 8147 8147 8144 8148 8141 8142 8143 8141 
8146 8144 8131 8108 8113 8139 8143 8144 8146 8144 8149 8147 8145 8119 8088 8088 8087 8079 8076 8073 8075 8076 8079 8083 8080 8074 8070 8073 8075 8077 8094 8098 8100 8097 8098 8094 8096 8095 8097 8095 8099 8092 8085 8081 8080 8085 8085 8087 8088 8090 8090 8093 8098 8100 8100 8110 8109 8094 8095 8096 8094 8105 8141 8152 8151 8153 8155 8154 8153 8149 8149 8147 8147 8146 8146 8147 8144 8143 8147 8143 
8150 8134 8109 8119 8137 8146 8145 8141 8144 8145 8147 8149 8146 8108 8088 8090 8088 8086 8086 8085 8080 8078 8076 8077 8074 8074 8069 8078 8078 8082 8093 8099 8099 8098 8095 8095 8098 8098 8098 8096 8099 8096 8089 8087 8083 8087 8093 8090 8092 8095 8093 8094 8098 8099 8108 8112 8106 8096 8099 8099 8100 8108 8147 8153 8155 8157 8155 8155 8152 8153 8150 8144 8146 8148 8144 8148 8146 8146 8145 8146 
8146 8137 8126 8145 8147 8148 8143 8144 8145 8148 8145 8148 8145 8105 8087 8087 8083 8086 8089 8084 8079 8075 8072 8074 8067 8073 8076 8080 8083 8086 8091 8096 8099 8096 8098 8097 8095 8095 8098 8094 8095 8094 8090 8086 8087 8088 8091 8093 8096 8096 8094 8093 8095 8101 8109 8111 8103 8096 8101 8101 8100 8116 8154 8152 8155 8155 8157 8154 8153 8151 8149 8147 8149 8146 8143 8147 8150 8151 8145 8149 
8150 8151 8148 8152 8152 8146 8147 8147 8148 8146 8148 8150 8146 8107 8089 8080 8083 8084 8090 8083 8078 8076 8075 8075 8072 8075 8079 8080 8080 8082 8086 8094 8097 8093 8096 8093 8095 8094 8098 8098 8096 8094 8089 8087 8084 8083 8084 8090 8096 8097 8097 8095 8100 8106 8110 8113 8104 8096 8097 8097 8101 8124 8149 8153 8154 8156 8156 8157 8153 8150 8150 8150 8147 8147 8145 8149 8151 8153 8153 8151 
8152 8150 8151 8155 8151 8153 8148 8147 8151 8149 8152 8150 8148 8118 8103 8085 8086 8083 8082 8077 8079 8085 8077 8074 8074 8077 8078 8081 8080 8085 8080 8083 8092 8094 8096 8096 8096 8095 8095 8095 8096 8094 8090 8087 8085 8085 8083 8087 8092 8102 8099 8098 8104 8105 8110 8110 8104 8101 8098 8101 8101 8132 8153 8157 8156 8157 8156 8156 8154 8152 8154 8151 8152 8151 8150 8152 8152 8155 8153 8157 
8149 8150 8148 8153 8153 8154 8153 8149 8154 8149 8154 8149 8146 8132 8136 8121 8088 8081 8079 8076 8086 8087 8085 8078 8075 8077 8081 8087 8087 8084 8082 8079 8081 8086 8093 8094 8096 8093 8095 8096 8097 8094 8091 8087 8085 8086 8084 8084 8089 8114 8115 8109 8103 8105 8106 8102 8104 8097 8099 8101 8105 8138 8152 8153 8156 8158 8154 8157 8151 8153 8153 8152 8150 8153 8153 8153 8157 8156 8161 8159 
8152 8151 8154 8154 8154 8152 8150 8152 8155 8147 8150 8151 8145 8142 8143 8102 8084 8078 8075 8097 8105 8089 8087 8084 8083 8084 8088 8089 8090 8083 8081 8080 8080 8080 8081 8085 8094 8095 8095 8090 8094 8093 8089 8090 8089 8086 8086 8084 8089 8101 8117 8125 8128 8116 8105 8103 8099 8098 8099 8103 8111 8142 8155 8155 8153 8155 8156 8153 8154 8157 8155 8154 8152 8154 8154 8157 8160 8162 8162 8159 
8151 8150 8152 8153 8151 8153 8149 8152 8154 8148 8147 8149 8147 8146 8129 8091 8082 8076 8081 8127 8104 8083 8081 8084 8087 8086 8094 8093 8094 8084 8078 8076 8082 8079 8082 8082 8084 8092 8094 8095 8093 8091 8088 8092 8089 8088 8087 8087 8090 8095 8125 8127 8143 8144 8117 8105 8104 8105 8103 8103 8119 8149 8154 8157 8159 8157 8158 8155 8154 8157 8156 8155 8154 8156 8155 8155 8162 8163 8166 8160 
8156 8154 8154 8154 8154 8153 8149 8150 8155 8149 8148 8150 8149 8146 8114 8087 8082 8078 8084 8130 8105 8087 8087 8089 8090 8091 8094 8097 8093 8085 8079 8076 8083 8078 8084 8083 8081 8085 8088 8090 8091 8092 8087 8092 8092 8094 8091 8091 8089 8088 8094 8095 8101 8109 8125 8106 8105 8105 8104 8106 8123 8145 8153 8155 8156 8158 8156 8154 8154 8157 8156 8153 8154 8153 8155 8157 8158 8162 8164 8164 
8158 8156 8160 8158 8156 8153 8150 8152 8157 8153 8152 8151 8149 8146 8106 8087 8087 8082 8090 8135 8114 8090 8092 8089 8090 8093 8094 8095 8094 8090 8082 8081 8082 8081 8085 8083 8086 8087 8083 8087 8089 8091 8089 8092 8092 8095 8093 8091 8089 8089 8089 8090 8090 8091 8094 8117 8126 8122 8129 8135 8144 8152 8154 8155 8156 8157 8157 8158 8156 8157 8154 8153 8153 8157 8158 8160 8158 8159 8165 8164 
8159 8159 8161 8160 8155 8155 8152 8154 8152 8152 8154 8155 8154 8148 8120 8087 8086 8087 8106 8145 8141 8108 8094 8089 8088 8093 8090 8094 8094 8092 8084 8082 8082 8082 8087 8085 8088 8088 8087 8085 8087 8087 8087 8089 8091 8091 8092 8091 8091 8090 8090 8091 8093 8088 8092 8098 8137 8148 8150 8151 8150 8154 8155 8154 8154 8157 8156 8155 8153 8157 8160 8155 8156 8155 8155 8157 8160 8161 8164 8163 
8161 8160 8159 8159 8153 8156 8156 8154 8155 8150 8155 8158 8154 8152 8121 8090 8087 8091 8128 8153 8153 8153 8113 8093 8090 8091 8093 8093 8097 8092 8084 8078 8084 8082 8088 8086 8086 8085 8087 8086 8086 8089 8086 8088 8090 8088 8089 8089 8089 8090 8090 8092 8094 8094 8098 8096 8125 8152 8157 8153 8154 8152 8154 8153 8156 8158 8157 8157 8154 8155 8157 8156 8157 8157 8155 8156 8160 8160 8162 8165 
8160 8161 8160 8162 8158 8158 8158 8155 8159 8153 8156 8156 8159 8154 8119 8093 8094 8114 8150 8153 8153 8165 8156 8111 8093 8091 8097 8094 8094 8091 8085 8084 8086 8086 8085 8080 8085 8083 8086 8085 8084 8087 8086 8087 8089 8089 8089 8089 8091 8091 8094 8092 8097 8094 8094 8100 8124 8150 8154 8153 8153 8151 8155 8156 8155 8156 8156 8157 8154 8155 8163 8158 8155 8158 8158 8158 8158 8160 8162 8160 
8159 8162 8162 8164 8161 8159 8156 8157 8157 8159 8158 8162 8156 8154 8149 8111 8116 8145 8152 8155 8152 8159 8154 8137 8097 8094 8096 8097 8097 8094 8091 8084 8081 8084 8085 8089 8088 8088 8086 8087 8084 8089 8087 8087 8088 8087 8087 8087 8088 8092 8095 8097 8096 8096 8097 8100 8117 8150 8155 8154 8155 8153 8157 8155 8157 8157 8153 8157 8153 8155 8158 8159 8158 8159 8159 8161 8162 8158 8162 8161 
8159 8162 8163 8164 8161 8159 8157 8158 8158 8160 8158 8161 8156 8156 8151 8149 8151 8154 8152 8151 8155 8151 8154 8151 8106 8093 8095 8098 8097 8094 8089 8085 8083 8081 8085 8087 8088 8090 8092 8090 8085 8085 8085 8084 8085 8084 8087 8085 8090 8092 8095 8098 8100 8099 8099 8105 8121 8154 8158 8155 8154 8152 8153 8155 8156 8153 8155 8156 8156 8155 8158 8155 8158 8159 8160 8163 8160 8159 8161 8160 
8158 8166 8165 8161 8161 8157 8160 8157 8161 8156 8156 8157 8157 8153 8153 8153 8152 8153 8154 8150 8152 8149 8151 8142 8110 8096 8092 8095 8097 8094 8086 8083 8083 8081 8086 8085 8087 8086 8091 8089 8089 8088 8090 8088 8086 8086 8088 8085 8087 8090 8093 8100 8104 8103 8103 8105 8123 8154 8157 8157 8156 8155 8153 8156 8153 8158 8155 8157 8158 8157 8157 8158 8155 8160 8158 8161 8161 8158 8161 8161 
8157 8161 8161 8161 8159 8160 8157 8156 8160 8158 8156 8159 8157 8155 8158 8156 8153 8150 8153 8151 8149 8150 8146 8144 8124 8103 8093 8093 8095 8091 8088 8084 8085 8082 8085 8086 8086 8089 8090 8090 8088 8092 8095 8092 8093 8092 8091 8090 8092 8091 8097 8097 8104 8102 8102 8107 8128 8157 8158 8161 8158 8157 8155 8156 8155 8157 8156 8155 8159 8155 8158 8157 8156 8157 8160 8161 8159 8158 8160 8160 
8156 8159 8160 8155 8152 8156 8155 8157 8159 8156 8157 8158 8156 8156 8160 8157 8152 8148 8148 8149 8147 8148 8144 8147 8145 8121 8099 8095 8098 8090 8091 8085 8088 8085 8087 8085 8085 8086 8087 8087 8086 8091 8093 8092 8096 8103 8126 8110 8097 8097 8102 8100 8104 8105 8109 8123 8146 8157 8163 8157 8158 8158 8157 8158 8160 8158 8157 8159 8157 8155 8157 8155 8152 8156 8153 8157 8158 8157 8158 8157 
8156 8159 8159 8154 8154 8155 8154 8159 8159 8159 8159 8159 8159 8156 8159 8156 8150 8149 8149 8148 8145 8147 8144 8148 8147 8140 8108 8104 8094 8088 8090 8089 8088 8086 8089 8085 8081 8087 8085 8086 8087 8089 8094 8103 8112 8139 8155 8148 8132 8126 8133 8134 8140 8142 8150 8156 8159 8159 8156 8159 8163 8160 8159 8161 8159 8159 8159 8157 8155 8158 8158 8155 8155 8156 8153 8156 8156 8158 8154 8155 
8158 8161 8158 8156 8154 8153 8153 8157 8159 8156 8160 8158 8157 8158 8159 8158 8148 8146 8146 8149 8147 8144 8144 8147 8146 8145 8123 8103 8090 8091 8091 8089 8089 8086 8090 8085 8085 8086 8087 8086 8090 8092 8100 8119 8137 8154 8160 8145 8145 8150 8151 8151 8156 8155 8157 8160 8164 8161 8161 8163 8161 8163 8160 8161 8160 8161 8158 8156 8156 8157 8158 8155 8154 8156 8153 8153 8154 8153 8151 8153 
8159 8162 8157 8156 8154 8154 8155 8157 8162 8156 8157 8157 8159 8159 8158 8158 8152 8149 8147 8148 8144 8144 8147 8147 8148 8145 8116 8089 8094 8092 8093 8091 8092 8090 8089 8087 8086 8088 8086 8085 8085 8094 8112 8135 8146 8159 8146 8143 8151 8153 8153 8151 8157 8156 8160 8160 8160 8160 8161 8163 8160 8161 8160 8161 8159 8159 8156 8156 8155 8156 8155 8152 8153 8153 8150 8153 8152 8151 8153 8153 
8159 8160 8155 8156 8155 8155 8155 8156 8157 8155 8156 8158 8158 8159 8159 8162 8156 8150 8151 8150 8146 8148 8148 8148 8150 8139 8093 8088 8094 8097 8096 8096 8094 8095 8091 8090 8087 8089 8088 8085 8088 8092 8112 8143 8154 8148 8142 8150 8154 8153 8152 8155 8159 8161 8159 8163 8163 8162 8160 8159 8163 8160 8163 8160 8158 8160 8158 8157 8154 8157 8152 8155 8151 8153 8149 8153 8150 8149 8149 8155 
8163 8162 8159 8154 8160 8157 8157 8157 8156 8155 8156 8156 8156 8158 8161 8161 8163 8154 8150 8151 8151 8152 8155 8154 8150 8136 8094 8095 8100 8100 8100 8098 8101 8094 8097 8092 8089 8090 8087 8084 8089 8091 8130 8148 8147 8145 8151 8156 8151 8153 8154 8157 8160 8158 8164 8162 8159 8161 8159 8160 8162 8162 8158 8158 8156 8156 8158 8158 8154 8152 8155 8152 8149 8153 8149 8152 8152 8149 8153 8150 
8157 8160 8158 8157 8154 8162 8159 8158 8164 8161 8159 8157 8157 8157 8163 8166 8163 8158 8152 8154 8155 8157 8156 8154 8151 8145 8106 8103 8102 8103 8105 8106 8103 8101 8098 8096 8093 8090 8088 8091 8090 8101 8133 8142 8148 8154 8156 8156 8154 8154 8156 8158 8158 8162 8165 8167 8163 8162 8162 8161 8160 8161 8162 8157 8155 8154 8156 8156 8157 8154 8152 8154 8152 8151 8153 8154 8153 8149 8152 8152 
8158 8159 8159 8157 8154 8160 8160 8162 8161 8157 8158 8160 8157 8158 8164 8163 8164 8160 8157 8158 8157 8160 8161 8159 8154 8153 8125 8106 8109 8109 8112 8111 8105 8099 8102 8096 8095 8092 8093 8094 8096 8117 8144 8152 8156 8154 8155 8155 8156 8155 8155 8159 8158 8161 8162 8165 8163 8163 8160 8161 8160 8158 8158 8156 8156 8153 8152 8152 8154 8154 8159 8152 8151 8154 8148 8151 8152 8151 8152 8151 
8157 8156 8158 8159 8157 8162 8159 8159 8161 8159 8161 8163 8158 8160 8161 8164 8161 8160 8161 8160 8156 8159 8156 8159 8155 8157 8148 8116 8110 8116 8115 8114 8109 8104 8104 8100 8099 8098 8095 8100 8113 8150 8154 8152 8153 8155 8155 8155 8154 8154 8155 8159 8159 8162 8164 8166 8163 8166 8163 8158 8160 8159 8157 8155 8150 8152 8152 8154 8158 8157 8156 8155 8155 8156 8151 8153 8153 8150 8152 8150 
8156 8158 8155 8157 8160 8158 8159 8160 8159 8157 8160 8161 8161 8164 8165 8164 8164 8164 8161 8156 8156 8156 8157 8159 8157 8158 8157 8149 8124 8117 8118 8114 8112 8108 8108 8103 8104 8102 8103 8112 8142 8154 8152 8154 8153 8155 8157 8154 8157 8154 8156 8159 8160 8162 8165 8164 8165 8163 8163 8163 8162 8158 8157 8154 8151 8154 8155 8153 8154 8156 8156 8152 8152 8157 8152 8157 8152 8150 8153 8150 
8159 8161 8157 8158 8157 8159 8159 8159 8158 8156 8157 8160 8161 8161 8163 8167 8165 8164 8160 8159 8158 8157 8157 8159 8158 8159 8157 8156 8149 8129 8121 8119 8115 8113 8110 8106 8106 8106 8119 8145 8152 8154 8154 8156 8156 8158 8158 8155 8156 8156 8158 8162 8165 8164 8165 8167 8168 8165 8162 8163 8161 8158 8159 8153 8152 8153 8154 8154 8153 8158 8158 8157 8156 8155 8154 8155 8156 8150 8152 8149 
8157 8158 8156 8157 8158 8159 8155 8160 8163 8156 8157 8157 8157 8160 8162 8163 8164 8164 8159 8160 8158 8159 8159 8160 8158 8159 8156 8155 8154 8148 8134 8121 8116 8113 8111 8111 8110 8122 8147 8151 8153 8153 8152 8155 8156 8158 8157 8157 8157 8155 8157 8160 8164 8163 8167 8167 8166 8168 8165 8162 8162 8159 8159 8154 8153 8152 8151 8150 8153 8155 8156 8155 8153 8157 8155 8155 8150 8149 8153 8152 
8158 8159 8157 8154 8157 8158 8160 8159 8159 8158 8153 8161 8161 8159 8162 8163 8162 8161 8161 8157 8157 8159 8159 8159 8156 8157 8158 8157 8154 8154 8151 8143 8126 8118 8119 8124 8138 8151 8155 8153 8153 8153 8153 8156 8158 8158 8158 8158 8159 8159 8161 8159 8161 8162 8167 8165 8165 8166 8163 8163 8161 8158 8157 8151 8150 8151 8151 8150 8151 8152 8155 8155 8154 8156 8154 8152 8147 8145 8148 8148 
8158 8163 8158 8160 8156 8157 8156 8159 8157 8157 8156 8159 8159 8160 8162 8165 8163 8160 8161 8154 8158 8159 8160 8159 8157 8155 8158 8161 8157 8158 8156 8151 8148 8146 8144 8148 8151 8149 8155 8153 8152 8151 8152 8151 8156 8155 8160 8159 8161 8161 8161 8163 8162 8162 8163 8163 8165 8164 8162 8161 8163 8156 8158 8153 8148 8149 8148 8149 8150 8152 8155 8153 8150 8151 8151 8151 8148 8142 8147 8144 
8158 8159 8160 8159 8155 8155 8155 8157 8157 8158 8158 8159 8157 8156 8163 8157 8160 8159 8158 8157 8156 8155 8159 8160 8154 8155 8158 8159 8160 8158 8156 8156 8153 8150 8151 8148 8150 8152 8150 8152 8153 8150 8151 8154 8157 8155 8156 8161 8161 8162 8161 8163 8163 8162 8160 8161 8163 8162 8160 8160 8156 8157 8152 8149 8149 8147 8147 8148 8151 8149 8153 8152 8150 8151 8149 8149 8148 8144 8146 8144 
8158 8159 8161 8155 8151 8153 8159 8156 8158 8160 8155 8158 8155 8155 8160 8158 8159 8159 8158 8156 8157 8155 8156 8155 8153 8155 8155 8158 8161 8161 8163 8157 8157 8154 8152 8146 8149 8148 8148 8151 8152 8150 8151 8157 8158 8155 8158 8161 8162 8160 8162 8159 8162 8161 8158 8161 8158 8159 8158 8159 8157 8154 8150 8152 8149 8151 8152 8149 8148 8152 8150 8150 8151 8148 8149 8147 8144 8143 8146 8145 
8159 8162 8161 8151 8153 8152 8151 8149 8157 8156 8153 8152 8153 8155 8158 8156 8155 8157 8156 8152 8154 8153 8155 8153 8153 8158 8158 8160 8163 8162 8159 8159 8154 8153 8153 8147 8147 8148 8149 8151 8150 8148 8150 8156 8157 8157 8158 8159 8159 8160 8159 8161 8162 8158 8159 8161 8159 8158 8157 8157 8156 8152 8152 8152 8148 8151 8153 8146 8149 8152 8152 8150 8146 8145 8143 8141 8143 8142 8141 8143 
8163 8161 8152 8150 8150 8147 8141 8152 8155 8152 8149 8150 8151 8151 8155 8152 8153 8155 8153 8154 8153 8153 8150 8153 8155 8157 8159 8160 8160 8161 8156 8155 8154 8152 8153 8147 8146 8147 8149 8149 8150 8148 8150 8152 8154 8154 8157 8159 8161 8160 8160 8160 8159 8157 8160 8160 8160 8159 8161 8158 8156 8151 8154 8150 8150 8152 8150 8151 8152 8153 8150 8150 8149 8146 8147 8143 8142 8136 8141 8138 
8163 8156 8151 8146 8143 8146 8142 8143 8149 8143 8144 8147 8145 8141 8147 8145 8146 8145 8147 8148 8148 8147 8148 8148 8150 8154 8155 8153 8156 8158 8150 8150 8145 8145 8146 8143 8144 8141 8148 8146 8149 8152 8149 8151 8157 8158 8157 8158 8160 8159 8160 8159 8158 8158 8156 8159 8161 8159 8158 8156 8151 8149 8149 8147 8146 8148 8149 8150 8151 8150 8153 8156 8149 8148 8147 8144 8140 8139 8138 8138 


