P2
80 60
8283
8122 8152 8158 8150 8135 8120 8112 8111 8115 8123 8126 8140 8137 8134 8137 8137 8149 8158 8163 8167 8173 8182 8187 8188 8189 8190 8184 8182 8176 8177 8180 8187 8186 8185 8190 8187 8190 8184 8180 8180 8175 8164 8161 8159 8150 8143 8149 8173 8188 8199 8199 8203 8202 8207 8212 8213 8211 8207 8208 8207 8209 8211 8210 8205 8202 8199 8196 8195 8195 8198 8199 8200 8201 8200 8205 8206 8201 8208 8206 8206 
8119 8184 8210 8211 8206 8198 8196 8194 8197 8204 8201 8207 8203 8203 8204 8202 8210 8213 8217 8221 8225 8233 8243 8244 8240 8238 8220 8210 8200 8201 8208 8213 8207 8213 8219 8226 8229 8217 8190 8186 8180 8165 8162 8172 8188 8148 8136 8138 8159 8204 8207 8210 8205 8211 8217 8215 8211 8206 8206 8213 8208 8212 8214 8207 8204 8200 8197 8196 8199 8197 8198 8198 8200 8203 8206 8202 8203 8206 8203 8205 
8142 8201 8217 8218 8214 8215 8211 8216 8215 8220 8223 8224 8220 8220 8213 8215 8220 8223 8228 8234 8237 8246 8248 8248 8243 8240 8219 8192 8178 8203 8214 8216 8213 8218 8230 8234 8237 8231 8204 8191 8181 8165 8164 8179 8208 8207 8178 8145 8184 8196 8190 8199 8195 8200 8205 8212 8212 8211 8210 8211 8210 8213 8217 8211 8205 8200 8199 8199 8194 8197 8199 8198 8204 8202 8201 8200 8204 8207 8202 8210 
8169 8211 8217 8215 8219 8214 8214 8220 8222 8233 8234 8234 8229 8221 8219 8222 8226 8230 8234 8241 8241 8249 8251 8250 8240 8225 8171 8150 8156 8205 8217 8217 8219 8220 8237 8242 8244 8242 8211 8173 8163 8151 8145 8147 8188 8196 8214 8189 8186 8145 8142 8157 8146 8152 8163 8173 8187 8200 8210 8216 8209 8216 8215 8210 8207 8204 8198 8197 8196 8196 8196 8200 8199 8201 8200 8201 8206 8208 8205 8208 
8183 8207 8216 8216 8217 8216 8223 8231 8233 8238 8240 8243 8237 8231 8229 8232 8235 8239 8244 8249 8246 8247 8250 8249 8230 8175 8147 8141 8184 8214 8218 8224 8223 8233 8244 8247 8246 8208 8148 8134 8132 8164 8187 8167 8157 8143 8172 8181 8143 8120 8124 8146 8129 8142 8145 8148 8150 8169 8196 8216 8216 8216 8218 8211 8208 8203 8200 8196 8196 8193 8195 8197 8200 8201 8201 8201 8201 8206 8204 8204 
8193 8208 8215 8216 8224 8227 8233 8238 8237 8240 8239 8246 8244 8241 8239 8239 8244 8248 8249 8247 8248 8249 8246 8243 8194 8158 8142 8156 8209 8217 8219 8225 8225 8233 8246 8252 8223 8149 8131 8131 8129 8169 8205 8206 8164 8137 8143 8131 8126 8118 8118 8137 8142 8152 8146 8146 8144 8144 8169 8209 8221 8222 8224 8213 8209 8204 8200 8195 8194 8192 8195 8196 8198 8199 8200 8199 8202 8206 8203 8208 
8198 8211 8216 8218 8222 8232 8237 8237 8239 8245 8242 8247 8244 8242 8240 8241 8245 8251 8246 8251 8251 8246 8242 8214 8162 8154 8140 8164 8212 8213 8219 8225 8225 8234 8248 8251 8241 8201 8127 8118 8159 8168 8155 8127 8173 8185 8143 8134 8127 8118 8118 8167 8218 8204 8177 8158 8150 8145 8152 8195 8220 8229 8229 8221 8211 8208 8204 8197 8197 8196 8195 8197 8197 8200 8202 8200 8203 8206 8208 8210 
8206 8216 8218 8221 8230 8237 8238 8241 8242 8245 8241 8246 8244 8242 8239 8242 8249 8250 8248 8250 8245 8242 8222 8170 8151 8148 8134 8162 8210 8217 8224 8228 8228 8239 8246 8246 8242 8227 8138 8120 8155 8171 8129 8119 8190 8228 8143 8135 8124 8119 8119 8181 8238 8245 8243 8225 8204 8181 8181 8195 8232 8240 8238 8227 8215 8213 8206 8202 8200 8200 8197 8198 8203 8202 8207 8205 8204 8208 8207 8213 
8216 8218 8220 8220 8229 8234 8235 8238 8240 8243 8244 8246 8245 8242 8241 8244 8248 8249 8245 8249 8242 8237 8189 8159 8149 8143 8133 8143 8203 8217 8224 8229 8230 8237 8245 8236 8183 8152 8122 8126 8155 8130 8140 8124 8164 8195 8135 8125 8122 8114 8122 8186 8240 8249 8252 8252 8252 8243 8241 8244 8247 8248 8249 8236 8230 8222 8214 8209 8212 8206 8205 8203 8207 8206 8208 8208 8209 8212 8213 8214 
8218 8219 8220 8223 8229 8234 8236 8237 8238 8241 8241 8245 8241 8245 8241 8246 8249 8250 8247 8249 8244 8227 8166 8155 8147 8145 8133 8133 8174 8214 8222 8229 8232 8237 8244 8209 8147 8143 8131 8132 8157 8134 8134 8113 8122 8129 8137 8128 8124 8124 8135 8176 8237 8250 8238 8249 8256 8254 8251 8252 8250 8251 8250 8240 8234 8229 8223 8217 8217 8213 8212 8212 8215 8214 8215 8214 8215 8219 8216 8217 
8224 8224 8225 8228 8229 8234 8235 8235 8239 8240 8240 8244 8243 8247 8243 8245 8248 8251 8247 8249 8240 8204 8156 8146 8143 8147 8144 8136 8139 8185 8221 8229 8230 8237 8240 8220 8189 8181 8135 8131 8128 8117 8110 8108 8107 8115 8134 8150 8143 8138 8152 8169 8228 8243 8186 8221 8247 8255 8251 8256 8254 8254 8255 8243 8238 8231 8226 8222 8220 8218 8217 8217 8218 8215 8220 8217 8219 8223 8221 8223 
8224 8226 8229 8230 8230 8237 8242 8238 8240 8242 8240 8245 8247 8247 8248 8247 8251 8249 8246 8247 8236 8182 8153 8145 8145 8156 8166 8171 8167 8163 8191 8217 8228 8236 8236 8203 8133 8129 8145 8138 8135 8128 8118 8124 8128 8156 8144 8151 8158 8161 8164 8175 8227 8218 8157 8167 8232 8255 8254 8259 8259 8257 8258 8249 8242 8235 8228 8222 8220 8218 8218 8217 8223 8222 8221 8220 8220 8225 8218 8221 
8230 8231 8232 8235 8236 8241 8244 8241 8241 8244 8243 8250 8246 8248 8249 8248 8253 8252 8247 8245 8223 8162 8145 8153 8190 8220 8220 8218 8217 8213 8200 8183 8203 8228 8211 8146 8123 8125 8147 8132 8124 8127 8133 8123 8133 8215 8168 8148 8157 8166 8167 8173 8192 8153 8150 8142 8186 8245 8258 8262 8261 8262 8262 8254 8245 8239 8233 8227 8223 8219 8220 8219 8220 8222 8221 8218 8224 8226 8219 8225 
8236 8235 8239 8235 8240 8242 8243 8245 8243 8247 8246 8252 8250 8250 8251 8250 8252 8252 8246 8218 8158 8132 8157 8216 8230 8236 8227 8224 8219 8221 8227 8226 8194 8174 8155 8137 8123 8124 8122 8127 8143 8133 8143 8135 8136 8192 8216 8172 8151 8160 8164 8166 8150 8148 8151 8147 8156 8231 8263 8266 8263 8261 8267 8255 8253 8247 8238 8233 8228 8225 8222 8226 8225 8224 8225 8221 8223 8225 8222 8220 
8241 8245 8243 8243 8243 8245 8243 8241 8243 8247 8246 8253 8252 8255 8251 8252 8255 8253 8239 8168 8133 8133 8143 8188 8224 8238 8229 8223 8220 8218 8221 8212 8221 8164 8136 8130 8123 8117 8107 8110 8144 8137 8132 8140 8141 8136 8150 8154 8148 8147 8157 8162 8182 8175 8161 8163 8159 8197 8258 8269 8263 8263 8257 8256 8257 8253 8244 8241 8235 8230 8227 8228 8229 8225 8229 8224 8225 8224 8225 8223 
8248 8250 8249 8248 8248 8248 8245 8242 8245 8248 8248 8254 8255 8252 8249 8251 8252 8255 8251 8234 8173 8139 8138 8144 8174 8225 8228 8223 8214 8188 8156 8144 8155 8141 8123 8121 8117 8121 8116 8111 8113 8119 8130 8134 8130 8126 8127 8135 8135 8143 8181 8203 8213 8173 8161 8166 8172 8181 8245 8263 8257 8253 8213 8243 8254 8252 8243 8241 8237 8235 8230 8227 8232 8227 8225 8228 8228 8228 8227 8225 
8252 8252 8252 8253 8247 8248 8245 8246 8246 8249 8251 8256 8255 8253 8252 8251 8253 8255 8251 8251 8238 8195 8154 8143 8142 8160 8205 8209 8155 8139 8134 8131 8114 8113 8115 8117 8117 8115 8119 8124 8128 8129 8129 8134 8125 8124 8124 8125 8117 8115 8183 8246 8232 8157 8159 8168 8172 8181 8212 8255 8254 8214 8178 8222 8248 8250 8243 8243 8241 8234 8233 8232 8234 8233 8232 8231 8231 8231 8227 8232 
8256 8253 8257 8252 8251 8247 8247 8247 8245 8252 8251 8257 8255 8257 8253 8256 8255 8258 8255 8255 8250 8243 8214 8165 8145 8144 8143 8146 8136 8126 8124 8126 8129 8109 8111 8115 8115 8114 8113 8121 8130 8129 8135 8144 8128 8128 8130 8151 8140 8121 8154 8239 8166 8148 8159 8174 8179 8175 8183 8210 8219 8164 8160 8192 8242 8247 8244 8242 8240 8236 8233 8235 8235 8239 8237 8236 8234 8233 8230 8234 
8255 8255 8255 8252 8248 8246 8248 8246 8251 8253 8256 8261 8258 8261 8260 8257 8259 8261 8255 8257 8248 8246 8243 8228 8177 8151 8139 8139 8131 8121 8121 8116 8109 8106 8103 8112 8113 8112 8111 8116 8125 8127 8132 8139 8126 8127 8137 8220 8235 8178 8183 8175 8143 8151 8162 8170 8174 8175 8175 8178 8164 8150 8161 8182 8236 8247 8243 8242 8240 8239 8241 8243 8243 8244 8241 8239 8237 8238 8236 8236 
8250 8248 8249 8247 8246 8247 8246 8250 8253 8259 8261 8267 8261 8261 8256 8260 8258 8258 8256 8256 8247 8243 8245 8242 8236 8197 8141 8131 8121 8123 8122 8119 8107 8102 8100 8104 8115 8113 8112 8115 8126 8133 8132 8130 8128 8122 8144 8226 8232 8193 8179 8186 8166 8151 8161 8166 8166 8167 8164 8169 8161 8158 8162 8174 8230 8243 8242 8242 8241 8241 8242 8245 8249 8248 8247 8243 8241 8246 8239 8244 
8250 8247 8248 8245 8245 8246 8247 8253 8258 8260 8260 8265 8262 8260 8259 8257 8261 8261 8255 8258 8247 8241 8241 8242 8241 8234 8169 8128 8123 8126 8124 8119 8111 8106 8098 8095 8110 8114 8116 8115 8119 8129 8126 8131 8117 8116 8124 8157 8173 8188 8173 8181 8204 8233 8201 8164 8166 8163 8162 8165 8164 8165 8162 8169 8227 8243 8241 8241 8241 8241 8240 8248 8245 8250 8245 8247 8245 8244 8244 8240 
8246 8243 8246 8244 8248 8247 8249 8258 8259 8260 8260 8264 8264 8260 8260 8258 8261 8258 8254 8253 8242 8242 8242 8243 8239 8240 8209 8146 8139 8126 8125 8122 8115 8109 8107 8103 8117 8111 8106 8116 8121 8123 8122 8115 8110 8113 8119 8119 8125 8137 8158 8215 8226 8242 8243 8190 8161 8162 8162 8168 8166 8166 8167 8167 8217 8242 8242 8238 8239 8241 8241 8245 8244 8243 8246 8244 8245 8247 8245 8244 
8247 8244 8245 8246 8246 8248 8254 8258 8259 8260 8258 8264 8262 8261 8260 8256 8258 8258 8253 8252 8240 8238 8239 8237 8236 8236 8227 8196 8179 8120 8123 8125 8124 8123 8113 8125 8204 8130 8111 8122 8116 8117 8116 8111 8109 8117 8118 8118 8123 8130 8129 8151 8197 8210 8182 8144 8143 8158 8160 8170 8165 8169 8166 8157 8177 8230 8240 8240 8240 8239 8240 8239 8243 8243 8242 8244 8244 8247 8244 8247 
8248 8247 8247 8246 8246 8248 8252 8258 8259 8263 8260 8264 8261 8262 8260 8259 8260 8257 8249 8248 8241 8240 8235 8226 8172 8156 8208 8226 8167 8099 8102 8121 8124 8126 8125 8118 8148 8122 8112 8122 8120 8121 8122 8125 8128 8127 8128 8125 8127 8128 8129 8133 8217 8253 8250 8204 8132 8139 8161 8172 8170 8173 8167 8150 8154 8204 8236 8235 8237 8239 8236 8241 8240 8238 8241 8243 8246 8247 8245 8241 
8250 8250 8248 8248 8248 8252 8254 8255 8258 8261 8260 8262 8263 8261 8257 8254 8254 8252 8248 8244 8237 8232 8226 8155 8112 8116 8136 8210 8146 8094 8093 8099 8127 8126 8119 8116 8113 8110 8107 8112 8106 8095 8113 8125 8132 8134 8132 8134 8134 8132 8133 8130 8184 8248 8259 8255 8198 8122 8143 8164 8166 8167 8154 8145 8142 8169 8221 8235 8238 8235 8233 8239 8242 8239 8241 8242 8243 8247 8244 8246 
8251 8251 8251 8251 8250 8254 8256 8256 8255 8257 8257 8263 8262 8261 8253 8249 8228 8207 8244 8246 8236 8224 8156 8108 8106 8116 8120 8170 8146 8094 8095 8109 8120 8128 8125 8112 8114 8115 8118 8111 8092 8097 8100 8109 8122 8124 8123 8137 8146 8138 8140 8140 8148 8204 8247 8254 8241 8144 8120 8138 8143 8144 8150 8153 8140 8145 8189 8228 8238 8236 8232 8235 8235 8238 8237 8240 8241 8244 8243 8244 
8254 8255 8254 8252 8252 8254 8255 8252 8252 8254 8255 8259 8257 8255 8247 8205 8123 8145 8237 8240 8227 8169 8109 8107 8110 8117 8118 8147 8166 8103 8107 8116 8121 8129 8135 8117 8106 8119 8112 8112 8115 8113 8102 8106 8106 8116 8109 8116 8131 8133 8141 8150 8152 8168 8193 8236 8244 8165 8119 8121 8128 8144 8152 8152 8141 8146 8164 8218 8235 8238 8238 8235 8238 8235 8238 8239 8235 8244 8241 8243 
8256 8254 8255 8257 8255 8252 8248 8249 8246 8250 8251 8250 8248 8247 8240 8184 8107 8147 8234 8234 8203 8113 8104 8110 8109 8118 8118 8140 8181 8115 8114 8119 8121 8125 8120 8096 8102 8119 8125 8128 8128 8128 8105 8106 8104 8109 8102 8116 8131 8140 8153 8157 8162 8166 8168 8176 8229 8154 8117 8127 8130 8149 8151 8145 8149 8174 8167 8211 8232 8235 8238 8241 8241 8240 8241 8240 8235 8242 8244 8241 
8250 8254 8254 8251 8248 8248 8246 8231 8190 8175 8212 8235 8240 8239 8201 8163 8102 8168 8226 8219 8179 8105 8104 8107 8113 8123 8121 8147 8140 8117 8117 8122 8121 8111 8103 8096 8116 8130 8134 8134 8133 8133 8125 8107 8112 8117 8122 8133 8143 8150 8156 8154 8148 8157 8164 8168 8184 8150 8122 8126 8137 8147 8144 8141 8150 8200 8203 8222 8231 8236 8237 8242 8244 8243 8244 8244 8240 8243 8243 8245 
8253 8250 8250 8247 8243 8244 8229 8180 8132 8122 8123 8145 8184 8219 8152 8111 8110 8179 8163 8135 8119 8103 8106 8112 8118 8122 8127 8189 8135 8118 8120 8123 8112 8100 8099 8095 8118 8134 8136 8138 8139 8137 8132 8116 8117 8118 8140 8147 8150 8153 8156 8158 8156 8165 8172 8172 8167 8158 8137 8132 8135 8145 8143 8140 8136 8157 8205 8225 8232 8229 8235 8239 8242 8243 8246 8246 8246 8246 8247 8246 
8252 8249 8247 8247 8240 8216 8196 8144 8105 8104 8107 8116 8124 8137 8175 8133 8118 8108 8115 8116 8112 8108 8106 8116 8118 8129 8181 8207 8127 8123 8119 8105 8100 8097 8096 8098 8115 8133 8138 8141 8137 8137 8137 8123 8125 8127 8150 8164 8168 8165 8163 8163 8162 8171 8168 8165 8163 8161 8156 8140 8134 8143 8146 8143 8132 8131 8172 8215 8227 8227 8228 8233 8240 8239 8241 8240 8241 8244 8241 8240 
8254 8252 8248 8246 8243 8202 8132 8111 8101 8105 8107 8119 8120 8122 8151 8135 8103 8100 8108 8109 8104 8103 8122 8171 8153 8203 8225 8189 8136 8113 8101 8100 8103 8098 8094 8108 8110 8129 8138 8142 8137 8140 8140 8125 8120 8141 8151 8165 8173 8175 8174 8169 8158 8163 8165 8167 8163 8157 8155 8148 8132 8132 8136 8131 8126 8136 8161 8205 8220 8222 8225 8230 8234 8235 8238 8238 8239 8242 8240 8241 
8252 8250 8249 8250 8247 8237 8180 8128 8103 8101 8099 8103 8123 8195 8224 8165 8102 8100 8103 8092 8091 8094 8102 8181 8204 8213 8224 8164 8126 8103 8094 8090 8101 8106 8117 8115 8107 8109 8136 8147 8138 8142 8138 8121 8115 8128 8147 8165 8171 8175 8174 8173 8167 8172 8170 8170 8168 8164 8159 8153 8124 8121 8129 8127 8126 8137 8155 8195 8220 8221 8225 8229 8232 8234 8240 8238 8238 8240 8240 8240 
8254 8255 8257 8253 8251 8247 8208 8159 8124 8113 8119 8143 8206 8240 8228 8144 8103 8104 8107 8107 8097 8099 8107 8141 8193 8186 8206 8135 8106 8096 8091 8108 8124 8133 8137 8128 8106 8107 8122 8138 8139 8139 8137 8121 8115 8114 8119 8160 8170 8172 8174 8173 8170 8180 8180 8174 8168 8161 8159 8154 8129 8124 8125 8123 8128 8138 8149 8188 8222 8226 8226 8229 8234 8234 8238 8238 8238 8241 8240 8244 
8259 8257 8256 8258 8254 8255 8251 8241 8202 8192 8220 8242 8248 8243 8232 8147 8101 8106 8107 8104 8101 8109 8153 8177 8137 8131 8155 8115 8104 8103 8110 8129 8133 8140 8137 8135 8112 8102 8108 8114 8117 8125 8127 8119 8118 8109 8114 8145 8168 8169 8173 8177 8173 8177 8177 8177 8171 8159 8157 8153 8142 8129 8127 8127 8136 8143 8154 8195 8226 8231 8230 8232 8236 8236 8241 8241 8240 8244 8241 8244 
8263 8263 8257 8258 8256 8256 8252 8256 8253 8252 8249 8253 8249 8247 8232 8136 8103 8105 8108 8107 8115 8184 8210 8220 8180 8149 8122 8117 8113 8118 8117 8122 8132 8142 8136 8131 8127 8102 8101 8103 8092 8093 8100 8116 8115 8106 8109 8121 8154 8161 8167 8172 8167 8173 8174 8174 8167 8158 8155 8151 8139 8135 8141 8140 8149 8153 8161 8208 8229 8229 8229 8234 8238 8237 8241 8239 8241 8246 8246 8241 
8269 8265 8264 8262 8260 8255 8256 8254 8252 8255 8253 8257 8249 8247 8228 8131 8105 8108 8110 8107 8152 8161 8122 8148 8188 8140 8123 8120 8121 8123 8129 8128 8129 8134 8136 8132 8131 8116 8104 8096 8090 8093 8105 8121 8119 8110 8107 8107 8123 8152 8162 8169 8163 8170 8176 8168 8165 8158 8154 8149 8138 8138 8147 8152 8160 8166 8181 8223 8234 8232 8235 8235 8239 8239 8240 8240 8243 8246 8243 8244 
8267 8265 8262 8262 8264 8258 8256 8257 8256 8254 8254 8252 8248 8250 8239 8198 8142 8119 8101 8088 8088 8090 8092 8109 8185 8137 8121 8120 8123 8116 8123 8130 8127 8128 8135 8135 8129 8131 8110 8098 8093 8099 8114 8129 8136 8141 8115 8105 8104 8109 8132 8152 8153 8159 8158 8151 8153 8151 8150 8149 8138 8139 8149 8156 8164 8180 8214 8229 8235 8235 8236 8236 8239 8237 8240 8241 8244 8246 8240 8244 
8264 8265 8265 8262 8258 8258 8258 8255 8254 8254 8248 8233 8246 8249 8242 8237 8225 8172 8091 8087 8084 8088 8090 8104 8121 8115 8109 8111 8113 8109 8112 8120 8122 8122 8129 8132 8135 8135 8122 8111 8107 8108 8122 8133 8148 8155 8136 8104 8105 8099 8099 8105 8107 8110 8113 8113 8125 8142 8151 8150 8144 8145 8154 8161 8180 8215 8228 8230 8235 8234 8236 8237 8240 8239 8238 8241 8240 8245 8242 8239 
8268 8263 8267 8264 8259 8259 8259 8257 8258 8255 8238 8165 8227 8244 8243 8237 8231 8152 8087 8088 8087 8088 8097 8108 8120 8112 8107 8112 8114 8118 8118 8121 8116 8119 8125 8129 8136 8136 8140 8123 8121 8125 8131 8138 8146 8148 8134 8107 8101 8103 8101 8104 8098 8102 8104 8107 8119 8131 8151 8154 8152 8155 8169 8187 8217 8230 8230 8233 8236 8236 8235 8237 8236 8242 8240 8240 8240 8244 8241 8240 
8268 8263 8267 8262 8261 8261 8262 8259 8259 8259 8236 8148 8158 8207 8230 8231 8225 8123 8088 8090 8088 8089 8101 8130 8124 8116 8109 8114 8112 8120 8124 8122 8112 8116 8125 8126 8137 8141 8149 8145 8127 8125 8128 8139 8140 8133 8122 8107 8100 8103 8102 8100 8097 8104 8104 8107 8113 8123 8146 8159 8155 8181 8211 8226 8234 8237 8229 8231 8236 8232 8233 8238 8242 8238 8239 8241 8239 8247 8241 8241 
8267 8265 8266 8266 8260 8260 8262 8262 8260 8254 8245 8167 8114 8117 8145 8210 8209 8111 8089 8090 8088 8092 8125 8140 8116 8116 8109 8116 8116 8120 8123 8115 8111 8114 8121 8123 8138 8149 8152 8144 8128 8111 8120 8133 8132 8123 8119 8107 8098 8100 8103 8107 8100 8106 8109 8110 8111 8120 8136 8157 8171 8218 8237 8235 8236 8232 8230 8233 8230 8231 8232 8237 8240 8241 8240 8242 8240 8245 8242 8241 
8264 8264 8266 8263 8262 8261 8263 8258 8257 8258 8250 8197 8121 8107 8107 8129 8152 8107 8093 8095 8093 8116 8148 8110 8109 8114 8112 8118 8113 8116 8113 8112 8113 8115 8119 8121 8131 8146 8145 8133 8113 8130 8133 8133 8145 8141 8127 8116 8110 8100 8104 8112 8104 8112 8109 8109 8116 8132 8150 8189 8217 8234 8240 8237 8234 8231 8229 8228 8231 8228 8232 8234 8238 8239 8240 8244 8243 8244 8243 8238 
8269 8264 8266 8263 8259 8261 8261 8258 8258 8258 8251 8219 8131 8109 8107 8136 8190 8116 8100 8105 8115 8173 8121 8111 8113 8115 8109 8111 8113 8111 8111 8114 8112 8113 8119 8120 8126 8138 8143 8135 8118 8133 8144 8137 8134 8130 8122 8127 8119 8107 8108 8113 8112 8116 8113 8117 8124 8146 8189 8218 8219 8219 8229 8232 8232 8231 8229 8227 8230 8231 8233 8237 8238 8239 8244 8244 8243 8246 8244 8241 
8269 8267 8266 8264 8260 8262 8264 8259 8256 8258 8254 8230 8139 8115 8117 8191 8214 8131 8106 8126 8187 8200 8124 8112 8112 8115 8112 8105 8111 8113 8114 8114 8113 8113 8117 8118 8122 8132 8139 8139 8135 8131 8135 8130 8117 8119 8113 8119 8122 8111 8110 8111 8115 8132 8136 8133 8132 8148 8160 8161 8163 8168 8178 8208 8228 8229 8226 8229 8232 8230 8235 8236 8237 8241 8242 8243 8241 8243 8242 8243 
8269 8266 8264 8266 8261 8258 8259 8261 8259 8261 8254 8230 8144 8124 8148 8227 8224 8147 8133 8205 8219 8212 8137 8114 8114 8115 8110 8108 8111 8118 8123 8123 8115 8117 8114 8118 8123 8133 8139 8142 8132 8131 8125 8141 8131 8121 8121 8124 8132 8120 8114 8115 8114 8130 8141 8141 8137 8132 8138 8147 8149 8160 8167 8173 8215 8228 8228 8229 8230 8233 8232 8236 8241 8241 8240 8240 8242 8243 8246 8245 
8268 8269 8267 8266 8262 8261 8259 8262 8259 8259 8256 8240 8150 8128 8201 8232 8232 8206 8213 8227 8226 8221 8159 8122 8112 8115 8109 8109 8110 8118 8120 8118 8117 8114 8119 8118 8127 8145 8148 8133 8131 8122 8118 8144 8150 8148 8140 8143 8141 8131 8114 8120 8116 8124 8141 8146 8145 8141 8143 8146 8149 8160 8165 8161 8185 8224 8228 8230 8229 8232 8232 8234 8242 8239 8242 8241 8244 8247 8245 8242 
8269 8266 8269 8261 8262 8261 8261 8259 8258 8258 8256 8244 8149 8141 8226 8235 8234 8230 8226 8233 8227 8230 8217 8142 8114 8118 8116 8112 8131 8122 8120 8123 8111 8114 8118 8117 8129 8146 8150 8139 8151 8134 8121 8137 8148 8155 8147 8142 8144 8141 8119 8111 8114 8119 8134 8148 8154 8151 8153 8159 8153 8160 8160 8159 8177 8224 8227 8230 8230 8229 8232 8233 8239 8240 8243 8243 8244 8248 8242 8246 
8269 8267 8266 8269 8261 8262 8262 8257 8255 8259 8251 8236 8139 8168 8234 8235 8235 8234 8229 8232 8229 8231 8231 8181 8121 8122 8118 8139 8186 8137 8126 8123 8120 8118 8123 8123 8125 8124 8116 8125 8154 8140 8127 8128 8137 8146 8150 8136 8141 8140 8131 8118 8118 8126 8130 8154 8152 8151 8152 8157 8151 8156 8164 8161 8178 8220 8228 8227 8229 8228 8231 8234 8238 8236 8242 8241 8243 8243 8242 8242 
8269 8268 8270 8268 8266 8261 8261 8260 8258 8257 8253 8229 8139 8187 8236 8238 8235 8234 8229 8232 8231 8231 8234 8208 8150 8148 8159 8206 8217 8204 8149 8126 8125 8125 8129 8125 8122 8108 8110 8121 8145 8142 8138 8130 8130 8147 8152 8141 8148 8151 8145 8136 8142 8137 8137 8151 8152 8147 8150 8157 8150 8159 8164 8166 8180 8219 8224 8229 8228 8229 8233 8233 8236 8239 8238 8241 8238 8244 8243 8243 
8267 8269 8269 8266 8265 8260 8260 8258 8255 8259 8250 8204 8133 8199 8235 8235 8233 8233 8229 8233 8229 8232 8235 8236 8226 8230 8228 8226 8223 8218 8181 8123 8121 8122 8128 8126 8114 8113 8113 8120 8131 8140 8144 8150 8132 8137 8153 8149 8155 8159 8154 8154 8160 8155 8141 8148 8152 8148 8154 8163 8160 8161 8168 8166 8196 8224 8229 8224 8228 8228 8227 8231 8234 8234 8236 8237 8237 8242 8241 8238 
8268 8268 8266 8263 8262 8262 8260 8258 8258 8254 8245 8171 8130 8205 8235 8234 8232 8231 8229 8230 8229 8229 8236 8236 8235 8240 8237 8227 8223 8219 8193 8124 8111 8108 8110 8106 8105 8114 8130 8152 8143 8143 8146 8152 8148 8148 8159 8147 8154 8166 8164 8163 8161 8158 8147 8152 8153 8157 8164 8167 8164 8166 8170 8176 8204 8229 8227 8226 8224 8222 8227 8224 8232 8230 8231 8232 8235 8237 8235 8238 
8271 8266 8269 8263 8263 8260 8259 8259 8255 8256 8232 8151 8135 8213 8232 8233 8233 8233 8228 8230 8230 8229 8231 8230 8231 8239 8234 8230 8225 8221 8199 8132 8115 8105 8102 8102 8105 8113 8143 8175 8157 8153 8161 8142 8138 8143 8152 8155 8165 8172 8180 8187 8166 8148 8148 8153 8157 8161 8167 8171 8162 8167 8175 8184 8222 8231 8227 8228 8223 8222 8220 8225 8226 8224 8227 8224 8227 8231 8233 8234 
8268 8267 8267 8265 8261 8259 8259 8258 8256 8255 8231 8159 8155 8225 8232 8230 8228 8229 8229 8231 8229 8227 8225 8226 8223 8231 8232 8228 8228 8222 8223 8161 8119 8105 8100 8100 8107 8116 8153 8173 8167 8164 8160 8154 8159 8160 8168 8175 8186 8196 8206 8190 8151 8149 8151 8158 8160 8173 8175 8175 8167 8172 8181 8199 8229 8228 8225 8223 8221 8219 8223 8223 8224 8221 8220 8225 8222 8226 8225 8224 
8267 8264 8268 8270 8263 8260 8258 8257 8253 8252 8246 8231 8220 8238 8233 8230 8229 8230 8229 8227 8225 8226 8223 8223 8222 8230 8224 8223 8221 8223 8224 8211 8130 8104 8105 8104 8108 8123 8170 8187 8187 8186 8186 8192 8190 8195 8193 8197 8210 8218 8213 8177 8144 8146 8156 8161 8165 8182 8186 8189 8181 8188 8190 8219 8227 8229 8224 8221 8220 8218 8217 8218 8218 8218 8220 8221 8222 8222 8226 8225 
8268 8265 8266 8266 8262 8260 8261 8259 8255 8254 8250 8247 8240 8236 8229 8230 8230 8230 8225 8227 8225 8223 8223 8225 8222 8229 8219 8222 8222 8228 8226 8211 8133 8112 8112 8114 8123 8165 8200 8202 8199 8198 8199 8206 8208 8216 8223 8227 8227 8223 8218 8177 8147 8152 8162 8165 8170 8190 8193 8188 8185 8192 8207 8232 8228 8225 8221 8218 8217 8217 8213 8216 8217 8216 8218 8221 8220 8220 8222 8222 
8269 8267 8269 8265 8261 8260 8259 8254 8252 8253 8249 8249 8243 8237 8231 8227 8230 8228 8226 8227 8223 8226 8224 8224 8224 8224 8224 8223 8228 8229 8232 8223 8195 8177 8164 8168 8185 8211 8220 8222 8222 8219 8219 8227 8227 8229 8231 8230 8230 8228 8219 8190 8150 8160 8171 8173 8182 8192 8189 8187 8187 8200 8228 8237 8228 8225 8219 8215 8216 8214 8215 8212 8216 8219 8219 8218 8216 8220 8220 8221 
8273 8270 8269 8266 8260 8260 8255 8253 8253 8251 8249 8251 8242 8236 8225 8226 8229 8229 8229 8228 8221 8226 8226 8225 8225 8229 8224 8227 8229 8232 8235 8235 8223 8218 8217 8213 8215 8216 8223 8225 8221 8224 8225 8231 8230 8229 8230 8230 8233 8227 8223 8219 8171 8166 8176 8177 8188 8189 8185 8186 8192 8221 8241 8238 8229 8223 8220 8215 8216 8216 8215 8217 8218 8217 8215 8218 8216 8222 8218 8222 
8276 8277 8265 8266 8261 8257 8257 8256 8251 8248 8246 8247 8242 8234 8227 8225 8228 8225 8223 8229 8224 8225 8231 8230 8224 8228 8223 8224 8228 8233 8234 8239 8229 8225 8222 8216 8214 8221 8220 8222 8220 8221 8227 8230 8229 8232 8232 8233 8233 8230 8226 8226 8210 8181 8180 8181 8186 8184 8183 8196 8220 8239 8243 8237 8228 8224 8219 8219 8218 8216 8216 8215 8216 8212 8216 8216 8215 8220 8219 8221 
8283 8275 8270 8265 8262 8258 8256 8252 8248 8250 8245 8247 8242 8233 8227 8224 8225 8226 8224 8226 8224 8226 8229 8226 8225 8228 8220 8219 8220 8222 8236 8234 8231 8226 8217 8207 8204 8210 8209 8206 8205 8207 8211 8214 8218 8225 8221 8220 8215 8228 8230 8226 8212 8201 8192 8192 8192 8194 8213 8227 8231 8232 8232 8232 8226 8222 8217 8216 8218 8219 8217 8216 8216 8211 8214 8216 8214 8219 8217 8213 


