P2
80 60
8221
8116 8113 8110 8114 8116 8121 8129 8125 8125 8126 8128 8129 8140 8149 8153 8153 8159 8159 8160 8162 8166 8168 8169 8174 8174 8171 8171 8171 8172 8174 8174 8179 8183 8183 8185 8183 8188 8193 8197 8198 8198 8196 8198 8201 8198 8205 8205 8202 8204 8203 8197 8198 8196 8196 8195 8191 8187 8189 8185 8188 8187 8187 8186 8184 8185 8186 8186 8184 8194 8192 8194 8197 8195 8193 8195 8192 8194 8202 8202 8202 
8111 8110 8110 8111 8116 8134 8153 8153 8151 8151 8154 8155 8159 8160 8165 8163 8159 8160 8163 8166 8170 8170 8168 8170 8171 8170 8174 8172 8174 8177 8175 8181 8180 8181 8184 8183 8185 8192 8199 8199 8202 8198 8198 8200 8199 8201 8204 8204 8203 8203 8199 8201 8197 8195 8196 8192 8188 8189 8188 8189 8188 8188 8189 8183 8186 8184 8185 8187 8191 8192 8194 8195 8196 8196 8195 8194 8196 8202 8204 8199 
8108 8111 8111 8112 8122 8149 8159 8162 8162 8163 8159 8163 8166 8167 8170 8169 8165 8166 8167 8170 8173 8170 8171 8171 8171 8174 8172 8174 8173 8175 8178 8180 8183 8183 8185 8183 8186 8192 8201 8201 8202 8200 8199 8199 8203 8205 8209 8203 8204 8205 8196 8201 8201 8200 8199 8195 8192 8192 8190 8192 8192 8194 8190 8187 8185 8189 8187 8190 8193 8194 8196 8197 8196 8196 8197 8198 8195 8200 8204 8202 
8111 8113 8114 8114 8137 8157 8163 8164 8166 8164 8165 8168 8170 8168 8170 8168 8169 8168 8171 8170 8171 8171 8173 8171 8174 8171 8174 8175 8175 8176 8178 8183 8186 8187 8185 8186 8188 8199 8200 8204 8204 8201 8204 8199 8202 8207 8208 8207 8207 8203 8198 8202 8201 8199 8198 8199 8196 8197 8198 8192 8193 8192 8192 8187 8186 8186 8188 8191 8192 8193 8195 8194 8197 8195 8194 8198 8196 8196 8201 8201 
8114 8115 8112 8113 8149 8161 8165 8166 8167 8163 8167 8169 8164 8167 8165 8165 8167 8167 8171 8171 8176 8173 8174 8174 8175 8174 8177 8178 8177 8183 8182 8188 8188 8188 8188 8189 8194 8197 8203 8206 8204 8204 8205 8202 8201 8206 8207 8205 8207 8204 8203 8204 8203 8203 8201 8201 8199 8200 8198 8196 8194 8191 8192 8190 8189 8190 8192 8192 8192 8193 8196 8197 8196 8194 8193 8193 8195 8190 8199 8199 
8118 8120 8119 8128 8158 8163 8168 8165 8164 8166 8165 8166 8168 8166 8165 8167 8166 8170 8174 8176 8179 8175 8179 8175 8177 8177 8178 8178 8179 8182 8183 8186 8188 8186 8190 8188 8194 8196 8201 8204 8203 8202 8201 8202 8204 8205 8205 8205 8206 8204 8203 8207 8204 8206 8205 8202 8201 8201 8198 8199 8196 8195 8192 8192 8191 8192 8193 8190 8195 8194 8197 8199 8196 8193 8196 8192 8191 8192 8198 8196 
8128 8127 8127 8151 8165 8167 8169 8171 8167 8165 8165 8171 8170 8170 8169 8169 8170 8174 8177 8180 8179 8175 8180 8179 8181 8179 8180 8181 8178 8182 8184 8189 8186 8188 8187 8191 8195 8199 8203 8207 8206 8203 8204 8203 8204 8206 8205 8206 8208 8208 8206 8207 8206 8207 8207 8204 8201 8202 8200 8200 8198 8195 8195 8192 8193 8193 8193 8194 8195 8194 8195 8195 8193 8195 8193 8192 8194 8194 8197 8197 
8135 8131 8142 8162 8165 8170 8170 8172 8164 8163 8167 8169 8171 8169 8170 8172 8173 8179 8180 8180 8182 8182 8181 8179 8182 8180 8177 8178 8178 8180 8184 8186 8191 8188 8190 8192 8192 8200 8204 8205 8207 8204 8207 8204 8204 8207 8206 8209 8209 8208 8206 8209 8206 8208 8206 8207 8203 8204 8202 8198 8198 8194 8197 8193 8196 8197 8193 8197 8194 8197 8199 8198 8194 8195 8191 8192 8191 8193 8195 8198 
8137 8139 8150 8161 8170 8170 8174 8171 8170 8170 8170 8172 8174 8171 8172 8174 8175 8179 8183 8183 8186 8182 8180 8181 8179 8177 8178 8180 8181 8182 8186 8188 8189 8187 8190 8194 8198 8201 8207 8209 8207 8206 8208 8206 8208 8210 8208 8209 8209 8210 8208 8208 8210 8209 8206 8208 8203 8204 8203 8199 8200 8197 8199 8195 8195 8198 8196 8199 8199 8197 8198 8198 8197 8193 8195 8191 8195 8194 8196 8198 
8145 8146 8161 8169 8170 8172 8173 8174 8172 8173 8172 8176 8174 8174 8175 8176 8178 8178 8180 8185 8182 8180 8178 8178 8175 8177 8180 8180 8183 8186 8186 8191 8190 8191 8193 8195 8199 8203 8206 8207 8206 8211 8208 8206 8209 8212 8213 8216 8213 8210 8207 8207 8209 8209 8205 8203 8204 8201 8203 8204 8201 8201 8199 8196 8196 8197 8199 8200 8197 8203 8199 8200 8196 8195 8195 8198 8198 8200 8199 8197 
8152 8157 8169 8174 8176 8174 8171 8174 8175 8177 8174 8174 8177 8172 8176 8178 8177 8179 8179 8179 8183 8178 8178 8179 8179 8176 8182 8179 8184 8188 8186 8191 8191 8190 8195 8194 8198 8203 8208 8209 8208 8206 8209 8210 8209 8215 8217 8213 8213 8211 8207 8210 8207 8210 8207 8203 8205 8203 8204 8202 8201 8200 8200 8197 8195 8199 8200 8200 8200 8199 8201 8202 8197 8199 8199 8201 8201 8200 8205 8200 
8160 8171 8174 8176 8177 8171 8172 8176 8174 8173 8174 8173 8173 8172 8176 8175 8174 8178 8179 8180 8181 8179 8177 8179 8182 8177 8181 8183 8183 8186 8188 8187 8190 8189 8193 8193 8200 8204 8206 8207 8209 8210 8208 8211 8213 8217 8215 8211 8214 8211 8209 8211 8209 8210 8208 8203 8202 8205 8205 8204 8201 8201 8199 8197 8197 8198 8200 8200 8200 8200 8203 8200 8199 8198 8200 8201 8205 8206 8208 8202 
8171 8181 8179 8175 8177 8175 8172 8172 8172 8174 8173 8175 8172 8172 8174 8175 8175 8178 8178 8179 8181 8176 8174 8177 8179 8175 8180 8181 8183 8185 8186 8188 8190 8191 8195 8192 8197 8200 8202 8204 8208 8208 8209 8209 8212 8214 8215 8213 8213 8212 8207 8212 8210 8209 8207 8205 8206 8206 8203 8201 8200 8201 8199 8195 8198 8199 8196 8198 8198 8198 8201 8199 8197 8199 8203 8202 8208 8208 8210 8207 
8172 8185 8184 8184 8180 8178 8175 8174 8171 8171 8172 8171 8174 8172 8176 8179 8176 8181 8179 8178 8179 8176 8172 8178 8176 8178 8181 8181 8182 8184 8187 8190 8192 8191 8190 8196 8197 8200 8204 8206 8207 8204 8209 8211 8210 8211 8210 8210 8213 8211 8211 8212 8209 8209 8206 8204 8206 8203 8202 8201 8201 8200 8199 8197 8197 8197 8199 8197 8200 8200 8201 8200 8199 8201 8203 8203 8208 8210 8209 8206 
8182 8184 8184 8182 8181 8177 8177 8177 8174 8173 8172 8174 8172 8175 8176 8178 8177 8178 8181 8180 8177 8177 8175 8175 8177 8179 8181 8177 8178 8183 8186 8189 8191 8190 8191 8196 8196 8199 8205 8202 8207 8205 8208 8207 8208 8209 8209 8209 8210 8213 8211 8213 8206 8207 8206 8205 8202 8203 8204 8200 8200 8198 8198 8199 8195 8198 8199 8197 8198 8202 8201 8201 8199 8204 8201 8205 8207 8210 8209 8206 
8184 8184 8185 8186 8183 8177 8177 8178 8175 8175 8174 8176 8174 8175 8175 8179 8178 8180 8181 8179 8176 8175 8172 8175 8174 8173 8167 8158 8155 8180 8184 8189 8192 8193 8194 8197 8197 8202 8203 8204 8204 8206 8207 8206 8204 8207 8207 8208 8208 8209 8208 8213 8208 8204 8205 8204 8203 8203 8203 8201 8201 8197 8196 8198 8194 8198 8201 8198 8201 8202 8200 8200 8203 8201 8205 8203 8205 8206 8212 8209 
8181 8183 8181 8183 8180 8178 8174 8172 8175 8175 8177 8176 8175 8176 8177 8177 8178 8182 8180 8179 8178 8176 8172 8173 8173 8139 8126 8125 8128 8167 8186 8186 8193 8191 8195 8195 8200 8202 8206 8205 8202 8202 8204 8204 8205 8207 8206 8205 8204 8208 8206 8209 8207 8207 8203 8204 8201 8199 8202 8204 8199 8200 8197 8196 8199 8199 8198 8196 8200 8198 8203 8199 8199 8202 8203 8203 8205 8204 8211 8211 
8185 8186 8180 8183 8178 8178 8176 8177 8175 8177 8181 8177 8176 8178 8177 8176 8177 8178 8181 8178 8179 8177 8175 8174 8176 8156 8123 8123 8123 8145 8183 8191 8193 8194 8194 8195 8198 8198 8189 8172 8193 8198 8200 8202 8204 8205 8204 8203 8204 8205 8203 8206 8205 8204 8203 8200 8198 8200 8200 8198 8200 8199 8198 8195 8198 8199 8197 8196 8198 8200 8202 8199 8201 8203 8203 8201 8205 8204 8209 8207 
8186 8184 8181 8184 8179 8176 8180 8181 8178 8176 8179 8179 8181 8178 8178 8178 8179 8182 8180 8176 8177 8178 8176 8179 8179 8177 8137 8123 8121 8129 8169 8192 8195 8195 8194 8196 8198 8200 8187 8141 8146 8171 8174 8192 8205 8204 8202 8204 8199 8198 8204 8205 8205 8206 8201 8201 8199 8199 8199 8197 8198 8198 8200 8201 8199 8198 8198 8197 8196 8199 8201 8199 8198 8199 8201 8203 8205 8204 8208 8207 
8189 8185 8183 8182 8177 8177 8179 8183 8180 8178 8178 8179 8180 8178 8180 8178 8180 8179 8177 8177 8176 8182 8181 8178 8178 8174 8163 8125 8120 8125 8148 8187 8195 8197 8196 8195 8196 8197 8195 8152 8159 8155 8158 8163 8180 8194 8200 8200 8189 8180 8203 8205 8208 8204 8202 8202 8200 8200 8200 8198 8198 8200 8200 8200 8199 8198 8200 8199 8199 8199 8204 8200 8199 8199 8202 8200 8203 8203 8206 8205 
8186 8188 8180 8174 8175 8175 8175 8181 8180 8179 8179 8180 8181 8179 8175 8178 8181 8177 8176 8178 8175 8179 8178 8178 8179 8178 8175 8142 8124 8125 8128 8176 8193 8195 8195 8194 8193 8195 8169 8169 8196 8196 8193 8181 8183 8154 8156 8181 8178 8190 8202 8203 8202 8202 8204 8203 8201 8203 8201 8197 8198 8201 8200 8198 8201 8196 8199 8197 8198 8198 8201 8201 8194 8201 8204 8204 8202 8202 8207 8205 
8186 8188 8182 8182 8183 8176 8170 8178 8178 8182 8179 8179 8179 8179 8180 8182 8179 8177 8175 8178 8181 8180 8179 8179 8180 8178 8178 8169 8129 8124 8127 8149 8189 8194 8193 8194 8181 8164 8145 8151 8180 8191 8162 8149 8184 8161 8149 8145 8145 8165 8197 8200 8202 8202 8205 8203 8201 8202 8198 8200 8200 8197 8200 8199 8198 8199 8199 8197 8200 8199 8200 8200 8197 8200 8202 8203 8207 8205 8208 8207 
8187 8186 8182 8179 8183 8179 8174 8175 8178 8185 8182 8184 8182 8184 8180 8180 8181 8177 8177 8177 8179 8181 8178 8180 8185 8179 8184 8181 8147 8124 8126 8132 8176 8193 8192 8185 8142 8138 8135 8131 8139 8153 8139 8137 8163 8159 8150 8150 8137 8139 8168 8193 8200 8199 8201 8201 8202 8201 8198 8200 8196 8199 8200 8198 8201 8200 8198 8199 8200 8199 8200 8201 8199 8199 8202 8203 8207 8210 8209 8210 
8186 8187 8183 8184 8186 8185 8185 8180 8186 8189 8187 8186 8185 8183 8186 8182 8182 8180 8177 8182 8180 8181 8181 8180 8182 8181 8183 8179 8171 8127 8123 8128 8153 8192 8193 8168 8134 8133 8150 8147 8132 8135 8138 8139 8140 8131 8137 8138 8134 8131 8138 8156 8168 8192 8199 8203 8202 8201 8195 8197 8196 8199 8199 8196 8195 8197 8202 8199 8199 8198 8199 8200 8201 8202 8206 8207 8204 8213 8219 8214 
8188 8188 8187 8189 8189 8184 8182 8189 8185 8184 8186 8187 8184 8183 8183 8183 8182 8184 8179 8181 8183 8180 8182 8182 8183 8180 8184 8183 8182 8150 8131 8133 8136 8178 8190 8161 8128 8130 8138 8133 8130 8133 8136 8136 8135 8130 8136 8129 8133 8136 8139 8136 8135 8158 8191 8196 8198 8198 8190 8187 8194 8198 8198 8196 8197 8199 8198 8200 8197 8198 8202 8201 8200 8200 8205 8204 8207 8210 8216 8217 
8192 8189 8190 8188 8189 8183 8187 8183 8181 8185 8186 8185 8183 8183 8185 8183 8183 8187 8183 8180 8183 8181 8181 8178 8179 8179 8182 8186 8182 8175 8137 8134 8135 8152 8185 8154 8127 8127 8127 8129 8130 8125 8127 8132 8135 8135 8135 8130 8137 8141 8142 8131 8131 8136 8166 8180 8193 8196 8186 8182 8193 8198 8197 8195 8197 8200 8200 8197 8194 8196 8199 8198 8199 8203 8202 8203 8206 8208 8216 8214 
8194 8194 8188 8190 8188 8188 8183 8180 8182 8184 8184 8186 8186 8186 8187 8186 8185 8184 8184 8181 8182 8182 8176 8179 8179 8177 8185 8185 8186 8185 8158 8134 8131 8136 8150 8131 8131 8129 8128 8133 8136 8126 8120 8129 8132 8127 8131 8121 8126 8136 8135 8144 8144 8135 8138 8147 8175 8193 8195 8194 8192 8197 8195 8194 8196 8198 8198 8197 8199 8194 8201 8197 8194 8199 8204 8207 8208 8210 8214 8216 
8193 8192 8191 8194 8191 8184 8186 8188 8184 8187 8188 8189 8189 8186 8185 8184 8184 8183 8183 8179 8178 8179 8178 8179 8180 8183 8182 8187 8185 8186 8180 8141 8136 8129 8125 8127 8130 8128 8135 8126 8126 8126 8124 8130 8135 8128 8129 8125 8128 8130 8132 8137 8139 8141 8147 8141 8158 8173 8190 8192 8190 8194 8197 8197 8195 8198 8197 8196 8195 8194 8198 8194 8200 8201 8207 8205 8212 8214 8215 8216 
8196 8192 8191 8194 8188 8191 8189 8188 8188 8192 8190 8191 8189 8186 8187 8186 8184 8186 8184 8183 8180 8179 8180 8181 8183 8185 8185 8187 8187 8185 8185 8167 8138 8130 8124 8129 8129 8130 8130 8127 8128 8126 8126 8136 8138 8130 8129 8129 8129 8128 8131 8132 8126 8137 8140 8151 8165 8161 8169 8186 8182 8177 8192 8195 8195 8197 8193 8195 8194 8195 8196 8196 8199 8202 8202 8206 8211 8214 8215 8215 
8192 8192 8192 8194 8191 8194 8193 8191 8192 8187 8190 8192 8187 8185 8187 8186 8184 8185 8184 8183 8180 8179 8181 8185 8185 8183 8186 8192 8187 8189 8184 8171 8137 8128 8124 8122 8126 8132 8129 8127 8127 8125 8128 8127 8136 8133 8128 8127 8122 8130 8130 8131 8126 8130 8128 8145 8161 8159 8154 8162 8150 8149 8186 8193 8196 8193 8197 8189 8191 8193 8196 8195 8197 8202 8206 8206 8212 8218 8216 8218 
8192 8193 8191 8193 8192 8194 8189 8193 8193 8188 8187 8187 8183 8185 8184 8186 8188 8183 8185 8183 8180 8182 8181 8184 8185 8183 8188 8190 8183 8187 8179 8154 8141 8132 8123 8121 8125 8130 8122 8125 8124 8126 8128 8125 8127 8132 8127 8121 8123 8124 8125 8127 8125 8129 8124 8130 8139 8137 8129 8126 8128 8135 8169 8187 8191 8194 8192 8190 8193 8191 8193 8195 8197 8200 8201 8204 8211 8218 8221 8216 
8192 8192 8188 8189 8189 8195 8191 8191 8192 8189 8184 8190 8184 8183 8187 8185 8186 8184 8183 8184 8184 8183 8183 8186 8185 8183 8187 8190 8186 8183 8166 8145 8147 8136 8129 8124 8123 8127 8125 8125 8124 8120 8124 8125 8125 8126 8123 8124 8127 8123 8122 8124 8124 8130 8127 8130 8134 8130 8126 8122 8122 8129 8141 8160 8177 8187 8195 8193 8193 8192 8195 8193 8196 8197 8200 8206 8212 8215 8217 8216 
8195 8195 8189 8191 8191 8193 8188 8192 8193 8194 8188 8190 8183 8183 8186 8186 8184 8182 8184 8182 8185 8185 8184 8186 8187 8186 8190 8188 8187 8183 8149 8147 8149 8142 8133 8133 8129 8129 8128 8130 8126 8126 8126 8127 8127 8125 8127 8129 8135 8131 8121 8124 8124 8131 8129 8126 8127 8133 8131 8128 8126 8133 8138 8157 8158 8180 8191 8190 8196 8194 8196 8196 8194 8199 8202 8203 8207 8209 8214 8212 
8195 8191 8191 8189 8192 8193 8188 8193 8194 8189 8192 8189 8187 8182 8185 8186 8188 8188 8188 8183 8185 8185 8187 8185 8187 8187 8188 8191 8190 8172 8146 8143 8138 8135 8136 8136 8139 8138 8133 8135 8132 8127 8125 8126 8127 8132 8131 8135 8135 8128 8120 8119 8123 8128 8126 8125 8126 8130 8134 8128 8130 8129 8138 8168 8183 8188 8189 8190 8189 8194 8194 8194 8194 8199 8200 8201 8208 8209 8209 8211 
8194 8195 8191 8190 8194 8193 8193 8191 8189 8187 8189 8187 8187 8185 8188 8189 8188 8189 8188 8187 8190 8185 8185 8184 8188 8187 8186 8189 8185 8164 8147 8148 8137 8131 8136 8137 8140 8137 8136 8130 8129 8125 8125 8127 8130 8132 8131 8134 8131 8124 8120 8119 8128 8127 8123 8124 8128 8127 8132 8131 8126 8122 8134 8165 8185 8187 8189 8187 8188 8190 8195 8194 8196 8196 8199 8201 8205 8211 8209 8211 
8197 8198 8192 8193 8194 8189 8192 8193 8191 8190 8185 8191 8192 8190 8189 8192 8190 8192 8190 8189 8192 8191 8187 8183 8187 8186 8183 8187 8181 8156 8147 8149 8138 8132 8139 8139 8137 8136 8131 8135 8129 8126 8131 8132 8133 8131 8131 8122 8124 8124 8120 8128 8129 8130 8128 8123 8124 8127 8129 8135 8136 8128 8132 8162 8185 8189 8189 8187 8189 8191 8195 8195 8197 8199 8199 8204 8205 8210 8209 8209 
8195 8197 8194 8193 8195 8195 8193 8193 8190 8185 8187 8191 8189 8189 8192 8190 8189 8190 8190 8190 8190 8188 8187 8186 8187 8184 8186 8186 8180 8150 8146 8150 8138 8137 8143 8140 8138 8134 8132 8130 8129 8131 8134 8138 8135 8127 8130 8130 8128 8125 8126 8125 8126 8127 8124 8123 8122 8128 8127 8142 8154 8136 8138 8175 8186 8191 8189 8191 8191 8195 8196 8197 8197 8196 8203 8203 8206 8212 8207 8210 
8195 8199 8196 8194 8195 8193 8194 8194 8191 8192 8191 8190 8190 8186 8191 8190 8185 8187 8188 8186 8189 8188 8188 8189 8187 8184 8186 8186 8180 8154 8155 8153 8141 8142 8140 8137 8139 8137 8136 8131 8126 8132 8132 8132 8125 8123 8129 8127 8126 8127 8125 8123 8125 8124 8124 8132 8128 8127 8131 8138 8152 8145 8151 8178 8188 8190 8191 8192 8191 8193 8195 8194 8197 8202 8204 8204 8208 8209 8209 8212 
8193 8199 8194 8195 8194 8195 8193 8193 8192 8190 8189 8190 8187 8189 8189 8187 8185 8187 8187 8188 8189 8187 8183 8191 8189 8183 8186 8185 8177 8155 8158 8157 8145 8141 8139 8140 8140 8139 8138 8135 8133 8130 8132 8128 8128 8124 8126 8128 8124 8127 8124 8125 8128 8127 8131 8131 8126 8128 8128 8133 8144 8146 8166 8182 8189 8188 8191 8191 8192 8192 8195 8196 8196 8201 8203 8204 8208 8213 8213 8214 
8196 8200 8200 8195 8195 8196 8195 8193 8191 8190 8188 8189 8186 8183 8184 8187 8185 8187 8188 8190 8188 8186 8186 8187 8186 8182 8183 8186 8178 8157 8164 8160 8147 8140 8138 8143 8144 8141 8137 8136 8131 8132 8131 8130 8124 8126 8122 8118 8124 8126 8124 8131 8129 8128 8133 8133 8129 8127 8128 8136 8139 8142 8167 8186 8190 8189 8189 8191 8192 8192 8195 8197 8197 8201 8203 8205 8206 8214 8213 8212 
8194 8197 8198 8190 8196 8193 8193 8194 8191 8190 8187 8189 8183 8186 8189 8186 8185 8189 8192 8190 8188 8187 8185 8185 8185 8185 8187 8187 8180 8155 8166 8165 8140 8137 8142 8142 8145 8139 8137 8129 8128 8129 8130 8132 8128 8129 8125 8124 8121 8122 8130 8131 8124 8130 8139 8134 8135 8130 8131 8138 8143 8144 8169 8189 8192 8192 8190 8191 8192 8192 8197 8198 8195 8203 8204 8204 8209 8211 8212 8210 
8193 8196 8194 8185 8191 8194 8188 8189 8187 8191 8186 8189 8185 8186 8190 8191 8185 8189 8192 8192 8189 8187 8182 8185 8187 8184 8182 8186 8182 8157 8156 8161 8144 8133 8142 8145 8143 8140 8131 8120 8127 8128 8132 8135 8131 8127 8126 8127 8123 8127 8126 8127 8125 8137 8141 8140 8134 8137 8136 8141 8140 8146 8179 8191 8192 8193 8192 8191 8191 8196 8197 8196 8196 8201 8206 8206 8206 8212 8210 8210 
8192 8195 8190 8184 8184 8190 8189 8187 8189 8193 8189 8188 8187 8190 8187 8187 8185 8188 8188 8185 8187 8186 8183 8183 8189 8183 8182 8182 8183 8169 8154 8163 8142 8130 8136 8137 8136 8132 8135 8120 8125 8130 8135 8135 8130 8134 8129 8129 8129 8125 8123 8121 8122 8130 8137 8137 8131 8133 8137 8142 8146 8156 8189 8196 8194 8192 8191 8190 8190 8195 8194 8197 8199 8201 8202 8205 8209 8207 8210 8211 
8193 8194 8192 8190 8188 8187 8192 8191 8192 8189 8188 8190 8190 8191 8186 8187 8188 8187 8184 8185 8188 8183 8181 8183 8184 8181 8183 8187 8184 8178 8163 8163 8149 8139 8137 8138 8138 8137 8137 8129 8124 8128 8135 8132 8132 8136 8135 8133 8128 8124 8119 8119 8123 8124 8133 8135 8131 8130 8137 8144 8145 8168 8193 8195 8193 8193 8193 8194 8192 8193 8199 8197 8198 8202 8202 8203 8204 8210 8207 8210 
8196 8198 8192 8188 8192 8189 8190 8190 8189 8190 8187 8185 8191 8190 8189 8189 8190 8189 8186 8190 8188 8182 8180 8182 8183 8185 8184 8182 8184 8181 8170 8159 8158 8144 8139 8135 8139 8139 8137 8139 8129 8133 8137 8135 8138 8139 8138 8134 8126 8120 8119 8121 8123 8125 8127 8130 8131 8130 8138 8147 8151 8183 8195 8194 8195 8196 8196 8194 8192 8194 8198 8195 8196 8200 8202 8201 8205 8205 8208 8202 
8193 8197 8188 8192 8189 8190 8190 8186 8188 8186 8186 8183 8192 8192 8191 8190 8192 8189 8188 8191 8188 8184 8184 8186 8187 8182 8185 8187 8180 8183 8167 8156 8170 8150 8141 8138 8136 8137 8141 8142 8134 8136 8141 8142 8143 8141 8141 8136 8127 8122 8121 8128 8133 8130 8128 8127 8129 8135 8140 8150 8167 8190 8192 8192 8196 8194 8195 8193 8192 8196 8197 8199 8195 8200 8203 8198 8202 8205 8204 8207 
8197 8196 8189 8189 8189 8191 8192 8190 8186 8186 8187 8192 8189 8191 8192 8194 8192 8190 8189 8188 8190 8189 8182 8183 8185 8182 8183 8183 8183 8184 8171 8162 8165 8167 8151 8143 8140 8141 8138 8144 8141 8143 8143 8145 8144 8142 8140 8139 8134 8129 8130 8129 8140 8137 8126 8125 8128 8140 8149 8155 8184 8193 8192 8192 8193 8195 8193 8192 8191 8194 8198 8198 8198 8201 8203 8201 8200 8202 8201 8201 
8195 8195 8191 8190 8194 8192 8191 8193 8193 8190 8191 8190 8192 8188 8191 8196 8195 8191 8187 8189 8191 8185 8181 8189 8189 8182 8181 8186 8181 8185 8178 8162 8163 8168 8163 8146 8138 8138 8141 8143 8152 8155 8152 8147 8141 8142 8142 8138 8138 8138 8138 8138 8141 8138 8125 8128 8132 8145 8157 8176 8188 8193 8193 8192 8194 8195 8194 8191 8192 8192 8195 8198 8198 8201 8204 8203 8202 8202 8198 8199 
8192 8194 8193 8192 8191 8194 8193 8193 8191 8186 8189 8192 8193 8188 8193 8194 8191 8190 8188 8186 8190 8183 8186 8186 8189 8185 8186 8186 8185 8186 8184 8166 8163 8167 8170 8158 8148 8143 8147 8151 8153 8152 8152 8146 8146 8139 8139 8137 8132 8138 8134 8139 8139 8136 8132 8134 8139 8157 8179 8189 8193 8194 8192 8193 8192 8191 8194 8190 8192 8191 8195 8199 8201 8204 8203 8202 8203 8201 8202 8199 
8192 8191 8190 8192 8193 8192 8192 8192 8186 8187 8188 8192 8192 8191 8189 8188 8192 8192 8189 8185 8184 8185 8187 8187 8188 8186 8184 8187 8185 8189 8186 8179 8162 8159 8167 8167 8164 8152 8148 8151 8153 8155 8149 8145 8144 8137 8140 8142 8140 8138 8135 8136 8137 8138 8139 8150 8162 8177 8187 8191 8195 8192 8195 8191 8195 8188 8192 8194 8196 8198 8199 8198 8202 8202 8204 8203 8202 8203 8202 8198 
8193 8193 8190 8186 8193 8190 8194 8189 8187 8187 8189 8192 8194 8194 8191 8190 8189 8191 8190 8186 8184 8188 8188 8189 8187 8186 8186 8186 8189 8188 8188 8187 8171 8159 8159 8163 8167 8167 8157 8153 8152 8153 8151 8149 8145 8143 8149 8157 8153 8152 8149 8150 8156 8155 8157 8167 8172 8189 8192 8193 8193 8194 8194 8188 8189 8191 8194 8191 8195 8197 8200 8202 8200 8201 8199 8197 8202 8198 8197 8198 
8192 8193 8188 8189 8191 8188 8189 8193 8187 8186 8188 8188 8192 8196 8191 8189 8190 8193 8191 8187 8185 8186 8187 8187 8188 8187 8186 8192 8189 8190 8192 8195 8181 8161 8156 8155 8155 8170 8171 8169 8162 8153 8149 8148 8146 8149 8152 8160 8162 8166 8170 8166 8168 8165 8165 8170 8183 8193 8196 8194 8194 8195 8193 8192 8189 8192 8192 8192 8195 8198 8202 8199 8199 8199 8201 8197 8199 8198 8199 8194 
8188 8195 8190 8190 8191 8188 8189 8194 8190 8188 8187 8189 8189 8191 8191 8185 8192 8192 8191 8188 8184 8188 8188 8188 8189 8185 8188 8192 8188 8187 8188 8196 8190 8172 8162 8157 8158 8170 8173 8167 8162 8162 8165 8164 8164 8168 8169 8172 8171 8173 8165 8167 8168 8164 8173 8182 8190 8195 8194 8196 8195 8197 8194 8191 8190 8192 8190 8192 8197 8195 8199 8197 8196 8203 8201 8195 8198 8197 8197 8196 
8193 8197 8191 8192 8194 8191 8192 8192 8184 8190 8185 8187 8187 8193 8192 8191 8189 8192 8192 8189 8187 8189 8188 8189 8191 8189 8186 8192 8184 8188 8190 8191 8192 8189 8175 8166 8160 8162 8169 8174 8171 8161 8164 8164 8160 8153 8150 8153 8165 8170 8172 8173 8172 8174 8188 8192 8194 8192 8191 8193 8195 8194 8193 8188 8188 8192 8190 8192 8194 8197 8194 8197 8194 8198 8195 8191 8196 8196 8194 8193 
8190 8201 8192 8194 8187 8189 8190 8192 8184 8190 8189 8190 8189 8192 8191 8189 8188 8189 8191 8188 8189 8189 8187 8192 8191 8187 8188 8189 8186 8188 8187 8189 8193 8194 8187 8179 8170 8164 8166 8169 8179 8183 8181 8176 8176 8171 8165 8172 8181 8180 8177 8179 8182 8188 8191 8191 8193 8192 8194 8193 8192 8191 8192 8191 8192 8189 8191 8188 8192 8192 8197 8193 8195 8197 8195 8192 8189 8191 8193 8193 
8196 8202 8197 8192 8190 8187 8191 8188 8182 8190 8193 8189 8196 8193 8190 8186 8187 8187 8182 8186 8188 8186 8188 8188 8190 8178 8188 8190 8191 8190 8185 8193 8197 8193 8195 8189 8182 8177 8171 8169 8171 8173 8174 8172 8174 8174 8165 8173 8179 8183 8186 8186 8191 8192 8195 8191 8193 8196 8193 8191 8190 8189 8189 8190 8189 8189 8190 8190 8193 8191 8193 8195 8193 8196 8197 8190 8189 8192 8190 8190 
8199 8202 8200 8189 8185 8189 8191 8188 8188 8194 8195 8190 8193 8192 8188 8188 8185 8186 8184 8186 8189 8185 8185 8190 8188 8178 8181 8190 8190 8190 8192 8194 8196 8193 8194 8191 8190 8186 8188 8184 8180 8176 8178 8171 8173 8174 8176 8181 8186 8193 8192 8193 8191 8193 8190 8191 8194 8194 8193 8189 8190 8186 8192 8190 8189 8190 8194 8190 8191 8194 8193 8195 8190 8190 8192 8188 8189 8187 8187 8186 
8198 8207 8194 8181 8190 8188 8190 8186 8188 8190 8191 8187 8186 8191 8194 8187 8182 8186 8185 8184 8185 8182 8184 8186 8191 8183 8188 8191 8189 8188 8188 8191 8191 8194 8191 8189 8190 8185 8191 8190 8192 8189 8187 8187 8190 8190 8188 8190 8195 8195 8192 8193 8190 8190 8193 8189 8189 8188 8190 8185 8186 8188 8187 8186 8186 8186 8189 8187 8191 8191 8193 8188 8188 8187 8188 8188 8188 8184 8184 8186 
8203 8198 8184 8185 8185 8183 8183 8192 8193 8188 8191 8185 8185 8191 8189 8180 8179 8181 8182 8179 8185 8177 8178 8182 8191 8188 8191 8189 8186 8189 8189 8188 8187 8190 8188 8189 8191 8190 8192 8196 8194 8192 8187 8189 8189 8192 8195 8194 8195 8199 8194 8193 8191 8187 8190 8191 8191 8192 8190 8189 8188 8186 8187 8183 8185 8186 8188 8188 8192 8192 8194 8190 8190 8189 8188 8187 8190 8185 8184 8185 
8203 8196 8186 8181 8180 8174 8180 8185 8186 8185 8185 8187 8184 8183 8185 8178 8179 8179 8179 8179 8178 8174 8177 8182 8188 8189 8187 8186 8188 8187 8183 8186 8185 8188 8189 8187 8187 8194 8195 8192 8194 8192 8187 8188 8189 8193 8198 8200 8199 8200 8199 8202 8191 8188 8187 8187 8189 8191 8184 8187 8188 8186 8187 8186 8184 8188 8188 8188 8187 8188 8191 8188 8183 8188 8190 8190 8189 8189 8181 8184 


