P2
80 60
8163
8129 8116 8136 8136 8146 8141 8134 8133 8139 8135 8134 8143 8139 8139 8140 8145 8141 8140 8142 8138 8139 8143 8142 8138 8145 8154 8152 8156 8155 8154 8158 8154 8155 8155 8157 8153 8152 8152 8158 8155 8152 8148 8150 8144 8148 8147 8145 8147 8147 8146 8141 8139 8140 8133 8128 8131 8132 8128 8133 8135 8137 8136 8137 8133 8132 8134 8136 8138 8141 8141 8141 8141 8145 8146 8148 8146 8143 8138 8141 8142 
8126 8133 8145 8136 8146 8142 8134 8134 8131 8136 8133 8139 8137 8137 8134 8143 8135 8139 8136 8142 8145 8143 8144 8137 8150 8144 8146 8148 8156 8149 8153 8154 8150 8154 8153 8149 8144 8156 8163 8153 8152 8149 8144 8146 8146 8145 8149 8146 8144 8143 8138 8137 8137 8136 8128 8133 8128 8128 8132 8134 8135 8134 8139 8132 8132 8131 8135 8140 8139 8142 8142 8136 8145 8141 8143 8138 8140 8136 8137 8138 
8112 8122 8129 8127 8142 8134 8128 8135 8131 8134 8135 8134 8130 8136 8136 8135 8141 8140 8137 8142 8135 8142 8140 8138 8144 8151 8147 8151 8154 8141 8145 8149 8144 8156 8154 8146 8144 8156 8154 8150 8148 8145 8142 8147 8149 8143 8142 8141 8140 8141 8139 8131 8133 8141 8137 8135 8130 8131 8133 8128 8139 8142 8131 8138 8133 8133 8136 8134 8142 8143 8137 8135 8139 8142 8136 8133 8142 8140 8139 8139 
8128 8115 8139 8122 8142 8127 8136 8139 8135 8133 8125 8122 8132 8134 8133 8137 8134 8139 8135 8136 8134 8129 8124 8143 8146 8148 8152 8153 8153 8154 8144 8148 8149 8151 8154 8145 8150 8155 8153 8150 8145 8142 8147 8138 8141 8140 8144 8143 8141 8138 8137 8133 8138 8135 8135 8135 8127 8130 8129 8129 8132 8139 8129 8136 8126 8123 8133 8135 8141 8142 8136 8140 8139 8141 8135 8132 8145 8137 8137 8138 
8126 8114 8136 8123 8135 8136 8132 8126 8129 8130 8128 8124 8128 8132 8129 8136 8133 8132 8138 8131 8136 8135 8128 8134 8142 8150 8146 8147 8146 8151 8145 8150 8150 8146 8152 8148 8152 8147 8153 8148 8148 8143 8137 8139 8138 8136 8137 8140 8139 8144 8138 8133 8134 8134 8138 8134 8128 8132 8131 8132 8134 8136 8130 8134 8129 8129 8125 8125 8139 8136 8135 8141 8139 8144 8127 8133 8138 8134 8136 8142 
8136 8121 8127 8124 8130 8133 8139 8134 8133 8130 8116 8133 8134 8127 8126 8132 8135 8128 8137 8140 8135 8131 8139 8131 8147 8153 8150 8147 8143 8148 8153 8149 8144 8146 8153 8147 8148 8150 8148 8151 8151 8144 8148 8137 8137 8138 8138 8142 8137 8140 8138 8135 8137 8138 8135 8136 8135 8135 8135 8138 8132 8134 8132 8131 8127 8132 8128 8125 8131 8139 8139 8132 8144 8130 8127 8129 8131 8128 8135 8134 
8134 8130 8132 8143 8139 8129 8143 8140 8129 8120 8114 8141 8134 8122 8131 8138 8126 8132 8139 8147 8129 8134 8142 8139 8146 8151 8139 8143 8145 8151 8152 8152 8144 8148 8146 8150 8146 8147 8154 8151 8150 8143 8145 8139 8140 8139 8139 8139 8140 8141 8138 8135 8136 8139 8134 8136 8125 8128 8136 8134 8128 8131 8128 8130 8128 8130 8134 8136 8126 8123 8141 8138 8136 8130 8133 8130 8128 8123 8136 8131 
8137 8133 8127 8138 8130 8131 8138 8144 8139 8114 8129 8138 8133 8129 8138 8135 8136 8138 8137 8132 8142 8138 8140 8145 8150 8154 8136 8147 8148 8157 8153 8150 8150 8150 8154 8150 8144 8149 8148 8149 8149 8139 8146 8144 8140 8139 8142 8138 8138 8136 8136 8132 8137 8136 8133 8133 8130 8132 8129 8131 8128 8130 8128 8131 8126 8136 8132 8137 8126 8128 8128 8131 8137 8126 8130 8127 8124 8128 8133 8130 
8141 8124 8124 8129 8137 8130 8137 8136 8134 8121 8127 8131 8128 8129 8125 8133 8129 8131 8137 8142 8139 8128 8133 8138 8135 8150 8140 8145 8145 8147 8149 8146 8142 8146 8152 8150 8148 8148 8150 8148 8144 8145 8143 8138 8139 8143 8137 8139 8136 8134 8132 8129 8135 8131 8137 8127 8128 8129 8127 8130 8127 8125 8125 8127 8125 8124 8129 8136 8129 8130 8127 8125 8121 8126 8121 8126 8127 8125 8127 8125 
8142 8122 8132 8136 8134 8140 8130 8138 8135 8132 8129 8131 8132 8133 8130 8125 8138 8135 8142 8145 8136 8133 8137 8134 8132 8146 8145 8146 8148 8145 8143 8145 8142 8144 8153 8152 8149 8149 8146 8143 8143 8143 8142 8134 8136 8141 8138 8139 8138 8136 8127 8133 8133 8132 8132 8121 8131 8131 8130 8131 8130 8128 8128 8129 8126 8123 8127 8131 8127 8130 8132 8129 8126 8124 8126 8119 8127 8123 8123 8125 
8137 8118 8130 8131 8130 8139 8124 8135 8137 8126 8128 8128 8133 8133 8127 8131 8136 8126 8127 8135 8134 8135 8134 8136 8134 8139 8147 8148 8149 8149 8145 8140 8137 8151 8149 8145 8142 8145 8151 8139 8141 8138 8134 8144 8139 8142 8142 8140 8137 8132 8130 8131 8133 8134 8125 8120 8130 8122 8132 8129 8129 8130 8132 8125 8120 8123 8131 8128 8125 8128 8129 8131 8122 8121 8119 8116 8115 8117 8122 8122 
8135 8136 8134 8130 8129 8131 8127 8137 8138 8127 8133 8129 8135 8134 8130 8131 8131 8128 8132 8142 8144 8140 8127 8139 8145 8145 8144 8145 8152 8147 8150 8145 8136 8147 8144 8140 8142 8146 8147 8137 8138 8140 8139 8145 8140 8139 8139 8137 8136 8137 8138 8137 8137 8136 8129 8128 8130 8122 8135 8133 8128 8128 8125 8126 8118 8122 8132 8125 8128 8122 8127 8124 8124 8122 8115 8116 8121 8117 8121 8118 
8135 8126 8122 8122 8121 8137 8133 8122 8129 8129 8128 8128 8126 8125 8131 8135 8128 8133 8132 8134 8132 8137 8128 8131 8142 8141 8133 8145 8146 8141 8153 8137 8138 8143 8135 8137 8144 8147 8141 8132 8136 8136 8146 8145 8140 8137 8139 8137 8134 8134 8135 8136 8135 8136 8135 8126 8128 8125 8128 8130 8127 8127 8127 8120 8125 8123 8127 8122 8127 8116 8117 8123 8125 8120 8116 8120 8125 8117 8120 8120 
8137 8142 8137 8136 8138 8132 8133 8137 8125 8134 8133 8131 8127 8129 8131 8130 8136 8137 8137 8139 8137 8136 8131 8134 8135 8142 8143 8143 8142 8143 8152 8134 8141 8145 8141 8142 8137 8146 8139 8135 8136 8134 8144 8143 8138 8138 8138 8139 8136 8133 8135 8138 8133 8134 8134 8128 8130 8129 8129 8128 8127 8124 8125 8123 8127 8129 8126 8122 8126 8122 8123 8125 8124 8121 8113 8121 8121 8122 8121 8119 
8144 8129 8137 8138 8135 8134 8130 8138 8127 8125 8129 8134 8133 8134 8137 8135 8136 8132 8139 8140 8123 8134 8127 8133 8132 8140 8144 8140 8140 8149 8138 8134 8136 8140 8139 8140 8140 8139 8139 8129 8135 8133 8138 8139 8138 8135 8131 8131 8134 8132 8133 8135 8138 8136 8131 8133 8130 8131 8128 8130 8127 8122 8121 8129 8124 8130 8129 8124 8125 8117 8121 8121 8123 8120 8112 8113 8119 8119 8121 8118 
8149 8121 8129 8136 8135 8129 8128 8133 8132 8136 8133 8132 8132 8128 8136 8137 8139 8133 8143 8140 8126 8133 8129 8131 8134 8144 8145 8138 8141 8145 8140 8136 8136 8138 8137 8139 8142 8144 8137 8133 8137 8136 8136 8137 8137 8135 8128 8133 8130 8131 8136 8135 8140 8138 8132 8135 8130 8126 8129 8130 8129 8119 8127 8126 8132 8131 8124 8122 8121 8119 8122 8120 8120 8115 8114 8116 8116 8119 8122 8121 
8146 8120 8128 8138 8131 8124 8130 8124 8131 8129 8129 8132 8125 8129 8125 8138 8132 8138 8141 8134 8122 8134 8135 8132 8129 8141 8142 8143 8142 8141 8144 8139 8134 8142 8140 8140 8140 8141 8139 8132 8132 8131 8131 8131 8133 8133 8129 8128 8128 8132 8133 8137 8138 8131 8128 8128 8125 8125 8126 8127 8128 8119 8125 8123 8128 8126 8124 8125 8120 8118 8115 8116 8119 8122 8114 8115 8116 8116 8119 8118 
8145 8128 8133 8127 8133 8141 8129 8138 8128 8136 8134 8134 8139 8142 8138 8137 8134 8137 8141 8136 8135 8137 8134 8129 8131 8146 8150 8139 8140 8143 8143 8139 8135 8139 8139 8142 8137 8132 8136 8130 8115 8103 8094 8098 8124 8131 8130 8127 8135 8135 8134 8138 8130 8135 8130 8131 8124 8123 8123 8132 8125 8125 8127 8129 8125 8123 8126 8126 8124 8122 8117 8124 8125 8119 8117 8118 8113 8111 8121 8120 
8138 8125 8135 8132 8134 8129 8135 8138 8137 8128 8133 8135 8138 8133 8133 8136 8127 8138 8136 8130 8131 8139 8135 8133 8135 8145 8149 8133 8137 8135 8136 8112 8098 8108 8128 8136 8120 8109 8126 8116 8078 8074 8076 8083 8117 8130 8130 8133 8128 8127 8135 8133 8129 8130 8126 8122 8129 8127 8125 8127 8124 8122 8130 8128 8122 8122 8126 8121 8121 8120 8122 8120 8123 8114 8117 8117 8113 8114 8116 8118 
8138 8123 8132 8130 8126 8136 8136 8138 8136 8130 8137 8138 8137 8133 8137 8139 8132 8136 8132 8138 8127 8138 8138 8130 8138 8135 8146 8137 8138 8136 8129 8111 8082 8089 8108 8109 8085 8084 8110 8093 8074 8071 8084 8107 8125 8126 8132 8126 8130 8127 8125 8128 8121 8124 8129 8126 8128 8129 8128 8124 8125 8124 8129 8128 8127 8125 8125 8125 8122 8122 8121 8123 8121 8117 8119 8120 8114 8115 8119 8118 
8142 8132 8125 8117 8122 8127 8124 8140 8136 8132 8129 8135 8133 8127 8127 8139 8133 8134 8125 8133 8123 8129 8137 8132 8131 8131 8132 8137 8121 8116 8104 8092 8083 8089 8105 8110 8098 8086 8088 8116 8087 8082 8094 8092 8097 8117 8114 8114 8116 8103 8098 8101 8097 8100 8115 8129 8127 8129 8129 8126 8125 8123 8128 8128 8128 8127 8125 8129 8122 8125 8122 8123 8123 8120 8121 8123 8116 8114 8118 8121 
8144 8134 8129 8138 8137 8135 8115 8140 8123 8135 8128 8124 8139 8138 8126 8133 8129 8133 8122 8131 8132 8137 8133 8138 8133 8136 8120 8107 8100 8093 8093 8088 8091 8092 8111 8119 8120 8126 8121 8118 8081 8078 8081 8085 8085 8094 8096 8118 8126 8119 8116 8107 8101 8096 8098 8113 8123 8129 8122 8125 8126 8126 8130 8128 8126 8128 8127 8127 8125 8123 8122 8121 8122 8119 8126 8120 8118 8118 8125 8120 
8139 8126 8135 8135 8134 8131 8118 8116 8122 8133 8138 8131 8130 8134 8128 8132 8124 8118 8115 8126 8125 8135 8128 8135 8137 8130 8120 8120 8110 8109 8107 8094 8096 8093 8093 8091 8088 8105 8105 8082 8076 8082 8081 8088 8091 8091 8080 8089 8100 8109 8123 8126 8112 8103 8099 8099 8107 8125 8122 8121 8125 8123 8128 8127 8128 8132 8127 8130 8126 8122 8124 8120 8122 8119 8124 8124 8121 8120 8130 8124 
8144 8135 8133 8131 8138 8139 8129 8120 8133 8134 8135 8131 8135 8131 8135 8130 8105 8095 8083 8109 8107 8114 8123 8115 8120 8117 8123 8121 8106 8101 8094 8098 8096 8096 8089 8083 8091 8093 8081 8085 8098 8083 8083 8082 8090 8098 8087 8079 8079 8106 8129 8129 8124 8123 8112 8105 8108 8112 8117 8123 8124 8128 8132 8128 8132 8132 8130 8129 8124 8123 8119 8120 8123 8120 8120 8121 8122 8125 8131 8124 
8145 8120 8136 8143 8138 8132 8125 8137 8140 8128 8136 8131 8140 8132 8133 8118 8090 8091 8083 8096 8122 8125 8133 8124 8126 8129 8126 8110 8085 8079 8091 8091 8091 8097 8090 8080 8084 8082 8082 8107 8101 8100 8088 8084 8086 8082 8080 8085 8105 8109 8126 8127 8121 8125 8125 8120 8110 8111 8113 8129 8126 8125 8125 8131 8133 8133 8130 8132 8124 8121 8126 8125 8127 8123 8123 8122 8121 8122 8130 8130 
8144 8120 8130 8144 8135 8127 8137 8124 8122 8131 8131 8138 8131 8132 8129 8099 8088 8092 8105 8117 8125 8110 8113 8094 8092 8096 8094 8093 8088 8090 8086 8099 8085 8081 8083 8081 8088 8088 8085 8084 8099 8099 8089 8085 8091 8091 8109 8115 8123 8127 8128 8128 8126 8129 8126 8130 8124 8113 8108 8120 8129 8125 8125 8128 8129 8132 8130 8132 8124 8123 8123 8123 8124 8124 8122 8123 8122 8124 8134 8131 
8136 8131 8121 8136 8134 8135 8133 8123 8130 8133 8126 8140 8129 8132 8113 8094 8093 8107 8128 8116 8109 8093 8097 8111 8105 8102 8096 8087 8083 8085 8077 8101 8087 8075 8081 8080 8070 8079 8081 8094 8102 8099 8096 8092 8090 8089 8092 8107 8127 8131 8119 8126 8123 8129 8129 8127 8125 8124 8116 8116 8124 8123 8130 8129 8129 8130 8127 8127 8125 8121 8123 8123 8125 8125 8121 8124 8127 8126 8133 8129 
8136 8135 8136 8141 8139 8125 8136 8131 8127 8131 8125 8135 8136 8120 8098 8092 8109 8129 8120 8106 8114 8111 8124 8127 8105 8103 8094 8092 8092 8099 8082 8086 8082 8082 8079 8079 8069 8074 8081 8080 8112 8120 8122 8118 8101 8090 8090 8088 8120 8118 8101 8115 8113 8123 8130 8128 8129 8130 8131 8126 8119 8126 8131 8130 8133 8132 8131 8123 8120 8121 8120 8121 8123 8120 8124 8129 8134 8126 8136 8134 
8136 8126 8130 8140 8134 8138 8132 8136 8134 8140 8134 8137 8132 8104 8094 8100 8129 8132 8128 8126 8128 8126 8125 8118 8093 8095 8097 8098 8104 8096 8086 8095 8088 8093 8089 8090 8088 8079 8088 8076 8106 8101 8105 8123 8124 8115 8116 8102 8099 8097 8095 8089 8095 8104 8123 8130 8129 8131 8130 8125 8125 8119 8127 8133 8131 8132 8127 8122 8116 8119 8122 8120 8119 8120 8122 8126 8122 8132 8134 8132 
8137 8124 8132 8137 8132 8140 8138 8132 8137 8129 8140 8133 8113 8093 8099 8130 8128 8133 8134 8129 8127 8127 8114 8098 8093 8090 8092 8104 8091 8087 8081 8091 8092 8095 8098 8090 8094 8091 8096 8077 8081 8076 8084 8095 8110 8113 8111 8118 8116 8119 8114 8096 8101 8103 8106 8123 8130 8129 8124 8125 8125 8123 8129 8130 8131 8131 8129 8123 8118 8118 8120 8122 8121 8119 8125 8122 8124 8132 8134 8134 
8140 8131 8131 8143 8135 8140 8131 8134 8143 8127 8139 8128 8096 8094 8118 8133 8131 8130 8131 8129 8126 8120 8107 8092 8087 8086 8097 8096 8087 8084 8085 8094 8092 8095 8091 8089 8091 8094 8101 8109 8098 8081 8086 8088 8105 8124 8124 8125 8125 8132 8133 8115 8100 8099 8104 8109 8120 8125 8127 8125 8125 8127 8131 8130 8131 8127 8127 8127 8123 8117 8120 8124 8121 8126 8123 8120 8124 8127 8133 8129 
8141 8127 8125 8134 8128 8140 8130 8136 8140 8130 8127 8135 8110 8101 8128 8131 8133 8129 8130 8128 8123 8131 8123 8105 8088 8102 8108 8099 8095 8090 8081 8090 8097 8095 8100 8097 8090 8089 8117 8112 8111 8115 8096 8095 8114 8130 8128 8130 8132 8134 8130 8128 8129 8119 8125 8121 8120 8126 8130 8130 8128 8125 8128 8131 8129 8126 8126 8125 8122 8121 8123 8128 8126 8121 8120 8119 8123 8125 8131 8128 
8144 8134 8131 8132 8127 8139 8129 8131 8137 8135 8131 8134 8114 8118 8128 8133 8130 8127 8130 8126 8128 8135 8128 8130 8115 8130 8119 8099 8097 8092 8082 8087 8091 8084 8098 8093 8085 8085 8106 8115 8124 8132 8126 8120 8128 8133 8134 8132 8126 8129 8129 8127 8133 8131 8130 8127 8126 8130 8130 8127 8125 8125 8127 8129 8126 8125 8124 8128 8127 8123 8122 8124 8117 8117 8121 8124 8121 8124 8128 8129 
8146 8123 8140 8139 8137 8138 8128 8136 8138 8131 8134 8135 8123 8131 8130 8131 8128 8136 8137 8127 8127 8131 8130 8132 8137 8140 8128 8104 8099 8096 8086 8101 8088 8087 8111 8099 8086 8091 8106 8124 8118 8129 8133 8133 8137 8133 8135 8132 8130 8130 8129 8130 8132 8130 8130 8129 8129 8131 8127 8122 8126 8125 8125 8129 8128 8127 8125 8125 8125 8124 8125 8128 8122 8128 8125 8121 8123 8124 8128 8127 
8147 8133 8140 8135 8142 8132 8137 8140 8133 8132 8138 8135 8133 8129 8136 8128 8136 8135 8138 8131 8130 8136 8129 8129 8138 8143 8128 8103 8101 8100 8105 8118 8109 8089 8114 8102 8089 8096 8103 8131 8122 8125 8135 8133 8132 8127 8129 8133 8131 8133 8132 8130 8127 8131 8132 8128 8126 8129 8126 8125 8130 8130 8131 8124 8126 8126 8128 8123 8126 8126 8124 8125 8121 8126 8121 8120 8118 8120 8123 8122 
8151 8136 8135 8137 8138 8136 8142 8143 8136 8126 8125 8138 8137 8132 8136 8138 8136 8139 8139 8136 8139 8139 8137 8126 8136 8131 8129 8111 8118 8131 8128 8125 8132 8100 8096 8093 8091 8099 8100 8125 8127 8127 8130 8133 8136 8127 8127 8127 8128 8136 8130 8135 8131 8132 8136 8130 8131 8132 8125 8128 8129 8129 8132 8131 8129 8124 8131 8123 8128 8125 8126 8125 8120 8122 8119 8125 8124 8117 8125 8124 
8151 8137 8139 8137 8136 8135 8141 8136 8138 8127 8131 8139 8139 8131 8132 8136 8134 8133 8139 8136 8134 8134 8141 8129 8134 8129 8137 8127 8133 8137 8127 8126 8125 8103 8085 8084 8087 8099 8094 8103 8107 8113 8124 8131 8135 8134 8137 8132 8129 8131 8129 8134 8137 8133 8133 8128 8127 8131 8126 8131 8128 8127 8130 8126 8127 8132 8129 8122 8122 8119 8127 8127 8125 8127 8125 8127 8124 8118 8126 8120 
8142 8136 8139 8137 8138 8137 8143 8134 8132 8135 8135 8142 8139 8132 8136 8138 8127 8129 8131 8131 8128 8133 8137 8127 8131 8140 8134 8122 8140 8134 8127 8118 8111 8098 8086 8082 8087 8092 8085 8080 8085 8098 8093 8108 8132 8133 8128 8125 8129 8129 8131 8132 8134 8131 8128 8133 8129 8134 8129 8128 8124 8128 8126 8125 8127 8127 8124 8129 8123 8120 8126 8125 8124 8130 8128 8128 8125 8122 8126 8125 
8141 8136 8134 8139 8141 8140 8136 8140 8134 8137 8136 8134 8136 8132 8135 8128 8132 8130 8130 8133 8128 8125 8128 8139 8137 8136 8124 8113 8138 8117 8097 8089 8091 8091 8081 8084 8082 8086 8084 8084 8102 8103 8095 8095 8107 8117 8130 8123 8128 8127 8129 8129 8135 8132 8128 8133 8127 8131 8126 8124 8123 8126 8125 8125 8127 8124 8130 8129 8125 8122 8123 8124 8126 8125 8127 8128 8129 8122 8123 8120 
8142 8138 8148 8142 8143 8142 8142 8137 8135 8137 8140 8133 8134 8130 8130 8128 8126 8129 8136 8130 8131 8124 8130 8135 8132 8130 8112 8106 8125 8094 8089 8094 8109 8098 8083 8088 8091 8095 8092 8089 8095 8111 8104 8095 8092 8107 8121 8126 8121 8128 8129 8129 8135 8131 8132 8135 8128 8133 8131 8126 8120 8124 8125 8123 8123 8125 8127 8126 8127 8125 8123 8121 8124 8128 8128 8129 8126 8118 8127 8120 
8135 8135 8149 8130 8140 8146 8134 8141 8138 8133 8130 8139 8131 8128 8139 8125 8128 8134 8139 8140 8133 8130 8133 8136 8129 8119 8103 8098 8100 8107 8105 8105 8120 8103 8087 8091 8095 8094 8110 8095 8089 8095 8094 8095 8094 8099 8115 8123 8124 8125 8131 8131 8131 8132 8133 8132 8130 8126 8127 8133 8124 8127 8128 8128 8126 8125 8122 8123 8125 8126 8127 8122 8122 8125 8128 8126 8122 8117 8119 8122 
8139 8130 8142 8130 8140 8139 8128 8131 8138 8134 8128 8138 8133 8132 8141 8139 8131 8135 8138 8136 8134 8131 8126 8121 8122 8104 8098 8098 8102 8106 8101 8108 8107 8102 8088 8100 8111 8108 8101 8100 8102 8101 8098 8092 8096 8095 8102 8114 8112 8121 8124 8126 8127 8133 8135 8134 8130 8129 8125 8127 8122 8130 8129 8128 8129 8130 8126 8123 8124 8122 8129 8129 8122 8127 8128 8131 8130 8127 8127 8125 
8140 8130 8130 8131 8126 8137 8134 8138 8139 8135 8138 8135 8136 8139 8133 8131 8130 8139 8129 8128 8134 8121 8127 8110 8107 8095 8092 8094 8097 8100 8105 8112 8108 8104 8092 8102 8114 8118 8110 8106 8100 8102 8111 8102 8092 8104 8107 8111 8117 8119 8120 8120 8123 8131 8132 8131 8126 8126 8126 8126 8126 8134 8131 8131 8130 8127 8128 8118 8123 8122 8126 8128 8127 8124 8129 8126 8127 8129 8126 8119 
8145 8132 8136 8135 8141 8134 8136 8138 8136 8138 8131 8140 8138 8145 8130 8131 8129 8131 8130 8134 8132 8121 8113 8112 8115 8102 8096 8098 8099 8107 8108 8110 8109 8104 8093 8098 8110 8115 8108 8110 8111 8100 8103 8115 8113 8111 8116 8121 8116 8122 8139 8136 8137 8137 8135 8132 8130 8129 8130 8131 8133 8132 8131 8131 8130 8130 8126 8124 8123 8128 8130 8129 8131 8130 8131 8125 8130 8127 8125 8123 
8139 8141 8136 8126 8140 8135 8139 8129 8142 8139 8136 8134 8137 8140 8135 8133 8136 8140 8131 8137 8130 8121 8108 8107 8099 8113 8106 8106 8106 8109 8111 8109 8111 8107 8102 8100 8108 8113 8111 8109 8108 8115 8109 8120 8119 8118 8124 8119 8118 8120 8136 8124 8128 8130 8136 8132 8130 8127 8130 8128 8130 8130 8132 8134 8129 8128 8126 8127 8128 8124 8125 8126 8132 8127 8125 8128 8130 8121 8126 8124 
8140 8127 8129 8134 8136 8132 8137 8134 8132 8133 8130 8130 8141 8136 8135 8139 8142 8135 8134 8135 8132 8132 8117 8107 8103 8109 8112 8111 8108 8113 8112 8110 8109 8115 8117 8119 8111 8111 8113 8106 8115 8114 8115 8122 8119 8120 8124 8121 8120 8119 8124 8120 8126 8125 8134 8132 8129 8124 8129 8129 8129 8129 8126 8129 8127 8128 8128 8129 8128 8127 8128 8124 8130 8128 8124 8126 8128 8120 8123 8125 
8144 8138 8122 8136 8135 8140 8141 8136 8132 8131 8130 8142 8138 8139 8137 8139 8139 8136 8137 8134 8141 8134 8122 8107 8099 8106 8102 8106 8103 8112 8111 8109 8105 8110 8112 8113 8109 8112 8113 8106 8116 8109 8115 8122 8124 8124 8118 8123 8117 8118 8122 8124 8132 8128 8126 8131 8130 8130 8131 8129 8125 8128 8129 8126 8126 8128 8126 8123 8127 8125 8128 8123 8127 8129 8128 8124 8125 8123 8123 8125 
8137 8139 8132 8138 8136 8134 8139 8139 8147 8141 8143 8137 8142 8127 8135 8143 8142 8140 8137 8137 8143 8130 8131 8126 8113 8105 8104 8106 8103 8108 8108 8111 8109 8118 8114 8117 8107 8110 8109 8104 8117 8122 8118 8121 8123 8114 8119 8117 8114 8120 8127 8127 8134 8127 8131 8128 8127 8127 8130 8121 8126 8127 8125 8131 8128 8128 8128 8124 8126 8128 8124 8132 8129 8126 8131 8134 8131 8124 8125 8125 
8143 8123 8137 8137 8134 8141 8144 8139 8144 8134 8137 8140 8142 8133 8140 8138 8139 8135 8137 8133 8138 8129 8138 8126 8118 8112 8112 8107 8104 8106 8110 8108 8113 8108 8117 8113 8116 8113 8110 8109 8120 8120 8121 8115 8112 8112 8116 8114 8108 8125 8121 8129 8135 8131 8128 8128 8128 8128 8122 8120 8124 8129 8128 8129 8121 8130 8125 8120 8128 8121 8128 8124 8131 8130 8130 8133 8125 8121 8124 8123 
8139 8127 8137 8132 8133 8142 8146 8134 8140 8132 8139 8145 8143 8144 8137 8134 8138 8142 8145 8138 8127 8135 8138 8133 8119 8115 8119 8116 8107 8109 8117 8115 8122 8113 8124 8121 8121 8122 8114 8116 8121 8121 8114 8121 8117 8119 8116 8124 8111 8113 8124 8135 8131 8128 8126 8125 8126 8130 8127 8123 8126 8130 8129 8128 8121 8119 8126 8126 8130 8129 8126 8131 8133 8134 8130 8131 8132 8127 8126 8120 
8138 8121 8127 8130 8137 8137 8142 8133 8133 8134 8138 8137 8139 8142 8138 8142 8140 8137 8145 8127 8132 8133 8135 8138 8119 8113 8108 8109 8114 8117 8123 8121 8120 8125 8123 8125 8119 8127 8123 8126 8124 8128 8130 8114 8120 8119 8124 8122 8121 8124 8124 8133 8131 8130 8116 8129 8128 8129 8119 8122 8128 8127 8127 8122 8118 8121 8126 8124 8128 8134 8128 8124 8134 8137 8132 8129 8129 8122 8125 8119 
8134 8125 8123 8130 8132 8135 8131 8143 8128 8127 8136 8136 8141 8142 8140 8134 8133 8137 8145 8130 8130 8137 8144 8143 8120 8122 8118 8111 8122 8123 8115 8131 8125 8122 8131 8123 8124 8129 8135 8130 8129 8128 8131 8122 8125 8123 8125 8126 8125 8122 8130 8129 8135 8129 8130 8130 8128 8128 8122 8132 8131 8131 8127 8120 8118 8129 8126 8122 8132 8128 8136 8133 8127 8128 8133 8132 8132 8124 8125 8122 
8132 8121 8127 8135 8132 8127 8126 8142 8139 8133 8125 8129 8130 8139 8142 8125 8136 8143 8137 8136 8131 8134 8138 8141 8130 8126 8124 8122 8126 8117 8122 8135 8127 8130 8136 8132 8131 8131 8130 8136 8127 8128 8126 8134 8130 8127 8128 8130 8123 8126 8126 8135 8126 8133 8135 8132 8132 8130 8132 8130 8131 8131 8132 8119 8121 8131 8120 8121 8133 8124 8132 8136 8129 8139 8134 8130 8123 8119 8127 8125 
8123 8118 8127 8126 8132 8134 8131 8137 8123 8134 8128 8133 8128 8141 8139 8135 8135 8142 8136 8133 8136 8136 8137 8142 8138 8127 8130 8122 8124 8123 8129 8125 8127 8138 8139 8135 8134 8137 8135 8128 8129 8132 8131 8136 8135 8134 8134 8131 8132 8132 8137 8136 8134 8124 8135 8130 8127 8126 8125 8127 8134 8134 8134 8124 8124 8128 8119 8131 8135 8127 8131 8137 8135 8136 8129 8125 8118 8115 8130 8127 
8128 8124 8120 8123 8120 8122 8125 8126 8118 8133 8121 8135 8130 8138 8131 8131 8133 8131 8140 8135 8133 8135 8131 8139 8138 8126 8127 8125 8128 8124 8126 8126 8129 8135 8139 8133 8136 8140 8132 8132 8129 8128 8140 8136 8137 8138 8128 8137 8133 8133 8131 8136 8130 8123 8129 8131 8130 8124 8121 8130 8129 8130 8124 8127 8131 8120 8124 8119 8127 8128 8135 8128 8127 8130 8125 8131 8117 8114 8129 8126 
8133 8126 8132 8125 8121 8120 8123 8122 8117 8130 8123 8116 8130 8125 8126 8129 8132 8129 8119 8123 8134 8132 8131 8136 8132 8107 8128 8131 8134 8130 8127 8129 8136 8131 8143 8140 8136 8140 8135 8131 8134 8136 8140 8137 8134 8132 8127 8134 8134 8131 8124 8128 8132 8131 8130 8128 8129 8131 8127 8131 8128 8123 8124 8126 8126 8125 8121 8127 8130 8122 8135 8132 8133 8130 8130 8124 8116 8114 8130 8125 
8126 8122 8132 8117 8112 8114 8129 8116 8119 8123 8119 8108 8126 8120 8126 8117 8116 8131 8119 8123 8128 8122 8126 8132 8126 8112 8106 8128 8134 8138 8136 8129 8137 8134 8137 8143 8142 8141 8133 8133 8128 8135 8137 8135 8136 8123 8128 8127 8129 8122 8115 8118 8111 8124 8127 8129 8124 8128 8120 8125 8123 8120 8126 8127 8119 8131 8125 8134 8124 8120 8131 8133 8129 8127 8122 8115 8119 8110 8125 8120 
8143 8135 8133 8107 8127 8120 8128 8115 8121 8119 8121 8117 8122 8126 8130 8127 8119 8129 8124 8129 8119 8121 8121 8127 8133 8121 8133 8130 8133 8133 8128 8135 8135 8135 8126 8133 8132 8129 8129 8131 8134 8126 8124 8135 8131 8124 8125 8126 8122 8116 8116 8117 8110 8115 8124 8119 8119 8121 8120 8120 8116 8125 8125 8120 8122 8122 8121 8129 8130 8120 8129 8125 8126 8118 8122 8119 8114 8103 8121 8117 
8142 8119 8109 8121 8125 8110 8106 8124 8125 8117 8126 8116 8110 8128 8125 8115 8116 8122 8122 8114 8128 8110 8118 8122 8132 8126 8132 8130 8130 8129 8134 8120 8120 8137 8125 8135 8132 8135 8128 8135 8130 8127 8126 8118 8122 8118 8128 8127 8122 8116 8109 8104 8110 8113 8113 8113 8115 8118 8120 8116 8118 8116 8117 8115 8118 8117 8120 8127 8124 8128 8122 8123 8122 8117 8121 8118 8111 8105 8113 8117 
8143 8129 8129 8123 8125 8117 8118 8128 8126 8123 8123 8120 8130 8131 8129 8122 8125 8123 8120 8121 8126 8121 8125 8122 8127 8124 8126 8131 8129 8128 8127 8123 8124 8132 8135 8134 8128 8133 8134 8131 8129 8127 8127 8122 8118 8120 8126 8124 8124 8111 8110 8109 8105 8109 8107 8108 8108 8112 8113 8112 8109 8114 8110 8110 8108 8114 8116 8121 8126 8121 8119 8120 8122 8122 8120 8116 8110 8109 8116 8118 


