P2
80 60
8177
8150 8144 8161 8162 8168 8160 8159 8158 8163 8160 8163 8168 8161 8164 8160 8164 8161 8161 8161 8159 8162 8166 8166 8156 8164 8172 8165 8165 8169 8170 8172 8170 8170 8173 8170 8166 8167 8165 8172 8168 8169 8168 8164 8161 8162 8170 8167 8168 8173 8174 8168 8167 8167 8157 8150 8155 8157 8155 8162 8166 8164 8161 8162 8159 8164 8161 8158 8161 8160 8164 8170 8166 8170 8170 8174 8173 8165 8170 8170 8165 
8149 8158 8167 8160 8169 8164 8160 8160 8155 8165 8162 8164 8160 8158 8155 8163 8158 8158 8154 8165 8166 8165 8168 8159 8165 8161 8154 8159 8170 8162 8169 8168 8164 8168 8163 8161 8157 8169 8172 8169 8167 8164 8159 8161 8166 8162 8170 8168 8168 8172 8162 8168 8166 8161 8152 8160 8156 8154 8159 8158 8161 8161 8168 8158 8159 8157 8160 8160 8164 8166 8165 8157 8169 8167 8172 8164 8167 8169 8168 8164 
8129 8146 8151 8149 8163 8155 8154 8161 8157 8162 8164 8160 8153 8162 8156 8158 8160 8157 8156 8162 8157 8165 8160 8157 8160 8166 8160 8164 8166 8153 8163 8166 8158 8170 8165 8161 8156 8165 8167 8167 8167 8158 8157 8164 8165 8164 8164 8164 8166 8168 8165 8156 8159 8165 8162 8157 8154 8158 8159 8153 8166 8164 8156 8164 8162 8158 8160 8159 8164 8171 8159 8158 8165 8162 8160 8160 8170 8168 8167 8162 
8149 8141 8164 8148 8165 8153 8165 8164 8161 8160 8153 8148 8154 8158 8152 8156 8154 8159 8153 8154 8156 8150 8142 8161 8160 8163 8164 8167 8167 8166 8159 8165 8166 8163 8172 8158 8167 8167 8162 8165 8163 8155 8163 8154 8159 8159 8168 8165 8171 8163 8166 8160 8165 8159 8159 8159 8151 8154 8156 8154 8159 8166 8156 8161 8155 8150 8158 8158 8162 8166 8156 8165 8164 8165 8166 8158 8168 8168 8165 8170 
8148 8141 8159 8151 8156 8160 8159 8154 8151 8160 8157 8148 8152 8156 8150 8159 8155 8151 8160 8153 8157 8157 8149 8150 8157 8165 8157 8161 8160 8165 8162 8167 8163 8161 8162 8162 8166 8160 8161 8163 8165 8160 8153 8152 8154 8153 8158 8162 8162 8168 8159 8156 8157 8158 8161 8157 8149 8159 8158 8159 8162 8164 8155 8161 8153 8152 8150 8148 8163 8159 8155 8167 8161 8166 8150 8158 8165 8163 8163 8168 
8154 8149 8151 8151 8152 8156 8164 8159 8159 8159 8144 8155 8158 8154 8150 8153 8155 8147 8158 8162 8157 8154 8162 8148 8162 8165 8161 8162 8157 8161 8172 8167 8158 8157 8164 8163 8164 8164 8156 8169 8167 8161 8166 8154 8157 8160 8161 8164 8161 8165 8165 8159 8165 8159 8158 8162 8159 8160 8161 8162 8159 8159 8158 8155 8150 8160 8151 8147 8157 8163 8161 8153 8166 8154 8150 8155 8158 8155 8163 8171 
8155 8156 8155 8166 8159 8153 8168 8166 8157 8150 8140 8169 8158 8146 8151 8158 8148 8148 8159 8170 8153 8158 8164 8157 8166 8164 8152 8155 8156 8165 8166 8170 8159 8160 8160 8163 8160 8155 8165 8165 8166 8155 8163 8157 8162 8157 8167 8163 8165 8167 8163 8155 8161 8164 8158 8161 8149 8154 8161 8161 8152 8158 8158 8155 8153 8155 8158 8162 8146 8149 8167 8165 8159 8155 8161 8153 8151 8151 8161 8162 
8156 8155 8149 8162 8152 8153 8163 8169 8163 8141 8158 8163 8158 8153 8158 8157 8152 8157 8154 8154 8161 8159 8162 8164 8165 8169 8145 8159 8161 8171 8167 8168 8166 8166 8164 8165 8159 8160 8159 8165 8164 8152 8162 8159 8156 8159 8163 8159 8164 8162 8160 8156 8162 8157 8156 8157 8156 8159 8155 8159 8151 8156 8155 8157 8151 8163 8156 8162 8148 8151 8152 8154 8159 8150 8160 8154 8147 8155 8157 8158 
8160 8148 8151 8154 8158 8153 8166 8162 8159 8147 8154 8155 8149 8155 8145 8154 8151 8147 8155 8161 8162 8148 8152 8156 8149 8163 8151 8157 8158 8158 8163 8162 8157 8159 8162 8164 8165 8158 8159 8162 8162 8155 8160 8155 8158 8165 8157 8159 8161 8157 8155 8155 8159 8156 8163 8148 8153 8154 8153 8156 8151 8151 8150 8151 8152 8149 8151 8159 8148 8154 8147 8149 8144 8151 8149 8152 8149 8153 8148 8152 
8163 8144 8154 8160 8156 8160 8152 8162 8161 8160 8154 8156 8155 8160 8152 8144 8154 8152 8159 8165 8159 8154 8159 8150 8145 8160 8158 8162 8160 8158 8160 8161 8157 8157 8168 8167 8165 8161 8157 8161 8156 8158 8162 8147 8150 8162 8162 8163 8163 8160 8154 8160 8162 8155 8158 8143 8157 8158 8158 8157 8156 8157 8156 8155 8154 8147 8148 8152 8148 8155 8156 8153 8152 8149 8150 8143 8149 8153 8147 8145 
8157 8142 8154 8154 8153 8157 8146 8160 8159 8151 8154 8150 8154 8156 8145 8151 8154 8146 8145 8156 8158 8153 8156 8156 8147 8152 8156 8160 8162 8162 8159 8153 8148 8166 8162 8155 8155 8157 8157 8154 8156 8151 8145 8162 8154 8161 8162 8157 8162 8155 8155 8156 8158 8159 8149 8143 8157 8144 8158 8155 8155 8156 8158 8149 8149 8148 8155 8151 8149 8149 8148 8151 8141 8144 8143 8136 8140 8144 8147 8133 
8154 8158 8157 8153 8147 8153 8149 8161 8163 8152 8160 8149 8154 8154 8149 8153 8149 8147 8147 8161 8166 8158 8146 8157 8158 8159 8156 8158 8164 8159 8166 8160 8148 8165 8153 8150 8156 8157 8158 8151 8154 8156 8154 8165 8157 8158 8162 8156 8160 8161 8163 8164 8162 8162 8153 8151 8155 8146 8161 8160 8152 8155 8149 8152 8145 8147 8156 8148 8149 8143 8149 8147 8145 8145 8136 8136 8148 8144 8146 8140 
8155 8151 8145 8144 8139 8156 8158 8146 8154 8153 8152 8152 8149 8147 8151 8157 8147 8154 8153 8155 8150 8155 8149 8149 8156 8154 8143 8156 8159 8154 8169 8154 8154 8159 8145 8149 8161 8161 8148 8147 8149 8152 8162 8161 8156 8153 8158 8155 8153 8154 8165 8160 8159 8159 8161 8147 8158 8150 8153 8155 8152 8153 8154 8144 8151 8148 8152 8145 8151 8137 8141 8145 8145 8141 8139 8146 8149 8143 8142 8135 
8154 8165 8160 8159 8157 8157 8157 8161 8148 8161 8161 8156 8151 8156 8154 8152 8157 8154 8154 8161 8158 8155 8151 8153 8151 8157 8156 8156 8150 8158 8166 8151 8157 8162 8153 8160 8151 8157 8148 8146 8153 8152 8160 8160 8155 8153 8139 8137 8147 8157 8157 8163 8157 8158 8161 8149 8154 8155 8153 8152 8151 8150 8154 8149 8156 8155 8150 8148 8153 8147 8151 8151 8148 8147 8137 8146 8145 8156 8147 8141 
8163 8148 8159 8162 8157 8156 8154 8162 8152 8151 8157 8158 8156 8159 8157 8156 8153 8150 8156 8161 8145 8153 8148 8153 8149 8153 8156 8150 8152 8160 8150 8150 8150 8151 8149 8153 8154 8149 8149 8144 8149 8149 8150 8155 8145 8124 8116 8115 8119 8130 8146 8159 8160 8163 8155 8157 8157 8156 8151 8154 8152 8147 8149 8154 8153 8156 8151 8149 8151 8148 8150 8147 8148 8146 8136 8139 8141 8145 8147 8135 
8169 8142 8150 8160 8156 8149 8152 8159 8156 8161 8158 8154 8154 8151 8156 8161 8157 8152 8160 8161 8149 8153 8151 8152 8150 8162 8161 8148 8149 8158 8155 8151 8149 8154 8148 8155 8155 8150 8146 8144 8153 8150 8144 8148 8136 8146 8144 8147 8124 8118 8126 8139 8157 8160 8153 8158 8155 8153 8154 8157 8156 8146 8152 8152 8159 8159 8148 8150 8148 8149 8151 8147 8147 8146 8141 8143 8143 8148 8144 8136 
8167 8143 8150 8161 8151 8144 8151 8149 8156 8155 8156 8157 8148 8151 8146 8157 8148 8156 8160 8153 8140 8154 8156 8149 8144 8155 8153 8150 8149 8152 8158 8147 8136 8147 8137 8142 8146 8143 8144 8132 8123 8112 8111 8116 8135 8146 8150 8146 8146 8130 8123 8123 8138 8150 8148 8150 8148 8151 8149 8150 8155 8146 8151 8150 8158 8153 8152 8153 8148 8146 8143 8145 8143 8150 8143 8146 8140 8145 8146 8137 
8164 8151 8157 8146 8150 8162 8152 8161 8153 8163 8159 8156 8161 8164 8159 8158 8150 8151 8159 8154 8152 8154 8155 8146 8146 8159 8149 8117 8128 8144 8124 8111 8102 8109 8095 8102 8102 8108 8110 8097 8111 8118 8109 8111 8112 8135 8153 8147 8159 8158 8131 8122 8117 8141 8149 8149 8147 8146 8149 8158 8151 8152 8154 8155 8156 8152 8156 8154 8153 8149 8145 8152 8155 8150 8147 8148 8143 8142 8144 8139 
8161 8152 8159 8153 8151 8150 8160 8162 8161 8152 8159 8156 8160 8158 8154 8156 8149 8152 8150 8145 8139 8145 8145 8151 8150 8159 8154 8108 8128 8109 8104 8104 8104 8102 8090 8092 8090 8094 8106 8099 8101 8097 8107 8107 8113 8134 8150 8154 8145 8150 8154 8130 8115 8127 8140 8143 8154 8151 8153 8155 8150 8147 8159 8156 8154 8148 8152 8150 8149 8151 8152 8149 8151 8143 8144 8149 8140 8144 8146 8139 
8163 8149 8156 8154 8148 8159 8162 8161 8161 8156 8164 8160 8157 8153 8158 8156 8149 8137 8111 8106 8101 8112 8131 8137 8145 8137 8139 8112 8113 8100 8100 8097 8092 8100 8091 8093 8094 8098 8122 8109 8099 8098 8107 8104 8116 8136 8130 8136 8151 8155 8154 8150 8118 8114 8138 8147 8153 8153 8152 8149 8153 8152 8158 8157 8160 8152 8150 8151 8153 8154 8151 8155 8150 8146 8147 8146 8145 8150 8150 8136 
8163 8156 8148 8139 8143 8149 8148 8165 8164 8157 8154 8157 8152 8146 8143 8151 8146 8141 8098 8093 8079 8096 8108 8107 8104 8102 8100 8105 8095 8105 8104 8101 8089 8096 8096 8096 8090 8098 8119 8126 8123 8101 8103 8096 8097 8100 8099 8132 8148 8150 8148 8152 8141 8115 8121 8150 8152 8157 8154 8150 8151 8151 8156 8157 8156 8154 8149 8155 8152 8151 8152 8155 8146 8146 8150 8150 8142 8147 8149 8139 
8162 8159 8152 8160 8158 8156 8140 8163 8149 8162 8153 8143 8144 8126 8109 8110 8105 8123 8088 8085 8086 8100 8098 8115 8098 8102 8100 8102 8097 8088 8101 8094 8097 8102 8103 8109 8093 8096 8120 8139 8124 8118 8100 8087 8088 8095 8091 8109 8126 8126 8140 8147 8141 8134 8119 8143 8152 8155 8149 8150 8149 8151 8157 8154 8156 8154 8150 8154 8155 8150 8150 8147 8149 8145 8153 8149 8143 8151 8151 8147 
8161 8149 8157 8160 8156 8152 8142 8139 8146 8157 8159 8140 8104 8100 8095 8102 8104 8092 8084 8090 8083 8094 8089 8098 8101 8095 8095 8092 8100 8105 8110 8097 8102 8106 8107 8105 8092 8088 8103 8093 8090 8096 8099 8095 8089 8107 8094 8095 8091 8094 8102 8107 8103 8111 8109 8127 8147 8154 8147 8148 8152 8151 8157 8154 8154 8155 8148 8153 8151 8149 8150 8143 8147 8144 8153 8153 8150 8150 8154 8152 
8163 8159 8158 8155 8158 8161 8154 8145 8155 8158 8155 8118 8101 8095 8099 8097 8098 8122 8123 8121 8091 8087 8097 8085 8096 8097 8100 8099 8102 8094 8102 8108 8104 8106 8121 8109 8101 8112 8108 8123 8117 8109 8099 8114 8105 8122 8113 8093 8095 8118 8115 8110 8095 8100 8104 8115 8154 8155 8144 8150 8149 8152 8158 8156 8161 8157 8153 8160 8147 8149 8148 8146 8150 8146 8152 8148 8147 8157 8154 8153 
8165 8145 8159 8163 8156 8153 8149 8162 8163 8149 8138 8103 8106 8100 8100 8100 8112 8136 8137 8129 8100 8090 8095 8087 8094 8101 8102 8099 8101 8092 8110 8104 8104 8108 8126 8100 8103 8095 8093 8103 8089 8097 8098 8099 8109 8128 8128 8105 8115 8105 8102 8105 8100 8104 8111 8129 8148 8150 8148 8157 8149 8149 8151 8158 8163 8156 8154 8159 8149 8150 8154 8154 8152 8149 8151 8146 8149 8149 8156 8158 
8162 8144 8151 8164 8152 8146 8164 8147 8144 8151 8114 8107 8102 8103 8102 8101 8099 8106 8113 8113 8099 8094 8098 8086 8092 8097 8097 8105 8107 8105 8096 8101 8093 8101 8105 8094 8106 8098 8095 8099 8103 8102 8101 8097 8107 8111 8112 8101 8106 8103 8111 8117 8112 8118 8113 8118 8118 8118 8119 8133 8139 8141 8148 8154 8155 8157 8155 8156 8148 8147 8146 8151 8151 8150 8148 8149 8146 8151 8159 8161 
8157 8152 8143 8157 8151 8156 8155 8145 8153 8151 8111 8113 8098 8103 8099 8103 8101 8104 8126 8121 8097 8089 8091 8095 8092 8094 8104 8101 8105 8099 8092 8097 8089 8095 8098 8101 8097 8096 8100 8104 8106 8100 8099 8100 8104 8105 8112 8106 8111 8107 8107 8119 8113 8123 8119 8116 8113 8117 8121 8124 8119 8120 8145 8151 8154 8153 8152 8150 8147 8149 8149 8151 8150 8150 8150 8154 8154 8153 8156 8160 
8156 8159 8158 8162 8160 8144 8157 8156 8151 8143 8105 8107 8108 8102 8100 8102 8106 8109 8130 8137 8101 8088 8091 8091 8087 8101 8097 8099 8095 8095 8092 8103 8094 8098 8100 8101 8093 8093 8107 8106 8104 8102 8102 8109 8107 8105 8124 8112 8109 8113 8107 8124 8113 8121 8125 8119 8122 8122 8126 8129 8128 8126 8131 8141 8158 8159 8155 8144 8144 8148 8150 8151 8149 8149 8150 8154 8158 8154 8159 8155 
8155 8148 8149 8160 8154 8156 8155 8156 8150 8127 8113 8111 8108 8104 8106 8101 8104 8111 8139 8144 8114 8091 8090 8091 8092 8099 8096 8092 8094 8088 8092 8100 8093 8097 8098 8099 8104 8102 8113 8103 8107 8104 8105 8111 8105 8097 8104 8109 8108 8102 8108 8115 8120 8121 8123 8122 8122 8125 8125 8118 8127 8120 8127 8128 8146 8156 8154 8148 8142 8147 8148 8149 8145 8146 8149 8151 8146 8163 8157 8152 
8154 8145 8152 8159 8152 8162 8163 8154 8139 8110 8115 8111 8108 8108 8104 8112 8107 8124 8148 8147 8136 8104 8091 8098 8096 8098 8098 8098 8086 8093 8094 8098 8115 8101 8104 8098 8106 8120 8113 8106 8106 8105 8109 8113 8102 8094 8093 8096 8095 8097 8106 8111 8126 8128 8125 8121 8123 8118 8119 8117 8116 8121 8130 8130 8135 8151 8156 8149 8147 8145 8148 8150 8147 8146 8155 8144 8149 8163 8158 8154 
8157 8154 8152 8162 8154 8160 8153 8155 8130 8105 8116 8110 8107 8115 8108 8113 8117 8135 8148 8148 8143 8115 8098 8107 8093 8099 8109 8103 8088 8086 8097 8104 8121 8105 8112 8096 8107 8122 8111 8110 8108 8105 8105 8104 8104 8099 8096 8094 8095 8102 8108 8109 8114 8116 8119 8116 8124 8122 8121 8116 8117 8123 8137 8131 8133 8139 8148 8151 8144 8142 8144 8150 8146 8155 8153 8145 8154 8155 8158 8152 
8160 8151 8147 8156 8150 8161 8149 8143 8119 8106 8105 8118 8114 8109 8113 8118 8138 8142 8149 8148 8137 8124 8099 8102 8106 8111 8124 8133 8110 8097 8094 8105 8115 8104 8133 8114 8109 8105 8121 8114 8106 8107 8102 8111 8109 8105 8099 8100 8106 8114 8121 8114 8121 8118 8121 8116 8122 8123 8125 8128 8122 8122 8127 8132 8131 8129 8141 8143 8147 8143 8146 8153 8151 8145 8146 8144 8148 8155 8154 8150 
8160 8155 8151 8154 8147 8159 8152 8130 8120 8115 8111 8117 8110 8114 8118 8134 8146 8146 8146 8146 8140 8138 8104 8104 8132 8144 8154 8152 8145 8123 8116 8104 8110 8108 8137 8117 8107 8096 8105 8107 8107 8110 8105 8109 8110 8107 8108 8104 8100 8104 8109 8111 8123 8123 8123 8116 8121 8124 8130 8120 8121 8116 8119 8123 8126 8123 8133 8142 8146 8146 8143 8145 8137 8138 8146 8150 8142 8151 8154 8149 
8165 8146 8162 8160 8159 8160 8149 8125 8120 8115 8119 8119 8109 8124 8140 8149 8147 8155 8155 8146 8146 8143 8100 8099 8129 8152 8152 8155 8155 8149 8126 8112 8093 8102 8108 8116 8107 8108 8106 8110 8113 8110 8109 8113 8116 8106 8105 8105 8103 8105 8110 8110 8125 8123 8122 8118 8125 8126 8122 8121 8122 8119 8122 8126 8125 8124 8138 8145 8146 8148 8147 8152 8143 8148 8153 8144 8146 8153 8149 8148 
8166 8155 8164 8155 8162 8152 8153 8127 8119 8114 8123 8122 8126 8142 8154 8149 8154 8152 8154 8144 8143 8125 8102 8094 8114 8135 8123 8123 8148 8144 8130 8100 8090 8099 8102 8104 8104 8124 8122 8119 8105 8112 8113 8110 8109 8100 8102 8107 8107 8111 8114 8113 8116 8118 8122 8117 8124 8125 8118 8123 8128 8130 8129 8126 8125 8123 8139 8143 8147 8144 8143 8146 8138 8149 8145 8141 8141 8146 8147 8145 
8169 8159 8154 8159 8159 8155 8152 8128 8120 8114 8114 8138 8151 8150 8154 8155 8154 8153 8136 8110 8107 8109 8124 8094 8094 8094 8121 8136 8134 8114 8107 8096 8108 8107 8102 8107 8111 8122 8132 8132 8106 8129 8119 8114 8114 8100 8098 8102 8105 8117 8113 8122 8118 8118 8130 8127 8126 8127 8123 8130 8129 8134 8134 8128 8127 8125 8147 8141 8148 8146 8147 8147 8142 8142 8144 8151 8145 8143 8147 8145 
8172 8162 8160 8161 8161 8156 8150 8118 8122 8117 8136 8126 8124 8124 8139 8143 8140 8136 8139 8113 8100 8104 8113 8099 8095 8094 8137 8142 8120 8108 8099 8100 8103 8107 8104 8102 8103 8104 8104 8104 8110 8138 8140 8124 8120 8122 8115 8111 8110 8115 8114 8120 8122 8116 8139 8145 8135 8135 8129 8133 8130 8130 8131 8125 8129 8140 8151 8141 8140 8141 8148 8149 8147 8152 8150 8149 8148 8142 8147 8137 
8163 8158 8162 8160 8160 8156 8152 8120 8127 8144 8131 8118 8126 8139 8150 8152 8134 8114 8100 8098 8102 8112 8118 8108 8095 8103 8105 8109 8114 8113 8100 8103 8104 8109 8099 8098 8115 8116 8099 8100 8106 8131 8133 8143 8132 8148 8117 8102 8110 8116 8119 8120 8126 8125 8144 8153 8149 8145 8131 8129 8124 8127 8128 8127 8133 8142 8144 8153 8145 8145 8151 8148 8147 8152 8154 8150 8150 8150 8146 8143 
8160 8160 8158 8160 8159 8161 8144 8130 8144 8137 8123 8143 8155 8151 8154 8142 8125 8125 8104 8110 8138 8135 8124 8123 8107 8099 8099 8116 8139 8128 8109 8104 8102 8097 8090 8102 8106 8103 8096 8115 8111 8134 8148 8149 8144 8141 8133 8106 8111 8112 8120 8118 8127 8138 8145 8155 8151 8152 8133 8126 8124 8127 8127 8125 8139 8145 8152 8151 8147 8143 8140 8145 8148 8146 8150 8154 8151 8148 8146 8145 
8161 8162 8172 8164 8161 8161 8154 8144 8143 8129 8149 8155 8155 8153 8149 8136 8136 8138 8114 8109 8131 8137 8144 8145 8130 8125 8108 8115 8144 8112 8104 8103 8100 8093 8095 8110 8114 8111 8127 8130 8138 8141 8148 8148 8143 8145 8138 8115 8105 8114 8118 8125 8141 8152 8153 8154 8150 8156 8152 8134 8122 8125 8129 8127 8146 8147 8147 8149 8150 8147 8146 8143 8144 8149 8156 8153 8150 8140 8147 8149 
8157 8160 8172 8156 8160 8165 8155 8152 8128 8142 8154 8161 8153 8151 8158 8145 8143 8128 8114 8112 8109 8114 8126 8140 8133 8140 8134 8105 8105 8116 8108 8101 8104 8097 8102 8109 8119 8120 8131 8129 8129 8136 8140 8140 8137 8138 8137 8128 8109 8116 8124 8124 8146 8152 8156 8155 8154 8150 8150 8156 8138 8131 8129 8141 8151 8149 8144 8143 8147 8145 8149 8144 8142 8150 8151 8147 8146 8138 8142 8140 
8159 8153 8166 8151 8162 8162 8150 8132 8140 8156 8156 8161 8158 8156 8160 8155 8128 8112 8112 8110 8111 8118 8143 8140 8134 8121 8117 8108 8101 8109 8105 8108 8109 8107 8111 8118 8125 8118 8109 8115 8115 8120 8124 8122 8122 8119 8121 8125 8119 8121 8123 8127 8140 8157 8160 8158 8151 8152 8148 8152 8144 8147 8148 8153 8157 8155 8148 8141 8148 8143 8150 8150 8143 8150 8151 8154 8151 8156 8145 8150 
8164 8153 8155 8154 8148 8161 8145 8135 8159 8161 8162 8162 8159 8162 8150 8143 8112 8115 8101 8105 8129 8139 8137 8123 8116 8115 8114 8114 8107 8105 8110 8114 8112 8110 8113 8122 8125 8122 8112 8114 8115 8120 8124 8124 8123 8130 8124 8124 8128 8123 8123 8125 8132 8157 8155 8156 8146 8150 8152 8153 8147 8157 8154 8156 8161 8154 8149 8139 8144 8144 8144 8153 8150 8148 8156 8153 8150 8153 8147 8150 
8164 8155 8160 8155 8158 8154 8141 8151 8164 8164 8156 8165 8164 8167 8148 8134 8110 8105 8105 8133 8151 8147 8144 8138 8149 8135 8123 8123 8119 8114 8115 8114 8111 8103 8101 8113 8112 8117 8112 8113 8117 8116 8121 8131 8133 8133 8132 8134 8128 8129 8135 8134 8149 8163 8161 8154 8155 8150 8154 8157 8161 8159 8157 8157 8156 8156 8145 8142 8144 8147 8151 8151 8150 8153 8155 8150 8153 8156 8145 8144 
8161 8164 8158 8149 8160 8155 8149 8145 8168 8166 8161 8158 8160 8164 8152 8121 8112 8114 8124 8153 8151 8149 8144 8135 8152 8165 8138 8129 8124 8124 8124 8119 8122 8116 8112 8113 8118 8118 8116 8121 8119 8127 8123 8136 8132 8131 8141 8138 8138 8137 8142 8135 8141 8153 8160 8154 8156 8150 8153 8152 8154 8153 8156 8157 8154 8153 8145 8148 8147 8146 8146 8147 8151 8152 8149 8150 8152 8146 8145 8140 
8159 8149 8151 8158 8158 8155 8162 8156 8160 8157 8157 8155 8163 8159 8151 8123 8118 8126 8148 8154 8155 8155 8156 8141 8145 8141 8137 8132 8130 8125 8127 8124 8123 8129 8129 8131 8125 8119 8122 8120 8127 8127 8130 8137 8132 8135 8138 8142 8142 8143 8145 8137 8141 8147 8160 8154 8156 8149 8156 8155 8157 8153 8150 8154 8154 8156 8150 8149 8149 8148 8150 8145 8152 8152 8148 8149 8151 8147 8147 8145 
8165 8164 8145 8162 8159 8162 8167 8162 8160 8159 8159 8166 8162 8163 8150 8125 8128 8147 8154 8153 8164 8159 8158 8152 8140 8127 8123 8126 8130 8131 8130 8127 8127 8128 8128 8129 8125 8126 8122 8123 8128 8122 8126 8135 8135 8137 8134 8143 8139 8143 8146 8142 8154 8154 8153 8157 8154 8156 8155 8152 8154 8154 8151 8152 8153 8153 8149 8146 8147 8149 8151 8146 8151 8155 8156 8146 8149 8150 8146 8141 
8159 8165 8155 8163 8158 8158 8165 8166 8171 8169 8168 8165 8165 8150 8151 8146 8157 8157 8154 8159 8161 8153 8156 8160 8142 8126 8119 8122 8128 8132 8133 8134 8130 8136 8130 8129 8122 8120 8118 8120 8134 8133 8132 8134 8133 8129 8134 8141 8141 8145 8147 8144 8162 8155 8154 8154 8155 8158 8155 8150 8152 8155 8152 8158 8157 8150 8150 8140 8150 8150 8150 8155 8150 8149 8158 8159 8155 8151 8150 8140 
8165 8147 8162 8161 8158 8165 8172 8164 8169 8160 8165 8163 8166 8155 8161 8158 8157 8153 8155 8155 8160 8150 8160 8155 8145 8130 8123 8122 8124 8126 8130 8128 8135 8126 8127 8124 8130 8125 8120 8124 8135 8135 8137 8133 8129 8133 8137 8139 8136 8149 8141 8154 8162 8160 8156 8152 8153 8156 8149 8145 8152 8157 8155 8155 8149 8152 8147 8140 8149 8143 8153 8146 8152 8152 8159 8159 8147 8146 8151 8148 
8162 8149 8161 8158 8154 8166 8174 8163 8166 8160 8166 8169 8166 8166 8159 8157 8160 8160 8164 8157 8147 8158 8160 8158 8149 8136 8132 8136 8128 8128 8138 8136 8141 8130 8136 8136 8136 8134 8126 8133 8137 8140 8134 8141 8137 8142 8140 8151 8144 8137 8146 8161 8159 8155 8152 8151 8150 8155 8155 8149 8155 8158 8157 8155 8147 8146 8147 8146 8151 8154 8149 8152 8156 8157 8156 8152 8155 8155 8151 8162 
8158 8145 8152 8154 8160 8159 8168 8159 8162 8162 8166 8164 8163 8166 8161 8165 8159 8156 8162 8147 8154 8154 8156 8161 8146 8144 8127 8130 8138 8137 8147 8143 8138 8141 8140 8141 8139 8141 8139 8144 8142 8147 8150 8137 8142 8141 8150 8150 8151 8153 8149 8164 8159 8158 8139 8155 8155 8154 8147 8144 8155 8156 8154 8148 8146 8146 8150 8145 8155 8159 8153 8150 8155 8163 8157 8151 8153 8149 8148 8151 
8158 8153 8151 8153 8155 8158 8158 8171 8152 8154 8164 8162 8165 8166 8160 8155 8153 8155 8165 8150 8155 8156 8164 8162 8148 8154 8139 8134 8142 8147 8138 8158 8151 8144 8150 8144 8144 8144 8148 8150 8148 8148 8148 8144 8147 8148 8149 8151 8159 8151 8155 8156 8162 8158 8155 8155 8155 8153 8148 8159 8157 8159 8154 8146 8145 8152 8152 8145 8155 8151 8160 8156 8150 8153 8160 8157 8156 8155 8148 8149 
8154 8149 8155 8160 8156 8153 8152 8171 8168 8162 8151 8157 8155 8160 8163 8145 8157 8164 8155 8156 8151 8157 8159 8158 8157 8161 8147 8146 8148 8140 8146 8164 8164 8159 8157 8152 8152 8147 8146 8153 8147 8149 8147 8155 8152 8150 8152 8154 8152 8155 8152 8163 8152 8160 8161 8155 8157 8157 8158 8157 8156 8159 8159 8145 8150 8156 8144 8144 8155 8145 8155 8159 8153 8166 8160 8155 8147 8148 8152 8148 
8148 8146 8154 8152 8156 8159 8160 8164 8148 8162 8154 8160 8152 8163 8161 8157 8156 8162 8154 8154 8156 8154 8160 8162 8163 8159 8154 8148 8146 8144 8154 8153 8165 8177 8167 8155 8158 8154 8150 8148 8148 8154 8151 8157 8155 8156 8155 8155 8163 8158 8167 8163 8159 8150 8163 8155 8151 8151 8154 8151 8161 8162 8158 8150 8152 8151 8142 8156 8161 8149 8155 8164 8156 8160 8154 8151 8144 8143 8154 8149 
8151 8153 8147 8148 8143 8147 8152 8154 8143 8162 8149 8159 8152 8164 8155 8153 8154 8151 8159 8157 8153 8157 8153 8159 8163 8159 8148 8145 8149 8144 8147 8148 8158 8170 8174 8162 8158 8156 8147 8151 8152 8152 8159 8158 8160 8160 8148 8161 8162 8163 8164 8166 8156 8151 8157 8153 8155 8151 8147 8155 8158 8158 8151 8153 8158 8141 8146 8139 8151 8155 8159 8151 8151 8155 8152 8156 8139 8144 8153 8156 
8152 8151 8154 8148 8142 8143 8151 8150 8144 8159 8150 8142 8155 8151 8147 8149 8153 8152 8142 8148 8157 8155 8152 8159 8156 8137 8149 8147 8153 8150 8148 8154 8159 8159 8176 8171 8162 8159 8152 8152 8155 8154 8161 8162 8159 8159 8147 8159 8165 8163 8159 8156 8157 8158 8157 8154 8155 8156 8153 8158 8154 8149 8153 8152 8156 8149 8144 8151 8153 8143 8159 8156 8156 8155 8158 8150 8141 8141 8160 8162 
8147 8150 8157 8141 8134 8135 8155 8142 8146 8153 8150 8136 8152 8147 8149 8140 8136 8151 8140 8147 8152 8146 8149 8154 8148 8132 8126 8144 8151 8155 8156 8151 8158 8155 8159 8170 8167 8156 8148 8154 8152 8158 8158 8159 8160 8149 8155 8157 8161 8161 8151 8149 8139 8147 8154 8153 8148 8154 8145 8150 8151 8148 8153 8151 8146 8155 8148 8156 8144 8145 8157 8155 8152 8150 8149 8142 8145 8142 8154 8161 
8166 8161 8157 8131 8147 8144 8156 8141 8150 8147 8150 8141 8145 8150 8153 8149 8140 8150 8147 8151 8143 8144 8145 8151 8153 8138 8150 8147 8148 8149 8150 8156 8155 8156 8145 8157 8156 8144 8147 8152 8154 8148 8146 8158 8158 8151 8156 8157 8157 8153 8151 8151 8140 8140 8148 8144 8146 8147 8147 8144 8141 8153 8153 8145 8151 8147 8146 8152 8151 8146 8151 8150 8150 8144 8149 8145 8139 8132 8148 8150 
8161 8147 8137 8147 8150 8135 8136 8152 8153 8148 8158 8143 8132 8155 8146 8139 8139 8143 8141 8137 8155 8136 8144 8145 8155 8143 8149 8146 8146 8144 8154 8141 8142 8159 8144 8155 8155 8152 8147 8159 8152 8151 8148 8146 8149 8148 8157 8156 8154 8153 8144 8141 8141 8138 8138 8137 8140 8143 8145 8142 8148 8144 8144 8144 8144 8143 8143 8149 8149 8151 8148 8148 8150 8143 8145 8145 8139 8136 8142 8147 
8166 8157 8156 8149 8150 8145 8145 8155 8155 8155 8154 8148 8155 8156 8154 8148 8150 8146 8141 8145 8151 8151 8154 8146 8146 8147 8142 8145 8144 8143 8144 8143 8144 8151 8153 8155 8152 8153 8150 8154 8154 8151 8152 8149 8146 8149 8156 8156 8156 8152 8143 8140 8135 8133 8131 8131 8133 8138 8141 8138 8138 8141 8136 8135 8139 8138 8140 8144 8151 8146 8146 8146 8147 8147 8146 8142 8134 8139 8146 8140 


