P2
80 60
8349
8249 8263 8263 8264 8266 8259 8255 8254 8254 8254 8254 8253 8250 8256 8253 8253 8253 8248 8251 8255 8261 8261 8263 8261 8260 8258 8265 8265 8261 8261 8264 8263 8267 8267 8265 8265 8268 8267 8267 8268 8260 8259 8256 8257 8254 8260 8257 8257 8253 8254 8251 8247 8243 8242 8237 8234 8237 8237 8234 8235 8239 8235 8234 8233 8232 8231 8230 8231 8232 8231 8231 8232 8232 8235 8232 8233 8231 8233 8230 8228 
8253 8263 8267 8266 8267 8259 8253 8255 8250 8252 8251 8250 8248 8250 8248 8254 8251 8251 8249 8258 8258 8257 8262 8257 8261 8260 8262 8262 8261 8257 8263 8262 8264 8266 8266 8265 8261 8267 8267 8264 8260 8259 8250 8251 8253 8254 8254 8254 8251 8251 8249 8246 8243 8241 8237 8238 8236 8236 8236 8237 8237 8236 8236 8231 8230 8229 8228 8231 8234 8231 8228 8228 8233 8233 8230 8233 8230 8231 8229 8234 
8247 8254 8256 8256 8263 8251 8250 8250 8249 8247 8248 8247 8239 8247 8244 8248 8247 8248 8246 8258 8256 8258 8261 8255 8261 8259 8261 8261 8260 8255 8255 8257 8262 8264 8265 8265 8261 8269 8263 8264 8258 8255 8247 8250 8250 8249 8249 8248 8248 8248 8245 8243 8240 8239 8238 8238 8236 8237 8239 8235 8237 8235 8231 8229 8228 8228 8229 8232 8229 8234 8228 8227 8229 8231 8231 8231 8231 8232 8227 8236 
8254 8246 8264 8252 8258 8248 8250 8251 8249 8245 8239 8237 8242 8242 8240 8246 8247 8246 8250 8254 8256 8251 8246 8256 8258 8258 8264 8262 8260 8256 8257 8259 8266 8262 8264 8266 8264 8266 8264 8264 8256 8251 8246 8247 8246 8244 8247 8247 8244 8245 8246 8238 8238 8236 8236 8234 8236 8238 8239 8234 8235 8234 8232 8228 8224 8224 8224 8227 8231 8230 8228 8227 8229 8232 8230 8232 8232 8232 8226 8228 
8247 8250 8255 8246 8252 8248 8251 8238 8245 8243 8239 8235 8238 8245 8240 8242 8245 8243 8249 8249 8252 8253 8247 8252 8255 8255 8264 8259 8260 8255 8257 8260 8259 8262 8263 8266 8265 8265 8263 8263 8257 8254 8247 8247 8245 8244 8244 8246 8246 8246 8241 8239 8238 8237 8239 8238 8236 8238 8237 8232 8234 8232 8228 8226 8222 8223 8223 8226 8228 8226 8227 8227 8229 8226 8224 8224 8226 8228 8223 8227 
8250 8251 8249 8248 8247 8241 8251 8247 8245 8243 8233 8239 8241 8237 8240 8243 8246 8242 8246 8254 8252 8251 8257 8254 8256 8258 8263 8257 8253 8257 8260 8258 8260 8257 8263 8264 8262 8263 8264 8259 8256 8255 8248 8248 8242 8244 8245 8244 8243 8242 8241 8237 8239 8238 8237 8234 8239 8237 8236 8233 8231 8229 8226 8225 8222 8221 8220 8225 8225 8223 8224 8221 8225 8224 8219 8224 8221 8222 8223 8225 
8250 8255 8251 8257 8253 8246 8254 8253 8246 8236 8232 8243 8243 8238 8241 8247 8241 8238 8249 8257 8253 8253 8256 8256 8258 8254 8251 8252 8253 8257 8257 8260 8257 8258 8257 8262 8261 8258 8261 8259 8257 8254 8246 8246 8244 8246 8245 8247 8246 8240 8237 8236 8234 8237 8235 8235 8236 8231 8238 8232 8230 8226 8225 8227 8220 8224 8224 8225 8223 8219 8219 8220 8221 8222 8217 8219 8216 8218 8218 8222 
8254 8255 8247 8258 8249 8250 8256 8258 8249 8231 8243 8245 8241 8238 8245 8242 8241 8241 8247 8248 8253 8253 8255 8259 8256 8252 8249 8252 8253 8256 8258 8256 8262 8259 8257 8260 8257 8260 8260 8258 8253 8249 8243 8245 8243 8244 8244 8244 8239 8239 8236 8234 8234 8232 8233 8233 8232 8234 8233 8231 8229 8224 8225 8222 8221 8222 8225 8224 8223 8220 8218 8217 8218 8216 8217 8215 8216 8218 8213 8217 
8255 8248 8247 8253 8254 8245 8258 8250 8251 8234 8239 8241 8236 8239 8236 8239 8240 8242 8244 8250 8251 8247 8250 8252 8249 8249 8250 8251 8249 8255 8253 8252 8254 8256 8255 8259 8257 8258 8258 8254 8250 8248 8243 8241 8240 8242 8243 8242 8239 8236 8236 8231 8230 8232 8232 8229 8231 8230 8231 8230 8226 8224 8222 8220 8220 8222 8222 8219 8219 8218 8217 8215 8216 8216 8212 8214 8212 8212 8211 8214 
8250 8242 8246 8252 8247 8251 8243 8247 8247 8241 8237 8239 8235 8239 8235 8235 8242 8238 8244 8252 8249 8250 8253 8247 8244 8247 8250 8250 8250 8250 8249 8250 8252 8252 8254 8257 8257 8256 8255 8253 8247 8243 8237 8242 8238 8241 8240 8240 8238 8232 8232 8230 8230 8230 8228 8225 8228 8228 8232 8229 8227 8226 8223 8219 8218 8220 8221 8220 8219 8215 8216 8214 8213 8212 8209 8210 8208 8210 8207 8210 
8246 8242 8250 8245 8246 8246 8240 8245 8245 8236 8240 8233 8233 8237 8232 8234 8239 8233 8234 8241 8250 8248 8249 8248 8244 8241 8249 8252 8250 8250 8248 8246 8251 8251 8249 8253 8252 8254 8256 8249 8243 8245 8237 8239 8238 8239 8239 8239 8236 8235 8231 8228 8230 8229 8226 8226 8226 8226 8228 8225 8226 8226 8219 8218 8217 8219 8219 8216 8218 8216 8214 8209 8208 8207 8205 8208 8205 8209 8203 8208 
8246 8253 8249 8242 8239 8248 8239 8243 8245 8237 8239 8231 8234 8236 8236 8232 8234 8231 8234 8247 8250 8248 8248 8246 8244 8243 8249 8249 8251 8250 8249 8246 8248 8247 8252 8250 8249 8252 8253 8243 8244 8242 8238 8242 8240 8240 8240 8236 8234 8233 8233 8233 8231 8229 8225 8225 8226 8227 8232 8227 8224 8223 8217 8216 8217 8216 8219 8215 8216 8214 8211 8207 8208 8204 8204 8202 8203 8207 8202 8204 
8247 8253 8244 8240 8240 8245 8247 8237 8239 8235 8232 8231 8232 8232 8234 8234 8232 8234 8238 8241 8247 8248 8248 8246 8244 8244 8246 8252 8246 8249 8251 8244 8246 8245 8243 8248 8248 8248 8247 8242 8238 8241 8237 8238 8238 8238 8237 8235 8235 8234 8232 8230 8230 8228 8232 8226 8224 8226 8229 8225 8221 8220 8221 8214 8216 8218 8217 8215 8214 8210 8209 8207 8206 8204 8203 8204 8199 8203 8197 8203 
8248 8259 8250 8248 8247 8248 8240 8241 8235 8235 8239 8235 8235 8233 8233 8231 8235 8237 8237 8247 8246 8246 8246 8244 8244 8242 8249 8247 8242 8242 8246 8243 8245 8242 8242 8245 8246 8247 8241 8241 8238 8237 8234 8239 8238 8237 8233 8232 8232 8233 8233 8230 8229 8228 8230 8226 8226 8222 8228 8222 8221 8216 8220 8216 8216 8215 8215 8213 8212 8207 8205 8205 8203 8204 8198 8201 8199 8203 8196 8198 
8253 8245 8251 8247 8245 8240 8236 8241 8237 8234 8239 8236 8235 8235 8235 8237 8236 8235 8240 8246 8243 8245 8242 8243 8241 8239 8246 8246 8241 8244 8243 8243 8240 8242 8242 8243 8243 8243 8239 8237 8233 8236 8232 8235 8233 8228 8229 8228 8228 8231 8229 8226 8227 8228 8226 8224 8224 8224 8226 8222 8220 8216 8217 8213 8213 8215 8214 8214 8210 8206 8203 8204 8204 8202 8201 8197 8197 8198 8197 8198 
8255 8241 8242 8248 8239 8234 8234 8238 8235 8241 8238 8234 8234 8231 8239 8237 8234 8233 8241 8244 8239 8242 8239 8242 8238 8240 8247 8246 8242 8243 8242 8238 8236 8242 8240 8242 8240 8242 8239 8235 8234 8231 8225 8230 8229 8227 8224 8227 8226 8225 8228 8227 8229 8226 8222 8222 8225 8219 8222 8222 8214 8215 8214 8212 8213 8213 8212 8212 8210 8206 8204 8202 8201 8201 8198 8199 8195 8195 8193 8196 
8258 8238 8241 8245 8240 8230 8234 8231 8236 8239 8233 8236 8231 8232 8233 8236 8231 8236 8240 8241 8241 8243 8244 8237 8236 8243 8242 8244 8241 8241 8241 8240 8241 8239 8241 8240 8238 8240 8235 8234 8230 8229 8224 8226 8225 8225 8219 8223 8223 8224 8228 8226 8228 8223 8218 8220 8220 8218 8218 8216 8216 8214 8213 8210 8213 8212 8211 8209 8210 8207 8202 8202 8201 8197 8194 8197 8195 8193 8187 8193 
8257 8243 8248 8239 8237 8240 8233 8235 8238 8243 8238 8237 8237 8234 8236 8234 8231 8230 8237 8242 8241 8246 8243 8238 8235 8239 8246 8240 8238 8239 8239 8239 8240 8241 8237 8239 8238 8240 8233 8234 8228 8229 8226 8223 8223 8224 8224 8222 8222 8223 8228 8226 8222 8220 8217 8216 8220 8218 8219 8216 8215 8214 8214 8212 8211 8212 8209 8209 8210 8209 8202 8203 8199 8200 8196 8195 8192 8192 8187 8193 
8249 8244 8245 8241 8237 8233 8235 8238 8239 8239 8236 8237 8236 8234 8236 8234 8233 8236 8235 8236 8238 8243 8244 8239 8233 8235 8243 8238 8234 8233 8238 8236 8238 8236 8241 8235 8234 8235 8232 8227 8226 8223 8220 8223 8220 8220 8221 8223 8222 8222 8224 8218 8219 8214 8216 8212 8215 8214 8214 8215 8212 8212 8212 8211 8208 8208 8208 8206 8208 8205 8202 8200 8201 8196 8194 8194 8188 8188 8186 8192 
8247 8242 8244 8243 8237 8235 8239 8238 8238 8236 8240 8233 8233 8232 8235 8234 8234 8233 8231 8238 8232 8242 8241 8239 8230 8228 8237 8236 8231 8233 8233 8232 8234 8234 8234 8231 8226 8220 8204 8215 8224 8221 8217 8218 8216 8216 8217 8219 8219 8221 8221 8219 8218 8216 8215 8215 8211 8216 8216 8212 8211 8210 8208 8207 8208 8206 8202 8206 8205 8206 8200 8201 8195 8195 8194 8194 8189 8189 8186 8194 
8250 8246 8239 8231 8231 8233 8230 8240 8241 8235 8234 8231 8233 8232 8231 8237 8232 8232 8229 8234 8234 8242 8240 8235 8203 8184 8218 8199 8201 8224 8226 8226 8207 8194 8205 8187 8159 8162 8135 8171 8207 8215 8213 8214 8213 8215 8213 8214 8218 8219 8216 8218 8214 8215 8212 8216 8216 8213 8211 8208 8209 8207 8205 8207 8209 8207 8204 8203 8206 8200 8196 8198 8195 8197 8191 8191 8187 8186 8180 8189 
8253 8250 8239 8244 8239 8235 8225 8241 8235 8238 8232 8229 8234 8234 8227 8229 8228 8228 8227 8234 8233 8239 8236 8233 8197 8148 8148 8139 8146 8169 8178 8200 8176 8167 8154 8145 8141 8158 8158 8180 8204 8191 8186 8204 8208 8207 8210 8213 8212 8214 8215 8211 8213 8216 8214 8215 8213 8213 8214 8210 8206 8206 8206 8206 8206 8206 8204 8202 8204 8202 8200 8197 8193 8191 8192 8189 8187 8187 8187 8185 
8253 8249 8244 8243 8238 8233 8228 8226 8230 8236 8237 8230 8228 8230 8230 8229 8226 8222 8223 8234 8234 8226 8204 8194 8178 8158 8150 8133 8141 8200 8182 8168 8177 8196 8142 8166 8167 8154 8154 8170 8176 8175 8149 8161 8173 8190 8211 8213 8210 8212 8217 8216 8214 8212 8211 8213 8215 8213 8210 8208 8209 8207 8204 8206 8206 8204 8203 8205 8203 8202 8196 8194 8192 8189 8192 8190 8186 8187 8185 8185 
8249 8250 8244 8243 8242 8237 8233 8229 8235 8236 8236 8231 8231 8228 8232 8229 8227 8229 8225 8234 8224 8204 8208 8163 8164 8143 8138 8138 8187 8216 8184 8190 8169 8155 8135 8147 8165 8149 8147 8186 8173 8147 8142 8137 8132 8185 8209 8210 8211 8215 8216 8214 8215 8212 8212 8213 8213 8210 8211 8206 8206 8205 8206 8208 8205 8204 8203 8203 8203 8199 8195 8193 8189 8190 8189 8186 8185 8187 8182 8189 
8245 8242 8240 8246 8241 8236 8229 8237 8235 8232 8232 8231 8236 8232 8233 8229 8228 8230 8225 8230 8230 8219 8167 8146 8162 8145 8123 8137 8194 8182 8166 8175 8182 8194 8145 8137 8160 8155 8135 8172 8135 8124 8123 8125 8132 8149 8193 8211 8212 8216 8215 8214 8210 8208 8210 8208 8209 8208 8210 8208 8207 8205 8206 8204 8207 8203 8201 8203 8199 8195 8190 8190 8190 8189 8188 8188 8185 8186 8183 8184 
8243 8235 8236 8246 8241 8232 8237 8231 8225 8232 8232 8234 8231 8233 8234 8230 8228 8230 8226 8228 8232 8189 8149 8134 8145 8156 8133 8143 8157 8164 8153 8179 8194 8201 8146 8132 8138 8145 8131 8132 8120 8120 8114 8119 8139 8132 8165 8202 8210 8215 8216 8211 8208 8206 8206 8205 8210 8208 8209 8206 8206 8204 8206 8204 8203 8202 8199 8198 8196 8191 8190 8190 8187 8185 8185 8187 8186 8188 8182 8185 
8241 8238 8234 8241 8235 8236 8232 8230 8233 8231 8228 8233 8230 8229 8232 8227 8227 8232 8230 8229 8229 8161 8139 8159 8190 8164 8139 8154 8140 8135 8134 8162 8157 8189 8138 8145 8148 8135 8127 8124 8118 8117 8123 8125 8124 8126 8145 8198 8211 8212 8210 8207 8206 8206 8206 8209 8205 8209 8208 8209 8209 8208 8205 8204 8201 8200 8198 8195 8193 8188 8186 8185 8187 8187 8184 8185 8186 8185 8182 8186 
8234 8239 8237 8240 8239 8230 8232 8230 8228 8231 8232 8233 8233 8227 8230 8226 8231 8231 8230 8231 8225 8163 8146 8212 8223 8212 8151 8149 8162 8169 8138 8205 8158 8170 8149 8126 8155 8144 8125 8119 8115 8119 8123 8132 8163 8128 8125 8184 8209 8213 8210 8211 8208 8206 8211 8205 8207 8207 8209 8207 8208 8205 8204 8202 8203 8200 8196 8191 8187 8185 8186 8184 8182 8182 8180 8184 8181 8186 8181 8184 
8236 8240 8236 8238 8231 8235 8233 8233 8234 8235 8237 8236 8237 8231 8234 8227 8229 8229 8228 8231 8221 8189 8172 8228 8225 8180 8137 8185 8220 8169 8131 8167 8149 8148 8133 8126 8137 8131 8126 8127 8127 8122 8157 8149 8166 8153 8127 8181 8210 8208 8210 8209 8209 8208 8209 8210 8207 8209 8208 8203 8205 8204 8203 8203 8202 8198 8193 8187 8185 8183 8182 8184 8181 8182 8184 8181 8181 8183 8184 8186 
8235 8239 8236 8240 8236 8237 8237 8234 8237 8231 8238 8235 8233 8233 8232 8233 8231 8230 8232 8231 8214 8227 8230 8229 8203 8138 8137 8183 8220 8180 8123 8156 8168 8147 8126 8128 8124 8124 8133 8131 8121 8137 8192 8198 8175 8177 8161 8201 8209 8210 8211 8211 8212 8211 8209 8211 8207 8207 8206 8203 8202 8201 8202 8203 8199 8199 8192 8189 8185 8183 8181 8182 8184 8181 8184 8182 8181 8184 8182 8185 
8235 8237 8235 8239 8236 8238 8230 8231 8235 8231 8233 8230 8230 8232 8229 8229 8230 8228 8229 8232 8230 8234 8231 8229 8172 8189 8159 8172 8195 8175 8138 8196 8141 8124 8124 8127 8124 8126 8131 8125 8127 8123 8146 8189 8199 8174 8195 8206 8208 8211 8212 8211 8213 8209 8206 8206 8205 8203 8206 8201 8203 8201 8202 8199 8199 8194 8192 8190 8187 8183 8183 8184 8183 8182 8179 8181 8181 8185 8184 8184 
8240 8237 8233 8236 8235 8235 8229 8232 8235 8227 8228 8232 8229 8229 8229 8228 8228 8224 8226 8230 8232 8233 8233 8223 8202 8192 8170 8151 8197 8211 8209 8199 8139 8129 8130 8129 8124 8120 8127 8119 8131 8145 8142 8142 8200 8203 8189 8210 8212 8214 8214 8213 8209 8210 8210 8205 8206 8203 8205 8202 8203 8200 8200 8201 8197 8193 8194 8187 8188 8185 8184 8184 8187 8181 8181 8180 8182 8181 8181 8186 
8240 8241 8233 8240 8233 8235 8228 8230 8234 8231 8230 8229 8226 8224 8227 8226 8226 8221 8224 8228 8231 8235 8233 8229 8221 8187 8157 8148 8147 8177 8195 8167 8137 8128 8137 8136 8128 8123 8124 8133 8126 8129 8167 8149 8193 8212 8206 8206 8211 8213 8212 8212 8214 8211 8206 8206 8206 8205 8204 8204 8203 8202 8201 8199 8198 8195 8192 8191 8190 8184 8186 8185 8182 8180 8177 8181 8179 8181 8182 8185 
8242 8236 8244 8240 8237 8234 8226 8235 8235 8232 8231 8232 8221 8227 8231 8225 8223 8225 8230 8231 8232 8233 8226 8208 8170 8138 8134 8138 8141 8135 8143 8140 8126 8126 8132 8136 8129 8126 8128 8146 8128 8122 8157 8199 8205 8213 8211 8211 8211 8211 8211 8210 8210 8210 8208 8205 8207 8206 8202 8204 8205 8205 8205 8201 8200 8196 8195 8193 8190 8187 8189 8183 8182 8178 8180 8179 8180 8179 8179 8182 
8243 8238 8242 8242 8237 8229 8234 8236 8232 8229 8231 8232 8228 8224 8228 8228 8228 8230 8229 8234 8235 8227 8212 8182 8135 8127 8129 8133 8131 8127 8131 8148 8138 8131 8136 8138 8128 8130 8139 8166 8147 8164 8165 8206 8210 8212 8212 8211 8211 8213 8213 8209 8211 8210 8206 8206 8207 8202 8205 8204 8205 8204 8202 8203 8200 8198 8197 8194 8192 8190 8186 8184 8181 8179 8178 8178 8179 8180 8178 8181 
8245 8238 8242 8241 8237 8232 8237 8237 8231 8226 8224 8229 8233 8227 8230 8231 8231 8230 8230 8234 8237 8235 8229 8172 8135 8124 8126 8131 8128 8125 8128 8131 8133 8135 8135 8133 8127 8132 8149 8194 8183 8189 8196 8209 8210 8211 8211 8211 8209 8211 8210 8208 8209 8210 8206 8208 8208 8206 8205 8205 8204 8206 8206 8206 8205 8204 8202 8197 8199 8194 8193 8186 8186 8183 8181 8185 8180 8178 8179 8182 
8245 8243 8244 8240 8237 8230 8237 8234 8232 8229 8230 8234 8234 8228 8232 8228 8228 8226 8231 8233 8234 8236 8236 8183 8168 8132 8131 8129 8125 8126 8124 8127 8139 8156 8153 8135 8136 8145 8167 8202 8206 8194 8182 8205 8206 8209 8212 8208 8210 8213 8210 8209 8210 8208 8208 8212 8210 8206 8209 8206 8208 8206 8206 8206 8206 8205 8206 8200 8200 8196 8194 8192 8191 8188 8188 8188 8184 8181 8177 8181 
8245 8240 8238 8238 8240 8239 8235 8232 8235 8232 8228 8236 8233 8232 8227 8229 8222 8227 8225 8227 8233 8232 8237 8221 8204 8169 8135 8132 8126 8134 8127 8123 8134 8174 8181 8149 8157 8145 8150 8199 8205 8206 8202 8207 8207 8210 8208 8208 8208 8207 8209 8208 8211 8211 8214 8208 8210 8207 8208 8204 8204 8204 8209 8206 8208 8204 8204 8203 8201 8197 8200 8197 8193 8190 8189 8189 8187 8183 8181 8186 
8239 8240 8236 8239 8243 8238 8237 8237 8235 8233 8232 8232 8234 8230 8232 8227 8226 8224 8223 8227 8225 8225 8223 8213 8209 8194 8153 8136 8131 8134 8132 8133 8132 8149 8148 8151 8159 8155 8149 8183 8210 8215 8209 8211 8206 8205 8203 8205 8207 8205 8212 8208 8209 8210 8208 8210 8210 8211 8210 8204 8207 8208 8206 8207 8207 8204 8207 8205 8203 8199 8194 8195 8195 8191 8192 8195 8188 8186 8180 8181 
8242 8245 8245 8241 8244 8241 8243 8234 8236 8233 8236 8227 8229 8227 8226 8222 8227 8227 8216 8212 8212 8208 8208 8206 8204 8200 8202 8159 8137 8143 8143 8147 8144 8131 8133 8148 8170 8185 8154 8167 8212 8210 8204 8206 8197 8192 8191 8199 8210 8206 8209 8206 8208 8209 8209 8209 8208 8211 8211 8205 8206 8205 8203 8204 8203 8207 8207 8206 8203 8203 8198 8197 8195 8196 8198 8194 8191 8188 8179 8185 
8238 8246 8249 8240 8244 8242 8234 8237 8236 8230 8228 8231 8228 8227 8233 8228 8228 8227 8213 8206 8213 8212 8219 8220 8219 8218 8223 8194 8157 8155 8157 8151 8153 8155 8145 8149 8175 8226 8223 8218 8224 8223 8214 8213 8204 8203 8209 8215 8210 8205 8206 8207 8206 8209 8209 8209 8208 8207 8208 8205 8205 8205 8208 8208 8206 8204 8206 8203 8202 8203 8201 8200 8200 8201 8201 8197 8196 8187 8183 8186 
8239 8237 8248 8236 8238 8239 8232 8232 8237 8232 8233 8237 8234 8232 8238 8234 8231 8227 8211 8198 8201 8205 8217 8224 8227 8229 8225 8219 8214 8206 8200 8204 8204 8202 8194 8191 8193 8215 8219 8219 8213 8215 8212 8215 8217 8231 8240 8228 8210 8209 8208 8204 8206 8207 8208 8207 8207 8205 8205 8206 8202 8207 8207 8206 8206 8205 8205 8201 8202 8200 8203 8200 8200 8204 8199 8204 8198 8195 8186 8190 
8240 8241 8235 8238 8235 8237 8237 8236 8238 8238 8236 8236 8236 8236 8233 8230 8231 8234 8213 8203 8205 8205 8216 8225 8227 8225 8223 8216 8222 8222 8218 8219 8219 8213 8209 8210 8207 8203 8207 8210 8203 8207 8205 8212 8215 8228 8237 8230 8213 8206 8206 8202 8205 8208 8206 8206 8207 8204 8205 8201 8205 8208 8208 8207 8206 8204 8204 8203 8201 8203 8204 8203 8203 8202 8205 8204 8200 8203 8187 8192 
8240 8238 8241 8239 8241 8235 8239 8241 8238 8240 8237 8236 8240 8240 8234 8232 8234 8232 8222 8212 8208 8209 8224 8232 8235 8235 8234 8228 8224 8222 8219 8220 8220 8217 8211 8209 8205 8202 8209 8211 8207 8207 8208 8220 8226 8237 8239 8240 8210 8202 8204 8205 8206 8209 8207 8208 8206 8205 8204 8204 8207 8210 8209 8208 8206 8205 8202 8200 8201 8203 8203 8203 8205 8204 8206 8201 8206 8202 8191 8194 
8239 8243 8241 8234 8239 8237 8239 8234 8242 8244 8241 8235 8240 8239 8240 8236 8237 8238 8234 8225 8206 8216 8238 8254 8251 8250 8259 8254 8245 8241 8238 8236 8236 8231 8226 8220 8209 8211 8215 8215 8211 8217 8226 8241 8248 8253 8250 8213 8204 8203 8201 8200 8200 8203 8204 8206 8205 8203 8204 8206 8208 8205 8209 8205 8206 8204 8202 8203 8203 8204 8201 8201 8207 8206 8205 8205 8203 8203 8193 8195 
8238 8241 8234 8243 8242 8240 8240 8241 8240 8238 8237 8238 8245 8243 8243 8245 8248 8240 8239 8230 8200 8201 8221 8234 8248 8249 8264 8267 8267 8266 8259 8248 8243 8239 8239 8236 8222 8218 8213 8214 8214 8226 8240 8250 8244 8241 8229 8206 8203 8200 8200 8197 8200 8200 8202 8203 8206 8203 8202 8203 8204 8207 8205 8208 8205 8204 8203 8204 8205 8205 8202 8201 8203 8205 8204 8207 8208 8203 8196 8198 
8236 8248 8236 8242 8242 8242 8244 8248 8240 8240 8238 8245 8246 8248 8243 8245 8246 8246 8238 8235 8202 8195 8205 8216 8222 8217 8229 8236 8243 8244 8236 8226 8221 8215 8217 8218 8210 8208 8205 8204 8211 8220 8234 8238 8235 8228 8218 8205 8202 8199 8200 8200 8202 8200 8199 8203 8203 8206 8202 8200 8203 8204 8206 8206 8202 8202 8204 8202 8204 8203 8203 8204 8205 8208 8207 8206 8207 8204 8199 8200 
8234 8246 8241 8243 8238 8242 8244 8248 8249 8248 8246 8245 8245 8242 8245 8246 8246 8243 8238 8241 8212 8203 8211 8211 8219 8215 8220 8223 8225 8228 8222 8221 8220 8214 8213 8213 8208 8208 8208 8211 8219 8228 8232 8237 8236 8227 8216 8201 8202 8203 8201 8198 8202 8202 8200 8201 8201 8201 8202 8198 8202 8206 8206 8208 8206 8203 8202 8203 8206 8203 8204 8207 8203 8208 8208 8215 8208 8208 8200 8202 
8234 8236 8243 8244 8242 8241 8245 8248 8248 8245 8246 8249 8249 8246 8248 8247 8246 8245 8240 8243 8219 8212 8217 8216 8217 8221 8220 8225 8220 8221 8222 8223 8227 8219 8215 8219 8216 8218 8219 8225 8227 8231 8237 8238 8231 8224 8212 8202 8197 8204 8203 8200 8202 8202 8200 8201 8201 8201 8200 8198 8203 8207 8206 8206 8204 8201 8202 8204 8204 8202 8204 8204 8205 8209 8212 8214 8210 8205 8199 8205 
8232 8233 8235 8237 8234 8243 8248 8241 8245 8242 8249 8247 8252 8248 8248 8244 8246 8247 8245 8243 8217 8215 8218 8217 8222 8223 8229 8221 8219 8221 8223 8223 8225 8222 8225 8224 8223 8227 8228 8231 8229 8239 8240 8236 8227 8225 8207 8202 8199 8200 8200 8201 8203 8204 8201 8198 8201 8200 8203 8196 8202 8204 8206 8203 8200 8200 8202 8203 8206 8206 8202 8205 8208 8211 8213 8213 8210 8207 8195 8208 
8247 8256 8245 8234 8229 8230 8239 8237 8233 8238 8242 8244 8247 8250 8247 8246 8243 8243 8246 8243 8223 8215 8220 8218 8218 8223 8233 8226 8224 8230 8225 8225 8229 8228 8225 8227 8230 8233 8232 8232 8230 8243 8244 8231 8228 8226 8205 8199 8200 8198 8201 8201 8201 8203 8194 8200 8199 8200 8201 8196 8203 8203 8204 8199 8200 8202 8203 8205 8205 8208 8204 8208 8208 8209 8211 8210 8208 8205 8195 8224 
8254 8259 8241 8230 8223 8225 8226 8234 8233 8231 8232 8232 8237 8241 8239 8236 8237 8239 8238 8238 8231 8223 8222 8218 8217 8228 8237 8232 8228 8227 8226 8230 8230 8227 8232 8231 8232 8233 8236 8232 8234 8243 8241 8233 8227 8222 8204 8199 8197 8199 8202 8202 8205 8202 8201 8203 8202 8199 8199 8199 8205 8205 8201 8196 8201 8202 8202 8202 8207 8207 8209 8207 8209 8208 8213 8212 8211 8205 8201 8234 
8226 8227 8218 8218 8216 8215 8226 8241 8246 8232 8215 8213 8209 8219 8220 8217 8227 8228 8228 8228 8221 8224 8226 8219 8223 8225 8236 8237 8231 8224 8224 8227 8230 8229 8231 8231 8234 8233 8234 8234 8234 8240 8231 8229 8225 8214 8200 8199 8197 8198 8200 8203 8201 8203 8199 8199 8201 8200 8200 8202 8210 8205 8203 8199 8200 8202 8202 8202 8207 8206 8208 8211 8211 8213 8211 8211 8204 8205 8224 8255 
8254 8248 8227 8224 8235 8248 8260 8265 8239 8238 8223 8220 8215 8213 8220 8218 8221 8225 8216 8205 8206 8220 8220 8224 8222 8219 8233 8233 8226 8226 8226 8226 8230 8229 8233 8233 8234 8235 8235 8230 8232 8233 8226 8231 8224 8207 8178 8194 8198 8198 8199 8204 8201 8196 8198 8199 8200 8198 8200 8198 8204 8205 8203 8199 8204 8204 8199 8204 8206 8202 8207 8213 8211 8216 8212 8212 8204 8203 8241 8275 
8260 8249 8236 8250 8271 8280 8284 8288 8283 8302 8290 8270 8270 8274 8274 8274 8260 8227 8206 8197 8199 8212 8217 8222 8219 8217 8226 8225 8228 8227 8228 8230 8233 8231 8236 8233 8235 8238 8232 8226 8226 8230 8228 8231 8222 8190 8160 8174 8197 8198 8201 8200 8197 8198 8198 8196 8200 8197 8198 8199 8203 8201 8202 8203 8201 8199 8197 8198 8201 8202 8207 8208 8214 8214 8213 8213 8202 8201 8241 8260 
8251 8266 8280 8293 8306 8299 8300 8293 8291 8319 8302 8278 8279 8276 8288 8301 8269 8237 8206 8201 8210 8211 8214 8215 8214 8205 8221 8228 8229 8226 8227 8231 8236 8235 8237 8234 8234 8232 8233 8227 8229 8230 8227 8229 8218 8182 8156 8172 8196 8198 8200 8195 8194 8192 8187 8191 8194 8194 8193 8195 8200 8196 8200 8200 8203 8200 8200 8204 8203 8202 8206 8209 8209 8212 8216 8214 8200 8199 8237 8254 
8273 8302 8305 8291 8297 8300 8308 8319 8315 8307 8318 8313 8327 8332 8324 8303 8299 8284 8242 8215 8218 8212 8213 8211 8206 8197 8208 8218 8226 8224 8225 8226 8232 8230 8229 8231 8229 8230 8227 8228 8223 8224 8219 8220 8209 8174 8164 8169 8178 8185 8184 8180 8175 8174 8170 8175 8180 8182 8178 8184 8188 8181 8191 8199 8199 8205 8209 8209 8204 8205 8213 8211 8207 8211 8213 8214 8203 8208 8237 8246 
8316 8326 8318 8297 8311 8320 8328 8328 8324 8314 8314 8317 8326 8340 8323 8297 8293 8295 8283 8242 8221 8210 8211 8209 8211 8206 8212 8214 8215 8217 8214 8219 8222 8221 8217 8222 8222 8222 8220 8220 8218 8214 8207 8207 8188 8170 8172 8175 8179 8178 8177 8172 8174 8176 8170 8173 8185 8188 8178 8186 8196 8189 8193 8204 8201 8194 8207 8213 8203 8207 8218 8222 8216 8223 8229 8229 8217 8224 8233 8236 
8320 8301 8289 8286 8309 8331 8319 8308 8308 8309 8319 8344 8345 8342 8330 8303 8302 8303 8320 8270 8231 8212 8209 8207 8211 8206 8213 8211 8210 8209 8209 8207 8212 8212 8208 8215 8215 8212 8209 8207 8200 8192 8175 8170 8173 8177 8177 8176 8173 8176 8172 8162 8169 8169 8170 8163 8179 8180 8175 8180 8187 8191 8185 8197 8205 8198 8204 8217 8222 8212 8221 8226 8222 8214 8224 8232 8231 8223 8230 8236 
8329 8315 8310 8316 8328 8334 8320 8296 8294 8291 8302 8349 8343 8311 8289 8274 8269 8293 8324 8310 8242 8212 8206 8206 8200 8200 8197 8196 8196 8196 8197 8199 8198 8193 8192 8195 8193 8195 8188 8186 8185 8183 8172 8177 8178 8179 8176 8175 8173 8176 8173 8168 8171 8177 8175 8172 8178 8181 8183 8175 8192 8185 8183 8190 8197 8195 8194 8210 8217 8220 8219 8230 8235 8230 8221 8232 8229 8230 8223 8234 


