P2
80 60
8343
8234 8249 8246 8248 8252 8246 8238 8237 8241 8238 8243 8239 8241 8242 8238 8239 8239 8240 8239 8243 8245 8244 8240 8236 8240 8238 8241 8239 8245 8242 8246 8243 8247 8248 8248 8246 8247 8244 8250 8247 8249 8247 8245 8239 8242 8244 8243 8239 8239 8238 8232 8231 8228 8224 8223 8221 8220 8218 8220 8222 8222 8218 8215 8213 8213 8213 8212 8210 8212 8209 8213 8217 8216 8220 8217 8216 8214 8216 8213 8217 
8238 8247 8250 8251 8252 8245 8241 8238 8234 8239 8237 8238 8239 8238 8237 8244 8239 8238 8238 8242 8245 8237 8239 8238 8241 8241 8237 8239 8243 8241 8247 8243 8245 8248 8250 8247 8243 8246 8250 8247 8245 8245 8239 8237 8240 8243 8238 8236 8236 8236 8230 8230 8228 8224 8223 8221 8219 8217 8218 8221 8219 8216 8215 8212 8212 8212 8212 8214 8213 8210 8211 8212 8213 8217 8216 8213 8215 8214 8214 8214 
8229 8240 8240 8236 8246 8236 8233 8235 8232 8235 8238 8234 8229 8235 8234 8236 8238 8237 8235 8240 8240 8239 8240 8234 8241 8240 8236 8239 8241 8236 8237 8242 8243 8248 8249 8246 8243 8249 8247 8247 8246 8240 8238 8235 8238 8239 8236 8235 8234 8232 8231 8228 8225 8226 8223 8221 8220 8219 8222 8219 8219 8217 8214 8210 8210 8209 8212 8214 8215 8211 8209 8210 8213 8216 8215 8212 8212 8212 8215 8214 
8235 8232 8248 8235 8244 8237 8237 8236 8237 8235 8228 8226 8231 8234 8229 8236 8238 8237 8238 8238 8242 8234 8227 8235 8239 8241 8238 8241 8242 8237 8238 8239 8244 8246 8246 8249 8245 8245 8247 8242 8243 8238 8235 8234 8233 8231 8233 8232 8232 8231 8229 8222 8225 8222 8222 8220 8219 8221 8219 8216 8216 8214 8210 8212 8206 8206 8206 8211 8210 8209 8209 8211 8210 8212 8212 8211 8212 8215 8213 8207 
8232 8232 8239 8230 8237 8236 8240 8225 8229 8232 8226 8221 8228 8233 8227 8232 8236 8234 8238 8236 8239 8235 8228 8231 8237 8239 8237 8237 8240 8238 8241 8241 8241 8246 8243 8246 8247 8244 8246 8240 8243 8239 8234 8231 8232 8230 8231 8232 8231 8230 8225 8223 8221 8222 8224 8222 8218 8219 8217 8217 8218 8211 8209 8206 8206 8204 8203 8208 8212 8204 8207 8209 8209 8208 8208 8208 8208 8211 8209 8210 
8231 8236 8236 8229 8233 8230 8237 8234 8230 8234 8220 8229 8231 8225 8228 8232 8237 8232 8236 8242 8236 8234 8236 8234 8238 8237 8237 8234 8236 8241 8242 8241 8241 8243 8245 8245 8244 8243 8243 8240 8240 8239 8236 8232 8227 8230 8231 8228 8229 8227 8226 8223 8224 8221 8221 8220 8219 8216 8216 8214 8216 8211 8207 8207 8202 8203 8204 8202 8206 8205 8207 8207 8204 8204 8205 8201 8202 8206 8208 8206 
8234 8240 8235 8242 8239 8233 8243 8238 8231 8225 8221 8235 8231 8227 8230 8237 8232 8231 8237 8242 8238 8237 8235 8237 8239 8238 8229 8233 8235 8238 8241 8241 8239 8243 8241 8243 8241 8236 8241 8238 8241 8239 8234 8231 8231 8230 8228 8229 8228 8228 8225 8224 8221 8222 8223 8219 8216 8215 8219 8215 8214 8208 8206 8209 8202 8201 8204 8206 8205 8202 8201 8201 8203 8204 8203 8202 8201 8201 8202 8205 
8240 8240 8230 8239 8234 8237 8243 8243 8235 8220 8233 8237 8231 8228 8234 8229 8232 8231 8238 8235 8239 8237 8235 8239 8239 8236 8225 8232 8237 8240 8241 8242 8242 8244 8241 8242 8240 8240 8240 8234 8237 8231 8231 8231 8230 8230 8232 8228 8227 8225 8222 8218 8221 8218 8220 8218 8217 8218 8216 8214 8214 8208 8208 8203 8204 8207 8205 8206 8204 8201 8198 8202 8199 8200 8199 8198 8199 8201 8202 8199 
8236 8235 8231 8234 8240 8233 8243 8235 8237 8225 8231 8230 8229 8230 8228 8230 8229 8234 8235 8239 8240 8228 8234 8233 8230 8233 8227 8233 8235 8237 8238 8236 8237 8244 8241 8245 8240 8240 8239 8236 8234 8233 8231 8226 8227 8230 8230 8227 8227 8222 8220 8219 8218 8219 8220 8218 8214 8213 8212 8213 8209 8208 8204 8202 8204 8204 8202 8204 8203 8199 8199 8200 8197 8197 8198 8195 8194 8197 8196 8194 
8236 8230 8233 8236 8234 8238 8229 8235 8233 8232 8229 8229 8227 8230 8227 8224 8231 8230 8236 8243 8236 8232 8233 8229 8226 8230 8229 8229 8233 8232 8235 8235 8236 8240 8240 8242 8238 8238 8236 8231 8232 8231 8227 8226 8229 8231 8227 8225 8227 8222 8217 8215 8214 8215 8218 8212 8210 8209 8212 8212 8210 8207 8204 8204 8200 8203 8200 8200 8200 8196 8197 8200 8195 8195 8192 8194 8192 8194 8192 8190 
8232 8231 8237 8229 8233 8236 8230 8232 8234 8228 8232 8226 8227 8229 8223 8223 8231 8224 8228 8232 8238 8232 8232 8229 8226 8224 8225 8232 8235 8234 8234 8229 8234 8236 8237 8237 8237 8234 8236 8231 8229 8231 8227 8226 8227 8226 8225 8222 8226 8220 8216 8214 8215 8213 8213 8209 8212 8208 8208 8208 8210 8205 8202 8201 8196 8199 8202 8200 8199 8197 8195 8196 8191 8190 8192 8190 8188 8189 8186 8188 
8229 8239 8237 8228 8226 8236 8231 8230 8233 8230 8228 8224 8226 8227 8227 8223 8225 8223 8226 8235 8236 8232 8230 8227 8227 8226 8225 8230 8234 8234 8231 8232 8232 8234 8236 8233 8232 8234 8234 8227 8229 8229 8227 8229 8228 8226 8225 8224 8222 8219 8218 8218 8214 8216 8213 8210 8211 8207 8208 8210 8208 8203 8203 8198 8197 8201 8202 8198 8196 8197 8195 8193 8194 8188 8190 8186 8188 8188 8188 8184 
8232 8240 8231 8225 8225 8233 8235 8223 8227 8227 8224 8224 8222 8221 8225 8225 8223 8227 8229 8228 8235 8230 8228 8226 8228 8228 8223 8232 8229 8232 8233 8228 8232 8234 8233 8229 8231 8230 8230 8223 8228 8228 8226 8226 8227 8225 8222 8222 8222 8220 8220 8215 8216 8211 8217 8211 8210 8208 8210 8207 8207 8203 8201 8200 8199 8200 8197 8200 8199 8198 8193 8193 8190 8188 8189 8186 8185 8185 8185 8182 
8237 8246 8238 8235 8235 8234 8233 8227 8225 8227 8230 8227 8224 8222 8224 8226 8229 8228 8230 8234 8231 8228 8228 8225 8226 8224 8224 8226 8227 8228 8232 8228 8228 8230 8231 8231 8230 8230 8226 8225 8226 8226 8222 8227 8225 8224 8221 8219 8220 8219 8217 8218 8215 8217 8214 8210 8210 8207 8209 8205 8203 8201 8198 8198 8198 8196 8200 8199 8197 8194 8194 8195 8186 8193 8186 8186 8185 8184 8180 8182 
8239 8231 8237 8234 8232 8229 8227 8231 8224 8225 8230 8226 8227 8226 8228 8230 8229 8228 8231 8232 8230 8227 8223 8222 8227 8224 8226 8226 8227 8228 8226 8225 8225 8229 8229 8230 8228 8229 8225 8221 8222 8225 8221 8222 8221 8217 8219 8216 8215 8219 8215 8217 8217 8214 8214 8208 8208 8208 8208 8206 8204 8196 8194 8196 8198 8199 8198 8197 8198 8194 8190 8192 8189 8188 8189 8184 8184 8181 8180 8176 
8241 8227 8229 8234 8227 8224 8227 8227 8222 8231 8228 8224 8226 8223 8228 8229 8227 8227 8234 8233 8227 8226 8224 8222 8223 8225 8224 8226 8225 8227 8226 8223 8222 8230 8229 8229 8225 8226 8224 8220 8221 8223 8218 8219 8219 8216 8214 8214 8212 8214 8217 8215 8214 8213 8210 8209 8207 8203 8203 8207 8201 8196 8196 8195 8199 8198 8200 8197 8196 8194 8192 8190 8188 8188 8187 8182 8180 8181 8177 8173 
8245 8225 8230 8230 8228 8219 8224 8220 8223 8229 8224 8227 8225 8226 8222 8227 8223 8228 8231 8229 8227 8225 8226 8219 8223 8227 8222 8224 8225 8223 8227 8223 8229 8229 8226 8225 8225 8224 8221 8220 8220 8221 8217 8215 8216 8213 8212 8209 8211 8214 8214 8214 8212 8209 8207 8207 8206 8204 8203 8204 8201 8195 8194 8192 8196 8194 8197 8194 8195 8192 8191 8190 8187 8185 8183 8183 8181 8179 8175 8172 
8242 8232 8236 8227 8223 8230 8226 8224 8224 8234 8229 8227 8230 8227 8228 8224 8222 8227 8231 8231 8226 8229 8225 8220 8222 8228 8223 8221 8222 8224 8226 8226 8225 8229 8228 8226 8225 8222 8220 8216 8217 8219 8219 8212 8215 8214 8213 8211 8213 8213 8214 8213 8210 8206 8204 8204 8202 8202 8201 8202 8200 8197 8194 8196 8196 8195 8194 8193 8195 8192 8190 8190 8187 8188 8185 8181 8178 8175 8175 8169 
8237 8232 8232 8226 8227 8223 8228 8227 8228 8230 8229 8226 8229 8226 8225 8225 8225 8231 8229 8225 8223 8228 8224 8223 8217 8222 8223 8221 8223 8218 8225 8225 8227 8227 8228 8222 8223 8224 8220 8214 8218 8214 8215 8213 8212 8212 8209 8212 8214 8213 8210 8206 8209 8203 8202 8201 8199 8203 8200 8202 8199 8196 8194 8194 8192 8194 8193 8193 8194 8192 8191 8187 8186 8186 8182 8180 8176 8175 8174 8169 
8234 8230 8232 8229 8223 8225 8228 8228 8229 8230 8231 8225 8224 8223 8224 8225 8226 8227 8225 8226 8222 8227 8224 8222 8219 8220 8217 8218 8221 8220 8222 8223 8222 8225 8225 8224 8220 8218 8216 8212 8215 8214 8211 8207 8209 8208 8207 8210 8207 8210 8207 8207 8205 8203 8204 8201 8199 8202 8201 8198 8195 8195 8193 8191 8193 8193 8190 8192 8190 8189 8188 8190 8184 8185 8181 8176 8177 8174 8170 8168 
8233 8236 8225 8216 8219 8222 8217 8227 8230 8227 8222 8223 8222 8221 8220 8227 8222 8224 8220 8224 8222 8225 8222 8219 8219 8215 8212 8212 8212 8211 8218 8218 8219 8221 8221 8220 8218 8216 8212 8208 8211 8212 8208 8204 8206 8208 8203 8202 8207 8207 8202 8204 8200 8200 8203 8204 8201 8197 8198 8196 8195 8192 8188 8191 8194 8190 8189 8187 8190 8188 8187 8190 8183 8184 8181 8176 8175 8173 8171 8166 
8237 8237 8224 8230 8226 8222 8215 8228 8224 8227 8222 8220 8224 8225 8220 8220 8220 8222 8218 8224 8222 8222 8219 8214 8204 8187 8170 8160 8159 8188 8199 8198 8214 8209 8196 8189 8207 8215 8214 8207 8209 8209 8207 8203 8205 8204 8202 8203 8202 8205 8203 8203 8202 8202 8201 8200 8197 8200 8199 8196 8195 8190 8191 8192 8194 8188 8193 8189 8189 8192 8187 8187 8184 8183 8180 8175 8174 8172 8170 8170 
8238 8232 8229 8228 8224 8220 8217 8214 8216 8227 8225 8221 8218 8224 8220 8219 8218 8217 8215 8222 8222 8223 8190 8153 8143 8149 8178 8179 8161 8162 8154 8160 8168 8163 8155 8162 8172 8190 8205 8205 8209 8208 8208 8205 8207 8205 8204 8203 8202 8205 8203 8204 8204 8200 8201 8202 8198 8199 8194 8191 8195 8191 8191 8192 8194 8190 8190 8189 8189 8188 8186 8183 8182 8177 8178 8176 8173 8173 8172 8170 
8233 8235 8229 8226 8230 8222 8222 8215 8224 8226 8225 8221 8224 8220 8223 8219 8220 8221 8217 8224 8222 8196 8173 8196 8201 8208 8208 8186 8188 8177 8162 8133 8144 8145 8144 8144 8155 8185 8201 8201 8202 8201 8202 8206 8206 8205 8203 8202 8203 8205 8205 8203 8203 8203 8205 8201 8198 8196 8194 8194 8194 8190 8189 8193 8190 8191 8189 8188 8189 8186 8185 8184 8181 8180 8178 8173 8167 8172 8171 8167 
8228 8226 8227 8234 8227 8223 8218 8224 8223 8225 8224 8221 8223 8221 8223 8220 8220 8222 8218 8222 8216 8211 8218 8218 8215 8214 8215 8213 8211 8168 8145 8140 8133 8133 8122 8124 8187 8196 8190 8181 8162 8168 8180 8205 8205 8205 8202 8202 8204 8207 8207 8203 8200 8200 8197 8198 8197 8194 8196 8194 8194 8193 8190 8192 8193 8189 8187 8187 8185 8184 8183 8183 8184 8180 8178 8174 8169 8173 8171 8167 
8227 8222 8224 8234 8229 8220 8227 8219 8214 8222 8222 8223 8221 8222 8225 8222 8222 8224 8219 8219 8225 8224 8220 8215 8213 8212 8215 8215 8200 8196 8198 8163 8153 8140 8113 8115 8184 8205 8203 8187 8163 8167 8178 8203 8205 8202 8204 8203 8204 8205 8204 8201 8196 8195 8194 8194 8194 8195 8195 8194 8196 8190 8190 8193 8189 8187 8186 8184 8184 8180 8180 8183 8177 8177 8176 8172 8172 8175 8170 8169 
8226 8227 8221 8226 8222 8225 8226 8216 8222 8222 8218 8224 8223 8222 8222 8219 8221 8225 8223 8221 8224 8225 8221 8218 8213 8214 8213 8217 8215 8210 8189 8162 8145 8136 8126 8116 8146 8184 8198 8181 8164 8164 8174 8200 8205 8205 8203 8201 8205 8205 8200 8199 8197 8196 8195 8194 8193 8192 8192 8196 8193 8192 8187 8190 8188 8186 8184 8181 8178 8176 8176 8178 8177 8176 8174 8173 8170 8173 8171 8173 
8222 8228 8224 8228 8226 8216 8222 8217 8218 8222 8222 8225 8224 8220 8221 8217 8223 8224 8222 8222 8224 8224 8219 8216 8216 8218 8215 8216 8216 8210 8188 8151 8131 8143 8132 8126 8124 8127 8147 8160 8166 8165 8170 8199 8204 8203 8203 8202 8203 8204 8199 8199 8198 8194 8197 8195 8194 8193 8193 8195 8192 8191 8185 8187 8187 8186 8181 8179 8175 8173 8175 8174 8174 8175 8174 8173 8170 8173 8172 8172 
8223 8226 8226 8226 8221 8224 8224 8220 8221 8226 8226 8224 8226 8222 8225 8217 8220 8222 8221 8223 8222 8220 8221 8221 8218 8217 8214 8215 8209 8176 8152 8157 8145 8156 8126 8123 8117 8119 8140 8146 8141 8158 8173 8201 8202 8198 8200 8200 8203 8200 8201 8198 8199 8196 8199 8197 8195 8192 8192 8189 8191 8186 8186 8187 8188 8183 8178 8174 8174 8173 8171 8176 8172 8174 8174 8169 8170 8171 8170 8169 
8221 8228 8224 8224 8221 8226 8230 8219 8224 8222 8227 8226 8223 8223 8223 8225 8222 8223 8224 8223 8219 8220 8221 8218 8220 8217 8216 8217 8204 8203 8188 8175 8144 8144 8138 8119 8110 8135 8147 8169 8155 8151 8169 8198 8199 8198 8199 8200 8202 8200 8201 8200 8201 8200 8198 8198 8194 8192 8190 8189 8189 8185 8185 8187 8186 8184 8179 8177 8177 8172 8169 8172 8171 8173 8173 8169 8172 8173 8173 8169 
8224 8224 8224 8228 8224 8231 8222 8222 8224 8223 8225 8220 8219 8224 8221 8224 8224 8219 8222 8221 8220 8225 8217 8220 8215 8215 8214 8216 8213 8209 8205 8206 8159 8153 8185 8133 8112 8145 8188 8180 8162 8158 8169 8196 8198 8203 8199 8198 8200 8204 8200 8200 8202 8200 8195 8195 8188 8188 8187 8186 8188 8185 8187 8184 8184 8180 8180 8176 8176 8170 8170 8173 8169 8172 8172 8170 8170 8172 8172 8167 
8224 8225 8223 8224 8223 8225 8220 8222 8224 8219 8218 8222 8222 8221 8220 8220 8222 8217 8219 8222 8218 8218 8216 8213 8214 8213 8208 8210 8205 8182 8176 8194 8152 8132 8146 8128 8120 8175 8190 8181 8160 8165 8166 8197 8200 8201 8200 8200 8202 8201 8202 8202 8198 8199 8197 8194 8191 8188 8189 8189 8190 8185 8185 8185 8185 8180 8179 8176 8175 8174 8172 8172 8171 8170 8170 8168 8168 8168 8168 8164 
8228 8227 8221 8225 8222 8223 8220 8221 8224 8225 8219 8221 8214 8217 8218 8220 8219 8216 8216 8218 8219 8218 8208 8185 8176 8165 8160 8161 8136 8121 8122 8146 8135 8118 8113 8116 8120 8138 8162 8174 8167 8168 8170 8196 8202 8204 8203 8200 8202 8202 8200 8202 8202 8199 8193 8191 8193 8189 8187 8189 8187 8184 8187 8184 8184 8180 8178 8177 8176 8174 8173 8173 8168 8170 8167 8167 8167 8165 8167 8165 
8226 8225 8232 8228 8225 8224 8220 8224 8228 8227 8224 8224 8215 8219 8220 8217 8216 8221 8221 8221 8216 8201 8159 8148 8166 8159 8125 8125 8135 8125 8121 8116 8115 8118 8121 8119 8115 8119 8112 8137 8163 8165 8171 8197 8203 8200 8203 8203 8204 8202 8199 8198 8200 8198 8197 8193 8193 8191 8188 8189 8189 8188 8187 8185 8187 8183 8181 8179 8177 8175 8173 8173 8169 8171 8169 8167 8168 8168 8169 8161 
8233 8231 8232 8231 8230 8219 8227 8226 8223 8221 8223 8224 8218 8216 8221 8220 8219 8222 8222 8222 8208 8160 8167 8189 8202 8144 8123 8163 8140 8141 8127 8127 8124 8130 8133 8133 8117 8126 8113 8113 8158 8163 8166 8194 8201 8201 8205 8202 8203 8202 8200 8198 8200 8199 8195 8196 8191 8190 8187 8186 8189 8189 8188 8188 8188 8185 8182 8181 8180 8176 8173 8172 8171 8169 8171 8167 8170 8166 8167 8165 
8234 8232 8231 8229 8226 8223 8231 8228 8224 8220 8215 8222 8224 8219 8222 8222 8224 8223 8225 8217 8172 8180 8214 8210 8199 8133 8161 8155 8145 8182 8148 8168 8148 8135 8126 8120 8110 8116 8142 8128 8152 8163 8166 8196 8201 8200 8199 8198 8200 8199 8198 8199 8199 8196 8195 8195 8193 8191 8188 8191 8190 8190 8186 8187 8191 8189 8185 8185 8180 8177 8177 8173 8171 8174 8169 8172 8173 8169 8168 8164 
8232 8231 8233 8228 8225 8222 8229 8222 8224 8222 8220 8224 8225 8220 8221 8220 8221 8221 8221 8203 8171 8216 8220 8213 8206 8164 8198 8165 8145 8192 8195 8172 8138 8132 8124 8117 8115 8115 8124 8160 8159 8161 8164 8193 8199 8199 8199 8197 8199 8199 8197 8197 8198 8195 8197 8197 8196 8190 8192 8191 8192 8191 8188 8188 8191 8187 8189 8185 8184 8183 8179 8179 8176 8175 8177 8172 8173 8166 8168 8168 
8229 8227 8227 8226 8227 8226 8228 8219 8223 8223 8220 8226 8223 8220 8221 8220 8215 8219 8217 8199 8186 8218 8221 8218 8214 8212 8210 8199 8196 8213 8205 8172 8148 8132 8132 8157 8148 8117 8116 8158 8160 8165 8168 8194 8199 8201 8200 8195 8199 8199 8199 8198 8199 8198 8200 8197 8198 8192 8191 8190 8192 8188 8191 8188 8192 8190 8188 8187 8185 8182 8183 8181 8179 8179 8181 8179 8176 8172 8170 8164 
8224 8227 8228 8224 8229 8228 8228 8225 8221 8224 8224 8222 8223 8222 8224 8219 8221 8221 8220 8204 8187 8207 8213 8223 8227 8229 8228 8231 8228 8223 8209 8173 8130 8122 8123 8126 8148 8124 8121 8148 8161 8168 8173 8197 8202 8201 8198 8192 8198 8195 8195 8197 8200 8199 8197 8196 8196 8194 8190 8190 8192 8189 8189 8190 8192 8188 8191 8187 8188 8180 8180 8182 8183 8181 8180 8182 8177 8172 8165 8169 
8225 8232 8235 8229 8232 8227 8232 8223 8223 8225 8227 8220 8220 8220 8219 8217 8220 8225 8222 8209 8204 8204 8212 8223 8235 8238 8237 8236 8234 8220 8168 8156 8142 8134 8125 8121 8152 8141 8134 8139 8164 8176 8181 8196 8205 8204 8199 8193 8196 8193 8195 8196 8199 8197 8196 8197 8195 8198 8196 8192 8192 8189 8187 8188 8190 8190 8190 8189 8188 8185 8185 8185 8181 8186 8188 8182 8179 8174 8169 8166 
8225 8232 8236 8226 8229 8231 8220 8225 8223 8223 8219 8221 8221 8220 8226 8220 8220 8220 8222 8223 8228 8222 8225 8235 8252 8256 8255 8252 8246 8214 8186 8195 8186 8185 8183 8186 8196 8194 8204 8204 8207 8211 8212 8212 8207 8203 8196 8193 8194 8193 8192 8195 8196 8195 8195 8195 8194 8191 8196 8192 8191 8189 8191 8189 8189 8190 8187 8187 8188 8187 8188 8188 8186 8191 8190 8184 8180 8172 8168 8170 
8223 8223 8235 8223 8223 8227 8222 8221 8225 8225 8222 8228 8228 8224 8227 8224 8224 8227 8229 8230 8235 8227 8225 8230 8242 8253 8250 8255 8243 8234 8225 8228 8222 8221 8224 8230 8230 8228 8224 8218 8221 8221 8220 8215 8214 8205 8194 8190 8193 8196 8194 8192 8195 8196 8197 8194 8190 8192 8193 8191 8190 8191 8189 8190 8189 8188 8187 8186 8186 8185 8190 8190 8187 8192 8190 8188 8186 8182 8173 8171 
8223 8229 8223 8223 8224 8226 8227 8224 8227 8230 8226 8228 8228 8232 8223 8222 8224 8236 8238 8232 8238 8231 8232 8234 8236 8244 8244 8246 8241 8233 8232 8231 8228 8226 8232 8235 8238 8233 8229 8228 8227 8228 8226 8225 8224 8211 8194 8189 8192 8191 8191 8191 8195 8193 8194 8190 8191 8189 8190 8190 8192 8194 8191 8190 8190 8187 8187 8185 8188 8187 8188 8190 8187 8190 8193 8190 8187 8188 8173 8172 
8223 8225 8227 8225 8228 8224 8227 8225 8228 8232 8228 8230 8233 8232 8225 8226 8228 8230 8239 8246 8253 8248 8250 8247 8247 8242 8242 8244 8241 8236 8237 8239 8239 8237 8239 8242 8245 8242 8241 8242 8240 8236 8236 8238 8218 8199 8191 8190 8188 8190 8190 8194 8195 8195 8194 8193 8191 8188 8188 8192 8194 8195 8191 8192 8191 8190 8188 8187 8190 8191 8189 8191 8190 8190 8194 8189 8190 8188 8176 8177 
8225 8233 8226 8223 8229 8227 8230 8222 8230 8234 8229 8228 8233 8232 8230 8231 8231 8234 8236 8243 8250 8252 8257 8258 8249 8241 8239 8242 8242 8243 8245 8247 8248 8244 8246 8246 8243 8242 8245 8237 8237 8233 8235 8228 8208 8193 8192 8188 8187 8188 8189 8188 8188 8192 8193 8194 8191 8190 8189 8191 8191 8189 8190 8189 8190 8189 8189 8188 8190 8190 8187 8188 8192 8191 8192 8193 8191 8186 8179 8175 
8221 8227 8222 8225 8230 8229 8231 8229 8227 8225 8227 8227 8235 8233 8234 8238 8241 8234 8238 8240 8248 8260 8262 8259 8250 8239 8236 8238 8237 8239 8240 8240 8241 8240 8241 8242 8242 8239 8237 8233 8236 8232 8229 8222 8203 8193 8192 8188 8187 8187 8184 8183 8186 8191 8191 8194 8192 8189 8190 8191 8191 8191 8190 8191 8188 8189 8190 8189 8189 8190 8187 8190 8192 8192 8192 8191 8191 8187 8181 8184 
8220 8230 8224 8225 8232 8231 8237 8234 8227 8229 8226 8234 8238 8238 8234 8238 8238 8239 8237 8238 8244 8256 8261 8255 8252 8245 8241 8241 8246 8248 8251 8254 8257 8249 8250 8252 8253 8245 8238 8231 8242 8238 8229 8220 8200 8194 8191 8185 8185 8187 8187 8188 8189 8189 8190 8191 8191 8192 8189 8187 8189 8187 8188 8191 8189 8189 8188 8188 8190 8188 8190 8194 8191 8195 8196 8192 8192 8189 8185 8180 
8219 8230 8226 8225 8228 8229 8233 8234 8237 8238 8236 8236 8237 8234 8235 8237 8240 8240 8233 8240 8251 8260 8261 8252 8256 8250 8244 8245 8249 8250 8258 8267 8268 8261 8258 8257 8249 8246 8239 8237 8244 8244 8234 8217 8196 8189 8190 8186 8191 8189 8187 8187 8189 8190 8189 8190 8189 8188 8188 8187 8191 8190 8188 8192 8189 8188 8185 8188 8191 8190 8191 8198 8190 8194 8198 8200 8196 8191 8185 8184 
8216 8219 8228 8226 8227 8230 8236 8233 8237 8232 8233 8238 8242 8239 8238 8240 8239 8237 8235 8240 8252 8257 8261 8255 8261 8260 8250 8252 8252 8256 8262 8269 8272 8262 8257 8255 8252 8246 8244 8240 8248 8244 8231 8212 8190 8188 8188 8187 8189 8189 8188 8187 8190 8189 8184 8189 8186 8187 8184 8187 8188 8188 8188 8190 8187 8187 8186 8188 8190 8188 8190 8192 8196 8199 8200 8199 8195 8190 8187 8178 
8215 8217 8221 8221 8216 8229 8234 8229 8234 8232 8237 8237 8244 8241 8237 8235 8239 8239 8240 8238 8246 8255 8256 8259 8262 8264 8261 8258 8257 8261 8267 8271 8272 8262 8262 8256 8256 8248 8244 8243 8245 8246 8230 8210 8187 8187 8187 8187 8186 8186 8187 8188 8189 8190 8185 8187 8188 8188 8187 8182 8187 8188 8190 8188 8184 8187 8187 8189 8192 8192 8189 8195 8195 8200 8198 8200 8196 8193 8183 8194 
8231 8242 8233 8217 8220 8215 8227 8222 8223 8229 8232 8234 8238 8240 8238 8236 8238 8238 8242 8237 8241 8252 8256 8258 8258 8263 8263 8261 8263 8264 8266 8268 8270 8266 8261 8257 8252 8250 8244 8243 8240 8238 8228 8202 8189 8187 8184 8184 8187 8187 8188 8190 8187 8187 8183 8188 8187 8184 8184 8183 8188 8188 8187 8184 8186 8189 8189 8189 8191 8195 8191 8193 8194 8199 8201 8196 8196 8188 8181 8200 
8239 8246 8233 8218 8207 8212 8214 8221 8223 8222 8221 8222 8228 8232 8229 8229 8230 8236 8233 8231 8245 8255 8255 8253 8257 8265 8265 8264 8270 8269 8267 8271 8269 8260 8259 8256 8253 8246 8245 8242 8237 8235 8224 8201 8189 8184 8186 8186 8185 8185 8190 8188 8191 8187 8189 8189 8186 8185 8184 8185 8189 8188 8188 8184 8185 8188 8190 8191 8192 8193 8193 8196 8195 8199 8200 8198 8198 8188 8190 8218 
8215 8213 8209 8206 8201 8201 8213 8229 8234 8219 8204 8204 8198 8210 8212 8211 8220 8224 8217 8216 8234 8247 8253 8254 8256 8259 8261 8267 8267 8264 8266 8268 8264 8260 8259 8257 8253 8243 8239 8239 8236 8233 8218 8179 8171 8181 8186 8185 8185 8187 8186 8188 8191 8189 8188 8186 8184 8186 8183 8188 8190 8191 8188 8184 8186 8188 8188 8189 8192 8193 8193 8197 8197 8200 8201 8194 8189 8187 8214 8239 
8239 8235 8216 8208 8219 8236 8250 8252 8227 8225 8212 8211 8207 8204 8209 8208 8210 8216 8206 8204 8226 8237 8244 8252 8255 8255 8255 8259 8258 8258 8259 8262 8259 8258 8256 8254 8253 8248 8242 8235 8232 8228 8209 8175 8161 8168 8184 8187 8188 8187 8186 8192 8189 8185 8187 8187 8184 8181 8183 8185 8188 8189 8187 8187 8188 8190 8184 8190 8191 8190 8194 8198 8197 8202 8200 8196 8188 8190 8226 8257 
8249 8238 8223 8233 8255 8269 8280 8278 8275 8292 8283 8268 8263 8266 8264 8265 8246 8212 8205 8212 8223 8235 8237 8244 8245 8247 8246 8247 8253 8252 8253 8254 8255 8254 8256 8250 8248 8248 8239 8230 8227 8225 8209 8173 8160 8168 8181 8185 8189 8188 8190 8189 8183 8183 8186 8183 8186 8183 8181 8184 8186 8184 8189 8188 8188 8184 8182 8182 8189 8191 8194 8194 8200 8200 8198 8197 8187 8186 8228 8243 
8238 8249 8263 8281 8297 8289 8290 8281 8281 8311 8301 8273 8271 8267 8277 8297 8269 8236 8215 8217 8228 8237 8239 8240 8243 8233 8241 8246 8249 8245 8244 8248 8249 8249 8252 8248 8247 8240 8240 8231 8230 8225 8207 8173 8167 8175 8176 8184 8188 8189 8188 8182 8182 8178 8174 8178 8180 8178 8179 8179 8184 8183 8185 8186 8189 8186 8184 8187 8187 8188 8194 8196 8195 8196 8200 8196 8186 8186 8225 8234 
8256 8288 8292 8280 8286 8290 8299 8306 8307 8307 8307 8307 8318 8324 8318 8300 8296 8283 8244 8220 8220 8228 8234 8237 8234 8225 8229 8238 8247 8242 8241 8239 8243 8240 8242 8245 8242 8239 8233 8228 8219 8207 8187 8168 8166 8163 8164 8165 8168 8173 8172 8167 8163 8160 8160 8162 8165 8167 8165 8170 8174 8166 8175 8182 8184 8189 8194 8196 8189 8191 8199 8201 8197 8199 8200 8197 8191 8195 8224 8221 
8301 8317 8304 8284 8297 8309 8317 8315 8314 8305 8305 8311 8317 8337 8321 8293 8285 8284 8261 8230 8211 8206 8208 8212 8218 8220 8222 8229 8235 8232 8231 8235 8233 8233 8225 8224 8219 8213 8198 8185 8178 8171 8169 8169 8160 8161 8164 8162 8164 8164 8164 8160 8163 8162 8158 8160 8171 8174 8163 8173 8180 8173 8177 8185 8188 8180 8191 8199 8191 8194 8206 8210 8204 8214 8217 8211 8203 8209 8220 8220 
8307 8291 8278 8272 8296 8318 8307 8298 8297 8300 8313 8336 8340 8338 8322 8296 8295 8299 8301 8239 8216 8199 8194 8194 8198 8196 8195 8196 8195 8193 8196 8192 8193 8188 8183 8181 8179 8174 8170 8168 8166 8167 8166 8156 8155 8163 8165 8162 8159 8162 8158 8152 8156 8155 8156 8152 8163 8164 8159 8165 8175 8174 8165 8180 8188 8183 8188 8205 8205 8201 8208 8211 8206 8205 8211 8213 8219 8207 8216 8218 
8317 8302 8297 8300 8315 8322 8308 8283 8281 8282 8294 8343 8337 8308 8280 8262 8262 8283 8305 8270 8225 8197 8189 8189 8181 8186 8180 8180 8185 8183 8185 8186 8181 8177 8177 8178 8176 8177 8171 8172 8170 8175 8170 8163 8151 8163 8161 8160 8160 8163 8159 8157 8158 8162 8164 8160 8167 8166 8163 8162 8178 8170 8167 8171 8181 8180 8181 8198 8205 8206 8205 8215 8221 8218 8208 8215 8216 8212 8211 8220 


