P2
80 60
8353
8265 8278 8276 8278 8281 8276 8275 8270 8269 8268 8272 8270 8268 8272 8271 8265 8267 8260 8255 8258 8259 8260 8261 8259 8266 8268 8269 8273 8270 8270 8271 8271 8268 8269 8267 8271 8266 8263 8268 8269 8268 8268 8263 8258 8262 8267 8270 8268 8270 8268 8262 8265 8260 8254 8252 8250 8254 8253 8257 8257 8255 8257 8255 8252 8253 8250 8253 8254 8256 8255 8259 8263 8264 8265 8264 8264 8264 8269 8267 8263 
8269 8279 8280 8284 8283 8277 8272 8272 8267 8267 8267 8268 8265 8265 8264 8268 8265 8263 8257 8262 8260 8255 8258 8258 8268 8265 8265 8269 8272 8266 8269 8272 8265 8269 8264 8266 8263 8266 8268 8267 8267 8265 8256 8256 8262 8262 8265 8265 8264 8266 8262 8261 8258 8252 8250 8254 8252 8254 8252 8256 8255 8252 8253 8250 8246 8249 8251 8253 8256 8256 8259 8261 8264 8267 8267 8264 8269 8269 8268 8264 
8262 8270 8272 8269 8276 8266 8268 8270 8268 8264 8268 8265 8255 8264 8260 8262 8261 8259 8258 8260 8258 8257 8257 8256 8262 8266 8268 8268 8268 8260 8259 8264 8263 8266 8266 8261 8262 8268 8263 8268 8263 8256 8254 8254 8258 8257 8261 8259 8260 8261 8259 8258 8252 8254 8255 8256 8255 8253 8254 8251 8255 8254 8251 8250 8245 8247 8250 8250 8254 8260 8257 8261 8261 8260 8265 8264 8269 8268 8268 8265 
8267 8265 8278 8265 8274 8266 8269 8268 8268 8264 8260 8257 8257 8260 8255 8262 8259 8258 8258 8254 8257 8250 8241 8255 8262 8264 8268 8267 8268 8266 8262 8266 8266 8264 8269 8264 8266 8263 8264 8269 8262 8254 8251 8249 8256 8252 8260 8256 8259 8256 8257 8254 8255 8250 8255 8254 8253 8253 8250 8251 8252 8252 8247 8247 8242 8241 8245 8248 8256 8256 8256 8256 8259 8264 8262 8259 8266 8268 8265 8266 
8265 8266 8274 8261 8267 8268 8270 8257 8263 8263 8258 8252 8255 8262 8256 8256 8262 8256 8256 8252 8252 8250 8245 8250 8263 8261 8267 8265 8265 8261 8261 8265 8261 8262 8263 8267 8264 8262 8264 8262 8261 8260 8253 8249 8250 8252 8259 8255 8256 8256 8251 8254 8251 8253 8254 8255 8253 8255 8254 8250 8251 8249 8243 8245 8241 8241 8241 8244 8251 8253 8254 8256 8256 8261 8258 8256 8262 8263 8264 8257 
8270 8268 8265 8262 8265 8262 8271 8267 8261 8262 8250 8256 8260 8255 8254 8259 8261 8254 8256 8257 8252 8250 8255 8253 8263 8262 8266 8259 8257 8264 8265 8267 8258 8260 8261 8265 8264 8260 8259 8263 8260 8257 8253 8250 8250 8254 8254 8258 8257 8255 8252 8252 8254 8253 8254 8255 8250 8252 8254 8251 8249 8247 8244 8241 8240 8239 8242 8239 8244 8250 8251 8250 8258 8251 8252 8255 8255 8255 8259 8254 
8268 8273 8266 8271 8269 8265 8273 8272 8260 8251 8249 8262 8260 8255 8258 8259 8252 8252 8255 8260 8250 8251 8257 8256 8262 8261 8255 8259 8261 8267 8266 8269 8261 8259 8262 8264 8264 8260 8263 8262 8259 8253 8253 8252 8254 8252 8257 8256 8254 8254 8252 8250 8252 8252 8256 8252 8247 8252 8253 8250 8247 8244 8244 8241 8240 8243 8245 8249 8242 8240 8245 8247 8251 8246 8249 8249 8250 8253 8251 8250 
8272 8274 8261 8274 8265 8266 8274 8277 8267 8247 8260 8262 8259 8256 8265 8256 8254 8253 8253 8249 8253 8251 8253 8259 8265 8263 8254 8259 8261 8267 8267 8268 8264 8262 8264 8262 8260 8261 8261 8261 8260 8253 8250 8252 8254 8256 8257 8255 8253 8254 8249 8247 8248 8249 8250 8249 8248 8250 8250 8249 8245 8241 8243 8243 8239 8244 8247 8246 8243 8242 8241 8244 8245 8245 8246 8249 8249 8251 8248 8244 
8271 8269 8263 8267 8273 8266 8272 8269 8264 8251 8258 8257 8253 8255 8251 8252 8252 8251 8252 8252 8254 8246 8248 8253 8258 8263 8256 8262 8261 8266 8265 8262 8261 8259 8265 8262 8263 8260 8258 8259 8258 8253 8250 8246 8252 8255 8256 8255 8253 8253 8248 8246 8248 8246 8252 8246 8249 8248 8247 8247 8243 8240 8241 8238 8239 8240 8242 8242 8239 8244 8241 8237 8239 8241 8242 8245 8250 8247 8244 8245 
8268 8263 8264 8268 8267 8272 8261 8267 8263 8258 8257 8256 8253 8256 8250 8245 8252 8251 8251 8255 8252 8247 8250 8251 8259 8258 8257 8263 8261 8263 8260 8263 8256 8255 8262 8264 8262 8261 8258 8258 8256 8253 8250 8244 8248 8253 8254 8254 8252 8247 8247 8247 8244 8249 8246 8241 8245 8247 8246 8244 8244 8241 8239 8237 8235 8239 8238 8241 8240 8240 8238 8236 8239 8236 8239 8238 8245 8245 8242 8240 
8266 8262 8265 8264 8264 8266 8260 8265 8263 8250 8257 8251 8250 8253 8249 8249 8250 8245 8245 8247 8250 8247 8250 8252 8254 8254 8263 8266 8265 8264 8262 8259 8255 8260 8257 8258 8262 8257 8255 8253 8255 8251 8246 8252 8252 8252 8256 8251 8251 8248 8244 8244 8247 8243 8243 8239 8243 8245 8246 8243 8242 8239 8239 8233 8230 8235 8239 8235 8236 8233 8235 8232 8233 8231 8233 8233 8237 8238 8244 8240 
8261 8273 8267 8263 8259 8269 8260 8262 8263 8257 8256 8250 8252 8253 8252 8250 8248 8245 8246 8254 8255 8252 8249 8254 8260 8257 8262 8265 8264 8265 8263 8261 8256 8260 8258 8258 8260 8261 8259 8253 8251 8252 8248 8251 8253 8250 8256 8252 8253 8250 8250 8248 8249 8247 8243 8240 8240 8242 8246 8244 8241 8238 8235 8232 8233 8232 8239 8236 8236 8231 8236 8231 8231 8229 8228 8225 8234 8235 8234 8233 
8265 8271 8257 8254 8257 8264 8265 8256 8258 8252 8253 8250 8251 8249 8250 8248 8246 8248 8252 8248 8252 8249 8250 8253 8263 8257 8257 8266 8263 8263 8267 8257 8257 8261 8255 8259 8263 8260 8254 8252 8252 8251 8251 8251 8255 8252 8252 8253 8251 8248 8250 8249 8247 8248 8249 8238 8244 8244 8243 8244 8238 8237 8233 8233 8234 8238 8238 8235 8234 8229 8229 8228 8226 8226 8227 8227 8230 8235 8232 8226 
8267 8278 8267 8265 8267 8267 8262 8258 8254 8253 8259 8253 8249 8249 8250 8250 8250 8249 8250 8254 8250 8251 8246 8253 8257 8259 8261 8265 8258 8263 8265 8258 8255 8256 8258 8261 8260 8257 8251 8254 8252 8250 8248 8249 8252 8250 8250 8252 8249 8246 8247 8249 8246 8246 8251 8241 8243 8244 8241 8242 8237 8233 8236 8238 8236 8232 8234 8231 8230 8226 8228 8225 8227 8223 8222 8225 8227 8229 8230 8227 
8270 8265 8270 8266 8265 8260 8257 8260 8254 8254 8259 8255 8251 8254 8254 8255 8253 8250 8253 8254 8249 8249 8246 8252 8256 8259 8264 8262 8259 8262 8259 8261 8252 8255 8259 8258 8256 8256 8252 8249 8246 8247 8248 8250 8248 8249 8245 8247 8246 8248 8247 8247 8249 8245 8247 8243 8243 8244 8241 8239 8236 8232 8234 8233 8233 8234 8233 8231 8229 8227 8225 8225 8224 8225 8222 8221 8222 8228 8223 8223 
8275 8260 8262 8268 8263 8258 8258 8261 8254 8260 8259 8253 8250 8249 8254 8253 8253 8249 8254 8251 8246 8247 8244 8249 8255 8260 8264 8258 8262 8262 8258 8255 8254 8256 8256 8256 8258 8253 8253 8252 8251 8248 8246 8247 8247 8244 8243 8245 8246 8244 8248 8249 8249 8246 8240 8240 8244 8239 8237 8238 8235 8232 8229 8232 8234 8233 8231 8229 8229 8227 8227 8224 8221 8223 8221 8219 8219 8223 8220 8218 
8278 8260 8262 8265 8258 8255 8255 8255 8256 8258 8255 8255 8251 8251 8250 8252 8247 8252 8252 8250 8247 8249 8249 8248 8255 8259 8259 8262 8260 8261 8262 8260 8253 8257 8257 8255 8255 8256 8252 8251 8249 8246 8240 8242 8244 8241 8242 8241 8243 8244 8246 8245 8246 8238 8236 8238 8235 8240 8238 8236 8231 8228 8229 8230 8231 8231 8230 8228 8228 8223 8225 8222 8220 8220 8219 8218 8218 8219 8214 8216 
8275 8266 8268 8258 8257 8261 8256 8257 8259 8264 8259 8253 8256 8255 8255 8252 8249 8250 8252 8249 8246 8251 8248 8247 8254 8261 8263 8259 8259 8260 8257 8257 8257 8259 8261 8256 8257 8250 8249 8246 8248 8244 8242 8242 8244 8241 8243 8240 8241 8243 8243 8245 8242 8239 8234 8234 8235 8234 8236 8237 8230 8228 8230 8228 8228 8228 8231 8229 8230 8225 8227 8222 8222 8220 8219 8218 8217 8214 8211 8210 
8268 8262 8264 8258 8258 8252 8257 8260 8262 8258 8256 8254 8256 8255 8254 8253 8249 8253 8249 8244 8240 8252 8250 8252 8253 8258 8263 8259 8257 8256 8255 8261 8261 8259 8260 8258 8253 8251 8250 8244 8246 8243 8241 8241 8241 8236 8241 8242 8243 8240 8242 8240 8242 8236 8234 8232 8232 8235 8235 8235 8230 8225 8230 8229 8230 8227 8228 8227 8226 8229 8224 8223 8223 8220 8220 8216 8212 8213 8210 8210 
8270 8263 8261 8260 8253 8255 8258 8259 8259 8257 8260 8254 8252 8251 8252 8252 8250 8248 8245 8249 8240 8249 8252 8251 8254 8256 8261 8258 8255 8255 8254 8256 8256 8259 8256 8254 8252 8247 8249 8246 8244 8241 8242 8241 8239 8238 8239 8241 8240 8238 8240 8239 8236 8234 8235 8230 8232 8236 8234 8228 8228 8224 8228 8228 8227 8227 8226 8224 8225 8225 8225 8222 8220 8216 8219 8215 8211 8211 8207 8207 
8265 8267 8258 8250 8250 8252 8249 8261 8261 8254 8252 8252 8252 8248 8247 8253 8247 8248 8244 8245 8240 8249 8252 8251 8251 8252 8253 8258 8252 8254 8253 8254 8254 8255 8253 8248 8247 8248 8246 8248 8245 8242 8237 8237 8237 8236 8236 8236 8239 8237 8234 8236 8233 8234 8234 8232 8233 8231 8231 8227 8225 8225 8226 8226 8225 8225 8223 8225 8222 8226 8223 8219 8215 8217 8216 8213 8209 8208 8208 8205 
8272 8270 8258 8262 8260 8254 8246 8262 8254 8258 8253 8245 8251 8252 8245 8246 8244 8246 8240 8244 8243 8249 8249 8253 8253 8251 8252 8254 8242 8218 8222 8242 8249 8239 8204 8194 8197 8233 8242 8246 8243 8241 8236 8234 8234 8236 8232 8235 8237 8233 8234 8231 8233 8235 8234 8232 8233 8234 8227 8225 8225 8224 8225 8226 8226 8223 8225 8225 8225 8223 8219 8218 8215 8213 8215 8211 8210 8208 8206 8203 
8270 8268 8264 8263 8258 8254 8248 8247 8248 8254 8254 8250 8245 8250 8248 8245 8244 8242 8237 8244 8243 8248 8248 8253 8255 8250 8243 8196 8179 8194 8226 8215 8211 8211 8156 8156 8158 8183 8218 8229 8237 8236 8235 8233 8234 8227 8230 8233 8232 8232 8237 8235 8232 8233 8235 8233 8232 8234 8226 8226 8225 8224 8224 8224 8227 8220 8223 8225 8224 8222 8219 8214 8213 8212 8210 8207 8207 8207 8208 8205 
8267 8271 8261 8259 8260 8257 8252 8251 8256 8255 8254 8247 8247 8245 8246 8246 8245 8247 8238 8248 8246 8249 8249 8248 8252 8247 8188 8152 8174 8157 8196 8232 8174 8177 8153 8145 8152 8178 8163 8191 8223 8206 8208 8232 8225 8205 8205 8218 8229 8237 8237 8233 8230 8230 8231 8228 8232 8231 8227 8225 8225 8222 8223 8230 8227 8223 8225 8225 8223 8219 8217 8213 8214 8208 8210 8205 8204 8208 8207 8203 
8266 8262 8261 8266 8260 8254 8248 8258 8254 8254 8254 8250 8251 8249 8248 8247 8246 8248 8238 8241 8247 8248 8252 8249 8251 8240 8163 8162 8229 8162 8170 8229 8190 8180 8172 8147 8144 8160 8151 8156 8195 8205 8192 8219 8209 8180 8151 8163 8209 8234 8236 8237 8229 8227 8228 8227 8230 8231 8230 8227 8222 8223 8224 8226 8228 8224 8223 8224 8221 8217 8215 8216 8210 8209 8208 8206 8206 8208 8206 8202 
8265 8254 8254 8265 8261 8253 8259 8249 8247 8252 8250 8253 8250 8249 8250 8244 8247 8250 8243 8241 8244 8247 8250 8245 8247 8244 8182 8207 8240 8191 8175 8197 8181 8173 8149 8136 8145 8160 8163 8152 8155 8163 8191 8164 8157 8168 8143 8154 8175 8216 8232 8232 8229 8229 8227 8228 8228 8226 8225 8227 8227 8220 8223 8227 8221 8221 8222 8220 8218 8211 8213 8209 8210 8207 8206 8205 8202 8205 8207 8201 
8261 8259 8252 8260 8256 8256 8257 8250 8255 8252 8248 8253 8247 8248 8250 8245 8246 8249 8245 8241 8246 8242 8243 8247 8247 8247 8244 8231 8216 8235 8167 8173 8153 8177 8135 8127 8138 8169 8203 8181 8142 8148 8168 8150 8145 8150 8149 8151 8205 8216 8227 8229 8229 8227 8230 8225 8224 8229 8227 8228 8227 8221 8222 8220 8221 8219 8216 8214 8212 8211 8210 8205 8205 8206 8206 8202 8204 8206 8207 8202 
8256 8261 8258 8263 8258 8251 8255 8251 8250 8256 8252 8253 8249 8245 8246 8241 8247 8247 8244 8243 8242 8243 8244 8248 8251 8249 8243 8189 8227 8220 8145 8139 8127 8136 8127 8126 8134 8150 8164 8198 8148 8159 8166 8149 8154 8150 8158 8167 8217 8220 8226 8232 8226 8228 8229 8226 8229 8228 8225 8224 8225 8218 8221 8220 8219 8218 8217 8206 8207 8206 8205 8203 8202 8201 8204 8202 8205 8204 8203 8200 
8253 8257 8256 8258 8254 8259 8256 8255 8255 8258 8256 8254 8252 8246 8250 8244 8245 8246 8243 8243 8239 8241 8245 8250 8249 8249 8236 8171 8230 8215 8155 8143 8137 8127 8126 8132 8148 8158 8165 8171 8152 8154 8173 8162 8141 8145 8153 8184 8224 8225 8229 8229 8230 8230 8230 8229 8227 8227 8225 8221 8220 8219 8223 8223 8221 8216 8214 8205 8207 8204 8206 8201 8201 8200 8204 8200 8202 8207 8204 8201 
8256 8259 8256 8259 8255 8260 8259 8254 8254 8252 8258 8254 8249 8249 8248 8247 8246 8246 8246 8243 8239 8242 8243 8247 8254 8248 8245 8179 8184 8212 8177 8163 8145 8137 8140 8141 8151 8173 8164 8183 8160 8151 8188 8165 8149 8138 8152 8177 8202 8232 8231 8230 8229 8234 8230 8228 8227 8225 8222 8218 8217 8217 8222 8220 8219 8217 8212 8208 8208 8208 8206 8202 8201 8201 8203 8198 8203 8208 8211 8204 
8256 8261 8257 8258 8255 8262 8254 8255 8255 8252 8254 8250 8247 8249 8247 8249 8249 8246 8244 8241 8238 8240 8240 8248 8250 8246 8240 8190 8175 8219 8180 8196 8164 8144 8138 8145 8152 8150 8174 8199 8159 8164 8171 8164 8158 8141 8143 8151 8204 8228 8232 8230 8231 8231 8228 8226 8224 8224 8223 8220 8220 8218 8221 8221 8218 8216 8214 8210 8207 8204 8207 8203 8202 8204 8205 8200 8203 8206 8206 8206 
8258 8257 8252 8254 8252 8255 8249 8255 8254 8247 8247 8249 8246 8245 8247 8247 8247 8240 8242 8241 8236 8243 8242 8245 8248 8234 8222 8191 8170 8187 8176 8179 8181 8149 8136 8145 8152 8147 8179 8168 8149 8146 8145 8156 8162 8165 8158 8141 8173 8228 8229 8230 8229 8229 8229 8224 8222 8224 8224 8224 8223 8221 8223 8223 8220 8215 8213 8211 8212 8208 8209 8208 8206 8201 8202 8200 8206 8205 8205 8204 
8258 8257 8252 8256 8253 8255 8251 8254 8255 8253 8247 8248 8243 8243 8245 8243 8243 8242 8240 8238 8238 8243 8239 8245 8243 8205 8230 8200 8195 8190 8190 8171 8180 8163 8147 8142 8143 8141 8144 8151 8145 8146 8134 8136 8161 8197 8211 8172 8171 8215 8229 8229 8231 8230 8228 8223 8224 8223 8224 8223 8224 8222 8221 8223 8222 8216 8214 8212 8211 8210 8211 8206 8207 8203 8201 8202 8202 8205 8208 8206 
8257 8255 8264 8257 8257 8255 8250 8255 8255 8252 8252 8249 8240 8244 8247 8241 8241 8244 8243 8240 8239 8242 8242 8238 8223 8193 8213 8196 8177 8157 8165 8167 8179 8186 8152 8144 8134 8140 8145 8152 8147 8144 8139 8144 8158 8199 8215 8222 8175 8219 8229 8230 8228 8230 8227 8224 8224 8226 8223 8222 8225 8225 8225 8223 8223 8217 8216 8214 8212 8212 8214 8212 8205 8203 8204 8200 8205 8206 8207 8200 
8267 8259 8261 8263 8260 8251 8257 8257 8252 8252 8251 8251 8247 8241 8245 8247 8246 8248 8244 8245 8243 8242 8239 8228 8215 8190 8212 8216 8153 8146 8181 8160 8153 8194 8161 8149 8141 8139 8146 8149 8147 8145 8134 8148 8172 8219 8212 8215 8207 8224 8231 8227 8231 8226 8228 8223 8226 8226 8226 8221 8225 8226 8225 8223 8220 8220 8219 8215 8213 8213 8213 8209 8203 8206 8205 8202 8205 8205 8205 8202 
8263 8263 8260 8261 8260 8254 8259 8259 8253 8247 8245 8251 8251 8247 8249 8250 8250 8248 8247 8246 8245 8240 8222 8209 8183 8164 8191 8197 8152 8146 8144 8144 8148 8153 8156 8155 8144 8144 8147 8150 8151 8146 8130 8151 8204 8223 8226 8224 8219 8232 8229 8228 8228 8228 8227 8226 8228 8227 8223 8224 8226 8226 8225 8225 8222 8221 8222 8216 8216 8218 8215 8210 8209 8205 8205 8211 8206 8206 8207 8204 
8265 8262 8264 8260 8255 8254 8261 8255 8255 8251 8251 8253 8252 8247 8252 8248 8250 8248 8248 8246 8241 8235 8241 8211 8175 8204 8229 8185 8153 8143 8138 8139 8145 8147 8154 8153 8153 8139 8142 8149 8151 8146 8126 8144 8183 8226 8229 8230 8227 8229 8230 8232 8230 8228 8228 8228 8228 8226 8226 8225 8225 8224 8227 8223 8225 8222 8223 8217 8218 8214 8219 8214 8213 8217 8214 8212 8209 8207 8210 8203 
8260 8262 8259 8260 8260 8258 8257 8252 8255 8253 8250 8256 8251 8248 8248 8249 8242 8246 8240 8236 8239 8239 8244 8231 8233 8239 8226 8169 8151 8142 8139 8139 8130 8143 8145 8143 8145 8149 8131 8139 8151 8152 8125 8132 8156 8223 8225 8227 8229 8229 8229 8227 8227 8230 8230 8226 8230 8227 8226 8223 8223 8221 8224 8224 8222 8221 8219 8223 8219 8218 8223 8219 8216 8214 8218 8216 8210 8209 8208 8205 
8256 8261 8260 8259 8260 8260 8259 8257 8252 8253 8254 8253 8250 8249 8249 8245 8247 8243 8241 8241 8238 8235 8231 8228 8221 8213 8192 8154 8147 8140 8139 8133 8113 8121 8134 8137 8139 8159 8144 8143 8162 8189 8201 8165 8171 8207 8218 8221 8220 8229 8226 8227 8229 8229 8226 8227 8227 8228 8223 8222 8220 8221 8221 8220 8221 8223 8223 8225 8222 8221 8219 8219 8218 8219 8217 8217 8213 8208 8209 8201 
8261 8267 8268 8261 8262 8262 8261 8254 8257 8255 8256 8250 8247 8245 8246 8243 8246 8245 8242 8244 8242 8227 8191 8187 8189 8181 8171 8155 8148 8142 8137 8140 8116 8112 8129 8137 8136 8162 8159 8154 8157 8180 8202 8206 8205 8206 8207 8211 8211 8224 8220 8224 8227 8227 8228 8228 8227 8228 8225 8221 8220 8218 8218 8218 8220 8223 8223 8224 8221 8222 8221 8219 8221 8220 8223 8218 8214 8209 8210 8207 
8258 8262 8270 8260 8258 8263 8253 8257 8259 8252 8250 8250 8248 8247 8253 8247 8245 8247 8250 8245 8244 8237 8215 8210 8210 8201 8200 8187 8163 8155 8146 8151 8140 8154 8140 8142 8129 8175 8181 8188 8164 8170 8211 8220 8219 8210 8209 8214 8220 8224 8223 8227 8228 8225 8228 8228 8227 8220 8224 8221 8221 8224 8224 8222 8223 8221 8219 8220 8221 8225 8226 8220 8221 8225 8226 8219 8213 8210 8210 8207 
8255 8256 8265 8254 8255 8257 8250 8252 8257 8253 8254 8255 8252 8251 8255 8251 8247 8247 8250 8248 8248 8237 8211 8211 8217 8219 8222 8228 8222 8218 8210 8216 8211 8226 8206 8203 8200 8205 8217 8231 8214 8229 8250 8257 8259 8246 8237 8234 8233 8237 8232 8225 8225 8226 8229 8227 8223 8226 8223 8223 8220 8224 8224 8225 8225 8223 8223 8220 8221 8221 8227 8223 8225 8226 8224 8225 8223 8218 8212 8207 
8253 8255 8252 8252 8249 8254 8256 8255 8258 8257 8255 8255 8251 8252 8249 8247 8247 8250 8245 8240 8244 8240 8221 8217 8221 8218 8218 8223 8224 8217 8220 8222 8226 8224 8228 8228 8230 8226 8226 8228 8227 8239 8254 8255 8251 8242 8233 8229 8234 8236 8232 8229 8225 8227 8228 8228 8223 8224 8221 8217 8221 8225 8225 8227 8225 8222 8221 8219 8220 8221 8226 8227 8224 8225 8228 8224 8221 8220 8215 8209 
8253 8258 8255 8252 8254 8250 8254 8256 8257 8257 8255 8253 8256 8254 8249 8246 8248 8248 8246 8244 8249 8239 8234 8228 8229 8227 8225 8233 8233 8227 8227 8233 8233 8231 8234 8235 8237 8233 8233 8236 8233 8234 8239 8243 8246 8247 8244 8241 8243 8245 8244 8236 8228 8229 8230 8225 8222 8227 8221 8226 8226 8227 8229 8229 8224 8222 8224 8222 8222 8223 8229 8226 8228 8229 8231 8225 8227 8222 8214 8213 
8254 8260 8252 8252 8256 8254 8254 8255 8258 8261 8257 8253 8257 8253 8253 8251 8250 8252 8247 8248 8243 8241 8242 8231 8227 8243 8247 8258 8251 8244 8249 8253 8248 8245 8246 8250 8248 8250 8250 8252 8253 8252 8256 8257 8259 8264 8268 8260 8267 8261 8240 8224 8222 8224 8225 8228 8223 8224 8222 8225 8224 8224 8229 8226 8227 8226 8223 8220 8227 8226 8225 8225 8231 8230 8231 8228 8228 8224 8220 8219 
8253 8255 8250 8253 8256 8258 8259 8257 8255 8253 8251 8250 8257 8256 8255 8255 8259 8251 8250 8247 8247 8247 8246 8229 8214 8220 8231 8249 8247 8254 8259 8263 8264 8266 8273 8275 8275 8272 8280 8280 8281 8280 8279 8275 8274 8273 8268 8261 8253 8238 8224 8218 8221 8222 8228 8228 8229 8224 8224 8225 8223 8227 8226 8228 8224 8225 8228 8223 8227 8228 8227 8223 8230 8231 8230 8231 8231 8228 8227 8224 
8247 8258 8248 8252 8254 8254 8260 8262 8254 8253 8251 8256 8255 8258 8254 8258 8256 8254 8249 8249 8247 8246 8246 8232 8209 8208 8216 8235 8235 8238 8243 8250 8254 8255 8252 8256 8260 8267 8269 8269 8274 8271 8267 8258 8253 8254 8253 8254 8247 8232 8223 8220 8225 8221 8223 8225 8224 8228 8224 8224 8224 8224 8223 8227 8222 8224 8225 8226 8229 8227 8231 8226 8229 8230 8230 8230 8232 8230 8228 8228 
8248 8259 8253 8253 8251 8253 8258 8261 8262 8265 8262 8259 8256 8253 8254 8255 8256 8255 8251 8250 8252 8248 8249 8241 8215 8216 8217 8231 8237 8243 8244 8251 8252 8257 8258 8257 8256 8256 8254 8263 8269 8268 8260 8252 8250 8248 8252 8253 8251 8236 8224 8221 8225 8223 8223 8221 8223 8226 8225 8220 8222 8225 8227 8227 8227 8224 8224 8223 8227 8229 8229 8231 8228 8228 8232 8237 8235 8234 8228 8233 
8249 8250 8256 8254 8252 8257 8259 8261 8266 8260 8260 8263 8261 8257 8257 8255 8256 8253 8250 8250 8249 8248 8250 8244 8217 8219 8222 8230 8234 8246 8241 8246 8254 8255 8255 8254 8261 8256 8251 8253 8259 8263 8258 8255 8252 8250 8255 8255 8244 8235 8221 8222 8225 8224 8221 8222 8224 8223 8221 8221 8222 8226 8225 8228 8224 8223 8223 8223 8227 8226 8230 8227 8231 8232 8236 8236 8236 8231 8232 8236 
8247 8245 8248 8248 8246 8257 8264 8257 8264 8261 8265 8261 8263 8261 8254 8253 8258 8258 8255 8250 8248 8250 8253 8249 8220 8214 8222 8228 8233 8242 8246 8247 8250 8252 8256 8254 8257 8255 8251 8256 8259 8259 8256 8254 8248 8249 8252 8254 8242 8229 8223 8226 8227 8224 8222 8222 8225 8223 8223 8220 8225 8223 8227 8227 8223 8221 8221 8226 8227 8232 8228 8230 8235 8234 8237 8238 8237 8235 8232 8244 
8255 8254 8242 8236 8245 8244 8256 8254 8254 8256 8259 8260 8259 8263 8259 8257 8255 8256 8259 8252 8248 8253 8254 8255 8222 8215 8220 8227 8232 8243 8246 8248 8247 8251 8253 8253 8254 8254 8250 8252 8254 8257 8253 8246 8247 8247 8248 8247 8238 8227 8221 8226 8225 8224 8218 8224 8223 8223 8221 8223 8225 8225 8228 8223 8222 8225 8224 8226 8230 8234 8230 8231 8233 8236 8239 8236 8237 8233 8234 8258 
8251 8250 8234 8235 8237 8239 8242 8253 8252 8245 8250 8250 8250 8254 8254 8250 8251 8255 8252 8249 8255 8254 8257 8251 8225 8216 8219 8222 8232 8237 8239 8246 8242 8242 8249 8249 8251 8250 8252 8251 8253 8251 8251 8248 8246 8243 8244 8241 8233 8225 8225 8226 8225 8224 8223 8224 8223 8224 8219 8224 8226 8225 8225 8222 8223 8226 8225 8225 8233 8231 8236 8234 8236 8234 8238 8239 8237 8236 8249 8262 
8239 8240 8232 8236 8231 8233 8242 8261 8264 8241 8234 8229 8226 8236 8236 8238 8243 8247 8244 8245 8244 8250 8251 8244 8228 8216 8216 8223 8225 8224 8234 8241 8241 8239 8243 8243 8245 8246 8246 8248 8249 8249 8245 8244 8243 8239 8240 8238 8231 8221 8221 8226 8225 8226 8223 8224 8223 8224 8223 8225 8227 8226 8227 8221 8223 8226 8226 8227 8229 8232 8234 8235 8237 8238 8239 8236 8232 8232 8275 8273 
8254 8251 8236 8242 8255 8266 8271 8267 8248 8242 8234 8234 8225 8230 8236 8235 8240 8245 8241 8234 8236 8238 8233 8225 8220 8211 8213 8219 8215 8219 8225 8235 8233 8241 8242 8242 8244 8243 8240 8240 8245 8242 8240 8243 8239 8241 8238 8236 8231 8211 8211 8228 8225 8219 8222 8222 8223 8221 8223 8223 8226 8226 8226 8225 8225 8226 8222 8227 8233 8229 8233 8235 8237 8240 8237 8233 8231 8235 8282 8277 
8254 8257 8247 8269 8280 8283 8285 8280 8279 8294 8284 8278 8270 8270 8268 8269 8267 8265 8264 8264 8261 8248 8225 8220 8219 8202 8204 8208 8216 8216 8217 8227 8229 8237 8242 8240 8242 8244 8235 8235 8236 8239 8239 8240 8237 8235 8232 8233 8224 8206 8203 8215 8219 8219 8223 8222 8221 8222 8221 8225 8226 8224 8225 8228 8226 8225 8223 8221 8227 8231 8234 8235 8240 8237 8236 8234 8229 8238 8281 8276 
8263 8290 8294 8302 8303 8292 8292 8288 8290 8314 8299 8276 8276 8272 8291 8301 8286 8278 8270 8274 8293 8282 8240 8229 8226 8193 8201 8207 8212 8213 8214 8224 8227 8233 8238 8236 8237 8237 8231 8228 8235 8237 8233 8235 8237 8232 8226 8229 8218 8206 8203 8210 8219 8214 8214 8214 8219 8220 8218 8218 8222 8222 8224 8224 8227 8226 8223 8226 8226 8230 8234 8235 8237 8236 8239 8233 8227 8243 8276 8272 
8287 8310 8304 8291 8289 8291 8301 8313 8312 8312 8311 8303 8313 8319 8323 8321 8318 8319 8316 8321 8330 8323 8282 8244 8231 8192 8189 8200 8211 8211 8213 8215 8221 8224 8226 8231 8234 8233 8226 8229 8230 8231 8230 8233 8233 8225 8224 8221 8214 8208 8201 8205 8201 8204 8202 8207 8208 8210 8210 8212 8216 8211 8221 8228 8225 8233 8234 8233 8230 8234 8240 8237 8235 8236 8238 8236 8233 8250 8267 8260 
8309 8317 8299 8283 8299 8308 8320 8315 8313 8309 8311 8310 8319 8337 8330 8322 8315 8319 8323 8344 8334 8311 8297 8264 8245 8220 8208 8204 8205 8208 8205 8213 8214 8215 8216 8218 8222 8222 8219 8222 8225 8224 8222 8225 8225 8218 8221 8216 8211 8211 8204 8202 8205 8204 8197 8205 8214 8215 8210 8217 8221 8216 8227 8232 8225 8227 8234 8240 8234 8241 8250 8247 8249 8254 8256 8247 8248 8250 8260 8262 
8307 8291 8278 8276 8302 8312 8299 8297 8295 8298 8311 8325 8326 8336 8338 8319 8324 8332 8353 8351 8342 8319 8308 8282 8248 8236 8226 8223 8222 8219 8214 8212 8209 8211 8208 8213 8215 8215 8213 8217 8218 8217 8211 8210 8213 8214 8215 8211 8214 8209 8200 8193 8200 8197 8195 8198 8209 8208 8198 8211 8216 8214 8217 8225 8232 8224 8234 8246 8245 8245 8249 8252 8247 8246 8252 8254 8255 8251 8258 8255 
8312 8302 8296 8303 8313 8313 8292 8286 8284 8283 8304 8332 8323 8316 8301 8286 8288 8326 8343 8319 8283 8264 8263 8263 8243 8229 8218 8214 8222 8223 8218 8217 8212 8210 8211 8211 8212 8216 8216 8215 8214 8213 8208 8209 8207 8214 8213 8211 8215 8203 8199 8194 8201 8204 8204 8203 8205 8208 8205 8207 8221 8213 8212 8219 8225 8222 8222 8242 8247 8247 8251 8259 8260 8248 8251 8254 8254 8253 8248 8256 


