P2
80 60
8262
8231 8230 8230 8230 8230 8233 8230 8231 8232 8229 8230 8229 8229 8229 8228 8227 8229 8227 8228 8231 8233 8231 8234 8237 8239 8241 8240 8233 8233 8230 8233 8232 8235 8238 8244 8242 8246 8246 8246 8247 8247 8242 8243 8242 8240 8241 8239 8242 8240 8237 8240 8235 8236 8231 8233 8232 8231 8231 8235 8235 8235 8237 8240 8238 8239 8244 8244 8247 8249 8248 8245 8248 8251 8256 8255 8255 8258 8251 8252 8249 
8232 8230 8229 8231 8229 8230 8234 8230 8231 8232 8230 8230 8228 8231 8227 8229 8227 8227 8230 8233 8234 8233 8230 8236 8242 8240 8239 8236 8231 8230 8236 8233 8236 8235 8243 8240 8241 8249 8250 8250 8247 8242 8243 8240 8238 8242 8244 8241 8239 8238 8236 8238 8235 8233 8233 8231 8231 8232 8235 8235 8236 8238 8239 8243 8238 8244 8243 8245 8250 8249 8244 8250 8250 8253 8257 8254 8254 8251 8252 8248 
8232 8228 8229 8232 8230 8232 8229 8230 8232 8231 8224 8231 8225 8228 8231 8227 8229 8227 8229 8231 8230 8233 8229 8232 8242 8244 8240 8232 8230 8232 8235 8234 8237 8234 8242 8242 8241 8246 8246 8246 8242 8240 8238 8237 8238 8239 8240 8238 8237 8237 8235 8235 8233 8233 8233 8233 8230 8231 8234 8234 8235 8239 8239 8238 8235 8243 8242 8239 8243 8249 8248 8249 8251 8254 8254 8253 8255 8249 8252 8246 
8232 8224 8230 8229 8229 8230 8234 8227 8231 8230 8228 8227 8225 8227 8225 8228 8225 8225 8225 8228 8232 8228 8227 8232 8240 8241 8240 8233 8231 8229 8234 8234 8233 8234 8242 8240 8241 8243 8242 8244 8242 8238 8238 8235 8233 8235 8239 8238 8237 8235 8234 8234 8231 8228 8234 8233 8231 8232 8232 8236 8233 8237 8239 8236 8236 8241 8241 8241 8242 8247 8245 8248 8251 8253 8256 8252 8251 8248 8250 8249 
8233 8228 8227 8227 8227 8228 8229 8228 8229 8230 8221 8227 8222 8224 8225 8227 8224 8225 8226 8228 8228 8227 8225 8229 8239 8241 8237 8230 8229 8230 8233 8233 8234 8234 8241 8241 8240 8241 8241 8242 8240 8236 8233 8234 8233 8234 8236 8237 8235 8231 8229 8232 8232 8228 8234 8229 8233 8232 8232 8235 8237 8236 8238 8235 8235 8236 8237 8238 8241 8245 8240 8244 8244 8249 8248 8251 8249 8245 8246 8241 
8231 8229 8224 8228 8226 8229 8230 8229 8227 8230 8225 8222 8222 8222 8225 8225 8225 8225 8225 8226 8227 8224 8226 8231 8239 8239 8236 8229 8227 8226 8232 8232 8234 8234 8237 8238 8240 8241 8244 8241 8239 8232 8234 8232 8231 8232 8236 8235 8231 8229 8228 8230 8228 8227 8232 8230 8229 8227 8232 8232 8234 8234 8236 8234 8231 8237 8237 8236 8237 8238 8238 8246 8246 8250 8249 8247 8248 8243 8244 8240 
8227 8223 8224 8226 8227 8232 8227 8228 8229 8225 8219 8223 8221 8222 8221 8221 8223 8221 8227 8225 8228 8226 8223 8230 8237 8236 8233 8227 8227 8226 8230 8229 8233 8230 8239 8239 8237 8239 8240 8241 8239 8235 8234 8233 8231 8230 8234 8233 8229 8226 8231 8229 8227 8225 8225 8227 8229 8226 8227 8232 8230 8231 8234 8233 8229 8236 8231 8235 8233 8237 8237 8240 8243 8247 8246 8243 8242 8242 8239 8239 
8224 8222 8226 8223 8229 8233 8230 8227 8227 8230 8222 8220 8220 8224 8218 8220 8223 8223 8224 8226 8227 8225 8224 8226 8234 8235 8230 8224 8226 8227 8226 8229 8229 8230 8237 8241 8238 8238 8242 8240 8237 8233 8233 8229 8230 8230 8233 8230 8227 8225 8226 8226 8224 8224 8224 8224 8227 8226 8226 8227 8229 8228 8232 8233 8231 8233 8233 8233 8237 8235 8235 8236 8238 8239 8243 8241 8242 8238 8239 8243 
8228 8222 8221 8227 8227 8229 8232 8228 8228 8231 8220 8222 8221 8221 8219 8222 8220 8224 8224 8227 8226 8224 8227 8228 8231 8234 8230 8222 8225 8223 8227 8230 8230 8227 8236 8235 8235 8236 8239 8238 8237 8233 8232 8229 8228 8227 8233 8231 8229 8224 8223 8224 8225 8222 8224 8223 8222 8223 8225 8227 8225 8227 8231 8228 8231 8232 8230 8229 8233 8233 8230 8233 8231 8240 8238 8237 8238 8235 8237 8236 
8224 8223 8221 8225 8225 8230 8228 8225 8225 8228 8223 8221 8220 8221 8218 8219 8222 8221 8226 8226 8226 8226 8224 8224 8228 8231 8230 8223 8224 8222 8228 8226 8227 8227 8233 8234 8235 8238 8239 8235 8235 8231 8230 8228 8229 8228 8229 8229 8225 8224 8223 8224 8222 8223 8222 8222 8224 8225 8226 8227 8226 8225 8229 8227 8227 8229 8230 8230 8230 8232 8225 8227 8230 8233 8232 8232 8232 8232 8233 8234 
8225 8223 8222 8223 8223 8228 8226 8225 8228 8227 8223 8218 8219 8218 8218 8220 8221 8219 8222 8223 8225 8225 8224 8226 8227 8228 8228 8225 8224 8224 8223 8223 8225 8226 8233 8232 8229 8236 8234 8234 8230 8229 8229 8229 8228 8231 8231 8229 8224 8223 8224 8221 8222 8221 8222 8220 8221 8222 8222 8226 8226 8227 8225 8227 8227 8228 8228 8227 8230 8228 8227 8227 8226 8226 8231 8226 8230 8226 8228 8231 
8224 8222 8226 8223 8220 8221 8224 8220 8226 8227 8219 8219 8218 8218 8216 8222 8221 8219 8219 8221 8223 8222 8223 8224 8228 8227 8226 8222 8220 8223 8224 8219 8223 8224 8230 8228 8233 8234 8235 8232 8231 8231 8231 8229 8227 8228 8229 8228 8222 8225 8223 8223 8222 8222 8222 8221 8222 8220 8224 8225 8224 8226 8226 8225 8225 8228 8225 8226 8229 8230 8223 8224 8225 8225 8226 8226 8225 8221 8229 8223 
8224 8222 8223 8222 8223 8224 8226 8220 8225 8223 8219 8220 8217 8219 8218 8223 8222 8219 8219 8222 8223 8222 8222 8223 8226 8227 8226 8220 8221 8220 8223 8220 8222 8222 8227 8228 8232 8229 8233 8228 8229 8229 8231 8225 8224 8225 8228 8225 8224 8225 8225 8222 8223 8219 8223 8219 8220 8221 8222 8226 8223 8224 8224 8227 8225 8229 8227 8226 8225 8226 8221 8225 8222 8223 8223 8226 8226 8220 8225 8222 
8221 8224 8222 8221 8220 8223 8221 8221 8220 8223 8218 8220 8218 8220 8218 8220 8219 8219 8219 8219 8221 8219 8216 8221 8227 8227 8224 8217 8218 8215 8221 8217 8221 8220 8225 8224 8227 8231 8229 8229 8227 8222 8226 8226 8225 8222 8225 8225 8221 8221 8222 8221 8221 8221 8221 8218 8219 8216 8221 8223 8222 8219 8223 8223 8223 8227 8226 8225 8226 8227 8222 8220 8222 8224 8222 8228 8224 8220 8223 8222 
8222 8220 8220 8220 8220 8223 8221 8217 8221 8222 8218 8220 8217 8219 8220 8219 8217 8219 8221 8220 8219 8219 8218 8219 8224 8227 8225 8219 8217 8217 8219 8217 8219 8219 8225 8226 8227 8227 8227 8225 8224 8224 8220 8222 8222 8225 8224 8224 8221 8223 8220 8222 8221 8215 8220 8220 8219 8217 8218 8221 8219 8218 8221 8225 8222 8227 8225 8226 8226 8225 8221 8220 8220 8224 8226 8224 8224 8219 8222 8218 
8223 8221 8223 8222 8222 8222 8220 8221 8220 8219 8222 8216 8220 8219 8221 8217 8220 8219 8222 8218 8219 8216 8219 8219 8227 8229 8224 8218 8218 8217 8217 8215 8218 8221 8225 8227 8227 8229 8224 8224 8223 8222 8223 8221 8222 8221 8221 8222 8220 8220 8220 8219 8219 8217 8220 8215 8218 8215 8218 8222 8219 8221 8219 8221 8224 8227 8225 8224 8224 8222 8221 8223 8219 8220 8224 8226 8224 8220 8221 8217 
8221 8220 8221 8222 8219 8223 8219 8220 8222 8222 8219 8220 8216 8221 8220 8221 8220 8220 8218 8217 8219 8218 8217 8220 8223 8227 8223 8216 8216 8215 8213 8215 8219 8219 8226 8227 8228 8226 8222 8225 8222 8221 8221 8219 8220 8220 8223 8220 8220 8216 8221 8219 8217 8215 8219 8216 8214 8216 8218 8221 8217 8219 8224 8221 8223 8224 8224 8223 8225 8223 8220 8219 8221 8218 8222 8226 8218 8218 8220 8217 
8221 8220 8218 8220 8219 8223 8222 8219 8221 8222 8218 8221 8217 8219 8220 8221 8220 8220 8219 8219 8219 8217 8216 8220 8225 8225 8224 8216 8217 8216 8215 8216 8220 8220 8225 8227 8227 8227 8222 8226 8223 8220 8219 8219 8214 8218 8221 8217 8215 8216 8216 8214 8217 8212 8213 8215 8214 8217 8214 8221 8220 8218 8221 8223 8221 8222 8224 8221 8221 8222 8218 8219 8220 8220 8222 8222 8223 8218 8215 8217 
8220 8218 8216 8219 8220 8223 8221 8222 8222 8223 8223 8224 8217 8220 8218 8221 8219 8216 8217 8219 8220 8218 8214 8220 8227 8227 8225 8216 8213 8215 8214 8215 8220 8220 8227 8226 8226 8223 8223 8224 8223 8216 8217 8211 8195 8204 8210 8207 8207 8210 8214 8215 8218 8214 8213 8213 8214 8213 8212 8222 8218 8220 8221 8222 8222 8225 8222 8221 8221 8221 8217 8218 8218 8221 8222 8223 8221 8216 8218 8213 
8215 8220 8217 8221 8219 8219 8222 8222 8221 8223 8221 8221 8219 8220 8221 8218 8221 8220 8216 8217 8219 8214 8218 8217 8226 8224 8221 8214 8214 8214 8216 8215 8218 8218 8224 8223 8222 8224 8220 8222 8220 8214 8214 8194 8154 8160 8162 8167 8178 8201 8214 8215 8214 8210 8210 8211 8215 8214 8215 8220 8217 8218 8221 8220 8220 8222 8223 8221 8221 8220 8219 8219 8222 8222 8221 8222 8220 8216 8217 8219 
8216 8219 8218 8218 8219 8221 8220 8221 8219 8220 8218 8219 8218 8220 8219 8219 8220 8217 8213 8219 8219 8215 8215 8220 8224 8224 8220 8211 8212 8210 8215 8215 8216 8219 8225 8221 8222 8220 8218 8221 8215 8212 8213 8201 8164 8158 8182 8203 8202 8209 8210 8210 8208 8209 8211 8212 8211 8212 8212 8220 8216 8218 8220 8221 8222 8222 8221 8222 8219 8220 8222 8220 8221 8219 8223 8220 8220 8217 8216 8213 
8219 8217 8218 8220 8219 8219 8215 8218 8216 8220 8220 8219 8217 8220 8217 8218 8216 8213 8214 8215 8215 8216 8216 8218 8225 8222 8218 8210 8214 8213 8215 8214 8213 8213 8220 8221 8220 8220 8219 8217 8213 8206 8190 8175 8159 8161 8186 8172 8173 8181 8195 8206 8211 8205 8210 8211 8211 8213 8213 8217 8215 8216 8220 8222 8216 8224 8223 8222 8219 8221 8218 8219 8222 8221 8221 8220 8217 8213 8213 8215 
8220 8220 8217 8221 8217 8217 8215 8212 8214 8217 8221 8218 8215 8219 8217 8217 8217 8212 8211 8218 8218 8216 8218 8217 8224 8222 8218 8210 8211 8210 8214 8211 8214 8213 8221 8221 8217 8217 8216 8219 8205 8169 8150 8147 8138 8140 8142 8143 8136 8142 8155 8182 8189 8204 8212 8210 8210 8214 8213 8219 8215 8217 8219 8220 8221 8222 8221 8221 8218 8219 8217 8219 8219 8220 8219 8219 8217 8215 8215 8210 
8221 8216 8217 8218 8216 8217 8218 8214 8215 8220 8217 8218 8217 8219 8215 8217 8216 8215 8212 8216 8216 8217 8216 8218 8221 8222 8217 8211 8211 8210 8210 8212 8213 8214 8217 8218 8220 8214 8205 8201 8177 8166 8180 8154 8143 8137 8133 8134 8131 8160 8156 8180 8203 8207 8212 8210 8212 8212 8217 8218 8219 8216 8221 8221 8220 8223 8224 8221 8220 8219 8217 8220 8217 8218 8222 8221 8218 8213 8216 8211 
8220 8218 8215 8218 8217 8218 8215 8213 8215 8218 8218 8221 8217 8217 8216 8218 8214 8215 8215 8215 8216 8219 8215 8215 8222 8222 8217 8212 8211 8207 8214 8209 8212 8212 8215 8217 8212 8203 8163 8156 8156 8153 8162 8171 8153 8138 8136 8133 8133 8176 8201 8186 8201 8207 8210 8211 8214 8216 8216 8219 8216 8217 8223 8222 8221 8226 8222 8220 8221 8221 8216 8216 8220 8218 8222 8223 8218 8216 8216 8213 
8218 8217 8215 8217 8217 8216 8214 8213 8211 8218 8216 8216 8217 8217 8217 8215 8217 8213 8212 8214 8214 8216 8214 8214 8218 8216 8214 8207 8209 8206 8211 8209 8207 8202 8202 8189 8170 8152 8145 8148 8145 8149 8151 8148 8143 8140 8139 8138 8137 8172 8208 8207 8210 8209 8211 8210 8214 8216 8212 8217 8217 8221 8220 8220 8220 8224 8223 8220 8220 8221 8215 8216 8216 8217 8221 8221 8223 8215 8219 8209 
8217 8218 8216 8219 8217 8217 8215 8214 8217 8216 8216 8219 8216 8215 8218 8218 8215 8214 8214 8211 8213 8213 8213 8212 8213 8206 8199 8201 8207 8208 8209 8206 8200 8193 8197 8179 8157 8145 8144 8145 8143 8157 8154 8148 8152 8150 8140 8135 8154 8181 8204 8210 8212 8212 8210 8211 8213 8213 8216 8218 8215 8218 8219 8220 8219 8224 8222 8220 8220 8219 8214 8215 8213 8219 8219 8221 8219 8215 8213 8216 
8216 8216 8215 8216 8217 8216 8216 8213 8215 8216 8215 8216 8215 8217 8213 8216 8217 8217 8212 8211 8210 8212 8211 8212 8186 8175 8170 8199 8209 8208 8207 8209 8211 8205 8201 8168 8146 8142 8140 8144 8148 8195 8157 8159 8193 8185 8154 8142 8190 8206 8207 8212 8208 8208 8212 8211 8216 8215 8217 8218 8216 8217 8219 8219 8221 8222 8221 8218 8217 8216 8214 8217 8214 8218 8220 8221 8222 8216 8217 8213 
8219 8215 8214 8216 8216 8218 8217 8216 8213 8212 8215 8216 8213 8218 8215 8215 8216 8214 8212 8213 8213 8210 8208 8208 8183 8175 8171 8198 8208 8208 8210 8207 8210 8206 8202 8164 8143 8138 8142 8152 8164 8193 8168 8163 8203 8201 8187 8171 8203 8208 8207 8210 8208 8212 8216 8212 8215 8216 8214 8219 8215 8219 8221 8221 8219 8221 8219 8216 8217 8216 8215 8216 8218 8217 8220 8221 8218 8217 8217 8216 
8220 8217 8219 8218 8218 8220 8217 8214 8213 8221 8214 8217 8215 8215 8217 8221 8217 8217 8215 8211 8210 8211 8210 8209 8183 8175 8175 8199 8209 8207 8208 8209 8209 8206 8195 8145 8142 8142 8152 8182 8199 8200 8178 8173 8206 8205 8210 8207 8206 8210 8208 8211 8210 8214 8214 8215 8217 8216 8215 8218 8214 8217 8221 8220 8219 8219 8218 8219 8216 8216 8216 8215 8218 8220 8219 8224 8218 8219 8217 8217 
8216 8217 8219 8218 8218 8216 8216 8213 8215 8216 8214 8216 8215 8215 8215 8216 8216 8215 8214 8212 8214 8210 8209 8210 8180 8168 8171 8201 8207 8207 8206 8207 8208 8205 8178 8142 8141 8152 8180 8189 8199 8186 8173 8181 8202 8206 8215 8212 8208 8209 8212 8210 8215 8213 8214 8213 8216 8210 8213 8217 8213 8218 8219 8219 8219 8221 8218 8216 8218 8218 8212 8217 8216 8219 8220 8221 8219 8216 8217 8210 
8217 8214 8218 8218 8215 8216 8215 8213 8215 8215 8213 8213 8213 8214 8211 8214 8211 8214 8210 8210 8210 8209 8212 8211 8179 8173 8173 8200 8207 8206 8208 8206 8207 8204 8160 8145 8144 8164 8163 8162 8153 8145 8156 8188 8205 8209 8213 8212 8211 8209 8211 8213 8211 8208 8211 8210 8211 8212 8215 8213 8216 8216 8216 8215 8217 8221 8218 8215 8212 8217 8212 8212 8217 8218 8217 8220 8218 8216 8215 8213 
8217 8216 8219 8220 8216 8217 8216 8213 8215 8216 8209 8215 8208 8214 8213 8215 8212 8209 8211 8211 8211 8210 8209 8210 8179 8173 8173 8201 8207 8207 8209 8202 8204 8191 8168 8151 8160 8154 8144 8142 8147 8173 8159 8189 8204 8208 8212 8210 8211 8207 8209 8209 8208 8208 8212 8210 8208 8210 8211 8214 8209 8211 8214 8214 8214 8217 8217 8213 8215 8213 8210 8214 8216 8218 8220 8220 8220 8213 8217 8215 
8218 8217 8216 8217 8216 8221 8213 8211 8214 8218 8212 8212 8209 8212 8211 8213 8213 8211 8210 8211 8212 8212 8210 8205 8178 8173 8173 8200 8208 8205 8204 8203 8184 8153 8157 8148 8152 8141 8141 8139 8143 8167 8164 8195 8202 8208 8210 8211 8208 8204 8209 8210 8209 8207 8209 8207 8207 8210 8209 8211 8208 8212 8212 8213 8211 8213 8213 8210 8213 8215 8210 8214 8213 8216 8214 8217 8217 8213 8216 8208 
8223 8218 8219 8222 8218 8216 8214 8212 8216 8217 8211 8216 8213 8214 8212 8213 8209 8213 8214 8215 8218 8211 8209 8206 8180 8178 8173 8201 8205 8207 8204 8200 8187 8191 8152 8136 8139 8159 8170 8144 8146 8180 8168 8203 8204 8205 8209 8210 8208 8207 8209 8211 8212 8208 8208 8210 8210 8210 8207 8212 8208 8211 8213 8213 8212 8213 8210 8213 8212 8214 8214 8213 8213 8214 8216 8217 8218 8213 8214 8210 
8223 8218 8218 8220 8218 8216 8215 8216 8217 8219 8214 8215 8213 8217 8217 8216 8213 8213 8215 8214 8218 8213 8206 8204 8178 8173 8176 8203 8202 8202 8201 8197 8196 8171 8141 8141 8141 8145 8181 8175 8162 8184 8176 8201 8201 8204 8208 8207 8206 8206 8211 8209 8209 8209 8207 8210 8211 8209 8209 8210 8207 8210 8213 8214 8208 8214 8214 8209 8211 8215 8208 8210 8213 8213 8215 8217 8215 8209 8215 8210 
8227 8218 8220 8221 8217 8217 8217 8216 8218 8215 8215 8215 8216 8215 8212 8216 8213 8215 8215 8215 8213 8213 8209 8198 8174 8172 8180 8202 8202 8195 8189 8174 8164 8158 8142 8140 8148 8152 8162 8171 8183 8181 8176 8204 8201 8190 8181 8194 8197 8200 8203 8207 8208 8207 8207 8208 8208 8205 8210 8212 8208 8212 8208 8209 8208 8213 8206 8211 8211 8211 8207 8211 8211 8213 8217 8215 8212 8212 8212 8207 
8220 8219 8223 8220 8218 8220 8217 8216 8215 8216 8213 8213 8215 8214 8212 8216 8213 8212 8212 8214 8214 8209 8209 8198 8174 8179 8181 8201 8206 8201 8193 8168 8155 8139 8137 8139 8165 8158 8145 8151 8178 8178 8179 8202 8201 8189 8159 8155 8157 8169 8182 8196 8203 8206 8207 8208 8205 8210 8207 8210 8206 8209 8211 8210 8209 8210 8208 8209 8209 8209 8207 8210 8211 8214 8211 8212 8215 8208 8214 8210 
8226 8221 8220 8220 8223 8220 8217 8216 8218 8218 8215 8215 8217 8212 8215 8215 8212 8210 8213 8215 8216 8210 8208 8195 8176 8180 8183 8202 8205 8201 8186 8181 8173 8149 8137 8136 8141 8166 8139 8147 8181 8178 8180 8193 8179 8177 8169 8150 8153 8152 8154 8157 8164 8187 8207 8206 8206 8209 8210 8212 8207 8208 8210 8210 8208 8208 8210 8208 8212 8211 8206 8209 8212 8211 8212 8216 8211 8209 8210 8208 
8223 8223 8219 8221 8218 8219 8219 8216 8218 8218 8214 8219 8214 8215 8212 8214 8213 8209 8212 8214 8215 8211 8206 8199 8176 8177 8183 8203 8203 8202 8197 8189 8156 8138 8163 8144 8140 8139 8134 8139 8138 8156 8171 8187 8199 8197 8189 8166 8190 8180 8154 8153 8155 8159 8187 8206 8208 8207 8209 8210 8207 8209 8212 8211 8206 8212 8211 8208 8207 8211 8206 8204 8209 8210 8211 8213 8212 8208 8210 8210 
8223 8220 8222 8217 8218 8218 8219 8218 8221 8219 8216 8219 8212 8214 8213 8214 8210 8209 8212 8215 8211 8212 8208 8198 8171 8171 8182 8199 8202 8199 8196 8194 8178 8159 8143 8137 8138 8135 8132 8150 8132 8143 8171 8198 8202 8200 8202 8201 8202 8199 8181 8181 8159 8161 8173 8189 8203 8204 8207 8209 8207 8208 8210 8210 8208 8214 8211 8208 8207 8209 8206 8206 8208 8215 8215 8212 8213 8206 8211 8210 
8223 8218 8222 8217 8216 8218 8218 8216 8217 8219 8215 8216 8214 8214 8212 8214 8213 8210 8212 8212 8213 8209 8208 8194 8170 8167 8183 8199 8201 8194 8197 8197 8197 8189 8167 8140 8146 8164 8144 8145 8132 8140 8169 8202 8201 8200 8207 8205 8205 8203 8202 8201 8179 8173 8198 8190 8189 8205 8206 8210 8210 8209 8211 8211 8208 8213 8212 8208 8206 8208 8207 8207 8208 8211 8213 8213 8208 8209 8210 8208 
8220 8216 8216 8218 8217 8222 8217 8215 8217 8220 8211 8213 8217 8216 8214 8216 8213 8209 8210 8211 8212 8208 8206 8196 8170 8169 8183 8199 8196 8193 8195 8193 8192 8186 8180 8145 8155 8169 8167 8158 8135 8143 8188 8193 8197 8204 8206 8204 8203 8203 8203 8206 8202 8200 8207 8208 8192 8203 8210 8211 8212 8212 8213 8213 8212 8210 8213 8210 8206 8206 8207 8208 8209 8211 8212 8212 8214 8207 8215 8207 
8223 8223 8218 8218 8218 8219 8217 8216 8214 8218 8215 8217 8215 8219 8216 8217 8216 8213 8210 8212 8212 8207 8207 8192 8174 8172 8183 8187 8171 8167 8160 8173 8150 8140 8166 8165 8153 8143 8144 8145 8138 8142 8161 8158 8179 8200 8205 8204 8203 8205 8207 8204 8206 8204 8207 8210 8208 8201 8210 8208 8210 8211 8213 8215 8212 8211 8212 8210 8209 8208 8209 8209 8210 8210 8214 8213 8215 8207 8212 8208 
8219 8221 8218 8218 8218 8220 8217 8215 8218 8216 8215 8218 8217 8218 8216 8217 8215 8211 8209 8211 8211 8210 8208 8189 8171 8169 8170 8156 8152 8150 8157 8165 8142 8136 8166 8168 8149 8149 8140 8145 8140 8139 8146 8160 8154 8174 8205 8206 8204 8205 8205 8203 8204 8206 8208 8205 8208 8200 8210 8210 8209 8212 8213 8214 8214 8213 8210 8210 8209 8209 8206 8206 8209 8211 8214 8213 8215 8212 8211 8210 
8223 8222 8220 8222 8219 8219 8219 8215 8215 8219 8217 8218 8216 8218 8216 8216 8215 8213 8210 8207 8200 8191 8185 8178 8172 8170 8159 8152 8171 8180 8186 8183 8151 8138 8162 8156 8142 8144 8144 8143 8143 8143 8147 8153 8160 8169 8198 8202 8199 8197 8202 8204 8206 8206 8209 8208 8209 8208 8208 8212 8208 8211 8212 8213 8212 8212 8212 8208 8208 8208 8206 8207 8209 8212 8213 8213 8214 8210 8217 8211 
8223 8224 8222 8222 8218 8222 8219 8213 8216 8220 8218 8218 8215 8216 8217 8220 8218 8212 8208 8192 8185 8180 8180 8176 8175 8170 8155 8170 8192 8193 8194 8197 8176 8141 8145 8147 8145 8156 8149 8147 8142 8143 8149 8155 8163 8166 8180 8194 8192 8192 8194 8202 8205 8208 8208 8209 8208 8208 8209 8213 8208 8210 8211 8210 8208 8212 8205 8209 8209 8209 8209 8211 8211 8209 8214 8216 8216 8212 8212 8214 
8224 8224 8224 8225 8221 8222 8218 8222 8220 8220 8219 8221 8219 8219 8214 8220 8216 8214 8211 8200 8189 8186 8183 8183 8179 8174 8161 8182 8192 8194 8196 8199 8202 8172 8149 8157 8175 8167 8156 8146 8145 8143 8147 8152 8156 8161 8173 8191 8191 8192 8189 8188 8192 8207 8210 8210 8207 8209 8207 8209 8207 8208 8210 8210 8209 8210 8211 8208 8208 8211 8208 8212 8210 8214 8214 8216 8215 8213 8214 8207 
8227 8224 8224 8225 8224 8223 8220 8221 8217 8221 8218 8220 8219 8217 8219 8221 8216 8213 8211 8201 8193 8188 8191 8189 8181 8172 8173 8181 8193 8188 8178 8192 8197 8190 8187 8184 8186 8169 8149 8147 8147 8144 8149 8155 8160 8163 8172 8178 8183 8185 8188 8187 8197 8218 8209 8207 8210 8212 8208 8210 8205 8207 8210 8208 8208 8210 8208 8208 8209 8209 8209 8210 8214 8213 8217 8216 8214 8213 8212 8204 
8225 8221 8223 8223 8223 8222 8221 8220 8220 8222 8218 8221 8220 8223 8219 8215 8218 8216 8213 8207 8196 8192 8189 8193 8197 8194 8192 8187 8188 8184 8186 8192 8196 8194 8195 8194 8183 8169 8162 8156 8151 8154 8163 8164 8170 8169 8174 8173 8177 8183 8186 8196 8208 8212 8210 8209 8211 8210 8205 8210 8203 8209 8208 8207 8206 8209 8211 8210 8209 8208 8209 8210 8211 8214 8217 8220 8216 8210 8215 8212 
8225 8223 8221 8225 8220 8220 8221 8218 8220 8221 8219 8220 8217 8219 8218 8218 8218 8214 8214 8210 8203 8198 8195 8198 8204 8203 8200 8191 8191 8188 8192 8190 8191 8192 8194 8189 8186 8179 8179 8173 8170 8172 8179 8182 8189 8192 8194 8192 8190 8190 8193 8198 8207 8207 8208 8206 8209 8208 8208 8209 8205 8206 8209 8204 8205 8209 8210 8204 8213 8212 8209 8213 8212 8213 8214 8217 8214 8213 8215 8211 
8225 8222 8224 8225 8223 8220 8222 8220 8215 8222 8215 8217 8217 8219 8216 8220 8219 8215 8213 8211 8213 8207 8204 8207 8208 8209 8205 8194 8193 8191 8194 8192 8193 8191 8194 8194 8193 8190 8189 8193 8190 8193 8197 8196 8196 8193 8196 8198 8196 8195 8202 8204 8208 8207 8206 8209 8207 8206 8206 8208 8206 8206 8207 8206 8206 8207 8211 8206 8208 8210 8208 8209 8211 8212 8213 8215 8212 8212 8215 8212 
8227 8225 8222 8223 8223 8220 8221 8217 8218 8217 8216 8218 8218 8219 8219 8217 8216 8214 8214 8211 8214 8213 8214 8215 8219 8217 8212 8199 8194 8194 8196 8198 8196 8193 8200 8198 8196 8195 8198 8196 8196 8193 8197 8199 8195 8196 8202 8203 8202 8203 8210 8218 8211 8204 8205 8208 8206 8205 8206 8209 8207 8206 8209 8206 8207 8210 8209 8208 8210 8212 8209 8212 8212 8210 8213 8217 8215 8212 8218 8216 
8227 8226 8226 8224 8223 8218 8217 8218 8218 8215 8214 8216 8215 8217 8217 8219 8218 8211 8213 8214 8216 8215 8213 8221 8227 8221 8222 8205 8197 8194 8201 8203 8202 8199 8206 8205 8202 8199 8199 8197 8199 8197 8201 8200 8199 8197 8203 8205 8209 8214 8226 8213 8207 8203 8204 8204 8205 8205 8205 8209 8204 8206 8206 8207 8204 8207 8208 8209 8208 8210 8207 8208 8207 8206 8210 8209 8209 8210 8214 8213 
8227 8227 8222 8224 8221 8221 8215 8215 8217 8216 8215 8217 8217 8218 8214 8214 8214 8210 8212 8214 8214 8218 8213 8216 8225 8224 8224 8213 8205 8201 8206 8205 8207 8207 8211 8205 8205 8199 8199 8199 8200 8202 8204 8205 8201 8204 8213 8211 8231 8242 8232 8207 8205 8205 8203 8205 8202 8203 8204 8203 8201 8204 8206 8204 8205 8208 8207 8208 8208 8210 8207 8207 8204 8208 8209 8206 8207 8208 8212 8207 
8235 8232 8227 8225 8221 8220 8216 8214 8213 8215 8211 8214 8213 8216 8214 8215 8211 8209 8212 8209 8214 8214 8217 8217 8220 8220 8218 8214 8218 8212 8212 8213 8211 8212 8214 8212 8210 8213 8211 8214 8213 8212 8215 8216 8212 8214 8216 8220 8233 8226 8213 8206 8204 8204 8203 8200 8200 8200 8200 8200 8200 8204 8204 8203 8202 8206 8208 8206 8208 8212 8203 8201 8204 8204 8207 8211 8204 8207 8213 8211 
8239 8234 8231 8227 8219 8221 8216 8215 8216 8215 8213 8215 8212 8214 8211 8212 8211 8212 8209 8212 8213 8215 8217 8224 8227 8224 8224 8219 8220 8218 8214 8213 8214 8214 8221 8219 8218 8217 8222 8223 8220 8219 8223 8219 8217 8216 8218 8217 8221 8209 8202 8201 8202 8201 8202 8200 8197 8199 8198 8199 8197 8201 8203 8201 8202 8208 8209 8207 8208 8205 8201 8201 8203 8201 8205 8207 8209 8206 8215 8213 
8244 8235 8227 8222 8221 8217 8217 8215 8217 8214 8212 8210 8209 8209 8209 8209 8208 8210 8206 8209 8210 8208 8214 8221 8228 8226 8225 8218 8223 8218 8219 8214 8213 8214 8219 8219 8220 8220 8220 8224 8222 8222 8218 8218 8215 8216 8215 8215 8212 8204 8198 8198 8200 8196 8195 8193 8194 8196 8194 8199 8193 8196 8199 8201 8202 8206 8204 8204 8208 8208 8202 8202 8202 8201 8204 8209 8210 8210 8211 8207 
8251 8234 8228 8223 8223 8218 8216 8211 8211 8212 8209 8215 8208 8209 8206 8206 8206 8206 8206 8204 8206 8205 8212 8216 8224 8228 8226 8217 8221 8220 8222 8213 8212 8213 8221 8217 8218 8218 8218 8220 8218 8218 8221 8218 8214 8217 8217 8214 8215 8199 8195 8195 8197 8193 8191 8194 8194 8194 8194 8197 8192 8197 8200 8201 8203 8205 8204 8207 8207 8205 8205 8204 8205 8204 8204 8207 8206 8211 8212 8211 
8262 8238 8233 8226 8222 8217 8216 8212 8215 8211 8210 8213 8210 8208 8206 8204 8202 8201 8202 8204 8204 8205 8209 8214 8224 8227 8221 8218 8219 8219 8218 8215 8214 8215 8217 8219 8216 8217 8219 8219 8217 8217 8219 8216 8214 8211 8218 8213 8212 8191 8196 8198 8200 8194 8197 8196 8200 8199 8197 8200 8199 8203 8209 8204 8206 8209 8209 8209 8211 8210 8210 8207 8209 8209 8208 8208 8215 8213 8215 8211 


