P2
80 60
8260
8202 8205 8203 8207 8205 8210 8213 8208 8207 8211 8205 8206 8209 8209 8210 8209 8207 8208 8210 8212 8213 8214 8213 8214 8214 8213 8218 8216 8220 8219 8221 8221 8223 8224 8226 8223 8230 8227 8229 8230 8224 8224 8224 8223 8221 8221 8223 8217 8217 8219 8215 8219 8214 8216 8214 8214 8213 8216 8215 8215 8214 8217 8218 8217 8217 8221 8227 8221 8223 8224 8226 8227 8228 8228 8225 8222 8225 8225 8224 8222 
8205 8205 8204 8206 8207 8205 8207 8208 8208 8207 8207 8204 8207 8208 8205 8207 8207 8211 8210 8212 8214 8216 8211 8214 8213 8215 8218 8215 8218 8217 8221 8225 8224 8223 8224 8222 8228 8227 8230 8230 8223 8227 8224 8223 8222 8222 8219 8220 8215 8217 8218 8218 8217 8217 8218 8217 8216 8216 8214 8215 8215 8218 8217 8218 8217 8219 8221 8224 8222 8227 8225 8225 8227 8226 8230 8225 8225 8221 8223 8222 
8206 8203 8202 8207 8204 8203 8205 8209 8211 8210 8206 8205 8208 8207 8208 8208 8207 8211 8211 8212 8212 8213 8212 8213 8215 8216 8217 8216 8221 8220 8221 8224 8224 8225 8223 8224 8226 8225 8229 8230 8224 8225 8222 8220 8220 8220 8219 8218 8218 8218 8221 8223 8216 8218 8217 8214 8213 8214 8216 8216 8217 8221 8221 8218 8215 8217 8219 8220 8224 8226 8225 8228 8224 8229 8227 8224 8221 8220 8221 8219 
8204 8201 8206 8206 8206 8206 8208 8207 8212 8208 8210 8205 8208 8207 8204 8205 8206 8209 8208 8211 8210 8211 8213 8218 8214 8215 8217 8214 8217 8219 8221 8222 8226 8225 8225 8222 8226 8225 8230 8228 8223 8223 8222 8219 8222 8219 8219 8217 8216 8216 8219 8215 8217 8216 8217 8214 8217 8216 8217 8216 8216 8216 8220 8220 8216 8215 8220 8221 8220 8223 8223 8226 8226 8227 8225 8222 8221 8219 8218 8216 
8207 8207 8203 8206 8204 8203 8206 8209 8206 8210 8205 8203 8206 8206 8203 8204 8204 8208 8208 8212 8213 8209 8212 8209 8211 8211 8216 8213 8218 8219 8218 8222 8221 8223 8220 8221 8226 8223 8227 8225 8221 8220 8220 8220 8219 8216 8218 8214 8218 8216 8217 8218 8216 8219 8215 8212 8215 8216 8217 8215 8216 8218 8217 8217 8217 8213 8218 8218 8220 8221 8220 8227 8225 8228 8222 8218 8216 8217 8216 8218 
8210 8207 8204 8207 8203 8203 8209 8206 8208 8204 8207 8202 8205 8204 8202 8203 8207 8208 8210 8208 8210 8211 8212 8210 8212 8210 8212 8212 8217 8220 8217 8221 8221 8220 8222 8222 8224 8222 8226 8223 8221 8221 8218 8218 8219 8217 8217 8214 8213 8213 8216 8215 8215 8218 8214 8210 8214 8217 8213 8215 8216 8215 8215 8215 8214 8212 8217 8217 8217 8220 8220 8224 8223 8224 8223 8217 8220 8218 8219 8214 
8208 8204 8201 8203 8206 8203 8208 8208 8205 8204 8202 8202 8203 8202 8203 8206 8207 8207 8210 8211 8210 8209 8211 8209 8209 8208 8212 8211 8213 8215 8217 8222 8221 8220 8222 8222 8224 8221 8228 8225 8221 8222 8219 8217 8218 8215 8215 8211 8213 8213 8216 8214 8213 8214 8213 8211 8211 8214 8213 8212 8215 8214 8212 8217 8212 8212 8216 8216 8215 8218 8216 8220 8221 8220 8221 8216 8218 8218 8219 8209 
8207 8206 8201 8200 8206 8202 8207 8206 8207 8204 8201 8201 8202 8203 8203 8204 8206 8211 8210 8212 8212 8211 8209 8210 8209 8209 8212 8209 8216 8214 8217 8220 8222 8220 8218 8220 8224 8219 8223 8224 8220 8218 8217 8218 8217 8216 8216 8212 8211 8210 8215 8213 8211 8213 8207 8211 8212 8213 8212 8215 8213 8216 8212 8213 8209 8209 8212 8216 8212 8216 8215 8214 8217 8220 8216 8215 8215 8212 8209 8207 
8198 8198 8199 8205 8204 8203 8208 8208 8207 8206 8202 8199 8205 8203 8202 8204 8201 8210 8214 8211 8207 8215 8207 8209 8208 8206 8213 8210 8210 8215 8215 8221 8222 8218 8216 8217 8220 8217 8222 8223 8217 8218 8218 8216 8215 8213 8213 8209 8209 8209 8210 8212 8209 8214 8213 8208 8207 8211 8211 8212 8212 8213 8209 8209 8208 8209 8212 8212 8212 8211 8211 8213 8211 8214 8213 8210 8210 8211 8212 8205 
8197 8194 8194 8203 8203 8205 8209 8209 8207 8205 8202 8199 8201 8203 8199 8206 8206 8206 8204 8208 8206 8208 8210 8206 8207 8205 8209 8206 8208 8213 8213 8217 8218 8216 8217 8216 8218 8219 8221 8219 8217 8217 8216 8214 8214 8214 8210 8210 8205 8206 8211 8213 8210 8211 8211 8207 8210 8209 8208 8210 8209 8210 8208 8209 8209 8209 8210 8210 8210 8211 8210 8212 8207 8208 8209 8207 8206 8207 8210 8202 
8199 8199 8195 8203 8205 8205 8209 8206 8207 8207 8201 8199 8203 8202 8201 8203 8205 8205 8210 8209 8206 8209 8207 8212 8206 8210 8210 8210 8211 8212 8212 8216 8214 8214 8214 8214 8217 8216 8220 8217 8213 8215 8216 8214 8213 8211 8212 8210 8207 8209 8212 8209 8209 8211 8209 8205 8207 8211 8208 8208 8208 8211 8209 8210 8208 8208 8210 8211 8212 8209 8209 8213 8208 8211 8208 8204 8205 8204 8206 8198 
8200 8204 8199 8199 8205 8204 8207 8204 8204 8204 8203 8202 8205 8203 8205 8203 8200 8207 8206 8206 8207 8210 8210 8206 8204 8208 8209 8208 8213 8210 8213 8213 8215 8215 8212 8210 8218 8214 8219 8216 8211 8216 8212 8212 8216 8212 8212 8206 8206 8207 8212 8211 8209 8211 8210 8206 8203 8209 8207 8209 8210 8210 8208 8208 8208 8207 8212 8212 8208 8207 8207 8208 8208 8209 8204 8202 8202 8200 8201 8198 
8200 8198 8201 8202 8203 8202 8206 8202 8204 8203 8202 8200 8202 8206 8201 8204 8203 8206 8206 8206 8206 8209 8207 8204 8203 8204 8207 8204 8208 8212 8213 8214 8213 8211 8208 8213 8217 8215 8215 8216 8211 8216 8211 8211 8212 8209 8207 8208 8205 8209 8210 8210 8209 8208 8209 8207 8206 8208 8207 8207 8205 8208 8208 8205 8209 8207 8209 8211 8209 8207 8204 8207 8207 8204 8203 8202 8201 8197 8198 8194 
8201 8201 8197 8200 8201 8201 8205 8200 8201 8202 8201 8201 8201 8203 8202 8203 8202 8203 8206 8207 8204 8208 8205 8208 8203 8202 8205 8204 8208 8210 8209 8211 8212 8209 8210 8212 8213 8212 8217 8213 8208 8212 8211 8208 8212 8211 8205 8208 8207 8207 8209 8211 8208 8208 8208 8205 8206 8206 8208 8205 8205 8206 8206 8207 8203 8203 8209 8209 8209 8207 8204 8207 8203 8204 8204 8198 8201 8203 8200 8197 
8204 8204 8198 8200 8200 8200 8201 8203 8203 8203 8199 8201 8202 8203 8202 8204 8202 8204 8204 8206 8203 8206 8203 8204 8204 8201 8203 8202 8206 8208 8209 8213 8210 8209 8210 8208 8214 8213 8215 8212 8208 8209 8209 8210 8211 8208 8209 8206 8207 8206 8211 8210 8206 8210 8206 8204 8206 8205 8203 8203 8205 8204 8205 8206 8206 8206 8206 8206 8204 8206 8205 8206 8204 8202 8200 8196 8196 8200 8197 8191 
8204 8202 8199 8200 8199 8200 8200 8198 8202 8202 8199 8201 8204 8202 8204 8202 8206 8206 8205 8204 8205 8204 8204 8203 8202 8202 8203 8202 8207 8208 8208 8210 8212 8211 8209 8207 8213 8212 8212 8210 8206 8206 8209 8210 8210 8206 8204 8204 8203 8207 8208 8208 8204 8206 8206 8203 8205 8204 8203 8206 8205 8205 8206 8207 8206 8204 8205 8207 8206 8204 8204 8206 8205 8202 8204 8198 8199 8198 8198 8195 
8202 8198 8200 8201 8200 8199 8200 8199 8199 8202 8201 8201 8203 8201 8200 8198 8202 8203 8202 8205 8208 8203 8202 8201 8200 8203 8206 8204 8206 8204 8205 8211 8212 8212 8211 8209 8211 8211 8210 8211 8205 8207 8207 8206 8209 8206 8204 8203 8204 8203 8207 8207 8202 8207 8205 8203 8204 8206 8202 8204 8208 8203 8206 8207 8206 8204 8203 8203 8202 8202 8203 8205 8203 8199 8199 8200 8194 8195 8196 8189 
8198 8201 8196 8198 8198 8200 8198 8198 8200 8203 8201 8202 8201 8202 8201 8203 8202 8201 8200 8204 8205 8203 8203 8202 8202 8201 8206 8200 8206 8208 8208 8209 8211 8213 8210 8206 8210 8207 8211 8206 8203 8208 8206 8203 8210 8204 8203 8202 8204 8205 8208 8206 8203 8204 8204 8200 8201 8204 8201 8204 8203 8205 8206 8202 8207 8204 8207 8204 8203 8202 8200 8205 8203 8201 8200 8197 8195 8197 8193 8189 
8199 8196 8196 8197 8198 8198 8202 8205 8204 8202 8202 8198 8201 8199 8199 8202 8201 8202 8202 8200 8204 8202 8200 8205 8201 8202 8203 8203 8206 8206 8209 8210 8210 8213 8214 8207 8210 8206 8209 8208 8200 8203 8205 8208 8204 8204 8204 8201 8202 8203 8205 8207 8201 8203 8204 8203 8202 8201 8202 8202 8205 8206 8207 8207 8202 8204 8206 8203 8205 8200 8200 8201 8202 8201 8202 8198 8195 8196 8195 8185 
8196 8198 8194 8199 8197 8197 8202 8200 8203 8202 8203 8202 8199 8200 8200 8201 8200 8204 8202 8200 8200 8202 8204 8204 8202 8201 8203 8200 8203 8203 8205 8206 8209 8207 8208 8204 8208 8205 8207 8207 8198 8203 8203 8203 8203 8199 8202 8197 8200 8200 8203 8204 8202 8202 8202 8201 8202 8204 8203 8202 8205 8205 8204 8205 8203 8202 8202 8199 8202 8201 8196 8202 8201 8203 8199 8197 8196 8192 8194 8192 
8198 8199 8195 8198 8198 8198 8201 8203 8204 8202 8201 8199 8202 8201 8199 8200 8204 8201 8201 8202 8201 8205 8203 8204 8200 8198 8200 8199 8200 8202 8200 8206 8208 8206 8205 8202 8207 8205 8206 8206 8199 8204 8204 8198 8203 8199 8199 8198 8200 8200 8202 8203 8203 8204 8202 8203 8204 8204 8203 8205 8202 8203 8202 8203 8201 8201 8202 8204 8203 8201 8200 8201 8202 8205 8198 8196 8195 8192 8194 8187 
8198 8199 8198 8199 8200 8198 8199 8200 8203 8201 8202 8199 8200 8200 8200 8199 8203 8198 8202 8203 8198 8202 8202 8202 8201 8200 8202 8199 8202 8200 8202 8206 8207 8204 8206 8200 8202 8193 8198 8202 8195 8201 8199 8197 8199 8198 8197 8197 8200 8200 8203 8205 8200 8202 8203 8201 8204 8202 8204 8203 8204 8206 8203 8204 8203 8202 8203 8203 8203 8201 8200 8200 8202 8203 8199 8194 8196 8194 8194 8194 
8194 8200 8198 8197 8198 8199 8200 8198 8199 8199 8199 8199 8200 8199 8197 8200 8204 8199 8201 8201 8201 8199 8203 8204 8197 8199 8203 8198 8199 8202 8203 8205 8206 8193 8185 8180 8167 8154 8158 8173 8192 8189 8186 8187 8189 8183 8172 8185 8192 8195 8200 8202 8202 8203 8204 8204 8204 8204 8203 8207 8203 8207 8203 8204 8201 8201 8203 8203 8202 8202 8200 8201 8200 8199 8198 8193 8194 8196 8193 8189 
8197 8199 8198 8199 8199 8196 8199 8199 8198 8199 8200 8198 8200 8200 8197 8198 8198 8198 8199 8199 8199 8202 8203 8200 8198 8198 8198 8197 8198 8201 8199 8195 8181 8184 8183 8174 8174 8161 8163 8163 8179 8161 8152 8144 8146 8137 8136 8168 8176 8180 8198 8204 8201 8204 8203 8203 8206 8204 8206 8204 8205 8204 8202 8204 8204 8201 8203 8203 8201 8198 8199 8203 8201 8199 8200 8195 8196 8197 8194 8194 
8199 8199 8200 8200 8202 8196 8198 8199 8199 8200 8199 8199 8200 8200 8199 8198 8198 8200 8198 8199 8197 8200 8200 8200 8198 8197 8197 8197 8198 8197 8199 8200 8199 8203 8200 8197 8197 8168 8144 8147 8151 8152 8157 8169 8180 8175 8158 8137 8163 8176 8198 8200 8200 8203 8203 8203 8206 8207 8206 8203 8203 8206 8203 8204 8201 8202 8201 8203 8200 8198 8201 8201 8203 8202 8201 8198 8193 8195 8199 8189 
8198 8200 8198 8200 8197 8197 8199 8201 8199 8198 8201 8197 8201 8200 8200 8198 8201 8198 8201 8199 8197 8201 8198 8198 8197 8192 8199 8194 8196 8195 8195 8201 8199 8200 8197 8185 8157 8145 8158 8144 8158 8155 8175 8194 8196 8195 8194 8170 8136 8133 8168 8197 8199 8204 8204 8204 8205 8206 8206 8204 8205 8203 8205 8204 8201 8200 8203 8202 8201 8203 8198 8202 8200 8205 8201 8197 8193 8195 8193 8189 
8197 8199 8197 8200 8200 8200 8199 8199 8200 8201 8201 8201 8200 8201 8201 8198 8198 8201 8202 8199 8197 8198 8196 8186 8170 8161 8163 8174 8172 8166 8163 8167 8177 8169 8186 8194 8182 8145 8153 8141 8137 8147 8178 8192 8195 8194 8195 8191 8169 8139 8130 8171 8199 8205 8203 8207 8205 8205 8204 8204 8204 8206 8201 8202 8201 8204 8204 8201 8202 8198 8198 8201 8201 8201 8199 8198 8197 8191 8193 8187 
8196 8199 8199 8200 8199 8200 8205 8200 8199 8200 8201 8201 8200 8201 8198 8198 8197 8200 8198 8196 8195 8177 8151 8150 8159 8141 8140 8143 8151 8154 8150 8149 8145 8145 8156 8176 8192 8174 8155 8145 8158 8169 8183 8192 8196 8191 8193 8192 8191 8179 8150 8141 8187 8203 8204 8200 8205 8203 8200 8205 8204 8204 8205 8203 8202 8202 8201 8201 8197 8200 8198 8198 8200 8199 8199 8198 8197 8194 8196 8192 
8197 8200 8198 8198 8198 8197 8199 8200 8198 8198 8198 8200 8200 8201 8198 8201 8198 8199 8195 8192 8169 8153 8168 8187 8193 8177 8152 8171 8191 8194 8192 8182 8162 8148 8161 8185 8194 8172 8154 8151 8185 8195 8193 8190 8188 8171 8164 8166 8163 8158 8161 8155 8159 8194 8198 8200 8203 8201 8202 8204 8205 8203 8203 8202 8203 8200 8202 8202 8200 8200 8200 8201 8200 8202 8200 8197 8198 8195 8193 8185 
8197 8199 8193 8197 8199 8202 8200 8197 8197 8200 8198 8200 8200 8199 8198 8198 8200 8195 8193 8164 8159 8184 8195 8194 8194 8195 8194 8194 8194 8197 8197 8198 8200 8188 8164 8169 8191 8178 8162 8166 8190 8187 8154 8147 8152 8148 8147 8139 8147 8146 8148 8159 8157 8161 8164 8183 8201 8202 8200 8204 8203 8203 8204 8203 8200 8202 8200 8202 8196 8199 8196 8198 8198 8199 8200 8195 8196 8192 8193 8186 
8196 8200 8198 8201 8199 8198 8198 8201 8199 8201 8199 8196 8195 8198 8198 8197 8195 8197 8168 8173 8191 8193 8196 8197 8195 8197 8200 8195 8198 8198 8197 8200 8200 8201 8198 8180 8162 8172 8153 8173 8189 8182 8141 8152 8166 8152 8168 8180 8185 8188 8178 8159 8171 8164 8162 8165 8177 8195 8203 8201 8201 8202 8202 8200 8198 8201 8198 8201 8198 8200 8196 8198 8200 8197 8197 8195 8194 8194 8194 8188 
8197 8199 8197 8200 8199 8196 8198 8200 8199 8198 8199 8195 8198 8199 8196 8197 8196 8184 8180 8196 8195 8198 8199 8200 8197 8195 8198 8198 8198 8199 8197 8198 8199 8199 8198 8199 8189 8162 8152 8162 8150 8151 8141 8141 8141 8168 8190 8186 8191 8193 8198 8194 8173 8159 8164 8163 8166 8191 8200 8199 8198 8201 8197 8198 8199 8198 8201 8198 8198 8197 8198 8197 8198 8196 8195 8192 8195 8192 8195 8189 
8198 8199 8198 8200 8200 8203 8198 8198 8200 8197 8198 8195 8197 8196 8197 8197 8196 8196 8194 8197 8200 8199 8203 8199 8197 8196 8201 8198 8200 8199 8198 8197 8198 8198 8197 8197 8196 8187 8154 8159 8156 8170 8151 8171 8145 8173 8188 8190 8192 8193 8196 8194 8174 8160 8164 8162 8177 8195 8196 8197 8194 8195 8197 8198 8197 8197 8198 8197 8197 8197 8193 8198 8193 8193 8195 8193 8194 8194 8193 8190 
8199 8202 8197 8201 8201 8199 8199 8198 8197 8198 8198 8197 8196 8194 8202 8195 8197 8199 8199 8200 8201 8201 8200 8198 8196 8196 8199 8195 8197 8197 8195 8193 8180 8171 8176 8185 8195 8185 8155 8177 8173 8159 8183 8191 8183 8186 8192 8190 8191 8192 8194 8196 8167 8162 8165 8164 8187 8197 8197 8194 8195 8197 8194 8196 8194 8197 8197 8193 8195 8195 8193 8198 8197 8196 8192 8195 8194 8190 8189 8188 
8201 8204 8199 8198 8199 8198 8197 8197 8200 8200 8198 8197 8196 8197 8197 8198 8197 8198 8199 8200 8199 8200 8201 8203 8196 8195 8197 8194 8190 8180 8169 8155 8141 8140 8139 8144 8160 8157 8143 8144 8139 8166 8186 8189 8192 8188 8192 8190 8191 8193 8194 8186 8160 8165 8163 8168 8190 8194 8194 8195 8193 8194 8192 8192 8190 8195 8193 8194 8193 8194 8191 8196 8198 8195 8193 8192 8192 8191 8189 8183 
8203 8202 8199 8199 8202 8200 8198 8200 8198 8203 8198 8201 8199 8197 8198 8199 8197 8199 8196 8201 8201 8199 8200 8199 8197 8197 8191 8176 8168 8173 8160 8144 8139 8141 8148 8145 8147 8141 8141 8139 8134 8137 8144 8173 8188 8187 8185 8189 8192 8193 8194 8177 8161 8165 8164 8179 8193 8196 8194 8195 8191 8193 8192 8189 8191 8191 8195 8193 8193 8193 8191 8196 8195 8195 8191 8192 8190 8190 8190 8189 
8205 8205 8202 8199 8203 8202 8201 8201 8199 8200 8201 8198 8198 8198 8200 8200 8198 8205 8200 8200 8199 8201 8197 8199 8195 8190 8189 8184 8179 8154 8139 8140 8143 8150 8161 8168 8154 8145 8143 8138 8139 8136 8134 8141 8173 8188 8188 8186 8188 8192 8192 8167 8165 8166 8168 8188 8194 8197 8196 8194 8193 8193 8191 8190 8190 8190 8192 8193 8191 8192 8191 8194 8196 8192 8195 8191 8188 8189 8193 8188 
8204 8206 8203 8202 8201 8199 8200 8201 8201 8201 8198 8199 8199 8199 8199 8201 8198 8198 8202 8201 8197 8200 8198 8196 8194 8195 8195 8188 8151 8137 8134 8146 8145 8163 8183 8182 8171 8156 8143 8144 8164 8162 8140 8136 8153 8179 8186 8187 8188 8189 8181 8166 8167 8170 8180 8193 8193 8196 8198 8195 8191 8191 8193 8193 8191 8192 8193 8192 8193 8192 8190 8194 8193 8190 8192 8189 8187 8190 8189 8185 
8204 8207 8202 8203 8201 8198 8203 8201 8198 8198 8200 8196 8199 8197 8199 8196 8197 8200 8198 8197 8200 8199 8197 8198 8195 8192 8196 8183 8145 8137 8147 8175 8164 8174 8176 8164 8142 8142 8144 8156 8179 8186 8179 8154 8141 8167 8186 8186 8186 8188 8173 8171 8173 8171 8188 8194 8192 8195 8194 8194 8194 8193 8191 8193 8190 8192 8191 8192 8193 8191 8192 8193 8192 8191 8189 8190 8186 8187 8187 8182 
8204 8207 8201 8200 8202 8200 8201 8203 8204 8203 8198 8196 8202 8199 8194 8195 8199 8198 8199 8200 8199 8200 8199 8199 8197 8194 8195 8167 8141 8153 8176 8186 8170 8156 8136 8131 8133 8135 8144 8149 8162 8180 8183 8185 8178 8166 8187 8190 8187 8186 8167 8171 8170 8176 8191 8197 8195 8194 8192 8194 8195 8196 8193 8193 8192 8192 8189 8193 8192 8192 8190 8192 8193 8191 8189 8186 8187 8188 8188 8181 
8204 8201 8205 8204 8203 8199 8203 8200 8199 8200 8201 8200 8198 8198 8199 8198 8199 8198 8199 8201 8202 8199 8200 8199 8195 8193 8198 8160 8168 8185 8186 8160 8135 8128 8129 8126 8132 8127 8136 8133 8130 8140 8162 8185 8191 8185 8187 8190 8187 8177 8166 8172 8169 8184 8196 8195 8192 8193 8194 8196 8195 8194 8194 8195 8191 8192 8191 8192 8191 8191 8191 8191 8191 8193 8189 8191 8186 8184 8185 8186 
8202 8206 8201 8201 8200 8198 8202 8200 8201 8201 8202 8200 8200 8199 8198 8199 8198 8200 8201 8203 8200 8201 8201 8200 8196 8197 8194 8188 8186 8185 8162 8134 8128 8131 8130 8127 8130 8128 8132 8135 8128 8132 8138 8167 8188 8187 8189 8186 8186 8171 8167 8172 8172 8193 8196 8193 8192 8194 8194 8195 8194 8196 8194 8192 8191 8192 8193 8192 8192 8190 8188 8189 8190 8191 8192 8187 8184 8185 8189 8181 
8203 8203 8200 8199 8198 8201 8203 8200 8201 8202 8200 8200 8199 8201 8198 8200 8200 8197 8196 8199 8200 8201 8198 8200 8195 8194 8192 8189 8186 8158 8137 8132 8133 8137 8132 8128 8135 8135 8135 8148 8140 8136 8139 8153 8178 8183 8187 8183 8180 8167 8171 8172 8176 8194 8194 8195 8191 8193 8194 8198 8194 8196 8193 8194 8192 8192 8192 8193 8191 8192 8188 8188 8189 8191 8192 8187 8187 8187 8187 8186 
8199 8203 8198 8201 8200 8200 8200 8201 8201 8202 8197 8197 8199 8202 8200 8201 8202 8200 8199 8201 8200 8199 8199 8200 8195 8193 8193 8190 8172 8155 8141 8137 8138 8141 8135 8131 8137 8142 8148 8172 8166 8140 8139 8141 8153 8179 8185 8183 8173 8167 8173 8175 8182 8195 8194 8193 8194 8195 8196 8195 8193 8195 8193 8195 8194 8193 8192 8190 8191 8193 8190 8190 8192 8191 8190 8188 8189 8188 8187 8182 
8203 8202 8200 8204 8201 8202 8202 8201 8201 8203 8199 8199 8201 8202 8199 8199 8200 8200 8199 8197 8200 8199 8195 8198 8195 8190 8193 8187 8186 8177 8164 8142 8139 8144 8144 8137 8139 8162 8174 8174 8170 8143 8140 8144 8149 8157 8172 8182 8168 8170 8174 8174 8187 8193 8194 8194 8195 8195 8196 8195 8193 8193 8194 8196 8192 8194 8193 8195 8191 8191 8189 8188 8191 8189 8189 8190 8187 8189 8187 8183 
8203 8204 8200 8204 8200 8197 8200 8201 8200 8201 8200 8198 8203 8205 8202 8201 8203 8199 8201 8199 8192 8188 8186 8190 8188 8188 8189 8186 8184 8182 8165 8154 8143 8140 8146 8154 8143 8170 8179 8180 8174 8150 8159 8153 8149 8146 8159 8177 8169 8171 8173 8182 8191 8194 8193 8195 8195 8195 8193 8194 8190 8194 8196 8196 8190 8191 8194 8189 8188 8190 8187 8190 8190 8191 8190 8188 8187 8184 8188 8184 
8203 8209 8204 8204 8205 8202 8203 8204 8200 8204 8201 8201 8203 8203 8203 8203 8200 8201 8199 8194 8187 8186 8189 8189 8192 8194 8196 8191 8187 8184 8182 8172 8154 8148 8157 8175 8164 8184 8185 8183 8187 8191 8174 8151 8150 8148 8158 8172 8172 8173 8177 8191 8198 8197 8195 8195 8192 8194 8192 8195 8193 8194 8193 8193 8192 8189 8189 8190 8190 8188 8189 8191 8192 8194 8191 8190 8188 8186 8186 8183 
8204 8206 8202 8204 8205 8202 8203 8201 8203 8205 8203 8202 8205 8202 8203 8202 8201 8202 8200 8198 8193 8192 8192 8198 8199 8199 8197 8195 8194 8192 8186 8158 8152 8146 8168 8185 8178 8191 8195 8182 8197 8205 8190 8157 8152 8161 8183 8172 8175 8176 8182 8211 8216 8213 8199 8195 8196 8194 8193 8195 8191 8194 8194 8196 8189 8190 8191 8191 8193 8189 8188 8191 8194 8191 8194 8190 8187 8187 8189 8185 
8205 8206 8203 8206 8203 8203 8203 8201 8201 8200 8205 8201 8205 8203 8201 8199 8202 8203 8202 8200 8196 8195 8194 8202 8203 8202 8201 8195 8192 8192 8172 8152 8147 8149 8163 8177 8175 8184 8195 8186 8199 8209 8190 8159 8161 8175 8194 8175 8178 8179 8195 8216 8213 8224 8204 8196 8196 8193 8191 8193 8192 8191 8190 8192 8188 8189 8189 8189 8190 8188 8191 8192 8194 8192 8192 8190 8190 8187 8189 8186 
8205 8205 8202 8205 8204 8201 8204 8203 8202 8203 8202 8202 8207 8202 8201 8203 8198 8200 8199 8202 8201 8195 8194 8194 8190 8191 8189 8187 8192 8192 8175 8155 8153 8156 8167 8173 8180 8187 8190 8189 8189 8206 8205 8176 8168 8194 8189 8180 8183 8183 8207 8208 8204 8204 8199 8196 8193 8194 8192 8194 8190 8193 8188 8189 8186 8187 8192 8193 8191 8188 8190 8194 8193 8193 8193 8191 8191 8188 8188 8187 
8204 8207 8204 8206 8204 8198 8202 8204 8203 8204 8201 8202 8202 8205 8199 8204 8202 8201 8200 8202 8202 8200 8195 8198 8191 8190 8190 8190 8184 8186 8183 8183 8181 8181 8182 8183 8187 8188 8189 8186 8183 8193 8202 8194 8196 8199 8193 8191 8193 8193 8199 8201 8201 8199 8194 8196 8194 8194 8191 8192 8189 8189 8189 8189 8186 8185 8187 8190 8191 8189 8190 8191 8193 8193 8191 8191 8189 8187 8188 8186 
8204 8202 8201 8206 8203 8201 8205 8200 8201 8203 8203 8200 8204 8205 8202 8202 8202 8201 8200 8201 8201 8206 8199 8199 8193 8194 8193 8188 8189 8188 8189 8192 8192 8190 8188 8189 8192 8188 8189 8192 8189 8194 8196 8199 8199 8198 8201 8195 8196 8195 8201 8206 8206 8196 8195 8194 8191 8193 8187 8190 8186 8190 8191 8190 8183 8188 8189 8188 8190 8188 8189 8189 8192 8192 8191 8192 8189 8186 8189 8186 
8206 8208 8204 8207 8204 8201 8204 8202 8203 8205 8204 8200 8204 8203 8203 8199 8202 8201 8200 8204 8204 8207 8210 8203 8198 8198 8201 8194 8191 8195 8196 8196 8194 8195 8190 8192 8193 8191 8193 8193 8192 8195 8200 8203 8204 8202 8203 8201 8201 8205 8208 8216 8208 8197 8194 8192 8191 8192 8188 8190 8188 8188 8187 8188 8186 8187 8191 8188 8188 8190 8188 8188 8188 8189 8187 8189 8186 8189 8191 8185 
8208 8207 8206 8206 8204 8199 8201 8203 8200 8202 8204 8202 8201 8201 8198 8200 8202 8198 8200 8204 8202 8206 8211 8213 8201 8202 8201 8196 8196 8197 8198 8201 8198 8199 8196 8192 8199 8195 8198 8199 8195 8203 8204 8207 8210 8208 8211 8209 8211 8215 8225 8216 8199 8195 8194 8190 8193 8191 8189 8188 8189 8188 8187 8186 8187 8184 8186 8189 8188 8193 8187 8188 8185 8188 8187 8187 8187 8185 8191 8181 
8211 8207 8207 8207 8201 8198 8200 8199 8200 8202 8199 8199 8203 8201 8199 8199 8200 8197 8198 8200 8199 8204 8214 8217 8206 8202 8199 8198 8203 8200 8202 8203 8202 8201 8202 8202 8203 8201 8206 8201 8201 8207 8208 8212 8214 8210 8214 8214 8228 8253 8238 8203 8194 8194 8193 8192 8188 8187 8186 8186 8187 8186 8188 8187 8184 8184 8188 8185 8188 8185 8185 8186 8185 8187 8186 8189 8186 8182 8187 8186 
8212 8217 8208 8206 8201 8201 8201 8198 8201 8199 8198 8198 8204 8198 8198 8197 8197 8198 8196 8196 8201 8205 8213 8218 8214 8206 8204 8206 8208 8208 8203 8206 8206 8206 8204 8205 8208 8204 8207 8208 8206 8211 8213 8216 8216 8215 8218 8219 8249 8260 8227 8197 8191 8194 8190 8188 8188 8187 8184 8185 8183 8186 8184 8183 8180 8184 8184 8188 8188 8185 8182 8185 8184 8184 8186 8185 8186 8185 8188 8183 
8217 8214 8210 8205 8202 8199 8200 8199 8200 8198 8195 8197 8202 8194 8194 8194 8196 8197 8195 8196 8198 8204 8214 8218 8214 8211 8207 8209 8212 8216 8212 8211 8212 8210 8205 8207 8214 8208 8211 8213 8214 8215 8219 8215 8217 8219 8222 8224 8243 8232 8205 8193 8188 8190 8187 8184 8185 8185 8182 8183 8181 8185 8182 8181 8181 8184 8187 8185 8187 8186 8182 8182 8182 8185 8184 8184 8185 8183 8186 8183 
8216 8217 8207 8205 8202 8198 8199 8196 8198 8196 8195 8195 8196 8196 8194 8194 8193 8195 8196 8195 8196 8201 8215 8220 8220 8217 8214 8213 8220 8220 8221 8220 8215 8214 8211 8210 8215 8208 8214 8213 8212 8219 8219 8218 8222 8220 8223 8226 8228 8216 8200 8186 8184 8185 8186 8184 8185 8181 8181 8182 8181 8182 8186 8183 8180 8183 8184 8185 8185 8185 8185 8188 8182 8185 8183 8183 8187 8184 8188 8182 
8226 8215 8207 8205 8201 8197 8198 8199 8195 8195 8194 8194 8196 8193 8190 8191 8189 8189 8192 8192 8193 8198 8215 8225 8225 8222 8222 8220 8220 8222 8223 8223 8220 8217 8214 8211 8216 8215 8217 8216 8215 8218 8223 8222 8228 8226 8228 8223 8225 8215 8198 8185 8185 8187 8184 8184 8183 8181 8181 8182 8182 8183 8184 8186 8183 8188 8188 8188 8186 8186 8186 8187 8186 8188 8184 8185 8185 8185 8191 8183 
8236 8220 8210 8204 8202 8201 8199 8198 8194 8195 8195 8192 8195 8194 8189 8189 8192 8191 8192 8195 8192 8196 8214 8227 8228 8229 8227 8227 8228 8231 8226 8228 8226 8226 8225 8222 8223 8220 8228 8223 8220 8222 8225 8227 8231 8232 8233 8231 8230 8219 8206 8192 8190 8189 8189 8187 8187 8186 8186 8184 8186 8185 8188 8190 8189 8190 8195 8191 8195 8193 8191 8193 8195 8193 8188 8184 8188 8188 8186 8184 


