P2
80 60
8272
8228 8229 8236 8235 8233 8234 8236 8233 8230 8230 8232 8235 8235 8231 8236 8238 8234 8238 8236 8237 8240 8238 8238 8243 8244 8244 8241 8244 8244 8243 8241 8245 8238 8239 8236 8239 8236 8239 8244 8246 8245 8241 8241 8241 8241 8242 8243 8244 8244 8240 8238 8234 8235 8234 8232 8231 8232 8236 8237 8236 8235 8238 8241 8238 8241 8237 8243 8240 8241 8242 8244 8247 8247 8246 8251 8248 8246 8246 8249 8245 
8228 8231 8236 8230 8236 8232 8233 8233 8233 8230 8234 8232 8234 8232 8234 8234 8233 8239 8235 8240 8242 8239 8240 8242 8245 8244 8243 8240 8244 8245 8243 8241 8240 8237 8234 8235 8233 8239 8246 8249 8243 8245 8244 8241 8237 8241 8244 8243 8243 8240 8237 8235 8237 8236 8231 8229 8233 8233 8233 8236 8236 8244 8239 8238 8240 8235 8242 8240 8244 8243 8247 8250 8248 8248 8253 8250 8248 8249 8249 8249 
8228 8235 8231 8230 8235 8232 8230 8230 8233 8231 8234 8229 8230 8232 8236 8231 8235 8236 8237 8237 8236 8235 8236 8240 8241 8245 8243 8239 8241 8245 8242 8240 8237 8236 8236 8236 8232 8240 8241 8243 8243 8241 8237 8235 8237 8239 8243 8238 8242 8238 8237 8234 8233 8236 8233 8230 8231 8232 8236 8235 8237 8242 8237 8239 8235 8237 8237 8239 8239 8244 8243 8248 8247 8247 8250 8245 8250 8249 8247 8245 
8228 8228 8230 8231 8227 8231 8231 8232 8231 8229 8227 8227 8230 8231 8234 8231 8234 8234 8232 8234 8233 8230 8233 8242 8243 8243 8239 8241 8240 8240 8241 8241 8239 8238 8233 8234 8235 8238 8239 8241 8240 8236 8238 8235 8233 8236 8238 8239 8240 8239 8234 8232 8234 8235 8235 8231 8232 8235 8235 8238 8237 8240 8240 8239 8235 8233 8237 8237 8240 8245 8246 8245 8247 8249 8251 8248 8246 8245 8245 8247 
8234 8226 8232 8230 8230 8229 8231 8229 8232 8230 8229 8230 8230 8229 8229 8228 8230 8231 8231 8231 8231 8228 8231 8237 8238 8243 8240 8238 8239 8240 8239 8239 8233 8232 8228 8231 8230 8233 8239 8241 8239 8236 8233 8232 8230 8234 8236 8235 8238 8237 8235 8232 8233 8232 8232 8230 8231 8234 8235 8235 8237 8240 8239 8237 8234 8234 8234 8236 8239 8244 8245 8245 8245 8247 8248 8247 8245 8246 8245 8245 
8230 8229 8229 8229 8227 8228 8232 8232 8230 8225 8226 8224 8228 8225 8231 8229 8226 8231 8230 8231 8229 8229 8231 8237 8236 8241 8238 8234 8236 8237 8237 8238 8232 8231 8228 8229 8230 8232 8237 8239 8238 8233 8234 8232 8231 8235 8237 8232 8238 8233 8232 8233 8234 8234 8232 8229 8229 8234 8234 8236 8233 8240 8235 8237 8232 8231 8233 8233 8237 8238 8239 8244 8243 8246 8244 8243 8245 8242 8243 8238 
8223 8226 8227 8229 8227 8226 8229 8230 8228 8226 8223 8225 8227 8224 8231 8230 8226 8229 8228 8232 8231 8231 8229 8236 8237 8236 8235 8230 8235 8237 8236 8238 8232 8230 8227 8232 8227 8228 8237 8238 8233 8234 8236 8231 8227 8230 8234 8232 8235 8231 8231 8229 8231 8229 8230 8228 8229 8232 8232 8230 8231 8234 8237 8232 8232 8230 8231 8230 8233 8236 8238 8241 8240 8244 8242 8240 8238 8240 8237 8237 
8225 8227 8226 8224 8228 8228 8231 8231 8229 8223 8226 8221 8227 8224 8228 8226 8228 8230 8230 8230 8231 8228 8229 8234 8234 8238 8229 8228 8231 8237 8237 8236 8228 8231 8228 8228 8226 8228 8234 8237 8234 8232 8232 8229 8228 8231 8233 8232 8230 8229 8227 8227 8228 8230 8227 8228 8224 8229 8230 8232 8230 8234 8230 8230 8228 8228 8231 8230 8232 8234 8233 8238 8236 8239 8239 8240 8240 8238 8241 8235 
8227 8226 8228 8227 8225 8231 8229 8231 8229 8225 8223 8224 8227 8223 8224 8224 8225 8230 8229 8230 8228 8226 8226 8233 8230 8233 8232 8226 8233 8233 8230 8232 8229 8225 8223 8229 8224 8227 8232 8232 8231 8227 8229 8226 8227 8229 8233 8229 8230 8226 8224 8223 8226 8225 8226 8219 8222 8226 8228 8226 8229 8232 8230 8227 8228 8226 8229 8230 8231 8229 8230 8235 8233 8234 8239 8235 8236 8232 8236 8235 
8230 8226 8223 8225 8226 8229 8230 8232 8228 8222 8222 8225 8225 8222 8224 8221 8224 8226 8228 8231 8228 8226 8227 8231 8226 8233 8230 8229 8234 8229 8227 8234 8228 8225 8223 8227 8223 8227 8233 8231 8230 8230 8229 8222 8224 8228 8231 8230 8229 8226 8226 8224 8223 8227 8223 8218 8222 8224 8227 8227 8224 8228 8228 8226 8227 8226 8226 8228 8226 8231 8228 8230 8229 8230 8231 8228 8232 8236 8235 8233 
8226 8226 8224 8222 8223 8225 8223 8227 8224 8222 8221 8222 8222 8221 8224 8221 8222 8226 8225 8225 8225 8224 8225 8229 8228 8229 8228 8228 8232 8231 8231 8225 8224 8224 8221 8223 8216 8223 8228 8229 8227 8226 8222 8227 8225 8228 8226 8227 8230 8226 8223 8222 8222 8227 8223 8217 8222 8222 8222 8226 8226 8228 8225 8226 8226 8223 8226 8227 8225 8226 8226 8228 8226 8224 8228 8227 8230 8230 8233 8229 
8226 8227 8224 8224 8221 8224 8223 8224 8226 8220 8221 8225 8221 8220 8223 8223 8223 8224 8222 8225 8227 8224 8225 8230 8228 8230 8228 8223 8230 8232 8232 8228 8220 8225 8219 8220 8218 8225 8227 8225 8223 8224 8227 8227 8227 8227 8229 8226 8228 8227 8224 8221 8224 8224 8222 8219 8217 8225 8223 8224 8225 8227 8225 8224 8223 8220 8222 8225 8225 8224 8224 8225 8222 8222 8221 8223 8224 8227 8231 8229 
8225 8229 8225 8223 8224 8221 8224 8224 8223 8222 8222 8220 8221 8215 8222 8221 8225 8225 8224 8223 8223 8220 8222 8229 8226 8228 8225 8226 8224 8227 8229 8223 8218 8220 8212 8216 8221 8221 8223 8223 8219 8223 8226 8225 8221 8224 8224 8226 8228 8223 8224 8224 8226 8224 8220 8215 8218 8220 8222 8226 8225 8225 8224 8224 8222 8218 8222 8222 8220 8222 8221 8222 8219 8221 8219 8217 8223 8223 8225 8227 
8223 8230 8227 8224 8221 8225 8221 8221 8221 8221 8218 8219 8220 8220 8226 8220 8220 8224 8221 8226 8225 8220 8221 8227 8225 8229 8225 8222 8220 8223 8227 8221 8219 8217 8215 8219 8216 8218 8218 8222 8218 8222 8225 8222 8221 8223 8224 8224 8226 8224 8224 8224 8225 8222 8222 8214 8219 8217 8222 8223 8222 8225 8226 8224 8223 8223 8223 8221 8221 8222 8219 8218 8217 8218 8218 8216 8219 8221 8220 8217 
8227 8226 8227 8223 8222 8225 8225 8223 8221 8220 8219 8221 8219 8218 8221 8221 8223 8224 8223 8225 8220 8220 8218 8222 8221 8225 8224 8221 8219 8224 8220 8218 8216 8216 8214 8216 8214 8215 8217 8220 8220 8218 8221 8220 8218 8218 8222 8220 8225 8222 8219 8222 8223 8222 8220 8216 8215 8219 8220 8220 8222 8223 8223 8223 8224 8223 8222 8220 8221 8219 8219 8218 8214 8217 8215 8214 8218 8220 8218 8221 
8229 8225 8227 8224 8223 8225 8221 8221 8224 8220 8218 8219 8222 8219 8226 8224 8223 8222 8223 8222 8218 8216 8215 8221 8219 8223 8219 8212 8217 8218 8215 8211 8209 8212 8209 8212 8212 8215 8215 8216 8216 8217 8220 8219 8217 8220 8221 8218 8222 8218 8218 8219 8221 8219 8217 8216 8217 8219 8219 8220 8219 8223 8222 8222 8225 8222 8221 8218 8216 8219 8215 8219 8213 8215 8218 8215 8218 8221 8217 8217 
8225 8225 8223 8225 8226 8226 8223 8223 8221 8223 8220 8220 8221 8220 8224 8224 8222 8225 8222 8220 8217 8215 8209 8201 8192 8193 8185 8181 8191 8200 8185 8171 8167 8177 8199 8212 8207 8209 8208 8211 8213 8212 8214 8215 8215 8215 8220 8215 8219 8218 8217 8220 8220 8215 8216 8212 8213 8214 8217 8219 8222 8223 8221 8222 8224 8219 8218 8215 8216 8217 8213 8214 8210 8214 8215 8213 8214 8213 8219 8210 
8224 8226 8226 8221 8223 8224 8225 8225 8220 8220 8226 8221 8222 8222 8228 8224 8220 8225 8223 8220 8217 8188 8175 8174 8169 8169 8165 8152 8146 8150 8153 8148 8146 8167 8199 8205 8173 8166 8158 8170 8196 8201 8191 8191 8200 8212 8215 8213 8216 8217 8215 8216 8216 8215 8211 8210 8212 8214 8215 8220 8217 8220 8221 8221 8221 8216 8218 8216 8217 8217 8214 8216 8216 8216 8214 8209 8215 8213 8213 8214 
8226 8222 8225 8223 8221 8226 8224 8226 8225 8221 8221 8226 8224 8223 8225 8226 8223 8222 8220 8218 8202 8193 8205 8213 8212 8209 8193 8167 8159 8149 8157 8167 8164 8176 8183 8179 8149 8170 8177 8172 8150 8152 8148 8154 8195 8206 8211 8209 8213 8215 8216 8215 8219 8214 8212 8210 8212 8214 8211 8216 8215 8220 8217 8217 8220 8215 8215 8216 8214 8216 8212 8216 8211 8214 8215 8212 8214 8211 8214 8211 
8223 8225 8224 8221 8222 8224 8225 8226 8224 8222 8221 8222 8222 8221 8226 8224 8221 8221 8219 8215 8208 8215 8216 8216 8207 8189 8177 8170 8182 8174 8157 8157 8155 8161 8158 8166 8157 8155 8151 8147 8151 8152 8145 8133 8144 8154 8157 8165 8182 8199 8214 8215 8214 8214 8210 8208 8209 8203 8191 8203 8204 8214 8219 8220 8221 8217 8213 8215 8217 8214 8211 8214 8213 8212 8214 8212 8212 8214 8213 8210 
8224 8225 8222 8222 8221 8225 8223 8222 8222 8221 8219 8220 8220 8219 8221 8224 8223 8223 8219 8217 8216 8213 8213 8198 8176 8173 8175 8187 8184 8157 8150 8151 8158 8159 8159 8168 8167 8164 8155 8159 8159 8152 8142 8133 8127 8133 8140 8143 8168 8203 8211 8214 8211 8211 8213 8207 8202 8176 8169 8171 8164 8192 8215 8217 8220 8214 8215 8213 8215 8217 8213 8215 8212 8213 8216 8212 8213 8210 8213 8215 
8223 8226 8227 8226 8226 8223 8218 8223 8220 8223 8223 8221 8221 8223 8225 8224 8225 8218 8217 8216 8214 8212 8190 8168 8160 8170 8162 8159 8154 8149 8148 8159 8157 8150 8151 8169 8166 8168 8168 8165 8143 8138 8143 8136 8122 8134 8146 8148 8154 8183 8206 8207 8186 8191 8204 8194 8172 8157 8156 8152 8153 8190 8216 8220 8218 8215 8214 8210 8214 8215 8215 8216 8213 8215 8215 8212 8216 8214 8215 8214 
8224 8230 8227 8224 8223 8222 8217 8215 8216 8221 8223 8223 8222 8220 8220 8220 8222 8216 8213 8207 8199 8173 8161 8155 8154 8159 8162 8154 8152 8161 8158 8160 8155 8148 8159 8170 8169 8167 8168 8154 8127 8127 8135 8140 8137 8146 8148 8147 8146 8147 8188 8206 8194 8173 8181 8171 8161 8159 8156 8165 8179 8202 8215 8219 8220 8216 8218 8213 8216 8215 8216 8217 8212 8213 8215 8214 8214 8211 8216 8213 
8222 8227 8227 8224 8225 8222 8219 8216 8218 8220 8218 8222 8222 8219 8223 8217 8217 8213 8205 8178 8163 8158 8156 8156 8160 8160 8158 8160 8158 8159 8167 8172 8174 8159 8154 8165 8168 8167 8160 8144 8128 8130 8135 8131 8134 8150 8152 8142 8137 8141 8174 8200 8201 8196 8171 8163 8163 8173 8196 8206 8211 8218 8216 8215 8216 8215 8217 8214 8216 8214 8213 8216 8214 8216 8213 8216 8214 8215 8215 8217 
8227 8225 8226 8225 8223 8220 8220 8222 8220 8218 8221 8221 8222 8220 8219 8215 8203 8176 8167 8159 8154 8156 8162 8159 8160 8166 8186 8164 8176 8192 8201 8179 8171 8178 8153 8167 8166 8162 8150 8138 8137 8134 8140 8138 8138 8139 8149 8148 8141 8141 8151 8178 8189 8169 8184 8179 8162 8160 8186 8211 8214 8219 8217 8216 8215 8214 8216 8216 8214 8214 8215 8216 8214 8216 8215 8212 8218 8216 8212 8217 
8227 8226 8224 8223 8226 8224 8222 8217 8216 8222 8219 8221 8222 8218 8220 8213 8184 8162 8152 8148 8148 8152 8160 8165 8167 8176 8171 8164 8194 8204 8203 8204 8180 8166 8157 8164 8158 8151 8143 8140 8130 8136 8146 8153 8142 8134 8138 8143 8142 8140 8145 8143 8146 8181 8201 8191 8185 8202 8203 8214 8215 8216 8215 8217 8216 8216 8216 8214 8213 8214 8214 8214 8214 8215 8215 8214 8217 8215 8215 8216 
8220 8225 8227 8224 8223 8224 8221 8218 8217 8218 8220 8223 8218 8218 8213 8180 8160 8153 8154 8149 8156 8159 8188 8209 8210 8209 8198 8194 8187 8182 8187 8200 8194 8165 8159 8160 8154 8152 8146 8141 8138 8136 8142 8157 8153 8134 8126 8130 8142 8142 8141 8145 8147 8172 8190 8182 8181 8209 8214 8217 8216 8218 8216 8216 8220 8215 8215 8215 8212 8213 8211 8212 8216 8214 8216 8214 8219 8215 8215 8216 
8219 8221 8219 8223 8223 8222 8220 8218 8217 8217 8217 8219 8220 8213 8188 8159 8158 8160 8159 8153 8155 8188 8206 8212 8212 8205 8190 8177 8172 8172 8172 8173 8163 8163 8166 8161 8153 8142 8144 8145 8141 8140 8136 8129 8126 8126 8128 8132 8137 8137 8139 8153 8154 8148 8158 8162 8168 8202 8212 8215 8213 8216 8210 8217 8219 8216 8215 8211 8213 8211 8210 8212 8210 8214 8216 8213 8218 8217 8219 8214 
8220 8222 8219 8224 8221 8221 8223 8219 8218 8219 8219 8220 8219 8205 8166 8157 8160 8162 8166 8164 8180 8205 8211 8211 8202 8180 8157 8154 8153 8172 8192 8197 8190 8174 8154 8158 8153 8145 8150 8150 8142 8138 8134 8131 8130 8136 8140 8143 8142 8142 8148 8173 8169 8169 8167 8162 8163 8177 8205 8213 8212 8203 8193 8207 8215 8215 8212 8211 8210 8208 8207 8215 8214 8213 8217 8212 8219 8217 8218 8217 
8217 8220 8221 8221 8223 8224 8221 8221 8216 8221 8219 8223 8214 8174 8160 8157 8156 8159 8181 8169 8204 8210 8208 8207 8168 8156 8153 8156 8160 8168 8177 8173 8180 8175 8175 8156 8153 8146 8145 8148 8136 8138 8139 8137 8143 8140 8144 8146 8147 8144 8149 8178 8187 8179 8163 8166 8166 8168 8178 8189 8198 8187 8184 8190 8205 8210 8209 8210 8208 8211 8208 8211 8212 8211 8216 8215 8215 8219 8218 8214 
8219 8220 8224 8222 8220 8221 8220 8220 8218 8216 8219 8217 8202 8161 8156 8157 8160 8167 8180 8193 8211 8213 8209 8182 8157 8156 8160 8160 8167 8167 8163 8162 8192 8197 8183 8160 8156 8175 8166 8159 8147 8143 8138 8146 8173 8146 8135 8140 8142 8137 8142 8168 8178 8183 8191 8180 8174 8172 8169 8172 8174 8180 8181 8185 8188 8203 8210 8207 8208 8208 8209 8211 8211 8214 8215 8213 8216 8219 8219 8213 
8221 8222 8223 8220 8222 8221 8220 8216 8214 8216 8216 8214 8190 8157 8159 8159 8164 8193 8187 8207 8213 8215 8201 8169 8160 8165 8168 8166 8166 8161 8154 8152 8169 8190 8166 8158 8166 8189 8177 8161 8158 8155 8151 8157 8177 8162 8155 8169 8154 8143 8141 8153 8176 8191 8194 8196 8197 8192 8172 8173 8168 8174 8181 8180 8185 8202 8211 8207 8209 8207 8211 8208 8211 8211 8214 8215 8216 8218 8215 8215 
8219 8224 8221 8223 8225 8223 8222 8216 8216 8216 8215 8215 8184 8160 8157 8160 8187 8206 8205 8212 8215 8212 8188 8165 8162 8173 8164 8149 8147 8142 8145 8151 8171 8182 8166 8160 8163 8171 8165 8160 8155 8154 8143 8149 8152 8158 8145 8154 8172 8158 8139 8138 8145 8153 8170 8180 8186 8197 8182 8172 8172 8173 8176 8183 8201 8205 8209 8203 8207 8209 8208 8210 8211 8211 8215 8213 8216 8216 8216 8216 
8224 8223 8224 8222 8220 8220 8217 8217 8220 8218 8214 8213 8176 8158 8161 8164 8206 8205 8211 8210 8210 8208 8176 8170 8174 8168 8151 8146 8143 8146 8144 8160 8177 8187 8169 8158 8176 8189 8164 8156 8142 8143 8145 8143 8146 8155 8152 8162 8179 8175 8147 8140 8139 8142 8153 8191 8194 8184 8180 8176 8175 8177 8175 8191 8206 8206 8205 8206 8207 8208 8207 8211 8207 8211 8210 8213 8214 8217 8216 8215 
8223 8227 8227 8222 8223 8216 8217 8219 8219 8218 8215 8213 8175 8161 8167 8186 8210 8212 8200 8186 8187 8188 8176 8173 8170 8153 8143 8144 8143 8149 8145 8153 8136 8157 8165 8164 8183 8185 8163 8147 8137 8140 8142 8143 8144 8144 8147 8162 8175 8182 8169 8144 8144 8142 8168 8191 8185 8178 8179 8179 8175 8178 8174 8178 8204 8205 8205 8204 8203 8208 8207 8207 8210 8209 8213 8210 8212 8211 8210 8215 
8224 8226 8226 8221 8221 8221 8223 8220 8220 8219 8219 8215 8175 8164 8185 8213 8200 8173 8159 8156 8151 8151 8154 8168 8161 8149 8142 8146 8145 8144 8132 8127 8126 8140 8156 8161 8183 8181 8158 8141 8137 8139 8143 8145 8144 8149 8152 8150 8181 8192 8189 8153 8146 8147 8184 8185 8176 8180 8178 8179 8174 8178 8183 8179 8190 8204 8206 8203 8203 8205 8205 8207 8207 8208 8212 8209 8211 8210 8214 8216 
8233 8226 8225 8223 8220 8223 8222 8220 8221 8217 8215 8211 8175 8173 8209 8200 8168 8159 8156 8153 8155 8147 8148 8151 8153 8149 8148 8145 8144 8140 8128 8128 8127 8131 8140 8159 8180 8177 8158 8146 8150 8161 8157 8153 8149 8153 8155 8161 8180 8192 8192 8173 8148 8151 8179 8172 8172 8177 8179 8174 8167 8168 8179 8174 8187 8200 8202 8201 8201 8205 8206 8204 8206 8209 8211 8207 8211 8211 8209 8212 
8225 8229 8226 8224 8222 8223 8222 8220 8218 8216 8214 8206 8175 8197 8209 8176 8163 8159 8156 8157 8153 8153 8150 8151 8151 8154 8151 8148 8150 8134 8128 8129 8127 8128 8140 8157 8183 8173 8154 8150 8169 8186 8172 8164 8168 8151 8168 8183 8191 8192 8195 8191 8165 8155 8172 8171 8175 8176 8173 8166 8160 8165 8171 8181 8191 8198 8204 8201 8201 8202 8203 8203 8205 8206 8208 8208 8208 8207 8210 8211 
8224 8225 8225 8224 8222 8220 8220 8220 8220 8218 8216 8212 8200 8211 8203 8173 8164 8164 8155 8154 8157 8153 8153 8153 8154 8157 8153 8150 8150 8138 8136 8135 8128 8130 8144 8161 8186 8169 8157 8156 8173 8185 8167 8180 8181 8157 8148 8149 8157 8173 8183 8190 8189 8172 8173 8173 8174 8175 8169 8162 8162 8162 8168 8178 8191 8199 8201 8202 8203 8202 8203 8203 8203 8207 8209 8206 8209 8210 8208 8209 
8223 8229 8226 8225 8222 8223 8221 8223 8219 8219 8218 8212 8217 8214 8192 8170 8166 8163 8161 8160 8162 8154 8151 8153 8154 8154 8145 8147 8152 8146 8143 8142 8137 8131 8139 8154 8162 8149 8147 8154 8164 8172 8159 8170 8178 8188 8181 8155 8151 8146 8159 8164 8175 8175 8175 8174 8174 8177 8183 8164 8161 8164 8170 8174 8190 8192 8202 8200 8202 8204 8203 8205 8203 8208 8209 8205 8210 8209 8209 8208 
8226 8228 8227 8221 8223 8220 8225 8221 8223 8220 8220 8219 8219 8207 8183 8174 8168 8171 8166 8162 8161 8157 8159 8176 8157 8145 8147 8148 8144 8147 8148 8146 8138 8133 8127 8135 8134 8134 8135 8144 8151 8150 8142 8142 8180 8186 8177 8182 8176 8157 8163 8175 8175 8176 8178 8173 8177 8194 8193 8175 8161 8167 8165 8175 8186 8192 8200 8201 8202 8200 8206 8204 8206 8204 8206 8207 8209 8208 8207 8209 
8227 8227 8223 8221 8221 8222 8221 8220 8221 8221 8219 8218 8217 8203 8181 8176 8173 8174 8171 8168 8169 8174 8194 8193 8160 8150 8147 8151 8146 8147 8144 8140 8136 8130 8128 8130 8129 8128 8127 8137 8146 8148 8149 8145 8154 8174 8190 8193 8193 8184 8166 8171 8176 8178 8176 8175 8191 8201 8196 8191 8165 8170 8165 8174 8185 8187 8196 8202 8199 8199 8202 8202 8205 8207 8209 8207 8208 8210 8207 8207 
8224 8227 8225 8220 8221 8221 8223 8218 8221 8220 8217 8219 8223 8203 8180 8174 8176 8181 8191 8201 8204 8203 8207 8202 8171 8152 8151 8152 8149 8147 8147 8145 8161 8156 8135 8136 8130 8131 8134 8137 8143 8163 8179 8172 8185 8192 8195 8183 8168 8163 8170 8170 8176 8178 8178 8191 8198 8205 8201 8201 8180 8174 8170 8178 8185 8186 8197 8200 8202 8200 8202 8203 8204 8208 8208 8208 8210 8207 8209 8209 
8223 8227 8224 8224 8218 8217 8218 8217 8219 8218 8216 8220 8220 8209 8187 8191 8204 8213 8208 8212 8212 8211 8199 8169 8159 8169 8154 8151 8149 8149 8147 8150 8154 8167 8150 8153 8155 8156 8141 8140 8144 8166 8184 8189 8189 8186 8192 8186 8173 8172 8172 8173 8177 8179 8190 8198 8203 8205 8202 8205 8191 8179 8171 8179 8192 8184 8196 8202 8203 8204 8202 8206 8205 8211 8210 8211 8214 8212 8209 8214 
8226 8228 8227 8220 8220 8216 8219 8219 8218 8218 8216 8220 8221 8219 8218 8218 8218 8215 8214 8211 8211 8197 8165 8171 8168 8161 8149 8151 8153 8154 8157 8156 8157 8156 8151 8147 8140 8153 8158 8162 8167 8193 8193 8186 8188 8196 8199 8185 8175 8172 8171 8172 8170 8188 8200 8197 8203 8206 8203 8203 8192 8178 8176 8188 8196 8190 8200 8201 8203 8204 8204 8206 8205 8208 8212 8211 8211 8211 8214 8211 
8227 8229 8225 8224 8220 8222 8219 8221 8218 8221 8219 8223 8221 8221 8220 8219 8222 8222 8216 8217 8206 8179 8176 8181 8155 8150 8150 8150 8157 8161 8159 8160 8159 8161 8157 8152 8150 8144 8152 8157 8179 8181 8179 8188 8195 8197 8191 8170 8172 8172 8174 8170 8168 8177 8199 8201 8204 8205 8202 8205 8196 8180 8177 8196 8205 8201 8204 8203 8203 8205 8206 8207 8209 8208 8212 8211 8210 8214 8215 8218 
8232 8231 8227 8222 8220 8221 8223 8220 8219 8220 8220 8220 8223 8220 8226 8223 8224 8220 8218 8214 8204 8187 8187 8168 8149 8150 8148 8156 8162 8160 8165 8166 8162 8160 8158 8160 8150 8148 8148 8152 8159 8172 8185 8190 8188 8187 8173 8168 8173 8173 8171 8165 8166 8165 8185 8200 8205 8206 8203 8203 8202 8186 8178 8203 8208 8203 8204 8203 8203 8206 8204 8208 8208 8209 8212 8209 8212 8215 8217 8213 
8226 8224 8226 8226 8222 8224 8224 8220 8220 8222 8223 8223 8223 8221 8225 8225 8222 8223 8218 8216 8213 8195 8179 8156 8150 8151 8155 8163 8163 8165 8167 8166 8164 8166 8167 8166 8157 8155 8152 8153 8152 8162 8173 8174 8171 8171 8170 8164 8168 8170 8174 8180 8172 8170 8169 8184 8200 8201 8203 8206 8205 8198 8187 8205 8207 8205 8203 8203 8202 8206 8205 8207 8208 8212 8213 8211 8216 8216 8219 8219 
8230 8228 8230 8227 8224 8224 8223 8222 8226 8222 8222 8223 8222 8223 8230 8223 8222 8220 8221 8218 8217 8202 8178 8156 8153 8157 8166 8165 8166 8167 8170 8168 8164 8169 8169 8170 8164 8163 8160 8162 8156 8155 8163 8168 8169 8169 8172 8167 8163 8167 8183 8187 8185 8178 8172 8168 8191 8203 8204 8204 8204 8207 8203 8208 8205 8206 8205 8201 8202 8208 8208 8211 8211 8215 8214 8214 8218 8218 8219 8217 
8224 8226 8228 8224 8222 8224 8220 8220 8223 8220 8222 8225 8226 8222 8226 8223 8222 8220 8220 8218 8216 8206 8176 8155 8156 8160 8170 8168 8171 8173 8169 8169 8168 8170 8169 8169 8168 8169 8170 8167 8161 8164 8168 8166 8168 8170 8172 8169 8168 8167 8175 8182 8189 8190 8191 8185 8198 8202 8203 8203 8203 8208 8206 8205 8206 8203 8204 8202 8203 8207 8204 8209 8210 8214 8216 8216 8220 8220 8217 8220 
8225 8228 8230 8226 8222 8223 8221 8224 8222 8220 8221 8222 8225 8225 8226 8221 8220 8222 8220 8214 8213 8206 8170 8155 8155 8167 8173 8169 8175 8174 8172 8170 8169 8170 8166 8169 8164 8168 8172 8170 8166 8168 8173 8168 8167 8168 8171 8169 8170 8167 8174 8188 8193 8191 8201 8201 8201 8201 8200 8199 8204 8209 8208 8205 8207 8204 8200 8201 8202 8207 8205 8212 8214 8213 8213 8217 8218 8217 8220 8218 
8226 8225 8226 8224 8223 8222 8224 8224 8221 8220 8219 8220 8222 8222 8227 8222 8220 8223 8222 8214 8217 8210 8176 8159 8155 8168 8176 8174 8173 8174 8172 8175 8172 8170 8166 8169 8161 8166 8172 8173 8165 8168 8175 8167 8170 8169 8171 8168 8171 8167 8173 8189 8198 8196 8201 8200 8201 8204 8201 8204 8204 8204 8206 8204 8203 8200 8203 8201 8201 8205 8207 8209 8212 8213 8212 8216 8217 8219 8218 8218 
8227 8231 8230 8224 8223 8225 8222 8221 8217 8219 8219 8219 8219 8223 8224 8219 8220 8220 8220 8216 8215 8213 8191 8162 8158 8168 8178 8177 8177 8175 8174 8174 8169 8172 8169 8168 8165 8166 8172 8172 8168 8173 8176 8173 8173 8172 8170 8170 8170 8166 8177 8191 8194 8196 8205 8201 8202 8205 8203 8204 8203 8208 8206 8203 8203 8202 8203 8202 8203 8203 8204 8206 8211 8214 8214 8219 8218 8220 8218 8218 
8230 8233 8231 8223 8224 8223 8221 8220 8219 8221 8222 8221 8221 8219 8223 8221 8219 8221 8217 8218 8219 8211 8200 8163 8156 8163 8177 8175 8176 8178 8175 8174 8172 8171 8173 8170 8171 8169 8167 8168 8164 8175 8175 8174 8175 8173 8171 8170 8171 8170 8185 8194 8200 8203 8204 8202 8200 8202 8202 8203 8205 8208 8207 8204 8204 8200 8202 8202 8201 8204 8201 8206 8205 8211 8212 8210 8216 8219 8221 8216 
8231 8235 8229 8225 8221 8219 8221 8218 8219 8220 8218 8222 8217 8220 8222 8217 8219 8218 8217 8215 8218 8211 8207 8168 8157 8168 8179 8177 8178 8178 8174 8173 8173 8173 8172 8172 8168 8167 8167 8169 8169 8176 8178 8178 8175 8173 8170 8170 8172 8173 8195 8199 8201 8203 8201 8200 8201 8200 8200 8202 8203 8205 8204 8203 8203 8199 8203 8201 8196 8203 8200 8202 8203 8211 8207 8209 8212 8217 8219 8219 
8235 8234 8231 8226 8222 8221 8219 8219 8216 8220 8220 8217 8221 8218 8220 8220 8214 8217 8213 8214 8214 8212 8212 8179 8165 8185 8199 8177 8178 8178 8178 8177 8172 8174 8169 8170 8167 8167 8167 8168 8173 8174 8181 8178 8171 8175 8173 8173 8173 8176 8198 8199 8199 8202 8200 8197 8194 8196 8198 8201 8202 8203 8201 8203 8202 8201 8201 8198 8196 8198 8199 8200 8205 8208 8208 8210 8215 8215 8215 8212 
8240 8238 8233 8223 8221 8222 8220 8220 8214 8216 8216 8215 8216 8219 8220 8215 8214 8216 8213 8210 8213 8213 8213 8199 8192 8206 8202 8184 8180 8179 8177 8178 8174 8172 8169 8169 8163 8164 8165 8176 8182 8184 8186 8184 8179 8176 8175 8175 8173 8179 8200 8198 8199 8199 8196 8191 8192 8197 8198 8198 8198 8201 8198 8198 8199 8197 8198 8199 8198 8197 8200 8201 8204 8208 8212 8209 8215 8213 8214 8216 
8250 8238 8229 8222 8225 8223 8220 8217 8215 8213 8211 8215 8215 8211 8217 8211 8216 8216 8211 8211 8210 8208 8209 8215 8221 8217 8217 8201 8183 8180 8181 8180 8175 8172 8168 8167 8163 8163 8179 8187 8187 8190 8190 8192 8191 8186 8181 8176 8176 8189 8199 8200 8196 8195 8195 8190 8189 8195 8191 8194 8192 8200 8200 8198 8198 8197 8198 8196 8197 8200 8201 8203 8203 8202 8208 8209 8215 8216 8211 8213 
8262 8237 8230 8227 8229 8220 8219 8216 8216 8214 8216 8213 8211 8211 8214 8210 8211 8213 8212 8206 8208 8205 8207 8219 8223 8226 8220 8213 8200 8185 8180 8178 8176 8172 8165 8169 8159 8171 8188 8188 8188 8193 8192 8195 8193 8198 8195 8188 8184 8190 8204 8196 8196 8195 8189 8187 8187 8193 8190 8192 8188 8200 8199 8199 8197 8198 8200 8197 8200 8204 8203 8205 8201 8204 8210 8213 8208 8212 8215 8210 
8272 8243 8237 8226 8226 8225 8221 8220 8214 8213 8217 8219 8223 8211 8209 8206 8199 8198 8199 8198 8197 8198 8197 8209 8217 8217 8211 8210 8201 8187 8176 8175 8175 8164 8162 8161 8162 8176 8189 8188 8191 8196 8191 8195 8193 8199 8201 8198 8191 8194 8197 8198 8193 8188 8186 8181 8185 8187 8190 8191 8192 8197 8197 8198 8197 8196 8200 8201 8199 8203 8206 8202 8203 8204 8209 8216 8218 8219 8214 8212 


