P2
80 60
8207
8138 8139 8149 8156 8158 8156 8156 8156 8155 8160 8165 8166 8168 8163 8167 8171 8167 8168 8172 8169 8172 8175 8172 8167 8169 8176 8170 8172 8176 8176 8182 8183 8196 8192 8193 8196 8200 8201 8202 8203 8202 8201 8194 8196 8194 8196 8200 8199 8201 8197 8203 8195 8192 8189 8186 8189 8186 8184 8179 8187 8184 8185 8186 8185 8185 8184 8186 8186 8190 8195 8197 8198 8201 8204 8203 8206 8205 8207 8203 8201 
8139 8146 8150 8154 8158 8161 8155 8154 8157 8164 8162 8164 8163 8162 8163 8170 8165 8167 8163 8171 8171 8170 8171 8163 8173 8167 8165 8170 8172 8169 8180 8181 8188 8192 8190 8194 8193 8202 8205 8203 8203 8199 8191 8195 8199 8200 8204 8200 8200 8200 8193 8195 8193 8192 8188 8195 8188 8180 8180 8181 8183 8184 8186 8179 8182 8184 8188 8184 8194 8199 8199 8196 8198 8203 8202 8198 8207 8202 8198 8201 
8131 8133 8140 8145 8152 8150 8153 8158 8156 8159 8163 8163 8156 8164 8164 8164 8167 8167 8161 8167 8164 8169 8167 8156 8167 8171 8163 8166 8170 8167 8171 8179 8186 8196 8190 8190 8192 8201 8204 8202 8201 8196 8191 8196 8198 8202 8200 8198 8197 8196 8197 8187 8187 8194 8193 8190 8187 8183 8181 8175 8181 8182 8183 8186 8182 8179 8182 8184 8195 8202 8193 8194 8196 8199 8195 8192 8207 8199 8194 8200 
8140 8132 8144 8143 8152 8152 8154 8157 8159 8158 8157 8149 8162 8159 8156 8162 8160 8168 8162 8161 8164 8159 8150 8161 8166 8166 8167 8168 8170 8175 8172 8177 8187 8186 8194 8190 8196 8199 8201 8201 8201 8192 8195 8190 8194 8193 8200 8200 8198 8195 8192 8188 8195 8193 8191 8192 8185 8175 8177 8175 8178 8186 8179 8183 8174 8174 8181 8181 8188 8196 8190 8197 8195 8198 8196 8194 8206 8196 8194 8192 
8140 8132 8142 8142 8150 8156 8155 8150 8153 8158 8156 8150 8155 8160 8155 8161 8160 8160 8165 8156 8161 8160 8153 8155 8165 8167 8162 8163 8160 8174 8172 8181 8185 8186 8189 8193 8195 8197 8200 8200 8199 8197 8192 8186 8190 8191 8196 8197 8195 8195 8193 8195 8195 8193 8192 8192 8182 8181 8178 8180 8179 8184 8180 8179 8174 8177 8177 8175 8189 8193 8192 8196 8196 8199 8189 8192 8202 8196 8190 8193 
8142 8136 8139 8145 8145 8147 8156 8155 8157 8156 8141 8154 8158 8152 8152 8155 8164 8152 8162 8165 8159 8158 8162 8154 8164 8167 8164 8163 8161 8171 8178 8181 8185 8184 8190 8193 8194 8195 8196 8201 8200 8196 8200 8182 8189 8194 8195 8195 8193 8194 8196 8194 8195 8192 8190 8192 8188 8183 8183 8179 8178 8181 8179 8176 8176 8175 8180 8176 8185 8195 8190 8190 8199 8189 8188 8192 8194 8190 8189 8191 
8146 8141 8142 8156 8148 8143 8156 8160 8156 8147 8137 8159 8160 8149 8154 8161 8149 8155 8162 8167 8156 8161 8165 8157 8166 8165 8153 8157 8162 8177 8174 8183 8183 8186 8187 8191 8193 8194 8200 8200 8199 8194 8196 8189 8191 8190 8196 8196 8194 8193 8191 8188 8195 8197 8188 8193 8185 8175 8177 8179 8169 8179 8178 8178 8175 8180 8186 8189 8178 8183 8193 8192 8194 8186 8191 8195 8193 8182 8190 8193 
8150 8144 8136 8147 8142 8148 8161 8167 8160 8134 8156 8161 8158 8150 8160 8157 8158 8160 8158 8160 8162 8162 8161 8162 8165 8162 8154 8160 8164 8173 8177 8180 8186 8188 8187 8187 8191 8195 8195 8201 8196 8192 8194 8195 8188 8192 8194 8186 8189 8189 8186 8184 8194 8192 8191 8189 8185 8181 8175 8172 8167 8174 8176 8178 8173 8179 8181 8187 8181 8183 8186 8184 8194 8184 8191 8192 8191 8193 8190 8190 
8150 8138 8139 8142 8148 8147 8161 8158 8157 8145 8152 8156 8151 8154 8149 8156 8156 8155 8162 8165 8163 8156 8156 8155 8153 8163 8153 8160 8161 8167 8169 8172 8180 8182 8187 8193 8197 8196 8196 8200 8196 8193 8192 8186 8190 8197 8187 8189 8190 8183 8183 8182 8186 8190 8188 8180 8181 8180 8174 8171 8167 8168 8169 8172 8173 8170 8174 8184 8180 8183 8182 8179 8177 8183 8187 8188 8195 8196 8191 8188 
8148 8130 8138 8145 8144 8155 8145 8158 8157 8154 8150 8152 8154 8156 8152 8149 8159 8154 8166 8168 8158 8154 8159 8149 8153 8161 8155 8164 8163 8168 8167 8170 8179 8183 8189 8192 8194 8197 8193 8196 8193 8192 8191 8179 8185 8194 8192 8188 8191 8184 8183 8182 8184 8188 8186 8175 8182 8176 8169 8169 8169 8170 8171 8175 8168 8172 8173 8180 8178 8184 8186 8186 8186 8184 8187 8181 8193 8196 8188 8189 
8145 8132 8135 8139 8141 8149 8140 8152 8155 8150 8154 8151 8155 8156 8150 8151 8157 8150 8149 8158 8159 8158 8159 8157 8154 8157 8160 8165 8168 8170 8169 8165 8171 8186 8182 8187 8189 8191 8192 8192 8191 8187 8183 8189 8190 8192 8194 8184 8187 8182 8183 8177 8181 8185 8181 8177 8180 8170 8170 8171 8169 8171 8173 8165 8167 8173 8176 8173 8176 8180 8180 8182 8181 8180 8184 8178 8188 8185 8190 8188 
8143 8140 8135 8137 8137 8146 8143 8152 8154 8146 8158 8149 8154 8154 8153 8152 8154 8152 8155 8159 8163 8160 8151 8158 8159 8159 8159 8163 8166 8170 8174 8173 8170 8184 8178 8180 8189 8194 8190 8189 8188 8191 8188 8195 8188 8191 8193 8183 8185 8185 8190 8185 8179 8182 8183 8176 8178 8168 8172 8169 8169 8171 8174 8172 8166 8170 8178 8175 8178 8175 8181 8179 8178 8182 8178 8175 8194 8187 8187 8186 
8142 8141 8129 8129 8136 8145 8147 8137 8147 8149 8149 8146 8148 8150 8150 8155 8150 8154 8156 8155 8154 8157 8151 8153 8160 8160 8152 8164 8164 8162 8177 8166 8173 8180 8174 8179 8188 8191 8187 8185 8184 8189 8192 8193 8191 8189 8190 8184 8183 8183 8188 8186 8179 8185 8183 8175 8177 8167 8171 8168 8166 8165 8171 8167 8173 8171 8174 8170 8180 8170 8171 8176 8180 8178 8177 8183 8191 8184 8185 8191 
8144 8148 8137 8146 8141 8147 8148 8151 8140 8150 8156 8153 8151 8148 8154 8148 8157 8156 8157 8159 8156 8155 8155 8156 8157 8158 8159 8159 8156 8164 8172 8161 8177 8180 8178 8185 8184 8188 8184 8185 8185 8185 8185 8190 8185 8186 8188 8187 8185 8184 8182 8185 8182 8181 8185 8176 8179 8173 8168 8166 8165 8163 8170 8169 8176 8172 8173 8171 8179 8174 8180 8180 8183 8184 8173 8185 8191 8194 8186 8185 
8151 8134 8142 8147 8143 8147 8143 8150 8147 8146 8152 8154 8153 8154 8156 8156 8157 8150 8157 8159 8151 8154 8151 8155 8153 8157 8158 8156 8157 8165 8163 8161 8171 8173 8177 8179 8183 8184 8184 8182 8184 8182 8183 8186 8187 8183 8182 8177 8180 8180 8183 8184 8182 8183 8181 8180 8177 8171 8168 8163 8167 8161 8163 8169 8170 8176 8175 8174 8179 8173 8177 8180 8185 8182 8174 8180 8184 8183 8183 8187 
8150 8132 8133 8144 8140 8139 8143 8150 8145 8151 8150 8145 8152 8150 8157 8157 8159 8153 8160 8160 8149 8156 8151 8152 8154 8161 8161 8152 8155 8162 8162 8164 8171 8176 8177 8178 8185 8182 8181 8181 8185 8184 8178 8185 8182 8180 8178 8181 8177 8179 8181 8182 8183 8182 8174 8181 8177 8168 8167 8169 8167 8162 8165 8167 8174 8174 8170 8172 8172 8176 8183 8178 8180 8180 8177 8181 8185 8185 8178 8187 
8149 8127 8132 8144 8142 8140 8141 8140 8148 8150 8149 8153 8144 8149 8150 8156 8154 8159 8161 8156 8148 8157 8156 8150 8149 8156 8156 8158 8159 8164 8165 8167 8171 8178 8177 8180 8184 8182 8180 8180 8181 8179 8181 8180 8179 8178 8178 8173 8178 8178 8182 8183 8182 8179 8174 8176 8170 8166 8161 8165 8166 8160 8165 8170 8174 8170 8171 8174 8169 8170 8174 8175 8179 8181 8181 8178 8180 8184 8178 8181 
8149 8136 8138 8137 8142 8149 8143 8151 8146 8157 8154 8149 8158 8158 8158 8157 8157 8153 8158 8157 8156 8161 8156 8147 8151 8164 8164 8155 8157 8160 8164 8168 8174 8178 8176 8176 8177 8176 8178 8180 8180 8176 8181 8180 8180 8179 8178 8176 8177 8179 8180 8180 8174 8175 8172 8175 8167 8164 8162 8166 8164 8161 8169 8168 8169 8170 8172 8174 8176 8172 8171 8182 8183 8181 8181 8180 8179 8173 8175 8173 
8145 8137 8140 8141 8142 8146 8151 8153 8154 8149 8156 8152 8157 8151 8156 8158 8153 8154 8154 8151 8151 8160 8157 8152 8155 8162 8163 8150 8151 8152 8160 8169 8176 8177 8172 8173 8155 8148 8163 8163 8164 8172 8175 8174 8178 8172 8174 8177 8170 8174 8178 8176 8172 8174 8152 8144 8157 8152 8159 8160 8156 8157 8169 8168 8165 8165 8170 8170 8171 8174 8177 8177 8180 8175 8180 8183 8175 8173 8180 8177 
8146 8142 8134 8139 8140 8147 8151 8154 8154 8150 8156 8154 8154 8151 8159 8159 8156 8156 8154 8160 8149 8157 8156 8150 8154 8152 8160 8154 8152 8155 8162 8166 8168 8175 8170 8136 8109 8096 8111 8086 8094 8149 8170 8167 8167 8168 8174 8170 8172 8173 8174 8175 8169 8167 8138 8109 8117 8121 8150 8156 8159 8160 8169 8169 8168 8167 8168 8165 8175 8177 8178 8181 8180 8172 8181 8180 8178 8178 8177 8174 
8148 8145 8135 8133 8134 8144 8145 8158 8153 8151 8146 8152 8154 8151 8149 8159 8156 8156 8148 8156 8147 8153 8152 8152 8149 8148 8151 8157 8150 8157 8161 8163 8167 8163 8109 8113 8158 8126 8064 8070 8081 8119 8135 8133 8111 8120 8148 8159 8159 8158 8163 8167 8166 8165 8119 8103 8108 8121 8151 8152 8156 8158 8167 8170 8170 8170 8170 8172 8172 8176 8179 8181 8173 8175 8180 8176 8176 8173 8176 8179 
8148 8148 8136 8146 8146 8147 8132 8152 8146 8151 8149 8150 8155 8156 8148 8151 8153 8152 8144 8152 8149 8156 8149 8152 8152 8154 8152 8159 8154 8151 8155 8156 8170 8139 8083 8154 8137 8150 8071 8082 8060 8067 8103 8109 8082 8087 8071 8144 8132 8109 8114 8106 8142 8153 8108 8106 8109 8128 8147 8155 8157 8157 8166 8168 8168 8169 8168 8171 8174 8175 8174 8173 8174 8167 8177 8173 8171 8176 8176 8174 
8152 8144 8141 8147 8146 8142 8136 8135 8140 8152 8153 8145 8152 8153 8151 8149 8153 8149 8143 8153 8153 8156 8146 8154 8155 8150 8152 8153 8154 8159 8159 8155 8168 8133 8113 8163 8133 8137 8074 8072 8047 8055 8106 8103 8062 8057 8052 8118 8120 8080 8070 8073 8104 8119 8102 8101 8102 8133 8147 8147 8154 8155 8164 8161 8166 8167 8169 8171 8170 8168 8172 8167 8173 8168 8176 8173 8176 8179 8172 8171 
8149 8151 8143 8149 8148 8148 8146 8135 8151 8149 8154 8144 8152 8153 8156 8154 8154 8152 8148 8160 8155 8156 8155 8147 8151 8149 8152 8150 8154 8152 8160 8166 8167 8163 8126 8156 8123 8095 8076 8048 8050 8068 8101 8073 8055 8049 8055 8064 8064 8071 8080 8073 8081 8108 8083 8105 8115 8144 8146 8156 8151 8159 8161 8165 8171 8167 8171 8174 8168 8170 8166 8168 8172 8170 8170 8167 8169 8173 8177 8177 
8151 8141 8144 8151 8149 8144 8140 8150 8150 8144 8151 8151 8158 8154 8158 8154 8153 8155 8155 8152 8154 8155 8159 8151 8152 8153 8152 8153 8151 8151 8162 8165 8170 8169 8161 8131 8077 8093 8089 8055 8062 8077 8095 8082 8052 8052 8059 8088 8065 8070 8079 8080 8093 8074 8093 8115 8125 8149 8153 8156 8149 8156 8159 8164 8168 8166 8171 8172 8170 8171 8173 8171 8171 8167 8172 8168 8171 8172 8172 8172 
8150 8137 8137 8151 8149 8142 8148 8138 8134 8147 8149 8152 8155 8154 8154 8154 8157 8156 8150 8148 8155 8153 8158 8149 8149 8147 8149 8155 8156 8158 8159 8165 8165 8169 8144 8066 8072 8079 8063 8056 8059 8062 8120 8113 8060 8059 8061 8069 8083 8083 8108 8074 8095 8097 8113 8128 8129 8147 8150 8157 8155 8149 8152 8159 8163 8168 8169 8172 8167 8167 8165 8169 8170 8171 8166 8171 8164 8169 8172 8172 
8146 8142 8131 8148 8142 8149 8145 8138 8145 8150 8149 8159 8156 8157 8155 8153 8152 8154 8154 8146 8146 8146 8150 8147 8146 8149 8152 8155 8155 8159 8158 8161 8164 8164 8112 8058 8053 8054 8086 8068 8075 8083 8103 8119 8071 8101 8079 8049 8075 8102 8110 8126 8096 8110 8132 8137 8140 8153 8155 8158 8150 8147 8157 8160 8164 8165 8166 8166 8166 8167 8167 8167 8170 8171 8167 8170 8174 8169 8169 8172 
8146 8148 8144 8148 8148 8138 8145 8145 8142 8152 8145 8156 8156 8154 8155 8153 8152 8151 8151 8148 8145 8144 8150 8148 8147 8153 8156 8160 8153 8157 8159 8162 8163 8166 8116 8062 8047 8045 8090 8085 8057 8069 8091 8077 8102 8102 8067 8054 8118 8077 8107 8145 8118 8113 8142 8146 8148 8157 8158 8161 8156 8159 8160 8161 8168 8167 8170 8160 8160 8166 8168 8164 8167 8170 8168 8174 8178 8171 8171 8171 
8148 8140 8140 8146 8141 8147 8146 8148 8150 8154 8156 8158 8159 8153 8156 8144 8154 8152 8150 8148 8147 8143 8148 8149 8148 8153 8152 8155 8157 8156 8156 8162 8163 8162 8131 8069 8057 8057 8080 8092 8063 8050 8086 8084 8073 8069 8054 8054 8116 8094 8112 8128 8110 8125 8147 8146 8149 8161 8159 8149 8157 8148 8156 8158 8162 8167 8166 8162 8160 8167 8169 8169 8167 8164 8173 8175 8170 8179 8175 8173 
8144 8141 8142 8145 8143 8152 8153 8147 8151 8150 8157 8156 8155 8153 8149 8155 8151 8155 8153 8149 8145 8148 8147 8155 8156 8151 8151 8157 8148 8156 8155 8155 8158 8155 8095 8053 8056 8060 8073 8068 8061 8049 8078 8072 8058 8091 8058 8053 8058 8087 8134 8150 8107 8126 8144 8137 8147 8154 8150 8148 8148 8151 8160 8158 8163 8163 8165 8164 8159 8162 8166 8168 8166 8165 8176 8169 8171 8179 8174 8174 
8152 8142 8141 8148 8147 8150 8143 8147 8153 8148 8157 8152 8152 8155 8153 8157 8154 8149 8152 8147 8145 8145 8148 8153 8150 8150 8155 8159 8145 8148 8151 8152 8138 8098 8071 8054 8056 8062 8065 8070 8068 8047 8050 8052 8062 8122 8084 8062 8055 8057 8075 8124 8112 8115 8128 8115 8129 8146 8151 8147 8147 8153 8161 8163 8166 8162 8169 8166 8163 8161 8169 8170 8165 8174 8171 8164 8176 8176 8172 8173 
8152 8141 8138 8143 8139 8151 8143 8148 8154 8150 8149 8158 8155 8153 8151 8153 8154 8147 8148 8151 8142 8153 8151 8155 8151 8146 8151 8158 8150 8129 8107 8116 8086 8090 8099 8061 8055 8074 8093 8055 8058 8050 8040 8054 8068 8118 8090 8064 8064 8063 8060 8070 8103 8110 8107 8100 8139 8156 8153 8154 8150 8154 8155 8158 8164 8160 8161 8160 8167 8162 8168 8173 8173 8167 8170 8165 8173 8176 8172 8169 
8154 8144 8141 8147 8138 8152 8142 8146 8154 8153 8153 8155 8148 8154 8150 8153 8155 8147 8148 8147 8149 8153 8150 8151 8154 8152 8154 8152 8150 8147 8115 8101 8079 8125 8118 8079 8059 8096 8079 8052 8050 8052 8040 8052 8060 8102 8069 8060 8055 8058 8063 8083 8097 8114 8111 8116 8149 8154 8150 8151 8147 8148 8150 8157 8162 8161 8162 8160 8163 8168 8169 8170 8166 8166 8170 8171 8167 8172 8171 8170 
8163 8139 8152 8153 8152 8150 8143 8152 8160 8148 8155 8154 8146 8153 8151 8148 8151 8154 8157 8145 8149 8149 8147 8149 8156 8152 8155 8155 8150 8118 8060 8081 8086 8079 8084 8108 8064 8063 8060 8059 8058 8057 8047 8054 8061 8060 8061 8055 8056 8058 8096 8138 8109 8114 8105 8119 8163 8159 8149 8149 8152 8149 8154 8156 8162 8162 8164 8165 8166 8172 8173 8170 8169 8172 8177 8167 8173 8177 8169 8172 
8162 8150 8152 8148 8152 8148 8156 8159 8157 8150 8157 8154 8154 8152 8154 8148 8155 8153 8154 8151 8153 8150 8146 8142 8152 8154 8146 8150 8135 8065 8060 8120 8136 8083 8093 8111 8078 8061 8055 8062 8064 8061 8051 8052 8052 8061 8054 8060 8056 8062 8095 8137 8106 8109 8102 8135 8164 8160 8151 8149 8155 8157 8161 8158 8160 8159 8166 8159 8166 8170 8167 8170 8164 8173 8169 8166 8175 8173 8169 8172 
8162 8153 8146 8154 8149 8150 8158 8160 8156 8147 8145 8156 8156 8153 8156 8156 8154 8154 8157 8151 8154 8155 8153 8139 8154 8146 8147 8143 8104 8060 8111 8134 8148 8130 8111 8100 8074 8057 8059 8061 8061 8058 8052 8056 8060 8076 8059 8067 8060 8060 8080 8123 8105 8114 8115 8148 8161 8160 8151 8150 8154 8159 8159 8158 8159 8156 8166 8157 8164 8169 8168 8168 8166 8166 8167 8176 8173 8166 8168 8168 
8160 8151 8152 8154 8151 8154 8159 8153 8156 8146 8151 8158 8159 8152 8154 8152 8155 8148 8155 8154 8150 8153 8154 8147 8148 8145 8149 8145 8108 8077 8098 8096 8103 8092 8086 8099 8074 8061 8062 8061 8059 8057 8059 8057 8062 8068 8082 8096 8085 8091 8085 8092 8103 8107 8112 8110 8125 8120 8131 8144 8151 8155 8158 8151 8162 8164 8169 8156 8155 8160 8166 8170 8167 8172 8174 8172 8171 8164 8166 8162 
8161 8155 8154 8158 8151 8155 8157 8150 8153 8152 8155 8157 8155 8148 8154 8154 8146 8152 8148 8148 8144 8150 8155 8148 8149 8150 8151 8151 8131 8079 8076 8095 8106 8079 8100 8121 8084 8068 8061 8064 8058 8062 8065 8061 8065 8068 8076 8093 8106 8101 8097 8099 8107 8107 8103 8114 8102 8091 8089 8106 8131 8151 8155 8153 8161 8160 8158 8163 8165 8165 8168 8168 8165 8170 8171 8171 8170 8167 8165 8165 
8160 8158 8151 8156 8157 8159 8154 8153 8154 8154 8156 8156 8153 8150 8154 8144 8152 8145 8147 8148 8148 8144 8148 8153 8153 8147 8150 8151 8148 8099 8083 8086 8096 8072 8104 8128 8100 8061 8060 8061 8058 8061 8067 8066 8064 8060 8076 8074 8097 8100 8095 8098 8109 8109 8109 8116 8105 8106 8101 8102 8134 8152 8154 8156 8162 8155 8168 8162 8167 8163 8164 8165 8161 8166 8167 8171 8173 8167 8161 8160 
8160 8156 8166 8158 8158 8157 8157 8153 8155 8156 8160 8147 8154 8150 8150 8140 8144 8145 8149 8150 8149 8140 8147 8152 8144 8144 8151 8150 8152 8108 8075 8082 8074 8069 8077 8093 8090 8076 8078 8072 8076 8070 8071 8073 8074 8072 8077 8080 8073 8083 8090 8102 8117 8110 8096 8102 8104 8103 8113 8121 8141 8147 8158 8153 8161 8158 8164 8163 8165 8167 8164 8161 8162 8167 8171 8168 8168 8158 8161 8160 
8156 8154 8166 8145 8156 8160 8152 8158 8154 8154 8148 8159 8152 8146 8156 8142 8145 8149 8155 8153 8151 8149 8152 8151 8147 8145 8152 8150 8145 8112 8083 8076 8080 8074 8083 8099 8093 8086 8097 8101 8105 8102 8098 8091 8091 8092 8093 8093 8086 8090 8110 8112 8112 8112 8110 8112 8112 8108 8115 8136 8147 8157 8154 8156 8163 8161 8160 8159 8161 8163 8171 8162 8162 8169 8169 8167 8166 8157 8157 8161 
8159 8147 8161 8146 8154 8158 8147 8152 8156 8153 8148 8156 8153 8151 8155 8154 8147 8149 8148 8151 8151 8146 8149 8149 8156 8153 8150 8153 8151 8133 8091 8078 8080 8083 8089 8098 8093 8093 8097 8113 8111 8117 8100 8099 8109 8098 8106 8108 8104 8107 8105 8104 8103 8120 8121 8119 8110 8112 8117 8139 8146 8156 8158 8163 8164 8160 8164 8158 8164 8162 8165 8169 8160 8167 8167 8169 8169 8163 8158 8155 
8161 8150 8150 8148 8144 8156 8153 8155 8156 8155 8157 8154 8151 8157 8148 8143 8145 8149 8142 8139 8153 8143 8153 8152 8150 8150 8144 8153 8154 8147 8138 8098 8085 8076 8081 8093 8090 8096 8097 8108 8112 8114 8104 8110 8111 8110 8100 8099 8100 8098 8093 8098 8100 8115 8116 8115 8108 8113 8130 8149 8148 8157 8157 8159 8162 8163 8164 8157 8162 8162 8163 8169 8166 8165 8167 8166 8171 8165 8157 8156 
8164 8148 8155 8155 8151 8154 8154 8156 8158 8159 8152 8155 8157 8158 8142 8144 8142 8141 8137 8144 8152 8139 8148 8151 8154 8150 8143 8154 8156 8147 8141 8107 8097 8093 8084 8085 8089 8093 8099 8108 8113 8102 8092 8106 8102 8101 8095 8098 8088 8086 8100 8093 8107 8116 8113 8110 8114 8118 8143 8153 8158 8158 8157 8160 8159 8159 8158 8153 8155 8161 8164 8161 8164 8168 8168 8163 8169 8164 8154 8154 
8159 8158 8153 8151 8151 8154 8157 8145 8161 8157 8152 8148 8151 8151 8146 8140 8145 8148 8137 8148 8145 8139 8146 8150 8143 8159 8147 8151 8150 8154 8150 8111 8103 8086 8087 8086 8097 8102 8107 8115 8109 8118 8108 8116 8107 8101 8101 8096 8102 8103 8112 8102 8113 8119 8122 8124 8125 8123 8147 8151 8153 8152 8155 8153 8153 8159 8153 8157 8164 8159 8162 8162 8166 8162 8161 8165 8166 8157 8154 8155 
8162 8147 8147 8155 8152 8156 8156 8155 8152 8152 8147 8142 8152 8147 8146 8151 8150 8146 8144 8146 8150 8150 8152 8156 8150 8155 8153 8154 8152 8155 8156 8116 8092 8097 8105 8105 8105 8096 8105 8108 8115 8109 8113 8119 8115 8111 8108 8110 8114 8116 8121 8113 8117 8113 8126 8128 8130 8123 8148 8153 8151 8149 8147 8152 8150 8155 8155 8157 8161 8162 8163 8158 8167 8166 8160 8163 8164 8159 8153 8154 
8166 8155 8136 8156 8153 8154 8157 8157 8151 8146 8145 8150 8149 8143 8139 8144 8149 8142 8142 8145 8150 8150 8150 8154 8149 8148 8147 8151 8151 8156 8151 8122 8097 8098 8102 8107 8101 8099 8104 8104 8115 8105 8104 8114 8117 8119 8113 8121 8119 8121 8121 8115 8114 8114 8113 8120 8121 8131 8146 8148 8149 8146 8144 8145 8140 8142 8147 8147 8153 8156 8156 8157 8159 8164 8160 8158 8163 8156 8150 8155 
8156 8155 8147 8151 8147 8155 8152 8156 8161 8156 8155 8141 8145 8134 8136 8143 8146 8146 8143 8146 8153 8146 8147 8155 8159 8152 8143 8147 8150 8154 8153 8125 8102 8104 8104 8102 8097 8095 8100 8100 8116 8117 8105 8108 8117 8113 8120 8121 8123 8124 8121 8108 8113 8104 8114 8113 8122 8132 8148 8143 8142 8148 8141 8141 8140 8138 8143 8136 8148 8151 8150 8159 8154 8155 8161 8156 8155 8151 8147 8148 
8161 8140 8148 8152 8148 8158 8162 8154 8158 8141 8146 8144 8140 8129 8136 8137 8142 8140 8144 8144 8151 8143 8152 8148 8155 8153 8152 8146 8145 8151 8156 8136 8113 8098 8103 8097 8108 8105 8096 8103 8111 8116 8112 8105 8105 8110 8120 8116 8118 8121 8111 8110 8110 8107 8110 8112 8120 8131 8139 8136 8140 8145 8140 8137 8133 8133 8135 8132 8143 8139 8149 8145 8148 8146 8150 8146 8144 8137 8142 8146 
8160 8139 8149 8148 8144 8156 8165 8144 8149 8140 8142 8141 8142 8134 8127 8134 8140 8145 8152 8147 8141 8153 8157 8152 8153 8156 8157 8153 8147 8148 8160 8140 8116 8096 8106 8097 8106 8107 8095 8102 8096 8108 8101 8104 8100 8105 8111 8120 8111 8101 8107 8110 8108 8113 8105 8107 8112 8139 8140 8133 8138 8139 8138 8133 8128 8130 8130 8132 8139 8142 8139 8142 8145 8142 8139 8137 8139 8139 8135 8144 
8157 8131 8136 8138 8143 8146 8158 8140 8139 8136 8138 8135 8131 8134 8130 8136 8141 8143 8154 8146 8151 8151 8154 8160 8150 8154 8148 8148 8154 8156 8159 8143 8113 8107 8104 8099 8100 8108 8100 8106 8095 8107 8110 8098 8105 8096 8116 8113 8109 8107 8106 8108 8108 8112 8087 8112 8121 8139 8133 8132 8138 8138 8135 8134 8134 8139 8145 8149 8151 8153 8142 8140 8146 8138 8132 8122 8131 8122 8136 8141 
8152 8135 8128 8136 8137 8137 8132 8140 8124 8121 8131 8128 8126 8127 8130 8126 8144 8151 8160 8154 8156 8157 8167 8165 8152 8168 8160 8155 8161 8162 8147 8150 8116 8108 8109 8093 8100 8101 8103 8105 8105 8104 8106 8101 8104 8104 8107 8109 8113 8104 8111 8108 8115 8107 8105 8111 8128 8150 8143 8151 8152 8150 8152 8138 8138 8145 8149 8143 8165 8153 8144 8142 8136 8130 8137 8130 8134 8131 8135 8138 
8142 8125 8126 8132 8128 8123 8121 8136 8129 8122 8111 8113 8111 8116 8126 8123 8149 8162 8164 8166 8159 8171 8170 8166 8169 8171 8169 8170 8170 8157 8161 8162 8118 8107 8108 8095 8102 8091 8094 8105 8098 8100 8097 8103 8101 8101 8109 8106 8099 8103 8102 8111 8101 8111 8108 8109 8137 8167 8170 8164 8162 8165 8163 8145 8151 8156 8145 8144 8161 8152 8153 8147 8136 8139 8134 8131 8124 8127 8135 8141 
8135 8128 8129 8128 8129 8129 8129 8132 8123 8121 8114 8117 8108 8125 8129 8147 8165 8169 8167 8166 8169 8169 8173 8172 8176 8171 8173 8176 8164 8165 8168 8163 8126 8114 8107 8095 8102 8104 8103 8100 8094 8096 8093 8096 8104 8107 8106 8098 8103 8107 8110 8114 8106 8093 8110 8110 8145 8166 8164 8168 8179 8174 8173 8163 8160 8162 8152 8153 8154 8145 8153 8155 8144 8143 8134 8127 8127 8121 8132 8133 
8142 8139 8128 8129 8118 8122 8130 8125 8115 8121 8111 8121 8120 8135 8157 8168 8176 8173 8181 8178 8178 8179 8175 8175 8182 8170 8170 8171 8168 8165 8162 8156 8137 8103 8102 8087 8099 8103 8100 8099 8099 8091 8103 8100 8101 8100 8088 8099 8094 8108 8107 8112 8103 8094 8105 8115 8165 8169 8168 8175 8179 8173 8169 8167 8170 8157 8160 8158 8154 8151 8154 8152 8151 8147 8131 8137 8116 8121 8134 8131 
8146 8135 8139 8133 8129 8125 8128 8124 8111 8122 8121 8118 8140 8165 8179 8185 8189 8188 8181 8184 8193 8195 8185 8188 8183 8159 8175 8177 8175 8171 8159 8161 8141 8104 8104 8090 8099 8102 8094 8091 8100 8102 8098 8100 8102 8107 8089 8100 8109 8101 8104 8096 8103 8101 8102 8118 8172 8185 8182 8181 8178 8174 8177 8178 8181 8169 8162 8173 8168 8148 8159 8158 8164 8168 8160 8143 8131 8125 8131 8133 
8137 8131 8142 8133 8123 8119 8132 8110 8124 8124 8125 8130 8169 8184 8193 8183 8182 8197 8187 8192 8199 8192 8193 8193 8190 8169 8160 8178 8175 8171 8170 8158 8154 8103 8095 8098 8101 8095 8086 8086 8086 8098 8092 8090 8100 8091 8101 8098 8101 8105 8096 8096 8087 8094 8103 8123 8171 8184 8177 8173 8178 8173 8183 8180 8168 8181 8170 8175 8168 8163 8162 8159 8158 8161 8164 8157 8151 8133 8127 8141 
8171 8158 8152 8124 8146 8133 8141 8122 8136 8124 8132 8157 8179 8193 8198 8194 8187 8196 8194 8198 8186 8191 8189 8188 8194 8177 8179 8175 8163 8145 8133 8140 8141 8098 8078 8086 8092 8082 8084 8083 8084 8084 8079 8093 8095 8091 8092 8095 8092 8093 8094 8092 8088 8087 8101 8126 8176 8177 8173 8172 8169 8177 8179 8171 8176 8176 8172 8177 8172 8168 8169 8159 8163 8156 8168 8170 8173 8147 8142 8140 
8185 8154 8148 8152 8145 8132 8137 8147 8142 8132 8169 8176 8173 8194 8187 8177 8173 8181 8187 8183 8196 8175 8179 8180 8193 8177 8177 8172 8156 8149 8137 8105 8127 8105 8077 8087 8083 8085 8081 8083 8083 8088 8085 8080 8085 8085 8094 8089 8090 8091 8086 8086 8084 8091 8095 8133 8175 8175 8178 8170 8179 8171 8172 8170 8171 8170 8171 8178 8173 8169 8163 8166 8165 8148 8156 8162 8162 8147 8144 8144 
8183 8169 8156 8146 8150 8148 8143 8140 8136 8140 8159 8166 8173 8176 8173 8171 8173 8175 8172 8183 8184 8179 8179 8181 8185 8180 8175 8171 8163 8155 8150 8106 8106 8107 8086 8081 8076 8079 8072 8075 8078 8085 8083 8075 8076 8077 8081 8079 8080 8078 8077 8077 8076 8088 8102 8150 8175 8172 8170 8165 8164 8162 8164 8164 8165 8159 8159 8164 8160 8159 8155 8158 8156 8138 8139 8136 8134 8146 8145 8152 


