P2
80 60
8142
8112 8105 8112 8111 8114 8116 8118 8116 8118 8119 8120 8119 8119 8123 8124 8122 8124 8127 8122 8123 8129 8124 8128 8127 8127 8126 8131 8135 8136 8136 8133 8135 8134 8136 8138 8135 8134 8130 8131 8132 8132 8131 8128 8128 8126 8124 8127 8129 8125 8125 8121 8120 8118 8119 8117 8115 8117 8121 8118 8119 8126 8128 8130 8130 8134 8133 8130 8134 8131 8132 8137 8137 8135 8136 8135 8135 8135 8134 8130 8124 
8112 8112 8113 8109 8117 8114 8118 8117 8116 8121 8123 8122 8118 8123 8122 8122 8124 8125 8124 8122 8131 8126 8125 8127 8125 8129 8131 8134 8135 8135 8132 8134 8137 8136 8138 8136 8133 8133 8127 8131 8131 8131 8127 8125 8125 8126 8129 8127 8130 8126 8122 8124 8119 8119 8118 8116 8119 8118 8122 8122 8126 8127 8126 8130 8134 8133 8133 8134 8134 8133 8133 8140 8137 8138 8135 8136 8134 8134 8127 8125 
8113 8110 8112 8113 8113 8113 8117 8118 8118 8123 8122 8122 8122 8123 8121 8122 8122 8126 8122 8123 8127 8123 8125 8129 8128 8127 8131 8134 8133 8132 8130 8133 8134 8137 8138 8135 8134 8132 8131 8132 8133 8133 8128 8126 8126 8125 8128 8128 8124 8128 8121 8121 8121 8118 8118 8118 8119 8121 8123 8120 8126 8128 8128 8131 8134 8133 8132 8135 8132 8130 8135 8139 8138 8138 8140 8135 8131 8135 8129 8125 
8110 8106 8111 8112 8115 8112 8111 8117 8117 8118 8119 8119 8117 8119 8120 8119 8123 8124 8124 8124 8126 8122 8128 8128 8128 8129 8129 8134 8133 8132 8128 8131 8136 8135 8136 8131 8137 8130 8132 8132 8130 8133 8126 8126 8126 8126 8127 8128 8127 8125 8123 8121 8118 8121 8119 8116 8118 8121 8117 8121 8125 8130 8129 8132 8132 8130 8134 8134 8133 8132 8136 8139 8138 8137 8142 8136 8133 8135 8128 8127 
8114 8110 8112 8114 8113 8113 8114 8115 8118 8118 8117 8117 8119 8122 8121 8123 8123 8124 8121 8124 8128 8125 8126 8130 8127 8128 8131 8131 8131 8130 8129 8130 8134 8135 8136 8136 8133 8131 8131 8131 8133 8131 8126 8125 8127 8125 8126 8129 8129 8126 8120 8120 8117 8118 8120 8116 8119 8121 8120 8121 8127 8129 8130 8127 8131 8131 8131 8134 8132 8132 8133 8137 8134 8135 8137 8135 8131 8133 8129 8127 
8112 8111 8112 8114 8113 8114 8115 8115 8116 8119 8120 8117 8120 8119 8121 8124 8125 8124 8122 8124 8128 8126 8125 8128 8126 8128 8129 8132 8132 8129 8128 8130 8133 8133 8136 8133 8134 8131 8132 8132 8131 8133 8127 8127 8128 8127 8129 8130 8128 8125 8121 8118 8121 8118 8120 8119 8119 8120 8120 8123 8125 8128 8128 8129 8131 8132 8132 8133 8133 8132 8134 8139 8135 8138 8137 8133 8132 8135 8128 8128 
8110 8111 8112 8112 8116 8113 8119 8116 8114 8117 8114 8117 8116 8123 8119 8122 8124 8122 8122 8124 8128 8125 8127 8128 8128 8129 8130 8129 8132 8129 8128 8127 8131 8132 8132 8134 8133 8130 8131 8131 8132 8130 8128 8124 8129 8128 8129 8130 8127 8130 8122 8123 8121 8121 8123 8121 8118 8122 8119 8124 8127 8129 8128 8128 8131 8128 8131 8133 8132 8133 8135 8136 8135 8136 8140 8136 8129 8131 8127 8125 
8109 8108 8114 8117 8113 8115 8115 8114 8111 8115 8113 8117 8116 8122 8121 8124 8121 8124 8121 8122 8127 8120 8125 8124 8123 8125 8128 8130 8131 8131 8129 8130 8130 8130 8134 8131 8132 8130 8131 8129 8131 8131 8126 8126 8128 8127 8129 8128 8126 8126 8122 8125 8120 8119 8122 8120 8122 8122 8122 8125 8127 8129 8127 8128 8131 8129 8130 8130 8133 8131 8135 8137 8135 8134 8139 8133 8129 8133 8124 8125 
8112 8111 8114 8116 8114 8114 8119 8114 8111 8115 8115 8114 8117 8119 8118 8121 8121 8124 8120 8124 8126 8120 8123 8122 8123 8126 8125 8128 8128 8130 8129 8128 8131 8132 8132 8131 8131 8131 8128 8127 8128 8131 8125 8125 8125 8123 8128 8129 8130 8127 8124 8125 8121 8123 8121 8120 8120 8121 8122 8124 8126 8127 8128 8128 8131 8128 8130 8131 8132 8133 8136 8137 8132 8133 8137 8131 8131 8133 8125 8124 
8111 8111 8113 8115 8114 8114 8115 8114 8115 8116 8116 8115 8117 8118 8120 8117 8119 8121 8122 8122 8126 8119 8121 8121 8120 8123 8125 8129 8129 8129 8127 8131 8133 8132 8131 8130 8132 8131 8127 8130 8129 8128 8122 8125 8127 8128 8129 8125 8126 8127 8122 8123 8120 8119 8118 8119 8120 8120 8122 8124 8127 8128 8129 8129 8130 8130 8133 8133 8131 8132 8134 8135 8133 8135 8135 8134 8129 8132 8124 8127 
8110 8108 8116 8112 8117 8113 8115 8110 8113 8116 8114 8117 8118 8118 8119 8118 8118 8122 8119 8123 8125 8117 8120 8121 8120 8124 8124 8128 8131 8129 8129 8128 8130 8134 8133 8131 8134 8129 8130 8126 8128 8127 8124 8124 8128 8125 8128 8127 8126 8125 8120 8121 8120 8115 8120 8118 8118 8118 8120 8123 8130 8128 8128 8129 8132 8129 8130 8132 8132 8129 8131 8133 8132 8130 8135 8132 8128 8130 8126 8121 
8108 8106 8109 8117 8115 8114 8116 8113 8112 8115 8115 8116 8117 8116 8116 8116 8117 8123 8119 8120 8124 8116 8121 8123 8120 8122 8126 8130 8131 8130 8128 8130 8131 8132 8132 8129 8131 8128 8130 8128 8128 8129 8123 8127 8127 8126 8128 8129 8127 8125 8123 8120 8119 8118 8116 8119 8118 8118 8118 8125 8124 8127 8128 8128 8128 8129 8132 8130 8126 8131 8130 8135 8133 8133 8132 8131 8126 8130 8124 8120 
8105 8105 8108 8110 8112 8113 8113 8110 8110 8117 8116 8115 8116 8117 8116 8117 8114 8119 8117 8118 8119 8116 8118 8120 8119 8122 8126 8128 8128 8130 8128 8128 8127 8134 8128 8130 8130 8131 8131 8128 8129 8129 8125 8126 8125 8123 8128 8130 8128 8126 8122 8122 8117 8116 8118 8117 8117 8120 8119 8122 8124 8125 8126 8129 8127 8129 8129 8131 8128 8131 8133 8133 8128 8129 8133 8129 8127 8133 8122 8122 
8111 8105 8106 8113 8109 8110 8112 8113 8113 8115 8116 8117 8116 8115 8116 8118 8118 8118 8117 8117 8119 8114 8118 8118 8120 8122 8123 8127 8128 8129 8126 8126 8132 8132 8129 8124 8131 8130 8130 8130 8128 8129 8126 8129 8125 8126 8125 8129 8127 8126 8122 8121 8120 8118 8118 8118 8116 8119 8121 8121 8124 8124 8128 8127 8129 8127 8129 8129 8129 8129 8131 8130 8128 8128 8131 8132 8128 8132 8123 8118 
8109 8106 8108 8108 8114 8108 8114 8112 8111 8115 8116 8115 8118 8115 8116 8116 8119 8118 8116 8116 8118 8115 8118 8118 8121 8120 8122 8128 8127 8128 8128 8129 8126 8132 8131 8129 8125 8130 8131 8129 8129 8131 8127 8126 8127 8127 8129 8128 8126 8124 8124 8121 8120 8119 8119 8118 8119 8119 8120 8119 8123 8125 8127 8126 8125 8128 8130 8129 8130 8129 8130 8131 8130 8129 8130 8131 8128 8132 8124 8126 
8108 8106 8106 8109 8108 8109 8114 8110 8112 8114 8117 8116 8113 8116 8114 8117 8114 8114 8114 8114 8117 8114 8117 8120 8116 8120 8122 8127 8128 8129 8127 8131 8133 8134 8133 8131 8129 8130 8129 8129 8127 8130 8126 8127 8128 8129 8129 8127 8128 8126 8124 8122 8121 8120 8118 8117 8118 8116 8118 8121 8124 8126 8126 8125 8127 8129 8128 8130 8128 8129 8130 8128 8127 8129 8130 8129 8128 8131 8125 8125 
8106 8102 8109 8112 8106 8112 8111 8108 8115 8115 8116 8116 8117 8114 8118 8117 8115 8114 8116 8111 8115 8114 8118 8120 8119 8119 8124 8126 8130 8129 8130 8132 8129 8132 8134 8131 8128 8129 8130 8127 8128 8129 8125 8126 8125 8127 8127 8130 8129 8128 8122 8122 8119 8120 8121 8116 8118 8119 8119 8121 8125 8125 8125 8127 8127 8129 8130 8129 8130 8127 8130 8131 8131 8130 8130 8129 8128 8131 8125 8120 
8108 8105 8109 8110 8110 8108 8111 8112 8115 8116 8116 8117 8116 8119 8115 8116 8118 8117 8116 8112 8115 8112 8117 8119 8122 8120 8123 8127 8129 8130 8127 8128 8133 8132 8129 8121 8095 8107 8126 8126 8127 8130 8125 8122 8121 8123 8124 8128 8127 8127 8124 8121 8122 8120 8121 8116 8118 8120 8120 8122 8127 8126 8126 8128 8129 8128 8128 8129 8125 8126 8129 8128 8129 8128 8133 8128 8127 8131 8122 8122 
8109 8109 8108 8110 8111 8111 8113 8113 8114 8114 8117 8113 8115 8117 8115 8117 8118 8116 8113 8113 8114 8109 8116 8118 8122 8119 8124 8126 8130 8131 8128 8127 8128 8128 8123 8092 8083 8089 8101 8109 8125 8128 8121 8108 8102 8094 8113 8127 8125 8126 8121 8121 8119 8119 8118 8116 8118 8118 8118 8121 8125 8126 8126 8129 8129 8128 8126 8128 8127 8128 8128 8127 8128 8128 8130 8128 8126 8127 8123 8121 
8108 8106 8110 8109 8113 8111 8113 8112 8112 8114 8113 8114 8114 8114 8114 8115 8112 8118 8113 8111 8113 8109 8113 8117 8117 8119 8123 8127 8129 8131 8129 8124 8111 8103 8096 8077 8107 8087 8105 8122 8109 8108 8110 8116 8123 8097 8080 8096 8104 8122 8120 8120 8121 8121 8118 8115 8116 8118 8116 8121 8122 8125 8125 8128 8129 8127 8129 8125 8124 8123 8127 8128 8129 8128 8132 8130 8126 8127 8121 8121 
8105 8105 8106 8109 8111 8113 8110 8111 8112 8111 8112 8117 8114 8113 8114 8112 8115 8113 8113 8113 8113 8110 8114 8117 8118 8116 8116 8122 8125 8127 8124 8105 8079 8098 8102 8075 8106 8103 8115 8118 8102 8091 8113 8122 8122 8116 8087 8074 8079 8105 8120 8118 8119 8120 8119 8114 8117 8117 8120 8117 8122 8124 8126 8130 8129 8128 8128 8130 8123 8124 8125 8129 8129 8129 8130 8131 8127 8130 8121 8122 
8107 8104 8106 8107 8113 8110 8107 8109 8112 8113 8115 8116 8113 8114 8112 8113 8113 8112 8112 8115 8117 8112 8114 8116 8114 8111 8088 8101 8112 8110 8101 8083 8075 8083 8090 8073 8093 8097 8104 8086 8079 8083 8084 8096 8111 8120 8099 8075 8075 8093 8118 8119 8118 8118 8121 8117 8116 8119 8118 8119 8123 8125 8131 8129 8130 8128 8129 8129 8126 8127 8126 8130 8131 8131 8133 8129 8127 8129 8124 8125 
8108 8106 8107 8109 8110 8111 8112 8110 8110 8114 8115 8117 8114 8117 8113 8116 8114 8115 8114 8113 8119 8114 8116 8111 8078 8072 8085 8078 8094 8118 8107 8086 8080 8082 8079 8074 8087 8113 8101 8084 8100 8085 8112 8116 8109 8105 8082 8071 8072 8099 8120 8122 8118 8118 8121 8117 8116 8120 8119 8121 8124 8128 8126 8128 8129 8127 8129 8130 8129 8126 8127 8127 8127 8128 8130 8131 8130 8129 8125 8127 
8110 8106 8110 8110 8110 8111 8111 8111 8110 8114 8115 8116 8117 8116 8116 8117 8115 8115 8108 8112 8117 8114 8106 8084 8064 8071 8086 8081 8078 8091 8085 8094 8079 8085 8074 8068 8070 8073 8080 8087 8106 8079 8088 8093 8087 8079 8087 8080 8078 8115 8120 8123 8120 8120 8123 8118 8117 8117 8119 8120 8125 8125 8127 8128 8128 8131 8132 8128 8129 8124 8125 8128 8127 8127 8132 8133 8128 8136 8129 8125 
8106 8106 8107 8109 8111 8113 8111 8110 8109 8116 8115 8115 8116 8119 8119 8115 8114 8111 8111 8116 8115 8096 8084 8065 8066 8073 8073 8076 8073 8094 8085 8111 8083 8107 8081 8072 8069 8071 8096 8097 8078 8076 8081 8093 8083 8079 8112 8113 8092 8115 8118 8122 8120 8120 8120 8116 8118 8118 8119 8119 8124 8124 8125 8127 8130 8131 8127 8129 8129 8126 8128 8126 8127 8129 8132 8134 8133 8136 8129 8127 
8106 8107 8111 8110 8109 8112 8109 8110 8111 8112 8114 8116 8115 8117 8115 8113 8115 8113 8114 8110 8104 8112 8111 8089 8092 8075 8089 8088 8078 8074 8077 8096 8089 8090 8072 8072 8083 8075 8089 8078 8073 8077 8073 8081 8081 8082 8113 8121 8108 8088 8115 8120 8118 8119 8117 8118 8120 8121 8122 8120 8126 8125 8124 8125 8129 8128 8129 8130 8127 8126 8127 8130 8129 8130 8131 8133 8132 8136 8134 8127 
8107 8107 8109 8110 8110 8109 8109 8109 8110 8115 8114 8115 8116 8116 8114 8118 8116 8116 8114 8118 8119 8101 8091 8078 8082 8091 8117 8089 8068 8072 8085 8070 8074 8076 8079 8095 8105 8108 8089 8074 8075 8075 8071 8071 8075 8084 8112 8123 8121 8091 8099 8121 8120 8120 8117 8118 8120 8118 8120 8127 8125 8126 8124 8130 8129 8130 8130 8130 8130 8125 8127 8129 8126 8129 8131 8133 8130 8135 8128 8131 
8105 8108 8108 8111 8111 8111 8112 8111 8112 8114 8119 8117 8116 8116 8116 8113 8117 8118 8118 8118 8115 8078 8083 8084 8112 8112 8100 8102 8094 8080 8076 8068 8071 8073 8079 8097 8104 8106 8094 8074 8073 8074 8069 8069 8076 8078 8109 8121 8119 8093 8103 8120 8119 8122 8119 8119 8120 8119 8121 8126 8123 8122 8124 8126 8129 8130 8129 8131 8129 8126 8126 8127 8126 8128 8135 8133 8132 8134 8128 8127 
8106 8108 8108 8114 8114 8113 8112 8113 8112 8117 8116 8117 8114 8114 8113 8118 8115 8115 8118 8117 8114 8090 8088 8088 8104 8110 8094 8078 8076 8082 8070 8077 8073 8073 8079 8075 8074 8087 8082 8080 8075 8078 8084 8075 8079 8083 8096 8112 8117 8100 8117 8122 8120 8119 8122 8121 8120 8120 8122 8124 8124 8125 8126 8125 8124 8127 8128 8128 8127 8129 8127 8127 8129 8128 8132 8132 8133 8137 8131 8129 
8105 8109 8111 8113 8114 8111 8113 8112 8111 8115 8115 8115 8112 8117 8115 8113 8113 8114 8116 8115 8117 8108 8095 8103 8119 8118 8101 8095 8111 8101 8063 8079 8080 8072 8079 8092 8084 8068 8070 8073 8076 8099 8110 8085 8076 8083 8093 8086 8096 8115 8119 8121 8119 8121 8120 8117 8122 8122 8124 8122 8124 8125 8126 8123 8128 8128 8130 8129 8126 8126 8128 8127 8126 8126 8133 8135 8132 8136 8129 8125 
8111 8108 8113 8114 8113 8115 8113 8112 8112 8115 8113 8111 8113 8114 8114 8112 8113 8113 8113 8112 8111 8097 8110 8113 8115 8119 8111 8092 8094 8084 8065 8077 8083 8074 8072 8080 8074 8075 8074 8076 8075 8089 8114 8088 8077 8083 8079 8081 8084 8098 8110 8112 8116 8119 8118 8118 8119 8119 8119 8122 8126 8124 8126 8125 8129 8128 8126 8129 8126 8125 8127 8127 8124 8126 8131 8133 8131 8137 8129 8126 
8107 8109 8109 8111 8115 8114 8114 8111 8114 8113 8118 8111 8113 8112 8112 8116 8113 8117 8116 8111 8103 8106 8113 8115 8115 8100 8072 8074 8066 8066 8088 8098 8084 8080 8069 8075 8073 8072 8071 8076 8076 8081 8107 8091 8081 8083 8088 8081 8085 8115 8116 8108 8112 8118 8118 8117 8119 8121 8121 8123 8123 8124 8127 8127 8127 8126 8127 8126 8127 8126 8126 8126 8126 8126 8130 8130 8133 8135 8130 8127 
8110 8106 8112 8115 8114 8113 8110 8114 8115 8116 8116 8110 8114 8115 8114 8111 8115 8118 8113 8113 8109 8106 8116 8117 8117 8081 8091 8106 8071 8069 8099 8078 8076 8079 8072 8075 8074 8070 8074 8080 8079 8081 8087 8087 8090 8084 8081 8080 8084 8114 8120 8115 8115 8119 8120 8120 8117 8121 8122 8123 8123 8125 8127 8128 8127 8126 8125 8127 8125 8126 8127 8129 8125 8125 8133 8133 8135 8136 8130 8130 
8110 8111 8116 8115 8112 8113 8114 8113 8113 8115 8115 8112 8113 8114 8111 8115 8115 8114 8116 8110 8113 8113 8119 8120 8119 8096 8113 8097 8069 8069 8083 8076 8077 8078 8077 8073 8074 8076 8073 8079 8080 8082 8086 8079 8078 8085 8087 8077 8080 8098 8100 8098 8106 8115 8119 8119 8119 8121 8122 8121 8126 8126 8127 8125 8129 8127 8124 8127 8124 8126 8127 8130 8127 8129 8132 8131 8131 8136 8130 8127 
8113 8111 8114 8115 8115 8113 8113 8115 8112 8113 8113 8110 8112 8114 8112 8113 8116 8114 8111 8112 8117 8113 8117 8119 8118 8118 8111 8092 8103 8077 8064 8072 8075 8075 8076 8076 8076 8077 8076 8077 8080 8082 8094 8075 8076 8086 8085 8081 8078 8075 8075 8098 8100 8109 8116 8118 8119 8119 8123 8122 8125 8127 8129 8129 8129 8129 8128 8127 8127 8125 8128 8130 8128 8126 8134 8133 8131 8135 8128 8126 
8112 8113 8115 8113 8116 8115 8114 8114 8113 8114 8111 8112 8113 8114 8111 8114 8114 8114 8114 8113 8119 8116 8117 8121 8122 8119 8119 8120 8114 8094 8069 8074 8075 8077 8074 8077 8075 8081 8089 8081 8080 8084 8100 8083 8079 8086 8082 8080 8081 8072 8081 8101 8089 8091 8109 8120 8122 8124 8122 8125 8126 8128 8130 8129 8129 8133 8131 8133 8128 8126 8129 8130 8130 8130 8132 8135 8132 8135 8131 8129 
8111 8112 8116 8115 8116 8117 8114 8115 8114 8115 8112 8112 8114 8114 8112 8114 8116 8115 8113 8117 8118 8115 8119 8119 8117 8121 8122 8119 8107 8113 8075 8072 8074 8075 8077 8074 8077 8109 8092 8081 8085 8084 8078 8075 8076 8082 8079 8078 8075 8072 8080 8105 8116 8106 8102 8114 8122 8121 8122 8125 8127 8129 8128 8130 8131 8131 8133 8132 8129 8128 8127 8135 8130 8131 8134 8133 8131 8137 8129 8125 
8116 8114 8116 8115 8117 8115 8115 8112 8114 8115 8115 8115 8115 8116 8114 8114 8116 8116 8116 8113 8116 8116 8117 8120 8120 8120 8120 8105 8120 8119 8084 8073 8076 8077 8076 8076 8085 8102 8084 8088 8087 8086 8077 8083 8090 8081 8075 8077 8077 8075 8076 8091 8117 8122 8118 8107 8116 8123 8124 8124 8128 8130 8128 8130 8129 8131 8131 8135 8131 8128 8130 8130 8130 8130 8136 8131 8132 8132 8131 8130 
8113 8114 8115 8116 8114 8114 8114 8114 8114 8117 8116 8117 8116 8114 8112 8112 8114 8117 8113 8116 8117 8113 8115 8118 8115 8117 8105 8111 8119 8117 8093 8075 8077 8078 8079 8088 8092 8086 8085 8084 8086 8087 8081 8081 8090 8085 8077 8076 8078 8076 8078 8082 8102 8123 8123 8121 8118 8122 8122 8127 8128 8127 8124 8126 8128 8130 8131 8130 8131 8131 8130 8130 8128 8132 8135 8132 8130 8134 8128 8130 
8116 8114 8118 8116 8114 8112 8113 8114 8111 8114 8115 8117 8117 8115 8114 8115 8114 8116 8115 8116 8117 8112 8108 8103 8105 8107 8103 8114 8116 8113 8107 8080 8074 8081 8089 8079 8088 8085 8087 8088 8086 8085 8081 8084 8090 8086 8080 8080 8082 8081 8083 8082 8100 8127 8134 8122 8128 8122 8123 8127 8128 8127 8129 8129 8129 8128 8130 8133 8132 8133 8131 8131 8130 8131 8133 8132 8131 8137 8132 8125 
8115 8113 8118 8114 8117 8112 8115 8114 8113 8115 8115 8115 8115 8114 8112 8114 8114 8117 8116 8118 8113 8101 8100 8101 8100 8104 8106 8115 8116 8115 8113 8088 8081 8087 8090 8084 8084 8087 8086 8086 8086 8084 8083 8086 8092 8091 8080 8084 8083 8083 8110 8095 8101 8121 8124 8125 8130 8123 8125 8127 8129 8130 8127 8126 8129 8129 8129 8132 8132 8132 8130 8132 8129 8132 8133 8133 8131 8135 8132 8127 
8114 8114 8116 8115 8115 8114 8114 8113 8114 8114 8115 8117 8115 8117 8113 8115 8116 8117 8111 8115 8114 8101 8102 8092 8084 8099 8110 8115 8116 8119 8113 8094 8086 8085 8087 8082 8087 8087 8085 8086 8086 8085 8084 8093 8097 8092 8084 8086 8092 8095 8111 8120 8118 8114 8115 8122 8123 8120 8124 8127 8130 8129 8128 8127 8130 8130 8131 8130 8129 8130 8130 8132 8130 8131 8133 8133 8130 8137 8131 8128 
8114 8113 8114 8116 8116 8114 8113 8113 8110 8115 8116 8116 8114 8116 8115 8118 8116 8114 8112 8115 8114 8104 8099 8099 8094 8098 8106 8108 8107 8106 8103 8093 8087 8088 8087 8082 8084 8087 8083 8086 8086 8090 8086 8097 8096 8094 8095 8103 8109 8110 8105 8106 8110 8109 8111 8116 8121 8124 8126 8126 8130 8129 8129 8131 8128 8132 8130 8132 8128 8128 8130 8131 8131 8130 8131 8133 8131 8137 8127 8129 
8113 8111 8115 8115 8113 8115 8114 8111 8114 8117 8116 8115 8119 8118 8114 8113 8115 8116 8115 8113 8113 8103 8100 8096 8098 8100 8103 8101 8101 8098 8099 8100 8095 8099 8097 8098 8096 8095 8096 8100 8099 8101 8096 8102 8105 8105 8110 8113 8111 8111 8108 8108 8108 8110 8109 8115 8123 8122 8124 8126 8128 8129 8132 8129 8130 8130 8132 8129 8131 8127 8130 8131 8131 8131 8132 8133 8134 8136 8127 8123 
8117 8113 8117 8113 8115 8114 8114 8114 8115 8116 8117 8118 8119 8118 8117 8116 8116 8119 8114 8112 8114 8106 8097 8100 8100 8100 8099 8098 8101 8101 8099 8097 8097 8100 8102 8100 8099 8101 8102 8102 8103 8106 8101 8102 8102 8103 8109 8113 8113 8112 8111 8113 8117 8112 8108 8115 8120 8122 8125 8127 8129 8129 8130 8127 8128 8130 8132 8129 8129 8125 8127 8131 8132 8129 8132 8132 8129 8133 8126 8124 
8114 8115 8112 8118 8116 8116 8114 8115 8117 8116 8117 8118 8119 8118 8117 8118 8118 8118 8111 8111 8115 8111 8102 8103 8102 8103 8101 8101 8101 8101 8097 8100 8101 8105 8102 8104 8100 8104 8105 8106 8107 8108 8105 8105 8107 8107 8110 8112 8113 8111 8108 8118 8122 8112 8115 8119 8122 8121 8122 8126 8130 8131 8130 8129 8128 8130 8133 8128 8126 8127 8126 8128 8130 8127 8129 8129 8131 8132 8127 8120 
8112 8113 8115 8117 8116 8116 8114 8117 8120 8120 8119 8120 8118 8118 8118 8119 8117 8117 8112 8110 8115 8112 8112 8097 8099 8100 8104 8100 8102 8104 8101 8101 8105 8107 8108 8104 8109 8110 8110 8109 8109 8114 8111 8109 8107 8109 8112 8114 8112 8114 8111 8117 8108 8101 8118 8118 8120 8120 8121 8124 8128 8129 8128 8129 8130 8129 8132 8128 8128 8125 8127 8129 8128 8128 8129 8131 8126 8132 8123 8122 
8117 8114 8116 8116 8116 8118 8116 8117 8118 8121 8122 8121 8121 8120 8116 8118 8116 8115 8113 8113 8113 8113 8114 8102 8090 8094 8099 8098 8102 8105 8103 8105 8104 8109 8110 8109 8117 8118 8109 8109 8114 8120 8118 8113 8112 8109 8110 8109 8106 8105 8107 8118 8108 8105 8118 8119 8119 8121 8119 8121 8126 8128 8126 8127 8125 8131 8129 8129 8130 8128 8131 8130 8128 8127 8127 8127 8122 8127 8122 8121 
8117 8117 8114 8115 8118 8117 8118 8119 8122 8122 8122 8124 8120 8117 8116 8119 8115 8115 8111 8113 8113 8109 8117 8109 8096 8092 8093 8094 8094 8096 8097 8097 8100 8103 8099 8100 8105 8103 8103 8101 8104 8110 8105 8102 8101 8099 8103 8105 8101 8105 8114 8121 8114 8109 8118 8115 8120 8119 8118 8120 8122 8124 8122 8126 8126 8124 8131 8128 8129 8129 8128 8128 8127 8124 8123 8124 8120 8126 8118 8112 
8117 8117 8119 8119 8119 8118 8120 8120 8120 8121 8123 8118 8118 8121 8117 8117 8116 8117 8115 8113 8114 8112 8117 8115 8104 8096 8093 8092 8096 8094 8094 8095 8094 8099 8099 8102 8097 8097 8098 8096 8103 8109 8098 8096 8097 8096 8100 8105 8099 8114 8124 8127 8116 8116 8120 8114 8121 8120 8119 8118 8118 8121 8122 8123 8121 8124 8124 8126 8128 8127 8127 8128 8127 8125 8123 8122 8119 8121 8112 8113 
8116 8116 8119 8118 8121 8120 8120 8119 8122 8121 8120 8121 8114 8121 8113 8115 8118 8118 8114 8114 8116 8112 8117 8117 8106 8097 8092 8091 8091 8094 8092 8095 8095 8099 8094 8095 8094 8095 8095 8099 8101 8107 8097 8095 8092 8097 8098 8100 8105 8113 8128 8124 8121 8117 8118 8117 8119 8118 8117 8113 8118 8117 8115 8116 8119 8120 8120 8124 8124 8123 8126 8124 8120 8123 8118 8116 8111 8113 8110 8107 
8118 8119 8120 8122 8118 8121 8120 8116 8118 8119 8118 8116 8116 8115 8119 8118 8117 8117 8116 8115 8120 8115 8119 8122 8099 8101 8096 8092 8094 8093 8091 8092 8092 8092 8094 8093 8095 8093 8093 8096 8099 8103 8096 8092 8094 8094 8096 8096 8105 8116 8120 8125 8127 8113 8117 8118 8119 8118 8115 8113 8113 8113 8113 8116 8116 8116 8118 8121 8123 8122 8123 8121 8119 8111 8113 8112 8105 8110 8106 8108 
8118 8117 8120 8121 8120 8119 8118 8117 8119 8117 8114 8112 8113 8117 8116 8118 8119 8120 8118 8118 8120 8117 8123 8124 8105 8097 8094 8089 8091 8092 8088 8088 8090 8093 8095 8093 8090 8088 8087 8097 8094 8098 8092 8090 8094 8094 8096 8100 8104 8119 8120 8117 8113 8114 8119 8120 8124 8124 8118 8116 8115 8115 8114 8112 8118 8112 8116 8117 8120 8119 8118 8116 8113 8109 8110 8110 8104 8110 8103 8105 
8114 8112 8117 8117 8121 8118 8118 8115 8112 8111 8110 8108 8111 8115 8119 8120 8124 8123 8121 8123 8126 8122 8128 8129 8103 8093 8091 8089 8086 8086 8083 8083 8089 8088 8090 8088 8087 8089 8087 8087 8090 8091 8086 8087 8091 8089 8090 8095 8099 8112 8110 8103 8099 8120 8128 8129 8131 8130 8125 8120 8115 8112 8111 8111 8113 8114 8116 8115 8115 8114 8114 8114 8112 8108 8107 8103 8102 8104 8100 8104 
8111 8113 8118 8115 8113 8109 8103 8100 8100 8103 8101 8111 8117 8120 8119 8122 8126 8126 8126 8129 8130 8126 8128 8131 8113 8091 8091 8088 8083 8081 8078 8085 8086 8085 8087 8085 8083 8082 8082 8087 8086 8089 8082 8083 8087 8086 8088 8090 8096 8104 8101 8095 8094 8127 8134 8135 8135 8138 8132 8130 8122 8116 8114 8113 8114 8113 8118 8112 8114 8109 8111 8115 8112 8106 8104 8105 8101 8105 8102 8098 
8105 8103 8105 8099 8096 8095 8094 8095 8096 8096 8103 8113 8119 8123 8122 8122 8126 8127 8127 8129 8131 8128 8130 8134 8119 8090 8085 8086 8084 8079 8077 8083 8084 8088 8082 8082 8083 8081 8084 8086 8082 8087 8082 8082 8086 8088 8089 8094 8092 8090 8095 8092 8099 8128 8134 8132 8136 8135 8132 8131 8127 8118 8114 8113 8115 8113 8114 8117 8112 8111 8112 8114 8110 8108 8105 8107 8100 8104 8099 8097 
8099 8096 8098 8095 8094 8093 8093 8094 8097 8108 8117 8121 8121 8123 8122 8124 8125 8124 8127 8129 8133 8128 8130 8130 8121 8093 8079 8077 8080 8081 8078 8078 8083 8083 8083 8082 8082 8082 8083 8081 8080 8084 8079 8083 8085 8086 8089 8089 8087 8088 8087 8089 8100 8129 8133 8133 8133 8137 8132 8130 8127 8123 8115 8114 8115 8111 8112 8115 8113 8110 8107 8109 8107 8106 8104 8107 8101 8103 8098 8096 
8100 8094 8094 8091 8095 8091 8095 8095 8105 8120 8121 8124 8124 8123 8121 8125 8126 8125 8130 8126 8131 8128 8129 8128 8125 8096 8080 8079 8080 8080 8080 8078 8077 8082 8082 8081 8082 8081 8079 8082 8080 8089 8082 8083 8087 8090 8087 8090 8089 8089 8084 8089 8105 8133 8137 8136 8139 8139 8134 8132 8131 8124 8116 8115 8114 8113 8109 8114 8108 8106 8106 8108 8104 8101 8105 8105 8101 8107 8099 8097 
8098 8097 8095 8088 8090 8096 8098 8111 8117 8122 8122 8125 8122 8125 8120 8125 8125 8124 8129 8127 8131 8125 8129 8127 8127 8105 8083 8077 8078 8079 8081 8079 8079 8082 8083 8081 8081 8080 8084 8084 8084 8090 8083 8087 8088 8088 8090 8093 8089 8090 8092 8091 8118 8139 8138 8138 8140 8140 8136 8131 8135 8126 8118 8113 8117 8111 8111 8111 8112 8103 8105 8108 8103 8100 8104 8103 8102 8106 8101 8098 
8107 8099 8090 8090 8091 8093 8100 8111 8118 8121 8119 8123 8122 8124 8125 8125 8126 8126 8123 8128 8130 8127 8126 8128 8126 8105 8081 8080 8078 8078 8077 8082 8082 8083 8084 8084 8083 8082 8084 8080 8084 8090 8084 8087 8089 8088 8091 8097 8094 8095 8094 8098 8126 8138 8140 8139 8141 8139 8140 8138 8138 8132 8120 8117 8111 8114 8112 8113 8110 8104 8108 8108 8103 8101 8105 8103 8099 8105 8102 8096 


