P2
80 60
8295
8151 8153 8151 8161 8161 8159 8162 8163 8161 8164 8164 8166 8169 8171 8170 8171 8173 8173 8172 8176 8176 8174 8178 8177 8182 8182 8184 8184 8184 8190 8191 8198 8200 8205 8208 8211 8210 8213 8214 8214 8220 8221 8215 8214 8208 8210 8210 8209 8210 8209 8217 8218 8218 8218 8216 8215 8219 8218 8222 8229 8234 8247 8264 8269 8277 8284 8285 8286 8289 8289 8284 8274 8274 8279 8292 8295 8290 8288 8284 8283 
8149 8148 8153 8162 8163 8162 8160 8163 8165 8164 8164 8166 8170 8169 8170 8171 8171 8173 8172 8175 8175 8174 8176 8176 8181 8182 8183 8187 8187 8193 8193 8195 8201 8205 8208 8208 8208 8213 8214 8217 8216 8217 8215 8211 8206 8208 8206 8208 8209 8210 8212 8215 8217 8219 8213 8214 8219 8216 8222 8231 8237 8252 8270 8277 8284 8282 8285 8288 8286 8291 8287 8275 8274 8281 8291 8295 8287 8282 8280 8277 
8145 8151 8154 8156 8161 8158 8159 8162 8159 8162 8161 8162 8167 8164 8169 8168 8170 8170 8172 8173 8172 8170 8177 8176 8181 8181 8182 8186 8186 8193 8193 8196 8199 8200 8203 8208 8209 8211 8211 8212 8213 8211 8210 8208 8203 8204 8202 8202 8206 8209 8215 8219 8218 8218 8216 8218 8220 8220 8222 8226 8235 8254 8274 8280 8284 8285 8287 8288 8290 8293 8287 8276 8272 8281 8288 8292 8290 8284 8278 8282 
8147 8151 8150 8156 8158 8157 8154 8158 8157 8157 8160 8158 8164 8167 8167 8167 8170 8172 8170 8172 8170 8170 8172 8174 8178 8179 8179 8185 8184 8189 8188 8193 8195 8199 8202 8205 8203 8207 8208 8210 8206 8208 8204 8203 8199 8200 8197 8198 8201 8206 8219 8219 8222 8216 8217 8219 8222 8222 8223 8226 8235 8264 8278 8281 8284 8284 8285 8291 8291 8293 8287 8270 8274 8280 8287 8291 8285 8281 8281 8280 
8144 8144 8145 8148 8154 8151 8150 8152 8150 8156 8156 8160 8157 8161 8163 8165 8164 8166 8165 8168 8166 8166 8169 8165 8173 8174 8175 8179 8183 8186 8184 8188 8192 8194 8199 8198 8201 8201 8204 8204 8204 8205 8203 8201 8196 8194 8193 8193 8194 8198 8213 8224 8219 8219 8219 8220 8222 8224 8226 8228 8238 8264 8278 8279 8284 8284 8288 8289 8289 8288 8281 8273 8277 8282 8287 8289 8289 8282 8278 8277 
8140 8141 8141 8143 8146 8149 8144 8149 8149 8147 8148 8153 8153 8156 8156 8162 8159 8161 8161 8162 8164 8160 8163 8168 8167 8168 8171 8173 8174 8182 8181 8186 8188 8188 8194 8194 8198 8195 8200 8200 8197 8198 8196 8192 8191 8187 8188 8187 8186 8189 8207 8220 8222 8221 8221 8224 8226 8224 8225 8231 8238 8270 8281 8283 8284 8288 8285 8289 8288 8288 8276 8271 8276 8280 8287 8292 8292 8281 8280 8280 
8136 8138 8137 8136 8141 8138 8138 8144 8141 8140 8141 8146 8150 8149 8150 8153 8150 8154 8157 8156 8157 8154 8158 8160 8163 8165 8164 8169 8168 8176 8177 8181 8187 8185 8186 8191 8189 8190 8196 8194 8194 8197 8191 8191 8189 8189 8182 8176 8175 8176 8191 8207 8217 8224 8223 8224 8228 8227 8230 8231 8240 8273 8281 8283 8284 8285 8285 8289 8287 8286 8278 8270 8277 8282 8288 8288 8288 8281 8276 8275 
8127 8125 8129 8126 8129 8129 8130 8133 8134 8132 8132 8136 8143 8147 8145 8146 8145 8145 8151 8157 8157 8155 8159 8160 8168 8167 8169 8169 8172 8178 8181 8185 8190 8190 8189 8191 8194 8195 8195 8195 8193 8192 8192 8188 8186 8188 8182 8175 8171 8170 8178 8186 8211 8223 8225 8225 8227 8229 8232 8235 8244 8274 8276 8281 8285 8286 8287 8287 8286 8288 8275 8272 8278 8282 8288 8286 8282 8277 8274 8273 
8118 8116 8117 8119 8122 8120 8122 8127 8127 8127 8133 8138 8141 8146 8147 8148 8149 8151 8154 8157 8158 8153 8163 8165 8170 8169 8177 8175 8181 8185 8191 8188 8192 8190 8188 8191 8191 8198 8189 8189 8189 8187 8181 8186 8178 8177 8175 8172 8167 8167 8164 8163 8200 8218 8220 8222 8222 8221 8226 8231 8249 8274 8278 8279 8282 8284 8286 8285 8285 8287 8273 8271 8279 8282 8288 8289 8282 8274 8271 8272 
8111 8104 8107 8110 8113 8118 8120 8125 8130 8132 8136 8140 8144 8152 8151 8154 8157 8154 8156 8159 8160 8156 8164 8163 8165 8167 8171 8175 8173 8180 8192 8178 8181 8181 8181 8180 8177 8182 8189 8189 8184 8185 8177 8176 8169 8166 8167 8165 8164 8160 8161 8162 8196 8216 8218 8222 8223 8219 8223 8229 8251 8274 8276 8276 8281 8285 8283 8283 8284 8282 8274 8274 8285 8284 8287 8288 8285 8274 8273 8272 
8104 8103 8103 8108 8112 8115 8122 8126 8130 8133 8141 8142 8150 8157 8156 8157 8161 8161 8160 8164 8162 8162 8166 8167 8170 8170 8169 8168 8171 8176 8176 8174 8180 8175 8173 8171 8178 8179 8184 8179 8173 8171 8166 8163 8160 8161 8158 8158 8160 8160 8159 8164 8194 8218 8218 8221 8224 8222 8226 8236 8258 8277 8279 8279 8280 8284 8282 8285 8286 8281 8268 8272 8283 8281 8285 8287 8282 8272 8271 8274 
8102 8102 8105 8113 8115 8117 8128 8133 8136 8140 8148 8154 8160 8165 8167 8170 8169 8169 8172 8173 8173 8174 8177 8174 8174 8175 8172 8170 8169 8171 8180 8179 8185 8176 8171 8174 8177 8176 8173 8166 8163 8159 8150 8149 8143 8142 8144 8145 8147 8155 8158 8162 8192 8216 8217 8221 8222 8223 8227 8239 8264 8276 8277 8276 8279 8281 8283 8286 8281 8277 8268 8275 8278 8283 8285 8284 8278 8276 8273 8278 
8106 8104 8110 8112 8115 8121 8129 8135 8140 8155 8161 8168 8175 8184 8186 8187 8185 8185 8184 8183 8180 8182 8180 8180 8183 8175 8169 8170 8175 8178 8175 8189 8199 8203 8178 8171 8173 8172 8167 8162 8158 8154 8151 8142 8133 8135 8133 8137 8138 8145 8153 8160 8190 8217 8222 8221 8225 8225 8228 8237 8265 8275 8274 8274 8278 8279 8280 8282 8280 8278 8269 8276 8281 8284 8282 8281 8279 8278 8274 8278 
8101 8104 8108 8112 8118 8126 8130 8139 8156 8169 8175 8181 8187 8189 8202 8197 8197 8196 8190 8188 8186 8179 8183 8179 8178 8169 8170 8175 8179 8181 8178 8179 8193 8179 8170 8178 8179 8182 8172 8156 8145 8144 8143 8144 8134 8136 8135 8138 8149 8146 8159 8154 8193 8217 8223 8227 8232 8228 8231 8237 8263 8271 8274 8273 8275 8276 8277 8278 8278 8272 8267 8276 8280 8281 8284 8281 8278 8277 8276 8275 
8100 8102 8107 8115 8120 8125 8137 8151 8171 8184 8189 8196 8202 8202 8212 8209 8209 8204 8193 8195 8188 8181 8182 8177 8172 8171 8172 8170 8174 8178 8176 8174 8168 8167 8170 8182 8189 8188 8179 8165 8156 8146 8144 8140 8131 8133 8138 8150 8162 8146 8142 8145 8194 8217 8223 8229 8235 8236 8237 8242 8263 8272 8269 8272 8275 8277 8272 8277 8274 8265 8264 8275 8279 8279 8283 8282 8280 8278 8271 8273 
8099 8099 8108 8114 8123 8132 8145 8169 8184 8196 8202 8207 8209 8217 8218 8211 8225 8227 8204 8203 8186 8177 8176 8175 8175 8176 8174 8169 8171 8179 8180 8179 8176 8171 8175 8177 8182 8184 8176 8164 8153 8150 8144 8135 8133 8136 8146 8150 8154 8135 8126 8134 8195 8219 8220 8227 8234 8238 8241 8248 8259 8265 8267 8269 8268 8265 8261 8256 8260 8256 8265 8276 8279 8280 8278 8282 8281 8278 8274 8273 
8102 8104 8114 8119 8124 8135 8155 8185 8198 8204 8214 8216 8214 8219 8221 8217 8226 8221 8211 8209 8187 8180 8172 8170 8176 8179 8176 8167 8166 8170 8177 8179 8178 8169 8173 8171 8174 8173 8169 8167 8168 8170 8162 8161 8169 8168 8155 8160 8148 8142 8135 8144 8198 8219 8220 8228 8237 8240 8244 8250 8255 8258 8258 8258 8254 8245 8233 8229 8235 8248 8261 8273 8277 8277 8280 8281 8281 8275 8276 8273 
8104 8105 8113 8118 8128 8143 8168 8195 8203 8211 8217 8218 8215 8217 8218 8214 8215 8213 8206 8199 8193 8182 8176 8175 8171 8173 8176 8177 8170 8168 8177 8188 8182 8174 8177 8173 8178 8176 8182 8167 8170 8171 8169 8165 8163 8160 8162 8166 8165 8168 8168 8168 8203 8217 8220 8225 8233 8235 8241 8248 8247 8248 8238 8228 8227 8224 8221 8221 8223 8240 8263 8271 8274 8277 8277 8279 8277 8276 8271 8274 
8104 8108 8115 8119 8131 8152 8176 8196 8206 8208 8217 8221 8220 8220 8217 8214 8211 8203 8195 8187 8180 8171 8176 8173 8173 8174 8177 8173 8171 8178 8187 8193 8191 8189 8192 8190 8187 8183 8177 8170 8177 8175 8179 8175 8167 8165 8163 8165 8164 8167 8172 8168 8200 8213 8218 8225 8233 8233 8237 8238 8230 8222 8221 8215 8218 8216 8216 8218 8219 8233 8259 8268 8272 8274 8275 8280 8275 8275 8268 8274 
8118 8123 8129 8133 8147 8173 8189 8202 8207 8210 8216 8218 8219 8214 8210 8207 8200 8196 8192 8187 8178 8173 8171 8176 8184 8183 8186 8182 8179 8188 8198 8203 8205 8203 8204 8202 8196 8183 8176 8177 8186 8179 8174 8165 8159 8160 8157 8156 8157 8160 8171 8170 8198 8218 8222 8226 8229 8232 8224 8219 8214 8213 8214 8211 8218 8215 8215 8218 8218 8226 8255 8270 8273 8272 8275 8281 8276 8273 8269 8265 
8123 8133 8138 8148 8167 8186 8194 8199 8200 8209 8209 8208 8197 8195 8191 8192 8189 8184 8177 8181 8181 8179 8177 8173 8187 8188 8185 8184 8192 8195 8199 8208 8202 8201 8205 8202 8194 8181 8175 8165 8163 8164 8162 8157 8148 8147 8150 8148 8152 8162 8174 8182 8200 8215 8222 8227 8231 8224 8220 8219 8214 8215 8213 8211 8213 8215 8214 8215 8216 8224 8243 8266 8271 8272 8277 8280 8276 8269 8267 8266 
8123 8130 8137 8153 8179 8186 8191 8186 8182 8181 8181 8174 8166 8158 8161 8160 8161 8157 8161 8166 8168 8169 8173 8168 8179 8178 8174 8175 8186 8196 8193 8192 8192 8193 8200 8196 8186 8170 8166 8162 8159 8164 8158 8152 8147 8151 8156 8158 8160 8159 8164 8173 8207 8222 8226 8227 8230 8228 8227 8227 8221 8222 8215 8216 8215 8216 8214 8218 8213 8217 8229 8263 8277 8274 8277 8279 8275 8273 8267 8267 
8127 8132 8144 8162 8187 8184 8182 8175 8167 8164 8158 8154 8149 8149 8149 8152 8149 8148 8156 8160 8158 8161 8166 8165 8171 8174 8176 8176 8186 8197 8194 8188 8202 8207 8209 8201 8206 8202 8197 8200 8202 8209 8205 8208 8205 8211 8207 8206 8209 8206 8213 8216 8221 8228 8229 8227 8228 8228 8225 8224 8225 8225 8223 8222 8219 8220 8219 8220 8216 8216 8222 8252 8272 8276 8273 8280 8276 8271 8268 8268 
8138 8151 8159 8171 8191 8187 8184 8183 8180 8180 8180 8179 8176 8176 8178 8179 8173 8174 8174 8177 8176 8176 8179 8177 8185 8189 8194 8196 8199 8207 8208 8212 8215 8215 8221 8219 8219 8222 8221 8221 8221 8223 8220 8223 8224 8221 8222 8217 8221 8218 8224 8223 8227 8227 8223 8225 8230 8228 8228 8227 8225 8229 8228 8223 8227 8226 8222 8220 8216 8220 8219 8237 8266 8273 8275 8281 8276 8269 8265 8266 
8151 8163 8169 8183 8192 8189 8183 8182 8180 8180 8181 8183 8181 8185 8181 8184 8182 8183 8183 8181 8183 8181 8183 8183 8196 8195 8198 8207 8204 8207 8211 8214 8218 8218 8218 8219 8220 8222 8221 8222 8221 8228 8222 8227 8229 8226 8221 8218 8221 8224 8227 8225 8227 8229 8225 8222 8227 8228 8225 8231 8226 8228 8226 8230 8229 8230 8228 8226 8220 8224 8221 8229 8259 8274 8278 8277 8277 8270 8267 8267 
8150 8161 8181 8183 8189 8185 8184 8183 8181 8181 8182 8184 8184 8186 8184 8189 8184 8185 8181 8182 8187 8183 8185 8187 8194 8199 8204 8208 8208 8208 8211 8217 8217 8222 8223 8224 8228 8229 8223 8224 8225 8230 8230 8231 8234 8231 8227 8221 8224 8222 8227 8228 8229 8234 8227 8225 8223 8225 8226 8225 8227 8226 8229 8228 8231 8231 8231 8230 8228 8228 8227 8232 8254 8272 8276 8277 8274 8268 8268 8269 
8156 8171 8193 8188 8186 8181 8185 8182 8184 8183 8184 8188 8185 8187 8188 8188 8186 8187 8188 8191 8191 8189 8190 8195 8201 8204 8203 8210 8207 8214 8212 8215 8218 8222 8224 8228 8230 8227 8228 8223 8225 8234 8229 8235 8239 8242 8235 8229 8226 8223 8228 8228 8228 8232 8228 8225 8224 8224 8225 8224 8226 8228 8224 8225 8229 8231 8233 8230 8229 8231 8229 8233 8241 8266 8272 8277 8273 8269 8267 8265 
8173 8187 8195 8189 8188 8184 8184 8182 8184 8186 8189 8189 8186 8188 8189 8193 8195 8193 8193 8200 8195 8194 8195 8199 8204 8207 8207 8210 8213 8219 8217 8219 8221 8221 8225 8228 8226 8225 8224 8225 8226 8228 8235 8234 8239 8238 8236 8229 8227 8221 8228 8229 8224 8229 8227 8226 8226 8224 8223 8225 8224 8227 8229 8231 8231 8232 8234 8230 8231 8232 8231 8231 8234 8261 8274 8277 8273 8268 8265 8267 
8183 8189 8188 8188 8188 8187 8188 8188 8189 8186 8186 8189 8186 8188 8192 8194 8194 8192 8194 8199 8200 8195 8198 8203 8205 8204 8204 8211 8213 8217 8216 8216 8221 8222 8226 8226 8226 8228 8227 8225 8226 8232 8231 8237 8234 8240 8233 8230 8228 8226 8224 8223 8222 8225 8225 8224 8228 8225 8225 8221 8223 8226 8228 8227 8229 8230 8233 8233 8232 8232 8232 8230 8231 8249 8271 8275 8273 8269 8262 8263 
8194 8193 8190 8190 8189 8184 8187 8189 8187 8185 8186 8184 8186 8186 8188 8193 8194 8192 8190 8199 8198 8196 8203 8201 8206 8203 8195 8193 8205 8216 8216 8215 8219 8220 8225 8229 8230 8227 8224 8225 8229 8233 8235 8240 8240 8238 8233 8230 8229 8230 8228 8226 8220 8222 8222 8223 8226 8224 8222 8221 8222 8222 8225 8225 8229 8226 8228 8230 8231 8230 8232 8234 8231 8240 8266 8276 8272 8267 8262 8260 
8207 8202 8197 8192 8192 8185 8185 8185 8188 8184 8184 8185 8186 8186 8191 8190 8191 8190 8192 8194 8194 8194 8196 8200 8201 8202 8184 8160 8188 8207 8214 8215 8220 8217 8222 8222 8221 8220 8220 8223 8223 8232 8236 8239 8238 8236 8234 8230 8227 8226 8228 8219 8221 8222 8220 8221 8225 8221 8222 8222 8219 8222 8224 8225 8224 8227 8229 8227 8228 8233 8232 8234 8229 8234 8259 8271 8268 8263 8257 8262 
8216 8213 8198 8190 8189 8186 8184 8187 8182 8183 8184 8184 8184 8186 8186 8192 8189 8187 8189 8188 8191 8190 8195 8196 8197 8198 8194 8162 8157 8187 8208 8214 8218 8211 8205 8204 8202 8201 8210 8210 8212 8217 8226 8238 8236 8236 8233 8229 8225 8225 8223 8217 8216 8217 8216 8220 8222 8219 8219 8219 8220 8222 8224 8224 8226 8226 8227 8227 8229 8232 8230 8232 8233 8232 8252 8265 8265 8260 8258 8257 
8229 8227 8202 8193 8189 8182 8184 8184 8182 8179 8182 8182 8182 8186 8185 8188 8188 8191 8190 8191 8189 8187 8191 8194 8194 8198 8198 8194 8166 8160 8184 8205 8203 8182 8186 8176 8165 8172 8200 8214 8216 8215 8212 8221 8234 8238 8235 8229 8227 8222 8224 8219 8215 8218 8219 8218 8223 8221 8219 8221 8220 8221 8225 8228 8229 8229 8229 8232 8230 8233 8233 8234 8227 8225 8243 8264 8261 8256 8253 8248 
8246 8241 8204 8197 8191 8185 8186 8188 8186 8186 8188 8184 8184 8187 8185 8189 8187 8191 8190 8192 8192 8188 8191 8193 8196 8199 8203 8204 8199 8168 8159 8170 8173 8164 8178 8133 8121 8123 8165 8179 8192 8217 8212 8208 8215 8228 8229 8226 8222 8224 8221 8219 8216 8217 8217 8220 8222 8220 8219 8220 8222 8225 8225 8226 8230 8233 8233 8233 8232 8236 8236 8234 8230 8226 8232 8252 8256 8253 8251 8246 
8251 8239 8205 8202 8196 8195 8194 8192 8188 8186 8187 8188 8186 8187 8190 8190 8188 8189 8192 8197 8196 8195 8194 8193 8197 8200 8199 8204 8205 8179 8155 8142 8148 8158 8155 8125 8125 8131 8135 8141 8148 8163 8193 8222 8211 8219 8230 8225 8221 8220 8218 8215 8215 8217 8216 8218 8221 8219 8219 8223 8224 8229 8228 8231 8233 8233 8236 8234 8234 8238 8239 8236 8233 8225 8228 8241 8248 8246 8246 8242 
8253 8228 8205 8205 8204 8196 8198 8195 8190 8194 8193 8191 8187 8190 8188 8189 8189 8188 8192 8196 8196 8195 8197 8197 8199 8201 8203 8207 8194 8169 8145 8141 8145 8154 8159 8153 8125 8140 8146 8115 8113 8113 8148 8193 8217 8208 8221 8222 8220 8216 8218 8215 8216 8216 8218 8219 8225 8223 8222 8225 8228 8230 8231 8233 8232 8233 8233 8237 8236 8239 8241 8242 8235 8226 8226 8235 8242 8242 8239 8238 
8249 8219 8206 8203 8201 8198 8197 8196 8194 8196 8196 8190 8191 8188 8190 8192 8190 8194 8191 8195 8197 8192 8196 8197 8203 8202 8204 8204 8177 8149 8138 8137 8145 8137 8142 8138 8139 8137 8134 8128 8125 8115 8108 8127 8187 8219 8210 8218 8216 8218 8215 8217 8219 8215 8219 8220 8224 8224 8223 8228 8230 8235 8229 8232 8235 8233 8231 8235 8235 8241 8241 8240 8236 8225 8227 8226 8235 8229 8226 8232 
8249 8214 8204 8199 8196 8193 8189 8196 8196 8196 8194 8192 8191 8189 8190 8190 8190 8192 8192 8196 8197 8197 8203 8199 8204 8202 8203 8201 8165 8149 8143 8145 8144 8134 8112 8106 8118 8120 8116 8111 8117 8105 8107 8123 8163 8211 8213 8214 8212 8209 8213 8216 8214 8218 8220 8222 8227 8223 8227 8228 8228 8234 8230 8235 8237 8232 8233 8234 8234 8240 8240 8243 8235 8228 8225 8224 8222 8224 8225 8226 
8246 8206 8202 8201 8196 8189 8192 8195 8195 8197 8194 8192 8190 8188 8186 8187 8188 8191 8194 8198 8205 8201 8202 8201 8204 8204 8201 8199 8153 8139 8147 8145 8129 8106 8099 8093 8103 8110 8107 8107 8108 8107 8118 8145 8165 8188 8213 8209 8211 8211 8217 8220 8216 8217 8220 8221 8226 8226 8227 8230 8232 8233 8230 8235 8234 8233 8234 8236 8233 8237 8239 8240 8235 8227 8224 8221 8224 8230 8223 8225 
8238 8203 8201 8199 8198 8195 8191 8193 8194 8194 8193 8194 8189 8188 8188 8188 8191 8194 8201 8205 8207 8202 8203 8203 8203 8204 8200 8200 8166 8143 8152 8153 8132 8102 8099 8098 8106 8106 8103 8110 8113 8130 8137 8151 8154 8172 8213 8212 8209 8213 8223 8220 8219 8219 8220 8224 8229 8228 8230 8229 8229 8229 8233 8232 8232 8232 8230 8234 8233 8234 8240 8238 8236 8229 8221 8221 8222 8229 8225 8224 
8228 8200 8202 8198 8196 8198 8194 8195 8192 8195 8194 8194 8189 8190 8190 8193 8193 8199 8202 8205 8206 8205 8203 8202 8204 8202 8200 8200 8178 8139 8134 8142 8137 8115 8101 8104 8098 8093 8100 8110 8117 8137 8148 8149 8147 8164 8215 8223 8217 8216 8222 8221 8219 8219 8220 8227 8231 8228 8227 8229 8231 8229 8231 8231 8232 8234 8232 8232 8232 8235 8236 8238 8238 8229 8226 8223 8219 8224 8225 8224 
8219 8199 8199 8199 8196 8195 8195 8197 8197 8194 8193 8190 8190 8192 8194 8200 8200 8200 8202 8206 8208 8203 8205 8205 8202 8201 8197 8199 8182 8155 8129 8130 8111 8104 8100 8104 8096 8093 8104 8114 8123 8138 8147 8154 8159 8174 8227 8225 8219 8218 8220 8220 8216 8219 8222 8227 8230 8228 8230 8231 8227 8232 8232 8230 8232 8229 8230 8231 8232 8231 8234 8238 8238 8228 8223 8220 8214 8218 8223 8223 
8206 8200 8199 8195 8193 8194 8192 8195 8193 8195 8194 8193 8194 8198 8199 8201 8204 8203 8202 8206 8206 8206 8202 8202 8203 8200 8200 8194 8173 8160 8137 8134 8106 8107 8116 8118 8107 8100 8104 8111 8113 8122 8143 8158 8168 8199 8226 8220 8221 8220 8223 8221 8221 8217 8221 8222 8230 8230 8232 8232 8227 8232 8232 8228 8232 8231 8232 8229 8225 8232 8233 8238 8234 8229 8224 8221 8213 8210 8220 8226 
8205 8200 8197 8199 8196 8193 8193 8198 8193 8191 8194 8197 8200 8205 8205 8203 8199 8202 8204 8206 8208 8204 8204 8203 8204 8203 8198 8194 8170 8169 8146 8126 8104 8112 8119 8125 8122 8118 8106 8105 8118 8125 8146 8166 8169 8207 8218 8220 8219 8220 8223 8219 8219 8220 8218 8220 8230 8227 8228 8230 8232 8233 8232 8230 8229 8229 8230 8229 8231 8230 8231 8236 8233 8229 8224 8216 8209 8206 8215 8222 
8203 8199 8196 8198 8195 8193 8195 8196 8192 8198 8200 8204 8204 8206 8204 8204 8204 8203 8206 8204 8206 8203 8204 8203 8201 8201 8196 8194 8168 8182 8168 8138 8120 8123 8130 8127 8132 8125 8109 8109 8118 8132 8146 8148 8169 8207 8225 8223 8224 8220 8226 8222 8221 8220 8220 8222 8229 8229 8229 8232 8230 8230 8230 8230 8227 8226 8228 8228 8228 8229 8230 8233 8232 8228 8224 8218 8210 8208 8211 8215 
8201 8199 8200 8197 8198 8192 8193 8196 8197 8202 8202 8203 8204 8206 8206 8204 8201 8203 8202 8203 8204 8201 8202 8201 8201 8200 8196 8196 8172 8189 8188 8161 8150 8141 8139 8137 8134 8125 8113 8127 8126 8132 8148 8170 8192 8211 8225 8224 8225 8225 8228 8224 8220 8220 8219 8222 8225 8230 8230 8230 8232 8230 8229 8228 8230 8230 8227 8225 8227 8232 8231 8232 8235 8228 8226 8222 8210 8210 8210 8210 
8200 8201 8198 8196 8199 8195 8198 8203 8204 8204 8203 8208 8203 8203 8204 8204 8204 8202 8201 8207 8203 8203 8200 8202 8204 8198 8195 8199 8184 8183 8203 8171 8165 8163 8158 8150 8141 8138 8146 8150 8147 8161 8180 8195 8198 8220 8225 8225 8226 8226 8228 8224 8221 8221 8219 8220 8225 8227 8228 8231 8228 8230 8229 8228 8229 8227 8225 8226 8227 8229 8231 8230 8230 8227 8227 8223 8210 8204 8205 8207 
8201 8205 8203 8202 8202 8199 8200 8203 8205 8207 8207 8207 8204 8204 8205 8204 8202 8203 8198 8204 8201 8201 8204 8199 8201 8201 8200 8199 8192 8178 8203 8192 8169 8169 8168 8165 8161 8164 8170 8174 8182 8193 8197 8202 8204 8224 8230 8227 8229 8227 8230 8230 8224 8221 8219 8219 8223 8221 8227 8229 8227 8228 8228 8226 8230 8228 8224 8226 8227 8229 8229 8232 8229 8229 8230 8224 8213 8207 8205 8209 
8204 8202 8202 8200 8207 8204 8202 8208 8206 8208 8204 8207 8203 8206 8203 8202 8200 8202 8198 8200 8199 8199 8201 8197 8200 8196 8200 8199 8195 8199 8186 8206 8182 8171 8173 8174 8175 8174 8180 8184 8187 8193 8203 8207 8218 8227 8232 8228 8230 8227 8230 8230 8226 8222 8217 8219 8221 8220 8221 8227 8227 8228 8225 8225 8226 8225 8224 8226 8224 8229 8228 8231 8228 8226 8225 8221 8213 8206 8201 8202 
8199 8202 8198 8200 8203 8202 8203 8209 8206 8201 8204 8204 8202 8204 8204 8201 8200 8198 8195 8200 8200 8198 8198 8198 8200 8197 8196 8198 8199 8201 8199 8190 8191 8184 8171 8169 8171 8176 8179 8185 8188 8202 8206 8220 8227 8233 8230 8232 8228 8228 8232 8230 8224 8223 8218 8219 8221 8220 8221 8223 8224 8227 8224 8224 8224 8221 8225 8224 8226 8226 8228 8229 8227 8222 8222 8220 8208 8204 8199 8202 
8200 8200 8199 8200 8203 8200 8204 8205 8203 8202 8201 8203 8203 8203 8203 8200 8198 8196 8194 8193 8196 8193 8196 8197 8200 8195 8192 8192 8190 8196 8200 8205 8201 8192 8186 8178 8180 8180 8187 8191 8203 8212 8224 8230 8229 8235 8232 8231 8233 8229 8231 8228 8225 8221 8220 8217 8224 8221 8222 8223 8220 8225 8222 8222 8219 8221 8224 8221 8222 8221 8226 8222 8221 8216 8216 8214 8206 8195 8195 8201 
8197 8199 8199 8202 8203 8201 8200 8203 8203 8202 8201 8200 8200 8203 8199 8199 8192 8191 8188 8189 8192 8194 8193 8195 8197 8188 8191 8196 8196 8200 8200 8202 8207 8207 8206 8194 8193 8196 8204 8207 8219 8224 8229 8235 8234 8235 8236 8232 8233 8228 8235 8230 8224 8225 8221 8216 8217 8214 8218 8220 8215 8218 8214 8216 8216 8218 8217 8216 8214 8218 8218 8221 8218 8213 8210 8209 8202 8195 8192 8198 
8197 8197 8198 8203 8204 8202 8201 8198 8199 8194 8194 8197 8197 8196 8198 8196 8192 8184 8178 8180 8188 8190 8194 8191 8191 8188 8191 8196 8194 8201 8197 8198 8207 8207 8209 8208 8206 8206 8213 8217 8221 8229 8229 8232 8233 8235 8235 8235 8230 8230 8230 8230 8226 8222 8218 8215 8216 8214 8213 8213 8212 8216 8213 8210 8213 8213 8212 8209 8209 8215 8213 8216 8212 8206 8207 8205 8199 8195 8192 8194 
8196 8197 8197 8201 8198 8197 8198 8197 8193 8190 8191 8190 8193 8192 8192 8187 8182 8178 8174 8177 8185 8187 8188 8187 8191 8189 8190 8192 8192 8197 8197 8196 8204 8210 8211 8211 8211 8213 8217 8222 8224 8231 8232 8231 8230 8235 8232 8230 8232 8233 8234 8229 8225 8225 8220 8217 8213 8212 8211 8212 8210 8209 8209 8209 8208 8206 8206 8206 8207 8206 8210 8212 8210 8203 8201 8199 8197 8190 8189 8192 
8197 8196 8199 8197 8195 8192 8193 8191 8187 8185 8187 8185 8186 8188 8184 8180 8176 8175 8176 8180 8183 8178 8185 8184 8185 8186 8184 8191 8187 8195 8193 8196 8203 8208 8209 8212 8215 8215 8219 8221 8226 8231 8233 8231 8230 8231 8230 8228 8234 8233 8233 8233 8228 8225 8218 8214 8215 8211 8211 8208 8208 8206 8203 8206 8206 8207 8206 8205 8206 8205 8209 8207 8208 8199 8198 8196 8197 8187 8190 8187 
8194 8194 8196 8192 8190 8186 8187 8184 8181 8179 8181 8180 8180 8181 8180 8178 8174 8173 8172 8178 8175 8178 8179 8183 8180 8178 8182 8188 8184 8191 8193 8197 8203 8205 8211 8211 8215 8217 8220 8222 8225 8230 8228 8229 8226 8230 8228 8229 8229 8231 8233 8233 8226 8223 8220 8213 8216 8208 8208 8207 8209 8204 8206 8204 8203 8204 8205 8204 8205 8206 8208 8206 8202 8197 8197 8195 8190 8187 8184 8183 
8198 8191 8192 8190 8187 8185 8184 8178 8178 8175 8176 8177 8176 8179 8177 8172 8171 8172 8169 8174 8173 8173 8176 8177 8178 8175 8177 8186 8187 8191 8188 8194 8201 8200 8207 8210 8212 8215 8221 8222 8223 8232 8233 8228 8227 8229 8225 8226 8229 8230 8231 8230 8225 8221 8218 8213 8209 8209 8203 8206 8201 8201 8200 8200 8202 8204 8200 8202 8203 8203 8204 8204 8200 8194 8193 8191 8188 8183 8181 8184 
8196 8196 8189 8187 8186 8181 8179 8177 8172 8176 8174 8174 8171 8175 8171 8168 8168 8166 8166 8175 8172 8173 8174 8172 8180 8177 8176 8186 8188 8194 8191 8192 8199 8200 8205 8208 8210 8212 8219 8221 8226 8230 8228 8229 8227 8226 8224 8227 8229 8228 8232 8226 8222 8221 8213 8210 8212 8205 8202 8205 8203 8200 8198 8198 8200 8198 8200 8202 8200 8203 8204 8199 8199 8191 8188 8189 8184 8181 8181 8179 
8198 8193 8189 8186 8187 8179 8177 8178 8173 8171 8169 8171 8174 8172 8170 8169 8166 8166 8166 8173 8173 8169 8172 8172 8178 8180 8183 8187 8190 8194 8194 8197 8198 8199 8207 8206 8211 8216 8222 8223 8226 8232 8231 8225 8222 8226 8224 8229 8229 8228 8226 8231 8223 8219 8215 8209 8210 8204 8202 8207 8200 8202 8198 8200 8198 8200 8199 8202 8200 8203 8204 8203 8195 8189 8190 8189 8186 8180 8178 8178 
8202 8189 8188 8185 8187 8181 8181 8178 8171 8170 8172 8174 8170 8171 8170 8166 8165 8165 8168 8166 8167 8168 8171 8174 8178 8182 8181 8188 8187 8191 8191 8193 8197 8199 8204 8208 8213 8217 8223 8224 8227 8229 8227 8227 8224 8223 8226 8232 8232 8231 8231 8230 8220 8218 8210 8205 8207 8199 8198 8198 8196 8197 8195 8194 8193 8194 8194 8195 8196 8194 8196 8195 8193 8188 8190 8191 8184 8179 8177 8183 


