P2
80 60
8474
8347 8348 8355 8346 8352 8351 8346 8350 8345 8344 8349 8347 8347 8346 8344 8345 8346 8344 8343 8349 8343 8347 8351 8349 8347 8346 8344 8352 8351 8346 8350 8348 8353 8351 8352 8353 8358 8358 8354 8353 8351 8349 8350 8351 8346 8346 8347 8349 8346 8347 8344 8353 8344 8344 8339 8336 8336 8329 8329 8330 8329 8328 8324 8327 8330 8326 8324 8333 8337 8338 8336 8346 8343 8346 8344 8346 8348 8350 8352 8351 
8343 8347 8357 8346 8347 8349 8346 8345 8344 8346 8345 8348 8344 8342 8340 8340 8343 8343 8342 8345 8340 8343 8345 8342 8344 8344 8343 8344 8346 8343 8343 8346 8347 8346 8346 8351 8349 8354 8353 8351 8348 8350 8347 8340 8344 8342 8344 8345 8347 8345 8341 8343 8341 8343 8338 8335 8333 8329 8329 8327 8327 8324 8320 8325 8324 8326 8328 8331 8339 8338 8336 8338 8340 8346 8348 8346 8350 8351 8353 8352 
8340 8335 8346 8342 8347 8341 8341 8346 8343 8341 8344 8342 8339 8338 8335 8338 8341 8339 8338 8340 8339 8340 8340 8340 8343 8341 8336 8343 8346 8339 8338 8343 8348 8345 8344 8349 8348 8348 8349 8350 8348 8342 8345 8345 8341 8338 8339 8342 8342 8341 8344 8342 8338 8340 8333 8333 8329 8328 8327 8324 8327 8326 8321 8322 8321 8321 8326 8329 8334 8335 8334 8337 8340 8344 8347 8345 8351 8349 8351 8349 
8339 8333 8345 8336 8344 8337 8339 8341 8340 8337 8338 8333 8336 8332 8337 8336 8338 8337 8335 8333 8336 8334 8331 8339 8335 8338 8341 8346 8343 8341 8338 8341 8343 8344 8346 8349 8351 8350 8348 8348 8348 8344 8342 8336 8337 8338 8340 8342 8343 8342 8338 8342 8339 8337 8335 8329 8327 8327 8324 8324 8327 8324 8322 8319 8319 8320 8322 8323 8332 8334 8332 8331 8332 8342 8339 8342 8347 8346 8349 8346 
8341 8335 8342 8336 8341 8343 8344 8339 8336 8334 8335 8333 8334 8334 8330 8334 8336 8335 8336 8335 8334 8333 8333 8336 8339 8341 8339 8340 8340 8339 8339 8343 8343 8342 8344 8348 8347 8346 8345 8340 8345 8345 8339 8334 8334 8335 8334 8339 8339 8341 8340 8339 8339 8339 8331 8330 8328 8323 8322 8321 8325 8322 8317 8315 8317 8319 8316 8314 8325 8335 8326 8328 8329 8336 8334 8338 8343 8341 8348 8340 
8341 8335 8342 8337 8342 8343 8344 8339 8337 8333 8329 8332 8334 8332 8330 8332 8333 8332 8334 8337 8332 8335 8335 8335 8339 8340 8336 8336 8339 8339 8341 8343 8341 8338 8341 8344 8347 8346 8344 8342 8344 8343 8340 8331 8336 8336 8332 8337 8336 8338 8337 8339 8337 8336 8333 8325 8326 8323 8319 8320 8322 8319 8319 8314 8316 8315 8314 8313 8318 8322 8324 8325 8329 8327 8330 8330 8333 8331 8340 8339 
8343 8341 8343 8346 8342 8342 8341 8343 8340 8329 8329 8335 8333 8332 8329 8334 8335 8331 8336 8338 8333 8338 8339 8339 8339 8339 8336 8338 8340 8339 8339 8339 8341 8341 8343 8345 8345 8342 8341 8343 8342 8340 8338 8333 8337 8336 8335 8335 8337 8334 8335 8339 8335 8335 8328 8326 8322 8319 8319 8319 8318 8316 8317 8311 8312 8315 8320 8317 8313 8315 8319 8323 8321 8322 8323 8324 8323 8326 8332 8330 
8347 8338 8337 8341 8342 8340 8343 8344 8340 8326 8333 8335 8332 8329 8330 8331 8331 8333 8333 8334 8332 8336 8335 8337 8336 8338 8330 8335 8339 8337 8338 8340 8342 8339 8343 8346 8343 8339 8339 8341 8340 8341 8336 8336 8333 8331 8336 8336 8337 8335 8333 8332 8332 8332 8327 8322 8319 8317 8315 8313 8314 8314 8314 8310 8309 8315 8317 8318 8311 8313 8312 8315 8316 8318 8321 8319 8323 8323 8327 8325 
8342 8338 8340 8336 8341 8343 8342 8344 8337 8328 8334 8335 8326 8328 8326 8328 8328 8330 8334 8334 8332 8336 8335 8337 8337 8335 8332 8337 8336 8336 8337 8334 8341 8337 8340 8344 8342 8340 8340 8338 8337 8336 8336 8332 8333 8330 8331 8331 8333 8331 8332 8333 8331 8329 8323 8318 8319 8316 8312 8309 8314 8311 8312 8312 8309 8312 8311 8315 8312 8310 8313 8313 8309 8312 8312 8318 8318 8316 8323 8316 
8344 8334 8340 8339 8340 8336 8332 8339 8338 8333 8331 8330 8328 8327 8324 8324 8325 8327 8330 8332 8332 8335 8332 8330 8333 8330 8332 8339 8336 8335 8335 8331 8336 8337 8340 8343 8343 8341 8339 8339 8340 8337 8336 8330 8332 8332 8332 8328 8334 8330 8334 8331 8332 8329 8324 8317 8315 8313 8313 8315 8312 8310 8308 8310 8308 8309 8311 8308 8310 8311 8310 8309 8307 8308 8310 8311 8314 8314 8315 8315 
8344 8335 8344 8335 8336 8335 8334 8340 8336 8329 8333 8330 8328 8325 8324 8324 8326 8324 8325 8328 8332 8331 8331 8334 8328 8331 8332 8337 8337 8337 8334 8331 8334 8339 8340 8336 8337 8339 8337 8339 8333 8335 8335 8334 8333 8332 8333 8331 8330 8332 8332 8330 8327 8329 8322 8315 8313 8311 8314 8314 8311 8309 8305 8304 8301 8308 8308 8305 8305 8309 8306 8307 8305 8303 8304 8305 8308 8307 8313 8311 
8344 8338 8342 8336 8331 8333 8336 8333 8330 8326 8331 8326 8325 8320 8324 8323 8323 8324 8324 8332 8327 8325 8329 8332 8329 8329 8334 8334 8337 8334 8335 8329 8334 8335 8331 8337 8340 8338 8338 8334 8335 8334 8335 8334 8334 8332 8333 8331 8329 8332 8332 8334 8329 8331 8320 8314 8311 8307 8310 8308 8311 8306 8306 8303 8301 8304 8304 8305 8304 8303 8301 8302 8300 8303 8300 8303 8308 8306 8305 8304 
8348 8340 8339 8330 8330 8336 8331 8331 8328 8326 8329 8324 8323 8322 8322 8322 8323 8330 8327 8328 8327 8326 8325 8328 8331 8328 8328 8334 8334 8334 8335 8330 8332 8332 8333 8335 8336 8339 8335 8334 8332 8334 8336 8336 8332 8331 8328 8329 8329 8331 8332 8333 8331 8329 8323 8312 8313 8308 8309 8304 8305 8304 8302 8303 8305 8305 8304 8303 8306 8302 8302 8300 8301 8298 8298 8303 8306 8300 8303 8302 
8346 8344 8339 8333 8332 8333 8332 8326 8325 8322 8328 8324 8322 8319 8320 8323 8326 8329 8325 8326 8326 8325 8322 8329 8325 8328 8326 8327 8329 8331 8333 8327 8333 8330 8329 8336 8336 8338 8333 8331 8332 8331 8336 8334 8334 8328 8328 8328 8327 8329 8330 8332 8330 8328 8325 8314 8312 8307 8304 8304 8304 8301 8300 8302 8307 8304 8304 8304 8304 8303 8300 8299 8297 8296 8295 8303 8302 8299 8302 8301 
8345 8334 8343 8335 8332 8329 8328 8326 8324 8321 8327 8323 8320 8320 8320 8321 8324 8323 8325 8326 8321 8322 8323 8326 8325 8322 8325 8326 8326 8326 8326 8327 8326 8328 8329 8334 8333 8333 8329 8327 8326 8326 8330 8330 8326 8327 8326 8325 8329 8326 8322 8321 8315 8322 8318 8315 8312 8308 8305 8304 8300 8298 8300 8302 8301 8308 8304 8300 8301 8301 8298 8296 8293 8297 8294 8295 8297 8292 8297 8300 
8344 8332 8336 8333 8332 8323 8325 8327 8324 8323 8330 8324 8321 8320 8320 8321 8321 8321 8325 8324 8322 8317 8317 8322 8319 8321 8323 8326 8325 8326 8324 8322 8309 8302 8327 8329 8323 8314 8309 8302 8294 8297 8316 8326 8322 8319 8315 8319 8319 8310 8315 8319 8309 8305 8308 8307 8310 8308 8301 8304 8301 8297 8301 8299 8303 8303 8304 8299 8299 8301 8297 8296 8291 8292 8291 8292 8294 8292 8295 8292 
8338 8329 8330 8330 8328 8324 8322 8320 8323 8323 8326 8322 8319 8320 8317 8319 8320 8325 8321 8318 8317 8317 8319 8316 8315 8320 8322 8325 8325 8322 8323 8317 8286 8306 8304 8291 8282 8273 8265 8255 8259 8259 8272 8298 8283 8287 8294 8296 8302 8317 8325 8328 8326 8312 8287 8286 8299 8301 8300 8298 8300 8296 8299 8296 8301 8302 8300 8300 8301 8298 8297 8297 8292 8295 8294 8289 8291 8289 8290 8288 
8341 8331 8333 8329 8326 8328 8323 8324 8323 8320 8325 8324 8321 8321 8318 8319 8319 8321 8316 8317 8317 8319 8312 8298 8307 8301 8314 8313 8318 8313 8310 8306 8298 8301 8285 8283 8278 8273 8266 8262 8258 8260 8269 8273 8289 8311 8295 8276 8292 8309 8322 8328 8323 8322 8295 8274 8281 8297 8297 8298 8298 8297 8297 8297 8300 8302 8302 8301 8302 8298 8296 8296 8292 8291 8291 8291 8290 8285 8288 8287 
8338 8331 8331 8328 8326 8324 8326 8326 8323 8322 8327 8323 8323 8320 8318 8319 8318 8320 8316 8313 8311 8314 8309 8266 8268 8278 8291 8292 8292 8288 8295 8297 8299 8289 8281 8280 8267 8245 8244 8246 8250 8247 8272 8290 8290 8278 8283 8288 8291 8292 8308 8322 8320 8317 8307 8277 8267 8278 8293 8296 8298 8297 8297 8299 8303 8296 8297 8297 8299 8302 8297 8296 8293 8297 8294 8294 8291 8288 8288 8288 
8340 8330 8331 8326 8323 8321 8323 8329 8325 8318 8325 8321 8320 8317 8320 8317 8316 8311 8304 8294 8280 8296 8284 8276 8253 8245 8249 8278 8282 8282 8280 8277 8275 8268 8266 8277 8283 8252 8251 8247 8245 8247 8281 8285 8269 8281 8287 8285 8287 8280 8299 8312 8309 8314 8306 8289 8268 8269 8282 8293 8295 8296 8298 8298 8298 8297 8295 8294 8302 8298 8296 8297 8296 8293 8294 8293 8291 8288 8288 8284 
8338 8329 8329 8319 8322 8320 8317 8325 8321 8318 8321 8320 8315 8317 8313 8315 8303 8276 8264 8255 8260 8283 8288 8269 8253 8238 8234 8255 8260 8273 8270 8267 8259 8255 8248 8268 8280 8282 8278 8265 8245 8246 8265 8285 8280 8285 8284 8275 8267 8260 8258 8261 8279 8302 8302 8300 8276 8267 8267 8275 8293 8295 8297 8294 8297 8300 8296 8298 8300 8299 8295 8296 8295 8295 8292 8294 8288 8285 8288 8288 
8337 8332 8328 8321 8320 8322 8310 8317 8317 8316 8319 8317 8316 8315 8309 8302 8271 8250 8236 8238 8250 8268 8279 8259 8256 8253 8246 8260 8254 8265 8281 8278 8278 8268 8273 8270 8268 8276 8277 8263 8235 8241 8259 8294 8281 8262 8262 8255 8247 8244 8245 8245 8249 8274 8286 8294 8273 8258 8255 8262 8290 8294 8298 8295 8299 8300 8296 8298 8299 8299 8298 8296 8293 8292 8293 8294 8291 8289 8291 8290 
8338 8333 8328 8326 8325 8318 8313 8315 8311 8316 8322 8320 8316 8314 8297 8263 8248 8244 8240 8235 8237 8246 8275 8247 8243 8253 8256 8252 8253 8276 8275 8274 8275 8275 8272 8269 8268 8272 8267 8265 8232 8250 8276 8293 8288 8259 8244 8250 8245 8239 8244 8230 8231 8233 8232 8266 8260 8255 8249 8262 8286 8291 8295 8297 8296 8297 8297 8297 8299 8295 8295 8294 8290 8294 8292 8291 8289 8288 8288 8286 
8335 8332 8328 8324 8319 8321 8316 8311 8316 8318 8321 8316 8318 8300 8274 8259 8256 8260 8254 8256 8254 8255 8248 8248 8248 8258 8253 8248 8261 8271 8274 8275 8278 8271 8262 8256 8248 8239 8253 8246 8225 8256 8266 8271 8268 8244 8241 8247 8255 8256 8285 8255 8243 8233 8224 8232 8262 8255 8251 8260 8284 8290 8290 8293 8295 8295 8298 8296 8297 8295 8293 8293 8290 8291 8293 8288 8290 8290 8290 8288 
8337 8327 8329 8326 8322 8318 8313 8319 8318 8313 8321 8318 8311 8281 8268 8261 8263 8263 8260 8257 8262 8264 8256 8245 8239 8249 8245 8248 8252 8263 8269 8270 8267 8255 8235 8209 8207 8223 8230 8235 8255 8267 8268 8271 8288 8278 8263 8253 8272 8266 8269 8253 8244 8230 8229 8267 8283 8270 8255 8260 8273 8264 8272 8276 8282 8289 8292 8297 8298 8295 8292 8294 8291 8293 8292 8289 8290 8291 8292 8289 
8337 8327 8326 8323 8322 8315 8318 8311 8313 8315 8315 8317 8290 8275 8268 8260 8258 8262 8264 8265 8264 8262 8250 8238 8232 8242 8237 8236 8238 8234 8240 8233 8231 8227 8225 8215 8204 8218 8232 8248 8259 8264 8261 8258 8297 8296 8284 8272 8257 8263 8274 8275 8250 8222 8238 8281 8287 8295 8286 8275 8266 8268 8267 8267 8270 8277 8279 8287 8289 8292 8290 8290 8288 8291 8291 8290 8291 8287 8289 8289 
8337 8328 8327 8323 8320 8317 8317 8311 8311 8312 8316 8307 8277 8268 8270 8269 8267 8268 8271 8264 8264 8260 8251 8249 8233 8239 8238 8237 8235 8224 8220 8223 8223 8218 8221 8232 8236 8233 8240 8256 8259 8250 8244 8247 8274 8297 8294 8281 8273 8279 8283 8278 8243 8238 8250 8269 8288 8299 8294 8288 8279 8276 8276 8274 8273 8279 8277 8274 8285 8289 8284 8285 8286 8288 8289 8288 8288 8286 8289 8286 
8333 8326 8327 8321 8323 8317 8314 8311 8311 8314 8312 8289 8278 8272 8274 8275 8276 8278 8277 8269 8269 8261 8272 8274 8235 8238 8240 8246 8243 8226 8225 8222 8220 8218 8220 8237 8237 8235 8251 8255 8247 8235 8231 8250 8268 8289 8294 8287 8278 8271 8270 8259 8220 8241 8262 8266 8282 8293 8289 8291 8288 8281 8280 8270 8274 8279 8280 8273 8276 8283 8284 8283 8284 8285 8285 8286 8288 8287 8291 8288 
8332 8324 8329 8326 8322 8319 8316 8314 8316 8315 8308 8287 8284 8276 8278 8273 8285 8290 8284 8282 8273 8269 8287 8290 8256 8240 8240 8249 8237 8225 8229 8229 8222 8219 8228 8239 8250 8236 8253 8250 8257 8279 8261 8258 8262 8280 8296 8290 8273 8265 8261 8246 8262 8265 8257 8264 8263 8269 8283 8282 8282 8287 8283 8276 8268 8266 8276 8275 8274 8277 8280 8283 8281 8282 8282 8285 8284 8288 8289 8286 
8330 8324 8331 8328 8325 8322 8321 8319 8317 8314 8307 8290 8289 8283 8284 8288 8289 8290 8292 8283 8269 8285 8289 8286 8266 8251 8243 8245 8238 8239 8238 8231 8227 8224 8241 8239 8248 8243 8255 8264 8287 8293 8276 8232 8250 8268 8285 8287 8279 8272 8264 8252 8244 8243 8249 8258 8261 8261 8272 8282 8282 8293 8293 8282 8278 8273 8265 8265 8270 8271 8274 8278 8277 8279 8280 8279 8283 8285 8285 8284 
8333 8328 8327 8326 8324 8321 8315 8315 8314 8314 8299 8289 8286 8293 8297 8293 8291 8289 8292 8286 8288 8289 8293 8288 8264 8255 8242 8239 8245 8254 8237 8226 8227 8250 8247 8239 8235 8246 8260 8262 8287 8291 8289 8246 8239 8254 8273 8286 8280 8276 8270 8242 8231 8229 8241 8247 8254 8271 8277 8283 8288 8294 8299 8295 8279 8267 8261 8247 8253 8260 8264 8271 8272 8273 8278 8275 8280 8282 8277 8281 
8334 8328 8327 8323 8321 8319 8315 8318 8321 8305 8289 8291 8290 8296 8298 8289 8287 8291 8295 8292 8293 8293 8294 8289 8282 8271 8241 8252 8260 8267 8260 8238 8252 8281 8261 8239 8237 8244 8247 8260 8282 8287 8291 8255 8233 8247 8247 8278 8282 8279 8262 8239 8232 8230 8242 8244 8247 8278 8283 8282 8283 8289 8295 8296 8286 8269 8258 8248 8243 8243 8250 8264 8267 8273 8270 8273 8273 8276 8280 8277 
8334 8327 8328 8326 8320 8321 8316 8316 8318 8307 8288 8285 8289 8294 8291 8294 8299 8298 8295 8295 8292 8296 8292 8292 8291 8262 8233 8247 8267 8261 8257 8267 8283 8285 8261 8241 8246 8239 8237 8250 8254 8254 8278 8263 8257 8254 8258 8267 8276 8279 8255 8237 8237 8240 8248 8246 8250 8262 8274 8278 8285 8291 8293 8294 8293 8284 8273 8260 8261 8254 8247 8265 8270 8270 8271 8274 8273 8273 8279 8279 
8333 8326 8332 8326 8328 8324 8318 8318 8316 8298 8291 8291 8290 8294 8304 8303 8298 8301 8300 8296 8294 8296 8288 8280 8274 8251 8253 8235 8246 8242 8269 8276 8273 8263 8255 8242 8257 8260 8253 8249 8254 8257 8275 8284 8263 8255 8278 8265 8262 8266 8252 8237 8236 8248 8252 8250 8252 8265 8264 8273 8275 8279 8290 8295 8297 8294 8288 8281 8281 8275 8265 8271 8270 8272 8272 8270 8275 8273 8277 8274 
8337 8329 8332 8333 8330 8323 8323 8325 8318 8295 8293 8301 8304 8302 8301 8296 8299 8301 8297 8298 8296 8288 8256 8239 8236 8241 8229 8226 8238 8247 8272 8273 8244 8242 8242 8238 8267 8295 8285 8280 8268 8247 8262 8265 8251 8276 8277 8261 8253 8252 8242 8235 8231 8242 8253 8249 8252 8266 8275 8271 8264 8267 8289 8288 8293 8295 8288 8285 8287 8284 8276 8275 8271 8271 8271 8271 8275 8269 8277 8277 
8337 8331 8330 8329 8329 8321 8326 8322 8319 8295 8304 8318 8310 8302 8270 8257 8262 8284 8291 8289 8281 8266 8257 8241 8247 8255 8243 8251 8239 8239 8270 8272 8265 8251 8236 8239 8255 8290 8285 8276 8272 8252 8251 8244 8267 8281 8276 8258 8255 8244 8235 8234 8235 8239 8243 8248 8248 8264 8280 8280 8268 8272 8280 8283 8288 8287 8290 8282 8287 8282 8279 8273 8272 8271 8276 8274 8275 8274 8276 8275 
8337 8333 8331 8328 8323 8324 8321 8321 8319 8311 8317 8316 8311 8290 8253 8260 8288 8299 8301 8299 8282 8279 8271 8261 8282 8279 8264 8260 8244 8240 8270 8278 8275 8254 8235 8238 8242 8265 8259 8246 8243 8248 8243 8233 8261 8274 8268 8255 8247 8251 8256 8250 8242 8249 8247 8246 8247 8275 8275 8273 8272 8279 8279 8280 8286 8288 8287 8285 8282 8281 8278 8276 8274 8272 8274 8273 8276 8274 8276 8278 
8337 8333 8335 8326 8323 8323 8324 8321 8319 8316 8320 8315 8300 8270 8270 8300 8298 8303 8298 8297 8295 8289 8270 8261 8276 8284 8285 8280 8275 8246 8245 8270 8280 8271 8245 8242 8235 8235 8236 8232 8238 8248 8250 8239 8246 8271 8281 8256 8238 8240 8241 8247 8250 8266 8268 8271 8269 8280 8277 8278 8277 8282 8280 8281 8281 8283 8281 8280 8283 8278 8281 8276 8274 8274 8278 8273 8275 8275 8273 8275 
8334 8332 8331 8328 8325 8324 8322 8323 8316 8317 8317 8312 8279 8270 8302 8305 8305 8302 8298 8299 8291 8267 8259 8271 8265 8259 8270 8269 8284 8276 8240 8237 8255 8256 8246 8238 8237 8235 8235 8238 8245 8250 8255 8272 8276 8280 8282 8269 8236 8240 8245 8249 8250 8259 8254 8269 8272 8270 8280 8277 8279 8282 8281 8281 8280 8279 8281 8277 8281 8282 8279 8278 8276 8280 8281 8278 8277 8271 8274 8278 
8336 8332 8338 8329 8327 8327 8326 8324 8322 8317 8320 8292 8274 8299 8307 8305 8303 8303 8304 8300 8274 8260 8267 8269 8259 8246 8248 8271 8297 8275 8257 8226 8225 8238 8248 8242 8236 8237 8238 8244 8241 8247 8264 8272 8267 8272 8274 8271 8241 8231 8248 8252 8257 8260 8255 8260 8279 8258 8275 8279 8278 8282 8285 8283 8280 8281 8281 8284 8285 8284 8284 8278 8277 8281 8284 8276 8278 8271 8273 8273 
8337 8332 8334 8324 8329 8324 8324 8325 8319 8318 8312 8280 8294 8308 8311 8308 8307 8309 8308 8298 8276 8272 8267 8267 8252 8248 8258 8303 8314 8305 8284 8249 8235 8228 8249 8245 8240 8241 8243 8246 8241 8253 8268 8273 8265 8262 8269 8263 8240 8223 8249 8258 8258 8260 8256 8268 8285 8282 8278 8279 8282 8283 8283 8283 8285 8285 8281 8282 8288 8285 8284 8281 8281 8284 8284 8283 8280 8276 8271 8270 
8336 8333 8337 8325 8326 8327 8326 8323 8323 8318 8301 8292 8315 8313 8311 8309 8311 8309 8310 8300 8283 8278 8273 8261 8255 8274 8283 8291 8303 8308 8304 8285 8267 8238 8238 8244 8242 8244 8246 8245 8244 8257 8268 8274 8276 8270 8270 8270 8268 8242 8241 8255 8262 8264 8263 8280 8281 8284 8281 8280 8284 8286 8284 8286 8287 8284 8284 8280 8285 8286 8283 8286 8283 8287 8288 8284 8286 8281 8275 8271 
8337 8334 8333 8324 8323 8327 8324 8324 8325 8316 8300 8315 8320 8320 8315 8313 8311 8310 8304 8288 8284 8278 8274 8279 8294 8302 8288 8287 8291 8288 8298 8307 8306 8290 8266 8249 8249 8264 8261 8255 8254 8249 8259 8278 8269 8265 8270 8274 8274 8265 8266 8275 8267 8270 8272 8290 8288 8282 8283 8286 8285 8287 8288 8287 8287 8286 8283 8283 8283 8285 8286 8287 8284 8285 8289 8288 8286 8282 8277 8275 
8338 8335 8336 8326 8325 8321 8324 8326 8324 8320 8312 8323 8324 8322 8316 8312 8314 8308 8304 8290 8284 8276 8279 8303 8306 8302 8288 8289 8290 8289 8300 8304 8306 8298 8276 8247 8251 8279 8281 8282 8282 8279 8282 8283 8285 8282 8285 8286 8285 8278 8280 8278 8282 8286 8289 8291 8288 8285 8284 8285 8288 8289 8286 8288 8288 8287 8283 8282 8287 8287 8287 8290 8287 8288 8289 8289 8290 8282 8279 8278 
8341 8338 8335 8326 8327 8327 8326 8329 8331 8326 8327 8326 8326 8322 8320 8316 8316 8319 8312 8297 8286 8282 8300 8310 8312 8308 8294 8287 8296 8297 8307 8313 8309 8303 8290 8285 8283 8282 8267 8279 8280 8285 8284 8286 8286 8282 8280 8283 8282 8280 8279 8281 8284 8290 8291 8294 8292 8285 8285 8287 8287 8287 8288 8291 8290 8288 8286 8286 8289 8288 8287 8290 8287 8289 8291 8292 8292 8284 8284 8280 
8345 8333 8333 8330 8333 8330 8330 8330 8328 8330 8331 8332 8326 8325 8320 8322 8325 8320 8314 8304 8303 8305 8311 8314 8314 8313 8307 8288 8288 8295 8308 8319 8322 8320 8310 8309 8296 8284 8277 8276 8282 8281 8278 8282 8284 8278 8275 8276 8278 8280 8279 8281 8282 8285 8292 8290 8289 8285 8285 8285 8287 8286 8289 8289 8288 8288 8288 8288 8290 8289 8288 8287 8290 8291 8294 8295 8293 8284 8283 8282 
8344 8338 8337 8338 8333 8328 8334 8331 8331 8329 8333 8333 8330 8329 8322 8326 8326 8319 8318 8312 8314 8316 8316 8317 8316 8312 8310 8294 8278 8276 8279 8288 8304 8310 8315 8316 8302 8281 8273 8271 8273 8276 8271 8275 8274 8271 8272 8272 8275 8273 8274 8276 8279 8284 8287 8287 8289 8285 8285 8286 8289 8287 8287 8286 8289 8287 8288 8286 8291 8290 8290 8291 8292 8292 8297 8297 8295 8285 8284 8289 
8345 8343 8339 8336 8337 8333 8335 8335 8335 8335 8337 8333 8331 8325 8325 8325 8328 8321 8320 8316 8317 8314 8316 8322 8316 8316 8311 8295 8280 8279 8277 8278 8287 8293 8286 8291 8277 8272 8265 8262 8271 8270 8269 8268 8267 8267 8266 8268 8268 8271 8271 8271 8273 8280 8284 8286 8287 8287 8286 8280 8281 8286 8285 8286 8286 8287 8287 8283 8288 8291 8287 8290 8289 8295 8298 8299 8298 8291 8292 8295 
8346 8336 8344 8343 8333 8338 8341 8339 8335 8334 8336 8334 8334 8326 8329 8325 8325 8325 8322 8318 8317 8318 8319 8317 8319 8319 8313 8299 8287 8283 8284 8283 8290 8292 8284 8286 8284 8277 8277 8275 8276 8276 8273 8271 8270 8271 8266 8270 8271 8275 8273 8276 8275 8282 8288 8286 8287 8287 8283 8280 8284 8287 8291 8284 8287 8284 8286 8287 8290 8290 8290 8293 8294 8298 8304 8300 8302 8291 8294 8305 
8342 8336 8343 8340 8337 8343 8343 8338 8339 8333 8338 8340 8334 8331 8328 8327 8328 8325 8327 8320 8319 8319 8321 8324 8323 8317 8314 8305 8288 8287 8287 8281 8291 8293 8290 8287 8288 8286 8283 8279 8281 8280 8278 8277 8274 8276 8271 8270 8271 8273 8283 8290 8284 8285 8287 8285 8288 8288 8285 8282 8286 8287 8287 8287 8283 8284 8285 8288 8289 8289 8292 8292 8294 8300 8303 8302 8301 8300 8297 8310 
8341 8336 8342 8338 8340 8339 8344 8336 8337 8338 8339 8342 8335 8335 8333 8328 8330 8329 8325 8323 8319 8322 8324 8325 8317 8318 8317 8305 8293 8288 8286 8283 8288 8290 8292 8291 8286 8287 8288 8285 8284 8282 8281 8279 8275 8274 8272 8274 8273 8274 8280 8292 8284 8293 8288 8288 8289 8288 8287 8284 8288 8286 8285 8284 8281 8285 8284 8285 8294 8295 8296 8301 8299 8300 8303 8304 8309 8302 8298 8305 
8339 8329 8335 8334 8336 8337 8338 8344 8340 8337 8341 8340 8339 8338 8336 8330 8331 8331 8330 8327 8328 8323 8326 8327 8323 8323 8319 8308 8298 8294 8289 8282 8287 8288 8295 8295 8289 8289 8286 8286 8286 8281 8281 8279 8278 8276 8275 8274 8277 8276 8278 8286 8284 8292 8292 8290 8291 8291 8288 8290 8290 8289 8287 8283 8284 8283 8289 8289 8295 8296 8296 8298 8297 8303 8306 8303 8305 8303 8296 8298 
8334 8322 8328 8323 8321 8324 8335 8349 8344 8334 8335 8336 8340 8338 8340 8334 8333 8333 8329 8330 8327 8323 8327 8328 8324 8326 8324 8316 8304 8291 8286 8283 8287 8288 8293 8299 8297 8292 8287 8287 8286 8281 8285 8282 8279 8279 8277 8276 8278 8280 8285 8289 8290 8295 8297 8291 8291 8290 8289 8290 8290 8292 8287 8285 8289 8290 8288 8290 8292 8295 8296 8299 8299 8303 8307 8305 8303 8295 8295 8309 
8342 8332 8336 8337 8329 8333 8347 8352 8330 8322 8322 8328 8330 8337 8336 8335 8332 8330 8328 8329 8329 8328 8329 8329 8329 8329 8322 8317 8299 8294 8287 8283 8285 8288 8294 8300 8302 8298 8293 8288 8290 8285 8288 8284 8285 8281 8278 8278 8283 8284 8287 8293 8294 8298 8295 8291 8292 8289 8292 8291 8292 8293 8290 8289 8289 8291 8291 8294 8295 8296 8299 8297 8301 8306 8306 8304 8301 8294 8304 8322 
8368 8349 8358 8355 8358 8356 8348 8340 8329 8330 8318 8318 8317 8323 8323 8325 8324 8324 8320 8325 8324 8325 8323 8330 8327 8322 8308 8305 8305 8292 8288 8284 8286 8290 8293 8299 8299 8297 8295 8294 8289 8287 8287 8285 8286 8281 8280 8281 8285 8286 8287 8296 8294 8297 8297 8293 8293 8291 8290 8288 8291 8293 8287 8287 8289 8290 8291 8292 8292 8295 8300 8301 8303 8302 8309 8307 8297 8301 8338 8345 
8378 8380 8415 8422 8402 8372 8362 8361 8370 8373 8353 8334 8331 8334 8338 8331 8324 8319 8317 8315 8319 8316 8320 8324 8319 8312 8304 8308 8296 8294 8290 8287 8291 8290 8292 8300 8300 8297 8295 8296 8292 8289 8290 8290 8284 8284 8280 8283 8285 8288 8290 8292 8291 8290 8291 8291 8292 8293 8290 8286 8290 8290 8287 8291 8293 8290 8291 8293 8295 8295 8300 8301 8302 8301 8304 8305 8296 8315 8359 8349 
8424 8441 8473 8451 8410 8394 8384 8411 8447 8419 8368 8351 8351 8380 8418 8385 8343 8330 8322 8328 8338 8328 8322 8320 8317 8311 8307 8315 8297 8288 8287 8288 8288 8290 8286 8297 8297 8297 8292 8295 8290 8290 8287 8286 8284 8282 8281 8280 8286 8284 8290 8290 8285 8284 8285 8285 8292 8290 8288 8289 8287 8286 8289 8290 8292 8289 8289 8293 8294 8296 8296 8299 8302 8303 8304 8298 8295 8314 8350 8350 
8474 8470 8463 8438 8440 8448 8468 8464 8466 8457 8445 8434 8429 8444 8441 8397 8361 8349 8348 8373 8382 8345 8327 8324 8326 8338 8344 8319 8297 8283 8281 8282 8287 8286 8285 8291 8288 8295 8290 8292 8289 8284 8284 8281 8283 8280 8280 8278 8283 8284 8285 8285 8285 8280 8278 8283 8289 8289 8288 8288 8287 8284 8289 8287 8290 8289 8291 8293 8295 8295 8298 8297 8299 8300 8301 8296 8289 8311 8334 8346 
8473 8452 8440 8436 8450 8462 8464 8450 8432 8429 8437 8443 8442 8440 8430 8405 8399 8399 8402 8406 8408 8392 8391 8391 8397 8407 8399 8341 8313 8293 8288 8279 8278 8282 8283 8286 8286 8287 8286 8288 8285 8283 8280 8279 8277 8277 8281 8279 8281 8278 8281 8284 8284 8283 8281 8284 8284 8285 8283 8283 8288 8284 8285 8284 8288 8290 8289 8293 8293 8296 8298 8299 8299 8299 8299 8295 8287 8305 8325 8335 
8459 8435 8445 8453 8458 8445 8430 8431 8424 8429 8451 8455 8445 8438 8423 8403 8398 8403 8409 8395 8389 8386 8386 8394 8411 8411 8411 8366 8317 8303 8298 8294 8286 8284 8282 8289 8279 8285 8285 8282 8280 8276 8275 8275 8275 8271 8276 8278 8279 8278 8281 8289 8291 8287 8271 8274 8274 8276 8272 8279 8280 8283 8281 8286 8286 8289 8292 8290 8293 8295 8299 8298 8295 8298 8296 8291 8283 8304 8313 8327 


