P2
80 60
8360
8184 8173 8180 8193 8199 8257 8291 8301 8305 8309 8307 8308 8313 8313 8310 8310 8314 8313 8314 8321 8320 8326 8332 8339 8339 8341 8343 8345 8345 8344 8351 8355 8355 8360 8356 8351 8351 8343 8344 8342 8339 8337 8335 8331 8326 8328 8327 8327 8328 8331 8340 8334 8333 8330 8329 8330 8330 8331 8326 8324 8329 8327 8332 8337 8339 8336 8341 8340 8339 8340 8340 8337 8334 8335 8338 8343 8344 8346 8344 8341 
8174 8174 8190 8196 8221 8280 8300 8306 8307 8308 8311 8319 8325 8324 8321 8320 8320 8322 8324 8329 8333 8338 8344 8341 8344 8345 8348 8349 8348 8350 8349 8351 8354 8355 8358 8349 8344 8343 8343 8340 8338 8335 8333 8331 8329 8332 8328 8330 8329 8336 8338 8338 8332 8331 8328 8333 8335 8338 8329 8326 8326 8328 8330 8332 8334 8333 8339 8338 8341 8343 8345 8340 8339 8334 8341 8337 8339 8340 8339 8340 
8183 8186 8198 8208 8249 8297 8304 8309 8315 8315 8324 8330 8332 8331 8330 8330 8333 8338 8337 8341 8345 8350 8350 8347 8349 8346 8349 8354 8354 8352 8351 8352 8355 8356 8354 8347 8341 8338 8340 8342 8337 8333 8332 8328 8330 8329 8330 8330 8330 8337 8345 8340 8336 8336 8337 8342 8339 8338 8331 8329 8329 8329 8333 8333 8335 8334 8340 8341 8342 8342 8344 8345 8343 8338 8339 8336 8335 8334 8335 8336 
8187 8189 8201 8216 8278 8303 8307 8314 8317 8324 8330 8338 8339 8335 8333 8337 8338 8342 8344 8348 8350 8351 8350 8346 8348 8349 8353 8352 8349 8349 8349 8347 8339 8339 8338 8340 8338 8338 8339 8337 8335 8339 8333 8332 8329 8328 8327 8328 8331 8336 8343 8343 8340 8340 8344 8346 8340 8340 8333 8330 8327 8327 8331 8332 8334 8337 8339 8341 8343 8346 8344 8342 8343 8342 8341 8337 8334 8337 8334 8337 
8186 8188 8202 8234 8293 8310 8307 8313 8324 8327 8330 8334 8337 8337 8338 8339 8341 8344 8348 8348 8345 8348 8347 8344 8346 8345 8348 8348 8344 8347 8346 8319 8274 8274 8293 8334 8338 8339 8338 8338 8335 8337 8335 8328 8327 8329 8324 8325 8325 8337 8343 8342 8339 8343 8344 8345 8340 8339 8333 8333 8330 8329 8332 8331 8334 8336 8337 8340 8341 8342 8344 8342 8345 8338 8338 8334 8333 8336 8334 8332 
8191 8201 8217 8268 8308 8315 8311 8315 8318 8327 8330 8333 8336 8335 8334 8339 8342 8345 8344 8346 8347 8346 8345 8344 8344 8343 8348 8345 8345 8345 8344 8324 8256 8252 8272 8326 8333 8336 8339 8338 8335 8335 8335 8329 8327 8326 8327 8326 8326 8333 8342 8340 8339 8342 8343 8344 8340 8341 8336 8336 8334 8330 8332 8333 8333 8337 8338 8341 8346 8344 8344 8343 8342 8343 8336 8330 8329 8334 8336 8333 
8207 8209 8232 8294 8308 8315 8314 8320 8321 8327 8334 8333 8333 8335 8333 8336 8339 8342 8344 8344 8343 8345 8344 8344 8345 8344 8347 8346 8344 8345 8346 8336 8266 8253 8263 8316 8331 8336 8335 8338 8331 8331 8330 8322 8323 8321 8324 8323 8322 8329 8338 8338 8338 8344 8346 8348 8342 8343 8340 8341 8341 8340 8337 8333 8334 8334 8339 8341 8341 8338 8343 8343 8343 8342 8336 8328 8333 8334 8335 8334 
8211 8217 8257 8307 8318 8320 8320 8321 8328 8335 8335 8330 8331 8335 8337 8334 8339 8345 8342 8343 8348 8347 8346 8344 8345 8343 8347 8343 8347 8345 8346 8340 8280 8255 8259 8307 8331 8332 8333 8334 8321 8296 8271 8264 8290 8291 8307 8304 8288 8282 8314 8337 8336 8343 8349 8348 8347 8345 8345 8347 8343 8344 8342 8340 8335 8337 8338 8339 8340 8341 8339 8342 8339 8341 8335 8327 8333 8336 8331 8333 
8216 8222 8288 8312 8319 8326 8326 8331 8332 8336 8338 8332 8333 8337 8335 8340 8339 8344 8341 8346 8344 8345 8345 8340 8342 8344 8347 8346 8345 8347 8348 8342 8293 8254 8254 8292 8320 8304 8298 8277 8251 8222 8214 8215 8247 8227 8233 8216 8202 8203 8295 8337 8339 8343 8347 8350 8348 8348 8346 8348 8347 8348 8345 8346 8345 8340 8338 8338 8339 8338 8338 8339 8338 8339 8337 8331 8333 8336 8330 8329 
8226 8243 8310 8322 8332 8333 8330 8336 8340 8340 8339 8332 8333 8334 8335 8334 8338 8341 8341 8344 8343 8340 8339 8335 8337 8343 8348 8345 8345 8345 8344 8343 8310 8252 8249 8263 8243 8215 8214 8226 8253 8225 8238 8250 8226 8229 8228 8207 8205 8245 8317 8337 8339 8342 8346 8349 8346 8346 8347 8348 8345 8348 8349 8346 8346 8342 8342 8339 8341 8341 8339 8339 8338 8340 8339 8328 8331 8332 8330 8331 
8233 8275 8323 8336 8343 8341 8337 8339 8339 8342 8334 8332 8332 8332 8334 8335 8334 8339 8338 8339 8339 8337 8334 8332 8337 8343 8343 8343 8343 8344 8339 8339 8317 8255 8246 8229 8215 8213 8212 8227 8262 8282 8237 8231 8221 8227 8229 8209 8211 8277 8330 8338 8337 8339 8343 8347 8342 8341 8342 8345 8344 8342 8343 8343 8344 8341 8340 8342 8345 8343 8341 8338 8340 8342 8339 8331 8333 8330 8333 8329 
8246 8301 8335 8345 8345 8342 8339 8338 8339 8336 8335 8330 8333 8332 8330 8334 8334 8339 8340 8338 8337 8338 8338 8334 8339 8338 8343 8341 8341 8342 8339 8340 8324 8263 8244 8250 8285 8281 8238 8213 8250 8270 8218 8213 8230 8235 8227 8213 8234 8250 8321 8333 8334 8338 8342 8343 8338 8342 8341 8342 8340 8339 8339 8339 8340 8342 8342 8342 8340 8341 8338 8339 8341 8343 8345 8336 8334 8334 8333 8333 
8277 8321 8345 8349 8345 8343 8336 8340 8340 8339 8337 8331 8332 8333 8331 8334 8337 8338 8337 8338 8337 8336 8336 8336 8335 8337 8340 8342 8341 8343 8336 8336 8328 8277 8245 8243 8265 8208 8199 8198 8213 8231 8225 8263 8259 8299 8289 8272 8297 8323 8332 8333 8328 8330 8334 8339 8335 8338 8341 8340 8338 8339 8340 8340 8338 8340 8339 8339 8340 8339 8340 8340 8342 8343 8348 8338 8334 8333 8335 8334 
8306 8333 8348 8349 8345 8338 8334 8337 8336 8340 8335 8333 8331 8333 8333 8331 8337 8340 8338 8337 8336 8336 8339 8335 8334 8336 8341 8342 8340 8339 8337 8331 8325 8286 8243 8226 8201 8194 8197 8195 8225 8242 8281 8251 8261 8299 8315 8316 8318 8323 8331 8327 8326 8325 8328 8333 8333 8337 8336 8338 8337 8335 8336 8338 8338 8338 8336 8340 8340 8339 8339 8339 8342 8344 8347 8341 8335 8334 8336 8334 
8322 8338 8343 8344 8340 8339 8336 8337 8337 8337 8335 8335 8333 8335 8334 8333 8337 8338 8339 8336 8340 8339 8340 8338 8338 8337 8341 8340 8342 8336 8333 8327 8322 8297 8242 8216 8218 8225 8217 8207 8209 8221 8224 8212 8212 8274 8305 8286 8262 8298 8298 8270 8307 8321 8321 8327 8327 8331 8333 8335 8333 8335 8333 8337 8340 8337 8337 8338 8337 8336 8337 8336 8341 8341 8346 8341 8335 8338 8335 8338 
8332 8343 8345 8340 8340 8338 8337 8336 8334 8340 8339 8336 8336 8337 8338 8338 8337 8338 8340 8344 8342 8344 8340 8337 8342 8336 8339 8341 8339 8338 8328 8321 8305 8283 8239 8233 8230 8208 8196 8208 8214 8208 8210 8206 8205 8220 8239 8198 8195 8233 8203 8190 8249 8315 8322 8325 8321 8323 8328 8331 8330 8336 8334 8334 8337 8336 8336 8339 8336 8334 8337 8335 8337 8338 8345 8342 8336 8336 8334 8331 
8343 8343 8345 8340 8340 8342 8341 8339 8334 8336 8336 8336 8336 8339 8337 8338 8341 8343 8343 8344 8345 8344 8342 8343 8341 8339 8341 8340 8336 8332 8312 8285 8275 8271 8237 8206 8193 8190 8196 8219 8203 8204 8201 8202 8200 8196 8187 8187 8194 8189 8183 8179 8224 8319 8325 8327 8324 8324 8326 8329 8332 8336 8333 8334 8336 8335 8336 8337 8336 8337 8335 8333 8335 8339 8339 8341 8336 8335 8334 8330 
8342 8345 8344 8340 8343 8340 8340 8335 8332 8336 8336 8336 8336 8340 8339 8340 8342 8343 8346 8345 8343 8348 8347 8343 8342 8343 8341 8340 8334 8305 8275 8272 8270 8265 8229 8195 8188 8192 8192 8196 8197 8203 8200 8194 8190 8206 8196 8226 8241 8199 8191 8187 8248 8317 8320 8325 8326 8325 8329 8329 8331 8332 8333 8335 8340 8340 8338 8336 8336 8336 8331 8332 8335 8337 8339 8337 8337 8334 8327 8329 
8349 8346 8345 8341 8341 8343 8337 8336 8335 8340 8338 8339 8344 8345 8347 8346 8345 8345 8344 8349 8346 8347 8344 8339 8338 8343 8340 8337 8305 8279 8270 8275 8252 8206 8195 8187 8184 8188 8186 8192 8189 8192 8195 8195 8193 8188 8209 8260 8271 8252 8244 8267 8211 8254 8266 8306 8315 8327 8330 8331 8335 8330 8333 8337 8336 8337 8337 8338 8333 8333 8330 8331 8334 8336 8337 8335 8335 8330 8324 8325 
8346 8346 8342 8343 8342 8339 8336 8336 8337 8339 8339 8340 8346 8347 8344 8346 8345 8347 8346 8347 8346 8343 8341 8339 8339 8338 8338 8311 8276 8275 8277 8274 8221 8211 8202 8186 8183 8184 8184 8188 8177 8181 8199 8200 8196 8185 8185 8204 8210 8185 8210 8212 8188 8182 8189 8219 8257 8305 8326 8332 8335 8334 8335 8334 8336 8336 8333 8335 8334 8334 8335 8328 8330 8333 8337 8334 8333 8333 8322 8324 
8346 8348 8343 8341 8341 8341 8340 8337 8342 8343 8340 8339 8344 8346 8344 8342 8343 8345 8345 8344 8346 8343 8339 8337 8335 8334 8321 8284 8272 8282 8273 8234 8191 8202 8194 8179 8179 8177 8183 8193 8181 8176 8209 8209 8191 8182 8180 8196 8186 8177 8180 8183 8204 8172 8183 8196 8207 8274 8322 8330 8332 8330 8330 8333 8335 8330 8333 8333 8334 8335 8334 8332 8328 8329 8333 8331 8331 8333 8321 8324 
8356 8347 8347 8343 8342 8343 8343 8339 8338 8342 8344 8341 8343 8343 8343 8340 8346 8344 8342 8338 8341 8338 8338 8335 8334 8328 8296 8278 8284 8275 8248 8217 8190 8192 8198 8191 8182 8186 8201 8201 8212 8186 8209 8216 8192 8184 8180 8209 8194 8176 8177 8183 8263 8186 8185 8194 8203 8234 8313 8328 8330 8331 8330 8330 8333 8328 8331 8331 8329 8330 8332 8328 8329 8327 8329 8330 8331 8330 8319 8321 
8358 8351 8352 8348 8350 8344 8342 8341 8340 8343 8339 8339 8343 8344 8342 8342 8343 8342 8341 8337 8338 8337 8335 8330 8330 8315 8279 8285 8283 8250 8234 8215 8193 8187 8201 8210 8193 8198 8201 8201 8206 8204 8208 8212 8194 8186 8197 8226 8205 8179 8176 8187 8282 8276 8237 8213 8234 8264 8318 8327 8328 8331 8329 8329 8332 8328 8330 8327 8328 8327 8330 8325 8325 8328 8328 8330 8329 8328 8320 8326 
8357 8350 8355 8351 8347 8346 8342 8342 8339 8343 8342 8338 8344 8345 8344 8339 8342 8340 8339 8337 8336 8335 8334 8331 8326 8300 8281 8294 8267 8243 8237 8225 8195 8193 8211 8223 8204 8194 8204 8211 8203 8194 8203 8211 8194 8196 8217 8225 8207 8175 8176 8218 8282 8311 8299 8265 8309 8315 8322 8328 8329 8331 8328 8329 8328 8325 8328 8325 8325 8326 8327 8321 8323 8322 8326 8328 8329 8330 8325 8321 
8357 8353 8351 8349 8348 8347 8343 8339 8338 8337 8344 8343 8340 8344 8340 8342 8339 8340 8341 8341 8335 8334 8333 8327 8320 8285 8283 8286 8248 8228 8227 8229 8210 8206 8209 8215 8208 8197 8204 8204 8194 8189 8199 8207 8208 8208 8216 8220 8208 8184 8189 8270 8286 8309 8319 8319 8318 8322 8323 8325 8327 8329 8329 8329 8331 8328 8326 8327 8328 8327 8320 8319 8320 8322 8326 8327 8327 8330 8325 8319 
8356 8349 8351 8345 8345 8344 8342 8341 8338 8342 8343 8342 8344 8343 8340 8343 8340 8343 8340 8339 8335 8333 8331 8328 8317 8277 8259 8249 8237 8226 8219 8227 8208 8201 8215 8216 8214 8208 8204 8199 8190 8193 8201 8216 8211 8213 8213 8214 8213 8205 8223 8278 8289 8312 8315 8323 8316 8321 8325 8323 8328 8328 8327 8329 8330 8328 8324 8326 8325 8324 8323 8317 8321 8320 8322 8326 8328 8328 8321 8323 
8356 8349 8349 8348 8343 8344 8340 8341 8340 8343 8347 8343 8343 8339 8337 8342 8340 8340 8340 8337 8334 8333 8332 8327 8312 8278 8269 8244 8236 8227 8221 8223 8210 8213 8217 8213 8217 8216 8206 8200 8198 8198 8206 8207 8211 8212 8212 8212 8218 8225 8226 8247 8280 8312 8317 8320 8318 8320 8320 8325 8327 8326 8327 8324 8326 8325 8325 8325 8323 8324 8319 8319 8319 8318 8324 8326 8330 8328 8322 8319 
8353 8352 8347 8348 8343 8343 8342 8340 8341 8345 8344 8345 8346 8340 8340 8340 8339 8338 8338 8335 8334 8332 8330 8325 8311 8285 8288 8247 8239 8234 8223 8218 8222 8221 8209 8206 8215 8215 8214 8216 8204 8201 8201 8205 8214 8213 8207 8206 8219 8223 8221 8231 8276 8310 8315 8321 8315 8318 8322 8325 8324 8326 8326 8324 8326 8326 8324 8322 8321 8321 8320 8317 8315 8320 8324 8324 8330 8325 8325 8321 
8352 8347 8351 8348 8347 8345 8345 8343 8344 8345 8344 8343 8344 8342 8333 8336 8338 8340 8336 8334 8333 8327 8327 8327 8314 8280 8284 8249 8226 8215 8206 8218 8227 8217 8219 8220 8217 8211 8217 8224 8210 8204 8208 8205 8206 8211 8203 8206 8214 8219 8222 8236 8286 8313 8315 8319 8317 8319 8321 8323 8324 8325 8325 8326 8325 8326 8322 8321 8323 8322 8323 8320 8320 8321 8321 8322 8326 8327 8322 8318 
8350 8344 8349 8342 8344 8345 8341 8342 8345 8349 8346 8345 8345 8342 8336 8336 8338 8337 8335 8334 8330 8330 8327 8326 8317 8282 8263 8229 8213 8228 8231 8230 8232 8224 8227 8230 8213 8213 8214 8225 8221 8218 8218 8217 8222 8214 8208 8212 8213 8218 8222 8241 8294 8314 8313 8317 8317 8321 8318 8322 8321 8323 8323 8324 8324 8322 8322 8320 8319 8319 8319 8316 8317 8320 8322 8320 8322 8326 8324 8320 
8347 8342 8347 8342 8346 8343 8341 8341 8344 8346 8342 8341 8344 8343 8336 8332 8334 8336 8333 8334 8328 8328 8328 8324 8318 8291 8260 8239 8230 8243 8243 8234 8233 8234 8235 8239 8230 8225 8226 8231 8226 8217 8221 8225 8230 8223 8221 8226 8231 8232 8240 8270 8306 8315 8316 8318 8316 8320 8318 8322 8319 8321 8321 8324 8320 8324 8321 8320 8318 8317 8316 8316 8315 8316 8319 8319 8322 8326 8321 8320 
8343 8342 8346 8341 8344 8341 8339 8341 8342 8344 8340 8341 8341 8339 8332 8334 8331 8332 8329 8329 8331 8324 8325 8325 8319 8304 8262 8239 8238 8249 8243 8238 8239 8242 8234 8238 8232 8238 8237 8228 8224 8225 8230 8233 8239 8235 8236 8234 8233 8246 8281 8302 8312 8317 8314 8316 8314 8316 8320 8320 8321 8322 8319 8319 8321 8320 8318 8320 8319 8317 8316 8311 8315 8315 8319 8319 8321 8322 8321 8317 
8337 8338 8339 8338 8341 8340 8335 8337 8340 8341 8339 8338 8337 8336 8333 8330 8329 8327 8326 8328 8326 8326 8324 8322 8319 8308 8284 8249 8251 8238 8225 8231 8246 8241 8235 8248 8239 8243 8236 8228 8222 8227 8236 8240 8237 8243 8242 8242 8244 8254 8293 8300 8311 8312 8313 8315 8315 8317 8317 8321 8320 8320 8318 8318 8317 8317 8319 8317 8315 8315 8317 8314 8312 8315 8317 8317 8320 8322 8318 8315 
8336 8333 8336 8334 8332 8334 8331 8332 8334 8333 8330 8333 8333 8330 8326 8327 8326 8327 8324 8321 8326 8323 8320 8318 8314 8308 8282 8277 8273 8251 8243 8247 8254 8249 8249 8255 8250 8251 8246 8240 8231 8240 8254 8255 8251 8247 8241 8248 8266 8294 8288 8299 8314 8313 8312 8314 8314 8315 8317 8319 8319 8320 8320 8317 8316 8320 8317 8316 8314 8314 8313 8312 8313 8315 8318 8317 8320 8320 8317 8316 
8330 8328 8329 8329 8328 8331 8325 8327 8327 8329 8325 8324 8327 8326 8321 8320 8323 8319 8319 8318 8320 8319 8319 8314 8311 8303 8283 8262 8275 8267 8259 8262 8264 8257 8253 8247 8250 8247 8250 8247 8239 8249 8256 8260 8257 8247 8250 8269 8297 8287 8278 8305 8311 8314 8315 8313 8314 8314 8315 8317 8319 8318 8316 8315 8316 8320 8315 8317 8315 8315 8317 8315 8314 8317 8316 8317 8320 8320 8316 8314 
8323 8323 8325 8322 8323 8323 8322 8322 8323 8322 8321 8320 8321 8321 8316 8313 8314 8313 8313 8310 8312 8312 8315 8312 8307 8303 8291 8264 8261 8271 8256 8262 8266 8250 8255 8258 8271 8257 8258 8252 8252 8259 8254 8260 8258 8258 8276 8300 8292 8277 8279 8309 8308 8309 8310 8311 8309 8311 8311 8313 8315 8312 8311 8312 8314 8314 8314 8313 8313 8312 8312 8312 8313 8310 8318 8318 8320 8322 8313 8315 
8324 8319 8322 8319 8322 8323 8318 8317 8318 8316 8317 8315 8316 8315 8310 8312 8309 8308 8307 8308 8309 8308 8306 8305 8302 8304 8300 8268 8260 8270 8275 8267 8257 8258 8256 8264 8277 8266 8259 8255 8256 8260 8257 8256 8268 8295 8301 8290 8278 8276 8289 8307 8307 8304 8303 8307 8303 8309 8306 8307 8308 8311 8311 8308 8307 8311 8311 8310 8310 8312 8311 8309 8311 8311 8315 8315 8317 8316 8315 8310 
8321 8321 8324 8319 8322 8319 8318 8316 8315 8312 8312 8313 8313 8311 8309 8304 8304 8308 8303 8307 8305 8305 8307 8304 8302 8303 8302 8282 8262 8263 8283 8279 8280 8285 8281 8277 8278 8265 8264 8265 8266 8278 8288 8294 8296 8295 8288 8281 8275 8280 8298 8304 8304 8301 8301 8303 8300 8299 8301 8303 8301 8304 8303 8302 8305 8307 8307 8305 8305 8306 8309 8307 8307 8309 8316 8312 8316 8316 8314 8312 
8323 8323 8325 8319 8319 8318 8315 8314 8314 8314 8311 8310 8309 8306 8303 8302 8304 8304 8303 8303 8304 8302 8304 8299 8300 8304 8301 8297 8271 8261 8274 8286 8280 8278 8288 8293 8296 8297 8297 8296 8295 8294 8293 8291 8292 8286 8279 8275 8279 8292 8301 8300 8301 8298 8296 8298 8295 8298 8297 8302 8300 8301 8305 8302 8302 8307 8306 8305 8302 8304 8307 8306 8310 8306 8314 8312 8313 8313 8312 8308 
8325 8322 8324 8319 8317 8318 8314 8315 8314 8311 8308 8310 8307 8308 8304 8302 8303 8304 8303 8303 8304 8301 8301 8303 8303 8301 8304 8307 8292 8269 8265 8280 8289 8278 8273 8275 8280 8285 8288 8289 8289 8290 8287 8284 8280 8277 8274 8279 8292 8301 8301 8296 8298 8297 8298 8298 8297 8297 8297 8302 8302 8300 8301 8300 8300 8300 8303 8302 8302 8302 8302 8299 8306 8307 8308 8310 8310 8313 8308 8309 
8324 8322 8319 8317 8315 8314 8313 8315 8310 8308 8306 8305 8305 8307 8301 8302 8300 8302 8303 8303 8304 8303 8303 8304 8300 8302 8304 8304 8299 8291 8271 8271 8290 8295 8276 8271 8272 8273 8275 8280 8279 8278 8277 8276 8276 8276 8280 8295 8301 8302 8299 8293 8294 8297 8296 8298 8294 8296 8295 8295 8299 8298 8299 8297 8299 8303 8300 8299 8301 8298 8299 8297 8298 8302 8306 8310 8309 8310 8304 8305 
8322 8319 8318 8313 8311 8311 8310 8311 8310 8308 8304 8304 8307 8304 8303 8302 8300 8302 8302 8303 8305 8300 8298 8301 8301 8301 8303 8304 8306 8302 8294 8282 8277 8289 8288 8283 8273 8272 8270 8271 8270 8269 8272 8271 8277 8288 8296 8305 8303 8301 8299 8296 8297 8296 8295 8295 8292 8297 8298 8299 8297 8298 8299 8298 8299 8299 8301 8305 8299 8299 8301 8296 8298 8301 8309 8304 8307 8308 8300 8299 
8323 8317 8318 8315 8313 8314 8313 8308 8311 8309 8306 8304 8305 8304 8303 8299 8299 8301 8301 8300 8299 8300 8301 8300 8298 8297 8302 8307 8308 8303 8298 8298 8300 8293 8283 8289 8288 8284 8278 8276 8278 8280 8286 8290 8301 8305 8307 8307 8302 8302 8299 8296 8296 8294 8294 8294 8292 8295 8296 8299 8297 8299 8301 8297 8298 8296 8298 8301 8299 8299 8300 8300 8299 8303 8307 8306 8306 8306 8301 8296 
8320 8313 8315 8312 8310 8311 8308 8309 8306 8308 8306 8305 8303 8304 8300 8298 8296 8301 8300 8297 8301 8296 8301 8297 8301 8299 8302 8305 8308 8310 8303 8304 8305 8307 8306 8306 8302 8300 8298 8300 8303 8304 8308 8304 8307 8308 8306 8305 8304 8302 8302 8295 8291 8291 8293 8297 8297 8296 8297 8296 8297 8299 8296 8296 8294 8294 8296 8298 8299 8298 8297 8298 8299 8300 8305 8304 8304 8301 8297 8296 
8314 8313 8314 8312 8312 8311 8310 8311 8310 8308 8306 8306 8305 8305 8301 8301 8302 8300 8302 8300 8303 8300 8300 8300 8300 8303 8303 8308 8309 8310 8307 8307 8310 8313 8309 8311 8311 8313 8313 8311 8315 8312 8310 8308 8311 8312 8309 8311 8309 8303 8302 8296 8295 8295 8296 8297 8295 8297 8297 8298 8298 8298 8296 8295 8296 8299 8299 8296 8297 8297 8298 8298 8298 8303 8303 8302 8302 8300 8297 8297 
8319 8315 8314 8312 8313 8315 8312 8309 8309 8311 8305 8305 8306 8303 8302 8303 8306 8301 8302 8301 8302 8300 8299 8301 8301 8301 8306 8311 8310 8313 8309 8311 8314 8318 8315 8315 8314 8315 8317 8316 8316 8316 8316 8311 8314 8316 8314 8313 8310 8305 8305 8303 8299 8297 8296 8299 8293 8296 8298 8300 8296 8297 8296 8298 8297 8296 8295 8295 8301 8300 8302 8299 8301 8301 8301 8303 8303 8302 8300 8302 
8317 8315 8315 8313 8314 8314 8310 8311 8308 8310 8307 8304 8306 8302 8303 8303 8304 8304 8303 8300 8300 8301 8302 8302 8302 8303 8307 8312 8309 8314 8315 8314 8316 8319 8319 8318 8319 8319 8316 8318 8318 8321 8318 8314 8321 8320 8317 8311 8312 8310 8309 8303 8298 8297 8297 8296 8297 8294 8298 8299 8297 8297 8297 8297 8300 8299 8296 8297 8299 8298 8303 8297 8299 8302 8304 8302 8306 8305 8301 8300 
8321 8317 8319 8314 8313 8310 8310 8312 8308 8306 8306 8307 8309 8306 8302 8302 8301 8304 8302 8300 8299 8302 8303 8302 8301 8303 8307 8306 8310 8315 8315 8319 8320 8322 8320 8320 8321 8321 8322 8319 8324 8324 8324 8319 8321 8319 8320 8315 8313 8311 8311 8306 8300 8298 8296 8297 8292 8295 8297 8297 8297 8297 8298 8297 8297 8297 8298 8295 8297 8299 8300 8297 8301 8302 8303 8301 8307 8303 8297 8297 
8320 8320 8319 8314 8314 8316 8313 8312 8313 8310 8308 8305 8303 8309 8305 8303 8303 8304 8302 8301 8304 8303 8302 8306 8303 8304 8310 8312 8313 8315 8317 8320 8323 8327 8324 8325 8323 8324 8323 8325 8326 8323 8322 8321 8320 8321 8317 8320 8316 8315 8314 8308 8303 8300 8297 8299 8296 8294 8297 8297 8298 8296 8300 8296 8298 8296 8297 8298 8300 8301 8301 8299 8301 8303 8303 8304 8303 8305 8298 8300 
8320 8319 8317 8317 8317 8316 8314 8314 8312 8310 8305 8302 8305 8308 8302 8304 8304 8303 8303 8304 8300 8303 8303 8303 8304 8305 8309 8311 8311 8314 8316 8318 8326 8330 8330 8331 8330 8327 8329 8329 8325 8326 8326 8323 8323 8323 8322 8321 8323 8319 8318 8309 8306 8303 8297 8300 8299 8296 8295 8298 8298 8297 8298 8295 8297 8294 8295 8298 8301 8299 8299 8300 8300 8304 8306 8305 8303 8304 8299 8297 
8328 8321 8326 8318 8320 8321 8317 8312 8315 8312 8309 8310 8307 8306 8303 8302 8304 8306 8303 8303 8303 8304 8301 8303 8308 8307 8309 8312 8312 8315 8318 8320 8327 8330 8334 8333 8334 8334 8334 8331 8328 8329 8330 8325 8328 8328 8326 8327 8323 8319 8317 8312 8306 8302 8296 8300 8296 8296 8298 8298 8298 8297 8297 8294 8295 8295 8297 8296 8299 8300 8299 8301 8303 8302 8303 8301 8305 8305 8300 8299 
8330 8331 8333 8323 8327 8325 8319 8322 8318 8317 8314 8311 8312 8309 8307 8306 8306 8307 8307 8306 8305 8304 8305 8305 8307 8308 8309 8314 8313 8314 8316 8318 8325 8333 8332 8336 8339 8339 8335 8336 8330 8333 8332 8331 8331 8331 8331 8326 8323 8322 8319 8313 8308 8303 8299 8301 8297 8298 8297 8299 8297 8295 8293 8293 8295 8291 8294 8294 8295 8300 8300 8298 8301 8300 8302 8302 8302 8303 8299 8299 
8339 8336 8341 8333 8335 8333 8327 8323 8322 8321 8317 8313 8316 8315 8311 8311 8310 8305 8306 8305 8304 8306 8303 8304 8307 8308 8313 8312 8313 8313 8315 8319 8324 8331 8333 8333 8338 8338 8336 8333 8335 8334 8335 8333 8333 8331 8329 8326 8326 8324 8322 8312 8307 8306 8302 8300 8298 8301 8302 8297 8297 8293 8292 8290 8291 8290 8294 8295 8297 8300 8302 8303 8299 8296 8300 8299 8301 8303 8296 8298 
8347 8343 8345 8339 8336 8337 8334 8333 8328 8322 8326 8321 8320 8321 8317 8314 8317 8316 8312 8309 8307 8306 8305 8307 8305 8308 8310 8314 8312 8314 8316 8320 8322 8331 8330 8336 8336 8337 8338 8337 8334 8336 8336 8335 8331 8334 8332 8330 8327 8324 8322 8311 8310 8306 8302 8303 8302 8302 8301 8298 8296 8295 8291 8290 8294 8294 8295 8296 8298 8298 8299 8297 8297 8298 8298 8299 8299 8299 8296 8291 
8352 8347 8347 8343 8345 8340 8337 8337 8334 8331 8324 8326 8325 8326 8321 8322 8320 8317 8316 8312 8310 8307 8307 8304 8306 8306 8309 8315 8312 8315 8318 8319 8325 8330 8331 8335 8334 8337 8339 8337 8336 8335 8337 8332 8336 8337 8334 8330 8327 8326 8325 8316 8313 8309 8308 8305 8302 8305 8302 8298 8295 8293 8289 8292 8296 8293 8296 8293 8296 8301 8297 8296 8297 8295 8299 8298 8301 8301 8296 8296 
8353 8351 8354 8343 8344 8341 8336 8335 8337 8333 8332 8330 8334 8328 8326 8326 8323 8324 8321 8316 8313 8309 8307 8304 8304 8305 8309 8310 8311 8313 8315 8321 8329 8331 8335 8335 8337 8338 8336 8338 8335 8338 8336 8338 8334 8337 8336 8336 8333 8333 8326 8317 8318 8314 8312 8308 8304 8306 8302 8297 8297 8293 8292 8293 8296 8298 8295 8297 8296 8298 8298 8300 8298 8299 8298 8298 8298 8303 8298 8292 
8354 8348 8350 8343 8347 8345 8336 8337 8336 8336 8332 8333 8331 8332 8328 8325 8325 8322 8319 8314 8309 8305 8305 8304 8303 8304 8306 8309 8311 8314 8318 8321 8328 8329 8331 8333 8336 8336 8339 8337 8337 8338 8336 8333 8336 8341 8340 8341 8338 8336 8331 8326 8320 8315 8313 8313 8309 8309 8308 8303 8299 8298 8297 8295 8297 8299 8300 8301 8302 8303 8302 8302 8300 8305 8303 8301 8301 8304 8299 8301 
8353 8347 8346 8342 8342 8339 8335 8335 8335 8339 8334 8330 8333 8333 8326 8327 8324 8323 8320 8317 8306 8302 8305 8303 8300 8305 8306 8308 8314 8316 8316 8320 8322 8330 8328 8334 8335 8336 8340 8339 8337 8336 8338 8337 8336 8340 8343 8347 8345 8341 8339 8329 8323 8320 8317 8315 8315 8312 8309 8309 8306 8302 8301 8301 8304 8305 8306 8305 8305 8304 8302 8306 8306 8307 8307 8303 8301 8304 8303 8301 
8355 8346 8343 8337 8339 8333 8332 8332 8333 8329 8330 8327 8329 8330 8327 8324 8323 8324 8318 8312 8306 8302 8298 8304 8302 8303 8308 8309 8311 8317 8316 8317 8324 8327 8328 8330 8335 8337 8337 8338 8338 8338 8336 8334 8339 8347 8349 8347 8351 8346 8344 8336 8327 8323 8319 8320 8317 8316 8310 8313 8312 8305 8306 8307 8307 8308 8308 8308 8312 8310 8309 8308 8309 8309 8310 8304 8307 8306 8306 8303 
8356 8339 8338 8330 8332 8328 8327 8327 8327 8327 8327 8323 8331 8329 8324 8325 8320 8322 8313 8310 8305 8302 8301 8306 8300 8303 8302 8310 8314 8314 8311 8317 8330 8332 8331 8330 8334 8339 8342 8344 8340 8339 8340 8338 8341 8347 8355 8353 8356 8351 8349 8334 8333 8328 8321 8326 8319 8318 8317 8313 8311 8309 8308 8306 8312 8311 8311 8312 8315 8312 8316 8308 8311 8310 8313 8308 8306 8305 8304 8304 


