P2
80 60
8379
8292 8302 8299 8303 8301 8297 8291 8290 8287 8288 8288 8285 8285 8285 8284 8283 8284 8278 8277 8283 8291 8291 8294 8290 8291 8291 8297 8291 8293 8296 8296 8300 8298 8293 8292 8292 8288 8289 8295 8296 8288 8286 8287 8284 8287 8287 8290 8287 8292 8286 8280 8277 8276 8276 8272 8266 8269 8268 8269 8270 8271 8266 8267 8266 8260 8259 8261 8260 8262 8265 8266 8270 8275 8278 8271 8274 8272 8276 8280 8279 
8292 8300 8304 8304 8306 8301 8289 8288 8283 8286 8284 8282 8282 8280 8280 8284 8278 8280 8278 8284 8288 8289 8293 8287 8293 8292 8292 8290 8296 8295 8300 8299 8294 8292 8288 8288 8282 8290 8293 8289 8288 8285 8280 8280 8284 8286 8287 8283 8286 8284 8280 8279 8277 8274 8270 8271 8269 8270 8270 8270 8271 8266 8268 8262 8262 8261 8259 8257 8263 8261 8264 8269 8276 8274 8273 8273 8277 8278 8277 8275 
8286 8289 8293 8291 8300 8287 8282 8287 8284 8284 8284 8281 8273 8279 8276 8276 8277 8276 8272 8283 8282 8290 8293 8287 8290 8293 8290 8292 8294 8289 8292 8295 8293 8291 8288 8286 8287 8292 8291 8290 8286 8277 8277 8277 8277 8281 8282 8281 8281 8277 8279 8273 8271 8272 8269 8268 8269 8271 8271 8270 8268 8268 8264 8263 8260 8260 8258 8260 8259 8263 8265 8266 8273 8273 8272 8273 8277 8278 8275 8277 
8293 8282 8302 8288 8294 8287 8285 8285 8284 8283 8275 8274 8277 8274 8273 8276 8276 8277 8276 8281 8285 8280 8279 8287 8291 8289 8291 8291 8292 8294 8293 8292 8294 8290 8289 8288 8287 8289 8290 8287 8285 8276 8277 8273 8277 8276 8281 8280 8279 8274 8278 8270 8271 8268 8270 8266 8269 8269 8270 8267 8268 8263 8263 8260 8257 8256 8256 8259 8261 8262 8260 8265 8267 8270 8271 8270 8277 8278 8277 8273 
8285 8285 8291 8282 8286 8287 8284 8273 8279 8278 8271 8268 8270 8277 8270 8274 8277 8272 8273 8273 8280 8283 8280 8281 8288 8289 8290 8287 8289 8289 8291 8293 8288 8287 8286 8288 8285 8287 8289 8287 8283 8280 8275 8270 8273 8274 8275 8279 8278 8277 8271 8271 8267 8270 8268 8270 8267 8267 8270 8264 8266 8262 8258 8258 8252 8251 8254 8255 8258 8255 8257 8259 8262 8262 8264 8266 8271 8269 8271 8269 
8287 8284 8286 8282 8283 8279 8283 8282 8279 8282 8267 8273 8274 8270 8271 8275 8276 8268 8272 8279 8279 8282 8286 8283 8290 8288 8289 8284 8287 8291 8293 8291 8286 8282 8284 8286 8282 8283 8286 8283 8283 8279 8274 8272 8272 8271 8277 8277 8277 8271 8273 8266 8271 8269 8269 8268 8268 8268 8270 8265 8263 8260 8258 8256 8255 8253 8256 8253 8254 8255 8258 8256 8260 8259 8256 8260 8260 8262 8266 8264 
8288 8289 8286 8293 8287 8285 8289 8285 8277 8270 8265 8277 8274 8269 8273 8276 8268 8268 8276 8284 8280 8284 8289 8284 8290 8287 8280 8281 8283 8295 8292 8294 8286 8283 8280 8282 8282 8281 8286 8281 8282 8276 8275 8270 8272 8273 8276 8276 8274 8272 8268 8269 8268 8267 8265 8267 8264 8264 8268 8266 8262 8259 8256 8256 8252 8256 8258 8258 8250 8252 8251 8251 8256 8254 8253 8251 8254 8255 8261 8256 
8292 8291 8282 8295 8282 8284 8288 8292 8283 8266 8274 8280 8273 8269 8276 8273 8268 8269 8273 8273 8283 8282 8289 8289 8290 8285 8278 8282 8285 8291 8292 8291 8290 8287 8280 8283 8279 8282 8284 8285 8280 8273 8273 8269 8273 8275 8275 8278 8274 8270 8268 8267 8267 8265 8264 8264 8265 8265 8265 8264 8261 8257 8257 8253 8253 8256 8259 8253 8253 8251 8249 8246 8253 8250 8249 8248 8252 8252 8254 8256 
8294 8285 8284 8289 8290 8281 8289 8283 8283 8269 8274 8272 8271 8269 8267 8270 8266 8268 8272 8276 8281 8279 8282 8279 8280 8283 8277 8281 8285 8291 8290 8285 8284 8281 8282 8283 8281 8279 8283 8280 8274 8271 8271 8265 8269 8273 8274 8274 8270 8267 8266 8263 8262 8262 8263 8260 8262 8260 8261 8261 8258 8256 8255 8252 8250 8254 8255 8252 8248 8249 8249 8248 8251 8248 8246 8246 8249 8249 8250 8249 
8290 8282 8284 8289 8285 8290 8279 8283 8282 8278 8272 8272 8267 8272 8266 8261 8267 8267 8271 8278 8278 8279 8284 8278 8277 8280 8279 8279 8282 8285 8286 8283 8279 8278 8280 8282 8279 8277 8281 8279 8273 8267 8267 8267 8269 8270 8273 8272 8270 8264 8263 8260 8262 8263 8262 8257 8256 8258 8259 8261 8259 8257 8254 8250 8251 8252 8252 8251 8248 8247 8249 8246 8247 8248 8241 8243 8244 8249 8244 8244 
8286 8280 8287 8283 8281 8287 8275 8282 8281 8271 8273 8268 8267 8268 8264 8260 8267 8261 8262 8268 8277 8278 8281 8276 8277 8273 8278 8281 8285 8286 8284 8281 8278 8277 8275 8276 8275 8274 8281 8274 8272 8271 8267 8265 8269 8269 8272 8271 8269 8264 8262 8262 8262 8260 8259 8257 8259 8256 8261 8258 8257 8255 8251 8247 8247 8251 8252 8248 8248 8246 8245 8242 8243 8242 8244 8241 8243 8242 8241 8241 
8282 8288 8285 8279 8275 8285 8275 8278 8281 8275 8272 8266 8267 8267 8267 8263 8261 8259 8263 8274 8278 8281 8279 8277 8278 8274 8279 8278 8283 8287 8285 8279 8277 8275 8272 8272 8273 8272 8281 8270 8268 8267 8268 8269 8272 8271 8271 8269 8266 8265 8265 8263 8264 8262 8257 8254 8257 8256 8258 8257 8256 8254 8252 8247 8244 8248 8251 8249 8245 8246 8242 8243 8245 8240 8239 8237 8238 8240 8239 8241 
8283 8290 8278 8273 8274 8284 8283 8271 8272 8273 8268 8264 8264 8263 8265 8264 8261 8262 8264 8268 8272 8280 8280 8276 8278 8276 8272 8279 8279 8284 8286 8278 8275 8273 8266 8272 8271 8272 8274 8268 8265 8265 8266 8265 8268 8270 8269 8267 8267 8265 8266 8264 8264 8261 8261 8258 8256 8256 8258 8257 8255 8254 8249 8247 8247 8247 8249 8250 8245 8245 8241 8241 8241 8239 8238 8236 8239 8238 8234 8234 
8289 8296 8287 8286 8283 8287 8276 8275 8270 8273 8274 8270 8266 8265 8264 8260 8265 8264 8263 8269 8273 8276 8275 8274 8275 8273 8275 8278 8274 8280 8283 8276 8271 8270 8267 8269 8267 8271 8269 8265 8266 8261 8264 8263 8267 8267 8265 8265 8267 8266 8264 8264 8262 8260 8260 8255 8256 8254 8258 8255 8254 8249 8251 8249 8246 8249 8248 8248 8244 8244 8240 8239 8237 8238 8236 8235 8236 8238 8236 8230 
8292 8282 8288 8283 8281 8278 8271 8276 8270 8271 8274 8268 8267 8267 8265 8268 8265 8261 8268 8272 8268 8273 8272 8272 8272 8272 8275 8272 8272 8279 8277 8275 8269 8266 8263 8263 8262 8262 8266 8261 8258 8259 8258 8261 8263 8263 8260 8261 8261 8264 8260 8259 8260 8258 8257 8256 8253 8253 8257 8254 8249 8248 8244 8246 8244 8246 8247 8248 8243 8242 8239 8237 8241 8234 8234 8231 8237 8233 8231 8231 
8292 8279 8280 8284 8276 8274 8269 8272 8265 8272 8272 8266 8265 8263 8266 8263 8262 8260 8267 8271 8268 8271 8272 8270 8268 8273 8273 8268 8269 8274 8273 8267 8262 8260 8256 8257 8246 8230 8238 8257 8257 8255 8256 8259 8257 8256 8256 8258 8258 8257 8260 8260 8260 8259 8253 8254 8255 8251 8251 8253 8248 8247 8244 8246 8249 8246 8249 8246 8242 8241 8239 8235 8238 8237 8234 8231 8231 8232 8227 8229 
8296 8274 8277 8279 8275 8270 8269 8266 8268 8272 8268 8268 8266 8263 8261 8262 8260 8265 8265 8266 8268 8272 8274 8262 8263 8265 8264 8233 8209 8251 8267 8251 8204 8227 8228 8202 8165 8151 8180 8248 8252 8253 8250 8252 8255 8253 8252 8252 8255 8257 8258 8260 8260 8257 8251 8250 8252 8250 8253 8252 8248 8245 8243 8244 8244 8244 8246 8243 8243 8239 8237 8237 8237 8233 8229 8230 8229 8229 8227 8230 
8293 8280 8284 8274 8273 8278 8269 8271 8271 8277 8271 8269 8268 8267 8266 8262 8259 8259 8265 8267 8269 8273 8269 8237 8222 8215 8217 8186 8163 8185 8229 8218 8190 8160 8164 8159 8170 8164 8179 8209 8220 8243 8250 8246 8251 8249 8248 8252 8251 8253 8257 8260 8253 8251 8248 8248 8250 8249 8248 8250 8247 8243 8244 8242 8241 8244 8243 8241 8241 8240 8235 8237 8238 8234 8230 8229 8227 8227 8227 8223 
8286 8279 8280 8275 8275 8270 8270 8273 8272 8273 8269 8266 8267 8264 8265 8261 8258 8263 8262 8263 8261 8270 8274 8264 8258 8253 8222 8191 8181 8180 8198 8241 8243 8210 8194 8177 8189 8173 8163 8178 8192 8209 8224 8231 8236 8214 8202 8212 8237 8249 8251 8252 8252 8247 8245 8243 8247 8247 8247 8247 8245 8245 8243 8240 8240 8240 8240 8241 8242 8237 8237 8234 8235 8232 8227 8228 8226 8222 8223 8222 
8284 8277 8278 8277 8269 8271 8273 8273 8272 8272 8273 8265 8264 8261 8262 8260 8258 8258 8256 8264 8257 8270 8272 8265 8262 8260 8245 8192 8172 8161 8163 8174 8219 8244 8219 8174 8164 8155 8163 8180 8208 8204 8199 8207 8226 8222 8214 8199 8196 8220 8247 8251 8249 8246 8245 8245 8245 8248 8246 8244 8241 8239 8242 8242 8241 8242 8238 8236 8237 8238 8236 8233 8233 8232 8230 8227 8224 8224 8224 8223 
8285 8281 8272 8266 8266 8268 8262 8272 8273 8267 8264 8263 8263 8257 8255 8260 8255 8256 8250 8256 8257 8266 8270 8259 8249 8246 8206 8166 8161 8160 8165 8184 8176 8203 8184 8178 8161 8157 8159 8175 8208 8215 8201 8182 8181 8215 8239 8223 8207 8192 8214 8244 8246 8245 8243 8246 8246 8247 8243 8242 8242 8240 8239 8240 8240 8239 8238 8237 8236 8234 8232 8233 8233 8233 8229 8225 8221 8223 8223 8222 
8290 8287 8274 8280 8273 8273 8259 8274 8265 8270 8262 8256 8258 8242 8230 8239 8243 8241 8231 8229 8230 8235 8228 8227 8196 8171 8174 8168 8186 8154 8164 8181 8166 8172 8183 8221 8180 8167 8166 8184 8210 8201 8186 8186 8212 8238 8244 8241 8234 8207 8190 8219 8244 8247 8244 8246 8245 8244 8243 8241 8238 8237 8238 8239 8240 8237 8236 8234 8234 8234 8234 8232 8231 8228 8226 8224 8224 8222 8223 8222 
8290 8282 8280 8277 8271 8267 8259 8259 8260 8267 8267 8257 8228 8171 8169 8180 8193 8190 8194 8196 8192 8197 8201 8191 8176 8158 8176 8182 8217 8160 8148 8158 8165 8168 8152 8174 8182 8162 8159 8157 8167 8210 8233 8236 8242 8241 8242 8242 8242 8237 8215 8203 8224 8241 8243 8246 8244 8245 8243 8241 8239 8239 8235 8238 8237 8238 8236 8236 8235 8235 8231 8229 8229 8227 8224 8223 8221 8222 8219 8226 
8286 8282 8278 8277 8275 8272 8264 8261 8268 8269 8265 8253 8193 8161 8175 8187 8196 8198 8203 8230 8234 8208 8191 8181 8164 8150 8150 8162 8205 8155 8142 8148 8157 8159 8170 8173 8167 8166 8165 8160 8155 8166 8205 8235 8240 8242 8241 8240 8240 8242 8242 8220 8209 8230 8239 8243 8244 8242 8241 8239 8238 8238 8236 8239 8236 8238 8236 8236 8233 8234 8228 8229 8226 8226 8226 8224 8220 8220 8221 8225 
8279 8276 8273 8282 8275 8268 8262 8268 8266 8266 8263 8236 8180 8180 8220 8239 8245 8246 8243 8248 8242 8184 8178 8162 8156 8161 8170 8152 8155 8150 8143 8148 8140 8159 8150 8139 8175 8182 8178 8167 8164 8167 8179 8223 8239 8228 8223 8235 8240 8241 8244 8242 8224 8205 8230 8237 8240 8241 8244 8239 8238 8238 8236 8236 8238 8233 8236 8235 8232 8229 8227 8227 8229 8224 8226 8223 8219 8221 8220 8223 
8279 8269 8270 8281 8277 8268 8273 8262 8257 8265 8256 8211 8182 8220 8254 8251 8253 8253 8246 8242 8201 8179 8187 8167 8162 8167 8173 8166 8156 8147 8153 8141 8127 8141 8144 8137 8184 8197 8206 8192 8175 8186 8181 8196 8201 8186 8184 8192 8198 8222 8240 8240 8235 8222 8210 8230 8238 8240 8239 8237 8236 8237 8236 8237 8235 8235 8234 8232 8228 8226 8227 8227 8226 8221 8221 8224 8222 8222 8224 8220 
8279 8276 8271 8276 8271 8273 8268 8263 8264 8261 8235 8192 8215 8252 8257 8252 8252 8251 8232 8194 8190 8189 8176 8170 8167 8169 8164 8149 8155 8167 8172 8153 8133 8152 8170 8147 8152 8155 8175 8222 8221 8213 8214 8217 8221 8209 8193 8192 8194 8195 8217 8237 8238 8236 8221 8208 8234 8240 8240 8240 8240 8237 8235 8235 8234 8232 8229 8227 8223 8222 8225 8221 8225 8222 8220 8219 8220 8221 8220 8217 
8274 8277 8275 8276 8275 8267 8266 8263 8260 8252 8203 8207 8253 8254 8254 8249 8255 8246 8192 8182 8183 8182 8175 8168 8169 8167 8156 8152 8159 8169 8174 8173 8161 8162 8174 8156 8148 8147 8161 8208 8230 8234 8236 8236 8239 8238 8218 8184 8196 8202 8204 8234 8238 8239 8237 8219 8232 8238 8241 8242 8241 8237 8236 8234 8233 8232 8232 8224 8220 8218 8219 8220 8221 8218 8220 8219 8222 8221 8219 8221 
8273 8273 8275 8273 8269 8273 8267 8265 8258 8220 8200 8246 8262 8259 8261 8248 8252 8249 8211 8185 8185 8179 8171 8167 8166 8152 8146 8148 8156 8160 8165 8170 8162 8167 8206 8193 8170 8156 8169 8228 8238 8238 8240 8241 8240 8237 8238 8225 8202 8209 8215 8210 8236 8241 8241 8239 8240 8240 8240 8236 8235 8233 8233 8233 8233 8230 8226 8222 8219 8219 8217 8218 8218 8219 8222 8217 8221 8222 8222 8219 
8274 8276 8272 8276 8270 8274 8269 8263 8240 8190 8237 8262 8261 8259 8257 8255 8255 8250 8248 8210 8213 8187 8156 8160 8159 8149 8149 8147 8148 8158 8157 8157 8150 8153 8161 8187 8221 8218 8209 8236 8237 8238 8238 8241 8239 8241 8240 8242 8239 8238 8241 8241 8244 8243 8241 8243 8240 8239 8237 8234 8233 8231 8231 8235 8230 8230 8225 8224 8217 8218 8215 8215 8219 8219 8219 8219 8220 8225 8221 8222 
8274 8275 8272 8275 8270 8273 8264 8263 8240 8209 8260 8259 8259 8262 8256 8258 8255 8252 8253 8249 8247 8200 8150 8145 8146 8143 8157 8160 8160 8164 8156 8153 8171 8199 8158 8186 8187 8224 8241 8238 8238 8237 8241 8239 8241 8243 8242 8240 8242 8242 8242 8245 8243 8241 8238 8239 8236 8233 8235 8233 8233 8233 8234 8232 8232 8228 8229 8224 8220 8219 8217 8217 8219 8219 8219 8216 8219 8219 8221 8220 
8275 8271 8271 8272 8269 8271 8263 8266 8252 8228 8258 8262 8259 8254 8256 8255 8256 8248 8252 8251 8251 8230 8157 8148 8150 8151 8170 8204 8180 8163 8155 8154 8175 8231 8208 8197 8232 8232 8240 8239 8238 8236 8237 8240 8241 8243 8247 8243 8244 8245 8243 8242 8240 8239 8238 8238 8236 8234 8235 8236 8234 8232 8233 8231 8229 8226 8226 8221 8220 8220 8219 8220 8219 8215 8213 8217 8217 8218 8220 8219 
8278 8275 8268 8272 8269 8273 8264 8261 8263 8254 8259 8258 8255 8255 8255 8253 8252 8247 8250 8251 8252 8245 8171 8154 8163 8181 8228 8251 8235 8170 8151 8153 8161 8191 8224 8229 8236 8235 8237 8237 8237 8234 8238 8240 8243 8246 8247 8243 8241 8243 8242 8244 8244 8242 8236 8235 8236 8233 8236 8235 8233 8232 8233 8230 8230 8228 8225 8222 8220 8220 8220 8218 8215 8213 8213 8214 8214 8216 8217 8218 
8280 8273 8280 8275 8270 8272 8262 8270 8268 8267 8262 8261 8253 8255 8257 8251 8250 8251 8251 8251 8249 8207 8187 8200 8229 8248 8254 8248 8247 8189 8159 8154 8152 8156 8170 8222 8233 8234 8236 8234 8235 8235 8236 8238 8242 8245 8245 8245 8245 8242 8243 8245 8244 8243 8238 8236 8237 8235 8234 8234 8236 8235 8235 8232 8233 8230 8228 8226 8221 8222 8220 8218 8217 8214 8215 8214 8214 8216 8218 8220 
8287 8277 8278 8280 8276 8269 8269 8269 8263 8264 8263 8264 8261 8253 8256 8255 8254 8253 8250 8251 8213 8176 8197 8246 8251 8245 8232 8223 8238 8197 8153 8157 8152 8167 8163 8165 8185 8194 8220 8227 8232 8232 8236 8238 8242 8244 8246 8244 8244 8245 8244 8243 8241 8242 8238 8237 8238 8235 8237 8237 8235 8238 8237 8236 8233 8234 8231 8228 8224 8224 8219 8221 8215 8218 8214 8214 8217 8216 8218 8219 
8285 8279 8278 8277 8273 8273 8274 8271 8265 8261 8259 8260 8264 8257 8256 8257 8257 8253 8249 8216 8181 8174 8182 8235 8246 8192 8161 8160 8183 8169 8155 8159 8158 8154 8151 8164 8183 8165 8163 8171 8199 8225 8233 8237 8241 8242 8242 8242 8242 8243 8241 8242 8240 8241 8236 8241 8239 8236 8238 8238 8239 8240 8239 8239 8237 8235 8235 8230 8228 8226 8224 8222 8220 8218 8218 8218 8218 8215 8219 8220 
8286 8280 8282 8277 8274 8272 8274 8265 8266 8265 8263 8265 8264 8256 8258 8252 8253 8251 8234 8185 8175 8174 8178 8207 8210 8162 8165 8192 8225 8187 8159 8162 8160 8157 8152 8174 8198 8194 8167 8161 8167 8203 8231 8237 8240 8243 8243 8244 8240 8242 8241 8241 8241 8243 8241 8243 8240 8239 8239 8238 8240 8240 8240 8237 8236 8237 8236 8233 8229 8230 8226 8226 8226 8223 8222 8220 8222 8217 8219 8219 
8281 8277 8274 8275 8274 8274 8269 8265 8266 8265 8259 8266 8264 8259 8255 8257 8248 8248 8215 8169 8169 8170 8175 8181 8174 8181 8223 8244 8245 8216 8162 8170 8175 8191 8187 8167 8181 8166 8161 8169 8173 8188 8227 8231 8238 8242 8241 8240 8242 8238 8240 8240 8241 8243 8242 8239 8240 8240 8240 8237 8238 8238 8238 8234 8240 8239 8236 8235 8233 8231 8233 8229 8228 8225 8226 8222 8222 8217 8214 8216 
8277 8278 8276 8274 8275 8275 8271 8269 8266 8266 8265 8263 8262 8259 8259 8252 8253 8244 8215 8172 8167 8167 8172 8186 8194 8219 8230 8237 8236 8215 8168 8198 8216 8211 8217 8220 8212 8196 8181 8170 8177 8183 8221 8229 8235 8238 8239 8238 8238 8237 8240 8241 8241 8242 8241 8241 8243 8243 8242 8238 8238 8239 8237 8234 8237 8237 8237 8237 8233 8232 8226 8231 8229 8227 8226 8227 8226 8222 8219 8215 
8280 8282 8285 8277 8277 8279 8277 8266 8267 8267 8269 8262 8261 8256 8254 8250 8251 8243 8204 8179 8174 8169 8170 8174 8188 8213 8225 8230 8235 8219 8171 8214 8222 8224 8228 8232 8235 8228 8215 8203 8200 8210 8213 8217 8224 8222 8226 8238 8238 8236 8242 8238 8239 8244 8241 8241 8242 8242 8242 8237 8238 8236 8234 8234 8235 8237 8236 8237 8234 8233 8230 8232 8231 8230 8232 8227 8226 8223 8221 8220 
8275 8281 8285 8276 8276 8277 8267 8271 8269 8265 8261 8264 8260 8258 8261 8254 8253 8241 8209 8194 8196 8192 8189 8186 8190 8214 8223 8222 8214 8194 8178 8219 8235 8231 8231 8236 8242 8239 8237 8209 8221 8226 8228 8227 8228 8223 8220 8225 8235 8237 8238 8238 8240 8240 8240 8239 8241 8239 8240 8237 8238 8239 8238 8235 8237 8237 8235 8235 8232 8233 8233 8232 8232 8234 8232 8229 8228 8225 8218 8224 
8278 8274 8285 8273 8272 8275 8266 8266 8269 8267 8265 8266 8269 8263 8266 8259 8256 8248 8213 8197 8197 8195 8194 8192 8194 8191 8190 8187 8186 8183 8188 8196 8198 8195 8197 8202 8207 8212 8215 8213 8215 8220 8226 8226 8227 8225 8224 8227 8235 8237 8238 8237 8238 8240 8241 8241 8238 8238 8236 8236 8235 8239 8240 8237 8237 8238 8238 8233 8232 8235 8236 8234 8233 8239 8235 8238 8235 8231 8222 8226 
8277 8277 8273 8271 8270 8275 8274 8271 8271 8272 8267 8268 8267 8267 8259 8256 8254 8257 8221 8198 8203 8198 8199 8199 8196 8189 8182 8182 8182 8175 8183 8187 8181 8180 8188 8197 8202 8208 8211 8213 8218 8223 8233 8232 8233 8237 8239 8233 8235 8236 8237 8239 8238 8241 8239 8238 8237 8235 8235 8234 8238 8240 8239 8240 8236 8236 8234 8232 8234 8233 8236 8235 8236 8236 8240 8238 8237 8235 8227 8229 
8278 8276 8276 8272 8277 8269 8271 8271 8271 8273 8269 8266 8270 8269 8261 8256 8260 8255 8240 8209 8202 8194 8199 8202 8193 8184 8181 8179 8176 8172 8182 8188 8175 8175 8180 8191 8203 8207 8216 8220 8229 8238 8251 8246 8241 8244 8242 8234 8234 8232 8234 8238 8235 8241 8238 8239 8235 8236 8234 8234 8238 8237 8241 8239 8234 8236 8234 8232 8233 8233 8235 8236 8239 8239 8241 8238 8239 8238 8227 8228 
8280 8281 8276 8271 8277 8274 8274 8269 8275 8277 8271 8268 8271 8269 8266 8262 8263 8263 8259 8237 8208 8198 8199 8199 8190 8183 8184 8184 8180 8180 8188 8186 8175 8175 8180 8188 8191 8202 8212 8220 8241 8255 8253 8242 8231 8232 8237 8233 8234 8232 8233 8232 8232 8235 8239 8238 8238 8237 8237 8236 8236 8238 8239 8237 8236 8236 8235 8234 8232 8237 8236 8234 8239 8240 8240 8240 8240 8238 8232 8232 
8277 8277 8271 8276 8278 8277 8274 8273 8270 8271 8268 8269 8273 8273 8273 8269 8273 8265 8265 8247 8218 8208 8208 8204 8206 8187 8184 8180 8184 8185 8188 8183 8180 8188 8191 8195 8197 8202 8208 8218 8231 8233 8231 8226 8229 8233 8236 8233 8235 8231 8233 8230 8233 8233 8236 8236 8237 8235 8235 8234 8236 8237 8237 8237 8235 8237 8236 8236 8235 8238 8233 8235 8238 8238 8239 8240 8241 8238 8234 8236 
8274 8284 8270 8277 8276 8276 8278 8278 8273 8273 8273 8274 8277 8278 8272 8274 8273 8272 8265 8255 8222 8212 8217 8217 8214 8204 8190 8183 8186 8182 8180 8179 8191 8199 8202 8208 8211 8214 8218 8221 8232 8237 8238 8237 8240 8236 8232 8235 8234 8233 8234 8232 8236 8232 8232 8236 8234 8237 8236 8234 8234 8235 8233 8237 8233 8237 8238 8237 8237 8235 8237 8236 8239 8243 8241 8242 8244 8241 8238 8237 
8274 8283 8276 8279 8273 8276 8277 8279 8283 8282 8280 8276 8276 8273 8274 8272 8275 8269 8264 8259 8231 8222 8225 8221 8226 8217 8212 8194 8183 8181 8181 8186 8206 8212 8214 8218 8217 8222 8225 8230 8238 8243 8245 8244 8240 8236 8235 8229 8236 8236 8234 8233 8232 8234 8231 8234 8236 8235 8233 8231 8233 8233 8234 8236 8236 8235 8235 8233 8235 8236 8236 8241 8238 8240 8242 8248 8245 8244 8240 8239 
8273 8270 8279 8278 8275 8278 8278 8280 8283 8277 8278 8279 8281 8276 8276 8274 8274 8271 8268 8265 8239 8230 8231 8226 8228 8229 8222 8216 8191 8185 8187 8194 8219 8221 8221 8227 8230 8232 8234 8240 8245 8247 8249 8250 8242 8236 8231 8231 8229 8234 8233 8234 8234 8234 8230 8233 8232 8233 8231 8232 8235 8236 8237 8238 8235 8235 8236 8235 8234 8239 8240 8239 8243 8244 8247 8247 8247 8244 8241 8239 
8270 8270 8276 8275 8268 8279 8280 8276 8279 8276 8279 8278 8283 8281 8274 8270 8274 8272 8272 8263 8233 8231 8232 8227 8233 8234 8234 8223 8212 8191 8186 8203 8225 8229 8232 8233 8238 8241 8243 8245 8249 8249 8251 8248 8239 8235 8233 8233 8231 8230 8234 8236 8236 8236 8229 8229 8235 8232 8234 8231 8234 8235 8239 8235 8231 8233 8236 8235 8238 8238 8235 8240 8245 8246 8249 8249 8247 8244 8239 8245 
8284 8293 8279 8267 8265 8266 8275 8268 8268 8275 8276 8278 8277 8278 8278 8274 8272 8271 8274 8268 8238 8232 8234 8233 8231 8235 8237 8229 8228 8214 8195 8216 8232 8237 8235 8238 8241 8243 8246 8247 8246 8247 8250 8246 8244 8234 8232 8232 8232 8231 8230 8238 8235 8235 8227 8231 8233 8231 8232 8232 8234 8238 8236 8233 8231 8235 8235 8238 8241 8244 8242 8242 8245 8245 8248 8248 8248 8244 8234 8262 
8290 8292 8278 8267 8257 8262 8259 8269 8268 8269 8266 8265 8268 8273 8270 8266 8267 8269 8267 8265 8248 8237 8241 8232 8232 8239 8244 8238 8235 8234 8225 8237 8236 8236 8239 8243 8245 8246 8250 8250 8247 8246 8248 8246 8241 8231 8233 8232 8231 8233 8235 8235 8233 8234 8233 8236 8233 8230 8231 8232 8236 8235 8234 8231 8232 8235 8238 8237 8242 8241 8244 8243 8247 8245 8251 8251 8248 8241 8241 8271 
8267 8268 8258 8254 8253 8252 8260 8277 8284 8266 8247 8246 8242 8250 8251 8249 8256 8258 8255 8254 8243 8239 8240 8233 8236 8239 8244 8246 8246 8238 8240 8240 8238 8241 8241 8243 8245 8244 8250 8249 8247 8247 8248 8245 8238 8229 8230 8232 8232 8231 8232 8237 8232 8236 8232 8234 8233 8233 8235 8236 8239 8237 8237 8233 8233 8237 8235 8239 8241 8242 8245 8245 8247 8251 8249 8249 8245 8241 8265 8288 
8296 8284 8266 8264 8273 8289 8299 8300 8274 8274 8257 8256 8250 8247 8250 8243 8250 8250 8242 8232 8232 8234 8237 8238 8241 8235 8243 8244 8241 8246 8246 8249 8245 8249 8243 8246 8248 8249 8251 8248 8245 8244 8245 8243 8230 8207 8220 8231 8233 8233 8234 8238 8235 8230 8232 8234 8234 8233 8232 8233 8236 8239 8238 8239 8235 8238 8236 8239 8242 8236 8242 8246 8250 8251 8249 8248 8243 8242 8280 8304 
8301 8287 8276 8289 8313 8322 8324 8325 8319 8337 8327 8309 8305 8307 8305 8304 8285 8249 8230 8230 8228 8231 8232 8235 8235 8234 8237 8239 8242 8247 8245 8250 8249 8247 8248 8249 8249 8251 8250 8245 8245 8245 8245 8239 8219 8202 8199 8220 8233 8232 8236 8235 8230 8232 8232 8231 8232 8233 8230 8236 8236 8235 8239 8237 8237 8234 8233 8233 8237 8239 8245 8244 8250 8250 8248 8251 8242 8241 8285 8300 
8296 8311 8323 8337 8349 8342 8340 8334 8327 8356 8341 8313 8312 8309 8318 8329 8298 8260 8231 8234 8240 8233 8232 8230 8232 8222 8230 8235 8238 8240 8245 8247 8250 8249 8249 8249 8247 8247 8249 8244 8244 8241 8238 8234 8220 8201 8195 8219 8232 8232 8233 8233 8229 8226 8220 8224 8226 8227 8227 8229 8233 8232 8233 8236 8236 8235 8234 8238 8236 8238 8244 8245 8247 8250 8252 8250 8240 8240 8278 8289 
8317 8346 8348 8330 8334 8341 8343 8357 8354 8346 8354 8350 8360 8364 8354 8331 8328 8308 8262 8243 8242 8235 8233 8231 8227 8216 8222 8228 8237 8236 8238 8239 8240 8237 8238 8243 8245 8241 8243 8243 8238 8236 8235 8232 8218 8199 8201 8209 8216 8220 8216 8215 8210 8207 8207 8211 8214 8217 8213 8218 8222 8214 8225 8232 8233 8240 8242 8245 8238 8241 8247 8247 8244 8248 8251 8248 8242 8247 8278 8282 
8360 8369 8359 8338 8347 8360 8366 8366 8364 8352 8350 8350 8359 8372 8353 8328 8320 8322 8300 8260 8243 8232 8230 8229 8232 8227 8226 8230 8232 8234 8235 8238 8237 8234 8229 8234 8235 8239 8237 8237 8235 8229 8221 8215 8204 8199 8209 8209 8211 8209 8209 8209 8208 8210 8204 8209 8219 8220 8212 8220 8229 8223 8228 8234 8236 8232 8242 8250 8238 8245 8254 8256 8257 8262 8266 8263 8253 8263 8273 8272 
8363 8339 8326 8326 8345 8372 8359 8346 8343 8346 8356 8375 8377 8371 8358 8332 8334 8336 8343 8278 8250 8235 8232 8228 8235 8229 8228 8227 8228 8231 8234 8232 8230 8225 8224 8225 8229 8226 8225 8221 8212 8208 8195 8195 8202 8209 8211 8210 8209 8206 8206 8202 8201 8203 8203 8201 8211 8211 8207 8211 8220 8221 8218 8229 8238 8230 8239 8252 8253 8247 8256 8260 8259 8251 8259 8266 8270 8261 8271 8272 
8370 8351 8348 8350 8361 8374 8354 8333 8325 8325 8334 8379 8371 8339 8320 8301 8300 8321 8352 8318 8258 8239 8231 8229 8225 8223 8215 8211 8215 8219 8221 8222 8214 8205 8206 8209 8209 8211 8207 8208 8207 8205 8196 8199 8203 8209 8208 8210 8207 8208 8208 8203 8205 8209 8208 8208 8213 8214 8214 8209 8225 8216 8217 8221 8228 8230 8229 8245 8251 8253 8253 8265 8270 8263 8257 8268 8266 8265 8265 8274 


