P2
80 60
8220
8171 8176 8179 8178 8181 8180 8179 8179 8180 8180 8182 8183 8184 8184 8180 8183 8183 8185 8185 8185 8186 8190 8191 8194 8196 8198 8206 8210 8211 8212 8209 8210 8213 8217 8215 8209 8211 8213 8214 8218 8213 8213 8214 8211 8205 8202 8204 8201 8196 8197 8199 8196 8192 8192 8187 8186 8182 8184 8185 8186 8186 8183 8184 8183 8185 8185 8186 8189 8185 8186 8185 8187 8186 8184 8187 8186 8188 8192 8182 8180 
8172 8176 8178 8180 8178 8178 8177 8182 8180 8180 8182 8187 8184 8183 8184 8184 8186 8181 8183 8189 8188 8192 8194 8192 8197 8197 8208 8210 8212 8213 8211 8213 8211 8214 8211 8211 8212 8217 8215 8217 8214 8213 8209 8209 8206 8202 8202 8201 8200 8198 8198 8197 8192 8188 8185 8190 8186 8184 8183 8188 8185 8186 8186 8183 8182 8182 8186 8186 8187 8186 8184 8188 8187 8188 8185 8184 8187 8185 8178 8185 
8168 8172 8175 8175 8178 8177 8179 8184 8181 8183 8183 8184 8180 8181 8183 8186 8185 8181 8183 8185 8186 8190 8193 8189 8195 8199 8210 8215 8210 8208 8209 8212 8210 8215 8211 8212 8213 8217 8218 8220 8217 8213 8210 8205 8208 8200 8202 8199 8198 8197 8195 8192 8191 8188 8189 8191 8189 8188 8186 8187 8187 8187 8187 8182 8183 8185 8186 8189 8188 8186 8184 8184 8188 8185 8186 8184 8183 8186 8176 8176 
8168 8170 8174 8175 8177 8180 8181 8180 8180 8178 8180 8179 8178 8186 8184 8182 8186 8180 8183 8184 8186 8184 8184 8189 8196 8199 8211 8216 8210 8210 8209 8209 8213 8212 8212 8213 8216 8216 8218 8216 8214 8212 8208 8204 8202 8198 8198 8196 8198 8197 8198 8193 8192 8190 8188 8193 8187 8189 8186 8187 8183 8185 8185 8183 8183 8181 8187 8184 8187 8185 8184 8186 8187 8184 8182 8181 8180 8183 8176 8178 
8166 8173 8174 8173 8176 8177 8179 8179 8182 8177 8179 8176 8178 8181 8180 8183 8183 8181 8183 8184 8182 8189 8186 8185 8193 8199 8212 8210 8210 8209 8210 8210 8211 8211 8209 8213 8217 8215 8215 8217 8213 8211 8208 8202 8201 8195 8195 8197 8194 8198 8196 8194 8192 8191 8190 8192 8187 8188 8188 8186 8183 8185 8186 8180 8182 8180 8180 8180 8185 8186 8182 8182 8183 8182 8177 8176 8175 8176 8174 8174 
8168 8174 8176 8174 8177 8178 8180 8182 8179 8177 8180 8178 8180 8180 8178 8182 8185 8176 8181 8186 8185 8186 8190 8186 8193 8199 8208 8208 8208 8210 8209 8213 8209 8211 8212 8214 8214 8212 8213 8216 8215 8211 8206 8202 8199 8199 8198 8197 8193 8195 8193 8194 8194 8191 8188 8192 8188 8188 8187 8187 8184 8186 8183 8180 8184 8180 8182 8183 8180 8180 8182 8179 8180 8176 8173 8175 8174 8173 8168 8171 
8170 8178 8179 8180 8180 8180 8184 8186 8178 8173 8174 8178 8180 8178 8175 8179 8185 8179 8185 8184 8184 8186 8188 8189 8195 8198 8206 8203 8209 8211 8210 8215 8212 8213 8215 8212 8213 8212 8212 8215 8214 8207 8211 8203 8203 8198 8197 8196 8196 8197 8195 8191 8192 8190 8185 8188 8184 8185 8187 8188 8181 8183 8184 8181 8182 8182 8185 8184 8179 8179 8180 8183 8179 8173 8174 8172 8169 8169 8165 8165 
8167 8178 8180 8179 8181 8181 8184 8188 8183 8173 8180 8179 8176 8179 8178 8184 8185 8181 8183 8186 8188 8185 8190 8191 8191 8199 8202 8206 8206 8212 8210 8211 8213 8213 8215 8212 8213 8210 8211 8212 8214 8208 8210 8202 8201 8197 8196 8195 8192 8195 8192 8188 8189 8189 8183 8187 8184 8184 8183 8182 8184 8183 8181 8177 8181 8180 8182 8182 8180 8178 8179 8177 8177 8173 8174 8172 8167 8169 8160 8162 
8170 8174 8176 8178 8181 8179 8183 8182 8183 8176 8177 8178 8180 8179 8177 8178 8183 8179 8186 8184 8184 8181 8185 8186 8184 8195 8204 8207 8205 8209 8209 8208 8207 8211 8209 8210 8211 8209 8210 8210 8211 8210 8210 8203 8199 8198 8196 8195 8195 8191 8191 8190 8191 8187 8181 8188 8180 8185 8183 8186 8183 8181 8179 8180 8181 8179 8182 8181 8179 8177 8177 8175 8178 8175 8170 8171 8169 8170 8163 8167 
8169 8171 8180 8177 8178 8179 8179 8182 8183 8180 8176 8175 8176 8178 8176 8178 8184 8181 8185 8185 8183 8184 8184 8185 8185 8189 8203 8207 8208 8206 8203 8207 8207 8207 8208 8210 8210 8207 8208 8210 8206 8208 8210 8201 8198 8193 8197 8194 8192 8192 8191 8191 8189 8187 8184 8186 8185 8182 8183 8185 8181 8183 8177 8175 8177 8176 8179 8179 8178 8174 8176 8172 8171 8174 8169 8168 8167 8169 8162 8166 
8170 8172 8177 8173 8175 8177 8173 8178 8178 8176 8176 8173 8177 8177 8174 8178 8179 8179 8176 8181 8181 8184 8186 8186 8184 8189 8203 8206 8208 8208 8204 8205 8205 8206 8205 8207 8209 8207 8208 8208 8208 8205 8203 8200 8198 8195 8197 8196 8190 8191 8189 8189 8188 8185 8181 8185 8182 8181 8182 8182 8180 8179 8183 8177 8175 8175 8176 8179 8176 8176 8174 8173 8170 8171 8170 8166 8166 8173 8164 8161 
8171 8178 8174 8169 8171 8174 8175 8179 8179 8173 8176 8173 8175 8177 8178 8178 8182 8174 8179 8182 8186 8182 8185 8187 8190 8188 8202 8205 8206 8207 8207 8209 8205 8209 8200 8202 8207 8207 8205 8205 8207 8204 8204 8201 8198 8194 8193 8194 8190 8193 8190 8190 8188 8188 8183 8184 8180 8179 8182 8182 8179 8178 8180 8177 8177 8176 8179 8179 8176 8174 8173 8171 8170 8166 8168 8168 8170 8172 8166 8161 
8172 8175 8174 8171 8167 8173 8176 8175 8177 8175 8173 8172 8174 8172 8173 8176 8177 8176 8178 8181 8178 8182 8184 8184 8187 8191 8201 8206 8206 8207 8205 8203 8203 8205 8198 8200 8206 8203 8202 8203 8200 8203 8203 8201 8197 8195 8193 8191 8188 8189 8190 8189 8191 8188 8183 8184 8183 8181 8183 8182 8182 8180 8178 8174 8179 8172 8176 8174 8177 8173 8172 8169 8170 8169 8164 8170 8168 8167 8163 8159 
8172 8179 8179 8173 8173 8173 8177 8176 8178 8173 8176 8177 8173 8176 8176 8178 8178 8176 8181 8183 8177 8183 8182 8184 8184 8188 8204 8207 8206 8203 8206 8198 8200 8204 8201 8200 8202 8202 8205 8201 8198 8203 8201 8199 8195 8194 8189 8189 8189 8189 8190 8192 8190 8187 8184 8183 8184 8180 8184 8183 8177 8178 8177 8175 8176 8175 8175 8173 8171 8175 8172 8169 8170 8171 8167 8168 8167 8171 8166 8165 
8171 8174 8180 8179 8174 8174 8177 8175 8181 8173 8177 8175 8173 8174 8173 8179 8180 8177 8182 8183 8176 8178 8182 8181 8183 8187 8202 8200 8202 8207 8195 8201 8202 8202 8199 8201 8204 8204 8200 8202 8201 8198 8199 8197 8197 8191 8190 8189 8185 8188 8189 8189 8188 8188 8183 8182 8180 8181 8184 8180 8179 8176 8176 8176 8175 8174 8175 8173 8174 8170 8174 8169 8171 8165 8166 8168 8169 8172 8163 8164 
8169 8169 8177 8176 8174 8177 8173 8180 8180 8176 8175 8176 8173 8176 8174 8181 8182 8179 8185 8181 8179 8182 8180 8181 8181 8193 8202 8195 8203 8205 8195 8200 8200 8199 8199 8199 8205 8204 8198 8201 8202 8198 8201 8196 8192 8189 8187 8186 8188 8189 8188 8187 8192 8185 8182 8182 8183 8177 8182 8181 8177 8174 8176 8177 8175 8173 8175 8173 8175 8172 8175 8171 8170 8170 8166 8170 8165 8168 8162 8162 
8168 8168 8177 8175 8172 8171 8174 8174 8178 8175 8175 8177 8176 8173 8173 8177 8180 8182 8182 8178 8178 8178 8181 8180 8178 8186 8193 8191 8190 8198 8198 8199 8196 8199 8194 8193 8195 8202 8204 8201 8199 8200 8199 8197 8192 8185 8187 8185 8183 8190 8190 8189 8187 8183 8180 8184 8179 8178 8177 8179 8179 8180 8179 8174 8174 8174 8176 8174 8172 8173 8173 8169 8171 8170 8168 8170 8167 8167 8159 8158 
8165 8170 8176 8173 8174 8175 8174 8179 8177 8175 8176 8172 8181 8178 8178 8177 8178 8177 8183 8179 8180 8180 8179 8179 8181 8179 8169 8162 8157 8195 8195 8197 8175 8167 8165 8154 8151 8179 8190 8199 8195 8194 8197 8193 8196 8190 8187 8185 8187 8188 8191 8189 8186 8185 8181 8182 8177 8177 8177 8179 8178 8179 8178 8175 8174 8174 8173 8172 8172 8171 8169 8170 8176 8169 8168 8168 8168 8166 8160 8159 
8166 8170 8175 8174 8172 8174 8176 8176 8180 8175 8177 8178 8181 8179 8176 8179 8178 8182 8183 8180 8174 8181 8182 8182 8182 8179 8163 8158 8153 8186 8185 8169 8147 8169 8146 8144 8147 8166 8183 8171 8181 8171 8170 8184 8192 8184 8185 8186 8184 8184 8185 8187 8183 8179 8175 8174 8177 8176 8177 8177 8174 8176 8175 8176 8172 8172 8173 8170 8172 8171 8171 8170 8169 8166 8167 8167 8166 8167 8160 8164 
8170 8171 8174 8176 8171 8175 8176 8181 8180 8176 8177 8179 8175 8173 8173 8180 8180 8179 8180 8175 8176 8181 8182 8180 8181 8176 8164 8154 8152 8162 8150 8144 8143 8154 8146 8147 8157 8180 8181 8160 8173 8175 8170 8153 8182 8184 8183 8182 8183 8187 8186 8186 8183 8178 8178 8179 8176 8177 8177 8175 8173 8175 8173 8174 8177 8173 8172 8170 8170 8170 8170 8168 8170 8168 8167 8167 8167 8167 8160 8162 
8172 8176 8178 8175 8173 8172 8174 8178 8178 8174 8177 8173 8175 8176 8177 8181 8180 8179 8177 8175 8175 8179 8182 8180 8181 8173 8159 8157 8150 8142 8140 8143 8162 8164 8146 8144 8178 8165 8144 8140 8142 8155 8181 8150 8166 8183 8182 8182 8183 8181 8184 8184 8184 8179 8179 8181 8178 8179 8176 8176 8173 8174 8174 8176 8176 8175 8176 8173 8171 8169 8169 8169 8168 8168 8165 8169 8167 8165 8161 8159 
8172 8180 8175 8179 8176 8175 8167 8176 8175 8176 8176 8172 8176 8174 8174 8177 8178 8174 8177 8175 8177 8180 8182 8182 8180 8178 8161 8155 8152 8147 8155 8168 8172 8152 8146 8140 8146 8145 8139 8150 8156 8163 8172 8150 8170 8175 8180 8182 8177 8180 8180 8182 8181 8181 8181 8182 8177 8175 8178 8173 8171 8174 8174 8173 8173 8175 8175 8175 8171 8170 8171 8169 8169 8164 8166 8166 8168 8168 8159 8165 
8174 8179 8180 8180 8177 8177 8170 8174 8172 8176 8180 8177 8173 8178 8178 8179 8178 8173 8174 8176 8178 8181 8181 8187 8185 8182 8164 8160 8151 8149 8160 8148 8144 8142 8144 8139 8138 8138 8139 8150 8143 8141 8162 8153 8155 8168 8176 8178 8177 8177 8178 8181 8182 8178 8179 8182 8177 8174 8172 8173 8172 8171 8173 8174 8176 8175 8177 8175 8171 8169 8169 8164 8168 8162 8165 8164 8165 8165 8160 8163 
8173 8175 8181 8175 8175 8177 8175 8171 8176 8173 8176 8177 8172 8175 8175 8176 8178 8173 8177 8174 8179 8180 8185 8178 8179 8180 8165 8156 8149 8139 8133 8138 8139 8145 8140 8138 8138 8158 8151 8141 8136 8135 8174 8160 8180 8160 8175 8175 8175 8182 8180 8183 8178 8178 8178 8178 8176 8174 8171 8171 8172 8173 8173 8174 8173 8176 8177 8173 8173 8167 8165 8163 8167 8164 8163 8164 8165 8167 8156 8157 
8170 8177 8178 8179 8175 8174 8173 8177 8177 8174 8177 8175 8174 8175 8176 8181 8176 8177 8176 8172 8179 8180 8181 8177 8180 8181 8166 8155 8147 8136 8138 8139 8134 8141 8134 8138 8137 8148 8150 8138 8140 8136 8141 8152 8180 8176 8177 8179 8176 8181 8181 8179 8177 8178 8176 8178 8176 8174 8174 8174 8172 8172 8173 8172 8175 8177 8176 8176 8170 8165 8168 8164 8164 8164 8162 8161 8163 8163 8159 8163 
8170 8172 8178 8177 8173 8175 8171 8172 8173 8174 8176 8175 8176 8174 8175 8180 8180 8178 8175 8171 8172 8175 8177 8178 8175 8173 8161 8148 8144 8138 8133 8138 8141 8149 8142 8138 8143 8136 8138 8142 8143 8135 8139 8170 8180 8178 8178 8177 8178 8179 8180 8181 8177 8176 8176 8177 8176 8173 8176 8174 8175 8172 8172 8172 8176 8175 8175 8173 8170 8163 8165 8165 8166 8162 8163 8163 8160 8160 8159 8160 
8170 8174 8178 8174 8170 8172 8171 8168 8171 8174 8176 8175 8173 8178 8176 8178 8180 8180 8178 8173 8172 8176 8177 8176 8177 8172 8162 8154 8145 8136 8134 8134 8140 8145 8145 8139 8140 8136 8138 8137 8135 8131 8134 8146 8167 8179 8179 8176 8178 8179 8178 8179 8176 8177 8177 8177 8174 8175 8177 8176 8173 8172 8171 8174 8175 8176 8175 8171 8166 8166 8164 8162 8164 8163 8160 8162 8161 8163 8157 8157 
8171 8176 8174 8177 8172 8169 8171 8173 8173 8174 8177 8175 8176 8175 8175 8177 8179 8174 8175 8173 8172 8173 8175 8175 8177 8178 8168 8152 8147 8140 8136 8156 8140 8143 8138 8140 8146 8144 8143 8143 8134 8125 8126 8151 8168 8175 8178 8177 8177 8179 8180 8180 8178 8177 8177 8176 8174 8174 8177 8176 8174 8173 8173 8174 8173 8178 8175 8171 8169 8165 8163 8163 8164 8163 8162 8161 8163 8163 8158 8157 
8173 8178 8176 8176 8175 8173 8173 8177 8177 8178 8177 8176 8173 8178 8177 8177 8178 8179 8176 8172 8174 8172 8176 8175 8176 8178 8168 8146 8137 8134 8137 8153 8142 8137 8138 8148 8150 8145 8149 8143 8139 8132 8132 8158 8160 8159 8174 8176 8173 8178 8179 8178 8179 8178 8177 8177 8178 8175 8176 8176 8173 8174 8176 8174 8176 8178 8174 8170 8168 8163 8163 8159 8164 8161 8164 8165 8162 8165 8158 8156 
8173 8174 8175 8178 8176 8177 8177 8180 8178 8174 8179 8176 8175 8176 8173 8177 8180 8176 8175 8172 8170 8174 8178 8177 8177 8179 8154 8141 8143 8139 8146 8172 8147 8162 8154 8153 8152 8149 8143 8143 8135 8133 8134 8136 8139 8152 8172 8178 8173 8177 8179 8179 8178 8180 8178 8177 8179 8178 8176 8176 8174 8177 8173 8174 8178 8178 8174 8171 8168 8162 8164 8162 8165 8162 8164 8163 8164 8164 8158 8157 
8166 8174 8177 8177 8176 8177 8176 8180 8180 8175 8174 8174 8172 8177 8178 8176 8183 8176 8176 8172 8169 8173 8177 8178 8178 8172 8143 8148 8150 8143 8176 8168 8155 8173 8160 8144 8145 8143 8138 8139 8140 8133 8129 8143 8158 8165 8175 8176 8176 8179 8181 8178 8179 8177 8176 8178 8177 8175 8177 8173 8171 8172 8176 8174 8174 8174 8174 8170 8169 8164 8166 8164 8167 8168 8162 8166 8163 8167 8160 8162 
8172 8176 8179 8178 8177 8176 8176 8181 8181 8176 8173 8175 8174 8175 8175 8179 8180 8174 8173 8172 8173 8176 8176 8181 8175 8168 8150 8159 8154 8154 8178 8157 8152 8151 8143 8146 8143 8136 8140 8137 8137 8134 8132 8154 8177 8178 8179 8176 8176 8179 8178 8176 8176 8177 8175 8174 8176 8176 8177 8173 8175 8173 8175 8174 8177 8172 8173 8173 8170 8166 8165 8165 8165 8167 8168 8166 8166 8165 8160 8159 
8176 8179 8180 8178 8176 8174 8175 8177 8182 8175 8173 8176 8171 8172 8171 8178 8179 8174 8170 8170 8173 8176 8177 8178 8178 8178 8179 8162 8154 8157 8174 8156 8145 8138 8140 8142 8137 8134 8139 8138 8139 8136 8137 8144 8158 8175 8176 8177 8179 8180 8181 8180 8181 8176 8177 8173 8175 8174 8172 8174 8175 8174 8171 8173 8174 8175 8175 8173 8172 8167 8172 8170 8167 8166 8165 8170 8166 8166 8159 8160 
8177 8182 8183 8181 8175 8176 8177 8177 8177 8173 8176 8174 8170 8174 8172 8177 8176 8174 8177 8173 8173 8174 8176 8177 8178 8183 8187 8160 8156 8152 8168 8163 8138 8141 8138 8141 8144 8141 8138 8139 8142 8141 8148 8174 8159 8157 8179 8179 8176 8179 8177 8178 8177 8177 8173 8177 8174 8174 8173 8170 8172 8173 8170 8172 8175 8173 8174 8173 8172 8170 8169 8167 8168 8167 8169 8169 8166 8165 8157 8157 
8178 8180 8183 8181 8178 8177 8180 8182 8178 8175 8175 8176 8174 8177 8174 8175 8175 8177 8178 8171 8174 8176 8174 8174 8175 8179 8189 8163 8154 8152 8175 8158 8139 8136 8138 8143 8141 8143 8136 8143 8141 8142 8150 8177 8176 8153 8177 8176 8178 8179 8179 8176 8177 8176 8174 8175 8171 8173 8172 8173 8172 8172 8172 8173 8174 8173 8171 8174 8172 8170 8170 8171 8168 8164 8168 8166 8167 8166 8161 8160 
8182 8181 8185 8185 8180 8181 8181 8181 8181 8175 8174 8177 8175 8175 8178 8180 8180 8178 8178 8173 8176 8176 8179 8177 8176 8178 8188 8160 8152 8148 8157 8148 8145 8140 8136 8143 8144 8140 8143 8142 8138 8146 8144 8168 8176 8161 8171 8174 8173 8178 8181 8177 8178 8177 8173 8176 8175 8172 8174 8172 8173 8173 8169 8173 8176 8174 8177 8175 8173 8168 8173 8168 8168 8169 8167 8168 8168 8171 8160 8159 
8178 8182 8182 8181 8180 8181 8187 8184 8178 8174 8177 8179 8180 8177 8178 8177 8181 8176 8177 8174 8175 8177 8175 8174 8172 8171 8178 8159 8152 8145 8148 8155 8147 8141 8134 8142 8144 8140 8137 8140 8142 8144 8148 8154 8164 8161 8163 8163 8163 8166 8170 8171 8170 8171 8174 8174 8174 8172 8171 8175 8173 8171 8173 8171 8177 8170 8174 8171 8172 8171 8170 8171 8172 8173 8170 8173 8171 8171 8164 8163 
8179 8182 8184 8182 8182 8181 8183 8184 8180 8177 8178 8181 8182 8180 8177 8182 8178 8175 8176 8175 8177 8178 8171 8160 8155 8158 8167 8157 8150 8146 8157 8156 8154 8151 8135 8142 8143 8146 8138 8142 8148 8146 8146 8148 8164 8163 8163 8164 8163 8166 8166 8166 8168 8168 8167 8168 8175 8174 8174 8174 8168 8173 8171 8169 8174 8174 8175 8175 8172 8169 8172 8171 8172 8173 8170 8173 8172 8171 8161 8162 
8179 8185 8189 8187 8184 8182 8184 8185 8185 8182 8181 8181 8179 8177 8178 8181 8178 8178 8178 8178 8176 8175 8172 8160 8155 8160 8169 8160 8153 8149 8155 8157 8150 8160 8144 8142 8143 8147 8146 8159 8163 8147 8148 8150 8166 8163 8163 8164 8162 8167 8167 8167 8170 8174 8169 8175 8171 8171 8171 8172 8169 8169 8169 8171 8174 8174 8175 8177 8174 8169 8175 8169 8172 8174 8170 8173 8174 8171 8164 8165 
8179 8183 8191 8186 8187 8184 8187 8185 8183 8181 8183 8182 8178 8177 8176 8177 8180 8179 8175 8175 8179 8179 8174 8165 8159 8162 8172 8172 8166 8161 8161 8159 8151 8152 8145 8150 8149 8148 8145 8159 8163 8152 8155 8167 8170 8167 8165 8168 8167 8171 8171 8175 8183 8182 8176 8177 8172 8175 8170 8172 8167 8167 8168 8169 8172 8176 8174 8174 8175 8172 8170 8173 8171 8172 8174 8170 8172 8171 8165 8166 
8177 8184 8191 8184 8183 8185 8184 8185 8182 8184 8182 8183 8179 8176 8178 8181 8180 8180 8180 8182 8180 8179 8175 8167 8158 8163 8172 8171 8172 8170 8170 8169 8169 8168 8169 8175 8175 8169 8171 8171 8170 8173 8174 8171 8169 8167 8163 8168 8169 8173 8174 8181 8184 8183 8180 8180 8175 8172 8171 8172 8170 8169 8170 8169 8173 8173 8172 8174 8174 8170 8171 8171 8174 8173 8172 8172 8172 8172 8162 8166 
8176 8183 8188 8187 8181 8182 8185 8185 8186 8179 8182 8183 8184 8181 8183 8184 8179 8182 8178 8179 8179 8182 8182 8170 8163 8162 8173 8172 8175 8173 8173 8172 8173 8176 8177 8177 8178 8174 8174 8171 8173 8174 8174 8174 8172 8167 8168 8175 8176 8179 8179 8183 8183 8179 8176 8176 8174 8171 8172 8171 8170 8172 8171 8171 8175 8174 8175 8171 8170 8168 8171 8168 8174 8171 8175 8172 8171 8170 8166 8166 
8175 8181 8185 8179 8185 8183 8184 8189 8188 8185 8185 8184 8185 8183 8181 8186 8184 8184 8181 8185 8180 8181 8184 8179 8167 8162 8171 8174 8174 8174 8175 8176 8177 8179 8178 8180 8180 8177 8175 8176 8171 8174 8180 8176 8175 8176 8175 8174 8181 8186 8185 8188 8179 8178 8176 8174 8173 8175 8172 8169 8171 8173 8173 8175 8176 8172 8173 8173 8169 8169 8172 8169 8174 8175 8178 8174 8171 8172 8170 8165 
8176 8182 8182 8183 8185 8181 8183 8186 8185 8184 8184 8186 8187 8187 8184 8184 8185 8181 8183 8181 8181 8179 8182 8181 8173 8160 8167 8176 8177 8176 8175 8177 8179 8181 8179 8180 8181 8181 8177 8178 8178 8177 8180 8181 8180 8179 8182 8181 8181 8183 8184 8179 8171 8176 8171 8174 8171 8170 8169 8172 8172 8172 8171 8173 8172 8174 8171 8172 8172 8170 8174 8171 8173 8174 8173 8174 8170 8176 8165 8163 
8178 8187 8184 8181 8184 8182 8182 8184 8185 8183 8183 8186 8185 8190 8184 8187 8187 8185 8184 8179 8177 8182 8180 8181 8171 8160 8163 8166 8165 8167 8170 8169 8171 8175 8172 8175 8175 8172 8178 8177 8177 8178 8178 8180 8177 8174 8172 8173 8174 8176 8171 8168 8167 8171 8170 8173 8174 8169 8170 8172 8170 8171 8173 8173 8172 8171 8173 8174 8170 8172 8170 8170 8173 8172 8168 8175 8172 8171 8167 8168 
8178 8182 8184 8181 8178 8179 8183 8183 8184 8181 8184 8182 8186 8186 8186 8186 8188 8184 8186 8183 8181 8182 8184 8182 8175 8161 8165 8168 8164 8166 8163 8167 8166 8171 8171 8170 8165 8164 8168 8169 8169 8169 8172 8172 8170 8168 8167 8171 8171 8174 8169 8166 8166 8170 8169 8173 8174 8169 8172 8173 8172 8169 8169 8171 8174 8172 8174 8175 8174 8171 8171 8169 8174 8174 8176 8172 8173 8171 8163 8166 
8178 8185 8186 8181 8182 8184 8185 8188 8186 8182 8187 8188 8187 8184 8183 8193 8190 8186 8183 8182 8181 8182 8184 8183 8180 8163 8168 8169 8169 8166 8167 8169 8171 8170 8168 8172 8173 8166 8170 8170 8170 8172 8168 8168 8168 8171 8168 8175 8172 8171 8173 8170 8169 8171 8171 8174 8171 8172 8170 8170 8167 8169 8169 8173 8172 8171 8174 8174 8172 8171 8175 8173 8172 8173 8172 8172 8172 8172 8164 8162 
8177 8189 8183 8186 8179 8183 8185 8187 8189 8186 8191 8184 8186 8183 8185 8186 8189 8186 8185 8182 8182 8182 8183 8186 8182 8167 8168 8171 8168 8171 8168 8172 8172 8173 8175 8173 8173 8174 8168 8173 8173 8177 8173 8175 8172 8167 8171 8173 8172 8174 8172 8170 8171 8173 8172 8172 8171 8168 8170 8168 8166 8170 8172 8168 8170 8173 8175 8173 8171 8171 8171 8173 8173 8175 8173 8174 8172 8172 8165 8169 
8164 8177 8179 8177 8180 8183 8187 8185 8189 8187 8186 8187 8190 8178 8181 8184 8189 8184 8184 8180 8180 8182 8182 8184 8185 8171 8169 8168 8166 8172 8173 8172 8175 8173 8174 8177 8177 8172 8173 8178 8180 8183 8181 8175 8174 8174 8174 8176 8170 8174 8172 8176 8175 8177 8171 8172 8176 8173 8171 8172 8170 8170 8171 8171 8169 8173 8174 8172 8174 8175 8175 8177 8178 8174 8174 8177 8172 8173 8167 8164 
8161 8169 8168 8169 8174 8182 8185 8182 8184 8183 8183 8184 8185 8176 8177 8181 8185 8180 8185 8179 8180 8181 8184 8181 8183 8171 8174 8172 8171 8171 8175 8175 8175 8173 8173 8175 8177 8176 8175 8180 8180 8181 8180 8175 8172 8169 8170 8171 8168 8172 8172 8174 8178 8177 8173 8176 8174 8176 8173 8170 8170 8174 8173 8170 8170 8172 8175 8176 8177 8175 8176 8177 8180 8179 8178 8174 8173 8175 8167 8165 
8159 8160 8161 8163 8168 8169 8178 8175 8180 8176 8180 8178 8180 8181 8180 8180 8183 8177 8178 8175 8176 8178 8181 8182 8179 8171 8171 8169 8168 8175 8172 8175 8175 8174 8174 8177 8175 8177 8179 8181 8177 8180 8182 8174 8172 8168 8169 8169 8170 8172 8172 8176 8172 8176 8175 8175 8173 8173 8174 8169 8169 8172 8171 8168 8169 8173 8177 8179 8177 8177 8175 8175 8177 8178 8175 8175 8172 8171 8166 8166 
8159 8165 8165 8162 8165 8171 8169 8180 8180 8176 8176 8180 8183 8179 8176 8174 8174 8175 8174 8168 8171 8175 8176 8180 8179 8172 8171 8173 8171 8175 8166 8174 8173 8173 8175 8173 8176 8176 8179 8181 8176 8179 8173 8175 8170 8169 8165 8169 8168 8171 8171 8169 8164 8168 8171 8177 8176 8173 8172 8174 8172 8173 8169 8169 8171 8171 8179 8175 8177 8177 8174 8180 8178 8172 8174 8172 8174 8169 8165 8166 
8158 8166 8163 8167 8168 8172 8173 8180 8176 8175 8171 8179 8177 8173 8172 8171 8175 8171 8170 8171 8169 8171 8175 8175 8171 8170 8178 8174 8169 8170 8170 8174 8174 8175 8176 8175 8176 8176 8176 8180 8176 8177 8177 8174 8174 8170 8167 8166 8165 8167 8171 8166 8152 8148 8152 8173 8175 8174 8172 8174 8168 8169 8174 8167 8170 8175 8176 8176 8177 8176 8170 8175 8175 8169 8171 8170 8168 8174 8163 8163 
8161 8167 8166 8168 8173 8174 8172 8174 8175 8182 8184 8174 8175 8173 8173 8175 8175 8172 8170 8167 8166 8170 8169 8171 8164 8163 8177 8177 8167 8166 8165 8164 8171 8175 8176 8179 8181 8179 8170 8175 8175 8178 8175 8179 8174 8170 8167 8167 8166 8169 8171 8164 8147 8135 8140 8158 8168 8170 8170 8166 8165 8165 8166 8169 8169 8170 8166 8171 8172 8169 8173 8172 8173 8170 8169 8172 8166 8165 8165 8160 
8168 8176 8173 8172 8172 8170 8176 8176 8176 8187 8182 8168 8173 8173 8169 8177 8170 8172 8169 8165 8165 8171 8168 8168 8166 8163 8171 8177 8173 8165 8166 8166 8172 8177 8180 8181 8178 8176 8174 8174 8176 8179 8180 8178 8179 8169 8164 8164 8167 8171 8167 8164 8147 8139 8136 8150 8160 8154 8155 8152 8152 8156 8155 8153 8155 8155 8158 8161 8167 8165 8164 8164 8171 8169 8165 8163 8161 8163 8153 8157 
8170 8181 8176 8170 8173 8175 8177 8181 8177 8176 8181 8178 8181 8183 8181 8178 8176 8171 8169 8166 8175 8172 8172 8173 8170 8153 8166 8166 8168 8169 8165 8167 8172 8171 8176 8178 8175 8174 8174 8173 8174 8178 8179 8178 8175 8168 8161 8166 8169 8169 8166 8156 8143 8141 8138 8152 8149 8155 8151 8150 8150 8153 8156 8147 8155 8159 8156 8158 8159 8161 8161 8160 8163 8163 8160 8162 8163 8164 8151 8153 
8178 8180 8180 8173 8170 8174 8182 8182 8179 8181 8186 8184 8192 8187 8179 8175 8176 8174 8173 8174 8178 8169 8170 8175 8171 8160 8160 8165 8168 8164 8164 8162 8169 8167 8169 8174 8174 8172 8170 8173 8170 8169 8174 8170 8170 8160 8161 8164 8163 8166 8163 8153 8144 8142 8147 8150 8145 8145 8145 8147 8143 8150 8153 8151 8149 8152 8156 8155 8160 8161 8162 8159 8164 8162 8161 8158 8155 8159 8155 8153 
8178 8184 8180 8172 8176 8179 8178 8176 8176 8180 8187 8187 8194 8191 8191 8183 8183 8180 8176 8181 8177 8172 8172 8178 8182 8176 8178 8179 8171 8167 8164 8165 8163 8167 8164 8165 8169 8163 8166 8170 8170 8168 8167 8167 8167 8160 8161 8159 8158 8157 8155 8147 8144 8142 8146 8149 8145 8142 8148 8148 8142 8146 8150 8149 8150 8148 8155 8157 8156 8160 8161 8162 8159 8158 8160 8158 8152 8156 8149 8151 
8184 8181 8174 8174 8184 8180 8170 8170 8171 8169 8173 8192 8191 8182 8175 8168 8172 8172 8184 8177 8170 8163 8161 8165 8177 8186 8184 8183 8175 8172 8174 8167 8167 8171 8166 8171 8172 8169 8168 8175 8174 8169 8170 8160 8162 8157 8158 8156 8152 8152 8146 8140 8143 8143 8144 8150 8147 8142 8152 8151 8148 8148 8150 8154 8152 8153 8159 8164 8159 8159 8161 8160 8159 8157 8152 8159 8159 8153 8150 8152 
8201 8189 8183 8179 8181 8180 8179 8183 8184 8179 8190 8192 8190 8188 8178 8178 8179 8172 8182 8176 8172 8163 8162 8167 8174 8195 8192 8179 8173 8171 8169 8169 8169 8173 8173 8174 8174 8171 8169 8172 8173 8168 8166 8159 8155 8150 8151 8155 8150 8150 8142 8140 8139 8135 8134 8139 8138 8143 8147 8152 8149 8142 8145 8150 8157 8155 8158 8160 8158 8164 8166 8163 8164 8160 8160 8159 8164 8158 8152 8159 


