P2
80 60
8163
8035 8039 8034 8033 8034 8041 8066 8085 8091 8098 8101 8098 8103 8101 8102 8100 8102 8103 8103 8102 8106 8111 8110 8117 8114 8118 8117 8114 8113 8115 8120 8121 8120 8119 8123 8123 8121 8120 8115 8112 8116 8121 8121 8126 8125 8128 8130 8132 8130 8125 8124 8116 8117 8122 8118 8119 8117 8112 8116 8118 8116 8112 8111 8113 8112 8115 8115 8108 8108 8111 8109 8107 8110 8108 8108 8110 8112 8117 8115 8112 
8036 8038 8034 8035 8036 8048 8072 8087 8093 8095 8102 8101 8106 8102 8106 8101 8106 8107 8107 8107 8111 8115 8118 8115 8117 8116 8114 8115 8115 8115 8120 8119 8121 8119 8122 8121 8109 8091 8086 8079 8100 8118 8120 8124 8127 8129 8130 8130 8127 8123 8123 8121 8126 8123 8121 8119 8120 8118 8119 8118 8116 8113 8113 8114 8115 8114 8115 8110 8108 8108 8112 8112 8110 8113 8113 8113 8115 8115 8115 8113 
8042 8040 8036 8036 8045 8064 8078 8089 8092 8101 8103 8108 8110 8107 8107 8107 8109 8111 8108 8108 8113 8120 8118 8112 8107 8109 8106 8090 8080 8088 8112 8121 8120 8118 8106 8084 8077 8070 8066 8067 8070 8098 8112 8116 8124 8126 8130 8129 8126 8124 8125 8124 8121 8122 8122 8122 8125 8123 8119 8120 8117 8116 8114 8113 8113 8114 8116 8113 8110 8112 8112 8111 8115 8115 8116 8116 8113 8118 8113 8116 
8043 8044 8041 8041 8051 8075 8081 8089 8093 8100 8103 8108 8112 8109 8108 8108 8111 8109 8109 8107 8114 8118 8113 8098 8098 8106 8080 8059 8063 8098 8115 8120 8120 8106 8075 8067 8069 8063 8068 8070 8066 8067 8102 8117 8109 8114 8121 8119 8111 8111 8120 8118 8122 8121 8126 8122 8123 8122 8122 8119 8118 8116 8113 8112 8115 8113 8116 8112 8112 8112 8115 8116 8114 8115 8117 8112 8114 8114 8113 8113 
8040 8046 8041 8049 8066 8081 8082 8089 8095 8102 8111 8109 8112 8110 8109 8108 8110 8108 8108 8107 8110 8112 8088 8077 8099 8086 8058 8059 8089 8114 8117 8119 8117 8099 8070 8066 8068 8066 8068 8070 8067 8066 8097 8117 8109 8090 8089 8082 8073 8074 8090 8108 8117 8120 8125 8122 8124 8121 8122 8120 8121 8117 8114 8114 8116 8118 8119 8113 8110 8112 8115 8116 8113 8117 8116 8116 8116 8114 8111 8111 
8047 8050 8045 8053 8076 8086 8082 8094 8097 8106 8108 8113 8112 8110 8111 8108 8105 8106 8105 8102 8096 8081 8064 8064 8067 8060 8053 8078 8111 8119 8120 8120 8114 8097 8066 8069 8069 8068 8068 8069 8069 8076 8112 8119 8117 8090 8071 8063 8061 8062 8065 8069 8087 8113 8126 8125 8124 8120 8121 8120 8117 8114 8116 8115 8117 8115 8121 8114 8114 8114 8112 8113 8116 8118 8118 8115 8114 8114 8109 8109 
8051 8049 8049 8066 8083 8087 8083 8092 8097 8104 8111 8110 8112 8111 8108 8101 8095 8088 8078 8068 8063 8062 8074 8077 8073 8067 8058 8089 8111 8118 8122 8118 8114 8078 8065 8066 8070 8069 8068 8070 8082 8105 8116 8120 8115 8079 8062 8063 8059 8057 8056 8059 8064 8090 8115 8124 8123 8118 8120 8120 8119 8114 8118 8118 8121 8117 8120 8117 8114 8113 8116 8114 8113 8115 8114 8116 8113 8110 8110 8105 
8054 8058 8056 8075 8087 8089 8088 8097 8101 8106 8113 8112 8113 8112 8110 8102 8096 8077 8066 8056 8058 8067 8107 8115 8115 8112 8095 8088 8106 8114 8119 8123 8114 8076 8065 8066 8065 8067 8065 8074 8088 8098 8107 8117 8091 8064 8060 8062 8062 8056 8056 8056 8060 8071 8096 8116 8123 8118 8120 8120 8119 8121 8121 8122 8124 8122 8119 8117 8113 8116 8114 8114 8116 8117 8119 8115 8112 8111 8107 8108 
8052 8060 8064 8084 8090 8090 8088 8096 8102 8111 8116 8115 8115 8112 8114 8111 8112 8111 8105 8091 8067 8072 8111 8118 8117 8114 8113 8097 8087 8085 8095 8111 8110 8076 8068 8064 8066 8070 8096 8109 8077 8060 8061 8071 8063 8060 8061 8057 8058 8053 8052 8053 8056 8061 8073 8101 8118 8120 8120 8121 8123 8125 8125 8126 8124 8127 8126 8120 8115 8116 8114 8115 8117 8118 8116 8116 8113 8111 8111 8107 
8060 8066 8079 8096 8095 8095 8091 8102 8108 8118 8121 8120 8118 8116 8117 8114 8119 8116 8112 8108 8106 8084 8109 8113 8086 8082 8110 8117 8096 8080 8051 8064 8097 8096 8064 8062 8069 8093 8121 8123 8093 8062 8056 8060 8058 8059 8062 8055 8052 8052 8051 8051 8058 8061 8068 8100 8120 8121 8123 8122 8125 8128 8129 8130 8132 8129 8128 8120 8114 8115 8118 8117 8118 8117 8117 8117 8114 8113 8109 8108 
8058 8070 8091 8103 8101 8103 8099 8104 8111 8116 8118 8117 8119 8117 8117 8116 8115 8113 8103 8111 8111 8098 8085 8071 8064 8097 8115 8119 8104 8068 8040 8042 8065 8076 8074 8084 8080 8080 8070 8119 8116 8076 8066 8062 8056 8058 8060 8053 8052 8057 8053 8051 8056 8060 8062 8086 8120 8125 8125 8127 8127 8127 8130 8131 8135 8134 8129 8124 8122 8122 8121 8119 8118 8117 8120 8118 8116 8111 8112 8109 
8062 8086 8102 8107 8106 8108 8104 8110 8109 8118 8123 8120 8118 8113 8115 8114 8112 8093 8105 8105 8082 8065 8055 8053 8098 8119 8119 8118 8115 8064 8038 8039 8047 8066 8070 8061 8051 8048 8057 8112 8119 8083 8064 8061 8053 8050 8057 8058 8059 8059 8056 8049 8054 8057 8056 8075 8116 8123 8127 8127 8127 8130 8129 8134 8134 8133 8136 8129 8127 8130 8128 8127 8129 8126 8123 8123 8120 8115 8116 8110 
8068 8097 8107 8111 8109 8106 8105 8110 8111 8119 8121 8113 8092 8103 8114 8112 8084 8074 8090 8061 8045 8046 8048 8062 8109 8120 8122 8118 8119 8076 8042 8040 8050 8059 8067 8051 8049 8048 8076 8122 8097 8091 8071 8058 8048 8050 8056 8058 8057 8059 8057 8054 8057 8059 8057 8070 8102 8122 8124 8128 8130 8132 8130 8133 8135 8136 8139 8133 8132 8132 8133 8134 8132 8132 8129 8127 8126 8124 8116 8120 
8075 8109 8109 8111 8107 8104 8102 8107 8111 8116 8111 8066 8039 8053 8098 8081 8054 8052 8055 8048 8054 8060 8068 8077 8086 8116 8118 8109 8097 8073 8048 8049 8063 8082 8060 8049 8048 8058 8112 8099 8110 8123 8077 8039 8036 8045 8051 8053 8055 8060 8056 8055 8056 8057 8059 8064 8099 8118 8126 8124 8125 8129 8131 8131 8130 8135 8136 8134 8133 8132 8134 8136 8134 8134 8134 8133 8130 8128 8123 8122 
8093 8112 8110 8110 8108 8104 8104 8111 8116 8116 8076 8037 8031 8038 8053 8054 8048 8051 8049 8052 8069 8095 8110 8111 8078 8094 8116 8112 8072 8049 8051 8063 8063 8070 8060 8056 8068 8105 8098 8111 8125 8126 8106 8058 8042 8042 8048 8046 8050 8056 8057 8054 8056 8057 8059 8065 8092 8120 8126 8125 8128 8128 8130 8128 8132 8135 8137 8133 8132 8133 8134 8134 8133 8134 8133 8135 8130 8132 8128 8125 
8105 8119 8112 8114 8109 8106 8107 8114 8115 8114 8053 8038 8035 8042 8050 8050 8052 8055 8060 8070 8110 8124 8121 8107 8063 8069 8090 8094 8043 8041 8046 8049 8046 8048 8081 8076 8095 8088 8084 8094 8098 8097 8094 8068 8059 8052 8051 8052 8048 8049 8054 8062 8060 8062 8062 8067 8097 8121 8126 8126 8125 8125 8128 8128 8130 8134 8137 8132 8134 8132 8135 8133 8132 8133 8134 8133 8137 8136 8129 8124 
8117 8121 8113 8113 8112 8108 8110 8115 8119 8113 8063 8046 8045 8049 8052 8053 8055 8080 8104 8101 8094 8120 8123 8108 8061 8043 8046 8046 8032 8035 8034 8039 8038 8048 8058 8060 8068 8059 8056 8062 8083 8086 8087 8075 8061 8054 8054 8055 8044 8050 8100 8098 8085 8073 8076 8083 8098 8120 8127 8126 8129 8127 8128 8128 8130 8135 8133 8132 8129 8132 8132 8130 8131 8133 8134 8136 8137 8137 8130 8133 
8120 8126 8117 8110 8112 8113 8111 8119 8121 8089 8073 8079 8064 8058 8055 8057 8089 8121 8126 8118 8109 8081 8106 8123 8109 8079 8057 8047 8022 8024 8028 8037 8037 8040 8048 8055 8047 8048 8046 8042 8053 8078 8090 8084 8054 8038 8047 8043 8034 8047 8105 8118 8091 8077 8084 8085 8076 8114 8126 8127 8131 8130 8131 8130 8131 8133 8132 8131 8129 8127 8132 8129 8130 8134 8133 8134 8140 8135 8129 8133 
8122 8124 8116 8111 8114 8115 8113 8120 8121 8112 8093 8064 8061 8075 8060 8073 8120 8126 8126 8096 8061 8045 8067 8094 8069 8048 8056 8041 8026 8026 8028 8039 8041 8050 8049 8044 8039 8039 8040 8043 8046 8048 8067 8052 8031 8029 8035 8031 8029 8033 8075 8108 8083 8082 8087 8083 8060 8091 8126 8128 8131 8133 8132 8131 8129 8132 8136 8129 8128 8129 8127 8132 8128 8131 8132 8133 8137 8137 8136 8133 
8124 8124 8118 8115 8113 8118 8115 8122 8122 8113 8099 8063 8073 8070 8086 8106 8129 8127 8110 8051 8037 8044 8056 8057 8049 8042 8037 8030 8022 8027 8036 8046 8045 8049 8040 8033 8040 8038 8042 8045 8052 8049 8043 8033 8027 8028 8036 8035 8031 8034 8057 8058 8074 8087 8085 8068 8055 8072 8123 8127 8130 8134 8132 8134 8132 8136 8135 8129 8128 8130 8132 8132 8132 8132 8131 8135 8139 8134 8131 8131 
8123 8126 8117 8114 8118 8118 8117 8123 8121 8085 8064 8082 8114 8087 8065 8098 8130 8129 8097 8045 8041 8045 8045 8044 8050 8044 8032 8029 8032 8031 8044 8051 8048 8046 8039 8041 8042 8039 8043 8056 8052 8045 8032 8028 8028 8030 8035 8040 8037 8042 8067 8073 8080 8083 8082 8069 8060 8062 8111 8128 8135 8134 8136 8135 8135 8136 8135 8133 8130 8131 8130 8133 8130 8132 8133 8134 8138 8135 8132 8132 
8125 8127 8118 8122 8118 8117 8114 8122 8119 8073 8063 8072 8098 8082 8054 8076 8129 8127 8096 8042 8034 8042 8044 8045 8047 8045 8040 8037 8043 8049 8050 8047 8042 8036 8043 8043 8042 8051 8055 8053 8057 8046 8029 8027 8027 8029 8034 8042 8053 8054 8081 8075 8080 8082 8096 8121 8113 8103 8103 8126 8133 8132 8132 8136 8135 8137 8137 8132 8129 8135 8129 8131 8131 8131 8132 8136 8134 8132 8134 8131 
8123 8130 8122 8122 8122 8119 8114 8122 8100 8068 8069 8095 8097 8063 8050 8055 8104 8104 8047 8031 8037 8042 8042 8047 8050 8049 8046 8043 8045 8049 8047 8050 8044 8039 8044 8044 8045 8051 8056 8055 8058 8048 8028 8025 8027 8028 8033 8040 8052 8060 8080 8075 8080 8084 8113 8128 8128 8125 8116 8127 8129 8134 8133 8131 8135 8137 8136 8134 8133 8132 8131 8131 8131 8133 8134 8134 8137 8131 8134 8132 
8125 8130 8125 8122 8119 8118 8118 8114 8082 8079 8098 8119 8097 8074 8055 8051 8059 8062 8037 8033 8042 8041 8044 8050 8051 8046 8046 8049 8044 8044 8038 8040 8047 8044 8044 8050 8051 8054 8051 8050 8048 8044 8038 8032 8037 8035 8038 8044 8048 8059 8068 8072 8075 8086 8121 8129 8129 8127 8127 8130 8130 8134 8132 8132 8136 8138 8136 8132 8131 8132 8129 8131 8132 8134 8133 8135 8132 8135 8133 8131 
8128 8132 8123 8122 8121 8119 8115 8092 8059 8072 8107 8109 8079 8059 8059 8049 8048 8049 8039 8036 8041 8046 8045 8052 8051 8047 8048 8052 8043 8046 8045 8045 8047 8045 8048 8053 8056 8051 8047 8048 8047 8048 8051 8050 8049 8044 8048 8056 8053 8056 8056 8052 8056 8078 8119 8127 8131 8126 8130 8132 8133 8134 8132 8132 8134 8137 8134 8134 8129 8128 8128 8133 8131 8134 8135 8136 8136 8133 8132 8131 
8129 8132 8126 8123 8120 8121 8101 8059 8054 8062 8097 8099 8054 8056 8088 8067 8051 8044 8043 8039 8039 8044 8047 8049 8044 8042 8043 8045 8048 8052 8053 8055 8054 8048 8046 8050 8050 8047 8045 8047 8048 8044 8041 8050 8056 8056 8058 8055 8045 8046 8047 8045 8053 8053 8081 8120 8127 8127 8128 8131 8134 8135 8132 8134 8132 8134 8136 8134 8130 8131 8132 8132 8137 8135 8133 8132 8132 8135 8130 8130 
8129 8136 8128 8123 8123 8126 8093 8049 8053 8084 8126 8080 8052 8071 8119 8101 8047 8032 8042 8043 8040 8043 8040 8044 8040 8042 8042 8035 8042 8051 8052 8053 8054 8046 8046 8047 8049 8047 8046 8047 8036 8028 8036 8049 8058 8057 8058 8057 8044 8035 8035 8043 8047 8049 8060 8099 8126 8125 8130 8129 8130 8132 8135 8132 8133 8133 8136 8134 8132 8129 8133 8132 8135 8133 8133 8137 8137 8135 8133 8132 
8130 8138 8126 8128 8124 8122 8107 8055 8058 8112 8131 8089 8094 8120 8130 8081 8041 8037 8045 8054 8047 8038 8044 8040 8036 8038 8035 8033 8043 8051 8050 8049 8050 8050 8047 8049 8048 8045 8047 8041 8031 8030 8040 8052 8057 8057 8059 8055 8046 8038 8039 8041 8049 8049 8054 8073 8118 8124 8128 8126 8128 8132 8135 8133 8131 8134 8136 8133 8130 8130 8134 8133 8130 8137 8134 8136 8137 8134 8134 8131 
8133 8137 8130 8129 8127 8124 8117 8069 8069 8124 8141 8137 8140 8139 8136 8122 8083 8070 8088 8111 8087 8043 8040 8039 8038 8042 8038 8036 8037 8043 8047 8047 8050 8052 8050 8047 8053 8050 8048 8038 8032 8034 8043 8047 8054 8049 8054 8054 8049 8045 8048 8044 8051 8051 8055 8059 8107 8127 8130 8128 8129 8132 8130 8134 8132 8134 8135 8132 8133 8132 8134 8134 8134 8134 8138 8135 8137 8137 8133 8131 
8135 8144 8134 8131 8130 8123 8114 8075 8073 8100 8119 8139 8139 8139 8136 8132 8130 8111 8091 8069 8065 8049 8040 8037 8043 8042 8039 8042 8041 8043 8048 8049 8051 8050 8049 8051 8057 8054 8050 8044 8036 8041 8046 8048 8051 8046 8043 8045 8052 8056 8055 8054 8054 8052 8052 8058 8097 8126 8129 8129 8133 8134 8134 8137 8133 8138 8137 8139 8133 8132 8135 8133 8135 8138 8136 8138 8139 8138 8137 8134 
8139 8145 8137 8135 8131 8131 8110 8060 8062 8071 8075 8094 8134 8132 8122 8113 8114 8102 8055 8050 8056 8046 8042 8048 8048 8046 8042 8043 8045 8043 8042 8047 8043 8046 8050 8053 8057 8053 8047 8045 8044 8047 8047 8046 8046 8044 8049 8054 8047 8053 8061 8062 8062 8069 8072 8059 8091 8125 8132 8129 8129 8136 8133 8135 8137 8135 8139 8134 8134 8134 8132 8136 8136 8138 8138 8143 8137 8141 8137 8134 
8140 8144 8138 8140 8135 8134 8120 8068 8056 8068 8072 8072 8096 8122 8136 8139 8140 8109 8055 8053 8052 8048 8048 8046 8046 8042 8044 8045 8048 8050 8044 8042 8045 8050 8049 8052 8057 8053 8054 8051 8050 8051 8049 8048 8047 8046 8053 8057 8053 8053 8055 8061 8069 8105 8124 8095 8092 8132 8133 8135 8133 8137 8134 8137 8137 8141 8141 8135 8135 8135 8136 8137 8135 8137 8137 8143 8143 8137 8137 8137 
8143 8146 8138 8141 8140 8137 8133 8104 8065 8074 8076 8086 8133 8144 8147 8143 8140 8116 8062 8058 8051 8053 8048 8049 8046 8043 8045 8044 8045 8051 8049 8039 8042 8051 8054 8056 8058 8059 8059 8055 8059 8056 8055 8053 8054 8049 8054 8060 8061 8059 8059 8060 8069 8096 8130 8123 8103 8131 8134 8132 8134 8136 8138 8138 8137 8139 8143 8137 8134 8133 8134 8136 8136 8139 8139 8141 8142 8139 8137 8137 
8145 8149 8137 8141 8138 8140 8133 8123 8075 8073 8080 8116 8149 8144 8146 8143 8143 8130 8079 8055 8062 8081 8063 8049 8047 8046 8042 8042 8042 8048 8052 8039 8041 8048 8055 8060 8059 8061 8060 8051 8062 8059 8056 8060 8059 8057 8059 8063 8065 8065 8064 8059 8065 8073 8108 8129 8124 8131 8131 8133 8130 8132 8132 8135 8137 8143 8140 8137 8133 8136 8135 8136 8137 8138 8140 8142 8142 8139 8142 8139 
8147 8150 8142 8140 8142 8141 8135 8121 8079 8074 8089 8137 8144 8144 8147 8142 8140 8116 8098 8063 8062 8123 8116 8058 8047 8045 8047 8046 8047 8049 8049 8043 8040 8046 8058 8064 8064 8064 8064 8054 8063 8061 8058 8059 8058 8059 8062 8064 8067 8069 8068 8063 8065 8069 8077 8102 8105 8110 8115 8124 8125 8119 8114 8122 8128 8133 8141 8134 8134 8132 8135 8136 8135 8137 8138 8139 8141 8142 8138 8136 
8144 8150 8143 8141 8138 8140 8137 8127 8080 8074 8087 8140 8145 8142 8141 8138 8107 8093 8126 8113 8078 8123 8124 8070 8052 8046 8050 8047 8050 8051 8046 8046 8045 8047 8059 8062 8063 8063 8060 8052 8059 8058 8058 8064 8058 8060 8061 8064 8064 8068 8071 8067 8066 8069 8067 8075 8067 8064 8064 8069 8072 8070 8070 8074 8080 8101 8130 8132 8133 8133 8135 8136 8138 8141 8141 8141 8144 8139 8140 8135 
8146 8151 8141 8140 8139 8139 8135 8120 8078 8074 8086 8133 8136 8131 8119 8083 8070 8095 8132 8128 8124 8116 8116 8085 8050 8047 8045 8046 8048 8049 8048 8043 8047 8044 8054 8059 8065 8060 8055 8055 8060 8059 8058 8060 8060 8057 8061 8060 8066 8079 8086 8076 8078 8077 8067 8069 8067 8061 8059 8059 8063 8065 8063 8066 8073 8078 8095 8125 8133 8135 8133 8137 8136 8135 8141 8141 8142 8138 8137 8133 
8145 8152 8148 8143 8141 8139 8136 8117 8069 8060 8064 8070 8070 8060 8060 8055 8063 8096 8133 8125 8075 8062 8057 8062 8054 8051 8049 8046 8051 8046 8051 8047 8049 8047 8051 8061 8069 8058 8054 8054 8058 8062 8063 8063 8060 8059 8064 8060 8066 8102 8119 8107 8119 8121 8077 8068 8068 8067 8064 8065 8061 8066 8066 8070 8074 8073 8080 8109 8128 8136 8134 8137 8138 8138 8142 8144 8144 8142 8136 8136 
8147 8153 8147 8144 8140 8137 8134 8104 8058 8052 8053 8049 8052 8052 8049 8057 8063 8090 8131 8095 8058 8058 8056 8058 8060 8056 8055 8065 8060 8054 8051 8050 8052 8054 8053 8056 8061 8060 8057 8057 8059 8058 8062 8063 8061 8061 8064 8063 8070 8114 8122 8111 8130 8128 8073 8069 8067 8070 8067 8067 8068 8072 8072 8072 8076 8073 8078 8094 8127 8131 8135 8136 8135 8140 8139 8140 8141 8140 8135 8138 
8149 8152 8145 8144 8140 8138 8129 8082 8056 8056 8056 8051 8053 8051 8051 8061 8063 8075 8127 8083 8060 8058 8052 8054 8058 8056 8063 8083 8074 8070 8059 8052 8051 8053 8054 8056 8059 8060 8063 8064 8058 8057 8060 8065 8065 8064 8067 8066 8073 8118 8116 8123 8131 8115 8070 8074 8069 8067 8074 8067 8066 8074 8076 8076 8068 8075 8074 8080 8117 8132 8134 8138 8135 8138 8138 8139 8142 8137 8138 8139 
8147 8155 8146 8146 8140 8140 8130 8079 8056 8056 8056 8052 8049 8052 8054 8062 8060 8066 8118 8094 8062 8061 8058 8056 8058 8060 8059 8104 8092 8087 8078 8065 8058 8059 8056 8056 8058 8059 8068 8067 8056 8056 8065 8074 8079 8073 8074 8067 8079 8119 8118 8130 8132 8092 8069 8072 8072 8069 8075 8073 8068 8072 8070 8074 8074 8074 8075 8078 8106 8130 8134 8137 8134 8139 8138 8137 8141 8140 8134 8138 
8146 8153 8145 8145 8141 8141 8134 8087 8058 8058 8058 8053 8054 8052 8059 8062 8058 8062 8089 8107 8065 8061 8057 8058 8054 8064 8071 8118 8104 8096 8099 8093 8084 8073 8071 8072 8069 8067 8076 8080 8081 8086 8091 8095 8093 8093 8084 8073 8080 8116 8131 8135 8125 8079 8071 8074 8071 8071 8073 8075 8071 8070 8066 8075 8091 8081 8080 8079 8096 8126 8132 8135 8138 8137 8141 8138 8141 8142 8137 8135 
8150 8151 8145 8145 8142 8142 8138 8102 8061 8057 8059 8056 8060 8056 8058 8059 8061 8058 8062 8090 8073 8059 8059 8058 8056 8064 8092 8128 8125 8107 8101 8103 8106 8103 8102 8102 8100 8097 8099 8103 8097 8095 8094 8092 8098 8106 8109 8105 8104 8132 8139 8134 8112 8077 8073 8074 8073 8071 8075 8075 8075 8074 8069 8072 8082 8088 8081 8075 8092 8125 8133 8136 8133 8135 8139 8140 8139 8140 8139 8140 
8150 8155 8145 8145 8144 8143 8140 8111 8066 8063 8059 8062 8061 8057 8064 8058 8060 8057 8057 8063 8079 8065 8066 8065 8065 8083 8124 8129 8131 8127 8110 8103 8109 8117 8109 8100 8102 8100 8101 8101 8101 8098 8096 8098 8103 8105 8115 8119 8133 8139 8138 8134 8110 8075 8075 8073 8071 8074 8075 8075 8074 8071 8068 8066 8067 8072 8074 8071 8093 8126 8136 8134 8135 8137 8136 8140 8143 8137 8136 8135 
8150 8151 8145 8147 8144 8144 8142 8130 8070 8065 8068 8061 8059 8064 8066 8062 8067 8060 8061 8056 8072 8076 8069 8072 8099 8127 8131 8130 8130 8133 8130 8119 8107 8109 8118 8111 8108 8104 8104 8103 8103 8101 8099 8101 8108 8115 8133 8140 8143 8143 8140 8137 8117 8077 8072 8070 8067 8076 8078 8075 8075 8075 8069 8069 8070 8068 8073 8073 8105 8131 8137 8136 8139 8138 8140 8138 8140 8140 8135 8134 
8146 8151 8146 8146 8143 8144 8142 8139 8099 8072 8071 8064 8065 8068 8069 8065 8068 8063 8061 8057 8067 8105 8088 8112 8133 8130 8135 8133 8132 8135 8133 8135 8130 8121 8114 8114 8117 8111 8109 8107 8107 8101 8109 8114 8127 8141 8142 8144 8145 8141 8140 8137 8130 8086 8074 8070 8068 8072 8077 8073 8077 8075 8076 8076 8075 8075 8077 8082 8116 8132 8131 8135 8137 8138 8140 8138 8139 8134 8135 8133 
8147 8154 8146 8144 8143 8144 8142 8149 8125 8078 8076 8070 8069 8068 8070 8069 8065 8065 8061 8061 8065 8122 8131 8138 8136 8136 8134 8133 8134 8134 8136 8135 8138 8138 8138 8135 8132 8126 8125 8127 8125 8126 8129 8136 8145 8145 8146 8144 8142 8143 8143 8137 8137 8119 8084 8072 8066 8070 8073 8073 8076 8076 8079 8079 8078 8078 8081 8098 8128 8134 8135 8138 8136 8138 8138 8139 8136 8135 8134 8134 
8149 8152 8147 8145 8147 8145 8142 8149 8147 8095 8081 8075 8075 8071 8073 8070 8068 8069 8069 8067 8075 8128 8138 8138 8138 8137 8135 8134 8134 8136 8135 8136 8136 8137 8142 8143 8145 8142 8146 8143 8139 8139 8137 8139 8142 8144 8148 8148 8144 8146 8141 8139 8139 8137 8100 8074 8070 8071 8069 8070 8075 8078 8081 8082 8081 8080 8089 8116 8130 8134 8135 8139 8136 8139 8140 8135 8138 8136 8136 8136 
8148 8153 8151 8144 8148 8148 8144 8149 8152 8129 8085 8077 8076 8074 8072 8071 8071 8074 8074 8072 8109 8138 8140 8137 8134 8133 8129 8132 8134 8137 8140 8139 8138 8139 8145 8145 8144 8143 8148 8145 8141 8140 8141 8141 8143 8147 8146 8146 8145 8145 8143 8139 8140 8142 8128 8091 8075 8070 8071 8073 8076 8080 8083 8081 8082 8085 8100 8129 8135 8136 8137 8136 8137 8139 8138 8137 8139 8136 8132 8132 
8151 8154 8150 8147 8147 8148 8147 8149 8154 8149 8105 8080 8078 8075 8076 8074 8075 8077 8083 8104 8136 8141 8137 8138 8136 8133 8132 8133 8135 8139 8138 8137 8138 8138 8144 8147 8149 8145 8148 8148 8144 8142 8140 8144 8144 8144 8150 8147 8145 8148 8142 8136 8138 8143 8139 8132 8106 8087 8084 8080 8077 8082 8084 8084 8082 8090 8116 8133 8136 8138 8136 8137 8137 8139 8140 8140 8140 8139 8136 8134 
8151 8155 8149 8148 8148 8151 8142 8148 8150 8153 8140 8095 8083 8080 8080 8077 8085 8095 8122 8139 8143 8143 8140 8139 8137 8136 8135 8134 8136 8139 8139 8138 8142 8140 8147 8146 8151 8150 8151 8149 8146 8142 8139 8140 8145 8145 8151 8151 8150 8148 8144 8139 8141 8146 8143 8146 8139 8134 8123 8105 8091 8085 8085 8085 8087 8110 8134 8135 8135 8140 8140 8140 8139 8139 8142 8139 8140 8140 8136 8132 
8147 8157 8148 8148 8149 8148 8144 8148 8151 8154 8153 8138 8111 8110 8114 8118 8133 8143 8145 8146 8150 8150 8145 8142 8138 8137 8134 8137 8138 8140 8139 8138 8141 8140 8147 8148 8150 8149 8150 8148 8144 8142 8142 8142 8143 8147 8150 8150 8153 8150 8144 8143 8143 8148 8150 8147 8143 8141 8140 8136 8132 8121 8105 8097 8111 8134 8142 8138 8136 8138 8139 8138 8138 8136 8140 8139 8142 8137 8133 8135 
8150 8156 8147 8152 8147 8147 8146 8149 8153 8155 8155 8153 8148 8143 8147 8145 8147 8147 8146 8148 8150 8152 8147 8144 8144 8141 8140 8138 8139 8140 8141 8139 8139 8141 8146 8152 8147 8148 8150 8148 8142 8141 8142 8141 8144 8148 8151 8151 8150 8146 8144 8143 8145 8149 8149 8147 8143 8139 8139 8139 8142 8142 8135 8133 8138 8138 8139 8137 8135 8134 8135 8136 8137 8141 8140 8142 8140 8139 8130 8134 
8150 8161 8151 8150 8151 8146 8143 8149 8153 8155 8157 8155 8153 8151 8151 8148 8149 8150 8149 8149 8149 8151 8152 8150 8148 8145 8141 8141 8141 8138 8139 8140 8140 8140 8144 8149 8153 8149 8148 8149 8144 8142 8144 8145 8145 8149 8152 8149 8149 8148 8145 8144 8146 8147 8146 8145 8142 8139 8140 8142 8139 8142 8139 8141 8137 8140 8139 8136 8135 8139 8137 8136 8133 8136 8139 8139 8139 8137 8132 8128 
8152 8159 8154 8151 8151 8150 8146 8149 8151 8152 8156 8151 8154 8146 8146 8153 8150 8149 8151 8147 8151 8151 8152 8150 8149 8149 8139 8144 8143 8144 8146 8143 8144 8142 8148 8150 8154 8150 8148 8148 8142 8139 8145 8146 8151 8154 8155 8153 8149 8145 8144 8143 8145 8146 8143 8143 8139 8138 8142 8137 8137 8142 8140 8140 8139 8138 8141 8134 8134 8137 8135 8137 8135 8140 8139 8138 8136 8132 8129 8128 
8155 8158 8151 8153 8147 8148 8143 8144 8147 8152 8153 8152 8152 8149 8147 8150 8142 8148 8148 8143 8149 8154 8152 8154 8149 8148 8145 8145 8143 8147 8146 8150 8150 8148 8153 8153 8157 8152 8151 8151 8147 8142 8146 8147 8150 8153 8157 8154 8148 8146 8145 8142 8143 8143 8142 8141 8136 8135 8138 8138 8136 8141 8139 8139 8136 8138 8139 8135 8132 8134 8134 8136 8135 8137 8138 8136 8136 8137 8130 8129 
8150 8157 8149 8148 8145 8146 8140 8144 8149 8152 8154 8151 8151 8147 8145 8145 8146 8143 8148 8146 8149 8151 8154 8151 8150 8149 8144 8147 8145 8147 8150 8150 8149 8151 8152 8152 8158 8156 8155 8149 8146 8143 8148 8150 8153 8155 8157 8156 8151 8147 8146 8143 8142 8146 8139 8138 8136 8134 8136 8136 8138 8139 8136 8137 8140 8136 8138 8132 8134 8131 8131 8133 8133 8134 8137 8136 8135 8135 8130 8126 
8152 8155 8147 8147 8143 8138 8135 8139 8148 8150 8151 8147 8146 8145 8143 8143 8147 8143 8146 8143 8144 8148 8148 8150 8148 8148 8146 8146 8146 8148 8151 8148 8145 8147 8151 8155 8156 8157 8154 8155 8149 8149 8151 8151 8155 8156 8154 8159 8152 8149 8145 8140 8138 8141 8141 8137 8134 8132 8136 8138 8134 8139 8135 8137 8138 8137 8134 8135 8132 8132 8132 8133 8134 8136 8135 8134 8135 8131 8129 8128 
8154 8158 8146 8144 8143 8135 8133 8139 8143 8146 8150 8150 8147 8143 8144 8143 8144 8141 8143 8143 8146 8151 8148 8148 8149 8149 8149 8143 8144 8147 8144 8145 8144 8146 8151 8154 8157 8159 8159 8157 8157 8149 8149 8152 8153 8154 8159 8158 8150 8147 8146 8142 8140 8142 8140 8138 8133 8133 8133 8134 8135 8137 8137 8137 8137 8138 8138 8130 8129 8131 8132 8133 8134 8135 8135 8135 8133 8133 8131 8127 
8153 8156 8145 8143 8138 8136 8132 8139 8139 8142 8146 8143 8144 8136 8138 8139 8141 8142 8140 8138 8144 8151 8148 8150 8148 8149 8149 8146 8145 8147 8143 8145 8142 8144 8154 8158 8163 8163 8161 8163 8156 8151 8151 8150 8155 8155 8157 8156 8156 8150 8150 8140 8142 8141 8143 8143 8134 8133 8134 8135 8137 8138 8136 8135 8137 8139 8136 8130 8130 8129 8132 8136 8132 8139 8137 8132 8137 8132 8130 8127 


