P2
80 60
8243
8167 8168 8167 8163 8165 8168 8171 8174 8174 8173 8176 8174 8175 8180 8182 8186 8193 8192 8194 8195 8195 8194 8192 8193 8196 8194 8199 8202 8203 8208 8214 8210 8212 8212 8210 8212 8216 8217 8217 8215 8214 8215 8218 8216 8214 8211 8211 8214 8214 8211 8207 8207 8200 8200 8196 8195 8197 8190 8194 8188 8183 8183 8184 8183 8185 8184 8186 8187 8187 8188 8188 8194 8198 8195 8194 8196 8194 8196 8192 8191 
8166 8168 8173 8168 8171 8171 8175 8177 8175 8178 8174 8181 8185 8185 8189 8191 8194 8196 8205 8198 8200 8201 8198 8202 8198 8200 8202 8209 8207 8213 8213 8214 8216 8214 8218 8216 8219 8221 8217 8220 8223 8219 8219 8220 8215 8217 8212 8213 8216 8215 8214 8209 8207 8205 8199 8196 8199 8194 8192 8192 8186 8186 8184 8185 8188 8188 8189 8190 8187 8188 8190 8193 8195 8194 8196 8196 8196 8199 8190 8191 
8169 8170 8172 8170 8174 8181 8178 8180 8183 8188 8186 8185 8190 8191 8196 8195 8195 8198 8201 8204 8199 8201 8200 8201 8202 8202 8207 8208 8211 8211 8216 8214 8217 8217 8218 8218 8220 8221 8218 8218 8223 8223 8221 8223 8218 8216 8216 8214 8215 8217 8215 8213 8212 8207 8206 8201 8202 8197 8196 8193 8187 8187 8187 8186 8188 8186 8187 8189 8190 8192 8190 8197 8196 8198 8195 8194 8196 8196 8189 8192 
8169 8170 8171 8176 8175 8184 8185 8189 8187 8190 8192 8191 8194 8194 8194 8193 8197 8202 8207 8206 8201 8204 8200 8204 8203 8203 8206 8205 8209 8214 8219 8213 8217 8222 8221 8220 8222 8222 8224 8222 8222 8220 8222 8224 8222 8220 8216 8219 8216 8214 8214 8215 8214 8209 8209 8206 8205 8202 8198 8194 8192 8189 8193 8187 8188 8188 8186 8188 8190 8189 8189 8192 8193 8195 8194 8195 8197 8193 8190 8195 
8167 8173 8174 8175 8180 8190 8191 8192 8191 8189 8189 8191 8194 8195 8197 8197 8201 8203 8203 8202 8204 8203 8201 8206 8203 8202 8206 8204 8211 8215 8217 8217 8217 8221 8219 8220 8224 8223 8223 8223 8223 8223 8222 8224 8219 8224 8218 8218 8214 8215 8214 8213 8210 8210 8210 8208 8204 8206 8200 8200 8196 8191 8190 8189 8190 8192 8191 8195 8190 8192 8194 8191 8192 8194 8194 8192 8191 8194 8188 8191 
8170 8172 8175 8176 8184 8188 8187 8192 8190 8187 8189 8190 8194 8192 8194 8198 8199 8201 8202 8200 8200 8203 8202 8204 8202 8203 8204 8211 8213 8214 8218 8219 8216 8220 8218 8220 8225 8223 8226 8221 8223 8221 8223 8226 8219 8219 8218 8216 8214 8214 8216 8210 8208 8207 8211 8209 8208 8206 8203 8200 8195 8194 8193 8194 8190 8192 8192 8194 8191 8192 8190 8190 8191 8192 8192 8193 8192 8192 8188 8190 
8172 8176 8177 8177 8188 8188 8192 8193 8189 8188 8190 8190 8194 8190 8194 8198 8198 8199 8201 8201 8202 8201 8205 8203 8204 8204 8207 8208 8212 8217 8220 8219 8217 8221 8222 8220 8225 8224 8224 8223 8222 8223 8222 8225 8223 8223 8216 8217 8219 8215 8216 8212 8206 8210 8210 8209 8207 8207 8203 8203 8196 8196 8193 8195 8192 8193 8195 8196 8195 8194 8193 8193 8193 8191 8190 8191 8194 8189 8189 8186 
8175 8175 8179 8181 8187 8188 8191 8191 8190 8189 8190 8191 8189 8196 8197 8196 8201 8202 8204 8203 8203 8205 8203 8203 8205 8206 8210 8212 8212 8214 8216 8216 8216 8219 8221 8220 8224 8225 8224 8219 8222 8218 8220 8221 8220 8221 8218 8216 8215 8217 8215 8212 8209 8212 8209 8209 8208 8206 8203 8201 8197 8198 8195 8197 8196 8197 8195 8199 8198 8198 8197 8200 8194 8192 8189 8193 8192 8190 8185 8190 
8173 8178 8183 8187 8189 8194 8193 8193 8191 8191 8189 8189 8194 8196 8195 8196 8199 8202 8204 8206 8206 8204 8201 8203 8204 8205 8212 8212 8215 8214 8216 8214 8213 8218 8220 8218 8221 8223 8222 8221 8221 8217 8219 8220 8221 8218 8217 8216 8215 8213 8214 8211 8209 8207 8205 8209 8204 8205 8203 8202 8199 8200 8197 8198 8199 8201 8198 8196 8197 8204 8204 8200 8199 8196 8189 8189 8188 8188 8183 8187 
8178 8183 8185 8188 8191 8196 8197 8193 8193 8194 8194 8194 8199 8198 8199 8197 8199 8202 8202 8208 8203 8201 8202 8201 8203 8203 8208 8210 8213 8213 8214 8210 8210 8213 8217 8218 8218 8220 8217 8215 8216 8214 8217 8218 8216 8217 8216 8213 8213 8213 8212 8211 8211 8208 8205 8208 8206 8201 8198 8199 8197 8198 8197 8200 8202 8201 8202 8203 8200 8203 8204 8206 8202 8199 8191 8188 8189 8186 8184 8183 
8178 8185 8188 8190 8192 8193 8197 8193 8191 8195 8191 8196 8198 8197 8196 8198 8199 8203 8204 8206 8204 8201 8203 8203 8205 8205 8207 8208 8210 8212 8211 8210 8208 8203 8197 8215 8216 8209 8186 8183 8196 8211 8213 8217 8215 8214 8215 8213 8215 8213 8210 8211 8209 8208 8206 8208 8203 8184 8179 8187 8187 8195 8197 8199 8199 8199 8202 8204 8203 8204 8204 8205 8204 8199 8193 8190 8190 8188 8184 8186 
8181 8189 8191 8188 8191 8195 8195 8193 8194 8196 8194 8192 8202 8198 8199 8202 8198 8202 8199 8207 8201 8202 8201 8201 8202 8203 8205 8207 8209 8210 8208 8208 8196 8176 8180 8211 8206 8196 8174 8174 8174 8187 8200 8207 8205 8209 8211 8211 8211 8214 8212 8209 8206 8208 8207 8208 8196 8178 8176 8176 8180 8196 8200 8198 8202 8198 8201 8204 8202 8205 8205 8204 8204 8201 8193 8189 8188 8187 8183 8183 
8183 8191 8191 8190 8191 8192 8193 8195 8192 8195 8195 8194 8198 8201 8198 8202 8201 8199 8202 8206 8201 8204 8202 8204 8200 8203 8207 8208 8211 8207 8212 8203 8175 8170 8186 8207 8192 8184 8170 8170 8170 8167 8176 8176 8178 8175 8182 8197 8208 8210 8212 8213 8207 8209 8205 8208 8194 8178 8176 8174 8182 8196 8196 8198 8201 8200 8199 8204 8202 8202 8202 8200 8204 8203 8194 8190 8188 8189 8181 8180 
8186 8192 8193 8192 8196 8194 8193 8197 8193 8196 8194 8195 8200 8203 8202 8201 8202 8200 8203 8204 8202 8203 8203 8204 8203 8202 8205 8208 8208 8208 8211 8194 8172 8174 8205 8206 8180 8174 8169 8164 8166 8168 8171 8174 8180 8189 8192 8200 8211 8212 8207 8209 8209 8209 8208 8207 8189 8179 8176 8179 8187 8195 8198 8196 8200 8199 8202 8201 8200 8198 8203 8198 8202 8197 8192 8189 8188 8188 8180 8179 
8191 8194 8194 8195 8194 8196 8196 8193 8193 8196 8195 8198 8201 8201 8203 8201 8201 8200 8202 8205 8201 8198 8201 8203 8203 8201 8204 8209 8205 8196 8209 8190 8178 8199 8201 8202 8186 8169 8168 8163 8166 8170 8176 8176 8198 8203 8207 8210 8212 8209 8208 8209 8207 8208 8205 8202 8185 8177 8176 8181 8191 8196 8195 8196 8198 8198 8200 8202 8199 8198 8201 8198 8197 8196 8194 8190 8188 8186 8182 8182 
8188 8195 8194 8194 8199 8197 8194 8197 8199 8197 8198 8200 8204 8202 8202 8199 8202 8198 8202 8204 8204 8202 8203 8203 8204 8201 8196 8202 8195 8185 8206 8190 8207 8198 8173 8172 8178 8179 8171 8172 8169 8176 8191 8174 8179 8190 8200 8207 8213 8210 8210 8209 8209 8207 8205 8199 8181 8177 8176 8182 8194 8196 8194 8197 8198 8201 8198 8200 8199 8198 8201 8198 8198 8198 8193 8192 8190 8189 8183 8184 
8195 8194 8197 8196 8199 8199 8198 8197 8199 8198 8200 8202 8201 8204 8202 8202 8200 8204 8206 8206 8207 8204 8204 8204 8199 8175 8172 8183 8188 8174 8177 8197 8214 8207 8185 8180 8179 8188 8194 8200 8179 8167 8170 8169 8173 8180 8180 8191 8213 8210 8215 8211 8209 8207 8208 8194 8179 8178 8179 8191 8197 8198 8195 8197 8201 8199 8202 8200 8197 8198 8201 8199 8197 8195 8192 8190 8190 8187 8185 8181 
8191 8197 8196 8195 8197 8198 8199 8199 8203 8201 8202 8203 8206 8205 8206 8202 8201 8205 8205 8206 8204 8203 8204 8208 8181 8173 8198 8202 8205 8196 8181 8201 8212 8213 8197 8208 8209 8194 8181 8186 8180 8169 8169 8168 8169 8194 8217 8216 8218 8213 8214 8213 8208 8209 8205 8187 8178 8177 8177 8196 8197 8198 8199 8200 8199 8200 8198 8200 8200 8198 8197 8196 8197 8197 8195 8191 8188 8188 8183 8182 
8192 8195 8196 8195 8196 8196 8197 8201 8200 8203 8205 8201 8203 8204 8206 8205 8202 8204 8202 8205 8206 8204 8208 8206 8180 8195 8208 8209 8213 8209 8206 8186 8210 8212 8206 8194 8188 8181 8171 8163 8167 8167 8168 8176 8168 8180 8212 8239 8243 8225 8213 8213 8210 8206 8203 8184 8179 8177 8183 8198 8196 8198 8200 8198 8200 8202 8199 8200 8197 8196 8198 8194 8194 8196 8196 8191 8190 8187 8180 8188 
8195 8199 8194 8192 8197 8199 8196 8201 8200 8204 8201 8201 8205 8206 8206 8206 8202 8206 8204 8204 8207 8203 8207 8207 8194 8206 8207 8209 8213 8207 8206 8189 8194 8196 8171 8168 8170 8175 8174 8162 8166 8191 8176 8167 8167 8171 8193 8206 8218 8209 8196 8197 8204 8208 8198 8182 8179 8177 8190 8202 8202 8199 8198 8197 8199 8200 8201 8202 8198 8203 8201 8195 8195 8196 8194 8194 8191 8188 8183 8184 
8196 8200 8198 8197 8197 8199 8199 8203 8200 8204 8204 8201 8204 8204 8204 8205 8206 8206 8206 8205 8205 8205 8205 8206 8197 8202 8207 8208 8207 8186 8172 8184 8182 8172 8167 8166 8169 8170 8175 8167 8165 8171 8176 8165 8166 8169 8185 8209 8226 8204 8194 8187 8190 8198 8192 8178 8180 8180 8195 8203 8201 8200 8199 8198 8199 8198 8201 8199 8198 8199 8201 8196 8195 8195 8191 8190 8192 8188 8185 8182 
8198 8198 8198 8197 8197 8201 8198 8202 8201 8205 8202 8202 8205 8206 8204 8208 8205 8207 8207 8208 8209 8210 8209 8207 8208 8205 8207 8207 8184 8166 8169 8172 8175 8172 8167 8166 8168 8172 8171 8165 8165 8166 8165 8163 8169 8167 8170 8176 8195 8205 8198 8191 8184 8186 8179 8181 8178 8184 8198 8205 8203 8199 8199 8198 8203 8201 8202 8199 8199 8202 8201 8199 8197 8195 8195 8192 8194 8186 8185 8182 
8192 8199 8198 8196 8197 8201 8199 8202 8203 8206 8205 8203 8204 8206 8205 8205 8207 8209 8207 8210 8210 8205 8212 8209 8208 8208 8210 8208 8174 8166 8168 8167 8166 8170 8170 8167 8170 8172 8172 8166 8166 8166 8167 8166 8169 8170 8164 8167 8183 8186 8191 8203 8196 8186 8178 8179 8179 8190 8201 8204 8200 8203 8200 8200 8202 8204 8202 8200 8200 8200 8199 8199 8197 8195 8197 8193 8192 8193 8186 8185 
8195 8197 8201 8195 8197 8200 8199 8202 8203 8205 8207 8205 8207 8205 8208 8208 8209 8207 8206 8207 8211 8209 8209 8208 8209 8209 8212 8206 8169 8167 8168 8167 8167 8173 8171 8164 8171 8171 8167 8161 8169 8167 8166 8166 8169 8166 8161 8162 8164 8166 8169 8183 8195 8179 8175 8179 8180 8198 8206 8205 8201 8200 8202 8197 8202 8199 8201 8200 8200 8202 8200 8198 8200 8192 8196 8194 8191 8193 8186 8187 
8198 8199 8199 8197 8199 8198 8200 8201 8203 8207 8205 8208 8207 8207 8211 8208 8206 8207 8207 8206 8207 8208 8209 8209 8207 8206 8207 8202 8167 8166 8168 8168 8169 8170 8169 8164 8162 8164 8164 8162 8169 8169 8166 8166 8168 8168 8164 8159 8163 8163 8164 8168 8177 8174 8169 8174 8184 8202 8204 8206 8201 8202 8199 8200 8203 8202 8199 8200 8203 8199 8202 8196 8197 8197 8196 8195 8193 8192 8186 8185 
8196 8197 8199 8195 8198 8201 8200 8203 8206 8206 8209 8208 8212 8210 8210 8210 8206 8210 8210 8206 8210 8207 8209 8211 8212 8207 8211 8195 8172 8167 8166 8167 8169 8168 8168 8165 8166 8164 8165 8166 8166 8166 8166 8166 8171 8170 8165 8165 8164 8164 8168 8165 8168 8167 8174 8179 8182 8202 8205 8206 8203 8201 8200 8197 8202 8202 8200 8202 8201 8203 8200 8198 8197 8198 8195 8194 8189 8192 8188 8188 
8197 8199 8202 8196 8199 8201 8201 8205 8209 8209 8207 8210 8212 8211 8212 8211 8208 8210 8210 8207 8208 8208 8208 8209 8210 8206 8202 8176 8175 8165 8168 8163 8169 8164 8163 8164 8164 8164 8168 8164 8167 8165 8167 8167 8168 8173 8168 8165 8163 8164 8167 8166 8165 8165 8171 8174 8183 8194 8204 8206 8205 8202 8199 8201 8202 8202 8202 8200 8200 8199 8200 8199 8198 8199 8198 8195 8195 8196 8189 8184 
8196 8199 8202 8199 8200 8204 8207 8207 8210 8208 8208 8208 8210 8210 8214 8209 8211 8210 8209 8210 8207 8209 8213 8206 8207 8207 8186 8166 8170 8170 8168 8165 8165 8162 8165 8165 8166 8166 8166 8166 8168 8167 8169 8167 8167 8167 8168 8165 8162 8161 8167 8163 8166 8168 8173 8177 8186 8188 8202 8205 8205 8203 8202 8200 8202 8201 8204 8203 8197 8201 8202 8201 8197 8200 8197 8197 8197 8195 8189 8191 
8196 8203 8202 8201 8205 8207 8204 8207 8206 8207 8208 8210 8213 8211 8208 8208 8209 8211 8211 8207 8209 8209 8210 8210 8212 8209 8184 8172 8172 8167 8168 8164 8166 8165 8166 8165 8164 8166 8166 8164 8169 8167 8171 8168 8165 8169 8164 8168 8166 8167 8167 8162 8166 8169 8171 8176 8188 8189 8198 8204 8204 8199 8202 8199 8202 8200 8201 8200 8201 8199 8198 8198 8198 8197 8198 8199 8199 8197 8190 8196 
8198 8205 8205 8203 8204 8206 8207 8209 8208 8208 8209 8208 8208 8214 8210 8208 8207 8210 8210 8209 8211 8208 8211 8212 8209 8194 8175 8171 8171 8169 8168 8163 8162 8164 8164 8164 8165 8165 8169 8162 8167 8165 8169 8170 8168 8168 8167 8168 8168 8169 8165 8165 8160 8164 8169 8178 8188 8186 8198 8205 8205 8201 8199 8202 8201 8202 8202 8204 8200 8198 8200 8199 8200 8198 8197 8197 8200 8199 8191 8193 
8200 8206 8204 8205 8205 8207 8211 8208 8209 8212 8208 8213 8212 8213 8210 8210 8208 8211 8210 8207 8210 8209 8208 8211 8206 8187 8174 8174 8163 8163 8165 8165 8165 8167 8164 8164 8164 8166 8165 8164 8169 8164 8170 8169 8169 8170 8168 8164 8165 8171 8175 8167 8165 8163 8168 8180 8185 8188 8194 8205 8202 8201 8201 8198 8201 8202 8201 8201 8200 8202 8199 8199 8200 8199 8200 8199 8197 8197 8191 8197 
8200 8202 8206 8205 8206 8206 8211 8209 8212 8209 8210 8211 8212 8210 8211 8210 8207 8210 8208 8211 8209 8212 8210 8212 8204 8192 8177 8172 8169 8163 8163 8162 8163 8162 8164 8164 8164 8167 8164 8165 8167 8166 8169 8170 8170 8171 8167 8167 8167 8169 8170 8167 8172 8166 8168 8176 8189 8188 8195 8202 8204 8201 8199 8201 8204 8198 8201 8202 8202 8200 8201 8198 8199 8200 8199 8201 8198 8199 8189 8189 
8200 8205 8210 8203 8205 8207 8208 8208 8211 8209 8210 8209 8212 8213 8211 8207 8207 8211 8211 8209 8210 8210 8211 8208 8196 8175 8167 8166 8163 8159 8166 8165 8161 8163 8164 8165 8166 8171 8169 8164 8169 8168 8169 8171 8169 8170 8165 8165 8166 8168 8171 8169 8168 8167 8172 8179 8185 8191 8198 8202 8202 8200 8200 8200 8202 8198 8201 8199 8200 8197 8197 8197 8200 8199 8199 8198 8197 8197 8188 8198 
8200 8204 8211 8208 8206 8210 8209 8210 8206 8210 8212 8207 8211 8211 8208 8206 8207 8210 8209 8211 8210 8211 8211 8211 8208 8192 8170 8164 8161 8163 8166 8166 8163 8166 8164 8166 8166 8166 8168 8166 8166 8167 8168 8167 8169 8171 8167 8169 8170 8169 8168 8167 8165 8169 8172 8176 8187 8189 8198 8204 8200 8200 8199 8201 8201 8200 8201 8200 8202 8200 8200 8202 8201 8199 8197 8200 8198 8196 8192 8192 
8202 8210 8213 8207 8208 8210 8213 8213 8210 8210 8207 8206 8211 8211 8207 8210 8209 8209 8211 8209 8207 8211 8211 8211 8196 8170 8164 8162 8164 8164 8166 8165 8164 8165 8167 8170 8170 8174 8171 8165 8168 8164 8167 8165 8169 8171 8170 8170 8170 8170 8168 8165 8162 8164 8169 8176 8185 8190 8201 8205 8198 8199 8197 8201 8203 8201 8200 8199 8197 8197 8196 8198 8197 8196 8195 8194 8193 8197 8192 8193 
8203 8208 8212 8207 8209 8210 8213 8211 8212 8211 8211 8208 8211 8209 8208 8209 8211 8211 8210 8209 8211 8212 8211 8207 8193 8187 8177 8171 8164 8165 8165 8164 8161 8166 8165 8171 8170 8168 8168 8167 8168 8166 8168 8167 8170 8173 8167 8170 8170 8168 8168 8167 8165 8163 8166 8176 8187 8194 8201 8205 8200 8202 8198 8200 8199 8199 8199 8202 8198 8196 8197 8199 8197 8197 8197 8196 8196 8194 8191 8190 
8203 8208 8212 8208 8209 8210 8214 8212 8212 8215 8212 8211 8214 8211 8212 8209 8208 8209 8207 8212 8210 8210 8211 8210 8207 8207 8191 8172 8168 8163 8168 8167 8162 8167 8164 8164 8164 8164 8166 8163 8169 8167 8167 8166 8172 8169 8169 8167 8169 8164 8167 8164 8165 8166 8172 8185 8190 8199 8205 8206 8201 8201 8196 8202 8202 8201 8200 8200 8197 8195 8199 8195 8197 8198 8197 8196 8196 8199 8190 8189 
8207 8208 8215 8211 8212 8212 8212 8213 8215 8213 8213 8211 8213 8211 8212 8209 8211 8209 8211 8213 8207 8211 8210 8212 8211 8207 8201 8172 8177 8170 8166 8167 8161 8168 8162 8161 8161 8162 8169 8169 8169 8165 8164 8169 8167 8169 8164 8170 8170 8168 8171 8165 8169 8169 8176 8187 8194 8205 8205 8206 8200 8202 8199 8199 8202 8201 8200 8200 8200 8198 8197 8197 8196 8195 8198 8199 8196 8197 8191 8190 
8207 8212 8212 8208 8213 8212 8211 8213 8215 8211 8213 8211 8210 8210 8212 8209 8208 8205 8212 8207 8208 8211 8210 8212 8211 8208 8208 8187 8180 8174 8165 8166 8162 8170 8164 8159 8161 8164 8165 8166 8164 8158 8160 8168 8168 8163 8164 8165 8167 8167 8168 8167 8167 8174 8183 8193 8202 8209 8209 8204 8205 8203 8202 8200 8200 8203 8201 8201 8199 8198 8198 8196 8197 8196 8198 8198 8200 8198 8196 8192 
8207 8215 8214 8211 8210 8215 8212 8212 8212 8213 8214 8209 8211 8213 8211 8209 8210 8210 8210 8210 8208 8208 8208 8213 8209 8209 8216 8206 8183 8181 8170 8163 8162 8165 8164 8160 8162 8161 8164 8162 8160 8161 8159 8166 8160 8164 8161 8167 8165 8164 8169 8167 8172 8179 8192 8200 8207 8207 8207 8204 8202 8204 8203 8200 8202 8201 8202 8202 8202 8203 8199 8200 8198 8198 8200 8201 8198 8199 8195 8196 
8207 8212 8211 8213 8211 8211 8211 8212 8213 8215 8211 8210 8212 8216 8212 8210 8207 8210 8208 8209 8211 8212 8210 8210 8211 8212 8213 8215 8193 8186 8182 8168 8163 8166 8165 8163 8164 8162 8160 8162 8164 8161 8159 8162 8162 8166 8165 8169 8166 8168 8171 8171 8175 8188 8191 8200 8209 8208 8207 8208 8204 8205 8201 8203 8201 8202 8201 8202 8203 8201 8202 8202 8201 8201 8203 8201 8200 8201 8195 8193 
8209 8213 8212 8209 8211 8210 8214 8218 8213 8216 8216 8212 8211 8212 8212 8211 8212 8213 8207 8210 8210 8209 8212 8211 8211 8209 8212 8214 8199 8191 8195 8183 8170 8167 8170 8164 8161 8164 8165 8164 8170 8163 8161 8165 8165 8166 8168 8169 8171 8169 8174 8174 8184 8191 8192 8202 8211 8208 8207 8205 8207 8204 8205 8202 8203 8202 8205 8206 8204 8205 8202 8202 8202 8200 8203 8200 8200 8198 8193 8195 
8214 8215 8216 8210 8212 8214 8211 8213 8214 8213 8214 8214 8214 8216 8212 8212 8212 8210 8209 8209 8212 8214 8213 8209 8211 8212 8215 8216 8207 8189 8196 8198 8192 8176 8166 8162 8161 8161 8167 8167 8170 8165 8165 8170 8168 8169 8168 8166 8175 8178 8181 8188 8189 8191 8192 8208 8214 8211 8209 8210 8207 8207 8203 8202 8204 8205 8206 8202 8202 8203 8204 8203 8203 8204 8201 8206 8203 8202 8194 8193 
8210 8212 8215 8210 8209 8215 8211 8214 8212 8217 8213 8215 8215 8216 8211 8213 8211 8210 8211 8215 8210 8212 8212 8209 8211 8210 8213 8215 8215 8195 8194 8195 8198 8194 8181 8170 8164 8169 8169 8172 8169 8169 8170 8171 8169 8169 8171 8170 8182 8188 8193 8188 8189 8191 8201 8211 8214 8213 8210 8209 8209 8208 8205 8204 8205 8207 8206 8205 8202 8207 8205 8203 8204 8208 8203 8204 8206 8203 8197 8195 
8208 8212 8215 8212 8213 8213 8213 8214 8218 8215 8214 8215 8215 8217 8215 8212 8212 8215 8212 8213 8208 8209 8210 8212 8212 8210 8214 8216 8219 8206 8197 8194 8201 8211 8212 8198 8183 8176 8173 8173 8174 8177 8177 8177 8176 8176 8177 8184 8191 8192 8190 8192 8192 8196 8207 8212 8212 8213 8212 8213 8207 8207 8205 8200 8205 8207 8207 8204 8203 8207 8205 8204 8203 8206 8204 8203 8206 8203 8197 8201 
8211 8215 8215 8212 8210 8217 8212 8215 8214 8215 8213 8216 8214 8217 8214 8216 8212 8212 8215 8213 8212 8211 8214 8214 8213 8213 8216 8217 8220 8217 8205 8196 8199 8209 8211 8213 8208 8203 8194 8187 8189 8190 8193 8190 8188 8191 8195 8193 8191 8189 8196 8195 8194 8205 8210 8213 8217 8212 8211 8210 8208 8210 8206 8204 8205 8207 8206 8209 8203 8206 8203 8207 8204 8205 8203 8206 8205 8204 8202 8200 
8210 8216 8217 8212 8211 8213 8216 8214 8217 8216 8217 8216 8214 8219 8216 8214 8215 8215 8214 8214 8213 8213 8210 8214 8213 8214 8214 8217 8219 8222 8216 8200 8196 8205 8212 8215 8207 8202 8195 8193 8194 8190 8191 8196 8191 8191 8187 8185 8188 8196 8200 8194 8200 8211 8214 8218 8216 8215 8214 8212 8209 8208 8208 8205 8208 8208 8204 8206 8205 8208 8202 8207 8203 8206 8207 8210 8205 8206 8201 8203 
8214 8218 8217 8215 8214 8219 8213 8217 8217 8218 8216 8217 8217 8218 8215 8216 8213 8216 8215 8215 8214 8217 8215 8216 8217 8215 8219 8218 8222 8225 8223 8216 8203 8198 8206 8213 8217 8211 8205 8196 8194 8191 8191 8192 8192 8190 8193 8194 8200 8197 8199 8204 8211 8213 8212 8217 8218 8215 8213 8212 8210 8213 8208 8208 8203 8206 8207 8206 8203 8209 8207 8207 8207 8209 8207 8205 8206 8208 8198 8203 
8210 8213 8217 8210 8217 8215 8218 8216 8215 8216 8217 8215 8219 8219 8215 8216 8212 8216 8213 8215 8211 8214 8214 8216 8217 8216 8217 8219 8222 8224 8227 8221 8217 8205 8202 8205 8210 8214 8213 8214 8208 8203 8198 8198 8200 8204 8207 8200 8199 8198 8209 8214 8214 8215 8216 8220 8217 8218 8214 8212 8210 8208 8205 8206 8205 8204 8205 8206 8205 8209 8207 8209 8207 8209 8204 8206 8204 8207 8203 8201 
8213 8214 8219 8213 8215 8216 8218 8214 8214 8220 8217 8217 8215 8216 8215 8216 8211 8214 8212 8214 8212 8214 8215 8218 8215 8214 8217 8221 8221 8222 8229 8225 8226 8224 8212 8202 8202 8204 8209 8212 8214 8213 8211 8211 8207 8204 8200 8202 8208 8213 8218 8215 8219 8215 8218 8220 8219 8219 8215 8213 8207 8208 8205 8205 8205 8205 8209 8207 8207 8213 8209 8209 8208 8208 8205 8206 8204 8207 8202 8200 
8214 8215 8217 8212 8214 8216 8218 8219 8214 8219 8216 8216 8217 8217 8215 8216 8214 8214 8211 8213 8212 8211 8216 8218 8216 8215 8220 8220 8224 8221 8225 8229 8229 8229 8223 8222 8219 8209 8207 8204 8202 8201 8204 8201 8203 8206 8209 8215 8216 8217 8218 8215 8216 8219 8221 8221 8219 8217 8214 8211 8208 8209 8207 8207 8207 8207 8208 8208 8209 8210 8210 8211 8208 8212 8208 8205 8207 8207 8199 8203 
8213 8220 8217 8214 8215 8218 8218 8214 8215 8219 8215 8216 8216 8217 8218 8217 8213 8216 8214 8211 8212 8214 8213 8219 8216 8217 8218 8221 8222 8226 8228 8230 8228 8228 8228 8230 8228 8226 8226 8220 8221 8217 8219 8218 8221 8223 8220 8220 8220 8220 8221 8220 8222 8219 8222 8221 8219 8218 8215 8215 8210 8208 8210 8209 8205 8204 8207 8209 8209 8210 8208 8209 8205 8209 8207 8209 8206 8207 8196 8202 
8218 8220 8222 8213 8213 8218 8216 8218 8215 8218 8213 8216 8216 8217 8216 8218 8215 8214 8215 8216 8214 8215 8215 8218 8219 8218 8219 8219 8222 8225 8229 8230 8226 8231 8232 8232 8231 8232 8230 8227 8229 8225 8226 8227 8224 8223 8221 8223 8220 8221 8220 8223 8221 8219 8222 8223 8222 8217 8213 8213 8211 8208 8208 8207 8202 8205 8208 8208 8210 8209 8211 8209 8207 8213 8206 8207 8205 8207 8200 8202 
8213 8220 8217 8216 8215 8218 8217 8213 8213 8219 8212 8212 8217 8217 8215 8214 8212 8210 8213 8216 8213 8217 8218 8216 8216 8218 8220 8223 8224 8224 8229 8227 8225 8231 8232 8233 8232 8231 8230 8232 8227 8229 8226 8229 8226 8227 8222 8226 8223 8222 8224 8221 8220 8221 8218 8222 8220 8218 8214 8214 8211 8208 8206 8204 8205 8206 8208 8206 8206 8209 8209 8208 8208 8208 8207 8207 8206 8206 8199 8201 
8217 8217 8222 8217 8213 8217 8214 8217 8214 8217 8212 8213 8216 8215 8216 8215 8213 8211 8215 8213 8212 8217 8214 8215 8218 8215 8223 8222 8223 8221 8229 8229 8229 8233 8235 8234 8231 8231 8229 8228 8232 8230 8228 8230 8229 8230 8223 8223 8222 8221 8226 8222 8219 8219 8218 8220 8217 8218 8216 8215 8207 8206 8205 8203 8204 8205 8206 8206 8207 8208 8208 8206 8205 8205 8205 8208 8206 8203 8200 8202 
8213 8221 8221 8215 8214 8215 8215 8213 8212 8211 8213 8213 8217 8217 8214 8211 8209 8210 8212 8213 8210 8213 8212 8214 8216 8215 8220 8217 8226 8222 8228 8227 8225 8230 8231 8232 8233 8232 8233 8230 8233 8228 8230 8232 8227 8227 8226 8227 8224 8222 8225 8222 8219 8219 8218 8222 8217 8219 8213 8212 8208 8205 8206 8206 8204 8207 8207 8206 8207 8210 8208 8209 8207 8206 8208 8205 8205 8203 8199 8199 
8218 8220 8218 8216 8210 8213 8213 8211 8214 8216 8215 8215 8215 8214 8213 8210 8213 8210 8209 8213 8211 8211 8213 8215 8213 8214 8216 8216 8222 8220 8226 8226 8227 8232 8230 8231 8234 8232 8233 8230 8233 8228 8231 8231 8229 8229 8226 8226 8225 8225 8227 8218 8220 8216 8215 8216 8217 8217 8216 8212 8208 8209 8205 8204 8204 8202 8204 8208 8207 8208 8205 8208 8208 8205 8208 8202 8201 8204 8195 8199 
8217 8218 8220 8213 8213 8212 8210 8211 8210 8213 8213 8211 8213 8214 8212 8208 8210 8210 8210 8210 8210 8208 8211 8214 8211 8212 8218 8214 8219 8220 8225 8224 8223 8228 8229 8226 8230 8229 8229 8231 8228 8227 8228 8228 8227 8228 8226 8226 8226 8224 8227 8218 8214 8216 8213 8219 8217 8214 8214 8210 8206 8206 8203 8207 8202 8203 8205 8206 8203 8207 8206 8204 8203 8203 8206 8203 8201 8202 8200 8200 
8221 8224 8218 8212 8211 8211 8212 8213 8212 8213 8214 8212 8212 8212 8211 8211 8210 8207 8210 8211 8208 8210 8210 8211 8213 8213 8215 8215 8218 8219 8221 8222 8224 8226 8227 8228 8229 8232 8231 8228 8231 8226 8229 8227 8225 8226 8225 8223 8225 8223 8223 8217 8216 8215 8214 8213 8212 8211 8210 8208 8203 8205 8201 8202 8202 8199 8202 8207 8203 8206 8206 8206 8204 8200 8201 8202 8200 8202 8201 8204 
8224 8220 8218 8206 8203 8205 8211 8210 8213 8210 8207 8211 8211 8211 8211 8207 8209 8206 8213 8214 8209 8208 8207 8212 8213 8213 8214 8215 8214 8217 8222 8221 8222 8223 8226 8226 8227 8227 8229 8227 8224 8227 8220 8225 8221 8218 8218 8215 8215 8216 8218 8214 8212 8209 8207 8208 8204 8200 8197 8190 8187 8192 8193 8197 8194 8195 8203 8202 8202 8207 8204 8204 8202 8201 8206 8203 8196 8201 8201 8204 


