P2
80 60
8410
8266 8270 8268 8272 8272 8270 8265 8260 8259 8261 8259 8261 8263 8263 8264 8263 8258 8261 8263 8265 8264 8264 8262 8265 8269 8264 8264 8257 8262 8261 8262 8258 8261 8257 8254 8255 8260 8260 8263 8259 8261 8256 8256 8260 8261 8263 8264 8269 8269 8271 8264 8261 8257 8257 8255 8253 8254 8255 8255 8254 8259 8261 8260 8259 8257 8255 8260 8256 8256 8254 8254 8253 8261 8258 8252 8250 8244 8243 8250 8240 
8265 8267 8270 8273 8269 8275 8263 8260 8258 8260 8261 8265 8263 8264 8262 8265 8261 8263 8262 8264 8266 8265 8264 8263 8266 8262 8262 8263 8261 8260 8260 8259 8257 8253 8253 8255 8254 8257 8265 8262 8257 8258 8255 8256 8262 8262 8264 8269 8267 8269 8262 8261 8260 8257 8254 8254 8257 8254 8256 8256 8260 8261 8258 8255 8258 8256 8258 8258 8258 8259 8254 8250 8256 8256 8254 8247 8246 8248 8247 8242 
8260 8262 8266 8266 8270 8267 8262 8262 8260 8261 8261 8259 8256 8263 8264 8260 8261 8260 8257 8263 8260 8265 8263 8259 8260 8262 8262 8260 8259 8257 8255 8254 8254 8253 8254 8254 8253 8260 8260 8259 8257 8253 8252 8257 8260 8264 8269 8268 8266 8266 8263 8259 8256 8258 8254 8254 8252 8255 8254 8251 8258 8256 8257 8257 8259 8256 8253 8256 8256 8254 8249 8247 8247 8252 8249 8237 8249 8239 8241 8241 
8259 8259 8266 8267 8268 8267 8262 8259 8261 8260 8257 8258 8260 8261 8262 8262 8260 8258 8260 8262 8257 8259 8252 8260 8257 8259 8262 8260 8260 8257 8250 8253 8255 8251 8253 8252 8256 8259 8255 8255 8254 8247 8251 8248 8257 8257 8264 8266 8267 8264 8260 8257 8258 8254 8255 8254 8257 8254 8253 8253 8259 8260 8251 8258 8250 8248 8251 8253 8256 8258 8246 8250 8248 8252 8244 8241 8244 8240 8237 8237 
8259 8262 8265 8263 8266 8268 8261 8256 8259 8259 8253 8256 8256 8260 8257 8258 8256 8258 8261 8261 8257 8262 8251 8256 8255 8260 8258 8256 8254 8256 8253 8254 8250 8243 8247 8251 8253 8248 8243 8244 8241 8244 8245 8250 8252 8254 8258 8266 8262 8263 8258 8256 8256 8259 8257 8253 8255 8256 8256 8256 8258 8258 8255 8255 8250 8247 8249 8244 8257 8255 8246 8251 8246 8253 8239 8241 8241 8235 8238 8235 
8261 8258 8264 8266 8267 8269 8263 8265 8257 8254 8250 8254 8255 8255 8256 8258 8256 8254 8261 8259 8255 8259 8256 8255 8261 8259 8257 8253 8254 8255 8254 8253 8243 8198 8219 8223 8204 8194 8190 8194 8200 8209 8232 8245 8254 8254 8261 8262 8266 8262 8260 8255 8258 8258 8256 8254 8257 8252 8257 8256 8258 8258 8256 8253 8249 8248 8250 8243 8252 8256 8252 8248 8252 8240 8238 8240 8240 8230 8237 8232 
8261 8267 8262 8267 8265 8270 8265 8262 8256 8251 8252 8257 8256 8252 8257 8255 8253 8252 8259 8259 8257 8257 8259 8257 8263 8259 8249 8247 8252 8252 8253 8250 8238 8179 8173 8178 8181 8172 8170 8173 8175 8180 8188 8224 8248 8251 8259 8263 8262 8264 8259 8255 8258 8258 8255 8256 8253 8255 8256 8255 8253 8258 8252 8253 8250 8249 8254 8255 8244 8244 8254 8255 8246 8239 8241 8239 8236 8226 8234 8237 
8265 8265 8262 8266 8267 8270 8264 8261 8258 8251 8253 8259 8256 8255 8256 8257 8255 8253 8257 8258 8259 8257 8254 8258 8259 8256 8245 8248 8246 8243 8232 8216 8205 8182 8167 8168 8170 8165 8164 8167 8169 8171 8173 8183 8220 8249 8255 8260 8259 8257 8254 8253 8255 8254 8253 8252 8253 8253 8255 8253 8254 8253 8251 8251 8250 8253 8254 8253 8246 8249 8246 8248 8244 8238 8241 8242 8236 8233 8237 8234 
8261 8261 8262 8266 8268 8266 8264 8260 8260 8252 8252 8256 8254 8252 8252 8255 8250 8252 8259 8260 8259 8254 8253 8255 8249 8251 8244 8245 8240 8207 8151 8155 8178 8215 8205 8167 8166 8162 8159 8163 8164 8164 8164 8172 8196 8246 8256 8263 8259 8257 8255 8254 8255 8253 8258 8249 8252 8253 8254 8252 8253 8251 8252 8247 8249 8246 8247 8252 8248 8252 8246 8240 8239 8242 8240 8242 8239 8236 8240 8234 
8258 8259 8263 8264 8264 8266 8260 8257 8257 8253 8252 8252 8254 8253 8252 8255 8251 8251 8257 8259 8257 8255 8250 8242 8234 8225 8221 8229 8206 8146 8126 8151 8185 8195 8192 8169 8162 8156 8156 8155 8159 8160 8160 8162 8176 8238 8258 8260 8259 8257 8254 8254 8253 8254 8253 8250 8253 8255 8254 8250 8253 8255 8252 8248 8248 8247 8250 8249 8248 8254 8253 8246 8238 8243 8243 8241 8240 8236 8237 8232 
8260 8260 8263 8263 8262 8266 8257 8257 8253 8251 8252 8252 8252 8251 8250 8250 8248 8248 8250 8254 8255 8248 8225 8191 8168 8152 8147 8155 8143 8130 8130 8141 8143 8141 8144 8151 8151 8148 8152 8157 8154 8148 8152 8169 8178 8242 8259 8259 8260 8259 8253 8253 8255 8255 8251 8246 8255 8252 8254 8249 8251 8251 8249 8245 8246 8247 8248 8249 8248 8249 8248 8248 8237 8240 8239 8239 8243 8238 8240 8234 
8262 8264 8260 8261 8260 8261 8249 8254 8252 8250 8249 8251 8250 8249 8250 8251 8248 8245 8248 8251 8238 8230 8193 8213 8223 8205 8168 8141 8145 8139 8140 8136 8122 8126 8136 8144 8152 8153 8160 8161 8160 8156 8154 8174 8189 8239 8254 8257 8257 8257 8255 8257 8258 8257 8253 8253 8251 8251 8251 8251 8249 8249 8249 8248 8244 8249 8249 8249 8249 8245 8248 8248 8241 8239 8238 8242 8243 8245 8244 8241 
8267 8266 8261 8259 8256 8260 8252 8251 8247 8250 8250 8249 8248 8247 8249 8251 8249 8250 8249 8241 8201 8173 8187 8211 8196 8152 8156 8155 8141 8148 8145 8118 8115 8145 8140 8137 8144 8144 8161 8160 8159 8155 8164 8175 8197 8242 8252 8257 8256 8257 8258 8258 8259 8257 8256 8250 8253 8255 8255 8251 8253 8248 8252 8244 8247 8248 8248 8249 8251 8245 8246 8246 8243 8239 8238 8245 8249 8248 8248 8243 
8265 8267 8263 8261 8257 8258 8253 8250 8246 8252 8250 8250 8249 8247 8250 8251 8251 8244 8231 8190 8168 8154 8139 8138 8122 8170 8222 8203 8140 8132 8134 8116 8109 8126 8144 8145 8118 8111 8127 8149 8162 8161 8163 8174 8204 8242 8249 8256 8256 8255 8253 8256 8258 8257 8257 8250 8254 8253 8256 8251 8253 8249 8249 8249 8251 8250 8254 8249 8251 8251 8247 8251 8247 8241 8241 8247 8251 8252 8251 8243 
8263 8256 8263 8259 8257 8256 8252 8250 8246 8252 8253 8255 8248 8249 8250 8251 8245 8240 8211 8157 8154 8145 8137 8139 8125 8133 8177 8165 8131 8126 8123 8126 8144 8121 8124 8132 8135 8152 8190 8156 8149 8156 8155 8160 8187 8234 8243 8252 8253 8254 8252 8257 8256 8258 8253 8254 8254 8256 8256 8253 8254 8245 8248 8252 8253 8253 8250 8251 8249 8248 8247 8249 8247 8246 8241 8248 8248 8249 8255 8252 
8261 8254 8256 8262 8257 8254 8247 8250 8250 8250 8247 8245 8233 8237 8236 8225 8229 8192 8179 8156 8152 8138 8125 8133 8134 8142 8151 8131 8128 8117 8132 8150 8176 8154 8124 8136 8150 8207 8180 8137 8146 8155 8147 8156 8160 8196 8232 8245 8242 8245 8252 8252 8254 8256 8250 8255 8254 8257 8256 8254 8254 8244 8250 8252 8256 8252 8248 8250 8248 8248 8246 8248 8244 8244 8243 8247 8249 8254 8256 8251 
8261 8254 8256 8259 8256 8256 8251 8250 8252 8244 8227 8201 8192 8203 8190 8160 8156 8148 8147 8150 8141 8127 8131 8138 8136 8137 8140 8144 8138 8125 8125 8129 8147 8183 8178 8168 8157 8198 8161 8160 8146 8147 8156 8169 8168 8170 8188 8203 8193 8210 8244 8250 8253 8253 8248 8250 8253 8253 8253 8252 8252 8250 8252 8252 8251 8251 8249 8249 8249 8248 8243 8248 8244 8244 8242 8247 8245 8252 8256 8250 
8262 8256 8256 8255 8256 8258 8251 8252 8247 8245 8187 8178 8175 8171 8171 8195 8190 8157 8148 8145 8136 8135 8146 8143 8145 8146 8147 8142 8133 8129 8120 8125 8143 8160 8162 8155 8149 8148 8146 8144 8143 8148 8155 8169 8176 8183 8181 8181 8192 8195 8207 8227 8246 8250 8248 8246 8248 8250 8250 8251 8249 8250 8248 8253 8252 8249 8252 8252 8248 8252 8250 8249 8249 8246 8246 8248 8248 8251 8252 8253 
8264 8253 8254 8255 8256 8258 8251 8249 8251 8244 8207 8175 8177 8174 8187 8205 8165 8154 8145 8145 8146 8152 8159 8162 8161 8163 8160 8149 8147 8144 8131 8130 8135 8136 8142 8142 8143 8142 8140 8136 8135 8135 8140 8148 8161 8181 8223 8221 8206 8193 8189 8189 8219 8243 8244 8244 8247 8246 8247 8249 8250 8247 8252 8249 8249 8249 8251 8254 8249 8251 8250 8248 8245 8242 8244 8246 8247 8251 8254 8252 
8263 8251 8248 8252 8251 8254 8249 8252 8245 8245 8231 8179 8173 8172 8181 8188 8175 8168 8154 8153 8151 8165 8163 8169 8170 8160 8166 8155 8151 8152 8145 8133 8127 8127 8135 8123 8135 8137 8134 8131 8129 8130 8138 8148 8157 8164 8216 8217 8199 8186 8185 8186 8183 8216 8239 8241 8245 8246 8246 8241 8245 8246 8248 8248 8246 8246 8248 8245 8246 8249 8248 8248 8242 8241 8244 8245 8241 8248 8250 8245 
8259 8255 8252 8249 8248 8247 8242 8244 8226 8205 8213 8193 8173 8170 8165 8197 8179 8161 8157 8165 8160 8166 8169 8171 8169 8163 8162 8165 8164 8163 8152 8138 8132 8133 8135 8126 8127 8135 8131 8131 8129 8124 8129 8131 8145 8154 8156 8145 8142 8141 8151 8176 8187 8192 8226 8238 8242 8245 8244 8243 8243 8246 8247 8250 8246 8246 8246 8244 8246 8246 8246 8248 8240 8239 8239 8243 8239 8245 8247 8245 
8255 8254 8251 8255 8252 8250 8232 8204 8153 8154 8165 8183 8172 8166 8157 8170 8159 8155 8161 8163 8164 8169 8171 8171 8167 8170 8170 8169 8166 8168 8160 8139 8135 8136 8135 8131 8135 8151 8156 8154 8149 8130 8127 8133 8136 8149 8133 8145 8143 8135 8137 8152 8180 8200 8206 8234 8241 8243 8240 8241 8243 8244 8248 8245 8247 8246 8243 8246 8244 8245 8243 8244 8240 8236 8236 8240 8237 8243 8245 8240 
8254 8253 8252 8254 8250 8247 8212 8149 8141 8163 8201 8226 8194 8169 8168 8163 8156 8152 8153 8165 8163 8168 8170 8173 8165 8169 8169 8168 8166 8170 8163 8133 8131 8134 8137 8130 8130 8144 8150 8157 8208 8170 8131 8132 8138 8141 8134 8144 8140 8144 8138 8144 8156 8200 8214 8223 8239 8241 8241 8239 8241 8244 8245 8246 8244 8246 8243 8246 8240 8239 8238 8239 8237 8234 8234 8239 8237 8243 8244 8242 
8255 8254 8249 8254 8249 8243 8191 8146 8160 8202 8234 8239 8223 8175 8168 8161 8154 8148 8154 8154 8158 8168 8165 8156 8155 8161 8169 8167 8167 8165 8174 8149 8133 8133 8135 8120 8135 8148 8144 8152 8209 8219 8164 8134 8138 8142 8144 8140 8147 8191 8153 8146 8146 8164 8218 8221 8235 8239 8238 8237 8240 8239 8243 8244 8244 8242 8242 8242 8240 8237 8237 8238 8234 8235 8232 8235 8235 8241 8241 8239 
8254 8242 8249 8253 8249 8236 8166 8158 8189 8228 8240 8237 8237 8194 8164 8155 8148 8150 8151 8153 8169 8171 8170 8155 8157 8161 8166 8168 8169 8174 8204 8157 8133 8130 8129 8123 8142 8153 8149 8146 8174 8222 8192 8139 8141 8150 8169 8150 8149 8177 8155 8148 8144 8153 8198 8226 8232 8239 8240 8236 8236 8238 8238 8242 8244 8242 8242 8246 8237 8237 8238 8238 8235 8231 8231 8231 8228 8233 8237 8233 
8248 8242 8244 8252 8246 8223 8165 8168 8218 8235 8234 8239 8237 8217 8169 8147 8145 8156 8160 8161 8171 8169 8167 8156 8148 8151 8165 8171 8184 8197 8206 8155 8134 8133 8132 8131 8149 8154 8157 8159 8158 8190 8201 8144 8148 8173 8204 8151 8150 8152 8151 8148 8143 8151 8190 8228 8228 8238 8236 8236 8237 8233 8237 8240 8241 8241 8240 8242 8235 8229 8229 8236 8232 8233 8229 8232 8226 8228 8237 8233 
8246 8244 8241 8250 8244 8213 8170 8198 8233 8235 8237 8238 8234 8230 8186 8156 8154 8157 8161 8165 8172 8169 8159 8151 8145 8156 8166 8180 8195 8214 8200 8152 8139 8142 8187 8168 8154 8159 8190 8215 8202 8167 8172 8152 8155 8207 8225 8168 8151 8154 8148 8150 8145 8156 8189 8229 8223 8232 8236 8237 8237 8234 8238 8239 8240 8239 8237 8238 8233 8234 8230 8231 8229 8229 8229 8233 8231 8229 8237 8238 
8247 8244 8246 8246 8238 8192 8186 8226 8235 8236 8235 8236 8238 8235 8214 8166 8161 8160 8168 8160 8167 8168 8161 8154 8153 8157 8160 8165 8178 8175 8141 8131 8140 8151 8191 8181 8174 8170 8217 8225 8225 8217 8181 8163 8207 8225 8227 8189 8155 8157 8155 8158 8155 8157 8209 8231 8228 8224 8238 8238 8238 8235 8236 8237 8241 8239 8236 8229 8229 8231 8229 8231 8229 8229 8231 8234 8232 8229 8236 8236 
8245 8240 8242 8246 8220 8187 8206 8231 8235 8237 8238 8241 8237 8231 8226 8175 8159 8164 8165 8163 8165 8174 8170 8164 8158 8156 8148 8143 8140 8142 8128 8131 8134 8146 8173 8172 8170 8187 8219 8222 8227 8226 8223 8202 8190 8219 8226 8208 8161 8161 8160 8167 8176 8179 8226 8235 8235 8228 8235 8235 8237 8234 8237 8236 8239 8240 8237 8232 8232 8232 8233 8231 8228 8228 8236 8240 8232 8245 8248 8244 
8243 8240 8241 8245 8200 8190 8227 8235 8236 8234 8239 8235 8225 8190 8185 8172 8167 8164 8166 8168 8171 8177 8177 8175 8170 8158 8149 8148 8139 8141 8140 8138 8129 8130 8136 8143 8153 8153 8199 8222 8225 8226 8227 8226 8198 8209 8226 8205 8161 8159 8160 8170 8182 8212 8234 8235 8237 8233 8236 8234 8234 8231 8237 8237 8240 8238 8238 8232 8229 8232 8232 8236 8232 8230 8238 8233 8242 8250 8249 8243 
8240 8240 8240 8235 8195 8207 8232 8238 8240 8232 8235 8226 8181 8155 8159 8155 8159 8161 8166 8171 8174 8177 8179 8179 8174 8161 8159 8154 8150 8149 8151 8153 8149 8142 8137 8140 8150 8151 8185 8220 8224 8224 8225 8227 8226 8225 8227 8192 8166 8166 8164 8168 8200 8232 8237 8233 8238 8231 8235 8231 8233 8232 8235 8235 8234 8236 8237 8236 8231 8229 8230 8236 8232 8240 8238 8233 8245 8246 8248 8243 
8245 8238 8237 8230 8188 8213 8234 8235 8239 8235 8228 8201 8158 8158 8157 8155 8164 8160 8169 8175 8172 8178 8178 8179 8171 8182 8173 8167 8171 8159 8149 8175 8205 8189 8173 8156 8150 8147 8201 8220 8222 8223 8220 8230 8231 8227 8223 8183 8170 8170 8177 8212 8228 8232 8230 8231 8233 8232 8233 8234 8231 8232 8233 8234 8236 8232 8232 8229 8234 8227 8232 8238 8237 8233 8233 8237 8241 8246 8248 8249 
8250 8246 8245 8233 8194 8224 8233 8235 8237 8233 8220 8168 8157 8162 8158 8160 8165 8161 8168 8169 8172 8176 8175 8183 8184 8160 8165 8157 8154 8160 8170 8180 8182 8202 8211 8208 8192 8175 8215 8217 8219 8218 8218 8224 8228 8229 8216 8176 8173 8197 8218 8229 8232 8234 8230 8228 8234 8232 8234 8230 8234 8233 8230 8234 8234 8230 8231 8230 8233 8234 8234 8233 8223 8229 8237 8240 8238 8243 8246 8245 
8255 8243 8246 8238 8195 8234 8237 8235 8237 8232 8217 8170 8167 8166 8159 8163 8176 8180 8175 8171 8171 8173 8170 8193 8191 8155 8160 8153 8159 8162 8174 8194 8176 8184 8189 8190 8187 8191 8194 8201 8199 8203 8205 8212 8220 8214 8186 8179 8213 8235 8231 8231 8230 8233 8230 8230 8232 8234 8231 8228 8234 8234 8234 8232 8235 8233 8231 8234 8232 8236 8236 8235 8223 8238 8241 8237 8239 8248 8248 8240 
8253 8243 8246 8246 8229 8240 8240 8240 8238 8233 8217 8176 8176 8164 8167 8185 8215 8200 8178 8175 8175 8176 8168 8170 8166 8167 8165 8157 8154 8172 8188 8188 8184 8183 8195 8195 8193 8199 8198 8204 8205 8209 8211 8218 8221 8214 8195 8212 8231 8237 8235 8233 8231 8232 8230 8227 8233 8231 8232 8229 8233 8232 8235 8233 8233 8228 8235 8236 8236 8239 8237 8235 8225 8240 8238 8237 8245 8246 8243 8242 
8253 8245 8246 8249 8241 8246 8243 8242 8237 8233 8223 8190 8175 8168 8187 8220 8213 8190 8181 8170 8171 8173 8174 8172 8179 8180 8174 8156 8151 8175 8192 8187 8190 8188 8195 8197 8197 8199 8201 8212 8212 8214 8217 8228 8242 8248 8244 8229 8235 8233 8233 8232 8230 8234 8231 8230 8233 8231 8230 8231 8232 8236 8232 8232 8236 8234 8236 8234 8233 8237 8238 8234 8229 8238 8242 8243 8243 8242 8246 8243 
8252 8246 8245 8247 8247 8247 8247 8239 8238 8228 8231 8222 8188 8192 8224 8220 8208 8184 8186 8181 8176 8178 8173 8175 8182 8186 8187 8169 8163 8166 8179 8195 8203 8201 8203 8206 8202 8204 8198 8211 8213 8213 8225 8232 8237 8249 8242 8234 8234 8232 8228 8230 8231 8232 8231 8229 8229 8232 8231 8231 8232 8233 8233 8233 8236 8237 8234 8233 8231 8231 8232 8234 8234 8243 8241 8247 8241 8244 8248 8244 
8251 8244 8246 8246 8249 8247 8242 8241 8239 8235 8237 8235 8208 8224 8234 8234 8224 8195 8188 8189 8190 8197 8197 8200 8198 8197 8197 8198 8196 8195 8201 8217 8224 8224 8223 8220 8214 8205 8207 8212 8215 8220 8225 8231 8238 8242 8236 8228 8234 8230 8229 8229 8229 8231 8231 8227 8231 8231 8232 8231 8229 8229 8232 8234 8236 8235 8237 8234 8236 8236 8234 8237 8236 8243 8244 8245 8245 8250 8246 8246 
8250 8244 8243 8248 8248 8251 8245 8243 8239 8238 8239 8231 8231 8231 8231 8229 8223 8204 8191 8192 8194 8199 8203 8213 8209 8204 8205 8203 8202 8201 8204 8211 8215 8214 8209 8215 8210 8210 8212 8216 8221 8226 8234 8241 8248 8245 8236 8227 8229 8231 8227 8229 8231 8230 8230 8229 8230 8233 8233 8229 8229 8228 8231 8234 8237 8233 8239 8237 8235 8232 8231 8239 8235 8238 8243 8246 8246 8248 8249 8241 
8246 8246 8253 8249 8248 8248 8248 8245 8241 8240 8242 8238 8236 8236 8235 8227 8225 8212 8197 8192 8196 8204 8213 8222 8217 8210 8207 8208 8212 8208 8207 8206 8209 8204 8212 8221 8220 8218 8219 8222 8231 8241 8242 8241 8230 8221 8223 8232 8226 8229 8227 8229 8234 8229 8227 8228 8230 8228 8228 8225 8229 8228 8232 8233 8236 8235 8232 8238 8235 8234 8228 8231 8228 8241 8245 8244 8243 8239 8246 8246 
8244 8242 8251 8246 8246 8254 8247 8245 8243 8242 8236 8240 8234 8235 8232 8231 8225 8227 8219 8193 8189 8200 8206 8216 8210 8207 8205 8207 8215 8213 8204 8206 8209 8205 8212 8218 8214 8207 8214 8216 8220 8242 8245 8240 8226 8221 8221 8228 8229 8228 8227 8232 8230 8231 8230 8229 8232 8229 8227 8227 8229 8230 8232 8234 8235 8233 8235 8231 8231 8232 8236 8230 8228 8244 8243 8247 8244 8237 8248 8244 
8241 8236 8248 8242 8246 8252 8246 8247 8246 8239 8240 8237 8240 8236 8239 8232 8230 8233 8230 8197 8187 8191 8192 8205 8200 8202 8199 8199 8198 8200 8199 8200 8201 8202 8203 8210 8211 8209 8204 8216 8220 8231 8237 8240 8230 8226 8223 8229 8227 8229 8230 8230 8228 8231 8231 8229 8232 8229 8230 8229 8228 8231 8233 8239 8237 8236 8233 8228 8233 8234 8238 8237 8230 8241 8242 8248 8250 8253 8251 8253 
8239 8234 8242 8239 8245 8255 8241 8245 8243 8242 8242 8236 8238 8238 8236 8234 8231 8235 8229 8204 8190 8190 8195 8208 8201 8201 8199 8204 8211 8212 8215 8216 8222 8219 8214 8214 8217 8217 8217 8218 8224 8229 8232 8238 8234 8229 8222 8225 8226 8230 8225 8225 8224 8231 8230 8229 8228 8228 8228 8229 8233 8231 8233 8236 8237 8233 8233 8228 8232 8234 8234 8238 8237 8235 8246 8247 8253 8255 8254 8251 
8240 8238 8239 8239 8243 8248 8242 8239 8239 8240 8237 8237 8239 8239 8236 8234 8231 8227 8227 8208 8192 8195 8199 8205 8203 8205 8207 8207 8215 8226 8222 8224 8223 8219 8211 8216 8218 8221 8222 8223 8228 8231 8231 8240 8235 8228 8225 8227 8224 8227 8223 8226 8227 8228 8230 8225 8231 8230 8231 8231 8234 8233 8233 8234 8236 8236 8233 8225 8230 8235 8234 8236 8238 8239 8246 8246 8249 8251 8249 8250 
8240 8244 8240 8237 8244 8248 8241 8240 8237 8238 8238 8237 8239 8240 8237 8237 8235 8234 8232 8222 8204 8204 8200 8202 8214 8212 8209 8210 8213 8220 8221 8220 8220 8217 8214 8219 8225 8222 8225 8226 8229 8230 8233 8240 8235 8229 8225 8228 8225 8226 8225 8225 8223 8228 8227 8226 8229 8230 8230 8232 8233 8233 8235 8237 8237 8235 8232 8234 8233 8235 8232 8235 8239 8240 8241 8247 8249 8245 8251 8256 
8242 8238 8237 8240 8245 8248 8241 8240 8238 8240 8235 8239 8243 8242 8242 8241 8236 8235 8235 8228 8208 8211 8203 8202 8209 8218 8211 8217 8213 8215 8215 8218 8217 8216 8222 8225 8228 8224 8225 8223 8232 8232 8236 8245 8237 8231 8226 8228 8223 8225 8222 8225 8224 8226 8226 8228 8230 8226 8229 8233 8233 8232 8232 8236 8234 8237 8235 8234 8236 8236 8234 8233 8241 8241 8240 8241 8247 8242 8247 8246 
8246 8242 8240 8242 8249 8249 8246 8241 8237 8236 8240 8239 8236 8242 8241 8241 8237 8233 8235 8231 8216 8208 8205 8212 8210 8216 8213 8214 8216 8218 8219 8218 8221 8221 8223 8230 8225 8227 8225 8227 8236 8236 8233 8239 8237 8226 8225 8227 8223 8223 8224 8225 8226 8223 8222 8227 8227 8230 8229 8228 8230 8234 8233 8233 8232 8233 8233 8231 8232 8234 8234 8231 8237 8241 8240 8241 8247 8244 8250 8248 
8262 8258 8251 8254 8246 8250 8244 8244 8247 8241 8241 8239 8235 8238 8235 8238 8237 8236 8237 8235 8227 8215 8207 8216 8214 8218 8218 8216 8220 8219 8219 8222 8224 8227 8225 8228 8228 8227 8230 8230 8237 8239 8237 8239 8234 8217 8216 8220 8218 8222 8225 8220 8221 8223 8222 8221 8222 8228 8228 8225 8227 8231 8227 8230 8230 8232 8232 8226 8238 8234 8232 8239 8236 8237 8247 8249 8246 8245 8250 8248 
8290 8280 8280 8273 8255 8252 8251 8246 8255 8267 8252 8247 8247 8237 8242 8241 8238 8234 8237 8236 8235 8223 8220 8217 8219 8219 8222 8219 8222 8222 8229 8225 8234 8228 8233 8234 8239 8239 8238 8242 8244 8243 8237 8240 8232 8221 8222 8219 8217 8224 8218 8222 8222 8225 8221 8219 8223 8229 8227 8224 8229 8229 8231 8234 8229 8235 8232 8228 8236 8231 8236 8237 8243 8242 8249 8252 8248 8246 8250 8253 
8271 8257 8268 8259 8252 8258 8258 8251 8267 8265 8265 8263 8261 8248 8248 8250 8253 8249 8249 8237 8232 8233 8226 8220 8217 8215 8226 8227 8223 8231 8235 8231 8240 8230 8238 8239 8245 8248 8249 8251 8251 8243 8238 8238 8229 8225 8221 8228 8213 8217 8215 8223 8224 8222 8216 8212 8218 8225 8224 8220 8229 8229 8233 8232 8231 8228 8231 8230 8235 8235 8237 8245 8249 8249 8247 8253 8252 8253 8256 8258 
8295 8274 8277 8261 8265 8270 8287 8274 8273 8277 8283 8284 8263 8254 8254 8260 8271 8265 8255 8238 8232 8223 8222 8224 8208 8215 8215 8218 8230 8237 8240 8235 8237 8234 8238 8238 8239 8241 8241 8247 8247 8241 8238 8236 8232 8225 8231 8226 8212 8216 8215 8221 8216 8221 8201 8209 8219 8215 8211 8214 8229 8227 8229 8231 8232 8225 8237 8236 8242 8245 8246 8254 8261 8265 8262 8255 8256 8259 8271 8262 
8312 8302 8273 8274 8290 8327 8315 8303 8277 8281 8324 8332 8297 8284 8279 8287 8316 8298 8278 8251 8244 8225 8220 8220 8205 8222 8221 8219 8228 8232 8225 8238 8236 8231 8236 8231 8234 8239 8240 8243 8243 8239 8235 8232 8231 8224 8224 8217 8209 8213 8213 8214 8219 8222 8219 8210 8222 8228 8210 8224 8232 8234 8223 8224 8228 8231 8235 8249 8254 8247 8265 8266 8264 8265 8269 8274 8272 8268 8274 8270 
8316 8290 8301 8337 8349 8362 8344 8358 8357 8361 8358 8359 8348 8354 8362 8346 8344 8337 8322 8309 8266 8242 8221 8214 8213 8212 8217 8214 8219 8219 8219 8229 8228 8224 8229 8230 8238 8238 8236 8238 8242 8236 8231 8234 8225 8225 8228 8214 8201 8207 8208 8212 8206 8216 8218 8210 8218 8224 8228 8222 8237 8237 8231 8223 8234 8240 8235 8238 8256 8256 8254 8277 8282 8279 8268 8274 8271 8275 8280 8273 
8298 8309 8341 8363 8360 8348 8346 8360 8373 8373 8349 8347 8346 8363 8383 8363 8343 8342 8334 8339 8327 8268 8248 8239 8229 8214 8222 8218 8214 8212 8215 8214 8218 8215 8227 8228 8236 8234 8235 8232 8233 8230 8224 8233 8228 8230 8225 8215 8211 8216 8215 8217 8206 8211 8215 8209 8211 8214 8221 8219 8228 8234 8234 8227 8240 8246 8242 8251 8260 8261 8259 8267 8278 8284 8282 8269 8271 8275 8283 8277 
8329 8358 8363 8363 8358 8363 8371 8382 8368 8369 8364 8365 8384 8393 8379 8369 8355 8349 8355 8386 8375 8304 8267 8259 8253 8241 8245 8242 8238 8236 8233 8227 8230 8225 8231 8233 8239 8241 8231 8229 8228 8231 8231 8234 8235 8236 8213 8218 8213 8215 8217 8220 8212 8215 8219 8217 8218 8216 8221 8225 8227 8233 8231 8230 8236 8235 8244 8244 8258 8276 8282 8275 8274 8284 8280 8279 8271 8281 8283 8283 
8370 8373 8363 8350 8343 8356 8398 8393 8342 8338 8334 8335 8390 8391 8364 8341 8330 8329 8341 8392 8382 8325 8290 8274 8259 8229 8250 8250 8254 8237 8232 8235 8240 8228 8233 8232 8244 8241 8234 8231 8233 8240 8239 8241 8234 8233 8208 8214 8218 8215 8217 8218 8216 8217 8219 8219 8221 8223 8230 8229 8230 8233 8240 8247 8251 8255 8261 8271 8272 8275 8291 8299 8297 8299 8305 8289 8287 8278 8285 8286 
8373 8376 8379 8384 8379 8390 8401 8390 8384 8393 8399 8385 8389 8388 8373 8356 8357 8378 8390 8395 8395 8363 8298 8277 8260 8234 8238 8256 8256 8258 8247 8241 8251 8233 8234 8245 8249 8243 8239 8242 8235 8245 8242 8240 8240 8217 8209 8215 8223 8223 8221 8225 8216 8218 8228 8229 8230 8232 8235 8235 8237 8233 8255 8265 8263 8285 8296 8319 8314 8306 8330 8332 8321 8314 8319 8330 8327 8287 8289 8287 
8376 8372 8375 8381 8401 8386 8370 8362 8368 8377 8398 8388 8369 8366 8358 8351 8349 8383 8393 8368 8349 8346 8317 8300 8277 8250 8258 8255 8253 8254 8250 8256 8254 8247 8233 8244 8249 8243 8239 8243 8249 8246 8247 8249 8218 8207 8217 8233 8238 8238 8244 8261 8262 8255 8270 8279 8283 8272 8280 8277 8258 8259 8279 8278 8288 8290 8312 8329 8336 8331 8330 8349 8361 8353 8334 8339 8320 8280 8288 8287 
8388 8385 8385 8404 8402 8386 8377 8388 8393 8395 8400 8377 8358 8359 8355 8350 8362 8391 8393 8368 8361 8357 8350 8357 8332 8289 8273 8262 8252 8249 8260 8250 8247 8245 8235 8247 8250 8250 8254 8269 8283 8304 8310 8263 8217 8213 8241 8266 8278 8277 8294 8306 8306 8292 8298 8305 8303 8288 8280 8262 8268 8269 8276 8289 8302 8304 8309 8345 8359 8361 8335 8343 8337 8331 8335 8323 8312 8275 8285 8282 
8410 8402 8400 8386 8367 8362 8362 8391 8401 8389 8366 8354 8339 8339 8343 8358 8371 8369 8353 8349 8346 8343 8344 8369 8374 8348 8317 8290 8266 8260 8267 8278 8270 8255 8244 8251 8261 8273 8299 8328 8356 8352 8331 8273 8219 8214 8235 8250 8262 8264 8280 8305 8303 8298 8298 8315 8319 8300 8280 8269 8270 8280 8269 8291 8300 8304 8303 8312 8328 8326 8315 8314 8326 8343 8333 8315 8280 8276 8284 8285 


