P2
80 60
8283
8243 8246 8250 8252 8251 8254 8251 8249 8249 8250 8255 8258 8256 8254 8256 8253 8256 8256 8256 8255 8259 8261 8262 8262 8260 8256 8253 8254 8255 8256 8257 8259 8256 8258 8258 8251 8259 8259 8259 8260 8257 8262 8260 8261 8263 8260 8259 8260 8257 8251 8251 8251 8251 8251 8246 8248 8249 8250 8252 8256 8256 8251 8255 8257 8258 8259 8262 8261 8265 8262 8260 8268 8267 8272 8271 8267 8271 8268 8270 8266 
8237 8250 8250 8251 8257 8256 8249 8252 8251 8253 8252 8255 8256 8254 8251 8252 8254 8255 8256 8256 8262 8265 8259 8258 8260 8257 8251 8257 8259 8258 8257 8259 8255 8258 8256 8256 8255 8259 8259 8262 8261 8264 8257 8260 8262 8257 8264 8261 8257 8257 8248 8251 8247 8252 8248 8252 8248 8252 8254 8255 8256 8253 8254 8255 8255 8255 8261 8260 8262 8265 8265 8264 8272 8272 8273 8266 8271 8265 8262 8265 
8235 8242 8247 8247 8252 8247 8249 8250 8251 8250 8255 8251 8251 8253 8255 8252 8252 8254 8252 8257 8256 8262 8261 8254 8259 8261 8255 8255 8256 8254 8256 8253 8253 8258 8259 8255 8255 8258 8260 8261 8260 8259 8258 8261 8259 8261 8261 8256 8258 8253 8253 8252 8251 8250 8250 8251 8249 8250 8253 8252 8257 8255 8255 8254 8257 8259 8260 8258 8265 8263 8261 8264 8265 8271 8269 8269 8269 8268 8266 8268 
8236 8238 8250 8249 8250 8249 8248 8250 8250 8252 8249 8246 8251 8253 8252 8252 8254 8256 8251 8259 8258 8254 8247 8258 8259 8255 8257 8258 8255 8256 8253 8258 8256 8254 8261 8255 8261 8258 8261 8263 8260 8262 8260 8259 8258 8255 8259 8260 8257 8253 8250 8255 8250 8252 8255 8251 8252 8252 8254 8254 8259 8261 8255 8256 8254 8254 8255 8259 8264 8262 8259 8261 8264 8267 8263 8263 8270 8267 8264 8264 
8238 8239 8249 8248 8245 8250 8249 8247 8247 8249 8248 8242 8249 8248 8246 8252 8251 8252 8255 8255 8256 8257 8249 8253 8255 8255 8253 8254 8255 8255 8252 8257 8253 8254 8257 8256 8258 8256 8261 8259 8259 8261 8257 8255 8257 8254 8256 8255 8255 8251 8253 8251 8249 8254 8253 8253 8254 8250 8255 8255 8255 8258 8255 8258 8255 8254 8258 8256 8260 8264 8260 8264 8262 8265 8260 8261 8263 8263 8262 8263 
8233 8245 8246 8244 8247 8247 8255 8253 8248 8249 8242 8249 8251 8246 8246 8247 8250 8249 8255 8256 8255 8254 8258 8255 8258 8258 8254 8253 8252 8253 8260 8257 8254 8250 8254 8254 8259 8261 8263 8260 8257 8261 8261 8257 8257 8254 8257 8254 8253 8255 8251 8248 8252 8251 8250 8256 8250 8253 8255 8256 8258 8258 8255 8253 8252 8254 8253 8254 8256 8262 8261 8258 8261 8264 8258 8260 8258 8261 8262 8259 
8237 8244 8245 8245 8250 8252 8254 8253 8247 8238 8238 8248 8251 8246 8245 8252 8249 8249 8249 8256 8255 8257 8254 8257 8261 8257 8247 8249 8253 8254 8259 8259 8255 8255 8255 8255 8260 8259 8264 8263 8261 8258 8262 8259 8260 8253 8258 8256 8253 8251 8251 8249 8251 8251 8250 8254 8249 8253 8254 8254 8256 8255 8254 8255 8254 8257 8257 8256 8256 8258 8259 8258 8258 8260 8260 8259 8259 8255 8261 8259 
8240 8249 8244 8247 8246 8249 8251 8256 8252 8236 8246 8252 8249 8244 8248 8250 8245 8250 8254 8255 8261 8259 8256 8257 8258 8256 8251 8251 8255 8255 8257 8256 8259 8254 8256 8257 8257 8256 8258 8261 8260 8260 8259 8260 8261 8256 8259 8253 8252 8251 8248 8246 8248 8249 8249 8252 8247 8251 8251 8252 8255 8255 8253 8255 8251 8259 8262 8257 8258 8257 8255 8259 8259 8260 8261 8259 8259 8259 8255 8255 
8239 8247 8244 8245 8252 8246 8258 8251 8252 8238 8243 8247 8247 8245 8244 8248 8246 8256 8255 8257 8255 8253 8253 8254 8251 8255 8249 8254 8254 8253 8258 8254 8251 8255 8259 8258 8259 8258 8259 8261 8260 8261 8258 8257 8259 8259 8255 8256 8254 8246 8246 8248 8250 8251 8248 8251 8250 8248 8252 8252 8255 8252 8256 8253 8254 8254 8258 8258 8258 8258 8253 8253 8256 8258 8258 8256 8259 8258 8259 8256 
8237 8242 8245 8250 8249 8252 8248 8254 8250 8248 8246 8246 8246 8246 8246 8247 8248 8251 8253 8256 8256 8254 8253 8253 8251 8253 8251 8252 8253 8254 8249 8252 8249 8252 8259 8257 8259 8260 8258 8258 8260 8261 8260 8254 8255 8257 8256 8253 8251 8249 8245 8245 8247 8247 8245 8247 8249 8248 8254 8254 8253 8256 8255 8252 8252 8252 8257 8255 8257 8255 8255 8253 8253 8255 8257 8255 8259 8258 8257 8258 
8241 8245 8248 8245 8248 8250 8243 8250 8249 8247 8248 8246 8245 8247 8243 8246 8246 8250 8249 8254 8259 8256 8254 8255 8250 8251 8252 8252 8255 8256 8252 8251 8247 8254 8256 8251 8254 8254 8259 8255 8254 8258 8256 8258 8256 8254 8257 8250 8250 8245 8246 8248 8247 8245 8245 8246 8249 8248 8252 8252 8253 8252 8252 8253 8251 8254 8256 8255 8255 8257 8254 8250 8250 8255 8250 8249 8255 8256 8256 8254 
8237 8249 8246 8244 8242 8250 8244 8249 8250 8245 8249 8245 8245 8245 8242 8247 8249 8248 8250 8253 8259 8253 8254 8253 8255 8253 8248 8253 8252 8255 8254 8251 8249 8251 8254 8251 8253 8257 8257 8255 8254 8256 8260 8259 8261 8255 8260 8257 8252 8249 8248 8247 8251 8246 8245 8247 8244 8242 8252 8251 8252 8252 8255 8250 8253 8252 8255 8257 8255 8254 8253 8252 8250 8253 8251 8250 8256 8254 8255 8250 
8240 8253 8246 8244 8244 8247 8243 8239 8243 8245 8247 8247 8246 8244 8244 8250 8248 8249 8252 8250 8255 8254 8253 8250 8252 8249 8248 8252 8252 8250 8254 8248 8251 8251 8250 8248 8255 8256 8254 8253 8252 8256 8260 8263 8259 8252 8256 8251 8251 8248 8248 8249 8249 8247 8247 8246 8247 8246 8250 8249 8249 8249 8252 8255 8254 8252 8254 8252 8251 8252 8250 8250 8246 8249 8251 8250 8256 8255 8253 8253 
8244 8256 8250 8248 8247 8251 8248 8245 8241 8245 8251 8248 8245 8244 8248 8250 8249 8248 8251 8254 8253 8252 8252 8251 8251 8252 8250 8249 8250 8254 8254 8247 8251 8249 8252 8254 8254 8254 8254 8255 8252 8255 8261 8260 8258 8251 8255 8252 8251 8248 8248 8248 8251 8247 8246 8245 8250 8245 8252 8250 8251 8250 8252 8252 8255 8252 8254 8251 8254 8251 8251 8250 8249 8253 8251 8253 8253 8254 8253 8249 
8244 8246 8249 8251 8251 8247 8246 8250 8246 8245 8249 8250 8248 8245 8249 8250 8252 8250 8253 8254 8250 8251 8251 8251 8252 8250 8248 8250 8251 8253 8249 8243 8250 8247 8253 8253 8254 8255 8254 8254 8251 8253 8253 8256 8257 8251 8254 8247 8246 8247 8249 8251 8248 8247 8248 8246 8248 8248 8252 8249 8250 8247 8248 8252 8251 8258 8256 8254 8251 8250 8250 8252 8249 8250 8249 8251 8255 8253 8253 8252 
8241 8238 8247 8248 8247 8247 8243 8245 8248 8252 8251 8249 8246 8245 8247 8249 8250 8249 8252 8251 8251 8252 8253 8249 8251 8252 8253 8249 8249 8253 8251 8249 8250 8250 8251 8251 8255 8255 8252 8252 8250 8253 8255 8255 8255 8251 8254 8250 8245 8243 8247 8247 8250 8246 8244 8246 8248 8249 8249 8249 8247 8248 8247 8252 8253 8254 8252 8250 8249 8249 8251 8253 8249 8250 8249 8252 8254 8254 8252 8251 
8241 8239 8248 8247 8246 8244 8245 8248 8244 8245 8251 8252 8246 8241 8243 8249 8251 8251 8253 8249 8253 8258 8253 8248 8248 8251 8251 8252 8247 8250 8250 8250 8248 8254 8253 8253 8257 8256 8254 8254 8253 8252 8253 8257 8256 8250 8249 8246 8243 8246 8246 8246 8248 8245 8245 8245 8244 8245 8247 8251 8248 8248 8249 8249 8253 8255 8252 8250 8251 8250 8251 8253 8247 8248 8248 8251 8253 8254 8252 8248 
8243 8245 8247 8247 8247 8249 8245 8252 8246 8248 8252 8252 8247 8248 8248 8248 8249 8248 8254 8252 8255 8255 8255 8249 8250 8255 8253 8252 8249 8249 8247 8249 8254 8251 8256 8255 8259 8255 8255 8258 8251 8253 8255 8255 8258 8250 8253 8246 8248 8246 8244 8247 8244 8244 8243 8245 8245 8242 8244 8249 8248 8249 8249 8252 8249 8253 8251 8251 8249 8248 8252 8252 8252 8252 8253 8250 8255 8249 8252 8250 
8241 8244 8249 8249 8247 8252 8254 8249 8253 8246 8250 8249 8248 8246 8246 8252 8247 8250 8250 8247 8249 8252 8254 8248 8250 8252 8250 8252 8247 8248 8249 8250 8250 8250 8255 8254 8253 8253 8255 8257 8253 8252 8254 8256 8256 8251 8251 8250 8246 8244 8246 8247 8244 8241 8243 8244 8240 8243 8246 8248 8245 8247 8248 8251 8252 8251 8252 8248 8252 8250 8252 8251 8249 8253 8252 8250 8252 8254 8250 8251 
8243 8245 8249 8248 8242 8253 8251 8253 8252 8247 8252 8250 8247 8248 8247 8248 8247 8249 8248 8246 8248 8254 8250 8247 8248 8242 8245 8241 8240 8238 8228 8228 8237 8250 8257 8253 8254 8253 8252 8256 8252 8254 8255 8256 8252 8251 8247 8248 8248 8246 8245 8247 8244 8244 8242 8243 8245 8244 8245 8243 8247 8246 8250 8250 8251 8254 8250 8253 8250 8251 8248 8252 8251 8248 8247 8247 8248 8249 8253 8248 
8243 8249 8244 8240 8241 8244 8241 8252 8249 8247 8247 8250 8245 8244 8240 8247 8247 8244 8245 8249 8248 8254 8247 8223 8208 8204 8205 8206 8208 8211 8206 8220 8242 8242 8249 8252 8250 8250 8248 8248 8249 8251 8254 8252 8253 8252 8248 8248 8245 8243 8241 8244 8245 8244 8245 8244 8244 8247 8246 8246 8244 8249 8248 8252 8248 8252 8251 8252 8251 8251 8249 8251 8249 8251 8248 8248 8250 8248 8250 8246 
8243 8254 8248 8253 8249 8250 8232 8250 8242 8249 8245 8244 8251 8249 8241 8247 8243 8241 8243 8246 8251 8246 8223 8212 8211 8202 8205 8216 8217 8217 8231 8233 8214 8204 8209 8227 8227 8212 8206 8212 8225 8247 8250 8251 8249 8247 8249 8243 8246 8243 8241 8245 8243 8243 8246 8247 8245 8243 8245 8247 8246 8246 8248 8250 8253 8250 8251 8253 8252 8249 8250 8249 8247 8247 8249 8246 8249 8249 8252 8249 
8243 8249 8250 8254 8250 8247 8237 8236 8240 8249 8251 8245 8246 8248 8242 8247 8243 8243 8242 8246 8249 8238 8234 8239 8228 8236 8239 8244 8228 8218 8208 8225 8216 8218 8204 8215 8203 8212 8231 8234 8226 8224 8245 8252 8252 8247 8249 8245 8239 8240 8243 8240 8239 8241 8245 8246 8248 8245 8246 8244 8244 8246 8246 8249 8251 8251 8255 8249 8251 8249 8248 8248 8245 8249 8249 8247 8249 8249 8250 8248 
8242 8255 8251 8251 8250 8249 8247 8238 8245 8250 8254 8249 8249 8245 8248 8248 8246 8242 8248 8247 8252 8251 8251 8249 8248 8247 8245 8222 8222 8234 8236 8224 8231 8231 8205 8202 8219 8240 8248 8249 8246 8250 8253 8256 8253 8249 8248 8241 8243 8242 8245 8242 8242 8241 8245 8247 8247 8244 8246 8245 8244 8246 8249 8247 8253 8252 8253 8252 8252 8248 8247 8249 8247 8246 8246 8246 8252 8248 8250 8250 
8242 8242 8250 8251 8249 8251 8245 8247 8248 8240 8251 8248 8251 8248 8249 8248 8243 8245 8245 8246 8249 8253 8253 8249 8249 8247 8245 8246 8248 8244 8241 8211 8207 8207 8199 8203 8226 8233 8238 8244 8245 8250 8255 8255 8254 8250 8250 8246 8243 8241 8243 8244 8241 8241 8242 8244 8244 8243 8246 8248 8247 8248 8249 8248 8252 8252 8252 8248 8250 8249 8247 8246 8245 8249 8246 8246 8250 8248 8247 8245 
8244 8244 8249 8251 8246 8246 8248 8244 8247 8246 8247 8250 8251 8248 8250 8246 8245 8244 8246 8243 8252 8253 8251 8250 8247 8248 8246 8252 8250 8244 8225 8207 8201 8197 8201 8201 8210 8213 8208 8225 8228 8229 8235 8243 8253 8249 8249 8246 8246 8244 8245 8243 8239 8241 8242 8245 8248 8246 8247 8247 8246 8248 8249 8250 8251 8250 8252 8250 8248 8247 8247 8246 8250 8248 8247 8249 8249 8249 8251 8250 
8242 8249 8247 8251 8245 8248 8246 8242 8247 8246 8247 8249 8245 8249 8247 8248 8243 8246 8246 8244 8249 8252 8254 8249 8247 8246 8251 8254 8247 8226 8236 8240 8217 8207 8204 8208 8231 8237 8240 8237 8229 8215 8216 8224 8249 8248 8248 8246 8246 8243 8240 8244 8241 8242 8243 8246 8243 8247 8249 8249 8245 8248 8249 8249 8251 8251 8251 8246 8249 8246 8246 8248 8247 8248 8246 8250 8254 8252 8250 8250 
8243 8254 8251 8248 8251 8248 8248 8246 8246 8250 8249 8251 8251 8245 8247 8247 8247 8246 8245 8246 8247 8250 8249 8248 8249 8252 8248 8254 8243 8249 8250 8246 8240 8212 8206 8209 8222 8222 8228 8239 8231 8215 8217 8223 8247 8246 8250 8245 8247 8246 8242 8244 8241 8244 8247 8247 8246 8251 8250 8248 8250 8250 8250 8251 8253 8249 8249 8247 8247 8247 8247 8247 8247 8244 8249 8250 8254 8251 8250 8251 
8243 8249 8247 8250 8248 8253 8247 8248 8249 8251 8254 8255 8249 8250 8247 8250 8247 8247 8248 8245 8249 8247 8254 8255 8253 8250 8253 8257 8254 8253 8252 8241 8237 8234 8214 8219 8242 8234 8223 8217 8219 8210 8212 8220 8243 8248 8249 8247 8246 8244 8243 8241 8243 8246 8249 8250 8247 8246 8249 8249 8249 8245 8248 8250 8252 8250 8248 8245 8244 8243 8244 8246 8244 8247 8246 8249 8251 8253 8249 8255 
8241 8245 8248 8251 8251 8253 8253 8249 8253 8247 8249 8251 8249 8248 8247 8249 8246 8245 8248 8243 8250 8250 8251 8255 8251 8253 8251 8255 8255 8253 8246 8248 8247 8245 8219 8207 8221 8212 8201 8197 8198 8199 8200 8206 8231 8242 8248 8247 8246 8245 8244 8244 8246 8247 8248 8249 8245 8247 8249 8249 8247 8246 8247 8250 8249 8247 8248 8243 8244 8242 8246 8247 8242 8246 8249 8250 8249 8253 8250 8251 
8246 8246 8253 8253 8250 8256 8250 8252 8252 8247 8253 8250 8249 8249 8247 8248 8249 8244 8245 8243 8249 8249 8252 8253 8255 8252 8251 8255 8252 8250 8250 8249 8249 8233 8207 8217 8242 8215 8200 8198 8197 8201 8202 8204 8205 8223 8245 8245 8247 8245 8245 8246 8245 8247 8249 8247 8249 8245 8247 8246 8247 8249 8245 8250 8249 8250 8249 8245 8246 8243 8246 8250 8249 8250 8251 8250 8254 8253 8253 8248 
8247 8247 8247 8249 8246 8254 8251 8251 8249 8250 8246 8252 8249 8248 8243 8245 8246 8242 8244 8246 8249 8252 8255 8256 8255 8251 8252 8253 8254 8251 8248 8249 8248 8225 8214 8214 8224 8211 8202 8201 8220 8208 8197 8203 8206 8206 8229 8247 8247 8248 8245 8249 8247 8245 8247 8245 8247 8246 8248 8246 8246 8248 8247 8250 8251 8249 8249 8245 8247 8244 8245 8247 8246 8247 8248 8251 8250 8248 8253 8256 
8251 8250 8251 8249 8250 8253 8249 8250 8251 8247 8250 8249 8247 8247 8244 8249 8247 8245 8244 8243 8249 8252 8252 8253 8254 8253 8256 8254 8255 8253 8249 8246 8246 8245 8224 8222 8224 8230 8225 8213 8235 8211 8198 8203 8204 8203 8225 8237 8247 8247 8245 8243 8244 8245 8249 8244 8248 8245 8246 8246 8248 8248 8247 8248 8250 8248 8250 8246 8246 8247 8247 8249 8248 8246 8249 8249 8254 8251 8252 8254 
8248 8253 8257 8255 8254 8257 8252 8251 8251 8250 8251 8250 8248 8243 8243 8249 8247 8248 8247 8246 8250 8252 8251 8255 8253 8252 8255 8255 8253 8252 8245 8246 8244 8245 8228 8216 8222 8240 8246 8242 8241 8216 8205 8208 8204 8207 8215 8238 8248 8246 8246 8244 8245 8244 8245 8243 8247 8248 8247 8246 8246 8246 8247 8250 8251 8247 8249 8249 8247 8248 8249 8249 8244 8248 8248 8250 8251 8252 8249 8252 
8250 8256 8257 8253 8254 8252 8253 8257 8254 8251 8248 8249 8246 8245 8245 8244 8247 8249 8251 8249 8251 8251 8251 8252 8252 8251 8249 8251 8254 8247 8238 8237 8241 8241 8233 8205 8211 8219 8230 8217 8219 8212 8209 8211 8203 8203 8229 8245 8249 8246 8246 8247 8246 8244 8243 8245 8248 8245 8248 8248 8247 8247 8247 8250 8250 8247 8246 8250 8247 8250 8247 8250 8249 8248 8248 8250 8251 8250 8249 8249 
8256 8259 8259 8257 8250 8255 8256 8253 8253 8251 8247 8252 8250 8247 8248 8249 8248 8249 8250 8246 8254 8254 8248 8243 8238 8230 8225 8226 8225 8214 8205 8219 8229 8218 8207 8201 8208 8203 8204 8207 8204 8205 8208 8214 8206 8204 8239 8248 8252 8246 8244 8245 8246 8246 8244 8246 8247 8247 8249 8245 8248 8248 8246 8251 8250 8247 8248 8246 8246 8246 8248 8252 8249 8251 8251 8252 8254 8251 8248 8248 
8251 8259 8259 8257 8256 8254 8258 8255 8252 8249 8252 8255 8253 8250 8246 8250 8248 8249 8248 8251 8251 8250 8222 8210 8205 8209 8217 8207 8205 8204 8200 8205 8201 8201 8202 8200 8201 8198 8202 8214 8201 8205 8206 8215 8210 8230 8252 8252 8247 8247 8246 8244 8246 8247 8244 8244 8247 8246 8250 8247 8246 8251 8248 8251 8250 8252 8253 8247 8250 8247 8249 8250 8252 8252 8254 8251 8255 8253 8255 8253 
8251 8256 8260 8256 8255 8256 8259 8254 8250 8252 8253 8254 8252 8247 8248 8248 8246 8246 8243 8248 8247 8226 8207 8210 8216 8241 8238 8210 8204 8202 8205 8204 8198 8199 8204 8201 8203 8200 8206 8222 8202 8204 8207 8215 8226 8246 8252 8250 8247 8245 8246 8243 8246 8244 8247 8245 8247 8246 8250 8247 8245 8249 8249 8252 8249 8251 8251 8246 8247 8248 8246 8250 8247 8253 8254 8253 8256 8253 8255 8251 
8254 8260 8256 8258 8258 8261 8257 8255 8251 8257 8254 8252 8249 8247 8244 8246 8244 8244 8245 8246 8234 8207 8211 8240 8245 8246 8239 8207 8204 8203 8213 8203 8209 8208 8204 8202 8199 8199 8210 8213 8212 8212 8206 8215 8226 8247 8251 8248 8247 8247 8247 8245 8245 8246 8246 8249 8249 8249 8249 8247 8246 8248 8247 8250 8249 8250 8250 8248 8248 8249 8249 8248 8249 8253 8256 8252 8256 8253 8249 8251 
8254 8265 8261 8257 8260 8259 8260 8260 8254 8253 8255 8254 8251 8245 8242 8243 8242 8243 8247 8235 8215 8223 8243 8252 8250 8246 8247 8217 8205 8221 8220 8199 8199 8209 8208 8200 8205 8199 8208 8216 8217 8228 8212 8217 8224 8247 8253 8251 8248 8247 8245 8244 8244 8245 8248 8248 8252 8247 8247 8247 8245 8244 8246 8249 8250 8251 8251 8251 8249 8251 8251 8247 8249 8254 8259 8256 8257 8252 8255 8249 
8249 8256 8260 8249 8254 8257 8255 8257 8253 8253 8251 8254 8249 8246 8247 8246 8242 8247 8248 8223 8232 8247 8248 8251 8250 8246 8244 8232 8212 8241 8228 8206 8207 8225 8220 8205 8211 8203 8200 8203 8205 8229 8214 8218 8221 8242 8249 8248 8248 8246 8247 8244 8245 8248 8250 8250 8250 8249 8249 8246 8245 8245 8246 8248 8250 8252 8253 8250 8250 8251 8249 8251 8248 8253 8256 8259 8253 8252 8253 8252 
8250 8255 8257 8250 8251 8255 8250 8255 8254 8254 8251 8252 8252 8249 8252 8245 8246 8248 8246 8229 8241 8241 8237 8236 8231 8227 8221 8219 8216 8218 8214 8206 8210 8216 8219 8208 8206 8202 8200 8200 8203 8213 8213 8218 8220 8230 8239 8242 8244 8249 8247 8248 8246 8250 8251 8251 8252 8248 8249 8249 8249 8248 8249 8251 8251 8253 8251 8248 8253 8250 8251 8250 8250 8254 8256 8255 8256 8254 8254 8258 
8249 8255 8251 8249 8251 8254 8251 8254 8257 8256 8254 8251 8253 8253 8249 8247 8246 8241 8226 8210 8217 8215 8218 8218 8217 8213 8211 8213 8213 8215 8213 8210 8214 8215 8221 8209 8203 8199 8199 8201 8199 8207 8213 8218 8220 8224 8234 8234 8236 8283 8269 8249 8246 8246 8249 8253 8249 8249 8251 8249 8249 8251 8249 8251 8253 8250 8252 8248 8249 8250 8250 8251 8251 8255 8255 8256 8258 8256 8254 8253 
8249 8257 8255 8249 8250 8254 8253 8254 8253 8259 8255 8257 8255 8255 8248 8244 8245 8229 8214 8208 8213 8215 8214 8215 8220 8214 8213 8215 8216 8214 8212 8212 8214 8206 8209 8207 8203 8201 8199 8203 8203 8206 8209 8219 8220 8230 8247 8241 8234 8274 8250 8247 8245 8249 8248 8250 8249 8248 8252 8252 8250 8250 8253 8253 8252 8251 8249 8250 8249 8251 8252 8251 8254 8256 8260 8257 8261 8259 8256 8249 
8253 8263 8257 8250 8251 8253 8257 8254 8251 8255 8255 8253 8255 8254 8248 8246 8249 8243 8218 8212 8213 8213 8213 8214 8215 8215 8212 8213 8217 8214 8214 8213 8213 8200 8207 8202 8199 8200 8200 8209 8211 8207 8207 8221 8219 8232 8245 8229 8224 8229 8238 8243 8244 8246 8247 8251 8248 8245 8248 8252 8249 8252 8253 8252 8253 8252 8248 8250 8251 8250 8252 8257 8254 8256 8256 8255 8257 8256 8256 8254 
8249 8255 8254 8255 8253 8254 8254 8255 8252 8255 8254 8252 8254 8255 8251 8256 8252 8246 8223 8215 8214 8216 8218 8220 8217 8214 8215 8214 8217 8217 8214 8214 8213 8211 8215 8210 8210 8210 8213 8213 8217 8218 8217 8225 8226 8225 8223 8225 8224 8230 8238 8244 8246 8247 8249 8248 8252 8250 8245 8248 8247 8252 8250 8249 8254 8251 8253 8253 8253 8253 8255 8255 8257 8256 8258 8256 8259 8253 8254 8252 
8251 8260 8254 8255 8252 8258 8260 8254 8256 8254 8252 8256 8255 8253 8253 8252 8251 8250 8227 8215 8216 8219 8220 8221 8219 8215 8219 8219 8223 8222 8221 8220 8220 8220 8224 8219 8220 8217 8217 8218 8218 8225 8222 8225 8226 8225 8227 8227 8228 8230 8241 8247 8248 8248 8247 8248 8247 8249 8248 8249 8247 8248 8250 8250 8253 8251 8253 8251 8251 8252 8252 8252 8255 8256 8256 8256 8256 8259 8261 8252 
8252 8258 8256 8257 8254 8259 8260 8261 8263 8261 8259 8260 8255 8255 8252 8256 8256 8255 8234 8219 8219 8220 8222 8224 8220 8219 8218 8221 8224 8226 8222 8222 8219 8226 8226 8225 8220 8221 8219 8222 8225 8227 8227 8228 8229 8225 8227 8227 8235 8236 8248 8246 8248 8248 8250 8247 8248 8247 8250 8249 8247 8249 8250 8253 8252 8252 8252 8253 8252 8254 8254 8257 8255 8259 8261 8259 8261 8258 8257 8258 
8252 8258 8253 8257 8256 8259 8260 8260 8259 8260 8260 8258 8258 8256 8253 8252 8254 8253 8247 8229 8220 8221 8219 8223 8225 8220 8220 8221 8222 8222 8224 8222 8221 8226 8226 8226 8225 8222 8224 8225 8226 8230 8230 8230 8229 8227 8226 8227 8233 8248 8249 8250 8249 8250 8250 8250 8249 8246 8247 8250 8248 8251 8250 8251 8253 8254 8254 8252 8255 8258 8255 8259 8258 8261 8260 8262 8258 8260 8258 8257 
8251 8254 8257 8254 8255 8260 8259 8262 8263 8260 8260 8262 8256 8261 8253 8253 8254 8256 8249 8240 8216 8217 8220 8223 8222 8221 8220 8223 8222 8225 8225 8223 8225 8228 8227 8227 8229 8226 8225 8228 8226 8225 8228 8230 8228 8226 8226 8226 8234 8247 8249 8250 8252 8251 8249 8251 8248 8250 8251 8248 8252 8251 8252 8250 8251 8251 8254 8252 8255 8258 8255 8258 8261 8262 8264 8262 8262 8257 8254 8259 
8247 8252 8251 8251 8255 8254 8262 8259 8258 8257 8260 8258 8260 8260 8255 8255 8254 8257 8253 8240 8217 8215 8218 8220 8220 8215 8219 8221 8222 8222 8226 8221 8223 8224 8225 8227 8226 8225 8226 8226 8225 8227 8226 8227 8225 8226 8228 8227 8240 8248 8251 8251 8252 8249 8249 8251 8251 8245 8249 8251 8255 8251 8252 8249 8251 8254 8252 8255 8262 8263 8258 8255 8260 8265 8262 8260 8264 8257 8255 8253 
8247 8255 8250 8254 8251 8257 8255 8260 8253 8251 8258 8257 8257 8262 8254 8254 8252 8254 8252 8245 8218 8215 8217 8219 8217 8218 8217 8219 8221 8223 8221 8220 8221 8221 8224 8223 8226 8226 8225 8229 8226 8226 8227 8226 8228 8225 8227 8228 8242 8249 8248 8250 8248 8250 8249 8249 8253 8250 8253 8250 8249 8253 8251 8250 8250 8251 8257 8257 8260 8262 8262 8261 8262 8265 8262 8262 8264 8259 8259 8257 
8243 8249 8251 8253 8250 8252 8254 8265 8261 8256 8253 8256 8253 8254 8256 8254 8253 8256 8252 8248 8225 8214 8218 8223 8219 8218 8217 8218 8218 8218 8218 8217 8220 8220 8221 8224 8226 8225 8225 8226 8221 8224 8224 8227 8224 8223 8225 8227 8246 8252 8256 8251 8251 8249 8254 8250 8251 8250 8252 8252 8252 8251 8254 8251 8254 8253 8255 8256 8261 8261 8262 8261 8263 8263 8264 8262 8258 8259 8257 8256 
8227 8233 8238 8243 8243 8246 8248 8257 8248 8250 8253 8253 8251 8257 8258 8258 8252 8255 8252 8247 8228 8216 8214 8222 8218 8218 8217 8217 8217 8218 8213 8216 8217 8219 8223 8222 8225 8223 8223 8224 8220 8225 8223 8225 8224 8223 8224 8230 8246 8251 8250 8251 8248 8250 8250 8252 8251 8250 8251 8251 8252 8253 8255 8254 8255 8252 8256 8256 8262 8262 8263 8264 8265 8265 8261 8260 8259 8257 8255 8257 
8229 8233 8232 8233 8233 8236 8237 8240 8235 8244 8246 8252 8250 8254 8251 8253 8251 8251 8252 8251 8233 8214 8212 8214 8218 8214 8214 8214 8219 8214 8212 8213 8217 8218 8222 8222 8223 8221 8219 8220 8219 8223 8222 8228 8225 8222 8221 8227 8249 8253 8254 8252 8250 8251 8252 8253 8250 8248 8251 8254 8251 8252 8253 8255 8255 8252 8256 8256 8258 8258 8259 8263 8261 8262 8261 8263 8260 8258 8257 8254 
8227 8237 8230 8231 8227 8228 8230 8227 8223 8230 8237 8236 8234 8237 8240 8241 8241 8244 8246 8244 8236 8214 8212 8214 8215 8210 8209 8212 8217 8214 8213 8217 8218 8216 8222 8223 8223 8221 8218 8220 8219 8223 8224 8227 8223 8222 8219 8231 8250 8252 8249 8251 8251 8249 8249 8252 8251 8249 8249 8248 8251 8253 8252 8250 8254 8254 8254 8255 8260 8257 8261 8260 8260 8264 8259 8261 8257 8257 8253 8253 
8229 8235 8231 8227 8227 8223 8227 8226 8224 8225 8230 8229 8229 8231 8230 8223 8227 8233 8235 8233 8236 8217 8216 8215 8214 8211 8208 8212 8215 8213 8216 8213 8215 8214 8219 8219 8222 8216 8219 8216 8216 8223 8220 8224 8223 8220 8221 8224 8239 8248 8249 8248 8248 8247 8249 8252 8253 8248 8248 8249 8251 8251 8251 8252 8253 8255 8258 8259 8259 8257 8259 8260 8260 8260 8261 8259 8257 8253 8254 8250 
8231 8239 8231 8222 8221 8220 8223 8221 8225 8223 8225 8227 8223 8227 8225 8223 8221 8220 8224 8227 8224 8211 8212 8212 8213 8211 8209 8212 8213 8215 8211 8212 8213 8216 8218 8213 8219 8217 8215 8219 8214 8217 8217 8220 8218 8218 8220 8219 8221 8227 8239 8248 8246 8245 8246 8248 8245 8247 8248 8248 8250 8249 8251 8250 8250 8253 8256 8257 8259 8261 8259 8258 8259 8256 8254 8257 8256 8250 8251 8247 
8239 8229 8220 8221 8220 8218 8218 8221 8224 8221 8225 8222 8222 8222 8220 8215 8214 8219 8221 8216 8215 8210 8206 8209 8209 8211 8206 8210 8211 8210 8209 8207 8211 8210 8216 8212 8218 8214 8216 8219 8217 8213 8213 8218 8211 8213 8217 8217 8220 8220 8224 8238 8242 8243 8243 8245 8246 8244 8242 8245 8245 8248 8246 8246 8248 8246 8254 8259 8258 8257 8255 8257 8254 8253 8256 8253 8254 8251 8250 8254 
8245 8231 8222 8219 8219 8216 8217 8219 8222 8219 8222 8223 8220 8218 8216 8213 8209 8216 8216 8209 8204 8205 8201 8210 8205 8205 8202 8201 8208 8206 8201 8204 8206 8206 8207 8204 8202 8204 8206 8211 8208 8205 8205 8210 8209 8212 8215 8217 8220 8220 8225 8229 8234 8236 8235 8233 8234 8233 8231 8230 8232 8228 8234 8234 8241 8240 8247 8250 8257 8252 8252 8251 8248 8250 8251 8250 8254 8249 8252 8250 


