P2
80 60
8321
8105 8102 8115 8125 8146 8174 8183 8183 8189 8193 8202 8210 8219 8222 8218 8233 8220 8215 8211 8216 8209 8209 8214 8207 8212 8208 8205 8204 8201 8198 8193 8185 8175 8164 8156 8157 8159 8162 8176 8192 8192 8182 8173 8150 8140 8137 8145 8153 8188 8213 8220 8220 8214 8221 8230 8233 8226 8223 8223 8220 8223 8225 8229 8227 8232 8235 8238 8240 8243 8246 8246 8247 8249 8250 8253 8247 8252 8259 8255 8253 
8103 8106 8117 8138 8174 8193 8203 8212 8212 8223 8223 8228 8228 8232 8231 8238 8234 8236 8228 8226 8224 8212 8216 8216 8216 8205 8206 8201 8195 8200 8201 8188 8171 8154 8151 8152 8157 8165 8185 8195 8192 8176 8161 8150 8143 8145 8142 8137 8188 8213 8224 8222 8223 8224 8229 8231 8226 8221 8220 8219 8222 8221 8224 8221 8224 8222 8226 8227 8231 8237 8241 8241 8244 8241 8245 8241 8241 8245 8253 8249 
8101 8110 8120 8158 8198 8213 8214 8218 8228 8232 8234 8238 8236 8235 8236 8239 8247 8241 8240 8241 8234 8228 8220 8214 8215 8204 8201 8198 8197 8211 8203 8187 8171 8159 8160 8163 8175 8192 8211 8208 8197 8189 8188 8185 8186 8184 8180 8177 8210 8228 8234 8234 8233 8234 8235 8236 8229 8226 8225 8224 8223 8221 8223 8217 8223 8218 8220 8225 8224 8229 8231 8234 8235 8236 8235 8231 8232 8234 8247 8250 
8105 8114 8131 8176 8215 8219 8220 8223 8237 8238 8247 8248 8245 8241 8238 8238 8239 8241 8244 8243 8242 8235 8228 8217 8211 8210 8204 8204 8206 8216 8217 8209 8205 8198 8204 8208 8224 8232 8238 8243 8239 8240 8240 8242 8243 8243 8241 8243 8246 8251 8255 8247 8251 8250 8249 8246 8240 8236 8236 8233 8230 8228 8227 8224 8229 8225 8229 8230 8228 8232 8230 8232 8233 8231 8235 8227 8229 8228 8244 8246 
8116 8134 8162 8210 8231 8234 8234 8240 8243 8244 8243 8244 8239 8232 8225 8224 8225 8222 8223 8224 8221 8218 8218 8207 8206 8205 8208 8208 8212 8217 8220 8217 8218 8218 8220 8230 8242 8245 8246 8252 8255 8260 8260 8262 8266 8261 8261 8260 8260 8259 8262 8255 8259 8258 8258 8254 8250 8247 8244 8241 8239 8236 8237 8233 8234 8233 8238 8237 8238 8238 8235 8232 8231 8231 8233 8229 8228 8228 8239 8242 
8135 8177 8209 8231 8239 8239 8231 8236 8231 8214 8204 8207 8199 8202 8200 8203 8208 8210 8209 8211 8211 8210 8206 8204 8205 8208 8210 8213 8214 8217 8220 8224 8226 8226 8229 8235 8249 8254 8255 8258 8261 8264 8264 8270 8270 8268 8268 8264 8260 8261 8264 8261 8260 8262 8259 8261 8252 8250 8250 8248 8248 8246 8243 8236 8236 8237 8239 8241 8240 8239 8239 8235 8238 8237 8237 8230 8233 8230 8232 8246 
8153 8200 8226 8230 8231 8214 8200 8198 8194 8200 8201 8200 8198 8201 8204 8209 8216 8218 8211 8215 8213 8212 8208 8205 8208 8207 8207 8208 8212 8218 8220 8228 8227 8230 8237 8245 8252 8259 8259 8259 8261 8268 8267 8267 8269 8267 8269 8264 8264 8264 8265 8261 8259 8260 8259 8256 8252 8252 8251 8252 8246 8248 8244 8238 8238 8238 8240 8241 8243 8244 8243 8241 8242 8243 8242 8237 8240 8235 8230 8234 
8170 8208 8220 8216 8201 8179 8169 8158 8172 8197 8201 8203 8202 8207 8213 8218 8222 8219 8219 8216 8218 8216 8214 8209 8211 8208 8206 8210 8216 8217 8219 8223 8228 8229 8234 8245 8255 8258 8258 8257 8263 8267 8267 8264 8264 8267 8268 8265 8263 8263 8262 8263 8260 8260 8257 8259 8254 8250 8252 8249 8247 8247 8245 8239 8240 8239 8239 8241 8242 8242 8245 8243 8245 8244 8246 8239 8239 8236 8231 8235 
8181 8211 8210 8189 8171 8153 8142 8148 8188 8199 8201 8203 8206 8216 8219 8218 8222 8222 8220 8219 8215 8214 8213 8209 8209 8205 8209 8210 8213 8213 8221 8223 8227 8227 8239 8247 8256 8255 8258 8260 8263 8268 8265 8264 8265 8263 8264 8264 8262 8260 8262 8259 8257 8257 8256 8256 8258 8253 8251 8249 8249 8246 8245 8240 8240 8236 8240 8239 8240 8241 8244 8242 8242 8239 8239 8237 8239 8236 8231 8228 
8197 8208 8188 8168 8154 8139 8132 8159 8196 8201 8204 8206 8212 8217 8217 8213 8218 8219 8218 8220 8213 8209 8208 8210 8209 8206 8207 8212 8214 8221 8224 8229 8230 8230 8239 8250 8255 8256 8258 8259 8262 8264 8263 8258 8260 8259 8260 8261 8263 8256 8259 8259 8258 8259 8257 8255 8251 8252 8249 8247 8245 8245 8243 8240 8239 8239 8238 8241 8239 8240 8239 8238 8235 8235 8236 8234 8236 8233 8231 8230 
8200 8198 8168 8153 8145 8135 8138 8184 8199 8205 8204 8207 8211 8212 8212 8215 8215 8219 8219 8218 8212 8209 8210 8209 8209 8207 8215 8215 8216 8221 8221 8228 8229 8233 8239 8244 8249 8251 8254 8254 8256 8256 8255 8254 8254 8255 8258 8258 8260 8251 8258 8256 8257 8259 8255 8254 8252 8251 8248 8246 8245 8244 8244 8240 8240 8240 8238 8239 8237 8238 8237 8236 8233 8231 8235 8235 8234 8232 8228 8231 
8202 8190 8159 8147 8144 8136 8165 8195 8204 8205 8205 8210 8209 8215 8215 8215 8218 8223 8220 8217 8212 8210 8214 8212 8212 8213 8217 8218 8218 8221 8221 8225 8229 8232 8240 8246 8251 8248 8252 8249 8250 8256 8251 8250 8250 8253 8259 8256 8258 8254 8256 8256 8258 8259 8256 8254 8253 8249 8253 8248 8247 8246 8249 8245 8249 8243 8245 8242 8240 8236 8235 8235 8233 8234 8238 8235 8240 8234 8228 8226 
8203 8178 8155 8148 8146 8147 8187 8203 8206 8203 8208 8211 8212 8214 8214 8213 8217 8223 8218 8214 8211 8214 8211 8214 8210 8211 8215 8216 8214 8216 8222 8226 8226 8230 8239 8241 8250 8250 8249 8248 8246 8249 8250 8250 8251 8255 8254 8259 8257 8253 8258 8256 8256 8256 8256 8255 8251 8248 8249 8248 8244 8247 8248 8247 8253 8248 8246 8246 8244 8238 8234 8234 8233 8235 8234 8234 8233 8233 8228 8228 
8198 8175 8155 8149 8149 8168 8200 8209 8208 8207 8210 8214 8214 8216 8219 8218 8222 8226 8218 8213 8213 8210 8209 8211 8212 8213 8216 8215 8213 8217 8218 8226 8229 8236 8245 8244 8249 8251 8250 8247 8250 8250 8249 8251 8249 8250 8257 8258 8257 8254 8253 8256 8257 8257 8257 8254 8248 8248 8250 8243 8243 8246 8245 8246 8250 8247 8247 8248 8243 8240 8238 8236 8237 8233 8235 8235 8239 8233 8225 8232 
8194 8178 8157 8155 8162 8195 8212 8217 8212 8208 8210 8213 8217 8219 8218 8219 8220 8220 8215 8211 8208 8206 8207 8208 8210 8212 8216 8214 8212 8215 8217 8228 8232 8237 8244 8246 8246 8249 8248 8249 8247 8249 8247 8250 8248 8251 8258 8256 8256 8251 8256 8254 8255 8256 8254 8252 8247 8247 8249 8240 8240 8242 8244 8243 8247 8246 8246 8245 8245 8243 8242 8240 8240 8238 8239 8234 8239 8238 8231 8231 
8201 8180 8176 8170 8184 8219 8227 8221 8219 8215 8215 8219 8219 8218 8223 8219 8219 8216 8206 8207 8206 8208 8208 8203 8208 8211 8213 8209 8212 8216 8220 8228 8232 8234 8245 8245 8249 8249 8249 8246 8246 8249 8245 8248 8248 8247 8255 8255 8251 8251 8253 8251 8252 8251 8251 8250 8246 8246 8244 8241 8240 8241 8243 8245 8245 8240 8246 8245 8244 8243 8243 8244 8241 8242 8240 8240 8242 8236 8229 8229 
8216 8204 8197 8184 8206 8227 8229 8227 8221 8218 8219 8218 8217 8216 8215 8213 8211 8208 8209 8209 8202 8202 8207 8205 8209 8213 8215 8211 8212 8216 8219 8225 8230 8234 8244 8244 8249 8248 8249 8247 8248 8247 8247 8246 8247 8245 8245 8247 8252 8246 8250 8248 8251 8252 8249 8248 8245 8242 8238 8239 8237 8239 8239 8240 8244 8241 8243 8243 8243 8242 8241 8241 8244 8239 8243 8241 8243 8237 8233 8231 
8249 8237 8220 8201 8223 8232 8236 8232 8225 8221 8221 8219 8217 8218 8211 8210 8205 8206 8205 8201 8200 8204 8207 8207 8209 8211 8212 8211 8209 8215 8220 8227 8231 8238 8242 8243 8246 8245 8246 8244 8245 8248 8245 8248 8246 8244 8249 8239 8240 8238 8245 8247 8246 8246 8247 8240 8239 8239 8236 8238 8234 8237 8238 8240 8238 8238 8239 8239 8240 8241 8241 8241 8243 8241 8243 8237 8244 8236 8233 8231 
8274 8261 8243 8224 8228 8234 8235 8227 8225 8223 8224 8222 8215 8218 8213 8207 8203 8201 8197 8199 8196 8198 8204 8206 8212 8212 8210 8208 8207 8217 8221 8227 8234 8238 8241 8242 8246 8247 8244 8243 8245 8241 8243 8245 8245 8240 8243 8237 8238 8234 8241 8242 8243 8243 8239 8241 8234 8231 8236 8233 8235 8237 8238 8239 8237 8235 8236 8240 8239 8239 8237 8242 8244 8241 8240 8239 8241 8235 8232 8230 
8289 8270 8254 8230 8233 8233 8231 8225 8222 8221 8221 8215 8214 8214 8212 8205 8204 8198 8187 8173 8150 8161 8200 8209 8212 8212 8208 8208 8208 8214 8219 8228 8235 8237 8239 8239 8243 8243 8244 8242 8235 8238 8241 8243 8242 8240 8240 8235 8235 8230 8236 8237 8242 8239 8237 8235 8232 8231 8231 8233 8232 8232 8234 8235 8237 8234 8237 8239 8237 8236 8237 8236 8237 8235 8240 8235 8239 8234 8228 8227 
8295 8294 8269 8231 8231 8229 8225 8221 8222 8219 8218 8215 8214 8213 8210 8203 8202 8197 8153 8123 8122 8132 8179 8204 8211 8207 8205 8206 8204 8214 8217 8224 8221 8229 8224 8215 8231 8242 8241 8238 8239 8237 8234 8240 8238 8238 8237 8235 8229 8225 8229 8228 8233 8234 8233 8234 8231 8234 8228 8229 8228 8230 8232 8228 8234 8233 8233 8235 8234 8234 8238 8237 8233 8237 8236 8236 8233 8230 8225 8225 
8319 8317 8251 8231 8229 8228 8224 8223 8220 8215 8213 8212 8214 8213 8205 8202 8201 8201 8185 8133 8119 8124 8145 8200 8209 8205 8204 8204 8205 8210 8215 8198 8138 8147 8138 8130 8166 8222 8233 8231 8219 8186 8191 8228 8237 8234 8232 8231 8226 8222 8224 8226 8225 8226 8227 8231 8230 8226 8228 8226 8226 8230 8227 8228 8230 8230 8233 8230 8234 8233 8233 8233 8232 8233 8233 8228 8226 8221 8221 8218 
8321 8290 8233 8230 8231 8227 8225 8222 8215 8212 8213 8213 8211 8209 8206 8202 8200 8197 8194 8167 8124 8125 8130 8166 8205 8203 8206 8207 8204 8209 8215 8217 8152 8159 8203 8191 8182 8184 8179 8168 8125 8111 8133 8179 8201 8225 8229 8229 8222 8221 8224 8229 8225 8226 8225 8227 8223 8224 8226 8227 8228 8227 8229 8225 8230 8228 8229 8230 8232 8231 8230 8228 8228 8227 8226 8220 8223 8221 8216 8220 
8307 8245 8230 8231 8230 8227 8227 8219 8215 8213 8210 8214 8209 8207 8201 8200 8200 8196 8194 8188 8152 8125 8128 8134 8179 8200 8203 8202 8205 8206 8213 8199 8160 8210 8231 8228 8232 8217 8146 8148 8107 8105 8139 8161 8136 8187 8204 8221 8222 8223 8224 8227 8229 8228 8227 8228 8225 8222 8222 8220 8222 8225 8224 8224 8226 8226 8228 8229 8229 8230 8230 8226 8221 8220 8222 8220 8219 8218 8211 8214 
8275 8232 8229 8233 8231 8227 8223 8220 8211 8212 8214 8213 8211 8205 8195 8198 8194 8193 8193 8197 8190 8138 8125 8130 8141 8190 8204 8201 8201 8203 8186 8172 8155 8212 8227 8226 8218 8172 8153 8172 8107 8104 8151 8174 8119 8112 8112 8147 8215 8222 8227 8227 8227 8231 8227 8226 8223 8224 8223 8220 8220 8225 8221 8223 8224 8225 8226 8225 8224 8227 8225 8224 8220 8219 8216 8218 8219 8217 8208 8208 
8241 8229 8230 8232 8233 8223 8221 8218 8212 8212 8214 8212 8209 8205 8196 8195 8196 8195 8194 8199 8196 8180 8131 8128 8127 8156 8198 8200 8196 8151 8137 8189 8162 8130 8157 8180 8137 8109 8116 8139 8132 8103 8098 8101 8095 8094 8091 8102 8183 8222 8226 8228 8225 8229 8228 8226 8221 8219 8220 8219 8221 8220 8223 8222 8222 8223 8225 8222 8222 8222 8222 8218 8218 8216 8219 8214 8218 8213 8208 8209 
8231 8228 8227 8226 8230 8223 8220 8219 8217 8215 8216 8213 8207 8203 8197 8194 8193 8194 8193 8200 8200 8201 8166 8127 8124 8132 8176 8194 8188 8121 8144 8142 8125 8107 8107 8100 8101 8100 8100 8109 8099 8093 8085 8096 8093 8086 8090 8112 8196 8221 8224 8222 8226 8226 8225 8224 8225 8217 8218 8215 8217 8220 8221 8221 8224 8221 8220 8221 8218 8217 8216 8216 8213 8215 8213 8212 8215 8213 8208 8206 
8230 8232 8229 8231 8229 8225 8221 8220 8219 8217 8219 8211 8205 8201 8198 8194 8196 8197 8196 8200 8204 8207 8201 8151 8126 8124 8140 8188 8192 8122 8134 8117 8147 8161 8133 8095 8094 8098 8098 8096 8091 8090 8096 8101 8098 8092 8090 8094 8154 8196 8212 8221 8221 8223 8222 8224 8222 8218 8217 8214 8217 8217 8221 8221 8220 8221 8219 8218 8218 8214 8211 8212 8212 8209 8213 8209 8215 8212 8205 8206 
8232 8229 8225 8229 8228 8227 8223 8220 8219 8216 8215 8213 8204 8199 8196 8194 8197 8198 8197 8203 8205 8209 8211 8192 8136 8123 8127 8159 8194 8168 8124 8109 8110 8099 8100 8089 8092 8095 8101 8105 8105 8094 8105 8140 8096 8117 8131 8137 8155 8175 8173 8191 8214 8214 8188 8207 8217 8217 8218 8215 8214 8215 8216 8217 8222 8217 8217 8214 8212 8209 8208 8208 8210 8208 8208 8207 8215 8208 8201 8202 
8234 8231 8229 8230 8227 8221 8222 8218 8218 8215 8216 8210 8201 8199 8197 8197 8201 8196 8200 8201 8209 8213 8214 8210 8173 8128 8129 8131 8177 8187 8143 8106 8107 8101 8098 8089 8090 8095 8096 8092 8098 8087 8099 8136 8117 8128 8139 8135 8128 8160 8156 8152 8170 8168 8110 8185 8208 8214 8213 8211 8214 8214 8218 8217 8219 8216 8212 8210 8209 8210 8208 8208 8209 8209 8209 8209 8211 8206 8202 8200 
8233 8232 8231 8231 8229 8222 8219 8221 8218 8215 8214 8209 8205 8203 8199 8201 8202 8204 8204 8211 8215 8219 8219 8212 8204 8157 8130 8127 8139 8124 8111 8105 8115 8102 8098 8089 8095 8094 8089 8083 8094 8101 8091 8097 8104 8108 8133 8147 8103 8125 8112 8109 8106 8095 8089 8127 8183 8207 8210 8210 8211 8214 8215 8212 8215 8213 8210 8210 8208 8209 8205 8208 8206 8209 8206 8207 8212 8209 8201 8202 
8234 8232 8231 8231 8229 8221 8219 8219 8219 8217 8215 8211 8205 8206 8205 8204 8207 8208 8208 8212 8218 8220 8220 8214 8207 8193 8138 8127 8128 8126 8117 8106 8113 8101 8096 8093 8095 8090 8083 8081 8082 8098 8084 8083 8097 8096 8117 8118 8097 8093 8083 8075 8075 8074 8080 8081 8112 8156 8188 8205 8210 8211 8214 8210 8212 8210 8205 8209 8206 8206 8204 8207 8206 8206 8208 8206 8209 8208 8200 8205 
8232 8232 8232 8230 8229 8225 8223 8221 8218 8215 8214 8207 8205 8204 8206 8202 8207 8208 8209 8216 8218 8219 8216 8214 8209 8204 8182 8135 8129 8128 8114 8113 8104 8099 8099 8089 8091 8094 8090 8082 8078 8087 8093 8090 8114 8111 8100 8083 8082 8074 8077 8074 8075 8078 8083 8084 8112 8136 8155 8204 8205 8208 8209 8208 8210 8206 8206 8207 8202 8204 8202 8206 8204 8205 8208 8207 8209 8205 8203 8203 
8229 8228 8225 8229 8229 8225 8223 8224 8218 8214 8213 8203 8200 8203 8204 8203 8204 8213 8213 8216 8219 8222 8215 8213 8210 8205 8200 8158 8129 8125 8124 8114 8106 8101 8090 8084 8088 8090 8096 8087 8086 8092 8092 8100 8098 8093 8085 8083 8077 8071 8074 8071 8074 8085 8105 8082 8111 8192 8205 8205 8206 8205 8208 8208 8209 8205 8203 8202 8205 8202 8206 8203 8204 8205 8206 8206 8208 8204 8203 8204 
8228 8224 8224 8227 8228 8222 8217 8215 8214 8207 8206 8204 8200 8204 8203 8205 8205 8209 8213 8216 8217 8216 8214 8211 8207 8205 8198 8162 8139 8135 8130 8106 8101 8105 8095 8090 8086 8088 8092 8089 8093 8089 8088 8093 8094 8094 8099 8100 8081 8077 8073 8073 8084 8081 8079 8078 8088 8182 8204 8202 8201 8201 8202 8205 8204 8200 8201 8200 8200 8200 8205 8201 8200 8203 8206 8201 8207 8203 8197 8203 
8224 8220 8219 8223 8224 8217 8211 8211 8207 8204 8205 8206 8202 8200 8203 8207 8209 8208 8210 8214 8216 8217 8214 8210 8207 8204 8187 8161 8151 8148 8137 8116 8101 8098 8106 8102 8093 8089 8090 8088 8089 8087 8084 8088 8087 8089 8090 8096 8080 8072 8081 8083 8102 8103 8082 8076 8081 8140 8194 8197 8196 8196 8200 8196 8200 8199 8200 8199 8198 8201 8201 8204 8205 8203 8207 8201 8203 8201 8196 8197 
8217 8213 8218 8219 8218 8209 8206 8204 8206 8203 8202 8201 8199 8200 8203 8205 8208 8209 8207 8214 8214 8212 8210 8208 8205 8198 8178 8166 8169 8164 8145 8123 8105 8099 8105 8098 8097 8095 8097 8095 8091 8089 8090 8093 8089 8085 8088 8088 8077 8073 8082 8097 8122 8131 8109 8081 8084 8129 8186 8191 8193 8191 8194 8195 8196 8196 8196 8198 8197 8200 8199 8201 8205 8200 8202 8201 8202 8197 8197 8195 
8213 8215 8217 8216 8214 8207 8202 8203 8200 8198 8205 8201 8200 8200 8201 8201 8205 8207 8206 8210 8211 8211 8210 8211 8206 8190 8175 8177 8191 8165 8135 8130 8119 8107 8104 8092 8090 8096 8096 8091 8090 8091 8089 8090 8092 8095 8103 8088 8076 8074 8077 8077 8105 8127 8134 8109 8099 8155 8184 8189 8188 8192 8193 8191 8194 8196 8194 8193 8196 8193 8196 8197 8197 8202 8202 8200 8203 8195 8193 8190 
8212 8213 8211 8211 8212 8204 8206 8205 8203 8203 8203 8203 8200 8201 8200 8197 8203 8204 8206 8207 8209 8208 8210 8209 8207 8186 8174 8197 8196 8156 8140 8131 8123 8112 8098 8088 8089 8093 8089 8083 8085 8087 8082 8079 8089 8092 8097 8085 8081 8080 8078 8074 8093 8115 8123 8143 8146 8157 8183 8188 8184 8189 8191 8187 8193 8191 8192 8194 8192 8191 8194 8197 8197 8199 8200 8198 8200 8195 8193 8193 
8209 8211 8210 8208 8208 8204 8203 8202 8202 8203 8204 8205 8203 8202 8201 8198 8202 8200 8204 8207 8209 8208 8208 8209 8203 8183 8183 8210 8191 8151 8144 8136 8126 8105 8101 8091 8092 8094 8084 8077 8085 8087 8079 8078 8084 8085 8085 8076 8090 8103 8085 8075 8089 8119 8115 8143 8156 8157 8183 8187 8183 8185 8189 8191 8190 8190 8189 8189 8191 8191 8193 8194 8195 8194 8199 8198 8199 8194 8190 8190 
8206 8208 8205 8206 8204 8203 8204 8201 8199 8200 8201 8201 8202 8201 8200 8200 8199 8205 8203 8206 8204 8207 8205 8203 8201 8185 8191 8219 8181 8149 8149 8138 8129 8116 8108 8101 8100 8099 8088 8089 8091 8082 8079 8076 8077 8077 8075 8078 8095 8112 8108 8093 8110 8134 8124 8136 8159 8161 8183 8185 8182 8185 8191 8189 8192 8188 8188 8188 8189 8189 8192 8194 8192 8194 8197 8194 8199 8193 8187 8189 
8206 8206 8202 8201 8205 8201 8202 8199 8200 8197 8201 8201 8200 8202 8198 8199 8200 8204 8202 8202 8207 8204 8206 8207 8199 8185 8197 8220 8179 8158 8156 8141 8130 8121 8115 8107 8104 8101 8093 8089 8090 8090 8080 8075 8083 8081 8082 8095 8106 8110 8115 8121 8130 8130 8130 8142 8164 8164 8185 8183 8183 8185 8188 8186 8189 8188 8186 8188 8188 8188 8192 8192 8192 8194 8196 8195 8196 8194 8188 8190 
8202 8204 8198 8199 8200 8201 8200 8199 8200 8200 8201 8200 8201 8202 8198 8200 8201 8199 8200 8203 8204 8206 8205 8205 8202 8188 8203 8223 8182 8161 8157 8152 8140 8135 8130 8116 8107 8109 8095 8079 8078 8080 8081 8086 8085 8081 8080 8091 8103 8105 8108 8114 8126 8126 8125 8140 8163 8168 8182 8185 8185 8185 8186 8185 8189 8188 8187 8186 8186 8187 8190 8190 8193 8193 8197 8196 8197 8191 8187 8184 
8203 8203 8198 8200 8201 8197 8198 8198 8197 8200 8200 8202 8202 8202 8198 8198 8200 8199 8200 8203 8200 8203 8202 8203 8200 8191 8203 8218 8178 8162 8152 8154 8153 8142 8130 8114 8109 8107 8105 8091 8079 8079 8077 8079 8081 8077 8075 8075 8090 8114 8116 8116 8114 8112 8107 8145 8166 8171 8183 8182 8185 8182 8184 8185 8189 8183 8183 8187 8185 8188 8188 8190 8189 8194 8198 8195 8195 8189 8186 8184 
8203 8200 8198 8200 8201 8200 8200 8197 8198 8197 8201 8201 8202 8203 8200 8200 8197 8197 8199 8201 8202 8200 8200 8203 8204 8191 8206 8221 8182 8166 8153 8161 8158 8150 8133 8121 8121 8116 8105 8078 8080 8083 8091 8083 8073 8071 8070 8068 8076 8094 8112 8126 8113 8108 8124 8160 8166 8176 8189 8187 8184 8183 8185 8185 8190 8187 8186 8186 8187 8190 8192 8192 8195 8192 8196 8195 8195 8189 8182 8190 
8202 8201 8198 8200 8201 8201 8197 8198 8196 8197 8200 8201 8198 8201 8203 8200 8198 8202 8199 8200 8201 8201 8200 8202 8202 8197 8204 8220 8178 8155 8150 8161 8165 8156 8145 8125 8129 8124 8103 8088 8098 8107 8101 8088 8075 8068 8077 8074 8074 8084 8107 8125 8124 8108 8134 8168 8172 8178 8188 8186 8186 8181 8186 8186 8189 8189 8188 8188 8187 8188 8191 8191 8195 8194 8194 8193 8193 8187 8182 8185 
8199 8197 8200 8204 8204 8203 8202 8199 8198 8198 8201 8202 8199 8203 8200 8200 8201 8202 8201 8203 8202 8202 8203 8200 8200 8200 8201 8218 8202 8170 8162 8168 8163 8150 8142 8120 8131 8122 8110 8102 8114 8120 8112 8102 8079 8079 8089 8108 8110 8115 8115 8128 8130 8126 8148 8167 8177 8184 8187 8185 8187 8182 8186 8184 8189 8188 8187 8187 8189 8190 8193 8194 8194 8195 8199 8191 8193 8188 8183 8183 
8200 8203 8198 8201 8207 8204 8203 8199 8201 8202 8202 8203 8197 8199 8202 8199 8200 8202 8201 8201 8203 8202 8201 8201 8199 8199 8198 8212 8218 8182 8163 8167 8162 8134 8130 8124 8124 8114 8113 8112 8123 8116 8103 8113 8098 8089 8094 8120 8132 8137 8135 8130 8141 8146 8168 8164 8178 8183 8186 8184 8185 8182 8185 8182 8187 8186 8189 8191 8190 8190 8193 8194 8195 8197 8198 8189 8191 8188 8179 8178 
8200 8200 8202 8204 8205 8200 8201 8201 8200 8200 8202 8201 8203 8201 8198 8200 8201 8202 8203 8202 8203 8202 8204 8202 8199 8200 8202 8201 8221 8204 8177 8167 8170 8149 8154 8143 8129 8125 8127 8125 8126 8117 8109 8117 8117 8116 8114 8122 8131 8125 8133 8137 8140 8165 8169 8165 8178 8183 8184 8181 8182 8182 8183 8183 8184 8186 8187 8189 8189 8191 8189 8195 8194 8194 8195 8194 8190 8185 8181 8182 
8198 8201 8201 8203 8203 8202 8198 8198 8198 8199 8199 8198 8201 8201 8201 8198 8199 8202 8203 8203 8202 8203 8201 8202 8202 8199 8202 8200 8212 8221 8202 8180 8171 8156 8162 8156 8155 8143 8149 8149 8145 8133 8127 8134 8126 8121 8124 8129 8133 8127 8149 8150 8158 8168 8164 8166 8180 8183 8183 8181 8181 8184 8184 8182 8186 8184 8187 8189 8187 8195 8193 8193 8196 8196 8199 8193 8193 8188 8182 8184 
8197 8198 8196 8203 8201 8196 8199 8198 8197 8195 8200 8200 8197 8199 8202 8199 8201 8199 8198 8204 8205 8201 8204 8202 8203 8197 8201 8203 8203 8221 8224 8195 8173 8167 8161 8159 8160 8156 8151 8150 8145 8143 8137 8140 8142 8145 8141 8142 8141 8131 8158 8164 8171 8165 8162 8169 8181 8185 8186 8184 8182 8182 8184 8182 8184 8185 8186 8188 8190 8192 8195 8194 8195 8197 8197 8195 8193 8188 8180 8181 
8198 8202 8197 8202 8200 8199 8198 8196 8196 8192 8195 8193 8196 8197 8195 8200 8201 8198 8196 8200 8201 8202 8202 8202 8206 8197 8201 8204 8199 8204 8227 8222 8193 8191 8177 8158 8154 8150 8151 8147 8144 8153 8151 8150 8156 8156 8158 8151 8144 8139 8164 8174 8168 8163 8163 8178 8182 8185 8185 8181 8181 8183 8184 8182 8181 8182 8184 8185 8187 8192 8193 8196 8195 8195 8198 8193 8193 8188 8182 8178 
8204 8201 8199 8203 8200 8198 8194 8193 8191 8191 8190 8190 8190 8195 8191 8192 8194 8195 8195 8197 8197 8200 8204 8203 8200 8198 8202 8203 8201 8194 8200 8223 8226 8223 8213 8177 8154 8158 8153 8144 8151 8162 8168 8162 8158 8162 8153 8150 8153 8165 8178 8174 8168 8165 8170 8179 8181 8183 8190 8184 8184 8187 8184 8183 8183 8182 8187 8186 8187 8192 8196 8195 8200 8195 8197 8195 8192 8185 8180 8183 
8206 8206 8205 8205 8202 8197 8195 8194 8192 8189 8190 8191 8190 8194 8191 8192 8194 8197 8194 8198 8198 8200 8203 8203 8201 8201 8202 8206 8202 8202 8186 8192 8207 8221 8226 8196 8170 8159 8158 8152 8161 8165 8169 8164 8159 8154 8166 8181 8190 8181 8179 8174 8170 8172 8183 8184 8187 8188 8189 8187 8186 8185 8185 8180 8185 8184 8183 8187 8187 8192 8195 8194 8195 8196 8198 8192 8188 8187 8180 8181 
8208 8210 8209 8204 8204 8198 8194 8194 8191 8191 8189 8191 8190 8190 8191 8192 8194 8196 8196 8200 8199 8201 8200 8200 8200 8198 8205 8208 8208 8208 8200 8186 8180 8191 8205 8205 8203 8191 8177 8168 8175 8179 8174 8182 8186 8187 8197 8195 8191 8184 8184 8173 8176 8183 8188 8189 8187 8190 8190 8187 8184 8186 8186 8184 8187 8183 8185 8186 8185 8192 8190 8195 8193 8197 8196 8191 8185 8184 8177 8179 
8212 8212 8209 8207 8202 8197 8192 8193 8190 8190 8193 8192 8189 8193 8192 8190 8194 8195 8194 8199 8199 8199 8201 8201 8200 8197 8206 8209 8211 8215 8213 8202 8186 8178 8185 8197 8201 8196 8192 8194 8198 8198 8198 8196 8198 8194 8193 8191 8190 8184 8180 8176 8185 8191 8192 8195 8191 8192 8192 8189 8187 8188 8186 8186 8186 8184 8186 8187 8188 8190 8192 8192 8193 8193 8195 8190 8185 8178 8179 8180 
8216 8209 8210 8208 8198 8195 8193 8194 8187 8192 8193 8191 8188 8194 8193 8193 8194 8194 8195 8199 8199 8197 8199 8200 8204 8199 8209 8214 8217 8220 8222 8221 8208 8187 8181 8181 8195 8195 8192 8190 8190 8196 8195 8192 8197 8196 8197 8194 8191 8186 8188 8194 8196 8191 8198 8194 8193 8193 8195 8194 8191 8192 8190 8189 8190 8190 8188 8190 8189 8191 8192 8193 8192 8194 8193 8190 8183 8179 8176 8176 
8212 8210 8203 8196 8200 8197 8195 8194 8195 8191 8196 8191 8189 8190 8190 8193 8191 8196 8194 8198 8201 8197 8198 8199 8204 8205 8212 8219 8222 8225 8226 8231 8226 8212 8196 8181 8186 8190 8201 8197 8201 8202 8201 8202 8200 8202 8204 8198 8200 8199 8201 8198 8200 8202 8200 8199 8199 8196 8194 8193 8191 8196 8192 8189 8190 8190 8191 8195 8194 8197 8192 8195 8194 8192 8193 8186 8184 8179 8174 8174 
8218 8208 8203 8196 8198 8192 8195 8193 8195 8189 8190 8190 8186 8190 8190 8189 8189 8193 8192 8198 8200 8194 8198 8199 8202 8205 8216 8222 8224 8227 8232 8235 8235 8228 8217 8209 8198 8189 8189 8190 8198 8207 8206 8203 8202 8202 8206 8207 8208 8207 8208 8203 8203 8203 8202 8199 8198 8199 8197 8194 8190 8194 8196 8191 8193 8193 8191 8195 8196 8194 8194 8192 8192 8194 8192 8186 8186 8179 8175 8176 
8226 8205 8203 8199 8198 8196 8195 8191 8193 8191 8190 8190 8183 8178 8180 8181 8188 8189 8191 8198 8210 8198 8194 8194 8196 8203 8215 8223 8226 8233 8234 8236 8237 8231 8211 8211 8217 8213 8211 8208 8210 8209 8210 8216 8221 8223 8220 8218 8210 8206 8205 8206 8205 8207 8205 8201 8199 8199 8199 8195 8193 8194 8196 8193 8196 8197 8193 8197 8196 8196 8190 8195 8193 8193 8189 8187 8184 8177 8176 8179 


