P2
80 60
8403
8307 8296 8310 8312 8318 8313 8308 8303 8305 8299 8304 8307 8301 8298 8301 8302 8301 8299 8298 8298 8302 8307 8305 8297 8298 8301 8299 8303 8300 8303 8301 8304 8306 8305 8308 8306 8308 8309 8311 8310 8307 8307 8299 8296 8298 8299 8300 8295 8294 8295 8291 8290 8287 8286 8283 8286 8282 8285 8286 8286 8287 8288 8287 8286 8288 8284 8286 8291 8289 8290 8289 8290 8293 8293 8294 8295 8298 8295 8294 8292 
8308 8308 8320 8311 8316 8315 8304 8302 8305 8310 8302 8305 8298 8299 8296 8302 8298 8300 8299 8303 8305 8310 8305 8297 8304 8300 8298 8302 8302 8296 8305 8306 8305 8306 8308 8307 8306 8309 8310 8310 8306 8304 8299 8292 8297 8298 8298 8292 8292 8293 8291 8290 8289 8286 8286 8288 8285 8286 8289 8287 8288 8286 8286 8282 8284 8279 8287 8288 8289 8289 8293 8288 8290 8291 8291 8291 8291 8292 8289 8292 
8292 8296 8304 8297 8314 8302 8301 8305 8300 8301 8306 8302 8291 8300 8299 8297 8300 8301 8299 8305 8302 8306 8301 8296 8300 8303 8298 8299 8304 8298 8297 8302 8304 8306 8307 8305 8305 8310 8309 8308 8302 8299 8294 8295 8296 8295 8297 8294 8291 8291 8290 8283 8282 8288 8289 8287 8283 8287 8286 8281 8287 8290 8285 8284 8282 8281 8284 8287 8285 8286 8288 8287 8283 8286 8286 8283 8289 8287 8290 8293 
8312 8290 8315 8295 8314 8300 8309 8304 8305 8303 8295 8285 8298 8297 8293 8297 8299 8301 8300 8301 8302 8297 8292 8302 8302 8302 8302 8302 8302 8302 8299 8304 8305 8304 8308 8308 8309 8309 8307 8304 8301 8297 8295 8293 8294 8290 8296 8293 8292 8292 8290 8285 8288 8286 8287 8288 8284 8287 8287 8282 8288 8289 8282 8286 8280 8278 8282 8285 8292 8288 8286 8285 8284 8285 8283 8280 8284 8284 8280 8284 
8305 8290 8312 8298 8307 8307 8307 8295 8297 8301 8294 8289 8294 8296 8291 8295 8297 8297 8302 8299 8298 8301 8293 8297 8298 8301 8298 8299 8301 8300 8300 8301 8302 8301 8306 8306 8308 8306 8310 8305 8302 8301 8293 8290 8289 8288 8290 8292 8291 8291 8287 8287 8282 8286 8287 8287 8286 8284 8285 8283 8286 8288 8283 8281 8278 8274 8277 8279 8287 8286 8288 8284 8280 8285 8278 8278 8279 8278 8273 8279 
8311 8300 8303 8300 8302 8298 8309 8303 8304 8304 8284 8293 8296 8291 8287 8296 8295 8291 8301 8304 8301 8297 8301 8292 8296 8302 8298 8294 8295 8295 8303 8302 8300 8300 8304 8304 8306 8303 8308 8307 8302 8298 8295 8288 8291 8289 8290 8290 8290 8291 8288 8284 8285 8284 8284 8285 8284 8286 8286 8286 8287 8287 8280 8282 8279 8280 8277 8279 8283 8282 8285 8284 8279 8277 8276 8277 8273 8272 8271 8274 
8315 8304 8304 8317 8309 8297 8312 8311 8302 8290 8281 8303 8295 8287 8295 8297 8290 8293 8301 8304 8297 8303 8298 8295 8297 8301 8291 8294 8294 8299 8298 8298 8300 8298 8306 8305 8301 8301 8305 8305 8301 8297 8292 8290 8289 8287 8289 8290 8286 8286 8286 8277 8283 8285 8283 8286 8283 8280 8284 8287 8284 8284 8283 8280 8277 8278 8283 8283 8281 8276 8284 8283 8279 8276 8275 8276 8274 8275 8266 8274 
8312 8303 8292 8313 8302 8305 8309 8313 8307 8280 8301 8302 8296 8289 8296 8296 8292 8295 8296 8299 8303 8299 8295 8298 8300 8295 8289 8292 8292 8299 8297 8296 8299 8300 8302 8303 8304 8300 8305 8303 8298 8297 8296 8288 8287 8290 8285 8287 8284 8282 8288 8280 8282 8281 8282 8284 8283 8283 8284 8285 8281 8281 8283 8279 8280 8279 8280 8283 8277 8276 8278 8277 8279 8273 8276 8277 8273 8274 8266 8274 
8317 8299 8301 8301 8306 8306 8312 8307 8301 8287 8295 8292 8290 8290 8290 8294 8294 8293 8296 8303 8299 8295 8294 8292 8291 8298 8289 8289 8289 8294 8296 8294 8295 8299 8305 8306 8305 8301 8303 8298 8296 8296 8294 8285 8288 8287 8287 8285 8283 8281 8285 8280 8281 8280 8281 8278 8281 8281 8279 8280 8281 8279 8279 8278 8276 8275 8274 8279 8277 8279 8277 8274 8272 8274 8270 8275 8272 8276 8265 8268 
8315 8293 8301 8305 8302 8309 8295 8306 8300 8300 8292 8291 8291 8290 8289 8285 8294 8293 8299 8301 8295 8296 8294 8290 8288 8294 8291 8293 8293 8293 8292 8294 8292 8296 8302 8299 8303 8300 8300 8297 8296 8295 8291 8284 8284 8289 8288 8286 8285 8280 8283 8282 8280 8279 8282 8274 8281 8282 8282 8283 8281 8279 8277 8275 8276 8272 8272 8275 8275 8279 8279 8276 8276 8274 8273 8271 8272 8272 8266 8270 
8312 8288 8302 8300 8295 8304 8286 8301 8298 8288 8294 8289 8290 8290 8287 8286 8292 8286 8289 8296 8296 8293 8293 8290 8289 8290 8291 8292 8291 8291 8292 8292 8290 8293 8298 8295 8297 8295 8296 8292 8291 8290 8287 8287 8284 8285 8286 8284 8283 8281 8282 8280 8278 8278 8279 8278 8280 8277 8282 8281 8280 8276 8277 8273 8270 8270 8276 8277 8272 8276 8275 8274 8274 8267 8269 8266 8268 8269 8265 8271 
8308 8302 8303 8299 8294 8301 8294 8301 8299 8290 8294 8284 8289 8286 8288 8286 8290 8285 8286 8298 8295 8297 8288 8290 8290 8293 8288 8292 8295 8291 8291 8289 8290 8293 8292 8292 8295 8295 8294 8292 8288 8290 8284 8286 8284 8288 8284 8284 8282 8280 8288 8281 8280 8281 8275 8276 8278 8277 8282 8282 8276 8277 8273 8273 8271 8269 8277 8272 8272 8273 8275 8271 8271 8271 8267 8266 8276 8270 8263 8265 
8311 8299 8288 8289 8285 8299 8302 8286 8292 8289 8291 8285 8283 8282 8289 8289 8288 8292 8295 8294 8292 8295 8286 8289 8290 8287 8286 8292 8288 8289 8293 8288 8289 8290 8287 8289 8296 8295 8289 8287 8286 8290 8290 8283 8287 8285 8285 8281 8283 8282 8285 8282 8282 8280 8280 8274 8278 8280 8281 8278 8278 8277 8272 8268 8269 8270 8275 8275 8274 8272 8271 8272 8270 8268 8266 8270 8278 8268 8262 8262 
8306 8305 8302 8301 8298 8300 8297 8301 8286 8295 8292 8291 8288 8285 8290 8285 8289 8290 8295 8290 8292 8291 8285 8290 8285 8285 8287 8286 8282 8284 8293 8284 8288 8288 8290 8293 8292 8294 8289 8285 8282 8289 8287 8284 8287 8283 8284 8282 8279 8280 8283 8281 8280 8278 8281 8276 8277 8281 8280 8279 8278 8270 8268 8268 8271 8272 8275 8273 8275 8274 8274 8275 8271 8271 8266 8275 8274 8277 8269 8269 
8312 8289 8300 8304 8298 8300 8294 8298 8289 8290 8291 8290 8288 8287 8288 8288 8290 8287 8295 8295 8286 8289 8286 8285 8285 8285 8284 8285 8282 8288 8281 8283 8284 8285 8288 8289 8289 8286 8287 8284 8280 8286 8283 8280 8281 8277 8280 8279 8280 8279 8283 8277 8280 8280 8280 8281 8280 8280 8282 8280 8277 8268 8267 8272 8272 8274 8275 8278 8272 8274 8272 8276 8273 8273 8269 8272 8272 8274 8270 8271 
8317 8281 8292 8297 8296 8291 8292 8292 8289 8293 8292 8285 8285 8281 8291 8289 8292 8289 8295 8296 8283 8287 8283 8282 8280 8285 8287 8282 8280 8283 8283 8282 8284 8283 8285 8286 8290 8288 8286 8281 8281 8282 8282 8280 8278 8275 8275 8275 8274 8273 8282 8278 8280 8279 8278 8278 8276 8276 8277 8278 8275 8268 8270 8269 8274 8274 8273 8275 8273 8274 8274 8274 8274 8272 8273 8271 8272 8273 8271 8273 
8311 8278 8288 8303 8294 8292 8290 8285 8291 8291 8288 8289 8282 8280 8280 8291 8286 8292 8294 8290 8285 8288 8284 8277 8277 8282 8282 8281 8282 8281 8282 8280 8279 8285 8287 8285 8289 8286 8283 8278 8282 8279 8276 8275 8275 8277 8272 8273 8275 8277 8280 8278 8278 8273 8274 8276 8276 8275 8276 8277 8278 8268 8269 8271 8275 8272 8274 8278 8273 8271 8272 8271 8273 8273 8272 8272 8272 8276 8269 8273 
8312 8292 8296 8291 8295 8297 8292 8296 8289 8293 8290 8287 8290 8289 8292 8288 8286 8290 8291 8291 8286 8288 8285 8274 8270 8269 8264 8264 8279 8275 8275 8275 8275 8276 8284 8286 8282 8277 8276 8276 8274 8277 8280 8275 8275 8273 8274 8272 8275 8279 8277 8279 8275 8274 8272 8273 8273 8275 8276 8275 8276 8270 8272 8272 8272 8270 8273 8275 8274 8275 8271 8276 8276 8272 8273 8273 8273 8274 8268 8270 
8306 8290 8297 8294 8294 8292 8297 8298 8296 8289 8289 8289 8292 8287 8289 8289 8285 8290 8288 8287 8282 8285 8266 8234 8204 8194 8217 8254 8254 8244 8237 8221 8220 8236 8275 8270 8244 8218 8210 8224 8254 8272 8271 8270 8274 8272 8270 8273 8271 8274 8278 8274 8273 8272 8271 8271 8272 8272 8274 8274 8272 8268 8272 8272 8271 8269 8272 8274 8273 8272 8275 8273 8275 8273 8273 8272 8270 8272 8270 8273 
8303 8286 8295 8295 8290 8297 8297 8294 8297 8290 8292 8291 8289 8281 8292 8288 8285 8286 8284 8284 8269 8242 8210 8177 8184 8207 8231 8205 8184 8180 8204 8260 8245 8227 8231 8216 8216 8246 8234 8222 8219 8235 8270 8272 8272 8271 8272 8270 8270 8276 8273 8273 8270 8271 8276 8272 8272 8275 8275 8275 8274 8268 8273 8274 8272 8269 8269 8275 8272 8272 8275 8274 8272 8271 8273 8276 8273 8273 8268 8271 
8307 8297 8288 8277 8282 8287 8283 8295 8295 8290 8288 8288 8285 8282 8281 8287 8285 8285 8279 8242 8207 8238 8192 8185 8239 8261 8206 8184 8211 8203 8229 8221 8211 8229 8226 8232 8262 8268 8270 8266 8269 8259 8242 8256 8267 8270 8270 8267 8268 8268 8270 8269 8272 8272 8274 8274 8273 8274 8270 8271 8271 8269 8270 8270 8269 8269 8270 8274 8273 8275 8272 8273 8269 8272 8272 8274 8270 8270 8268 8273 
8307 8298 8289 8300 8299 8294 8275 8297 8281 8294 8286 8277 8285 8289 8280 8286 8282 8284 8250 8208 8238 8255 8217 8262 8270 8268 8212 8248 8268 8233 8193 8202 8189 8192 8219 8245 8237 8222 8217 8227 8243 8256 8266 8249 8251 8255 8260 8263 8267 8269 8267 8267 8273 8273 8273 8279 8274 8276 8269 8270 8269 8269 8267 8271 8269 8267 8270 8275 8273 8270 8272 8270 8267 8270 8272 8272 8271 8274 8268 8272 
8305 8290 8296 8298 8292 8290 8279 8273 8279 8290 8291 8284 8283 8285 8282 8281 8279 8271 8228 8262 8277 8278 8276 8277 8277 8273 8272 8275 8273 8254 8227 8218 8216 8202 8198 8210 8193 8178 8175 8187 8229 8226 8233 8254 8223 8219 8224 8236 8261 8267 8272 8272 8270 8271 8274 8276 8274 8275 8269 8268 8268 8269 8269 8268 8271 8270 8270 8273 8271 8269 8268 8269 8268 8269 8268 8270 8269 8274 8269 8273 
8307 8298 8298 8296 8298 8298 8292 8279 8291 8291 8292 8279 8285 8283 8285 8285 8278 8258 8264 8285 8282 8283 8284 8280 8278 8276 8276 8275 8272 8265 8258 8218 8197 8198 8231 8226 8184 8181 8166 8165 8207 8262 8259 8245 8219 8217 8221 8230 8261 8272 8272 8270 8266 8268 8273 8272 8273 8274 8268 8268 8264 8269 8270 8270 8269 8270 8272 8274 8267 8270 8267 8268 8267 8271 8269 8267 8269 8273 8270 8273 
8308 8285 8298 8300 8296 8291 8285 8292 8291 8282 8288 8283 8289 8282 8284 8283 8278 8276 8279 8280 8282 8284 8282 8277 8276 8275 8273 8272 8269 8268 8225 8239 8212 8203 8236 8213 8206 8193 8177 8170 8216 8261 8266 8256 8220 8220 8224 8237 8263 8267 8272 8267 8265 8264 8269 8271 8273 8272 8273 8272 8268 8267 8265 8268 8269 8268 8269 8269 8270 8265 8268 8268 8268 8266 8267 8269 8267 8271 8270 8272 
8311 8282 8287 8303 8295 8287 8290 8279 8274 8287 8282 8288 8283 8283 8286 8282 8282 8285 8283 8279 8283 8284 8280 8275 8272 8272 8272 8276 8275 8266 8250 8249 8227 8199 8202 8214 8251 8249 8230 8190 8208 8263 8263 8253 8218 8221 8228 8237 8264 8271 8269 8267 8265 8267 8267 8265 8266 8269 8271 8271 8267 8267 8262 8268 8269 8270 8270 8268 8267 8268 8270 8265 8268 8268 8267 8266 8268 8273 8267 8271 
8304 8292 8286 8296 8289 8289 8285 8281 8286 8283 8278 8289 8283 8283 8282 8282 8280 8284 8283 8276 8278 8279 8276 8274 8271 8272 8274 8275 8274 8271 8255 8218 8205 8181 8178 8181 8196 8192 8199 8199 8211 8248 8260 8251 8220 8224 8225 8239 8266 8268 8267 8267 8264 8268 8269 8269 8268 8270 8272 8273 8268 8268 8265 8264 8267 8266 8266 8267 8263 8267 8268 8265 8263 8265 8262 8265 8268 8269 8270 8270 
8304 8295 8295 8295 8297 8284 8287 8286 8281 8286 8279 8285 8287 8281 8282 8282 8283 8285 8282 8281 8280 8281 8279 8277 8272 8276 8276 8278 8272 8268 8220 8185 8179 8173 8183 8181 8176 8182 8187 8204 8185 8189 8211 8236 8219 8228 8232 8242 8266 8268 8264 8265 8264 8265 8271 8271 8268 8273 8271 8273 8270 8269 8265 8270 8271 8267 8267 8264 8263 8264 8266 8264 8264 8265 8265 8267 8269 8271 8270 8272 
8301 8287 8293 8293 8287 8291 8286 8287 8286 8294 8286 8287 8286 8283 8286 8277 8284 8284 8284 8280 8279 8277 8278 8278 8278 8277 8277 8278 8270 8229 8205 8182 8183 8188 8194 8177 8169 8173 8175 8225 8240 8211 8186 8191 8210 8226 8233 8245 8265 8267 8268 8266 8268 8269 8273 8273 8272 8272 8272 8269 8269 8264 8268 8272 8268 8268 8268 8264 8262 8266 8263 8263 8260 8263 8266 8268 8268 8272 8268 8271 
8297 8283 8291 8294 8283 8294 8295 8285 8289 8278 8286 8286 8283 8281 8278 8283 8281 8280 8281 8280 8276 8278 8277 8276 8276 8275 8275 8276 8249 8241 8221 8200 8243 8220 8179 8169 8168 8174 8174 8180 8232 8259 8247 8210 8201 8224 8233 8249 8267 8267 8272 8268 8269 8272 8273 8272 8271 8267 8269 8264 8265 8264 8269 8271 8271 8267 8266 8261 8261 8261 8262 8263 8262 8262 8267 8266 8268 8271 8269 8274 
8301 8291 8289 8293 8289 8293 8284 8290 8291 8278 8288 8283 8278 8285 8282 8280 8281 8277 8279 8278 8274 8274 8275 8278 8276 8275 8276 8276 8261 8263 8230 8251 8265 8231 8182 8167 8170 8174 8171 8176 8234 8262 8261 8247 8219 8228 8238 8247 8265 8268 8272 8266 8267 8265 8271 8269 8268 8265 8265 8263 8264 8267 8267 8270 8267 8265 8265 8266 8261 8258 8262 8261 8265 8266 8264 8268 8271 8274 8268 8268 
8303 8291 8285 8289 8285 8295 8280 8286 8291 8283 8278 8283 8284 8276 8280 8281 8280 8279 8278 8278 8275 8275 8275 8278 8275 8273 8273 8272 8268 8264 8253 8256 8258 8212 8179 8171 8169 8168 8174 8171 8215 8258 8261 8248 8237 8242 8246 8252 8268 8267 8268 8264 8268 8263 8266 8266 8268 8267 8267 8265 8263 8264 8267 8270 8266 8266 8263 8266 8260 8255 8265 8261 8262 8266 8264 8268 8270 8273 8268 8271 
8306 8294 8288 8294 8283 8294 8280 8281 8288 8286 8278 8283 8272 8277 8280 8282 8279 8276 8277 8276 8275 8278 8272 8273 8267 8261 8257 8252 8228 8204 8189 8186 8207 8200 8177 8174 8168 8171 8186 8183 8193 8251 8260 8253 8245 8248 8249 8256 8267 8268 8267 8264 8265 8266 8266 8264 8264 8267 8266 8264 8267 8263 8264 8266 8265 8266 8265 8267 8263 8265 8263 8263 8263 8263 8263 8270 8269 8270 8267 8270 
8309 8288 8300 8297 8294 8293 8280 8286 8288 8286 8283 8281 8272 8280 8280 8276 8278 8282 8282 8275 8272 8272 8243 8218 8204 8197 8190 8195 8193 8178 8170 8173 8173 8190 8179 8179 8170 8174 8188 8198 8197 8231 8259 8253 8247 8252 8254 8258 8266 8266 8267 8264 8265 8268 8265 8263 8267 8267 8265 8263 8262 8265 8264 8267 8266 8267 8264 8265 8265 8266 8268 8263 8263 8264 8269 8266 8268 8269 8266 8272 
8314 8300 8300 8295 8295 8286 8289 8293 8287 8285 8288 8285 8282 8277 8285 8277 8280 8281 8282 8280 8256 8218 8189 8179 8183 8183 8193 8219 8206 8174 8170 8170 8170 8184 8196 8208 8178 8177 8209 8218 8194 8199 8230 8250 8246 8247 8248 8262 8266 8271 8267 8262 8263 8263 8266 8263 8265 8265 8263 8263 8267 8265 8269 8265 8264 8264 8266 8264 8267 8264 8268 8267 8262 8267 8268 8269 8269 8269 8265 8269 
8316 8296 8296 8297 8292 8285 8295 8294 8289 8279 8279 8285 8287 8282 8281 8279 8281 8282 8281 8266 8212 8191 8210 8212 8188 8192 8241 8249 8199 8185 8172 8175 8181 8208 8201 8197 8183 8183 8198 8211 8203 8202 8223 8250 8248 8250 8247 8257 8265 8267 8267 8263 8263 8260 8265 8264 8268 8264 8263 8264 8267 8267 8267 8266 8267 8265 8266 8265 8266 8270 8268 8267 8265 8264 8268 8273 8269 8268 8265 8267 
8320 8300 8301 8297 8291 8290 8293 8287 8293 8281 8282 8290 8288 8281 8283 8281 8281 8278 8273 8221 8192 8208 8264 8259 8205 8231 8262 8230 8207 8228 8187 8224 8225 8239 8205 8199 8199 8189 8191 8196 8206 8226 8225 8242 8245 8249 8250 8261 8265 8265 8264 8264 8263 8266 8267 8262 8267 8264 8265 8264 8268 8265 8265 8265 8264 8265 8266 8268 8266 8269 8268 8271 8270 8272 8272 8272 8270 8267 8265 8269 
8306 8300 8296 8298 8293 8293 8292 8285 8288 8288 8286 8291 8286 8282 8285 8282 8279 8281 8254 8216 8216 8269 8275 8263 8236 8264 8264 8235 8203 8249 8246 8248 8224 8213 8195 8215 8213 8189 8194 8201 8193 8208 8237 8245 8244 8247 8243 8257 8264 8262 8265 8264 8262 8265 8264 8266 8265 8265 8267 8263 8262 8264 8263 8262 8265 8268 8265 8267 8267 8267 8270 8270 8266 8271 8273 8272 8267 8270 8265 8270 
8309 8301 8296 8298 8295 8293 8287 8292 8288 8289 8289 8286 8284 8281 8284 8278 8282 8277 8253 8210 8259 8269 8268 8268 8261 8260 8257 8243 8219 8248 8253 8231 8195 8207 8201 8213 8220 8210 8231 8230 8191 8199 8238 8246 8239 8245 8244 8258 8259 8263 8262 8259 8261 8264 8264 8266 8265 8264 8264 8260 8257 8260 8262 8264 8266 8265 8267 8270 8266 8268 8265 8265 8268 8269 8271 8274 8269 8269 8267 8267 
8309 8302 8312 8301 8297 8295 8296 8289 8290 8290 8290 8284 8285 8281 8281 8273 8271 8266 8238 8221 8244 8238 8239 8240 8235 8235 8239 8242 8234 8240 8243 8241 8213 8186 8185 8198 8237 8263 8272 8245 8195 8198 8219 8240 8241 8245 8240 8264 8265 8263 8261 8259 8265 8261 8265 8264 8267 8263 8264 8265 8262 8261 8262 8263 8266 8267 8267 8268 8267 8269 8268 8262 8261 8269 8270 8271 8269 8265 8266 8268 
8307 8304 8310 8294 8296 8299 8290 8293 8290 8290 8285 8286 8280 8278 8284 8254 8238 8237 8237 8232 8232 8232 8236 8237 8235 8230 8239 8247 8243 8245 8243 8208 8186 8174 8189 8186 8200 8271 8280 8268 8218 8206 8211 8227 8241 8242 8242 8275 8276 8277 8267 8263 8261 8261 8265 8266 8264 8265 8260 8263 8261 8266 8261 8268 8269 8264 8264 8266 8266 8267 8267 8263 8263 8271 8269 8271 8266 8263 8264 8265 
8308 8298 8304 8287 8297 8297 8284 8287 8291 8288 8287 8290 8287 8287 8284 8257 8240 8244 8243 8242 8240 8237 8238 8241 8244 8245 8243 8250 8249 8248 8219 8206 8200 8190 8182 8182 8189 8257 8286 8285 8265 8218 8242 8232 8239 8239 8241 8269 8267 8268 8263 8263 8261 8266 8268 8267 8266 8263 8263 8262 8264 8266 8268 8268 8271 8268 8266 8265 8263 8266 8268 8268 8266 8268 8269 8273 8273 8273 8267 8271 
8311 8301 8296 8293 8287 8296 8292 8294 8291 8291 8291 8289 8287 8293 8282 8265 8254 8256 8249 8246 8246 8241 8245 8246 8247 8243 8241 8240 8230 8228 8220 8227 8212 8210 8199 8193 8198 8223 8267 8273 8264 8239 8252 8245 8246 8244 8243 8249 8258 8266 8263 8262 8261 8267 8267 8264 8265 8264 8262 8264 8267 8270 8267 8269 8270 8269 8267 8265 8262 8265 8267 8270 8269 8269 8269 8274 8272 8274 8266 8265 
8313 8299 8300 8295 8293 8292 8292 8291 8294 8294 8290 8292 8295 8297 8285 8271 8259 8257 8253 8255 8254 8250 8252 8255 8254 8247 8246 8244 8241 8240 8242 8245 8243 8240 8235 8242 8240 8244 8246 8248 8247 8246 8247 8250 8251 8253 8252 8260 8264 8267 8259 8261 8264 8264 8267 8264 8261 8265 8267 8263 8267 8269 8267 8269 8268 8269 8262 8263 8261 8264 8267 8266 8267 8272 8270 8273 8273 8272 8268 8271 
8312 8310 8303 8293 8296 8291 8293 8288 8297 8296 8293 8288 8289 8293 8288 8278 8266 8268 8259 8261 8256 8251 8256 8256 8258 8258 8254 8252 8250 8249 8249 8251 8252 8246 8246 8245 8246 8249 8249 8253 8250 8252 8251 8258 8259 8256 8262 8263 8269 8269 8261 8257 8263 8262 8268 8265 8265 8264 8268 8266 8269 8267 8270 8266 8269 8269 8266 8270 8268 8267 8269 8267 8268 8270 8268 8271 8273 8269 8268 8269 
8315 8301 8298 8299 8296 8295 8297 8292 8290 8291 8290 8289 8293 8294 8293 8292 8278 8269 8268 8264 8261 8262 8263 8263 8259 8258 8256 8255 8255 8252 8254 8251 8253 8253 8253 8253 8251 8250 8252 8252 8255 8256 8256 8259 8263 8265 8269 8273 8270 8261 8261 8258 8262 8257 8268 8266 8267 8263 8265 8264 8266 8265 8263 8268 8269 8269 8267 8269 8268 8265 8268 8267 8272 8273 8270 8273 8273 8272 8269 8272 
8314 8310 8297 8300 8298 8300 8299 8294 8289 8293 8291 8294 8294 8292 8292 8291 8288 8272 8270 8267 8267 8269 8268 8268 8264 8266 8263 8260 8258 8259 8258 8259 8260 8257 8259 8260 8254 8253 8257 8257 8259 8260 8261 8267 8268 8271 8270 8277 8264 8261 8261 8258 8260 8259 8262 8267 8266 8265 8264 8266 8261 8262 8263 8264 8265 8263 8263 8270 8264 8266 8270 8267 8269 8272 8270 8272 8272 8274 8270 8274 
8318 8313 8304 8301 8299 8298 8297 8293 8300 8304 8297 8292 8295 8286 8289 8294 8292 8272 8267 8268 8271 8268 8269 8274 8275 8270 8265 8263 8262 8262 8267 8266 8265 8266 8267 8267 8263 8262 8261 8261 8269 8270 8270 8268 8271 8271 8279 8286 8264 8263 8263 8259 8262 8259 8260 8262 8262 8262 8261 8261 8260 8266 8263 8266 8262 8264 8267 8266 8264 8267 8269 8272 8268 8272 8275 8278 8273 8273 8271 8272 
8320 8304 8311 8306 8299 8301 8307 8298 8302 8294 8298 8295 8295 8288 8293 8290 8291 8272 8263 8266 8269 8262 8271 8273 8276 8275 8269 8270 8266 8267 8267 8268 8274 8264 8269 8268 8269 8268 8264 8268 8275 8274 8273 8269 8271 8273 8288 8284 8260 8262 8262 8262 8262 8260 8265 8264 8263 8263 8262 8257 8262 8264 8265 8264 8260 8266 8264 8265 8267 8268 8270 8269 8270 8274 8275 8277 8274 8273 8272 8275 
8320 8303 8315 8302 8295 8302 8311 8295 8297 8293 8296 8295 8294 8297 8289 8290 8289 8281 8272 8260 8259 8264 8270 8273 8275 8273 8275 8273 8267 8264 8269 8267 8268 8264 8268 8268 8274 8271 8271 8271 8275 8274 8268 8267 8272 8281 8284 8281 8260 8258 8260 8263 8261 8262 8260 8261 8263 8263 8261 8256 8262 8267 8266 8265 8260 8258 8265 8267 8268 8269 8271 8269 8274 8274 8276 8279 8279 8277 8272 8275 
8320 8303 8304 8300 8299 8292 8303 8291 8295 8295 8296 8293 8293 8298 8292 8292 8288 8282 8279 8263 8263 8259 8263 8271 8271 8266 8267 8270 8268 8269 8270 8270 8269 8265 8268 8272 8273 8276 8273 8275 8273 8270 8273 8268 8278 8285 8293 8278 8259 8261 8260 8265 8261 8263 8258 8261 8265 8262 8260 8260 8263 8265 8263 8261 8259 8260 8265 8266 8270 8273 8272 8273 8276 8278 8275 8275 8277 8278 8272 8274 
8318 8307 8298 8301 8298 8294 8295 8302 8288 8286 8295 8293 8294 8293 8292 8287 8288 8288 8286 8274 8270 8270 8273 8273 8272 8274 8269 8268 8269 8272 8263 8272 8265 8263 8266 8269 8272 8273 8274 8272 8272 8273 8274 8272 8285 8294 8296 8275 8260 8258 8262 8262 8264 8261 8261 8265 8263 8261 8258 8264 8266 8265 8265 8259 8257 8264 8267 8267 8271 8270 8276 8274 8271 8273 8275 8275 8278 8281 8274 8279 
8315 8306 8301 8301 8297 8290 8290 8303 8300 8293 8287 8287 8289 8289 8291 8282 8288 8290 8287 8284 8277 8280 8278 8278 8278 8280 8274 8273 8271 8268 8265 8270 8270 8268 8271 8273 8273 8271 8272 8273 8272 8275 8276 8282 8291 8297 8301 8272 8260 8258 8260 8263 8254 8261 8262 8262 8262 8265 8266 8266 8266 8268 8268 8259 8261 8265 8265 8263 8272 8268 8273 8275 8273 8277 8277 8277 8270 8273 8276 8277 
8326 8314 8316 8315 8311 8308 8300 8301 8285 8289 8284 8291 8285 8290 8290 8284 8288 8291 8287 8288 8289 8287 8286 8286 8287 8284 8284 8278 8270 8272 8274 8273 8272 8277 8279 8279 8279 8279 8281 8279 8277 8283 8285 8290 8296 8303 8301 8267 8262 8262 8263 8262 8259 8256 8265 8263 8262 8261 8259 8261 8269 8269 8268 8264 8266 8266 8262 8273 8274 8269 8271 8275 8276 8278 8274 8271 8272 8274 8275 8275 
8370 8361 8371 8403 8373 8342 8338 8312 8280 8292 8278 8287 8282 8288 8285 8283 8282 8286 8292 8297 8296 8294 8290 8283 8288 8285 8287 8284 8283 8278 8275 8272 8276 8281 8280 8285 8285 8284 8285 8286 8283 8288 8295 8294 8302 8306 8295 8267 8262 8262 8261 8263 8258 8255 8261 8259 8263 8258 8260 8263 8267 8266 8261 8262 8266 8259 8260 8261 8268 8271 8274 8274 8273 8274 8276 8272 8270 8271 8272 8275 
8373 8388 8399 8391 8373 8360 8351 8317 8281 8292 8286 8282 8286 8280 8279 8280 8279 8285 8285 8296 8301 8299 8293 8292 8293 8274 8287 8288 8289 8285 8283 8285 8289 8285 8286 8289 8289 8290 8290 8287 8289 8295 8297 8300 8307 8312 8288 8258 8255 8257 8258 8261 8262 8262 8262 8265 8266 8262 8262 8262 8263 8262 8266 8264 8269 8263 8265 8267 8270 8267 8275 8272 8273 8275 8274 8274 8268 8274 8269 8273 
8352 8340 8349 8343 8333 8330 8317 8282 8286 8292 8287 8280 8285 8282 8278 8268 8271 8289 8285 8296 8302 8297 8294 8297 8292 8278 8275 8292 8291 8293 8292 8289 8290 8288 8284 8293 8290 8292 8293 8292 8292 8296 8294 8298 8312 8306 8288 8252 8250 8252 8256 8258 8253 8255 8260 8258 8256 8258 8257 8257 8257 8256 8265 8265 8263 8268 8265 8271 8265 8263 8273 8272 8270 8271 8272 8265 8272 8272 8267 8275 
8340 8330 8325 8305 8324 8318 8302 8278 8287 8288 8295 8298 8287 8282 8280 8277 8272 8295 8288 8300 8293 8295 8295 8294 8304 8287 8295 8292 8296 8293 8291 8294 8295 8290 8283 8290 8290 8290 8292 8295 8293 8293 8291 8301 8305 8302 8283 8253 8246 8249 8251 8253 8249 8249 8252 8251 8250 8252 8249 8250 8252 8258 8260 8261 8261 8261 8264 8268 8270 8267 8271 8269 8271 8262 8266 8267 8269 8263 8263 8273 
8349 8329 8326 8330 8336 8308 8290 8302 8302 8299 8327 8312 8284 8293 8282 8271 8278 8293 8285 8284 8301 8284 8293 8292 8302 8293 8294 8296 8292 8291 8291 8286 8288 8292 8283 8289 8289 8289 8291 8295 8293 8293 8293 8293 8298 8300 8278 8252 8248 8251 8248 8243 8247 8246 8236 8236 8243 8245 8242 8247 8251 8249 8245 8250 8258 8258 8263 8277 8276 8278 8272 8278 8277 8270 8270 8272 8276 8272 8264 8273 
8366 8345 8340 8333 8337 8334 8334 8342 8346 8345 8339 8329 8321 8314 8317 8304 8309 8296 8285 8284 8282 8285 8287 8286 8293 8296 8289 8290 8287 8286 8281 8281 8288 8279 8280 8282 8283 8284 8295 8294 8298 8296 8297 8299 8306 8307 8278 8256 8252 8251 8245 8238 8248 8247 8244 8241 8249 8255 8255 8252 8261 8262 8255 8257 8266 8261 8260 8274 8274 8278 8271 8278 8278 8282 8280 8283 8291 8286 8274 8274 


