P2
80 60
8233
8139 8138 8151 8174 8177 8180 8172 8174 8174 8177 8183 8185 8183 8186 8185 8188 8187 8186 8190 8193 8192 8193 8194 8195 8194 8194 8198 8200 8200 8201 8205 8207 8206 8208 8207 8209 8208 8209 8215 8213 8211 8218 8217 8214 8216 8213 8216 8216 8211 8209 8209 8205 8202 8195 8195 8194 8192 8197 8197 8196 8199 8198 8202 8199 8198 8200 8200 8200 8205 8204 8208 8211 8207 8209 8204 8207 8208 8217 8215 8209 
8123 8130 8161 8172 8180 8179 8175 8174 8178 8177 8181 8184 8182 8184 8187 8186 8188 8186 8187 8191 8195 8191 8192 8194 8194 8195 8199 8204 8204 8201 8206 8203 8208 8207 8208 8206 8209 8208 8211 8214 8209 8217 8216 8215 8213 8216 8215 8214 8209 8210 8206 8203 8201 8198 8196 8195 8190 8194 8195 8195 8199 8201 8196 8197 8198 8199 8200 8204 8204 8204 8206 8206 8206 8210 8206 8209 8209 8212 8215 8209 
8112 8121 8164 8171 8179 8176 8176 8179 8178 8179 8181 8182 8181 8184 8186 8186 8187 8188 8192 8194 8195 8194 8191 8191 8194 8197 8200 8202 8201 8203 8202 8204 8208 8209 8210 8207 8209 8209 8212 8213 8212 8214 8215 8214 8215 8216 8214 8216 8210 8210 8209 8207 8207 8200 8196 8197 8195 8194 8198 8194 8199 8199 8199 8199 8198 8197 8200 8201 8204 8203 8206 8207 8208 8205 8204 8207 8207 8208 8216 8210 
8116 8131 8171 8173 8180 8177 8177 8178 8182 8182 8180 8178 8183 8185 8187 8189 8191 8190 8192 8191 8191 8188 8186 8192 8193 8194 8200 8202 8202 8206 8205 8202 8206 8208 8209 8209 8208 8212 8212 8213 8212 8215 8214 8213 8215 8211 8214 8211 8210 8209 8208 8207 8205 8200 8198 8198 8197 8196 8197 8198 8200 8201 8199 8200 8199 8199 8200 8201 8204 8207 8203 8207 8206 8206 8205 8205 8202 8209 8213 8200 
8121 8148 8177 8173 8177 8179 8179 8176 8178 8178 8177 8177 8181 8187 8185 8189 8191 8187 8190 8191 8192 8187 8187 8188 8193 8195 8201 8202 8202 8203 8206 8207 8207 8209 8207 8211 8208 8212 8216 8215 8216 8216 8219 8214 8212 8212 8214 8212 8212 8212 8209 8207 8207 8202 8200 8198 8196 8197 8199 8200 8201 8199 8201 8199 8197 8199 8197 8198 8204 8204 8204 8206 8206 8205 8199 8203 8201 8204 8210 8205 
8139 8160 8178 8177 8176 8180 8181 8182 8182 8177 8173 8183 8187 8184 8184 8186 8190 8185 8192 8193 8192 8188 8191 8187 8197 8194 8196 8199 8202 8203 8208 8208 8209 8209 8212 8210 8213 8214 8215 8218 8216 8216 8220 8213 8212 8214 8216 8214 8212 8213 8212 8208 8206 8202 8201 8201 8197 8195 8199 8198 8202 8202 8203 8201 8200 8201 8200 8200 8202 8201 8203 8205 8204 8205 8201 8204 8202 8200 8209 8202 
8153 8171 8179 8182 8179 8181 8187 8187 8184 8177 8177 8189 8187 8184 8186 8188 8188 8185 8190 8194 8194 8193 8195 8195 8198 8193 8196 8199 8202 8206 8208 8210 8211 8209 8209 8211 8212 8215 8221 8217 8219 8217 8216 8214 8214 8215 8218 8216 8212 8211 8212 8207 8208 8202 8199 8201 8199 8201 8201 8203 8204 8204 8203 8202 8203 8203 8203 8205 8203 8201 8205 8206 8205 8201 8203 8206 8201 8200 8207 8198 
8167 8177 8179 8186 8181 8187 8187 8192 8189 8177 8187 8189 8187 8187 8190 8189 8190 8191 8191 8192 8199 8195 8198 8197 8201 8198 8197 8201 8202 8209 8208 8210 8212 8210 8214 8212 8213 8215 8219 8217 8216 8221 8221 8219 8218 8218 8220 8219 8211 8211 8210 8206 8208 8202 8202 8201 8201 8199 8201 8200 8203 8201 8204 8204 8203 8200 8205 8205 8204 8202 8205 8205 8205 8204 8200 8203 8202 8201 8207 8199 
8175 8175 8181 8180 8185 8188 8191 8189 8187 8182 8183 8187 8188 8188 8187 8189 8192 8192 8195 8198 8197 8193 8195 8196 8197 8198 8200 8205 8208 8207 8208 8207 8210 8212 8213 8214 8214 8215 8216 8217 8218 8220 8218 8214 8219 8218 8218 8215 8211 8209 8209 8206 8208 8202 8204 8198 8199 8200 8202 8199 8202 8201 8205 8203 8200 8202 8204 8204 8206 8203 8202 8205 8204 8203 8196 8204 8201 8203 8208 8197 
8182 8177 8184 8183 8184 8187 8181 8188 8185 8185 8188 8189 8187 8191 8189 8191 8193 8192 8197 8197 8196 8192 8194 8197 8194 8195 8200 8207 8207 8208 8209 8207 8209 8214 8215 8214 8214 8214 8218 8215 8214 8217 8217 8213 8212 8214 8215 8215 8208 8206 8205 8205 8208 8204 8198 8198 8195 8200 8200 8201 8202 8205 8201 8202 8199 8201 8205 8205 8204 8201 8204 8204 8203 8204 8198 8202 8201 8203 8207 8196 
8186 8180 8189 8183 8186 8188 8179 8184 8185 8184 8185 8185 8188 8191 8190 8191 8193 8193 8194 8196 8198 8194 8196 8194 8196 8197 8204 8209 8208 8208 8208 8210 8210 8212 8212 8212 8214 8212 8216 8218 8213 8215 8207 8193 8182 8184 8189 8187 8186 8182 8177 8179 8200 8200 8196 8197 8197 8199 8203 8201 8202 8203 8202 8200 8199 8200 8206 8205 8204 8204 8202 8206 8204 8201 8203 8205 8204 8204 8205 8197 
8188 8189 8189 8184 8181 8182 8181 8184 8188 8184 8188 8187 8186 8188 8189 8193 8191 8189 8193 8199 8197 8194 8193 8197 8196 8197 8202 8208 8208 8208 8211 8210 8210 8211 8209 8212 8212 8216 8214 8212 8213 8207 8167 8148 8144 8148 8153 8150 8149 8147 8153 8155 8187 8198 8198 8196 8197 8198 8202 8202 8198 8197 8201 8201 8200 8200 8202 8203 8203 8198 8202 8205 8203 8202 8202 8205 8204 8207 8210 8200 
8191 8189 8184 8183 8182 8185 8184 8182 8184 8186 8184 8188 8187 8188 8191 8194 8195 8193 8193 8195 8199 8195 8192 8194 8198 8196 8202 8207 8207 8207 8212 8207 8208 8208 8207 8213 8210 8213 8213 8209 8209 8205 8176 8154 8145 8148 8166 8166 8148 8144 8145 8144 8163 8184 8193 8198 8193 8198 8199 8200 8203 8198 8200 8200 8201 8203 8202 8204 8200 8200 8201 8203 8203 8201 8200 8205 8203 8205 8213 8200 
8189 8193 8193 8187 8189 8186 8185 8185 8182 8186 8191 8191 8188 8188 8192 8192 8197 8197 8194 8201 8199 8195 8191 8195 8196 8197 8200 8206 8207 8208 8212 8209 8210 8210 8209 8212 8211 8210 8212 8198 8182 8169 8169 8169 8158 8172 8174 8155 8143 8138 8140 8140 8145 8150 8169 8193 8200 8199 8199 8200 8201 8197 8201 8200 8202 8200 8202 8201 8202 8199 8199 8203 8205 8200 8198 8203 8206 8204 8211 8204 
8188 8182 8193 8191 8188 8187 8183 8188 8188 8187 8192 8193 8192 8193 8196 8195 8196 8194 8198 8198 8194 8192 8190 8195 8198 8195 8201 8206 8205 8208 8207 8205 8207 8210 8210 8210 8211 8210 8202 8157 8145 8148 8147 8150 8174 8198 8174 8180 8167 8152 8149 8165 8170 8177 8185 8194 8196 8197 8201 8200 8201 8198 8198 8200 8202 8203 8204 8203 8200 8201 8201 8204 8203 8202 8197 8201 8204 8205 8207 8197 
8189 8183 8187 8188 8187 8186 8185 8187 8189 8190 8191 8189 8191 8194 8194 8195 8196 8197 8201 8198 8196 8195 8191 8194 8195 8195 8205 8206 8204 8207 8208 8202 8205 8204 8205 8209 8212 8207 8205 8167 8148 8144 8146 8151 8185 8178 8159 8161 8183 8190 8187 8200 8202 8200 8195 8197 8198 8197 8197 8199 8199 8197 8199 8198 8202 8199 8203 8201 8199 8198 8199 8201 8201 8200 8200 8202 8202 8207 8207 8199 
8190 8183 8189 8190 8185 8189 8186 8190 8189 8191 8192 8194 8192 8193 8194 8196 8196 8197 8202 8201 8198 8195 8198 8193 8194 8200 8203 8204 8200 8203 8205 8205 8196 8165 8165 8193 8210 8208 8208 8200 8162 8148 8147 8163 8182 8148 8145 8142 8143 8152 8174 8197 8203 8200 8195 8193 8194 8195 8198 8197 8198 8197 8198 8200 8200 8201 8203 8201 8199 8199 8200 8202 8199 8198 8201 8197 8200 8203 8206 8201 
8193 8184 8191 8186 8189 8192 8187 8190 8195 8194 8194 8196 8192 8197 8198 8198 8197 8198 8204 8200 8197 8195 8199 8191 8195 8198 8203 8200 8192 8175 8182 8194 8164 8148 8146 8172 8205 8210 8210 8209 8197 8173 8162 8178 8148 8143 8142 8137 8135 8141 8144 8167 8195 8197 8193 8193 8194 8194 8194 8195 8195 8197 8197 8198 8199 8201 8201 8199 8199 8199 8200 8199 8200 8199 8197 8201 8201 8203 8206 8198 
8191 8185 8194 8188 8191 8192 8193 8194 8195 8192 8195 8196 8197 8201 8200 8200 8197 8199 8199 8200 8200 8198 8200 8196 8196 8201 8199 8169 8142 8137 8141 8164 8150 8146 8147 8155 8188 8197 8199 8199 8194 8166 8165 8156 8145 8145 8148 8135 8133 8136 8137 8139 8161 8189 8193 8192 8194 8197 8196 8196 8195 8195 8200 8201 8202 8198 8200 8198 8200 8199 8198 8198 8198 8200 8199 8198 8198 8201 8206 8195 
8188 8188 8193 8189 8187 8195 8193 8195 8197 8195 8196 8200 8198 8199 8202 8201 8200 8199 8197 8199 8199 8199 8201 8195 8194 8190 8173 8144 8137 8138 8140 8168 8150 8151 8151 8149 8153 8153 8166 8177 8158 8155 8171 8155 8155 8146 8143 8136 8133 8133 8136 8141 8143 8169 8192 8192 8192 8195 8192 8195 8195 8193 8201 8203 8203 8201 8198 8198 8199 8198 8200 8199 8200 8198 8199 8197 8198 8200 8203 8193 
8191 8190 8195 8187 8189 8192 8190 8194 8200 8196 8196 8198 8198 8199 8199 8200 8200 8197 8194 8199 8199 8198 8199 8193 8155 8138 8134 8140 8152 8157 8153 8153 8149 8154 8156 8157 8147 8147 8155 8157 8151 8156 8163 8152 8150 8149 8145 8139 8134 8135 8134 8152 8179 8191 8191 8193 8196 8193 8195 8191 8194 8196 8198 8201 8198 8199 8201 8201 8200 8200 8199 8200 8202 8196 8196 8200 8200 8198 8203 8196 
8195 8192 8193 8197 8197 8198 8189 8198 8189 8195 8195 8197 8201 8202 8197 8198 8199 8196 8192 8199 8200 8199 8199 8181 8131 8128 8132 8138 8148 8148 8142 8148 8153 8153 8151 8148 8159 8156 8153 8159 8156 8151 8146 8140 8140 8148 8167 8159 8151 8162 8162 8170 8188 8195 8194 8193 8193 8194 8193 8192 8196 8196 8197 8200 8197 8201 8202 8201 8199 8200 8199 8199 8201 8198 8198 8198 8198 8200 8203 8195 
8198 8195 8200 8199 8198 8196 8185 8189 8191 8198 8201 8198 8202 8203 8200 8197 8199 8196 8193 8197 8200 8201 8198 8157 8131 8128 8146 8144 8137 8133 8140 8147 8145 8145 8141 8141 8145 8143 8150 8152 8151 8151 8163 8143 8139 8143 8187 8200 8213 8233 8230 8203 8181 8176 8182 8188 8193 8193 8192 8191 8195 8197 8196 8199 8199 8200 8202 8199 8198 8201 8201 8200 8200 8199 8199 8201 8204 8203 8208 8202 
8197 8197 8201 8200 8199 8198 8193 8189 8199 8199 8197 8197 8202 8202 8200 8202 8202 8199 8196 8206 8202 8200 8199 8144 8135 8160 8183 8145 8134 8132 8141 8151 8144 8144 8140 8146 8144 8141 8142 8156 8165 8168 8205 8172 8149 8142 8170 8205 8220 8209 8200 8193 8162 8156 8157 8165 8179 8193 8194 8196 8196 8196 8197 8200 8198 8198 8201 8200 8197 8199 8197 8200 8201 8201 8201 8200 8199 8202 8209 8202 
8198 8189 8198 8200 8199 8198 8190 8199 8199 8196 8197 8199 8203 8203 8203 8202 8200 8201 8194 8195 8204 8199 8197 8170 8161 8189 8167 8135 8133 8134 8146 8148 8146 8140 8139 8152 8162 8148 8141 8154 8159 8170 8181 8175 8178 8170 8169 8192 8201 8208 8202 8188 8159 8160 8160 8162 8184 8192 8193 8193 8198 8198 8197 8199 8199 8199 8198 8201 8199 8198 8197 8199 8199 8197 8197 8200 8201 8206 8210 8206 
8197 8188 8196 8201 8200 8193 8199 8189 8193 8198 8198 8204 8204 8200 8201 8202 8203 8200 8199 8197 8203 8198 8198 8186 8183 8185 8159 8138 8139 8144 8147 8147 8142 8141 8141 8146 8152 8163 8153 8150 8154 8165 8180 8181 8170 8159 8164 8184 8200 8201 8202 8188 8161 8161 8163 8169 8188 8192 8196 8198 8197 8196 8197 8198 8200 8201 8198 8200 8196 8199 8194 8200 8201 8201 8202 8202 8203 8204 8210 8206 
8197 8194 8196 8199 8193 8199 8194 8191 8195 8197 8198 8205 8202 8205 8200 8199 8201 8201 8198 8198 8200 8198 8197 8199 8191 8175 8163 8141 8149 8145 8151 8155 8150 8141 8142 8144 8147 8154 8156 8150 8154 8162 8157 8154 8149 8145 8147 8151 8180 8191 8193 8183 8163 8166 8165 8176 8192 8195 8198 8198 8197 8196 8198 8197 8196 8198 8198 8197 8199 8194 8199 8199 8200 8201 8201 8205 8204 8204 8212 8207 
8197 8196 8200 8200 8200 8194 8196 8196 8194 8199 8197 8205 8204 8202 8201 8202 8203 8202 8200 8201 8200 8196 8200 8199 8187 8178 8176 8163 8180 8169 8166 8156 8146 8140 8148 8151 8150 8148 8145 8152 8148 8143 8143 8142 8144 8147 8142 8142 8156 8177 8190 8174 8164 8170 8167 8182 8193 8196 8198 8197 8197 8194 8195 8201 8199 8200 8198 8196 8195 8195 8198 8199 8201 8203 8203 8204 8204 8209 8215 8211 
8196 8192 8196 8200 8199 8200 8197 8198 8203 8203 8202 8204 8203 8199 8202 8200 8202 8203 8202 8201 8199 8196 8201 8202 8193 8187 8188 8191 8186 8179 8169 8154 8147 8146 8147 8146 8138 8136 8138 8141 8146 8144 8141 8140 8138 8140 8140 8157 8153 8160 8181 8168 8172 8174 8169 8192 8192 8197 8195 8197 8197 8197 8199 8201 8200 8200 8199 8198 8195 8198 8197 8199 8199 8198 8204 8204 8205 8212 8216 8213 
8195 8191 8197 8198 8197 8203 8201 8198 8201 8198 8204 8206 8201 8203 8199 8203 8201 8200 8200 8198 8199 8197 8198 8200 8210 8205 8196 8189 8182 8171 8167 8155 8144 8146 8143 8136 8138 8139 8139 8137 8144 8148 8143 8142 8138 8136 8135 8135 8140 8152 8162 8171 8175 8174 8174 8192 8196 8196 8196 8198 8195 8199 8198 8198 8198 8199 8198 8195 8193 8194 8196 8197 8199 8206 8202 8202 8206 8211 8221 8212 
8195 8194 8198 8198 8201 8202 8195 8202 8200 8198 8198 8200 8202 8202 8201 8201 8204 8201 8200 8200 8197 8193 8199 8194 8212 8214 8195 8183 8175 8171 8166 8151 8146 8146 8138 8135 8139 8139 8139 8143 8144 8148 8146 8142 8140 8139 8138 8136 8135 8147 8163 8171 8176 8174 8183 8193 8196 8196 8194 8195 8193 8196 8199 8200 8200 8197 8196 8195 8193 8196 8197 8196 8198 8201 8203 8205 8208 8211 8220 8217 
8198 8195 8197 8198 8199 8204 8199 8200 8204 8201 8196 8202 8203 8200 8203 8202 8202 8200 8199 8201 8196 8199 8197 8185 8198 8198 8195 8183 8170 8172 8170 8162 8156 8150 8145 8145 8145 8135 8139 8141 8146 8148 8146 8145 8142 8145 8140 8139 8137 8139 8155 8172 8177 8174 8191 8195 8196 8196 8193 8196 8196 8195 8198 8197 8197 8196 8197 8195 8194 8195 8197 8199 8201 8201 8203 8206 8208 8213 8218 8214 
8202 8196 8200 8198 8198 8202 8196 8198 8203 8204 8197 8204 8199 8201 8201 8201 8202 8199 8204 8199 8198 8200 8200 8195 8190 8186 8186 8173 8164 8168 8172 8165 8169 8160 8148 8144 8144 8141 8141 8142 8145 8149 8144 8142 8145 8146 8147 8146 8144 8145 8152 8168 8177 8179 8196 8191 8195 8199 8195 8193 8194 8193 8199 8196 8196 8198 8196 8197 8196 8197 8197 8197 8201 8200 8200 8206 8206 8213 8217 8214 
8200 8196 8208 8203 8202 8201 8197 8199 8200 8202 8205 8201 8200 8200 8201 8202 8199 8198 8204 8198 8198 8202 8202 8207 8188 8185 8178 8168 8170 8172 8171 8164 8159 8158 8150 8144 8142 8141 8143 8147 8149 8150 8145 8145 8144 8145 8151 8153 8160 8167 8170 8172 8175 8184 8195 8193 8196 8197 8192 8194 8197 8194 8197 8197 8195 8199 8196 8197 8197 8197 8197 8201 8200 8201 8206 8203 8207 8213 8217 8211 
8200 8199 8206 8203 8202 8203 8198 8203 8197 8199 8204 8202 8200 8201 8202 8203 8205 8201 8205 8204 8204 8202 8204 8211 8190 8182 8176 8168 8167 8174 8174 8172 8163 8154 8152 8148 8143 8143 8146 8149 8148 8151 8147 8145 8145 8143 8147 8155 8164 8168 8173 8173 8173 8187 8196 8194 8194 8193 8194 8194 8194 8194 8201 8199 8194 8197 8195 8194 8194 8197 8197 8200 8202 8198 8202 8205 8207 8210 8216 8217 
8204 8204 8205 8205 8203 8201 8205 8202 8199 8200 8197 8204 8206 8205 8201 8203 8206 8206 8206 8207 8206 8203 8208 8208 8187 8176 8171 8168 8164 8172 8176 8176 8170 8160 8155 8145 8141 8143 8147 8148 8145 8146 8145 8145 8144 8143 8144 8148 8160 8164 8170 8173 8174 8190 8196 8197 8194 8195 8194 8195 8194 8197 8200 8197 8196 8197 8194 8196 8196 8196 8199 8200 8199 8199 8203 8202 8205 8205 8213 8212 
8207 8206 8208 8202 8206 8202 8202 8201 8202 8198 8201 8207 8202 8204 8202 8202 8205 8202 8203 8205 8202 8201 8206 8201 8191 8174 8167 8170 8174 8173 8171 8169 8169 8167 8150 8143 8142 8143 8140 8142 8142 8141 8142 8146 8144 8146 8145 8145 8153 8162 8168 8174 8178 8189 8198 8197 8193 8195 8195 8194 8194 8194 8197 8195 8195 8194 8196 8195 8194 8191 8198 8199 8200 8203 8205 8204 8207 8209 8214 8211 
8205 8204 8207 8203 8204 8204 8205 8198 8201 8204 8204 8203 8204 8201 8201 8203 8199 8199 8199 8204 8201 8198 8204 8190 8200 8183 8168 8171 8174 8170 8172 8173 8173 8169 8146 8142 8143 8140 8140 8141 8143 8142 8145 8149 8145 8146 8143 8143 8149 8158 8163 8168 8175 8191 8194 8195 8194 8196 8196 8193 8194 8193 8195 8196 8195 8194 8192 8197 8195 8197 8198 8200 8201 8199 8203 8207 8207 8206 8211 8212 
8205 8206 8208 8209 8207 8209 8204 8204 8201 8202 8201 8204 8201 8201 8205 8197 8200 8199 8198 8202 8199 8197 8197 8190 8194 8185 8173 8172 8170 8169 8175 8174 8174 8167 8147 8154 8148 8142 8137 8139 8138 8141 8144 8155 8153 8150 8150 8147 8149 8159 8159 8158 8177 8196 8193 8196 8195 8195 8194 8192 8191 8192 8194 8195 8193 8195 8194 8195 8199 8194 8199 8201 8203 8202 8202 8205 8205 8208 8210 8206 
8205 8209 8214 8208 8205 8210 8205 8200 8202 8202 8203 8201 8204 8204 8200 8196 8198 8199 8203 8202 8200 8197 8197 8194 8178 8169 8174 8172 8169 8169 8170 8173 8173 8168 8160 8160 8165 8141 8137 8139 8137 8141 8148 8155 8158 8159 8161 8160 8157 8160 8156 8159 8188 8199 8193 8194 8193 8195 8196 8195 8193 8195 8194 8196 8194 8195 8194 8195 8193 8195 8199 8196 8200 8203 8203 8206 8206 8200 8207 8203 
8204 8204 8213 8203 8206 8207 8202 8200 8204 8202 8203 8204 8199 8199 8205 8198 8198 8199 8203 8206 8203 8199 8200 8200 8182 8166 8174 8177 8171 8170 8172 8170 8173 8165 8168 8164 8166 8146 8141 8139 8137 8146 8150 8159 8157 8160 8158 8161 8161 8164 8162 8170 8194 8197 8193 8193 8194 8193 8194 8195 8194 8198 8198 8197 8194 8194 8192 8194 8195 8199 8199 8197 8199 8201 8201 8205 8202 8204 8207 8205 
8205 8202 8216 8199 8204 8208 8199 8201 8207 8206 8203 8204 8202 8203 8202 8204 8200 8205 8207 8205 8204 8200 8199 8201 8197 8180 8188 8182 8173 8168 8173 8174 8176 8175 8174 8172 8169 8154 8141 8138 8138 8145 8150 8156 8160 8157 8162 8163 8164 8163 8170 8189 8198 8191 8195 8195 8194 8195 8194 8199 8198 8198 8198 8199 8196 8196 8192 8191 8193 8195 8199 8197 8198 8202 8204 8205 8209 8204 8206 8203 
8207 8202 8205 8199 8201 8203 8202 8204 8205 8204 8204 8206 8204 8206 8200 8199 8200 8201 8201 8202 8201 8197 8201 8201 8199 8190 8187 8188 8180 8166 8169 8174 8176 8176 8176 8178 8171 8164 8148 8134 8139 8149 8150 8158 8158 8163 8165 8165 8166 8169 8183 8195 8193 8189 8199 8194 8193 8194 8195 8198 8196 8202 8199 8198 8199 8197 8193 8191 8195 8197 8196 8199 8199 8202 8200 8205 8206 8204 8207 8205 
8206 8205 8209 8200 8203 8204 8202 8201 8205 8205 8201 8205 8206 8207 8198 8201 8202 8200 8196 8202 8203 8195 8199 8200 8199 8195 8188 8191 8190 8174 8168 8170 8178 8178 8176 8177 8167 8168 8157 8145 8150 8163 8164 8160 8164 8169 8169 8168 8168 8177 8196 8190 8192 8190 8197 8196 8194 8195 8197 8198 8201 8200 8201 8201 8200 8198 8196 8195 8195 8197 8199 8199 8196 8199 8199 8204 8203 8202 8200 8200 
8210 8208 8208 8200 8204 8203 8202 8200 8205 8204 8202 8199 8202 8207 8200 8200 8201 8202 8198 8202 8201 8197 8198 8199 8198 8201 8191 8188 8194 8188 8178 8171 8171 8173 8172 8171 8167 8167 8172 8171 8165 8169 8167 8166 8165 8169 8171 8172 8184 8191 8193 8188 8187 8195 8200 8198 8198 8196 8195 8199 8199 8200 8200 8200 8200 8199 8199 8197 8197 8195 8196 8196 8204 8199 8201 8200 8202 8200 8200 8199 
8209 8199 8204 8203 8203 8204 8205 8198 8201 8200 8201 8200 8206 8203 8202 8206 8204 8201 8202 8204 8200 8201 8202 8197 8199 8200 8201 8191 8188 8192 8193 8181 8179 8176 8177 8178 8173 8167 8167 8166 8171 8170 8172 8171 8170 8175 8180 8191 8190 8195 8192 8187 8188 8195 8198 8197 8200 8198 8197 8197 8200 8196 8199 8199 8197 8201 8198 8196 8195 8199 8198 8197 8200 8200 8198 8199 8201 8196 8202 8200 
8207 8210 8202 8205 8206 8207 8203 8205 8201 8199 8199 8206 8204 8201 8202 8203 8208 8201 8201 8201 8207 8199 8201 8202 8201 8198 8201 8194 8189 8189 8194 8193 8193 8190 8184 8184 8173 8167 8171 8164 8173 8177 8179 8178 8181 8189 8193 8196 8196 8199 8193 8184 8196 8199 8197 8201 8199 8200 8201 8194 8200 8198 8199 8202 8199 8198 8198 8194 8195 8196 8197 8198 8198 8200 8199 8196 8197 8196 8200 8201 
8211 8208 8208 8206 8204 8205 8207 8206 8210 8209 8205 8206 8206 8198 8205 8207 8210 8202 8203 8203 8207 8198 8199 8205 8205 8201 8203 8202 8194 8190 8192 8200 8199 8204 8198 8197 8186 8177 8180 8180 8190 8192 8194 8193 8192 8197 8201 8201 8203 8198 8196 8195 8203 8200 8199 8200 8200 8200 8201 8195 8198 8198 8197 8199 8200 8200 8198 8192 8196 8194 8197 8199 8198 8198 8199 8201 8200 8200 8203 8206 
8207 8200 8212 8208 8206 8210 8209 8206 8207 8204 8206 8207 8208 8201 8206 8206 8206 8203 8202 8203 8204 8198 8203 8202 8206 8204 8207 8209 8203 8194 8194 8195 8206 8205 8200 8195 8197 8192 8193 8190 8195 8199 8199 8196 8195 8200 8207 8203 8194 8192 8193 8201 8205 8201 8197 8200 8199 8199 8199 8195 8197 8199 8201 8201 8196 8194 8196 8195 8196 8195 8197 8197 8201 8202 8199 8202 8197 8198 8202 8203 
8209 8200 8209 8205 8206 8212 8213 8205 8205 8199 8209 8211 8210 8209 8204 8206 8208 8209 8207 8203 8198 8201 8206 8202 8206 8206 8210 8210 8207 8200 8199 8196 8203 8206 8206 8205 8202 8197 8194 8194 8195 8203 8200 8201 8199 8202 8205 8200 8190 8191 8201 8206 8207 8202 8200 8196 8199 8198 8196 8194 8198 8200 8200 8196 8193 8195 8196 8197 8198 8200 8198 8201 8202 8205 8201 8200 8199 8199 8199 8198 
8204 8199 8210 8204 8206 8208 8211 8202 8205 8204 8205 8206 8206 8210 8207 8206 8203 8204 8206 8203 8201 8200 8203 8206 8206 8204 8207 8209 8215 8213 8210 8201 8195 8199 8202 8206 8206 8207 8205 8205 8203 8206 8209 8202 8206 8202 8203 8199 8198 8201 8202 8204 8208 8203 8195 8200 8202 8200 8197 8193 8201 8201 8197 8193 8192 8194 8197 8195 8200 8203 8199 8198 8204 8205 8200 8199 8200 8203 8202 8195 
8203 8204 8205 8204 8207 8208 8204 8212 8201 8200 8203 8204 8207 8208 8206 8205 8203 8206 8206 8203 8199 8202 8208 8207 8204 8208 8210 8210 8218 8217 8209 8212 8206 8197 8197 8200 8199 8203 8211 8210 8209 8210 8210 8199 8197 8198 8202 8204 8204 8203 8208 8204 8208 8203 8203 8200 8200 8198 8195 8201 8203 8202 8198 8189 8189 8196 8194 8193 8201 8199 8203 8203 8203 8200 8200 8203 8198 8202 8204 8198 
8205 8202 8208 8211 8208 8206 8205 8212 8209 8205 8203 8199 8204 8206 8207 8202 8203 8208 8207 8202 8198 8204 8205 8206 8208 8208 8215 8218 8215 8214 8215 8217 8212 8210 8209 8205 8201 8197 8202 8204 8200 8202 8199 8203 8207 8207 8210 8210 8206 8205 8207 8210 8206 8203 8204 8200 8201 8200 8202 8202 8203 8203 8204 8194 8197 8199 8194 8195 8203 8199 8201 8206 8203 8205 8203 8198 8196 8200 8202 8200 
8206 8204 8209 8208 8214 8213 8209 8210 8200 8207 8201 8202 8201 8212 8208 8204 8206 8208 8203 8204 8204 8201 8205 8208 8212 8208 8212 8216 8210 8211 8214 8215 8212 8219 8214 8216 8213 8211 8211 8208 8209 8213 8213 8215 8214 8214 8216 8209 8208 8207 8211 8213 8208 8200 8200 8202 8204 8198 8198 8196 8205 8204 8201 8196 8194 8194 8191 8200 8200 8198 8202 8203 8204 8203 8200 8195 8195 8197 8199 8199 
8208 8210 8211 8213 8207 8213 8209 8208 8200 8210 8201 8206 8210 8212 8205 8203 8204 8201 8208 8203 8203 8205 8202 8207 8210 8205 8210 8215 8215 8210 8212 8211 8215 8216 8219 8214 8218 8217 8216 8214 8211 8213 8217 8214 8214 8216 8207 8215 8213 8212 8215 8216 8207 8202 8200 8201 8203 8197 8200 8201 8204 8198 8196 8198 8198 8193 8194 8194 8194 8197 8204 8202 8202 8201 8200 8197 8195 8193 8197 8191 
8206 8208 8216 8213 8209 8210 8213 8205 8199 8213 8208 8204 8210 8209 8207 8203 8202 8203 8197 8203 8208 8201 8203 8206 8209 8191 8208 8212 8215 8213 8214 8213 8219 8215 8219 8220 8217 8217 8214 8214 8216 8218 8219 8217 8216 8215 8206 8214 8212 8216 8215 8211 8213 8205 8201 8201 8200 8201 8200 8196 8199 8195 8195 8198 8195 8192 8193 8196 8195 8195 8200 8204 8203 8197 8199 8197 8194 8195 8197 8184 
8209 8207 8223 8207 8204 8209 8207 8200 8206 8208 8206 8199 8205 8208 8207 8200 8199 8203 8197 8203 8208 8201 8203 8206 8206 8195 8194 8212 8220 8215 8215 8215 8223 8215 8218 8222 8221 8217 8214 8215 8213 8217 8216 8214 8215 8212 8212 8211 8212 8213 8210 8212 8204 8200 8199 8199 8198 8199 8197 8196 8196 8195 8197 8197 8193 8192 8193 8199 8191 8193 8199 8200 8198 8195 8192 8192 8192 8193 8193 8180 
8214 8214 8219 8196 8207 8205 8210 8202 8207 8203 8205 8198 8199 8206 8206 8204 8196 8198 8200 8201 8197 8197 8202 8205 8210 8202 8213 8214 8213 8212 8209 8215 8221 8221 8211 8216 8217 8211 8210 8216 8216 8214 8212 8216 8215 8212 8212 8214 8213 8213 8210 8209 8203 8199 8197 8193 8196 8196 8196 8193 8195 8193 8197 8194 8192 8194 8194 8200 8195 8195 8200 8197 8193 8193 8188 8190 8192 8186 8189 8182 
8219 8205 8206 8204 8205 8201 8198 8209 8210 8201 8202 8198 8197 8204 8201 8191 8190 8194 8195 8195 8202 8194 8194 8202 8209 8208 8213 8216 8212 8211 8215 8210 8209 8221 8210 8217 8217 8218 8212 8217 8215 8214 8214 8208 8207 8208 8214 8216 8212 8210 8208 8203 8201 8199 8194 8191 8193 8196 8198 8190 8197 8192 8196 8190 8192 8192 8192 8198 8199 8197 8196 8193 8193 8190 8191 8190 8190 8185 8189 8182 
8221 8207 8210 8201 8197 8200 8197 8201 8201 8200 8199 8192 8196 8196 8190 8190 8190 8192 8198 8197 8193 8191 8193 8196 8203 8204 8208 8214 8213 8209 8211 8207 8214 8215 8214 8215 8214 8212 8217 8217 8217 8214 8213 8209 8207 8213 8212 8214 8209 8210 8206 8199 8201 8196 8191 8190 8194 8195 8194 8189 8193 8193 8194 8194 8193 8193 8193 8201 8204 8203 8201 8201 8200 8196 8192 8190 8188 8184 8188 8184 


