P2
80 60
8335
8124 8131 8146 8152 8173 8200 8210 8218 8218 8224 8228 8238 8252 8252 8251 8262 8251 8241 8239 8236 8237 8237 8237 8236 8236 8233 8226 8223 8224 8218 8211 8203 8196 8186 8183 8186 8187 8189 8203 8212 8212 8203 8191 8174 8165 8166 8169 8175 8209 8232 8234 8233 8232 8240 8245 8243 8250 8250 8250 8248 8247 8244 8248 8249 8252 8260 8263 8264 8267 8272 8270 8272 8270 8274 8275 8278 8282 8285 8283 8281 
8126 8133 8150 8167 8199 8220 8231 8244 8243 8249 8249 8253 8260 8257 8261 8267 8259 8254 8255 8246 8249 8240 8241 8241 8238 8228 8227 8223 8220 8222 8219 8203 8189 8181 8178 8179 8185 8192 8210 8217 8215 8194 8182 8174 8170 8176 8165 8161 8207 8231 8236 8236 8242 8243 8246 8248 8251 8247 8249 8245 8247 8242 8247 8245 8245 8250 8249 8253 8258 8261 8266 8268 8267 8269 8269 8269 8269 8276 8282 8278 
8126 8134 8150 8184 8225 8238 8242 8248 8254 8256 8257 8261 8264 8263 8264 8258 8261 8258 8264 8261 8255 8251 8242 8239 8237 8229 8223 8218 8220 8233 8222 8206 8189 8182 8186 8189 8200 8212 8234 8226 8218 8208 8210 8206 8207 8207 8200 8195 8229 8246 8249 8250 8250 8250 8253 8251 8253 8254 8255 8250 8250 8250 8249 8249 8246 8247 8246 8252 8253 8257 8259 8260 8261 8260 8261 8262 8261 8266 8274 8276 
8130 8141 8157 8202 8237 8246 8248 8251 8262 8264 8269 8273 8272 8267 8263 8259 8258 8258 8266 8260 8262 8258 8252 8242 8238 8233 8226 8224 8232 8230 8234 8223 8219 8214 8221 8225 8239 8246 8256 8258 8255 8257 8257 8262 8260 8267 8263 8258 8263 8267 8264 8264 8263 8266 8267 8264 8265 8264 8267 8262 8263 8258 8258 8257 8255 8253 8256 8258 8259 8258 8254 8260 8259 8259 8261 8260 8260 8261 8274 8274 
8142 8162 8192 8235 8257 8264 8262 8266 8267 8270 8266 8269 8268 8259 8255 8247 8249 8244 8251 8244 8244 8241 8239 8231 8229 8228 8228 8223 8230 8232 8234 8232 8230 8232 8239 8246 8256 8259 8266 8267 8271 8276 8275 8281 8282 8283 8277 8274 8273 8271 8270 8271 8271 8271 8276 8273 8273 8276 8275 8268 8266 8268 8266 8260 8256 8261 8264 8263 8267 8266 8259 8260 8259 8259 8259 8261 8260 8262 8269 8272 
8155 8200 8234 8252 8261 8261 8253 8266 8255 8246 8232 8233 8230 8228 8229 8228 8230 8229 8233 8229 8231 8228 8225 8225 8224 8228 8228 8227 8230 8234 8231 8232 8238 8239 8247 8254 8266 8266 8271 8275 8277 8278 8279 8289 8286 8286 8283 8277 8276 8276 8273 8271 8270 8271 8274 8274 8273 8277 8274 8271 8272 8272 8268 8265 8262 8263 8265 8267 8267 8268 8264 8264 8263 8263 8264 8265 8263 8264 8263 8267 
8171 8222 8251 8253 8251 8237 8224 8222 8217 8227 8229 8226 8227 8229 8231 8231 8232 8232 8230 8229 8229 8231 8227 8227 8232 8228 8228 8229 8233 8233 8232 8234 8239 8245 8254 8259 8269 8275 8276 8275 8280 8282 8282 8284 8286 8289 8285 8280 8276 8273 8272 8272 8272 8268 8274 8273 8275 8275 8276 8276 8273 8271 8272 8268 8265 8264 8263 8266 8267 8268 8268 8269 8267 8270 8269 8266 8268 8263 8263 8261 
8191 8230 8247 8237 8224 8205 8189 8183 8197 8226 8226 8227 8231 8230 8233 8236 8235 8232 8234 8232 8232 8230 8230 8225 8226 8225 8226 8227 8228 8232 8230 8231 8238 8242 8251 8260 8267 8271 8277 8275 8279 8282 8282 8283 8280 8286 8284 8276 8276 8274 8268 8270 8274 8272 8274 8271 8273 8277 8274 8274 8271 8271 8270 8269 8264 8265 8264 8268 8264 8268 8272 8270 8266 8273 8267 8268 8265 8266 8265 8257 
8204 8232 8237 8207 8195 8178 8165 8168 8211 8226 8227 8230 8232 8240 8236 8232 8236 8231 8236 8232 8230 8229 8226 8225 8222 8222 8220 8225 8229 8230 8229 8230 8234 8241 8251 8259 8267 8271 8274 8275 8278 8280 8279 8279 8281 8281 8282 8277 8274 8272 8266 8267 8269 8269 8268 8270 8272 8273 8276 8272 8271 8268 8267 8264 8264 8264 8263 8263 8267 8266 8268 8268 8266 8271 8268 8269 8267 8267 8263 8260 
8218 8234 8215 8192 8176 8163 8156 8184 8221 8228 8227 8230 8237 8234 8234 8228 8231 8229 8231 8232 8225 8223 8224 8222 8223 8220 8224 8226 8232 8228 8230 8233 8237 8234 8230 8234 8254 8268 8273 8272 8277 8276 8273 8274 8277 8278 8278 8273 8274 8266 8266 8268 8269 8266 8267 8268 8270 8268 8270 8267 8268 8264 8266 8264 8262 8263 8263 8268 8267 8265 8266 8267 8262 8266 8264 8264 8265 8268 8266 8260 
8221 8222 8192 8180 8168 8155 8161 8210 8227 8228 8225 8228 8235 8234 8230 8227 8226 8227 8230 8227 8225 8223 8223 8223 8222 8224 8221 8228 8233 8229 8230 8230 8227 8171 8125 8124 8157 8234 8269 8269 8270 8264 8262 8266 8266 8270 8273 8270 8269 8265 8262 8261 8264 8266 8269 8265 8268 8270 8267 8267 8267 8265 8266 8266 8265 8262 8265 8262 8265 8264 8264 8261 8260 8262 8263 8267 8267 8263 8263 8259 
8219 8211 8187 8173 8162 8158 8188 8222 8231 8229 8228 8231 8235 8234 8230 8227 8227 8226 8231 8225 8221 8221 8221 8222 8223 8224 8225 8228 8230 8227 8231 8229 8207 8117 8103 8095 8100 8172 8260 8258 8253 8226 8212 8213 8217 8244 8257 8262 8267 8265 8261 8261 8267 8264 8268 8262 8266 8266 8265 8265 8264 8263 8264 8267 8262 8265 8263 8264 8264 8264 8259 8262 8260 8260 8261 8266 8264 8267 8265 8262 
8217 8198 8179 8169 8165 8171 8210 8228 8231 8228 8227 8234 8233 8232 8229 8226 8226 8228 8230 8223 8221 8225 8223 8225 8223 8224 8224 8224 8227 8227 8225 8229 8215 8119 8096 8093 8095 8171 8249 8234 8166 8122 8131 8149 8156 8170 8182 8210 8245 8256 8259 8260 8266 8268 8262 8252 8240 8247 8257 8260 8261 8261 8263 8266 8266 8264 8267 8262 8264 8262 8259 8261 8259 8261 8263 8265 8263 8264 8266 8258 
8214 8193 8178 8167 8168 8192 8225 8236 8233 8229 8230 8238 8237 8234 8233 8226 8227 8228 8226 8221 8221 8221 8219 8221 8220 8221 8223 8223 8225 8227 8223 8223 8225 8194 8121 8098 8102 8148 8181 8146 8103 8095 8102 8130 8144 8156 8159 8160 8185 8236 8258 8258 8264 8258 8217 8165 8146 8166 8197 8240 8256 8261 8260 8264 8265 8266 8264 8263 8265 8264 8263 8261 8260 8262 8263 8265 8263 8262 8263 8260 
8207 8193 8178 8174 8178 8218 8236 8241 8237 8234 8233 8236 8238 8235 8233 8225 8227 8225 8225 8216 8217 8217 8217 8216 8212 8204 8212 8216 8218 8214 8207 8207 8210 8216 8203 8140 8105 8111 8148 8165 8094 8088 8091 8109 8130 8153 8175 8222 8256 8259 8259 8256 8259 8227 8141 8129 8134 8138 8155 8191 8243 8253 8258 8257 8258 8259 8260 8263 8262 8262 8262 8265 8259 8261 8265 8265 8265 8264 8262 8254 
8217 8201 8199 8192 8205 8244 8249 8248 8241 8239 8239 8239 8239 8232 8236 8230 8224 8222 8221 8217 8218 8215 8218 8212 8172 8109 8125 8166 8180 8148 8131 8119 8123 8129 8145 8208 8130 8117 8145 8119 8110 8108 8108 8113 8145 8228 8256 8261 8262 8255 8256 8256 8240 8158 8128 8130 8139 8149 8156 8166 8196 8240 8257 8258 8257 8255 8258 8258 8259 8261 8262 8264 8261 8261 8262 8264 8263 8262 8262 8255 
8239 8226 8224 8205 8226 8252 8254 8253 8247 8243 8240 8239 8240 8234 8229 8227 8222 8218 8219 8216 8216 8216 8217 8213 8159 8088 8085 8090 8107 8112 8107 8097 8102 8105 8121 8192 8171 8129 8146 8166 8215 8217 8210 8203 8178 8234 8254 8251 8249 8244 8242 8226 8167 8131 8134 8140 8150 8156 8161 8168 8172 8218 8249 8257 8251 8255 8252 8254 8255 8258 8260 8262 8259 8259 8261 8262 8262 8261 8252 8257 
8267 8262 8245 8225 8243 8253 8253 8254 8248 8243 8240 8239 8237 8235 8227 8223 8217 8216 8218 8213 8213 8215 8217 8212 8160 8089 8085 8087 8098 8107 8097 8088 8093 8102 8119 8187 8167 8139 8181 8221 8243 8221 8186 8181 8203 8214 8198 8172 8162 8157 8160 8166 8153 8151 8151 8148 8153 8155 8161 8166 8170 8191 8237 8248 8249 8251 8250 8252 8254 8257 8259 8257 8255 8257 8258 8257 8258 8255 8252 8249 
8292 8286 8266 8244 8252 8255 8254 8251 8244 8241 8236 8237 8234 8231 8227 8222 8215 8212 8213 8210 8213 8213 8211 8213 8200 8119 8093 8097 8102 8131 8100 8088 8093 8099 8129 8209 8136 8143 8208 8240 8186 8118 8106 8113 8123 8136 8138 8130 8128 8132 8139 8202 8189 8162 8159 8157 8158 8156 8154 8161 8165 8176 8229 8245 8247 8247 8249 8251 8251 8254 8251 8256 8252 8256 8253 8254 8252 8253 8249 8246 
8303 8291 8278 8252 8251 8254 8248 8247 8242 8238 8238 8232 8234 8227 8227 8217 8214 8211 8213 8211 8210 8209 8205 8204 8208 8198 8161 8144 8131 8152 8139 8103 8095 8117 8191 8190 8128 8184 8214 8177 8111 8101 8105 8114 8118 8126 8130 8129 8129 8130 8152 8224 8238 8207 8163 8160 8168 8169 8164 8163 8166 8169 8210 8240 8244 8247 8247 8247 8249 8253 8249 8252 8250 8252 8253 8250 8251 8248 8244 8245 
8308 8314 8292 8251 8252 8246 8245 8243 8241 8239 8233 8234 8231 8231 8224 8217 8212 8206 8213 8209 8204 8178 8129 8112 8130 8170 8199 8188 8149 8115 8109 8155 8165 8132 8158 8163 8118 8152 8125 8107 8104 8109 8110 8117 8122 8132 8129 8127 8129 8167 8209 8231 8236 8233 8215 8171 8167 8169 8171 8164 8168 8169 8188 8230 8241 8244 8244 8245 8249 8246 8249 8247 8247 8248 8245 8244 8246 8245 8242 8241 
8331 8335 8275 8248 8246 8247 8241 8243 8236 8233 8230 8232 8232 8230 8225 8213 8210 8210 8211 8207 8167 8114 8098 8094 8093 8095 8155 8110 8091 8092 8094 8136 8210 8139 8119 8146 8115 8113 8109 8104 8103 8111 8114 8123 8128 8133 8133 8128 8180 8227 8229 8231 8231 8236 8235 8222 8188 8169 8164 8162 8162 8172 8176 8205 8230 8243 8242 8243 8244 8245 8246 8245 8243 8245 8244 8242 8240 8240 8240 8240 
8335 8307 8255 8253 8251 8250 8244 8241 8236 8230 8229 8230 8227 8227 8221 8214 8210 8207 8209 8185 8127 8108 8098 8093 8094 8098 8141 8101 8083 8085 8112 8107 8165 8152 8113 8118 8111 8106 8108 8106 8106 8105 8120 8129 8129 8138 8136 8129 8197 8227 8229 8230 8233 8235 8239 8237 8233 8197 8164 8159 8157 8161 8167 8173 8207 8236 8240 8240 8243 8242 8243 8241 8238 8240 8238 8238 8238 8239 8238 8237 
8326 8265 8253 8252 8253 8247 8244 8240 8234 8233 8229 8229 8228 8226 8217 8214 8211 8207 8204 8157 8126 8115 8104 8101 8102 8149 8199 8168 8102 8092 8136 8095 8101 8113 8113 8105 8103 8108 8114 8116 8113 8119 8184 8148 8133 8135 8133 8133 8180 8227 8231 8232 8233 8234 8239 8240 8242 8236 8200 8159 8155 8153 8158 8166 8205 8233 8237 8239 8240 8239 8239 8237 8233 8237 8235 8238 8237 8238 8237 8232 
8293 8255 8253 8253 8254 8247 8244 8238 8234 8232 8231 8230 8230 8224 8214 8215 8208 8206 8205 8165 8130 8129 8133 8158 8190 8205 8205 8202 8175 8101 8100 8101 8098 8099 8109 8101 8102 8105 8114 8119 8124 8173 8184 8200 8171 8132 8129 8126 8167 8225 8229 8231 8234 8240 8239 8239 8243 8240 8237 8197 8160 8154 8161 8194 8227 8232 8233 8236 8237 8237 8236 8236 8231 8236 8234 8236 8236 8235 8234 8233 
8251 8247 8254 8249 8251 8247 8241 8237 8233 8229 8230 8230 8228 8225 8212 8207 8207 8202 8207 8175 8162 8186 8206 8215 8213 8205 8177 8163 8178 8106 8100 8101 8105 8105 8113 8142 8125 8108 8114 8121 8142 8169 8154 8130 8118 8120 8122 8124 8125 8164 8214 8229 8235 8236 8240 8240 8241 8238 8237 8228 8187 8163 8189 8222 8228 8235 8232 8230 8230 8233 8231 8231 8228 8231 8232 8232 8234 8234 8233 8233 
8250 8248 8251 8249 8251 8241 8239 8240 8237 8231 8231 8231 8227 8219 8215 8205 8205 8204 8209 8207 8210 8215 8218 8217 8211 8165 8103 8100 8106 8101 8102 8107 8111 8114 8115 8127 8139 8106 8110 8106 8109 8125 8122 8114 8115 8118 8119 8117 8114 8111 8140 8215 8233 8237 8241 8238 8236 8229 8215 8223 8227 8219 8225 8228 8228 8228 8228 8229 8228 8229 8230 8229 8227 8229 8229 8231 8233 8234 8231 8231 
8246 8249 8250 8251 8250 8243 8241 8239 8235 8233 8230 8228 8224 8218 8211 8205 8210 8203 8210 8207 8213 8216 8218 8214 8193 8113 8094 8091 8099 8112 8105 8106 8114 8116 8110 8092 8095 8092 8110 8100 8093 8094 8102 8110 8114 8119 8116 8115 8114 8109 8112 8167 8229 8229 8235 8223 8184 8145 8126 8159 8213 8222 8227 8227 8227 8223 8225 8223 8225 8226 8224 8222 8227 8226 8228 8227 8229 8232 8229 8231 
8245 8247 8245 8249 8245 8246 8243 8241 8236 8232 8230 8228 8221 8213 8209 8208 8206 8209 8212 8211 8217 8216 8203 8164 8117 8092 8088 8089 8090 8098 8108 8113 8118 8117 8108 8095 8092 8088 8095 8094 8091 8087 8102 8111 8112 8117 8120 8117 8118 8113 8114 8126 8202 8225 8204 8141 8116 8111 8112 8117 8156 8213 8225 8226 8225 8222 8223 8223 8224 8224 8222 8225 8223 8228 8229 8228 8232 8230 8229 8228 
8243 8243 8245 8245 8244 8241 8239 8238 8235 8230 8230 8226 8218 8214 8209 8207 8211 8208 8210 8206 8202 8173 8132 8099 8094 8089 8092 8090 8094 8086 8100 8113 8119 8117 8111 8095 8098 8094 8098 8102 8094 8087 8123 8132 8114 8119 8121 8116 8120 8127 8141 8145 8191 8169 8126 8114 8111 8110 8109 8112 8127 8184 8219 8222 8220 8222 8219 8217 8221 8222 8224 8224 8226 8224 8224 8229 8230 8228 8230 8228 
8246 8245 8247 8246 8243 8241 8236 8236 8233 8234 8228 8221 8220 8215 8213 8210 8212 8210 8207 8174 8184 8185 8116 8096 8098 8090 8088 8097 8108 8087 8092 8114 8122 8122 8110 8101 8100 8091 8090 8103 8106 8101 8100 8102 8111 8122 8121 8121 8138 8189 8208 8189 8157 8130 8127 8123 8123 8120 8119 8121 8130 8155 8205 8215 8217 8218 8217 8218 8220 8223 8222 8226 8220 8225 8223 8225 8230 8231 8228 8229 
8244 8246 8244 8242 8240 8236 8233 8236 8232 8229 8221 8217 8216 8213 8210 8209 8210 8194 8181 8205 8199 8134 8097 8100 8097 8088 8085 8109 8155 8100 8086 8108 8121 8123 8114 8105 8103 8102 8107 8114 8124 8131 8116 8099 8097 8104 8124 8135 8147 8172 8190 8192 8183 8174 8156 8144 8140 8134 8131 8132 8136 8144 8165 8204 8211 8215 8215 8217 8218 8221 8222 8221 8220 8221 8223 8227 8227 8232 8230 8228 
8236 8238 8244 8236 8235 8233 8234 8230 8223 8223 8203 8171 8168 8169 8170 8170 8167 8182 8214 8212 8143 8111 8105 8117 8108 8094 8091 8088 8111 8100 8095 8099 8117 8120 8119 8104 8107 8109 8117 8121 8131 8138 8134 8121 8101 8098 8103 8126 8172 8200 8200 8199 8198 8193 8175 8176 8172 8137 8130 8132 8133 8143 8153 8186 8208 8214 8214 8214 8215 8216 8216 8217 8215 8220 8224 8225 8226 8227 8227 8225 
8230 8233 8233 8232 8230 8229 8227 8227 8222 8215 8183 8121 8115 8115 8119 8122 8164 8212 8219 8202 8128 8127 8173 8196 8138 8104 8092 8081 8092 8095 8094 8113 8122 8106 8105 8106 8110 8110 8112 8117 8127 8139 8136 8131 8101 8101 8103 8107 8162 8213 8194 8168 8177 8184 8181 8171 8197 8184 8153 8132 8132 8142 8156 8186 8207 8212 8211 8212 8216 8216 8217 8216 8215 8218 8220 8223 8225 8225 8224 8223 
8228 8228 8230 8231 8229 8226 8225 8222 8219 8212 8176 8121 8114 8112 8118 8135 8201 8215 8217 8185 8123 8131 8129 8149 8160 8150 8119 8091 8094 8097 8093 8095 8099 8100 8104 8112 8109 8112 8105 8104 8115 8129 8137 8138 8123 8110 8107 8109 8133 8176 8176 8160 8151 8169 8182 8175 8186 8204 8203 8180 8180 8182 8187 8203 8206 8207 8209 8210 8213 8211 8217 8213 8212 8218 8220 8220 8220 8224 8220 8218 
8226 8227 8231 8229 8225 8228 8223 8222 8217 8209 8175 8125 8120 8114 8115 8167 8214 8216 8214 8160 8111 8114 8122 8129 8167 8200 8173 8143 8122 8094 8090 8100 8093 8105 8105 8107 8103 8105 8090 8094 8114 8132 8140 8142 8125 8114 8113 8111 8116 8133 8152 8145 8135 8144 8174 8180 8179 8203 8206 8206 8204 8201 8204 8204 8204 8205 8209 8209 8209 8212 8212 8213 8212 8214 8216 8217 8220 8221 8220 8217 
8223 8225 8232 8230 8229 8226 8218 8216 8215 8211 8179 8130 8120 8114 8119 8197 8215 8213 8192 8119 8111 8117 8122 8134 8202 8199 8175 8150 8140 8105 8105 8096 8083 8081 8086 8092 8097 8097 8085 8084 8092 8115 8132 8145 8137 8118 8116 8112 8110 8115 8139 8138 8134 8127 8153 8178 8174 8193 8204 8204 8206 8202 8205 8202 8202 8205 8207 8207 8206 8212 8211 8210 8212 8212 8216 8218 8216 8217 8215 8216 
8222 8227 8230 8228 8228 8217 8215 8214 8214 8209 8193 8131 8121 8110 8150 8206 8212 8211 8161 8120 8117 8121 8121 8164 8204 8160 8139 8124 8117 8105 8103 8091 8083 8079 8086 8093 8099 8102 8092 8088 8091 8090 8094 8127 8134 8130 8121 8118 8114 8115 8122 8130 8137 8136 8147 8175 8173 8185 8202 8204 8203 8202 8201 8200 8203 8203 8205 8204 8208 8204 8208 8210 8208 8214 8215 8214 8215 8214 8214 8213 
8223 8227 8227 8228 8225 8217 8217 8220 8215 8215 8207 8150 8122 8112 8180 8207 8209 8184 8146 8125 8120 8121 8141 8202 8160 8128 8125 8123 8117 8110 8107 8106 8089 8086 8091 8091 8088 8101 8103 8097 8093 8082 8082 8109 8134 8137 8134 8121 8119 8112 8120 8125 8137 8141 8154 8173 8178 8182 8204 8203 8201 8199 8203 8198 8199 8202 8203 8202 8204 8200 8206 8207 8205 8210 8211 8213 8213 8215 8212 8213 
8224 8226 8224 8225 8221 8220 8220 8219 8216 8213 8210 8174 8125 8120 8198 8210 8204 8140 8130 8123 8130 8158 8205 8185 8136 8128 8127 8125 8123 8116 8114 8130 8106 8084 8085 8085 8082 8096 8114 8113 8094 8082 8087 8103 8129 8140 8144 8129 8118 8118 8117 8138 8142 8153 8168 8174 8179 8180 8201 8199 8198 8198 8200 8203 8198 8202 8200 8204 8202 8201 8206 8206 8205 8208 8208 8213 8213 8214 8209 8212 
8221 8222 8223 8223 8220 8219 8218 8222 8217 8216 8213 8194 8132 8136 8207 8211 8207 8178 8153 8161 8192 8214 8212 8161 8135 8131 8129 8124 8120 8119 8122 8122 8106 8086 8088 8086 8090 8107 8113 8118 8117 8098 8089 8105 8130 8137 8147 8144 8137 8136 8130 8143 8142 8147 8165 8176 8177 8187 8201 8197 8197 8199 8201 8201 8200 8200 8200 8199 8201 8203 8205 8206 8206 8208 8208 8212 8210 8211 8209 8210 
8220 8220 8221 8219 8220 8220 8219 8221 8219 8215 8211 8202 8139 8156 8211 8211 8211 8213 8215 8211 8216 8217 8214 8162 8133 8130 8131 8123 8120 8121 8121 8114 8114 8100 8095 8098 8106 8116 8120 8116 8125 8126 8117 8121 8136 8142 8148 8150 8144 8135 8138 8148 8152 8152 8166 8178 8181 8192 8203 8197 8199 8195 8199 8200 8197 8201 8199 8199 8201 8201 8203 8207 8206 8208 8212 8213 8214 8213 8213 8208 
8217 8220 8221 8214 8218 8219 8219 8218 8216 8218 8211 8194 8133 8171 8211 8212 8215 8210 8215 8216 8216 8218 8214 8171 8136 8133 8131 8124 8123 8121 8118 8120 8126 8120 8112 8109 8114 8122 8118 8113 8136 8132 8132 8138 8135 8143 8147 8153 8148 8149 8164 8160 8166 8169 8180 8187 8189 8197 8202 8200 8205 8199 8201 8201 8197 8197 8197 8197 8201 8199 8205 8203 8206 8210 8210 8213 8214 8213 8210 8208 
8217 8217 8219 8217 8217 8219 8217 8217 8214 8214 8213 8177 8134 8171 8212 8212 8214 8211 8214 8215 8215 8216 8214 8188 8137 8134 8128 8120 8117 8118 8114 8124 8133 8130 8124 8115 8114 8108 8108 8108 8148 8144 8135 8134 8137 8142 8147 8176 8181 8176 8196 8199 8207 8214 8215 8206 8199 8201 8202 8201 8201 8195 8200 8201 8194 8196 8196 8199 8198 8202 8204 8203 8204 8206 8209 8210 8209 8210 8209 8207 
8218 8218 8218 8218 8222 8221 8218 8216 8216 8212 8214 8182 8159 8198 8218 8216 8212 8210 8215 8214 8217 8216 8214 8208 8168 8134 8127 8121 8118 8119 8115 8125 8138 8136 8133 8120 8118 8114 8112 8115 8148 8164 8151 8139 8131 8136 8145 8186 8209 8208 8220 8240 8246 8255 8255 8215 8203 8201 8206 8203 8201 8197 8199 8200 8200 8200 8199 8200 8198 8202 8203 8205 8204 8211 8212 8212 8211 8209 8206 8207 
8215 8218 8221 8221 8221 8220 8218 8219 8214 8215 8214 8216 8215 8217 8220 8215 8215 8216 8218 8214 8217 8215 8216 8215 8203 8140 8125 8123 8132 8124 8119 8130 8140 8135 8132 8121 8124 8115 8113 8124 8148 8163 8161 8144 8128 8131 8138 8198 8218 8218 8244 8272 8274 8271 8262 8210 8202 8203 8202 8198 8202 8196 8200 8202 8199 8200 8199 8198 8198 8204 8206 8205 8206 8210 8208 8209 8211 8209 8208 8205 
8215 8219 8223 8222 8225 8220 8219 8220 8216 8216 8214 8221 8222 8219 8218 8216 8214 8217 8219 8215 8220 8216 8217 8217 8209 8174 8133 8139 8151 8136 8127 8134 8141 8132 8134 8125 8134 8114 8111 8131 8145 8156 8164 8154 8139 8134 8133 8181 8221 8222 8251 8275 8287 8278 8244 8195 8201 8205 8205 8199 8201 8198 8203 8198 8197 8198 8198 8199 8203 8203 8207 8209 8206 8211 8211 8210 8213 8208 8205 8205 
8219 8222 8225 8223 8228 8223 8225 8220 8218 8218 8218 8221 8221 8220 8216 8218 8217 8215 8219 8218 8217 8219 8218 8212 8214 8198 8160 8165 8175 8149 8137 8138 8138 8133 8132 8130 8125 8113 8114 8133 8143 8148 8158 8158 8145 8142 8135 8185 8212 8220 8258 8283 8287 8264 8214 8189 8202 8203 8203 8199 8199 8198 8199 8199 8200 8197 8201 8201 8203 8207 8210 8209 8207 8209 8212 8211 8211 8207 8204 8202 
8223 8227 8230 8226 8227 8225 8220 8224 8219 8218 8217 8218 8223 8222 8220 8215 8214 8213 8217 8216 8216 8219 8220 8218 8214 8212 8205 8179 8180 8156 8136 8138 8135 8133 8135 8127 8118 8111 8113 8131 8141 8144 8148 8151 8147 8149 8151 8188 8215 8227 8260 8281 8273 8225 8196 8193 8205 8203 8200 8199 8197 8196 8197 8199 8197 8200 8199 8201 8203 8205 8208 8209 8209 8210 8209 8209 8210 8207 8209 8200 
8229 8230 8233 8228 8228 8220 8221 8221 8217 8217 8218 8218 8222 8218 8220 8216 8214 8216 8219 8215 8219 8219 8219 8216 8216 8215 8216 8201 8174 8162 8145 8140 8134 8129 8134 8133 8118 8110 8114 8134 8142 8144 8141 8147 8146 8151 8152 8169 8203 8220 8248 8259 8228 8201 8194 8199 8204 8203 8201 8199 8198 8199 8198 8199 8198 8200 8198 8203 8201 8206 8211 8211 8209 8210 8212 8210 8212 8209 8205 8201 
8231 8231 8231 8228 8227 8227 8219 8219 8216 8214 8218 8215 8219 8222 8219 8214 8214 8213 8216 8216 8219 8219 8219 8218 8216 8215 8216 8213 8203 8174 8159 8156 8138 8131 8135 8137 8120 8111 8112 8131 8140 8140 8141 8146 8149 8150 8151 8155 8178 8197 8230 8220 8206 8198 8194 8201 8203 8206 8203 8203 8201 8201 8202 8198 8197 8199 8196 8202 8204 8207 8211 8210 8211 8213 8210 8213 8212 8207 8207 8204 
8233 8233 8229 8227 8229 8224 8217 8218 8215 8210 8212 8215 8220 8222 8216 8216 8215 8210 8215 8215 8215 8220 8217 8220 8219 8218 8218 8220 8215 8200 8171 8159 8149 8137 8138 8142 8140 8126 8118 8131 8138 8138 8140 8138 8146 8154 8162 8166 8193 8213 8215 8207 8206 8199 8202 8204 8208 8207 8207 8205 8204 8200 8200 8202 8197 8200 8200 8203 8204 8211 8210 8214 8212 8216 8211 8213 8213 8209 8203 8203 
8232 8231 8232 8229 8226 8219 8217 8217 8215 8210 8210 8210 8216 8217 8210 8211 8213 8211 8214 8212 8214 8219 8220 8217 8217 8221 8219 8223 8222 8218 8195 8182 8165 8158 8166 8167 8166 8159 8163 8162 8136 8134 8135 8139 8145 8156 8176 8184 8209 8211 8207 8210 8202 8203 8209 8207 8210 8206 8211 8209 8209 8202 8204 8205 8201 8201 8204 8203 8204 8207 8214 8214 8214 8216 8213 8213 8210 8209 8206 8205 
8229 8232 8233 8232 8224 8218 8214 8219 8216 8210 8211 8211 8212 8217 8212 8210 8211 8210 8212 8211 8215 8215 8221 8222 8219 8221 8222 8226 8228 8228 8215 8195 8187 8187 8190 8184 8168 8157 8162 8153 8131 8133 8138 8155 8167 8181 8206 8211 8212 8210 8212 8210 8206 8214 8215 8213 8214 8213 8210 8213 8210 8205 8207 8204 8200 8205 8203 8206 8207 8209 8211 8211 8215 8217 8213 8213 8211 8210 8207 8204 
8232 8235 8234 8228 8224 8219 8215 8216 8213 8214 8210 8211 8215 8216 8215 8211 8212 8209 8215 8214 8214 8218 8218 8218 8216 8220 8225 8229 8234 8234 8231 8217 8200 8197 8209 8207 8198 8179 8162 8155 8155 8169 8182 8195 8205 8213 8222 8217 8219 8219 8212 8211 8218 8218 8220 8220 8217 8217 8218 8212 8209 8207 8209 8207 8202 8205 8205 8205 8205 8211 8212 8212 8216 8215 8214 8213 8208 8206 8206 8206 
8233 8232 8234 8226 8223 8217 8213 8218 8215 8210 8214 8211 8215 8214 8213 8211 8210 8209 8214 8212 8216 8216 8218 8218 8219 8219 8225 8231 8237 8241 8241 8234 8223 8207 8199 8209 8209 8173 8157 8156 8162 8178 8203 8210 8215 8221 8221 8221 8219 8218 8216 8223 8228 8225 8225 8221 8219 8214 8218 8215 8214 8209 8206 8207 8204 8203 8206 8206 8206 8208 8212 8212 8214 8213 8209 8210 8208 8204 8205 8201 
8230 8235 8232 8226 8221 8216 8217 8214 8215 8211 8210 8210 8212 8216 8213 8208 8210 8207 8214 8212 8216 8214 8216 8217 8220 8221 8228 8235 8242 8244 8246 8246 8243 8232 8217 8204 8208 8206 8188 8159 8161 8167 8199 8216 8222 8227 8230 8227 8225 8231 8230 8229 8230 8226 8228 8222 8223 8217 8222 8216 8214 8212 8209 8208 8206 8205 8208 8208 8209 8209 8211 8210 8209 8210 8210 8208 8206 8203 8203 8200 
8234 8232 8230 8219 8220 8217 8216 8217 8217 8212 8212 8207 8214 8212 8212 8208 8202 8208 8212 8211 8213 8215 8215 8218 8222 8225 8230 8240 8246 8245 8251 8251 8250 8248 8242 8231 8223 8213 8209 8192 8181 8183 8213 8231 8226 8235 8239 8242 8245 8242 8232 8226 8231 8231 8229 8228 8228 8226 8223 8220 8216 8211 8210 8208 8205 8208 8209 8209 8211 8212 8210 8209 8209 8209 8209 8206 8204 8201 8204 8203 
8237 8231 8229 8222 8222 8216 8217 8215 8212 8210 8209 8211 8210 8210 8209 8202 8205 8207 8210 8210 8215 8209 8214 8215 8221 8225 8231 8240 8245 8244 8246 8249 8254 8252 8252 8248 8241 8239 8237 8230 8226 8230 8235 8243 8249 8258 8258 8250 8246 8240 8237 8230 8229 8229 8231 8230 8229 8227 8224 8223 8215 8210 8215 8211 8207 8208 8209 8208 8213 8210 8210 8210 8206 8208 8206 8203 8202 8200 8200 8196 
8247 8229 8224 8222 8214 8215 8218 8216 8215 8215 8211 8210 8210 8204 8204 8198 8200 8208 8208 8211 8224 8215 8213 8211 8218 8224 8231 8238 8241 8243 8241 8243 8245 8247 8235 8239 8244 8244 8247 8248 8248 8247 8247 8260 8259 8264 8259 8254 8245 8238 8229 8229 8232 8232 8234 8228 8228 8228 8224 8223 8215 8215 8215 8210 8207 8210 8208 8207 8209 8211 8211 8206 8206 8210 8209 8201 8199 8198 8200 8198 


