P2
80 60
8388
8276 8279 8288 8295 8305 8306 8298 8301 8296 8292 8293 8295 8305 8308 8308 8311 8316 8322 8324 8318 8315 8310 8306 8304 8304 8299 8295 8283 8268 8256 8248 8249 8244 8248 8242 8242 8244 8241 8239 8231 8221 8220 8216 8224 8241 8280 8295 8300 8302 8302 8301 8304 8304 8301 8299 8298 8298 8298 8294 8295 8296 8299 8301 8299 8303 8311 8313 8318 8318 8321 8318 8320 8322 8324 8326 8327 8332 8345 8348 8351 
8279 8271 8278 8286 8284 8284 8270 8267 8261 8264 8269 8273 8279 8291 8294 8302 8308 8310 8309 8309 8303 8298 8296 8288 8290 8286 8287 8281 8272 8277 8275 8280 8275 8283 8286 8287 8295 8291 8293 8288 8287 8286 8283 8276 8281 8294 8303 8305 8306 8306 8307 8306 8303 8300 8297 8297 8299 8302 8295 8292 8295 8299 8299 8298 8298 8297 8295 8298 8316 8317 8316 8319 8321 8321 8321 8329 8335 8347 8352 8351 
8264 8256 8259 8256 8258 8257 8257 8257 8259 8264 8264 8268 8271 8277 8281 8288 8291 8293 8285 8281 8277 8281 8280 8281 8281 8282 8285 8283 8281 8286 8290 8294 8294 8303 8305 8308 8310 8312 8311 8309 8310 8316 8313 8316 8318 8316 8322 8316 8313 8309 8312 8313 8308 8303 8304 8301 8301 8302 8297 8294 8297 8301 8301 8299 8300 8298 8294 8299 8308 8313 8316 8320 8319 8318 8322 8326 8339 8350 8356 8354 
8261 8256 8262 8264 8268 8269 8270 8271 8273 8276 8269 8272 8271 8278 8283 8286 8289 8289 8280 8279 8274 8280 8280 8280 8281 8287 8288 8287 8287 8290 8296 8299 8303 8311 8311 8315 8317 8320 8317 8313 8310 8318 8320 8322 8323 8321 8326 8322 8315 8313 8316 8317 8315 8304 8303 8301 8304 8300 8298 8296 8299 8301 8301 8299 8297 8297 8293 8294 8303 8312 8313 8319 8317 8316 8321 8329 8340 8355 8356 8357 
8268 8263 8271 8272 8278 8277 8281 8281 8278 8277 8273 8274 8275 8287 8287 8291 8290 8286 8285 8283 8277 8277 8281 8279 8278 8285 8290 8289 8285 8296 8300 8305 8308 8313 8315 8319 8322 8319 8320 8314 8317 8322 8322 8325 8325 8323 8324 8324 8317 8317 8319 8316 8317 8307 8304 8303 8300 8301 8299 8301 8299 8302 8302 8303 8299 8299 8298 8296 8304 8313 8312 8318 8314 8316 8321 8330 8344 8356 8357 8361 
8272 8270 8278 8282 8286 8288 8290 8290 8285 8283 8277 8283 8283 8287 8287 8286 8290 8285 8283 8280 8277 8283 8280 8282 8279 8282 8282 8286 8285 8291 8295 8308 8309 8316 8317 8318 8318 8319 8318 8315 8319 8321 8321 8324 8324 8319 8323 8320 8320 8320 8319 8316 8314 8306 8302 8299 8300 8301 8300 8302 8303 8300 8302 8300 8298 8301 8301 8297 8298 8309 8309 8317 8314 8317 8322 8332 8346 8352 8354 8350 
8276 8275 8282 8287 8288 8291 8290 8291 8289 8283 8285 8286 8288 8288 8289 8289 8284 8282 8284 8284 8280 8284 8284 8283 8280 8282 8284 8285 8279 8288 8294 8302 8307 8311 8310 8312 8317 8313 8312 8309 8310 8304 8312 8322 8323 8321 8322 8318 8318 8315 8315 8312 8315 8307 8300 8298 8299 8298 8299 8298 8301 8301 8302 8299 8302 8301 8300 8300 8296 8306 8308 8313 8313 8317 8324 8336 8347 8350 8349 8354 
8281 8285 8287 8289 8292 8291 8291 8289 8290 8286 8287 8290 8292 8294 8289 8287 8283 8283 8282 8283 8279 8279 8280 8281 8282 8280 8281 8278 8280 8286 8293 8301 8304 8309 8306 8308 8313 8306 8305 8289 8252 8199 8261 8317 8320 8319 8321 8320 8314 8311 8312 8309 8306 8301 8300 8296 8298 8297 8296 8296 8298 8297 8302 8300 8298 8297 8299 8300 8299 8303 8307 8309 8311 8320 8328 8340 8346 8347 8342 8350 
8282 8280 8285 8289 8289 8292 8290 8295 8295 8292 8292 8292 8291 8288 8285 8282 8278 8280 8279 8278 8277 8277 8280 8280 8277 8280 8276 8276 8281 8284 8292 8302 8303 8307 8307 8310 8309 8303 8285 8196 8152 8144 8190 8298 8320 8319 8319 8321 8314 8310 8297 8271 8275 8284 8293 8297 8296 8298 8294 8296 8296 8298 8302 8300 8298 8299 8299 8301 8296 8301 8305 8310 8312 8319 8331 8342 8345 8344 8340 8343 
8282 8285 8286 8288 8291 8292 8291 8296 8295 8293 8290 8291 8288 8289 8281 8277 8274 8277 8277 8272 8274 8277 8280 8280 8274 8279 8277 8279 8280 8290 8291 8303 8301 8306 8304 8306 8308 8298 8220 8143 8138 8138 8153 8272 8313 8318 8318 8317 8310 8284 8195 8159 8168 8205 8267 8289 8297 8295 8295 8293 8296 8299 8298 8300 8301 8299 8297 8296 8293 8299 8302 8310 8316 8323 8333 8340 8344 8341 8338 8344 
8281 8285 8289 8286 8286 8291 8289 8293 8294 8289 8292 8288 8288 8285 8279 8276 8274 8274 8272 8273 8271 8280 8276 8280 8278 8278 8278 8281 8279 8288 8289 8302 8299 8302 8300 8305 8307 8294 8177 8139 8137 8139 8153 8267 8312 8315 8317 8316 8309 8220 8134 8132 8136 8142 8203 8286 8298 8301 8299 8295 8296 8299 8302 8296 8299 8299 8296 8296 8293 8296 8303 8310 8317 8327 8340 8342 8342 8336 8339 8337 
8291 8289 8286 8283 8283 8285 8286 8292 8291 8289 8290 8287 8283 8286 8278 8274 8274 8273 8273 8272 8273 8275 8278 8279 8278 8275 8281 8280 8281 8286 8290 8293 8286 8272 8262 8286 8299 8293 8210 8146 8142 8145 8181 8295 8312 8308 8313 8310 8306 8202 8129 8130 8133 8132 8164 8279 8302 8305 8302 8298 8298 8302 8301 8297 8298 8297 8298 8297 8294 8293 8305 8313 8323 8332 8338 8340 8336 8335 8339 8345 
8294 8286 8288 8284 8286 8291 8288 8289 8287 8288 8288 8286 8283 8284 8277 8273 8275 8276 8277 8274 8277 8279 8279 8283 8277 8279 8281 8284 8281 8287 8286 8263 8198 8168 8162 8193 8276 8292 8283 8203 8154 8164 8225 8273 8281 8243 8271 8279 8275 8208 8138 8137 8135 8138 8220 8296 8306 8309 8307 8304 8302 8302 8301 8300 8297 8297 8296 8295 8293 8292 8302 8318 8325 8333 8335 8335 8331 8334 8343 8343 
8296 8290 8288 8283 8290 8290 8290 8286 8287 8286 8287 8283 8282 8281 8275 8274 8274 8277 8277 8278 8275 8283 8284 8283 8277 8280 8281 8279 8283 8282 8255 8189 8160 8151 8147 8147 8210 8262 8261 8263 8182 8262 8217 8179 8178 8160 8159 8150 8151 8166 8136 8140 8147 8196 8285 8303 8306 8307 8306 8305 8303 8303 8304 8301 8302 8299 8299 8297 8293 8294 8299 8320 8327 8330 8334 8329 8326 8334 8341 8347 
8296 8287 8288 8283 8285 8286 8285 8285 8283 8285 8283 8284 8280 8278 8271 8274 8271 8275 8274 8278 8275 8280 8284 8283 8274 8278 8278 8279 8277 8268 8212 8178 8155 8148 8144 8143 8149 8151 8158 8178 8171 8282 8256 8210 8196 8151 8153 8139 8134 8135 8140 8145 8207 8274 8289 8295 8296 8300 8302 8300 8302 8303 8307 8304 8305 8305 8301 8299 8295 8296 8298 8315 8327 8329 8330 8325 8326 8334 8342 8347 
8295 8284 8280 8277 8281 8282 8280 8280 8284 8286 8282 8279 8276 8275 8269 8269 8270 8274 8275 8273 8274 8267 8267 8275 8273 8272 8279 8274 8275 8251 8216 8195 8172 8165 8163 8139 8135 8138 8146 8142 8156 8267 8243 8148 8140 8143 8157 8170 8199 8151 8149 8152 8175 8225 8263 8269 8271 8282 8290 8296 8300 8302 8305 8305 8310 8311 8307 8305 8302 8299 8299 8317 8326 8328 8327 8322 8326 8333 8347 8347 
8290 8282 8275 8275 8274 8274 8280 8278 8277 8279 8278 8273 8272 8271 8266 8267 8269 8271 8270 8270 8268 8244 8216 8254 8264 8268 8273 8272 8272 8272 8273 8275 8261 8261 8192 8140 8137 8139 8140 8138 8152 8230 8195 8137 8144 8150 8161 8189 8259 8200 8147 8143 8144 8163 8156 8156 8169 8219 8270 8285 8294 8297 8303 8303 8308 8310 8309 8306 8304 8309 8305 8317 8326 8325 8321 8321 8326 8334 8348 8351 
8288 8277 8269 8268 8271 8267 8270 8270 8274 8271 8272 8273 8269 8273 8268 8267 8266 8269 8269 8267 8265 8212 8168 8185 8241 8263 8262 8261 8259 8262 8267 8273 8253 8251 8174 8139 8140 8136 8143 8200 8203 8162 8145 8137 8146 8155 8170 8192 8180 8148 8143 8142 8141 8129 8125 8134 8142 8168 8204 8255 8282 8291 8294 8299 8302 8303 8302 8305 8306 8306 8307 8316 8328 8319 8314 8318 8320 8324 8348 8347 
8274 8263 8264 8264 8264 8267 8269 8269 8268 8268 8268 8269 8268 8272 8266 8266 8270 8266 8267 8265 8251 8183 8161 8166 8187 8223 8238 8240 8232 8204 8184 8180 8166 8171 8149 8141 8140 8140 8214 8259 8221 8143 8152 8162 8155 8169 8185 8170 8146 8137 8137 8139 8135 8127 8120 8132 8142 8158 8176 8199 8258 8281 8288 8289 8294 8295 8295 8300 8301 8301 8302 8310 8320 8311 8304 8298 8300 8315 8346 8341 
8268 8256 8259 8258 8263 8265 8268 8270 8268 8266 8267 8267 8268 8269 8266 8265 8266 8268 8265 8260 8228 8170 8165 8204 8248 8264 8270 8255 8207 8163 8153 8151 8140 8146 8141 8139 8138 8143 8195 8204 8220 8149 8160 8173 8159 8223 8165 8155 8179 8174 8144 8140 8136 8127 8126 8139 8150 8157 8169 8177 8218 8270 8283 8285 8289 8290 8292 8291 8293 8295 8297 8301 8309 8299 8283 8280 8288 8313 8343 8344 
8267 8256 8256 8258 8260 8263 8265 8265 8264 8264 8269 8269 8269 8272 8268 8267 8268 8270 8262 8246 8189 8159 8216 8258 8254 8246 8259 8234 8195 8166 8151 8149 8140 8147 8141 8138 8139 8134 8139 8132 8138 8138 8131 8140 8158 8179 8146 8162 8209 8222 8185 8142 8141 8136 8135 8179 8217 8180 8170 8171 8188 8250 8277 8281 8284 8289 8287 8286 8290 8290 8293 8291 8286 8280 8279 8285 8295 8317 8341 8344 
8263 8257 8256 8261 8260 8264 8263 8266 8265 8267 8271 8271 8273 8275 8270 8268 8272 8270 8251 8177 8157 8216 8258 8233 8188 8166 8176 8220 8248 8177 8150 8150 8169 8185 8139 8141 8146 8146 8138 8124 8124 8165 8130 8128 8138 8138 8154 8195 8176 8133 8133 8141 8141 8142 8147 8218 8259 8248 8225 8201 8196 8224 8270 8280 8281 8284 8283 8283 8283 8287 8286 8285 8285 8304 8308 8304 8308 8322 8339 8340 
8258 8258 8261 8261 8264 8264 8266 8267 8266 8270 8276 8276 8276 8278 8273 8275 8271 8263 8212 8154 8201 8232 8220 8193 8170 8167 8168 8171 8205 8168 8153 8150 8173 8162 8145 8150 8152 8149 8137 8125 8123 8139 8130 8128 8137 8138 8134 8127 8123 8126 8126 8135 8140 8143 8181 8254 8264 8267 8263 8262 8261 8256 8271 8278 8278 8280 8278 8279 8281 8282 8277 8279 8283 8324 8332 8326 8325 8331 8341 8344 
8257 8262 8264 8268 8267 8269 8268 8269 8269 8274 8273 8275 8277 8274 8274 8270 8270 8265 8183 8162 8224 8206 8195 8189 8172 8169 8174 8177 8195 8198 8156 8155 8180 8163 8151 8157 8155 8148 8134 8124 8121 8141 8146 8134 8140 8142 8141 8133 8130 8133 8132 8136 8140 8155 8227 8257 8264 8266 8265 8263 8265 8270 8276 8274 8278 8280 8277 8275 8277 8276 8275 8273 8276 8317 8346 8348 8337 8335 8342 8343 
8260 8257 8266 8271 8272 8272 8270 8266 8268 8271 8272 8275 8273 8276 8271 8271 8268 8243 8170 8175 8252 8230 8195 8185 8173 8167 8185 8239 8257 8244 8179 8169 8182 8168 8155 8160 8156 8148 8128 8125 8122 8144 8140 8140 8154 8152 8146 8143 8138 8134 8135 8140 8148 8170 8214 8238 8258 8264 8265 8265 8268 8270 8271 8276 8275 8275 8276 8276 8273 8270 8271 8272 8272 8297 8344 8345 8344 8338 8338 8342 
8263 8262 8266 8268 8272 8274 8270 8267 8266 8268 8271 8271 8274 8271 8272 8271 8266 8228 8223 8236 8263 8266 8251 8231 8212 8191 8202 8229 8243 8165 8145 8152 8159 8154 8158 8163 8152 8149 8137 8130 8125 8129 8142 8153 8158 8154 8149 8149 8144 8146 8144 8146 8149 8160 8173 8193 8247 8262 8264 8263 8267 8269 8271 8275 8273 8275 8274 8272 8273 8269 8268 8266 8267 8279 8330 8341 8338 8333 8341 8344 
8264 8261 8264 8269 8273 8273 8270 8270 8265 8266 8269 8269 8272 8275 8273 8272 8266 8257 8267 8268 8267 8269 8265 8239 8185 8174 8171 8166 8154 8135 8138 8146 8171 8163 8161 8158 8155 8155 8145 8135 8133 8130 8137 8152 8154 8149 8148 8154 8153 8156 8152 8153 8158 8164 8174 8180 8197 8244 8260 8264 8263 8267 8270 8267 8271 8271 8271 8274 8273 8271 8267 8268 8265 8270 8312 8331 8327 8330 8335 8339 
8262 8263 8267 8268 8272 8272 8274 8270 8266 8267 8271 8272 8272 8274 8271 8271 8270 8269 8268 8269 8268 8267 8255 8193 8174 8169 8171 8165 8139 8135 8142 8161 8168 8162 8160 8161 8147 8155 8147 8142 8135 8134 8131 8146 8128 8119 8128 8151 8162 8167 8158 8160 8164 8164 8174 8172 8183 8199 8228 8255 8259 8258 8255 8250 8255 8269 8271 8271 8271 8270 8268 8270 8263 8264 8294 8324 8325 8328 8337 8341 
8262 8262 8268 8269 8272 8273 8274 8271 8270 8271 8271 8273 8274 8276 8270 8271 8268 8269 8270 8271 8268 8266 8215 8180 8170 8169 8172 8161 8141 8142 8142 8152 8161 8151 8146 8150 8147 8141 8141 8138 8133 8130 8138 8140 8127 8126 8136 8148 8164 8170 8169 8166 8168 8169 8175 8173 8177 8188 8192 8211 8207 8194 8189 8187 8201 8229 8248 8266 8271 8268 8273 8270 8268 8268 8285 8316 8324 8328 8333 8337 
8262 8266 8266 8271 8272 8274 8275 8275 8273 8272 8271 8271 8271 8272 8269 8267 8267 8269 8269 8268 8266 8261 8199 8172 8169 8170 8165 8151 8143 8141 8137 8142 8159 8159 8149 8152 8155 8147 8148 8141 8131 8135 8139 8128 8123 8126 8137 8146 8161 8170 8175 8178 8205 8181 8168 8168 8171 8186 8191 8189 8180 8184 8184 8180 8181 8185 8197 8239 8258 8266 8271 8273 8271 8272 8282 8315 8322 8324 8334 8336 
8270 8267 8271 8271 8273 8277 8273 8278 8276 8271 8269 8270 8272 8269 8266 8270 8266 8271 8268 8268 8261 8262 8200 8170 8167 8162 8157 8152 8162 8145 8131 8130 8146 8160 8161 8161 8161 8151 8162 8159 8158 8152 8143 8125 8125 8132 8141 8146 8160 8172 8175 8169 8230 8241 8213 8195 8182 8181 8196 8201 8197 8192 8185 8185 8184 8185 8188 8196 8230 8257 8271 8275 8271 8272 8279 8307 8320 8322 8330 8334 
8274 8273 8276 8277 8276 8280 8276 8273 8272 8270 8269 8270 8266 8270 8269 8268 8266 8269 8268 8267 8265 8258 8181 8164 8157 8162 8160 8163 8176 8153 8129 8129 8128 8149 8154 8162 8166 8170 8173 8179 8177 8171 8154 8136 8141 8139 8150 8150 8158 8167 8165 8164 8186 8262 8250 8235 8206 8181 8200 8205 8201 8196 8197 8192 8191 8190 8188 8191 8201 8245 8272 8275 8275 8273 8277 8298 8317 8314 8326 8325 
8285 8279 8284 8280 8280 8281 8275 8275 8271 8271 8270 8269 8267 8270 8267 8270 8269 8268 8268 8265 8263 8253 8184 8170 8171 8201 8200 8178 8182 8173 8133 8140 8146 8128 8137 8152 8166 8174 8177 8186 8190 8191 8161 8152 8147 8145 8162 8156 8156 8164 8165 8165 8163 8207 8265 8246 8197 8185 8203 8204 8202 8198 8197 8198 8195 8197 8198 8192 8201 8239 8274 8277 8277 8276 8281 8294 8312 8312 8319 8324 
8290 8285 8287 8285 8285 8282 8277 8274 8274 8270 8268 8265 8267 8270 8267 8268 8267 8270 8269 8269 8269 8270 8255 8248 8241 8212 8177 8159 8139 8130 8128 8129 8128 8121 8126 8128 8135 8150 8172 8191 8193 8186 8150 8141 8149 8138 8156 8159 8163 8172 8172 8167 8165 8204 8282 8264 8194 8191 8206 8209 8209 8203 8200 8196 8196 8202 8204 8197 8205 8236 8278 8284 8282 8280 8281 8293 8307 8311 8317 8318 
8292 8289 8293 8286 8287 8283 8281 8275 8273 8270 8268 8269 8269 8271 8268 8268 8267 8272 8271 8269 8269 8271 8269 8261 8227 8161 8161 8143 8129 8131 8135 8131 8132 8135 8130 8128 8129 8132 8174 8186 8189 8175 8139 8140 8144 8137 8147 8165 8173 8178 8175 8172 8166 8192 8280 8275 8206 8198 8211 8212 8210 8210 8200 8196 8196 8201 8207 8202 8208 8244 8288 8290 8290 8286 8287 8293 8301 8307 8312 8317 
8293 8288 8292 8287 8286 8282 8278 8276 8271 8270 8272 8270 8270 8272 8268 8266 8267 8271 8271 8269 8267 8271 8270 8258 8193 8161 8167 8141 8129 8133 8137 8143 8150 8142 8142 8138 8136 8135 8166 8182 8175 8147 8135 8143 8146 8144 8150 8164 8176 8182 8180 8181 8171 8211 8284 8289 8217 8207 8211 8213 8211 8212 8209 8198 8195 8201 8204 8202 8212 8264 8295 8295 8295 8295 8291 8296 8300 8303 8307 8311 
8296 8291 8291 8291 8288 8283 8278 8277 8271 8271 8270 8269 8268 8273 8266 8268 8269 8272 8269 8272 8268 8273 8269 8255 8182 8166 8169 8151 8139 8145 8160 8168 8152 8153 8148 8150 8138 8134 8151 8164 8141 8146 8138 8146 8151 8150 8156 8167 8172 8190 8212 8215 8177 8227 8297 8293 8228 8201 8212 8212 8210 8210 8210 8204 8204 8205 8204 8204 8228 8281 8296 8300 8299 8303 8299 8295 8296 8299 8301 8304 
8298 8293 8293 8290 8287 8283 8280 8276 8273 8272 8271 8271 8267 8268 8266 8270 8268 8268 8270 8270 8266 8272 8265 8256 8180 8165 8164 8160 8148 8159 8169 8176 8159 8160 8156 8150 8130 8126 8129 8133 8136 8154 8148 8150 8155 8155 8157 8158 8171 8191 8230 8249 8243 8265 8292 8285 8226 8201 8205 8209 8211 8210 8210 8209 8209 8208 8201 8209 8258 8290 8296 8301 8302 8302 8300 8296 8296 8297 8299 8306 
8297 8292 8294 8290 8289 8284 8280 8274 8270 8270 8269 8264 8267 8270 8263 8264 8267 8271 8268 8266 8267 8270 8267 8258 8186 8163 8166 8161 8162 8165 8164 8170 8171 8170 8166 8155 8132 8124 8131 8132 8144 8156 8154 8157 8157 8153 8158 8149 8159 8210 8216 8241 8264 8290 8288 8274 8225 8197 8204 8208 8210 8209 8211 8213 8212 8209 8202 8233 8280 8294 8297 8300 8302 8303 8299 8299 8294 8294 8301 8301 
8297 8296 8295 8290 8287 8283 8277 8272 8272 8273 8269 8271 8268 8268 8264 8263 8267 8267 8264 8267 8265 8269 8266 8259 8206 8174 8155 8156 8161 8164 8178 8182 8173 8168 8166 8167 8144 8138 8141 8143 8152 8161 8159 8164 8157 8156 8156 8149 8154 8208 8245 8208 8177 8178 8192 8207 8195 8199 8202 8205 8207 8207 8217 8212 8214 8207 8212 8257 8288 8293 8296 8302 8301 8300 8302 8295 8291 8296 8297 8301 
8297 8295 8297 8288 8284 8281 8275 8272 8271 8269 8267 8265 8268 8266 8266 8266 8268 8269 8266 8267 8267 8267 8265 8261 8248 8192 8152 8161 8172 8185 8195 8186 8158 8163 8171 8173 8162 8160 8170 8166 8175 8170 8170 8161 8149 8156 8157 8151 8158 8216 8256 8252 8177 8157 8152 8154 8172 8193 8202 8206 8208 8208 8217 8211 8212 8213 8230 8273 8292 8289 8295 8298 8299 8301 8299 8294 8291 8294 8298 8297 
8299 8292 8294 8287 8282 8281 8274 8275 8271 8272 8267 8270 8270 8271 8268 8270 8266 8269 8265 8266 8267 8267 8265 8264 8252 8216 8166 8180 8189 8195 8200 8180 8159 8168 8172 8176 8180 8190 8196 8192 8194 8187 8175 8180 8168 8160 8161 8157 8175 8232 8252 8254 8191 8160 8149 8148 8156 8180 8202 8206 8211 8209 8209 8210 8212 8215 8215 8266 8290 8290 8295 8297 8296 8300 8298 8298 8293 8294 8297 8295 
8297 8287 8288 8284 8278 8274 8275 8271 8273 8270 8272 8269 8266 8273 8267 8266 8266 8270 8267 8269 8265 8268 8268 8262 8256 8233 8182 8195 8194 8198 8196 8173 8164 8167 8171 8175 8183 8195 8213 8221 8217 8209 8198 8204 8199 8171 8171 8163 8190 8226 8234 8238 8200 8160 8153 8146 8153 8160 8185 8210 8225 8220 8223 8225 8224 8214 8245 8278 8289 8293 8294 8298 8299 8297 8299 8300 8291 8293 8288 8295 
8297 8289 8285 8280 8276 8273 8273 8271 8272 8273 8267 8269 8268 8272 8264 8266 8264 8270 8266 8268 8266 8265 8263 8261 8257 8221 8186 8197 8197 8194 8190 8165 8167 8176 8171 8174 8185 8205 8232 8233 8232 8222 8219 8238 8235 8206 8183 8176 8203 8218 8223 8227 8202 8157 8153 8151 8157 8162 8182 8244 8268 8267 8273 8274 8274 8275 8277 8291 8294 8296 8296 8298 8294 8297 8301 8296 8294 8292 8289 8293 
8292 8288 8287 8275 8276 8274 8270 8269 8271 8269 8269 8265 8268 8273 8267 8267 8265 8267 8268 8265 8260 8265 8264 8260 8254 8214 8189 8198 8196 8186 8174 8168 8175 8183 8174 8174 8205 8236 8258 8260 8254 8243 8249 8272 8254 8236 8227 8215 8211 8213 8226 8231 8214 8164 8157 8160 8161 8167 8204 8262 8275 8281 8283 8284 8285 8290 8292 8292 8293 8296 8295 8298 8296 8299 8296 8293 8292 8290 8286 8289 
8291 8283 8279 8275 8273 8274 8270 8270 8265 8265 8264 8267 8268 8270 8268 8271 8267 8269 8268 8267 8263 8267 8264 8267 8256 8227 8194 8199 8190 8178 8164 8169 8178 8179 8175 8179 8224 8262 8287 8301 8283 8277 8273 8285 8272 8261 8254 8244 8231 8229 8237 8237 8234 8177 8166 8167 8174 8181 8229 8270 8278 8282 8286 8285 8287 8290 8291 8294 8293 8295 8294 8296 8298 8296 8297 8297 8290 8287 8284 8284 
8289 8286 8281 8276 8273 8272 8273 8270 8267 8266 8267 8268 8268 8270 8267 8269 8269 8269 8269 8269 8265 8268 8268 8267 8263 8258 8237 8203 8181 8179 8166 8180 8193 8200 8192 8212 8258 8283 8306 8312 8309 8312 8306 8304 8287 8280 8276 8265 8253 8243 8250 8242 8243 8206 8179 8179 8187 8191 8244 8273 8279 8283 8287 8286 8290 8289 8290 8290 8295 8294 8293 8298 8297 8297 8296 8295 8292 8286 8280 8283 
8294 8284 8281 8276 8271 8273 8274 8269 8268 8268 8270 8267 8267 8270 8268 8265 8269 8269 8266 8267 8266 8266 8269 8266 8265 8265 8261 8220 8185 8178 8168 8185 8211 8231 8244 8263 8306 8312 8324 8311 8326 8332 8327 8334 8325 8313 8299 8282 8270 8262 8253 8254 8254 8257 8226 8197 8195 8206 8253 8276 8281 8284 8286 8289 8289 8288 8288 8290 8291 8290 8295 8297 8299 8297 8296 8296 8292 8285 8274 8281 
8292 8278 8282 8275 8272 8273 8271 8273 8267 8267 8270 8267 8265 8268 8269 8268 8268 8270 8268 8267 8264 8267 8266 8266 8265 8271 8268 8223 8190 8189 8182 8190 8223 8249 8266 8298 8334 8345 8352 8351 8356 8352 8350 8357 8356 8340 8315 8299 8281 8275 8255 8259 8263 8274 8279 8244 8217 8249 8274 8277 8283 8281 8288 8287 8290 8286 8289 8290 8291 8295 8294 8300 8296 8298 8298 8296 8292 8285 8275 8278 
8288 8276 8274 8271 8273 8274 8274 8271 8266 8267 8269 8269 8271 8273 8267 8268 8265 8267 8266 8264 8261 8270 8268 8266 8264 8269 8272 8262 8240 8224 8208 8208 8233 8253 8275 8325 8359 8377 8382 8379 8376 8377 8366 8365 8357 8350 8330 8307 8282 8267 8252 8258 8272 8286 8287 8283 8275 8281 8281 8284 8285 8287 8288 8286 8286 8288 8289 8292 8291 8291 8296 8300 8298 8300 8298 8293 8293 8286 8276 8275 
8285 8273 8270 8272 8271 8271 8272 8270 8268 8267 8271 8271 8269 8272 8271 8269 8269 8268 8267 8266 8265 8267 8271 8269 8269 8273 8280 8275 8268 8267 8238 8212 8230 8270 8269 8291 8329 8356 8377 8386 8388 8385 8375 8353 8344 8332 8313 8287 8264 8262 8259 8265 8289 8292 8289 8289 8288 8286 8284 8281 8288 8285 8286 8286 8286 8290 8291 8291 8294 8294 8296 8300 8300 8300 8302 8299 8289 8289 8269 8274 
8281 8272 8273 8272 8268 8268 8269 8268 8269 8265 8270 8270 8269 8271 8270 8267 8269 8271 8268 8267 8264 8270 8269 8274 8269 8276 8281 8279 8279 8280 8272 8248 8230 8267 8281 8269 8272 8281 8299 8311 8324 8335 8320 8308 8295 8282 8280 8273 8271 8269 8263 8285 8296 8294 8292 8289 8290 8288 8286 8284 8287 8289 8286 8285 8286 8291 8294 8292 8297 8300 8299 8301 8299 8303 8304 8300 8295 8285 8266 8269 
8279 8273 8271 8270 8271 8270 8271 8268 8268 8267 8266 8266 8269 8272 8270 8268 8270 8269 8270 8265 8270 8269 8271 8273 8273 8279 8285 8285 8286 8287 8283 8277 8258 8252 8264 8274 8275 8264 8264 8263 8270 8274 8278 8275 8273 8272 8278 8275 8268 8269 8286 8299 8299 8295 8294 8291 8293 8287 8290 8287 8287 8292 8291 8287 8287 8293 8293 8293 8295 8300 8301 8305 8300 8302 8303 8298 8294 8288 8272 8274 
8276 8273 8274 8271 8271 8271 8271 8269 8265 8269 8265 8270 8271 8272 8269 8267 8269 8271 8270 8268 8268 8274 8274 8275 8275 8279 8286 8287 8285 8289 8289 8288 8278 8272 8260 8264 8274 8272 8270 8267 8271 8272 8272 8282 8282 8281 8273 8271 8280 8289 8295 8299 8299 8297 8294 8291 8292 8289 8289 8286 8287 8291 8290 8287 8290 8292 8289 8297 8296 8298 8299 8302 8299 8298 8301 8299 8293 8290 8273 8274 
8277 8276 8275 8271 8270 8275 8273 8269 8267 8269 8269 8272 8269 8274 8270 8270 8271 8272 8272 8270 8270 8272 8275 8274 8275 8275 8282 8287 8290 8291 8290 8293 8288 8284 8279 8279 8274 8266 8267 8269 8272 8277 8278 8280 8279 8280 8286 8291 8294 8296 8295 8302 8300 8297 8293 8292 8295 8291 8291 8286 8288 8288 8290 8287 8289 8291 8290 8293 8298 8298 8297 8302 8300 8298 8300 8298 8294 8291 8277 8271 
8281 8273 8273 8274 8269 8272 8270 8271 8266 8268 8267 8268 8271 8275 8270 8271 8272 8273 8270 8271 8272 8278 8274 8278 8272 8271 8280 8286 8288 8294 8293 8293 8285 8286 8288 8290 8291 8278 8281 8280 8278 8284 8290 8295 8297 8296 8299 8298 8297 8297 8299 8300 8303 8295 8297 8296 8295 8295 8291 8286 8286 8288 8291 8290 8288 8293 8292 8296 8296 8297 8299 8301 8300 8297 8300 8297 8293 8287 8280 8276 
8281 8273 8279 8271 8270 8272 8273 8270 8269 8272 8271 8270 8268 8275 8270 8268 8267 8273 8272 8271 8270 8275 8273 8276 8273 8271 8272 8284 8288 8293 8291 8290 8283 8283 8285 8290 8288 8284 8288 8289 8292 8297 8297 8303 8303 8300 8300 8298 8297 8296 8297 8299 8302 8297 8296 8296 8294 8294 8290 8286 8287 8286 8290 8293 8292 8295 8296 8297 8295 8296 8297 8300 8297 8299 8300 8298 8291 8290 8280 8282 
8282 8277 8275 8268 8271 8272 8271 8266 8268 8270 8269 8267 8267 8276 8271 8267 8266 8272 8270 8273 8271 8273 8275 8275 8272 8271 8275 8280 8286 8290 8292 8290 8279 8279 8276 8284 8286 8283 8289 8288 8290 8294 8293 8300 8300 8296 8301 8297 8295 8294 8291 8297 8295 8292 8293 8292 8292 8291 8289 8288 8287 8288 8293 8291 8295 8295 8294 8298 8297 8298 8296 8297 8299 8297 8298 8297 8293 8288 8282 8284 
8287 8270 8272 8264 8265 8268 8266 8271 8267 8271 8267 8266 8267 8276 8271 8263 8265 8268 8268 8272 8267 8271 8269 8273 8275 8275 8275 8276 8284 8286 8284 8284 8276 8277 8278 8284 8284 8282 8283 8283 8288 8290 8295 8296 8296 8297 8297 8293 8291 8291 8289 8291 8292 8289 8288 8289 8289 8286 8291 8286 8288 8289 8290 8291 8293 8290 8296 8294 8295 8297 8294 8297 8294 8297 8298 8296 8289 8289 8283 8282 
8293 8270 8268 8264 8264 8267 8268 8268 8268 8263 8258 8260 8262 8272 8271 8265 8266 8266 8265 8270 8265 8271 8274 8276 8271 8274 8280 8280 8290 8279 8279 8282 8278 8281 8280 8288 8288 8286 8293 8288 8287 8287 8291 8292 8295 8294 8297 8289 8288 8288 8289 8293 8295 8290 8288 8288 8290 8292 8289 8289 8286 8289 8292 8290 8294 8298 8299 8301 8300 8300 8300 8299 8296 8299 8299 8296 8295 8293 8288 8288 


