P2
80 60
8359
8270 8279 8284 8290 8299 8301 8303 8302 8302 8301 8302 8302 8302 8303 8300 8303 8301 8302 8304 8303 8307 8305 8305 8305 8308 8308 8309 8313 8317 8325 8321 8323 8323 8326 8327 8328 8332 8338 8337 8338 8340 8341 8345 8343 8346 8343 8341 8340 8340 8340 8337 8341 8341 8338 8331 8330 8334 8336 8336 8335 8336 8339 8340 8341 8340 8343 8341 8345 8343 8344 8347 8355 8356 8350 8355 8356 8355 8359 8357 8354 
8283 8289 8295 8295 8302 8304 8304 8301 8300 8303 8301 8302 8302 8299 8306 8303 8303 8303 8308 8307 8308 8306 8305 8305 8309 8309 8313 8316 8319 8326 8323 8327 8328 8332 8334 8332 8339 8337 8339 8342 8344 8343 8347 8346 8345 8342 8342 8340 8341 8341 8338 8339 8338 8337 8333 8329 8333 8333 8334 8336 8333 8337 8337 8338 8340 8339 8340 8340 8341 8344 8347 8353 8355 8352 8354 8354 8356 8357 8356 8353 
8293 8294 8295 8298 8302 8303 8306 8304 8300 8298 8298 8302 8301 8304 8303 8303 8304 8306 8307 8308 8309 8308 8308 8307 8306 8308 8312 8315 8315 8323 8322 8325 8330 8332 8335 8337 8339 8341 8340 8343 8340 8346 8348 8346 8342 8341 8342 8340 8343 8342 8340 8341 8336 8335 8333 8331 8332 8334 8333 8334 8334 8335 8336 8334 8337 8338 8339 8340 8340 8342 8346 8351 8352 8353 8355 8353 8357 8356 8354 8354 
8290 8293 8296 8299 8301 8305 8305 8303 8299 8297 8299 8299 8301 8302 8304 8303 8306 8306 8305 8305 8306 8307 8307 8306 8307 8307 8310 8317 8316 8320 8322 8326 8330 8332 8335 8335 8336 8341 8340 8341 8341 8343 8347 8347 8341 8339 8342 8340 8344 8340 8341 8339 8337 8337 8334 8330 8330 8331 8333 8338 8337 8338 8336 8337 8338 8341 8341 8340 8341 8343 8343 8345 8350 8352 8353 8353 8356 8355 8351 8352 
8290 8294 8300 8297 8298 8301 8301 8301 8299 8299 8295 8297 8299 8301 8304 8305 8304 8305 8306 8307 8308 8304 8304 8306 8308 8309 8313 8313 8317 8321 8323 8328 8328 8332 8329 8333 8337 8340 8336 8339 8339 8344 8347 8346 8343 8342 8342 8339 8340 8340 8339 8339 8336 8333 8331 8332 8331 8331 8334 8335 8335 8334 8335 8334 8339 8337 8338 8338 8341 8341 8340 8343 8345 8347 8355 8353 8354 8352 8348 8349 
8293 8295 8298 8298 8298 8302 8303 8299 8296 8297 8301 8297 8297 8301 8302 8301 8302 8303 8307 8308 8306 8308 8306 8305 8307 8309 8314 8313 8318 8321 8320 8327 8329 8330 8332 8331 8335 8339 8339 8336 8342 8343 8347 8344 8341 8341 8340 8337 8343 8341 8340 8340 8334 8334 8332 8331 8332 8332 8333 8336 8337 8335 8337 8337 8338 8336 8341 8341 8342 8342 8340 8343 8344 8345 8352 8352 8349 8351 8347 8349 
8295 8297 8297 8298 8298 8299 8303 8298 8298 8296 8297 8297 8300 8300 8299 8301 8302 8302 8306 8308 8306 8308 8307 8307 8311 8310 8310 8314 8315 8321 8324 8327 8329 8330 8330 8332 8332 8337 8338 8337 8341 8343 8345 8344 8342 8339 8340 8338 8339 8339 8337 8336 8334 8332 8331 8330 8332 8332 8333 8333 8333 8335 8336 8333 8338 8336 8339 8337 8340 8340 8342 8343 8342 8346 8351 8349 8348 8348 8348 8348 
8292 8294 8298 8295 8299 8298 8302 8303 8299 8297 8298 8300 8299 8299 8299 8303 8301 8303 8305 8307 8309 8308 8309 8309 8311 8311 8311 8311 8317 8323 8325 8332 8330 8333 8333 8334 8335 8338 8338 8338 8344 8343 8348 8343 8337 8336 8338 8335 8337 8335 8336 8336 8335 8330 8327 8329 8330 8329 8331 8332 8334 8336 8336 8335 8336 8336 8339 8337 8339 8336 8340 8341 8340 8344 8346 8348 8348 8347 8346 8349 
8294 8293 8297 8295 8301 8303 8303 8305 8298 8301 8300 8299 8298 8298 8301 8303 8304 8304 8307 8310 8308 8310 8311 8310 8312 8312 8316 8317 8320 8327 8330 8332 8335 8335 8334 8335 8333 8337 8339 8340 8340 8341 8340 8339 8330 8331 8332 8332 8332 8332 8337 8336 8333 8331 8328 8326 8331 8327 8329 8333 8334 8338 8334 8334 8337 8337 8340 8338 8337 8338 8342 8340 8340 8338 8344 8346 8346 8348 8346 8342 
8294 8294 8297 8297 8300 8301 8304 8304 8299 8301 8302 8301 8300 8299 8301 8303 8301 8306 8306 8307 8308 8308 8313 8309 8315 8315 8318 8319 8324 8329 8328 8333 8332 8334 8335 8336 8334 8337 8338 8338 8339 8337 8324 8299 8285 8285 8299 8306 8315 8320 8328 8333 8329 8329 8328 8325 8327 8322 8329 8332 8331 8335 8333 8332 8335 8336 8338 8337 8339 8338 8338 8338 8337 8338 8341 8344 8347 8348 8345 8348 
8295 8293 8296 8294 8300 8298 8303 8303 8299 8299 8301 8300 8303 8302 8305 8303 8304 8305 8308 8310 8312 8311 8314 8314 8318 8316 8319 8319 8323 8327 8328 8329 8331 8333 8335 8335 8333 8336 8336 8336 8336 8335 8305 8249 8233 8230 8236 8243 8245 8250 8279 8308 8323 8328 8324 8325 8324 8322 8328 8329 8330 8334 8333 8330 8335 8335 8334 8335 8338 8335 8337 8336 8337 8334 8340 8344 8345 8348 8345 8345 
8297 8299 8296 8297 8303 8303 8303 8300 8302 8300 8303 8302 8302 8307 8307 8307 8306 8310 8311 8315 8313 8313 8313 8314 8316 8320 8321 8320 8322 8326 8330 8329 8332 8331 8333 8334 8332 8333 8334 8333 8329 8330 8320 8266 8239 8230 8235 8249 8245 8230 8234 8247 8288 8323 8320 8322 8324 8323 8324 8325 8326 8330 8330 8333 8334 8333 8335 8337 8335 8334 8336 8335 8338 8338 8338 8342 8344 8347 8346 8345 
8297 8298 8296 8299 8300 8300 8303 8300 8300 8304 8304 8303 8307 8308 8310 8308 8310 8311 8312 8312 8310 8314 8313 8312 8318 8316 8318 8322 8321 8326 8328 8328 8330 8332 8333 8332 8330 8331 8332 8332 8307 8262 8253 8241 8233 8245 8261 8265 8256 8231 8228 8233 8274 8320 8324 8322 8323 8320 8322 8324 8325 8328 8328 8330 8333 8330 8331 8332 8336 8334 8334 8333 8335 8335 8337 8343 8345 8347 8343 8342 
8298 8297 8301 8298 8299 8300 8301 8302 8300 8303 8307 8306 8309 8307 8307 8311 8310 8312 8312 8313 8314 8312 8310 8313 8316 8314 8317 8319 8325 8328 8329 8328 8329 8329 8327 8329 8329 8331 8329 8331 8319 8258 8237 8233 8229 8242 8286 8280 8281 8236 8231 8252 8298 8322 8321 8319 8322 8319 8320 8322 8323 8325 8326 8328 8329 8332 8330 8332 8331 8328 8330 8330 8331 8331 8334 8338 8340 8343 8344 8341 
8296 8298 8297 8296 8299 8302 8303 8301 8306 8305 8308 8305 8306 8306 8309 8309 8310 8313 8311 8314 8310 8311 8312 8314 8314 8316 8318 8321 8323 8326 8326 8325 8325 8325 8328 8327 8328 8329 8329 8328 8330 8314 8259 8235 8230 8237 8256 8282 8261 8236 8232 8239 8269 8305 8317 8320 8319 8318 8320 8321 8323 8324 8324 8324 8325 8326 8330 8327 8327 8326 8326 8323 8327 8323 8330 8337 8342 8343 8340 8345 
8296 8295 8298 8299 8299 8301 8306 8303 8308 8308 8307 8307 8309 8312 8309 8310 8312 8312 8312 8314 8310 8309 8308 8310 8310 8313 8318 8320 8325 8322 8324 8326 8323 8326 8326 8328 8328 8325 8325 8325 8326 8326 8309 8279 8240 8262 8272 8271 8242 8231 8229 8232 8229 8247 8300 8318 8320 8320 8320 8321 8321 8325 8323 8325 8324 8325 8327 8327 8325 8322 8322 8324 8320 8322 8324 8332 8338 8341 8339 8340 
8299 8297 8298 8299 8302 8303 8308 8302 8305 8308 8306 8310 8307 8308 8311 8311 8310 8312 8312 8311 8311 8308 8308 8310 8314 8316 8315 8321 8321 8324 8322 8323 8324 8325 8326 8323 8324 8320 8311 8317 8322 8326 8315 8260 8246 8266 8274 8278 8241 8229 8232 8230 8238 8274 8308 8316 8319 8320 8317 8321 8321 8324 8325 8322 8324 8324 8328 8323 8323 8319 8320 8322 8319 8321 8322 8324 8336 8336 8338 8337 
8296 8299 8298 8298 8303 8303 8307 8301 8308 8308 8306 8309 8309 8305 8307 8308 8310 8313 8312 8313 8308 8307 8310 8310 8315 8314 8316 8320 8321 8321 8322 8324 8325 8324 8324 8320 8301 8256 8241 8276 8315 8323 8320 8297 8265 8252 8252 8257 8251 8238 8247 8248 8297 8314 8316 8319 8317 8318 8319 8317 8318 8324 8324 8327 8325 8327 8327 8326 8324 8320 8322 8321 8319 8316 8317 8317 8324 8337 8336 8334 
8297 8296 8297 8296 8303 8303 8307 8305 8306 8306 8308 8307 8307 8309 8311 8308 8307 8312 8310 8310 8309 8310 8311 8310 8312 8312 8317 8319 8319 8318 8321 8322 8322 8319 8316 8294 8243 8232 8226 8250 8298 8288 8283 8312 8320 8291 8245 8245 8248 8232 8237 8277 8309 8318 8312 8317 8318 8317 8318 8317 8322 8323 8324 8325 8325 8325 8326 8324 8324 8325 8320 8322 8320 8315 8314 8313 8318 8335 8340 8333 
8293 8297 8295 8294 8301 8302 8305 8306 8306 8304 8306 8305 8308 8306 8307 8307 8310 8309 8309 8307 8309 8309 8311 8308 8311 8310 8315 8315 8318 8319 8320 8320 8317 8304 8257 8238 8240 8232 8229 8255 8248 8232 8237 8290 8319 8301 8263 8283 8296 8247 8237 8237 8287 8311 8313 8315 8314 8315 8314 8315 8318 8322 8322 8322 8323 8325 8326 8321 8322 8320 8320 8319 8317 8312 8312 8312 8312 8328 8335 8332 
8295 8295 8297 8294 8299 8303 8304 8301 8300 8305 8306 8305 8308 8308 8306 8307 8307 8306 8306 8308 8308 8309 8312 8310 8311 8310 8312 8312 8315 8317 8320 8316 8313 8264 8226 8235 8271 8263 8273 8248 8230 8228 8239 8285 8316 8289 8291 8308 8312 8304 8284 8246 8256 8308 8313 8315 8312 8315 8313 8313 8320 8319 8321 8322 8324 8325 8325 8324 8325 8324 8321 8317 8316 8314 8311 8313 8311 8320 8332 8331 
8295 8293 8299 8298 8301 8299 8302 8301 8300 8306 8304 8304 8303 8305 8307 8307 8306 8307 8303 8305 8305 8309 8310 8310 8311 8309 8310 8312 8314 8318 8318 8313 8286 8235 8225 8228 8237 8269 8282 8274 8248 8230 8241 8268 8278 8266 8297 8284 8282 8298 8254 8246 8254 8302 8310 8310 8311 8313 8314 8315 8316 8320 8322 8320 8324 8325 8326 8325 8325 8327 8325 8325 8322 8318 8318 8315 8313 8316 8330 8328 
8299 8298 8300 8298 8301 8300 8301 8300 8300 8303 8305 8304 8308 8303 8305 8304 8307 8304 8303 8306 8306 8306 8307 8307 8308 8309 8311 8311 8313 8315 8314 8297 8238 8222 8225 8224 8229 8253 8252 8258 8256 8248 8250 8260 8266 8263 8289 8239 8232 8258 8240 8231 8233 8266 8303 8307 8310 8308 8312 8314 8313 8318 8317 8321 8322 8321 8323 8323 8324 8323 8327 8325 8324 8319 8318 8317 8315 8317 8321 8325 
8298 8297 8303 8303 8303 8300 8300 8300 8302 8305 8303 8307 8305 8304 8306 8303 8303 8305 8303 8304 8305 8293 8284 8284 8287 8301 8309 8311 8314 8313 8313 8269 8229 8225 8235 8254 8240 8228 8232 8230 8238 8268 8272 8252 8265 8263 8274 8232 8227 8231 8237 8233 8229 8236 8284 8287 8290 8303 8311 8315 8317 8318 8315 8321 8319 8320 8323 8326 8323 8323 8324 8320 8321 8318 8320 8322 8317 8317 8318 8319 
8300 8300 8302 8298 8302 8299 8300 8300 8304 8303 8304 8306 8307 8303 8305 8306 8303 8303 8305 8304 8302 8291 8261 8257 8259 8279 8305 8309 8310 8311 8301 8268 8256 8259 8273 8264 8234 8224 8223 8228 8238 8243 8254 8254 8256 8256 8266 8227 8222 8227 8258 8238 8235 8248 8248 8246 8247 8279 8305 8314 8317 8316 8319 8317 8320 8323 8321 8324 8323 8324 8325 8322 8322 8320 8321 8320 8319 8317 8316 8317 
8299 8301 8305 8299 8299 8299 8303 8300 8300 8301 8305 8308 8305 8304 8304 8304 8304 8302 8301 8303 8301 8301 8269 8258 8259 8264 8301 8307 8305 8293 8286 8284 8283 8281 8266 8238 8226 8224 8224 8242 8236 8229 8236 8232 8240 8243 8235 8221 8224 8233 8288 8286 8268 8278 8271 8238 8238 8270 8306 8312 8314 8314 8316 8315 8319 8320 8324 8321 8321 8320 8324 8322 8323 8322 8321 8321 8321 8323 8319 8315 
8298 8300 8299 8298 8303 8299 8301 8298 8300 8302 8304 8304 8305 8305 8305 8305 8302 8301 8303 8302 8303 8300 8284 8259 8261 8261 8288 8303 8291 8282 8278 8277 8274 8267 8254 8230 8226 8222 8228 8234 8226 8222 8227 8230 8228 8240 8229 8219 8224 8235 8258 8263 8251 8250 8252 8232 8239 8260 8303 8309 8315 8313 8317 8313 8321 8318 8319 8319 8316 8318 8321 8320 8319 8318 8320 8318 8320 8322 8315 8313 
8300 8297 8296 8297 8300 8299 8301 8298 8301 8303 8304 8304 8306 8305 8306 8302 8303 8299 8302 8303 8301 8301 8297 8266 8264 8262 8277 8288 8280 8276 8268 8265 8260 8251 8240 8227 8230 8235 8229 8225 8219 8222 8223 8226 8231 8240 8233 8222 8221 8223 8222 8224 8229 8228 8228 8229 8259 8270 8305 8313 8317 8317 8318 8318 8318 8316 8317 8315 8318 8319 8320 8319 8318 8319 8318 8319 8318 8320 8316 8314 
8298 8298 8299 8297 8302 8300 8301 8300 8301 8304 8302 8304 8302 8304 8303 8304 8303 8303 8302 8301 8303 8303 8302 8283 8265 8268 8266 8277 8270 8266 8262 8256 8259 8238 8227 8226 8235 8240 8233 8228 8223 8221 8226 8227 8233 8243 8242 8226 8223 8222 8223 8219 8220 8225 8224 8228 8252 8297 8307 8315 8315 8312 8318 8319 8318 8321 8319 8316 8317 8319 8321 8322 8318 8317 8318 8322 8321 8319 8316 8315 
8297 8297 8299 8298 8299 8300 8299 8300 8302 8301 8306 8303 8302 8304 8307 8304 8301 8300 8301 8302 8300 8301 8303 8296 8270 8266 8269 8269 8265 8262 8252 8258 8255 8248 8227 8227 8232 8238 8235 8233 8228 8222 8225 8228 8237 8239 8243 8237 8221 8224 8224 8224 8219 8224 8223 8231 8241 8298 8309 8313 8314 8315 8318 8317 8320 8317 8320 8318 8318 8317 8322 8321 8320 8318 8319 8322 8321 8321 8317 8315 
8297 8295 8299 8299 8297 8298 8301 8300 8298 8301 8304 8300 8300 8303 8304 8302 8300 8301 8301 8301 8301 8302 8303 8300 8281 8269 8270 8270 8272 8262 8251 8246 8243 8231 8219 8224 8231 8238 8238 8236 8224 8222 8226 8224 8230 8238 8246 8234 8224 8222 8218 8222 8218 8223 8227 8230 8245 8295 8308 8308 8314 8316 8317 8316 8320 8314 8318 8315 8318 8318 8319 8322 8321 8317 8317 8322 8322 8320 8316 8319 
8296 8297 8300 8297 8300 8301 8303 8300 8300 8302 8298 8301 8300 8300 8301 8303 8298 8302 8300 8301 8300 8302 8303 8303 8294 8271 8270 8267 8262 8251 8236 8224 8224 8222 8221 8222 8238 8241 8233 8233 8225 8219 8225 8222 8229 8239 8233 8223 8223 8222 8220 8228 8225 8227 8238 8235 8246 8297 8307 8308 8311 8316 8315 8314 8316 8315 8314 8313 8318 8317 8319 8317 8318 8320 8318 8321 8320 8320 8314 8310 
8301 8299 8303 8299 8301 8299 8300 8299 8300 8301 8301 8299 8300 8298 8301 8302 8300 8301 8301 8299 8300 8302 8301 8302 8295 8274 8268 8271 8262 8246 8227 8230 8227 8226 8229 8234 8234 8240 8234 8229 8222 8220 8224 8230 8227 8239 8230 8225 8223 8221 8223 8232 8244 8263 8294 8277 8269 8304 8307 8311 8312 8314 8314 8315 8313 8312 8316 8318 8318 8317 8322 8320 8319 8319 8320 8319 8317 8318 8314 8309 
8299 8301 8301 8297 8298 8300 8300 8299 8299 8300 8300 8300 8301 8294 8302 8303 8301 8302 8300 8303 8301 8300 8300 8299 8294 8274 8267 8268 8267 8250 8233 8233 8235 8242 8247 8245 8232 8228 8220 8221 8219 8221 8226 8221 8222 8237 8229 8225 8225 8225 8219 8227 8240 8259 8301 8316 8303 8308 8309 8308 8313 8312 8312 8314 8316 8314 8317 8316 8315 8318 8322 8319 8318 8315 8321 8321 8320 8317 8312 8313 
8303 8303 8302 8301 8299 8301 8301 8302 8300 8300 8299 8301 8302 8302 8304 8304 8302 8301 8301 8304 8302 8300 8301 8300 8292 8279 8269 8268 8266 8249 8236 8237 8240 8242 8247 8241 8229 8225 8220 8224 8220 8224 8228 8224 8222 8225 8225 8225 8226 8229 8223 8226 8238 8259 8290 8305 8306 8308 8311 8310 8312 8314 8315 8313 8313 8315 8315 8315 8316 8319 8319 8318 8317 8315 8320 8319 8322 8319 8316 8311 
8300 8303 8300 8302 8300 8300 8306 8299 8301 8300 8300 8302 8301 8302 8302 8299 8301 8301 8303 8299 8301 8302 8302 8297 8291 8278 8275 8270 8269 8252 8239 8236 8238 8240 8242 8243 8236 8232 8221 8219 8223 8223 8225 8221 8221 8223 8223 8223 8227 8228 8226 8229 8238 8261 8286 8304 8309 8307 8312 8307 8310 8313 8314 8313 8312 8313 8313 8315 8315 8316 8318 8319 8319 8317 8320 8319 8318 8320 8313 8310 
8303 8305 8304 8301 8303 8301 8302 8302 8303 8302 8304 8306 8306 8303 8303 8304 8302 8301 8300 8300 8300 8302 8301 8299 8291 8281 8277 8271 8268 8256 8245 8242 8236 8243 8246 8244 8251 8244 8231 8221 8225 8235 8226 8225 8224 8223 8222 8227 8241 8241 8230 8233 8241 8260 8264 8301 8310 8309 8312 8309 8311 8314 8314 8313 8313 8312 8315 8316 8313 8314 8319 8319 8320 8318 8318 8322 8317 8318 8315 8314 
8304 8305 8306 8302 8305 8303 8303 8304 8301 8303 8304 8305 8305 8302 8301 8301 8300 8305 8301 8301 8300 8302 8301 8298 8293 8288 8281 8272 8269 8265 8252 8242 8239 8240 8246 8249 8252 8251 8247 8246 8247 8246 8241 8225 8223 8220 8218 8226 8243 8245 8244 8244 8245 8260 8278 8308 8310 8307 8310 8311 8310 8313 8313 8312 8316 8313 8314 8315 8317 8317 8318 8317 8318 8318 8317 8320 8318 8318 8315 8311 
8300 8305 8305 8302 8305 8303 8302 8303 8301 8304 8302 8303 8306 8299 8303 8299 8299 8300 8302 8299 8302 8301 8303 8301 8298 8288 8283 8271 8271 8268 8258 8244 8241 8248 8253 8246 8238 8248 8248 8248 8252 8246 8228 8223 8221 8218 8221 8228 8246 8239 8247 8251 8254 8265 8283 8312 8310 8307 8310 8312 8310 8311 8314 8312 8311 8312 8314 8316 8317 8314 8319 8317 8319 8319 8317 8315 8318 8315 8315 8313 
8303 8304 8304 8304 8301 8303 8306 8302 8302 8300 8305 8300 8304 8301 8301 8302 8299 8302 8301 8301 8301 8300 8301 8301 8299 8289 8280 8266 8268 8269 8262 8257 8253 8258 8257 8248 8239 8240 8247 8250 8254 8255 8236 8223 8221 8221 8234 8250 8250 8252 8246 8253 8252 8271 8294 8315 8313 8309 8310 8311 8310 8313 8311 8314 8312 8312 8314 8316 8314 8313 8314 8319 8320 8321 8318 8315 8315 8314 8314 8312 
8304 8306 8308 8304 8303 8302 8304 8303 8303 8302 8304 8302 8305 8305 8303 8300 8302 8301 8302 8303 8301 8301 8301 8301 8299 8288 8284 8265 8271 8270 8264 8262 8261 8262 8258 8256 8254 8253 8262 8262 8251 8247 8232 8223 8219 8236 8251 8254 8257 8256 8250 8257 8253 8267 8302 8314 8311 8310 8310 8312 8312 8313 8311 8312 8316 8313 8312 8314 8318 8314 8317 8318 8317 8318 8319 8316 8316 8316 8310 8308 
8299 8304 8304 8298 8301 8298 8304 8301 8302 8302 8304 8303 8302 8302 8301 8301 8303 8301 8301 8303 8304 8300 8299 8300 8301 8295 8290 8274 8269 8266 8265 8266 8265 8268 8266 8258 8260 8262 8265 8261 8256 8258 8237 8232 8242 8255 8250 8256 8263 8267 8265 8261 8259 8271 8305 8314 8310 8311 8310 8311 8311 8314 8310 8313 8312 8312 8315 8314 8313 8314 8315 8317 8314 8313 8315 8316 8313 8314 8307 8307 
8301 8302 8301 8298 8299 8302 8299 8300 8300 8301 8301 8304 8303 8304 8303 8301 8301 8300 8302 8302 8301 8301 8302 8304 8302 8301 8294 8286 8270 8264 8266 8269 8274 8275 8273 8272 8271 8272 8265 8260 8257 8263 8262 8254 8257 8250 8248 8260 8263 8263 8263 8261 8262 8282 8307 8311 8311 8312 8309 8310 8315 8315 8315 8312 8313 8313 8310 8312 8312 8313 8313 8315 8317 8314 8314 8315 8313 8312 8309 8306 
8300 8302 8302 8297 8303 8301 8300 8301 8302 8301 8302 8304 8305 8303 8303 8302 8301 8301 8301 8300 8301 8301 8301 8300 8301 8298 8297 8295 8278 8270 8270 8274 8279 8281 8282 8280 8276 8274 8262 8259 8257 8262 8268 8268 8263 8261 8260 8258 8259 8259 8260 8262 8271 8300 8312 8311 8313 8312 8313 8313 8314 8316 8316 8311 8313 8312 8312 8312 8314 8311 8313 8316 8315 8312 8312 8313 8312 8309 8301 8302 
8302 8302 8302 8299 8300 8301 8301 8301 8305 8303 8301 8303 8303 8303 8304 8304 8301 8303 8302 8300 8303 8302 8304 8303 8300 8298 8298 8303 8302 8281 8277 8281 8276 8276 8282 8279 8273 8274 8260 8255 8251 8254 8269 8269 8263 8262 8263 8257 8259 8256 8254 8262 8277 8307 8311 8314 8318 8312 8311 8315 8314 8316 8316 8314 8315 8312 8312 8309 8312 8310 8313 8312 8312 8311 8312 8309 8309 8309 8306 8304 
8298 8303 8302 8300 8302 8301 8305 8302 8299 8301 8302 8304 8306 8304 8304 8308 8305 8302 8305 8301 8301 8304 8305 8305 8305 8302 8293 8306 8306 8299 8282 8285 8283 8277 8286 8280 8271 8271 8265 8255 8251 8261 8263 8271 8267 8263 8268 8264 8264 8262 8269 8272 8296 8314 8314 8313 8315 8313 8312 8313 8314 8313 8316 8310 8312 8311 8309 8307 8310 8310 8311 8313 8309 8309 8309 8311 8308 8307 8305 8300 
8301 8299 8302 8302 8301 8302 8303 8303 8299 8299 8302 8304 8304 8304 8304 8307 8305 8301 8303 8298 8302 8304 8307 8305 8305 8302 8299 8292 8308 8311 8304 8292 8288 8286 8287 8288 8278 8279 8272 8266 8266 8273 8273 8274 8273 8264 8264 8261 8265 8267 8274 8297 8311 8316 8312 8314 8314 8313 8313 8309 8310 8315 8316 8308 8308 8307 8306 8306 8309 8310 8310 8308 8313 8311 8310 8306 8309 8310 8308 8299 
8299 8304 8302 8300 8299 8302 8305 8304 8303 8302 8304 8302 8303 8303 8303 8303 8306 8302 8299 8304 8303 8301 8305 8305 8303 8304 8304 8289 8291 8312 8315 8312 8298 8294 8288 8287 8283 8282 8276 8276 8273 8277 8282 8281 8271 8259 8259 8263 8272 8282 8305 8316 8320 8318 8310 8313 8315 8315 8312 8311 8309 8314 8309 8308 8309 8306 8310 8307 8307 8308 8312 8309 8313 8311 8307 8308 8305 8307 8305 8303 
8298 8301 8303 8301 8301 8301 8305 8307 8302 8305 8303 8304 8303 8304 8303 8304 8302 8302 8302 8301 8301 8302 8306 8304 8306 8305 8306 8302 8289 8288 8310 8319 8316 8307 8296 8295 8292 8287 8281 8279 8282 8279 8289 8287 8275 8265 8267 8267 8283 8307 8320 8321 8320 8321 8315 8315 8315 8315 8314 8312 8310 8308 8310 8305 8309 8305 8305 8304 8310 8308 8312 8312 8315 8312 8308 8310 8308 8307 8307 8303 
8297 8302 8303 8302 8301 8303 8306 8306 8302 8303 8304 8303 8305 8306 8303 8303 8302 8301 8302 8304 8300 8301 8305 8302 8306 8307 8308 8304 8300 8290 8289 8306 8319 8317 8315 8310 8297 8291 8285 8285 8283 8284 8288 8288 8289 8286 8284 8296 8313 8319 8319 8322 8320 8320 8316 8316 8316 8314 8314 8311 8310 8311 8308 8310 8306 8307 8306 8309 8309 8311 8314 8312 8313 8313 8314 8308 8308 8307 8303 8305 
8305 8298 8303 8302 8302 8303 8307 8307 8303 8306 8305 8304 8304 8304 8302 8302 8303 8307 8304 8304 8304 8304 8306 8304 8306 8303 8310 8308 8310 8305 8295 8294 8298 8310 8319 8322 8309 8290 8283 8287 8285 8301 8309 8310 8306 8310 8312 8310 8320 8320 8322 8326 8319 8322 8318 8316 8317 8317 8314 8312 8313 8312 8313 8307 8307 8309 8308 8309 8313 8312 8313 8315 8315 8311 8312 8311 8307 8307 8302 8298 
8299 8303 8303 8303 8302 8303 8305 8306 8305 8306 8304 8304 8306 8304 8303 8305 8302 8304 8303 8304 8303 8302 8304 8306 8303 8306 8310 8312 8312 8313 8311 8308 8300 8296 8297 8305 8311 8318 8319 8318 8318 8325 8326 8321 8314 8312 8317 8319 8322 8323 8324 8328 8323 8323 8317 8317 8317 8315 8315 8313 8314 8313 8313 8306 8308 8308 8307 8309 8314 8313 8314 8314 8315 8311 8314 8311 8310 8307 8302 8301 
8301 8305 8305 8303 8305 8302 8304 8304 8307 8301 8303 8305 8304 8307 8305 8304 8304 8306 8303 8303 8303 8305 8305 8304 8305 8306 8309 8311 8313 8314 8315 8314 8310 8306 8302 8297 8299 8301 8302 8303 8309 8311 8313 8317 8318 8323 8323 8319 8324 8328 8328 8327 8322 8327 8319 8319 8319 8317 8314 8317 8312 8312 8313 8309 8309 8308 8308 8312 8314 8315 8316 8315 8315 8313 8316 8314 8314 8309 8306 8300 
8306 8305 8307 8305 8305 8307 8309 8306 8306 8306 8302 8303 8305 8304 8305 8306 8305 8307 8302 8304 8306 8304 8306 8305 8308 8308 8309 8309 8310 8315 8317 8318 8318 8313 8316 8312 8310 8310 8307 8312 8313 8318 8326 8324 8325 8323 8323 8322 8327 8329 8327 8328 8327 8323 8319 8318 8320 8317 8315 8316 8317 8316 8312 8310 8313 8310 8311 8311 8311 8316 8318 8317 8319 8316 8315 8312 8311 8311 8302 8301 
8310 8307 8308 8307 8306 8308 8310 8310 8307 8308 8305 8306 8307 8308 8304 8306 8309 8305 8304 8306 8308 8306 8309 8309 8310 8306 8309 8310 8311 8317 8315 8321 8320 8320 8320 8320 8320 8318 8316 8318 8322 8324 8329 8329 8324 8326 8328 8327 8326 8329 8329 8329 8325 8322 8320 8319 8320 8318 8318 8318 8317 8316 8314 8312 8311 8312 8312 8314 8315 8316 8317 8322 8318 8317 8314 8310 8309 8309 8307 8301 
8308 8312 8310 8308 8310 8309 8312 8309 8306 8310 8310 8309 8312 8311 8308 8310 8311 8308 8304 8306 8310 8307 8311 8310 8313 8310 8312 8312 8316 8317 8320 8322 8321 8324 8324 8326 8326 8322 8318 8322 8323 8328 8334 8333 8330 8331 8329 8325 8332 8328 8327 8327 8326 8326 8320 8317 8320 8318 8316 8316 8318 8316 8314 8315 8316 8314 8315 8317 8317 8315 8319 8319 8319 8316 8314 8309 8310 8306 8301 8300 
8310 8311 8306 8308 8307 8308 8310 8309 8309 8310 8309 8310 8311 8309 8307 8310 8306 8307 8311 8306 8309 8310 8313 8310 8312 8308 8309 8313 8314 8318 8321 8322 8318 8324 8324 8325 8325 8323 8323 8326 8327 8328 8328 8331 8330 8324 8327 8325 8330 8330 8326 8329 8324 8325 8322 8317 8317 8312 8316 8314 8314 8319 8316 8313 8313 8315 8315 8317 8321 8316 8322 8319 8316 8319 8314 8315 8307 8308 8302 8299 
8313 8311 8312 8306 8306 8308 8306 8309 8311 8311 8309 8308 8310 8311 8307 8308 8311 8308 8307 8309 8305 8305 8308 8312 8314 8311 8313 8313 8317 8317 8320 8321 8322 8323 8321 8322 8322 8321 8323 8326 8325 8325 8329 8330 8325 8327 8327 8324 8326 8325 8324 8327 8326 8322 8317 8315 8315 8313 8312 8313 8316 8320 8316 8312 8319 8317 8317 8321 8318 8323 8325 8321 8322 8319 8315 8314 8309 8306 8302 8303 
8315 8311 8304 8305 8305 8305 8309 8313 8311 8311 8309 8310 8310 8307 8306 8306 8306 8308 8309 8309 8304 8308 8309 8309 8312 8314 8318 8313 8314 8320 8315 8320 8318 8317 8320 8321 8321 8324 8324 8324 8324 8325 8330 8326 8323 8322 8328 8326 8328 8326 8325 8328 8323 8320 8316 8313 8316 8317 8318 8314 8316 8318 8317 8315 8320 8320 8320 8324 8324 8324 8328 8324 8323 8316 8314 8313 8307 8303 8297 8298 
8320 8311 8304 8306 8305 8306 8308 8307 8306 8305 8302 8301 8301 8301 8303 8301 8299 8298 8303 8304 8301 8301 8305 8306 8309 8308 8315 8311 8315 8317 8315 8320 8317 8317 8318 8317 8322 8320 8324 8324 8323 8325 8324 8326 8324 8322 8323 8323 8328 8327 8324 8325 8319 8320 8315 8314 8317 8317 8320 8320 8320 8318 8317 8317 8324 8323 8320 8317 8322 8323 8328 8325 8324 8318 8311 8311 8305 8303 8296 8297 


