P2
80 60
8389
8258 8256 8256 8250 8251 8252 8254 8251 8251 8247 8248 8250 8251 8253 8246 8244 8245 8246 8250 8249 8251 8249 8251 8250 8249 8252 8254 8257 8254 8253 8254 8251 8253 8256 8256 8258 8255 8254 8257 8258 8257 8261 8258 8255 8256 8255 8253 8254 8252 8253 8248 8251 8252 8255 8252 8251 8248 8248 8247 8244 8246 8246 8248 8240 8240 8242 8241 8242 8239 8244 8237 8242 8242 8245 8245 8243 8245 8241 8242 8236 
8256 8257 8254 8254 8250 8251 8253 8253 8251 8249 8249 8250 8250 8251 8247 8247 8248 8249 8252 8251 8254 8251 8252 8252 8258 8254 8255 8259 8254 8255 8256 8258 8259 8258 8256 8260 8259 8257 8258 8258 8258 8257 8256 8254 8259 8252 8251 8255 8252 8248 8251 8251 8252 8254 8250 8249 8248 8246 8247 8245 8244 8244 8245 8239 8238 8238 8241 8238 8237 8239 8235 8236 8241 8241 8239 8237 8238 8235 8234 8234 
8253 8253 8254 8257 8250 8253 8253 8255 8252 8246 8247 8249 8249 8249 8249 8250 8250 8250 8251 8255 8254 8253 8253 8254 8259 8256 8257 8257 8255 8258 8260 8260 8263 8261 8258 8263 8263 8259 8264 8262 8256 8259 8256 8256 8262 8254 8252 8250 8249 8248 8248 8253 8253 8253 8250 8251 8247 8247 8248 8245 8246 8241 8242 8239 8237 8237 8237 8235 8236 8236 8233 8233 8234 8237 8232 8230 8230 8228 8229 8221 
8256 8254 8250 8254 8252 8253 8249 8251 8253 8245 8249 8247 8248 8250 8248 8248 8249 8248 8256 8257 8252 8254 8256 8255 8257 8258 8258 8257 8256 8259 8257 8261 8260 8261 8263 8263 8263 8262 8261 8261 8257 8259 8254 8255 8259 8251 8250 8249 8249 8244 8247 8252 8253 8252 8251 8248 8250 8246 8245 8247 8246 8241 8240 8239 8237 8235 8236 8238 8236 8233 8233 8229 8231 8228 8229 8231 8223 8222 8224 8221 
8256 8257 8254 8256 8255 8255 8254 8252 8252 8249 8248 8251 8247 8250 8248 8251 8248 8250 8250 8254 8251 8251 8254 8255 8254 8258 8257 8261 8257 8259 8259 8258 8260 8261 8262 8264 8265 8260 8261 8257 8254 8257 8253 8251 8257 8250 8249 8250 8250 8245 8246 8250 8253 8253 8251 8248 8249 8249 8245 8242 8241 8241 8237 8237 8233 8232 8236 8237 8234 8233 8229 8230 8229 8226 8226 8222 8219 8218 8218 8219 
8255 8255 8256 8253 8252 8252 8251 8253 8254 8248 8248 8252 8249 8251 8246 8247 8248 8250 8250 8250 8252 8255 8253 8255 8254 8257 8256 8260 8257 8260 8259 8261 8261 8263 8261 8263 8264 8261 8260 8262 8253 8254 8252 8254 8255 8253 8249 8251 8246 8245 8247 8248 8249 8252 8246 8248 8244 8246 8245 8242 8238 8237 8236 8236 8233 8233 8230 8230 8231 8230 8228 8227 8224 8223 8221 8219 8215 8215 8215 8214 
8250 8254 8252 8253 8255 8248 8252 8251 8250 8249 8246 8245 8248 8248 8245 8247 8245 8249 8251 8252 8254 8255 8255 8253 8256 8256 8254 8259 8257 8259 8257 8260 8259 8262 8265 8264 8265 8260 8261 8256 8251 8249 8251 8254 8250 8249 8249 8250 8246 8242 8246 8247 8246 8245 8245 8244 8242 8242 8242 8239 8239 8236 8236 8230 8228 8230 8230 8228 8228 8230 8227 8226 8222 8219 8219 8215 8215 8208 8211 8211 
8257 8252 8253 8253 8254 8249 8251 8255 8253 8247 8243 8247 8247 8249 8242 8244 8245 8249 8250 8252 8252 8252 8254 8253 8255 8253 8252 8257 8255 8256 8255 8257 8258 8263 8262 8263 8266 8258 8259 8258 8251 8253 8253 8251 8254 8251 8246 8248 8247 8244 8244 8245 8244 8244 8243 8240 8243 8240 8241 8237 8236 8234 8232 8228 8225 8227 8226 8226 8228 8225 8225 8225 8222 8218 8216 8213 8211 8207 8207 8209 
8253 8251 8251 8253 8252 8253 8254 8254 8253 8245 8246 8244 8247 8246 8246 8246 8244 8248 8248 8253 8251 8250 8254 8253 8255 8253 8255 8253 8255 8256 8255 8256 8258 8262 8265 8263 8262 8258 8259 8256 8249 8256 8249 8253 8252 8252 8247 8245 8246 8242 8243 8244 8242 8245 8246 8244 8244 8238 8238 8237 8233 8230 8228 8223 8225 8225 8225 8225 8227 8225 8224 8222 8221 8221 8217 8217 8212 8209 8207 8208 
8256 8254 8250 8251 8249 8253 8252 8251 8251 8245 8247 8246 8246 8246 8244 8244 8244 8247 8246 8249 8250 8250 8251 8251 8253 8250 8254 8255 8255 8252 8252 8255 8256 8258 8260 8259 8262 8255 8254 8254 8248 8252 8254 8253 8252 8248 8248 8245 8245 8242 8242 8244 8243 8240 8244 8242 8239 8240 8238 8239 8234 8229 8227 8224 8223 8225 8225 8225 8226 8225 8224 8223 8218 8217 8214 8211 8211 8209 8207 8207 
8254 8254 8249 8254 8250 8250 8247 8251 8250 8243 8244 8246 8246 8246 8243 8245 8243 8244 8246 8248 8251 8250 8247 8247 8249 8253 8252 8253 8255 8253 8252 8254 8253 8252 8255 8258 8257 8255 8253 8251 8247 8249 8250 8255 8249 8245 8246 8245 8244 8239 8246 8245 8243 8243 8244 8241 8241 8236 8239 8234 8232 8228 8227 8226 8224 8226 8225 8226 8225 8225 8225 8224 8220 8217 8218 8211 8212 8207 8209 8208 
8252 8250 8246 8249 8249 8246 8247 8248 8248 8244 8246 8247 8246 8245 8242 8246 8244 8244 8248 8248 8249 8250 8245 8247 8250 8250 8251 8252 8253 8252 8247 8252 8251 8251 8254 8255 8256 8252 8248 8250 8247 8248 8247 8251 8250 8243 8242 8243 8241 8245 8239 8244 8246 8244 8244 8241 8242 8238 8236 8236 8232 8228 8231 8228 8227 8229 8227 8226 8226 8224 8224 8224 8221 8221 8216 8214 8211 8208 8205 8204 
8252 8250 8249 8250 8250 8250 8249 8252 8251 8249 8247 8249 8247 8246 8243 8244 8245 8247 8249 8249 8249 8249 8251 8248 8246 8249 8250 8251 8251 8249 8248 8250 8249 8251 8253 8253 8253 8247 8247 8246 8245 8245 8245 8249 8249 8244 8241 8243 8240 8240 8241 8245 8243 8245 8245 8245 8241 8239 8238 8234 8234 8229 8229 8231 8226 8228 8229 8225 8227 8224 8224 8224 8222 8223 8219 8217 8214 8212 8210 8209 
8253 8254 8247 8251 8245 8248 8251 8249 8248 8246 8248 8249 8246 8249 8246 8245 8246 8248 8249 8250 8251 8248 8251 8249 8248 8250 8250 8250 8248 8247 8247 8249 8246 8248 8248 8252 8252 8248 8244 8246 8241 8240 8244 8247 8248 8243 8245 8240 8239 8239 8242 8246 8246 8246 8243 8244 8244 8240 8237 8235 8233 8229 8227 8229 8228 8230 8230 8230 8228 8225 8226 8226 8223 8225 8218 8220 8218 8213 8213 8207 
8254 8248 8245 8250 8249 8251 8250 8249 8251 8250 8249 8248 8248 8250 8247 8248 8249 8251 8246 8249 8247 8249 8245 8248 8248 8245 8248 8246 8245 8246 8245 8246 8245 8247 8247 8248 8249 8246 8243 8243 8236 8242 8238 8243 8242 8244 8239 8239 8238 8238 8242 8244 8244 8242 8242 8242 8238 8239 8238 8236 8234 8230 8231 8226 8230 8232 8231 8229 8227 8228 8225 8226 8227 8228 8227 8221 8220 8215 8213 8214 
8253 8249 8247 8250 8249 8250 8251 8252 8249 8246 8249 8249 8246 8247 8244 8247 8247 8248 8251 8250 8246 8247 8245 8245 8245 8247 8245 8247 8246 8243 8243 8242 8242 8244 8246 8245 8245 8243 8238 8238 8229 8230 8233 8237 8240 8237 8237 8236 8235 8235 8236 8242 8244 8244 8242 8239 8238 8237 8240 8235 8231 8231 8227 8228 8230 8232 8231 8227 8229 8227 8222 8227 8230 8229 8224 8223 8222 8218 8214 8211 
8250 8247 8246 8248 8248 8252 8253 8252 8248 8249 8251 8252 8246 8248 8249 8248 8249 8247 8249 8249 8248 8244 8246 8246 8244 8245 8243 8243 8243 8245 8247 8243 8211 8199 8208 8231 8231 8228 8230 8189 8171 8172 8192 8211 8212 8218 8222 8230 8230 8231 8238 8242 8242 8244 8241 8240 8239 8236 8235 8235 8231 8231 8232 8231 8232 8230 8229 8230 8230 8229 8227 8228 8225 8225 8226 8222 8222 8218 8212 8213 
8250 8248 8247 8246 8251 8249 8254 8254 8251 8248 8252 8248 8250 8248 8245 8248 8252 8248 8247 8246 8248 8245 8245 8243 8242 8243 8241 8243 8244 8245 8247 8246 8240 8217 8185 8178 8184 8200 8203 8199 8174 8182 8194 8205 8208 8188 8179 8191 8212 8230 8235 8240 8241 8241 8239 8239 8241 8238 8237 8232 8231 8230 8230 8231 8231 8232 8232 8232 8231 8227 8228 8229 8226 8227 8226 8225 8219 8220 8214 8215 
8250 8248 8246 8247 8247 8251 8255 8254 8254 8253 8252 8251 8252 8249 8250 8246 8250 8244 8249 8246 8245 8243 8243 8243 8241 8238 8238 8239 8238 8244 8243 8245 8243 8244 8237 8212 8185 8168 8166 8186 8176 8209 8229 8236 8234 8230 8230 8222 8221 8226 8235 8236 8236 8239 8239 8239 8238 8238 8239 8231 8232 8231 8232 8234 8232 8232 8229 8228 8228 8229 8229 8228 8228 8227 8226 8225 8224 8218 8218 8214 
8253 8251 8247 8248 8247 8252 8254 8251 8253 8248 8250 8254 8250 8250 8247 8246 8246 8247 8249 8244 8243 8244 8237 8230 8219 8212 8214 8227 8227 8226 8228 8231 8240 8243 8240 8202 8183 8170 8198 8213 8226 8235 8232 8236 8233 8233 8232 8232 8229 8229 8230 8233 8234 8236 8237 8239 8238 8237 8237 8232 8234 8232 8232 8232 8233 8231 8230 8230 8229 8229 8228 8231 8225 8227 8226 8224 8221 8223 8216 8211 
8254 8254 8247 8250 8248 8251 8249 8253 8251 8249 8253 8250 8254 8253 8250 8249 8250 8245 8248 8244 8236 8223 8202 8163 8159 8163 8176 8195 8170 8164 8169 8185 8217 8241 8226 8179 8196 8182 8202 8231 8229 8231 8229 8231 8231 8229 8229 8227 8227 8230 8228 8234 8233 8235 8238 8236 8238 8236 8234 8229 8234 8232 8233 8231 8231 8232 8235 8232 8232 8232 8225 8229 8229 8226 8225 8225 8223 8219 8218 8215 
8254 8254 8253 8252 8251 8249 8249 8248 8248 8248 8249 8250 8250 8251 8248 8246 8245 8247 8244 8220 8182 8180 8197 8179 8151 8154 8200 8223 8210 8199 8185 8184 8184 8186 8181 8173 8174 8193 8223 8233 8231 8230 8220 8221 8218 8214 8217 8221 8223 8226 8229 8229 8226 8229 8233 8234 8235 8236 8233 8231 8234 8232 8232 8232 8231 8231 8233 8231 8232 8231 8225 8229 8227 8225 8227 8225 8224 8221 8216 8219 
8258 8255 8252 8251 8248 8250 8249 8247 8247 8242 8250 8251 8247 8250 8248 8246 8245 8244 8225 8200 8223 8236 8240 8209 8199 8223 8240 8242 8241 8239 8235 8220 8199 8203 8229 8215 8192 8196 8217 8221 8210 8179 8162 8160 8161 8159 8160 8171 8191 8212 8225 8231 8206 8206 8215 8220 8231 8232 8235 8231 8233 8234 8233 8231 8229 8232 8231 8229 8230 8228 8229 8226 8223 8225 8221 8226 8223 8222 8219 8218 
8259 8260 8255 8257 8253 8249 8247 8247 8247 8248 8247 8246 8247 8247 8246 8244 8241 8229 8229 8239 8242 8243 8240 8238 8237 8239 8246 8245 8242 8242 8241 8241 8238 8215 8212 8228 8195 8187 8200 8211 8182 8169 8183 8201 8197 8177 8159 8142 8149 8195 8218 8227 8200 8213 8220 8212 8231 8232 8234 8231 8232 8234 8234 8233 8232 8231 8230 8228 8226 8229 8228 8227 8224 8225 8223 8227 8222 8219 8217 8221 
8266 8263 8256 8257 8252 8248 8246 8247 8247 8249 8250 8251 8249 8249 8244 8245 8229 8231 8243 8244 8243 8245 8244 8241 8241 8243 8242 8243 8242 8241 8242 8242 8241 8240 8223 8210 8201 8202 8218 8189 8171 8167 8185 8224 8225 8219 8201 8160 8144 8184 8223 8220 8202 8219 8224 8217 8232 8232 8231 8231 8232 8231 8233 8231 8231 8233 8232 8228 8227 8224 8225 8223 8223 8223 8224 8223 8222 8221 8217 8218 
8266 8259 8258 8257 8255 8247 8245 8248 8245 8246 8248 8247 8248 8248 8246 8243 8240 8242 8242 8242 8241 8241 8239 8240 8241 8239 8239 8241 8241 8244 8242 8240 8240 8237 8236 8214 8193 8195 8199 8190 8206 8217 8192 8216 8228 8225 8222 8220 8204 8188 8224 8212 8209 8222 8221 8224 8230 8229 8229 8230 8231 8231 8229 8229 8233 8229 8229 8224 8225 8225 8222 8222 8223 8221 8220 8222 8221 8218 8216 8214 
8262 8265 8257 8258 8251 8246 8243 8245 8244 8245 8247 8246 8246 8244 8244 8243 8241 8244 8243 8242 8241 8243 8240 8239 8240 8240 8241 8243 8241 8241 8240 8239 8239 8225 8198 8196 8191 8204 8212 8196 8216 8223 8222 8226 8228 8226 8224 8223 8222 8221 8226 8206 8216 8227 8220 8227 8233 8230 8232 8228 8231 8229 8232 8230 8227 8228 8227 8224 8222 8223 8222 8219 8220 8221 8221 8222 8221 8220 8217 8211 
8268 8262 8261 8255 8251 8249 8244 8249 8246 8246 8245 8248 8247 8248 8243 8243 8241 8243 8243 8241 8240 8241 8239 8239 8240 8240 8240 8241 8240 8239 8236 8223 8194 8168 8156 8153 8164 8174 8168 8168 8165 8182 8202 8222 8226 8225 8222 8221 8225 8224 8223 8211 8224 8230 8222 8233 8232 8231 8230 8229 8231 8232 8228 8227 8224 8228 8225 8222 8221 8223 8220 8220 8220 8220 8220 8218 8218 8218 8216 8213 
8265 8265 8258 8258 8251 8250 8248 8247 8246 8244 8245 8244 8246 8243 8244 8241 8244 8242 8241 8240 8238 8240 8240 8241 8238 8241 8239 8243 8240 8236 8200 8163 8161 8171 8165 8153 8155 8154 8154 8164 8161 8159 8159 8182 8219 8221 8221 8220 8219 8224 8221 8218 8231 8231 8226 8232 8234 8231 8231 8230 8230 8230 8227 8228 8225 8225 8223 8220 8220 8218 8218 8218 8220 8215 8219 8221 8216 8216 8213 8215 
8263 8262 8258 8258 8255 8249 8246 8247 8249 8242 8245 8245 8244 8244 8241 8241 8240 8242 8242 8239 8238 8240 8241 8240 8238 8240 8239 8243 8240 8211 8167 8183 8216 8193 8148 8149 8153 8150 8152 8187 8210 8197 8177 8162 8172 8214 8219 8223 8223 8222 8219 8229 8237 8231 8228 8231 8232 8227 8230 8230 8228 8226 8226 8228 8226 8227 8222 8219 8218 8221 8217 8219 8219 8217 8218 8217 8217 8215 8214 8216 
8263 8261 8256 8258 8254 8248 8247 8246 8244 8246 8244 8244 8244 8243 8237 8242 8243 8239 8240 8239 8238 8240 8242 8238 8242 8242 8241 8244 8240 8215 8214 8235 8231 8168 8148 8149 8148 8152 8155 8183 8220 8224 8220 8215 8187 8180 8214 8221 8221 8221 8221 8237 8240 8227 8232 8231 8230 8228 8229 8227 8227 8226 8226 8221 8222 8226 8222 8221 8217 8219 8216 8220 8220 8218 8219 8220 8216 8213 8211 8214 
8261 8261 8254 8253 8245 8248 8246 8246 8245 8241 8244 8245 8243 8239 8239 8242 8237 8238 8238 8237 8239 8240 8241 8240 8241 8242 8242 8243 8239 8237 8240 8237 8235 8219 8170 8145 8151 8153 8178 8191 8218 8225 8227 8226 8225 8204 8198 8221 8221 8219 8226 8238 8238 8228 8231 8230 8228 8229 8227 8222 8226 8225 8224 8222 8220 8224 8222 8215 8217 8217 8216 8218 8216 8219 8216 8218 8217 8215 8211 8213 
8258 8257 8255 8256 8249 8247 8244 8248 8243 8242 8243 8243 8241 8237 8238 8242 8237 8238 8240 8238 8239 8239 8237 8240 8239 8243 8242 8241 8240 8240 8239 8233 8228 8210 8166 8149 8151 8155 8158 8177 8194 8209 8208 8223 8227 8221 8219 8222 8219 8222 8234 8238 8234 8226 8230 8228 8225 8224 8224 8222 8224 8223 8224 8222 8223 8223 8218 8219 8220 8219 8216 8215 8218 8218 8218 8219 8215 8216 8213 8212 
8259 8257 8254 8254 8249 8248 8248 8249 8248 8245 8244 8242 8240 8242 8240 8241 8238 8240 8245 8239 8240 8240 8244 8240 8238 8241 8241 8241 8237 8236 8221 8204 8183 8158 8150 8150 8156 8157 8153 8151 8158 8163 8166 8184 8216 8220 8222 8223 8221 8224 8235 8241 8230 8224 8228 8227 8226 8224 8224 8222 8221 8223 8221 8221 8219 8222 8220 8218 8219 8219 8217 8219 8220 8218 8218 8215 8217 8214 8209 8212 
8262 8259 8258 8254 8251 8251 8245 8246 8245 8243 8246 8242 8243 8243 8237 8240 8241 8243 8243 8241 8242 8241 8240 8238 8240 8241 8239 8237 8216 8192 8162 8157 8158 8151 8152 8161 8175 8154 8155 8155 8163 8167 8158 8160 8173 8211 8220 8219 8220 8228 8236 8240 8223 8227 8228 8227 8225 8225 8224 8223 8224 8222 8221 8221 8220 8220 8220 8219 8219 8218 8216 8219 8219 8219 8218 8217 8217 8215 8212 8213 
8259 8259 8255 8254 8253 8250 8247 8245 8243 8242 8243 8241 8244 8242 8239 8242 8241 8244 8241 8242 8243 8242 8244 8238 8239 8239 8232 8199 8169 8167 8162 8155 8155 8159 8166 8208 8196 8164 8155 8154 8159 8160 8159 8162 8163 8193 8217 8221 8224 8230 8237 8234 8221 8225 8226 8226 8223 8226 8225 8223 8227 8224 8223 8220 8217 8219 8219 8218 8217 8218 8217 8216 8217 8221 8223 8217 8221 8214 8216 8216 
8260 8260 8256 8256 8251 8248 8246 8249 8244 8245 8243 8239 8244 8244 8242 8242 8240 8240 8243 8240 8243 8242 8242 8238 8237 8239 8209 8164 8162 8159 8200 8170 8163 8186 8190 8220 8220 8177 8154 8157 8169 8174 8164 8162 8159 8182 8214 8219 8221 8233 8237 8228 8223 8225 8225 8225 8224 8222 8222 8224 8226 8222 8219 8218 8217 8220 8217 8216 8214 8217 8214 8216 8221 8221 8218 8218 8217 8215 8210 8214 
8259 8261 8255 8258 8251 8253 8250 8248 8246 8247 8248 8244 8247 8243 8238 8241 8240 8247 8243 8242 8240 8239 8240 8238 8241 8224 8174 8159 8177 8194 8230 8204 8211 8221 8208 8180 8189 8187 8159 8174 8218 8188 8161 8159 8156 8165 8212 8220 8223 8231 8233 8225 8224 8222 8225 8225 8222 8225 8225 8221 8222 8221 8216 8219 8219 8219 8220 8216 8215 8219 8214 8218 8219 8219 8221 8218 8222 8215 8216 8212 
8258 8263 8258 8256 8255 8253 8251 8250 8247 8250 8244 8246 8245 8244 8242 8243 8243 8242 8243 8242 8242 8240 8241 8241 8239 8219 8196 8177 8201 8228 8235 8217 8231 8221 8176 8177 8186 8179 8171 8201 8253 8222 8213 8174 8161 8159 8195 8227 8225 8232 8233 8226 8229 8230 8227 8226 8226 8226 8224 8220 8224 8219 8216 8218 8218 8220 8219 8218 8217 8217 8218 8220 8218 8220 8220 8220 8217 8215 8214 8214 
8260 8261 8258 8257 8254 8252 8250 8251 8251 8247 8246 8244 8246 8246 8242 8242 8241 8245 8243 8246 8242 8243 8246 8246 8246 8242 8212 8212 8234 8248 8251 8245 8243 8251 8209 8179 8175 8196 8201 8229 8277 8283 8265 8197 8174 8167 8168 8216 8226 8233 8232 8255 8270 8242 8228 8227 8226 8222 8224 8221 8221 8218 8219 8217 8218 8218 8217 8218 8216 8218 8214 8218 8217 8218 8219 8221 8218 8216 8214 8218 
8263 8259 8259 8258 8255 8256 8252 8252 8249 8250 8248 8245 8248 8247 8246 8246 8242 8245 8244 8247 8251 8254 8260 8260 8255 8244 8234 8235 8241 8248 8249 8256 8253 8215 8164 8167 8148 8166 8220 8224 8279 8297 8287 8203 8185 8221 8193 8204 8230 8238 8242 8271 8270 8239 8227 8224 8222 8223 8223 8222 8224 8218 8218 8216 8219 8221 8219 8214 8220 8216 8215 8218 8221 8220 8221 8222 8220 8215 8217 8218 
8259 8259 8257 8258 8256 8253 8253 8252 8253 8250 8251 8251 8253 8249 8251 8248 8246 8251 8248 8258 8260 8261 8266 8266 8263 8256 8250 8250 8247 8253 8255 8261 8242 8181 8161 8153 8148 8162 8208 8215 8285 8326 8326 8273 8216 8287 8253 8229 8241 8259 8276 8287 8264 8234 8225 8224 8222 8222 8222 8219 8221 8220 8217 8220 8216 8217 8217 8216 8218 8217 8218 8222 8218 8221 8223 8223 8222 8217 8219 8218 
8259 8259 8256 8260 8259 8255 8253 8258 8256 8254 8254 8256 8257 8256 8252 8254 8252 8253 8253 8253 8262 8262 8268 8269 8268 8266 8261 8258 8253 8258 8266 8272 8232 8199 8209 8183 8182 8193 8220 8227 8253 8278 8269 8258 8246 8248 8247 8247 8256 8270 8285 8284 8259 8228 8227 8225 8222 8221 8221 8221 8224 8221 8222 8218 8217 8220 8216 8218 8219 8218 8222 8220 8222 8221 8221 8223 8222 8219 8220 8220 
8264 8261 8258 8259 8256 8257 8258 8260 8259 8259 8258 8259 8259 8257 8257 8254 8255 8254 8253 8254 8257 8257 8258 8254 8252 8253 8253 8252 8248 8247 8250 8248 8244 8245 8245 8248 8248 8241 8242 8247 8247 8249 8251 8252 8256 8253 8257 8260 8266 8277 8287 8278 8259 8228 8223 8222 8222 8220 8221 8223 8223 8220 8222 8219 8216 8218 8217 8215 8218 8218 8220 8223 8222 8221 8222 8223 8223 8220 8221 8217 
8265 8262 8259 8259 8260 8262 8260 8263 8263 8256 8260 8262 8262 8260 8258 8260 8255 8259 8256 8256 8259 8259 8256 8250 8249 8252 8252 8248 8246 8248 8247 8246 8245 8251 8251 8256 8254 8249 8252 8255 8247 8255 8254 8258 8264 8268 8269 8272 8278 8289 8288 8270 8238 8223 8222 8221 8223 8222 8220 8220 8222 8221 8221 8220 8219 8220 8217 8217 8221 8218 8219 8222 8223 8223 8225 8222 8223 8221 8220 8216 
8266 8265 8263 8263 8262 8264 8263 8263 8263 8262 8261 8263 8263 8264 8261 8262 8260 8261 8259 8257 8267 8266 8263 8261 8260 8262 8259 8253 8251 8249 8251 8249 8252 8255 8259 8259 8260 8260 8260 8262 8259 8263 8265 8269 8273 8278 8285 8288 8289 8288 8278 8245 8223 8222 8222 8223 8220 8219 8220 8220 8221 8219 8220 8217 8215 8217 8215 8216 8217 8223 8221 8220 8223 8224 8223 8225 8222 8224 8221 8220 
8261 8258 8260 8265 8264 8265 8264 8263 8268 8266 8264 8265 8266 8264 8264 8266 8263 8264 8262 8258 8261 8271 8279 8277 8277 8273 8271 8266 8261 8260 8260 8258 8261 8264 8265 8270 8269 8268 8268 8271 8266 8272 8273 8278 8283 8286 8290 8289 8282 8278 8266 8237 8222 8220 8223 8221 8222 8220 8219 8220 8221 8220 8219 8216 8216 8216 8216 8218 8218 8220 8220 8220 8224 8222 8222 8220 8224 8221 8222 8217 
8261 8263 8265 8266 8263 8266 8264 8267 8267 8263 8264 8268 8265 8265 8262 8266 8265 8265 8264 8265 8261 8263 8280 8276 8281 8283 8285 8280 8273 8271 8271 8270 8268 8269 8274 8274 8274 8269 8270 8272 8268 8269 8273 8282 8289 8291 8293 8290 8283 8275 8264 8234 8222 8222 8221 8220 8219 8219 8217 8217 8216 8216 8217 8213 8217 8216 8215 8218 8220 8219 8219 8221 8221 8221 8222 8223 8226 8223 8223 8223 
8265 8265 8262 8268 8266 8268 8268 8268 8267 8263 8267 8265 8268 8270 8266 8267 8265 8263 8262 8263 8261 8262 8269 8271 8279 8283 8285 8283 8273 8270 8269 8264 8263 8267 8268 8272 8275 8273 8271 8272 8273 8272 8272 8280 8288 8286 8286 8288 8285 8273 8259 8231 8218 8221 8221 8219 8221 8219 8218 8218 8218 8217 8215 8215 8218 8215 8217 8220 8218 8219 8220 8221 8224 8225 8223 8225 8225 8225 8225 8222 
8264 8258 8261 8262 8262 8265 8266 8266 8267 8263 8264 8268 8268 8269 8264 8264 8262 8262 8262 8260 8261 8257 8255 8264 8272 8274 8279 8275 8276 8271 8264 8263 8262 8267 8271 8277 8281 8277 8274 8275 8275 8273 8268 8273 8276 8278 8277 8277 8275 8271 8258 8229 8221 8218 8216 8220 8217 8220 8219 8213 8215 8214 8218 8216 8213 8214 8217 8218 8218 8219 8219 8221 8223 8226 8226 8224 8227 8225 8224 8222 
8260 8259 8259 8263 8262 8264 8263 8266 8265 8263 8266 8268 8268 8270 8268 8266 8260 8264 8263 8260 8260 8259 8256 8253 8259 8259 8262 8266 8271 8270 8262 8258 8262 8265 8271 8273 8277 8273 8267 8269 8269 8267 8267 8270 8273 8270 8271 8275 8272 8270 8259 8225 8218 8220 8218 8220 8217 8218 8220 8217 8219 8215 8217 8217 8216 8214 8215 8218 8221 8220 8222 8225 8226 8225 8225 8226 8226 8223 8222 8223 
8260 8260 8257 8261 8264 8261 8261 8269 8266 8261 8265 8267 8269 8270 8268 8264 8267 8263 8264 8262 8260 8260 8256 8250 8253 8252 8252 8255 8258 8261 8256 8255 8258 8262 8262 8267 8268 8265 8263 8267 8268 8269 8267 8271 8272 8270 8270 8273 8276 8271 8256 8225 8216 8220 8219 8218 8216 8216 8218 8214 8217 8217 8216 8215 8214 8213 8214 8217 8217 8219 8219 8224 8225 8225 8226 8222 8225 8225 8221 8220 
8261 8258 8261 8260 8261 8260 8264 8263 8263 8261 8264 8266 8266 8268 8268 8268 8264 8264 8266 8264 8260 8259 8254 8249 8251 8248 8253 8251 8251 8255 8258 8252 8254 8255 8256 8261 8262 8263 8260 8263 8265 8266 8268 8271 8268 8270 8272 8274 8276 8269 8253 8223 8218 8220 8222 8217 8218 8215 8216 8215 8216 8214 8215 8213 8213 8215 8215 8214 8218 8218 8220 8223 8227 8225 8225 8223 8224 8221 8222 8221 
8259 8261 8256 8259 8258 8257 8258 8259 8262 8260 8263 8264 8266 8264 8267 8265 8267 8264 8265 8262 8264 8260 8258 8250 8253 8250 8250 8249 8244 8248 8252 8253 8253 8253 8253 8259 8261 8266 8265 8263 8259 8263 8264 8271 8271 8268 8269 8272 8272 8267 8246 8218 8217 8218 8220 8217 8216 8214 8214 8213 8216 8217 8215 8213 8215 8213 8213 8215 8215 8219 8220 8220 8224 8226 8223 8222 8221 8224 8222 8222 
8249 8246 8250 8250 8251 8252 8253 8257 8258 8257 8259 8261 8264 8264 8262 8266 8264 8265 8264 8261 8257 8258 8257 8252 8252 8247 8245 8248 8239 8242 8249 8249 8250 8253 8251 8255 8260 8261 8263 8258 8259 8256 8261 8267 8268 8267 8270 8270 8273 8265 8242 8207 8206 8209 8216 8217 8215 8213 8213 8212 8215 8214 8211 8212 8214 8210 8214 8212 8219 8217 8221 8223 8225 8225 8224 8219 8220 8225 8224 8226 
8251 8251 8254 8246 8236 8235 8239 8258 8256 8251 8252 8254 8251 8255 8255 8257 8257 8258 8263 8261 8258 8255 8256 8252 8253 8243 8243 8240 8240 8244 8246 8249 8250 8253 8256 8257 8265 8262 8267 8258 8253 8257 8260 8264 8264 8264 8268 8269 8269 8259 8233 8207 8205 8204 8207 8214 8212 8214 8210 8211 8212 8214 8216 8212 8210 8213 8214 8214 8218 8219 8220 8220 8223 8226 8224 8223 8226 8227 8228 8229 
8286 8276 8258 8252 8249 8253 8255 8256 8252 8243 8242 8239 8235 8238 8239 8242 8246 8248 8248 8247 8248 8246 8249 8246 8249 8236 8232 8232 8238 8241 8242 8245 8248 8249 8252 8258 8267 8286 8280 8259 8254 8254 8257 8263 8259 8257 8262 8266 8265 8257 8226 8206 8202 8203 8206 8210 8206 8205 8212 8211 8211 8212 8216 8214 8213 8217 8218 8216 8220 8225 8226 8231 8232 8237 8236 8238 8237 8238 8230 8227 
8325 8305 8299 8299 8299 8305 8300 8292 8295 8291 8290 8281 8275 8278 8281 8293 8292 8287 8279 8277 8275 8273 8247 8234 8238 8232 8231 8236 8238 8241 8237 8239 8247 8247 8246 8253 8262 8277 8272 8257 8253 8251 8256 8261 8260 8255 8262 8260 8259 8249 8224 8205 8201 8201 8202 8202 8203 8199 8202 8203 8208 8207 8210 8212 8211 8215 8220 8224 8222 8230 8233 8231 8232 8241 8238 8242 8241 8238 8231 8232 
8321 8317 8330 8357 8348 8323 8304 8304 8328 8352 8331 8301 8293 8297 8319 8358 8344 8313 8296 8287 8290 8313 8258 8235 8229 8229 8232 8235 8232 8234 8235 8232 8234 8240 8244 8247 8250 8253 8251 8253 8247 8247 8250 8253 8252 8254 8259 8259 8257 8248 8218 8200 8201 8199 8200 8201 8202 8198 8199 8200 8206 8205 8209 8207 8208 8210 8215 8220 8226 8228 8232 8236 8234 8235 8235 8238 8237 8234 8232 8230 
8356 8365 8383 8389 8357 8342 8338 8338 8364 8373 8355 8332 8331 8330 8353 8375 8347 8321 8306 8305 8302 8319 8291 8243 8226 8217 8224 8225 8220 8219 8220 8220 8224 8227 8229 8236 8239 8239 8247 8248 8243 8239 8244 8246 8252 8249 8251 8255 8256 8246 8218 8212 8215 8203 8196 8203 8197 8195 8196 8200 8206 8205 8205 8204 8210 8214 8216 8219 8224 8231 8229 8232 8233 8238 8235 8235 8239 8228 8233 8231 


