P2
80 60
8363
8285 8285 8297 8300 8312 8311 8309 8311 8303 8301 8300 8305 8313 8314 8318 8323 8323 8326 8329 8327 8324 8317 8311 8313 8316 8309 8300 8294 8278 8265 8255 8255 8254 8255 8252 8250 8253 8257 8255 8249 8239 8230 8229 8228 8248 8292 8301 8305 8309 8308 8309 8312 8310 8311 8304 8304 8305 8304 8305 8304 8306 8305 8306 8307 8307 8317 8321 8323 8330 8329 8332 8329 8329 8331 8336 8338 8344 8355 8351 8356 
8287 8281 8288 8293 8291 8290 8281 8274 8265 8275 8280 8282 8289 8291 8300 8312 8315 8316 8317 8315 8313 8306 8304 8300 8305 8299 8298 8294 8289 8288 8286 8287 8289 8297 8301 8303 8307 8311 8316 8315 8310 8306 8301 8292 8294 8308 8313 8313 8316 8315 8319 8316 8312 8310 8307 8305 8305 8303 8304 8302 8305 8306 8307 8306 8305 8302 8305 8310 8324 8326 8327 8327 8327 8327 8332 8335 8343 8357 8356 8360 
8273 8263 8272 8265 8267 8267 8270 8265 8267 8275 8273 8279 8283 8282 8290 8302 8303 8303 8295 8294 8289 8292 8293 8293 8298 8297 8298 8298 8297 8300 8297 8302 8309 8318 8321 8322 8330 8332 8334 8333 8335 8331 8331 8331 8331 8333 8331 8325 8322 8320 8324 8323 8319 8315 8309 8308 8309 8308 8308 8304 8308 8310 8311 8307 8308 8307 8307 8312 8322 8322 8327 8325 8325 8327 8330 8335 8347 8363 8359 8354 
8269 8262 8274 8270 8276 8279 8279 8278 8281 8282 8281 8279 8281 8286 8291 8300 8302 8300 8293 8293 8288 8293 8291 8293 8296 8300 8301 8303 8300 8300 8301 8307 8314 8323 8325 8331 8333 8339 8341 8336 8335 8338 8339 8336 8335 8339 8335 8330 8327 8324 8328 8327 8322 8316 8312 8311 8310 8309 8310 8310 8310 8311 8312 8311 8307 8311 8308 8311 8318 8320 8320 8325 8323 8325 8325 8337 8348 8362 8358 8358 
8274 8266 8281 8277 8283 8287 8289 8289 8286 8287 8282 8279 8286 8293 8297 8300 8300 8299 8298 8293 8291 8291 8292 8293 8294 8297 8303 8302 8299 8303 8303 8310 8321 8328 8330 8333 8332 8335 8340 8336 8336 8339 8340 8339 8337 8336 8331 8333 8329 8328 8328 8329 8324 8318 8314 8316 8311 8310 8315 8313 8314 8310 8312 8312 8307 8311 8309 8309 8313 8321 8316 8321 8324 8325 8329 8337 8352 8361 8359 8361 
8280 8274 8287 8288 8293 8295 8296 8296 8293 8291 8285 8287 8293 8296 8299 8296 8301 8297 8293 8287 8289 8294 8293 8294 8296 8294 8295 8299 8298 8299 8303 8312 8320 8328 8328 8329 8330 8331 8336 8337 8339 8339 8338 8334 8333 8336 8332 8331 8332 8327 8327 8331 8325 8318 8315 8312 8309 8310 8313 8313 8313 8307 8311 8309 8306 8311 8307 8309 8312 8319 8319 8323 8322 8324 8327 8341 8355 8362 8356 8356 
8283 8279 8291 8291 8293 8296 8298 8298 8294 8293 8294 8296 8296 8297 8300 8301 8297 8294 8293 8290 8291 8297 8298 8298 8295 8298 8298 8298 8295 8296 8298 8308 8318 8323 8325 8323 8326 8327 8331 8334 8338 8335 8338 8335 8332 8333 8329 8327 8328 8324 8325 8326 8325 8321 8313 8311 8308 8311 8311 8312 8313 8308 8309 8310 8309 8310 8309 8309 8311 8315 8320 8318 8320 8326 8332 8343 8359 8360 8354 8349 
8287 8288 8295 8291 8297 8296 8298 8298 8295 8294 8296 8298 8302 8301 8299 8298 8295 8290 8291 8291 8291 8292 8293 8295 8298 8295 8292 8294 8293 8294 8298 8309 8316 8323 8320 8320 8324 8326 8329 8333 8336 8333 8339 8330 8325 8325 8316 8311 8308 8306 8309 8313 8316 8316 8311 8308 8310 8307 8310 8309 8311 8306 8309 8309 8307 8307 8309 8312 8308 8311 8316 8316 8319 8328 8336 8347 8357 8358 8346 8351 
8288 8289 8296 8293 8296 8298 8300 8302 8301 8297 8301 8297 8298 8296 8297 8292 8289 8287 8287 8289 8288 8289 8292 8291 8295 8294 8289 8291 8294 8296 8302 8308 8315 8320 8321 8322 8321 8324 8327 8332 8338 8334 8335 8322 8280 8252 8231 8214 8202 8202 8216 8241 8295 8306 8304 8309 8307 8308 8307 8309 8311 8307 8310 8309 8307 8309 8308 8313 8308 8312 8313 8317 8320 8326 8342 8347 8357 8353 8343 8343 
8290 8285 8295 8293 8298 8299 8298 8304 8301 8301 8300 8297 8297 8296 8291 8290 8284 8286 8285 8285 8284 8289 8291 8289 8294 8292 8288 8296 8296 8298 8300 8310 8313 8319 8319 8320 8320 8321 8330 8334 8337 8333 8330 8310 8216 8170 8163 8162 8164 8164 8156 8170 8215 8245 8279 8301 8309 8308 8308 8308 8306 8308 8308 8309 8309 8308 8308 8311 8306 8307 8311 8318 8321 8331 8340 8348 8355 8348 8342 8348 
8292 8288 8297 8293 8295 8297 8298 8301 8300 8296 8300 8297 8297 8293 8290 8288 8285 8283 8284 8285 8286 8290 8288 8292 8293 8292 8291 8293 8295 8297 8302 8309 8315 8319 8317 8319 8321 8325 8330 8334 8336 8326 8307 8276 8238 8181 8164 8166 8190 8199 8163 8158 8159 8162 8227 8306 8311 8309 8312 8310 8307 8308 8312 8309 8306 8308 8306 8308 8306 8307 8310 8319 8324 8336 8345 8349 8353 8346 8344 8341 
8300 8294 8296 8290 8293 8296 8295 8301 8298 8298 8300 8298 8293 8292 8288 8286 8285 8282 8283 8285 8286 8286 8290 8292 8294 8290 8293 8296 8297 8297 8302 8307 8316 8316 8317 8319 8322 8323 8327 8334 8334 8320 8218 8174 8165 8165 8162 8235 8240 8211 8166 8156 8158 8199 8284 8313 8314 8313 8312 8310 8309 8310 8311 8308 8305 8308 8308 8310 8309 8304 8309 8320 8332 8344 8344 8349 8343 8344 8343 8346 
8300 8295 8297 8289 8296 8299 8298 8299 8295 8299 8298 8295 8294 8293 8290 8288 8285 8285 8286 8285 8287 8290 8293 8297 8294 8291 8293 8300 8299 8300 8306 8311 8314 8317 8316 8318 8321 8323 8328 8330 8334 8327 8297 8211 8168 8165 8164 8195 8226 8244 8182 8162 8160 8219 8271 8301 8313 8317 8316 8314 8311 8310 8311 8308 8305 8307 8310 8310 8309 8303 8311 8325 8331 8342 8342 8345 8341 8342 8346 8346 
8306 8296 8298 8293 8298 8301 8299 8297 8296 8299 8299 8293 8297 8292 8289 8287 8285 8288 8285 8288 8288 8296 8295 8297 8297 8294 8295 8297 8299 8300 8303 8309 8315 8314 8314 8318 8322 8322 8323 8329 8330 8330 8328 8299 8229 8188 8178 8211 8217 8190 8161 8158 8159 8161 8179 8226 8302 8317 8321 8319 8317 8315 8315 8314 8312 8314 8311 8310 8311 8305 8307 8325 8335 8338 8342 8337 8335 8346 8346 8345 
8308 8291 8299 8290 8294 8295 8296 8295 8293 8296 8294 8295 8294 8289 8285 8286 8284 8283 8286 8290 8290 8293 8297 8296 8290 8292 8289 8294 8294 8296 8301 8305 8310 8312 8311 8313 8315 8318 8321 8322 8326 8326 8326 8322 8276 8187 8201 8254 8186 8160 8155 8158 8160 8178 8221 8279 8306 8310 8315 8316 8316 8313 8317 8319 8319 8317 8317 8314 8310 8304 8309 8323 8332 8338 8336 8331 8335 8343 8350 8345 
8301 8292 8292 8286 8290 8291 8291 8294 8292 8297 8295 8288 8286 8281 8280 8281 8281 8283 8287 8286 8289 8294 8294 8294 8289 8287 8291 8291 8291 8290 8297 8300 8305 8306 8307 8309 8312 8313 8312 8311 8312 8316 8322 8319 8307 8268 8203 8184 8170 8170 8172 8165 8179 8268 8299 8305 8307 8306 8308 8311 8313 8313 8316 8317 8320 8321 8321 8320 8316 8312 8310 8325 8334 8338 8333 8329 8334 8344 8351 8347 
8299 8289 8284 8283 8284 8284 8289 8292 8287 8290 8292 8285 8284 8280 8277 8280 8281 8283 8285 8284 8287 8294 8294 8291 8287 8286 8287 8290 8291 8286 8293 8298 8299 8301 8298 8304 8304 8305 8300 8274 8259 8282 8291 8305 8306 8312 8288 8194 8204 8264 8278 8255 8234 8286 8305 8303 8302 8303 8305 8306 8308 8310 8313 8314 8317 8323 8322 8321 8324 8321 8315 8323 8332 8333 8327 8327 8334 8343 8351 8350 
8292 8283 8279 8275 8282 8280 8278 8287 8286 8285 8286 8282 8281 8282 8280 8279 8279 8280 8281 8283 8288 8291 8291 8288 8286 8286 8285 8293 8291 8289 8292 8297 8297 8298 8293 8294 8292 8279 8216 8168 8162 8190 8194 8221 8278 8300 8295 8218 8273 8295 8297 8299 8298 8297 8296 8297 8296 8296 8302 8300 8302 8305 8307 8309 8313 8314 8314 8318 8322 8320 8319 8324 8332 8329 8320 8323 8328 8335 8350 8351 
8284 8272 8275 8272 8275 8277 8282 8281 8283 8280 8281 8279 8281 8279 8280 8281 8281 8278 8280 8284 8286 8290 8289 8291 8292 8289 8286 8291 8290 8289 8291 8291 8297 8292 8288 8268 8218 8181 8166 8160 8154 8209 8198 8158 8182 8258 8281 8217 8287 8294 8296 8293 8294 8292 8290 8292 8292 8291 8292 8291 8295 8297 8302 8301 8304 8309 8312 8315 8313 8314 8317 8322 8327 8321 8310 8309 8309 8322 8347 8351 
8278 8266 8273 8269 8271 8275 8278 8283 8277 8276 8280 8277 8279 8278 8278 8280 8283 8283 8281 8285 8285 8288 8287 8285 8284 8284 8287 8290 8291 8289 8290 8287 8291 8287 8271 8180 8154 8167 8217 8189 8199 8197 8155 8152 8166 8217 8212 8214 8286 8289 8291 8293 8291 8289 8284 8287 8283 8285 8288 8287 8288 8291 8296 8296 8298 8302 8305 8305 8307 8312 8311 8313 8315 8305 8292 8289 8297 8322 8344 8346 
8271 8264 8271 8266 8270 8271 8277 8278 8275 8277 8279 8281 8281 8283 8282 8287 8286 8286 8284 8284 8287 8289 8285 8259 8244 8249 8261 8284 8288 8286 8288 8291 8294 8283 8212 8157 8156 8160 8173 8212 8244 8190 8160 8154 8165 8190 8205 8228 8279 8280 8283 8283 8284 8283 8282 8283 8282 8282 8281 8283 8285 8289 8293 8292 8296 8298 8301 8302 8306 8308 8306 8300 8297 8288 8288 8293 8305 8327 8343 8348 
8270 8263 8269 8268 8270 8273 8273 8278 8275 8281 8286 8283 8289 8290 8287 8286 8289 8286 8280 8283 8288 8290 8286 8226 8180 8185 8191 8265 8285 8288 8291 8291 8287 8228 8164 8160 8166 8165 8170 8173 8189 8214 8186 8183 8224 8203 8186 8239 8270 8253 8258 8258 8266 8275 8277 8279 8278 8276 8281 8280 8280 8283 8290 8289 8292 8294 8293 8297 8296 8302 8298 8296 8298 8312 8315 8314 8316 8331 8341 8350 
8267 8262 8275 8271 8277 8276 8277 8280 8277 8283 8288 8288 8288 8289 8285 8288 8286 8282 8282 8282 8285 8289 8285 8254 8183 8179 8187 8249 8284 8285 8288 8289 8281 8199 8172 8187 8234 8242 8173 8159 8161 8162 8213 8263 8239 8239 8169 8221 8194 8154 8157 8162 8178 8215 8258 8272 8275 8279 8277 8275 8278 8282 8286 8285 8288 8291 8291 8293 8295 8295 8291 8288 8294 8331 8343 8335 8333 8340 8344 8350 
8264 8266 8278 8281 8283 8283 8282 8283 8280 8285 8284 8286 8289 8285 8284 8282 8283 8285 8283 8286 8283 8287 8285 8270 8192 8185 8190 8225 8281 8286 8285 8288 8285 8270 8261 8270 8261 8197 8161 8157 8161 8213 8178 8198 8162 8176 8175 8166 8144 8142 8144 8160 8153 8162 8187 8254 8272 8271 8275 8275 8276 8279 8284 8284 8284 8289 8289 8286 8290 8288 8285 8283 8287 8330 8356 8350 8346 8345 8344 8349 
8268 8265 8278 8282 8285 8285 8284 8280 8280 8283 8284 8288 8287 8285 8282 8282 8281 8283 8283 8282 8283 8286 8283 8281 8213 8185 8187 8209 8274 8284 8286 8286 8285 8277 8256 8241 8208 8166 8157 8161 8199 8181 8152 8145 8152 8154 8162 8162 8145 8143 8145 8151 8151 8157 8159 8205 8253 8256 8267 8273 8276 8278 8283 8282 8285 8285 8285 8288 8287 8282 8281 8281 8280 8310 8351 8353 8351 8348 8345 8344 
8271 8269 8279 8278 8282 8286 8282 8281 8281 8281 8284 8282 8286 8281 8281 8280 8278 8281 8280 8281 8283 8285 8282 8280 8242 8186 8190 8201 8266 8283 8282 8277 8261 8247 8236 8230 8175 8160 8174 8226 8210 8152 8149 8146 8144 8156 8164 8183 8154 8148 8150 8154 8152 8156 8173 8198 8191 8183 8204 8258 8275 8279 8282 8283 8283 8286 8285 8285 8286 8281 8281 8276 8273 8290 8337 8348 8345 8346 8346 8347 
8273 8270 8277 8277 8286 8284 8282 8281 8275 8278 8280 8279 8283 8284 8281 8280 8280 8276 8282 8280 8281 8283 8282 8282 8261 8191 8194 8200 8248 8277 8263 8252 8252 8245 8232 8216 8162 8171 8229 8196 8171 8150 8146 8146 8157 8165 8172 8205 8175 8148 8151 8151 8152 8153 8174 8216 8175 8164 8175 8247 8273 8277 8283 8281 8283 8286 8285 8288 8284 8282 8281 8276 8273 8278 8323 8340 8336 8341 8343 8342 
8270 8272 8281 8279 8285 8284 8286 8284 8278 8280 8282 8283 8284 8284 8283 8282 8282 8283 8282 8283 8281 8283 8282 8279 8274 8208 8197 8204 8227 8259 8248 8259 8253 8236 8204 8197 8168 8159 8159 8155 8153 8144 8146 8148 8151 8159 8163 8155 8153 8142 8146 8150 8152 8152 8154 8170 8159 8159 8174 8240 8275 8280 8282 8282 8279 8286 8287 8285 8289 8284 8283 8280 8274 8272 8301 8333 8334 8337 8340 8348 
8272 8273 8285 8279 8283 8285 8284 8283 8282 8283 8282 8282 8282 8284 8282 8283 8281 8281 8281 8281 8280 8281 8280 8280 8275 8230 8197 8204 8208 8242 8247 8253 8251 8240 8196 8166 8151 8165 8160 8158 8155 8141 8149 8151 8151 8159 8162 8151 8152 8147 8146 8145 8151 8153 8150 8149 8154 8171 8180 8236 8273 8276 8282 8280 8283 8283 8284 8286 8287 8286 8286 8283 8278 8277 8293 8326 8332 8337 8343 8342 
8272 8276 8283 8280 8284 8284 8285 8288 8281 8282 8280 8281 8282 8281 8280 8284 8282 8282 8284 8280 8278 8280 8278 8276 8276 8251 8198 8206 8204 8236 8238 8236 8226 8219 8194 8150 8143 8153 8155 8152 8145 8146 8150 8150 8150 8157 8158 8153 8155 8149 8151 8151 8153 8150 8151 8150 8156 8165 8227 8252 8270 8278 8281 8281 8282 8283 8285 8287 8286 8288 8285 8285 8281 8283 8289 8323 8329 8336 8339 8338 
8278 8272 8282 8279 8283 8288 8283 8287 8282 8282 8280 8280 8282 8278 8278 8280 8278 8280 8279 8280 8276 8277 8280 8281 8278 8269 8205 8200 8204 8236 8249 8231 8222 8203 8155 8144 8142 8152 8160 8150 8150 8145 8150 8148 8148 8152 8154 8153 8156 8155 8156 8151 8155 8168 8175 8151 8154 8161 8227 8267 8274 8277 8282 8284 8284 8286 8283 8286 8286 8285 8288 8287 8284 8283 8288 8317 8330 8333 8338 8334 
8283 8279 8283 8283 8283 8289 8284 8284 8281 8280 8277 8277 8278 8279 8280 8281 8279 8282 8278 8279 8279 8280 8280 8279 8277 8272 8215 8199 8202 8231 8249 8206 8174 8157 8163 8156 8141 8154 8153 8149 8148 8145 8151 8148 8150 8154 8151 8152 8158 8156 8157 8152 8154 8200 8223 8165 8152 8159 8231 8268 8276 8278 8284 8283 8284 8283 8284 8286 8285 8290 8287 8288 8284 8284 8286 8308 8325 8323 8332 8330 
8291 8284 8292 8285 8290 8289 8285 8287 8279 8282 8278 8277 8276 8278 8279 8280 8280 8279 8278 8275 8276 8282 8279 8277 8277 8265 8230 8198 8201 8206 8218 8165 8160 8155 8148 8160 8159 8160 8146 8148 8150 8146 8154 8154 8153 8157 8151 8150 8163 8160 8155 8152 8157 8202 8245 8211 8170 8165 8241 8273 8275 8279 8281 8281 8284 8288 8287 8289 8289 8291 8290 8288 8287 8288 8287 8303 8319 8321 8324 8326 
8295 8291 8298 8294 8294 8291 8286 8286 8282 8281 8278 8274 8277 8278 8276 8279 8278 8279 8278 8279 8279 8282 8281 8278 8275 8256 8241 8204 8204 8199 8202 8166 8168 8174 8172 8174 8164 8150 8142 8145 8144 8138 8152 8154 8156 8156 8151 8148 8167 8180 8172 8163 8167 8186 8227 8243 8231 8204 8264 8276 8277 8281 8285 8287 8286 8291 8289 8292 8295 8295 8299 8293 8292 8290 8286 8301 8318 8320 8321 8324 
8299 8299 8307 8296 8296 8293 8292 8286 8281 8280 8277 8277 8279 8278 8279 8277 8278 8279 8280 8279 8280 8283 8280 8275 8272 8246 8255 8228 8211 8203 8175 8159 8163 8176 8172 8180 8161 8142 8143 8139 8139 8144 8149 8154 8154 8153 8148 8150 8173 8178 8180 8194 8195 8198 8222 8251 8261 8271 8277 8280 8280 8285 8288 8291 8289 8292 8292 8295 8298 8299 8304 8301 8299 8297 8293 8301 8314 8317 8319 8319 
8303 8299 8306 8297 8295 8293 8287 8285 8278 8278 8281 8278 8280 8280 8279 8278 8277 8279 8281 8275 8278 8279 8280 8273 8270 8246 8274 8267 8227 8216 8184 8165 8162 8167 8165 8170 8165 8149 8144 8143 8140 8143 8147 8149 8145 8152 8148 8151 8167 8179 8191 8202 8204 8205 8215 8248 8269 8280 8283 8286 8286 8286 8293 8292 8289 8295 8297 8300 8303 8304 8307 8305 8306 8303 8298 8302 8312 8310 8313 8312 
8308 8301 8307 8301 8297 8290 8289 8288 8281 8279 8281 8281 8280 8279 8278 8281 8277 8281 8278 8279 8277 8278 8278 8273 8266 8256 8279 8267 8240 8227 8201 8173 8167 8169 8171 8179 8175 8167 8155 8149 8139 8143 8148 8146 8145 8148 8150 8159 8182 8185 8201 8209 8217 8213 8220 8248 8277 8285 8285 8290 8287 8288 8294 8291 8296 8296 8299 8303 8305 8308 8309 8308 8311 8311 8303 8305 8310 8308 8310 8311 
8308 8302 8306 8299 8296 8291 8286 8285 8281 8282 8280 8280 8276 8275 8278 8280 8276 8276 8278 8277 8277 8280 8274 8272 8266 8262 8291 8256 8227 8226 8207 8184 8171 8165 8169 8177 8176 8183 8169 8153 8154 8154 8143 8141 8143 8151 8148 8156 8178 8182 8199 8210 8221 8223 8235 8254 8279 8286 8286 8288 8291 8290 8290 8291 8294 8300 8299 8305 8309 8309 8308 8312 8310 8312 8307 8306 8306 8308 8304 8304 
8308 8301 8305 8299 8298 8290 8289 8283 8279 8284 8282 8276 8279 8277 8276 8274 8275 8275 8274 8275 8276 8276 8274 8274 8268 8264 8304 8253 8241 8228 8203 8181 8171 8168 8174 8183 8184 8184 8182 8173 8178 8167 8146 8145 8151 8169 8173 8186 8194 8187 8198 8207 8215 8220 8228 8220 8269 8285 8285 8288 8288 8287 8291 8291 8295 8298 8302 8303 8306 8308 8310 8310 8314 8312 8307 8307 8302 8304 8303 8302 
8309 8304 8308 8296 8296 8293 8288 8283 8278 8280 8281 8278 8278 8275 8273 8273 8277 8273 8275 8274 8276 8277 8275 8272 8267 8268 8297 8257 8236 8228 8212 8197 8181 8173 8174 8180 8159 8163 8180 8183 8183 8176 8164 8170 8173 8177 8184 8196 8198 8188 8196 8211 8220 8218 8223 8240 8272 8284 8285 8283 8285 8286 8292 8289 8294 8298 8302 8304 8304 8308 8308 8310 8311 8312 8307 8306 8300 8302 8301 8305 
8304 8303 8307 8296 8293 8289 8286 8282 8280 8282 8279 8278 8278 8275 8275 8275 8277 8277 8276 8274 8274 8274 8273 8269 8271 8266 8285 8262 8242 8233 8218 8205 8187 8179 8186 8175 8168 8169 8180 8185 8185 8185 8190 8190 8180 8193 8202 8205 8207 8199 8201 8218 8219 8223 8231 8245 8268 8281 8283 8285 8288 8287 8291 8291 8297 8300 8302 8304 8307 8306 8307 8309 8309 8309 8305 8303 8299 8304 8298 8300 
8305 8298 8304 8294 8290 8289 8283 8284 8279 8281 8279 8278 8280 8278 8276 8281 8277 8277 8275 8275 8274 8276 8273 8272 8270 8270 8295 8284 8246 8235 8222 8205 8198 8196 8193 8184 8184 8183 8195 8199 8192 8178 8188 8199 8197 8201 8211 8210 8214 8216 8211 8208 8221 8217 8240 8254 8274 8282 8285 8286 8288 8289 8289 8294 8297 8300 8301 8306 8306 8303 8307 8307 8306 8307 8304 8306 8303 8303 8299 8300 
8306 8296 8302 8292 8290 8285 8283 8284 8282 8278 8279 8276 8277 8278 8277 8275 8276 8277 8275 8273 8274 8274 8272 8272 8271 8269 8289 8309 8255 8233 8227 8219 8217 8216 8208 8198 8193 8194 8203 8203 8189 8186 8195 8187 8194 8203 8205 8205 8218 8223 8225 8211 8221 8218 8242 8260 8279 8284 8284 8286 8288 8288 8293 8296 8294 8297 8300 8302 8306 8305 8308 8306 8307 8309 8307 8306 8301 8303 8293 8298 
8304 8297 8301 8288 8287 8282 8281 8283 8281 8283 8280 8279 8278 8276 8272 8277 8276 8274 8274 8272 8277 8271 8271 8269 8271 8271 8273 8301 8284 8250 8241 8235 8235 8235 8224 8215 8211 8208 8206 8200 8198 8195 8202 8193 8195 8197 8190 8202 8218 8219 8226 8220 8221 8222 8242 8267 8282 8282 8285 8285 8288 8288 8293 8295 8297 8297 8301 8305 8308 8310 8308 8306 8306 8308 8307 8305 8302 8299 8293 8293 
8302 8296 8296 8284 8285 8281 8279 8279 8280 8277 8279 8278 8279 8282 8277 8276 8276 8276 8273 8274 8270 8273 8271 8269 8270 8273 8270 8282 8306 8264 8249 8251 8246 8240 8235 8229 8210 8209 8203 8196 8201 8202 8206 8202 8197 8197 8196 8203 8215 8210 8215 8220 8223 8239 8256 8280 8284 8284 8287 8287 8287 8292 8296 8295 8296 8300 8302 8304 8303 8308 8307 8307 8307 8309 8305 8302 8302 8297 8290 8285 
8301 8292 8293 8282 8281 8281 8281 8280 8276 8276 8275 8277 8281 8280 8279 8277 8278 8276 8275 8274 8273 8272 8270 8272 8272 8273 8273 8261 8290 8285 8261 8265 8249 8231 8238 8221 8208 8208 8199 8188 8193 8193 8205 8211 8200 8204 8208 8208 8211 8206 8208 8218 8227 8243 8278 8286 8287 8288 8291 8287 8291 8291 8298 8297 8297 8301 8303 8307 8308 8311 8307 8306 8308 8307 8305 8304 8302 8297 8289 8292 
8298 8294 8292 8283 8281 8279 8281 8280 8276 8278 8277 8278 8279 8277 8277 8280 8278 8276 8276 8273 8272 8274 8276 8273 8274 8274 8274 8256 8260 8294 8276 8266 8256 8239 8234 8228 8206 8206 8199 8188 8193 8195 8202 8208 8209 8214 8216 8215 8220 8217 8216 8222 8234 8269 8288 8288 8289 8286 8288 8289 8292 8292 8296 8298 8300 8299 8303 8305 8308 8309 8308 8309 8309 8308 8306 8306 8303 8293 8282 8288 
8300 8292 8292 8282 8277 8280 8282 8278 8276 8278 8281 8275 8280 8279 8277 8277 8277 8275 8276 8273 8274 8270 8275 8272 8274 8275 8277 8274 8247 8262 8286 8277 8257 8248 8230 8234 8223 8214 8211 8202 8206 8217 8216 8220 8217 8215 8216 8217 8222 8225 8226 8237 8263 8290 8293 8290 8288 8290 8287 8291 8292 8294 8296 8298 8297 8299 8301 8300 8306 8306 8309 8310 8308 8309 8308 8306 8302 8292 8280 8281 
8302 8285 8293 8280 8278 8284 8281 8281 8279 8278 8279 8279 8278 8275 8277 8276 8275 8275 8277 8274 8272 8272 8271 8272 8274 8278 8281 8280 8253 8243 8260 8277 8274 8256 8226 8232 8229 8225 8223 8222 8217 8215 8225 8226 8216 8209 8205 8218 8223 8232 8242 8266 8281 8298 8299 8294 8291 8291 8289 8291 8291 8294 8297 8296 8294 8297 8299 8304 8305 8306 8309 8311 8308 8310 8308 8307 8302 8293 8278 8279 
8296 8285 8288 8278 8282 8281 8284 8282 8276 8278 8280 8279 8280 8280 8278 8278 8273 8273 8273 8271 8272 8273 8274 8272 8275 8277 8281 8291 8279 8247 8243 8268 8273 8276 8255 8248 8242 8237 8229 8231 8229 8222 8233 8237 8221 8214 8215 8225 8234 8257 8269 8276 8294 8300 8297 8298 8296 8294 8293 8294 8296 8295 8298 8294 8294 8297 8300 8303 8305 8306 8310 8311 8308 8312 8308 8307 8304 8292 8277 8275 
8297 8281 8284 8277 8279 8280 8281 8282 8275 8279 8280 8280 8281 8279 8281 8278 8277 8274 8276 8274 8272 8274 8274 8274 8277 8279 8287 8293 8288 8268 8245 8254 8275 8273 8270 8272 8246 8231 8230 8234 8229 8229 8238 8240 8238 8242 8245 8255 8272 8271 8275 8284 8301 8302 8298 8299 8298 8295 8293 8293 8296 8295 8297 8296 8295 8299 8301 8304 8306 8308 8311 8312 8312 8311 8313 8310 8305 8298 8271 8269 
8291 8278 8288 8279 8278 8278 8280 8279 8278 8276 8279 8280 8281 8280 8279 8276 8276 8275 8276 8272 8273 8274 8276 8276 8276 8284 8289 8296 8299 8288 8269 8256 8262 8277 8268 8260 8263 8262 8257 8252 8251 8255 8254 8262 8267 8274 8275 8278 8276 8276 8285 8298 8303 8304 8300 8299 8297 8297 8297 8297 8297 8297 8297 8295 8293 8299 8304 8303 8310 8312 8313 8314 8310 8314 8312 8313 8305 8294 8267 8272 
8289 8280 8283 8280 8279 8281 8277 8280 8275 8276 8276 8277 8280 8279 8282 8279 8281 8277 8275 8275 8273 8274 8278 8279 8283 8287 8293 8294 8298 8295 8286 8275 8264 8262 8271 8268 8260 8262 8262 8262 8268 8262 8267 8268 8270 8278 8279 8273 8274 8286 8300 8306 8307 8307 8303 8301 8298 8295 8298 8297 8297 8300 8302 8295 8296 8301 8302 8306 8310 8313 8315 8314 8312 8314 8311 8310 8303 8297 8272 8271 
8290 8282 8287 8279 8280 8282 8281 8282 8274 8281 8277 8277 8281 8279 8281 8278 8281 8277 8278 8275 8275 8279 8280 8279 8285 8288 8292 8299 8296 8298 8292 8290 8287 8273 8263 8267 8273 8268 8266 8265 8265 8265 8270 8274 8277 8281 8275 8278 8294 8299 8303 8308 8307 8305 8303 8300 8297 8298 8297 8297 8298 8298 8300 8298 8297 8302 8301 8307 8309 8312 8313 8315 8313 8312 8309 8308 8304 8299 8274 8277 
8292 8283 8287 8280 8280 8286 8282 8279 8276 8277 8279 8278 8282 8283 8280 8280 8280 8278 8278 8276 8278 8277 8283 8280 8283 8282 8290 8297 8299 8295 8296 8295 8295 8293 8283 8283 8276 8273 8275 8277 8274 8271 8277 8278 8278 8287 8293 8298 8303 8303 8302 8308 8309 8305 8301 8302 8300 8298 8300 8297 8300 8297 8299 8297 8298 8301 8303 8305 8312 8310 8311 8310 8310 8310 8309 8308 8305 8298 8280 8280 
8293 8283 8287 8282 8280 8282 8284 8281 8275 8281 8279 8278 8281 8280 8278 8280 8283 8279 8275 8281 8278 8281 8280 8281 8280 8279 8285 8298 8297 8298 8294 8298 8296 8294 8296 8297 8296 8287 8292 8292 8291 8290 8298 8299 8298 8302 8301 8300 8304 8303 8307 8309 8311 8307 8305 8302 8302 8299 8298 8298 8297 8293 8301 8298 8297 8302 8305 8305 8308 8310 8312 8308 8308 8311 8309 8309 8308 8297 8281 8282 
8293 8283 8290 8279 8279 8282 8281 8279 8279 8282 8280 8279 8282 8283 8281 8278 8278 8280 8278 8278 8280 8280 8278 8281 8279 8279 8277 8292 8298 8296 8296 8294 8294 8292 8293 8297 8294 8297 8300 8300 8301 8301 8303 8302 8302 8305 8300 8303 8305 8306 8309 8310 8311 8309 8304 8303 8303 8300 8301 8295 8295 8295 8299 8298 8301 8305 8304 8306 8309 8311 8311 8308 8308 8308 8308 8310 8304 8302 8280 8287 
8298 8282 8287 8275 8280 8280 8278 8277 8276 8281 8277 8277 8278 8281 8282 8277 8276 8278 8278 8279 8277 8279 8278 8281 8282 8279 8280 8289 8294 8296 8294 8295 8292 8291 8287 8291 8295 8296 8299 8298 8301 8299 8301 8301 8300 8300 8300 8298 8303 8305 8307 8311 8308 8305 8300 8301 8299 8299 8297 8298 8297 8293 8299 8300 8300 8303 8303 8309 8308 8306 8305 8308 8305 8306 8305 8307 8305 8296 8281 8280 
8298 8281 8284 8273 8276 8276 8275 8283 8274 8278 8274 8272 8278 8282 8281 8273 8273 8273 8272 8278 8275 8277 8278 8279 8283 8283 8281 8287 8291 8291 8290 8287 8290 8290 8288 8292 8292 8292 8295 8296 8298 8292 8301 8299 8296 8302 8298 8297 8303 8304 8305 8308 8307 8301 8299 8298 8297 8294 8298 8293 8297 8297 8299 8298 8301 8300 8304 8307 8308 8311 8307 8307 8305 8308 8304 8308 8300 8296 8281 8288 
8302 8278 8282 8273 8276 8274 8279 8277 8275 8273 8268 8270 8271 8275 8280 8274 8274 8272 8271 8275 8274 8281 8280 8278 8278 8280 8287 8291 8299 8282 8282 8282 8286 8291 8289 8297 8296 8297 8304 8299 8297 8291 8298 8294 8293 8303 8301 8295 8302 8299 8305 8307 8304 8302 8294 8292 8295 8297 8296 8298 8299 8296 8297 8299 8301 8305 8306 8309 8310 8310 8309 8310 8305 8312 8309 8309 8305 8300 8283 8283 


