P2
80 60
8317
8256 8244 8258 8255 8264 8260 8256 8256 8258 8258 8258 8263 8260 8260 8261 8267 8266 8259 8263 8257 8265 8271 8268 8262 8272 8274 8268 8266 8267 8272 8273 8276 8270 8272 8268 8265 8268 8268 8274 8275 8270 8267 8266 8263 8266 8271 8269 8267 8267 8263 8263 8261 8259 8254 8254 8256 8257 8258 8263 8267 8264 8263 8268 8268 8270 8273 8272 8277 8280 8281 8281 8282 8288 8288 8286 8286 8286 8283 8282 8280 
8248 8251 8264 8259 8262 8258 8251 8258 8251 8261 8255 8261 8255 8260 8256 8264 8261 8262 8259 8264 8269 8272 8269 8264 8277 8265 8260 8265 8268 8269 8268 8276 8269 8269 8261 8261 8258 8273 8274 8271 8269 8269 8260 8263 8265 8269 8271 8265 8262 8265 8258 8260 8258 8257 8254 8260 8258 8251 8258 8260 8264 8263 8270 8261 8266 8266 8272 8275 8277 8281 8279 8273 8283 8285 8284 8281 8286 8283 8279 8275 
8241 8243 8252 8243 8256 8251 8248 8258 8251 8255 8256 8255 8250 8259 8257 8259 8260 8261 8257 8264 8260 8267 8264 8261 8267 8271 8265 8268 8266 8262 8265 8270 8265 8268 8263 8260 8262 8273 8270 8271 8266 8265 8260 8262 8265 8267 8266 8266 8263 8262 8261 8258 8254 8258 8260 8256 8257 8260 8256 8253 8266 8266 8259 8264 8262 8263 8269 8268 8276 8278 8274 8268 8277 8277 8278 8271 8281 8279 8275 8270 
8249 8235 8260 8243 8257 8252 8256 8259 8256 8255 8248 8245 8254 8254 8250 8256 8257 8262 8255 8255 8255 8256 8244 8263 8268 8270 8266 8265 8266 8273 8264 8272 8270 8263 8267 8258 8266 8266 8267 8270 8263 8263 8258 8259 8261 8261 8265 8266 8264 8259 8256 8254 8257 8254 8255 8259 8254 8253 8257 8256 8259 8264 8254 8262 8258 8255 8262 8267 8270 8277 8268 8272 8274 8277 8276 8272 8284 8277 8275 8277 
8249 8236 8258 8246 8255 8256 8258 8251 8248 8253 8248 8243 8250 8254 8248 8256 8256 8254 8260 8255 8257 8258 8251 8257 8267 8267 8263 8263 8262 8268 8263 8270 8268 8262 8262 8263 8264 8267 8267 8268 8266 8263 8255 8255 8257 8260 8260 8262 8261 8261 8259 8255 8253 8256 8255 8256 8254 8261 8258 8258 8262 8264 8256 8259 8253 8254 8251 8252 8264 8268 8263 8270 8268 8274 8263 8271 8279 8272 8274 8273 
8256 8242 8247 8244 8250 8251 8258 8257 8254 8254 8239 8249 8259 8248 8249 8252 8257 8252 8258 8261 8255 8253 8261 8256 8268 8269 8265 8260 8256 8265 8270 8272 8265 8259 8263 8264 8263 8266 8265 8273 8265 8263 8263 8257 8257 8263 8260 8265 8258 8258 8255 8253 8255 8254 8254 8260 8259 8259 8259 8260 8260 8262 8260 8256 8252 8259 8255 8250 8259 8269 8264 8263 8271 8262 8262 8267 8272 8267 8270 8286 
8255 8250 8252 8255 8254 8248 8261 8262 8251 8242 8240 8256 8255 8244 8249 8255 8251 8251 8255 8264 8255 8260 8262 8260 8270 8268 8256 8258 8260 8267 8268 8271 8267 8260 8263 8262 8263 8266 8266 8270 8266 8264 8266 8260 8261 8259 8266 8261 8263 8261 8255 8252 8256 8257 8255 8258 8255 8254 8256 8261 8252 8257 8256 8255 8251 8258 8256 8264 8251 8254 8264 8265 8262 8263 8264 8265 8261 8264 8270 8274 
8252 8252 8246 8260 8248 8253 8257 8266 8257 8235 8254 8257 8250 8244 8257 8254 8253 8257 8257 8255 8260 8258 8258 8263 8268 8269 8251 8259 8258 8272 8270 8271 8270 8264 8263 8263 8261 8263 8265 8270 8264 8263 8263 8260 8259 8262 8263 8258 8257 8256 8248 8245 8255 8253 8252 8255 8255 8255 8250 8255 8249 8256 8257 8255 8252 8259 8261 8264 8254 8254 8255 8258 8261 8259 8261 8262 8258 8261 8267 8273 
8257 8246 8249 8254 8255 8252 8264 8259 8256 8241 8249 8251 8246 8250 8245 8253 8252 8251 8260 8259 8261 8255 8255 8257 8256 8264 8254 8258 8256 8260 8265 8266 8263 8260 8263 8260 8264 8264 8263 8267 8261 8262 8258 8254 8256 8265 8257 8259 8258 8252 8251 8251 8253 8252 8255 8252 8254 8254 8251 8250 8248 8252 8247 8249 8246 8245 8251 8261 8250 8258 8252 8251 8246 8256 8252 8254 8256 8257 8258 8259 
8254 8240 8253 8254 8255 8259 8245 8257 8254 8249 8244 8250 8251 8249 8248 8245 8255 8253 8261 8260 8255 8251 8257 8252 8252 8259 8256 8259 8258 8260 8259 8265 8260 8255 8261 8263 8263 8266 8261 8265 8259 8262 8261 8252 8254 8264 8261 8265 8258 8250 8250 8253 8254 8248 8253 8247 8252 8250 8248 8252 8253 8254 8252 8251 8250 8248 8247 8255 8249 8257 8253 8253 8248 8250 8252 8250 8256 8254 8250 8249 
8254 8245 8252 8253 8250 8256 8243 8251 8253 8247 8249 8246 8248 8247 8250 8249 8256 8246 8244 8251 8257 8256 8257 8257 8255 8252 8260 8261 8259 8262 8260 8260 8255 8259 8261 8252 8255 8262 8261 8260 8259 8254 8250 8260 8256 8264 8262 8259 8259 8250 8253 8249 8251 8250 8249 8247 8254 8245 8253 8251 8250 8250 8252 8245 8241 8244 8251 8248 8245 8250 8245 8246 8242 8243 8240 8238 8243 8244 8244 8239 
8251 8250 8253 8250 8244 8250 8243 8253 8253 8245 8248 8245 8249 8245 8248 8249 8249 8246 8246 8257 8259 8257 8248 8259 8259 8259 8258 8257 8259 8260 8263 8260 8257 8260 8255 8248 8258 8259 8265 8258 8255 8262 8259 8262 8259 8262 8265 8258 8257 8251 8255 8253 8252 8251 8249 8244 8246 8240 8249 8252 8247 8251 8251 8246 8242 8242 8252 8249 8247 8247 8245 8244 8242 8244 8233 8233 8246 8240 8237 8237 
8250 8246 8245 8243 8240 8250 8250 8243 8244 8249 8248 8244 8243 8244 8248 8255 8250 8254 8255 8252 8253 8258 8251 8254 8262 8256 8249 8259 8257 8258 8267 8256 8259 8256 8250 8249 8263 8268 8255 8253 8253 8262 8263 8261 8255 8259 8258 8259 8252 8255 8260 8255 8254 8253 8253 8245 8250 8249 8251 8249 8251 8241 8250 8238 8245 8241 8247 8244 8247 8241 8237 8239 8240 8239 8232 8238 8244 8239 8234 8230 
8254 8256 8257 8250 8252 8252 8251 8253 8238 8252 8249 8249 8244 8246 8252 8246 8255 8255 8254 8254 8255 8252 8249 8255 8258 8259 8254 8254 8251 8258 8265 8254 8261 8260 8256 8256 8254 8261 8257 8256 8256 8261 8259 8260 8257 8261 8261 8259 8258 8253 8251 8254 8253 8254 8253 8246 8248 8244 8247 8248 8248 8242 8249 8242 8247 8248 8245 8244 8249 8245 8240 8243 8241 8240 8234 8241 8239 8246 8234 8229 
8258 8244 8253 8251 8251 8253 8244 8252 8244 8244 8247 8251 8248 8252 8249 8253 8253 8250 8257 8255 8246 8255 8249 8256 8258 8261 8260 8253 8253 8261 8256 8255 8256 8252 8254 8253 8257 8259 8256 8252 8250 8257 8251 8260 8254 8258 8255 8252 8253 8253 8256 8256 8258 8257 8251 8253 8253 8249 8252 8248 8249 8242 8244 8245 8247 8246 8244 8242 8245 8244 8244 8243 8243 8240 8237 8237 8241 8242 8234 8232 
8263 8236 8245 8253 8251 8247 8245 8251 8247 8250 8247 8246 8243 8245 8252 8254 8253 8251 8259 8257 8245 8253 8248 8253 8252 8264 8260 8248 8247 8257 8256 8257 8256 8253 8250 8255 8257 8256 8259 8251 8254 8256 8251 8255 8254 8254 8253 8254 8251 8249 8249 8252 8254 8255 8246 8253 8248 8248 8246 8249 8249 8240 8245 8243 8248 8249 8242 8244 8243 8244 8243 8239 8239 8240 8235 8238 8240 8240 8235 8230 
8259 8236 8244 8251 8246 8243 8244 8247 8249 8251 8246 8249 8244 8248 8244 8256 8247 8257 8255 8253 8244 8253 8252 8250 8251 8261 8260 8253 8252 8256 8259 8259 8256 8260 8256 8253 8258 8260 8254 8255 8251 8253 8251 8255 8251 8255 8252 8250 8250 8249 8252 8251 8253 8248 8241 8246 8243 8248 8248 8249 8249 8243 8244 8242 8247 8246 8247 8243 8241 8242 8240 8239 8241 8242 8241 8239 8240 8242 8232 8233 
8256 8242 8251 8244 8245 8252 8248 8254 8245 8255 8249 8247 8251 8254 8252 8252 8252 8254 8258 8256 8254 8258 8253 8247 8253 8265 8264 8250 8253 8256 8258 8260 8261 8261 8254 8256 8253 8254 8257 8253 8250 8252 8252 8255 8254 8254 8256 8250 8254 8252 8248 8253 8250 8249 8243 8249 8240 8244 8243 8249 8244 8246 8245 8248 8245 8245 8247 8247 8247 8243 8240 8246 8245 8245 8242 8241 8235 8236 8239 8233 
8258 8241 8249 8246 8246 8246 8251 8255 8253 8247 8247 8249 8253 8248 8247 8251 8245 8252 8252 8246 8245 8255 8254 8251 8257 8262 8266 8246 8251 8251 8255 8262 8262 8256 8254 8253 8252 8253 8251 8250 8249 8249 8250 8252 8253 8254 8253 8256 8247 8251 8253 8250 8243 8245 8238 8242 8248 8242 8244 8250 8244 8241 8248 8242 8244 8237 8245 8239 8245 8245 8244 8245 8244 8242 8242 8243 8238 8238 8237 8241 
8253 8240 8252 8247 8243 8252 8251 8254 8252 8246 8250 8253 8248 8246 8250 8251 8250 8253 8250 8252 8247 8258 8255 8251 8258 8250 8263 8248 8251 8251 8253 8257 8256 8260 8256 8251 8251 8255 8256 8255 8251 8250 8252 8250 8246 8253 8254 8250 8251 8254 8248 8251 8245 8250 8249 8245 8251 8250 8247 8243 8245 8240 8249 8248 8246 8240 8242 8243 8244 8247 8245 8246 8242 8241 8241 8242 8238 8241 8240 8232 
8253 8248 8244 8237 8237 8245 8242 8256 8251 8247 8245 8250 8245 8244 8235 8252 8249 8249 8240 8247 8243 8247 8255 8251 8251 8247 8252 8250 8246 8256 8255 8254 8253 8254 8254 8252 8254 8251 8251 8252 8250 8253 8249 8246 8243 8252 8251 8249 8250 8246 8243 8248 8245 8243 8246 8250 8247 8245 8246 8241 8243 8243 8245 8246 8246 8241 8243 8244 8243 8244 8242 8245 8241 8240 8241 8242 8239 8241 8241 8232 
8256 8251 8248 8256 8250 8251 8233 8254 8238 8247 8240 8243 8246 8234 8214 8216 8234 8246 8239 8246 8249 8255 8254 8255 8251 8251 8254 8250 8248 8247 8251 8249 8254 8256 8252 8247 8249 8249 8251 8251 8245 8250 8246 8243 8245 8255 8245 8249 8252 8243 8244 8249 8248 8250 8249 8247 8245 8248 8244 8240 8245 8243 8248 8242 8244 8244 8243 8245 8244 8244 8243 8240 8241 8237 8242 8240 8238 8241 8240 8243 
8255 8246 8248 8254 8250 8246 8238 8238 8236 8247 8247 8246 8243 8219 8194 8196 8216 8239 8238 8246 8243 8255 8249 8251 8248 8252 8249 8249 8248 8250 8249 8244 8249 8249 8247 8246 8251 8246 8250 8240 8235 8245 8246 8247 8242 8248 8238 8248 8243 8240 8246 8245 8244 8243 8251 8242 8248 8242 8240 8240 8245 8243 8247 8241 8245 8244 8243 8249 8245 8244 8240 8238 8239 8240 8241 8241 8243 8244 8241 8245 
8257 8249 8250 8251 8249 8250 8245 8241 8246 8247 8248 8245 8245 8225 8199 8198 8208 8244 8238 8255 8244 8248 8255 8245 8248 8241 8245 8230 8226 8231 8239 8248 8232 8221 8235 8243 8249 8252 8245 8245 8244 8245 8246 8246 8245 8243 8241 8244 8240 8250 8250 8244 8243 8244 8246 8246 8249 8249 8240 8244 8242 8244 8249 8244 8249 8246 8245 8244 8245 8243 8242 8240 8244 8241 8241 8238 8238 8243 8242 8245 
8255 8238 8250 8254 8248 8248 8242 8254 8247 8242 8245 8244 8247 8234 8204 8199 8204 8238 8240 8241 8246 8247 8252 8240 8218 8198 8196 8207 8235 8224 8224 8213 8216 8219 8211 8229 8230 8237 8230 8237 8236 8245 8242 8240 8239 8242 8243 8246 8242 8244 8250 8246 8240 8241 8247 8246 8251 8249 8246 8246 8240 8241 8245 8247 8246 8243 8246 8245 8243 8239 8241 8242 8242 8240 8238 8237 8240 8240 8244 8245 
8258 8239 8244 8254 8246 8241 8248 8241 8238 8244 8243 8249 8246 8239 8209 8200 8200 8230 8242 8238 8243 8244 8249 8223 8187 8182 8183 8224 8233 8220 8197 8190 8191 8217 8210 8199 8205 8192 8199 8210 8225 8238 8232 8221 8225 8226 8239 8241 8245 8247 8245 8247 8241 8248 8243 8245 8247 8247 8245 8250 8246 8239 8241 8243 8241 8243 8245 8244 8242 8237 8240 8239 8242 8240 8238 8237 8232 8238 8243 8252 
8252 8245 8241 8249 8242 8244 8245 8238 8245 8243 8241 8251 8242 8246 8215 8198 8197 8221 8244 8242 8242 8241 8238 8225 8179 8170 8182 8212 8222 8234 8212 8187 8214 8213 8221 8188 8192 8188 8187 8193 8220 8222 8222 8210 8206 8200 8211 8232 8240 8246 8239 8245 8238 8248 8246 8246 8243 8245 8242 8250 8240 8236 8245 8241 8241 8243 8243 8242 8239 8239 8241 8237 8242 8242 8242 8240 8244 8239 8242 8245 
8254 8251 8254 8254 8251 8241 8246 8246 8240 8247 8239 8248 8247 8245 8227 8198 8201 8213 8240 8241 8239 8238 8242 8232 8185 8208 8195 8193 8212 8220 8184 8187 8205 8203 8207 8193 8183 8175 8174 8179 8205 8202 8191 8189 8188 8186 8206 8201 8237 8246 8238 8244 8238 8244 8248 8247 8245 8249 8249 8252 8245 8244 8244 8245 8249 8244 8244 8235 8236 8239 8240 8237 8238 8239 8239 8243 8245 8241 8244 8246 
8256 8242 8246 8254 8244 8249 8244 8249 8249 8252 8251 8252 8247 8244 8238 8200 8194 8206 8231 8241 8238 8237 8237 8240 8219 8219 8230 8198 8219 8201 8176 8177 8193 8185 8179 8196 8164 8156 8167 8166 8182 8187 8181 8178 8183 8182 8190 8212 8230 8242 8241 8242 8242 8250 8246 8248 8248 8251 8248 8244 8245 8239 8244 8245 8247 8245 8243 8237 8236 8240 8239 8240 8237 8234 8237 8242 8241 8251 8245 8245 
8253 8244 8250 8251 8247 8251 8251 8247 8249 8247 8248 8248 8243 8245 8238 8209 8197 8203 8231 8241 8236 8241 8240 8231 8214 8235 8241 8209 8176 8166 8170 8171 8201 8186 8181 8192 8171 8166 8159 8152 8172 8186 8184 8179 8187 8186 8178 8209 8227 8239 8247 8245 8248 8250 8249 8249 8247 8243 8242 8245 8243 8241 8247 8241 8247 8246 8244 8240 8236 8234 8238 8241 8237 8237 8245 8239 8239 8250 8246 8244 
8259 8246 8249 8253 8249 8254 8245 8250 8250 8242 8244 8243 8240 8245 8242 8218 8198 8193 8215 8235 8235 8231 8239 8219 8207 8233 8239 8216 8172 8166 8167 8177 8194 8190 8173 8192 8178 8161 8151 8156 8171 8175 8178 8177 8179 8208 8205 8216 8233 8247 8248 8243 8244 8245 8246 8248 8246 8246 8246 8244 8239 8242 8251 8247 8249 8245 8245 8241 8238 8238 8240 8241 8241 8244 8242 8239 8250 8249 8247 8248 
8254 8248 8246 8251 8244 8254 8244 8245 8249 8246 8240 8248 8245 8236 8241 8222 8191 8187 8199 8231 8233 8237 8240 8229 8203 8225 8219 8200 8184 8169 8164 8181 8192 8176 8186 8205 8175 8152 8156 8166 8172 8176 8179 8180 8184 8208 8233 8235 8237 8245 8243 8240 8246 8241 8243 8245 8244 8247 8245 8250 8245 8248 8248 8249 8247 8246 8244 8240 8243 8239 8242 8241 8242 8241 8241 8244 8244 8250 8249 8253 
8259 8250 8246 8251 8244 8251 8246 8246 8251 8248 8239 8247 8233 8239 8239 8233 8195 8186 8192 8223 8235 8244 8237 8236 8218 8192 8214 8206 8183 8181 8162 8177 8169 8166 8190 8210 8173 8151 8159 8173 8186 8182 8182 8193 8185 8190 8223 8237 8239 8243 8239 8239 8246 8247 8245 8241 8247 8248 8248 8245 8246 8248 8244 8247 8248 8250 8244 8242 8244 8244 8246 8243 8239 8238 8239 8243 8244 8247 8248 8252 
8263 8246 8259 8253 8252 8251 8246 8248 8251 8247 8243 8245 8236 8241 8240 8234 8203 8194 8196 8218 8233 8239 8226 8220 8201 8189 8190 8201 8184 8195 8192 8189 8151 8157 8174 8206 8167 8164 8162 8174 8182 8182 8178 8196 8190 8190 8202 8239 8239 8239 8242 8237 8246 8248 8245 8242 8245 8248 8240 8243 8247 8247 8245 8246 8248 8244 8243 8244 8245 8249 8245 8246 8238 8247 8246 8245 8244 8250 8250 8252 
8265 8250 8259 8254 8253 8247 8249 8254 8248 8248 8243 8246 8239 8236 8239 8238 8213 8187 8196 8210 8231 8229 8215 8217 8192 8179 8185 8192 8195 8192 8199 8170 8148 8153 8166 8190 8162 8167 8162 8188 8205 8174 8165 8189 8189 8189 8216 8235 8243 8248 8249 8240 8241 8241 8242 8243 8244 8243 8238 8243 8246 8248 8248 8247 8246 8244 8244 8246 8247 8246 8243 8242 8238 8243 8242 8241 8246 8249 8249 8248 
8267 8252 8256 8257 8250 8249 8254 8256 8248 8242 8234 8248 8245 8243 8246 8246 8227 8196 8197 8200 8236 8229 8224 8191 8180 8168 8186 8186 8181 8181 8188 8162 8160 8155 8161 8166 8171 8179 8171 8194 8208 8177 8159 8210 8228 8196 8213 8236 8239 8244 8239 8243 8241 8243 8245 8242 8247 8246 8243 8246 8248 8249 8252 8245 8249 8246 8246 8241 8245 8247 8243 8241 8240 8243 8238 8247 8245 8245 8249 8250 
8264 8256 8260 8253 8253 8252 8254 8246 8249 8240 8243 8251 8248 8244 8244 8242 8238 8200 8192 8192 8218 8220 8217 8192 8169 8165 8184 8198 8172 8175 8175 8163 8158 8163 8180 8165 8170 8174 8165 8173 8160 8166 8178 8203 8209 8219 8216 8241 8239 8241 8241 8240 8241 8244 8245 8243 8243 8249 8244 8245 8249 8246 8248 8243 8245 8249 8249 8241 8237 8242 8242 8242 8242 8246 8244 8247 8244 8249 8248 8248 
8260 8254 8259 8257 8254 8253 8253 8252 8248 8250 8251 8250 8246 8242 8244 8245 8232 8203 8179 8182 8183 8196 8212 8186 8174 8170 8168 8184 8206 8177 8170 8168 8158 8178 8210 8171 8172 8173 8167 8160 8154 8177 8192 8229 8235 8220 8222 8238 8240 8238 8239 8243 8240 8245 8239 8243 8244 8248 8245 8247 8246 8247 8242 8244 8246 8245 8244 8248 8245 8245 8243 8241 8240 8246 8245 8245 8247 8254 8249 8256 
8258 8257 8254 8258 8257 8257 8252 8255 8247 8251 8248 8247 8244 8244 8242 8237 8240 8218 8188 8187 8194 8218 8225 8187 8183 8169 8156 8180 8190 8175 8170 8166 8164 8175 8188 8184 8165 8167 8168 8158 8150 8166 8179 8225 8233 8234 8233 8236 8239 8239 8243 8239 8244 8244 8242 8243 8247 8247 8241 8240 8243 8241 8242 8242 8248 8245 8248 8247 8246 8241 8238 8242 8241 8242 8245 8248 8247 8249 8250 8263 
8256 8259 8272 8261 8258 8257 8257 8251 8254 8259 8253 8245 8244 8243 8244 8236 8236 8229 8198 8184 8193 8219 8232 8219 8183 8162 8161 8179 8197 8164 8168 8168 8168 8157 8163 8185 8164 8158 8167 8165 8162 8161 8192 8197 8227 8238 8234 8237 8236 8235 8237 8243 8244 8243 8245 8242 8247 8246 8246 8242 8241 8243 8245 8239 8245 8246 8246 8247 8242 8247 8241 8239 8240 8244 8248 8245 8248 8243 8249 8260 
8256 8259 8269 8252 8254 8259 8252 8254 8250 8254 8246 8251 8241 8239 8251 8241 8236 8238 8206 8182 8184 8203 8212 8207 8175 8162 8164 8179 8181 8168 8165 8164 8170 8157 8151 8158 8159 8152 8169 8177 8162 8159 8209 8186 8227 8231 8233 8236 8237 8233 8240 8242 8242 8238 8241 8242 8246 8245 8245 8246 8242 8244 8245 8245 8249 8246 8246 8242 8244 8247 8244 8239 8238 8248 8247 8247 8244 8247 8248 8253 
8260 8250 8264 8249 8255 8253 8250 8251 8253 8253 8246 8249 8249 8245 8252 8249 8242 8242 8206 8180 8182 8180 8180 8173 8170 8159 8160 8182 8186 8159 8153 8162 8167 8165 8153 8158 8166 8165 8160 8175 8183 8185 8206 8204 8216 8219 8224 8226 8223 8234 8236 8241 8237 8243 8242 8245 8242 8241 8240 8242 8244 8248 8246 8249 8248 8246 8245 8237 8242 8244 8246 8247 8243 8249 8243 8250 8250 8254 8253 8263 
8264 8250 8257 8252 8252 8253 8254 8254 8254 8256 8252 8250 8250 8250 8248 8244 8243 8245 8205 8180 8175 8168 8180 8180 8163 8152 8153 8178 8186 8158 8156 8163 8163 8157 8157 8155 8171 8172 8165 8167 8182 8194 8203 8212 8215 8225 8219 8215 8215 8223 8233 8242 8237 8242 8240 8240 8240 8242 8244 8244 8242 8250 8249 8246 8249 8246 8244 8235 8244 8243 8241 8250 8247 8249 8254 8254 8255 8259 8253 8267 
8265 8261 8264 8256 8258 8254 8255 8260 8254 8257 8249 8255 8254 8256 8244 8247 8242 8241 8222 8201 8192 8185 8189 8194 8183 8165 8159 8171 8187 8159 8161 8163 8166 8163 8161 8172 8176 8176 8180 8182 8188 8193 8191 8205 8209 8216 8214 8215 8215 8229 8239 8235 8239 8242 8244 8242 8246 8241 8242 8246 8248 8250 8251 8247 8247 8247 8239 8235 8240 8244 8247 8246 8250 8250 8252 8251 8255 8257 8255 8261 
8264 8265 8262 8253 8254 8252 8257 8247 8257 8257 8249 8249 8249 8257 8249 8248 8247 8253 8230 8218 8195 8200 8202 8209 8211 8219 8204 8205 8205 8201 8198 8197 8198 8188 8190 8195 8193 8201 8199 8202 8197 8219 8234 8266 8278 8284 8266 8237 8232 8231 8241 8239 8239 8237 8241 8241 8242 8244 8244 8246 8246 8243 8249 8250 8244 8246 8241 8244 8246 8243 8242 8244 8251 8254 8249 8255 8256 8255 8252 8263 
8265 8254 8254 8258 8257 8256 8255 8252 8252 8252 8253 8249 8257 8255 8254 8259 8254 8251 8236 8214 8205 8211 8216 8216 8223 8223 8228 8219 8221 8219 8223 8223 8223 8225 8225 8227 8226 8224 8230 8230 8228 8240 8255 8291 8305 8289 8253 8239 8232 8232 8240 8236 8237 8235 8243 8243 8244 8240 8246 8244 8245 8247 8241 8247 8245 8247 8246 8246 8248 8250 8248 8247 8257 8254 8251 8250 8254 8252 8252 8262 
8270 8264 8253 8258 8256 8260 8262 8255 8252 8248 8246 8256 8251 8251 8251 8259 8254 8248 8247 8225 8210 8212 8217 8218 8218 8216 8216 8216 8221 8221 8224 8226 8229 8225 8225 8226 8227 8234 8229 8237 8239 8240 8250 8264 8270 8255 8242 8237 8241 8241 8236 8238 8240 8238 8235 8240 8242 8246 8245 8243 8244 8243 8243 8240 8243 8242 8243 8240 8247 8247 8251 8250 8256 8261 8256 8249 8255 8251 8250 8262 
8264 8265 8259 8257 8253 8257 8258 8257 8265 8261 8259 8253 8256 8245 8251 8260 8257 8252 8248 8240 8228 8209 8202 8214 8220 8216 8209 8207 8214 8223 8223 8224 8223 8224 8228 8229 8233 8239 8240 8246 8253 8261 8263 8260 8249 8245 8237 8233 8240 8245 8243 8239 8241 8241 8242 8243 8242 8246 8242 8241 8242 8245 8243 8245 8244 8245 8245 8241 8246 8247 8250 8254 8259 8257 8262 8263 8251 8243 8248 8263 
8264 8253 8268 8264 8255 8259 8264 8258 8263 8251 8253 8256 8254 8249 8255 8251 8253 8249 8251 8243 8229 8209 8213 8213 8218 8218 8213 8210 8206 8215 8222 8221 8234 8230 8238 8240 8249 8258 8262 8278 8279 8287 8277 8258 8239 8235 8235 8242 8237 8238 8236 8242 8241 8243 8238 8241 8242 8246 8240 8236 8241 8244 8248 8249 8241 8242 8243 8239 8246 8246 8253 8251 8263 8262 8264 8264 8253 8243 8258 8271 
8266 8249 8265 8258 8255 8264 8265 8254 8258 8252 8255 8259 8257 8257 8249 8249 8252 8252 8257 8247 8221 8219 8226 8224 8223 8224 8229 8225 8218 8223 8226 8226 8233 8241 8255 8270 8265 8285 8274 8266 8250 8243 8233 8234 8234 8237 8240 8261 8240 8239 8238 8244 8242 8239 8239 8238 8242 8247 8242 8238 8245 8246 8249 8244 8236 8242 8241 8246 8250 8257 8256 8260 8265 8266 8260 8260 8260 8261 8263 8277 
8263 8251 8258 8257 8262 8257 8266 8254 8253 8256 8254 8254 8252 8257 8253 8257 8255 8253 8258 8241 8231 8217 8220 8225 8219 8226 8229 8230 8231 8234 8231 8228 8226 8236 8249 8256 8256 8264 8268 8275 8251 8244 8243 8238 8242 8244 8248 8263 8242 8241 8234 8244 8241 8239 8229 8240 8242 8242 8239 8236 8247 8245 8245 8240 8237 8242 8245 8249 8254 8262 8260 8257 8264 8265 8266 8262 8265 8264 8269 8281 
8267 8255 8253 8262 8261 8260 8254 8265 8244 8250 8259 8255 8260 8261 8257 8251 8254 8252 8255 8240 8235 8220 8226 8228 8221 8228 8232 8235 8240 8241 8231 8240 8231 8227 8237 8240 8237 8253 8253 8251 8246 8244 8239 8235 8242 8243 8241 8254 8241 8239 8240 8240 8246 8242 8240 8243 8246 8246 8239 8245 8246 8250 8245 8238 8238 8246 8246 8252 8257 8258 8261 8260 8262 8263 8266 8267 8268 8272 8274 8278 
8263 8254 8258 8267 8260 8252 8249 8267 8261 8253 8245 8253 8248 8255 8258 8244 8254 8259 8250 8252 8237 8223 8226 8228 8227 8229 8231 8235 8238 8231 8232 8241 8236 8225 8232 8231 8236 8239 8239 8250 8240 8242 8238 8242 8242 8240 8240 8240 8239 8237 8237 8240 8234 8243 8242 8236 8245 8244 8244 8249 8250 8250 8248 8238 8246 8251 8247 8251 8259 8259 8258 8261 8263 8268 8265 8265 8265 8269 8280 8283 
8256 8256 8262 8259 8259 8262 8259 8264 8244 8258 8245 8255 8247 8256 8259 8253 8257 8259 8249 8248 8241 8222 8220 8227 8232 8227 8232 8233 8230 8232 8238 8238 8234 8235 8236 8233 8237 8243 8238 8236 8238 8236 8233 8237 8236 8238 8237 8236 8243 8243 8242 8243 8239 8231 8245 8241 8246 8245 8242 8246 8250 8251 8249 8244 8250 8253 8248 8253 8257 8256 8259 8262 8266 8264 8263 8263 8263 8271 8284 8282 
8259 8261 8260 8260 8253 8252 8256 8255 8240 8260 8244 8256 8252 8260 8253 8253 8252 8252 8253 8252 8247 8226 8219 8226 8231 8224 8225 8228 8228 8232 8231 8231 8237 8235 8238 8232 8232 8235 8236 8234 8233 8232 8236 8235 8233 8233 8225 8242 8241 8243 8244 8242 8240 8236 8247 8240 8251 8239 8238 8247 8250 8247 8247 8243 8251 8245 8249 8249 8257 8257 8260 8259 8263 8262 8263 8264 8266 8272 8283 8283 
8268 8270 8270 8260 8260 8263 8261 8256 8242 8260 8252 8250 8257 8253 8251 8252 8253 8256 8245 8245 8248 8229 8220 8222 8223 8204 8224 8224 8229 8230 8228 8235 8240 8232 8239 8230 8231 8235 8225 8228 8228 8233 8231 8232 8232 8230 8222 8227 8235 8242 8241 8238 8241 8238 8240 8239 8246 8248 8248 8246 8246 8247 8248 8248 8253 8250 8250 8254 8258 8254 8261 8263 8264 8260 8266 8264 8267 8272 8282 8286 
8271 8259 8270 8254 8254 8270 8268 8244 8251 8261 8256 8246 8251 8253 8251 8243 8237 8252 8247 8245 8246 8227 8219 8224 8222 8209 8208 8222 8226 8230 8232 8231 8237 8229 8226 8228 8224 8226 8223 8231 8224 8228 8225 8225 8227 8222 8221 8212 8206 8222 8232 8239 8234 8237 8243 8242 8242 8245 8242 8242 8244 8244 8251 8251 8248 8257 8253 8257 8256 8260 8260 8260 8265 8261 8261 8261 8270 8272 8284 8287 
8287 8277 8287 8262 8281 8273 8269 8252 8257 8260 8261 8250 8254 8256 8256 8251 8239 8246 8242 8248 8236 8223 8218 8222 8233 8219 8223 8222 8223 8222 8222 8231 8227 8223 8218 8215 8220 8215 8217 8222 8224 8216 8212 8222 8223 8220 8217 8212 8203 8209 8225 8238 8229 8229 8236 8238 8238 8242 8240 8240 8239 8248 8249 8244 8250 8249 8250 8254 8260 8256 8256 8253 8256 8256 8264 8261 8269 8267 8286 8285 
8286 8270 8280 8299 8283 8254 8249 8272 8279 8281 8283 8264 8251 8260 8254 8246 8244 8246 8245 8235 8240 8216 8203 8210 8229 8218 8218 8215 8213 8217 8220 8213 8212 8216 8213 8210 8214 8212 8214 8220 8218 8213 8208 8207 8211 8208 8209 8200 8205 8213 8213 8224 8228 8231 8229 8234 8235 8240 8241 8240 8246 8243 8246 8241 8243 8247 8251 8257 8257 8260 8260 8256 8257 8257 8260 8263 8271 8275 8286 8290 
8309 8299 8317 8308 8276 8257 8258 8273 8298 8313 8288 8265 8253 8255 8263 8276 8265 8251 8243 8237 8242 8230 8203 8208 8217 8222 8216 8218 8206 8214 8211 8209 8208 8208 8206 8204 8202 8203 8213 8214 8208 8210 8206 8210 8212 8214 8215 8211 8213 8222 8227 8239 8232 8238 8233 8240 8240 8244 8244 8248 8253 8249 8251 8253 8254 8257 8261 8263 8265 8266 8265 8261 8266 8267 8269 8269 8276 8287 8294 8300 


