P2
80 60
8222
8098 8105 8118 8117 8116 8117 8118 8119 8117 8121 8125 8127 8126 8127 8131 8131 8139 8141 8141 8140 8142 8142 8148 8152 8151 8154 8155 8156 8159 8163 8170 8169 8168 8168 8171 8172 8173 8174 8179 8176 8173 8171 8166 8169 8170 8171 8170 8164 8162 8160 8160 8157 8157 8154 8153 8150 8150 8151 8153 8157 8157 8155 8157 8158 8156 8157 8158 8157 8156 8158 8160 8168 8170 8170 8170 8169 8170 8173 8177 8173 
8107 8116 8119 8123 8123 8120 8120 8121 8118 8124 8126 8128 8128 8130 8134 8140 8143 8143 8143 8141 8148 8145 8148 8149 8151 8155 8156 8158 8158 8164 8169 8171 8170 8171 8172 8172 8176 8178 8177 8179 8175 8175 8173 8171 8171 8172 8168 8165 8164 8164 8160 8158 8159 8159 8154 8150 8148 8151 8153 8157 8155 8157 8156 8156 8155 8156 8155 8157 8160 8162 8162 8170 8170 8172 8167 8169 8167 8173 8176 8176 
8108 8114 8117 8122 8126 8129 8128 8129 8128 8129 8129 8131 8131 8134 8139 8144 8147 8145 8144 8146 8147 8146 8147 8149 8153 8157 8158 8159 8160 8167 8173 8173 8173 8174 8176 8178 8178 8180 8180 8180 8177 8174 8177 8173 8176 8176 8173 8169 8165 8170 8164 8159 8160 8160 8158 8152 8149 8149 8154 8156 8157 8157 8155 8155 8155 8157 8155 8157 8159 8161 8160 8166 8169 8171 8169 8170 8169 8169 8176 8172 
8119 8120 8126 8127 8131 8132 8138 8135 8135 8134 8133 8131 8131 8133 8141 8145 8147 8148 8146 8149 8146 8145 8148 8154 8156 8157 8158 8160 8163 8168 8175 8175 8174 8176 8179 8176 8180 8179 8179 8181 8181 8176 8178 8173 8180 8176 8174 8173 8172 8171 8166 8163 8162 8163 8157 8154 8155 8152 8155 8156 8156 8158 8155 8154 8155 8156 8156 8157 8158 8158 8162 8163 8170 8169 8167 8167 8166 8170 8178 8174 
8127 8126 8133 8131 8135 8142 8142 8139 8139 8136 8138 8134 8136 8141 8143 8149 8146 8147 8147 8149 8151 8148 8149 8155 8154 8159 8160 8160 8164 8167 8174 8176 8174 8172 8175 8174 8178 8178 8181 8182 8181 8175 8178 8174 8180 8177 8176 8177 8173 8171 8168 8165 8165 8161 8163 8158 8155 8156 8154 8157 8158 8156 8155 8154 8155 8154 8154 8157 8156 8158 8159 8161 8164 8166 8166 8167 8164 8170 8174 8174 
8128 8131 8134 8135 8144 8146 8146 8141 8140 8140 8137 8139 8141 8144 8144 8151 8151 8151 8153 8153 8152 8151 8152 8156 8158 8159 8160 8158 8161 8165 8172 8173 8172 8172 8173 8174 8177 8178 8183 8181 8181 8177 8177 8176 8182 8177 8176 8176 8173 8174 8170 8165 8166 8164 8163 8158 8156 8156 8157 8160 8155 8158 8157 8153 8157 8156 8155 8153 8156 8159 8159 8159 8161 8166 8166 8163 8164 8165 8173 8172 
8133 8133 8140 8145 8147 8149 8148 8148 8143 8136 8140 8145 8145 8147 8147 8148 8150 8150 8153 8152 8151 8149 8155 8156 8156 8158 8159 8158 8162 8167 8170 8172 8171 8173 8176 8177 8177 8181 8180 8181 8180 8181 8180 8184 8182 8182 8178 8176 8176 8174 8173 8167 8166 8164 8165 8159 8158 8157 8159 8157 8158 8162 8157 8157 8155 8155 8157 8156 8156 8158 8158 8160 8158 8162 8166 8166 8162 8166 8169 8166 
8137 8142 8147 8147 8148 8148 8152 8150 8149 8137 8146 8148 8145 8150 8148 8149 8152 8154 8153 8154 8152 8152 8155 8155 8159 8161 8161 8161 8165 8168 8171 8172 8173 8174 8178 8177 8177 8183 8184 8181 8179 8183 8182 8182 8185 8181 8180 8181 8180 8176 8171 8170 8167 8168 8164 8162 8162 8164 8163 8161 8163 8164 8157 8159 8156 8157 8157 8159 8159 8159 8159 8157 8154 8161 8159 8162 8164 8166 8165 8157 
8138 8140 8144 8147 8149 8151 8152 8151 8150 8143 8144 8146 8149 8150 8148 8150 8150 8149 8155 8154 8151 8154 8153 8154 8155 8159 8164 8166 8165 8169 8175 8175 8173 8174 8177 8181 8177 8182 8182 8184 8180 8184 8183 8180 8184 8185 8182 8177 8179 8179 8174 8171 8170 8167 8168 8163 8165 8167 8165 8165 8167 8166 8161 8160 8160 8158 8161 8160 8162 8158 8159 8158 8157 8156 8158 8162 8160 8162 8162 8159 
8140 8138 8141 8148 8149 8151 8146 8150 8152 8150 8150 8156 8153 8152 8150 8150 8151 8154 8156 8158 8157 8157 8155 8157 8159 8162 8165 8165 8167 8173 8174 8173 8173 8177 8178 8180 8178 8181 8181 8182 8184 8183 8187 8187 8188 8187 8182 8181 8178 8181 8178 8174 8173 8170 8166 8166 8168 8170 8170 8170 8169 8166 8163 8162 8162 8162 8163 8162 8164 8164 8163 8161 8158 8155 8159 8161 8160 8162 8156 8156 
8143 8141 8142 8145 8148 8149 8146 8151 8153 8151 8153 8155 8153 8154 8152 8153 8156 8157 8159 8154 8157 8156 8156 8159 8160 8164 8167 8170 8170 8174 8177 8178 8174 8174 8180 8176 8177 8179 8183 8184 8184 8182 8184 8184 8186 8189 8183 8181 8179 8181 8178 8176 8174 8172 8168 8168 8170 8168 8169 8170 8171 8167 8167 8164 8165 8165 8163 8167 8167 8166 8165 8162 8159 8162 8159 8161 8159 8158 8157 8154 
8143 8149 8144 8147 8148 8149 8149 8154 8157 8152 8153 8156 8155 8153 8154 8154 8159 8157 8161 8161 8162 8156 8157 8163 8164 8166 8170 8170 8174 8177 8179 8177 8173 8177 8177 8176 8177 8177 8182 8182 8185 8182 8184 8186 8185 8186 8182 8179 8182 8179 8180 8173 8174 8172 8168 8167 8171 8168 8169 8171 8170 8171 8168 8167 8167 8167 8169 8170 8170 8169 8165 8166 8164 8162 8158 8160 8156 8155 8158 8153 
8147 8149 8150 8150 8151 8156 8153 8153 8155 8155 8159 8157 8154 8153 8152 8158 8155 8159 8159 8162 8162 8158 8157 8161 8163 8168 8172 8169 8172 8176 8180 8178 8174 8174 8178 8175 8177 8179 8178 8180 8184 8180 8183 8183 8184 8186 8180 8176 8178 8182 8180 8174 8175 8175 8174 8172 8172 8170 8168 8171 8172 8171 8170 8172 8168 8169 8173 8170 8170 8168 8167 8168 8165 8167 8160 8158 8159 8158 8158 8151 
8149 8156 8155 8157 8155 8158 8155 8159 8156 8157 8159 8158 8157 8152 8157 8158 8159 8161 8158 8163 8161 8159 8158 8163 8162 8169 8173 8173 8172 8174 8173 8174 8173 8175 8172 8173 8175 8175 8178 8180 8181 8178 8183 8182 8186 8187 8181 8176 8176 8181 8178 8174 8175 8172 8173 8169 8169 8168 8172 8170 8170 8171 8171 8171 8169 8170 8169 8170 8169 8166 8167 8169 8167 8166 8161 8158 8156 8157 8159 8156 
8152 8153 8157 8157 8160 8158 8159 8158 8156 8157 8159 8159 8156 8152 8157 8160 8158 8158 8161 8162 8162 8159 8159 8162 8164 8169 8173 8172 8171 8161 8147 8145 8151 8146 8152 8145 8145 8163 8178 8178 8179 8178 8181 8180 8182 8183 8178 8177 8178 8179 8178 8172 8176 8175 8175 8170 8169 8171 8169 8171 8169 8170 8171 8171 8170 8170 8171 8169 8167 8167 8171 8169 8165 8168 8164 8158 8156 8159 8163 8158 
8156 8152 8153 8156 8158 8161 8156 8157 8158 8158 8159 8155 8159 8155 8157 8161 8160 8158 8163 8165 8158 8161 8159 8164 8166 8174 8176 8170 8162 8141 8153 8144 8127 8122 8128 8132 8158 8175 8179 8177 8177 8175 8180 8179 8181 8183 8178 8178 8180 8180 8176 8173 8171 8175 8168 8169 8170 8171 8169 8171 8168 8172 8170 8170 8169 8167 8168 8167 8169 8168 8167 8170 8168 8168 8166 8164 8159 8158 8166 8153 
8159 8153 8153 8159 8159 8161 8159 8158 8158 8160 8160 8156 8157 8157 8161 8161 8162 8164 8165 8163 8164 8163 8163 8170 8170 8172 8174 8150 8124 8127 8133 8128 8116 8127 8130 8132 8141 8158 8159 8168 8179 8179 8179 8178 8179 8180 8178 8176 8177 8180 8178 8173 8173 8170 8171 8167 8168 8172 8171 8166 8167 8167 8172 8169 8169 8167 8168 8165 8169 8168 8170 8171 8168 8169 8168 8165 8156 8158 8165 8158 
8158 8156 8157 8158 8155 8161 8160 8158 8156 8162 8158 8159 8159 8159 8162 8162 8163 8165 8165 8164 8164 8165 8167 8168 8163 8139 8157 8164 8129 8120 8117 8113 8119 8127 8146 8146 8129 8131 8137 8162 8179 8177 8175 8177 8178 8181 8177 8174 8178 8178 8176 8173 8173 8171 8170 8169 8169 8168 8170 8166 8165 8169 8168 8171 8168 8168 8168 8166 8166 8167 8172 8168 8166 8166 8168 8164 8162 8160 8161 8156 
8155 8154 8153 8155 8156 8157 8159 8162 8163 8158 8161 8163 8166 8160 8161 8164 8162 8168 8163 8166 8163 8165 8167 8170 8151 8119 8126 8152 8122 8121 8113 8115 8123 8126 8131 8128 8123 8126 8142 8163 8172 8174 8176 8178 8174 8179 8175 8173 8174 8176 8176 8174 8171 8171 8169 8167 8169 8171 8168 8162 8148 8158 8166 8170 8171 8168 8169 8168 8169 8168 8170 8170 8167 8167 8167 8164 8164 8160 8161 8155 
8158 8155 8156 8154 8155 8160 8162 8161 8160 8162 8166 8163 8165 8160 8159 8165 8164 8165 8165 8164 8164 8166 8168 8169 8142 8117 8121 8152 8134 8120 8116 8118 8120 8120 8125 8128 8130 8137 8130 8128 8131 8163 8171 8168 8156 8165 8167 8172 8173 8175 8174 8172 8174 8171 8168 8167 8170 8169 8168 8153 8149 8150 8152 8165 8170 8169 8171 8170 8171 8168 8170 8167 8165 8167 8167 8163 8165 8160 8160 8152 
8158 8161 8158 8155 8160 8162 8161 8163 8163 8161 8164 8162 8162 8161 8161 8166 8160 8164 8163 8161 8164 8164 8166 8168 8153 8116 8124 8145 8141 8144 8127 8121 8136 8138 8128 8133 8125 8126 8127 8124 8118 8140 8161 8149 8128 8141 8137 8149 8174 8174 8175 8170 8172 8174 8168 8169 8171 8169 8158 8150 8152 8154 8153 8168 8173 8172 8171 8174 8174 8172 8171 8171 8167 8167 8168 8166 8163 8162 8162 8151 
8159 8160 8160 8162 8164 8163 8157 8162 8158 8162 8165 8159 8164 8162 8163 8161 8162 8165 8162 8163 8164 8165 8166 8162 8158 8126 8116 8111 8114 8117 8119 8118 8130 8119 8121 8137 8133 8117 8118 8122 8118 8125 8143 8126 8126 8127 8127 8142 8195 8179 8172 8168 8171 8170 8171 8169 8168 8163 8150 8151 8152 8155 8164 8174 8173 8173 8178 8173 8174 8177 8175 8171 8173 8172 8170 8169 8167 8164 8165 8152 
8164 8166 8167 8167 8169 8168 8157 8155 8156 8164 8167 8162 8163 8163 8160 8161 8164 8161 8163 8163 8164 8165 8164 8145 8122 8132 8139 8139 8137 8127 8123 8127 8126 8124 8117 8116 8120 8120 8136 8148 8123 8117 8117 8123 8121 8128 8125 8155 8222 8194 8174 8170 8173 8166 8167 8167 8167 8152 8155 8152 8152 8161 8170 8174 8172 8175 8176 8175 8177 8173 8173 8174 8173 8175 8171 8170 8170 8167 8167 8155 
8165 8172 8173 8172 8171 8169 8163 8155 8164 8166 8168 8165 8166 8164 8161 8165 8168 8165 8160 8164 8166 8164 8164 8149 8115 8123 8137 8148 8145 8140 8141 8132 8138 8135 8126 8118 8119 8123 8124 8124 8117 8114 8110 8118 8124 8125 8131 8204 8211 8184 8176 8169 8170 8169 8169 8167 8152 8152 8150 8152 8155 8170 8174 8174 8178 8176 8180 8180 8175 8174 8176 8174 8173 8174 8174 8174 8172 8172 8176 8158 
8170 8168 8170 8172 8175 8171 8163 8162 8165 8164 8169 8167 8169 8165 8164 8166 8165 8166 8159 8159 8144 8138 8129 8117 8116 8110 8119 8142 8143 8120 8118 8119 8135 8126 8122 8120 8123 8123 8130 8119 8119 8117 8124 8122 8125 8128 8127 8165 8190 8169 8146 8167 8169 8170 8167 8157 8150 8148 8150 8152 8168 8172 8176 8175 8178 8176 8178 8179 8176 8176 8174 8171 8174 8174 8172 8173 8171 8176 8177 8165 
8173 8167 8168 8174 8171 8171 8163 8160 8162 8164 8165 8168 8167 8166 8164 8166 8166 8164 8159 8128 8117 8123 8141 8153 8149 8127 8117 8130 8124 8117 8116 8119 8119 8120 8129 8119 8125 8125 8138 8120 8117 8117 8125 8127 8120 8123 8124 8118 8124 8124 8126 8154 8162 8166 8158 8146 8146 8150 8151 8165 8172 8174 8176 8177 8178 8180 8178 8178 8172 8174 8173 8171 8173 8173 8172 8175 8175 8178 8178 8169 
8171 8170 8170 8168 8169 8171 8164 8161 8160 8166 8164 8168 8167 8168 8162 8166 8163 8161 8126 8109 8111 8144 8163 8166 8149 8127 8115 8110 8111 8117 8118 8120 8120 8116 8120 8124 8120 8121 8120 8117 8113 8115 8117 8121 8114 8118 8120 8116 8113 8118 8120 8126 8137 8154 8140 8142 8143 8147 8163 8171 8174 8177 8178 8176 8178 8175 8178 8177 8175 8172 8174 8172 8172 8172 8172 8173 8174 8183 8182 8171 
8171 8172 8170 8171 8170 8164 8165 8162 8162 8167 8167 8167 8167 8166 8163 8164 8166 8149 8108 8110 8138 8159 8163 8162 8140 8138 8124 8117 8117 8115 8114 8118 8119 8118 8116 8114 8117 8126 8133 8120 8113 8116 8115 8119 8113 8117 8118 8127 8115 8115 8114 8121 8129 8129 8131 8140 8144 8155 8175 8175 8176 8175 8175 8179 8178 8176 8177 8178 8174 8173 8173 8172 8170 8172 8173 8176 8179 8178 8184 8177 
8172 8170 8172 8168 8168 8168 8165 8163 8165 8169 8170 8169 8167 8164 8166 8168 8166 8146 8110 8135 8162 8164 8162 8152 8139 8139 8119 8116 8117 8118 8118 8115 8121 8127 8118 8114 8116 8120 8121 8111 8115 8122 8117 8117 8116 8120 8129 8128 8116 8126 8118 8119 8131 8136 8138 8145 8152 8171 8178 8177 8175 8174 8175 8174 8176 8180 8176 8177 8172 8174 8172 8172 8174 8171 8172 8173 8178 8184 8187 8174 
8170 8170 8170 8166 8169 8170 8169 8165 8168 8167 8171 8166 8165 8165 8165 8166 8167 8163 8142 8161 8164 8162 8162 8146 8141 8127 8115 8115 8115 8128 8119 8121 8118 8122 8124 8117 8113 8112 8115 8113 8113 8115 8118 8119 8118 8125 8130 8114 8115 8145 8131 8120 8127 8141 8144 8145 8168 8174 8173 8175 8174 8176 8172 8176 8178 8177 8175 8174 8170 8174 8172 8173 8170 8175 8175 8176 8178 8180 8192 8175 
8174 8173 8172 8168 8172 8172 8168 8166 8171 8166 8168 8166 8166 8163 8166 8167 8167 8166 8166 8164 8164 8164 8161 8146 8143 8126 8115 8114 8116 8120 8118 8120 8117 8119 8122 8116 8120 8116 8116 8117 8112 8111 8119 8120 8117 8118 8117 8115 8115 8129 8142 8127 8121 8125 8141 8164 8173 8174 8173 8173 8174 8174 8174 8175 8173 8175 8177 8173 8173 8175 8175 8173 8172 8175 8174 8177 8182 8186 8190 8184 
8174 8173 8172 8170 8170 8174 8164 8166 8169 8164 8164 8165 8166 8164 8164 8169 8166 8168 8168 8165 8165 8163 8156 8145 8148 8140 8117 8111 8117 8122 8118 8117 8114 8116 8120 8120 8121 8119 8116 8120 8122 8119 8121 8123 8118 8117 8120 8130 8120 8128 8141 8138 8123 8130 8149 8170 8175 8174 8175 8175 8175 8176 8172 8176 8177 8174 8174 8175 8170 8175 8178 8177 8176 8178 8176 8177 8181 8185 8191 8181 
8176 8175 8174 8172 8172 8170 8167 8167 8170 8170 8166 8168 8167 8166 8167 8167 8167 8169 8168 8166 8163 8168 8159 8146 8150 8146 8129 8114 8115 8127 8125 8116 8115 8111 8109 8114 8120 8116 8115 8117 8129 8134 8132 8125 8120 8122 8121 8132 8122 8128 8136 8141 8134 8146 8166 8170 8174 8174 8173 8173 8171 8172 8173 8173 8176 8173 8175 8174 8172 8174 8176 8174 8174 8176 8177 8178 8183 8187 8191 8181 
8180 8178 8176 8175 8173 8171 8168 8167 8173 8167 8168 8169 8165 8167 8165 8168 8171 8170 8168 8166 8166 8168 8159 8146 8149 8147 8137 8122 8115 8122 8121 8110 8109 8112 8110 8114 8118 8120 8114 8117 8116 8124 8121 8119 8119 8118 8116 8126 8124 8124 8132 8142 8147 8160 8166 8170 8171 8175 8173 8172 8171 8172 8173 8173 8173 8174 8174 8172 8174 8174 8174 8173 8173 8179 8180 8177 8181 8183 8189 8182 
8180 8176 8179 8174 8171 8172 8170 8168 8168 8170 8169 8174 8171 8167 8169 8168 8171 8172 8174 8171 8169 8171 8159 8144 8150 8144 8135 8132 8122 8119 8116 8112 8107 8109 8112 8117 8122 8119 8116 8121 8119 8115 8115 8117 8116 8120 8120 8130 8127 8120 8125 8146 8163 8161 8167 8173 8172 8172 8173 8173 8170 8171 8173 8172 8171 8173 8173 8173 8174 8178 8177 8175 8175 8175 8177 8177 8180 8183 8191 8182 
8181 8181 8180 8176 8172 8174 8174 8170 8169 8167 8172 8173 8173 8170 8172 8171 8172 8171 8173 8171 8171 8170 8163 8147 8150 8143 8133 8134 8136 8129 8118 8111 8107 8109 8114 8113 8119 8117 8122 8124 8131 8132 8119 8117 8120 8118 8121 8144 8131 8123 8125 8151 8165 8162 8166 8171 8173 8177 8176 8172 8173 8170 8170 8170 8174 8173 8175 8174 8172 8175 8176 8176 8175 8173 8179 8177 8180 8183 8189 8183 
8178 8182 8177 8178 8174 8173 8172 8170 8173 8170 8171 8173 8177 8172 8172 8171 8175 8172 8169 8171 8170 8167 8165 8148 8148 8145 8137 8134 8139 8130 8117 8110 8110 8111 8113 8113 8120 8117 8121 8122 8131 8139 8126 8125 8122 8120 8139 8150 8139 8138 8141 8155 8166 8165 8170 8174 8174 8173 8173 8174 8172 8174 8174 8173 8170 8172 8172 8173 8172 8171 8180 8175 8175 8177 8178 8178 8180 8185 8189 8185 
8177 8180 8180 8177 8178 8174 8171 8174 8170 8176 8174 8178 8172 8170 8173 8172 8175 8169 8171 8171 8169 8171 8166 8154 8148 8147 8138 8136 8134 8130 8123 8109 8109 8108 8110 8115 8121 8121 8121 8124 8135 8141 8139 8141 8138 8134 8151 8155 8150 8150 8153 8161 8164 8167 8172 8172 8172 8173 8174 8171 8172 8171 8171 8170 8174 8173 8175 8174 8171 8174 8176 8177 8177 8178 8177 8178 8184 8182 8188 8186 
8177 8179 8181 8177 8178 8177 8174 8175 8173 8175 8176 8176 8172 8170 8168 8170 8170 8172 8169 8169 8168 8168 8164 8157 8144 8147 8141 8138 8137 8140 8133 8115 8112 8112 8112 8116 8117 8117 8125 8135 8140 8141 8141 8141 8144 8146 8150 8155 8154 8158 8163 8167 8166 8173 8172 8174 8173 8175 8175 8173 8172 8170 8171 8174 8174 8172 8174 8175 8173 8176 8175 8175 8176 8177 8179 8181 8182 8180 8186 8182 
8177 8183 8182 8177 8179 8174 8174 8174 8174 8171 8173 8172 8172 8169 8167 8165 8167 8169 8172 8170 8171 8169 8167 8165 8145 8147 8142 8142 8144 8139 8134 8123 8115 8112 8115 8120 8114 8117 8121 8134 8140 8143 8149 8146 8147 8150 8150 8150 8152 8159 8163 8164 8171 8175 8172 8172 8173 8173 8174 8176 8173 8172 8170 8175 8170 8174 8176 8176 8175 8173 8172 8177 8177 8179 8178 8179 8179 8183 8188 8182 
8175 8181 8181 8175 8177 8175 8172 8172 8173 8173 8172 8171 8171 8171 8170 8170 8169 8170 8174 8172 8170 8169 8168 8168 8153 8148 8149 8141 8142 8139 8123 8117 8113 8116 8119 8120 8122 8113 8120 8129 8141 8148 8148 8151 8149 8148 8145 8143 8150 8158 8163 8163 8175 8171 8173 8175 8175 8175 8174 8175 8176 8173 8171 8175 8174 8173 8173 8175 8172 8174 8176 8175 8176 8174 8180 8179 8181 8181 8188 8181 
8176 8176 8178 8171 8173 8175 8171 8173 8174 8172 8172 8171 8170 8173 8173 8170 8170 8171 8171 8171 8170 8169 8165 8169 8162 8151 8148 8146 8147 8131 8123 8117 8125 8134 8125 8121 8141 8119 8116 8122 8143 8148 8152 8149 8150 8150 8139 8136 8150 8158 8161 8165 8174 8174 8173 8176 8174 8175 8177 8176 8176 8174 8175 8173 8176 8174 8173 8176 8176 8174 8175 8178 8174 8172 8175 8177 8176 8183 8186 8178 
8178 8181 8179 8171 8171 8173 8171 8174 8174 8175 8174 8174 8175 8171 8172 8170 8170 8171 8171 8170 8166 8168 8166 8172 8168 8155 8148 8148 8146 8135 8123 8132 8140 8142 8132 8128 8140 8138 8127 8130 8146 8151 8153 8153 8154 8152 8140 8144 8156 8155 8157 8169 8174 8173 8172 8176 8176 8173 8173 8177 8182 8177 8174 8176 8173 8176 8176 8174 8172 8175 8176 8175 8173 8174 8174 8174 8179 8185 8185 8182 
8177 8181 8182 8173 8173 8172 8174 8174 8174 8174 8176 8173 8173 8174 8170 8169 8170 8170 8172 8170 8168 8167 8166 8169 8172 8167 8149 8149 8146 8135 8136 8142 8141 8143 8134 8131 8144 8146 8147 8147 8147 8151 8150 8150 8151 8152 8156 8152 8154 8157 8165 8170 8175 8174 8173 8174 8177 8175 8172 8181 8180 8180 8175 8175 8173 8178 8176 8175 8172 8174 8174 8172 8173 8175 8172 8176 8176 8177 8184 8180 
8180 8183 8178 8175 8173 8172 8174 8175 8175 8175 8175 8175 8174 8175 8170 8172 8171 8172 8169 8171 8169 8168 8170 8176 8173 8171 8154 8149 8152 8153 8151 8148 8144 8145 8141 8135 8145 8145 8145 8142 8146 8151 8150 8145 8146 8155 8152 8151 8156 8160 8168 8169 8173 8172 8174 8173 8174 8175 8177 8178 8177 8176 8177 8174 8174 8174 8172 8173 8171 8171 8171 8170 8174 8173 8173 8178 8173 8176 8182 8176 
8181 8180 8176 8173 8176 8174 8174 8176 8175 8174 8172 8173 8175 8175 8170 8173 8174 8173 8175 8172 8169 8172 8172 8174 8178 8176 8163 8153 8152 8163 8165 8158 8153 8147 8142 8140 8140 8140 8140 8138 8144 8148 8151 8152 8153 8156 8153 8152 8159 8166 8171 8171 8174 8177 8174 8176 8177 8175 8176 8174 8180 8177 8176 8173 8174 8174 8173 8170 8173 8172 8170 8173 8171 8172 8171 8175 8171 8173 8179 8181 
8185 8185 8181 8172 8176 8174 8176 8174 8176 8172 8170 8173 8176 8173 8174 8174 8175 8173 8172 8175 8172 8173 8174 8177 8174 8178 8174 8160 8153 8154 8173 8176 8167 8153 8153 8147 8145 8143 8140 8140 8144 8148 8145 8149 8154 8158 8155 8158 8164 8170 8174 8174 8175 8175 8178 8176 8177 8176 8176 8176 8176 8176 8172 8172 8173 8172 8171 8172 8171 8171 8171 8168 8170 8170 8171 8172 8172 8172 8182 8178 
8184 8181 8180 8176 8175 8180 8177 8176 8180 8179 8177 8175 8173 8171 8173 8176 8175 8174 8170 8176 8172 8173 8174 8176 8176 8178 8178 8175 8158 8157 8161 8173 8180 8176 8165 8157 8153 8148 8147 8146 8140 8149 8152 8155 8160 8159 8159 8165 8170 8172 8175 8172 8172 8178 8178 8178 8175 8175 8176 8176 8175 8175 8175 8172 8170 8168 8169 8170 8171 8171 8170 8172 8168 8169 8169 8171 8170 8171 8180 8174 
8180 8181 8184 8178 8174 8178 8177 8179 8178 8174 8174 8178 8174 8171 8174 8173 8178 8177 8173 8176 8172 8174 8178 8178 8178 8180 8182 8179 8173 8168 8165 8164 8169 8177 8180 8169 8165 8157 8155 8152 8154 8160 8158 8159 8163 8162 8170 8171 8173 8175 8176 8175 8177 8177 8179 8180 8179 8179 8175 8176 8176 8174 8175 8171 8170 8168 8168 8168 8170 8171 8174 8169 8169 8171 8170 8168 8170 8174 8182 8174 
8181 8178 8181 8177 8180 8181 8178 8179 8178 8177 8177 8177 8174 8175 8171 8176 8177 8176 8174 8176 8173 8175 8174 8178 8178 8182 8182 8179 8178 8180 8177 8171 8163 8163 8168 8169 8173 8171 8166 8167 8165 8164 8163 8160 8166 8173 8173 8173 8174 8175 8175 8175 8176 8177 8180 8178 8177 8178 8177 8176 8176 8172 8173 8169 8167 8168 8169 8170 8172 8171 8172 8172 8171 8169 8172 8171 8171 8174 8177 8176 
8181 8178 8178 8176 8180 8181 8178 8178 8174 8172 8178 8177 8176 8176 8174 8175 8176 8180 8174 8173 8174 8173 8177 8180 8180 8182 8185 8185 8183 8179 8183 8178 8174 8170 8171 8168 8166 8164 8166 8162 8162 8166 8169 8171 8173 8176 8174 8173 8174 8177 8174 8175 8175 8176 8178 8178 8179 8179 8179 8180 8179 8175 8172 8167 8167 8169 8170 8169 8169 8172 8172 8171 8171 8173 8171 8172 8170 8172 8180 8177 
8181 8183 8177 8175 8178 8179 8178 8175 8173 8173 8175 8175 8175 8176 8173 8177 8178 8176 8173 8175 8175 8174 8175 8181 8181 8182 8183 8183 8180 8181 8183 8181 8177 8179 8175 8177 8179 8174 8174 8175 8174 8173 8174 8175 8176 8179 8174 8176 8174 8176 8179 8177 8177 8178 8180 8181 8180 8178 8177 8177 8179 8175 8172 8167 8168 8168 8170 8167 8169 8171 8175 8171 8170 8171 8169 8169 8170 8170 8175 8173 
8179 8181 8180 8179 8180 8182 8178 8177 8179 8172 8176 8176 8173 8176 8173 8174 8177 8178 8172 8176 8174 8176 8177 8180 8181 8184 8183 8184 8183 8184 8186 8186 8180 8182 8181 8180 8181 8180 8180 8177 8176 8174 8172 8176 8177 8178 8175 8176 8176 8179 8179 8175 8179 8180 8179 8181 8179 8178 8179 8176 8179 8177 8173 8171 8167 8167 8167 8165 8169 8169 8172 8172 8170 8171 8171 8171 8166 8167 8178 8171 
8182 8182 8181 8177 8179 8180 8179 8177 8174 8175 8174 8174 8175 8174 8172 8177 8178 8176 8177 8176 8175 8175 8176 8182 8178 8182 8185 8182 8181 8183 8183 8185 8178 8182 8183 8180 8183 8183 8180 8178 8176 8175 8175 8176 8178 8180 8178 8179 8177 8182 8179 8174 8175 8177 8179 8178 8177 8177 8176 8179 8177 8175 8172 8168 8167 8165 8166 8168 8168 8170 8171 8171 8170 8172 8168 8168 8166 8167 8175 8172 
8180 8185 8181 8180 8178 8178 8175 8176 8174 8175 8174 8176 8174 8177 8176 8176 8178 8174 8176 8173 8176 8177 8178 8178 8178 8179 8183 8183 8182 8182 8187 8186 8182 8185 8181 8182 8183 8182 8183 8179 8176 8174 8177 8174 8178 8178 8179 8178 8181 8179 8178 8176 8177 8178 8176 8175 8178 8178 8178 8175 8178 8174 8170 8167 8165 8166 8168 8164 8166 8167 8171 8170 8170 8168 8165 8166 8164 8163 8170 8165 
8181 8182 8182 8178 8176 8178 8178 8175 8174 8176 8178 8175 8177 8175 8175 8174 8176 8174 8175 8175 8176 8174 8176 8178 8175 8178 8179 8179 8180 8182 8186 8185 8184 8185 8185 8184 8183 8181 8178 8178 8179 8173 8174 8177 8180 8177 8177 8179 8176 8181 8179 8176 8176 8176 8174 8177 8179 8178 8176 8176 8175 8172 8168 8166 8163 8164 8164 8164 8166 8165 8170 8169 8166 8165 8163 8162 8163 8162 8169 8166 
8182 8182 8184 8176 8170 8175 8177 8172 8174 8180 8175 8177 8173 8172 8173 8173 8174 8173 8176 8175 8175 8171 8173 8176 8175 8176 8176 8179 8183 8184 8187 8184 8183 8185 8187 8186 8184 8181 8178 8178 8176 8176 8177 8178 8179 8181 8177 8181 8178 8182 8177 8173 8174 8173 8174 8176 8172 8174 8176 8173 8173 8171 8167 8165 8164 8165 8164 8164 8166 8165 8166 8164 8168 8163 8166 8161 8159 8162 8168 8162 
8185 8182 8182 8170 8176 8173 8171 8169 8172 8173 8174 8173 8172 8169 8172 8167 8172 8174 8173 8171 8173 8173 8172 8174 8173 8178 8180 8182 8184 8182 8185 8186 8183 8183 8187 8185 8186 8183 8182 8179 8174 8175 8175 8177 8183 8179 8177 8176 8176 8177 8176 8174 8174 8170 8169 8174 8171 8173 8170 8170 8170 8167 8167 8164 8164 8165 8167 8160 8164 8166 8171 8164 8162 8163 8159 8157 8159 8161 8165 8164 
8188 8179 8173 8167 8173 8166 8164 8169 8172 8169 8167 8168 8168 8167 8169 8165 8167 8167 8169 8169 8171 8168 8167 8176 8177 8179 8182 8181 8178 8180 8181 8183 8181 8184 8185 8187 8186 8184 8183 8180 8178 8173 8176 8174 8177 8177 8176 8175 8177 8180 8176 8176 8171 8170 8171 8171 8173 8175 8173 8171 8168 8163 8165 8164 8166 8163 8167 8164 8169 8169 8168 8167 8163 8162 8162 8160 8157 8156 8164 8159 
8187 8176 8171 8164 8168 8169 8163 8163 8167 8163 8164 8164 8161 8157 8162 8159 8159 8162 8163 8166 8164 8164 8165 8169 8172 8177 8180 8176 8175 8176 8176 8174 8175 8174 8178 8180 8185 8180 8182 8180 8178 8177 8174 8174 8178 8180 8178 8177 8175 8179 8175 8172 8171 8170 8165 8172 8175 8174 8174 8170 8164 8163 8163 8163 8162 8162 8163 8164 8168 8166 8168 8169 8164 8163 8167 8161 8159 8158 8163 8160 


