P2
80 60
8273
8178 8180 8186 8189 8192 8191 8190 8193 8199 8201 8200 8203 8205 8206 8211 8208 8208 8200 8201 8203 8212 8213 8210 8208 8207 8204 8200 8199 8194 8194 8195 8192 8184 8176 8181 8172 8167 8162 8177 8214 8230 8241 8242 8244 8246 8244 8245 8248 8247 8244 8246 8241 8242 8238 8238 8234 8233 8234 8236 8239 8243 8241 8245 8246 8245 8249 8248 8251 8252 8252 8259 8258 8256 8261 8263 8260 8257 8250 8252 8246 
8173 8177 8177 8181 8183 8184 8185 8189 8189 8189 8193 8194 8201 8204 8204 8207 8205 8204 8202 8204 8209 8208 8208 8208 8208 8209 8202 8200 8196 8196 8189 8188 8180 8173 8177 8170 8167 8162 8171 8217 8229 8239 8238 8244 8244 8245 8243 8248 8244 8244 8244 8237 8237 8238 8236 8236 8235 8232 8237 8236 8242 8244 8244 8246 8244 8247 8249 8251 8253 8250 8256 8256 8258 8259 8262 8259 8257 8249 8248 8245 
8164 8162 8162 8163 8166 8172 8172 8177 8181 8181 8184 8187 8191 8192 8195 8195 8197 8195 8196 8196 8198 8202 8204 8203 8209 8210 8201 8198 8201 8201 8199 8199 8193 8194 8194 8190 8185 8177 8183 8220 8234 8239 8239 8245 8243 8244 8245 8250 8245 8244 8244 8240 8239 8237 8238 8238 8235 8232 8234 8237 8241 8242 8242 8246 8242 8246 8247 8249 8251 8251 8252 8250 8258 8258 8259 8258 8253 8247 8245 8238 
8154 8155 8159 8159 8167 8168 8168 8172 8181 8180 8178 8181 8186 8191 8197 8199 8199 8205 8208 8207 8210 8216 8220 8224 8230 8232 8231 8232 8238 8240 8245 8245 8241 8244 8250 8248 8247 8241 8238 8247 8245 8249 8249 8253 8252 8253 8254 8255 8251 8250 8246 8242 8241 8240 8239 8238 8239 8235 8236 8239 8240 8241 8238 8240 8235 8237 8238 8241 8243 8243 8248 8249 8252 8250 8250 8249 8249 8243 8239 8234 
8144 8162 8184 8189 8190 8191 8190 8190 8196 8196 8198 8200 8206 8208 8210 8209 8213 8212 8218 8220 8219 8227 8227 8235 8241 8245 8245 8247 8248 8249 8255 8257 8256 8258 8266 8261 8260 8258 8257 8255 8254 8256 8252 8255 8256 8256 8258 8259 8255 8253 8254 8248 8247 8245 8245 8242 8240 8238 8235 8239 8238 8241 8237 8232 8234 8231 8235 8234 8236 8237 8241 8236 8237 8232 8236 8233 8234 8234 8232 8230 
8148 8183 8205 8213 8214 8215 8213 8214 8212 8207 8206 8211 8213 8213 8210 8212 8214 8216 8218 8224 8228 8228 8229 8235 8241 8245 8245 8248 8248 8251 8260 8261 8262 8264 8265 8265 8265 8259 8261 8259 8257 8258 8258 8259 8257 8255 8259 8260 8256 8253 8251 8248 8247 8244 8245 8244 8243 8245 8244 8242 8242 8238 8235 8235 8233 8235 8233 8236 8237 8236 8237 8236 8236 8234 8230 8226 8228 8229 8227 8225 
8153 8203 8219 8217 8215 8216 8217 8219 8213 8209 8208 8218 8217 8216 8215 8216 8218 8219 8224 8227 8226 8228 8231 8237 8239 8245 8245 8246 8250 8254 8259 8261 8262 8264 8267 8266 8265 8264 8260 8261 8259 8258 8260 8262 8259 8256 8257 8261 8258 8252 8252 8249 8248 8245 8246 8245 8243 8243 8243 8244 8243 8240 8234 8235 8237 8236 8232 8232 8238 8236 8236 8236 8234 8235 8231 8226 8222 8221 8222 8222 
8166 8213 8220 8216 8220 8218 8220 8220 8218 8214 8217 8219 8224 8221 8217 8218 8221 8221 8223 8228 8229 8233 8232 8238 8242 8246 8248 8247 8248 8254 8258 8263 8260 8261 8267 8265 8263 8260 8262 8260 8258 8260 8260 8261 8261 8258 8256 8256 8254 8252 8251 8248 8249 8248 8244 8245 8245 8245 8245 8247 8245 8237 8235 8234 8235 8233 8234 8236 8233 8233 8236 8235 8234 8231 8231 8229 8223 8217 8222 8219 
8180 8212 8215 8220 8221 8220 8219 8221 8224 8222 8223 8223 8224 8224 8221 8221 8224 8228 8229 8232 8232 8235 8236 8238 8242 8245 8247 8246 8247 8252 8258 8262 8258 8260 8264 8265 8266 8263 8263 8261 8260 8263 8263 8261 8260 8259 8256 8257 8254 8251 8253 8251 8248 8249 8247 8245 8245 8245 8247 8244 8246 8240 8237 8235 8234 8236 8233 8236 8234 8232 8237 8233 8233 8232 8229 8228 8224 8217 8221 8219 
8194 8212 8216 8219 8218 8221 8218 8222 8225 8226 8223 8221 8221 8224 8221 8223 8228 8227 8233 8234 8234 8234 8239 8239 8242 8244 8245 8249 8250 8254 8260 8262 8261 8263 8263 8265 8267 8265 8262 8263 8262 8265 8261 8263 8260 8258 8258 8259 8253 8252 8252 8252 8250 8248 8247 8248 8246 8247 8246 8244 8246 8240 8236 8235 8233 8235 8234 8235 8234 8232 8234 8236 8233 8233 8232 8230 8223 8222 8221 8217 
8201 8215 8213 8217 8221 8223 8220 8223 8226 8225 8225 8224 8222 8221 8222 8225 8224 8227 8232 8236 8233 8236 8236 8239 8242 8246 8245 8249 8250 8258 8259 8263 8261 8261 8267 8267 8270 8263 8260 8261 8262 8262 8265 8265 8265 8261 8260 8259 8255 8253 8252 8251 8248 8249 8245 8247 8246 8247 8245 8242 8244 8242 8236 8237 8235 8235 8234 8232 8234 8237 8235 8233 8231 8229 8229 8226 8220 8219 8221 8222 
8208 8218 8217 8217 8220 8222 8218 8219 8225 8221 8224 8224 8225 8224 8223 8224 8226 8227 8235 8236 8236 8234 8238 8240 8244 8246 8248 8251 8251 8259 8261 8259 8259 8260 8266 8267 8264 8262 8262 8261 8259 8263 8261 8262 8264 8264 8260 8260 8256 8254 8255 8252 8249 8249 8244 8245 8244 8247 8245 8243 8244 8243 8239 8236 8237 8235 8235 8233 8235 8234 8233 8227 8230 8227 8226 8223 8224 8219 8222 8220 
8215 8222 8219 8218 8217 8220 8220 8223 8223 8223 8222 8224 8226 8224 8224 8226 8230 8229 8233 8236 8236 8238 8240 8240 8247 8247 8248 8249 8251 8259 8260 8261 8258 8262 8264 8265 8263 8260 8260 8260 8260 8262 8261 8263 8265 8262 8260 8259 8256 8255 8256 8250 8254 8250 8247 8247 8246 8246 8244 8244 8243 8240 8238 8236 8236 8235 8236 8235 8234 8233 8233 8229 8232 8227 8224 8224 8221 8222 8219 8223 
8227 8226 8223 8224 8221 8221 8221 8222 8225 8226 8227 8224 8228 8228 8228 8229 8230 8232 8235 8239 8234 8237 8238 8242 8245 8247 8251 8251 8254 8257 8261 8259 8257 8257 8262 8265 8265 8262 8261 8260 8260 8261 8258 8259 8262 8258 8261 8259 8258 8255 8256 8253 8252 8250 8248 8250 8250 8247 8244 8243 8247 8241 8237 8235 8241 8236 8237 8238 8236 8231 8231 8229 8230 8224 8223 8222 8221 8221 8225 8222 
8227 8225 8225 8225 8224 8226 8224 8227 8226 8227 8227 8227 8230 8230 8228 8234 8234 8239 8239 8237 8236 8238 8239 8240 8246 8252 8254 8252 8254 8257 8259 8259 8260 8261 8261 8261 8264 8263 8260 8262 8261 8264 8260 8261 8260 8257 8259 8258 8256 8254 8253 8255 8252 8250 8250 8249 8249 8250 8248 8245 8246 8243 8239 8239 8238 8239 8239 8237 8237 8233 8232 8230 8231 8224 8223 8221 8225 8222 8225 8222 
8227 8224 8225 8229 8226 8224 8225 8231 8228 8228 8230 8231 8229 8229 8233 8236 8236 8239 8242 8242 8238 8241 8241 8243 8248 8252 8253 8252 8257 8260 8262 8264 8261 8261 8262 8265 8264 8265 8261 8264 8260 8266 8259 8262 8261 8258 8255 8257 8255 8256 8257 8254 8253 8251 8250 8248 8250 8249 8248 8247 8247 8243 8240 8241 8241 8241 8238 8239 8237 8231 8233 8227 8229 8225 8224 8223 8224 8222 8225 8225 
8232 8230 8227 8232 8229 8230 8229 8230 8229 8232 8230 8234 8232 8231 8232 8235 8236 8241 8244 8241 8241 8246 8245 8247 8252 8255 8255 8257 8262 8266 8269 8269 8266 8267 8270 8270 8266 8268 8267 8266 8262 8263 8260 8263 8262 8257 8255 8255 8254 8255 8256 8251 8256 8249 8249 8249 8248 8247 8246 8247 8247 8246 8242 8241 8239 8238 8240 8238 8234 8235 8231 8229 8229 8225 8226 8226 8224 8225 8228 8228 
8235 8237 8233 8237 8236 8239 8238 8238 8234 8233 8236 8236 8232 8234 8234 8234 8237 8240 8243 8243 8244 8246 8252 8251 8257 8261 8264 8265 8267 8270 8273 8271 8268 8270 8270 8269 8269 8267 8264 8264 8261 8266 8264 8262 8261 8261 8258 8257 8253 8253 8253 8250 8253 8247 8251 8248 8252 8250 8250 8246 8247 8250 8244 8242 8241 8236 8237 8238 8233 8233 8230 8229 8227 8229 8229 8227 8224 8227 8232 8230 
8240 8237 8239 8238 8238 8239 8244 8243 8238 8233 8236 8236 8234 8233 8238 8238 8241 8241 8244 8249 8247 8252 8255 8256 8257 8266 8263 8266 8265 8271 8269 8271 8270 8266 8272 8267 8271 8268 8265 8264 8261 8266 8261 8262 8261 8256 8258 8257 8255 8255 8253 8249 8252 8247 8248 8250 8250 8245 8247 8245 8245 8247 8246 8242 8241 8239 8236 8236 8235 8231 8230 8226 8231 8228 8229 8228 8225 8228 8233 8230 
8245 8243 8241 8238 8240 8242 8245 8245 8244 8238 8236 8236 8235 8237 8238 8243 8241 8243 8247 8248 8247 8249 8249 8253 8256 8262 8260 8261 8264 8266 8269 8270 8268 8265 8271 8268 8267 8266 8264 8264 8259 8263 8262 8263 8263 8256 8256 8258 8256 8254 8255 8251 8251 8247 8246 8248 8249 8248 8245 8244 8247 8245 8245 8242 8242 8238 8238 8237 8233 8231 8229 8225 8226 8228 8227 8226 8229 8228 8232 8232 
8248 8249 8243 8240 8240 8238 8240 8243 8245 8242 8241 8240 8238 8239 8241 8242 8243 8244 8242 8246 8246 8248 8251 8253 8256 8261 8259 8257 8261 8267 8266 8267 8265 8268 8268 8264 8267 8263 8263 8262 8261 8263 8261 8260 8258 8254 8255 8258 8254 8251 8254 8251 8251 8248 8249 8248 8248 8246 8244 8243 8245 8243 8243 8243 8243 8240 8235 8237 8232 8229 8226 8224 8227 8224 8228 8228 8229 8229 8231 8233 
8243 8247 8242 8244 8238 8238 8232 8237 8238 8245 8242 8245 8242 8239 8238 8239 8244 8242 8243 8244 8243 8249 8253 8254 8257 8261 8256 8259 8260 8262 8265 8264 8266 8265 8269 8265 8265 8262 8259 8259 8260 8258 8261 8258 8260 8253 8252 8257 8254 8254 8255 8252 8250 8250 8249 8247 8247 8246 8243 8242 8245 8246 8244 8243 8242 8238 8234 8235 8231 8227 8225 8224 8225 8225 8227 8226 8229 8230 8232 8231 
8239 8240 8236 8238 8238 8234 8227 8230 8231 8240 8240 8242 8242 8239 8240 8241 8241 8239 8245 8243 8246 8251 8253 8253 8255 8259 8258 8259 8256 8258 8254 8253 8257 8258 8262 8261 8260 8258 8259 8259 8256 8256 8257 8260 8257 8252 8252 8255 8252 8249 8253 8250 8249 8251 8247 8249 8249 8247 8248 8245 8248 8250 8247 8244 8244 8239 8238 8235 8231 8230 8223 8226 8225 8223 8225 8226 8229 8227 8233 8229 
8234 8238 8235 8233 8237 8234 8228 8227 8237 8240 8241 8240 8243 8241 8242 8243 8243 8243 8244 8243 8247 8250 8250 8253 8254 8258 8255 8256 8247 8229 8184 8175 8197 8216 8220 8212 8208 8218 8243 8257 8257 8259 8258 8258 8257 8252 8251 8251 8251 8252 8250 8249 8248 8246 8249 8250 8246 8249 8244 8247 8247 8250 8249 8249 8246 8243 8240 8235 8232 8230 8224 8225 8226 8225 8226 8224 8232 8228 8232 8227 
8230 8231 8232 8232 8233 8232 8231 8230 8237 8240 8239 8240 8241 8242 8240 8243 8243 8243 8244 8245 8244 8247 8250 8249 8254 8252 8255 8240 8180 8168 8186 8191 8159 8154 8155 8160 8167 8205 8250 8257 8254 8255 8255 8254 8252 8250 8250 8251 8248 8249 8248 8247 8247 8247 8247 8250 8250 8247 8247 8245 8247 8249 8249 8252 8250 8249 8245 8242 8235 8232 8228 8227 8228 8224 8225 8223 8227 8226 8230 8229 
8231 8228 8229 8231 8231 8229 8234 8234 8235 8237 8238 8242 8242 8243 8243 8243 8246 8243 8242 8242 8245 8247 8245 8247 8222 8202 8245 8245 8190 8150 8156 8149 8142 8148 8155 8157 8209 8246 8243 8247 8248 8251 8251 8253 8252 8247 8249 8252 8247 8248 8246 8245 8247 8247 8248 8250 8248 8249 8251 8248 8250 8250 8250 8250 8249 8250 8247 8248 8243 8240 8235 8227 8228 8225 8227 8227 8227 8229 8232 8231 
8228 8228 8227 8232 8231 8233 8235 8234 8236 8240 8238 8239 8244 8241 8243 8246 8245 8246 8245 8245 8245 8247 8245 8241 8177 8147 8202 8234 8163 8163 8146 8139 8140 8159 8154 8152 8160 8166 8167 8175 8207 8229 8238 8250 8249 8249 8247 8246 8246 8247 8248 8246 8247 8247 8247 8249 8250 8248 8250 8249 8250 8251 8249 8251 8249 8250 8249 8244 8240 8240 8239 8236 8232 8227 8225 8230 8229 8230 8232 8231 
8229 8227 8228 8233 8238 8237 8236 8237 8240 8241 8243 8243 8246 8244 8244 8243 8241 8244 8246 8243 8243 8242 8244 8235 8163 8148 8173 8223 8157 8148 8140 8139 8144 8142 8167 8170 8148 8153 8152 8177 8186 8196 8198 8213 8229 8244 8244 8250 8245 8248 8245 8247 8248 8249 8247 8248 8251 8249 8250 8249 8250 8251 8251 8249 8252 8250 8251 8246 8244 8241 8240 8242 8239 8239 8236 8231 8232 8233 8234 8234 
8226 8229 8232 8235 8235 8237 8236 8240 8239 8244 8244 8245 8245 8241 8242 8240 8245 8242 8244 8242 8244 8243 8244 8234 8165 8150 8176 8228 8187 8153 8141 8141 8148 8142 8149 8144 8144 8146 8160 8204 8211 8209 8204 8201 8199 8207 8232 8244 8247 8248 8247 8245 8246 8247 8250 8251 8250 8250 8253 8246 8251 8253 8251 8252 8253 8249 8250 8244 8244 8243 8244 8243 8245 8243 8243 8235 8239 8238 8241 8237 
8227 8227 8231 8237 8238 8237 8238 8240 8240 8240 8245 8244 8245 8242 8241 8242 8246 8243 8245 8242 8240 8242 8242 8241 8184 8150 8155 8154 8155 8170 8148 8147 8169 8171 8152 8150 8171 8166 8144 8167 8219 8229 8214 8208 8207 8199 8201 8223 8241 8245 8246 8247 8246 8246 8248 8252 8251 8249 8250 8249 8251 8252 8249 8253 8255 8251 8251 8246 8245 8243 8241 8244 8245 8248 8246 8244 8243 8245 8244 8237 
8229 8233 8232 8237 8239 8240 8237 8243 8240 8237 8240 8241 8243 8242 8241 8243 8242 8242 8243 8237 8238 8237 8230 8231 8196 8157 8151 8148 8155 8146 8145 8149 8153 8153 8148 8150 8151 8147 8143 8142 8162 8203 8206 8212 8212 8209 8204 8203 8213 8240 8246 8246 8247 8245 8247 8246 8248 8247 8248 8250 8249 8246 8249 8250 8251 8247 8252 8245 8247 8244 8246 8245 8248 8246 8245 8246 8250 8244 8247 8244 
8232 8237 8235 8238 8238 8242 8238 8242 8240 8238 8238 8240 8237 8244 8241 8242 8243 8245 8241 8238 8233 8211 8160 8154 8182 8174 8194 8213 8211 8152 8152 8156 8147 8135 8138 8143 8143 8139 8138 8139 8136 8165 8186 8202 8199 8192 8173 8171 8197 8217 8240 8244 8244 8242 8242 8245 8245 8245 8243 8242 8233 8208 8234 8246 8248 8250 8249 8249 8245 8247 8244 8246 8246 8247 8246 8247 8246 8248 8249 8243 
8238 8239 8240 8237 8240 8240 8239 8239 8241 8240 8239 8241 8240 8240 8242 8241 8244 8240 8234 8229 8190 8144 8133 8132 8147 8164 8188 8208 8181 8144 8167 8167 8185 8142 8139 8138 8147 8140 8167 8161 8138 8151 8190 8183 8152 8144 8150 8155 8194 8208 8224 8240 8244 8242 8242 8244 8245 8243 8239 8231 8186 8170 8187 8228 8245 8248 8247 8250 8245 8244 8247 8247 8249 8245 8249 8246 8247 8248 8252 8246 
8243 8243 8240 8241 8241 8242 8239 8242 8242 8240 8241 8243 8240 8238 8240 8239 8240 8222 8182 8153 8141 8144 8159 8151 8148 8144 8148 8157 8143 8142 8158 8184 8176 8148 8144 8136 8175 8184 8173 8161 8139 8142 8169 8150 8144 8141 8146 8152 8197 8207 8210 8229 8240 8239 8239 8240 8242 8239 8220 8182 8174 8173 8174 8184 8231 8245 8246 8249 8242 8248 8246 8244 8248 8245 8246 8245 8247 8247 8248 8238 
8244 8247 8243 8242 8240 8244 8242 8243 8242 8239 8239 8241 8239 8240 8241 8239 8211 8149 8134 8138 8165 8210 8208 8185 8173 8146 8136 8134 8143 8137 8150 8189 8155 8183 8154 8150 8164 8154 8139 8137 8131 8134 8134 8141 8143 8144 8147 8163 8202 8212 8208 8215 8235 8237 8237 8241 8240 8217 8181 8177 8179 8180 8181 8206 8242 8247 8247 8247 8243 8248 8247 8244 8245 8244 8246 8248 8247 8244 8247 8245 
8248 8249 8245 8245 8243 8245 8243 8247 8243 8237 8238 8238 8242 8240 8238 8228 8151 8131 8139 8184 8226 8227 8194 8188 8188 8170 8143 8149 8140 8139 8165 8166 8149 8194 8175 8148 8148 8141 8137 8139 8130 8128 8130 8155 8146 8145 8163 8202 8210 8212 8212 8208 8229 8236 8237 8235 8213 8181 8179 8180 8180 8188 8213 8243 8250 8250 8249 8250 8246 8242 8243 8245 8244 8247 8246 8246 8247 8243 8246 8241 
8247 8253 8246 8244 8245 8243 8246 8243 8242 8236 8239 8242 8241 8239 8237 8215 8138 8136 8192 8234 8238 8219 8186 8185 8173 8140 8144 8161 8160 8146 8147 8142 8146 8165 8160 8151 8144 8138 8139 8138 8131 8129 8132 8141 8146 8153 8205 8198 8196 8198 8207 8207 8218 8234 8229 8204 8181 8180 8179 8182 8191 8221 8241 8247 8246 8247 8248 8246 8245 8244 8247 8244 8247 8246 8246 8244 8247 8243 8245 8239 
8252 8253 8250 8246 8246 8246 8243 8248 8244 8239 8240 8244 8241 8240 8237 8228 8173 8206 8236 8236 8233 8202 8185 8185 8146 8139 8145 8164 8183 8155 8146 8144 8138 8140 8153 8147 8146 8148 8146 8137 8129 8140 8155 8139 8142 8143 8156 8151 8145 8150 8176 8203 8211 8225 8198 8181 8180 8178 8182 8193 8229 8242 8247 8244 8248 8246 8245 8248 8244 8242 8245 8244 8246 8246 8249 8248 8245 8243 8242 8237 
8251 8255 8251 8250 8247 8248 8246 8246 8241 8240 8244 8242 8240 8241 8236 8237 8234 8236 8240 8238 8233 8194 8185 8187 8149 8138 8135 8146 8157 8145 8145 8145 8144 8138 8148 8148 8153 8181 8160 8143 8136 8138 8181 8146 8140 8135 8136 8138 8139 8141 8152 8175 8196 8187 8179 8179 8181 8183 8200 8232 8243 8244 8246 8247 8248 8247 8246 8248 8246 8245 8242 8242 8245 8245 8246 8246 8244 8239 8241 8241 
8255 8255 8253 8249 8248 8249 8248 8242 8242 8240 8243 8242 8238 8239 8240 8238 8239 8238 8241 8238 8228 8186 8186 8191 8168 8136 8133 8140 8141 8141 8138 8142 8143 8152 8139 8141 8146 8141 8139 8137 8151 8136 8144 8143 8135 8134 8132 8132 8132 8127 8141 8160 8167 8173 8175 8180 8183 8211 8234 8237 8241 8246 8244 8246 8247 8249 8245 8249 8246 8246 8245 8243 8246 8244 8244 8246 8244 8241 8240 8238 
8249 8253 8253 8249 8250 8251 8243 8241 8242 8240 8239 8243 8238 8239 8240 8235 8238 8240 8239 8237 8228 8185 8185 8192 8168 8133 8135 8140 8159 8140 8144 8140 8144 8143 8137 8136 8141 8136 8130 8138 8169 8138 8130 8145 8170 8162 8147 8132 8134 8134 8139 8154 8157 8158 8170 8187 8218 8236 8240 8240 8244 8248 8248 8247 8250 8247 8247 8245 8243 8242 8242 8243 8244 8246 8245 8244 8241 8238 8242 8236 
8248 8251 8252 8247 8246 8246 8244 8242 8243 8242 8240 8240 8241 8241 8241 8235 8236 8237 8241 8237 8226 8183 8187 8192 8171 8140 8149 8144 8152 8145 8145 8144 8145 8142 8142 8140 8140 8137 8135 8129 8134 8136 8129 8137 8169 8151 8135 8136 8156 8140 8139 8146 8156 8167 8192 8225 8236 8239 8242 8244 8247 8248 8247 8250 8248 8250 8245 8246 8243 8245 8244 8244 8243 8243 8245 8245 8241 8239 8240 8238 
8247 8251 8250 8249 8244 8247 8240 8243 8243 8244 8245 8240 8240 8245 8239 8235 8239 8239 8239 8235 8224 8184 8186 8185 8176 8176 8190 8161 8147 8141 8143 8140 8140 8136 8142 8145 8140 8142 8143 8136 8135 8137 8130 8134 8141 8139 8132 8135 8162 8147 8141 8139 8164 8196 8227 8235 8238 8242 8241 8244 8246 8249 8252 8250 8250 8247 8246 8243 8242 8245 8242 8242 8244 8244 8245 8241 8242 8238 8239 8238 
8249 8254 8250 8248 8250 8249 8244 8245 8245 8244 8244 8243 8245 8242 8240 8237 8238 8240 8238 8234 8228 8185 8183 8182 8181 8177 8187 8186 8160 8145 8144 8139 8146 8142 8140 8147 8147 8136 8143 8154 8155 8152 8136 8135 8138 8140 8149 8136 8157 8168 8149 8144 8158 8214 8235 8236 8238 8238 8241 8241 8246 8246 8250 8248 8250 8247 8248 8246 8242 8243 8245 8243 8243 8247 8247 8245 8242 8239 8240 8241 
8247 8253 8247 8247 8246 8245 8241 8243 8242 8241 8245 8241 8243 8241 8242 8240 8242 8240 8237 8233 8227 8190 8177 8181 8176 8176 8170 8148 8155 8148 8145 8157 8144 8141 8144 8152 8141 8144 8140 8157 8177 8140 8135 8135 8135 8143 8152 8141 8150 8182 8167 8155 8182 8220 8234 8240 8241 8238 8244 8242 8247 8246 8248 8246 8247 8245 8245 8243 8246 8244 8244 8240 8245 8243 8244 8241 8239 8235 8237 8233 
8251 8253 8249 8246 8246 8245 8243 8243 8240 8242 8241 8240 8240 8244 8244 8244 8243 8239 8237 8236 8230 8193 8172 8178 8174 8177 8164 8148 8138 8136 8145 8145 8146 8138 8144 8146 8149 8161 8160 8141 8142 8140 8136 8135 8135 8144 8152 8140 8141 8186 8196 8179 8204 8229 8234 8239 8239 8238 8242 8240 8246 8244 8247 8246 8246 8248 8243 8245 8242 8242 8244 8242 8243 8241 8239 8239 8240 8236 8238 8233 
8252 8256 8247 8249 8249 8248 8244 8243 8239 8244 8240 8242 8242 8239 8243 8244 8243 8239 8237 8237 8231 8202 8178 8179 8179 8181 8181 8178 8152 8138 8141 8141 8145 8141 8153 8149 8164 8193 8204 8179 8145 8145 8139 8136 8137 8161 8162 8138 8142 8189 8204 8203 8212 8231 8234 8238 8238 8242 8240 8244 8246 8241 8242 8245 8245 8244 8245 8245 8243 8242 8240 8242 8244 8241 8240 8237 8237 8234 8238 8235 
8252 8256 8250 8251 8248 8246 8244 8244 8243 8245 8240 8244 8241 8242 8241 8243 8243 8240 8242 8236 8235 8219 8193 8186 8189 8188 8190 8192 8174 8142 8141 8136 8137 8148 8159 8151 8153 8190 8213 8214 8186 8180 8165 8143 8156 8213 8170 8145 8152 8195 8202 8201 8228 8233 8237 8238 8240 8241 8241 8244 8242 8241 8244 8244 8245 8243 8243 8243 8242 8242 8238 8244 8241 8240 8239 8236 8233 8235 8237 8232 
8248 8251 8250 8249 8248 8247 8250 8247 8248 8244 8242 8248 8239 8239 8241 8243 8242 8240 8239 8236 8236 8235 8214 8191 8202 8201 8206 8208 8174 8166 8148 8132 8142 8147 8148 8147 8153 8169 8203 8225 8232 8229 8193 8154 8204 8225 8179 8181 8202 8201 8203 8210 8232 8233 8236 8235 8237 8239 8236 8240 8240 8241 8245 8241 8241 8240 8238 8238 8239 8242 8239 8239 8236 8237 8235 8234 8235 8236 8234 8228 
8251 8249 8250 8250 8249 8251 8249 8244 8248 8244 8244 8246 8244 8243 8240 8240 8242 8241 8241 8237 8236 8237 8232 8203 8204 8206 8210 8212 8193 8162 8144 8140 8145 8142 8149 8172 8213 8219 8219 8237 8239 8245 8225 8207 8232 8228 8218 8222 8211 8205 8208 8228 8236 8237 8237 8236 8239 8238 8235 8240 8238 8241 8242 8239 8238 8236 8237 8235 8237 8235 8235 8234 8238 8236 8238 8234 8234 8235 8234 8233 
8250 8246 8246 8248 8245 8248 8250 8245 8242 8241 8242 8241 8245 8242 8241 8242 8242 8237 8244 8239 8234 8238 8239 8219 8202 8211 8201 8179 8153 8151 8166 8156 8186 8161 8150 8160 8212 8231 8233 8246 8235 8232 8237 8231 8220 8217 8218 8218 8204 8201 8223 8234 8239 8236 8237 8241 8238 8239 8234 8236 8240 8243 8239 8233 8230 8232 8231 8231 8236 8237 8239 8234 8239 8234 8234 8232 8234 8234 8237 8234 
8244 8249 8244 8247 8244 8245 8243 8246 8244 8240 8242 8244 8242 8243 8240 8238 8240 8240 8241 8236 8235 8240 8240 8236 8204 8198 8168 8154 8153 8172 8194 8159 8191 8176 8148 8155 8183 8232 8248 8254 8244 8239 8235 8217 8198 8204 8211 8206 8201 8216 8235 8235 8239 8238 8238 8236 8236 8235 8236 8237 8238 8239 8240 8229 8229 8228 8227 8229 8232 8231 8234 8236 8233 8233 8234 8233 8234 8233 8232 8229 
8246 8244 8248 8246 8246 8245 8243 8247 8246 8244 8237 8240 8239 8241 8243 8239 8240 8241 8240 8240 8236 8242 8241 8241 8224 8204 8176 8185 8193 8194 8181 8155 8190 8199 8159 8165 8176 8236 8247 8247 8237 8230 8224 8212 8211 8205 8205 8204 8215 8229 8238 8239 8237 8237 8238 8237 8236 8235 8234 8236 8236 8242 8236 8231 8228 8229 8229 8228 8231 8232 8236 8236 8237 8233 8236 8231 8234 8229 8230 8226 
8248 8248 8244 8246 8247 8248 8248 8244 8243 8246 8241 8242 8241 8243 8241 8241 8240 8239 8239 8237 8237 8239 8243 8244 8239 8223 8209 8222 8214 8203 8172 8160 8193 8203 8179 8185 8218 8235 8228 8226 8220 8213 8219 8223 8211 8205 8205 8220 8230 8239 8242 8238 8237 8233 8235 8236 8235 8230 8233 8235 8239 8237 8233 8228 8228 8226 8228 8226 8231 8229 8233 8233 8229 8229 8229 8230 8228 8226 8229 8229 
8247 8254 8252 8250 8246 8246 8243 8242 8242 8244 8242 8240 8241 8242 8240 8240 8240 8238 8238 8240 8240 8241 8243 8245 8246 8239 8217 8215 8223 8216 8171 8187 8206 8200 8195 8188 8207 8217 8218 8212 8208 8208 8213 8209 8205 8209 8219 8234 8236 8242 8246 8238 8240 8233 8237 8236 8235 8232 8236 8235 8236 8235 8230 8229 8230 8226 8225 8223 8229 8228 8233 8232 8234 8231 8228 8228 8227 8225 8224 8222 
8246 8250 8251 8247 8244 8244 8243 8242 8236 8244 8242 8238 8243 8238 8244 8238 8237 8237 8234 8236 8243 8240 8242 8246 8249 8239 8230 8226 8216 8217 8195 8203 8208 8211 8218 8212 8207 8207 8206 8205 8203 8204 8202 8209 8219 8226 8230 8235 8241 8243 8241 8235 8233 8234 8232 8230 8229 8231 8233 8234 8228 8231 8227 8227 8230 8228 8230 8228 8226 8227 8230 8229 8229 8226 8226 8223 8224 8223 8219 8218 
8249 8254 8253 8245 8242 8241 8245 8239 8241 8244 8240 8243 8243 8242 8239 8235 8235 8235 8236 8236 8239 8239 8241 8246 8248 8242 8237 8238 8230 8219 8219 8216 8214 8209 8212 8210 8209 8204 8199 8202 8206 8213 8219 8224 8228 8230 8234 8239 8240 8241 8240 8233 8233 8231 8230 8231 8229 8230 8229 8226 8228 8227 8224 8228 8225 8228 8226 8227 8230 8229 8230 8230 8229 8225 8226 8225 8225 8219 8219 8220 
8250 8255 8247 8236 8240 8242 8240 8236 8241 8241 8240 8242 8237 8240 8240 8233 8234 8235 8239 8233 8235 8236 8238 8243 8249 8250 8246 8241 8241 8236 8226 8224 8219 8216 8216 8218 8220 8216 8215 8217 8218 8223 8223 8234 8233 8234 8235 8239 8235 8237 8236 8232 8227 8227 8227 8226 8228 8226 8223 8226 8224 8228 8226 8227 8226 8228 8226 8228 8230 8232 8229 8228 8227 8225 8222 8224 8222 8218 8217 8216 
8249 8248 8240 8237 8238 8234 8236 8243 8238 8234 8237 8231 8232 8236 8236 8229 8230 8231 8231 8230 8232 8231 8232 8242 8247 8252 8249 8248 8243 8242 8243 8240 8227 8225 8221 8223 8226 8225 8222 8226 8229 8234 8231 8233 8232 8230 8234 8239 8239 8238 8233 8230 8228 8227 8225 8226 8223 8224 8225 8223 8224 8229 8226 8224 8226 8226 8229 8231 8232 8232 8231 8228 8228 8228 8224 8222 8218 8213 8214 8213 
8254 8242 8237 8233 8234 8236 8237 8239 8234 8233 8231 8229 8228 8227 8230 8229 8231 8224 8226 8229 8230 8230 8234 8242 8244 8249 8251 8250 8245 8248 8245 8243 8237 8233 8233 8230 8238 8237 8233 8234 8238 8233 8234 8244 8242 8235 8233 8239 8236 8237 8234 8232 8231 8223 8225 8228 8223 8224 8224 8226 8224 8226 8222 8224 8226 8227 8233 8232 8234 8233 8233 8229 8230 8227 8221 8218 8214 8215 8211 8213 


