P2
80 60
8181
8092 8103 8110 8111 8115 8112 8112 8110 8111 8113 8118 8119 8118 8121 8120 8129 8133 8133 8132 8133 8138 8142 8144 8145 8142 8141 8144 8149 8149 8156 8159 8160 8165 8163 8164 8168 8167 8167 8175 8176 8171 8170 8167 8166 8157 8161 8163 8158 8153 8149 8150 8144 8145 8145 8142 8142 8141 8144 8145 8149 8147 8147 8148 8150 8151 8154 8154 8155 8153 8155 8157 8166 8169 8168 8167 8167 8166 8169 8168 8173 
8098 8109 8111 8116 8118 8115 8110 8113 8114 8115 8119 8122 8123 8124 8128 8134 8135 8134 8135 8135 8141 8145 8148 8143 8144 8147 8147 8150 8151 8156 8161 8162 8168 8168 8165 8168 8169 8170 8170 8170 8170 8167 8158 8152 8148 8152 8157 8159 8157 8154 8153 8148 8147 8149 8145 8141 8139 8142 8143 8147 8149 8150 8150 8151 8151 8151 8152 8152 8157 8156 8158 8167 8170 8168 8166 8170 8165 8171 8169 8168 
8096 8109 8107 8114 8118 8124 8120 8122 8122 8117 8123 8125 8124 8128 8133 8137 8141 8138 8135 8140 8142 8142 8144 8143 8143 8146 8146 8149 8151 8155 8162 8166 8170 8170 8167 8172 8171 8170 8163 8155 8149 8142 8130 8121 8119 8125 8143 8153 8153 8155 8152 8149 8148 8147 8148 8141 8139 8141 8144 8151 8149 8150 8152 8148 8150 8151 8150 8153 8153 8156 8156 8164 8167 8167 8164 8165 8163 8166 8168 8167 
8105 8116 8114 8118 8122 8125 8129 8128 8125 8125 8123 8122 8126 8131 8132 8138 8139 8143 8140 8143 8143 8146 8146 8146 8148 8145 8146 8150 8156 8159 8165 8169 8170 8171 8172 8171 8174 8170 8137 8127 8123 8120 8116 8112 8113 8120 8122 8127 8128 8142 8150 8152 8148 8151 8147 8142 8143 8144 8147 8149 8149 8150 8155 8147 8150 8149 8153 8152 8155 8159 8157 8164 8168 8164 8164 8163 8161 8167 8164 8171 
8113 8119 8126 8125 8128 8133 8134 8131 8130 8129 8129 8127 8129 8136 8137 8141 8140 8141 8141 8144 8146 8146 8144 8148 8147 8147 8150 8151 8156 8161 8162 8167 8167 8167 8167 8169 8168 8168 8154 8131 8124 8118 8120 8125 8129 8120 8117 8115 8114 8140 8152 8154 8153 8152 8151 8147 8149 8147 8146 8151 8150 8150 8153 8150 8152 8152 8153 8151 8154 8154 8156 8160 8162 8162 8162 8162 8159 8166 8161 8165 
8118 8123 8129 8132 8137 8137 8140 8137 8134 8136 8129 8133 8138 8142 8142 8145 8145 8141 8145 8146 8147 8147 8152 8148 8148 8147 8149 8150 8154 8156 8165 8164 8167 8164 8165 8163 8159 8147 8131 8131 8125 8137 8136 8132 8126 8123 8121 8124 8138 8154 8159 8155 8154 8154 8152 8147 8146 8147 8147 8153 8151 8150 8153 8150 8151 8151 8156 8153 8152 8155 8157 8158 8160 8160 8160 8161 8156 8164 8159 8156 
8122 8130 8134 8140 8140 8142 8142 8141 8134 8131 8131 8138 8138 8145 8142 8143 8142 8141 8145 8148 8146 8148 8149 8149 8147 8147 8147 8150 8155 8161 8163 8164 8166 8165 8166 8151 8129 8122 8122 8124 8123 8127 8134 8143 8141 8132 8133 8136 8142 8154 8157 8157 8155 8154 8153 8149 8149 8150 8151 8151 8153 8157 8152 8151 8153 8155 8154 8155 8152 8158 8155 8158 8155 8157 8158 8160 8157 8162 8156 8156 
8125 8136 8140 8142 8141 8142 8142 8143 8143 8133 8139 8142 8143 8142 8143 8142 8145 8145 8146 8147 8147 8150 8150 8149 8147 8148 8149 8155 8155 8161 8165 8167 8167 8169 8170 8167 8149 8130 8129 8127 8125 8127 8131 8138 8125 8119 8121 8118 8118 8121 8139 8150 8154 8157 8154 8154 8156 8153 8154 8158 8157 8158 8154 8156 8152 8154 8154 8154 8155 8157 8154 8156 8153 8157 8155 8159 8159 8159 8152 8149 
8126 8134 8135 8141 8141 8145 8144 8143 8142 8137 8139 8143 8144 8145 8142 8143 8145 8143 8147 8148 8147 8147 8150 8149 8147 8148 8153 8156 8157 8161 8165 8168 8169 8169 8170 8174 8171 8167 8153 8136 8148 8157 8137 8132 8115 8114 8118 8118 8114 8115 8121 8145 8155 8158 8156 8153 8157 8156 8157 8158 8162 8158 8158 8154 8155 8156 8157 8157 8157 8158 8156 8157 8154 8155 8153 8157 8156 8155 8151 8153 
8128 8131 8132 8141 8143 8144 8136 8144 8147 8143 8147 8148 8147 8145 8141 8142 8145 8145 8150 8152 8149 8150 8147 8150 8150 8151 8153 8160 8158 8165 8164 8167 8167 8170 8172 8174 8171 8161 8143 8126 8131 8149 8132 8130 8118 8121 8142 8131 8137 8151 8154 8160 8157 8157 8158 8156 8159 8158 8160 8165 8159 8163 8157 8157 8155 8156 8157 8156 8162 8159 8160 8158 8157 8154 8153 8154 8157 8152 8148 8149 
8129 8136 8135 8140 8141 8141 8139 8144 8147 8145 8147 8148 8146 8146 8147 8146 8148 8146 8149 8150 8149 8149 8152 8153 8151 8152 8152 8160 8163 8168 8167 8169 8170 8172 8171 8169 8171 8162 8143 8130 8123 8129 8122 8123 8126 8136 8152 8159 8162 8164 8165 8163 8160 8160 8157 8158 8157 8159 8158 8161 8162 8160 8159 8158 8159 8161 8162 8164 8163 8161 8161 8158 8156 8156 8151 8152 8153 8153 8147 8149 
8132 8139 8138 8139 8139 8143 8142 8150 8152 8149 8146 8149 8147 8146 8147 8149 8150 8146 8150 8154 8156 8154 8154 8154 8155 8155 8157 8162 8166 8168 8170 8171 8168 8167 8162 8163 8169 8166 8173 8166 8153 8128 8118 8122 8119 8122 8123 8135 8165 8166 8165 8164 8161 8160 8156 8157 8159 8158 8158 8163 8160 8163 8161 8161 8162 8159 8166 8164 8163 8161 8159 8161 8159 8155 8154 8152 8153 8148 8148 8147 
8134 8141 8141 8144 8143 8149 8147 8147 8149 8148 8149 8150 8147 8147 8149 8153 8150 8150 8150 8155 8155 8155 8155 8153 8156 8157 8160 8160 8165 8168 8171 8171 8171 8167 8127 8124 8138 8151 8167 8169 8171 8141 8123 8145 8124 8119 8118 8128 8159 8165 8166 8164 8163 8161 8161 8160 8158 8159 8158 8162 8161 8160 8160 8162 8162 8165 8167 8165 8166 8161 8160 8160 8161 8157 8155 8152 8154 8153 8147 8150 
8138 8148 8149 8150 8147 8151 8148 8150 8151 8149 8151 8148 8147 8146 8148 8151 8151 8151 8152 8156 8154 8154 8157 8155 8158 8157 8159 8163 8164 8167 8170 8170 8169 8167 8139 8117 8116 8121 8138 8140 8164 8146 8148 8167 8145 8127 8118 8115 8138 8163 8165 8166 8162 8159 8161 8159 8159 8160 8158 8160 8160 8161 8162 8162 8163 8162 8162 8162 8162 8160 8162 8163 8160 8159 8154 8151 8152 8151 8149 8154 
8143 8147 8150 8150 8149 8154 8151 8149 8149 8149 8149 8148 8149 8147 8149 8154 8148 8149 8153 8158 8154 8155 8155 8157 8158 8157 8161 8160 8162 8167 8170 8170 8166 8153 8122 8115 8113 8117 8119 8124 8158 8135 8157 8171 8166 8162 8149 8125 8124 8162 8163 8163 8161 8161 8159 8159 8158 8158 8159 8160 8160 8160 8164 8160 8162 8160 8163 8163 8162 8161 8162 8165 8158 8162 8156 8153 8149 8153 8153 8150 
8145 8144 8146 8151 8151 8151 8149 8149 8147 8149 8150 8146 8147 8148 8148 8152 8151 8148 8153 8157 8154 8158 8154 8159 8156 8161 8162 8162 8164 8168 8171 8171 8161 8140 8127 8140 8118 8118 8116 8136 8152 8126 8160 8168 8172 8171 8167 8160 8146 8163 8162 8161 8157 8159 8159 8156 8159 8157 8161 8161 8159 8164 8161 8161 8163 8163 8163 8163 8163 8161 8163 8163 8162 8162 8156 8158 8153 8153 8153 8148 
8149 8147 8146 8151 8150 8153 8150 8150 8146 8151 8153 8148 8146 8148 8152 8153 8151 8155 8153 8149 8146 8154 8158 8161 8160 8161 8162 8164 8168 8168 8170 8152 8122 8122 8132 8140 8125 8120 8117 8129 8140 8124 8161 8167 8166 8166 8170 8171 8167 8166 8161 8159 8157 8158 8156 8156 8156 8161 8157 8158 8158 8162 8164 8161 8161 8161 8164 8161 8164 8163 8163 8162 8161 8163 8159 8157 8152 8156 8152 8149 
8149 8149 8150 8148 8148 8152 8152 8152 8149 8152 8153 8152 8152 8152 8156 8153 8154 8156 8129 8109 8108 8120 8157 8160 8159 8162 8165 8164 8166 8162 8144 8118 8114 8123 8123 8125 8124 8146 8156 8142 8124 8120 8155 8151 8133 8131 8156 8164 8160 8162 8160 8158 8156 8160 8156 8155 8154 8157 8154 8157 8159 8161 8161 8163 8161 8160 8161 8163 8163 8161 8161 8159 8158 8159 8160 8156 8154 8153 8150 8150 
8146 8147 8149 8148 8151 8151 8155 8154 8159 8153 8153 8156 8158 8154 8155 8155 8158 8159 8143 8103 8102 8107 8146 8164 8161 8161 8165 8167 8164 8151 8114 8125 8137 8121 8114 8113 8121 8132 8164 8169 8131 8115 8127 8114 8107 8111 8139 8136 8126 8139 8156 8159 8158 8158 8154 8155 8154 8157 8159 8160 8160 8160 8163 8159 8164 8161 8164 8164 8163 8160 8160 8159 8162 8163 8159 8156 8152 8155 8149 8152 
8149 8149 8151 8147 8150 8154 8155 8155 8155 8154 8160 8159 8158 8156 8156 8158 8159 8153 8152 8116 8101 8104 8132 8159 8161 8161 8165 8165 8164 8132 8127 8141 8148 8118 8109 8116 8135 8116 8122 8169 8157 8108 8103 8106 8106 8106 8112 8112 8109 8107 8126 8153 8155 8158 8154 8155 8155 8158 8159 8160 8159 8161 8160 8164 8164 8163 8163 8164 8162 8164 8159 8160 8160 8158 8158 8154 8154 8153 8148 8150 
8148 8152 8151 8147 8153 8155 8152 8154 8155 8157 8155 8155 8155 8155 8153 8157 8154 8151 8153 8131 8101 8102 8118 8155 8157 8159 8162 8162 8163 8138 8133 8137 8125 8114 8110 8118 8121 8111 8111 8114 8123 8104 8105 8105 8104 8106 8110 8110 8108 8106 8110 8139 8143 8147 8150 8158 8157 8160 8161 8159 8159 8164 8168 8164 8167 8166 8166 8167 8166 8165 8161 8163 8162 8160 8156 8158 8154 8150 8150 8147 
8149 8158 8156 8155 8158 8157 8150 8154 8148 8155 8156 8154 8156 8153 8154 8154 8154 8151 8151 8144 8108 8107 8110 8142 8157 8160 8160 8156 8145 8131 8130 8126 8116 8113 8104 8108 8112 8110 8109 8108 8109 8106 8106 8107 8108 8107 8108 8107 8106 8114 8135 8120 8110 8117 8129 8152 8155 8159 8161 8161 8162 8162 8164 8164 8166 8168 8168 8169 8166 8168 8167 8168 8167 8166 8162 8159 8156 8156 8154 8151 
8154 8158 8160 8159 8160 8160 8150 8147 8150 8157 8157 8159 8154 8156 8155 8152 8152 8149 8151 8151 8127 8105 8107 8123 8154 8158 8150 8132 8128 8130 8136 8133 8111 8111 8107 8109 8111 8112 8112 8108 8107 8109 8109 8112 8109 8109 8108 8105 8103 8103 8114 8112 8105 8107 8113 8139 8158 8161 8163 8161 8163 8164 8163 8166 8166 8168 8167 8168 8169 8164 8167 8165 8168 8163 8162 8163 8164 8161 8156 8149 
8153 8166 8164 8163 8164 8160 8155 8147 8154 8156 8159 8155 8157 8156 8157 8155 8156 8153 8152 8157 8146 8109 8110 8112 8142 8147 8128 8128 8127 8126 8111 8105 8103 8106 8114 8114 8114 8110 8112 8107 8106 8110 8110 8113 8111 8111 8109 8107 8105 8101 8103 8103 8111 8117 8113 8124 8153 8160 8163 8163 8163 8163 8167 8165 8170 8168 8172 8171 8169 8166 8166 8168 8166 8167 8164 8167 8165 8166 8162 8151 
8158 8161 8163 8165 8164 8160 8155 8153 8156 8153 8159 8157 8159 8157 8158 8157 8155 8158 8152 8155 8156 8124 8108 8108 8120 8123 8122 8131 8127 8120 8103 8100 8107 8109 8110 8110 8110 8109 8109 8101 8109 8113 8113 8112 8110 8111 8110 8107 8109 8103 8101 8098 8104 8139 8137 8142 8156 8161 8162 8163 8161 8164 8167 8164 8168 8167 8172 8172 8171 8164 8164 8165 8166 8167 8164 8164 8165 8167 8167 8161 
8160 8162 8161 8163 8161 8161 8155 8150 8152 8155 8157 8158 8160 8158 8157 8159 8159 8159 8157 8157 8159 8147 8110 8107 8110 8117 8120 8127 8120 8107 8100 8105 8103 8107 8100 8104 8110 8110 8112 8108 8112 8113 8112 8115 8113 8111 8112 8107 8106 8106 8102 8101 8105 8131 8151 8159 8159 8164 8167 8165 8167 8166 8169 8169 8170 8170 8173 8171 8171 8169 8166 8162 8165 8164 8163 8165 8167 8168 8165 8161 
8159 8160 8161 8161 8160 8160 8153 8152 8154 8158 8156 8159 8159 8160 8157 8159 8160 8158 8157 8158 8157 8155 8117 8107 8104 8114 8123 8122 8110 8106 8108 8106 8104 8102 8102 8109 8112 8112 8110 8111 8109 8111 8111 8115 8111 8113 8110 8109 8107 8114 8104 8102 8105 8130 8157 8160 8157 8163 8165 8165 8168 8167 8170 8168 8169 8169 8171 8171 8172 8167 8165 8164 8165 8163 8163 8166 8168 8172 8165 8164 
8159 8166 8160 8162 8162 8158 8157 8156 8157 8158 8159 8160 8160 8156 8157 8158 8160 8157 8157 8161 8154 8154 8135 8108 8106 8113 8120 8107 8102 8102 8104 8104 8102 8100 8103 8108 8111 8111 8112 8109 8108 8112 8114 8117 8113 8114 8108 8108 8109 8115 8115 8109 8117 8142 8157 8161 8162 8164 8165 8165 8165 8163 8168 8166 8170 8169 8170 8169 8166 8165 8165 8167 8165 8165 8164 8168 8169 8174 8171 8166 
8160 8162 8162 8164 8161 8162 8158 8156 8159 8162 8161 8162 8160 8158 8162 8159 8160 8160 8159 8159 8160 8157 8132 8110 8106 8110 8111 8100 8104 8104 8104 8107 8105 8102 8107 8110 8110 8111 8111 8106 8106 8108 8113 8117 8113 8113 8111 8111 8109 8109 8115 8118 8132 8156 8159 8164 8164 8164 8167 8169 8168 8166 8169 8167 8171 8171 8172 8171 8168 8166 8167 8164 8166 8167 8166 8169 8169 8176 8173 8169 
8158 8164 8165 8164 8164 8166 8162 8160 8160 8160 8162 8157 8159 8158 8160 8161 8163 8161 8160 8160 8157 8152 8126 8114 8110 8108 8103 8106 8104 8106 8105 8105 8104 8105 8109 8109 8111 8109 8109 8107 8107 8106 8112 8116 8114 8116 8117 8114 8111 8116 8119 8125 8134 8160 8163 8161 8163 8164 8166 8164 8165 8164 8162 8165 8169 8171 8167 8168 8168 8168 8167 8168 8168 8168 8168 8170 8175 8175 8177 8168 
8161 8163 8166 8161 8163 8164 8161 8159 8160 8157 8160 8159 8158 8157 8159 8162 8161 8159 8157 8158 8154 8147 8126 8125 8111 8109 8106 8105 8104 8104 8103 8104 8101 8104 8106 8105 8107 8108 8108 8108 8108 8107 8106 8109 8111 8114 8117 8116 8112 8113 8114 8123 8146 8157 8161 8163 8163 8163 8163 8166 8165 8167 8168 8168 8167 8167 8168 8167 8166 8166 8167 8166 8168 8169 8169 8171 8173 8179 8177 8174 
8160 8163 8163 8163 8161 8165 8157 8159 8161 8157 8154 8158 8159 8159 8160 8163 8161 8159 8157 8157 8158 8144 8129 8133 8119 8113 8112 8106 8109 8104 8105 8103 8100 8102 8101 8104 8099 8108 8110 8109 8108 8105 8106 8112 8115 8120 8122 8117 8118 8114 8118 8124 8154 8160 8160 8163 8165 8164 8163 8163 8165 8164 8165 8165 8169 8168 8168 8167 8165 8168 8170 8170 8170 8172 8170 8172 8175 8181 8176 8173 
8163 8167 8163 8162 8164 8165 8160 8158 8162 8160 8157 8158 8158 8158 8159 8159 8159 8158 8156 8157 8154 8146 8146 8143 8124 8116 8114 8112 8109 8106 8102 8098 8100 8104 8105 8104 8104 8108 8107 8108 8108 8109 8106 8110 8117 8119 8118 8120 8120 8119 8117 8124 8154 8158 8158 8161 8160 8163 8161 8164 8164 8161 8164 8165 8168 8167 8168 8167 8167 8167 8166 8171 8170 8168 8171 8169 8172 8178 8175 8175 
8165 8169 8169 8164 8164 8164 8160 8160 8161 8160 8160 8161 8157 8161 8158 8160 8162 8162 8160 8160 8157 8146 8155 8146 8123 8116 8113 8111 8109 8109 8105 8102 8101 8106 8104 8102 8103 8106 8108 8108 8105 8106 8109 8111 8115 8118 8121 8119 8123 8118 8119 8118 8143 8160 8160 8160 8165 8164 8165 8161 8163 8163 8164 8164 8167 8170 8169 8171 8167 8168 8166 8167 8167 8171 8172 8171 8175 8177 8175 8174 
8168 8167 8172 8166 8166 8164 8160 8160 8161 8161 8161 8163 8162 8161 8163 8161 8165 8164 8164 8160 8162 8152 8155 8147 8123 8117 8108 8107 8106 8107 8100 8100 8100 8107 8107 8105 8107 8109 8106 8103 8107 8106 8113 8115 8118 8117 8119 8118 8119 8118 8115 8120 8138 8156 8161 8161 8163 8162 8162 8161 8161 8161 8165 8164 8164 8166 8166 8169 8166 8169 8167 8171 8166 8170 8168 8169 8174 8177 8178 8174 
8168 8172 8170 8168 8164 8165 8165 8164 8162 8157 8163 8165 8164 8162 8164 8164 8162 8161 8164 8164 8163 8166 8158 8141 8119 8114 8108 8106 8108 8105 8099 8100 8102 8106 8106 8106 8108 8108 8102 8103 8104 8109 8115 8115 8117 8116 8117 8117 8118 8117 8121 8126 8146 8159 8163 8161 8164 8168 8169 8163 8162 8162 8163 8165 8169 8170 8167 8168 8165 8170 8167 8169 8168 8171 8169 8170 8173 8177 8174 8178 
8167 8174 8168 8170 8168 8167 8166 8163 8164 8165 8164 8164 8168 8164 8165 8164 8166 8163 8161 8162 8165 8176 8170 8141 8119 8111 8113 8109 8108 8104 8101 8101 8101 8104 8107 8109 8110 8107 8102 8101 8105 8111 8115 8115 8118 8120 8119 8117 8115 8113 8122 8131 8150 8160 8161 8161 8163 8162 8165 8163 8162 8162 8166 8165 8164 8167 8167 8167 8165 8165 8169 8169 8168 8170 8171 8172 8173 8177 8177 8178 
8166 8173 8173 8171 8169 8166 8164 8164 8163 8166 8166 8170 8166 8163 8164 8164 8162 8161 8161 8163 8165 8172 8179 8150 8125 8111 8112 8113 8109 8106 8106 8102 8103 8106 8107 8111 8109 8107 8104 8106 8107 8112 8115 8115 8120 8122 8121 8117 8113 8114 8118 8139 8147 8160 8162 8161 8163 8163 8165 8164 8167 8166 8164 8165 8169 8167 8166 8167 8165 8166 8168 8170 8171 8172 8171 8172 8175 8174 8176 8178 
8167 8172 8172 8170 8169 8170 8166 8167 8162 8168 8167 8166 8164 8163 8160 8161 8161 8162 8160 8161 8165 8167 8171 8159 8130 8115 8115 8112 8113 8113 8108 8104 8105 8106 8109 8110 8111 8108 8111 8109 8111 8111 8112 8113 8119 8118 8122 8119 8117 8117 8123 8139 8147 8163 8161 8166 8164 8164 8165 8165 8162 8164 8162 8164 8168 8164 8167 8169 8171 8165 8170 8166 8173 8170 8171 8174 8174 8176 8172 8172 
8166 8175 8175 8171 8172 8170 8168 8166 8168 8164 8167 8165 8162 8163 8162 8160 8161 8160 8162 8162 8165 8164 8162 8150 8149 8128 8117 8118 8118 8118 8112 8110 8108 8107 8106 8108 8109 8113 8111 8110 8109 8110 8116 8115 8114 8121 8120 8117 8116 8118 8131 8140 8153 8164 8162 8165 8163 8166 8163 8165 8166 8165 8165 8165 8168 8167 8168 8168 8169 8168 8169 8169 8170 8171 8170 8171 8171 8174 8176 8178 
8165 8173 8173 8168 8169 8168 8164 8166 8163 8166 8163 8165 8165 8163 8163 8163 8164 8160 8166 8166 8164 8166 8161 8152 8155 8151 8127 8119 8119 8115 8114 8109 8107 8105 8105 8106 8107 8108 8115 8114 8115 8115 8113 8118 8117 8118 8117 8116 8120 8129 8140 8139 8154 8161 8165 8165 8166 8167 8167 8169 8167 8167 8165 8167 8167 8165 8167 8169 8168 8168 8168 8168 8169 8171 8169 8171 8170 8172 8172 8174 
8165 8168 8171 8166 8166 8166 8166 8165 8166 8163 8163 8163 8165 8162 8166 8164 8160 8163 8163 8165 8164 8165 8162 8159 8152 8161 8145 8128 8125 8114 8114 8112 8110 8107 8109 8107 8106 8105 8112 8113 8116 8118 8121 8123 8122 8122 8117 8120 8124 8140 8139 8146 8156 8162 8162 8167 8166 8165 8167 8166 8165 8168 8168 8168 8171 8171 8168 8170 8169 8167 8168 8168 8167 8165 8164 8165 8167 8171 8171 8170 
8168 8171 8169 8163 8167 8168 8165 8166 8166 8167 8169 8168 8167 8164 8166 8163 8162 8163 8162 8164 8162 8164 8163 8164 8158 8154 8157 8147 8125 8116 8115 8114 8112 8110 8108 8109 8103 8112 8114 8111 8118 8121 8122 8125 8124 8124 8124 8127 8146 8149 8138 8147 8159 8162 8165 8168 8166 8166 8165 8171 8171 8169 8165 8170 8169 8167 8168 8166 8165 8167 8166 8167 8166 8167 8163 8163 8167 8173 8170 8173 
8166 8170 8168 8164 8165 8166 8168 8165 8167 8167 8166 8167 8167 8167 8163 8164 8163 8161 8164 8162 8163 8163 8163 8164 8162 8158 8152 8164 8140 8124 8112 8108 8111 8111 8110 8111 8108 8110 8116 8116 8117 8118 8120 8126 8127 8128 8139 8153 8161 8147 8143 8156 8162 8162 8162 8166 8170 8167 8163 8170 8170 8171 8167 8166 8170 8169 8167 8167 8163 8166 8166 8166 8165 8168 8161 8165 8167 8169 8170 8173 
8172 8173 8168 8164 8164 8166 8168 8166 8167 8168 8164 8169 8167 8169 8165 8167 8166 8165 8162 8164 8163 8165 8167 8166 8163 8161 8157 8144 8147 8138 8124 8118 8122 8116 8112 8111 8114 8111 8118 8119 8118 8114 8119 8127 8128 8142 8156 8166 8157 8147 8152 8159 8161 8164 8165 8164 8164 8167 8168 8171 8170 8168 8169 8170 8168 8167 8165 8167 8165 8166 8162 8162 8165 8166 8163 8164 8166 8166 8171 8172 
8167 8172 8166 8165 8167 8167 8168 8167 8167 8167 8167 8164 8166 8168 8165 8168 8166 8164 8165 8165 8162 8168 8168 8166 8164 8162 8160 8149 8139 8137 8135 8134 8131 8124 8116 8118 8115 8118 8119 8122 8122 8122 8129 8139 8144 8154 8166 8164 8150 8151 8159 8164 8164 8165 8165 8168 8168 8166 8166 8169 8171 8171 8172 8164 8167 8166 8166 8164 8165 8168 8161 8169 8167 8164 8163 8165 8164 8164 8167 8172 
8170 8176 8168 8164 8166 8166 8170 8167 8167 8164 8163 8163 8165 8164 8168 8168 8167 8165 8164 8165 8166 8168 8172 8170 8164 8165 8163 8159 8147 8141 8138 8134 8144 8133 8129 8121 8120 8126 8129 8133 8137 8136 8139 8142 8153 8163 8159 8153 8151 8160 8163 8166 8167 8167 8170 8168 8168 8168 8166 8170 8170 8170 8165 8163 8162 8162 8164 8166 8164 8166 8161 8163 8162 8165 8162 8163 8163 8164 8168 8174 
8169 8174 8169 8168 8165 8171 8167 8168 8172 8170 8170 8165 8165 8163 8166 8169 8167 8165 8163 8168 8166 8169 8167 8166 8165 8166 8167 8167 8161 8152 8141 8141 8140 8141 8135 8139 8137 8137 8138 8137 8135 8140 8148 8157 8163 8163 8156 8157 8162 8163 8166 8164 8163 8168 8170 8170 8167 8168 8168 8169 8166 8167 8167 8163 8161 8161 8162 8164 8167 8162 8163 8166 8164 8163 8164 8164 8164 8163 8164 8174 
8168 8172 8171 8167 8166 8170 8169 8171 8171 8168 8167 8166 8166 8163 8167 8166 8167 8166 8164 8167 8166 8169 8171 8170 8167 8169 8169 8169 8165 8165 8155 8149 8144 8143 8145 8140 8137 8136 8135 8141 8148 8154 8160 8160 8157 8157 8162 8165 8168 8165 8165 8166 8164 8169 8169 8169 8169 8169 8166 8169 8167 8167 8165 8162 8161 8159 8159 8162 8163 8166 8167 8164 8166 8166 8163 8162 8163 8165 8170 8169 
8169 8170 8169 8165 8169 8172 8168 8170 8172 8168 8171 8167 8166 8166 8164 8168 8165 8166 8164 8164 8167 8171 8170 8172 8167 8170 8168 8168 8167 8169 8166 8164 8157 8153 8150 8150 8148 8152 8150 8158 8160 8159 8156 8153 8159 8169 8171 8168 8168 8166 8164 8168 8165 8169 8168 8169 8169 8169 8168 8167 8168 8163 8163 8160 8162 8159 8160 8161 8166 8165 8163 8165 8165 8165 8165 8160 8163 8166 8167 8167 
8166 8170 8167 8166 8170 8171 8169 8168 8165 8166 8168 8169 8170 8169 8168 8167 8168 8169 8164 8166 8167 8168 8172 8173 8168 8167 8172 8173 8171 8172 8171 8169 8170 8165 8166 8162 8155 8159 8160 8156 8160 8163 8163 8167 8170 8173 8172 8170 8170 8168 8165 8166 8167 8169 8169 8168 8170 8169 8169 8171 8169 8165 8164 8159 8157 8162 8162 8162 8161 8166 8164 8168 8165 8168 8162 8164 8162 8163 8166 8166 
8167 8172 8167 8164 8170 8170 8170 8167 8166 8164 8165 8167 8169 8169 8166 8169 8168 8169 8164 8167 8165 8167 8168 8172 8169 8169 8171 8171 8170 8173 8170 8171 8170 8173 8168 8170 8172 8170 8169 8171 8173 8170 8170 8171 8170 8172 8173 8173 8169 8168 8170 8168 8168 8169 8172 8171 8170 8170 8170 8168 8168 8164 8165 8162 8159 8160 8161 8163 8164 8166 8166 8165 8164 8165 8163 8163 8163 8163 8166 8165 
8169 8171 8170 8168 8170 8170 8167 8169 8172 8166 8167 8165 8167 8170 8167 8166 8168 8166 8164 8167 8168 8171 8173 8174 8169 8170 8171 8173 8171 8175 8171 8176 8172 8173 8169 8172 8172 8173 8173 8172 8174 8172 8169 8171 8170 8175 8171 8172 8171 8169 8166 8166 8165 8172 8170 8172 8172 8170 8170 8168 8168 8167 8166 8164 8162 8160 8161 8158 8162 8162 8164 8165 8165 8165 8165 8164 8161 8164 8167 8166 
8167 8173 8167 8166 8170 8168 8172 8167 8166 8169 8166 8167 8168 8167 8167 8167 8166 8166 8167 8167 8168 8171 8172 8170 8167 8168 8174 8173 8173 8175 8172 8172 8171 8175 8172 8170 8173 8175 8174 8173 8172 8171 8171 8171 8173 8175 8173 8175 8172 8170 8169 8163 8164 8168 8173 8169 8168 8169 8168 8169 8166 8165 8164 8160 8158 8158 8158 8160 8163 8162 8164 8165 8163 8166 8162 8162 8161 8159 8164 8163 
8166 8174 8169 8170 8167 8168 8167 8165 8164 8166 8165 8168 8166 8168 8169 8168 8167 8164 8166 8164 8167 8173 8173 8169 8167 8166 8168 8173 8172 8174 8175 8176 8176 8177 8171 8174 8175 8174 8176 8172 8173 8171 8173 8171 8173 8175 8174 8175 8173 8171 8169 8166 8165 8168 8168 8167 8167 8168 8168 8167 8168 8166 8163 8160 8156 8157 8157 8158 8160 8162 8163 8165 8161 8160 8161 8157 8157 8157 8161 8160 
8165 8174 8171 8168 8167 8166 8166 8166 8166 8166 8168 8166 8165 8165 8168 8163 8164 8163 8164 8165 8168 8170 8170 8169 8165 8164 8168 8169 8171 8173 8174 8176 8175 8178 8174 8175 8174 8173 8172 8173 8177 8172 8171 8173 8175 8172 8173 8175 8171 8171 8169 8166 8165 8168 8165 8165 8168 8168 8166 8168 8164 8164 8159 8158 8155 8156 8156 8158 8160 8158 8164 8161 8162 8158 8158 8156 8155 8155 8159 8158 
8169 8169 8170 8166 8161 8166 8168 8162 8163 8169 8165 8166 8165 8166 8166 8163 8162 8163 8164 8165 8165 8165 8167 8167 8162 8163 8165 8169 8172 8175 8174 8173 8175 8179 8176 8176 8177 8177 8175 8175 8177 8174 8174 8175 8173 8175 8174 8176 8172 8172 8167 8163 8164 8165 8162 8165 8162 8164 8164 8165 8161 8161 8158 8160 8157 8158 8156 8157 8158 8159 8160 8159 8163 8156 8157 8153 8151 8156 8156 8153 
8168 8173 8170 8160 8163 8165 8159 8157 8164 8163 8162 8158 8159 8163 8163 8161 8161 8161 8160 8162 8165 8165 8166 8165 8161 8164 8167 8170 8174 8172 8172 8176 8176 8176 8177 8176 8178 8176 8179 8179 8175 8174 8172 8174 8174 8173 8173 8173 8170 8168 8166 8163 8163 8164 8163 8165 8162 8161 8160 8164 8160 8160 8159 8157 8158 8157 8161 8153 8159 8159 8160 8158 8157 8155 8152 8149 8153 8152 8152 8154 
8172 8170 8161 8157 8159 8158 8154 8159 8162 8159 8157 8156 8156 8159 8162 8157 8156 8154 8156 8160 8163 8162 8160 8164 8164 8165 8168 8170 8168 8172 8170 8170 8173 8174 8175 8176 8179 8177 8180 8179 8178 8173 8171 8170 8172 8172 8174 8173 8170 8169 8167 8165 8162 8162 8162 8163 8162 8164 8164 8163 8161 8157 8161 8157 8157 8158 8160 8161 8162 8163 8159 8161 8158 8155 8154 8153 8152 8148 8152 8152 
8170 8166 8158 8155 8156 8157 8151 8150 8158 8153 8151 8154 8150 8150 8155 8151 8153 8152 8154 8157 8158 8158 8158 8159 8160 8161 8167 8165 8165 8167 8164 8165 8167 8167 8166 8173 8175 8172 8176 8176 8177 8176 8170 8169 8172 8175 8174 8171 8171 8169 8167 8162 8162 8162 8158 8163 8164 8165 8164 8160 8157 8159 8157 8156 8154 8155 8159 8157 8161 8160 8160 8160 8159 8155 8155 8152 8149 8151 8151 8154 


