P2
80 60
8268
8178 8178 8187 8190 8194 8196 8195 8197 8198 8204 8202 8202 8203 8206 8208 8207 8206 8204 8203 8206 8211 8213 8211 8209 8200 8200 8200 8198 8191 8184 8185 8182 8180 8177 8174 8171 8170 8167 8185 8221 8234 8240 8242 8245 8243 8243 8248 8248 8247 8246 8246 8240 8238 8235 8235 8236 8230 8229 8230 8233 8234 8237 8239 8239 8246 8243 8244 8247 8248 8251 8252 8255 8252 8260 8258 8259 8254 8253 8250 8247 
8173 8177 8180 8181 8182 8186 8187 8192 8188 8191 8193 8192 8200 8202 8203 8207 8204 8203 8201 8203 8209 8208 8210 8208 8201 8205 8203 8200 8194 8187 8179 8180 8175 8173 8167 8168 8168 8167 8178 8220 8232 8239 8241 8241 8244 8244 8245 8249 8244 8243 8245 8236 8236 8235 8234 8234 8230 8230 8231 8232 8234 8236 8241 8242 8242 8242 8246 8249 8248 8250 8252 8255 8256 8258 8258 8259 8255 8252 8246 8243 
8164 8162 8165 8165 8166 8175 8176 8181 8180 8181 8184 8184 8188 8193 8194 8198 8197 8198 8197 8195 8204 8206 8207 8205 8204 8206 8202 8200 8200 8192 8192 8192 8188 8188 8188 8186 8186 8184 8186 8222 8238 8240 8239 8243 8243 8244 8246 8248 8246 8246 8245 8236 8236 8235 8232 8235 8232 8232 8230 8234 8231 8235 8237 8238 8239 8241 8245 8248 8248 8249 8249 8254 8255 8256 8255 8256 8251 8248 8243 8239 
8152 8154 8161 8159 8169 8166 8173 8176 8180 8180 8179 8179 8183 8192 8195 8199 8199 8205 8205 8209 8210 8219 8223 8226 8226 8229 8230 8236 8238 8236 8238 8239 8238 8239 8244 8246 8246 8244 8241 8249 8250 8250 8252 8251 8250 8251 8253 8255 8250 8249 8247 8240 8239 8235 8237 8234 8233 8232 8228 8234 8230 8233 8231 8233 8232 8232 8236 8237 8240 8241 8242 8248 8249 8248 8247 8250 8247 8245 8235 8233 
8146 8164 8187 8191 8188 8188 8190 8194 8194 8195 8197 8200 8203 8208 8209 8209 8211 8212 8214 8221 8223 8229 8234 8238 8237 8241 8244 8247 8247 8244 8246 8252 8252 8256 8261 8262 8262 8261 8261 8257 8258 8256 8252 8254 8254 8255 8256 8255 8255 8251 8250 8241 8245 8241 8237 8236 8233 8234 8230 8236 8225 8231 8227 8227 8228 8230 8231 8231 8233 8232 8235 8235 8237 8234 8233 8231 8231 8237 8229 8230 
8148 8181 8204 8213 8213 8211 8214 8215 8211 8208 8205 8208 8210 8211 8211 8212 8214 8216 8219 8221 8229 8232 8234 8239 8237 8243 8245 8250 8247 8249 8249 8255 8258 8261 8263 8261 8266 8267 8265 8262 8261 8260 8258 8258 8258 8255 8257 8258 8253 8251 8251 8246 8245 8241 8238 8239 8239 8236 8236 8234 8229 8232 8231 8231 8228 8233 8229 8233 8231 8232 8233 8233 8233 8231 8225 8223 8224 8230 8225 8222 
8155 8202 8216 8214 8215 8216 8219 8217 8214 8210 8211 8216 8214 8213 8215 8217 8217 8218 8220 8226 8229 8233 8236 8241 8238 8242 8247 8250 8250 8250 8250 8256 8257 8259 8263 8266 8265 8267 8267 8265 8262 8261 8261 8260 8257 8258 8259 8257 8255 8253 8252 8248 8245 8240 8244 8241 8239 8241 8237 8238 8233 8233 8229 8228 8228 8232 8228 8231 8231 8232 8234 8235 8229 8236 8228 8227 8219 8225 8220 8222 
8167 8211 8217 8215 8219 8221 8222 8221 8217 8216 8218 8223 8223 8220 8218 8220 8222 8223 8226 8227 8232 8236 8237 8242 8241 8242 8249 8250 8249 8250 8251 8254 8257 8259 8261 8264 8266 8265 8267 8264 8262 8260 8261 8261 8259 8258 8259 8259 8253 8252 8251 8250 8247 8243 8245 8244 8244 8244 8239 8244 8235 8233 8230 8230 8230 8228 8228 8230 8230 8231 8232 8234 8229 8233 8227 8228 8218 8218 8216 8221 
8181 8209 8215 8220 8221 8220 8220 8224 8225 8223 8224 8226 8227 8227 8225 8225 8226 8229 8229 8234 8237 8237 8239 8240 8240 8244 8245 8245 8245 8247 8251 8254 8258 8260 8262 8264 8268 8267 8268 8263 8262 8262 8261 8260 8260 8258 8257 8258 8252 8252 8252 8251 8245 8245 8247 8240 8241 8244 8239 8244 8236 8237 8231 8227 8226 8229 8229 8231 8229 8232 8230 8233 8231 8232 8227 8226 8217 8218 8212 8219 
8194 8209 8215 8218 8219 8223 8224 8229 8226 8225 8224 8223 8224 8226 8224 8225 8231 8229 8235 8235 8233 8238 8238 8242 8238 8243 8244 8246 8246 8249 8251 8256 8261 8261 8263 8265 8268 8267 8268 8268 8263 8262 8261 8262 8259 8259 8257 8258 8251 8252 8253 8250 8251 8245 8250 8246 8245 8244 8241 8243 8238 8239 8234 8230 8229 8231 8228 8228 8230 8225 8230 8234 8230 8229 8225 8224 8220 8220 8214 8217 
8200 8215 8214 8218 8224 8223 8224 8227 8228 8223 8226 8225 8226 8226 8225 8227 8229 8226 8232 8235 8238 8238 8240 8243 8238 8242 8246 8249 8248 8248 8250 8256 8259 8263 8263 8263 8267 8266 8265 8264 8264 8259 8262 8260 8260 8258 8259 8259 8252 8253 8254 8249 8250 8245 8246 8243 8241 8246 8239 8242 8237 8239 8236 8233 8228 8230 8225 8226 8227 8231 8226 8229 8224 8226 8222 8221 8216 8218 8214 8220 
8207 8215 8216 8217 8220 8221 8224 8223 8224 8224 8226 8226 8227 8227 8227 8228 8229 8228 8233 8234 8239 8239 8241 8243 8236 8244 8249 8250 8250 8251 8252 8254 8254 8261 8261 8264 8262 8262 8265 8257 8262 8260 8259 8259 8259 8257 8260 8259 8253 8254 8253 8250 8246 8248 8243 8244 8242 8242 8240 8238 8241 8240 8236 8233 8233 8232 8228 8230 8226 8231 8226 8227 8223 8224 8220 8220 8217 8218 8214 8218 
8215 8220 8221 8219 8221 8222 8225 8226 8225 8227 8227 8226 8227 8225 8226 8227 8234 8233 8233 8237 8240 8241 8239 8243 8238 8246 8247 8249 8251 8250 8251 8254 8254 8259 8262 8262 8263 8263 8262 8257 8257 8257 8258 8259 8256 8259 8256 8255 8253 8251 8252 8249 8250 8247 8243 8244 8245 8242 8243 8241 8241 8234 8236 8231 8228 8227 8227 8230 8225 8230 8225 8227 8221 8220 8217 8220 8216 8219 8214 8218 
8225 8225 8224 8222 8222 8221 8225 8228 8228 8230 8230 8228 8228 8229 8230 8231 8234 8235 8237 8240 8240 8239 8242 8244 8241 8243 8250 8251 8252 8246 8251 8253 8252 8256 8258 8263 8262 8265 8260 8253 8253 8251 8250 8252 8252 8245 8246 8248 8242 8248 8249 8251 8249 8249 8250 8247 8250 8244 8245 8238 8242 8238 8237 8234 8237 8232 8231 8232 8231 8229 8221 8225 8222 8220 8218 8220 8216 8219 8216 8217 
8225 8224 8225 8226 8226 8225 8225 8231 8228 8229 8230 8230 8231 8230 8231 8235 8237 8239 8239 8239 8240 8243 8241 8241 8242 8248 8251 8252 8251 8249 8249 8252 8253 8259 8257 8258 8260 8260 8259 8228 8197 8208 8226 8236 8243 8190 8183 8197 8172 8192 8221 8248 8247 8245 8248 8243 8249 8241 8248 8241 8241 8239 8236 8234 8233 8234 8233 8233 8229 8225 8225 8225 8219 8215 8218 8218 8217 8221 8218 8218 
8227 8224 8224 8229 8227 8224 8228 8233 8229 8233 8232 8233 8231 8232 8234 8236 8240 8241 8240 8242 8242 8244 8242 8247 8244 8246 8252 8253 8254 8250 8249 8258 8253 8254 8256 8259 8259 8262 8259 8207 8146 8141 8147 8165 8220 8179 8141 8141 8139 8148 8180 8247 8249 8247 8252 8242 8248 8245 8246 8240 8242 8241 8240 8237 8236 8239 8235 8237 8237 8228 8228 8226 8221 8221 8218 8221 8215 8222 8217 8218 
8231 8229 8230 8233 8231 8230 8232 8234 8232 8234 8233 8234 8233 8234 8233 8238 8239 8242 8244 8243 8245 8249 8248 8247 8248 8250 8254 8256 8255 8253 8258 8263 8259 8262 8261 8261 8261 8265 8259 8232 8147 8133 8135 8140 8151 8141 8135 8135 8133 8139 8182 8240 8243 8243 8246 8241 8247 8246 8248 8243 8243 8239 8237 8237 8233 8237 8237 8238 8232 8232 8227 8227 8224 8221 8219 8223 8215 8223 8219 8225 
8236 8237 8236 8237 8236 8239 8240 8239 8235 8234 8236 8237 8235 8235 8235 8237 8239 8241 8243 8244 8246 8251 8251 8254 8251 8254 8263 8264 8261 8258 8262 8262 8258 8263 8263 8259 8259 8258 8257 8239 8163 8137 8135 8137 8137 8142 8143 8138 8132 8144 8187 8238 8245 8243 8246 8244 8245 8246 8245 8242 8239 8244 8245 8242 8240 8239 8235 8237 8235 8232 8229 8230 8224 8229 8222 8226 8218 8227 8223 8223 
8246 8238 8241 8242 8242 8242 8249 8248 8240 8237 8238 8236 8235 8235 8237 8240 8240 8242 8243 8247 8249 8252 8256 8256 8254 8262 8266 8265 8262 8261 8259 8263 8262 8265 8264 8231 8193 8205 8199 8218 8200 8141 8138 8134 8145 8167 8163 8138 8132 8147 8187 8220 8238 8241 8245 8244 8245 8240 8247 8245 8240 8241 8239 8238 8236 8238 8238 8239 8238 8232 8228 8229 8226 8230 8224 8227 8222 8227 8223 8224 
8250 8248 8246 8242 8243 8244 8248 8247 8244 8239 8236 8238 8239 8237 8238 8244 8242 8242 8248 8249 8252 8253 8252 8257 8252 8258 8260 8260 8260 8257 8257 8260 8260 8263 8257 8229 8153 8144 8141 8148 8152 8159 8140 8142 8162 8172 8163 8137 8132 8136 8136 8147 8191 8231 8240 8240 8242 8243 8241 8239 8240 8241 8243 8245 8238 8239 8237 8236 8232 8229 8224 8228 8225 8231 8222 8229 8222 8229 8226 8226 
8253 8249 8247 8242 8243 8241 8242 8245 8242 8242 8241 8239 8238 8240 8242 8244 8244 8245 8243 8248 8246 8249 8252 8257 8252 8255 8254 8260 8257 8256 8254 8261 8258 8264 8256 8195 8149 8142 8140 8134 8137 8145 8159 8203 8200 8154 8141 8135 8133 8136 8134 8132 8139 8186 8240 8246 8245 8240 8242 8243 8240 8237 8238 8240 8238 8247 8235 8241 8233 8228 8225 8226 8222 8224 8221 8227 8225 8227 8228 8226 
8246 8249 8244 8247 8245 8241 8236 8242 8238 8244 8243 8245 8243 8241 8240 8243 8245 8242 8247 8243 8249 8251 8254 8255 8252 8252 8254 8256 8254 8253 8252 8259 8258 8258 8238 8154 8144 8142 8140 8137 8137 8135 8164 8227 8181 8183 8166 8143 8136 8135 8142 8147 8169 8215 8237 8237 8241 8240 8239 8237 8241 8241 8243 8241 8238 8240 8234 8235 8229 8228 8225 8227 8223 8227 8223 8224 8224 8228 8227 8228 
8241 8244 8240 8244 8243 8237 8233 8237 8231 8240 8243 8243 8243 8241 8242 8243 8245 8242 8243 8244 8247 8253 8253 8254 8247 8244 8226 8249 8250 8251 8254 8259 8257 8256 8232 8154 8145 8142 8142 8136 8136 8141 8171 8161 8140 8139 8183 8204 8175 8155 8211 8222 8232 8241 8240 8247 8245 8241 8246 8239 8243 8242 8244 8242 8241 8242 8237 8236 8228 8229 8225 8227 8222 8221 8222 8224 8224 8227 8225 8228 
8241 8241 8240 8239 8239 8236 8231 8233 8236 8244 8243 8242 8243 8243 8241 8244 8242 8242 8241 8241 8249 8251 8253 8253 8245 8211 8154 8205 8244 8251 8255 8254 8254 8242 8214 8156 8152 8147 8142 8140 8140 8141 8139 8130 8132 8135 8140 8162 8208 8219 8235 8238 8236 8238 8241 8239 8241 8242 8243 8239 8246 8241 8247 8243 8245 8243 8241 8237 8235 8227 8222 8228 8225 8224 8224 8225 8226 8223 8225 8228 
8236 8233 8234 8234 8236 8234 8234 8233 8238 8241 8241 8241 8242 8245 8242 8247 8244 8244 8241 8243 8246 8249 8250 8247 8241 8178 8142 8153 8224 8242 8246 8247 8241 8184 8159 8157 8155 8150 8148 8174 8174 8142 8136 8129 8145 8133 8129 8132 8136 8157 8220 8236 8235 8240 8240 8245 8246 8244 8245 8239 8243 8240 8248 8248 8253 8247 8250 8241 8235 8231 8228 8225 8224 8220 8221 8220 8226 8224 8224 8227 
8234 8231 8231 8232 8233 8232 8237 8239 8234 8236 8240 8244 8244 8243 8242 8245 8249 8244 8241 8243 8243 8248 8246 8247 8226 8150 8139 8141 8163 8174 8174 8183 8194 8187 8167 8149 8153 8147 8153 8183 8165 8139 8137 8137 8131 8126 8128 8131 8125 8131 8170 8228 8235 8235 8238 8239 8240 8239 8242 8243 8243 8246 8247 8244 8249 8248 8251 8243 8247 8239 8234 8233 8227 8222 8227 8221 8225 8226 8223 8227 
8234 8235 8232 8238 8235 8238 8239 8237 8235 8240 8239 8241 8245 8244 8242 8245 8248 8241 8225 8227 8237 8240 8244 8242 8221 8141 8135 8139 8142 8145 8145 8148 8165 8159 8155 8143 8141 8137 8136 8144 8148 8143 8139 8134 8129 8129 8128 8127 8127 8128 8135 8179 8229 8241 8240 8242 8248 8247 8243 8242 8244 8247 8247 8249 8247 8247 8249 8241 8243 8239 8239 8237 8229 8222 8224 8227 8227 8229 8224 8229 
8234 8233 8234 8237 8243 8240 8239 8242 8240 8242 8244 8245 8246 8244 8240 8243 8242 8238 8162 8146 8172 8198 8237 8237 8198 8137 8136 8138 8138 8142 8137 8141 8139 8138 8145 8142 8141 8143 8139 8138 8141 8143 8140 8142 8131 8124 8131 8130 8123 8131 8130 8140 8190 8235 8235 8239 8240 8239 8242 8245 8242 8244 8245 8249 8251 8251 8250 8247 8243 8240 8238 8244 8237 8240 8234 8225 8232 8229 8228 8232 
8230 8233 8236 8240 8241 8241 8240 8243 8239 8246 8246 8245 8244 8242 8239 8240 8241 8231 8152 8129 8131 8140 8183 8217 8201 8140 8137 8141 8139 8137 8145 8142 8139 8138 8142 8143 8142 8142 8142 8139 8136 8141 8142 8149 8133 8131 8135 8133 8137 8173 8163 8177 8202 8235 8241 8242 8240 8244 8244 8241 8242 8248 8245 8246 8249 8247 8245 8241 8242 8241 8242 8243 8244 8245 8238 8235 8233 8235 8234 8235 
8234 8232 8234 8241 8246 8240 8243 8243 8244 8243 8245 8246 8243 8241 8240 8240 8240 8230 8146 8124 8124 8127 8137 8157 8173 8140 8138 8143 8141 8144 8146 8139 8142 8138 8140 8141 8143 8144 8141 8139 8129 8139 8136 8140 8151 8144 8133 8132 8137 8141 8145 8178 8226 8233 8237 8238 8240 8242 8241 8241 8243 8243 8246 8249 8248 8250 8247 8245 8242 8243 8242 8242 8244 8246 8244 8244 8241 8241 8239 8240 
8232 8239 8240 8243 8242 8245 8239 8245 8242 8240 8242 8242 8242 8241 8242 8240 8237 8231 8167 8122 8123 8124 8127 8139 8141 8140 8142 8143 8144 8141 8150 8138 8138 8137 8137 8141 8138 8140 8136 8134 8140 8141 8136 8135 8136 8143 8143 8137 8126 8126 8128 8147 8202 8232 8241 8241 8239 8243 8242 8246 8241 8244 8246 8247 8247 8248 8247 8244 8242 8242 8243 8244 8246 8244 8245 8244 8245 8245 8242 8244 
8238 8242 8243 8243 8244 8244 8242 8245 8242 8241 8241 8241 8238 8239 8237 8239 8232 8223 8197 8129 8124 8125 8129 8141 8138 8138 8146 8148 8143 8140 8149 8137 8135 8136 8139 8135 8135 8134 8133 8130 8133 8135 8133 8127 8128 8134 8131 8132 8127 8126 8126 8126 8134 8191 8229 8232 8232 8237 8234 8239 8238 8243 8243 8248 8244 8245 8245 8249 8245 8245 8243 8247 8244 8246 8244 8244 8243 8247 8244 8245 
8241 8244 8244 8246 8243 8246 8243 8244 8240 8243 8240 8241 8240 8238 8235 8229 8210 8149 8155 8128 8136 8139 8140 8161 8148 8145 8149 8148 8141 8138 8138 8131 8131 8133 8152 8146 8136 8137 8132 8132 8129 8131 8132 8125 8126 8127 8131 8135 8131 8126 8124 8128 8129 8145 8204 8210 8227 8235 8237 8245 8240 8247 8245 8246 8245 8245 8243 8244 8242 8242 8246 8244 8243 8245 8243 8243 8245 8245 8246 8246 
8244 8248 8247 8248 8247 8247 8242 8243 8240 8240 8241 8242 8238 8234 8197 8154 8147 8126 8127 8130 8180 8167 8143 8153 8146 8143 8142 8143 8136 8136 8134 8131 8128 8135 8152 8150 8143 8139 8140 8130 8129 8130 8132 8130 8129 8124 8129 8134 8157 8137 8132 8143 8164 8172 8152 8146 8161 8179 8221 8237 8239 8239 8242 8241 8247 8243 8245 8244 8240 8245 8243 8246 8245 8245 8245 8243 8246 8244 8246 8246 
8246 8250 8250 8249 8245 8249 8245 8245 8239 8240 8243 8240 8237 8227 8155 8128 8125 8121 8123 8132 8140 8130 8129 8135 8159 8147 8138 8137 8137 8135 8134 8127 8132 8135 8145 8147 8163 8143 8163 8139 8127 8128 8135 8145 8129 8124 8123 8129 8160 8186 8168 8197 8178 8148 8151 8153 8164 8206 8232 8241 8241 8249 8245 8244 8247 8244 8241 8244 8240 8244 8245 8243 8241 8241 8239 8246 8243 8244 8241 8243 
8253 8253 8250 8252 8247 8248 8247 8251 8244 8239 8238 8236 8228 8173 8129 8128 8125 8123 8124 8131 8123 8124 8129 8130 8148 8138 8134 8138 8133 8135 8132 8135 8135 8138 8143 8151 8151 8143 8146 8134 8127 8130 8144 8154 8154 8129 8125 8137 8180 8213 8187 8162 8150 8154 8157 8176 8215 8233 8236 8238 8238 8237 8242 8240 8245 8245 8245 8248 8240 8238 8242 8243 8242 8243 8242 8245 8245 8241 8241 8241 
8249 8257 8250 8249 8247 8245 8247 8247 8242 8238 8241 8236 8188 8132 8121 8123 8122 8123 8146 8188 8132 8122 8123 8132 8153 8142 8135 8133 8133 8136 8143 8160 8151 8136 8137 8137 8134 8133 8132 8133 8128 8129 8135 8143 8150 8137 8130 8137 8198 8191 8166 8161 8157 8168 8196 8226 8231 8237 8236 8241 8241 8240 8242 8243 8241 8245 8242 8244 8241 8244 8247 8240 8242 8245 8243 8241 8244 8241 8241 8241 
8255 8255 8252 8249 8252 8250 8250 8249 8246 8243 8241 8241 8216 8160 8137 8140 8128 8149 8216 8215 8133 8121 8125 8134 8168 8160 8136 8140 8135 8145 8180 8171 8153 8132 8135 8136 8135 8128 8128 8134 8129 8129 8132 8134 8140 8156 8142 8140 8171 8160 8165 8163 8183 8215 8228 8230 8234 8236 8235 8235 8235 8235 8241 8239 8243 8242 8241 8243 8239 8236 8242 8240 8241 8245 8246 8244 8245 8240 8238 8238 
8253 8256 8252 8251 8249 8249 8249 8251 8242 8240 8247 8243 8238 8229 8213 8179 8150 8214 8230 8206 8131 8122 8126 8135 8164 8172 8138 8137 8138 8153 8190 8149 8136 8130 8136 8137 8137 8132 8127 8135 8133 8132 8131 8132 8137 8152 8151 8145 8156 8158 8163 8172 8218 8227 8230 8233 8235 8238 8236 8238 8235 8237 8239 8243 8246 8243 8241 8243 8245 8240 8242 8238 8242 8242 8243 8244 8241 8237 8238 8240 
8253 8256 8253 8250 8252 8252 8252 8247 8244 8241 8244 8240 8239 8237 8235 8203 8194 8231 8235 8205 8135 8122 8132 8149 8189 8206 8145 8141 8144 8184 8184 8147 8134 8135 8132 8132 8136 8137 8127 8129 8132 8135 8134 8136 8135 8136 8142 8155 8155 8163 8177 8179 8218 8228 8233 8232 8233 8233 8233 8234 8236 8236 8240 8241 8243 8244 8246 8245 8241 8240 8237 8239 8240 8241 8241 8243 8240 8239 8235 8237 
8252 8254 8253 8250 8252 8254 8249 8245 8243 8242 8242 8242 8240 8239 8240 8233 8235 8238 8235 8220 8156 8125 8131 8165 8211 8230 8173 8143 8152 8193 8182 8144 8134 8132 8129 8129 8137 8135 8126 8127 8130 8137 8133 8135 8136 8133 8135 8143 8164 8175 8182 8183 8217 8228 8232 8231 8231 8232 8238 8235 8236 8238 8242 8243 8244 8242 8243 8242 8243 8238 8242 8243 8242 8241 8242 8240 8240 8236 8234 8239 
8248 8252 8253 8249 8250 8248 8249 8247 8243 8243 8242 8242 8241 8238 8240 8237 8237 8239 8238 8225 8182 8138 8139 8205 8228 8242 8214 8154 8166 8199 8179 8139 8133 8132 8129 8129 8135 8135 8132 8128 8135 8142 8135 8134 8135 8133 8139 8140 8170 8181 8183 8185 8219 8228 8235 8231 8233 8230 8235 8237 8237 8237 8242 8243 8243 8246 8242 8243 8242 8237 8240 8239 8242 8238 8241 8242 8235 8238 8235 8236 
8246 8253 8251 8245 8245 8248 8246 8246 8244 8246 8244 8242 8241 8243 8239 8236 8239 8239 8237 8231 8199 8161 8160 8219 8230 8245 8244 8181 8203 8203 8193 8171 8144 8133 8131 8131 8133 8137 8130 8128 8131 8131 8134 8134 8145 8149 8157 8166 8185 8185 8188 8205 8227 8232 8231 8232 8231 8231 8235 8235 8241 8236 8250 8242 8248 8241 8243 8240 8238 8242 8238 8241 8239 8242 8239 8240 8235 8236 8233 8240 
8248 8253 8251 8248 8251 8248 8246 8247 8247 8248 8246 8244 8246 8244 8239 8239 8242 8239 8237 8234 8207 8199 8202 8216 8225 8236 8240 8234 8225 8205 8198 8187 8156 8137 8131 8134 8133 8138 8134 8133 8135 8134 8135 8138 8157 8170 8172 8179 8191 8185 8193 8233 8229 8236 8231 8234 8235 8235 8237 8235 8239 8238 8247 8239 8246 8239 8245 8243 8240 8238 8241 8240 8239 8244 8242 8239 8236 8239 8235 8239 
8250 8253 8251 8248 8247 8247 8245 8245 8244 8245 8245 8243 8244 8241 8243 8241 8245 8243 8238 8233 8217 8202 8212 8210 8216 8227 8239 8233 8229 8218 8209 8192 8155 8136 8134 8134 8135 8140 8133 8134 8135 8132 8138 8138 8163 8169 8174 8187 8196 8192 8221 8236 8228 8236 8233 8238 8235 8233 8238 8237 8237 8235 8245 8238 8245 8240 8242 8241 8239 8237 8242 8236 8239 8241 8239 8238 8232 8234 8228 8236 
8249 8253 8250 8246 8249 8248 8247 8244 8242 8245 8242 8240 8241 8242 8244 8246 8245 8241 8239 8236 8229 8198 8211 8212 8208 8220 8231 8232 8232 8222 8214 8188 8142 8133 8135 8133 8138 8135 8133 8134 8136 8135 8133 8136 8142 8159 8178 8196 8190 8208 8233 8233 8230 8233 8230 8235 8232 8233 8238 8236 8236 8236 8242 8237 8241 8243 8240 8243 8238 8239 8239 8238 8236 8240 8233 8232 8235 8235 8231 8231 
8253 8255 8250 8250 8250 8248 8250 8246 8242 8246 8243 8243 8243 8241 8241 8245 8247 8241 8238 8238 8235 8214 8205 8211 8206 8216 8223 8233 8234 8230 8219 8175 8141 8136 8138 8137 8136 8136 8137 8134 8137 8137 8135 8137 8140 8153 8180 8197 8197 8212 8217 8232 8230 8233 8232 8236 8234 8237 8241 8239 8237 8232 8237 8238 8241 8238 8241 8239 8238 8236 8235 8237 8239 8237 8234 8232 8230 8233 8233 8230 
8254 8255 8253 8251 8251 8248 8247 8248 8245 8246 8247 8243 8243 8242 8243 8245 8246 8242 8242 8239 8241 8229 8203 8213 8210 8218 8221 8222 8230 8236 8222 8166 8142 8144 8144 8135 8133 8132 8133 8138 8147 8145 8140 8137 8136 8151 8182 8195 8206 8199 8226 8233 8233 8234 8233 8232 8232 8235 8233 8237 8234 8234 8237 8236 8240 8239 8240 8238 8240 8237 8236 8238 8235 8235 8233 8232 8229 8233 8231 8232 
8246 8248 8250 8252 8251 8250 8252 8250 8248 8244 8241 8242 8241 8242 8243 8246 8243 8241 8239 8241 8239 8232 8209 8202 8209 8214 8216 8217 8224 8228 8225 8167 8164 8182 8180 8148 8134 8139 8136 8140 8146 8160 8154 8148 8147 8147 8183 8210 8199 8219 8234 8233 8232 8232 8233 8234 8234 8236 8231 8234 8232 8233 8233 8236 8235 8236 8233 8233 8235 8236 8230 8236 8230 8234 8228 8228 8227 8231 8226 8233 
8249 8245 8249 8252 8249 8251 8253 8250 8247 8244 8247 8243 8244 8244 8241 8241 8241 8239 8240 8241 8240 8238 8222 8206 8196 8209 8212 8219 8226 8226 8223 8211 8211 8211 8196 8148 8138 8140 8141 8140 8149 8166 8176 8172 8179 8180 8195 8204 8209 8234 8237 8236 8234 8235 8231 8232 8232 8232 8226 8233 8229 8235 8232 8231 8228 8227 8229 8230 8230 8235 8227 8232 8229 8233 8229 8225 8226 8233 8227 8226 
8250 8248 8247 8249 8249 8249 8255 8245 8245 8242 8242 8243 8245 8244 8243 8242 8243 8238 8242 8241 8241 8241 8234 8213 8196 8198 8206 8212 8220 8224 8217 8223 8223 8218 8197 8152 8149 8144 8141 8143 8150 8175 8183 8189 8188 8188 8193 8207 8225 8232 8238 8237 8235 8236 8233 8237 8234 8237 8228 8230 8229 8232 8229 8229 8224 8228 8223 8226 8226 8235 8225 8234 8230 8230 8227 8229 8225 8229 8226 8226 
8242 8248 8246 8247 8247 8248 8248 8252 8242 8242 8243 8244 8241 8243 8241 8240 8241 8241 8241 8238 8240 8242 8241 8225 8206 8204 8196 8201 8206 8210 8216 8222 8215 8214 8208 8190 8147 8142 8147 8145 8147 8174 8190 8189 8188 8188 8204 8217 8231 8236 8238 8236 8235 8234 8232 8234 8229 8231 8228 8232 8229 8234 8230 8225 8218 8224 8218 8227 8224 8228 8225 8232 8226 8228 8227 8230 8229 8226 8227 8226 
8248 8248 8250 8248 8251 8249 8247 8251 8247 8244 8238 8239 8241 8242 8243 8239 8242 8241 8237 8239 8240 8246 8243 8237 8214 8213 8212 8209 8197 8195 8199 8200 8203 8204 8207 8200 8154 8141 8148 8164 8155 8171 8182 8187 8197 8206 8216 8230 8234 8236 8238 8238 8233 8235 8232 8230 8231 8231 8227 8230 8227 8235 8223 8226 8219 8229 8220 8227 8223 8231 8227 8234 8227 8226 8228 8224 8227 8225 8223 8226 
8244 8246 8248 8250 8250 8252 8251 8247 8245 8245 8240 8241 8240 8243 8241 8240 8242 8240 8239 8239 8241 8245 8243 8242 8229 8217 8215 8223 8226 8217 8198 8199 8193 8195 8195 8190 8159 8148 8157 8177 8184 8190 8208 8217 8210 8212 8229 8235 8236 8238 8243 8238 8234 8232 8230 8231 8228 8228 8227 8230 8227 8231 8223 8223 8218 8223 8219 8222 8220 8227 8224 8230 8221 8224 8223 8224 8228 8221 8225 8223 
8250 8255 8253 8253 8247 8246 8247 8244 8242 8246 8239 8241 8242 8244 8240 8239 8241 8240 8237 8241 8243 8243 8243 8244 8239 8230 8221 8217 8221 8233 8236 8227 8212 8207 8204 8197 8177 8186 8202 8215 8228 8227 8219 8213 8214 8230 8234 8242 8236 8243 8240 8235 8233 8229 8229 8228 8227 8227 8226 8228 8224 8233 8224 8226 8220 8227 8217 8228 8223 8226 8223 8228 8224 8224 8225 8220 8221 8219 8219 8221 
8247 8252 8253 8250 8245 8245 8244 8243 8240 8245 8242 8237 8244 8239 8243 8240 8239 8239 8234 8238 8245 8243 8243 8245 8242 8232 8232 8225 8219 8216 8227 8238 8242 8241 8238 8240 8239 8242 8240 8234 8225 8222 8219 8221 8232 8235 8235 8241 8241 8243 8240 8235 8230 8232 8226 8223 8223 8227 8224 8228 8219 8220 8217 8219 8220 8222 8220 8221 8218 8220 8219 8223 8221 8220 8219 8217 8222 8217 8214 8221 
8250 8255 8257 8248 8244 8243 8245 8242 8239 8246 8238 8241 8240 8241 8240 8235 8235 8236 8236 8237 8239 8243 8243 8246 8244 8237 8238 8240 8233 8223 8215 8216 8222 8228 8233 8237 8237 8231 8221 8217 8217 8223 8225 8233 8235 8234 8240 8243 8238 8239 8237 8230 8227 8225 8220 8223 8221 8221 8221 8222 8219 8221 8221 8221 8219 8224 8222 8227 8223 8224 8219 8221 8221 8219 8218 8218 8218 8217 8211 8216 
8248 8251 8246 8240 8241 8243 8244 8239 8241 8242 8240 8234 8235 8237 8237 8235 8232 8236 8236 8234 8236 8237 8241 8242 8243 8243 8247 8245 8240 8232 8224 8220 8218 8214 8213 8213 8217 8218 8218 8222 8227 8231 8231 8235 8233 8234 8240 8243 8234 8238 8235 8231 8225 8224 8219 8220 8221 8217 8217 8219 8218 8217 8218 8217 8220 8219 8219 8220 8224 8223 8216 8221 8216 8215 8214 8221 8216 8213 8210 8213 
8251 8248 8241 8236 8238 8232 8238 8244 8237 8237 8234 8229 8228 8234 8234 8229 8230 8229 8228 8231 8233 8233 8233 8242 8244 8246 8249 8251 8241 8237 8234 8235 8226 8229 8225 8229 8233 8233 8234 8236 8233 8237 8234 8231 8234 8234 8237 8238 8235 8237 8233 8227 8222 8222 8216 8216 8219 8217 8219 8214 8217 8217 8219 8218 8216 8222 8222 8224 8225 8224 8221 8220 8218 8218 8216 8216 8210 8213 8206 8211 
8252 8244 8237 8231 8235 8233 8238 8240 8233 8233 8231 8228 8223 8227 8230 8229 8233 8224 8226 8231 8230 8231 8235 8242 8241 8246 8250 8251 8245 8243 8238 8238 8234 8232 8234 8231 8240 8240 8238 8239 8241 8235 8238 8247 8244 8240 8236 8238 8233 8235 8232 8226 8227 8220 8219 8224 8217 8217 8220 8215 8218 8216 8218 8218 8218 8224 8225 8227 8225 8225 8221 8223 8221 8219 8211 8214 8209 8215 8205 8211 


