P2
80 60
8246
8140 8143 8154 8161 8165 8167 8168 8171 8175 8176 8177 8177 8181 8176 8178 8178 8179 8183 8187 8186 8185 8188 8196 8195 8194 8193 8200 8201 8206 8208 8214 8213 8214 8218 8215 8219 8219 8222 8226 8225 8227 8228 8231 8230 8225 8224 8226 8222 8218 8217 8216 8212 8210 8208 8212 8205 8204 8204 8200 8194 8189 8190 8184 8187 8186 8185 8187 8186 8188 8187 8187 8189 8186 8179 8173 8169 8163 8153 8149 8146 
8141 8146 8157 8161 8167 8166 8172 8170 8174 8180 8178 8174 8183 8180 8179 8180 8178 8181 8188 8188 8188 8193 8193 8199 8197 8195 8205 8204 8209 8212 8216 8219 8218 8219 8219 8221 8224 8228 8231 8229 8234 8231 8233 8231 8228 8225 8229 8222 8221 8221 8216 8216 8212 8210 8210 8210 8206 8205 8201 8197 8191 8188 8189 8188 8185 8188 8186 8185 8188 8190 8187 8190 8187 8181 8179 8167 8158 8151 8145 8152 
8139 8153 8160 8165 8166 8170 8170 8174 8175 8180 8184 8182 8186 8185 8183 8185 8186 8188 8188 8188 8193 8192 8194 8197 8198 8199 8204 8209 8213 8215 8219 8220 8221 8222 8221 8224 8227 8229 8229 8233 8235 8233 8233 8231 8227 8224 8226 8221 8224 8223 8221 8219 8215 8213 8215 8208 8208 8205 8200 8196 8190 8190 8190 8190 8186 8189 8188 8186 8190 8189 8187 8191 8189 8179 8175 8166 8149 8149 8144 8152 
8147 8156 8164 8165 8170 8173 8174 8178 8179 8183 8186 8183 8187 8186 8187 8189 8189 8190 8194 8194 8193 8196 8199 8199 8199 8197 8209 8212 8218 8217 8218 8221 8223 8224 8221 8219 8228 8227 8228 8231 8231 8233 8232 8232 8227 8226 8226 8226 8224 8223 8222 8220 8218 8215 8217 8214 8204 8204 8203 8197 8192 8193 8190 8193 8191 8188 8190 8189 8192 8188 8188 8189 8186 8180 8176 8164 8151 8147 8145 8147 
8155 8160 8164 8166 8173 8174 8180 8184 8182 8187 8183 8186 8187 8188 8187 8189 8192 8194 8195 8196 8197 8194 8198 8205 8200 8201 8209 8209 8217 8217 8223 8225 8222 8220 8222 8224 8227 8228 8231 8230 8233 8231 8229 8230 8228 8223 8226 8223 8225 8224 8224 8220 8219 8218 8219 8216 8208 8204 8203 8197 8196 8190 8190 8192 8192 8192 8192 8187 8192 8191 8188 8188 8189 8184 8178 8167 8157 8149 8146 8149 
8160 8163 8167 8170 8176 8180 8181 8185 8185 8186 8187 8186 8188 8187 8187 8189 8193 8192 8199 8196 8195 8196 8199 8200 8202 8199 8208 8210 8216 8214 8220 8219 8221 8225 8220 8226 8226 8230 8229 8228 8233 8231 8228 8227 8230 8225 8228 8225 8225 8223 8228 8226 8220 8220 8218 8214 8208 8207 8207 8198 8196 8193 8193 8193 8191 8191 8194 8191 8191 8192 8192 8191 8188 8183 8182 8177 8157 8152 8146 8151 
8172 8166 8169 8170 8176 8180 8182 8183 8185 8185 8185 8187 8193 8190 8193 8191 8191 8193 8195 8196 8199 8198 8201 8203 8203 8203 8214 8212 8215 8218 8221 8221 8219 8220 8224 8225 8227 8228 8228 8231 8233 8228 8228 8228 8227 8227 8228 8226 8228 8227 8227 8224 8226 8221 8218 8215 8211 8212 8207 8202 8200 8199 8196 8196 8194 8194 8195 8193 8192 8192 8191 8190 8194 8184 8182 8181 8163 8151 8147 8153 
8175 8172 8172 8172 8177 8181 8181 8184 8185 8184 8184 8186 8193 8191 8190 8195 8194 8196 8199 8194 8201 8197 8198 8204 8203 8205 8212 8215 8215 8218 8222 8221 8225 8223 8222 8228 8230 8226 8230 8231 8231 8229 8230 8228 8229 8224 8230 8224 8227 8227 8225 8226 8222 8220 8221 8217 8210 8209 8209 8202 8202 8202 8202 8201 8200 8195 8199 8193 8193 8194 8191 8192 8192 8184 8186 8182 8178 8159 8152 8160 
8179 8177 8177 8176 8181 8183 8184 8181 8187 8189 8184 8190 8193 8192 8191 8194 8196 8195 8201 8204 8202 8200 8202 8203 8205 8207 8215 8213 8220 8221 8226 8222 8224 8226 8225 8229 8229 8229 8231 8229 8234 8235 8232 8231 8230 8230 8230 8233 8229 8225 8224 8225 8223 8220 8223 8223 8212 8209 8206 8205 8203 8202 8203 8203 8201 8198 8200 8196 8197 8195 8193 8196 8196 8189 8185 8184 8182 8163 8159 8165 
8178 8181 8180 8178 8181 8183 8185 8183 8185 8186 8187 8189 8192 8196 8193 8193 8199 8200 8203 8200 8201 8202 8204 8205 8208 8207 8213 8217 8220 8223 8225 8224 8225 8224 8223 8228 8231 8230 8230 8230 8232 8231 8231 8228 8231 8226 8231 8229 8229 8226 8227 8224 8224 8219 8223 8219 8212 8211 8211 8203 8205 8203 8201 8206 8200 8200 8201 8197 8198 8195 8194 8194 8195 8190 8187 8183 8183 8174 8164 8167 
8181 8184 8184 8182 8184 8183 8184 8185 8185 8186 8186 8189 8192 8193 8193 8194 8199 8201 8202 8200 8201 8202 8204 8205 8208 8210 8216 8218 8220 8224 8229 8223 8227 8225 8226 8228 8232 8228 8229 8231 8232 8229 8229 8231 8230 8226 8230 8230 8229 8229 8226 8226 8225 8223 8223 8219 8213 8209 8205 8200 8206 8205 8204 8202 8202 8203 8202 8199 8202 8196 8196 8196 8195 8189 8191 8192 8185 8182 8171 8171 
8188 8186 8183 8186 8187 8182 8186 8187 8185 8187 8185 8190 8196 8194 8196 8194 8200 8200 8204 8199 8200 8202 8205 8209 8212 8210 8219 8219 8221 8227 8227 8227 8226 8229 8228 8231 8231 8226 8230 8226 8230 8232 8231 8230 8231 8227 8228 8226 8228 8227 8229 8224 8225 8223 8219 8219 8210 8208 8204 8202 8204 8205 8202 8208 8205 8206 8203 8197 8201 8200 8197 8199 8197 8195 8194 8193 8193 8187 8178 8177 
8190 8184 8189 8187 8187 8184 8183 8188 8186 8191 8189 8191 8196 8196 8195 8199 8203 8202 8206 8203 8205 8203 8206 8207 8209 8209 8216 8218 8224 8223 8235 8225 8228 8228 8228 8229 8228 8229 8229 8228 8232 8234 8233 8229 8228 8228 8230 8227 8228 8226 8226 8226 8225 8222 8219 8216 8211 8207 8205 8200 8201 8203 8204 8205 8202 8204 8202 8199 8201 8200 8202 8202 8204 8197 8196 8193 8191 8188 8180 8184 
8192 8189 8187 8187 8190 8192 8188 8189 8188 8192 8190 8193 8196 8201 8196 8202 8204 8204 8206 8207 8208 8206 8206 8208 8212 8211 8216 8218 8222 8224 8228 8228 8227 8228 8229 8233 8232 8229 8229 8229 8231 8233 8229 8229 8227 8226 8228 8227 8227 8226 8223 8227 8224 8219 8218 8214 8213 8207 8204 8201 8201 8205 8202 8206 8202 8205 8204 8199 8202 8202 8199 8202 8202 8197 8196 8195 8192 8193 8185 8182 
8192 8190 8191 8187 8187 8189 8188 8188 8189 8190 8194 8193 8198 8199 8203 8203 8205 8203 8209 8205 8208 8205 8209 8215 8213 8211 8221 8225 8226 8229 8232 8231 8233 8232 8231 8233 8232 8232 8235 8232 8233 8233 8232 8228 8227 8226 8229 8229 8226 8227 8224 8224 8221 8216 8215 8217 8212 8206 8205 8201 8201 8202 8204 8205 8205 8205 8203 8204 8203 8202 8203 8200 8200 8195 8197 8192 8195 8191 8184 8183 
8196 8191 8189 8187 8189 8189 8188 8193 8192 8193 8197 8199 8201 8204 8204 8205 8205 8206 8206 8205 8209 8210 8214 8217 8216 8216 8220 8224 8227 8229 8233 8232 8231 8231 8232 8233 8234 8228 8229 8231 8231 8232 8229 8232 8227 8225 8225 8223 8225 8223 8223 8219 8218 8213 8214 8214 8207 8206 8202 8200 8201 8201 8200 8205 8204 8203 8205 8202 8205 8202 8203 8200 8202 8199 8194 8192 8191 8189 8180 8184 
8193 8188 8188 8186 8190 8189 8187 8190 8192 8195 8198 8203 8204 8206 8207 8210 8209 8209 8209 8208 8211 8212 8213 8215 8215 8216 8219 8224 8227 8226 8230 8228 8228 8232 8229 8231 8231 8231 8229 8230 8231 8227 8227 8227 8223 8223 8224 8222 8221 8224 8220 8218 8215 8213 8212 8213 8209 8206 8202 8199 8204 8199 8201 8204 8204 8204 8203 8204 8202 8202 8200 8200 8199 8197 8194 8193 8195 8187 8185 8183 
8194 8188 8187 8188 8187 8187 8190 8196 8199 8199 8200 8204 8207 8210 8210 8216 8214 8211 8209 8204 8209 8212 8215 8216 8214 8213 8218 8225 8227 8226 8230 8227 8230 8230 8226 8227 8231 8226 8228 8229 8230 8225 8228 8225 8221 8221 8219 8219 8217 8219 8220 8216 8215 8212 8207 8212 8206 8206 8203 8199 8200 8201 8201 8201 8200 8200 8202 8201 8204 8202 8200 8200 8199 8194 8192 8192 8192 8187 8185 8185 
8188 8185 8186 8187 8187 8189 8190 8194 8198 8202 8204 8204 8210 8212 8210 8212 8212 8212 8211 8207 8209 8212 8211 8215 8212 8210 8219 8220 8223 8222 8226 8223 8222 8225 8225 8227 8227 8220 8224 8224 8225 8223 8222 8224 8221 8215 8215 8214 8215 8214 8217 8210 8212 8209 8209 8207 8202 8202 8202 8199 8200 8200 8200 8200 8200 8201 8201 8199 8200 8198 8200 8200 8196 8191 8192 8191 8191 8187 8182 8186 
8188 8186 8186 8188 8186 8191 8190 8198 8201 8202 8204 8208 8210 8211 8210 8212 8210 8210 8210 8208 8209 8212 8210 8217 8214 8212 8218 8221 8220 8219 8221 8221 8224 8224 8222 8226 8225 8196 8215 8221 8222 8221 8223 8219 8217 8216 8212 8213 8213 8213 8212 8212 8211 8205 8208 8201 8201 8202 8199 8197 8198 8197 8196 8199 8198 8198 8199 8198 8201 8199 8201 8200 8199 8190 8191 8189 8188 8186 8184 8186 
8190 8186 8189 8188 8191 8192 8197 8201 8202 8204 8203 8208 8208 8210 8208 8213 8212 8214 8211 8210 8209 8209 8212 8214 8212 8211 8212 8217 8218 8205 8198 8198 8205 8214 8220 8216 8222 8198 8215 8219 8220 8220 8218 8217 8217 8214 8213 8209 8213 8214 8211 8210 8210 8203 8207 8201 8199 8199 8201 8198 8195 8199 8194 8200 8198 8197 8201 8198 8200 8201 8197 8198 8195 8193 8190 8189 8190 8186 8184 8187 
8189 8187 8190 8192 8191 8195 8198 8201 8203 8204 8202 8205 8210 8208 8207 8209 8208 8211 8214 8210 8210 8208 8210 8211 8210 8207 8210 8212 8205 8186 8159 8162 8173 8184 8189 8185 8196 8179 8205 8206 8213 8214 8213 8213 8209 8208 8211 8209 8211 8211 8207 8206 8206 8201 8202 8201 8195 8195 8198 8198 8197 8196 8196 8195 8196 8196 8194 8194 8197 8200 8199 8201 8199 8193 8192 8193 8192 8186 8183 8188 
8194 8187 8190 8195 8196 8194 8202 8201 8203 8204 8203 8208 8210 8208 8205 8208 8205 8209 8211 8209 8214 8214 8210 8212 8207 8206 8208 8195 8161 8156 8167 8172 8189 8197 8197 8163 8154 8160 8174 8162 8175 8181 8190 8188 8176 8187 8205 8209 8208 8208 8205 8204 8203 8198 8199 8195 8193 8192 8193 8195 8195 8196 8195 8197 8197 8195 8196 8197 8195 8200 8196 8198 8198 8192 8193 8194 8194 8190 8186 8191 
8194 8193 8193 8195 8196 8198 8201 8201 8201 8205 8204 8208 8211 8208 8208 8208 8205 8207 8206 8207 8215 8212 8211 8210 8209 8204 8206 8205 8157 8169 8189 8178 8206 8216 8207 8191 8160 8149 8160 8158 8151 8148 8153 8156 8155 8154 8195 8209 8208 8211 8205 8199 8189 8197 8197 8195 8192 8194 8196 8194 8192 8195 8195 8197 8193 8193 8193 8196 8201 8198 8198 8199 8200 8196 8195 8194 8197 8194 8189 8196 
8196 8193 8199 8197 8198 8197 8203 8204 8203 8206 8207 8209 8211 8208 8206 8207 8191 8168 8188 8207 8211 8212 8211 8211 8209 8208 8209 8207 8190 8170 8170 8155 8183 8197 8190 8180 8169 8156 8153 8155 8154 8151 8152 8164 8199 8210 8229 8230 8212 8206 8202 8182 8152 8188 8196 8193 8194 8195 8194 8193 8195 8197 8195 8195 8192 8194 8193 8199 8201 8198 8196 8198 8199 8195 8198 8195 8199 8195 8194 8193 
8201 8198 8200 8204 8204 8204 8205 8203 8204 8201 8203 8207 8207 8208 8205 8188 8169 8158 8159 8188 8205 8208 8210 8208 8209 8203 8190 8168 8165 8148 8151 8145 8158 8159 8157 8154 8166 8152 8138 8139 8155 8162 8176 8173 8201 8208 8211 8204 8207 8205 8189 8158 8139 8150 8163 8156 8172 8190 8196 8193 8193 8193 8193 8194 8190 8193 8192 8194 8197 8195 8195 8196 8194 8193 8196 8197 8198 8195 8194 8195 
8202 8202 8205 8206 8204 8203 8210 8206 8208 8204 8209 8209 8211 8209 8196 8170 8166 8159 8157 8162 8194 8206 8206 8206 8205 8204 8186 8169 8158 8153 8152 8145 8149 8154 8152 8152 8155 8148 8137 8137 8144 8155 8162 8155 8169 8171 8158 8177 8167 8158 8148 8137 8135 8136 8145 8171 8185 8192 8194 8192 8190 8194 8193 8194 8195 8193 8195 8194 8195 8195 8196 8195 8196 8190 8199 8197 8200 8197 8193 8195 
8205 8204 8208 8206 8206 8206 8208 8209 8207 8205 8206 8207 8211 8209 8205 8192 8171 8163 8161 8162 8164 8194 8203 8207 8203 8202 8203 8171 8159 8162 8159 8145 8149 8149 8150 8152 8154 8151 8137 8129 8141 8152 8147 8144 8152 8157 8146 8157 8147 8150 8151 8142 8138 8139 8140 8154 8184 8192 8192 8191 8194 8193 8191 8191 8192 8194 8196 8194 8194 8196 8196 8195 8194 8192 8196 8195 8196 8195 8194 8195 
8208 8208 8206 8204 8209 8204 8209 8209 8206 8207 8204 8204 8212 8209 8207 8206 8193 8168 8166 8164 8164 8169 8195 8202 8202 8201 8198 8164 8151 8146 8146 8145 8147 8138 8125 8138 8149 8147 8142 8137 8145 8155 8148 8155 8158 8159 8163 8159 8139 8148 8149 8146 8140 8140 8135 8141 8183 8191 8193 8192 8192 8192 8190 8191 8190 8192 8191 8193 8194 8191 8192 8193 8192 8191 8194 8193 8197 8193 8193 8193 
8211 8207 8208 8208 8207 8207 8210 8208 8205 8207 8204 8206 8211 8209 8205 8208 8204 8195 8172 8170 8170 8169 8170 8199 8202 8198 8179 8158 8150 8148 8150 8146 8154 8152 8138 8141 8154 8157 8154 8146 8145 8147 8141 8146 8146 8143 8143 8138 8134 8140 8139 8139 8151 8138 8133 8137 8174 8191 8192 8187 8190 8188 8188 8188 8189 8189 8192 8191 8195 8194 8189 8191 8194 8190 8189 8194 8196 8192 8191 8194 
8208 8206 8208 8211 8208 8206 8209 8205 8204 8206 8203 8206 8209 8204 8205 8210 8206 8204 8199 8174 8172 8169 8168 8172 8196 8187 8161 8159 8165 8151 8154 8146 8150 8146 8141 8149 8146 8154 8155 8149 8146 8144 8143 8135 8138 8135 8138 8139 8131 8134 8148 8140 8141 8148 8163 8145 8161 8188 8187 8186 8188 8189 8185 8191 8186 8188 8187 8189 8192 8190 8189 8190 8190 8188 8193 8190 8192 8192 8190 8196 
8209 8205 8208 8211 8207 8209 8209 8207 8206 8208 8201 8205 8210 8209 8208 8214 8208 8207 8208 8196 8179 8173 8170 8166 8172 8181 8160 8166 8163 8148 8148 8145 8144 8146 8143 8137 8143 8135 8137 8141 8138 8141 8144 8146 8140 8131 8136 8143 8134 8136 8139 8136 8140 8162 8188 8176 8177 8188 8191 8188 8186 8188 8188 8188 8184 8185 8187 8186 8189 8190 8186 8188 8185 8185 8187 8189 8193 8191 8192 8199 
8209 8207 8209 8210 8210 8207 8209 8206 8206 8208 8204 8206 8212 8207 8216 8212 8213 8209 8209 8207 8199 8179 8176 8169 8169 8165 8160 8162 8158 8152 8151 8146 8141 8146 8143 8149 8152 8144 8144 8135 8141 8145 8149 8153 8139 8126 8141 8143 8144 8150 8143 8135 8137 8141 8172 8196 8187 8189 8188 8188 8187 8184 8181 8185 8182 8186 8185 8186 8188 8185 8184 8189 8185 8187 8189 8191 8191 8193 8189 8194 
8210 8205 8208 8208 8209 8207 8207 8205 8206 8206 8203 8208 8210 8209 8211 8210 8209 8208 8211 8208 8207 8197 8178 8176 8170 8164 8167 8162 8156 8155 8163 8152 8141 8137 8138 8148 8151 8145 8140 8133 8144 8144 8147 8148 8131 8126 8137 8134 8139 8140 8136 8147 8145 8143 8153 8193 8189 8188 8186 8184 8183 8182 8183 8183 8185 8183 8185 8182 8185 8184 8186 8183 8187 8186 8186 8190 8188 8190 8188 8192 
8206 8207 8206 8208 8210 8207 8207 8206 8209 8206 8201 8205 8207 8207 8210 8212 8210 8210 8212 8206 8210 8206 8200 8179 8177 8172 8167 8156 8155 8155 8168 8153 8144 8140 8142 8142 8145 8143 8139 8134 8145 8145 8144 8139 8131 8131 8140 8141 8138 8135 8139 8144 8148 8137 8149 8189 8189 8187 8189 8185 8183 8180 8180 8186 8184 8179 8182 8183 8183 8183 8187 8183 8184 8183 8187 8185 8191 8190 8186 8188 
8211 8208 8207 8207 8208 8204 8208 8211 8206 8203 8204 8206 8213 8212 8211 8213 8209 8212 8211 8211 8212 8210 8206 8203 8178 8169 8169 8166 8157 8154 8157 8153 8150 8138 8136 8146 8147 8148 8148 8139 8135 8136 8141 8140 8131 8129 8132 8143 8138 8134 8138 8141 8154 8153 8163 8184 8187 8188 8186 8184 8183 8185 8181 8182 8182 8180 8182 8183 8181 8181 8184 8182 8184 8184 8183 8186 8189 8188 8185 8186 
8211 8207 8208 8204 8207 8206 8209 8207 8204 8203 8203 8207 8212 8210 8210 8214 8211 8209 8213 8211 8210 8209 8209 8211 8194 8177 8171 8168 8164 8158 8151 8152 8153 8138 8137 8140 8135 8143 8152 8150 8154 8156 8141 8147 8143 8137 8135 8140 8143 8136 8136 8143 8156 8171 8192 8188 8189 8184 8185 8181 8183 8182 8180 8182 8180 8180 8180 8179 8182 8182 8183 8186 8185 8184 8187 8188 8190 8192 8183 8188 
8210 8205 8207 8203 8206 8205 8205 8207 8205 8203 8203 8207 8211 8210 8210 8212 8210 8213 8214 8212 8212 8210 8209 8217 8204 8197 8178 8167 8159 8151 8155 8149 8147 8144 8137 8138 8130 8133 8136 8158 8161 8147 8140 8141 8142 8136 8135 8141 8140 8131 8135 8142 8158 8167 8193 8190 8190 8187 8186 8181 8182 8186 8180 8181 8178 8178 8182 8179 8182 8185 8185 8183 8183 8182 8187 8189 8188 8187 8184 8183 
8207 8206 8209 8208 8209 8207 8207 8208 8205 8204 8204 8207 8211 8211 8209 8214 8212 8211 8213 8209 8210 8210 8208 8217 8210 8196 8167 8154 8156 8154 8148 8138 8142 8139 8137 8139 8138 8137 8146 8158 8155 8143 8139 8138 8136 8128 8133 8137 8138 8131 8135 8146 8158 8175 8198 8194 8188 8189 8187 8180 8182 8185 8181 8179 8179 8178 8180 8180 8184 8181 8181 8184 8185 8185 8185 8186 8187 8186 8186 8186 
8206 8205 8210 8212 8209 8206 8206 8207 8204 8207 8207 8209 8212 8210 8208 8211 8211 8210 8211 8211 8211 8210 8208 8214 8214 8202 8173 8156 8150 8147 8144 8143 8148 8146 8143 8148 8146 8143 8146 8154 8145 8143 8145 8142 8135 8138 8138 8128 8132 8128 8132 8139 8152 8171 8200 8196 8192 8188 8186 8182 8186 8188 8183 8182 8180 8179 8179 8181 8183 8184 8185 8185 8184 8184 8186 8188 8186 8186 8183 8185 
8206 8207 8211 8210 8209 8205 8206 8206 8205 8205 8207 8210 8213 8211 8207 8210 8210 8212 8211 8211 8213 8212 8210 8217 8217 8213 8186 8154 8153 8152 8151 8148 8147 8147 8147 8153 8149 8146 8145 8143 8142 8143 8140 8142 8137 8134 8138 8128 8126 8130 8128 8137 8155 8168 8193 8195 8190 8189 8187 8183 8185 8186 8182 8182 8181 8180 8181 8181 8182 8182 8187 8185 8185 8183 8184 8186 8188 8187 8182 8184 
8210 8209 8210 8210 8210 8207 8207 8210 8206 8206 8204 8209 8209 8210 8207 8209 8210 8207 8214 8211 8211 8211 8213 8213 8221 8215 8198 8160 8155 8151 8151 8150 8153 8153 8148 8147 8147 8147 8145 8139 8140 8141 8137 8139 8136 8142 8145 8128 8129 8130 8132 8139 8153 8186 8194 8194 8190 8189 8188 8185 8184 8185 8184 8183 8179 8180 8182 8179 8182 8187 8184 8183 8187 8182 8185 8186 8185 8186 8184 8187 
8210 8206 8211 8209 8211 8207 8208 8206 8205 8204 8204 8207 8211 8208 8204 8208 8206 8208 8213 8209 8209 8213 8211 8211 8221 8217 8211 8169 8160 8153 8153 8155 8156 8153 8152 8149 8146 8150 8146 8142 8141 8139 8142 8138 8133 8139 8136 8128 8128 8131 8142 8146 8156 8192 8195 8192 8189 8189 8185 8184 8188 8185 8183 8181 8180 8179 8181 8184 8183 8182 8183 8184 8184 8183 8184 8183 8186 8183 8181 8184 
8209 8205 8210 8210 8211 8207 8206 8204 8205 8206 8200 8204 8209 8209 8204 8210 8208 8206 8210 8208 8207 8209 8210 8209 8218 8215 8222 8183 8163 8157 8157 8161 8164 8160 8153 8146 8141 8145 8147 8144 8147 8147 8143 8141 8135 8135 8142 8140 8135 8145 8152 8153 8171 8196 8196 8188 8185 8185 8184 8183 8185 8187 8182 8184 8181 8180 8184 8181 8181 8181 8183 8183 8183 8183 8181 8184 8183 8178 8179 8179 
8209 8203 8207 8207 8210 8208 8206 8205 8208 8205 8203 8208 8213 8208 8202 8206 8206 8207 8212 8209 8208 8208 8209 8208 8211 8220 8233 8214 8178 8163 8163 8161 8167 8164 8154 8149 8142 8142 8148 8152 8147 8149 8147 8141 8142 8140 8148 8145 8152 8165 8153 8156 8191 8196 8193 8186 8185 8185 8186 8181 8182 8184 8181 8181 8182 8181 8183 8181 8179 8181 8181 8181 8184 8182 8180 8180 8181 8180 8176 8177 
8209 8203 8206 8208 8206 8205 8206 8205 8204 8203 8203 8205 8210 8207 8205 8206 8206 8208 8211 8206 8206 8208 8208 8208 8207 8216 8237 8244 8191 8176 8170 8167 8170 8166 8158 8157 8153 8144 8154 8160 8153 8149 8154 8149 8147 8147 8147 8150 8160 8161 8154 8173 8201 8197 8191 8188 8185 8187 8185 8183 8183 8184 8184 8183 8181 8179 8181 8180 8180 8180 8179 8183 8182 8181 8179 8179 8177 8175 8173 8173 
8208 8206 8207 8205 8207 8201 8206 8207 8203 8205 8201 8206 8209 8206 8204 8204 8208 8209 8210 8205 8208 8208 8207 8208 8207 8206 8234 8246 8225 8176 8161 8162 8172 8170 8167 8166 8167 8163 8157 8158 8160 8155 8154 8151 8150 8149 8166 8168 8160 8160 8175 8201 8202 8196 8189 8187 8186 8187 8184 8182 8183 8185 8182 8183 8181 8181 8181 8181 8178 8178 8181 8183 8180 8177 8176 8177 8180 8174 8172 8174 
8208 8207 8209 8205 8207 8204 8204 8207 8205 8203 8205 8208 8209 8210 8211 8209 8208 8209 8210 8210 8208 8211 8211 8209 8209 8203 8214 8239 8243 8211 8167 8163 8181 8179 8167 8172 8172 8167 8164 8164 8168 8165 8165 8163 8149 8152 8164 8167 8168 8168 8191 8202 8195 8188 8192 8186 8183 8183 8187 8182 8184 8186 8183 8184 8181 8182 8180 8179 8179 8178 8177 8178 8179 8173 8173 8171 8175 8173 8169 8169 
8205 8207 8207 8204 8203 8204 8205 8204 8200 8205 8206 8205 8205 8208 8205 8212 8211 8208 8211 8209 8211 8207 8208 8211 8206 8204 8208 8213 8235 8242 8212 8183 8181 8173 8168 8170 8172 8168 8164 8166 8172 8168 8165 8165 8155 8155 8164 8161 8176 8197 8197 8190 8186 8190 8189 8187 8183 8184 8181 8184 8185 8184 8185 8180 8178 8180 8177 8177 8179 8178 8176 8178 8177 8172 8170 8170 8169 8165 8166 8166 
8210 8204 8206 8208 8204 8205 8201 8204 8201 8206 8207 8206 8206 8207 8205 8209 8204 8209 8212 8212 8211 8209 8210 8208 8207 8204 8208 8208 8211 8231 8237 8220 8188 8181 8176 8177 8172 8166 8168 8171 8170 8167 8163 8162 8160 8159 8169 8183 8207 8202 8189 8183 8188 8190 8190 8187 8187 8182 8185 8184 8184 8186 8182 8183 8177 8177 8178 8175 8175 8177 8174 8175 8173 8168 8169 8166 8169 8167 8164 8169 
8208 8205 8207 8203 8203 8205 8203 8206 8204 8202 8205 8203 8204 8206 8205 8209 8206 8210 8210 8208 8214 8209 8208 8209 8210 8206 8210 8213 8206 8200 8217 8229 8232 8211 8189 8183 8178 8171 8169 8166 8165 8166 8168 8168 8169 8178 8204 8206 8198 8185 8181 8187 8189 8191 8190 8187 8185 8185 8185 8186 8183 8187 8183 8179 8178 8177 8174 8174 8174 8177 8178 8174 8171 8167 8167 8167 8169 8164 8166 8168 
8208 8207 8207 8204 8205 8201 8201 8200 8200 8202 8203 8205 8205 8202 8205 8208 8207 8207 8209 8208 8212 8211 8210 8213 8210 8206 8209 8213 8209 8203 8193 8200 8223 8234 8233 8223 8206 8192 8185 8184 8179 8183 8191 8202 8206 8209 8202 8189 8185 8181 8185 8189 8192 8193 8192 8191 8184 8184 8183 8180 8185 8183 8178 8180 8176 8178 8174 8173 8174 8173 8171 8170 8169 8166 8163 8164 8165 8166 8162 8166 
8209 8204 8207 8203 8206 8200 8199 8200 8202 8201 8195 8208 8204 8202 8202 8206 8205 8204 8207 8205 8208 8208 8212 8213 8212 8203 8210 8211 8212 8210 8199 8193 8194 8197 8208 8223 8229 8227 8227 8221 8225 8223 8217 8212 8200 8186 8184 8183 8187 8188 8189 8189 8191 8191 8190 8188 8185 8185 8184 8181 8181 8180 8179 8181 8178 8175 8175 8174 8174 8173 8170 8170 8170 8164 8165 8164 8166 8159 8160 8160 
8200 8204 8204 8202 8203 8203 8200 8201 8199 8198 8202 8201 8203 8201 8198 8206 8202 8203 8206 8203 8207 8208 8208 8214 8210 8207 8212 8213 8215 8212 8212 8200 8195 8191 8188 8196 8199 8197 8207 8207 8201 8190 8191 8186 8184 8185 8185 8187 8192 8193 8192 8189 8192 8190 8189 8189 8185 8186 8184 8181 8179 8180 8180 8177 8174 8173 8171 8173 8171 8171 8168 8169 8166 8164 8162 8162 8164 8159 8159 8159 
8210 8203 8205 8205 8201 8199 8199 8202 8200 8194 8198 8198 8202 8201 8199 8204 8202 8202 8205 8204 8207 8208 8208 8210 8210 8207 8214 8213 8217 8215 8215 8207 8205 8200 8192 8193 8192 8189 8190 8183 8187 8186 8189 8187 8191 8188 8193 8193 8193 8194 8195 8193 8195 8191 8187 8187 8184 8184 8184 8181 8181 8181 8178 8176 8174 8170 8171 8166 8170 8172 8169 8169 8166 8161 8160 8161 8159 8158 8155 8158 
8213 8207 8208 8207 8204 8202 8201 8200 8196 8199 8198 8197 8203 8200 8200 8203 8202 8201 8205 8204 8206 8207 8209 8208 8209 8208 8213 8217 8219 8217 8220 8214 8211 8205 8202 8204 8202 8196 8198 8198 8192 8195 8198 8197 8196 8191 8197 8197 8196 8198 8198 8198 8194 8192 8186 8187 8185 8186 8182 8182 8183 8182 8177 8176 8170 8171 8171 8171 8171 8169 8171 8170 8166 8162 8162 8157 8161 8157 8155 8158 
8210 8208 8208 8206 8206 8200 8198 8199 8199 8197 8196 8199 8201 8204 8198 8204 8204 8202 8206 8203 8204 8205 8207 8209 8208 8206 8213 8216 8221 8218 8220 8218 8215 8213 8209 8206 8206 8202 8204 8202 8203 8200 8203 8198 8198 8195 8198 8198 8198 8203 8201 8198 8195 8190 8191 8188 8183 8185 8184 8183 8182 8184 8177 8174 8171 8168 8172 8167 8170 8167 8167 8170 8166 8163 8161 8158 8160 8156 8155 8158 
8213 8209 8208 8208 8207 8200 8201 8197 8200 8199 8199 8196 8200 8202 8199 8204 8202 8206 8203 8201 8207 8206 8205 8206 8208 8203 8212 8216 8219 8220 8222 8222 8220 8218 8212 8209 8211 8203 8207 8205 8208 8201 8202 8198 8199 8199 8201 8201 8203 8202 8202 8199 8200 8192 8193 8193 8186 8186 8184 8184 8181 8181 8177 8178 8171 8171 8168 8165 8167 8170 8168 8166 8163 8160 8160 8157 8157 8153 8151 8156 
8212 8210 8208 8207 8204 8200 8200 8197 8197 8196 8197 8196 8200 8200 8195 8199 8202 8203 8202 8202 8205 8204 8204 8209 8207 8204 8210 8213 8219 8220 8220 8216 8219 8217 8213 8213 8210 8207 8207 8207 8207 8206 8204 8204 8203 8201 8203 8203 8205 8205 8200 8198 8196 8191 8192 8186 8186 8187 8185 8182 8179 8185 8180 8177 8170 8168 8166 8164 8164 8171 8166 8168 8166 8158 8157 8157 8156 8153 8151 8155 
8219 8206 8207 8206 8203 8202 8202 8201 8197 8197 8192 8196 8204 8198 8198 8197 8202 8196 8198 8197 8203 8202 8206 8208 8206 8203 8216 8218 8219 8218 8217 8214 8217 8216 8213 8212 8212 8211 8209 8210 8209 8209 8204 8208 8206 8203 8205 8203 8205 8202 8200 8197 8196 8192 8193 8192 8185 8185 8182 8182 8180 8182 8181 8174 8167 8165 8166 8162 8164 8164 8167 8164 8164 8156 8158 8156 8157 8153 8153 8153 


