P2
80 60
8271
8175 8181 8185 8189 8194 8193 8194 8194 8198 8205 8204 8202 8206 8206 8210 8209 8209 8200 8197 8203 8211 8213 8210 8209 8201 8195 8194 8194 8192 8191 8184 8180 8177 8173 8171 8166 8164 8160 8175 8215 8235 8237 8239 8239 8238 8243 8249 8244 8249 8246 8246 8244 8240 8237 8236 8232 8232 8230 8234 8233 8235 8238 8241 8244 8246 8244 8249 8250 8252 8254 8258 8263 8263 8265 8266 8261 8257 8258 8251 8250 
8170 8178 8180 8182 8183 8185 8191 8191 8191 8190 8195 8198 8202 8203 8205 8208 8205 8205 8202 8204 8208 8208 8210 8208 8203 8201 8200 8196 8191 8191 8181 8180 8176 8174 8171 8164 8163 8160 8172 8215 8230 8238 8236 8241 8243 8242 8246 8245 8247 8245 8247 8244 8237 8232 8233 8231 8233 8229 8234 8235 8239 8240 8241 8243 8245 8244 8246 8252 8252 8253 8256 8261 8260 8261 8267 8260 8258 8255 8245 8244 
8163 8164 8168 8166 8170 8173 8178 8179 8183 8185 8185 8190 8192 8194 8194 8198 8199 8194 8195 8197 8202 8207 8210 8211 8208 8203 8198 8195 8198 8194 8192 8192 8188 8187 8190 8182 8179 8178 8185 8224 8236 8237 8238 8242 8241 8244 8247 8245 8249 8248 8248 8244 8242 8237 8235 8235 8232 8231 8235 8236 8237 8240 8241 8243 8241 8244 8245 8250 8252 8253 8254 8258 8260 8261 8265 8260 8256 8254 8245 8241 
8151 8156 8167 8168 8178 8173 8178 8178 8184 8186 8186 8190 8194 8197 8202 8205 8203 8208 8209 8212 8216 8217 8223 8228 8226 8225 8227 8230 8233 8233 8234 8237 8240 8241 8245 8238 8240 8239 8238 8242 8250 8248 8245 8246 8246 8250 8251 8249 8252 8248 8252 8244 8242 8237 8233 8233 8235 8231 8232 8236 8237 8239 8236 8239 8239 8236 8239 8244 8245 8250 8252 8253 8258 8260 8256 8253 8252 8245 8237 8235 
8142 8154 8188 8201 8206 8203 8205 8200 8206 8205 8206 8205 8208 8211 8206 8211 8213 8213 8217 8224 8224 8224 8230 8234 8237 8237 8240 8244 8241 8244 8243 8245 8248 8251 8257 8253 8253 8251 8255 8253 8257 8252 8253 8249 8250 8252 8252 8252 8258 8254 8256 8252 8246 8243 8238 8238 8237 8237 8238 8236 8236 8236 8235 8234 8233 8232 8234 8235 8240 8238 8241 8238 8242 8242 8244 8239 8238 8237 8230 8230 
8143 8162 8200 8215 8218 8216 8219 8215 8215 8209 8211 8211 8214 8215 8214 8212 8215 8216 8219 8223 8227 8227 8231 8236 8237 8232 8238 8244 8245 8249 8249 8251 8255 8255 8258 8259 8257 8258 8259 8255 8260 8256 8256 8251 8251 8253 8256 8250 8259 8252 8255 8253 8247 8245 8240 8241 8238 8239 8239 8241 8240 8238 8233 8231 8232 8232 8232 8235 8236 8235 8239 8239 8241 8236 8230 8224 8228 8227 8224 8225 
8144 8182 8214 8218 8216 8213 8222 8222 8215 8210 8212 8217 8219 8217 8216 8218 8215 8220 8222 8226 8227 8229 8233 8241 8236 8238 8242 8243 8246 8248 8248 8250 8257 8258 8258 8258 8257 8257 8261 8259 8261 8258 8259 8256 8255 8254 8261 8255 8261 8253 8257 8251 8250 8247 8242 8243 8241 8241 8240 8241 8241 8239 8234 8233 8234 8232 8236 8232 8234 8235 8236 8239 8237 8234 8235 8226 8224 8225 8219 8215 
8147 8193 8214 8217 8219 8221 8224 8221 8218 8216 8219 8223 8223 8223 8220 8221 8221 8222 8226 8231 8235 8233 8234 8240 8237 8238 8240 8245 8244 8248 8251 8256 8255 8254 8259 8259 8256 8258 8258 8257 8260 8258 8260 8257 8255 8255 8257 8254 8259 8251 8252 8253 8249 8244 8243 8242 8243 8241 8242 8245 8242 8238 8235 8233 8233 8230 8235 8235 8236 8234 8239 8238 8236 8233 8231 8230 8225 8219 8219 8220 
8154 8202 8213 8217 8221 8219 8222 8222 8225 8216 8222 8222 8225 8225 8223 8221 8221 8224 8229 8233 8236 8238 8238 8240 8235 8241 8242 8245 8244 8247 8250 8255 8255 8257 8257 8257 8258 8260 8260 8259 8259 8256 8258 8255 8254 8255 8257 8253 8256 8252 8253 8252 8248 8249 8243 8242 8242 8241 8244 8241 8242 8239 8234 8232 8230 8232 8234 8235 8233 8236 8238 8235 8236 8234 8233 8227 8224 8217 8218 8216 
8179 8208 8214 8219 8221 8223 8222 8223 8226 8223 8221 8221 8223 8223 8225 8225 8226 8228 8230 8235 8238 8237 8238 8241 8238 8239 8242 8246 8246 8248 8249 8254 8256 8257 8254 8256 8259 8261 8262 8261 8263 8258 8261 8255 8253 8255 8254 8254 8253 8253 8251 8254 8249 8248 8243 8244 8245 8244 8242 8243 8241 8240 8237 8235 8230 8234 8233 8235 8234 8234 8238 8237 8236 8235 8233 8230 8226 8219 8216 8215 
8192 8213 8215 8220 8221 8221 8223 8223 8226 8222 8222 8220 8222 8221 8223 8224 8222 8224 8230 8234 8236 8240 8238 8243 8240 8239 8243 8249 8248 8254 8249 8254 8254 8257 8256 8256 8257 8259 8258 8256 8258 8257 8258 8252 8254 8255 8255 8251 8254 8255 8254 8252 8249 8248 8244 8243 8242 8245 8242 8243 8240 8240 8237 8233 8233 8233 8231 8235 8233 8235 8236 8235 8233 8233 8226 8227 8222 8223 8216 8217 
8201 8220 8219 8220 8222 8220 8222 8221 8222 8224 8223 8223 8224 8223 8223 8226 8227 8227 8230 8234 8242 8239 8245 8243 8240 8243 8246 8249 8248 8255 8250 8251 8254 8257 8259 8256 8256 8256 8260 8256 8260 8257 8257 8252 8254 8257 8254 8252 8258 8256 8254 8253 8253 8247 8243 8244 8242 8243 8244 8242 8242 8237 8235 8234 8234 8233 8234 8235 8237 8236 8237 8232 8229 8228 8227 8223 8223 8225 8216 8213 
8215 8225 8223 8219 8220 8220 8223 8223 8222 8222 8224 8221 8227 8226 8224 8225 8227 8228 8232 8235 8240 8239 8243 8241 8242 8239 8246 8249 8249 8252 8250 8251 8251 8255 8256 8255 8255 8257 8257 8256 8257 8248 8247 8240 8242 8245 8249 8247 8249 8252 8252 8255 8251 8249 8243 8248 8247 8244 8243 8242 8240 8239 8237 8234 8234 8235 8234 8233 8235 8238 8234 8232 8231 8226 8225 8223 8222 8224 8216 8213 
8228 8231 8225 8222 8225 8222 8225 8222 8224 8226 8228 8228 8229 8227 8228 8230 8230 8233 8234 8239 8240 8244 8241 8242 8244 8244 8247 8248 8247 8255 8252 8254 8252 8257 8258 8259 8257 8259 8261 8253 8248 8218 8189 8162 8163 8190 8216 8216 8222 8237 8245 8252 8252 8249 8244 8246 8247 8244 8243 8241 8243 8238 8237 8234 8238 8237 8236 8240 8237 8233 8233 8231 8230 8227 8225 8221 8220 8223 8220 8215 
8231 8229 8226 8228 8228 8229 8228 8229 8226 8229 8230 8228 8232 8232 8229 8232 8233 8235 8235 8238 8241 8242 8244 8243 8246 8242 8248 8251 8251 8252 8251 8252 8254 8254 8257 8257 8256 8258 8259 8256 8247 8171 8137 8131 8130 8134 8144 8140 8141 8155 8205 8239 8248 8247 8248 8248 8246 8248 8247 8245 8242 8240 8238 8237 8238 8238 8240 8239 8239 8235 8235 8228 8229 8225 8224 8224 8223 8223 8219 8218 
8231 8229 8227 8233 8232 8225 8230 8233 8232 8232 8235 8234 8233 8234 8234 8236 8236 8240 8241 8242 8243 8244 8247 8246 8248 8249 8251 8251 8255 8256 8259 8259 8259 8264 8257 8264 8261 8260 8258 8254 8248 8221 8157 8131 8140 8138 8152 8168 8141 8134 8137 8173 8231 8246 8247 8246 8246 8246 8247 8242 8244 8240 8239 8240 8239 8240 8242 8243 8239 8236 8236 8232 8230 8225 8226 8225 8225 8225 8222 8221 
8235 8237 8235 8236 8235 8233 8233 8230 8235 8235 8232 8233 8235 8234 8235 8236 8235 8239 8244 8242 8247 8247 8251 8251 8251 8254 8254 8262 8259 8261 8263 8262 8262 8262 8264 8264 8260 8259 8240 8211 8182 8157 8146 8143 8176 8179 8177 8177 8151 8131 8133 8143 8212 8241 8247 8248 8247 8246 8247 8245 8245 8243 8241 8241 8240 8239 8242 8241 8237 8238 8235 8232 8230 8227 8229 8226 8224 8227 8221 8224 
8237 8242 8239 8240 8241 8244 8244 8242 8237 8234 8236 8237 8236 8234 8234 8235 8238 8240 8244 8245 8249 8251 8256 8258 8257 8256 8263 8264 8264 8265 8267 8267 8266 8266 8264 8262 8264 8250 8178 8146 8138 8136 8134 8134 8157 8169 8179 8205 8173 8151 8156 8185 8236 8239 8246 8245 8246 8245 8247 8246 8243 8246 8241 8241 8239 8239 8241 8242 8237 8236 8232 8230 8229 8230 8232 8228 8226 8226 8225 8229 
8240 8243 8243 8244 8244 8244 8248 8247 8244 8238 8238 8235 8236 8236 8239 8238 8238 8241 8242 8245 8251 8256 8257 8256 8260 8261 8260 8265 8267 8264 8264 8263 8265 8268 8266 8265 8261 8259 8241 8194 8155 8140 8135 8132 8144 8167 8189 8177 8149 8147 8171 8198 8234 8240 8243 8244 8247 8244 8246 8247 8243 8243 8245 8242 8238 8238 8237 8238 8236 8235 8236 8230 8231 8231 8232 8227 8228 8227 8226 8226 
8246 8248 8243 8242 8244 8245 8247 8247 8245 8244 8244 8238 8238 8239 8236 8240 8240 8242 8245 8245 8252 8250 8253 8259 8254 8255 8259 8258 8271 8258 8268 8264 8269 8269 8266 8268 8265 8262 8260 8250 8227 8191 8144 8168 8191 8180 8172 8150 8134 8137 8135 8141 8170 8221 8238 8242 8245 8242 8245 8244 8242 8241 8241 8238 8239 8237 8239 8237 8234 8233 8232 8229 8228 8228 8229 8229 8230 8229 8226 8227 
8246 8249 8243 8238 8242 8241 8240 8249 8245 8245 8245 8243 8240 8240 8240 8242 8242 8242 8242 8245 8245 8250 8253 8256 8255 8261 8257 8256 8267 8258 8262 8259 8261 8266 8264 8263 8261 8259 8259 8249 8219 8171 8147 8172 8218 8172 8205 8151 8136 8135 8134 8132 8133 8156 8213 8242 8245 8243 8244 8241 8242 8241 8242 8240 8241 8239 8237 8237 8234 8232 8231 8229 8226 8226 8231 8229 8232 8231 8228 8230 
8239 8248 8241 8241 8239 8237 8233 8239 8236 8246 8245 8244 8244 8241 8239 8241 8241 8241 8238 8242 8242 8250 8253 8257 8253 8253 8254 8254 8261 8255 8263 8257 8262 8265 8261 8260 8255 8256 8257 8244 8184 8143 8140 8140 8173 8169 8190 8184 8149 8138 8147 8148 8152 8181 8217 8245 8244 8242 8244 8243 8242 8243 8244 8243 8239 8238 8236 8237 8234 8229 8230 8228 8225 8227 8229 8226 8231 8232 8229 8230 
8235 8245 8238 8236 8236 8234 8229 8232 8232 8242 8247 8243 8243 8243 8244 8240 8240 8241 8240 8243 8246 8250 8253 8253 8252 8251 8254 8254 8265 8253 8259 8260 8260 8258 8255 8244 8237 8242 8245 8241 8235 8224 8197 8174 8158 8160 8160 8155 8145 8177 8221 8200 8231 8238 8242 8245 8245 8244 8243 8240 8243 8246 8248 8244 8244 8239 8238 8237 8233 8229 8227 8227 8227 8227 8230 8228 8228 8230 8232 8231 
8233 8241 8234 8233 8235 8234 8229 8228 8237 8242 8245 8243 8245 8245 8242 8242 8240 8238 8239 8238 8244 8246 8254 8253 8251 8254 8254 8254 8257 8254 8255 8254 8255 8252 8215 8161 8145 8151 8167 8157 8155 8201 8241 8223 8149 8139 8170 8150 8175 8216 8233 8240 8244 8245 8244 8245 8246 8242 8243 8242 8244 8246 8246 8245 8245 8244 8241 8236 8234 8231 8228 8227 8225 8226 8228 8225 8232 8230 8230 8229 
8229 8233 8233 8232 8234 8229 8233 8231 8235 8242 8242 8242 8245 8244 8242 8243 8243 8240 8239 8238 8242 8244 8248 8249 8249 8247 8253 8253 8260 8258 8259 8251 8238 8186 8193 8157 8136 8136 8138 8139 8140 8180 8233 8219 8140 8127 8135 8146 8143 8151 8192 8236 8242 8244 8243 8247 8244 8242 8242 8242 8243 8245 8249 8252 8249 8249 8248 8244 8238 8235 8231 8227 8228 8225 8227 8225 8229 8230 8229 8232 
8230 8231 8231 8230 8232 8230 8234 8235 8235 8239 8238 8242 8245 8242 8242 8245 8242 8237 8227 8219 8227 8233 8242 8249 8251 8249 8253 8254 8257 8250 8250 8241 8171 8150 8169 8175 8162 8134 8135 8138 8140 8150 8215 8204 8147 8130 8144 8158 8137 8137 8145 8190 8235 8242 8244 8247 8243 8244 8246 8242 8247 8248 8249 8250 8251 8247 8248 8248 8244 8241 8238 8233 8229 8225 8229 8228 8230 8231 8228 8231 
8230 8233 8229 8235 8233 8236 8240 8237 8235 8240 8240 8242 8247 8243 8242 8247 8244 8242 8215 8152 8154 8166 8208 8242 8246 8245 8251 8252 8262 8251 8241 8176 8142 8137 8156 8188 8179 8158 8137 8141 8146 8162 8216 8156 8180 8149 8209 8194 8140 8132 8140 8199 8239 8243 8244 8246 8244 8245 8247 8245 8247 8247 8250 8249 8250 8249 8249 8246 8242 8241 8243 8238 8232 8226 8228 8230 8230 8231 8227 8231 
8230 8232 8233 8236 8240 8237 8240 8240 8239 8241 8243 8243 8247 8244 8241 8243 8240 8239 8226 8156 8144 8147 8183 8239 8248 8249 8252 8255 8253 8238 8178 8140 8139 8139 8143 8147 8154 8142 8141 8138 8143 8189 8180 8152 8221 8213 8205 8215 8159 8129 8130 8175 8235 8242 8245 8245 8243 8245 8248 8245 8246 8247 8252 8251 8249 8249 8248 8247 8243 8243 8245 8244 8241 8238 8236 8231 8231 8233 8230 8233 
8227 8232 8237 8237 8238 8240 8241 8244 8240 8243 8244 8247 8244 8243 8240 8241 8241 8239 8232 8181 8147 8147 8163 8234 8248 8248 8250 8242 8219 8179 8147 8140 8153 8172 8140 8132 8131 8135 8136 8146 8154 8155 8160 8158 8224 8177 8141 8169 8152 8134 8130 8144 8228 8240 8243 8246 8242 8245 8248 8244 8246 8248 8250 8248 8248 8248 8246 8243 8243 8243 8245 8246 8244 8243 8245 8237 8238 8236 8236 8239 
8230 8234 8236 8240 8243 8241 8244 8240 8241 8244 8245 8245 8245 8243 8242 8242 8242 8242 8237 8208 8148 8144 8156 8221 8244 8243 8226 8197 8191 8169 8163 8165 8183 8160 8138 8133 8133 8171 8147 8156 8176 8158 8141 8157 8176 8139 8126 8131 8139 8134 8130 8138 8225 8239 8242 8244 8245 8246 8246 8245 8245 8249 8248 8250 8253 8251 8247 8245 8243 8245 8246 8246 8245 8245 8244 8245 8243 8244 8240 8242 
8229 8240 8240 8240 8242 8240 8241 8244 8241 8241 8242 8240 8242 8243 8244 8244 8243 8241 8235 8223 8164 8149 8154 8199 8236 8213 8192 8191 8189 8189 8185 8177 8166 8145 8131 8133 8141 8164 8134 8133 8159 8153 8132 8150 8143 8121 8122 8127 8141 8139 8133 8140 8216 8235 8239 8240 8243 8245 8245 8244 8242 8246 8248 8247 8249 8248 8249 8244 8244 8244 8249 8248 8246 8246 8249 8245 8247 8245 8245 8249 
8237 8242 8242 8242 8243 8243 8244 8244 8245 8239 8240 8239 8241 8243 8243 8243 8241 8241 8238 8227 8191 8149 8152 8176 8197 8183 8195 8195 8185 8182 8174 8149 8142 8140 8134 8132 8130 8136 8139 8131 8131 8137 8127 8126 8128 8125 8124 8141 8178 8150 8141 8156 8194 8194 8207 8231 8236 8241 8243 8243 8244 8247 8248 8249 8249 8249 8248 8247 8243 8249 8248 8250 8244 8248 8247 8246 8247 8249 8247 8247 
8241 8247 8247 8244 8244 8243 8242 8244 8244 8241 8241 8240 8241 8242 8239 8243 8246 8241 8239 8232 8210 8155 8154 8160 8177 8188 8202 8193 8176 8173 8156 8134 8132 8134 8136 8130 8126 8130 8132 8133 8130 8131 8124 8123 8129 8127 8136 8169 8188 8211 8186 8208 8172 8148 8150 8199 8236 8240 8241 8244 8243 8245 8248 8247 8251 8247 8247 8248 8247 8247 8249 8248 8248 8245 8248 8247 8248 8248 8250 8246 
8247 8252 8248 8245 8248 8246 8242 8245 8246 8242 8244 8244 8242 8243 8240 8241 8244 8243 8241 8239 8231 8171 8156 8160 8174 8189 8192 8192 8174 8171 8143 8134 8129 8133 8131 8132 8126 8129 8126 8130 8130 8131 8127 8122 8126 8127 8136 8146 8157 8165 8148 8172 8156 8140 8139 8187 8232 8239 8243 8244 8245 8246 8247 8245 8249 8245 8246 8247 8244 8249 8247 8248 8247 8245 8246 8246 8246 8248 8250 8249 
8247 8252 8251 8248 8249 8248 8246 8244 8245 8243 8245 8242 8242 8243 8243 8241 8243 8242 8241 8237 8233 8192 8157 8155 8168 8183 8181 8170 8155 8139 8131 8127 8129 8132 8132 8134 8131 8127 8128 8126 8128 8133 8129 8127 8128 8122 8125 8126 8136 8141 8130 8146 8139 8144 8142 8170 8231 8240 8243 8244 8246 8247 8248 8248 8247 8247 8247 8245 8245 8250 8248 8244 8245 8243 8246 8247 8246 8246 8242 8243 
8255 8256 8252 8251 8251 8246 8249 8251 8247 8244 8244 8242 8245 8243 8242 8244 8242 8243 8243 8240 8239 8196 8153 8154 8157 8165 8148 8140 8132 8132 8126 8126 8131 8135 8132 8130 8134 8128 8128 8129 8129 8136 8136 8134 8135 8125 8123 8128 8126 8130 8130 8131 8134 8161 8181 8185 8232 8241 8243 8243 8242 8245 8245 8245 8247 8248 8245 8249 8245 8243 8246 8247 8243 8244 8246 8248 8247 8247 8243 8243 
8253 8257 8253 8249 8249 8248 8249 8249 8245 8243 8243 8243 8242 8243 8240 8244 8245 8240 8242 8238 8231 8177 8156 8157 8154 8154 8136 8134 8129 8125 8130 8130 8129 8134 8134 8135 8132 8128 8127 8130 8126 8132 8144 8140 8133 8123 8128 8124 8129 8127 8128 8130 8131 8151 8216 8226 8232 8238 8240 8244 8241 8243 8244 8245 8243 8246 8245 8246 8244 8244 8249 8246 8247 8246 8245 8244 8247 8246 8245 8242 
8253 8259 8255 8251 8252 8253 8248 8252 8247 8245 8246 8248 8244 8243 8246 8240 8241 8241 8243 8236 8214 8170 8163 8154 8153 8151 8140 8139 8137 8131 8131 8129 8131 8130 8131 8131 8129 8129 8127 8127 8124 8143 8142 8136 8132 8126 8125 8122 8126 8127 8124 8130 8132 8146 8222 8234 8238 8237 8242 8240 8241 8242 8246 8244 8245 8244 8243 8248 8241 8241 8246 8247 8245 8246 8248 8250 8248 8246 8241 8240 
8255 8259 8254 8251 8250 8252 8251 8249 8241 8244 8247 8243 8244 8243 8240 8240 8239 8242 8240 8233 8198 8174 8178 8170 8152 8143 8131 8137 8142 8139 8143 8141 8133 8123 8125 8124 8123 8126 8127 8127 8129 8134 8136 8132 8131 8126 8126 8123 8122 8125 8126 8131 8130 8159 8226 8237 8236 8239 8239 8239 8241 8243 8243 8246 8246 8245 8247 8246 8247 8246 8244 8242 8247 8246 8247 8246 8245 8244 8239 8239 
8256 8258 8256 8254 8255 8254 8251 8246 8245 8243 8246 8244 8242 8242 8239 8235 8238 8238 8238 8229 8186 8175 8185 8173 8156 8143 8133 8138 8137 8135 8140 8140 8129 8120 8122 8128 8126 8127 8125 8126 8129 8133 8132 8127 8127 8126 8123 8124 8128 8131 8130 8135 8136 8172 8230 8236 8235 8236 8238 8237 8238 8243 8242 8245 8245 8247 8247 8248 8245 8246 8243 8243 8246 8245 8248 8248 8247 8245 8239 8240 
8254 8258 8257 8253 8253 8254 8249 8248 8246 8245 8245 8244 8242 8242 8239 8235 8237 8237 8237 8222 8187 8176 8183 8171 8162 8150 8142 8139 8134 8133 8142 8146 8141 8125 8125 8125 8126 8125 8124 8121 8127 8127 8130 8127 8128 8122 8122 8126 8143 8148 8148 8152 8153 8211 8233 8234 8236 8235 8238 8239 8241 8246 8243 8245 8246 8245 8245 8244 8243 8242 8243 8246 8244 8247 8246 8248 8244 8243 8239 8236 
8252 8253 8256 8249 8250 8248 8248 8245 8246 8246 8247 8244 8243 8242 8240 8237 8237 8237 8238 8223 8187 8178 8173 8162 8164 8154 8141 8141 8135 8134 8143 8148 8147 8139 8127 8123 8126 8121 8122 8123 8126 8128 8128 8127 8126 8126 8125 8133 8149 8153 8155 8165 8194 8226 8232 8236 8237 8237 8236 8241 8240 8242 8244 8246 8245 8248 8244 8244 8244 8244 8247 8247 8244 8241 8246 8248 8243 8244 8237 8237 
8249 8258 8256 8249 8247 8247 8245 8248 8247 8249 8247 8245 8244 8244 8238 8236 8238 8241 8237 8222 8187 8178 8173 8155 8155 8153 8145 8137 8133 8135 8142 8144 8146 8133 8138 8128 8127 8120 8122 8122 8120 8124 8122 8123 8127 8127 8123 8132 8156 8162 8157 8166 8201 8229 8236 8236 8234 8238 8238 8239 8239 8242 8248 8248 8246 8246 8245 8243 8243 8245 8245 8243 8243 8245 8246 8245 8244 8242 8237 8233 
8252 8259 8254 8250 8251 8251 8247 8250 8248 8247 8250 8246 8247 8246 8243 8238 8237 8237 8234 8224 8188 8181 8171 8149 8152 8151 8146 8142 8136 8140 8143 8135 8135 8133 8140 8135 8140 8135 8120 8123 8125 8124 8126 8126 8132 8131 8132 8132 8151 8161 8148 8162 8204 8230 8234 8236 8236 8235 8237 8240 8242 8243 8246 8246 8250 8245 8247 8247 8244 8244 8246 8246 8245 8246 8250 8247 8245 8246 8237 8235 
8251 8255 8251 8247 8248 8247 8245 8247 8246 8245 8245 8244 8245 8242 8242 8242 8241 8241 8236 8226 8195 8190 8177 8158 8157 8152 8151 8143 8143 8145 8144 8130 8136 8139 8146 8148 8147 8133 8124 8122 8121 8123 8126 8133 8143 8134 8134 8137 8149 8158 8151 8164 8209 8232 8237 8238 8238 8235 8240 8238 8242 8242 8244 8244 8246 8243 8246 8245 8245 8243 8246 8245 8245 8245 8248 8247 8242 8243 8234 8238 
8253 8258 8254 8250 8249 8249 8245 8246 8243 8245 8246 8243 8245 8246 8246 8244 8243 8240 8235 8231 8211 8203 8193 8168 8158 8155 8151 8155 8156 8148 8140 8139 8144 8148 8159 8155 8146 8139 8125 8123 8124 8123 8129 8151 8156 8145 8148 8152 8160 8163 8162 8175 8220 8234 8234 8238 8236 8236 8240 8238 8241 8241 8242 8243 8244 8245 8244 8244 8242 8245 8248 8246 8244 8241 8245 8243 8243 8244 8237 8237 
8255 8258 8251 8251 8252 8250 8251 8248 8246 8246 8245 8247 8245 8247 8245 8246 8245 8242 8238 8234 8216 8203 8204 8182 8161 8157 8156 8161 8166 8158 8154 8152 8155 8166 8165 8157 8146 8129 8123 8120 8121 8123 8128 8148 8164 8155 8153 8155 8156 8161 8164 8188 8229 8232 8235 8236 8236 8239 8238 8240 8241 8236 8240 8241 8242 8242 8247 8244 8241 8244 8244 8244 8244 8243 8245 8243 8244 8241 8237 8234 
8254 8259 8254 8251 8253 8251 8248 8250 8247 8249 8249 8245 8244 8244 8243 8246 8242 8241 8242 8236 8233 8209 8194 8197 8174 8168 8170 8173 8180 8182 8176 8173 8171 8172 8165 8160 8153 8139 8123 8121 8127 8130 8152 8168 8175 8172 8158 8157 8153 8165 8173 8207 8235 8234 8235 8232 8237 8238 8239 8239 8239 8238 8241 8242 8239 8243 8246 8245 8244 8246 8244 8247 8245 8243 8247 8241 8240 8241 8234 8235 
8253 8256 8253 8251 8251 8253 8250 8251 8251 8248 8245 8247 8243 8242 8242 8244 8243 8242 8239 8240 8236 8223 8199 8200 8188 8177 8178 8180 8183 8183 8188 8176 8177 8166 8163 8162 8159 8135 8124 8121 8134 8140 8167 8177 8179 8176 8167 8162 8154 8164 8183 8225 8235 8233 8235 8234 8233 8238 8235 8235 8235 8236 8239 8238 8235 8239 8240 8238 8243 8247 8242 8248 8240 8241 8240 8237 8238 8238 8229 8229 
8253 8252 8253 8253 8249 8252 8253 8251 8249 8248 8250 8247 8246 8246 8241 8242 8240 8240 8242 8240 8239 8236 8220 8203 8193 8186 8186 8185 8180 8183 8185 8172 8176 8168 8162 8159 8160 8134 8131 8140 8151 8163 8172 8177 8176 8172 8165 8162 8156 8168 8203 8237 8236 8235 8236 8235 8236 8236 8233 8235 8233 8236 8237 8237 8235 8236 8237 8237 8240 8242 8243 8237 8238 8239 8239 8233 8233 8236 8231 8229 
8252 8252 8250 8250 8252 8253 8254 8249 8249 8245 8246 8245 8247 8245 8244 8244 8243 8240 8242 8243 8242 8242 8236 8220 8197 8189 8186 8185 8183 8183 8181 8177 8174 8167 8154 8154 8157 8161 8166 8170 8167 8175 8172 8168 8168 8161 8163 8162 8168 8183 8222 8240 8238 8236 8236 8238 8238 8237 8236 8235 8234 8237 8238 8234 8230 8231 8233 8232 8236 8240 8237 8237 8237 8237 8237 8236 8233 8235 8232 8231 
8246 8253 8249 8249 8248 8250 8248 8250 8248 8243 8243 8245 8246 8245 8243 8241 8238 8240 8239 8238 8239 8241 8242 8238 8214 8204 8197 8192 8189 8182 8183 8182 8175 8167 8158 8159 8168 8169 8180 8177 8176 8176 8173 8168 8168 8158 8160 8158 8176 8205 8233 8240 8242 8238 8237 8235 8234 8233 8234 8238 8235 8237 8235 8232 8229 8233 8228 8229 8238 8236 8237 8238 8234 8235 8235 8233 8233 8233 8229 8232 
8249 8250 8252 8249 8252 8250 8250 8253 8251 8245 8241 8242 8244 8247 8244 8242 8243 8242 8238 8240 8241 8247 8246 8243 8230 8215 8205 8196 8179 8172 8179 8181 8182 8175 8171 8170 8174 8175 8179 8177 8174 8173 8173 8171 8168 8163 8160 8170 8196 8218 8239 8245 8240 8237 8235 8234 8234 8234 8233 8238 8235 8238 8233 8232 8230 8229 8228 8229 8233 8234 8237 8235 8237 8232 8237 8230 8233 8233 8230 8226 
8249 8251 8251 8248 8251 8250 8252 8249 8246 8246 8243 8244 8244 8249 8243 8242 8241 8242 8239 8238 8239 8245 8248 8244 8241 8222 8213 8209 8200 8186 8178 8176 8179 8177 8176 8168 8171 8175 8174 8167 8162 8166 8170 8167 8165 8163 8172 8195 8211 8237 8246 8246 8242 8234 8237 8234 8232 8231 8233 8235 8236 8236 8231 8228 8231 8228 8232 8227 8235 8232 8235 8234 8234 8232 8234 8232 8232 8229 8225 8228 
8248 8260 8255 8249 8248 8248 8248 8244 8245 8247 8245 8246 8245 8245 8244 8242 8243 8242 8237 8241 8245 8245 8246 8248 8243 8228 8215 8204 8210 8212 8206 8184 8179 8174 8171 8168 8167 8174 8173 8155 8154 8163 8169 8165 8170 8183 8200 8211 8228 8243 8247 8245 8240 8234 8237 8233 8233 8229 8233 8236 8234 8232 8231 8227 8228 8226 8227 8227 8229 8229 8233 8232 8237 8230 8230 8228 8228 8230 8220 8224 
8250 8257 8257 8251 8245 8247 8246 8245 8239 8247 8244 8242 8244 8245 8243 8243 8236 8242 8233 8240 8244 8245 8247 8252 8247 8228 8229 8212 8204 8206 8204 8191 8183 8169 8169 8168 8173 8170 8170 8162 8159 8165 8175 8181 8201 8206 8210 8220 8241 8247 8246 8243 8237 8235 8230 8228 8229 8231 8232 8231 8229 8226 8227 8224 8228 8226 8228 8226 8228 8229 8233 8230 8233 8227 8230 8224 8227 8223 8220 8222 
8252 8259 8255 8248 8244 8246 8249 8243 8244 8252 8241 8246 8243 8245 8243 8238 8237 8242 8238 8239 8242 8243 8245 8247 8245 8232 8230 8225 8218 8205 8202 8194 8192 8187 8177 8185 8188 8191 8182 8176 8181 8196 8209 8210 8214 8214 8224 8234 8242 8245 8245 8241 8236 8233 8231 8229 8228 8228 8230 8227 8224 8224 8226 8225 8226 8226 8230 8228 8233 8227 8229 8230 8229 8226 8229 8226 8230 8223 8216 8214 
8250 8254 8250 8240 8244 8243 8245 8239 8242 8243 8240 8241 8237 8240 8239 8236 8233 8239 8238 8237 8238 8240 8243 8245 8247 8239 8237 8237 8231 8213 8199 8204 8203 8205 8203 8203 8204 8209 8211 8216 8219 8216 8209 8211 8215 8220 8234 8239 8239 8244 8240 8241 8231 8229 8227 8225 8225 8225 8222 8224 8222 8224 8224 8224 8222 8223 8228 8229 8234 8230 8228 8228 8229 8225 8226 8222 8221 8216 8216 8217 
8252 8253 8242 8236 8239 8236 8241 8245 8240 8238 8237 8232 8233 8238 8235 8230 8229 8232 8232 8234 8237 8235 8236 8246 8245 8245 8242 8244 8239 8233 8224 8214 8199 8206 8199 8207 8209 8209 8211 8215 8211 8214 8215 8221 8228 8230 8237 8240 8243 8245 8239 8237 8232 8227 8224 8224 8223 8224 8223 8223 8222 8226 8225 8221 8225 8222 8229 8226 8235 8231 8233 8229 8231 8225 8228 8221 8218 8214 8212 8214 
8255 8247 8241 8236 8236 8237 8244 8242 8236 8234 8232 8230 8229 8231 8230 8231 8232 8225 8227 8232 8234 8233 8238 8246 8243 8247 8245 8246 8240 8237 8235 8230 8224 8223 8209 8206 8214 8211 8217 8223 8230 8228 8231 8233 8233 8233 8240 8242 8244 8244 8241 8238 8237 8227 8224 8230 8223 8225 8223 8226 8223 8222 8222 8222 8227 8224 8233 8229 8235 8232 8235 8227 8230 8226 8222 8220 8215 8219 8212 8216 


