P2
80 60
8224
8112 8113 8115 8117 8114 8120 8126 8125 8125 8129 8127 8131 8142 8150 8151 8155 8161 8163 8161 8163 8167 8170 8172 8175 8174 8175 8175 8174 8174 8179 8175 8187 8192 8194 8190 8191 8196 8198 8200 8204 8204 8202 8205 8201 8204 8207 8207 8205 8206 8206 8199 8198 8196 8193 8194 8192 8190 8194 8192 8193 8193 8193 8190 8188 8191 8190 8189 8193 8194 8198 8200 8199 8198 8196 8199 8197 8194 8202 8201 8200 
8111 8111 8115 8111 8118 8135 8152 8153 8153 8150 8157 8154 8161 8163 8166 8162 8165 8166 8165 8166 8168 8170 8172 8174 8177 8173 8175 8175 8178 8177 8178 8187 8188 8188 8191 8194 8193 8204 8203 8204 8206 8206 8204 8203 8205 8206 8208 8204 8206 8202 8200 8199 8198 8196 8198 8194 8194 8191 8194 8195 8193 8192 8189 8188 8191 8189 8192 8195 8197 8197 8197 8200 8197 8193 8196 8197 8195 8195 8205 8204 
8109 8112 8112 8112 8122 8152 8160 8160 8164 8163 8163 8167 8165 8169 8170 8168 8169 8169 8171 8170 8176 8173 8173 8175 8177 8176 8176 8180 8176 8181 8183 8189 8191 8193 8191 8192 8197 8202 8204 8205 8205 8208 8206 8207 8208 8207 8209 8203 8205 8201 8200 8201 8202 8202 8198 8197 8196 8195 8196 8198 8198 8193 8193 8191 8190 8190 8193 8196 8198 8201 8199 8199 8198 8194 8200 8199 8196 8191 8202 8203 
8110 8114 8116 8116 8135 8160 8164 8163 8164 8166 8166 8168 8169 8170 8170 8167 8170 8172 8172 8170 8172 8174 8176 8177 8178 8175 8180 8179 8177 8183 8184 8189 8194 8196 8195 8196 8198 8205 8207 8207 8210 8206 8208 8209 8210 8209 8209 8206 8206 8203 8203 8204 8202 8203 8204 8199 8199 8200 8200 8198 8199 8197 8197 8190 8191 8195 8190 8196 8198 8202 8196 8198 8200 8194 8198 8198 8194 8192 8199 8200 
8112 8119 8118 8118 8147 8162 8167 8165 8168 8167 8171 8169 8168 8170 8167 8168 8171 8170 8169 8174 8174 8176 8178 8181 8179 8181 8182 8183 8181 8183 8187 8193 8196 8198 8196 8199 8202 8206 8207 8208 8209 8211 8208 8206 8210 8209 8207 8205 8205 8206 8202 8202 8205 8208 8203 8202 8202 8203 8202 8200 8197 8199 8194 8193 8193 8193 8195 8199 8199 8200 8201 8201 8198 8194 8195 8198 8193 8190 8196 8197 
8112 8123 8121 8132 8158 8163 8171 8166 8166 8169 8167 8168 8169 8169 8169 8167 8170 8174 8175 8176 8178 8178 8181 8181 8181 8182 8181 8183 8185 8188 8189 8194 8196 8199 8199 8197 8203 8205 8204 8208 8206 8209 8208 8208 8212 8210 8207 8207 8206 8207 8205 8206 8205 8208 8205 8204 8205 8201 8205 8204 8202 8201 8197 8193 8196 8194 8198 8198 8199 8198 8199 8202 8198 8195 8194 8191 8195 8189 8196 8196 
8126 8126 8128 8150 8164 8169 8170 8171 8170 8169 8169 8171 8172 8173 8171 8171 8174 8178 8178 8180 8178 8181 8186 8185 8183 8180 8181 8183 8182 8187 8188 8197 8197 8200 8197 8198 8199 8207 8205 8210 8209 8212 8211 8209 8213 8213 8209 8206 8208 8209 8209 8207 8209 8209 8207 8206 8205 8206 8208 8205 8202 8199 8196 8194 8196 8197 8199 8202 8200 8197 8198 8200 8198 8195 8197 8197 8191 8189 8194 8196 
8131 8131 8142 8165 8165 8172 8172 8173 8168 8167 8172 8173 8175 8175 8173 8172 8178 8183 8179 8183 8183 8184 8185 8183 8185 8183 8180 8182 8183 8186 8190 8196 8198 8199 8200 8199 8202 8207 8210 8211 8211 8212 8214 8213 8213 8213 8211 8210 8209 8208 8208 8209 8210 8212 8210 8209 8207 8209 8208 8207 8206 8202 8201 8199 8199 8199 8203 8203 8199 8199 8202 8202 8200 8195 8194 8194 8192 8191 8195 8195 
8134 8138 8153 8164 8172 8170 8176 8172 8173 8175 8175 8174 8177 8176 8175 8177 8180 8185 8185 8186 8186 8185 8185 8184 8184 8182 8179 8183 8185 8189 8190 8196 8199 8201 8199 8202 8209 8211 8211 8214 8209 8217 8214 8213 8215 8215 8213 8210 8209 8210 8210 8209 8212 8215 8212 8210 8209 8207 8209 8207 8206 8205 8204 8200 8201 8201 8204 8205 8201 8200 8198 8201 8199 8197 8196 8194 8194 8190 8196 8196 
8141 8146 8162 8172 8172 8175 8175 8175 8177 8173 8177 8179 8177 8177 8180 8177 8182 8184 8183 8187 8184 8184 8181 8183 8180 8182 8182 8185 8187 8189 8190 8195 8198 8199 8201 8204 8208 8213 8211 8214 8212 8218 8215 8214 8216 8218 8215 8211 8213 8210 8210 8210 8213 8216 8213 8207 8210 8210 8210 8209 8207 8207 8202 8200 8202 8202 8206 8204 8202 8201 8203 8206 8199 8198 8198 8197 8199 8196 8196 8200 
8152 8157 8171 8175 8176 8176 8176 8176 8178 8181 8179 8177 8178 8178 8177 8180 8182 8185 8182 8184 8184 8185 8184 8182 8183 8181 8183 8184 8188 8189 8189 8192 8200 8203 8201 8204 8208 8211 8211 8215 8216 8215 8215 8217 8220 8217 8220 8213 8212 8213 8209 8213 8215 8214 8212 8207 8208 8210 8212 8212 8209 8205 8202 8201 8205 8202 8208 8209 8206 8205 8203 8202 8199 8200 8201 8201 8199 8194 8200 8204 
8160 8171 8178 8175 8177 8178 8175 8177 8175 8177 8180 8178 8177 8175 8178 8177 8179 8181 8182 8183 8182 8182 8185 8181 8188 8183 8182 8188 8189 8191 8192 8196 8195 8204 8202 8205 8208 8213 8212 8216 8214 8218 8217 8219 8221 8221 8218 8217 8215 8215 8214 8214 8216 8216 8213 8211 8210 8211 8211 8212 8210 8205 8205 8205 8205 8205 8208 8207 8204 8204 8206 8204 8204 8200 8203 8202 8203 8200 8206 8205 
8169 8181 8182 8180 8180 8181 8177 8174 8175 8178 8176 8179 8177 8177 8178 8177 8181 8182 8179 8183 8184 8181 8181 8182 8185 8183 8184 8188 8188 8192 8195 8195 8199 8199 8201 8203 8205 8207 8211 8213 8213 8214 8216 8219 8220 8219 8215 8216 8215 8215 8213 8214 8216 8215 8213 8208 8210 8213 8213 8207 8209 8209 8204 8202 8206 8204 8207 8208 8206 8202 8206 8203 8201 8204 8203 8204 8204 8204 8208 8208 
8170 8186 8188 8186 8182 8181 8179 8178 8174 8178 8179 8178 8178 8178 8179 8181 8180 8184 8184 8182 8183 8182 8179 8181 8183 8182 8184 8187 8188 8189 8193 8197 8197 8200 8202 8204 8208 8209 8211 8214 8214 8217 8216 8217 8219 8217 8215 8217 8214 8214 8214 8213 8217 8214 8213 8209 8207 8212 8212 8209 8209 8207 8204 8204 8204 8205 8206 8208 8205 8206 8206 8203 8204 8204 8203 8205 8207 8204 8210 8211 
8178 8183 8187 8185 8182 8181 8179 8180 8178 8177 8177 8180 8178 8182 8179 8176 8182 8181 8186 8185 8182 8180 8179 8179 8182 8183 8181 8183 8186 8191 8189 8194 8198 8201 8201 8205 8208 8210 8213 8212 8213 8213 8217 8218 8219 8214 8212 8212 8211 8214 8216 8215 8215 8217 8211 8209 8210 8211 8212 8208 8208 8205 8206 8203 8205 8207 8206 8212 8207 8208 8207 8205 8204 8207 8205 8205 8209 8208 8210 8214 
8181 8184 8186 8189 8184 8181 8179 8180 8176 8177 8178 8179 8179 8182 8178 8181 8181 8184 8183 8184 8182 8183 8179 8180 8181 8186 8184 8185 8183 8191 8192 8194 8197 8203 8205 8207 8208 8211 8212 8212 8213 8215 8214 8217 8214 8213 8210 8213 8212 8211 8212 8216 8217 8214 8213 8209 8211 8210 8211 8207 8207 8206 8209 8205 8206 8205 8209 8210 8208 8207 8205 8205 8205 8203 8204 8206 8206 8203 8207 8210 
8180 8182 8180 8185 8182 8180 8176 8175 8176 8178 8179 8178 8179 8183 8179 8180 8183 8187 8184 8185 8182 8180 8179 8180 8181 8185 8187 8183 8187 8190 8193 8197 8201 8202 8205 8207 8209 8212 8213 8212 8211 8216 8215 8215 8214 8214 8212 8212 8208 8213 8212 8213 8215 8215 8212 8208 8206 8207 8211 8211 8206 8206 8204 8205 8207 8204 8207 8210 8207 8207 8207 8206 8208 8204 8204 8206 8204 8202 8209 8208 
8181 8186 8185 8186 8181 8183 8179 8177 8177 8180 8185 8181 8183 8183 8179 8178 8183 8185 8181 8182 8182 8185 8184 8182 8185 8187 8189 8187 8189 8192 8195 8199 8205 8203 8204 8207 8210 8213 8211 8210 8211 8212 8214 8215 8215 8217 8214 8210 8209 8211 8210 8210 8211 8211 8210 8207 8208 8207 8209 8209 8207 8205 8205 8207 8208 8208 8209 8207 8205 8206 8208 8207 8207 8208 8206 8206 8205 8202 8205 8206 
8179 8187 8185 8186 8183 8182 8183 8184 8181 8181 8183 8183 8185 8184 8182 8179 8186 8187 8186 8180 8181 8186 8186 8182 8182 8188 8190 8187 8187 8193 8194 8201 8203 8208 8206 8208 8208 8203 8196 8202 8207 8206 8211 8212 8214 8212 8214 8211 8211 8214 8213 8212 8212 8213 8208 8209 8207 8206 8208 8208 8208 8207 8208 8206 8207 8206 8206 8206 8207 8203 8208 8208 8206 8205 8206 8206 8208 8203 8208 8210 
8186 8187 8188 8184 8179 8183 8183 8185 8183 8182 8183 8182 8183 8186 8180 8180 8181 8184 8182 8181 8179 8185 8186 8184 8188 8189 8190 8189 8190 8194 8195 8205 8206 8208 8207 8203 8195 8166 8162 8155 8172 8169 8166 8166 8171 8190 8208 8209 8212 8211 8212 8211 8212 8211 8209 8207 8209 8209 8210 8208 8209 8208 8209 8206 8209 8206 8208 8210 8208 8209 8207 8206 8207 8205 8205 8205 8206 8202 8207 8211 
8186 8191 8185 8182 8178 8180 8179 8184 8182 8181 8184 8183 8185 8185 8178 8178 8184 8183 8179 8182 8180 8186 8185 8187 8189 8188 8189 8192 8193 8197 8196 8203 8206 8207 8199 8180 8173 8183 8188 8173 8143 8143 8145 8155 8191 8206 8207 8208 8209 8210 8212 8211 8211 8212 8212 8207 8208 8209 8209 8208 8206 8206 8210 8206 8207 8208 8211 8210 8209 8211 8211 8209 8205 8206 8205 8207 8203 8202 8206 8212 
8186 8189 8187 8185 8186 8183 8176 8179 8180 8188 8187 8182 8185 8184 8181 8181 8181 8182 8178 8182 8181 8186 8185 8187 8187 8189 8190 8193 8195 8198 8195 8199 8199 8203 8196 8155 8144 8146 8145 8143 8140 8150 8148 8150 8161 8179 8194 8199 8205 8210 8208 8208 8211 8211 8216 8207 8208 8207 8208 8208 8209 8207 8207 8206 8210 8208 8208 8210 8211 8210 8208 8210 8206 8208 8207 8210 8209 8205 8209 8215 
8185 8189 8186 8186 8186 8180 8176 8176 8180 8189 8188 8186 8185 8187 8182 8180 8184 8180 8181 8180 8183 8188 8185 8187 8192 8188 8192 8193 8195 8197 8196 8174 8150 8180 8198 8173 8163 8145 8134 8135 8140 8145 8164 8170 8146 8146 8150 8170 8203 8207 8209 8208 8208 8209 8209 8209 8207 8205 8207 8206 8210 8208 8207 8205 8206 8208 8210 8211 8210 8208 8210 8207 8207 8205 8207 8207 8207 8209 8213 8214 
8186 8191 8191 8188 8189 8187 8187 8184 8189 8192 8192 8189 8188 8187 8187 8186 8186 8185 8182 8186 8185 8188 8188 8188 8189 8189 8189 8191 8195 8196 8194 8159 8137 8152 8189 8155 8149 8140 8128 8135 8142 8142 8156 8154 8145 8148 8177 8198 8207 8208 8206 8208 8207 8207 8209 8207 8208 8208 8205 8203 8204 8206 8207 8206 8204 8207 8209 8208 8209 8207 8207 8207 8207 8209 8210 8210 8210 8210 8218 8217 
8190 8191 8194 8194 8190 8188 8186 8189 8190 8191 8191 8191 8188 8187 8186 8186 8187 8190 8185 8185 8188 8187 8190 8190 8190 8189 8190 8195 8194 8193 8193 8163 8139 8146 8186 8170 8149 8137 8132 8139 8142 8144 8146 8147 8147 8151 8148 8174 8211 8204 8196 8196 8198 8206 8203 8203 8208 8206 8199 8194 8201 8205 8206 8205 8206 8209 8210 8208 8210 8205 8194 8201 8207 8208 8209 8211 8209 8211 8219 8218 
8194 8191 8195 8194 8193 8186 8189 8186 8185 8190 8190 8191 8186 8187 8187 8187 8190 8192 8191 8189 8189 8187 8189 8187 8188 8187 8189 8194 8194 8194 8195 8178 8142 8150 8177 8165 8173 8161 8138 8153 8160 8151 8148 8149 8154 8158 8155 8151 8141 8158 8186 8182 8178 8170 8188 8194 8202 8202 8196 8191 8201 8203 8205 8206 8206 8210 8207 8208 8204 8183 8167 8179 8198 8205 8207 8210 8210 8210 8217 8221 
8193 8197 8192 8191 8189 8189 8185 8184 8189 8188 8190 8189 8189 8190 8186 8190 8191 8190 8188 8188 8188 8189 8187 8188 8187 8187 8192 8195 8191 8191 8188 8188 8147 8141 8133 8136 8139 8140 8139 8159 8160 8150 8154 8156 8141 8138 8135 8135 8135 8140 8174 8186 8158 8140 8148 8151 8188 8207 8204 8203 8203 8205 8204 8205 8206 8209 8205 8205 8188 8162 8161 8165 8173 8194 8207 8213 8211 8208 8219 8218 
8194 8197 8195 8195 8192 8188 8187 8190 8188 8193 8193 8191 8192 8192 8187 8187 8190 8191 8190 8187 8187 8188 8188 8188 8188 8187 8190 8194 8192 8185 8153 8148 8153 8155 8151 8151 8152 8139 8149 8148 8138 8136 8136 8151 8144 8136 8135 8141 8141 8137 8160 8187 8141 8139 8146 8144 8167 8201 8204 8203 8203 8203 8206 8204 8205 8208 8202 8192 8168 8163 8164 8164 8175 8198 8211 8210 8214 8213 8218 8217 
8194 8197 8194 8198 8192 8192 8191 8191 8191 8193 8193 8192 8195 8193 8189 8190 8192 8190 8191 8188 8185 8186 8188 8188 8187 8190 8189 8191 8189 8177 8156 8142 8150 8166 8163 8165 8167 8154 8162 8149 8155 8140 8137 8138 8142 8140 8151 8155 8150 8135 8139 8142 8138 8144 8146 8147 8164 8188 8199 8202 8202 8203 8204 8204 8207 8203 8191 8170 8163 8163 8166 8172 8192 8204 8210 8211 8214 8213 8218 8219 
8193 8196 8197 8197 8193 8195 8195 8190 8196 8190 8194 8195 8193 8192 8190 8191 8189 8193 8188 8189 8187 8187 8188 8192 8188 8185 8178 8171 8156 8134 8133 8135 8132 8143 8161 8162 8143 8141 8152 8150 8152 8142 8142 8139 8141 8144 8138 8141 8135 8131 8129 8130 8140 8143 8146 8152 8175 8181 8186 8199 8197 8199 8205 8204 8204 8196 8171 8163 8164 8165 8172 8189 8203 8206 8211 8213 8213 8215 8222 8219 
8194 8196 8194 8195 8196 8197 8192 8193 8192 8191 8191 8190 8187 8191 8188 8190 8193 8190 8191 8187 8186 8188 8188 8187 8182 8150 8134 8134 8139 8165 8170 8156 8142 8141 8147 8139 8134 8135 8138 8145 8140 8145 8137 8148 8142 8142 8141 8138 8136 8133 8128 8131 8139 8144 8144 8165 8184 8183 8177 8184 8182 8193 8201 8203 8197 8173 8162 8164 8166 8169 8188 8203 8208 8206 8210 8209 8213 8217 8224 8219 
8191 8195 8193 8194 8192 8195 8192 8193 8195 8191 8188 8191 8187 8188 8190 8188 8191 8192 8188 8189 8188 8190 8187 8181 8142 8122 8129 8147 8180 8191 8179 8163 8146 8132 8128 8127 8131 8129 8137 8143 8143 8156 8144 8143 8146 8145 8153 8133 8137 8136 8139 8148 8136 8144 8140 8144 8153 8154 8154 8155 8184 8198 8198 8196 8174 8165 8164 8168 8173 8187 8200 8206 8206 8206 8208 8210 8215 8214 8220 8220 
8193 8194 8192 8195 8191 8195 8188 8194 8195 8194 8189 8190 8186 8187 8190 8191 8190 8190 8189 8187 8189 8191 8188 8155 8123 8123 8146 8185 8190 8191 8165 8161 8153 8145 8133 8130 8129 8130 8140 8143 8142 8142 8142 8142 8148 8143 8139 8134 8133 8136 8143 8147 8134 8140 8142 8137 8136 8143 8142 8146 8170 8183 8190 8174 8160 8161 8167 8168 8184 8198 8206 8205 8204 8207 8210 8212 8214 8212 8220 8219 
8193 8193 8193 8194 8195 8194 8192 8194 8194 8192 8193 8190 8188 8188 8186 8187 8190 8193 8195 8190 8189 8193 8190 8146 8124 8148 8183 8194 8195 8179 8159 8164 8152 8139 8140 8145 8136 8135 8137 8143 8142 8146 8137 8141 8144 8152 8160 8133 8130 8133 8131 8141 8130 8132 8137 8134 8135 8137 8133 8134 8146 8156 8167 8156 8159 8161 8164 8184 8198 8201 8204 8207 8206 8206 8209 8207 8213 8213 8217 8216 
8192 8197 8193 8195 8196 8195 8196 8193 8193 8189 8189 8189 8191 8189 8191 8190 8193 8196 8193 8194 8193 8195 8191 8166 8153 8185 8190 8194 8190 8169 8158 8159 8133 8136 8136 8135 8141 8140 8139 8140 8139 8139 8138 8138 8141 8149 8146 8136 8136 8138 8135 8133 8133 8133 8131 8150 8141 8133 8132 8132 8141 8151 8148 8146 8157 8161 8181 8195 8201 8202 8205 8205 8206 8203 8208 8209 8209 8214 8216 8218 
8192 8197 8194 8196 8197 8194 8195 8194 8193 8193 8187 8193 8193 8192 8193 8194 8199 8196 8195 8193 8196 8198 8195 8185 8190 8189 8190 8191 8182 8159 8155 8151 8129 8133 8129 8135 8145 8140 8137 8141 8136 8142 8146 8141 8137 8137 8135 8133 8133 8139 8136 8134 8135 8143 8149 8160 8137 8134 8142 8137 8140 8146 8150 8158 8163 8179 8197 8200 8202 8202 8205 8206 8206 8206 8208 8209 8210 8210 8215 8213 
8192 8198 8196 8196 8196 8198 8197 8194 8191 8190 8194 8194 8193 8192 8192 8192 8193 8194 8195 8193 8195 8194 8194 8191 8193 8191 8193 8191 8178 8154 8154 8151 8134 8134 8130 8141 8142 8138 8138 8139 8142 8149 8150 8140 8138 8139 8136 8132 8124 8130 8138 8133 8134 8142 8152 8137 8132 8142 8158 8139 8140 8149 8158 8163 8178 8199 8201 8203 8202 8204 8204 8208 8207 8206 8211 8209 8212 8216 8213 8214 
8193 8200 8198 8196 8198 8192 8198 8195 8193 8194 8194 8195 8193 8191 8192 8192 8191 8193 8192 8192 8194 8195 8195 8191 8192 8190 8193 8192 8176 8156 8159 8159 8138 8130 8127 8140 8141 8140 8140 8138 8140 8148 8143 8143 8142 8138 8139 8140 8133 8130 8137 8141 8134 8133 8135 8133 8135 8138 8157 8146 8140 8142 8157 8176 8197 8200 8202 8204 8204 8202 8204 8204 8208 8210 8213 8212 8216 8210 8217 8216 
8195 8200 8199 8198 8198 8196 8195 8195 8195 8195 8195 8191 8190 8190 8189 8189 8192 8193 8191 8191 8193 8192 8188 8195 8194 8190 8193 8189 8174 8156 8163 8160 8149 8131 8126 8136 8143 8143 8142 8138 8136 8140 8136 8137 8141 8137 8136 8136 8133 8134 8139 8145 8133 8135 8136 8149 8143 8137 8150 8154 8148 8143 8155 8189 8199 8199 8201 8204 8203 8203 8205 8206 8204 8207 8211 8211 8214 8213 8219 8221 
8198 8202 8202 8199 8199 8198 8195 8195 8192 8194 8196 8192 8189 8189 8189 8188 8188 8192 8194 8195 8193 8191 8192 8192 8192 8189 8189 8189 8173 8158 8162 8158 8152 8143 8131 8133 8139 8138 8138 8140 8133 8132 8134 8137 8140 8137 8132 8138 8148 8144 8145 8140 8135 8136 8138 8159 8148 8141 8149 8160 8151 8153 8183 8193 8201 8202 8203 8206 8204 8205 8204 8206 8206 8209 8210 8210 8212 8214 8217 8221 
8195 8202 8201 8193 8197 8197 8194 8194 8194 8193 8191 8192 8187 8188 8193 8187 8190 8196 8192 8195 8194 8192 8190 8189 8192 8188 8192 8193 8175 8163 8167 8155 8145 8145 8145 8137 8134 8133 8132 8133 8135 8136 8135 8139 8140 8137 8135 8134 8136 8138 8138 8132 8136 8137 8137 8153 8148 8140 8146 8163 8169 8177 8191 8197 8203 8203 8202 8207 8206 8203 8205 8208 8207 8211 8212 8209 8212 8212 8219 8220 
8195 8199 8200 8191 8195 8198 8191 8192 8193 8192 8192 8191 8191 8188 8192 8191 8190 8196 8196 8196 8192 8194 8188 8190 8193 8190 8188 8193 8182 8165 8168 8155 8148 8147 8151 8145 8143 8139 8132 8133 8131 8135 8134 8140 8143 8138 8140 8147 8138 8139 8133 8136 8136 8137 8141 8160 8151 8141 8144 8169 8180 8184 8196 8198 8204 8202 8203 8203 8204 8206 8209 8207 8208 8208 8213 8216 8211 8212 8215 8217 
8192 8197 8196 8189 8188 8193 8192 8192 8193 8194 8194 8189 8191 8196 8188 8188 8190 8195 8194 8190 8191 8193 8190 8189 8194 8189 8189 8189 8188 8175 8178 8161 8148 8144 8151 8152 8140 8132 8129 8130 8129 8131 8135 8137 8139 8147 8148 8161 8159 8145 8138 8138 8137 8138 8144 8177 8157 8142 8146 8175 8185 8187 8199 8201 8203 8203 8203 8204 8205 8206 8203 8208 8205 8208 8210 8210 8214 8211 8215 8222 
8194 8197 8196 8194 8192 8190 8194 8192 8193 8191 8192 8191 8191 8193 8188 8189 8191 8191 8188 8190 8191 8188 8189 8189 8189 8188 8191 8193 8189 8175 8181 8165 8145 8145 8143 8149 8144 8138 8127 8130 8129 8129 8134 8144 8146 8148 8152 8162 8168 8163 8140 8150 8144 8144 8168 8184 8163 8148 8155 8181 8185 8192 8202 8201 8205 8204 8204 8204 8204 8204 8207 8208 8206 8209 8209 8212 8208 8210 8212 8215 
8195 8201 8194 8192 8193 8193 8194 8190 8193 8191 8190 8189 8194 8194 8192 8190 8193 8194 8191 8193 8190 8189 8188 8189 8190 8192 8189 8189 8189 8176 8173 8168 8151 8147 8150 8148 8152 8145 8130 8129 8129 8129 8136 8145 8150 8147 8149 8154 8162 8170 8161 8168 8155 8158 8185 8188 8178 8175 8178 8187 8186 8196 8202 8203 8205 8205 8205 8204 8204 8206 8208 8204 8205 8206 8210 8211 8207 8208 8209 8214 
8195 8198 8190 8193 8191 8193 8193 8188 8190 8190 8187 8183 8193 8193 8193 8195 8195 8194 8192 8192 8190 8194 8192 8189 8192 8188 8190 8189 8186 8183 8170 8167 8159 8151 8156 8157 8154 8142 8142 8132 8127 8133 8134 8142 8147 8156 8167 8167 8169 8175 8172 8171 8173 8181 8191 8191 8194 8192 8188 8189 8190 8199 8199 8199 8205 8203 8202 8203 8205 8204 8205 8208 8207 8208 8207 8205 8209 8204 8210 8211 
8198 8200 8193 8194 8193 8197 8196 8193 8188 8188 8189 8192 8195 8192 8192 8193 8196 8195 8193 8193 8193 8194 8191 8190 8189 8187 8187 8188 8186 8183 8187 8181 8168 8155 8158 8157 8153 8143 8137 8135 8136 8140 8143 8140 8146 8149 8165 8175 8181 8185 8182 8179 8183 8187 8189 8190 8192 8189 8190 8187 8198 8202 8200 8202 8201 8202 8203 8205 8206 8204 8205 8208 8211 8208 8211 8209 8209 8206 8208 8210 
8196 8199 8194 8194 8198 8197 8192 8196 8196 8195 8195 8192 8193 8191 8196 8197 8198 8197 8191 8192 8196 8191 8189 8195 8192 8189 8188 8190 8187 8192 8191 8202 8185 8171 8170 8159 8143 8137 8138 8137 8153 8143 8148 8145 8142 8149 8165 8178 8184 8185 8186 8183 8182 8186 8176 8182 8185 8189 8189 8191 8198 8201 8202 8201 8203 8202 8204 8206 8206 8203 8203 8209 8207 8207 8208 8208 8207 8206 8206 8207 
8192 8195 8198 8195 8194 8195 8196 8193 8195 8188 8194 8194 8197 8190 8195 8193 8194 8194 8190 8189 8192 8189 8195 8192 8195 8192 8190 8192 8191 8194 8195 8194 8212 8188 8166 8146 8141 8136 8142 8162 8154 8147 8157 8158 8143 8145 8160 8182 8182 8185 8181 8182 8179 8170 8167 8176 8184 8187 8191 8200 8201 8201 8200 8201 8202 8200 8200 8203 8205 8203 8206 8207 8210 8209 8207 8208 8207 8205 8206 8209 
8192 8197 8193 8194 8197 8197 8195 8194 8190 8190 8192 8197 8196 8197 8193 8189 8195 8197 8193 8189 8190 8193 8194 8194 8195 8193 8191 8191 8191 8192 8196 8196 8195 8212 8187 8158 8148 8153 8159 8161 8150 8154 8172 8166 8149 8151 8159 8182 8188 8182 8180 8184 8176 8165 8168 8178 8185 8192 8200 8200 8200 8199 8203 8199 8201 8196 8199 8206 8206 8205 8208 8209 8209 8210 8209 8211 8210 8208 8205 8208 
8193 8196 8195 8192 8197 8193 8197 8190 8188 8190 8192 8195 8197 8200 8194 8193 8196 8196 8193 8189 8189 8191 8193 8195 8192 8192 8191 8192 8194 8195 8195 8199 8186 8191 8201 8182 8174 8170 8163 8166 8150 8161 8170 8177 8165 8173 8180 8184 8185 8181 8176 8175 8178 8180 8180 8184 8187 8193 8199 8201 8201 8201 8198 8197 8198 8200 8204 8206 8205 8207 8210 8211 8209 8208 8208 8206 8208 8203 8204 8211 
8194 8195 8191 8193 8196 8193 8191 8195 8188 8191 8191 8191 8196 8198 8194 8189 8192 8192 8194 8189 8190 8193 8193 8193 8195 8193 8191 8196 8196 8196 8197 8201 8192 8177 8176 8181 8188 8188 8177 8165 8157 8163 8170 8173 8172 8175 8180 8179 8177 8174 8169 8168 8178 8188 8184 8181 8186 8198 8204 8204 8202 8201 8200 8198 8196 8200 8200 8203 8205 8205 8211 8208 8204 8206 8206 8202 8204 8203 8207 8208 
8190 8197 8195 8196 8195 8192 8191 8194 8194 8194 8192 8193 8191 8197 8193 8185 8194 8195 8192 8191 8187 8194 8194 8193 8196 8193 8196 8197 8194 8196 8195 8201 8198 8186 8178 8174 8180 8185 8190 8181 8170 8169 8165 8165 8166 8165 8172 8171 8175 8175 8178 8181 8183 8184 8180 8184 8194 8199 8204 8207 8203 8203 8200 8196 8198 8201 8200 8206 8206 8206 8211 8207 8209 8209 8206 8202 8201 8200 8203 8203 
8194 8199 8197 8198 8198 8195 8195 8192 8189 8195 8190 8190 8193 8195 8192 8192 8193 8194 8192 8191 8192 8193 8195 8193 8196 8194 8192 8198 8192 8196 8196 8198 8201 8200 8187 8180 8177 8179 8178 8178 8180 8181 8177 8177 8174 8170 8176 8177 8184 8185 8182 8182 8180 8180 8188 8191 8198 8201 8198 8203 8204 8200 8201 8197 8197 8202 8203 8204 8204 8208 8209 8208 8206 8207 8203 8199 8201 8200 8197 8200 
8193 8201 8195 8198 8191 8196 8195 8194 8190 8196 8190 8193 8193 8195 8190 8190 8191 8190 8194 8191 8190 8195 8192 8198 8196 8193 8193 8193 8193 8196 8194 8196 8200 8205 8196 8189 8183 8182 8178 8179 8178 8177 8177 8172 8175 8175 8176 8178 8177 8177 8180 8180 8182 8188 8194 8194 8197 8197 8200 8204 8202 8199 8198 8200 8199 8198 8199 8203 8206 8203 8207 8208 8207 8204 8202 8200 8197 8194 8196 8195 
8196 8203 8202 8199 8193 8194 8194 8193 8188 8197 8198 8191 8196 8194 8189 8189 8191 8191 8187 8191 8192 8194 8195 8196 8195 8182 8192 8193 8197 8197 8192 8202 8206 8201 8200 8199 8192 8188 8183 8180 8179 8184 8179 8169 8176 8173 8163 8172 8175 8180 8181 8184 8190 8196 8194 8192 8197 8202 8198 8198 8195 8196 8197 8198 8198 8199 8198 8204 8206 8202 8205 8206 8202 8203 8200 8199 8194 8190 8192 8195 
8198 8203 8202 8192 8187 8190 8196 8189 8194 8197 8196 8193 8196 8194 8190 8187 8186 8190 8188 8189 8189 8191 8192 8191 8194 8184 8186 8192 8194 8196 8197 8201 8207 8202 8199 8200 8201 8197 8192 8189 8184 8186 8183 8179 8178 8177 8176 8177 8180 8186 8188 8193 8192 8194 8195 8192 8199 8197 8199 8197 8196 8194 8196 8196 8196 8197 8203 8205 8203 8203 8201 8204 8200 8199 8201 8197 8192 8186 8189 8194 
8196 8206 8199 8185 8195 8191 8195 8189 8192 8194 8195 8189 8186 8193 8195 8187 8185 8189 8189 8186 8187 8186 8189 8191 8195 8187 8194 8196 8193 8196 8197 8201 8202 8204 8202 8201 8200 8197 8198 8197 8199 8195 8192 8190 8193 8187 8185 8189 8194 8193 8191 8192 8192 8195 8196 8192 8194 8194 8196 8196 8192 8193 8192 8192 8195 8198 8200 8204 8203 8201 8204 8201 8199 8196 8195 8193 8191 8183 8188 8190 
8206 8203 8189 8190 8191 8187 8185 8195 8199 8191 8194 8187 8189 8193 8190 8179 8181 8186 8185 8185 8189 8182 8183 8188 8196 8193 8195 8195 8193 8196 8196 8195 8196 8202 8198 8200 8203 8201 8198 8201 8201 8199 8194 8197 8195 8194 8194 8197 8197 8198 8195 8194 8193 8194 8194 8195 8195 8196 8196 8198 8194 8192 8193 8191 8194 8197 8199 8205 8206 8205 8205 8199 8199 8197 8196 8192 8190 8184 8185 8187 
8204 8200 8192 8185 8183 8178 8184 8188 8188 8191 8188 8190 8187 8186 8188 8179 8183 8182 8183 8182 8181 8179 8184 8187 8193 8195 8193 8193 8192 8194 8187 8193 8193 8194 8196 8194 8196 8200 8201 8201 8199 8201 8195 8194 8196 8196 8197 8199 8196 8195 8192 8198 8194 8189 8189 8190 8192 8196 8191 8194 8195 8192 8192 8192 8194 8199 8197 8202 8200 8200 8199 8199 8191 8194 8195 8194 8187 8186 8181 8188 


