P2
80 60
8244
8164 8158 8167 8170 8174 8173 8166 8165 8166 8169 8171 8172 8171 8168 8172 8171 8169 8170 8170 8171 8174 8176 8176 8173 8177 8177 8174 8173 8175 8177 8179 8180 8178 8180 8178 8178 8179 8183 8183 8186 8182 8181 8176 8176 8176 8178 8177 8177 8178 8178 8175 8175 8178 8172 8167 8166 8166 8165 8170 8172 8174 8172 8173 8174 8175 8177 8179 8183 8183 8186 8185 8187 8187 8186 8185 8182 8182 8182 8181 8175 
8159 8165 8173 8171 8177 8175 8167 8166 8165 8171 8167 8171 8168 8168 8165 8168 8167 8168 8171 8170 8176 8179 8178 8170 8176 8174 8168 8171 8176 8169 8176 8176 8175 8173 8169 8175 8174 8180 8183 8183 8181 8178 8171 8174 8177 8178 8174 8176 8177 8174 8172 8175 8176 8173 8169 8171 8171 8168 8168 8172 8174 8175 8173 8178 8174 8178 8175 8178 8179 8184 8186 8184 8185 8185 8185 8182 8183 8179 8183 8174 
8157 8158 8166 8164 8172 8169 8163 8167 8162 8166 8168 8168 8162 8167 8168 8166 8170 8170 8167 8169 8169 8172 8175 8167 8172 8174 8170 8171 8172 8168 8168 8173 8168 8171 8169 8171 8171 8178 8179 8181 8180 8176 8171 8173 8174 8175 8174 8173 8174 8174 8171 8169 8170 8174 8171 8170 8167 8167 8170 8170 8173 8174 8173 8174 8174 8174 8176 8176 8181 8183 8184 8181 8182 8182 8182 8180 8181 8182 8184 8179 
8160 8154 8168 8164 8169 8167 8166 8167 8164 8164 8161 8156 8165 8165 8162 8165 8163 8171 8164 8165 8166 8161 8160 8168 8170 8171 8168 8170 8173 8170 8164 8172 8171 8170 8172 8166 8174 8174 8178 8177 8179 8175 8172 8169 8171 8172 8172 8173 8172 8171 8168 8167 8169 8172 8173 8169 8170 8167 8170 8171 8171 8173 8175 8173 8172 8173 8175 8176 8178 8181 8182 8182 8183 8181 8182 8179 8178 8183 8181 8180 
8165 8155 8166 8163 8166 8167 8168 8163 8161 8166 8160 8154 8160 8163 8157 8164 8163 8163 8163 8161 8163 8166 8160 8163 8169 8170 8170 8165 8166 8170 8166 8171 8169 8166 8165 8168 8174 8173 8176 8177 8177 8175 8168 8168 8169 8171 8168 8171 8169 8172 8170 8171 8172 8172 8170 8169 8167 8169 8170 8170 8171 8175 8173 8173 8172 8171 8174 8171 8177 8178 8181 8180 8178 8177 8178 8177 8175 8178 8180 8179 
8166 8158 8161 8162 8166 8166 8170 8165 8161 8162 8150 8159 8163 8156 8158 8162 8161 8157 8162 8168 8164 8162 8167 8161 8168 8167 8168 8166 8164 8168 8170 8171 8166 8166 8166 8168 8171 8176 8176 8176 8176 8173 8170 8166 8170 8168 8168 8169 8168 8172 8168 8169 8171 8169 8168 8167 8166 8168 8167 8169 8170 8174 8172 8171 8171 8170 8171 8172 8173 8175 8179 8178 8179 8180 8178 8175 8174 8179 8180 8174 
8165 8163 8166 8170 8167 8163 8171 8172 8158 8152 8145 8167 8162 8153 8156 8162 8156 8159 8164 8169 8161 8165 8169 8167 8171 8166 8160 8158 8163 8167 8169 8170 8166 8168 8167 8169 8169 8168 8175 8175 8174 8170 8172 8171 8169 8169 8168 8167 8167 8168 8166 8165 8168 8168 8167 8168 8167 8164 8168 8165 8163 8169 8168 8168 8169 8172 8172 8175 8170 8173 8177 8176 8176 8177 8178 8176 8174 8179 8177 8174 
8166 8165 8161 8169 8162 8162 8165 8175 8165 8141 8159 8165 8164 8158 8163 8160 8159 8162 8161 8159 8166 8164 8165 8166 8169 8167 8158 8161 8162 8169 8166 8170 8167 8167 8170 8168 8168 8173 8173 8174 8172 8168 8168 8168 8168 8168 8167 8165 8164 8164 8161 8163 8167 8167 8167 8164 8163 8167 8166 8162 8165 8165 8165 8168 8167 8170 8172 8173 8171 8169 8174 8173 8173 8174 8174 8176 8174 8177 8175 8172 
8166 8160 8157 8163 8164 8164 8172 8165 8160 8147 8157 8160 8158 8160 8158 8155 8159 8160 8163 8168 8161 8162 8158 8158 8158 8163 8157 8162 8162 8165 8165 8165 8165 8164 8166 8167 8169 8170 8171 8172 8170 8169 8165 8167 8165 8169 8164 8164 8165 8162 8158 8162 8165 8164 8164 8161 8164 8162 8162 8164 8163 8164 8165 8165 8164 8167 8168 8173 8171 8173 8172 8172 8170 8174 8173 8178 8173 8179 8178 8176 
8166 8152 8161 8165 8164 8165 8153 8163 8164 8159 8157 8159 8161 8159 8157 8154 8165 8162 8166 8167 8159 8162 8159 8160 8160 8163 8161 8164 8162 8165 8163 8163 8163 8162 8166 8167 8169 8173 8170 8173 8171 8169 8168 8165 8164 8167 8167 8165 8160 8163 8158 8162 8164 8162 8160 8161 8160 8166 8165 8161 8163 8166 8163 8165 8165 8166 8165 8169 8171 8170 8168 8170 8167 8171 8171 8173 8173 8176 8175 8170 
8162 8154 8159 8164 8160 8162 8152 8161 8160 8153 8158 8156 8157 8159 8156 8159 8162 8155 8156 8161 8161 8160 8160 8161 8163 8161 8166 8163 8165 8165 8161 8162 8159 8164 8164 8164 8166 8166 8172 8170 8169 8168 8165 8170 8168 8166 8166 8163 8160 8166 8163 8164 8165 8162 8159 8159 8162 8161 8164 8162 8166 8166 8164 8163 8160 8163 8165 8167 8167 8168 8167 8169 8167 8168 8167 8167 8168 8172 8173 8170 
8165 8164 8160 8159 8153 8161 8155 8161 8161 8153 8158 8154 8158 8159 8158 8158 8159 8158 8156 8163 8161 8163 8158 8161 8162 8165 8161 8164 8165 8164 8166 8165 8161 8166 8160 8158 8161 8169 8170 8169 8167 8170 8166 8169 8167 8168 8163 8164 8159 8164 8162 8166 8163 8162 8163 8159 8159 8158 8163 8161 8162 8160 8162 8162 8161 8164 8165 8165 8168 8167 8168 8162 8163 8163 8165 8165 8168 8170 8169 8167 
8164 8159 8156 8152 8156 8159 8162 8151 8154 8155 8154 8159 8153 8155 8157 8161 8157 8160 8158 8160 8160 8161 8155 8155 8163 8161 8157 8164 8162 8162 8168 8162 8159 8162 8154 8159 8161 8168 8164 8165 8166 8168 8165 8167 8164 8167 8162 8160 8161 8163 8164 8164 8166 8163 8162 8159 8159 8160 8160 8160 8164 8162 8160 8158 8160 8163 8167 8166 8167 8164 8164 8164 8162 8160 8163 8166 8167 8169 8168 8164 
8164 8170 8167 8165 8160 8162 8160 8158 8154 8160 8162 8161 8157 8155 8161 8159 8161 8161 8161 8163 8159 8160 8158 8158 8162 8162 8161 8162 8158 8160 8168 8161 8156 8159 8157 8161 8162 8168 8166 8163 8166 8165 8166 8168 8163 8161 8161 8158 8163 8162 8162 8167 8166 8164 8162 8161 8162 8162 8163 8162 8162 8156 8158 8160 8163 8164 8163 8162 8166 8163 8162 8164 8160 8161 8158 8163 8164 8164 8164 8162 
8169 8155 8167 8166 8163 8161 8157 8161 8156 8155 8162 8160 8161 8159 8162 8162 8156 8157 8162 8163 8159 8160 8157 8160 8160 8161 8163 8162 8156 8164 8157 8159 8159 8159 8158 8162 8163 8163 8163 8163 8163 8164 8164 8166 8163 8162 8161 8160 8162 8160 8160 8164 8167 8164 8162 8161 8163 8162 8160 8160 8166 8162 8160 8162 8164 8166 8166 8166 8163 8166 8164 8163 8161 8162 8159 8160 8159 8163 8163 8160 
8172 8150 8158 8164 8160 8158 8155 8159 8156 8159 8161 8156 8155 8157 8163 8162 8162 8160 8164 8163 8157 8159 8156 8157 8161 8163 8165 8156 8159 8162 8160 8161 8156 8163 8159 8161 8162 8164 8163 8163 8165 8162 8163 8162 8162 8162 8156 8161 8158 8161 8164 8164 8165 8164 8162 8161 8162 8159 8163 8162 8161 8159 8159 8161 8167 8162 8164 8164 8162 8163 8163 8164 8158 8163 8158 8161 8159 8164 8161 8162 
8169 8149 8156 8165 8160 8158 8154 8155 8155 8159 8157 8159 8155 8158 8155 8162 8159 8159 8163 8159 8159 8160 8159 8157 8158 8161 8162 8162 8160 8164 8164 8163 8165 8163 8162 8163 8163 8165 8163 8163 8165 8163 8159 8161 8160 8160 8157 8161 8158 8161 8162 8161 8164 8160 8159 8156 8158 8157 8158 8159 8163 8161 8160 8163 8162 8164 8163 8163 8164 8164 8162 8162 8160 8165 8164 8159 8159 8160 8162 8158 
8166 8155 8161 8157 8156 8160 8159 8162 8153 8165 8159 8157 8160 8161 8160 8160 8162 8162 8160 8161 8158 8163 8161 8158 8158 8166 8167 8160 8160 8163 8162 8161 8163 8163 8161 8163 8166 8164 8160 8162 8162 8160 8159 8160 8161 8161 8156 8157 8160 8162 8160 8163 8163 8161 8158 8157 8160 8157 8158 8159 8164 8161 8162 8162 8164 8162 8165 8166 8166 8163 8162 8164 8162 8163 8161 8158 8156 8160 8159 8159 
8164 8150 8159 8159 8157 8158 8163 8161 8162 8158 8157 8160 8164 8160 8161 8161 8159 8163 8158 8157 8158 8162 8165 8163 8163 8166 8167 8162 8158 8159 8158 8163 8163 8164 8164 8160 8162 8163 8160 8162 8160 8159 8160 8158 8161 8161 8157 8157 8158 8158 8162 8165 8159 8158 8158 8155 8160 8156 8157 8157 8160 8163 8163 8163 8163 8163 8163 8163 8165 8166 8162 8163 8158 8162 8159 8160 8154 8159 8156 8153 
8164 8153 8162 8159 8152 8164 8160 8161 8163 8154 8162 8160 8164 8159 8162 8163 8158 8160 8159 8162 8160 8163 8163 8157 8160 8158 8162 8159 8160 8161 8159 8163 8160 8161 8162 8162 8163 8164 8160 8160 8157 8156 8157 8159 8157 8158 8158 8156 8157 8156 8159 8160 8162 8160 8159 8158 8160 8158 8162 8159 8161 8162 8166 8164 8162 8163 8162 8164 8166 8167 8163 8165 8158 8160 8156 8159 8155 8158 8155 8157 
8166 8159 8153 8145 8154 8155 8153 8159 8161 8156 8155 8159 8158 8156 8157 8161 8161 8156 8152 8158 8155 8158 8161 8158 8157 8157 8160 8159 8161 8159 8159 8160 8160 8161 8158 8160 8161 8158 8159 8156 8146 8141 8144 8145 8149 8157 8152 8157 8157 8155 8156 8159 8162 8160 8159 8161 8159 8160 8157 8158 8159 8161 8165 8165 8166 8164 8164 8167 8163 8165 8163 8163 8155 8160 8157 8158 8155 8161 8155 8154 
8165 8161 8158 8165 8162 8161 8146 8160 8150 8158 8157 8156 8164 8161 8154 8159 8158 8155 8151 8156 8160 8158 8161 8159 8157 8162 8159 8158 8154 8154 8147 8148 8146 8156 8157 8151 8145 8149 8150 8127 8118 8115 8121 8121 8131 8146 8149 8152 8155 8150 8156 8160 8158 8161 8158 8161 8160 8163 8160 8159 8156 8160 8162 8167 8164 8164 8164 8172 8163 8168 8164 8163 8158 8159 8159 8160 8158 8161 8160 8153 
8165 8158 8161 8164 8161 8157 8146 8143 8148 8159 8160 8159 8156 8161 8157 8156 8156 8149 8147 8155 8157 8160 8158 8161 8161 8158 8159 8150 8127 8125 8126 8134 8141 8156 8152 8147 8142 8126 8130 8123 8124 8132 8137 8143 8150 8153 8150 8150 8150 8152 8154 8158 8159 8157 8158 8159 8159 8160 8160 8156 8160 8161 8165 8168 8163 8165 8168 8169 8163 8167 8161 8162 8158 8159 8158 8159 8157 8162 8158 8155 
8166 8161 8160 8157 8161 8159 8154 8146 8160 8157 8160 8161 8161 8155 8160 8158 8159 8158 8151 8159 8160 8160 8161 8159 8156 8156 8159 8154 8137 8121 8115 8143 8141 8142 8133 8136 8145 8149 8134 8131 8143 8145 8151 8158 8156 8152 8152 8149 8155 8157 8161 8159 8162 8160 8160 8162 8160 8160 8161 8161 8160 8161 8166 8166 8167 8168 8167 8169 8165 8163 8161 8162 8158 8157 8161 8158 8157 8162 8159 8157 
8165 8155 8158 8167 8162 8160 8151 8161 8164 8154 8161 8160 8164 8160 8160 8159 8158 8160 8153 8155 8161 8163 8162 8156 8155 8155 8158 8153 8141 8122 8128 8141 8143 8135 8117 8122 8134 8153 8145 8137 8133 8138 8144 8148 8153 8152 8152 8153 8151 8155 8153 8153 8154 8159 8161 8160 8161 8161 8163 8163 8162 8165 8165 8167 8166 8168 8168 8169 8165 8165 8159 8164 8159 8161 8159 8158 8159 8161 8162 8157 
8163 8154 8158 8164 8162 8156 8158 8149 8150 8154 8157 8164 8161 8162 8164 8160 8160 8157 8158 8154 8162 8161 8163 8155 8157 8153 8152 8147 8142 8123 8129 8139 8133 8126 8128 8132 8133 8139 8137 8128 8131 8131 8136 8140 8140 8139 8143 8147 8149 8145 8140 8140 8143 8152 8157 8161 8162 8161 8162 8162 8165 8164 8166 8166 8170 8168 8170 8168 8167 8166 8160 8163 8159 8163 8163 8162 8161 8164 8163 8159 
8164 8156 8156 8159 8157 8161 8155 8148 8156 8157 8156 8164 8158 8164 8159 8158 8159 8160 8159 8154 8160 8158 8158 8156 8151 8148 8148 8139 8144 8127 8127 8131 8131 8134 8139 8129 8128 8132 8136 8133 8134 8134 8134 8135 8136 8139 8136 8141 8148 8148 8144 8146 8141 8146 8153 8159 8161 8162 8164 8163 8166 8162 8167 8166 8169 8169 8169 8169 8166 8163 8164 8163 8163 8159 8162 8163 8162 8169 8165 8160 
8161 8160 8165 8164 8164 8156 8158 8158 8156 8159 8155 8163 8166 8159 8160 8158 8158 8161 8160 8156 8154 8154 8156 8147 8131 8140 8126 8132 8133 8127 8132 8142 8134 8126 8140 8128 8123 8129 8129 8124 8135 8133 8142 8145 8142 8143 8134 8138 8149 8155 8153 8159 8151 8148 8144 8155 8161 8162 8166 8166 8165 8166 8164 8167 8168 8169 8170 8166 8169 8163 8164 8163 8161 8163 8163 8164 8162 8169 8168 8160 
8161 8155 8160 8165 8158 8163 8159 8160 8163 8165 8165 8166 8165 8160 8162 8144 8137 8143 8148 8152 8151 8152 8156 8148 8133 8131 8131 8135 8116 8125 8135 8156 8151 8152 8139 8131 8131 8122 8124 8123 8131 8124 8139 8141 8149 8152 8144 8140 8138 8152 8153 8161 8162 8162 8158 8159 8157 8162 8162 8163 8166 8164 8168 8167 8170 8169 8171 8170 8168 8165 8164 8166 8164 8166 8162 8164 8164 8173 8170 8165 
8166 8151 8158 8161 8160 8163 8166 8162 8163 8157 8167 8167 8164 8162 8151 8135 8135 8143 8150 8156 8150 8144 8151 8148 8128 8124 8127 8128 8118 8131 8134 8142 8139 8132 8134 8135 8139 8133 8136 8129 8130 8123 8132 8135 8131 8133 8131 8139 8146 8153 8156 8159 8166 8172 8166 8166 8160 8162 8161 8164 8165 8165 8167 8170 8171 8168 8167 8169 8166 8165 8166 8166 8163 8164 8165 8168 8166 8175 8173 8165 
8164 8157 8160 8161 8164 8165 8160 8161 8166 8155 8163 8158 8158 8160 8148 8142 8143 8150 8149 8140 8131 8130 8134 8138 8133 8133 8128 8127 8120 8119 8130 8127 8132 8122 8121 8131 8141 8140 8138 8129 8135 8125 8128 8133 8127 8130 8136 8146 8153 8158 8158 8161 8158 8172 8172 8176 8169 8161 8162 8165 8164 8167 8170 8167 8168 8167 8170 8167 8166 8166 8163 8165 8164 8168 8163 8170 8167 8174 8169 8165 
8164 8150 8158 8158 8157 8166 8158 8159 8165 8157 8156 8163 8158 8152 8144 8142 8152 8149 8137 8135 8131 8136 8145 8146 8135 8129 8128 8126 8128 8125 8126 8125 8130 8124 8120 8124 8125 8125 8129 8122 8130 8128 8133 8132 8130 8128 8143 8155 8159 8163 8161 8162 8163 8164 8163 8171 8173 8164 8164 8163 8166 8167 8168 8169 8169 8168 8170 8167 8167 8165 8165 8168 8167 8165 8165 8168 8167 8173 8171 8168 
8165 8156 8158 8161 8160 8162 8157 8159 8167 8160 8158 8159 8152 8149 8147 8152 8156 8149 8139 8143 8143 8141 8139 8139 8138 8130 8126 8127 8127 8123 8114 8118 8128 8129 8124 8129 8124 8117 8120 8119 8132 8145 8137 8142 8137 8134 8139 8148 8151 8156 8158 8163 8166 8169 8160 8161 8166 8164 8162 8165 8164 8163 8167 8168 8169 8166 8168 8165 8165 8165 8166 8166 8160 8163 8165 8168 8165 8172 8168 8167 
8163 8153 8166 8162 8163 8164 8156 8159 8164 8158 8159 8158 8148 8150 8151 8154 8156 8156 8159 8147 8141 8143 8144 8140 8141 8137 8118 8121 8121 8121 8114 8125 8130 8140 8140 8138 8136 8132 8121 8127 8132 8148 8154 8153 8154 8150 8151 8137 8150 8145 8145 8154 8158 8160 8159 8161 8159 8162 8157 8161 8162 8165 8167 8166 8164 8163 8166 8166 8167 8164 8164 8165 8165 8162 8165 8167 8166 8170 8167 8164 
8169 8157 8163 8161 8160 8160 8161 8162 8162 8157 8160 8155 8146 8149 8159 8156 8159 8161 8159 8152 8141 8145 8137 8131 8141 8127 8122 8126 8126 8128 8123 8129 8137 8140 8146 8143 8143 8137 8125 8122 8119 8131 8147 8154 8153 8152 8152 8148 8141 8139 8137 8143 8146 8159 8162 8162 8161 8164 8158 8163 8161 8161 8162 8162 8166 8162 8166 8165 8161 8165 8163 8164 8162 8163 8164 8165 8163 8169 8166 8160 
8170 8159 8162 8165 8162 8161 8164 8161 8160 8154 8151 8146 8150 8156 8161 8161 8160 8160 8160 8149 8146 8139 8141 8129 8131 8129 8131 8133 8132 8133 8134 8133 8138 8141 8148 8148 8142 8140 8137 8135 8126 8125 8136 8153 8156 8157 8152 8160 8158 8156 8142 8147 8144 8147 8161 8159 8166 8164 8161 8164 8161 8164 8163 8161 8163 8162 8166 8163 8163 8161 8162 8165 8166 8165 8166 8168 8164 8169 8168 8163 
8172 8160 8162 8163 8163 8162 8165 8160 8164 8156 8150 8146 8153 8160 8158 8159 8159 8157 8157 8150 8144 8141 8151 8134 8137 8139 8138 8137 8137 8137 8135 8130 8138 8145 8144 8143 8141 8134 8141 8141 8139 8132 8149 8156 8161 8161 8160 8162 8156 8165 8147 8154 8152 8154 8161 8159 8164 8162 8161 8164 8159 8159 8162 8164 8165 8160 8166 8160 8159 8159 8163 8161 8161 8162 8164 8165 8161 8168 8169 8163 
8167 8163 8163 8162 8159 8164 8165 8162 8159 8160 8157 8153 8158 8158 8162 8157 8158 8155 8158 8157 8153 8157 8150 8141 8142 8140 8136 8140 8141 8139 8136 8134 8136 8140 8130 8131 8129 8133 8146 8155 8150 8147 8154 8156 8158 8156 8154 8156 8154 8159 8158 8161 8157 8158 8159 8161 8163 8164 8161 8164 8161 8163 8159 8159 8158 8160 8161 8162 8162 8160 8161 8164 8165 8166 8165 8169 8167 8167 8169 8166 
8166 8162 8163 8162 8163 8165 8163 8164 8159 8162 8161 8150 8157 8159 8159 8159 8158 8156 8158 8156 8158 8152 8152 8148 8140 8147 8143 8142 8139 8145 8140 8139 8135 8139 8124 8124 8122 8136 8147 8144 8156 8157 8158 8157 8160 8158 8163 8158 8159 8163 8159 8164 8163 8171 8163 8163 8164 8166 8160 8162 8157 8157 8161 8160 8164 8158 8161 8159 8163 8161 8161 8159 8158 8162 8163 8164 8162 8164 8165 8163 
8158 8164 8171 8165 8164 8165 8165 8162 8162 8162 8161 8156 8161 8157 8159 8153 8155 8154 8160 8157 8157 8154 8158 8154 8148 8151 8155 8150 8146 8147 8147 8137 8129 8129 8126 8124 8121 8128 8147 8148 8152 8158 8160 8158 8156 8156 8154 8152 8156 8156 8162 8164 8166 8166 8161 8162 8164 8165 8162 8162 8162 8161 8159 8159 8159 8161 8158 8162 8159 8159 8157 8161 8164 8162 8166 8163 8164 8165 8167 8162 
8160 8163 8170 8160 8163 8165 8160 8159 8160 8158 8158 8159 8160 8157 8163 8157 8159 8158 8160 8163 8159 8156 8159 8157 8156 8154 8156 8150 8154 8156 8145 8116 8131 8131 8122 8123 8126 8124 8133 8142 8147 8147 8157 8158 8159 8158 8157 8153 8156 8158 8161 8165 8165 8166 8168 8165 8164 8164 8161 8160 8158 8161 8160 8159 8161 8162 8159 8159 8156 8160 8160 8159 8160 8161 8165 8163 8164 8166 8167 8161 
8161 8153 8163 8152 8159 8161 8158 8157 8162 8161 8158 8161 8160 8161 8163 8161 8157 8162 8163 8161 8160 8158 8157 8161 8159 8152 8153 8160 8159 8157 8149 8126 8129 8136 8128 8126 8122 8119 8120 8132 8128 8126 8139 8155 8155 8155 8152 8154 8155 8162 8158 8163 8165 8162 8166 8161 8162 8166 8158 8163 8161 8161 8159 8159 8162 8160 8162 8163 8161 8157 8158 8163 8161 8159 8164 8165 8162 8168 8168 8160 
8164 8154 8157 8154 8154 8161 8157 8161 8159 8163 8162 8163 8162 8164 8161 8156 8158 8163 8158 8158 8159 8155 8159 8162 8155 8151 8154 8157 8155 8144 8139 8121 8131 8135 8134 8133 8125 8133 8127 8133 8131 8125 8133 8153 8161 8163 8158 8158 8158 8161 8158 8160 8163 8164 8167 8164 8164 8165 8162 8163 8164 8164 8165 8163 8162 8159 8163 8159 8160 8163 8160 8165 8161 8162 8164 8163 8161 8168 8166 8162 
8165 8159 8160 8156 8158 8157 8156 8161 8162 8163 8160 8160 8165 8164 8163 8157 8155 8157 8155 8161 8162 8156 8159 8160 8151 8155 8150 8152 8140 8133 8142 8138 8135 8133 8137 8139 8132 8137 8138 8137 8133 8135 8135 8150 8157 8162 8158 8161 8158 8161 8158 8162 8163 8162 8165 8162 8164 8162 8161 8165 8164 8163 8165 8160 8165 8163 8162 8160 8157 8161 8158 8164 8162 8165 8163 8162 8166 8167 8165 8163 
8166 8161 8159 8156 8159 8157 8160 8156 8160 8160 8160 8162 8165 8166 8161 8161 8162 8161 8158 8160 8157 8156 8158 8155 8146 8151 8146 8137 8134 8138 8145 8148 8148 8145 8142 8144 8143 8143 8143 8147 8141 8142 8145 8149 8155 8162 8158 8163 8159 8163 8160 8163 8164 8163 8162 8163 8167 8165 8162 8163 8162 8164 8164 8165 8163 8159 8161 8160 8161 8162 8165 8160 8163 8164 8163 8163 8160 8167 8167 8159 
8165 8157 8157 8156 8157 8158 8160 8156 8158 8159 8158 8161 8167 8163 8164 8163 8163 8162 8161 8160 8159 8162 8158 8141 8143 8148 8144 8138 8145 8145 8156 8159 8151 8143 8146 8150 8152 8143 8136 8156 8143 8141 8145 8146 8157 8169 8167 8168 8161 8163 8161 8161 8163 8161 8161 8162 8162 8161 8160 8159 8162 8162 8160 8161 8160 8158 8161 8164 8161 8162 8161 8163 8161 8164 8163 8161 8163 8167 8168 8164 
8164 8162 8159 8158 8161 8163 8162 8159 8160 8160 8157 8162 8164 8161 8164 8163 8165 8163 8159 8160 8159 8158 8151 8144 8141 8150 8140 8153 8154 8156 8160 8171 8159 8155 8155 8165 8167 8167 8156 8161 8167 8153 8146 8156 8166 8186 8183 8181 8179 8181 8175 8172 8164 8164 8167 8161 8163 8161 8160 8160 8160 8161 8157 8159 8162 8157 8164 8161 8160 8162 8160 8162 8161 8160 8163 8162 8163 8168 8167 8162 
8166 8162 8159 8158 8160 8162 8163 8164 8170 8168 8167 8161 8162 8163 8164 8164 8164 8162 8159 8163 8160 8161 8147 8144 8146 8151 8156 8165 8165 8167 8167 8173 8159 8156 8158 8168 8167 8172 8165 8166 8172 8174 8158 8156 8165 8183 8184 8191 8184 8196 8192 8182 8165 8164 8160 8160 8161 8162 8156 8160 8161 8159 8160 8159 8161 8160 8162 8158 8163 8163 8161 8164 8165 8169 8167 8169 8166 8165 8167 8164 
8163 8157 8162 8164 8159 8164 8165 8165 8165 8164 8166 8167 8165 8162 8165 8162 8163 8161 8160 8161 8165 8164 8167 8157 8159 8164 8163 8165 8162 8167 8161 8152 8147 8147 8158 8166 8154 8160 8168 8166 8169 8175 8178 8165 8172 8189 8190 8202 8209 8235 8221 8176 8166 8167 8164 8163 8162 8162 8160 8161 8161 8157 8158 8159 8159 8159 8161 8161 8162 8164 8164 8167 8165 8169 8166 8171 8167 8168 8168 8165 
8164 8154 8164 8160 8159 8167 8165 8165 8168 8165 8166 8170 8167 8167 8166 8162 8164 8163 8163 8161 8166 8173 8171 8172 8172 8176 8172 8176 8170 8172 8164 8164 8158 8165 8159 8161 8161 8164 8167 8171 8176 8184 8180 8183 8188 8194 8198 8222 8233 8244 8209 8173 8168 8163 8163 8157 8159 8162 8156 8157 8158 8157 8160 8159 8157 8154 8160 8158 8160 8164 8162 8171 8165 8167 8165 8174 8165 8170 8171 8161 
8161 8155 8158 8156 8163 8164 8169 8161 8162 8159 8164 8164 8166 8170 8165 8164 8163 8163 8164 8162 8161 8173 8180 8179 8180 8181 8184 8184 8183 8183 8184 8186 8183 8188 8187 8191 8190 8193 8191 8195 8195 8202 8193 8197 8195 8198 8204 8211 8214 8212 8192 8170 8165 8164 8164 8159 8161 8159 8155 8157 8159 8160 8158 8158 8155 8160 8161 8161 8161 8166 8164 8165 8165 8169 8168 8170 8167 8168 8169 8165 
8162 8155 8155 8160 8160 8162 8160 8165 8158 8158 8162 8164 8165 8167 8166 8164 8162 8163 8164 8163 8162 8167 8178 8183 8186 8186 8191 8189 8189 8187 8190 8188 8189 8191 8194 8195 8201 8200 8206 8205 8203 8210 8204 8205 8205 8209 8209 8214 8211 8218 8185 8168 8163 8165 8163 8160 8160 8159 8159 8158 8160 8164 8158 8157 8153 8160 8160 8161 8163 8165 8166 8168 8164 8168 8166 8171 8166 8168 8168 8163 
8160 8155 8161 8162 8167 8163 8164 8169 8168 8162 8161 8161 8160 8164 8167 8162 8162 8162 8162 8163 8164 8165 8170 8174 8180 8186 8185 8189 8191 8189 8191 8190 8187 8193 8191 8196 8203 8203 8206 8212 8214 8219 8216 8224 8221 8222 8216 8230 8241 8206 8167 8164 8168 8162 8165 8158 8160 8159 8158 8163 8161 8162 8159 8158 8158 8158 8159 8158 8166 8163 8168 8167 8166 8170 8163 8169 8162 8165 8168 8163 
8162 8158 8161 8160 8167 8166 8166 8168 8162 8166 8161 8164 8167 8166 8168 8162 8160 8162 8163 8164 8164 8164 8168 8171 8172 8175 8176 8181 8180 8180 8182 8182 8183 8184 8188 8189 8195 8196 8197 8205 8221 8237 8234 8229 8225 8210 8199 8217 8235 8190 8164 8163 8164 8161 8160 8160 8162 8161 8156 8165 8161 8162 8162 8157 8157 8159 8160 8161 8164 8164 8167 8165 8164 8168 8168 8163 8160 8166 8167 8163 
8163 8163 8160 8161 8164 8162 8167 8167 8160 8167 8163 8169 8163 8167 8166 8164 8163 8162 8163 8159 8163 8163 8164 8165 8168 8170 8170 8175 8176 8174 8175 8175 8174 8180 8179 8182 8184 8190 8190 8199 8218 8227 8227 8221 8213 8201 8191 8193 8194 8172 8161 8162 8165 8161 8160 8159 8158 8159 8157 8160 8161 8161 8159 8160 8159 8156 8157 8158 8162 8163 8163 8161 8164 8164 8163 8166 8157 8162 8164 8162 
8162 8159 8163 8162 8158 8163 8162 8164 8156 8164 8165 8163 8164 8166 8166 8162 8161 8158 8159 8160 8164 8162 8163 8163 8165 8160 8165 8170 8173 8173 8171 8173 8171 8175 8177 8180 8183 8185 8185 8188 8199 8203 8204 8199 8195 8186 8183 8188 8180 8167 8161 8163 8157 8159 8157 8160 8157 8158 8155 8158 8155 8157 8158 8157 8158 8157 8159 8161 8161 8161 8163 8163 8163 8164 8165 8160 8156 8161 8164 8162 
8162 8157 8164 8158 8151 8160 8164 8159 8161 8167 8163 8163 8164 8165 8163 8158 8156 8161 8160 8159 8165 8159 8164 8164 8164 8160 8162 8170 8174 8173 8173 8171 8175 8174 8175 8175 8180 8179 8181 8180 8186 8186 8186 8183 8186 8179 8180 8182 8175 8163 8154 8159 8156 8158 8154 8159 8154 8157 8153 8159 8159 8155 8158 8157 8153 8156 8161 8160 8160 8160 8163 8166 8165 8160 8159 8160 8157 8161 8164 8158 
8162 8160 8160 8148 8157 8160 8159 8153 8158 8158 8158 8157 8155 8159 8161 8154 8155 8156 8158 8158 8157 8158 8158 8159 8164 8162 8165 8169 8170 8172 8172 8172 8169 8172 8171 8173 8178 8175 8174 8179 8180 8179 8176 8176 8181 8178 8172 8175 8170 8161 8154 8158 8155 8156 8151 8152 8152 8156 8155 8156 8156 8154 8156 8153 8158 8158 8163 8162 8161 8163 8161 8161 8162 8160 8158 8156 8155 8154 8159 8159 
8168 8159 8149 8152 8150 8147 8145 8159 8159 8153 8155 8152 8153 8155 8156 8149 8148 8150 8153 8154 8153 8152 8150 8156 8164 8164 8167 8167 8167 8168 8169 8168 8165 8169 8168 8168 8172 8174 8176 8177 8179 8172 8172 8171 8174 8172 8173 8173 8163 8156 8153 8157 8155 8151 8153 8151 8155 8156 8156 8157 8154 8153 8155 8154 8159 8160 8161 8162 8163 8164 8161 8162 8159 8160 8157 8156 8154 8156 8165 8157 
8179 8162 8159 8151 8150 8147 8148 8151 8153 8145 8148 8147 8145 8142 8146 8144 8139 8145 8143 8143 8149 8146 8146 8153 8162 8164 8165 8164 8160 8165 8164 8159 8161 8166 8164 8161 8168 8167 8165 8173 8173 8172 8171 8167 8175 8171 8172 8176 8168 8159 8156 8163 8157 8160 8157 8160 8160 8160 8159 8162 8159 8158 8158 8162 8162 8166 8165 8168 8167 8167 8170 8170 8169 8170 8165 8163 8157 8160 8166 8159 


