P2
80 60
8169
8134 8119 8136 8133 8146 8136 8131 8131 8135 8130 8138 8140 8138 8141 8139 8144 8138 8133 8138 8137 8141 8151 8153 8151 8152 8157 8149 8153 8158 8159 8160 8163 8169 8164 8161 8160 8160 8162 8162 8164 8161 8158 8154 8149 8150 8152 8152 8150 8147 8145 8139 8139 8133 8130 8128 8128 8131 8126 8131 8132 8133 8132 8129 8128 8131 8135 8136 8139 8141 8146 8148 8148 8150 8144 8149 8147 8143 8149 8150 8152 
8133 8128 8143 8133 8141 8140 8132 8132 8130 8140 8135 8134 8134 8135 8129 8138 8132 8131 8132 8139 8147 8148 8151 8148 8155 8152 8139 8149 8157 8153 8161 8164 8158 8161 8158 8156 8155 8159 8164 8161 8158 8160 8147 8146 8152 8150 8148 8149 8143 8145 8138 8139 8138 8133 8123 8131 8131 8127 8127 8132 8133 8129 8131 8126 8128 8131 8134 8138 8142 8144 8146 8141 8148 8144 8147 8142 8146 8144 8149 8151 
8114 8117 8130 8123 8137 8126 8127 8130 8127 8130 8135 8130 8121 8135 8132 8130 8135 8137 8132 8139 8137 8145 8151 8150 8151 8152 8145 8151 8156 8149 8152 8157 8154 8159 8159 8154 8150 8159 8162 8159 8158 8152 8147 8146 8149 8149 8144 8145 8140 8140 8136 8132 8134 8137 8135 8128 8130 8128 8126 8123 8133 8132 8128 8130 8128 8128 8129 8133 8138 8142 8140 8140 8143 8141 8142 8138 8148 8144 8143 8146 
8135 8111 8142 8124 8139 8125 8134 8133 8134 8133 8126 8116 8132 8130 8128 8133 8131 8134 8131 8134 8135 8134 8130 8152 8149 8149 8149 8154 8154 8159 8152 8157 8159 8155 8163 8152 8155 8158 8160 8160 8158 8150 8146 8142 8147 8144 8147 8145 8143 8136 8135 8131 8136 8132 8132 8135 8129 8122 8125 8125 8132 8127 8125 8127 8122 8122 8127 8127 8133 8138 8138 8138 8140 8141 8138 8133 8146 8142 8146 8145 
8130 8110 8137 8123 8130 8131 8132 8121 8125 8131 8128 8118 8127 8134 8126 8130 8128 8125 8134 8128 8132 8139 8134 8141 8147 8149 8143 8145 8148 8157 8150 8156 8155 8153 8157 8152 8154 8157 8157 8157 8156 8151 8143 8139 8139 8140 8144 8138 8138 8137 8138 8134 8132 8135 8133 8132 8125 8129 8126 8128 8130 8126 8125 8124 8121 8125 8117 8120 8129 8131 8130 8136 8136 8135 8126 8132 8138 8135 8139 8144 
8136 8116 8123 8120 8125 8126 8134 8132 8131 8133 8120 8124 8133 8125 8122 8127 8131 8122 8131 8138 8133 8133 8145 8138 8151 8149 8145 8146 8147 8154 8154 8154 8155 8150 8153 8153 8153 8154 8155 8155 8156 8149 8146 8137 8139 8145 8141 8141 8136 8136 8135 8132 8134 8131 8131 8132 8128 8129 8128 8126 8128 8129 8125 8123 8119 8124 8121 8118 8126 8130 8128 8126 8132 8125 8124 8127 8131 8129 8133 8137 
8131 8121 8124 8131 8128 8126 8139 8136 8127 8120 8112 8133 8134 8118 8125 8130 8121 8124 8133 8140 8127 8138 8143 8143 8152 8147 8135 8140 8146 8151 8151 8153 8150 8149 8154 8151 8151 8150 8155 8157 8153 8149 8144 8139 8143 8142 8144 8140 8136 8136 8132 8129 8131 8135 8127 8131 8122 8127 8125 8126 8124 8127 8128 8123 8121 8123 8126 8127 8117 8118 8128 8128 8126 8123 8124 8125 8122 8120 8129 8132 
8134 8121 8109 8120 8119 8129 8134 8141 8134 8106 8129 8131 8130 8126 8133 8130 8129 8129 8131 8130 8138 8137 8143 8147 8148 8148 8130 8140 8145 8153 8152 8153 8155 8154 8153 8151 8149 8152 8150 8152 8151 8147 8143 8144 8142 8142 8140 8134 8133 8133 8130 8129 8129 8127 8126 8128 8123 8127 8122 8124 8121 8124 8124 8122 8120 8128 8125 8129 8118 8117 8119 8117 8123 8120 8122 8119 8116 8124 8125 8126 
8136 8108 8108 8113 8126 8120 8139 8133 8131 8116 8124 8124 8123 8127 8121 8124 8124 8122 8131 8135 8136 8126 8133 8139 8134 8142 8130 8141 8144 8146 8146 8144 8145 8144 8152 8152 8151 8150 8149 8149 8145 8145 8142 8138 8141 8141 8136 8137 8135 8131 8129 8128 8129 8127 8128 8122 8124 8122 8120 8125 8122 8119 8118 8118 8116 8118 8119 8122 8117 8122 8116 8118 8114 8118 8116 8119 8118 8117 8119 8121 
8139 8104 8113 8124 8127 8130 8121 8132 8132 8124 8123 8124 8125 8126 8123 8116 8131 8123 8128 8138 8128 8128 8134 8136 8134 8137 8135 8145 8144 8146 8142 8145 8145 8142 8152 8151 8148 8151 8148 8147 8142 8147 8139 8135 8137 8144 8143 8136 8134 8131 8127 8128 8128 8128 8124 8119 8122 8123 8124 8124 8128 8123 8122 8120 8117 8119 8117 8121 8116 8120 8121 8119 8117 8113 8114 8112 8117 8120 8117 8120 
8134 8107 8123 8122 8123 8129 8113 8125 8127 8114 8123 8114 8123 8125 8119 8120 8126 8114 8117 8123 8126 8128 8131 8137 8134 8132 8137 8144 8145 8148 8144 8140 8140 8146 8149 8144 8143 8146 8147 8146 8142 8144 8137 8139 8140 8144 8140 8136 8132 8130 8129 8130 8128 8126 8121 8117 8122 8120 8123 8121 8120 8121 8123 8118 8115 8119 8123 8119 8116 8118 8115 8117 8113 8108 8112 8104 8109 8111 8113 8116 
8127 8125 8126 8124 8117 8127 8117 8126 8131 8116 8129 8116 8122 8124 8121 8124 8121 8117 8120 8131 8135 8135 8126 8136 8140 8139 8137 8140 8146 8147 8145 8144 8140 8144 8142 8137 8141 8145 8146 8143 8142 8145 8143 8143 8141 8143 8138 8133 8131 8131 8131 8130 8131 8129 8124 8120 8121 8117 8122 8123 8120 8118 8121 8118 8114 8118 8123 8117 8116 8112 8117 8114 8112 8112 8106 8106 8116 8109 8111 8116 
8134 8116 8115 8113 8110 8126 8126 8112 8122 8122 8114 8113 8116 8115 8124 8124 8117 8120 8124 8126 8123 8132 8127 8132 8139 8134 8130 8142 8143 8145 8152 8138 8144 8143 8142 8139 8146 8148 8144 8141 8139 8142 8146 8142 8142 8140 8137 8133 8130 8129 8131 8128 8129 8133 8127 8119 8120 8119 8120 8119 8124 8116 8120 8112 8117 8119 8119 8119 8118 8111 8111 8109 8110 8106 8105 8109 8117 8111 8109 8113 
8133 8128 8128 8127 8123 8124 8125 8127 8117 8121 8128 8120 8117 8116 8120 8119 8124 8119 8125 8127 8126 8130 8128 8133 8134 8134 8134 8139 8138 8142 8144 8137 8141 8142 8145 8141 8139 8145 8141 8139 8140 8143 8140 8139 8140 8139 8139 8135 8133 8128 8127 8129 8128 8130 8127 8119 8119 8120 8121 8121 8120 8115 8117 8118 8122 8122 8120 8120 8118 8115 8113 8115 8111 8108 8103 8110 8111 8113 8111 8114 
8136 8113 8128 8125 8124 8124 8121 8128 8121 8117 8122 8119 8121 8117 8123 8121 8120 8114 8121 8130 8118 8127 8126 8132 8132 8135 8135 8132 8135 8145 8136 8137 8137 8137 8141 8139 8141 8140 8141 8137 8137 8139 8136 8136 8136 8137 8130 8128 8132 8127 8124 8128 8131 8129 8125 8121 8121 8121 8121 8121 8120 8113 8114 8118 8121 8125 8121 8117 8118 8115 8114 8113 8113 8110 8105 8107 8110 8107 8110 8113 
8139 8102 8117 8121 8117 8117 8117 8123 8118 8125 8123 8114 8115 8109 8120 8123 8121 8116 8120 8129 8121 8128 8123 8130 8129 8133 8131 8132 8131 8140 8138 8136 8136 8139 8138 8137 8142 8138 8137 8136 8138 8137 8135 8132 8136 8135 8129 8131 8125 8125 8125 8123 8126 8128 8120 8121 8119 8115 8117 8119 8121 8111 8116 8116 8122 8123 8118 8118 8112 8111 8115 8110 8110 8106 8103 8107 8108 8110 8109 8110 
8137 8101 8111 8119 8114 8110 8116 8112 8122 8122 8121 8121 8114 8113 8111 8122 8111 8119 8121 8120 8114 8124 8127 8124 8124 8124 8120 8130 8137 8137 8138 8137 8135 8136 8139 8136 8139 8139 8137 8134 8134 8137 8134 8130 8131 8132 8129 8126 8124 8127 8126 8127 8125 8123 8117 8117 8114 8115 8115 8118 8119 8109 8113 8115 8120 8118 8119 8119 8114 8111 8111 8112 8108 8113 8106 8107 8105 8110 8108 8108 
8135 8112 8116 8105 8111 8125 8117 8124 8115 8126 8119 8117 8128 8126 8124 8123 8116 8109 8118 8123 8119 8126 8126 8122 8124 8128 8131 8130 8131 8133 8135 8137 8137 8137 8138 8137 8135 8137 8137 8132 8129 8135 8131 8126 8131 8128 8130 8124 8127 8128 8123 8128 8121 8123 8115 8118 8113 8115 8116 8116 8115 8114 8118 8118 8119 8116 8119 8119 8115 8113 8112 8112 8112 8111 8109 8108 8107 8108 8104 8109 
8128 8109 8121 8117 8117 8114 8124 8123 8126 8117 8123 8116 8128 8119 8121 8119 8112 8110 8109 8110 8113 8126 8125 8125 8123 8131 8131 8123 8122 8118 8125 8133 8139 8138 8138 8134 8132 8134 8131 8129 8128 8129 8127 8126 8130 8129 8128 8130 8123 8123 8125 8126 8119 8119 8113 8116 8116 8114 8111 8114 8114 8115 8121 8117 8116 8114 8117 8116 8114 8115 8115 8113 8115 8111 8110 8111 8107 8106 8107 8111 
8130 8107 8120 8121 8113 8128 8125 8123 8124 8116 8125 8121 8124 8118 8126 8122 8114 8115 8109 8116 8106 8123 8123 8118 8124 8118 8124 8123 8120 8101 8107 8129 8132 8135 8138 8135 8130 8130 8131 8128 8126 8125 8126 8124 8127 8127 8126 8124 8125 8124 8123 8124 8119 8116 8116 8113 8112 8117 8111 8110 8114 8109 8119 8119 8115 8117 8115 8116 8114 8115 8114 8116 8112 8109 8110 8109 8106 8109 8108 8112 
8136 8116 8110 8101 8110 8115 8114 8123 8122 8115 8116 8119 8118 8114 8115 8126 8118 8113 8104 8113 8104 8114 8123 8123 8120 8114 8116 8127 8113 8096 8111 8125 8129 8130 8137 8131 8128 8128 8119 8123 8115 8119 8116 8118 8120 8123 8120 8122 8122 8121 8117 8120 8120 8119 8117 8117 8113 8115 8112 8108 8112 8111 8115 8119 8116 8116 8116 8118 8116 8116 8116 8114 8112 8110 8112 8110 8107 8107 8110 8111 
8135 8119 8117 8127 8124 8122 8103 8127 8110 8120 8116 8107 8127 8121 8108 8119 8115 8112 8101 8107 8109 8117 8116 8124 8117 8118 8119 8127 8121 8112 8117 8123 8130 8130 8132 8125 8126 8120 8079 8062 8069 8090 8096 8106 8113 8119 8112 8114 8118 8114 8117 8118 8117 8118 8117 8118 8113 8115 8108 8110 8112 8109 8120 8117 8117 8118 8117 8119 8118 8113 8115 8112 8110 8105 8112 8110 8108 8108 8112 8115 
8132 8111 8117 8126 8119 8115 8107 8099 8104 8118 8124 8116 8116 8117 8114 8117 8109 8105 8098 8107 8110 8115 8108 8111 8120 8120 8119 8121 8117 8113 8118 8119 8118 8101 8100 8113 8119 8113 8082 8046 8056 8074 8095 8101 8094 8086 8061 8066 8095 8112 8117 8117 8116 8117 8115 8117 8114 8116 8106 8108 8110 8112 8118 8116 8116 8116 8119 8119 8114 8113 8111 8109 8110 8107 8114 8110 8113 8114 8112 8113 
8134 8119 8120 8117 8120 8122 8115 8104 8119 8118 8121 8107 8116 8113 8118 8116 8112 8111 8104 8115 8111 8110 8080 8081 8118 8117 8117 8104 8071 8054 8060 8064 8062 8063 8060 8083 8091 8070 8073 8070 8094 8103 8103 8112 8115 8077 8040 8050 8095 8114 8113 8114 8113 8117 8111 8113 8115 8116 8105 8109 8108 8109 8113 8115 8122 8119 8119 8120 8112 8113 8111 8108 8112 8111 8111 8111 8108 8115 8115 8115 
8136 8105 8120 8127 8120 8115 8112 8121 8122 8114 8119 8112 8120 8116 8119 8116 8110 8113 8106 8106 8112 8112 8078 8075 8113 8112 8108 8091 8053 8044 8046 8039 8043 8056 8079 8089 8104 8078 8086 8064 8054 8068 8082 8106 8099 8058 8035 8053 8090 8091 8107 8114 8111 8103 8083 8090 8100 8112 8112 8112 8109 8110 8111 8115 8119 8119 8118 8121 8113 8112 8116 8112 8111 8109 8110 8109 8110 8108 8114 8114 
8137 8102 8112 8127 8117 8109 8120 8105 8103 8115 8114 8119 8117 8114 8118 8111 8110 8107 8095 8084 8092 8094 8089 8074 8097 8104 8090 8074 8051 8059 8041 8046 8058 8060 8077 8100 8100 8050 8061 8093 8072 8058 8057 8075 8045 8042 8032 8050 8059 8104 8118 8111 8110 8082 8058 8061 8072 8107 8109 8113 8113 8106 8109 8110 8113 8117 8118 8118 8112 8107 8112 8111 8110 8109 8111 8110 8109 8109 8113 8114 
8130 8111 8105 8118 8111 8115 8111 8101 8111 8114 8109 8123 8112 8116 8112 8095 8081 8095 8106 8103 8107 8106 8084 8046 8066 8093 8092 8058 8051 8040 8032 8037 8036 8048 8047 8063 8054 8044 8052 8077 8094 8049 8053 8061 8050 8035 8041 8048 8038 8083 8109 8110 8106 8067 8050 8051 8079 8108 8113 8117 8113 8108 8110 8110 8111 8116 8113 8112 8110 8107 8109 8107 8107 8107 8107 8109 8111 8108 8110 8114 
8128 8118 8120 8117 8120 8101 8107 8110 8109 8115 8105 8116 8121 8110 8100 8071 8104 8114 8114 8107 8110 8113 8088 8061 8094 8102 8086 8072 8058 8037 8031 8032 8033 8049 8042 8041 8038 8042 8054 8041 8071 8052 8037 8049 8057 8039 8045 8034 8049 8056 8100 8110 8097 8059 8061 8057 8091 8113 8119 8117 8117 8114 8115 8113 8113 8118 8114 8114 8107 8108 8107 8107 8105 8108 8110 8113 8115 8111 8113 8114 
8126 8107 8114 8121 8110 8106 8089 8108 8116 8126 8119 8124 8120 8111 8091 8092 8111 8114 8108 8108 8106 8109 8108 8099 8084 8093 8072 8065 8046 8033 8040 8038 8033 8039 8033 8035 8037 8061 8048 8037 8063 8056 8045 8043 8046 8029 8051 8046 8041 8049 8091 8106 8087 8054 8063 8071 8106 8114 8116 8118 8118 8111 8112 8114 8113 8116 8111 8108 8105 8105 8106 8107 8104 8104 8110 8110 8107 8118 8116 8118 
8125 8107 8116 8122 8108 8109 8106 8107 8119 8112 8125 8120 8121 8115 8109 8113 8112 8114 8112 8106 8088 8082 8092 8093 8047 8038 8069 8085 8052 8051 8067 8033 8034 8035 8039 8038 8049 8102 8103 8073 8083 8053 8046 8046 8035 8029 8046 8054 8040 8059 8084 8107 8076 8069 8065 8082 8113 8111 8111 8113 8111 8109 8113 8110 8115 8116 8113 8111 8103 8101 8105 8106 8104 8103 8112 8105 8107 8117 8113 8115 
8132 8116 8117 8125 8114 8110 8095 8114 8124 8110 8122 8113 8111 8120 8116 8118 8116 8111 8110 8062 8047 8086 8110 8109 8065 8038 8085 8084 8057 8064 8037 8030 8043 8039 8039 8042 8071 8105 8100 8097 8077 8091 8087 8047 8045 8035 8045 8061 8053 8101 8086 8103 8065 8065 8057 8089 8110 8110 8113 8111 8110 8113 8113 8114 8115 8114 8112 8110 8105 8103 8104 8105 8106 8107 8108 8104 8112 8110 8114 8115 
8130 8111 8111 8119 8108 8121 8107 8115 8123 8114 8111 8119 8118 8112 8114 8115 8117 8108 8097 8049 8087 8114 8115 8121 8104 8060 8057 8097 8071 8040 8033 8050 8049 8027 8037 8045 8038 8042 8043 8045 8059 8100 8096 8070 8063 8053 8044 8072 8078 8110 8106 8081 8065 8062 8056 8098 8107 8112 8112 8115 8112 8113 8113 8113 8114 8115 8111 8107 8108 8103 8106 8106 8108 8104 8105 8106 8111 8112 8114 8115 
8131 8117 8115 8121 8107 8123 8110 8118 8125 8118 8113 8114 8109 8115 8116 8119 8114 8106 8082 8078 8108 8115 8115 8099 8091 8065 8063 8079 8047 8042 8033 8046 8038 8023 8032 8040 8026 8032 8033 8031 8042 8060 8053 8061 8083 8106 8082 8054 8094 8110 8109 8068 8061 8063 8067 8106 8110 8111 8113 8110 8114 8110 8112 8113 8113 8113 8109 8109 8108 8105 8106 8107 8105 8103 8105 8109 8103 8109 8115 8115 
8135 8108 8130 8123 8121 8121 8113 8121 8124 8119 8118 8116 8111 8116 8115 8112 8111 8114 8107 8103 8107 8114 8099 8087 8115 8095 8063 8066 8056 8049 8038 8039 8019 8024 8033 8037 8028 8034 8033 8037 8050 8053 8035 8036 8068 8110 8107 8057 8075 8109 8102 8057 8064 8066 8085 8109 8112 8114 8110 8109 8117 8112 8113 8115 8114 8112 8111 8111 8109 8111 8110 8107 8103 8112 8111 8106 8109 8115 8111 8113 
8136 8117 8128 8121 8124 8117 8122 8125 8120 8118 8121 8116 8117 8112 8119 8114 8118 8113 8115 8112 8114 8118 8113 8113 8116 8101 8051 8036 8050 8049 8042 8030 8018 8037 8036 8038 8033 8037 8034 8036 8038 8037 8038 8034 8041 8087 8108 8090 8068 8109 8096 8058 8060 8061 8098 8110 8113 8112 8107 8111 8118 8118 8117 8115 8112 8114 8115 8112 8111 8110 8109 8108 8106 8109 8108 8106 8109 8107 8111 8114 
8136 8120 8123 8126 8121 8124 8126 8128 8122 8111 8109 8118 8122 8116 8124 8122 8122 8117 8120 8113 8117 8121 8120 8105 8099 8048 8067 8037 8045 8042 8029 8021 8029 8037 8034 8039 8043 8036 8033 8035 8032 8035 8062 8044 8045 8078 8108 8107 8075 8108 8078 8060 8062 8079 8110 8112 8112 8110 8108 8112 8117 8116 8118 8116 8116 8110 8113 8111 8110 8112 8110 8108 8107 8106 8104 8114 8109 8108 8105 8110 
8139 8125 8130 8127 8123 8120 8126 8120 8125 8112 8117 8123 8129 8116 8121 8118 8120 8115 8118 8117 8116 8118 8116 8062 8042 8033 8087 8059 8038 8036 8025 8024 8027 8027 8029 8033 8039 8034 8032 8058 8047 8041 8088 8067 8047 8075 8112 8113 8099 8101 8068 8058 8058 8093 8114 8111 8113 8115 8114 8115 8120 8117 8116 8113 8117 8116 8116 8110 8110 8108 8111 8112 8111 8114 8115 8114 8110 8109 8106 8113 
8137 8119 8129 8127 8126 8125 8129 8120 8124 8120 8122 8129 8121 8120 8118 8120 8109 8115 8114 8111 8109 8113 8085 8041 8034 8030 8045 8040 8033 8035 8031 8030 8027 8025 8033 8032 8036 8032 8030 8045 8039 8058 8091 8096 8065 8067 8109 8112 8108 8098 8067 8068 8076 8105 8112 8116 8114 8118 8114 8112 8115 8114 8116 8113 8118 8117 8115 8119 8114 8114 8114 8114 8115 8117 8118 8112 8114 8113 8109 8105 
8136 8123 8123 8130 8126 8125 8125 8125 8126 8122 8126 8122 8123 8117 8121 8114 8116 8111 8113 8117 8108 8097 8062 8045 8037 8027 8034 8034 8034 8034 8036 8035 8027 8019 8021 8026 8029 8029 8030 8035 8029 8055 8096 8105 8090 8064 8107 8109 8107 8085 8072 8070 8085 8114 8111 8117 8115 8116 8119 8113 8117 8116 8117 8116 8118 8120 8119 8120 8115 8116 8117 8115 8114 8118 8115 8115 8114 8109 8110 8113 
8137 8127 8141 8127 8129 8127 8131 8120 8124 8127 8128 8118 8122 8120 8114 8111 8110 8109 8117 8108 8111 8100 8057 8038 8030 8024 8046 8035 8034 8030 8032 8029 8027 8017 8023 8030 8030 8029 8031 8038 8063 8053 8078 8104 8105 8098 8106 8109 8100 8074 8069 8072 8094 8113 8115 8120 8115 8118 8117 8116 8116 8117 8120 8116 8120 8122 8117 8120 8118 8118 8117 8114 8113 8117 8119 8117 8114 8108 8110 8113 
8132 8122 8144 8119 8127 8133 8124 8124 8124 8122 8118 8125 8116 8113 8121 8111 8112 8115 8121 8117 8115 8090 8055 8040 8024 8027 8074 8054 8033 8033 8026 8025 8026 8014 8024 8030 8030 8033 8039 8066 8084 8088 8069 8101 8105 8102 8105 8107 8092 8066 8068 8075 8102 8117 8118 8121 8117 8117 8117 8118 8116 8119 8117 8119 8121 8119 8116 8118 8116 8119 8121 8117 8114 8120 8122 8114 8114 8109 8110 8113 
8132 8116 8127 8116 8125 8128 8115 8121 8123 8119 8118 8122 8123 8121 8128 8122 8109 8116 8118 8117 8114 8106 8094 8042 8034 8029 8064 8052 8033 8031 8025 8027 8028 8024 8028 8032 8036 8033 8034 8058 8057 8060 8061 8068 8071 8070 8075 8081 8072 8066 8066 8080 8110 8117 8119 8120 8116 8116 8117 8119 8119 8123 8120 8124 8122 8127 8120 8119 8119 8119 8123 8119 8117 8124 8123 8124 8118 8117 8115 8118 
8132 8116 8123 8117 8116 8128 8122 8124 8127 8123 8128 8121 8121 8124 8116 8117 8113 8118 8106 8094 8088 8070 8064 8047 8027 8021 8036 8038 8037 8033 8033 8030 8032 8020 8026 8032 8034 8037 8061 8065 8056 8071 8079 8079 8078 8079 8069 8063 8065 8069 8066 8082 8111 8117 8120 8122 8116 8117 8123 8119 8119 8122 8122 8120 8126 8126 8119 8115 8118 8122 8122 8125 8124 8123 8128 8123 8123 8121 8115 8115 
8135 8120 8131 8123 8129 8120 8126 8125 8126 8125 8118 8123 8128 8130 8114 8116 8109 8108 8075 8051 8049 8040 8053 8054 8051 8028 8039 8040 8037 8030 8026 8034 8036 8026 8022 8025 8027 8032 8074 8084 8061 8064 8076 8086 8083 8084 8075 8068 8062 8063 8064 8076 8112 8124 8122 8120 8120 8120 8119 8122 8126 8123 8125 8123 8124 8122 8118 8117 8117 8120 8125 8124 8125 8128 8128 8123 8125 8124 8113 8118 
8135 8129 8126 8116 8124 8122 8127 8115 8128 8131 8122 8119 8122 8122 8117 8116 8116 8117 8070 8047 8043 8043 8053 8054 8043 8048 8041 8039 8030 8033 8030 8033 8040 8030 8025 8022 8031 8038 8076 8083 8071 8067 8074 8082 8077 8075 8070 8064 8063 8061 8065 8081 8113 8121 8120 8119 8119 8121 8120 8119 8123 8121 8125 8121 8122 8122 8118 8120 8119 8120 8122 8121 8128 8125 8121 8125 8124 8119 8115 8121 
8136 8117 8122 8125 8122 8124 8123 8121 8121 8121 8120 8112 8128 8122 8122 8125 8125 8114 8094 8049 8037 8041 8044 8047 8043 8046 8048 8050 8040 8037 8037 8036 8040 8048 8050 8034 8034 8049 8056 8068 8065 8073 8066 8069 8067 8066 8062 8060 8063 8060 8067 8087 8111 8114 8121 8121 8122 8117 8120 8119 8122 8121 8118 8121 8121 8121 8120 8119 8123 8120 8118 8117 8125 8126 8123 8126 8126 8121 8119 8121 
8144 8127 8113 8125 8125 8130 8134 8122 8118 8116 8115 8123 8124 8123 8120 8123 8122 8113 8105 8052 8044 8036 8040 8046 8041 8039 8040 8045 8044 8045 8039 8038 8046 8044 8052 8044 8035 8049 8045 8044 8052 8057 8050 8056 8060 8061 8057 8061 8062 8065 8076 8097 8116 8117 8112 8121 8118 8117 8118 8114 8120 8116 8114 8116 8115 8118 8116 8116 8119 8120 8122 8119 8126 8124 8124 8125 8126 8121 8122 8121 
8129 8127 8124 8127 8122 8122 8124 8122 8132 8132 8128 8118 8125 8105 8121 8129 8122 8118 8103 8064 8049 8031 8036 8052 8057 8044 8040 8042 8047 8051 8050 8047 8049 8055 8059 8052 8038 8042 8043 8053 8065 8070 8058 8058 8063 8063 8067 8066 8065 8074 8091 8109 8118 8118 8117 8115 8114 8118 8116 8112 8114 8117 8116 8116 8120 8117 8114 8112 8117 8118 8116 8120 8119 8121 8129 8135 8126 8125 8122 8123 
8137 8110 8133 8132 8122 8127 8131 8125 8129 8114 8121 8122 8123 8113 8120 8119 8118 8109 8108 8076 8055 8036 8044 8045 8052 8051 8048 8043 8047 8050 8058 8050 8060 8053 8059 8046 8047 8049 8049 8055 8070 8073 8066 8060 8060 8063 8070 8067 8069 8094 8106 8114 8119 8116 8114 8115 8114 8115 8112 8109 8114 8115 8117 8115 8112 8116 8112 8110 8120 8115 8121 8118 8124 8126 8129 8129 8126 8124 8126 8126 
8133 8113 8131 8128 8119 8129 8132 8120 8126 8116 8123 8125 8123 8127 8117 8115 8116 8114 8122 8107 8067 8053 8053 8048 8048 8051 8048 8051 8047 8041 8056 8055 8060 8049 8052 8046 8053 8055 8050 8060 8066 8072 8062 8061 8060 8071 8069 8083 8088 8101 8109 8119 8115 8114 8111 8110 8114 8114 8111 8106 8115 8115 8114 8111 8108 8109 8109 8114 8117 8120 8118 8122 8127 8128 8128 8127 8128 8131 8123 8128 
8134 8106 8122 8121 8126 8119 8131 8117 8118 8118 8122 8111 8120 8126 8120 8126 8121 8111 8123 8102 8096 8060 8052 8057 8046 8046 8043 8041 8053 8052 8058 8057 8061 8061 8062 8055 8056 8062 8059 8067 8065 8070 8072 8058 8067 8071 8081 8088 8096 8097 8106 8115 8115 8112 8102 8113 8112 8111 8108 8105 8114 8114 8113 8108 8106 8107 8115 8114 8118 8119 8118 8116 8125 8130 8128 8123 8126 8128 8119 8127 
8131 8115 8117 8122 8121 8126 8116 8123 8111 8108 8119 8115 8122 8126 8120 8114 8114 8114 8120 8108 8100 8062 8067 8065 8052 8060 8052 8048 8057 8058 8053 8064 8060 8056 8061 8054 8057 8059 8067 8068 8068 8071 8071 8068 8076 8076 8079 8087 8092 8091 8108 8111 8114 8113 8110 8113 8113 8111 8105 8111 8117 8115 8112 8106 8104 8113 8115 8109 8121 8116 8123 8119 8123 8119 8129 8130 8130 8128 8125 8130 
8127 8104 8121 8127 8117 8108 8113 8129 8121 8117 8106 8109 8112 8117 8123 8102 8114 8120 8112 8115 8102 8068 8066 8066 8061 8058 8062 8058 8058 8058 8058 8063 8060 8058 8057 8062 8066 8062 8059 8067 8069 8066 8070 8078 8079 8078 8076 8086 8089 8098 8103 8113 8107 8116 8117 8108 8110 8111 8111 8111 8114 8115 8116 8107 8109 8116 8109 8109 8118 8116 8120 8124 8119 8130 8127 8124 8121 8121 8130 8138 
8117 8106 8119 8117 8118 8121 8117 8120 8103 8117 8105 8113 8107 8121 8120 8115 8113 8117 8110 8110 8109 8078 8065 8068 8063 8058 8061 8065 8054 8056 8062 8059 8064 8066 8070 8064 8068 8062 8062 8061 8068 8079 8077 8081 8082 8082 8084 8088 8098 8103 8109 8113 8113 8103 8114 8109 8110 8107 8106 8105 8114 8113 8112 8104 8109 8114 8106 8117 8116 8114 8114 8121 8117 8130 8124 8126 8123 8121 8140 8148 
8122 8111 8110 8108 8099 8096 8104 8104 8098 8113 8101 8107 8106 8118 8110 8112 8107 8104 8114 8110 8109 8084 8061 8063 8064 8059 8053 8065 8061 8058 8058 8057 8067 8068 8071 8068 8069 8066 8060 8067 8072 8078 8083 8081 8083 8082 8079 8094 8100 8106 8109 8114 8108 8104 8110 8107 8109 8103 8102 8108 8113 8109 8105 8104 8111 8106 8105 8102 8110 8113 8117 8117 8116 8125 8124 8131 8122 8124 8138 8152 
8116 8098 8101 8082 8073 8070 8075 8075 8062 8087 8090 8088 8103 8100 8102 8102 8103 8100 8094 8099 8106 8088 8065 8063 8055 8032 8053 8059 8066 8063 8053 8063 8071 8059 8074 8070 8072 8070 8062 8067 8072 8085 8082 8085 8080 8081 8079 8092 8099 8102 8107 8108 8109 8107 8109 8111 8108 8106 8104 8110 8110 8106 8107 8106 8111 8109 8106 8106 8110 8107 8118 8117 8121 8124 8130 8136 8128 8123 8135 8137 
8100 8075 8082 8056 8043 8041 8056 8038 8048 8060 8050 8042 8065 8071 8072 8077 8080 8096 8089 8093 8097 8084 8071 8065 8051 8033 8027 8061 8066 8069 8066 8057 8063 8054 8065 8070 8071 8070 8063 8070 8067 8083 8081 8082 8086 8079 8084 8089 8087 8088 8094 8103 8095 8099 8106 8105 8100 8106 8101 8098 8101 8100 8103 8104 8103 8112 8104 8112 8103 8105 8117 8117 8118 8123 8127 8128 8129 8118 8130 8132 
8107 8078 8078 8045 8065 8056 8057 8037 8050 8047 8050 8042 8050 8065 8072 8076 8081 8099 8100 8099 8089 8089 8072 8063 8067 8050 8059 8063 8062 8055 8062 8069 8067 8061 8053 8063 8064 8066 8064 8070 8076 8076 8069 8082 8083 8081 8086 8088 8079 8072 8077 8079 8080 8090 8098 8094 8096 8094 8096 8094 8094 8100 8103 8098 8100 8104 8098 8105 8109 8102 8114 8110 8112 8112 8122 8123 8124 8107 8123 8117 
8107 8070 8058 8059 8059 8051 8043 8051 8062 8062 8071 8054 8052 8088 8097 8103 8112 8128 8124 8120 8125 8092 8073 8061 8066 8056 8055 8059 8064 8062 8066 8055 8056 8063 8056 8066 8067 8073 8063 8072 8073 8077 8072 8069 8073 8074 8083 8082 8074 8070 8064 8063 8060 8075 8078 8084 8083 8081 8090 8087 8091 8092 8091 8088 8091 8096 8099 8102 8102 8112 8110 8112 8110 8108 8112 8115 8111 8103 8107 8115 
8116 8091 8091 8088 8100 8085 8063 8066 8073 8081 8094 8078 8080 8084 8096 8109 8134 8132 8120 8115 8112 8084 8067 8058 8056 8049 8049 8052 8051 8056 8059 8053 8054 8058 8068 8069 8066 8073 8063 8063 8071 8079 8068 8063 8070 8071 8079 8085 8079 8075 8061 8062 8071 8066 8077 8083 8085 8086 8088 8087 8090 8090 8091 8090 8096 8094 8103 8109 8112 8115 8115 8117 8115 8120 8121 8118 8115 8119 8110 8118 


