P2
80 60
8174
8150 8134 8147 8149 8157 8151 8146 8144 8152 8145 8149 8155 8149 8149 8147 8154 8150 8147 8154 8146 8156 8164 8167 8157 8165 8173 8159 8162 8166 8166 8172 8169 8174 8168 8170 8169 8169 8169 8173 8171 8171 8167 8161 8157 8157 8163 8159 8157 8156 8155 8145 8144 8144 8131 8128 8133 8128 8130 8136 8142 8139 8133 8137 8134 8141 8138 8145 8146 8148 8154 8150 8152 8154 8152 8156 8154 8150 8156 8164 8159 
8149 8144 8159 8150 8153 8153 8148 8147 8145 8153 8148 8149 8146 8147 8138 8146 8143 8149 8142 8153 8162 8164 8167 8160 8166 8161 8145 8155 8166 8159 8167 8168 8164 8166 8162 8162 8160 8166 8174 8170 8171 8166 8155 8154 8158 8156 8158 8156 8152 8155 8143 8143 8144 8139 8131 8137 8132 8128 8133 8138 8138 8138 8141 8133 8131 8137 8149 8147 8152 8156 8152 8144 8156 8154 8160 8152 8158 8155 8162 8153 
8127 8134 8142 8137 8147 8142 8140 8146 8140 8146 8150 8144 8134 8144 8144 8140 8148 8149 8139 8150 8150 8157 8161 8161 8159 8161 8153 8157 8161 8149 8161 8163 8153 8166 8163 8159 8154 8166 8169 8168 8166 8159 8154 8155 8157 8156 8155 8151 8148 8147 8143 8136 8137 8143 8141 8133 8130 8133 8131 8127 8140 8140 8131 8137 8136 8130 8135 8139 8147 8157 8149 8143 8149 8151 8150 8143 8162 8154 8151 8153 
8148 8124 8153 8135 8150 8135 8148 8145 8148 8146 8137 8129 8143 8141 8138 8141 8142 8145 8146 8142 8148 8145 8144 8162 8158 8158 8159 8164 8163 8166 8155 8160 8165 8163 8170 8154 8165 8164 8165 8167 8165 8155 8157 8148 8153 8148 8158 8154 8153 8143 8143 8137 8143 8138 8135 8138 8127 8124 8129 8127 8132 8134 8125 8139 8125 8122 8135 8135 8141 8147 8139 8148 8147 8151 8148 8141 8157 8150 8156 8151 
8142 8125 8149 8133 8141 8144 8149 8135 8136 8143 8144 8133 8136 8144 8134 8141 8140 8137 8145 8136 8145 8149 8146 8152 8156 8160 8147 8152 8152 8161 8157 8166 8158 8156 8159 8158 8161 8158 8162 8164 8160 8157 8151 8145 8148 8147 8148 8148 8148 8147 8139 8139 8136 8135 8140 8137 8126 8132 8131 8131 8134 8135 8127 8132 8125 8130 8124 8127 8142 8138 8135 8143 8142 8148 8132 8141 8150 8146 8151 8145 
8146 8133 8137 8133 8138 8137 8149 8143 8143 8144 8128 8136 8142 8137 8131 8136 8144 8136 8144 8149 8148 8142 8158 8149 8162 8158 8151 8151 8149 8156 8161 8164 8156 8155 8156 8158 8160 8160 8162 8165 8166 8158 8161 8144 8147 8149 8147 8152 8143 8143 8141 8138 8142 8139 8134 8139 8133 8134 8134 8135 8134 8137 8130 8130 8121 8132 8126 8125 8131 8138 8132 8128 8142 8128 8127 8134 8136 8133 8137 8140 
8144 8136 8137 8142 8140 8134 8153 8147 8143 8134 8128 8149 8141 8127 8136 8142 8134 8137 8142 8153 8140 8145 8156 8157 8161 8153 8142 8147 8151 8159 8156 8162 8154 8156 8155 8157 8152 8152 8163 8165 8163 8153 8155 8149 8153 8148 8153 8149 8146 8145 8141 8138 8139 8138 8136 8136 8127 8127 8130 8134 8127 8135 8130 8131 8125 8128 8134 8140 8123 8123 8137 8137 8136 8124 8134 8132 8129 8119 8137 8138 
8146 8137 8125 8132 8133 8141 8148 8151 8149 8118 8143 8143 8140 8132 8141 8140 8138 8143 8141 8140 8149 8149 8157 8159 8160 8154 8133 8145 8147 8158 8158 8161 8162 8159 8161 8156 8158 8155 8159 8162 8159 8150 8156 8152 8147 8146 8149 8142 8144 8143 8139 8137 8138 8130 8132 8132 8128 8133 8126 8131 8124 8128 8128 8128 8122 8131 8130 8137 8123 8123 8122 8125 8134 8122 8131 8125 8122 8132 8132 8133 
8147 8125 8121 8125 8140 8135 8155 8146 8146 8129 8138 8138 8134 8137 8131 8136 8133 8131 8141 8145 8146 8135 8146 8151 8145 8147 8138 8143 8150 8150 8153 8153 8147 8147 8152 8156 8156 8150 8159 8159 8156 8150 8154 8146 8150 8155 8142 8146 8145 8135 8135 8132 8134 8130 8140 8124 8129 8126 8123 8133 8126 8123 8122 8125 8119 8124 8124 8132 8123 8127 8119 8118 8118 8121 8121 8123 8124 8125 8126 8126 
8151 8119 8126 8136 8140 8144 8136 8143 8146 8137 8135 8136 8135 8136 8134 8128 8141 8137 8142 8149 8143 8140 8149 8147 8140 8144 8143 8146 8146 8148 8148 8151 8146 8148 8157 8158 8160 8157 8153 8157 8155 8154 8151 8138 8141 8151 8150 8147 8142 8142 8133 8135 8139 8130 8134 8122 8130 8130 8126 8130 8130 8130 8124 8127 8122 8120 8120 8124 8120 8130 8127 8128 8125 8120 8122 8115 8124 8126 8121 8123 
8146 8123 8135 8134 8133 8143 8128 8140 8141 8127 8135 8129 8132 8133 8129 8131 8136 8127 8129 8135 8138 8137 8143 8150 8145 8137 8143 8148 8149 8150 8152 8146 8143 8155 8152 8146 8148 8147 8155 8153 8152 8151 8140 8150 8148 8151 8152 8148 8141 8135 8131 8131 8135 8132 8129 8121 8129 8121 8130 8127 8124 8123 8129 8117 8117 8121 8128 8125 8123 8125 8120 8126 8121 8115 8117 8110 8114 8114 8118 8120 
8140 8141 8138 8135 8127 8139 8128 8139 8145 8129 8140 8130 8135 8135 8129 8133 8131 8129 8132 8142 8148 8148 8140 8149 8150 8149 8142 8146 8151 8150 8150 8150 8138 8153 8146 8143 8151 8150 8155 8149 8151 8155 8147 8153 8149 8148 8148 8143 8143 8137 8142 8139 8137 8135 8128 8126 8126 8119 8131 8131 8121 8123 8123 8120 8115 8122 8128 8124 8123 8116 8119 8121 8116 8116 8108 8111 8121 8116 8117 8115 
8146 8133 8126 8126 8124 8138 8138 8123 8132 8132 8129 8130 8126 8126 8129 8133 8129 8133 8134 8135 8132 8140 8140 8141 8148 8142 8129 8145 8145 8149 8157 8146 8143 8148 8139 8139 8148 8153 8147 8144 8146 8151 8153 8151 8146 8147 8144 8144 8137 8135 8137 8136 8137 8134 8132 8122 8124 8122 8126 8127 8124 8119 8122 8113 8122 8123 8126 8121 8125 8110 8111 8116 8117 8114 8110 8116 8121 8115 8113 8116 
8146 8143 8139 8136 8132 8135 8137 8138 8125 8136 8140 8134 8128 8127 8133 8129 8136 8132 8135 8138 8136 8139 8144 8147 8145 8145 8143 8144 8138 8144 8152 8138 8146 8148 8144 8146 8142 8149 8145 8146 8148 8146 8149 8148 8144 8146 8144 8143 8142 8136 8133 8137 8139 8137 8136 8123 8127 8123 8127 8127 8124 8118 8124 8122 8125 8129 8123 8122 8124 8123 8117 8120 8119 8113 8107 8119 8116 8126 8119 8115 
8149 8126 8137 8138 8133 8135 8131 8139 8132 8130 8135 8133 8131 8127 8131 8131 8131 8125 8133 8137 8126 8135 8139 8144 8140 8136 8141 8137 8138 8148 8142 8138 8141 8138 8140 8141 8141 8142 8145 8139 8142 8145 8144 8144 8143 8140 8136 8135 8141 8138 8133 8138 8133 8138 8131 8126 8127 8125 8125 8126 8123 8118 8120 8124 8123 8131 8125 8124 8123 8118 8120 8118 8120 8114 8108 8110 8110 8115 8115 8115 
8150 8115 8126 8129 8127 8129 8129 8133 8134 8141 8135 8127 8123 8118 8130 8135 8132 8127 8132 8139 8131 8135 8136 8142 8139 8142 8138 8128 8132 8143 8141 8140 8141 8140 8140 8139 8143 8140 8141 8139 8144 8144 8138 8143 8139 8139 8134 8139 8132 8134 8130 8133 8136 8135 8128 8128 8125 8123 8127 8131 8127 8115 8120 8122 8129 8129 8118 8122 8119 8119 8120 8115 8118 8113 8111 8113 8115 8117 8116 8113 
8150 8115 8122 8130 8125 8126 8127 8123 8134 8134 8134 8134 8125 8124 8119 8133 8123 8128 8131 8132 8122 8133 8144 8135 8130 8129 8121 8132 8139 8140 8143 8141 8139 8143 8140 8141 8144 8144 8146 8141 8143 8137 8137 8141 8138 8136 8134 8129 8137 8131 8136 8135 8134 8126 8120 8123 8117 8121 8121 8126 8126 8113 8121 8118 8123 8119 8123 8123 8116 8115 8110 8111 8113 8115 8111 8109 8111 8116 8115 8115 
8149 8126 8127 8115 8121 8137 8131 8138 8129 8142 8131 8128 8136 8135 8134 8135 8127 8121 8127 8133 8126 8136 8136 8131 8128 8137 8136 8129 8134 8137 8139 8140 8140 8141 8139 8141 8139 8135 8139 8137 8137 8137 8138 8136 8139 8134 8139 8129 8139 8135 8132 8135 8128 8129 8123 8127 8117 8118 8121 8124 8121 8121 8124 8124 8122 8121 8128 8127 8122 8116 8112 8121 8123 8116 8114 8114 8110 8110 8112 8112 
8141 8124 8131 8130 8131 8127 8138 8137 8137 8127 8130 8131 8138 8129 8131 8129 8119 8119 8115 8118 8124 8132 8133 8131 8130 8134 8135 8119 8123 8119 8129 8138 8140 8145 8140 8136 8137 8133 8137 8133 8133 8131 8137 8134 8138 8134 8136 8139 8130 8129 8135 8133 8125 8128 8119 8116 8125 8116 8119 8123 8117 8114 8126 8124 8121 8114 8124 8120 8119 8120 8117 8115 8119 8114 8114 8113 8110 8112 8113 8110 
8139 8119 8131 8130 8122 8139 8134 8132 8137 8130 8135 8131 8132 8126 8137 8134 8123 8124 8113 8123 8111 8128 8131 8124 8127 8119 8125 8122 8120 8104 8113 8133 8134 8138 8140 8139 8135 8132 8137 8139 8131 8122 8133 8130 8130 8134 8134 8129 8132 8132 8131 8131 8123 8125 8128 8118 8120 8121 8115 8115 8120 8116 8125 8124 8124 8117 8118 8119 8119 8122 8118 8123 8119 8114 8114 8113 8111 8114 8114 8113 
8144 8130 8123 8109 8118 8127 8123 8136 8132 8127 8126 8133 8125 8123 8120 8133 8125 8122 8107 8114 8099 8112 8123 8125 8118 8109 8114 8127 8113 8097 8116 8131 8134 8135 8136 8135 8131 8126 8129 8134 8131 8124 8125 8121 8123 8131 8129 8127 8130 8127 8122 8127 8123 8122 8123 8121 8117 8121 8117 8110 8117 8118 8122 8123 8119 8118 8118 8121 8121 8124 8122 8118 8117 8117 8115 8116 8110 8110 8114 8115 
8144 8130 8128 8137 8134 8131 8111 8134 8121 8129 8125 8115 8132 8129 8114 8123 8122 8122 8109 8109 8107 8106 8116 8129 8113 8118 8114 8127 8120 8114 8123 8122 8134 8137 8132 8131 8130 8125 8128 8129 8119 8110 8108 8109 8121 8131 8122 8126 8132 8122 8123 8126 8122 8121 8125 8122 8119 8118 8112 8117 8118 8115 8123 8120 8120 8119 8120 8125 8122 8121 8118 8117 8115 8110 8119 8116 8111 8113 8113 8108 
8141 8123 8128 8130 8129 8123 8119 8109 8113 8127 8131 8122 8121 8126 8122 8121 8117 8111 8100 8109 8107 8115 8111 8126 8125 8115 8120 8122 8128 8127 8131 8124 8128 8127 8129 8125 8123 8115 8122 8108 8114 8113 8108 8116 8119 8123 8117 8119 8121 8121 8125 8125 8120 8123 8123 8118 8117 8117 8111 8110 8117 8116 8123 8120 8120 8119 8122 8126 8118 8119 8117 8114 8116 8112 8119 8115 8120 8121 8118 8117 
8143 8133 8127 8127 8131 8133 8126 8111 8128 8128 8130 8115 8122 8119 8123 8121 8119 8119 8107 8122 8108 8107 8115 8109 8118 8113 8115 8117 8126 8116 8120 8133 8129 8119 8118 8118 8124 8122 8096 8098 8105 8116 8110 8117 8122 8119 8124 8118 8120 8126 8124 8124 8115 8121 8123 8121 8123 8125 8109 8113 8114 8114 8120 8123 8127 8120 8125 8128 8119 8119 8113 8111 8121 8117 8117 8115 8112 8121 8119 8113 
8146 8114 8129 8137 8125 8125 8118 8128 8131 8121 8125 8118 8124 8123 8125 8122 8118 8123 8114 8110 8102 8082 8084 8082 8114 8113 8117 8121 8122 8111 8122 8107 8073 8066 8089 8101 8101 8079 8050 8061 8072 8093 8085 8087 8099 8111 8116 8118 8126 8123 8126 8124 8116 8118 8117 8117 8118 8120 8117 8121 8111 8118 8119 8120 8124 8123 8125 8128 8119 8121 8119 8121 8119 8113 8117 8112 8112 8119 8119 8117 
8146 8116 8120 8137 8127 8120 8130 8114 8110 8123 8121 8127 8122 8121 8125 8118 8119 8123 8114 8105 8104 8069 8081 8068 8102 8109 8112 8110 8092 8094 8049 8052 8042 8066 8074 8059 8059 8061 8058 8054 8044 8070 8088 8080 8086 8067 8060 8070 8117 8122 8121 8122 8116 8120 8115 8119 8117 8115 8114 8121 8116 8114 8112 8118 8120 8120 8124 8121 8118 8112 8113 8117 8120 8118 8113 8114 8112 8115 8114 8114 
8139 8125 8117 8128 8119 8126 8120 8113 8120 8123 8115 8132 8120 8125 8122 8122 8121 8123 8120 8108 8106 8069 8077 8076 8097 8105 8111 8082 8054 8099 8042 8040 8029 8059 8088 8078 8055 8067 8046 8051 8036 8040 8058 8079 8078 8039 8036 8033 8059 8078 8098 8121 8114 8123 8121 8115 8112 8114 8117 8122 8118 8111 8119 8115 8118 8115 8117 8114 8114 8112 8112 8113 8115 8113 8111 8113 8115 8117 8114 8118 
8137 8130 8130 8131 8128 8112 8117 8118 8119 8125 8117 8124 8127 8119 8124 8118 8125 8125 8120 8112 8108 8070 8080 8076 8085 8116 8114 8086 8045 8090 8054 8049 8045 8072 8084 8091 8049 8035 8043 8044 8027 8049 8046 8049 8046 8036 8036 8039 8040 8042 8060 8113 8112 8118 8123 8118 8119 8120 8125 8126 8123 8119 8119 8120 8123 8118 8118 8110 8111 8114 8113 8111 8112 8116 8114 8120 8119 8116 8118 8116 
8136 8123 8124 8134 8118 8119 8102 8117 8125 8134 8127 8132 8130 8122 8131 8117 8122 8125 8116 8116 8109 8074 8071 8069 8088 8116 8115 8112 8092 8097 8057 8050 8069 8046 8068 8080 8042 8029 8041 8040 8040 8037 8048 8054 8040 8035 8032 8032 8030 8041 8069 8073 8108 8118 8122 8120 8120 8120 8121 8120 8122 8116 8117 8120 8120 8120 8116 8110 8107 8110 8112 8111 8109 8111 8113 8115 8113 8126 8120 8120 
8135 8118 8126 8132 8115 8121 8118 8118 8130 8126 8134 8131 8126 8127 8123 8128 8121 8127 8124 8118 8112 8083 8070 8076 8079 8110 8118 8120 8114 8089 8045 8037 8068 8039 8070 8093 8052 8047 8042 8047 8067 8052 8035 8041 8031 8037 8025 8049 8031 8045 8081 8079 8061 8092 8114 8121 8120 8113 8116 8118 8114 8112 8119 8119 8120 8117 8117 8113 8107 8108 8108 8113 8107 8109 8115 8111 8110 8126 8122 8119 
8141 8129 8129 8137 8123 8121 8106 8125 8135 8121 8135 8124 8122 8132 8126 8130 8127 8125 8123 8115 8111 8085 8068 8077 8073 8105 8117 8117 8083 8093 8072 8036 8033 8038 8041 8081 8051 8043 8031 8036 8039 8049 8043 8032 8030 8032 8064 8097 8068 8073 8064 8050 8072 8090 8084 8112 8116 8110 8118 8115 8110 8117 8117 8120 8120 8118 8115 8115 8108 8105 8107 8114 8111 8119 8115 8110 8120 8119 8119 8118 
8144 8126 8126 8131 8117 8133 8120 8129 8139 8126 8123 8132 8127 8122 8126 8125 8125 8118 8119 8119 8110 8100 8057 8067 8070 8103 8119 8114 8087 8113 8110 8070 8041 8024 8040 8062 8044 8030 8035 8030 8029 8051 8035 8037 8033 8054 8103 8103 8078 8106 8100 8071 8053 8094 8110 8109 8112 8114 8121 8122 8114 8120 8117 8121 8120 8116 8116 8111 8114 8106 8107 8115 8113 8112 8109 8112 8117 8122 8120 8119 
8144 8133 8126 8133 8119 8135 8122 8131 8137 8133 8127 8130 8118 8129 8127 8126 8125 8120 8118 8119 8117 8112 8063 8064 8069 8096 8122 8116 8089 8109 8102 8056 8063 8022 8032 8057 8041 8024 8037 8030 8040 8041 8031 8042 8063 8077 8063 8086 8087 8114 8099 8074 8057 8087 8117 8108 8115 8116 8119 8116 8119 8115 8115 8120 8119 8114 8113 8114 8115 8112 8111 8111 8110 8110 8112 8115 8107 8116 8117 8117 
8149 8122 8141 8138 8132 8134 8126 8132 8135 8129 8131 8132 8119 8126 8128 8123 8122 8126 8127 8114 8116 8114 8076 8070 8067 8094 8117 8119 8112 8092 8054 8039 8024 8029 8034 8039 8037 8040 8044 8041 8036 8041 8039 8042 8085 8107 8102 8077 8087 8116 8115 8101 8073 8107 8119 8115 8119 8117 8114 8114 8122 8115 8116 8119 8119 8120 8118 8117 8115 8121 8118 8114 8110 8119 8119 8110 8113 8123 8117 8116 
8147 8133 8138 8134 8139 8129 8138 8141 8133 8131 8133 8129 8127 8124 8130 8123 8129 8121 8130 8122 8124 8120 8075 8061 8060 8082 8109 8100 8064 8043 8034 8024 8020 8028 8031 8036 8043 8044 8039 8050 8057 8047 8048 8045 8046 8059 8056 8064 8072 8113 8122 8124 8113 8102 8118 8111 8116 8116 8112 8116 8121 8122 8123 8124 8119 8118 8121 8116 8119 8117 8115 8115 8109 8114 8110 8110 8116 8115 8117 8118 
8149 8139 8137 8141 8134 8136 8140 8141 8137 8125 8126 8134 8135 8128 8135 8131 8133 8128 8132 8123 8127 8125 8089 8062 8070 8054 8068 8063 8038 8034 8025 8020 8033 8031 8032 8036 8039 8037 8050 8099 8090 8051 8042 8040 8040 8040 8046 8091 8052 8078 8113 8126 8121 8114 8120 8117 8119 8119 8116 8120 8123 8124 8126 8123 8125 8119 8122 8116 8120 8119 8118 8115 8111 8109 8110 8121 8112 8115 8113 8112 
8153 8139 8145 8141 8140 8136 8145 8134 8139 8125 8133 8138 8141 8128 8132 8128 8127 8126 8132 8129 8126 8127 8102 8067 8068 8047 8085 8091 8041 8034 8022 8026 8029 8036 8027 8030 8039 8037 8039 8080 8095 8047 8044 8044 8043 8042 8073 8111 8098 8060 8109 8123 8122 8122 8122 8116 8115 8121 8121 8125 8124 8126 8124 8118 8124 8124 8125 8117 8114 8116 8115 8117 8115 8121 8119 8119 8115 8112 8116 8113 
8149 8137 8142 8139 8138 8140 8142 8132 8140 8136 8138 8143 8134 8130 8133 8132 8122 8125 8125 8123 8121 8126 8105 8071 8062 8059 8101 8106 8070 8063 8029 8029 8029 8032 8028 8029 8035 8036 8032 8044 8045 8044 8038 8040 8040 8053 8101 8108 8111 8088 8114 8121 8125 8126 8116 8122 8117 8126 8121 8122 8120 8122 8121 8120 8123 8126 8120 8126 8121 8124 8124 8124 8118 8122 8120 8114 8117 8121 8117 8116 
8149 8139 8138 8145 8140 8142 8140 8139 8138 8135 8141 8138 8135 8128 8130 8126 8130 8123 8121 8128 8123 8117 8111 8080 8062 8058 8087 8068 8076 8066 8040 8034 8028 8028 8019 8030 8032 8031 8031 8051 8060 8034 8032 8038 8031 8044 8092 8105 8115 8115 8113 8116 8122 8125 8112 8123 8119 8124 8122 8121 8121 8123 8122 8122 8126 8124 8130 8130 8123 8123 8119 8122 8121 8121 8120 8121 8118 8117 8113 8116 
8151 8145 8159 8143 8144 8143 8146 8136 8139 8142 8141 8133 8132 8132 8128 8124 8122 8121 8127 8117 8123 8113 8121 8084 8058 8059 8058 8090 8103 8060 8079 8055 8031 8019 8021 8034 8032 8030 8034 8041 8033 8029 8029 8033 8027 8039 8054 8101 8108 8117 8115 8122 8126 8123 8119 8123 8122 8121 8127 8120 8119 8124 8130 8124 8128 8127 8127 8132 8126 8127 8122 8121 8119 8122 8126 8120 8117 8116 8115 8115 
8146 8139 8157 8133 8140 8149 8137 8140 8139 8134 8130 8138 8125 8125 8130 8122 8122 8127 8131 8130 8124 8123 8126 8097 8070 8064 8057 8102 8102 8076 8103 8089 8040 8024 8025 8044 8038 8026 8032 8027 8029 8033 8034 8036 8031 8055 8056 8077 8106 8114 8119 8119 8120 8121 8121 8124 8124 8121 8123 8135 8125 8132 8125 8130 8132 8126 8126 8127 8125 8126 8128 8121 8122 8127 8125 8122 8119 8116 8115 8115 
8147 8135 8144 8131 8139 8142 8131 8131 8138 8134 8130 8135 8132 8131 8138 8137 8121 8130 8129 8127 8127 8121 8122 8099 8090 8072 8077 8108 8095 8072 8087 8082 8038 8030 8030 8039 8041 8031 8021 8033 8027 8034 8037 8030 8029 8060 8079 8069 8084 8108 8111 8117 8115 8122 8127 8126 8123 8121 8123 8129 8124 8135 8131 8135 8132 8135 8128 8124 8130 8125 8127 8130 8123 8130 8129 8132 8123 8130 8119 8120 
8147 8133 8135 8131 8128 8140 8137 8137 8141 8136 8141 8133 8131 8136 8125 8127 8122 8132 8121 8115 8125 8113 8115 8094 8077 8067 8059 8056 8045 8043 8046 8038 8039 8028 8036 8034 8032 8032 8023 8028 8028 8030 8034 8032 8034 8065 8058 8054 8057 8056 8060 8066 8077 8103 8122 8123 8119 8123 8125 8130 8124 8133 8132 8131 8134 8134 8131 8124 8127 8129 8128 8132 8129 8128 8134 8132 8129 8131 8123 8120 
8151 8137 8145 8136 8141 8136 8142 8140 8141 8140 8130 8135 8135 8142 8124 8128 8120 8125 8113 8114 8089 8048 8057 8069 8080 8067 8056 8047 8042 8039 8038 8034 8041 8040 8029 8029 8028 8033 8031 8035 8037 8030 8030 8035 8043 8053 8058 8057 8047 8048 8054 8050 8055 8058 8109 8121 8125 8123 8127 8133 8134 8135 8133 8133 8131 8132 8125 8121 8125 8128 8129 8132 8131 8136 8138 8134 8133 8135 8122 8119 
8146 8144 8140 8130 8138 8137 8140 8127 8143 8142 8134 8131 8133 8136 8126 8125 8126 8133 8112 8099 8076 8049 8057 8066 8061 8075 8052 8044 8035 8037 8040 8031 8040 8035 8030 8021 8024 8031 8031 8037 8029 8039 8032 8038 8051 8050 8061 8056 8051 8044 8058 8048 8049 8060 8108 8122 8124 8125 8124 8129 8129 8128 8130 8132 8128 8133 8127 8128 8134 8129 8128 8129 8136 8131 8127 8135 8135 8129 8125 8125 
8149 8134 8135 8139 8136 8139 8138 8134 8135 8137 8134 8126 8135 8133 8132 8135 8133 8126 8118 8094 8077 8063 8075 8080 8069 8064 8060 8051 8044 8041 8042 8043 8042 8046 8040 8033 8030 8027 8031 8030 8037 8037 8034 8042 8050 8053 8054 8051 8050 8049 8062 8051 8053 8060 8116 8126 8124 8119 8126 8128 8130 8133 8125 8132 8128 8129 8132 8128 8131 8132 8128 8126 8135 8132 8126 8131 8136 8131 8127 8124 
8154 8142 8129 8138 8138 8142 8146 8136 8131 8127 8130 8134 8134 8133 8127 8131 8129 8121 8124 8102 8076 8061 8068 8073 8060 8057 8045 8046 8045 8046 8039 8041 8046 8042 8038 8040 8034 8038 8034 8033 8042 8040 8037 8046 8053 8056 8054 8062 8053 8053 8056 8055 8057 8072 8110 8123 8124 8123 8126 8123 8126 8122 8123 8125 8123 8123 8127 8123 8128 8128 8128 8125 8131 8132 8133 8131 8136 8133 8130 8132 
8142 8146 8137 8144 8137 8137 8138 8137 8146 8140 8139 8128 8134 8116 8129 8135 8134 8126 8121 8113 8087 8060 8064 8067 8062 8059 8050 8050 8059 8059 8061 8065 8061 8058 8059 8059 8057 8052 8056 8046 8055 8056 8054 8062 8060 8056 8067 8069 8069 8065 8063 8056 8066 8080 8116 8118 8119 8122 8121 8121 8120 8124 8123 8128 8126 8124 8126 8121 8127 8125 8123 8132 8128 8128 8139 8144 8136 8137 8134 8131 
8150 8129 8144 8144 8131 8140 8144 8134 8140 8126 8134 8131 8132 8122 8129 8125 8128 8119 8119 8115 8096 8067 8076 8072 8076 8073 8066 8061 8068 8065 8074 8067 8074 8061 8068 8063 8070 8070 8062 8056 8058 8051 8066 8069 8060 8055 8074 8070 8066 8070 8059 8065 8080 8103 8117 8119 8118 8122 8114 8115 8117 8124 8126 8129 8117 8123 8123 8114 8129 8120 8127 8123 8136 8129 8140 8143 8136 8137 8135 8135 
8147 8125 8144 8139 8132 8142 8148 8131 8137 8126 8136 8137 8135 8137 8121 8124 8126 8126 8132 8119 8101 8091 8092 8087 8084 8087 8077 8068 8064 8065 8076 8077 8081 8066 8074 8065 8071 8071 8059 8062 8063 8061 8062 8069 8066 8072 8069 8072 8061 8060 8063 8087 8107 8116 8116 8113 8117 8119 8118 8117 8117 8125 8124 8122 8113 8117 8120 8120 8127 8127 8124 8129 8137 8135 8137 8139 8139 8144 8131 8135 
8147 8120 8135 8133 8138 8131 8145 8128 8131 8131 8135 8126 8129 8136 8127 8133 8127 8122 8134 8115 8121 8117 8095 8102 8088 8083 8077 8066 8074 8069 8079 8082 8078 8076 8078 8072 8072 8074 8067 8074 8071 8072 8076 8066 8067 8069 8075 8072 8068 8073 8079 8104 8109 8115 8107 8118 8118 8116 8111 8111 8118 8122 8119 8113 8110 8114 8122 8120 8126 8127 8124 8124 8136 8138 8138 8134 8137 8139 8132 8135 
8142 8128 8128 8134 8131 8137 8130 8139 8122 8123 8134 8129 8133 8137 8131 8121 8124 8125 8133 8119 8124 8118 8111 8103 8086 8093 8082 8078 8084 8079 8070 8089 8077 8075 8081 8070 8074 8074 8078 8076 8073 8070 8074 8073 8069 8069 8070 8069 8068 8072 8079 8088 8109 8116 8118 8115 8117 8116 8108 8123 8119 8123 8120 8111 8110 8118 8125 8118 8129 8121 8132 8127 8129 8129 8140 8140 8141 8138 8132 8138 
8139 8125 8135 8141 8128 8121 8123 8141 8136 8127 8117 8124 8121 8131 8131 8110 8126 8133 8127 8127 8122 8125 8112 8102 8089 8087 8089 8096 8088 8076 8077 8084 8081 8076 8081 8077 8079 8073 8069 8076 8074 8075 8074 8083 8082 8076 8076 8075 8070 8078 8075 8093 8103 8119 8121 8114 8115 8114 8120 8117 8115 8122 8124 8111 8116 8120 8114 8116 8125 8120 8124 8130 8129 8141 8138 8136 8133 8134 8140 8148 
8128 8123 8134 8128 8129 8136 8130 8131 8113 8128 8117 8127 8116 8131 8129 8124 8126 8130 8120 8119 8124 8122 8108 8101 8092 8081 8082 8092 8085 8077 8086 8077 8077 8084 8085 8082 8085 8080 8081 8076 8077 8081 8081 8088 8084 8085 8084 8077 8080 8081 8081 8097 8111 8106 8120 8116 8115 8110 8113 8115 8121 8121 8121 8112 8119 8117 8110 8124 8127 8119 8119 8131 8128 8141 8134 8134 8134 8133 8149 8157 
8132 8124 8122 8119 8109 8108 8118 8117 8108 8126 8112 8119 8116 8129 8120 8121 8117 8119 8123 8120 8123 8121 8099 8097 8095 8078 8074 8086 8088 8075 8078 8078 8080 8081 8085 8082 8085 8086 8084 8077 8076 8076 8090 8091 8090 8085 8075 8078 8082 8086 8081 8100 8111 8107 8119 8114 8115 8107 8109 8114 8117 8116 8115 8110 8117 8109 8111 8107 8116 8122 8124 8123 8124 8132 8136 8141 8136 8134 8146 8157 
8130 8110 8114 8096 8086 8083 8089 8089 8074 8100 8103 8100 8113 8109 8108 8111 8113 8112 8102 8105 8118 8117 8103 8096 8087 8059 8074 8081 8090 8084 8072 8083 8088 8075 8091 8086 8087 8084 8080 8081 8083 8087 8087 8092 8089 8083 8069 8078 8082 8079 8083 8097 8111 8111 8113 8114 8112 8110 8109 8114 8114 8110 8113 8114 8114 8112 8110 8115 8118 8113 8124 8127 8132 8135 8142 8149 8138 8135 8145 8149 
8113 8090 8094 8068 8056 8055 8070 8050 8060 8071 8065 8056 8077 8083 8084 8083 8088 8108 8100 8103 8110 8104 8101 8097 8087 8061 8051 8080 8090 8090 8089 8076 8085 8079 8083 8090 8087 8084 8082 8084 8078 8088 8088 8087 8084 8067 8074 8075 8080 8082 8078 8099 8099 8106 8111 8109 8107 8111 8108 8107 8106 8104 8112 8111 8105 8117 8108 8120 8110 8112 8121 8124 8127 8130 8139 8140 8140 8126 8137 8148 
8118 8092 8089 8059 8077 8070 8072 8050 8061 8063 8064 8056 8061 8077 8085 8086 8091 8111 8113 8111 8103 8105 8111 8100 8094 8071 8082 8080 8085 8080 8079 8087 8081 8081 8070 8080 8083 8079 8084 8086 8084 8079 8071 8086 8075 8067 8073 8076 8073 8076 8072 8080 8085 8092 8103 8095 8101 8100 8101 8103 8098 8107 8111 8106 8103 8105 8106 8114 8115 8108 8119 8118 8119 8118 8131 8133 8134 8117 8129 8130 
8121 8088 8070 8073 8071 8067 8054 8065 8072 8076 8085 8066 8061 8100 8108 8116 8127 8141 8137 8135 8144 8128 8135 8109 8095 8080 8079 8078 8080 8085 8088 8072 8069 8082 8070 8080 8080 8083 8080 8086 8078 8079 8076 8076 8074 8065 8075 8075 8074 8078 8066 8061 8066 8064 8074 8083 8085 8082 8093 8093 8094 8093 8095 8094 8091 8096 8104 8108 8109 8118 8115 8116 8117 8115 8120 8121 8120 8113 8118 8126 
8132 8112 8107 8105 8118 8097 8078 8081 8086 8098 8109 8089 8092 8097 8105 8123 8149 8144 8135 8133 8134 8127 8127 8109 8088 8075 8073 8076 8074 8078 8078 8074 8069 8077 8079 8077 8075 8080 8080 8080 8076 8079 8076 8074 8074 8068 8077 8081 8078 8074 8065 8062 8063 8058 8059 8070 8085 8086 8093 8097 8092 8090 8093 8098 8098 8100 8109 8116 8115 8118 8116 8123 8120 8124 8127 8125 8122 8128 8122 8122 


