P2
80 60
8330
8169 8169 8185 8216 8221 8228 8231 8236 8239 8240 8239 8245 8238 8235 8236 8239 8239 8240 8239 8247 8249 8252 8250 8250 8254 8267 8280 8285 8287 8296 8295 8303 8305 8304 8305 8311 8314 8319 8323 8321 8321 8320 8312 8314 8310 8311 8303 8310 8307 8310 8309 8303 8300 8303 8302 8295 8293 8291 8288 8284 8282 8281 8280 8279 8277 8273 8270 8270 8268 8261 8257 8255 8254 8254 8253 8253 8254 8252 8253 8249 
8170 8169 8188 8214 8220 8225 8235 8237 8239 8246 8243 8243 8241 8237 8235 8238 8237 8245 8246 8249 8250 8254 8256 8249 8255 8272 8282 8286 8289 8293 8297 8301 8307 8304 8310 8314 8316 8318 8324 8323 8320 8320 8317 8313 8312 8306 8308 8307 8307 8309 8308 8302 8300 8301 8299 8295 8291 8295 8290 8286 8282 8283 8282 8281 8274 8271 8271 8270 8269 8264 8257 8259 8257 8255 8253 8250 8254 8252 8253 8245 
8169 8165 8200 8220 8226 8232 8234 8239 8245 8246 8245 8245 8242 8237 8238 8241 8244 8246 8247 8252 8250 8256 8255 8252 8260 8274 8283 8286 8290 8293 8296 8303 8306 8308 8312 8320 8319 8321 8323 8324 8321 8319 8316 8311 8312 8308 8305 8309 8307 8309 8305 8300 8300 8301 8304 8296 8294 8294 8292 8292 8288 8287 8283 8279 8279 8277 8270 8270 8268 8264 8258 8259 8256 8255 8254 8251 8254 8249 8247 8247 
8173 8185 8213 8222 8227 8231 8240 8245 8245 8243 8243 8245 8239 8238 8239 8240 8240 8248 8247 8249 8257 8255 8256 8255 8260 8273 8282 8287 8290 8293 8297 8301 8303 8310 8314 8315 8317 8322 8323 8321 8320 8319 8314 8314 8312 8308 8305 8308 8307 8308 8308 8303 8301 8302 8304 8299 8293 8293 8295 8290 8289 8285 8286 8283 8284 8280 8275 8276 8270 8267 8262 8262 8261 8256 8254 8252 8249 8249 8250 8246 
8194 8209 8220 8225 8229 8235 8237 8240 8242 8244 8243 8241 8241 8237 8239 8240 8244 8252 8248 8254 8258 8254 8257 8259 8264 8274 8287 8288 8288 8294 8298 8301 8305 8311 8313 8315 8318 8322 8325 8325 8322 8322 8317 8316 8312 8309 8303 8306 8310 8310 8310 8305 8304 8304 8304 8300 8295 8295 8298 8293 8289 8289 8285 8285 8284 8278 8275 8278 8272 8271 8266 8264 8263 8257 8259 8250 8248 8250 8250 8246 
8222 8224 8227 8226 8234 8233 8237 8238 8238 8241 8238 8240 8238 8239 8242 8241 8246 8253 8250 8254 8258 8258 8260 8261 8268 8279 8287 8289 8290 8294 8295 8300 8306 8309 8314 8315 8317 8322 8327 8329 8327 8324 8322 8320 8314 8309 8306 8308 8310 8315 8309 8307 8304 8311 8306 8301 8297 8297 8298 8291 8291 8289 8287 8283 8285 8281 8278 8280 8276 8270 8271 8269 8264 8258 8259 8251 8250 8250 8248 8248 
8231 8223 8230 8234 8233 8235 8238 8235 8234 8238 8236 8235 8237 8239 8245 8243 8247 8255 8254 8252 8256 8260 8260 8266 8270 8283 8293 8291 8292 8295 8298 8301 8306 8309 8312 8315 8316 8321 8327 8330 8328 8330 8324 8323 8316 8310 8308 8312 8311 8311 8313 8308 8312 8309 8307 8301 8299 8296 8298 8292 8290 8292 8287 8285 8287 8283 8279 8283 8278 8276 8272 8274 8268 8265 8261 8253 8251 8251 8251 8244 
8238 8233 8236 8233 8235 8235 8235 8231 8234 8237 8239 8240 8240 8241 8246 8247 8249 8252 8253 8256 8258 8262 8262 8265 8276 8288 8293 8294 8294 8297 8298 8302 8307 8309 8313 8312 8315 8318 8324 8328 8328 8330 8325 8326 8320 8312 8308 8309 8310 8311 8310 8307 8306 8308 8306 8303 8296 8300 8294 8293 8290 8287 8284 8284 8282 8281 8280 8280 8279 8278 8271 8269 8271 8266 8263 8253 8250 8251 8252 8244 
8246 8238 8234 8237 8238 8235 8235 8233 8234 8237 8236 8242 8238 8242 8247 8248 8251 8253 8253 8255 8261 8263 8265 8267 8277 8288 8295 8297 8298 8301 8298 8304 8304 8308 8313 8313 8313 8313 8320 8324 8326 8327 8324 8322 8323 8314 8311 8311 8309 8313 8312 8303 8305 8306 8309 8302 8297 8296 8294 8291 8290 8285 8284 8280 8281 8281 8283 8280 8277 8273 8272 8270 8268 8265 8264 8256 8255 8255 8251 8245 
8251 8244 8241 8236 8239 8236 8234 8238 8235 8238 8238 8236 8240 8245 8248 8252 8252 8253 8254 8257 8261 8265 8267 8269 8280 8289 8298 8300 8302 8301 8300 8305 8303 8306 8312 8310 8309 8313 8317 8319 8318 8323 8320 8319 8318 8311 8307 8307 8310 8313 8309 8305 8304 8304 8304 8300 8295 8295 8293 8292 8287 8287 8285 8279 8282 8278 8278 8278 8277 8275 8270 8268 8266 8265 8267 8257 8255 8253 8251 8247 
8254 8246 8242 8238 8241 8237 8239 8238 8239 8237 8235 8237 8239 8244 8246 8251 8253 8255 8254 8258 8257 8262 8265 8271 8280 8291 8297 8301 8303 8301 8303 8307 8306 8307 8310 8308 8308 8312 8315 8316 8313 8312 8312 8312 8313 8308 8305 8303 8309 8309 8307 8303 8302 8305 8302 8296 8293 8291 8293 8288 8289 8286 8285 8281 8281 8278 8274 8277 8276 8271 8268 8267 8271 8266 8262 8259 8256 8253 8253 8251 
8258 8250 8254 8253 8250 8248 8242 8242 8239 8240 8235 8239 8238 8243 8248 8250 8253 8254 8256 8258 8258 8262 8263 8273 8283 8292 8297 8302 8300 8306 8305 8311 8309 8310 8309 8309 8311 8313 8315 8317 8311 8312 8309 8307 8308 8303 8301 8305 8303 8303 8305 8300 8299 8302 8301 8295 8291 8288 8291 8284 8283 8283 8282 8279 8282 8279 8274 8276 8271 8269 8266 8263 8266 8260 8260 8260 8257 8257 8252 8244 
8267 8263 8262 8259 8259 8252 8250 8240 8241 8238 8234 8239 8240 8244 8250 8253 8251 8258 8257 8259 8261 8263 8269 8272 8286 8297 8301 8301 8302 8302 8304 8306 8307 8311 8308 8305 8308 8311 8313 8315 8309 8309 8306 8304 8303 8301 8299 8303 8302 8300 8300 8298 8299 8299 8295 8293 8289 8289 8285 8280 8280 8280 8282 8280 8282 8279 8276 8275 8272 8268 8268 8264 8262 8256 8260 8258 8255 8254 8250 8251 
8274 8269 8269 8265 8262 8254 8247 8239 8238 8235 8238 8242 8244 8243 8248 8255 8255 8257 8258 8260 8264 8266 8272 8275 8288 8292 8297 8295 8298 8299 8301 8302 8304 8308 8307 8307 8306 8309 8310 8312 8305 8306 8302 8301 8301 8299 8297 8300 8300 8299 8297 8293 8294 8293 8292 8289 8286 8286 8279 8277 8276 8278 8279 8275 8279 8275 8273 8272 8267 8266 8263 8264 8258 8258 8257 8252 8253 8249 8250 8247 
8276 8272 8271 8266 8261 8255 8245 8241 8238 8239 8235 8238 8245 8248 8252 8257 8258 8261 8261 8264 8265 8270 8271 8273 8287 8290 8294 8294 8296 8298 8297 8298 8302 8306 8305 8304 8305 8308 8308 8310 8301 8304 8302 8298 8300 8298 8292 8299 8299 8298 8295 8291 8290 8291 8292 8285 8283 8282 8280 8275 8272 8277 8276 8277 8278 8275 8270 8274 8266 8264 8260 8260 8257 8257 8252 8249 8249 8246 8246 8244 
8275 8270 8268 8261 8259 8253 8247 8240 8240 8236 8236 8244 8247 8250 8257 8261 8259 8262 8260 8263 8264 8266 8271 8272 8283 8286 8293 8295 8292 8298 8294 8296 8298 8301 8301 8297 8300 8305 8307 8301 8299 8301 8299 8297 8297 8295 8292 8295 8296 8297 8295 8288 8289 8286 8287 8278 8278 8278 8279 8271 8272 8273 8273 8275 8279 8274 8273 8270 8265 8263 8260 8257 8255 8253 8249 8245 8247 8242 8247 8243 
8271 8264 8265 8256 8254 8249 8243 8238 8238 8239 8245 8245 8252 8259 8260 8263 8261 8262 8259 8265 8266 8266 8269 8274 8280 8285 8290 8291 8291 8288 8287 8294 8295 8297 8297 8295 8296 8299 8299 8299 8299 8299 8297 8294 8294 8291 8290 8294 8292 8292 8293 8288 8285 8288 8287 8275 8274 8275 8272 8272 8274 8270 8271 8270 8273 8274 8268 8269 8267 8264 8263 8257 8253 8253 8248 8245 8243 8243 8245 8244 
8263 8258 8258 8253 8248 8246 8241 8238 8240 8242 8244 8258 8258 8258 8264 8263 8260 8260 8259 8263 8266 8268 8271 8272 8279 8284 8291 8290 8287 8289 8289 8288 8292 8292 8287 8289 8286 8289 8291 8292 8294 8293 8294 8294 8290 8288 8286 8289 8288 8288 8290 8283 8284 8284 8282 8275 8272 8271 8269 8272 8269 8271 8270 8267 8271 8271 8269 8270 8265 8263 8262 8265 8261 8256 8253 8244 8245 8242 8246 8242 
8261 8257 8251 8249 8251 8244 8243 8245 8244 8249 8252 8259 8258 8259 8265 8264 8261 8263 8260 8264 8267 8269 8271 8271 8279 8284 8289 8286 8285 8284 8282 8281 8280 8280 8273 8259 8236 8237 8226 8284 8286 8290 8291 8290 8288 8284 8284 8286 8285 8286 8286 8286 8284 8282 8279 8275 8274 8272 8273 8268 8266 8265 8267 8250 8256 8262 8263 8268 8266 8266 8265 8263 8263 8264 8260 8257 8253 8247 8246 8248 
8260 8251 8255 8251 8250 8245 8243 8245 8249 8251 8254 8258 8260 8261 8263 8261 8260 8262 8259 8264 8266 8266 8269 8270 8278 8286 8286 8284 8280 8279 8232 8183 8186 8207 8158 8130 8127 8167 8254 8281 8278 8286 8285 8284 8282 8282 8280 8282 8281 8283 8283 8279 8280 8284 8280 8277 8270 8272 8268 8266 8264 8262 8246 8180 8181 8224 8249 8263 8265 8263 8261 8261 8262 8264 8262 8258 8256 8252 8250 8251 
8254 8254 8254 8250 8249 8248 8246 8248 8253 8255 8256 8257 8259 8261 8259 8262 8254 8261 8258 8263 8263 8266 8271 8271 8278 8282 8284 8282 8276 8247 8177 8181 8170 8122 8104 8096 8114 8218 8246 8220 8189 8255 8275 8273 8272 8275 8272 8276 8281 8277 8281 8275 8277 8283 8281 8271 8269 8269 8266 8264 8261 8253 8194 8146 8150 8167 8201 8253 8261 8260 8263 8265 8261 8265 8263 8262 8259 8255 8255 8249 
8259 8252 8254 8252 8250 8247 8250 8248 8254 8255 8255 8260 8260 8261 8262 8261 8258 8258 8259 8263 8262 8264 8268 8270 8272 8276 8279 8274 8248 8193 8163 8173 8145 8104 8116 8107 8113 8122 8133 8127 8150 8223 8237 8230 8227 8230 8243 8260 8268 8273 8275 8271 8273 8276 8278 8271 8268 8266 8265 8263 8258 8222 8152 8145 8149 8160 8204 8255 8260 8260 8261 8264 8265 8263 8268 8262 8263 8258 8256 8257 
8258 8251 8256 8252 8252 8252 8253 8255 8255 8258 8259 8261 8259 8260 8259 8260 8257 8258 8259 8260 8258 8263 8264 8267 8271 8267 8271 8271 8213 8130 8110 8106 8093 8092 8119 8114 8138 8113 8115 8126 8153 8202 8208 8203 8201 8196 8197 8209 8231 8254 8265 8267 8269 8273 8276 8273 8267 8266 8262 8259 8239 8166 8145 8145 8157 8185 8242 8260 8260 8261 8260 8263 8260 8265 8264 8263 8261 8259 8256 8253 
8263 8258 8257 8257 8255 8255 8254 8256 8257 8259 8258 8260 8258 8258 8260 8258 8259 8260 8261 8260 8263 8262 8266 8262 8250 8192 8230 8260 8254 8151 8120 8096 8088 8089 8093 8097 8113 8098 8105 8112 8120 8158 8214 8204 8237 8229 8211 8200 8195 8201 8227 8250 8264 8269 8273 8268 8266 8263 8261 8250 8188 8146 8147 8152 8173 8233 8256 8259 8263 8261 8260 8262 8263 8263 8264 8261 8261 8263 8259 8255 
8266 8261 8266 8261 8259 8259 8259 8255 8257 8257 8255 8259 8256 8257 8258 8259 8259 8257 8260 8260 8264 8261 8263 8262 8222 8111 8122 8192 8244 8136 8111 8092 8084 8087 8102 8097 8099 8099 8133 8135 8108 8112 8119 8111 8170 8241 8246 8204 8126 8124 8146 8203 8244 8263 8271 8267 8266 8264 8259 8213 8149 8142 8151 8163 8218 8253 8259 8261 8263 8264 8261 8260 8263 8263 8261 8261 8260 8259 8259 8254 
8271 8265 8268 8262 8261 8256 8257 8258 8257 8259 8259 8260 8256 8254 8257 8254 8254 8259 8254 8262 8259 8263 8262 8257 8243 8123 8105 8117 8222 8163 8114 8097 8083 8131 8124 8113 8106 8101 8103 8104 8101 8103 8105 8101 8107 8163 8202 8145 8108 8110 8115 8172 8205 8236 8265 8268 8265 8264 8238 8160 8146 8150 8159 8195 8253 8258 8260 8262 8260 8259 8259 8263 8262 8262 8263 8257 8261 8259 8259 8255 
8274 8269 8267 8264 8260 8259 8257 8260 8259 8260 8258 8260 8257 8257 8258 8254 8253 8257 8254 8259 8262 8264 8262 8262 8255 8160 8104 8107 8179 8161 8136 8144 8099 8138 8128 8110 8105 8115 8103 8098 8093 8114 8135 8121 8096 8112 8148 8105 8105 8104 8113 8183 8211 8204 8242 8261 8262 8253 8180 8143 8150 8155 8183 8239 8259 8260 8258 8262 8260 8260 8259 8262 8259 8258 8262 8259 8260 8259 8262 8256 
8269 8267 8270 8263 8263 8262 8259 8257 8259 8260 8258 8258 8258 8256 8255 8252 8252 8254 8253 8258 8260 8263 8261 8262 8262 8225 8122 8105 8107 8094 8095 8105 8099 8099 8101 8088 8086 8087 8102 8112 8103 8138 8156 8144 8096 8088 8083 8093 8099 8104 8140 8225 8224 8211 8208 8243 8254 8207 8150 8148 8149 8170 8230 8254 8257 8259 8258 8260 8260 8264 8257 8260 8260 8260 8258 8262 8259 8259 8258 8254 
8271 8265 8266 8265 8261 8259 8258 8259 8257 8258 8259 8259 8261 8259 8257 8254 8252 8257 8255 8255 8257 8259 8260 8261 8260 8254 8197 8112 8102 8121 8162 8155 8103 8104 8131 8116 8090 8088 8086 8127 8147 8113 8100 8099 8090 8089 8073 8095 8099 8113 8192 8200 8167 8145 8142 8198 8220 8158 8149 8152 8160 8214 8251 8258 8261 8257 8256 8259 8260 8260 8259 8260 8261 8260 8259 8260 8260 8260 8255 8252 
8271 8267 8267 8263 8260 8259 8256 8262 8259 8261 8258 8259 8261 8258 8259 8255 8253 8257 8253 8256 8262 8259 8263 8257 8254 8224 8183 8113 8156 8200 8191 8138 8101 8110 8130 8113 8102 8100 8101 8110 8109 8094 8094 8095 8095 8087 8090 8092 8100 8107 8116 8125 8109 8104 8105 8122 8146 8148 8150 8156 8195 8243 8253 8253 8257 8255 8251 8256 8256 8257 8256 8259 8260 8259 8259 8256 8257 8255 8254 8249 
8269 8264 8265 8261 8259 8259 8256 8258 8258 8259 8258 8260 8259 8261 8259 8255 8251 8256 8252 8257 8256 8259 8257 8254 8227 8143 8105 8093 8122 8163 8118 8095 8098 8106 8128 8107 8114 8108 8103 8109 8098 8100 8097 8099 8097 8097 8155 8110 8101 8105 8102 8098 8093 8094 8084 8088 8104 8135 8133 8160 8230 8243 8250 8250 8253 8251 8247 8248 8252 8256 8252 8254 8255 8254 8256 8252 8255 8252 8253 8248 
8269 8260 8261 8257 8257 8256 8258 8256 8258 8257 8255 8259 8258 8257 8256 8254 8251 8255 8249 8255 8254 8255 8250 8218 8142 8115 8099 8090 8087 8103 8089 8092 8091 8100 8140 8112 8106 8103 8104 8102 8101 8099 8094 8096 8097 8099 8147 8150 8093 8106 8103 8094 8090 8092 8091 8095 8101 8115 8141 8212 8236 8241 8244 8243 8246 8244 8243 8247 8249 8251 8248 8252 8253 8255 8255 8254 8251 8251 8250 8247 
8265 8260 8261 8259 8256 8255 8254 8257 8256 8256 8256 8257 8257 8255 8257 8255 8251 8254 8252 8253 8251 8237 8199 8127 8112 8119 8126 8107 8090 8086 8087 8108 8094 8109 8108 8100 8097 8091 8098 8098 8098 8110 8119 8104 8099 8097 8093 8102 8092 8102 8129 8143 8094 8098 8110 8105 8105 8144 8194 8226 8233 8238 8239 8237 8241 8240 8241 8244 8244 8246 8245 8248 8247 8248 8247 8249 8247 8249 8248 8246 
8266 8257 8260 8255 8255 8256 8257 8259 8257 8258 8254 8255 8256 8252 8255 8258 8250 8251 8251 8247 8217 8147 8121 8116 8151 8163 8155 8150 8109 8097 8105 8115 8094 8094 8096 8098 8096 8095 8098 8100 8095 8122 8112 8108 8094 8100 8095 8094 8092 8127 8147 8145 8099 8106 8130 8113 8103 8111 8159 8216 8230 8233 8236 8234 8239 8238 8237 8238 8239 8240 8243 8242 8245 8245 8248 8248 8249 8247 8241 8242 
8262 8257 8260 8256 8257 8252 8255 8255 8260 8257 8254 8255 8253 8253 8253 8252 8253 8250 8247 8208 8137 8123 8123 8151 8211 8168 8164 8170 8131 8098 8106 8118 8127 8107 8092 8095 8096 8100 8101 8094 8095 8094 8098 8091 8093 8103 8103 8099 8096 8097 8114 8113 8101 8106 8134 8137 8125 8116 8142 8199 8226 8232 8233 8236 8236 8236 8237 8239 8238 8243 8238 8243 8246 8250 8249 8247 8250 8249 8245 8240 
8260 8256 8256 8255 8254 8254 8255 8257 8255 8260 8256 8258 8255 8252 8252 8253 8252 8247 8226 8138 8118 8122 8152 8218 8219 8162 8166 8162 8111 8102 8103 8116 8121 8102 8097 8089 8094 8098 8102 8101 8091 8099 8093 8094 8096 8088 8100 8126 8098 8096 8100 8104 8102 8106 8123 8167 8178 8136 8201 8220 8226 8230 8233 8232 8235 8235 8235 8238 8236 8238 8237 8241 8246 8248 8245 8247 8246 8247 8242 8244 
8261 8254 8257 8253 8254 8254 8255 8254 8259 8254 8256 8255 8253 8253 8252 8252 8248 8247 8203 8120 8120 8153 8222 8229 8215 8164 8166 8153 8100 8101 8104 8103 8098 8102 8106 8092 8095 8097 8103 8105 8100 8098 8095 8106 8106 8096 8097 8124 8101 8099 8093 8096 8125 8113 8115 8170 8196 8180 8209 8222 8225 8227 8231 8231 8235 8236 8232 8237 8235 8237 8235 8242 8243 8245 8248 8246 8245 8246 8245 8243 
8256 8252 8254 8252 8256 8255 8256 8256 8255 8259 8253 8255 8252 8251 8251 8253 8252 8248 8219 8137 8172 8231 8238 8234 8217 8165 8167 8161 8121 8104 8098 8100 8099 8105 8106 8100 8100 8097 8105 8103 8103 8104 8101 8108 8108 8112 8114 8118 8098 8100 8095 8099 8140 8123 8118 8158 8199 8196 8214 8222 8227 8227 8231 8229 8233 8233 8233 8236 8234 8234 8231 8240 8242 8243 8246 8243 8247 8247 8244 8243 
8255 8253 8254 8251 8253 8256 8254 8257 8254 8255 8255 8254 8251 8249 8250 8254 8251 8249 8243 8229 8241 8243 8240 8234 8221 8166 8168 8166 8142 8120 8099 8092 8109 8115 8105 8104 8103 8099 8105 8104 8106 8108 8103 8106 8110 8117 8112 8100 8101 8108 8097 8103 8134 8128 8118 8142 8191 8197 8217 8221 8227 8228 8232 8230 8233 8233 8232 8237 8236 8233 8230 8237 8240 8244 8244 8244 8245 8244 8243 8242 
8256 8251 8252 8252 8256 8254 8254 8255 8253 8258 8253 8252 8252 8249 8251 8251 8248 8251 8246 8245 8246 8246 8240 8234 8230 8176 8170 8170 8147 8137 8115 8088 8111 8120 8108 8108 8103 8098 8096 8103 8104 8109 8108 8112 8116 8108 8107 8104 8108 8118 8102 8101 8141 8140 8121 8142 8187 8206 8223 8226 8227 8229 8227 8230 8231 8234 8233 8234 8233 8233 8230 8236 8238 8240 8242 8241 8243 8245 8241 8240 
8253 8250 8252 8252 8255 8256 8255 8252 8254 8254 8255 8254 8249 8248 8248 8250 8250 8251 8246 8250 8246 8245 8241 8234 8233 8188 8175 8181 8151 8134 8131 8113 8122 8100 8092 8098 8104 8103 8099 8099 8101 8107 8108 8116 8126 8121 8118 8116 8123 8137 8107 8103 8151 8156 8137 8170 8194 8219 8227 8224 8225 8226 8228 8229 8229 8234 8233 8232 8231 8232 8231 8234 8234 8236 8239 8237 8239 8240 8243 8239 
8250 8248 8253 8250 8255 8254 8253 8254 8255 8256 8256 8253 8250 8251 8253 8254 8249 8250 8248 8247 8245 8243 8239 8237 8233 8207 8178 8191 8161 8138 8135 8131 8132 8107 8098 8097 8100 8097 8106 8097 8099 8105 8113 8120 8130 8138 8147 8130 8141 8154 8129 8127 8154 8166 8178 8196 8204 8219 8225 8223 8223 8226 8226 8229 8233 8234 8232 8231 8234 8231 8232 8231 8234 8235 8239 8240 8241 8244 8243 8234 
8250 8246 8253 8250 8254 8252 8252 8253 8252 8260 8254 8254 8251 8249 8252 8250 8251 8252 8247 8250 8247 8244 8242 8237 8235 8225 8192 8203 8184 8147 8140 8140 8141 8117 8105 8098 8098 8092 8100 8098 8097 8104 8117 8125 8135 8142 8144 8146 8155 8173 8167 8151 8162 8179 8198 8207 8208 8220 8223 8223 8224 8228 8228 8231 8232 8233 8231 8232 8231 8231 8231 8233 8235 8238 8235 8237 8239 8242 8238 8234 
8252 8245 8251 8248 8250 8253 8251 8255 8251 8258 8253 8253 8251 8250 8252 8250 8251 8253 8250 8248 8246 8246 8244 8236 8233 8231 8207 8205 8210 8155 8147 8153 8159 8131 8116 8107 8091 8088 8097 8096 8095 8109 8112 8111 8121 8128 8143 8163 8164 8178 8167 8164 8181 8192 8212 8210 8214 8217 8219 8222 8223 8227 8229 8226 8233 8231 8233 8233 8231 8230 8232 8234 8234 8237 8238 8234 8239 8235 8232 8233 
8249 8246 8249 8248 8254 8253 8251 8253 8255 8254 8252 8252 8251 8249 8252 8253 8253 8256 8252 8247 8245 8243 8240 8237 8235 8232 8225 8200 8205 8185 8149 8149 8158 8147 8132 8121 8095 8098 8101 8103 8090 8102 8111 8112 8113 8126 8143 8164 8169 8178 8176 8178 8196 8214 8225 8208 8215 8220 8222 8222 8223 8228 8229 8229 8233 8231 8228 8234 8231 8230 8230 8233 8233 8231 8238 8234 8235 8236 8234 8228 
8249 8247 8247 8249 8251 8248 8249 8251 8249 8253 8251 8253 8248 8248 8254 8251 8250 8254 8249 8246 8246 8241 8237 8234 8234 8236 8231 8207 8196 8211 8171 8143 8153 8150 8133 8122 8114 8122 8106 8099 8090 8091 8099 8108 8117 8145 8160 8161 8170 8176 8177 8181 8204 8234 8222 8206 8216 8222 8223 8220 8222 8223 8228 8227 8232 8229 8229 8228 8227 8229 8226 8230 8232 8230 8232 8234 8236 8235 8231 8226 
8246 8248 8248 8245 8247 8249 8248 8252 8251 8254 8253 8254 8250 8246 8251 8251 8248 8249 8245 8247 8244 8243 8235 8235 8235 8235 8231 8223 8204 8212 8209 8165 8158 8156 8142 8135 8129 8108 8103 8117 8111 8102 8099 8106 8116 8127 8137 8151 8164 8186 8193 8199 8239 8231 8213 8210 8217 8220 8222 8222 8220 8223 8226 8229 8230 8230 8231 8234 8229 8229 8228 8228 8232 8233 8234 8231 8237 8233 8231 8231 
8246 8243 8244 8246 8250 8245 8250 8251 8254 8252 8250 8250 8250 8250 8252 8251 8248 8252 8248 8249 8244 8243 8239 8237 8234 8237 8234 8234 8226 8209 8212 8205 8168 8151 8142 8132 8107 8105 8119 8133 8114 8113 8111 8111 8115 8125 8129 8153 8172 8196 8219 8226 8231 8211 8205 8214 8217 8222 8221 8218 8220 8222 8227 8227 8231 8229 8233 8233 8233 8231 8229 8232 8234 8234 8231 8229 8234 8230 8231 8230 
8248 8240 8249 8248 8249 8247 8248 8251 8253 8253 8251 8253 8248 8248 8255 8249 8247 8251 8247 8244 8245 8245 8238 8238 8235 8234 8237 8234 8234 8226 8208 8199 8191 8166 8150 8127 8109 8116 8138 8142 8120 8116 8114 8121 8119 8139 8159 8167 8194 8219 8229 8224 8212 8202 8209 8218 8217 8221 8220 8218 8220 8222 8226 8227 8232 8231 8233 8234 8230 8232 8227 8231 8234 8233 8234 8234 8234 8230 8234 8229 
8245 8241 8246 8244 8251 8247 8249 8251 8254 8254 8250 8250 8247 8247 8250 8252 8250 8250 8247 8247 8241 8242 8239 8237 8234 8235 8235 8239 8234 8234 8223 8204 8187 8181 8174 8132 8131 8134 8138 8138 8123 8125 8120 8155 8146 8162 8183 8187 8208 8229 8222 8207 8201 8207 8221 8221 8220 8221 8219 8221 8221 8225 8227 8230 8235 8232 8232 8235 8234 8230 8232 8230 8230 8232 8234 8235 8232 8230 8232 8228 
8249 8240 8244 8248 8249 8248 8247 8250 8254 8251 8251 8253 8248 8246 8253 8251 8249 8249 8248 8246 8248 8245 8240 8235 8233 8235 8236 8235 8235 8237 8233 8221 8212 8195 8185 8175 8176 8171 8152 8142 8135 8148 8133 8173 8198 8212 8228 8225 8220 8220 8209 8199 8203 8218 8227 8228 8223 8223 8223 8222 8223 8227 8228 8231 8233 8236 8235 8235 8234 8236 8234 8233 8232 8236 8235 8234 8235 8232 8230 8228 
8245 8240 8242 8244 8251 8251 8249 8249 8252 8250 8250 8253 8252 8249 8250 8251 8247 8251 8250 8250 8245 8246 8242 8234 8233 8234 8237 8239 8241 8238 8239 8235 8228 8215 8206 8197 8193 8185 8172 8151 8154 8176 8143 8195 8234 8237 8234 8232 8219 8210 8211 8210 8224 8232 8233 8230 8227 8228 8224 8228 8228 8231 8234 8233 8238 8237 8235 8237 8237 8236 8236 8239 8235 8236 8234 8233 8234 8236 8231 8228 
8245 8240 8244 8242 8248 8250 8250 8252 8250 8252 8250 8250 8248 8247 8246 8249 8247 8248 8247 8248 8246 8247 8243 8240 8239 8238 8241 8242 8240 8245 8244 8242 8241 8232 8220 8212 8208 8213 8204 8173 8197 8206 8200 8225 8238 8235 8222 8216 8214 8211 8219 8225 8233 8239 8243 8238 8234 8232 8234 8230 8235 8232 8235 8238 8242 8241 8237 8242 8237 8238 8238 8238 8238 8236 8235 8234 8235 8233 8235 8234 
8247 8244 8246 8245 8251 8247 8249 8248 8250 8251 8252 8254 8247 8244 8246 8249 8246 8249 8249 8253 8249 8251 8247 8248 8243 8238 8240 8245 8244 8250 8249 8251 8252 8246 8240 8231 8223 8216 8214 8209 8218 8222 8223 8224 8218 8217 8210 8213 8219 8230 8238 8240 8244 8246 8250 8241 8242 8242 8239 8237 8235 8238 8240 8239 8242 8243 8239 8242 8240 8238 8236 8235 8238 8235 8237 8233 8234 8233 8234 8232 
8247 8245 8244 8245 8249 8249 8247 8247 8249 8250 8247 8247 8245 8242 8245 8244 8248 8249 8253 8255 8250 8249 8244 8244 8244 8238 8239 8246 8245 8250 8249 8250 8253 8259 8253 8244 8238 8235 8232 8232 8224 8227 8228 8229 8215 8220 8221 8229 8240 8243 8249 8246 8251 8252 8252 8246 8244 8245 8241 8239 8239 8238 8241 8239 8241 8240 8240 8238 8239 8233 8234 8238 8243 8237 8235 8231 8233 8232 8231 8231 
8252 8245 8247 8246 8248 8248 8248 8248 8247 8250 8246 8249 8246 8244 8244 8247 8249 8249 8250 8251 8251 8245 8243 8241 8240 8235 8238 8242 8244 8246 8245 8250 8255 8255 8255 8253 8250 8253 8255 8251 8246 8248 8240 8241 8241 8241 8244 8247 8249 8253 8255 8254 8255 8257 8256 8248 8245 8245 8244 8242 8241 8241 8241 8242 8239 8241 8237 8238 8232 8232 8231 8237 8238 8234 8232 8231 8232 8231 8227 8226 
8252 8243 8249 8247 8249 8249 8248 8247 8248 8249 8247 8249 8248 8244 8243 8243 8246 8248 8248 8246 8247 8247 8241 8243 8237 8237 8236 8238 8241 8245 8243 8245 8247 8255 8261 8259 8260 8260 8260 8258 8254 8254 8253 8251 8249 8250 8250 8257 8256 8260 8257 8257 8259 8259 8261 8247 8246 8247 8246 8240 8241 8239 8239 8238 8240 8234 8233 8234 8231 8231 8229 8229 8233 8229 8229 8226 8229 8227 8227 8224 
8253 8245 8248 8249 8247 8251 8249 8249 8249 8249 8246 8249 8245 8242 8242 8243 8242 8245 8246 8245 8247 8243 8243 8240 8239 8236 8238 8237 8236 8239 8240 8244 8247 8254 8259 8262 8264 8264 8264 8262 8259 8260 8254 8255 8252 8255 8258 8259 8261 8262 8262 8257 8258 8258 8260 8252 8247 8247 8245 8242 8239 8239 8238 8236 8236 8233 8230 8232 8231 8229 8229 8226 8228 8228 8227 8226 8225 8225 8226 8218 
8253 8249 8251 8248 8250 8252 8249 8250 8249 8251 8248 8253 8249 8244 8246 8243 8242 8245 8241 8247 8245 8247 8242 8238 8238 8238 8239 8234 8233 8236 8237 8240 8243 8253 8262 8263 8263 8269 8268 8264 8258 8257 8260 8257 8255 8257 8258 8262 8263 8264 8262 8258 8258 8261 8260 8252 8248 8248 8242 8241 8238 8236 8239 8237 8237 8233 8229 8230 8228 8228 8226 8228 8227 8225 8224 8224 8222 8224 8224 8222 
8260 8241 8248 8248 8249 8250 8250 8252 8248 8249 8251 8251 8243 8244 8245 8242 8242 8248 8244 8244 8237 8245 8243 8239 8237 8239 8240 8238 8229 8237 8235 8240 8244 8254 8259 8264 8260 8268 8266 8265 8254 8255 8253 8259 8257 8259 8260 8261 8262 8266 8264 8258 8257 8258 8257 8253 8249 8244 8244 8238 8241 8237 8237 8234 8231 8229 8227 8232 8226 8229 8225 8230 8228 8227 8228 8223 8222 8221 8226 8224 


