P2
80 60
8251
8227 8233 8228 8228 8228 8226 8229 8228 8226 8227 8222 8226 8226 8224 8230 8227 8224 8222 8227 8221 8221 8216 8221 8219 8218 8215 8221 8222 8222 8229 8227 8228 8229 8234 8237 8233 8231 8231 8231 8228 8227 8224 8222 8222 8218 8218 8223 8217 8220 8218 8217 8213 8205 8204 8200 8202 8204 8200 8206 8202 8204 8208 8205 8199 8204 8198 8197 8198 8198 8202 8203 8207 8210 8212 8214 8212 8212 8208 8209 8208 
8226 8229 8228 8229 8229 8229 8231 8229 8227 8229 8223 8228 8227 8227 8231 8228 8229 8222 8224 8221 8222 8217 8219 8222 8217 8215 8221 8223 8222 8225 8228 8226 8229 8233 8234 8231 8227 8230 8231 8228 8226 8222 8221 8219 8216 8220 8222 8223 8219 8218 8213 8212 8204 8205 8201 8200 8204 8200 8202 8205 8206 8207 8202 8203 8201 8198 8197 8197 8198 8199 8203 8204 8206 8212 8214 8212 8210 8211 8210 8207 
8225 8230 8228 8225 8225 8226 8231 8228 8229 8228 8227 8226 8226 8227 8227 8227 8229 8223 8224 8220 8219 8220 8221 8222 8215 8217 8220 8219 8220 8223 8226 8228 8227 8231 8232 8228 8228 8228 8225 8227 8226 8223 8217 8219 8216 8219 8224 8220 8220 8218 8215 8211 8202 8204 8201 8203 8202 8201 8205 8204 8203 8205 8201 8198 8199 8197 8197 8195 8197 8198 8195 8200 8202 8208 8211 8211 8213 8209 8209 8203 
8225 8227 8221 8226 8225 8228 8233 8228 8225 8225 8224 8222 8225 8224 8228 8226 8226 8221 8223 8218 8218 8215 8217 8218 8217 8215 8219 8220 8221 8224 8223 8224 8226 8230 8229 8227 8225 8223 8227 8227 8225 8219 8216 8219 8214 8218 8220 8220 8219 8218 8217 8210 8203 8204 8197 8202 8202 8198 8200 8200 8203 8204 8201 8198 8195 8194 8192 8194 8198 8196 8196 8197 8195 8200 8205 8205 8208 8208 8207 8205 
8225 8228 8226 8225 8225 8227 8226 8224 8226 8225 8222 8223 8225 8225 8228 8224 8226 8219 8221 8217 8220 8215 8216 8219 8215 8215 8217 8218 8219 8222 8224 8223 8226 8229 8228 8224 8225 8225 8226 8226 8225 8218 8216 8215 8211 8216 8218 8217 8217 8218 8215 8209 8204 8201 8197 8198 8200 8198 8201 8199 8202 8202 8199 8196 8194 8192 8194 8191 8193 8196 8191 8194 8191 8194 8195 8198 8199 8200 8201 8197 
8223 8226 8223 8224 8227 8226 8227 8226 8225 8226 8221 8223 8226 8226 8225 8223 8220 8222 8222 8217 8216 8212 8217 8215 8216 8213 8218 8217 8220 8220 8219 8224 8225 8227 8228 8223 8224 8224 8224 8223 8223 8219 8215 8215 8208 8215 8215 8215 8214 8215 8211 8207 8204 8198 8197 8196 8199 8193 8198 8200 8199 8201 8197 8198 8196 8194 8189 8191 8191 8191 8189 8192 8189 8192 8188 8192 8196 8196 8195 8195 
8227 8226 8221 8225 8224 8226 8224 8226 8220 8222 8219 8222 8221 8221 8221 8220 8221 8217 8219 8215 8213 8213 8219 8219 8212 8212 8215 8217 8217 8216 8219 8222 8223 8226 8229 8222 8220 8223 8222 8223 8220 8215 8211 8213 8208 8214 8214 8211 8209 8209 8212 8205 8199 8198 8197 8194 8196 8193 8197 8196 8194 8195 8193 8194 8192 8189 8190 8186 8189 8189 8187 8187 8186 8186 8187 8187 8189 8188 8189 8191 
8225 8227 8223 8223 8225 8224 8224 8225 8220 8221 8219 8220 8220 8220 8220 8218 8221 8219 8219 8217 8213 8213 8214 8217 8213 8210 8216 8216 8214 8212 8218 8221 8222 8224 8224 8219 8220 8223 8222 8219 8219 8214 8210 8213 8209 8211 8210 8207 8209 8208 8206 8202 8196 8194 8191 8194 8195 8194 8193 8195 8194 8198 8192 8191 8191 8192 8183 8185 8188 8187 8184 8184 8180 8182 8184 8183 8183 8183 8184 8185 
8220 8227 8219 8223 8222 8224 8224 8226 8222 8220 8221 8220 8216 8220 8221 8217 8218 8215 8216 8212 8215 8211 8214 8214 8211 8209 8213 8213 8217 8216 8215 8217 8220 8222 8222 8214 8218 8217 8218 8217 8215 8211 8206 8208 8206 8205 8208 8207 8207 8204 8204 8200 8197 8193 8190 8190 8192 8186 8191 8192 8193 8194 8189 8187 8185 8183 8182 8186 8186 8183 8180 8182 8177 8179 8180 8181 8181 8178 8183 8178 
8220 8224 8215 8220 8224 8222 8223 8223 8218 8219 8219 8216 8216 8217 8220 8220 8220 8216 8218 8211 8211 8209 8213 8213 8209 8205 8211 8209 8214 8214 8216 8216 8216 8218 8218 8215 8213 8215 8212 8211 8212 8210 8207 8206 8201 8206 8206 8207 8206 8204 8201 8199 8191 8192 8187 8187 8187 8185 8188 8188 8193 8191 8186 8187 8185 8184 8183 8180 8182 8181 8178 8178 8173 8175 8178 8176 8176 8176 8178 8178 
8218 8224 8216 8220 8220 8221 8221 8222 8216 8217 8214 8216 8216 8215 8217 8217 8215 8214 8216 8209 8210 8210 8211 8213 8205 8205 8208 8209 8212 8212 8214 8212 8213 8215 8214 8214 8211 8215 8211 8211 8210 8204 8205 8205 8199 8204 8205 8203 8202 8202 8201 8198 8190 8190 8186 8184 8185 8182 8186 8185 8189 8192 8185 8184 8182 8183 8180 8178 8177 8176 8176 8175 8172 8172 8175 8171 8172 8171 8175 8175 
8216 8224 8217 8219 8219 8217 8219 8218 8216 8217 8215 8214 8213 8216 8215 8216 8217 8212 8215 8207 8209 8208 8208 8211 8206 8202 8209 8209 8209 8212 8208 8211 8211 8213 8216 8209 8209 8212 8208 8206 8205 8201 8202 8202 8199 8201 8200 8200 8200 8203 8200 8197 8190 8187 8183 8182 8183 8181 8183 8188 8187 8187 8185 8182 8183 8177 8178 8176 8177 8172 8172 8172 8171 8170 8171 8173 8170 8172 8172 8170 
8217 8225 8217 8219 8219 8220 8219 8217 8214 8214 8215 8214 8213 8215 8215 8215 8214 8210 8213 8209 8207 8206 8209 8211 8205 8202 8206 8206 8209 8209 8207 8208 8206 8212 8211 8210 8205 8205 8206 8205 8203 8202 8198 8202 8199 8201 8202 8199 8203 8199 8200 8196 8192 8186 8185 8182 8183 8181 8181 8186 8186 8185 8180 8181 8176 8179 8175 8172 8171 8169 8170 8171 8167 8169 8171 8167 8171 8172 8167 8169 
8215 8222 8217 8215 8217 8219 8215 8212 8212 8213 8211 8214 8213 8212 8211 8212 8214 8209 8211 8209 8209 8207 8206 8209 8205 8201 8202 8207 8204 8205 8203 8205 8205 8207 8207 8202 8203 8201 8202 8201 8202 8197 8198 8197 8192 8198 8197 8198 8193 8196 8196 8190 8186 8187 8181 8183 8182 8180 8182 8188 8185 8185 8179 8181 8177 8173 8168 8167 8171 8167 8167 8167 8164 8169 8164 8167 8166 8169 8167 8165 
8220 8224 8217 8219 8217 8217 8218 8213 8216 8212 8211 8212 8211 8214 8214 8213 8216 8212 8212 8209 8207 8204 8206 8209 8204 8200 8205 8203 8204 8203 8201 8203 8204 8205 8208 8198 8196 8198 8197 8192 8189 8189 8190 8195 8188 8186 8182 8178 8180 8185 8187 8189 8186 8188 8180 8182 8181 8181 8183 8184 8183 8185 8180 8178 8173 8175 8171 8167 8170 8168 8164 8166 8166 8165 8168 8169 8164 8167 8169 8164 
8219 8220 8213 8217 8216 8216 8212 8213 8211 8212 8211 8212 8213 8211 8211 8212 8209 8207 8212 8205 8204 8200 8203 8205 8202 8201 8203 8202 8202 8198 8194 8194 8199 8200 8196 8175 8178 8170 8158 8142 8122 8125 8146 8179 8173 8121 8103 8102 8103 8130 8159 8174 8181 8182 8180 8180 8181 8182 8180 8181 8186 8186 8179 8178 8175 8171 8172 8168 8168 8166 8164 8166 8166 8166 8168 8166 8165 8167 8166 8164 
8215 8219 8213 8213 8215 8213 8211 8214 8209 8215 8208 8210 8212 8209 8213 8211 8208 8209 8209 8205 8202 8201 8203 8204 8200 8198 8200 8199 8200 8183 8117 8122 8148 8175 8142 8111 8109 8143 8178 8179 8139 8091 8083 8108 8143 8090 8086 8087 8082 8086 8091 8108 8145 8172 8176 8178 8180 8179 8184 8184 8184 8184 8180 8177 8175 8171 8170 8166 8166 8167 8168 8168 8166 8166 8165 8167 8164 8165 8165 8164 
8215 8220 8213 8214 8214 8212 8211 8208 8209 8209 8204 8213 8210 8210 8209 8206 8210 8203 8206 8202 8203 8199 8200 8202 8197 8197 8196 8197 8196 8192 8135 8090 8084 8095 8087 8085 8148 8187 8187 8187 8184 8162 8109 8090 8114 8095 8124 8131 8127 8112 8123 8135 8153 8163 8169 8178 8181 8181 8183 8185 8184 8186 8180 8177 8174 8171 8171 8169 8169 8169 8167 8169 8167 8163 8164 8165 8163 8164 8163 8160 
8213 8217 8213 8214 8210 8210 8211 8210 8209 8208 8207 8213 8209 8208 8209 8209 8208 8202 8207 8199 8200 8196 8200 8201 8195 8194 8194 8195 8197 8193 8174 8096 8080 8077 8078 8086 8165 8182 8169 8167 8174 8171 8160 8110 8118 8123 8169 8179 8178 8182 8184 8181 8181 8180 8175 8178 8181 8182 8181 8182 8183 8184 8180 8177 8174 8170 8171 8169 8171 8170 8166 8167 8168 8164 8168 8163 8163 8163 8164 8167 
8209 8216 8209 8210 8212 8210 8213 8211 8209 8205 8206 8207 8209 8209 8208 8207 8207 8203 8203 8199 8198 8195 8200 8199 8194 8190 8193 8194 8195 8192 8187 8107 8079 8077 8080 8129 8155 8099 8081 8086 8105 8108 8128 8121 8105 8087 8133 8166 8174 8178 8181 8182 8180 8177 8176 8180 8180 8180 8182 8179 8183 8187 8180 8175 8174 8174 8170 8169 8172 8170 8170 8169 8165 8165 8168 8166 8164 8163 8163 8161 
8213 8211 8210 8209 8209 8209 8212 8205 8207 8208 8205 8207 8209 8209 8207 8203 8206 8200 8201 8197 8201 8194 8198 8198 8192 8189 8177 8184 8191 8191 8156 8122 8115 8079 8110 8142 8129 8078 8077 8091 8103 8149 8136 8088 8083 8082 8085 8089 8099 8131 8162 8171 8176 8176 8175 8177 8177 8179 8179 8183 8183 8184 8178 8178 8175 8175 8174 8170 8170 8169 8169 8173 8167 8169 8167 8167 8163 8164 8164 8165 
8209 8211 8209 8210 8210 8208 8209 8209 8209 8205 8205 8207 8207 8209 8205 8205 8202 8198 8200 8193 8201 8195 8199 8199 8192 8159 8102 8111 8171 8166 8163 8178 8132 8086 8103 8101 8108 8104 8147 8157 8121 8103 8086 8092 8091 8088 8088 8083 8082 8082 8092 8117 8164 8172 8173 8176 8180 8178 8181 8180 8182 8186 8177 8177 8176 8175 8172 8170 8173 8172 8171 8170 8169 8168 8171 8168 8165 8165 8167 8161 
8212 8210 8206 8209 8211 8206 8207 8207 8206 8207 8203 8206 8207 8204 8204 8203 8203 8197 8197 8192 8195 8195 8196 8198 8191 8158 8100 8081 8100 8105 8153 8183 8124 8082 8082 8075 8079 8104 8137 8101 8070 8070 8077 8098 8104 8105 8092 8073 8078 8088 8097 8103 8134 8159 8168 8175 8174 8177 8177 8178 8184 8182 8180 8176 8178 8174 8172 8174 8174 8174 8170 8171 8173 8170 8171 8169 8166 8165 8165 8167 
8212 8212 8209 8206 8207 8207 8206 8203 8206 8204 8203 8207 8205 8205 8202 8204 8199 8195 8194 8190 8191 8190 8193 8195 8189 8182 8146 8098 8079 8076 8115 8155 8089 8081 8084 8079 8084 8097 8078 8070 8068 8078 8089 8104 8118 8101 8075 8074 8080 8093 8126 8117 8142 8158 8146 8140 8162 8168 8174 8176 8178 8182 8178 8178 8177 8176 8175 8173 8174 8175 8171 8172 8170 8169 8169 8169 8167 8169 8167 8162 
8209 8211 8205 8208 8207 8206 8204 8204 8207 8205 8204 8206 8204 8203 8203 8197 8198 8194 8193 8187 8189 8186 8189 8193 8189 8182 8183 8163 8096 8085 8089 8078 8064 8084 8090 8086 8092 8135 8080 8068 8076 8083 8075 8079 8084 8100 8111 8095 8095 8106 8130 8161 8161 8174 8168 8154 8135 8128 8141 8167 8179 8182 8182 8178 8175 8176 8175 8171 8176 8176 8171 8172 8173 8171 8169 8170 8169 8167 8166 8166 
8208 8212 8207 8207 8205 8205 8204 8204 8206 8205 8203 8204 8203 8203 8202 8196 8196 8192 8195 8188 8189 8186 8189 8187 8183 8180 8167 8103 8075 8079 8073 8082 8088 8084 8093 8087 8088 8087 8082 8090 8105 8108 8082 8085 8088 8090 8128 8140 8117 8116 8124 8169 8172 8174 8172 8173 8161 8138 8132 8139 8171 8181 8180 8178 8180 8180 8171 8172 8177 8173 8172 8172 8170 8172 8173 8172 8171 8167 8169 8169 
8206 8210 8207 8207 8204 8205 8204 8203 8202 8204 8203 8203 8202 8203 8200 8197 8195 8190 8191 8186 8188 8183 8184 8177 8159 8142 8115 8092 8080 8076 8071 8081 8104 8084 8089 8084 8088 8088 8092 8090 8114 8129 8134 8140 8132 8108 8114 8150 8127 8118 8125 8169 8174 8171 8173 8174 8176 8158 8144 8131 8153 8177 8178 8182 8179 8181 8176 8174 8177 8173 8173 8173 8172 8170 8171 8173 8171 8166 8168 8169 
8207 8211 8207 8209 8205 8203 8207 8202 8202 8202 8202 8201 8199 8203 8204 8197 8194 8190 8193 8183 8181 8163 8138 8116 8124 8135 8159 8153 8090 8072 8071 8069 8077 8074 8074 8073 8085 8070 8078 8075 8102 8132 8135 8145 8139 8117 8107 8106 8106 8122 8123 8170 8172 8171 8172 8175 8176 8174 8160 8144 8141 8167 8177 8180 8179 8176 8178 8176 8174 8171 8171 8172 8171 8170 8172 8173 8172 8170 8168 8167 
8208 8209 8207 8206 8204 8205 8207 8204 8204 8203 8201 8200 8199 8201 8202 8195 8192 8185 8184 8173 8140 8103 8105 8111 8108 8125 8148 8133 8084 8075 8079 8076 8064 8058 8067 8070 8109 8070 8076 8078 8081 8111 8127 8139 8137 8127 8110 8110 8101 8097 8109 8142 8149 8158 8166 8174 8178 8177 8175 8156 8142 8157 8176 8181 8181 8179 8178 8173 8176 8174 8173 8171 8173 8172 8170 8171 8170 8172 8167 8171 
8206 8210 8208 8208 8207 8207 8205 8207 8204 8203 8201 8200 8197 8199 8202 8194 8172 8149 8139 8116 8105 8106 8116 8116 8141 8171 8141 8102 8082 8099 8085 8082 8087 8079 8069 8071 8078 8092 8072 8076 8081 8090 8101 8109 8106 8117 8122 8109 8109 8096 8094 8097 8104 8110 8154 8174 8173 8175 8180 8172 8154 8158 8168 8179 8182 8180 8174 8174 8170 8173 8170 8171 8169 8173 8174 8171 8171 8171 8169 8165 
8211 8212 8208 8206 8206 8210 8207 8206 8204 8202 8201 8203 8201 8196 8196 8152 8112 8105 8109 8112 8122 8128 8147 8159 8164 8127 8100 8098 8092 8123 8104 8079 8106 8093 8077 8070 8065 8067 8060 8064 8077 8088 8096 8098 8084 8096 8114 8117 8120 8111 8094 8095 8141 8144 8168 8172 8174 8176 8182 8181 8166 8163 8164 8175 8183 8175 8177 8174 8175 8171 8169 8171 8168 8172 8175 8168 8171 8170 8171 8170 
8209 8210 8204 8207 8207 8205 8205 8208 8204 8206 8198 8200 8198 8196 8177 8118 8108 8112 8138 8143 8149 8158 8177 8164 8110 8098 8101 8105 8136 8163 8161 8102 8116 8086 8102 8073 8088 8085 8066 8063 8066 8078 8093 8088 8080 8078 8110 8131 8147 8139 8095 8093 8140 8169 8171 8172 8174 8176 8181 8182 8177 8168 8170 8173 8179 8176 8173 8174 8174 8172 8168 8169 8168 8171 8172 8173 8170 8170 8171 8169 
8212 8212 8209 8209 8210 8210 8206 8203 8203 8205 8201 8201 8198 8196 8148 8112 8109 8127 8176 8173 8184 8176 8159 8110 8102 8104 8114 8159 8173 8155 8145 8149 8143 8104 8093 8078 8095 8105 8079 8070 8074 8100 8116 8123 8112 8116 8108 8142 8171 8174 8142 8103 8108 8161 8170 8174 8170 8172 8174 8179 8183 8176 8165 8165 8177 8180 8176 8173 8173 8173 8167 8173 8172 8168 8172 8169 8170 8172 8172 8170 
8211 8212 8210 8211 8211 8210 8209 8208 8203 8204 8199 8203 8199 8190 8131 8111 8113 8147 8186 8187 8183 8152 8114 8109 8112 8113 8152 8181 8176 8171 8165 8128 8088 8085 8097 8097 8095 8094 8097 8082 8095 8108 8121 8128 8127 8138 8132 8146 8157 8153 8153 8144 8129 8131 8147 8148 8136 8129 8141 8170 8182 8181 8165 8163 8175 8176 8175 8173 8175 8173 8172 8172 8171 8171 8173 8174 8172 8170 8171 8170 
8214 8214 8212 8212 8210 8214 8212 8205 8203 8206 8200 8200 8197 8186 8126 8113 8125 8176 8190 8186 8170 8108 8114 8121 8122 8132 8177 8172 8132 8097 8100 8097 8093 8099 8105 8102 8089 8087 8094 8091 8101 8108 8115 8121 8121 8131 8140 8127 8117 8155 8175 8175 8172 8147 8158 8161 8134 8111 8107 8124 8162 8177 8170 8161 8175 8174 8174 8174 8173 8173 8171 8173 8172 8171 8171 8171 8168 8173 8172 8171 
8218 8218 8215 8214 8213 8210 8210 8206 8203 8206 8201 8201 8199 8182 8121 8119 8149 8185 8195 8187 8159 8116 8119 8124 8120 8156 8178 8132 8091 8095 8100 8104 8102 8106 8109 8101 8095 8094 8093 8098 8104 8111 8112 8122 8120 8123 8127 8105 8081 8100 8160 8175 8175 8172 8168 8174 8174 8152 8123 8109 8116 8162 8171 8171 8168 8175 8174 8175 8176 8174 8171 8175 8171 8173 8172 8175 8173 8175 8174 8170 
8222 8219 8213 8214 8215 8212 8209 8207 8201 8204 8201 8202 8200 8180 8124 8121 8175 8188 8195 8189 8181 8129 8153 8120 8127 8174 8177 8114 8095 8103 8108 8103 8101 8108 8107 8100 8098 8098 8099 8103 8108 8117 8123 8131 8128 8122 8120 8103 8082 8082 8118 8172 8174 8178 8175 8177 8180 8175 8161 8124 8111 8135 8172 8176 8162 8170 8175 8176 8176 8174 8172 8175 8174 8173 8178 8175 8176 8173 8177 8173 
8223 8222 8214 8214 8218 8213 8210 8206 8205 8204 8202 8204 8199 8171 8127 8139 8189 8189 8192 8187 8190 8183 8182 8136 8152 8185 8179 8120 8109 8111 8109 8102 8095 8102 8106 8102 8101 8102 8104 8106 8111 8107 8122 8134 8127 8128 8122 8122 8096 8078 8085 8161 8176 8178 8175 8177 8183 8176 8174 8147 8121 8121 8161 8175 8165 8169 8175 8178 8177 8179 8177 8176 8178 8177 8178 8178 8174 8175 8173 8175 
8222 8217 8215 8216 8215 8211 8208 8206 8203 8205 8201 8201 8199 8169 8128 8163 8191 8192 8191 8191 8189 8188 8188 8159 8183 8188 8186 8138 8120 8114 8107 8100 8096 8087 8108 8102 8104 8104 8108 8109 8114 8094 8088 8110 8124 8125 8122 8144 8141 8091 8089 8153 8176 8177 8178 8176 8180 8181 8177 8170 8133 8127 8150 8173 8176 8175 8178 8178 8179 8177 8174 8178 8179 8178 8177 8176 8175 8176 8178 8172 
8214 8217 8213 8209 8212 8213 8209 8204 8206 8204 8200 8201 8194 8144 8126 8181 8192 8189 8193 8191 8193 8188 8192 8192 8191 8189 8185 8168 8123 8115 8109 8096 8073 8070 8100 8104 8106 8109 8111 8115 8106 8088 8079 8086 8098 8120 8116 8157 8167 8131 8106 8157 8173 8177 8177 8180 8183 8179 8181 8178 8159 8144 8155 8173 8179 8179 8179 8181 8178 8178 8180 8180 8178 8178 8178 8175 8176 8177 8181 8182 
8215 8218 8211 8213 8212 8209 8208 8205 8204 8204 8200 8200 8185 8125 8138 8190 8192 8191 8193 8189 8190 8188 8194 8191 8191 8187 8186 8180 8140 8120 8109 8082 8070 8071 8101 8097 8106 8109 8112 8108 8095 8087 8084 8087 8087 8118 8103 8134 8168 8170 8146 8173 8175 8178 8178 8177 8180 8178 8182 8185 8178 8177 8170 8168 8176 8182 8180 8178 8181 8183 8183 8183 8181 8182 8181 8179 8179 8179 8181 8180 
8215 8220 8212 8215 8212 8211 8209 8204 8206 8206 8204 8203 8180 8125 8159 8194 8196 8193 8193 8191 8192 8189 8193 8193 8190 8188 8187 8185 8170 8128 8131 8106 8081 8078 8079 8085 8100 8105 8102 8100 8099 8102 8104 8095 8084 8077 8078 8086 8127 8172 8176 8178 8176 8179 8176 8181 8180 8178 8182 8183 8184 8187 8184 8175 8180 8184 8185 8181 8187 8186 8186 8185 8181 8183 8183 8183 8181 8182 8184 8183 
8211 8220 8212 8213 8212 8210 8208 8204 8203 8206 8204 8202 8195 8153 8165 8198 8201 8193 8195 8191 8195 8189 8194 8194 8189 8190 8187 8186 8182 8170 8115 8133 8091 8084 8123 8114 8091 8096 8095 8099 8106 8121 8147 8112 8107 8088 8079 8085 8106 8169 8178 8180 8178 8181 8179 8179 8180 8178 8184 8186 8187 8191 8188 8188 8189 8184 8183 8183 8184 8187 8184 8187 8190 8184 8188 8187 8184 8184 8186 8186 
8215 8217 8212 8212 8208 8212 8209 8211 8208 8208 8205 8205 8201 8182 8168 8202 8200 8195 8196 8192 8191 8185 8189 8193 8192 8190 8188 8187 8182 8159 8102 8096 8099 8106 8123 8103 8091 8095 8093 8104 8119 8131 8135 8153 8143 8110 8095 8090 8109 8143 8175 8179 8178 8179 8177 8180 8178 8180 8182 8186 8190 8190 8189 8186 8188 8189 8186 8185 8188 8188 8185 8188 8189 8187 8188 8188 8186 8187 8188 8184 
8213 8214 8207 8211 8211 8210 8211 8213 8208 8212 8209 8205 8203 8200 8193 8205 8199 8195 8197 8193 8192 8191 8187 8195 8190 8188 8183 8181 8165 8111 8099 8113 8116 8118 8119 8120 8102 8103 8099 8109 8106 8116 8137 8140 8123 8127 8104 8100 8102 8113 8143 8176 8175 8176 8178 8178 8180 8180 8183 8187 8189 8188 8189 8189 8188 8192 8187 8185 8190 8188 8188 8190 8190 8188 8190 8186 8188 8187 8189 8189 
8213 8218 8213 8214 8215 8211 8212 8212 8212 8215 8211 8207 8207 8210 8207 8205 8204 8196 8198 8195 8193 8188 8190 8186 8178 8164 8159 8145 8115 8101 8100 8100 8109 8118 8121 8124 8112 8105 8101 8107 8104 8124 8139 8152 8123 8108 8106 8111 8110 8110 8116 8165 8178 8182 8182 8183 8183 8182 8184 8189 8187 8189 8189 8190 8192 8191 8186 8187 8192 8189 8192 8193 8193 8195 8192 8189 8186 8188 8191 8189 
8216 8215 8211 8214 8214 8215 8212 8213 8215 8214 8211 8210 8209 8209 8209 8208 8204 8199 8203 8196 8194 8186 8162 8143 8137 8136 8133 8125 8104 8100 8103 8105 8119 8124 8129 8128 8113 8108 8103 8108 8109 8126 8159 8165 8150 8119 8114 8116 8118 8116 8122 8159 8174 8179 8182 8191 8193 8187 8186 8190 8189 8191 8188 8191 8192 8189 8190 8189 8195 8191 8191 8192 8194 8193 8193 8193 8187 8190 8186 8190 
8217 8221 8212 8217 8216 8214 8214 8214 8213 8213 8209 8210 8207 8211 8207 8205 8207 8202 8204 8198 8196 8177 8137 8134 8136 8133 8129 8120 8109 8104 8101 8114 8126 8126 8131 8137 8116 8110 8108 8136 8123 8130 8167 8172 8167 8151 8130 8125 8124 8127 8130 8162 8184 8183 8183 8188 8191 8190 8190 8189 8190 8194 8190 8190 8192 8191 8188 8189 8193 8194 8192 8194 8194 8194 8194 8189 8189 8189 8190 8189 
8215 8220 8214 8217 8216 8216 8215 8216 8213 8213 8210 8208 8208 8211 8209 8207 8206 8200 8201 8198 8197 8178 8144 8141 8150 8143 8146 8128 8102 8101 8104 8119 8124 8121 8122 8125 8119 8111 8108 8127 8137 8133 8132 8149 8154 8159 8155 8138 8146 8139 8141 8172 8202 8202 8203 8208 8201 8196 8194 8189 8189 8190 8188 8190 8193 8190 8190 8191 8191 8193 8192 8196 8194 8195 8196 8193 8190 8187 8191 8192 
8218 8218 8219 8219 8220 8219 8216 8215 8213 8213 8208 8211 8207 8213 8209 8207 8211 8203 8201 8200 8197 8187 8160 8148 8156 8149 8161 8145 8108 8103 8105 8115 8114 8106 8101 8106 8113 8113 8103 8100 8104 8107 8110 8125 8129 8142 8150 8159 8174 8178 8155 8190 8224 8227 8239 8237 8226 8211 8202 8193 8190 8191 8190 8191 8193 8192 8191 8190 8194 8194 8195 8197 8194 8194 8195 8195 8194 8192 8190 8191 
8219 8220 8217 8220 8220 8220 8215 8215 8213 8216 8212 8210 8210 8208 8211 8209 8206 8201 8202 8196 8196 8194 8162 8134 8130 8139 8146 8126 8102 8107 8110 8111 8114 8113 8106 8115 8117 8115 8113 8106 8108 8099 8106 8122 8124 8134 8144 8150 8153 8161 8174 8192 8214 8222 8251 8248 8223 8214 8204 8193 8189 8192 8190 8188 8189 8189 8189 8191 8193 8195 8195 8197 8195 8194 8198 8196 8190 8189 8193 8187 
8218 8219 8216 8219 8219 8219 8219 8217 8213 8214 8212 8211 8210 8209 8211 8207 8207 8202 8202 8195 8192 8191 8170 8135 8127 8126 8137 8141 8139 8137 8135 8133 8130 8132 8133 8125 8120 8118 8122 8117 8113 8109 8112 8125 8128 8138 8154 8160 8166 8177 8195 8213 8227 8222 8219 8218 8214 8213 8201 8189 8188 8190 8186 8185 8187 8187 8188 8190 8195 8196 8192 8193 8195 8195 8194 8194 8193 8190 8189 8189 
8217 8222 8218 8220 8221 8219 8219 8216 8215 8215 8209 8207 8206 8211 8210 8207 8203 8200 8201 8196 8194 8191 8181 8150 8137 8129 8138 8142 8141 8140 8137 8146 8145 8155 8157 8150 8151 8152 8154 8156 8158 8154 8153 8160 8159 8173 8189 8203 8216 8232 8239 8239 8234 8230 8223 8226 8228 8225 8194 8186 8186 8189 8186 8184 8188 8188 8188 8189 8194 8195 8193 8196 8196 8194 8195 8194 8191 8191 8188 8188 
8215 8221 8216 8220 8219 8218 8218 8215 8215 8214 8211 8206 8210 8209 8210 8208 8207 8201 8201 8198 8195 8193 8193 8172 8148 8144 8144 8143 8141 8147 8143 8146 8153 8159 8163 8155 8154 8158 8163 8165 8168 8167 8164 8172 8171 8187 8204 8215 8228 8237 8243 8240 8234 8235 8233 8239 8236 8212 8187 8186 8184 8188 8184 8184 8186 8185 8188 8188 8191 8193 8195 8196 8195 8199 8192 8194 8194 8191 8191 8186 
8217 8217 8213 8215 8216 8216 8218 8214 8214 8211 8208 8209 8207 8210 8210 8205 8205 8200 8199 8198 8195 8194 8194 8191 8155 8140 8139 8140 8141 8147 8146 8144 8155 8158 8164 8163 8161 8165 8164 8171 8175 8173 8172 8180 8184 8202 8218 8230 8239 8246 8243 8242 8237 8247 8246 8246 8226 8188 8183 8184 8182 8188 8183 8184 8186 8186 8188 8185 8189 8192 8193 8197 8193 8194 8197 8193 8187 8189 8189 8190 
8215 8216 8213 8213 8214 8213 8216 8213 8212 8212 8207 8208 8206 8208 8209 8207 8201 8195 8197 8193 8193 8193 8195 8194 8163 8140 8139 8136 8136 8141 8142 8138 8143 8152 8160 8161 8164 8165 8168 8176 8176 8180 8179 8188 8190 8209 8226 8238 8240 8238 8239 8227 8230 8237 8235 8222 8200 8180 8175 8180 8181 8180 8183 8180 8185 8185 8183 8183 8188 8190 8190 8193 8193 8193 8191 8190 8186 8185 8193 8189 
8213 8216 8210 8212 8210 8213 8213 8213 8210 8209 8205 8205 8209 8206 8206 8202 8203 8196 8193 8192 8193 8191 8196 8193 8172 8149 8141 8143 8141 8145 8152 8145 8143 8148 8151 8152 8158 8164 8171 8177 8179 8181 8184 8187 8190 8205 8217 8226 8226 8224 8223 8220 8220 8218 8211 8206 8193 8177 8174 8178 8181 8181 8183 8183 8184 8185 8184 8184 8190 8193 8191 8194 8190 8192 8190 8188 8189 8186 8188 8187 
8212 8216 8207 8206 8209 8207 8208 8210 8206 8208 8199 8203 8204 8203 8201 8199 8197 8194 8194 8187 8188 8186 8190 8191 8175 8156 8152 8149 8152 8154 8162 8159 8152 8157 8159 8154 8159 8165 8173 8181 8185 8191 8195 8200 8199 8204 8210 8215 8221 8224 8224 8223 8217 8213 8205 8204 8186 8174 8172 8177 8179 8182 8182 8183 8183 8182 8185 8187 8189 8193 8192 8193 8190 8190 8193 8188 8187 8188 8187 8193 
8216 8211 8204 8200 8199 8201 8202 8198 8199 8198 8196 8196 8196 8199 8202 8195 8198 8189 8188 8189 8186 8184 8187 8188 8180 8163 8164 8162 8159 8158 8164 8166 8157 8166 8165 8162 8163 8174 8184 8196 8202 8206 8202 8205 8202 8205 8208 8214 8223 8227 8228 8225 8223 8213 8209 8206 8182 8173 8171 8176 8179 8184 8181 8183 8182 8182 8185 8185 8192 8194 8191 8191 8190 8190 8192 8187 8186 8187 8186 8189 
8241 8210 8204 8199 8197 8199 8200 8197 8199 8200 8196 8198 8193 8194 8198 8192 8191 8187 8191 8186 8184 8183 8186 8187 8182 8172 8168 8167 8163 8165 8170 8175 8172 8172 8169 8166 8168 8173 8185 8196 8196 8202 8200 8203 8204 8206 8212 8218 8230 8233 8230 8230 8228 8218 8211 8208 8183 8178 8182 8185 8186 8187 8189 8188 8190 8189 8189 8190 8198 8193 8190 8192 8194 8195 8194 8190 8185 8190 8188 8191 


