P2
80 60
8225
8179 8184 8190 8190 8197 8194 8186 8183 8188 8185 8190 8193 8190 8185 8187 8189 8184 8187 8191 8187 8196 8201 8203 8194 8193 8209 8197 8200 8197 8199 8199 8205 8202 8200 8197 8199 8201 8200 8205 8202 8204 8202 8195 8200 8196 8201 8200 8206 8200 8202 8196 8195 8193 8187 8185 8190 8185 8187 8188 8199 8197 8198 8197 8198 8201 8198 8201 8202 8204 8206 8207 8205 8205 8207 8206 8208 8204 8204 8210 8202 
8179 8194 8200 8190 8196 8194 8189 8183 8183 8193 8189 8193 8186 8188 8183 8189 8186 8185 8190 8195 8204 8204 8203 8193 8198 8198 8192 8198 8198 8198 8196 8202 8197 8203 8198 8198 8195 8208 8204 8202 8202 8204 8193 8198 8199 8200 8195 8200 8200 8202 8194 8196 8197 8194 8186 8193 8187 8193 8189 8194 8196 8202 8197 8195 8197 8200 8203 8205 8207 8213 8208 8201 8207 8207 8212 8201 8204 8201 8205 8201 
8167 8181 8187 8180 8193 8186 8182 8189 8183 8188 8189 8186 8179 8187 8185 8183 8186 8187 8184 8188 8193 8196 8197 8193 8194 8206 8192 8202 8195 8196 8189 8200 8192 8203 8197 8195 8192 8202 8199 8201 8202 8199 8196 8199 8198 8201 8197 8206 8200 8198 8193 8193 8191 8193 8191 8192 8188 8186 8186 8189 8194 8200 8191 8195 8198 8194 8200 8201 8203 8210 8201 8201 8201 8202 8199 8195 8202 8202 8202 8203 
8179 8177 8191 8180 8189 8182 8185 8184 8186 8187 8178 8174 8180 8186 8181 8184 8187 8188 8185 8184 8189 8188 8179 8194 8196 8196 8196 8199 8195 8198 8188 8200 8197 8203 8198 8200 8198 8202 8201 8199 8200 8197 8199 8190 8194 8190 8195 8197 8199 8194 8192 8190 8192 8193 8193 8197 8186 8190 8188 8192 8191 8199 8191 8196 8191 8192 8195 8201 8200 8213 8201 8209 8200 8207 8200 8200 8204 8199 8202 8193 
8185 8180 8193 8182 8187 8191 8189 8180 8179 8184 8182 8172 8178 8179 8177 8181 8181 8178 8182 8177 8182 8190 8184 8186 8195 8200 8194 8196 8187 8199 8187 8202 8192 8196 8190 8198 8196 8195 8196 8195 8201 8195 8194 8188 8196 8190 8191 8196 8194 8195 8190 8189 8193 8190 8192 8194 8186 8188 8184 8193 8194 8200 8189 8198 8192 8195 8191 8189 8200 8203 8198 8205 8193 8207 8190 8200 8198 8203 8200 8196 
8186 8186 8180 8179 8180 8181 8190 8184 8181 8185 8170 8178 8182 8177 8179 8177 8184 8171 8187 8190 8194 8184 8195 8183 8194 8195 8192 8194 8182 8190 8191 8200 8192 8195 8192 8198 8193 8201 8198 8197 8200 8195 8197 8186 8193 8189 8189 8191 8191 8194 8194 8190 8196 8191 8189 8193 8191 8193 8192 8196 8192 8194 8192 8190 8190 8189 8188 8188 8197 8203 8203 8199 8207 8199 8192 8203 8198 8197 8199 8195 
8193 8195 8186 8193 8187 8183 8192 8190 8180 8171 8168 8185 8181 8167 8175 8179 8170 8175 8182 8192 8180 8186 8196 8188 8194 8200 8179 8189 8183 8199 8193 8197 8191 8194 8190 8194 8193 8193 8195 8193 8199 8192 8194 8192 8193 8191 8188 8196 8191 8193 8190 8186 8190 8190 8189 8188 8188 8183 8187 8187 8189 8192 8189 8193 8191 8193 8199 8198 8192 8193 8201 8201 8196 8195 8196 8199 8196 8196 8200 8197 
8184 8190 8177 8189 8178 8184 8188 8189 8182 8166 8181 8185 8177 8174 8181 8179 8179 8182 8184 8182 8192 8187 8191 8191 8195 8192 8176 8191 8183 8195 8189 8197 8195 8195 8193 8198 8193 8197 8197 8194 8197 8189 8193 8192 8188 8192 8190 8189 8191 8191 8189 8187 8190 8190 8186 8187 8189 8184 8192 8185 8190 8185 8188 8185 8185 8193 8192 8194 8191 8190 8193 8194 8198 8194 8201 8202 8193 8201 8202 8197 
8194 8183 8183 8184 8189 8185 8195 8189 8184 8173 8178 8181 8177 8182 8172 8177 8174 8174 8181 8181 8189 8180 8187 8185 8180 8191 8177 8189 8182 8193 8188 8192 8191 8194 8192 8194 8191 8189 8194 8190 8197 8192 8195 8187 8190 8193 8185 8189 8194 8186 8185 8183 8189 8186 8193 8185 8188 8183 8185 8183 8186 8183 8187 8183 8184 8189 8188 8193 8192 8196 8188 8187 8183 8188 8190 8192 8193 8197 8199 8197 
8190 8175 8182 8184 8182 8187 8173 8187 8183 8184 8177 8180 8178 8180 8174 8173 8181 8176 8191 8188 8187 8183 8190 8185 8175 8191 8183 8191 8181 8188 8181 8189 8186 8193 8193 8201 8197 8199 8193 8189 8194 8194 8191 8176 8182 8192 8190 8194 8195 8188 8186 8187 8195 8187 8189 8178 8186 8182 8186 8182 8193 8185 8185 8186 8184 8182 8187 8192 8186 8193 8193 8193 8191 8188 8191 8188 8191 8194 8194 8189 
8186 8182 8185 8186 8183 8189 8172 8186 8184 8177 8177 8178 8176 8182 8175 8176 8179 8167 8171 8178 8187 8182 8183 8186 8179 8183 8182 8191 8183 8189 8184 8183 8181 8193 8189 8183 8185 8185 8192 8186 8192 8183 8183 8192 8189 8195 8192 8188 8193 8186 8187 8184 8190 8188 8188 8178 8188 8177 8186 8184 8183 8182 8184 8181 8178 8182 8189 8185 8183 8189 8186 8188 8183 8181 8186 8180 8186 8186 8189 8185 
8182 8191 8187 8178 8172 8185 8173 8186 8182 8177 8177 8177 8176 8177 8171 8174 8175 8170 8172 8183 8188 8189 8180 8189 8185 8187 8179 8188 8186 8188 8185 8187 8178 8191 8189 8184 8193 8188 8193 8183 8190 8188 8187 8191 8188 8188 8193 8188 8187 8187 8191 8190 8194 8186 8186 8181 8181 8177 8187 8184 8181 8180 8185 8182 8180 8185 8189 8187 8186 8192 8186 8186 8184 8185 8179 8179 8188 8187 8189 8186 
8185 8187 8176 8174 8170 8182 8179 8171 8177 8176 8177 8173 8173 8173 8180 8178 8173 8174 8178 8174 8176 8185 8175 8179 8184 8187 8174 8192 8181 8184 8193 8181 8186 8188 8177 8176 8188 8193 8185 8180 8183 8188 8194 8191 8188 8190 8186 8191 8187 8189 8190 8190 8190 8190 8191 8183 8185 8178 8183 8184 8180 8177 8182 8176 8183 8183 8184 8181 8187 8180 8181 8183 8182 8182 8180 8188 8190 8183 8188 8183 
8189 8198 8185 8183 8183 8183 8182 8181 8172 8182 8181 8181 8176 8172 8173 8171 8175 8174 8179 8179 8181 8182 8181 8186 8178 8183 8181 8181 8176 8181 8187 8178 8185 8185 8183 8185 8185 8188 8182 8181 8189 8183 8191 8187 8183 8187 8185 8191 8189 8190 8186 8194 8190 8190 8191 8176 8180 8181 8179 8179 8178 8176 8181 8182 8184 8190 8184 8187 8187 8193 8186 8187 8180 8184 8180 8189 8187 8194 8187 8183 
8193 8183 8186 8190 8186 8184 8178 8185 8177 8177 8177 8176 8178 8180 8180 8180 8178 8174 8181 8184 8175 8182 8176 8186 8174 8186 8182 8182 8177 8184 8181 8177 8185 8178 8179 8180 8181 8180 8181 8172 8180 8182 8189 8186 8188 8186 8184 8184 8189 8190 8189 8190 8190 8189 8188 8189 8188 8181 8182 8180 8182 8175 8178 8182 8182 8186 8184 8182 8184 8184 8186 8189 8180 8186 8176 8182 8180 8183 8186 8183 
8192 8172 8181 8188 8185 8178 8176 8178 8176 8184 8180 8180 8174 8174 8173 8178 8176 8174 8182 8180 8173 8183 8179 8184 8175 8187 8186 8174 8175 8180 8178 8176 8179 8181 8181 8184 8185 8181 8178 8167 8181 8183 8189 8183 8187 8184 8182 8188 8183 8185 8184 8189 8187 8188 8184 8185 8183 8180 8178 8184 8179 8172 8178 8181 8189 8186 8183 8186 8181 8186 8186 8185 8178 8184 8178 8184 8184 8188 8187 8179 
8194 8176 8178 8192 8182 8176 8178 8172 8180 8181 8178 8181 8172 8171 8171 8182 8171 8180 8180 8178 8171 8179 8179 8173 8172 8180 8179 8179 8181 8176 8183 8177 8177 8181 8175 8177 8179 8178 8177 8174 8183 8181 8185 8182 8183 8181 8185 8179 8188 8189 8185 8188 8188 8185 8179 8181 8178 8179 8182 8180 8179 8172 8177 8176 8182 8176 8179 8183 8179 8185 8179 8182 8182 8184 8180 8185 8185 8185 8186 8181 
8190 8186 8181 8179 8178 8186 8177 8181 8177 8181 8181 8178 8180 8182 8175 8178 8174 8175 8176 8176 8178 8181 8184 8172 8170 8184 8190 8171 8175 8174 8183 8176 8182 8186 8181 8187 8181 8183 8181 8177 8181 8180 8189 8182 8184 8182 8181 8178 8185 8186 8184 8185 8186 8183 8177 8177 8177 8174 8178 8178 8180 8179 8181 8184 8181 8180 8185 8184 8184 8188 8179 8188 8183 8188 8182 8184 8182 8184 8188 8183 
8183 8182 8183 8187 8181 8180 8184 8180 8182 8175 8178 8179 8179 8178 8174 8177 8168 8176 8176 8173 8168 8176 8172 8168 8181 8181 8171 8140 8144 8146 8160 8165 8160 8169 8174 8179 8178 8179 8176 8175 8175 8176 8182 8183 8182 8185 8183 8190 8181 8183 8184 8184 8183 8183 8181 8171 8178 8174 8179 8179 8177 8176 8180 8181 8179 8178 8184 8180 8183 8182 8183 8186 8180 8184 8182 8190 8182 8180 8186 8183 
8185 8182 8181 8180 8174 8190 8183 8183 8182 8177 8181 8187 8177 8177 8178 8181 8168 8174 8163 8144 8128 8135 8145 8142 8137 8126 8132 8133 8139 8152 8148 8134 8140 8150 8155 8176 8177 8180 8173 8184 8177 8180 8186 8183 8178 8182 8180 8180 8180 8185 8185 8183 8180 8178 8180 8175 8179 8178 8177 8175 8174 8180 8179 8184 8184 8178 8181 8179 8184 8190 8186 8182 8183 8180 8184 8184 8180 8181 8188 8183 
8187 8187 8177 8172 8168 8177 8173 8186 8183 8175 8174 8179 8175 8174 8168 8184 8174 8180 8146 8131 8114 8121 8125 8131 8123 8130 8114 8145 8142 8140 8120 8120 8124 8131 8136 8155 8173 8178 8175 8179 8177 8175 8181 8176 8173 8181 8179 8184 8181 8178 8178 8178 8182 8180 8180 8183 8175 8180 8175 8172 8176 8179 8178 8181 8180 8179 8185 8182 8182 8184 8184 8184 8179 8180 8181 8185 8185 8184 8190 8185 
8188 8191 8178 8186 8182 8185 8165 8184 8175 8184 8171 8175 8179 8183 8165 8172 8168 8167 8153 8143 8121 8129 8143 8161 8138 8131 8120 8122 8125 8122 8120 8116 8123 8130 8134 8132 8150 8170 8177 8178 8179 8181 8179 8177 8173 8183 8173 8175 8181 8176 8178 8181 8179 8180 8180 8181 8176 8181 8172 8175 8176 8178 8181 8179 8186 8180 8184 8181 8186 8180 8184 8182 8179 8179 8184 8181 8178 8180 8188 8185 
8186 8184 8181 8188 8184 8177 8168 8164 8170 8179 8180 8177 8173 8177 8167 8171 8170 8162 8160 8129 8133 8161 8162 8156 8132 8117 8119 8116 8120 8127 8124 8122 8121 8123 8139 8135 8138 8160 8179 8166 8171 8176 8178 8177 8172 8176 8169 8177 8179 8173 8174 8179 8175 8179 8177 8180 8177 8177 8170 8170 8178 8180 8181 8181 8182 8181 8183 8182 8185 8180 8180 8178 8177 8176 8180 8183 8188 8185 8194 8186 
8190 8193 8183 8182 8180 8185 8180 8167 8182 8180 8181 8174 8176 8177 8174 8173 8170 8166 8154 8144 8171 8172 8166 8166 8149 8114 8110 8118 8120 8124 8149 8145 8132 8126 8127 8128 8121 8140 8163 8168 8178 8178 8178 8178 8175 8176 8172 8172 8175 8181 8184 8180 8174 8179 8176 8180 8178 8183 8170 8173 8174 8179 8178 8183 8187 8184 8189 8186 8180 8181 8178 8180 8180 8183 8181 8181 8183 8183 8188 8182 
8191 8176 8184 8191 8183 8179 8176 8179 8181 8172 8177 8176 8181 8176 8175 8172 8176 8169 8156 8161 8176 8167 8170 8156 8148 8126 8111 8117 8125 8136 8170 8153 8131 8129 8130 8122 8123 8126 8145 8170 8174 8179 8179 8177 8176 8176 8171 8176 8175 8178 8180 8178 8174 8174 8175 8180 8179 8184 8176 8183 8176 8183 8181 8183 8184 8182 8185 8185 8183 8183 8182 8186 8179 8181 8182 8180 8184 8185 8189 8184 
8193 8179 8177 8185 8179 8173 8183 8167 8175 8177 8173 8180 8175 8178 8172 8167 8168 8169 8169 8158 8167 8137 8135 8138 8143 8124 8107 8110 8115 8131 8154 8139 8118 8124 8122 8115 8119 8122 8154 8166 8177 8176 8177 8174 8177 8175 8177 8173 8176 8181 8180 8179 8176 8181 8175 8182 8175 8179 8175 8181 8177 8175 8176 8179 8186 8182 8192 8186 8181 8184 8178 8184 8179 8184 8180 8180 8183 8183 8190 8181 
8187 8181 8172 8184 8179 8180 8175 8164 8171 8174 8171 8184 8172 8177 8168 8176 8174 8167 8171 8149 8137 8115 8113 8114 8123 8128 8126 8111 8123 8132 8128 8125 8119 8128 8126 8124 8122 8135 8156 8164 8170 8169 8172 8173 8174 8173 8176 8172 8179 8175 8172 8173 8173 8180 8176 8177 8175 8179 8175 8187 8183 8175 8185 8178 8181 8181 8180 8179 8177 8184 8177 8184 8178 8185 8182 8185 8187 8186 8189 8187 
8180 8184 8182 8182 8179 8173 8178 8174 8170 8180 8167 8177 8175 8177 8169 8169 8164 8170 8175 8131 8115 8111 8117 8119 8114 8127 8127 8116 8116 8135 8112 8123 8119 8125 8119 8116 8115 8131 8137 8139 8148 8161 8171 8176 8182 8167 8177 8171 8179 8179 8167 8180 8173 8181 8182 8182 8181 8181 8181 8183 8183 8179 8181 8177 8184 8179 8188 8182 8178 8185 8180 8184 8181 8184 8183 8185 8187 8186 8188 8188 
8184 8183 8177 8187 8180 8181 8177 8173 8178 8181 8178 8183 8177 8173 8173 8171 8171 8168 8156 8119 8121 8115 8117 8124 8119 8126 8127 8125 8119 8135 8125 8129 8123 8131 8127 8126 8131 8122 8138 8126 8134 8134 8154 8168 8168 8166 8180 8176 8176 8173 8171 8173 8177 8180 8181 8183 8184 8186 8180 8182 8180 8175 8184 8181 8185 8180 8180 8176 8174 8184 8179 8183 8177 8181 8183 8186 8185 8194 8190 8186 
8176 8175 8174 8182 8175 8183 8183 8173 8181 8173 8180 8182 8174 8174 8164 8170 8164 8170 8155 8124 8112 8116 8121 8123 8119 8124 8123 8128 8113 8131 8135 8129 8124 8128 8124 8117 8120 8123 8130 8126 8129 8127 8140 8137 8149 8164 8166 8170 8172 8173 8184 8178 8180 8185 8178 8185 8179 8177 8174 8176 8176 8173 8182 8180 8188 8182 8185 8183 8174 8188 8180 8189 8179 8183 8184 8186 8185 8190 8192 8189 
8185 8183 8183 8189 8183 8186 8173 8179 8183 8169 8182 8174 8166 8176 8170 8177 8173 8161 8154 8119 8116 8114 8123 8127 8117 8120 8129 8139 8116 8133 8121 8129 8120 8137 8124 8125 8127 8124 8130 8120 8129 8123 8133 8132 8146 8162 8174 8172 8165 8169 8165 8165 8166 8172 8178 8183 8176 8178 8173 8180 8174 8176 8186 8182 8181 8182 8179 8180 8175 8179 8178 8182 8180 8186 8184 8184 8189 8190 8192 8187 
8185 8175 8170 8178 8173 8181 8170 8175 8183 8171 8168 8172 8170 8166 8166 8163 8163 8154 8146 8125 8117 8124 8121 8128 8123 8122 8126 8132 8126 8122 8118 8120 8117 8114 8121 8125 8139 8131 8134 8126 8120 8119 8133 8153 8156 8157 8153 8153 8166 8179 8169 8167 8160 8159 8166 8178 8173 8179 8176 8181 8174 8178 8178 8183 8182 8180 8184 8180 8181 8186 8179 8192 8179 8186 8182 8185 8189 8185 8190 8186 
8185 8187 8175 8187 8172 8182 8175 8174 8181 8181 8171 8175 8164 8172 8166 8171 8171 8157 8136 8143 8132 8138 8135 8132 8123 8124 8130 8137 8133 8134 8116 8119 8121 8117 8118 8134 8145 8145 8147 8135 8128 8126 8136 8134 8145 8143 8147 8149 8142 8162 8166 8171 8168 8162 8154 8163 8173 8178 8176 8179 8177 8180 8179 8178 8179 8177 8175 8177 8177 8185 8180 8186 8178 8182 8181 8186 8182 8185 8188 8182 
8191 8173 8185 8181 8180 8181 8171 8174 8179 8171 8173 8170 8163 8167 8164 8161 8163 8160 8158 8157 8149 8153 8154 8138 8132 8128 8127 8129 8129 8123 8113 8121 8110 8119 8128 8128 8141 8156 8145 8137 8138 8135 8133 8131 8136 8137 8139 8145 8140 8145 8157 8167 8175 8157 8152 8149 8157 8178 8171 8171 8176 8172 8176 8179 8182 8179 8179 8182 8180 8188 8182 8185 8178 8184 8185 8184 8184 8189 8187 8185 
8187 8186 8185 8182 8185 8176 8181 8180 8180 8174 8178 8177 8169 8166 8168 8161 8169 8161 8163 8161 8164 8165 8165 8156 8141 8132 8134 8140 8134 8135 8134 8121 8113 8125 8125 8124 8135 8153 8152 8152 8147 8142 8142 8141 8149 8137 8147 8147 8160 8164 8167 8170 8174 8161 8148 8145 8146 8165 8173 8173 8177 8181 8179 8178 8178 8181 8177 8180 8179 8188 8183 8186 8179 8182 8182 8183 8186 8183 8186 8186 
8192 8187 8177 8188 8179 8179 8182 8180 8178 8166 8165 8175 8173 8168 8169 8167 8168 8166 8173 8167 8174 8168 8169 8130 8125 8125 8138 8133 8127 8129 8129 8121 8127 8125 8119 8118 8126 8144 8153 8146 8142 8143 8148 8147 8158 8147 8160 8147 8150 8144 8158 8173 8180 8172 8158 8143 8151 8155 8169 8173 8178 8176 8181 8178 8178 8176 8179 8175 8180 8181 8183 8182 8176 8180 8181 8181 8181 8182 8186 8182 
8196 8194 8187 8184 8178 8179 8186 8176 8183 8166 8179 8180 8181 8170 8169 8164 8166 8161 8168 8165 8169 8164 8148 8114 8136 8120 8149 8129 8141 8132 8127 8125 8137 8136 8127 8118 8127 8133 8140 8134 8138 8138 8150 8149 8152 8151 8157 8159 8158 8144 8142 8164 8183 8175 8176 8158 8165 8173 8177 8173 8180 8174 8179 8173 8177 8179 8183 8176 8178 8180 8182 8184 8178 8181 8185 8186 8182 8184 8181 8180 
8191 8188 8183 8186 8183 8184 8183 8172 8178 8174 8177 8179 8173 8169 8168 8170 8160 8163 8164 8163 8163 8149 8129 8124 8126 8131 8133 8133 8137 8133 8134 8132 8141 8140 8138 8125 8126 8126 8133 8122 8122 8130 8149 8155 8157 8153 8145 8144 8153 8147 8145 8152 8181 8178 8177 8178 8176 8177 8175 8176 8181 8174 8179 8175 8178 8177 8179 8180 8179 8180 8179 8183 8182 8186 8184 8182 8180 8181 8180 8176 
8189 8194 8186 8187 8185 8187 8181 8181 8180 8178 8177 8175 8172 8171 8169 8161 8167 8161 8158 8167 8163 8127 8139 8150 8144 8134 8142 8138 8143 8131 8132 8136 8136 8132 8132 8138 8127 8125 8128 8124 8127 8132 8138 8150 8146 8142 8145 8141 8153 8152 8152 8147 8177 8178 8173 8179 8178 8178 8179 8171 8175 8170 8175 8173 8177 8180 8186 8184 8182 8183 8180 8181 8180 8182 8186 8185 8183 8186 8179 8175 
8190 8195 8192 8189 8186 8185 8184 8172 8175 8180 8178 8170 8168 8168 8164 8159 8161 8161 8167 8163 8154 8129 8156 8151 8127 8124 8135 8136 8141 8136 8137 8140 8141 8130 8132 8145 8142 8147 8155 8141 8126 8129 8133 8147 8153 8151 8152 8148 8147 8150 8157 8146 8171 8176 8177 8177 8176 8176 8175 8173 8178 8178 8177 8178 8177 8177 8176 8181 8179 8185 8178 8181 8179 8184 8186 8184 8182 8178 8176 8176 
8188 8191 8199 8180 8182 8190 8175 8183 8177 8177 8171 8175 8169 8163 8173 8167 8162 8166 8175 8171 8156 8163 8166 8153 8132 8142 8144 8139 8136 8140 8134 8132 8137 8130 8134 8145 8141 8143 8155 8143 8134 8138 8137 8142 8152 8160 8161 8150 8150 8148 8169 8154 8172 8178 8182 8180 8177 8178 8180 8176 8176 8180 8177 8179 8182 8184 8180 8182 8176 8183 8180 8180 8177 8186 8188 8190 8187 8182 8183 8177 
8189 8185 8188 8176 8180 8183 8172 8174 8177 8178 8174 8172 8174 8169 8176 8175 8162 8167 8169 8171 8169 8168 8152 8138 8139 8137 8134 8141 8141 8140 8135 8138 8143 8140 8143 8151 8148 8147 8140 8141 8147 8142 8147 8160 8163 8162 8165 8170 8158 8157 8171 8162 8169 8175 8184 8180 8176 8174 8172 8175 8176 8181 8180 8180 8180 8179 8177 8175 8177 8184 8181 8188 8181 8190 8188 8192 8191 8190 8183 8183 
8190 8186 8183 8176 8175 8179 8177 8175 8179 8179 8179 8173 8175 8177 8170 8170 8163 8178 8161 8168 8169 8158 8141 8139 8135 8143 8135 8140 8139 8134 8135 8138 8146 8139 8140 8142 8147 8146 8138 8147 8157 8163 8162 8168 8165 8175 8168 8170 8171 8167 8170 8169 8177 8176 8182 8179 8180 8179 8178 8182 8182 8183 8182 8181 8187 8179 8180 8179 8177 8179 8177 8182 8181 8188 8193 8195 8194 8193 8189 8182 
8191 8187 8185 8177 8182 8181 8176 8183 8182 8179 8174 8178 8182 8183 8158 8166 8159 8164 8156 8160 8139 8129 8129 8140 8141 8140 8133 8142 8139 8134 8131 8137 8143 8139 8139 8142 8142 8144 8141 8145 8162 8166 8164 8173 8171 8172 8171 8173 8173 8169 8172 8171 8182 8180 8181 8178 8175 8176 8176 8179 8183 8178 8183 8179 8184 8181 8178 8175 8176 8182 8184 8186 8187 8190 8192 8194 8196 8196 8192 8185 
8192 8195 8183 8179 8178 8180 8180 8170 8182 8176 8179 8175 8177 8179 8166 8171 8166 8181 8144 8133 8120 8125 8124 8134 8133 8143 8134 8142 8134 8144 8137 8141 8147 8142 8139 8136 8137 8143 8147 8155 8158 8175 8164 8174 8170 8171 8179 8176 8174 8171 8176 8173 8178 8178 8179 8181 8177 8181 8180 8182 8188 8178 8186 8182 8182 8182 8179 8176 8179 8181 8180 8182 8185 8188 8186 8195 8192 8193 8193 8188 
8194 8185 8178 8182 8182 8182 8180 8177 8175 8178 8176 8175 8180 8178 8172 8180 8171 8159 8126 8143 8155 8148 8138 8136 8135 8147 8145 8145 8139 8139 8135 8136 8140 8143 8144 8146 8141 8135 8135 8144 8158 8163 8164 8173 8169 8171 8173 8175 8172 8171 8174 8170 8173 8175 8176 8179 8178 8175 8177 8181 8181 8179 8180 8181 8187 8180 8185 8180 8184 8185 8184 8184 8186 8189 8187 8192 8193 8199 8194 8192 
8193 8195 8171 8190 8184 8185 8183 8179 8176 8174 8171 8180 8177 8179 8172 8175 8165 8131 8134 8153 8159 8151 8140 8141 8132 8139 8135 8139 8139 8146 8139 8142 8151 8147 8146 8147 8141 8144 8140 8143 8151 8155 8153 8160 8159 8166 8166 8168 8173 8176 8175 8176 8175 8177 8171 8180 8177 8180 8182 8177 8184 8181 8181 8180 8181 8177 8179 8176 8181 8182 8184 8184 8186 8190 8188 8193 8192 8199 8197 8191 
8190 8199 8182 8194 8176 8186 8180 8182 8184 8191 8187 8179 8178 8160 8174 8177 8159 8138 8139 8141 8143 8143 8137 8141 8143 8142 8136 8140 8138 8140 8137 8140 8142 8143 8143 8148 8139 8140 8137 8142 8159 8171 8165 8165 8168 8160 8163 8161 8164 8168 8175 8172 8173 8176 8174 8175 8176 8179 8175 8178 8180 8179 8181 8184 8181 8181 8185 8182 8180 8182 8185 8185 8187 8187 8189 8193 8194 8196 8199 8192 
8192 8185 8188 8192 8181 8189 8187 8183 8185 8175 8179 8175 8179 8169 8179 8168 8155 8146 8137 8128 8139 8129 8133 8131 8138 8140 8137 8138 8137 8141 8142 8140 8152 8145 8149 8146 8150 8155 8145 8156 8179 8188 8190 8182 8172 8168 8177 8168 8172 8171 8174 8174 8180 8176 8175 8178 8177 8176 8177 8176 8182 8182 8184 8184 8182 8180 8180 8179 8183 8184 8186 8185 8184 8185 8191 8191 8192 8196 8199 8193 
8193 8188 8188 8186 8180 8187 8191 8178 8184 8176 8183 8182 8182 8180 8171 8172 8173 8161 8155 8135 8140 8145 8147 8142 8139 8142 8140 8145 8134 8137 8143 8140 8147 8140 8150 8157 8148 8150 8146 8170 8185 8200 8197 8192 8189 8184 8180 8179 8176 8175 8182 8177 8180 8176 8172 8174 8176 8177 8176 8179 8184 8182 8186 8180 8180 8178 8178 8179 8184 8190 8188 8190 8188 8191 8192 8197 8197 8202 8200 8198 
8193 8180 8180 8179 8188 8180 8196 8175 8181 8178 8181 8176 8179 8181 8177 8176 8176 8167 8162 8130 8144 8145 8143 8143 8134 8135 8137 8134 8136 8139 8144 8144 8146 8149 8159 8153 8148 8150 8155 8174 8184 8196 8203 8190 8194 8189 8194 8189 8186 8176 8176 8178 8180 8175 8170 8178 8179 8176 8173 8178 8186 8183 8181 8179 8179 8176 8183 8180 8188 8194 8189 8194 8188 8189 8190 8191 8195 8198 8202 8197 
8192 8188 8179 8185 8183 8182 8176 8188 8175 8173 8188 8177 8184 8181 8180 8171 8179 8168 8159 8133 8141 8140 8156 8153 8141 8154 8148 8139 8139 8141 8133 8145 8142 8150 8162 8146 8150 8148 8166 8168 8177 8180 8188 8190 8206 8203 8206 8186 8176 8167 8175 8176 8182 8176 8176 8178 8182 8182 8178 8183 8190 8183 8187 8176 8177 8179 8184 8182 8189 8188 8192 8193 8188 8189 8196 8194 8198 8201 8207 8200 
8187 8182 8186 8188 8184 8178 8178 8189 8186 8175 8175 8174 8176 8177 8185 8160 8173 8175 8161 8142 8137 8147 8153 8151 8148 8155 8153 8148 8140 8137 8139 8145 8144 8153 8160 8158 8160 8153 8158 8162 8168 8169 8184 8207 8225 8217 8201 8176 8172 8173 8182 8183 8175 8179 8183 8180 8179 8181 8182 8186 8186 8186 8185 8180 8180 8183 8188 8184 8190 8191 8190 8197 8188 8191 8187 8189 8191 8194 8209 8202 
8184 8188 8189 8187 8187 8188 8184 8186 8177 8180 8176 8177 8174 8181 8182 8172 8177 8176 8165 8140 8142 8151 8152 8157 8159 8155 8152 8157 8143 8141 8145 8142 8150 8159 8159 8161 8161 8159 8169 8161 8173 8173 8173 8188 8207 8192 8187 8176 8184 8185 8206 8185 8181 8171 8182 8182 8181 8187 8183 8189 8187 8188 8185 8181 8183 8180 8179 8182 8186 8189 8187 8194 8190 8197 8190 8190 8191 8194 8207 8195 
8190 8197 8184 8189 8181 8179 8184 8183 8173 8184 8176 8177 8180 8184 8177 8172 8176 8169 8178 8166 8145 8150 8146 8156 8154 8151 8150 8156 8151 8152 8153 8152 8157 8161 8166 8164 8167 8166 8165 8165 8175 8173 8181 8178 8183 8179 8170 8179 8185 8187 8184 8180 8178 8173 8180 8180 8178 8179 8177 8187 8186 8186 8184 8184 8187 8181 8185 8178 8185 8190 8189 8195 8184 8186 8182 8182 8186 8188 8202 8192 
8187 8194 8190 8191 8181 8182 8183 8184 8173 8186 8185 8176 8186 8181 8183 8172 8176 8173 8169 8165 8161 8155 8148 8155 8150 8135 8149 8153 8156 8158 8149 8158 8171 8163 8174 8173 8173 8174 8172 8178 8188 8193 8196 8194 8196 8182 8177 8181 8210 8193 8189 8176 8189 8181 8183 8183 8183 8190 8184 8188 8184 8181 8181 8182 8188 8180 8185 8183 8183 8185 8184 8190 8185 8189 8190 8184 8181 8184 8190 8179 
8182 8192 8191 8184 8174 8176 8182 8168 8178 8181 8180 8171 8176 8179 8177 8166 8165 8173 8171 8169 8161 8148 8149 8152 8148 8140 8126 8156 8156 8164 8161 8156 8168 8168 8169 8183 8191 8201 8201 8213 8212 8212 8196 8181 8179 8168 8177 8181 8211 8193 8180 8177 8175 8172 8179 8179 8177 8184 8180 8185 8184 8185 8186 8183 8187 8187 8188 8185 8185 8189 8185 8189 8178 8178 8179 8178 8180 8172 8177 8172 
8183 8191 8186 8168 8175 8175 8179 8167 8177 8170 8171 8173 8170 8178 8178 8169 8167 8172 8175 8171 8158 8144 8142 8149 8154 8150 8152 8157 8154 8152 8149 8163 8163 8165 8156 8177 8194 8203 8201 8216 8214 8206 8183 8176 8178 8173 8184 8188 8209 8180 8181 8175 8175 8171 8178 8178 8180 8188 8183 8184 8181 8183 8185 8183 8184 8181 8189 8185 8184 8185 8186 8185 8173 8174 8179 8178 8179 8169 8173 8167 
8170 8169 8157 8161 8167 8159 8156 8169 8169 8168 8171 8164 8158 8178 8165 8154 8153 8166 8168 8159 8158 8134 8137 8141 8156 8154 8155 8158 8152 8155 8158 8145 8155 8168 8156 8173 8171 8179 8173 8192 8195 8186 8176 8166 8173 8171 8185 8189 8200 8183 8172 8169 8171 8170 8169 8176 8180 8180 8183 8184 8183 8181 8181 8182 8183 8183 8182 8190 8182 8192 8183 8185 8177 8174 8176 8174 8175 8163 8167 8168 
8163 8156 8141 8145 8145 8144 8142 8152 8147 8152 8152 8154 8147 8160 8152 8148 8143 8151 8150 8152 8148 8132 8133 8135 8146 8157 8155 8161 8155 8157 8148 8148 8150 8159 8159 8164 8158 8166 8166 8169 8177 8170 8165 8169 8174 8178 8184 8193 8193 8185 8178 8177 8177 8174 8176 8183 8185 8186 8194 8196 8191 8193 8195 8195 8191 8197 8194 8198 8198 8204 8196 8196 8184 8184 8184 8181 8178 8172 8173 8170 


