P2
80 60
8314
8226 8225 8226 8228 8233 8233 8233 8232 8231 8229 8235 8232 8234 8238 8240 8241 8239 8243 8244 8243 8246 8247 8254 8255 8253 8257 8257 8261 8261 8257 8260 8264 8262 8263 8260 8263 8266 8265 8267 8268 8267 8272 8274 8276 8275 8280 8279 8276 8272 8269 8273 8273 8270 8273 8275 8274 8274 8271 8276 8271 8272 8270 8270 8268 8268 8269 8270 8270 8268 8272 8268 8272 8270 8267 8270 8270 8262 8262 8257 8255 
8225 8228 8230 8233 8236 8234 8237 8234 8232 8230 8233 8232 8233 8234 8237 8241 8241 8244 8242 8242 8245 8250 8254 8257 8258 8255 8253 8260 8261 8261 8263 8262 8261 8264 8263 8264 8265 8266 8270 8272 8273 8274 8273 8271 8274 8279 8278 8274 8271 8271 8272 8271 8269 8274 8273 8270 8274 8272 8272 8274 8272 8273 8272 8271 8264 8266 8268 8267 8267 8271 8272 8270 8272 8270 8270 8268 8265 8266 8264 8258 
8229 8231 8228 8235 8236 8237 8236 8238 8234 8232 8229 8235 8233 8238 8237 8241 8240 8241 8248 8239 8246 8250 8256 8256 8258 8256 8257 8259 8262 8262 8266 8267 8266 8266 8262 8265 8268 8268 8273 8274 8275 8274 8273 8271 8275 8277 8277 8274 8274 8272 8270 8270 8271 8273 8275 8272 8271 8270 8269 8269 8270 8270 8269 8265 8264 8268 8266 8267 8269 8271 8271 8272 8273 8272 8272 8269 8265 8266 8269 8260 
8229 8234 8231 8233 8238 8237 8239 8238 8235 8232 8235 8234 8236 8238 8236 8241 8244 8243 8244 8243 8246 8251 8258 8258 8262 8258 8256 8259 8260 8264 8265 8263 8265 8264 8263 8263 8269 8268 8271 8272 8274 8274 8272 8269 8270 8273 8274 8274 8272 8269 8272 8275 8271 8276 8273 8270 8270 8270 8268 8268 8268 8270 8268 8267 8263 8268 8267 8265 8267 8270 8269 8270 8272 8269 8266 8268 8263 8261 8262 8258 
8229 8233 8230 8233 8237 8238 8239 8240 8237 8232 8233 8232 8235 8239 8240 8239 8242 8244 8245 8243 8247 8250 8256 8257 8263 8261 8255 8259 8261 8261 8265 8266 8264 8265 8262 8264 8268 8269 8271 8274 8274 8269 8272 8274 8273 8274 8273 8271 8270 8270 8269 8271 8273 8275 8274 8268 8272 8267 8268 8268 8268 8271 8267 8264 8265 8265 8269 8265 8267 8269 8267 8268 8268 8267 8264 8263 8261 8259 8256 8254 
8235 8241 8234 8236 8242 8237 8242 8240 8237 8233 8232 8235 8235 8236 8238 8240 8242 8242 8243 8243 8245 8250 8257 8259 8262 8259 8257 8260 8266 8269 8269 8271 8267 8267 8267 8270 8273 8276 8277 8279 8279 8278 8275 8274 8277 8280 8277 8274 8271 8267 8267 8269 8269 8272 8272 8270 8270 8268 8269 8270 8269 8269 8266 8264 8265 8266 8268 8266 8267 8268 8267 8265 8266 8265 8263 8263 8260 8258 8253 8251 
8240 8242 8242 8239 8240 8243 8242 8239 8236 8230 8235 8235 8235 8236 8234 8238 8243 8241 8249 8243 8249 8253 8261 8262 8265 8263 8264 8267 8270 8270 8275 8277 8274 8274 8272 8276 8277 8277 8276 8260 8254 8265 8273 8276 8275 8280 8277 8273 8270 8272 8268 8268 8268 8270 8274 8271 8271 8271 8272 8271 8268 8266 8268 8265 8265 8267 8266 8262 8264 8266 8265 8263 8262 8264 8262 8261 8260 8256 8253 8254 
8244 8247 8245 8242 8243 8243 8243 8241 8239 8233 8235 8232 8235 8237 8238 8243 8241 8247 8249 8249 8255 8259 8264 8267 8269 8263 8264 8268 8268 8271 8273 8273 8275 8275 8272 8274 8277 8277 8266 8201 8198 8208 8244 8268 8273 8278 8276 8273 8267 8266 8266 8269 8266 8269 8272 8269 8269 8268 8269 8268 8267 8265 8265 8264 8263 8266 8264 8263 8264 8263 8262 8261 8264 8263 8261 8259 8258 8257 8254 8252 
8247 8247 8243 8240 8241 8241 8242 8240 8239 8235 8237 8237 8238 8237 8239 8244 8245 8249 8254 8255 8257 8260 8265 8266 8268 8263 8263 8267 8269 8270 8273 8274 8276 8273 8270 8270 8273 8273 8257 8199 8189 8187 8193 8231 8266 8276 8273 8270 8268 8268 8266 8268 8263 8269 8272 8267 8269 8270 8267 8267 8266 8265 8267 8264 8262 8264 8265 8263 8264 8261 8261 8262 8260 8260 8262 8256 8255 8259 8254 8251 
8245 8246 8245 8243 8244 8242 8240 8240 8243 8236 8241 8237 8242 8243 8246 8251 8249 8251 8252 8254 8255 8259 8266 8266 8268 8265 8264 8270 8272 8268 8271 8272 8270 8268 8265 8264 8262 8267 8260 8198 8190 8189 8185 8190 8231 8269 8269 8268 8269 8265 8264 8266 8265 8269 8269 8266 8265 8265 8263 8267 8265 8264 8266 8263 8263 8264 8265 8261 8265 8262 8259 8261 8258 8260 8258 8256 8256 8254 8252 8250 
8242 8245 8241 8239 8240 8240 8239 8238 8239 8242 8241 8243 8242 8246 8246 8248 8249 8252 8253 8252 8254 8259 8263 8263 8265 8264 8263 8269 8264 8252 8247 8263 8265 8265 8253 8220 8223 8256 8262 8198 8199 8209 8214 8218 8224 8243 8269 8265 8266 8263 8265 8263 8261 8266 8265 8264 8264 8262 8262 8263 8266 8265 8266 8262 8263 8265 8263 8263 8265 8262 8258 8257 8256 8253 8254 8252 8250 8252 8248 8247 
8244 8247 8240 8239 8239 8239 8238 8241 8243 8245 8247 8244 8244 8248 8247 8248 8246 8249 8251 8248 8256 8258 8261 8262 8263 8262 8260 8258 8223 8195 8190 8215 8250 8256 8236 8179 8164 8218 8218 8230 8259 8265 8269 8267 8269 8269 8268 8270 8265 8263 8261 8261 8255 8261 8261 8263 8265 8262 8265 8263 8267 8261 8264 8261 8260 8262 8262 8264 8264 8263 8262 8258 8260 8257 8256 8253 8249 8248 8245 8247 
8242 8245 8241 8237 8238 8237 8242 8243 8249 8245 8244 8243 8245 8246 8246 8248 8248 8249 8250 8251 8254 8256 8255 8254 8260 8260 8255 8226 8187 8182 8183 8183 8201 8223 8197 8177 8164 8182 8184 8217 8262 8263 8262 8264 8267 8268 8269 8266 8264 8262 8261 8250 8217 8221 8245 8257 8264 8263 8262 8263 8263 8264 8261 8264 8263 8264 8263 8262 8262 8263 8264 8257 8257 8259 8256 8257 8254 8256 8250 8249 
8241 8244 8241 8238 8240 8237 8244 8246 8247 8247 8246 8244 8246 8246 8248 8248 8247 8252 8252 8250 8252 8249 8219 8201 8248 8258 8249 8194 8180 8181 8182 8182 8179 8181 8225 8206 8176 8176 8178 8191 8236 8246 8221 8224 8244 8256 8260 8261 8263 8261 8256 8208 8185 8190 8199 8232 8257 8263 8263 8260 8259 8261 8262 8262 8261 8262 8261 8259 8262 8262 8260 8259 8259 8261 8259 8257 8256 8258 8258 8255 
8240 8240 8239 8242 8241 8241 8245 8247 8249 8248 8248 8245 8246 8246 8247 8250 8250 8252 8251 8250 8250 8240 8186 8158 8207 8254 8241 8186 8180 8178 8180 8179 8181 8214 8228 8217 8182 8172 8174 8179 8183 8182 8185 8190 8190 8195 8213 8252 8256 8261 8252 8194 8181 8188 8191 8199 8247 8260 8260 8258 8261 8258 8260 8261 8262 8265 8262 8260 8262 8263 8262 8259 8260 8259 8258 8258 8256 8258 8258 8254 
8238 8239 8239 8238 8245 8244 8246 8248 8248 8248 8250 8248 8248 8249 8249 8250 8252 8253 8249 8249 8249 8244 8174 8149 8178 8244 8229 8180 8178 8178 8176 8177 8197 8239 8251 8252 8204 8169 8174 8180 8177 8173 8180 8183 8187 8190 8189 8206 8255 8259 8249 8186 8178 8186 8188 8185 8219 8252 8257 8258 8261 8260 8261 8261 8260 8265 8264 8260 8259 8261 8258 8258 8260 8259 8257 8260 8257 8261 8259 8256 
8237 8239 8239 8241 8248 8248 8249 8248 8250 8247 8246 8248 8247 8243 8247 8255 8250 8252 8250 8246 8250 8244 8222 8179 8172 8199 8170 8169 8177 8176 8173 8177 8172 8176 8202 8239 8231 8170 8165 8175 8181 8184 8178 8179 8184 8186 8186 8195 8249 8254 8230 8183 8180 8183 8181 8181 8190 8244 8257 8257 8260 8261 8261 8262 8261 8263 8263 8259 8259 8261 8258 8257 8256 8257 8258 8258 8255 8258 8256 8255 
8239 8246 8244 8248 8250 8253 8251 8250 8250 8247 8245 8248 8246 8251 8248 8250 8250 8251 8249 8247 8246 8221 8183 8166 8184 8157 8156 8167 8177 8171 8165 8162 8168 8169 8173 8180 8191 8171 8162 8163 8176 8220 8180 8175 8177 8182 8184 8205 8249 8248 8212 8188 8184 8182 8183 8183 8200 8237 8257 8256 8256 8256 8260 8260 8262 8263 8261 8257 8258 8260 8257 8257 8259 8257 8258 8256 8257 8258 8256 8253 
8242 8248 8250 8245 8249 8251 8254 8252 8254 8249 8247 8247 8247 8246 8248 8249 8251 8248 8248 8247 8247 8245 8207 8167 8158 8155 8165 8186 8173 8161 8164 8165 8170 8166 8167 8168 8176 8170 8162 8162 8172 8202 8177 8167 8178 8181 8181 8201 8236 8206 8234 8240 8235 8227 8228 8220 8246 8255 8254 8256 8256 8259 8261 8264 8263 8261 8259 8258 8260 8259 8258 8255 8255 8254 8254 8254 8253 8257 8253 8251 
8244 8249 8249 8246 8247 8253 8254 8252 8250 8250 8248 8247 8247 8249 8245 8248 8252 8247 8249 8243 8244 8245 8218 8179 8169 8167 8167 8192 8173 8165 8167 8172 8162 8161 8175 8175 8177 8171 8167 8163 8163 8165 8176 8170 8178 8177 8176 8175 8176 8194 8238 8244 8243 8252 8256 8252 8257 8258 8256 8258 8258 8258 8260 8260 8260 8262 8259 8254 8257 8258 8257 8254 8254 8251 8253 8252 8253 8254 8251 8247 
8247 8255 8253 8247 8248 8247 8248 8252 8252 8244 8249 8246 8245 8244 8244 8247 8248 8247 8245 8244 8244 8235 8185 8171 8169 8165 8200 8191 8174 8169 8170 8172 8172 8182 8193 8171 8168 8171 8180 8191 8168 8166 8172 8170 8184 8175 8168 8170 8172 8171 8177 8186 8213 8244 8255 8252 8256 8260 8257 8258 8256 8258 8261 8259 8256 8259 8257 8258 8256 8257 8257 8255 8253 8252 8252 8251 8254 8252 8250 8247 
8251 8257 8251 8252 8250 8250 8246 8249 8245 8247 8247 8246 8243 8246 8244 8247 8245 8248 8244 8245 8241 8208 8174 8168 8167 8204 8227 8202 8169 8165 8168 8171 8176 8191 8179 8171 8171 8173 8176 8175 8168 8169 8173 8176 8172 8173 8165 8172 8183 8166 8152 8154 8163 8206 8220 8246 8257 8255 8257 8257 8254 8258 8259 8258 8258 8257 8259 8257 8257 8255 8253 8251 8251 8251 8251 8251 8252 8253 8249 8247 
8252 8260 8256 8252 8252 8249 8246 8246 8245 8246 8247 8248 8243 8245 8244 8245 8243 8244 8244 8240 8237 8184 8165 8162 8160 8200 8218 8194 8180 8161 8169 8173 8178 8179 8157 8169 8174 8172 8174 8173 8169 8171 8172 8174 8176 8173 8168 8178 8199 8179 8167 8163 8170 8179 8186 8234 8254 8255 8252 8253 8256 8260 8257 8259 8259 8258 8260 8256 8255 8251 8253 8252 8250 8252 8253 8249 8252 8254 8253 8248 
8255 8260 8258 8252 8252 8250 8247 8243 8248 8245 8248 8247 8245 8245 8243 8244 8243 8243 8245 8242 8235 8176 8186 8155 8156 8158 8174 8170 8158 8162 8170 8170 8180 8183 8160 8167 8172 8174 8173 8172 8168 8171 8176 8176 8177 8176 8170 8166 8189 8208 8176 8165 8171 8175 8185 8233 8254 8255 8253 8254 8257 8257 8257 8260 8258 8256 8259 8255 8255 8255 8254 8251 8251 8251 8250 8252 8250 8253 8249 8246 
8254 8259 8254 8254 8254 8251 8249 8247 8247 8244 8247 8245 8246 8245 8245 8246 8245 8244 8244 8241 8241 8191 8190 8165 8164 8157 8171 8171 8164 8165 8169 8169 8172 8186 8168 8175 8170 8171 8175 8174 8171 8178 8179 8194 8179 8178 8176 8172 8174 8226 8178 8170 8189 8178 8190 8238 8251 8255 8253 8255 8256 8258 8257 8259 8258 8256 8256 8255 8253 8254 8254 8252 8252 8250 8250 8251 8251 8255 8249 8251 
8251 8259 8254 8255 8251 8252 8250 8246 8247 8248 8249 8247 8244 8246 8246 8246 8245 8243 8246 8240 8236 8181 8168 8158 8160 8159 8167 8167 8157 8168 8170 8171 8172 8172 8192 8194 8168 8168 8173 8177 8176 8176 8183 8202 8178 8182 8175 8176 8175 8206 8179 8177 8227 8190 8205 8244 8254 8257 8254 8255 8254 8256 8257 8260 8257 8258 8255 8255 8252 8251 8253 8250 8251 8250 8250 8250 8249 8254 8249 8245 
8254 8257 8255 8256 8257 8253 8250 8244 8248 8250 8249 8247 8247 8246 8246 8244 8246 8247 8246 8239 8221 8167 8166 8168 8170 8165 8163 8159 8164 8168 8171 8172 8168 8167 8176 8174 8171 8172 8178 8181 8182 8173 8176 8179 8178 8181 8176 8178 8176 8219 8178 8211 8243 8204 8219 8252 8256 8255 8256 8254 8256 8256 8256 8257 8256 8257 8254 8252 8250 8248 8248 8247 8251 8250 8250 8250 8251 8253 8249 8247 
8252 8259 8255 8253 8255 8251 8249 8250 8250 8251 8251 8250 8246 8243 8245 8246 8244 8244 8245 8238 8219 8171 8174 8176 8169 8170 8166 8167 8171 8169 8172 8173 8168 8172 8175 8170 8174 8179 8183 8189 8184 8177 8176 8180 8181 8178 8173 8173 8175 8185 8182 8245 8257 8234 8216 8250 8256 8256 8255 8255 8256 8254 8257 8254 8253 8256 8252 8251 8248 8250 8251 8249 8249 8250 8250 8247 8250 8253 8252 8246 
8248 8254 8254 8253 8255 8253 8250 8248 8251 8250 8248 8251 8249 8247 8247 8246 8248 8245 8245 8238 8232 8227 8201 8178 8173 8171 8173 8185 8169 8163 8168 8169 8166 8163 8159 8164 8176 8179 8185 8188 8190 8180 8181 8178 8179 8178 8173 8170 8174 8176 8209 8270 8265 8240 8214 8250 8253 8254 8254 8252 8253 8254 8253 8255 8252 8255 8252 8249 8247 8249 8251 8248 8248 8248 8249 8251 8250 8252 8251 8247 
8248 8257 8254 8252 8254 8251 8249 8249 8249 8249 8251 8250 8247 8248 8246 8246 8248 8246 8244 8231 8182 8187 8187 8180 8174 8174 8171 8171 8169 8165 8163 8160 8159 8163 8157 8160 8173 8180 8185 8190 8187 8180 8180 8179 8177 8178 8169 8172 8175 8184 8258 8277 8275 8269 8256 8252 8255 8254 8252 8252 8251 8254 8253 8252 8253 8254 8252 8249 8251 8246 8248 8245 8248 8248 8249 8251 8248 8253 8251 8248 
8248 8254 8252 8252 8256 8253 8249 8249 8252 8248 8251 8247 8247 8244 8243 8249 8246 8247 8244 8234 8184 8169 8174 8180 8177 8176 8193 8179 8173 8168 8167 8170 8167 8164 8161 8166 8174 8179 8177 8179 8181 8179 8180 8180 8177 8177 8171 8175 8181 8188 8258 8287 8281 8281 8272 8258 8253 8249 8253 8251 8251 8252 8255 8254 8253 8252 8250 8248 8246 8248 8246 8248 8246 8247 8248 8250 8247 8252 8248 8246 
8250 8256 8252 8252 8254 8254 8252 8251 8253 8251 8248 8245 8245 8241 8244 8248 8245 8244 8245 8234 8183 8174 8187 8183 8181 8179 8175 8179 8177 8173 8174 8174 8175 8171 8164 8171 8176 8178 8177 8178 8180 8184 8181 8178 8175 8176 8173 8178 8179 8187 8229 8290 8285 8284 8276 8260 8253 8251 8249 8250 8250 8248 8253 8249 8250 8249 8253 8248 8250 8246 8244 8243 8245 8246 8250 8249 8249 8251 8249 8243 
8252 8256 8254 8251 8255 8254 8254 8253 8255 8250 8247 8245 8244 8241 8245 8242 8246 8244 8243 8233 8182 8196 8197 8181 8185 8183 8189 8176 8177 8175 8177 8177 8178 8171 8167 8172 8177 8182 8178 8180 8185 8185 8184 8177 8175 8177 8174 8175 8181 8184 8230 8285 8284 8284 8275 8262 8250 8248 8248 8250 8248 8249 8251 8250 8249 8251 8247 8247 8248 8246 8244 8244 8245 8246 8248 8247 8249 8252 8248 8243 
8248 8256 8256 8252 8255 8254 8253 8252 8255 8252 8251 8243 8243 8244 8244 8242 8238 8245 8240 8240 8226 8223 8197 8187 8184 8188 8180 8178 8180 8175 8178 8180 8171 8166 8171 8174 8182 8179 8182 8186 8189 8186 8188 8184 8180 8179 8175 8180 8185 8200 8259 8287 8284 8273 8272 8259 8249 8247 8248 8247 8248 8251 8250 8246 8251 8248 8247 8246 8247 8247 8244 8245 8245 8245 8247 8249 8249 8252 8246 8242 
8252 8260 8257 8256 8255 8253 8255 8253 8254 8249 8251 8247 8244 8243 8244 8243 8244 8244 8249 8242 8242 8210 8186 8182 8190 8202 8174 8179 8180 8179 8182 8180 8165 8171 8178 8176 8182 8184 8185 8186 8190 8190 8190 8186 8182 8180 8181 8185 8192 8255 8281 8287 8279 8284 8277 8260 8249 8248 8248 8247 8246 8249 8249 8251 8251 8250 8248 8247 8248 8247 8245 8243 8244 8246 8249 8246 8245 8247 8245 8240 
8253 8259 8258 8255 8252 8257 8254 8254 8252 8248 8248 8244 8246 8246 8243 8243 8246 8244 8243 8242 8244 8224 8192 8179 8185 8201 8184 8177 8180 8182 8187 8182 8169 8176 8179 8181 8188 8187 8189 8187 8187 8187 8190 8190 8191 8186 8180 8187 8205 8272 8290 8289 8288 8288 8279 8259 8248 8247 8250 8244 8244 8248 8249 8251 8250 8246 8248 8247 8247 8246 8243 8243 8245 8246 8248 8245 8243 8246 8241 8235 
8254 8261 8258 8254 8255 8255 8255 8254 8253 8248 8249 8251 8248 8248 8245 8244 8244 8245 8242 8241 8242 8205 8186 8179 8176 8195 8197 8183 8203 8198 8190 8187 8176 8178 8182 8184 8187 8189 8190 8190 8181 8185 8199 8215 8227 8203 8195 8217 8235 8267 8290 8295 8295 8287 8277 8258 8250 8248 8249 8246 8246 8245 8249 8249 8248 8248 8249 8249 8248 8246 8244 8243 8248 8243 8244 8242 8240 8242 8241 8240 
8257 8260 8257 8256 8257 8255 8256 8255 8253 8250 8250 8250 8250 8246 8248 8247 8246 8241 8240 8242 8241 8226 8193 8182 8186 8194 8177 8187 8217 8219 8194 8191 8192 8186 8181 8187 8186 8191 8208 8202 8187 8189 8228 8233 8238 8241 8240 8257 8246 8254 8268 8266 8258 8261 8265 8255 8249 8250 8249 8244 8246 8244 8243 8248 8248 8251 8249 8246 8246 8245 8245 8245 8244 8243 8244 8244 8242 8244 8239 8235 
8257 8263 8261 8258 8258 8258 8258 8256 8252 8250 8252 8249 8246 8250 8243 8244 8241 8241 8242 8239 8242 8244 8206 8182 8192 8182 8181 8190 8230 8238 8215 8225 8248 8218 8189 8188 8192 8193 8196 8198 8191 8204 8232 8243 8249 8254 8254 8253 8237 8249 8257 8241 8226 8227 8239 8250 8253 8251 8247 8243 8246 8246 8243 8247 8251 8249 8248 8246 8247 8248 8244 8245 8245 8244 8245 8246 8241 8240 8238 8235 
8254 8267 8262 8259 8257 8253 8258 8254 8256 8253 8251 8250 8247 8246 8245 8243 8241 8240 8243 8242 8246 8245 8221 8189 8186 8182 8183 8198 8244 8252 8253 8265 8272 8266 8229 8198 8193 8195 8200 8208 8211 8213 8219 8249 8262 8264 8257 8236 8243 8279 8294 8287 8275 8251 8251 8253 8252 8249 8248 8244 8245 8246 8245 8247 8246 8249 8247 8247 8248 8246 8245 8245 8244 8242 8244 8242 8241 8243 8240 8237 
8254 8265 8260 8255 8258 8256 8257 8255 8255 8251 8252 8252 8245 8245 8244 8241 8241 8244 8242 8241 8245 8247 8242 8205 8188 8185 8184 8190 8211 8254 8271 8273 8276 8279 8284 8249 8205 8201 8228 8229 8218 8219 8229 8265 8274 8275 8242 8237 8255 8288 8294 8294 8276 8274 8258 8250 8251 8250 8245 8246 8246 8248 8248 8248 8248 8249 8247 8246 8245 8246 8242 8243 8245 8243 8246 8242 8239 8244 8240 8234 
8255 8263 8260 8255 8254 8257 8253 8251 8255 8251 8249 8249 8245 8245 8246 8243 8243 8242 8242 8239 8241 8247 8248 8228 8205 8202 8214 8201 8207 8270 8280 8280 8283 8292 8297 8294 8267 8264 8283 8264 8223 8240 8251 8279 8283 8262 8232 8245 8281 8289 8291 8287 8270 8269 8255 8251 8252 8249 8247 8247 8250 8247 8251 8250 8246 8246 8247 8245 8245 8241 8244 8244 8245 8246 8245 8245 8244 8242 8240 8237 
8252 8264 8257 8258 8257 8253 8253 8254 8254 8253 8251 8249 8247 8247 8244 8244 8240 8245 8242 8238 8243 8247 8250 8247 8226 8219 8232 8240 8257 8280 8293 8296 8298 8295 8296 8297 8296 8289 8287 8267 8236 8259 8279 8287 8287 8242 8249 8288 8302 8298 8291 8283 8269 8261 8253 8254 8252 8252 8247 8252 8250 8251 8251 8249 8247 8246 8246 8245 8242 8244 8244 8246 8248 8247 8246 8246 8241 8241 8241 8240 
8257 8265 8257 8255 8253 8252 8252 8250 8251 8253 8250 8251 8249 8249 8244 8245 8243 8243 8242 8241 8243 8246 8251 8254 8239 8219 8227 8250 8260 8276 8293 8298 8304 8293 8280 8298 8297 8287 8282 8282 8245 8229 8266 8293 8274 8250 8296 8306 8300 8292 8283 8275 8264 8253 8254 8256 8255 8252 8251 8253 8253 8252 8253 8251 8250 8246 8246 8240 8243 8245 8243 8245 8247 8245 8248 8247 8245 8247 8242 8242 
8253 8262 8256 8253 8254 8251 8248 8250 8251 8247 8251 8251 8245 8248 8246 8245 8244 8244 8243 8241 8245 8248 8252 8255 8251 8233 8226 8243 8262 8268 8279 8288 8295 8295 8287 8302 8299 8285 8275 8245 8235 8243 8252 8269 8264 8297 8301 8296 8292 8282 8274 8266 8253 8247 8258 8256 8258 8254 8252 8254 8252 8251 8251 8250 8251 8246 8244 8242 8242 8246 8247 8246 8245 8245 8247 8247 8244 8244 8244 8239 
8256 8259 8254 8253 8248 8250 8251 8252 8248 8246 8248 8248 8246 8247 8246 8247 8246 8245 8243 8244 8244 8247 8256 8257 8254 8250 8232 8232 8250 8260 8276 8289 8295 8295 8290 8291 8293 8286 8278 8249 8252 8267 8290 8291 8292 8314 8300 8293 8283 8273 8264 8256 8246 8253 8259 8259 8257 8256 8250 8253 8254 8253 8254 8251 8249 8248 8243 8241 8242 8246 8242 8240 8245 8242 8248 8247 8243 8244 8241 8238 
8253 8260 8252 8252 8252 8247 8251 8249 8249 8248 8247 8247 8245 8247 8246 8249 8244 8243 8245 8243 8245 8249 8253 8256 8255 8251 8248 8239 8239 8251 8262 8272 8278 8281 8279 8291 8297 8297 8298 8294 8287 8300 8310 8310 8297 8298 8288 8281 8273 8260 8257 8252 8248 8255 8258 8259 8256 8256 8250 8254 8254 8250 8249 8248 8245 8243 8242 8241 8242 8240 8246 8243 8245 8245 8246 8246 8244 8244 8239 8238 
8252 8263 8257 8255 8249 8250 8253 8249 8252 8248 8248 8248 8247 8245 8246 8247 8247 8247 8245 8243 8247 8250 8255 8257 8257 8255 8254 8253 8244 8242 8254 8262 8262 8269 8283 8296 8298 8299 8295 8302 8311 8310 8311 8311 8299 8290 8281 8271 8259 8252 8250 8252 8252 8260 8261 8257 8256 8254 8253 8253 8253 8249 8250 8247 8246 8244 8242 8239 8241 8245 8244 8245 8247 8248 8246 8245 8241 8242 8240 8241 
8254 8257 8255 8252 8247 8251 8249 8248 8250 8245 8247 8249 8244 8245 8247 8245 8246 8248 8244 8241 8243 8247 8253 8258 8257 8253 8255 8256 8256 8251 8244 8249 8254 8262 8270 8274 8279 8277 8279 8296 8299 8299 8295 8285 8282 8273 8263 8258 8251 8252 8251 8255 8254 8259 8262 8258 8256 8254 8252 8254 8251 8251 8247 8248 8242 8241 8242 8238 8243 8245 8244 8242 8243 8246 8245 8243 8243 8244 8238 8233 
8248 8256 8250 8249 8247 8250 8251 8247 8244 8246 8245 8248 8244 8247 8247 8246 8244 8244 8245 8244 8243 8248 8255 8259 8260 8258 8257 8258 8258 8258 8259 8248 8246 8249 8252 8262 8266 8268 8273 8281 8283 8282 8278 8266 8258 8258 8257 8253 8250 8250 8255 8258 8258 8261 8261 8256 8257 8256 8252 8255 8252 8249 8249 8246 8245 8239 8242 8241 8243 8243 8245 8244 8246 8245 8244 8240 8241 8243 8239 8235 
8246 8252 8245 8245 8245 8248 8250 8248 8246 8241 8243 8245 8245 8248 8245 8247 8245 8248 8243 8241 8243 8248 8257 8262 8259 8256 8258 8259 8261 8261 8264 8263 8254 8245 8243 8247 8252 8256 8261 8264 8267 8266 8262 8256 8252 8254 8250 8251 8250 8255 8257 8260 8261 8261 8261 8261 8257 8256 8251 8252 8251 8247 8246 8243 8241 8240 8242 8239 8243 8246 8245 8244 8243 8242 8244 8240 8238 8237 8237 8227 
8246 8252 8247 8244 8242 8246 8244 8248 8246 8243 8241 8246 8246 8249 8250 8247 8248 8245 8241 8240 8245 8251 8260 8261 8260 8257 8258 8261 8266 8263 8265 8267 8269 8262 8251 8251 8250 8248 8251 8255 8252 8255 8253 8250 8248 8252 8252 8256 8256 8258 8259 8257 8259 8263 8263 8261 8257 8255 8253 8254 8252 8250 8246 8243 8242 8239 8241 8241 8242 8241 8243 8244 8244 8243 8241 8241 8237 8236 8233 8229 
8249 8253 8249 8249 8243 8244 8246 8248 8247 8245 8242 8244 8244 8246 8248 8248 8247 8247 8246 8246 8245 8250 8261 8263 8259 8255 8258 8263 8262 8262 8264 8266 8268 8268 8268 8263 8258 8251 8254 8252 8253 8251 8255 8251 8255 8257 8258 8262 8261 8257 8258 8261 8259 8264 8263 8260 8258 8258 8253 8255 8251 8251 8248 8243 8243 8240 8244 8238 8240 8242 8243 8241 8243 8240 8244 8239 8235 8236 8232 8228 
8249 8254 8248 8244 8241 8247 8245 8244 8245 8240 8241 8241 8242 8246 8245 8246 8248 8250 8248 8247 8251 8252 8260 8263 8260 8257 8260 8264 8264 8264 8266 8265 8267 8270 8270 8271 8271 8269 8267 8266 8265 8264 8266 8266 8261 8264 8262 8264 8262 8260 8261 8259 8261 8264 8266 8260 8259 8257 8256 8253 8254 8251 8247 8245 8242 8244 8241 8240 8241 8245 8244 8243 8247 8242 8244 8237 8232 8233 8233 8226 
8249 8256 8247 8243 8242 8246 8244 8243 8241 8241 8240 8240 8239 8242 8244 8245 8245 8247 8246 8243 8250 8254 8259 8264 8259 8256 8257 8262 8265 8264 8264 8264 8267 8267 8268 8274 8274 8278 8275 8277 8274 8274 8274 8272 8268 8269 8266 8263 8263 8261 8262 8259 8258 8260 8262 8261 8259 8258 8250 8251 8254 8253 8251 8247 8242 8243 8244 8239 8239 8243 8245 8244 8242 8240 8237 8236 8231 8234 8227 8228 
8244 8249 8244 8244 8243 8241 8242 8240 8243 8238 8239 8239 8240 8241 8238 8241 8240 8242 8241 8244 8250 8251 8260 8259 8258 8257 8255 8262 8265 8262 8263 8265 8266 8266 8267 8270 8275 8273 8274 8276 8278 8277 8275 8273 8266 8269 8265 8265 8262 8262 8261 8259 8256 8259 8264 8257 8255 8251 8252 8250 8251 8248 8250 8244 8243 8242 8241 8239 8241 8243 8245 8242 8242 8238 8238 8232 8230 8229 8226 8219 
8245 8250 8244 8243 8239 8237 8238 8241 8240 8239 8241 8239 8237 8240 8238 8239 8240 8240 8242 8244 8247 8251 8256 8262 8263 8257 8257 8264 8263 8264 8264 8265 8266 8268 8264 8269 8273 8276 8275 8280 8276 8276 8275 8271 8267 8267 8265 8263 8262 8260 8259 8258 8254 8259 8257 8254 8251 8253 8250 8249 8247 8252 8246 8242 8243 8244 8242 8241 8242 8243 8245 8243 8239 8235 8234 8235 8226 8227 8220 8216 
8246 8249 8241 8237 8237 8238 8238 8238 8238 8235 8237 8234 8233 8236 8240 8235 8234 8237 8237 8240 8244 8246 8254 8259 8260 8256 8258 8260 8265 8265 8267 8268 8267 8266 8266 8268 8270 8270 8273 8278 8277 8274 8270 8265 8266 8268 8263 8261 8260 8259 8258 8255 8251 8257 8255 8253 8251 8251 8249 8247 8248 8246 8248 8245 8240 8244 8244 8244 8240 8244 8245 8240 8240 8233 8233 8232 8225 8220 8218 8215 
8248 8250 8238 8234 8235 8234 8234 8238 8237 8233 8234 8230 8229 8232 8230 8229 8230 8232 8235 8237 8243 8241 8250 8256 8260 8258 8257 8261 8263 8263 8263 8263 8266 8263 8265 8267 8270 8269 8273 8271 8275 8271 8265 8264 8261 8264 8262 8259 8255 8254 8254 8252 8252 8254 8254 8249 8250 8246 8246 8244 8247 8245 8246 8244 8243 8246 8243 8244 8245 8242 8243 8239 8239 8233 8231 8229 8226 8220 8214 8215 
8256 8247 8238 8232 8234 8234 8236 8236 8238 8234 8234 8226 8228 8226 8230 8228 8230 8227 8231 8231 8237 8240 8249 8255 8256 8254 8254 8257 8260 8258 8256 8256 8258 8259 8257 8257 8259 8260 8260 8259 8262 8265 8261 8257 8259 8257 8255 8253 8255 8252 8251 8247 8244 8247 8246 8243 8244 8242 8242 8243 8244 8243 8242 8242 8242 8239 8237 8238 8236 8236 8237 8236 8232 8230 8227 8223 8222 8219 8208 8211 


