P2
80 60
8314
8240 8244 8256 8260 8262 8265 8264 8261 8259 8256 8255 8253 8251 8253 8255 8261 8262 8266 8266 8264 8265 8266 8264 8266 8269 8274 8279 8282 8289 8296 8295 8305 8303 8306 8312 8313 8314 8312 8312 8312 8300 8275 8253 8240 8215 8234 8269 8271 8270 8273 8285 8301 8302 8302 8304 8304 8302 8300 8297 8295 8294 8292 8290 8286 8284 8281 8284 8277 8276 8280 8276 8277 8275 8273 8274 8272 8274 8277 8274 8266 
8245 8246 8259 8259 8263 8266 8265 8260 8258 8254 8251 8250 8253 8254 8255 8260 8266 8269 8267 8265 8266 8262 8267 8267 8271 8277 8283 8284 8290 8294 8297 8303 8307 8307 8308 8310 8311 8308 8309 8297 8214 8165 8148 8144 8137 8169 8163 8164 8156 8169 8241 8295 8300 8303 8301 8298 8296 8297 8296 8293 8294 8288 8292 8287 8285 8283 8284 8283 8281 8281 8278 8278 8276 8274 8274 8270 8275 8273 8273 8271 
8242 8249 8260 8260 8260 8264 8260 8258 8255 8251 8247 8250 8252 8252 8257 8259 8263 8270 8267 8263 8264 8263 8263 8266 8269 8276 8278 8280 8285 8289 8291 8297 8296 8298 8300 8300 8304 8296 8289 8224 8153 8135 8139 8138 8131 8129 8132 8135 8136 8138 8203 8283 8295 8295 8294 8292 8293 8288 8291 8291 8290 8287 8288 8285 8283 8285 8285 8284 8282 8286 8277 8275 8276 8275 8273 8271 8273 8271 8270 8273 
8248 8250 8259 8256 8257 8258 8259 8258 8250 8248 8248 8247 8249 8250 8252 8256 8260 8265 8263 8260 8264 8261 8261 8262 8269 8271 8273 8275 8277 8280 8284 8292 8287 8287 8289 8288 8285 8264 8188 8149 8140 8140 8140 8150 8177 8150 8135 8139 8136 8139 8182 8271 8282 8286 8289 8288 8284 8282 8285 8284 8285 8282 8283 8282 8284 8280 8280 8285 8279 8279 8276 8277 8276 8274 8278 8272 8277 8270 8276 8269 
8243 8250 8256 8252 8252 8254 8253 8251 8250 8248 8245 8247 8247 8248 8252 8254 8257 8260 8258 8259 8260 8259 8261 8263 8265 8267 8268 8268 8268 8275 8275 8282 8282 8281 8276 8278 8244 8164 8136 8139 8145 8142 8148 8174 8195 8185 8143 8142 8140 8149 8210 8264 8273 8276 8276 8274 8273 8273 8273 8274 8273 8277 8277 8273 8276 8271 8271 8274 8274 8275 8275 8275 8274 8274 8273 8271 8274 8269 8273 8269 
8243 8243 8250 8246 8248 8249 8250 8249 8248 8245 8243 8244 8245 8249 8247 8255 8255 8257 8257 8258 8261 8258 8263 8264 8265 8268 8270 8271 8272 8275 8276 8285 8283 8279 8280 8271 8187 8144 8136 8143 8146 8147 8152 8167 8181 8197 8165 8150 8151 8194 8231 8215 8231 8234 8247 8256 8262 8266 8268 8267 8267 8266 8268 8267 8266 8266 8267 8268 8268 8269 8266 8267 8271 8269 8271 8270 8272 8271 8274 8273 
8236 8242 8246 8244 8246 8247 8248 8247 8246 8242 8243 8243 8246 8251 8250 8252 8255 8257 8259 8262 8264 8264 8267 8269 8266 8272 8273 8270 8274 8275 8275 8283 8281 8279 8279 8276 8239 8189 8148 8151 8151 8159 8167 8204 8209 8219 8236 8198 8187 8179 8176 8154 8156 8152 8161 8174 8236 8261 8260 8263 8265 8261 8264 8262 8264 8262 8263 8262 8263 8262 8264 8264 8266 8267 8267 8268 8266 8261 8268 8266 
8237 8237 8242 8243 8244 8244 8248 8248 8248 8242 8244 8246 8250 8254 8254 8255 8257 8261 8262 8263 8265 8266 8268 8267 8267 8273 8270 8269 8269 8272 8272 8279 8281 8277 8278 8275 8272 8248 8220 8182 8175 8218 8229 8209 8202 8203 8246 8172 8152 8146 8148 8147 8147 8144 8145 8165 8240 8255 8257 8260 8260 8257 8259 8259 8261 8258 8256 8259 8258 8259 8256 8258 8261 8260 8261 8260 8258 8258 8263 8260 
8233 8235 8243 8241 8241 8241 8245 8250 8249 8248 8246 8250 8253 8255 8256 8258 8258 8262 8261 8265 8266 8267 8270 8269 8264 8267 8267 8267 8267 8269 8270 8278 8278 8277 8277 8274 8270 8257 8225 8168 8158 8164 8173 8160 8160 8181 8240 8180 8149 8144 8146 8142 8143 8145 8149 8198 8251 8255 8255 8257 8258 8256 8260 8258 8260 8258 8255 8256 8258 8258 8256 8259 8257 8259 8257 8256 8255 8256 8258 8262 
8237 8234 8239 8239 8236 8245 8249 8252 8253 8250 8250 8251 8252 8255 8255 8259 8257 8261 8264 8264 8268 8266 8266 8264 8265 8268 8268 8266 8268 8268 8269 8272 8277 8272 8275 8271 8262 8200 8153 8147 8147 8151 8158 8180 8177 8170 8223 8187 8144 8142 8141 8139 8144 8150 8169 8218 8234 8251 8257 8255 8257 8260 8257 8259 8256 8258 8257 8258 8256 8259 8256 8255 8253 8255 8252 8251 8255 8255 8262 8259 
8231 8233 8240 8237 8245 8250 8250 8254 8253 8249 8250 8253 8251 8254 8256 8258 8257 8260 8260 8264 8265 8264 8266 8263 8264 8267 8265 8263 8262 8267 8267 8274 8274 8270 8270 8255 8202 8148 8141 8147 8148 8148 8152 8154 8169 8184 8183 8211 8157 8140 8138 8132 8173 8199 8155 8151 8176 8242 8254 8253 8254 8254 8259 8257 8258 8256 8255 8254 8257 8255 8254 8253 8252 8250 8250 8250 8253 8254 8256 8253 
8233 8235 8241 8240 8245 8250 8251 8253 8250 8249 8249 8251 8252 8254 8254 8255 8258 8261 8260 8262 8264 8264 8262 8262 8263 8266 8262 8263 8262 8265 8265 8270 8270 8266 8261 8191 8144 8138 8139 8144 8146 8148 8152 8156 8183 8212 8193 8252 8227 8168 8135 8134 8165 8161 8147 8147 8165 8239 8248 8250 8253 8257 8257 8255 8258 8255 8259 8256 8256 8254 8253 8254 8252 8251 8242 8246 8251 8252 8257 8251 
8231 8242 8245 8245 8248 8249 8250 8252 8250 8250 8251 8251 8252 8253 8255 8255 8258 8260 8261 8263 8263 8262 8261 8259 8262 8263 8261 8259 8260 8262 8264 8273 8268 8265 8229 8149 8143 8144 8141 8150 8156 8146 8169 8218 8241 8231 8177 8248 8243 8166 8135 8149 8181 8148 8153 8150 8168 8236 8250 8247 8249 8252 8255 8257 8255 8258 8256 8255 8254 8254 8251 8248 8248 8245 8243 8244 8248 8249 8255 8257 
8236 8242 8254 8248 8251 8250 8251 8253 8253 8250 8252 8251 8253 8254 8254 8255 8258 8261 8261 8261 8263 8264 8259 8258 8259 8261 8260 8258 8257 8260 8259 8267 8264 8264 8258 8229 8208 8211 8170 8226 8173 8172 8233 8213 8229 8234 8170 8244 8229 8153 8138 8183 8159 8147 8150 8155 8201 8245 8245 8248 8251 8252 8253 8251 8252 8254 8256 8255 8259 8257 8254 8249 8250 8246 8244 8244 8245 8246 8251 8252 
8238 8247 8252 8250 8252 8251 8254 8253 8250 8252 8254 8257 8253 8258 8256 8258 8261 8262 8260 8264 8263 8263 8260 8259 8256 8262 8255 8256 8257 8259 8259 8265 8265 8263 8264 8261 8261 8257 8251 8261 8225 8194 8170 8159 8155 8196 8161 8230 8234 8177 8171 8231 8187 8149 8148 8185 8212 8228 8234 8234 8242 8249 8250 8254 8252 8253 8254 8255 8255 8257 8260 8258 8254 8251 8249 8245 8246 8249 8253 8249 
8243 8247 8253 8250 8250 8253 8250 8252 8254 8252 8256 8257 8257 8256 8255 8258 8260 8262 8262 8264 8263 8257 8257 8258 8259 8258 8256 8255 8255 8257 8260 8263 8263 8264 8264 8263 8263 8260 8260 8261 8226 8153 8146 8145 8141 8139 8144 8196 8181 8201 8192 8214 8197 8170 8159 8175 8153 8151 8160 8169 8217 8238 8245 8251 8253 8253 8257 8255 8254 8256 8258 8258 8256 8258 8257 8253 8251 8250 8254 8254 
8244 8249 8252 8249 8249 8252 8253 8257 8254 8252 8257 8257 8257 8260 8258 8259 8262 8265 8261 8262 8261 8258 8256 8256 8259 8257 8257 8257 8256 8256 8256 8262 8263 8263 8266 8263 8261 8261 8259 8250 8176 8141 8146 8146 8139 8141 8158 8147 8151 8145 8139 8145 8139 8144 8154 8159 8143 8140 8139 8139 8160 8171 8214 8245 8255 8255 8255 8253 8254 8255 8261 8258 8261 8259 8258 8259 8260 8257 8258 8256 
8243 8250 8251 8248 8246 8252 8251 8256 8252 8255 8256 8255 8258 8259 8259 8259 8261 8261 8260 8259 8259 8258 8257 8256 8256 8256 8257 8257 8251 8256 8257 8265 8263 8263 8266 8264 8264 8259 8256 8192 8149 8142 8145 8150 8170 8196 8187 8147 8131 8125 8128 8137 8134 8135 8139 8146 8139 8138 8136 8138 8137 8142 8200 8244 8252 8253 8252 8255 8254 8257 8258 8258 8260 8259 8258 8258 8261 8259 8264 8261 
8249 8247 8250 8249 8247 8252 8254 8255 8255 8254 8257 8256 8257 8257 8258 8257 8258 8256 8257 8258 8256 8258 8257 8254 8255 8252 8255 8254 8255 8254 8259 8263 8260 8261 8262 8262 8262 8259 8247 8195 8193 8198 8201 8208 8230 8242 8207 8128 8123 8122 8168 8151 8131 8132 8135 8143 8137 8138 8132 8132 8135 8144 8200 8239 8248 8253 8254 8253 8255 8257 8259 8260 8262 8263 8260 8258 8260 8260 8265 8267 
8252 8253 8253 8247 8248 8254 8255 8254 8255 8255 8255 8256 8256 8257 8255 8258 8254 8257 8253 8254 8255 8257 8256 8258 8256 8256 8255 8254 8255 8256 8257 8263 8263 8263 8264 8260 8257 8254 8253 8254 8254 8246 8172 8172 8238 8243 8215 8130 8139 8122 8165 8131 8130 8132 8133 8172 8160 8141 8134 8129 8131 8135 8147 8214 8246 8251 8255 8253 8257 8259 8259 8262 8267 8263 8264 8265 8263 8266 8271 8267 
8258 8259 8258 8251 8249 8254 8254 8252 8252 8253 8254 8253 8253 8253 8256 8254 8254 8255 8254 8255 8257 8256 8258 8260 8259 8262 8259 8260 8258 8259 8260 8265 8267 8263 8261 8259 8253 8228 8207 8223 8245 8240 8163 8148 8171 8234 8187 8124 8126 8118 8147 8140 8129 8130 8132 8177 8224 8185 8144 8132 8128 8132 8136 8172 8240 8256 8257 8258 8259 8260 8263 8264 8267 8265 8266 8265 8268 8267 8277 8269 
8263 8261 8262 8255 8251 8254 8249 8253 8251 8254 8254 8251 8254 8253 8255 8255 8256 8252 8255 8256 8255 8256 8257 8260 8262 8266 8263 8264 8263 8267 8263 8270 8267 8263 8258 8235 8191 8148 8136 8142 8163 8202 8152 8152 8155 8217 8173 8127 8123 8119 8134 8131 8127 8129 8134 8189 8241 8236 8216 8166 8138 8138 8135 8153 8228 8253 8260 8260 8261 8264 8266 8268 8267 8267 8270 8269 8274 8272 8278 8273 
8264 8262 8265 8253 8250 8252 8249 8251 8251 8254 8251 8252 8253 8253 8257 8252 8254 8256 8256 8254 8255 8256 8258 8265 8266 8271 8272 8270 8270 8268 8269 8273 8266 8230 8176 8145 8139 8138 8141 8149 8148 8157 8159 8154 8143 8137 8135 8126 8125 8154 8133 8129 8143 8129 8129 8186 8238 8249 8251 8221 8194 8208 8167 8155 8213 8257 8267 8265 8270 8266 8270 8270 8270 8269 8274 8273 8275 8277 8279 8278 
8267 8266 8265 8257 8252 8252 8251 8250 8253 8252 8253 8252 8252 8258 8255 8254 8255 8255 8255 8252 8256 8255 8261 8266 8270 8273 8272 8274 8270 8269 8269 8268 8201 8146 8135 8138 8136 8137 8144 8149 8155 8151 8161 8156 8146 8136 8131 8125 8121 8152 8154 8129 8158 8129 8127 8137 8181 8243 8252 8255 8256 8257 8250 8233 8240 8261 8266 8268 8267 8272 8269 8272 8272 8272 8275 8277 8276 8279 8284 8275 
8262 8263 8261 8256 8251 8250 8251 8251 8252 8252 8254 8253 8256 8255 8253 8255 8253 8255 8253 8252 8253 8255 8260 8264 8271 8272 8273 8275 8269 8272 8268 8266 8197 8132 8131 8133 8130 8134 8136 8145 8149 8149 8151 8148 8145 8138 8125 8122 8124 8144 8121 8113 8140 8126 8126 8130 8151 8231 8258 8263 8262 8263 8265 8264 8264 8266 8266 8267 8271 8272 8270 8274 8274 8276 8275 8279 8279 8281 8283 8283 
8260 8265 8262 8256 8253 8252 8250 8251 8252 8252 8254 8255 8253 8255 8256 8254 8253 8252 8254 8251 8255 8257 8260 8264 8269 8272 8271 8272 8271 8270 8267 8244 8171 8146 8152 8132 8129 8129 8132 8139 8138 8138 8145 8145 8134 8126 8120 8123 8124 8121 8120 8115 8122 8122 8120 8128 8137 8217 8255 8264 8263 8265 8265 8267 8268 8264 8268 8272 8271 8271 8271 8274 8275 8279 8278 8280 8281 8282 8285 8281 
8261 8263 8261 8256 8251 8251 8252 8253 8252 8252 8253 8255 8253 8257 8253 8252 8255 8254 8253 8256 8255 8256 8261 8268 8271 8274 8271 8273 8268 8267 8239 8175 8125 8134 8134 8141 8146 8135 8129 8130 8131 8134 8141 8143 8130 8125 8121 8125 8123 8120 8118 8117 8120 8119 8117 8123 8131 8177 8254 8266 8264 8264 8266 8268 8267 8269 8268 8271 8270 8274 8274 8276 8275 8275 8280 8282 8283 8282 8285 8283 
8262 8263 8258 8254 8251 8253 8251 8251 8254 8254 8256 8254 8256 8255 8255 8253 8255 8255 8252 8254 8256 8257 8264 8268 8272 8272 8272 8270 8264 8234 8180 8130 8120 8128 8131 8128 8130 8128 8129 8123 8119 8132 8138 8140 8126 8117 8116 8117 8113 8116 8110 8113 8118 8119 8127 8128 8129 8152 8235 8261 8263 8264 8268 8270 8267 8270 8271 8268 8270 8270 8269 8272 8275 8278 8277 8279 8280 8281 8285 8284 
8260 8262 8259 8255 8253 8254 8252 8252 8254 8254 8255 8253 8253 8254 8254 8254 8255 8253 8255 8256 8253 8258 8265 8270 8271 8274 8273 8268 8234 8195 8152 8121 8126 8131 8134 8125 8131 8131 8132 8133 8114 8126 8135 8131 8115 8107 8117 8122 8118 8109 8109 8119 8117 8119 8131 8151 8129 8137 8194 8242 8258 8262 8266 8269 8269 8270 8271 8268 8269 8268 8267 8269 8273 8277 8278 8280 8282 8281 8284 8280 
8257 8258 8260 8254 8251 8252 8252 8250 8254 8257 8255 8255 8253 8255 8253 8253 8255 8253 8253 8252 8253 8258 8263 8269 8273 8273 8270 8248 8204 8201 8167 8124 8131 8135 8138 8121 8133 8133 8130 8125 8112 8124 8129 8115 8104 8108 8123 8126 8122 8117 8115 8126 8122 8123 8126 8128 8126 8127 8129 8184 8232 8252 8260 8265 8266 8264 8266 8265 8266 8266 8268 8266 8270 8273 8276 8276 8279 8279 8284 8281 
8256 8258 8257 8253 8250 8253 8252 8255 8254 8256 8257 8256 8254 8258 8252 8255 8253 8252 8251 8250 8252 8255 8265 8268 8272 8274 8259 8218 8205 8235 8200 8131 8131 8133 8141 8122 8131 8132 8135 8124 8114 8114 8118 8102 8103 8110 8126 8127 8125 8121 8115 8126 8124 8126 8129 8128 8127 8129 8127 8131 8145 8206 8250 8263 8265 8264 8265 8265 8264 8266 8267 8270 8267 8271 8276 8277 8280 8279 8282 8282 
8256 8253 8258 8253 8254 8253 8250 8253 8254 8253 8254 8253 8252 8252 8250 8249 8251 8251 8247 8252 8254 8255 8265 8267 8267 8270 8237 8209 8235 8251 8180 8140 8136 8134 8138 8117 8123 8131 8132 8122 8110 8112 8114 8106 8102 8114 8123 8131 8132 8122 8121 8119 8129 8131 8132 8130 8131 8131 8128 8128 8129 8148 8220 8253 8260 8263 8263 8261 8264 8266 8265 8267 8269 8268 8273 8274 8278 8276 8276 8277 
8258 8255 8258 8251 8253 8254 8252 8255 8254 8254 8252 8250 8249 8250 8248 8250 8251 8250 8248 8248 8252 8254 8261 8265 8267 8256 8213 8218 8252 8214 8159 8149 8133 8128 8124 8116 8127 8128 8130 8122 8123 8121 8113 8113 8118 8117 8125 8125 8127 8123 8136 8130 8144 8151 8137 8134 8130 8128 8128 8129 8131 8131 8155 8232 8255 8258 8260 8260 8261 8262 8265 8263 8267 8268 8269 8277 8278 8276 8279 8279 
8255 8255 8259 8254 8254 8251 8250 8251 8255 8254 8255 8252 8251 8250 8248 8248 8247 8249 8246 8248 8249 8253 8258 8258 8246 8227 8207 8234 8234 8175 8154 8150 8134 8119 8117 8118 8126 8126 8120 8114 8119 8118 8111 8109 8121 8118 8126 8127 8127 8131 8138 8146 8143 8167 8148 8135 8128 8130 8129 8127 8129 8130 8141 8200 8253 8259 8258 8258 8261 8260 8262 8265 8263 8269 8267 8273 8275 8272 8277 8279 
8254 8256 8259 8255 8251 8250 8251 8253 8254 8252 8254 8252 8252 8248 8248 8248 8248 8247 8249 8250 8249 8243 8219 8181 8158 8172 8213 8250 8201 8162 8156 8151 8127 8109 8111 8113 8120 8121 8111 8114 8118 8117 8111 8113 8124 8123 8132 8131 8137 8135 8140 8148 8142 8172 8179 8150 8131 8133 8130 8135 8146 8174 8212 8245 8258 8261 8257 8258 8260 8260 8262 8261 8263 8266 8269 8272 8274 8273 8278 8278 
8252 8255 8262 8252 8251 8253 8250 8254 8251 8250 8251 8253 8250 8253 8248 8247 8248 8250 8247 8247 8229 8164 8143 8139 8144 8152 8200 8233 8175 8159 8152 8149 8136 8120 8114 8113 8114 8117 8112 8114 8122 8115 8112 8115 8121 8124 8129 8128 8132 8132 8145 8150 8143 8173 8164 8144 8135 8148 8140 8187 8228 8245 8256 8257 8256 8258 8257 8259 8258 8258 8263 8260 8266 8267 8269 8273 8274 8275 8279 8277 
8252 8258 8259 8255 8252 8254 8254 8252 8252 8252 8252 8252 8253 8252 8251 8249 8248 8248 8243 8247 8239 8181 8137 8138 8139 8148 8160 8207 8171 8163 8150 8148 8141 8123 8111 8114 8113 8116 8112 8110 8122 8119 8115 8113 8114 8121 8126 8128 8124 8127 8132 8141 8149 8160 8143 8140 8136 8135 8133 8186 8242 8254 8257 8259 8259 8260 8258 8259 8260 8261 8260 8264 8265 8266 8268 8275 8275 8275 8276 8277 
8254 8255 8258 8254 8253 8255 8256 8254 8252 8250 8253 8251 8253 8252 8250 8245 8247 8246 8243 8244 8243 8236 8167 8140 8141 8145 8142 8160 8163 8157 8132 8124 8124 8116 8111 8114 8116 8119 8117 8113 8119 8120 8117 8117 8119 8117 8121 8124 8126 8128 8131 8128 8144 8147 8145 8142 8141 8140 8133 8147 8209 8253 8257 8260 8258 8256 8257 8259 8258 8260 8259 8261 8262 8268 8269 8267 8273 8274 8276 8274 
8253 8256 8258 8255 8253 8255 8254 8254 8252 8250 8252 8252 8251 8249 8246 8244 8246 8242 8243 8242 8244 8246 8231 8160 8142 8143 8141 8145 8149 8147 8126 8114 8109 8103 8108 8112 8120 8119 8121 8112 8120 8124 8122 8117 8121 8121 8125 8124 8128 8127 8132 8129 8148 8153 8148 8147 8143 8145 8137 8137 8179 8242 8257 8259 8256 8259 8257 8257 8258 8259 8262 8263 8265 8268 8265 8267 8270 8271 8276 8275 
8250 8254 8257 8254 8254 8257 8254 8256 8251 8251 8250 8252 8250 8246 8244 8245 8244 8243 8242 8239 8242 8248 8248 8221 8152 8140 8140 8151 8142 8125 8113 8110 8112 8107 8110 8116 8120 8122 8119 8116 8121 8121 8131 8121 8124 8129 8126 8126 8131 8127 8130 8134 8140 8153 8153 8141 8138 8138 8143 8145 8151 8205 8254 8256 8258 8258 8258 8258 8259 8259 8259 8261 8264 8266 8267 8268 8268 8267 8273 8272 
8250 8253 8257 8254 8255 8254 8254 8254 8252 8250 8251 8250 8250 8246 8243 8241 8243 8242 8243 8241 8244 8246 8247 8240 8192 8143 8144 8152 8145 8133 8116 8113 8112 8112 8117 8118 8119 8119 8117 8121 8128 8116 8125 8124 8127 8129 8124 8125 8128 8130 8132 8131 8132 8136 8140 8133 8134 8138 8136 8146 8147 8177 8248 8258 8256 8257 8258 8257 8256 8262 8258 8262 8262 8264 8268 8267 8268 8269 8272 8276 
8250 8253 8260 8253 8251 8256 8252 8252 8255 8248 8250 8248 8249 8250 8244 8244 8244 8244 8243 8242 8242 8246 8246 8243 8213 8170 8147 8152 8144 8141 8135 8121 8114 8112 8114 8113 8117 8122 8121 8125 8133 8117 8115 8115 8120 8129 8125 8127 8130 8131 8132 8130 8127 8127 8128 8126 8130 8137 8135 8143 8175 8221 8256 8259 8261 8261 8260 8258 8260 8258 8265 8262 8265 8265 8270 8268 8270 8269 8272 8271 
8252 8257 8257 8255 8253 8253 8250 8252 8249 8249 8252 8251 8251 8250 8247 8245 8245 8245 8244 8241 8242 8244 8244 8244 8221 8198 8177 8153 8145 8143 8135 8122 8116 8112 8113 8116 8126 8131 8129 8131 8132 8132 8128 8123 8113 8125 8129 8127 8132 8130 8130 8126 8127 8128 8131 8134 8140 8162 8164 8195 8240 8257 8261 8263 8264 8261 8262 8260 8260 8266 8267 8269 8266 8268 8267 8268 8271 8272 8273 8273 
8252 8255 8256 8254 8251 8250 8252 8250 8251 8252 8250 8252 8251 8252 8247 8246 8243 8245 8245 8242 8241 8242 8243 8242 8226 8197 8225 8178 8150 8151 8146 8135 8117 8114 8118 8122 8128 8130 8133 8140 8144 8144 8151 8153 8134 8124 8124 8130 8131 8129 8126 8128 8130 8126 8134 8138 8144 8169 8175 8217 8254 8260 8263 8263 8262 8260 8259 8262 8265 8265 8268 8268 8267 8270 8269 8266 8273 8270 8268 8269 
8252 8257 8259 8254 8252 8254 8251 8252 8252 8253 8252 8251 8251 8250 8250 8248 8246 8248 8244 8242 8243 8242 8242 8241 8235 8207 8220 8221 8177 8176 8166 8145 8134 8127 8133 8133 8125 8131 8140 8136 8146 8154 8160 8159 8153 8130 8127 8131 8140 8138 8135 8127 8129 8125 8128 8137 8151 8179 8191 8236 8256 8258 8263 8262 8263 8260 8260 8262 8262 8268 8266 8265 8267 8267 8269 8269 8269 8267 8268 8269 
8253 8257 8259 8253 8253 8254 8254 8250 8254 8250 8253 8253 8252 8250 8248 8249 8248 8244 8245 8243 8245 8242 8242 8240 8238 8220 8223 8250 8205 8186 8170 8158 8150 8147 8151 8145 8141 8140 8147 8143 8150 8150 8161 8168 8159 8142 8140 8144 8151 8152 8135 8124 8125 8125 8127 8165 8191 8193 8222 8254 8262 8260 8261 8261 8264 8262 8262 8264 8264 8264 8267 8264 8266 8267 8268 8269 8268 8267 8268 8269 
8254 8256 8260 8255 8252 8255 8255 8256 8254 8255 8252 8256 8251 8251 8248 8248 8244 8246 8247 8244 8245 8247 8247 8244 8245 8235 8225 8264 8253 8200 8188 8183 8172 8165 8165 8155 8148 8158 8161 8155 8144 8146 8159 8168 8153 8143 8137 8142 8152 8150 8133 8124 8122 8124 8148 8183 8232 8230 8252 8261 8262 8262 8260 8263 8261 8261 8263 8263 8261 8265 8263 8264 8264 8267 8265 8265 8270 8267 8269 8267 
8250 8256 8257 8255 8253 8255 8252 8255 8253 8252 8252 8250 8254 8253 8252 8246 8250 8249 8248 8248 8247 8251 8254 8257 8252 8247 8223 8244 8280 8230 8194 8195 8187 8180 8178 8170 8169 8176 8179 8173 8155 8152 8158 8163 8142 8131 8133 8143 8152 8153 8137 8122 8123 8140 8169 8192 8240 8251 8258 8260 8264 8262 8263 8265 8261 8262 8261 8261 8262 8266 8264 8266 8264 8268 8265 8267 8268 8268 8267 8267 
8252 8256 8257 8258 8254 8257 8254 8254 8259 8252 8254 8253 8252 8254 8250 8248 8247 8249 8249 8251 8252 8261 8263 8264 8261 8260 8232 8231 8276 8284 8224 8211 8209 8197 8187 8186 8183 8204 8217 8191 8174 8162 8157 8163 8141 8132 8141 8153 8156 8158 8139 8132 8144 8154 8176 8208 8234 8255 8259 8264 8261 8262 8263 8263 8262 8263 8259 8259 8262 8265 8263 8265 8263 8268 8262 8264 8266 8266 8265 8262 
8248 8255 8258 8256 8258 8258 8257 8254 8256 8252 8254 8255 8256 8254 8252 8250 8250 8251 8253 8253 8256 8264 8266 8264 8264 8265 8253 8227 8250 8299 8278 8228 8221 8208 8196 8194 8198 8232 8242 8211 8183 8163 8166 8159 8152 8143 8150 8152 8156 8159 8162 8170 8171 8188 8219 8221 8239 8258 8260 8259 8258 8262 8260 8261 8259 8257 8259 8256 8259 8260 8260 8262 8260 8263 8261 8260 8264 8262 8263 8258 
8249 8253 8257 8255 8257 8256 8255 8256 8253 8253 8252 8257 8254 8255 8255 8250 8248 8253 8251 8252 8259 8263 8267 8269 8265 8264 8258 8235 8231 8261 8293 8276 8231 8210 8209 8210 8210 8217 8231 8217 8190 8175 8169 8160 8159 8164 8163 8159 8164 8168 8176 8187 8212 8248 8241 8228 8247 8255 8253 8256 8253 8253 8255 8255 8252 8254 8253 8251 8248 8254 8251 8254 8253 8257 8255 8252 8252 8252 8254 8253 
8250 8251 8256 8254 8255 8256 8255 8253 8255 8250 8251 8253 8254 8253 8252 8248 8250 8253 8252 8253 8253 8258 8260 8262 8261 8263 8257 8250 8220 8232 8264 8312 8290 8232 8213 8220 8212 8206 8207 8201 8189 8175 8167 8162 8161 8168 8169 8167 8171 8174 8189 8223 8267 8256 8232 8241 8244 8248 8245 8245 8248 8245 8250 8247 8243 8242 8244 8243 8245 8241 8245 8246 8244 8248 8244 8250 8247 8245 8248 8244 
8249 8252 8258 8256 8255 8259 8255 8251 8254 8253 8253 8253 8254 8255 8253 8251 8252 8253 8252 8250 8251 8254 8253 8255 8254 8253 8252 8246 8234 8220 8231 8268 8306 8300 8260 8230 8216 8210 8204 8201 8197 8184 8167 8175 8169 8169 8173 8176 8180 8198 8237 8268 8259 8241 8240 8245 8241 8242 8242 8243 8242 8245 8247 8239 8239 8236 8238 8237 8239 8241 8243 8245 8244 8248 8246 8243 8246 8244 8246 8242 
8246 8250 8259 8254 8257 8258 8253 8252 8251 8254 8252 8251 8255 8255 8252 8251 8249 8250 8251 8246 8247 8248 8250 8250 8249 8248 8248 8246 8240 8234 8217 8226 8257 8285 8300 8279 8245 8220 8211 8207 8196 8172 8174 8174 8176 8184 8190 8204 8228 8250 8251 8244 8239 8240 8242 8243 8242 8239 8242 8237 8238 8238 8239 8239 8237 8234 8235 8238 8238 8239 8240 8241 8240 8244 8242 8241 8242 8240 8243 8238 
8248 8254 8258 8254 8255 8255 8255 8252 8255 8253 8253 8253 8255 8255 8252 8248 8250 8248 8250 8250 8249 8248 8245 8248 8246 8247 8244 8242 8242 8242 8233 8223 8223 8232 8249 8269 8280 8270 8257 8245 8224 8205 8202 8207 8207 8221 8239 8252 8250 8241 8231 8233 8241 8243 8242 8240 8235 8238 8238 8240 8235 8237 8239 8238 8236 8236 8234 8236 8235 8238 8239 8239 8243 8239 8240 8239 8239 8237 8241 8237 
8250 8256 8261 8257 8254 8253 8254 8250 8253 8252 8251 8251 8252 8250 8251 8249 8251 8249 8248 8249 8247 8246 8249 8246 8245 8244 8242 8243 8242 8242 8243 8240 8231 8218 8219 8228 8237 8246 8256 8265 8263 8253 8246 8242 8233 8231 8234 8235 8230 8232 8239 8240 8243 8241 8244 8240 8238 8234 8237 8237 8234 8238 8235 8236 8235 8234 8235 8235 8233 8236 8235 8240 8240 8242 8236 8237 8238 8238 8238 8237 
8250 8256 8264 8254 8249 8256 8253 8252 8253 8251 8252 8250 8250 8250 8248 8250 8244 8246 8242 8247 8249 8244 8244 8244 8244 8246 8241 8240 8239 8241 8242 8246 8242 8233 8227 8224 8223 8222 8225 8231 8232 8231 8226 8227 8218 8217 8228 8234 8239 8243 8244 8242 8241 8242 8244 8244 8239 8237 8235 8238 8233 8234 8235 8236 8237 8235 8236 8233 8236 8236 8240 8234 8238 8238 8236 8235 8236 8236 8237 8236 
8250 8254 8261 8252 8249 8252 8254 8254 8251 8248 8248 8247 8250 8248 8248 8244 8243 8244 8244 8247 8247 8245 8242 8242 8241 8241 8244 8242 8243 8242 8245 8248 8246 8243 8241 8236 8232 8224 8227 8230 8232 8230 8235 8236 8232 8228 8238 8246 8245 8245 8246 8242 8244 8243 8245 8242 8242 8238 8235 8237 8235 8236 8238 8237 8236 8238 8236 8236 8236 8238 8239 8240 8234 8237 8234 8235 8234 8235 8236 8237 
8248 8248 8251 8249 8251 8252 8250 8249 8250 8251 8245 8244 8250 8248 8246 8246 8245 8242 8244 8243 8247 8249 8240 8241 8243 8247 8243 8241 8239 8244 8244 8249 8248 8245 8245 8243 8244 8240 8240 8240 8241 8241 8241 8245 8236 8235 8244 8247 8247 8246 8248 8244 8246 8246 8246 8243 8240 8236 8237 8237 8235 8237 8238 8240 8235 8236 8239 8240 8241 8239 8239 8238 8238 8239 8235 8232 8238 8236 8241 8238 
8251 8241 8250 8246 8247 8250 8248 8245 8248 8248 8239 8241 8246 8244 8250 8245 8238 8239 8239 8242 8246 8245 8243 8245 8244 8246 8243 8243 8242 8238 8242 8245 8247 8249 8246 8246 8246 8247 8246 8247 8248 8251 8249 8248 8241 8237 8243 8245 8245 8246 8249 8245 8251 8248 8251 8247 8246 8246 8243 8240 8239 8240 8243 8237 8240 8241 8244 8245 8248 8246 8248 8248 8246 8247 8241 8237 8243 8242 8249 8240 


