P2
80 60
8326
8245 8253 8257 8262 8266 8268 8267 8271 8267 8267 8266 8264 8262 8263 8263 8271 8276 8278 8280 8276 8277 8274 8270 8271 8274 8278 8288 8296 8300 8302 8306 8310 8313 8316 8319 8321 8326 8324 8323 8324 8326 8324 8323 8321 8323 8323 8322 8323 8323 8320 8317 8320 8318 8320 8314 8316 8317 8317 8313 8312 8313 8304 8303 8300 8299 8299 8295 8295 8289 8290 8286 8288 8284 8284 8283 8283 8283 8278 8272 8275 
8245 8254 8255 8264 8268 8273 8273 8269 8268 8266 8265 8263 8263 8265 8267 8272 8279 8277 8283 8279 8274 8269 8273 8271 8277 8277 8287 8293 8297 8303 8303 8304 8313 8314 8319 8320 8322 8322 8322 8325 8320 8321 8318 8320 8319 8322 8321 8320 8320 8320 8319 8319 8317 8316 8314 8312 8314 8313 8313 8312 8312 8304 8305 8298 8297 8299 8298 8302 8294 8290 8289 8287 8287 8282 8282 8280 8283 8280 8270 8272 
8245 8253 8259 8266 8266 8270 8267 8268 8267 8263 8262 8261 8263 8262 8268 8272 8273 8280 8280 8275 8272 8270 8268 8271 8273 8273 8284 8288 8289 8293 8294 8300 8303 8303 8309 8310 8314 8313 8317 8317 8314 8315 8315 8316 8316 8315 8313 8317 8314 8313 8313 8314 8314 8310 8304 8306 8309 8308 8308 8309 8308 8300 8301 8294 8295 8295 8293 8294 8295 8292 8287 8286 8287 8284 8280 8279 8279 8280 8270 8274 
8247 8253 8260 8261 8264 8265 8267 8262 8262 8257 8257 8258 8260 8261 8267 8269 8272 8275 8274 8271 8270 8268 8266 8264 8269 8269 8277 8281 8282 8286 8289 8291 8291 8291 8297 8300 8303 8308 8304 8307 8306 8306 8304 8304 8305 8307 8306 8307 8306 8308 8306 8307 8304 8301 8298 8296 8298 8299 8301 8299 8301 8296 8292 8290 8289 8289 8287 8292 8286 8288 8287 8284 8283 8283 8280 8277 8280 8277 8274 8273 
8245 8252 8256 8258 8258 8257 8260 8258 8261 8257 8258 8259 8260 8261 8264 8267 8268 8269 8269 8269 8267 8267 8265 8267 8269 8266 8273 8280 8279 8281 8281 8284 8287 8288 8292 8292 8292 8294 8296 8299 8299 8299 8299 8299 8298 8297 8302 8302 8301 8300 8301 8302 8299 8297 8291 8290 8293 8291 8291 8293 8291 8289 8288 8282 8285 8282 8281 8285 8283 8282 8284 8281 8278 8278 8279 8275 8275 8276 8272 8271 
8245 8249 8252 8252 8253 8257 8258 8255 8259 8255 8257 8258 8257 8257 8260 8264 8265 8267 8267 8269 8267 8266 8264 8267 8265 8267 8274 8281 8282 8283 8283 8288 8289 8287 8291 8293 8294 8294 8293 8296 8296 8296 8296 8295 8296 8298 8299 8299 8295 8296 8296 8299 8293 8293 8283 8284 8288 8287 8287 8288 8285 8280 8279 8278 8279 8278 8278 8277 8279 8275 8277 8277 8276 8274 8276 8273 8276 8274 8272 8271 
8242 8245 8250 8249 8253 8251 8258 8254 8255 8253 8256 8254 8258 8260 8262 8265 8267 8270 8268 8273 8272 8270 8269 8271 8266 8273 8279 8285 8284 8287 8286 8286 8290 8286 8289 8291 8290 8296 8292 8294 8295 8293 8293 8292 8290 8294 8294 8298 8296 8293 8292 8295 8292 8290 8282 8282 8285 8286 8284 8285 8284 8275 8277 8274 8273 8276 8273 8275 8275 8274 8274 8274 8274 8274 8276 8270 8272 8269 8268 8269 
8241 8247 8249 8252 8253 8253 8254 8256 8256 8252 8255 8256 8262 8263 8264 8265 8269 8272 8274 8272 8273 8275 8274 8275 8273 8276 8278 8282 8282 8283 8283 8285 8288 8287 8288 8288 8290 8293 8289 8292 8293 8292 8290 8290 8291 8289 8288 8294 8291 8289 8290 8292 8291 8286 8280 8280 8281 8280 8281 8282 8283 8274 8274 8269 8273 8271 8271 8270 8271 8271 8268 8270 8272 8270 8271 8264 8268 8264 8261 8265 
8241 8245 8245 8248 8248 8252 8256 8259 8257 8259 8259 8260 8263 8265 8268 8270 8271 8274 8275 8277 8274 8276 8275 8274 8270 8270 8275 8281 8281 8285 8282 8284 8287 8284 8290 8285 8289 8288 8289 8289 8290 8288 8289 8291 8291 8287 8286 8290 8290 8288 8288 8288 8286 8282 8283 8279 8279 8280 8280 8281 8279 8273 8275 8270 8272 8271 8270 8272 8267 8268 8265 8268 8267 8268 8267 8263 8264 8263 8263 8261 
8241 8243 8243 8244 8248 8252 8255 8256 8263 8260 8261 8263 8263 8265 8266 8268 8270 8271 8275 8276 8274 8274 8270 8272 8272 8272 8275 8280 8281 8281 8280 8282 8287 8282 8287 8286 8287 8286 8285 8290 8285 8286 8284 8287 8287 8287 8285 8287 8287 8290 8286 8287 8283 8284 8282 8278 8279 8282 8280 8284 8278 8275 8272 8270 8268 8270 8272 8268 8270 8263 8264 8266 8263 8262 8262 8258 8262 8264 8261 8254 
8234 8241 8245 8246 8248 8255 8260 8267 8266 8263 8265 8265 8263 8267 8270 8267 8270 8272 8273 8275 8273 8273 8270 8270 8270 8269 8274 8279 8279 8278 8279 8283 8284 8283 8286 8283 8285 8285 8285 8288 8289 8286 8285 8284 8286 8286 8285 8287 8288 8285 8286 8286 8282 8282 8278 8279 8278 8277 8278 8279 8278 8271 8270 8267 8269 8268 8268 8266 8269 8267 8265 8262 8263 8261 8259 8255 8259 8261 8257 8259 
8238 8245 8246 8248 8254 8260 8263 8262 8264 8261 8260 8263 8265 8267 8268 8271 8271 8271 8274 8273 8274 8273 8267 8269 8270 8267 8273 8278 8275 8278 8278 8276 8282 8281 8286 8282 8286 8284 8283 8288 8285 8285 8283 8282 8286 8283 8284 8286 8285 8286 8285 8286 8285 8278 8279 8275 8278 8278 8276 8275 8271 8254 8255 8257 8265 8267 8269 8273 8272 8264 8262 8263 8261 8262 8253 8256 8258 8261 8259 8258 
8241 8250 8252 8255 8257 8262 8266 8265 8267 8264 8264 8264 8267 8266 8269 8269 8273 8274 8276 8275 8274 8272 8265 8266 8266 8268 8271 8276 8274 8278 8278 8279 8283 8280 8284 8280 8279 8282 8282 8282 8281 8284 8282 8280 8280 8281 8284 8283 8285 8283 8284 8286 8283 8283 8278 8277 8277 8277 8275 8271 8257 8203 8207 8213 8231 8266 8267 8268 8267 8264 8262 8259 8258 8257 8258 8256 8256 8256 8256 8257 
8242 8253 8260 8259 8264 8262 8263 8263 8266 8263 8265 8265 8265 8265 8267 8271 8273 8271 8274 8273 8273 8271 8265 8266 8266 8267 8271 8274 8271 8278 8272 8278 8282 8277 8284 8278 8280 8281 8278 8284 8284 8281 8281 8280 8281 8282 8282 8283 8283 8280 8283 8285 8281 8280 8276 8272 8275 8275 8275 8268 8225 8189 8195 8203 8236 8267 8267 8270 8270 8266 8260 8263 8257 8256 8253 8253 8254 8253 8257 8259 
8247 8256 8261 8261 8262 8261 8266 8264 8265 8266 8265 8267 8267 8268 8267 8270 8271 8274 8273 8275 8273 8274 8268 8266 8267 8267 8267 8273 8273 8275 8273 8278 8280 8277 8280 8279 8277 8279 8277 8281 8280 8281 8280 8276 8277 8280 8281 8285 8280 8281 8280 8282 8279 8277 8274 8273 8275 8278 8272 8259 8200 8190 8197 8211 8255 8267 8267 8266 8269 8269 8267 8266 8262 8260 8259 8251 8257 8254 8253 8258 
8250 8259 8260 8262 8263 8266 8260 8266 8267 8265 8265 8270 8266 8267 8268 8269 8273 8272 8273 8275 8271 8269 8266 8266 8266 8263 8265 8272 8269 8272 8273 8273 8278 8276 8281 8275 8275 8276 8274 8277 8278 8280 8274 8274 8276 8279 8279 8277 8279 8279 8276 8282 8276 8278 8272 8272 8271 8276 8272 8236 8196 8192 8202 8234 8262 8270 8271 8269 8270 8269 8268 8268 8269 8268 8265 8259 8258 8256 8255 8259 
8251 8259 8259 8262 8262 8264 8260 8263 8266 8265 8264 8268 8265 8269 8270 8271 8272 8275 8273 8273 8269 8268 8266 8265 8264 8265 8267 8271 8269 8271 8269 8272 8275 8276 8279 8276 8276 8278 8275 8279 8278 8278 8274 8270 8272 8277 8275 8278 8280 8276 8277 8281 8277 8276 8271 8271 8271 8271 8264 8208 8197 8200 8214 8253 8265 8267 8269 8269 8270 8268 8268 8272 8270 8268 8266 8266 8266 8263 8260 8263 
8255 8258 8259 8258 8257 8262 8258 8265 8263 8264 8264 8266 8267 8269 8270 8271 8271 8273 8271 8269 8270 8266 8268 8266 8265 8264 8267 8273 8268 8271 8271 8273 8276 8276 8278 8277 8277 8277 8271 8275 8274 8273 8271 8270 8273 8276 8276 8278 8276 8278 8278 8279 8274 8274 8270 8269 8269 8271 8241 8198 8201 8205 8235 8262 8267 8269 8267 8270 8269 8267 8268 8270 8270 8268 8267 8267 8268 8266 8267 8269 
8259 8260 8257 8259 8257 8260 8263 8264 8267 8265 8264 8266 8265 8269 8267 8269 8270 8268 8269 8270 8269 8268 8266 8267 8266 8264 8268 8272 8272 8274 8274 8274 8277 8277 8281 8277 8277 8278 8271 8276 8274 8276 8271 8272 8273 8274 8274 8277 8277 8275 8277 8280 8276 8275 8272 8269 8269 8263 8208 8200 8207 8216 8256 8267 8269 8270 8267 8269 8270 8271 8270 8271 8272 8272 8269 8270 8273 8270 8267 8271 
8260 8262 8259 8259 8259 8261 8261 8259 8263 8264 8264 8266 8268 8267 8267 8268 8266 8268 8266 8267 8268 8269 8264 8267 8269 8268 8272 8279 8278 8276 8276 8280 8282 8279 8283 8277 8276 8273 8273 8275 8275 8274 8273 8271 8279 8279 8279 8278 8280 8279 8280 8281 8277 8276 8272 8274 8271 8245 8198 8201 8209 8234 8265 8268 8271 8271 8270 8271 8274 8273 8272 8274 8276 8276 8277 8272 8273 8272 8271 8271 
8267 8271 8262 8261 8260 8260 8258 8258 8266 8262 8265 8263 8264 8263 8267 8266 8267 8266 8267 8268 8268 8269 8265 8270 8274 8276 8277 8283 8281 8281 8283 8284 8287 8283 8281 8280 8275 8277 8263 8262 8257 8257 8256 8259 8265 8270 8274 8279 8283 8278 8280 8280 8277 8277 8276 8271 8268 8222 8198 8201 8216 8257 8271 8270 8277 8276 8276 8277 8276 8275 8278 8277 8278 8278 8279 8276 8279 8280 8276 8279 
8269 8272 8267 8261 8258 8256 8256 8259 8259 8264 8265 8264 8262 8264 8266 8266 8268 8265 8266 8268 8267 8269 8268 8273 8277 8278 8283 8288 8287 8290 8286 8287 8287 8270 8246 8257 8255 8237 8208 8215 8227 8240 8244 8255 8256 8257 8256 8261 8265 8233 8238 8267 8277 8278 8276 8275 8254 8203 8198 8204 8240 8268 8276 8275 8278 8278 8280 8278 8277 8282 8280 8281 8281 8281 8284 8281 8284 8284 8284 8285 
8273 8272 8268 8263 8260 8257 8255 8257 8259 8263 8265 8264 8264 8265 8267 8266 8267 8266 8267 8267 8268 8268 8269 8278 8279 8283 8287 8289 8290 8290 8287 8288 8282 8221 8168 8173 8195 8168 8180 8169 8206 8279 8285 8286 8285 8284 8276 8271 8255 8179 8163 8183 8228 8270 8273 8272 8227 8197 8205 8213 8267 8274 8279 8279 8281 8284 8282 8282 8285 8283 8284 8283 8285 8285 8287 8285 8291 8290 8284 8287 
8274 8274 8268 8265 8258 8257 8256 8257 8262 8262 8263 8265 8261 8266 8266 8265 8268 8267 8270 8264 8268 8269 8272 8278 8279 8281 8289 8291 8290 8289 8287 8278 8254 8175 8143 8131 8135 8143 8153 8156 8189 8238 8263 8280 8294 8292 8289 8291 8278 8180 8152 8152 8153 8221 8266 8259 8203 8200 8201 8235 8276 8276 8280 8279 8283 8282 8287 8285 8285 8284 8284 8285 8287 8287 8285 8287 8289 8292 8285 8289 
8270 8273 8268 8264 8259 8256 8257 8256 8263 8262 8264 8264 8264 8267 8266 8267 8265 8265 8265 8265 8267 8268 8271 8277 8279 8281 8288 8292 8289 8287 8266 8199 8163 8146 8136 8131 8128 8127 8130 8144 8147 8152 8163 8214 8268 8197 8170 8192 8240 8225 8150 8150 8147 8188 8242 8218 8183 8184 8190 8232 8273 8274 8278 8274 8281 8282 8280 8285 8288 8287 8284 8288 8287 8288 8289 8287 8293 8289 8287 8288 
8268 8272 8266 8263 8261 8259 8259 8257 8260 8260 8266 8266 8267 8266 8267 8266 8263 8263 8266 8267 8268 8267 8269 8279 8281 8281 8287 8289 8290 8277 8184 8150 8169 8142 8141 8151 8128 8132 8129 8138 8138 8141 8143 8152 8214 8247 8176 8152 8150 8178 8157 8147 8145 8181 8211 8171 8162 8151 8158 8172 8222 8232 8257 8234 8267 8282 8285 8287 8287 8287 8287 8285 8289 8289 8287 8288 8294 8291 8286 8290 
8269 8268 8262 8264 8259 8258 8258 8258 8260 8261 8268 8268 8266 8265 8270 8265 8264 8266 8266 8266 8266 8268 8272 8280 8282 8283 8284 8289 8282 8246 8164 8159 8144 8128 8136 8154 8132 8137 8131 8139 8143 8139 8135 8140 8163 8286 8284 8195 8147 8141 8139 8132 8134 8191 8183 8152 8163 8165 8151 8158 8148 8143 8171 8193 8269 8285 8284 8286 8288 8287 8284 8286 8287 8288 8288 8288 8290 8290 8286 8285 
8267 8269 8265 8264 8259 8258 8260 8259 8262 8264 8266 8266 8267 8265 8268 8266 8263 8267 8264 8266 8268 8270 8272 8278 8282 8282 8283 8281 8224 8168 8145 8141 8130 8126 8128 8122 8124 8129 8135 8136 8141 8140 8136 8141 8234 8273 8269 8255 8163 8138 8132 8130 8123 8133 8148 8150 8156 8153 8146 8146 8132 8133 8166 8238 8276 8282 8284 8283 8285 8281 8282 8282 8286 8290 8288 8288 8291 8290 8289 8287 
8268 8268 8265 8264 8262 8262 8260 8261 8262 8262 8269 8266 8261 8264 8267 8267 8266 8265 8266 8265 8265 8269 8274 8281 8282 8283 8285 8245 8167 8156 8152 8140 8137 8130 8122 8121 8126 8137 8139 8148 8142 8141 8138 8137 8148 8144 8145 8141 8134 8134 8197 8166 8128 8137 8143 8147 8153 8154 8145 8136 8137 8143 8186 8258 8279 8283 8283 8282 8284 8282 8277 8282 8284 8288 8288 8290 8289 8290 8287 8286 
8264 8268 8264 8262 8260 8260 8260 8258 8264 8266 8266 8264 8263 8262 8263 8263 8263 8265 8260 8263 8264 8269 8272 8277 8279 8280 8281 8253 8220 8231 8217 8150 8135 8125 8121 8115 8143 8152 8137 8147 8129 8153 8173 8141 8132 8130 8132 8140 8144 8144 8146 8158 8145 8142 8143 8159 8154 8158 8153 8148 8147 8148 8170 8240 8276 8280 8279 8279 8279 8278 8276 8277 8284 8285 8284 8286 8286 8289 8285 8286 
8263 8267 8264 8260 8261 8258 8259 8259 8265 8264 8265 8263 8266 8265 8264 8263 8263 8262 8263 8263 8264 8266 8271 8278 8280 8280 8267 8228 8224 8243 8165 8138 8135 8126 8123 8115 8146 8153 8134 8123 8121 8124 8137 8207 8183 8133 8131 8138 8139 8143 8173 8163 8145 8143 8151 8181 8159 8208 8187 8147 8155 8183 8199 8232 8274 8277 8277 8277 8276 8276 8276 8280 8282 8283 8283 8286 8285 8285 8283 8285 
8266 8264 8265 8264 8262 8261 8261 8259 8263 8263 8264 8264 8262 8263 8262 8261 8262 8262 8261 8262 8261 8263 8274 8278 8276 8263 8182 8161 8170 8202 8188 8159 8153 8167 8149 8122 8122 8127 8132 8130 8125 8145 8154 8201 8163 8142 8135 8148 8143 8141 8137 8133 8144 8149 8144 8143 8157 8194 8164 8143 8152 8200 8252 8257 8272 8279 8275 8276 8274 8278 8277 8277 8280 8283 8283 8285 8284 8286 8279 8279 
8266 8267 8263 8263 8262 8261 8260 8262 8265 8265 8262 8260 8258 8260 8261 8262 8263 8260 8261 8258 8263 8265 8270 8275 8277 8263 8170 8143 8141 8140 8154 8181 8151 8137 8168 8145 8130 8135 8143 8138 8129 8153 8200 8175 8171 8134 8136 8151 8150 8149 8140 8132 8140 8147 8142 8142 8145 8163 8176 8146 8158 8177 8251 8266 8272 8273 8272 8277 8275 8273 8276 8275 8279 8280 8282 8284 8286 8282 8279 8282 
8261 8267 8265 8261 8261 8261 8261 8261 8266 8262 8264 8263 8261 8261 8260 8261 8259 8261 8259 8263 8261 8264 8269 8276 8274 8268 8215 8157 8138 8136 8138 8137 8130 8135 8194 8182 8133 8138 8142 8127 8138 8152 8150 8159 8182 8172 8169 8158 8153 8151 8140 8143 8157 8155 8183 8149 8149 8148 8157 8150 8162 8167 8231 8264 8272 8276 8273 8271 8276 8272 8278 8277 8277 8282 8279 8282 8283 8283 8279 8282 
8261 8266 8264 8262 8261 8258 8260 8260 8263 8262 8265 8264 8263 8260 8261 8261 8260 8261 8260 8263 8264 8262 8266 8270 8270 8262 8212 8197 8161 8137 8136 8139 8131 8180 8180 8144 8133 8132 8149 8133 8135 8149 8163 8172 8204 8195 8151 8148 8157 8191 8160 8140 8151 8169 8198 8174 8145 8150 8142 8161 8187 8172 8217 8262 8271 8275 8270 8275 8274 8270 8274 8275 8276 8280 8282 8281 8284 8284 8279 8279 
8257 8265 8265 8260 8261 8262 8259 8263 8262 8260 8261 8264 8263 8264 8257 8260 8259 8260 8260 8259 8260 8262 8265 8265 8263 8249 8208 8211 8200 8164 8142 8140 8136 8166 8153 8134 8126 8127 8158 8161 8140 8161 8152 8144 8151 8158 8139 8140 8152 8176 8149 8144 8162 8150 8174 8209 8162 8151 8146 8178 8251 8205 8215 8261 8270 8270 8269 8271 8271 8271 8272 8276 8279 8278 8279 8281 8286 8285 8282 8280 
8259 8265 8263 8262 8261 8260 8260 8258 8261 8263 8264 8261 8262 8262 8262 8261 8259 8258 8255 8256 8258 8263 8265 8265 8254 8242 8205 8211 8198 8172 8165 8139 8137 8154 8167 8130 8124 8145 8160 8149 8158 8158 8139 8148 8152 8143 8140 8140 8145 8150 8151 8176 8162 8142 8147 8200 8217 8182 8156 8210 8266 8254 8235 8267 8271 8272 8272 8273 8274 8271 8269 8276 8276 8277 8279 8281 8286 8287 8281 8279 
8256 8262 8265 8264 8261 8263 8262 8261 8263 8260 8263 8262 8259 8260 8257 8255 8256 8256 8254 8257 8256 8261 8260 8266 8253 8236 8204 8213 8192 8168 8157 8135 8134 8137 8147 8130 8126 8137 8142 8141 8158 8148 8145 8152 8154 8150 8149 8152 8154 8153 8151 8183 8172 8143 8145 8188 8244 8250 8184 8226 8268 8272 8267 8269 8271 8272 8271 8269 8272 8272 8270 8275 8275 8277 8276 8278 8286 8283 8280 8279 
8257 8265 8261 8264 8262 8260 8260 8259 8260 8258 8261 8261 8259 8258 8256 8256 8257 8251 8254 8254 8255 8258 8260 8259 8248 8239 8204 8207 8187 8146 8124 8126 8123 8121 8132 8131 8140 8136 8135 8143 8151 8141 8139 8141 8144 8145 8146 8145 8159 8162 8159 8157 8158 8156 8147 8186 8251 8258 8229 8248 8266 8273 8272 8268 8269 8273 8271 8272 8271 8272 8269 8273 8274 8277 8275 8276 8280 8280 8280 8279 
8256 8265 8260 8264 8260 8264 8260 8263 8261 8260 8256 8258 8258 8256 8253 8255 8254 8252 8255 8253 8252 8255 8256 8260 8246 8236 8201 8203 8175 8138 8127 8127 8129 8124 8133 8142 8140 8136 8133 8135 8133 8135 8135 8137 8138 8140 8138 8141 8161 8167 8165 8180 8202 8209 8197 8222 8263 8264 8268 8255 8254 8271 8272 8271 8274 8274 8271 8275 8277 8273 8270 8273 8271 8274 8274 8276 8280 8276 8280 8277 
8256 8261 8260 8264 8261 8261 8259 8257 8262 8259 8257 8260 8258 8256 8255 8253 8253 8252 8255 8252 8252 8254 8254 8252 8246 8238 8202 8177 8132 8128 8131 8146 8128 8132 8136 8153 8138 8141 8142 8128 8128 8147 8146 8145 8145 8137 8146 8153 8161 8164 8162 8167 8188 8241 8242 8260 8270 8272 8282 8257 8254 8270 8275 8272 8272 8274 8273 8273 8273 8272 8270 8273 8275 8277 8274 8278 8280 8281 8275 8278 
8255 8260 8261 8260 8258 8259 8257 8255 8259 8256 8256 8256 8256 8257 8251 8255 8256 8255 8254 8251 8249 8251 8251 8250 8243 8236 8198 8140 8128 8135 8150 8142 8129 8131 8130 8136 8134 8137 8141 8137 8130 8144 8142 8150 8141 8133 8149 8154 8157 8161 8156 8160 8174 8238 8257 8271 8275 8278 8286 8255 8260 8274 8276 8274 8276 8275 8274 8275 8274 8272 8276 8274 8277 8276 8279 8276 8281 8279 8276 8275 
8257 8262 8259 8262 8257 8258 8258 8255 8257 8256 8258 8260 8260 8256 8258 8255 8255 8253 8253 8251 8250 8251 8247 8247 8242 8240 8204 8151 8150 8149 8143 8141 8134 8134 8129 8132 8135 8138 8140 8141 8136 8141 8140 8147 8142 8143 8150 8154 8154 8155 8156 8162 8192 8241 8258 8270 8270 8244 8260 8256 8268 8276 8277 8278 8278 8276 8276 8275 8276 8276 8277 8277 8276 8279 8278 8276 8281 8279 8275 8273 
8254 8261 8258 8259 8255 8256 8256 8255 8258 8259 8260 8258 8258 8260 8256 8257 8254 8257 8255 8250 8251 8250 8246 8246 8243 8238 8233 8194 8155 8146 8146 8144 8139 8147 8130 8131 8134 8136 8134 8137 8133 8140 8155 8144 8139 8140 8148 8156 8158 8152 8161 8162 8197 8216 8233 8203 8181 8217 8261 8258 8274 8282 8281 8275 8276 8277 8274 8278 8279 8274 8280 8276 8278 8279 8282 8276 8280 8280 8273 8274 
8255 8262 8261 8259 8256 8256 8256 8258 8263 8260 8260 8259 8259 8258 8257 8255 8257 8256 8253 8252 8252 8250 8244 8248 8243 8241 8240 8186 8144 8148 8148 8160 8166 8168 8158 8147 8141 8141 8144 8136 8131 8168 8168 8162 8143 8134 8168 8172 8159 8143 8139 8148 8169 8158 8165 8164 8173 8230 8250 8265 8281 8278 8277 8277 8277 8277 8277 8279 8275 8277 8278 8276 8280 8275 8279 8278 8276 8277 8270 8273 
8257 8262 8259 8260 8259 8258 8258 8254 8261 8260 8260 8261 8257 8263 8257 8258 8256 8254 8255 8252 8255 8249 8248 8248 8246 8244 8231 8160 8137 8148 8153 8170 8172 8183 8199 8193 8180 8176 8184 8171 8142 8175 8162 8158 8138 8136 8172 8158 8146 8146 8144 8146 8150 8146 8180 8185 8170 8175 8213 8273 8283 8280 8277 8275 8279 8280 8279 8279 8278 8276 8278 8277 8278 8276 8278 8276 8278 8279 8272 8278 
8258 8260 8264 8263 8261 8260 8260 8259 8260 8261 8260 8263 8262 8261 8258 8254 8253 8256 8257 8255 8256 8258 8253 8254 8254 8246 8201 8140 8138 8151 8169 8187 8184 8188 8195 8190 8183 8190 8206 8200 8187 8183 8155 8147 8141 8142 8152 8153 8145 8136 8147 8153 8145 8140 8176 8217 8203 8184 8197 8267 8281 8279 8276 8276 8277 8277 8277 8277 8276 8275 8276 8275 8279 8275 8275 8274 8276 8277 8272 8279 
8255 8265 8261 8260 8259 8263 8258 8259 8260 8261 8257 8259 8262 8260 8260 8258 8259 8260 8258 8259 8258 8262 8265 8268 8263 8256 8176 8137 8141 8158 8187 8200 8197 8199 8195 8188 8186 8197 8205 8202 8200 8194 8182 8192 8181 8146 8148 8148 8139 8138 8185 8199 8151 8145 8149 8152 8159 8194 8238 8273 8280 8278 8277 8278 8273 8274 8277 8274 8276 8276 8276 8275 8276 8279 8274 8273 8275 8278 8270 8271 
8257 8260 8259 8263 8260 8261 8259 8258 8263 8262 8262 8259 8259 8263 8258 8259 8259 8260 8258 8259 8263 8273 8273 8273 8268 8264 8192 8143 8154 8211 8208 8201 8212 8202 8198 8192 8191 8194 8194 8198 8205 8211 8217 8229 8214 8169 8152 8168 8140 8141 8162 8167 8149 8157 8152 8149 8155 8208 8270 8279 8281 8275 8278 8269 8273 8276 8272 8273 8277 8272 8273 8276 8273 8276 8273 8271 8272 8275 8268 8267 
8255 8261 8260 8260 8264 8262 8262 8260 8264 8258 8263 8265 8264 8261 8259 8258 8259 8260 8264 8265 8267 8274 8272 8273 8274 8271 8252 8196 8233 8255 8235 8212 8205 8209 8206 8189 8185 8182 8182 8199 8205 8200 8211 8211 8197 8180 8184 8190 8149 8145 8177 8200 8158 8199 8187 8160 8160 8212 8268 8277 8278 8274 8271 8268 8272 8272 8271 8271 8272 8269 8267 8272 8269 8270 8268 8263 8271 8266 8262 8265 
8255 8261 8261 8257 8264 8259 8259 8258 8260 8259 8263 8265 8260 8264 8263 8258 8258 8262 8263 8264 8268 8272 8270 8274 8271 8268 8270 8270 8272 8272 8256 8235 8218 8206 8216 8212 8193 8183 8180 8195 8196 8204 8218 8212 8194 8193 8207 8186 8147 8153 8218 8229 8162 8209 8240 8226 8174 8178 8236 8267 8269 8265 8266 8264 8263 8263 8264 8263 8263 8259 8258 8260 8260 8260 8261 8257 8259 8259 8252 8257 
8259 8261 8258 8262 8262 8263 8257 8259 8263 8259 8261 8261 8260 8261 8262 8259 8261 8262 8260 8262 8262 8264 8263 8265 8265 8264 8263 8270 8268 8267 8265 8250 8237 8225 8212 8211 8225 8231 8216 8204 8198 8198 8211 8215 8203 8198 8207 8174 8151 8184 8235 8220 8174 8226 8255 8255 8233 8196 8217 8257 8263 8257 8261 8257 8254 8256 8255 8256 8251 8249 8254 8256 8252 8254 8253 8253 8252 8250 8248 8256 
8252 8260 8263 8259 8261 8264 8258 8259 8262 8261 8265 8262 8262 8262 8263 8262 8260 8260 8261 8260 8261 8257 8256 8257 8256 8255 8258 8260 8262 8262 8259 8258 8254 8233 8231 8222 8221 8235 8245 8250 8236 8222 8214 8214 8213 8209 8211 8177 8173 8210 8220 8194 8181 8243 8252 8255 8255 8253 8252 8257 8260 8256 8256 8249 8249 8248 8248 8250 8250 8249 8251 8253 8252 8252 8252 8248 8253 8249 8247 8248 
8252 8260 8263 8262 8260 8263 8257 8261 8262 8259 8263 8260 8263 8263 8262 8261 8262 8259 8259 8259 8254 8257 8254 8254 8254 8250 8255 8259 8259 8259 8258 8255 8261 8253 8244 8233 8231 8233 8237 8237 8234 8225 8224 8221 8217 8209 8212 8204 8217 8235 8235 8187 8210 8249 8250 8254 8256 8255 8259 8258 8253 8251 8249 8247 8248 8247 8246 8249 8248 8246 8248 8248 8247 8248 8251 8247 8246 8246 8240 8249 
8252 8261 8262 8263 8262 8262 8260 8260 8262 8260 8261 8262 8263 8264 8262 8259 8259 8256 8262 8259 8259 8254 8252 8252 8250 8248 8252 8255 8256 8259 8256 8258 8258 8255 8253 8250 8247 8243 8238 8241 8239 8240 8238 8238 8234 8234 8236 8245 8246 8253 8234 8196 8241 8253 8253 8252 8252 8254 8255 8256 8254 8249 8253 8246 8246 8248 8245 8248 8246 8244 8245 8247 8248 8247 8248 8246 8247 8245 8240 8242 
8255 8263 8262 8265 8259 8261 8259 8259 8260 8259 8261 8261 8261 8260 8262 8261 8260 8257 8259 8258 8254 8253 8253 8254 8250 8245 8250 8253 8256 8257 8253 8255 8260 8254 8257 8256 8254 8250 8243 8245 8246 8246 8244 8244 8245 8243 8246 8253 8253 8255 8237 8225 8252 8254 8252 8250 8254 8251 8254 8256 8253 8251 8248 8246 8245 8246 8246 8246 8243 8242 8243 8246 8248 8247 8243 8240 8246 8245 8236 8237 
8254 8264 8266 8264 8257 8259 8256 8257 8260 8258 8257 8262 8260 8262 8262 8258 8256 8257 8255 8257 8256 8254 8248 8248 8249 8247 8249 8254 8253 8256 8255 8255 8255 8252 8259 8258 8256 8253 8249 8249 8248 8249 8243 8247 8248 8249 8248 8255 8255 8259 8255 8256 8256 8257 8252 8255 8255 8254 8254 8258 8251 8248 8246 8246 8248 8247 8243 8249 8246 8242 8246 8244 8243 8241 8246 8242 8245 8243 8236 8236 
8256 8260 8260 8258 8255 8255 8257 8258 8259 8254 8255 8258 8259 8257 8258 8257 8255 8254 8257 8254 8254 8251 8245 8246 8245 8243 8252 8253 8257 8255 8252 8255 8259 8256 8256 8255 8255 8255 8249 8255 8255 8253 8251 8249 8251 8250 8251 8258 8258 8260 8259 8262 8258 8256 8256 8249 8254 8255 8255 8256 8251 8248 8251 8249 8246 8249 8247 8248 8248 8243 8247 8246 8242 8244 8241 8240 8239 8243 8234 8237 
8252 8253 8252 8254 8259 8253 8252 8254 8258 8257 8255 8254 8256 8260 8257 8257 8257 8253 8257 8253 8255 8255 8244 8247 8248 8249 8254 8254 8255 8256 8253 8256 8257 8255 8259 8257 8257 8256 8256 8256 8254 8257 8251 8250 8249 8254 8257 8260 8260 8260 8262 8260 8260 8262 8254 8255 8258 8257 8255 8259 8256 8252 8253 8250 8251 8250 8251 8254 8251 8249 8249 8245 8246 8244 8240 8240 8242 8245 8238 8239 
8253 8247 8251 8251 8253 8253 8250 8249 8257 8252 8246 8251 8256 8254 8260 8256 8251 8249 8249 8253 8254 8255 8248 8250 8249 8249 8254 8257 8256 8251 8254 8254 8257 8256 8259 8257 8257 8261 8257 8257 8257 8261 8254 8252 8254 8255 8252 8256 8258 8261 8262 8262 8266 8262 8264 8260 8263 8266 8262 8262 8262 8256 8257 8250 8254 8256 8257 8260 8262 8256 8255 8256 8254 8253 8249 8244 8247 8248 8245 8243 


