P2
80 60
8305
8214 8221 8219 8218 8225 8224 8220 8221 8226 8221 8223 8220 8223 8221 8222 8222 8222 8221 8220 8222 8218 8221 8221 8220 8221 8222 8229 8231 8231 8223 8226 8226 8226 8220 8224 8224 8224 8228 8223 8229 8230 8229 8231 8227 8228 8229 8225 8227 8224 8226 8218 8219 8215 8218 8220 8215 8218 8219 8223 8220 8223 8225 8223 8224 8225 8225 8230 8227 8233 8231 8228 8233 8230 8230 8233 8233 8232 8238 8230 8230 
8219 8219 8222 8221 8223 8222 8223 8221 8224 8223 8223 8220 8219 8221 8221 8219 8220 8223 8223 8221 8221 8219 8221 8217 8222 8223 8226 8228 8230 8225 8226 8225 8225 8224 8225 8225 8222 8224 8225 8228 8228 8229 8229 8227 8229 8227 8222 8226 8224 8223 8221 8220 8212 8216 8218 8217 8216 8220 8219 8220 8222 8224 8223 8226 8225 8228 8228 8227 8232 8235 8230 8232 8228 8233 8235 8235 8236 8237 8230 8232 
8214 8219 8220 8218 8220 8226 8222 8221 8224 8222 8226 8220 8223 8220 8221 8222 8222 8225 8223 8221 8221 8216 8223 8222 8222 8220 8227 8228 8234 8223 8223 8222 8225 8222 8225 8225 8228 8225 8225 8231 8233 8229 8230 8224 8229 8225 8223 8224 8225 8225 8220 8219 8214 8216 8222 8219 8223 8219 8222 8221 8224 8223 8227 8231 8227 8231 8229 8231 8230 8229 8233 8233 8234 8233 8231 8230 8229 8236 8233 8232 
8219 8221 8221 8220 8221 8226 8222 8221 8220 8221 8224 8217 8223 8222 8221 8221 8220 8227 8223 8218 8217 8219 8222 8219 8221 8220 8225 8228 8231 8224 8222 8220 8223 8220 8223 8228 8226 8222 8225 8230 8229 8228 8230 8224 8222 8223 8221 8224 8221 8223 8223 8220 8215 8220 8221 8217 8219 8220 8218 8222 8225 8224 8226 8232 8228 8228 8230 8230 8230 8232 8231 8234 8233 8232 8233 8230 8233 8231 8234 8235 
8217 8223 8223 8221 8222 8222 8224 8221 8219 8219 8219 8216 8222 8217 8220 8217 8221 8222 8219 8218 8218 8218 8218 8218 8221 8220 8225 8226 8229 8225 8224 8224 8221 8220 8223 8226 8223 8221 8224 8229 8228 8226 8228 8224 8225 8224 8223 8221 8222 8220 8220 8217 8215 8216 8220 8216 8219 8220 8220 8223 8225 8225 8226 8226 8228 8233 8230 8230 8232 8231 8230 8234 8229 8229 8229 8231 8228 8231 8226 8230 
8220 8221 8224 8221 8222 8222 8222 8222 8218 8219 8219 8221 8217 8217 8218 8220 8218 8221 8219 8218 8218 8218 8215 8215 8220 8221 8222 8225 8228 8224 8221 8224 8221 8218 8220 8224 8221 8221 8224 8227 8228 8227 8227 8223 8224 8224 8222 8222 8220 8216 8218 8218 8212 8217 8219 8219 8220 8218 8220 8222 8224 8223 8225 8228 8224 8226 8230 8228 8229 8231 8229 8232 8228 8228 8228 8229 8232 8231 8226 8230 
8219 8220 8225 8223 8223 8222 8221 8220 8219 8218 8216 8215 8219 8216 8218 8218 8216 8221 8218 8217 8218 8217 8219 8215 8218 8221 8223 8225 8227 8225 8228 8222 8221 8217 8218 8223 8220 8221 8222 8223 8226 8226 8227 8222 8221 8223 8220 8221 8220 8220 8217 8217 8212 8216 8219 8217 8219 8220 8219 8222 8220 8226 8221 8224 8223 8228 8228 8226 8229 8226 8228 8233 8228 8229 8229 8230 8231 8231 8226 8229 
8215 8220 8228 8221 8224 8222 8224 8222 8220 8215 8216 8217 8217 8220 8216 8218 8216 8220 8216 8220 8217 8214 8222 8218 8221 8218 8224 8223 8227 8224 8223 8224 8223 8221 8219 8226 8222 8220 8224 8224 8226 8224 8225 8224 8222 8222 8220 8218 8220 8217 8217 8216 8213 8217 8216 8217 8218 8217 8216 8220 8218 8219 8218 8224 8219 8222 8224 8224 8225 8228 8226 8231 8225 8226 8229 8231 8230 8229 8226 8229 
8218 8221 8228 8221 8222 8226 8227 8224 8217 8216 8215 8214 8220 8219 8217 8214 8216 8216 8216 8217 8218 8219 8218 8219 8219 8220 8224 8223 8229 8219 8221 8221 8220 8219 8220 8222 8221 8221 8224 8226 8225 8224 8223 8223 8221 8224 8220 8220 8221 8218 8220 8216 8215 8215 8215 8217 8220 8219 8217 8218 8220 8220 8218 8220 8220 8218 8223 8227 8223 8225 8228 8228 8227 8225 8227 8227 8229 8231 8227 8227 
8216 8217 8220 8224 8223 8224 8223 8219 8218 8219 8218 8219 8222 8219 8217 8216 8216 8219 8218 8216 8218 8217 8217 8218 8218 8220 8223 8224 8226 8221 8217 8218 8220 8218 8221 8223 8221 8221 8225 8223 8227 8224 8224 8224 8225 8225 8221 8222 8220 8220 8218 8216 8213 8214 8214 8213 8218 8218 8219 8216 8221 8220 8220 8217 8218 8223 8221 8223 8224 8227 8225 8226 8224 8227 8225 8225 8226 8230 8228 8232 
8218 8222 8224 8221 8224 8222 8217 8220 8219 8220 8220 8216 8219 8215 8217 8218 8217 8216 8218 8216 8217 8218 8221 8215 8217 8218 8225 8223 8227 8220 8219 8217 8219 8217 8219 8220 8219 8221 8221 8224 8221 8224 8225 8224 8224 8225 8222 8221 8219 8221 8217 8215 8213 8215 8220 8214 8216 8215 8217 8220 8218 8219 8217 8220 8219 8220 8222 8221 8220 8223 8222 8224 8224 8226 8224 8226 8226 8227 8221 8222 
8217 8221 8224 8221 8220 8223 8218 8221 8220 8219 8218 8217 8217 8216 8216 8216 8214 8215 8214 8218 8218 8216 8217 8216 8215 8216 8223 8225 8226 8221 8220 8220 8218 8215 8216 8219 8217 8217 8222 8222 8220 8224 8226 8223 8223 8223 8220 8219 8219 8219 8216 8215 8211 8215 8218 8216 8217 8216 8217 8217 8221 8217 8218 8219 8218 8218 8222 8218 8223 8221 8220 8225 8222 8222 8223 8225 8224 8225 8218 8224 
8218 8221 8225 8226 8220 8222 8221 8218 8224 8219 8221 8219 8217 8214 8217 8218 8216 8220 8219 8216 8221 8216 8219 8216 8217 8215 8222 8224 8226 8222 8219 8217 8216 8216 8215 8218 8220 8219 8218 8223 8223 8221 8226 8224 8221 8225 8219 8219 8218 8218 8217 8214 8214 8216 8217 8217 8215 8218 8216 8220 8217 8218 8217 8223 8217 8216 8221 8218 8222 8222 8221 8221 8221 8222 8225 8226 8226 8226 8223 8226 
8218 8223 8225 8224 8224 8222 8218 8219 8220 8221 8221 8218 8218 8218 8219 8221 8221 8221 8221 8218 8219 8216 8219 8213 8216 8217 8222 8219 8227 8219 8218 8219 8215 8215 8215 8217 8215 8216 8219 8218 8220 8222 8224 8220 8221 8223 8218 8218 8218 8218 8216 8219 8214 8215 8217 8216 8219 8215 8216 8217 8219 8217 8217 8220 8217 8213 8221 8220 8222 8220 8221 8223 8219 8220 8224 8229 8224 8228 8222 8229 
8221 8220 8224 8227 8224 8223 8220 8220 8218 8221 8220 8218 8219 8219 8221 8222 8221 8219 8221 8219 8218 8216 8216 8215 8215 8215 8223 8224 8224 8219 8218 8218 8219 8212 8214 8215 8213 8216 8216 8217 8222 8220 8222 8218 8221 8222 8218 8220 8219 8216 8216 8215 8212 8213 8217 8214 8216 8219 8216 8219 8215 8218 8216 8219 8216 8218 8222 8217 8221 8220 8223 8224 8222 8223 8223 8227 8227 8227 8221 8225 
8221 8221 8225 8224 8226 8224 8222 8224 8222 8219 8221 8219 8220 8221 8221 8224 8223 8223 8223 8222 8218 8217 8214 8213 8218 8218 8224 8224 8225 8218 8215 8216 8216 8214 8215 8216 8219 8217 8214 8219 8219 8219 8223 8221 8217 8219 8218 8220 8219 8218 8219 8216 8215 8215 8215 8216 8219 8217 8217 8215 8218 8218 8218 8219 8214 8215 8219 8217 8221 8220 8220 8225 8221 8219 8221 8225 8223 8224 8221 8226 
8215 8220 8223 8223 8221 8221 8221 8221 8221 8217 8221 8220 8223 8222 8223 8225 8225 8224 8221 8217 8215 8217 8215 8213 8217 8219 8222 8224 8225 8218 8216 8219 8215 8213 8217 8218 8217 8215 8215 8221 8216 8216 8216 8219 8219 8219 8218 8218 8217 8216 8217 8216 8212 8217 8216 8216 8216 8218 8215 8216 8218 8216 8214 8218 8216 8217 8218 8216 8220 8221 8220 8222 8218 8220 8220 8223 8223 8223 8221 8225 
8219 8220 8218 8223 8222 8221 8222 8219 8221 8221 8220 8221 8220 8222 8222 8225 8225 8221 8223 8219 8218 8217 8214 8215 8216 8219 8223 8223 8228 8220 8219 8220 8219 8215 8218 8219 8221 8216 8216 8217 8199 8185 8183 8185 8206 8216 8214 8214 8212 8214 8214 8210 8213 8215 8218 8215 8217 8216 8216 8215 8214 8216 8214 8217 8219 8220 8218 8217 8216 8222 8220 8222 8221 8219 8221 8221 8219 8222 8216 8218 
8220 8217 8219 8218 8221 8222 8223 8219 8221 8221 8223 8222 8221 8224 8222 8227 8226 8223 8221 8217 8217 8216 8216 8214 8217 8216 8220 8223 8227 8219 8220 8221 8216 8213 8217 8219 8218 8215 8212 8200 8181 8175 8173 8173 8179 8204 8211 8206 8196 8198 8202 8200 8200 8208 8211 8216 8214 8217 8216 8217 8217 8219 8218 8217 8217 8218 8220 8216 8219 8221 8220 8219 8222 8222 8222 8223 8219 8222 8220 8222 
8220 8220 8222 8219 8224 8221 8220 8219 8222 8221 8221 8222 8226 8222 8224 8226 8222 8220 8220 8218 8219 8216 8216 8214 8218 8218 8223 8224 8226 8223 8220 8218 8219 8217 8214 8217 8215 8207 8186 8179 8178 8177 8174 8170 8173 8182 8192 8192 8182 8179 8180 8181 8177 8186 8192 8206 8211 8215 8217 8214 8215 8219 8215 8214 8214 8217 8219 8218 8221 8223 8218 8221 8218 8222 8223 8222 8219 8221 8218 8221 
8217 8222 8221 8219 8220 8222 8220 8221 8221 8223 8218 8222 8223 8220 8221 8220 8222 8219 8220 8218 8220 8217 8219 8217 8220 8218 8223 8223 8226 8221 8222 8219 8220 8219 8220 8222 8216 8205 8187 8183 8179 8181 8177 8172 8176 8174 8178 8190 8181 8190 8207 8208 8203 8208 8201 8199 8213 8215 8214 8215 8218 8216 8217 8217 8217 8216 8222 8221 8220 8223 8221 8224 8218 8218 8222 8220 8220 8218 8216 8220 
8218 8224 8227 8223 8223 8221 8222 8220 8221 8222 8224 8222 8221 8221 8222 8222 8219 8217 8220 8215 8220 8220 8217 8221 8221 8219 8224 8227 8229 8221 8219 8220 8222 8221 8220 8221 8222 8218 8214 8201 8192 8189 8185 8183 8177 8172 8173 8181 8201 8206 8211 8212 8209 8213 8213 8214 8216 8217 8215 8215 8218 8215 8215 8217 8216 8218 8218 8218 8219 8222 8221 8222 8219 8221 8219 8221 8222 8222 8217 8218 
8220 8228 8226 8223 8224 8223 8219 8218 8222 8221 8224 8222 8221 8221 8220 8222 8219 8220 8222 8217 8218 8217 8218 8219 8219 8219 8223 8227 8229 8223 8223 8220 8221 8218 8220 8223 8220 8218 8215 8217 8214 8210 8194 8191 8181 8178 8176 8186 8198 8192 8198 8208 8209 8212 8214 8215 8219 8216 8217 8218 8218 8218 8213 8216 8217 8220 8220 8219 8223 8221 8219 8218 8221 8219 8219 8224 8221 8222 8222 8220 
8221 8225 8226 8225 8222 8222 8217 8217 8220 8220 8223 8218 8223 8220 8220 8218 8218 8216 8217 8217 8221 8219 8216 8217 8219 8218 8221 8225 8226 8219 8219 8221 8219 8220 8218 8223 8218 8219 8214 8216 8217 8213 8192 8174 8173 8178 8174 8184 8206 8205 8195 8191 8206 8209 8215 8215 8215 8217 8217 8214 8215 8215 8215 8219 8216 8219 8218 8220 8220 8219 8215 8216 8219 8219 8217 8218 8217 8223 8218 8223 
8220 8221 8226 8218 8224 8221 8217 8215 8220 8220 8220 8220 8219 8221 8221 8218 8219 8216 8219 8216 8218 8220 8218 8217 8219 8219 8223 8225 8228 8223 8220 8220 8221 8216 8216 8215 8204 8195 8189 8193 8189 8187 8191 8179 8174 8180 8180 8189 8188 8208 8210 8201 8210 8211 8214 8214 8215 8216 8216 8217 8216 8216 8219 8218 8215 8219 8219 8218 8220 8220 8217 8218 8221 8221 8217 8218 8218 8219 8215 8225 
8215 8223 8224 8223 8223 8221 8219 8216 8218 8220 8220 8222 8221 8219 8221 8222 8219 8220 8221 8219 8221 8219 8217 8216 8218 8218 8222 8225 8228 8221 8220 8219 8224 8217 8207 8182 8182 8185 8207 8215 8215 8196 8197 8185 8189 8182 8194 8204 8184 8198 8211 8213 8211 8214 8215 8211 8216 8218 8217 8218 8218 8215 8214 8214 8215 8217 8218 8219 8218 8218 8215 8218 8221 8216 8219 8220 8223 8220 8219 8222 
8218 8219 8227 8224 8223 8221 8220 8218 8218 8221 8223 8222 8221 8222 8219 8218 8221 8221 8220 8217 8220 8221 8220 8216 8217 8219 8224 8227 8227 8221 8221 8221 8221 8214 8192 8204 8214 8216 8218 8217 8220 8210 8206 8197 8192 8192 8205 8213 8209 8201 8212 8212 8211 8211 8217 8214 8216 8218 8217 8218 8220 8217 8214 8217 8216 8218 8217 8217 8218 8217 8217 8219 8217 8220 8217 8219 8222 8224 8219 8221 
8218 8222 8223 8221 8221 8224 8219 8222 8222 8222 8221 8220 8222 8222 8221 8222 8222 8223 8219 8219 8220 8217 8217 8215 8218 8220 8225 8226 8225 8221 8221 8221 8220 8218 8218 8220 8220 8217 8217 8217 8221 8219 8220 8205 8187 8189 8206 8214 8215 8212 8213 8214 8213 8214 8218 8215 8217 8218 8217 8216 8218 8217 8216 8217 8217 8217 8218 8216 8216 8216 8216 8220 8216 8216 8217 8220 8216 8223 8219 8221 
8222 8222 8223 8221 8224 8224 8223 8221 8222 8223 8226 8224 8224 8223 8222 8223 8221 8222 8222 8218 8218 8219 8219 8217 8219 8218 8225 8227 8229 8222 8221 8223 8220 8219 8221 8221 8219 8219 8217 8220 8220 8221 8216 8212 8191 8186 8204 8211 8214 8214 8215 8216 8213 8215 8217 8215 8219 8219 8219 8218 8220 8218 8220 8219 8217 8216 8218 8215 8217 8217 8218 8221 8218 8217 8217 8219 8221 8222 8219 8221 
8216 8224 8227 8225 8225 8226 8222 8222 8224 8224 8226 8223 8222 8221 8222 8223 8219 8221 8221 8219 8216 8218 8218 8216 8220 8220 8218 8219 8218 8220 8224 8223 8219 8220 8218 8223 8219 8218 8218 8221 8220 8210 8194 8189 8188 8182 8177 8189 8206 8214 8215 8215 8214 8216 8219 8216 8219 8218 8217 8218 8220 8216 8218 8217 8218 8216 8219 8217 8216 8217 8217 8220 8217 8219 8216 8218 8220 8220 8223 8223 
8222 8223 8224 8223 8226 8225 8226 8220 8222 8223 8224 8221 8221 8221 8223 8224 8219 8224 8221 8216 8217 8218 8216 8219 8219 8217 8200 8193 8199 8217 8220 8220 8220 8219 8219 8219 8222 8217 8219 8216 8201 8184 8186 8188 8184 8182 8177 8178 8180 8195 8211 8213 8215 8216 8219 8216 8217 8217 8219 8217 8219 8217 8218 8217 8218 8216 8217 8214 8216 8215 8216 8218 8219 8220 8220 8218 8223 8223 8217 8224 
8220 8224 8225 8223 8227 8226 8222 8222 8225 8225 8222 8221 8221 8221 8223 8220 8221 8219 8221 8220 8217 8218 8220 8217 8224 8217 8196 8194 8197 8214 8221 8221 8220 8219 8220 8222 8221 8218 8215 8198 8183 8178 8184 8190 8189 8183 8179 8177 8188 8189 8185 8204 8215 8214 8217 8218 8218 8218 8216 8220 8218 8217 8218 8215 8218 8218 8218 8213 8216 8215 8219 8215 8219 8218 8220 8222 8221 8220 8217 8220 
8224 8226 8225 8224 8230 8229 8224 8226 8226 8224 8222 8223 8222 8221 8222 8221 8222 8222 8223 8220 8220 8220 8221 8217 8223 8219 8200 8193 8195 8213 8218 8222 8221 8219 8220 8220 8219 8207 8197 8197 8179 8180 8181 8179 8187 8192 8185 8182 8182 8207 8205 8186 8203 8215 8219 8217 8217 8218 8219 8219 8217 8219 8218 8217 8217 8217 8218 8213 8219 8217 8217 8220 8218 8219 8218 8222 8220 8225 8221 8221 
8223 8228 8228 8228 8228 8227 8224 8227 8224 8223 8221 8222 8225 8220 8220 8222 8219 8222 8222 8220 8219 8219 8222 8219 8223 8219 8199 8195 8195 8213 8219 8221 8221 8219 8220 8223 8212 8209 8200 8180 8177 8179 8182 8179 8183 8206 8213 8200 8185 8202 8216 8209 8194 8213 8218 8217 8218 8219 8218 8216 8219 8217 8218 8220 8216 8214 8218 8215 8218 8218 8217 8221 8221 8219 8220 8220 8221 8220 8222 8219 
8228 8229 8229 8230 8228 8224 8226 8225 8228 8223 8223 8224 8225 8221 8222 8223 8222 8220 8225 8220 8222 8221 8221 8219 8220 8219 8201 8198 8197 8211 8219 8222 8223 8218 8222 8221 8213 8193 8178 8174 8175 8177 8182 8182 8190 8210 8217 8220 8210 8205 8215 8213 8210 8212 8218 8218 8217 8219 8217 8218 8219 8219 8218 8217 8216 8218 8219 8217 8217 8218 8217 8219 8221 8219 8223 8220 8222 8222 8216 8218 
8226 8228 8231 8227 8229 8229 8230 8230 8225 8228 8227 8223 8224 8222 8222 8226 8218 8223 8223 8221 8222 8220 8222 8219 8221 8219 8200 8195 8197 8213 8220 8226 8222 8221 8218 8200 8177 8168 8171 8173 8178 8177 8180 8179 8186 8213 8220 8219 8221 8217 8217 8215 8215 8217 8220 8216 8217 8217 8216 8219 8219 8217 8217 8219 8217 8217 8218 8217 8218 8219 8217 8218 8219 8220 8223 8220 8222 8221 8218 8220 
8229 8232 8229 8230 8230 8231 8230 8228 8225 8225 8225 8227 8224 8221 8221 8220 8218 8223 8223 8220 8221 8220 8222 8220 8224 8223 8203 8195 8195 8210 8220 8221 8221 8219 8203 8176 8170 8166 8170 8173 8177 8174 8185 8193 8187 8215 8218 8219 8218 8222 8219 8218 8216 8216 8218 8218 8215 8219 8216 8214 8218 8216 8218 8220 8217 8219 8220 8216 8219 8218 8216 8216 8221 8220 8223 8220 8221 8221 8218 8215 
8228 8232 8232 8230 8234 8230 8229 8228 8232 8228 8226 8225 8223 8224 8222 8223 8220 8222 8223 8220 8223 8219 8220 8219 8221 8219 8202 8193 8197 8207 8217 8222 8220 8216 8186 8183 8169 8165 8167 8171 8173 8177 8192 8207 8193 8220 8218 8220 8220 8218 8217 8217 8218 8216 8220 8220 8221 8220 8220 8218 8217 8220 8217 8220 8218 8217 8220 8219 8219 8219 8217 8220 8220 8221 8223 8223 8222 8220 8220 8220 
8232 8233 8234 8231 8237 8231 8230 8231 8231 8229 8227 8228 8224 8220 8221 8223 8219 8221 8221 8222 8221 8221 8223 8223 8220 8221 8201 8194 8197 8212 8222 8220 8213 8203 8177 8169 8167 8170 8168 8172 8176 8195 8194 8206 8193 8220 8217 8213 8208 8214 8216 8218 8218 8217 8221 8217 8218 8221 8221 8217 8219 8219 8219 8220 8216 8216 8220 8219 8218 8219 8217 8220 8220 8219 8219 8222 8222 8224 8218 8220 
8226 8230 8235 8232 8235 8231 8231 8234 8229 8229 8228 8225 8227 8220 8224 8224 8222 8218 8222 8221 8221 8222 8224 8222 8222 8219 8204 8193 8198 8208 8222 8215 8188 8195 8190 8171 8178 8181 8170 8168 8178 8188 8184 8184 8192 8221 8214 8189 8184 8189 8202 8211 8214 8216 8220 8218 8223 8220 8220 8221 8219 8220 8218 8220 8218 8218 8221 8218 8220 8218 8218 8218 8221 8218 8224 8225 8226 8227 8216 8218 
8229 8232 8232 8232 8232 8234 8232 8231 8227 8225 8226 8225 8222 8224 8224 8223 8222 8219 8220 8218 8222 8221 8221 8220 8221 8221 8203 8195 8198 8206 8220 8202 8211 8204 8182 8175 8178 8174 8172 8181 8180 8176 8183 8198 8188 8209 8197 8183 8181 8180 8182 8185 8193 8209 8219 8217 8223 8220 8222 8222 8220 8220 8221 8220 8217 8219 8220 8216 8218 8217 8219 8222 8220 8219 8219 8224 8225 8226 8217 8219 
8231 8230 8233 8232 8230 8232 8230 8230 8228 8227 8228 8224 8224 8222 8224 8221 8219 8220 8220 8219 8221 8220 8221 8220 8223 8221 8207 8196 8196 8206 8216 8215 8218 8213 8195 8186 8185 8187 8177 8177 8174 8174 8178 8185 8185 8207 8214 8189 8180 8181 8180 8179 8178 8189 8197 8215 8219 8221 8221 8220 8222 8221 8219 8223 8222 8218 8221 8217 8221 8220 8220 8223 8220 8219 8222 8224 8222 8225 8222 8220 
8230 8232 8233 8230 8230 8231 8228 8230 8227 8228 8226 8225 8224 8225 8225 8222 8221 8222 8224 8221 8219 8221 8222 8220 8223 8221 8205 8196 8196 8207 8220 8222 8221 8215 8195 8210 8213 8192 8173 8173 8171 8171 8175 8175 8185 8220 8219 8213 8204 8196 8180 8180 8193 8195 8188 8196 8218 8221 8221 8222 8219 8220 8222 8221 8221 8222 8219 8219 8220 8221 8219 8221 8221 8224 8220 8224 8220 8223 8222 8223 
8232 8231 8233 8230 8231 8227 8229 8225 8226 8228 8226 8225 8223 8225 8223 8226 8224 8219 8222 8221 8222 8220 8221 8219 8223 8225 8209 8198 8196 8201 8222 8224 8220 8213 8218 8219 8208 8187 8171 8172 8185 8181 8175 8175 8188 8221 8222 8224 8220 8213 8209 8214 8214 8212 8190 8186 8212 8219 8219 8224 8223 8222 8219 8221 8220 8221 8222 8219 8220 8221 8222 8222 8225 8222 8224 8225 8221 8223 8220 8221 
8232 8233 8228 8229 8230 8228 8229 8228 8228 8227 8225 8226 8227 8226 8225 8227 8223 8222 8224 8223 8223 8220 8220 8218 8221 8224 8212 8194 8196 8203 8220 8218 8221 8216 8215 8215 8213 8210 8179 8176 8185 8194 8178 8175 8197 8219 8222 8222 8221 8222 8217 8218 8217 8218 8207 8186 8199 8220 8220 8224 8221 8223 8221 8225 8221 8222 8222 8221 8219 8222 8223 8224 8221 8223 8225 8225 8224 8223 8217 8227 
8231 8233 8232 8230 8231 8228 8229 8229 8229 8229 8227 8229 8228 8228 8227 8228 8228 8225 8226 8222 8223 8219 8222 8220 8221 8225 8212 8197 8198 8201 8215 8207 8205 8199 8196 8189 8180 8193 8194 8176 8175 8179 8181 8181 8184 8189 8204 8217 8222 8221 8222 8218 8216 8219 8220 8203 8197 8215 8220 8223 8220 8220 8222 8225 8220 8222 8223 8222 8222 8224 8224 8224 8226 8224 8228 8225 8222 8223 8217 8230 
8231 8233 8234 8232 8231 8227 8234 8232 8229 8229 8227 8228 8227 8226 8231 8230 8227 8223 8224 8221 8223 8222 8225 8220 8225 8224 8214 8198 8200 8194 8185 8183 8183 8183 8187 8185 8173 8175 8187 8174 8174 8181 8185 8181 8181 8184 8185 8205 8215 8214 8218 8214 8213 8219 8222 8218 8204 8217 8221 8223 8223 8225 8223 8224 8222 8223 8222 8222 8226 8224 8225 8229 8227 8225 8226 8225 8227 8223 8215 8224 
8231 8232 8234 8232 8233 8232 8231 8230 8231 8231 8232 8231 8229 8230 8233 8230 8229 8226 8225 8222 8222 8224 8225 8225 8224 8217 8209 8196 8198 8189 8183 8185 8183 8192 8194 8196 8178 8174 8185 8180 8181 8184 8183 8183 8185 8182 8183 8195 8200 8201 8198 8199 8204 8210 8218 8218 8209 8219 8222 8222 8225 8221 8222 8225 8225 8222 8225 8222 8225 8225 8225 8228 8228 8225 8226 8227 8226 8226 8221 8223 
8229 8232 8231 8230 8233 8230 8232 8233 8230 8233 8232 8231 8232 8229 8230 8230 8229 8228 8227 8225 8228 8223 8225 8222 8209 8200 8201 8201 8200 8187 8181 8192 8196 8195 8198 8200 8191 8178 8179 8180 8183 8185 8185 8185 8186 8184 8182 8187 8197 8194 8196 8196 8193 8199 8203 8207 8216 8224 8222 8221 8223 8221 8222 8222 8223 8221 8223 8227 8226 8228 8227 8232 8226 8226 8226 8228 8224 8224 8220 8220 
8229 8232 8234 8234 8232 8233 8233 8236 8236 8233 8235 8231 8233 8234 8232 8230 8230 8229 8229 8226 8228 8225 8227 8221 8209 8202 8201 8199 8200 8188 8183 8191 8199 8197 8196 8197 8190 8188 8182 8182 8184 8183 8184 8182 8184 8186 8183 8184 8189 8190 8189 8188 8191 8195 8199 8213 8222 8223 8221 8221 8222 8220 8221 8223 8220 8220 8223 8225 8227 8228 8229 8228 8227 8227 8228 8228 8223 8223 8215 8220 
8230 8233 8234 8232 8234 8234 8232 8235 8235 8234 8233 8233 8233 8231 8233 8233 8231 8232 8229 8228 8231 8228 8228 8226 8219 8206 8205 8201 8203 8190 8192 8190 8194 8193 8194 8191 8185 8186 8182 8186 8185 8182 8184 8182 8185 8188 8186 8181 8186 8188 8190 8191 8195 8203 8212 8226 8221 8221 8219 8223 8222 8219 8217 8221 8219 8222 8222 8224 8227 8232 8229 8229 8229 8228 8229 8226 8225 8222 8216 8223 
8235 8236 8241 8231 8236 8235 8233 8237 8234 8232 8235 8232 8236 8233 8235 8232 8230 8231 8231 8229 8226 8225 8230 8227 8221 8211 8208 8206 8207 8202 8204 8201 8202 8200 8198 8198 8199 8195 8191 8199 8203 8212 8221 8221 8228 8234 8229 8213 8210 8212 8215 8218 8216 8217 8218 8223 8222 8226 8220 8219 8219 8220 8217 8222 8222 8224 8223 8223 8227 8231 8228 8230 8229 8231 8226 8226 8224 8220 8216 8220 
8233 8234 8236 8231 8235 8237 8234 8234 8233 8235 8235 8234 8236 8237 8232 8233 8229 8229 8230 8230 8227 8227 8229 8227 8224 8209 8208 8208 8214 8203 8204 8209 8209 8206 8209 8211 8209 8212 8215 8224 8241 8273 8296 8304 8305 8302 8271 8237 8228 8222 8226 8230 8227 8222 8225 8225 8224 8219 8222 8223 8223 8220 8219 8219 8220 8224 8224 8224 8224 8226 8225 8227 8231 8227 8227 8225 8223 8223 8216 8220 
8237 8237 8241 8234 8234 8236 8238 8237 8234 8237 8237 8237 8237 8234 8234 8234 8233 8231 8232 8233 8230 8229 8230 8227 8228 8216 8209 8212 8212 8206 8206 8209 8211 8210 8212 8216 8216 8219 8220 8229 8238 8260 8290 8298 8298 8287 8255 8234 8227 8222 8231 8242 8245 8246 8237 8227 8224 8219 8220 8222 8223 8219 8221 8221 8223 8222 8225 8228 8225 8228 8227 8230 8230 8226 8227 8225 8221 8223 8215 8220 
8237 8240 8239 8235 8236 8237 8235 8238 8236 8238 8239 8239 8237 8234 8235 8235 8232 8235 8233 8230 8235 8226 8227 8229 8229 8227 8214 8208 8215 8207 8207 8210 8215 8216 8225 8227 8231 8232 8232 8234 8238 8248 8265 8268 8270 8258 8239 8232 8224 8227 8230 8248 8264 8240 8227 8219 8223 8220 8218 8221 8220 8222 8219 8219 8224 8221 8222 8222 8224 8227 8230 8236 8228 8225 8228 8225 8223 8220 8217 8218 
8239 8247 8240 8234 8239 8240 8236 8238 8237 8243 8239 8239 8237 8240 8235 8231 8229 8230 8230 8232 8232 8229 8231 8226 8227 8225 8214 8205 8209 8203 8202 8206 8210 8218 8241 8260 8264 8268 8263 8257 8254 8257 8260 8260 8256 8244 8225 8218 8214 8214 8229 8263 8265 8228 8223 8223 8223 8223 8222 8221 8219 8221 8221 8223 8221 8222 8226 8224 8225 8231 8228 8231 8229 8229 8225 8228 8222 8222 8217 8222 
8242 8244 8243 8239 8239 8237 8238 8237 8244 8240 8239 8238 8236 8235 8232 8232 8228 8228 8230 8227 8230 8230 8232 8229 8230 8226 8213 8204 8208 8200 8202 8202 8206 8206 8217 8238 8266 8281 8283 8271 8262 8253 8248 8230 8220 8215 8205 8204 8205 8206 8217 8258 8262 8221 8225 8221 8224 8221 8221 8220 8221 8222 8220 8226 8223 8222 8225 8224 8228 8230 8230 8228 8228 8224 8229 8224 8219 8220 8219 8227 
8243 8244 8237 8236 8231 8236 8237 8236 8234 8238 8237 8236 8234 8235 8231 8231 8229 8229 8229 8228 8230 8230 8229 8229 8228 8224 8216 8202 8204 8199 8199 8199 8202 8201 8206 8216 8235 8257 8259 8263 8263 8261 8251 8231 8215 8207 8199 8197 8201 8203 8213 8248 8247 8221 8222 8222 8225 8221 8219 8220 8222 8220 8218 8223 8227 8225 8228 8228 8227 8229 8228 8228 8226 8229 8224 8223 8218 8219 8215 8224 
8244 8242 8237 8234 8235 8237 8232 8236 8236 8235 8235 8234 8232 8231 8231 8231 8229 8223 8228 8227 8228 8226 8229 8227 8227 8229 8217 8200 8200 8193 8195 8194 8197 8195 8199 8202 8207 8217 8223 8225 8229 8234 8230 8221 8207 8204 8196 8198 8198 8201 8209 8236 8231 8217 8225 8225 8228 8227 8221 8223 8222 8220 8219 8223 8227 8231 8228 8229 8231 8230 8228 8231 8226 8228 8228 8223 8221 8221 8211 8215 
8246 8234 8236 8234 8237 8235 8236 8238 8234 8231 8236 8233 8230 8233 8231 8224 8225 8223 8223 8224 8228 8224 8226 8223 8228 8223 8221 8207 8199 8196 8195 8199 8201 8199 8198 8201 8203 8204 8202 8203 8210 8207 8211 8209 8208 8205 8200 8200 8202 8203 8209 8224 8216 8222 8231 8228 8231 8223 8226 8223 8225 8226 8225 8226 8229 8226 8230 8227 8229 8232 8228 8232 8226 8226 8228 8226 8221 8218 8215 8223 


