P2
80 60
8209
8161 8157 8161 8159 8165 8166 8168 8171 8168 8171 8166 8169 8167 8170 8169 8172 8171 8175 8173 8173 8173 8171 8176 8174 8176 8177 8182 8181 8180 8178 8180 8181 8182 8182 8182 8181 8180 8178 8182 8179 8179 8179 8179 8178 8178 8174 8178 8177 8177 8181 8180 8173 8175 8177 8173 8173 8172 8171 8172 8173 8173 8174 8177 8176 8179 8180 8178 8181 8185 8181 8182 8180 8180 8182 8184 8180 8182 8180 8177 8177 
8162 8161 8159 8162 8168 8168 8169 8170 8169 8168 8170 8165 8169 8169 8172 8169 8172 8176 8174 8171 8174 8173 8176 8176 8177 8181 8183 8178 8179 8178 8180 8182 8181 8181 8181 8181 8183 8182 8180 8181 8183 8183 8178 8180 8177 8177 8175 8179 8180 8180 8178 8175 8173 8173 8174 8173 8173 8175 8171 8172 8177 8175 8178 8177 8181 8186 8180 8179 8181 8183 8183 8181 8183 8185 8182 8183 8180 8179 8176 8175 
8165 8161 8158 8164 8168 8166 8166 8170 8168 8166 8170 8167 8169 8169 8167 8167 8171 8174 8174 8170 8171 8173 8174 8179 8177 8179 8181 8181 8179 8178 8181 8181 8182 8183 8180 8178 8182 8183 8180 8180 8183 8183 8181 8176 8179 8178 8174 8179 8178 8181 8178 8174 8173 8171 8173 8174 8173 8171 8175 8175 8177 8179 8180 8180 8183 8185 8185 8184 8183 8182 8185 8183 8180 8182 8182 8182 8182 8181 8176 8175 
8166 8162 8159 8164 8171 8163 8166 8169 8169 8165 8166 8165 8167 8170 8168 8170 8173 8178 8173 8172 8173 8173 8178 8175 8175 8178 8181 8178 8181 8180 8182 8182 8181 8183 8180 8179 8181 8180 8180 8180 8181 8181 8178 8177 8175 8174 8173 8180 8178 8176 8178 8177 8174 8174 8176 8173 8174 8175 8175 8177 8174 8176 8177 8178 8182 8183 8183 8185 8184 8181 8182 8183 8183 8180 8181 8180 8184 8182 8178 8172 
8165 8164 8164 8165 8171 8168 8170 8172 8168 8164 8169 8165 8165 8165 8171 8168 8173 8173 8175 8174 8173 8173 8177 8176 8176 8181 8181 8174 8178 8176 8179 8181 8180 8183 8182 8179 8181 8181 8177 8182 8181 8182 8180 8178 8175 8175 8175 8176 8177 8177 8177 8177 8174 8172 8174 8172 8178 8176 8175 8176 8176 8176 8179 8180 8180 8183 8184 8183 8183 8180 8183 8182 8181 8180 8183 8179 8183 8184 8180 8180 
8167 8165 8168 8166 8168 8166 8171 8168 8168 8170 8166 8166 8166 8169 8169 8168 8171 8174 8174 8172 8174 8175 8175 8176 8175 8177 8182 8178 8178 8176 8180 8181 8180 8181 8181 8178 8181 8181 8178 8182 8179 8183 8179 8178 8180 8176 8176 8179 8177 8175 8174 8175 8176 8176 8177 8176 8176 8176 8178 8174 8178 8179 8179 8181 8179 8181 8180 8183 8185 8182 8186 8182 8182 8182 8182 8184 8182 8185 8179 8180 
8163 8162 8165 8165 8168 8168 8173 8171 8166 8167 8168 8166 8164 8170 8169 8168 8171 8171 8171 8170 8171 8173 8174 8174 8175 8180 8177 8177 8179 8177 8181 8180 8180 8182 8181 8179 8178 8180 8180 8176 8180 8178 8177 8175 8175 8178 8175 8177 8178 8178 8173 8175 8175 8176 8174 8172 8175 8175 8174 8175 8176 8180 8178 8177 8175 8178 8179 8180 8181 8179 8185 8182 8181 8181 8180 8184 8180 8182 8176 8174 
8167 8166 8163 8166 8171 8171 8174 8171 8167 8165 8166 8166 8165 8167 8166 8166 8170 8173 8174 8171 8173 8175 8174 8174 8178 8178 8179 8179 8178 8179 8179 8180 8182 8182 8183 8178 8181 8182 8179 8178 8180 8178 8176 8177 8176 8175 8175 8175 8176 8176 8175 8172 8174 8173 8174 8174 8176 8173 8175 8177 8175 8178 8178 8178 8175 8176 8176 8178 8178 8178 8180 8179 8179 8180 8180 8180 8179 8180 8174 8177 
8166 8165 8166 8168 8166 8170 8172 8169 8169 8168 8165 8167 8169 8170 8170 8169 8170 8174 8174 8173 8171 8172 8174 8175 8175 8177 8180 8178 8177 8176 8181 8182 8182 8179 8183 8179 8180 8180 8179 8179 8179 8179 8178 8177 8178 8174 8176 8176 8175 8176 8172 8174 8173 8173 8176 8175 8175 8175 8173 8176 8174 8177 8176 8175 8176 8178 8175 8178 8176 8176 8180 8176 8180 8179 8179 8181 8180 8182 8176 8178 
8165 8164 8165 8169 8170 8168 8169 8171 8173 8170 8166 8166 8168 8169 8166 8170 8171 8176 8178 8173 8172 8175 8176 8176 8177 8182 8182 8177 8177 8178 8182 8180 8180 8180 8179 8178 8180 8176 8177 8179 8180 8182 8178 8175 8178 8176 8176 8175 8178 8177 8178 8173 8174 8175 8174 8175 8173 8174 8174 8174 8175 8177 8180 8175 8176 8177 8176 8175 8177 8180 8174 8180 8178 8179 8179 8179 8180 8182 8181 8174 
8171 8166 8168 8168 8171 8171 8170 8170 8170 8171 8169 8167 8171 8169 8167 8167 8173 8175 8176 8171 8173 8173 8176 8178 8178 8181 8182 8179 8179 8179 8179 8179 8178 8179 8181 8179 8176 8180 8179 8179 8176 8180 8180 8174 8180 8176 8175 8177 8178 8178 8178 8174 8176 8177 8177 8174 8174 8175 8176 8174 8173 8176 8178 8176 8173 8177 8176 8174 8176 8177 8177 8176 8177 8177 8176 8178 8179 8180 8182 8176 
8167 8167 8167 8167 8171 8170 8173 8171 8169 8168 8166 8167 8167 8167 8169 8166 8171 8174 8174 8173 8173 8174 8174 8175 8178 8180 8181 8177 8175 8178 8181 8177 8180 8180 8178 8175 8176 8179 8177 8178 8177 8179 8178 8175 8178 8176 8175 8176 8176 8178 8175 8179 8175 8178 8176 8176 8176 8173 8174 8174 8175 8179 8176 8173 8172 8175 8174 8174 8175 8178 8174 8175 8177 8173 8178 8180 8180 8178 8178 8177 
8169 8169 8170 8169 8171 8170 8173 8171 8169 8172 8171 8169 8170 8169 8168 8170 8173 8177 8176 8174 8172 8175 8177 8177 8176 8180 8179 8177 8175 8179 8180 8176 8179 8179 8178 8175 8178 8176 8176 8177 8178 8180 8178 8179 8175 8176 8174 8178 8178 8177 8176 8174 8175 8179 8178 8176 8177 8175 8175 8175 8178 8175 8177 8175 8170 8174 8176 8175 8172 8173 8176 8174 8173 8174 8175 8180 8178 8182 8181 8177 
8170 8168 8171 8173 8172 8172 8173 8170 8171 8171 8171 8170 8170 8169 8171 8172 8174 8174 8177 8176 8173 8175 8177 8176 8175 8178 8182 8177 8177 8177 8180 8175 8177 8177 8176 8174 8169 8178 8175 8177 8177 8181 8182 8176 8177 8177 8176 8176 8176 8177 8177 8175 8172 8176 8179 8174 8174 8173 8175 8174 8174 8177 8177 8175 8172 8174 8173 8173 8175 8174 8175 8176 8173 8174 8174 8176 8180 8177 8174 8177 
8170 8169 8170 8170 8174 8170 8171 8171 8170 8171 8172 8173 8170 8171 8170 8171 8176 8177 8176 8176 8174 8172 8175 8174 8176 8179 8179 8176 8174 8178 8178 8177 8177 8179 8181 8174 8176 8177 8174 8175 8176 8183 8178 8175 8176 8175 8175 8175 8176 8178 8177 8174 8173 8175 8178 8176 8176 8174 8178 8173 8174 8176 8177 8173 8173 8173 8176 8172 8171 8174 8174 8174 8172 8175 8176 8179 8174 8178 8174 8172 
8168 8167 8170 8173 8172 8171 8174 8174 8170 8172 8170 8171 8169 8173 8175 8173 8175 8180 8180 8171 8175 8172 8175 8174 8175 8179 8181 8177 8179 8176 8178 8178 8179 8180 8181 8178 8177 8177 8176 8175 8177 8180 8178 8176 8177 8178 8175 8175 8176 8176 8179 8174 8174 8179 8175 8176 8177 8174 8176 8175 8175 8175 8175 8174 8175 8173 8175 8175 8173 8172 8175 8174 8173 8176 8175 8176 8175 8179 8174 8170 
8169 8167 8168 8171 8174 8167 8173 8172 8172 8173 8172 8171 8175 8175 8173 8176 8178 8180 8178 8176 8174 8173 8174 8177 8176 8180 8181 8178 8175 8176 8179 8178 8178 8182 8181 8180 8180 8175 8175 8177 8175 8180 8178 8179 8177 8175 8176 8173 8179 8178 8178 8177 8174 8178 8176 8172 8176 8176 8178 8171 8174 8174 8177 8173 8172 8175 8173 8173 8174 8174 8173 8172 8174 8174 8174 8173 8175 8177 8171 8171 
8168 8167 8166 8168 8174 8168 8173 8170 8175 8171 8172 8173 8172 8174 8177 8173 8178 8181 8178 8174 8173 8174 8175 8177 8178 8183 8180 8178 8177 8178 8178 8177 8181 8178 8183 8179 8180 8179 8176 8176 8176 8179 8174 8177 8174 8175 8176 8176 8177 8179 8176 8174 8174 8175 8173 8176 8176 8176 8175 8171 8173 8171 8173 8171 8171 8173 8176 8173 8174 8171 8174 8175 8172 8174 8178 8176 8175 8175 8170 8165 
8167 8166 8167 8168 8171 8170 8174 8173 8173 8172 8173 8171 8173 8175 8175 8175 8182 8177 8178 8172 8175 8175 8178 8178 8176 8182 8182 8179 8179 8181 8181 8180 8176 8181 8177 8180 8178 8177 8176 8176 8179 8179 8178 8176 8175 8174 8175 8175 8180 8175 8177 8176 8176 8176 8175 8174 8174 8174 8173 8173 8175 8174 8172 8173 8172 8175 8176 8174 8174 8172 8174 8173 8172 8173 8173 8175 8175 8176 8168 8164 
8170 8166 8168 8167 8172 8168 8174 8172 8174 8173 8173 8172 8174 8176 8176 8175 8176 8177 8177 8174 8172 8179 8177 8180 8176 8181 8184 8180 8181 8178 8179 8180 8181 8178 8178 8178 8181 8178 8174 8176 8178 8179 8175 8175 8173 8178 8174 8176 8175 8177 8177 8176 8173 8179 8177 8172 8175 8174 8173 8174 8172 8176 8174 8174 8174 8174 8176 8175 8173 8172 8173 8173 8174 8174 8174 8172 8174 8174 8169 8171 
8176 8169 8171 8167 8172 8170 8174 8170 8173 8173 8175 8172 8172 8174 8176 8173 8179 8176 8176 8172 8176 8175 8182 8179 8179 8180 8185 8183 8182 8178 8180 8180 8182 8181 8181 8181 8182 8178 8174 8175 8178 8176 8175 8173 8173 8173 8173 8177 8176 8176 8177 8174 8173 8175 8177 8173 8177 8173 8175 8176 8175 8177 8173 8173 8174 8176 8172 8175 8176 8174 8173 8175 8175 8175 8173 8174 8174 8173 8167 8172 
8176 8170 8168 8171 8173 8170 8173 8173 8175 8174 8176 8172 8171 8174 8175 8173 8176 8175 8175 8173 8174 8179 8180 8181 8178 8183 8182 8178 8181 8181 8180 8181 8182 8182 8181 8180 8180 8179 8176 8175 8175 8177 8175 8176 8176 8173 8172 8174 8176 8175 8177 8172 8175 8177 8176 8172 8177 8174 8176 8172 8176 8176 8177 8173 8173 8177 8174 8173 8176 8171 8173 8175 8174 8174 8174 8176 8175 8179 8173 8170 
8174 8170 8169 8170 8173 8171 8171 8169 8173 8172 8173 8171 8173 8174 8174 8175 8178 8178 8177 8177 8175 8179 8180 8177 8180 8180 8181 8180 8182 8182 8178 8180 8182 8182 8183 8182 8181 8179 8177 8176 8176 8180 8175 8175 8178 8175 8174 8174 8180 8176 8172 8172 8174 8175 8175 8175 8178 8176 8175 8175 8178 8180 8177 8176 8174 8176 8176 8177 8176 8174 8174 8173 8172 8174 8174 8178 8177 8173 8173 8170 
8175 8171 8173 8170 8173 8174 8171 8169 8169 8175 8173 8173 8171 8174 8175 8173 8175 8175 8174 8173 8175 8174 8178 8182 8178 8180 8181 8180 8178 8179 8179 8179 8182 8182 8183 8181 8180 8181 8178 8177 8178 8178 8174 8175 8175 8173 8172 8176 8174 8177 8176 8174 8174 8172 8178 8176 8176 8175 8176 8174 8178 8177 8175 8173 8174 8178 8175 8175 8177 8174 8171 8172 8170 8176 8172 8172 8177 8176 8171 8173 
8174 8170 8173 8172 8174 8173 8173 8172 8172 8173 8173 8172 8171 8174 8176 8176 8176 8177 8175 8174 8173 8176 8178 8179 8177 8181 8182 8182 8178 8177 8177 8181 8182 8183 8181 8181 8180 8180 8176 8177 8176 8180 8172 8174 8173 8172 8172 8175 8175 8176 8176 8175 8172 8173 8176 8173 8178 8176 8175 8175 8175 8177 8172 8175 8175 8175 8174 8174 8175 8172 8174 8172 8171 8173 8173 8174 8175 8175 8170 8167 
8174 8173 8171 8170 8174 8172 8171 8172 8171 8172 8173 8175 8173 8174 8177 8174 8176 8178 8177 8176 8179 8176 8176 8177 8177 8182 8179 8179 8176 8176 8181 8181 8184 8183 8182 8180 8179 8177 8178 8178 8176 8177 8177 8173 8172 8172 8173 8172 8177 8176 8173 8170 8171 8174 8177 8175 8177 8177 8177 8176 8177 8175 8173 8173 8174 8176 8176 8173 8174 8171 8172 8171 8173 8175 8174 8176 8175 8174 8171 8173 
8172 8170 8170 8171 8176 8172 8170 8170 8171 8173 8177 8174 8177 8178 8178 8174 8177 8181 8177 8177 8178 8179 8178 8178 8178 8180 8180 8179 8178 8178 8179 8180 8181 8182 8182 8180 8178 8176 8177 8176 8175 8168 8164 8174 8172 8173 8171 8172 8171 8167 8171 8173 8172 8173 8175 8176 8178 8177 8177 8174 8176 8177 8177 8174 8173 8175 8175 8175 8174 8172 8173 8173 8173 8173 8174 8175 8178 8177 8173 8172 
8173 8174 8173 8170 8176 8171 8172 8171 8174 8175 8178 8176 8177 8181 8177 8175 8175 8179 8177 8176 8175 8176 8179 8176 8177 8180 8183 8180 8179 8179 8183 8179 8180 8182 8182 8180 8178 8178 8175 8172 8156 8143 8145 8167 8173 8175 8172 8167 8159 8143 8165 8175 8174 8175 8178 8177 8177 8179 8175 8175 8175 8178 8178 8174 8175 8176 8175 8175 8176 8170 8171 8172 8168 8177 8175 8174 8177 8176 8175 8171 
8172 8174 8171 8169 8175 8171 8174 8176 8174 8175 8177 8171 8173 8177 8178 8175 8176 8180 8176 8176 8175 8178 8177 8177 8177 8178 8181 8180 8181 8183 8184 8179 8179 8177 8175 8174 8169 8172 8174 8171 8157 8141 8139 8146 8152 8164 8165 8150 8141 8150 8172 8175 8174 8177 8180 8178 8180 8180 8178 8178 8176 8179 8179 8175 8177 8174 8173 8174 8173 8172 8173 8172 8172 8171 8174 8177 8178 8173 8174 8174 
8171 8174 8171 8174 8175 8174 8174 8176 8173 8178 8179 8173 8177 8175 8176 8176 8179 8179 8176 8178 8176 8180 8178 8181 8175 8170 8160 8169 8180 8178 8173 8163 8156 8157 8145 8148 8146 8148 8157 8158 8143 8149 8158 8167 8162 8171 8157 8152 8141 8161 8175 8176 8177 8179 8179 8177 8178 8176 8177 8177 8178 8178 8179 8179 8174 8175 8173 8175 8173 8173 8171 8171 8172 8173 8173 8179 8176 8174 8173 8173 
8173 8173 8172 8173 8175 8174 8174 8175 8176 8173 8171 8170 8173 8173 8177 8175 8178 8179 8175 8173 8176 8177 8177 8177 8176 8170 8163 8176 8182 8175 8166 8143 8140 8140 8138 8134 8147 8147 8159 8149 8154 8156 8145 8148 8159 8171 8167 8149 8137 8149 8175 8175 8175 8178 8180 8168 8167 8167 8172 8175 8177 8179 8175 8176 8174 8176 8173 8172 8173 8172 8172 8173 8170 8172 8176 8175 8176 8176 8172 8171 
8176 8176 8173 8174 8177 8174 8176 8175 8178 8176 8174 8173 8170 8176 8175 8175 8176 8176 8175 8173 8172 8169 8172 8172 8169 8172 8165 8174 8174 8164 8156 8142 8142 8136 8138 8135 8136 8147 8169 8147 8141 8157 8162 8140 8141 8165 8142 8140 8134 8148 8157 8166 8169 8176 8176 8165 8158 8153 8159 8175 8178 8178 8177 8178 8177 8176 8174 8175 8175 8171 8172 8173 8173 8173 8175 8176 8175 8176 8170 8176 
8177 8176 8173 8173 8179 8176 8177 8176 8176 8174 8174 8173 8175 8173 8174 8175 8178 8178 8169 8155 8165 8175 8180 8179 8176 8168 8152 8155 8167 8170 8145 8139 8137 8137 8134 8135 8135 8144 8144 8138 8142 8153 8168 8149 8141 8148 8137 8138 8140 8150 8142 8165 8170 8176 8176 8158 8156 8154 8166 8176 8179 8176 8176 8174 8175 8176 8176 8175 8172 8174 8176 8175 8172 8176 8174 8175 8175 8176 8171 8172 
8176 8176 8174 8174 8178 8177 8177 8178 8177 8177 8177 8174 8173 8176 8174 8174 8177 8174 8158 8168 8174 8178 8181 8178 8177 8160 8156 8170 8166 8160 8148 8141 8136 8137 8135 8134 8139 8140 8136 8136 8145 8147 8154 8151 8142 8137 8137 8136 8143 8141 8142 8152 8172 8176 8173 8156 8155 8149 8172 8174 8178 8176 8178 8175 8176 8177 8175 8176 8174 8174 8173 8172 8173 8175 8176 8177 8176 8176 8173 8169 
8179 8176 8177 8173 8179 8176 8178 8178 8177 8178 8178 8176 8176 8177 8173 8175 8178 8175 8169 8174 8175 8175 8180 8177 8178 8168 8173 8167 8162 8160 8141 8139 8143 8138 8141 8136 8134 8135 8135 8152 8148 8145 8147 8151 8138 8136 8134 8136 8136 8138 8144 8146 8172 8178 8168 8156 8154 8154 8174 8175 8177 8175 8177 8175 8178 8177 8176 8177 8175 8176 8171 8173 8174 8173 8179 8178 8178 8178 8175 8166 
8180 8179 8179 8176 8180 8180 8179 8178 8179 8181 8181 8176 8177 8178 8176 8176 8177 8180 8177 8178 8178 8178 8176 8164 8161 8169 8168 8146 8144 8153 8157 8147 8144 8139 8143 8136 8135 8141 8139 8157 8173 8161 8162 8152 8141 8135 8132 8136 8139 8137 8140 8151 8171 8173 8162 8155 8152 8161 8174 8178 8176 8179 8178 8178 8179 8177 8178 8177 8176 8175 8175 8175 8176 8177 8177 8178 8177 8177 8176 8170 
8185 8182 8182 8180 8180 8177 8178 8179 8177 8176 8178 8174 8174 8177 8176 8176 8175 8180 8178 8177 8178 8176 8162 8160 8170 8180 8180 8160 8147 8161 8159 8152 8146 8139 8143 8147 8137 8151 8150 8163 8168 8159 8154 8160 8163 8135 8135 8140 8139 8137 8144 8157 8173 8171 8157 8154 8150 8172 8174 8178 8177 8177 8178 8178 8177 8177 8174 8178 8174 8176 8174 8178 8177 8175 8176 8177 8178 8181 8176 8176 
8183 8181 8180 8179 8182 8179 8176 8179 8179 8177 8177 8176 8178 8178 8175 8177 8175 8178 8176 8177 8177 8171 8158 8177 8178 8181 8180 8173 8158 8154 8166 8150 8140 8146 8150 8150 8140 8145 8138 8137 8139 8142 8141 8158 8170 8145 8137 8146 8142 8140 8152 8172 8168 8165 8157 8158 8157 8174 8176 8175 8176 8179 8179 8180 8177 8176 8174 8175 8175 8174 8174 8174 8175 8177 8175 8179 8178 8181 8178 8175 
8183 8177 8181 8182 8184 8180 8181 8180 8179 8179 8180 8174 8176 8175 8177 8174 8175 8181 8176 8175 8175 8170 8176 8181 8179 8180 8171 8171 8161 8163 8165 8147 8141 8145 8145 8142 8145 8145 8139 8135 8139 8142 8139 8137 8157 8152 8154 8172 8165 8144 8168 8173 8171 8160 8156 8152 8165 8178 8179 8176 8177 8179 8178 8176 8174 8175 8176 8175 8176 8174 8177 8176 8173 8175 8174 8177 8178 8181 8175 8169 
8184 8182 8181 8179 8183 8182 8181 8182 8179 8179 8177 8175 8177 8177 8175 8177 8176 8175 8174 8176 8175 8178 8180 8177 8177 8177 8167 8177 8175 8162 8158 8152 8144 8142 8145 8144 8142 8137 8140 8139 8138 8138 8135 8134 8151 8158 8170 8179 8180 8152 8160 8173 8173 8156 8155 8154 8169 8178 8178 8177 8178 8180 8179 8178 8176 8175 8176 8175 8176 8175 8174 8176 8173 8174 8174 8177 8177 8180 8175 8170 
8183 8179 8178 8181 8180 8181 8180 8181 8181 8182 8176 8175 8175 8177 8180 8176 8176 8179 8176 8176 8175 8177 8177 8179 8179 8181 8183 8180 8169 8157 8157 8152 8141 8142 8152 8150 8142 8135 8136 8139 8143 8140 8137 8136 8143 8158 8165 8176 8181 8173 8156 8175 8170 8159 8161 8157 8179 8180 8182 8177 8177 8182 8179 8181 8179 8178 8176 8179 8176 8173 8176 8174 8175 8175 8175 8176 8176 8179 8175 8175 
8182 8180 8181 8180 8179 8180 8179 8180 8182 8176 8179 8178 8178 8177 8176 8179 8176 8176 8174 8173 8180 8178 8182 8179 8180 8180 8173 8166 8154 8169 8159 8144 8145 8147 8150 8150 8145 8140 8134 8139 8143 8143 8137 8139 8144 8166 8144 8157 8180 8181 8163 8172 8167 8159 8157 8162 8179 8177 8180 8178 8180 8179 8177 8179 8179 8177 8178 8176 8175 8175 8177 8176 8175 8177 8174 8178 8175 8177 8176 8173 
8183 8183 8179 8179 8178 8178 8179 8182 8177 8177 8179 8177 8177 8177 8178 8174 8179 8178 8176 8175 8178 8178 8181 8178 8178 8179 8157 8154 8152 8170 8155 8145 8148 8148 8147 8147 8147 8147 8137 8134 8140 8147 8139 8135 8146 8174 8157 8147 8179 8182 8176 8172 8161 8160 8157 8170 8179 8180 8180 8179 8178 8180 8181 8178 8180 8179 8178 8176 8177 8179 8177 8178 8175 8178 8179 8177 8177 8177 8178 8176 
8184 8184 8180 8181 8181 8178 8176 8177 8178 8176 8178 8178 8177 8178 8178 8177 8180 8180 8175 8177 8177 8178 8183 8179 8178 8174 8154 8150 8148 8150 8146 8148 8146 8146 8143 8148 8143 8148 8139 8137 8148 8141 8137 8141 8151 8176 8177 8148 8177 8181 8179 8171 8160 8157 8159 8175 8182 8180 8180 8181 8182 8181 8182 8180 8179 8181 8182 8177 8176 8177 8177 8179 8174 8177 8179 8176 8176 8176 8171 8172 
8182 8179 8182 8179 8180 8178 8180 8178 8176 8178 8177 8176 8178 8179 8178 8180 8177 8182 8178 8176 8179 8178 8181 8180 8177 8170 8155 8150 8150 8151 8153 8150 8148 8143 8143 8147 8148 8143 8142 8145 8152 8141 8142 8147 8156 8178 8178 8170 8179 8182 8180 8166 8159 8159 8164 8183 8181 8183 8184 8182 8180 8181 8180 8180 8178 8182 8181 8178 8179 8176 8177 8177 8178 8175 8175 8179 8173 8175 8171 8165 
8184 8183 8181 8178 8178 8177 8180 8180 8180 8176 8180 8177 8180 8181 8179 8181 8182 8182 8178 8179 8180 8180 8180 8181 8178 8162 8154 8150 8150 8165 8163 8155 8146 8143 8145 8147 8153 8146 8145 8143 8151 8150 8154 8167 8156 8174 8177 8181 8182 8182 8176 8162 8160 8158 8171 8180 8182 8183 8181 8179 8182 8183 8184 8179 8180 8181 8179 8180 8182 8178 8177 8177 8182 8180 8177 8178 8176 8177 8175 8171 
8183 8178 8179 8177 8181 8179 8181 8182 8180 8180 8178 8180 8179 8184 8183 8180 8181 8182 8181 8180 8180 8181 8182 8179 8179 8168 8154 8153 8155 8177 8179 8175 8157 8148 8149 8149 8150 8146 8144 8143 8145 8158 8164 8165 8161 8164 8169 8174 8178 8177 8174 8163 8167 8161 8180 8182 8181 8180 8182 8178 8177 8182 8180 8182 8179 8180 8181 8182 8181 8182 8180 8179 8182 8182 8179 8177 8178 8179 8171 8172 
8183 8180 8184 8182 8184 8183 8182 8185 8185 8182 8181 8179 8181 8183 8179 8179 8182 8182 8182 8180 8180 8181 8184 8181 8179 8176 8163 8151 8153 8190 8189 8171 8164 8152 8148 8149 8153 8149 8151 8151 8151 8156 8155 8162 8165 8166 8164 8165 8166 8173 8169 8166 8164 8169 8179 8183 8182 8183 8183 8181 8178 8181 8181 8180 8178 8181 8183 8183 8182 8182 8181 8180 8180 8181 8178 8180 8180 8178 8174 8174 
8183 8179 8181 8179 8183 8184 8181 8186 8184 8183 8183 8182 8179 8184 8181 8184 8182 8183 8184 8183 8186 8183 8179 8177 8172 8171 8174 8162 8154 8188 8170 8153 8157 8152 8150 8153 8151 8150 8151 8150 8157 8167 8160 8155 8166 8166 8166 8166 8171 8174 8171 8171 8174 8176 8182 8183 8181 8180 8182 8181 8179 8182 8179 8179 8179 8180 8181 8183 8183 8183 8182 8180 8179 8181 8181 8182 8178 8179 8173 8172 
8182 8181 8182 8179 8184 8184 8184 8186 8186 8187 8188 8185 8184 8185 8184 8186 8184 8187 8186 8185 8184 8180 8173 8179 8173 8173 8176 8176 8178 8193 8170 8156 8157 8156 8150 8155 8155 8154 8148 8153 8164 8167 8167 8157 8169 8168 8168 8173 8177 8179 8175 8174 8175 8180 8186 8184 8182 8182 8181 8178 8181 8179 8180 8179 8178 8179 8181 8184 8184 8181 8182 8181 8181 8186 8182 8181 8181 8179 8169 8170 
8180 8181 8183 8180 8184 8182 8184 8185 8186 8184 8185 8185 8188 8189 8186 8184 8188 8189 8184 8183 8185 8184 8171 8171 8174 8176 8176 8176 8177 8179 8171 8160 8158 8160 8160 8160 8159 8157 8155 8154 8158 8163 8165 8167 8171 8171 8170 8172 8180 8178 8181 8180 8180 8180 8186 8182 8182 8181 8180 8177 8179 8179 8178 8176 8178 8178 8180 8180 8183 8182 8182 8180 8179 8184 8181 8176 8178 8178 8172 8170 
8182 8183 8186 8180 8185 8184 8184 8186 8188 8187 8187 8183 8186 8188 8188 8188 8183 8188 8186 8184 8184 8186 8177 8166 8165 8173 8166 8168 8167 8167 8161 8167 8164 8165 8163 8156 8159 8161 8160 8162 8165 8171 8173 8184 8190 8190 8186 8183 8181 8182 8188 8192 8197 8185 8183 8180 8182 8179 8181 8176 8180 8178 8179 8178 8177 8180 8178 8181 8179 8183 8182 8184 8181 8181 8178 8182 8175 8175 8171 8165 
8184 8184 8188 8184 8186 8183 8187 8184 8188 8190 8188 8184 8184 8187 8190 8187 8186 8188 8189 8188 8187 8188 8182 8167 8166 8167 8171 8165 8168 8168 8167 8170 8170 8176 8172 8173 8171 8173 8174 8175 8181 8184 8189 8194 8200 8195 8188 8184 8182 8183 8190 8209 8208 8188 8182 8181 8183 8182 8181 8177 8178 8180 8180 8177 8177 8179 8179 8178 8182 8181 8182 8183 8180 8182 8178 8180 8177 8172 8169 8168 
8189 8183 8184 8179 8185 8186 8183 8184 8188 8192 8190 8188 8187 8188 8186 8187 8188 8190 8188 8186 8186 8187 8184 8169 8163 8166 8169 8169 8167 8168 8168 8168 8171 8177 8178 8178 8178 8175 8177 8176 8180 8183 8186 8188 8195 8189 8183 8182 8181 8188 8196 8198 8194 8185 8186 8181 8181 8181 8181 8178 8178 8177 8179 8177 8178 8178 8181 8181 8182 8180 8184 8183 8179 8181 8180 8180 8177 8173 8169 8170 
8187 8187 8185 8183 8183 8184 8187 8187 8189 8189 8191 8188 8186 8187 8184 8186 8188 8189 8188 8185 8187 8188 8185 8181 8168 8167 8167 8167 8166 8170 8169 8169 8177 8180 8181 8183 8183 8181 8184 8183 8184 8190 8187 8190 8190 8180 8176 8179 8178 8185 8190 8188 8187 8186 8185 8184 8182 8181 8179 8176 8175 8179 8177 8178 8176 8180 8180 8182 8182 8182 8183 8183 8179 8177 8178 8176 8175 8172 8170 8172 
8186 8185 8185 8185 8186 8182 8187 8186 8187 8190 8190 8187 8186 8188 8184 8187 8186 8188 8187 8188 8183 8187 8188 8184 8166 8162 8164 8166 8166 8167 8169 8171 8174 8179 8188 8186 8190 8193 8193 8194 8192 8194 8189 8184 8182 8174 8172 8174 8177 8183 8186 8185 8184 8186 8185 8182 8183 8181 8182 8175 8176 8179 8175 8178 8177 8178 8182 8179 8181 8182 8184 8181 8179 8177 8179 8177 8172 8171 8165 8167 
8188 8185 8185 8183 8187 8182 8186 8187 8188 8191 8188 8189 8187 8186 8185 8188 8185 8187 8185 8186 8185 8187 8188 8185 8165 8162 8162 8162 8164 8164 8167 8166 8173 8175 8181 8186 8196 8196 8198 8200 8195 8189 8182 8179 8174 8171 8171 8174 8174 8181 8185 8178 8185 8187 8185 8183 8184 8182 8180 8178 8178 8176 8175 8176 8180 8182 8181 8183 8182 8182 8184 8179 8180 8178 8179 8176 8171 8173 8169 8162 
8191 8186 8183 8185 8184 8182 8187 8190 8186 8188 8187 8183 8185 8184 8184 8182 8185 8187 8185 8187 8184 8184 8190 8186 8170 8163 8161 8160 8161 8162 8165 8166 8171 8174 8174 8176 8185 8187 8189 8191 8186 8181 8175 8176 8171 8170 8168 8168 8172 8180 8179 8178 8184 8189 8187 8185 8187 8182 8181 8179 8180 8178 8179 8179 8180 8181 8185 8183 8186 8183 8183 8181 8180 8178 8180 8176 8175 8174 8167 8169 
8191 8187 8184 8182 8185 8181 8183 8186 8185 8186 8186 8185 8183 8183 8184 8182 8184 8183 8183 8183 8184 8182 8188 8186 8170 8162 8160 8162 8158 8158 8166 8166 8169 8172 8173 8173 8174 8178 8176 8176 8176 8175 8173 8173 8171 8168 8169 8169 8170 8176 8176 8175 8186 8188 8187 8188 8186 8183 8185 8181 8180 8181 8177 8183 8182 8185 8188 8185 8185 8186 8183 8183 8181 8182 8179 8174 8176 8173 8167 8166 
8192 8180 8181 8180 8184 8177 8179 8181 8182 8180 8181 8181 8179 8180 8178 8182 8181 8183 8177 8176 8181 8181 8183 8182 8168 8160 8157 8158 8157 8162 8161 8164 8163 8169 8167 8165 8163 8157 8161 8162 8163 8166 8170 8168 8167 8165 8170 8169 8173 8172 8174 8178 8186 8192 8189 8189 8189 8187 8189 8184 8184 8185 8183 8188 8187 8189 8189 8188 8189 8190 8185 8187 8185 8183 8180 8181 8174 8177 8171 8163 


