P2
80 60
8329
8101 8106 8117 8127 8145 8172 8178 8182 8187 8192 8198 8212 8218 8222 8217 8238 8220 8211 8214 8208 8206 8201 8202 8207 8203 8207 8207 8207 8200 8194 8186 8171 8163 8152 8147 8149 8149 8155 8170 8178 8178 8171 8164 8145 8132 8133 8134 8151 8190 8215 8227 8217 8215 8220 8227 8231 8230 8232 8234 8231 8231 8231 8228 8228 8226 8228 8230 8234 8235 8235 8237 8240 8238 8240 8239 8235 8236 8241 8256 8250 
8097 8111 8120 8139 8174 8196 8204 8217 8220 8226 8225 8227 8229 8230 8233 8250 8235 8234 8227 8224 8220 8207 8206 8213 8209 8202 8206 8202 8192 8198 8194 8175 8160 8147 8145 8147 8147 8159 8179 8189 8191 8170 8156 8156 8148 8148 8144 8150 8197 8222 8229 8224 8223 8226 8228 8229 8228 8231 8235 8232 8229 8227 8222 8225 8224 8222 8223 8222 8228 8227 8228 8233 8234 8233 8233 8230 8231 8233 8252 8247 
8100 8116 8124 8157 8200 8218 8216 8224 8232 8233 8235 8240 8239 8237 8239 8242 8243 8238 8243 8243 8227 8221 8213 8214 8208 8203 8201 8195 8193 8206 8198 8178 8162 8158 8162 8166 8173 8191 8209 8212 8208 8202 8206 8217 8218 8219 8219 8222 8234 8244 8247 8239 8244 8241 8239 8241 8239 8243 8242 8241 8238 8231 8225 8226 8227 8227 8228 8228 8232 8227 8231 8231 8232 8228 8227 8229 8227 8230 8244 8247 
8111 8119 8134 8179 8214 8223 8220 8223 8240 8244 8249 8250 8247 8244 8240 8242 8236 8240 8245 8243 8238 8228 8216 8212 8204 8208 8205 8200 8202 8209 8202 8197 8197 8194 8192 8185 8183 8195 8212 8224 8233 8235 8238 8247 8245 8246 8243 8246 8250 8254 8259 8251 8253 8247 8247 8250 8248 8250 8250 8250 8247 8241 8232 8232 8234 8234 8232 8234 8236 8235 8233 8231 8233 8229 8228 8229 8227 8227 8235 8235 
8121 8140 8166 8211 8235 8238 8238 8241 8249 8254 8245 8251 8242 8237 8237 8230 8229 8226 8227 8223 8218 8210 8204 8204 8201 8203 8207 8207 8207 8187 8157 8189 8200 8187 8137 8111 8101 8110 8144 8190 8236 8245 8251 8257 8256 8249 8250 8253 8252 8258 8260 8254 8258 8254 8249 8253 8253 8256 8255 8259 8260 8253 8241 8238 8241 8239 8240 8240 8242 8239 8238 8238 8235 8234 8235 8232 8233 8233 8234 8235 
8138 8180 8212 8234 8244 8245 8230 8240 8238 8223 8214 8216 8206 8208 8206 8207 8205 8212 8210 8213 8207 8199 8198 8200 8200 8205 8203 8203 8202 8169 8110 8145 8197 8148 8104 8099 8108 8141 8188 8228 8246 8250 8257 8260 8255 8253 8254 8252 8252 8257 8261 8256 8254 8253 8249 8254 8253 8257 8260 8260 8258 8253 8246 8242 8242 8239 8241 8241 8243 8243 8244 8242 8243 8245 8243 8243 8243 8240 8235 8239 
8152 8204 8227 8232 8232 8217 8204 8205 8200 8202 8203 8200 8200 8203 8207 8208 8211 8212 8210 8208 8208 8205 8199 8202 8203 8203 8188 8165 8191 8164 8125 8128 8164 8155 8121 8154 8191 8223 8234 8238 8240 8249 8252 8255 8251 8249 8251 8249 8242 8245 8252 8251 8253 8250 8248 8251 8256 8256 8260 8262 8261 8253 8249 8245 8244 8240 8240 8241 8244 8240 8246 8245 8246 8244 8243 8243 8245 8241 8238 8236 
8175 8210 8225 8217 8204 8186 8171 8163 8185 8202 8202 8205 8200 8208 8211 8214 8217 8215 8216 8216 8212 8204 8204 8204 8198 8198 8155 8137 8173 8162 8129 8123 8116 8132 8135 8157 8196 8210 8178 8207 8231 8245 8245 8247 8243 8244 8245 8240 8182 8174 8209 8237 8248 8252 8248 8249 8252 8256 8262 8256 8259 8253 8246 8245 8245 8241 8242 8243 8241 8241 8242 8240 8244 8243 8244 8240 8245 8240 8237 8234 
8189 8214 8212 8190 8175 8161 8147 8153 8197 8200 8203 8205 8206 8215 8217 8215 8216 8219 8218 8220 8212 8203 8194 8191 8186 8172 8128 8137 8134 8127 8124 8124 8118 8119 8133 8130 8141 8190 8143 8128 8171 8210 8198 8210 8223 8232 8233 8231 8155 8138 8151 8182 8232 8247 8246 8247 8249 8257 8258 8256 8256 8253 8247 8247 8246 8245 8242 8242 8244 8241 8244 8242 8242 8240 8239 8239 8239 8240 8236 8232 
8201 8216 8193 8169 8154 8142 8137 8170 8201 8207 8207 8208 8213 8215 8216 8211 8214 8216 8214 8214 8205 8204 8176 8157 8133 8108 8112 8125 8149 8182 8182 8145 8120 8121 8126 8125 8124 8137 8116 8110 8116 8136 8133 8141 8155 8173 8190 8197 8140 8133 8137 8146 8187 8231 8245 8249 8249 8255 8259 8253 8252 8250 8247 8246 8245 8245 8241 8243 8242 8239 8240 8237 8239 8238 8237 8239 8237 8242 8236 8233 
8202 8202 8172 8156 8148 8139 8143 8194 8205 8208 8203 8211 8216 8215 8213 8214 8215 8218 8215 8216 8208 8201 8197 8197 8141 8086 8086 8098 8104 8173 8199 8175 8127 8133 8130 8125 8123 8126 8120 8140 8175 8162 8124 8131 8130 8135 8135 8139 8129 8128 8132 8132 8146 8187 8234 8247 8250 8255 8253 8251 8250 8247 8245 8244 8249 8247 8247 8243 8242 8239 8240 8239 8234 8233 8232 8235 8235 8236 8234 8233 
8215 8194 8161 8147 8147 8139 8171 8200 8208 8206 8206 8212 8210 8212 8214 8216 8216 8218 8218 8216 8208 8205 8203 8205 8178 8100 8088 8095 8110 8178 8154 8161 8135 8154 8189 8167 8141 8132 8158 8217 8225 8184 8123 8126 8124 8124 8125 8125 8126 8130 8131 8123 8135 8149 8193 8233 8244 8252 8256 8252 8250 8247 8244 8247 8248 8247 8246 8245 8248 8242 8239 8238 8234 8237 8233 8234 8239 8236 8236 8233 
8211 8182 8155 8148 8146 8152 8194 8207 8210 8206 8207 8211 8212 8213 8212 8215 8214 8220 8219 8216 8210 8204 8202 8208 8199 8171 8133 8134 8125 8156 8126 8125 8127 8176 8224 8224 8210 8159 8160 8219 8226 8180 8118 8125 8118 8112 8116 8125 8127 8126 8130 8130 8150 8138 8147 8193 8225 8243 8252 8249 8248 8248 8243 8244 8248 8245 8247 8247 8247 8245 8240 8236 8239 8235 8233 8236 8238 8240 8239 8235 
8203 8177 8155 8151 8153 8178 8203 8215 8212 8211 8209 8215 8212 8215 8216 8215 8215 8218 8219 8212 8204 8200 8200 8205 8201 8196 8155 8135 8142 8110 8109 8111 8159 8208 8224 8223 8196 8208 8221 8222 8226 8167 8171 8196 8155 8109 8100 8108 8128 8146 8144 8139 8183 8201 8180 8153 8162 8208 8237 8244 8245 8245 8240 8243 8244 8247 8243 8243 8245 8242 8241 8240 8239 8237 8234 8238 8239 8240 8240 8236 
8202 8184 8162 8157 8167 8199 8217 8220 8217 8212 8212 8213 8215 8213 8217 8215 8215 8214 8210 8206 8201 8198 8196 8201 8198 8147 8117 8118 8126 8090 8086 8103 8144 8193 8185 8171 8164 8217 8232 8225 8198 8198 8218 8187 8124 8104 8101 8097 8118 8192 8215 8214 8236 8237 8232 8214 8171 8166 8200 8235 8242 8237 8236 8239 8243 8239 8241 8239 8243 8238 8240 8242 8238 8238 8236 8236 8240 8242 8240 8233 
8208 8191 8177 8172 8188 8224 8227 8222 8219 8217 8213 8216 8214 8213 8219 8217 8215 8206 8173 8175 8199 8198 8196 8201 8193 8174 8122 8114 8102 8087 8084 8094 8112 8117 8113 8104 8120 8205 8223 8206 8187 8218 8187 8150 8156 8166 8162 8142 8117 8124 8198 8229 8236 8239 8234 8233 8230 8220 8209 8231 8240 8238 8236 8237 8239 8238 8237 8238 8239 8238 8241 8238 8241 8239 8240 8243 8244 8243 8238 8236 
8219 8206 8196 8186 8210 8234 8228 8225 8223 8222 8217 8215 8211 8214 8211 8211 8207 8192 8141 8163 8195 8194 8195 8198 8195 8148 8108 8104 8100 8086 8084 8101 8101 8097 8100 8091 8105 8129 8137 8122 8156 8181 8159 8211 8221 8223 8217 8218 8206 8141 8121 8197 8230 8233 8232 8232 8234 8240 8237 8239 8237 8234 8234 8236 8234 8234 8235 8236 8236 8237 8236 8239 8240 8242 8239 8242 8245 8239 8237 8231 
8249 8241 8220 8203 8224 8235 8231 8225 8222 8219 8214 8215 8209 8208 8206 8207 8196 8188 8139 8173 8195 8196 8197 8199 8167 8106 8105 8106 8103 8092 8084 8090 8079 8091 8089 8089 8076 8075 8080 8083 8099 8151 8208 8215 8218 8220 8218 8219 8216 8201 8138 8136 8212 8230 8228 8228 8232 8238 8240 8238 8238 8235 8234 8234 8236 8234 8233 8234 8239 8233 8236 8235 8238 8237 8235 8238 8239 8240 8235 8232 
8273 8264 8242 8225 8233 8237 8237 8227 8221 8218 8214 8215 8210 8210 8210 8205 8186 8166 8146 8176 8192 8193 8194 8194 8132 8102 8103 8098 8087 8082 8080 8077 8078 8089 8093 8079 8070 8074 8084 8099 8139 8201 8165 8126 8131 8154 8146 8150 8147 8151 8145 8123 8173 8221 8222 8224 8227 8232 8236 8238 8236 8234 8233 8236 8235 8233 8234 8231 8235 8234 8234 8233 8235 8234 8236 8239 8238 8235 8233 8233 
8288 8274 8260 8237 8236 8236 8231 8223 8220 8215 8213 8209 8208 8208 8208 8200 8172 8144 8145 8145 8158 8172 8176 8174 8109 8098 8094 8083 8074 8073 8079 8079 8079 8084 8097 8080 8073 8081 8076 8098 8185 8202 8123 8117 8112 8109 8112 8114 8110 8110 8112 8112 8127 8173 8204 8215 8214 8210 8223 8230 8234 8233 8231 8232 8235 8231 8232 8230 8235 8233 8228 8232 8230 8231 8237 8233 8239 8236 8232 8225 
8298 8298 8285 8237 8236 8229 8223 8218 8219 8214 8211 8210 8209 8209 8205 8196 8180 8142 8141 8140 8137 8164 8170 8154 8108 8118 8107 8091 8075 8071 8072 8072 8073 8080 8092 8083 8085 8088 8078 8078 8159 8166 8112 8115 8110 8112 8110 8111 8109 8109 8109 8110 8115 8114 8134 8173 8145 8153 8170 8209 8225 8230 8227 8226 8231 8232 8230 8227 8230 8227 8230 8230 8229 8232 8229 8232 8231 8234 8227 8225 
8319 8327 8271 8235 8230 8225 8220 8218 8216 8213 8210 8207 8209 8209 8202 8180 8129 8122 8145 8140 8134 8143 8167 8148 8143 8161 8128 8088 8072 8074 8074 8073 8078 8085 8095 8089 8093 8095 8143 8134 8106 8112 8114 8117 8112 8111 8106 8108 8107 8106 8109 8107 8111 8111 8106 8112 8124 8135 8149 8171 8208 8224 8224 8229 8228 8227 8228 8225 8229 8228 8226 8227 8229 8232 8228 8229 8232 8227 8226 8227 
8329 8311 8241 8232 8230 8222 8219 8215 8215 8210 8207 8211 8208 8207 8191 8129 8114 8129 8171 8153 8133 8118 8104 8118 8141 8094 8083 8078 8073 8076 8077 8090 8100 8096 8084 8081 8082 8082 8098 8123 8161 8133 8117 8114 8108 8106 8108 8109 8107 8106 8110 8109 8109 8105 8100 8099 8104 8131 8144 8156 8171 8204 8220 8222 8226 8226 8226 8227 8223 8225 8227 8230 8226 8226 8227 8226 8230 8227 8222 8219 
8320 8269 8233 8232 8227 8223 8220 8217 8215 8209 8208 8213 8209 8207 8156 8119 8123 8139 8180 8179 8134 8097 8094 8103 8121 8096 8083 8077 8075 8077 8084 8097 8110 8103 8080 8078 8079 8079 8080 8088 8147 8169 8189 8158 8118 8109 8110 8114 8111 8111 8108 8107 8107 8103 8097 8098 8102 8114 8138 8151 8160 8177 8211 8222 8223 8224 8224 8222 8224 8227 8226 8225 8224 8223 8221 8224 8228 8225 8218 8218 
8299 8244 8229 8227 8228 8225 8217 8216 8212 8208 8211 8211 8211 8199 8137 8125 8133 8138 8184 8181 8113 8096 8094 8105 8102 8100 8086 8084 8083 8094 8109 8105 8099 8085 8079 8080 8080 8088 8112 8111 8135 8165 8164 8163 8143 8114 8111 8112 8113 8111 8111 8103 8101 8092 8089 8096 8112 8126 8139 8150 8157 8162 8192 8218 8221 8221 8223 8224 8223 8224 8220 8223 8223 8221 8221 8223 8224 8220 8218 8217 
8258 8234 8227 8227 8230 8224 8221 8215 8215 8212 8213 8213 8208 8195 8136 8141 8159 8172 8189 8143 8104 8096 8099 8106 8103 8104 8089 8084 8086 8138 8189 8168 8125 8110 8095 8089 8086 8085 8088 8118 8127 8123 8125 8137 8135 8120 8121 8121 8123 8133 8123 8093 8090 8090 8088 8094 8106 8123 8138 8146 8155 8156 8174 8214 8220 8221 8222 8219 8219 8219 8219 8215 8218 8218 8222 8220 8224 8220 8218 8220 
8235 8229 8225 8224 8231 8223 8216 8218 8218 8215 8217 8214 8205 8189 8150 8181 8191 8192 8186 8124 8104 8098 8117 8101 8104 8114 8119 8079 8074 8104 8179 8124 8097 8109 8110 8101 8095 8088 8092 8100 8105 8104 8110 8112 8110 8110 8116 8122 8131 8130 8131 8111 8091 8089 8086 8094 8103 8113 8131 8140 8149 8151 8176 8214 8219 8216 8219 8216 8216 8216 8214 8218 8216 8216 8215 8219 8220 8222 8219 8215 
8233 8230 8227 8228 8227 8224 8218 8220 8218 8217 8221 8217 8206 8194 8185 8194 8193 8191 8174 8115 8106 8113 8133 8109 8111 8131 8125 8085 8074 8114 8149 8094 8083 8095 8124 8109 8104 8101 8102 8101 8105 8108 8110 8110 8106 8105 8109 8119 8125 8121 8119 8114 8112 8100 8091 8094 8098 8106 8118 8129 8141 8148 8183 8214 8221 8217 8217 8216 8216 8215 8212 8214 8215 8212 8215 8217 8217 8219 8213 8211 
8235 8232 8226 8225 8226 8223 8221 8220 8218 8215 8215 8211 8206 8200 8198 8196 8194 8195 8183 8130 8126 8165 8143 8123 8152 8139 8134 8110 8080 8142 8123 8093 8085 8086 8112 8109 8107 8105 8104 8101 8101 8108 8111 8113 8108 8106 8106 8105 8111 8110 8111 8106 8127 8144 8113 8101 8099 8106 8114 8124 8135 8155 8203 8215 8217 8212 8214 8212 8212 8212 8209 8210 8212 8210 8212 8214 8219 8217 8212 8211 
8229 8231 8227 8226 8226 8225 8220 8216 8216 8214 8216 8213 8203 8201 8201 8198 8198 8201 8198 8194 8193 8200 8195 8198 8186 8138 8139 8133 8105 8139 8136 8117 8089 8085 8092 8104 8108 8109 8111 8101 8100 8104 8104 8110 8107 8106 8104 8109 8111 8112 8110 8120 8154 8158 8151 8129 8106 8109 8117 8122 8138 8175 8207 8214 8216 8212 8210 8206 8211 8210 8210 8210 8212 8214 8211 8218 8215 8217 8210 8210 
8233 8233 8229 8227 8229 8223 8219 8219 8218 8213 8215 8211 8204 8203 8203 8203 8201 8205 8205 8207 8205 8206 8205 8201 8186 8176 8174 8129 8113 8110 8139 8140 8108 8087 8097 8106 8107 8106 8110 8099 8100 8099 8100 8102 8101 8101 8103 8110 8111 8107 8104 8111 8130 8156 8161 8160 8154 8123 8117 8122 8153 8191 8202 8209 8211 8209 8208 8208 8212 8208 8211 8209 8211 8210 8209 8212 8218 8216 8212 8208 
8232 8233 8233 8231 8229 8227 8222 8223 8222 8217 8215 8209 8204 8208 8208 8207 8205 8209 8210 8211 8211 8210 8201 8133 8101 8145 8177 8120 8109 8105 8113 8127 8137 8104 8105 8105 8105 8105 8107 8102 8098 8100 8103 8107 8103 8101 8103 8110 8112 8113 8106 8118 8128 8139 8156 8163 8168 8180 8132 8127 8163 8154 8159 8185 8202 8206 8206 8208 8207 8209 8206 8211 8210 8208 8210 8213 8217 8218 8215 8210 
8235 8237 8236 8230 8229 8227 8226 8228 8222 8220 8211 8213 8203 8207 8209 8208 8209 8207 8209 8218 8214 8208 8190 8091 8067 8075 8106 8104 8098 8102 8100 8096 8110 8106 8105 8105 8103 8108 8109 8104 8102 8098 8098 8103 8102 8101 8103 8105 8107 8111 8118 8122 8125 8122 8137 8161 8163 8165 8117 8117 8127 8126 8126 8138 8167 8196 8204 8206 8208 8208 8203 8207 8209 8210 8211 8214 8217 8214 8213 8211 
8234 8235 8235 8228 8231 8231 8232 8228 8225 8218 8212 8208 8201 8206 8209 8208 8203 8210 8212 8219 8215 8212 8183 8083 8068 8072 8078 8091 8091 8094 8083 8080 8087 8088 8104 8108 8108 8104 8107 8103 8103 8101 8098 8101 8098 8100 8103 8106 8108 8112 8119 8120 8120 8114 8125 8159 8152 8122 8120 8120 8118 8121 8125 8129 8136 8159 8195 8204 8206 8205 8209 8209 8208 8211 8209 8212 8217 8215 8212 8204 
8240 8235 8234 8234 8233 8236 8233 8229 8225 8216 8207 8207 8203 8205 8209 8207 8208 8212 8216 8219 8215 8207 8180 8088 8071 8077 8082 8094 8094 8086 8077 8080 8080 8081 8096 8111 8103 8100 8104 8106 8103 8100 8100 8102 8101 8098 8101 8107 8111 8112 8118 8119 8126 8118 8117 8127 8122 8121 8124 8120 8117 8118 8120 8126 8125 8138 8178 8197 8205 8203 8207 8207 8209 8206 8209 8211 8214 8210 8210 8203 
8239 8238 8232 8233 8235 8233 8233 8227 8223 8216 8206 8206 8203 8202 8209 8208 8211 8213 8219 8220 8212 8197 8178 8100 8079 8091 8094 8117 8110 8092 8078 8080 8076 8072 8093 8111 8107 8102 8106 8102 8105 8099 8099 8099 8098 8103 8097 8102 8105 8109 8113 8122 8129 8129 8125 8120 8118 8122 8123 8121 8114 8112 8114 8119 8126 8133 8158 8194 8199 8204 8206 8206 8211 8206 8205 8210 8210 8211 8207 8202 
8232 8231 8230 8231 8233 8230 8222 8218 8218 8211 8205 8205 8201 8206 8209 8207 8206 8213 8213 8210 8178 8130 8124 8146 8111 8108 8115 8122 8111 8098 8080 8080 8075 8071 8073 8097 8107 8106 8106 8104 8102 8094 8100 8104 8098 8097 8098 8105 8105 8105 8111 8108 8109 8115 8116 8111 8107 8120 8122 8119 8116 8111 8110 8118 8129 8130 8146 8184 8197 8200 8203 8205 8205 8203 8206 8210 8208 8208 8201 8198 
8224 8228 8230 8229 8230 8223 8217 8214 8212 8206 8205 8204 8204 8206 8208 8206 8206 8210 8206 8174 8126 8114 8108 8124 8164 8164 8131 8120 8109 8100 8083 8080 8070 8064 8064 8084 8099 8104 8105 8100 8101 8097 8100 8104 8101 8100 8100 8099 8103 8107 8108 8103 8094 8097 8113 8134 8133 8113 8119 8121 8119 8115 8112 8120 8130 8133 8142 8175 8196 8194 8201 8203 8199 8205 8207 8205 8207 8204 8201 8198 
8222 8226 8222 8221 8225 8213 8212 8213 8213 8209 8206 8205 8203 8208 8209 8205 8204 8206 8187 8131 8118 8111 8102 8100 8107 8130 8132 8123 8108 8088 8086 8078 8068 8063 8062 8073 8093 8102 8103 8100 8105 8100 8101 8105 8104 8100 8102 8101 8103 8104 8111 8103 8094 8096 8090 8100 8115 8111 8114 8113 8115 8118 8115 8117 8129 8132 8140 8162 8190 8194 8199 8201 8201 8205 8205 8205 8203 8206 8202 8198 
8218 8222 8219 8216 8217 8212 8210 8210 8211 8210 8207 8205 8207 8211 8207 8207 8204 8202 8159 8122 8118 8110 8103 8096 8098 8110 8123 8118 8112 8100 8087 8075 8067 8064 8067 8068 8074 8094 8098 8102 8105 8101 8103 8107 8107 8105 8100 8102 8103 8107 8112 8107 8098 8098 8095 8102 8140 8133 8113 8111 8112 8120 8122 8127 8132 8135 8142 8160 8188 8195 8195 8199 8203 8201 8201 8205 8202 8207 8205 8197 
8213 8215 8212 8212 8213 8209 8210 8208 8207 8211 8205 8208 8204 8205 8209 8205 8200 8199 8138 8120 8113 8109 8099 8093 8091 8098 8114 8100 8107 8092 8079 8070 8064 8063 8066 8069 8069 8075 8087 8097 8099 8102 8106 8111 8107 8103 8099 8103 8105 8104 8113 8103 8102 8103 8115 8137 8159 8149 8120 8109 8112 8121 8130 8133 8139 8142 8146 8158 8186 8192 8196 8197 8199 8200 8201 8204 8203 8204 8200 8199 
8209 8211 8211 8211 8206 8210 8206 8207 8209 8208 8206 8208 8202 8208 8206 8207 8203 8198 8141 8123 8116 8107 8095 8096 8083 8080 8088 8099 8098 8091 8080 8073 8065 8068 8071 8075 8069 8069 8073 8081 8097 8102 8111 8112 8110 8107 8104 8104 8108 8108 8113 8114 8123 8129 8133 8141 8152 8133 8124 8111 8114 8123 8135 8143 8146 8145 8150 8157 8184 8195 8196 8198 8202 8201 8204 8206 8205 8205 8200 8195 
8208 8206 8205 8202 8206 8210 8207 8207 8207 8206 8207 8207 8208 8209 8208 8205 8199 8195 8141 8123 8114 8103 8088 8090 8077 8076 8078 8105 8110 8100 8094 8083 8074 8076 8079 8084 8077 8070 8069 8076 8087 8096 8103 8114 8113 8110 8107 8109 8109 8104 8117 8140 8138 8140 8139 8141 8129 8133 8123 8118 8122 8126 8140 8148 8153 8154 8157 8163 8186 8190 8198 8196 8201 8202 8202 8204 8205 8201 8201 8196 
8206 8206 8207 8206 8206 8205 8206 8207 8207 8209 8206 8211 8210 8207 8209 8205 8200 8192 8138 8124 8127 8130 8080 8082 8076 8070 8074 8104 8111 8106 8104 8098 8085 8082 8095 8105 8089 8071 8081 8090 8082 8084 8094 8111 8111 8110 8112 8111 8108 8109 8127 8143 8144 8145 8141 8135 8127 8130 8127 8121 8118 8125 8141 8155 8158 8163 8165 8168 8185 8194 8197 8196 8197 8200 8201 8202 8203 8202 8195 8198 
8208 8205 8200 8201 8205 8207 8208 8205 8209 8205 8204 8214 8207 8210 8209 8208 8200 8188 8134 8146 8183 8139 8083 8087 8083 8075 8076 8109 8106 8098 8099 8102 8097 8090 8095 8106 8099 8086 8109 8094 8089 8082 8093 8099 8113 8113 8111 8112 8112 8115 8135 8144 8146 8145 8141 8130 8130 8132 8131 8127 8124 8125 8141 8154 8165 8167 8168 8169 8185 8193 8197 8200 8201 8201 8201 8202 8202 8197 8197 8194 
8206 8209 8203 8202 8209 8206 8207 8206 8207 8205 8207 8207 8205 8209 8210 8207 8203 8185 8139 8184 8192 8165 8109 8138 8124 8085 8082 8104 8093 8093 8095 8102 8101 8091 8093 8104 8111 8105 8104 8084 8089 8095 8092 8094 8131 8135 8111 8116 8114 8130 8141 8142 8143 8144 8148 8137 8130 8130 8127 8126 8126 8128 8139 8155 8164 8167 8168 8171 8187 8195 8193 8194 8199 8202 8199 8201 8202 8199 8196 8193 
8205 8209 8200 8205 8209 8211 8208 8209 8207 8206 8207 8207 8204 8209 8209 8208 8202 8181 8166 8202 8198 8194 8185 8190 8171 8120 8093 8098 8096 8092 8096 8103 8102 8100 8097 8100 8112 8118 8101 8083 8084 8089 8093 8091 8115 8135 8123 8119 8129 8138 8144 8141 8138 8147 8155 8151 8137 8135 8133 8126 8133 8128 8136 8150 8162 8165 8167 8175 8191 8195 8198 8197 8199 8202 8198 8200 8203 8204 8196 8192 
8204 8205 8201 8204 8208 8209 8210 8209 8210 8206 8206 8210 8203 8210 8209 8208 8202 8181 8186 8206 8200 8197 8195 8190 8158 8166 8130 8103 8096 8095 8098 8104 8105 8103 8101 8109 8115 8116 8100 8084 8085 8091 8095 8099 8100 8112 8128 8130 8134 8139 8149 8151 8150 8161 8163 8167 8170 8161 8150 8143 8146 8141 8142 8148 8160 8162 8166 8184 8192 8196 8197 8200 8201 8201 8200 8200 8199 8197 8198 8191 
8204 8205 8201 8206 8210 8210 8206 8207 8207 8208 8209 8208 8207 8209 8207 8206 8204 8192 8201 8205 8200 8194 8186 8166 8179 8196 8165 8114 8099 8097 8098 8101 8108 8107 8108 8116 8120 8121 8101 8089 8084 8089 8093 8098 8100 8099 8119 8133 8139 8138 8152 8159 8166 8171 8169 8171 8179 8186 8184 8183 8186 8182 8174 8170 8166 8165 8178 8189 8194 8197 8197 8200 8199 8200 8200 8204 8202 8198 8195 8192 
8202 8203 8202 8204 8207 8209 8204 8206 8205 8207 8203 8207 8206 8205 8204 8201 8198 8199 8198 8199 8197 8188 8161 8185 8196 8199 8184 8131 8106 8103 8101 8106 8108 8113 8122 8128 8129 8124 8104 8093 8091 8092 8093 8102 8100 8099 8117 8132 8138 8147 8165 8169 8177 8177 8173 8174 8184 8188 8190 8194 8195 8192 8188 8189 8190 8185 8191 8191 8194 8197 8198 8201 8201 8201 8203 8202 8201 8199 8193 8190 
8200 8203 8200 8202 8204 8205 8199 8205 8205 8203 8206 8205 8201 8185 8176 8178 8168 8161 8156 8161 8164 8159 8187 8201 8198 8200 8199 8151 8125 8104 8103 8109 8110 8117 8131 8140 8133 8126 8113 8094 8095 8096 8097 8100 8104 8102 8117 8140 8146 8158 8178 8175 8181 8178 8172 8180 8184 8188 8194 8194 8196 8195 8191 8190 8191 8191 8191 8195 8192 8194 8196 8203 8203 8204 8202 8201 8199 8197 8194 8190 
8198 8203 8198 8200 8202 8204 8203 8202 8201 8199 8200 8203 8183 8140 8126 8118 8113 8118 8120 8124 8136 8182 8194 8206 8200 8202 8199 8168 8135 8111 8105 8106 8111 8135 8150 8155 8140 8139 8134 8105 8099 8099 8100 8103 8102 8107 8127 8161 8171 8175 8183 8180 8182 8179 8175 8183 8186 8190 8193 8197 8199 8195 8191 8192 8195 8192 8192 8189 8193 8196 8197 8201 8204 8202 8201 8202 8200 8196 8194 8191 
8196 8199 8199 8201 8203 8204 8200 8202 8198 8199 8198 8197 8169 8126 8121 8121 8116 8113 8112 8120 8134 8191 8198 8207 8199 8201 8204 8189 8145 8126 8111 8108 8116 8159 8181 8169 8162 8163 8164 8138 8109 8102 8103 8111 8111 8126 8157 8182 8186 8185 8188 8186 8184 8180 8181 8184 8187 8189 8202 8197 8199 8196 8194 8193 8192 8191 8191 8190 8193 8195 8198 8199 8200 8205 8201 8202 8199 8197 8192 8193 
8200 8201 8201 8204 8204 8202 8202 8205 8201 8197 8197 8197 8164 8129 8127 8121 8120 8117 8117 8123 8140 8193 8198 8203 8202 8205 8206 8201 8156 8145 8124 8122 8145 8174 8188 8189 8187 8182 8185 8184 8161 8121 8110 8120 8129 8150 8181 8191 8192 8188 8192 8186 8186 8187 8182 8186 8189 8194 8198 8200 8197 8196 8193 8189 8192 8191 8190 8192 8195 8195 8199 8199 8202 8202 8201 8199 8198 8196 8188 8190 
8205 8208 8204 8204 8204 8204 8201 8201 8200 8198 8200 8196 8177 8145 8129 8123 8122 8119 8117 8119 8147 8193 8195 8203 8200 8203 8206 8206 8171 8171 8155 8170 8179 8177 8182 8187 8187 8191 8189 8183 8179 8132 8115 8124 8150 8180 8192 8194 8197 8194 8194 8185 8191 8189 8186 8189 8190 8193 8199 8198 8197 8191 8191 8193 8196 8191 8192 8192 8193 8195 8196 8200 8201 8201 8197 8197 8195 8191 8188 8188 
8214 8212 8208 8206 8206 8203 8200 8201 8202 8200 8198 8199 8193 8179 8136 8128 8123 8117 8117 8120 8164 8192 8195 8202 8200 8201 8205 8209 8196 8199 8201 8201 8198 8189 8183 8178 8182 8190 8193 8187 8187 8141 8140 8170 8185 8189 8192 8194 8195 8192 8192 8191 8191 8187 8183 8189 8188 8191 8194 8195 8197 8192 8191 8193 8193 8190 8190 8190 8191 8191 8193 8196 8199 8198 8196 8195 8194 8190 8185 8183 
8216 8216 8211 8205 8201 8200 8201 8201 8199 8202 8200 8199 8197 8184 8144 8141 8124 8125 8123 8121 8160 8194 8192 8201 8200 8204 8211 8212 8209 8209 8208 8208 8204 8197 8193 8181 8177 8177 8183 8187 8188 8174 8186 8198 8197 8192 8193 8192 8197 8198 8196 8195 8193 8187 8185 8183 8186 8191 8193 8193 8196 8194 8191 8193 8195 8194 8191 8191 8193 8193 8195 8196 8196 8194 8191 8195 8191 8187 8183 8184 
8216 8214 8202 8201 8201 8201 8201 8200 8204 8204 8200 8199 8196 8189 8142 8132 8125 8124 8122 8123 8133 8185 8194 8200 8201 8205 8209 8214 8213 8213 8213 8213 8207 8204 8202 8195 8187 8182 8180 8174 8178 8180 8185 8192 8189 8191 8195 8195 8200 8201 8198 8191 8194 8190 8187 8187 8189 8192 8190 8192 8191 8193 8187 8190 8194 8191 8194 8194 8196 8193 8191 8192 8193 8196 8190 8193 8191 8186 8184 8181 
8219 8214 8205 8201 8206 8205 8202 8202 8205 8199 8198 8200 8196 8192 8153 8127 8125 8120 8121 8119 8123 8172 8192 8199 8199 8209 8216 8218 8218 8218 8217 8215 8212 8211 8205 8203 8194 8192 8194 8186 8187 8191 8195 8199 8198 8197 8199 8201 8204 8201 8204 8194 8196 8193 8189 8187 8186 8192 8190 8188 8193 8189 8189 8189 8194 8194 8194 8195 8195 8193 8194 8193 8192 8191 8189 8188 8188 8187 8182 8180 
8231 8216 8206 8202 8202 8204 8201 8202 8201 8200 8198 8197 8194 8191 8153 8128 8126 8123 8122 8124 8124 8167 8190 8200 8199 8208 8219 8223 8223 8225 8224 8220 8215 8210 8195 8196 8198 8199 8201 8197 8195 8196 8198 8205 8204 8204 8202 8206 8202 8201 8205 8197 8202 8198 8191 8187 8188 8190 8190 8194 8194 8195 8193 8196 8199 8197 8195 8191 8197 8195 8194 8194 8196 8191 8190 8192 8189 8187 8185 8183 


