P2
80 60
8350
8320 8316 8327 8325 8322 8321 8322 8322 8322 8319 8316 8317 8318 8321 8318 8322 8321 8321 8320 8322 8321 8320 8321 8321 8321 8319 8321 8328 8327 8327 8325 8328 8328 8328 8329 8329 8333 8331 8329 8324 8325 8325 8320 8320 8320 8323 8322 8319 8319 8320 8318 8316 8311 8312 8309 8308 8306 8305 8303 8305 8306 8304 8303 8306 8302 8309 8306 8302 8304 8307 8306 8305 8305 8312 8309 8310 8304 8304 8297 8292 
8318 8320 8331 8325 8322 8323 8322 8325 8321 8320 8320 8317 8318 8319 8322 8320 8323 8321 8322 8321 8321 8316 8321 8319 8321 8321 8322 8326 8328 8328 8327 8327 8330 8327 8330 8330 8333 8332 8328 8326 8323 8328 8322 8321 8323 8323 8320 8318 8322 8320 8319 8314 8315 8311 8312 8311 8308 8308 8306 8303 8307 8306 8303 8302 8307 8302 8304 8305 8307 8305 8306 8307 8304 8306 8308 8306 8308 8305 8298 8297 
8321 8321 8329 8319 8322 8323 8324 8320 8318 8318 8317 8317 8317 8323 8320 8322 8321 8321 8321 8324 8322 8316 8317 8319 8320 8326 8321 8327 8329 8327 8328 8329 8330 8330 8330 8330 8333 8334 8332 8325 8325 8327 8324 8323 8323 8326 8320 8316 8318 8318 8319 8318 8313 8315 8311 8311 8309 8304 8307 8307 8307 8306 8304 8307 8302 8304 8304 8304 8307 8305 8307 8308 8305 8308 8307 8308 8309 8307 8299 8293 
8317 8324 8327 8320 8315 8321 8320 8318 8313 8314 8317 8316 8317 8321 8317 8320 8320 8322 8317 8319 8320 8314 8316 8320 8323 8322 8324 8328 8328 8326 8326 8326 8328 8330 8331 8330 8329 8332 8329 8325 8323 8326 8323 8322 8322 8322 8319 8318 8317 8320 8319 8315 8315 8313 8310 8309 8307 8305 8303 8308 8304 8307 8304 8306 8304 8300 8303 8302 8306 8305 8306 8306 8307 8307 8306 8310 8305 8306 8295 8294 
8319 8319 8324 8318 8314 8317 8317 8320 8311 8312 8315 8314 8318 8318 8317 8317 8318 8317 8317 8315 8317 8316 8318 8318 8318 8321 8321 8326 8326 8326 8324 8326 8327 8327 8329 8327 8328 8326 8326 8322 8321 8323 8320 8318 8318 8320 8316 8313 8317 8314 8312 8311 8310 8310 8306 8307 8306 8301 8306 8303 8304 8305 8305 8300 8301 8303 8303 8298 8306 8302 8301 8309 8306 8305 8305 8308 8304 8302 8295 8294 
8320 8320 8322 8320 8315 8316 8314 8316 8309 8314 8311 8311 8313 8315 8313 8315 8314 8315 8317 8318 8318 8313 8316 8320 8316 8320 8322 8326 8325 8325 8321 8325 8326 8327 8326 8325 8329 8328 8326 8322 8322 8321 8321 8318 8318 8319 8317 8315 8316 8312 8313 8310 8309 8307 8304 8306 8305 8301 8302 8304 8302 8302 8300 8301 8297 8300 8296 8298 8301 8299 8299 8300 8300 8302 8303 8306 8304 8301 8296 8294 
8319 8315 8318 8317 8315 8312 8314 8310 8310 8313 8310 8307 8312 8311 8312 8314 8316 8312 8319 8315 8316 8310 8318 8318 8319 8318 8322 8322 8323 8324 8321 8322 8321 8324 8329 8326 8326 8328 8326 8319 8320 8319 8316 8319 8319 8317 8315 8310 8312 8310 8309 8310 8308 8305 8302 8304 8305 8301 8302 8302 8304 8302 8299 8298 8297 8302 8297 8296 8297 8295 8297 8297 8297 8299 8303 8302 8300 8298 8292 8289 
8313 8314 8321 8315 8312 8312 8312 8314 8311 8310 8311 8308 8310 8311 8313 8312 8315 8315 8317 8315 8317 8314 8317 8315 8318 8320 8320 8324 8323 8323 8322 8321 8324 8320 8325 8327 8326 8328 8325 8316 8319 8318 8316 8316 8318 8317 8313 8311 8311 8309 8310 8307 8304 8306 8305 8305 8302 8300 8299 8302 8302 8299 8298 8299 8296 8294 8294 8293 8293 8293 8294 8295 8290 8296 8297 8299 8297 8296 8290 8285 
8310 8310 8313 8313 8312 8311 8311 8311 8312 8310 8307 8308 8310 8315 8312 8315 8313 8314 8315 8318 8317 8313 8315 8317 8316 8318 8319 8321 8322 8322 8318 8319 8320 8323 8320 8320 8324 8324 8322 8316 8317 8318 8314 8315 8310 8315 8312 8311 8313 8309 8312 8311 8306 8307 8301 8305 8302 8298 8299 8301 8300 8297 8293 8293 8294 8294 8293 8291 8291 8289 8289 8287 8287 8290 8288 8292 8293 8290 8285 8285 
8305 8308 8312 8314 8305 8310 8311 8311 8309 8314 8309 8310 8309 8312 8313 8311 8316 8314 8317 8316 8314 8312 8314 8316 8318 8319 8321 8321 8322 8320 8317 8318 8318 8321 8323 8318 8320 8325 8320 8315 8315 8315 8314 8314 8313 8311 8310 8308 8309 8307 8309 8309 8305 8305 8300 8303 8301 8299 8297 8302 8299 8295 8292 8292 8291 8293 8292 8288 8289 8288 8288 8286 8281 8287 8287 8287 8290 8288 8282 8283 
8306 8304 8316 8310 8302 8304 8308 8310 8308 8310 8307 8307 8313 8310 8313 8316 8313 8313 8317 8316 8312 8312 8311 8315 8313 8315 8318 8321 8320 8319 8318 8318 8318 8318 8319 8320 8320 8321 8318 8314 8313 8313 8309 8310 8310 8311 8313 8307 8309 8309 8306 8307 8305 8306 8302 8301 8300 8298 8297 8297 8299 8295 8291 8290 8293 8291 8290 8291 8290 8287 8284 8284 8281 8285 8282 8284 8283 8284 8279 8276 
8308 8309 8314 8307 8309 8307 8309 8305 8307 8303 8307 8310 8312 8310 8311 8312 8314 8312 8312 8316 8318 8310 8311 8315 8313 8315 8316 8318 8319 8319 8313 8317 8320 8316 8316 8317 8321 8318 8315 8311 8308 8311 8307 8306 8307 8308 8307 8304 8306 8305 8304 8305 8304 8302 8299 8300 8297 8296 8295 8294 8296 8294 8291 8292 8290 8288 8287 8287 8289 8287 8284 8286 8281 8286 8281 8281 8280 8277 8274 8273 
8308 8304 8310 8303 8305 8305 8306 8308 8303 8305 8306 8308 8308 8309 8310 8311 8310 8311 8310 8309 8313 8312 8313 8314 8313 8314 8317 8318 8319 8318 8316 8313 8315 8314 8317 8317 8318 8316 8316 8312 8306 8311 8307 8302 8307 8306 8307 8302 8305 8303 8304 8303 8301 8301 8297 8297 8295 8297 8296 8295 8296 8292 8291 8290 8289 8290 8286 8286 8285 8284 8283 8282 8282 8281 8281 8282 8278 8273 8270 8270 
8302 8302 8310 8305 8303 8305 8304 8305 8303 8303 8307 8304 8308 8311 8310 8311 8309 8311 8313 8313 8312 8307 8311 8313 8311 8313 8314 8317 8317 8316 8312 8315 8315 8312 8315 8314 8314 8315 8312 8309 8307 8306 8303 8304 8305 8305 8302 8302 8305 8299 8301 8298 8299 8298 8296 8298 8296 8293 8294 8291 8293 8292 8287 8288 8287 8290 8286 8283 8285 8284 8280 8283 8280 8278 8276 8277 8278 8275 8270 8266 
8299 8301 8308 8305 8301 8302 8307 8303 8302 8304 8305 8306 8303 8306 8307 8307 8307 8307 8308 8309 8311 8309 8310 8309 8310 8308 8311 8314 8313 8314 8309 8311 8310 8309 8310 8314 8313 8314 8310 8305 8304 8304 8300 8301 8305 8302 8300 8302 8298 8298 8297 8298 8299 8298 8295 8298 8294 8294 8291 8292 8296 8292 8288 8287 8285 8287 8287 8285 8287 8282 8278 8279 8277 8279 8275 8275 8276 8270 8266 8265 
8297 8300 8307 8302 8299 8301 8304 8303 8304 8304 8302 8304 8303 8306 8306 8306 8303 8306 8308 8309 8308 8304 8307 8306 8304 8306 8308 8311 8312 8314 8310 8307 8305 8307 8309 8310 8311 8310 8307 8302 8300 8304 8301 8299 8302 8303 8300 8298 8302 8297 8300 8299 8294 8297 8294 8297 8294 8292 8292 8291 8292 8291 8287 8286 8287 8285 8282 8285 8285 8279 8280 8277 8278 8278 8275 8274 8273 8272 8264 8265 
8298 8297 8303 8301 8299 8297 8305 8303 8299 8300 8301 8302 8302 8304 8303 8304 8304 8307 8304 8307 8304 8303 8307 8304 8303 8305 8306 8310 8311 8310 8307 8306 8304 8307 8306 8308 8307 8307 8303 8301 8300 8298 8297 8296 8298 8301 8297 8297 8301 8298 8300 8298 8295 8295 8294 8294 8296 8291 8293 8290 8290 8289 8287 8284 8283 8285 8283 8278 8281 8282 8281 8278 8274 8277 8275 8274 8272 8271 8265 8258 
8293 8299 8304 8301 8299 8300 8299 8300 8296 8298 8297 8299 8302 8303 8304 8307 8302 8304 8305 8305 8305 8303 8305 8305 8303 8304 8308 8307 8309 8312 8308 8307 8303 8304 8305 8306 8305 8307 8303 8298 8298 8296 8297 8295 8295 8296 8295 8298 8299 8295 8297 8295 8294 8295 8292 8295 8292 8292 8289 8290 8288 8288 8287 8285 8281 8284 8279 8281 8283 8280 8275 8276 8274 8278 8276 8275 8273 8270 8263 8262 
8297 8297 8302 8299 8297 8299 8299 8301 8300 8299 8303 8302 8300 8301 8299 8301 8302 8303 8303 8304 8305 8303 8303 8304 8305 8306 8304 8308 8310 8310 8303 8303 8301 8303 8305 8303 8306 8305 8302 8300 8296 8296 8293 8294 8294 8294 8294 8293 8295 8294 8295 8296 8293 8292 8291 8291 8292 8291 8288 8287 8288 8287 8286 8285 8282 8282 8282 8279 8281 8278 8277 8277 8275 8277 8276 8274 8275 8269 8263 8259 
8298 8298 8302 8298 8297 8299 8298 8300 8301 8303 8302 8299 8299 8302 8300 8302 8301 8303 8302 8304 8305 8303 8302 8301 8304 8304 8305 8309 8306 8304 8306 8302 8301 8303 8302 8305 8303 8304 8299 8298 8296 8298 8294 8292 8293 8295 8294 8292 8295 8292 8292 8296 8291 8292 8291 8292 8291 8289 8289 8288 8291 8288 8285 8284 8283 8284 8279 8277 8279 8278 8277 8278 8275 8279 8275 8276 8275 8269 8261 8260 
8296 8295 8300 8290 8295 8295 8294 8298 8296 8298 8301 8297 8299 8302 8301 8299 8301 8305 8305 8302 8302 8302 8302 8302 8300 8303 8303 8307 8305 8305 8301 8303 8301 8304 8304 8305 8302 8303 8301 8296 8297 8297 8294 8291 8292 8292 8292 8290 8291 8291 8291 8294 8289 8289 8289 8288 8286 8288 8287 8288 8288 8286 8283 8284 8282 8282 8279 8277 8278 8275 8275 8277 8272 8274 8274 8274 8271 8269 8261 8264 
8294 8296 8300 8295 8292 8293 8294 8299 8298 8299 8299 8300 8298 8302 8303 8299 8301 8299 8302 8299 8302 8298 8298 8300 8297 8298 8305 8305 8304 8299 8301 8300 8297 8299 8303 8301 8300 8299 8299 8294 8292 8296 8292 8291 8291 8293 8290 8288 8289 8288 8289 8292 8289 8287 8286 8286 8284 8288 8287 8285 8287 8284 8283 8282 8283 8281 8281 8279 8281 8278 8278 8273 8271 8275 8274 8274 8274 8270 8262 8265 
8290 8291 8299 8293 8291 8291 8294 8295 8293 8295 8296 8298 8297 8299 8302 8305 8300 8300 8299 8301 8298 8298 8297 8297 8294 8298 8296 8300 8299 8301 8298 8296 8298 8299 8300 8297 8299 8298 8295 8291 8291 8291 8289 8292 8290 8291 8286 8284 8284 8285 8288 8290 8290 8287 8285 8287 8283 8280 8283 8285 8284 8283 8282 8283 8280 8281 8279 8278 8277 8272 8276 8277 8274 8276 8274 8275 8274 8269 8262 8258 
8288 8291 8296 8292 8291 8291 8294 8298 8297 8297 8299 8293 8293 8300 8301 8298 8298 8297 8299 8298 8297 8294 8295 8294 8294 8296 8296 8299 8297 8299 8296 8296 8296 8294 8296 8289 8291 8292 8291 8289 8292 8288 8288 8287 8287 8287 8285 8285 8282 8283 8284 8287 8282 8284 8284 8284 8283 8282 8282 8283 8283 8282 8282 8279 8279 8281 8281 8276 8278 8274 8274 8276 8274 8275 8276 8273 8275 8269 8262 8263 
8291 8290 8298 8293 8289 8289 8292 8296 8297 8295 8297 8297 8294 8304 8296 8297 8298 8295 8299 8297 8295 8296 8294 8294 8295 8296 8295 8293 8297 8295 8292 8293 8291 8292 8290 8282 8278 8279 8285 8284 8286 8286 8283 8283 8283 8284 8284 8282 8282 8283 8282 8283 8282 8282 8282 8282 8285 8284 8282 8282 8281 8280 8277 8280 8278 8283 8279 8277 8281 8275 8275 8269 8271 8277 8273 8273 8271 8272 8263 8261 
8289 8289 8299 8291 8291 8290 8295 8296 8293 8296 8299 8297 8295 8299 8300 8298 8296 8295 8298 8297 8297 8295 8295 8296 8294 8292 8292 8289 8282 8268 8256 8263 8282 8284 8261 8226 8229 8228 8236 8240 8262 8281 8284 8282 8281 8281 8282 8279 8282 8280 8281 8283 8280 8283 8282 8284 8283 8282 8284 8281 8281 8281 8280 8280 8280 8280 8280 8276 8276 8277 8273 8271 8270 8273 8272 8271 8273 8269 8261 8260 
8288 8291 8296 8290 8291 8289 8294 8292 8294 8296 8297 8293 8294 8299 8296 8297 8298 8295 8299 8298 8297 8296 8297 8295 8295 8287 8281 8241 8227 8226 8272 8279 8266 8249 8249 8220 8215 8220 8237 8216 8231 8268 8270 8279 8279 8261 8267 8270 8278 8277 8282 8280 8282 8280 8283 8286 8285 8282 8281 8279 8281 8278 8276 8277 8279 8280 8278 8273 8275 8273 8271 8270 8269 8274 8270 8272 8273 8269 8260 8259 
8288 8288 8295 8291 8290 8288 8292 8295 8296 8295 8296 8295 8294 8296 8297 8300 8299 8294 8299 8296 8297 8292 8293 8295 8292 8286 8254 8215 8217 8214 8244 8268 8251 8226 8222 8212 8209 8214 8219 8214 8238 8245 8233 8271 8270 8255 8228 8217 8247 8269 8278 8282 8281 8287 8281 8283 8283 8280 8284 8279 8277 8279 8277 8280 8277 8278 8279 8276 8276 8272 8268 8270 8268 8271 8271 8269 8268 8268 8261 8257 
8285 8285 8297 8294 8290 8293 8296 8294 8293 8290 8293 8293 8293 8297 8299 8295 8296 8300 8297 8297 8295 8295 8295 8296 8292 8288 8249 8224 8256 8226 8220 8254 8261 8224 8214 8209 8206 8202 8219 8224 8210 8228 8251 8257 8226 8221 8218 8202 8220 8234 8272 8280 8279 8281 8278 8282 8277 8278 8279 8282 8279 8280 8278 8278 8280 8278 8278 8275 8275 8272 8271 8270 8269 8272 8268 8272 8272 8266 8260 8256 
8285 8288 8296 8288 8288 8288 8294 8294 8293 8293 8293 8289 8293 8297 8296 8296 8295 8292 8295 8295 8295 8290 8294 8290 8293 8291 8276 8265 8273 8258 8234 8237 8254 8222 8206 8197 8203 8205 8223 8230 8213 8212 8224 8226 8210 8199 8208 8203 8228 8239 8267 8277 8277 8278 8279 8278 8279 8276 8275 8277 8278 8278 8277 8277 8277 8279 8276 8277 8275 8269 8269 8268 8269 8269 8269 8268 8271 8265 8259 8255 
8287 8289 8293 8290 8287 8290 8292 8294 8294 8294 8293 8291 8291 8294 8291 8292 8292 8292 8293 8295 8295 8290 8289 8290 8292 8290 8286 8277 8252 8275 8257 8215 8201 8200 8199 8192 8205 8208 8208 8237 8246 8212 8210 8232 8212 8213 8228 8219 8213 8250 8264 8276 8275 8278 8275 8278 8276 8274 8276 8274 8276 8275 8278 8279 8275 8276 8274 8271 8273 8268 8269 8268 8268 8268 8268 8268 8269 8265 8260 8258 
8285 8287 8293 8290 8290 8289 8291 8294 8292 8290 8291 8291 8293 8291 8291 8292 8290 8285 8292 8290 8294 8289 8293 8290 8290 8289 8288 8252 8263 8276 8259 8211 8196 8196 8195 8197 8212 8212 8225 8216 8228 8210 8237 8232 8209 8206 8205 8230 8243 8260 8267 8274 8272 8276 8275 8275 8276 8274 8273 8272 8273 8273 8276 8279 8277 8275 8273 8269 8271 8268 8268 8268 8268 8268 8267 8265 8268 8263 8257 8253 
8286 8289 8291 8289 8290 8288 8289 8294 8292 8291 8292 8291 8290 8291 8289 8289 8287 8289 8291 8292 8294 8286 8289 8289 8289 8287 8285 8246 8254 8272 8247 8232 8212 8209 8197 8209 8215 8214 8236 8211 8209 8210 8217 8233 8220 8204 8203 8229 8251 8254 8267 8270 8273 8274 8274 8273 8274 8277 8272 8276 8275 8278 8275 8279 8273 8273 8272 8272 8271 8267 8268 8267 8266 8268 8265 8268 8266 8265 8257 8253 
8287 8289 8293 8291 8289 8292 8289 8292 8291 8290 8293 8287 8289 8287 8289 8289 8286 8290 8291 8289 8288 8286 8285 8288 8286 8284 8282 8266 8234 8253 8259 8241 8225 8223 8210 8210 8215 8219 8219 8214 8213 8212 8228 8214 8212 8201 8208 8207 8247 8255 8268 8265 8267 8271 8272 8271 8275 8273 8275 8274 8275 8278 8277 8274 8274 8272 8272 8270 8271 8268 8265 8267 8263 8267 8267 8264 8265 8262 8254 8251 
8287 8288 8292 8291 8291 8290 8292 8293 8292 8291 8295 8290 8286 8288 8289 8288 8288 8289 8291 8288 8286 8287 8286 8281 8279 8280 8272 8251 8226 8240 8240 8239 8235 8233 8212 8216 8215 8226 8211 8241 8227 8218 8218 8218 8202 8205 8227 8189 8219 8259 8264 8266 8269 8271 8273 8276 8276 8273 8272 8274 8275 8277 8274 8273 8274 8276 8271 8272 8272 8269 8266 8265 8263 8266 8264 8265 8264 8260 8252 8247 
8288 8289 8296 8293 8292 8290 8291 8292 8292 8289 8292 8287 8287 8289 8290 8289 8289 8285 8292 8288 8286 8283 8286 8281 8280 8265 8258 8264 8227 8228 8223 8223 8234 8245 8229 8217 8218 8225 8221 8221 8217 8217 8236 8213 8208 8225 8242 8198 8221 8246 8262 8265 8267 8269 8271 8275 8274 8272 8272 8274 8274 8275 8276 8275 8271 8274 8272 8271 8270 8268 8267 8266 8264 8268 8264 8264 8264 8261 8252 8250 
8287 8290 8295 8293 8292 8291 8292 8293 8295 8291 8289 8286 8288 8287 8285 8284 8284 8284 8287 8285 8288 8282 8286 8281 8275 8260 8249 8261 8230 8237 8229 8231 8224 8243 8241 8220 8221 8221 8218 8216 8211 8216 8223 8212 8220 8236 8254 8236 8214 8254 8263 8265 8267 8268 8271 8273 8272 8272 8273 8273 8274 8274 8274 8272 8271 8272 8270 8270 8271 8268 8267 8266 8266 8266 8263 8264 8259 8256 8255 8247 
8286 8291 8296 8294 8293 8291 8291 8292 8288 8288 8286 8290 8285 8286 8285 8285 8286 8283 8288 8285 8285 8280 8280 8276 8267 8259 8247 8242 8233 8223 8234 8232 8225 8238 8243 8220 8221 8224 8213 8217 8215 8214 8197 8202 8217 8242 8241 8235 8224 8255 8262 8265 8266 8269 8271 8270 8272 8272 8273 8273 8274 8274 8271 8271 8270 8274 8270 8268 8272 8266 8265 8269 8268 8268 8264 8265 8261 8260 8252 8248 
8286 8290 8295 8293 8291 8292 8296 8292 8290 8291 8287 8288 8282 8287 8288 8285 8282 8281 8283 8284 8284 8279 8266 8261 8249 8238 8229 8234 8227 8226 8239 8234 8227 8228 8226 8221 8220 8222 8215 8214 8218 8218 8211 8212 8227 8256 8264 8258 8246 8260 8265 8269 8267 8269 8269 8274 8270 8272 8273 8272 8270 8273 8267 8273 8273 8270 8268 8268 8269 8269 8267 8270 8269 8266 8266 8265 8265 8258 8252 8248 
8286 8291 8298 8291 8293 8291 8293 8291 8291 8291 8291 8287 8282 8288 8286 8287 8280 8282 8281 8281 8281 8277 8278 8277 8250 8235 8223 8237 8225 8224 8230 8233 8223 8226 8225 8225 8221 8221 8216 8218 8221 8224 8227 8219 8216 8245 8264 8265 8263 8264 8265 8268 8267 8269 8268 8273 8273 8272 8275 8271 8273 8273 8272 8270 8271 8270 8266 8266 8269 8268 8267 8271 8268 8265 8267 8269 8267 8262 8252 8246 
8286 8287 8292 8293 8292 8291 8293 8294 8289 8291 8288 8286 8283 8286 8283 8287 8287 8283 8283 8283 8280 8278 8280 8277 8272 8255 8264 8261 8225 8222 8221 8223 8220 8228 8226 8226 8225 8221 8218 8212 8216 8226 8234 8217 8207 8221 8262 8263 8267 8265 8268 8267 8269 8270 8270 8271 8272 8272 8275 8271 8271 8274 8269 8272 8269 8272 8271 8268 8271 8266 8267 8268 8269 8270 8267 8267 8267 8264 8255 8253 
8285 8284 8292 8289 8289 8292 8293 8291 8290 8290 8291 8283 8285 8285 8282 8288 8282 8286 8285 8285 8283 8282 8279 8278 8275 8274 8272 8248 8227 8222 8219 8219 8215 8221 8224 8222 8219 8218 8225 8219 8222 8235 8253 8235 8221 8234 8264 8269 8270 8268 8268 8266 8272 8268 8267 8271 8273 8274 8273 8270 8273 8272 8270 8270 8272 8274 8269 8270 8269 8269 8270 8268 8270 8271 8270 8269 8269 8259 8255 8252 
8284 8283 8292 8291 8291 8288 8290 8291 8291 8290 8287 8287 8284 8290 8285 8284 8285 8286 8286 8286 8284 8278 8276 8266 8260 8255 8257 8238 8225 8222 8218 8233 8220 8217 8219 8218 8220 8217 8224 8229 8225 8235 8254 8259 8261 8263 8270 8273 8273 8274 8273 8269 8272 8271 8271 8270 8271 8271 8270 8272 8271 8272 8270 8270 8268 8271 8271 8270 8275 8272 8269 8272 8270 8275 8271 8269 8268 8263 8256 8249 
8284 8283 8291 8292 8294 8293 8291 8292 8290 8288 8290 8290 8288 8289 8290 8292 8289 8288 8288 8289 8288 8283 8282 8268 8262 8262 8258 8252 8240 8227 8219 8251 8232 8217 8219 8223 8224 8218 8229 8242 8252 8235 8251 8271 8276 8276 8279 8280 8281 8281 8281 8274 8274 8270 8269 8271 8271 8272 8271 8271 8271 8272 8271 8273 8269 8271 8270 8271 8275 8271 8269 8271 8271 8273 8274 8271 8269 8266 8256 8253 
8282 8285 8291 8291 8295 8291 8295 8290 8292 8293 8290 8291 8291 8292 8295 8298 8293 8290 8293 8291 8286 8288 8288 8289 8284 8281 8278 8281 8281 8258 8246 8269 8250 8236 8253 8237 8232 8234 8233 8244 8268 8253 8261 8277 8285 8288 8290 8296 8303 8306 8298 8282 8276 8273 8271 8270 8271 8270 8273 8271 8271 8270 8272 8273 8270 8271 8273 8269 8274 8269 8271 8273 8272 8272 8273 8273 8271 8267 8258 8257 
8281 8285 8293 8290 8292 8296 8294 8295 8295 8296 8293 8292 8289 8293 8295 8297 8294 8292 8292 8292 8292 8287 8291 8293 8290 8293 8290 8291 8289 8289 8286 8285 8281 8281 8284 8282 8280 8279 8279 8275 8279 8282 8282 8283 8287 8288 8291 8302 8316 8308 8296 8290 8280 8274 8273 8271 8268 8268 8271 8270 8271 8270 8270 8269 8270 8272 8271 8272 8272 8270 8273 8272 8273 8276 8273 8274 8272 8265 8259 8260 
8280 8282 8292 8289 8291 8293 8295 8297 8299 8297 8291 8294 8293 8293 8295 8298 8298 8297 8298 8296 8294 8293 8294 8304 8302 8297 8296 8296 8298 8298 8293 8294 8294 8291 8290 8290 8288 8289 8286 8282 8285 8286 8285 8287 8291 8293 8295 8300 8309 8303 8296 8295 8276 8273 8270 8270 8271 8270 8270 8272 8270 8269 8267 8273 8270 8272 8275 8272 8273 8270 8272 8273 8275 8279 8277 8273 8273 8268 8263 8260 
8279 8282 8291 8290 8292 8293 8298 8294 8296 8294 8296 8295 8295 8296 8295 8296 8297 8296 8294 8296 8296 8295 8297 8299 8305 8309 8308 8310 8311 8312 8314 8311 8308 8307 8304 8302 8302 8298 8296 8293 8293 8298 8295 8300 8305 8307 8303 8304 8302 8299 8297 8285 8273 8271 8269 8269 8271 8271 8269 8269 8267 8269 8270 8268 8267 8270 8272 8271 8275 8271 8273 8274 8273 8277 8276 8274 8272 8272 8265 8261 
8278 8279 8292 8292 8290 8295 8297 8301 8297 8294 8295 8296 8295 8295 8297 8297 8296 8297 8296 8297 8299 8294 8296 8296 8291 8297 8310 8312 8318 8326 8327 8332 8326 8324 8324 8321 8321 8320 8314 8310 8314 8318 8318 8324 8324 8322 8315 8307 8299 8294 8289 8275 8270 8271 8265 8268 8270 8268 8267 8269 8268 8268 8266 8267 8269 8273 8270 8272 8276 8275 8275 8276 8275 8275 8276 8274 8276 8272 8265 8268 
8278 8282 8296 8292 8295 8296 8299 8296 8298 8294 8297 8295 8298 8295 8298 8298 8298 8297 8298 8299 8302 8300 8297 8297 8293 8293 8299 8301 8300 8319 8318 8324 8324 8320 8323 8323 8325 8322 8323 8318 8320 8327 8329 8327 8325 8324 8312 8302 8299 8300 8298 8276 8272 8270 8270 8271 8269 8263 8266 8267 8270 8269 8268 8270 8270 8272 8272 8274 8277 8276 8277 8275 8274 8279 8279 8277 8276 8271 8268 8269 
8278 8283 8291 8292 8293 8294 8298 8300 8297 8296 8299 8294 8294 8298 8298 8297 8301 8299 8299 8299 8302 8297 8297 8300 8292 8294 8301 8303 8304 8313 8312 8319 8318 8316 8317 8316 8316 8317 8322 8317 8319 8326 8318 8315 8323 8320 8315 8313 8311 8313 8300 8274 8272 8272 8267 8272 8268 8268 8269 8267 8268 8271 8268 8268 8269 8270 8272 8272 8277 8275 8275 8277 8278 8278 8277 8277 8273 8275 8267 8262 
8278 8277 8288 8287 8289 8294 8295 8297 8297 8297 8295 8297 8296 8298 8299 8299 8295 8297 8299 8298 8301 8295 8300 8296 8293 8291 8296 8306 8308 8310 8312 8311 8312 8310 8313 8315 8311 8314 8321 8318 8321 8319 8315 8314 8320 8322 8320 8320 8323 8318 8300 8278 8271 8272 8267 8272 8268 8267 8266 8265 8268 8270 8269 8268 8268 8272 8270 8273 8280 8275 8276 8276 8274 8277 8275 8274 8277 8273 8268 8266 
8273 8275 8285 8289 8288 8289 8292 8295 8296 8293 8296 8296 8293 8297 8298 8300 8298 8300 8298 8298 8301 8297 8301 8296 8290 8290 8295 8305 8306 8308 8310 8312 8310 8310 8312 8315 8315 8318 8320 8320 8318 8321 8319 8320 8321 8325 8320 8324 8327 8320 8294 8273 8274 8272 8270 8270 8271 8270 8269 8268 8268 8268 8267 8270 8269 8270 8271 8269 8277 8274 8279 8280 8276 8276 8275 8276 8273 8272 8268 8263 
8274 8273 8286 8290 8290 8291 8296 8296 8297 8294 8292 8294 8293 8296 8296 8300 8299 8297 8299 8298 8299 8295 8298 8296 8293 8289 8297 8300 8304 8307 8311 8311 8312 8314 8315 8316 8317 8318 8319 8315 8323 8322 8322 8323 8323 8322 8323 8323 8325 8312 8291 8274 8273 8275 8266 8272 8272 8267 8268 8266 8267 8268 8269 8269 8269 8270 8273 8273 8276 8277 8277 8278 8275 8281 8278 8279 8277 8272 8264 8266 
8288 8284 8299 8308 8308 8302 8298 8299 8303 8295 8293 8292 8293 8296 8296 8296 8292 8294 8295 8295 8296 8293 8297 8294 8294 8289 8294 8299 8301 8303 8306 8309 8312 8309 8314 8317 8316 8319 8317 8316 8317 8323 8320 8319 8322 8321 8319 8323 8323 8309 8284 8274 8271 8273 8269 8271 8269 8268 8268 8264 8263 8267 8266 8269 8271 8272 8273 8274 8279 8273 8278 8278 8279 8277 8275 8276 8276 8272 8269 8265 
8313 8318 8333 8339 8329 8314 8319 8333 8348 8322 8307 8301 8301 8298 8287 8287 8286 8287 8289 8290 8292 8291 8291 8290 8291 8283 8290 8293 8294 8301 8302 8304 8306 8310 8313 8316 8315 8315 8316 8311 8313 8318 8316 8319 8318 8319 8319 8317 8319 8305 8274 8269 8267 8272 8267 8268 8269 8264 8267 8265 8262 8265 8266 8270 8271 8274 8275 8273 8277 8276 8279 8277 8276 8277 8275 8275 8275 8269 8264 8264 
8315 8331 8333 8323 8318 8314 8322 8332 8335 8323 8324 8331 8320 8288 8277 8276 8277 8281 8279 8280 8281 8280 8282 8284 8285 8279 8285 8288 8290 8298 8296 8299 8305 8307 8310 8313 8314 8312 8312 8310 8308 8314 8314 8317 8319 8318 8318 8318 8316 8298 8260 8258 8263 8270 8269 8267 8265 8268 8263 8261 8262 8265 8268 8270 8271 8273 8273 8272 8277 8276 8276 8276 8274 8276 8276 8275 8276 8274 8265 8267 
8311 8310 8313 8307 8307 8311 8314 8315 8319 8322 8325 8319 8292 8280 8276 8276 8274 8274 8275 8276 8276 8272 8274 8282 8281 8278 8284 8289 8294 8296 8293 8295 8300 8304 8307 8309 8312 8314 8310 8310 8308 8314 8313 8317 8315 8316 8315 8314 8313 8288 8258 8250 8249 8260 8266 8268 8265 8262 8262 8264 8263 8266 8268 8268 8270 8273 8272 8274 8276 8273 8272 8272 8271 8277 8274 8274 8280 8272 8271 8264 
8317 8314 8320 8328 8330 8313 8305 8303 8309 8337 8326 8291 8278 8280 8286 8287 8280 8276 8275 8274 8277 8277 8272 8283 8277 8273 8276 8287 8290 8291 8293 8295 8300 8301 8302 8309 8309 8313 8307 8306 8310 8316 8311 8314 8315 8317 8312 8311 8307 8282 8256 8251 8252 8255 8265 8268 8266 8260 8264 8265 8263 8263 8267 8268 8267 8268 8271 8274 8274 8272 8272 8276 8271 8273 8272 8273 8279 8274 8270 8271 
8344 8345 8350 8338 8331 8320 8319 8319 8322 8321 8309 8298 8292 8291 8295 8296 8291 8282 8282 8281 8281 8276 8271 8279 8284 8278 8274 8280 8286 8288 8289 8291 8292 8293 8299 8302 8307 8307 8309 8303 8306 8311 8309 8310 8314 8317 8316 8312 8309 8278 8257 8256 8256 8257 8259 8262 8261 8259 8254 8257 8260 8261 8265 8266 8263 8270 8272 8278 8280 8274 8277 8281 8278 8279 8277 8277 8284 8278 8272 8268 


