P2
80 60
8226
8119 8115 8130 8129 8135 8130 8132 8125 8133 8129 8138 8135 8136 8130 8133 8131 8133 8130 8134 8136 8138 8143 8141 8137 8139 8142 8143 8141 8144 8145 8147 8148 8147 8145 8143 8146 8145 8150 8152 8152 8149 8145 8140 8143 8143 8146 8147 8146 8146 8147 8148 8145 8142 8137 8136 8138 8137 8139 8138 8143 8139 8144 8140 8143 8143 8142 8147 8144 8145 8146 8149 8147 8152 8151 8153 8155 8149 8148 8145 8145 
8117 8129 8136 8130 8142 8133 8134 8126 8131 8133 8132 8134 8132 8135 8131 8132 8133 8132 8133 8139 8143 8148 8142 8135 8144 8140 8138 8137 8145 8138 8144 8147 8141 8143 8137 8145 8143 8146 8148 8150 8152 8149 8139 8145 8144 8147 8144 8148 8146 8144 8143 8142 8150 8139 8141 8142 8138 8138 8139 8149 8144 8146 8141 8143 8144 8145 8145 8146 8147 8151 8149 8147 8149 8150 8153 8155 8154 8154 8148 8146 
8115 8117 8128 8123 8133 8129 8128 8130 8131 8135 8134 8132 8127 8134 8130 8129 8138 8131 8133 8136 8139 8140 8140 8133 8139 8141 8137 8139 8145 8139 8137 8143 8136 8140 8135 8137 8136 8149 8151 8149 8149 8141 8136 8140 8141 8145 8140 8145 8139 8143 8142 8135 8136 8141 8143 8148 8139 8143 8142 8143 8144 8147 8144 8146 8141 8143 8146 8144 8149 8150 8147 8146 8146 8147 8146 8148 8146 8151 8149 8144 
8117 8116 8130 8124 8135 8131 8132 8130 8132 8128 8124 8122 8128 8131 8125 8129 8131 8132 8129 8132 8133 8130 8128 8136 8140 8136 8137 8135 8140 8137 8133 8139 8139 8135 8141 8137 8140 8141 8141 8146 8148 8140 8140 8138 8139 8141 8143 8147 8144 8139 8141 8134 8141 8142 8139 8141 8140 8141 8141 8142 8143 8145 8142 8142 8143 8137 8142 8138 8144 8147 8147 8144 8148 8148 8148 8148 8147 8150 8147 8148 
8121 8120 8131 8125 8127 8130 8129 8126 8129 8131 8127 8119 8124 8129 8119 8127 8130 8127 8132 8131 8134 8135 8123 8129 8131 8137 8137 8136 8134 8139 8135 8140 8141 8132 8135 8138 8143 8146 8144 8144 8148 8141 8137 8134 8135 8137 8135 8140 8139 8141 8144 8138 8140 8141 8139 8143 8138 8142 8142 8145 8144 8147 8142 8141 8141 8139 8144 8136 8147 8141 8144 8144 8144 8144 8143 8142 8144 8147 8145 8142 
8122 8121 8124 8126 8129 8129 8132 8129 8124 8127 8116 8126 8129 8118 8124 8125 8126 8119 8127 8135 8134 8131 8136 8130 8136 8134 8134 8131 8131 8134 8141 8137 8137 8130 8136 8136 8138 8139 8137 8144 8146 8139 8138 8133 8143 8136 8137 8143 8138 8138 8139 8136 8138 8137 8140 8139 8138 8142 8139 8141 8139 8142 8140 8140 8139 8139 8140 8134 8142 8140 8146 8143 8145 8145 8144 8142 8141 8140 8144 8143 
8125 8127 8125 8131 8128 8130 8135 8136 8122 8119 8114 8135 8126 8116 8126 8125 8126 8124 8132 8139 8129 8131 8135 8133 8137 8136 8129 8128 8135 8135 8141 8140 8138 8130 8141 8139 8143 8138 8147 8142 8143 8135 8138 8135 8139 8136 8137 8138 8137 8136 8136 8132 8137 8139 8139 8141 8138 8141 8141 8144 8137 8140 8139 8140 8141 8141 8145 8140 8141 8136 8141 8142 8144 8140 8146 8140 8144 8145 8144 8142 
8122 8127 8121 8139 8123 8126 8128 8138 8127 8109 8124 8132 8129 8120 8130 8124 8125 8129 8126 8127 8135 8133 8134 8134 8136 8134 8124 8128 8129 8139 8138 8135 8140 8136 8138 8137 8135 8136 8140 8143 8145 8135 8136 8136 8135 8136 8134 8138 8135 8133 8136 8129 8138 8134 8137 8138 8134 8141 8134 8137 8137 8134 8133 8138 8137 8140 8142 8142 8139 8136 8140 8140 8140 8142 8143 8142 8142 8145 8144 8142 
8126 8128 8118 8129 8128 8133 8135 8131 8127 8119 8123 8125 8123 8121 8120 8120 8123 8128 8131 8137 8133 8128 8128 8129 8126 8132 8127 8135 8132 8135 8135 8134 8136 8131 8142 8135 8143 8139 8143 8140 8142 8136 8134 8131 8133 8137 8132 8138 8133 8132 8130 8126 8134 8136 8136 8137 8134 8139 8133 8140 8133 8138 8134 8134 8132 8134 8135 8139 8138 8136 8135 8136 8138 8137 8139 8140 8141 8149 8141 8143 
8126 8118 8122 8129 8124 8129 8115 8130 8126 8126 8124 8127 8127 8125 8122 8123 8130 8124 8132 8134 8129 8127 8124 8127 8124 8134 8128 8133 8132 8135 8131 8133 8133 8129 8137 8137 8137 8136 8134 8139 8141 8136 8135 8130 8133 8134 8134 8135 8132 8131 8132 8132 8133 8133 8132 8135 8134 8138 8137 8138 8135 8139 8135 8136 8135 8136 8138 8138 8142 8135 8136 8136 8139 8134 8141 8140 8142 8144 8139 8140 
8125 8124 8125 8129 8124 8129 8116 8129 8128 8125 8125 8126 8122 8121 8117 8122 8127 8120 8124 8128 8131 8130 8131 8130 8127 8133 8131 8136 8132 8135 8137 8130 8132 8132 8138 8134 8133 8135 8139 8137 8141 8133 8133 8135 8134 8140 8134 8136 8132 8131 8132 8132 8132 8133 8131 8128 8130 8131 8136 8137 8134 8134 8134 8132 8131 8128 8132 8134 8137 8132 8133 8133 8134 8132 8133 8132 8135 8139 8139 8139 
8121 8127 8123 8120 8117 8125 8120 8125 8127 8120 8124 8124 8126 8125 8127 8127 8125 8119 8123 8128 8135 8133 8126 8129 8128 8135 8127 8132 8134 8136 8141 8132 8128 8133 8128 8125 8127 8133 8135 8134 8138 8136 8134 8136 8133 8136 8133 8132 8133 8133 8134 8137 8135 8135 8132 8133 8134 8138 8138 8139 8136 8136 8135 8132 8134 8137 8140 8135 8136 8136 8134 8130 8135 8131 8132 8131 8136 8135 8138 8133 
8125 8123 8120 8116 8119 8126 8128 8118 8120 8125 8123 8126 8119 8119 8122 8125 8121 8125 8133 8126 8132 8131 8128 8122 8130 8132 8127 8132 8128 8130 8139 8131 8131 8130 8131 8120 8128 8129 8135 8128 8138 8136 8136 8137 8138 8135 8137 8133 8135 8131 8137 8133 8134 8135 8134 8133 8130 8133 8131 8135 8132 8129 8130 8127 8130 8131 8136 8132 8134 8130 8131 8133 8132 8129 8131 8134 8135 8139 8129 8135 
8126 8135 8130 8127 8126 8124 8124 8126 8119 8126 8130 8125 8123 8123 8129 8126 8130 8126 8135 8130 8133 8129 8129 8129 8127 8132 8129 8132 8124 8131 8137 8128 8128 8125 8123 8114 8101 8113 8128 8131 8131 8136 8133 8138 8132 8131 8133 8131 8131 8129 8135 8133 8135 8136 8133 8136 8133 8138 8137 8137 8134 8132 8133 8132 8137 8137 8135 8130 8136 8134 8133 8131 8130 8132 8132 8134 8130 8138 8129 8130 
8128 8124 8133 8133 8132 8130 8122 8129 8122 8125 8131 8129 8129 8123 8126 8126 8127 8120 8134 8129 8127 8128 8126 8129 8126 8131 8128 8131 8121 8132 8129 8127 8129 8127 8129 8100 8100 8101 8127 8133 8133 8132 8133 8137 8134 8130 8131 8131 8134 8133 8136 8132 8135 8135 8132 8137 8134 8134 8132 8132 8133 8129 8129 8132 8131 8135 8139 8132 8131 8132 8133 8133 8132 8130 8131 8129 8131 8132 8132 8129 
8134 8116 8120 8126 8125 8123 8119 8128 8123 8128 8126 8124 8121 8121 8126 8130 8130 8124 8136 8131 8126 8126 8123 8128 8125 8133 8133 8125 8126 8132 8130 8130 8127 8125 8122 8095 8096 8099 8122 8130 8132 8131 8131 8133 8132 8131 8127 8131 8131 8130 8133 8131 8135 8133 8129 8136 8130 8134 8133 8135 8135 8130 8131 8132 8137 8131 8132 8132 8133 8133 8129 8131 8130 8131 8131 8133 8131 8134 8131 8128 
8130 8118 8119 8131 8128 8123 8121 8120 8121 8125 8128 8126 8122 8126 8121 8126 8125 8128 8130 8124 8124 8129 8132 8124 8124 8131 8130 8135 8129 8133 8132 8130 8128 8126 8128 8100 8097 8102 8130 8134 8134 8132 8128 8134 8130 8131 8126 8130 8130 8129 8136 8130 8133 8130 8127 8131 8128 8131 8131 8133 8129 8128 8128 8130 8133 8135 8135 8133 8131 8131 8131 8131 8131 8133 8132 8131 8128 8130 8129 8129 
8128 8124 8123 8123 8123 8125 8121 8129 8120 8130 8128 8124 8126 8125 8125 8125 8127 8126 8129 8129 8131 8131 8130 8123 8124 8136 8133 8129 8128 8131 8131 8132 8133 8128 8127 8119 8109 8106 8124 8127 8131 8128 8130 8132 8131 8129 8129 8129 8130 8128 8134 8128 8132 8129 8127 8135 8125 8129 8130 8134 8133 8128 8133 8131 8134 8136 8137 8131 8132 8130 8129 8133 8132 8133 8133 8130 8126 8129 8128 8123 
8125 8120 8124 8130 8123 8125 8130 8131 8129 8128 8128 8131 8131 8128 8129 8127 8129 8127 8130 8123 8130 8130 8135 8130 8134 8134 8133 8131 8128 8127 8126 8127 8122 8112 8103 8104 8104 8105 8113 8115 8132 8128 8128 8129 8129 8125 8126 8130 8129 8126 8132 8130 8132 8129 8127 8129 8130 8133 8130 8129 8130 8129 8132 8132 8130 8134 8135 8133 8132 8134 8130 8134 8130 8133 8130 8130 8127 8134 8126 8125 
8128 8118 8126 8122 8116 8130 8126 8131 8127 8123 8134 8128 8128 8122 8126 8127 8126 8124 8130 8127 8125 8130 8132 8126 8128 8123 8129 8125 8123 8119 8109 8115 8108 8110 8103 8107 8110 8121 8115 8117 8126 8125 8127 8127 8127 8125 8130 8130 8129 8126 8133 8130 8131 8128 8129 8131 8128 8134 8132 8133 8129 8133 8135 8137 8137 8137 8136 8131 8133 8131 8129 8131 8127 8130 8127 8130 8128 8128 8127 8122 
8129 8124 8119 8112 8120 8122 8119 8127 8124 8127 8125 8127 8129 8122 8129 8130 8127 8121 8122 8114 8113 8114 8126 8129 8121 8127 8122 8124 8117 8112 8112 8118 8119 8120 8112 8115 8101 8112 8111 8119 8126 8125 8114 8119 8123 8121 8125 8122 8109 8102 8108 8120 8127 8127 8127 8130 8132 8133 8132 8130 8129 8130 8133 8137 8136 8133 8133 8133 8135 8133 8131 8130 8129 8130 8127 8132 8129 8128 8127 8125 
8127 8129 8124 8131 8127 8129 8112 8130 8117 8129 8126 8124 8131 8124 8117 8124 8128 8119 8115 8102 8107 8110 8111 8121 8120 8124 8116 8114 8105 8101 8107 8117 8121 8129 8123 8110 8103 8106 8105 8103 8107 8095 8097 8103 8107 8112 8117 8108 8103 8102 8106 8109 8117 8125 8131 8131 8130 8136 8131 8133 8127 8132 8137 8136 8135 8136 8137 8133 8133 8130 8131 8132 8128 8130 8132 8129 8129 8131 8130 8126 
8127 8127 8125 8132 8127 8125 8113 8112 8114 8129 8130 8126 8129 8128 8125 8125 8124 8116 8116 8112 8103 8103 8110 8110 8119 8104 8103 8109 8108 8109 8097 8093 8098 8109 8102 8097 8108 8100 8103 8107 8096 8088 8098 8111 8103 8105 8103 8106 8103 8102 8103 8103 8107 8108 8122 8131 8134 8132 8133 8131 8127 8130 8137 8136 8137 8136 8136 8135 8133 8132 8129 8132 8127 8127 8130 8131 8130 8132 8131 8127 
8126 8132 8126 8127 8127 8130 8123 8113 8126 8127 8129 8128 8128 8121 8126 8124 8127 8123 8124 8127 8118 8105 8108 8106 8102 8110 8107 8106 8102 8096 8080 8080 8084 8099 8098 8100 8097 8096 8093 8085 8083 8087 8097 8108 8107 8106 8100 8096 8106 8113 8118 8110 8107 8106 8111 8128 8132 8134 8133 8131 8131 8134 8136 8134 8137 8137 8137 8135 8132 8130 8129 8131 8130 8127 8131 8130 8128 8135 8131 8131 
8129 8124 8123 8132 8127 8125 8120 8130 8131 8124 8132 8128 8130 8127 8128 8125 8125 8127 8122 8124 8130 8124 8098 8097 8096 8106 8106 8104 8103 8088 8084 8083 8080 8094 8093 8099 8094 8087 8088 8086 8091 8096 8100 8113 8107 8106 8096 8091 8099 8104 8107 8109 8105 8110 8110 8126 8132 8132 8136 8134 8131 8134 8136 8135 8140 8135 8137 8137 8131 8131 8127 8128 8129 8129 8127 8131 8129 8133 8131 8130 
8129 8121 8124 8131 8127 8123 8126 8117 8116 8127 8127 8131 8125 8125 8127 8128 8126 8128 8127 8123 8127 8118 8106 8095 8097 8099 8099 8104 8094 8083 8076 8078 8079 8094 8095 8092 8093 8087 8085 8082 8101 8097 8107 8111 8099 8099 8107 8094 8102 8097 8103 8099 8110 8118 8113 8119 8131 8132 8133 8136 8136 8136 8134 8136 8136 8136 8139 8135 8131 8130 8130 8131 8127 8130 8129 8132 8129 8134 8133 8131 
8127 8125 8120 8125 8123 8126 8123 8117 8121 8126 8124 8133 8126 8129 8126 8126 8128 8128 8128 8124 8122 8110 8101 8100 8094 8099 8106 8103 8084 8082 8078 8083 8091 8098 8097 8095 8093 8091 8092 8082 8088 8088 8090 8087 8091 8098 8103 8103 8098 8096 8089 8095 8102 8110 8113 8114 8124 8129 8134 8135 8133 8131 8134 8135 8137 8137 8136 8135 8133 8130 8128 8129 8129 8129 8129 8133 8133 8133 8133 8134 
8123 8128 8128 8131 8129 8125 8128 8127 8121 8129 8123 8130 8130 8124 8127 8125 8131 8131 8129 8109 8113 8112 8116 8117 8113 8111 8107 8098 8089 8088 8081 8088 8096 8101 8088 8089 8093 8090 8094 8086 8090 8084 8087 8086 8090 8096 8091 8094 8093 8103 8104 8102 8101 8113 8124 8118 8123 8124 8136 8138 8134 8138 8138 8135 8138 8136 8138 8134 8131 8130 8129 8129 8128 8129 8131 8134 8132 8137 8136 8135 
8123 8125 8124 8129 8127 8129 8124 8127 8130 8134 8133 8133 8131 8127 8132 8125 8131 8128 8122 8119 8123 8119 8119 8120 8112 8115 8107 8109 8106 8102 8101 8098 8107 8106 8098 8090 8100 8099 8105 8104 8108 8105 8099 8092 8093 8099 8100 8114 8108 8109 8113 8100 8103 8108 8119 8113 8114 8119 8126 8132 8130 8128 8134 8135 8140 8136 8137 8135 8131 8129 8129 8128 8131 8132 8132 8135 8132 8140 8139 8136 
8125 8123 8123 8128 8128 8134 8134 8129 8129 8128 8137 8134 8133 8129 8126 8129 8126 8128 8132 8125 8126 8117 8108 8107 8103 8107 8107 8111 8097 8104 8108 8103 8097 8090 8091 8089 8088 8085 8087 8091 8106 8109 8112 8103 8097 8095 8104 8105 8110 8108 8113 8111 8106 8106 8107 8108 8106 8108 8115 8125 8129 8133 8140 8136 8139 8135 8136 8135 8132 8132 8130 8133 8133 8131 8134 8134 8133 8142 8137 8136 
8129 8128 8124 8128 8129 8136 8124 8127 8135 8125 8133 8127 8124 8120 8114 8117 8123 8120 8124 8118 8113 8099 8103 8093 8094 8100 8102 8105 8093 8097 8094 8097 8088 8093 8095 8089 8089 8083 8086 8087 8096 8101 8107 8113 8104 8108 8107 8113 8114 8115 8111 8111 8107 8105 8106 8116 8121 8106 8109 8112 8123 8130 8137 8134 8140 8137 8135 8134 8129 8127 8128 8134 8131 8132 8134 8134 8134 8137 8136 8135 
8125 8120 8119 8126 8124 8132 8124 8128 8134 8126 8122 8122 8104 8100 8103 8114 8116 8110 8107 8094 8098 8100 8100 8102 8103 8108 8102 8106 8099 8095 8090 8087 8095 8100 8103 8093 8087 8079 8088 8090 8095 8095 8098 8107 8112 8118 8117 8121 8122 8123 8125 8122 8120 8114 8110 8114 8130 8124 8112 8110 8126 8131 8134 8133 8138 8135 8135 8133 8132 8136 8129 8134 8131 8131 8135 8135 8135 8145 8136 8136 
8131 8127 8126 8127 8128 8133 8124 8129 8132 8127 8114 8107 8100 8112 8113 8122 8122 8121 8102 8095 8100 8109 8105 8101 8100 8096 8098 8101 8101 8098 8096 8093 8096 8103 8106 8109 8113 8087 8112 8110 8099 8106 8109 8109 8119 8116 8121 8120 8128 8123 8123 8123 8126 8123 8116 8109 8125 8129 8120 8109 8119 8131 8136 8138 8138 8135 8135 8134 8132 8132 8134 8133 8132 8131 8133 8137 8135 8138 8136 8133 
8127 8122 8130 8131 8129 8127 8124 8130 8129 8119 8106 8110 8103 8122 8121 8128 8124 8117 8101 8104 8117 8109 8100 8095 8101 8107 8105 8102 8100 8104 8098 8095 8095 8097 8109 8122 8125 8108 8110 8112 8105 8103 8111 8111 8125 8121 8123 8120 8124 8121 8126 8119 8121 8127 8123 8119 8123 8133 8129 8113 8114 8128 8133 8130 8133 8135 8132 8135 8135 8134 8131 8130 8131 8131 8135 8133 8137 8137 8135 8134 
8134 8126 8131 8130 8131 8129 8131 8128 8120 8107 8105 8116 8120 8128 8126 8123 8122 8115 8123 8130 8123 8111 8100 8103 8121 8109 8104 8101 8100 8105 8100 8094 8090 8095 8107 8115 8115 8104 8101 8101 8100 8102 8121 8122 8127 8122 8127 8120 8123 8119 8125 8122 8119 8123 8123 8130 8126 8133 8133 8126 8119 8125 8129 8134 8135 8134 8129 8130 8130 8130 8130 8129 8130 8131 8132 8131 8130 8135 8133 8133 
8137 8128 8130 8132 8127 8129 8130 8123 8111 8100 8102 8115 8126 8127 8126 8130 8120 8125 8128 8128 8121 8106 8102 8117 8125 8108 8106 8107 8107 8112 8101 8100 8099 8096 8105 8111 8104 8099 8095 8098 8099 8098 8117 8121 8124 8124 8132 8120 8124 8124 8129 8124 8121 8123 8124 8124 8127 8129 8134 8131 8118 8120 8129 8131 8129 8134 8132 8129 8129 8130 8127 8132 8132 8131 8133 8135 8132 8134 8131 8127 
8133 8127 8130 8130 8127 8127 8122 8105 8104 8102 8108 8114 8128 8128 8129 8128 8124 8129 8129 8130 8112 8109 8120 8126 8124 8107 8103 8105 8116 8123 8113 8108 8109 8109 8099 8117 8120 8111 8114 8106 8100 8097 8120 8118 8117 8124 8129 8121 8126 8129 8130 8126 8124 8126 8125 8130 8130 8122 8131 8127 8126 8123 8129 8131 8129 8131 8129 8129 8126 8124 8128 8126 8129 8131 8131 8132 8129 8132 8128 8128 
8131 8130 8129 8128 8126 8118 8107 8103 8105 8104 8111 8122 8127 8126 8127 8123 8121 8122 8127 8123 8105 8112 8122 8125 8116 8107 8103 8120 8125 8131 8114 8111 8105 8110 8096 8112 8125 8123 8125 8115 8099 8100 8118 8119 8111 8117 8131 8131 8135 8134 8136 8131 8130 8125 8129 8126 8128 8126 8127 8120 8125 8124 8127 8130 8130 8129 8130 8129 8125 8124 8126 8129 8127 8128 8133 8134 8130 8133 8127 8126 
8129 8130 8131 8131 8127 8115 8102 8108 8108 8113 8122 8129 8129 8125 8129 8128 8129 8126 8132 8122 8116 8123 8126 8132 8114 8112 8112 8130 8125 8127 8122 8113 8100 8099 8099 8104 8121 8126 8125 8114 8099 8097 8115 8114 8100 8108 8124 8128 8137 8133 8134 8127 8131 8131 8133 8128 8132 8126 8124 8127 8125 8126 8128 8126 8128 8123 8126 8124 8128 8125 8125 8124 8128 8128 8130 8130 8129 8128 8127 8127 
8126 8133 8138 8134 8129 8114 8108 8107 8114 8124 8128 8129 8129 8124 8123 8119 8123 8120 8129 8119 8125 8125 8126 8122 8104 8115 8116 8127 8109 8112 8113 8105 8100 8101 8105 8103 8114 8121 8121 8112 8099 8095 8101 8108 8098 8107 8117 8125 8138 8134 8139 8134 8136 8130 8134 8134 8134 8123 8125 8125 8126 8127 8131 8126 8130 8125 8131 8124 8126 8123 8122 8122 8126 8126 8129 8131 8126 8129 8126 8128 
8124 8128 8138 8124 8126 8119 8108 8113 8125 8126 8126 8131 8128 8124 8133 8124 8130 8125 8137 8134 8131 8125 8123 8115 8114 8108 8103 8107 8105 8104 8107 8108 8109 8103 8107 8104 8103 8108 8110 8096 8101 8095 8100 8099 8097 8103 8107 8118 8130 8128 8137 8133 8142 8138 8138 8136 8130 8129 8131 8130 8134 8131 8133 8127 8129 8126 8125 8122 8126 8121 8123 8124 8126 8127 8130 8126 8128 8129 8131 8131 
8126 8122 8130 8120 8124 8118 8109 8115 8126 8129 8130 8128 8129 8124 8130 8128 8126 8128 8136 8127 8127 8114 8117 8118 8122 8123 8124 8131 8125 8121 8106 8106 8107 8104 8102 8099 8097 8103 8097 8100 8100 8096 8101 8102 8100 8108 8105 8116 8126 8131 8139 8133 8140 8137 8138 8135 8129 8129 8129 8129 8130 8132 8134 8127 8127 8126 8130 8120 8126 8120 8126 8123 8124 8127 8126 8130 8130 8129 8130 8129 
8128 8123 8124 8119 8118 8119 8119 8127 8129 8131 8133 8130 8133 8133 8131 8125 8128 8128 8132 8125 8130 8129 8130 8131 8132 8132 8128 8129 8126 8115 8105 8100 8111 8104 8106 8097 8098 8095 8098 8100 8103 8094 8100 8099 8098 8108 8114 8109 8126 8128 8138 8131 8136 8140 8138 8137 8129 8129 8132 8134 8141 8142 8140 8132 8131 8127 8127 8122 8128 8119 8124 8124 8126 8126 8126 8127 8128 8132 8133 8128 
8126 8127 8126 8123 8121 8125 8122 8131 8130 8131 8131 8130 8134 8132 8131 8125 8127 8123 8128 8129 8135 8128 8133 8130 8130 8129 8127 8123 8113 8107 8103 8109 8119 8115 8107 8103 8107 8098 8098 8100 8107 8103 8116 8104 8111 8123 8122 8109 8116 8124 8133 8129 8135 8134 8130 8126 8126 8127 8135 8134 8134 8137 8140 8133 8128 8130 8125 8121 8123 8120 8125 8122 8126 8127 8130 8125 8130 8131 8128 8126 
8127 8128 8124 8121 8125 8123 8128 8126 8130 8128 8129 8129 8132 8129 8129 8126 8132 8128 8128 8130 8127 8127 8134 8128 8133 8131 8127 8115 8111 8112 8116 8125 8133 8122 8115 8109 8101 8098 8094 8093 8101 8102 8108 8103 8121 8125 8122 8109 8113 8117 8130 8130 8133 8132 8124 8129 8130 8130 8127 8131 8134 8136 8140 8136 8128 8126 8126 8121 8127 8122 8124 8124 8126 8126 8129 8128 8127 8131 8128 8127 
8127 8122 8122 8125 8124 8130 8127 8124 8127 8126 8127 8127 8135 8132 8134 8131 8135 8128 8128 8131 8132 8133 8135 8130 8134 8130 8130 8121 8120 8132 8134 8134 8131 8123 8117 8110 8106 8104 8102 8094 8101 8097 8098 8109 8123 8124 8117 8110 8111 8110 8123 8126 8121 8120 8120 8132 8133 8134 8133 8131 8126 8131 8131 8131 8129 8127 8127 8124 8122 8124 8121 8123 8126 8126 8126 8127 8126 8129 8127 8127 
8126 8132 8125 8128 8128 8128 8127 8128 8122 8127 8127 8129 8131 8130 8130 8129 8134 8130 8131 8130 8132 8132 8132 8134 8134 8132 8129 8129 8129 8136 8138 8136 8130 8126 8124 8111 8108 8100 8102 8092 8097 8088 8096 8113 8126 8122 8115 8111 8113 8111 8119 8123 8118 8127 8135 8134 8135 8130 8131 8129 8128 8131 8124 8124 8125 8123 8127 8122 8124 8121 8122 8123 8127 8125 8126 8129 8126 8130 8127 8128 
8127 8131 8124 8127 8125 8129 8128 8131 8136 8138 8136 8132 8131 8128 8132 8132 8135 8130 8131 8132 8133 8131 8134 8131 8139 8132 8131 8128 8132 8133 8130 8128 8128 8120 8120 8113 8105 8099 8096 8095 8089 8087 8092 8102 8118 8111 8112 8112 8109 8109 8116 8115 8120 8152 8169 8151 8137 8132 8133 8129 8128 8125 8125 8125 8128 8125 8127 8117 8124 8117 8122 8127 8127 8128 8129 8129 8128 8129 8126 8125 
8127 8124 8126 8128 8124 8127 8133 8131 8132 8130 8135 8133 8133 8126 8131 8129 8132 8126 8133 8131 8133 8131 8136 8133 8137 8136 8137 8135 8140 8125 8111 8099 8100 8094 8107 8096 8102 8091 8094 8087 8088 8084 8087 8088 8107 8111 8116 8111 8112 8111 8119 8124 8139 8161 8159 8147 8131 8130 8132 8127 8130 8129 8127 8127 8123 8123 8123 8118 8121 8123 8124 8124 8128 8126 8127 8130 8130 8130 8128 8127 
8126 8122 8128 8130 8126 8133 8133 8132 8135 8134 8134 8136 8136 8132 8136 8130 8134 8128 8134 8132 8129 8134 8137 8137 8135 8136 8138 8155 8208 8226 8212 8185 8142 8113 8106 8097 8101 8094 8092 8090 8096 8093 8093 8088 8110 8112 8115 8111 8114 8112 8121 8132 8140 8143 8143 8139 8132 8133 8128 8125 8124 8126 8126 8123 8122 8120 8122 8121 8123 8123 8124 8128 8130 8128 8132 8128 8129 8134 8131 8129 
8122 8123 8123 8124 8129 8131 8135 8130 8128 8129 8134 8133 8132 8134 8133 8128 8133 8131 8135 8131 8133 8133 8135 8131 8134 8135 8142 8146 8169 8186 8196 8188 8172 8153 8147 8142 8141 8137 8136 8134 8136 8131 8131 8127 8130 8126 8130 8120 8125 8124 8129 8134 8142 8144 8142 8138 8129 8131 8127 8129 8129 8128 8124 8123 8120 8120 8125 8121 8126 8121 8127 8123 8132 8131 8133 8128 8131 8128 8131 8121 
8125 8126 8123 8127 8124 8130 8128 8133 8125 8127 8134 8135 8136 8134 8136 8132 8133 8130 8135 8129 8131 8133 8137 8139 8137 8136 8142 8143 8152 8157 8162 8160 8159 8149 8146 8146 8149 8145 8149 8143 8145 8138 8139 8136 8135 8131 8132 8125 8133 8130 8143 8142 8141 8145 8146 8134 8127 8131 8128 8126 8126 8128 8124 8121 8120 8121 8125 8121 8126 8123 8126 8127 8128 8129 8132 8133 8130 8132 8128 8126 
8123 8122 8125 8127 8129 8131 8131 8135 8136 8130 8127 8127 8127 8129 8134 8128 8129 8127 8130 8132 8135 8132 8139 8135 8138 8134 8130 8134 8142 8146 8150 8147 8151 8149 8152 8149 8152 8147 8150 8147 8148 8138 8139 8138 8140 8132 8133 8124 8130 8128 8138 8138 8143 8138 8138 8134 8127 8134 8129 8132 8129 8128 8127 8121 8121 8121 8125 8119 8128 8121 8132 8128 8130 8130 8129 8126 8123 8125 8130 8125 
8120 8125 8126 8126 8129 8132 8130 8134 8128 8134 8130 8133 8134 8134 8133 8130 8135 8128 8133 8129 8131 8133 8135 8134 8136 8132 8131 8124 8126 8127 8133 8133 8143 8138 8147 8147 8154 8150 8151 8143 8142 8137 8135 8133 8135 8128 8124 8120 8128 8128 8137 8135 8136 8132 8131 8131 8130 8130 8130 8132 8127 8127 8125 8119 8122 8120 8119 8121 8127 8124 8126 8126 8129 8126 8128 8126 8122 8125 8127 8123 
8124 8129 8124 8125 8125 8126 8135 8133 8128 8134 8129 8133 8129 8134 8132 8130 8130 8124 8135 8128 8135 8135 8138 8137 8133 8131 8127 8125 8125 8123 8124 8121 8126 8127 8128 8128 8134 8134 8139 8131 8137 8125 8128 8120 8126 8119 8120 8119 8127 8123 8130 8129 8129 8129 8128 8130 8127 8126 8128 8130 8124 8126 8123 8122 8120 8120 8123 8117 8122 8122 8124 8124 8126 8123 8124 8124 8118 8122 8123 8118 
8122 8124 8128 8128 8127 8127 8130 8131 8123 8133 8134 8131 8130 8132 8131 8128 8131 8126 8127 8125 8132 8132 8134 8131 8130 8123 8125 8123 8123 8126 8123 8124 8122 8121 8123 8123 8129 8126 8132 8125 8130 8122 8123 8116 8123 8116 8119 8119 8125 8125 8132 8129 8126 8125 8126 8134 8127 8130 8127 8127 8126 8124 8120 8122 8120 8120 8122 8121 8125 8122 8126 8125 8127 8123 8123 8121 8117 8122 8123 8122 
8121 8122 8128 8121 8118 8121 8130 8125 8127 8134 8128 8128 8129 8130 8126 8123 8123 8128 8129 8130 8135 8128 8138 8132 8130 8124 8120 8123 8123 8125 8127 8127 8125 8124 8125 8122 8132 8122 8130 8123 8128 8120 8128 8118 8126 8116 8120 8118 8128 8123 8129 8126 8128 8126 8123 8129 8126 8128 8125 8122 8123 8121 8119 8122 8121 8123 8121 8123 8120 8118 8121 8124 8127 8123 8125 8118 8120 8120 8123 8121 
8126 8127 8125 8112 8122 8126 8126 8121 8126 8128 8129 8126 8122 8126 8124 8121 8124 8124 8123 8125 8127 8128 8127 8127 8130 8127 8124 8124 8122 8125 8126 8123 8123 8120 8122 8121 8124 8118 8124 8124 8130 8118 8117 8115 8120 8118 8119 8118 8123 8120 8123 8125 8125 8122 8125 8125 8123 8128 8123 8126 8122 8120 8121 8117 8119 8121 8120 8121 8122 8122 8126 8123 8126 8117 8119 8117 8117 8114 8120 8119 
8129 8125 8118 8116 8114 8115 8111 8126 8126 8122 8120 8119 8117 8122 8119 8116 8115 8117 8120 8124 8125 8122 8123 8120 8130 8128 8124 8126 8122 8122 8121 8117 8117 8119 8123 8118 8124 8123 8126 8122 8124 8115 8117 8114 8120 8115 8120 8118 8124 8119 8125 8124 8123 8121 8121 8127 8123 8126 8126 8125 8123 8119 8119 8121 8120 8127 8122 8123 8123 8122 8123 8121 8121 8117 8120 8118 8118 8116 8119 8117 
8139 8129 8128 8117 8117 8116 8111 8118 8120 8114 8116 8115 8110 8109 8110 8112 8108 8112 8113 8116 8121 8118 8118 8119 8125 8123 8124 8129 8121 8123 8119 8111 8113 8114 8120 8115 8123 8116 8119 8119 8119 8114 8116 8113 8124 8120 8122 8123 8134 8126 8129 8126 8127 8127 8126 8129 8129 8131 8131 8128 8126 8120 8122 8122 8124 8129 8128 8131 8131 8128 8126 8130 8129 8128 8130 8124 8120 8123 8123 8120 


