P2
80 60
8277
8179 8182 8182 8187 8190 8191 8198 8198 8200 8192 8192 8190 8190 8194 8202 8204 8212 8216 8215 8220 8222 8222 8220 8219 8224 8227 8227 8233 8238 8238 8242 8244 8247 8244 8245 8251 8254 8257 8254 8249 8248 8237 8234 8226 8226 8224 8221 8219 8221 8224 8229 8232 8227 8231 8229 8218 8215 8207 8205 8199 8194 8194 8194 8192 8192 8192 8193 8192 8193 8191 8201 8211 8210 8210 8212 8211 8213 8214 8217 8220 
8183 8188 8187 8193 8194 8200 8203 8204 8202 8200 8203 8201 8201 8206 8208 8212 8216 8217 8219 8223 8224 8223 8223 8228 8229 8229 8230 8233 8241 8242 8246 8245 8247 8245 8248 8251 8253 8257 8255 8250 8245 8236 8232 8231 8228 8229 8226 8222 8226 8228 8233 8237 8236 8237 8228 8222 8216 8214 8209 8205 8198 8197 8197 8193 8192 8195 8195 8195 8193 8193 8195 8208 8206 8208 8209 8210 8213 8211 8216 8214 
8187 8189 8191 8198 8205 8206 8208 8209 8205 8206 8210 8208 8207 8212 8214 8217 8220 8221 8221 8223 8223 8224 8227 8225 8230 8233 8235 8236 8241 8245 8244 8248 8246 8249 8246 8253 8256 8254 8251 8248 8243 8235 8231 8227 8227 8227 8228 8227 8227 8234 8239 8243 8238 8238 8232 8227 8218 8216 8213 8211 8210 8205 8206 8199 8196 8198 8194 8196 8195 8193 8193 8205 8206 8208 8210 8207 8213 8209 8212 8211 
8189 8193 8200 8204 8211 8212 8214 8210 8212 8210 8211 8213 8212 8214 8215 8218 8219 8221 8222 8221 8222 8221 8221 8223 8226 8229 8235 8237 8243 8242 8246 8250 8247 8249 8248 8253 8258 8254 8253 8250 8247 8235 8231 8229 8229 8229 8226 8228 8228 8232 8242 8245 8236 8237 8233 8228 8222 8221 8215 8213 8211 8211 8212 8204 8201 8195 8197 8193 8196 8193 8197 8202 8203 8205 8208 8209 8208 8206 8211 8208 
8192 8196 8200 8206 8213 8214 8214 8215 8215 8210 8212 8211 8212 8214 8214 8216 8218 8220 8218 8220 8222 8222 8223 8225 8224 8230 8233 8235 8244 8245 8247 8248 8250 8249 8252 8253 8260 8257 8256 8250 8243 8236 8231 8227 8229 8228 8229 8228 8230 8233 8244 8244 8239 8237 8231 8231 8221 8224 8218 8216 8216 8216 8216 8212 8210 8206 8199 8197 8199 8194 8193 8198 8199 8204 8206 8202 8204 8201 8208 8205 
8191 8196 8199 8205 8212 8214 8217 8215 8212 8215 8214 8211 8211 8215 8215 8217 8220 8221 8224 8220 8224 8224 8226 8224 8226 8230 8231 8233 8243 8246 8247 8248 8248 8249 8249 8251 8255 8255 8253 8248 8243 8233 8230 8228 8230 8229 8228 8228 8226 8238 8245 8245 8239 8238 8234 8228 8224 8224 8220 8219 8218 8219 8215 8213 8215 8214 8209 8205 8203 8198 8196 8197 8199 8203 8204 8203 8203 8201 8207 8205 
8195 8203 8200 8208 8214 8212 8214 8214 8212 8209 8216 8214 8214 8216 8216 8219 8222 8223 8224 8226 8226 8225 8226 8224 8225 8229 8231 8233 8240 8244 8246 8245 8248 8251 8252 8251 8256 8254 8250 8249 8241 8235 8231 8227 8227 8230 8230 8231 8231 8240 8249 8250 8244 8239 8237 8235 8234 8229 8227 8224 8223 8220 8218 8214 8215 8218 8220 8213 8211 8209 8202 8198 8201 8200 8205 8198 8200 8196 8204 8204 
8196 8201 8202 8211 8214 8214 8215 8211 8209 8210 8216 8215 8214 8216 8214 8218 8224 8221 8223 8224 8229 8228 8225 8223 8225 8227 8228 8231 8235 8240 8241 8243 8249 8247 8247 8250 8253 8253 8249 8245 8240 8231 8231 8229 8230 8231 8229 8229 8231 8244 8250 8249 8245 8244 8237 8238 8236 8233 8231 8231 8227 8225 8224 8218 8220 8220 8221 8220 8218 8216 8211 8206 8199 8195 8200 8196 8196 8194 8206 8208 
8202 8205 8206 8212 8215 8213 8215 8213 8213 8213 8217 8212 8212 8215 8214 8216 8219 8220 8226 8227 8229 8225 8222 8221 8221 8224 8224 8227 8236 8241 8241 8239 8243 8243 8246 8245 8245 8244 8244 8239 8239 8233 8229 8231 8230 8231 8231 8229 8232 8242 8248 8249 8245 8241 8239 8236 8231 8232 8236 8234 8232 8233 8231 8226 8222 8224 8222 8222 8222 8218 8217 8213 8206 8199 8195 8191 8195 8198 8210 8209 
8203 8206 8207 8210 8211 8207 8208 8206 8209 8209 8208 8206 8206 8213 8211 8209 8214 8216 8222 8220 8224 8220 8217 8218 8217 8219 8222 8225 8231 8233 8236 8235 8236 8236 8237 8239 8241 8238 8238 8236 8233 8233 8231 8230 8233 8235 8231 8231 8236 8239 8245 8247 8239 8237 8232 8233 8235 8232 8232 8232 8233 8236 8234 8229 8232 8231 8229 8226 8227 8224 8221 8218 8209 8201 8198 8191 8192 8196 8211 8210 
8207 8207 8206 8206 8204 8204 8203 8202 8203 8203 8207 8204 8204 8209 8207 8209 8213 8215 8215 8215 8219 8217 8214 8210 8212 8215 8219 8224 8230 8234 8235 8229 8230 8232 8229 8233 8235 8234 8231 8228 8228 8225 8226 8227 8232 8234 8232 8229 8231 8231 8236 8235 8235 8232 8228 8229 8227 8229 8224 8227 8228 8230 8232 8233 8235 8236 8237 8235 8233 8228 8222 8223 8215 8208 8196 8189 8191 8199 8217 8214 
8208 8209 8205 8202 8204 8203 8203 8204 8203 8204 8211 8208 8208 8208 8209 8211 8214 8215 8214 8218 8220 8215 8214 8213 8212 8215 8223 8223 8231 8232 8234 8231 8229 8233 8233 8230 8230 8224 8223 8192 8171 8177 8184 8206 8227 8229 8226 8230 8228 8230 8237 8238 8232 8229 8229 8227 8225 8224 8225 8224 8224 8225 8227 8228 8229 8233 8234 8233 8235 8229 8227 8229 8221 8214 8190 8189 8187 8200 8218 8215 
8213 8215 8208 8207 8211 8207 8207 8205 8207 8208 8213 8214 8212 8215 8214 8216 8218 8217 8220 8220 8222 8214 8213 8213 8216 8218 8221 8223 8232 8234 8233 8233 8231 8233 8234 8235 8199 8179 8176 8158 8147 8153 8162 8190 8224 8225 8227 8229 8229 8231 8233 8236 8234 8234 8229 8228 8226 8227 8227 8230 8227 8224 8226 8227 8228 8229 8230 8230 8231 8227 8225 8228 8226 8218 8198 8186 8187 8202 8219 8216 
8217 8217 8212 8214 8215 8214 8213 8212 8211 8211 8216 8215 8216 8216 8216 8222 8228 8224 8222 8224 8224 8218 8216 8216 8216 8224 8224 8225 8231 8232 8230 8210 8208 8226 8232 8230 8199 8156 8147 8154 8140 8148 8149 8163 8196 8222 8227 8227 8226 8237 8232 8224 8224 8232 8228 8229 8225 8227 8231 8231 8230 8229 8230 8227 8225 8229 8232 8230 8229 8225 8228 8226 8224 8223 8202 8188 8187 8207 8222 8217 
8221 8217 8218 8218 8218 8217 8215 8214 8214 8217 8218 8223 8218 8220 8223 8225 8230 8229 8227 8227 8228 8225 8220 8220 8226 8226 8224 8227 8218 8179 8182 8165 8171 8180 8189 8176 8154 8135 8140 8151 8135 8135 8151 8181 8187 8212 8224 8223 8223 8229 8225 8156 8199 8222 8209 8220 8226 8226 8230 8230 8229 8231 8232 8228 8229 8236 8232 8234 8232 8231 8231 8230 8228 8228 8211 8188 8196 8211 8226 8222 
8220 8218 8218 8218 8218 8216 8217 8218 8220 8217 8224 8223 8224 8223 8225 8226 8229 8227 8228 8230 8231 8225 8224 8224 8226 8229 8228 8223 8177 8148 8176 8202 8216 8223 8198 8145 8128 8122 8135 8147 8140 8126 8137 8172 8189 8206 8217 8218 8220 8214 8175 8136 8161 8153 8145 8196 8226 8226 8230 8233 8229 8231 8228 8233 8234 8235 8234 8235 8236 8237 8233 8237 8233 8232 8224 8199 8196 8210 8227 8222 
8220 8220 8220 8221 8220 8220 8218 8218 8221 8225 8226 8227 8224 8226 8227 8227 8231 8229 8231 8233 8233 8230 8228 8228 8228 8227 8228 8229 8176 8143 8197 8232 8231 8233 8233 8195 8142 8119 8123 8125 8131 8133 8127 8138 8183 8172 8182 8198 8175 8151 8117 8121 8125 8132 8146 8204 8222 8226 8227 8229 8227 8230 8229 8234 8235 8238 8240 8236 8236 8236 8235 8238 8235 8234 8231 8215 8197 8211 8227 8224 
8225 8224 8221 8220 8220 8223 8227 8222 8224 8226 8228 8226 8228 8230 8229 8229 8230 8233 8234 8237 8235 8234 8231 8227 8231 8232 8231 8230 8225 8173 8193 8231 8233 8231 8228 8194 8142 8115 8123 8117 8119 8125 8126 8129 8154 8150 8118 8163 8178 8123 8113 8111 8122 8152 8175 8176 8218 8223 8224 8228 8231 8230 8231 8232 8234 8237 8238 8236 8237 8236 8237 8236 8236 8239 8235 8222 8198 8205 8221 8219 
8225 8223 8217 8219 8222 8223 8225 8225 8228 8226 8231 8230 8229 8231 8230 8234 8233 8234 8236 8234 8235 8234 8233 8232 8230 8233 8232 8230 8230 8195 8157 8213 8222 8200 8166 8152 8145 8138 8131 8117 8114 8114 8119 8119 8115 8127 8113 8128 8115 8102 8103 8102 8117 8145 8203 8212 8223 8228 8227 8227 8227 8228 8234 8234 8231 8237 8232 8236 8236 8236 8237 8234 8233 8236 8237 8226 8206 8202 8217 8218 
8226 8225 8216 8216 8219 8227 8229 8227 8228 8234 8236 8234 8235 8238 8237 8237 8238 8238 8239 8238 8239 8240 8238 8237 8233 8235 8235 8226 8168 8143 8157 8143 8142 8126 8139 8141 8144 8143 8141 8119 8110 8098 8109 8112 8103 8118 8106 8103 8094 8088 8093 8095 8111 8122 8136 8192 8223 8227 8232 8232 8230 8229 8233 8233 8234 8236 8234 8232 8234 8235 8235 8233 8232 8236 8233 8228 8213 8200 8213 8215 
8229 8225 8224 8219 8227 8229 8229 8228 8232 8233 8233 8237 8238 8241 8240 8241 8242 8241 8236 8241 8242 8239 8238 8239 8234 8233 8225 8201 8144 8127 8111 8101 8101 8093 8120 8122 8135 8153 8126 8116 8117 8105 8103 8097 8127 8097 8134 8135 8104 8085 8085 8104 8119 8126 8119 8148 8222 8231 8229 8229 8231 8230 8232 8233 8234 8237 8236 8237 8236 8233 8232 8233 8231 8232 8232 8227 8219 8205 8212 8208 
8230 8229 8225 8225 8227 8228 8228 8225 8230 8231 8237 8235 8237 8240 8240 8239 8242 8241 8239 8239 8240 8243 8238 8238 8231 8204 8169 8138 8123 8120 8111 8102 8115 8128 8124 8113 8117 8134 8117 8118 8119 8106 8100 8104 8116 8103 8184 8208 8118 8110 8103 8109 8115 8124 8121 8155 8221 8227 8228 8231 8233 8233 8232 8234 8233 8233 8237 8234 8236 8233 8232 8232 8227 8233 8231 8226 8219 8209 8211 8209 
8233 8235 8228 8227 8229 8224 8229 8226 8227 8228 8237 8237 8234 8244 8237 8243 8239 8237 8237 8240 8243 8241 8238 8238 8207 8170 8153 8128 8117 8111 8113 8096 8121 8134 8125 8111 8102 8102 8110 8124 8120 8113 8109 8105 8097 8108 8122 8163 8114 8103 8104 8131 8118 8119 8121 8144 8219 8229 8229 8233 8232 8232 8231 8231 8237 8237 8234 8234 8235 8235 8236 8233 8232 8232 8231 8228 8226 8216 8211 8214 
8238 8238 8229 8228 8225 8227 8228 8230 8228 8230 8239 8238 8238 8240 8238 8239 8236 8237 8236 8237 8237 8238 8238 8235 8230 8226 8184 8138 8111 8103 8103 8096 8100 8117 8118 8096 8097 8101 8100 8099 8115 8118 8105 8101 8099 8102 8095 8085 8078 8082 8090 8106 8114 8153 8182 8155 8219 8227 8228 8228 8230 8231 8232 8230 8233 8237 8234 8231 8236 8232 8236 8235 8232 8233 8234 8230 8225 8220 8209 8212 
8239 8234 8231 8230 8230 8232 8232 8232 8230 8230 8238 8236 8238 8241 8238 8237 8242 8238 8236 8237 8237 8237 8235 8234 8229 8225 8178 8128 8086 8099 8104 8093 8077 8103 8111 8088 8090 8107 8108 8101 8096 8092 8090 8097 8094 8096 8102 8084 8080 8088 8085 8095 8106 8172 8216 8212 8226 8227 8227 8227 8227 8228 8229 8229 8233 8233 8235 8232 8234 8232 8231 8232 8233 8237 8238 8233 8225 8221 8212 8215 
8238 8236 8232 8234 8231 8229 8233 8233 8235 8233 8238 8236 8238 8243 8239 8238 8239 8237 8234 8234 8235 8236 8234 8232 8228 8210 8139 8111 8103 8104 8088 8089 8080 8083 8089 8089 8083 8099 8110 8107 8102 8082 8093 8093 8089 8099 8105 8108 8107 8098 8091 8097 8112 8186 8202 8220 8227 8226 8225 8225 8225 8225 8232 8230 8232 8234 8232 8234 8234 8232 8230 8234 8233 8237 8236 8237 8230 8228 8218 8219 
8239 8238 8233 8230 8233 8234 8235 8235 8236 8237 8238 8238 8239 8241 8239 8242 8238 8239 8236 8234 8235 8231 8230 8232 8227 8197 8130 8112 8126 8123 8098 8092 8089 8093 8086 8083 8082 8097 8108 8103 8089 8083 8094 8090 8086 8086 8092 8103 8107 8113 8125 8109 8151 8216 8194 8200 8222 8227 8228 8228 8228 8226 8230 8233 8233 8231 8231 8230 8234 8231 8233 8234 8232 8239 8237 8238 8239 8236 8228 8223 
8238 8238 8236 8234 8230 8230 8237 8233 8237 8239 8241 8240 8240 8243 8240 8238 8244 8237 8235 8229 8234 8229 8232 8230 8223 8181 8135 8147 8143 8123 8116 8122 8103 8108 8089 8079 8084 8105 8112 8098 8089 8097 8104 8097 8090 8085 8090 8095 8099 8113 8131 8116 8141 8199 8202 8183 8216 8226 8226 8226 8225 8227 8226 8226 8232 8232 8228 8230 8231 8231 8234 8232 8231 8236 8238 8237 8240 8238 8232 8228 
8241 8241 8237 8235 8234 8234 8239 8237 8239 8237 8247 8240 8240 8242 8243 8239 8240 8238 8235 8234 8231 8230 8228 8230 8216 8176 8178 8187 8145 8119 8106 8117 8119 8108 8104 8095 8094 8104 8100 8093 8100 8109 8101 8099 8099 8098 8095 8087 8089 8095 8113 8101 8119 8166 8178 8167 8211 8227 8229 8230 8226 8225 8229 8231 8233 8233 8229 8231 8231 8232 8233 8234 8232 8232 8235 8240 8241 8240 8235 8232 
8241 8243 8238 8237 8236 8237 8237 8238 8242 8241 8245 8242 8238 8240 8241 8241 8238 8235 8231 8234 8231 8229 8229 8229 8196 8169 8192 8177 8139 8116 8101 8103 8116 8113 8117 8114 8095 8095 8089 8094 8107 8104 8090 8091 8104 8103 8095 8089 8084 8086 8090 8090 8100 8121 8166 8178 8208 8226 8228 8227 8227 8228 8228 8228 8230 8230 8230 8231 8229 8231 8232 8234 8231 8233 8237 8242 8242 8242 8236 8237 
8240 8241 8235 8235 8237 8235 8240 8242 8240 8240 8245 8240 8237 8239 8240 8238 8236 8233 8230 8226 8228 8228 8226 8223 8182 8168 8196 8167 8143 8124 8108 8105 8098 8109 8107 8112 8106 8099 8092 8101 8123 8108 8089 8097 8094 8094 8101 8095 8094 8097 8093 8092 8090 8103 8179 8198 8196 8223 8228 8229 8228 8227 8228 8228 8230 8229 8226 8228 8226 8228 8233 8233 8232 8235 8236 8242 8244 8243 8239 8240 
8245 8242 8240 8237 8240 8235 8242 8239 8242 8242 8246 8240 8238 8239 8238 8234 8237 8234 8230 8225 8222 8225 8222 8224 8197 8176 8191 8153 8145 8137 8119 8118 8108 8091 8110 8115 8118 8117 8117 8124 8125 8124 8115 8097 8098 8098 8097 8099 8108 8113 8094 8113 8122 8130 8189 8200 8178 8222 8226 8227 8228 8230 8230 8230 8230 8226 8226 8226 8226 8228 8231 8234 8232 8235 8237 8245 8247 8245 8243 8244 
8247 8243 8241 8240 8238 8237 8241 8240 8244 8242 8244 8240 8236 8236 8237 8234 8235 8230 8227 8221 8226 8223 8218 8216 8199 8170 8169 8150 8146 8140 8139 8125 8123 8119 8122 8121 8125 8125 8125 8123 8131 8136 8141 8131 8119 8098 8100 8103 8119 8119 8095 8105 8135 8147 8167 8178 8182 8223 8226 8225 8229 8232 8231 8227 8225 8228 8225 8226 8226 8229 8229 8231 8229 8236 8238 8243 8244 8250 8247 8241 
8246 8244 8243 8241 8240 8237 8245 8240 8244 8241 8246 8241 8239 8237 8235 8234 8234 8231 8226 8222 8226 8221 8220 8216 8200 8185 8188 8155 8151 8152 8147 8138 8132 8129 8127 8131 8130 8130 8129 8125 8133 8141 8145 8148 8133 8131 8109 8112 8133 8138 8106 8104 8143 8152 8174 8185 8182 8222 8227 8225 8227 8228 8229 8227 8225 8226 8226 8225 8227 8228 8232 8230 8231 8236 8237 8240 8243 8247 8243 8241 
8250 8249 8243 8244 8242 8243 8244 8242 8243 8242 8243 8244 8240 8239 8234 8234 8232 8233 8225 8222 8224 8221 8218 8217 8214 8205 8216 8173 8161 8160 8155 8144 8131 8136 8132 8136 8139 8143 8134 8128 8139 8144 8149 8152 8158 8140 8111 8143 8144 8146 8134 8127 8152 8173 8202 8202 8210 8227 8227 8225 8225 8228 8226 8225 8226 8226 8224 8229 8225 8227 8230 8231 8229 8232 8235 8234 8239 8238 8242 8241 
8254 8251 8248 8243 8243 8246 8244 8243 8243 8240 8243 8241 8240 8241 8237 8233 8232 8228 8227 8225 8223 8217 8220 8220 8216 8222 8241 8190 8177 8167 8159 8152 8148 8144 8140 8144 8147 8149 8143 8147 8148 8153 8155 8159 8161 8162 8154 8157 8150 8151 8154 8157 8156 8173 8213 8221 8229 8228 8227 8224 8223 8225 8224 8224 8225 8225 8224 8226 8226 8225 8227 8228 8227 8230 8230 8232 8237 8237 8240 8240 
8258 8251 8249 8246 8243 8242 8246 8246 8242 8240 8242 8242 8236 8240 8238 8232 8232 8231 8229 8224 8225 8217 8220 8217 8218 8225 8246 8216 8186 8178 8174 8157 8153 8147 8147 8148 8145 8150 8151 8158 8162 8161 8167 8167 8155 8158 8162 8158 8158 8155 8159 8164 8165 8179 8215 8232 8231 8229 8226 8224 8223 8223 8222 8223 8226 8225 8224 8221 8226 8225 8226 8229 8224 8232 8233 8236 8236 8239 8243 8239 
8255 8251 8244 8247 8243 8247 8242 8248 8243 8241 8243 8242 8236 8238 8234 8235 8231 8226 8223 8225 8218 8221 8218 8220 8217 8220 8242 8253 8200 8188 8180 8169 8165 8158 8156 8150 8141 8156 8162 8169 8171 8165 8175 8174 8168 8164 8160 8162 8163 8167 8166 8169 8168 8186 8200 8236 8233 8232 8229 8227 8226 8222 8221 8221 8226 8223 8223 8224 8224 8224 8226 8226 8226 8230 8233 8236 8238 8239 8240 8242 
8250 8254 8252 8248 8245 8247 8245 8243 8244 8242 8244 8239 8235 8235 8233 8233 8233 8230 8225 8222 8222 8215 8214 8215 8211 8210 8227 8266 8241 8208 8188 8182 8176 8167 8162 8165 8161 8159 8164 8172 8175 8180 8182 8185 8181 8176 8170 8168 8172 8174 8173 8170 8173 8204 8232 8234 8230 8230 8230 8229 8225 8224 8225 8223 8224 8224 8228 8226 8224 8225 8225 8225 8229 8231 8232 8234 8238 8239 8245 8240 
8250 8252 8254 8246 8246 8244 8245 8241 8243 8238 8244 8238 8235 8235 8230 8229 8230 8226 8221 8222 8221 8216 8217 8215 8211 8210 8191 8240 8277 8223 8194 8187 8190 8178 8175 8176 8179 8174 8169 8175 8183 8191 8192 8193 8188 8180 8182 8177 8179 8179 8173 8177 8195 8224 8237 8237 8232 8230 8230 8229 8228 8224 8226 8224 8222 8225 8226 8226 8225 8227 8227 8226 8224 8231 8235 8236 8236 8238 8242 8237 
8249 8254 8250 8249 8245 8245 8245 8243 8243 8240 8242 8235 8233 8236 8231 8230 8229 8221 8220 8221 8218 8218 8215 8215 8209 8211 8185 8183 8258 8260 8212 8197 8192 8192 8189 8189 8193 8195 8179 8184 8191 8195 8198 8198 8189 8191 8189 8192 8190 8178 8178 8224 8243 8224 8234 8237 8233 8233 8233 8230 8229 8229 8226 8222 8226 8226 8228 8226 8226 8228 8223 8226 8226 8229 8235 8234 8238 8239 8244 8238 
8253 8252 8245 8247 8245 8241 8240 8241 8241 8241 8242 8238 8234 8233 8233 8230 8228 8220 8220 8222 8220 8219 8216 8214 8209 8210 8194 8164 8191 8261 8258 8211 8198 8197 8195 8192 8192 8196 8188 8192 8202 8199 8201 8194 8189 8197 8195 8194 8191 8186 8236 8238 8218 8220 8236 8237 8236 8233 8232 8232 8228 8229 8228 8228 8225 8229 8228 8224 8227 8227 8225 8225 8227 8232 8235 8236 8236 8236 8240 8237 
8254 8250 8249 8243 8241 8242 8241 8242 8239 8239 8241 8235 8234 8236 8231 8229 8228 8219 8218 8218 8220 8217 8217 8217 8213 8209 8204 8166 8165 8192 8253 8264 8221 8208 8206 8199 8197 8194 8199 8196 8203 8201 8200 8202 8198 8203 8201 8202 8216 8250 8245 8209 8203 8227 8237 8239 8236 8234 8232 8231 8232 8230 8229 8226 8229 8227 8228 8228 8228 8226 8227 8229 8226 8230 8235 8233 8236 8239 8241 8237 
8250 8252 8246 8242 8242 8239 8238 8238 8238 8240 8241 8238 8233 8237 8234 8226 8224 8219 8216 8218 8217 8217 8216 8214 8214 8213 8205 8185 8163 8170 8197 8230 8260 8250 8224 8199 8206 8204 8203 8206 8208 8207 8215 8216 8217 8223 8228 8248 8256 8238 8222 8199 8213 8239 8237 8237 8237 8236 8236 8235 8232 8232 8232 8231 8234 8234 8228 8229 8225 8227 8228 8229 8223 8229 8233 8232 8235 8234 8239 8237 
8254 8251 8246 8241 8244 8239 8242 8241 8239 8241 8241 8236 8235 8234 8233 8227 8226 8223 8219 8218 8218 8219 8219 8215 8211 8210 8208 8202 8175 8168 8184 8206 8210 8227 8243 8244 8232 8219 8214 8214 8221 8245 8247 8245 8251 8263 8265 8243 8214 8215 8205 8201 8225 8236 8237 8239 8235 8235 8234 8236 8235 8232 8232 8231 8232 8233 8229 8228 8226 8228 8227 8230 8227 8230 8231 8234 8231 8237 8240 8238 
8254 8255 8247 8245 8242 8239 8238 8239 8239 8239 8242 8236 8236 8233 8231 8230 8226 8224 8221 8219 8221 8218 8216 8213 8209 8210 8211 8209 8196 8175 8172 8187 8202 8193 8200 8218 8233 8245 8251 8254 8259 8262 8263 8259 8250 8237 8215 8201 8208 8205 8200 8218 8234 8237 8235 8241 8236 8237 8236 8236 8235 8234 8231 8232 8235 8229 8228 8228 8231 8227 8229 8231 8228 8230 8233 8234 8235 8234 8238 8233 
8253 8253 8252 8251 8244 8239 8241 8241 8238 8239 8239 8238 8234 8233 8231 8232 8228 8226 8225 8221 8220 8220 8220 8217 8210 8211 8214 8211 8211 8190 8172 8175 8196 8200 8193 8190 8191 8198 8206 8214 8219 8221 8216 8210 8204 8199 8203 8210 8208 8199 8213 8232 8233 8239 8234 8239 8236 8234 8233 8234 8231 8232 8234 8233 8234 8233 8232 8229 8230 8231 8229 8230 8230 8232 8236 8233 8232 8234 8238 8234 
8255 8256 8252 8251 8248 8241 8242 8240 8240 8237 8239 8238 8234 8237 8234 8233 8230 8228 8225 8227 8223 8219 8220 8217 8215 8211 8213 8215 8215 8209 8192 8176 8179 8193 8198 8195 8187 8188 8187 8188 8194 8197 8196 8198 8196 8205 8216 8209 8205 8216 8230 8236 8235 8236 8239 8237 8237 8237 8235 8233 8230 8232 8231 8232 8232 8232 8231 8232 8230 8228 8231 8235 8230 8234 8234 8233 8236 8232 8236 8233 
8251 8249 8244 8248 8245 8244 8242 8243 8242 8241 8240 8236 8234 8232 8230 8229 8232 8232 8226 8224 8225 8220 8222 8220 8219 8216 8214 8214 8221 8219 8210 8199 8184 8181 8189 8203 8207 8205 8199 8197 8201 8200 8203 8206 8215 8212 8213 8213 8220 8232 8235 8239 8240 8240 8235 8235 8233 8234 8231 8232 8230 8231 8231 8231 8233 8231 8228 8232 8229 8229 8229 8233 8231 8234 8233 8231 8233 8236 8235 8236 
8252 8250 8246 8242 8243 8244 8244 8242 8245 8239 8241 8239 8237 8233 8231 8225 8227 8228 8229 8227 8225 8224 8224 8221 8221 8219 8219 8217 8223 8224 8221 8213 8206 8196 8186 8186 8194 8201 8207 8213 8216 8213 8212 8206 8209 8210 8219 8230 8230 8236 8241 8241 8240 8238 8235 8233 8233 8233 8232 8229 8230 8229 8232 8230 8226 8231 8230 8228 8229 8232 8228 8234 8229 8234 8239 8236 8234 8233 8239 8227 
8251 8248 8241 8240 8243 8241 8247 8242 8240 8238 8242 8239 8235 8236 8230 8226 8228 8226 8228 8229 8228 8226 8225 8224 8223 8223 8217 8218 8223 8224 8224 8218 8216 8210 8207 8204 8202 8198 8198 8198 8208 8205 8208 8214 8218 8229 8230 8232 8235 8239 8243 8245 8242 8241 8230 8233 8233 8233 8234 8231 8234 8232 8232 8230 8227 8228 8228 8230 8227 8230 8231 8231 8231 8232 8233 8235 8234 8236 8235 8234 
8247 8247 8241 8238 8238 8238 8244 8241 8245 8236 8240 8240 8234 8234 8229 8228 8225 8228 8227 8228 8231 8228 8227 8228 8224 8225 8223 8221 8223 8227 8228 8221 8219 8214 8211 8213 8213 8214 8217 8219 8221 8220 8222 8226 8225 8229 8230 8232 8239 8243 8246 8245 8243 8241 8234 8233 8234 8233 8234 8234 8230 8229 8228 8229 8228 8230 8227 8228 8227 8230 8229 8233 8232 8232 8234 8233 8230 8233 8235 8229 
8249 8249 8243 8245 8244 8245 8244 8244 8243 8237 8239 8235 8235 8236 8233 8228 8228 8228 8227 8227 8231 8226 8227 8232 8227 8225 8224 8221 8225 8226 8225 8223 8222 8219 8214 8219 8217 8221 8220 8222 8225 8221 8226 8226 8227 8230 8232 8239 8244 8242 8244 8245 8238 8236 8232 8234 8234 8230 8231 8229 8226 8228 8232 8227 8229 8229 8232 8230 8228 8226 8229 8230 8229 8233 8234 8233 8227 8228 8235 8231 
8252 8251 8245 8244 8244 8244 8246 8244 8240 8239 8240 8236 8238 8237 8234 8230 8230 8229 8228 8228 8230 8230 8233 8234 8229 8228 8226 8226 8228 8226 8225 8226 8223 8219 8221 8220 8220 8223 8220 8222 8228 8226 8226 8228 8229 8231 8237 8241 8243 8248 8246 8245 8238 8237 8233 8232 8228 8228 8229 8225 8223 8226 8227 8226 8228 8225 8227 8225 8227 8227 8226 8231 8229 8235 8232 8228 8229 8230 8236 8231 
8256 8253 8249 8244 8245 8238 8245 8242 8241 8240 8241 8238 8234 8237 8236 8232 8232 8230 8227 8232 8229 8229 8231 8232 8229 8226 8225 8225 8232 8229 8230 8228 8227 8223 8221 8224 8225 8225 8223 8224 8229 8228 8230 8230 8232 8235 8236 8243 8245 8245 8246 8246 8240 8235 8230 8229 8229 8226 8226 8226 8220 8222 8224 8224 8224 8226 8224 8223 8228 8227 8228 8230 8229 8230 8229 8227 8226 8228 8228 8227 
8255 8255 8248 8244 8242 8243 8243 8241 8239 8241 8245 8238 8237 8244 8240 8232 8232 8230 8228 8231 8233 8231 8234 8233 8228 8227 8226 8231 8231 8234 8232 8225 8225 8228 8222 8228 8227 8224 8223 8227 8228 8231 8232 8235 8231 8237 8240 8242 8245 8249 8243 8244 8236 8233 8225 8228 8227 8226 8223 8217 8218 8221 8223 8224 8227 8226 8224 8223 8225 8228 8227 8229 8226 8226 8229 8228 8227 8229 8232 8228 
8257 8255 8249 8243 8240 8240 8243 8240 8241 8242 8246 8240 8241 8241 8236 8230 8229 8229 8230 8233 8233 8232 8235 8232 8233 8229 8226 8230 8235 8236 8231 8226 8226 8225 8221 8228 8227 8225 8226 8225 8229 8229 8233 8233 8234 8236 8237 8245 8249 8248 8246 8239 8234 8229 8228 8226 8227 8224 8220 8219 8219 8216 8219 8221 8221 8223 8226 8224 8227 8227 8226 8229 8225 8226 8227 8224 8227 8229 8234 8225 
8262 8259 8248 8240 8245 8239 8242 8237 8239 8241 8243 8241 8238 8237 8235 8234 8234 8231 8232 8230 8234 8231 8229 8228 8228 8233 8229 8230 8235 8235 8235 8228 8224 8224 8220 8224 8226 8226 8227 8229 8233 8228 8230 8229 8233 8237 8242 8244 8248 8245 8244 8238 8230 8229 8225 8223 8225 8224 8220 8216 8216 8217 8221 8220 8224 8226 8228 8225 8227 8226 8226 8225 8224 8226 8223 8221 8219 8225 8231 8228 
8266 8261 8251 8246 8241 8240 8235 8238 8239 8238 8241 8236 8236 8238 8234 8228 8231 8229 8228 8230 8230 8228 8228 8231 8232 8230 8232 8235 8240 8236 8230 8225 8226 8223 8220 8223 8226 8225 8227 8225 8229 8227 8228 8228 8229 8235 8240 8244 8245 8242 8242 8238 8232 8225 8224 8225 8220 8221 8219 8215 8215 8217 8218 8221 8222 8225 8226 8224 8229 8225 8226 8226 8225 8219 8221 8215 8217 8223 8229 8227 
8270 8258 8247 8243 8237 8235 8240 8236 8234 8237 8237 8231 8236 8233 8231 8230 8233 8229 8227 8229 8226 8228 8225 8229 8228 8233 8234 8239 8235 8238 8231 8224 8227 8224 8222 8227 8223 8225 8227 8228 8229 8226 8229 8225 8234 8239 8236 8244 8247 8241 8241 8237 8233 8224 8225 8224 8222 8219 8218 8213 8217 8218 8224 8219 8220 8223 8225 8226 8225 8226 8224 8226 8221 8223 8219 8215 8213 8223 8229 8228 


