P2
80 60
8229
8158 8163 8163 8159 8162 8161 8161 8161 8165 8162 8168 8165 8170 8171 8171 8176 8182 8183 8185 8187 8189 8188 8185 8189 8185 8186 8190 8197 8196 8200 8201 8200 8205 8205 8208 8207 8209 8208 8209 8208 8208 8208 8212 8215 8207 8205 8201 8206 8204 8200 8199 8197 8197 8198 8191 8184 8183 8180 8180 8178 8180 8184 8181 8179 8179 8182 8180 8179 8180 8184 8181 8187 8188 8187 8185 8189 8187 8186 8188 8187 
8158 8163 8160 8160 8160 8163 8164 8163 8164 8165 8163 8169 8169 8173 8179 8183 8181 8186 8191 8187 8188 8190 8187 8187 8186 8186 8191 8196 8196 8203 8203 8203 8204 8204 8209 8207 8212 8210 8209 8208 8209 8210 8213 8214 8208 8204 8203 8204 8205 8202 8201 8202 8196 8194 8189 8185 8180 8180 8182 8180 8180 8181 8181 8178 8180 8180 8181 8181 8179 8184 8182 8183 8186 8186 8185 8189 8188 8186 8189 8187 
8154 8165 8161 8166 8167 8167 8168 8170 8171 8171 8175 8172 8176 8177 8182 8183 8182 8189 8189 8189 8190 8190 8190 8190 8192 8193 8190 8198 8200 8205 8207 8202 8205 8207 8212 8214 8213 8209 8212 8210 8210 8212 8201 8197 8197 8198 8201 8205 8205 8203 8202 8202 8200 8197 8194 8189 8184 8179 8182 8182 8182 8178 8182 8176 8175 8181 8183 8183 8183 8183 8182 8182 8185 8186 8186 8188 8186 8185 8191 8181 
8158 8166 8163 8172 8171 8173 8175 8173 8177 8177 8178 8178 8180 8182 8184 8182 8188 8189 8195 8194 8189 8188 8189 8193 8190 8194 8193 8197 8201 8202 8204 8202 8205 8209 8210 8212 8213 8213 8214 8213 8212 8209 8175 8172 8168 8176 8198 8203 8205 8204 8202 8206 8204 8198 8193 8190 8184 8180 8183 8180 8183 8180 8183 8179 8182 8181 8183 8180 8180 8183 8185 8185 8183 8187 8184 8192 8183 8183 8187 8181 
8156 8164 8163 8172 8177 8177 8175 8180 8175 8178 8177 8179 8180 8182 8185 8185 8188 8190 8193 8191 8192 8191 8192 8189 8189 8190 8193 8199 8200 8205 8206 8203 8205 8208 8212 8213 8213 8215 8214 8211 8210 8208 8172 8164 8165 8179 8199 8206 8205 8204 8203 8205 8205 8201 8197 8194 8187 8185 8185 8184 8184 8184 8182 8180 8180 8181 8182 8183 8187 8183 8186 8184 8182 8184 8184 8189 8184 8181 8185 8176 
8161 8165 8163 8173 8176 8178 8178 8183 8178 8179 8179 8176 8183 8184 8184 8184 8190 8189 8190 8193 8188 8192 8190 8191 8194 8193 8194 8200 8202 8203 8207 8206 8204 8211 8210 8214 8216 8214 8217 8213 8212 8203 8167 8168 8161 8177 8202 8205 8207 8206 8205 8203 8201 8200 8196 8195 8188 8187 8187 8183 8185 8183 8185 8184 8182 8180 8183 8184 8182 8182 8185 8184 8183 8187 8186 8187 8180 8181 8182 8176 
8162 8170 8168 8172 8176 8176 8179 8184 8179 8179 8179 8179 8183 8182 8184 8182 8187 8189 8191 8193 8194 8190 8192 8193 8193 8197 8196 8200 8199 8205 8204 8206 8206 8213 8212 8212 8216 8215 8216 8216 8213 8206 8170 8166 8164 8181 8203 8206 8205 8207 8203 8204 8202 8199 8198 8195 8190 8190 8188 8190 8187 8187 8186 8186 8184 8185 8186 8185 8185 8185 8187 8184 8184 8184 8185 8187 8185 8181 8182 8172 
8164 8167 8168 8176 8177 8178 8181 8181 8180 8176 8175 8177 8179 8185 8184 8188 8190 8192 8190 8192 8193 8190 8191 8188 8195 8195 8201 8202 8200 8203 8203 8204 8205 8211 8212 8213 8216 8216 8215 8215 8212 8203 8167 8164 8165 8186 8203 8203 8206 8204 8204 8204 8202 8201 8198 8192 8189 8190 8188 8189 8188 8188 8189 8187 8189 8187 8188 8188 8187 8191 8187 8187 8185 8183 8181 8188 8182 8178 8179 8176 
8168 8172 8172 8178 8180 8179 8184 8184 8176 8177 8175 8181 8184 8185 8183 8188 8187 8190 8190 8194 8192 8191 8192 8192 8192 8199 8199 8198 8203 8203 8204 8203 8205 8210 8208 8212 8215 8214 8219 8215 8210 8202 8168 8166 8168 8188 8202 8203 8204 8202 8204 8202 8202 8200 8200 8192 8190 8187 8188 8189 8190 8190 8187 8189 8188 8189 8190 8191 8192 8193 8192 8192 8190 8185 8184 8189 8181 8178 8182 8173 
8168 8172 8173 8181 8181 8179 8181 8185 8178 8178 8179 8179 8184 8186 8188 8188 8190 8190 8190 8193 8191 8190 8191 8189 8191 8189 8196 8201 8199 8203 8201 8202 8201 8208 8208 8212 8211 8210 8214 8211 8208 8200 8167 8167 8170 8192 8204 8203 8204 8201 8203 8202 8201 8201 8197 8196 8190 8187 8190 8188 8191 8189 8187 8189 8192 8189 8191 8193 8192 8192 8191 8192 8189 8186 8181 8185 8180 8176 8180 8173 
8168 8177 8177 8186 8182 8182 8188 8181 8180 8182 8182 8182 8186 8186 8187 8188 8188 8190 8193 8193 8193 8189 8188 8189 8190 8193 8195 8200 8199 8198 8201 8199 8202 8204 8208 8210 8211 8211 8210 8211 8208 8196 8167 8168 8167 8193 8204 8203 8200 8201 8199 8202 8201 8197 8196 8196 8190 8189 8191 8190 8194 8191 8190 8188 8193 8187 8192 8192 8191 8192 8195 8191 8193 8189 8183 8183 8179 8177 8180 8173 
8168 8175 8180 8179 8179 8182 8181 8183 8180 8181 8181 8180 8188 8186 8189 8188 8187 8191 8190 8193 8191 8189 8191 8190 8188 8194 8194 8197 8198 8198 8200 8200 8201 8206 8205 8209 8209 8209 8212 8211 8208 8193 8165 8165 8170 8195 8200 8205 8203 8201 8199 8203 8200 8199 8196 8193 8191 8187 8188 8188 8193 8191 8190 8189 8191 8190 8193 8190 8191 8190 8190 8191 8191 8189 8183 8182 8179 8176 8176 8177 
8170 8183 8179 8183 8182 8181 8183 8182 8183 8181 8183 8183 8187 8188 8187 8188 8191 8189 8192 8192 8190 8191 8190 8190 8192 8194 8193 8194 8197 8200 8204 8203 8203 8207 8207 8208 8208 8207 8208 8207 8206 8192 8166 8167 8170 8193 8201 8205 8204 8199 8198 8197 8198 8198 8195 8196 8188 8187 8191 8189 8191 8190 8192 8190 8189 8190 8192 8193 8190 8190 8192 8192 8194 8191 8184 8182 8177 8178 8182 8176 
8179 8180 8180 8183 8185 8184 8182 8184 8182 8185 8183 8183 8187 8188 8188 8186 8189 8189 8192 8190 8191 8188 8190 8190 8190 8194 8196 8199 8198 8197 8197 8197 8201 8207 8205 8208 8207 8205 8205 8206 8204 8185 8164 8163 8169 8198 8201 8201 8203 8195 8176 8188 8194 8192 8193 8196 8189 8189 8190 8191 8189 8190 8188 8187 8186 8191 8192 8192 8189 8190 8191 8192 8186 8186 8182 8180 8182 8175 8180 8173 
8180 8184 8181 8187 8186 8184 8182 8184 8181 8181 8185 8186 8192 8186 8188 8190 8190 8192 8191 8191 8190 8192 8192 8188 8194 8192 8193 8198 8201 8200 8198 8201 8200 8202 8205 8193 8199 8192 8186 8190 8194 8167 8165 8167 8165 8197 8201 8201 8204 8198 8171 8168 8175 8170 8183 8195 8190 8189 8188 8188 8187 8188 8187 8186 8188 8191 8190 8187 8188 8190 8188 8188 8187 8186 8183 8180 8178 8177 8181 8172 
8178 8182 8183 8182 8187 8186 8187 8181 8185 8187 8187 8185 8190 8188 8189 8189 8189 8188 8192 8192 8190 8191 8190 8190 8192 8196 8196 8201 8198 8199 8199 8199 8202 8202 8202 8188 8182 8162 8158 8156 8158 8160 8163 8162 8171 8198 8200 8201 8199 8175 8157 8158 8160 8161 8177 8191 8188 8189 8189 8192 8191 8187 8189 8188 8188 8191 8189 8188 8187 8189 8190 8186 8188 8185 8185 8182 8178 8179 8177 8167 
8184 8181 8185 8184 8189 8187 8190 8183 8187 8186 8186 8188 8190 8187 8190 8190 8190 8193 8192 8192 8194 8193 8192 8193 8193 8194 8193 8198 8198 8200 8198 8193 8196 8193 8176 8176 8160 8153 8153 8152 8158 8167 8162 8163 8168 8192 8198 8194 8177 8161 8158 8159 8160 8164 8174 8184 8187 8188 8188 8190 8191 8189 8188 8188 8190 8192 8190 8187 8187 8186 8188 8189 8187 8187 8184 8182 8178 8175 8176 8170 
8184 8186 8184 8186 8187 8186 8185 8186 8187 8190 8192 8191 8193 8192 8187 8189 8191 8189 8194 8194 8194 8194 8192 8194 8193 8197 8195 8197 8200 8199 8185 8161 8165 8168 8162 8164 8158 8153 8151 8154 8158 8168 8163 8160 8167 8166 8166 8177 8185 8164 8155 8154 8159 8160 8176 8185 8186 8186 8190 8192 8189 8187 8190 8188 8190 8189 8190 8187 8187 8189 8188 8188 8182 8188 8185 8181 8177 8175 8177 8170 
8187 8187 8185 8187 8188 8184 8188 8189 8189 8190 8188 8189 8190 8193 8192 8193 8193 8193 8194 8192 8194 8195 8196 8196 8196 8197 8195 8196 8194 8173 8162 8165 8178 8198 8198 8172 8157 8153 8154 8153 8153 8157 8160 8160 8160 8155 8151 8164 8163 8159 8155 8155 8155 8156 8155 8168 8182 8184 8189 8190 8193 8194 8189 8189 8190 8191 8191 8188 8188 8186 8186 8185 8183 8185 8183 8182 8177 8174 8180 8177 
8182 8190 8184 8188 8189 8188 8187 8190 8189 8189 8187 8190 8190 8193 8193 8193 8193 8194 8193 8193 8194 8194 8197 8196 8196 8199 8195 8194 8181 8165 8190 8196 8203 8205 8203 8182 8158 8152 8150 8151 8149 8155 8158 8159 8156 8153 8157 8152 8152 8151 8150 8150 8154 8159 8161 8161 8179 8185 8189 8189 8194 8193 8190 8191 8192 8190 8195 8190 8189 8188 8187 8182 8183 8186 8182 8184 8178 8177 8183 8178 
8185 8189 8188 8188 8189 8188 8191 8190 8186 8189 8192 8189 8192 8191 8193 8195 8195 8193 8198 8195 8197 8194 8198 8197 8197 8199 8193 8160 8155 8166 8190 8203 8199 8193 8178 8169 8158 8160 8162 8155 8150 8151 8154 8159 8153 8153 8154 8152 8151 8157 8153 8150 8153 8156 8155 8154 8173 8185 8188 8188 8194 8193 8192 8188 8191 8189 8191 8191 8190 8189 8191 8186 8184 8185 8183 8183 8179 8177 8180 8173 
8185 8188 8190 8189 8188 8189 8189 8189 8190 8192 8193 8191 8196 8195 8196 8194 8196 8196 8197 8197 8195 8195 8196 8194 8197 8198 8198 8179 8159 8186 8181 8196 8179 8172 8165 8165 8161 8157 8160 8158 8151 8156 8152 8154 8151 8153 8150 8161 8160 8160 8156 8153 8153 8155 8153 8154 8164 8181 8187 8189 8190 8189 8191 8192 8192 8191 8193 8189 8192 8190 8191 8190 8187 8188 8186 8185 8180 8175 8181 8175 
8184 8190 8191 8190 8188 8190 8189 8189 8193 8193 8197 8194 8194 8191 8195 8195 8195 8199 8195 8194 8197 8198 8198 8197 8199 8199 8200 8198 8174 8162 8166 8165 8162 8158 8157 8159 8158 8158 8157 8160 8157 8159 8156 8156 8156 8153 8151 8158 8162 8153 8152 8153 8158 8158 8155 8172 8172 8187 8191 8189 8193 8194 8190 8192 8193 8194 8194 8190 8192 8190 8191 8191 8188 8186 8186 8188 8182 8178 8180 8177 
8187 8192 8189 8189 8189 8190 8190 8193 8193 8194 8196 8192 8196 8194 8197 8195 8197 8197 8195 8197 8197 8197 8196 8196 8198 8199 8199 8199 8171 8156 8160 8155 8150 8156 8156 8154 8154 8155 8160 8161 8157 8157 8157 8158 8154 8153 8151 8151 8154 8150 8151 8154 8169 8159 8154 8177 8185 8189 8191 8191 8191 8193 8192 8192 8191 8195 8193 8191 8191 8190 8191 8188 8191 8185 8188 8189 8184 8181 8183 8176 
8187 8194 8193 8190 8191 8190 8192 8192 8191 8196 8195 8193 8195 8196 8197 8195 8197 8198 8196 8197 8195 8197 8200 8197 8201 8198 8194 8187 8169 8157 8154 8154 8154 8155 8154 8155 8152 8154 8154 8153 8154 8157 8160 8158 8157 8153 8152 8151 8150 8149 8153 8153 8153 8152 8154 8170 8182 8191 8194 8192 8191 8193 8193 8191 8192 8195 8194 8191 8192 8189 8189 8187 8189 8188 8184 8187 8183 8181 8183 8176 
8188 8191 8190 8195 8190 8194 8192 8194 8195 8194 8195 8196 8200 8199 8200 8197 8197 8200 8197 8195 8195 8196 8200 8199 8196 8188 8164 8155 8151 8153 8151 8150 8150 8151 8155 8159 8157 8153 8156 8155 8154 8155 8160 8160 8158 8155 8150 8148 8152 8151 8156 8155 8153 8152 8160 8172 8207 8201 8197 8193 8196 8194 8191 8193 8191 8194 8195 8193 8193 8190 8192 8190 8191 8189 8185 8189 8185 8178 8183 8180 
8187 8191 8191 8193 8190 8193 8191 8193 8194 8194 8194 8197 8201 8197 8200 8197 8198 8198 8199 8198 8194 8196 8199 8197 8186 8161 8161 8157 8154 8149 8152 8146 8149 8149 8154 8153 8157 8155 8155 8154 8154 8154 8163 8158 8159 8155 8152 8151 8152 8152 8154 8157 8154 8154 8167 8175 8210 8224 8199 8196 8194 8193 8191 8191 8193 8195 8193 8192 8190 8192 8193 8190 8189 8188 8186 8190 8182 8182 8185 8181 
8190 8194 8192 8193 8191 8194 8192 8193 8198 8194 8197 8198 8202 8200 8200 8197 8198 8199 8199 8199 8198 8197 8199 8200 8192 8188 8191 8165 8161 8150 8153 8148 8149 8153 8155 8156 8154 8153 8155 8155 8156 8153 8158 8162 8158 8155 8152 8153 8154 8152 8153 8152 8155 8155 8158 8170 8188 8229 8200 8193 8195 8194 8194 8192 8195 8191 8195 8192 8191 8191 8192 8190 8191 8190 8189 8191 8183 8183 8187 8179 
8190 8198 8196 8195 8196 8195 8195 8194 8198 8194 8196 8196 8200 8199 8197 8197 8196 8198 8201 8199 8197 8197 8199 8197 8199 8198 8193 8168 8160 8157 8155 8149 8150 8153 8156 8156 8157 8150 8154 8158 8155 8154 8158 8161 8157 8154 8154 8153 8155 8151 8153 8156 8156 8156 8153 8163 8178 8209 8202 8195 8194 8193 8194 8191 8193 8192 8194 8194 8191 8190 8191 8190 8188 8186 8189 8191 8188 8188 8189 8178 
8190 8197 8197 8195 8196 8195 8198 8197 8199 8199 8198 8195 8196 8197 8197 8196 8199 8199 8201 8199 8197 8197 8197 8198 8197 8197 8183 8161 8154 8153 8155 8150 8149 8155 8152 8150 8155 8154 8155 8156 8154 8152 8154 8158 8159 8156 8154 8152 8152 8150 8150 8153 8155 8154 8151 8155 8181 8185 8184 8192 8193 8194 8191 8190 8191 8191 8192 8193 8191 8188 8189 8190 8188 8185 8187 8190 8189 8187 8187 8182 
8192 8197 8198 8197 8196 8198 8200 8198 8196 8199 8197 8196 8201 8197 8197 8197 8199 8196 8197 8200 8197 8196 8199 8197 8197 8200 8177 8162 8154 8159 8156 8149 8148 8153 8148 8149 8153 8154 8154 8154 8156 8156 8153 8162 8158 8154 8154 8154 8153 8153 8154 8153 8154 8154 8153 8159 8179 8192 8178 8191 8191 8191 8196 8191 8192 8195 8191 8193 8191 8190 8188 8191 8189 8188 8189 8194 8189 8186 8184 8184 
8194 8194 8195 8196 8197 8196 8199 8198 8198 8198 8196 8197 8201 8201 8197 8197 8196 8199 8198 8198 8196 8199 8199 8200 8197 8199 8176 8163 8158 8159 8151 8149 8152 8154 8155 8150 8149 8149 8152 8156 8157 8158 8155 8159 8159 8156 8153 8153 8152 8152 8154 8156 8152 8152 8154 8158 8173 8194 8178 8189 8193 8192 8192 8192 8192 8190 8194 8190 8191 8189 8187 8187 8190 8189 8188 8190 8187 8186 8188 8186 
8195 8198 8198 8201 8199 8197 8202 8198 8199 8197 8197 8196 8201 8198 8198 8196 8197 8200 8197 8196 8196 8198 8199 8198 8200 8199 8176 8167 8167 8157 8149 8150 8149 8153 8155 8156 8148 8150 8151 8154 8155 8156 8153 8157 8158 8157 8153 8153 8153 8151 8152 8156 8156 8153 8155 8161 8166 8183 8180 8189 8191 8187 8191 8189 8192 8190 8189 8191 8190 8191 8187 8187 8188 8188 8189 8191 8186 8184 8189 8185 
8196 8201 8197 8202 8201 8200 8200 8200 8198 8200 8201 8198 8198 8198 8197 8196 8195 8200 8200 8200 8196 8199 8200 8202 8199 8199 8175 8173 8170 8157 8151 8150 8151 8153 8157 8153 8151 8150 8148 8147 8148 8151 8151 8156 8155 8155 8155 8154 8158 8156 8154 8156 8158 8156 8160 8163 8167 8174 8177 8187 8190 8191 8192 8193 8191 8191 8193 8190 8190 8190 8188 8189 8187 8188 8184 8191 8187 8183 8188 8182 
8195 8200 8204 8202 8202 8201 8204 8201 8198 8201 8198 8198 8199 8199 8198 8196 8200 8198 8199 8198 8197 8199 8198 8199 8200 8199 8182 8193 8175 8158 8153 8150 8151 8152 8152 8154 8150 8149 8147 8150 8150 8150 8154 8156 8155 8152 8156 8156 8159 8153 8156 8155 8157 8156 8157 8157 8166 8177 8181 8188 8188 8190 8190 8192 8193 8190 8191 8188 8188 8191 8188 8188 8187 8186 8189 8189 8186 8186 8187 8185 
8198 8203 8206 8199 8203 8201 8201 8203 8202 8201 8197 8198 8199 8197 8198 8197 8201 8200 8200 8198 8199 8199 8201 8202 8201 8198 8184 8200 8182 8160 8156 8148 8148 8147 8152 8153 8151 8149 8150 8149 8151 8148 8155 8156 8158 8152 8153 8155 8155 8155 8155 8157 8158 8158 8154 8153 8164 8178 8181 8190 8189 8190 8191 8190 8188 8191 8191 8192 8185 8188 8189 8189 8187 8187 8184 8187 8186 8183 8189 8184 
8197 8203 8205 8205 8203 8200 8202 8202 8201 8200 8200 8200 8199 8199 8199 8196 8197 8200 8197 8199 8199 8197 8202 8199 8198 8200 8194 8186 8180 8163 8154 8150 8147 8150 8150 8152 8152 8151 8149 8151 8152 8153 8157 8157 8158 8154 8153 8153 8156 8156 8157 8157 8161 8162 8158 8162 8169 8174 8183 8190 8190 8191 8191 8191 8191 8191 8191 8190 8188 8188 8190 8186 8187 8187 8186 8188 8187 8183 8187 8185 
8199 8202 8206 8202 8202 8200 8201 8202 8201 8200 8201 8197 8200 8196 8196 8196 8197 8199 8200 8200 8198 8199 8199 8201 8200 8198 8200 8194 8178 8162 8154 8151 8149 8152 8152 8151 8155 8153 8155 8154 8154 8154 8157 8158 8156 8154 8153 8153 8154 8155 8158 8163 8163 8162 8160 8162 8171 8174 8187 8191 8191 8195 8189 8191 8194 8191 8189 8190 8187 8189 8186 8186 8186 8185 8185 8190 8187 8184 8187 8185 
8198 8202 8205 8208 8207 8201 8205 8201 8202 8200 8201 8202 8199 8197 8200 8199 8196 8196 8202 8198 8199 8198 8200 8199 8199 8199 8203 8208 8177 8167 8159 8153 8151 8155 8153 8155 8157 8156 8156 8153 8153 8154 8157 8158 8157 8157 8154 8152 8155 8157 8157 8162 8165 8164 8159 8170 8174 8181 8189 8192 8196 8194 8192 8192 8193 8194 8196 8193 8192 8189 8190 8186 8187 8187 8188 8189 8191 8188 8189 8191 
8199 8207 8207 8204 8206 8204 8204 8200 8201 8202 8202 8201 8198 8197 8199 8199 8199 8196 8199 8199 8198 8196 8200 8199 8199 8199 8201 8206 8190 8174 8164 8154 8153 8156 8155 8156 8154 8155 8155 8151 8153 8155 8160 8158 8159 8157 8155 8156 8157 8156 8161 8162 8165 8161 8167 8176 8175 8187 8192 8194 8193 8192 8193 8194 8196 8192 8195 8195 8193 8194 8188 8189 8187 8188 8189 8192 8190 8189 8188 8182 
8203 8208 8206 8208 8204 8205 8203 8202 8202 8199 8202 8201 8202 8200 8196 8198 8197 8196 8194 8194 8198 8199 8204 8198 8198 8200 8201 8205 8199 8186 8172 8155 8156 8159 8159 8156 8156 8155 8150 8155 8153 8154 8159 8159 8159 8156 8158 8156 8156 8157 8157 8163 8162 8167 8174 8182 8184 8190 8194 8193 8194 8195 8193 8194 8195 8194 8189 8194 8195 8194 8192 8188 8188 8188 8188 8193 8189 8188 8192 8184 
8203 8206 8202 8205 8205 8204 8203 8202 8200 8204 8207 8202 8202 8197 8199 8201 8198 8196 8196 8197 8198 8198 8201 8198 8200 8198 8199 8202 8198 8191 8192 8165 8157 8156 8163 8160 8160 8155 8156 8156 8157 8154 8158 8157 8161 8157 8158 8160 8157 8159 8162 8161 8162 8169 8179 8181 8189 8192 8191 8191 8193 8194 8194 8192 8196 8192 8192 8192 8191 8192 8189 8189 8192 8185 8190 8191 8192 8187 8193 8187 
8201 8206 8204 8203 8206 8203 8202 8203 8203 8200 8203 8204 8204 8199 8201 8199 8201 8200 8197 8198 8199 8199 8202 8201 8199 8202 8202 8204 8200 8181 8196 8196 8177 8165 8159 8159 8160 8159 8159 8157 8157 8160 8162 8160 8161 8157 8155 8154 8162 8162 8162 8164 8170 8182 8182 8186 8195 8192 8193 8196 8194 8194 8194 8196 8197 8193 8192 8192 8193 8192 8196 8191 8189 8191 8190 8195 8195 8190 8191 8184 
8202 8205 8204 8204 8200 8200 8202 8203 8201 8203 8201 8200 8203 8202 8202 8200 8200 8200 8201 8201 8197 8199 8198 8198 8199 8202 8199 8204 8204 8189 8185 8193 8201 8180 8166 8161 8159 8161 8159 8163 8159 8161 8165 8164 8165 8162 8159 8158 8163 8164 8166 8172 8182 8182 8183 8195 8194 8195 8193 8195 8197 8197 8195 8195 8195 8193 8194 8193 8191 8194 8195 8191 8194 8194 8192 8196 8195 8192 8194 8187 
8198 8204 8204 8208 8203 8204 8207 8204 8203 8203 8203 8200 8204 8201 8199 8201 8199 8203 8199 8200 8198 8198 8199 8199 8200 8201 8201 8206 8206 8197 8182 8179 8186 8195 8177 8167 8164 8158 8159 8164 8161 8162 8165 8168 8167 8162 8161 8162 8164 8171 8178 8184 8182 8183 8190 8197 8193 8194 8194 8196 8195 8194 8197 8192 8194 8194 8194 8191 8195 8194 8193 8192 8191 8192 8190 8196 8194 8191 8193 8182 
8199 8203 8205 8202 8202 8203 8205 8204 8202 8201 8200 8202 8204 8203 8201 8200 8200 8200 8202 8198 8200 8198 8200 8200 8203 8201 8201 8205 8207 8205 8192 8178 8179 8186 8183 8179 8172 8165 8164 8164 8164 8165 8167 8168 8167 8165 8167 8169 8179 8178 8181 8180 8184 8185 8195 8202 8197 8193 8195 8195 8195 8200 8197 8194 8194 8197 8192 8196 8193 8192 8191 8193 8192 8192 8191 8196 8190 8188 8193 8189 
8200 8207 8206 8204 8203 8200 8204 8201 8205 8205 8202 8202 8202 8204 8205 8200 8203 8203 8201 8200 8202 8200 8199 8203 8201 8203 8203 8205 8208 8208 8202 8185 8181 8189 8193 8190 8184 8174 8168 8171 8167 8172 8171 8176 8175 8177 8178 8178 8177 8177 8182 8185 8184 8198 8202 8203 8193 8196 8194 8197 8196 8196 8194 8193 8193 8195 8195 8193 8193 8194 8192 8196 8194 8194 8193 8195 8194 8190 8194 8183 
8201 8207 8204 8206 8203 8204 8203 8205 8205 8203 8203 8203 8206 8204 8202 8201 8201 8205 8200 8201 8202 8202 8203 8201 8203 8203 8203 8207 8211 8214 8207 8200 8184 8186 8193 8201 8201 8190 8183 8179 8178 8180 8180 8183 8181 8177 8178 8174 8178 8181 8184 8184 8194 8203 8200 8200 8197 8195 8199 8195 8198 8197 8194 8194 8193 8192 8194 8192 8195 8194 8194 8192 8193 8193 8194 8193 8191 8190 8194 8184 
8198 8206 8206 8204 8204 8204 8203 8206 8201 8203 8203 8202 8206 8203 8203 8201 8203 8202 8198 8200 8200 8201 8199 8204 8203 8204 8202 8208 8210 8213 8214 8208 8202 8191 8189 8195 8199 8201 8193 8186 8183 8180 8179 8178 8177 8173 8176 8179 8185 8184 8188 8200 8206 8205 8203 8202 8198 8198 8197 8194 8197 8196 8194 8192 8190 8193 8194 8195 8194 8192 8195 8195 8195 8193 8194 8197 8193 8189 8195 8193 
8201 8204 8205 8205 8205 8205 8203 8202 8204 8205 8203 8204 8206 8203 8204 8201 8201 8200 8201 8198 8200 8201 8203 8206 8203 8204 8206 8208 8213 8211 8216 8211 8211 8207 8198 8190 8191 8197 8196 8200 8201 8194 8192 8193 8190 8188 8186 8187 8189 8194 8203 8207 8211 8205 8205 8205 8196 8197 8195 8197 8196 8197 8193 8191 8191 8195 8193 8194 8197 8196 8197 8195 8197 8196 8195 8194 8190 8193 8198 8193 
8204 8205 8208 8207 8205 8204 8206 8205 8203 8204 8204 8202 8204 8202 8202 8202 8202 8201 8200 8202 8201 8201 8207 8204 8203 8204 8207 8209 8212 8212 8214 8214 8215 8215 8214 8207 8204 8195 8193 8192 8194 8193 8197 8194 8193 8189 8189 8191 8201 8205 8207 8208 8207 8208 8207 8205 8198 8197 8196 8193 8197 8198 8196 8194 8196 8197 8192 8196 8198 8194 8196 8197 8198 8197 8191 8194 8193 8194 8194 8187 
8204 8206 8208 8207 8204 8204 8203 8204 8202 8208 8203 8205 8203 8203 8204 8203 8202 8204 8201 8200 8202 8202 8203 8204 8203 8206 8209 8213 8214 8215 8215 8216 8216 8218 8221 8221 8218 8215 8210 8203 8201 8202 8203 8202 8205 8205 8205 8210 8210 8210 8207 8211 8211 8210 8206 8207 8196 8198 8195 8198 8198 8194 8196 8194 8195 8194 8194 8198 8196 8196 8196 8196 8196 8195 8193 8197 8192 8192 8194 8186 
8205 8209 8208 8207 8201 8205 8205 8205 8205 8203 8203 8204 8206 8204 8203 8203 8200 8201 8201 8201 8203 8204 8204 8202 8206 8206 8207 8213 8212 8218 8218 8212 8215 8219 8221 8220 8221 8221 8218 8219 8220 8218 8220 8220 8214 8210 8209 8211 8211 8208 8208 8209 8211 8206 8207 8207 8199 8196 8197 8198 8197 8198 8197 8193 8194 8197 8197 8194 8197 8195 8196 8194 8195 8196 8194 8194 8194 8190 8193 8183 
8205 8213 8208 8205 8204 8205 8208 8206 8200 8202 8203 8199 8204 8204 8203 8201 8202 8201 8200 8205 8199 8202 8205 8204 8206 8207 8206 8212 8210 8213 8218 8215 8215 8218 8222 8221 8224 8222 8219 8221 8220 8220 8222 8220 8219 8215 8211 8213 8212 8210 8209 8210 8210 8209 8206 8203 8198 8198 8197 8197 8200 8197 8197 8191 8195 8191 8192 8194 8193 8195 8196 8193 8196 8196 8191 8196 8192 8190 8192 8189 
8204 8210 8208 8207 8205 8207 8204 8205 8204 8202 8200 8199 8207 8206 8203 8202 8201 8200 8201 8200 8199 8202 8205 8202 8204 8207 8206 8210 8214 8214 8218 8214 8217 8216 8222 8224 8221 8222 8221 8220 8220 8223 8222 8222 8222 8215 8214 8213 8212 8209 8211 8211 8211 8210 8206 8205 8196 8197 8200 8197 8195 8197 8194 8194 8192 8199 8194 8193 8193 8192 8195 8194 8195 8190 8193 8196 8192 8189 8193 8189 
8206 8211 8209 8204 8203 8202 8204 8200 8202 8199 8198 8204 8206 8202 8204 8198 8197 8200 8197 8199 8198 8200 8202 8201 8202 8206 8206 8209 8212 8213 8218 8213 8210 8219 8220 8224 8224 8220 8221 8219 8223 8222 8226 8226 8219 8215 8215 8214 8211 8209 8213 8213 8213 8209 8204 8204 8197 8198 8196 8197 8195 8195 8196 8193 8192 8192 8192 8190 8194 8198 8196 8195 8197 8196 8194 8192 8193 8191 8192 8183 
8204 8207 8206 8204 8201 8200 8202 8202 8201 8201 8202 8200 8203 8202 8201 8198 8198 8200 8201 8197 8196 8199 8200 8201 8201 8205 8206 8208 8211 8212 8214 8215 8213 8221 8219 8223 8221 8221 8222 8219 8222 8223 8226 8226 8219 8214 8212 8215 8218 8214 8214 8212 8209 8209 8203 8201 8197 8197 8198 8193 8196 8195 8195 8194 8191 8192 8196 8195 8196 8192 8196 8194 8194 8192 8191 8192 8191 8187 8192 8188 
8208 8210 8207 8208 8202 8201 8202 8199 8199 8198 8199 8198 8202 8200 8201 8198 8200 8200 8198 8200 8196 8196 8198 8199 8200 8204 8205 8208 8209 8211 8214 8209 8212 8216 8217 8218 8222 8221 8219 8221 8219 8219 8222 8225 8223 8215 8214 8214 8216 8214 8214 8211 8210 8208 8202 8202 8196 8195 8197 8196 8194 8197 8193 8194 8191 8192 8191 8195 8196 8193 8196 8194 8190 8187 8190 8194 8189 8186 8192 8183 
8211 8213 8207 8202 8202 8197 8198 8201 8201 8200 8201 8198 8200 8196 8199 8198 8197 8196 8194 8201 8196 8199 8198 8197 8200 8204 8200 8205 8208 8211 8210 8209 8209 8214 8217 8221 8219 8217 8220 8216 8220 8218 8221 8219 8219 8212 8212 8212 8214 8212 8214 8209 8207 8206 8200 8202 8192 8192 8192 8195 8190 8192 8191 8191 8190 8190 8190 8194 8193 8195 8193 8193 8194 8189 8188 8191 8187 8187 8193 8180 
8217 8212 8208 8198 8201 8194 8199 8198 8201 8197 8199 8199 8200 8196 8197 8197 8199 8194 8197 8201 8196 8198 8200 8198 8201 8199 8198 8205 8210 8211 8209 8206 8211 8213 8215 8213 8215 8217 8214 8216 8214 8217 8215 8220 8214 8206 8208 8208 8209 8207 8207 8207 8204 8200 8192 8194 8188 8184 8180 8176 8175 8180 8186 8184 8184 8188 8192 8194 8191 8192 8195 8192 8189 8186 8190 8188 8186 8183 8192 8183 


