P2
80 60
8367
8280 8282 8288 8295 8304 8304 8304 8303 8307 8301 8303 8301 8300 8305 8303 8305 8304 8304 8305 8306 8308 8310 8307 8306 8311 8308 8313 8322 8324 8331 8327 8328 8328 8327 8332 8333 8336 8338 8340 8339 8341 8341 8342 8342 8343 8343 8343 8345 8341 8341 8338 8336 8339 8337 8335 8337 8335 8336 8337 8336 8336 8339 8341 8339 8343 8341 8340 8347 8348 8348 8350 8357 8361 8360 8361 8361 8362 8364 8367 8361 
8294 8293 8299 8297 8302 8304 8301 8305 8303 8302 8302 8300 8301 8300 8304 8306 8304 8308 8308 8311 8310 8309 8307 8311 8311 8308 8316 8322 8325 8330 8327 8332 8334 8334 8341 8336 8340 8340 8343 8345 8346 8344 8344 8341 8345 8343 8342 8344 8342 8340 8337 8337 8335 8335 8335 8331 8335 8334 8339 8339 8335 8338 8339 8341 8341 8340 8341 8345 8347 8345 8348 8355 8358 8357 8362 8359 8362 8363 8367 8363 
8302 8299 8299 8299 8305 8305 8304 8305 8302 8301 8300 8301 8301 8303 8305 8307 8306 8307 8312 8312 8312 8311 8311 8310 8310 8311 8315 8323 8323 8329 8330 8332 8337 8336 8342 8342 8339 8342 8344 8349 8345 8346 8348 8341 8344 8343 8342 8342 8342 8343 8339 8338 8336 8336 8336 8333 8334 8337 8339 8338 8337 8337 8337 8339 8338 8343 8343 8344 8347 8347 8348 8356 8359 8362 8362 8362 8364 8367 8367 8363 
8301 8297 8303 8304 8303 8311 8304 8305 8300 8299 8301 8298 8300 8301 8301 8307 8305 8309 8308 8310 8310 8310 8309 8307 8310 8310 8313 8322 8322 8325 8326 8332 8335 8336 8338 8340 8339 8337 8343 8348 8345 8345 8348 8345 8342 8341 8341 8346 8343 8339 8340 8337 8335 8336 8339 8333 8335 8336 8337 8340 8339 8339 8339 8338 8340 8341 8345 8344 8345 8347 8346 8351 8356 8358 8360 8362 8364 8361 8365 8363 
8303 8300 8302 8301 8299 8308 8301 8303 8301 8300 8298 8296 8297 8304 8302 8306 8304 8308 8310 8311 8310 8307 8307 8309 8311 8310 8314 8318 8324 8327 8329 8333 8335 8334 8335 8337 8337 8341 8340 8344 8344 8344 8344 8343 8343 8342 8341 8344 8341 8341 8338 8338 8335 8335 8336 8335 8335 8334 8338 8338 8338 8339 8338 8338 8340 8339 8340 8343 8343 8345 8346 8350 8353 8354 8361 8362 8363 8360 8361 8361 
8300 8304 8302 8297 8303 8301 8302 8300 8300 8299 8299 8300 8298 8300 8300 8301 8304 8305 8310 8311 8310 8312 8309 8311 8311 8313 8315 8321 8323 8323 8329 8333 8334 8333 8336 8334 8338 8339 8340 8341 8342 8344 8343 8342 8343 8341 8340 8341 8343 8342 8341 8338 8335 8336 8337 8334 8337 8335 8337 8340 8338 8338 8338 8339 8339 8340 8342 8344 8343 8345 8343 8346 8350 8356 8360 8358 8357 8358 8362 8360 
8304 8303 8301 8299 8302 8301 8301 8303 8303 8298 8299 8299 8299 8302 8301 8305 8303 8304 8309 8313 8309 8310 8311 8310 8314 8313 8314 8322 8322 8326 8327 8333 8332 8332 8336 8336 8334 8341 8341 8343 8345 8344 8344 8341 8343 8341 8341 8342 8341 8340 8336 8333 8335 8336 8337 8331 8337 8335 8338 8335 8337 8338 8337 8337 8340 8339 8341 8341 8343 8343 8341 8344 8347 8353 8357 8356 8357 8354 8360 8364 
8303 8300 8300 8300 8301 8304 8302 8305 8305 8299 8301 8302 8299 8303 8301 8303 8305 8305 8307 8312 8311 8311 8311 8313 8315 8315 8316 8319 8324 8329 8333 8336 8336 8336 8337 8340 8338 8340 8343 8344 8347 8344 8345 8341 8340 8337 8339 8340 8340 8339 8337 8335 8334 8334 8334 8334 8334 8335 8335 8334 8333 8337 8338 8338 8339 8339 8339 8339 8343 8342 8343 8342 8345 8352 8355 8352 8355 8355 8362 8360 
8303 8295 8301 8299 8306 8305 8303 8306 8302 8301 8303 8299 8299 8302 8303 8304 8304 8307 8310 8313 8310 8312 8313 8313 8315 8314 8319 8323 8328 8332 8335 8337 8340 8338 8340 8339 8338 8340 8343 8344 8345 8343 8343 8339 8339 8340 8336 8339 8341 8340 8339 8338 8333 8332 8332 8331 8333 8332 8334 8334 8333 8336 8336 8336 8340 8340 8341 8340 8340 8344 8342 8342 8345 8346 8353 8353 8353 8356 8359 8357 
8302 8298 8299 8298 8302 8303 8304 8306 8302 8302 8303 8300 8300 8299 8301 8305 8302 8306 8308 8312 8312 8314 8313 8312 8319 8317 8319 8328 8328 8333 8334 8337 8339 8337 8339 8338 8341 8341 8343 8342 8343 8345 8344 8338 8341 8339 8339 8338 8340 8339 8336 8331 8331 8331 8331 8330 8330 8330 8333 8335 8334 8335 8335 8336 8337 8336 8338 8342 8341 8341 8338 8340 8341 8342 8348 8352 8353 8354 8359 8358 
8302 8296 8299 8299 8302 8301 8303 8303 8303 8299 8301 8302 8302 8303 8304 8304 8306 8306 8309 8315 8317 8315 8318 8317 8320 8320 8323 8327 8327 8331 8332 8336 8336 8338 8340 8337 8335 8341 8340 8341 8340 8341 8342 8343 8342 8339 8340 8339 8337 8337 8334 8333 8331 8331 8329 8328 8330 8327 8331 8331 8329 8335 8337 8334 8333 8336 8339 8338 8339 8341 8340 8338 8341 8342 8345 8351 8352 8355 8357 8354 
8305 8300 8294 8300 8302 8302 8304 8306 8302 8301 8303 8304 8303 8305 8307 8311 8310 8312 8313 8320 8314 8316 8314 8318 8320 8320 8322 8328 8328 8334 8336 8334 8338 8336 8339 8339 8335 8336 8339 8340 8338 8341 8341 8338 8340 8338 8339 8339 8337 8336 8334 8331 8331 8330 8328 8326 8328 8326 8327 8327 8328 8331 8331 8334 8336 8338 8340 8341 8339 8338 8338 8339 8340 8342 8345 8351 8353 8355 8353 8354 
8307 8301 8300 8301 8301 8303 8305 8300 8301 8302 8305 8304 8307 8309 8310 8312 8312 8314 8315 8317 8314 8317 8317 8316 8321 8318 8322 8328 8328 8336 8336 8334 8336 8334 8338 8336 8334 8335 8338 8340 8336 8340 8343 8338 8336 8336 8337 8335 8333 8332 8333 8332 8330 8326 8327 8327 8327 8326 8325 8327 8327 8328 8329 8330 8334 8335 8335 8338 8337 8338 8335 8337 8339 8341 8343 8348 8351 8354 8356 8357 
8307 8301 8302 8300 8303 8302 8303 8304 8302 8302 8309 8306 8307 8306 8307 8313 8316 8315 8315 8317 8316 8316 8312 8316 8319 8319 8318 8327 8330 8333 8336 8333 8333 8331 8332 8333 8332 8334 8335 8335 8338 8337 8337 8333 8332 8330 8334 8334 8333 8334 8330 8330 8329 8330 8326 8324 8327 8323 8323 8326 8325 8325 8328 8330 8332 8333 8335 8336 8335 8333 8332 8335 8335 8336 8341 8344 8351 8349 8355 8354 
8303 8300 8298 8298 8300 8303 8305 8303 8308 8307 8308 8305 8304 8307 8308 8310 8310 8314 8315 8318 8314 8314 8313 8317 8319 8318 8321 8329 8329 8331 8330 8332 8331 8329 8335 8331 8329 8331 8333 8332 8333 8333 8335 8334 8330 8330 8330 8331 8331 8330 8328 8327 8325 8325 8326 8324 8323 8322 8323 8325 8325 8323 8325 8326 8326 8329 8332 8331 8330 8330 8329 8329 8332 8330 8338 8342 8351 8352 8351 8352 
8303 8300 8299 8302 8303 8302 8305 8305 8308 8309 8309 8307 8310 8311 8309 8312 8314 8313 8314 8317 8312 8315 8312 8314 8315 8318 8319 8326 8328 8330 8328 8330 8330 8329 8331 8332 8333 8329 8331 8331 8331 8333 8333 8332 8330 8326 8328 8328 8328 8330 8326 8328 8325 8326 8327 8325 8324 8323 8322 8324 8322 8323 8324 8327 8328 8329 8329 8331 8329 8325 8326 8326 8326 8327 8328 8337 8347 8347 8350 8351 
8305 8301 8300 8300 8303 8305 8306 8305 8308 8307 8307 8306 8307 8310 8311 8311 8310 8312 8314 8314 8313 8311 8312 8313 8316 8318 8319 8325 8325 8327 8329 8325 8327 8328 8332 8330 8329 8330 8329 8328 8329 8330 8334 8329 8328 8326 8324 8327 8326 8326 8325 8324 8324 8326 8325 8322 8323 8322 8319 8325 8322 8324 8325 8325 8326 8326 8330 8330 8327 8326 8327 8326 8326 8323 8326 8329 8342 8345 8349 8348 
8306 8303 8299 8298 8306 8307 8307 8304 8309 8306 8305 8308 8307 8306 8309 8309 8311 8311 8312 8311 8310 8308 8313 8312 8318 8316 8318 8326 8326 8324 8325 8326 8329 8327 8330 8328 8326 8326 8324 8326 8323 8326 8328 8327 8326 8323 8322 8323 8322 8323 8323 8320 8321 8321 8322 8322 8321 8321 8323 8318 8321 8324 8324 8327 8328 8329 8330 8330 8329 8326 8324 8324 8326 8321 8322 8323 8332 8346 8347 8347 
8305 8301 8298 8299 8304 8305 8308 8308 8307 8305 8308 8307 8308 8309 8311 8310 8306 8304 8290 8279 8303 8311 8311 8312 8314 8316 8319 8324 8325 8322 8318 8316 8319 8322 8325 8324 8324 8324 8323 8319 8298 8321 8324 8323 8327 8324 8321 8322 8323 8322 8322 8317 8318 8320 8320 8321 8320 8319 8319 8320 8321 8325 8324 8327 8326 8326 8329 8328 8327 8328 8322 8325 8325 8322 8323 8319 8324 8340 8349 8347 
8303 8302 8297 8298 8303 8304 8306 8305 8308 8306 8308 8307 8306 8309 8309 8308 8288 8263 8248 8251 8277 8305 8312 8310 8314 8312 8316 8321 8322 8320 8279 8261 8277 8297 8294 8317 8320 8318 8319 8315 8299 8320 8320 8320 8322 8324 8321 8324 8323 8324 8321 8319 8317 8317 8317 8317 8318 8318 8316 8317 8320 8322 8322 8325 8324 8327 8327 8326 8327 8326 8322 8322 8322 8319 8320 8318 8319 8334 8345 8343 
8301 8300 8300 8301 8301 8305 8305 8303 8305 8306 8309 8305 8306 8309 8307 8308 8282 8247 8246 8248 8254 8288 8311 8311 8313 8314 8314 8318 8318 8315 8299 8257 8253 8252 8258 8272 8295 8276 8270 8268 8260 8289 8312 8315 8322 8320 8321 8321 8321 8319 8323 8319 8320 8318 8317 8317 8317 8317 8315 8316 8320 8320 8322 8322 8324 8328 8328 8328 8328 8325 8323 8322 8321 8321 8320 8320 8316 8325 8347 8340 
8302 8301 8300 8300 8304 8306 8300 8305 8302 8306 8307 8307 8303 8306 8307 8306 8302 8273 8247 8248 8251 8262 8299 8310 8313 8311 8315 8317 8300 8266 8261 8262 8278 8251 8256 8270 8274 8257 8255 8257 8254 8255 8267 8286 8317 8317 8317 8317 8315 8317 8316 8319 8315 8315 8315 8315 8316 8315 8316 8317 8316 8322 8322 8324 8325 8326 8328 8329 8330 8329 8325 8325 8327 8324 8323 8323 8319 8321 8340 8336 
8307 8303 8302 8303 8305 8302 8302 8304 8304 8307 8307 8305 8309 8305 8303 8305 8305 8299 8266 8247 8251 8253 8266 8303 8309 8310 8312 8314 8309 8276 8248 8246 8253 8249 8258 8273 8274 8266 8269 8258 8252 8253 8254 8253 8295 8316 8311 8309 8311 8312 8315 8315 8314 8315 8314 8314 8314 8311 8315 8315 8314 8318 8319 8323 8324 8322 8324 8327 8328 8325 8327 8327 8330 8322 8325 8323 8320 8324 8332 8333 
8307 8303 8303 8306 8304 8301 8299 8303 8306 8306 8308 8307 8303 8304 8306 8306 8304 8305 8295 8260 8249 8249 8252 8274 8305 8307 8311 8313 8307 8261 8247 8248 8251 8248 8247 8250 8253 8251 8259 8251 8249 8250 8253 8246 8262 8297 8293 8294 8299 8311 8311 8311 8313 8311 8312 8311 8314 8313 8318 8317 8317 8317 8319 8321 8320 8322 8324 8326 8327 8328 8326 8326 8325 8323 8325 8325 8326 8322 8330 8327 
8307 8305 8304 8301 8306 8302 8300 8301 8306 8308 8305 8305 8305 8303 8304 8307 8304 8304 8303 8293 8256 8250 8252 8252 8279 8303 8306 8309 8277 8243 8241 8244 8246 8241 8245 8244 8243 8245 8250 8247 8244 8246 8241 8248 8256 8274 8289 8292 8292 8295 8302 8307 8309 8310 8309 8313 8313 8314 8312 8316 8315 8315 8321 8319 8318 8322 8322 8326 8323 8324 8326 8324 8325 8324 8326 8325 8325 8324 8326 8326 
8310 8305 8304 8301 8304 8303 8305 8303 8305 8303 8303 8308 8305 8304 8305 8307 8303 8303 8303 8303 8287 8254 8249 8248 8253 8286 8303 8287 8247 8236 8241 8243 8246 8248 8244 8241 8236 8244 8251 8248 8243 8244 8246 8248 8248 8246 8260 8290 8300 8296 8291 8303 8302 8290 8307 8311 8313 8315 8313 8312 8314 8314 8319 8318 8318 8321 8322 8321 8324 8321 8324 8323 8324 8324 8325 8323 8325 8325 8328 8327 
8306 8304 8302 8300 8305 8302 8302 8302 8301 8305 8306 8305 8307 8307 8305 8305 8302 8302 8305 8306 8304 8285 8249 8248 8251 8258 8279 8252 8244 8241 8239 8241 8241 8244 8244 8235 8238 8242 8247 8253 8249 8243 8248 8248 8251 8247 8255 8266 8290 8301 8288 8286 8282 8262 8298 8308 8308 8314 8315 8311 8315 8314 8319 8318 8318 8320 8320 8321 8322 8323 8321 8320 8322 8321 8326 8324 8324 8326 8326 8327 
8307 8302 8301 8300 8301 8301 8301 8302 8304 8304 8305 8305 8306 8304 8304 8305 8303 8302 8303 8304 8303 8302 8276 8249 8251 8247 8252 8248 8250 8248 8241 8241 8242 8246 8246 8243 8240 8243 8244 8249 8249 8256 8244 8243 8251 8249 8245 8252 8265 8263 8264 8258 8249 8246 8259 8282 8291 8310 8315 8316 8318 8317 8320 8318 8319 8319 8318 8318 8321 8320 8319 8322 8321 8322 8323 8322 8322 8323 8326 8324 
8306 8303 8301 8299 8305 8303 8302 8303 8303 8303 8304 8304 8303 8304 8303 8303 8302 8303 8304 8305 8305 8303 8299 8268 8250 8249 8250 8245 8243 8244 8243 8237 8243 8237 8245 8247 8249 8248 8244 8237 8245 8248 8253 8242 8242 8249 8246 8247 8243 8246 8247 8240 8236 8243 8247 8259 8275 8304 8313 8316 8314 8313 8319 8319 8319 8321 8319 8318 8320 8321 8321 8321 8322 8320 8323 8323 8324 8320 8325 8325 
8305 8302 8304 8300 8303 8305 8299 8303 8303 8303 8306 8305 8304 8304 8306 8304 8303 8300 8303 8304 8301 8303 8304 8297 8265 8248 8250 8250 8239 8240 8241 8244 8239 8236 8243 8240 8245 8244 8243 8236 8238 8242 8246 8239 8237 8245 8244 8240 8235 8248 8243 8238 8239 8247 8245 8268 8303 8311 8313 8314 8315 8315 8320 8319 8319 8320 8318 8319 8319 8320 8322 8321 8322 8320 8324 8324 8325 8325 8324 8323 
8308 8302 8302 8303 8303 8302 8302 8304 8303 8304 8304 8302 8303 8305 8302 8301 8301 8302 8303 8302 8305 8304 8303 8300 8276 8252 8249 8254 8244 8243 8244 8243 8245 8241 8244 8240 8247 8240 8242 8240 8236 8238 8242 8239 8241 8234 8232 8231 8232 8237 8236 8234 8238 8247 8243 8251 8302 8310 8310 8310 8313 8315 8316 8316 8318 8317 8318 8317 8320 8322 8319 8323 8321 8320 8321 8325 8324 8323 8325 8323 
8306 8299 8303 8301 8302 8305 8303 8304 8303 8303 8302 8301 8301 8300 8302 8304 8299 8302 8304 8304 8301 8304 8305 8299 8269 8256 8250 8254 8250 8245 8247 8242 8245 8239 8241 8241 8243 8242 8244 8245 8244 8246 8244 8237 8243 8238 8235 8236 8232 8232 8232 8240 8257 8243 8238 8250 8301 8307 8309 8311 8310 8313 8315 8316 8316 8317 8317 8318 8320 8319 8322 8320 8319 8322 8324 8323 8326 8322 8322 8324 
8308 8303 8304 8300 8304 8304 8302 8302 8306 8302 8302 8297 8303 8299 8301 8300 8302 8302 8303 8305 8301 8303 8304 8293 8266 8261 8249 8249 8248 8243 8238 8243 8242 8237 8232 8244 8242 8242 8246 8243 8239 8246 8240 8243 8243 8242 8239 8240 8238 8234 8234 8240 8253 8268 8240 8242 8299 8307 8310 8311 8311 8314 8314 8316 8315 8315 8317 8320 8322 8320 8322 8321 8323 8320 8324 8325 8321 8322 8321 8318 
8309 8304 8304 8303 8301 8303 8301 8300 8305 8304 8303 8300 8299 8296 8301 8302 8303 8302 8299 8305 8305 8301 8302 8287 8264 8252 8232 8243 8244 8242 8232 8233 8233 8233 8236 8246 8238 8244 8244 8241 8240 8244 8247 8242 8240 8242 8242 8244 8245 8239 8232 8238 8261 8292 8272 8270 8303 8309 8309 8309 8310 8312 8312 8316 8316 8315 8317 8320 8319 8322 8320 8319 8320 8316 8324 8323 8326 8322 8323 8319 
8309 8308 8306 8306 8304 8306 8301 8305 8305 8304 8304 8302 8300 8301 8303 8305 8303 8302 8303 8309 8305 8305 8304 8288 8265 8250 8233 8234 8237 8231 8236 8234 8230 8230 8236 8238 8228 8229 8240 8246 8244 8248 8249 8241 8241 8244 8249 8246 8242 8239 8229 8233 8246 8289 8291 8299 8305 8308 8309 8311 8311 8310 8313 8315 8313 8317 8315 8317 8316 8322 8322 8319 8323 8318 8324 8322 8326 8322 8324 8322 
8308 8307 8306 8307 8306 8305 8305 8306 8305 8304 8301 8302 8299 8302 8301 8303 8304 8304 8304 8304 8301 8304 8305 8284 8265 8249 8233 8233 8240 8238 8236 8233 8231 8228 8231 8235 8230 8237 8243 8249 8247 8248 8248 8242 8244 8247 8252 8246 8241 8242 8239 8236 8236 8283 8293 8303 8306 8309 8314 8308 8311 8312 8313 8315 8314 8314 8312 8315 8317 8321 8321 8320 8321 8322 8324 8322 8322 8324 8324 8320 
8313 8310 8307 8307 8306 8305 8306 8307 8306 8304 8304 8304 8302 8304 8304 8306 8304 8304 8302 8304 8302 8305 8303 8285 8268 8254 8240 8240 8244 8240 8239 8239 8240 8234 8237 8236 8237 8237 8244 8246 8242 8244 8243 8243 8243 8253 8252 8246 8239 8242 8251 8243 8241 8285 8294 8306 8309 8311 8312 8311 8311 8312 8313 8314 8315 8315 8317 8318 8316 8321 8318 8321 8322 8322 8323 8325 8323 8322 8325 8319 
8312 8310 8308 8307 8308 8307 8306 8309 8302 8302 8304 8305 8303 8304 8302 8302 8303 8306 8304 8304 8304 8305 8302 8286 8266 8259 8246 8249 8239 8246 8255 8250 8246 8244 8243 8240 8241 8240 8241 8246 8244 8245 8245 8240 8242 8250 8255 8245 8235 8234 8239 8250 8254 8285 8294 8308 8310 8308 8312 8309 8309 8311 8314 8314 8312 8314 8316 8315 8321 8319 8317 8317 8320 8320 8323 8323 8321 8321 8324 8324 
8310 8308 8309 8306 8307 8308 8303 8307 8302 8304 8303 8303 8304 8303 8302 8300 8302 8300 8303 8303 8303 8303 8301 8294 8273 8267 8258 8252 8252 8258 8259 8253 8254 8244 8238 8245 8246 8247 8239 8244 8247 8240 8238 8238 8238 8240 8241 8235 8238 8240 8241 8241 8244 8284 8302 8309 8310 8307 8310 8313 8308 8310 8313 8313 8312 8312 8316 8319 8316 8318 8320 8317 8323 8323 8320 8320 8321 8318 8322 8323 
8308 8309 8306 8307 8304 8303 8305 8307 8306 8302 8306 8302 8304 8302 8300 8303 8299 8301 8305 8305 8304 8302 8303 8297 8277 8276 8262 8256 8253 8261 8258 8258 8246 8233 8229 8242 8244 8247 8250 8253 8247 8248 8241 8240 8241 8245 8239 8234 8234 8239 8240 8238 8259 8291 8311 8308 8312 8308 8310 8311 8309 8310 8312 8314 8313 8314 8313 8318 8316 8317 8317 8319 8320 8323 8320 8320 8320 8316 8323 8323 
8309 8306 8309 8301 8305 8308 8304 8306 8302 8303 8305 8299 8301 8303 8302 8301 8302 8304 8305 8307 8304 8305 8301 8299 8281 8274 8269 8241 8250 8266 8271 8257 8250 8240 8239 8239 8237 8241 8253 8254 8250 8247 8247 8248 8244 8235 8227 8227 8228 8236 8241 8261 8279 8300 8313 8310 8311 8310 8311 8311 8309 8311 8310 8313 8316 8309 8313 8315 8317 8316 8316 8316 8317 8318 8321 8320 8320 8317 8318 8318 
8310 8309 8305 8303 8303 8302 8303 8301 8304 8302 8304 8303 8302 8301 8303 8303 8302 8301 8306 8308 8307 8305 8299 8300 8294 8275 8271 8255 8244 8258 8271 8266 8256 8261 8252 8240 8238 8244 8241 8248 8245 8247 8246 8254 8244 8233 8224 8226 8228 8237 8242 8271 8296 8311 8313 8311 8313 8311 8309 8308 8309 8313 8310 8315 8312 8313 8314 8315 8314 8316 8315 8317 8316 8314 8319 8318 8316 8315 8316 8320 
8312 8306 8304 8301 8303 8303 8301 8301 8304 8301 8302 8303 8305 8306 8303 8302 8302 8301 8304 8304 8303 8304 8302 8304 8300 8283 8276 8272 8245 8251 8266 8266 8264 8264 8263 8247 8250 8251 8244 8246 8243 8249 8252 8252 8251 8235 8227 8248 8248 8240 8255 8286 8303 8315 8315 8315 8312 8314 8310 8310 8314 8314 8316 8314 8313 8315 8311 8314 8312 8313 8313 8316 8317 8315 8315 8317 8314 8315 8316 8314 
8310 8307 8304 8300 8302 8302 8301 8302 8303 8302 8304 8305 8305 8303 8301 8303 8301 8302 8302 8304 8304 8304 8303 8301 8300 8292 8277 8286 8269 8263 8270 8270 8268 8264 8263 8257 8257 8257 8251 8250 8250 8254 8257 8258 8253 8246 8249 8255 8256 8260 8281 8299 8304 8315 8318 8312 8315 8315 8314 8312 8311 8314 8315 8312 8312 8313 8310 8313 8311 8312 8311 8314 8317 8314 8315 8313 8317 8313 8311 8315 
8307 8308 8304 8301 8303 8306 8301 8302 8308 8305 8302 8305 8304 8304 8304 8305 8301 8304 8305 8304 8305 8306 8306 8304 8303 8298 8283 8287 8284 8260 8269 8256 8260 8265 8257 8255 8257 8268 8266 8260 8255 8255 8253 8246 8243 8242 8247 8248 8263 8279 8301 8301 8310 8318 8316 8318 8318 8316 8315 8316 8314 8313 8313 8312 8313 8312 8309 8312 8313 8308 8313 8313 8312 8312 8312 8315 8315 8314 8315 8316 
8310 8305 8304 8302 8305 8305 8303 8306 8303 8303 8304 8306 8307 8306 8306 8307 8304 8305 8306 8306 8304 8305 8308 8305 8305 8301 8290 8287 8287 8286 8278 8266 8264 8264 8259 8257 8263 8265 8267 8261 8267 8256 8243 8247 8249 8248 8253 8258 8278 8299 8302 8306 8314 8319 8317 8318 8317 8316 8315 8313 8311 8312 8313 8307 8312 8311 8308 8310 8313 8312 8311 8311 8312 8311 8313 8315 8315 8312 8315 8317 
8306 8305 8305 8303 8303 8307 8301 8306 8304 8302 8306 8306 8302 8304 8305 8307 8307 8301 8305 8304 8306 8306 8307 8308 8307 8305 8299 8287 8287 8292 8290 8278 8270 8262 8268 8269 8262 8267 8266 8265 8265 8257 8254 8258 8268 8261 8266 8285 8300 8303 8302 8313 8316 8320 8319 8317 8318 8315 8317 8312 8309 8314 8315 8311 8310 8308 8309 8310 8313 8312 8313 8310 8315 8314 8314 8314 8314 8313 8316 8316 
8306 8306 8302 8302 8302 8307 8302 8306 8306 8305 8305 8304 8303 8303 8301 8305 8305 8305 8303 8306 8306 8305 8308 8305 8306 8307 8305 8293 8282 8290 8296 8302 8290 8282 8273 8270 8266 8266 8269 8269 8272 8266 8264 8266 8283 8285 8295 8303 8306 8305 8309 8317 8319 8319 8317 8318 8318 8316 8314 8311 8309 8313 8311 8311 8310 8308 8313 8313 8314 8312 8315 8312 8317 8315 8313 8314 8310 8312 8314 8313 
8306 8303 8305 8303 8303 8306 8306 8307 8306 8303 8305 8306 8305 8304 8305 8306 8302 8303 8303 8307 8305 8305 8309 8306 8307 8308 8308 8308 8288 8285 8292 8305 8308 8303 8301 8285 8274 8268 8267 8265 8272 8269 8275 8286 8302 8305 8308 8308 8306 8308 8318 8322 8319 8322 8319 8320 8319 8318 8313 8310 8310 8308 8312 8308 8310 8307 8311 8312 8315 8314 8314 8316 8317 8313 8315 8316 8314 8311 8319 8308 
8309 8306 8304 8306 8303 8307 8307 8306 8306 8304 8306 8305 8306 8307 8305 8306 8303 8303 8306 8307 8304 8305 8307 8307 8309 8308 8313 8311 8305 8289 8290 8297 8309 8313 8318 8315 8306 8298 8295 8297 8297 8302 8307 8306 8310 8310 8308 8306 8309 8319 8318 8321 8321 8322 8319 8319 8320 8317 8315 8312 8313 8312 8310 8314 8309 8311 8307 8314 8315 8315 8316 8315 8317 8317 8319 8315 8312 8311 8311 8311 
8310 8302 8305 8303 8306 8305 8307 8309 8305 8306 8305 8306 8307 8305 8305 8307 8306 8307 8306 8309 8305 8306 8310 8306 8310 8307 8312 8316 8315 8309 8295 8294 8298 8307 8315 8320 8317 8313 8312 8312 8315 8314 8315 8315 8315 8309 8307 8308 8321 8324 8324 8323 8319 8322 8320 8316 8317 8318 8317 8315 8315 8311 8314 8309 8311 8312 8313 8313 8318 8316 8316 8318 8319 8314 8319 8317 8314 8312 8308 8307 
8308 8304 8301 8305 8305 8307 8305 8309 8307 8306 8305 8304 8306 8305 8306 8306 8304 8307 8305 8308 8304 8305 8307 8308 8305 8309 8312 8318 8319 8320 8314 8303 8297 8297 8302 8309 8312 8318 8318 8321 8319 8318 8315 8310 8309 8307 8311 8322 8324 8323 8322 8326 8323 8324 8320 8317 8318 8314 8317 8315 8316 8313 8314 8308 8311 8310 8312 8315 8320 8319 8318 8321 8320 8316 8318 8317 8312 8310 8311 8312 
8309 8305 8305 8303 8308 8307 8306 8306 8309 8305 8305 8307 8305 8308 8307 8306 8305 8309 8308 8309 8306 8306 8309 8308 8308 8310 8312 8319 8320 8321 8321 8316 8312 8302 8303 8301 8301 8304 8306 8309 8311 8311 8309 8309 8313 8321 8327 8326 8327 8329 8327 8326 8324 8327 8321 8319 8318 8318 8317 8317 8316 8314 8312 8312 8314 8312 8312 8313 8318 8321 8320 8319 8320 8320 8322 8319 8316 8316 8314 8313 
8311 8308 8307 8307 8304 8310 8307 8309 8307 8305 8302 8304 8306 8305 8306 8308 8306 8307 8303 8306 8309 8307 8311 8309 8309 8312 8310 8314 8316 8319 8322 8324 8322 8315 8318 8309 8309 8307 8305 8308 8309 8313 8320 8321 8325 8323 8326 8327 8328 8328 8327 8325 8324 8322 8321 8320 8318 8316 8316 8315 8317 8315 8314 8312 8314 8311 8311 8317 8319 8320 8318 8321 8323 8320 8320 8319 8315 8315 8308 8309 
8316 8310 8306 8309 8308 8307 8309 8307 8308 8307 8305 8308 8309 8308 8305 8309 8310 8306 8305 8309 8310 8310 8314 8310 8312 8309 8311 8315 8318 8321 8319 8324 8324 8325 8325 8324 8322 8320 8320 8320 8324 8325 8329 8329 8328 8328 8329 8330 8326 8330 8327 8326 8324 8323 8321 8320 8321 8318 8319 8318 8317 8316 8315 8315 8313 8315 8314 8316 8319 8321 8315 8324 8320 8321 8320 8316 8314 8312 8313 8307 
8315 8316 8309 8312 8308 8311 8312 8309 8308 8310 8312 8309 8312 8311 8309 8311 8309 8307 8304 8307 8310 8313 8313 8313 8313 8310 8311 8318 8320 8322 8323 8324 8324 8326 8329 8327 8328 8325 8324 8326 8328 8330 8333 8330 8330 8332 8330 8331 8330 8330 8328 8325 8324 8324 8322 8319 8320 8320 8319 8317 8319 8317 8318 8317 8317 8317 8317 8319 8320 8320 8320 8322 8321 8319 8319 8315 8313 8312 8310 8308 
8314 8312 8308 8312 8309 8307 8310 8310 8307 8309 8309 8307 8310 8311 8307 8309 8307 8308 8310 8310 8309 8311 8314 8310 8312 8309 8311 8319 8318 8322 8325 8325 8324 8325 8327 8327 8324 8325 8325 8328 8329 8331 8326 8327 8330 8328 8328 8328 8329 8329 8325 8328 8322 8322 8321 8317 8317 8315 8319 8314 8315 8320 8320 8317 8315 8316 8319 8321 8324 8321 8325 8322 8319 8320 8317 8319 8313 8312 8313 8308 
8317 8313 8313 8305 8307 8309 8308 8306 8310 8308 8307 8306 8308 8312 8308 8305 8308 8307 8308 8310 8306 8308 8308 8310 8312 8311 8313 8318 8318 8319 8323 8324 8325 8324 8326 8321 8321 8321 8325 8329 8327 8327 8327 8323 8325 8327 8325 8327 8327 8326 8322 8322 8322 8322 8320 8315 8317 8316 8317 8317 8318 8323 8319 8315 8319 8318 8322 8324 8325 8327 8329 8324 8324 8323 8317 8321 8316 8308 8311 8313 
8322 8314 8305 8305 8308 8304 8307 8311 8309 8309 8309 8308 8306 8309 8305 8307 8305 8306 8309 8309 8307 8309 8309 8311 8314 8315 8317 8321 8318 8321 8321 8323 8321 8321 8322 8322 8322 8324 8324 8326 8327 8328 8327 8323 8323 8323 8326 8328 8325 8324 8323 8326 8322 8322 8319 8318 8318 8318 8322 8316 8317 8321 8321 8319 8322 8324 8323 8326 8331 8329 8328 8329 8324 8322 8322 8319 8315 8307 8312 8309 
8326 8314 8306 8303 8306 8306 8306 8305 8305 8304 8300 8300 8299 8299 8299 8302 8299 8300 8306 8305 8302 8302 8306 8308 8310 8308 8313 8316 8319 8320 8319 8320 8322 8317 8323 8318 8322 8320 8326 8325 8325 8327 8325 8322 8322 8322 8322 8324 8327 8326 8322 8321 8317 8320 8318 8315 8319 8319 8321 8321 8319 8321 8320 8320 8327 8327 8323 8321 8331 8329 8330 8329 8326 8324 8317 8319 8310 8306 8308 8310 


