P2
80 60
8285
8229 8214 8228 8226 8232 8227 8223 8222 8223 8219 8226 8228 8223 8220 8223 8228 8226 8219 8225 8221 8223 8228 8226 8219 8228 8233 8224 8226 8232 8230 8233 8235 8235 8230 8231 8235 8234 8232 8240 8238 8236 8235 8228 8230 8232 8235 8229 8230 8231 8230 8228 8230 8227 8220 8218 8220 8216 8219 8224 8232 8229 8226 8226 8227 8230 8231 8239 8237 8241 8246 8243 8246 8248 8251 8253 8260 8256 8257 8250 8249 
8227 8224 8233 8228 8231 8228 8225 8221 8217 8225 8219 8225 8218 8219 8216 8225 8221 8224 8220 8224 8228 8228 8229 8222 8230 8222 8218 8222 8228 8223 8229 8233 8230 8225 8223 8231 8223 8237 8237 8234 8231 8234 8224 8224 8230 8229 8232 8228 8228 8228 8223 8225 8224 8224 8215 8224 8220 8216 8226 8229 8228 8226 8228 8224 8230 8230 8237 8235 8240 8244 8243 8240 8248 8248 8254 8253 8257 8258 8255 8253 
8207 8215 8219 8213 8227 8218 8216 8222 8214 8218 8224 8217 8209 8218 8221 8221 8227 8223 8218 8224 8223 8226 8224 8221 8226 8227 8221 8223 8228 8220 8224 8228 8228 8228 8224 8227 8226 8234 8237 8231 8233 8228 8222 8227 8228 8226 8223 8226 8224 8223 8220 8220 8218 8227 8225 8221 8218 8222 8224 8220 8229 8230 8224 8227 8230 8229 8230 8234 8242 8246 8242 8239 8243 8245 8246 8250 8256 8252 8254 8251 
8227 8207 8227 8210 8224 8217 8221 8220 8223 8218 8214 8210 8217 8214 8213 8221 8221 8222 8217 8216 8219 8216 8204 8223 8227 8225 8223 8225 8229 8228 8218 8225 8230 8223 8232 8225 8230 8233 8231 8229 8229 8226 8223 8219 8226 8220 8225 8225 8223 8220 8222 8214 8221 8219 8223 8224 8214 8215 8221 8219 8226 8228 8224 8226 8223 8222 8231 8232 8235 8241 8236 8245 8239 8246 8245 8243 8251 8251 8251 8249 
8224 8204 8222 8209 8218 8221 8221 8212 8211 8217 8216 8207 8209 8211 8206 8218 8218 8216 8220 8209 8216 8219 8209 8217 8225 8225 8218 8219 8222 8225 8222 8228 8225 8221 8222 8230 8231 8227 8226 8227 8230 8228 8218 8216 8221 8218 8219 8219 8221 8221 8215 8215 8217 8217 8223 8221 8212 8221 8223 8222 8226 8225 8222 8224 8221 8222 8220 8220 8234 8236 8234 8242 8238 8246 8238 8242 8247 8246 8246 8243 
8228 8212 8213 8212 8213 8215 8222 8217 8216 8216 8201 8211 8215 8209 8208 8215 8218 8208 8216 8218 8219 8211 8219 8216 8226 8228 8219 8218 8219 8224 8228 8227 8222 8217 8221 8229 8227 8229 8225 8231 8230 8226 8225 8214 8219 8223 8216 8221 8216 8219 8218 8218 8218 8222 8219 8223 8217 8218 8225 8220 8224 8222 8222 8218 8218 8223 8220 8219 8226 8233 8232 8232 8242 8233 8233 8240 8240 8239 8244 8243 
8229 8216 8216 8225 8222 8212 8232 8227 8213 8202 8204 8222 8215 8205 8210 8218 8208 8210 8218 8226 8210 8216 8221 8218 8230 8224 8211 8212 8219 8229 8224 8229 8222 8217 8220 8229 8224 8223 8228 8230 8229 8223 8223 8219 8223 8219 8223 8218 8219 8219 8217 8216 8219 8220 8220 8222 8214 8215 8226 8224 8219 8220 8222 8217 8220 8222 8224 8229 8216 8220 8235 8237 8233 8229 8236 8236 8235 8235 8240 8235 
8228 8218 8212 8224 8212 8217 8224 8231 8221 8195 8218 8220 8215 8208 8218 8217 8215 8216 8215 8208 8220 8218 8222 8224 8226 8226 8207 8212 8219 8227 8227 8226 8227 8223 8224 8228 8222 8226 8224 8228 8226 8220 8223 8222 8218 8220 8220 8215 8217 8216 8213 8212 8216 8213 8214 8216 8215 8216 8218 8219 8216 8219 8216 8219 8216 8221 8226 8226 8219 8217 8219 8221 8227 8223 8228 8228 8226 8233 8235 8231 
8231 8214 8211 8216 8222 8219 8227 8222 8216 8201 8214 8213 8208 8209 8207 8211 8213 8212 8219 8217 8221 8210 8215 8215 8213 8221 8207 8215 8216 8221 8221 8222 8220 8214 8220 8226 8227 8223 8226 8225 8223 8221 8223 8217 8221 8222 8217 8218 8216 8213 8210 8213 8215 8213 8220 8215 8214 8215 8214 8218 8212 8214 8213 8213 8216 8214 8216 8224 8219 8223 8218 8219 8218 8220 8219 8223 8222 8225 8226 8221 
8232 8205 8217 8217 8218 8222 8211 8220 8218 8214 8212 8216 8211 8214 8212 8207 8217 8213 8221 8221 8214 8210 8218 8214 8211 8216 8211 8217 8217 8218 8219 8223 8217 8217 8223 8230 8227 8228 8223 8226 8223 8222 8220 8211 8216 8225 8221 8218 8218 8213 8211 8217 8216 8214 8218 8207 8216 8214 8218 8218 8217 8216 8217 8219 8216 8213 8215 8216 8215 8220 8222 8220 8217 8217 8216 8212 8220 8224 8218 8218 
8230 8205 8216 8217 8218 8223 8206 8216 8216 8206 8216 8211 8207 8208 8205 8209 8218 8209 8206 8212 8213 8214 8217 8216 8215 8214 8215 8219 8219 8222 8221 8215 8212 8219 8222 8220 8220 8219 8221 8220 8221 8219 8213 8219 8222 8223 8223 8215 8216 8210 8210 8213 8215 8216 8214 8206 8216 8206 8218 8214 8213 8213 8216 8209 8210 8213 8220 8216 8214 8217 8214 8217 8212 8211 8209 8205 8210 8215 8212 8210 
8223 8220 8219 8215 8212 8220 8211 8219 8222 8208 8216 8209 8210 8207 8209 8212 8212 8211 8211 8219 8220 8219 8211 8217 8221 8222 8215 8214 8223 8219 8224 8220 8210 8220 8215 8216 8218 8224 8227 8216 8217 8222 8216 8221 8222 8220 8223 8214 8216 8215 8218 8217 8216 8217 8215 8210 8216 8204 8223 8218 8212 8213 8213 8213 8207 8210 8217 8215 8214 8209 8216 8212 8206 8213 8206 8206 8217 8214 8211 8208 
8226 8214 8210 8206 8203 8219 8215 8209 8209 8209 8210 8208 8205 8205 8209 8217 8208 8215 8214 8210 8214 8216 8210 8213 8218 8214 8204 8217 8218 8216 8230 8216 8214 8217 8205 8215 8223 8224 8215 8213 8217 8219 8221 8222 8222 8221 8222 8216 8215 8214 8220 8216 8216 8218 8219 8210 8211 8209 8218 8215 8211 8211 8212 8205 8211 8212 8219 8213 8216 8204 8206 8210 8208 8206 8203 8211 8219 8207 8208 8209 
8229 8226 8222 8219 8218 8218 8216 8216 8206 8217 8215 8214 8207 8207 8214 8211 8219 8215 8218 8216 8215 8216 8211 8216 8216 8217 8215 8216 8213 8219 8228 8211 8218 8217 8214 8223 8218 8224 8214 8216 8220 8217 8219 8220 8221 8224 8220 8221 8219 8216 8214 8218 8220 8218 8219 8208 8213 8215 8219 8214 8216 8210 8216 8212 8219 8219 8220 8217 8218 8216 8214 8214 8214 8212 8209 8215 8211 8219 8212 8208 
8236 8210 8221 8221 8220 8219 8214 8219 8213 8210 8213 8214 8214 8212 8215 8217 8214 8214 8222 8217 8206 8215 8208 8216 8212 8213 8217 8209 8211 8221 8213 8212 8214 8211 8213 8220 8220 8218 8217 8214 8216 8216 8216 8222 8220 8217 8211 8217 8216 8213 8213 8219 8216 8223 8214 8217 8216 8216 8217 8216 8216 8211 8213 8216 8215 8219 8220 8215 8218 8210 8215 8212 8212 8211 8206 8206 8209 8210 8213 8207 
8239 8199 8211 8216 8220 8213 8209 8216 8212 8212 8212 8212 8209 8206 8217 8216 8220 8212 8220 8216 8209 8213 8209 8212 8214 8218 8219 8208 8212 8219 8219 8213 8210 8213 8214 8219 8222 8220 8216 8212 8220 8220 8215 8218 8218 8217 8209 8215 8208 8210 8214 8216 8218 8216 8212 8216 8214 8211 8216 8220 8219 8209 8216 8214 8222 8221 8213 8215 8213 8212 8213 8211 8210 8209 8209 8212 8210 8210 8209 8210 
8236 8200 8209 8218 8214 8210 8209 8210 8209 8212 8212 8213 8205 8207 8206 8213 8208 8217 8217 8211 8204 8212 8217 8207 8207 8215 8214 8215 8216 8213 8218 8215 8211 8216 8215 8220 8220 8221 8218 8215 8217 8215 8215 8215 8214 8212 8212 8208 8212 8210 8216 8216 8215 8210 8206 8211 8208 8210 8212 8215 8217 8206 8212 8210 8219 8216 8215 8218 8211 8211 8208 8209 8211 8212 8208 8206 8204 8209 8211 8209 
8232 8212 8212 8210 8211 8217 8213 8217 8210 8212 8213 8212 8216 8213 8216 8214 8214 8214 8216 8212 8212 8213 8213 8206 8206 8221 8220 8209 8213 8215 8216 8214 8216 8216 8215 8220 8221 8217 8214 8214 8211 8214 8214 8215 8218 8215 8217 8207 8215 8213 8210 8215 8211 8209 8207 8211 8204 8210 8210 8217 8214 8215 8216 8216 8216 8217 8222 8217 8219 8213 8208 8218 8216 8214 8209 8209 8205 8206 8208 8205 
8227 8207 8213 8214 8216 8213 8221 8218 8219 8207 8213 8215 8216 8207 8214 8215 8211 8217 8215 8204 8207 8213 8215 8213 8213 8221 8219 8204 8205 8208 8215 8217 8219 8216 8212 8218 8215 8213 8212 8212 8211 8210 8217 8214 8220 8211 8212 8217 8202 8208 8213 8213 8207 8208 8203 8207 8211 8210 8210 8216 8212 8209 8220 8216 8216 8211 8216 8214 8214 8215 8214 8213 8215 8207 8208 8211 8203 8206 8206 8207 
8222 8207 8217 8214 8209 8221 8218 8219 8217 8208 8220 8214 8214 8208 8215 8215 8212 8214 8210 8214 8203 8213 8215 8209 8213 8209 8211 8207 8211 8209 8212 8217 8213 8214 8216 8219 8217 8213 8213 8214 8210 8207 8215 8214 8213 8211 8214 8207 8209 8214 8212 8216 8208 8206 8211 8208 8213 8213 8211 8210 8213 8211 8221 8221 8218 8217 8216 8215 8215 8217 8215 8215 8214 8208 8211 8210 8205 8212 8212 8211 
8227 8214 8207 8199 8205 8212 8208 8220 8218 8209 8209 8213 8209 8204 8201 8219 8218 8213 8203 8210 8200 8209 8216 8212 8209 8200 8201 8211 8206 8215 8213 8214 8212 8211 8216 8219 8213 8207 8214 8215 8215 8210 8214 8206 8205 8213 8212 8208 8211 8207 8208 8209 8210 8209 8209 8217 8208 8215 8214 8212 8212 8215 8217 8219 8216 8215 8216 8222 8214 8214 8214 8215 8210 8212 8211 8211 8205 8211 8214 8217 
8227 8217 8212 8219 8220 8216 8202 8218 8206 8215 8208 8202 8216 8211 8205 8213 8214 8213 8199 8204 8211 8214 8210 8217 8207 8211 8206 8213 8209 8208 8212 8208 8216 8214 8212 8214 8209 8212 8215 8213 8211 8213 8213 8202 8208 8214 8205 8212 8212 8203 8207 8211 8210 8213 8210 8215 8211 8213 8210 8211 8214 8211 8219 8218 8217 8220 8214 8223 8220 8216 8215 8215 8212 8210 8217 8214 8207 8216 8217 8219 
8226 8214 8215 8218 8216 8213 8200 8199 8201 8211 8218 8210 8209 8211 8207 8210 8208 8204 8199 8205 8207 8213 8208 8217 8214 8209 8209 8207 8210 8211 8214 8207 8213 8209 8210 8218 8210 8207 8213 8203 8206 8210 8212 8213 8207 8207 8198 8207 8205 8204 8208 8214 8210 8211 8215 8212 8211 8213 8208 8207 8216 8214 8219 8215 8217 8219 8217 8223 8216 8210 8216 8208 8214 8208 8215 8217 8213 8218 8218 8217 
8228 8219 8218 8216 8219 8221 8212 8199 8213 8213 8219 8207 8214 8204 8212 8209 8209 8214 8206 8216 8208 8207 8214 8206 8211 8206 8207 8205 8212 8202 8208 8218 8219 8210 8207 8212 8217 8218 8205 8208 8207 8215 8212 8212 8214 8209 8208 8206 8205 8214 8214 8213 8205 8212 8214 8212 8217 8217 8207 8213 8213 8216 8220 8220 8226 8223 8219 8223 8216 8216 8215 8211 8219 8216 8215 8211 8210 8223 8222 8225 
8233 8204 8215 8223 8215 8213 8207 8218 8216 8204 8213 8210 8214 8195 8182 8177 8193 8215 8204 8200 8209 8206 8214 8205 8205 8204 8205 8206 8208 8198 8211 8214 8209 8211 8207 8206 8214 8214 8206 8215 8207 8214 8211 8211 8217 8210 8208 8212 8208 8207 8214 8212 8202 8208 8210 8213 8215 8216 8213 8218 8213 8215 8215 8220 8221 8222 8219 8226 8217 8216 8217 8216 8215 8211 8217 8212 8213 8217 8227 8223 
8232 8204 8212 8223 8216 8207 8212 8203 8201 8208 8208 8215 8207 8189 8152 8154 8170 8210 8208 8195 8214 8208 8212 8201 8199 8192 8185 8190 8207 8206 8195 8187 8188 8194 8187 8187 8210 8208 8209 8210 8215 8212 8212 8205 8215 8213 8210 8208 8211 8211 8211 8214 8208 8214 8208 8213 8212 8210 8214 8219 8215 8211 8213 8217 8221 8221 8224 8221 8218 8213 8211 8216 8218 8217 8210 8216 8212 8220 8222 8223 
8224 8208 8203 8215 8210 8213 8208 8199 8206 8205 8202 8213 8205 8196 8154 8154 8163 8201 8209 8194 8207 8200 8195 8164 8152 8152 8194 8197 8188 8178 8182 8186 8160 8175 8157 8175 8178 8187 8202 8207 8204 8197 8198 8204 8210 8208 8210 8206 8211 8213 8204 8212 8207 8213 8214 8212 8208 8213 8216 8218 8215 8213 8217 8219 8219 8219 8219 8217 8215 8216 8214 8214 8213 8212 8213 8216 8219 8220 8222 8224 
8226 8213 8215 8217 8219 8206 8212 8210 8201 8210 8206 8212 8209 8198 8165 8151 8160 8195 8207 8202 8203 8198 8176 8150 8141 8155 8184 8197 8181 8164 8159 8168 8162 8165 8155 8186 8180 8158 8175 8202 8199 8196 8177 8170 8189 8203 8210 8204 8214 8215 8202 8212 8206 8211 8216 8213 8215 8215 8220 8225 8221 8216 8219 8219 8222 8223 8222 8212 8211 8214 8215 8210 8213 8213 8214 8218 8222 8223 8224 8226 
8224 8206 8210 8219 8208 8217 8209 8211 8210 8213 8214 8217 8210 8199 8174 8145 8156 8184 8203 8200 8200 8198 8166 8148 8158 8146 8162 8195 8198 8164 8159 8192 8182 8175 8149 8158 8156 8151 8185 8192 8172 8165 8157 8157 8162 8170 8204 8209 8209 8210 8209 8211 8210 8213 8217 8217 8218 8219 8219 8215 8220 8214 8215 8219 8222 8223 8219 8212 8209 8215 8217 8214 8210 8209 8216 8216 8214 8231 8231 8229 
8223 8204 8209 8217 8210 8216 8218 8209 8210 8203 8214 8214 8209 8201 8178 8157 8154 8175 8202 8203 8200 8200 8185 8171 8189 8170 8161 8179 8179 8152 8149 8155 8151 8161 8151 8148 8154 8156 8170 8185 8160 8150 8149 8163 8163 8178 8180 8205 8204 8206 8212 8212 8216 8220 8219 8219 8215 8214 8216 8212 8214 8211 8220 8218 8220 8220 8220 8212 8208 8209 8213 8217 8211 8210 8215 8210 8213 8229 8226 8226 
8223 8208 8207 8218 8213 8219 8204 8211 8216 8201 8212 8206 8199 8205 8194 8161 8154 8161 8202 8200 8197 8197 8200 8186 8186 8194 8168 8171 8146 8138 8142 8166 8150 8144 8141 8133 8164 8158 8146 8165 8173 8150 8154 8157 8155 8183 8188 8206 8204 8210 8212 8209 8211 8208 8214 8212 8213 8207 8216 8212 8210 8215 8221 8220 8219 8214 8218 8212 8206 8208 8212 8215 8213 8218 8216 8211 8224 8222 8226 8221 
8225 8204 8204 8212 8203 8216 8201 8210 8215 8202 8200 8207 8206 8199 8200 8160 8154 8150 8188 8201 8191 8204 8185 8179 8206 8194 8174 8147 8140 8144 8137 8166 8168 8142 8145 8150 8162 8143 8153 8156 8157 8150 8146 8165 8170 8184 8196 8209 8211 8212 8210 8208 8217 8210 8212 8207 8208 8211 8215 8216 8212 8217 8214 8216 8216 8215 8212 8209 8213 8209 8211 8217 8214 8214 8213 8214 8220 8224 8227 8222 
8227 8210 8207 8211 8201 8213 8201 8206 8210 8208 8204 8206 8197 8202 8199 8172 8153 8149 8178 8197 8196 8204 8175 8178 8208 8199 8175 8145 8145 8159 8158 8154 8172 8145 8151 8145 8142 8139 8147 8161 8155 8151 8145 8164 8198 8204 8208 8212 8204 8209 8204 8205 8214 8212 8211 8202 8210 8210 8215 8210 8212 8209 8210 8211 8213 8210 8208 8209 8209 8211 8211 8209 8203 8206 8213 8218 8212 8220 8221 8219 
8230 8202 8213 8213 8211 8214 8203 8210 8209 8205 8206 8205 8194 8202 8198 8178 8150 8151 8174 8196 8200 8201 8190 8164 8193 8186 8177 8161 8158 8156 8152 8163 8146 8164 8172 8150 8148 8150 8160 8166 8156 8148 8152 8156 8188 8203 8206 8211 8205 8208 8210 8208 8211 8212 8211 8206 8209 8214 8208 8207 8211 8208 8212 8216 8216 8211 8206 8212 8209 8214 8213 8214 8206 8211 8220 8212 8216 8222 8219 8221 
8224 8211 8215 8212 8217 8205 8211 8211 8209 8202 8208 8209 8202 8199 8204 8189 8154 8150 8168 8200 8204 8204 8195 8168 8160 8190 8178 8175 8175 8170 8159 8145 8141 8172 8179 8167 8166 8157 8154 8157 8150 8159 8179 8150 8158 8195 8204 8212 8203 8213 8210 8207 8205 8205 8211 8207 8209 8210 8210 8210 8216 8213 8217 8214 8210 8205 8212 8205 8211 8211 8208 8209 8205 8213 8210 8209 8217 8216 8216 8216 
8231 8215 8209 8214 8212 8209 8214 8217 8210 8198 8200 8209 8206 8202 8208 8204 8168 8155 8159 8192 8211 8196 8189 8158 8155 8153 8164 8171 8172 8182 8157 8139 8150 8167 8180 8161 8156 8155 8166 8157 8149 8160 8181 8152 8161 8183 8201 8205 8204 8213 8206 8210 8208 8211 8213 8207 8211 8212 8213 8212 8214 8215 8217 8213 8214 8209 8210 8205 8209 8211 8210 8208 8205 8207 8207 8218 8216 8216 8219 8216 
8235 8218 8218 8212 8213 8211 8213 8208 8209 8198 8208 8214 8213 8203 8207 8205 8179 8149 8157 8182 8196 8186 8201 8163 8153 8150 8157 8163 8159 8185 8153 8142 8143 8158 8167 8156 8153 8153 8175 8157 8151 8168 8197 8176 8164 8199 8206 8211 8205 8209 8203 8209 8211 8208 8213 8209 8209 8215 8215 8216 8215 8213 8215 8208 8214 8215 8214 8204 8201 8204 8205 8211 8209 8217 8215 8215 8212 8214 8217 8216 
8226 8217 8216 8215 8216 8212 8219 8208 8209 8209 8211 8219 8209 8202 8209 8212 8184 8153 8150 8164 8183 8184 8170 8151 8143 8160 8163 8154 8166 8172 8152 8148 8146 8159 8155 8153 8155 8152 8155 8149 8145 8166 8178 8188 8176 8193 8203 8202 8205 8204 8209 8211 8212 8215 8207 8213 8210 8216 8216 8214 8210 8210 8210 8212 8213 8209 8211 8212 8209 8212 8212 8215 8211 8215 8215 8213 8217 8222 8217 8216 
8224 8216 8212 8214 8216 8217 8211 8212 8209 8208 8214 8214 8209 8205 8209 8204 8199 8155 8150 8158 8181 8163 8157 8161 8151 8159 8171 8167 8156 8153 8153 8148 8157 8181 8149 8154 8151 8148 8144 8147 8153 8183 8199 8185 8177 8187 8204 8201 8205 8204 8206 8208 8211 8211 8204 8212 8209 8215 8211 8206 8207 8210 8211 8211 8214 8211 8219 8216 8211 8209 8206 8209 8210 8212 8209 8219 8218 8216 8212 8213 
8225 8221 8229 8219 8216 8220 8221 8212 8213 8211 8217 8209 8207 8202 8206 8202 8199 8159 8155 8145 8158 8166 8146 8152 8147 8143 8174 8179 8167 8153 8151 8153 8171 8166 8153 8160 8157 8146 8156 8155 8153 8179 8200 8203 8194 8198 8201 8204 8200 8203 8205 8207 8211 8211 8210 8212 8213 8211 8216 8210 8205 8208 8211 8209 8212 8209 8213 8213 8211 8211 8208 8205 8207 8214 8214 8214 8212 8211 8216 8214 
8222 8216 8227 8206 8216 8220 8211 8217 8214 8209 8208 8213 8202 8198 8211 8203 8200 8178 8155 8153 8178 8181 8157 8157 8141 8145 8169 8162 8156 8163 8155 8150 8165 8164 8172 8157 8152 8146 8157 8149 8153 8163 8193 8204 8202 8199 8196 8203 8200 8200 8205 8208 8208 8210 8213 8211 8208 8208 8209 8211 8206 8205 8210 8210 8213 8209 8210 8204 8209 8209 8214 8206 8205 8215 8212 8214 8211 8211 8211 8216 
8225 8209 8224 8208 8214 8218 8205 8211 8213 8210 8208 8211 8212 8206 8215 8216 8204 8191 8160 8155 8173 8195 8192 8157 8158 8148 8152 8180 8160 8160 8151 8156 8157 8153 8165 8161 8157 8160 8158 8148 8150 8173 8179 8194 8197 8199 8200 8200 8202 8206 8206 8206 8203 8209 8215 8215 8207 8207 8207 8212 8206 8213 8215 8214 8213 8213 8210 8204 8209 8210 8212 8210 8208 8214 8212 8220 8216 8221 8215 8214 
8229 8212 8216 8209 8202 8217 8214 8214 8215 8215 8217 8213 8210 8212 8207 8208 8209 8201 8158 8143 8159 8168 8169 8152 8147 8145 8146 8160 8162 8156 8151 8155 8154 8144 8156 8160 8162 8169 8165 8156 8159 8172 8171 8178 8179 8178 8174 8182 8197 8207 8208 8206 8203 8209 8213 8212 8204 8206 8209 8210 8208 8217 8215 8212 8216 8214 8213 8209 8208 8211 8210 8215 8212 8214 8219 8217 8220 8221 8218 8217 
8233 8215 8220 8214 8220 8211 8214 8214 8214 8217 8209 8215 8216 8219 8205 8209 8206 8185 8152 8148 8152 8146 8154 8152 8154 8147 8148 8164 8161 8153 8147 8153 8155 8146 8152 8166 8166 8169 8172 8182 8182 8178 8176 8178 8173 8168 8159 8169 8169 8188 8207 8205 8215 8217 8215 8211 8211 8210 8213 8217 8218 8217 8214 8212 8214 8214 8207 8204 8206 8210 8213 8212 8215 8215 8216 8214 8219 8220 8213 8213 
8231 8223 8218 8206 8213 8212 8215 8202 8216 8212 8211 8208 8210 8214 8212 8209 8210 8199 8164 8157 8152 8146 8160 8155 8149 8159 8151 8165 8157 8155 8156 8149 8158 8155 8152 8170 8163 8167 8167 8181 8179 8188 8182 8182 8170 8165 8166 8176 8205 8196 8205 8194 8202 8209 8215 8212 8210 8207 8211 8209 8209 8210 8215 8215 8212 8211 8209 8210 8213 8209 8210 8210 8213 8213 8212 8215 8216 8214 8212 8211 
8233 8211 8216 8218 8215 8210 8217 8211 8209 8211 8209 8208 8216 8214 8216 8219 8217 8206 8178 8168 8168 8168 8171 8173 8169 8167 8166 8158 8147 8154 8161 8149 8159 8163 8170 8179 8166 8166 8165 8167 8176 8172 8169 8172 8168 8167 8166 8176 8217 8200 8202 8198 8203 8203 8214 8211 8209 8205 8216 8213 8211 8214 8204 8214 8212 8214 8214 8212 8211 8212 8214 8209 8216 8213 8209 8214 8217 8212 8210 8211 
8236 8225 8207 8221 8214 8218 8220 8214 8208 8210 8213 8217 8213 8213 8210 8218 8218 8208 8190 8168 8178 8172 8172 8171 8171 8168 8165 8165 8169 8174 8168 8168 8171 8171 8173 8180 8170 8174 8161 8156 8165 8166 8156 8163 8168 8169 8161 8176 8195 8201 8202 8203 8208 8204 8203 8212 8206 8211 8211 8209 8210 8210 8207 8209 8208 8208 8210 8209 8211 8214 8215 8211 8216 8218 8215 8214 8218 8216 8214 8214 
8231 8227 8219 8220 8216 8213 8218 8219 8223 8224 8223 8213 8217 8199 8213 8223 8223 8213 8197 8184 8189 8170 8170 8179 8181 8171 8165 8161 8172 8178 8176 8182 8178 8176 8175 8177 8170 8167 8157 8154 8169 8174 8166 8172 8177 8168 8172 8195 8202 8204 8205 8205 8206 8206 8210 8206 8207 8212 8210 8208 8206 8208 8209 8213 8213 8212 8209 8208 8212 8211 8212 8217 8215 8217 8221 8225 8215 8218 8218 8216 
8236 8214 8223 8226 8215 8220 8225 8219 8222 8211 8218 8219 8217 8205 8216 8217 8218 8209 8206 8191 8194 8176 8181 8175 8189 8180 8171 8174 8176 8180 8184 8180 8186 8174 8179 8173 8176 8172 8159 8162 8173 8176 8176 8180 8189 8204 8207 8208 8200 8207 8201 8207 8212 8210 8210 8208 8208 8209 8209 8199 8209 8213 8215 8216 8210 8212 8208 8202 8214 8210 8216 8214 8220 8216 8224 8227 8218 8212 8217 8218 
8235 8212 8226 8224 8217 8224 8225 8214 8221 8213 8219 8221 8221 8218 8210 8214 8215 8221 8220 8200 8181 8192 8195 8187 8187 8190 8179 8171 8182 8182 8192 8187 8192 8179 8182 8175 8178 8176 8164 8173 8177 8183 8188 8230 8243 8259 8205 8203 8196 8198 8201 8212 8207 8207 8208 8205 8208 8213 8215 8207 8209 8212 8216 8215 8207 8207 8208 8212 8218 8216 8214 8219 8223 8222 8222 8223 8223 8223 8217 8211 
8236 8211 8220 8220 8222 8217 8224 8211 8219 8217 8222 8218 8215 8223 8216 8222 8217 8210 8220 8196 8191 8194 8195 8197 8187 8179 8179 8174 8183 8188 8194 8194 8192 8184 8184 8186 8185 8187 8182 8185 8184 8189 8202 8211 8233 8238 8205 8203 8200 8202 8200 8209 8208 8211 8194 8208 8210 8210 8204 8203 8211 8212 8214 8209 8206 8209 8213 8209 8218 8223 8219 8216 8223 8228 8224 8217 8221 8217 8218 8215 
8234 8219 8217 8224 8220 8222 8216 8227 8209 8208 8224 8217 8221 8220 8216 8213 8213 8215 8218 8201 8192 8195 8204 8200 8185 8185 8178 8177 8183 8185 8181 8195 8189 8181 8183 8184 8190 8186 8185 8183 8181 8183 8186 8186 8202 8198 8186 8200 8204 8197 8203 8206 8212 8211 8210 8212 8212 8207 8202 8217 8214 8217 8210 8204 8207 8212 8216 8211 8225 8215 8227 8224 8219 8218 8224 8223 8221 8225 8217 8215 
8234 8220 8223 8225 8217 8212 8214 8226 8222 8212 8211 8214 8210 8216 8220 8204 8217 8221 8213 8211 8191 8196 8202 8201 8196 8184 8180 8184 8182 8173 8181 8192 8186 8180 8193 8191 8191 8185 8180 8184 8177 8184 8176 8184 8187 8184 8182 8198 8195 8201 8200 8216 8201 8216 8216 8209 8212 8210 8218 8216 8218 8216 8217 8206 8211 8217 8210 8207 8223 8214 8219 8222 8221 8229 8226 8223 8214 8213 8224 8216 
8229 8220 8222 8221 8222 8224 8222 8225 8209 8218 8211 8220 8214 8221 8219 8216 8217 8222 8213 8204 8198 8195 8199 8206 8206 8195 8190 8190 8183 8177 8185 8181 8182 8191 8194 8195 8195 8193 8187 8184 8179 8182 8176 8184 8186 8181 8183 8198 8205 8207 8208 8215 8211 8201 8219 8209 8210 8208 8209 8207 8217 8217 8217 8211 8213 8219 8206 8217 8219 8215 8217 8225 8224 8229 8219 8216 8214 8211 8222 8215 
8237 8229 8220 8223 8218 8212 8222 8219 8206 8221 8215 8224 8215 8222 8215 8219 8216 8214 8215 8206 8198 8199 8197 8204 8206 8194 8188 8192 8193 8182 8185 8184 8187 8189 8192 8193 8192 8197 8189 8184 8179 8173 8179 8177 8186 8180 8173 8205 8209 8208 8208 8215 8206 8200 8214 8207 8212 8204 8206 8210 8219 8212 8211 8210 8220 8207 8211 8205 8214 8220 8225 8220 8220 8223 8217 8227 8209 8214 8213 8213 
8237 8228 8230 8224 8219 8217 8220 8218 8205 8222 8222 8217 8224 8214 8215 8216 8219 8215 8206 8204 8206 8199 8194 8199 8198 8173 8187 8188 8192 8183 8178 8191 8193 8182 8196 8193 8184 8191 8184 8175 8182 8182 8175 8180 8179 8182 8176 8203 8209 8207 8210 8211 8210 8208 8209 8210 8213 8214 8213 8214 8212 8209 8209 8213 8220 8216 8208 8215 8220 8214 8222 8220 8222 8223 8223 8222 8212 8214 8210 8218 
8237 8225 8239 8233 8219 8216 8221 8207 8215 8221 8219 8210 8217 8219 8215 8209 8208 8218 8204 8205 8208 8194 8193 8198 8192 8174 8163 8183 8185 8188 8191 8182 8187 8177 8185 8196 8189 8184 8178 8171 8169 8178 8175 8175 8177 8168 8186 8198 8202 8207 8203 8212 8197 8200 8212 8209 8206 8212 8206 8206 8207 8204 8213 8211 8210 8219 8214 8222 8213 8211 8222 8221 8219 8219 8217 8217 8220 8212 8234 8247 
8263 8252 8254 8224 8238 8232 8237 8220 8224 8223 8225 8218 8217 8219 8218 8213 8202 8210 8206 8207 8204 8194 8188 8191 8196 8179 8184 8179 8179 8179 8181 8182 8178 8173 8169 8181 8183 8173 8172 8171 8175 8169 8162 8174 8170 8167 8180 8194 8195 8196 8203 8207 8198 8200 8207 8199 8202 8203 8207 8207 8204 8210 8212 8208 8210 8211 8210 8214 8222 8211 8219 8214 8216 8211 8214 8215 8216 8205 8249 8250 
8278 8253 8241 8242 8248 8235 8228 8242 8240 8232 8245 8236 8226 8242 8236 8217 8215 8216 8211 8200 8209 8183 8180 8183 8192 8182 8182 8185 8180 8182 8185 8168 8166 8173 8163 8178 8176 8177 8169 8173 8170 8167 8158 8158 8158 8158 8184 8188 8187 8195 8197 8197 8199 8201 8200 8198 8202 8203 8208 8202 8209 8207 8207 8205 8212 8212 8208 8220 8217 8218 8216 8221 8216 8210 8219 8218 8213 8202 8237 8246 
8285 8260 8252 8248 8258 8251 8249 8257 8248 8251 8258 8253 8260 8247 8240 8232 8237 8229 8211 8202 8196 8177 8173 8180 8180 8180 8178 8178 8173 8173 8169 8163 8161 8159 8160 8166 8159 8165 8166 8165 8163 8165 8158 8158 8155 8159 8185 8188 8186 8187 8195 8198 8197 8200 8205 8202 8201 8204 8208 8209 8210 8208 8210 8210 8212 8211 8209 8217 8214 8219 8218 8220 8225 8225 8218 8218 8208 8219 8243 8244 


