P2
80 60
8201
8129 8130 8131 8133 8136 8136 8139 8138 8136 8137 8138 8137 8140 8139 8136 8140 8145 8142 8144 8146 8146 8145 8146 8145 8154 8152 8153 8157 8158 8158 8161 8164 8163 8163 8163 8161 8164 8165 8164 8164 8166 8163 8162 8160 8162 8156 8160 8162 8158 8161 8160 8161 8161 8160 8163 8159 8158 8156 8157 8156 8158 8165 8163 8164 8165 8169 8171 8173 8179 8182 8181 8182 8181 8179 8175 8179 8177 8178 8181 8177 
8127 8134 8131 8136 8138 8139 8135 8139 8136 8136 8136 8137 8137 8136 8137 8137 8142 8140 8142 8141 8139 8141 8141 8141 8146 8145 8145 8150 8154 8156 8159 8163 8161 8163 8164 8162 8162 8165 8166 8166 8166 8163 8162 8161 8164 8160 8160 8163 8161 8162 8160 8161 8163 8162 8160 8160 8157 8156 8160 8157 8163 8162 8165 8162 8166 8168 8172 8174 8173 8178 8179 8180 8182 8175 8174 8177 8175 8176 8178 8174 
8126 8135 8134 8137 8136 8139 8138 8138 8136 8138 8139 8136 8137 8137 8137 8137 8141 8139 8139 8139 8137 8143 8141 8147 8147 8148 8150 8154 8157 8158 8160 8167 8170 8170 8172 8172 8172 8174 8179 8175 8174 8174 8176 8178 8174 8173 8174 8177 8173 8172 8172 8175 8169 8169 8171 8168 8165 8161 8163 8168 8166 8169 8167 8166 8164 8167 8169 8173 8175 8180 8179 8179 8180 8176 8178 8179 8179 8173 8175 8175 
8131 8140 8135 8140 8134 8139 8137 8138 8138 8135 8136 8136 8139 8138 8138 8139 8139 8140 8143 8146 8144 8147 8146 8150 8153 8158 8162 8165 8168 8173 8173 8173 8176 8178 8179 8180 8180 8180 8181 8180 8181 8180 8180 8184 8180 8180 8180 8181 8180 8180 8177 8177 8174 8173 8177 8170 8171 8168 8171 8172 8172 8169 8166 8165 8166 8172 8171 8171 8176 8182 8175 8178 8182 8178 8177 8180 8178 8175 8176 8170 
8133 8140 8137 8137 8135 8136 8139 8147 8142 8143 8142 8139 8142 8142 8145 8145 8146 8144 8147 8148 8149 8148 8149 8154 8160 8163 8166 8169 8169 8170 8172 8176 8178 8180 8178 8177 8182 8182 8183 8183 8184 8182 8181 8182 8179 8181 8183 8184 8178 8181 8179 8180 8178 8177 8176 8174 8175 8176 8172 8172 8171 8172 8170 8171 8169 8172 8171 8172 8174 8176 8177 8177 8182 8179 8178 8182 8177 8175 8174 8171 
8135 8136 8134 8136 8137 8137 8144 8150 8147 8148 8146 8147 8145 8148 8148 8151 8149 8147 8151 8154 8153 8152 8154 8153 8160 8163 8168 8171 8174 8173 8178 8180 8177 8180 8180 8181 8182 8183 8184 8188 8185 8185 8185 8185 8187 8182 8186 8184 8183 8184 8180 8182 8179 8179 8180 8176 8177 8172 8172 8173 8175 8174 8174 8173 8170 8173 8171 8173 8173 8176 8179 8178 8182 8178 8177 8178 8179 8175 8178 8171 
8139 8143 8137 8132 8136 8140 8149 8151 8147 8147 8144 8146 8152 8151 8149 8152 8155 8153 8151 8157 8155 8154 8157 8159 8161 8165 8169 8176 8177 8179 8180 8183 8183 8181 8183 8181 8182 8185 8187 8191 8192 8192 8189 8189 8187 8184 8189 8187 8187 8186 8186 8186 8184 8185 8182 8181 8183 8176 8178 8175 8173 8175 8175 8173 8173 8175 8174 8173 8177 8181 8180 8177 8181 8180 8178 8178 8177 8174 8175 8176 
8142 8143 8137 8135 8136 8141 8151 8150 8149 8150 8147 8149 8149 8154 8151 8154 8156 8158 8158 8160 8156 8162 8160 8163 8166 8169 8172 8176 8178 8179 8183 8186 8184 8182 8183 8182 8184 8184 8188 8191 8190 8191 8191 8189 8185 8187 8187 8190 8188 8189 8184 8187 8183 8184 8186 8181 8180 8178 8178 8178 8175 8177 8175 8176 8176 8179 8173 8174 8177 8178 8179 8180 8179 8180 8179 8178 8177 8175 8176 8178 
8141 8141 8136 8138 8140 8147 8154 8152 8149 8149 8151 8151 8153 8156 8157 8155 8156 8159 8160 8162 8160 8162 8160 8165 8167 8169 8175 8177 8176 8180 8184 8182 8184 8182 8182 8182 8183 8185 8187 8194 8192 8192 8191 8189 8191 8188 8192 8189 8188 8189 8186 8186 8185 8186 8185 8182 8181 8180 8181 8178 8176 8179 8177 8177 8176 8175 8177 8176 8179 8181 8176 8180 8180 8180 8178 8181 8179 8175 8174 8171 
8143 8145 8138 8139 8141 8147 8151 8153 8152 8150 8150 8156 8151 8154 8156 8156 8157 8158 8159 8162 8161 8163 8164 8165 8168 8171 8175 8175 8178 8179 8184 8180 8181 8178 8184 8179 8183 8184 8188 8190 8188 8194 8189 8190 8189 8187 8191 8190 8186 8190 8187 8189 8189 8185 8186 8185 8185 8180 8179 8180 8179 8180 8177 8180 8176 8179 8178 8178 8180 8180 8181 8181 8180 8180 8178 8182 8180 8180 8172 8175 
8144 8147 8140 8142 8147 8150 8154 8151 8153 8152 8153 8152 8155 8158 8155 8155 8159 8159 8162 8161 8162 8162 8164 8164 8167 8172 8172 8175 8181 8179 8181 8184 8180 8178 8183 8182 8184 8183 8185 8188 8191 8192 8190 8190 8191 8189 8191 8191 8189 8189 8188 8189 8189 8187 8192 8185 8185 8183 8182 8179 8178 8183 8181 8177 8175 8181 8177 8180 8180 8185 8182 8182 8180 8181 8180 8181 8177 8178 8174 8175 
8145 8146 8138 8141 8151 8149 8154 8151 8150 8152 8152 8154 8153 8155 8156 8154 8156 8159 8160 8162 8160 8163 8165 8163 8170 8170 8173 8176 8178 8178 8182 8182 8179 8176 8182 8183 8185 8184 8185 8187 8188 8191 8189 8190 8189 8190 8192 8193 8189 8189 8188 8190 8188 8187 8189 8187 8186 8184 8180 8178 8177 8183 8182 8180 8179 8182 8181 8182 8181 8184 8182 8179 8182 8180 8179 8181 8181 8179 8176 8178 
8149 8147 8140 8145 8152 8155 8155 8151 8151 8155 8152 8155 8156 8154 8158 8157 8159 8158 8163 8161 8160 8163 8164 8165 8169 8169 8169 8176 8175 8177 8180 8183 8179 8180 8183 8182 8179 8183 8184 8188 8189 8191 8191 8192 8189 8187 8188 8190 8191 8187 8188 8189 8188 8189 8191 8186 8186 8181 8179 8181 8182 8183 8180 8180 8180 8182 8178 8181 8187 8184 8186 8180 8181 8178 8179 8182 8182 8183 8177 8176 
8149 8153 8148 8152 8152 8156 8157 8154 8156 8155 8159 8155 8157 8158 8158 8155 8160 8161 8161 8162 8161 8161 8163 8163 8166 8168 8172 8175 8175 8178 8180 8184 8179 8183 8184 8184 8184 8185 8187 8187 8190 8189 8189 8192 8188 8188 8190 8188 8191 8191 8187 8188 8191 8190 8189 8186 8186 8181 8179 8180 8181 8184 8182 8181 8180 8185 8182 8186 8186 8186 8187 8182 8185 8182 8179 8184 8185 8179 8179 8182 
8150 8152 8151 8152 8156 8155 8155 8155 8154 8154 8158 8157 8157 8159 8159 8159 8162 8163 8163 8164 8162 8160 8159 8159 8166 8171 8168 8176 8177 8178 8180 8181 8179 8182 8182 8185 8185 8185 8189 8191 8189 8190 8188 8186 8188 8185 8190 8189 8193 8190 8188 8187 8189 8189 8189 8184 8181 8180 8180 8179 8182 8183 8183 8182 8183 8182 8182 8182 8185 8184 8184 8185 8184 8183 8182 8184 8184 8181 8178 8185 
8156 8154 8152 8157 8158 8158 8158 8158 8156 8158 8155 8158 8161 8160 8160 8160 8160 8162 8165 8166 8151 8138 8135 8136 8158 8168 8169 8175 8176 8178 8180 8182 8185 8184 8185 8184 8184 8186 8188 8189 8190 8190 8187 8189 8187 8185 8188 8185 8187 8189 8187 8188 8187 8188 8192 8184 8182 8178 8179 8180 8180 8184 8183 8182 8183 8183 8184 8185 8186 8188 8188 8185 8185 8184 8183 8185 8185 8184 8182 8183 
8155 8158 8156 8159 8163 8162 8160 8165 8158 8160 8160 8160 8160 8159 8164 8161 8165 8164 8164 8162 8153 8134 8130 8129 8148 8169 8172 8175 8178 8178 8180 8182 8183 8183 8184 8183 8184 8186 8189 8187 8189 8189 8190 8186 8186 8184 8189 8188 8187 8187 8188 8186 8187 8187 8188 8186 8181 8179 8179 8180 8182 8185 8182 8181 8183 8185 8180 8184 8188 8187 8189 8187 8187 8187 8184 8190 8187 8185 8183 8180 
8159 8159 8158 8164 8166 8161 8165 8163 8159 8161 8162 8161 8163 8163 8161 8162 8166 8165 8165 8166 8160 8139 8131 8130 8139 8163 8170 8175 8177 8176 8181 8177 8162 8172 8179 8176 8180 8184 8188 8189 8187 8185 8186 8186 8185 8182 8186 8185 8187 8187 8186 8186 8186 8186 8187 8182 8183 8179 8179 8178 8181 8184 8184 8183 8185 8183 8183 8186 8189 8190 8188 8191 8190 8189 8185 8189 8189 8188 8185 8184 
8157 8163 8159 8162 8167 8164 8163 8160 8158 8160 8159 8161 8164 8161 8165 8163 8163 8164 8161 8163 8161 8151 8131 8132 8135 8152 8170 8172 8176 8176 8179 8179 8153 8151 8158 8158 8159 8177 8184 8186 8183 8174 8174 8185 8186 8182 8184 8185 8185 8184 8184 8183 8184 8184 8181 8182 8178 8178 8176 8178 8180 8182 8181 8182 8181 8182 8184 8184 8186 8186 8187 8188 8189 8187 8187 8187 8188 8185 8184 8185 
8160 8163 8161 8161 8164 8163 8162 8161 8161 8158 8160 8160 8163 8161 8164 8163 8162 8165 8163 8163 8163 8160 8138 8131 8132 8144 8165 8176 8175 8176 8179 8179 8159 8173 8179 8175 8171 8171 8163 8173 8183 8176 8176 8185 8182 8180 8186 8182 8184 8184 8180 8183 8185 8183 8184 8178 8178 8174 8175 8176 8178 8180 8184 8180 8183 8180 8186 8187 8187 8190 8187 8190 8189 8186 8185 8189 8190 8185 8184 8177 
8159 8163 8162 8166 8164 8160 8161 8161 8156 8162 8160 8162 8164 8164 8163 8164 8165 8163 8164 8164 8163 8163 8153 8133 8134 8139 8156 8171 8175 8173 8176 8165 8163 8180 8184 8182 8184 8182 8166 8158 8155 8159 8164 8174 8181 8180 8180 8182 8182 8184 8180 8181 8185 8180 8182 8180 8179 8176 8173 8177 8180 8182 8181 8179 8183 8183 8181 8187 8187 8188 8187 8189 8190 8189 8187 8187 8187 8186 8182 8183 
8161 8165 8163 8157 8159 8159 8158 8159 8160 8161 8164 8165 8162 8166 8165 8163 8164 8164 8166 8168 8163 8165 8162 8139 8135 8140 8144 8169 8175 8165 8153 8167 8160 8169 8176 8180 8171 8160 8172 8160 8156 8150 8148 8156 8177 8177 8182 8181 8182 8183 8181 8183 8184 8183 8182 8177 8179 8177 8176 8179 8178 8179 8178 8182 8183 8184 8182 8181 8187 8188 8186 8186 8188 8187 8186 8186 8188 8184 8183 8182 
8163 8167 8164 8162 8164 8160 8159 8163 8161 8161 8163 8166 8167 8167 8164 8163 8165 8164 8169 8165 8165 8166 8164 8155 8132 8138 8136 8162 8170 8147 8151 8149 8152 8145 8149 8155 8147 8146 8158 8151 8161 8152 8147 8147 8153 8169 8179 8180 8180 8181 8181 8184 8182 8185 8177 8179 8180 8176 8176 8177 8181 8181 8180 8182 8182 8181 8183 8183 8186 8185 8184 8187 8187 8188 8188 8191 8187 8185 8182 8181 
8165 8168 8162 8162 8164 8161 8159 8159 8164 8161 8165 8165 8166 8166 8166 8166 8165 8165 8168 8168 8168 8169 8167 8162 8142 8136 8135 8146 8164 8144 8139 8152 8159 8159 8147 8146 8144 8147 8148 8145 8147 8146 8145 8144 8149 8150 8161 8174 8177 8181 8180 8181 8184 8181 8179 8177 8180 8179 8175 8180 8178 8181 8183 8179 8184 8186 8184 8183 8186 8185 8187 8187 8188 8188 8186 8188 8187 8183 8183 8187 
8162 8167 8164 8163 8162 8161 8160 8160 8161 8163 8165 8167 8166 8166 8168 8166 8165 8163 8167 8168 8164 8169 8169 8165 8158 8137 8135 8138 8159 8145 8140 8147 8154 8150 8146 8144 8145 8145 8146 8143 8145 8145 8146 8150 8149 8148 8150 8152 8166 8179 8179 8181 8181 8182 8182 8178 8179 8177 8179 8179 8177 8178 8182 8183 8185 8187 8184 8186 8187 8185 8186 8188 8185 8185 8186 8186 8188 8186 8185 8184 
8163 8167 8160 8165 8166 8167 8163 8160 8161 8161 8165 8166 8166 8168 8169 8169 8168 8167 8170 8170 8168 8171 8168 8168 8168 8146 8138 8141 8149 8163 8143 8144 8145 8146 8143 8141 8142 8144 8142 8142 8146 8147 8146 8159 8174 8157 8145 8147 8156 8184 8182 8182 8180 8182 8182 8179 8180 8180 8179 8178 8177 8179 8180 8181 8185 8184 8183 8184 8185 8185 8184 8185 8184 8186 8186 8188 8189 8187 8185 8187 
8164 8168 8164 8163 8164 8165 8165 8159 8162 8165 8169 8169 8170 8168 8168 8170 8170 8166 8169 8170 8172 8170 8170 8169 8170 8160 8140 8141 8142 8150 8146 8146 8142 8143 8143 8142 8142 8147 8144 8142 8146 8145 8146 8154 8159 8149 8149 8149 8153 8181 8196 8188 8180 8179 8174 8180 8184 8181 8182 8179 8180 8180 8182 8180 8183 8183 8183 8184 8185 8183 8185 8181 8185 8187 8190 8191 8190 8188 8188 8182 
8168 8172 8167 8167 8168 8165 8166 8165 8167 8165 8170 8169 8171 8171 8172 8169 8172 8170 8171 8165 8171 8170 8171 8168 8169 8170 8148 8142 8141 8141 8145 8147 8145 8141 8142 8142 8144 8145 8146 8145 8142 8143 8144 8146 8147 8142 8144 8147 8155 8162 8180 8183 8170 8158 8161 8179 8179 8180 8183 8180 8182 8180 8179 8180 8181 8186 8185 8183 8183 8184 8181 8185 8186 8185 8186 8191 8189 8189 8187 8187 
8171 8174 8168 8169 8171 8168 8172 8167 8169 8169 8172 8172 8172 8171 8169 8170 8172 8169 8171 8172 8170 8169 8173 8167 8171 8174 8164 8143 8142 8144 8145 8144 8142 8141 8139 8142 8141 8144 8146 8146 8145 8143 8146 8145 8144 8139 8138 8139 8146 8148 8150 8149 8148 8149 8155 8172 8178 8178 8181 8177 8182 8178 8183 8182 8183 8185 8185 8183 8186 8185 8187 8185 8186 8185 8190 8190 8193 8190 8186 8185 
8169 8173 8169 8170 8172 8169 8170 8172 8170 8170 8172 8172 8172 8169 8171 8171 8171 8170 8171 8172 8171 8169 8172 8171 8173 8173 8163 8144 8142 8143 8145 8145 8143 8141 8137 8140 8140 8142 8142 8146 8143 8144 8144 8140 8142 8138 8137 8135 8142 8144 8144 8145 8144 8144 8146 8150 8157 8163 8175 8178 8179 8183 8181 8183 8182 8186 8184 8183 8185 8186 8184 8184 8187 8190 8190 8193 8194 8191 8187 8188 
8172 8173 8170 8172 8170 8172 8170 8169 8169 8172 8171 8170 8173 8171 8167 8170 8171 8170 8170 8173 8173 8172 8171 8172 8175 8171 8150 8146 8143 8144 8145 8144 8141 8140 8138 8144 8143 8144 8143 8141 8144 8149 8145 8144 8144 8143 8143 8145 8146 8146 8147 8145 8145 8146 8149 8157 8167 8169 8174 8179 8177 8183 8183 8181 8184 8184 8184 8186 8185 8189 8184 8186 8187 8190 8190 8194 8196 8193 8192 8190 
8175 8172 8170 8172 8171 8169 8171 8170 8171 8169 8170 8171 8173 8169 8170 8168 8170 8169 8169 8171 8170 8170 8173 8170 8173 8160 8146 8147 8143 8142 8143 8142 8141 8139 8141 8142 8143 8141 8143 8145 8147 8148 8146 8146 8143 8142 8144 8146 8145 8145 8145 8145 8148 8146 8147 8152 8174 8176 8176 8178 8178 8182 8182 8185 8183 8186 8185 8184 8187 8188 8184 8184 8187 8190 8194 8191 8193 8191 8189 8194 
8174 8176 8172 8174 8174 8174 8175 8172 8170 8173 8171 8170 8170 8172 8171 8172 8173 8170 8172 8173 8171 8170 8172 8172 8168 8148 8143 8146 8146 8140 8145 8141 8139 8142 8142 8142 8139 8144 8147 8150 8148 8147 8143 8142 8143 8146 8144 8146 8148 8148 8147 8147 8146 8145 8146 8148 8169 8175 8178 8177 8179 8184 8180 8182 8184 8183 8182 8186 8189 8191 8188 8188 8190 8192 8191 8193 8194 8193 8191 8193 
8177 8177 8173 8172 8172 8173 8173 8175 8173 8172 8174 8172 8174 8170 8171 8174 8174 8170 8172 8172 8171 8171 8174 8173 8160 8141 8145 8144 8139 8138 8137 8137 8139 8138 8140 8144 8143 8144 8145 8146 8147 8144 8142 8142 8147 8147 8146 8147 8146 8145 8147 8148 8147 8148 8146 8144 8158 8179 8181 8181 8182 8185 8182 8181 8186 8187 8182 8186 8186 8187 8186 8189 8191 8192 8194 8195 8195 8192 8187 8189 
8177 8178 8173 8175 8172 8175 8174 8175 8175 8176 8176 8172 8172 8170 8172 8172 8175 8173 8176 8173 8172 8174 8174 8167 8149 8144 8141 8143 8138 8137 8139 8135 8139 8137 8137 8146 8149 8146 8144 8146 8145 8141 8143 8141 8141 8140 8146 8146 8147 8145 8147 8144 8147 8149 8146 8147 8171 8180 8182 8183 8180 8183 8181 8183 8180 8181 8184 8185 8185 8186 8185 8190 8190 8190 8192 8193 8194 8190 8192 8184 
8176 8178 8177 8178 8173 8177 8174 8174 8174 8172 8173 8171 8174 8173 8173 8172 8174 8177 8179 8173 8174 8177 8175 8167 8147 8142 8144 8140 8138 8135 8133 8136 8137 8136 8141 8147 8145 8144 8143 8143 8147 8145 8143 8144 8142 8143 8143 8147 8147 8147 8146 8150 8145 8150 8153 8146 8168 8184 8181 8182 8179 8181 8182 8182 8182 8184 8182 8183 8186 8185 8187 8190 8190 8190 8189 8192 8192 8190 8190 8191 
8176 8179 8177 8179 8179 8177 8174 8177 8173 8170 8179 8172 8177 8175 8174 8177 8174 8175 8174 8173 8173 8173 8174 8164 8145 8143 8144 8139 8136 8135 8137 8135 8138 8135 8143 8146 8139 8139 8142 8144 8149 8148 8146 8144 8144 8143 8144 8149 8144 8146 8144 8148 8143 8146 8153 8152 8165 8183 8183 8180 8181 8183 8181 8180 8183 8180 8184 8186 8183 8187 8187 8186 8189 8191 8191 8192 8195 8191 8188 8187 
8180 8183 8177 8178 8178 8176 8173 8176 8176 8171 8178 8175 8175 8173 8170 8173 8173 8173 8177 8178 8171 8175 8173 8162 8143 8144 8144 8137 8135 8135 8136 8135 8135 8135 8139 8138 8137 8136 8141 8146 8143 8147 8147 8140 8145 8143 8146 8144 8142 8142 8146 8142 8143 8145 8147 8151 8167 8183 8181 8182 8183 8180 8182 8181 8182 8184 8182 8181 8185 8187 8185 8187 8188 8189 8190 8192 8190 8189 8185 8191 
8180 8182 8178 8179 8178 8180 8178 8176 8178 8176 8178 8176 8177 8172 8170 8172 8171 8174 8173 8174 8173 8175 8172 8162 8144 8145 8142 8140 8137 8136 8136 8138 8137 8135 8137 8136 8137 8136 8140 8143 8147 8147 8145 8140 8145 8143 8142 8140 8137 8139 8145 8145 8141 8144 8151 8152 8169 8182 8181 8184 8181 8181 8183 8180 8184 8184 8183 8183 8184 8185 8183 8188 8189 8189 8190 8188 8190 8189 8189 8185 
8181 8180 8177 8179 8180 8177 8176 8176 8177 8175 8177 8174 8175 8171 8176 8175 8175 8177 8174 8172 8175 8174 8173 8163 8143 8145 8143 8136 8139 8135 8136 8140 8137 8137 8135 8139 8137 8140 8144 8144 8146 8146 8142 8141 8144 8143 8138 8137 8136 8138 8137 8140 8142 8141 8151 8151 8171 8185 8183 8185 8180 8183 8181 8182 8184 8185 8182 8181 8187 8185 8185 8185 8189 8188 8191 8189 8189 8190 8185 8187 
8179 8181 8181 8176 8176 8178 8178 8177 8176 8173 8175 8175 8175 8171 8174 8177 8177 8178 8177 8176 8175 8175 8174 8167 8148 8144 8140 8141 8138 8134 8136 8140 8135 8137 8135 8135 8135 8136 8143 8146 8145 8143 8148 8146 8144 8141 8141 8139 8138 8139 8137 8139 8138 8141 8153 8155 8177 8184 8183 8182 8180 8185 8184 8183 8184 8181 8186 8185 8185 8184 8185 8186 8188 8189 8192 8188 8191 8190 8183 8183 
8182 8183 8180 8175 8178 8177 8179 8179 8178 8177 8179 8176 8175 8172 8175 8178 8176 8177 8180 8178 8174 8175 8174 8169 8151 8146 8143 8141 8134 8136 8134 8138 8138 8136 8136 8135 8135 8136 8144 8148 8145 8141 8146 8145 8146 8142 8145 8144 8138 8136 8135 8137 8141 8144 8155 8162 8184 8185 8185 8186 8181 8185 8186 8182 8182 8183 8184 8184 8186 8186 8186 8185 8190 8193 8189 8191 8188 8189 8183 8184 
8180 8183 8175 8177 8177 8181 8180 8179 8177 8176 8176 8173 8174 8175 8173 8175 8178 8175 8180 8180 8177 8177 8175 8172 8161 8148 8147 8139 8136 8138 8136 8138 8135 8135 8136 8136 8136 8145 8148 8145 8138 8139 8147 8148 8148 8143 8145 8147 8137 8139 8137 8137 8141 8152 8166 8172 8182 8185 8185 8186 8184 8187 8187 8185 8185 8185 8185 8183 8188 8188 8189 8188 8189 8189 8190 8192 8194 8187 8186 8185 
8178 8180 8175 8177 8175 8177 8179 8174 8175 8175 8177 8177 8175 8176 8177 8175 8180 8176 8181 8179 8175 8176 8176 8172 8170 8158 8156 8147 8138 8136 8140 8139 8139 8137 8140 8136 8137 8140 8139 8137 8137 8141 8145 8147 8147 8144 8145 8146 8138 8137 8135 8140 8147 8160 8173 8179 8188 8186 8187 8187 8184 8185 8186 8185 8185 8187 8187 8184 8189 8190 8184 8188 8191 8189 8193 8189 8192 8188 8188 8185 
8178 8180 8177 8178 8173 8177 8176 8176 8176 8178 8175 8176 8172 8175 8177 8174 8181 8178 8178 8175 8173 8178 8175 8173 8175 8175 8158 8157 8145 8140 8141 8137 8140 8141 8139 8138 8138 8138 8136 8136 8135 8135 8142 8145 8149 8139 8139 8140 8138 8137 8135 8141 8151 8169 8173 8180 8192 8187 8189 8189 8185 8188 8183 8183 8185 8187 8188 8186 8186 8188 8185 8189 8188 8190 8191 8190 8189 8190 8186 8180 
8178 8179 8179 8178 8178 8179 8178 8175 8179 8177 8177 8178 8177 8175 8176 8176 8176 8179 8180 8177 8175 8175 8177 8174 8175 8176 8176 8161 8152 8143 8142 8142 8143 8142 8141 8141 8139 8137 8136 8138 8137 8139 8140 8140 8144 8140 8141 8142 8136 8140 8140 8145 8162 8176 8177 8184 8190 8186 8185 8188 8185 8189 8187 8184 8185 8185 8189 8184 8188 8188 8187 8188 8188 8190 8189 8191 8189 8187 8185 8184 
8180 8182 8176 8177 8177 8175 8175 8180 8176 8176 8178 8180 8175 8177 8178 8181 8177 8179 8177 8179 8177 8179 8176 8177 8177 8178 8179 8171 8159 8152 8143 8143 8147 8142 8142 8139 8138 8137 8139 8137 8139 8139 8139 8140 8145 8138 8143 8143 8138 8140 8146 8160 8179 8175 8172 8187 8193 8190 8185 8186 8186 8186 8188 8186 8185 8187 8188 8187 8188 8191 8189 8192 8190 8191 8191 8192 8192 8188 8187 8187 
8180 8180 8178 8175 8177 8177 8179 8178 8181 8177 8179 8178 8179 8182 8178 8179 8180 8178 8179 8178 8179 8178 8178 8174 8178 8179 8182 8175 8165 8157 8146 8149 8151 8145 8143 8142 8142 8136 8141 8138 8141 8141 8144 8144 8142 8142 8147 8143 8143 8147 8165 8181 8172 8174 8180 8188 8190 8189 8187 8189 8186 8190 8187 8186 8186 8185 8187 8185 8187 8191 8189 8194 8193 8192 8196 8192 8189 8188 8188 8186 
8182 8182 8178 8176 8179 8176 8177 8178 8175 8178 8178 8180 8182 8181 8179 8182 8182 8178 8179 8179 8177 8179 8178 8176 8180 8181 8181 8181 8173 8164 8157 8151 8146 8146 8144 8141 8141 8139 8144 8140 8142 8143 8143 8146 8144 8140 8145 8143 8147 8159 8171 8177 8170 8172 8187 8190 8191 8189 8185 8189 8186 8189 8186 8184 8187 8187 8186 8184 8188 8195 8193 8193 8191 8195 8192 8192 8193 8193 8189 8188 
8182 8181 8175 8175 8178 8181 8179 8179 8180 8179 8181 8179 8181 8178 8180 8184 8184 8180 8180 8180 8178 8179 8182 8180 8183 8179 8182 8187 8183 8169 8162 8166 8158 8151 8147 8147 8141 8143 8143 8143 8144 8149 8146 8146 8148 8145 8150 8153 8159 8169 8179 8174 8171 8183 8193 8191 8191 8188 8188 8189 8185 8190 8186 8188 8188 8188 8190 8191 8192 8193 8190 8194 8199 8197 8197 8193 8193 8194 8189 8187 
8184 8181 8179 8177 8179 8178 8178 8177 8178 8180 8179 8179 8185 8180 8181 8183 8181 8179 8180 8177 8176 8181 8182 8180 8180 8186 8183 8189 8184 8178 8165 8163 8163 8159 8152 8150 8148 8144 8147 8146 8148 8151 8146 8150 8153 8151 8160 8158 8163 8174 8177 8172 8176 8191 8193 8192 8190 8192 8189 8190 8186 8191 8188 8188 8183 8186 8185 8187 8193 8194 8194 8198 8196 8194 8197 8194 8195 8189 8188 8188 
8180 8182 8179 8175 8180 8180 8177 8178 8180 8182 8179 8183 8182 8184 8180 8184 8181 8182 8179 8179 8180 8182 8183 8182 8184 8187 8186 8188 8190 8186 8180 8166 8163 8168 8165 8158 8156 8154 8156 8156 8160 8156 8156 8158 8159 8157 8160 8159 8173 8179 8171 8176 8189 8193 8194 8194 8189 8191 8191 8190 8189 8191 8191 8185 8191 8189 8189 8189 8189 8196 8195 8198 8195 8197 8196 8194 8196 8193 8189 8188 
8182 8186 8176 8182 8180 8181 8185 8180 8176 8179 8176 8182 8182 8180 8183 8184 8181 8181 8180 8181 8178 8182 8182 8182 8185 8185 8186 8190 8188 8189 8187 8180 8168 8165 8167 8161 8156 8159 8158 8160 8163 8160 8158 8156 8156 8155 8163 8174 8178 8173 8177 8191 8197 8194 8197 8196 8194 8191 8193 8191 8188 8189 8191 8188 8189 8189 8190 8189 8191 8194 8197 8193 8197 8196 8193 8192 8194 8191 8186 8186 
8183 8182 8178 8180 8179 8181 8177 8179 8178 8178 8178 8181 8180 8179 8180 8182 8184 8180 8180 8181 8179 8184 8181 8181 8182 8185 8186 8189 8190 8190 8188 8190 8180 8173 8165 8165 8161 8157 8157 8156 8158 8155 8156 8155 8163 8169 8176 8174 8172 8183 8191 8193 8196 8197 8196 8195 8192 8189 8189 8190 8190 8189 8188 8189 8187 8185 8187 8188 8190 8193 8193 8196 8193 8193 8191 8193 8190 8186 8183 8186 
8184 8182 8179 8179 8177 8179 8179 8177 8174 8179 8178 8177 8180 8179 8179 8180 8183 8178 8180 8180 8179 8180 8179 8183 8182 8183 8186 8188 8187 8191 8189 8191 8189 8189 8181 8169 8166 8166 8169 8166 8166 8166 8167 8171 8173 8171 8175 8180 8189 8195 8197 8197 8195 8195 8195 8195 8194 8191 8189 8188 8187 8190 8189 8184 8188 8188 8187 8190 8190 8192 8197 8193 8197 8194 8193 8193 8192 8189 8184 8181 
8185 8183 8179 8176 8174 8180 8176 8174 8176 8176 8179 8179 8181 8180 8180 8178 8179 8177 8179 8178 8178 8179 8181 8180 8183 8184 8185 8185 8188 8189 8190 8190 8190 8190 8188 8187 8183 8177 8174 8172 8172 8173 8172 8176 8180 8183 8190 8193 8196 8199 8193 8197 8193 8196 8194 8193 8190 8187 8187 8185 8187 8190 8186 8186 8187 8186 8187 8188 8191 8189 8193 8195 8190 8193 8188 8187 8188 8186 8183 8183 
8185 8186 8179 8177 8178 8174 8176 8173 8175 8175 8175 8173 8177 8176 8179 8179 8180 8176 8179 8180 8177 8179 8180 8179 8183 8185 8184 8186 8188 8187 8190 8193 8192 8188 8191 8190 8187 8189 8190 8185 8188 8187 8187 8189 8192 8191 8197 8196 8200 8199 8193 8193 8192 8193 8192 8190 8190 8189 8186 8188 8183 8186 8184 8188 8189 8186 8186 8185 8189 8192 8190 8193 8192 8191 8189 8188 8187 8185 8179 8182 
8184 8187 8179 8176 8176 8174 8174 8174 8171 8174 8175 8173 8178 8178 8174 8176 8178 8175 8178 8175 8177 8178 8180 8181 8183 8181 8182 8185 8185 8188 8187 8189 8188 8189 8189 8187 8189 8189 8192 8189 8193 8191 8193 8191 8194 8197 8197 8198 8201 8196 8193 8194 8193 8193 8193 8191 8190 8188 8184 8185 8183 8186 8188 8187 8184 8186 8189 8187 8188 8191 8193 8191 8193 8191 8190 8189 8185 8185 8181 8184 
8190 8187 8176 8175 8171 8169 8170 8171 8171 8170 8176 8173 8175 8172 8175 8173 8177 8175 8177 8181 8176 8178 8180 8176 8179 8180 8181 8183 8184 8184 8187 8187 8190 8189 8187 8188 8192 8187 8190 8187 8192 8192 8190 8195 8198 8199 8199 8198 8198 8198 8196 8195 8192 8191 8191 8188 8188 8182 8180 8186 8183 8183 8187 8187 8187 8188 8188 8187 8191 8192 8193 8192 8192 8190 8188 8189 8185 8186 8180 8185 
8196 8183 8170 8170 8172 8173 8170 8170 8168 8167 8168 8171 8177 8174 8175 8172 8172 8170 8172 8178 8180 8176 8175 8176 8178 8176 8179 8183 8182 8181 8185 8186 8190 8184 8188 8186 8189 8190 8188 8188 8187 8189 8192 8192 8197 8195 8195 8196 8198 8195 8191 8190 8188 8187 8185 8185 8184 8178 8176 8177 8182 8181 8182 8186 8186 8186 8185 8185 8190 8196 8191 8192 8192 8188 8186 8188 8184 8186 8183 8180 


