P2
80 60
8288
8227 8229 8231 8233 8235 8237 8233 8233 8234 8237 8238 8238 8241 8241 8245 8247 8244 8245 8253 8253 8255 8252 8251 8254 8250 8250 8249 8254 8255 8257 8258 8263 8265 8264 8268 8269 8270 8268 8274 8275 8274 8272 8271 8274 8277 8279 8276 8282 8283 8284 8278 8276 8277 8278 8277 8278 8275 8278 8276 8275 8269 8270 8268 8267 8262 8265 8265 8265 8269 8272 8272 8273 8274 8271 8274 8272 8270 8273 8271 8269 
8229 8233 8235 8234 8238 8239 8240 8238 8237 8237 8237 8237 8241 8243 8247 8247 8248 8251 8252 8252 8254 8252 8254 8252 8254 8253 8251 8253 8255 8258 8263 8262 8264 8267 8268 8267 8266 8270 8275 8274 8275 8271 8272 8273 8273 8274 8276 8278 8278 8281 8280 8277 8275 8275 8274 8276 8276 8275 8271 8276 8271 8269 8268 8266 8263 8263 8264 8267 8269 8273 8275 8274 8272 8273 8274 8273 8272 8272 8272 8268 
8232 8234 8236 8238 8242 8241 8240 8240 8239 8238 8236 8237 8243 8242 8245 8249 8251 8251 8255 8251 8253 8250 8250 8254 8251 8252 8256 8254 8258 8260 8266 8264 8265 8264 8267 8268 8267 8268 8275 8275 8275 8273 8272 8271 8271 8273 8276 8277 8279 8280 8276 8274 8274 8276 8274 8276 8272 8276 8271 8271 8268 8267 8263 8265 8263 8264 8267 8267 8271 8272 8274 8273 8273 8273 8274 8274 8272 8273 8265 8268 
8234 8240 8237 8238 8239 8243 8242 8241 8240 8238 8236 8236 8241 8242 8245 8249 8252 8252 8251 8251 8251 8253 8248 8251 8252 8253 8252 8255 8259 8263 8267 8268 8268 8267 8267 8268 8272 8273 8276 8276 8278 8276 8277 8274 8277 8275 8277 8276 8278 8278 8275 8274 8276 8276 8274 8275 8275 8274 8272 8272 8266 8266 8264 8263 8264 8266 8266 8267 8271 8272 8272 8273 8271 8272 8273 8273 8273 8272 8263 8261 
8237 8241 8239 8240 8243 8243 8244 8241 8237 8239 8239 8237 8239 8242 8248 8249 8250 8250 8255 8253 8252 8252 8251 8252 8255 8257 8256 8258 8263 8267 8272 8277 8275 8275 8273 8273 8276 8278 8286 8285 8283 8278 8279 8277 8276 8275 8278 8277 8280 8279 8275 8274 8273 8276 8274 8275 8275 8275 8269 8270 8265 8266 8264 8264 8262 8265 8266 8266 8269 8268 8271 8275 8271 8271 8270 8272 8269 8270 8262 8262 
8244 8247 8243 8240 8246 8245 8246 8242 8241 8239 8238 8238 8242 8242 8247 8247 8250 8253 8254 8253 8256 8254 8258 8260 8261 8259 8261 8263 8268 8271 8276 8276 8276 8275 8279 8278 8278 8282 8284 8283 8286 8282 8279 8277 8276 8276 8276 8278 8277 8275 8274 8271 8275 8275 8272 8274 8276 8273 8272 8272 8266 8266 8263 8262 8263 8264 8263 8267 8268 8271 8268 8269 8270 8268 8268 8268 8271 8269 8261 8261 
8250 8249 8246 8244 8244 8244 8246 8247 8239 8236 8239 8241 8242 8240 8243 8246 8249 8253 8260 8257 8261 8263 8263 8262 8263 8257 8262 8262 8269 8270 8273 8276 8276 8277 8276 8277 8279 8282 8285 8287 8283 8280 8279 8277 8276 8275 8276 8276 8273 8277 8273 8271 8273 8271 8271 8272 8273 8275 8273 8272 8266 8264 8262 8262 8261 8265 8264 8264 8266 8267 8268 8267 8267 8267 8266 8267 8268 8265 8260 8260 
8246 8247 8250 8247 8246 8245 8246 8249 8243 8237 8239 8238 8243 8244 8250 8254 8255 8259 8263 8262 8265 8262 8260 8263 8262 8256 8260 8260 8267 8268 8271 8273 8275 8279 8276 8280 8279 8283 8285 8288 8284 8279 8281 8277 8277 8275 8275 8276 8275 8276 8271 8270 8269 8273 8272 8273 8272 8273 8268 8269 8264 8262 8259 8261 8259 8263 8264 8264 8265 8265 8265 8266 8264 8262 8264 8262 8264 8265 8260 8256 
8245 8247 8247 8245 8248 8245 8245 8244 8241 8242 8242 8244 8249 8250 8255 8260 8257 8259 8264 8264 8264 8264 8259 8261 8264 8263 8263 8260 8266 8270 8272 8275 8274 8276 8278 8273 8277 8283 8284 8283 8284 8279 8279 8278 8276 8274 8276 8275 8275 8276 8272 8269 8268 8272 8273 8271 8271 8268 8268 8267 8263 8261 8258 8261 8261 8264 8266 8264 8263 8264 8263 8265 8263 8263 8262 8263 8262 8263 8256 8257 
8245 8248 8245 8245 8245 8246 8243 8245 8246 8241 8251 8250 8252 8253 8255 8259 8258 8259 8262 8260 8261 8262 8260 8261 8262 8263 8262 8262 8268 8266 8272 8273 8275 8273 8279 8274 8277 8277 8282 8281 8283 8279 8277 8278 8276 8273 8276 8276 8272 8277 8271 8268 8271 8271 8268 8272 8268 8267 8267 8265 8259 8263 8259 8259 8260 8261 8265 8261 8265 8266 8264 8265 8260 8259 8262 8257 8258 8258 8255 8261 
8243 8246 8241 8240 8243 8244 8246 8243 8245 8253 8251 8252 8252 8251 8254 8257 8260 8261 8263 8261 8263 8262 8260 8258 8260 8258 8262 8264 8269 8267 8272 8271 8270 8270 8273 8273 8273 8278 8281 8280 8280 8277 8276 8277 8275 8276 8276 8273 8274 8276 8271 8269 8271 8270 8269 8267 8270 8268 8264 8264 8260 8258 8258 8258 8259 8260 8260 8263 8261 8263 8262 8264 8263 8262 8263 8259 8258 8259 8256 8258 
8244 8243 8242 8240 8241 8241 8242 8245 8249 8252 8254 8252 8255 8255 8256 8258 8257 8259 8263 8257 8261 8262 8259 8260 8257 8261 8261 8260 8265 8268 8270 8273 8270 8269 8270 8270 8272 8274 8275 8275 8278 8274 8278 8277 8277 8274 8277 8276 8273 8274 8271 8270 8268 8268 8266 8267 8267 8266 8266 8262 8259 8258 8257 8258 8258 8260 8262 8262 8264 8266 8260 8264 8261 8262 8262 8264 8264 8266 8260 8261 
8241 8246 8244 8239 8241 8240 8243 8247 8250 8251 8252 8250 8251 8255 8257 8259 8260 8260 8261 8260 8260 8260 8259 8257 8259 8259 8261 8259 8267 8266 8267 8269 8270 8271 8269 8268 8271 8274 8274 8274 8276 8273 8273 8275 8274 8273 8274 8275 8276 8273 8271 8271 8265 8269 8265 8269 8266 8270 8265 8263 8258 8257 8256 8260 8254 8259 8262 8259 8260 8262 8260 8258 8257 8261 8261 8262 8262 8265 8263 8265 
8241 8246 8244 8241 8244 8242 8245 8246 8248 8249 8251 8252 8254 8253 8260 8259 8259 8261 8264 8259 8264 8260 8258 8259 8260 8259 8258 8259 8266 8265 8268 8271 8268 8268 8268 8269 8270 8271 8273 8277 8273 8273 8275 8271 8273 8272 8273 8272 8273 8272 8272 8270 8270 8271 8267 8266 8266 8268 8265 8263 8256 8255 8258 8255 8256 8258 8260 8257 8262 8262 8259 8260 8260 8262 8261 8260 8264 8264 8262 8265 
8238 8241 8245 8244 8248 8246 8247 8247 8251 8251 8251 8251 8252 8254 8257 8258 8259 8261 8262 8260 8259 8262 8255 8259 8259 8258 8261 8263 8263 8265 8266 8270 8265 8268 8270 8269 8269 8270 8272 8273 8274 8272 8269 8272 8273 8269 8272 8270 8271 8271 8269 8270 8268 8268 8269 8267 8267 8266 8263 8263 8254 8253 8254 8255 8256 8262 8258 8261 8262 8263 8259 8261 8260 8261 8261 8259 8262 8267 8262 8266 
8238 8240 8245 8243 8250 8249 8249 8249 8252 8253 8253 8251 8256 8258 8259 8259 8262 8262 8262 8258 8258 8259 8255 8255 8258 8259 8259 8261 8264 8266 8267 8267 8268 8270 8270 8267 8268 8268 8272 8274 8270 8268 8271 8270 8270 8267 8268 8269 8270 8270 8270 8268 8265 8268 8265 8265 8265 8265 8259 8260 8257 8255 8254 8256 8257 8260 8261 8260 8261 8262 8259 8258 8261 8259 8259 8263 8263 8264 8266 8264 
8239 8242 8243 8245 8254 8250 8253 8251 8254 8254 8253 8252 8255 8254 8256 8260 8261 8262 8260 8258 8261 8258 8257 8256 8255 8257 8259 8261 8262 8262 8265 8266 8267 8268 8269 8267 8267 8269 8270 8272 8271 8270 8271 8270 8266 8266 8266 8268 8268 8269 8269 8266 8266 8267 8264 8266 8264 8263 8260 8259 8253 8255 8253 8255 8256 8259 8260 8258 8259 8260 8257 8257 8257 8260 8259 8264 8261 8263 8262 8264 
8243 8249 8248 8251 8255 8255 8254 8255 8255 8255 8254 8253 8252 8257 8258 8256 8258 8259 8261 8258 8257 8259 8256 8257 8256 8257 8257 8260 8265 8265 8267 8267 8266 8269 8268 8265 8265 8266 8266 8266 8268 8264 8266 8267 8266 8264 8264 8264 8264 8269 8266 8268 8263 8264 8261 8264 8262 8261 8261 8257 8252 8254 8254 8257 8257 8257 8259 8255 8257 8258 8258 8259 8257 8258 8259 8259 8260 8264 8259 8263 
8246 8250 8252 8251 8257 8254 8255 8256 8257 8254 8253 8255 8255 8254 8256 8257 8259 8259 8258 8260 8259 8258 8258 8257 8256 8255 8259 8259 8265 8264 8268 8269 8267 8266 8266 8264 8264 8264 8265 8264 8266 8264 8268 8265 8263 8260 8261 8262 8264 8264 8266 8263 8262 8263 8260 8261 8259 8261 8259 8257 8252 8254 8254 8258 8258 8255 8258 8258 8258 8258 8256 8255 8257 8256 8259 8258 8259 8263 8258 8254 
8248 8251 8253 8251 8253 8255 8255 8260 8253 8255 8254 8252 8255 8255 8253 8255 8256 8255 8259 8253 8256 8257 8258 8255 8256 8255 8256 8256 8261 8265 8266 8267 8266 8266 8265 8262 8261 8263 8259 8232 8250 8255 8259 8261 8256 8256 8257 8257 8259 8261 8260 8264 8259 8259 8259 8260 8260 8258 8255 8258 8251 8252 8251 8254 8254 8255 8257 8253 8255 8257 8257 8255 8257 8256 8256 8256 8257 8257 8257 8256 
8251 8254 8256 8253 8252 8252 8251 8256 8258 8249 8254 8251 8253 8251 8251 8255 8254 8255 8255 8252 8256 8256 8255 8254 8252 8255 8256 8258 8260 8261 8265 8262 8265 8263 8262 8260 8258 8261 8234 8171 8189 8206 8238 8236 8234 8238 8244 8251 8253 8257 8258 8256 8256 8258 8257 8258 8256 8258 8253 8255 8250 8252 8250 8253 8255 8254 8256 8253 8253 8255 8255 8256 8253 8255 8254 8257 8259 8261 8257 8255 
8252 8259 8258 8254 8253 8253 8248 8254 8250 8253 8253 8254 8252 8251 8253 8255 8253 8254 8252 8250 8253 8254 8253 8253 8255 8254 8254 8254 8256 8258 8260 8260 8262 8261 8261 8258 8254 8240 8191 8154 8163 8187 8187 8172 8171 8183 8192 8206 8222 8237 8246 8250 8251 8255 8258 8255 8258 8258 8254 8254 8246 8249 8250 8253 8252 8254 8253 8253 8257 8251 8252 8254 8251 8252 8254 8255 8259 8260 8257 8257 
8253 8258 8260 8256 8258 8252 8247 8248 8249 8253 8252 8254 8251 8253 8251 8251 8252 8251 8251 8247 8253 8254 8254 8254 8252 8252 8253 8254 8254 8251 8251 8256 8253 8242 8244 8231 8207 8172 8154 8151 8184 8184 8164 8158 8156 8154 8158 8182 8197 8204 8213 8231 8246 8255 8257 8253 8252 8252 8248 8249 8246 8250 8249 8251 8252 8251 8255 8251 8254 8251 8252 8249 8249 8253 8254 8253 8257 8262 8257 8255 
8254 8258 8260 8258 8258 8256 8250 8248 8254 8254 8254 8252 8254 8252 8251 8253 8250 8249 8250 8241 8225 8239 8253 8254 8254 8252 8251 8250 8223 8180 8175 8180 8180 8169 8178 8178 8182 8165 8154 8170 8171 8174 8166 8158 8154 8151 8153 8192 8213 8205 8200 8207 8238 8250 8253 8250 8210 8233 8246 8247 8239 8245 8249 8252 8252 8250 8253 8250 8251 8251 8252 8250 8251 8252 8254 8256 8256 8261 8255 8253 
8253 8255 8257 8256 8261 8254 8251 8252 8252 8252 8253 8253 8254 8253 8254 8253 8252 8248 8221 8182 8172 8190 8239 8250 8251 8250 8249 8247 8220 8160 8154 8149 8152 8161 8167 8177 8192 8181 8156 8167 8164 8164 8160 8156 8151 8147 8159 8185 8194 8188 8192 8208 8225 8246 8249 8242 8185 8205 8226 8200 8190 8234 8244 8250 8248 8253 8251 8248 8249 8249 8250 8249 8250 8250 8251 8254 8257 8258 8255 8252 
8251 8257 8259 8262 8259 8255 8253 8252 8251 8253 8255 8254 8251 8253 8252 8252 8251 8211 8167 8161 8167 8169 8191 8240 8248 8247 8247 8248 8214 8159 8155 8157 8152 8154 8165 8164 8166 8172 8153 8155 8156 8155 8159 8175 8160 8159 8161 8168 8165 8169 8175 8211 8229 8227 8229 8195 8173 8176 8179 8185 8218 8241 8242 8248 8250 8250 8251 8249 8247 8247 8248 8248 8249 8249 8249 8251 8253 8257 8254 8258 
8251 8255 8258 8260 8263 8256 8253 8249 8252 8254 8255 8256 8255 8254 8253 8253 8253 8239 8184 8158 8161 8161 8167 8193 8239 8249 8251 8248 8197 8162 8150 8149 8153 8147 8146 8144 8144 8153 8150 8153 8156 8157 8166 8173 8168 8177 8171 8171 8166 8168 8167 8189 8191 8198 8177 8167 8163 8167 8185 8223 8239 8244 8244 8246 8248 8249 8247 8246 8246 8245 8242 8248 8248 8249 8250 8252 8253 8255 8250 8255 
8253 8254 8256 8259 8260 8255 8252 8254 8256 8258 8256 8255 8254 8251 8252 8253 8253 8253 8240 8178 8160 8160 8162 8164 8196 8239 8248 8249 8245 8182 8150 8148 8158 8148 8144 8143 8146 8155 8155 8157 8156 8152 8160 8165 8175 8164 8175 8185 8165 8161 8166 8164 8158 8162 8159 8159 8160 8171 8178 8199 8227 8241 8243 8244 8249 8247 8245 8245 8242 8243 8245 8243 8245 8249 8249 8249 8251 8254 8247 8250 
8248 8255 8257 8255 8259 8257 8255 8253 8253 8256 8257 8256 8256 8252 8252 8253 8256 8255 8253 8235 8184 8157 8158 8162 8162 8202 8244 8245 8220 8155 8149 8147 8145 8142 8143 8146 8149 8153 8158 8160 8160 8153 8151 8148 8156 8161 8172 8167 8155 8174 8185 8163 8152 8157 8161 8167 8171 8170 8172 8172 8208 8236 8240 8245 8243 8246 8244 8243 8243 8242 8243 8242 8242 8244 8247 8252 8252 8253 8252 8252 
8245 8255 8256 8257 8260 8256 8254 8255 8255 8258 8255 8256 8255 8255 8251 8252 8256 8256 8251 8246 8239 8184 8160 8162 8160 8164 8207 8237 8180 8152 8151 8150 8144 8140 8141 8144 8147 8151 8155 8163 8165 8165 8164 8159 8157 8156 8151 8160 8167 8168 8162 8158 8151 8158 8165 8170 8172 8171 8164 8167 8198 8234 8237 8242 8243 8245 8244 8243 8245 8243 8242 8242 8246 8246 8249 8249 8253 8254 8252 8249 
8249 8253 8255 8257 8258 8256 8255 8253 8258 8255 8258 8252 8254 8251 8251 8254 8252 8254 8254 8248 8248 8242 8186 8164 8160 8162 8164 8183 8152 8157 8149 8142 8142 8140 8143 8136 8138 8145 8153 8156 8157 8151 8167 8162 8171 8150 8147 8153 8161 8160 8155 8153 8152 8154 8158 8168 8168 8169 8168 8167 8187 8230 8237 8241 8242 8242 8242 8241 8240 8243 8242 8244 8243 8245 8245 8250 8249 8256 8249 8254 
8249 8254 8254 8257 8258 8258 8255 8256 8256 8257 8255 8254 8253 8249 8252 8253 8254 8253 8255 8251 8249 8251 8238 8186 8157 8163 8159 8155 8148 8156 8153 8144 8142 8141 8146 8147 8140 8141 8147 8150 8158 8159 8158 8160 8161 8146 8146 8150 8155 8152 8152 8152 8152 8154 8156 8161 8158 8168 8189 8186 8201 8232 8238 8240 8241 8241 8244 8242 8243 8242 8240 8242 8242 8243 8248 8248 8253 8256 8251 8253 
8253 8257 8258 8256 8263 8259 8253 8255 8258 8255 8253 8252 8251 8249 8250 8251 8250 8253 8252 8249 8252 8255 8252 8241 8187 8163 8160 8153 8150 8154 8154 8150 8144 8140 8146 8148 8140 8144 8150 8162 8165 8163 8159 8154 8154 8162 8157 8148 8153 8151 8162 8157 8154 8155 8158 8162 8163 8171 8200 8207 8224 8233 8235 8238 8240 8240 8238 8240 8244 8243 8240 8241 8243 8246 8247 8248 8254 8252 8250 8248 
8250 8257 8263 8256 8261 8257 8254 8254 8257 8256 8256 8248 8249 8250 8252 8249 8248 8254 8252 8249 8252 8252 8251 8251 8239 8189 8159 8155 8149 8144 8145 8145 8142 8143 8147 8143 8139 8149 8149 8153 8161 8161 8161 8153 8155 8175 8155 8154 8150 8152 8164 8157 8154 8154 8152 8159 8162 8173 8197 8205 8221 8234 8235 8235 8238 8238 8239 8238 8240 8244 8240 8242 8243 8246 8248 8249 8251 8252 8248 8245 
8255 8261 8263 8263 8259 8257 8255 8255 8259 8255 8257 8253 8250 8249 8252 8249 8251 8253 8255 8253 8253 8254 8251 8253 8248 8238 8174 8153 8149 8150 8149 8147 8144 8147 8150 8140 8148 8149 8141 8147 8154 8155 8156 8148 8153 8158 8160 8159 8154 8146 8157 8155 8155 8159 8158 8157 8160 8165 8171 8193 8212 8234 8234 8238 8240 8238 8239 8239 8241 8243 8243 8240 8241 8243 8248 8246 8246 8249 8249 8245 
8251 8259 8265 8259 8258 8259 8257 8258 8256 8254 8252 8252 8252 8250 8251 8249 8252 8250 8253 8251 8253 8252 8252 8251 8248 8240 8187 8162 8156 8155 8154 8147 8145 8148 8153 8154 8148 8153 8155 8150 8152 8146 8147 8151 8164 8179 8157 8160 8158 8157 8166 8173 8166 8159 8161 8160 8163 8167 8164 8183 8208 8232 8234 8237 8239 8240 8240 8240 8242 8241 8239 8240 8243 8243 8248 8246 8245 8250 8247 8242 
8256 8260 8262 8259 8260 8261 8258 8258 8260 8258 8255 8256 8256 8253 8253 8250 8250 8251 8250 8253 8252 8253 8253 8252 8249 8238 8186 8185 8175 8164 8156 8150 8153 8153 8157 8156 8152 8152 8148 8152 8151 8147 8149 8147 8151 8156 8158 8158 8158 8155 8171 8171 8169 8157 8155 8159 8163 8171 8172 8189 8206 8231 8237 8236 8239 8240 8239 8240 8241 8242 8242 8240 8243 8243 8246 8246 8244 8246 8246 8245 
8258 8262 8263 8260 8262 8262 8257 8258 8257 8256 8257 8256 8256 8252 8252 8252 8252 8249 8249 8250 8250 8251 8253 8253 8248 8237 8189 8186 8187 8171 8169 8159 8157 8156 8157 8158 8161 8161 8158 8158 8154 8155 8153 8151 8148 8149 8152 8168 8170 8154 8178 8176 8187 8165 8156 8159 8166 8177 8189 8197 8204 8232 8235 8238 8239 8245 8241 8240 8242 8243 8242 8242 8242 8248 8244 8244 8247 8247 8244 8244 
8259 8264 8264 8260 8260 8261 8261 8258 8256 8257 8258 8257 8251 8253 8249 8250 8250 8249 8250 8248 8251 8251 8250 8251 8250 8239 8197 8186 8192 8178 8171 8173 8167 8163 8164 8165 8161 8161 8160 8155 8156 8162 8165 8158 8148 8145 8149 8155 8157 8158 8159 8168 8185 8178 8155 8160 8168 8166 8189 8193 8205 8232 8234 8237 8240 8241 8241 8240 8242 8242 8237 8240 8245 8247 8246 8244 8243 8245 8244 8246 
8256 8264 8266 8263 8261 8258 8258 8258 8257 8257 8255 8255 8251 8253 8250 8249 8249 8251 8252 8252 8254 8252 8250 8252 8250 8240 8201 8192 8202 8179 8170 8173 8169 8164 8166 8169 8162 8162 8162 8161 8160 8167 8160 8164 8156 8147 8151 8153 8149 8151 8154 8157 8163 8162 8156 8167 8162 8164 8189 8193 8209 8236 8238 8239 8241 8242 8241 8241 8245 8242 8240 8244 8243 8244 8244 8243 8242 8247 8244 8240 
8257 8264 8262 8259 8262 8259 8257 8256 8257 8255 8259 8259 8251 8250 8251 8248 8247 8251 8251 8252 8254 8252 8251 8252 8249 8245 8207 8199 8213 8184 8175 8177 8176 8171 8173 8170 8170 8168 8167 8164 8167 8174 8167 8158 8156 8159 8164 8164 8152 8150 8150 8156 8153 8158 8156 8163 8158 8171 8192 8197 8215 8242 8239 8241 8243 8242 8242 8241 8242 8245 8240 8244 8243 8244 8245 8243 8243 8247 8244 8242 
8254 8264 8264 8258 8260 8260 8255 8254 8258 8256 8256 8256 8253 8252 8254 8250 8250 8250 8251 8250 8252 8251 8249 8252 8250 8248 8221 8209 8224 8199 8180 8178 8174 8174 8180 8178 8178 8170 8168 8164 8171 8174 8166 8155 8160 8179 8177 8158 8148 8149 8150 8148 8155 8158 8151 8156 8165 8180 8193 8198 8227 8242 8242 8243 8243 8243 8243 8242 8243 8243 8242 8245 8243 8246 8245 8246 8246 8247 8240 8242 
8251 8261 8257 8261 8257 8256 8255 8256 8257 8256 8256 8255 8254 8253 8253 8250 8247 8251 8252 8248 8251 8252 8248 8252 8251 8247 8237 8222 8229 8215 8190 8184 8180 8182 8191 8192 8187 8179 8165 8160 8161 8165 8162 8155 8166 8181 8166 8149 8146 8151 8150 8149 8152 8152 8152 8156 8167 8190 8195 8209 8238 8245 8244 8244 8243 8243 8243 8240 8240 8241 8243 8246 8244 8245 8246 8248 8245 8243 8241 8241 
8255 8260 8259 8255 8253 8252 8254 8251 8255 8257 8258 8256 8258 8252 8254 8249 8248 8250 8251 8250 8252 8251 8249 8252 8249 8251 8248 8235 8236 8231 8198 8187 8191 8190 8195 8196 8187 8177 8168 8151 8151 8161 8171 8163 8171 8173 8162 8161 8155 8149 8154 8159 8148 8153 8158 8164 8176 8194 8200 8220 8243 8246 8245 8245 8247 8245 8242 8240 8243 8246 8244 8245 8245 8245 8247 8249 8246 8248 8243 8241 
8253 8261 8259 8254 8255 8250 8251 8253 8257 8251 8258 8255 8253 8254 8251 8250 8250 8253 8250 8249 8252 8249 8249 8251 8251 8250 8253 8242 8240 8241 8216 8193 8194 8191 8193 8198 8182 8175 8176 8163 8155 8154 8165 8170 8176 8177 8179 8182 8156 8152 8165 8177 8152 8156 8167 8163 8181 8200 8203 8238 8245 8245 8247 8248 8248 8245 8243 8241 8241 8246 8242 8246 8246 8245 8245 8244 8249 8245 8242 8237 
8255 8257 8257 8255 8252 8250 8250 8253 8253 8252 8254 8255 8254 8251 8254 8253 8252 8253 8253 8250 8253 8252 8251 8252 8250 8253 8252 8248 8237 8240 8238 8210 8204 8197 8192 8199 8192 8179 8183 8180 8173 8167 8167 8176 8175 8175 8174 8172 8157 8164 8181 8191 8172 8168 8173 8170 8194 8203 8219 8247 8250 8249 8249 8246 8246 8246 8245 8244 8241 8247 8242 8244 8245 8245 8245 8245 8245 8246 8242 8243 
8256 8260 8257 8252 8253 8248 8253 8252 8254 8254 8253 8256 8254 8253 8254 8254 8250 8254 8253 8251 8253 8252 8250 8253 8250 8252 8252 8254 8241 8231 8248 8236 8209 8198 8196 8201 8193 8185 8189 8190 8186 8183 8181 8178 8180 8187 8176 8168 8165 8178 8192 8190 8190 8182 8176 8192 8204 8212 8236 8252 8251 8248 8244 8248 8244 8244 8245 8247 8243 8244 8249 8245 8244 8248 8245 8245 8243 8244 8242 8242 
8255 8260 8258 8256 8254 8254 8255 8253 8255 8255 8254 8254 8255 8250 8254 8256 8254 8253 8254 8252 8256 8252 8253 8252 8255 8255 8254 8255 8252 8227 8240 8252 8232 8204 8188 8198 8194 8196 8195 8199 8196 8194 8197 8202 8203 8198 8205 8199 8176 8180 8187 8194 8190 8187 8192 8206 8209 8231 8247 8252 8250 8246 8247 8245 8243 8246 8243 8243 8243 8247 8246 8249 8248 8249 8247 8247 8244 8246 8240 8241 
8254 8254 8258 8254 8251 8253 8251 8252 8253 8252 8254 8254 8252 8251 8253 8254 8252 8255 8252 8251 8251 8251 8252 8253 8253 8252 8255 8254 8255 8247 8228 8243 8258 8233 8213 8207 8199 8196 8197 8204 8197 8196 8197 8208 8212 8200 8200 8199 8191 8187 8193 8193 8194 8200 8211 8210 8225 8247 8252 8254 8249 8247 8246 8245 8242 8243 8244 8240 8244 8248 8244 8246 8246 8249 8249 8247 8246 8247 8240 8239 
8250 8253 8249 8251 8249 8252 8254 8248 8250 8251 8253 8251 8251 8252 8254 8252 8253 8255 8256 8252 8251 8253 8254 8255 8254 8256 8256 8256 8258 8257 8249 8232 8246 8261 8242 8227 8212 8197 8201 8205 8201 8197 8200 8203 8205 8199 8190 8186 8187 8195 8200 8202 8207 8217 8217 8226 8250 8257 8252 8256 8249 8244 8247 8244 8244 8241 8242 8241 8245 8244 8244 8246 8244 8246 8248 8246 8244 8247 8239 8240 
8245 8251 8248 8247 8249 8247 8248 8250 8251 8250 8252 8252 8253 8252 8252 8251 8254 8256 8255 8249 8252 8253 8254 8255 8253 8254 8254 8256 8260 8262 8259 8251 8234 8247 8261 8248 8228 8218 8210 8214 8208 8206 8206 8208 8203 8199 8187 8184 8207 8215 8213 8220 8223 8220 8230 8247 8253 8258 8252 8253 8249 8245 8245 8241 8244 8239 8241 8242 8243 8245 8245 8247 8246 8246 8246 8243 8241 8240 8240 8240 
8249 8251 8247 8246 8245 8248 8242 8247 8248 8244 8247 8248 8253 8253 8255 8252 8254 8256 8250 8252 8254 8253 8255 8252 8253 8255 8255 8257 8264 8263 8262 8264 8254 8237 8238 8249 8251 8238 8234 8230 8218 8213 8205 8210 8203 8200 8199 8209 8219 8226 8224 8221 8225 8239 8246 8257 8255 8255 8254 8256 8248 8245 8243 8241 8241 8237 8241 8240 8241 8242 8241 8243 8244 8244 8244 8242 8242 8242 8237 8237 
8246 8252 8250 8248 8245 8245 8245 8243 8249 8246 8246 8246 8252 8253 8254 8251 8254 8255 8254 8253 8253 8253 8254 8255 8253 8254 8254 8257 8260 8260 8263 8266 8264 8250 8234 8229 8234 8240 8248 8244 8243 8232 8228 8221 8218 8217 8219 8226 8224 8227 8226 8233 8240 8253 8255 8259 8257 8257 8251 8254 8248 8248 8244 8241 8241 8238 8238 8239 8239 8240 8242 8242 8245 8243 8246 8244 8241 8243 8236 8241 
8248 8251 8247 8247 8248 8248 8248 8245 8246 8245 8243 8245 8247 8248 8250 8249 8252 8256 8254 8252 8254 8253 8254 8255 8255 8253 8255 8255 8258 8262 8263 8265 8264 8263 8256 8235 8228 8226 8232 8236 8238 8242 8242 8232 8229 8225 8222 8221 8223 8231 8239 8244 8252 8258 8257 8260 8260 8258 8252 8253 8250 8247 8245 8241 8238 8239 8237 8236 8238 8240 8241 8241 8247 8245 8243 8241 8237 8238 8238 8235 
8248 8252 8251 8245 8247 8250 8245 8246 8245 8246 8243 8245 8249 8247 8248 8250 8249 8252 8254 8252 8257 8253 8256 8256 8252 8251 8253 8251 8260 8260 8262 8261 8265 8262 8263 8259 8251 8241 8231 8227 8226 8227 8228 8226 8223 8221 8223 8230 8238 8247 8252 8250 8255 8260 8256 8258 8260 8259 8252 8253 8247 8245 8245 8240 8241 8237 8241 8239 8238 8239 8243 8243 8242 8243 8240 8238 8240 8240 8231 8237 
8245 8249 8250 8248 8245 8247 8242 8244 8248 8247 8246 8243 8246 8244 8247 8245 8246 8250 8248 8251 8254 8250 8253 8252 8252 8253 8251 8252 8259 8260 8262 8263 8265 8263 8263 8262 8260 8257 8254 8247 8237 8231 8231 8233 8232 8234 8237 8248 8250 8254 8255 8255 8255 8258 8257 8258 8257 8256 8251 8251 8244 8242 8242 8242 8240 8238 8240 8236 8241 8240 8242 8240 8240 8238 8242 8239 8239 8236 8231 8233 
8247 8252 8250 8247 8246 8240 8240 8247 8244 8246 8246 8245 8245 8245 8247 8244 8245 8248 8250 8251 8252 8253 8251 8251 8253 8252 8253 8257 8259 8262 8263 8265 8266 8266 8264 8262 8262 8265 8265 8267 8260 8256 8253 8252 8250 8250 8253 8255 8257 8259 8258 8257 8255 8256 8254 8255 8252 8255 8251 8249 8242 8244 8237 8236 8238 8238 8239 8240 8240 8242 8243 8241 8240 8238 8240 8239 8231 8232 8229 8235 
8251 8254 8246 8241 8244 8240 8240 8244 8244 8242 8242 8241 8244 8242 8244 8242 8241 8247 8243 8246 8249 8247 8248 8254 8252 8249 8253 8255 8258 8263 8266 8266 8266 8265 8265 8263 8263 8263 8268 8268 8263 8260 8258 8255 8256 8255 8257 8257 8260 8261 8258 8256 8254 8257 8252 8255 8252 8253 8249 8247 8244 8239 8237 8238 8238 8238 8242 8238 8241 8241 8247 8241 8240 8237 8242 8236 8235 8236 8233 8236 
8249 8249 8243 8238 8238 8235 8235 8240 8239 8241 8238 8237 8239 8238 8239 8234 8238 8240 8242 8246 8246 8244 8243 8249 8250 8250 8249 8253 8259 8260 8263 8263 8264 8263 8264 8261 8263 8261 8263 8266 8265 8260 8255 8253 8253 8254 8255 8258 8256 8259 8257 8254 8255 8252 8250 8253 8253 8248 8249 8249 8242 8241 8241 8240 8242 8244 8243 8243 8250 8250 8249 8250 8248 8249 8248 8248 8248 8245 8239 8247 
8259 8251 8246 8241 8236 8234 8234 8231 8235 8232 8230 8228 8227 8229 8231 8228 8230 8229 8234 8234 8238 8235 8235 8240 8238 8241 8242 8242 8248 8247 8245 8244 8247 8247 8246 8244 8244 8247 8248 8246 8246 8249 8245 8244 8244 8243 8245 8250 8252 8250 8249 8248 8246 8244 8244 8246 8247 8248 8248 8251 8245 8245 8245 8246 8248 8249 8250 8251 8251 8252 8258 8260 8258 8262 8264 8260 8263 8260 8258 8244 


