P2
80 60
8186
8105 8112 8119 8121 8122 8123 8127 8129 8128 8128 8133 8137 8135 8135 8137 8139 8138 8140 8145 8148 8151 8150 8154 8150 8153 8151 8148 8152 8153 8153 8156 8161 8160 8161 8160 8164 8167 8168 8174 8176 8173 8173 8171 8168 8168 8169 8169 8169 8170 8168 8172 8169 8164 8165 8159 8159 8159 8156 8160 8157 8161 8157 8148 8142 8137 8137 8138 8141 8140 8141 8145 8146 8146 8146 8148 8146 8145 8142 8138 8140 
8107 8113 8120 8126 8125 8126 8125 8130 8130 8129 8133 8134 8134 8136 8138 8141 8145 8143 8147 8149 8151 8155 8153 8150 8155 8154 8153 8156 8156 8155 8160 8163 8164 8161 8162 8164 8168 8168 8174 8174 8175 8174 8172 8171 8170 8170 8169 8169 8168 8168 8168 8168 8166 8163 8161 8162 8161 8160 8162 8165 8160 8158 8149 8142 8140 8135 8137 8140 8142 8144 8142 8143 8141 8147 8142 8142 8144 8144 8141 8138 
8109 8113 8121 8119 8127 8127 8129 8133 8128 8133 8133 8135 8132 8138 8141 8145 8144 8145 8147 8150 8152 8155 8154 8155 8157 8159 8155 8160 8159 8158 8159 8163 8166 8165 8167 8169 8170 8173 8176 8174 8177 8174 8172 8174 8173 8172 8170 8171 8172 8168 8172 8170 8169 8168 8167 8165 8166 8167 8168 8170 8167 8164 8158 8146 8143 8139 8139 8141 8143 8144 8146 8143 8144 8145 8145 8142 8144 8142 8142 8137 
8120 8115 8121 8126 8125 8132 8130 8134 8134 8133 8131 8132 8133 8141 8141 8147 8145 8144 8150 8152 8151 8150 8153 8154 8159 8160 8158 8161 8163 8162 8163 8167 8167 8168 8166 8168 8174 8175 8181 8177 8179 8177 8174 8174 8172 8175 8174 8174 8171 8170 8173 8172 8167 8170 8167 8169 8170 8170 8168 8174 8174 8168 8163 8153 8148 8144 8141 8143 8145 8144 8144 8145 8146 8143 8139 8140 8140 8142 8144 8137 
8125 8122 8128 8129 8128 8132 8132 8134 8134 8137 8131 8134 8135 8136 8139 8145 8146 8146 8147 8150 8149 8153 8153 8155 8155 8157 8159 8163 8161 8160 8167 8169 8167 8168 8170 8172 8177 8178 8183 8182 8181 8180 8176 8177 8178 8174 8176 8175 8173 8173 8176 8176 8172 8170 8169 8169 8171 8169 8173 8175 8175 8170 8167 8159 8152 8151 8143 8146 8149 8145 8147 8145 8144 8143 8138 8137 8138 8138 8142 8139 
8130 8130 8130 8134 8130 8131 8135 8135 8132 8132 8130 8135 8136 8138 8140 8142 8145 8145 8151 8151 8152 8151 8156 8155 8161 8157 8159 8159 8161 8164 8163 8170 8172 8170 8172 8173 8178 8181 8185 8185 8185 8181 8181 8178 8178 8178 8177 8177 8176 8171 8174 8173 8171 8174 8172 8175 8174 8176 8175 8177 8174 8172 8164 8158 8160 8155 8152 8153 8152 8151 8147 8147 8146 8138 8137 8134 8135 8139 8140 8138 
8136 8135 8136 8133 8133 8135 8137 8136 8134 8125 8126 8134 8132 8135 8137 8143 8141 8143 8148 8153 8148 8151 8154 8156 8160 8158 8152 8157 8162 8164 8167 8170 8174 8171 8171 8173 8181 8179 8186 8186 8183 8183 8182 8180 8179 8179 8181 8179 8177 8174 8174 8173 8173 8175 8171 8173 8175 8175 8171 8175 8173 8171 8164 8163 8156 8159 8155 8157 8153 8155 8149 8147 8144 8143 8138 8137 8136 8136 8142 8137 
8139 8140 8141 8140 8138 8141 8135 8140 8135 8129 8131 8133 8138 8136 8136 8142 8142 8142 8149 8152 8147 8149 8151 8152 8155 8156 8150 8155 8157 8159 8165 8168 8169 8170 8175 8174 8177 8179 8180 8183 8180 8181 8180 8180 8178 8178 8179 8177 8179 8176 8175 8173 8174 8174 8170 8172 8177 8177 8173 8177 8172 8172 8163 8160 8156 8158 8160 8159 8156 8155 8151 8148 8144 8141 8141 8137 8139 8138 8138 8138 
8138 8134 8138 8134 8138 8133 8138 8138 8135 8130 8133 8136 8135 8134 8133 8141 8138 8141 8143 8147 8147 8145 8151 8151 8149 8152 8152 8155 8161 8160 8163 8167 8166 8169 8172 8172 8176 8177 8178 8180 8182 8180 8178 8176 8177 8175 8174 8175 8177 8171 8173 8170 8171 8169 8169 8167 8167 8172 8172 8172 8170 8166 8161 8156 8155 8155 8155 8156 8153 8154 8153 8148 8144 8143 8144 8140 8137 8140 8139 8136 
8134 8131 8135 8133 8134 8135 8129 8135 8134 8130 8133 8134 8133 8133 8135 8140 8140 8142 8145 8146 8149 8150 8148 8148 8149 8156 8153 8159 8160 8163 8161 8167 8167 8168 8168 8171 8176 8177 8176 8178 8178 8176 8176 8175 8174 8174 8174 8174 8174 8172 8174 8171 8168 8168 8165 8166 8169 8168 8168 8173 8172 8167 8160 8160 8154 8151 8151 8155 8153 8153 8150 8150 8145 8142 8144 8143 8141 8144 8141 8140 
8133 8130 8134 8132 8129 8132 8130 8132 8135 8134 8132 8134 8135 8136 8136 8137 8142 8139 8143 8147 8146 8148 8150 8152 8156 8154 8155 8159 8162 8162 8164 8168 8169 8168 8169 8170 8172 8174 8176 8176 8178 8176 8178 8175 8175 8178 8177 8176 8172 8171 8173 8170 8170 8166 8163 8165 8166 8168 8169 8171 8171 8167 8161 8156 8151 8152 8153 8151 8152 8146 8145 8149 8143 8145 8139 8143 8142 8144 8146 8138 
8133 8131 8134 8128 8128 8130 8131 8132 8136 8129 8133 8137 8135 8136 8139 8141 8141 8141 8147 8151 8152 8151 8150 8149 8156 8157 8156 8161 8163 8160 8165 8169 8168 8168 8168 8169 8172 8171 8177 8176 8175 8177 8179 8176 8175 8179 8176 8173 8171 8169 8173 8172 8170 8168 8164 8163 8164 8167 8167 8170 8164 8165 8159 8153 8151 8149 8149 8151 8151 8148 8146 8141 8140 8143 8142 8144 8144 8145 8148 8143 
8133 8133 8134 8131 8130 8130 8132 8133 8132 8134 8133 8138 8139 8141 8144 8144 8146 8145 8146 8153 8149 8152 8150 8150 8155 8158 8156 8162 8162 8165 8165 8168 8169 8169 8167 8171 8173 8171 8171 8173 8175 8175 8179 8176 8175 8172 8173 8170 8172 8171 8173 8169 8168 8168 8163 8161 8161 8167 8168 8166 8164 8163 8158 8152 8154 8150 8152 8149 8149 8146 8141 8144 8141 8142 8143 8142 8146 8143 8149 8146 
8133 8134 8139 8134 8134 8135 8133 8134 8135 8139 8140 8139 8140 8142 8144 8147 8149 8145 8148 8152 8150 8150 8154 8150 8154 8158 8155 8160 8161 8163 8165 8169 8167 8165 8167 8167 8171 8170 8173 8171 8174 8174 8177 8177 8176 8175 8174 8173 8174 8171 8171 8169 8170 8167 8166 8165 8163 8167 8164 8169 8166 8164 8161 8154 8155 8153 8150 8151 8148 8147 8145 8147 8145 8141 8141 8141 8142 8145 8150 8140 
8136 8132 8138 8135 8135 8135 8135 8139 8135 8140 8141 8146 8143 8142 8148 8148 8149 8150 8149 8152 8149 8149 8150 8152 8155 8155 8153 8157 8159 8161 8161 8165 8166 8166 8167 8169 8173 8170 8172 8168 8169 8173 8173 8174 8173 8173 8171 8170 8172 8171 8172 8171 8168 8167 8167 8166 8163 8167 8167 8169 8170 8168 8161 8158 8155 8151 8149 8150 8150 8146 8147 8143 8144 8140 8141 8138 8145 8144 8146 8141 
8132 8135 8135 8139 8138 8139 8136 8140 8140 8140 8141 8147 8144 8145 8144 8150 8150 8145 8147 8152 8150 8149 8151 8151 8154 8155 8154 8159 8156 8161 8165 8167 8167 8165 8165 8170 8170 8169 8171 8169 8170 8171 8170 8171 8172 8172 8172 8169 8170 8169 8173 8171 8169 8168 8165 8164 8166 8165 8168 8173 8170 8165 8163 8156 8157 8153 8149 8149 8150 8146 8146 8145 8144 8144 8139 8143 8141 8141 8141 8145 
8136 8132 8137 8138 8138 8141 8142 8138 8144 8140 8147 8143 8145 8144 8144 8148 8150 8147 8150 8150 8147 8149 8151 8149 8153 8156 8154 8157 8157 8161 8163 8165 8169 8166 8168 8167 8170 8169 8169 8169 8171 8170 8169 8170 8169 8168 8168 8167 8171 8170 8171 8166 8166 8167 8162 8161 8162 8165 8169 8173 8171 8173 8165 8162 8159 8157 8150 8148 8147 8145 8144 8141 8143 8140 8137 8140 8138 8142 8144 8140 
8136 8138 8140 8142 8141 8145 8143 8141 8143 8143 8144 8147 8144 8142 8148 8149 8149 8145 8147 8149 8148 8150 8149 8149 8152 8157 8156 8156 8155 8159 8162 8166 8164 8168 8168 8166 8169 8167 8170 8168 8168 8169 8170 8169 8169 8169 8165 8166 8168 8165 8169 8167 8164 8162 8162 8161 8161 8163 8169 8172 8171 8170 8162 8162 8162 8158 8156 8151 8151 8150 8148 8146 8141 8141 8141 8137 8136 8141 8142 8140 
8140 8141 8144 8141 8142 8147 8143 8144 8143 8147 8143 8147 8146 8146 8148 8151 8151 8150 8149 8151 8147 8147 8151 8148 8152 8156 8158 8159 8157 8156 8161 8165 8169 8166 8167 8166 8167 8166 8164 8167 8166 8166 8168 8167 8167 8167 8166 8164 8167 8163 8167 8166 8163 8165 8161 8162 8164 8162 8167 8169 8171 8169 8166 8163 8160 8159 8157 8151 8155 8156 8153 8147 8144 8142 8141 8139 8142 8140 8140 8141 
8146 8138 8143 8143 8141 8147 8146 8144 8145 8144 8143 8146 8147 8145 8147 8149 8146 8146 8149 8149 8145 8149 8150 8151 8150 8152 8157 8157 8155 8156 8159 8165 8163 8165 8170 8168 8167 8164 8161 8165 8165 8164 8166 8169 8166 8167 8165 8162 8168 8162 8161 8163 8161 8164 8159 8161 8158 8161 8161 8168 8170 8169 8164 8163 8160 8154 8155 8156 8156 8156 8156 8154 8150 8145 8143 8140 8141 8136 8140 8141 
8147 8147 8145 8142 8143 8142 8142 8144 8146 8146 8143 8146 8148 8144 8147 8149 8151 8147 8146 8149 8147 8148 8151 8151 8151 8151 8152 8156 8154 8159 8161 8165 8165 8166 8166 8167 8167 8162 8162 8164 8166 8162 8159 8162 8163 8163 8158 8158 8161 8158 8159 8158 8161 8161 8160 8161 8163 8151 8135 8160 8154 8152 8159 8157 8159 8156 8155 8156 8158 8158 8157 8154 8152 8152 8149 8145 8146 8138 8143 8143 
8146 8146 8147 8147 8145 8142 8140 8145 8144 8148 8144 8145 8147 8144 8145 8149 8145 8144 8145 8147 8147 8149 8154 8149 8151 8150 8153 8157 8156 8158 8159 8160 8163 8164 8163 8165 8162 8161 8163 8153 8152 8144 8117 8156 8157 8156 8153 8151 8156 8154 8157 8156 8159 8157 8158 8159 8158 8149 8103 8130 8102 8112 8159 8156 8155 8158 8156 8156 8156 8157 8153 8155 8152 8150 8149 8151 8144 8143 8143 8144 
8149 8147 8150 8148 8147 8143 8141 8142 8143 8147 8147 8149 8145 8145 8148 8148 8147 8146 8145 8146 8148 8151 8154 8150 8153 8153 8154 8156 8157 8157 8159 8163 8166 8163 8162 8164 8163 8160 8157 8134 8088 8102 8113 8120 8114 8103 8100 8106 8118 8133 8148 8152 8152 8149 8150 8156 8156 8106 8083 8082 8085 8132 8161 8161 8157 8157 8159 8157 8160 8157 8156 8155 8152 8153 8150 8148 8148 8147 8147 8145 
8147 8149 8148 8147 8146 8146 8143 8142 8147 8145 8147 8151 8148 8147 8150 8150 8149 8146 8146 8147 8148 8150 8152 8148 8151 8151 8152 8155 8156 8156 8157 8159 8163 8161 8159 8158 8158 8146 8127 8113 8075 8122 8102 8079 8083 8084 8078 8073 8074 8076 8089 8106 8120 8084 8106 8149 8131 8087 8071 8073 8084 8124 8151 8158 8159 8161 8159 8159 8155 8155 8156 8157 8153 8150 8149 8150 8151 8149 8150 8146 
8149 8144 8150 8148 8148 8143 8144 8144 8146 8146 8147 8146 8148 8148 8147 8150 8150 8146 8147 8147 8147 8150 8148 8149 8152 8152 8153 8155 8157 8154 8157 8161 8161 8158 8157 8152 8123 8089 8083 8089 8077 8099 8076 8070 8073 8070 8072 8069 8068 8067 8069 8076 8076 8066 8088 8131 8105 8083 8075 8070 8073 8086 8125 8155 8157 8160 8160 8158 8156 8156 8157 8153 8154 8153 8149 8152 8151 8152 8153 8150 
8148 8145 8147 8148 8146 8147 8145 8142 8144 8146 8148 8149 8149 8149 8149 8150 8146 8148 8147 8145 8148 8150 8151 8149 8152 8151 8152 8154 8155 8157 8158 8161 8156 8155 8138 8098 8082 8079 8076 8074 8075 8075 8069 8070 8069 8070 8079 8081 8069 8071 8067 8068 8066 8064 8073 8074 8096 8110 8078 8075 8074 8089 8118 8151 8158 8159 8159 8157 8156 8153 8156 8151 8154 8152 8151 8150 8153 8152 8152 8154 
8149 8146 8148 8149 8147 8147 8141 8143 8143 8148 8145 8150 8148 8149 8148 8147 8148 8146 8145 8146 8144 8148 8151 8150 8152 8151 8151 8155 8155 8153 8156 8157 8153 8128 8086 8078 8075 8071 8073 8071 8076 8080 8071 8075 8068 8066 8064 8066 8070 8070 8066 8062 8064 8063 8061 8067 8087 8099 8077 8082 8074 8075 8101 8148 8159 8158 8154 8155 8152 8152 8153 8152 8153 8153 8153 8155 8154 8155 8156 8151 
8148 8148 8151 8150 8145 8144 8146 8145 8146 8149 8149 8149 8152 8146 8150 8153 8151 8150 8149 8147 8147 8147 8149 8151 8150 8150 8152 8155 8155 8153 8140 8114 8116 8081 8071 8070 8069 8070 8072 8077 8077 8074 8067 8079 8073 8066 8061 8061 8066 8067 8067 8069 8065 8063 8062 8064 8063 8069 8074 8080 8074 8074 8090 8144 8157 8160 8155 8153 8153 8151 8149 8151 8151 8152 8152 8155 8156 8156 8157 8152 
8147 8146 8148 8148 8148 8146 8146 8146 8151 8151 8150 8151 8149 8148 8147 8148 8150 8151 8148 8148 8149 8150 8152 8150 8149 8124 8140 8153 8151 8150 8137 8099 8076 8066 8070 8073 8069 8081 8077 8066 8065 8075 8070 8082 8078 8067 8062 8062 8061 8068 8064 8065 8064 8065 8064 8063 8064 8065 8066 8073 8073 8073 8092 8145 8156 8155 8154 8151 8149 8148 8151 8152 8151 8151 8152 8155 8159 8155 8156 8154 
8146 8147 8146 8148 8149 8149 8145 8148 8152 8151 8153 8150 8151 8148 8150 8150 8150 8150 8149 8149 8147 8148 8150 8146 8117 8089 8114 8147 8149 8145 8135 8087 8074 8065 8068 8074 8071 8071 8072 8059 8068 8070 8070 8071 8068 8067 8064 8058 8059 8061 8061 8064 8067 8065 8064 8065 8065 8074 8066 8071 8068 8068 8077 8112 8146 8152 8154 8151 8148 8148 8151 8148 8149 8151 8152 8154 8154 8158 8156 8157 
8148 8144 8148 8149 8150 8148 8145 8149 8154 8151 8151 8150 8148 8150 8151 8155 8151 8149 8150 8147 8147 8150 8146 8112 8092 8089 8091 8129 8133 8097 8075 8068 8070 8066 8064 8062 8068 8064 8068 8060 8066 8066 8068 8073 8071 8070 8064 8062 8065 8063 8064 8066 8062 8063 8063 8062 8061 8070 8066 8073 8067 8069 8064 8070 8108 8149 8154 8149 8148 8149 8148 8152 8151 8154 8153 8153 8157 8157 8159 8154 
8145 8145 8146 8149 8145 8147 8148 8150 8150 8150 8148 8150 8149 8149 8151 8151 8153 8149 8149 8146 8145 8148 8120 8088 8088 8086 8088 8095 8083 8070 8068 8068 8071 8068 8072 8071 8063 8061 8063 8058 8061 8067 8069 8070 8069 8069 8068 8068 8069 8068 8065 8067 8057 8061 8062 8060 8061 8060 8066 8070 8073 8071 8069 8076 8121 8148 8150 8151 8151 8151 8152 8153 8153 8150 8151 8153 8158 8157 8157 8153 
8148 8149 8152 8146 8143 8147 8147 8150 8152 8150 8148 8147 8145 8149 8148 8153 8153 8149 8149 8150 8149 8148 8141 8095 8085 8087 8088 8086 8099 8090 8070 8067 8070 8065 8068 8067 8065 8068 8071 8067 8064 8062 8062 8064 8066 8064 8068 8067 8069 8067 8066 8065 8060 8057 8062 8065 8071 8072 8067 8068 8071 8070 8068 8090 8140 8150 8154 8155 8154 8150 8150 8152 8155 8151 8150 8153 8156 8156 8156 8151 
8151 8148 8154 8148 8149 8148 8149 8151 8149 8151 8149 8148 8148 8149 8147 8153 8150 8150 8152 8152 8149 8149 8147 8131 8094 8086 8084 8087 8088 8074 8072 8068 8063 8064 8066 8067 8075 8069 8072 8071 8066 8068 8066 8064 8065 8075 8073 8067 8065 8066 8075 8064 8060 8060 8064 8068 8075 8075 8072 8067 8069 8072 8068 8111 8146 8152 8154 8151 8153 8155 8151 8154 8154 8152 8152 8154 8153 8156 8158 8150 
8150 8151 8152 8149 8149 8147 8150 8154 8152 8150 8147 8148 8150 8149 8150 8152 8150 8152 8151 8150 8152 8147 8148 8144 8123 8085 8082 8084 8083 8079 8075 8070 8063 8066 8065 8065 8073 8068 8069 8065 8067 8064 8066 8072 8063 8064 8067 8062 8064 8063 8068 8063 8059 8061 8062 8063 8067 8073 8075 8064 8067 8072 8079 8129 8151 8151 8152 8156 8152 8152 8153 8152 8151 8150 8150 8152 8152 8152 8155 8150 
8154 8149 8150 8149 8150 8151 8148 8154 8152 8147 8144 8152 8151 8151 8150 8152 8155 8152 8152 8151 8150 8153 8150 8148 8145 8112 8082 8078 8081 8077 8074 8071 8072 8073 8068 8064 8069 8069 8070 8071 8064 8058 8065 8080 8065 8065 8063 8065 8062 8062 8066 8066 8062 8064 8065 8063 8070 8071 8069 8072 8073 8072 8095 8142 8148 8148 8153 8154 8149 8152 8153 8153 8149 8149 8151 8153 8152 8151 8150 8150 
8155 8156 8152 8154 8152 8147 8151 8151 8149 8148 8147 8150 8152 8149 8150 8151 8154 8149 8150 8150 8152 8153 8150 8147 8149 8140 8097 8080 8078 8077 8069 8070 8076 8081 8081 8073 8074 8068 8067 8068 8062 8061 8064 8064 8064 8069 8078 8066 8066 8067 8066 8063 8063 8063 8062 8065 8066 8068 8071 8073 8069 8072 8091 8138 8153 8149 8151 8150 8149 8150 8152 8149 8148 8150 8151 8153 8151 8152 8153 8149 
8157 8151 8153 8152 8150 8150 8153 8150 8153 8150 8147 8147 8149 8152 8151 8149 8149 8150 8149 8148 8147 8152 8149 8147 8150 8147 8135 8094 8084 8079 8073 8070 8077 8078 8074 8069 8067 8067 8071 8068 8066 8063 8060 8064 8064 8067 8082 8075 8075 8071 8063 8065 8065 8066 8067 8065 8066 8067 8065 8068 8067 8072 8081 8134 8149 8151 8153 8155 8150 8150 8146 8147 8148 8148 8149 8149 8154 8152 8152 8145 
8155 8153 8153 8153 8152 8152 8153 8151 8150 8150 8148 8151 8146 8150 8146 8147 8147 8146 8147 8147 8148 8148 8150 8146 8149 8146 8144 8124 8087 8077 8075 8069 8069 8069 8070 8068 8069 8064 8067 8073 8079 8070 8063 8064 8071 8081 8089 8088 8072 8060 8064 8062 8064 8067 8068 8067 8063 8064 8062 8067 8067 8071 8076 8126 8147 8149 8153 8150 8150 8149 8149 8148 8150 8149 8147 8152 8152 8151 8152 8148 
8154 8154 8157 8153 8153 8153 8150 8151 8152 8150 8150 8147 8147 8145 8146 8143 8149 8145 8149 8150 8147 8148 8151 8150 8151 8148 8145 8146 8106 8077 8073 8073 8069 8070 8076 8074 8070 8066 8070 8077 8083 8078 8074 8073 8086 8084 8088 8093 8081 8068 8065 8065 8073 8074 8073 8068 8070 8068 8068 8067 8070 8068 8075 8124 8148 8148 8149 8152 8150 8147 8150 8146 8147 8152 8151 8149 8151 8152 8152 8151 
8153 8153 8156 8153 8148 8151 8151 8151 8150 8147 8148 8149 8143 8145 8145 8146 8146 8148 8150 8150 8147 8150 8147 8148 8149 8148 8147 8147 8112 8085 8078 8074 8068 8072 8082 8075 8067 8065 8067 8065 8080 8086 8086 8085 8085 8087 8092 8088 8090 8084 8079 8078 8072 8071 8071 8069 8070 8066 8071 8072 8071 8074 8077 8126 8146 8147 8149 8146 8150 8149 8146 8150 8148 8148 8150 8149 8150 8150 8152 8148 
8151 8151 8150 8151 8149 8150 8150 8150 8152 8152 8148 8148 8146 8147 8152 8149 8149 8147 8148 8149 8148 8148 8150 8150 8150 8150 8149 8145 8113 8085 8079 8073 8076 8079 8091 8079 8070 8073 8076 8071 8081 8084 8082 8086 8091 8085 8085 8087 8094 8089 8087 8085 8076 8066 8067 8070 8068 8069 8072 8075 8073 8072 8080 8131 8147 8147 8147 8147 8147 8147 8147 8145 8146 8146 8147 8150 8151 8151 8150 8147 
8151 8148 8151 8147 8149 8150 8147 8150 8152 8151 8149 8146 8151 8149 8146 8147 8146 8145 8150 8147 8146 8146 8150 8148 8151 8148 8145 8145 8127 8082 8082 8081 8088 8094 8096 8088 8086 8086 8088 8082 8082 8087 8084 8090 8091 8090 8078 8085 8097 8091 8088 8086 8083 8081 8081 8086 8079 8073 8076 8080 8071 8075 8086 8134 8150 8147 8149 8145 8144 8145 8145 8143 8145 8144 8147 8150 8150 8149 8152 8152 
8152 8149 8150 8149 8147 8148 8146 8147 8152 8152 8149 8151 8152 8150 8149 8149 8147 8146 8148 8148 8145 8148 8146 8147 8151 8150 8148 8147 8136 8093 8081 8091 8099 8099 8091 8092 8096 8094 8092 8085 8087 8091 8089 8093 8092 8091 8085 8091 8093 8092 8090 8096 8097 8095 8093 8088 8079 8074 8082 8083 8078 8080 8099 8142 8148 8146 8149 8143 8140 8143 8145 8144 8141 8146 8146 8147 8148 8147 8150 8149 
8151 8150 8154 8149 8148 8147 8149 8147 8149 8151 8150 8151 8156 8150 8151 8149 8150 8148 8145 8146 8145 8146 8146 8146 8150 8146 8144 8148 8143 8117 8091 8090 8097 8096 8095 8097 8097 8095 8093 8091 8088 8090 8092 8089 8090 8091 8092 8089 8090 8088 8095 8093 8098 8089 8089 8089 8077 8078 8084 8076 8077 8083 8111 8142 8146 8141 8144 8140 8140 8139 8145 8142 8144 8144 8143 8145 8141 8146 8151 8141 
8152 8146 8149 8148 8148 8146 8146 8147 8145 8147 8147 8148 8150 8150 8149 8151 8153 8147 8147 8148 8147 8147 8148 8147 8149 8148 8148 8148 8147 8139 8116 8098 8099 8098 8102 8105 8102 8095 8098 8096 8097 8091 8091 8083 8085 8087 8088 8089 8087 8091 8091 8086 8086 8089 8089 8088 8079 8080 8081 8082 8078 8086 8124 8142 8141 8140 8139 8140 8140 8141 8140 8135 8132 8140 8143 8143 8147 8147 8144 8145 
8152 8152 8151 8149 8147 8150 8147 8151 8147 8147 8145 8150 8152 8150 8154 8154 8154 8148 8152 8145 8147 8147 8148 8147 8149 8146 8148 8148 8147 8142 8130 8115 8106 8101 8101 8100 8097 8102 8102 8098 8099 8096 8091 8085 8085 8086 8087 8087 8087 8086 8094 8089 8089 8085 8086 8087 8083 8080 8079 8082 8086 8105 8140 8144 8141 8138 8140 8141 8140 8139 8139 8138 8135 8141 8147 8147 8142 8145 8145 8143 
8152 8150 8155 8154 8147 8153 8153 8148 8153 8150 8150 8150 8153 8145 8148 8151 8155 8148 8148 8150 8149 8149 8151 8149 8154 8150 8148 8148 8148 8148 8137 8123 8127 8113 8105 8105 8104 8102 8102 8105 8099 8099 8101 8093 8088 8091 8092 8090 8092 8095 8099 8097 8098 8093 8087 8089 8089 8086 8085 8084 8093 8128 8146 8144 8140 8137 8138 8138 8139 8142 8142 8143 8145 8144 8144 8145 8145 8147 8147 8143 
8152 8149 8155 8151 8150 8151 8151 8152 8150 8147 8146 8149 8150 8147 8147 8150 8149 8147 8149 8150 8148 8149 8148 8149 8153 8152 8151 8150 8149 8148 8144 8135 8132 8130 8115 8108 8107 8102 8104 8108 8106 8109 8104 8097 8098 8100 8099 8099 8098 8105 8107 8095 8092 8090 8085 8089 8088 8088 8082 8090 8112 8146 8146 8140 8137 8138 8136 8137 8139 8138 8142 8142 8146 8145 8147 8147 8146 8149 8145 8145 
8149 8148 8151 8153 8149 8155 8154 8148 8150 8145 8148 8154 8152 8151 8148 8152 8149 8151 8149 8147 8149 8150 8149 8148 8153 8152 8153 8151 8150 8148 8147 8149 8121 8125 8128 8120 8111 8107 8108 8108 8112 8112 8101 8104 8103 8099 8100 8103 8104 8107 8108 8099 8092 8090 8092 8093 8094 8091 8084 8107 8142 8152 8147 8139 8138 8136 8136 8136 8143 8144 8142 8145 8144 8147 8147 8150 8149 8149 8151 8147 
8148 8148 8151 8151 8151 8149 8153 8144 8147 8146 8150 8153 8155 8153 8149 8153 8153 8151 8150 8149 8146 8148 8150 8148 8154 8152 8152 8154 8151 8151 8151 8150 8141 8111 8115 8115 8110 8108 8109 8108 8115 8109 8109 8105 8108 8103 8103 8102 8103 8107 8112 8107 8102 8099 8102 8103 8100 8097 8099 8136 8154 8154 8149 8140 8136 8135 8139 8141 8143 8144 8146 8143 8146 8149 8148 8147 8149 8148 8145 8142 
8148 8146 8151 8152 8149 8150 8148 8150 8143 8146 8148 8150 8156 8155 8149 8148 8151 8148 8152 8149 8145 8152 8155 8150 8157 8153 8153 8153 8154 8151 8152 8152 8150 8139 8112 8099 8096 8103 8112 8107 8108 8108 8108 8105 8106 8110 8103 8105 8104 8106 8110 8107 8103 8106 8106 8106 8101 8105 8135 8151 8154 8153 8148 8137 8137 8135 8135 8138 8141 8145 8146 8143 8149 8149 8148 8152 8150 8145 8145 8145 
8148 8145 8148 8153 8148 8147 8145 8148 8147 8145 8143 8145 8149 8151 8151 8147 8151 8149 8148 8150 8145 8152 8152 8152 8156 8152 8155 8156 8153 8151 8154 8154 8150 8148 8139 8113 8097 8100 8107 8104 8107 8110 8108 8103 8104 8108 8104 8108 8103 8103 8110 8108 8103 8106 8104 8101 8113 8143 8155 8159 8158 8153 8145 8137 8137 8135 8137 8140 8140 8142 8143 8144 8148 8146 8149 8148 8145 8142 8144 8138 
8150 8147 8154 8151 8151 8150 8150 8149 8148 8147 8144 8145 8150 8151 8152 8150 8149 8147 8146 8150 8149 8151 8151 8153 8156 8154 8154 8157 8152 8152 8154 8154 8154 8153 8152 8142 8128 8109 8102 8101 8103 8108 8112 8110 8107 8114 8112 8110 8111 8112 8112 8102 8097 8096 8103 8121 8143 8153 8156 8157 8156 8152 8141 8134 8138 8138 8139 8140 8141 8140 8145 8146 8149 8145 8145 8145 8142 8141 8143 8134 
8148 8151 8153 8152 8151 8149 8150 8145 8148 8147 8148 8149 8151 8151 8150 8150 8147 8147 8147 8148 8146 8150 8152 8153 8155 8152 8154 8150 8154 8153 8153 8156 8156 8154 8153 8152 8148 8137 8125 8110 8104 8100 8107 8104 8104 8110 8106 8107 8109 8109 8107 8098 8101 8115 8138 8151 8157 8156 8155 8158 8156 8150 8144 8139 8137 8139 8138 8139 8140 8138 8142 8145 8150 8143 8143 8142 8139 8142 8138 8135 
8150 8150 8153 8154 8149 8149 8148 8147 8143 8149 8147 8150 8152 8151 8148 8148 8149 8145 8148 8145 8150 8151 8151 8149 8154 8147 8149 8151 8155 8155 8156 8157 8158 8154 8155 8154 8153 8150 8145 8135 8129 8122 8112 8105 8101 8099 8103 8109 8109 8108 8121 8134 8145 8151 8151 8153 8155 8154 8154 8153 8155 8151 8143 8144 8140 8138 8140 8139 8140 8142 8139 8143 8144 8144 8142 8139 8139 8140 8139 8137 
8155 8151 8152 8146 8145 8146 8146 8143 8148 8146 8147 8149 8152 8151 8149 8147 8145 8146 8143 8144 8147 8147 8147 8150 8151 8144 8146 8151 8154 8155 8155 8157 8160 8154 8154 8154 8155 8152 8151 8147 8148 8147 8143 8136 8134 8132 8136 8139 8142 8143 8152 8155 8155 8155 8156 8154 8152 8156 8153 8154 8149 8147 8144 8141 8138 8138 8139 8140 8140 8141 8141 8141 8141 8142 8141 8137 8136 8135 8138 8133 
8151 8152 8153 8145 8145 8141 8145 8138 8145 8147 8143 8145 8142 8148 8149 8146 8143 8142 8146 8146 8142 8145 8146 8148 8152 8149 8151 8152 8153 8152 8151 8155 8158 8155 8153 8152 8153 8149 8152 8149 8152 8152 8148 8148 8149 8148 8150 8151 8151 8153 8159 8157 8157 8155 8153 8153 8150 8153 8150 8156 8150 8151 8146 8140 8141 8139 8140 8141 8141 8141 8142 8142 8143 8136 8137 8137 8134 8134 8137 8131 
8154 8145 8145 8139 8143 8139 8137 8142 8145 8141 8147 8142 8141 8146 8146 8139 8140 8141 8140 8141 8139 8138 8140 8142 8147 8149 8147 8152 8147 8151 8153 8152 8154 8154 8150 8152 8154 8153 8154 8152 8152 8148 8149 8146 8147 8148 8150 8152 8154 8155 8158 8156 8156 8154 8152 8150 8151 8156 8151 8156 8154 8152 8144 8141 8139 8140 8142 8143 8144 8145 8144 8140 8140 8136 8142 8139 8135 8137 8129 8129 
8155 8144 8139 8139 8136 8134 8137 8138 8142 8142 8144 8141 8139 8143 8141 8140 8138 8135 8136 8127 8129 8127 8136 8138 8147 8146 8139 8139 8140 8144 8145 8146 8140 8140 8146 8152 8154 8156 8158 8153 8153 8153 8147 8149 8152 8154 8153 8155 8160 8157 8161 8161 8153 8157 8154 8154 8151 8153 8155 8159 8155 8151 8145 8140 8141 8137 8135 8137 8139 8142 8142 8144 8137 8143 8143 8146 8138 8137 8131 8132 


