P2
80 60
8214
8185 8172 8179 8184 8185 8183 8179 8175 8176 8181 8178 8189 8185 8179 8182 8186 8188 8181 8188 8186 8189 8192 8190 8182 8182 8194 8192 8192 8192 8191 8193 8194 8195 8194 8191 8191 8189 8189 8196 8199 8200 8193 8193 8189 8192 8194 8189 8188 8188 8192 8189 8186 8193 8188 8181 8183 8182 8183 8182 8186 8184 8184 8186 8189 8187 8191 8196 8198 8197 8200 8197 8196 8197 8203 8208 8204 8200 8207 8207 8198 
8185 8186 8192 8186 8186 8186 8180 8180 8174 8186 8178 8188 8181 8180 8177 8187 8184 8186 8184 8191 8197 8193 8194 8184 8193 8185 8183 8187 8193 8188 8191 8191 8188 8186 8183 8187 8183 8193 8197 8195 8194 8193 8189 8185 8192 8188 8188 8184 8184 8197 8186 8187 8190 8187 8183 8188 8185 8183 8184 8187 8188 8186 8194 8187 8185 8190 8196 8195 8200 8202 8202 8196 8199 8200 8203 8203 8205 8205 8203 8194 
8166 8173 8178 8174 8185 8178 8175 8180 8174 8182 8183 8183 8175 8181 8184 8182 8185 8189 8184 8192 8189 8190 8189 8183 8189 8191 8189 8189 8193 8183 8186 8189 8186 8191 8185 8184 8184 8195 8196 8196 8196 8191 8189 8188 8191 8190 8187 8190 8186 8190 8188 8186 8186 8191 8192 8186 8184 8186 8188 8180 8193 8191 8185 8189 8190 8188 8194 8196 8202 8203 8201 8198 8200 8204 8203 8199 8205 8202 8207 8199 
8185 8171 8191 8175 8187 8178 8180 8181 8180 8181 8175 8172 8180 8180 8176 8185 8185 8193 8184 8187 8186 8182 8174 8184 8188 8188 8192 8193 8195 8191 8183 8189 8193 8187 8191 8183 8189 8193 8192 8193 8195 8192 8189 8185 8188 8186 8190 8185 8187 8187 8188 8184 8189 8188 8188 8190 8184 8184 8186 8183 8191 8193 8187 8192 8187 8184 8190 8196 8201 8203 8197 8201 8202 8202 8204 8196 8206 8204 8206 8197 
8181 8165 8184 8174 8180 8182 8181 8172 8172 8182 8178 8174 8176 8179 8175 8182 8182 8182 8187 8181 8184 8187 8178 8180 8187 8188 8187 8189 8187 8190 8183 8189 8190 8183 8184 8189 8190 8190 8191 8196 8192 8190 8185 8183 8185 8184 8180 8190 8183 8193 8185 8183 8188 8190 8189 8190 8187 8189 8189 8186 8193 8192 8186 8191 8184 8185 8185 8189 8198 8194 8200 8201 8203 8206 8201 8203 8204 8203 8205 8201 
8190 8178 8181 8178 8178 8177 8186 8180 8178 8181 8168 8178 8183 8173 8176 8181 8184 8178 8185 8191 8190 8182 8190 8176 8190 8190 8189 8187 8185 8186 8190 8193 8188 8183 8189 8189 8189 8194 8190 8197 8194 8191 8191 8178 8183 8186 8183 8185 8182 8190 8187 8188 8192 8192 8188 8194 8192 8192 8193 8192 8192 8191 8190 8188 8186 8191 8190 8190 8195 8198 8198 8198 8203 8194 8195 8202 8201 8202 8205 8208 
8187 8185 8182 8190 8180 8179 8189 8187 8177 8169 8164 8186 8185 8168 8176 8183 8174 8178 8188 8195 8181 8182 8188 8182 8194 8189 8182 8183 8186 8192 8189 8192 8187 8185 8184 8189 8188 8188 8193 8197 8195 8187 8185 8161 8167 8172 8181 8189 8186 8194 8188 8187 8192 8196 8190 8196 8189 8185 8192 8190 8190 8190 8188 8189 8186 8191 8196 8198 8191 8191 8200 8204 8200 8200 8202 8205 8199 8204 8208 8211 
8191 8188 8178 8191 8179 8180 8185 8191 8188 8160 8181 8185 8182 8179 8190 8182 8180 8188 8188 8185 8192 8189 8190 8189 8188 8188 8178 8184 8188 8194 8194 8192 8195 8192 8194 8188 8188 8188 8190 8196 8193 8179 8154 8134 8135 8155 8180 8186 8183 8184 8184 8182 8195 8190 8189 8190 8191 8190 8189 8188 8188 8189 8188 8190 8189 8194 8198 8198 8193 8191 8191 8196 8199 8198 8200 8202 8199 8208 8209 8212 
8196 8180 8177 8183 8187 8180 8191 8183 8178 8172 8178 8179 8178 8178 8175 8179 8179 8181 8187 8189 8195 8182 8185 8180 8181 8186 8181 8185 8187 8187 8188 8187 8186 8183 8188 8189 8190 8188 8189 8192 8186 8147 8134 8129 8131 8173 8178 8190 8184 8190 8185 8181 8187 8190 8188 8185 8187 8191 8189 8187 8188 8186 8184 8187 8189 8189 8193 8201 8197 8199 8194 8196 8193 8201 8200 8204 8205 8207 8211 8206 
8199 8178 8182 8187 8182 8185 8174 8184 8183 8182 8178 8182 8178 8180 8179 8176 8183 8183 8195 8193 8187 8184 8188 8182 8179 8183 8186 8192 8192 8186 8186 8187 8182 8181 8189 8191 8180 8174 8163 8172 8172 8136 8132 8120 8131 8173 8183 8190 8183 8186 8182 8186 8189 8187 8187 8183 8188 8192 8193 8190 8189 8190 8189 8192 8193 8188 8190 8194 8197 8195 8199 8200 8201 8200 8198 8198 8206 8208 8206 8204 
8197 8173 8181 8186 8183 8187 8169 8180 8183 8175 8180 8177 8180 8178 8175 8177 8185 8178 8179 8187 8188 8185 8185 8186 8179 8179 8189 8192 8193 8188 8187 8177 8170 8181 8178 8169 8147 8139 8148 8163 8178 8135 8127 8136 8162 8190 8190 8185 8185 8187 8188 8184 8186 8189 8186 8185 8191 8190 8196 8189 8191 8193 8190 8189 8187 8191 8197 8197 8198 8197 8196 8199 8196 8198 8198 8197 8200 8207 8205 8201 
8191 8191 8188 8184 8178 8185 8176 8184 8184 8176 8184 8177 8179 8177 8179 8181 8181 8180 8181 8190 8192 8190 8184 8185 8186 8188 8187 8187 8191 8186 8180 8144 8133 8146 8140 8132 8133 8133 8134 8145 8164 8141 8129 8139 8179 8189 8187 8181 8184 8186 8191 8190 8193 8191 8188 8184 8190 8186 8192 8190 8190 8193 8193 8192 8188 8193 8199 8196 8195 8193 8197 8197 8196 8196 8195 8198 8207 8206 8206 8199 
8194 8184 8178 8175 8170 8184 8186 8172 8177 8181 8177 8175 8178 8175 8185 8186 8178 8182 8184 8186 8188 8188 8182 8179 8187 8179 8180 8188 8185 8170 8156 8129 8132 8132 8119 8125 8139 8143 8131 8129 8140 8147 8148 8151 8183 8186 8183 8184 8185 8187 8192 8190 8191 8194 8195 8184 8190 8188 8192 8192 8191 8189 8194 8191 8192 8193 8200 8198 8198 8187 8188 8195 8195 8192 8194 8198 8207 8208 8209 8202 
8195 8199 8190 8188 8183 8184 8182 8183 8173 8183 8185 8180 8179 8175 8181 8176 8179 8173 8177 8185 8184 8186 8187 8183 8187 8185 8187 8181 8148 8134 8138 8125 8130 8127 8119 8134 8146 8165 8158 8159 8134 8160 8175 8179 8174 8171 8174 8180 8189 8186 8187 8191 8193 8193 8194 8186 8191 8192 8192 8194 8191 8190 8193 8196 8200 8198 8200 8199 8200 8198 8198 8196 8196 8197 8195 8200 8200 8212 8207 8199 
8201 8186 8186 8192 8184 8187 8182 8181 8179 8177 8181 8178 8180 8181 8182 8166 8150 8146 8153 8172 8179 8183 8180 8174 8173 8179 8187 8158 8132 8132 8126 8125 8123 8123 8128 8131 8140 8140 8142 8143 8135 8136 8156 8178 8154 8140 8138 8151 8168 8167 8167 8174 8187 8191 8191 8192 8194 8195 8193 8193 8193 8193 8195 8199 8199 8202 8201 8198 8198 8197 8197 8197 8197 8196 8192 8196 8200 8208 8205 8207 
8206 8176 8181 8190 8185 8184 8179 8185 8179 8186 8183 8178 8178 8174 8168 8143 8139 8130 8141 8142 8169 8178 8167 8145 8175 8188 8188 8142 8127 8133 8130 8124 8123 8126 8126 8134 8130 8126 8127 8131 8149 8134 8131 8143 8140 8143 8139 8135 8133 8139 8143 8147 8155 8181 8188 8192 8195 8193 8196 8197 8196 8194 8196 8196 8203 8202 8197 8197 8196 8198 8198 8194 8194 8200 8197 8199 8200 8202 8198 8201 
8205 8179 8177 8194 8179 8177 8180 8173 8179 8182 8178 8183 8175 8176 8165 8154 8131 8131 8134 8127 8141 8163 8156 8141 8168 8180 8181 8148 8129 8126 8132 8125 8120 8127 8129 8135 8130 8127 8129 8140 8137 8127 8132 8133 8132 8155 8157 8153 8142 8140 8143 8140 8143 8147 8172 8187 8192 8193 8194 8196 8197 8191 8195 8196 8200 8198 8198 8200 8196 8197 8196 8198 8199 8205 8201 8196 8197 8205 8201 8199 
8203 8184 8189 8182 8181 8190 8181 8187 8173 8186 8181 8182 8188 8182 8183 8175 8148 8130 8133 8133 8136 8146 8146 8160 8180 8191 8190 8144 8128 8127 8128 8124 8123 8131 8135 8129 8122 8124 8118 8120 8122 8130 8137 8139 8164 8173 8167 8166 8179 8159 8140 8141 8141 8137 8145 8171 8185 8189 8192 8194 8196 8195 8197 8199 8198 8197 8201 8205 8202 8198 8195 8200 8199 8200 8199 8200 8199 8204 8202 8205 
8198 8185 8188 8185 8180 8179 8188 8189 8187 8176 8182 8185 8185 8184 8183 8184 8173 8172 8150 8141 8138 8141 8140 8163 8177 8187 8179 8132 8126 8123 8127 8128 8131 8132 8153 8144 8119 8119 8117 8119 8126 8133 8144 8148 8165 8159 8165 8179 8179 8178 8163 8139 8136 8137 8137 8146 8184 8187 8194 8194 8195 8193 8199 8198 8199 8194 8200 8201 8197 8199 8201 8200 8202 8201 8198 8204 8199 8202 8203 8201 
8194 8182 8186 8188 8179 8190 8188 8186 8185 8184 8186 8184 8183 8180 8191 8190 8179 8178 8148 8135 8129 8155 8173 8157 8172 8161 8150 8129 8132 8125 8129 8127 8125 8129 8143 8126 8122 8123 8123 8127 8123 8120 8130 8131 8125 8121 8131 8144 8154 8163 8176 8157 8140 8138 8140 8142 8182 8192 8196 8189 8192 8195 8200 8200 8201 8195 8197 8197 8198 8199 8196 8201 8200 8195 8200 8199 8198 8204 8205 8196 
8200 8190 8182 8176 8173 8179 8176 8188 8188 8183 8182 8189 8184 8180 8178 8191 8186 8177 8164 8173 8166 8173 8172 8146 8124 8119 8119 8136 8124 8133 8129 8131 8125 8126 8130 8124 8119 8119 8121 8137 8134 8122 8123 8123 8118 8128 8124 8130 8143 8148 8147 8159 8164 8142 8137 8141 8169 8191 8192 8187 8190 8197 8201 8201 8202 8197 8197 8201 8201 8201 8199 8197 8201 8199 8201 8204 8198 8201 8205 8196 
8199 8195 8186 8192 8193 8188 8171 8184 8173 8185 8178 8175 8191 8188 8175 8185 8183 8179 8173 8173 8167 8148 8130 8132 8130 8130 8125 8132 8132 8124 8131 8125 8124 8125 8122 8121 8119 8120 8123 8126 8124 8126 8123 8116 8118 8130 8124 8133 8136 8133 8142 8153 8157 8156 8143 8137 8157 8166 8158 8169 8186 8193 8200 8200 8198 8202 8199 8201 8198 8199 8197 8194 8197 8196 8199 8201 8197 8204 8207 8207 
8197 8191 8187 8190 8186 8181 8169 8170 8171 8183 8188 8183 8183 8184 8184 8184 8180 8173 8171 8157 8127 8133 8122 8157 8173 8160 8130 8130 8127 8130 8135 8136 8125 8121 8124 8121 8120 8126 8126 8120 8120 8122 8125 8123 8117 8124 8127 8134 8123 8130 8129 8130 8130 8139 8141 8139 8144 8141 8135 8136 8159 8184 8196 8198 8198 8197 8199 8201 8196 8196 8198 8195 8198 8197 8202 8200 8200 8204 8205 8197 
8197 8196 8188 8189 8192 8188 8182 8168 8183 8187 8189 8180 8184 8179 8186 8186 8182 8187 8176 8154 8129 8127 8153 8178 8182 8175 8156 8132 8134 8131 8162 8154 8130 8126 8123 8118 8123 8128 8122 8126 8128 8132 8133 8130 8132 8125 8131 8149 8132 8132 8127 8131 8126 8145 8151 8141 8143 8143 8131 8138 8142 8162 8187 8199 8201 8201 8201 8202 8197 8197 8196 8195 8195 8195 8199 8197 8196 8209 8205 8209 
8204 8184 8188 8193 8187 8186 8178 8185 8187 8177 8184 8177 8189 8182 8185 8186 8187 8188 8180 8140 8128 8139 8177 8173 8169 8161 8165 8137 8135 8132 8163 8143 8127 8128 8120 8119 8122 8122 8121 8130 8126 8135 8135 8131 8132 8133 8128 8133 8128 8134 8128 8130 8123 8136 8149 8144 8146 8145 8138 8142 8138 8145 8158 8191 8200 8200 8203 8204 8198 8197 8198 8198 8201 8198 8202 8196 8196 8204 8205 8210 
8199 8181 8183 8195 8190 8180 8187 8168 8170 8179 8164 8165 8158 8165 8176 8177 8178 8183 8178 8141 8131 8136 8152 8146 8144 8134 8143 8131 8133 8132 8136 8131 8126 8132 8128 8119 8122 8124 8126 8129 8129 8127 8128 8129 8133 8136 8129 8136 8135 8141 8135 8136 8136 8140 8137 8140 8143 8139 8142 8146 8136 8141 8143 8175 8194 8196 8202 8201 8197 8196 8194 8198 8200 8201 8199 8201 8195 8202 8205 8211 
8200 8185 8180 8189 8183 8183 8181 8171 8172 8151 8134 8141 8137 8155 8165 8164 8162 8154 8148 8127 8126 8119 8121 8127 8126 8122 8142 8131 8128 8131 8137 8129 8127 8131 8126 8123 8119 8122 8123 8124 8126 8124 8127 8131 8132 8130 8128 8119 8129 8154 8130 8130 8128 8143 8141 8140 8140 8144 8148 8145 8144 8141 8144 8159 8188 8197 8199 8197 8194 8196 8195 8194 8199 8200 8196 8205 8201 8205 8206 8207 
8194 8191 8190 8192 8191 8179 8185 8177 8149 8137 8131 8149 8171 8171 8177 8177 8180 8163 8139 8127 8125 8121 8128 8127 8120 8130 8131 8140 8136 8128 8132 8132 8126 8125 8128 8128 8118 8119 8124 8129 8127 8129 8130 8133 8132 8130 8133 8124 8137 8152 8150 8142 8129 8138 8147 8142 8146 8144 8148 8149 8150 8149 8149 8158 8180 8197 8198 8195 8193 8195 8194 8196 8196 8202 8201 8207 8206 8207 8206 8212 
8192 8187 8184 8193 8183 8186 8174 8153 8136 8148 8170 8185 8187 8180 8187 8173 8158 8137 8129 8125 8122 8126 8125 8130 8128 8129 8136 8137 8133 8131 8133 8128 8130 8126 8121 8129 8128 8122 8130 8125 8125 8128 8129 8135 8129 8128 8130 8135 8135 8131 8142 8132 8134 8137 8148 8153 8147 8147 8147 8144 8151 8147 8146 8159 8171 8195 8196 8195 8192 8194 8195 8193 8194 8194 8198 8201 8199 8214 8208 8209 
8194 8180 8186 8193 8184 8185 8161 8137 8151 8171 8189 8189 8185 8183 8183 8176 8138 8134 8133 8128 8127 8127 8129 8129 8125 8126 8135 8156 8133 8130 8133 8131 8130 8137 8125 8126 8132 8130 8135 8124 8123 8124 8130 8133 8128 8152 8159 8173 8166 8156 8148 8155 8145 8141 8145 8151 8150 8143 8141 8142 8139 8145 8148 8157 8161 8195 8196 8195 8190 8191 8194 8195 8195 8197 8202 8196 8200 8214 8208 8210 
8197 8186 8184 8191 8181 8160 8134 8151 8178 8181 8186 8183 8180 8187 8183 8160 8132 8130 8138 8140 8127 8122 8130 8131 8126 8127 8151 8155 8133 8130 8136 8133 8131 8129 8124 8122 8125 8129 8127 8130 8128 8135 8129 8141 8167 8182 8179 8181 8181 8183 8164 8149 8156 8134 8141 8142 8148 8141 8144 8146 8140 8150 8148 8154 8160 8182 8193 8191 8188 8190 8190 8192 8191 8200 8195 8196 8206 8206 8208 8212 
8195 8187 8181 8180 8158 8137 8144 8174 8187 8179 8175 8184 8183 8180 8183 8151 8131 8129 8149 8140 8127 8130 8133 8134 8129 8127 8140 8164 8150 8133 8133 8132 8134 8130 8132 8135 8129 8126 8124 8128 8130 8138 8130 8174 8183 8188 8185 8185 8196 8195 8190 8184 8178 8153 8161 8143 8147 8147 8143 8149 8144 8151 8147 8153 8155 8174 8190 8188 8188 8192 8194 8197 8196 8196 8198 8195 8203 8206 8210 8208 
8199 8185 8175 8159 8135 8136 8143 8174 8186 8188 8182 8184 8179 8181 8181 8147 8144 8154 8142 8136 8130 8135 8131 8131 8133 8130 8137 8141 8151 8141 8131 8132 8134 8127 8131 8134 8133 8135 8135 8142 8127 8141 8127 8135 8147 8165 8185 8183 8185 8186 8185 8186 8190 8190 8183 8156 8144 8146 8144 8147 8142 8149 8143 8150 8147 8152 8178 8192 8195 8191 8192 8192 8191 8195 8194 8202 8197 8205 8205 8211 
8197 8176 8162 8146 8138 8138 8151 8179 8186 8183 8186 8182 8175 8183 8171 8136 8154 8159 8152 8137 8133 8136 8131 8130 8134 8134 8135 8137 8144 8147 8133 8137 8129 8142 8133 8142 8160 8181 8150 8145 8138 8147 8128 8124 8122 8125 8162 8184 8190 8193 8194 8190 8195 8195 8192 8173 8144 8145 8140 8140 8146 8149 8145 8151 8150 8150 8168 8189 8192 8196 8195 8194 8190 8194 8198 8194 8198 8205 8205 8206 
8186 8155 8143 8138 8141 8141 8171 8186 8181 8181 8185 8187 8187 8178 8174 8152 8175 8176 8175 8157 8139 8136 8130 8128 8135 8143 8131 8134 8135 8135 8135 8136 8125 8136 8145 8140 8146 8180 8161 8137 8134 8146 8130 8130 8124 8124 8147 8164 8176 8187 8189 8191 8187 8189 8187 8181 8142 8142 8136 8140 8146 8151 8147 8151 8146 8149 8162 8185 8191 8194 8192 8192 8187 8199 8194 8198 8197 8206 8203 8204 
8173 8143 8138 8145 8144 8169 8186 8193 8188 8179 8178 8185 8188 8180 8171 8177 8182 8180 8182 8175 8150 8140 8138 8135 8147 8166 8137 8130 8131 8134 8134 8135 8141 8147 8151 8148 8134 8175 8158 8137 8133 8145 8128 8137 8132 8120 8118 8118 8145 8159 8184 8191 8182 8177 8165 8178 8151 8143 8136 8139 8145 8148 8147 8151 8150 8146 8155 8181 8189 8190 8188 8192 8187 8193 8190 8200 8198 8201 8199 8199 
8174 8150 8145 8155 8173 8184 8192 8183 8185 8179 8182 8191 8191 8182 8181 8183 8181 8178 8183 8177 8146 8151 8161 8150 8159 8162 8154 8132 8129 8135 8135 8141 8148 8167 8170 8145 8135 8157 8150 8128 8131 8131 8128 8145 8139 8138 8132 8121 8120 8131 8160 8164 8171 8190 8193 8192 8159 8144 8146 8144 8146 8149 8152 8150 8148 8151 8161 8180 8186 8186 8189 8192 8192 8197 8198 8201 8199 8202 8202 8198 
8176 8150 8155 8178 8192 8189 8193 8184 8189 8189 8187 8193 8191 8182 8185 8189 8182 8181 8178 8166 8149 8170 8161 8154 8143 8135 8135 8134 8138 8138 8137 8140 8168 8180 8166 8135 8129 8137 8133 8126 8129 8129 8133 8139 8140 8144 8142 8149 8136 8142 8135 8147 8182 8194 8195 8197 8156 8146 8140 8140 8139 8145 8145 8146 8148 8148 8161 8182 8186 8188 8189 8192 8190 8196 8199 8200 8201 8204 8203 8196 
8170 8156 8171 8191 8193 8193 8190 8188 8184 8188 8187 8190 8186 8183 8188 8184 8188 8184 8181 8174 8161 8142 8137 8138 8141 8144 8162 8142 8141 8133 8133 8143 8162 8171 8145 8129 8128 8126 8128 8128 8127 8129 8134 8130 8140 8154 8153 8138 8148 8141 8145 8144 8170 8186 8193 8193 8154 8148 8142 8137 8138 8151 8149 8150 8150 8152 8170 8187 8191 8187 8186 8190 8190 8197 8196 8201 8197 8201 8201 8201 
8166 8172 8198 8197 8192 8192 8198 8186 8187 8191 8188 8187 8185 8182 8185 8180 8182 8184 8183 8153 8143 8144 8161 8170 8176 8175 8176 8153 8148 8130 8128 8128 8130 8123 8124 8128 8129 8126 8130 8131 8128 8130 8135 8151 8171 8174 8173 8162 8147 8139 8139 8136 8143 8159 8186 8182 8150 8145 8144 8139 8135 8140 8144 8147 8144 8149 8163 8183 8185 8187 8185 8185 8184 8194 8193 8200 8196 8198 8198 8202 
8168 8185 8202 8191 8194 8196 8187 8189 8187 8188 8181 8188 8180 8183 8193 8185 8182 8190 8174 8162 8175 8178 8180 8186 8181 8181 8171 8140 8134 8143 8134 8129 8127 8122 8123 8134 8143 8137 8134 8132 8130 8136 8145 8171 8181 8168 8180 8172 8178 8169 8155 8161 8154 8148 8151 8162 8148 8142 8139 8145 8142 8153 8145 8155 8151 8156 8164 8179 8187 8186 8187 8186 8184 8196 8196 8198 8195 8195 8200 8195 
8191 8188 8197 8182 8193 8196 8185 8185 8186 8188 8186 8190 8188 8186 8194 8190 8184 8184 8181 8187 8189 8185 8185 8185 8189 8164 8139 8138 8154 8177 8145 8127 8131 8125 8129 8135 8134 8135 8128 8133 8134 8136 8148 8173 8179 8176 8182 8182 8189 8201 8191 8190 8187 8176 8162 8150 8141 8139 8140 8142 8141 8150 8145 8154 8168 8177 8167 8176 8183 8182 8188 8188 8186 8195 8194 8200 8199 8204 8199 8204 
8205 8190 8187 8186 8184 8190 8187 8190 8191 8191 8188 8192 8188 8193 8189 8185 8184 8188 8185 8180 8188 8183 8187 8186 8164 8133 8129 8153 8178 8175 8150 8128 8127 8121 8126 8133 8135 8146 8136 8130 8127 8134 8148 8159 8169 8177 8171 8171 8177 8182 8184 8185 8196 8192 8189 8154 8145 8140 8143 8144 8146 8168 8167 8179 8187 8190 8188 8180 8188 8186 8187 8188 8188 8193 8193 8196 8194 8202 8199 8201 
8207 8192 8194 8188 8190 8188 8189 8191 8192 8197 8186 8194 8193 8192 8186 8187 8181 8183 8184 8188 8189 8182 8187 8176 8148 8134 8144 8160 8162 8147 8135 8132 8133 8125 8123 8128 8131 8135 8133 8130 8130 8134 8148 8163 8158 8158 8151 8152 8154 8156 8168 8164 8178 8177 8185 8151 8147 8142 8141 8147 8155 8179 8189 8190 8187 8187 8183 8181 8182 8184 8187 8189 8188 8196 8191 8197 8196 8201 8193 8198 
8208 8203 8195 8188 8191 8190 8193 8183 8193 8195 8188 8188 8187 8190 8191 8187 8188 8190 8187 8188 8187 8181 8181 8156 8137 8136 8137 8137 8141 8139 8138 8132 8136 8129 8120 8123 8127 8136 8137 8134 8131 8139 8147 8154 8155 8151 8151 8145 8145 8147 8151 8157 8173 8169 8165 8151 8147 8149 8148 8149 8177 8191 8195 8191 8191 8187 8186 8183 8188 8187 8191 8185 8188 8191 8186 8194 8194 8196 8193 8197 
8208 8193 8191 8191 8189 8194 8190 8186 8183 8188 8184 8185 8193 8190 8195 8194 8192 8189 8189 8191 8188 8188 8178 8148 8138 8136 8141 8139 8141 8138 8136 8131 8133 8133 8133 8132 8128 8131 8132 8128 8127 8129 8138 8151 8153 8158 8158 8151 8157 8154 8167 8181 8186 8161 8153 8148 8148 8145 8146 8156 8184 8189 8187 8189 8189 8188 8188 8185 8186 8186 8188 8185 8186 8191 8185 8191 8193 8192 8192 8193 
8206 8202 8187 8196 8192 8192 8193 8191 8184 8184 8184 8193 8189 8190 8188 8190 8194 8191 8193 8187 8196 8190 8186 8165 8142 8133 8132 8133 8135 8133 8130 8126 8127 8130 8129 8133 8125 8124 8129 8126 8125 8126 8127 8132 8139 8150 8148 8145 8143 8143 8151 8173 8175 8153 8143 8146 8146 8149 8157 8174 8185 8192 8184 8189 8189 8186 8189 8185 8185 8184 8189 8185 8189 8191 8191 8191 8190 8194 8194 8188 
8206 8206 8193 8198 8190 8194 8191 8192 8198 8199 8198 8190 8193 8181 8194 8194 8196 8193 8190 8189 8199 8188 8183 8172 8152 8137 8133 8134 8138 8136 8133 8137 8134 8140 8139 8143 8134 8131 8130 8135 8137 8140 8136 8137 8138 8137 8140 8138 8140 8145 8146 8147 8150 8150 8144 8144 8147 8155 8165 8179 8185 8192 8186 8195 8190 8189 8187 8181 8186 8184 8186 8188 8188 8191 8193 8195 8190 8194 8193 8188 
8207 8197 8196 8199 8190 8195 8200 8195 8199 8190 8190 8194 8193 8183 8194 8190 8195 8187 8190 8188 8192 8182 8190 8169 8152 8143 8138 8137 8140 8141 8143 8143 8156 8170 8184 8191 8198 8197 8191 8187 8186 8174 8160 8147 8142 8143 8144 8140 8134 8147 8142 8148 8145 8149 8143 8148 8151 8152 8166 8178 8186 8191 8192 8194 8184 8187 8187 8183 8189 8186 8188 8188 8189 8194 8195 8198 8188 8188 8190 8187 
8206 8194 8196 8196 8189 8199 8203 8188 8195 8189 8195 8195 8197 8197 8190 8192 8191 8194 8199 8190 8184 8192 8192 8178 8153 8142 8143 8141 8142 8140 8148 8147 8161 8169 8190 8200 8209 8205 8198 8196 8180 8170 8155 8150 8145 8146 8141 8147 8141 8141 8145 8148 8147 8143 8147 8144 8154 8154 8171 8183 8187 8194 8192 8193 8181 8186 8186 8185 8189 8190 8184 8194 8193 8195 8191 8193 8193 8194 8193 8191 
8207 8188 8188 8191 8195 8190 8204 8190 8191 8194 8195 8193 8192 8198 8192 8194 8195 8192 8198 8184 8193 8191 8187 8188 8166 8141 8140 8140 8144 8145 8149 8151 8160 8172 8185 8191 8193 8191 8185 8179 8163 8161 8157 8141 8146 8145 8148 8143 8144 8148 8145 8153 8152 8154 8144 8150 8157 8163 8180 8183 8188 8193 8192 8185 8184 8185 8187 8186 8193 8195 8188 8192 8194 8198 8196 8196 8197 8192 8191 8190 
8205 8195 8188 8193 8192 8196 8192 8197 8191 8188 8193 8197 8200 8202 8198 8191 8191 8195 8200 8192 8193 8190 8194 8192 8182 8160 8144 8142 8144 8149 8144 8158 8166 8170 8177 8173 8172 8171 8171 8166 8161 8155 8153 8143 8148 8149 8145 8147 8148 8146 8146 8146 8153 8149 8150 8156 8165 8180 8188 8192 8197 8195 8192 8184 8183 8186 8189 8182 8197 8190 8193 8194 8192 8195 8196 8198 8198 8194 8193 8192 
8199 8191 8190 8193 8192 8194 8194 8200 8199 8193 8185 8189 8190 8198 8201 8192 8191 8198 8195 8195 8190 8194 8198 8192 8187 8168 8149 8146 8141 8139 8141 8152 8159 8162 8164 8161 8158 8159 8152 8158 8152 8152 8146 8151 8148 8148 8143 8142 8141 8145 8146 8149 8152 8153 8159 8155 8169 8187 8199 8195 8198 8192 8196 8185 8187 8189 8184 8181 8195 8188 8192 8197 8193 8203 8200 8195 8186 8190 8195 8191 
8199 8193 8194 8193 8190 8196 8199 8197 8190 8195 8187 8194 8190 8195 8197 8195 8194 8198 8196 8191 8194 8195 8195 8195 8190 8171 8151 8146 8145 8142 8143 8144 8145 8149 8150 8147 8145 8148 8146 8146 8145 8150 8147 8150 8150 8151 8153 8149 8153 8149 8152 8151 8156 8145 8159 8155 8176 8189 8195 8190 8193 8192 8195 8187 8188 8187 8182 8189 8192 8189 8189 8195 8191 8202 8192 8190 8190 8187 8196 8188 
8202 8200 8191 8192 8190 8195 8196 8195 8191 8199 8193 8198 8194 8199 8199 8196 8196 8194 8196 8195 8196 8194 8196 8195 8194 8172 8148 8147 8143 8138 8137 8143 8143 8147 8146 8147 8145 8145 8142 8146 8146 8149 8149 8146 8150 8149 8140 8155 8156 8154 8155 8155 8155 8148 8158 8155 8180 8189 8198 8192 8192 8191 8186 8186 8191 8188 8182 8183 8186 8188 8193 8197 8191 8197 8188 8195 8185 8187 8194 8185 
8197 8196 8199 8196 8191 8191 8196 8196 8188 8198 8198 8195 8198 8196 8195 8194 8194 8194 8191 8191 8201 8198 8198 8197 8191 8162 8151 8143 8145 8144 8141 8148 8157 8152 8156 8152 8145 8148 8145 8146 8147 8152 8151 8153 8152 8152 8142 8154 8160 8157 8156 8150 8153 8152 8155 8159 8182 8194 8195 8191 8191 8188 8189 8195 8190 8191 8182 8190 8189 8185 8194 8195 8195 8197 8197 8197 8185 8187 8188 8179 
8198 8195 8197 8189 8182 8188 8194 8191 8196 8200 8197 8190 8194 8196 8198 8189 8189 8199 8193 8198 8199 8196 8198 8197 8191 8171 8137 8145 8148 8145 8148 8147 8163 8165 8158 8157 8148 8146 8143 8147 8146 8153 8152 8153 8155 8145 8149 8158 8157 8157 8153 8151 8148 8149 8154 8158 8179 8193 8187 8185 8186 8183 8188 8185 8184 8193 8186 8189 8185 8184 8192 8193 8192 8189 8190 8195 8191 8187 8187 8188 
8201 8199 8195 8179 8190 8188 8193 8185 8191 8194 8194 8187 8190 8193 8200 8191 8186 8196 8196 8194 8191 8191 8191 8194 8197 8183 8158 8146 8147 8143 8141 8148 8164 8166 8159 8154 8151 8140 8142 8148 8153 8152 8148 8156 8158 8151 8152 8163 8159 8158 8151 8150 8144 8146 8150 8156 8180 8193 8190 8187 8185 8189 8190 8186 8188 8186 8187 8194 8192 8186 8193 8190 8192 8190 8188 8190 8191 8179 8185 8176 
8196 8184 8173 8178 8181 8177 8179 8189 8192 8190 8192 8186 8183 8194 8190 8180 8180 8186 8187 8186 8193 8184 8182 8184 8194 8183 8160 8148 8144 8141 8144 8134 8152 8167 8164 8157 8150 8146 8145 8153 8153 8154 8157 8156 8154 8153 8158 8165 8163 8158 8148 8147 8144 8152 8148 8158 8184 8192 8194 8183 8192 8182 8186 8182 8187 8185 8186 8192 8187 8192 8191 8191 8189 8184 8189 8194 8185 8176 8179 8176 
8186 8173 8167 8169 8165 8167 8168 8177 8180 8179 8180 8179 8182 8182 8186 8181 8183 8183 8182 8183 8185 8182 8184 8181 8189 8171 8161 8152 8148 8145 8142 8136 8152 8160 8168 8159 8149 8144 8146 8151 8155 8157 8166 8165 8157 8155 8161 8167 8163 8162 8148 8149 8148 8150 8154 8162 8187 8197 8195 8184 8189 8185 8183 8187 8189 8187 8190 8195 8194 8194 8192 8193 8195 8194 8188 8189 8180 8186 8184 8172 


