P2
80 60
8226
8195 8181 8194 8190 8198 8194 8188 8186 8189 8186 8192 8196 8194 8186 8188 8190 8190 8186 8190 8190 8192 8195 8197 8194 8198 8203 8201 8198 8198 8201 8204 8201 8202 8203 8204 8203 8202 8201 8204 8206 8204 8204 8203 8199 8201 8201 8199 8199 8198 8199 8196 8194 8193 8188 8185 8183 8186 8184 8185 8192 8197 8193 8192 8194 8195 8201 8204 8208 8207 8213 8209 8208 8207 8211 8217 8215 8210 8216 8211 8209 
8190 8191 8202 8192 8198 8194 8189 8186 8186 8191 8188 8194 8190 8190 8183 8189 8187 8188 8189 8194 8196 8194 8198 8189 8202 8196 8194 8197 8200 8196 8202 8198 8196 8199 8195 8200 8196 8204 8205 8202 8205 8202 8199 8198 8202 8200 8199 8197 8196 8197 8193 8192 8191 8188 8183 8187 8186 8185 8187 8193 8197 8193 8198 8193 8192 8197 8202 8203 8210 8211 8210 8208 8210 8211 8216 8214 8214 8216 8211 8208 
8173 8181 8188 8181 8193 8186 8183 8188 8184 8187 8192 8193 8184 8190 8187 8187 8192 8192 8188 8195 8191 8192 8193 8191 8197 8200 8196 8198 8199 8195 8193 8196 8195 8202 8197 8198 8197 8204 8206 8205 8203 8199 8202 8200 8201 8197 8197 8196 8195 8192 8191 8189 8190 8193 8188 8187 8185 8189 8186 8191 8197 8198 8192 8195 8198 8196 8199 8204 8212 8210 8212 8207 8209 8213 8210 8213 8214 8215 8213 8207 
8192 8177 8197 8180 8194 8189 8188 8191 8192 8188 8184 8179 8186 8188 8183 8188 8187 8191 8189 8188 8191 8186 8181 8195 8196 8199 8201 8201 8199 8201 8193 8197 8201 8199 8205 8198 8200 8203 8200 8200 8203 8201 8199 8196 8197 8195 8199 8196 8195 8196 8192 8189 8192 8188 8187 8188 8188 8190 8190 8193 8194 8198 8194 8196 8193 8195 8200 8203 8208 8209 8210 8210 8209 8214 8216 8210 8214 8217 8213 8211 
8190 8171 8194 8184 8188 8192 8190 8183 8184 8187 8187 8181 8183 8186 8179 8185 8187 8184 8188 8187 8187 8188 8185 8187 8196 8197 8196 8195 8197 8198 8195 8200 8195 8199 8199 8201 8201 8200 8199 8202 8202 8201 8199 8195 8194 8194 8193 8196 8196 8195 8192 8187 8190 8189 8187 8190 8193 8192 8192 8194 8198 8196 8192 8196 8194 8195 8196 8201 8206 8206 8210 8211 8209 8212 8209 8213 8212 8214 8216 8213 
8199 8184 8190 8185 8189 8188 8193 8190 8188 8188 8174 8187 8191 8181 8180 8183 8187 8179 8188 8192 8191 8186 8192 8189 8199 8200 8198 8196 8194 8195 8201 8200 8198 8197 8199 8201 8200 8203 8200 8204 8203 8201 8200 8195 8195 8195 8196 8196 8196 8195 8196 8194 8194 8193 8190 8193 8193 8197 8195 8199 8197 8197 8195 8196 8194 8198 8198 8201 8202 8208 8211 8210 8210 8208 8206 8209 8207 8212 8215 8218 
8198 8187 8189 8195 8194 8189 8196 8195 8187 8175 8172 8195 8190 8178 8180 8185 8178 8184 8191 8195 8188 8187 8192 8192 8199 8199 8190 8191 8193 8201 8200 8201 8196 8197 8197 8202 8197 8197 8204 8205 8205 8201 8200 8195 8201 8196 8197 8194 8194 8196 8192 8192 8195 8195 8192 8194 8194 8192 8195 8197 8192 8195 8196 8196 8193 8200 8202 8208 8201 8201 8209 8211 8210 8209 8212 8212 8208 8214 8217 8226 
8199 8192 8187 8198 8190 8190 8193 8203 8198 8166 8188 8195 8190 8186 8190 8186 8183 8187 8190 8190 8193 8188 8195 8197 8197 8198 8190 8193 8195 8200 8202 8200 8201 8203 8203 8203 8201 8203 8204 8205 8200 8200 8202 8200 8199 8197 8197 8195 8196 8190 8191 8190 8195 8193 8189 8192 8189 8192 8193 8195 8194 8195 8193 8193 8196 8205 8205 8206 8202 8203 8203 8205 8208 8209 8214 8213 8210 8215 8217 8222 
8204 8185 8186 8188 8194 8190 8199 8195 8190 8178 8185 8186 8185 8184 8181 8182 8182 8183 8191 8190 8193 8185 8191 8191 8189 8196 8192 8195 8198 8197 8200 8199 8198 8199 8203 8201 8202 8199 8201 8204 8201 8198 8201 8198 8199 8202 8198 8194 8195 8192 8189 8189 8191 8192 8192 8189 8190 8193 8195 8195 8194 8194 8194 8195 8196 8201 8202 8208 8202 8207 8205 8207 8207 8212 8210 8213 8214 8217 8218 8214 
8209 8183 8191 8195 8193 8194 8180 8193 8194 8188 8187 8188 8185 8187 8183 8180 8186 8186 8197 8194 8190 8189 8192 8189 8191 8192 8193 8198 8198 8199 8197 8195 8197 8196 8202 8203 8202 8201 8202 8201 8200 8199 8203 8195 8195 8200 8200 8198 8192 8193 8189 8192 8193 8190 8189 8188 8190 8192 8195 8196 8196 8198 8196 8199 8199 8199 8200 8209 8206 8208 8207 8211 8206 8210 8209 8209 8214 8218 8218 8213 
8206 8177 8191 8189 8192 8195 8178 8189 8195 8182 8189 8186 8185 8186 8181 8184 8189 8184 8181 8186 8189 8189 8190 8192 8190 8190 8197 8199 8198 8201 8198 8195 8190 8199 8195 8198 8196 8198 8200 8200 8201 8198 8198 8201 8200 8201 8200 8195 8194 8193 8192 8192 8189 8191 8188 8190 8190 8193 8196 8200 8197 8200 8200 8198 8198 8201 8207 8209 8206 8208 8209 8209 8205 8206 8209 8207 8211 8213 8215 8211 
8199 8197 8197 8190 8187 8193 8183 8192 8195 8184 8190 8181 8187 8186 8183 8186 8183 8185 8186 8191 8194 8192 8191 8194 8193 8196 8192 8197 8202 8200 8202 8195 8190 8202 8195 8192 8198 8200 8199 8197 8200 8202 8202 8202 8200 8201 8197 8195 8194 8193 8194 8196 8195 8196 8190 8191 8194 8192 8196 8197 8198 8201 8200 8201 8200 8202 8207 8207 8206 8205 8208 8207 8205 8206 8203 8206 8213 8213 8211 8208 
8201 8187 8185 8182 8180 8195 8194 8180 8186 8186 8183 8182 8182 8181 8183 8187 8183 8186 8188 8188 8189 8190 8186 8187 8195 8195 8189 8198 8197 8198 8206 8195 8195 8196 8190 8193 8200 8200 8196 8195 8197 8195 8203 8201 8202 8199 8196 8195 8194 8194 8198 8200 8196 8197 8194 8189 8194 8193 8195 8200 8200 8202 8202 8200 8202 8203 8207 8205 8205 8200 8203 8204 8206 8204 8206 8208 8212 8214 8213 8208 
8200 8202 8198 8195 8192 8191 8190 8189 8180 8189 8192 8187 8185 8182 8187 8184 8190 8186 8187 8189 8188 8188 8190 8191 8192 8193 8194 8194 8192 8196 8202 8190 8194 8196 8193 8198 8193 8198 8193 8194 8192 8188 8191 8195 8191 8193 8191 8196 8197 8193 8197 8195 8198 8197 8195 8187 8192 8197 8194 8199 8200 8201 8201 8203 8207 8209 8208 8207 8208 8206 8205 8207 8205 8205 8206 8209 8210 8215 8212 8209 
8210 8188 8199 8198 8194 8195 8189 8190 8188 8183 8188 8189 8186 8189 8191 8187 8189 8185 8191 8191 8190 8189 8188 8191 8192 8191 8194 8188 8190 8195 8184 8181 8188 8191 8197 8195 8194 8193 8192 8180 8156 8146 8147 8156 8160 8164 8178 8187 8195 8196 8195 8199 8197 8197 8191 8193 8198 8199 8198 8200 8205 8202 8203 8207 8204 8209 8208 8209 8210 8209 8207 8208 8207 8207 8205 8206 8208 8212 8210 8215 
8213 8181 8193 8194 8193 8188 8186 8191 8189 8190 8190 8187 8184 8183 8192 8190 8191 8186 8193 8196 8188 8190 8185 8193 8192 8198 8184 8159 8159 8156 8147 8140 8170 8189 8192 8188 8174 8166 8169 8158 8140 8140 8137 8141 8150 8175 8186 8190 8191 8194 8196 8196 8197 8199 8192 8194 8198 8197 8200 8208 8202 8203 8203 8204 8210 8210 8205 8208 8207 8209 8209 8208 8206 8209 8208 8208 8210 8212 8208 8207 
8210 8182 8188 8196 8187 8186 8187 8181 8187 8188 8187 8190 8182 8185 8180 8186 8185 8189 8192 8189 8186 8187 8189 8189 8185 8194 8187 8165 8141 8135 8138 8140 8173 8192 8193 8192 8185 8167 8143 8139 8137 8145 8166 8175 8184 8194 8192 8190 8191 8193 8196 8195 8197 8192 8191 8193 8192 8197 8197 8209 8204 8199 8203 8204 8208 8207 8204 8207 8206 8207 8206 8209 8209 8209 8207 8204 8208 8214 8209 8209 
8209 8189 8195 8187 8187 8194 8189 8192 8184 8191 8189 8187 8192 8189 8188 8189 8188 8187 8192 8190 8192 8191 8191 8187 8190 8200 8200 8188 8157 8139 8139 8147 8179 8186 8177 8164 8167 8170 8166 8143 8145 8173 8192 8195 8197 8194 8193 8188 8198 8196 8194 8197 8195 8190 8189 8191 8191 8195 8201 8204 8202 8204 8205 8207 8206 8205 8206 8209 8209 8208 8207 8212 8210 8207 8210 8209 8205 8209 8211 8211 
8207 8189 8198 8190 8191 8186 8194 8193 8195 8184 8189 8192 8192 8188 8187 8188 8184 8189 8187 8184 8187 8192 8192 8191 8193 8200 8198 8187 8176 8158 8154 8171 8190 8165 8170 8170 8183 8191 8186 8164 8163 8169 8178 8186 8192 8191 8189 8187 8185 8185 8189 8182 8175 8171 8172 8181 8192 8195 8200 8207 8202 8203 8206 8207 8207 8206 8206 8208 8208 8208 8212 8208 8211 8206 8207 8208 8203 8209 8212 8206 
8204 8187 8195 8192 8183 8197 8191 8194 8197 8189 8194 8191 8188 8186 8191 8192 8184 8188 8188 8188 8185 8194 8195 8190 8195 8190 8196 8180 8148 8141 8146 8167 8170 8154 8140 8142 8153 8188 8185 8149 8139 8138 8146 8150 8159 8163 8170 8176 8178 8172 8163 8154 8147 8143 8142 8155 8183 8196 8202 8202 8200 8204 8207 8209 8206 8204 8206 8207 8210 8209 8213 8213 8208 8207 8210 8208 8205 8209 8212 8206 
8203 8192 8190 8182 8184 8187 8182 8193 8191 8185 8186 8191 8188 8183 8183 8194 8190 8184 8179 8186 8181 8186 8192 8193 8187 8184 8181 8172 8137 8147 8150 8152 8152 8142 8136 8141 8155 8157 8151 8142 8141 8138 8140 8138 8138 8142 8151 8175 8188 8192 8186 8176 8156 8145 8139 8141 8150 8179 8196 8203 8201 8203 8208 8209 8206 8204 8205 8208 8210 8211 8209 8208 8205 8205 8205 8209 8205 8207 8212 8207 
8206 8197 8193 8196 8197 8192 8176 8191 8183 8188 8186 8184 8195 8191 8177 8186 8186 8185 8179 8183 8190 8192 8187 8193 8184 8189 8188 8178 8142 8134 8137 8136 8142 8146 8140 8141 8139 8137 8141 8143 8142 8149 8151 8136 8140 8142 8135 8143 8171 8185 8190 8194 8183 8165 8148 8144 8141 8152 8174 8193 8202 8204 8211 8206 8206 8207 8206 8210 8208 8207 8209 8205 8207 8205 8208 8208 8207 8211 8209 8214 
8208 8192 8198 8194 8193 8189 8174 8177 8179 8186 8194 8189 8186 8188 8183 8183 8184 8178 8179 8186 8183 8188 8172 8178 8174 8170 8160 8162 8142 8136 8139 8134 8137 8140 8141 8140 8133 8134 8136 8134 8136 8140 8164 8151 8138 8139 8147 8141 8137 8166 8188 8191 8191 8192 8167 8150 8147 8147 8144 8169 8195 8202 8207 8206 8206 8208 8208 8208 8206 8204 8207 8206 8207 8207 8209 8207 8208 8210 8215 8212 
8205 8196 8197 8194 8195 8196 8187 8175 8190 8191 8191 8183 8189 8182 8187 8186 8184 8188 8183 8187 8182 8174 8155 8136 8135 8131 8132 8132 8137 8135 8133 8142 8140 8144 8142 8136 8139 8135 8129 8133 8131 8138 8142 8142 8143 8154 8170 8165 8146 8145 8158 8184 8189 8196 8189 8165 8155 8150 8142 8150 8176 8197 8208 8209 8208 8209 8210 8210 8204 8207 8205 8206 8208 8209 8208 8208 8205 8213 8213 8215 
8207 8185 8198 8198 8193 8192 8182 8194 8196 8180 8190 8185 8180 8160 8163 8170 8170 8169 8162 8165 8173 8171 8168 8142 8129 8129 8130 8132 8136 8129 8139 8139 8137 8142 8136 8138 8137 8137 8133 8137 8136 8139 8138 8146 8158 8151 8139 8136 8136 8135 8142 8175 8189 8191 8189 8192 8171 8156 8149 8151 8155 8189 8200 8206 8208 8206 8208 8209 8207 8207 8208 8205 8206 8207 8207 8205 8206 8208 8211 8218 
8207 8187 8194 8201 8196 8185 8190 8178 8178 8188 8187 8183 8144 8134 8135 8137 8155 8177 8170 8163 8165 8167 8156 8131 8129 8135 8133 8132 8131 8133 8135 8132 8132 8135 8133 8136 8136 8138 8137 8141 8137 8137 8140 8139 8140 8141 8132 8132 8137 8152 8170 8190 8195 8195 8193 8194 8195 8177 8157 8159 8154 8172 8199 8206 8207 8204 8208 8207 8205 8202 8204 8204 8207 8208 8207 8206 8205 8208 8213 8221 
8202 8192 8188 8195 8191 8189 8183 8178 8187 8184 8183 8170 8137 8136 8137 8160 8178 8163 8142 8128 8136 8136 8149 8153 8134 8154 8142 8131 8132 8136 8148 8132 8131 8133 8134 8135 8133 8134 8137 8134 8137 8136 8141 8138 8139 8135 8133 8146 8179 8193 8193 8195 8193 8200 8195 8197 8198 8202 8188 8166 8155 8168 8201 8204 8206 8204 8207 8207 8205 8205 8205 8203 8205 8205 8207 8207 8209 8210 8213 8220 
8202 8195 8200 8200 8198 8184 8191 8189 8183 8187 8178 8157 8139 8133 8160 8174 8159 8143 8137 8142 8161 8171 8176 8160 8130 8135 8135 8132 8138 8138 8139 8132 8133 8135 8135 8134 8135 8134 8133 8137 8135 8140 8152 8146 8141 8137 8138 8137 8168 8193 8191 8196 8190 8196 8197 8200 8204 8203 8203 8200 8189 8178 8192 8203 8206 8208 8205 8205 8205 8204 8205 8202 8204 8208 8207 8211 8213 8214 8214 8218 
8199 8191 8191 8198 8193 8195 8187 8191 8193 8192 8183 8150 8144 8154 8183 8159 8151 8153 8167 8169 8153 8138 8136 8138 8135 8135 8137 8135 8134 8132 8134 8131 8136 8137 8133 8138 8136 8136 8139 8136 8139 8146 8185 8183 8156 8143 8142 8139 8148 8177 8186 8174 8170 8182 8193 8201 8203 8207 8206 8206 8204 8199 8186 8200 8202 8207 8205 8202 8206 8203 8204 8202 8203 8205 8206 8210 8209 8221 8213 8215 
8202 8188 8193 8198 8193 8198 8196 8187 8193 8182 8166 8144 8156 8175 8170 8172 8172 8185 8172 8141 8131 8132 8132 8136 8134 8132 8140 8140 8130 8130 8130 8133 8133 8136 8135 8136 8139 8141 8139 8137 8144 8145 8161 8174 8178 8177 8163 8152 8147 8153 8156 8151 8153 8154 8163 8185 8200 8201 8203 8203 8200 8204 8200 8199 8204 8206 8203 8201 8199 8201 8202 8203 8204 8206 8207 8204 8207 8219 8216 8219 
8203 8193 8197 8198 8194 8199 8186 8190 8196 8170 8149 8143 8170 8185 8184 8185 8186 8178 8146 8130 8128 8128 8138 8151 8143 8147 8161 8167 8136 8131 8132 8131 8134 8137 8136 8130 8134 8139 8134 8134 8130 8135 8139 8138 8148 8164 8183 8190 8192 8174 8188 8183 8167 8150 8150 8146 8169 8190 8201 8197 8196 8199 8201 8203 8198 8202 8202 8199 8196 8197 8203 8200 8201 8206 8205 8205 8213 8212 8215 8219 
8204 8193 8191 8196 8187 8195 8187 8193 8192 8152 8137 8169 8189 8185 8185 8186 8186 8161 8136 8130 8126 8134 8142 8141 8141 8137 8141 8145 8141 8133 8133 8135 8136 8136 8140 8140 8139 8135 8140 8137 8136 8136 8136 8146 8148 8168 8194 8199 8206 8202 8200 8199 8201 8181 8148 8143 8146 8177 8197 8201 8200 8201 8197 8205 8200 8201 8201 8197 8202 8200 8204 8203 8207 8205 8204 8206 8211 8212 8213 8219 
8208 8195 8194 8195 8189 8196 8185 8185 8174 8150 8155 8183 8186 8185 8187 8186 8184 8165 8134 8130 8130 8147 8132 8136 8139 8136 8141 8139 8137 8134 8131 8133 8136 8138 8140 8139 8136 8132 8148 8151 8139 8141 8138 8158 8185 8187 8203 8203 8206 8200 8201 8202 8202 8200 8171 8146 8148 8155 8185 8193 8198 8197 8198 8199 8199 8199 8197 8199 8203 8200 8201 8201 8198 8200 8204 8210 8205 8211 8214 8221 
8210 8192 8204 8199 8196 8195 8185 8180 8150 8145 8175 8188 8181 8189 8185 8183 8182 8181 8147 8131 8151 8154 8134 8133 8138 8141 8142 8142 8140 8139 8134 8136 8129 8140 8140 8139 8137 8139 8153 8182 8166 8146 8143 8173 8200 8203 8205 8202 8208 8200 8206 8201 8206 8203 8194 8172 8151 8156 8176 8178 8197 8195 8198 8197 8196 8196 8200 8201 8202 8206 8204 8204 8201 8207 8208 8206 8209 8212 8214 8218 
8212 8197 8201 8197 8198 8193 8189 8174 8144 8157 8189 8191 8191 8184 8188 8185 8186 8184 8154 8148 8178 8152 8132 8133 8137 8141 8136 8139 8138 8138 8137 8134 8129 8136 8140 8140 8135 8138 8152 8188 8170 8166 8154 8189 8201 8200 8199 8203 8209 8204 8202 8201 8199 8202 8196 8191 8190 8181 8181 8178 8196 8200 8197 8201 8199 8196 8197 8197 8202 8199 8200 8199 8199 8202 8203 8204 8207 8209 8209 8211 
8217 8197 8197 8201 8196 8192 8196 8183 8155 8168 8185 8193 8196 8192 8190 8190 8189 8186 8168 8178 8190 8172 8137 8134 8144 8160 8140 8135 8136 8138 8141 8141 8136 8143 8140 8141 8138 8139 8148 8188 8191 8172 8188 8198 8204 8202 8201 8200 8205 8202 8204 8205 8203 8198 8200 8195 8199 8196 8193 8187 8198 8198 8198 8198 8199 8196 8197 8197 8200 8199 8196 8201 8199 8202 8204 8207 8207 8210 8209 8212 
8215 8203 8203 8197 8198 8194 8198 8184 8165 8176 8189 8197 8197 8187 8190 8190 8187 8184 8187 8189 8191 8181 8154 8147 8174 8178 8165 8142 8139 8140 8150 8152 8138 8137 8139 8140 8138 8138 8141 8153 8182 8189 8195 8197 8204 8208 8208 8202 8203 8198 8199 8201 8203 8200 8200 8200 8201 8204 8201 8200 8199 8198 8201 8198 8198 8198 8198 8195 8197 8197 8201 8200 8201 8204 8205 8206 8205 8209 8206 8211 
8211 8200 8206 8201 8203 8198 8201 8190 8179 8190 8194 8199 8194 8189 8191 8191 8185 8185 8184 8183 8182 8188 8179 8176 8180 8183 8191 8158 8150 8165 8184 8148 8136 8138 8135 8136 8139 8139 8140 8138 8156 8155 8164 8166 8182 8199 8200 8198 8202 8200 8202 8205 8204 8202 8200 8201 8200 8198 8198 8198 8195 8192 8197 8195 8197 8198 8198 8197 8198 8196 8198 8200 8200 8205 8205 8206 8208 8210 8207 8211 
8209 8203 8201 8204 8200 8201 8196 8197 8192 8194 8196 8194 8195 8187 8190 8184 8188 8186 8186 8188 8190 8182 8187 8193 8190 8183 8191 8187 8185 8186 8172 8145 8135 8133 8133 8138 8140 8139 8140 8137 8141 8157 8165 8143 8143 8174 8199 8197 8202 8196 8198 8198 8203 8196 8198 8202 8203 8204 8202 8195 8195 8195 8196 8195 8198 8197 8198 8200 8200 8194 8196 8196 8200 8201 8203 8206 8207 8206 8203 8211 
8211 8204 8216 8205 8204 8200 8203 8195 8196 8196 8198 8190 8191 8188 8186 8184 8185 8184 8193 8189 8188 8182 8191 8192 8188 8174 8191 8197 8191 8165 8151 8156 8150 8133 8139 8145 8143 8139 8148 8142 8140 8160 8159 8147 8142 8171 8192 8199 8198 8197 8199 8200 8205 8200 8200 8200 8202 8203 8201 8196 8194 8194 8197 8195 8198 8197 8199 8199 8201 8195 8198 8195 8193 8200 8202 8207 8206 8207 8205 8214 
8209 8204 8213 8198 8199 8205 8194 8198 8194 8194 8189 8194 8189 8188 8194 8185 8181 8192 8195 8193 8190 8186 8189 8193 8178 8163 8189 8195 8190 8189 8188 8182 8176 8138 8137 8154 8147 8153 8157 8153 8153 8154 8145 8141 8142 8157 8187 8194 8197 8195 8200 8200 8200 8200 8198 8200 8200 8197 8196 8199 8196 8196 8196 8197 8198 8197 8199 8194 8196 8196 8198 8193 8194 8201 8206 8204 8202 8205 8207 8205 
8210 8196 8208 8193 8202 8202 8189 8192 8194 8194 8193 8194 8194 8189 8199 8193 8186 8192 8195 8193 8192 8190 8189 8191 8170 8156 8187 8191 8171 8159 8163 8165 8163 8148 8141 8153 8150 8149 8141 8161 8176 8169 8150 8144 8144 8146 8161 8185 8197 8197 8200 8200 8197 8198 8204 8202 8200 8199 8197 8198 8195 8198 8200 8199 8199 8199 8197 8194 8196 8196 8195 8193 8197 8202 8202 8207 8206 8210 8203 8212 
8213 8196 8195 8192 8190 8199 8193 8197 8199 8196 8196 8195 8194 8196 8191 8187 8187 8191 8190 8185 8190 8185 8189 8179 8149 8155 8185 8168 8144 8145 8159 8176 8165 8144 8141 8147 8154 8143 8138 8143 8159 8153 8149 8145 8148 8149 8149 8165 8184 8186 8192 8192 8194 8197 8196 8198 8195 8199 8196 8199 8197 8201 8199 8197 8200 8197 8196 8192 8198 8194 8195 8196 8198 8201 8202 8202 8205 8208 8206 8214 
8213 8201 8205 8193 8199 8196 8195 8198 8200 8200 8196 8199 8200 8197 8186 8188 8186 8186 8187 8190 8189 8181 8171 8160 8151 8152 8164 8145 8144 8142 8152 8154 8148 8145 8140 8147 8143 8146 8141 8142 8147 8147 8145 8148 8152 8152 8149 8157 8162 8160 8163 8161 8169 8179 8218 8203 8202 8197 8197 8204 8200 8197 8199 8199 8199 8195 8192 8192 8193 8193 8195 8196 8199 8198 8203 8200 8202 8206 8200 8207 
8218 8209 8203 8195 8198 8197 8198 8188 8203 8197 8194 8195 8193 8195 8193 8190 8190 8192 8188 8187 8180 8160 8151 8144 8142 8148 8143 8143 8144 8146 8150 8144 8151 8146 8137 8139 8144 8147 8147 8147 8143 8151 8151 8153 8152 8148 8151 8158 8172 8167 8164 8157 8159 8169 8194 8189 8196 8200 8202 8199 8202 8202 8197 8197 8196 8194 8194 8192 8193 8195 8196 8197 8198 8196 8199 8199 8201 8202 8199 8207 
8213 8199 8197 8198 8199 8197 8198 8191 8193 8192 8190 8190 8197 8195 8195 8196 8195 8192 8189 8196 8159 8144 8146 8145 8143 8146 8148 8146 8149 8151 8148 8146 8146 8150 8144 8147 8146 8145 8146 8146 8146 8150 8156 8157 8156 8152 8150 8174 8223 8198 8163 8157 8154 8156 8172 8192 8203 8198 8199 8197 8199 8194 8194 8198 8196 8197 8202 8194 8195 8194 8197 8195 8197 8197 8194 8198 8200 8199 8200 8204 
8214 8206 8195 8202 8200 8197 8197 8196 8193 8192 8192 8200 8196 8196 8192 8190 8196 8191 8188 8182 8159 8147 8146 8146 8143 8142 8140 8142 8147 8151 8148 8146 8147 8148 8144 8148 8143 8144 8142 8144 8151 8149 8153 8154 8156 8158 8154 8173 8198 8202 8162 8154 8159 8152 8167 8189 8198 8196 8196 8200 8197 8197 8195 8198 8196 8194 8196 8193 8195 8195 8194 8193 8197 8200 8196 8195 8199 8200 8200 8201 
8213 8207 8201 8199 8199 8198 8198 8198 8207 8203 8205 8197 8198 8187 8194 8196 8197 8193 8190 8170 8159 8146 8142 8149 8147 8146 8139 8142 8147 8151 8150 8152 8150 8156 8152 8152 8140 8139 8137 8143 8150 8156 8156 8154 8157 8151 8156 8155 8156 8158 8153 8154 8158 8156 8172 8189 8198 8197 8196 8194 8193 8197 8193 8197 8196 8195 8199 8194 8196 8195 8195 8199 8197 8200 8200 8201 8197 8201 8198 8197 
8212 8199 8206 8206 8200 8200 8204 8200 8205 8192 8198 8201 8199 8188 8197 8193 8197 8190 8190 8174 8155 8136 8146 8143 8150 8149 8146 8147 8148 8149 8150 8150 8155 8154 8155 8151 8151 8153 8146 8148 8154 8156 8156 8153 8153 8147 8155 8151 8151 8153 8154 8155 8160 8162 8175 8188 8195 8196 8196 8195 8195 8198 8199 8197 8193 8193 8197 8192 8197 8194 8198 8196 8196 8199 8199 8200 8199 8197 8197 8194 
8216 8199 8208 8202 8200 8205 8209 8196 8202 8194 8201 8203 8204 8203 8193 8193 8193 8196 8200 8181 8147 8148 8148 8149 8151 8150 8150 8148 8148 8147 8152 8150 8154 8151 8155 8154 8155 8156 8149 8156 8157 8161 8157 8158 8154 8158 8153 8156 8151 8151 8158 8159 8165 8165 8190 8189 8196 8199 8195 8195 8196 8203 8198 8199 8193 8193 8195 8196 8199 8201 8194 8201 8202 8201 8202 8201 8200 8204 8197 8201 
8216 8193 8199 8199 8204 8199 8208 8197 8200 8198 8200 8200 8197 8204 8196 8196 8196 8193 8197 8181 8164 8147 8144 8151 8146 8149 8149 8149 8150 8151 8155 8153 8150 8155 8153 8155 8156 8158 8157 8160 8158 8164 8164 8154 8157 8156 8159 8157 8158 8158 8159 8162 8168 8189 8191 8196 8199 8197 8193 8194 8197 8195 8198 8192 8191 8191 8196 8197 8200 8202 8200 8202 8203 8204 8200 8202 8203 8199 8196 8196 
8215 8201 8198 8197 8202 8205 8196 8208 8197 8193 8202 8202 8206 8204 8201 8193 8195 8197 8200 8190 8178 8156 8150 8147 8147 8150 8150 8150 8153 8153 8149 8153 8152 8153 8153 8156 8155 8157 8161 8161 8163 8159 8162 8159 8161 8162 8156 8159 8162 8157 8160 8166 8170 8191 8196 8200 8200 8200 8195 8200 8199 8201 8193 8194 8191 8193 8196 8193 8202 8201 8205 8203 8200 8202 8204 8205 8203 8204 8200 8201 
8210 8201 8203 8203 8201 8203 8199 8209 8208 8197 8191 8196 8195 8201 8203 8192 8196 8201 8196 8196 8189 8178 8154 8149 8150 8150 8148 8151 8152 8152 8150 8150 8151 8153 8156 8156 8152 8158 8154 8161 8161 8159 8159 8168 8162 8161 8161 8161 8160 8160 8156 8169 8166 8203 8198 8200 8204 8200 8198 8202 8200 8201 8197 8191 8194 8191 8192 8192 8202 8198 8201 8204 8199 8206 8207 8201 8196 8198 8201 8199 
8207 8201 8203 8199 8203 8204 8206 8208 8201 8200 8196 8201 8198 8203 8202 8197 8198 8199 8198 8192 8196 8185 8160 8153 8153 8151 8151 8152 8151 8151 8150 8149 8148 8152 8154 8153 8153 8155 8157 8157 8158 8161 8163 8169 8165 8166 8163 8164 8167 8164 8167 8173 8170 8185 8198 8199 8203 8201 8199 8199 8199 8201 8199 8195 8195 8196 8190 8199 8201 8200 8203 8205 8201 8207 8204 8199 8195 8193 8201 8198 
8213 8207 8202 8201 8201 8202 8205 8204 8199 8205 8199 8206 8200 8206 8199 8196 8199 8195 8199 8197 8198 8194 8166 8157 8155 8147 8146 8152 8150 8150 8149 8148 8146 8151 8152 8152 8152 8155 8154 8156 8157 8159 8169 8167 8168 8166 8155 8169 8166 8165 8165 8173 8172 8188 8200 8198 8202 8198 8196 8199 8202 8198 8192 8193 8199 8190 8192 8191 8199 8200 8203 8203 8199 8205 8196 8205 8192 8195 8197 8200 
8209 8205 8207 8202 8201 8200 8206 8203 8199 8201 8206 8202 8206 8204 8198 8198 8201 8200 8194 8194 8201 8197 8176 8159 8151 8134 8146 8150 8152 8152 8149 8150 8154 8145 8152 8154 8151 8159 8156 8157 8159 8164 8168 8172 8169 8163 8154 8165 8166 8166 8168 8166 8172 8191 8196 8199 8203 8202 8200 8198 8195 8196 8195 8194 8200 8196 8194 8199 8199 8195 8202 8202 8196 8204 8204 8203 8192 8196 8195 8196 
8206 8203 8209 8200 8192 8198 8204 8199 8204 8205 8206 8199 8202 8203 8202 8193 8195 8202 8197 8201 8200 8197 8181 8160 8155 8140 8133 8149 8156 8155 8156 8152 8155 8148 8147 8152 8151 8156 8154 8161 8158 8165 8166 8170 8172 8159 8160 8162 8164 8162 8163 8168 8168 8190 8200 8200 8197 8197 8191 8193 8188 8190 8195 8195 8192 8198 8196 8198 8195 8194 8203 8203 8201 8201 8200 8200 8199 8194 8190 8196 
8209 8206 8207 8187 8200 8200 8203 8194 8202 8200 8201 8196 8197 8201 8202 8197 8191 8198 8201 8195 8193 8193 8182 8155 8157 8149 8150 8154 8154 8154 8149 8155 8153 8150 8141 8146 8148 8149 8153 8159 8163 8157 8156 8166 8171 8158 8159 8162 8159 8163 8163 8165 8169 8188 8197 8196 8195 8196 8194 8194 8186 8193 8191 8192 8194 8195 8197 8199 8200 8195 8203 8198 8199 8196 8199 8198 8200 8185 8189 8187 
8205 8191 8187 8187 8196 8189 8186 8200 8201 8198 8204 8196 8192 8202 8195 8186 8187 8191 8193 8189 8196 8185 8179 8154 8160 8152 8151 8153 8153 8150 8155 8143 8143 8155 8145 8149 8148 8155 8153 8162 8160 8156 8156 8156 8161 8153 8160 8159 8161 8158 8159 8156 8169 8184 8190 8192 8199 8197 8197 8192 8196 8189 8188 8190 8193 8193 8198 8201 8200 8202 8199 8203 8199 8194 8198 8197 8195 8181 8188 8190 
8198 8179 8179 8177 8178 8178 8177 8187 8192 8187 8188 8187 8190 8192 8191 8186 8188 8186 8186 8187 8188 8185 8182 8159 8158 8152 8153 8161 8158 8156 8153 8144 8144 8146 8152 8146 8149 8153 8156 8160 8162 8158 8161 8161 8156 8153 8159 8159 8163 8162 8156 8154 8157 8161 8186 8192 8199 8199 8200 8196 8195 8192 8188 8195 8196 8196 8201 8204 8205 8204 8203 8204 8204 8203 8200 8195 8190 8194 8188 8189 


