P2
80 60
8223
8181 8165 8174 8174 8179 8175 8172 8166 8172 8171 8173 8179 8175 8172 8173 8180 8177 8176 8172 8175 8177 8181 8177 8178 8178 8187 8189 8182 8187 8183 8188 8186 8189 8189 8189 8188 8186 8185 8192 8193 8194 8189 8188 8183 8187 8190 8190 8189 8190 8189 8183 8179 8184 8178 8170 8171 8170 8169 8174 8180 8180 8177 8180 8182 8181 8188 8188 8192 8191 8196 8193 8190 8192 8193 8201 8194 8194 8196 8200 8194 
8178 8178 8183 8180 8182 8177 8174 8171 8168 8179 8173 8181 8174 8173 8170 8184 8173 8180 8175 8183 8189 8185 8180 8176 8183 8182 8180 8183 8188 8180 8182 8182 8186 8185 8182 8185 8184 8191 8196 8191 8198 8191 8188 8182 8186 8187 8192 8187 8187 8190 8181 8181 8180 8178 8171 8176 8172 8174 8177 8180 8189 8184 8187 8182 8180 8187 8191 8190 8196 8200 8199 8192 8198 8196 8202 8195 8199 8201 8198 8189 
8159 8164 8170 8166 8175 8170 8168 8174 8164 8173 8175 8176 8166 8172 8174 8177 8178 8183 8171 8183 8177 8180 8175 8178 8177 8194 8183 8185 8188 8176 8177 8181 8183 8187 8183 8183 8182 8189 8190 8190 8191 8185 8184 8184 8186 8185 8187 8187 8183 8185 8182 8180 8177 8179 8177 8175 8170 8176 8179 8174 8187 8185 8177 8182 8184 8188 8187 8191 8197 8197 8196 8190 8191 8191 8194 8191 8195 8192 8194 8187 
8179 8162 8180 8168 8179 8173 8172 8173 8175 8173 8168 8164 8169 8174 8168 8177 8176 8183 8177 8178 8177 8172 8160 8181 8179 8183 8186 8188 8191 8187 8177 8181 8189 8186 8188 8182 8188 8193 8187 8190 8192 8191 8187 8181 8183 8182 8190 8190 8188 8186 8182 8180 8179 8175 8176 8177 8171 8176 8179 8179 8188 8187 8183 8186 8183 8183 8187 8191 8195 8202 8197 8195 8196 8194 8197 8193 8197 8197 8199 8191 
8176 8157 8175 8168 8172 8176 8173 8166 8167 8176 8169 8165 8165 8172 8166 8174 8174 8174 8176 8174 8172 8177 8164 8173 8179 8185 8183 8182 8182 8181 8177 8182 8185 8182 8183 8187 8188 8186 8186 8191 8188 8184 8182 8181 8180 8182 8184 8186 8185 8190 8178 8177 8178 8177 8178 8180 8174 8180 8181 8181 8187 8184 8183 8182 8182 8182 8182 8187 8192 8194 8195 8195 8195 8195 8190 8193 8198 8195 8199 8194 
8184 8172 8173 8171 8171 8173 8181 8174 8170 8173 8158 8171 8173 8167 8167 8174 8176 8171 8175 8183 8179 8173 8176 8173 8182 8185 8184 8180 8181 8182 8184 8185 8184 8184 8182 8189 8188 8192 8185 8193 8194 8187 8191 8179 8182 8183 8185 8188 8183 8188 8183 8180 8182 8180 8180 8183 8179 8186 8185 8185 8188 8185 8186 8181 8186 8189 8185 8186 8192 8196 8197 8196 8203 8192 8194 8197 8195 8193 8200 8198 
8180 8173 8175 8182 8176 8172 8182 8181 8171 8161 8156 8180 8173 8163 8166 8174 8168 8174 8178 8185 8176 8173 8178 8179 8185 8188 8179 8179 8182 8186 8183 8187 8183 8184 8179 8189 8181 8184 8187 8195 8192 8186 8187 8183 8186 8185 8189 8185 8185 8187 8181 8178 8181 8183 8178 8182 8177 8176 8181 8185 8183 8182 8185 8183 8183 8188 8191 8196 8190 8186 8196 8199 8200 8192 8197 8198 8194 8196 8201 8202 
8188 8181 8173 8183 8175 8176 8181 8188 8181 8153 8175 8177 8174 8169 8180 8177 8176 8177 8178 8178 8182 8180 8181 8183 8184 8187 8175 8180 8181 8186 8184 8187 8190 8189 8189 8191 8185 8186 8188 8192 8193 8191 8190 8186 8187 8189 8187 8186 8187 8182 8179 8179 8186 8180 8176 8181 8176 8180 8179 8183 8181 8182 8184 8184 8187 8193 8193 8196 8191 8189 8191 8192 8202 8190 8202 8197 8196 8201 8204 8207 
8188 8171 8168 8177 8180 8176 8184 8176 8172 8161 8169 8170 8170 8168 8169 8174 8174 8175 8181 8182 8185 8171 8173 8176 8173 8181 8177 8182 8184 8181 8183 8184 8185 8183 8185 8187 8189 8187 8187 8193 8187 8189 8183 8182 8183 8188 8187 8187 8187 8182 8176 8174 8177 8177 8180 8174 8175 8179 8181 8184 8181 8181 8183 8180 8187 8183 8191 8195 8191 8194 8193 8191 8194 8192 8201 8198 8202 8201 8206 8198 
8194 8171 8174 8181 8178 8179 8168 8179 8177 8176 8173 8170 8172 8173 8172 8170 8178 8176 8185 8182 8174 8175 8176 8179 8174 8181 8184 8185 8183 8179 8181 8182 8184 8183 8189 8190 8191 8189 8189 8191 8190 8191 8191 8180 8184 8189 8189 8190 8185 8186 8176 8184 8181 8179 8178 8175 8179 8181 8184 8184 8188 8186 8188 8186 8190 8184 8189 8194 8194 8192 8197 8196 8199 8191 8195 8193 8199 8202 8203 8195 
8188 8166 8175 8179 8176 8180 8162 8173 8176 8167 8176 8166 8171 8171 8170 8173 8179 8175 8173 8177 8180 8175 8175 8176 8175 8175 8184 8187 8188 8183 8182 8181 8180 8187 8183 8184 8186 8182 8188 8188 8190 8184 8184 8186 8189 8191 8191 8186 8184 8185 8179 8176 8178 8180 8176 8175 8179 8180 8184 8184 8186 8184 8188 8183 8188 8188 8192 8190 8194 8194 8196 8194 8192 8191 8197 8191 8197 8202 8199 8193 
8183 8185 8177 8177 8169 8178 8168 8176 8177 8169 8177 8167 8172 8170 8172 8178 8174 8174 8171 8180 8180 8179 8177 8175 8182 8182 8184 8184 8187 8182 8186 8183 8178 8191 8182 8178 8189 8184 8189 8185 8188 8191 8189 8189 8187 8191 8189 8183 8186 8188 8185 8187 8184 8187 8179 8178 8180 8178 8184 8188 8188 8186 8191 8185 8183 8187 8193 8192 8193 8187 8194 8195 8195 8189 8191 8191 8199 8201 8198 8190 
8186 8177 8170 8170 8165 8179 8179 8165 8170 8171 8171 8171 8170 8169 8174 8182 8171 8181 8178 8179 8180 8177 8175 8174 8184 8178 8180 8187 8186 8179 8192 8181 8181 8189 8174 8176 8188 8188 8187 8181 8187 8185 8194 8189 8186 8186 8187 8188 8188 8188 8187 8188 8183 8187 8181 8178 8177 8178 8183 8187 8186 8185 8192 8186 8189 8190 8197 8192 8194 8185 8186 8187 8192 8188 8189 8194 8202 8200 8200 8194 
8189 8191 8180 8183 8174 8178 8175 8175 8166 8174 8178 8173 8167 8172 8175 8174 8177 8180 8176 8177 8177 8173 8174 8174 8178 8179 8183 8183 8182 8180 8186 8181 8185 8190 8180 8189 8184 8184 8184 8182 8186 8184 8189 8186 8186 8191 8189 8187 8191 8189 8180 8187 8182 8183 8184 8178 8179 8179 8180 8188 8189 8187 8189 8190 8194 8194 8196 8197 8199 8196 8196 8190 8196 8188 8189 8198 8195 8202 8200 8193 
8199 8178 8182 8186 8181 8182 8178 8177 8173 8171 8177 8178 8176 8177 8180 8178 8182 8179 8182 8186 8178 8178 8172 8179 8177 8183 8185 8183 8182 8185 8177 8178 8181 8180 8184 8183 8186 8181 8186 8180 8187 8183 8186 8186 8185 8185 8184 8184 8187 8188 8185 8186 8185 8186 8179 8181 8181 8184 8184 8189 8188 8186 8189 8193 8195 8200 8198 8196 8198 8193 8198 8194 8193 8190 8189 8190 8192 8200 8199 8196 
8199 8168 8173 8182 8179 8173 8173 8178 8172 8179 8175 8171 8171 8169 8182 8180 8180 8177 8185 8183 8174 8175 8171 8179 8176 8191 8188 8177 8177 8185 8183 8176 8183 8187 8182 8184 8189 8182 8182 8181 8189 8189 8183 8185 8184 8188 8182 8187 8184 8187 8186 8187 8185 8186 8179 8183 8182 8184 8187 8191 8190 8188 8192 8190 8200 8197 8195 8194 8194 8197 8195 8192 8192 8191 8193 8196 8197 8199 8197 8195 
8201 8174 8173 8186 8175 8173 8176 8169 8173 8178 8174 8178 8170 8175 8169 8178 8177 8181 8184 8180 8174 8177 8177 8179 8173 8184 8183 8185 8184 8181 8186 8184 8183 8189 8186 8188 8188 8182 8187 8182 8190 8185 8186 8180 8180 8186 8185 8183 8185 8188 8188 8187 8188 8183 8178 8183 8179 8184 8183 8188 8187 8183 8191 8189 8197 8193 8193 8197 8194 8192 8195 8194 8195 8192 8192 8192 8192 8202 8198 8194 
8196 8175 8179 8172 8172 8178 8175 8179 8171 8183 8176 8174 8177 8175 8178 8180 8180 8178 8180 8178 8177 8177 8176 8171 8173 8192 8193 8185 8181 8181 8183 8182 8184 8188 8187 8187 8189 8186 8183 8183 8183 8186 8187 8182 8183 8185 8186 8182 8190 8192 8185 8193 8185 8184 8179 8182 8176 8180 8186 8192 8190 8190 8193 8197 8198 8197 8194 8201 8200 8197 8195 8198 8196 8192 8196 8194 8192 8196 8199 8198 
8195 8176 8185 8179 8179 8177 8182 8180 8180 8174 8178 8178 8180 8177 8178 8177 8175 8180 8177 8174 8176 8183 8181 8179 8182 8190 8192 8182 8180 8180 8184 8188 8191 8191 8189 8190 8186 8179 8182 8181 8186 8181 8186 8180 8183 8184 8185 8187 8187 8187 8191 8187 8180 8181 8178 8180 8183 8182 8189 8190 8188 8186 8196 8195 8195 8192 8195 8197 8197 8198 8198 8194 8200 8194 8195 8196 8194 8198 8201 8193 
8191 8174 8179 8181 8170 8183 8180 8181 8178 8179 8181 8177 8175 8173 8184 8181 8179 8178 8179 8178 8174 8183 8178 8176 8181 8182 8186 8186 8184 8184 8180 8183 8188 8193 8192 8191 8190 8186 8186 8186 8185 8181 8185 8183 8181 8182 8188 8183 8187 8189 8185 8188 8180 8184 8186 8183 8186 8187 8193 8189 8190 8188 8197 8196 8197 8195 8195 8197 8195 8200 8195 8199 8194 8192 8192 8194 8192 8196 8203 8192 
8193 8181 8175 8170 8171 8174 8171 8181 8177 8178 8176 8181 8178 8172 8174 8183 8183 8172 8174 8176 8171 8175 8181 8181 8177 8177 8179 8194 8180 8188 8185 8187 8187 8188 8189 8188 8182 8177 8181 8186 8186 8181 8181 8174 8172 8181 8179 8177 8184 8187 8179 8187 8185 8182 8181 8184 8186 8191 8191 8186 8189 8188 8197 8197 8198 8194 8194 8200 8196 8199 8198 8197 8190 8191 8190 8199 8192 8197 8200 8195 
8193 8185 8178 8183 8185 8178 8165 8181 8165 8178 8170 8165 8179 8177 8168 8178 8181 8174 8171 8171 8181 8180 8175 8184 8173 8183 8184 8189 8184 8178 8182 8180 8187 8191 8186 8188 8182 8182 8184 8187 8185 8181 8180 8170 8174 8180 8176 8179 8185 8182 8176 8181 8182 8184 8189 8184 8184 8190 8193 8189 8193 8189 8198 8196 8195 8198 8194 8201 8195 8195 8198 8195 8190 8192 8194 8198 8190 8196 8202 8200 
8194 8180 8182 8182 8181 8176 8165 8163 8164 8177 8181 8174 8177 8176 8172 8175 8173 8169 8166 8177 8173 8183 8172 8183 8181 8184 8184 8186 8185 8182 8184 8177 8183 8184 8184 8187 8179 8176 8180 8175 8178 8180 8181 8179 8172 8177 8177 8178 8178 8185 8180 8183 8183 8187 8186 8185 8190 8187 8186 8184 8193 8190 8194 8193 8193 8199 8197 8202 8193 8196 8198 8196 8192 8195 8190 8194 8193 8199 8203 8198 
8194 8187 8183 8180 8181 8181 8176 8162 8178 8180 8178 8169 8173 8163 8158 8161 8174 8184 8174 8184 8178 8181 8181 8174 8180 8176 8183 8182 8190 8177 8177 8185 8187 8188 8178 8178 8182 8184 8177 8178 8178 8180 8183 8178 8176 8177 8176 8181 8182 8185 8179 8181 8178 8185 8188 8187 8192 8193 8190 8191 8192 8193 8196 8198 8198 8199 8197 8202 8193 8193 8191 8194 8195 8194 8192 8195 8193 8202 8203 8201 
8197 8175 8183 8188 8180 8176 8170 8180 8182 8171 8177 8173 8165 8126 8123 8129 8165 8184 8173 8175 8178 8177 8180 8175 8178 8178 8178 8179 8180 8157 8170 8178 8179 8177 8153 8147 8162 8158 8153 8160 8167 8177 8178 8176 8174 8178 8175 8179 8180 8184 8184 8186 8182 8178 8182 8185 8192 8191 8194 8194 8191 8191 8193 8195 8197 8198 8198 8200 8197 8197 8196 8196 8196 8194 8192 8192 8189 8193 8198 8201 
8196 8175 8176 8186 8183 8173 8180 8166 8162 8177 8173 8184 8160 8121 8121 8125 8154 8183 8176 8170 8181 8174 8182 8172 8170 8161 8156 8153 8147 8163 8164 8162 8158 8154 8169 8159 8141 8154 8146 8140 8152 8146 8159 8175 8179 8168 8155 8158 8151 8168 8178 8183 8182 8183 8184 8184 8190 8185 8196 8198 8194 8189 8189 8193 8195 8197 8198 8199 8196 8192 8192 8196 8195 8200 8195 8196 8190 8195 8206 8205 
8193 8179 8173 8181 8177 8177 8174 8164 8172 8177 8171 8182 8166 8135 8119 8122 8140 8171 8178 8169 8178 8170 8170 8180 8168 8138 8132 8126 8151 8174 8169 8155 8136 8126 8142 8155 8141 8152 8137 8146 8154 8134 8144 8168 8177 8172 8167 8132 8132 8141 8149 8176 8179 8186 8184 8184 8189 8189 8196 8197 8194 8192 8192 8196 8194 8194 8196 8196 8190 8194 8193 8193 8194 8191 8192 8196 8195 8197 8206 8204 
8192 8183 8186 8187 8184 8168 8181 8177 8168 8177 8169 8178 8171 8140 8121 8120 8132 8171 8183 8173 8177 8172 8172 8176 8158 8128 8126 8132 8159 8166 8165 8169 8143 8138 8164 8163 8163 8142 8129 8136 8130 8128 8140 8161 8154 8140 8135 8124 8133 8132 8137 8146 8172 8186 8192 8187 8193 8189 8196 8197 8197 8196 8195 8194 8193 8197 8197 8197 8194 8192 8194 8191 8195 8193 8193 8199 8204 8202 8208 8203 
8187 8180 8177 8186 8178 8180 8178 8177 8178 8181 8181 8180 8178 8156 8128 8112 8122 8156 8173 8174 8172 8172 8170 8184 8165 8135 8131 8129 8134 8154 8157 8145 8128 8139 8155 8149 8144 8144 8133 8125 8122 8125 8128 8151 8172 8148 8137 8130 8130 8131 8149 8145 8172 8188 8195 8197 8196 8197 8198 8196 8197 8193 8193 8199 8197 8200 8195 8193 8191 8192 8192 8190 8189 8189 8192 8195 8193 8208 8209 8201 
8191 8179 8181 8187 8181 8184 8186 8172 8179 8171 8183 8178 8179 8167 8127 8123 8124 8148 8175 8177 8169 8174 8169 8178 8170 8145 8145 8155 8144 8144 8167 8141 8123 8131 8133 8132 8129 8142 8139 8125 8122 8122 8126 8139 8144 8141 8124 8123 8127 8133 8133 8148 8178 8195 8196 8196 8194 8192 8192 8194 8192 8193 8195 8196 8194 8199 8196 8195 8190 8190 8192 8190 8190 8192 8190 8195 8192 8205 8205 8204 
8189 8180 8180 8186 8183 8185 8174 8177 8184 8173 8180 8170 8170 8172 8144 8123 8121 8130 8167 8173 8170 8168 8172 8183 8170 8162 8158 8177 8162 8144 8158 8134 8121 8130 8148 8129 8125 8147 8134 8126 8121 8129 8125 8126 8137 8139 8128 8129 8133 8158 8144 8143 8176 8184 8190 8191 8189 8187 8190 8192 8188 8193 8193 8197 8194 8190 8194 8188 8185 8186 8188 8189 8188 8195 8191 8195 8199 8203 8205 8203 
8193 8184 8177 8185 8174 8181 8177 8181 8181 8171 8170 8176 8175 8172 8161 8130 8123 8121 8155 8170 8168 8172 8171 8183 8166 8151 8174 8187 8180 8156 8124 8120 8122 8123 8150 8146 8130 8155 8164 8132 8123 8123 8118 8129 8134 8135 8133 8134 8136 8165 8178 8170 8178 8186 8189 8192 8186 8189 8187 8193 8189 8195 8186 8190 8193 8188 8192 8187 8189 8187 8192 8189 8192 8188 8189 8190 8196 8203 8204 8206 
8195 8180 8175 8183 8174 8183 8173 8174 8183 8179 8175 8175 8171 8173 8165 8132 8119 8122 8138 8166 8169 8178 8171 8183 8159 8146 8181 8180 8179 8157 8118 8118 8121 8122 8146 8140 8139 8153 8176 8148 8123 8135 8120 8128 8143 8139 8135 8133 8134 8148 8176 8183 8182 8191 8187 8185 8187 8189 8188 8188 8187 8188 8187 8188 8190 8187 8191 8190 8191 8188 8189 8188 8188 8190 8191 8197 8191 8200 8203 8207 
8199 8180 8191 8188 8182 8183 8175 8179 8182 8177 8181 8175 8168 8177 8171 8144 8121 8123 8132 8161 8171 8173 8171 8176 8169 8144 8175 8176 8162 8151 8127 8125 8119 8128 8136 8127 8140 8153 8165 8153 8130 8133 8134 8145 8133 8133 8140 8139 8134 8155 8154 8175 8186 8190 8187 8188 8187 8188 8184 8183 8187 8185 8186 8188 8190 8188 8192 8189 8192 8191 8192 8187 8190 8188 8191 8191 8191 8203 8202 8206 
8197 8183 8184 8182 8186 8179 8181 8183 8178 8175 8180 8176 8175 8172 8177 8158 8130 8123 8130 8154 8175 8173 8171 8173 8174 8168 8152 8143 8168 8165 8137 8133 8145 8133 8127 8128 8136 8146 8174 8145 8140 8131 8131 8125 8130 8131 8148 8148 8135 8142 8152 8160 8182 8186 8183 8184 8187 8190 8183 8185 8191 8190 8188 8191 8186 8185 8191 8186 8189 8188 8189 8186 8187 8193 8187 8192 8191 8194 8195 8198 
8206 8186 8183 8189 8184 8180 8185 8188 8183 8172 8171 8179 8181 8177 8181 8175 8136 8124 8126 8140 8177 8175 8175 8172 8172 8156 8129 8125 8149 8169 8137 8139 8164 8144 8122 8126 8125 8131 8155 8140 8131 8125 8134 8134 8145 8130 8130 8144 8134 8146 8165 8163 8188 8187 8188 8186 8187 8186 8183 8186 8187 8188 8186 8189 8187 8183 8188 8186 8188 8186 8187 8188 8185 8188 8185 8193 8192 8196 8193 8193 
8201 8189 8183 8184 8184 8180 8188 8179 8179 8171 8177 8183 8184 8174 8179 8175 8146 8123 8123 8135 8171 8172 8171 8153 8157 8137 8125 8124 8126 8154 8149 8139 8150 8136 8123 8125 8128 8134 8125 8127 8128 8123 8144 8170 8157 8131 8138 8165 8156 8138 8159 8177 8188 8188 8190 8188 8188 8186 8191 8189 8189 8188 8188 8189 8186 8189 8188 8184 8181 8185 8188 8190 8187 8192 8192 8198 8188 8195 8197 8191 
8201 8188 8189 8191 8187 8185 8188 8178 8183 8183 8182 8184 8182 8175 8181 8181 8157 8127 8116 8122 8151 8169 8167 8160 8165 8140 8133 8127 8130 8134 8147 8132 8138 8134 8122 8121 8125 8125 8126 8124 8129 8126 8139 8151 8143 8143 8140 8154 8167 8159 8153 8186 8191 8186 8185 8190 8187 8189 8189 8187 8184 8181 8186 8185 8185 8188 8184 8185 8184 8186 8185 8188 8186 8195 8189 8194 8194 8200 8194 8190 
8197 8191 8185 8191 8186 8188 8186 8182 8179 8182 8181 8182 8182 8175 8180 8173 8170 8136 8119 8124 8146 8160 8164 8164 8163 8140 8129 8125 8136 8142 8125 8126 8138 8129 8116 8124 8133 8141 8127 8125 8125 8125 8131 8125 8124 8135 8156 8168 8158 8150 8151 8180 8189 8184 8186 8189 8188 8192 8190 8181 8183 8186 8185 8186 8188 8184 8190 8189 8185 8184 8186 8183 8188 8190 8189 8196 8191 8194 8195 8194 
8197 8194 8201 8193 8189 8191 8189 8180 8182 8184 8184 8176 8175 8173 8177 8175 8171 8145 8128 8120 8133 8153 8170 8164 8149 8142 8127 8131 8128 8145 8135 8129 8133 8121 8120 8126 8138 8155 8132 8123 8127 8122 8128 8124 8125 8147 8153 8181 8180 8179 8159 8182 8191 8186 8184 8186 8187 8189 8187 8184 8179 8183 8182 8183 8183 8184 8185 8185 8185 8182 8183 8179 8183 8191 8188 8196 8188 8192 8195 8192 
8195 8192 8197 8186 8188 8191 8182 8185 8179 8182 8177 8181 8175 8173 8186 8174 8172 8167 8135 8125 8128 8138 8148 8145 8153 8141 8131 8129 8124 8138 8159 8140 8127 8118 8121 8131 8143 8155 8136 8126 8126 8131 8128 8128 8124 8139 8144 8163 8180 8185 8180 8182 8187 8187 8192 8193 8188 8185 8185 8188 8186 8189 8187 8185 8189 8185 8185 8183 8180 8183 8187 8178 8179 8187 8189 8192 8187 8190 8193 8189 
8197 8187 8193 8180 8186 8188 8178 8175 8181 8181 8181 8178 8179 8177 8189 8180 8184 8173 8144 8124 8126 8123 8155 8171 8178 8139 8127 8129 8125 8127 8148 8133 8131 8126 8123 8133 8131 8139 8149 8130 8125 8129 8127 8128 8126 8138 8160 8148 8178 8186 8184 8187 8183 8186 8189 8188 8183 8182 8183 8185 8182 8184 8183 8187 8186 8184 8182 8182 8179 8181 8185 8181 8184 8190 8190 8198 8189 8195 8193 8196 
8199 8186 8180 8179 8178 8185 8181 8181 8184 8187 8182 8182 8183 8182 8183 8177 8181 8177 8152 8115 8124 8121 8164 8177 8177 8146 8124 8126 8124 8125 8151 8152 8128 8121 8125 8132 8129 8133 8126 8126 8124 8130 8130 8130 8129 8141 8162 8149 8156 8177 8178 8181 8183 8187 8186 8189 8185 8187 8183 8186 8184 8191 8189 8186 8191 8188 8184 8182 8184 8183 8183 8187 8185 8186 8188 8191 8189 8195 8195 8195 
8202 8186 8191 8183 8183 8182 8183 8181 8186 8186 8178 8182 8184 8185 8180 8178 8176 8175 8164 8131 8123 8117 8150 8175 8180 8153 8126 8125 8127 8127 8134 8138 8136 8128 8123 8127 8124 8127 8126 8127 8126 8128 8125 8135 8135 8141 8142 8146 8143 8147 8149 8150 8157 8162 8172 8180 8184 8187 8184 8189 8187 8186 8188 8189 8183 8187 8178 8179 8178 8179 8183 8182 8182 8188 8187 8189 8188 8193 8188 8193 
8203 8197 8188 8182 8188 8184 8188 8175 8187 8188 8184 8183 8183 8183 8180 8182 8181 8183 8173 8139 8123 8111 8127 8140 8134 8136 8129 8125 8124 8128 8133 8125 8138 8129 8122 8126 8126 8129 8131 8136 8127 8139 8131 8136 8143 8143 8149 8145 8142 8143 8145 8144 8151 8150 8156 8174 8191 8187 8184 8186 8186 8190 8183 8190 8184 8187 8180 8182 8181 8185 8184 8182 8181 8181 8182 8187 8187 8189 8188 8188 
8201 8189 8185 8187 8187 8186 8186 8180 8178 8179 8177 8175 8184 8183 8185 8186 8184 8183 8174 8148 8124 8120 8122 8132 8133 8131 8135 8127 8126 8127 8130 8127 8132 8134 8129 8130 8126 8122 8129 8127 8133 8135 8137 8138 8141 8147 8149 8144 8143 8146 8146 8140 8142 8148 8160 8188 8187 8183 8186 8187 8186 8185 8180 8187 8181 8191 8181 8184 8182 8182 8183 8184 8184 8184 8181 8186 8186 8185 8188 8192 
8201 8194 8180 8187 8187 8186 8185 8182 8180 8182 8180 8188 8183 8182 8180 8186 8183 8180 8177 8139 8135 8123 8122 8126 8124 8123 8124 8124 8127 8125 8129 8126 8128 8127 8128 8134 8126 8127 8127 8127 8136 8131 8134 8136 8138 8142 8143 8141 8136 8140 8144 8144 8155 8151 8154 8181 8183 8184 8179 8184 8181 8186 8181 8187 8181 8184 8179 8183 8181 8181 8182 8179 8184 8183 8184 8183 8182 8188 8189 8182 
8200 8194 8186 8190 8187 8186 8189 8189 8192 8192 8189 8178 8183 8174 8184 8188 8189 8182 8180 8157 8144 8124 8123 8135 8138 8130 8125 8123 8131 8127 8127 8125 8126 8131 8127 8129 8121 8118 8120 8125 8136 8139 8140 8136 8139 8138 8146 8146 8149 8150 8148 8149 8150 8149 8157 8174 8180 8187 8182 8181 8180 8183 8178 8189 8184 8185 8181 8181 8184 8181 8181 8183 8186 8183 8191 8190 8182 8187 8189 8183 
8203 8185 8190 8195 8186 8187 8191 8189 8193 8182 8186 8187 8186 8176 8186 8185 8184 8179 8179 8165 8144 8122 8130 8125 8134 8133 8134 8130 8131 8128 8131 8128 8137 8135 8131 8133 8134 8140 8134 8132 8145 8142 8145 8137 8141 8140 8147 8144 8141 8152 8145 8153 8153 8155 8161 8175 8182 8183 8180 8183 8182 8188 8187 8190 8179 8184 8181 8181 8186 8181 8184 8180 8185 8181 8189 8188 8185 8180 8188 8179 
8200 8190 8191 8190 8183 8192 8197 8186 8188 8182 8186 8188 8189 8190 8180 8187 8185 8187 8187 8172 8139 8131 8131 8134 8134 8134 8139 8136 8137 8130 8136 8135 8142 8134 8136 8137 8139 8133 8135 8139 8148 8146 8145 8141 8141 8147 8143 8151 8146 8147 8150 8156 8163 8164 8182 8181 8182 8184 8181 8183 8181 8187 8185 8188 8179 8181 8182 8180 8187 8187 8182 8188 8188 8185 8189 8185 8188 8189 8186 8182 
8200 8183 8183 8184 8188 8187 8196 8188 8185 8188 8187 8188 8184 8192 8185 8188 8185 8183 8189 8174 8152 8136 8124 8135 8131 8134 8136 8133 8139 8134 8136 8136 8140 8140 8137 8138 8141 8138 8142 8143 8148 8145 8150 8136 8143 8144 8151 8149 8151 8157 8154 8173 8195 8191 8179 8188 8188 8183 8183 8182 8189 8186 8186 8175 8179 8176 8184 8182 8188 8189 8188 8186 8191 8188 8193 8187 8188 8186 8186 8179 
8200 8188 8182 8188 8185 8191 8187 8191 8180 8180 8188 8189 8190 8194 8190 8186 8187 8187 8189 8180 8171 8146 8130 8133 8127 8137 8140 8137 8140 8139 8132 8140 8138 8137 8139 8137 8140 8137 8146 8145 8149 8144 8148 8139 8147 8148 8149 8150 8155 8157 8179 8213 8223 8173 8183 8186 8184 8182 8181 8187 8186 8186 8184 8178 8180 8182 8185 8177 8193 8187 8194 8190 8186 8186 8190 8191 8194 8189 8188 8184 
8194 8186 8185 8190 8187 8187 8188 8195 8192 8187 8182 8183 8180 8191 8192 8185 8182 8190 8188 8186 8181 8170 8142 8135 8137 8140 8140 8143 8141 8136 8134 8138 8140 8141 8141 8138 8141 8139 8139 8146 8145 8143 8145 8149 8147 8148 8148 8148 8147 8162 8196 8213 8192 8170 8187 8187 8189 8185 8187 8188 8190 8188 8186 8177 8183 8178 8180 8179 8191 8186 8188 8189 8187 8193 8193 8188 8180 8184 8190 8184 
8194 8186 8187 8185 8185 8192 8191 8191 8183 8190 8181 8187 8183 8189 8190 8189 8189 8191 8184 8181 8182 8173 8144 8135 8133 8135 8137 8138 8137 8133 8131 8138 8133 8142 8140 8143 8141 8143 8145 8139 8142 8145 8147 8149 8147 8150 8152 8147 8155 8157 8171 8177 8168 8160 8184 8185 8185 8188 8183 8187 8185 8188 8187 8181 8183 8181 8179 8183 8191 8186 8189 8190 8188 8193 8183 8183 8184 8181 8191 8183 
8197 8192 8185 8187 8188 8188 8191 8190 8184 8193 8187 8191 8186 8194 8190 8187 8186 8185 8188 8188 8187 8186 8153 8139 8134 8132 8131 8137 8136 8129 8130 8132 8132 8138 8138 8138 8138 8139 8138 8139 8144 8140 8149 8146 8149 8148 8140 8152 8155 8156 8157 8158 8153 8162 8186 8186 8186 8186 8184 8187 8187 8189 8183 8184 8188 8175 8180 8181 8187 8186 8188 8188 8187 8194 8184 8193 8178 8180 8187 8180 
8193 8191 8189 8186 8183 8184 8190 8187 8182 8193 8191 8186 8190 8190 8189 8188 8190 8191 8179 8184 8185 8184 8158 8141 8131 8117 8127 8130 8137 8132 8126 8133 8136 8135 8140 8139 8137 8144 8140 8141 8144 8144 8147 8151 8154 8148 8137 8146 8155 8154 8152 8149 8152 8166 8181 8186 8188 8190 8183 8186 8181 8182 8179 8179 8183 8182 8179 8185 8189 8183 8191 8188 8188 8187 8187 8190 8180 8180 8181 8177 
8192 8186 8190 8183 8176 8182 8189 8184 8189 8193 8191 8183 8185 8191 8187 8183 8179 8192 8182 8190 8186 8191 8165 8142 8133 8122 8118 8134 8139 8135 8136 8132 8139 8137 8131 8141 8138 8139 8133 8141 8138 8144 8145 8147 8150 8144 8146 8146 8151 8152 8147 8148 8143 8165 8185 8186 8183 8185 8181 8182 8179 8179 8183 8182 8179 8185 8182 8186 8181 8180 8189 8190 8188 8187 8188 8183 8184 8178 8180 8179 
8195 8192 8188 8175 8183 8184 8188 8180 8184 8189 8184 8181 8180 8186 8188 8185 8176 8188 8185 8185 8180 8181 8167 8141 8135 8131 8134 8133 8135 8133 8124 8135 8135 8134 8127 8135 8135 8132 8135 8140 8142 8140 8133 8145 8148 8141 8143 8143 8145 8148 8146 8143 8145 8163 8183 8181 8181 8182 8180 8180 8175 8181 8180 8179 8181 8182 8184 8186 8187 8181 8191 8185 8189 8178 8185 8185 8185 8172 8179 8170 
8192 8176 8168 8171 8178 8173 8173 8186 8186 8183 8188 8180 8175 8190 8180 8173 8170 8180 8177 8178 8181 8173 8160 8141 8141 8136 8137 8136 8137 8130 8133 8126 8128 8138 8126 8136 8133 8139 8132 8144 8140 8136 8132 8136 8138 8138 8146 8142 8148 8146 8146 8138 8144 8162 8179 8175 8184 8180 8185 8181 8185 8178 8179 8180 8181 8182 8182 8191 8185 8188 8188 8188 8189 8179 8184 8184 8180 8167 8174 8174 
8184 8163 8160 8163 8162 8162 8163 8171 8178 8174 8173 8172 8173 8179 8175 8173 8172 8176 8169 8175 8172 8172 8168 8147 8139 8134 8140 8140 8139 8138 8133 8126 8127 8129 8130 8131 8131 8136 8134 8142 8140 8138 8137 8139 8135 8135 8145 8146 8151 8151 8143 8139 8144 8139 8162 8172 8187 8185 8189 8183 8184 8181 8177 8184 8181 8182 8187 8191 8192 8192 8190 8190 8194 8188 8183 8183 8175 8179 8177 8172 


