P2
80 60
8261
8204 8184 8195 8193 8204 8195 8197 8191 8195 8194 8196 8204 8198 8196 8196 8202 8202 8197 8197 8197 8201 8207 8206 8203 8205 8207 8205 8204 8205 8208 8205 8204 8208 8207 8206 8208 8206 8210 8211 8208 8209 8210 8201 8206 8201 8208 8205 8204 8205 8202 8204 8201 8202 8198 8192 8194 8195 8192 8192 8195 8199 8198 8205 8199 8202 8202 8208 8213 8217 8217 8215 8216 8212 8219 8217 8221 8215 8220 8217 8215 
8201 8196 8205 8198 8209 8199 8198 8193 8194 8200 8197 8200 8195 8196 8195 8202 8196 8201 8197 8203 8210 8208 8207 8200 8212 8204 8204 8204 8205 8204 8204 8209 8203 8205 8201 8204 8206 8211 8213 8211 8207 8210 8201 8207 8206 8208 8207 8204 8203 8200 8200 8202 8201 8203 8192 8198 8196 8193 8195 8198 8203 8198 8201 8200 8205 8205 8210 8209 8215 8219 8218 8217 8214 8220 8219 8223 8218 8229 8217 8212 
8181 8188 8193 8187 8198 8190 8192 8196 8189 8197 8200 8198 8194 8197 8197 8196 8201 8203 8198 8206 8203 8206 8206 8200 8205 8207 8203 8205 8204 8201 8196 8200 8200 8206 8201 8204 8205 8214 8211 8212 8211 8204 8201 8205 8206 8205 8208 8202 8201 8199 8198 8196 8200 8196 8198 8195 8193 8191 8193 8194 8200 8203 8199 8202 8204 8202 8210 8208 8219 8216 8216 8215 8213 8218 8213 8218 8219 8221 8219 8215 
8200 8187 8203 8189 8200 8193 8199 8196 8197 8197 8191 8184 8193 8195 8192 8198 8198 8201 8198 8199 8201 8196 8195 8202 8209 8205 8207 8205 8208 8206 8200 8204 8207 8203 8209 8203 8210 8212 8211 8210 8206 8207 8202 8203 8201 8205 8207 8198 8199 8200 8201 8198 8203 8200 8198 8198 8197 8195 8197 8197 8197 8201 8200 8200 8202 8199 8208 8209 8214 8217 8216 8219 8216 8220 8215 8219 8220 8228 8217 8219 
8196 8181 8196 8189 8191 8195 8196 8190 8190 8197 8191 8187 8190 8193 8187 8197 8199 8197 8199 8196 8199 8199 8196 8195 8203 8204 8203 8200 8201 8201 8198 8200 8201 8200 8205 8206 8208 8209 8212 8208 8204 8209 8198 8198 8200 8203 8201 8202 8201 8201 8199 8198 8202 8196 8200 8197 8198 8195 8197 8199 8202 8206 8199 8204 8202 8199 8205 8203 8212 8213 8218 8215 8213 8215 8211 8214 8216 8222 8216 8221 
8206 8189 8194 8190 8196 8193 8201 8195 8192 8194 8182 8190 8195 8188 8186 8193 8195 8189 8198 8202 8202 8196 8204 8195 8208 8207 8204 8200 8203 8203 8205 8203 8205 8201 8205 8206 8207 8210 8210 8209 8206 8209 8200 8205 8199 8203 8205 8202 8201 8199 8204 8198 8205 8199 8202 8204 8200 8201 8200 8201 8199 8202 8201 8203 8201 8204 8204 8207 8209 8213 8215 8212 8220 8213 8213 8219 8216 8226 8219 8221 
8204 8194 8191 8202 8199 8189 8205 8205 8195 8184 8178 8201 8198 8188 8190 8197 8188 8195 8199 8207 8199 8199 8203 8200 8207 8206 8197 8199 8202 8207 8204 8201 8202 8202 8202 8209 8206 8207 8213 8212 8208 8208 8203 8202 8202 8207 8202 8203 8201 8201 8204 8200 8204 8204 8202 8202 8199 8200 8198 8203 8198 8202 8202 8203 8203 8207 8209 8213 8211 8213 8218 8217 8214 8213 8211 8215 8215 8222 8220 8224 
8205 8198 8189 8204 8195 8194 8203 8208 8200 8174 8196 8200 8195 8191 8200 8196 8194 8200 8200 8198 8206 8199 8206 8208 8206 8203 8197 8200 8201 8205 8202 8204 8207 8209 8207 8209 8208 8209 8210 8211 8207 8208 8204 8203 8201 8206 8202 8203 8200 8194 8197 8197 8207 8199 8195 8200 8196 8202 8196 8199 8199 8198 8200 8201 8202 8209 8211 8212 8209 8207 8213 8211 8217 8214 8214 8218 8215 8226 8223 8228 
8208 8193 8188 8195 8202 8191 8203 8200 8196 8183 8191 8192 8193 8194 8191 8195 8191 8195 8200 8199 8206 8196 8200 8200 8198 8202 8200 8201 8201 8206 8204 8204 8202 8208 8205 8209 8209 8208 8210 8213 8206 8204 8202 8205 8202 8209 8205 8204 8201 8200 8197 8196 8201 8198 8201 8197 8199 8199 8199 8200 8200 8201 8200 8206 8202 8207 8207 8211 8207 8212 8212 8210 8214 8215 8210 8214 8217 8222 8220 8221 
8214 8192 8195 8199 8198 8198 8191 8200 8202 8196 8195 8193 8191 8196 8194 8191 8200 8201 8206 8201 8200 8200 8203 8199 8196 8197 8201 8203 8200 8202 8201 8202 8198 8203 8206 8211 8211 8210 8209 8208 8204 8207 8203 8205 8199 8207 8206 8204 8197 8196 8197 8199 8203 8197 8199 8198 8200 8200 8200 8201 8198 8202 8202 8204 8202 8206 8204 8210 8209 8210 8213 8217 8216 8214 8211 8216 8217 8225 8220 8218 
8208 8182 8194 8195 8198 8198 8185 8193 8199 8188 8195 8189 8191 8194 8188 8193 8199 8191 8192 8195 8201 8197 8202 8200 8202 8198 8205 8205 8205 8205 8203 8201 8199 8205 8202 8206 8204 8207 8208 8207 8206 8205 8199 8205 8205 8208 8206 8202 8201 8197 8199 8203 8199 8200 8198 8195 8197 8197 8205 8204 8205 8202 8205 8205 8202 8206 8209 8211 8211 8210 8211 8211 8212 8212 8211 8212 8215 8224 8218 8216 
8207 8205 8198 8195 8192 8196 8192 8201 8202 8191 8195 8192 8193 8196 8192 8199 8193 8198 8196 8200 8205 8203 8202 8201 8198 8202 8199 8203 8208 8205 8205 8202 8197 8205 8199 8201 8206 8209 8210 8206 8203 8205 8203 8208 8206 8209 8210 8200 8200 8201 8200 8206 8202 8202 8198 8201 8202 8201 8201 8199 8202 8203 8206 8207 8203 8206 8211 8211 8208 8206 8210 8210 8212 8208 8206 8213 8220 8223 8218 8214 
8210 8195 8191 8186 8187 8198 8200 8186 8192 8194 8192 8190 8189 8188 8193 8197 8191 8195 8196 8197 8200 8201 8198 8197 8204 8202 8197 8206 8206 8202 8208 8200 8199 8201 8195 8197 8210 8208 8206 8204 8203 8204 8205 8210 8206 8205 8202 8204 8200 8200 8204 8208 8204 8208 8200 8200 8201 8204 8204 8203 8209 8203 8207 8202 8206 8207 8211 8212 8210 8205 8207 8209 8209 8207 8205 8209 8216 8221 8217 8211 
8211 8209 8201 8200 8200 8193 8200 8196 8186 8196 8199 8196 8192 8191 8196 8193 8199 8197 8199 8201 8200 8204 8202 8199 8199 8199 8201 8200 8200 8202 8208 8197 8200 8202 8197 8209 8206 8207 8203 8202 8200 8204 8199 8207 8203 8209 8207 8201 8202 8200 8203 8205 8205 8207 8203 8203 8200 8205 8198 8202 8202 8200 8206 8207 8213 8212 8212 8212 8213 8210 8212 8211 8211 8207 8206 8211 8213 8222 8216 8214 
8218 8196 8200 8201 8199 8198 8196 8196 8196 8194 8195 8198 8194 8197 8202 8196 8198 8197 8201 8202 8196 8198 8200 8200 8202 8200 8205 8198 8201 8206 8197 8199 8197 8200 8203 8205 8203 8207 8204 8207 8202 8204 8202 8205 8203 8203 8200 8199 8204 8200 8202 8207 8206 8208 8202 8203 8204 8207 8201 8203 8203 8202 8208 8212 8213 8215 8213 8213 8215 8209 8211 8212 8210 8209 8206 8209 8212 8220 8216 8212 
8223 8188 8194 8200 8201 8193 8195 8197 8192 8199 8195 8194 8192 8191 8200 8199 8200 8199 8206 8206 8199 8203 8201 8199 8201 8203 8205 8198 8202 8204 8200 8199 8199 8201 8199 8206 8207 8207 8204 8204 8205 8204 8198 8205 8203 8207 8203 8201 8197 8201 8204 8207 8205 8209 8200 8202 8201 8203 8201 8206 8203 8203 8207 8210 8214 8213 8212 8212 8211 8209 8212 8209 8208 8208 8212 8209 8214 8218 8214 8211 
8218 8188 8190 8203 8193 8190 8194 8189 8195 8198 8195 8198 8189 8196 8190 8198 8194 8202 8201 8197 8195 8197 8202 8201 8197 8201 8204 8201 8200 8204 8204 8202 8201 8203 8204 8208 8206 8209 8208 8205 8203 8205 8199 8203 8201 8203 8200 8199 8199 8200 8201 8206 8204 8202 8202 8205 8203 8202 8201 8206 8205 8203 8209 8211 8215 8213 8211 8214 8211 8210 8212 8210 8214 8207 8209 8210 8210 8220 8213 8215 
8216 8196 8197 8193 8191 8199 8195 8201 8192 8200 8197 8193 8198 8198 8198 8198 8197 8200 8202 8199 8200 8201 8202 8196 8199 8206 8208 8201 8201 8204 8200 8202 8200 8201 8201 8201 8206 8194 8197 8199 8199 8205 8198 8204 8201 8203 8202 8199 8202 8203 8206 8207 8208 8203 8201 8199 8199 8198 8207 8206 8207 8206 8210 8211 8214 8211 8213 8216 8216 8212 8211 8213 8212 8210 8209 8210 8213 8216 8214 8215 
8215 8196 8199 8197 8195 8194 8201 8202 8199 8192 8196 8196 8200 8195 8199 8200 8195 8201 8200 8196 8199 8204 8204 8202 8204 8206 8208 8199 8200 8201 8203 8205 8202 8200 8184 8180 8176 8161 8180 8201 8201 8197 8183 8189 8183 8183 8185 8195 8195 8196 8203 8202 8202 8197 8202 8199 8207 8199 8207 8202 8207 8205 8212 8216 8212 8211 8214 8212 8212 8214 8215 8213 8213 8211 8212 8213 8214 8218 8212 8208 
8209 8197 8199 8196 8190 8201 8202 8202 8201 8198 8202 8199 8199 8194 8204 8202 8196 8201 8200 8200 8196 8210 8208 8200 8200 8198 8205 8201 8203 8202 8201 8203 8181 8177 8174 8168 8163 8162 8159 8188 8189 8178 8154 8165 8157 8164 8157 8180 8182 8191 8203 8207 8204 8201 8201 8201 8207 8201 8210 8205 8208 8206 8213 8213 8214 8210 8213 8212 8214 8214 8217 8214 8211 8210 8209 8210 8211 8217 8214 8211 
8212 8197 8192 8188 8189 8191 8189 8200 8201 8192 8195 8199 8195 8194 8193 8203 8200 8198 8193 8199 8194 8201 8205 8202 8198 8196 8198 8207 8202 8203 8201 8201 8189 8200 8202 8198 8174 8163 8172 8181 8171 8160 8152 8165 8185 8180 8178 8187 8182 8159 8175 8199 8202 8200 8203 8203 8208 8205 8206 8204 8207 8208 8214 8215 8213 8211 8209 8214 8213 8212 8216 8212 8211 8209 8210 8213 8212 8215 8213 8212 
8214 8201 8199 8203 8205 8198 8185 8199 8190 8201 8194 8192 8203 8203 8189 8200 8196 8200 8190 8194 8203 8205 8201 8205 8195 8201 8201 8203 8203 8200 8205 8199 8205 8205 8204 8196 8181 8165 8175 8175 8156 8167 8186 8190 8195 8203 8200 8201 8202 8191 8175 8186 8200 8201 8202 8202 8203 8204 8207 8203 8210 8209 8214 8215 8211 8213 8210 8214 8210 8209 8214 8210 8211 8207 8207 8206 8209 8217 8214 8212 
8214 8199 8202 8200 8199 8195 8184 8185 8188 8199 8200 8195 8193 8199 8194 8200 8194 8191 8187 8196 8196 8205 8201 8208 8203 8203 8201 8202 8203 8199 8195 8194 8204 8202 8192 8163 8158 8165 8157 8159 8173 8197 8197 8200 8197 8200 8194 8198 8194 8196 8197 8195 8197 8206 8199 8205 8208 8203 8207 8201 8209 8208 8210 8214 8213 8212 8211 8214 8210 8208 8214 8209 8212 8207 8216 8214 8214 8216 8218 8217 
8215 8204 8202 8201 8199 8201 8196 8183 8199 8202 8204 8195 8199 8197 8197 8202 8197 8203 8196 8204 8199 8197 8195 8177 8172 8165 8181 8184 8171 8164 8159 8185 8195 8198 8180 8166 8162 8151 8159 8158 8189 8204 8201 8203 8200 8199 8198 8198 8197 8202 8200 8204 8198 8202 8204 8204 8211 8207 8207 8202 8207 8211 8213 8216 8214 8213 8212 8215 8211 8210 8209 8212 8211 8210 8208 8208 8210 8219 8217 8219 
8219 8195 8201 8205 8200 8200 8192 8202 8204 8190 8199 8193 8199 8197 8198 8199 8198 8202 8192 8195 8190 8170 8159 8153 8154 8175 8158 8155 8150 8146 8162 8171 8171 8164 8159 8167 8160 8169 8165 8189 8201 8203 8198 8199 8191 8190 8188 8194 8197 8197 8204 8204 8201 8197 8196 8199 8205 8206 8208 8210 8208 8209 8206 8214 8213 8213 8213 8214 8210 8208 8211 8211 8211 8212 8214 8206 8211 8216 8216 8218 
8216 8196 8197 8208 8203 8194 8200 8188 8188 8198 8196 8205 8198 8197 8201 8201 8203 8201 8191 8174 8173 8157 8152 8151 8175 8189 8179 8153 8150 8155 8169 8173 8156 8177 8175 8169 8167 8176 8169 8191 8188 8191 8181 8167 8150 8155 8157 8170 8186 8193 8199 8205 8208 8201 8184 8165 8176 8188 8203 8212 8208 8207 8208 8214 8212 8214 8212 8213 8210 8210 8211 8211 8211 8207 8209 8210 8211 8214 8214 8220 
8213 8201 8192 8202 8195 8198 8192 8188 8197 8196 8195 8200 8195 8199 8198 8200 8201 8186 8169 8174 8187 8155 8156 8190 8200 8200 8202 8174 8171 8186 8196 8197 8184 8175 8181 8193 8178 8173 8167 8157 8156 8153 8149 8162 8153 8150 8147 8154 8174 8174 8187 8201 8202 8201 8163 8158 8163 8165 8198 8210 8209 8209 8210 8214 8210 8213 8212 8212 8210 8209 8210 8208 8211 8210 8208 8208 8215 8218 8218 8222 
8210 8201 8204 8206 8205 8191 8200 8197 8192 8197 8191 8201 8200 8197 8198 8200 8188 8167 8165 8195 8194 8181 8193 8202 8194 8201 8204 8200 8202 8202 8203 8201 8202 8196 8183 8170 8175 8161 8162 8159 8165 8149 8145 8155 8183 8153 8145 8143 8156 8183 8186 8196 8197 8199 8169 8162 8161 8169 8203 8210 8210 8211 8209 8210 8212 8214 8211 8212 8208 8207 8207 8207 8207 8209 8207 8215 8218 8221 8220 8220 
8207 8197 8196 8204 8202 8200 8197 8200 8200 8202 8201 8205 8202 8196 8201 8191 8176 8167 8174 8197 8194 8200 8200 8205 8207 8204 8208 8206 8207 8205 8199 8202 8202 8200 8197 8194 8173 8151 8166 8164 8155 8163 8175 8176 8166 8165 8159 8145 8143 8159 8194 8202 8203 8189 8163 8165 8167 8180 8205 8206 8206 8202 8206 8208 8210 8209 8211 8207 8206 8204 8208 8204 8207 8203 8208 8210 8211 8229 8218 8221 
8210 8194 8197 8202 8199 8205 8207 8195 8203 8196 8205 8204 8198 8200 8195 8198 8172 8191 8196 8196 8196 8201 8201 8203 8203 8202 8204 8206 8204 8203 8199 8203 8200 8204 8200 8201 8185 8160 8183 8181 8160 8190 8201 8198 8173 8188 8188 8151 8146 8155 8198 8209 8210 8187 8168 8166 8165 8187 8200 8203 8203 8205 8205 8204 8206 8207 8206 8203 8204 8202 8205 8208 8206 8206 8208 8208 8211 8224 8217 8225 
8214 8201 8201 8208 8207 8207 8197 8200 8207 8196 8200 8195 8193 8202 8196 8187 8193 8198 8204 8200 8196 8198 8208 8205 8202 8202 8207 8204 8202 8202 8201 8202 8201 8203 8193 8182 8164 8162 8177 8168 8168 8177 8188 8197 8203 8203 8206 8181 8152 8156 8198 8212 8200 8170 8163 8166 8169 8198 8200 8202 8199 8205 8206 8207 8208 8206 8208 8203 8206 8203 8213 8204 8206 8209 8209 8209 8218 8224 8218 8226 
8212 8198 8197 8204 8197 8200 8199 8201 8202 8197 8191 8202 8200 8197 8196 8191 8199 8193 8195 8197 8195 8201 8202 8207 8207 8203 8205 8210 8207 8203 8198 8201 8200 8186 8163 8160 8152 8154 8160 8164 8158 8160 8164 8168 8184 8201 8209 8205 8202 8176 8196 8208 8197 8169 8166 8170 8170 8198 8199 8204 8200 8206 8203 8206 8204 8203 8206 8203 8208 8204 8206 8206 8210 8206 8208 8207 8216 8221 8220 8221 
8218 8201 8197 8200 8196 8203 8196 8197 8203 8202 8196 8197 8193 8196 8198 8201 8201 8200 8197 8196 8195 8206 8205 8205 8205 8206 8209 8208 8205 8209 8194 8196 8172 8155 8151 8156 8150 8150 8152 8149 8152 8155 8150 8156 8165 8173 8201 8207 8203 8197 8203 8209 8183 8170 8165 8169 8181 8207 8205 8203 8201 8205 8201 8203 8202 8200 8205 8204 8211 8204 8206 8204 8206 8203 8208 8215 8211 8216 8217 8220 
8217 8197 8208 8209 8202 8203 8195 8200 8202 8200 8200 8197 8194 8199 8196 8197 8196 8196 8201 8194 8199 8202 8204 8204 8205 8210 8209 8209 8209 8208 8192 8177 8165 8157 8153 8155 8153 8154 8157 8156 8167 8192 8187 8181 8169 8159 8165 8194 8211 8208 8209 8204 8175 8170 8167 8172 8189 8202 8201 8198 8201 8201 8201 8203 8203 8204 8203 8205 8207 8206 8205 8207 8206 8202 8209 8205 8211 8219 8215 8219 
8219 8205 8205 8203 8204 8200 8200 8205 8201 8197 8201 8200 8198 8193 8198 8195 8203 8206 8201 8201 8204 8203 8201 8198 8203 8207 8203 8206 8207 8204 8179 8170 8178 8157 8156 8151 8153 8150 8156 8152 8155 8190 8202 8205 8204 8187 8179 8170 8195 8202 8205 8202 8173 8172 8167 8170 8194 8206 8203 8199 8201 8201 8204 8202 8202 8199 8203 8203 8204 8205 8204 8202 8205 8203 8208 8204 8209 8217 8214 8216 
8223 8207 8202 8208 8204 8202 8204 8206 8202 8192 8194 8201 8205 8198 8202 8204 8201 8201 8201 8200 8208 8207 8206 8199 8204 8202 8201 8204 8206 8201 8190 8188 8179 8179 8158 8156 8156 8152 8154 8156 8162 8188 8203 8210 8210 8208 8204 8192 8195 8204 8205 8194 8171 8168 8168 8180 8203 8200 8202 8199 8202 8202 8203 8203 8202 8201 8201 8200 8205 8206 8206 8204 8203 8202 8204 8208 8208 8213 8212 8211 
8223 8208 8208 8205 8203 8203 8209 8201 8202 8196 8199 8205 8204 8197 8198 8201 8202 8198 8200 8203 8204 8204 8205 8202 8201 8199 8202 8204 8202 8199 8197 8195 8175 8185 8180 8164 8154 8151 8153 8152 8159 8174 8188 8195 8206 8214 8212 8205 8200 8198 8200 8182 8170 8173 8170 8191 8203 8201 8206 8202 8200 8199 8206 8201 8203 8202 8201 8202 8203 8201 8205 8202 8205 8207 8208 8210 8208 8213 8212 8212 
8219 8212 8208 8209 8207 8202 8210 8201 8203 8203 8199 8210 8205 8199 8202 8203 8196 8198 8198 8197 8198 8203 8205 8203 8200 8204 8205 8203 8206 8202 8197 8183 8172 8157 8153 8154 8156 8152 8154 8152 8149 8161 8156 8164 8170 8201 8207 8203 8205 8202 8201 8180 8172 8173 8170 8198 8203 8202 8204 8197 8201 8197 8202 8200 8202 8204 8201 8204 8202 8201 8206 8204 8204 8207 8208 8207 8211 8218 8209 8210 
8217 8212 8206 8208 8206 8207 8205 8207 8202 8208 8201 8202 8200 8196 8200 8196 8201 8196 8199 8199 8200 8197 8201 8204 8204 8204 8205 8200 8198 8178 8164 8152 8145 8143 8143 8148 8153 8151 8152 8152 8146 8155 8165 8160 8151 8163 8187 8196 8202 8197 8193 8172 8175 8170 8181 8202 8205 8209 8207 8196 8200 8198 8204 8201 8199 8205 8203 8204 8204 8199 8204 8202 8205 8205 8207 8212 8213 8212 8208 8214 
8217 8212 8221 8211 8209 8210 8211 8204 8203 8204 8204 8201 8201 8200 8197 8196 8196 8197 8205 8201 8201 8199 8204 8205 8199 8199 8199 8191 8167 8159 8159 8151 8144 8144 8145 8161 8173 8162 8157 8152 8146 8150 8159 8155 8152 8155 8173 8196 8206 8197 8186 8173 8178 8171 8188 8203 8205 8205 8203 8198 8201 8197 8202 8202 8200 8206 8203 8205 8202 8200 8198 8200 8199 8206 8205 8206 8211 8209 8209 8217 
8217 8212 8216 8204 8205 8207 8203 8206 8202 8203 8195 8199 8194 8194 8203 8197 8194 8205 8207 8205 8204 8201 8201 8205 8195 8202 8188 8162 8154 8154 8154 8153 8146 8148 8156 8178 8193 8181 8157 8150 8149 8165 8159 8160 8155 8152 8164 8191 8197 8194 8177 8171 8170 8172 8196 8203 8206 8201 8201 8200 8200 8200 8203 8201 8203 8205 8199 8200 8199 8201 8207 8202 8199 8205 8210 8206 8207 8210 8209 8209 
8217 8202 8212 8199 8206 8210 8199 8198 8201 8202 8201 8204 8203 8199 8205 8202 8198 8204 8204 8202 8203 8203 8202 8204 8205 8196 8164 8162 8172 8169 8171 8176 8174 8165 8180 8181 8182 8184 8160 8152 8153 8181 8176 8160 8155 8160 8165 8189 8205 8195 8174 8170 8172 8176 8207 8204 8204 8198 8202 8196 8201 8198 8203 8202 8203 8203 8200 8202 8200 8200 8201 8198 8198 8205 8205 8210 8206 8213 8209 8214 
8219 8203 8199 8201 8199 8204 8203 8204 8208 8202 8203 8201 8200 8205 8201 8203 8198 8203 8198 8193 8201 8200 8203 8202 8201 8181 8161 8163 8180 8168 8181 8183 8176 8179 8175 8162 8167 8175 8162 8148 8156 8179 8176 8166 8156 8166 8158 8174 8190 8182 8174 8171 8174 8186 8199 8203 8203 8200 8203 8200 8200 8203 8203 8203 8205 8203 8198 8199 8202 8203 8204 8200 8204 8205 8206 8208 8206 8213 8208 8217 
8221 8205 8205 8201 8203 8201 8204 8201 8209 8211 8203 8207 8207 8209 8196 8201 8194 8198 8196 8201 8203 8196 8202 8199 8200 8182 8160 8171 8180 8163 8166 8169 8163 8167 8157 8154 8153 8160 8161 8156 8161 8162 8163 8171 8162 8169 8160 8167 8171 8164 8173 8171 8180 8184 8201 8205 8205 8200 8202 8200 8205 8200 8203 8201 8201 8203 8200 8200 8199 8200 8203 8197 8203 8207 8206 8204 8207 8214 8205 8212 
8223 8216 8209 8201 8205 8203 8208 8197 8209 8205 8203 8201 8201 8204 8203 8200 8202 8207 8198 8195 8191 8183 8182 8173 8171 8170 8157 8159 8160 8162 8161 8159 8162 8158 8154 8151 8154 8156 8161 8156 8156 8160 8163 8169 8165 8161 8165 8160 8160 8162 8173 8171 8177 8182 8192 8208 8206 8204 8202 8202 8205 8204 8201 8206 8201 8204 8200 8202 8198 8201 8200 8201 8201 8201 8200 8208 8207 8209 8202 8206 
8222 8207 8202 8203 8204 8203 8206 8202 8200 8203 8198 8197 8205 8203 8205 8205 8205 8202 8193 8180 8167 8168 8164 8167 8161 8163 8163 8163 8164 8165 8160 8160 8163 8164 8159 8155 8153 8151 8160 8161 8160 8162 8166 8170 8165 8169 8168 8168 8163 8163 8172 8166 8174 8190 8240 8216 8209 8202 8202 8196 8202 8199 8198 8201 8200 8200 8199 8202 8198 8205 8200 8202 8201 8200 8197 8203 8205 8208 8201 8204 
8222 8212 8202 8206 8208 8206 8205 8204 8199 8198 8201 8205 8205 8204 8203 8202 8206 8204 8193 8169 8168 8167 8162 8168 8162 8160 8157 8159 8161 8162 8158 8160 8161 8159 8156 8156 8150 8150 8155 8154 8157 8160 8163 8172 8169 8167 8165 8171 8166 8164 8173 8172 8182 8204 8257 8210 8206 8198 8199 8199 8201 8196 8200 8201 8200 8199 8201 8201 8201 8199 8203 8198 8200 8204 8200 8203 8203 8207 8200 8198 
8221 8215 8205 8208 8206 8206 8208 8208 8214 8214 8214 8204 8207 8195 8205 8207 8205 8204 8197 8177 8173 8163 8160 8170 8169 8164 8160 8162 8164 8166 8163 8168 8160 8163 8159 8159 8154 8155 8157 8163 8164 8169 8168 8169 8167 8173 8172 8171 8170 8169 8175 8175 8184 8193 8210 8204 8207 8202 8199 8194 8199 8202 8198 8202 8200 8199 8198 8202 8200 8198 8203 8202 8201 8201 8204 8205 8201 8207 8203 8200 
8221 8209 8213 8214 8207 8205 8215 8210 8214 8204 8207 8206 8208 8197 8208 8204 8205 8202 8199 8186 8170 8158 8164 8161 8168 8166 8159 8161 8161 8162 8161 8162 8164 8165 8163 8163 8164 8163 8159 8159 8165 8170 8164 8169 8164 8165 8167 8168 8167 8172 8174 8182 8193 8199 8207 8200 8204 8199 8202 8194 8198 8198 8203 8208 8195 8204 8200 8203 8201 8201 8206 8201 8203 8204 8209 8206 8206 8205 8201 8203 
8222 8207 8210 8208 8209 8213 8221 8206 8211 8203 8208 8207 8213 8209 8202 8208 8206 8207 8210 8191 8163 8163 8165 8160 8163 8164 8163 8165 8162 8165 8164 8166 8165 8164 8164 8166 8169 8169 8164 8170 8167 8172 8164 8172 8165 8176 8167 8180 8171 8176 8180 8193 8208 8224 8208 8200 8206 8203 8203 8198 8199 8201 8200 8203 8193 8202 8196 8200 8203 8202 8202 8208 8210 8203 8211 8205 8208 8208 8199 8203 
8224 8201 8205 8203 8212 8204 8219 8207 8209 8208 8209 8205 8207 8212 8207 8208 8206 8206 8207 8194 8177 8167 8163 8167 8163 8163 8163 8161 8162 8166 8161 8165 8164 8169 8166 8167 8169 8170 8171 8172 8171 8174 8171 8170 8166 8172 8174 8175 8173 8181 8196 8237 8231 8216 8205 8206 8206 8199 8201 8196 8204 8201 8202 8200 8195 8195 8200 8203 8208 8207 8208 8205 8211 8206 8209 8204 8208 8207 8202 8200 
8220 8211 8206 8207 8207 8211 8205 8213 8204 8201 8208 8209 8214 8214 8212 8207 8209 8211 8211 8201 8194 8171 8167 8165 8160 8164 8165 8161 8164 8164 8159 8166 8163 8163 8164 8166 8168 8170 8175 8173 8170 8172 8171 8170 8174 8178 8177 8178 8182 8211 8258 8261 8207 8201 8205 8208 8208 8202 8203 8199 8204 8204 8201 8201 8196 8202 8205 8200 8206 8208 8208 8208 8207 8209 8213 8209 8209 8210 8204 8204 
8217 8208 8205 8209 8208 8208 8208 8219 8215 8209 8202 8205 8205 8212 8215 8204 8204 8212 8209 8206 8202 8187 8173 8166 8168 8164 8164 8164 8166 8165 8161 8163 8161 8167 8170 8167 8169 8172 8170 8175 8172 8174 8167 8177 8175 8175 8174 8177 8187 8233 8242 8215 8189 8208 8209 8207 8208 8201 8201 8202 8205 8206 8199 8196 8195 8199 8198 8200 8210 8206 8208 8212 8210 8210 8210 8207 8202 8208 8207 8206 
8215 8209 8208 8206 8209 8213 8212 8213 8202 8210 8202 8208 8207 8213 8212 8211 8211 8213 8207 8206 8209 8195 8174 8166 8169 8162 8167 8164 8160 8160 8162 8163 8162 8165 8166 8170 8169 8171 8173 8170 8166 8173 8169 8178 8175 8179 8176 8178 8186 8200 8202 8193 8186 8196 8207 8207 8209 8203 8206 8200 8204 8206 8204 8206 8202 8207 8196 8207 8207 8203 8205 8210 8208 8212 8212 8202 8203 8205 8204 8205 
8220 8215 8207 8209 8209 8207 8212 8213 8209 8215 8209 8213 8209 8217 8207 8211 8207 8209 8212 8206 8212 8201 8176 8170 8169 8159 8159 8167 8165 8159 8156 8158 8158 8162 8169 8168 8170 8170 8169 8169 8170 8170 8172 8175 8173 8182 8169 8182 8180 8187 8182 8183 8185 8197 8207 8205 8212 8201 8204 8202 8206 8200 8197 8198 8201 8201 8198 8203 8205 8205 8212 8211 8206 8206 8200 8206 8198 8207 8202 8200 
8215 8213 8213 8209 8207 8207 8211 8211 8205 8211 8217 8210 8215 8215 8209 8212 8212 8212 8204 8202 8214 8209 8179 8167 8165 8145 8157 8158 8165 8164 8159 8162 8163 8162 8171 8172 8169 8172 8168 8168 8168 8174 8173 8179 8173 8177 8163 8176 8174 8177 8178 8177 8185 8204 8206 8206 8212 8203 8205 8201 8202 8201 8201 8202 8204 8206 8197 8203 8203 8200 8212 8209 8210 8209 8210 8210 8202 8203 8202 8196 
8213 8209 8213 8205 8202 8205 8212 8206 8210 8216 8216 8206 8213 8212 8211 8204 8205 8214 8208 8212 8215 8209 8188 8168 8166 8151 8146 8163 8166 8166 8161 8161 8161 8159 8162 8169 8170 8168 8167 8169 8165 8174 8168 8177 8174 8171 8171 8172 8172 8174 8174 8179 8182 8196 8205 8206 8207 8204 8198 8196 8196 8196 8195 8201 8201 8205 8199 8211 8204 8202 8210 8208 8208 8204 8204 8202 8205 8205 8199 8196 
8215 8212 8210 8193 8209 8205 8210 8202 8210 8209 8209 8204 8206 8210 8216 8209 8202 8211 8211 8206 8206 8205 8189 8167 8166 8159 8157 8159 8159 8162 8152 8163 8158 8161 8155 8163 8165 8163 8164 8167 8165 8164 8158 8175 8174 8170 8171 8171 8169 8171 8171 8173 8182 8195 8206 8201 8205 8202 8199 8198 8192 8202 8198 8201 8198 8203 8200 8206 8202 8202 8209 8206 8207 8199 8205 8200 8206 8195 8192 8193 
8214 8196 8192 8191 8202 8193 8196 8207 8209 8209 8213 8203 8200 8211 8206 8197 8198 8201 8201 8196 8211 8196 8188 8164 8168 8167 8159 8166 8160 8161 8159 8151 8149 8161 8155 8161 8162 8165 8162 8170 8166 8164 8161 8168 8170 8167 8171 8167 8168 8168 8171 8169 8185 8193 8200 8197 8206 8202 8202 8198 8199 8196 8193 8200 8197 8205 8203 8210 8206 8209 8206 8208 8204 8196 8203 8201 8198 8194 8193 8193 
8206 8182 8184 8182 8185 8182 8186 8194 8198 8198 8197 8195 8196 8199 8199 8197 8198 8198 8197 8194 8201 8196 8196 8169 8167 8166 8163 8172 8163 8166 8157 8153 8150 8154 8155 8155 8158 8163 8162 8168 8166 8163 8166 8179 8166 8168 8168 8169 8172 8171 8166 8170 8174 8171 8196 8199 8209 8203 8205 8203 8199 8200 8195 8201 8196 8204 8203 8210 8211 8211 8210 8213 8207 8209 8204 8199 8198 8203 8197 8194 


