P2
80 60
8220
8159 8158 8164 8160 8160 8159 8162 8161 8159 8158 8163 8164 8162 8160 8164 8162 8160 8158 8163 8159 8166 8168 8166 8165 8167 8165 8168 8167 8170 8172 8174 8174 8175 8173 8172 8173 8167 8173 8176 8175 8176 8177 8177 8178 8180 8177 8179 8180 8174 8179 8176 8176 8176 8177 8174 8174 8171 8168 8171 8170 8170 8174 8173 8176 8178 8174 8181 8178 8178 8176 8175 8183 8181 8181 8184 8181 8179 8183 8180 8180 
8160 8159 8159 8159 8159 8161 8160 8160 8161 8162 8167 8163 8162 8161 8163 8161 8162 8162 8161 8162 8163 8164 8167 8166 8167 8166 8169 8169 8172 8172 8176 8173 8174 8174 8173 8175 8170 8173 8178 8180 8179 8179 8180 8179 8182 8179 8180 8180 8177 8177 8176 8176 8174 8176 8174 8170 8167 8167 8170 8170 8171 8171 8173 8175 8174 8173 8178 8176 8176 8176 8177 8182 8179 8181 8184 8182 8181 8180 8179 8177 
8158 8159 8166 8158 8164 8161 8158 8159 8161 8162 8162 8163 8164 8159 8162 8160 8160 8163 8161 8162 8165 8166 8167 8167 8168 8169 8170 8168 8173 8175 8177 8173 8175 8174 8176 8176 8172 8174 8176 8181 8182 8179 8182 8184 8185 8183 8184 8181 8180 8181 8181 8179 8177 8176 8173 8171 8170 8167 8174 8169 8171 8172 8173 8177 8175 8174 8176 8175 8178 8173 8172 8183 8182 8183 8185 8181 8179 8178 8177 8174 
8157 8157 8162 8161 8161 8159 8157 8155 8159 8158 8162 8162 8160 8161 8162 8164 8160 8165 8160 8163 8166 8168 8167 8168 8171 8173 8172 8171 8176 8178 8178 8180 8181 8180 8182 8183 8187 8187 8191 8193 8191 8193 8190 8189 8190 8191 8191 8192 8187 8187 8185 8183 8187 8180 8173 8171 8171 8169 8169 8170 8171 8171 8172 8176 8174 8172 8176 8174 8176 8173 8173 8180 8182 8177 8184 8182 8177 8180 8173 8170 
8159 8159 8161 8159 8158 8159 8158 8157 8155 8152 8158 8161 8160 8159 8159 8160 8162 8164 8166 8163 8166 8168 8169 8171 8174 8177 8179 8179 8185 8185 8186 8188 8186 8189 8193 8188 8193 8198 8200 8197 8199 8196 8196 8193 8194 8196 8196 8197 8192 8193 8189 8189 8185 8185 8175 8174 8171 8166 8173 8172 8172 8169 8172 8177 8175 8173 8177 8175 8177 8175 8174 8178 8182 8177 8184 8180 8177 8173 8169 8173 
8157 8159 8161 8159 8159 8159 8158 8159 8155 8153 8161 8162 8161 8160 8161 8164 8163 8168 8165 8167 8174 8173 8178 8177 8179 8181 8182 8183 8186 8188 8191 8191 8195 8197 8198 8194 8196 8196 8201 8199 8202 8196 8201 8198 8198 8198 8200 8200 8192 8193 8192 8193 8191 8186 8179 8178 8172 8172 8174 8172 8170 8173 8173 8180 8178 8179 8181 8175 8175 8178 8176 8180 8182 8181 8182 8180 8178 8173 8172 8173 
8160 8159 8161 8160 8157 8157 8158 8161 8158 8157 8160 8161 8162 8160 8164 8164 8168 8172 8172 8170 8177 8174 8179 8178 8182 8182 8184 8184 8189 8190 8191 8191 8196 8199 8199 8200 8196 8199 8201 8203 8203 8199 8203 8195 8199 8198 8204 8200 8199 8196 8195 8194 8190 8192 8183 8180 8175 8173 8175 8172 8174 8175 8175 8179 8179 8176 8175 8175 8176 8175 8179 8179 8182 8179 8182 8182 8178 8174 8173 8169 
8159 8158 8161 8159 8158 8159 8160 8160 8160 8159 8162 8161 8161 8164 8166 8167 8168 8176 8173 8175 8178 8180 8184 8186 8187 8185 8183 8186 8189 8193 8193 8196 8197 8200 8202 8200 8199 8203 8206 8206 8206 8205 8205 8202 8203 8204 8206 8208 8202 8199 8195 8199 8192 8192 8186 8181 8175 8174 8175 8174 8174 8173 8175 8180 8180 8175 8182 8180 8182 8177 8178 8179 8182 8178 8181 8179 8174 8175 8174 8171 
8159 8159 8160 8159 8165 8160 8166 8163 8163 8164 8163 8166 8162 8162 8165 8170 8172 8176 8179 8181 8183 8183 8189 8186 8186 8187 8186 8184 8187 8191 8195 8192 8198 8203 8205 8203 8203 8205 8205 8205 8205 8205 8207 8204 8204 8203 8207 8207 8203 8199 8199 8195 8194 8194 8187 8181 8178 8175 8176 8175 8172 8173 8176 8179 8177 8177 8177 8178 8180 8178 8175 8176 8178 8179 8182 8177 8171 8175 8171 8166 
8156 8156 8163 8164 8167 8169 8168 8165 8165 8165 8171 8171 8170 8169 8169 8175 8174 8181 8182 8182 8185 8187 8192 8191 8186 8185 8187 8186 8186 8190 8196 8192 8199 8203 8206 8203 8203 8207 8207 8208 8204 8208 8207 8205 8204 8206 8205 8206 8202 8202 8199 8197 8194 8192 8185 8183 8180 8178 8179 8178 8176 8176 8175 8177 8180 8176 8181 8177 8177 8178 8177 8176 8175 8175 8176 8175 8173 8170 8166 8165 
8158 8160 8162 8164 8170 8172 8173 8171 8172 8171 8175 8178 8174 8175 8174 8174 8177 8182 8182 8184 8185 8186 8191 8190 8188 8186 8186 8187 8192 8192 8198 8194 8198 8203 8206 8205 8202 8204 8207 8205 8204 8207 8208 8207 8206 8206 8205 8207 8201 8203 8200 8198 8195 8195 8187 8183 8182 8179 8179 8175 8179 8178 8178 8181 8180 8179 8181 8177 8179 8179 8180 8175 8174 8179 8178 8174 8174 8172 8171 8169 
8162 8162 8168 8168 8172 8174 8174 8176 8176 8174 8175 8173 8175 8176 8177 8178 8179 8181 8185 8184 8186 8186 8189 8190 8187 8187 8188 8186 8192 8193 8197 8197 8202 8203 8203 8204 8203 8206 8205 8207 8208 8207 8207 8207 8204 8205 8205 8204 8201 8203 8200 8200 8197 8196 8186 8184 8183 8180 8181 8179 8179 8180 8178 8184 8183 8181 8183 8179 8180 8177 8177 8176 8175 8174 8175 8172 8172 8175 8172 8174 
8164 8164 8168 8172 8173 8174 8179 8176 8177 8175 8174 8178 8177 8177 8179 8182 8180 8182 8182 8183 8187 8186 8191 8186 8188 8187 8187 8188 8192 8193 8198 8197 8197 8202 8204 8204 8206 8206 8207 8206 8206 8206 8208 8207 8204 8206 8206 8206 8203 8204 8203 8202 8200 8199 8187 8186 8181 8181 8183 8183 8181 8181 8179 8185 8182 8180 8183 8181 8180 8177 8178 8179 8175 8171 8176 8177 8174 8176 8170 8169 
8163 8164 8172 8171 8176 8179 8181 8178 8176 8173 8176 8178 8177 8177 8181 8183 8182 8185 8185 8182 8187 8189 8191 8187 8185 8187 8188 8190 8194 8195 8197 8198 8201 8204 8207 8204 8204 8206 8204 8205 8205 8210 8208 8204 8205 8206 8208 8202 8202 8202 8199 8200 8198 8196 8190 8188 8185 8181 8185 8181 8182 8184 8183 8187 8182 8181 8184 8180 8183 8177 8177 8179 8174 8173 8179 8172 8174 8174 8173 8171 
8165 8164 8169 8171 8174 8177 8182 8176 8177 8173 8178 8179 8178 8181 8181 8183 8182 8183 8184 8187 8185 8186 8193 8189 8186 8187 8191 8190 8195 8196 8198 8195 8201 8203 8205 8203 8202 8199 8182 8201 8203 8206 8207 8205 8204 8205 8206 8205 8202 8204 8196 8177 8191 8193 8186 8186 8184 8187 8187 8183 8185 8183 8185 8187 8187 8184 8186 8183 8181 8179 8177 8179 8177 8176 8178 8177 8177 8176 8171 8170 
8168 8167 8173 8173 8176 8180 8181 8180 8178 8174 8180 8179 8177 8179 8180 8180 8182 8188 8183 8186 8188 8186 8191 8186 8188 8188 8191 8192 8197 8201 8200 8199 8205 8203 8203 8201 8198 8197 8185 8189 8170 8183 8201 8202 8204 8206 8204 8204 8202 8201 8194 8157 8172 8181 8179 8188 8184 8185 8186 8182 8183 8183 8184 8190 8187 8183 8188 8183 8186 8184 8182 8181 8182 8177 8177 8173 8173 8178 8174 8170 
8172 8170 8175 8173 8176 8177 8179 8180 8181 8174 8177 8179 8179 8179 8183 8183 8183 8185 8184 8186 8189 8187 8191 8192 8190 8188 8193 8194 8197 8197 8202 8198 8202 8197 8174 8171 8175 8163 8155 8144 8153 8159 8188 8201 8202 8203 8194 8198 8199 8197 8166 8141 8142 8145 8169 8185 8187 8186 8185 8186 8186 8184 8187 8191 8189 8186 8187 8186 8186 8188 8182 8186 8182 8180 8181 8176 8174 8177 8173 8169 
8171 8172 8178 8175 8178 8181 8179 8181 8181 8177 8180 8180 8179 8181 8187 8183 8184 8186 8189 8189 8190 8190 8194 8190 8193 8193 8193 8196 8194 8198 8199 8187 8184 8172 8149 8148 8154 8145 8147 8142 8154 8178 8189 8193 8197 8195 8164 8166 8176 8169 8147 8138 8140 8143 8158 8183 8185 8182 8187 8186 8186 8186 8184 8189 8190 8188 8190 8189 8189 8186 8184 8188 8186 8186 8185 8181 8181 8178 8174 8173 
8169 8173 8177 8178 8179 8180 8180 8180 8180 8178 8181 8184 8183 8182 8186 8184 8187 8186 8186 8188 8190 8188 8194 8196 8197 8193 8193 8193 8195 8198 8167 8150 8157 8166 8185 8189 8172 8154 8136 8137 8137 8140 8151 8154 8154 8155 8142 8141 8167 8184 8147 8140 8140 8144 8148 8170 8185 8186 8187 8188 8188 8187 8184 8192 8191 8188 8191 8186 8189 8184 8181 8186 8185 8188 8191 8185 8180 8179 8176 8173 
8174 8176 8179 8178 8181 8181 8179 8179 8181 8179 8183 8182 8186 8186 8183 8189 8185 8190 8186 8186 8190 8187 8193 8195 8196 8192 8193 8197 8198 8197 8180 8156 8178 8181 8180 8157 8148 8141 8135 8138 8136 8133 8145 8149 8148 8139 8135 8135 8148 8147 8136 8136 8137 8142 8147 8161 8183 8188 8189 8188 8186 8185 8187 8190 8190 8190 8191 8189 8188 8186 8185 8186 8186 8187 8188 8183 8179 8177 8174 8173 
8176 8179 8183 8180 8182 8183 8183 8179 8181 8180 8186 8184 8187 8188 8186 8189 8187 8187 8188 8185 8186 8184 8188 8194 8193 8191 8192 8193 8195 8196 8182 8157 8169 8147 8142 8140 8139 8134 8137 8134 8135 8132 8142 8143 8134 8131 8135 8134 8132 8132 8139 8133 8137 8140 8154 8167 8186 8187 8187 8188 8185 8188 8189 8190 8188 8186 8194 8185 8187 8188 8187 8187 8186 8185 8187 8184 8182 8180 8171 8170 
8184 8180 8185 8180 8185 8183 8183 8182 8183 8182 8185 8188 8187 8188 8189 8191 8187 8188 8187 8187 8179 8151 8155 8186 8189 8189 8188 8188 8192 8191 8169 8143 8141 8137 8136 8136 8131 8130 8139 8136 8134 8136 8132 8130 8132 8127 8132 8136 8132 8132 8138 8138 8144 8141 8145 8152 8179 8183 8184 8188 8189 8189 8187 8189 8190 8190 8189 8188 8189 8185 8188 8186 8187 8184 8186 8184 8181 8177 8172 8176 
8184 8185 8183 8184 8183 8184 8185 8186 8184 8185 8188 8188 8186 8186 8189 8187 8190 8190 8190 8179 8147 8135 8136 8162 8191 8190 8190 8183 8170 8157 8146 8139 8138 8134 8137 8134 8131 8133 8137 8140 8135 8136 8137 8131 8127 8128 8134 8143 8137 8130 8133 8142 8143 8144 8155 8161 8182 8184 8187 8188 8187 8189 8190 8190 8190 8190 8190 8191 8188 8185 8184 8187 8185 8185 8185 8184 8179 8178 8170 8172 
8182 8184 8187 8183 8184 8184 8183 8181 8184 8187 8189 8188 8186 8187 8189 8189 8191 8190 8189 8165 8136 8132 8136 8138 8168 8189 8183 8158 8154 8144 8140 8136 8142 8136 8136 8133 8130 8133 8134 8133 8131 8134 8145 8133 8130 8131 8133 8142 8130 8131 8132 8136 8143 8145 8168 8181 8186 8187 8187 8188 8187 8189 8188 8191 8192 8188 8190 8185 8190 8186 8184 8187 8184 8182 8184 8180 8179 8176 8174 8171 
8180 8183 8184 8182 8183 8184 8187 8187 8188 8187 8191 8189 8189 8187 8189 8191 8189 8188 8188 8181 8154 8134 8138 8137 8141 8172 8185 8184 8182 8146 8140 8134 8135 8136 8131 8141 8135 8132 8135 8129 8132 8133 8138 8129 8130 8129 8130 8141 8134 8134 8142 8142 8142 8145 8161 8185 8187 8188 8190 8189 8188 8186 8189 8192 8191 8189 8190 8190 8188 8188 8185 8186 8185 8184 8184 8182 8178 8178 8173 8172 
8178 8183 8184 8184 8185 8187 8185 8186 8188 8187 8192 8189 8189 8189 8191 8190 8192 8191 8187 8184 8182 8155 8143 8137 8137 8140 8177 8186 8165 8144 8142 8135 8138 8135 8136 8137 8140 8133 8139 8135 8134 8133 8132 8131 8129 8129 8133 8134 8135 8136 8148 8166 8153 8148 8151 8178 8185 8189 8189 8188 8190 8189 8189 8189 8195 8187 8191 8190 8187 8189 8185 8186 8187 8183 8184 8181 8180 8178 8174 8172 
8178 8183 8185 8181 8185 8187 8189 8188 8189 8189 8191 8191 8190 8190 8191 8192 8191 8190 8189 8187 8188 8185 8157 8139 8137 8135 8146 8175 8149 8139 8142 8143 8139 8136 8135 8137 8139 8136 8136 8135 8132 8133 8130 8128 8134 8142 8140 8133 8134 8135 8143 8155 8152 8151 8153 8197 8191 8188 8190 8190 8188 8188 8187 8190 8190 8190 8191 8188 8191 8186 8186 8186 8186 8185 8185 8180 8181 8181 8173 8173 
8183 8180 8188 8186 8188 8188 8191 8190 8189 8189 8192 8191 8193 8190 8191 8191 8189 8192 8188 8190 8187 8189 8184 8152 8136 8134 8141 8142 8139 8137 8140 8137 8142 8140 8138 8152 8144 8136 8137 8138 8137 8136 8145 8139 8139 8141 8138 8132 8136 8134 8145 8145 8141 8148 8151 8202 8191 8187 8190 8190 8188 8189 8189 8191 8189 8190 8190 8187 8189 8187 8188 8186 8184 8184 8185 8184 8180 8182 8173 8176 
8181 8183 8187 8188 8192 8191 8194 8190 8188 8191 8193 8193 8192 8193 8194 8194 8192 8193 8192 8191 8189 8188 8193 8183 8151 8139 8141 8137 8140 8142 8144 8146 8146 8141 8138 8151 8148 8138 8136 8134 8138 8144 8147 8135 8141 8140 8134 8133 8138 8134 8139 8141 8140 8146 8151 8193 8197 8190 8192 8189 8190 8188 8191 8191 8191 8191 8189 8189 8188 8189 8187 8189 8186 8186 8185 8182 8183 8183 8175 8176 
8183 8184 8189 8190 8189 8190 8192 8192 8191 8191 8197 8196 8194 8194 8195 8193 8192 8194 8190 8189 8189 8189 8193 8191 8184 8151 8144 8139 8143 8149 8150 8150 8145 8136 8136 8134 8156 8155 8143 8135 8140 8143 8153 8140 8140 8136 8137 8141 8140 8143 8149 8144 8143 8147 8152 8178 8185 8188 8193 8189 8189 8188 8187 8194 8192 8188 8191 8192 8190 8189 8190 8189 8187 8185 8187 8183 8183 8183 8178 8177 
8184 8185 8192 8189 8192 8189 8190 8189 8187 8190 8195 8194 8194 8194 8193 8194 8192 8194 8191 8190 8191 8192 8194 8192 8192 8185 8155 8138 8141 8148 8149 8154 8146 8138 8139 8139 8154 8166 8153 8141 8144 8148 8156 8156 8139 8137 8139 8142 8139 8143 8157 8156 8146 8149 8153 8153 8162 8185 8191 8192 8192 8193 8190 8194 8191 8189 8191 8192 8190 8190 8187 8187 8187 8188 8190 8186 8184 8185 8178 8182 
8183 8188 8190 8191 8196 8192 8193 8190 8189 8189 8196 8194 8195 8194 8194 8193 8194 8194 8193 8190 8191 8196 8196 8192 8194 8193 8183 8152 8143 8143 8146 8156 8157 8142 8146 8143 8155 8164 8157 8153 8158 8152 8156 8164 8153 8142 8145 8142 8141 8149 8162 8162 8146 8151 8147 8150 8155 8185 8190 8189 8191 8190 8188 8193 8196 8194 8194 8196 8188 8189 8189 8191 8186 8188 8190 8189 8189 8186 8186 8178 
8187 8191 8195 8191 8196 8195 8193 8192 8193 8190 8194 8195 8196 8194 8196 8190 8193 8193 8192 8191 8192 8191 8197 8195 8194 8194 8194 8159 8141 8144 8147 8149 8160 8155 8156 8152 8155 8160 8162 8160 8162 8158 8161 8159 8156 8149 8155 8159 8146 8162 8168 8163 8156 8155 8150 8158 8160 8185 8192 8189 8190 8189 8191 8195 8196 8192 8195 8191 8191 8191 8190 8193 8189 8185 8191 8188 8187 8189 8186 8183 
8187 8190 8196 8195 8194 8191 8194 8195 8192 8192 8194 8193 8195 8195 8192 8194 8189 8194 8194 8192 8192 8192 8193 8199 8195 8195 8196 8170 8148 8149 8152 8151 8164 8162 8163 8161 8158 8161 8164 8156 8164 8159 8158 8160 8156 8158 8155 8162 8160 8168 8162 8153 8151 8160 8158 8155 8165 8188 8189 8192 8192 8191 8191 8196 8192 8195 8197 8192 8194 8190 8189 8193 8193 8191 8192 8190 8187 8189 8189 8184 
8190 8193 8196 8192 8195 8191 8193 8191 8192 8191 8193 8194 8194 8193 8195 8191 8188 8195 8194 8190 8193 8193 8196 8195 8195 8195 8194 8181 8151 8153 8159 8164 8166 8168 8166 8164 8162 8162 8168 8164 8171 8168 8167 8166 8166 8164 8163 8161 8159 8162 8158 8153 8158 8157 8165 8158 8174 8190 8195 8193 8193 8192 8193 8192 8192 8192 8194 8190 8192 8193 8191 8194 8193 8189 8192 8188 8190 8193 8187 8186 
8192 8193 8199 8197 8197 8195 8192 8191 8192 8192 8195 8193 8192 8194 8194 8196 8194 8195 8192 8191 8197 8195 8199 8198 8196 8195 8195 8191 8160 8154 8157 8164 8167 8166 8168 8165 8167 8171 8170 8165 8168 8167 8166 8166 8163 8163 8168 8165 8161 8162 8161 8156 8158 8156 8149 8151 8185 8191 8194 8192 8189 8196 8193 8194 8192 8192 8195 8191 8192 8194 8192 8195 8195 8191 8191 8190 8192 8197 8190 8183 
8194 8192 8197 8194 8195 8194 8193 8193 8192 8192 8198 8197 8198 8195 8195 8194 8194 8191 8192 8189 8195 8197 8197 8196 8196 8196 8197 8197 8166 8153 8156 8165 8169 8169 8170 8171 8172 8174 8169 8160 8164 8161 8159 8158 8159 8161 8165 8164 8165 8158 8156 8162 8165 8157 8147 8165 8187 8193 8192 8192 8193 8194 8192 8194 8196 8194 8196 8192 8193 8193 8189 8192 8191 8194 8196 8190 8193 8193 8191 8187 
8195 8194 8196 8195 8196 8196 8196 8195 8195 8196 8194 8198 8195 8193 8194 8193 8189 8191 8192 8193 8194 8198 8198 8197 8198 8196 8196 8195 8168 8156 8154 8158 8165 8168 8171 8174 8173 8175 8169 8164 8167 8165 8158 8160 8161 8162 8166 8167 8164 8159 8160 8160 8162 8154 8154 8186 8192 8191 8193 8195 8191 8191 8195 8196 8196 8194 8193 8196 8195 8195 8189 8195 8192 8193 8195 8191 8193 8194 8192 8187 
8194 8194 8199 8194 8194 8194 8194 8194 8193 8192 8195 8196 8192 8193 8192 8193 8191 8192 8189 8191 8195 8198 8199 8196 8198 8198 8196 8194 8167 8159 8153 8154 8166 8168 8174 8177 8175 8177 8177 8177 8175 8167 8164 8164 8168 8167 8171 8174 8168 8163 8162 8161 8158 8151 8184 8193 8195 8191 8195 8195 8193 8192 8192 8195 8195 8197 8194 8192 8197 8192 8192 8194 8194 8193 8196 8194 8193 8192 8190 8190 
8191 8194 8196 8196 8196 8196 8194 8195 8190 8190 8195 8198 8195 8196 8194 8193 8192 8194 8191 8189 8195 8196 8198 8200 8197 8198 8199 8195 8172 8161 8163 8155 8156 8167 8174 8173 8179 8180 8182 8176 8180 8176 8173 8169 8171 8175 8174 8170 8169 8167 8161 8157 8154 8175 8195 8196 8194 8194 8194 8194 8192 8193 8194 8195 8194 8193 8193 8193 8195 8192 8191 8198 8195 8195 8193 8195 8192 8193 8190 8189 
8189 8193 8195 8192 8198 8196 8195 8194 8195 8195 8195 8198 8195 8194 8196 8196 8193 8193 8190 8188 8195 8195 8199 8195 8197 8198 8197 8199 8184 8164 8167 8169 8157 8157 8164 8165 8175 8178 8181 8181 8177 8176 8173 8167 8170 8175 8173 8172 8170 8167 8158 8156 8165 8190 8195 8196 8194 8197 8195 8195 8196 8194 8194 8197 8194 8191 8194 8193 8195 8193 8194 8198 8195 8191 8195 8192 8193 8195 8193 8193 
8193 8193 8195 8193 8194 8194 8195 8194 8195 8194 8197 8199 8196 8194 8196 8195 8190 8193 8192 8194 8195 8195 8196 8196 8198 8199 8202 8199 8194 8166 8165 8171 8173 8160 8152 8150 8161 8176 8185 8180 8177 8179 8172 8169 8174 8171 8174 8172 8167 8159 8155 8163 8178 8198 8199 8193 8194 8193 8194 8194 8194 8193 8192 8195 8194 8194 8194 8191 8192 8191 8193 8197 8193 8194 8198 8195 8193 8195 8190 8193 
8195 8196 8199 8195 8194 8198 8196 8196 8194 8195 8196 8197 8198 8196 8195 8196 8193 8192 8190 8191 8197 8196 8198 8195 8199 8199 8200 8198 8199 8175 8164 8167 8174 8173 8169 8163 8158 8166 8175 8176 8181 8175 8170 8168 8168 8169 8169 8164 8165 8170 8173 8168 8182 8202 8200 8198 8193 8194 8194 8193 8195 8195 8193 8195 8195 8198 8197 8192 8193 8191 8193 8197 8193 8189 8195 8194 8196 8197 8190 8192 
8193 8195 8198 8198 8197 8196 8197 8195 8193 8195 8197 8200 8197 8194 8195 8195 8193 8194 8192 8190 8194 8194 8198 8198 8201 8200 8201 8201 8204 8197 8164 8162 8176 8179 8176 8173 8169 8167 8164 8166 8165 8161 8159 8163 8159 8166 8168 8174 8177 8178 8166 8170 8196 8200 8200 8197 8194 8193 8191 8194 8193 8195 8193 8192 8191 8194 8195 8192 8194 8191 8192 8195 8193 8193 8194 8191 8194 8198 8191 8190 
8193 8195 8198 8195 8198 8200 8195 8197 8196 8197 8198 8198 8194 8195 8193 8193 8194 8195 8194 8193 8197 8198 8201 8198 8201 8201 8201 8200 8202 8200 8187 8161 8166 8178 8179 8172 8176 8177 8181 8176 8176 8175 8174 8174 8177 8178 8180 8180 8177 8171 8171 8194 8201 8206 8199 8198 8193 8194 8194 8192 8193 8193 8194 8196 8192 8194 8192 8193 8195 8195 8191 8194 8191 8195 8193 8190 8192 8194 8188 8194 
8192 8191 8198 8198 8199 8198 8197 8196 8196 8197 8196 8199 8199 8195 8197 8196 8195 8197 8191 8192 8197 8198 8205 8198 8200 8201 8203 8202 8203 8203 8201 8184 8159 8167 8178 8176 8173 8171 8176 8182 8180 8181 8181 8179 8178 8180 8178 8179 8171 8171 8192 8201 8205 8199 8200 8196 8195 8195 8195 8195 8195 8197 8196 8195 8192 8193 8195 8195 8192 8193 8191 8190 8195 8192 8195 8192 8194 8193 8188 8189 
8192 8190 8196 8199 8198 8195 8197 8196 8195 8197 8197 8197 8197 8196 8197 8197 8196 8199 8195 8193 8198 8203 8203 8201 8201 8204 8201 8201 8203 8205 8204 8198 8189 8168 8167 8172 8174 8177 8176 8174 8174 8174 8173 8174 8175 8173 8177 8174 8178 8190 8201 8203 8204 8203 8196 8196 8194 8195 8198 8195 8197 8195 8195 8196 8195 8195 8195 8193 8194 8192 8194 8195 8193 8192 8193 8194 8193 8192 8188 8185 
8192 8198 8199 8199 8197 8196 8195 8197 8195 8194 8197 8197 8196 8197 8197 8197 8194 8197 8194 8195 8199 8199 8201 8203 8203 8204 8199 8201 8206 8205 8207 8204 8205 8198 8182 8166 8164 8172 8175 8173 8177 8176 8176 8176 8173 8169 8173 8185 8198 8204 8204 8203 8202 8201 8200 8197 8194 8194 8195 8194 8196 8196 8195 8197 8194 8195 8196 8195 8195 8193 8194 8193 8193 8191 8195 8190 8192 8192 8184 8189 
8196 8197 8201 8196 8198 8196 8195 8195 8194 8198 8195 8198 8198 8195 8195 8199 8195 8197 8196 8194 8198 8201 8205 8203 8202 8200 8202 8202 8205 8207 8210 8206 8204 8204 8204 8197 8182 8176 8170 8164 8166 8167 8169 8172 8178 8191 8200 8206 8205 8205 8201 8206 8202 8202 8200 8198 8198 8194 8197 8194 8197 8199 8195 8199 8196 8194 8196 8194 8195 8197 8193 8194 8196 8197 8196 8191 8192 8194 8188 8191 
8197 8197 8197 8198 8194 8194 8197 8197 8196 8195 8198 8200 8198 8196 8197 8197 8195 8199 8196 8194 8200 8200 8204 8203 8206 8201 8202 8203 8206 8208 8213 8208 8205 8207 8207 8205 8202 8202 8200 8198 8196 8196 8203 8204 8205 8209 8206 8206 8207 8210 8204 8206 8204 8200 8199 8198 8196 8197 8198 8200 8200 8199 8197 8198 8195 8196 8198 8195 8197 8195 8193 8195 8193 8194 8195 8192 8193 8193 8190 8188 
8196 8195 8199 8197 8198 8195 8199 8196 8195 8195 8198 8197 8198 8197 8195 8197 8195 8199 8193 8196 8201 8200 8202 8202 8203 8203 8204 8203 8205 8208 8210 8208 8207 8208 8211 8208 8205 8206 8206 8207 8206 8208 8209 8208 8212 8213 8209 8209 8208 8206 8206 8205 8205 8205 8202 8200 8197 8197 8200 8197 8197 8197 8196 8197 8198 8197 8194 8194 8195 8195 8195 8196 8196 8196 8194 8195 8193 8193 8187 8189 
8196 8196 8202 8196 8199 8197 8197 8198 8196 8197 8201 8201 8200 8197 8201 8200 8196 8199 8195 8196 8199 8198 8203 8204 8203 8203 8206 8204 8208 8209 8211 8206 8213 8210 8209 8205 8206 8208 8211 8206 8212 8211 8207 8209 8210 8214 8216 8213 8210 8209 8209 8207 8208 8206 8203 8202 8199 8200 8199 8198 8194 8198 8198 8200 8197 8197 8195 8196 8196 8198 8195 8199 8198 8194 8197 8192 8197 8196 8189 8190 
8196 8198 8201 8201 8197 8198 8200 8200 8194 8195 8201 8200 8198 8198 8201 8199 8200 8200 8196 8196 8200 8201 8204 8206 8207 8205 8204 8205 8207 8212 8212 8210 8208 8211 8214 8207 8206 8211 8214 8209 8210 8213 8212 8212 8214 8215 8216 8219 8210 8211 8211 8210 8208 8208 8204 8202 8201 8201 8198 8200 8198 8198 8195 8198 8198 8196 8196 8194 8198 8195 8193 8197 8197 8194 8198 8194 8197 8199 8186 8188 
8195 8200 8204 8201 8199 8199 8198 8197 8199 8198 8201 8200 8198 8197 8202 8200 8201 8200 8198 8198 8200 8201 8202 8203 8205 8204 8204 8205 8208 8213 8213 8212 8213 8215 8211 8209 8211 8211 8212 8210 8211 8213 8215 8212 8213 8214 8218 8218 8215 8212 8213 8213 8209 8209 8208 8204 8203 8201 8203 8199 8200 8201 8199 8199 8199 8197 8198 8199 8197 8198 8198 8197 8197 8197 8196 8195 8198 8198 8193 8190 
8195 8200 8205 8201 8201 8201 8196 8198 8200 8197 8202 8203 8202 8201 8201 8200 8198 8199 8199 8195 8200 8199 8203 8201 8204 8202 8205 8206 8206 8210 8210 8213 8210 8211 8212 8212 8210 8213 8211 8210 8212 8216 8213 8212 8213 8216 8219 8219 8215 8214 8213 8214 8213 8212 8209 8208 8203 8202 8202 8202 8199 8201 8198 8199 8199 8196 8197 8196 8198 8198 8195 8199 8197 8195 8199 8195 8197 8197 8192 8191 
8198 8203 8205 8197 8196 8194 8196 8197 8195 8196 8199 8202 8198 8199 8201 8199 8200 8199 8195 8197 8197 8197 8204 8204 8203 8204 8203 8203 8206 8211 8214 8212 8212 8211 8209 8209 8208 8212 8212 8210 8209 8211 8214 8209 8213 8213 8216 8218 8215 8213 8212 8215 8211 8212 8208 8206 8204 8201 8202 8202 8201 8198 8198 8199 8197 8196 8198 8196 8201 8196 8198 8194 8199 8196 8199 8196 8200 8197 8192 8188 
8199 8199 8201 8200 8194 8192 8196 8197 8196 8196 8197 8199 8195 8198 8200 8198 8200 8201 8193 8193 8198 8197 8199 8202 8201 8203 8203 8203 8203 8206 8210 8209 8209 8210 8209 8208 8209 8213 8214 8210 8212 8211 8213 8208 8214 8215 8217 8218 8215 8210 8214 8215 8212 8213 8210 8208 8207 8203 8204 8201 8201 8202 8196 8199 8200 8199 8202 8196 8199 8197 8195 8196 8197 8195 8196 8197 8201 8197 8194 8197 
8203 8200 8200 8194 8191 8196 8194 8193 8194 8193 8198 8199 8198 8198 8196 8199 8197 8200 8194 8192 8197 8198 8200 8199 8201 8202 8201 8202 8207 8206 8208 8211 8212 8211 8208 8206 8209 8210 8215 8212 8210 8211 8212 8213 8212 8214 8217 8220 8214 8214 8213 8217 8213 8211 8208 8211 8207 8204 8206 8205 8204 8204 8202 8204 8201 8202 8201 8198 8201 8198 8195 8196 8197 8198 8201 8199 8196 8203 8201 8198 
8207 8205 8202 8195 8196 8190 8194 8191 8189 8191 8195 8198 8198 8198 8200 8197 8195 8197 8196 8191 8199 8196 8199 8198 8200 8199 8201 8203 8206 8206 8211 8210 8209 8212 8210 8204 8209 8211 8214 8210 8211 8212 8210 8210 8214 8214 8217 8216 8212 8218 8215 8216 8215 8215 8211 8210 8208 8206 8207 8206 8206 8207 8204 8202 8203 8202 8200 8199 8199 8196 8192 8198 8197 8201 8200 8199 8200 8201 8196 8195 
8210 8206 8202 8195 8192 8194 8193 8190 8193 8193 8197 8194 8197 8197 8199 8199 8195 8200 8196 8191 8197 8197 8201 8197 8202 8201 8200 8197 8202 8202 8209 8207 8207 8211 8205 8199 8195 8209 8208 8209 8211 8213 8211 8207 8211 8211 8205 8208 8212 8217 8217 8218 8216 8216 8211 8215 8209 8208 8209 8209 8211 8210 8206 8209 8207 8203 8203 8201 8202 8199 8195 8193 8198 8200 8201 8198 8205 8202 8195 8196 


