P2
80 60
8210
8152 8155 8150 8151 8147 8149 8148 8153 8152 8157 8156 8151 8153 8153 8152 8152 8148 8154 8156 8157 8157 8159 8159 8158 8159 8160 8156 8157 8158 8160 8160 8158 8156 8163 8163 8157 8158 8159 8161 8166 8168 8163 8166 8169 8167 8166 8168 8163 8162 8166 8164 8163 8163 8163 8162 8160 8162 8166 8163 8161 8164 8165 8166 8169 8165 8169 8169 8167 8166 8166 8167 8169 8169 8167 8168 8170 8170 8170 8164 8165 
8149 8152 8148 8154 8155 8150 8150 8153 8153 8155 8154 8154 8155 8154 8154 8152 8151 8155 8158 8156 8158 8158 8160 8157 8161 8159 8157 8156 8159 8159 8163 8159 8159 8160 8162 8160 8161 8158 8161 8172 8166 8164 8164 8167 8166 8167 8165 8163 8160 8165 8167 8164 8164 8161 8162 8160 8161 8162 8163 8160 8162 8167 8166 8167 8166 8168 8169 8167 8166 8165 8167 8170 8169 8168 8170 8170 8169 8170 8163 8167 
8151 8154 8144 8149 8151 8148 8149 8157 8153 8157 8155 8150 8153 8154 8149 8153 8151 8153 8158 8158 8159 8159 8156 8159 8160 8161 8159 8158 8158 8159 8159 8158 8162 8163 8164 8164 8159 8159 8163 8171 8172 8167 8171 8171 8168 8171 8172 8164 8165 8169 8173 8166 8163 8163 8167 8164 8162 8163 8159 8159 8165 8163 8166 8164 8163 8164 8169 8166 8164 8164 8165 8173 8173 8168 8168 8168 8173 8170 8163 8166 
8153 8154 8148 8152 8152 8145 8146 8152 8153 8154 8155 8153 8153 8154 8151 8155 8153 8157 8157 8156 8158 8160 8160 8160 8166 8162 8159 8160 8165 8164 8166 8167 8167 8171 8171 8171 8175 8174 8180 8180 8188 8183 8182 8180 8178 8182 8179 8178 8174 8174 8175 8175 8169 8168 8164 8165 8162 8163 8159 8160 8162 8166 8165 8164 8162 8167 8168 8171 8165 8164 8166 8169 8172 8168 8170 8168 8172 8170 8165 8163 
8150 8157 8150 8150 8147 8145 8146 8151 8148 8151 8153 8150 8151 8153 8151 8154 8156 8157 8161 8157 8161 8164 8164 8163 8168 8167 8167 8169 8175 8173 8177 8177 8176 8182 8184 8181 8183 8186 8184 8186 8187 8188 8187 8184 8181 8187 8183 8183 8179 8182 8184 8180 8174 8168 8168 8165 8161 8164 8160 8159 8164 8162 8163 8163 8167 8173 8171 8168 8167 8164 8169 8168 8171 8166 8168 8171 8169 8164 8161 8162 
8153 8157 8147 8153 8147 8148 8149 8151 8149 8153 8156 8151 8152 8153 8152 8156 8155 8161 8170 8167 8168 8172 8170 8170 8174 8173 8175 8174 8179 8176 8178 8182 8183 8187 8189 8185 8191 8190 8189 8189 8195 8191 8187 8189 8185 8186 8188 8183 8181 8184 8187 8180 8181 8174 8171 8169 8163 8165 8163 8164 8166 8169 8165 8166 8165 8170 8165 8166 8168 8166 8166 8166 8170 8167 8170 8171 8167 8168 8162 8163 
8153 8153 8149 8150 8151 8147 8151 8150 8151 8156 8153 8149 8151 8158 8156 8158 8162 8168 8173 8173 8174 8173 8173 8172 8177 8174 8175 8175 8177 8181 8181 8181 8183 8187 8186 8188 8193 8191 8188 8194 8194 8192 8189 8192 8187 8188 8191 8187 8187 8186 8187 8181 8182 8176 8172 8169 8167 8167 8167 8167 8165 8167 8167 8168 8165 8168 8165 8167 8170 8165 8167 8165 8170 8169 8168 8171 8168 8163 8158 8155 
8154 8154 8149 8150 8149 8146 8149 8155 8152 8154 8156 8151 8154 8156 8154 8161 8163 8175 8176 8176 8174 8177 8172 8176 8178 8176 8176 8174 8177 8182 8183 8183 8186 8189 8192 8192 8193 8193 8192 8192 8200 8197 8194 8193 8190 8193 8193 8188 8187 8189 8190 8187 8186 8180 8175 8173 8168 8171 8167 8167 8168 8165 8168 8167 8168 8168 8167 8167 8167 8163 8166 8167 8169 8167 8170 8167 8165 8165 8157 8161 
8154 8158 8153 8155 8156 8149 8153 8155 8159 8160 8155 8154 8156 8158 8160 8165 8169 8173 8181 8179 8177 8179 8179 8180 8182 8182 8178 8177 8180 8182 8181 8186 8185 8194 8199 8195 8196 8196 8195 8197 8199 8202 8196 8192 8193 8195 8196 8192 8193 8193 8195 8190 8188 8181 8176 8175 8173 8173 8170 8169 8167 8165 8169 8168 8165 8169 8169 8174 8167 8170 8167 8167 8167 8166 8169 8169 8164 8166 8158 8160 
8153 8156 8155 8159 8159 8158 8160 8163 8162 8169 8167 8169 8165 8169 8171 8172 8173 8179 8181 8183 8182 8182 8182 8186 8184 8179 8180 8179 8182 8181 8185 8185 8191 8193 8199 8196 8198 8198 8197 8197 8203 8198 8197 8194 8196 8193 8197 8194 8189 8192 8195 8191 8187 8179 8179 8178 8176 8177 8175 8168 8169 8170 8171 8167 8164 8171 8170 8171 8173 8170 8172 8167 8164 8167 8165 8165 8166 8166 8156 8157 
8153 8157 8156 8156 8161 8165 8163 8168 8171 8172 8171 8173 8168 8169 8170 8171 8174 8180 8183 8182 8185 8183 8183 8183 8186 8181 8177 8181 8180 8183 8184 8185 8190 8195 8197 8197 8198 8199 8198 8197 8199 8197 8200 8197 8193 8192 8195 8193 8191 8189 8194 8191 8187 8184 8178 8179 8177 8177 8174 8170 8171 8170 8170 8168 8166 8171 8168 8168 8168 8168 8169 8169 8161 8164 8165 8168 8165 8165 8155 8158 
8153 8160 8154 8159 8164 8162 8168 8175 8173 8174 8172 8172 8173 8174 8174 8173 8175 8178 8182 8180 8183 8185 8186 8181 8182 8181 8180 8182 8180 8183 8186 8188 8189 8194 8198 8193 8198 8197 8198 8197 8201 8202 8200 8198 8192 8193 8193 8190 8194 8192 8194 8193 8190 8184 8182 8182 8177 8178 8175 8172 8175 8176 8175 8169 8170 8173 8168 8170 8170 8166 8166 8167 8164 8162 8162 8165 8162 8166 8159 8161 
8158 8163 8155 8164 8164 8169 8171 8176 8171 8175 8173 8170 8171 8174 8176 8177 8176 8179 8184 8182 8185 8184 8185 8184 8182 8180 8181 8180 8184 8186 8188 8188 8190 8194 8195 8195 8201 8196 8197 8197 8201 8201 8202 8197 8198 8196 8196 8193 8191 8193 8195 8197 8195 8187 8183 8182 8177 8181 8178 8177 8180 8177 8175 8175 8171 8175 8173 8174 8166 8166 8166 8168 8164 8162 8161 8165 8161 8167 8158 8161 
8159 8160 8162 8162 8169 8172 8173 8175 8172 8176 8171 8176 8172 8173 8177 8176 8176 8181 8184 8181 8184 8185 8186 8183 8185 8183 8179 8181 8183 8185 8188 8188 8190 8195 8198 8196 8201 8197 8199 8200 8202 8205 8202 8196 8196 8200 8201 8194 8194 8193 8197 8195 8193 8188 8186 8187 8181 8180 8181 8180 8181 8177 8180 8179 8174 8179 8177 8173 8171 8167 8170 8170 8170 8164 8162 8164 8169 8168 8161 8165 
8157 8160 8161 8164 8167 8171 8171 8171 8170 8174 8172 8173 8174 8175 8175 8175 8174 8177 8181 8181 8183 8184 8186 8179 8183 8179 8182 8181 8184 8185 8188 8189 8192 8196 8197 8196 8202 8199 8198 8199 8201 8200 8196 8196 8194 8199 8196 8192 8190 8192 8193 8192 8189 8188 8184 8184 8180 8183 8179 8180 8180 8180 8180 8178 8176 8176 8175 8175 8175 8170 8174 8169 8170 8163 8165 8164 8168 8167 8161 8160 
8160 8162 8159 8166 8169 8175 8173 8174 8169 8175 8172 8173 8173 8174 8178 8178 8177 8178 8182 8186 8181 8185 8184 8181 8182 8181 8183 8183 8185 8188 8186 8191 8194 8195 8195 8195 8200 8196 8199 8198 8203 8199 8198 8198 8196 8196 8198 8195 8192 8193 8194 8191 8189 8186 8183 8183 8180 8181 8182 8177 8179 8181 8183 8184 8182 8180 8177 8180 8177 8175 8175 8172 8171 8165 8163 8165 8162 8166 8163 8163 
8161 8164 8164 8169 8172 8173 8172 8175 8174 8181 8174 8170 8172 8177 8179 8182 8181 8183 8184 8185 8186 8186 8186 8186 8186 8187 8184 8186 8188 8187 8189 8191 8193 8197 8195 8195 8198 8197 8198 8201 8204 8201 8200 8199 8198 8197 8197 8192 8190 8195 8195 8193 8188 8186 8183 8184 8179 8182 8183 8181 8183 8185 8185 8186 8179 8184 8179 8182 8181 8178 8177 8176 8176 8177 8168 8168 8166 8168 8163 8164 
8164 8168 8168 8173 8174 8172 8173 8173 8175 8176 8177 8174 8176 8180 8181 8181 8180 8187 8185 8187 8187 8186 8189 8187 8190 8186 8186 8185 8188 8191 8193 8192 8194 8198 8198 8193 8194 8193 8196 8197 8201 8199 8201 8197 8197 8195 8196 8194 8189 8193 8194 8190 8186 8188 8187 8184 8178 8184 8184 8183 8185 8181 8183 8185 8181 8188 8182 8183 8180 8179 8178 8180 8181 8177 8177 8178 8170 8167 8159 8162 
8168 8170 8169 8173 8178 8173 8175 8176 8174 8180 8177 8175 8177 8179 8183 8180 8179 8182 8185 8183 8184 8185 8184 8183 8187 8187 8184 8186 8186 8190 8191 8193 8194 8198 8196 8190 8192 8191 8195 8195 8198 8196 8199 8196 8195 8193 8196 8195 8191 8192 8193 8189 8182 8188 8183 8183 8179 8185 8180 8186 8184 8185 8184 8184 8180 8185 8186 8183 8184 8179 8180 8182 8178 8179 8177 8177 8172 8167 8160 8163 
8170 8173 8173 8176 8176 8176 8177 8174 8175 8183 8181 8178 8178 8180 8179 8179 8179 8182 8182 8185 8184 8187 8185 8183 8189 8187 8185 8185 8188 8192 8192 8194 8192 8196 8195 8189 8192 8192 8195 8195 8195 8194 8201 8193 8196 8193 8193 8191 8192 8191 8190 8186 8187 8186 8183 8184 8178 8182 8184 8179 8181 8183 8184 8182 8180 8184 8185 8184 8184 8181 8182 8182 8182 8178 8179 8175 8175 8168 8159 8163 
8174 8180 8174 8178 8174 8176 8176 8178 8174 8181 8183 8178 8179 8183 8182 8183 8179 8181 8186 8183 8183 8187 8184 8187 8187 8185 8187 8186 8190 8194 8192 8193 8192 8196 8194 8192 8193 8190 8195 8197 8199 8193 8193 8192 8192 8192 8190 8193 8190 8188 8189 8187 8184 8184 8183 8185 8183 8182 8182 8182 8181 8181 8183 8182 8182 8185 8184 8182 8183 8179 8182 8179 8180 8181 8178 8179 8174 8172 8162 8164 
8173 8180 8176 8177 8177 8176 8180 8182 8178 8182 8180 8180 8179 8183 8183 8184 8181 8183 8187 8185 8187 8187 8185 8186 8188 8187 8186 8189 8189 8191 8192 8194 8192 8193 8195 8191 8195 8195 8197 8193 8192 8190 8192 8195 8190 8193 8193 8191 8190 8188 8191 8188 8183 8184 8185 8184 8179 8183 8183 8183 8182 8183 8186 8182 8183 8188 8184 8181 8179 8179 8180 8180 8178 8178 8177 8177 8174 8168 8161 8162 
8181 8182 8175 8177 8174 8174 8178 8182 8179 8186 8182 8182 8180 8184 8184 8183 8183 8186 8187 8186 8186 8185 8183 8185 8187 8187 8185 8187 8191 8191 8193 8194 8192 8195 8195 8191 8192 8187 8181 8177 8175 8173 8177 8180 8179 8186 8190 8188 8188 8189 8189 8188 8183 8186 8182 8183 8182 8183 8179 8179 8186 8185 8186 8183 8187 8186 8187 8184 8180 8179 8180 8179 8177 8174 8175 8176 8174 8166 8163 8165 
8180 8183 8178 8178 8175 8176 8178 8183 8182 8186 8184 8181 8181 8182 8183 8187 8183 8185 8189 8184 8184 8187 8184 8187 8190 8186 8186 8187 8192 8192 8193 8191 8191 8193 8184 8174 8168 8168 8165 8166 8165 8165 8163 8164 8163 8166 8174 8183 8188 8189 8190 8185 8187 8187 8184 8184 8184 8182 8186 8183 8182 8183 8184 8186 8183 8189 8185 8181 8180 8179 8177 8178 8179 8174 8173 8173 8170 8170 8160 8162 
8179 8180 8177 8179 8176 8177 8185 8186 8183 8187 8184 8182 8185 8186 8183 8187 8186 8186 8187 8186 8183 8184 8184 8188 8187 8190 8188 8190 8188 8194 8191 8190 8184 8175 8168 8162 8163 8168 8168 8168 8166 8169 8169 8166 8162 8161 8165 8163 8170 8182 8189 8190 8190 8188 8185 8187 8183 8188 8186 8184 8186 8183 8186 8185 8185 8187 8187 8187 8183 8181 8184 8178 8177 8173 8171 8173 8171 8170 8164 8159 
8180 8182 8178 8181 8177 8177 8184 8187 8184 8187 8186 8183 8189 8186 8189 8185 8189 8189 8188 8185 8187 8188 8187 8188 8188 8191 8190 8192 8191 8196 8194 8180 8165 8165 8162 8163 8167 8166 8165 8169 8170 8170 8167 8164 8165 8166 8164 8160 8155 8162 8187 8188 8188 8192 8187 8186 8184 8187 8185 8186 8189 8186 8187 8185 8183 8185 8189 8185 8185 8183 8183 8180 8179 8172 8174 8174 8171 8172 8162 8166 
8182 8184 8178 8180 8183 8179 8183 8187 8182 8190 8188 8187 8186 8186 8188 8189 8188 8189 8189 8187 8187 8189 8189 8184 8191 8190 8186 8187 8188 8195 8184 8161 8156 8162 8165 8162 8168 8164 8166 8164 8169 8169 8171 8168 8171 8168 8165 8162 8156 8153 8165 8187 8187 8189 8189 8186 8186 8190 8187 8187 8185 8188 8188 8186 8184 8186 8185 8183 8186 8182 8185 8188 8183 8176 8176 8174 8175 8173 8164 8165 
8180 8183 8181 8185 8179 8181 8183 8186 8185 8188 8188 8188 8187 8186 8188 8189 8187 8189 8186 8185 8186 8188 8190 8189 8189 8187 8190 8194 8193 8192 8165 8154 8156 8158 8165 8162 8165 8168 8173 8174 8167 8170 8169 8172 8179 8174 8170 8164 8156 8153 8160 8172 8184 8189 8189 8189 8184 8190 8187 8187 8184 8188 8188 8184 8182 8184 8185 8185 8182 8181 8185 8188 8185 8181 8178 8180 8178 8174 8167 8165 
8181 8184 8178 8185 8185 8183 8186 8192 8186 8190 8190 8190 8190 8190 8190 8189 8188 8190 8189 8188 8187 8191 8191 8190 8191 8191 8193 8193 8192 8174 8156 8155 8155 8164 8163 8167 8171 8165 8159 8160 8160 8158 8163 8171 8172 8178 8176 8163 8159 8149 8154 8160 8177 8186 8192 8191 8188 8188 8192 8186 8188 8187 8186 8188 8184 8186 8185 8188 8185 8182 8187 8185 8186 8181 8176 8174 8179 8176 8167 8168 
8186 8183 8182 8186 8183 8186 8189 8190 8193 8194 8191 8191 8192 8191 8190 8188 8191 8192 8190 8185 8188 8192 8191 8192 8197 8194 8194 8191 8184 8156 8157 8153 8158 8162 8167 8166 8160 8161 8163 8166 8165 8163 8165 8168 8158 8161 8167 8168 8162 8157 8154 8154 8171 8187 8188 8192 8189 8195 8191 8188 8187 8189 8184 8183 8184 8185 8184 8189 8186 8181 8184 8185 8183 8181 8177 8177 8176 8177 8170 8171 
8183 8188 8186 8186 8186 8185 8185 8189 8188 8192 8192 8190 8189 8190 8191 8189 8190 8190 8190 8187 8189 8191 8193 8191 8194 8191 8192 8191 8179 8157 8150 8155 8159 8164 8163 8155 8158 8164 8165 8160 8156 8155 8156 8165 8164 8158 8159 8168 8163 8161 8161 8154 8163 8182 8192 8194 8188 8192 8191 8186 8191 8188 8188 8187 8183 8188 8186 8184 8184 8184 8184 8182 8186 8180 8182 8177 8178 8178 8173 8175 
8188 8193 8183 8187 8184 8184 8186 8188 8183 8189 8191 8189 8190 8190 8191 8187 8189 8191 8190 8188 8189 8191 8192 8190 8192 8191 8192 8190 8171 8156 8152 8156 8160 8164 8156 8158 8157 8155 8153 8161 8159 8152 8151 8151 8155 8159 8156 8153 8159 8161 8161 8154 8159 8178 8189 8190 8188 8193 8188 8188 8187 8190 8189 8188 8187 8189 8189 8186 8184 8186 8187 8188 8183 8182 8182 8178 8182 8178 8172 8179 
8184 8190 8186 8187 8186 8185 8186 8191 8186 8190 8189 8191 8192 8191 8190 8188 8188 8192 8191 8190 8190 8189 8191 8192 8193 8195 8193 8191 8166 8155 8156 8157 8163 8159 8158 8159 8154 8151 8165 8172 8170 8157 8155 8153 8151 8157 8161 8151 8153 8164 8164 8155 8155 8176 8191 8191 8190 8192 8192 8190 8189 8188 8189 8187 8190 8189 8189 8188 8190 8188 8189 8188 8183 8184 8185 8182 8182 8183 8171 8179 
8190 8194 8188 8190 8188 8187 8189 8192 8189 8193 8192 8192 8191 8192 8192 8190 8189 8191 8193 8191 8191 8189 8192 8192 8193 8192 8192 8189 8162 8155 8155 8160 8159 8151 8155 8156 8149 8158 8168 8172 8169 8157 8155 8154 8154 8157 8161 8155 8149 8167 8162 8156 8155 8174 8190 8189 8190 8194 8194 8188 8188 8189 8191 8188 8188 8192 8189 8189 8189 8186 8188 8188 8187 8187 8185 8182 8188 8185 8176 8182 
8193 8192 8186 8190 8190 8186 8189 8189 8189 8193 8194 8191 8190 8192 8191 8191 8190 8191 8191 8191 8190 8191 8191 8192 8195 8193 8190 8188 8160 8153 8156 8157 8157 8152 8157 8148 8148 8159 8163 8161 8156 8156 8157 8155 8151 8146 8155 8152 8148 8159 8162 8155 8155 8172 8190 8191 8192 8193 8191 8189 8192 8194 8192 8190 8188 8190 8192 8191 8188 8186 8187 8192 8190 8186 8185 8184 8186 8188 8182 8184 
8191 8194 8185 8189 8190 8189 8190 8189 8190 8194 8192 8191 8189 8192 8190 8190 8190 8190 8193 8191 8192 8192 8192 8190 8194 8193 8193 8189 8170 8154 8154 8160 8157 8147 8151 8151 8148 8152 8149 8148 8150 8154 8158 8154 8148 8144 8151 8150 8145 8157 8162 8156 8158 8178 8190 8190 8190 8192 8189 8191 8189 8193 8192 8188 8189 8191 8190 8188 8186 8184 8189 8191 8189 8186 8184 8186 8188 8190 8182 8183 
8191 8192 8190 8189 8191 8187 8192 8193 8190 8192 8195 8188 8192 8191 8189 8189 8191 8189 8192 8190 8192 8194 8191 8192 8196 8193 8192 8192 8181 8154 8154 8161 8156 8144 8150 8153 8151 8148 8147 8148 8151 8152 8152 8150 8147 8145 8157 8153 8149 8157 8157 8153 8160 8184 8190 8193 8190 8192 8190 8189 8189 8191 8187 8190 8190 8190 8190 8190 8186 8186 8189 8191 8189 8187 8189 8186 8188 8189 8185 8182 
8191 8192 8189 8191 8191 8189 8190 8190 8192 8193 8193 8195 8193 8197 8190 8191 8188 8191 8194 8193 8195 8195 8196 8193 8197 8197 8197 8195 8190 8158 8153 8157 8159 8147 8147 8157 8147 8147 8146 8149 8151 8151 8149 8150 8144 8147 8156 8155 8152 8162 8159 8155 8164 8187 8191 8190 8189 8194 8192 8189 8191 8189 8190 8188 8190 8193 8192 8189 8188 8187 8190 8188 8188 8185 8187 8186 8188 8193 8186 8184 
8188 8194 8187 8192 8194 8189 8190 8192 8188 8197 8192 8191 8191 8189 8191 8189 8189 8189 8191 8191 8193 8195 8195 8194 8195 8196 8195 8194 8191 8176 8147 8151 8158 8152 8143 8150 8154 8146 8144 8146 8148 8145 8149 8147 8153 8153 8153 8148 8158 8164 8161 8151 8179 8193 8193 8195 8191 8195 8192 8189 8194 8190 8193 8191 8189 8192 8190 8189 8191 8189 8190 8192 8186 8189 8186 8189 8193 8192 8187 8189 
8192 8194 8189 8194 8191 8190 8191 8192 8193 8193 8190 8190 8190 8192 8193 8192 8189 8192 8192 8191 8191 8192 8193 8195 8193 8195 8198 8193 8192 8190 8157 8145 8155 8161 8149 8146 8150 8152 8150 8148 8148 8148 8155 8158 8161 8157 8154 8154 8159 8162 8152 8164 8190 8193 8196 8196 8193 8198 8195 8194 8190 8191 8193 8191 8190 8191 8188 8187 8188 8187 8189 8193 8190 8187 8185 8188 8192 8195 8189 8188 
8195 8192 8192 8190 8194 8189 8188 8195 8191 8192 8189 8190 8192 8189 8191 8190 8188 8188 8188 8188 8192 8192 8196 8192 8196 8194 8195 8195 8193 8192 8183 8152 8147 8159 8156 8146 8147 8150 8152 8156 8156 8156 8157 8157 8153 8153 8156 8161 8159 8154 8159 8184 8193 8192 8193 8194 8191 8196 8196 8193 8193 8191 8191 8191 8188 8191 8189 8192 8189 8186 8188 8190 8190 8184 8189 8183 8190 8190 8184 8182 
8190 8194 8187 8192 8192 8189 8188 8192 8190 8195 8191 8193 8192 8191 8192 8193 8187 8188 8191 8191 8192 8190 8193 8190 8196 8193 8194 8195 8195 8193 8192 8182 8150 8145 8156 8155 8153 8153 8151 8150 8151 8153 8152 8149 8152 8157 8160 8158 8151 8157 8182 8192 8195 8191 8193 8190 8192 8195 8193 8194 8192 8191 8189 8189 8188 8190 8193 8187 8186 8183 8190 8187 8186 8184 8187 8186 8187 8191 8181 8184 
8190 8192 8188 8187 8192 8190 8190 8190 8190 8196 8193 8190 8193 8195 8193 8190 8188 8190 8191 8189 8193 8192 8190 8188 8194 8195 8196 8193 8193 8194 8195 8185 8184 8162 8152 8157 8158 8159 8156 8157 8157 8157 8157 8158 8158 8159 8157 8155 8164 8183 8188 8195 8194 8194 8192 8191 8193 8194 8192 8188 8191 8190 8191 8192 8190 8191 8189 8190 8189 8188 8189 8188 8188 8185 8189 8186 8188 8188 8181 8182 
8190 8195 8188 8189 8190 8191 8189 8192 8191 8195 8194 8189 8190 8192 8188 8191 8189 8192 8191 8188 8191 8194 8192 8193 8197 8195 8193 8194 8198 8196 8198 8191 8187 8189 8179 8160 8154 8154 8156 8157 8156 8161 8157 8159 8155 8155 8163 8174 8182 8190 8194 8201 8195 8195 8192 8193 8193 8194 8189 8191 8192 8191 8191 8189 8191 8190 8190 8191 8190 8189 8188 8190 8190 8187 8186 8189 8189 8187 8182 8182 
8187 8193 8188 8190 8188 8189 8191 8192 8192 8195 8191 8193 8190 8191 8188 8189 8191 8193 8191 8190 8194 8195 8193 8195 8198 8195 8197 8194 8197 8195 8196 8196 8190 8197 8189 8186 8183 8171 8163 8159 8154 8155 8158 8163 8171 8178 8181 8188 8189 8193 8201 8195 8196 8194 8192 8192 8189 8194 8189 8189 8192 8191 8189 8190 8189 8188 8189 8187 8191 8188 8190 8187 8186 8185 8186 8185 8186 8185 8180 8184 
8190 8192 8188 8191 8195 8193 8190 8193 8189 8194 8192 8190 8193 8192 8192 8192 8189 8191 8193 8191 8195 8195 8195 8195 8197 8199 8195 8193 8193 8197 8194 8193 8194 8196 8193 8185 8188 8186 8186 8187 8185 8182 8184 8185 8185 8187 8188 8189 8190 8197 8197 8196 8198 8194 8191 8190 8187 8190 8191 8188 8193 8196 8190 8188 8185 8189 8189 8190 8190 8186 8189 8191 8189 8186 8181 8186 8185 8185 8180 8181 
8190 8191 8188 8194 8191 8189 8192 8190 8191 8191 8190 8191 8191 8196 8194 8190 8192 8192 8192 8192 8194 8198 8199 8195 8193 8196 8193 8195 8193 8195 8196 8195 8195 8196 8194 8190 8194 8192 8189 8190 8190 8186 8185 8186 8191 8189 8192 8193 8192 8193 8199 8197 8195 8192 8190 8189 8188 8190 8192 8189 8193 8193 8190 8194 8185 8191 8187 8190 8188 8186 8190 8189 8188 8189 8187 8183 8184 8183 8179 8180 
8190 8194 8191 8196 8192 8187 8193 8194 8193 8194 8190 8189 8191 8193 8191 8195 8190 8191 8194 8193 8194 8196 8195 8199 8195 8197 8196 8194 8194 8196 8198 8195 8198 8197 8196 8192 8193 8193 8195 8195 8192 8195 8193 8192 8195 8196 8195 8193 8196 8196 8196 8198 8196 8191 8192 8192 8188 8192 8194 8192 8191 8194 8192 8191 8186 8188 8189 8190 8190 8187 8192 8192 8190 8186 8186 8188 8189 8188 8180 8181 
8191 8196 8190 8191 8191 8187 8189 8193 8192 8194 8193 8193 8190 8194 8191 8192 8190 8192 8189 8189 8196 8194 8195 8198 8201 8196 8195 8195 8195 8195 8198 8201 8198 8199 8201 8196 8197 8197 8198 8198 8196 8199 8198 8198 8198 8196 8196 8198 8195 8199 8195 8194 8193 8190 8191 8194 8190 8193 8194 8193 8192 8188 8190 8192 8189 8190 8187 8189 8192 8189 8190 8190 8191 8187 8186 8186 8188 8186 8181 8182 
8191 8197 8193 8194 8191 8190 8189 8195 8192 8195 8195 8193 8193 8194 8191 8194 8193 8191 8193 8193 8192 8194 8199 8196 8202 8198 8196 8196 8196 8200 8199 8200 8196 8201 8197 8198 8196 8199 8197 8201 8200 8200 8203 8201 8203 8197 8201 8195 8196 8199 8197 8197 8194 8190 8194 8198 8193 8192 8194 8192 8197 8191 8192 8194 8188 8189 8192 8189 8188 8190 8191 8195 8190 8186 8187 8189 8187 8190 8183 8185 
8196 8199 8188 8192 8190 8191 8191 8195 8191 8194 8192 8193 8191 8192 8194 8193 8192 8191 8191 8192 8193 8199 8197 8199 8196 8196 8192 8196 8195 8198 8196 8198 8196 8204 8200 8197 8199 8200 8198 8199 8198 8203 8206 8204 8204 8199 8201 8198 8199 8198 8200 8201 8195 8196 8194 8198 8193 8196 8197 8189 8192 8195 8193 8189 8190 8190 8188 8188 8188 8191 8191 8191 8187 8187 8186 8187 8186 8186 8177 8182 
8195 8197 8195 8191 8190 8190 8191 8197 8191 8195 8196 8192 8192 8194 8196 8195 8192 8192 8192 8194 8195 8198 8200 8198 8197 8196 8195 8194 8195 8198 8199 8202 8196 8198 8199 8199 8197 8199 8200 8197 8203 8204 8200 8205 8204 8200 8200 8199 8196 8200 8199 8201 8197 8197 8195 8195 8191 8198 8197 8195 8194 8195 8193 8191 8189 8191 8189 8188 8193 8192 8200 8196 8188 8187 8189 8186 8185 8185 8181 8184 
8193 8198 8193 8196 8192 8189 8185 8198 8195 8195 8192 8192 8194 8194 8190 8191 8189 8193 8194 8193 8194 8195 8197 8197 8199 8196 8192 8195 8193 8200 8199 8201 8194 8198 8199 8196 8201 8204 8199 8199 8201 8206 8203 8202 8205 8201 8202 8201 8197 8198 8201 8201 8197 8197 8198 8198 8194 8197 8193 8193 8193 8193 8192 8191 8191 8191 8191 8194 8193 8192 8193 8191 8188 8185 8187 8186 8184 8185 8179 8184 
8198 8197 8193 8196 8193 8191 8192 8197 8197 8198 8194 8192 8196 8198 8195 8195 8192 8191 8197 8194 8196 8192 8197 8195 8198 8194 8194 8193 8194 8199 8202 8201 8198 8201 8199 8198 8199 8203 8199 8202 8204 8202 8207 8205 8204 8202 8206 8202 8200 8203 8205 8203 8200 8200 8199 8198 8193 8198 8194 8194 8195 8194 8192 8192 8193 8192 8190 8192 8194 8191 8197 8192 8188 8187 8185 8186 8183 8188 8181 8181 
8199 8197 8194 8196 8191 8189 8191 8197 8194 8196 8194 8192 8195 8195 8196 8193 8192 8192 8196 8189 8191 8192 8195 8195 8197 8192 8192 8193 8193 8194 8197 8198 8196 8199 8199 8199 8199 8201 8199 8203 8204 8203 8203 8203 8202 8202 8202 8204 8202 8201 8203 8204 8201 8199 8198 8200 8193 8198 8195 8194 8193 8195 8193 8188 8192 8191 8189 8190 8193 8189 8189 8190 8188 8184 8185 8182 8184 8187 8183 8185 
8194 8197 8192 8191 8189 8189 8190 8192 8193 8193 8193 8188 8192 8194 8192 8193 8191 8191 8190 8190 8191 8189 8194 8193 8197 8194 8192 8194 8194 8195 8199 8196 8195 8198 8199 8197 8199 8198 8200 8200 8198 8200 8202 8199 8201 8202 8201 8200 8201 8203 8202 8203 8199 8199 8198 8199 8194 8198 8193 8195 8192 8195 8193 8191 8189 8189 8189 8189 8190 8188 8189 8188 8186 8183 8184 8184 8186 8190 8182 8185 
8197 8197 8192 8193 8188 8187 8187 8193 8185 8194 8194 8190 8187 8196 8193 8192 8194 8193 8194 8192 8190 8190 8192 8192 8194 8192 8191 8189 8192 8197 8195 8194 8195 8199 8197 8195 8197 8196 8201 8199 8200 8198 8200 8197 8199 8201 8199 8200 8200 8202 8202 8205 8202 8197 8196 8198 8195 8197 8195 8193 8196 8195 8194 8193 8193 8194 8195 8189 8187 8190 8191 8191 8189 8183 8185 8185 8187 8187 8180 8190 
8197 8201 8189 8193 8187 8185 8185 8189 8185 8193 8192 8189 8191 8190 8197 8194 8190 8194 8192 8190 8191 8192 8194 8190 8194 8195 8191 8191 8192 8194 8196 8195 8195 8197 8197 8194 8195 8197 8200 8200 8198 8197 8198 8200 8199 8198 8201 8200 8200 8202 8206 8206 8201 8202 8196 8200 8196 8198 8195 8198 8196 8199 8195 8195 8194 8195 8194 8193 8189 8192 8191 8192 8189 8186 8185 8185 8187 8192 8183 8191 
8199 8199 8194 8189 8187 8187 8185 8184 8186 8194 8188 8190 8192 8195 8195 8192 8188 8191 8193 8193 8193 8192 8191 8191 8192 8193 8191 8188 8192 8192 8195 8194 8192 8199 8196 8193 8198 8200 8198 8200 8200 8200 8201 8201 8203 8202 8203 8203 8202 8204 8206 8206 8205 8203 8204 8204 8200 8201 8201 8199 8202 8205 8199 8195 8194 8195 8195 8195 8192 8192 8192 8190 8188 8187 8186 8191 8190 8189 8183 8189 
8204 8200 8190 8186 8186 8180 8181 8186 8185 8190 8185 8192 8190 8193 8189 8192 8190 8191 8193 8192 8191 8192 8190 8191 8196 8192 8188 8182 8187 8192 8197 8194 8196 8195 8193 8195 8196 8201 8199 8200 8205 8202 8200 8203 8202 8204 8205 8205 8204 8208 8210 8208 8206 8205 8204 8205 8202 8203 8206 8201 8203 8202 8201 8199 8193 8197 8193 8195 8195 8192 8193 8191 8192 8187 8187 8192 8194 8191 8185 8189 


