P2
80 60
8211
8146 8147 8146 8142 8145 8146 8145 8150 8145 8148 8148 8148 8150 8149 8150 8147 8147 8146 8148 8148 8154 8150 8147 8147 8150 8151 8158 8158 8158 8158 8155 8155 8158 8156 8157 8157 8160 8158 8162 8162 8162 8167 8167 8167 8172 8167 8166 8167 8164 8167 8162 8159 8161 8156 8157 8156 8157 8156 8157 8154 8155 8162 8161 8164 8160 8158 8163 8161 8163 8163 8164 8162 8166 8167 8167 8167 8164 8164 8162 8162 
8146 8147 8143 8145 8145 8150 8144 8145 8149 8150 8148 8148 8145 8146 8147 8147 8150 8148 8151 8152 8151 8151 8148 8150 8151 8149 8160 8158 8160 8161 8154 8155 8156 8153 8156 8156 8158 8156 8161 8167 8164 8164 8167 8170 8170 8168 8167 8165 8163 8165 8162 8159 8161 8157 8157 8156 8157 8157 8156 8157 8157 8160 8162 8161 8160 8159 8160 8162 8163 8160 8159 8167 8164 8167 8167 8168 8165 8162 8160 8161 
8145 8144 8145 8147 8147 8147 8143 8147 8148 8151 8149 8147 8146 8147 8149 8147 8150 8150 8151 8153 8150 8149 8149 8154 8153 8153 8162 8161 8161 8160 8156 8159 8157 8155 8158 8161 8160 8158 8163 8167 8169 8170 8168 8172 8172 8167 8166 8165 8167 8166 8164 8162 8162 8159 8158 8158 8158 8155 8156 8158 8159 8159 8159 8160 8162 8158 8165 8161 8160 8162 8161 8166 8164 8168 8170 8167 8165 8162 8160 8160 
8147 8146 8148 8144 8147 8148 8143 8145 8148 8147 8146 8147 8147 8149 8150 8150 8147 8150 8150 8150 8155 8151 8152 8153 8153 8156 8161 8163 8164 8164 8159 8162 8163 8160 8162 8163 8169 8171 8176 8180 8179 8182 8177 8177 8177 8173 8173 8177 8170 8172 8171 8168 8169 8164 8163 8158 8157 8159 8156 8155 8161 8158 8158 8162 8157 8157 8163 8160 8159 8162 8161 8164 8166 8165 8168 8169 8164 8165 8155 8159 
8152 8146 8147 8147 8146 8148 8146 8147 8143 8146 8148 8147 8145 8150 8148 8149 8152 8152 8153 8155 8152 8157 8155 8155 8158 8162 8171 8171 8176 8175 8168 8170 8173 8174 8175 8175 8182 8182 8185 8187 8185 8185 8184 8180 8179 8164 8161 8160 8160 8167 8170 8172 8172 8166 8161 8159 8161 8155 8157 8159 8163 8158 8161 8163 8164 8160 8162 8165 8161 8167 8163 8166 8168 8165 8168 8168 8161 8159 8155 8162 
8147 8148 8149 8147 8145 8146 8144 8146 8143 8145 8147 8150 8147 8147 8149 8150 8151 8155 8157 8158 8165 8161 8163 8158 8163 8166 8174 8174 8174 8176 8175 8175 8177 8177 8178 8175 8183 8182 8189 8184 8189 8186 8181 8159 8145 8138 8134 8130 8133 8139 8162 8169 8170 8167 8165 8164 8159 8156 8160 8155 8159 8159 8161 8161 8162 8162 8161 8162 8159 8165 8162 8164 8168 8165 8168 8166 8160 8156 8154 8159 
8146 8151 8147 8148 8146 8147 8146 8144 8147 8145 8146 8150 8149 8150 8149 8152 8157 8162 8162 8162 8167 8164 8162 8161 8164 8168 8173 8176 8179 8176 8170 8176 8178 8176 8180 8182 8186 8183 8186 8187 8187 8188 8177 8147 8141 8140 8147 8137 8132 8131 8131 8148 8171 8171 8166 8165 8163 8160 8161 8158 8162 8157 8161 8164 8164 8161 8165 8162 8162 8164 8161 8162 8168 8166 8166 8165 8162 8159 8153 8160 
8147 8145 8147 8145 8145 8145 8148 8148 8149 8149 8149 8150 8149 8151 8154 8157 8158 8166 8164 8165 8167 8168 8165 8163 8168 8170 8173 8177 8179 8178 8173 8177 8179 8178 8181 8184 8186 8187 8189 8191 8190 8181 8149 8134 8141 8161 8153 8149 8133 8130 8139 8158 8172 8174 8169 8169 8165 8162 8163 8161 8164 8161 8161 8162 8161 8163 8164 8166 8168 8164 8160 8160 8163 8165 8165 8163 8158 8157 8154 8156 
8146 8146 8146 8148 8151 8150 8152 8152 8152 8152 8151 8151 8151 8151 8151 8158 8160 8166 8169 8171 8168 8169 8172 8169 8170 8169 8178 8176 8175 8174 8173 8177 8181 8183 8185 8188 8192 8190 8194 8196 8192 8175 8142 8134 8132 8149 8148 8141 8136 8135 8135 8145 8166 8175 8171 8170 8165 8163 8165 8162 8161 8160 8161 8164 8162 8161 8165 8163 8164 8165 8161 8161 8162 8165 8167 8164 8159 8156 8151 8159 
8149 8147 8150 8152 8153 8154 8154 8157 8158 8158 8156 8161 8159 8155 8158 8164 8164 8170 8175 8174 8173 8173 8172 8171 8169 8172 8179 8178 8179 8177 8177 8178 8183 8185 8185 8188 8191 8190 8192 8195 8191 8191 8180 8159 8139 8158 8152 8172 8173 8170 8165 8171 8179 8177 8171 8171 8169 8169 8167 8163 8163 8164 8159 8161 8163 8164 8163 8167 8165 8163 8165 8161 8159 8164 8165 8164 8159 8155 8151 8152 
8152 8149 8148 8151 8154 8159 8160 8165 8160 8159 8162 8164 8162 8162 8163 8167 8170 8171 8171 8173 8174 8173 8173 8172 8172 8172 8179 8178 8182 8181 8179 8176 8184 8185 8189 8189 8188 8188 8191 8193 8188 8193 8190 8173 8139 8145 8167 8186 8189 8189 8188 8183 8180 8175 8173 8171 8169 8171 8170 8161 8167 8164 8165 8165 8164 8163 8166 8165 8165 8162 8164 8159 8159 8164 8164 8161 8159 8157 8152 8151 
8152 8151 8152 8158 8159 8162 8166 8168 8165 8164 8163 8164 8161 8164 8164 8168 8171 8172 8175 8174 8175 8173 8173 8172 8170 8171 8176 8179 8183 8182 8179 8181 8185 8183 8187 8186 8190 8189 8186 8175 8165 8172 8182 8153 8148 8142 8178 8189 8189 8194 8189 8186 8184 8175 8172 8172 8175 8170 8171 8165 8165 8166 8167 8168 8167 8165 8169 8165 8167 8165 8165 8160 8161 8161 8163 8162 8157 8156 8155 8155 
8152 8153 8154 8155 8159 8164 8168 8166 8166 8164 8164 8166 8165 8163 8166 8170 8172 8172 8174 8173 8176 8172 8174 8171 8169 8155 8154 8162 8176 8180 8178 8180 8185 8183 8187 8185 8187 8177 8158 8137 8134 8141 8172 8177 8175 8159 8182 8191 8191 8194 8190 8188 8184 8180 8173 8174 8171 8174 8171 8167 8170 8168 8167 8170 8167 8167 8169 8167 8165 8164 8163 8160 8161 8160 8160 8159 8158 8158 8155 8152 
8154 8154 8156 8158 8161 8168 8166 8168 8166 8164 8164 8164 8164 8165 8167 8169 8172 8174 8175 8174 8176 8175 8174 8170 8166 8148 8131 8133 8152 8180 8178 8185 8188 8183 8183 8181 8163 8138 8145 8147 8130 8145 8143 8136 8152 8154 8187 8192 8192 8189 8191 8186 8186 8179 8176 8175 8176 8171 8173 8168 8173 8168 8170 8170 8169 8164 8169 8166 8166 8167 8164 8159 8161 8159 8163 8157 8160 8156 8152 8155 
8156 8153 8157 8159 8162 8169 8165 8166 8166 8164 8163 8165 8166 8169 8169 8171 8172 8172 8172 8174 8175 8172 8175 8173 8168 8156 8136 8131 8147 8179 8178 8182 8185 8182 8180 8149 8132 8128 8135 8152 8145 8128 8127 8136 8166 8152 8187 8190 8189 8189 8189 8182 8182 8181 8177 8175 8177 8176 8175 8169 8175 8170 8176 8171 8172 8168 8170 8170 8167 8170 8164 8164 8164 8163 8163 8164 8161 8157 8153 8155 
8161 8157 8158 8158 8161 8169 8166 8167 8167 8165 8163 8165 8165 8166 8169 8172 8171 8173 8172 8175 8174 8175 8174 8168 8169 8162 8141 8137 8142 8180 8182 8183 8187 8186 8168 8130 8133 8143 8134 8136 8137 8130 8133 8131 8160 8150 8184 8185 8188 8191 8192 8183 8181 8177 8178 8175 8177 8175 8171 8172 8173 8172 8176 8176 8173 8171 8176 8170 8170 8171 8171 8166 8166 8163 8164 8159 8161 8159 8155 8156 
8162 8159 8159 8160 8164 8168 8166 8172 8170 8166 8167 8168 8166 8168 8170 8174 8174 8175 8174 8178 8178 8173 8173 8172 8173 8170 8147 8140 8143 8175 8182 8183 8189 8187 8168 8151 8168 8171 8137 8126 8129 8130 8147 8147 8143 8138 8148 8160 8176 8186 8186 8181 8183 8182 8180 8175 8178 8175 8172 8174 8175 8173 8174 8178 8177 8173 8174 8173 8170 8175 8171 8171 8166 8168 8165 8166 8162 8159 8158 8157 
8164 8162 8163 8164 8166 8171 8169 8168 8171 8168 8167 8168 8169 8171 8172 8174 8174 8176 8179 8180 8177 8176 8179 8174 8177 8175 8156 8141 8140 8169 8185 8184 8187 8186 8183 8176 8172 8141 8129 8126 8126 8127 8127 8140 8156 8125 8129 8131 8135 8153 8175 8182 8181 8179 8179 8177 8177 8175 8174 8175 8177 8176 8175 8176 8175 8174 8177 8176 8174 8177 8173 8171 8173 8171 8172 8170 8166 8159 8158 8166 
8165 8162 8163 8167 8169 8169 8169 8171 8171 8170 8169 8171 8172 8173 8175 8176 8177 8177 8175 8180 8177 8176 8181 8177 8179 8176 8162 8139 8136 8159 8183 8184 8183 8168 8149 8139 8139 8126 8125 8124 8123 8125 8128 8139 8133 8122 8127 8129 8129 8130 8144 8157 8159 8160 8169 8173 8174 8175 8174 8177 8178 8174 8175 8179 8175 8175 8177 8175 8175 8173 8174 8172 8170 8174 8176 8172 8165 8163 8163 8159 
8167 8166 8165 8167 8169 8171 8170 8170 8172 8173 8172 8171 8174 8178 8174 8178 8177 8179 8178 8176 8177 8178 8177 8177 8178 8178 8171 8137 8136 8149 8177 8167 8145 8139 8139 8137 8132 8124 8136 8127 8125 8129 8131 8132 8126 8128 8128 8126 8128 8130 8129 8131 8131 8129 8150 8171 8173 8176 8174 8173 8178 8176 8179 8175 8175 8174 8177 8175 8177 8176 8173 8172 8174 8174 8173 8170 8167 8160 8158 8158 
8166 8170 8169 8168 8169 8170 8172 8169 8170 8168 8169 8175 8179 8174 8175 8177 8177 8177 8178 8176 8173 8178 8176 8177 8176 8176 8178 8138 8132 8137 8149 8137 8138 8137 8132 8129 8130 8128 8137 8127 8128 8125 8128 8127 8127 8124 8127 8125 8127 8130 8130 8123 8126 8135 8141 8162 8168 8173 8174 8173 8175 8173 8178 8176 8176 8174 8179 8176 8172 8177 8172 8173 8176 8172 8175 8170 8167 8160 8157 8163 
8171 8173 8169 8170 8174 8177 8173 8172 8174 8173 8170 8176 8177 8179 8178 8178 8176 8177 8180 8177 8179 8177 8173 8174 8175 8176 8179 8148 8132 8131 8136 8137 8139 8140 8137 8129 8127 8126 8126 8126 8127 8126 8128 8126 8130 8132 8129 8125 8132 8129 8139 8142 8136 8149 8152 8136 8143 8161 8174 8174 8178 8177 8177 8176 8174 8175 8176 8176 8174 8176 8173 8171 8172 8172 8172 8172 8166 8161 8157 8155 
8172 8170 8171 8169 8169 8171 8173 8174 8175 8174 8174 8178 8177 8178 8178 8176 8179 8181 8179 8178 8175 8177 8170 8176 8175 8175 8180 8155 8133 8133 8134 8139 8142 8141 8129 8122 8124 8129 8125 8125 8124 8124 8129 8128 8129 8129 8127 8126 8127 8121 8124 8131 8122 8127 8131 8130 8131 8140 8171 8173 8176 8175 8178 8177 8175 8177 8179 8179 8174 8172 8174 8170 8170 8170 8170 8168 8167 8162 8157 8159 
8171 8172 8170 8171 8168 8171 8173 8178 8175 8173 8177 8179 8173 8177 8177 8177 8178 8178 8181 8180 8177 8175 8175 8174 8178 8177 8178 8153 8132 8130 8137 8143 8145 8139 8127 8125 8124 8123 8126 8126 8125 8131 8130 8135 8133 8129 8129 8126 8128 8126 8126 8125 8124 8123 8126 8127 8129 8145 8171 8175 8179 8177 8178 8177 8178 8177 8181 8175 8176 8174 8170 8170 8173 8170 8166 8167 8165 8161 8159 8161 
8172 8172 8170 8174 8170 8173 8176 8178 8177 8176 8176 8178 8177 8178 8177 8180 8179 8178 8181 8178 8175 8175 8175 8175 8178 8175 8166 8137 8135 8134 8133 8142 8133 8131 8125 8130 8126 8127 8128 8128 8128 8135 8132 8132 8134 8138 8135 8129 8129 8129 8127 8129 8130 8124 8127 8130 8141 8152 8174 8177 8179 8178 8177 8178 8180 8174 8178 8177 8174 8175 8174 8170 8169 8168 8169 8166 8163 8162 8156 8157 
8171 8173 8170 8172 8176 8178 8173 8176 8176 8179 8178 8179 8179 8177 8178 8180 8177 8184 8181 8176 8177 8179 8177 8171 8175 8173 8146 8137 8137 8131 8134 8137 8129 8130 8139 8151 8133 8124 8127 8133 8132 8133 8134 8135 8138 8151 8148 8143 8131 8127 8129 8135 8133 8129 8129 8132 8165 8168 8176 8174 8181 8176 8177 8177 8177 8174 8178 8179 8177 8176 8173 8172 8172 8169 8169 8168 8163 8166 8160 8157 
8174 8171 8172 8171 8173 8178 8174 8176 8179 8179 8176 8180 8180 8180 8180 8180 8181 8180 8179 8175 8179 8180 8176 8173 8175 8163 8139 8139 8140 8135 8134 8132 8134 8138 8141 8148 8130 8129 8129 8133 8132 8134 8132 8134 8138 8148 8143 8146 8134 8133 8140 8146 8142 8133 8131 8143 8172 8174 8176 8175 8180 8177 8177 8178 8177 8177 8180 8175 8178 8176 8175 8173 8173 8171 8174 8168 8169 8164 8161 8165 
8174 8170 8174 8175 8174 8177 8177 8179 8179 8179 8177 8181 8179 8181 8179 8180 8181 8180 8179 8180 8176 8176 8178 8176 8175 8151 8138 8138 8143 8142 8136 8130 8132 8131 8133 8150 8131 8127 8131 8133 8135 8133 8133 8132 8134 8139 8136 8146 8140 8138 8153 8149 8144 8140 8134 8147 8174 8176 8178 8179 8177 8177 8175 8177 8177 8177 8178 8174 8179 8175 8171 8170 8172 8173 8172 8171 8167 8163 8162 8159 
8179 8172 8172 8179 8178 8181 8182 8181 8179 8179 8179 8182 8180 8184 8184 8182 8181 8180 8181 8182 8178 8178 8176 8176 8175 8141 8135 8140 8150 8149 8139 8134 8132 8132 8146 8157 8147 8133 8132 8132 8133 8137 8134 8133 8137 8139 8142 8149 8153 8153 8152 8146 8146 8144 8150 8171 8178 8180 8179 8175 8180 8179 8178 8179 8176 8176 8180 8180 8177 8177 8175 8172 8173 8174 8170 8169 8167 8167 8163 8165 
8179 8175 8173 8178 8177 8181 8181 8179 8181 8180 8183 8185 8181 8182 8184 8183 8177 8180 8178 8179 8177 8178 8178 8176 8175 8141 8138 8144 8154 8162 8153 8139 8136 8136 8152 8158 8163 8152 8136 8134 8140 8143 8137 8137 8139 8139 8142 8146 8148 8152 8152 8145 8143 8144 8157 8180 8180 8182 8179 8176 8179 8179 8177 8183 8179 8176 8178 8176 8176 8178 8174 8174 8175 8173 8172 8167 8168 8166 8163 8169 
8177 8178 8179 8178 8176 8184 8177 8180 8180 8182 8183 8183 8186 8181 8181 8182 8183 8181 8181 8181 8181 8180 8181 8178 8176 8140 8138 8144 8158 8162 8160 8144 8143 8157 8161 8162 8162 8164 8153 8151 8156 8157 8147 8140 8142 8139 8142 8145 8148 8155 8152 8149 8150 8146 8161 8179 8181 8179 8178 8178 8181 8179 8181 8182 8177 8178 8180 8177 8176 8180 8173 8173 8173 8174 8174 8172 8171 8169 8165 8168 
8180 8182 8179 8181 8179 8178 8178 8182 8178 8180 8181 8184 8184 8185 8184 8181 8185 8181 8184 8182 8179 8184 8184 8178 8175 8146 8140 8150 8160 8162 8159 8164 8166 8161 8166 8160 8156 8161 8162 8162 8158 8161 8161 8154 8147 8146 8152 8149 8153 8156 8156 8150 8150 8149 8163 8179 8178 8182 8181 8180 8182 8178 8179 8179 8181 8179 8180 8180 8179 8180 8176 8177 8176 8175 8176 8175 8173 8168 8169 8170 
8178 8181 8179 8182 8182 8180 8179 8181 8182 8181 8182 8185 8183 8183 8183 8181 8183 8182 8184 8183 8183 8183 8181 8180 8176 8151 8140 8146 8160 8162 8164 8164 8165 8166 8165 8161 8155 8159 8159 8161 8163 8162 8162 8155 8157 8156 8154 8157 8153 8152 8154 8155 8154 8150 8168 8180 8184 8181 8180 8176 8181 8180 8181 8185 8182 8180 8181 8177 8179 8177 8177 8177 8174 8177 8180 8176 8173 8172 8168 8163 
8180 8181 8183 8185 8181 8181 8181 8181 8180 8180 8186 8183 8183 8184 8182 8186 8182 8183 8181 8188 8183 8180 8182 8181 8182 8166 8146 8150 8158 8160 8159 8164 8165 8164 8163 8162 8160 8163 8168 8163 8160 8163 8161 8156 8159 8160 8159 8154 8151 8157 8155 8153 8155 8153 8175 8181 8180 8182 8183 8180 8182 8181 8182 8181 8181 8180 8184 8181 8179 8179 8176 8179 8179 8179 8177 8175 8174 8170 8168 8174 
8183 8182 8183 8182 8182 8180 8180 8183 8182 8180 8181 8183 8180 8182 8184 8182 8181 8184 8181 8185 8183 8184 8181 8182 8180 8173 8148 8149 8160 8163 8160 8165 8169 8169 8166 8164 8166 8168 8167 8163 8161 8165 8164 8160 8165 8163 8162 8159 8150 8157 8156 8159 8157 8163 8182 8184 8184 8183 8185 8177 8182 8181 8179 8181 8181 8182 8181 8179 8178 8179 8178 8177 8176 8179 8180 8176 8177 8176 8174 8173 
8183 8184 8182 8183 8182 8184 8183 8180 8180 8180 8183 8184 8182 8183 8184 8183 8186 8182 8181 8185 8184 8185 8185 8184 8182 8180 8162 8148 8154 8164 8163 8168 8171 8171 8174 8173 8172 8165 8165 8165 8164 8160 8161 8163 8161 8161 8159 8157 8154 8157 8157 8156 8156 8174 8184 8182 8183 8185 8179 8181 8183 8183 8183 8181 8180 8180 8183 8179 8181 8180 8178 8180 8178 8178 8178 8176 8179 8179 8175 8174 
8184 8182 8184 8182 8182 8183 8186 8185 8183 8182 8182 8183 8185 8183 8180 8180 8185 8181 8186 8184 8185 8187 8181 8184 8181 8183 8182 8152 8152 8162 8159 8160 8166 8172 8169 8166 8167 8161 8162 8162 8162 8161 8161 8158 8157 8160 8162 8163 8158 8157 8156 8156 8161 8177 8188 8184 8182 8183 8183 8180 8182 8182 8181 8180 8181 8182 8183 8180 8180 8180 8181 8178 8179 8181 8185 8178 8178 8177 8175 8177 
8188 8183 8183 8185 8186 8185 8182 8185 8184 8183 8182 8183 8183 8182 8183 8184 8183 8183 8185 8185 8187 8188 8185 8183 8184 8182 8188 8176 8153 8155 8157 8161 8170 8172 8165 8166 8168 8161 8156 8161 8165 8164 8162 8162 8163 8160 8164 8163 8161 8160 8157 8157 8164 8182 8187 8181 8185 8185 8186 8182 8183 8185 8181 8182 8183 8181 8183 8183 8180 8182 8180 8179 8179 8181 8181 8181 8180 8178 8175 8176 
8185 8184 8185 8184 8184 8185 8185 8186 8184 8182 8183 8184 8183 8183 8182 8183 8185 8183 8183 8186 8185 8185 8183 8181 8182 8186 8189 8181 8153 8150 8159 8165 8171 8170 8168 8164 8167 8160 8161 8161 8159 8166 8162 8167 8164 8162 8160 8162 8162 8159 8157 8157 8166 8180 8188 8184 8184 8185 8185 8182 8182 8181 8183 8182 8182 8180 8183 8181 8182 8182 8182 8182 8178 8181 8182 8181 8180 8178 8174 8176 
8184 8183 8183 8183 8185 8188 8184 8184 8182 8185 8184 8186 8183 8183 8184 8184 8182 8184 8184 8181 8186 8184 8186 8183 8182 8186 8193 8187 8158 8153 8150 8156 8163 8168 8168 8165 8166 8165 8167 8167 8162 8165 8165 8165 8165 8161 8165 8158 8158 8160 8158 8157 8166 8187 8186 8186 8186 8188 8189 8179 8184 8181 8184 8182 8181 8180 8181 8181 8182 8181 8180 8182 8180 8179 8181 8184 8181 8180 8177 8178 
8182 8182 8182 8185 8186 8186 8182 8185 8187 8186 8184 8185 8183 8184 8186 8183 8185 8182 8181 8182 8185 8185 8186 8182 8185 8187 8191 8190 8164 8151 8154 8162 8166 8168 8165 8166 8165 8165 8164 8165 8164 8164 8163 8165 8164 8165 8166 8163 8159 8162 8161 8157 8172 8184 8186 8186 8186 8187 8187 8183 8185 8185 8182 8182 8182 8180 8182 8180 8183 8183 8182 8180 8179 8180 8185 8180 8180 8179 8181 8180 
8185 8181 8183 8184 8183 8185 8183 8186 8183 8185 8180 8187 8183 8184 8185 8184 8182 8183 8181 8184 8185 8184 8183 8181 8183 8186 8193 8194 8177 8147 8151 8157 8165 8168 8165 8162 8164 8163 8164 8166 8165 8164 8161 8160 8164 8163 8162 8162 8158 8162 8158 8160 8181 8189 8187 8184 8186 8182 8183 8185 8184 8181 8182 8184 8181 8182 8183 8180 8181 8181 8180 8180 8179 8183 8183 8180 8180 8178 8177 8176 
8184 8183 8182 8183 8186 8186 8185 8186 8182 8185 8183 8184 8185 8183 8184 8184 8186 8184 8183 8183 8185 8184 8182 8180 8186 8187 8193 8195 8187 8156 8147 8156 8157 8156 8161 8158 8161 8158 8163 8162 8166 8163 8163 8160 8167 8164 8167 8162 8158 8159 8155 8167 8183 8185 8189 8187 8183 8183 8184 8182 8185 8182 8182 8181 8180 8179 8183 8179 8180 8180 8181 8177 8179 8177 8181 8179 8180 8178 8178 8178 
8180 8187 8187 8188 8183 8186 8181 8185 8185 8186 8184 8189 8185 8184 8184 8185 8186 8185 8185 8185 8186 8186 8186 8185 8186 8186 8192 8196 8193 8178 8148 8147 8156 8150 8155 8162 8167 8163 8163 8161 8165 8165 8166 8168 8171 8168 8163 8161 8162 8157 8155 8180 8187 8186 8189 8185 8186 8187 8183 8180 8184 8184 8183 8182 8180 8181 8182 8180 8180 8179 8182 8179 8180 8180 8180 8179 8179 8178 8177 8176 
8186 8185 8187 8184 8184 8187 8183 8190 8186 8186 8184 8189 8184 8184 8184 8183 8186 8185 8185 8186 8186 8187 8187 8185 8186 8186 8193 8194 8195 8187 8167 8146 8151 8158 8157 8154 8162 8163 8168 8168 8166 8168 8169 8165 8164 8162 8161 8162 8159 8158 8182 8190 8189 8186 8187 8185 8185 8186 8184 8179 8183 8182 8184 8178 8181 8179 8181 8180 8181 8183 8180 8180 8178 8183 8179 8179 8179 8175 8176 8176 
8188 8184 8184 8182 8184 8188 8186 8185 8189 8186 8185 8189 8190 8186 8185 8186 8188 8187 8187 8183 8188 8187 8187 8186 8187 8190 8193 8194 8192 8188 8182 8171 8152 8151 8157 8155 8160 8158 8161 8164 8162 8160 8161 8164 8163 8162 8161 8159 8157 8181 8194 8190 8189 8185 8187 8184 8185 8181 8186 8183 8185 8187 8185 8182 8178 8182 8181 8184 8181 8182 8181 8179 8180 8179 8181 8181 8180 8174 8173 8178 
8188 8183 8183 8183 8186 8187 8186 8184 8188 8184 8185 8187 8187 8185 8185 8188 8186 8188 8188 8184 8189 8191 8187 8188 8185 8193 8195 8196 8195 8191 8186 8183 8179 8154 8149 8154 8158 8162 8163 8163 8165 8163 8162 8166 8167 8159 8161 8170 8182 8195 8193 8191 8189 8187 8187 8185 8183 8187 8183 8185 8187 8185 8184 8183 8181 8180 8184 8181 8181 8180 8182 8181 8179 8179 8179 8181 8179 8177 8176 8174 
8188 8187 8186 8185 8184 8183 8185 8188 8187 8184 8183 8188 8185 8187 8186 8186 8187 8186 8188 8186 8190 8189 8186 8186 8187 8190 8194 8196 8194 8192 8188 8188 8187 8183 8170 8157 8157 8156 8158 8158 8160 8162 8160 8162 8159 8161 8177 8188 8194 8197 8197 8190 8189 8186 8188 8186 8187 8183 8185 8182 8184 8185 8183 8183 8183 8181 8183 8181 8183 8180 8179 8179 8177 8178 8180 8179 8175 8177 8168 8171 
8184 8185 8185 8184 8186 8185 8181 8185 8184 8186 8184 8185 8186 8184 8186 8188 8187 8188 8187 8183 8185 8187 8188 8187 8187 8187 8196 8197 8195 8190 8191 8190 8189 8185 8188 8184 8179 8169 8163 8162 8163 8165 8174 8179 8187 8191 8191 8195 8195 8195 8193 8192 8190 8188 8188 8186 8189 8182 8183 8180 8183 8185 8183 8182 8185 8181 8182 8178 8180 8181 8182 8179 8182 8180 8181 8175 8172 8172 8170 8173 
8184 8184 8184 8186 8185 8183 8184 8186 8184 8185 8186 8187 8185 8187 8186 8187 8188 8189 8186 8187 8188 8188 8188 8187 8189 8187 8196 8196 8198 8197 8191 8190 8190 8187 8190 8189 8187 8186 8190 8191 8188 8193 8196 8198 8200 8196 8193 8193 8199 8198 8195 8191 8190 8186 8188 8185 8185 8186 8184 8184 8188 8184 8185 8186 8185 8181 8185 8181 8184 8181 8182 8180 8180 8178 8176 8165 8161 8165 8169 8164 
8187 8187 8183 8187 8185 8185 8187 8186 8186 8187 8186 8186 8186 8188 8187 8189 8187 8186 8184 8186 8189 8187 8186 8187 8186 8190 8193 8198 8196 8195 8191 8191 8189 8192 8193 8192 8193 8191 8193 8195 8194 8198 8199 8201 8201 8203 8200 8197 8199 8200 8196 8191 8193 8186 8190 8188 8190 8188 8188 8187 8186 8186 8184 8185 8182 8181 8183 8183 8183 8182 8183 8177 8182 8178 8169 8159 8157 8158 8161 8166 
8185 8183 8187 8184 8186 8186 8184 8186 8186 8187 8187 8186 8190 8186 8189 8190 8188 8188 8185 8184 8187 8187 8187 8187 8188 8188 8197 8197 8197 8194 8192 8192 8194 8191 8194 8193 8193 8194 8197 8196 8196 8200 8199 8201 8205 8205 8201 8203 8203 8203 8199 8192 8192 8188 8189 8189 8188 8189 8185 8184 8185 8184 8184 8185 8182 8179 8183 8182 8182 8182 8184 8181 8182 8178 8167 8156 8155 8153 8157 8163 
8188 8188 8185 8186 8185 8185 8185 8186 8187 8190 8189 8188 8185 8186 8187 8189 8189 8189 8188 8189 8186 8187 8186 8189 8192 8191 8195 8198 8197 8198 8195 8193 8194 8193 8195 8192 8196 8197 8199 8196 8197 8204 8204 8203 8211 8205 8203 8205 8203 8203 8199 8195 8193 8192 8192 8191 8192 8187 8187 8187 8186 8183 8184 8184 8182 8182 8184 8182 8182 8184 8183 8180 8183 8180 8175 8161 8153 8155 8162 8168 
8192 8187 8186 8185 8187 8188 8184 8187 8188 8190 8188 8189 8186 8185 8187 8187 8190 8189 8190 8186 8188 8187 8188 8187 8187 8187 8195 8196 8198 8196 8191 8196 8194 8195 8193 8195 8199 8196 8200 8198 8199 8204 8205 8206 8207 8204 8205 8207 8206 8204 8200 8195 8197 8191 8196 8190 8190 8193 8193 8188 8192 8187 8184 8183 8184 8182 8185 8182 8182 8183 8183 8179 8181 8182 8180 8174 8166 8169 8173 8172 
8192 8189 8189 8187 8189 8185 8185 8187 8186 8187 8189 8187 8188 8188 8191 8189 8189 8188 8189 8186 8188 8187 8187 8186 8186 8189 8192 8196 8196 8197 8195 8200 8193 8194 8195 8197 8201 8196 8200 8202 8198 8205 8204 8205 8208 8206 8210 8207 8206 8204 8202 8200 8198 8197 8194 8195 8192 8188 8191 8189 8187 8187 8183 8183 8183 8183 8183 8183 8183 8184 8179 8182 8180 8179 8182 8180 8177 8176 8174 8177 
8189 8189 8188 8186 8182 8183 8184 8185 8187 8184 8185 8184 8185 8187 8189 8189 8187 8186 8186 8185 8187 8183 8186 8187 8188 8186 8195 8196 8195 8196 8194 8198 8192 8193 8194 8198 8199 8197 8198 8201 8198 8200 8203 8203 8206 8204 8202 8206 8205 8203 8205 8200 8198 8194 8193 8192 8191 8190 8189 8188 8189 8187 8184 8183 8181 8180 8184 8183 8183 8183 8179 8176 8181 8179 8182 8178 8179 8179 8171 8175 
8196 8189 8185 8186 8181 8180 8179 8184 8184 8184 8185 8186 8185 8185 8189 8187 8188 8188 8186 8181 8185 8184 8184 8183 8186 8187 8194 8196 8192 8194 8191 8191 8193 8190 8193 8192 8197 8198 8199 8203 8201 8204 8203 8202 8205 8206 8205 8206 8205 8204 8203 8197 8195 8193 8197 8195 8194 8195 8187 8187 8191 8186 8185 8185 8186 8184 8186 8185 8183 8183 8181 8178 8180 8180 8183 8181 8180 8172 8174 8171 
8196 8190 8184 8181 8181 8185 8183 8182 8183 8183 8183 8184 8184 8186 8183 8190 8187 8187 8187 8183 8186 8185 8182 8184 8186 8187 8194 8198 8195 8192 8190 8193 8196 8190 8190 8193 8198 8198 8201 8200 8198 8202 8204 8204 8207 8205 8202 8206 8204 8204 8201 8201 8197 8195 8198 8197 8196 8193 8192 8189 8190 8188 8191 8191 8188 8185 8187 8184 8185 8185 8179 8181 8181 8183 8183 8184 8182 8183 8178 8182 
8196 8190 8187 8181 8179 8180 8181 8180 8184 8182 8186 8185 8185 8185 8189 8186 8184 8183 8185 8183 8189 8183 8182 8181 8184 8190 8195 8194 8197 8192 8191 8196 8194 8193 8190 8190 8198 8201 8202 8201 8199 8201 8204 8203 8208 8204 8205 8203 8203 8205 8204 8197 8200 8197 8200 8194 8193 8194 8194 8194 8196 8195 8190 8190 8189 8189 8189 8183 8185 8186 8179 8181 8182 8182 8185 8182 8183 8182 8176 8175 
8202 8193 8187 8181 8181 8180 8177 8183 8182 8187 8185 8183 8182 8186 8184 8187 8186 8182 8186 8182 8186 8183 8184 8179 8187 8187 8194 8192 8190 8191 8191 8192 8193 8192 8189 8185 8185 8198 8196 8202 8196 8202 8200 8201 8205 8201 8195 8195 8203 8207 8206 8202 8200 8198 8198 8202 8200 8195 8199 8192 8198 8196 8194 8193 8189 8190 8187 8188 8187 8188 8183 8181 8181 8185 8183 8184 8186 8181 8181 8176 


