P2
80 60
8298
8158 8159 8169 8168 8174 8180 8184 8184 8186 8187 8192 8188 8186 8186 8184 8186 8184 8186 8181 8185 8190 8191 8193 8195 8200 8205 8209 8211 8216 8215 8218 8220 8216 8215 8218 8222 8225 8226 8229 8225 8222 8229 8230 8232 8234 8229 8229 8229 8229 8228 8225 8219 8217 8217 8216 8217 8213 8213 8211 8208 8203 8202 8201 8200 8197 8198 8194 8201 8197 8201 8199 8194 8194 8192 8186 8182 8167 8166 8158 8159 
8152 8158 8173 8170 8175 8178 8181 8180 8184 8187 8191 8185 8188 8190 8185 8191 8182 8185 8185 8187 8189 8193 8193 8194 8197 8207 8210 8209 8213 8216 8216 8221 8217 8215 8220 8221 8222 8227 8230 8227 8222 8225 8232 8234 8232 8228 8227 8228 8226 8227 8226 8218 8218 8219 8219 8216 8214 8219 8212 8210 8204 8200 8203 8200 8199 8198 8197 8198 8198 8198 8200 8198 8195 8194 8187 8176 8162 8159 8155 8158 
8143 8165 8175 8176 8177 8182 8184 8186 8186 8192 8190 8188 8191 8189 8190 8189 8190 8188 8186 8187 8187 8194 8194 8197 8198 8208 8211 8215 8216 8218 8219 8217 8219 8218 8221 8224 8227 8228 8227 8227 8223 8227 8231 8230 8228 8227 8227 8226 8227 8226 8226 8220 8219 8221 8221 8220 8214 8215 8214 8207 8204 8202 8201 8202 8201 8198 8197 8198 8201 8197 8201 8198 8198 8195 8189 8172 8159 8158 8154 8155 
8155 8170 8181 8175 8179 8183 8184 8184 8190 8190 8195 8188 8187 8191 8188 8191 8190 8192 8189 8190 8190 8195 8197 8198 8200 8208 8207 8213 8218 8216 8219 8217 8218 8219 8221 8223 8228 8228 8229 8228 8222 8222 8228 8226 8229 8223 8224 8225 8222 8229 8228 8221 8221 8220 8220 8219 8217 8217 8211 8207 8205 8207 8205 8203 8203 8199 8197 8200 8199 8200 8199 8196 8195 8194 8190 8169 8157 8157 8154 8158 
8163 8171 8178 8178 8180 8185 8188 8189 8190 8191 8193 8191 8188 8186 8192 8190 8193 8192 8193 8194 8191 8196 8196 8198 8200 8208 8209 8215 8216 8218 8219 8217 8219 8216 8220 8225 8228 8227 8231 8224 8220 8219 8221 8217 8218 8222 8220 8226 8224 8225 8226 8223 8222 8222 8222 8224 8216 8215 8212 8209 8207 8205 8206 8203 8203 8199 8197 8203 8199 8200 8197 8196 8198 8200 8191 8179 8159 8162 8154 8157 
8173 8170 8180 8180 8184 8187 8186 8187 8192 8194 8194 8193 8195 8191 8194 8195 8193 8195 8192 8196 8193 8196 8198 8199 8203 8212 8209 8217 8218 8218 8218 8217 8216 8215 8220 8225 8227 8228 8231 8221 8217 8189 8167 8165 8172 8204 8216 8225 8225 8228 8228 8222 8220 8220 8223 8222 8218 8218 8213 8213 8208 8210 8208 8202 8205 8203 8200 8199 8200 8199 8201 8203 8198 8198 8192 8189 8163 8160 8155 8160 
8180 8180 8184 8182 8186 8188 8187 8192 8193 8192 8195 8191 8193 8194 8194 8195 8190 8193 8190 8197 8194 8198 8200 8200 8205 8212 8210 8214 8217 8219 8217 8218 8212 8215 8222 8225 8227 8230 8230 8224 8198 8144 8134 8132 8137 8150 8196 8223 8227 8229 8227 8222 8223 8225 8220 8222 8221 8220 8216 8215 8212 8210 8209 8208 8207 8203 8203 8203 8206 8200 8204 8203 8200 8199 8196 8193 8175 8160 8158 8157 
8183 8184 8185 8183 8183 8189 8190 8193 8191 8194 8195 8192 8194 8196 8196 8197 8195 8195 8192 8198 8195 8197 8201 8201 8203 8213 8212 8217 8220 8215 8213 8191 8184 8209 8219 8224 8227 8229 8229 8221 8174 8129 8132 8128 8128 8126 8177 8225 8226 8227 8228 8223 8221 8225 8222 8220 8219 8220 8216 8211 8213 8212 8213 8211 8208 8209 8205 8202 8204 8203 8200 8201 8201 8199 8196 8195 8186 8164 8161 8160 
8188 8185 8188 8184 8186 8188 8193 8193 8192 8195 8195 8194 8196 8196 8197 8197 8195 8193 8198 8197 8196 8199 8200 8202 8205 8211 8214 8220 8217 8202 8160 8137 8134 8154 8203 8226 8227 8230 8227 8221 8185 8131 8130 8128 8128 8127 8203 8226 8230 8229 8228 8224 8224 8224 8224 8223 8218 8218 8215 8214 8214 8215 8214 8211 8213 8211 8205 8208 8204 8203 8202 8204 8200 8200 8199 8197 8191 8175 8163 8164 
8193 8192 8193 8187 8187 8193 8194 8196 8197 8192 8198 8195 8195 8198 8199 8197 8196 8195 8198 8197 8198 8201 8203 8204 8207 8215 8215 8218 8215 8158 8132 8128 8125 8126 8165 8218 8226 8230 8229 8223 8210 8142 8129 8128 8128 8135 8204 8226 8222 8229 8226 8225 8224 8222 8226 8222 8221 8220 8217 8214 8215 8210 8216 8211 8214 8212 8208 8207 8206 8206 8208 8205 8202 8205 8199 8197 8196 8185 8169 8170 
8195 8194 8198 8191 8191 8193 8192 8193 8194 8194 8197 8193 8198 8198 8195 8200 8200 8196 8196 8198 8200 8199 8203 8204 8207 8217 8217 8217 8194 8136 8129 8127 8125 8126 8149 8214 8222 8222 8224 8216 8207 8177 8139 8132 8132 8175 8206 8193 8193 8193 8196 8208 8217 8220 8222 8223 8216 8218 8213 8214 8216 8212 8215 8214 8211 8213 8210 8210 8209 8207 8205 8207 8203 8205 8202 8201 8198 8194 8179 8174 
8193 8194 8197 8191 8193 8191 8195 8190 8191 8194 8197 8192 8195 8197 8197 8198 8201 8199 8197 8201 8200 8200 8202 8204 8209 8216 8220 8221 8196 8143 8131 8127 8126 8127 8144 8176 8195 8199 8177 8153 8135 8139 8143 8132 8157 8200 8154 8137 8147 8158 8164 8165 8179 8206 8219 8220 8217 8216 8213 8212 8212 8215 8212 8212 8211 8211 8212 8208 8209 8207 8208 8206 8207 8207 8203 8202 8201 8199 8184 8180 
8196 8194 8198 8195 8194 8191 8194 8192 8193 8195 8195 8192 8197 8197 8198 8199 8201 8203 8203 8200 8198 8199 8202 8206 8209 8218 8216 8222 8216 8179 8145 8135 8130 8131 8133 8143 8158 8144 8135 8128 8123 8129 8136 8138 8152 8154 8132 8126 8130 8143 8154 8159 8158 8171 8201 8220 8218 8216 8211 8212 8212 8214 8212 8210 8214 8211 8210 8209 8208 8206 8210 8208 8207 8205 8204 8204 8200 8201 8190 8186 
8195 8196 8199 8196 8195 8194 8193 8193 8191 8192 8194 8196 8196 8199 8199 8203 8204 8201 8200 8200 8199 8201 8205 8204 8208 8214 8219 8223 8221 8215 8200 8167 8141 8131 8133 8151 8148 8140 8135 8132 8132 8136 8139 8139 8138 8133 8126 8124 8118 8121 8131 8146 8164 8186 8215 8217 8218 8215 8210 8209 8209 8210 8212 8208 8213 8209 8207 8209 8207 8206 8207 8207 8210 8209 8204 8202 8203 8203 8194 8191 
8199 8200 8199 8195 8192 8197 8194 8191 8194 8195 8197 8196 8199 8202 8201 8202 8203 8202 8201 8200 8201 8201 8202 8206 8210 8216 8218 8222 8224 8216 8215 8212 8163 8142 8151 8213 8210 8190 8179 8185 8172 8194 8152 8135 8131 8127 8124 8123 8120 8120 8125 8135 8193 8210 8217 8216 8216 8216 8211 8211 8212 8209 8210 8210 8215 8209 8210 8210 8208 8205 8207 8207 8207 8209 8202 8201 8199 8203 8196 8195 
8201 8201 8206 8196 8196 8195 8196 8196 8195 8196 8199 8198 8199 8202 8201 8205 8203 8202 8200 8201 8201 8206 8203 8203 8209 8215 8217 8220 8212 8176 8157 8180 8168 8193 8190 8217 8211 8173 8167 8174 8185 8200 8159 8131 8130 8128 8127 8129 8126 8129 8128 8125 8176 8210 8218 8219 8213 8214 8209 8212 8208 8209 8209 8211 8212 8209 8210 8208 8207 8204 8206 8204 8207 8208 8203 8199 8201 8200 8195 8193 
8198 8198 8202 8194 8195 8200 8195 8195 8200 8200 8202 8202 8204 8204 8206 8205 8205 8202 8201 8203 8203 8205 8207 8208 8202 8179 8168 8172 8146 8137 8134 8136 8136 8179 8200 8207 8158 8132 8133 8130 8140 8160 8146 8134 8132 8130 8132 8128 8127 8133 8131 8131 8155 8208 8214 8213 8214 8212 8211 8209 8207 8208 8212 8210 8212 8212 8206 8209 8208 8206 8207 8206 8205 8206 8202 8199 8200 8199 8194 8194 
8198 8196 8200 8199 8193 8195 8198 8195 8201 8201 8203 8204 8206 8204 8206 8210 8208 8205 8202 8205 8204 8207 8206 8205 8167 8135 8127 8132 8128 8132 8132 8130 8127 8146 8190 8178 8134 8129 8135 8134 8137 8138 8134 8140 8141 8135 8133 8134 8132 8139 8139 8136 8148 8206 8210 8213 8210 8210 8209 8207 8209 8208 8209 8208 8214 8211 8205 8205 8206 8205 8206 8205 8203 8202 8198 8202 8198 8202 8190 8195 
8196 8194 8195 8194 8194 8195 8196 8198 8203 8202 8209 8208 8207 8207 8207 8213 8209 8206 8205 8207 8204 8208 8204 8188 8140 8126 8130 8129 8129 8126 8124 8125 8132 8145 8139 8145 8131 8132 8138 8136 8139 8149 8141 8139 8139 8137 8138 8164 8169 8151 8148 8144 8152 8201 8210 8210 8207 8206 8208 8210 8208 8205 8209 8206 8207 8206 8207 8205 8205 8204 8209 8206 8203 8206 8202 8200 8199 8201 8195 8195 
8195 8196 8196 8196 8196 8198 8198 8203 8205 8208 8210 8207 8209 8210 8210 8210 8208 8207 8203 8203 8205 8210 8204 8174 8137 8130 8128 8128 8127 8125 8125 8129 8165 8174 8133 8127 8135 8134 8142 8142 8145 8139 8133 8134 8131 8131 8131 8162 8198 8195 8182 8168 8161 8196 8207 8206 8210 8209 8208 8207 8204 8205 8205 8204 8206 8209 8206 8206 8207 8202 8206 8206 8203 8202 8202 8200 8199 8198 8199 8199 
8196 8198 8198 8196 8196 8197 8201 8202 8205 8207 8211 8207 8209 8212 8210 8209 8207 8207 8205 8204 8203 8207 8203 8169 8139 8139 8134 8127 8127 8128 8123 8143 8193 8185 8144 8132 8124 8125 8141 8141 8142 8151 8131 8130 8131 8133 8127 8149 8178 8170 8193 8199 8184 8189 8205 8204 8205 8207 8206 8207 8206 8200 8205 8207 8204 8205 8205 8205 8205 8205 8207 8205 8203 8202 8202 8201 8202 8201 8197 8195 
8197 8197 8202 8196 8197 8200 8199 8206 8202 8207 8205 8208 8207 8207 8208 8209 8206 8207 8202 8203 8206 8202 8195 8162 8138 8163 8140 8129 8127 8128 8129 8148 8156 8142 8136 8124 8115 8127 8130 8130 8127 8129 8133 8137 8134 8136 8132 8131 8139 8150 8157 8165 8180 8188 8197 8200 8202 8204 8206 8202 8202 8204 8205 8202 8206 8206 8204 8205 8206 8204 8207 8206 8206 8206 8204 8202 8202 8202 8198 8196 
8199 8199 8199 8195 8202 8201 8206 8203 8202 8206 8206 8200 8204 8201 8202 8205 8204 8205 8204 8203 8202 8194 8169 8139 8131 8133 8131 8131 8132 8127 8132 8137 8137 8130 8121 8123 8118 8129 8131 8129 8131 8134 8137 8146 8143 8141 8136 8135 8137 8143 8150 8157 8155 8158 8166 8183 8199 8203 8201 8199 8204 8202 8205 8202 8206 8204 8204 8205 8204 8202 8205 8206 8206 8208 8203 8203 8202 8208 8199 8205 
8200 8201 8201 8198 8201 8202 8203 8202 8205 8206 8206 8203 8201 8182 8161 8186 8194 8202 8197 8191 8173 8148 8133 8129 8128 8124 8128 8134 8133 8135 8134 8135 8134 8127 8122 8123 8124 8127 8132 8134 8136 8139 8138 8147 8146 8150 8146 8145 8147 8147 8152 8150 8154 8155 8158 8169 8196 8199 8198 8194 8188 8194 8198 8199 8199 8202 8203 8205 8200 8200 8200 8203 8204 8207 8204 8205 8204 8206 8199 8202 
8201 8201 8203 8201 8201 8202 8204 8203 8207 8206 8207 8204 8203 8177 8138 8137 8142 8159 8169 8173 8168 8140 8134 8129 8128 8126 8127 8138 8135 8133 8136 8138 8134 8127 8126 8127 8126 8126 8135 8137 8146 8148 8145 8149 8154 8156 8159 8153 8152 8152 8153 8154 8152 8155 8157 8165 8188 8177 8161 8153 8150 8157 8163 8181 8196 8202 8200 8204 8200 8197 8203 8201 8205 8205 8205 8208 8206 8206 8201 8198 
8204 8202 8206 8206 8205 8206 8206 8206 8204 8206 8208 8206 8203 8174 8137 8134 8137 8152 8187 8194 8154 8143 8143 8136 8129 8128 8136 8166 8136 8136 8139 8138 8136 8130 8129 8128 8124 8126 8139 8144 8147 8152 8156 8164 8160 8161 8159 8156 8153 8153 8161 8161 8175 8175 8166 8159 8157 8154 8151 8148 8156 8160 8159 8156 8181 8196 8200 8203 8202 8202 8201 8201 8202 8207 8206 8206 8205 8206 8202 8202 
8208 8207 8207 8208 8207 8209 8209 8206 8205 8205 8211 8204 8203 8175 8136 8134 8143 8186 8195 8194 8182 8183 8188 8161 8126 8129 8131 8151 8133 8141 8141 8140 8139 8135 8132 8133 8132 8134 8146 8146 8144 8138 8140 8150 8144 8160 8160 8161 8157 8158 8184 8190 8192 8191 8169 8168 8166 8161 8162 8161 8164 8169 8170 8165 8171 8193 8197 8200 8200 8199 8201 8202 8201 8201 8205 8204 8207 8204 8202 8203 
8211 8208 8211 8210 8209 8211 8205 8209 8207 8205 8209 8204 8205 8191 8140 8137 8169 8195 8194 8192 8187 8191 8196 8192 8152 8138 8130 8134 8136 8139 8141 8143 8144 8139 8138 8136 8134 8133 8134 8131 8122 8123 8131 8135 8133 8147 8157 8162 8160 8155 8166 8185 8192 8193 8170 8175 8175 8173 8172 8173 8174 8177 8173 8171 8172 8189 8195 8200 8199 8202 8201 8200 8202 8203 8205 8208 8207 8205 8199 8201 
8212 8207 8213 8209 8210 8211 8211 8208 8209 8205 8206 8207 8205 8196 8145 8151 8192 8195 8182 8151 8150 8151 8160 8175 8180 8164 8146 8146 8132 8135 8145 8148 8143 8142 8142 8142 8138 8133 8127 8121 8122 8124 8134 8137 8132 8135 8151 8160 8156 8150 8147 8161 8187 8193 8169 8175 8172 8178 8173 8176 8178 8181 8182 8181 8176 8188 8196 8197 8199 8198 8197 8198 8199 8203 8198 8206 8205 8204 8199 8201 
8214 8211 8216 8212 8207 8208 8210 8209 8207 8209 8206 8204 8205 8182 8141 8177 8193 8187 8151 8149 8152 8154 8154 8162 8163 8135 8134 8139 8133 8131 8147 8151 8147 8140 8143 8148 8141 8133 8127 8126 8119 8129 8143 8147 8144 8140 8144 8157 8151 8149 8143 8139 8169 8194 8170 8171 8176 8178 8174 8174 8176 8180 8187 8184 8182 8188 8193 8198 8196 8196 8199 8199 8198 8201 8199 8202 8203 8204 8200 8200 
8213 8211 8215 8211 8210 8210 8209 8209 8208 8208 8209 8204 8200 8164 8151 8195 8191 8174 8160 8157 8153 8150 8157 8180 8142 8128 8126 8130 8146 8145 8147 8150 8147 8132 8133 8135 8131 8130 8131 8130 8133 8142 8153 8154 8154 8147 8138 8146 8153 8152 8147 8140 8153 8194 8174 8172 8181 8182 8183 8179 8176 8178 8182 8181 8181 8190 8196 8197 8195 8195 8198 8197 8198 8199 8198 8198 8204 8205 8200 8198 
8212 8210 8218 8213 8210 8209 8209 8208 8209 8210 8204 8205 8200 8160 8157 8194 8166 8167 8164 8157 8149 8143 8163 8172 8133 8127 8123 8132 8142 8135 8138 8146 8147 8134 8130 8133 8135 8148 8152 8148 8146 8144 8151 8157 8153 8149 8139 8145 8153 8157 8153 8146 8152 8194 8182 8173 8177 8184 8185 8184 8178 8183 8183 8176 8180 8189 8190 8195 8192 8198 8194 8197 8195 8198 8197 8199 8202 8200 8202 8200 
8215 8211 8213 8211 8207 8211 8208 8208 8209 8207 8208 8204 8200 8160 8158 8198 8172 8168 8164 8155 8145 8145 8146 8141 8124 8125 8123 8134 8138 8134 8140 8138 8143 8144 8141 8134 8147 8160 8159 8155 8154 8151 8151 8143 8149 8154 8149 8154 8161 8166 8172 8164 8157 8195 8193 8173 8178 8184 8184 8181 8182 8184 8180 8176 8184 8191 8191 8191 8193 8193 8192 8197 8195 8195 8195 8198 8203 8202 8202 8203 
8218 8213 8216 8212 8211 8211 8211 8208 8210 8208 8209 8203 8193 8163 8191 8205 8200 8184 8181 8181 8157 8151 8148 8145 8129 8127 8131 8138 8138 8142 8153 8150 8150 8150 8148 8143 8148 8161 8164 8162 8155 8151 8140 8139 8145 8156 8165 8176 8187 8207 8218 8221 8220 8219 8203 8171 8172 8180 8178 8182 8182 8184 8181 8175 8189 8191 8190 8191 8191 8190 8190 8194 8193 8194 8196 8198 8198 8202 8198 8204 
8213 8215 8212 8211 8211 8211 8210 8210 8210 8207 8207 8202 8202 8187 8204 8210 8204 8206 8200 8187 8156 8153 8151 8145 8135 8133 8129 8137 8139 8144 8152 8155 8158 8157 8153 8156 8151 8154 8165 8165 8161 8159 8146 8135 8128 8134 8155 8174 8193 8215 8222 8222 8221 8218 8205 8173 8169 8176 8173 8179 8185 8185 8185 8187 8191 8192 8190 8192 8192 8190 8192 8192 8193 8194 8197 8198 8199 8198 8193 8200 
8214 8209 8212 8211 8209 8211 8210 8210 8207 8207 8207 8204 8208 8205 8206 8210 8207 8206 8199 8180 8156 8154 8149 8144 8138 8137 8126 8136 8134 8131 8147 8156 8156 8152 8152 8158 8157 8146 8161 8163 8166 8160 8152 8136 8128 8128 8139 8164 8178 8194 8209 8213 8203 8207 8196 8169 8164 8169 8175 8179 8181 8186 8187 8184 8191 8189 8191 8191 8189 8193 8194 8192 8193 8194 8195 8199 8197 8199 8195 8195 
8219 8213 8214 8210 8212 8211 8213 8208 8210 8206 8207 8208 8207 8208 8211 8211 8207 8207 8201 8174 8155 8153 8148 8144 8144 8140 8131 8131 8130 8132 8134 8145 8145 8150 8151 8155 8155 8150 8149 8160 8166 8164 8160 8134 8130 8131 8135 8153 8186 8195 8183 8167 8150 8141 8139 8146 8162 8168 8173 8178 8178 8181 8182 8175 8190 8191 8187 8188 8190 8190 8192 8192 8194 8195 8193 8195 8197 8200 8195 8195 
8210 8212 8214 8213 8211 8213 8213 8211 8210 8205 8208 8209 8213 8211 8207 8210 8205 8206 8201 8192 8154 8151 8144 8145 8145 8152 8147 8141 8139 8137 8140 8132 8122 8129 8137 8140 8141 8147 8149 8158 8161 8165 8165 8143 8136 8134 8141 8153 8174 8196 8196 8183 8155 8136 8135 8141 8163 8169 8172 8177 8175 8179 8181 8179 8191 8190 8189 8190 8190 8190 8193 8192 8194 8197 8198 8198 8195 8198 8194 8192 
8212 8213 8214 8214 8211 8214 8212 8210 8209 8209 8208 8210 8211 8210 8209 8208 8205 8208 8202 8195 8159 8148 8148 8148 8155 8175 8167 8147 8142 8136 8133 8129 8129 8126 8140 8145 8145 8142 8141 8135 8153 8163 8168 8151 8142 8143 8145 8163 8177 8191 8194 8195 8182 8145 8138 8141 8150 8163 8172 8182 8187 8194 8190 8189 8192 8188 8188 8191 8192 8193 8191 8192 8194 8196 8195 8197 8196 8196 8194 8196 
8214 8213 8216 8212 8209 8214 8211 8211 8210 8213 8209 8210 8209 8211 8211 8208 8205 8207 8204 8201 8168 8155 8151 8157 8172 8176 8157 8143 8141 8137 8134 8143 8141 8134 8144 8153 8146 8138 8135 8130 8132 8153 8162 8156 8153 8152 8159 8162 8179 8184 8194 8196 8200 8166 8144 8139 8140 8147 8171 8189 8195 8194 8195 8190 8190 8192 8189 8190 8191 8191 8191 8192 8194 8196 8194 8198 8197 8198 8194 8196 
8214 8215 8219 8214 8214 8213 8211 8207 8208 8208 8209 8208 8211 8212 8206 8209 8207 8209 8204 8201 8189 8186 8188 8183 8161 8151 8149 8148 8144 8138 8139 8158 8158 8155 8153 8160 8158 8143 8140 8135 8138 8158 8172 8173 8164 8167 8171 8169 8183 8195 8202 8208 8205 8193 8149 8144 8148 8156 8171 8194 8192 8194 8197 8193 8196 8191 8193 8193 8190 8193 8194 8194 8193 8194 8195 8193 8200 8199 8196 8195 
8215 8217 8216 8213 8214 8212 8210 8210 8207 8206 8210 8207 8207 8206 8205 8205 8202 8204 8202 8205 8204 8204 8205 8191 8153 8150 8149 8147 8141 8143 8156 8166 8161 8166 8157 8162 8166 8159 8142 8139 8150 8176 8184 8195 8186 8192 8179 8179 8196 8205 8206 8212 8211 8212 8165 8149 8153 8159 8173 8190 8196 8193 8193 8193 8191 8188 8191 8191 8191 8194 8192 8189 8191 8197 8196 8196 8197 8197 8192 8194 
8211 8220 8214 8211 8215 8213 8211 8207 8207 8205 8210 8206 8208 8204 8203 8204 8201 8203 8203 8206 8202 8209 8207 8196 8160 8150 8149 8150 8145 8158 8168 8162 8159 8168 8163 8171 8172 8167 8154 8148 8181 8194 8194 8213 8215 8212 8207 8198 8211 8216 8212 8211 8217 8213 8179 8157 8160 8168 8170 8190 8195 8195 8193 8190 8190 8190 8191 8192 8188 8192 8192 8192 8194 8192 8193 8193 8194 8197 8194 8194 
8212 8215 8216 8214 8213 8212 8211 8209 8207 8206 8209 8206 8209 8206 8206 8205 8201 8201 8202 8205 8205 8206 8204 8201 8172 8153 8148 8155 8146 8164 8163 8158 8158 8177 8175 8177 8174 8168 8169 8175 8211 8216 8214 8233 8240 8240 8232 8226 8228 8229 8219 8219 8217 8206 8196 8184 8174 8172 8181 8192 8193 8197 8195 8191 8191 8192 8190 8189 8190 8192 8191 8193 8196 8192 8192 8195 8195 8193 8193 8193 
8213 8213 8218 8212 8212 8209 8210 8211 8205 8207 8209 8206 8206 8209 8206 8208 8202 8200 8202 8209 8204 8205 8204 8201 8189 8161 8153 8155 8154 8158 8159 8161 8155 8168 8177 8176 8171 8170 8177 8197 8225 8238 8248 8251 8260 8265 8257 8245 8250 8245 8233 8223 8222 8205 8197 8193 8192 8192 8194 8192 8194 8195 8193 8190 8194 8191 8191 8191 8186 8187 8191 8192 8193 8192 8194 8192 8194 8190 8188 8193 
8214 8215 8219 8211 8211 8212 8210 8207 8206 8208 8208 8206 8210 8207 8206 8205 8204 8202 8203 8205 8205 8208 8205 8204 8198 8182 8173 8167 8164 8160 8159 8161 8164 8180 8187 8172 8166 8167 8176 8201 8239 8247 8255 8266 8277 8281 8272 8273 8276 8268 8254 8238 8215 8204 8199 8201 8196 8198 8195 8197 8193 8193 8193 8191 8192 8192 8189 8188 8186 8188 8191 8188 8191 8194 8192 8193 8193 8191 8191 8189 
8214 8214 8214 8209 8211 8211 8212 8208 8207 8209 8206 8207 8209 8207 8206 8207 8203 8204 8200 8204 8204 8208 8203 8203 8201 8199 8193 8176 8165 8162 8161 8167 8176 8189 8191 8177 8166 8168 8177 8215 8249 8259 8268 8278 8289 8288 8287 8289 8289 8277 8261 8229 8201 8199 8199 8199 8197 8198 8197 8196 8195 8193 8195 8193 8192 8190 8188 8186 8189 8191 8189 8192 8193 8190 8190 8193 8190 8190 8185 8186 
8212 8213 8216 8210 8209 8211 8208 8208 8206 8206 8211 8208 8209 8206 8203 8208 8205 8207 8201 8207 8204 8207 8209 8206 8201 8202 8195 8191 8171 8167 8164 8174 8187 8188 8192 8184 8167 8167 8177 8235 8257 8268 8277 8285 8289 8291 8287 8289 8282 8270 8241 8204 8192 8197 8203 8200 8199 8199 8196 8193 8194 8194 8193 8194 8194 8192 8191 8188 8188 8189 8190 8192 8191 8190 8190 8187 8191 8188 8183 8187 
8215 8217 8215 8208 8210 8214 8209 8205 8205 8207 8212 8204 8206 8207 8205 8209 8203 8204 8204 8202 8205 8208 8208 8207 8203 8204 8199 8196 8196 8175 8167 8183 8196 8191 8187 8187 8168 8174 8182 8241 8269 8278 8278 8285 8291 8298 8293 8281 8263 8238 8203 8188 8193 8199 8201 8199 8197 8197 8195 8194 8195 8194 8195 8194 8194 8189 8192 8187 8189 8189 8184 8188 8189 8187 8185 8187 8188 8187 8183 8188 
8216 8213 8216 8208 8208 8207 8208 8204 8206 8209 8209 8205 8205 8207 8205 8208 8203 8204 8203 8205 8206 8210 8207 8203 8202 8206 8204 8201 8197 8195 8184 8184 8191 8189 8185 8180 8172 8175 8226 8266 8270 8283 8284 8295 8296 8294 8273 8254 8226 8200 8190 8188 8194 8196 8201 8200 8199 8198 8195 8195 8196 8196 8194 8193 8191 8190 8187 8187 8187 8186 8189 8188 8188 8185 8189 8188 8186 8183 8182 8187 
8212 8210 8215 8213 8207 8212 8206 8205 8205 8205 8209 8205 8205 8207 8206 8205 8202 8202 8203 8205 8209 8210 8212 8211 8209 8209 8208 8208 8200 8198 8192 8189 8192 8182 8182 8177 8176 8178 8257 8272 8278 8286 8291 8296 8288 8263 8241 8216 8196 8191 8190 8195 8195 8201 8200 8198 8198 8199 8198 8196 8196 8197 8197 8191 8190 8189 8190 8192 8188 8185 8186 8187 8183 8186 8186 8186 8185 8183 8179 8182 
8212 8211 8215 8209 8207 8207 8207 8203 8206 8209 8209 8205 8204 8203 8205 8204 8205 8207 8201 8203 8207 8211 8213 8214 8212 8212 8211 8210 8209 8203 8194 8186 8187 8186 8182 8175 8176 8177 8221 8257 8263 8265 8260 8256 8243 8226 8206 8197 8193 8192 8195 8195 8195 8198 8198 8196 8198 8199 8195 8197 8196 8196 8193 8190 8193 8188 8191 8187 8186 8186 8189 8189 8187 8182 8183 8186 8183 8184 8178 8183 
8216 8214 8213 8211 8209 8208 8211 8205 8204 8206 8205 8203 8203 8202 8205 8206 8205 8204 8199 8200 8203 8209 8214 8213 8208 8214 8211 8215 8215 8212 8199 8196 8192 8186 8177 8177 8171 8176 8181 8217 8221 8220 8223 8225 8216 8207 8197 8196 8199 8202 8202 8195 8195 8195 8198 8199 8198 8197 8197 8197 8197 8195 8194 8190 8190 8189 8186 8189 8186 8188 8185 8187 8183 8185 8185 8183 8181 8182 8178 8176 
8215 8211 8213 8207 8208 8209 8209 8203 8203 8204 8203 8202 8203 8203 8203 8201 8203 8202 8200 8200 8203 8209 8211 8212 8211 8217 8216 8217 8216 8214 8212 8203 8192 8189 8181 8175 8180 8179 8186 8211 8210 8208 8209 8210 8200 8201 8197 8198 8202 8205 8201 8195 8193 8198 8198 8198 8195 8197 8194 8194 8196 8195 8195 8191 8190 8185 8185 8188 8185 8183 8182 8181 8180 8181 8180 8180 8179 8177 8176 8178 
8213 8214 8211 8210 8207 8209 8209 8203 8200 8201 8205 8203 8201 8201 8203 8204 8199 8199 8198 8199 8203 8206 8210 8211 8208 8215 8216 8219 8222 8217 8214 8208 8205 8198 8188 8181 8187 8189 8193 8199 8193 8196 8200 8199 8201 8202 8202 8202 8203 8203 8202 8196 8196 8196 8197 8197 8195 8196 8195 8195 8197 8192 8194 8189 8188 8187 8182 8183 8182 8181 8183 8180 8181 8185 8177 8179 8178 8176 8175 8175 
8214 8214 8214 8211 8207 8209 8205 8201 8205 8203 8200 8199 8201 8201 8203 8203 8200 8201 8198 8201 8200 8207 8205 8206 8207 8215 8216 8220 8223 8219 8216 8215 8212 8205 8204 8207 8205 8201 8209 8195 8192 8198 8206 8206 8205 8204 8202 8206 8206 8207 8204 8197 8197 8199 8199 8200 8195 8199 8195 8193 8197 8195 8194 8189 8187 8185 8183 8180 8179 8178 8185 8179 8178 8180 8178 8174 8174 8173 8169 8170 
8215 8215 8217 8208 8209 8207 8204 8202 8201 8202 8198 8198 8200 8202 8199 8202 8202 8199 8195 8202 8200 8204 8207 8207 8207 8213 8216 8222 8222 8224 8224 8220 8215 8212 8213 8213 8213 8212 8212 8207 8200 8203 8206 8207 8207 8204 8207 8204 8210 8208 8206 8201 8203 8198 8202 8198 8197 8195 8195 8196 8195 8196 8191 8189 8186 8184 8180 8181 8181 8179 8183 8181 8176 8180 8176 8175 8172 8173 8168 8171 
8214 8214 8219 8212 8209 8208 8204 8199 8199 8197 8198 8197 8200 8201 8199 8200 8200 8200 8195 8199 8199 8205 8205 8206 8210 8213 8217 8222 8222 8226 8221 8221 8219 8216 8216 8216 8212 8212 8211 8205 8204 8204 8208 8210 8212 8208 8206 8208 8208 8210 8208 8204 8202 8199 8201 8200 8197 8201 8197 8192 8196 8196 8191 8186 8187 8183 8180 8180 8178 8181 8182 8180 8179 8177 8171 8168 8170 8174 8167 8170 
8219 8217 8219 8216 8210 8208 8208 8203 8203 8199 8201 8200 8199 8198 8199 8201 8200 8201 8196 8197 8200 8202 8205 8206 8209 8214 8219 8220 8226 8222 8221 8223 8218 8219 8219 8218 8214 8213 8215 8206 8206 8208 8212 8213 8212 8212 8210 8210 8213 8214 8207 8206 8204 8202 8200 8200 8197 8198 8197 8197 8194 8196 8193 8188 8188 8184 8183 8180 8179 8179 8180 8175 8175 8169 8172 8168 8169 8169 8168 8164 
8225 8214 8214 8213 8208 8208 8208 8203 8201 8203 8200 8198 8197 8195 8199 8202 8199 8201 8197 8199 8199 8203 8204 8206 8210 8217 8219 8225 8226 8221 8224 8222 8216 8220 8218 8220 8216 8215 8213 8207 8205 8209 8214 8214 8215 8215 8210 8210 8212 8210 8210 8205 8204 8199 8202 8200 8199 8198 8197 8195 8195 8194 8190 8188 8186 8179 8181 8179 8180 8180 8181 8174 8175 8172 8173 8171 8170 8168 8165 8168 


