P2
80 60
8361
8319 8322 8320 8322 8319 8320 8311 8309 8311 8306 8309 8304 8303 8302 8303 8302 8305 8304 8302 8304 8306 8308 8305 8303 8304 8305 8308 8306 8304 8300 8303 8306 8304 8309 8313 8318 8315 8317 8323 8321 8320 8317 8315 8314 8312 8313 8314 8314 8315 8313 8313 8310 8308 8305 8302 8304 8308 8308 8309 8314 8315 8321 8323 8321 8321 8324 8324 8326 8331 8333 8335 8336 8336 8337 8336 8338 8337 8335 8333 8339 
8319 8325 8326 8320 8319 8322 8310 8308 8311 8307 8305 8308 8307 8305 8304 8306 8306 8304 8303 8305 8305 8307 8308 8302 8304 8308 8306 8306 8306 8302 8303 8304 8309 8311 8315 8318 8313 8317 8325 8324 8320 8318 8316 8312 8314 8314 8314 8312 8317 8311 8310 8309 8309 8306 8307 8306 8306 8307 8311 8312 8315 8320 8321 8321 8324 8324 8328 8330 8334 8332 8335 8337 8337 8337 8337 8339 8337 8336 8332 8334 
8315 8313 8313 8311 8316 8315 8310 8308 8307 8307 8300 8306 8301 8303 8308 8303 8305 8306 8303 8306 8303 8306 8305 8297 8304 8306 8305 8303 8307 8302 8301 8302 8306 8311 8314 8314 8313 8316 8322 8322 8323 8319 8311 8314 8314 8314 8316 8311 8312 8312 8312 8306 8307 8307 8308 8305 8309 8311 8311 8312 8317 8323 8320 8323 8323 8324 8326 8331 8330 8334 8333 8334 8337 8341 8341 8339 8338 8335 8334 8334 
8312 8306 8308 8307 8315 8310 8306 8306 8306 8302 8299 8294 8304 8301 8304 8304 8301 8305 8299 8299 8300 8298 8293 8300 8299 8304 8306 8305 8305 8300 8303 8302 8305 8311 8313 8315 8311 8314 8321 8321 8319 8315 8314 8308 8312 8313 8314 8312 8312 8311 8311 8309 8307 8307 8308 8307 8313 8313 8314 8313 8318 8322 8322 8323 8323 8322 8325 8327 8327 8331 8334 8336 8336 8336 8336 8334 8335 8333 8331 8330 
8304 8303 8306 8304 8305 8311 8306 8304 8304 8302 8296 8291 8298 8301 8298 8300 8298 8297 8298 8299 8300 8304 8293 8294 8300 8301 8303 8301 8300 8301 8301 8304 8307 8308 8311 8311 8312 8315 8319 8320 8319 8314 8311 8308 8307 8310 8311 8313 8312 8309 8309 8313 8309 8308 8309 8316 8314 8314 8313 8316 8319 8322 8320 8323 8322 8322 8326 8327 8329 8330 8333 8333 8336 8335 8335 8338 8337 8331 8328 8328 
8303 8299 8301 8305 8303 8306 8302 8301 8301 8298 8290 8293 8291 8294 8295 8297 8298 8295 8300 8299 8298 8301 8298 8292 8299 8306 8303 8298 8298 8300 8302 8303 8302 8307 8310 8317 8309 8312 8320 8319 8317 8316 8312 8308 8307 8309 8312 8311 8313 8310 8312 8309 8309 8306 8310 8313 8314 8313 8315 8317 8318 8324 8325 8320 8323 8322 8324 8329 8332 8330 8334 8333 8335 8335 8334 8336 8332 8331 8327 8328 
8302 8300 8298 8301 8300 8300 8301 8300 8296 8289 8285 8293 8294 8293 8298 8295 8292 8298 8299 8299 8295 8301 8300 8296 8300 8300 8299 8299 8296 8302 8301 8300 8304 8306 8309 8310 8307 8312 8318 8317 8317 8317 8313 8309 8308 8309 8309 8309 8310 8307 8308 8309 8310 8308 8310 8314 8314 8312 8316 8317 8320 8324 8322 8320 8322 8324 8325 8332 8328 8332 8329 8333 8330 8331 8336 8331 8331 8332 8328 8328 
8303 8299 8292 8299 8301 8302 8301 8302 8305 8285 8294 8294 8294 8292 8295 8296 8297 8294 8298 8298 8298 8302 8301 8296 8298 8300 8298 8294 8298 8301 8301 8302 8305 8309 8308 8311 8311 8312 8317 8320 8316 8318 8312 8310 8309 8311 8307 8309 8308 8304 8307 8305 8307 8307 8312 8309 8312 8313 8313 8317 8314 8319 8321 8319 8323 8327 8325 8330 8328 8328 8330 8329 8333 8332 8331 8331 8332 8331 8327 8327 
8298 8295 8293 8297 8298 8298 8299 8301 8300 8286 8288 8293 8293 8296 8292 8292 8296 8296 8298 8302 8301 8299 8297 8295 8294 8303 8296 8295 8299 8299 8302 8300 8301 8304 8311 8315 8311 8312 8315 8316 8316 8316 8313 8307 8305 8309 8307 8308 8305 8304 8304 8305 8308 8305 8307 8306 8309 8312 8315 8315 8316 8316 8317 8319 8323 8324 8329 8327 8327 8327 8329 8327 8328 8326 8331 8329 8330 8329 8326 8327 
8295 8292 8292 8296 8298 8302 8299 8300 8298 8295 8294 8290 8293 8293 8293 8291 8293 8294 8298 8300 8297 8297 8297 8293 8295 8300 8295 8296 8299 8298 8299 8296 8296 8302 8307 8310 8307 8307 8314 8315 8312 8311 8307 8304 8304 8309 8306 8307 8308 8304 8305 8306 8307 8303 8308 8310 8308 8313 8311 8315 8315 8319 8318 8320 8322 8324 8323 8326 8326 8326 8329 8327 8328 8326 8329 8329 8330 8329 8324 8326 
8292 8291 8298 8293 8293 8297 8296 8295 8294 8292 8290 8292 8292 8293 8291 8292 8294 8289 8290 8295 8295 8294 8297 8291 8289 8294 8295 8296 8294 8294 8297 8295 8293 8299 8301 8300 8299 8304 8308 8308 8309 8309 8304 8304 8304 8308 8308 8306 8309 8306 8306 8308 8305 8304 8306 8306 8310 8309 8310 8314 8316 8320 8318 8318 8320 8322 8322 8327 8326 8326 8327 8326 8329 8326 8326 8327 8328 8331 8326 8318 
8294 8296 8297 8292 8292 8300 8291 8291 8299 8292 8290 8289 8291 8292 8294 8295 8291 8294 8293 8294 8296 8299 8293 8290 8289 8293 8293 8286 8273 8267 8293 8290 8287 8288 8280 8265 8257 8272 8288 8296 8299 8298 8299 8305 8303 8306 8307 8303 8308 8306 8308 8307 8305 8306 8304 8308 8309 8308 8307 8314 8316 8318 8317 8316 8319 8321 8326 8324 8330 8325 8325 8324 8322 8323 8328 8327 8326 8328 8323 8323 
8295 8294 8294 8294 8294 8296 8294 8291 8290 8290 8291 8291 8288 8293 8294 8294 8294 8296 8294 8294 8295 8297 8291 8289 8284 8274 8265 8249 8236 8254 8273 8272 8258 8247 8236 8231 8225 8228 8237 8245 8268 8252 8268 8293 8300 8293 8296 8300 8306 8305 8304 8309 8309 8307 8307 8307 8307 8307 8310 8313 8316 8318 8319 8321 8323 8321 8326 8326 8325 8324 8325 8325 8326 8327 8327 8326 8327 8325 8321 8320 
8298 8300 8295 8299 8296 8297 8296 8293 8292 8290 8292 8290 8293 8294 8297 8295 8296 8295 8296 8297 8293 8294 8286 8268 8243 8241 8243 8236 8255 8286 8286 8256 8244 8259 8266 8259 8258 8237 8231 8228 8223 8219 8223 8247 8249 8233 8239 8259 8280 8297 8302 8308 8307 8305 8305 8306 8307 8310 8311 8315 8315 8318 8319 8320 8321 8324 8328 8328 8328 8326 8327 8326 8324 8325 8325 8326 8322 8327 8321 8325 
8294 8291 8298 8296 8295 8295 8295 8297 8296 8294 8292 8292 8296 8293 8296 8296 8297 8293 8294 8295 8292 8286 8255 8240 8242 8249 8241 8251 8281 8274 8247 8247 8277 8286 8293 8286 8265 8235 8248 8258 8249 8237 8234 8233 8235 8238 8266 8266 8253 8277 8303 8307 8305 8305 8306 8307 8308 8312 8313 8316 8316 8319 8319 8322 8326 8325 8326 8327 8328 8323 8324 8326 8323 8324 8324 8328 8324 8324 8321 8321 
8293 8291 8295 8296 8297 8294 8292 8293 8295 8295 8291 8291 8294 8293 8295 8296 8295 8295 8294 8296 8288 8265 8243 8241 8249 8250 8269 8288 8289 8269 8225 8221 8238 8259 8281 8275 8280 8244 8242 8240 8250 8246 8253 8249 8239 8238 8256 8294 8295 8290 8293 8303 8302 8303 8303 8305 8310 8310 8313 8314 8317 8320 8318 8323 8323 8325 8328 8327 8327 8324 8321 8326 8323 8322 8324 8324 8323 8321 8317 8318 
8289 8290 8295 8297 8295 8294 8293 8293 8294 8296 8293 8291 8293 8292 8295 8297 8295 8294 8294 8290 8279 8246 8245 8249 8260 8280 8288 8291 8286 8287 8256 8234 8241 8235 8231 8236 8281 8263 8237 8233 8237 8255 8259 8275 8275 8247 8267 8295 8299 8301 8301 8305 8304 8303 8302 8304 8305 8307 8312 8314 8316 8322 8318 8319 8323 8323 8324 8327 8322 8323 8324 8321 8324 8323 8324 8322 8323 8323 8312 8321 
8293 8293 8296 8297 8293 8297 8294 8295 8292 8295 8295 8293 8292 8296 8296 8295 8293 8291 8292 8289 8262 8252 8259 8263 8284 8290 8292 8283 8278 8286 8286 8282 8281 8268 8225 8221 8241 8276 8259 8236 8243 8259 8273 8288 8292 8288 8282 8297 8302 8302 8304 8304 8301 8302 8304 8307 8306 8308 8311 8315 8317 8317 8320 8325 8324 8325 8325 8327 8324 8323 8323 8321 8321 8321 8319 8325 8321 8322 8315 8316 
8293 8291 8294 8294 8298 8298 8295 8298 8298 8294 8295 8294 8296 8292 8295 8295 8291 8292 8289 8278 8256 8266 8269 8286 8291 8283 8256 8239 8245 8264 8265 8261 8251 8237 8219 8214 8213 8247 8259 8239 8257 8264 8256 8244 8259 8285 8292 8294 8299 8301 8302 8302 8301 8304 8304 8306 8308 8310 8312 8313 8314 8317 8320 8322 8323 8320 8325 8322 8322 8319 8322 8316 8319 8319 8323 8321 8318 8317 8314 8318 
8293 8294 8294 8296 8293 8300 8298 8299 8297 8293 8294 8295 8292 8297 8295 8292 8292 8293 8287 8268 8262 8264 8282 8286 8288 8270 8244 8257 8271 8281 8281 8265 8251 8230 8218 8218 8219 8235 8231 8243 8248 8261 8241 8211 8211 8239 8277 8278 8287 8295 8302 8303 8304 8306 8305 8307 8310 8309 8309 8312 8312 8316 8319 8319 8323 8321 8322 8321 8321 8319 8318 8318 8318 8314 8312 8316 8317 8319 8312 8310 
8294 8296 8297 8295 8294 8298 8293 8297 8297 8294 8294 8292 8296 8296 8297 8294 8294 8290 8268 8257 8260 8277 8287 8285 8286 8284 8281 8283 8287 8290 8291 8287 8261 8232 8246 8226 8215 8226 8245 8246 8251 8257 8255 8231 8223 8217 8231 8233 8236 8258 8287 8299 8305 8304 8307 8308 8305 8309 8308 8308 8309 8314 8315 8319 8319 8322 8320 8321 8320 8319 8316 8313 8312 8313 8315 8315 8312 8312 8310 8309 
8296 8297 8295 8295 8297 8295 8289 8295 8293 8293 8293 8293 8293 8294 8295 8291 8291 8290 8257 8257 8275 8288 8286 8276 8264 8232 8259 8283 8286 8288 8291 8287 8258 8250 8255 8240 8224 8218 8224 8222 8224 8257 8253 8235 8230 8231 8229 8230 8226 8228 8249 8291 8298 8300 8304 8303 8305 8307 8305 8308 8306 8311 8315 8315 8318 8316 8316 8315 8315 8315 8313 8310 8312 8309 8311 8311 8312 8311 8309 8310 
8297 8302 8296 8299 8295 8294 8286 8290 8292 8296 8295 8294 8293 8294 8295 8293 8293 8290 8277 8284 8279 8264 8252 8239 8238 8227 8229 8246 8263 8274 8283 8284 8261 8243 8246 8245 8251 8244 8232 8229 8241 8265 8250 8239 8234 8234 8224 8222 8230 8229 8231 8277 8298 8297 8304 8302 8306 8305 8306 8303 8308 8311 8313 8311 8315 8311 8311 8311 8313 8312 8311 8307 8305 8306 8308 8309 8311 8312 8307 8309 
8295 8301 8297 8299 8298 8295 8291 8290 8292 8294 8295 8292 8293 8294 8295 8294 8293 8293 8284 8273 8233 8231 8255 8273 8247 8230 8238 8273 8286 8278 8268 8259 8233 8225 8234 8253 8257 8265 8250 8245 8267 8269 8267 8246 8239 8232 8228 8223 8229 8235 8238 8281 8298 8296 8301 8302 8307 8308 8305 8306 8307 8310 8309 8312 8310 8312 8311 8310 8311 8308 8308 8306 8305 8306 8308 8305 8306 8308 8307 8306 
8293 8293 8298 8302 8297 8296 8292 8294 8291 8292 8294 8293 8295 8292 8294 8292 8292 8286 8266 8242 8235 8263 8285 8271 8242 8252 8274 8288 8290 8287 8269 8240 8247 8230 8228 8240 8261 8268 8258 8269 8277 8271 8277 8274 8255 8241 8240 8237 8235 8236 8255 8291 8294 8296 8301 8299 8303 8306 8307 8307 8307 8312 8309 8310 8309 8308 8312 8310 8311 8306 8303 8302 8302 8303 8306 8306 8306 8309 8303 8303 
8295 8292 8294 8301 8294 8296 8290 8286 8288 8289 8292 8293 8292 8292 8293 8290 8292 8291 8274 8252 8266 8290 8289 8282 8277 8288 8294 8292 8290 8291 8284 8287 8284 8257 8223 8224 8259 8266 8265 8269 8260 8265 8278 8287 8284 8264 8245 8243 8242 8241 8282 8293 8295 8296 8299 8301 8304 8305 8305 8307 8306 8308 8307 8310 8310 8310 8310 8308 8310 8304 8304 8305 8302 8303 8300 8303 8303 8305 8302 8300 
8290 8290 8294 8294 8296 8296 8293 8288 8288 8288 8291 8291 8295 8292 8292 8289 8289 8290 8289 8286 8286 8288 8289 8287 8286 8287 8292 8293 8293 8293 8293 8292 8291 8285 8256 8255 8264 8264 8260 8240 8244 8262 8249 8277 8288 8283 8247 8241 8249 8272 8289 8294 8295 8294 8300 8301 8303 8307 8306 8305 8306 8308 8310 8308 8312 8306 8305 8307 8305 8302 8305 8301 8299 8302 8300 8303 8302 8302 8300 8301 
8291 8286 8292 8291 8293 8296 8292 8293 8289 8290 8291 8292 8291 8294 8293 8291 8291 8290 8289 8288 8289 8284 8291 8290 8295 8298 8295 8291 8294 8296 8290 8288 8284 8278 8274 8278 8281 8266 8256 8237 8242 8261 8241 8256 8285 8290 8269 8247 8274 8291 8292 8293 8297 8293 8298 8302 8301 8307 8308 8309 8305 8310 8308 8306 8310 8307 8306 8307 8303 8303 8303 8300 8300 8299 8300 8301 8303 8303 8299 8301 
8292 8287 8291 8294 8295 8299 8295 8295 8289 8290 8293 8292 8294 8297 8299 8293 8291 8293 8290 8294 8287 8289 8291 8295 8295 8295 8298 8295 8297 8290 8286 8282 8286 8281 8285 8284 8279 8268 8251 8230 8230 8253 8242 8250 8287 8291 8290 8286 8292 8292 8293 8294 8295 8300 8299 8302 8304 8306 8304 8303 8306 8307 8309 8311 8310 8310 8308 8307 8304 8302 8303 8297 8301 8301 8300 8305 8303 8304 8301 8302 
8292 8290 8293 8293 8293 8297 8294 8293 8293 8292 8289 8292 8293 8298 8297 8290 8294 8294 8293 8293 8289 8290 8292 8293 8296 8295 8299 8295 8294 8285 8281 8285 8276 8278 8276 8259 8259 8255 8238 8225 8222 8229 8230 8253 8288 8291 8292 8291 8296 8294 8293 8296 8297 8298 8296 8300 8301 8305 8304 8301 8302 8305 8310 8309 8313 8308 8309 8304 8302 8300 8302 8300 8303 8298 8301 8303 8302 8306 8300 8303 
8292 8290 8289 8290 8290 8295 8290 8292 8292 8292 8294 8290 8292 8292 8292 8291 8287 8292 8290 8290 8287 8289 8294 8292 8294 8297 8296 8295 8285 8277 8285 8273 8242 8233 8245 8234 8249 8249 8246 8233 8235 8248 8234 8274 8278 8271 8281 8290 8295 8294 8295 8294 8294 8295 8296 8295 8299 8302 8301 8302 8301 8306 8309 8310 8309 8306 8306 8303 8304 8300 8298 8300 8301 8300 8303 8302 8306 8304 8300 8301 
8294 8290 8288 8290 8290 8295 8288 8293 8294 8291 8292 8293 8294 8289 8289 8290 8290 8290 8288 8289 8289 8293 8293 8294 8292 8297 8292 8284 8282 8283 8259 8244 8267 8284 8278 8243 8224 8249 8256 8234 8235 8244 8227 8234 8225 8216 8234 8287 8295 8296 8293 8295 8294 8294 8294 8294 8297 8300 8300 8301 8301 8305 8304 8307 8305 8304 8301 8302 8304 8302 8303 8298 8300 8302 8305 8305 8304 8305 8298 8307 
8292 8292 8290 8290 8292 8292 8291 8291 8292 8291 8290 8290 8289 8285 8289 8288 8289 8291 8288 8290 8289 8293 8294 8293 8291 8286 8283 8290 8289 8263 8257 8282 8289 8290 8292 8275 8232 8248 8246 8235 8247 8237 8220 8217 8214 8211 8218 8278 8293 8295 8296 8296 8294 8295 8295 8293 8297 8299 8300 8300 8303 8302 8307 8303 8301 8304 8304 8305 8304 8302 8303 8301 8304 8303 8305 8308 8306 8307 8302 8301 
8292 8291 8293 8293 8291 8295 8291 8291 8292 8288 8291 8288 8289 8288 8289 8289 8290 8293 8293 8289 8289 8292 8292 8291 8292 8289 8280 8281 8276 8266 8280 8281 8280 8290 8299 8285 8238 8235 8238 8232 8239 8236 8224 8225 8236 8218 8226 8289 8307 8300 8298 8300 8296 8294 8295 8298 8296 8296 8298 8301 8301 8303 8305 8304 8303 8304 8304 8306 8302 8304 8304 8301 8301 8306 8303 8303 8304 8309 8301 8305 
8297 8297 8296 8294 8296 8296 8291 8293 8290 8287 8290 8293 8291 8294 8292 8288 8296 8294 8294 8295 8297 8299 8295 8294 8290 8274 8265 8261 8270 8267 8280 8270 8270 8283 8292 8290 8272 8257 8242 8238 8236 8240 8249 8280 8295 8253 8250 8314 8330 8323 8308 8295 8295 8294 8293 8294 8297 8298 8300 8300 8302 8303 8304 8305 8303 8304 8306 8305 8302 8304 8304 8303 8304 8308 8305 8304 8304 8306 8303 8300 
8297 8296 8295 8294 8293 8295 8291 8291 8291 8288 8285 8289 8295 8289 8295 8291 8291 8299 8293 8296 8300 8303 8296 8290 8287 8277 8272 8262 8261 8260 8265 8266 8274 8273 8279 8288 8292 8288 8256 8247 8255 8254 8291 8282 8286 8287 8291 8315 8322 8320 8304 8298 8296 8297 8296 8294 8299 8298 8299 8298 8299 8304 8304 8300 8305 8303 8303 8303 8300 8302 8302 8306 8303 8307 8303 8306 8306 8307 8300 8299 
8297 8293 8295 8292 8291 8294 8289 8291 8291 8286 8288 8290 8294 8294 8295 8292 8295 8295 8290 8296 8297 8301 8297 8290 8289 8290 8293 8288 8286 8279 8282 8281 8282 8285 8290 8293 8293 8293 8292 8289 8287 8285 8297 8302 8312 8318 8319 8320 8322 8317 8305 8299 8297 8297 8296 8295 8298 8298 8297 8299 8301 8304 8302 8301 8304 8301 8304 8305 8300 8299 8300 8303 8307 8304 8306 8307 8307 8305 8300 8299 
8291 8292 8293 8291 8293 8294 8289 8291 8289 8289 8290 8294 8294 8292 8297 8293 8288 8291 8289 8292 8289 8294 8296 8296 8293 8301 8302 8296 8295 8298 8295 8292 8292 8296 8300 8299 8300 8299 8302 8302 8302 8306 8309 8317 8325 8329 8324 8319 8320 8315 8306 8299 8300 8298 8298 8298 8301 8299 8299 8302 8302 8302 8301 8302 8303 8304 8304 8305 8302 8300 8300 8301 8303 8308 8310 8304 8305 8307 8301 8302 
8289 8290 8292 8296 8292 8293 8290 8292 8290 8293 8291 8293 8293 8287 8290 8289 8294 8291 8291 8293 8291 8292 8295 8293 8295 8302 8307 8302 8304 8304 8306 8301 8297 8297 8299 8305 8302 8305 8307 8307 8305 8312 8317 8319 8325 8333 8330 8323 8323 8315 8301 8300 8299 8299 8296 8297 8297 8298 8300 8301 8300 8302 8301 8302 8302 8299 8306 8303 8303 8303 8303 8304 8304 8310 8307 8307 8305 8306 8300 8303 
8286 8292 8293 8293 8290 8294 8289 8292 8290 8292 8292 8292 8290 8288 8288 8285 8288 8289 8295 8293 8292 8293 8293 8294 8283 8291 8295 8296 8302 8302 8308 8307 8301 8297 8299 8309 8309 8312 8316 8317 8318 8320 8326 8326 8331 8336 8330 8317 8304 8297 8296 8299 8299 8295 8297 8295 8296 8298 8300 8299 8300 8300 8301 8298 8302 8302 8304 8304 8304 8304 8301 8305 8303 8307 8306 8304 8306 8301 8301 8302 
8285 8287 8290 8285 8286 8291 8290 8289 8287 8289 8287 8291 8288 8285 8291 8285 8286 8291 8296 8295 8293 8294 8295 8297 8291 8291 8294 8289 8289 8292 8293 8295 8297 8296 8297 8307 8305 8314 8319 8318 8317 8320 8319 8314 8324 8333 8321 8308 8301 8295 8298 8298 8299 8295 8295 8293 8297 8298 8301 8300 8299 8303 8301 8302 8299 8302 8302 8303 8302 8301 8305 8306 8305 8304 8306 8307 8303 8304 8299 8300 
8280 8280 8290 8283 8284 8292 8288 8286 8285 8287 8286 8286 8288 8287 8291 8288 8290 8293 8297 8298 8294 8292 8293 8299 8300 8301 8303 8300 8302 8300 8296 8297 8297 8300 8305 8308 8309 8315 8312 8315 8314 8312 8314 8314 8319 8321 8320 8312 8302 8297 8300 8301 8296 8296 8298 8299 8297 8295 8298 8301 8300 8303 8304 8303 8306 8302 8304 8304 8302 8301 8305 8305 8304 8307 8306 8306 8302 8304 8299 8300 
8276 8278 8280 8283 8280 8288 8287 8287 8287 8286 8288 8285 8289 8287 8289 8289 8290 8293 8294 8294 8294 8291 8295 8300 8302 8306 8306 8306 8309 8307 8305 8305 8305 8303 8309 8309 8309 8311 8315 8313 8315 8312 8313 8318 8317 8320 8316 8311 8301 8299 8299 8297 8300 8295 8295 8299 8299 8296 8296 8301 8303 8306 8304 8304 8302 8308 8304 8299 8303 8302 8302 8306 8306 8302 8304 8304 8305 8303 8299 8300 
8272 8277 8276 8279 8277 8287 8284 8286 8284 8282 8282 8286 8288 8291 8288 8288 8289 8294 8290 8296 8293 8292 8296 8299 8303 8310 8310 8312 8313 8309 8310 8307 8309 8303 8307 8308 8306 8306 8312 8313 8310 8310 8309 8314 8315 8312 8309 8309 8301 8293 8294 8295 8295 8297 8296 8296 8299 8296 8296 8298 8303 8302 8303 8301 8304 8304 8299 8300 8298 8298 8303 8303 8302 8306 8303 8302 8300 8304 8300 8301 
8271 8276 8275 8273 8275 8282 8280 8279 8283 8281 8282 8282 8284 8289 8293 8292 8296 8299 8294 8296 8293 8296 8298 8297 8303 8313 8319 8316 8316 8317 8317 8312 8310 8304 8306 8307 8303 8309 8315 8311 8309 8312 8311 8313 8309 8312 8311 8307 8295 8294 8296 8298 8297 8296 8298 8297 8297 8295 8297 8298 8300 8304 8303 8300 8300 8303 8305 8302 8306 8300 8301 8303 8306 8306 8301 8301 8300 8300 8298 8299 
8264 8268 8266 8265 8271 8276 8273 8275 8276 8273 8276 8275 8285 8287 8295 8296 8295 8296 8298 8298 8297 8300 8301 8305 8305 8317 8321 8319 8320 8320 8323 8318 8316 8317 8319 8315 8312 8314 8315 8314 8313 8315 8312 8311 8307 8313 8307 8302 8296 8295 8298 8300 8299 8297 8294 8297 8295 8294 8294 8296 8297 8296 8296 8298 8300 8300 8303 8308 8305 8305 8304 8302 8306 8304 8302 8303 8302 8299 8298 8298 
8261 8259 8257 8260 8262 8272 8274 8273 8276 8278 8281 8277 8283 8291 8295 8299 8300 8299 8299 8303 8307 8307 8308 8309 8311 8319 8321 8318 8323 8323 8322 8322 8320 8323 8323 8328 8321 8320 8318 8315 8317 8317 8316 8309 8311 8310 8305 8300 8302 8298 8302 8302 8299 8296 8293 8295 8294 8292 8291 8290 8294 8292 8294 8293 8299 8297 8302 8299 8306 8304 8304 8304 8307 8305 8303 8303 8301 8301 8295 8296 
8257 8253 8254 8255 8256 8267 8276 8284 8288 8297 8304 8293 8287 8291 8298 8305 8305 8307 8307 8309 8314 8313 8310 8305 8312 8321 8320 8319 8324 8324 8325 8324 8326 8327 8330 8326 8322 8318 8317 8318 8322 8322 8319 8310 8309 8306 8304 8301 8286 8293 8304 8301 8301 8294 8298 8292 8293 8291 8291 8287 8285 8290 8287 8292 8294 8296 8298 8296 8304 8302 8303 8307 8308 8308 8308 8307 8302 8302 8296 8296 
8258 8250 8257 8269 8275 8279 8284 8297 8310 8314 8309 8297 8305 8324 8329 8318 8318 8318 8315 8316 8315 8317 8304 8298 8305 8321 8325 8324 8322 8325 8326 8327 8330 8325 8328 8328 8324 8322 8321 8319 8323 8324 8318 8307 8305 8306 8302 8291 8281 8279 8290 8304 8300 8296 8295 8296 8295 8293 8288 8283 8285 8285 8286 8286 8285 8292 8294 8293 8300 8300 8308 8308 8308 8308 8311 8311 8304 8302 8301 8298 
8262 8268 8283 8286 8287 8290 8285 8284 8289 8289 8291 8301 8335 8344 8333 8324 8325 8323 8327 8325 8319 8321 8305 8295 8298 8311 8323 8323 8321 8322 8325 8326 8327 8327 8328 8327 8325 8317 8319 8320 8321 8321 8314 8306 8303 8305 8300 8294 8276 8275 8283 8305 8302 8298 8294 8296 8297 8299 8292 8283 8282 8283 8283 8285 8277 8282 8288 8293 8298 8299 8299 8308 8309 8306 8309 8304 8304 8303 8297 8297 
8303 8319 8317 8316 8317 8310 8320 8306 8285 8284 8297 8332 8347 8346 8335 8334 8326 8330 8328 8325 8323 8324 8312 8304 8301 8309 8319 8324 8324 8324 8326 8325 8322 8324 8327 8323 8318 8324 8325 8326 8322 8320 8313 8302 8305 8304 8300 8289 8279 8282 8303 8316 8307 8305 8299 8305 8310 8304 8293 8285 8279 8279 8279 8278 8278 8283 8288 8292 8298 8302 8300 8302 8308 8308 8307 8306 8307 8303 8298 8297 
8312 8324 8320 8331 8336 8340 8317 8310 8294 8313 8337 8349 8352 8346 8338 8335 8333 8336 8333 8324 8328 8332 8331 8319 8300 8312 8318 8322 8327 8328 8325 8322 8322 8324 8324 8324 8320 8318 8325 8320 8318 8314 8309 8302 8302 8298 8288 8280 8282 8298 8320 8327 8329 8322 8322 8324 8322 8323 8310 8293 8287 8285 8281 8275 8278 8286 8290 8285 8302 8293 8302 8300 8299 8300 8305 8305 8307 8301 8295 8297 
8317 8324 8333 8338 8335 8320 8302 8301 8314 8340 8352 8348 8343 8342 8340 8328 8336 8338 8335 8335 8330 8334 8336 8331 8311 8304 8304 8310 8314 8315 8317 8324 8321 8321 8328 8326 8324 8319 8322 8322 8312 8307 8300 8297 8289 8286 8280 8276 8284 8313 8325 8327 8322 8327 8328 8327 8327 8326 8323 8315 8293 8289 8283 8277 8282 8294 8282 8286 8297 8292 8296 8308 8305 8301 8306 8308 8300 8302 8298 8303 
8316 8327 8335 8324 8310 8304 8297 8316 8344 8356 8355 8345 8338 8338 8340 8337 8339 8340 8339 8333 8334 8335 8341 8341 8326 8306 8298 8296 8294 8294 8297 8293 8296 8303 8304 8303 8299 8298 8298 8292 8286 8285 8281 8282 8281 8280 8278 8280 8307 8322 8327 8329 8325 8317 8326 8325 8326 8323 8321 8315 8307 8294 8289 8279 8288 8291 8282 8293 8293 8293 8294 8302 8301 8301 8302 8303 8303 8299 8297 8301 
8327 8328 8322 8311 8300 8307 8321 8345 8357 8361 8348 8343 8339 8342 8343 8336 8333 8332 8334 8338 8338 8340 8342 8342 8333 8311 8301 8293 8291 8292 8287 8286 8288 8292 8296 8293 8292 8291 8288 8286 8285 8282 8283 8279 8283 8283 8275 8293 8318 8322 8324 8330 8321 8318 8324 8324 8326 8327 8323 8320 8313 8301 8285 8279 8283 8288 8284 8281 8291 8296 8303 8300 8303 8305 8301 8303 8301 8305 8299 8301 
8327 8308 8298 8295 8296 8319 8343 8356 8358 8356 8347 8327 8340 8335 8342 8338 8336 8334 8327 8333 8341 8344 8345 8345 8343 8305 8306 8296 8296 8293 8292 8291 8292 8290 8293 8295 8292 8291 8288 8292 8289 8290 8287 8288 8289 8283 8285 8305 8330 8320 8326 8326 8323 8323 8325 8326 8327 8330 8327 8323 8316 8308 8288 8281 8279 8284 8286 8289 8289 8291 8305 8301 8304 8307 8308 8304 8302 8304 8302 8297 
8318 8302 8309 8302 8302 8310 8318 8320 8326 8319 8314 8308 8322 8324 8322 8315 8313 8322 8314 8323 8329 8326 8330 8338 8339 8320 8298 8293 8293 8296 8298 8292 8296 8294 8295 8301 8298 8292 8289 8295 8286 8294 8291 8290 8292 8291 8309 8328 8326 8324 8325 8328 8319 8319 8324 8325 8321 8326 8323 8321 8319 8312 8301 8289 8284 8285 8291 8295 8290 8293 8303 8305 8303 8305 8306 8307 8301 8302 8300 8302 
8307 8308 8304 8304 8303 8298 8296 8290 8295 8293 8291 8281 8288 8292 8299 8295 8298 8301 8297 8301 8300 8306 8307 8310 8323 8317 8319 8308 8292 8286 8287 8291 8288 8289 8282 8288 8291 8282 8291 8298 8291 8287 8284 8300 8310 8313 8320 8323 8319 8316 8326 8326 8314 8310 8318 8317 8318 8324 8319 8315 8315 8317 8307 8288 8279 8283 8285 8299 8302 8294 8302 8306 8306 8303 8309 8309 8308 8302 8304 8299 
8308 8305 8304 8304 8299 8301 8291 8295 8295 8299 8293 8275 8277 8280 8280 8274 8280 8282 8275 8273 8272 8270 8276 8285 8299 8291 8294 8292 8292 8286 8290 8281 8279 8289 8286 8290 8286 8288 8291 8301 8294 8299 8301 8300 8301 8300 8312 8320 8316 8310 8307 8301 8298 8300 8295 8297 8304 8305 8309 8301 8306 8301 8295 8285 8284 8283 8286 8299 8309 8308 8301 8304 8306 8309 8307 8311 8313 8306 8304 8308 
8328 8315 8307 8309 8307 8312 8309 8305 8304 8296 8296 8280 8284 8289 8289 8280 8285 8288 8284 8288 8279 8283 8282 8288 8291 8295 8294 8295 8291 8287 8289 8290 8290 8288 8292 8298 8294 8295 8297 8298 8301 8301 8300 8300 8294 8297 8310 8317 8317 8309 8295 8286 8278 8277 8282 8284 8294 8297 8296 8298 8300 8298 8292 8291 8290 8287 8292 8299 8302 8305 8303 8306 8307 8308 8310 8317 8308 8310 8308 8305 


