P2
80 60
8329
8306 8294 8296 8297 8298 8294 8290 8293 8292 8292 8296 8292 8293 8296 8297 8293 8297 8297 8297 8296 8300 8297 8296 8300 8297 8296 8297 8298 8299 8301 8300 8304 8305 8305 8304 8306 8303 8305 8302 8304 8301 8301 8300 8294 8297 8296 8294 8297 8297 8295 8291 8291 8288 8288 8285 8285 8282 8280 8282 8282 8281 8283 8282 8282 8281 8281 8281 8276 8279 8276 8274 8273 8273 8271 8270 8270 8265 8270 8260 8259 
8300 8296 8294 8299 8300 8298 8296 8297 8294 8291 8295 8296 8294 8297 8300 8295 8297 8295 8297 8299 8301 8295 8299 8300 8299 8296 8297 8300 8303 8302 8303 8304 8309 8308 8308 8308 8308 8304 8304 8304 8303 8303 8301 8296 8295 8295 8293 8299 8296 8295 8292 8291 8287 8285 8286 8284 8281 8278 8282 8283 8281 8281 8285 8281 8282 8280 8283 8282 8277 8276 8273 8274 8273 8272 8269 8268 8269 8265 8259 8262 
8297 8299 8295 8290 8297 8296 8294 8288 8289 8286 8293 8296 8294 8296 8297 8298 8295 8296 8299 8298 8301 8296 8294 8299 8300 8299 8296 8301 8301 8302 8304 8304 8309 8309 8308 8307 8308 8308 8302 8302 8301 8302 8300 8297 8294 8294 8291 8296 8295 8295 8293 8290 8285 8285 8287 8282 8282 8278 8277 8279 8280 8282 8284 8283 8281 8282 8279 8278 8278 8277 8275 8274 8270 8271 8272 8271 8268 8266 8257 8265 
8298 8298 8296 8293 8294 8296 8290 8288 8287 8289 8293 8293 8296 8296 8295 8297 8293 8300 8294 8297 8297 8294 8295 8297 8299 8296 8296 8301 8300 8303 8302 8301 8309 8307 8306 8305 8305 8302 8300 8304 8299 8300 8298 8296 8292 8289 8289 8296 8292 8294 8291 8287 8288 8286 8284 8282 8279 8277 8277 8277 8277 8279 8281 8283 8279 8277 8280 8279 8277 8276 8274 8273 8273 8271 8271 8271 8266 8264 8259 8261 
8297 8295 8292 8291 8295 8292 8286 8289 8285 8285 8294 8291 8297 8293 8292 8293 8291 8291 8292 8295 8298 8294 8294 8295 8299 8295 8296 8301 8299 8301 8300 8300 8307 8304 8303 8305 8304 8302 8300 8300 8297 8297 8296 8293 8292 8291 8287 8293 8290 8292 8287 8286 8284 8283 8283 8281 8280 8277 8278 8277 8276 8277 8279 8279 8280 8277 8279 8277 8278 8279 8274 8272 8275 8271 8270 8267 8264 8265 8257 8255 
8291 8296 8289 8290 8292 8290 8285 8288 8287 8285 8289 8288 8292 8292 8289 8289 8290 8288 8291 8295 8298 8293 8294 8297 8295 8293 8294 8297 8300 8299 8299 8300 8302 8304 8306 8305 8301 8301 8296 8299 8299 8294 8294 8291 8287 8289 8285 8291 8290 8289 8285 8285 8282 8280 8282 8278 8281 8277 8280 8276 8276 8277 8278 8277 8278 8277 8275 8276 8274 8276 8274 8271 8270 8268 8268 8267 8263 8266 8261 8257 
8289 8294 8289 8291 8292 8285 8286 8285 8285 8284 8289 8284 8291 8285 8287 8288 8289 8291 8294 8296 8296 8290 8295 8297 8299 8293 8296 8298 8297 8299 8296 8299 8302 8299 8304 8304 8300 8299 8300 8298 8297 8296 8295 8292 8289 8287 8289 8291 8290 8289 8285 8285 8282 8280 8280 8277 8278 8277 8276 8279 8277 8275 8279 8277 8273 8276 8273 8271 8272 8273 8273 8268 8267 8267 8264 8264 8265 8263 8258 8257 
8288 8291 8288 8290 8291 8287 8281 8285 8284 8284 8288 8286 8288 8288 8291 8288 8288 8290 8293 8294 8294 8295 8295 8296 8299 8294 8297 8300 8295 8299 8297 8299 8302 8301 8304 8299 8300 8299 8299 8296 8297 8293 8293 8290 8286 8290 8287 8290 8288 8287 8285 8284 8283 8281 8278 8279 8276 8277 8278 8276 8275 8278 8277 8272 8272 8275 8273 8272 8272 8270 8272 8267 8265 8264 8263 8261 8258 8260 8257 8256 
8282 8289 8282 8291 8289 8286 8283 8284 8285 8283 8286 8289 8288 8287 8287 8289 8285 8292 8293 8294 8296 8291 8293 8297 8297 8293 8295 8296 8296 8298 8295 8297 8299 8301 8296 8298 8301 8298 8294 8297 8294 8294 8293 8290 8287 8286 8285 8289 8286 8287 8285 8284 8282 8280 8280 8279 8277 8274 8275 8275 8274 8276 8277 8272 8274 8270 8272 8271 8269 8269 8269 8262 8263 8261 8261 8260 8259 8258 8254 8253 
8281 8285 8284 8285 8282 8284 8283 8285 8284 8287 8286 8289 8290 8288 8289 8290 8290 8289 8293 8294 8294 8291 8293 8296 8299 8295 8296 8293 8295 8293 8293 8296 8300 8299 8300 8295 8297 8299 8294 8295 8291 8291 8292 8286 8286 8286 8284 8288 8289 8285 8282 8284 8281 8281 8278 8276 8274 8274 8275 8277 8277 8279 8273 8273 8272 8271 8270 8267 8266 8267 8266 8261 8260 8261 8260 8259 8256 8256 8252 8251 
8282 8280 8285 8283 8279 8281 8280 8283 8284 8284 8285 8286 8290 8288 8288 8286 8290 8291 8293 8292 8292 8293 8292 8296 8296 8292 8295 8296 8294 8294 8294 8294 8298 8295 8298 8295 8295 8297 8292 8291 8292 8288 8287 8284 8285 8283 8284 8289 8286 8286 8282 8281 8280 8280 8278 8277 8277 8276 8274 8277 8274 8274 8273 8271 8270 8271 8271 8267 8264 8267 8264 8262 8258 8261 8260 8260 8253 8256 8250 8246 
8278 8285 8282 8278 8286 8284 8280 8278 8282 8278 8285 8286 8289 8287 8288 8288 8288 8288 8289 8292 8294 8291 8291 8294 8295 8290 8291 8293 8292 8292 8292 8294 8299 8296 8294 8294 8294 8290 8293 8290 8285 8288 8285 8285 8284 8279 8279 8284 8287 8282 8282 8280 8279 8277 8278 8277 8276 8272 8273 8273 8272 8273 8271 8271 8267 8268 8269 8264 8265 8264 8263 8258 8259 8260 8257 8256 8251 8255 8246 8250 
8280 8281 8280 8279 8280 8281 8278 8281 8277 8280 8284 8288 8284 8286 8287 8286 8285 8288 8287 8288 8290 8291 8289 8291 8295 8288 8291 8292 8293 8290 8293 8288 8297 8294 8295 8291 8293 8289 8288 8287 8289 8288 8286 8282 8281 8277 8277 8280 8282 8283 8279 8281 8279 8278 8276 8272 8274 8271 8269 8270 8268 8272 8270 8268 8263 8266 8265 8267 8264 8265 8262 8259 8259 8256 8256 8254 8250 8249 8243 8245 
8276 8281 8278 8278 8278 8280 8279 8281 8278 8279 8286 8285 8284 8287 8287 8285 8286 8284 8287 8289 8290 8287 8290 8292 8291 8286 8288 8289 8294 8290 8289 8289 8291 8293 8291 8290 8288 8290 8285 8288 8284 8286 8284 8277 8279 8278 8277 8282 8281 8280 8278 8281 8275 8276 8274 8272 8271 8270 8271 8270 8270 8271 8270 8269 8267 8265 8267 8263 8263 8260 8260 8257 8257 8257 8255 8253 8248 8249 8245 8240 
8274 8278 8276 8278 8281 8277 8277 8275 8276 8278 8284 8286 8282 8282 8287 8283 8281 8281 8286 8285 8288 8286 8286 8290 8288 8286 8286 8288 8288 8287 8286 8288 8293 8289 8287 8293 8289 8290 8284 8284 8282 8281 8281 8279 8280 8277 8277 8282 8280 8281 8279 8276 8273 8274 8274 8271 8270 8271 8270 8269 8266 8269 8269 8266 8264 8266 8263 8258 8260 8258 8258 8253 8252 8251 8253 8251 8246 8248 8242 8245 
8273 8279 8276 8276 8278 8276 8274 8275 8280 8278 8280 8282 8280 8283 8282 8281 8280 8283 8284 8285 8288 8284 8285 8288 8286 8281 8285 8285 8287 8287 8287 8286 8289 8286 8286 8286 8287 8283 8283 8283 8281 8283 8279 8276 8276 8275 8274 8279 8279 8280 8277 8274 8271 8275 8274 8273 8270 8267 8272 8268 8266 8266 8268 8265 8264 8262 8258 8257 8258 8258 8257 8251 8254 8254 8253 8250 8248 8247 8240 8241 
8272 8276 8274 8272 8279 8272 8276 8275 8270 8276 8281 8278 8281 8279 8282 8280 8277 8281 8282 8283 8287 8284 8283 8285 8283 8280 8283 8284 8286 8284 8281 8283 8283 8282 8283 8284 8284 8281 8278 8284 8278 8278 8277 8278 8273 8275 8273 8281 8277 8278 8276 8276 8272 8272 8274 8272 8270 8269 8268 8271 8264 8267 8266 8263 8260 8262 8259 8256 8259 8257 8253 8253 8251 8251 8251 8248 8246 8245 8241 8240 
8274 8276 8273 8274 8276 8276 8272 8275 8269 8275 8276 8280 8280 8278 8280 8280 8277 8278 8279 8282 8284 8282 8285 8287 8285 8277 8280 8279 8283 8283 8280 8280 8282 8282 8283 8280 8280 8279 8275 8278 8274 8276 8276 8271 8272 8270 8271 8277 8274 8278 8273 8275 8270 8272 8270 8271 8266 8268 8270 8265 8267 8268 8266 8264 8259 8258 8258 8255 8253 8253 8255 8250 8252 8251 8252 8247 8247 8248 8238 8234 
8274 8276 8275 8271 8275 8274 8272 8271 8275 8276 8280 8277 8279 8277 8275 8279 8279 8278 8282 8280 8285 8281 8282 8281 8280 8278 8282 8282 8281 8279 8276 8276 8277 8281 8280 8279 8276 8276 8273 8273 8273 8275 8272 8270 8269 8268 8269 8275 8272 8273 8271 8272 8267 8268 8270 8266 8268 8268 8268 8266 8263 8265 8266 8261 8256 8257 8257 8252 8252 8252 8253 8249 8251 8249 8250 8249 8245 8247 8237 8235 
8273 8277 8273 8272 8274 8274 8273 8273 8273 8276 8281 8281 8278 8277 8278 8279 8277 8281 8279 8280 8286 8282 8278 8278 8278 8272 8272 8270 8258 8269 8270 8248 8246 8269 8272 8262 8243 8227 8233 8267 8269 8271 8270 8267 8268 8266 8266 8275 8274 8271 8270 8269 8269 8270 8270 8267 8266 8266 8264 8268 8264 8265 8265 8257 8256 8256 8253 8255 8253 8254 8252 8251 8249 8251 8247 8251 8247 8242 8237 8238 
8272 8276 8271 8267 8273 8272 8267 8273 8271 8274 8279 8276 8277 8277 8277 8275 8277 8278 8280 8279 8283 8280 8274 8265 8247 8241 8239 8216 8178 8237 8221 8181 8173 8191 8214 8187 8175 8170 8180 8238 8247 8255 8265 8265 8262 8264 8264 8266 8267 8270 8268 8268 8268 8269 8266 8264 8263 8268 8266 8265 8263 8264 8263 8257 8255 8257 8253 8253 8251 8252 8250 8247 8250 8246 8249 8246 8242 8244 8235 8236 
8270 8277 8272 8271 8272 8274 8272 8271 8272 8275 8279 8279 8278 8278 8278 8274 8275 8270 8275 8278 8280 8275 8264 8244 8233 8215 8192 8175 8188 8213 8190 8192 8171 8175 8180 8180 8180 8184 8183 8195 8201 8227 8259 8258 8256 8250 8244 8256 8259 8267 8263 8266 8265 8268 8266 8264 8264 8266 8266 8263 8260 8262 8261 8257 8254 8257 8253 8251 8252 8254 8253 8248 8248 8247 8250 8248 8243 8245 8240 8239 
8271 8273 8272 8270 8271 8270 8269 8270 8270 8273 8276 8274 8274 8275 8278 8276 8275 8271 8273 8275 8276 8275 8275 8270 8269 8263 8243 8200 8187 8194 8206 8241 8229 8203 8201 8185 8172 8165 8170 8182 8193 8204 8237 8240 8234 8209 8198 8204 8217 8247 8259 8262 8261 8264 8264 8262 8260 8262 8261 8261 8260 8262 8262 8255 8253 8256 8253 8253 8249 8251 8251 8247 8249 8248 8251 8250 8246 8244 8237 8238 
8267 8270 8270 8268 8270 8268 8267 8271 8273 8274 8276 8270 8270 8274 8275 8272 8274 8269 8271 8272 8274 8268 8268 8272 8271 8263 8199 8176 8180 8180 8179 8179 8180 8179 8179 8175 8174 8181 8202 8228 8230 8214 8209 8240 8232 8233 8223 8206 8200 8207 8239 8257 8259 8261 8262 8259 8259 8261 8260 8262 8259 8261 8260 8254 8254 8252 8252 8250 8249 8251 8250 8248 8246 8248 8248 8247 8245 8245 8239 8243 
8267 8271 8271 8267 8269 8266 8268 8270 8271 8275 8276 8272 8272 8273 8270 8267 8269 8265 8268 8261 8247 8234 8238 8264 8265 8255 8202 8175 8199 8185 8171 8174 8177 8180 8181 8182 8182 8215 8234 8208 8225 8222 8207 8191 8187 8222 8248 8244 8214 8207 8214 8250 8255 8257 8261 8259 8260 8259 8260 8263 8260 8261 8257 8255 8253 8254 8251 8250 8249 8251 8250 8247 8246 8246 8248 8247 8246 8245 8238 8237 
8265 8267 8270 8266 8271 8268 8266 8270 8270 8271 8275 8273 8270 8266 8249 8241 8244 8234 8221 8203 8194 8185 8187 8218 8220 8195 8185 8184 8240 8199 8171 8165 8174 8180 8185 8187 8199 8238 8220 8220 8220 8201 8194 8207 8225 8246 8250 8256 8249 8229 8207 8222 8252 8257 8258 8255 8261 8261 8259 8261 8256 8257 8256 8253 8253 8253 8253 8251 8249 8252 8248 8247 8246 8247 8247 8250 8245 8245 8239 8241 
8264 8270 8268 8267 8272 8268 8265 8266 8269 8274 8273 8270 8255 8220 8191 8188 8203 8232 8226 8231 8240 8203 8199 8193 8189 8182 8182 8177 8183 8194 8198 8171 8184 8180 8178 8186 8192 8194 8186 8188 8190 8194 8225 8246 8247 8250 8251 8256 8254 8250 8231 8214 8230 8254 8257 8260 8261 8259 8262 8260 8258 8259 8257 8254 8251 8254 8253 8248 8248 8250 8247 8244 8246 8245 8247 8248 8241 8242 8237 8237 
8263 8267 8268 8264 8270 8268 8267 8269 8268 8269 8271 8257 8204 8182 8187 8203 8251 8265 8267 8266 8258 8199 8182 8188 8202 8180 8172 8179 8167 8167 8199 8201 8207 8185 8168 8175 8187 8187 8186 8188 8185 8184 8191 8230 8247 8250 8250 8255 8254 8252 8249 8241 8223 8246 8258 8257 8258 8261 8260 8259 8255 8256 8255 8252 8251 8253 8251 8247 8247 8248 8247 8245 8247 8243 8247 8246 8243 8244 8239 8236 
8263 8268 8268 8270 8266 8269 8266 8267 8268 8265 8266 8223 8183 8182 8202 8250 8265 8268 8268 8266 8262 8202 8202 8234 8223 8185 8188 8192 8185 8193 8205 8211 8217 8208 8172 8171 8172 8210 8192 8190 8187 8187 8190 8198 8241 8246 8243 8241 8242 8249 8251 8250 8240 8227 8241 8254 8255 8259 8256 8257 8253 8255 8255 8254 8251 8253 8250 8249 8246 8247 8245 8244 8243 8244 8244 8244 8244 8243 8235 8235 
8262 8266 8265 8264 8268 8269 8265 8267 8268 8262 8257 8196 8186 8197 8249 8266 8264 8263 8256 8246 8228 8222 8237 8245 8217 8193 8192 8199 8193 8203 8211 8212 8216 8203 8177 8167 8167 8209 8232 8231 8201 8191 8194 8193 8223 8225 8200 8198 8197 8210 8232 8250 8249 8237 8217 8241 8256 8256 8257 8254 8253 8257 8255 8253 8251 8252 8250 8248 8243 8246 8245 8243 8243 8241 8240 8242 8242 8242 8240 8236 
8262 8268 8266 8264 8270 8266 8267 8265 8266 8264 8234 8191 8196 8235 8264 8264 8264 8252 8209 8185 8184 8185 8223 8249 8243 8214 8199 8205 8185 8203 8210 8207 8211 8201 8190 8187 8187 8188 8191 8215 8236 8224 8224 8226 8223 8237 8230 8224 8202 8198 8199 8234 8253 8253 8236 8237 8255 8256 8255 8256 8253 8255 8255 8253 8251 8252 8250 8245 8244 8244 8244 8243 8238 8238 8240 8239 8238 8241 8234 8232 
8263 8267 8266 8265 8269 8264 8266 8266 8266 8263 8212 8198 8223 8260 8266 8261 8262 8236 8186 8180 8193 8227 8257 8260 8259 8237 8223 8218 8187 8196 8207 8206 8205 8198 8194 8193 8191 8195 8210 8210 8232 8245 8250 8249 8248 8247 8246 8250 8241 8209 8198 8207 8243 8252 8254 8254 8257 8254 8256 8255 8253 8255 8255 8255 8251 8250 8249 8245 8243 8245 8245 8241 8242 8243 8240 8241 8238 8237 8233 8232 
8263 8270 8264 8266 8269 8265 8261 8266 8266 8249 8204 8208 8255 8261 8264 8263 8261 8253 8206 8195 8245 8256 8260 8262 8252 8227 8229 8200 8183 8181 8186 8191 8201 8197 8198 8191 8189 8202 8239 8247 8250 8249 8252 8248 8246 8249 8246 8249 8251 8245 8215 8208 8225 8232 8255 8255 8255 8252 8254 8251 8251 8255 8253 8251 8252 8250 8249 8247 8245 8248 8247 8241 8241 8243 8240 8241 8238 8238 8231 8232 
8265 8268 8268 8265 8266 8263 8263 8268 8265 8243 8203 8245 8264 8262 8265 8265 8260 8260 8245 8247 8262 8260 8259 8262 8240 8249 8249 8197 8179 8176 8178 8175 8191 8199 8206 8200 8193 8199 8236 8249 8249 8250 8254 8250 8246 8247 8249 8252 8251 8253 8248 8247 8248 8251 8256 8254 8253 8252 8253 8255 8254 8253 8251 8250 8250 8248 8249 8248 8249 8250 8242 8241 8241 8242 8237 8239 8236 8236 8230 8232 
8262 8267 8264 8265 8268 8267 8264 8267 8266 8239 8228 8260 8263 8263 8265 8263 8264 8260 8263 8264 8263 8263 8261 8260 8233 8253 8250 8204 8182 8176 8172 8171 8175 8193 8200 8198 8198 8202 8231 8249 8249 8250 8253 8248 8246 8247 8248 8251 8251 8254 8253 8254 8252 8253 8257 8254 8255 8253 8254 8252 8253 8251 8252 8253 8248 8250 8251 8250 8249 8250 8246 8245 8242 8243 8239 8239 8235 8235 8226 8228 
8265 8269 8268 8265 8269 8267 8267 8264 8267 8252 8256 8263 8263 8265 8265 8263 8264 8263 8264 8264 8264 8264 8261 8258 8239 8257 8252 8220 8183 8178 8172 8172 8176 8202 8201 8199 8194 8210 8244 8248 8251 8248 8249 8249 8247 8247 8246 8252 8250 8251 8247 8251 8251 8256 8255 8254 8255 8252 8254 8253 8251 8251 8254 8249 8248 8251 8251 8248 8249 8249 8246 8243 8244 8241 8238 8239 8237 8233 8226 8227 
8266 8271 8265 8266 8273 8271 8267 8267 8266 8259 8267 8268 8267 8263 8265 8264 8262 8262 8262 8264 8269 8263 8263 8255 8241 8252 8252 8243 8192 8182 8180 8180 8194 8195 8194 8212 8220 8236 8241 8248 8249 8248 8250 8249 8245 8246 8247 8254 8250 8253 8253 8250 8251 8252 8256 8254 8252 8254 8255 8254 8251 8252 8253 8253 8253 8250 8254 8250 8254 8249 8250 8244 8244 8242 8240 8237 8236 8234 8230 8224 
8266 8269 8267 8265 8271 8270 8266 8264 8262 8264 8268 8268 8265 8264 8263 8262 8262 8261 8263 8263 8265 8261 8259 8241 8239 8252 8251 8247 8210 8181 8176 8197 8199 8198 8210 8206 8206 8228 8229 8240 8243 8244 8247 8247 8249 8246 8246 8252 8249 8250 8247 8250 8251 8252 8255 8255 8253 8254 8254 8255 8251 8251 8252 8254 8252 8254 8251 8252 8252 8251 8250 8246 8247 8245 8243 8238 8235 8234 8225 8227 
8264 8269 8270 8268 8269 8267 8267 8266 8268 8268 8269 8267 8262 8262 8266 8263 8261 8257 8260 8261 8265 8260 8247 8210 8231 8218 8195 8200 8213 8179 8179 8201 8201 8204 8194 8203 8193 8196 8194 8207 8211 8228 8244 8244 8245 8244 8244 8252 8252 8252 8249 8251 8254 8254 8253 8256 8254 8254 8254 8253 8251 8254 8253 8250 8253 8252 8253 8249 8252 8251 8253 8248 8246 8246 8242 8236 8235 8236 8226 8228 
8263 8272 8268 8267 8273 8268 8266 8264 8267 8269 8269 8267 8266 8267 8262 8260 8262 8259 8257 8262 8264 8252 8219 8201 8198 8176 8186 8194 8198 8176 8182 8204 8206 8209 8207 8209 8217 8219 8219 8210 8204 8199 8224 8244 8243 8248 8249 8250 8251 8252 8251 8253 8253 8251 8253 8255 8256 8255 8252 8254 8251 8251 8255 8254 8251 8254 8254 8252 8251 8253 8252 8250 8247 8244 8243 8241 8241 8234 8230 8229 
8263 8268 8263 8267 8270 8266 8267 8267 8264 8267 8270 8266 8266 8267 8264 8262 8263 8260 8259 8260 8258 8226 8204 8198 8184 8201 8233 8239 8241 8210 8200 8214 8212 8213 8194 8213 8197 8189 8184 8200 8224 8209 8204 8237 8242 8245 8246 8251 8250 8251 8250 8251 8252 8251 8256 8252 8254 8256 8256 8254 8252 8251 8252 8254 8252 8254 8252 8250 8251 8250 8251 8248 8249 8244 8247 8241 8240 8236 8226 8229 
8262 8268 8267 8267 8269 8268 8266 8264 8265 8268 8271 8266 8266 8267 8264 8261 8262 8260 8260 8262 8255 8227 8202 8199 8211 8228 8230 8234 8231 8230 8221 8222 8216 8222 8216 8225 8224 8197 8188 8189 8218 8230 8218 8215 8238 8240 8242 8251 8251 8253 8251 8251 8253 8252 8253 8255 8254 8255 8253 8256 8252 8253 8253 8251 8251 8255 8253 8251 8250 8250 8251 8248 8248 8245 8244 8243 8237 8234 8232 8230 
8261 8263 8265 8266 8267 8266 8264 8268 8266 8268 8268 8269 8268 8267 8267 8261 8264 8266 8262 8244 8230 8216 8203 8198 8212 8215 8226 8228 8233 8238 8227 8227 8223 8237 8249 8251 8249 8241 8226 8210 8221 8235 8236 8229 8236 8239 8242 8249 8252 8257 8251 8251 8249 8253 8254 8254 8253 8256 8255 8252 8248 8252 8250 8252 8250 8254 8251 8251 8250 8250 8250 8248 8249 8245 8247 8247 8241 8239 8229 8231 
8261 8265 8266 8265 8271 8269 8262 8266 8266 8268 8271 8271 8271 8268 8269 8268 8264 8267 8261 8250 8237 8222 8206 8198 8200 8204 8228 8236 8241 8245 8236 8232 8228 8241 8254 8254 8253 8252 8245 8243 8232 8232 8241 8243 8245 8249 8250 8260 8261 8256 8256 8252 8252 8251 8253 8254 8256 8253 8253 8254 8250 8252 8251 8252 8247 8250 8250 8251 8250 8252 8249 8245 8248 8247 8248 8245 8244 8242 8232 8233 
8263 8263 8266 8268 8270 8271 8268 8267 8268 8267 8271 8273 8271 8269 8272 8271 8271 8268 8266 8254 8234 8228 8224 8222 8222 8226 8235 8240 8237 8239 8240 8242 8250 8253 8238 8242 8255 8256 8251 8252 8247 8244 8248 8249 8251 8259 8264 8272 8270 8258 8257 8253 8254 8254 8253 8255 8250 8253 8254 8251 8251 8249 8252 8251 8248 8249 8252 8248 8251 8249 8251 8248 8248 8247 8246 8245 8242 8243 8236 8235 
8262 8266 8265 8268 8272 8274 8269 8267 8269 8274 8275 8272 8273 8272 8272 8274 8273 8272 8271 8262 8243 8234 8233 8232 8231 8238 8241 8247 8243 8250 8245 8252 8262 8261 8256 8257 8258 8261 8257 8257 8255 8259 8254 8255 8260 8268 8276 8284 8272 8257 8253 8252 8253 8251 8254 8252 8250 8251 8250 8252 8248 8252 8250 8248 8250 8251 8250 8248 8248 8248 8252 8248 8250 8247 8249 8249 8243 8244 8235 8241 
8264 8264 8268 8269 8271 8271 8270 8272 8272 8271 8274 8273 8273 8272 8273 8272 8276 8272 8270 8268 8250 8242 8236 8240 8243 8243 8247 8253 8255 8254 8256 8259 8263 8265 8261 8257 8265 8265 8262 8263 8268 8265 8264 8264 8269 8278 8286 8289 8266 8256 8250 8253 8253 8252 8253 8251 8250 8251 8248 8250 8245 8248 8249 8248 8250 8250 8251 8249 8251 8251 8252 8251 8249 8248 8250 8249 8244 8241 8236 8233 
8267 8264 8269 8266 8271 8272 8273 8270 8272 8272 8276 8273 8273 8271 8277 8272 8275 8273 8274 8274 8268 8246 8243 8243 8243 8247 8251 8259 8260 8259 8259 8263 8271 8275 8271 8256 8264 8267 8269 8267 8267 8268 8266 8265 8274 8284 8284 8268 8258 8255 8251 8250 8252 8255 8253 8250 8250 8248 8250 8250 8246 8249 8250 8248 8249 8249 8250 8249 8249 8250 8250 8250 8251 8251 8252 8248 8245 8244 8235 8239 
8260 8261 8263 8264 8273 8270 8270 8271 8270 8272 8276 8276 8276 8273 8275 8275 8273 8273 8277 8273 8277 8262 8257 8263 8265 8264 8267 8270 8267 8261 8258 8267 8280 8279 8274 8257 8266 8268 8271 8270 8273 8271 8276 8278 8280 8290 8284 8264 8253 8254 8251 8251 8251 8250 8249 8248 8247 8246 8248 8245 8246 8246 8249 8248 8248 8251 8251 8248 8252 8254 8253 8250 8251 8250 8248 8250 8245 8246 8238 8236 
8260 8263 8264 8264 8271 8271 8269 8271 8269 8270 8280 8272 8275 8274 8278 8275 8276 8272 8276 8276 8280 8275 8272 8283 8284 8285 8286 8287 8282 8266 8262 8271 8278 8276 8270 8263 8274 8279 8279 8283 8280 8286 8289 8288 8291 8294 8290 8264 8252 8254 8253 8253 8253 8249 8250 8250 8248 8248 8248 8250 8247 8247 8249 8248 8249 8249 8249 8250 8254 8253 8254 8251 8254 8250 8250 8246 8246 8242 8238 8237 
8257 8262 8263 8266 8272 8271 8275 8273 8271 8274 8278 8274 8273 8276 8277 8275 8278 8275 8275 8277 8282 8282 8285 8293 8296 8296 8300 8300 8295 8289 8268 8271 8274 8272 8269 8267 8287 8287 8289 8292 8292 8294 8297 8298 8302 8298 8289 8262 8252 8254 8253 8250 8247 8253 8249 8253 8248 8246 8249 8247 8245 8246 8248 8247 8248 8250 8251 8250 8255 8253 8255 8248 8253 8252 8252 8250 8247 8246 8239 8232 
8255 8257 8262 8265 8268 8269 8269 8273 8274 8273 8278 8277 8277 8278 8276 8276 8272 8275 8276 8278 8283 8278 8292 8298 8302 8301 8304 8307 8304 8300 8285 8273 8274 8274 8268 8274 8295 8294 8299 8301 8302 8303 8305 8306 8306 8303 8288 8256 8251 8257 8252 8253 8253 8254 8251 8251 8248 8247 8248 8246 8243 8245 8249 8249 8248 8250 8248 8251 8251 8252 8255 8253 8251 8254 8250 8249 8247 8247 8239 8238 
8253 8256 8259 8264 8268 8268 8270 8270 8272 8269 8273 8275 8275 8274 8275 8275 8275 8274 8276 8275 8282 8281 8300 8301 8307 8304 8311 8313 8308 8305 8299 8278 8278 8275 8267 8283 8303 8303 8304 8308 8306 8308 8312 8311 8308 8301 8280 8259 8251 8255 8253 8252 8250 8254 8249 8251 8251 8248 8247 8246 8246 8245 8247 8248 8249 8252 8247 8246 8250 8252 8256 8252 8252 8251 8250 8246 8247 8247 8239 8238 
8251 8252 8256 8264 8268 8268 8268 8269 8271 8271 8271 8273 8275 8270 8274 8274 8272 8274 8272 8272 8279 8279 8297 8304 8309 8306 8312 8316 8315 8311 8305 8291 8276 8275 8263 8286 8305 8307 8310 8309 8310 8311 8313 8311 8306 8301 8275 8256 8251 8254 8251 8251 8252 8254 8251 8250 8249 8249 8248 8246 8241 8247 8246 8247 8248 8248 8249 8249 8248 8253 8255 8253 8254 8252 8251 8247 8243 8246 8236 8241 
8263 8267 8274 8287 8293 8286 8274 8275 8279 8275 8274 8272 8273 8270 8272 8271 8266 8270 8271 8270 8274 8275 8294 8305 8310 8307 8312 8317 8316 8316 8309 8306 8287 8273 8269 8303 8309 8313 8309 8312 8310 8311 8311 8306 8306 8295 8267 8252 8249 8251 8250 8252 8250 8254 8250 8246 8245 8245 8247 8243 8241 8243 8248 8249 8245 8247 8247 8247 8249 8249 8252 8252 8251 8249 8250 8246 8243 8243 8236 8236 
8291 8302 8306 8313 8307 8298 8296 8309 8329 8306 8296 8292 8288 8276 8266 8262 8262 8264 8267 8266 8271 8270 8289 8304 8308 8310 8311 8319 8318 8314 8314 8310 8311 8307 8301 8310 8313 8314 8311 8312 8310 8310 8312 8308 8303 8294 8251 8234 8243 8247 8250 8248 8247 8252 8249 8248 8244 8242 8245 8243 8237 8243 8248 8249 8245 8249 8250 8246 8251 8257 8255 8252 8251 8250 8250 8247 8245 8245 8236 8238 
8291 8309 8301 8294 8291 8289 8294 8304 8304 8302 8303 8308 8298 8265 8254 8253 8253 8256 8258 8256 8260 8260 8279 8301 8305 8305 8314 8314 8318 8316 8315 8315 8317 8314 8317 8315 8317 8313 8314 8310 8308 8309 8309 8306 8305 8289 8241 8228 8228 8241 8248 8249 8248 8251 8250 8247 8244 8244 8241 8241 8237 8241 8245 8247 8247 8249 8250 8249 8248 8253 8253 8249 8250 8251 8248 8245 8246 8244 8237 8237 
8288 8284 8282 8279 8282 8286 8281 8284 8291 8301 8310 8297 8273 8256 8254 8250 8250 8250 8253 8251 8248 8252 8266 8291 8303 8305 8312 8316 8315 8316 8315 8316 8316 8316 8317 8315 8316 8315 8310 8313 8308 8311 8306 8306 8297 8281 8233 8229 8227 8234 8245 8247 8247 8248 8247 8245 8244 8242 8245 8241 8237 8241 8247 8241 8243 8247 8247 8243 8249 8252 8250 8250 8248 8246 8245 8245 8245 8245 8236 8240 
8297 8294 8297 8306 8306 8283 8281 8283 8288 8315 8310 8271 8261 8256 8261 8262 8253 8253 8251 8248 8246 8252 8261 8286 8296 8303 8307 8314 8311 8315 8314 8318 8321 8317 8316 8317 8316 8313 8309 8312 8310 8310 8308 8301 8298 8276 8232 8230 8230 8239 8245 8244 8246 8243 8243 8244 8241 8240 8242 8239 8237 8238 8245 8244 8244 8245 8248 8248 8249 8249 8251 8249 8248 8246 8249 8247 8243 8247 8238 8239 
8319 8323 8314 8306 8309 8294 8292 8301 8300 8302 8299 8279 8271 8269 8265 8270 8264 8260 8260 8260 8262 8255 8264 8283 8300 8301 8308 8315 8313 8316 8317 8317 8319 8320 8320 8321 8320 8318 8310 8312 8312 8309 8310 8306 8298 8278 8232 8240 8238 8238 8238 8235 8239 8244 8246 8249 8252 8253 8249 8249 8246 8243 8247 8248 8247 8246 8250 8259 8254 8257 8261 8258 8253 8248 8248 8251 8247 8252 8237 8239 


