P2
80 60
8457
8314 8317 8315 8313 8310 8312 8310 8310 8306 8306 8305 8305 8304 8306 8302 8301 8305 8302 8301 8299 8300 8304 8303 8304 8307 8307 8309 8307 8311 8313 8316 8321 8320 8323 8317 8318 8317 8318 8314 8313 8304 8306 8307 8307 8308 8304 8301 8298 8300 8298 8297 8298 8298 8296 8301 8302 8299 8300 8302 8300 8300 8304 8305 8306 8304 8306 8308 8316 8313 8311 8318 8321 8319 8325 8322 8328 8324 8321 8323 8323 
8312 8316 8314 8316 8314 8312 8309 8311 8308 8306 8306 8306 8304 8303 8300 8303 8302 8301 8302 8299 8301 8306 8304 8308 8309 8309 8312 8310 8312 8313 8318 8317 8322 8321 8319 8316 8319 8314 8315 8312 8307 8308 8309 8306 8308 8304 8302 8299 8300 8298 8300 8300 8296 8298 8302 8300 8299 8301 8302 8303 8304 8306 8307 8307 8307 8308 8309 8314 8314 8316 8317 8318 8319 8323 8326 8323 8328 8324 8322 8322 
8315 8313 8311 8315 8314 8315 8307 8308 8308 8308 8308 8305 8305 8305 8305 8303 8302 8301 8300 8299 8302 8306 8303 8309 8308 8307 8313 8310 8314 8312 8320 8319 8317 8318 8316 8319 8319 8316 8315 8314 8310 8309 8307 8304 8306 8303 8300 8300 8300 8300 8299 8300 8298 8300 8299 8301 8300 8300 8301 8304 8302 8303 8304 8306 8303 8307 8308 8314 8315 8314 8315 8317 8318 8323 8323 8324 8321 8323 8319 8322 
8309 8314 8312 8310 8311 8312 8308 8309 8305 8305 8304 8303 8302 8306 8302 8301 8301 8298 8301 8301 8301 8302 8299 8306 8306 8306 8310 8309 8313 8314 8314 8317 8319 8320 8317 8320 8315 8314 8313 8311 8304 8309 8308 8305 8304 8304 8298 8297 8300 8297 8299 8300 8298 8297 8301 8298 8300 8300 8302 8302 8302 8305 8306 8304 8306 8308 8308 8313 8313 8313 8313 8316 8312 8318 8316 8321 8319 8319 8319 8319 
8310 8310 8312 8313 8310 8312 8308 8308 8305 8304 8305 8302 8301 8301 8302 8299 8301 8301 8299 8298 8299 8302 8303 8303 8309 8309 8314 8310 8311 8312 8317 8320 8318 8318 8315 8318 8317 8316 8311 8312 8305 8307 8304 8304 8306 8303 8299 8300 8298 8299 8298 8298 8296 8296 8300 8300 8301 8298 8303 8300 8302 8303 8303 8305 8303 8305 8308 8312 8316 8311 8309 8310 8308 8312 8312 8313 8316 8312 8313 8317 
8305 8306 8313 8310 8308 8308 8305 8306 8307 8306 8301 8296 8298 8297 8300 8296 8300 8302 8299 8302 8302 8301 8298 8304 8306 8303 8308 8310 8309 8310 8314 8320 8316 8317 8316 8316 8315 8315 8312 8310 8306 8306 8306 8301 8300 8301 8296 8297 8298 8299 8300 8297 8297 8301 8299 8301 8300 8297 8299 8300 8300 8300 8304 8302 8303 8305 8305 8309 8310 8306 8308 8307 8304 8310 8304 8310 8309 8304 8308 8311 
8307 8311 8310 8307 8307 8307 8304 8305 8304 8299 8301 8298 8298 8297 8297 8292 8296 8299 8298 8300 8299 8300 8299 8303 8308 8306 8312 8307 8307 8311 8314 8315 8317 8317 8315 8317 8316 8313 8309 8311 8307 8305 8303 8304 8304 8300 8300 8300 8299 8296 8294 8298 8296 8299 8300 8297 8297 8298 8299 8298 8301 8300 8304 8302 8302 8302 8306 8306 8306 8304 8307 8306 8304 8305 8305 8302 8305 8302 8303 8306 
8305 8312 8306 8306 8306 8304 8304 8305 8306 8299 8299 8295 8296 8297 8294 8293 8295 8297 8297 8296 8298 8301 8298 8304 8308 8309 8307 8307 8310 8311 8313 8315 8314 8319 8314 8319 8314 8311 8310 8309 8304 8306 8304 8300 8301 8300 8297 8296 8294 8295 8295 8296 8295 8298 8300 8298 8296 8299 8298 8299 8299 8299 8300 8298 8297 8298 8301 8301 8302 8301 8300 8302 8299 8304 8299 8299 8299 8297 8300 8300 
8304 8308 8307 8307 8304 8302 8302 8304 8302 8299 8299 8296 8293 8295 8294 8292 8295 8295 8293 8297 8295 8298 8298 8305 8302 8304 8307 8307 8305 8307 8311 8311 8314 8316 8317 8316 8314 8310 8308 8308 8304 8303 8303 8301 8303 8299 8296 8295 8293 8295 8292 8297 8294 8298 8297 8296 8296 8300 8297 8298 8295 8299 8297 8300 8298 8296 8298 8301 8302 8297 8300 8298 8296 8300 8298 8297 8295 8296 8296 8298 
8301 8304 8305 8305 8303 8302 8298 8304 8304 8297 8297 8296 8293 8292 8291 8292 8292 8293 8298 8296 8295 8295 8296 8300 8303 8304 8307 8304 8304 8308 8307 8310 8312 8314 8314 8313 8311 8311 8312 8308 8303 8304 8305 8303 8305 8299 8297 8295 8292 8295 8295 8294 8293 8296 8298 8292 8293 8293 8297 8297 8296 8294 8298 8294 8296 8297 8297 8296 8297 8294 8294 8295 8296 8296 8293 8295 8293 8292 8294 8291 
8301 8305 8306 8307 8307 8304 8303 8301 8300 8297 8298 8299 8294 8294 8291 8289 8292 8293 8295 8295 8295 8297 8294 8302 8302 8303 8304 8305 8303 8304 8308 8304 8312 8313 8312 8312 8310 8310 8307 8302 8303 8302 8303 8304 8303 8299 8297 8293 8293 8293 8291 8294 8295 8295 8295 8294 8293 8296 8293 8294 8296 8296 8295 8294 8292 8295 8296 8294 8298 8295 8294 8294 8293 8293 8290 8287 8291 8289 8289 8290 
8304 8305 8305 8306 8306 8306 8297 8302 8300 8296 8296 8297 8295 8293 8291 8292 8293 8292 8291 8292 8292 8293 8295 8299 8298 8299 8302 8303 8305 8304 8307 8304 8308 8310 8307 8311 8307 8306 8304 8303 8302 8302 8304 8301 8302 8299 8295 8296 8291 8287 8290 8293 8296 8295 8292 8292 8294 8294 8296 8294 8294 8295 8295 8294 8293 8292 8292 8295 8295 8292 8292 8291 8289 8291 8289 8286 8290 8288 8284 8286 
8304 8306 8305 8305 8304 8300 8299 8300 8297 8293 8296 8293 8291 8292 8289 8290 8290 8294 8292 8290 8293 8294 8294 8295 8297 8297 8301 8300 8301 8301 8305 8303 8306 8310 8304 8307 8305 8301 8302 8299 8297 8302 8300 8299 8302 8297 8291 8291 8288 8289 8291 8291 8290 8294 8293 8291 8291 8294 8294 8294 8292 8293 8295 8294 8291 8291 8292 8297 8294 8290 8292 8288 8286 8290 8288 8285 8284 8286 8283 8283 
8306 8306 8305 8302 8301 8298 8296 8298 8295 8293 8294 8294 8288 8290 8289 8288 8290 8289 8289 8290 8293 8292 8292 8294 8297 8298 8299 8295 8298 8299 8296 8299 8303 8307 8304 8306 8303 8300 8300 8295 8290 8293 8295 8295 8300 8298 8291 8287 8289 8289 8287 8294 8290 8291 8293 8291 8290 8294 8294 8288 8294 8291 8294 8292 8294 8294 8291 8295 8297 8290 8290 8287 8291 8288 8289 8284 8287 8284 8285 8282 
8305 8303 8301 8304 8302 8301 8296 8297 8295 8291 8293 8292 8291 8293 8288 8289 8287 8293 8290 8292 8288 8294 8291 8292 8294 8294 8298 8294 8293 8268 8239 8237 8283 8295 8291 8299 8292 8282 8265 8252 8246 8251 8269 8288 8293 8293 8287 8288 8286 8287 8287 8291 8289 8291 8295 8292 8291 8292 8292 8291 8293 8293 8294 8295 8291 8291 8293 8293 8294 8292 8290 8289 8288 8290 8288 8289 8285 8284 8285 8284 
8300 8302 8303 8302 8302 8298 8297 8299 8295 8296 8293 8293 8291 8293 8289 8288 8287 8290 8292 8291 8288 8288 8287 8291 8290 8288 8294 8285 8278 8233 8222 8216 8238 8237 8235 8273 8265 8223 8213 8210 8208 8222 8263 8286 8291 8289 8282 8281 8284 8286 8288 8292 8290 8288 8290 8291 8289 8291 8291 8290 8293 8293 8293 8293 8296 8294 8291 8296 8295 8291 8288 8289 8288 8291 8288 8286 8288 8284 8285 8280 
8299 8301 8300 8302 8299 8298 8294 8296 8294 8291 8293 8290 8288 8288 8286 8288 8287 8289 8289 8289 8287 8288 8283 8277 8266 8255 8252 8238 8248 8235 8231 8238 8215 8215 8216 8257 8248 8217 8215 8218 8232 8271 8286 8285 8287 8285 8280 8279 8281 8281 8286 8291 8287 8290 8290 8288 8288 8289 8292 8292 8291 8293 8291 8294 8293 8294 8293 8294 8297 8292 8292 8290 8289 8290 8289 8287 8283 8283 8277 8286 
8300 8303 8302 8301 8300 8298 8293 8295 8293 8293 8293 8292 8292 8288 8283 8283 8287 8288 8287 8287 8287 8287 8274 8272 8274 8270 8257 8230 8264 8232 8232 8247 8224 8234 8221 8248 8238 8237 8248 8229 8239 8248 8267 8281 8281 8279 8276 8278 8265 8261 8268 8276 8281 8284 8287 8288 8289 8289 8291 8291 8293 8289 8292 8294 8292 8294 8297 8297 8297 8293 8290 8290 8288 8289 8288 8288 8288 8286 8281 8283 
8301 8301 8302 8300 8299 8297 8295 8296 8294 8290 8292 8290 8288 8271 8234 8241 8271 8282 8284 8285 8282 8285 8284 8289 8289 8293 8291 8266 8248 8258 8236 8243 8251 8244 8266 8267 8256 8267 8240 8229 8231 8233 8239 8247 8256 8268 8270 8260 8250 8244 8245 8246 8245 8266 8284 8285 8287 8291 8290 8291 8291 8292 8293 8295 8292 8292 8291 8295 8294 8290 8292 8289 8287 8291 8285 8290 8288 8284 8281 8286 
8300 8302 8303 8299 8294 8297 8292 8296 8291 8289 8290 8288 8278 8234 8210 8205 8226 8245 8257 8260 8261 8264 8266 8279 8288 8289 8289 8246 8228 8223 8222 8218 8257 8237 8236 8234 8226 8256 8265 8262 8257 8240 8232 8226 8245 8255 8272 8274 8274 8263 8249 8246 8238 8239 8268 8284 8285 8286 8292 8291 8289 8289 8292 8293 8291 8290 8291 8295 8292 8289 8287 8288 8288 8289 8288 8285 8286 8281 8282 8282 
8299 8303 8301 8299 8297 8295 8292 8294 8295 8289 8292 8273 8228 8211 8211 8225 8254 8275 8279 8282 8282 8282 8279 8266 8257 8257 8276 8247 8222 8215 8210 8218 8245 8228 8216 8214 8209 8220 8234 8248 8252 8245 8233 8229 8224 8233 8260 8271 8274 8277 8270 8248 8238 8240 8247 8276 8286 8289 8288 8290 8288 8291 8290 8293 8290 8292 8293 8294 8294 8291 8290 8290 8289 8290 8291 8287 8284 8284 8280 8282 
8302 8299 8298 8296 8299 8294 8290 8293 8293 8292 8285 8234 8221 8218 8235 8270 8281 8282 8278 8277 8270 8260 8248 8248 8256 8246 8228 8226 8220 8214 8231 8220 8218 8220 8210 8208 8212 8218 8225 8242 8236 8227 8228 8229 8230 8221 8228 8269 8272 8274 8274 8270 8252 8245 8248 8257 8282 8288 8288 8288 8290 8291 8294 8291 8292 8294 8294 8295 8291 8291 8290 8289 8289 8291 8286 8286 8285 8284 8281 8286 
8298 8301 8299 8298 8295 8295 8290 8293 8289 8289 8262 8232 8228 8249 8276 8285 8282 8278 8264 8238 8234 8225 8231 8244 8251 8249 8230 8225 8216 8207 8215 8203 8201 8210 8201 8200 8205 8199 8214 8234 8229 8218 8215 8217 8226 8242 8259 8271 8273 8275 8276 8277 8275 8265 8259 8260 8271 8286 8289 8289 8288 8291 8294 8294 8290 8292 8295 8294 8294 8288 8291 8288 8288 8290 8288 8288 8286 8286 8280 8280 
8300 8301 8301 8298 8298 8293 8289 8291 8285 8276 8245 8233 8255 8281 8285 8284 8279 8261 8240 8237 8257 8262 8251 8252 8259 8249 8232 8236 8205 8208 8228 8205 8193 8196 8194 8198 8196 8191 8206 8240 8224 8215 8213 8214 8231 8252 8267 8271 8273 8277 8276 8275 8275 8280 8276 8272 8271 8283 8285 8286 8289 8291 8291 8290 8288 8290 8291 8292 8292 8286 8290 8288 8286 8289 8285 8287 8287 8282 8278 8284 
8299 8301 8300 8297 8294 8294 8289 8290 8282 8252 8241 8261 8285 8288 8287 8282 8279 8274 8275 8275 8279 8280 8250 8236 8256 8257 8258 8254 8224 8219 8238 8236 8222 8219 8198 8197 8184 8178 8191 8240 8261 8249 8229 8221 8234 8237 8255 8271 8273 8275 8273 8272 8272 8277 8283 8282 8277 8274 8282 8286 8287 8286 8285 8287 8285 8289 8290 8293 8292 8287 8285 8284 8282 8287 8290 8285 8284 8284 8284 8280 
8296 8299 8298 8297 8294 8293 8291 8284 8260 8236 8263 8288 8289 8289 8287 8283 8281 8281 8276 8272 8273 8271 8272 8270 8278 8277 8278 8253 8240 8243 8238 8237 8243 8233 8203 8197 8174 8176 8204 8237 8253 8254 8252 8252 8248 8241 8238 8260 8270 8262 8240 8240 8258 8272 8278 8280 8279 8274 8271 8282 8288 8285 8284 8290 8290 8289 8291 8290 8290 8283 8285 8284 8283 8287 8287 8284 8282 8283 8281 8280 
8296 8294 8299 8295 8295 8294 8289 8263 8232 8255 8284 8287 8289 8288 8284 8281 8282 8281 8266 8231 8223 8219 8228 8248 8258 8259 8275 8274 8259 8256 8255 8250 8232 8215 8208 8196 8185 8182 8211 8237 8241 8240 8241 8241 8263 8257 8247 8241 8250 8248 8244 8239 8233 8237 8269 8276 8280 8280 8270 8278 8284 8282 8285 8286 8287 8287 8288 8288 8287 8283 8284 8280 8282 8283 8287 8286 8284 8281 8282 8279 
8294 8295 8294 8295 8293 8291 8293 8258 8249 8284 8288 8286 8286 8286 8286 8283 8282 8273 8223 8217 8219 8223 8251 8279 8278 8278 8271 8257 8265 8263 8249 8249 8220 8232 8221 8209 8195 8196 8196 8228 8232 8235 8234 8231 8243 8258 8260 8261 8263 8272 8271 8273 8265 8250 8235 8244 8271 8277 8279 8278 8282 8282 8281 8281 8283 8286 8283 8287 8285 8281 8282 8278 8280 8284 8281 8283 8285 8281 8282 8280 
8291 8299 8298 8295 8295 8292 8288 8266 8280 8290 8288 8286 8287 8287 8284 8283 8283 8272 8228 8212 8228 8266 8278 8282 8283 8284 8283 8261 8265 8252 8221 8247 8209 8219 8213 8211 8212 8206 8201 8235 8240 8244 8240 8234 8239 8270 8273 8271 8273 8273 8273 8275 8275 8277 8259 8240 8255 8266 8275 8280 8281 8279 8283 8283 8284 8283 8284 8284 8283 8282 8282 8281 8278 8281 8284 8283 8283 8283 8279 8278 
8293 8294 8293 8298 8295 8291 8288 8276 8289 8288 8291 8289 8289 8287 8285 8286 8282 8275 8225 8235 8275 8280 8281 8285 8285 8284 8279 8250 8251 8266 8259 8216 8199 8208 8213 8209 8208 8205 8207 8237 8261 8257 8245 8235 8242 8271 8274 8272 8272 8276 8276 8276 8276 8279 8281 8272 8268 8261 8275 8278 8280 8282 8285 8283 8284 8286 8282 8284 8283 8277 8279 8278 8280 8283 8280 8281 8283 8285 8277 8282 
8292 8296 8294 8296 8295 8292 8291 8287 8290 8287 8290 8288 8287 8286 8283 8283 8283 8277 8260 8271 8279 8282 8281 8285 8285 8283 8273 8267 8281 8256 8245 8223 8200 8202 8211 8211 8207 8208 8208 8228 8263 8273 8265 8234 8260 8280 8277 8275 8274 8276 8279 8280 8279 8279 8278 8279 8280 8280 8280 8278 8277 8280 8282 8282 8282 8284 8283 8282 8281 8278 8279 8276 8277 8282 8280 8280 8283 8281 8280 8280 
8291 8290 8295 8291 8293 8293 8290 8290 8290 8285 8288 8284 8284 8284 8280 8282 8280 8279 8280 8278 8280 8280 8283 8287 8285 8284 8268 8272 8282 8284 8278 8273 8219 8206 8218 8216 8213 8214 8215 8218 8219 8266 8276 8275 8276 8276 8275 8273 8274 8275 8276 8279 8277 8278 8277 8278 8279 8280 8279 8280 8276 8279 8280 8283 8280 8280 8280 8279 8281 8277 8278 8277 8277 8281 8281 8280 8283 8282 8278 8277 
8291 8295 8296 8295 8294 8293 8290 8291 8287 8287 8288 8286 8284 8283 8281 8282 8279 8281 8282 8279 8280 8283 8282 8288 8288 8284 8268 8275 8283 8285 8282 8279 8227 8222 8241 8216 8217 8217 8249 8228 8233 8271 8276 8275 8280 8278 8274 8274 8274 8273 8276 8279 8277 8280 8277 8278 8278 8280 8281 8280 8278 8280 8280 8285 8282 8282 8280 8280 8282 8278 8277 8277 8277 8282 8280 8280 8286 8284 8280 8279 
8294 8295 8296 8296 8296 8290 8292 8291 8290 8289 8292 8287 8284 8284 8285 8281 8281 8280 8280 8281 8281 8281 8283 8289 8286 8283 8267 8275 8281 8280 8274 8240 8212 8210 8234 8207 8224 8231 8243 8251 8251 8272 8275 8272 8276 8278 8272 8272 8275 8270 8276 8279 8277 8279 8278 8278 8275 8278 8278 8277 8279 8280 8282 8280 8280 8278 8281 8280 8283 8279 8278 8276 8280 8282 8282 8281 8284 8283 8278 8280 
8291 8297 8298 8297 8296 8294 8291 8293 8292 8291 8290 8287 8286 8285 8284 8283 8280 8280 8279 8280 8280 8282 8281 8286 8285 8283 8268 8273 8279 8268 8214 8186 8195 8199 8206 8199 8220 8250 8233 8237 8251 8271 8273 8273 8274 8274 8271 8272 8272 8274 8274 8276 8276 8278 8279 8277 8277 8279 8280 8280 8279 8278 8281 8283 8283 8279 8278 8282 8282 8277 8280 8279 8279 8284 8281 8283 8284 8279 8280 8278 
8295 8296 8298 8298 8298 8296 8292 8298 8296 8293 8290 8287 8287 8286 8281 8281 8282 8281 8281 8277 8281 8282 8282 8286 8286 8282 8266 8267 8264 8236 8189 8185 8197 8198 8198 8201 8209 8223 8214 8201 8203 8215 8249 8266 8273 8273 8272 8270 8271 8271 8275 8276 8275 8276 8278 8276 8277 8279 8281 8278 8277 8278 8279 8280 8281 8278 8279 8283 8278 8278 8278 8279 8280 8283 8282 8283 8284 8283 8279 8278 
8299 8299 8299 8298 8299 8293 8295 8296 8295 8293 8290 8290 8284 8287 8283 8282 8281 8280 8279 8279 8284 8286 8283 8286 8286 8280 8243 8224 8220 8196 8197 8202 8197 8197 8199 8200 8217 8239 8219 8249 8223 8215 8229 8240 8260 8268 8267 8269 8269 8274 8274 8276 8273 8276 8277 8276 8277 8280 8279 8277 8280 8279 8279 8282 8281 8283 8281 8284 8281 8282 8282 8280 8281 8287 8284 8287 8287 8281 8281 8287 
8298 8297 8300 8300 8296 8295 8292 8295 8290 8291 8287 8287 8288 8285 8282 8282 8280 8280 8278 8282 8280 8283 8284 8283 8277 8232 8216 8223 8235 8208 8198 8209 8199 8202 8197 8198 8218 8228 8236 8249 8249 8234 8254 8254 8242 8255 8266 8268 8269 8269 8272 8277 8277 8276 8277 8278 8280 8278 8281 8276 8279 8280 8280 8280 8279 8279 8280 8282 8284 8279 8281 8282 8283 8287 8285 8287 8286 8286 8282 8283 
8299 8301 8299 8301 8298 8295 8296 8297 8295 8293 8290 8285 8288 8287 8285 8282 8280 8280 8282 8279 8281 8279 8281 8282 8242 8218 8216 8239 8259 8249 8243 8243 8211 8207 8201 8203 8215 8243 8215 8213 8207 8228 8260 8268 8263 8243 8255 8264 8268 8270 8271 8274 8275 8279 8280 8280 8278 8279 8280 8279 8275 8274 8281 8278 8280 8279 8281 8280 8283 8284 8281 8282 8281 8284 8287 8289 8289 8288 8284 8285 
8296 8301 8299 8297 8294 8297 8296 8298 8292 8293 8289 8288 8283 8285 8282 8280 8280 8280 8281 8280 8277 8279 8274 8261 8248 8230 8212 8227 8254 8258 8259 8253 8221 8211 8202 8208 8219 8247 8219 8213 8209 8214 8244 8269 8266 8255 8245 8260 8262 8263 8267 8275 8275 8275 8279 8276 8278 8277 8278 8277 8276 8274 8276 8278 8278 8279 8280 8282 8282 8278 8282 8281 8283 8285 8285 8287 8290 8287 8285 8286 
8297 8300 8299 8297 8298 8298 8295 8294 8288 8289 8294 8288 8289 8287 8284 8283 8284 8284 8282 8277 8260 8248 8248 8247 8245 8217 8211 8219 8256 8259 8262 8257 8227 8211 8205 8215 8253 8267 8259 8232 8210 8215 8248 8269 8268 8262 8257 8258 8260 8261 8264 8269 8270 8277 8277 8279 8279 8279 8276 8276 8274 8276 8276 8280 8279 8279 8280 8283 8285 8281 8279 8281 8282 8286 8287 8285 8290 8288 8286 8286 
8297 8299 8297 8294 8299 8300 8292 8296 8294 8296 8294 8291 8292 8292 8290 8286 8284 8286 8284 8278 8254 8242 8243 8248 8220 8213 8210 8211 8260 8268 8273 8271 8229 8211 8208 8233 8279 8283 8289 8289 8242 8228 8273 8276 8275 8272 8265 8264 8266 8268 8267 8278 8281 8281 8280 8277 8281 8281 8278 8275 8279 8276 8279 8279 8278 8279 8281 8280 8284 8283 8285 8282 8283 8288 8290 8289 8289 8289 8285 8286 
8297 8296 8298 8299 8299 8297 8297 8297 8294 8296 8297 8292 8297 8297 8292 8289 8286 8289 8284 8281 8258 8241 8248 8248 8238 8220 8216 8222 8262 8265 8263 8261 8233 8226 8223 8245 8262 8261 8287 8283 8272 8242 8276 8278 8282 8268 8265 8264 8263 8261 8266 8283 8281 8280 8279 8279 8279 8277 8279 8279 8275 8279 8280 8282 8279 8279 8280 8282 8283 8280 8282 8286 8285 8292 8288 8292 8289 8288 8285 8286 
8296 8299 8299 8300 8299 8294 8296 8297 8298 8298 8297 8295 8296 8299 8293 8289 8289 8288 8284 8284 8264 8241 8242 8243 8238 8238 8244 8250 8253 8248 8251 8250 8248 8246 8242 8246 8248 8251 8256 8257 8258 8259 8265 8267 8269 8268 8260 8256 8256 8257 8261 8280 8277 8276 8277 8278 8276 8278 8277 8278 8277 8280 8279 8280 8275 8278 8278 8281 8281 8283 8284 8283 8283 8288 8289 8291 8291 8287 8287 8287 
8299 8302 8302 8303 8300 8303 8300 8303 8300 8301 8297 8299 8298 8296 8295 8294 8291 8289 8290 8286 8272 8243 8246 8244 8242 8245 8250 8252 8252 8247 8249 8248 8247 8248 8242 8245 8250 8250 8254 8253 8254 8254 8255 8259 8260 8264 8261 8260 8262 8261 8267 8283 8276 8277 8277 8278 8277 8277 8277 8277 8279 8280 8280 8280 8281 8280 8281 8283 8285 8283 8284 8286 8286 8292 8289 8292 8293 8289 8288 8288 
8300 8299 8304 8304 8301 8304 8301 8303 8302 8300 8302 8300 8297 8301 8296 8294 8295 8292 8292 8289 8283 8251 8245 8239 8239 8245 8248 8251 8252 8244 8248 8245 8247 8245 8239 8247 8248 8247 8248 8247 8245 8245 8245 8248 8251 8254 8263 8266 8263 8264 8269 8275 8272 8276 8276 8277 8277 8277 8277 8278 8283 8280 8282 8283 8279 8282 8281 8284 8284 8282 8287 8287 8290 8296 8293 8294 8293 8292 8287 8288 
8301 8302 8306 8304 8303 8306 8302 8304 8305 8301 8301 8300 8301 8301 8297 8298 8296 8296 8295 8292 8290 8280 8241 8235 8232 8239 8244 8248 8242 8236 8238 8245 8247 8244 8242 8251 8243 8246 8245 8242 8242 8242 8247 8249 8251 8255 8258 8260 8261 8256 8260 8268 8272 8275 8277 8276 8277 8278 8278 8282 8278 8279 8281 8280 8281 8282 8282 8288 8285 8283 8286 8286 8291 8295 8293 8294 8292 8292 8289 8291 
8300 8303 8304 8305 8305 8306 8304 8305 8303 8304 8302 8302 8303 8304 8299 8299 8296 8296 8292 8293 8294 8287 8246 8235 8232 8231 8243 8241 8237 8234 8240 8244 8244 8248 8249 8253 8245 8242 8239 8239 8240 8243 8244 8252 8252 8260 8259 8257 8257 8263 8261 8273 8270 8273 8275 8277 8276 8277 8279 8276 8275 8279 8282 8280 8280 8280 8282 8287 8284 8284 8286 8288 8289 8292 8286 8291 8293 8291 8290 8288 
8302 8308 8306 8308 8307 8308 8304 8309 8304 8305 8305 8305 8304 8303 8299 8302 8298 8298 8297 8293 8295 8293 8255 8242 8239 8238 8240 8244 8238 8240 8242 8246 8247 8252 8253 8253 8248 8246 8241 8244 8244 8250 8255 8260 8267 8266 8262 8264 8271 8276 8269 8275 8275 8275 8279 8278 8279 8279 8278 8277 8280 8278 8278 8279 8280 8283 8283 8287 8287 8287 8288 8290 8293 8295 8296 8292 8294 8290 8289 8290 
8309 8304 8306 8303 8308 8307 8306 8308 8304 8304 8303 8305 8305 8308 8304 8301 8302 8302 8299 8295 8298 8293 8267 8255 8251 8243 8246 8250 8246 8247 8248 8245 8252 8252 8250 8253 8248 8250 8251 8251 8257 8257 8261 8264 8272 8271 8263 8262 8274 8282 8269 8276 8274 8277 8276 8274 8277 8279 8280 8280 8278 8280 8281 8279 8281 8282 8285 8286 8287 8288 8292 8291 8293 8295 8293 8294 8292 8292 8290 8288 
8303 8304 8305 8305 8305 8307 8304 8308 8310 8305 8306 8307 8305 8310 8305 8299 8301 8305 8299 8299 8293 8296 8278 8259 8254 8247 8249 8253 8253 8248 8250 8249 8253 8250 8249 8253 8251 8255 8258 8261 8262 8263 8265 8267 8272 8267 8267 8266 8283 8279 8272 8275 8274 8278 8277 8276 8279 8280 8279 8279 8281 8281 8277 8282 8279 8282 8284 8287 8291 8290 8294 8291 8290 8294 8295 8294 8296 8289 8288 8293 
8302 8304 8305 8307 8304 8305 8305 8307 8305 8307 8307 8303 8304 8307 8303 8300 8300 8300 8302 8297 8299 8296 8286 8266 8255 8249 8252 8258 8258 8250 8253 8253 8255 8257 8254 8251 8250 8258 8260 8260 8264 8265 8267 8269 8272 8269 8267 8274 8286 8281 8274 8277 8274 8274 8276 8278 8278 8278 8279 8279 8281 8280 8282 8283 8278 8283 8284 8287 8290 8289 8290 8290 8293 8293 8293 8294 8294 8291 8290 8289 
8307 8311 8308 8308 8304 8306 8301 8305 8306 8305 8305 8305 8305 8305 8301 8301 8300 8302 8301 8299 8298 8297 8290 8270 8259 8251 8255 8256 8261 8255 8258 8258 8257 8259 8254 8252 8255 8262 8266 8265 8268 8268 8270 8271 8277 8273 8269 8274 8283 8277 8273 8277 8273 8277 8279 8281 8278 8275 8279 8277 8279 8283 8281 8281 8281 8285 8285 8291 8289 8286 8288 8289 8290 8297 8295 8296 8293 8290 8289 8288 
8311 8312 8308 8308 8310 8312 8305 8305 8305 8308 8307 8307 8302 8304 8303 8302 8299 8301 8300 8295 8302 8296 8293 8274 8265 8259 8258 8257 8260 8260 8259 8259 8259 8255 8252 8252 8257 8265 8268 8266 8267 8268 8270 8272 8275 8274 8272 8274 8282 8276 8271 8275 8272 8276 8279 8276 8277 8276 8275 8277 8277 8282 8282 8282 8281 8281 8287 8291 8289 8287 8288 8290 8291 8297 8298 8296 8295 8285 8288 8294 
8324 8327 8327 8313 8303 8306 8305 8313 8313 8306 8306 8301 8299 8295 8297 8293 8294 8298 8296 8293 8297 8297 8292 8283 8269 8256 8253 8253 8258 8261 8260 8260 8261 8261 8257 8259 8269 8271 8266 8268 8266 8269 8271 8270 8274 8272 8269 8272 8274 8273 8269 8270 8274 8275 8277 8277 8279 8276 8273 8274 8279 8280 8277 8282 8278 8283 8280 8286 8288 8287 8289 8289 8289 8296 8293 8296 8290 8289 8287 8289 
8379 8379 8360 8354 8345 8347 8348 8337 8320 8325 8320 8309 8303 8297 8290 8290 8291 8293 8291 8288 8287 8287 8290 8284 8267 8255 8255 8253 8255 8264 8264 8263 8262 8263 8263 8269 8266 8266 8267 8266 8267 8267 8272 8269 8275 8271 8270 8270 8271 8270 8260 8257 8261 8269 8271 8275 8275 8273 8273 8275 8278 8276 8278 8278 8278 8278 8281 8284 8286 8286 8293 8290 8286 8294 8289 8291 8289 8288 8286 8286 
8396 8383 8381 8386 8392 8384 8367 8353 8358 8376 8391 8353 8329 8323 8324 8341 8358 8334 8300 8294 8298 8290 8285 8282 8265 8252 8249 8251 8258 8260 8263 8263 8265 8265 8264 8268 8268 8269 8266 8265 8264 8268 8271 8272 8273 8271 8267 8266 8267 8266 8254 8253 8251 8256 8268 8271 8267 8271 8273 8271 8276 8275 8274 8279 8275 8278 8277 8287 8287 8288 8289 8290 8289 8291 8289 8291 8285 8289 8283 8283 
8411 8413 8424 8412 8402 8400 8389 8386 8387 8398 8399 8371 8355 8357 8361 8399 8394 8353 8324 8314 8312 8295 8283 8278 8256 8248 8252 8253 8255 8255 8260 8261 8263 8267 8266 8271 8269 8269 8268 8265 8267 8268 8271 8270 8271 8270 8267 8270 8268 8261 8252 8251 8249 8251 8258 8254 8257 8258 8261 8260 8264 8267 8273 8272 8272 8276 8279 8284 8288 8282 8285 8288 8287 8288 8288 8288 8289 8286 8282 8289 
8424 8439 8421 8412 8410 8405 8395 8405 8406 8406 8400 8397 8399 8403 8404 8401 8396 8390 8380 8370 8370 8317 8281 8278 8255 8248 8255 8254 8254 8254 8261 8262 8260 8267 8271 8270 8270 8271 8268 8267 8266 8268 8268 8267 8266 8270 8268 8269 8268 8261 8252 8253 8246 8253 8250 8251 8254 8254 8256 8259 8261 8263 8261 8266 8266 8268 8272 8276 8280 8282 8284 8289 8282 8289 8289 8290 8288 8287 8284 8285 
8457 8437 8423 8414 8408 8404 8403 8406 8407 8402 8401 8399 8402 8404 8401 8395 8389 8386 8374 8369 8364 8362 8275 8280 8255 8244 8246 8248 8252 8250 8253 8260 8260 8262 8263 8266 8268 8267 8267 8267 8265 8262 8265 8266 8271 8269 8264 8264 8264 8258 8247 8251 8251 8253 8247 8247 8249 8252 8254 8259 8255 8261 8260 8264 8265 8270 8267 8275 8280 8283 8287 8285 8284 8287 8286 8290 8289 8284 8283 8288 


