P2
80 60
8323
8278 8283 8291 8288 8291 8291 8287 8286 8286 8284 8288 8289 8290 8284 8285 8288 8287 8284 8285 8285 8290 8293 8294 8290 8297 8297 8297 8301 8303 8300 8303 8306 8303 8304 8305 8301 8300 8301 8308 8304 8302 8302 8301 8300 8300 8299 8294 8296 8298 8295 8298 8297 8293 8289 8289 8288 8291 8290 8291 8290 8298 8290 8292 8289 8286 8288 8292 8293 8297 8294 8295 8299 8303 8305 8305 8305 8301 8300 8303 8309 
8279 8283 8292 8284 8291 8287 8280 8280 8280 8286 8283 8288 8282 8286 8285 8287 8287 8289 8284 8289 8294 8294 8295 8290 8296 8296 8294 8300 8302 8298 8301 8305 8303 8304 8301 8299 8298 8306 8305 8306 8301 8303 8298 8302 8302 8302 8297 8295 8298 8297 8296 8293 8293 8293 8292 8292 8289 8286 8293 8295 8295 8294 8293 8288 8287 8289 8292 8290 8296 8294 8295 8295 8300 8300 8300 8298 8302 8298 8305 8302 
8267 8269 8282 8273 8288 8280 8278 8281 8281 8281 8287 8280 8276 8282 8286 8284 8288 8288 8283 8288 8288 8290 8293 8287 8292 8296 8295 8298 8302 8295 8299 8301 8302 8304 8299 8296 8296 8303 8308 8304 8301 8299 8295 8300 8304 8302 8295 8296 8297 8293 8295 8292 8290 8294 8292 8290 8291 8289 8289 8288 8295 8291 8289 8290 8286 8286 8289 8289 8295 8298 8292 8292 8294 8296 8297 8296 8301 8298 8299 8297 
8272 8263 8289 8274 8291 8280 8284 8281 8283 8284 8277 8272 8278 8281 8281 8286 8287 8289 8282 8281 8283 8281 8273 8292 8292 8299 8298 8300 8300 8299 8296 8300 8302 8299 8302 8295 8302 8305 8304 8302 8300 8297 8298 8297 8300 8297 8294 8296 8293 8292 8293 8292 8293 8292 8291 8292 8291 8287 8289 8288 8293 8293 8288 8290 8286 8284 8286 8288 8292 8296 8288 8289 8292 8294 8291 8292 8295 8295 8296 8299 
8273 8262 8288 8275 8283 8285 8280 8277 8277 8283 8280 8270 8274 8280 8275 8286 8285 8283 8283 8283 8282 8284 8278 8285 8296 8296 8292 8294 8300 8300 8297 8303 8299 8299 8300 8300 8301 8300 8303 8300 8300 8298 8293 8294 8292 8292 8291 8293 8294 8293 8291 8289 8289 8290 8292 8292 8291 8288 8292 8289 8294 8293 8290 8288 8281 8284 8284 8279 8291 8289 8290 8289 8288 8289 8281 8285 8289 8286 8290 8289 
8282 8269 8280 8273 8278 8278 8285 8284 8279 8283 8270 8276 8279 8275 8274 8281 8280 8279 8282 8290 8281 8281 8287 8285 8294 8294 8295 8293 8292 8297 8300 8303 8297 8298 8298 8296 8299 8300 8300 8299 8300 8300 8298 8296 8293 8293 8288 8290 8292 8293 8292 8293 8287 8297 8292 8295 8291 8292 8291 8290 8292 8291 8289 8285 8282 8286 8282 8280 8290 8292 8287 8285 8290 8280 8278 8280 8280 8279 8286 8286 
8278 8278 8282 8289 8285 8276 8290 8289 8278 8277 8267 8283 8279 8273 8277 8283 8276 8277 8283 8284 8283 8285 8292 8289 8295 8296 8285 8286 8291 8295 8299 8302 8298 8300 8295 8296 8296 8296 8300 8299 8299 8298 8299 8295 8295 8295 8291 8290 8291 8290 8293 8291 8291 8293 8295 8291 8289 8289 8293 8288 8291 8289 8289 8284 8281 8289 8289 8291 8282 8283 8287 8290 8286 8283 8281 8279 8277 8274 8283 8281 
8281 8282 8275 8287 8281 8281 8285 8289 8285 8264 8281 8283 8279 8275 8284 8280 8276 8283 8280 8280 8285 8288 8289 8290 8292 8294 8284 8288 8289 8293 8298 8300 8298 8300 8295 8298 8296 8297 8299 8301 8297 8296 8297 8294 8294 8295 8290 8290 8289 8289 8291 8287 8289 8290 8290 8292 8288 8289 8289 8289 8288 8286 8284 8286 8279 8290 8287 8288 8283 8283 8280 8282 8284 8279 8281 8277 8275 8273 8280 8280 
8283 8272 8278 8277 8283 8278 8288 8284 8284 8271 8280 8279 8272 8273 8275 8275 8276 8277 8280 8283 8283 8279 8285 8286 8283 8292 8288 8289 8292 8293 8295 8298 8291 8295 8298 8298 8298 8294 8300 8295 8295 8295 8294 8294 8292 8295 8290 8289 8288 8286 8287 8288 8287 8289 8289 8285 8288 8286 8287 8288 8287 8281 8283 8279 8279 8281 8281 8289 8282 8286 8281 8278 8277 8278 8277 8278 8277 8275 8276 8280 
8286 8266 8280 8280 8282 8285 8272 8279 8281 8279 8274 8276 8272 8275 8273 8274 8279 8280 8282 8284 8279 8279 8282 8282 8283 8290 8288 8290 8290 8290 8293 8296 8290 8293 8294 8294 8297 8298 8297 8296 8292 8291 8293 8289 8293 8293 8290 8289 8287 8286 8287 8288 8288 8290 8287 8285 8286 8285 8287 8287 8288 8284 8283 8283 8281 8282 8279 8282 8283 8284 8283 8282 8279 8279 8276 8272 8273 8272 8277 8276 
8281 8264 8276 8279 8275 8281 8271 8276 8278 8274 8276 8273 8271 8276 8273 8276 8277 8275 8274 8278 8278 8280 8283 8285 8282 8284 8290 8291 8292 8293 8289 8288 8286 8293 8294 8289 8293 8294 8295 8291 8289 8291 8292 8296 8292 8294 8290 8289 8287 8285 8284 8286 8288 8288 8284 8282 8287 8281 8289 8286 8288 8281 8283 8281 8276 8282 8284 8284 8282 8281 8281 8282 8279 8275 8273 8270 8271 8270 8274 8276 
8276 8277 8280 8274 8270 8278 8269 8277 8276 8271 8274 8271 8273 8275 8274 8274 8273 8276 8272 8281 8282 8280 8280 8287 8286 8287 8291 8289 8291 8292 8295 8292 8284 8290 8288 8285 8290 8292 8294 8289 8289 8289 8292 8294 8293 8289 8289 8285 8287 8285 8292 8287 8286 8291 8288 8284 8286 8280 8290 8286 8285 8281 8284 8280 8277 8282 8285 8287 8282 8282 8278 8280 8276 8277 8270 8271 8274 8272 8273 8274 
8275 8271 8273 8267 8268 8277 8276 8268 8272 8273 8273 8270 8268 8270 8276 8275 8274 8277 8275 8277 8278 8279 8280 8281 8284 8288 8286 8290 8290 8290 8295 8287 8287 8290 8281 8281 8291 8293 8289 8286 8285 8288 8290 8290 8290 8288 8285 8283 8284 8283 8292 8290 8289 8292 8291 8282 8288 8282 8289 8287 8286 8281 8282 8279 8277 8283 8285 8284 8284 8280 8277 8277 8277 8274 8273 8278 8276 8272 8277 8273 
8276 8278 8282 8278 8279 8275 8276 8274 8267 8275 8277 8276 8271 8272 8274 8276 8275 8278 8276 8279 8279 8277 8278 8282 8279 8283 8285 8285 8285 8286 8291 8286 8285 8285 8282 8283 8284 8288 8284 8281 8281 8282 8284 8286 8284 8284 8280 8282 8284 8285 8288 8291 8287 8291 8291 8284 8287 8285 8287 8284 8283 8278 8283 8282 8284 8287 8286 8285 8285 8282 8278 8280 8278 8278 8273 8276 8275 8274 8274 8271 
8285 8268 8279 8277 8280 8277 8274 8277 8273 8275 8278 8275 8275 8278 8277 8275 8276 8277 8281 8279 8274 8275 8277 8282 8280 8283 8288 8282 8282 8289 8282 8281 8279 8278 8268 8271 8279 8280 8279 8274 8268 8237 8215 8230 8248 8241 8253 8276 8281 8280 8287 8287 8285 8290 8287 8287 8286 8286 8288 8287 8285 8280 8279 8283 8283 8287 8284 8281 8285 8281 8280 8279 8281 8276 8277 8274 8275 8275 8274 8274 
8283 8260 8272 8275 8276 8271 8272 8275 8272 8274 8276 8272 8271 8272 8278 8278 8278 8279 8280 8279 8272 8275 8278 8279 8275 8282 8284 8278 8285 8282 8273 8246 8244 8233 8224 8272 8277 8262 8233 8219 8210 8199 8181 8190 8191 8201 8240 8271 8277 8280 8283 8283 8284 8284 8283 8286 8285 8285 8288 8286 8284 8276 8281 8281 8284 8286 8283 8286 8282 8281 8279 8278 8281 8278 8275 8275 8274 8271 8274 8271 
8280 8263 8271 8277 8270 8271 8270 8267 8273 8274 8275 8274 8270 8272 8272 8275 8272 8277 8278 8276 8273 8275 8280 8278 8275 8280 8282 8283 8283 8278 8277 8230 8197 8193 8230 8267 8233 8200 8221 8257 8234 8197 8196 8245 8253 8263 8269 8274 8277 8279 8281 8282 8281 8280 8279 8282 8281 8283 8285 8285 8284 8277 8282 8279 8285 8284 8282 8284 8282 8280 8278 8278 8279 8281 8276 8274 8275 8273 8274 8274 
8281 8265 8274 8268 8272 8274 8272 8276 8269 8277 8274 8270 8277 8277 8279 8276 8275 8278 8278 8276 8273 8277 8278 8273 8276 8284 8283 8281 8275 8271 8265 8240 8199 8200 8233 8249 8195 8178 8183 8243 8253 8211 8213 8208 8210 8231 8257 8259 8263 8267 8264 8272 8261 8259 8263 8275 8277 8278 8281 8283 8281 8277 8282 8283 8281 8282 8283 8284 8282 8278 8277 8282 8282 8281 8278 8279 8274 8274 8278 8277 
8278 8267 8273 8271 8271 8271 8275 8274 8274 8272 8276 8275 8275 8275 8277 8277 8274 8277 8274 8270 8271 8278 8278 8275 8278 8280 8284 8264 8240 8210 8206 8195 8185 8197 8215 8245 8206 8183 8187 8209 8208 8186 8197 8188 8193 8192 8220 8254 8261 8263 8247 8225 8209 8209 8207 8237 8269 8275 8279 8281 8279 8278 8285 8283 8281 8276 8280 8280 8281 8282 8280 8281 8279 8277 8279 8277 8271 8274 8281 8277 
8276 8268 8275 8271 8266 8273 8274 8274 8278 8275 8274 8276 8272 8269 8276 8278 8273 8274 8273 8274 8264 8276 8278 8274 8275 8271 8243 8214 8229 8247 8236 8201 8191 8191 8197 8222 8227 8191 8185 8186 8184 8192 8220 8210 8191 8191 8195 8226 8262 8271 8275 8263 8222 8210 8206 8204 8228 8266 8278 8275 8278 8275 8288 8282 8282 8276 8280 8279 8280 8282 8282 8283 8279 8277 8277 8278 8274 8276 8280 8279 
8277 8272 8266 8264 8267 8269 8266 8276 8273 8267 8269 8272 8268 8268 8270 8275 8275 8271 8265 8268 8264 8271 8273 8273 8267 8244 8224 8252 8263 8251 8215 8209 8209 8207 8205 8194 8193 8180 8183 8190 8191 8205 8202 8199 8199 8206 8188 8191 8222 8260 8270 8272 8261 8225 8213 8211 8210 8227 8263 8270 8277 8279 8285 8284 8281 8280 8279 8280 8281 8280 8279 8281 8277 8276 8276 8276 8273 8273 8280 8277 
8281 8276 8269 8273 8273 8274 8259 8270 8264 8275 8266 8265 8271 8272 8267 8269 8267 8259 8249 8256 8261 8259 8254 8252 8244 8236 8212 8200 8199 8207 8204 8208 8204 8203 8201 8191 8183 8181 8191 8185 8181 8190 8193 8195 8198 8233 8233 8205 8203 8224 8259 8265 8268 8254 8220 8216 8211 8215 8225 8262 8272 8279 8284 8281 8280 8278 8281 8280 8280 8281 8280 8277 8274 8275 8275 8275 8275 8274 8279 8281 
8278 8268 8273 8272 8272 8269 8260 8258 8262 8272 8270 8268 8268 8268 8269 8263 8242 8195 8184 8197 8211 8234 8236 8220 8219 8234 8196 8181 8179 8174 8185 8202 8199 8196 8192 8189 8187 8177 8183 8186 8185 8189 8193 8195 8197 8215 8212 8208 8195 8191 8205 8225 8264 8270 8247 8218 8216 8215 8216 8233 8268 8276 8282 8281 8281 8282 8282 8284 8277 8276 8276 8272 8275 8272 8272 8277 8277 8276 8279 8278 
8276 8270 8275 8272 8273 8272 8268 8259 8269 8274 8275 8268 8270 8270 8274 8262 8206 8186 8182 8198 8228 8207 8188 8189 8202 8215 8208 8199 8189 8171 8167 8198 8230 8190 8190 8194 8193 8175 8173 8181 8185 8189 8190 8194 8191 8192 8201 8202 8195 8198 8210 8247 8264 8271 8271 8251 8227 8221 8220 8222 8256 8276 8278 8281 8280 8283 8282 8281 8277 8277 8276 8272 8274 8271 8271 8274 8275 8277 8282 8282 
8273 8261 8275 8275 8272 8272 8264 8273 8273 8266 8272 8270 8273 8269 8270 8252 8194 8188 8189 8218 8208 8193 8194 8197 8196 8192 8199 8182 8183 8177 8178 8197 8214 8184 8185 8189 8195 8172 8171 8177 8178 8195 8197 8196 8196 8195 8190 8203 8240 8247 8256 8269 8265 8271 8273 8275 8259 8228 8224 8224 8242 8273 8278 8282 8280 8282 8283 8282 8280 8278 8277 8276 8277 8271 8274 8277 8275 8277 8282 8283 
8276 8258 8269 8276 8270 8267 8273 8263 8259 8267 8269 8273 8269 8269 8271 8231 8189 8196 8229 8242 8241 8195 8196 8193 8204 8228 8233 8193 8177 8178 8178 8181 8180 8190 8191 8189 8187 8179 8176 8179 8182 8208 8221 8216 8203 8195 8193 8191 8224 8263 8269 8271 8264 8270 8274 8273 8273 8260 8235 8233 8243 8272 8276 8278 8281 8281 8281 8282 8275 8276 8275 8276 8275 8275 8273 8272 8275 8275 8281 8284 
8270 8264 8269 8274 8265 8270 8266 8262 8265 8265 8266 8269 8266 8267 8259 8203 8191 8229 8262 8260 8241 8193 8193 8206 8206 8197 8198 8207 8196 8179 8173 8176 8182 8192 8189 8193 8193 8195 8200 8189 8190 8196 8195 8214 8237 8227 8209 8199 8205 8251 8247 8251 8255 8272 8274 8277 8274 8275 8273 8268 8254 8269 8277 8278 8281 8280 8279 8275 8272 8275 8272 8274 8273 8275 8273 8274 8275 8276 8282 8280 
8272 8268 8273 8269 8274 8266 8268 8265 8264 8269 8266 8270 8267 8263 8232 8191 8210 8261 8267 8261 8235 8194 8193 8188 8183 8187 8192 8192 8189 8191 8194 8186 8191 8194 8192 8191 8190 8194 8212 8216 8196 8187 8186 8198 8219 8244 8240 8235 8225 8219 8205 8204 8204 8243 8270 8276 8277 8280 8280 8280 8276 8268 8275 8276 8278 8276 8278 8275 8275 8275 8273 8274 8272 8275 8274 8274 8280 8277 8282 8282 
8268 8264 8269 8272 8269 8271 8269 8267 8268 8271 8272 8271 8270 8251 8205 8196 8247 8269 8266 8264 8241 8241 8203 8194 8190 8192 8191 8190 8191 8187 8187 8192 8196 8194 8191 8194 8195 8196 8212 8231 8227 8185 8183 8189 8216 8260 8264 8266 8266 8263 8258 8225 8203 8208 8228 8269 8280 8278 8279 8273 8278 8273 8275 8279 8278 8277 8274 8273 8268 8271 8273 8272 8271 8273 8273 8277 8276 8280 8284 8278 
8268 8260 8269 8268 8269 8274 8271 8266 8271 8272 8274 8271 8266 8222 8194 8228 8264 8271 8268 8266 8261 8261 8249 8208 8200 8202 8196 8192 8187 8185 8184 8192 8192 8195 8197 8192 8196 8200 8198 8222 8246 8242 8203 8195 8225 8264 8265 8266 8266 8267 8273 8264 8225 8213 8210 8242 8275 8276 8273 8274 8272 8274 8276 8276 8275 8278 8274 8271 8269 8269 8270 8273 8272 8273 8275 8275 8271 8283 8282 8282 
8270 8266 8269 8269 8269 8272 8269 8270 8271 8268 8272 8268 8261 8208 8204 8255 8269 8269 8269 8263 8259 8262 8269 8261 8232 8250 8219 8193 8190 8187 8189 8198 8208 8203 8201 8202 8195 8201 8193 8226 8244 8261 8262 8243 8259 8271 8268 8268 8271 8275 8275 8272 8250 8224 8219 8222 8265 8269 8277 8272 8274 8274 8279 8278 8274 8274 8274 8270 8270 8269 8272 8274 8272 8272 8273 8273 8279 8279 8282 8280 
8269 8263 8269 8267 8271 8272 8267 8269 8273 8269 8267 8271 8266 8221 8219 8265 8268 8269 8268 8265 8262 8271 8272 8275 8269 8268 8242 8201 8194 8193 8191 8221 8256 8221 8211 8233 8197 8188 8195 8245 8262 8246 8264 8277 8278 8276 8271 8270 8274 8276 8278 8275 8272 8238 8226 8226 8258 8272 8276 8273 8272 8272 8275 8276 8273 8274 8273 8271 8272 8271 8271 8275 8272 8274 8272 8276 8278 8280 8281 8283 
8271 8267 8271 8271 8266 8272 8268 8268 8273 8274 8268 8270 8260 8239 8236 8269 8269 8269 8266 8268 8268 8271 8275 8279 8275 8273 8268 8222 8207 8207 8233 8266 8266 8234 8201 8191 8194 8188 8194 8223 8260 8267 8264 8280 8279 8282 8274 8273 8274 8276 8275 8275 8276 8273 8265 8256 8248 8270 8274 8273 8276 8271 8271 8273 8272 8272 8270 8271 8271 8271 8273 8274 8274 8272 8274 8278 8275 8277 8281 8282 
8274 8262 8275 8273 8271 8272 8266 8267 8274 8272 8273 8269 8260 8257 8261 8269 8270 8273 8271 8265 8268 8272 8269 8273 8277 8279 8277 8245 8242 8262 8266 8275 8263 8230 8200 8189 8200 8197 8197 8200 8235 8261 8266 8273 8280 8280 8275 8275 8274 8273 8276 8278 8275 8278 8274 8271 8268 8275 8272 8271 8274 8272 8273 8273 8269 8271 8269 8272 8273 8274 8273 8274 8271 8275 8276 8277 8277 8275 8282 8277 
8278 8273 8275 8271 8274 8269 8274 8275 8271 8270 8270 8270 8269 8267 8271 8271 8271 8274 8271 8270 8271 8274 8273 8271 8277 8276 8272 8256 8268 8270 8272 8268 8260 8237 8206 8200 8210 8210 8203 8200 8217 8236 8217 8220 8242 8269 8272 8276 8277 8279 8279 8279 8277 8273 8276 8275 8279 8275 8272 8269 8274 8276 8276 8273 8273 8272 8271 8270 8274 8273 8273 8273 8272 8277 8275 8274 8278 8276 8278 8281 
8278 8270 8275 8271 8272 8271 8276 8276 8271 8266 8263 8271 8274 8272 8275 8276 8275 8273 8276 8271 8277 8279 8281 8271 8276 8267 8266 8234 8261 8271 8264 8244 8210 8190 8204 8208 8212 8216 8212 8206 8201 8217 8233 8215 8202 8239 8270 8273 8273 8277 8279 8280 8275 8277 8276 8274 8279 8275 8273 8271 8274 8276 8277 8276 8272 8273 8273 8271 8271 8271 8272 8271 8271 8276 8277 8280 8278 8278 8281 8279 
8277 8273 8277 8271 8273 8271 8276 8271 8272 8264 8269 8275 8277 8272 8274 8272 8275 8274 8277 8276 8271 8275 8281 8271 8275 8269 8260 8219 8256 8260 8216 8197 8194 8200 8203 8211 8214 8225 8224 8212 8224 8212 8199 8201 8206 8234 8271 8273 8275 8275 8276 8280 8277 8276 8279 8279 8279 8278 8276 8275 8275 8273 8276 8277 8273 8275 8273 8270 8266 8271 8272 8275 8272 8275 8280 8280 8278 8278 8280 8275 
8275 8269 8274 8276 8272 8271 8273 8271 8272 8273 8276 8277 8274 8270 8276 8273 8269 8270 8269 8268 8268 8270 8278 8273 8272 8270 8235 8213 8250 8219 8195 8201 8230 8240 8209 8218 8226 8232 8219 8210 8215 8229 8204 8200 8201 8216 8260 8269 8273 8273 8275 8276 8277 8279 8276 8277 8279 8274 8277 8275 8274 8272 8272 8275 8274 8276 8273 8275 8273 8270 8269 8273 8274 8277 8281 8277 8280 8276 8281 8281 
8276 8271 8275 8274 8277 8275 8274 8274 8272 8276 8272 8272 8274 8268 8275 8268 8272 8270 8266 8269 8270 8265 8270 8275 8266 8228 8215 8211 8231 8198 8207 8217 8240 8227 8208 8222 8230 8229 8235 8232 8206 8220 8211 8205 8199 8202 8248 8259 8267 8269 8273 8271 8275 8279 8278 8280 8276 8276 8276 8271 8272 8271 8272 8273 8273 8275 8275 8276 8275 8270 8270 8271 8273 8277 8279 8279 8280 8274 8278 8283 
8275 8277 8285 8274 8279 8277 8277 8274 8274 8275 8271 8268 8272 8270 8270 8265 8266 8271 8273 8270 8270 8258 8246 8240 8225 8213 8212 8211 8210 8208 8220 8224 8226 8216 8213 8224 8237 8235 8240 8235 8233 8220 8233 8212 8203 8206 8236 8243 8246 8244 8250 8255 8267 8275 8276 8278 8281 8275 8276 8272 8272 8271 8275 8273 8273 8273 8274 8275 8274 8273 8272 8271 8273 8276 8281 8280 8277 8274 8279 8276 
8272 8275 8286 8270 8276 8277 8275 8277 8271 8274 8269 8274 8267 8268 8277 8269 8268 8275 8278 8274 8270 8253 8228 8226 8220 8208 8213 8213 8217 8230 8230 8232 8231 8226 8221 8232 8243 8241 8248 8240 8245 8251 8254 8246 8216 8211 8238 8242 8244 8241 8242 8244 8250 8266 8277 8279 8275 8274 8274 8274 8271 8271 8272 8273 8275 8275 8272 8270 8272 8274 8274 8273 8270 8277 8280 8279 8278 8274 8279 8282 
8274 8268 8282 8268 8275 8276 8274 8270 8273 8273 8271 8276 8272 8273 8279 8277 8272 8279 8281 8276 8276 8262 8233 8229 8230 8224 8220 8223 8232 8236 8236 8240 8232 8232 8228 8230 8248 8250 8241 8243 8243 8250 8259 8258 8248 8225 8239 8250 8250 8248 8249 8253 8282 8286 8283 8280 8281 8274 8275 8274 8271 8273 8276 8277 8276 8276 8277 8269 8272 8272 8274 8278 8275 8278 8279 8283 8280 8279 8282 8278 
8274 8271 8274 8268 8270 8274 8272 8275 8274 8274 8276 8274 8271 8280 8275 8274 8272 8283 8273 8266 8278 8264 8243 8235 8229 8229 8228 8231 8231 8231 8232 8239 8235 8230 8233 8233 8235 8239 8229 8231 8232 8237 8245 8249 8249 8246 8239 8242 8248 8247 8254 8257 8277 8282 8283 8279 8277 8276 8273 8272 8274 8278 8278 8274 8275 8277 8275 8270 8272 8273 8277 8277 8276 8277 8284 8280 8282 8282 8281 8285 
8280 8274 8278 8271 8276 8270 8276 8274 8276 8278 8273 8277 8279 8281 8272 8272 8269 8271 8267 8273 8274 8268 8248 8239 8238 8234 8232 8232 8237 8231 8230 8233 8237 8237 8237 8239 8240 8238 8240 8239 8239 8238 8240 8250 8249 8252 8247 8248 8249 8253 8263 8267 8274 8279 8284 8279 8280 8277 8276 8275 8277 8276 8278 8278 8276 8278 8276 8270 8271 8272 8275 8277 8279 8283 8282 8279 8280 8282 8284 8284 
8277 8277 8279 8270 8274 8271 8277 8268 8276 8276 8275 8270 8274 8278 8274 8272 8275 8284 8270 8277 8272 8266 8262 8242 8237 8246 8239 8238 8240 8240 8238 8236 8236 8239 8244 8245 8248 8248 8248 8247 8243 8244 8248 8255 8255 8256 8257 8256 8262 8270 8283 8285 8283 8279 8283 8280 8282 8276 8276 8277 8276 8276 8276 8279 8276 8278 8272 8274 8276 8276 8275 8278 8281 8281 8280 8279 8279 8280 8285 8281 
8276 8269 8273 8273 8275 8275 8277 8270 8272 8274 8274 8272 8278 8278 8279 8281 8283 8278 8273 8277 8275 8278 8276 8268 8247 8246 8248 8245 8247 8244 8239 8238 8237 8245 8255 8257 8255 8252 8256 8252 8257 8254 8257 8265 8266 8266 8269 8284 8297 8304 8302 8286 8279 8277 8282 8282 8280 8273 8275 8277 8277 8276 8274 8278 8273 8278 8274 8277 8278 8277 8276 8277 8280 8282 8278 8278 8282 8282 8285 8287 
8275 8276 8274 8275 8277 8280 8278 8274 8271 8271 8276 8282 8277 8279 8276 8280 8281 8280 8276 8277 8284 8280 8278 8277 8254 8248 8248 8251 8253 8249 8239 8237 8243 8242 8252 8262 8258 8259 8259 8254 8263 8264 8265 8274 8275 8278 8293 8319 8323 8314 8294 8279 8280 8279 8277 8279 8279 8277 8276 8276 8275 8278 8275 8278 8275 8278 8277 8274 8275 8278 8279 8278 8282 8283 8282 8278 8285 8281 8285 8285 
8275 8275 8276 8276 8274 8274 8280 8277 8281 8280 8284 8276 8277 8275 8278 8285 8282 8282 8277 8277 8282 8275 8276 8280 8266 8259 8255 8254 8257 8257 8251 8241 8244 8246 8255 8267 8261 8262 8265 8264 8277 8284 8280 8280 8284 8287 8292 8301 8307 8299 8292 8282 8282 8280 8280 8279 8281 8276 8276 8275 8274 8275 8276 8277 8274 8277 8275 8272 8276 8276 8277 8278 8281 8282 8282 8288 8284 8284 8288 8290 
8279 8268 8281 8278 8274 8283 8284 8279 8284 8276 8282 8281 8280 8276 8284 8281 8281 8280 8281 8278 8280 8277 8284 8281 8274 8269 8264 8265 8264 8263 8264 8245 8249 8247 8266 8271 8275 8278 8276 8276 8285 8289 8289 8290 8289 8291 8290 8292 8295 8298 8291 8284 8282 8281 8279 8279 8280 8275 8276 8274 8275 8283 8278 8278 8271 8275 8274 8274 8276 8275 8278 8280 8283 8284 8284 8288 8287 8286 8290 8288 
8274 8264 8278 8274 8273 8281 8283 8274 8281 8276 8284 8284 8282 8284 8280 8278 8284 8285 8288 8278 8276 8286 8287 8285 8278 8274 8274 8271 8266 8267 8272 8251 8253 8254 8275 8274 8283 8285 8285 8287 8293 8297 8292 8298 8295 8297 8293 8298 8296 8295 8293 8286 8281 8282 8280 8281 8280 8279 8278 8272 8274 8280 8283 8280 8269 8271 8273 8274 8279 8283 8280 8283 8285 8285 8288 8288 8288 8287 8290 8284 
8271 8258 8270 8266 8276 8275 8282 8270 8273 8279 8278 8281 8281 8287 8283 8285 8285 8282 8284 8276 8276 8280 8284 8289 8276 8274 8273 8272 8279 8276 8277 8271 8253 8262 8282 8279 8284 8291 8295 8297 8299 8300 8302 8300 8304 8303 8299 8301 8299 8300 8290 8287 8286 8284 8280 8282 8281 8278 8274 8273 8277 8278 8280 8272 8268 8272 8274 8279 8283 8283 8280 8284 8283 8290 8287 8287 8286 8284 8288 8287 
8271 8261 8267 8269 8272 8275 8270 8282 8269 8269 8278 8279 8282 8286 8284 8283 8280 8282 8285 8275 8279 8280 8288 8289 8280 8285 8285 8280 8287 8286 8280 8289 8281 8280 8286 8286 8291 8295 8304 8301 8302 8304 8308 8305 8303 8307 8304 8305 8307 8301 8295 8284 8287 8286 8283 8282 8283 8278 8272 8278 8280 8277 8280 8271 8269 8276 8277 8274 8283 8280 8283 8284 8284 8287 8287 8289 8285 8286 8289 8288 
8270 8266 8272 8268 8271 8267 8270 8279 8280 8272 8268 8273 8269 8279 8284 8277 8281 8285 8280 8283 8275 8282 8288 8286 8285 8291 8289 8291 8288 8283 8286 8294 8290 8289 8294 8293 8299 8297 8302 8305 8305 8307 8306 8313 8310 8312 8305 8306 8306 8301 8291 8288 8282 8291 8286 8281 8279 8278 8277 8281 8283 8281 8283 8275 8275 8277 8276 8279 8283 8283 8282 8286 8285 8290 8290 8286 8286 8283 8288 8287 
8269 8264 8270 8272 8280 8288 8284 8279 8263 8270 8261 8265 8265 8277 8281 8274 8280 8281 8279 8277 8279 8276 8280 8285 8287 8291 8291 8292 8286 8287 8290 8293 8290 8296 8297 8295 8302 8303 8304 8303 8307 8308 8310 8316 8316 8315 8308 8308 8309 8308 8296 8292 8283 8281 8287 8281 8280 8278 8277 8277 8283 8282 8279 8276 8273 8275 8272 8279 8280 8280 8283 8288 8285 8289 8288 8286 8284 8282 8287 8285 
8279 8274 8273 8281 8286 8286 8286 8280 8264 8275 8262 8268 8265 8273 8272 8273 8274 8272 8273 8276 8272 8274 8275 8277 8285 8286 8288 8290 8294 8290 8290 8293 8294 8298 8301 8301 8305 8306 8304 8308 8305 8311 8316 8321 8318 8314 8308 8312 8317 8309 8289 8286 8282 8278 8283 8279 8281 8276 8276 8275 8280 8277 8278 8274 8274 8274 8274 8274 8278 8279 8286 8285 8287 8285 8285 8284 8280 8279 8284 8287 
8278 8277 8292 8288 8278 8276 8281 8281 8269 8279 8278 8272 8279 8278 8281 8278 8276 8278 8269 8268 8275 8275 8275 8279 8275 8274 8294 8292 8300 8297 8291 8298 8298 8297 8301 8307 8306 8306 8306 8305 8310 8317 8319 8322 8321 8318 8304 8314 8316 8306 8290 8283 8281 8284 8281 8279 8280 8279 8276 8275 8280 8276 8277 8277 8275 8274 8276 8278 8280 8281 8281 8286 8286 8285 8283 8283 8280 8279 8284 8288 
8282 8279 8290 8283 8277 8281 8285 8271 8276 8282 8282 8276 8286 8291 8293 8281 8277 8284 8273 8279 8282 8275 8279 8278 8276 8271 8277 8291 8299 8302 8303 8298 8304 8299 8301 8307 8309 8307 8305 8310 8311 8318 8318 8320 8321 8311 8311 8313 8312 8303 8285 8284 8276 8277 8278 8278 8280 8277 8278 8276 8280 8277 8280 8283 8275 8282 8281 8283 8284 8284 8287 8288 8285 8288 8286 8283 8283 8282 8287 8292 
8295 8287 8287 8258 8275 8276 8289 8270 8279 8278 8283 8282 8293 8297 8300 8289 8283 8289 8287 8286 8280 8280 8278 8279 8280 8279 8290 8295 8295 8296 8298 8304 8304 8304 8294 8302 8305 8304 8302 8312 8314 8313 8311 8317 8317 8312 8310 8311 8307 8294 8286 8281 8277 8278 8282 8279 8285 8280 8279 8280 8286 8288 8289 8293 8289 8292 8294 8296 8297 8297 8300 8302 8298 8296 8298 8294 8290 8293 8301 8293 
8293 8279 8273 8275 8276 8277 8278 8281 8277 8271 8281 8286 8290 8299 8287 8273 8269 8280 8284 8278 8272 8268 8271 8275 8283 8281 8291 8292 8293 8295 8297 8294 8294 8302 8296 8301 8304 8306 8305 8308 8309 8308 8309 8312 8309 8310 8311 8307 8301 8290 8277 8278 8277 8277 8279 8277 8283 8283 8282 8283 8288 8289 8286 8290 8290 8290 8291 8295 8299 8296 8300 8309 8307 8299 8302 8303 8298 8293 8303 8302 
8298 8284 8284 8285 8285 8276 8285 8291 8294 8295 8297 8292 8299 8300 8290 8285 8283 8286 8287 8284 8279 8272 8279 8285 8279 8274 8278 8279 8283 8285 8288 8291 8292 8295 8293 8296 8301 8300 8303 8304 8304 8305 8303 8303 8303 8297 8301 8293 8283 8272 8273 8275 8277 8281 8278 8277 8282 8284 8284 8280 8282 8285 8277 8284 8291 8287 8295 8296 8299 8297 8297 8302 8306 8299 8299 8303 8302 8297 8307 8306 


