P2
80 60
8326
8281 8268 8276 8274 8285 8284 8278 8281 8283 8280 8282 8285 8283 8280 8281 8283 8286 8282 8286 8287 8296 8292 8292 8287 8290 8292 8290 8289 8292 8290 8292 8292 8290 8293 8293 8290 8290 8291 8292 8292 8287 8283 8281 8280 8283 8283 8285 8283 8284 8280 8281 8284 8276 8277 8273 8277 8277 8275 8280 8283 8283 8284 8287 8290 8288 8293 8291 8297 8296 8300 8303 8303 8306 8307 8305 8305 8304 8304 8301 8305 
8274 8280 8287 8284 8283 8288 8277 8282 8275 8285 8279 8284 8277 8281 8276 8281 8282 8284 8284 8293 8300 8297 8295 8290 8296 8290 8285 8289 8295 8292 8290 8297 8291 8292 8283 8285 8286 8300 8294 8296 8288 8288 8277 8283 8286 8283 8282 8285 8282 8289 8278 8284 8275 8276 8273 8277 8277 8273 8279 8278 8281 8281 8288 8282 8288 8288 8293 8293 8295 8297 8297 8297 8300 8303 8302 8302 8301 8303 8297 8298 
8264 8267 8270 8267 8278 8275 8273 8280 8275 8280 8280 8278 8271 8276 8277 8280 8283 8282 8283 8290 8293 8289 8292 8284 8288 8288 8287 8291 8289 8283 8283 8287 8287 8294 8288 8285 8283 8297 8292 8294 8284 8285 8276 8281 8282 8282 8284 8282 8280 8277 8277 8278 8272 8276 8277 8274 8272 8277 8275 8275 8283 8279 8278 8283 8282 8282 8285 8289 8294 8296 8292 8292 8298 8298 8300 8297 8303 8298 8297 8296 
8273 8261 8282 8265 8276 8275 8280 8280 8281 8277 8270 8264 8276 8274 8272 8273 8282 8283 8280 8283 8287 8280 8275 8289 8290 8292 8288 8292 8289 8293 8282 8294 8288 8289 8287 8288 8290 8295 8289 8293 8282 8282 8277 8282 8277 8278 8279 8282 8280 8280 8275 8276 8272 8276 8274 8276 8269 8271 8274 8273 8278 8280 8274 8279 8275 8275 8280 8284 8289 8292 8288 8291 8294 8296 8297 8291 8304 8295 8293 8294 
8273 8263 8278 8266 8275 8276 8279 8272 8271 8274 8269 8264 8269 8270 8268 8271 8280 8274 8287 8281 8289 8285 8277 8282 8284 8289 8286 8287 8287 8290 8281 8288 8288 8286 8285 8293 8285 8292 8287 8286 8284 8286 8272 8281 8274 8276 8277 8276 8279 8278 8277 8273 8275 8271 8272 8274 8272 8275 8275 8277 8277 8279 8275 8279 8275 8276 8270 8276 8288 8286 8287 8288 8291 8294 8286 8290 8299 8291 8290 8292 
8281 8266 8267 8267 8270 8272 8281 8279 8276 8276 8259 8267 8276 8268 8268 8270 8281 8270 8285 8286 8286 8281 8285 8284 8289 8291 8285 8284 8284 8284 8289 8291 8286 8282 8284 8287 8288 8290 8288 8292 8285 8285 8278 8274 8274 8272 8276 8279 8280 8275 8279 8277 8277 8275 8275 8279 8274 8274 8277 8279 8277 8276 8275 8273 8269 8276 8271 8272 8277 8282 8284 8283 8288 8281 8282 8284 8288 8289 8287 8289 
8281 8275 8271 8279 8275 8270 8281 8282 8271 8261 8258 8276 8276 8264 8266 8275 8273 8272 8282 8289 8283 8286 8284 8284 8287 8288 8276 8281 8284 8285 8288 8286 8287 8282 8287 8287 8288 8287 8287 8291 8284 8279 8280 8282 8281 8275 8281 8275 8281 8278 8275 8271 8275 8274 8272 8271 8272 8270 8274 8277 8271 8275 8273 8273 8268 8279 8277 8278 8268 8271 8283 8282 8283 8282 8279 8281 8281 8282 8285 8288 
8274 8275 8263 8280 8269 8274 8282 8288 8280 8259 8274 8278 8270 8264 8274 8272 8277 8277 8281 8282 8287 8282 8283 8288 8288 8285 8275 8280 8281 8289 8288 8287 8290 8283 8287 8282 8284 8287 8288 8289 8280 8281 8279 8280 8277 8276 8280 8272 8279 8273 8272 8272 8275 8272 8273 8272 8270 8269 8267 8275 8267 8271 8271 8269 8267 8275 8275 8279 8272 8271 8273 8276 8280 8276 8278 8276 8278 8281 8281 8281 
8281 8269 8267 8269 8274 8271 8284 8279 8277 8262 8270 8270 8270 8269 8267 8270 8274 8270 8286 8288 8287 8279 8280 8280 8274 8285 8276 8283 8281 8283 8283 8284 8285 8283 8286 8283 8285 8287 8285 8286 8280 8281 8274 8278 8275 8273 8275 8273 8276 8269 8268 8271 8272 8272 8271 8267 8268 8270 8264 8269 8264 8270 8265 8265 8263 8269 8273 8275 8271 8273 8274 8269 8270 8274 8272 8270 8274 8275 8273 8274 
8279 8261 8272 8277 8273 8281 8268 8276 8276 8272 8268 8266 8272 8268 8264 8264 8276 8273 8285 8287 8280 8276 8282 8279 8273 8283 8277 8284 8283 8282 8280 8281 8281 8280 8285 8284 8284 8289 8284 8285 8277 8281 8274 8275 8273 8277 8277 8275 8277 8271 8268 8274 8273 8270 8268 8264 8267 8268 8267 8269 8268 8270 8265 8269 8265 8265 8267 8269 8267 8268 8271 8266 8271 8267 8268 8266 8271 8275 8265 8271 
8280 8266 8270 8269 8268 8275 8264 8275 8273 8267 8270 8268 8269 8267 8268 8266 8275 8266 8269 8280 8282 8279 8276 8280 8274 8274 8278 8283 8281 8281 8279 8278 8277 8281 8280 8275 8277 8281 8280 8284 8275 8277 8268 8277 8274 8276 8275 8273 8273 8270 8269 8270 8270 8270 8266 8266 8265 8264 8268 8265 8268 8267 8266 8263 8258 8260 8268 8263 8266 8262 8269 8262 8261 8259 8259 8257 8260 8262 8256 8263 
8277 8274 8270 8270 8260 8270 8268 8275 8273 8268 8268 8262 8265 8264 8265 8267 8267 8268 8266 8286 8282 8283 8272 8281 8275 8278 8278 8282 8283 8281 8282 8280 8275 8281 8274 8272 8280 8284 8284 8278 8273 8277 8272 8279 8277 8278 8275 8273 8272 8275 8271 8274 8271 8269 8263 8266 8264 8262 8270 8268 8265 8266 8262 8262 8257 8261 8267 8262 8262 8256 8263 8258 8263 8257 8255 8254 8263 8262 8253 8258 
8274 8268 8261 8259 8256 8271 8269 8261 8265 8266 8267 8264 8264 8261 8263 8271 8267 8271 8275 8280 8279 8282 8272 8274 8276 8276 8268 8281 8278 8273 8283 8275 8276 8276 8271 8269 8280 8280 8277 8273 8269 8274 8273 8281 8274 8277 8269 8270 8272 8271 8269 8274 8270 8273 8267 8269 8264 8261 8263 8263 8262 8264 8261 8258 8256 8258 8262 8258 8265 8257 8257 8254 8259 8251 8249 8254 8260 8257 8252 8254 
8278 8280 8272 8271 8267 8272 8272 8273 8261 8269 8266 8267 8261 8262 8269 8263 8270 8272 8278 8279 8277 8277 8271 8276 8273 8274 8272 8274 8275 8276 8280 8271 8276 8277 8272 8277 8272 8280 8276 8273 8271 8274 8273 8274 8272 8272 8272 8274 8275 8272 8271 8276 8271 8271 8268 8266 8264 8265 8264 8266 8263 8260 8257 8259 8261 8264 8262 8260 8259 8257 8257 8256 8257 8255 8252 8257 8258 8261 8251 8251 
8281 8266 8271 8272 8269 8270 8266 8271 8265 8264 8264 8266 8267 8270 8266 8271 8267 8267 8277 8279 8271 8273 8269 8275 8271 8272 8271 8270 8266 8275 8270 8271 8270 8267 8267 8264 8264 8270 8271 8266 8267 8270 8270 8275 8274 8270 8264 8267 8269 8269 8268 8275 8272 8271 8267 8266 8267 8263 8266 8264 8263 8262 8255 8259 8258 8262 8261 8259 8262 8258 8261 8256 8256 8254 8252 8253 8257 8256 8249 8246 
8283 8258 8259 8272 8267 8262 8266 8268 8266 8267 8266 8263 8262 8261 8266 8268 8269 8268 8277 8278 8274 8271 8267 8271 8251 8242 8239 8225 8233 8265 8268 8263 8257 8255 8249 8212 8209 8215 8222 8235 8251 8269 8264 8267 8267 8268 8266 8271 8267 8268 8267 8271 8271 8270 8266 8268 8269 8264 8263 8265 8265 8255 8256 8258 8261 8262 8259 8254 8257 8256 8257 8253 8254 8254 8254 8254 8254 8253 8248 8249 
8279 8257 8259 8270 8263 8265 8264 8263 8267 8268 8263 8264 8259 8262 8255 8268 8265 8271 8275 8275 8272 8272 8271 8267 8260 8232 8201 8197 8208 8256 8248 8214 8205 8221 8209 8200 8203 8207 8207 8216 8252 8265 8267 8274 8268 8267 8265 8264 8267 8268 8270 8270 8271 8263 8263 8262 8258 8259 8266 8265 8262 8259 8258 8257 8260 8260 8261 8258 8260 8257 8258 8253 8257 8260 8256 8253 8255 8256 8246 8245 
8277 8265 8267 8264 8264 8270 8267 8268 8261 8271 8267 8264 8270 8269 8265 8268 8269 8268 8274 8277 8273 8274 8272 8262 8261 8259 8219 8198 8221 8241 8196 8191 8198 8247 8241 8203 8207 8239 8252 8254 8263 8263 8264 8267 8258 8262 8262 8256 8263 8263 8264 8268 8268 8264 8261 8265 8262 8260 8261 8265 8261 8259 8257 8258 8259 8258 8261 8259 8260 8258 8257 8259 8254 8256 8255 8256 8253 8254 8249 8251 
8274 8263 8263 8264 8261 8265 8271 8273 8270 8263 8264 8265 8269 8260 8265 8266 8265 8269 8266 8269 8270 8274 8266 8250 8240 8223 8208 8198 8231 8239 8189 8187 8186 8228 8254 8205 8216 8212 8223 8235 8251 8243 8244 8248 8231 8242 8232 8224 8222 8231 8253 8260 8263 8262 8261 8257 8262 8261 8263 8263 8262 8261 8262 8263 8255 8260 8257 8260 8259 8259 8260 8260 8262 8260 8257 8257 8253 8255 8251 8250 
8274 8259 8265 8264 8259 8269 8270 8269 8270 8263 8268 8267 8266 8261 8266 8266 8265 8266 8266 8271 8256 8232 8212 8197 8206 8199 8206 8206 8217 8233 8194 8185 8190 8221 8225 8197 8203 8204 8208 8206 8220 8239 8258 8259 8255 8239 8227 8222 8220 8215 8215 8242 8259 8261 8267 8261 8267 8262 8261 8260 8257 8256 8260 8263 8259 8257 8256 8257 8260 8259 8260 8258 8257 8256 8257 8258 8254 8257 8249 8250 
8274 8267 8257 8256 8254 8264 8259 8271 8268 8263 8260 8264 8260 8258 8258 8269 8266 8264 8256 8246 8209 8205 8212 8211 8206 8200 8201 8216 8197 8228 8216 8195 8194 8199 8204 8202 8214 8210 8216 8216 8211 8208 8227 8252 8256 8264 8249 8232 8228 8223 8217 8215 8233 8253 8262 8263 8264 8262 8267 8259 8262 8258 8261 8263 8257 8261 8258 8261 8258 8258 8261 8261 8264 8259 8259 8259 8253 8257 8252 8253 
8273 8274 8261 8269 8264 8266 8250 8268 8255 8257 8247 8245 8259 8256 8252 8256 8255 8254 8244 8224 8215 8214 8214 8213 8210 8207 8199 8203 8202 8200 8188 8187 8196 8203 8201 8212 8203 8206 8218 8226 8243 8228 8216 8212 8230 8258 8253 8252 8227 8226 8225 8221 8217 8231 8253 8263 8262 8262 8259 8255 8261 8258 8264 8261 8256 8261 8258 8260 8259 8258 8259 8255 8256 8252 8255 8256 8255 8260 8254 8254 
8275 8267 8262 8269 8265 8265 8254 8251 8243 8221 8210 8204 8217 8226 8227 8234 8242 8242 8242 8219 8201 8205 8197 8198 8198 8200 8201 8199 8201 8201 8196 8191 8193 8187 8193 8193 8199 8196 8207 8215 8237 8245 8243 8221 8207 8227 8244 8251 8243 8230 8230 8228 8223 8223 8234 8258 8261 8261 8259 8257 8260 8259 8261 8256 8257 8262 8259 8260 8258 8258 8256 8255 8260 8253 8261 8257 8256 8261 8255 8256 
8277 8272 8263 8270 8263 8268 8263 8249 8223 8201 8198 8189 8206 8230 8247 8237 8226 8234 8234 8209 8194 8193 8194 8192 8196 8197 8203 8190 8190 8194 8200 8213 8204 8189 8203 8203 8201 8199 8197 8195 8197 8204 8200 8195 8196 8207 8247 8252 8254 8249 8236 8230 8227 8228 8230 8243 8259 8263 8260 8263 8253 8261 8261 8265 8261 8264 8261 8261 8263 8257 8258 8253 8260 8255 8257 8254 8256 8261 8257 8259 
8277 8260 8266 8271 8262 8265 8256 8251 8207 8191 8193 8203 8241 8237 8215 8199 8206 8216 8208 8192 8198 8193 8186 8180 8190 8200 8191 8182 8182 8182 8189 8198 8194 8193 8195 8194 8198 8201 8198 8199 8195 8222 8211 8213 8224 8246 8247 8254 8259 8256 8261 8241 8228 8228 8229 8235 8261 8264 8261 8266 8254 8259 8256 8263 8259 8262 8259 8259 8260 8255 8260 8257 8261 8254 8258 8254 8255 8257 8258 8260 
8278 8260 8261 8273 8263 8260 8259 8217 8190 8192 8199 8232 8228 8212 8208 8214 8217 8217 8204 8193 8197 8191 8189 8179 8181 8195 8183 8184 8185 8178 8178 8189 8185 8189 8196 8213 8211 8203 8204 8200 8199 8201 8232 8250 8253 8257 8255 8255 8262 8258 8264 8260 8242 8230 8229 8231 8254 8261 8257 8266 8259 8259 8252 8263 8258 8263 8262 8258 8261 8256 8256 8257 8260 8255 8256 8253 8254 8257 8259 8259 
8273 8265 8256 8266 8258 8263 8244 8197 8195 8202 8222 8243 8234 8223 8211 8199 8202 8210 8230 8225 8198 8186 8182 8183 8180 8186 8195 8194 8195 8183 8178 8184 8178 8181 8189 8237 8234 8205 8209 8202 8202 8199 8203 8245 8246 8241 8245 8250 8256 8257 8258 8260 8259 8257 8249 8241 8253 8260 8260 8266 8255 8260 8258 8261 8255 8259 8259 8255 8255 8255 8257 8255 8258 8259 8257 8257 8258 8259 8256 8258 
8276 8270 8270 8270 8267 8252 8218 8198 8198 8234 8251 8257 8236 8216 8214 8207 8204 8206 8210 8207 8194 8183 8183 8188 8186 8197 8204 8208 8205 8204 8186 8193 8202 8192 8195 8228 8223 8209 8227 8229 8227 8215 8203 8210 8207 8200 8203 8216 8234 8255 8258 8259 8262 8262 8264 8263 8254 8259 8264 8265 8260 8263 8258 8263 8259 8263 8262 8253 8258 8253 8258 8253 8258 8255 8255 8262 8260 8259 8260 8259 
8272 8261 8261 8269 8259 8239 8200 8201 8222 8260 8261 8258 8228 8228 8237 8201 8203 8206 8197 8192 8190 8192 8188 8197 8194 8197 8206 8205 8201 8200 8193 8197 8213 8201 8192 8191 8191 8191 8212 8233 8238 8236 8231 8228 8218 8201 8197 8200 8202 8220 8251 8257 8260 8262 8263 8266 8263 8262 8264 8260 8260 8257 8257 8262 8261 8259 8259 8254 8251 8255 8256 8255 8254 8251 8256 8260 8256 8267 8261 8260 
8271 8263 8264 8267 8252 8216 8202 8214 8254 8260 8262 8251 8243 8249 8228 8202 8197 8202 8197 8195 8192 8195 8190 8202 8201 8198 8202 8200 8197 8194 8191 8203 8209 8210 8194 8189 8192 8202 8204 8231 8249 8246 8249 8254 8248 8221 8199 8202 8204 8207 8238 8257 8268 8266 8271 8270 8263 8261 8259 8261 8257 8260 8259 8266 8261 8266 8260 8254 8254 8251 8257 8254 8255 8250 8258 8257 8257 8267 8260 8261 
8275 8265 8261 8269 8243 8209 8199 8237 8264 8256 8261 8256 8253 8256 8244 8232 8209 8195 8194 8191 8189 8185 8194 8202 8199 8198 8205 8206 8195 8187 8190 8200 8229 8235 8212 8202 8195 8205 8202 8232 8248 8253 8249 8261 8252 8250 8224 8208 8210 8216 8222 8250 8259 8260 8264 8263 8262 8265 8260 8262 8255 8261 8264 8265 8260 8259 8260 8257 8255 8253 8257 8256 8266 8258 8259 8254 8264 8266 8264 8262 
8276 8267 8260 8269 8249 8219 8208 8248 8266 8262 8255 8261 8260 8251 8253 8252 8244 8196 8189 8190 8188 8194 8194 8207 8204 8198 8203 8204 8198 8190 8185 8197 8222 8235 8249 8246 8231 8222 8218 8245 8249 8255 8246 8259 8256 8258 8252 8241 8253 8249 8244 8245 8268 8261 8262 8259 8260 8266 8260 8267 8260 8267 8261 8267 8263 8263 8262 8256 8258 8253 8257 8256 8259 8256 8260 8262 8263 8265 8265 8265 
8275 8267 8259 8268 8251 8228 8227 8256 8267 8261 8257 8258 8248 8253 8251 8255 8250 8202 8188 8191 8194 8204 8198 8220 8226 8210 8201 8194 8194 8188 8182 8189 8221 8221 8234 8253 8254 8251 8251 8254 8254 8254 8252 8259 8258 8264 8258 8256 8258 8256 8254 8256 8259 8261 8262 8262 8260 8267 8261 8264 8258 8264 8256 8264 8262 8260 8260 8254 8261 8259 8261 8263 8260 8257 8258 8261 8261 8262 8264 8258 
8279 8264 8273 8270 8264 8247 8253 8261 8265 8260 8259 8258 8251 8257 8255 8251 8252 8228 8199 8192 8199 8202 8213 8244 8255 8249 8214 8209 8205 8191 8186 8201 8228 8246 8238 8243 8257 8257 8260 8255 8259 8255 8255 8254 8259 8259 8259 8263 8261 8263 8261 8262 8266 8264 8259 8259 8259 8265 8259 8260 8259 8264 8260 8266 8260 8263 8263 8257 8260 8259 8263 8259 8257 8261 8265 8263 8263 8271 8265 8264 
8281 8267 8270 8265 8265 8263 8266 8271 8264 8260 8258 8257 8255 8251 8253 8252 8254 8247 8208 8201 8209 8235 8249 8252 8252 8254 8212 8196 8197 8193 8191 8192 8201 8239 8249 8250 8253 8261 8260 8254 8261 8256 8262 8253 8262 8254 8257 8260 8259 8259 8261 8255 8259 8259 8261 8264 8261 8260 8257 8257 8261 8265 8262 8264 8260 8259 8258 8258 8264 8259 8260 8259 8261 8259 8259 8261 8262 8266 8264 8266 
8283 8269 8269 8271 8264 8263 8268 8272 8264 8255 8250 8259 8260 8255 8258 8260 8259 8255 8234 8231 8247 8259 8260 8251 8255 8242 8214 8188 8189 8193 8189 8186 8187 8216 8245 8234 8248 8259 8258 8256 8258 8255 8253 8253 8267 8255 8259 8255 8257 8259 8259 8259 8264 8261 8265 8259 8262 8262 8263 8264 8263 8268 8264 8263 8262 8262 8262 8257 8258 8261 8260 8255 8257 8258 8259 8265 8264 8264 8263 8265 
8283 8274 8272 8268 8265 8268 8271 8265 8267 8256 8259 8265 8264 8257 8255 8256 8260 8254 8261 8258 8245 8257 8264 8251 8251 8238 8211 8190 8187 8192 8189 8191 8188 8200 8213 8205 8216 8240 8258 8252 8260 8250 8264 8251 8264 8261 8262 8255 8260 8256 8261 8259 8263 8258 8263 8259 8262 8265 8260 8262 8264 8264 8261 8260 8260 8263 8261 8258 8254 8256 8260 8262 8257 8260 8263 8262 8263 8265 8263 8263 
8277 8272 8273 8274 8266 8269 8270 8268 8267 8264 8264 8264 8260 8254 8256 8258 8250 8251 8252 8249 8223 8251 8258 8247 8238 8241 8220 8197 8188 8195 8188 8190 8203 8200 8206 8221 8236 8210 8230 8245 8252 8252 8255 8250 8263 8258 8257 8254 8254 8253 8255 8258 8261 8261 8263 8261 8262 8264 8265 8264 8263 8262 8259 8260 8260 8261 8260 8261 8260 8264 8258 8260 8258 8263 8264 8262 8264 8271 8267 8267 
8277 8273 8269 8272 8271 8273 8269 8272 8264 8267 8265 8262 8260 8257 8254 8248 8258 8252 8255 8240 8215 8237 8249 8229 8205 8201 8201 8201 8195 8202 8198 8217 8208 8200 8201 8197 8206 8206 8217 8243 8253 8247 8259 8252 8257 8248 8252 8252 8254 8256 8257 8255 8260 8256 8258 8261 8260 8261 8261 8257 8258 8260 8253 8262 8261 8261 8262 8265 8260 8259 8254 8258 8257 8256 8257 8264 8263 8266 8264 8266 
8276 8278 8283 8276 8271 8272 8274 8268 8268 8267 8266 8257 8257 8253 8254 8245 8247 8249 8253 8219 8210 8236 8231 8203 8193 8206 8211 8197 8201 8203 8211 8215 8202 8200 8197 8203 8207 8200 8207 8227 8243 8246 8248 8248 8247 8248 8245 8257 8253 8256 8253 8257 8263 8260 8263 8261 8262 8263 8263 8260 8256 8260 8260 8260 8258 8263 8260 8264 8257 8261 8258 8258 8259 8263 8262 8263 8263 8266 8260 8261 
8274 8275 8283 8270 8272 8275 8272 8271 8269 8267 8262 8263 8255 8251 8260 8250 8246 8249 8240 8212 8210 8227 8206 8201 8196 8212 8210 8201 8202 8211 8207 8206 8219 8215 8206 8206 8206 8204 8207 8221 8239 8253 8250 8256 8252 8254 8247 8252 8249 8251 8258 8256 8258 8253 8258 8259 8259 8259 8261 8262 8256 8262 8261 8262 8262 8264 8259 8260 8257 8259 8262 8256 8255 8257 8260 8262 8263 8265 8264 8263 
8279 8272 8274 8266 8271 8273 8269 8266 8271 8267 8261 8261 8263 8256 8247 8230 8219 8218 8212 8210 8208 8205 8200 8209 8215 8206 8206 8201 8206 8212 8214 8221 8214 8216 8219 8220 8211 8206 8201 8220 8229 8243 8238 8245 8246 8250 8253 8255 8251 8257 8255 8256 8255 8258 8261 8262 8258 8258 8258 8260 8257 8264 8260 8265 8262 8265 8259 8255 8256 8259 8261 8265 8265 8264 8264 8267 8270 8270 8269 8268 
8284 8273 8272 8274 8267 8273 8271 8273 8271 8271 8267 8263 8264 8264 8222 8209 8217 8213 8203 8199 8207 8200 8211 8216 8215 8208 8210 8204 8207 8218 8226 8227 8223 8212 8220 8229 8225 8211 8208 8214 8235 8242 8243 8245 8243 8268 8290 8262 8253 8255 8253 8251 8254 8256 8256 8256 8256 8260 8256 8262 8262 8264 8265 8263 8262 8265 8257 8253 8256 8262 8264 8266 8264 8262 8268 8268 8273 8275 8271 8265 
8286 8281 8277 8272 8271 8274 8272 8275 8271 8272 8263 8265 8268 8263 8225 8217 8215 8205 8199 8202 8205 8200 8214 8218 8218 8213 8210 8206 8208 8218 8231 8229 8227 8227 8220 8228 8231 8228 8217 8225 8248 8250 8245 8250 8248 8255 8263 8250 8252 8248 8250 8252 8259 8253 8257 8258 8257 8257 8259 8265 8261 8266 8262 8264 8259 8264 8254 8255 8256 8258 8263 8261 8266 8268 8271 8269 8275 8274 8269 8272 
8284 8286 8275 8273 8271 8271 8274 8265 8274 8275 8266 8265 8267 8268 8234 8219 8222 8223 8210 8216 8212 8209 8213 8216 8212 8222 8209 8207 8207 8213 8220 8223 8218 8226 8225 8220 8230 8247 8237 8237 8236 8253 8239 8243 8244 8242 8248 8248 8254 8245 8258 8250 8253 8251 8258 8257 8256 8260 8257 8263 8260 8261 8261 8265 8261 8266 8257 8263 8262 8263 8264 8261 8268 8271 8267 8271 8273 8271 8268 8269 
8289 8275 8273 8278 8273 8274 8278 8270 8271 8270 8265 8261 8270 8264 8244 8231 8228 8225 8221 8224 8229 8225 8224 8224 8216 8223 8230 8229 8228 8228 8229 8226 8224 8229 8228 8230 8228 8226 8233 8224 8232 8230 8228 8238 8241 8244 8245 8254 8252 8248 8255 8253 8258 8250 8259 8258 8258 8258 8262 8264 8259 8264 8256 8260 8261 8262 8263 8261 8261 8261 8266 8262 8272 8271 8270 8271 8273 8272 8269 8272 
8291 8284 8271 8276 8274 8277 8280 8271 8269 8264 8266 8270 8268 8266 8246 8231 8230 8221 8228 8228 8238 8223 8222 8221 8217 8217 8225 8231 8237 8237 8236 8235 8233 8230 8232 8234 8232 8231 8229 8229 8230 8228 8230 8241 8247 8246 8248 8253 8252 8249 8258 8254 8256 8253 8252 8257 8259 8261 8259 8260 8260 8260 8259 8258 8261 8261 8260 8261 8263 8266 8268 8267 8276 8276 8271 8271 8271 8269 8268 8269 
8285 8287 8278 8277 8273 8275 8278 8278 8284 8278 8275 8264 8273 8259 8258 8244 8227 8224 8227 8229 8241 8224 8218 8223 8222 8221 8218 8228 8235 8237 8243 8244 8241 8241 8238 8240 8236 8236 8234 8235 8245 8244 8238 8241 8245 8249 8250 8251 8254 8253 8257 8255 8259 8255 8259 8260 8257 8260 8258 8263 8255 8262 8256 8262 8261 8259 8261 8262 8260 8266 8271 8270 8275 8274 8281 8279 8270 8262 8267 8276 
8287 8274 8284 8283 8271 8281 8281 8278 8281 8270 8272 8271 8271 8262 8266 8258 8230 8220 8226 8222 8232 8219 8220 8219 8226 8223 8217 8226 8234 8234 8240 8241 8246 8243 8246 8247 8244 8244 8241 8239 8243 8244 8240 8243 8242 8255 8251 8248 8251 8251 8253 8257 8260 8257 8255 8259 8260 8260 8257 8256 8256 8264 8262 8263 8260 8260 8258 8260 8263 8267 8270 8273 8281 8277 8283 8280 8268 8264 8277 8279 
8288 8271 8281 8277 8272 8287 8286 8274 8276 8269 8274 8275 8274 8271 8265 8259 8238 8232 8238 8228 8222 8223 8222 8218 8224 8223 8223 8230 8232 8233 8242 8239 8241 8242 8238 8244 8243 8244 8240 8238 8242 8242 8238 8242 8247 8250 8250 8251 8252 8252 8256 8258 8261 8255 8257 8255 8259 8260 8260 8257 8259 8264 8263 8262 8253 8261 8261 8263 8265 8272 8275 8279 8282 8284 8281 8277 8277 8278 8286 8284 
8286 8270 8275 8275 8278 8276 8284 8270 8271 8273 8274 8270 8270 8273 8267 8267 8245 8236 8239 8227 8230 8227 8224 8222 8221 8218 8219 8225 8236 8240 8242 8241 8240 8244 8243 8244 8244 8248 8245 8245 8245 8246 8253 8253 8254 8256 8254 8250 8253 8250 8253 8258 8262 8253 8252 8256 8260 8259 8254 8255 8262 8264 8260 8256 8251 8259 8262 8269 8268 8277 8275 8276 8280 8280 8283 8281 8282 8284 8290 8291 
8288 8278 8271 8277 8276 8278 8274 8282 8263 8266 8275 8270 8275 8273 8272 8263 8247 8237 8243 8229 8235 8232 8233 8224 8217 8221 8226 8233 8241 8247 8242 8248 8241 8241 8244 8243 8244 8251 8253 8251 8251 8250 8252 8250 8255 8251 8249 8254 8256 8252 8257 8255 8262 8256 8255 8261 8259 8261 8255 8264 8261 8268 8258 8254 8255 8264 8264 8264 8273 8276 8276 8279 8278 8278 8285 8282 8279 8292 8294 8295 
8282 8277 8279 8283 8277 8272 8271 8284 8281 8272 8264 8268 8267 8267 8273 8255 8260 8256 8239 8236 8231 8234 8240 8228 8224 8224 8232 8239 8242 8241 8245 8250 8244 8245 8250 8252 8251 8254 8246 8258 8251 8254 8251 8263 8260 8258 8253 8252 8252 8252 8259 8258 8256 8261 8259 8255 8259 8261 8264 8265 8264 8266 8261 8254 8261 8267 8265 8266 8276 8276 8275 8280 8277 8281 8282 8283 8281 8289 8299 8298 
8277 8276 8277 8277 8278 8279 8278 8280 8265 8273 8263 8269 8265 8271 8273 8266 8257 8251 8244 8238 8239 8235 8236 8231 8228 8219 8231 8243 8241 8244 8251 8246 8244 8253 8253 8252 8254 8261 8255 8251 8252 8251 8252 8261 8257 8256 8251 8254 8255 8259 8256 8259 8256 8253 8264 8261 8261 8259 8256 8261 8267 8266 8263 8261 8266 8270 8266 8268 8274 8274 8273 8278 8280 8279 8280 8279 8280 8294 8301 8301 
8281 8280 8277 8280 8269 8272 8277 8276 8262 8278 8265 8270 8271 8275 8268 8266 8261 8245 8249 8243 8240 8237 8236 8240 8235 8224 8230 8241 8240 8242 8244 8246 8247 8249 8255 8254 8252 8256 8256 8252 8251 8252 8260 8259 8259 8258 8246 8260 8258 8261 8258 8265 8256 8254 8262 8258 8263 8254 8260 8263 8264 8263 8262 8262 8268 8265 8268 8264 8273 8274 8277 8280 8278 8278 8277 8282 8281 8294 8305 8299 
8290 8294 8289 8279 8278 8281 8279 8275 8262 8277 8271 8268 8276 8270 8268 8264 8261 8248 8242 8237 8245 8243 8237 8244 8244 8222 8242 8246 8249 8249 8244 8250 8251 8249 8259 8254 8259 8258 8253 8250 8256 8261 8262 8261 8256 8251 8243 8258 8258 8259 8258 8257 8261 8258 8260 8261 8263 8265 8264 8261 8262 8264 8264 8265 8270 8270 8267 8271 8272 8274 8280 8280 8281 8279 8281 8284 8285 8294 8301 8298 
8291 8280 8285 8277 8271 8287 8287 8265 8271 8277 8275 8260 8271 8268 8265 8253 8250 8250 8244 8240 8246 8237 8240 8245 8243 8231 8231 8246 8247 8252 8252 8249 8251 8247 8250 8255 8254 8255 8249 8254 8254 8254 8254 8254 8236 8227 8244 8252 8256 8256 8251 8254 8252 8250 8256 8255 8256 8258 8259 8260 8261 8261 8264 8266 8262 8271 8269 8274 8268 8272 8277 8279 8277 8277 8276 8280 8287 8292 8301 8302 
8309 8299 8298 8281 8297 8291 8287 8268 8279 8278 8279 8267 8268 8272 8272 8263 8251 8248 8243 8242 8235 8234 8237 8244 8251 8240 8248 8248 8253 8249 8248 8254 8247 8249 8243 8246 8252 8247 8250 8253 8256 8247 8246 8246 8230 8213 8218 8241 8251 8251 8254 8256 8247 8250 8253 8255 8255 8256 8256 8256 8255 8262 8264 8264 8266 8268 8268 8272 8277 8272 8275 8272 8273 8274 8278 8280 8290 8291 8304 8303 
8306 8290 8292 8312 8293 8269 8263 8284 8296 8295 8296 8276 8268 8274 8265 8246 8238 8237 8240 8227 8237 8226 8230 8235 8249 8244 8246 8248 8246 8243 8248 8239 8235 8244 8238 8244 8248 8247 8248 8251 8250 8244 8241 8227 8215 8207 8208 8215 8243 8248 8245 8244 8244 8244 8245 8248 8252 8254 8257 8257 8264 8263 8260 8259 8258 8266 8268 8275 8276 8278 8272 8275 8271 8274 8276 8283 8290 8294 8305 8311 
8326 8316 8323 8320 8286 8273 8273 8288 8310 8323 8299 8278 8268 8271 8272 8260 8242 8235 8234 8235 8238 8231 8229 8235 8237 8245 8244 8248 8240 8242 8243 8237 8235 8238 8234 8236 8237 8238 8248 8245 8248 8239 8240 8222 8211 8211 8219 8229 8250 8252 8251 8253 8247 8249 8249 8254 8252 8256 8260 8264 8267 8265 8261 8271 8266 8273 8272 8279 8279 8281 8278 8279 8281 8285 8287 8291 8294 8304 8315 8314 


