P2
80 60
8460
8316 8295 8310 8308 8314 8308 8304 8301 8309 8304 8308 8308 8303 8299 8296 8305 8300 8295 8302 8301 8306 8311 8312 8309 8312 8316 8313 8312 8318 8316 8318 8319 8319 8318 8315 8311 8314 8315 8313 8313 8317 8315 8310 8306 8305 8307 8313 8311 8308 8312 8312 8310 8305 8303 8304 8302 8301 8299 8300 8300 8299 8303 8298 8298 8292 8294 8296 8296 8293 8296 8293 8294 8294 8296 8292 8293 8292 8291 8287 8282 
8312 8308 8314 8306 8315 8311 8302 8301 8300 8310 8306 8303 8302 8299 8292 8302 8298 8299 8300 8305 8311 8310 8314 8310 8316 8310 8311 8313 8317 8312 8314 8315 8316 8316 8314 8311 8308 8316 8319 8313 8312 8313 8304 8306 8306 8306 8307 8310 8309 8310 8307 8308 8306 8304 8301 8304 8300 8297 8298 8300 8300 8301 8298 8294 8293 8289 8293 8293 8292 8294 8290 8288 8289 8287 8288 8284 8283 8280 8279 8278 
8291 8295 8303 8295 8307 8297 8295 8304 8296 8299 8307 8300 8289 8299 8297 8299 8300 8298 8292 8305 8303 8304 8306 8310 8310 8314 8310 8313 8311 8310 8310 8310 8311 8315 8312 8308 8309 8314 8311 8313 8314 8304 8304 8303 8307 8306 8304 8308 8304 8305 8305 8303 8302 8303 8308 8301 8296 8297 8300 8294 8298 8299 8296 8293 8291 8289 8293 8293 8294 8296 8287 8287 8285 8285 8281 8280 8281 8271 8271 8275 
8317 8289 8314 8291 8310 8299 8303 8302 8305 8303 8296 8285 8298 8296 8294 8298 8297 8300 8296 8297 8296 8295 8295 8310 8308 8309 8314 8312 8315 8315 8307 8307 8312 8313 8312 8307 8309 8310 8311 8311 8310 8304 8303 8302 8302 8301 8303 8303 8304 8301 8305 8300 8302 8301 8301 8305 8296 8296 8296 8297 8298 8300 8292 8292 8287 8287 8291 8292 8292 8295 8286 8286 8287 8284 8279 8274 8277 8271 8270 8271 
8309 8286 8308 8294 8304 8303 8304 8294 8297 8301 8296 8286 8290 8294 8285 8295 8295 8293 8299 8295 8296 8297 8296 8301 8308 8308 8313 8310 8308 8313 8310 8310 8308 8311 8311 8309 8311 8309 8309 8310 8307 8306 8300 8298 8297 8300 8297 8302 8300 8303 8298 8302 8301 8300 8301 8300 8296 8296 8298 8296 8294 8298 8291 8294 8288 8285 8288 8288 8293 8293 8286 8286 8286 8282 8277 8271 8274 8268 8261 8267 
8318 8300 8301 8292 8299 8295 8304 8303 8300 8304 8286 8293 8296 8287 8286 8291 8293 8286 8298 8301 8296 8293 8302 8302 8309 8309 8307 8307 8304 8308 8312 8309 8307 8309 8309 8307 8310 8308 8307 8309 8307 8305 8305 8299 8298 8300 8299 8301 8299 8302 8304 8303 8299 8301 8299 8299 8294 8297 8298 8297 8294 8298 8294 8288 8288 8291 8291 8287 8290 8294 8286 8288 8288 8278 8276 8273 8266 8263 8262 8267 
8320 8305 8305 8312 8304 8297 8311 8307 8300 8290 8282 8301 8296 8286 8287 8295 8285 8287 8297 8306 8293 8298 8304 8305 8309 8308 8304 8302 8302 8309 8310 8310 8307 8308 8308 8308 8305 8306 8306 8310 8310 8307 8305 8302 8300 8301 8302 8299 8297 8300 8299 8299 8300 8300 8300 8300 8293 8297 8298 8296 8293 8294 8294 8290 8288 8293 8295 8295 8286 8284 8291 8291 8286 8275 8273 8276 8269 8263 8263 8267 
8317 8308 8296 8310 8297 8298 8304 8311 8304 8278 8296 8301 8293 8286 8293 8294 8289 8290 8293 8294 8303 8297 8303 8311 8307 8306 8296 8300 8302 8303 8307 8305 8307 8309 8307 8304 8305 8303 8302 8305 8304 8303 8300 8299 8297 8300 8298 8294 8297 8296 8299 8297 8301 8302 8301 8301 8294 8293 8294 8293 8295 8291 8292 8290 8288 8295 8295 8297 8287 8285 8284 8286 8286 8277 8277 8276 8270 8264 8266 8263 
8320 8299 8299 8300 8305 8299 8309 8301 8302 8285 8292 8291 8289 8287 8284 8289 8289 8286 8293 8298 8297 8290 8298 8302 8295 8304 8296 8301 8299 8302 8299 8302 8304 8300 8303 8301 8297 8291 8286 8288 8281 8286 8297 8293 8295 8298 8295 8295 8296 8294 8297 8297 8297 8300 8298 8298 8296 8293 8294 8292 8292 8291 8289 8291 8288 8289 8290 8293 8288 8289 8285 8282 8284 8282 8278 8277 8274 8270 8268 8264 
8325 8288 8300 8305 8298 8305 8289 8301 8301 8297 8291 8292 8288 8288 8282 8286 8290 8288 8295 8299 8293 8290 8299 8298 8291 8301 8297 8300 8297 8299 8299 8296 8295 8297 8298 8292 8262 8216 8200 8199 8195 8222 8284 8290 8292 8296 8297 8294 8295 8292 8293 8297 8294 8299 8296 8292 8295 8294 8295 8291 8292 8295 8291 8291 8287 8288 8291 8290 8287 8290 8282 8286 8283 8280 8280 8278 8277 8273 8270 8272 
8316 8287 8299 8299 8296 8301 8282 8293 8297 8287 8293 8283 8287 8286 8280 8285 8285 8284 8282 8288 8290 8289 8295 8298 8292 8289 8283 8283 8270 8261 8287 8287 8288 8285 8277 8264 8187 8173 8170 8175 8193 8262 8287 8293 8293 8295 8294 8292 8293 8291 8293 8297 8296 8297 8295 8292 8294 8290 8296 8293 8293 8291 8292 8288 8287 8287 8293 8293 8288 8290 8285 8285 8284 8280 8278 8279 8280 8274 8272 8270 
8312 8303 8303 8297 8290 8298 8287 8298 8300 8288 8295 8283 8287 8286 8284 8286 8280 8279 8282 8291 8293 8292 8291 8296 8294 8271 8208 8192 8181 8201 8283 8284 8268 8238 8218 8195 8191 8172 8185 8220 8261 8289 8290 8294 8290 8294 8295 8290 8289 8292 8292 8299 8296 8297 8297 8294 8292 8289 8297 8295 8290 8295 8293 8293 8288 8289 8294 8294 8287 8284 8285 8285 8285 8282 8280 8278 8287 8279 8276 8270 
8318 8298 8287 8285 8286 8296 8298 8282 8294 8291 8285 8283 8284 8280 8286 8288 8283 8284 8286 8287 8289 8290 8288 8295 8294 8285 8251 8206 8183 8232 8281 8240 8204 8231 8261 8225 8185 8182 8234 8261 8267 8282 8288 8287 8281 8284 8276 8278 8273 8272 8282 8291 8293 8299 8298 8294 8292 8288 8295 8294 8295 8293 8294 8289 8289 8293 8292 8293 8292 8285 8283 8285 8283 8278 8280 8284 8290 8279 8276 8274 
8315 8308 8302 8299 8298 8297 8295 8297 8284 8296 8295 8293 8286 8281 8284 8283 8284 8283 8288 8288 8287 8286 8286 8291 8284 8278 8234 8188 8180 8234 8252 8172 8165 8175 8244 8261 8201 8198 8185 8183 8188 8220 8251 8254 8256 8252 8229 8223 8206 8209 8218 8249 8280 8292 8297 8293 8291 8290 8296 8294 8292 8289 8294 8292 8293 8292 8296 8295 8290 8287 8286 8284 8284 8286 8279 8287 8287 8284 8284 8277 
8319 8291 8303 8304 8300 8298 8291 8297 8288 8290 8290 8292 8291 8289 8288 8290 8283 8280 8286 8289 8279 8280 8276 8268 8239 8233 8191 8167 8165 8210 8218 8166 8162 8164 8211 8222 8180 8167 8171 8176 8181 8193 8240 8275 8279 8280 8277 8255 8225 8209 8203 8215 8236 8276 8289 8296 8290 8290 8295 8295 8292 8290 8290 8294 8292 8296 8296 8292 8289 8288 8285 8286 8287 8283 8282 8285 8286 8286 8285 8284 
8325 8280 8295 8300 8298 8291 8292 8296 8291 8295 8294 8285 8285 8281 8286 8287 8284 8283 8289 8284 8273 8252 8217 8195 8189 8197 8196 8172 8171 8185 8214 8187 8174 8166 8173 8177 8182 8188 8211 8198 8192 8195 8203 8241 8268 8277 8277 8279 8271 8243 8228 8221 8217 8230 8269 8290 8288 8289 8291 8292 8289 8289 8290 8290 8294 8296 8291 8291 8289 8288 8284 8284 8289 8285 8286 8283 8287 8286 8286 8281 
8319 8283 8293 8306 8295 8288 8291 8285 8290 8294 8290 8289 8283 8280 8279 8285 8278 8281 8284 8276 8243 8206 8231 8261 8262 8237 8200 8208 8208 8211 8204 8186 8177 8172 8174 8178 8200 8189 8183 8218 8220 8196 8190 8205 8235 8267 8271 8273 8280 8277 8251 8235 8226 8221 8229 8266 8283 8285 8289 8290 8290 8288 8289 8291 8296 8293 8292 8292 8287 8286 8285 8284 8287 8284 8287 8285 8286 8285 8285 8282 
8319 8292 8298 8289 8294 8299 8291 8296 8287 8297 8292 8285 8289 8285 8282 8282 8278 8280 8283 8276 8253 8257 8260 8257 8252 8225 8209 8216 8208 8198 8198 8184 8184 8181 8185 8188 8179 8172 8176 8184 8189 8214 8213 8203 8210 8227 8234 8238 8275 8285 8280 8252 8231 8229 8228 8239 8266 8281 8285 8291 8288 8289 8294 8292 8290 8289 8289 8291 8288 8285 8283 8286 8289 8286 8286 8287 8286 8284 8286 8280 
8309 8294 8297 8294 8293 8293 8296 8293 8297 8289 8290 8285 8288 8278 8280 8278 8268 8272 8262 8251 8240 8213 8182 8169 8160 8158 8187 8179 8170 8168 8175 8184 8188 8180 8177 8189 8171 8168 8169 8171 8173 8181 8190 8191 8189 8186 8192 8226 8270 8279 8286 8284 8255 8235 8232 8234 8245 8273 8285 8285 8284 8286 8294 8291 8290 8286 8290 8288 8287 8290 8285 8286 8287 8283 8285 8284 8285 8284 8282 8278 
8310 8288 8294 8295 8290 8301 8296 8293 8298 8287 8288 8273 8251 8239 8253 8256 8242 8239 8229 8223 8232 8187 8164 8157 8146 8134 8152 8172 8164 8147 8153 8179 8173 8153 8155 8163 8164 8159 8164 8177 8175 8177 8183 8186 8194 8206 8228 8263 8272 8281 8286 8288 8283 8266 8234 8234 8239 8267 8283 8283 8285 8284 8290 8293 8291 8288 8288 8288 8285 8285 8285 8288 8286 8282 8283 8285 8286 8282 8277 8286 
8316 8297 8286 8278 8283 8289 8285 8297 8294 8288 8275 8215 8177 8170 8177 8223 8230 8186 8169 8182 8203 8211 8200 8193 8154 8140 8139 8188 8188 8144 8145 8159 8145 8143 8145 8151 8155 8167 8188 8193 8189 8186 8186 8182 8194 8241 8246 8264 8270 8273 8274 8283 8283 8283 8270 8249 8243 8265 8285 8280 8284 8289 8291 8291 8288 8290 8288 8288 8284 8285 8283 8283 8285 8282 8280 8283 8282 8283 8280 8284 
8319 8302 8292 8300 8301 8294 8277 8293 8283 8288 8255 8179 8180 8179 8205 8220 8183 8175 8182 8195 8196 8199 8168 8161 8146 8144 8159 8172 8154 8147 8156 8160 8153 8159 8158 8155 8153 8164 8196 8219 8247 8226 8205 8202 8191 8216 8252 8250 8249 8254 8267 8276 8277 8282 8285 8285 8277 8265 8273 8282 8283 8282 8289 8287 8290 8289 8286 8290 8285 8281 8284 8281 8281 8280 8280 8279 8280 8281 8277 8278 
8315 8291 8298 8301 8292 8291 8281 8276 8280 8288 8246 8184 8180 8197 8211 8214 8191 8186 8186 8186 8197 8195 8171 8171 8158 8149 8147 8146 8148 8161 8169 8176 8189 8190 8190 8186 8163 8182 8180 8213 8249 8263 8263 8252 8233 8203 8200 8186 8176 8187 8233 8262 8274 8280 8285 8285 8282 8281 8270 8280 8282 8283 8285 8286 8286 8287 8286 8290 8284 8282 8281 8281 8283 8279 8280 8281 8282 8282 8277 8277 
8311 8299 8296 8296 8296 8296 8286 8275 8290 8283 8229 8188 8198 8242 8263 8258 8197 8194 8196 8217 8177 8167 8180 8179 8168 8154 8147 8144 8152 8162 8167 8177 8181 8182 8181 8186 8167 8169 8157 8164 8202 8233 8248 8253 8258 8258 8249 8234 8203 8181 8180 8194 8249 8274 8282 8283 8286 8285 8280 8282 8278 8283 8285 8287 8285 8288 8287 8289 8281 8282 8280 8280 8281 8280 8278 8276 8276 8278 8277 8277 
8312 8282 8298 8300 8293 8288 8281 8289 8288 8263 8210 8196 8241 8273 8277 8266 8194 8190 8192 8175 8173 8184 8191 8174 8167 8167 8160 8152 8162 8160 8169 8175 8181 8183 8175 8181 8178 8175 8163 8162 8169 8208 8262 8265 8265 8263 8264 8268 8265 8227 8187 8183 8196 8259 8274 8280 8280 8285 8283 8288 8277 8283 8282 8282 8287 8286 8286 8287 8284 8281 8279 8282 8282 8279 8277 8275 8273 8273 8274 8276 
8318 8280 8289 8301 8291 8282 8290 8276 8274 8243 8202 8223 8271 8278 8279 8264 8204 8192 8188 8180 8188 8192 8187 8165 8157 8159 8165 8173 8169 8162 8170 8183 8182 8180 8178 8182 8211 8206 8186 8183 8192 8215 8265 8265 8262 8262 8266 8264 8271 8266 8216 8190 8189 8229 8270 8278 8276 8279 8285 8287 8284 8279 8279 8285 8282 8282 8285 8286 8279 8280 8276 8278 8280 8277 8277 8276 8278 8275 8272 8277 
8307 8290 8280 8293 8285 8291 8284 8273 8269 8215 8204 8251 8275 8281 8276 8272 8260 8214 8197 8190 8210 8221 8204 8166 8154 8159 8175 8177 8175 8163 8160 8172 8169 8171 8169 8186 8226 8251 8246 8221 8248 8260 8270 8267 8266 8264 8267 8266 8273 8275 8264 8225 8215 8229 8233 8272 8276 8277 8285 8287 8282 8280 8280 8281 8282 8281 8279 8280 8274 8278 8276 8274 8276 8277 8276 8277 8279 8277 8275 8279 
8306 8294 8292 8293 8289 8280 8288 8277 8243 8205 8221 8276 8281 8277 8279 8278 8269 8258 8214 8228 8259 8261 8232 8167 8157 8165 8173 8180 8176 8166 8159 8187 8163 8157 8159 8174 8243 8226 8242 8265 8267 8273 8272 8270 8268 8264 8268 8266 8273 8278 8268 8276 8267 8269 8259 8273 8278 8282 8286 8287 8282 8282 8282 8281 8282 8282 8282 8274 8273 8275 8275 8277 8274 8277 8277 8279 8283 8277 8276 8283 
8305 8287 8286 8290 8283 8283 8283 8271 8213 8211 8255 8283 8286 8279 8281 8273 8272 8267 8260 8266 8266 8265 8251 8179 8163 8171 8180 8187 8215 8207 8162 8206 8168 8155 8155 8166 8246 8260 8240 8264 8267 8269 8270 8269 8267 8265 8268 8271 8271 8272 8275 8275 8281 8281 8283 8283 8282 8282 8286 8278 8279 8274 8281 8278 8278 8281 8280 8274 8270 8273 8274 8276 8275 8275 8279 8279 8276 8286 8285 8283 
8304 8282 8286 8293 8283 8292 8289 8273 8216 8214 8274 8282 8284 8279 8273 8276 8271 8278 8272 8273 8266 8267 8258 8224 8176 8174 8190 8229 8263 8240 8167 8159 8165 8157 8156 8157 8215 8262 8263 8264 8266 8267 8269 8269 8268 8263 8267 8269 8264 8267 8278 8278 8281 8283 8282 8283 8281 8276 8281 8275 8276 8275 8282 8280 8279 8280 8280 8274 8272 8272 8272 8275 8274 8277 8279 8277 8279 8288 8284 8284 
8306 8289 8286 8293 8289 8289 8279 8285 8245 8220 8282 8279 8277 8279 8275 8277 8273 8271 8271 8267 8267 8265 8262 8254 8206 8201 8252 8273 8265 8233 8164 8157 8163 8159 8158 8153 8165 8239 8222 8222 8232 8256 8266 8266 8265 8263 8267 8265 8267 8274 8275 8275 8277 8277 8281 8279 8278 8277 8281 8274 8275 8278 8280 8279 8281 8278 8280 8279 8271 8270 8271 8275 8276 8276 8280 8277 8285 8285 8285 8283 
8306 8286 8281 8287 8283 8289 8280 8283 8266 8231 8274 8280 8279 8274 8275 8277 8274 8268 8271 8273 8266 8275 8268 8257 8270 8272 8276 8277 8258 8217 8161 8160 8167 8163 8169 8167 8162 8181 8195 8188 8166 8183 8245 8266 8269 8269 8268 8269 8275 8275 8275 8276 8274 8275 8280 8276 8274 8275 8275 8276 8275 8278 8277 8278 8278 8278 8278 8271 8274 8270 8272 8276 8278 8272 8276 8278 8284 8288 8285 8287 
8308 8291 8282 8287 8278 8288 8277 8283 8282 8273 8276 8281 8277 8278 8277 8280 8274 8267 8269 8271 8266 8273 8262 8241 8276 8276 8276 8256 8196 8165 8153 8161 8168 8165 8169 8182 8181 8195 8187 8170 8166 8174 8214 8260 8265 8268 8271 8268 8269 8271 8271 8273 8278 8280 8274 8276 8276 8277 8277 8276 8277 8274 8275 8276 8274 8274 8274 8276 8276 8273 8276 8276 8274 8274 8279 8281 8281 8284 8286 8282 
8312 8280 8296 8294 8289 8288 8279 8284 8285 8284 8281 8282 8274 8277 8275 8277 8273 8276 8278 8270 8268 8273 8241 8216 8273 8272 8266 8234 8222 8212 8162 8164 8163 8167 8191 8191 8190 8221 8228 8179 8170 8174 8179 8225 8265 8269 8272 8270 8271 8269 8275 8274 8273 8275 8276 8277 8275 8273 8273 8272 8276 8274 8275 8275 8275 8278 8277 8277 8278 8280 8279 8277 8274 8277 8280 8278 8284 8286 8285 8281 
8312 8296 8293 8287 8290 8281 8287 8289 8284 8285 8289 8288 8284 8279 8281 8277 8280 8277 8278 8275 8273 8271 8207 8211 8270 8260 8194 8175 8177 8208 8200 8167 8166 8176 8201 8184 8178 8203 8223 8190 8174 8172 8174 8200 8260 8265 8269 8270 8270 8272 8277 8274 8276 8273 8276 8274 8273 8274 8271 8276 8277 8276 8278 8277 8276 8274 8277 8276 8277 8278 8278 8279 8275 8279 8279 8276 8285 8286 8285 8286 
8316 8292 8291 8291 8287 8287 8290 8290 8285 8283 8282 8290 8289 8284 8286 8284 8280 8279 8283 8276 8268 8238 8188 8214 8268 8210 8179 8182 8222 8259 8219 8175 8178 8190 8207 8224 8215 8199 8220 8204 8182 8179 8175 8192 8258 8258 8256 8254 8259 8266 8279 8280 8276 8278 8280 8277 8274 8279 8274 8277 8276 8278 8279 8274 8277 8275 8278 8277 8275 8279 8279 8277 8279 8277 8281 8288 8287 8283 8286 8291 
8316 8295 8294 8290 8288 8288 8289 8288 8290 8280 8286 8292 8292 8284 8285 8281 8283 8275 8282 8274 8214 8186 8185 8211 8251 8190 8206 8213 8240 8239 8216 8184 8183 8230 8243 8242 8243 8243 8220 8248 8206 8193 8183 8187 8243 8255 8253 8247 8248 8253 8274 8276 8279 8280 8279 8276 8274 8279 8279 8280 8277 8277 8275 8271 8277 8279 8280 8274 8273 8272 8277 8280 8278 8283 8286 8287 8287 8287 8284 8289 
8309 8291 8293 8292 8291 8289 8293 8288 8289 8287 8289 8291 8291 8284 8286 8282 8277 8274 8267 8248 8195 8179 8183 8210 8220 8207 8234 8239 8241 8229 8231 8202 8190 8242 8256 8262 8263 8258 8268 8279 8276 8249 8209 8203 8249 8262 8256 8252 8249 8248 8251 8273 8278 8280 8276 8279 8275 8278 8274 8277 8272 8275 8274 8274 8277 8278 8277 8278 8277 8274 8276 8280 8280 8285 8286 8286 8286 8287 8285 8285 
8306 8294 8290 8295 8292 8292 8289 8291 8289 8290 8292 8288 8289 8283 8283 8277 8279 8265 8236 8216 8193 8179 8180 8218 8225 8239 8248 8253 8251 8240 8246 8208 8189 8249 8264 8268 8270 8259 8252 8280 8279 8273 8262 8256 8257 8256 8257 8249 8251 8252 8260 8272 8277 8279 8276 8277 8277 8276 8273 8272 8272 8272 8273 8272 8275 8274 8279 8283 8279 8273 8272 8277 8278 8279 8283 8287 8286 8286 8284 8285 
8306 8296 8308 8295 8297 8295 8297 8288 8291 8293 8291 8288 8287 8282 8279 8274 8277 8271 8246 8220 8212 8202 8205 8224 8235 8242 8247 8254 8241 8238 8228 8219 8217 8230 8241 8252 8256 8261 8265 8268 8266 8263 8264 8263 8255 8257 8252 8258 8255 8260 8264 8277 8276 8276 8278 8276 8275 8272 8279 8275 8270 8273 8275 8275 8276 8280 8280 8281 8279 8278 8276 8273 8277 8280 8285 8286 8284 8281 8285 8283 
8306 8297 8307 8290 8296 8298 8289 8292 8290 8291 8289 8289 8281 8280 8289 8278 8273 8278 8261 8228 8219 8219 8221 8226 8228 8231 8233 8226 8220 8227 8237 8235 8239 8244 8256 8270 8279 8278 8280 8279 8278 8278 8275 8273 8268 8270 8270 8275 8273 8270 8275 8277 8274 8275 8276 8278 8274 8274 8275 8280 8276 8276 8279 8277 8280 8277 8276 8274 8276 8275 8279 8277 8278 8284 8286 8286 8282 8281 8285 8282 
8310 8289 8303 8287 8296 8297 8286 8285 8291 8292 8286 8293 8289 8285 8292 8290 8279 8285 8275 8242 8228 8224 8225 8227 8235 8239 8235 8222 8221 8228 8247 8251 8250 8249 8263 8277 8284 8294 8299 8303 8301 8302 8302 8299 8294 8294 8297 8294 8275 8276 8274 8274 8268 8275 8279 8277 8273 8273 8274 8276 8278 8281 8279 8279 8280 8279 8280 8277 8276 8276 8281 8279 8280 8285 8284 8287 8287 8288 8286 8290 
8312 8297 8293 8288 8286 8296 8294 8292 8296 8296 8295 8290 8287 8293 8282 8285 8279 8288 8273 8246 8231 8225 8231 8235 8238 8242 8233 8222 8224 8231 8234 8249 8245 8239 8247 8253 8267 8278 8294 8304 8309 8317 8323 8321 8309 8308 8288 8275 8271 8278 8272 8273 8270 8273 8276 8275 8275 8273 8274 8276 8273 8279 8279 8279 8281 8280 8281 8270 8274 8277 8278 8285 8282 8281 8288 8284 8289 8292 8287 8289 
8310 8298 8300 8292 8301 8291 8295 8294 8297 8299 8292 8295 8296 8294 8283 8284 8282 8281 8278 8275 8246 8221 8225 8231 8234 8237 8224 8220 8223 8226 8222 8237 8242 8238 8237 8243 8246 8264 8276 8290 8300 8301 8304 8308 8297 8293 8279 8270 8271 8267 8268 8269 8272 8275 8274 8274 8272 8273 8274 8277 8279 8278 8278 8276 8280 8278 8273 8271 8272 8275 8276 8277 8281 8285 8285 8282 8290 8290 8287 8285 
8313 8305 8299 8294 8298 8294 8304 8290 8300 8299 8292 8290 8294 8292 8290 8288 8291 8292 8279 8283 8257 8215 8216 8222 8223 8231 8224 8211 8217 8229 8221 8222 8240 8238 8238 8239 8247 8256 8260 8268 8266 8278 8275 8283 8279 8279 8282 8280 8275 8273 8265 8265 8266 8270 8276 8272 8275 8270 8274 8279 8274 8275 8278 8278 8278 8279 8276 8279 8280 8275 8273 8279 8284 8280 8277 8285 8286 8285 8284 8287 
8314 8297 8295 8301 8298 8297 8299 8295 8291 8295 8293 8291 8297 8294 8292 8297 8297 8288 8288 8288 8270 8234 8223 8231 8226 8231 8232 8216 8218 8219 8216 8225 8240 8246 8250 8250 8251 8253 8257 8257 8262 8268 8275 8280 8275 8282 8291 8291 8282 8272 8268 8264 8264 8264 8271 8274 8271 8267 8273 8275 8272 8275 8273 8277 8277 8278 8284 8279 8279 8279 8276 8274 8284 8283 8278 8280 8287 8284 8284 8284 
8318 8305 8295 8304 8303 8301 8301 8296 8295 8293 8295 8298 8300 8292 8291 8296 8295 8289 8289 8285 8283 8247 8239 8239 8233 8231 8230 8223 8215 8220 8218 8230 8242 8251 8254 8251 8247 8254 8255 8253 8265 8266 8273 8279 8278 8282 8283 8293 8289 8275 8268 8267 8267 8265 8268 8273 8270 8275 8272 8274 8274 8273 8270 8273 8271 8275 8279 8277 8277 8278 8279 8274 8281 8282 8280 8279 8287 8284 8288 8287 
8313 8307 8295 8302 8299 8298 8299 8299 8308 8309 8305 8295 8301 8287 8293 8298 8295 8292 8289 8289 8287 8253 8243 8250 8242 8237 8230 8230 8221 8224 8226 8239 8246 8255 8255 8256 8253 8253 8255 8258 8269 8280 8277 8279 8281 8281 8289 8292 8292 8277 8269 8268 8267 8267 8270 8267 8267 8269 8273 8269 8268 8273 8272 8275 8275 8274 8275 8275 8273 8277 8275 8283 8279 8279 8286 8290 8287 8285 8289 8287 
8314 8293 8304 8307 8297 8304 8306 8303 8304 8300 8300 8302 8304 8293 8299 8298 8296 8292 8293 8291 8289 8261 8255 8253 8249 8245 8243 8245 8231 8218 8225 8249 8257 8252 8259 8257 8262 8262 8259 8265 8273 8280 8283 8281 8280 8282 8290 8294 8289 8278 8263 8269 8271 8264 8269 8266 8269 8271 8269 8267 8270 8270 8273 8276 8269 8275 8275 8271 8277 8273 8280 8279 8284 8282 8285 8289 8285 8286 8289 8292 
8314 8295 8304 8301 8297 8304 8310 8300 8304 8301 8302 8303 8306 8303 8297 8295 8298 8296 8298 8293 8290 8280 8261 8256 8251 8247 8251 8256 8251 8242 8246 8251 8259 8258 8264 8261 8265 8264 8261 8268 8276 8282 8277 8281 8279 8289 8292 8298 8288 8269 8264 8272 8268 8267 8264 8263 8267 8273 8270 8266 8267 8274 8277 8273 8267 8268 8271 8273 8275 8279 8277 8283 8287 8286 8283 8287 8293 8291 8292 8294 
8313 8291 8296 8298 8303 8301 8309 8300 8300 8299 8306 8303 8304 8304 8302 8303 8298 8297 8302 8292 8292 8285 8263 8265 8248 8247 8249 8255 8262 8261 8259 8256 8256 8263 8263 8259 8265 8267 8269 8274 8273 8280 8282 8279 8282 8284 8295 8298 8293 8266 8259 8269 8266 8265 8261 8269 8267 8267 8265 8264 8272 8274 8271 8266 8265 8269 8271 8276 8281 8284 8280 8281 8289 8286 8290 8286 8293 8292 8294 8300 
8307 8297 8294 8298 8298 8299 8298 8306 8299 8296 8305 8302 8307 8309 8300 8297 8296 8298 8304 8294 8296 8293 8279 8266 8253 8258 8260 8256 8263 8266 8262 8266 8259 8264 8266 8261 8264 8267 8275 8276 8275 8281 8282 8280 8283 8287 8292 8295 8290 8268 8269 8268 8266 8266 8268 8268 8267 8265 8264 8273 8276 8276 8276 8265 8266 8273 8276 8274 8287 8282 8290 8288 8290 8292 8301 8302 8306 8311 8316 8311 
8305 8293 8297 8296 8295 8292 8293 8306 8308 8301 8296 8300 8296 8301 8301 8294 8298 8301 8299 8299 8292 8294 8283 8278 8264 8262 8259 8264 8266 8264 8266 8270 8269 8270 8272 8269 8270 8267 8270 8278 8276 8278 8278 8284 8284 8287 8292 8290 8285 8265 8265 8272 8259 8263 8270 8265 8265 8266 8273 8276 8277 8279 8282 8272 8273 8280 8277 8286 8297 8299 8310 8318 8310 8322 8323 8321 8319 8325 8334 8328 
8319 8301 8297 8293 8301 8300 8301 8308 8305 8314 8294 8297 8296 8302 8298 8295 8297 8298 8296 8293 8292 8294 8292 8282 8268 8261 8265 8266 8260 8265 8267 8263 8268 8277 8276 8275 8277 8271 8273 8275 8278 8281 8279 8282 8286 8290 8289 8287 8288 8273 8274 8270 8265 8252 8265 8266 8265 8260 8262 8269 8279 8274 8278 8282 8286 8284 8286 8306 8305 8301 8308 8319 8322 8323 8329 8327 8323 8319 8336 8331 
8318 8308 8299 8300 8302 8304 8311 8312 8324 8328 8291 8296 8299 8301 8293 8293 8291 8286 8294 8290 8289 8298 8290 8279 8273 8263 8261 8261 8265 8263 8264 8267 8271 8275 8279 8274 8279 8270 8274 8275 8277 8279 8284 8286 8284 8285 8283 8291 8286 8272 8267 8271 8262 8258 8263 8266 8271 8266 8261 8276 8283 8280 8272 8276 8283 8273 8280 8291 8302 8309 8312 8320 8324 8322 8321 8328 8325 8327 8332 8333 
8323 8323 8320 8307 8301 8307 8334 8350 8320 8310 8304 8309 8338 8338 8312 8298 8294 8295 8315 8328 8309 8304 8300 8278 8265 8246 8263 8263 8268 8262 8262 8267 8274 8270 8280 8275 8277 8273 8273 8275 8278 8284 8283 8286 8284 8288 8279 8289 8286 8271 8275 8272 8264 8265 8258 8261 8261 8269 8261 8269 8275 8276 8274 8281 8293 8290 8286 8295 8302 8302 8313 8314 8331 8336 8337 8324 8322 8328 8333 8333 
8365 8367 8340 8308 8301 8326 8391 8380 8336 8329 8334 8350 8412 8396 8351 8332 8327 8349 8389 8384 8349 8342 8312 8289 8268 8243 8244 8264 8268 8269 8268 8260 8275 8267 8275 8277 8278 8274 8266 8274 8276 8281 8279 8280 8283 8277 8276 8277 8274 8271 8274 8269 8260 8258 8267 8256 8264 8274 8262 8262 8270 8274 8279 8274 8277 8296 8296 8300 8303 8312 8320 8316 8318 8326 8334 8335 8332 8330 8331 8334 
8421 8382 8351 8335 8370 8393 8426 8411 8416 8423 8438 8436 8441 8437 8425 8414 8407 8424 8416 8406 8392 8385 8354 8315 8292 8268 8269 8266 8266 8266 8262 8266 8267 8266 8258 8262 8268 8262 8264 8270 8274 8269 8264 8270 8270 8264 8266 8266 8262 8266 8270 8257 8247 8250 8258 8252 8254 8262 8265 8264 8267 8280 8285 8278 8281 8289 8297 8303 8306 8313 8329 8331 8330 8327 8340 8338 8339 8321 8336 8336 
8393 8357 8351 8375 8404 8401 8392 8407 8418 8429 8456 8437 8416 8418 8401 8385 8402 8426 8398 8370 8369 8363 8370 8336 8316 8298 8299 8294 8286 8282 8279 8267 8270 8275 8266 8269 8271 8273 8267 8273 8270 8263 8263 8256 8255 8250 8265 8263 8264 8267 8266 8253 8251 8255 8258 8255 8255 8259 8265 8266 8268 8274 8278 8282 8285 8297 8312 8324 8321 8326 8333 8346 8344 8339 8352 8360 8358 8328 8339 8345 
8381 8373 8390 8417 8422 8414 8410 8430 8445 8457 8460 8445 8428 8423 8428 8425 8423 8418 8404 8389 8386 8388 8406 8379 8322 8306 8309 8304 8299 8297 8290 8288 8289 8291 8286 8278 8282 8280 8277 8274 8272 8266 8260 8253 8255 8252 8269 8269 8268 8267 8261 8255 8246 8251 8257 8263 8262 8263 8271 8278 8280 8286 8290 8291 8297 8301 8315 8334 8338 8337 8352 8378 8386 8379 8364 8362 8357 8366 8347 8343 


