P2
80 60
8247
8203 8207 8207 8205 8206 8209 8208 8207 8209 8212 8213 8212 8212 8217 8219 8219 8222 8225 8220 8220 8221 8222 8221 8225 8226 8230 8226 8229 8234 8237 8234 8237 8239 8238 8240 8240 8239 8238 8244 8242 8238 8237 8234 8237 8236 8232 8236 8233 8233 8227 8227 8225 8222 8224 8224 8221 8219 8222 8223 8220 8222 8222 8222 8223 8229 8226 8229 8229 8224 8224 8229 8229 8232 8227 8228 8225 8223 8217 8219 8215 
8204 8206 8207 8208 8205 8207 8205 8210 8209 8212 8213 8212 8215 8217 8217 8218 8222 8223 8223 8222 8226 8220 8223 8224 8227 8227 8229 8229 8233 8233 8233 8237 8237 8238 8238 8241 8239 8240 8243 8243 8242 8240 8237 8236 8236 8234 8236 8233 8232 8229 8227 8226 8225 8224 8223 8220 8221 8224 8224 8220 8220 8222 8222 8224 8226 8226 8226 8230 8226 8228 8227 8226 8228 8229 8228 8225 8221 8218 8219 8218 
8206 8207 8206 8205 8208 8208 8209 8211 8208 8216 8215 8213 8213 8218 8220 8219 8222 8225 8224 8224 8221 8223 8222 8225 8227 8227 8232 8229 8234 8235 8234 8236 8237 8238 8240 8240 8242 8244 8244 8244 8240 8240 8238 8235 8236 8238 8234 8234 8232 8228 8226 8226 8222 8222 8225 8220 8223 8225 8223 8219 8222 8221 8218 8221 8225 8225 8226 8228 8228 8228 8226 8225 8228 8225 8228 8225 8220 8219 8221 8216 
8209 8205 8211 8209 8208 8211 8211 8208 8212 8212 8215 8216 8214 8218 8217 8222 8226 8223 8222 8225 8225 8221 8228 8225 8225 8227 8230 8231 8235 8234 8236 8234 8236 8238 8242 8241 8241 8240 8243 8244 8242 8240 8235 8238 8240 8237 8235 8232 8230 8226 8227 8228 8224 8227 8223 8222 8222 8223 8222 8223 8222 8222 8220 8221 8223 8224 8222 8228 8227 8232 8226 8227 8227 8226 8225 8226 8222 8217 8220 8220 
8206 8209 8209 8205 8212 8208 8208 8214 8210 8214 8213 8214 8214 8219 8217 8221 8227 8223 8221 8220 8221 8220 8226 8226 8225 8228 8224 8232 8237 8237 8235 8236 8236 8240 8239 8241 8240 8243 8246 8247 8241 8238 8237 8235 8238 8235 8231 8234 8231 8227 8224 8225 8223 8224 8223 8221 8225 8225 8226 8220 8222 8221 8218 8219 8224 8221 8221 8224 8224 8228 8228 8228 8228 8226 8225 8223 8218 8217 8220 8216 
8205 8209 8210 8207 8207 8211 8210 8214 8211 8213 8212 8211 8213 8215 8217 8217 8221 8225 8224 8223 8223 8223 8224 8225 8226 8225 8226 8226 8233 8236 8235 8235 8237 8238 8240 8239 8240 8242 8243 8243 8240 8236 8236 8235 8234 8234 8234 8233 8230 8228 8226 8225 8224 8224 8223 8221 8223 8221 8227 8222 8220 8220 8218 8217 8223 8219 8218 8221 8225 8225 8227 8226 8227 8225 8224 8222 8218 8214 8216 8218 
8206 8206 8212 8208 8208 8211 8212 8208 8208 8210 8210 8211 8213 8213 8216 8217 8220 8221 8223 8222 8225 8222 8227 8224 8226 8231 8224 8226 8230 8236 8238 8234 8236 8236 8239 8237 8241 8240 8243 8244 8238 8236 8235 8233 8235 8234 8235 8231 8232 8228 8223 8226 8222 8224 8224 8220 8219 8224 8222 8220 8221 8222 8217 8219 8219 8217 8219 8221 8223 8224 8224 8221 8226 8223 8222 8220 8218 8214 8214 8213 
8206 8204 8212 8208 8208 8210 8209 8212 8204 8208 8214 8212 8212 8216 8214 8218 8220 8221 8220 8224 8223 8222 8226 8228 8226 8227 8225 8228 8233 8236 8237 8234 8237 8235 8238 8240 8236 8239 8242 8242 8237 8236 8235 8232 8234 8229 8234 8231 8228 8225 8224 8223 8223 8221 8221 8222 8222 8221 8223 8219 8223 8220 8218 8217 8221 8217 8218 8222 8220 8219 8219 8219 8220 8220 8218 8219 8218 8212 8213 8213 
8206 8206 8212 8207 8208 8209 8207 8209 8210 8208 8214 8208 8210 8214 8212 8216 8222 8221 8221 8222 8224 8220 8223 8223 8222 8224 8224 8229 8233 8233 8234 8235 8236 8237 8236 8239 8238 8240 8239 8236 8238 8237 8234 8231 8234 8231 8231 8230 8230 8226 8224 8223 8222 8222 8222 8222 8222 8221 8223 8219 8219 8221 8217 8218 8221 8215 8218 8215 8218 8218 8219 8217 8218 8215 8214 8217 8216 8211 8212 8209 
8206 8205 8211 8211 8208 8208 8208 8212 8209 8210 8214 8212 8210 8215 8214 8216 8217 8219 8220 8223 8222 8218 8221 8223 8223 8226 8223 8225 8232 8235 8233 8234 8235 8235 8235 8236 8233 8239 8238 8235 8236 8235 8233 8230 8234 8232 8232 8234 8228 8224 8224 8222 8223 8225 8220 8217 8222 8227 8224 8221 8220 8218 8218 8215 8218 8215 8218 8216 8218 8219 8216 8216 8218 8214 8213 8215 8216 8211 8213 8212 
8204 8209 8210 8209 8212 8213 8211 8212 8212 8211 8212 8212 8212 8216 8211 8214 8218 8220 8219 8221 8221 8217 8219 8222 8220 8224 8222 8224 8232 8236 8234 8234 8237 8235 8236 8236 8235 8235 8238 8236 8236 8236 8236 8234 8234 8230 8236 8231 8230 8223 8224 8225 8219 8225 8223 8221 8223 8225 8224 8219 8221 8221 8218 8216 8218 8215 8216 8215 8217 8215 8214 8213 8215 8213 8212 8217 8210 8210 8210 8214 
8206 8208 8213 8209 8210 8211 8209 8210 8211 8210 8210 8213 8211 8216 8213 8214 8217 8218 8220 8220 8221 8218 8218 8223 8220 8224 8222 8228 8234 8232 8233 8231 8233 8231 8236 8234 8234 8233 8235 8235 8235 8233 8237 8234 8233 8231 8233 8229 8229 8226 8225 8224 8222 8223 8224 8221 8220 8222 8222 8219 8217 8219 8217 8216 8220 8216 8216 8218 8216 8218 8212 8214 8217 8214 8214 8215 8210 8207 8210 8209 
8205 8208 8210 8206 8209 8211 8211 8210 8207 8211 8210 8211 8214 8215 8213 8217 8220 8220 8220 8222 8222 8218 8220 8221 8223 8224 8222 8226 8228 8234 8233 8235 8235 8233 8234 8232 8233 8235 8235 8237 8234 8230 8232 8233 8233 8234 8229 8232 8228 8226 8225 8225 8221 8222 8223 8221 8220 8222 8221 8220 8217 8222 8221 8218 8220 8220 8219 8215 8218 8219 8215 8215 8214 8216 8213 8214 8212 8209 8212 8209 
8207 8205 8211 8210 8208 8210 8211 8209 8212 8211 8211 8216 8214 8215 8216 8219 8220 8221 8220 8225 8223 8217 8218 8221 8219 8224 8224 8227 8230 8231 8234 8232 8232 8231 8233 8235 8234 8235 8233 8235 8235 8232 8231 8233 8235 8230 8226 8229 8228 8225 8224 8225 8221 8221 8225 8223 8223 8221 8223 8220 8219 8218 8219 8218 8221 8218 8217 8219 8215 8219 8217 8216 8218 8213 8214 8213 8213 8209 8210 8206 
8204 8207 8211 8210 8209 8211 8209 8210 8210 8214 8213 8213 8212 8214 8218 8222 8223 8222 8223 8225 8222 8218 8216 8220 8220 8222 8224 8226 8232 8233 8231 8231 8232 8230 8235 8232 8235 8234 8237 8232 8232 8230 8233 8231 8233 8230 8227 8225 8227 8227 8225 8222 8221 8221 8223 8218 8220 8222 8223 8222 8222 8220 8221 8218 8218 8219 8218 8220 8221 8218 8218 8216 8217 8213 8214 8214 8210 8209 8209 8205 
8206 8209 8210 8210 8210 8210 8211 8210 8212 8209 8213 8214 8214 8215 8218 8218 8221 8223 8222 8224 8221 8221 8220 8223 8222 8223 8224 8228 8231 8229 8232 8231 8232 8232 8231 8233 8233 8228 8232 8233 8231 8230 8231 8232 8234 8227 8225 8226 8227 8223 8222 8222 8223 8222 8222 8219 8222 8222 8221 8221 8219 8220 8222 8219 8222 8217 8218 8224 8219 8221 8218 8216 8218 8216 8215 8216 8213 8212 8214 8209 
8205 8207 8211 8208 8211 8210 8211 8210 8210 8213 8218 8215 8214 8216 8215 8217 8223 8223 8222 8222 8223 8217 8220 8221 8221 8225 8227 8227 8233 8231 8233 8232 8232 8229 8223 8224 8228 8229 8230 8234 8230 8230 8228 8228 8229 8226 8223 8224 8225 8224 8222 8221 8220 8220 8220 8221 8218 8220 8221 8221 8221 8223 8221 8221 8220 8224 8219 8222 8221 8222 8220 8217 8219 8218 8215 8217 8215 8211 8213 8206 
8209 8210 8212 8210 8211 8214 8209 8211 8209 8213 8217 8213 8214 8216 8217 8219 8224 8225 8220 8221 8222 8219 8219 8220 8219 8223 8225 8226 8233 8230 8230 8233 8229 8225 8194 8185 8189 8197 8226 8229 8225 8227 8214 8194 8189 8199 8205 8218 8223 8222 8224 8223 8217 8222 8220 8220 8219 8221 8221 8220 8220 8220 8219 8219 8225 8221 8219 8222 8223 8221 8215 8216 8219 8219 8217 8218 8215 8213 8213 8213 
8204 8209 8212 8209 8210 8209 8209 8211 8212 8212 8215 8214 8217 8215 8218 8219 8219 8223 8221 8223 8221 8218 8219 8222 8220 8224 8224 8225 8230 8229 8230 8226 8212 8203 8183 8179 8185 8210 8205 8192 8193 8211 8189 8176 8174 8172 8185 8207 8216 8222 8223 8222 8219 8222 8220 8218 8219 8220 8223 8220 8219 8219 8219 8219 8222 8221 8218 8222 8220 8220 8218 8218 8219 8218 8216 8217 8214 8211 8215 8208 
8205 8205 8210 8211 8209 8210 8211 8209 8209 8211 8215 8214 8215 8215 8217 8217 8221 8220 8219 8221 8221 8217 8219 8221 8222 8225 8227 8224 8230 8229 8230 8231 8228 8214 8184 8180 8207 8189 8176 8188 8195 8178 8189 8187 8202 8204 8217 8222 8223 8221 8219 8221 8215 8216 8218 8217 8219 8219 8220 8218 8218 8220 8216 8218 8221 8220 8221 8221 8218 8220 8217 8219 8219 8218 8219 8217 8216 8214 8214 8210 
8207 8209 8211 8208 8211 8212 8208 8208 8213 8212 8212 8220 8217 8216 8217 8216 8220 8220 8219 8218 8221 8218 8219 8220 8221 8222 8223 8222 8229 8228 8227 8214 8218 8220 8194 8186 8195 8173 8176 8185 8216 8197 8199 8207 8210 8212 8221 8222 8219 8218 8217 8216 8209 8211 8211 8215 8217 8217 8218 8216 8219 8223 8220 8221 8220 8220 8222 8220 8217 8223 8219 8219 8221 8220 8217 8219 8216 8214 8214 8209 
8208 8209 8209 8207 8209 8208 8210 8207 8210 8213 8214 8216 8219 8217 8216 8218 8220 8218 8218 8218 8220 8214 8215 8218 8219 8220 8222 8222 8228 8211 8201 8202 8205 8217 8218 8189 8180 8178 8188 8210 8209 8189 8177 8179 8177 8175 8181 8195 8202 8206 8206 8196 8183 8177 8182 8203 8213 8219 8219 8215 8219 8220 8220 8219 8223 8223 8220 8220 8219 8221 8220 8220 8224 8222 8219 8219 8215 8215 8213 8210 
8210 8206 8207 8208 8208 8210 8210 8210 8211 8216 8217 8219 8218 8219 8220 8220 8218 8220 8216 8218 8213 8196 8185 8200 8207 8208 8211 8209 8201 8193 8219 8223 8219 8196 8189 8185 8180 8180 8184 8192 8182 8179 8177 8173 8174 8183 8178 8172 8190 8210 8214 8216 8207 8194 8181 8179 8199 8218 8219 8216 8219 8220 8220 8220 8226 8225 8222 8220 8219 8219 8221 8220 8221 8220 8218 8219 8216 8212 8212 8216 
8208 8210 8210 8206 8209 8212 8212 8209 8212 8212 8218 8219 8218 8217 8218 8220 8222 8219 8213 8198 8181 8174 8173 8186 8203 8216 8216 8210 8197 8209 8204 8206 8190 8177 8174 8186 8182 8175 8178 8177 8175 8179 8181 8175 8177 8193 8201 8181 8175 8193 8215 8214 8213 8212 8201 8182 8183 8207 8215 8218 8220 8223 8219 8224 8224 8223 8221 8222 8219 8220 8220 8219 8219 8218 8217 8218 8215 8214 8215 8214 
8210 8210 8213 8214 8208 8212 8211 8212 8213 8214 8218 8220 8218 8221 8218 8220 8221 8219 8194 8173 8174 8172 8194 8214 8213 8210 8196 8195 8203 8204 8192 8178 8178 8173 8174 8187 8182 8175 8177 8175 8176 8176 8178 8176 8174 8175 8184 8188 8176 8176 8188 8200 8214 8217 8218 8213 8192 8191 8208 8217 8221 8221 8223 8221 8225 8221 8219 8223 8223 8219 8221 8218 8221 8218 8221 8218 8219 8214 8215 8214 
8207 8205 8213 8213 8212 8213 8211 8211 8213 8215 8215 8222 8220 8219 8219 8218 8217 8202 8174 8175 8180 8198 8212 8214 8195 8179 8179 8182 8192 8187 8185 8182 8181 8176 8180 8177 8178 8176 8170 8169 8168 8171 8172 8174 8171 8169 8171 8172 8170 8171 8174 8200 8214 8216 8216 8218 8215 8204 8192 8207 8218 8221 8222 8220 8222 8224 8222 8221 8222 8221 8218 8217 8220 8220 8217 8220 8216 8216 8217 8214 
8206 8210 8213 8211 8211 8214 8216 8211 8213 8213 8216 8219 8221 8222 8219 8218 8215 8184 8174 8177 8201 8215 8213 8200 8183 8191 8205 8211 8211 8195 8181 8179 8186 8177 8187 8202 8182 8181 8170 8171 8169 8167 8168 8170 8174 8169 8169 8169 8187 8206 8215 8217 8218 8217 8219 8218 8219 8218 8210 8196 8215 8219 8219 8221 8221 8224 8220 8223 8223 8219 8217 8215 8221 8222 8218 8218 8215 8216 8214 8215 
8209 8208 8215 8213 8214 8215 8214 8214 8213 8215 8215 8220 8220 8219 8218 8215 8200 8181 8179 8200 8216 8215 8213 8217 8214 8215 8213 8191 8188 8186 8185 8183 8183 8180 8176 8179 8185 8172 8171 8172 8170 8169 8168 8173 8197 8196 8175 8171 8174 8204 8215 8217 8214 8220 8217 8218 8220 8219 8220 8211 8201 8213 8220 8219 8224 8222 8222 8222 8220 8218 8218 8218 8223 8218 8220 8220 8220 8221 8220 8211 
8209 8211 8207 8214 8212 8215 8214 8215 8216 8216 8220 8220 8219 8219 8218 8215 8188 8180 8196 8216 8220 8216 8220 8219 8209 8192 8181 8185 8186 8185 8195 8195 8185 8184 8181 8181 8180 8172 8170 8173 8168 8169 8177 8176 8182 8189 8204 8192 8178 8180 8213 8218 8213 8206 8203 8213 8220 8220 8224 8220 8212 8197 8211 8218 8224 8222 8219 8221 8219 8216 8215 8216 8219 8220 8220 8217 8217 8219 8217 8216 
8208 8209 8213 8213 8214 8213 8216 8216 8217 8216 8219 8221 8223 8220 8219 8207 8179 8193 8216 8220 8220 8218 8222 8212 8178 8180 8191 8194 8189 8194 8219 8215 8193 8184 8183 8179 8182 8174 8171 8171 8168 8173 8172 8177 8178 8175 8182 8213 8207 8186 8187 8202 8188 8182 8181 8181 8190 8216 8222 8220 8218 8210 8208 8218 8220 8218 8216 8218 8216 8216 8217 8216 8221 8219 8223 8219 8220 8219 8216 8217 
8211 8211 8215 8214 8217 8214 8213 8214 8216 8219 8216 8223 8220 8220 8218 8210 8187 8214 8222 8221 8222 8222 8224 8203 8178 8206 8225 8207 8202 8225 8231 8230 8221 8205 8190 8186 8184 8178 8175 8174 8172 8172 8174 8177 8176 8177 8176 8190 8205 8206 8207 8213 8215 8215 8207 8192 8180 8191 8216 8218 8218 8221 8215 8220 8224 8217 8216 8219 8216 8215 8215 8216 8219 8220 8220 8221 8217 8220 8217 8212 
8213 8214 8219 8215 8215 8216 8215 8216 8217 8217 8217 8217 8220 8218 8220 8212 8206 8221 8221 8221 8222 8224 8224 8215 8204 8226 8229 8224 8232 8230 8230 8222 8211 8213 8220 8193 8180 8179 8178 8178 8175 8175 8175 8178 8178 8175 8175 8183 8199 8220 8219 8220 8218 8221 8218 8216 8195 8184 8195 8209 8215 8219 8217 8220 8220 8218 8218 8216 8214 8217 8215 8214 8216 8215 8217 8220 8214 8217 8213 8213 
8212 8214 8217 8216 8218 8216 8216 8215 8217 8217 8217 8217 8220 8221 8221 8215 8219 8223 8223 8223 8223 8223 8223 8225 8224 8230 8229 8233 8234 8230 8229 8218 8224 8222 8206 8202 8186 8177 8181 8179 8177 8178 8186 8212 8209 8185 8183 8218 8211 8222 8221 8223 8218 8220 8220 8219 8218 8205 8200 8197 8206 8218 8220 8219 8222 8217 8215 8216 8217 8216 8213 8212 8217 8215 8216 8215 8215 8217 8214 8213 
8211 8215 8217 8214 8218 8216 8215 8215 8214 8216 8217 8220 8218 8219 8222 8222 8223 8223 8226 8223 8225 8225 8227 8222 8224 8228 8227 8230 8235 8232 8229 8219 8223 8228 8226 8224 8205 8183 8180 8180 8179 8179 8181 8192 8219 8224 8217 8228 8226 8224 8222 8223 8220 8221 8221 8219 8217 8220 8219 8218 8219 8221 8215 8221 8220 8217 8217 8215 8214 8215 8213 8215 8216 8217 8214 8217 8217 8214 8215 8212 
8213 8215 8220 8218 8216 8216 8218 8216 8218 8216 8217 8218 8217 8220 8222 8223 8224 8224 8226 8226 8227 8226 8225 8225 8224 8229 8230 8232 8235 8228 8227 8220 8224 8227 8230 8222 8194 8177 8180 8182 8176 8178 8176 8186 8205 8230 8230 8230 8227 8227 8225 8224 8220 8223 8221 8222 8220 8221 8220 8218 8219 8217 8219 8217 8217 8219 8215 8216 8214 8214 8215 8213 8213 8215 8216 8216 8217 8214 8213 8211 
8213 8213 8218 8216 8219 8216 8214 8217 8214 8220 8219 8219 8219 8222 8220 8222 8224 8224 8224 8226 8228 8226 8224 8224 8227 8225 8227 8232 8237 8230 8231 8222 8220 8221 8212 8179 8174 8177 8178 8176 8175 8178 8178 8190 8219 8227 8229 8230 8226 8223 8225 8221 8220 8224 8223 8220 8217 8218 8219 8218 8217 8217 8215 8217 8219 8218 8216 8216 8213 8214 8217 8213 8215 8214 8216 8215 8214 8211 8210 8209 
8214 8216 8221 8216 8218 8217 8216 8217 8216 8217 8218 8219 8221 8220 8221 8223 8222 8221 8224 8225 8226 8225 8226 8228 8225 8227 8227 8231 8234 8231 8232 8225 8202 8194 8177 8173 8184 8174 8178 8177 8181 8178 8177 8178 8183 8200 8225 8226 8224 8223 8219 8221 8219 8224 8222 8221 8221 8216 8217 8219 8219 8216 8216 8216 8220 8217 8215 8216 8213 8215 8215 8212 8218 8214 8215 8216 8215 8210 8208 8209 
8220 8220 8219 8218 8216 8217 8216 8218 8217 8218 8221 8222 8222 8223 8221 8219 8222 8223 8225 8227 8227 8227 8228 8225 8225 8227 8229 8231 8233 8233 8231 8222 8197 8188 8180 8176 8176 8175 8177 8179 8189 8198 8189 8196 8179 8186 8221 8223 8223 8218 8222 8222 8218 8224 8222 8220 8220 8221 8221 8215 8219 8217 8215 8216 8216 8217 8215 8217 8214 8212 8215 8215 8218 8217 8217 8215 8214 8211 8210 8209 
8221 8222 8221 8220 8220 8217 8220 8219 8220 8220 8219 8222 8223 8224 8221 8220 8224 8227 8224 8225 8226 8220 8225 8225 8226 8231 8228 8230 8234 8232 8223 8193 8186 8199 8193 8190 8177 8177 8178 8178 8196 8197 8217 8214 8191 8178 8192 8211 8220 8222 8221 8225 8221 8218 8223 8222 8222 8222 8222 8215 8218 8217 8219 8217 8218 8216 8216 8217 8213 8214 8215 8214 8216 8216 8213 8213 8213 8210 8211 8214 
8218 8222 8224 8220 8220 8223 8221 8219 8219 8222 8221 8219 8222 8220 8222 8225 8226 8227 8227 8227 8228 8224 8227 8225 8224 8228 8226 8227 8234 8224 8193 8179 8184 8199 8209 8205 8181 8175 8177 8178 8185 8201 8198 8207 8207 8187 8175 8182 8211 8220 8222 8221 8222 8222 8223 8223 8225 8223 8221 8216 8217 8217 8218 8218 8219 8216 8215 8218 8216 8216 8216 8216 8216 8217 8217 8219 8217 8211 8212 8210 
8217 8219 8220 8219 8220 8221 8220 8218 8218 8224 8221 8225 8225 8225 8223 8225 8225 8230 8228 8228 8228 8224 8226 8225 8224 8221 8207 8205 8202 8192 8181 8179 8180 8187 8193 8193 8180 8176 8176 8180 8183 8186 8180 8177 8178 8188 8178 8179 8196 8216 8219 8221 8221 8223 8224 8222 8221 8223 8221 8219 8216 8220 8217 8219 8220 8216 8212 8215 8212 8213 8216 8217 8218 8215 8218 8218 8214 8211 8214 8214 
8216 8220 8222 8218 8218 8220 8220 8221 8218 8222 8222 8224 8224 8225 8225 8226 8227 8229 8227 8229 8229 8226 8231 8229 8220 8192 8185 8186 8185 8185 8181 8177 8179 8185 8192 8193 8185 8179 8179 8189 8182 8185 8182 8180 8182 8183 8186 8180 8184 8191 8196 8201 8210 8216 8220 8219 8222 8221 8225 8223 8221 8221 8218 8219 8222 8217 8218 8216 8216 8215 8217 8216 8216 8216 8214 8216 8216 8214 8213 8218 
8220 8219 8222 8219 8218 8221 8222 8218 8222 8222 8223 8224 8227 8225 8223 8224 8226 8227 8226 8228 8227 8227 8229 8227 8226 8198 8185 8185 8188 8188 8183 8179 8180 8185 8189 8192 8182 8180 8180 8192 8186 8189 8189 8185 8180 8188 8194 8185 8182 8189 8188 8185 8185 8188 8202 8217 8220 8220 8221 8219 8220 8224 8222 8223 8221 8219 8214 8217 8216 8215 8215 8216 8219 8219 8217 8216 8215 8216 8213 8212 
8216 8220 8220 8218 8220 8221 8222 8220 8222 8223 8224 8223 8224 8226 8227 8225 8229 8228 8227 8227 8231 8224 8227 8230 8223 8201 8184 8183 8188 8184 8184 8180 8177 8183 8179 8181 8179 8179 8182 8185 8180 8184 8186 8181 8184 8192 8191 8191 8188 8184 8184 8187 8184 8190 8208 8221 8220 8220 8222 8220 8221 8221 8219 8220 8220 8219 8218 8216 8215 8212 8212 8212 8217 8219 8213 8216 8217 8216 8214 8211 
8219 8220 8221 8221 8218 8219 8221 8222 8221 8222 8223 8226 8226 8229 8228 8227 8228 8229 8227 8230 8231 8227 8228 8229 8228 8206 8186 8179 8185 8183 8183 8183 8183 8185 8185 8184 8183 8181 8186 8186 8180 8185 8184 8182 8186 8192 8189 8190 8186 8186 8184 8188 8186 8190 8210 8221 8219 8221 8221 8223 8223 8222 8216 8219 8217 8215 8215 8216 8215 8218 8215 8215 8217 8215 8216 8215 8213 8211 8210 8211 
8221 8220 8225 8221 8222 8222 8224 8224 8225 8223 8224 8224 8223 8229 8229 8230 8230 8231 8230 8232 8231 8228 8229 8232 8227 8214 8187 8185 8185 8184 8186 8187 8187 8184 8186 8186 8185 8183 8185 8185 8184 8187 8181 8181 8188 8188 8189 8191 8186 8185 8187 8183 8185 8192 8208 8219 8220 8223 8226 8222 8219 8224 8218 8220 8217 8215 8215 8217 8214 8217 8215 8214 8220 8215 8216 8216 8215 8212 8210 8210 
8220 8224 8224 8221 8222 8224 8225 8226 8226 8224 8227 8228 8225 8227 8228 8230 8235 8232 8230 8231 8232 8228 8229 8230 8227 8227 8206 8186 8186 8187 8187 8187 8187 8189 8188 8186 8187 8186 8189 8185 8185 8184 8188 8186 8191 8188 8190 8190 8187 8184 8186 8187 8188 8196 8213 8220 8222 8223 8223 8224 8222 8218 8216 8218 8217 8217 8217 8218 8218 8215 8216 8217 8221 8221 8216 8218 8213 8210 8211 8212 
8222 8221 8227 8220 8227 8227 8229 8230 8230 8230 8230 8228 8230 8227 8228 8232 8236 8233 8232 8233 8232 8226 8227 8233 8231 8232 8212 8185 8185 8180 8186 8185 8187 8188 8187 8187 8186 8184 8186 8188 8185 8188 8187 8185 8192 8185 8187 8190 8190 8180 8186 8189 8190 8211 8219 8223 8223 8223 8225 8219 8218 8222 8222 8218 8219 8217 8218 8220 8217 8219 8219 8217 8222 8221 8219 8217 8217 8211 8212 8210 
8222 8221 8225 8221 8225 8225 8229 8230 8231 8229 8229 8230 8228 8233 8232 8230 8237 8233 8229 8232 8234 8228 8234 8235 8236 8234 8217 8189 8187 8184 8186 8185 8188 8187 8186 8187 8187 8186 8187 8186 8186 8187 8187 8190 8191 8187 8188 8190 8190 8189 8188 8192 8198 8218 8223 8220 8221 8222 8224 8221 8221 8219 8220 8220 8219 8218 8218 8219 8215 8222 8223 8220 8221 8223 8220 8223 8217 8212 8211 8209 
8219 8219 8224 8224 8223 8227 8227 8230 8228 8230 8230 8230 8230 8231 8233 8232 8236 8235 8234 8233 8233 8233 8233 8237 8235 8235 8221 8190 8187 8187 8186 8189 8188 8188 8189 8187 8188 8186 8186 8186 8186 8185 8189 8189 8192 8191 8191 8190 8193 8208 8195 8206 8205 8219 8219 8221 8219 8221 8222 8221 8221 8218 8218 8219 8218 8218 8220 8220 8218 8221 8222 8220 8220 8220 8219 8221 8217 8211 8211 8207 
8217 8221 8221 8223 8224 8228 8226 8226 8227 8228 8232 8230 8231 8230 8233 8233 8233 8235 8233 8232 8234 8234 8232 8235 8234 8237 8223 8195 8188 8189 8187 8189 8190 8190 8189 8191 8192 8189 8191 8194 8188 8188 8190 8187 8195 8193 8190 8193 8199 8212 8209 8224 8210 8222 8221 8222 8225 8221 8221 8220 8219 8222 8218 8218 8220 8217 8221 8219 8220 8222 8220 8218 8216 8221 8223 8219 8215 8212 8211 8211 
8214 8218 8220 8218 8220 8225 8226 8227 8230 8228 8228 8231 8231 8234 8230 8232 8234 8232 8234 8234 8235 8231 8234 8235 8234 8236 8229 8196 8191 8190 8188 8191 8190 8189 8191 8191 8191 8191 8193 8190 8189 8188 8188 8188 8195 8191 8194 8192 8195 8195 8229 8219 8215 8222 8225 8223 8223 8224 8222 8220 8219 8222 8220 8218 8224 8219 8217 8217 8219 8221 8219 8217 8223 8222 8219 8219 8214 8212 8210 8205 
8211 8213 8214 8215 8219 8222 8224 8226 8224 8226 8230 8229 8231 8232 8231 8230 8229 8232 8230 8228 8231 8232 8234 8234 8233 8235 8229 8201 8190 8188 8186 8186 8189 8189 8191 8193 8193 8191 8193 8196 8192 8190 8189 8191 8196 8192 8194 8196 8190 8196 8231 8205 8218 8226 8225 8224 8225 8222 8222 8220 8218 8221 8218 8216 8221 8220 8220 8218 8220 8221 8223 8218 8222 8222 8221 8219 8218 8214 8214 8210 
8207 8205 8212 8212 8213 8214 8221 8219 8220 8224 8228 8228 8227 8228 8229 8228 8231 8230 8230 8230 8230 8229 8234 8231 8229 8230 8226 8197 8190 8186 8187 8184 8188 8189 8193 8193 8192 8195 8194 8194 8190 8192 8191 8191 8197 8191 8193 8193 8195 8196 8202 8203 8222 8228 8226 8222 8224 8223 8224 8221 8222 8223 8218 8221 8222 8218 8219 8219 8219 8223 8222 8220 8219 8220 8218 8219 8218 8211 8211 8210 
8205 8202 8207 8203 8201 8203 8202 8206 8207 8216 8217 8224 8227 8228 8227 8227 8231 8229 8226 8227 8227 8227 8231 8233 8225 8214 8195 8193 8191 8187 8186 8187 8189 8190 8190 8192 8192 8192 8192 8192 8192 8192 8193 8196 8201 8194 8193 8194 8197 8194 8194 8208 8224 8227 8227 8223 8221 8221 8222 8223 8224 8224 8221 8221 8218 8220 8218 8217 8221 8224 8220 8218 8220 8220 8217 8217 8216 8209 8209 8208 
8207 8201 8205 8201 8199 8200 8200 8205 8203 8207 8206 8207 8210 8215 8222 8222 8223 8224 8220 8224 8226 8226 8225 8221 8204 8189 8183 8184 8185 8186 8187 8187 8188 8188 8190 8192 8193 8192 8193 8191 8190 8196 8192 8196 8197 8194 8193 8195 8195 8193 8192 8208 8221 8226 8222 8221 8219 8219 8220 8220 8219 8220 8220 8219 8219 8215 8217 8220 8222 8224 8218 8220 8219 8217 8218 8216 8212 8209 8210 8210 
8204 8206 8205 8200 8199 8198 8199 8198 8201 8202 8203 8206 8208 8211 8212 8207 8210 8210 8206 8210 8215 8210 8212 8208 8187 8186 8180 8182 8183 8185 8184 8184 8188 8188 8188 8192 8194 8188 8191 8190 8190 8194 8192 8194 8195 8191 8194 8195 8196 8190 8194 8199 8207 8219 8224 8216 8216 8218 8220 8217 8218 8220 8219 8220 8218 8216 8218 8221 8222 8219 8221 8220 8218 8220 8215 8218 8211 8209 8212 8211 
8209 8206 8205 8202 8197 8199 8197 8199 8196 8197 8199 8202 8204 8207 8209 8205 8205 8205 8201 8205 8208 8212 8204 8199 8190 8186 8184 8184 8185 8184 8185 8185 8184 8185 8185 8190 8189 8187 8191 8193 8190 8189 8190 8190 8196 8193 8192 8195 8193 8191 8198 8196 8202 8215 8218 8217 8218 8215 8218 8215 8218 8216 8216 8214 8216 8218 8215 8221 8218 8221 8216 8217 8221 8218 8219 8219 8213 8210 8210 8205 
8216 8209 8211 8199 8196 8199 8198 8200 8197 8199 8199 8201 8202 8207 8209 8202 8204 8202 8201 8208 8208 8200 8199 8201 8194 8192 8183 8183 8185 8185 8185 8184 8186 8186 8185 8184 8187 8187 8190 8193 8193 8189 8191 8192 8197 8195 8194 8193 8199 8202 8203 8202 8209 8216 8215 8215 8218 8218 8222 8218 8216 8216 8216 8214 8218 8216 8219 8222 8219 8223 8220 8214 8221 8218 8223 8223 8214 8212 8215 8211 
8224 8212 8206 8202 8198 8195 8196 8199 8196 8197 8200 8203 8203 8204 8206 8206 8204 8198 8203 8210 8209 8202 8206 8202 8203 8202 8191 8190 8186 8189 8188 8187 8187 8186 8186 8186 8188 8188 8188 8193 8191 8190 8190 8194 8202 8197 8197 8200 8206 8214 8217 8224 8216 8210 8215 8215 8217 8219 8225 8217 8215 8216 8209 8214 8218 8219 8219 8223 8223 8224 8223 8221 8225 8228 8228 8228 8217 8219 8213 8209 


