P2
80 60
8357
8250 8253 8248 8244 8246 8251 8251 8250 8251 8253 8258 8257 8256 8258 8259 8260 8257 8257 8256 8262 8259 8258 8258 8264 8265 8264 8265 8259 8264 8263 8264 8259 8262 8260 8261 8260 8262 8263 8262 8258 8256 8257 8260 8259 8254 8254 8249 8242 8243 8240 8235 8237 8238 8234 8228 8223 8224 8219 8218 8215 8217 8217 8217 8221 8221 8220 8222 8217 8220 8220 8220 8219 8220 8222 8222 8221 8220 8218 8233 8248 
8247 8254 8246 8245 8249 8250 8246 8251 8252 8255 8257 8255 8256 8262 8260 8260 8260 8258 8258 8259 8258 8261 8260 8264 8264 8261 8263 8262 8264 8265 8263 8263 8263 8261 8259 8258 8262 8261 8260 8258 8257 8261 8260 8257 8256 8254 8249 8243 8243 8238 8239 8238 8238 8235 8229 8228 8225 8220 8219 8216 8217 8217 8220 8219 8220 8219 8220 8222 8220 8220 8220 8218 8219 8220 8220 8216 8219 8218 8253 8248 
8254 8253 8251 8246 8249 8247 8250 8250 8254 8253 8257 8260 8258 8262 8258 8260 8262 8260 8258 8261 8258 8259 8261 8262 8263 8261 8259 8261 8266 8265 8261 8268 8263 8265 8261 8262 8262 8263 8263 8259 8258 8255 8257 8256 8256 8251 8247 8242 8245 8239 8236 8240 8237 8238 8232 8227 8225 8221 8220 8219 8219 8218 8219 8221 8219 8219 8219 8220 8218 8223 8222 8220 8222 8223 8215 8217 8218 8222 8287 8264 
8254 8252 8247 8247 8249 8252 8248 8247 8249 8252 8255 8255 8254 8259 8257 8256 8259 8258 8256 8258 8256 8256 8259 8262 8265 8263 8261 8259 8264 8261 8262 8263 8266 8263 8260 8261 8261 8262 8258 8260 8254 8257 8256 8254 8253 8252 8246 8240 8241 8237 8236 8235 8236 8233 8228 8225 8226 8219 8222 8217 8220 8217 8219 8219 8219 8215 8219 8218 8223 8225 8228 8227 8223 8224 8224 8222 8225 8229 8301 8300 
8256 8252 8247 8244 8247 8247 8248 8249 8247 8248 8250 8254 8247 8251 8254 8257 8257 8253 8252 8256 8252 8257 8258 8257 8263 8258 8262 8258 8263 8261 8263 8265 8262 8261 8260 8261 8259 8262 8260 8259 8254 8254 8254 8254 8252 8250 8245 8241 8239 8237 8234 8234 8235 8231 8226 8221 8224 8216 8219 8218 8216 8217 8215 8216 8216 8215 8216 8220 8223 8227 8225 8229 8229 8231 8227 8229 8230 8230 8280 8334 
8252 8253 8248 8247 8245 8249 8246 8245 8246 8246 8249 8245 8245 8249 8247 8250 8252 8250 8249 8252 8249 8250 8253 8252 8256 8257 8258 8256 8259 8258 8257 8262 8262 8261 8260 8258 8257 8261 8262 8259 8256 8253 8254 8252 8252 8249 8245 8238 8240 8236 8233 8229 8230 8230 8225 8220 8222 8219 8219 8216 8217 8217 8216 8214 8218 8213 8216 8219 8223 8228 8228 8230 8229 8233 8230 8227 8230 8229 8247 8357 
8253 8256 8249 8245 8248 8247 8245 8244 8242 8243 8245 8245 8245 8248 8245 8249 8250 8248 8246 8247 8245 8245 8249 8254 8254 8255 8255 8255 8256 8255 8257 8259 8261 8258 8257 8259 8256 8260 8260 8255 8254 8254 8254 8251 8250 8249 8244 8239 8238 8233 8233 8230 8229 8230 8222 8220 8218 8216 8219 8216 8214 8214 8216 8215 8215 8216 8217 8217 8222 8222 8227 8228 8228 8228 8229 8227 8226 8224 8228 8315 
8253 8254 8243 8246 8245 8244 8245 8243 8244 8241 8241 8240 8241 8244 8245 8246 8245 8244 8246 8248 8242 8244 8248 8253 8252 8250 8251 8250 8254 8251 8254 8256 8258 8256 8253 8256 8255 8258 8254 8253 8251 8248 8252 8250 8247 8245 8241 8236 8237 8229 8230 8229 8226 8222 8223 8220 8220 8216 8215 8216 8214 8213 8214 8214 8213 8211 8217 8214 8216 8220 8223 8222 8225 8229 8226 8227 8225 8220 8215 8240 
8256 8253 8243 8242 8242 8243 8244 8247 8241 8240 8240 8240 8239 8243 8246 8243 8246 8240 8242 8243 8241 8242 8245 8246 8249 8249 8250 8245 8250 8252 8250 8254 8256 8253 8254 8251 8250 8254 8256 8251 8251 8253 8250 8251 8247 8244 8243 8237 8237 8231 8226 8224 8225 8224 8218 8219 8220 8216 8215 8212 8214 8211 8209 8212 8212 8211 8212 8212 8210 8215 8218 8220 8220 8226 8223 8223 8224 8219 8212 8217 
8250 8250 8237 8241 8241 8243 8243 8243 8241 8236 8240 8238 8237 8239 8240 8238 8241 8236 8237 8242 8236 8243 8242 8244 8247 8244 8247 8244 8246 8246 8247 8250 8251 8249 8245 8247 8246 8251 8249 8248 8247 8248 8250 8250 8245 8245 8237 8235 8231 8229 8223 8222 8226 8224 8218 8218 8216 8211 8214 8211 8209 8210 8209 8210 8209 8209 8209 8210 8209 8209 8209 8210 8212 8217 8219 8219 8218 8211 8206 8206 
8248 8245 8238 8238 8238 8239 8240 8238 8238 8236 8240 8237 8235 8241 8237 8240 8239 8237 8239 8240 8240 8241 8242 8243 8246 8243 8246 8244 8248 8248 8244 8248 8247 8247 8243 8245 8244 8247 8246 8246 8245 8246 8247 8248 8243 8241 8236 8231 8229 8227 8220 8222 8224 8223 8219 8216 8214 8211 8209 8207 8209 8208 8208 8206 8208 8206 8207 8203 8205 8206 8204 8204 8204 8211 8206 8209 8207 8205 8201 8198 
8246 8244 8238 8235 8237 8237 8237 8236 8238 8238 8240 8235 8237 8239 8238 8239 8239 8234 8236 8239 8238 8236 8242 8241 8244 8242 8243 8242 8244 8244 8246 8248 8249 8245 8239 8242 8241 8243 8244 8242 8243 8245 8245 8243 8240 8238 8232 8229 8226 8221 8220 8222 8222 8222 8218 8213 8219 8210 8210 8207 8207 8208 8204 8206 8205 8203 8204 8203 8205 8202 8199 8204 8202 8201 8201 8201 8202 8198 8193 8193 
8243 8243 8238 8237 8238 8238 8236 8238 8235 8236 8238 8238 8239 8235 8237 8239 8240 8234 8232 8238 8236 8238 8238 8239 8242 8242 8244 8238 8243 8244 8243 8246 8244 8247 8240 8243 8243 8240 8241 8240 8239 8240 8243 8241 8239 8237 8232 8227 8227 8224 8221 8220 8221 8220 8215 8216 8212 8209 8210 8209 8205 8205 8202 8202 8204 8201 8201 8199 8198 8203 8199 8198 8196 8197 8198 8195 8197 8195 8186 8191 
8242 8244 8235 8235 8236 8240 8237 8235 8236 8235 8237 8239 8237 8237 8236 8237 8237 8233 8234 8234 8232 8233 8237 8237 8239 8238 8239 8237 8239 8239 8240 8242 8242 8242 8239 8239 8240 8242 8237 8240 8237 8238 8238 8240 8239 8236 8231 8225 8224 8223 8221 8220 8220 8221 8215 8213 8211 8208 8206 8205 8202 8200 8199 8199 8203 8199 8197 8195 8198 8194 8194 8195 8195 8192 8190 8191 8192 8186 8183 8185 
8244 8244 8237 8236 8236 8238 8237 8236 8236 8236 8238 8237 8236 8238 8236 8237 8235 8235 8231 8234 8230 8231 8236 8238 8238 8237 8238 8234 8239 8237 8238 8241 8242 8239 8237 8240 8238 8238 8238 8235 8236 8237 8237 8236 8235 8232 8228 8224 8224 8221 8218 8218 8219 8216 8213 8212 8211 8206 8207 8200 8200 8199 8200 8200 8201 8197 8195 8195 8193 8193 8195 8192 8195 8190 8189 8184 8187 8184 8181 8187 
8247 8239 8238 8232 8236 8237 8238 8237 8236 8234 8237 8237 8235 8239 8237 8237 8235 8234 8233 8234 8230 8233 8234 8237 8235 8235 8234 8233 8237 8235 8236 8240 8239 8238 8238 8237 8235 8237 8236 8234 8231 8234 8232 8236 8231 8228 8228 8223 8221 8222 8219 8218 8215 8216 8214 8211 8208 8205 8202 8201 8201 8200 8200 8201 8198 8198 8196 8194 8192 8193 8190 8191 8191 8188 8185 8183 8183 8184 8179 8182 
8245 8240 8237 8238 8235 8240 8239 8239 8237 8234 8237 8233 8235 8234 8237 8234 8232 8230 8230 8235 8231 8231 8232 8232 8234 8230 8231 8231 8232 8233 8234 8237 8237 8235 8233 8236 8235 8235 8231 8232 8227 8229 8232 8230 8231 8227 8224 8219 8221 8219 8214 8213 8217 8214 8212 8209 8208 8203 8203 8199 8196 8198 8199 8197 8199 8197 8193 8191 8195 8193 8186 8187 8188 8186 8186 8182 8184 8182 8176 8183 
8241 8242 8235 8235 8236 8237 8235 8238 8236 8236 8238 8234 8235 8233 8233 8232 8231 8231 8229 8232 8228 8228 8230 8232 8235 8231 8231 8229 8232 8229 8231 8235 8233 8235 8231 8231 8232 8232 8228 8229 8228 8226 8229 8227 8228 8229 8224 8219 8222 8215 8213 8211 8213 8214 8212 8207 8208 8202 8202 8199 8198 8199 8199 8198 8197 8198 8195 8193 8193 8188 8190 8187 8186 8187 8185 8180 8181 8180 8174 8175 
8240 8239 8231 8232 8234 8238 8238 8236 8235 8234 8235 8233 8232 8232 8228 8230 8229 8228 8226 8228 8226 8225 8227 8226 8230 8229 8226 8226 8230 8228 8228 8231 8233 8230 8229 8229 8228 8226 8228 8227 8224 8228 8229 8229 8227 8226 8220 8214 8215 8213 8209 8211 8211 8211 8208 8206 8204 8205 8201 8197 8196 8198 8199 8199 8194 8195 8195 8194 8192 8188 8188 8186 8184 8183 8180 8180 8177 8179 8176 8177 
8237 8235 8231 8233 8233 8234 8234 8237 8233 8232 8233 8232 8232 8235 8231 8229 8229 8228 8227 8228 8226 8227 8226 8225 8231 8226 8232 8225 8232 8227 8229 8230 8230 8231 8226 8226 8226 8227 8223 8222 8222 8224 8223 8223 8223 8226 8220 8213 8215 8211 8207 8208 8211 8209 8206 8206 8205 8201 8200 8196 8197 8198 8199 8198 8199 8194 8195 8194 8189 8194 8188 8186 8184 8186 8184 8178 8178 8175 8172 8175 
8236 8236 8229 8231 8232 8233 8233 8235 8236 8232 8233 8233 8230 8230 8229 8227 8229 8225 8224 8227 8225 8223 8223 8226 8224 8224 8227 8223 8227 8224 8228 8226 8227 8227 8222 8224 8221 8224 8222 8216 8211 8212 8217 8217 8218 8220 8219 8211 8212 8211 8210 8210 8209 8208 8209 8204 8203 8200 8200 8195 8196 8195 8200 8199 8197 8195 8196 8195 8194 8191 8189 8186 8185 8183 8181 8181 8179 8177 8173 8173 
8236 8237 8232 8231 8231 8231 8231 8233 8234 8229 8234 8232 8227 8228 8230 8232 8228 8225 8223 8224 8228 8224 8223 8222 8226 8222 8224 8220 8223 8226 8224 8224 8223 8222 8212 8202 8205 8217 8202 8146 8136 8138 8154 8158 8187 8216 8214 8210 8211 8208 8209 8208 8208 8207 8207 8205 8202 8201 8200 8197 8197 8199 8195 8197 8197 8196 8197 8194 8193 8192 8189 8187 8185 8185 8181 8179 8181 8178 8170 8174 
8235 8236 8229 8228 8232 8233 8229 8231 8232 8232 8230 8230 8228 8230 8228 8229 8229 8221 8225 8223 8223 8222 8223 8221 8223 8221 8220 8219 8221 8218 8196 8184 8165 8180 8164 8144 8126 8145 8186 8123 8128 8133 8130 8129 8142 8180 8206 8210 8209 8206 8205 8206 8208 8205 8205 8200 8203 8202 8200 8196 8197 8198 8201 8200 8200 8199 8197 8193 8194 8194 8190 8190 8188 8185 8184 8182 8180 8177 8170 8175 
8237 8236 8231 8230 8230 8234 8233 8230 8231 8228 8232 8231 8227 8228 8227 8229 8225 8222 8221 8225 8220 8219 8219 8222 8221 8210 8174 8164 8179 8165 8130 8148 8195 8211 8207 8204 8180 8140 8166 8125 8175 8202 8198 8200 8207 8208 8206 8207 8208 8206 8205 8204 8207 8206 8203 8203 8202 8198 8201 8195 8194 8195 8201 8200 8198 8196 8196 8195 8193 8192 8188 8187 8185 8186 8183 8184 8183 8180 8175 8181 
8236 8240 8232 8230 8232 8234 8230 8233 8231 8229 8233 8231 8229 8229 8225 8226 8226 8222 8219 8223 8219 8217 8222 8220 8218 8199 8128 8112 8113 8116 8121 8126 8193 8186 8169 8174 8177 8167 8146 8118 8154 8190 8199 8207 8211 8212 8209 8208 8207 8204 8205 8205 8206 8205 8204 8201 8202 8199 8198 8196 8195 8196 8196 8200 8199 8197 8197 8195 8193 8192 8191 8188 8189 8186 8186 8181 8183 8178 8175 8174 
8235 8234 8235 8230 8232 8233 8232 8234 8233 8228 8230 8232 8225 8225 8225 8223 8223 8217 8220 8220 8216 8219 8223 8220 8222 8215 8169 8110 8108 8105 8104 8118 8150 8121 8120 8130 8153 8138 8120 8118 8120 8123 8128 8151 8183 8198 8202 8192 8191 8202 8200 8202 8207 8206 8203 8203 8201 8197 8199 8196 8197 8198 8198 8199 8200 8199 8197 8194 8196 8194 8190 8187 8190 8188 8186 8183 8184 8181 8179 8183 
8236 8236 8230 8230 8230 8235 8235 8233 8231 8228 8229 8229 8223 8226 8225 8222 8220 8219 8216 8220 8218 8220 8218 8216 8215 8215 8202 8128 8114 8108 8102 8126 8129 8135 8158 8128 8119 8127 8137 8150 8157 8130 8126 8131 8144 8181 8186 8161 8146 8148 8152 8174 8198 8204 8205 8200 8203 8197 8195 8194 8193 8197 8197 8199 8198 8196 8196 8198 8193 8190 8190 8193 8189 8187 8183 8183 8184 8182 8174 8181 
8236 8236 8229 8230 8234 8234 8233 8232 8232 8231 8231 8229 8225 8228 8228 8222 8223 8221 8220 8223 8219 8216 8210 8172 8169 8200 8190 8184 8144 8120 8118 8117 8145 8173 8133 8112 8118 8133 8143 8158 8130 8116 8118 8127 8146 8195 8206 8205 8189 8150 8135 8138 8155 8198 8201 8203 8201 8198 8200 8194 8195 8196 8196 8200 8199 8200 8196 8195 8195 8194 8190 8191 8191 8188 8188 8186 8186 8182 8176 8182 
8239 8237 8230 8233 8232 8234 8233 8232 8233 8230 8231 8232 8226 8226 8225 8222 8223 8217 8218 8220 8217 8215 8203 8147 8115 8121 8133 8192 8165 8125 8125 8125 8126 8145 8140 8122 8135 8133 8120 8128 8136 8133 8128 8136 8149 8196 8203 8203 8206 8196 8159 8143 8146 8159 8197 8200 8200 8195 8197 8196 8195 8195 8195 8195 8195 8197 8195 8196 8193 8193 8192 8192 8189 8189 8187 8187 8185 8183 8178 8181 
8239 8236 8232 8231 8230 8230 8231 8229 8231 8228 8231 8228 8225 8226 8224 8221 8220 8216 8215 8216 8212 8213 8214 8194 8153 8117 8110 8172 8138 8127 8130 8127 8119 8143 8160 8160 8156 8142 8126 8124 8148 8170 8149 8144 8144 8181 8201 8202 8205 8207 8202 8169 8157 8149 8170 8194 8197 8195 8197 8194 8195 8192 8194 8198 8195 8195 8196 8192 8191 8190 8192 8191 8189 8188 8186 8184 8185 8183 8174 8180 
8235 8237 8232 8233 8232 8233 8230 8231 8229 8227 8230 8226 8223 8222 8220 8218 8219 8215 8212 8212 8210 8207 8208 8204 8174 8129 8130 8114 8116 8123 8127 8130 8126 8122 8131 8136 8131 8136 8131 8131 8134 8136 8137 8138 8142 8162 8173 8176 8202 8203 8207 8203 8176 8162 8158 8172 8195 8195 8196 8196 8195 8195 8195 8195 8193 8192 8190 8192 8193 8191 8189 8189 8186 8185 8184 8185 8184 8182 8176 8178 
8240 8239 8230 8232 8231 8233 8228 8228 8229 8227 8228 8226 8225 8222 8218 8216 8214 8211 8212 8206 8195 8180 8176 8160 8124 8120 8129 8127 8116 8111 8117 8125 8113 8109 8106 8103 8116 8118 8131 8139 8139 8131 8125 8121 8125 8125 8126 8137 8195 8205 8205 8204 8203 8178 8166 8166 8185 8195 8198 8194 8194 8194 8195 8194 8194 8188 8190 8188 8189 8191 8188 8186 8187 8185 8185 8182 8186 8182 8176 8180 
8238 8240 8234 8235 8234 8231 8231 8230 8228 8226 8227 8224 8223 8221 8216 8211 8204 8198 8188 8174 8174 8168 8169 8136 8135 8170 8178 8138 8111 8112 8104 8132 8113 8105 8105 8120 8128 8115 8120 8128 8143 8140 8126 8125 8124 8130 8168 8190 8201 8205 8204 8203 8205 8201 8179 8167 8168 8192 8197 8195 8193 8196 8192 8195 8190 8188 8186 8188 8189 8188 8186 8188 8183 8185 8183 8183 8183 8181 8179 8177 
8239 8240 8232 8231 8233 8232 8232 8232 8229 8225 8225 8225 8220 8222 8207 8158 8136 8131 8162 8154 8128 8124 8132 8166 8176 8146 8131 8115 8113 8115 8111 8109 8110 8098 8101 8106 8114 8122 8123 8121 8138 8187 8181 8147 8132 8140 8194 8199 8204 8200 8200 8200 8206 8205 8196 8171 8168 8189 8195 8198 8192 8196 8195 8192 8191 8190 8190 8186 8190 8188 8185 8183 8182 8185 8183 8181 8185 8180 8178 8180 
8241 8243 8236 8234 8233 8234 8232 8229 8230 8226 8227 8227 8220 8215 8158 8128 8125 8153 8150 8129 8129 8131 8170 8157 8138 8113 8105 8102 8116 8112 8107 8115 8106 8100 8101 8116 8124 8130 8125 8124 8123 8179 8199 8194 8164 8137 8149 8181 8176 8157 8145 8160 8194 8201 8203 8198 8184 8178 8197 8196 8197 8196 8194 8197 8189 8188 8191 8186 8188 8188 8186 8182 8185 8184 8183 8180 8181 8181 8177 8179 
8243 8242 8235 8232 8232 8234 8232 8233 8228 8227 8226 8224 8220 8183 8134 8131 8141 8173 8142 8145 8169 8165 8135 8126 8122 8109 8129 8163 8155 8121 8119 8114 8119 8113 8110 8123 8133 8136 8134 8136 8129 8171 8182 8177 8185 8190 8176 8162 8184 8160 8137 8130 8145 8177 8202 8198 8196 8178 8189 8195 8196 8198 8194 8196 8189 8189 8191 8186 8187 8186 8183 8183 8182 8184 8183 8181 8180 8181 8176 8176 
8245 8240 8233 8233 8232 8234 8233 8233 8230 8225 8224 8225 8214 8156 8130 8131 8162 8173 8171 8191 8174 8132 8134 8134 8122 8126 8162 8163 8161 8139 8119 8120 8116 8117 8116 8123 8125 8127 8130 8129 8118 8123 8150 8185 8199 8202 8200 8185 8198 8200 8187 8145 8129 8138 8182 8198 8198 8190 8190 8195 8196 8195 8196 8199 8192 8190 8190 8188 8187 8187 8186 8184 8183 8182 8182 8179 8180 8180 8174 8181 
8244 8240 8236 8237 8234 8234 8231 8230 8229 8226 8227 8224 8208 8145 8134 8156 8204 8205 8206 8204 8157 8134 8138 8176 8164 8135 8132 8136 8122 8121 8126 8128 8125 8119 8120 8126 8127 8132 8131 8126 8128 8139 8118 8126 8185 8203 8202 8201 8202 8201 8201 8184 8135 8136 8156 8195 8201 8198 8196 8197 8196 8195 8196 8197 8194 8191 8192 8186 8186 8189 8184 8184 8185 8185 8182 8180 8178 8181 8179 8180 
8238 8243 8236 8236 8235 8236 8234 8231 8228 8224 8226 8223 8192 8137 8140 8192 8214 8212 8209 8193 8137 8130 8150 8199 8180 8127 8127 8125 8124 8127 8128 8128 8124 8120 8123 8122 8128 8137 8136 8129 8142 8183 8130 8119 8149 8199 8204 8203 8204 8204 8202 8199 8165 8144 8146 8189 8201 8200 8199 8197 8197 8196 8195 8199 8196 8194 8194 8189 8189 8191 8185 8184 8184 8186 8184 8180 8182 8181 8178 8180 
8240 8242 8235 8235 8236 8238 8232 8230 8228 8227 8224 8222 8184 8143 8162 8212 8217 8215 8209 8177 8125 8131 8176 8204 8172 8128 8127 8125 8125 8126 8127 8127 8122 8125 8124 8119 8120 8118 8122 8122 8129 8188 8161 8124 8131 8195 8200 8200 8201 8200 8204 8203 8199 8170 8162 8163 8189 8201 8202 8197 8196 8197 8194 8197 8197 8195 8196 8192 8192 8188 8190 8191 8187 8185 8184 8181 8183 8183 8179 8179 
8241 8242 8236 8235 8235 8233 8229 8231 8225 8226 8227 8222 8177 8145 8192 8217 8219 8214 8213 8200 8167 8172 8207 8205 8183 8135 8128 8124 8141 8176 8135 8121 8124 8126 8124 8123 8134 8112 8111 8120 8158 8185 8191 8151 8133 8194 8201 8200 8202 8201 8201 8205 8203 8202 8202 8185 8191 8200 8201 8199 8196 8197 8196 8198 8198 8197 8196 8193 8192 8195 8193 8193 8191 8189 8186 8184 8184 8184 8179 8179 
8243 8241 8236 8235 8233 8234 8231 8230 8225 8230 8224 8222 8168 8157 8213 8219 8222 8216 8216 8214 8210 8208 8212 8214 8203 8151 8131 8135 8177 8194 8166 8118 8125 8128 8118 8124 8121 8112 8115 8115 8135 8175 8173 8186 8172 8198 8200 8198 8202 8198 8201 8202 8204 8203 8202 8204 8202 8201 8201 8201 8198 8197 8200 8199 8198 8199 8196 8194 8195 8197 8195 8195 8197 8191 8190 8186 8185 8184 8179 8180 
8239 8239 8236 8235 8237 8236 8232 8232 8226 8227 8226 8216 8149 8188 8218 8221 8219 8215 8216 8216 8212 8212 8212 8211 8209 8188 8147 8182 8184 8179 8133 8103 8117 8114 8112 8109 8113 8113 8113 8116 8105 8115 8112 8136 8189 8203 8199 8198 8200 8199 8200 8199 8201 8203 8204 8200 8204 8204 8198 8200 8201 8200 8197 8199 8198 8195 8197 8196 8195 8198 8197 8195 8196 8195 8193 8188 8189 8184 8180 8185 
8243 8239 8235 8237 8235 8238 8235 8232 8229 8225 8228 8228 8174 8211 8223 8221 8224 8219 8217 8218 8214 8213 8214 8216 8215 8206 8195 8196 8167 8118 8104 8101 8115 8109 8114 8128 8120 8120 8124 8116 8115 8110 8111 8116 8159 8198 8199 8197 8199 8201 8200 8199 8200 8204 8203 8202 8208 8201 8198 8203 8200 8200 8201 8203 8199 8200 8196 8196 8199 8200 8199 8195 8201 8198 8200 8193 8194 8190 8186 8191 
8237 8239 8234 8235 8238 8239 8234 8234 8233 8229 8231 8227 8200 8215 8222 8223 8223 8219 8218 8220 8217 8216 8216 8217 8214 8210 8209 8189 8167 8134 8115 8107 8101 8106 8113 8140 8126 8124 8139 8147 8149 8129 8114 8117 8129 8169 8194 8195 8199 8197 8195 8196 8198 8201 8199 8200 8204 8201 8202 8197 8200 8202 8204 8202 8198 8199 8199 8196 8199 8200 8196 8200 8198 8201 8197 8192 8194 8191 8187 8190 
8239 8241 8235 8237 8237 8237 8234 8233 8233 8233 8230 8231 8222 8222 8230 8226 8226 8216 8222 8222 8218 8215 8217 8218 8215 8212 8210 8203 8190 8143 8126 8118 8109 8110 8117 8126 8126 8124 8137 8164 8163 8140 8122 8128 8126 8130 8173 8188 8193 8190 8187 8193 8195 8199 8199 8201 8203 8201 8199 8199 8201 8201 8202 8199 8198 8200 8198 8198 8197 8199 8197 8201 8203 8202 8199 8194 8194 8191 8190 8194 
8243 8241 8236 8240 8237 8242 8236 8236 8236 8235 8234 8229 8231 8231 8228 8226 8229 8221 8222 8223 8216 8215 8219 8215 8217 8214 8210 8198 8147 8118 8116 8139 8141 8142 8121 8120 8122 8121 8131 8146 8154 8137 8125 8127 8131 8131 8150 8169 8170 8167 8166 8169 8179 8194 8198 8200 8201 8198 8199 8199 8198 8199 8200 8202 8198 8201 8200 8198 8198 8201 8202 8203 8202 8203 8202 8196 8198 8198 8193 8199 
8244 8240 8236 8236 8238 8237 8239 8238 8240 8235 8232 8232 8231 8233 8230 8228 8227 8223 8223 8223 8216 8215 8215 8217 8215 8208 8201 8171 8124 8123 8115 8122 8137 8136 8126 8123 8127 8126 8127 8150 8159 8153 8137 8131 8134 8135 8145 8171 8169 8167 8167 8170 8181 8199 8199 8199 8201 8198 8200 8197 8200 8198 8201 8202 8202 8200 8199 8198 8199 8200 8203 8202 8207 8202 8202 8200 8202 8201 8196 8199 
8244 8245 8237 8236 8240 8238 8237 8242 8236 8232 8235 8233 8233 8234 8232 8227 8228 8224 8223 8221 8217 8216 8210 8197 8177 8157 8148 8129 8126 8128 8120 8116 8135 8142 8126 8121 8142 8139 8128 8143 8158 8158 8161 8147 8135 8129 8141 8173 8174 8172 8174 8178 8186 8195 8196 8196 8199 8197 8198 8196 8199 8198 8199 8199 8197 8198 8201 8199 8199 8201 8203 8202 8202 8202 8202 8202 8203 8201 8199 8199 
8245 8242 8237 8236 8239 8242 8239 8244 8238 8235 8237 8234 8235 8234 8234 8231 8229 8225 8224 8228 8220 8208 8162 8146 8145 8142 8138 8126 8136 8133 8121 8121 8137 8140 8127 8120 8131 8138 8135 8129 8128 8139 8152 8158 8149 8148 8153 8170 8177 8173 8171 8177 8187 8193 8196 8194 8197 8199 8197 8199 8196 8199 8200 8201 8198 8197 8202 8199 8202 8204 8203 8204 8205 8204 8206 8201 8203 8203 8204 8207 
8242 8243 8240 8236 8244 8239 8238 8239 8238 8235 8239 8236 8237 8236 8235 8233 8232 8227 8225 8227 8219 8210 8166 8152 8147 8142 8143 8138 8146 8138 8122 8127 8127 8124 8129 8127 8128 8138 8148 8152 8155 8159 8166 8166 8164 8167 8171 8171 8173 8170 8171 8175 8188 8193 8196 8198 8202 8195 8199 8197 8197 8198 8199 8200 8200 8195 8199 8200 8202 8201 8203 8204 8206 8203 8204 8199 8204 8206 8205 8208 
8244 8244 8237 8238 8238 8239 8236 8237 8240 8239 8240 8240 8237 8238 8236 8235 8233 8230 8226 8229 8223 8219 8184 8155 8152 8149 8154 8150 8158 8153 8150 8150 8150 8154 8150 8151 8156 8164 8165 8161 8160 8163 8165 8165 8165 8167 8170 8168 8170 8170 8173 8179 8190 8198 8197 8195 8196 8194 8197 8196 8197 8197 8199 8198 8198 8197 8199 8199 8201 8200 8200 8202 8201 8202 8201 8201 8204 8207 8208 8201 
8240 8244 8238 8239 8239 8241 8239 8239 8242 8239 8240 8237 8237 8239 8234 8234 8235 8229 8228 8229 8227 8220 8201 8160 8152 8146 8148 8147 8159 8160 8157 8158 8160 8160 8157 8157 8162 8165 8168 8162 8161 8164 8163 8167 8164 8168 8167 8166 8171 8174 8181 8194 8195 8197 8196 8196 8196 8193 8197 8197 8196 8197 8198 8198 8198 8198 8197 8197 8198 8203 8201 8201 8202 8200 8203 8201 8201 8207 8207 8212 
8246 8246 8238 8241 8242 8242 8240 8245 8240 8237 8240 8240 8241 8242 8237 8236 8234 8234 8231 8233 8227 8225 8211 8167 8152 8147 8151 8150 8163 8166 8159 8159 8162 8160 8162 8160 8158 8165 8170 8165 8160 8161 8161 8164 8165 8168 8170 8170 8181 8188 8207 8203 8198 8196 8196 8196 8192 8193 8198 8195 8196 8196 8196 8197 8195 8197 8197 8196 8198 8202 8200 8202 8200 8199 8198 8202 8207 8210 8206 8206 
8245 8246 8238 8239 8241 8243 8242 8243 8242 8237 8239 8242 8238 8237 8235 8237 8235 8232 8232 8233 8229 8229 8225 8206 8170 8153 8152 8154 8168 8169 8169 8167 8166 8165 8162 8160 8160 8165 8166 8165 8163 8164 8168 8167 8172 8176 8178 8181 8194 8205 8213 8205 8196 8198 8194 8195 8194 8191 8196 8196 8198 8196 8195 8196 8197 8197 8198 8196 8201 8202 8201 8201 8200 8200 8202 8204 8209 8212 8205 8210 
8251 8252 8241 8238 8240 8241 8243 8242 8241 8237 8242 8238 8238 8235 8233 8235 8234 8230 8232 8234 8227 8227 8230 8225 8192 8159 8156 8158 8166 8167 8173 8173 8169 8171 8167 8169 8170 8174 8174 8172 8169 8173 8177 8178 8181 8184 8188 8189 8193 8203 8210 8199 8198 8197 8197 8194 8194 8194 8195 8195 8195 8195 8196 8198 8199 8198 8197 8197 8199 8198 8197 8202 8201 8198 8202 8201 8208 8211 8202 8209 
8251 8253 8242 8241 8241 8240 8241 8241 8240 8236 8240 8237 8237 8237 8235 8236 8237 8234 8231 8233 8227 8228 8230 8232 8212 8170 8173 8168 8170 8168 8175 8181 8174 8177 8172 8173 8173 8175 8176 8179 8178 8179 8180 8182 8187 8189 8189 8193 8197 8202 8207 8201 8195 8198 8195 8194 8195 8193 8197 8196 8197 8197 8195 8198 8198 8196 8196 8198 8198 8197 8200 8204 8203 8199 8202 8204 8207 8208 8203 8209 
8255 8255 8244 8242 8242 8243 8243 8241 8241 8239 8240 8238 8237 8240 8240 8236 8233 8232 8233 8233 8230 8229 8230 8229 8218 8178 8173 8169 8171 8170 8174 8180 8183 8177 8175 8173 8175 8183 8181 8180 8179 8182 8185 8186 8189 8189 8190 8196 8197 8200 8206 8203 8202 8201 8198 8194 8197 8193 8191 8195 8195 8194 8194 8197 8198 8198 8197 8198 8197 8200 8199 8198 8202 8199 8201 8202 8206 8207 8200 8206 
8259 8253 8246 8240 8240 8242 8241 8243 8240 8237 8241 8239 8239 8237 8238 8233 8234 8231 8233 8232 8227 8228 8228 8224 8223 8186 8176 8169 8168 8174 8173 8182 8185 8182 8179 8176 8176 8180 8182 8184 8183 8182 8186 8190 8192 8195 8196 8195 8200 8201 8202 8202 8200 8198 8197 8193 8192 8192 8194 8190 8191 8197 8195 8199 8199 8199 8200 8197 8197 8198 8196 8198 8202 8197 8204 8206 8206 8208 8204 8205 
8267 8251 8244 8242 8242 8242 8244 8240 8242 8239 8244 8242 8237 8236 8236 8237 8234 8231 8229 8232 8229 8227 8223 8226 8227 8190 8174 8166 8172 8172 8173 8180 8182 8185 8185 8182 8184 8185 8187 8190 8187 8188 8191 8193 8196 8197 8199 8200 8204 8205 8202 8199 8194 8194 8197 8192 8194 8194 8194 8193 8193 8196 8195 8201 8202 8195 8196 8196 8197 8201 8201 8200 8198 8203 8203 8200 8209 8205 8207 8208 


