P2
80 60
8316
8277 8279 8278 8281 8278 8277 8277 8276 8273 8276 8275 8276 8273 8271 8268 8277 8275 8278 8278 8284 8285 8276 8275 8272 8274 8274 8276 8277 8272 8274 8276 8276 8276 8279 8278 8273 8280 8276 8281 8277 8273 8275 8276 8277 8276 8276 8275 8271 8266 8260 8257 8259 8253 8253 8254 8257 8254 8256 8259 8254 8255 8254 8252 8248 8248 8247 8251 8251 8250 8248 8254 8254 8255 8252 8253 8252 8254 8251 8245 8244 
8281 8279 8276 8281 8276 8275 8277 8275 8275 8272 8274 8277 8269 8269 8270 8274 8276 8279 8275 8282 8279 8275 8273 8273 8274 8277 8276 8276 8272 8273 8278 8275 8274 8280 8278 8277 8278 8276 8279 8279 8273 8277 8276 8278 8276 8279 8275 8266 8267 8264 8257 8256 8255 8252 8251 8257 8256 8254 8254 8253 8254 8249 8250 8247 8247 8246 8248 8250 8247 8249 8249 8250 8253 8254 8251 8253 8250 8248 8246 8245 
8276 8280 8279 8279 8279 8278 8277 8276 8273 8274 8275 8274 8271 8271 8273 8271 8272 8278 8276 8281 8281 8276 8275 8272 8274 8273 8275 8279 8273 8273 8279 8275 8278 8283 8277 8278 8274 8278 8281 8277 8273 8275 8277 8278 8279 8274 8273 8269 8268 8263 8259 8260 8254 8254 8253 8259 8256 8256 8259 8252 8253 8252 8249 8246 8247 8247 8248 8244 8250 8247 8250 8251 8254 8254 8252 8251 8254 8248 8247 8250 
8279 8281 8279 8277 8279 8276 8276 8277 8274 8272 8277 8275 8270 8268 8271 8270 8274 8275 8276 8280 8281 8273 8273 8271 8273 8274 8278 8279 8272 8273 8275 8276 8278 8280 8277 8278 8275 8277 8280 8276 8273 8274 8276 8279 8274 8276 8275 8270 8267 8263 8261 8258 8254 8253 8252 8261 8254 8255 8256 8253 8251 8251 8249 8247 8244 8249 8248 8248 8250 8246 8249 8250 8253 8250 8253 8257 8253 8250 8246 8246 
8281 8279 8280 8278 8274 8279 8273 8276 8274 8274 8273 8271 8271 8268 8269 8269 8272 8273 8275 8279 8277 8274 8272 8271 8272 8272 8276 8277 8272 8274 8272 8272 8276 8277 8276 8277 8277 8279 8280 8278 8269 8273 8273 8277 8276 8272 8273 8269 8265 8263 8258 8257 8251 8252 8256 8257 8255 8256 8254 8252 8253 8251 8250 8248 8245 8247 8243 8245 8244 8245 8245 8244 8249 8245 8251 8249 8252 8247 8244 8248 
8277 8280 8277 8278 8276 8277 8276 8274 8274 8275 8271 8271 8272 8267 8268 8270 8271 8274 8276 8277 8275 8271 8270 8271 8271 8269 8271 8275 8271 8272 8272 8272 8273 8276 8277 8272 8274 8277 8280 8274 8270 8271 8276 8276 8275 8272 8269 8268 8263 8259 8256 8257 8252 8252 8255 8255 8254 8254 8256 8254 8254 8250 8249 8244 8244 8245 8243 8244 8245 8245 8243 8243 8244 8246 8244 8246 8250 8245 8248 8245 
8276 8282 8275 8278 8276 8274 8278 8276 8275 8275 8274 8275 8267 8268 8268 8270 8270 8274 8276 8278 8276 8269 8273 8269 8270 8268 8272 8271 8267 8272 8271 8271 8273 8276 8272 8270 8273 8276 8278 8274 8270 8272 8274 8278 8275 8273 8268 8265 8266 8256 8256 8255 8251 8253 8251 8260 8256 8256 8255 8253 8252 8251 8246 8245 8246 8245 8245 8243 8246 8245 8240 8244 8242 8241 8246 8245 8244 8243 8245 8243 
8276 8279 8274 8277 8277 8274 8275 8276 8274 8273 8273 8275 8267 8268 8268 8269 8274 8274 8273 8278 8276 8270 8273 8268 8268 8267 8270 8272 8266 8268 8269 8269 8269 8273 8271 8272 8271 8276 8277 8277 8272 8271 8275 8274 8275 8273 8272 8268 8262 8262 8255 8256 8250 8251 8254 8258 8257 8255 8254 8253 8251 8249 8249 8245 8246 8244 8244 8243 8241 8239 8243 8241 8242 8240 8239 8241 8241 8238 8239 8238 
8276 8274 8271 8276 8274 8272 8270 8271 8273 8273 8273 8270 8267 8266 8269 8266 8271 8272 8271 8276 8273 8266 8269 8266 8268 8265 8271 8269 8264 8268 8270 8270 8269 8273 8268 8265 8271 8270 8274 8269 8268 8268 8270 8274 8272 8271 8272 8263 8261 8259 8253 8254 8250 8250 8250 8256 8257 8255 8254 8253 8252 8247 8247 8242 8240 8243 8243 8242 8241 8240 8239 8238 8237 8236 8236 8238 8237 8236 8233 8235 
8276 8276 8273 8275 8274 8274 8275 8274 8272 8273 8271 8272 8269 8267 8268 8267 8269 8270 8274 8274 8274 8265 8265 8264 8265 8264 8270 8272 8266 8267 8267 8270 8269 8267 8267 8265 8269 8270 8275 8272 8266 8269 8273 8274 8272 8268 8265 8266 8258 8256 8253 8253 8247 8250 8253 8255 8252 8252 8252 8248 8248 8248 8246 8242 8242 8243 8241 8242 8237 8240 8236 8238 8238 8238 8236 8240 8238 8237 8236 8235 
8271 8272 8274 8275 8271 8269 8273 8274 8272 8269 8271 8272 8267 8268 8266 8268 8270 8274 8270 8273 8270 8263 8262 8262 8265 8262 8268 8267 8262 8261 8265 8266 8267 8269 8267 8265 8267 8270 8274 8271 8266 8267 8268 8270 8269 8268 8264 8260 8260 8256 8251 8255 8250 8247 8249 8254 8251 8251 8250 8250 8247 8245 8245 8241 8242 8241 8241 8240 8238 8237 8236 8238 8235 8235 8233 8237 8235 8230 8235 8237 
8274 8278 8272 8272 8272 8271 8273 8272 8268 8269 8269 8267 8267 8267 8264 8266 8267 8274 8267 8271 8270 8265 8261 8262 8261 8260 8264 8265 8261 8262 8267 8266 8265 8265 8262 8262 8264 8267 8266 8268 8263 8263 8264 8267 8266 8264 8261 8259 8257 8255 8252 8248 8247 8247 8248 8252 8252 8252 8250 8247 8246 8244 8241 8242 8240 8240 8239 8238 8238 8235 8238 8234 8231 8232 8232 8234 8230 8232 8228 8231 
8269 8277 8271 8273 8269 8270 8272 8269 8268 8266 8266 8269 8267 8264 8266 8265 8270 8270 8267 8271 8267 8263 8263 8261 8260 8256 8263 8260 8258 8262 8263 8260 8262 8262 8262 8256 8260 8261 8267 8263 8260 8258 8261 8264 8263 8259 8255 8253 8254 8252 8248 8249 8243 8244 8245 8252 8250 8248 8247 8246 8245 8241 8242 8239 8239 8238 8234 8237 8238 8233 8234 8231 8230 8231 8230 8234 8230 8229 8229 8228 
8270 8270 8275 8272 8272 8268 8269 8266 8267 8266 8262 8266 8265 8267 8265 8265 8267 8268 8272 8268 8268 8260 8260 8260 8261 8254 8259 8260 8257 8258 8255 8256 8257 8257 8254 8249 8245 8245 8252 8254 8250 8254 8253 8228 8218 8216 8228 8244 8242 8243 8244 8244 8242 8243 8244 8249 8250 8246 8246 8246 8243 8242 8242 8239 8237 8238 8236 8238 8235 8233 8234 8232 8229 8235 8228 8229 8226 8226 8227 8228 
8271 8272 8270 8272 8269 8270 8270 8265 8265 8264 8267 8264 8262 8261 8261 8266 8268 8268 8265 8272 8267 8263 8262 8261 8259 8257 8255 8254 8249 8250 8250 8233 8197 8232 8212 8195 8220 8215 8196 8185 8185 8219 8234 8176 8165 8169 8174 8181 8171 8185 8219 8237 8243 8242 8244 8249 8248 8246 8246 8245 8241 8242 8240 8240 8238 8239 8237 8237 8237 8233 8231 8232 8227 8228 8228 8226 8226 8225 8222 8224 
8268 8269 8271 8272 8267 8268 8268 8266 8269 8268 8265 8263 8261 8259 8260 8261 8264 8267 8269 8268 8265 8260 8257 8255 8257 8253 8229 8193 8191 8210 8215 8153 8159 8161 8172 8224 8242 8243 8227 8198 8169 8160 8180 8170 8163 8166 8177 8171 8169 8175 8191 8227 8238 8243 8241 8246 8244 8244 8240 8245 8241 8241 8240 8237 8238 8239 8236 8235 8234 8233 8232 8230 8228 8227 8226 8226 8224 8220 8222 8218 
8268 8270 8267 8268 8264 8266 8268 8265 8263 8268 8264 8261 8260 8260 8259 8261 8264 8267 8264 8264 8265 8257 8254 8255 8255 8249 8190 8151 8143 8165 8191 8154 8152 8151 8169 8173 8231 8248 8249 8245 8232 8202 8174 8163 8166 8171 8227 8222 8222 8233 8234 8234 8237 8241 8242 8245 8245 8243 8244 8239 8241 8241 8237 8238 8237 8238 8235 8233 8234 8230 8231 8227 8226 8227 8226 8223 8221 8220 8219 8225 
8265 8270 8267 8269 8268 8263 8265 8265 8263 8263 8264 8260 8259 8259 8259 8263 8261 8264 8264 8260 8261 8257 8254 8253 8253 8247 8203 8157 8177 8220 8222 8166 8145 8143 8135 8135 8192 8208 8219 8224 8231 8234 8203 8188 8174 8189 8236 8237 8239 8237 8238 8240 8240 8238 8242 8247 8244 8244 8243 8239 8237 8239 8237 8236 8235 8240 8236 8235 8233 8233 8229 8229 8223 8227 8223 8221 8224 8217 8218 8218 
8266 8266 8266 8269 8266 8264 8264 8265 8262 8262 8261 8261 8256 8258 8258 8258 8260 8264 8258 8262 8259 8256 8254 8251 8252 8248 8216 8219 8237 8208 8160 8157 8156 8149 8133 8139 8153 8156 8168 8171 8199 8230 8188 8173 8160 8171 8211 8233 8236 8240 8241 8239 8238 8237 8240 8245 8245 8243 8243 8240 8236 8238 8236 8236 8236 8237 8237 8232 8234 8234 8231 8229 8226 8222 8226 8223 8221 8218 8218 8218 
8268 8268 8267 8269 8265 8264 8267 8262 8263 8261 8261 8258 8259 8259 8259 8259 8261 8260 8259 8260 8258 8254 8251 8246 8249 8246 8246 8245 8222 8159 8192 8225 8221 8165 8146 8178 8166 8149 8149 8160 8189 8205 8175 8172 8165 8158 8158 8176 8214 8233 8237 8238 8236 8237 8241 8246 8245 8242 8242 8239 8237 8238 8239 8238 8237 8237 8238 8234 8232 8233 8232 8228 8227 8227 8224 8224 8221 8220 8217 8219 
8268 8268 8264 8265 8263 8264 8264 8261 8259 8260 8261 8260 8260 8257 8257 8257 8261 8258 8257 8260 8254 8245 8205 8180 8222 8238 8246 8242 8183 8159 8171 8182 8193 8173 8175 8213 8214 8173 8154 8155 8165 8171 8179 8193 8190 8167 8154 8155 8163 8209 8234 8234 8235 8235 8239 8244 8241 8240 8242 8240 8236 8237 8239 8234 8237 8237 8234 8235 8234 8230 8231 8227 8226 8223 8223 8225 8223 8218 8219 8216 
8265 8268 8265 8263 8264 8264 8259 8259 8259 8258 8255 8257 8256 8255 8255 8257 8256 8258 8254 8255 8253 8240 8182 8149 8156 8173 8212 8227 8190 8163 8164 8168 8164 8166 8178 8186 8166 8156 8155 8164 8168 8165 8189 8217 8212 8183 8169 8168 8165 8182 8209 8228 8231 8238 8235 8242 8241 8242 8240 8237 8239 8236 8237 8235 8236 8238 8239 8234 8234 8232 8230 8226 8225 8224 8224 8223 8220 8220 8218 8216 
8268 8265 8264 8264 8262 8260 8260 8259 8257 8259 8260 8255 8256 8256 8258 8254 8257 8257 8253 8255 8250 8245 8226 8177 8155 8150 8199 8227 8176 8166 8169 8166 8162 8162 8156 8154 8150 8149 8158 8191 8167 8170 8188 8197 8205 8195 8178 8169 8173 8163 8189 8212 8216 8229 8232 8239 8240 8239 8240 8236 8236 8236 8240 8235 8235 8238 8235 8234 8233 8229 8229 8227 8227 8222 8224 8225 8225 8221 8220 8216 
8265 8266 8267 8268 8261 8258 8258 8260 8257 8256 8253 8258 8254 8256 8254 8257 8258 8257 8252 8257 8250 8244 8239 8221 8185 8156 8173 8178 8155 8166 8163 8171 8160 8157 8152 8148 8148 8151 8158 8151 8150 8159 8164 8165 8177 8226 8221 8182 8169 8165 8171 8216 8216 8203 8206 8214 8227 8235 8238 8237 8235 8236 8235 8237 8236 8236 8233 8234 8232 8233 8230 8228 8224 8225 8224 8225 8222 8222 8222 8221 
8266 8268 8264 8266 8261 8261 8259 8257 8255 8258 8256 8256 8254 8252 8255 8254 8258 8254 8252 8254 8248 8242 8199 8156 8148 8161 8159 8151 8165 8166 8169 8171 8170 8168 8164 8160 8158 8158 8162 8157 8155 8160 8161 8163 8166 8203 8232 8230 8199 8173 8168 8199 8227 8205 8198 8200 8197 8207 8228 8235 8234 8236 8238 8238 8234 8238 8236 8233 8232 8230 8233 8230 8226 8228 8222 8226 8226 8223 8226 8221 
8267 8266 8263 8263 8263 8264 8257 8256 8258 8258 8256 8253 8251 8253 8254 8254 8252 8252 8250 8249 8248 8228 8166 8155 8169 8184 8164 8159 8158 8166 8166 8170 8172 8165 8159 8170 8165 8159 8163 8171 8160 8161 8160 8168 8170 8197 8231 8231 8231 8202 8174 8195 8225 8219 8207 8206 8202 8194 8203 8229 8234 8236 8236 8234 8236 8239 8235 8233 8234 8230 8231 8227 8226 8226 8227 8225 8225 8225 8226 8221 
8267 8266 8264 8265 8262 8261 8258 8258 8257 8256 8253 8255 8255 8254 8255 8250 8254 8252 8244 8246 8237 8223 8195 8190 8172 8161 8153 8155 8161 8167 8171 8175 8178 8176 8165 8163 8158 8176 8166 8159 8157 8158 8161 8164 8168 8183 8220 8229 8232 8227 8198 8189 8227 8228 8216 8216 8208 8199 8198 8213 8234 8236 8235 8234 8235 8238 8232 8234 8234 8232 8231 8228 8231 8230 8222 8228 8225 8224 8222 8225 
8265 8266 8263 8263 8259 8259 8261 8256 8255 8255 8256 8256 8255 8254 8252 8251 8251 8248 8229 8196 8173 8170 8167 8154 8148 8142 8144 8163 8171 8175 8177 8182 8179 8170 8172 8175 8161 8177 8172 8179 8168 8167 8166 8174 8175 8176 8177 8188 8218 8226 8221 8198 8226 8231 8221 8218 8214 8212 8204 8204 8227 8233 8235 8235 8233 8236 8234 8234 8234 8231 8231 8227 8228 8231 8228 8226 8227 8222 8220 8220 
8264 8267 8263 8261 8259 8261 8260 8260 8256 8257 8254 8256 8256 8255 8252 8252 8249 8227 8171 8161 8166 8190 8174 8156 8154 8148 8149 8172 8174 8182 8180 8180 8177 8168 8166 8173 8171 8167 8163 8168 8168 8170 8171 8171 8184 8180 8177 8172 8176 8191 8200 8209 8217 8228 8220 8218 8219 8215 8209 8203 8216 8232 8232 8232 8234 8234 8233 8235 8234 8230 8230 8229 8229 8228 8226 8225 8227 8224 8220 8222 
8264 8264 8264 8264 8261 8259 8259 8260 8255 8255 8256 8257 8254 8255 8252 8251 8236 8184 8160 8159 8170 8167 8161 8156 8155 8152 8155 8178 8183 8183 8179 8176 8171 8170 8166 8172 8173 8159 8157 8167 8170 8175 8168 8181 8219 8194 8180 8172 8166 8166 8165 8170 8183 8224 8228 8219 8219 8218 8219 8213 8210 8230 8234 8233 8232 8234 8231 8233 8232 8229 8230 8228 8227 8226 8224 8226 8228 8226 8221 8223 
8264 8265 8263 8265 8261 8259 8260 8260 8256 8259 8256 8256 8254 8252 8251 8248 8206 8168 8165 8168 8170 8163 8163 8156 8154 8153 8167 8195 8185 8184 8182 8178 8173 8166 8169 8176 8167 8157 8159 8174 8178 8177 8171 8185 8222 8229 8197 8175 8166 8164 8163 8183 8207 8233 8236 8221 8219 8221 8219 8218 8211 8221 8233 8233 8231 8232 8231 8230 8229 8228 8231 8226 8227 8226 8226 8228 8228 8223 8221 8222 
8265 8262 8265 8265 8262 8260 8262 8259 8258 8258 8258 8257 8255 8251 8249 8231 8193 8192 8176 8171 8169 8169 8194 8162 8163 8196 8211 8205 8182 8174 8181 8183 8179 8170 8166 8168 8165 8163 8165 8185 8180 8181 8177 8175 8180 8220 8226 8189 8172 8167 8172 8223 8230 8232 8231 8231 8220 8224 8222 8221 8219 8222 8230 8232 8231 8231 8233 8230 8230 8228 8227 8227 8226 8227 8224 8225 8226 8224 8223 8223 
8268 8266 8265 8264 8264 8262 8261 8258 8258 8257 8255 8256 8255 8253 8245 8224 8225 8210 8175 8171 8166 8163 8159 8160 8183 8198 8189 8181 8173 8186 8178 8177 8180 8179 8171 8171 8173 8177 8176 8180 8178 8184 8177 8176 8182 8201 8220 8216 8205 8184 8171 8209 8220 8226 8229 8235 8223 8224 8227 8222 8222 8217 8229 8232 8233 8231 8231 8231 8229 8227 8226 8227 8224 8226 8226 8227 8228 8227 8222 8226 
8269 8265 8268 8268 8262 8260 8262 8260 8259 8258 8255 8258 8255 8253 8250 8250 8247 8200 8176 8170 8160 8156 8158 8162 8167 8172 8175 8176 8172 8171 8175 8173 8176 8178 8181 8173 8175 8179 8180 8185 8193 8190 8181 8174 8179 8202 8236 8236 8234 8226 8199 8174 8168 8171 8187 8223 8232 8221 8223 8223 8222 8217 8232 8232 8232 8234 8230 8233 8229 8231 8227 8226 8226 8226 8227 8229 8226 8225 8222 8223 
8266 8270 8261 8264 8261 8263 8262 8264 8260 8260 8256 8258 8257 8254 8252 8253 8246 8214 8173 8170 8160 8157 8162 8165 8172 8175 8177 8178 8172 8171 8173 8172 8174 8174 8172 8171 8171 8171 8175 8182 8214 8199 8182 8181 8179 8219 8236 8236 8237 8234 8227 8211 8182 8163 8170 8181 8218 8224 8218 8222 8222 8213 8231 8233 8233 8234 8228 8230 8229 8229 8228 8225 8223 8229 8227 8226 8228 8223 8222 8225 
8267 8266 8267 8267 8261 8262 8263 8266 8261 8261 8255 8258 8253 8255 8254 8249 8214 8178 8168 8163 8164 8160 8165 8168 8174 8177 8178 8182 8174 8174 8173 8174 8169 8170 8172 8170 8171 8178 8183 8191 8192 8190 8183 8183 8180 8208 8238 8236 8235 8235 8232 8231 8219 8181 8170 8171 8179 8210 8224 8220 8221 8222 8235 8233 8233 8236 8231 8231 8229 8231 8229 8228 8221 8225 8229 8226 8228 8222 8225 8221 
8269 8270 8268 8266 8264 8265 8267 8267 8263 8262 8260 8258 8256 8256 8252 8233 8178 8172 8165 8160 8166 8168 8167 8168 8172 8180 8184 8184 8178 8174 8175 8178 8173 8173 8175 8177 8179 8181 8181 8206 8220 8201 8180 8181 8180 8197 8236 8239 8236 8235 8228 8233 8229 8203 8184 8184 8179 8193 8231 8230 8222 8227 8235 8235 8234 8234 8232 8229 8231 8230 8228 8227 8228 8230 8227 8226 8229 8223 8223 8222 
8268 8267 8266 8266 8266 8266 8267 8265 8262 8265 8261 8263 8255 8255 8251 8217 8169 8166 8160 8165 8178 8173 8172 8173 8193 8194 8186 8183 8176 8177 8179 8189 8175 8181 8181 8180 8184 8185 8182 8184 8191 8210 8182 8180 8182 8196 8233 8235 8237 8234 8229 8230 8229 8217 8193 8194 8194 8194 8225 8234 8230 8230 8239 8234 8236 8236 8231 8233 8230 8228 8233 8230 8227 8227 8227 8230 8227 8223 8221 8222 
8271 8268 8269 8269 8271 8271 8267 8267 8262 8266 8264 8260 8258 8257 8253 8225 8173 8169 8163 8166 8185 8180 8179 8207 8237 8220 8199 8186 8181 8182 8161 8147 8155 8187 8187 8184 8184 8182 8180 8183 8183 8204 8194 8187 8182 8209 8234 8235 8235 8234 8231 8231 8231 8225 8197 8204 8205 8203 8219 8236 8235 8227 8234 8235 8234 8234 8233 8234 8233 8230 8233 8232 8230 8228 8228 8228 8228 8222 8223 8224 
8270 8272 8270 8272 8270 8273 8268 8266 8263 8266 8262 8262 8257 8255 8255 8224 8171 8169 8165 8171 8203 8187 8212 8240 8244 8229 8222 8193 8184 8185 8181 8186 8165 8196 8190 8189 8185 8180 8186 8186 8183 8192 8209 8189 8188 8203 8230 8234 8238 8235 8236 8232 8230 8232 8215 8208 8210 8213 8226 8238 8239 8236 8237 8233 8236 8238 8239 8233 8233 8230 8234 8231 8233 8230 8228 8231 8229 8231 8225 8222 
8271 8269 8273 8273 8270 8269 8265 8265 8265 8265 8264 8266 8258 8258 8254 8236 8175 8168 8164 8175 8220 8212 8243 8243 8244 8227 8210 8229 8226 8232 8231 8227 8200 8203 8197 8191 8203 8200 8191 8186 8186 8181 8189 8186 8181 8180 8192 8228 8239 8238 8235 8234 8235 8234 8232 8219 8217 8218 8231 8241 8239 8235 8238 8235 8237 8236 8234 8231 8231 8231 8231 8231 8233 8229 8229 8229 8230 8229 8226 8229 
8271 8269 8276 8274 8270 8269 8268 8266 8265 8262 8262 8264 8258 8257 8258 8243 8182 8170 8167 8180 8231 8243 8248 8246 8244 8228 8195 8236 8234 8216 8206 8214 8223 8206 8212 8202 8216 8220 8203 8183 8189 8202 8217 8186 8177 8179 8182 8223 8237 8237 8235 8236 8234 8236 8239 8242 8235 8223 8223 8239 8239 8238 8240 8234 8237 8239 8235 8231 8236 8232 8233 8233 8230 8234 8231 8234 8231 8227 8225 8226 
8269 8270 8274 8272 8269 8271 8268 8269 8266 8266 8265 8263 8261 8257 8253 8243 8182 8173 8172 8184 8241 8245 8247 8243 8240 8214 8198 8231 8193 8168 8171 8187 8205 8208 8224 8227 8229 8222 8201 8191 8210 8214 8196 8190 8184 8188 8188 8229 8241 8239 8235 8238 8234 8237 8238 8246 8243 8238 8234 8241 8240 8238 8239 8234 8237 8239 8236 8233 8235 8233 8234 8234 8234 8235 8233 8233 8235 8229 8226 8226 
8269 8270 8272 8271 8270 8270 8268 8267 8265 8266 8265 8264 8260 8260 8255 8249 8188 8175 8174 8183 8236 8241 8243 8243 8231 8202 8192 8203 8168 8162 8177 8193 8197 8208 8230 8242 8230 8208 8197 8178 8179 8206 8198 8196 8195 8193 8193 8221 8237 8238 8233 8233 8234 8236 8239 8242 8240 8240 8238 8240 8239 8238 8237 8233 8237 8239 8236 8236 8232 8233 8235 8233 8234 8233 8234 8233 8232 8229 8225 8226 
8272 8269 8268 8270 8270 8270 8270 8266 8266 8268 8266 8265 8262 8260 8259 8252 8198 8175 8174 8185 8221 8222 8211 8202 8196 8193 8192 8178 8166 8178 8191 8198 8197 8212 8233 8237 8222 8210 8194 8180 8176 8196 8206 8202 8200 8197 8196 8202 8223 8227 8226 8229 8242 8247 8244 8243 8239 8237 8242 8238 8238 8239 8237 8236 8238 8236 8237 8234 8238 8236 8235 8235 8236 8231 8233 8235 8232 8229 8229 8226 
8274 8272 8269 8270 8267 8266 8267 8266 8267 8267 8267 8266 8261 8259 8258 8257 8226 8188 8184 8189 8196 8196 8197 8194 8198 8194 8193 8177 8181 8192 8198 8202 8202 8214 8230 8230 8209 8216 8216 8201 8182 8199 8216 8212 8206 8203 8198 8208 8227 8230 8225 8225 8244 8261 8261 8248 8242 8240 8239 8237 8237 8235 8237 8234 8235 8235 8236 8233 8238 8235 8233 8234 8234 8233 8232 8232 8235 8229 8227 8227 
8272 8272 8269 8271 8269 8269 8271 8268 8267 8268 8269 8267 8263 8261 8263 8261 8255 8230 8202 8199 8200 8199 8202 8199 8199 8197 8193 8188 8196 8205 8205 8207 8207 8215 8229 8230 8221 8229 8231 8229 8209 8210 8230 8221 8209 8206 8203 8216 8237 8235 8232 8230 8233 8244 8247 8246 8244 8238 8240 8232 8237 8237 8236 8236 8234 8234 8233 8234 8235 8237 8234 8233 8234 8232 8231 8230 8236 8229 8224 8231 
8272 8276 8273 8271 8267 8264 8270 8268 8268 8269 8266 8266 8264 8263 8260 8261 8259 8258 8225 8215 8212 8208 8209 8206 8203 8201 8198 8203 8206 8209 8216 8217 8213 8220 8227 8231 8217 8221 8222 8219 8223 8225 8234 8227 8216 8214 8208 8222 8249 8248 8240 8236 8241 8246 8250 8250 8243 8238 8238 8235 8237 8236 8236 8234 8234 8235 8232 8235 8234 8235 8236 8234 8234 8232 8234 8232 8234 8234 8227 8227 
8276 8276 8271 8271 8267 8269 8268 8266 8267 8270 8268 8268 8264 8263 8260 8260 8259 8260 8251 8237 8235 8227 8222 8218 8216 8209 8213 8208 8210 8213 8219 8220 8221 8232 8229 8229 8208 8206 8207 8211 8213 8214 8218 8224 8225 8221 8220 8223 8246 8246 8247 8242 8242 8247 8251 8249 8239 8237 8239 8235 8236 8232 8235 8231 8233 8234 8234 8233 8235 8234 8234 8233 8233 8234 8232 8231 8232 8228 8226 8227 
8275 8275 8270 8271 8269 8267 8266 8267 8266 8270 8270 8267 8261 8264 8260 8261 8264 8264 8260 8246 8248 8248 8238 8230 8227 8222 8228 8232 8221 8226 8235 8238 8234 8240 8242 8234 8225 8218 8218 8212 8226 8227 8229 8234 8235 8236 8227 8223 8231 8237 8247 8247 8250 8254 8260 8256 8241 8241 8239 8236 8235 8237 8233 8229 8230 8231 8233 8234 8236 8236 8234 8235 8233 8233 8235 8235 8233 8230 8228 8227 
8275 8275 8271 8270 8265 8265 8268 8267 8266 8266 8268 8266 8266 8265 8263 8261 8261 8262 8259 8248 8242 8243 8240 8238 8236 8239 8242 8241 8237 8240 8240 8239 8240 8240 8242 8239 8242 8237 8235 8236 8236 8242 8243 8245 8244 8245 8243 8242 8248 8253 8256 8262 8261 8262 8270 8257 8241 8238 8238 8233 8239 8231 8233 8228 8232 8231 8233 8236 8234 8236 8233 8234 8233 8233 8232 8234 8233 8231 8228 8226 
8274 8275 8272 8273 8266 8270 8268 8268 8266 8267 8265 8264 8264 8262 8262 8261 8262 8263 8260 8253 8245 8244 8243 8242 8243 8250 8254 8253 8249 8249 8250 8251 8253 8254 8252 8251 8254 8255 8260 8259 8257 8255 8255 8257 8259 8255 8255 8254 8261 8268 8269 8274 8276 8274 8273 8254 8241 8237 8237 8234 8234 8232 8231 8228 8230 8234 8235 8232 8237 8233 8235 8236 8237 8234 8234 8236 8234 8226 8230 8224 
8275 8275 8272 8272 8269 8272 8265 8265 8264 8266 8266 8264 8264 8261 8262 8262 8261 8262 8260 8260 8250 8246 8249 8250 8253 8259 8264 8263 8256 8256 8260 8262 8265 8262 8263 8261 8264 8266 8269 8267 8266 8264 8267 8268 8266 8266 8264 8262 8270 8276 8282 8281 8277 8271 8256 8244 8238 8237 8237 8236 8235 8229 8231 8227 8230 8232 8232 8232 8234 8235 8235 8232 8235 8234 8232 8232 8232 8225 8225 8227 
8275 8277 8272 8273 8270 8267 8268 8263 8262 8266 8263 8265 8263 8260 8260 8262 8262 8263 8259 8263 8258 8253 8254 8253 8264 8267 8272 8276 8267 8271 8270 8272 8273 8275 8277 8275 8277 8275 8280 8277 8273 8273 8276 8277 8276 8274 8273 8273 8277 8283 8284 8279 8267 8257 8239 8239 8240 8237 8234 8232 8233 8230 8231 8229 8228 8232 8234 8234 8234 8232 8235 8234 8235 8235 8236 8232 8232 8226 8225 8226 
8280 8276 8271 8268 8266 8266 8266 8262 8263 8260 8260 8263 8260 8261 8258 8260 8261 8261 8255 8257 8260 8269 8273 8269 8268 8269 8279 8282 8277 8280 8281 8284 8285 8289 8289 8288 8288 8289 8287 8283 8281 8282 8285 8287 8286 8286 8280 8280 8281 8280 8277 8275 8273 8261 8241 8240 8236 8236 8237 8233 8233 8229 8227 8229 8228 8235 8233 8233 8231 8233 8231 8232 8233 8235 8233 8231 8232 8227 8225 8226 
8276 8277 8273 8271 8266 8264 8262 8259 8259 8258 8259 8258 8253 8255 8255 8255 8258 8257 8256 8257 8257 8272 8283 8285 8283 8283 8285 8286 8285 8289 8286 8289 8291 8292 8289 8289 8289 8292 8290 8284 8281 8286 8289 8293 8291 8288 8285 8282 8279 8280 8283 8285 8280 8259 8237 8241 8238 8236 8233 8235 8233 8231 8233 8230 8232 8231 8234 8232 8231 8233 8232 8235 8236 8231 8232 8229 8227 8225 8223 8230 
8284 8281 8277 8278 8268 8264 8260 8257 8256 8255 8254 8257 8253 8249 8251 8252 8254 8254 8250 8255 8254 8269 8293 8295 8298 8293 8297 8300 8296 8293 8290 8292 8291 8291 8291 8289 8291 8294 8288 8283 8280 8282 8290 8293 8289 8291 8285 8284 8286 8291 8292 8293 8284 8254 8238 8241 8238 8236 8236 8239 8234 8234 8233 8232 8229 8230 8236 8233 8231 8231 8233 8232 8232 8230 8229 8228 8227 8224 8227 8229 
8293 8288 8289 8289 8281 8266 8255 8251 8250 8249 8248 8251 8244 8246 8247 8248 8251 8247 8245 8252 8248 8266 8298 8301 8304 8302 8305 8304 8306 8302 8292 8293 8287 8292 8287 8289 8290 8291 8289 8286 8284 8284 8290 8295 8292 8292 8292 8295 8299 8302 8302 8300 8284 8250 8236 8240 8239 8235 8237 8234 8235 8231 8237 8230 8232 8237 8236 8234 8233 8231 8232 8232 8231 8231 8229 8228 8229 8230 8227 8230 
8298 8307 8294 8289 8284 8270 8260 8251 8248 8249 8247 8247 8244 8243 8240 8245 8244 8246 8244 8246 8245 8262 8299 8310 8313 8308 8308 8308 8309 8310 8307 8301 8293 8290 8289 8290 8290 8290 8294 8291 8286 8288 8292 8295 8295 8295 8300 8302 8305 8307 8303 8301 8282 8243 8238 8241 8241 8239 8237 8237 8236 8236 8237 8236 8238 8239 8239 8236 8234 8232 8232 8231 8233 8228 8231 8235 8232 8232 8231 8228 
8306 8284 8285 8284 8277 8271 8260 8247 8246 8246 8248 8246 8242 8240 8239 8243 8243 8247 8244 8245 8248 8260 8301 8316 8315 8311 8311 8307 8310 8315 8312 8311 8303 8298 8291 8290 8292 8292 8295 8293 8290 8293 8295 8300 8304 8306 8305 8304 8310 8312 8310 8306 8282 8244 8243 8247 8244 8243 8238 8238 8245 8243 8244 8242 8239 8240 8240 8239 8237 8238 8238 8235 8238 8240 8234 8231 8233 8233 8230 8232 


