P2
80 60
8285
8256 8257 8262 8264 8263 8262 8266 8262 8260 8260 8262 8262 8261 8260 8259 8261 8262 8261 8261 8264 8266 8268 8272 8269 8271 8265 8267 8271 8271 8269 8269 8270 8274 8271 8276 8276 8273 8281 8280 8278 8282 8285 8280 8279 8278 8278 8274 8273 8266 8266 8267 8271 8265 8255 8257 8255 8251 8250 8245 8246 8242 8241 8237 8236 8238 8235 8239 8240 8239 8236 8238 8238 8238 8235 8237 8240 8234 8235 8234 8238 
8253 8253 8266 8262 8263 8265 8264 8258 8258 8258 8262 8258 8261 8257 8257 8260 8260 8257 8259 8261 8260 8267 8270 8265 8269 8267 8266 8271 8268 8266 8268 8268 8269 8273 8276 8273 8275 8279 8278 8280 8282 8281 8279 8275 8274 8273 8275 8274 8269 8266 8264 8266 8259 8254 8254 8252 8250 8248 8246 8244 8240 8239 8237 8234 8233 8234 8237 8240 8242 8237 8240 8237 8235 8239 8236 8239 8238 8235 8233 8237 
8250 8248 8258 8254 8262 8258 8259 8257 8255 8257 8258 8254 8252 8255 8255 8258 8255 8254 8253 8256 8255 8259 8261 8258 8264 8267 8263 8267 8266 8263 8267 8262 8267 8270 8274 8271 8273 8276 8280 8278 8281 8278 8277 8276 8273 8274 8273 8274 8269 8267 8264 8264 8259 8251 8249 8251 8248 8245 8244 8242 8239 8235 8237 8230 8230 8233 8237 8239 8239 8241 8240 8238 8238 8238 8236 8238 8238 8234 8233 8233 
8252 8245 8257 8256 8259 8257 8258 8258 8255 8253 8249 8249 8252 8253 8252 8255 8254 8248 8249 8253 8251 8254 8259 8258 8262 8258 8260 8267 8265 8264 8264 8263 8266 8268 8271 8271 8271 8274 8277 8278 8277 8278 8276 8270 8272 8274 8270 8271 8267 8267 8265 8263 8256 8249 8252 8250 8244 8243 8241 8244 8243 8239 8238 8232 8229 8227 8232 8236 8240 8240 8240 8240 8238 8239 8239 8239 8238 8242 8236 8234 
8252 8247 8256 8253 8257 8261 8259 8254 8252 8253 8251 8248 8248 8250 8250 8251 8246 8246 8248 8250 8249 8251 8252 8256 8261 8260 8261 8264 8262 8261 8264 8262 8264 8268 8270 8268 8270 8275 8276 8273 8275 8272 8271 8267 8271 8266 8270 8268 8264 8264 8263 8264 8254 8251 8249 8246 8242 8239 8240 8244 8241 8241 8239 8232 8230 8227 8231 8233 8234 8236 8240 8241 8242 8241 8242 8243 8242 8242 8243 8241 
8252 8249 8256 8255 8256 8256 8259 8254 8250 8253 8243 8244 8246 8245 8243 8248 8247 8243 8241 8248 8247 8250 8253 8254 8259 8257 8257 8261 8257 8257 8261 8259 8265 8264 8267 8266 8268 8270 8268 8269 8271 8271 8268 8264 8262 8264 8266 8266 8261 8264 8260 8261 8252 8249 8249 8247 8242 8240 8239 8240 8239 8236 8235 8232 8230 8226 8228 8232 8237 8239 8238 8237 8239 8239 8241 8243 8244 8242 8245 8238 
8251 8248 8255 8257 8257 8255 8258 8255 8248 8242 8243 8241 8242 8243 8246 8248 8243 8243 8241 8246 8246 8249 8251 8254 8259 8257 8255 8258 8258 8257 8261 8258 8261 8265 8266 8262 8263 8268 8268 8270 8270 8270 8268 8263 8261 8262 8264 8266 8261 8260 8256 8260 8251 8246 8247 8245 8243 8241 8237 8238 8235 8235 8234 8231 8232 8228 8226 8227 8227 8233 8234 8235 8240 8238 8240 8243 8242 8245 8243 8239 
8256 8251 8252 8256 8251 8249 8251 8252 8250 8240 8241 8242 8244 8241 8243 8244 8243 8242 8241 8245 8247 8248 8251 8255 8255 8256 8253 8253 8255 8256 8256 8257 8258 8261 8262 8260 8261 8265 8263 8262 8265 8266 8265 8260 8263 8261 8262 8260 8255 8258 8253 8256 8250 8243 8244 8242 8242 8240 8235 8234 8232 8231 8228 8229 8229 8226 8226 8226 8226 8225 8224 8229 8232 8233 8234 8240 8240 8243 8236 8232 
8254 8243 8253 8245 8247 8241 8249 8248 8245 8241 8242 8239 8240 8241 8243 8244 8243 8244 8242 8246 8245 8248 8246 8249 8253 8250 8250 8253 8253 8252 8255 8256 8255 8256 8258 8260 8260 8261 8264 8265 8266 8265 8266 8260 8258 8259 8258 8258 8256 8254 8252 8256 8248 8242 8242 8240 8242 8237 8234 8234 8231 8227 8228 8226 8224 8223 8224 8223 8222 8222 8222 8218 8222 8224 8227 8231 8232 8233 8232 8229 
8254 8241 8251 8248 8244 8245 8242 8247 8244 8243 8241 8240 8241 8242 8239 8243 8239 8240 8243 8243 8244 8246 8246 8244 8251 8251 8250 8255 8253 8248 8252 8253 8254 8253 8258 8256 8259 8262 8261 8263 8265 8262 8262 8258 8256 8260 8257 8256 8252 8253 8250 8253 8246 8240 8240 8239 8234 8234 8232 8229 8228 8227 8227 8222 8226 8222 8222 8219 8220 8220 8221 8216 8216 8218 8221 8223 8222 8223 8223 8226 
8249 8241 8249 8246 8240 8245 8243 8244 8247 8244 8243 8241 8238 8240 8241 8238 8238 8239 8240 8243 8242 8243 8245 8246 8250 8247 8247 8252 8251 8249 8250 8248 8251 8252 8257 8255 8256 8257 8258 8259 8258 8260 8260 8256 8256 8256 8256 8256 8250 8248 8251 8252 8244 8240 8239 8237 8233 8232 8232 8228 8227 8224 8223 8222 8219 8220 8220 8218 8221 8218 8218 8215 8211 8211 8212 8214 8217 8216 8214 8209 
8250 8246 8249 8243 8242 8243 8244 8243 8244 8244 8241 8242 8239 8238 8238 8242 8238 8237 8239 8242 8239 8245 8245 8244 8250 8249 8248 8252 8250 8251 8247 8249 8249 8250 8255 8254 8254 8256 8257 8256 8258 8259 8254 8257 8255 8256 8255 8254 8251 8250 8248 8248 8245 8241 8236 8236 8231 8232 8229 8226 8226 8222 8221 8221 8218 8218 8218 8217 8217 8214 8215 8211 8209 8210 8208 8213 8208 8209 8208 8206 
8247 8244 8243 8244 8242 8244 8244 8243 8244 8241 8241 8240 8237 8239 8238 8241 8239 8240 8238 8241 8243 8241 8243 8245 8246 8247 8247 8251 8250 8245 8249 8245 8248 8251 8255 8251 8251 8253 8254 8249 8253 8255 8256 8252 8253 8253 8252 8252 8247 8249 8247 8250 8243 8236 8237 8232 8228 8229 8227 8226 8221 8217 8219 8218 8218 8217 8217 8214 8216 8213 8211 8208 8207 8206 8206 8208 8206 8207 8206 8199 
8248 8247 8251 8246 8244 8245 8244 8244 8243 8241 8243 8239 8238 8236 8240 8240 8240 8238 8237 8239 8242 8241 8243 8242 8247 8245 8248 8245 8244 8244 8245 8244 8245 8251 8255 8250 8251 8252 8249 8249 8253 8253 8252 8251 8248 8254 8253 8253 8246 8248 8247 8249 8242 8235 8234 8233 8230 8227 8223 8223 8219 8217 8219 8217 8219 8218 8217 8216 8213 8211 8208 8208 8205 8204 8204 8203 8205 8204 8205 8204 
8246 8242 8248 8248 8246 8240 8242 8241 8243 8240 8241 8240 8236 8237 8238 8242 8238 8239 8240 8242 8243 8240 8241 8240 8246 8243 8241 8246 8243 8242 8247 8241 8247 8248 8252 8248 8251 8250 8248 8246 8251 8250 8252 8248 8249 8249 8250 8247 8242 8245 8244 8245 8240 8231 8232 8230 8227 8223 8225 8223 8217 8215 8213 8216 8219 8216 8217 8215 8214 8209 8207 8206 8206 8200 8202 8202 8200 8198 8199 8197 
8250 8241 8247 8249 8242 8242 8241 8243 8240 8239 8242 8242 8237 8234 8236 8242 8239 8240 8239 8241 8242 8240 8240 8240 8243 8244 8242 8244 8245 8242 8244 8241 8244 8247 8250 8247 8249 8249 8247 8247 8248 8248 8249 8245 8246 8248 8249 8247 8243 8244 8242 8244 8238 8230 8232 8226 8227 8224 8225 8222 8217 8216 8215 8215 8217 8217 8215 8212 8214 8207 8209 8206 8203 8202 8200 8200 8195 8194 8193 8192 
8246 8242 8248 8244 8241 8241 8241 8240 8242 8239 8242 8238 8234 8235 8237 8238 8237 8240 8237 8239 8239 8240 8239 8238 8244 8244 8242 8246 8244 8244 8244 8239 8243 8246 8249 8247 8244 8248 8246 8243 8245 8248 8246 8242 8245 8246 8247 8245 8241 8240 8240 8241 8235 8228 8226 8226 8225 8223 8221 8222 8216 8217 8216 8214 8218 8216 8217 8218 8213 8207 8208 8208 8205 8204 8201 8202 8194 8192 8191 8191 
8241 8238 8246 8244 8240 8242 8241 8242 8240 8239 8239 8236 8236 8238 8238 8239 8237 8237 8237 8237 8235 8239 8239 8241 8245 8244 8244 8246 8242 8241 8245 8239 8242 8243 8248 8246 8244 8246 8244 8243 8243 8246 8246 8240 8240 8240 8240 8244 8237 8236 8236 8238 8235 8229 8225 8225 8222 8220 8221 8220 8215 8213 8215 8216 8216 8215 8219 8215 8212 8209 8209 8206 8205 8200 8198 8200 8197 8192 8185 8190 
8243 8240 8247 8243 8239 8243 8244 8242 8244 8240 8239 8235 8239 8239 8236 8241 8238 8235 8235 8234 8237 8234 8240 8238 8245 8244 8241 8244 8241 8237 8241 8240 8240 8243 8246 8244 8243 8244 8239 8240 8242 8242 8240 8234 8226 8224 8231 8235 8232 8234 8232 8237 8231 8225 8226 8223 8222 8221 8222 8218 8214 8213 8217 8216 8215 8215 8217 8218 8214 8210 8211 8206 8205 8202 8200 8199 8194 8190 8189 8188 
8241 8234 8244 8240 8234 8241 8242 8239 8238 8236 8237 8236 8235 8235 8238 8238 8238 8232 8234 8233 8234 8236 8238 8237 8242 8241 8242 8241 8242 8234 8236 8237 8240 8243 8244 8244 8239 8240 8235 8238 8237 8233 8218 8192 8183 8181 8182 8204 8227 8229 8227 8229 8227 8221 8222 8224 8221 8221 8221 8220 8215 8212 8215 8216 8221 8217 8217 8216 8214 8212 8211 8209 8206 8204 8203 8201 8194 8194 8190 8192 
8243 8235 8238 8234 8235 8237 8232 8242 8241 8234 8236 8238 8234 8235 8233 8239 8237 8234 8232 8233 8236 8234 8237 8238 8240 8238 8240 8238 8237 8235 8237 8234 8238 8243 8243 8239 8236 8237 8233 8225 8207 8192 8188 8203 8209 8197 8188 8192 8211 8202 8198 8195 8220 8217 8221 8225 8223 8219 8219 8219 8215 8214 8214 8219 8218 8217 8217 8217 8214 8212 8212 8207 8206 8204 8205 8204 8199 8193 8195 8192 
8244 8238 8241 8241 8240 8239 8232 8239 8234 8237 8236 8233 8230 8233 8233 8236 8237 8232 8232 8231 8233 8232 8235 8238 8240 8237 8238 8238 8236 8235 8234 8235 8236 8238 8237 8229 8202 8204 8225 8196 8180 8200 8222 8224 8225 8221 8195 8179 8182 8178 8171 8169 8180 8187 8217 8221 8222 8221 8220 8216 8217 8214 8216 8219 8221 8218 8219 8218 8214 8213 8211 8208 8209 8208 8207 8203 8200 8200 8197 8195 
8245 8237 8242 8241 8240 8238 8229 8225 8230 8235 8233 8234 8231 8232 8234 8236 8235 8228 8229 8232 8232 8233 8236 8236 8236 8235 8235 8238 8235 8230 8233 8231 8232 8235 8226 8200 8194 8194 8207 8213 8194 8211 8197 8193 8207 8219 8216 8189 8176 8183 8178 8181 8173 8171 8194 8221 8222 8221 8220 8216 8213 8215 8215 8217 8218 8218 8220 8219 8218 8211 8213 8210 8209 8207 8208 8205 8205 8203 8202 8199 
8242 8238 8247 8240 8237 8237 8233 8232 8236 8237 8234 8234 8229 8234 8235 8239 8234 8233 8230 8235 8233 8232 8235 8233 8238 8235 8233 8236 8233 8230 8228 8231 8228 8213 8200 8205 8216 8222 8199 8196 8191 8183 8182 8180 8173 8199 8214 8174 8161 8177 8187 8196 8202 8182 8200 8221 8219 8222 8220 8218 8218 8215 8217 8217 8219 8220 8221 8218 8217 8213 8212 8209 8209 8208 8208 8210 8206 8205 8206 8204 
8239 8233 8241 8243 8236 8236 8232 8233 8236 8234 8235 8236 8232 8235 8237 8239 8233 8235 8229 8233 8231 8232 8237 8235 8238 8232 8232 8235 8231 8227 8225 8224 8210 8200 8210 8221 8221 8190 8170 8180 8189 8192 8187 8180 8173 8177 8201 8167 8184 8173 8173 8179 8212 8214 8218 8222 8221 8224 8221 8219 8217 8217 8215 8216 8219 8220 8220 8219 8216 8211 8212 8210 8208 8208 8212 8213 8211 8207 8204 8208 
8237 8229 8238 8241 8238 8236 8237 8232 8230 8231 8235 8237 8236 8235 8236 8237 8235 8233 8231 8230 8230 8234 8236 8233 8234 8231 8234 8229 8227 8197 8198 8213 8194 8212 8224 8219 8211 8170 8188 8193 8174 8182 8180 8181 8174 8175 8164 8162 8195 8196 8192 8162 8206 8216 8221 8221 8223 8222 8221 8220 8217 8215 8218 8218 8219 8219 8221 8222 8217 8211 8212 8208 8212 8211 8211 8212 8212 8210 8209 8210 
8235 8231 8237 8239 8235 8239 8231 8230 8230 8231 8230 8233 8236 8235 8231 8233 8237 8235 8230 8232 8230 8231 8232 8231 8231 8230 8227 8230 8213 8154 8152 8195 8186 8216 8210 8196 8189 8172 8203 8201 8178 8190 8192 8168 8168 8162 8157 8172 8195 8206 8202 8172 8208 8213 8219 8219 8220 8221 8219 8220 8215 8216 8218 8218 8220 8218 8220 8219 8215 8212 8212 8211 8210 8210 8212 8212 8213 8213 8211 8209 
8235 8231 8233 8236 8236 8233 8228 8230 8229 8230 8232 8235 8235 8235 8232 8236 8233 8232 8231 8230 8229 8230 8232 8229 8229 8227 8225 8226 8209 8156 8145 8160 8184 8187 8168 8173 8178 8181 8196 8189 8183 8169 8161 8153 8162 8162 8164 8192 8202 8205 8198 8175 8176 8186 8210 8218 8222 8220 8219 8219 8216 8216 8218 8217 8217 8218 8219 8218 8214 8211 8213 8208 8208 8209 8212 8215 8215 8215 8213 8210 
8236 8227 8239 8235 8231 8235 8235 8229 8230 8232 8232 8235 8233 8233 8233 8231 8232 8231 8228 8230 8227 8228 8227 8225 8229 8229 8226 8226 8223 8207 8182 8173 8193 8169 8179 8181 8184 8181 8166 8161 8161 8154 8153 8153 8158 8163 8168 8200 8203 8201 8199 8199 8177 8160 8182 8218 8220 8220 8220 8215 8220 8215 8217 8216 8218 8214 8218 8214 8213 8211 8212 8211 8210 8212 8213 8214 8214 8216 8215 8212 
8235 8230 8232 8232 8230 8235 8234 8230 8234 8230 8232 8235 8230 8232 8233 8232 8230 8230 8228 8224 8222 8223 8225 8225 8229 8227 8225 8223 8203 8176 8175 8178 8184 8165 8175 8197 8201 8199 8164 8155 8158 8155 8152 8158 8162 8167 8167 8189 8191 8177 8171 8175 8189 8166 8171 8200 8215 8217 8217 8218 8211 8212 8214 8215 8215 8214 8213 8212 8210 8208 8211 8209 8211 8213 8215 8214 8214 8214 8212 8211 
8233 8231 8232 8233 8233 8235 8230 8228 8227 8228 8230 8231 8231 8227 8227 8231 8229 8224 8222 8224 8226 8223 8225 8223 8229 8227 8223 8199 8168 8163 8164 8174 8162 8153 8162 8180 8182 8192 8148 8160 8157 8171 8156 8158 8164 8170 8172 8200 8191 8168 8166 8173 8169 8171 8169 8188 8214 8215 8216 8214 8212 8210 8216 8216 8212 8212 8216 8215 8212 8207 8212 8210 8212 8210 8212 8215 8212 8213 8213 8210 
8232 8230 8232 8232 8231 8232 8228 8228 8231 8228 8229 8230 8226 8227 8228 8233 8224 8225 8222 8223 8221 8224 8225 8226 8228 8224 8200 8173 8174 8170 8162 8152 8155 8158 8158 8170 8155 8167 8157 8165 8162 8161 8156 8156 8166 8165 8169 8207 8207 8185 8161 8175 8167 8177 8172 8182 8208 8214 8213 8212 8210 8212 8215 8211 8214 8214 8214 8213 8211 8208 8210 8210 8210 8211 8212 8214 8216 8213 8213 8207 
8236 8231 8232 8232 8231 8235 8231 8229 8230 8230 8230 8229 8223 8226 8227 8227 8228 8224 8222 8221 8222 8222 8226 8225 8228 8213 8209 8193 8159 8176 8148 8136 8130 8142 8144 8160 8154 8151 8146 8150 8151 8151 8150 8157 8168 8172 8176 8207 8208 8195 8168 8174 8174 8181 8187 8180 8203 8213 8213 8212 8212 8210 8214 8214 8214 8212 8213 8213 8213 8210 8210 8209 8210 8208 8210 8213 8210 8210 8205 8206 
8235 8225 8237 8235 8230 8232 8227 8230 8230 8229 8225 8227 8226 8227 8224 8227 8223 8225 8223 8223 8222 8224 8226 8224 8212 8179 8169 8156 8143 8156 8138 8128 8126 8134 8146 8151 8153 8154 8141 8143 8143 8147 8153 8155 8158 8162 8179 8204 8209 8200 8180 8170 8179 8181 8199 8183 8200 8211 8212 8213 8208 8208 8212 8209 8214 8209 8210 8214 8210 8209 8211 8206 8209 8208 8211 8209 8208 8207 8203 8201 
8234 8229 8234 8231 8232 8231 8234 8232 8228 8227 8226 8225 8226 8221 8224 8223 8223 8223 8221 8224 8222 8223 8218 8183 8165 8163 8162 8156 8147 8131 8159 8155 8138 8136 8140 8148 8153 8153 8149 8141 8145 8148 8154 8150 8151 8151 8156 8175 8197 8198 8187 8170 8182 8191 8209 8186 8202 8211 8212 8209 8209 8210 8210 8210 8212 8207 8209 8210 8209 8206 8205 8204 8207 8206 8205 8206 8205 8202 8200 8198 
8236 8232 8233 8233 8232 8230 8234 8230 8230 8224 8224 8230 8228 8226 8223 8228 8225 8223 8225 8223 8221 8212 8187 8178 8199 8204 8154 8146 8139 8138 8148 8156 8139 8137 8145 8153 8147 8147 8146 8148 8152 8170 8159 8152 8154 8155 8156 8157 8166 8194 8180 8161 8174 8196 8205 8196 8200 8209 8209 8209 8210 8208 8211 8213 8211 8209 8208 8206 8207 8207 8204 8206 8206 8206 8204 8205 8201 8201 8198 8194 
8241 8231 8236 8232 8230 8234 8235 8231 8232 8226 8225 8233 8229 8227 8228 8225 8226 8222 8219 8224 8221 8210 8212 8215 8220 8200 8142 8142 8158 8161 8155 8157 8145 8148 8155 8150 8140 8148 8148 8152 8154 8159 8159 8155 8154 8157 8158 8160 8157 8185 8166 8164 8170 8191 8205 8203 8203 8209 8209 8210 8211 8212 8209 8209 8210 8208 8209 8210 8206 8206 8203 8203 8203 8205 8205 8203 8200 8200 8197 8196 
8237 8228 8237 8234 8236 8232 8234 8232 8232 8229 8230 8233 8226 8225 8229 8225 8221 8219 8219 8220 8219 8219 8219 8216 8216 8174 8144 8154 8165 8169 8158 8136 8131 8146 8151 8141 8140 8155 8154 8151 8158 8155 8153 8155 8153 8155 8158 8153 8152 8166 8165 8169 8172 8182 8195 8200 8204 8208 8207 8208 8207 8213 8212 8210 8210 8208 8211 8209 8206 8206 8207 8201 8204 8204 8201 8204 8201 8196 8193 8191 
8237 8231 8238 8235 8237 8234 8234 8233 8228 8230 8228 8229 8224 8223 8225 8224 8221 8217 8221 8221 8220 8218 8217 8213 8182 8153 8148 8161 8165 8188 8180 8149 8128 8131 8142 8141 8139 8153 8153 8148 8152 8160 8158 8155 8153 8156 8158 8158 8154 8167 8168 8172 8174 8180 8190 8196 8203 8210 8208 8209 8210 8210 8214 8209 8207 8210 8209 8211 8207 8207 8205 8204 8205 8203 8205 8206 8200 8195 8193 8192 
8235 8235 8243 8236 8235 8236 8233 8231 8228 8227 8225 8226 8224 8221 8220 8222 8218 8218 8218 8222 8217 8215 8211 8180 8157 8152 8148 8155 8162 8198 8181 8162 8139 8127 8148 8143 8142 8148 8151 8154 8159 8160 8155 8155 8156 8158 8158 8156 8158 8167 8170 8172 8177 8179 8188 8201 8201 8208 8211 8210 8213 8210 8212 8211 8212 8209 8211 8211 8209 8207 8206 8204 8205 8203 8207 8203 8199 8198 8191 8191 
8238 8232 8240 8231 8234 8235 8233 8230 8226 8225 8224 8225 8223 8220 8225 8224 8222 8222 8221 8225 8218 8214 8182 8143 8142 8142 8144 8154 8159 8195 8188 8163 8147 8138 8136 8139 8144 8162 8158 8160 8161 8161 8153 8157 8160 8162 8158 8158 8166 8165 8170 8172 8176 8177 8185 8194 8202 8203 8210 8212 8212 8213 8216 8211 8214 8212 8212 8211 8209 8210 8206 8206 8205 8206 8206 8205 8200 8193 8193 8191 
8239 8231 8241 8228 8232 8234 8229 8229 8226 8226 8226 8225 8224 8224 8226 8227 8222 8224 8221 8224 8221 8205 8149 8140 8145 8142 8143 8150 8154 8173 8166 8153 8151 8143 8142 8140 8146 8165 8160 8165 8166 8163 8154 8155 8174 8160 8157 8158 8166 8169 8170 8174 8175 8173 8182 8192 8202 8196 8208 8213 8214 8213 8216 8216 8214 8214 8211 8212 8209 8208 8209 8207 8207 8205 8205 8205 8201 8200 8197 8194 
8238 8232 8236 8230 8228 8232 8230 8229 8227 8228 8226 8229 8227 8229 8225 8224 8224 8221 8222 8223 8219 8188 8145 8141 8144 8142 8143 8148 8151 8154 8154 8153 8153 8150 8144 8140 8145 8150 8158 8162 8159 8152 8154 8158 8171 8165 8158 8163 8166 8168 8171 8176 8177 8173 8181 8185 8191 8194 8205 8215 8216 8217 8218 8215 8216 8213 8213 8209 8208 8208 8211 8205 8207 8203 8207 8203 8204 8201 8197 8195 
8237 8231 8239 8231 8229 8230 8228 8226 8227 8228 8228 8229 8230 8232 8227 8227 8224 8223 8220 8222 8218 8178 8142 8141 8145 8138 8143 8148 8143 8151 8152 8158 8161 8154 8144 8146 8163 8149 8150 8155 8149 8150 8152 8158 8164 8180 8159 8168 8167 8167 8173 8176 8180 8179 8177 8180 8184 8189 8203 8214 8215 8217 8219 8219 8221 8215 8213 8209 8207 8208 8210 8206 8210 8206 8207 8208 8203 8200 8197 8197 
8239 8235 8237 8232 8231 8228 8229 8225 8227 8229 8226 8227 8229 8230 8229 8229 8226 8226 8222 8223 8215 8179 8144 8143 8144 8142 8145 8149 8141 8145 8156 8169 8168 8159 8148 8175 8182 8150 8144 8143 8147 8150 8150 8152 8162 8176 8178 8173 8169 8169 8173 8177 8185 8182 8181 8179 8183 8184 8205 8215 8216 8218 8216 8217 8219 8217 8210 8211 8209 8208 8211 8209 8212 8209 8206 8209 8206 8202 8198 8198 
8243 8232 8238 8234 8231 8232 8232 8228 8228 8231 8228 8230 8231 8231 8229 8231 8233 8226 8223 8224 8218 8185 8147 8142 8142 8150 8150 8150 8141 8143 8156 8169 8170 8161 8153 8185 8192 8154 8149 8146 8152 8155 8152 8159 8164 8167 8169 8172 8169 8172 8172 8181 8183 8182 8182 8177 8180 8191 8211 8216 8213 8215 8220 8218 8219 8213 8213 8210 8211 8209 8211 8210 8212 8210 8210 8205 8209 8206 8202 8198 
8240 8237 8234 8238 8236 8236 8238 8237 8233 8232 8229 8234 8232 8234 8231 8236 8234 8230 8224 8223 8224 8210 8164 8144 8143 8162 8188 8176 8149 8147 8155 8166 8171 8167 8156 8182 8196 8162 8151 8148 8157 8153 8156 8161 8165 8168 8168 8168 8169 8170 8170 8179 8185 8187 8185 8178 8177 8200 8214 8215 8213 8212 8215 8216 8215 8213 8214 8211 8210 8211 8213 8209 8211 8211 8209 8212 8208 8205 8201 8202 
8245 8237 8240 8241 8238 8240 8238 8240 8237 8241 8237 8235 8238 8236 8235 8236 8233 8230 8227 8227 8227 8224 8180 8144 8146 8165 8206 8208 8188 8168 8157 8164 8172 8174 8165 8171 8203 8177 8152 8155 8159 8154 8161 8163 8163 8168 8169 8170 8166 8173 8173 8184 8189 8189 8189 8183 8193 8209 8208 8212 8215 8213 8212 8213 8214 8213 8210 8210 8211 8210 8210 8213 8212 8214 8212 8213 8211 8210 8203 8204 
8245 8237 8243 8239 8238 8239 8243 8240 8241 8236 8236 8238 8240 8232 8235 8236 8235 8230 8229 8230 8229 8228 8194 8144 8151 8177 8186 8184 8181 8176 8162 8169 8177 8179 8175 8158 8199 8200 8162 8177 8165 8161 8166 8165 8163 8170 8170 8170 8170 8170 8174 8185 8188 8193 8194 8211 8228 8218 8211 8210 8209 8211 8212 8212 8211 8212 8212 8211 8210 8212 8212 8215 8214 8216 8215 8216 8214 8211 8207 8208 
8243 8233 8242 8239 8239 8242 8244 8237 8243 8237 8236 8241 8236 8239 8234 8236 8234 8231 8231 8233 8230 8225 8198 8170 8171 8177 8177 8182 8185 8189 8179 8167 8180 8194 8199 8165 8189 8215 8169 8167 8165 8169 8169 8166 8165 8166 8172 8176 8175 8180 8176 8183 8194 8206 8225 8235 8240 8228 8210 8209 8209 8210 8213 8210 8210 8209 8211 8213 8214 8213 8213 8213 8215 8215 8217 8218 8213 8214 8207 8206 
8242 8232 8241 8240 8241 8241 8245 8236 8238 8236 8239 8237 8237 8240 8237 8238 8234 8235 8234 8232 8229 8225 8192 8181 8184 8187 8184 8194 8209 8218 8215 8185 8198 8212 8227 8205 8165 8208 8171 8166 8171 8173 8168 8169 8173 8171 8176 8173 8181 8236 8212 8190 8221 8252 8251 8243 8233 8215 8210 8206 8209 8210 8213 8209 8210 8207 8212 8213 8213 8215 8214 8213 8216 8218 8220 8217 8217 8216 8212 8211 
8240 8236 8242 8243 8240 8243 8241 8243 8237 8236 8238 8239 8239 8241 8239 8235 8235 8234 8234 8235 8231 8228 8209 8189 8198 8209 8215 8221 8228 8240 8228 8206 8203 8213 8209 8210 8179 8171 8171 8171 8172 8173 8169 8174 8174 8177 8176 8179 8181 8222 8254 8212 8244 8245 8239 8226 8224 8209 8205 8206 8208 8209 8212 8208 8206 8208 8212 8211 8213 8213 8216 8214 8215 8216 8217 8218 8216 8217 8213 8212 
8243 8239 8248 8247 8241 8240 8241 8251 8242 8239 8236 8233 8233 8240 8236 8236 8236 8237 8239 8234 8232 8232 8219 8191 8193 8202 8220 8233 8234 8227 8215 8206 8209 8212 8206 8199 8197 8184 8183 8182 8183 8182 8184 8187 8192 8192 8194 8197 8199 8204 8217 8220 8221 8224 8224 8220 8218 8208 8202 8209 8207 8208 8208 8208 8207 8205 8208 8212 8216 8214 8214 8212 8215 8214 8216 8218 8216 8214 8212 8210 
8241 8238 8247 8246 8243 8246 8245 8248 8239 8239 8233 8239 8239 8239 8237 8238 8236 8237 8236 8235 8233 8236 8226 8202 8193 8197 8210 8222 8230 8232 8230 8217 8212 8214 8215 8212 8214 8216 8210 8208 8213 8213 8215 8221 8221 8214 8212 8209 8207 8210 8214 8220 8220 8223 8224 8222 8218 8207 8204 8204 8207 8208 8210 8207 8205 8207 8210 8211 8211 8210 8215 8215 8217 8216 8215 8218 8214 8215 8212 8213 
8243 8246 8251 8248 8241 8245 8242 8245 8234 8238 8238 8239 8238 8240 8238 8236 8236 8236 8236 8234 8231 8236 8235 8213 8205 8202 8213 8222 8228 8234 8233 8224 8222 8226 8220 8221 8224 8226 8221 8219 8220 8224 8228 8227 8222 8219 8218 8217 8216 8215 8222 8227 8228 8234 8239 8232 8210 8204 8203 8204 8205 8209 8208 8208 8207 8207 8210 8210 8208 8213 8216 8214 8214 8214 8214 8213 8211 8212 8210 8209 
8251 8243 8254 8242 8236 8242 8249 8242 8236 8243 8242 8239 8242 8241 8240 8239 8240 8236 8233 8237 8236 8238 8237 8232 8216 8210 8219 8229 8231 8235 8242 8242 8234 8235 8234 8229 8234 8235 8232 8228 8233 8237 8241 8236 8233 8229 8225 8224 8221 8222 8232 8239 8245 8262 8255 8223 8203 8204 8201 8204 8208 8203 8207 8212 8211 8206 8210 8212 8210 8212 8213 8215 8213 8215 8212 8212 8212 8212 8212 8215 
8245 8241 8251 8241 8239 8241 8245 8236 8239 8241 8240 8238 8240 8238 8240 8235 8238 8236 8235 8238 8238 8237 8237 8235 8224 8201 8213 8226 8227 8234 8247 8254 8248 8246 8246 8241 8240 8245 8241 8240 8240 8244 8249 8241 8235 8233 8229 8228 8225 8228 8234 8250 8261 8267 8247 8213 8203 8202 8202 8203 8203 8205 8210 8208 8211 8207 8210 8210 8211 8212 8210 8212 8214 8211 8211 8210 8211 8210 8208 8212 
8247 8242 8248 8235 8238 8237 8243 8236 8240 8239 8240 8236 8235 8238 8237 8239 8233 8237 8238 8239 8235 8235 8234 8235 8227 8197 8203 8215 8222 8226 8237 8250 8260 8256 8250 8248 8250 8249 8249 8244 8243 8241 8240 8233 8232 8229 8232 8229 8227 8228 8232 8239 8245 8242 8229 8209 8203 8203 8203 8203 8202 8203 8209 8207 8209 8209 8210 8210 8214 8211 8212 8210 8210 8210 8208 8210 8209 8210 8211 8218 
8253 8235 8238 8235 8235 8236 8231 8240 8238 8238 8237 8234 8229 8240 8235 8231 8230 8232 8235 8237 8238 8231 8230 8234 8234 8202 8197 8205 8208 8211 8219 8232 8246 8252 8247 8244 8240 8247 8243 8238 8236 8231 8228 8223 8218 8222 8218 8219 8216 8222 8224 8230 8233 8232 8222 8207 8205 8204 8203 8205 8206 8205 8210 8208 8211 8211 8216 8214 8218 8214 8214 8211 8212 8209 8210 8213 8208 8211 8218 8221 
8256 8237 8237 8236 8228 8232 8227 8235 8235 8234 8235 8231 8228 8232 8237 8229 8231 8227 8228 8235 8233 8231 8228 8231 8233 8206 8200 8202 8203 8199 8207 8217 8231 8235 8234 8230 8224 8229 8226 8222 8226 8224 8218 8216 8215 8216 8215 8220 8218 8223 8228 8235 8237 8236 8229 8216 8213 8215 8221 8223 8219 8217 8216 8225 8228 8225 8228 8234 8232 8230 8229 8228 8225 8222 8224 8224 8208 8226 8230 8221 


