P2
80 60
8231
8173 8174 8181 8177 8179 8180 8178 8177 8180 8177 8177 8178 8180 8178 8183 8182 8180 8182 8182 8187 8190 8189 8194 8194 8195 8194 8193 8193 8192 8189 8191 8190 8195 8194 8197 8198 8198 8197 8197 8195 8197 8196 8198 8196 8195 8192 8194 8199 8197 8194 8192 8193 8194 8189 8188 8186 8187 8190 8190 8191 8190 8195 8196 8193 8197 8200 8198 8208 8205 8208 8205 8204 8207 8207 8204 8206 8203 8207 8204 8196 
8172 8175 8177 8177 8180 8180 8183 8181 8177 8179 8179 8178 8179 8181 8181 8180 8181 8183 8184 8187 8189 8189 8191 8191 8193 8195 8195 8193 8192 8192 8190 8191 8195 8194 8195 8199 8194 8195 8195 8196 8196 8197 8195 8196 8195 8191 8193 8195 8199 8195 8193 8192 8190 8187 8186 8187 8187 8190 8193 8191 8189 8192 8196 8195 8196 8199 8204 8207 8207 8207 8206 8203 8208 8205 8204 8207 8206 8205 8198 8199 
8167 8171 8177 8178 8180 8179 8182 8182 8178 8179 8175 8175 8177 8180 8181 8181 8181 8184 8183 8188 8189 8188 8188 8191 8195 8191 8195 8194 8190 8192 8191 8189 8195 8200 8194 8195 8196 8198 8196 8198 8197 8195 8195 8192 8194 8193 8195 8197 8197 8193 8193 8193 8192 8189 8185 8187 8186 8190 8193 8194 8189 8193 8195 8193 8192 8196 8202 8205 8204 8206 8206 8206 8203 8205 8203 8205 8203 8206 8198 8200 
8172 8168 8179 8177 8182 8180 8179 8179 8180 8177 8174 8175 8177 8179 8180 8180 8184 8183 8187 8184 8187 8188 8189 8193 8192 8191 8193 8191 8189 8192 8190 8189 8197 8197 8199 8198 8199 8199 8195 8198 8195 8195 8194 8193 8193 8193 8194 8197 8196 8192 8193 8191 8187 8188 8187 8189 8188 8190 8192 8192 8192 8194 8193 8192 8191 8193 8197 8201 8202 8204 8206 8207 8206 8203 8206 8205 8203 8201 8195 8201 
8171 8172 8178 8176 8182 8181 8185 8181 8179 8175 8174 8173 8174 8179 8180 8180 8183 8185 8185 8185 8187 8190 8189 8193 8192 8194 8192 8191 8189 8191 8190 8193 8198 8201 8197 8200 8199 8196 8196 8199 8195 8199 8194 8194 8194 8191 8193 8194 8196 8192 8192 8188 8192 8193 8188 8189 8191 8191 8192 8194 8190 8194 8197 8194 8192 8195 8197 8202 8204 8207 8205 8209 8204 8206 8204 8206 8203 8200 8195 8199 
8170 8176 8177 8177 8181 8183 8183 8180 8182 8177 8173 8175 8176 8175 8178 8179 8181 8183 8186 8187 8188 8190 8192 8192 8188 8191 8193 8189 8189 8190 8186 8192 8195 8199 8197 8198 8196 8195 8193 8196 8195 8196 8194 8193 8193 8193 8193 8194 8193 8191 8189 8190 8191 8190 8188 8188 8191 8189 8191 8190 8191 8194 8194 8193 8190 8194 8197 8199 8199 8202 8201 8200 8207 8202 8200 8201 8204 8202 8195 8202 
8174 8171 8179 8177 8183 8184 8182 8185 8178 8177 8175 8176 8179 8179 8179 8180 8181 8184 8185 8186 8191 8192 8191 8194 8189 8190 8191 8190 8189 8190 8188 8193 8198 8198 8200 8200 8198 8199 8196 8197 8195 8199 8196 8194 8197 8198 8194 8196 8194 8193 8191 8192 8189 8187 8188 8187 8191 8191 8193 8190 8190 8191 8192 8193 8194 8193 8198 8199 8196 8201 8201 8203 8207 8203 8200 8204 8200 8199 8195 8199 
8171 8177 8180 8177 8181 8183 8185 8181 8184 8177 8175 8175 8178 8181 8180 8180 8179 8185 8185 8185 8186 8190 8190 8193 8195 8190 8190 8187 8188 8192 8188 8190 8195 8200 8195 8198 8199 8197 8195 8196 8195 8198 8196 8195 8196 8195 8196 8199 8197 8190 8189 8191 8191 8189 8184 8188 8188 8191 8193 8193 8190 8191 8191 8189 8190 8194 8195 8196 8194 8200 8200 8201 8207 8202 8201 8204 8202 8202 8198 8201 
8172 8178 8181 8178 8182 8183 8182 8182 8182 8177 8174 8176 8178 8180 8178 8183 8183 8181 8183 8185 8188 8188 8191 8192 8190 8191 8192 8192 8188 8190 8189 8190 8195 8197 8194 8195 8193 8197 8195 8197 8197 8194 8194 8194 8195 8195 8195 8199 8197 8193 8192 8189 8194 8189 8187 8187 8186 8190 8189 8193 8191 8194 8189 8188 8188 8191 8194 8195 8197 8197 8196 8196 8203 8200 8198 8198 8199 8202 8197 8194 
8173 8174 8177 8179 8182 8181 8185 8182 8183 8179 8173 8176 8175 8178 8175 8178 8181 8186 8183 8184 8187 8187 8189 8191 8190 8187 8191 8190 8187 8190 8190 8189 8193 8194 8196 8194 8194 8195 8192 8197 8196 8195 8194 8194 8195 8196 8194 8198 8196 8193 8190 8192 8191 8189 8188 8188 8190 8188 8191 8194 8190 8193 8188 8191 8191 8192 8194 8194 8192 8198 8197 8194 8199 8197 8199 8199 8200 8199 8198 8201 
8172 8174 8183 8179 8183 8179 8182 8180 8178 8179 8175 8177 8177 8176 8179 8180 8179 8182 8186 8184 8187 8188 8191 8193 8190 8191 8190 8191 8191 8192 8189 8189 8195 8195 8190 8194 8194 8195 8193 8194 8194 8197 8194 8194 8195 8193 8196 8199 8195 8191 8190 8188 8192 8189 8189 8186 8188 8186 8191 8193 8191 8193 8189 8190 8189 8192 8193 8194 8193 8195 8195 8194 8196 8198 8197 8200 8198 8201 8191 8197 
8169 8178 8182 8182 8178 8178 8179 8178 8179 8179 8172 8174 8177 8180 8176 8181 8183 8183 8185 8185 8185 8189 8192 8192 8192 8191 8192 8191 8190 8189 8188 8189 8192 8191 8193 8189 8193 8195 8194 8193 8191 8197 8194 8193 8192 8192 8194 8197 8194 8192 8192 8189 8194 8191 8188 8186 8190 8190 8191 8191 8191 8195 8192 8191 8190 8192 8191 8192 8193 8194 8195 8194 8195 8194 8193 8199 8196 8198 8191 8193 
8171 8178 8180 8182 8179 8176 8179 8182 8182 8180 8175 8176 8175 8177 8181 8181 8183 8188 8187 8187 8189 8189 8190 8191 8192 8188 8191 8190 8189 8188 8186 8187 8193 8196 8192 8191 8195 8193 8191 8191 8193 8193 8192 8195 8195 8194 8199 8197 8196 8194 8191 8190 8192 8192 8187 8189 8188 8191 8192 8190 8189 8194 8187 8190 8189 8191 8194 8192 8192 8193 8194 8193 8194 8197 8199 8197 8196 8198 8190 8183 
8172 8180 8182 8182 8181 8179 8182 8182 8181 8179 8177 8178 8177 8179 8180 8183 8183 8184 8183 8187 8187 8190 8189 8188 8187 8190 8190 8187 8186 8187 8189 8187 8190 8192 8195 8193 8194 8194 8192 8192 8192 8194 8193 8194 8194 8195 8195 8196 8196 8192 8192 8192 8192 8192 8191 8188 8192 8189 8192 8191 8191 8191 8190 8191 8188 8192 8191 8195 8195 8193 8192 8193 8195 8193 8193 8193 8194 8199 8187 8189 
8175 8178 8183 8182 8185 8185 8182 8181 8185 8180 8178 8180 8181 8178 8180 8184 8185 8186 8188 8187 8191 8187 8188 8191 8192 8190 8190 8189 8188 8188 8187 8185 8190 8192 8190 8195 8193 8194 8191 8191 8192 8193 8194 8193 8189 8194 8193 8197 8197 8192 8192 8190 8193 8190 8190 8186 8189 8191 8194 8189 8189 8192 8188 8189 8188 8190 8194 8192 8194 8195 8190 8191 8192 8190 8195 8193 8194 8194 8185 8190 
8177 8176 8182 8183 8184 8182 8184 8184 8180 8180 8180 8180 8180 8184 8183 8180 8184 8185 8187 8185 8192 8186 8186 8190 8188 8191 8192 8191 8187 8188 8183 8185 8191 8193 8188 8193 8191 8194 8191 8194 8192 8192 8192 8195 8192 8193 8193 8196 8193 8192 8192 8192 8192 8187 8188 8186 8190 8191 8192 8190 8189 8189 8192 8190 8190 8191 8194 8194 8194 8192 8193 8194 8192 8191 8193 8195 8193 8194 8188 8193 
8176 8177 8182 8182 8180 8180 8183 8183 8182 8182 8179 8181 8185 8187 8184 8182 8185 8186 8187 8187 8188 8184 8179 8176 8168 8169 8176 8187 8181 8170 8162 8167 8172 8169 8168 8172 8171 8181 8188 8189 8190 8191 8191 8192 8190 8190 8194 8197 8194 8192 8189 8191 8192 8188 8186 8187 8188 8189 8190 8191 8190 8192 8192 8189 8189 8192 8190 8194 8190 8194 8190 8191 8192 8191 8192 8193 8195 8195 8187 8187 
8176 8177 8180 8178 8183 8180 8183 8181 8180 8184 8181 8182 8182 8183 8185 8186 8186 8184 8185 8183 8176 8163 8161 8157 8156 8158 8179 8170 8156 8159 8163 8169 8168 8158 8156 8155 8155 8155 8165 8184 8181 8178 8181 8186 8189 8187 8190 8194 8192 8190 8187 8190 8190 8188 8187 8184 8188 8190 8191 8190 8190 8191 8191 8190 8187 8191 8193 8192 8189 8191 8191 8194 8193 8189 8193 8192 8195 8191 8187 8188 
8179 8180 8182 8181 8183 8181 8189 8183 8181 8184 8180 8180 8180 8182 8184 8184 8186 8183 8186 8180 8167 8156 8154 8156 8156 8157 8176 8163 8158 8181 8184 8182 8169 8158 8157 8156 8157 8153 8160 8158 8153 8156 8152 8163 8182 8187 8191 8195 8195 8191 8186 8189 8193 8192 8187 8187 8189 8189 8190 8189 8191 8193 8190 8190 8186 8187 8191 8194 8194 8192 8190 8190 8190 8189 8193 8193 8193 8191 8184 8185 
8173 8176 8182 8183 8182 8178 8182 8180 8184 8183 8183 8187 8183 8184 8183 8183 8183 8183 8185 8184 8185 8180 8169 8161 8160 8151 8154 8156 8162 8183 8179 8172 8165 8162 8161 8160 8159 8160 8157 8155 8153 8154 8155 8151 8163 8184 8189 8194 8192 8190 8186 8188 8189 8188 8185 8188 8187 8191 8187 8188 8187 8189 8190 8189 8187 8190 8190 8193 8193 8190 8189 8189 8191 8189 8193 8194 8191 8189 8185 8191 
8176 8179 8180 8186 8183 8183 8181 8184 8183 8182 8185 8185 8184 8182 8181 8183 8185 8184 8183 8185 8183 8183 8160 8150 8152 8153 8152 8156 8180 8174 8158 8154 8160 8162 8157 8162 8161 8156 8176 8175 8152 8152 8155 8153 8156 8180 8189 8191 8191 8188 8185 8185 8188 8188 8184 8186 8186 8188 8190 8188 8188 8190 8190 8190 8187 8190 8188 8191 8193 8192 8189 8188 8194 8192 8191 8192 8191 8190 8189 8186 
8173 8178 8183 8183 8182 8184 8184 8183 8184 8183 8182 8186 8186 8181 8185 8180 8184 8184 8183 8183 8184 8183 8159 8154 8149 8153 8162 8157 8179 8167 8169 8156 8160 8161 8162 8160 8172 8170 8185 8186 8170 8153 8152 8151 8154 8181 8186 8178 8172 8179 8183 8187 8188 8187 8187 8187 8186 8189 8189 8190 8186 8190 8190 8190 8188 8191 8191 8192 8191 8192 8190 8188 8193 8188 8191 8193 8190 8189 8182 8186 
8174 8181 8183 8183 8181 8181 8180 8182 8179 8182 8178 8185 8185 8183 8185 8183 8186 8185 8184 8183 8187 8185 8171 8155 8150 8156 8167 8158 8160 8173 8176 8157 8159 8159 8157 8165 8164 8164 8179 8188 8178 8160 8155 8152 8156 8187 8183 8160 8154 8171 8184 8185 8189 8186 8186 8185 8186 8189 8187 8187 8189 8193 8189 8189 8187 8189 8192 8192 8191 8190 8187 8189 8193 8188 8188 8188 8191 8187 8184 8182 
8176 8180 8183 8182 8183 8181 8180 8180 8180 8182 8181 8184 8183 8183 8186 8184 8185 8183 8184 8186 8185 8182 8175 8152 8154 8152 8152 8152 8151 8156 8164 8157 8159 8159 8163 8165 8160 8168 8172 8166 8155 8156 8153 8152 8162 8165 8157 8152 8161 8180 8188 8187 8188 8187 8185 8185 8188 8190 8187 8190 8188 8190 8193 8188 8188 8189 8191 8192 8189 8189 8193 8191 8194 8189 8191 8188 8190 8187 8183 8187 
8177 8181 8183 8183 8186 8187 8182 8180 8180 8181 8182 8184 8186 8184 8186 8186 8186 8186 8187 8186 8179 8161 8158 8157 8161 8150 8153 8152 8148 8149 8164 8158 8161 8161 8159 8158 8163 8172 8170 8163 8152 8153 8151 8158 8175 8166 8150 8160 8181 8186 8187 8187 8187 8188 8188 8189 8188 8189 8187 8191 8187 8191 8193 8191 8189 8192 8190 8191 8189 8194 8191 8186 8193 8188 8190 8191 8191 8189 8180 8183 
8178 8182 8187 8182 8183 8185 8186 8183 8183 8180 8183 8181 8184 8185 8186 8184 8186 8188 8185 8177 8160 8155 8166 8161 8158 8157 8154 8154 8152 8164 8155 8158 8165 8161 8160 8160 8164 8162 8160 8156 8152 8154 8156 8153 8175 8167 8162 8174 8189 8188 8185 8189 8187 8187 8185 8186 8186 8188 8191 8192 8187 8193 8194 8189 8190 8191 8190 8191 8189 8187 8190 8190 8189 8192 8188 8189 8191 8188 8180 8184 
8178 8179 8185 8183 8184 8182 8182 8183 8180 8182 8180 8182 8183 8183 8189 8185 8184 8185 8177 8161 8158 8170 8159 8159 8158 8157 8155 8153 8156 8159 8156 8159 8162 8164 8160 8160 8164 8155 8153 8155 8152 8155 8155 8156 8153 8156 8171 8168 8175 8184 8186 8187 8191 8189 8188 8186 8188 8186 8190 8192 8190 8193 8191 8190 8187 8191 8188 8193 8189 8187 8188 8184 8192 8192 8191 8191 8190 8190 8179 8179 
8177 8181 8187 8186 8186 8183 8186 8185 8181 8182 8179 8183 8185 8186 8185 8185 8185 8185 8164 8155 8170 8164 8160 8160 8156 8160 8173 8164 8164 8159 8165 8163 8163 8167 8160 8155 8158 8153 8150 8151 8153 8156 8156 8163 8160 8151 8152 8159 8157 8164 8175 8186 8189 8187 8186 8184 8185 8189 8190 8190 8192 8192 8189 8189 8187 8191 8189 8192 8190 8187 8189 8188 8191 8187 8192 8192 8187 8184 8181 8180 
8177 8182 8184 8185 8188 8182 8184 8184 8183 8181 8184 8180 8184 8184 8184 8183 8185 8169 8154 8155 8157 8157 8157 8164 8161 8162 8181 8183 8179 8179 8165 8164 8166 8161 8151 8154 8161 8159 8153 8152 8152 8156 8154 8157 8151 8149 8158 8176 8164 8154 8164 8158 8171 8179 8182 8184 8185 8187 8186 8192 8190 8191 8194 8187 8187 8190 8187 8189 8189 8187 8188 8187 8188 8189 8189 8190 8188 8186 8182 8182 
8181 8178 8184 8185 8186 8188 8185 8183 8181 8184 8183 8182 8183 8183 8183 8182 8177 8159 8155 8150 8156 8156 8159 8165 8160 8161 8161 8163 8170 8177 8178 8166 8161 8155 8153 8156 8179 8168 8152 8153 8156 8155 8156 8152 8154 8150 8154 8161 8161 8163 8159 8157 8160 8154 8165 8174 8182 8183 8188 8188 8187 8192 8189 8188 8187 8187 8188 8189 8188 8187 8186 8185 8188 8187 8190 8191 8188 8191 8181 8184 
8180 8184 8188 8185 8190 8182 8185 8187 8186 8182 8180 8179 8182 8182 8185 8181 8168 8157 8154 8147 8154 8154 8162 8165 8161 8159 8158 8156 8156 8160 8162 8158 8156 8154 8151 8152 8169 8159 8154 8153 8156 8158 8159 8156 8158 8152 8154 8160 8157 8163 8177 8174 8162 8156 8155 8154 8156 8159 8167 8186 8187 8192 8191 8187 8187 8188 8188 8191 8187 8185 8190 8186 8191 8187 8191 8190 8190 8187 8183 8186 
8181 8184 8188 8187 8187 8185 8184 8186 8185 8182 8183 8185 8186 8183 8183 8179 8162 8152 8155 8152 8155 8157 8162 8165 8162 8156 8156 8158 8157 8162 8164 8157 8157 8154 8152 8151 8152 8152 8151 8155 8155 8158 8153 8158 8158 8154 8157 8161 8161 8156 8159 8167 8180 8173 8155 8154 8153 8156 8155 8170 8186 8188 8189 8188 8187 8187 8190 8189 8189 8189 8190 8185 8189 8187 8188 8191 8190 8191 8185 8185 
8183 8183 8190 8188 8191 8190 8187 8184 8188 8187 8187 8184 8184 8185 8184 8168 8154 8154 8153 8154 8152 8156 8160 8165 8161 8157 8157 8158 8156 8168 8180 8174 8159 8155 8154 8152 8151 8150 8154 8154 8155 8158 8151 8159 8157 8157 8158 8161 8161 8157 8156 8158 8164 8177 8178 8170 8158 8157 8156 8162 8182 8191 8188 8187 8185 8189 8191 8187 8189 8189 8187 8187 8194 8189 8189 8191 8190 8190 8183 8186 
8184 8184 8192 8190 8190 8183 8189 8187 8187 8188 8186 8189 8184 8181 8186 8163 8153 8153 8155 8152 8153 8153 8162 8162 8159 8159 8159 8158 8159 8172 8176 8178 8168 8154 8155 8153 8152 8152 8156 8151 8152 8156 8155 8155 8161 8157 8158 8161 8162 8156 8156 8159 8159 8166 8182 8185 8178 8157 8159 8159 8172 8190 8189 8188 8187 8188 8189 8189 8189 8188 8188 8188 8193 8188 8187 8192 8192 8193 8184 8189 
8187 8188 8193 8190 8189 8190 8191 8188 8189 8186 8188 8188 8186 8182 8186 8173 8155 8153 8156 8154 8157 8153 8160 8163 8159 8157 8157 8158 8160 8171 8180 8185 8181 8157 8153 8157 8153 8152 8152 8152 8152 8152 8156 8153 8157 8155 8156 8161 8161 8158 8155 8157 8158 8162 8178 8182 8185 8165 8159 8160 8169 8185 8189 8187 8184 8189 8191 8189 8188 8189 8189 8193 8190 8187 8190 8189 8192 8190 8185 8184 
8186 8189 8193 8190 8188 8192 8189 8189 8187 8186 8184 8184 8188 8183 8186 8178 8158 8154 8157 8153 8155 8155 8154 8161 8156 8159 8157 8157 8159 8173 8180 8179 8168 8155 8156 8155 8151 8149 8151 8152 8149 8152 8153 8151 8153 8151 8158 8159 8157 8158 8155 8154 8157 8159 8180 8183 8187 8179 8162 8159 8164 8187 8186 8187 8188 8187 8186 8188 8187 8186 8192 8190 8190 8189 8190 8191 8192 8189 8183 8186 
8186 8186 8191 8190 8191 8187 8192 8194 8189 8184 8185 8187 8184 8187 8185 8184 8168 8155 8155 8154 8153 8152 8155 8160 8158 8159 8158 8158 8158 8181 8182 8163 8158 8154 8155 8155 8154 8152 8150 8156 8153 8154 8154 8154 8154 8152 8154 8164 8160 8154 8156 8157 8159 8157 8179 8187 8187 8185 8173 8161 8163 8182 8188 8188 8184 8186 8187 8188 8187 8188 8186 8189 8190 8190 8190 8192 8190 8190 8185 8185 
8187 8189 8192 8192 8191 8189 8193 8193 8187 8187 8188 8186 8187 8184 8186 8183 8184 8165 8154 8152 8155 8154 8155 8161 8160 8161 8159 8160 8157 8179 8178 8159 8156 8156 8157 8156 8153 8153 8150 8161 8154 8157 8169 8178 8160 8155 8164 8184 8183 8159 8155 8156 8163 8168 8186 8188 8189 8192 8188 8168 8159 8181 8186 8188 8187 8192 8188 8190 8189 8186 8190 8189 8191 8192 8190 8193 8193 8194 8184 8183 
8186 8189 8196 8193 8191 8191 8193 8190 8188 8186 8183 8190 8184 8186 8185 8183 8185 8180 8160 8153 8152 8156 8170 8168 8163 8162 8160 8154 8157 8180 8181 8159 8155 8158 8170 8155 8159 8155 8153 8153 8152 8168 8190 8191 8186 8168 8185 8191 8195 8189 8167 8173 8169 8184 8189 8189 8191 8189 8191 8176 8162 8175 8187 8191 8186 8188 8189 8189 8189 8189 8188 8188 8191 8189 8189 8192 8193 8191 8183 8189 
8187 8188 8190 8192 8192 8190 8192 8190 8187 8188 8186 8186 8184 8183 8185 8183 8186 8187 8182 8167 8155 8176 8188 8164 8162 8161 8157 8156 8166 8189 8187 8171 8159 8157 8160 8161 8159 8160 8157 8155 8150 8175 8193 8196 8196 8194 8190 8192 8196 8192 8189 8193 8193 8193 8188 8191 8190 8191 8189 8188 8164 8167 8188 8188 8186 8190 8190 8189 8186 8190 8192 8186 8190 8188 8192 8193 8191 8192 8184 8188 
8188 8187 8193 8191 8190 8189 8191 8189 8185 8189 8185 8185 8189 8185 8184 8184 8186 8189 8188 8180 8173 8189 8188 8168 8165 8163 8164 8170 8188 8190 8186 8185 8172 8156 8159 8162 8159 8158 8157 8160 8153 8174 8191 8197 8197 8195 8192 8196 8194 8194 8189 8194 8195 8194 8193 8191 8192 8193 8191 8193 8170 8164 8177 8188 8187 8188 8190 8190 8187 8186 8189 8191 8187 8191 8193 8196 8189 8193 8187 8188 
8186 8188 8192 8188 8187 8187 8189 8189 8186 8188 8184 8186 8185 8188 8187 8183 8188 8190 8191 8190 8190 8188 8188 8170 8184 8190 8191 8192 8189 8184 8185 8174 8165 8157 8158 8161 8157 8158 8158 8156 8156 8176 8196 8197 8196 8195 8186 8193 8195 8194 8193 8193 8194 8193 8193 8194 8195 8194 8193 8192 8182 8167 8175 8187 8185 8191 8189 8189 8186 8191 8190 8193 8195 8191 8196 8191 8194 8189 8187 8185 
8186 8185 8193 8190 8191 8189 8187 8186 8188 8186 8183 8187 8187 8186 8186 8187 8186 8189 8190 8191 8192 8193 8191 8191 8196 8194 8194 8187 8165 8159 8160 8154 8158 8159 8159 8161 8156 8156 8156 8156 8158 8175 8193 8197 8197 8195 8186 8187 8194 8198 8193 8193 8196 8193 8189 8189 8191 8191 8188 8193 8184 8176 8186 8188 8189 8188 8190 8189 8186 8186 8190 8195 8194 8191 8193 8195 8192 8194 8185 8189 
8187 8188 8189 8188 8188 8189 8188 8190 8186 8189 8186 8188 8190 8189 8189 8190 8189 8190 8190 8193 8190 8192 8192 8196 8195 8195 8186 8161 8158 8159 8156 8153 8156 8159 8164 8161 8158 8158 8159 8158 8159 8167 8186 8194 8197 8195 8187 8175 8190 8193 8191 8192 8194 8191 8193 8190 8194 8192 8195 8192 8188 8179 8187 8190 8185 8190 8188 8192 8189 8188 8188 8188 8192 8191 8191 8193 8192 8192 8188 8187 
8186 8189 8191 8192 8189 8187 8187 8191 8189 8188 8187 8188 8187 8188 8188 8190 8192 8194 8193 8193 8191 8191 8194 8197 8197 8194 8174 8159 8177 8168 8157 8157 8163 8163 8159 8159 8160 8161 8160 8159 8159 8165 8171 8187 8193 8192 8183 8172 8191 8192 8193 8194 8194 8192 8189 8190 8193 8194 8192 8195 8190 8185 8190 8190 8189 8189 8188 8189 8187 8190 8190 8191 8194 8191 8192 8193 8192 8189 8189 8184 
8187 8191 8193 8192 8188 8187 8190 8190 8186 8189 8189 8187 8187 8188 8189 8189 8189 8192 8193 8192 8192 8191 8193 8197 8193 8191 8166 8167 8184 8161 8157 8161 8166 8166 8158 8159 8161 8162 8155 8155 8156 8161 8164 8166 8170 8169 8170 8169 8173 8175 8221 8231 8210 8193 8193 8191 8191 8191 8190 8191 8190 8190 8190 8190 8190 8189 8188 8189 8186 8190 8191 8190 8194 8191 8191 8193 8191 8194 8184 8182 
8186 8189 8191 8191 8187 8189 8191 8192 8189 8190 8191 8190 8191 8189 8193 8191 8190 8191 8193 8190 8192 8192 8192 8194 8187 8182 8162 8165 8167 8160 8155 8161 8168 8165 8162 8163 8163 8162 8153 8150 8157 8159 8162 8165 8168 8168 8164 8168 8166 8171 8202 8215 8189 8175 8182 8191 8189 8190 8191 8194 8189 8195 8191 8188 8187 8190 8186 8191 8189 8190 8191 8190 8192 8193 8190 8194 8193 8193 8185 8185 
8189 8192 8197 8195 8192 8191 8192 8192 8194 8192 8190 8191 8195 8190 8194 8193 8191 8194 8192 8191 8188 8183 8176 8171 8166 8162 8162 8160 8159 8161 8157 8163 8168 8167 8163 8164 8162 8158 8154 8152 8153 8160 8163 8165 8171 8176 8168 8168 8166 8168 8173 8176 8172 8173 8182 8190 8190 8195 8190 8193 8193 8193 8190 8189 8186 8189 8188 8192 8189 8192 8196 8192 8196 8196 8197 8193 8196 8194 8183 8185 
8189 8189 8192 8192 8191 8192 8194 8195 8195 8193 8190 8192 8192 8191 8191 8191 8195 8192 8192 8185 8170 8166 8162 8162 8162 8166 8161 8159 8162 8163 8159 8160 8169 8167 8164 8165 8161 8157 8151 8151 8156 8164 8164 8168 8168 8167 8163 8169 8165 8166 8169 8171 8173 8172 8188 8193 8194 8193 8191 8191 8193 8191 8191 8187 8185 8189 8191 8189 8186 8192 8194 8197 8202 8194 8196 8195 8193 8192 8180 8181 
8187 8191 8196 8194 8193 8193 8194 8193 8193 8191 8190 8189 8194 8192 8192 8192 8192 8192 8196 8183 8168 8165 8162 8163 8159 8163 8163 8160 8162 8160 8156 8160 8170 8170 8169 8167 8161 8156 8151 8155 8155 8169 8171 8174 8180 8181 8185 8182 8173 8171 8166 8167 8170 8173 8186 8192 8193 8189 8193 8195 8190 8192 8192 8189 8185 8187 8187 8189 8188 8194 8198 8197 8196 8195 8196 8196 8193 8191 8181 8185 
8187 8192 8193 8194 8191 8194 8195 8193 8193 8191 8192 8190 8192 8191 8193 8191 8191 8194 8193 8190 8181 8190 8179 8167 8163 8161 8161 8165 8161 8161 8160 8159 8169 8169 8166 8162 8163 8161 8161 8163 8163 8174 8195 8218 8229 8223 8200 8183 8173 8171 8171 8174 8174 8174 8186 8189 8191 8193 8195 8191 8193 8191 8192 8187 8184 8186 8188 8188 8188 8195 8196 8190 8194 8193 8195 8198 8192 8191 8177 8181 
8190 8189 8195 8191 8197 8194 8194 8193 8190 8191 8189 8189 8193 8194 8194 8194 8194 8195 8191 8193 8182 8177 8176 8171 8165 8166 8167 8164 8163 8164 8164 8164 8166 8171 8165 8169 8172 8167 8166 8167 8173 8175 8188 8206 8216 8199 8181 8177 8173 8171 8171 8184 8181 8180 8187 8191 8191 8193 8194 8192 8191 8191 8190 8191 8185 8188 8189 8189 8189 8190 8195 8195 8193 8192 8195 8195 8192 8192 8180 8187 
8186 8194 8196 8194 8195 8196 8191 8193 8193 8191 8189 8192 8192 8191 8194 8195 8193 8194 8191 8194 8184 8169 8167 8174 8167 8171 8169 8167 8166 8165 8166 8166 8171 8171 8168 8173 8174 8172 8173 8174 8173 8180 8179 8189 8190 8180 8176 8179 8175 8173 8175 8192 8189 8193 8193 8189 8194 8193 8191 8196 8193 8195 8186 8189 8189 8187 8190 8190 8189 8191 8195 8195 8197 8193 8195 8191 8189 8191 8184 8184 
8191 8193 8198 8195 8196 8195 8196 8193 8194 8193 8191 8192 8195 8197 8195 8193 8194 8191 8192 8194 8192 8177 8169 8173 8165 8171 8165 8168 8168 8165 8165 8167 8170 8170 8172 8170 8174 8175 8174 8172 8177 8182 8190 8195 8187 8176 8173 8176 8176 8172 8174 8177 8187 8194 8191 8193 8191 8194 8192 8192 8191 8192 8189 8190 8188 8188 8191 8192 8192 8191 8201 8194 8197 8193 8193 8194 8190 8191 8184 8185 
8192 8196 8196 8193 8192 8196 8193 8196 8195 8193 8192 8195 8193 8191 8195 8191 8195 8191 8194 8193 8197 8191 8177 8180 8169 8167 8166 8168 8165 8165 8164 8165 8170 8173 8171 8175 8182 8187 8188 8190 8196 8199 8200 8196 8182 8172 8174 8173 8173 8178 8191 8178 8187 8194 8191 8191 8190 8192 8191 8190 8192 8191 8187 8188 8187 8188 8191 8190 8191 8192 8195 8195 8196 8194 8194 8190 8190 8190 8182 8188 
8193 8196 8200 8195 8196 8195 8192 8189 8193 8191 8192 8193 8193 8190 8190 8189 8192 8192 8192 8194 8198 8195 8183 8184 8169 8166 8163 8164 8161 8165 8163 8166 8167 8172 8173 8188 8209 8216 8214 8210 8198 8186 8174 8175 8172 8169 8168 8174 8172 8189 8204 8178 8186 8198 8192 8191 8190 8194 8195 8193 8191 8190 8190 8188 8189 8190 8191 8192 8190 8192 8195 8192 8197 8191 8193 8191 8187 8191 8180 8182 
8190 8193 8196 8190 8188 8194 8191 8189 8192 8191 8192 8191 8189 8189 8192 8189 8192 8191 8193 8195 8195 8191 8186 8178 8166 8162 8160 8163 8161 8162 8161 8162 8167 8169 8171 8187 8206 8214 8211 8206 8195 8178 8168 8170 8169 8167 8172 8173 8176 8192 8204 8177 8186 8196 8190 8188 8187 8190 8193 8193 8189 8192 8188 8185 8186 8189 8192 8194 8191 8195 8195 8192 8194 8191 8194 8189 8187 8190 8179 8184 
8187 8192 8194 8189 8189 8188 8190 8185 8191 8187 8193 8190 8189 8188 8189 8191 8185 8190 8190 8193 8196 8192 8189 8169 8167 8164 8161 8160 8164 8163 8161 8161 8166 8167 8170 8176 8180 8179 8178 8174 8172 8172 8168 8165 8166 8168 8166 8173 8173 8181 8185 8172 8186 8191 8191 8188 8189 8193 8192 8195 8191 8189 8187 8186 8188 8192 8191 8194 8194 8193 8195 8193 8197 8188 8191 8189 8183 8188 8181 8188 
8188 8188 8189 8185 8186 8186 8188 8188 8184 8186 8184 8186 8187 8188 8188 8185 8188 8188 8188 8189 8193 8191 8187 8173 8163 8166 8162 8161 8163 8160 8161 8161 8164 8169 8168 8166 8167 8168 8164 8168 8165 8168 8170 8166 8170 8166 8168 8172 8175 8176 8170 8171 8187 8196 8190 8189 8190 8194 8195 8198 8193 8189 8189 8190 8193 8192 8193 8194 8193 8196 8196 8195 8196 8191 8190 8192 8186 8186 8186 8188 
8186 8181 8183 8181 8177 8180 8180 8178 8170 8174 8170 8166 8166 8173 8176 8178 8182 8186 8191 8190 8190 8192 8188 8176 8161 8163 8158 8160 8159 8159 8159 8160 8165 8169 8169 8168 8166 8172 8168 8169 8166 8172 8174 8169 8172 8168 8173 8174 8180 8178 8173 8175 8193 8200 8199 8197 8196 8201 8202 8200 8201 8198 8193 8197 8190 8199 8196 8200 8197 8196 8199 8192 8195 8189 8191 8190 8189 8189 8186 8186 


