P2
80 60
8224
8168 8166 8171 8171 8172 8176 8176 8175 8179 8180 8180 8176 8178 8181 8180 8179 8182 8181 8181 8182 8184 8187 8184 8185 8191 8195 8195 8199 8197 8198 8197 8198 8195 8199 8203 8205 8203 8203 8207 8208 8210 8209 8209 8209 8211 8209 8208 8208 8208 8209 8204 8205 8203 8202 8202 8204 8200 8197 8198 8200 8198 8199 8198 8194 8195 8196 8193 8197 8196 8190 8194 8192 8190 8189 8186 8189 8188 8185 8184 8182 
8170 8167 8172 8171 8177 8176 8178 8179 8180 8180 8182 8178 8178 8181 8180 8184 8182 8183 8181 8183 8184 8187 8184 8186 8190 8192 8197 8198 8197 8195 8195 8196 8197 8198 8200 8203 8203 8205 8205 8206 8207 8207 8209 8210 8212 8211 8208 8208 8209 8208 8203 8199 8202 8202 8202 8202 8200 8200 8200 8201 8199 8201 8200 8194 8196 8196 8195 8193 8197 8192 8192 8192 8193 8194 8189 8190 8184 8187 8183 8181 
8171 8169 8173 8176 8176 8176 8183 8181 8181 8182 8181 8180 8179 8179 8180 8184 8183 8184 8182 8182 8183 8183 8185 8187 8189 8191 8196 8200 8197 8198 8196 8198 8194 8197 8202 8202 8206 8204 8204 8205 8205 8206 8208 8211 8210 8207 8207 8212 8211 8209 8206 8203 8203 8204 8203 8204 8202 8202 8203 8204 8203 8202 8200 8196 8195 8199 8194 8199 8197 8196 8196 8193 8192 8194 8191 8189 8190 8184 8182 8185 
8171 8170 8178 8174 8182 8178 8178 8179 8183 8180 8180 8178 8179 8178 8181 8181 8183 8180 8180 8183 8184 8181 8182 8185 8185 8192 8196 8199 8197 8197 8198 8199 8196 8198 8202 8202 8203 8202 8203 8204 8206 8205 8203 8208 8209 8208 8207 8210 8209 8207 8205 8204 8203 8204 8207 8207 8202 8201 8205 8205 8198 8203 8198 8198 8197 8198 8198 8199 8195 8195 8194 8194 8193 8194 8192 8195 8187 8192 8184 8183 
8171 8174 8179 8175 8179 8179 8176 8177 8181 8179 8179 8177 8179 8181 8180 8181 8179 8179 8182 8181 8180 8182 8181 8184 8186 8191 8197 8199 8194 8198 8199 8198 8198 8198 8200 8202 8201 8201 8203 8203 8204 8204 8203 8205 8206 8208 8208 8208 8207 8206 8202 8202 8203 8204 8204 8203 8201 8200 8201 8207 8202 8202 8197 8198 8194 8195 8195 8197 8197 8196 8196 8194 8195 8197 8193 8191 8191 8191 8187 8188 
8176 8176 8182 8180 8180 8179 8179 8180 8176 8183 8180 8180 8179 8182 8180 8179 8180 8183 8180 8185 8181 8183 8184 8184 8189 8191 8196 8196 8197 8197 8199 8197 8198 8199 8198 8201 8199 8204 8202 8202 8204 8201 8204 8207 8206 8208 8206 8208 8207 8205 8205 8204 8206 8205 8205 8202 8203 8202 8204 8204 8203 8203 8198 8198 8193 8196 8197 8197 8199 8195 8198 8198 8198 8197 8195 8196 8190 8193 8189 8188 
8180 8176 8183 8181 8183 8179 8181 8177 8179 8182 8178 8177 8178 8179 8179 8180 8180 8183 8182 8181 8185 8186 8184 8188 8186 8189 8197 8198 8196 8197 8198 8195 8196 8201 8201 8201 8202 8200 8203 8204 8204 8204 8203 8208 8204 8206 8205 8206 8208 8207 8204 8205 8204 8203 8206 8203 8202 8201 8204 8206 8205 8202 8200 8196 8195 8196 8194 8196 8196 8194 8195 8196 8195 8195 8195 8198 8192 8193 8189 8188 
8177 8176 8185 8181 8182 8180 8178 8175 8182 8181 8184 8177 8175 8181 8181 8181 8183 8185 8183 8184 8184 8184 8183 8187 8190 8191 8199 8199 8199 8196 8196 8199 8197 8200 8201 8203 8203 8200 8203 8203 8200 8205 8201 8205 8205 8207 8205 8206 8205 8205 8205 8203 8203 8202 8205 8206 8205 8200 8205 8208 8206 8202 8200 8195 8198 8195 8193 8194 8197 8193 8197 8196 8197 8199 8196 8199 8196 8195 8190 8189 
8180 8178 8187 8182 8183 8185 8182 8180 8182 8180 8180 8177 8181 8179 8182 8185 8186 8186 8186 8184 8187 8184 8182 8186 8189 8192 8199 8199 8196 8196 8197 8199 8197 8200 8201 8201 8200 8202 8201 8205 8202 8201 8205 8205 8204 8202 8200 8205 8204 8206 8208 8205 8204 8205 8205 8205 8201 8202 8204 8205 8205 8200 8199 8195 8195 8192 8192 8196 8197 8197 8197 8194 8198 8197 8198 8198 8196 8200 8190 8193 
8181 8179 8184 8187 8182 8183 8183 8182 8183 8180 8182 8180 8179 8184 8185 8185 8184 8186 8183 8183 8184 8186 8187 8187 8189 8193 8199 8200 8197 8199 8198 8201 8199 8200 8201 8203 8202 8200 8201 8204 8202 8201 8201 8197 8202 8204 8201 8205 8207 8207 8205 8203 8202 8203 8204 8202 8202 8203 8207 8204 8202 8201 8199 8194 8197 8198 8194 8197 8198 8195 8195 8195 8197 8199 8197 8198 8199 8196 8191 8190 
8183 8178 8184 8182 8182 8180 8177 8181 8182 8181 8182 8180 8181 8184 8183 8182 8180 8185 8185 8185 8183 8185 8183 8185 8189 8195 8200 8197 8199 8197 8198 8198 8198 8198 8199 8200 8199 8201 8202 8201 8202 8202 8190 8178 8180 8193 8200 8202 8204 8204 8204 8205 8205 8204 8204 8205 8200 8201 8205 8206 8202 8199 8197 8195 8195 8196 8194 8197 8196 8195 8195 8193 8197 8195 8196 8197 8193 8193 8188 8192 
8185 8181 8185 8183 8183 8184 8180 8182 8185 8185 8180 8180 8181 8183 8183 8181 8185 8186 8187 8185 8184 8185 8183 8188 8192 8192 8199 8200 8198 8201 8199 8200 8197 8200 8201 8200 8201 8202 8200 8204 8204 8204 8199 8179 8174 8174 8182 8198 8204 8203 8203 8204 8205 8205 8207 8207 8202 8199 8199 8196 8198 8198 8197 8194 8196 8196 8194 8194 8197 8195 8194 8196 8196 8197 8193 8199 8195 8194 8189 8192 
8185 8180 8186 8181 8183 8182 8183 8182 8183 8184 8184 8183 8182 8183 8187 8187 8183 8187 8185 8185 8187 8186 8183 8189 8190 8193 8200 8202 8200 8199 8202 8200 8198 8199 8201 8201 8202 8202 8200 8204 8208 8203 8203 8190 8177 8176 8177 8181 8185 8191 8201 8206 8204 8202 8204 8204 8204 8192 8178 8182 8179 8192 8198 8194 8195 8200 8194 8197 8195 8194 8193 8197 8197 8199 8194 8194 8195 8194 8186 8188 
8182 8179 8188 8183 8184 8187 8186 8183 8187 8186 8185 8181 8181 8184 8191 8189 8191 8187 8186 8185 8189 8186 8186 8186 8191 8195 8200 8202 8202 8198 8200 8199 8198 8200 8199 8198 8204 8201 8199 8198 8200 8200 8204 8200 8180 8181 8190 8197 8202 8205 8202 8202 8205 8204 8207 8204 8202 8187 8180 8184 8178 8181 8188 8194 8193 8196 8197 8196 8198 8197 8195 8196 8197 8198 8196 8196 8195 8193 8186 8188 
8182 8179 8184 8180 8180 8183 8183 8185 8187 8186 8185 8183 8185 8189 8188 8187 8191 8191 8187 8192 8189 8188 8188 8189 8190 8194 8202 8203 8201 8200 8200 8202 8199 8200 8197 8202 8202 8198 8201 8190 8177 8189 8196 8194 8173 8179 8192 8202 8203 8206 8203 8201 8204 8202 8206 8205 8201 8186 8180 8179 8180 8176 8176 8185 8191 8194 8198 8198 8196 8195 8198 8197 8199 8199 8193 8195 8194 8191 8189 8191 
8180 8179 8183 8183 8182 8187 8184 8184 8188 8186 8187 8187 8186 8188 8189 8190 8193 8190 8192 8190 8190 8188 8185 8189 8190 8192 8200 8199 8202 8200 8198 8199 8199 8200 8196 8190 8194 8196 8194 8174 8173 8175 8182 8182 8178 8174 8172 8182 8196 8193 8188 8183 8181 8185 8199 8204 8202 8191 8179 8177 8181 8180 8175 8177 8190 8194 8196 8198 8197 8197 8200 8199 8200 8199 8195 8196 8194 8191 8186 8188 
8183 8181 8185 8184 8184 8185 8184 8185 8191 8188 8188 8187 8186 8193 8190 8191 8192 8190 8190 8189 8190 8187 8187 8190 8193 8197 8201 8201 8202 8201 8200 8201 8198 8193 8177 8170 8168 8171 8174 8173 8179 8179 8175 8175 8174 8175 8175 8176 8171 8171 8171 8166 8169 8169 8174 8192 8198 8196 8178 8179 8176 8178 8176 8181 8194 8198 8197 8198 8199 8199 8204 8198 8200 8201 8198 8198 8197 8195 8190 8185 
8184 8182 8187 8183 8184 8185 8188 8188 8191 8185 8187 8188 8189 8194 8195 8194 8192 8193 8190 8190 8190 8188 8188 8191 8193 8198 8204 8201 8203 8200 8201 8202 8193 8177 8172 8170 8172 8170 8172 8178 8192 8187 8176 8180 8186 8182 8176 8176 8171 8171 8170 8168 8170 8174 8175 8175 8198 8194 8177 8175 8176 8179 8180 8192 8200 8198 8195 8197 8201 8198 8199 8199 8196 8198 8196 8195 8194 8195 8188 8190 
8182 8179 8183 8186 8187 8185 8186 8188 8190 8189 8189 8190 8187 8193 8190 8190 8192 8193 8193 8195 8188 8189 8188 8191 8196 8196 8204 8203 8202 8198 8199 8198 8181 8173 8172 8172 8174 8173 8172 8174 8176 8176 8176 8180 8197 8205 8191 8184 8176 8177 8171 8170 8170 8175 8179 8175 8198 8189 8182 8187 8190 8194 8195 8200 8199 8199 8198 8199 8199 8198 8200 8199 8199 8199 8197 8198 8197 8195 8190 8190 
8184 8180 8186 8184 8186 8188 8184 8188 8190 8189 8188 8187 8190 8191 8191 8191 8192 8191 8192 8190 8188 8192 8191 8191 8194 8197 8196 8202 8199 8201 8197 8193 8169 8172 8176 8176 8176 8176 8172 8172 8177 8177 8175 8179 8196 8205 8196 8202 8194 8200 8194 8181 8172 8174 8176 8186 8190 8193 8203 8205 8199 8201 8199 8199 8198 8195 8200 8199 8197 8200 8198 8199 8200 8199 8199 8199 8197 8196 8190 8190 
8187 8185 8188 8186 8184 8189 8186 8186 8191 8189 8192 8189 8191 8193 8191 8193 8190 8191 8191 8193 8192 8194 8190 8192 8192 8193 8182 8179 8192 8200 8197 8186 8172 8173 8176 8175 8177 8174 8176 8179 8178 8177 8174 8174 8181 8185 8197 8206 8207 8205 8202 8199 8188 8190 8182 8187 8185 8199 8203 8202 8199 8198 8199 8197 8199 8199 8199 8201 8197 8199 8202 8200 8201 8203 8202 8201 8198 8199 8192 8195 
8189 8182 8188 8188 8188 8190 8188 8188 8192 8191 8191 8191 8189 8196 8194 8193 8194 8191 8192 8192 8191 8192 8191 8192 8194 8188 8175 8167 8172 8188 8188 8173 8171 8174 8175 8177 8176 8175 8182 8188 8178 8179 8174 8173 8175 8180 8198 8197 8204 8205 8199 8201 8193 8198 8186 8175 8175 8176 8179 8177 8173 8180 8201 8198 8198 8199 8202 8203 8198 8199 8199 8201 8204 8205 8202 8202 8198 8195 8193 8196 
8188 8182 8189 8188 8188 8188 8187 8191 8188 8188 8190 8191 8192 8196 8192 8192 8190 8192 8191 8192 8189 8192 8189 8191 8195 8191 8174 8169 8170 8173 8175 8173 8173 8176 8175 8177 8173 8180 8186 8186 8180 8178 8176 8173 8174 8180 8183 8178 8188 8184 8191 8187 8181 8185 8176 8175 8173 8174 8177 8172 8170 8178 8196 8197 8198 8201 8198 8205 8201 8201 8202 8201 8203 8207 8202 8202 8199 8196 8192 8195 
8188 8183 8190 8188 8188 8188 8191 8189 8191 8189 8193 8190 8192 8194 8194 8192 8192 8191 8193 8192 8190 8192 8191 8193 8194 8198 8182 8170 8173 8172 8175 8174 8170 8174 8176 8177 8179 8182 8183 8183 8183 8176 8175 8177 8177 8176 8172 8176 8176 8174 8173 8175 8174 8175 8177 8174 8178 8179 8178 8172 8173 8181 8189 8197 8199 8202 8205 8204 8200 8199 8202 8203 8202 8204 8201 8204 8202 8197 8194 8193 
8184 8183 8189 8187 8189 8189 8188 8190 8192 8192 8192 8192 8190 8193 8194 8192 8191 8192 8191 8192 8190 8191 8189 8192 8191 8188 8175 8176 8175 8174 8174 8174 8168 8174 8176 8177 8179 8179 8181 8183 8176 8173 8173 8179 8180 8178 8176 8174 8172 8171 8172 8188 8196 8186 8186 8180 8175 8176 8178 8172 8169 8178 8187 8196 8196 8200 8201 8200 8201 8199 8198 8199 8203 8203 8204 8201 8201 8200 8194 8195 
8185 8185 8188 8187 8189 8189 8190 8190 8195 8192 8195 8192 8191 8194 8192 8191 8191 8194 8192 8192 8191 8194 8190 8193 8190 8179 8178 8172 8170 8169 8168 8170 8171 8174 8177 8182 8182 8184 8183 8180 8178 8175 8174 8181 8180 8181 8178 8175 8173 8169 8170 8180 8209 8220 8207 8185 8176 8173 8176 8173 8185 8179 8188 8198 8198 8200 8203 8202 8201 8199 8200 8201 8202 8203 8200 8204 8198 8202 8194 8194 
8192 8184 8190 8189 8187 8190 8191 8192 8191 8195 8198 8192 8192 8195 8193 8194 8193 8193 8192 8193 8194 8192 8191 8193 8182 8173 8176 8167 8167 8167 8168 8175 8173 8177 8182 8184 8183 8184 8182 8177 8178 8176 8175 8182 8179 8180 8177 8177 8174 8173 8172 8173 8185 8224 8209 8179 8174 8174 8176 8174 8185 8186 8176 8194 8199 8201 8201 8200 8201 8200 8201 8200 8203 8203 8204 8202 8201 8199 8194 8194 
8191 8184 8193 8190 8191 8193 8192 8192 8198 8196 8196 8193 8194 8195 8195 8193 8196 8194 8193 8192 8196 8194 8188 8194 8182 8177 8174 8170 8174 8171 8174 8177 8177 8177 8181 8182 8187 8182 8179 8175 8175 8179 8174 8183 8181 8179 8177 8177 8173 8173 8172 8174 8180 8191 8179 8178 8170 8172 8175 8177 8174 8186 8178 8182 8197 8199 8200 8202 8201 8200 8201 8199 8205 8204 8202 8200 8202 8196 8197 8194 
8193 8188 8192 8189 8192 8194 8192 8191 8197 8196 8197 8195 8193 8197 8194 8194 8194 8193 8192 8195 8194 8195 8190 8191 8189 8176 8176 8175 8174 8170 8174 8176 8178 8178 8181 8182 8185 8183 8182 8177 8177 8174 8176 8182 8179 8179 8177 8174 8173 8170 8171 8172 8174 8175 8174 8175 8172 8169 8177 8177 8173 8181 8184 8187 8197 8198 8200 8202 8199 8197 8199 8202 8200 8202 8202 8201 8202 8199 8197 8198 
8193 8192 8196 8195 8192 8193 8193 8196 8194 8196 8197 8196 8196 8196 8197 8194 8196 8192 8191 8192 8194 8193 8191 8195 8184 8173 8181 8179 8176 8173 8179 8180 8179 8179 8181 8186 8183 8176 8175 8176 8177 8175 8181 8179 8177 8176 8175 8178 8175 8173 8174 8173 8175 8172 8173 8176 8173 8172 8175 8177 8174 8175 8188 8197 8197 8200 8197 8202 8201 8200 8202 8200 8202 8204 8203 8202 8199 8200 8198 8195 
8194 8195 8198 8195 8192 8196 8194 8191 8197 8194 8196 8199 8197 8197 8194 8194 8198 8195 8192 8193 8194 8193 8192 8195 8186 8177 8177 8180 8175 8178 8182 8178 8178 8178 8183 8185 8182 8180 8177 8178 8179 8177 8181 8182 8181 8178 8180 8183 8180 8178 8175 8173 8174 8169 8175 8177 8175 8173 8179 8179 8173 8174 8177 8194 8196 8199 8198 8199 8202 8199 8200 8198 8202 8201 8200 8200 8197 8200 8193 8196 
8194 8188 8195 8198 8194 8197 8195 8195 8197 8193 8196 8194 8197 8195 8195 8194 8196 8196 8194 8193 8195 8194 8193 8196 8189 8177 8178 8177 8180 8183 8182 8175 8175 8177 8180 8182 8180 8182 8181 8177 8181 8178 8177 8183 8183 8183 8182 8185 8183 8180 8176 8177 8174 8173 8174 8175 8174 8170 8176 8177 8177 8177 8171 8192 8197 8197 8197 8199 8201 8197 8201 8200 8203 8201 8202 8199 8202 8201 8195 8194 
8196 8196 8199 8195 8196 8195 8196 8196 8196 8194 8197 8196 8194 8197 8196 8197 8193 8195 8193 8194 8193 8191 8192 8198 8194 8190 8176 8178 8182 8182 8188 8182 8176 8176 8179 8181 8182 8182 8179 8179 8179 8177 8179 8177 8182 8181 8183 8187 8183 8180 8181 8180 8177 8184 8173 8174 8173 8172 8175 8179 8174 8174 8177 8192 8197 8196 8199 8199 8200 8198 8197 8199 8200 8200 8199 8202 8197 8199 8194 8196 
8197 8194 8200 8196 8196 8199 8199 8194 8197 8195 8198 8196 8191 8197 8195 8197 8197 8196 8195 8194 8196 8196 8192 8196 8197 8187 8179 8178 8181 8186 8190 8185 8184 8183 8181 8179 8178 8178 8179 8181 8180 8176 8175 8178 8177 8179 8181 8182 8183 8182 8179 8181 8182 8179 8181 8175 8173 8173 8177 8177 8174 8176 8183 8196 8199 8202 8198 8199 8200 8198 8200 8199 8203 8204 8201 8201 8198 8200 8195 8193 
8199 8196 8201 8200 8197 8195 8195 8198 8198 8199 8200 8195 8193 8197 8195 8193 8194 8199 8194 8195 8194 8195 8195 8197 8196 8187 8177 8177 8180 8183 8193 8186 8188 8183 8179 8177 8175 8177 8177 8177 8179 8180 8174 8178 8179 8178 8178 8177 8181 8184 8181 8181 8183 8181 8181 8181 8173 8172 8181 8180 8175 8179 8197 8198 8199 8200 8199 8202 8198 8200 8199 8202 8202 8203 8199 8203 8199 8200 8194 8190 
8200 8194 8203 8201 8199 8198 8199 8197 8199 8199 8198 8195 8195 8195 8197 8196 8197 8194 8195 8194 8195 8195 8192 8198 8195 8186 8179 8177 8176 8179 8187 8187 8183 8181 8177 8178 8177 8177 8176 8177 8174 8177 8173 8178 8175 8181 8178 8178 8180 8180 8180 8185 8182 8182 8185 8184 8180 8177 8180 8180 8177 8189 8199 8200 8200 8200 8200 8201 8203 8200 8201 8202 8200 8204 8202 8204 8200 8201 8196 8194 
8198 8196 8203 8198 8199 8197 8201 8198 8197 8199 8199 8193 8195 8196 8198 8197 8196 8194 8195 8193 8196 8194 8193 8199 8194 8184 8183 8182 8181 8181 8183 8185 8186 8183 8182 8180 8180 8178 8180 8180 8181 8179 8178 8178 8176 8178 8178 8178 8181 8180 8180 8182 8182 8180 8184 8186 8181 8174 8181 8178 8179 8199 8199 8200 8200 8202 8199 8201 8200 8200 8200 8201 8200 8201 8201 8202 8201 8203 8195 8194 
8198 8196 8203 8197 8198 8199 8198 8198 8200 8197 8196 8195 8197 8198 8197 8195 8196 8195 8191 8194 8195 8198 8194 8192 8179 8176 8178 8179 8177 8179 8185 8186 8186 8184 8181 8182 8182 8180 8182 8184 8183 8179 8176 8178 8175 8176 8177 8177 8180 8180 8176 8182 8179 8181 8182 8188 8180 8182 8179 8179 8191 8200 8202 8197 8198 8201 8202 8201 8202 8197 8201 8200 8202 8202 8202 8201 8200 8200 8195 8195 
8202 8197 8204 8199 8202 8201 8200 8199 8201 8199 8199 8197 8199 8199 8195 8197 8198 8195 8193 8195 8199 8195 8196 8186 8170 8174 8178 8185 8183 8184 8186 8187 8187 8183 8185 8180 8181 8178 8179 8185 8184 8179 8175 8177 8176 8180 8178 8179 8181 8181 8177 8180 8180 8181 8181 8181 8182 8183 8180 8185 8191 8205 8203 8200 8202 8203 8201 8202 8203 8198 8200 8203 8207 8206 8202 8204 8202 8201 8195 8198 
8201 8200 8206 8203 8200 8198 8200 8199 8202 8201 8201 8198 8194 8198 8195 8194 8195 8194 8192 8195 8194 8198 8195 8186 8173 8176 8181 8181 8185 8182 8179 8187 8187 8184 8181 8180 8184 8183 8177 8183 8182 8175 8178 8182 8179 8179 8180 8177 8179 8180 8177 8179 8181 8181 8182 8188 8187 8187 8185 8193 8189 8199 8203 8201 8201 8204 8202 8204 8205 8203 8202 8202 8202 8203 8204 8203 8203 8203 8196 8198 
8200 8198 8200 8198 8198 8199 8201 8199 8200 8201 8197 8196 8196 8197 8196 8194 8198 8198 8194 8195 8196 8195 8195 8181 8171 8174 8178 8181 8186 8184 8179 8181 8184 8183 8183 8179 8184 8181 8178 8182 8184 8175 8178 8182 8182 8182 8179 8179 8181 8182 8179 8180 8183 8180 8187 8192 8189 8187 8186 8188 8184 8197 8203 8199 8203 8203 8201 8201 8203 8202 8204 8203 8202 8206 8202 8204 8203 8202 8198 8199 
8202 8195 8206 8201 8200 8199 8199 8197 8201 8201 8197 8197 8195 8198 8196 8197 8197 8195 8193 8194 8197 8197 8194 8186 8177 8177 8184 8186 8184 8184 8179 8176 8178 8183 8184 8183 8184 8181 8182 8185 8184 8178 8180 8183 8185 8182 8182 8181 8181 8184 8184 8187 8182 8183 8191 8187 8184 8186 8193 8193 8191 8191 8201 8204 8203 8202 8202 8206 8206 8204 8203 8205 8207 8209 8209 8206 8203 8203 8200 8203 
8198 8199 8200 8200 8200 8203 8198 8204 8202 8199 8200 8199 8198 8197 8198 8197 8195 8194 8193 8200 8198 8200 8199 8200 8196 8186 8190 8189 8188 8184 8184 8179 8175 8184 8183 8180 8183 8181 8182 8185 8185 8185 8180 8183 8183 8187 8181 8184 8184 8190 8187 8193 8188 8189 8192 8187 8185 8192 8204 8209 8198 8204 8205 8206 8204 8203 8205 8206 8208 8204 8203 8205 8206 8208 8204 8210 8203 8204 8199 8200 
8200 8198 8200 8199 8202 8200 8200 8200 8201 8202 8200 8198 8199 8198 8197 8199 8196 8193 8196 8199 8200 8195 8195 8197 8199 8192 8188 8188 8184 8180 8185 8187 8183 8184 8185 8180 8183 8180 8185 8183 8182 8181 8181 8183 8184 8186 8182 8182 8188 8189 8190 8190 8190 8190 8192 8189 8189 8193 8203 8215 8203 8210 8207 8204 8202 8206 8206 8207 8207 8206 8204 8202 8207 8208 8206 8206 8207 8208 8200 8200 
8202 8199 8202 8199 8201 8199 8199 8197 8200 8199 8198 8199 8196 8200 8200 8199 8196 8195 8196 8200 8199 8199 8194 8201 8200 8192 8188 8184 8180 8180 8187 8186 8187 8184 8186 8182 8184 8183 8181 8184 8183 8184 8186 8185 8186 8183 8179 8183 8188 8189 8193 8191 8191 8191 8190 8188 8185 8190 8203 8214 8205 8207 8207 8207 8204 8205 8205 8207 8204 8202 8206 8207 8209 8209 8212 8204 8204 8207 8196 8198 
8203 8200 8201 8198 8201 8202 8202 8200 8198 8201 8200 8198 8199 8203 8198 8201 8200 8199 8197 8198 8201 8198 8198 8198 8199 8193 8183 8183 8182 8181 8185 8187 8187 8188 8180 8182 8185 8181 8185 8183 8186 8187 8190 8188 8186 8185 8182 8184 8190 8190 8191 8192 8193 8192 8192 8191 8190 8191 8201 8200 8202 8210 8208 8206 8204 8204 8204 8209 8210 8206 8206 8205 8207 8212 8208 8207 8207 8207 8198 8199 
8203 8197 8203 8201 8201 8198 8198 8200 8202 8200 8202 8199 8201 8202 8198 8200 8197 8198 8196 8198 8196 8200 8195 8200 8197 8183 8189 8191 8183 8186 8180 8184 8184 8183 8182 8183 8185 8181 8188 8187 8191 8190 8193 8192 8187 8185 8188 8192 8191 8189 8195 8193 8190 8192 8194 8188 8189 8191 8199 8205 8208 8212 8208 8205 8205 8209 8208 8209 8209 8205 8205 8206 8211 8208 8209 8207 8203 8206 8199 8200 
8198 8199 8205 8202 8198 8202 8199 8199 8203 8201 8201 8199 8200 8202 8201 8200 8195 8196 8194 8200 8198 8197 8199 8196 8184 8187 8194 8183 8186 8186 8182 8182 8184 8181 8185 8184 8185 8180 8192 8191 8192 8190 8193 8198 8194 8192 8193 8198 8199 8188 8192 8196 8195 8195 8192 8188 8189 8194 8198 8209 8213 8211 8206 8205 8204 8205 8203 8207 8209 8207 8208 8206 8210 8211 8206 8208 8204 8205 8201 8202 
8199 8197 8202 8201 8200 8202 8200 8201 8201 8204 8201 8197 8197 8203 8199 8198 8200 8198 8194 8198 8200 8197 8197 8199 8188 8179 8184 8185 8185 8185 8183 8183 8184 8185 8187 8187 8183 8188 8195 8192 8193 8192 8194 8201 8197 8199 8199 8202 8197 8193 8188 8192 8195 8196 8191 8195 8193 8193 8203 8211 8210 8211 8212 8206 8203 8205 8203 8205 8206 8204 8203 8207 8208 8207 8205 8207 8204 8207 8200 8199 
8198 8195 8202 8200 8200 8199 8200 8200 8203 8202 8202 8202 8202 8202 8199 8199 8202 8198 8198 8196 8197 8197 8198 8197 8198 8197 8184 8183 8184 8187 8191 8191 8189 8183 8185 8188 8192 8193 8197 8194 8192 8191 8193 8198 8199 8198 8197 8200 8200 8196 8188 8189 8190 8195 8198 8198 8200 8210 8213 8215 8213 8216 8211 8205 8204 8205 8206 8208 8208 8204 8208 8207 8210 8210 8210 8206 8206 8205 8200 8200 
8201 8198 8201 8200 8199 8198 8200 8200 8204 8201 8204 8200 8202 8204 8204 8196 8201 8199 8198 8195 8195 8199 8197 8198 8200 8200 8195 8186 8182 8183 8191 8191 8195 8188 8191 8198 8197 8198 8195 8193 8194 8190 8196 8197 8197 8199 8196 8200 8200 8194 8186 8188 8185 8189 8197 8204 8216 8223 8217 8219 8216 8214 8210 8207 8203 8207 8203 8208 8209 8205 8212 8208 8211 8212 8209 8208 8209 8205 8200 8207 
8202 8197 8201 8199 8198 8199 8197 8198 8205 8202 8202 8201 8201 8203 8202 8198 8202 8200 8197 8198 8197 8196 8195 8197 8199 8204 8205 8200 8192 8179 8191 8193 8194 8193 8196 8197 8199 8198 8193 8197 8196 8190 8195 8198 8198 8198 8199 8196 8192 8189 8185 8186 8193 8195 8196 8215 8224 8220 8217 8220 8213 8215 8210 8207 8203 8207 8206 8209 8208 8209 8209 8211 8212 8210 8207 8208 8209 8209 8199 8201 
8201 8202 8204 8200 8202 8200 8197 8198 8204 8202 8201 8198 8200 8202 8200 8199 8203 8198 8197 8196 8198 8200 8196 8198 8198 8203 8208 8209 8206 8199 8203 8201 8194 8195 8197 8195 8201 8197 8197 8198 8196 8198 8195 8199 8200 8201 8198 8197 8189 8188 8187 8195 8194 8197 8211 8222 8220 8217 8215 8219 8215 8217 8208 8207 8206 8210 8209 8208 8208 8209 8208 8208 8208 8209 8212 8210 8204 8208 8200 8201 
8203 8201 8202 8202 8198 8196 8199 8198 8206 8204 8205 8199 8202 8203 8198 8197 8200 8200 8195 8198 8199 8198 8197 8198 8200 8202 8208 8208 8206 8207 8207 8206 8198 8195 8196 8196 8199 8198 8202 8199 8202 8196 8200 8203 8201 8204 8200 8200 8195 8189 8194 8196 8193 8199 8216 8220 8219 8219 8217 8217 8215 8212 8211 8210 8207 8210 8209 8209 8213 8210 8208 8207 8211 8212 8209 8210 8205 8206 8199 8198 
8205 8200 8202 8199 8200 8197 8195 8196 8201 8201 8202 8199 8201 8202 8199 8196 8196 8197 8199 8196 8198 8197 8196 8199 8202 8206 8209 8211 8207 8208 8210 8206 8204 8198 8192 8195 8196 8197 8199 8200 8196 8196 8200 8203 8201 8205 8200 8202 8200 8198 8195 8196 8199 8207 8216 8220 8218 8217 8217 8219 8215 8213 8208 8208 8205 8208 8206 8214 8210 8212 8207 8212 8209 8211 8210 8213 8207 8203 8197 8198 
8201 8198 8202 8201 8201 8200 8199 8198 8202 8199 8201 8198 8198 8202 8196 8196 8198 8196 8196 8197 8197 8202 8199 8200 8203 8205 8209 8209 8207 8205 8209 8208 8207 8207 8203 8197 8194 8194 8195 8196 8198 8196 8199 8200 8201 8202 8199 8201 8197 8201 8199 8207 8215 8218 8220 8221 8220 8222 8220 8218 8210 8212 8210 8206 8209 8208 8207 8212 8216 8209 8209 8209 8211 8214 8216 8211 8208 8203 8197 8197 
8204 8199 8206 8200 8198 8197 8198 8198 8202 8199 8200 8198 8199 8201 8198 8196 8196 8195 8193 8194 8193 8196 8197 8199 8199 8204 8209 8208 8206 8206 8207 8207 8207 8206 8207 8204 8205 8197 8198 8198 8196 8194 8194 8198 8196 8198 8199 8204 8206 8214 8216 8219 8219 8222 8222 8222 8220 8221 8222 8218 8218 8214 8209 8207 8207 8207 8208 8214 8213 8211 8208 8211 8207 8210 8212 8207 8205 8205 8197 8199 
8208 8203 8203 8197 8197 8199 8198 8197 8200 8199 8199 8196 8195 8198 8196 8196 8195 8195 8190 8195 8193 8194 8192 8197 8197 8200 8208 8208 8208 8206 8206 8204 8205 8208 8207 8208 8210 8206 8207 8205 8206 8200 8204 8207 8212 8213 8216 8216 8218 8223 8220 8221 8218 8220 8221 8224 8223 8222 8223 8219 8215 8212 8212 8207 8205 8210 8211 8213 8213 8213 8212 8209 8212 8213 8210 8213 8204 8204 8199 8197 
8208 8204 8204 8197 8194 8199 8198 8197 8198 8203 8196 8197 8194 8196 8195 8194 8193 8194 8188 8192 8191 8194 8192 8194 8195 8201 8207 8210 8205 8207 8205 8205 8205 8209 8206 8208 8209 8207 8205 8208 8207 8206 8207 8212 8214 8217 8216 8220 8221 8220 8220 8218 8215 8219 8217 8223 8221 8218 8221 8220 8218 8213 8211 8210 8207 8211 8209 8214 8215 8211 8213 8208 8213 8215 8213 8210 8202 8200 8203 8195 
8213 8202 8205 8198 8197 8198 8196 8196 8199 8202 8192 8197 8194 8195 8193 8191 8189 8189 8191 8193 8190 8190 8192 8190 8187 8188 8199 8201 8203 8202 8202 8202 8198 8199 8201 8202 8204 8202 8203 8210 8206 8203 8206 8208 8211 8214 8209 8215 8212 8218 8210 8206 8207 8210 8216 8219 8219 8217 8220 8218 8219 8214 8210 8207 8208 8211 8209 8212 8211 8212 8211 8210 8212 8213 8209 8210 8204 8203 8201 8198 


