P2
80 60
8316
8154 8163 8167 8168 8171 8172 8175 8178 8175 8171 8171 8175 8170 8175 8182 8187 8192 8199 8198 8201 8208 8209 8209 8208 8216 8216 8215 8221 8218 8222 8228 8234 8241 8244 8246 8246 8249 8252 8256 8251 8248 8244 8238 8233 8229 8229 8231 8230 8234 8231 8230 8227 8227 8232 8223 8217 8201 8192 8187 8184 8180 8180 8187 8189 8186 8187 8185 8186 8188 8185 8190 8195 8195 8192 8196 8197 8201 8194 8192 8199 
8163 8165 8169 8171 8175 8182 8183 8182 8183 8181 8184 8181 8183 8185 8189 8195 8200 8200 8204 8205 8210 8210 8214 8217 8219 8222 8222 8220 8226 8226 8232 8239 8241 8244 8246 8249 8252 8253 8256 8252 8248 8242 8239 8236 8230 8236 8237 8235 8241 8240 8238 8240 8234 8237 8228 8220 8208 8201 8197 8189 8189 8190 8188 8187 8185 8185 8188 8187 8185 8185 8185 8188 8194 8189 8196 8197 8195 8191 8190 8191 
8163 8165 8173 8180 8183 8188 8188 8187 8186 8189 8189 8187 8187 8193 8201 8203 8205 8205 8206 8210 8211 8211 8217 8217 8222 8223 8222 8226 8226 8230 8229 8235 8244 8246 8245 8251 8251 8254 8254 8249 8246 8240 8235 8236 8234 8236 8235 8236 8243 8242 8243 8245 8241 8240 8233 8224 8209 8206 8200 8195 8200 8197 8192 8190 8187 8189 8187 8188 8185 8184 8188 8189 8193 8193 8191 8194 8193 8190 8184 8188 
8166 8167 8179 8184 8192 8192 8192 8194 8193 8190 8190 8194 8193 8200 8200 8202 8203 8206 8210 8210 8210 8211 8215 8216 8220 8220 8225 8226 8227 8224 8230 8234 8239 8241 8245 8250 8250 8250 8252 8249 8245 8239 8236 8235 8233 8236 8235 8236 8245 8246 8249 8248 8238 8239 8237 8224 8212 8208 8203 8199 8203 8203 8201 8196 8194 8190 8191 8189 8188 8186 8184 8188 8191 8186 8187 8191 8189 8187 8183 8188 
8168 8169 8181 8189 8192 8197 8194 8197 8193 8191 8189 8193 8196 8196 8198 8204 8203 8206 8204 8208 8209 8212 8211 8213 8215 8220 8222 8223 8228 8226 8229 8236 8237 8243 8245 8249 8250 8249 8251 8246 8239 8238 8236 8235 8232 8237 8234 8237 8244 8246 8247 8247 8239 8238 8235 8227 8213 8209 8205 8201 8204 8206 8209 8206 8200 8197 8195 8193 8190 8189 8186 8188 8189 8185 8186 8188 8187 8183 8182 8187 
8173 8170 8183 8186 8196 8195 8200 8197 8193 8193 8193 8196 8193 8197 8202 8205 8206 8207 8209 8206 8209 8213 8214 8213 8216 8219 8218 8221 8224 8227 8232 8237 8242 8244 8243 8244 8243 8246 8247 8244 8243 8236 8238 8233 8229 8234 8233 8237 8241 8247 8249 8247 8237 8239 8235 8228 8213 8208 8207 8206 8207 8210 8212 8213 8205 8207 8201 8200 8195 8191 8187 8185 8186 8184 8185 8186 8187 8181 8181 8189 
8175 8175 8182 8192 8197 8199 8195 8197 8194 8194 8197 8198 8196 8197 8197 8204 8203 8207 8206 8207 8212 8210 8212 8212 8213 8214 8219 8218 8222 8224 8226 8230 8238 8238 8237 8240 8239 8241 8244 8239 8237 8234 8235 8233 8228 8230 8231 8236 8242 8246 8247 8247 8240 8242 8237 8230 8220 8218 8211 8210 8213 8212 8214 8213 8211 8212 8207 8209 8206 8197 8190 8186 8186 8183 8184 8185 8183 8179 8184 8186 
8175 8178 8183 8191 8195 8192 8193 8193 8188 8188 8193 8193 8194 8193 8195 8196 8200 8201 8204 8202 8208 8208 8206 8204 8206 8209 8210 8214 8215 8217 8220 8224 8232 8233 8234 8232 8233 8235 8240 8240 8238 8233 8230 8224 8212 8204 8189 8218 8233 8240 8245 8246 8239 8242 8236 8235 8227 8224 8218 8215 8218 8216 8216 8214 8211 8214 8213 8213 8208 8208 8201 8193 8188 8182 8185 8183 8178 8180 8186 8193 
8178 8175 8187 8191 8191 8187 8190 8190 8189 8187 8192 8191 8191 8192 8193 8197 8197 8199 8204 8203 8204 8207 8206 8204 8209 8206 8206 8210 8214 8220 8222 8225 8231 8234 8235 8235 8233 8235 8238 8235 8236 8230 8200 8164 8147 8135 8134 8172 8186 8204 8224 8242 8237 8239 8238 8232 8226 8221 8216 8219 8217 8220 8218 8215 8216 8214 8215 8216 8213 8211 8205 8200 8194 8185 8180 8178 8178 8177 8184 8189 
8178 8175 8188 8190 8191 8190 8188 8189 8191 8190 8190 8191 8194 8194 8197 8198 8202 8203 8208 8207 8212 8209 8208 8205 8209 8208 8210 8216 8221 8223 8223 8231 8236 8234 8237 8237 8235 8235 8237 8228 8219 8207 8196 8171 8144 8143 8129 8129 8132 8135 8195 8240 8236 8242 8237 8234 8224 8221 8219 8215 8221 8223 8221 8219 8219 8217 8219 8218 8217 8212 8211 8207 8200 8185 8179 8177 8178 8180 8187 8191 
8188 8184 8193 8191 8195 8194 8190 8193 8193 8192 8196 8197 8197 8199 8200 8204 8203 8206 8209 8211 8211 8212 8209 8206 8209 8212 8214 8222 8220 8226 8228 8233 8238 8237 8236 8238 8237 8232 8207 8169 8144 8133 8132 8139 8165 8162 8133 8131 8132 8167 8226 8239 8236 8240 8238 8235 8228 8222 8223 8220 8225 8223 8226 8224 8223 8222 8225 8219 8216 8212 8212 8206 8203 8193 8176 8176 8178 8182 8191 8194 
8193 8192 8199 8192 8196 8192 8190 8197 8194 8199 8201 8199 8202 8200 8203 8207 8206 8205 8207 8212 8214 8211 8211 8208 8212 8217 8218 8220 8221 8223 8228 8230 8235 8236 8234 8238 8236 8225 8198 8183 8171 8171 8160 8146 8172 8180 8179 8182 8168 8171 8188 8201 8208 8212 8215 8216 8215 8224 8223 8223 8226 8228 8229 8232 8228 8228 8230 8222 8219 8214 8214 8207 8206 8196 8177 8173 8174 8181 8193 8198 
8200 8195 8196 8195 8197 8199 8196 8196 8198 8200 8203 8203 8202 8201 8205 8206 8208 8208 8211 8212 8216 8211 8211 8211 8215 8218 8218 8221 8224 8223 8229 8228 8234 8234 8236 8239 8237 8233 8232 8224 8216 8198 8202 8196 8212 8179 8159 8144 8129 8125 8118 8118 8142 8159 8157 8164 8180 8226 8226 8227 8226 8228 8229 8231 8230 8230 8234 8230 8226 8218 8217 8216 8212 8204 8180 8170 8175 8184 8198 8197 
8200 8198 8202 8199 8205 8201 8200 8200 8199 8200 8202 8202 8205 8205 8205 8209 8213 8211 8210 8212 8214 8216 8216 8214 8216 8220 8220 8223 8225 8227 8228 8231 8234 8237 8242 8242 8238 8234 8217 8170 8135 8133 8132 8137 8186 8166 8141 8134 8127 8119 8111 8128 8178 8152 8153 8163 8184 8225 8228 8224 8228 8230 8232 8232 8231 8231 8233 8231 8228 8226 8224 8222 8222 8214 8192 8174 8179 8186 8198 8203 
8200 8197 8206 8204 8206 8209 8202 8206 8204 8204 8205 8209 8205 8207 8209 8211 8213 8215 8214 8215 8218 8219 8217 8218 8220 8218 8220 8224 8226 8225 8227 8233 8234 8236 8240 8240 8236 8197 8141 8114 8116 8122 8126 8132 8166 8170 8152 8127 8125 8114 8113 8118 8142 8151 8153 8161 8189 8225 8225 8225 8228 8231 8234 8228 8233 8234 8236 8235 8233 8230 8229 8226 8226 8223 8202 8175 8181 8192 8206 8203 
8199 8199 8206 8207 8206 8205 8202 8208 8205 8206 8210 8208 8211 8209 8211 8214 8212 8213 8217 8217 8218 8217 8217 8218 8220 8222 8222 8222 8222 8227 8226 8232 8237 8234 8240 8239 8236 8217 8171 8136 8125 8120 8130 8129 8156 8169 8170 8141 8135 8123 8116 8146 8192 8156 8159 8163 8193 8223 8226 8224 8229 8228 8231 8232 8231 8235 8236 8236 8234 8231 8230 8230 8229 8225 8213 8185 8179 8195 8204 8204 
8204 8201 8207 8212 8207 8206 8204 8206 8206 8210 8211 8212 8211 8210 8214 8215 8216 8215 8218 8219 8219 8221 8220 8223 8220 8223 8223 8227 8225 8227 8228 8233 8236 8235 8239 8239 8236 8228 8164 8142 8159 8160 8194 8188 8218 8179 8175 8176 8152 8148 8179 8219 8204 8157 8160 8165 8200 8225 8225 8225 8226 8229 8230 8233 8232 8233 8237 8235 8236 8235 8233 8232 8231 8228 8219 8197 8185 8195 8199 8203 
8207 8205 8210 8208 8208 8208 8208 8209 8209 8211 8212 8213 8215 8216 8215 8217 8215 8217 8222 8222 8223 8223 8221 8221 8222 8225 8223 8224 8227 8225 8227 8232 8236 8239 8238 8237 8232 8228 8212 8136 8118 8124 8163 8180 8195 8176 8170 8156 8132 8131 8170 8227 8203 8155 8158 8168 8204 8224 8223 8222 8226 8229 8230 8230 8233 8234 8235 8233 8234 8235 8234 8229 8230 8231 8224 8212 8185 8187 8194 8200 
8207 8206 8206 8209 8207 8210 8207 8209 8211 8212 8212 8214 8218 8216 8216 8219 8219 8218 8223 8220 8223 8225 8227 8222 8227 8226 8226 8228 8231 8229 8229 8235 8239 8244 8239 8231 8217 8186 8176 8148 8117 8126 8133 8130 8134 8156 8152 8134 8122 8125 8159 8225 8198 8153 8160 8167 8210 8225 8223 8220 8223 8224 8231 8228 8233 8235 8232 8234 8235 8231 8231 8230 8227 8228 8228 8219 8191 8184 8189 8195 
8209 8207 8207 8205 8208 8213 8214 8212 8212 8213 8216 8218 8220 8222 8223 8224 8224 8223 8227 8227 8227 8229 8229 8227 8230 8227 8228 8232 8232 8226 8233 8235 8240 8241 8219 8149 8116 8109 8112 8113 8128 8156 8161 8153 8133 8134 8152 8197 8204 8211 8214 8219 8186 8155 8162 8172 8214 8226 8224 8220 8222 8227 8229 8230 8232 8232 8234 8232 8232 8229 8230 8227 8227 8227 8224 8221 8203 8185 8188 8193 
8213 8208 8211 8207 8213 8217 8216 8213 8213 8217 8216 8222 8225 8225 8227 8229 8229 8229 8227 8230 8229 8234 8232 8234 8232 8233 8230 8234 8235 8233 8235 8231 8215 8198 8193 8183 8157 8125 8111 8118 8135 8153 8141 8133 8121 8118 8158 8225 8248 8250 8241 8228 8179 8152 8163 8176 8219 8227 8227 8222 8224 8229 8228 8231 8229 8234 8232 8231 8230 8230 8228 8228 8225 8223 8224 8224 8209 8187 8188 8195 
8213 8210 8215 8210 8214 8218 8217 8215 8219 8221 8220 8223 8227 8224 8226 8229 8226 8229 8229 8229 8228 8232 8232 8235 8231 8230 8232 8234 8234 8235 8223 8163 8128 8122 8125 8125 8124 8108 8111 8118 8125 8123 8118 8118 8121 8116 8121 8131 8147 8181 8219 8160 8122 8119 8138 8171 8225 8225 8225 8223 8224 8229 8230 8230 8231 8233 8233 8230 8233 8232 8229 8224 8223 8222 8222 8221 8214 8196 8193 8196 
8217 8216 8218 8215 8217 8217 8218 8220 8218 8222 8223 8227 8224 8230 8225 8231 8229 8228 8223 8229 8231 8231 8231 8232 8232 8232 8229 8235 8235 8231 8216 8135 8113 8122 8115 8103 8102 8104 8116 8117 8118 8118 8117 8122 8155 8123 8113 8119 8110 8107 8109 8100 8098 8102 8107 8122 8201 8236 8226 8223 8228 8226 8225 8232 8230 8232 8231 8229 8232 8227 8230 8225 8224 8223 8221 8221 8218 8206 8196 8198 
8224 8221 8220 8217 8218 8220 8216 8221 8220 8224 8225 8228 8231 8229 8230 8227 8225 8227 8230 8227 8228 8231 8232 8231 8231 8233 8230 8229 8233 8227 8168 8116 8109 8117 8106 8097 8097 8105 8111 8131 8139 8147 8118 8114 8129 8143 8124 8114 8110 8106 8102 8106 8102 8103 8109 8155 8220 8238 8234 8224 8224 8223 8226 8230 8229 8235 8228 8231 8227 8230 8228 8228 8226 8225 8224 8221 8224 8213 8198 8197 
8226 8220 8224 8222 8222 8222 8221 8220 8222 8220 8227 8228 8230 8230 8229 8228 8230 8230 8227 8226 8227 8231 8231 8230 8230 8232 8230 8232 8232 8220 8133 8109 8115 8127 8098 8092 8096 8101 8122 8159 8157 8176 8152 8122 8163 8135 8114 8107 8118 8117 8116 8104 8103 8109 8131 8211 8257 8235 8242 8225 8222 8224 8225 8229 8230 8230 8228 8228 8229 8228 8227 8225 8228 8227 8229 8222 8222 8217 8197 8198 
8222 8221 8222 8223 8222 8221 8222 8224 8224 8225 8227 8231 8230 8231 8230 8229 8229 8229 8225 8225 8228 8229 8230 8228 8228 8234 8230 8233 8230 8194 8112 8109 8117 8104 8092 8093 8098 8103 8131 8146 8122 8129 8158 8157 8135 8117 8110 8106 8113 8123 8124 8114 8101 8108 8111 8159 8260 8246 8243 8240 8223 8221 8225 8227 8229 8229 8225 8229 8226 8225 8226 8226 8225 8229 8227 8229 8227 8222 8206 8207 
8223 8222 8223 8220 8219 8223 8221 8225 8225 8228 8229 8228 8231 8230 8229 8233 8229 8229 8227 8225 8227 8227 8227 8228 8228 8230 8229 8230 8225 8176 8110 8109 8113 8097 8098 8104 8115 8119 8122 8130 8136 8167 8175 8160 8121 8106 8105 8105 8106 8099 8106 8116 8106 8114 8111 8116 8131 8212 8242 8254 8230 8223 8226 8228 8226 8228 8227 8228 8226 8223 8224 8225 8227 8229 8228 8228 8229 8228 8213 8211 
8225 8221 8223 8221 8218 8222 8226 8225 8226 8229 8229 8230 8234 8230 8230 8229 8230 8227 8226 8223 8226 8224 8232 8228 8228 8229 8229 8230 8221 8166 8113 8124 8114 8109 8115 8114 8118 8138 8120 8126 8124 8156 8156 8137 8112 8106 8107 8107 8117 8105 8106 8125 8125 8118 8111 8112 8111 8126 8198 8253 8242 8227 8222 8223 8226 8226 8224 8226 8226 8225 8226 8225 8225 8225 8229 8229 8233 8228 8223 8215 
8225 8222 8226 8220 8221 8224 8228 8228 8229 8229 8232 8230 8234 8228 8230 8230 8226 8225 8224 8222 8223 8223 8226 8228 8230 8229 8228 8227 8221 8182 8135 8177 8112 8109 8111 8113 8145 8137 8117 8120 8118 8137 8136 8123 8106 8107 8111 8114 8104 8102 8109 8111 8124 8116 8113 8117 8116 8132 8163 8243 8255 8226 8225 8223 8224 8224 8225 8224 8226 8223 8225 8226 8225 8224 8226 8228 8232 8230 8228 8219 
8226 8228 8227 8226 8227 8228 8226 8232 8234 8231 8234 8233 8228 8229 8232 8230 8227 8227 8224 8225 8224 8225 8227 8227 8230 8229 8230 8229 8221 8204 8207 8174 8113 8111 8123 8136 8160 8139 8115 8115 8119 8126 8127 8123 8110 8120 8130 8118 8109 8107 8108 8103 8108 8116 8114 8138 8188 8248 8297 8276 8267 8227 8226 8224 8221 8227 8224 8224 8226 8227 8227 8227 8226 8224 8227 8231 8232 8230 8223 8227 
8230 8225 8228 8228 8229 8227 8229 8232 8232 8232 8233 8231 8231 8231 8232 8230 8229 8226 8224 8224 8224 8226 8225 8227 8230 8228 8230 8229 8224 8220 8232 8169 8123 8137 8161 8162 8161 8154 8120 8114 8134 8131 8126 8126 8123 8127 8128 8115 8110 8110 8107 8109 8103 8115 8110 8120 8178 8263 8311 8287 8273 8230 8228 8224 8224 8223 8222 8222 8224 8224 8229 8229 8226 8227 8225 8234 8233 8233 8228 8230 
8231 8227 8229 8228 8231 8226 8232 8227 8233 8232 8234 8232 8230 8230 8230 8226 8230 8227 8226 8225 8224 8226 8226 8227 8227 8231 8227 8227 8229 8230 8231 8183 8176 8171 8168 8162 8158 8162 8129 8119 8141 8140 8131 8131 8125 8130 8130 8114 8113 8112 8117 8118 8096 8110 8110 8111 8150 8248 8309 8294 8272 8233 8224 8224 8223 8223 8223 8223 8225 8224 8225 8227 8228 8225 8232 8236 8236 8235 8229 8227 
8230 8227 8232 8229 8230 8229 8231 8231 8233 8232 8233 8232 8228 8228 8227 8228 8229 8225 8224 8224 8228 8225 8223 8222 8226 8228 8225 8227 8232 8240 8233 8187 8178 8163 8173 8174 8171 8162 8156 8149 8160 8147 8143 8138 8134 8138 8140 8122 8116 8117 8121 8122 8099 8109 8109 8112 8112 8190 8305 8292 8271 8232 8230 8225 8222 8220 8220 8223 8224 8223 8228 8226 8226 8226 8229 8237 8238 8240 8234 8234 
8235 8232 8233 8233 8232 8230 8233 8233 8234 8232 8234 8232 8227 8225 8225 8227 8230 8227 8226 8224 8227 8229 8226 8223 8224 8224 8229 8228 8235 8252 8248 8198 8184 8167 8176 8180 8171 8168 8164 8160 8157 8149 8149 8148 8146 8145 8147 8127 8126 8118 8125 8138 8099 8114 8101 8106 8130 8181 8305 8294 8265 8230 8230 8225 8221 8223 8222 8225 8224 8223 8229 8224 8227 8229 8229 8234 8238 8240 8233 8234 
8234 8232 8235 8235 8233 8233 8229 8233 8235 8234 8234 8233 8233 8227 8225 8227 8228 8231 8227 8227 8227 8228 8225 8225 8224 8225 8226 8227 8233 8257 8269 8205 8183 8188 8185 8172 8168 8169 8169 8162 8164 8165 8157 8143 8149 8140 8128 8122 8127 8125 8113 8134 8135 8120 8097 8101 8159 8240 8316 8293 8248 8226 8223 8225 8223 8224 8224 8224 8223 8224 8225 8227 8227 8226 8230 8229 8234 8235 8233 8234 
8239 8235 8240 8234 8234 8236 8234 8235 8235 8230 8231 8231 8231 8231 8227 8227 8229 8228 8229 8228 8226 8224 8224 8225 8223 8223 8223 8225 8226 8251 8278 8229 8207 8206 8192 8182 8173 8171 8168 8166 8161 8170 8167 8152 8155 8156 8126 8126 8117 8117 8109 8125 8152 8148 8103 8116 8179 8255 8313 8279 8232 8221 8223 8223 8221 8222 8220 8225 8220 8222 8223 8227 8223 8224 8226 8231 8235 8234 8236 8236 
8241 8236 8242 8238 8236 8234 8234 8236 8234 8232 8233 8234 8229 8228 8228 8228 8228 8231 8230 8224 8228 8223 8224 8221 8223 8223 8220 8221 8219 8232 8279 8255 8218 8207 8204 8205 8190 8182 8185 8178 8163 8163 8171 8163 8164 8162 8155 8146 8121 8121 8109 8117 8149 8160 8124 8156 8193 8264 8294 8256 8223 8220 8221 8222 8223 8222 8220 8222 8222 8222 8224 8226 8225 8227 8229 8232 8234 8237 8238 8235 
8244 8238 8240 8239 8238 8239 8233 8237 8236 8236 8234 8235 8230 8229 8227 8230 8224 8225 8223 8225 8220 8225 8223 8225 8224 8221 8219 8222 8216 8210 8251 8282 8227 8222 8221 8218 8205 8196 8200 8194 8178 8170 8173 8170 8168 8163 8159 8152 8137 8136 8124 8147 8156 8161 8158 8173 8206 8267 8271 8234 8221 8220 8219 8223 8224 8222 8223 8222 8222 8222 8225 8223 8227 8227 8232 8233 8235 8237 8233 8235 
8240 8239 8244 8239 8238 8240 8235 8235 8236 8237 8236 8233 8230 8227 8227 8227 8227 8225 8223 8223 8221 8218 8219 8221 8219 8218 8218 8216 8209 8198 8202 8266 8256 8220 8228 8227 8213 8200 8195 8180 8181 8176 8175 8168 8165 8163 8159 8157 8157 8136 8147 8159 8157 8165 8172 8184 8231 8264 8248 8222 8219 8219 8223 8221 8222 8223 8223 8224 8222 8223 8227 8224 8226 8226 8227 8231 8230 8233 8232 8235 
8239 8239 8246 8240 8240 8240 8238 8235 8238 8232 8235 8231 8229 8228 8225 8223 8225 8221 8221 8224 8221 8221 8219 8217 8221 8218 8215 8214 8204 8198 8178 8210 8268 8226 8216 8229 8215 8210 8198 8185 8186 8182 8175 8170 8168 8163 8164 8157 8163 8160 8158 8163 8161 8172 8179 8218 8254 8248 8228 8222 8221 8222 8221 8221 8220 8221 8222 8222 8224 8224 8222 8223 8221 8224 8230 8231 8228 8227 8232 8232 
8240 8238 8243 8238 8236 8236 8236 8238 8236 8231 8232 8230 8226 8229 8227 8226 8221 8218 8219 8223 8221 8221 8217 8218 8217 8220 8218 8212 8200 8197 8180 8176 8217 8261 8232 8228 8223 8220 8223 8203 8201 8190 8179 8171 8164 8157 8169 8170 8172 8173 8168 8167 8170 8185 8203 8247 8239 8228 8223 8221 8220 8222 8222 8220 8222 8220 8221 8220 8222 8222 8220 8219 8219 8221 8227 8227 8226 8227 8226 8230 
8241 8239 8241 8237 8237 8236 8236 8236 8235 8234 8233 8231 8228 8227 8225 8225 8222 8220 8220 8222 8219 8220 8219 8215 8214 8216 8215 8213 8202 8199 8186 8174 8177 8209 8248 8234 8223 8230 8213 8208 8207 8201 8190 8183 8179 8177 8184 8190 8183 8167 8163 8171 8192 8220 8250 8242 8221 8225 8224 8222 8220 8222 8224 8222 8221 8221 8222 8219 8220 8219 8219 8219 8221 8223 8225 8226 8225 8225 8229 8225 
8242 8237 8242 8236 8238 8237 8235 8236 8237 8233 8233 8232 8230 8229 8225 8224 8224 8222 8219 8219 8222 8221 8219 8217 8219 8216 8212 8208 8203 8197 8191 8177 8169 8180 8206 8240 8240 8224 8211 8206 8198 8198 8200 8205 8196 8199 8193 8203 8191 8173 8174 8198 8232 8260 8231 8219 8222 8227 8225 8222 8222 8225 8226 8223 8223 8225 8221 8222 8221 8217 8219 8220 8223 8221 8225 8227 8227 8226 8228 8227 
8244 8242 8243 8237 8236 8239 8235 8236 8234 8234 8234 8232 8231 8230 8231 8225 8224 8221 8217 8221 8221 8219 8217 8215 8219 8217 8212 8211 8203 8201 8198 8190 8176 8173 8184 8196 8215 8233 8235 8225 8205 8201 8215 8222 8212 8212 8218 8217 8207 8203 8221 8248 8245 8229 8207 8217 8232 8229 8226 8227 8226 8227 8230 8230 8226 8228 8224 8226 8222 8219 8221 8222 8219 8220 8225 8226 8224 8225 8225 8226 
8246 8241 8244 8236 8237 8235 8236 8236 8234 8234 8232 8230 8231 8229 8230 8223 8225 8223 8221 8221 8219 8219 8221 8214 8216 8215 8211 8207 8203 8203 8198 8197 8184 8172 8174 8186 8181 8195 8221 8230 8232 8229 8230 8232 8228 8230 8243 8255 8259 8255 8242 8222 8216 8205 8208 8231 8236 8232 8230 8228 8232 8227 8232 8231 8228 8227 8226 8223 8222 8221 8223 8220 8221 8221 8221 8220 8221 8224 8225 8222 
8242 8239 8242 8241 8238 8236 8234 8233 8234 8232 8231 8231 8231 8229 8228 8224 8225 8226 8222 8223 8223 8221 8218 8216 8215 8215 8210 8208 8202 8203 8202 8197 8192 8182 8177 8178 8184 8180 8183 8192 8209 8222 8232 8241 8245 8253 8248 8243 8231 8216 8206 8213 8200 8206 8222 8238 8236 8232 8231 8229 8230 8233 8228 8231 8231 8228 8225 8223 8224 8225 8223 8219 8223 8219 8222 8221 8221 8224 8222 8225 
8245 8240 8249 8245 8241 8239 8236 8237 8230 8234 8229 8232 8230 8228 8227 8228 8227 8226 8228 8224 8224 8222 8221 8220 8217 8216 8213 8208 8204 8203 8201 8206 8203 8195 8183 8180 8179 8184 8183 8181 8186 8194 8198 8204 8206 8207 8211 8210 8212 8207 8209 8204 8200 8221 8235 8242 8235 8232 8229 8228 8228 8228 8235 8233 8230 8228 8227 8225 8222 8225 8224 8220 8222 8221 8223 8221 8220 8223 8222 8225 
8246 8245 8249 8245 8243 8240 8237 8238 8235 8232 8230 8232 8229 8232 8231 8231 8229 8229 8227 8227 8225 8224 8223 8220 8221 8217 8215 8214 8205 8205 8205 8209 8209 8201 8196 8191 8180 8179 8186 8191 8191 8192 8195 8197 8194 8203 8206 8208 8215 8212 8208 8210 8218 8232 8242 8243 8238 8232 8232 8226 8225 8228 8230 8230 8230 8227 8227 8227 8226 8223 8223 8224 8224 8224 8223 8222 8225 8225 8225 8226 
8245 8242 8242 8240 8241 8240 8237 8239 8237 8233 8231 8232 8231 8229 8229 8229 8230 8229 8229 8227 8225 8224 8225 8223 8220 8219 8217 8216 8208 8206 8210 8211 8214 8209 8202 8203 8197 8190 8190 8191 8198 8205 8207 8206 8205 8207 8210 8212 8212 8215 8216 8225 8228 8239 8241 8242 8235 8231 8229 8227 8225 8227 8230 8229 8229 8229 8223 8226 8224 8223 8223 8227 8226 8224 8223 8224 8221 8224 8223 8229 
8245 8238 8242 8236 8239 8240 8236 8238 8236 8234 8232 8230 8235 8230 8230 8229 8227 8226 8229 8227 8227 8228 8225 8225 8223 8222 8220 8219 8213 8213 8209 8215 8215 8214 8208 8205 8203 8205 8207 8209 8208 8207 8207 8204 8206 8210 8214 8220 8228 8231 8228 8229 8231 8240 8240 8239 8234 8232 8228 8226 8227 8226 8230 8233 8225 8230 8228 8226 8228 8230 8226 8227 8226 8226 8227 8227 8225 8225 8226 8231 
8244 8239 8241 8237 8240 8239 8239 8233 8232 8231 8233 8230 8230 8234 8229 8228 8228 8227 8227 8229 8228 8227 8224 8225 8225 8223 8221 8220 8220 8213 8212 8215 8218 8214 8210 8209 8206 8208 8213 8213 8218 8219 8220 8220 8221 8225 8227 8229 8236 8232 8229 8233 8236 8245 8236 8244 8238 8231 8230 8225 8231 8231 8228 8230 8228 8228 8227 8227 8226 8229 8228 8227 8228 8229 8226 8226 8225 8225 8223 8227 
8241 8239 8241 8237 8237 8237 8237 8237 8239 8232 8231 8232 8229 8232 8233 8231 8227 8229 8229 8227 8228 8228 8228 8229 8226 8222 8224 8221 8220 8217 8215 8215 8220 8216 8213 8214 8213 8213 8219 8217 8220 8222 8222 8225 8225 8227 8228 8230 8236 8236 8235 8239 8242 8246 8245 8242 8237 8234 8234 8228 8229 8231 8229 8231 8229 8230 8226 8226 8228 8229 8230 8230 8232 8229 8226 8228 8227 8225 8226 8228 
8241 8242 8242 8238 8241 8242 8237 8236 8236 8233 8232 8229 8233 8234 8233 8230 8231 8228 8229 8227 8229 8228 8227 8230 8228 8221 8225 8225 8223 8219 8214 8217 8221 8220 8217 8220 8220 8221 8222 8222 8224 8224 8225 8226 8227 8231 8233 8237 8242 8240 8244 8244 8243 8248 8245 8246 8237 8234 8229 8226 8230 8234 8234 8228 8231 8229 8229 8231 8229 8230 8229 8229 8228 8229 8227 8230 8226 8226 8228 8227 
8245 8245 8244 8239 8242 8241 8239 8237 8232 8235 8233 8231 8235 8233 8233 8232 8231 8228 8228 8226 8228 8229 8231 8230 8230 8227 8227 8227 8225 8219 8217 8218 8219 8217 8219 8221 8219 8224 8226 8225 8228 8230 8230 8234 8232 8234 8239 8240 8246 8249 8246 8248 8241 8248 8245 8246 8234 8232 8230 8227 8229 8231 8231 8231 8229 8229 8229 8229 8230 8227 8229 8229 8227 8230 8226 8223 8226 8226 8227 8231 
8250 8246 8249 8243 8241 8238 8240 8236 8235 8234 8234 8232 8232 8229 8233 8231 8232 8229 8227 8227 8227 8228 8228 8229 8229 8225 8227 8226 8227 8220 8222 8221 8223 8220 8219 8223 8223 8223 8225 8227 8229 8233 8235 8234 8234 8240 8242 8250 8254 8251 8249 8248 8245 8249 8247 8240 8237 8229 8228 8226 8227 8230 8231 8229 8227 8229 8226 8226 8228 8229 8228 8228 8228 8224 8225 8225 8226 8226 8225 8225 
8247 8250 8247 8245 8241 8241 8235 8236 8234 8234 8235 8231 8234 8236 8236 8231 8229 8225 8226 8227 8227 8231 8228 8230 8229 8224 8223 8229 8223 8225 8223 8221 8221 8221 8222 8225 8225 8223 8227 8229 8230 8234 8236 8238 8238 8243 8245 8254 8256 8255 8252 8247 8242 8247 8243 8242 8234 8227 8226 8221 8226 8229 8231 8232 8227 8228 8226 8226 8227 8227 8228 8226 8224 8223 8223 8223 8222 8226 8226 8222 
8254 8249 8249 8242 8238 8237 8237 8233 8235 8235 8236 8233 8236 8235 8232 8229 8225 8224 8224 8226 8226 8227 8228 8229 8231 8226 8223 8230 8226 8225 8220 8220 8222 8219 8220 8225 8221 8226 8231 8230 8231 8235 8237 8238 8238 8242 8248 8255 8261 8256 8250 8246 8243 8246 8243 8244 8234 8229 8224 8222 8225 8228 8229 8230 8226 8226 8229 8226 8229 8229 8229 8226 8224 8223 8221 8222 8222 8225 8226 8226 
8256 8252 8248 8242 8242 8235 8233 8233 8234 8235 8233 8233 8232 8235 8231 8226 8224 8222 8227 8224 8225 8226 8223 8224 8227 8231 8226 8228 8225 8225 8223 8223 8222 8221 8220 8223 8222 8224 8231 8233 8235 8232 8238 8236 8240 8245 8251 8254 8261 8258 8250 8245 8241 8243 8244 8237 8233 8232 8227 8223 8226 8228 8230 8229 8227 8230 8229 8229 8229 8228 8229 8224 8222 8222 8219 8217 8220 8220 8224 8226 
8258 8253 8250 8242 8238 8236 8230 8232 8232 8235 8232 8226 8232 8233 8225 8224 8222 8223 8222 8224 8223 8221 8223 8225 8228 8230 8231 8233 8228 8224 8221 8220 8222 8218 8218 8222 8223 8224 8231 8229 8230 8235 8235 8237 8238 8244 8249 8257 8259 8256 8250 8246 8241 8245 8242 8241 8231 8228 8226 8220 8220 8229 8228 8228 8227 8228 8229 8230 8232 8227 8231 8224 8222 8217 8219 8214 8217 8220 8223 8225 
8267 8248 8250 8241 8233 8232 8232 8232 8228 8232 8231 8224 8231 8229 8223 8224 8223 8220 8219 8221 8218 8221 8222 8225 8228 8231 8232 8236 8225 8222 8220 8218 8225 8220 8223 8226 8222 8223 8230 8231 8234 8232 8239 8235 8239 8249 8248 8260 8264 8257 8251 8244 8244 8240 8244 8241 8232 8223 8225 8219 8224 8229 8228 8227 8224 8228 8228 8229 8229 8230 8227 8225 8219 8220 8217 8214 8214 8221 8221 8222 


