P2
80 60
8322
8211 8218 8218 8219 8226 8226 8236 8234 8236 8225 8225 8228 8229 8231 8237 8245 8251 8255 8253 8255 8260 8257 8258 8265 8262 8265 8266 8268 8268 8273 8273 8274 8279 8281 8281 8284 8288 8290 8293 8284 8284 8277 8274 8273 8271 8266 8264 8260 8253 8254 8260 8261 8266 8269 8263 8254 8246 8244 8243 8233 8231 8231 8230 8230 8231 8229 8230 8232 8231 8229 8239 8253 8257 8256 8256 8257 8258 8263 8260 8255 
8215 8218 8222 8229 8229 8236 8244 8245 8240 8238 8238 8238 8243 8242 8242 8247 8252 8251 8255 8259 8257 8257 8261 8265 8265 8262 8268 8267 8272 8273 8272 8274 8279 8277 8280 8282 8284 8289 8290 8283 8280 8276 8270 8270 8271 8267 8265 8263 8256 8258 8261 8266 8269 8268 8262 8255 8247 8249 8244 8241 8237 8232 8231 8230 8230 8232 8232 8232 8231 8229 8237 8250 8252 8254 8253 8255 8257 8258 8258 8255 
8216 8223 8226 8236 8241 8245 8249 8248 8242 8248 8246 8243 8247 8249 8248 8252 8255 8255 8257 8263 8257 8260 8263 8261 8264 8268 8266 8269 8269 8274 8269 8274 8275 8275 8279 8282 8283 8286 8285 8282 8278 8272 8267 8269 8268 8265 8265 8264 8259 8261 8268 8269 8270 8268 8263 8257 8249 8249 8248 8243 8245 8244 8239 8235 8235 8234 8230 8234 8234 8233 8233 8249 8249 8249 8253 8255 8256 8254 8255 8252 
8216 8223 8233 8244 8244 8252 8250 8247 8251 8249 8246 8247 8249 8250 8253 8252 8254 8254 8259 8259 8260 8258 8258 8259 8260 8262 8268 8268 8271 8273 8270 8274 8276 8276 8280 8283 8285 8284 8285 8281 8277 8273 8266 8268 8268 8264 8262 8264 8258 8262 8270 8272 8267 8264 8264 8256 8254 8253 8252 8249 8248 8250 8246 8242 8241 8238 8232 8232 8235 8237 8233 8245 8248 8248 8250 8255 8253 8252 8251 8251 
8220 8226 8235 8246 8249 8251 8251 8253 8254 8252 8246 8247 8250 8252 8254 8254 8255 8256 8256 8259 8257 8259 8259 8259 8262 8263 8265 8270 8272 8273 8277 8275 8278 8279 8279 8282 8285 8286 8285 8282 8278 8272 8267 8268 8268 8266 8263 8267 8262 8264 8272 8271 8271 8265 8265 8260 8255 8258 8255 8254 8255 8254 8251 8251 8249 8246 8240 8239 8238 8235 8235 8241 8246 8248 8249 8253 8250 8250 8248 8250 
8223 8224 8232 8244 8251 8251 8255 8255 8253 8252 8249 8246 8253 8256 8255 8256 8257 8257 8259 8262 8264 8264 8264 8265 8263 8266 8267 8266 8270 8276 8274 8273 8277 8278 8278 8283 8285 8285 8286 8286 8276 8270 8266 8268 8267 8266 8264 8265 8260 8265 8275 8274 8275 8274 8267 8262 8261 8261 8258 8256 8257 8259 8253 8252 8252 8250 8245 8246 8243 8241 8237 8236 8243 8246 8249 8248 8246 8247 8250 8255 
8226 8230 8233 8249 8254 8253 8254 8257 8253 8250 8252 8252 8255 8255 8255 8257 8259 8258 8262 8264 8268 8267 8268 8265 8265 8266 8269 8273 8275 8275 8273 8274 8282 8281 8281 8282 8283 8284 8286 8281 8274 8271 8269 8270 8268 8269 8265 8268 8263 8270 8276 8278 8277 8274 8274 8271 8272 8273 8270 8270 8264 8257 8256 8253 8255 8258 8256 8254 8252 8250 8243 8239 8243 8247 8246 8244 8244 8240 8249 8250 
8228 8233 8234 8253 8255 8252 8258 8258 8252 8252 8254 8256 8259 8257 8258 8258 8261 8259 8264 8266 8270 8271 8270 8269 8264 8266 8268 8272 8271 8277 8275 8275 8282 8280 8280 8283 8282 8284 8284 8281 8275 8272 8266 8271 8273 8273 8268 8270 8266 8271 8280 8278 8280 8279 8276 8271 8274 8276 8278 8275 8272 8269 8261 8258 8262 8263 8258 8261 8259 8256 8253 8248 8245 8240 8241 8244 8242 8242 8254 8251 
8234 8236 8241 8253 8255 8254 8258 8258 8255 8255 8253 8254 8257 8257 8257 8260 8261 8263 8268 8269 8271 8272 8269 8267 8267 8268 8267 8272 8273 8277 8274 8276 8281 8280 8282 8283 8283 8280 8283 8278 8274 8272 8271 8271 8272 8272 8270 8269 8267 8272 8279 8280 8281 8278 8277 8274 8273 8277 8280 8279 8278 8277 8270 8266 8268 8266 8263 8264 8261 8260 8257 8254 8251 8244 8241 8238 8242 8240 8257 8252 
8237 8243 8248 8255 8254 8250 8253 8250 8254 8253 8251 8251 8253 8257 8257 8254 8258 8260 8263 8266 8270 8265 8264 8263 8261 8261 8263 8269 8269 8274 8273 8271 8275 8275 8277 8274 8278 8278 8278 8276 8270 8273 8270 8272 8275 8272 8271 8270 8268 8269 8276 8279 8277 8278 8274 8273 8272 8274 8273 8277 8276 8277 8277 8277 8276 8278 8270 8269 8266 8264 8263 8261 8254 8244 8242 8235 8234 8242 8257 8253 
8237 8243 8246 8248 8246 8249 8246 8245 8245 8244 8243 8247 8249 8248 8248 8251 8251 8251 8255 8255 8264 8258 8255 8254 8251 8256 8258 8263 8262 8269 8267 8263 8269 8267 8264 8267 8268 8269 8272 8269 8271 8266 8266 8273 8273 8274 8269 8269 8262 8261 8268 8269 8273 8269 8268 8268 8268 8270 8270 8271 8272 8275 8276 8280 8281 8282 8281 8280 8276 8272 8264 8265 8259 8250 8238 8233 8234 8242 8259 8257 
8241 8238 8240 8240 8237 8238 8238 8239 8239 8241 8240 8242 8246 8246 8246 8247 8250 8247 8249 8256 8257 8255 8253 8253 8249 8253 8256 8262 8261 8262 8260 8260 8266 8265 8267 8265 8269 8268 8269 8268 8265 8267 8269 8271 8274 8270 8267 8268 8260 8258 8261 8263 8266 8265 8264 8258 8262 8262 8264 8264 8265 8268 8270 8274 8277 8276 8277 8282 8280 8275 8273 8276 8273 8260 8239 8233 8232 8249 8260 8258 
8240 8241 8237 8241 8243 8243 8244 8242 8244 8245 8247 8250 8249 8251 8246 8252 8253 8254 8252 8256 8260 8257 8255 8250 8254 8255 8259 8259 8262 8264 8264 8262 8269 8267 8272 8272 8270 8270 8271 8269 8269 8269 8268 8272 8273 8271 8266 8266 8260 8258 8263 8263 8268 8267 8264 8261 8259 8263 8264 8265 8263 8262 8267 8266 8269 8272 8271 8277 8275 8273 8275 8277 8276 8273 8248 8235 8231 8251 8261 8262 
8245 8245 8242 8247 8251 8248 8250 8249 8248 8249 8251 8253 8256 8257 8255 8257 8265 8259 8258 8258 8259 8259 8257 8256 8256 8257 8259 8264 8266 8268 8265 8265 8274 8271 8276 8276 8275 8272 8271 8272 8270 8271 8271 8273 8270 8269 8268 8268 8260 8264 8266 8269 8267 8270 8266 8266 8264 8267 8269 8268 8268 8268 8266 8266 8267 8268 8272 8273 8271 8269 8275 8274 8274 8273 8252 8234 8233 8252 8267 8263 
8247 8247 8252 8257 8257 8256 8253 8249 8252 8253 8252 8259 8257 8261 8262 8260 8264 8266 8264 8264 8264 8260 8257 8258 8259 8258 8258 8267 8268 8272 8269 8271 8276 8275 8275 8278 8274 8276 8273 8269 8269 8272 8273 8272 8270 8268 8267 8264 8259 8262 8271 8269 8274 8267 8270 8271 8266 8266 8272 8269 8272 8271 8269 8268 8272 8273 8269 8273 8272 8270 8271 8275 8269 8271 8259 8235 8232 8256 8271 8267 
8249 8249 8253 8257 8258 8251 8254 8254 8256 8257 8258 8262 8264 8259 8261 8262 8266 8265 8269 8269 8266 8263 8260 8263 8260 8263 8264 8265 8269 8275 8271 8269 8277 8278 8278 8278 8277 8278 8277 8271 8266 8269 8270 8272 8268 8266 8263 8264 8261 8262 8269 8268 8268 8268 8267 8267 8266 8268 8274 8270 8272 8272 8268 8271 8271 8276 8272 8276 8278 8279 8276 8277 8274 8273 8268 8242 8232 8254 8269 8263 
8252 8254 8254 8259 8255 8257 8255 8257 8257 8262 8259 8262 8261 8264 8262 8265 8267 8265 8267 8267 8266 8266 8264 8264 8262 8260 8264 8268 8272 8273 8267 8269 8278 8275 8279 8283 8280 8274 8270 8269 8266 8266 8270 8268 8269 8266 8265 8264 8262 8263 8267 8269 8269 8265 8264 8267 8265 8269 8270 8271 8269 8272 8271 8274 8277 8277 8274 8278 8276 8278 8277 8280 8277 8278 8272 8259 8236 8253 8262 8263 
8254 8256 8257 8257 8257 8257 8263 8259 8261 8259 8263 8263 8265 8266 8263 8265 8269 8268 8269 8266 8271 8267 8267 8263 8261 8266 8267 8269 8269 8267 8267 8269 8277 8275 8278 8280 8277 8273 8270 8265 8267 8266 8269 8270 8266 8267 8263 8264 8263 8269 8268 8268 8269 8266 8262 8264 8266 8269 8269 8268 8271 8272 8269 8271 8275 8276 8276 8278 8277 8277 8278 8278 8276 8279 8276 8269 8247 8245 8259 8256 
8254 8254 8252 8257 8256 8257 8263 8261 8261 8262 8263 8264 8268 8268 8266 8268 8269 8266 8267 8267 8269 8268 8266 8266 8264 8265 8266 8270 8269 8266 8266 8270 8278 8277 8277 8281 8277 8272 8268 8264 8263 8268 8266 8270 8268 8264 8266 8267 8264 8266 8271 8268 8268 8264 8265 8265 8265 8264 8268 8264 8266 8269 8274 8270 8274 8276 8275 8278 8277 8280 8280 8275 8277 8277 8279 8274 8253 8243 8256 8255 
8258 8256 8254 8256 8256 8258 8262 8263 8263 8266 8267 8267 8271 8268 8267 8269 8270 8268 8270 8268 8269 8272 8271 8270 8268 8268 8270 8272 8270 8268 8268 8274 8279 8278 8279 8282 8277 8273 8270 8267 8268 8270 8270 8269 8271 8270 8268 8271 8267 8269 8274 8269 8267 8268 8266 8264 8262 8269 8269 8267 8265 8269 8271 8271 8277 8275 8277 8277 8275 8276 8276 8274 8274 8275 8278 8278 8261 8245 8252 8251 
8256 8257 8256 8257 8257 8258 8261 8261 8264 8264 8265 8268 8270 8270 8268 8269 8270 8271 8269 8271 8276 8275 8273 8270 8268 8268 8268 8269 8271 8269 8270 8271 8278 8277 8278 8281 8278 8276 8270 8267 8270 8268 8268 8271 8271 8269 8267 8267 8267 8272 8273 8268 8269 8265 8264 8263 8263 8268 8267 8264 8266 8268 8269 8272 8274 8277 8276 8277 8276 8273 8274 8275 8274 8270 8274 8272 8266 8251 8251 8251 
8258 8258 8259 8259 8256 8259 8267 8261 8265 8267 8267 8268 8271 8269 8271 8273 8273 8270 8273 8274 8275 8276 8275 8275 8271 8272 8272 8273 8273 8270 8270 8277 8281 8280 8281 8282 8275 8267 8263 8258 8256 8258 8261 8270 8268 8267 8268 8269 8267 8268 8271 8272 8270 8267 8262 8264 8265 8268 8264 8263 8267 8269 8270 8270 8272 8273 8276 8277 8276 8274 8273 8272 8269 8270 8270 8272 8267 8261 8253 8253 
8265 8264 8261 8266 8261 8260 8265 8262 8261 8264 8267 8270 8272 8278 8272 8276 8275 8273 8271 8276 8279 8278 8278 8277 8275 8274 8271 8271 8274 8275 8273 8275 8278 8279 8267 8252 8236 8232 8231 8229 8232 8233 8236 8244 8246 8257 8265 8268 8268 8269 8271 8271 8272 8269 8268 8265 8265 8266 8265 8268 8270 8269 8270 8272 8277 8277 8278 8278 8278 8275 8276 8272 8272 8269 8273 8272 8269 8267 8252 8256 
8267 8271 8265 8268 8261 8264 8265 8262 8261 8268 8270 8273 8279 8277 8277 8277 8278 8278 8277 8277 8280 8281 8281 8279 8275 8278 8275 8275 8276 8275 8270 8276 8265 8239 8225 8223 8223 8220 8224 8226 8227 8229 8231 8229 8232 8234 8236 8253 8261 8269 8275 8269 8272 8269 8266 8265 8264 8266 8266 8268 8270 8271 8271 8276 8275 8278 8274 8277 8278 8277 8275 8278 8277 8271 8271 8275 8270 8268 8254 8253 
8268 8268 8268 8267 8266 8265 8270 8265 8261 8267 8270 8273 8278 8277 8276 8276 8278 8278 8277 8278 8280 8279 8281 8277 8273 8272 8275 8273 8274 8275 8267 8245 8226 8221 8217 8220 8225 8230 8235 8233 8237 8236 8242 8239 8235 8235 8235 8230 8235 8257 8269 8268 8268 8268 8266 8271 8267 8267 8268 8268 8271 8269 8274 8274 8274 8275 8277 8276 8277 8275 8273 8276 8275 8274 8275 8274 8271 8271 8256 8255 
8267 8269 8268 8272 8268 8265 8268 8266 8268 8270 8270 8272 8278 8278 8278 8276 8279 8277 8275 8275 8278 8278 8278 8276 8274 8275 8276 8275 8273 8271 8238 8223 8217 8217 8225 8230 8226 8230 8234 8238 8239 8238 8240 8238 8238 8243 8246 8233 8222 8228 8257 8269 8272 8269 8270 8271 8267 8268 8265 8269 8269 8269 8272 8274 8276 8275 8277 8277 8274 8272 8271 8276 8277 8275 8274 8273 8271 8274 8260 8262 
8267 8269 8267 8268 8266 8267 8268 8268 8270 8272 8268 8274 8277 8281 8276 8278 8280 8277 8275 8274 8275 8275 8275 8278 8275 8275 8274 8272 8267 8238 8221 8218 8226 8229 8226 8233 8243 8256 8266 8270 8275 8274 8270 8261 8250 8240 8240 8238 8228 8218 8231 8257 8269 8271 8272 8273 8272 8271 8269 8269 8269 8269 8270 8276 8275 8274 8275 8275 8274 8276 8275 8277 8277 8276 8279 8279 8278 8280 8271 8266 
8265 8268 8267 8268 8265 8265 8271 8268 8273 8275 8275 8278 8278 8277 8277 8275 8280 8277 8270 8271 8275 8271 8278 8277 8276 8274 8274 8269 8246 8224 8218 8228 8230 8227 8248 8275 8292 8292 8289 8286 8299 8301 8296 8293 8284 8272 8254 8240 8232 8222 8216 8232 8263 8270 8274 8274 8276 8275 8274 8272 8268 8272 8272 8271 8274 8273 8273 8274 8275 8273 8274 8275 8273 8277 8280 8282 8284 8282 8280 8269 
8266 8269 8265 8268 8267 8270 8273 8272 8275 8275 8280 8277 8279 8277 8279 8277 8276 8274 8273 8271 8270 8273 8274 8274 8273 8273 8272 8257 8228 8223 8221 8223 8233 8260 8289 8303 8276 8230 8210 8236 8273 8280 8212 8230 8273 8296 8290 8266 8237 8226 8219 8219 8247 8269 8273 8272 8277 8274 8275 8271 8268 8272 8273 8275 8275 8274 8271 8273 8272 8273 8272 8275 8272 8273 8277 8284 8288 8286 8281 8273 
8268 8273 8267 8273 8271 8273 8275 8273 8276 8280 8279 8278 8279 8277 8277 8277 8277 8272 8270 8271 8273 8274 8275 8276 8275 8271 8272 8238 8224 8218 8218 8233 8272 8309 8281 8221 8189 8200 8227 8263 8278 8271 8220 8193 8199 8245 8288 8297 8267 8236 8225 8213 8231 8263 8271 8271 8273 8275 8272 8271 8270 8271 8273 8274 8275 8273 8269 8270 8273 8271 8274 8273 8272 8275 8277 8284 8286 8285 8279 8279 
8272 8271 8269 8273 8275 8271 8276 8276 8280 8279 8282 8278 8277 8277 8277 8277 8278 8273 8273 8273 8277 8278 8275 8280 8277 8275 8264 8227 8221 8225 8219 8261 8314 8294 8203 8198 8239 8260 8248 8226 8217 8218 8244 8255 8241 8210 8216 8283 8298 8263 8231 8220 8222 8254 8271 8275 8274 8274 8275 8271 8270 8272 8273 8275 8272 8274 8269 8270 8271 8269 8272 8277 8271 8273 8278 8289 8287 8289 8280 8279 
8274 8275 8272 8273 8278 8272 8280 8276 8279 8282 8281 8281 8279 8275 8276 8273 8280 8274 8274 8275 8276 8277 8278 8281 8273 8274 8248 8221 8220 8230 8244 8292 8299 8210 8212 8272 8285 8233 8190 8195 8192 8191 8197 8222 8246 8263 8214 8225 8293 8291 8247 8229 8218 8244 8269 8273 8272 8275 8274 8271 8271 8277 8275 8273 8276 8272 8269 8269 8270 8269 8270 8272 8270 8272 8276 8283 8286 8290 8284 8280 
8277 8276 8273 8279 8277 8273 8279 8280 8282 8281 8282 8281 8277 8278 8274 8275 8275 8271 8275 8272 8277 8278 8275 8276 8275 8271 8240 8223 8226 8227 8265 8299 8238 8215 8276 8293 8278 8276 8267 8266 8264 8268 8261 8258 8264 8278 8248 8196 8279 8307 8270 8238 8226 8241 8269 8272 8273 8276 8277 8272 8274 8275 8275 8272 8272 8269 8271 8269 8269 8270 8271 8273 8268 8271 8270 8276 8278 8283 8280 8277 
8280 8280 8279 8280 8279 8276 8282 8279 8281 8279 8286 8282 8278 8275 8277 8277 8276 8273 8274 8277 8278 8277 8276 8277 8273 8270 8239 8229 8231 8229 8284 8322 8261 8282 8301 8286 8280 8284 8281 8286 8284 8281 8273 8270 8215 8221 8277 8261 8280 8311 8282 8242 8233 8239 8266 8272 8271 8276 8274 8272 8272 8272 8272 8273 8273 8270 8268 8270 8266 8272 8272 8272 8270 8269 8268 8275 8274 8278 8275 8276 
8282 8280 8278 8283 8278 8279 8280 8279 8283 8285 8282 8281 8283 8281 8276 8278 8276 8281 8277 8279 8280 8280 8275 8278 8275 8272 8236 8233 8237 8255 8309 8311 8249 8284 8300 8286 8287 8286 8285 8289 8292 8290 8280 8271 8209 8186 8273 8285 8278 8293 8279 8243 8235 8242 8268 8273 8271 8274 8272 8271 8271 8270 8269 8271 8270 8271 8267 8268 8266 8268 8270 8270 8267 8269 8269 8270 8272 8274 8274 8270 
8285 8285 8281 8280 8281 8283 8282 8278 8282 8282 8281 8284 8283 8280 8279 8277 8278 8279 8280 8279 8281 8277 8280 8279 8273 8272 8240 8239 8240 8260 8308 8237 8208 8255 8297 8288 8288 8289 8290 8292 8294 8296 8292 8283 8237 8202 8274 8285 8279 8296 8291 8248 8232 8239 8270 8272 8273 8275 8275 8273 8269 8268 8267 8268 8270 8265 8266 8264 8267 8268 8271 8271 8268 8268 8271 8271 8272 8274 8275 8276 
8284 8282 8282 8282 8281 8281 8281 8280 8281 8281 8281 8282 8282 8280 8281 8277 8280 8278 8282 8281 8282 8279 8280 8277 8273 8273 8245 8232 8237 8255 8282 8219 8199 8268 8290 8282 8285 8282 8286 8289 8294 8295 8292 8289 8269 8261 8286 8290 8289 8304 8298 8249 8236 8249 8272 8274 8275 8271 8272 8271 8267 8266 8265 8266 8268 8269 8265 8265 8267 8267 8269 8268 8267 8270 8273 8274 8273 8276 8275 8276 
8283 8282 8279 8285 8283 8284 8284 8280 8280 8282 8281 8284 8283 8278 8278 8279 8277 8275 8275 8280 8275 8279 8278 8277 8274 8271 8256 8231 8233 8253 8282 8218 8196 8260 8286 8279 8282 8281 8278 8281 8290 8291 8290 8285 8278 8280 8287 8263 8275 8304 8292 8245 8234 8260 8270 8272 8275 8273 8272 8269 8270 8265 8263 8265 8269 8267 8265 8266 8265 8268 8268 8269 8267 8271 8274 8280 8277 8281 8277 8278 
8280 8286 8286 8284 8284 8283 8282 8281 8280 8282 8282 8281 8280 8278 8278 8278 8276 8275 8275 8275 8276 8275 8275 8276 8272 8271 8268 8231 8233 8248 8284 8251 8194 8207 8272 8284 8281 8274 8272 8270 8278 8281 8275 8277 8278 8291 8274 8203 8252 8314 8288 8237 8239 8269 8272 8274 8272 8273 8273 8270 8270 8266 8265 8266 8268 8267 8267 8266 8268 8266 8267 8269 8268 8270 8276 8279 8281 8281 8280 8282 
8283 8284 8285 8283 8282 8284 8282 8279 8282 8280 8283 8278 8276 8278 8274 8272 8274 8271 8273 8276 8276 8276 8274 8273 8273 8275 8270 8252 8233 8239 8271 8279 8220 8184 8227 8271 8268 8260 8251 8241 8248 8224 8215 8270 8285 8290 8276 8260 8291 8311 8264 8234 8256 8273 8276 8274 8273 8272 8272 8269 8268 8267 8267 8265 8266 8267 8265 8268 8266 8269 8265 8268 8268 8269 8277 8280 8279 8283 8283 8278 
8280 8284 8284 8284 8280 8279 8282 8280 8280 8281 8279 8275 8273 8277 8278 8275 8272 8270 8271 8275 8278 8276 8274 8276 8273 8280 8273 8266 8238 8229 8257 8288 8270 8195 8182 8216 8252 8248 8203 8211 8242 8230 8225 8271 8289 8281 8274 8291 8308 8281 8237 8243 8270 8275 8275 8274 8275 8277 8272 8270 8271 8270 8269 8268 8269 8268 8266 8269 8266 8268 8263 8268 8268 8270 8274 8276 8277 8280 8281 8282 
8281 8285 8282 8282 8279 8277 8279 8276 8278 8281 8279 8274 8275 8273 8272 8272 8272 8268 8271 8274 8273 8274 8275 8273 8271 8275 8274 8270 8256 8231 8232 8266 8283 8245 8182 8173 8189 8213 8250 8264 8266 8268 8271 8277 8268 8270 8285 8302 8284 8244 8241 8264 8274 8277 8277 8277 8276 8274 8275 8272 8269 8271 8270 8272 8267 8270 8269 8268 8267 8267 8267 8266 8267 8270 8270 8277 8277 8279 8279 8281 
8285 8282 8284 8283 8278 8277 8278 8279 8280 8280 8278 8276 8277 8276 8271 8272 8274 8267 8269 8270 8274 8273 8275 8276 8274 8275 8276 8271 8266 8251 8228 8230 8261 8268 8242 8192 8200 8223 8249 8268 8267 8266 8268 8273 8256 8275 8282 8283 8249 8239 8263 8272 8275 8279 8275 8279 8276 8276 8276 8272 8274 8273 8270 8271 8270 8271 8269 8271 8269 8264 8265 8269 8268 8268 8272 8276 8278 8283 8282 8280 
8283 8287 8283 8281 8277 8277 8275 8275 8276 8277 8276 8275 8276 8278 8275 8268 8271 8268 8268 8270 8273 8273 8273 8274 8274 8275 8274 8276 8270 8263 8249 8229 8233 8245 8254 8254 8249 8257 8268 8268 8267 8269 8274 8280 8283 8280 8267 8247 8246 8260 8271 8276 8277 8276 8276 8275 8278 8275 8275 8273 8272 8272 8272 8272 8274 8276 8270 8272 8268 8269 8268 8270 8266 8269 8273 8273 8272 8279 8279 8277 
8287 8285 8282 8278 8280 8275 8280 8276 8277 8278 8276 8274 8278 8274 8271 8270 8273 8272 8270 8272 8272 8272 8277 8274 8272 8276 8274 8279 8276 8271 8258 8255 8242 8226 8230 8244 8254 8272 8276 8277 8274 8278 8280 8280 8266 8253 8247 8258 8264 8267 8274 8275 8279 8276 8274 8273 8274 8277 8277 8279 8276 8275 8274 8274 8272 8276 8271 8274 8274 8272 8270 8273 8273 8271 8273 8276 8275 8278 8277 8279 
8288 8287 8282 8285 8281 8280 8279 8277 8277 8279 8277 8275 8277 8276 8272 8272 8272 8274 8273 8272 8274 8271 8272 8271 8268 8274 8274 8276 8278 8277 8266 8257 8256 8247 8236 8232 8228 8237 8244 8250 8253 8252 8246 8249 8253 8261 8264 8267 8266 8268 8275 8276 8276 8276 8272 8274 8274 8275 8278 8276 8275 8274 8274 8275 8278 8275 8272 8273 8275 8272 8274 8275 8274 8273 8275 8277 8276 8279 8278 8277 
8291 8288 8287 8288 8284 8282 8281 8279 8275 8278 8275 8277 8276 8276 8273 8274 8278 8272 8277 8271 8273 8274 8273 8274 8271 8273 8275 8276 8279 8279 8269 8263 8261 8251 8250 8252 8248 8246 8247 8250 8248 8255 8259 8266 8266 8265 8267 8271 8272 8272 8275 8276 8274 8277 8271 8274 8273 8275 8274 8274 8271 8274 8277 8275 8276 8274 8273 8277 8277 8272 8274 8276 8274 8277 8277 8277 8275 8279 8282 8278 
8290 8289 8286 8287 8283 8281 8281 8278 8280 8277 8276 8279 8277 8275 8274 8274 8276 8274 8274 8276 8275 8272 8273 8271 8271 8271 8273 8276 8275 8278 8273 8271 8266 8259 8250 8250 8248 8250 8252 8252 8257 8261 8261 8267 8265 8266 8271 8271 8276 8276 8278 8274 8274 8272 8273 8270 8273 8274 8273 8273 8271 8273 8273 8277 8272 8273 8274 8278 8276 8272 8275 8276 8275 8280 8278 8275 8278 8280 8279 8280 
8289 8290 8283 8290 8286 8282 8284 8281 8283 8278 8278 8280 8278 8275 8275 8275 8276 8276 8274 8275 8277 8271 8276 8275 8272 8275 8274 8276 8277 8279 8275 8273 8275 8268 8262 8259 8256 8253 8255 8256 8261 8263 8262 8267 8269 8267 8272 8280 8278 8278 8273 8275 8275 8273 8272 8270 8273 8272 8275 8273 8271 8274 8276 8276 8275 8275 8269 8278 8276 8279 8279 8279 8277 8279 8280 8281 8280 8282 8280 8281 
8289 8287 8282 8283 8282 8281 8285 8281 8283 8279 8278 8278 8279 8277 8275 8274 8274 8272 8277 8274 8275 8271 8274 8275 8274 8275 8277 8275 8276 8278 8276 8272 8274 8270 8266 8264 8262 8261 8260 8260 8262 8266 8266 8269 8271 8270 8275 8282 8280 8277 8276 8274 8275 8269 8268 8268 8269 8278 8278 8271 8276 8273 8275 8276 8271 8275 8275 8275 8278 8279 8279 8281 8279 8283 8282 8284 8282 8286 8279 8280 
8287 8285 8281 8283 8285 8283 8284 8282 8279 8279 8280 8278 8278 8279 8279 8273 8277 8276 8273 8274 8273 8275 8277 8275 8272 8274 8276 8272 8277 8278 8274 8270 8274 8269 8268 8266 8266 8263 8268 8264 8270 8271 8271 8274 8273 8276 8278 8283 8279 8276 8276 8273 8273 8270 8265 8272 8274 8274 8278 8276 8278 8276 8274 8276 8277 8276 8273 8277 8278 8281 8279 8283 8284 8283 8283 8284 8285 8287 8282 8283 
8287 8288 8284 8283 8282 8284 8285 8281 8287 8279 8279 8279 8276 8279 8279 8276 8274 8277 8273 8274 8277 8277 8278 8277 8272 8272 8276 8274 8277 8278 8275 8272 8273 8270 8268 8268 8267 8265 8268 8271 8270 8274 8272 8275 8277 8278 8278 8279 8280 8280 8277 8276 8277 8273 8271 8272 8275 8279 8282 8277 8279 8278 8277 8277 8276 8276 8272 8278 8280 8281 8282 8285 8285 8285 8285 8287 8283 8288 8283 8283 
8287 8294 8287 8287 8285 8287 8289 8285 8285 8281 8278 8277 8278 8281 8278 8278 8279 8275 8274 8276 8279 8275 8277 8279 8273 8273 8275 8277 8275 8274 8271 8268 8273 8269 8268 8271 8268 8268 8271 8270 8271 8273 8272 8277 8277 8279 8277 8281 8281 8277 8275 8275 8272 8271 8272 8274 8277 8279 8282 8280 8278 8279 8279 8277 8280 8278 8278 8281 8280 8282 8283 8287 8284 8287 8287 8289 8285 8287 8287 8287 
8292 8292 8287 8285 8282 8283 8286 8282 8284 8280 8280 8279 8281 8281 8279 8277 8277 8275 8276 8276 8277 8276 8278 8279 8274 8275 8273 8274 8280 8275 8269 8269 8268 8264 8266 8268 8267 8269 8269 8269 8272 8274 8272 8276 8278 8275 8276 8281 8277 8278 8276 8276 8273 8273 8272 8274 8272 8277 8281 8279 8278 8277 8276 8276 8279 8279 8277 8279 8278 8281 8282 8285 8285 8288 8285 8285 8285 8287 8287 8287 
8295 8293 8290 8287 8284 8281 8282 8282 8278 8282 8280 8279 8281 8280 8278 8275 8276 8275 8276 8275 8275 8274 8276 8276 8273 8273 8272 8272 8279 8275 8271 8268 8269 8265 8262 8268 8266 8266 8266 8269 8270 8274 8270 8274 8274 8274 8274 8282 8276 8274 8276 8275 8275 8273 8272 8277 8276 8276 8280 8280 8276 8280 8277 8278 8279 8283 8278 8280 8284 8282 8281 8288 8286 8284 8284 8285 8281 8285 8286 8285 
8295 8295 8289 8286 8282 8285 8284 8282 8279 8283 8281 8278 8283 8284 8282 8277 8277 8275 8273 8276 8276 8277 8278 8277 8271 8270 8271 8275 8274 8276 8271 8267 8266 8264 8260 8264 8266 8263 8266 8267 8267 8271 8270 8277 8274 8276 8274 8281 8278 8276 8274 8274 8272 8268 8271 8272 8274 8276 8280 8274 8275 8280 8279 8280 8280 8278 8278 8280 8282 8285 8284 8285 8285 8283 8283 8284 8282 8289 8285 8284 
8296 8296 8291 8288 8280 8281 8284 8280 8280 8280 8283 8280 8283 8283 8278 8273 8274 8272 8272 8273 8274 8276 8277 8273 8271 8271 8272 8278 8275 8275 8269 8264 8265 8263 8260 8262 8262 8263 8265 8263 8265 8268 8268 8274 8274 8274 8272 8281 8282 8276 8275 8270 8273 8268 8270 8272 8276 8277 8277 8276 8277 8275 8276 8278 8281 8278 8282 8282 8283 8285 8282 8286 8282 8283 8283 8282 8284 8287 8289 8284 
8299 8296 8290 8284 8282 8277 8283 8278 8280 8282 8279 8278 8279 8277 8275 8274 8274 8271 8274 8271 8275 8273 8272 8272 8271 8273 8271 8274 8274 8274 8269 8263 8261 8259 8257 8260 8260 8257 8263 8265 8263 8264 8264 8269 8273 8271 8276 8279 8278 8277 8273 8270 8270 8267 8268 8266 8272 8280 8276 8275 8274 8278 8277 8276 8282 8281 8282 8283 8283 8284 8284 8282 8283 8284 8282 8276 8280 8287 8289 8287 
8303 8296 8290 8286 8281 8277 8279 8278 8278 8280 8278 8275 8277 8280 8273 8270 8270 8268 8270 8272 8274 8269 8273 8273 8272 8273 8274 8280 8275 8269 8265 8258 8262 8255 8256 8258 8257 8258 8261 8259 8262 8261 8262 8268 8270 8271 8273 8279 8276 8273 8273 8268 8268 8268 8268 8267 8268 8273 8277 8271 8271 8273 8275 8278 8279 8281 8282 8284 8287 8285 8286 8282 8285 8281 8280 8276 8277 8282 8285 8285 
8311 8295 8289 8282 8279 8276 8283 8279 8274 8281 8275 8272 8279 8274 8268 8269 8271 8268 8270 8272 8270 8273 8272 8271 8270 8274 8275 8279 8269 8272 8262 8255 8263 8256 8257 8260 8255 8257 8259 8262 8262 8261 8262 8264 8268 8274 8271 8278 8277 8270 8272 8267 8272 8263 8269 8268 8268 8270 8273 8267 8274 8272 8276 8276 8277 8277 8280 8283 8283 8284 8283 8283 8279 8281 8279 8276 8272 8282 8286 8286 


