P2
80 60
8307
8251 8249 8247 8253 8251 8257 8261 8257 8258 8259 8257 8256 8255 8254 8253 8253 8256 8254 8252 8257 8256 8259 8258 8258 8261 8264 8266 8267 8266 8267 8267 8265 8266 8265 8265 8267 8268 8268 8268 8269 8271 8271 8269 8275 8274 8272 8271 8272 8272 8274 8272 8272 8271 8267 8271 8271 8266 8268 8265 8264 8261 8267 8264 8266 8266 8265 8265 8268 8269 8272 8268 8270 8271 8272 8273 8274 8273 8276 8280 8275 
8251 8256 8251 8253 8252 8254 8257 8262 8260 8257 8258 8258 8256 8256 8252 8257 8259 8254 8254 8259 8256 8259 8261 8256 8265 8268 8268 8270 8269 8268 8264 8268 8267 8266 8265 8268 8266 8266 8265 8268 8271 8273 8269 8271 8272 8271 8271 8274 8268 8274 8274 8272 8272 8269 8269 8268 8267 8267 8264 8266 8263 8264 8267 8263 8270 8263 8264 8265 8269 8270 8273 8270 8271 8274 8275 8276 8270 8276 8277 8280 
8252 8253 8249 8252 8257 8255 8261 8259 8258 8257 8256 8255 8255 8256 8256 8256 8259 8256 8257 8261 8258 8264 8261 8260 8263 8268 8269 8270 8267 8266 8267 8270 8271 8267 8267 8268 8266 8266 8264 8265 8271 8271 8267 8272 8271 8270 8269 8271 8270 8272 8271 8273 8270 8266 8268 8268 8266 8265 8267 8262 8262 8266 8264 8264 8263 8264 8262 8266 8264 8271 8271 8271 8272 8271 8274 8273 8273 8274 8279 8280 
8253 8259 8253 8253 8254 8255 8257 8258 8258 8258 8257 8254 8256 8256 8259 8256 8260 8257 8259 8262 8261 8265 8263 8259 8268 8271 8272 8273 8269 8272 8269 8271 8274 8270 8269 8269 8268 8268 8268 8266 8270 8271 8265 8270 8270 8269 8268 8271 8270 8271 8273 8271 8269 8269 8264 8267 8264 8265 8265 8261 8259 8264 8263 8262 8263 8262 8266 8261 8266 8268 8267 8270 8267 8265 8270 8271 8271 8270 8278 8278 
8257 8255 8254 8255 8255 8257 8256 8259 8260 8260 8260 8260 8258 8257 8258 8259 8263 8259 8262 8267 8263 8270 8269 8264 8276 8277 8276 8275 8276 8276 8271 8276 8274 8277 8272 8275 8273 8274 8271 8271 8272 8271 8270 8271 8274 8268 8271 8273 8270 8270 8272 8270 8269 8269 8266 8265 8263 8265 8264 8264 8264 8262 8264 8265 8262 8264 8264 8264 8263 8263 8266 8267 8267 8266 8269 8269 8263 8270 8277 8281 
8259 8260 8255 8253 8256 8256 8257 8258 8258 8258 8256 8260 8262 8263 8262 8261 8268 8266 8264 8269 8269 8272 8270 8269 8276 8279 8281 8279 8279 8276 8275 8277 8277 8276 8277 8280 8274 8273 8272 8274 8274 8272 8270 8274 8273 8270 8270 8271 8270 8271 8272 8271 8269 8266 8267 8264 8263 8263 8263 8263 8263 8266 8266 8265 8268 8263 8262 8266 8264 8265 8266 8266 8261 8267 8263 8268 8263 8260 8268 8289 
8258 8259 8256 8253 8258 8261 8257 8260 8265 8261 8262 8260 8263 8267 8267 8267 8272 8269 8268 8272 8272 8273 8272 8270 8274 8280 8280 8282 8280 8278 8275 8276 8277 8275 8278 8277 8277 8274 8273 8273 8272 8273 8273 8271 8273 8270 8268 8272 8272 8273 8271 8269 8269 8269 8265 8265 8261 8262 8262 8263 8263 8265 8268 8265 8264 8265 8262 8265 8261 8265 8266 8266 8261 8267 8263 8262 8258 8260 8259 8282 
8259 8258 8256 8256 8257 8262 8262 8261 8266 8264 8266 8263 8265 8265 8266 8267 8269 8270 8272 8274 8271 8273 8272 8269 8279 8280 8279 8282 8277 8279 8277 8278 8277 8277 8278 8278 8275 8274 8270 8269 8273 8277 8272 8272 8275 8272 8271 8274 8271 8272 8272 8271 8270 8269 8265 8265 8261 8264 8262 8263 8263 8267 8264 8266 8264 8261 8263 8264 8261 8264 8264 8264 8264 8264 8262 8260 8260 8258 8263 8266 
8259 8259 8260 8261 8262 8263 8266 8263 8266 8264 8266 8263 8266 8267 8267 8267 8269 8269 8268 8271 8271 8272 8271 8272 8279 8281 8283 8280 8278 8281 8280 8280 8279 8277 8280 8278 8276 8274 8270 8269 8271 8270 8270 8271 8270 8271 8270 8273 8272 8271 8272 8272 8271 8268 8267 8266 8262 8263 8265 8261 8263 8267 8266 8262 8267 8265 8266 8264 8264 8261 8263 8261 8258 8261 8259 8259 8257 8259 8259 8265 
8260 8264 8261 8261 8261 8265 8267 8265 8269 8265 8265 8264 8265 8268 8264 8266 8270 8268 8269 8271 8269 8272 8275 8269 8276 8282 8284 8285 8285 8283 8281 8281 8278 8277 8275 8273 8272 8275 8272 8271 8272 8273 8270 8270 8270 8272 8267 8274 8268 8271 8272 8274 8272 8268 8268 8267 8265 8265 8265 8263 8266 8265 8266 8264 8266 8267 8267 8264 8265 8264 8263 8263 8258 8261 8260 8257 8259 8257 8264 8259 
8259 8265 8260 8261 8262 8266 8267 8265 8269 8266 8266 8264 8266 8271 8268 8266 8271 8268 8271 8270 8269 8272 8273 8272 8277 8284 8283 8286 8284 8280 8281 8280 8277 8275 8274 8275 8274 8275 8274 8271 8274 8270 8270 8273 8273 8271 8273 8276 8271 8271 8273 8271 8271 8270 8266 8266 8265 8265 8265 8264 8265 8265 8266 8268 8268 8265 8267 8265 8265 8267 8263 8266 8265 8267 8263 8265 8265 8264 8261 8267 
8260 8265 8260 8264 8261 8267 8265 8266 8269 8270 8267 8267 8265 8271 8270 8271 8273 8269 8269 8271 8267 8273 8273 8270 8279 8281 8280 8284 8282 8280 8279 8276 8277 8275 8275 8273 8273 8272 8272 8273 8272 8273 8271 8273 8272 8268 8271 8274 8270 8272 8273 8270 8274 8269 8267 8268 8265 8264 8265 8263 8266 8264 8266 8266 8262 8265 8264 8267 8267 8267 8267 8268 8266 8267 8265 8264 8264 8266 8264 8260 
8261 8265 8260 8264 8265 8267 8265 8264 8264 8268 8269 8264 8268 8271 8267 8268 8268 8269 8267 8269 8268 8271 8270 8269 8279 8277 8278 8278 8277 8279 8274 8274 8275 8275 8273 8275 8270 8271 8268 8272 8274 8269 8272 8271 8272 8269 8268 8271 8270 8272 8269 8271 8270 8267 8267 8267 8265 8265 8264 8263 8260 8267 8265 8264 8264 8266 8268 8266 8262 8264 8265 8266 8264 8269 8261 8263 8263 8265 8264 8266 
8264 8267 8262 8264 8265 8264 8262 8263 8265 8266 8262 8265 8269 8268 8269 8269 8270 8268 8266 8268 8268 8270 8270 8269 8277 8276 8277 8278 8274 8276 8273 8275 8273 8274 8274 8273 8271 8272 8270 8269 8271 8271 8269 8270 8267 8267 8269 8272 8269 8272 8274 8268 8267 8265 8266 8265 8265 8262 8262 8259 8262 8264 8265 8265 8265 8264 8262 8265 8262 8260 8263 8263 8262 8264 8263 8264 8264 8264 8262 8263 
8263 8266 8261 8264 8263 8263 8260 8263 8264 8266 8266 8264 8266 8269 8268 8268 8272 8269 8265 8269 8265 8268 8268 8267 8276 8278 8275 8275 8273 8275 8274 8272 8273 8273 8271 8271 8274 8268 8269 8269 8268 8267 8268 8269 8271 8266 8267 8269 8269 8269 8270 8267 8269 8265 8266 8265 8261 8262 8261 8261 8261 8265 8263 8261 8263 8263 8262 8263 8261 8258 8258 8260 8256 8258 8261 8262 8259 8260 8261 8261 
8267 8267 8261 8265 8260 8262 8262 8263 8265 8265 8267 8267 8268 8268 8269 8267 8269 8266 8268 8266 8267 8270 8267 8268 8277 8279 8277 8276 8276 8277 8276 8272 8274 8270 8270 8271 8271 8267 8264 8267 8266 8267 8265 8267 8268 8267 8267 8267 8265 8269 8268 8267 8268 8266 8264 8264 8264 8263 8262 8261 8260 8265 8262 8263 8262 8260 8259 8258 8256 8256 8254 8256 8255 8255 8256 8259 8260 8259 8256 8259 
8263 8270 8261 8261 8263 8262 8260 8264 8266 8267 8265 8266 8264 8264 8265 8268 8267 8267 8266 8269 8267 8269 8267 8264 8273 8277 8277 8280 8278 8278 8276 8275 8271 8268 8270 8271 8266 8263 8262 8264 8263 8264 8267 8266 8265 8266 8264 8266 8266 8269 8268 8268 8263 8267 8263 8263 8264 8264 8262 8262 8260 8263 8261 8261 8259 8257 8254 8257 8254 8257 8256 8252 8250 8252 8253 8255 8254 8254 8253 8254 
8265 8268 8263 8262 8260 8262 8263 8261 8265 8265 8266 8264 8266 8268 8268 8265 8268 8268 8263 8268 8267 8269 8266 8267 8274 8278 8275 8281 8281 8275 8274 8274 8267 8265 8258 8249 8245 8242 8239 8239 8241 8246 8253 8262 8263 8263 8264 8265 8265 8267 8266 8267 8268 8266 8264 8265 8267 8262 8261 8261 8259 8262 8259 8259 8260 8258 8253 8254 8255 8255 8254 8253 8253 8255 8252 8253 8251 8253 8250 8255 
8263 8266 8259 8260 8260 8263 8260 8263 8267 8267 8267 8264 8268 8269 8267 8267 8266 8266 8266 8270 8269 8267 8267 8269 8277 8277 8277 8279 8280 8273 8270 8263 8247 8241 8241 8240 8236 8238 8235 8234 8238 8236 8239 8242 8249 8258 8261 8266 8265 8263 8266 8267 8265 8261 8262 8266 8262 8261 8260 8261 8259 8261 8260 8258 8259 8257 8254 8254 8256 8252 8254 8255 8251 8251 8254 8253 8254 8250 8248 8249 
8263 8267 8260 8260 8257 8262 8259 8262 8264 8268 8267 8263 8266 8267 8265 8264 8267 8266 8264 8269 8266 8267 8266 8265 8272 8274 8275 8275 8275 8269 8250 8240 8237 8236 8239 8236 8238 8235 8233 8236 8237 8237 8235 8239 8240 8239 8248 8259 8263 8264 8266 8266 8263 8268 8265 8263 8260 8259 8260 8259 8261 8260 8261 8261 8259 8257 8256 8254 8253 8253 8252 8251 8249 8248 8249 8251 8253 8250 8250 8249 
8265 8265 8261 8260 8262 8262 8263 8262 8266 8264 8264 8263 8265 8269 8267 8267 8267 8266 8265 8269 8269 8266 8265 8265 8274 8271 8273 8273 8268 8246 8238 8233 8234 8235 8239 8240 8240 8241 8241 8237 8238 8236 8236 8239 8237 8235 8241 8246 8257 8265 8269 8267 8267 8264 8265 8262 8262 8262 8259 8258 8259 8258 8261 8260 8259 8259 8257 8256 8252 8253 8251 8250 8248 8249 8249 8249 8251 8247 8246 8249 
8267 8267 8259 8261 8261 8260 8263 8261 8264 8265 8264 8263 8266 8267 8264 8263 8266 8266 8266 8268 8266 8267 8267 8264 8271 8273 8270 8264 8245 8232 8233 8234 8237 8241 8244 8250 8253 8255 8253 8252 8250 8244 8243 8237 8237 8237 8237 8243 8246 8259 8265 8265 8265 8261 8262 8262 8263 8261 8259 8257 8257 8260 8258 8258 8261 8255 8254 8254 8253 8252 8250 8250 8250 8251 8247 8248 8246 8247 8246 8250 
8266 8266 8258 8264 8262 8264 8265 8260 8267 8263 8263 8263 8265 8272 8264 8264 8266 8266 8266 8265 8264 8267 8265 8263 8268 8272 8267 8245 8234 8231 8233 8236 8243 8252 8262 8267 8269 8269 8265 8265 8265 8266 8258 8252 8240 8237 8240 8242 8247 8251 8261 8264 8265 8263 8262 8263 8260 8261 8261 8257 8259 8260 8258 8256 8259 8256 8254 8255 8251 8253 8249 8250 8248 8252 8248 8247 8249 8244 8244 8246 
8265 8264 8259 8259 8260 8266 8259 8263 8267 8265 8265 8266 8267 8268 8268 8269 8267 8268 8265 8266 8267 8267 8265 8264 8270 8269 8254 8236 8231 8233 8235 8245 8263 8268 8266 8267 8270 8271 8266 8271 8268 8267 8267 8265 8256 8249 8242 8243 8248 8256 8259 8262 8264 8262 8262 8261 8260 8259 8260 8257 8258 8260 8257 8260 8258 8259 8257 8257 8254 8253 8250 8248 8252 8249 8249 8246 8248 8247 8244 8244 
8265 8268 8260 8261 8264 8264 8262 8263 8267 8267 8265 8266 8267 8270 8269 8268 8266 8265 8267 8267 8265 8266 8265 8263 8269 8264 8240 8235 8233 8236 8243 8262 8264 8263 8264 8267 8270 8268 8267 8268 8271 8269 8269 8266 8262 8260 8248 8246 8250 8261 8258 8258 8262 8258 8261 8260 8261 8260 8258 8258 8258 8261 8259 8259 8263 8260 8257 8256 8255 8254 8252 8252 8249 8248 8246 8246 8246 8244 8246 8243 
8264 8267 8263 8260 8265 8263 8263 8264 8265 8264 8265 8267 8267 8266 8266 8266 8269 8265 8267 8269 8268 8268 8263 8261 8268 8250 8236 8232 8234 8242 8259 8259 8260 8262 8265 8266 8262 8261 8265 8266 8265 8268 8268 8270 8266 8262 8264 8252 8254 8262 8257 8256 8264 8260 8263 8262 8261 8260 8261 8257 8259 8263 8258 8261 8261 8260 8259 8259 8255 8258 8250 8250 8247 8247 8249 8248 8247 8246 8245 8248 
8267 8269 8261 8265 8264 8265 8263 8265 8267 8265 8266 8267 8266 8270 8268 8268 8268 8265 8267 8269 8266 8267 8263 8259 8260 8239 8234 8233 8235 8253 8256 8254 8257 8259 8256 8260 8261 8261 8263 8260 8267 8266 8266 8269 8266 8265 8263 8260 8251 8257 8252 8246 8260 8259 8259 8264 8260 8260 8260 8256 8259 8262 8262 8263 8259 8261 8260 8258 8254 8251 8252 8252 8247 8250 8246 8248 8247 8249 8245 8246 
8267 8272 8262 8264 8267 8267 8264 8268 8269 8266 8267 8266 8269 8271 8268 8265 8266 8266 8267 8268 8266 8266 8265 8262 8256 8235 8234 8234 8245 8254 8252 8256 8257 8257 8257 8257 8262 8264 8262 8258 8265 8267 8268 8269 8266 8265 8266 8268 8255 8252 8245 8245 8255 8263 8258 8262 8260 8259 8262 8259 8259 8264 8263 8264 8260 8262 8260 8259 8256 8256 8252 8252 8246 8249 8246 8246 8249 8248 8245 8249 
8270 8271 8264 8267 8264 8264 8267 8269 8269 8267 8270 8270 8268 8270 8266 8266 8270 8266 8270 8268 8267 8265 8264 8261 8248 8236 8236 8236 8254 8253 8255 8258 8256 8257 8266 8265 8263 8263 8265 8262 8262 8267 8268 8273 8274 8274 8275 8270 8265 8251 8243 8243 8250 8257 8261 8262 8259 8262 8260 8258 8262 8266 8266 8265 8259 8259 8259 8256 8255 8256 8251 8251 8246 8249 8248 8251 8250 8248 8248 8246 
8267 8271 8269 8268 8265 8268 8267 8268 8269 8267 8268 8265 8266 8269 8268 8267 8269 8268 8266 8267 8264 8264 8263 8260 8241 8234 8233 8241 8258 8257 8257 8264 8260 8269 8274 8273 8270 8273 8268 8268 8263 8266 8268 8277 8272 8274 8276 8274 8274 8255 8248 8243 8247 8258 8261 8262 8259 8258 8260 8258 8259 8263 8262 8261 8257 8260 8256 8257 8255 8250 8252 8252 8249 8249 8246 8248 8252 8248 8248 8245 
8270 8273 8270 8269 8265 8269 8266 8267 8267 8266 8267 8265 8269 8269 8266 8267 8270 8266 8267 8269 8266 8269 8265 8256 8238 8233 8235 8250 8264 8266 8267 8268 8266 8271 8273 8271 8274 8279 8279 8278 8271 8270 8277 8283 8281 8276 8280 8275 8274 8261 8246 8242 8246 8262 8260 8261 8260 8258 8259 8259 8257 8259 8259 8261 8259 8259 8257 8256 8257 8257 8250 8253 8250 8247 8248 8250 8248 8251 8244 8246 
8272 8275 8268 8269 8268 8272 8268 8268 8269 8267 8269 8267 8270 8267 8266 8265 8269 8268 8269 8268 8264 8265 8266 8254 8237 8237 8236 8256 8264 8264 8270 8270 8271 8275 8279 8275 8278 8286 8285 8284 8280 8273 8276 8284 8282 8278 8283 8279 8274 8261 8246 8240 8245 8261 8260 8259 8260 8261 8260 8257 8258 8258 8260 8257 8260 8260 8260 8254 8256 8254 8251 8249 8250 8248 8247 8247 8247 8245 8247 8244 
8271 8275 8274 8270 8267 8271 8270 8268 8269 8271 8270 8266 8267 8268 8266 8266 8268 8263 8265 8264 8265 8264 8261 8253 8236 8236 8238 8256 8265 8263 8269 8272 8278 8283 8280 8278 8279 8286 8289 8290 8286 8277 8272 8276 8280 8277 8281 8282 8275 8262 8243 8239 8246 8261 8259 8260 8260 8259 8257 8258 8256 8258 8261 8259 8259 8258 8257 8254 8254 8253 8248 8251 8248 8249 8248 8247 8249 8244 8245 8241 
8269 8276 8270 8269 8268 8271 8271 8271 8278 8269 8270 8267 8266 8268 8266 8263 8263 8263 8264 8266 8262 8263 8264 8258 8243 8237 8236 8255 8267 8267 8276 8279 8277 8287 8286 8282 8287 8294 8295 8294 8289 8283 8285 8286 8286 8281 8284 8281 8274 8257 8241 8241 8250 8263 8259 8263 8261 8260 8258 8258 8256 8260 8259 8258 8255 8257 8259 8254 8252 8252 8251 8251 8249 8248 8249 8250 8249 8247 8245 8245 
8275 8274 8272 8270 8272 8270 8271 8272 8272 8271 8270 8269 8268 8268 8264 8263 8267 8261 8261 8266 8264 8263 8262 8259 8247 8241 8237 8253 8272 8273 8281 8283 8286 8286 8287 8294 8297 8299 8297 8293 8290 8287 8291 8289 8280 8282 8282 8278 8273 8256 8242 8239 8249 8261 8261 8262 8260 8262 8259 8254 8256 8263 8258 8257 8258 8257 8256 8255 8248 8248 8247 8250 8247 8252 8247 8251 8251 8249 8242 8242 
8276 8281 8273 8272 8272 8272 8271 8271 8273 8270 8272 8272 8268 8267 8266 8264 8265 8263 8262 8266 8262 8266 8261 8259 8251 8237 8238 8249 8268 8278 8281 8292 8289 8284 8295 8307 8305 8299 8292 8295 8294 8287 8291 8286 8283 8291 8284 8280 8271 8253 8241 8241 8254 8261 8262 8261 8260 8259 8260 8257 8258 8261 8258 8257 8256 8252 8254 8252 8249 8246 8249 8250 8248 8250 8248 8251 8250 8246 8243 8245 
8278 8276 8275 8276 8272 8273 8271 8272 8270 8267 8269 8267 8266 8264 8264 8262 8264 8263 8264 8266 8261 8263 8260 8257 8259 8238 8233 8242 8263 8275 8280 8286 8289 8289 8293 8306 8307 8298 8299 8307 8304 8293 8288 8289 8292 8288 8284 8285 8266 8246 8240 8244 8258 8263 8260 8262 8262 8260 8260 8259 8257 8259 8256 8256 8254 8253 8250 8247 8245 8247 8244 8246 8247 8247 8248 8251 8247 8245 8244 8242 
8277 8282 8277 8275 8272 8270 8269 8272 8271 8270 8269 8268 8267 8266 8262 8266 8264 8261 8260 8265 8262 8262 8260 8258 8262 8249 8234 8239 8251 8271 8275 8282 8288 8286 8280 8286 8289 8291 8298 8302 8297 8294 8288 8291 8290 8283 8285 8279 8255 8246 8238 8250 8264 8263 8259 8263 8262 8261 8260 8260 8257 8259 8257 8253 8255 8250 8250 8246 8247 8247 8246 8247 8247 8248 8245 8249 8247 8244 8243 8239 
8278 8280 8277 8274 8271 8271 8270 8270 8271 8270 8268 8270 8268 8268 8266 8262 8265 8262 8263 8263 8263 8263 8261 8260 8264 8261 8242 8240 8244 8258 8270 8274 8280 8280 8281 8284 8287 8290 8291 8290 8287 8286 8287 8283 8282 8279 8280 8263 8245 8240 8244 8259 8264 8260 8261 8262 8259 8263 8260 8257 8257 8258 8256 8256 8252 8250 8250 8247 8246 8245 8245 8250 8249 8245 8246 8248 8247 8243 8243 8246 
8274 8282 8271 8272 8270 8269 8268 8269 8269 8267 8269 8267 8268 8265 8266 8263 8265 8261 8261 8267 8263 8265 8262 8260 8264 8267 8253 8237 8239 8248 8261 8270 8276 8276 8277 8283 8284 8291 8292 8291 8290 8282 8278 8276 8280 8282 8271 8251 8236 8244 8256 8260 8263 8261 8263 8263 8262 8260 8258 8258 8257 8259 8256 8258 8256 8250 8247 8249 8247 8248 8245 8246 8244 8250 8244 8249 8249 8245 8244 8245 
8275 8277 8273 8273 8267 8268 8267 8268 8268 8265 8266 8264 8268 8268 8265 8265 8266 8264 8262 8266 8262 8264 8261 8259 8265 8267 8266 8252 8238 8240 8247 8264 8271 8272 8271 8273 8276 8285 8282 8284 8281 8275 8273 8279 8282 8270 8251 8239 8240 8251 8262 8262 8262 8262 8261 8263 8259 8258 8258 8258 8259 8259 8257 8257 8257 8251 8248 8246 8246 8246 8247 8245 8247 8247 8245 8248 8246 8243 8244 8244 
8270 8274 8269 8268 8267 8268 8267 8267 8268 8266 8266 8266 8267 8269 8261 8262 8266 8264 8263 8266 8262 8261 8261 8256 8264 8270 8270 8265 8248 8239 8240 8248 8260 8269 8274 8276 8278 8283 8279 8279 8280 8282 8278 8275 8263 8247 8237 8238 8244 8257 8260 8261 8261 8260 8259 8261 8260 8262 8261 8258 8259 8257 8261 8256 8255 8252 8250 8248 8247 8247 8246 8247 8245 8247 8247 8248 8248 8245 8243 8242 
8273 8275 8269 8268 8267 8270 8266 8267 8268 8270 8272 8266 8264 8265 8266 8263 8267 8263 8263 8265 8264 8263 8261 8256 8264 8270 8266 8267 8264 8252 8240 8239 8242 8250 8260 8269 8273 8280 8282 8285 8281 8275 8262 8249 8243 8237 8240 8248 8256 8260 8262 8258 8261 8260 8260 8260 8257 8261 8259 8255 8256 8258 8260 8254 8254 8254 8249 8248 8246 8248 8245 8247 8247 8247 8245 8248 8246 8250 8243 8246 
8272 8271 8266 8267 8265 8269 8268 8267 8269 8265 8268 8269 8263 8263 8263 8261 8264 8265 8261 8262 8260 8262 8258 8257 8264 8268 8269 8268 8265 8265 8256 8245 8238 8239 8240 8245 8249 8250 8254 8252 8249 8245 8241 8238 8240 8243 8251 8258 8256 8257 8261 8261 8262 8260 8257 8258 8258 8259 8256 8255 8253 8262 8259 8255 8256 8255 8248 8249 8247 8246 8247 8249 8247 8247 8247 8247 8247 8243 8242 8242 
8269 8274 8269 8267 8268 8272 8269 8265 8267 8267 8268 8265 8264 8263 8262 8261 8264 8265 8264 8262 8261 8261 8261 8257 8265 8266 8269 8266 8266 8266 8265 8263 8254 8248 8241 8241 8234 8235 8234 8234 8234 8239 8239 8241 8250 8250 8253 8256 8258 8258 8261 8262 8260 8260 8257 8259 8257 8258 8257 8251 8251 8259 8258 8254 8253 8252 8247 8250 8247 8247 8247 8247 8246 8247 8244 8249 8247 8248 8244 8241 
8270 8270 8267 8266 8267 8271 8268 8265 8268 8267 8266 8264 8265 8266 8264 8261 8267 8263 8262 8265 8260 8260 8258 8260 8267 8266 8267 8267 8269 8267 8265 8265 8261 8262 8255 8253 8246 8243 8245 8243 8246 8247 8253 8253 8253 8253 8257 8256 8256 8261 8260 8259 8262 8257 8257 8256 8256 8257 8257 8251 8251 8255 8256 8255 8253 8250 8246 8246 8245 8247 8246 8248 8245 8250 8248 8248 8247 8244 8241 8240 
8267 8271 8265 8268 8268 8268 8266 8266 8265 8265 8265 8266 8265 8264 8263 8262 8264 8262 8261 8265 8262 8260 8256 8257 8265 8268 8266 8266 8266 8268 8265 8264 8265 8262 8263 8262 8258 8260 8259 8259 8257 8257 8257 8256 8254 8254 8256 8257 8257 8263 8260 8261 8263 8258 8258 8258 8255 8259 8255 8253 8255 8257 8255 8252 8251 8250 8247 8247 8245 8246 8246 8246 8242 8247 8247 8245 8246 8244 8240 8241 
8265 8269 8260 8266 8267 8268 8266 8269 8267 8265 8262 8261 8263 8262 8263 8262 8265 8262 8260 8263 8259 8263 8257 8256 8264 8268 8267 8266 8267 8262 8265 8266 8263 8264 8266 8266 8261 8260 8260 8260 8260 8260 8255 8258 8256 8253 8256 8259 8257 8262 8260 8261 8258 8259 8257 8259 8256 8256 8257 8251 8252 8253 8251 8249 8250 8250 8245 8244 8243 8246 8244 8248 8243 8247 8240 8245 8246 8240 8243 8242 
8267 8269 8261 8268 8268 8269 8266 8267 8268 8264 8263 8263 8263 8265 8262 8263 8266 8261 8262 8263 8261 8263 8256 8258 8264 8266 8266 8264 8265 8263 8263 8265 8263 8261 8264 8264 8262 8264 8260 8260 8261 8260 8259 8256 8258 8256 8259 8262 8259 8262 8262 8259 8259 8257 8258 8256 8255 8252 8254 8249 8251 8252 8249 8249 8249 8249 8244 8244 8246 8244 8246 8247 8244 8246 8240 8243 8245 8240 8243 8237 
8268 8269 8262 8269 8267 8266 8266 8263 8264 8261 8261 8260 8261 8262 8262 8258 8261 8259 8261 8260 8259 8258 8256 8254 8263 8262 8260 8265 8262 8264 8261 8262 8262 8265 8260 8264 8259 8258 8259 8257 8260 8261 8258 8258 8257 8255 8255 8259 8259 8263 8261 8257 8259 8257 8258 8255 8253 8253 8253 8250 8248 8250 8244 8248 8248 8250 8245 8247 8243 8242 8244 8245 8245 8242 8240 8239 8240 8241 8241 8236 
8266 8265 8263 8264 8262 8268 8262 8263 8264 8260 8261 8255 8259 8261 8257 8258 8262 8258 8258 8260 8256 8256 8255 8252 8257 8264 8259 8262 8260 8259 8260 8264 8263 8263 8262 8263 8261 8257 8258 8258 8259 8260 8257 8258 8260 8255 8257 8259 8257 8258 8258 8256 8255 8253 8252 8253 8253 8250 8250 8246 8248 8249 8245 8246 8248 8245 8244 8243 8242 8243 8241 8246 8242 8243 8241 8240 8239 8238 8236 8237 
8262 8265 8260 8259 8259 8260 8260 8259 8259 8256 8257 8255 8256 8258 8259 8257 8259 8255 8253 8257 8257 8255 8253 8250 8255 8263 8260 8262 8259 8259 8256 8261 8261 8260 8262 8260 8257 8256 8257 8257 8257 8261 8259 8258 8258 8252 8256 8258 8254 8258 8260 8255 8254 8251 8253 8256 8251 8253 8249 8248 8246 8250 8243 8249 8248 8244 8242 8243 8241 8243 8242 8245 8241 8244 8238 8238 8238 8238 8234 8233 
8262 8263 8256 8256 8260 8257 8259 8256 8258 8257 8253 8252 8251 8252 8253 8252 8255 8252 8251 8253 8249 8250 8250 8248 8256 8261 8258 8258 8258 8255 8257 8259 8258 8258 8259 8256 8256 8254 8254 8256 8255 8256 8256 8255 8255 8253 8254 8254 8251 8258 8256 8256 8255 8251 8251 8253 8250 8249 8248 8250 8247 8247 8248 8244 8244 8243 8241 8243 8244 8244 8241 8242 8240 8240 8237 8240 8237 8234 8236 8238 
8261 8266 8258 8260 8257 8260 8257 8257 8259 8254 8255 8254 8252 8252 8250 8250 8249 8251 8248 8249 8246 8247 8246 8248 8253 8256 8255 8258 8255 8257 8254 8257 8257 8258 8255 8255 8252 8255 8251 8253 8255 8253 8252 8253 8251 8250 8250 8255 8252 8253 8254 8252 8256 8253 8251 8251 8248 8250 8248 8248 8245 8248 8243 8247 8248 8247 8245 8242 8242 8244 8239 8241 8239 8238 8239 8241 8239 8237 8236 8233 
8261 8264 8257 8259 8259 8260 8256 8258 8256 8254 8255 8253 8250 8250 8250 8250 8250 8247 8248 8246 8247 8252 8250 8247 8252 8254 8256 8256 8256 8254 8252 8254 8255 8255 8255 8255 8253 8254 8250 8255 8254 8252 8253 8252 8254 8249 8252 8254 8253 8251 8255 8253 8255 8251 8252 8252 8249 8251 8252 8249 8246 8254 8251 8249 8250 8245 8243 8243 8243 8241 8242 8242 8239 8238 8241 8238 8239 8238 8233 8236 
8265 8268 8262 8260 8262 8265 8261 8262 8260 8256 8255 8254 8255 8252 8254 8248 8252 8251 8251 8251 8249 8250 8248 8247 8251 8256 8254 8257 8257 8254 8253 8253 8254 8254 8256 8256 8252 8252 8250 8254 8254 8252 8253 8252 8253 8250 8251 8254 8253 8254 8254 8255 8253 8255 8253 8253 8253 8254 8253 8252 8249 8254 8250 8250 8251 8249 8245 8245 8246 8247 8244 8243 8241 8243 8239 8237 8239 8238 8236 8236 
8269 8272 8265 8265 8266 8269 8264 8264 8266 8262 8260 8257 8256 8258 8257 8255 8254 8255 8256 8256 8251 8251 8251 8248 8251 8257 8254 8256 8255 8257 8251 8258 8255 8253 8256 8259 8255 8256 8253 8255 8255 8252 8253 8256 8255 8252 8253 8258 8253 8257 8256 8255 8257 8256 8255 8256 8254 8253 8254 8252 8253 8255 8249 8253 8249 8251 8245 8246 8247 8247 8246 8245 8241 8244 8242 8239 8238 8235 8229 8236 
8271 8278 8268 8270 8269 8270 8269 8267 8267 8263 8265 8261 8261 8264 8259 8258 8261 8257 8259 8257 8255 8256 8252 8247 8251 8257 8255 8255 8258 8254 8257 8259 8255 8260 8257 8259 8254 8256 8254 8259 8257 8255 8257 8257 8256 8253 8256 8258 8257 8259 8260 8257 8259 8259 8257 8261 8256 8257 8253 8254 8254 8255 8251 8254 8256 8249 8249 8248 8248 8244 8245 8250 8245 8241 8245 8239 8238 8232 8230 8235 
8274 8282 8271 8274 8269 8274 8274 8267 8273 8265 8264 8268 8263 8265 8261 8264 8265 8262 8261 8261 8259 8259 8255 8249 8257 8260 8257 8256 8255 8258 8258 8259 8257 8259 8259 8259 8254 8256 8255 8258 8259 8257 8256 8257 8258 8257 8257 8260 8259 8262 8262 8260 8258 8260 8257 8260 8256 8258 8255 8254 8254 8255 8253 8251 8252 8251 8246 8246 8243 8245 8244 8245 8241 8239 8243 8236 8234 8230 8231 8227 
8286 8280 8271 8271 8270 8272 8275 8271 8271 8271 8271 8267 8267 8268 8262 8264 8268 8265 8263 8261 8258 8260 8257 8252 8257 8261 8257 8257 8257 8257 8261 8259 8261 8261 8261 8262 8257 8258 8259 8260 8259 8260 8259 8261 8260 8259 8261 8261 8259 8262 8260 8260 8261 8256 8257 8261 8256 8256 8256 8254 8256 8255 8252 8249 8254 8252 8248 8246 8246 8242 8248 8246 8238 8243 8241 8236 8235 8234 8229 8228 


