P2
80 60
8306
8144 8135 8142 8153 8162 8210 8236 8242 8248 8250 8246 8249 8251 8252 8253 8253 8256 8255 8256 8261 8261 8266 8270 8276 8281 8285 8290 8285 8294 8295 8298 8296 8295 8300 8296 8298 8298 8298 8297 8298 8292 8289 8289 8284 8285 8281 8284 8281 8280 8277 8270 8274 8274 8272 8269 8271 8279 8274 8272 8275 8274 8280 8281 8282 8285 8285 8288 8286 8291 8294 8295 8295 8296 8299 8303 8306 8304 8302 8302 8299 
8135 8140 8152 8159 8180 8225 8241 8246 8248 8248 8248 8253 8257 8256 8257 8259 8260 8259 8262 8267 8268 8276 8281 8282 8286 8290 8295 8293 8294 8298 8299 8297 8297 8298 8295 8295 8299 8301 8300 8299 8295 8292 8289 8289 8289 8286 8288 8287 8286 8283 8277 8278 8276 8275 8273 8272 8275 8273 8277 8273 8275 8279 8279 8281 8285 8280 8285 8283 8289 8293 8292 8292 8294 8298 8300 8305 8302 8300 8301 8303 
8147 8150 8159 8172 8200 8239 8246 8250 8252 8253 8252 8256 8263 8262 8264 8266 8267 8269 8269 8273 8278 8283 8286 8288 8287 8287 8295 8295 8297 8298 8300 8296 8300 8301 8298 8297 8296 8299 8295 8297 8292 8292 8290 8289 8286 8283 8283 8287 8283 8285 8280 8280 8281 8277 8277 8276 8279 8277 8277 8275 8273 8278 8278 8281 8280 8278 8283 8287 8289 8293 8295 8294 8294 8296 8297 8302 8297 8300 8300 8305 
8150 8154 8163 8179 8227 8246 8250 8254 8253 8256 8258 8265 8267 8264 8268 8269 8271 8272 8273 8281 8280 8282 8284 8283 8284 8289 8296 8292 8292 8296 8297 8299 8299 8302 8297 8297 8298 8296 8295 8296 8295 8293 8289 8290 8285 8280 8282 8279 8281 8277 8281 8282 8283 8282 8280 8282 8282 8282 8279 8278 8274 8279 8277 8278 8279 8283 8286 8287 8289 8293 8294 8294 8299 8297 8298 8301 8298 8296 8303 8300 
8148 8151 8167 8191 8235 8251 8249 8256 8259 8258 8259 8265 8264 8266 8266 8266 8269 8270 8275 8277 8279 8280 8281 8282 8281 8288 8293 8290 8292 8292 8293 8295 8297 8297 8296 8295 8297 8297 8297 8297 8293 8296 8292 8288 8286 8283 8279 8280 8281 8280 8279 8281 8281 8283 8284 8283 8283 8278 8281 8277 8275 8276 8277 8280 8281 8281 8284 8286 8291 8292 8292 8293 8298 8297 8296 8298 8296 8296 8300 8302 
8156 8165 8179 8219 8244 8253 8251 8257 8256 8260 8262 8265 8265 8265 8265 8268 8269 8271 8274 8275 8276 8278 8280 8278 8282 8285 8289 8288 8292 8292 8295 8296 8295 8294 8294 8293 8294 8297 8296 8297 8295 8294 8290 8289 8287 8282 8283 8280 8279 8279 8278 8278 8281 8282 8282 8283 8283 8285 8284 8282 8279 8280 8281 8283 8281 8282 8285 8284 8292 8289 8291 8292 8295 8296 8295 8295 8292 8295 8301 8298 
8168 8172 8191 8239 8250 8255 8253 8257 8258 8262 8264 8264 8261 8262 8266 8267 8268 8271 8273 8274 8274 8274 8274 8277 8281 8283 8292 8289 8287 8293 8293 8295 8294 8290 8292 8290 8294 8299 8297 8300 8295 8293 8292 8291 8288 8280 8282 8278 8279 8281 8280 8277 8278 8285 8288 8285 8286 8286 8285 8284 8282 8285 8283 8282 8284 8280 8284 8285 8289 8287 8293 8293 8298 8295 8292 8292 8293 8295 8297 8299 
8173 8180 8207 8246 8255 8256 8256 8261 8262 8267 8262 8258 8261 8263 8267 8265 8270 8275 8273 8274 8276 8275 8276 8279 8279 8283 8287 8285 8291 8293 8291 8291 8290 8288 8291 8290 8295 8293 8294 8292 8294 8294 8293 8290 8288 8283 8285 8281 8280 8282 8282 8277 8276 8281 8284 8284 8287 8289 8285 8284 8283 8288 8284 8288 8285 8284 8285 8285 8287 8290 8290 8291 8297 8294 8291 8293 8291 8295 8297 8296 
8178 8183 8230 8251 8254 8260 8263 8264 8265 8267 8263 8260 8263 8262 8265 8269 8270 8273 8271 8276 8275 8274 8275 8277 8278 8285 8290 8286 8284 8286 8288 8281 8271 8280 8289 8289 8292 8290 8287 8280 8290 8294 8295 8291 8289 8283 8283 8279 8278 8279 8280 8278 8276 8281 8287 8285 8289 8288 8288 8285 8283 8288 8287 8289 8289 8286 8285 8285 8286 8289 8289 8292 8296 8293 8290 8290 8293 8298 8299 8295 
8188 8201 8249 8257 8265 8268 8265 8268 8269 8271 8266 8261 8260 8264 8265 8266 8269 8271 8271 8274 8274 8274 8273 8273 8277 8283 8289 8276 8257 8227 8256 8201 8173 8235 8282 8284 8281 8268 8234 8224 8274 8293 8293 8291 8289 8284 8282 8280 8283 8282 8279 8278 8282 8282 8286 8287 8288 8288 8289 8287 8285 8285 8287 8288 8290 8289 8289 8288 8288 8290 8293 8294 8295 8291 8291 8291 8292 8293 8297 8294 
8192 8224 8256 8266 8272 8271 8270 8271 8274 8273 8264 8262 8262 8262 8266 8268 8266 8270 8271 8274 8271 8273 8269 8271 8273 8281 8278 8236 8161 8159 8169 8147 8147 8202 8270 8255 8228 8200 8208 8215 8258 8285 8290 8289 8287 8285 8281 8282 8280 8279 8279 8279 8278 8280 8285 8285 8285 8285 8286 8286 8284 8285 8286 8286 8287 8288 8289 8287 8290 8290 8292 8294 8293 8294 8291 8292 8290 8293 8297 8297 
8204 8243 8267 8273 8273 8273 8272 8274 8273 8273 8268 8263 8263 8264 8264 8265 8267 8271 8274 8274 8271 8272 8269 8272 8275 8274 8251 8161 8145 8161 8156 8146 8155 8199 8196 8157 8149 8190 8197 8214 8241 8284 8291 8290 8289 8284 8281 8280 8281 8277 8278 8275 8277 8276 8284 8282 8286 8283 8286 8285 8282 8284 8285 8286 8288 8287 8288 8291 8291 8291 8289 8291 8293 8293 8293 8294 8293 8294 8294 8294 
8227 8259 8271 8273 8272 8271 8269 8274 8273 8272 8267 8263 8261 8262 8260 8264 8268 8270 8270 8275 8270 8272 8273 8270 8273 8269 8212 8198 8181 8176 8190 8172 8212 8194 8143 8139 8146 8169 8155 8207 8225 8281 8289 8287 8287 8280 8279 8281 8279 8277 8277 8275 8274 8274 8278 8280 8281 8283 8286 8281 8281 8284 8284 8284 8286 8287 8287 8286 8288 8289 8289 8292 8294 8290 8292 8289 8294 8293 8296 8296 
8252 8268 8273 8275 8271 8269 8267 8270 8271 8275 8268 8265 8263 8264 8264 8265 8270 8269 8273 8274 8271 8272 8272 8271 8273 8272 8259 8200 8150 8147 8174 8222 8176 8153 8142 8133 8145 8142 8159 8209 8217 8267 8284 8288 8285 8278 8278 8278 8279 8277 8277 8274 8273 8269 8275 8276 8278 8280 8282 8280 8279 8280 8281 8282 8285 8281 8285 8285 8284 8285 8286 8288 8293 8291 8290 8290 8289 8291 8298 8300 
8259 8268 8271 8270 8267 8268 8270 8271 8271 8270 8268 8266 8263 8264 8268 8267 8270 8271 8273 8272 8274 8272 8272 8273 8273 8268 8202 8135 8135 8147 8203 8231 8186 8165 8144 8143 8163 8160 8180 8207 8215 8252 8281 8282 8282 8274 8276 8273 8275 8274 8275 8275 8271 8270 8269 8272 8275 8278 8280 8277 8278 8282 8280 8282 8284 8282 8284 8282 8283 8282 8283 8287 8292 8289 8292 8289 8289 8293 8296 8293 
8265 8271 8270 8271 8268 8272 8272 8270 8269 8272 8269 8267 8268 8265 8270 8271 8272 8274 8273 8278 8276 8277 8275 8274 8271 8241 8152 8134 8173 8195 8161 8165 8209 8196 8169 8182 8186 8182 8187 8202 8215 8234 8275 8278 8277 8275 8276 8275 8276 8277 8280 8277 8275 8271 8269 8270 8270 8270 8273 8274 8271 8281 8278 8280 8281 8281 8282 8284 8282 8282 8285 8286 8289 8288 8289 8290 8287 8291 8295 8295 
8274 8272 8272 8269 8267 8272 8275 8272 8268 8266 8266 8266 8266 8268 8273 8273 8273 8274 8275 8275 8277 8277 8277 8278 8271 8193 8170 8214 8205 8143 8135 8141 8155 8207 8216 8190 8177 8170 8191 8213 8213 8216 8249 8243 8267 8276 8276 8280 8280 8282 8283 8282 8280 8277 8272 8272 8272 8270 8268 8272 8271 8277 8278 8277 8281 8280 8282 8282 8284 8284 8283 8285 8286 8289 8287 8286 8285 8288 8295 8293 
8272 8273 8270 8272 8270 8270 8273 8267 8263 8265 8267 8270 8267 8269 8271 8273 8276 8275 8277 8280 8277 8277 8282 8280 8275 8254 8270 8249 8147 8132 8134 8145 8163 8226 8201 8169 8158 8169 8237 8222 8194 8160 8151 8151 8218 8267 8274 8280 8281 8282 8280 8279 8280 8277 8271 8273 8273 8269 8272 8270 8270 8274 8273 8277 8277 8278 8280 8280 8282 8281 8282 8281 8286 8285 8283 8283 8285 8284 8291 8290 
8275 8272 8273 8270 8272 8272 8270 8267 8268 8267 8267 8270 8276 8275 8280 8278 8281 8281 8281 8285 8282 8279 8280 8279 8280 8282 8280 8195 8134 8139 8149 8178 8183 8177 8178 8171 8175 8180 8227 8218 8159 8136 8137 8141 8202 8230 8253 8268 8273 8279 8278 8280 8278 8274 8272 8272 8271 8274 8274 8272 8271 8273 8275 8279 8277 8276 8278 8281 8277 8281 8280 8279 8284 8283 8282 8283 8279 8279 8286 8289 
8275 8274 8271 8271 8268 8269 8267 8268 8264 8271 8270 8276 8278 8278 8279 8278 8281 8282 8283 8284 8280 8281 8278 8277 8278 8282 8273 8195 8198 8201 8170 8143 8139 8145 8155 8153 8140 8172 8156 8142 8135 8138 8140 8161 8163 8150 8162 8189 8230 8267 8276 8276 8277 8274 8273 8271 8270 8270 8275 8272 8274 8275 8276 8278 8276 8278 8277 8278 8280 8280 8277 8280 8280 8279 8279 8280 8280 8278 8281 8283 
8272 8276 8270 8270 8267 8267 8268 8269 8270 8274 8275 8275 8275 8280 8279 8277 8283 8281 8281 8282 8281 8279 8279 8279 8277 8281 8283 8262 8240 8183 8156 8133 8137 8147 8161 8147 8138 8133 8133 8142 8142 8145 8146 8166 8137 8133 8133 8134 8148 8227 8270 8272 8273 8272 8270 8269 8269 8270 8273 8273 8271 8271 8276 8276 8277 8274 8277 8275 8275 8279 8277 8278 8280 8277 8276 8276 8275 8275 8275 8276 
8281 8274 8276 8272 8268 8272 8272 8271 8271 8274 8277 8277 8276 8276 8279 8279 8282 8281 8277 8278 8277 8279 8277 8277 8275 8279 8271 8246 8248 8246 8191 8128 8131 8156 8153 8133 8128 8129 8131 8135 8162 8154 8139 8153 8161 8143 8135 8150 8188 8238 8265 8266 8270 8273 8271 8268 8269 8269 8271 8272 8271 8274 8275 8274 8275 8271 8273 8271 8274 8275 8276 8277 8278 8273 8273 8276 8275 8273 8272 8277 
8281 8278 8277 8274 8275 8271 8273 8273 8270 8275 8273 8272 8274 8278 8279 8280 8282 8280 8278 8278 8276 8279 8277 8275 8275 8268 8245 8245 8237 8187 8132 8128 8136 8157 8146 8134 8131 8125 8129 8131 8129 8127 8126 8145 8172 8167 8138 8146 8177 8232 8249 8264 8266 8268 8266 8268 8267 8269 8271 8272 8270 8274 8274 8271 8273 8269 8275 8272 8270 8274 8275 8274 8273 8276 8271 8274 8276 8274 8270 8283 
8283 8278 8280 8276 8278 8276 8273 8272 8267 8273 8275 8275 8277 8277 8280 8279 8283 8278 8279 8280 8277 8276 8275 8276 8270 8248 8247 8254 8176 8132 8130 8130 8130 8138 8136 8162 8140 8130 8127 8130 8123 8134 8129 8135 8130 8134 8136 8129 8134 8168 8217 8257 8265 8268 8265 8266 8269 8266 8269 8271 8269 8273 8272 8271 8269 8270 8272 8269 8270 8272 8274 8272 8273 8272 8268 8273 8274 8273 8269 8273 
8282 8279 8278 8279 8279 8274 8274 8272 8270 8271 8276 8276 8277 8278 8279 8281 8279 8277 8282 8281 8276 8276 8274 8271 8252 8237 8254 8259 8184 8139 8136 8133 8132 8135 8130 8169 8178 8148 8132 8130 8126 8134 8128 8135 8133 8140 8130 8131 8128 8131 8171 8234 8262 8267 8268 8265 8266 8268 8269 8270 8268 8271 8270 8270 8271 8272 8269 8269 8270 8271 8270 8270 8269 8268 8270 8274 8270 8272 8270 8272 
8287 8277 8277 8276 8276 8273 8274 8272 8273 8274 8275 8277 8278 8276 8277 8277 8278 8281 8278 8279 8274 8270 8271 8263 8233 8215 8191 8175 8168 8146 8140 8138 8131 8129 8126 8155 8177 8168 8138 8130 8133 8150 8135 8135 8133 8150 8137 8131 8130 8139 8216 8225 8257 8263 8263 8263 8265 8266 8267 8266 8269 8269 8268 8268 8272 8272 8270 8269 8271 8271 8271 8268 8271 8270 8268 8270 8271 8271 8270 8271 
8283 8279 8278 8278 8273 8273 8272 8272 8273 8276 8277 8279 8278 8276 8275 8277 8279 8278 8277 8277 8275 8271 8268 8250 8186 8141 8138 8138 8140 8166 8167 8131 8127 8127 8128 8142 8168 8153 8142 8132 8137 8152 8134 8135 8137 8177 8167 8150 8141 8134 8224 8224 8251 8260 8260 8265 8264 8265 8266 8268 8266 8267 8268 8268 8269 8268 8268 8269 8266 8268 8266 8270 8270 8267 8268 8270 8274 8269 8271 8271 
8282 8281 8277 8279 8277 8273 8274 8276 8275 8276 8276 8278 8279 8276 8274 8276 8277 8277 8277 8276 8273 8269 8265 8215 8133 8129 8133 8136 8152 8185 8164 8138 8128 8127 8132 8137 8156 8155 8156 8141 8147 8148 8148 8136 8142 8180 8184 8185 8176 8148 8243 8234 8244 8255 8257 8259 8263 8262 8263 8265 8265 8270 8268 8264 8268 8265 8269 8267 8266 8265 8266 8269 8266 8270 8269 8268 8269 8267 8270 8272 
8280 8278 8282 8283 8275 8275 8277 8276 8277 8278 8278 8277 8276 8277 8270 8274 8275 8278 8273 8274 8270 8269 8261 8196 8139 8123 8133 8142 8154 8157 8138 8133 8126 8124 8133 8146 8151 8149 8152 8149 8150 8159 8154 8142 8138 8147 8176 8190 8191 8199 8247 8234 8242 8254 8257 8258 8260 8261 8261 8261 8265 8269 8269 8265 8267 8267 8267 8264 8266 8266 8269 8266 8269 8264 8267 8269 8270 8269 8270 8272 
8279 8278 8279 8274 8275 8278 8276 8274 8279 8280 8278 8279 8279 8277 8275 8273 8273 8274 8273 8272 8268 8268 8259 8218 8145 8125 8134 8138 8143 8141 8137 8134 8127 8132 8138 8148 8147 8148 8148 8154 8157 8160 8150 8152 8148 8132 8154 8180 8189 8209 8236 8233 8240 8253 8252 8258 8258 8262 8260 8262 8262 8265 8266 8267 8266 8266 8265 8262 8263 8266 8266 8265 8267 8267 8263 8266 8268 8268 8269 8271 
8275 8276 8278 8274 8278 8280 8276 8275 8279 8281 8278 8276 8277 8277 8274 8270 8271 8275 8272 8276 8270 8267 8260 8209 8133 8127 8139 8136 8137 8138 8133 8136 8141 8140 8137 8142 8155 8158 8155 8166 8165 8153 8140 8141 8140 8145 8167 8188 8192 8209 8235 8232 8247 8253 8255 8257 8258 8259 8258 8261 8262 8264 8265 8265 8264 8268 8263 8262 8262 8263 8261 8264 8263 8263 8264 8269 8266 8269 8269 8273 
8275 8275 8276 8274 8277 8277 8276 8275 8276 8278 8272 8275 8276 8274 8270 8272 8270 8270 8269 8269 8269 8264 8260 8221 8147 8128 8136 8133 8134 8134 8134 8147 8183 8157 8140 8148 8169 8174 8179 8180 8166 8160 8158 8174 8148 8171 8190 8194 8196 8204 8241 8234 8250 8253 8253 8254 8255 8258 8263 8260 8261 8264 8264 8264 8265 8266 8260 8262 8261 8260 8262 8260 8264 8266 8262 8267 8266 8265 8267 8269 
8270 8275 8272 8275 8276 8276 8272 8271 8275 8276 8270 8271 8270 8270 8269 8267 8267 8266 8267 8266 8265 8265 8259 8230 8149 8130 8135 8145 8138 8136 8146 8172 8191 8185 8170 8167 8174 8186 8181 8171 8181 8190 8193 8191 8179 8182 8199 8204 8212 8220 8244 8237 8249 8251 8249 8254 8255 8254 8257 8260 8258 8262 8261 8261 8261 8262 8263 8261 8260 8261 8262 8261 8263 8264 8264 8264 8265 8263 8263 8265 
8273 8272 8274 8278 8271 8274 8269 8272 8272 8270 8268 8268 8270 8267 8266 8266 8266 8265 8264 8265 8266 8265 8262 8244 8188 8144 8143 8169 8153 8142 8160 8190 8199 8189 8183 8191 8198 8214 8207 8192 8195 8196 8194 8196 8206 8212 8212 8201 8219 8236 8244 8242 8253 8250 8248 8250 8254 8256 8257 8257 8258 8263 8263 8262 8261 8260 8260 8260 8256 8261 8260 8260 8262 8263 8262 8265 8265 8265 8265 8266 
8271 8272 8272 8273 8271 8273 8267 8271 8270 8270 8266 8268 8268 8267 8264 8262 8267 8261 8263 8263 8264 8262 8261 8255 8224 8217 8189 8184 8181 8169 8191 8207 8206 8195 8199 8198 8205 8208 8211 8204 8205 8199 8199 8197 8200 8211 8207 8203 8222 8247 8232 8241 8251 8251 8251 8251 8253 8255 8257 8254 8257 8261 8260 8256 8258 8259 8257 8257 8258 8260 8259 8261 8262 8262 8261 8261 8263 8264 8264 8266 
8270 8272 8271 8270 8271 8269 8267 8270 8272 8267 8267 8264 8264 8263 8265 8261 8263 8263 8263 8260 8262 8260 8261 8258 8244 8234 8225 8195 8189 8182 8203 8220 8213 8206 8211 8204 8204 8198 8199 8204 8200 8203 8195 8201 8214 8221 8213 8212 8233 8248 8224 8245 8248 8250 8249 8250 8251 8252 8253 8252 8254 8255 8253 8253 8256 8255 8257 8256 8256 8258 8258 8260 8261 8260 8261 8264 8264 8265 8260 8259 
8271 8271 8272 8272 8271 8272 8268 8266 8268 8266 8265 8265 8264 8266 8260 8263 8261 8258 8259 8260 8262 8260 8256 8260 8258 8245 8244 8217 8203 8189 8201 8214 8216 8225 8230 8224 8222 8215 8205 8205 8202 8207 8206 8206 8223 8235 8231 8230 8251 8233 8223 8247 8252 8247 8247 8250 8250 8251 8250 8251 8252 8257 8255 8254 8253 8255 8255 8252 8254 8259 8257 8259 8261 8261 8261 8261 8263 8261 8264 8264 
8270 8273 8272 8271 8270 8270 8271 8270 8267 8267 8261 8263 8265 8264 8262 8259 8258 8260 8258 8259 8259 8257 8261 8263 8262 8262 8250 8246 8224 8209 8211 8229 8233 8239 8243 8238 8237 8219 8203 8212 8216 8220 8230 8233 8243 8244 8245 8253 8252 8229 8225 8252 8252 8250 8250 8252 8251 8250 8252 8255 8252 8255 8254 8254 8255 8255 8255 8256 8258 8257 8257 8257 8260 8260 8261 8261 8262 8262 8261 8261 
8271 8273 8271 8269 8271 8268 8269 8266 8267 8267 8264 8263 8260 8260 8260 8259 8260 8259 8257 8258 8259 8256 8261 8263 8264 8266 8251 8241 8252 8223 8227 8239 8249 8252 8253 8252 8239 8236 8231 8241 8246 8242 8249 8252 8242 8243 8255 8251 8252 8226 8232 8253 8252 8249 8248 8249 8250 8251 8253 8253 8252 8255 8254 8253 8254 8257 8258 8257 8255 8254 8257 8257 8261 8261 8262 8262 8263 8262 8262 8262 
8273 8273 8269 8268 8267 8271 8267 8265 8268 8266 8261 8263 8259 8259 8259 8259 8259 8258 8256 8258 8259 8258 8260 8263 8267 8269 8265 8231 8242 8260 8253 8251 8257 8269 8265 8266 8253 8260 8252 8254 8252 8237 8253 8256 8251 8252 8250 8251 8244 8223 8244 8252 8252 8250 8249 8249 8253 8253 8254 8253 8252 8255 8254 8255 8250 8252 8255 8253 8253 8253 8253 8255 8259 8260 8258 8261 8256 8260 8260 8260 
8274 8275 8268 8269 8269 8268 8269 8266 8265 8265 8262 8261 8260 8262 8257 8257 8259 8257 8260 8259 8259 8261 8260 8264 8264 8269 8268 8242 8236 8251 8264 8261 8262 8254 8261 8269 8265 8268 8262 8262 8255 8238 8250 8260 8260 8250 8245 8257 8235 8236 8249 8250 8250 8250 8248 8251 8249 8252 8250 8252 8253 8256 8255 8251 8253 8254 8255 8253 8252 8252 8253 8254 8257 8258 8257 8261 8260 8259 8259 8257 
8272 8272 8270 8265 8264 8265 8265 8265 8264 8265 8259 8260 8262 8261 8259 8259 8258 8259 8260 8262 8263 8259 8257 8263 8265 8268 8270 8262 8238 8246 8272 8266 8262 8263 8260 8261 8260 8265 8266 8265 8265 8265 8263 8257 8252 8246 8252 8244 8236 8252 8251 8250 8252 8248 8251 8249 8252 8252 8254 8254 8253 8253 8255 8252 8254 8253 8255 8254 8251 8251 8256 8254 8256 8255 8258 8257 8258 8260 8256 8255 
8275 8270 8267 8266 8265 8266 8265 8263 8265 8265 8259 8261 8261 8261 8260 8259 8259 8260 8259 8262 8258 8258 8261 8262 8263 8267 8272 8273 8260 8243 8250 8270 8262 8254 8250 8258 8264 8265 8265 8261 8262 8258 8254 8252 8251 8254 8247 8238 8254 8257 8249 8250 8251 8249 8251 8251 8250 8251 8250 8253 8250 8254 8255 8252 8252 8251 8251 8254 8250 8251 8250 8254 8254 8256 8254 8255 8254 8253 8253 8254 
8271 8269 8267 8265 8261 8265 8263 8265 8261 8263 8260 8260 8261 8263 8258 8259 8257 8260 8259 8261 8260 8256 8261 8259 8266 8268 8274 8273 8274 8266 8243 8249 8268 8262 8253 8251 8254 8256 8256 8257 8259 8254 8255 8253 8256 8246 8244 8257 8261 8256 8254 8251 8252 8250 8251 8254 8255 8254 8255 8256 8255 8256 8251 8252 8250 8249 8252 8250 8251 8250 8249 8251 8252 8253 8251 8253 8253 8249 8249 8250 
8266 8266 8264 8266 8264 8265 8263 8265 8263 8264 8260 8264 8259 8259 8260 8261 8259 8258 8262 8259 8260 8258 8260 8263 8263 8271 8276 8280 8283 8276 8269 8250 8250 8262 8264 8259 8254 8255 8254 8256 8257 8255 8258 8254 8247 8254 8263 8263 8263 8257 8252 8251 8255 8252 8253 8253 8251 8251 8254 8253 8253 8254 8254 8248 8251 8251 8251 8248 8248 8249 8248 8250 8251 8251 8253 8256 8252 8248 8252 8252 
8271 8265 8265 8266 8267 8266 8266 8263 8266 8267 8262 8262 8262 8260 8261 8259 8262 8258 8262 8260 8261 8261 8260 8265 8269 8273 8278 8281 8284 8283 8279 8275 8269 8259 8250 8255 8260 8262 8263 8260 8257 8255 8258 8264 8271 8269 8267 8266 8264 8259 8254 8256 8253 8254 8254 8252 8252 8252 8255 8254 8250 8253 8252 8251 8250 8249 8251 8245 8248 8249 8250 8251 8254 8253 8251 8252 8254 8252 8251 8257 
8271 8268 8264 8267 8266 8268 8269 8267 8268 8266 8263 8260 8260 8257 8262 8262 8261 8263 8259 8263 8259 8259 8263 8268 8268 8273 8279 8281 8285 8288 8285 8279 8281 8279 8275 8270 8267 8266 8265 8267 8269 8277 8278 8274 8277 8271 8268 8265 8262 8260 8255 8257 8256 8255 8253 8252 8254 8251 8254 8252 8251 8253 8252 8249 8251 8249 8248 8248 8250 8246 8250 8251 8255 8255 8252 8252 8254 8253 8252 8254 
8271 8268 8270 8269 8266 8265 8269 8268 8267 8264 8262 8265 8269 8264 8263 8262 8262 8261 8264 8259 8259 8263 8266 8267 8265 8274 8278 8275 8286 8289 8286 8283 8282 8283 8279 8279 8279 8284 8283 8281 8282 8281 8282 8280 8277 8271 8271 8266 8266 8263 8258 8258 8257 8256 8252 8252 8254 8252 8255 8252 8252 8252 8253 8250 8248 8247 8248 8249 8249 8250 8253 8252 8256 8256 8252 8254 8256 8251 8251 8251 
8266 8270 8270 8267 8268 8269 8271 8267 8270 8269 8263 8264 8263 8264 8263 8260 8261 8262 8260 8261 8262 8262 8264 8270 8270 8272 8279 8281 8286 8288 8291 8285 8286 8285 8283 8282 8286 8284 8282 8286 8282 8282 8280 8279 8278 8273 8271 8269 8266 8264 8260 8260 8259 8255 8256 8254 8255 8251 8252 8250 8250 8250 8252 8249 8248 8248 8247 8249 8250 8252 8252 8252 8254 8256 8250 8256 8252 8252 8251 8251 
8270 8273 8269 8270 8272 8273 8270 8270 8268 8270 8264 8262 8263 8264 8263 8264 8263 8266 8262 8264 8262 8262 8265 8267 8269 8274 8279 8281 8284 8290 8292 8286 8288 8286 8285 8283 8288 8285 8286 8287 8282 8280 8281 8282 8278 8272 8271 8269 8269 8267 8265 8263 8262 8256 8255 8255 8256 8255 8254 8252 8249 8250 8251 8247 8248 8248 8247 8249 8248 8252 8250 8255 8253 8256 8255 8254 8252 8250 8252 8253 
8275 8271 8274 8274 8273 8273 8273 8271 8273 8271 8266 8267 8265 8264 8264 8264 8264 8263 8265 8263 8264 8264 8264 8268 8272 8276 8283 8282 8285 8291 8293 8288 8292 8289 8287 8283 8284 8286 8286 8285 8282 8279 8283 8281 8279 8277 8275 8273 8271 8269 8268 8265 8267 8256 8252 8256 8254 8254 8255 8251 8250 8252 8248 8250 8250 8246 8249 8246 8250 8251 8253 8255 8259 8256 8253 8253 8257 8253 8255 8249 
8272 8275 8278 8276 8277 8275 8276 8278 8274 8277 8270 8268 8268 8267 8267 8265 8268 8267 8265 8267 8264 8265 8267 8268 8270 8276 8281 8283 8287 8289 8291 8288 8293 8291 8287 8285 8290 8288 8285 8286 8281 8284 8282 8282 8281 8276 8279 8275 8274 8273 8266 8266 8264 8258 8254 8255 8253 8256 8255 8250 8247 8249 8249 8247 8248 8245 8248 8246 8249 8250 8253 8251 8256 8254 8251 8254 8254 8253 8251 8252 
8276 8278 8280 8276 8280 8279 8277 8276 8274 8276 8269 8268 8268 8270 8268 8265 8268 8263 8266 8267 8264 8265 8265 8269 8268 8276 8282 8282 8283 8289 8289 8290 8292 8293 8290 8286 8292 8290 8285 8285 8283 8282 8283 8285 8282 8280 8279 8276 8276 8275 8271 8265 8264 8262 8257 8255 8255 8255 8255 8251 8248 8250 8249 8245 8248 8246 8247 8249 8249 8252 8252 8256 8253 8251 8251 8252 8250 8249 8251 8260 
8281 8282 8283 8280 8278 8279 8282 8279 8279 8274 8274 8271 8269 8273 8273 8266 8269 8269 8267 8267 8265 8267 8266 8268 8271 8277 8281 8282 8285 8289 8288 8291 8291 8294 8290 8291 8293 8292 8290 8289 8285 8285 8287 8288 8284 8284 8284 8280 8280 8277 8272 8265 8266 8263 8258 8256 8259 8254 8257 8251 8248 8253 8247 8246 8249 8247 8248 8249 8248 8250 8251 8252 8254 8251 8249 8252 8249 8249 8250 8253 
8287 8280 8281 8282 8282 8282 8285 8280 8278 8278 8274 8272 8272 8273 8270 8271 8271 8267 8269 8268 8266 8266 8266 8264 8270 8274 8279 8281 8284 8290 8289 8290 8292 8293 8290 8292 8292 8292 8292 8292 8287 8289 8291 8288 8289 8288 8285 8281 8278 8275 8274 8267 8267 8263 8262 8260 8257 8259 8254 8252 8249 8251 8248 8248 8250 8250 8249 8244 8249 8253 8250 8251 8254 8250 8247 8250 8249 8249 8247 8251 
8286 8286 8286 8282 8280 8281 8279 8277 8277 8277 8273 8275 8276 8271 8273 8271 8270 8272 8268 8268 8269 8267 8264 8264 8268 8273 8279 8278 8285 8287 8292 8288 8296 8294 8292 8293 8292 8295 8293 8293 8289 8291 8290 8293 8290 8285 8285 8284 8283 8282 8273 8268 8268 8266 8263 8259 8257 8257 8257 8249 8249 8249 8249 8249 8250 8250 8247 8246 8244 8250 8251 8253 8253 8252 8248 8250 8247 8248 8251 8252 
8287 8285 8287 8279 8284 8279 8277 8277 8280 8279 8270 8276 8270 8274 8272 8271 8270 8268 8268 8266 8263 8265 8264 8266 8264 8273 8276 8277 8281 8286 8290 8291 8294 8294 8292 8289 8294 8293 8293 8294 8292 8291 8291 8292 8290 8288 8287 8286 8283 8281 8274 8269 8269 8265 8260 8262 8260 8258 8258 8253 8251 8249 8250 8250 8247 8248 8247 8249 8250 8253 8254 8254 8253 8252 8252 8248 8248 8248 8249 8250 
8289 8286 8283 8280 8280 8278 8276 8273 8274 8278 8272 8273 8273 8270 8268 8267 8267 8265 8265 8266 8260 8258 8262 8264 8264 8271 8277 8277 8283 8288 8289 8291 8290 8292 8289 8291 8292 8292 8295 8295 8293 8293 8292 8293 8291 8287 8286 8288 8288 8283 8278 8272 8267 8265 8263 8261 8263 8258 8260 8257 8250 8251 8252 8250 8248 8252 8252 8251 8251 8253 8253 8254 8256 8251 8248 8247 8247 8247 8250 8251 
8290 8282 8283 8278 8275 8272 8270 8269 8273 8270 8268 8266 8266 8267 8267 8262 8262 8263 8264 8263 8258 8261 8258 8265 8265 8271 8278 8277 8283 8288 8286 8287 8290 8293 8289 8289 8293 8295 8295 8294 8292 8291 8289 8291 8291 8289 8288 8286 8288 8285 8281 8277 8271 8265 8264 8261 8264 8261 8257 8256 8254 8253 8252 8252 8253 8252 8253 8250 8253 8252 8255 8251 8255 8251 8251 8248 8251 8247 8248 8255 
8295 8280 8280 8273 8273 8266 8270 8268 8264 8266 8262 8265 8264 8262 8261 8260 8260 8260 8257 8261 8260 8256 8259 8265 8262 8270 8273 8274 8281 8282 8279 8284 8296 8293 8293 8288 8290 8296 8297 8300 8295 8292 8293 8294 8295 8289 8294 8289 8291 8286 8283 8274 8274 8268 8261 8267 8263 8260 8260 8253 8252 8255 8252 8250 8251 8254 8252 8255 8256 8253 8255 8251 8252 8253 8250 8249 8249 8245 8245 8249 


