P2
80 60
8197
8120 8120 8128 8136 8137 8136 8135 8133 8134 8140 8144 8144 8144 8145 8146 8149 8147 8146 8146 8145 8151 8153 8150 8150 8150 8153 8151 8153 8158 8161 8161 8167 8172 8171 8170 8170 8170 8172 8177 8175 8175 8180 8175 8172 8175 8175 8177 8180 8179 8179 8175 8173 8173 8173 8168 8169 8167 8169 8174 8174 8174 8174 8171 8170 8168 8164 8166 8170 8172 8176 8175 8176 8178 8178 8178 8183 8180 8184 8181 8182 
8119 8124 8129 8132 8140 8136 8133 8131 8133 8140 8142 8145 8139 8142 8146 8150 8145 8148 8143 8147 8149 8151 8150 8146 8151 8150 8146 8150 8154 8155 8160 8164 8170 8169 8167 8168 8167 8173 8178 8175 8177 8175 8174 8173 8175 8176 8180 8178 8180 8182 8174 8174 8172 8173 8169 8172 8172 8169 8173 8175 8175 8175 8172 8168 8165 8166 8168 8166 8174 8177 8174 8171 8179 8178 8178 8176 8180 8181 8178 8183 
8109 8114 8119 8126 8134 8128 8131 8135 8137 8142 8143 8141 8137 8145 8143 8144 8144 8144 8140 8148 8143 8147 8146 8143 8148 8150 8149 8151 8154 8151 8154 8161 8165 8172 8166 8168 8164 8172 8175 8174 8175 8175 8175 8176 8177 8177 8178 8177 8181 8177 8177 8167 8168 8175 8174 8173 8174 8174 8174 8170 8172 8175 8170 8168 8165 8163 8163 8167 8176 8176 8172 8172 8177 8178 8177 8175 8182 8179 8177 8180 
8117 8111 8124 8126 8134 8128 8136 8134 8139 8142 8140 8132 8140 8143 8139 8142 8143 8146 8139 8140 8143 8139 8136 8147 8147 8149 8152 8150 8154 8160 8156 8162 8170 8169 8167 8167 8169 8171 8172 8173 8174 8173 8174 8171 8173 8177 8176 8177 8181 8174 8176 8169 8173 8173 8174 8175 8168 8168 8171 8169 8172 8176 8169 8168 8163 8163 8161 8165 8172 8176 8167 8174 8176 8175 8174 8172 8180 8179 8176 8174 
8119 8109 8125 8124 8131 8132 8136 8130 8135 8140 8135 8131 8135 8138 8136 8139 8141 8138 8139 8138 8142 8140 8138 8138 8145 8146 8146 8145 8150 8157 8153 8165 8166 8164 8165 8166 8169 8168 8174 8172 8173 8176 8172 8169 8171 8171 8174 8177 8176 8175 8173 8174 8173 8173 8172 8171 8168 8172 8173 8172 8172 8172 8167 8165 8163 8161 8157 8157 8171 8173 8170 8173 8174 8178 8164 8172 8177 8174 8173 8171 
8125 8117 8125 8126 8127 8128 8139 8135 8139 8136 8123 8136 8141 8135 8133 8139 8140 8135 8139 8142 8141 8138 8145 8138 8145 8147 8146 8144 8146 8152 8160 8165 8165 8164 8164 8169 8167 8166 8171 8174 8175 8176 8173 8170 8170 8173 8173 8178 8176 8176 8175 8174 8175 8174 8171 8175 8174 8171 8176 8173 8172 8172 8165 8162 8161 8162 8158 8159 8169 8169 8170 8169 8178 8171 8167 8167 8174 8171 8168 8173 
8125 8124 8125 8137 8130 8123 8139 8138 8135 8130 8118 8139 8140 8130 8135 8144 8133 8137 8140 8142 8137 8140 8144 8139 8144 8146 8136 8140 8147 8157 8157 8163 8167 8164 8165 8167 8165 8166 8172 8174 8175 8175 8176 8169 8172 8173 8174 8177 8173 8172 8174 8169 8173 8174 8169 8174 8173 8167 8172 8172 8166 8172 8166 8161 8159 8163 8167 8168 8164 8165 8168 8172 8172 8170 8169 8171 8171 8169 8169 8174 
8130 8127 8120 8131 8124 8130 8141 8140 8139 8120 8134 8139 8137 8132 8138 8137 8138 8140 8139 8140 8145 8140 8142 8146 8145 8145 8136 8144 8152 8156 8161 8166 8168 8169 8168 8166 8164 8168 8170 8170 8172 8172 8172 8172 8172 8172 8173 8172 8175 8169 8170 8166 8171 8174 8170 8171 8168 8169 8170 8168 8164 8167 8164 8160 8159 8164 8166 8168 8165 8162 8162 8165 8172 8165 8168 8173 8171 8175 8173 8171 
8130 8119 8122 8125 8134 8128 8143 8136 8137 8128 8131 8134 8134 8137 8132 8134 8134 8138 8141 8142 8144 8136 8139 8141 8137 8146 8143 8143 8149 8153 8155 8160 8163 8165 8165 8170 8167 8169 8171 8170 8169 8171 8172 8167 8169 8172 8171 8171 8173 8167 8166 8165 8165 8172 8170 8164 8166 8169 8168 8166 8161 8161 8159 8156 8156 8157 8161 8164 8161 8165 8163 8160 8164 8167 8166 8169 8173 8177 8174 8175 
8129 8114 8120 8127 8128 8132 8126 8136 8137 8137 8130 8133 8133 8136 8131 8133 8137 8135 8142 8145 8141 8139 8141 8138 8138 8143 8141 8148 8151 8154 8152 8159 8163 8167 8166 8168 8170 8171 8169 8167 8168 8171 8170 8164 8167 8172 8170 8171 8170 8167 8167 8165 8166 8169 8168 8161 8168 8167 8165 8167 8164 8165 8158 8158 8156 8158 8159 8163 8161 8165 8160 8164 8163 8164 8166 8166 8170 8176 8171 8172 
8129 8116 8120 8121 8123 8131 8126 8133 8136 8131 8135 8131 8134 8136 8135 8133 8138 8133 8130 8140 8144 8139 8141 8143 8140 8142 8145 8149 8152 8156 8156 8155 8157 8167 8164 8164 8164 8168 8166 8164 8168 8167 8165 8171 8171 8173 8172 8168 8170 8166 8164 8163 8168 8169 8167 8160 8166 8162 8167 8168 8163 8165 8160 8152 8155 8156 8159 8159 8161 8159 8159 8163 8162 8162 8161 8161 8166 8171 8171 8173 
8122 8121 8116 8120 8118 8128 8123 8130 8133 8127 8136 8129 8133 8133 8135 8135 8133 8135 8134 8142 8143 8142 8136 8141 8144 8142 8145 8147 8152 8156 8157 8157 8159 8167 8161 8158 8164 8166 8165 8162 8162 8168 8169 8172 8171 8171 8170 8170 8166 8166 8169 8165 8165 8167 8167 8163 8164 8161 8167 8168 8163 8163 8160 8156 8153 8156 8158 8159 8159 8155 8156 8160 8158 8162 8158 8159 8166 8169 8167 8172 
8126 8121 8113 8111 8116 8124 8126 8120 8126 8131 8130 8127 8130 8133 8133 8136 8133 8137 8137 8138 8137 8141 8135 8139 8146 8142 8140 8147 8151 8148 8155 8154 8158 8161 8154 8159 8164 8165 8165 8157 8162 8167 8171 8171 8173 8169 8170 8167 8167 8167 8168 8166 8162 8168 8167 8162 8164 8162 8167 8165 8162 8163 8162 8153 8157 8156 8158 8157 8157 8153 8154 8157 8158 8160 8159 8164 8168 8168 8166 8173 
8129 8129 8124 8127 8125 8127 8127 8130 8122 8132 8136 8130 8131 8133 8136 8131 8139 8137 8139 8142 8138 8138 8136 8140 8142 8142 8144 8145 8145 8152 8153 8152 8159 8162 8158 8164 8161 8163 8163 8159 8161 8165 8169 8171 8168 8168 8167 8163 8166 8165 8166 8166 8165 8164 8164 8163 8166 8163 8164 8164 8160 8157 8157 8157 8160 8158 8158 8157 8158 8154 8155 8160 8161 8163 8157 8167 8166 8176 8168 8169 
8131 8118 8125 8131 8125 8127 8122 8129 8126 8130 8132 8134 8133 8137 8139 8139 8137 8134 8141 8143 8133 8138 8136 8141 8140 8140 8145 8144 8145 8152 8150 8149 8155 8157 8158 8161 8160 8160 8159 8158 8161 8164 8164 8167 8166 8164 8164 8161 8162 8163 8166 8165 8167 8166 8163 8163 8166 8164 8164 8163 8165 8157 8154 8155 8156 8160 8157 8156 8159 8155 8159 8163 8162 8164 8157 8163 8163 8166 8169 8170 
8134 8112 8118 8126 8123 8121 8123 8128 8129 8133 8133 8127 8131 8134 8140 8141 8139 8136 8143 8141 8136 8139 8133 8138 8137 8143 8143 8139 8142 8150 8149 8150 8157 8161 8157 8157 8160 8161 8159 8157 8159 8165 8166 8166 8166 8162 8158 8162 8161 8161 8161 8162 8166 8164 8158 8163 8161 8158 8162 8164 8163 8156 8152 8152 8157 8157 8152 8155 8154 8156 8156 8158 8161 8161 8157 8161 8160 8170 8164 8162 
8131 8114 8118 8125 8125 8121 8125 8123 8133 8135 8131 8134 8128 8134 8133 8138 8136 8142 8145 8141 8135 8140 8139 8132 8133 8140 8142 8144 8146 8150 8152 8155 8157 8163 8160 8161 8159 8161 8158 8159 8159 8162 8165 8163 8163 8162 8158 8159 8161 8162 8164 8163 8164 8161 8158 8161 8157 8158 8162 8162 8161 8157 8151 8152 8155 8157 8153 8154 8152 8154 8154 8157 8160 8164 8160 8158 8157 8168 8160 8167 
8129 8117 8123 8121 8124 8128 8129 8132 8128 8142 8135 8131 8140 8141 8139 8140 8139 8137 8141 8142 8140 8142 8139 8131 8134 8146 8150 8142 8146 8147 8148 8155 8161 8163 8159 8160 8156 8156 8158 8158 8157 8158 8160 8165 8162 8159 8157 8159 8161 8160 8163 8161 8158 8161 8157 8159 8157 8157 8159 8162 8158 8156 8155 8152 8154 8152 8154 8156 8157 8155 8155 8161 8164 8163 8163 8164 8158 8158 8159 8160 
8127 8121 8124 8124 8127 8130 8134 8136 8139 8132 8137 8135 8137 8136 8142 8140 8136 8141 8138 8139 8135 8142 8143 8136 8137 8144 8149 8136 8145 8142 8147 8157 8162 8162 8157 8160 8155 8156 8155 8152 8154 8159 8159 8160 8164 8157 8154 8161 8156 8161 8162 8159 8154 8157 8154 8154 8159 8156 8158 8160 8152 8154 8156 8153 8156 8151 8150 8151 8153 8157 8156 8157 8162 8157 8158 8164 8157 8157 8157 8161 
8126 8123 8120 8119 8125 8129 8133 8134 8137 8130 8138 8137 8137 8137 8142 8144 8140 8138 8138 8139 8134 8140 8142 8138 8135 8134 8145 8141 8142 8145 8149 8155 8159 8164 8158 8161 8155 8152 8154 8156 8153 8155 8158 8158 8157 8157 8154 8155 8156 8154 8155 8155 8151 8153 8155 8157 8158 8158 8155 8154 8153 8155 8156 8154 8153 8150 8150 8148 8154 8155 8154 8159 8158 8154 8162 8159 8158 8160 8160 8158 
8130 8126 8119 8117 8119 8127 8126 8136 8137 8134 8131 8133 8133 8136 8133 8143 8140 8139 8131 8140 8136 8141 8138 8139 8134 8131 8136 8145 8138 8146 8147 8155 8156 8162 8160 8162 8156 8153 8152 8153 8156 8156 8152 8149 8146 8148 8147 8149 8145 8141 8132 8138 8147 8152 8152 8155 8153 8154 8155 8151 8150 8154 8153 8155 8151 8150 8149 8153 8152 8156 8157 8159 8153 8155 8159 8158 8153 8156 8158 8157 
8130 8129 8121 8128 8129 8129 8115 8133 8129 8135 8131 8131 8136 8138 8132 8136 8137 8139 8129 8135 8135 8140 8137 8138 8136 8137 8136 8142 8144 8141 8145 8151 8160 8164 8161 8161 8155 8152 8152 8154 8149 8153 8122 8091 8077 8094 8108 8115 8072 8069 8096 8119 8122 8135 8124 8127 8140 8152 8148 8150 8152 8151 8154 8154 8152 8151 8148 8152 8154 8154 8154 8152 8157 8150 8159 8152 8151 8155 8155 8159 
8132 8125 8125 8130 8126 8124 8116 8114 8122 8135 8138 8131 8132 8137 8135 8135 8135 8134 8129 8138 8138 8142 8134 8141 8141 8132 8118 8140 8143 8146 8147 8147 8159 8164 8160 8158 8156 8153 8156 8150 8147 8153 8133 8085 8075 8078 8056 8067 8075 8083 8129 8113 8076 8058 8058 8063 8079 8132 8143 8146 8152 8151 8154 8147 8152 8149 8148 8153 8149 8146 8148 8144 8152 8149 8155 8153 8153 8159 8153 8156 
8131 8129 8125 8131 8129 8127 8128 8117 8132 8135 8136 8129 8136 8138 8140 8136 8138 8138 8132 8142 8142 8140 8142 8136 8138 8136 8122 8136 8144 8144 8149 8155 8159 8162 8159 8156 8157 8154 8151 8149 8149 8149 8086 8073 8140 8141 8129 8070 8072 8086 8065 8055 8050 8063 8098 8079 8072 8089 8126 8145 8147 8151 8148 8149 8155 8150 8150 8152 8148 8151 8144 8144 8150 8148 8150 8150 8149 8155 8153 8155 
8133 8124 8129 8132 8131 8128 8122 8129 8133 8131 8136 8135 8141 8138 8142 8142 8138 8140 8138 8140 8141 8139 8141 8138 8139 8138 8138 8120 8142 8145 8154 8156 8161 8160 8157 8160 8159 8153 8150 8153 8148 8148 8066 8076 8141 8141 8142 8123 8067 8101 8070 8098 8104 8077 8126 8145 8144 8133 8101 8130 8144 8148 8148 8151 8151 8148 8148 8153 8150 8150 8148 8150 8151 8146 8149 8147 8150 8151 8154 8157 
8131 8120 8121 8132 8129 8124 8129 8119 8116 8131 8132 8137 8138 8139 8140 8140 8140 8140 8132 8136 8139 8140 8141 8136 8137 8135 8140 8128 8134 8147 8146 8157 8155 8160 8160 8157 8156 8153 8153 8151 8150 8146 8082 8062 8078 8112 8125 8100 8079 8118 8101 8139 8137 8139 8141 8151 8148 8146 8129 8122 8147 8144 8142 8144 8148 8149 8150 8150 8149 8146 8142 8147 8148 8148 8143 8150 8144 8150 8149 8155 
8131 8126 8118 8129 8125 8130 8125 8118 8127 8135 8131 8136 8137 8138 8140 8140 8139 8139 8137 8131 8133 8134 8136 8137 8133 8134 8139 8141 8128 8147 8147 8154 8158 8158 8157 8160 8153 8152 8150 8145 8144 8099 8060 8054 8057 8069 8060 8053 8055 8070 8106 8140 8138 8146 8149 8150 8151 8150 8150 8145 8145 8142 8146 8146 8147 8148 8145 8146 8146 8145 8145 8143 8146 8150 8142 8149 8151 8149 8148 8154 
8127 8129 8127 8130 8132 8120 8126 8126 8125 8135 8131 8140 8140 8138 8140 8137 8139 8137 8136 8134 8133 8133 8137 8137 8137 8139 8143 8144 8134 8135 8150 8154 8157 8159 8155 8160 8150 8146 8149 8145 8115 8060 8049 8056 8060 8086 8074 8049 8051 8054 8054 8101 8137 8147 8150 8153 8152 8152 8152 8155 8149 8151 8147 8148 8148 8148 8147 8139 8141 8143 8144 8142 8145 8145 8147 8152 8155 8150 8152 8152 
8129 8122 8123 8131 8123 8128 8130 8127 8131 8138 8141 8140 8142 8136 8139 8132 8139 8139 8136 8134 8133 8133 8136 8138 8136 8141 8142 8143 8145 8131 8144 8154 8157 8156 8154 8157 8150 8148 8151 8128 8075 8051 8052 8059 8057 8085 8131 8064 8062 8050 8044 8051 8127 8151 8151 8154 8152 8151 8151 8148 8150 8144 8141 8148 8146 8145 8144 8141 8138 8143 8145 8145 8147 8144 8150 8153 8145 8158 8154 8156 
8130 8120 8124 8129 8125 8132 8132 8130 8133 8132 8142 8139 8137 8137 8134 8142 8135 8141 8140 8136 8134 8137 8137 8144 8141 8139 8142 8144 8141 8143 8131 8154 8157 8154 8152 8148 8154 8154 8151 8097 8052 8043 8052 8060 8092 8117 8138 8093 8078 8073 8066 8043 8119 8149 8152 8154 8151 8147 8146 8145 8144 8144 8143 8144 8147 8146 8147 8142 8141 8141 8141 8143 8146 8142 8152 8146 8146 8155 8152 8152 
8132 8123 8125 8132 8129 8131 8126 8129 8134 8133 8138 8133 8134 8140 8138 8140 8139 8137 8137 8134 8133 8135 8138 8144 8138 8138 8144 8145 8141 8145 8130 8141 8154 8155 8151 8152 8152 8152 8146 8097 8045 8045 8047 8072 8133 8144 8144 8119 8054 8080 8068 8038 8093 8129 8144 8149 8148 8145 8148 8144 8145 8145 8147 8147 8145 8144 8146 8144 8141 8141 8145 8145 8146 8150 8146 8143 8152 8155 8151 8155 
8134 8123 8122 8128 8123 8134 8128 8129 8136 8136 8133 8138 8136 8136 8138 8141 8139 8134 8134 8137 8130 8141 8138 8144 8139 8137 8141 8146 8145 8146 8141 8119 8148 8151 8151 8153 8149 8146 8147 8099 8067 8048 8082 8139 8149 8151 8146 8132 8053 8045 8040 8039 8049 8059 8097 8142 8144 8150 8148 8147 8144 8148 8142 8144 8146 8140 8143 8140 8144 8142 8145 8146 8146 8146 8145 8143 8150 8150 8153 8157 
8135 8127 8123 8127 8121 8135 8126 8128 8138 8142 8136 8138 8129 8136 8138 8139 8138 8132 8132 8133 8139 8140 8140 8141 8146 8139 8146 8144 8147 8147 8142 8134 8143 8145 8148 8149 8150 8143 8143 8139 8083 8051 8115 8146 8152 8150 8146 8093 8041 8041 8041 8037 8042 8060 8078 8133 8143 8146 8148 8149 8143 8142 8140 8141 8143 8144 8140 8141 8142 8147 8147 8149 8147 8147 8146 8150 8147 8153 8153 8149 
8143 8121 8137 8137 8134 8131 8127 8134 8141 8136 8140 8139 8128 8139 8137 8133 8134 8137 8141 8131 8136 8139 8135 8138 8144 8145 8143 8145 8148 8144 8141 8150 8128 8147 8148 8148 8148 8148 8146 8145 8115 8071 8135 8146 8151 8147 8123 8069 8053 8038 8040 8041 8079 8105 8068 8110 8141 8145 8146 8145 8145 8141 8141 8140 8144 8146 8142 8144 8143 8150 8148 8148 8144 8150 8153 8147 8147 8152 8150 8149 
8145 8130 8133 8131 8135 8128 8138 8138 8138 8133 8139 8138 8135 8136 8141 8136 8138 8139 8139 8137 8141 8136 8134 8129 8138 8142 8139 8142 8145 8145 8145 8142 8134 8133 8147 8151 8149 8149 8148 8145 8145 8138 8147 8144 8138 8113 8068 8052 8044 8046 8046 8038 8046 8058 8051 8059 8095 8139 8144 8144 8148 8147 8145 8143 8145 8141 8142 8139 8145 8148 8145 8146 8143 8148 8148 8145 8150 8150 8150 8148 
8144 8134 8131 8137 8135 8132 8139 8140 8138 8131 8130 8140 8142 8139 8143 8141 8140 8139 8138 8137 8140 8143 8140 8130 8141 8135 8139 8137 8142 8144 8141 8143 8151 8131 8142 8150 8149 8149 8149 8148 8147 8150 8146 8141 8083 8069 8051 8040 8042 8044 8044 8045 8044 8046 8049 8054 8080 8100 8141 8148 8149 8148 8144 8142 8143 8142 8143 8138 8143 8146 8146 8146 8142 8145 8146 8152 8151 8146 8149 8152 
8141 8135 8135 8139 8134 8134 8141 8133 8140 8128 8135 8141 8142 8137 8137 8137 8138 8131 8139 8139 8140 8139 8141 8136 8138 8134 8141 8138 8143 8145 8139 8140 8146 8146 8112 8140 8145 8141 8139 8139 8142 8141 8135 8092 8089 8085 8055 8049 8048 8045 8042 8039 8043 8050 8046 8056 8101 8097 8122 8147 8143 8145 8142 8135 8144 8143 8147 8135 8134 8138 8144 8145 8145 8151 8152 8150 8146 8143 8144 8146 
8141 8135 8135 8138 8135 8136 8139 8132 8137 8137 8138 8141 8139 8136 8136 8138 8129 8131 8132 8133 8135 8139 8139 8139 8138 8140 8139 8142 8145 8142 8133 8132 8124 8117 8096 8097 8095 8092 8085 8085 8086 8094 8080 8056 8058 8059 8060 8053 8044 8042 8046 8039 8051 8054 8046 8050 8061 8079 8118 8135 8135 8138 8136 8134 8144 8142 8139 8143 8144 8145 8144 8147 8144 8150 8150 8152 8147 8147 8145 8145 
8142 8136 8135 8139 8139 8138 8134 8136 8137 8136 8138 8138 8137 8137 8139 8130 8136 8132 8131 8134 8136 8131 8135 8140 8141 8135 8138 8139 8129 8086 8076 8074 8078 8082 8077 8082 8081 8087 8085 8096 8100 8091 8093 8064 8049 8051 8095 8097 8066 8046 8051 8049 8057 8059 8054 8057 8059 8068 8071 8074 8082 8098 8113 8124 8138 8133 8143 8143 8147 8145 8139 8143 8145 8146 8148 8150 8149 8149 8143 8143 
8142 8137 8145 8141 8139 8139 8139 8134 8137 8137 8140 8132 8136 8136 8135 8130 8131 8130 8133 8135 8133 8128 8135 8140 8132 8133 8139 8138 8106 8066 8072 8092 8097 8097 8094 8095 8097 8100 8100 8102 8104 8092 8099 8065 8048 8053 8085 8096 8069 8046 8060 8056 8065 8060 8060 8071 8075 8064 8071 8062 8064 8078 8085 8079 8091 8116 8134 8144 8139 8144 8140 8139 8140 8145 8150 8146 8145 8140 8139 8144 
8135 8135 8150 8130 8137 8140 8134 8140 8135 8135 8130 8140 8135 8131 8141 8130 8129 8133 8139 8139 8136 8136 8137 8139 8134 8133 8141 8138 8107 8084 8079 8084 8097 8098 8093 8097 8091 8096 8102 8101 8098 8095 8095 8066 8053 8051 8047 8065 8064 8059 8076 8059 8067 8067 8064 8075 8073 8070 8072 8069 8058 8081 8074 8076 8084 8089 8121 8135 8138 8138 8146 8139 8140 8146 8147 8146 8147 8137 8141 8143 
8141 8129 8146 8128 8137 8137 8128 8138 8138 8136 8132 8136 8137 8137 8141 8141 8131 8133 8134 8139 8137 8134 8136 8139 8143 8140 8137 8143 8124 8083 8066 8071 8074 8074 8083 8095 8092 8092 8086 8089 8094 8091 8068 8064 8052 8056 8056 8064 8061 8074 8083 8066 8078 8073 8079 8083 8083 8074 8073 8074 8067 8081 8082 8092 8095 8103 8129 8135 8138 8136 8142 8143 8141 8147 8147 8150 8148 8147 8139 8140 
8143 8134 8135 8129 8125 8138 8135 8138 8139 8140 8141 8137 8133 8141 8133 8129 8129 8133 8128 8125 8137 8130 8137 8141 8138 8137 8134 8143 8136 8074 8069 8076 8074 8071 8081 8077 8075 8097 8101 8103 8098 8083 8088 8095 8089 8098 8091 8098 8101 8117 8121 8104 8092 8082 8076 8087 8087 8085 8095 8110 8117 8116 8105 8107 8104 8115 8137 8135 8136 8138 8140 8143 8142 8144 8146 8145 8150 8148 8141 8143 
8147 8134 8138 8135 8132 8134 8136 8135 8138 8140 8132 8136 8143 8142 8126 8127 8125 8124 8124 8132 8137 8126 8134 8142 8142 8136 8132 8140 8137 8079 8073 8072 8064 8075 8088 8090 8086 8099 8105 8107 8105 8094 8100 8119 8122 8121 8117 8124 8136 8159 8175 8140 8118 8097 8087 8091 8089 8098 8113 8125 8125 8110 8105 8114 8110 8124 8133 8134 8133 8140 8143 8137 8143 8145 8147 8146 8148 8147 8138 8137 
8145 8140 8135 8130 8131 8136 8137 8124 8139 8139 8136 8131 8136 8137 8130 8125 8129 8135 8122 8133 8131 8123 8133 8137 8133 8147 8137 8138 8138 8123 8084 8078 8071 8074 8086 8087 8097 8100 8101 8106 8101 8097 8097 8118 8121 8116 8123 8121 8129 8141 8155 8131 8122 8114 8109 8089 8089 8105 8114 8111 8105 8104 8105 8120 8112 8124 8130 8136 8140 8137 8137 8139 8145 8142 8140 8148 8146 8140 8140 8138 
8142 8127 8129 8135 8133 8135 8139 8133 8132 8135 8131 8123 8135 8130 8129 8134 8134 8128 8126 8134 8137 8138 8137 8142 8138 8145 8143 8143 8143 8142 8124 8090 8066 8075 8100 8105 8100 8094 8095 8098 8105 8096 8102 8120 8116 8116 8118 8120 8123 8123 8129 8123 8120 8116 8114 8104 8108 8112 8115 8104 8094 8100 8104 8118 8122 8133 8136 8136 8138 8138 8135 8134 8146 8146 8140 8143 8145 8144 8138 8142 
8148 8136 8119 8138 8136 8135 8138 8136 8131 8128 8125 8133 8133 8127 8125 8128 8131 8127 8126 8131 8137 8137 8138 8145 8136 8137 8134 8139 8144 8144 8134 8101 8095 8091 8098 8107 8099 8099 8098 8096 8106 8102 8104 8113 8112 8110 8108 8116 8119 8126 8131 8127 8134 8132 8119 8123 8125 8116 8107 8097 8092 8099 8103 8115 8126 8126 8127 8128 8128 8132 8132 8133 8139 8145 8143 8141 8143 8139 8135 8131 
8137 8138 8131 8134 8129 8133 8133 8136 8142 8144 8139 8125 8127 8120 8121 8128 8129 8131 8127 8133 8143 8135 8134 8145 8146 8140 8133 8138 8143 8147 8140 8107 8102 8106 8102 8107 8097 8096 8096 8097 8110 8117 8114 8116 8117 8108 8113 8122 8133 8141 8147 8143 8146 8141 8131 8124 8119 8106 8106 8095 8096 8111 8106 8114 8126 8124 8125 8120 8127 8128 8126 8132 8133 8136 8140 8141 8137 8138 8132 8127 
8141 8118 8134 8136 8128 8139 8142 8135 8139 8125 8127 8126 8124 8115 8121 8123 8128 8129 8129 8135 8139 8133 8140 8139 8145 8143 8142 8138 8138 8143 8144 8107 8107 8098 8104 8101 8103 8104 8099 8100 8116 8119 8119 8116 8112 8113 8116 8117 8125 8132 8137 8134 8133 8124 8116 8110 8109 8101 8099 8098 8102 8110 8110 8117 8120 8120 8115 8116 8124 8120 8126 8122 8131 8129 8132 8133 8129 8125 8127 8129 
8140 8121 8129 8130 8124 8135 8145 8128 8132 8124 8124 8124 8124 8120 8113 8119 8124 8132 8137 8136 8130 8141 8145 8144 8144 8144 8149 8144 8142 8142 8148 8113 8109 8098 8105 8101 8102 8103 8105 8107 8110 8119 8115 8118 8116 8117 8116 8121 8117 8115 8123 8128 8123 8121 8110 8107 8109 8112 8109 8100 8103 8109 8110 8116 8118 8118 8114 8120 8122 8123 8119 8124 8126 8128 8125 8125 8122 8129 8121 8128 
8136 8110 8120 8121 8124 8127 8139 8125 8123 8122 8120 8115 8113 8117 8117 8120 8124 8131 8141 8136 8139 8138 8140 8148 8136 8140 8138 8139 8147 8147 8148 8120 8098 8100 8100 8097 8096 8102 8105 8108 8109 8116 8115 8108 8117 8112 8119 8119 8122 8118 8117 8124 8118 8116 8092 8113 8114 8110 8103 8103 8106 8107 8108 8121 8122 8128 8131 8135 8136 8138 8124 8122 8129 8124 8119 8112 8117 8111 8123 8125 
8132 8118 8110 8116 8117 8117 8115 8124 8107 8103 8113 8108 8107 8109 8112 8111 8127 8136 8144 8140 8143 8144 8150 8154 8141 8155 8152 8144 8151 8157 8138 8136 8101 8094 8100 8092 8094 8100 8109 8107 8111 8111 8112 8109 8115 8114 8112 8117 8120 8114 8119 8116 8116 8112 8103 8114 8114 8110 8106 8111 8109 8109 8122 8124 8124 8133 8131 8128 8149 8134 8127 8122 8119 8117 8124 8118 8121 8122 8122 8123 
8131 8108 8111 8113 8108 8105 8107 8117 8112 8105 8092 8095 8092 8102 8107 8103 8134 8149 8149 8154 8146 8156 8156 8157 8156 8157 8159 8156 8160 8150 8151 8140 8106 8097 8100 8096 8098 8099 8099 8106 8106 8109 8105 8117 8115 8113 8114 8115 8109 8111 8112 8117 8109 8116 8112 8111 8111 8114 8116 8112 8109 8115 8137 8132 8143 8141 8131 8131 8143 8133 8134 8130 8119 8125 8120 8119 8108 8115 8119 8124 
8125 8112 8117 8113 8116 8111 8111 8115 8106 8107 8097 8101 8094 8110 8112 8130 8149 8159 8154 8153 8157 8157 8161 8165 8165 8160 8162 8163 8157 8157 8160 8142 8107 8102 8097 8096 8099 8104 8102 8097 8102 8109 8103 8112 8117 8113 8115 8113 8118 8118 8116 8119 8110 8106 8116 8111 8110 8105 8107 8109 8118 8124 8152 8153 8153 8152 8137 8138 8139 8129 8132 8137 8129 8127 8113 8112 8114 8107 8121 8121 
8130 8122 8113 8114 8103 8103 8114 8111 8099 8106 8095 8104 8105 8122 8143 8157 8166 8162 8168 8168 8165 8166 8161 8169 8171 8160 8161 8159 8163 8159 8156 8144 8113 8095 8087 8092 8099 8102 8100 8099 8102 8104 8113 8112 8112 8113 8102 8115 8116 8120 8115 8122 8113 8104 8112 8110 8116 8101 8102 8113 8114 8127 8153 8161 8164 8150 8148 8143 8137 8134 8135 8132 8137 8130 8114 8122 8100 8109 8116 8121 
8130 8120 8124 8117 8115 8108 8115 8108 8097 8106 8106 8102 8125 8157 8175 8180 8184 8180 8171 8173 8187 8186 8180 8182 8176 8148 8166 8167 8173 8165 8154 8153 8122 8094 8081 8086 8095 8097 8098 8097 8105 8112 8111 8115 8114 8113 8099 8114 8121 8114 8119 8113 8112 8111 8109 8109 8112 8112 8109 8113 8111 8135 8167 8172 8176 8165 8153 8159 8149 8133 8140 8140 8150 8151 8145 8127 8116 8115 8117 8121 
8123 8116 8129 8116 8108 8102 8116 8096 8110 8110 8110 8112 8157 8180 8190 8179 8178 8193 8178 8186 8193 8186 8187 8190 8182 8163 8155 8172 8175 8172 8169 8154 8126 8095 8085 8092 8095 8093 8091 8096 8095 8110 8103 8111 8116 8102 8112 8111 8116 8118 8113 8116 8098 8103 8111 8107 8103 8106 8103 8105 8112 8143 8174 8173 8164 8175 8163 8167 8157 8153 8148 8144 8141 8146 8151 8140 8134 8119 8113 8124 
8154 8143 8138 8109 8131 8115 8127 8107 8120 8111 8119 8143 8173 8193 8197 8191 8183 8190 8187 8194 8182 8187 8181 8188 8191 8174 8175 8174 8166 8144 8125 8130 8118 8093 8077 8087 8088 8081 8088 8093 8102 8102 8097 8109 8110 8103 8110 8113 8109 8112 8113 8113 8103 8102 8108 8101 8104 8101 8100 8102 8108 8156 8171 8166 8170 8168 8164 8168 8162 8154 8152 8142 8145 8145 8153 8156 8155 8135 8131 8123 
8167 8137 8133 8138 8129 8114 8121 8131 8129 8121 8154 8165 8170 8196 8184 8173 8166 8177 8181 8175 8189 8166 8175 8178 8191 8173 8175 8172 8164 8158 8147 8111 8108 8097 8077 8088 8083 8085 8089 8094 8096 8104 8099 8095 8098 8094 8108 8110 8112 8112 8105 8104 8102 8103 8098 8094 8100 8100 8107 8102 8122 8157 8163 8162 8163 8164 8159 8171 8164 8161 8155 8153 8150 8136 8139 8147 8146 8135 8132 8135 
8168 8154 8142 8132 8137 8129 8128 8125 8122 8132 8152 8160 8170 8174 8170 8164 8167 8168 8164 8175 8176 8171 8171 8180 8181 8176 8172 8173 8161 8155 8150 8121 8101 8091 8083 8087 8075 8084 8084 8087 8089 8101 8099 8097 8092 8089 8098 8101 8107 8101 8100 8094 8093 8096 8091 8092 8097 8095 8104 8100 8117 8151 8154 8154 8156 8152 8149 8158 8151 8147 8142 8146 8140 8121 8124 8123 8115 8136 8133 8135 


