P2
80 60
8246
8147 8141 8154 8157 8162 8156 8156 8151 8152 8152 8163 8168 8169 8164 8169 8177 8166 8165 8164 8161 8165 8173 8166 8164 8166 8180 8177 8177 8178 8184 8187 8191 8198 8199 8200 8198 8198 8196 8204 8205 8211 8205 8199 8193 8196 8202 8198 8196 8191 8194 8189 8191 8190 8173 8172 8178 8172 8179 8185 8191 8189 8187 8193 8190 8192 8198 8192 8190 8191 8200 8196 8204 8201 8206 8210 8214 8208 8212 8214 8214 
8149 8151 8156 8156 8162 8157 8153 8150 8150 8161 8158 8167 8162 8166 8160 8171 8165 8166 8155 8162 8169 8168 8166 8161 8175 8167 8165 8172 8176 8174 8186 8188 8190 8192 8193 8192 8185 8198 8203 8201 8203 8204 8196 8195 8200 8199 8200 8196 8197 8193 8184 8189 8191 8179 8175 8185 8179 8177 8183 8185 8191 8190 8198 8185 8188 8192 8195 8193 8198 8200 8196 8193 8203 8202 8206 8200 8209 8209 8210 8207 
8136 8136 8143 8147 8155 8144 8148 8154 8151 8154 8162 8164 8157 8166 8166 8166 8167 8164 8154 8160 8156 8166 8160 8157 8170 8175 8167 8170 8172 8164 8177 8185 8184 8198 8193 8186 8186 8196 8197 8202 8200 8198 8192 8200 8196 8195 8197 8196 8192 8189 8188 8181 8182 8183 8184 8180 8180 8189 8187 8175 8190 8193 8186 8196 8192 8187 8190 8190 8198 8203 8193 8191 8197 8201 8198 8197 8213 8206 8205 8200 
8146 8130 8150 8144 8155 8147 8153 8152 8155 8156 8151 8150 8165 8164 8157 8163 8161 8163 8153 8155 8156 8157 8139 8162 8168 8166 8171 8169 8172 8180 8174 8183 8190 8187 8200 8184 8192 8192 8192 8199 8200 8194 8197 8187 8193 8190 8199 8196 8193 8187 8186 8181 8190 8179 8182 8183 8173 8175 8182 8177 8187 8192 8182 8192 8184 8182 8186 8186 8191 8201 8189 8199 8195 8203 8198 8193 8209 8205 8202 8202 
8145 8133 8153 8144 8151 8154 8155 8142 8148 8153 8152 8147 8157 8158 8154 8161 8158 8156 8159 8148 8155 8155 8148 8153 8163 8169 8166 8165 8161 8175 8174 8185 8186 8181 8188 8187 8188 8186 8194 8198 8199 8197 8187 8185 8186 8184 8188 8189 8188 8189 8184 8187 8185 8176 8181 8180 8172 8186 8184 8180 8190 8189 8186 8186 8184 8185 8181 8178 8195 8193 8185 8196 8193 8202 8187 8197 8206 8202 8200 8203 
8150 8138 8146 8148 8148 8145 8157 8154 8152 8154 8140 8155 8161 8154 8151 8158 8160 8147 8156 8160 8153 8153 8160 8152 8164 8171 8168 8166 8163 8172 8180 8188 8182 8178 8189 8187 8189 8188 8188 8202 8201 8194 8198 8184 8189 8193 8189 8194 8186 8187 8186 8186 8187 8178 8176 8182 8177 8184 8189 8185 8182 8189 8185 8187 8183 8185 8186 8180 8189 8196 8193 8190 8203 8189 8189 8194 8204 8196 8198 8201 
8155 8144 8148 8160 8156 8142 8159 8155 8151 8142 8135 8160 8161 8149 8153 8162 8145 8150 8156 8160 8148 8154 8159 8155 8167 8168 8158 8159 8164 8180 8177 8184 8183 8185 8189 8186 8183 8183 8193 8199 8200 8188 8197 8187 8192 8188 8194 8191 8188 8186 8182 8178 8186 8181 8174 8181 8171 8173 8185 8183 8179 8188 8186 8186 8182 8189 8193 8199 8180 8181 8194 8195 8194 8186 8194 8194 8199 8192 8200 8199 
8155 8145 8143 8155 8145 8145 8158 8163 8154 8127 8153 8162 8157 8149 8161 8159 8151 8154 8152 8151 8157 8158 8155 8161 8165 8166 8153 8162 8164 8178 8179 8185 8189 8190 8193 8184 8180 8187 8185 8195 8197 8189 8193 8191 8185 8189 8186 8179 8183 8182 8176 8174 8186 8177 8173 8176 8173 8180 8179 8180 8176 8181 8184 8187 8181 8191 8191 8194 8183 8183 8185 8185 8195 8186 8194 8194 8196 8204 8198 8199 
8155 8138 8143 8145 8150 8144 8158 8152 8151 8142 8150 8155 8150 8154 8149 8154 8151 8146 8156 8156 8155 8149 8149 8154 8150 8165 8155 8162 8160 8169 8171 8176 8179 8181 8186 8188 8186 8183 8185 8192 8189 8188 8189 8183 8184 8191 8183 8180 8181 8171 8173 8173 8176 8177 8175 8167 8171 8179 8176 8179 8176 8172 8174 8179 8181 8181 8181 8193 8184 8188 8182 8181 8180 8187 8189 8191 8205 8205 8203 8196 
8148 8132 8143 8148 8145 8150 8141 8153 8151 8149 8148 8154 8153 8161 8151 8150 8155 8149 8156 8162 8149 8149 8151 8148 8145 8160 8154 8164 8161 8164 8168 8172 8172 8178 8190 8188 8185 8187 8183 8190 8188 8188 8190 8176 8179 8190 8186 8183 8178 8168 8164 8168 8177 8170 8173 8159 8173 8176 8176 8176 8179 8178 8179 8182 8182 8180 8179 8187 8177 8192 8188 8187 8189 8187 8190 8186 8201 8206 8202 8197 
8148 8133 8141 8141 8142 8149 8135 8146 8148 8141 8148 8148 8153 8153 8147 8149 8153 8140 8139 8150 8151 8147 8148 8152 8150 8153 8161 8160 8161 8166 8166 8162 8165 8179 8178 8175 8174 8174 8180 8185 8185 8181 8178 8184 8183 8185 8187 8172 8149 8123 8129 8133 8165 8167 8166 8154 8167 8165 8176 8175 8178 8177 8184 8174 8175 8178 8185 8181 8178 8182 8179 8187 8181 8182 8189 8182 8194 8194 8201 8195 
8145 8141 8135 8140 8136 8144 8138 8145 8146 8136 8149 8142 8152 8150 8150 8149 8146 8141 8142 8153 8154 8151 8141 8151 8155 8159 8155 8155 8160 8160 8157 8138 8129 8156 8165 8164 8172 8171 8171 8177 8175 8176 8174 8182 8182 8182 8181 8155 8161 8162 8142 8113 8137 8156 8166 8163 8167 8163 8176 8178 8173 8174 8178 8179 8174 8179 8185 8183 8180 8175 8182 8182 8182 8184 8177 8181 8200 8198 8194 8193 
8143 8140 8130 8131 8134 8138 8143 8129 8136 8140 8140 8140 8143 8145 8149 8152 8139 8144 8144 8143 8140 8148 8136 8144 8153 8154 8139 8158 8152 8123 8091 8063 8068 8083 8103 8119 8150 8150 8107 8148 8143 8119 8139 8174 8177 8167 8158 8164 8169 8168 8169 8133 8102 8126 8156 8153 8164 8164 8171 8171 8171 8172 8179 8172 8179 8180 8181 8177 8183 8169 8169 8179 8182 8182 8181 8190 8199 8194 8196 8192 
8145 8147 8139 8144 8143 8141 8141 8144 8128 8141 8148 8147 8146 8145 8147 8136 8136 8131 8132 8141 8140 8141 8132 8137 8143 8149 8153 8152 8132 8089 8077 8060 8071 8083 8099 8121 8107 8110 8088 8118 8098 8090 8143 8171 8162 8154 8162 8167 8173 8170 8164 8165 8106 8082 8131 8151 8163 8165 8169 8167 8170 8165 8179 8174 8187 8183 8178 8177 8182 8180 8178 8183 8183 8188 8176 8191 8195 8203 8196 8194 
8155 8133 8145 8147 8141 8141 8139 8145 8136 8136 8143 8148 8149 8147 8143 8107 8079 8070 8081 8090 8105 8102 8079 8087 8103 8123 8131 8141 8125 8089 8073 8071 8072 8076 8093 8100 8090 8089 8088 8087 8076 8095 8114 8130 8135 8143 8140 8133 8161 8168 8167 8168 8139 8083 8105 8153 8160 8161 8166 8167 8171 8167 8172 8177 8179 8184 8181 8176 8180 8173 8177 8184 8188 8189 8178 8184 8189 8191 8194 8197 
8155 8129 8137 8143 8138 8132 8136 8141 8137 8144 8143 8141 8145 8139 8110 8070 8063 8065 8091 8087 8058 8057 8058 8068 8078 8094 8096 8123 8125 8091 8088 8084 8076 8081 8082 8086 8090 8081 8075 8071 8088 8110 8098 8117 8131 8132 8123 8133 8153 8162 8162 8165 8161 8100 8083 8145 8143 8130 8145 8158 8170 8161 8173 8174 8187 8181 8173 8177 8174 8179 8180 8179 8179 8181 8180 8186 8192 8194 8191 8188 
8153 8125 8133 8144 8140 8132 8134 8134 8139 8144 8142 8147 8135 8119 8068 8064 8061 8081 8090 8077 8058 8065 8054 8060 8076 8085 8099 8101 8107 8082 8088 8083 8074 8082 8076 8082 8082 8082 8086 8074 8082 8092 8105 8104 8098 8096 8100 8143 8162 8163 8166 8168 8165 8125 8072 8121 8112 8098 8110 8122 8158 8162 8170 8171 8182 8178 8177 8178 8173 8171 8171 8174 8180 8183 8183 8182 8185 8193 8192 8189 
8148 8133 8143 8136 8140 8141 8139 8141 8138 8149 8144 8142 8137 8082 8064 8066 8072 8084 8084 8079 8076 8074 8046 8050 8072 8085 8088 8120 8098 8076 8074 8074 8064 8093 8084 8082 8081 8072 8080 8063 8088 8089 8106 8080 8078 8079 8131 8151 8159 8164 8159 8167 8161 8147 8087 8113 8099 8095 8103 8120 8160 8166 8173 8179 8178 8178 8182 8181 8178 8177 8169 8185 8186 8185 8185 8189 8188 8184 8189 8187 
8148 8137 8142 8143 8141 8138 8145 8146 8146 8136 8142 8144 8121 8067 8081 8083 8065 8058 8051 8050 8053 8073 8058 8059 8078 8075 8077 8071 8064 8054 8055 8056 8063 8110 8091 8077 8075 8070 8072 8068 8085 8084 8084 8067 8076 8067 8113 8152 8122 8128 8126 8139 8152 8155 8108 8102 8096 8093 8103 8127 8156 8159 8177 8173 8175 8169 8176 8173 8172 8177 8177 8177 8184 8175 8181 8190 8184 8184 8189 8187 
8149 8138 8136 8138 8141 8141 8147 8148 8143 8138 8147 8144 8106 8095 8110 8069 8056 8052 8045 8053 8043 8058 8056 8056 8065 8066 8072 8050 8042 8047 8053 8048 8053 8061 8066 8065 8065 8072 8074 8079 8084 8056 8071 8062 8058 8062 8073 8088 8077 8080 8080 8096 8142 8148 8146 8093 8082 8093 8099 8125 8160 8163 8177 8176 8179 8175 8174 8172 8176 8178 8175 8184 8180 8176 8184 8186 8183 8188 8191 8184 
8151 8141 8137 8132 8133 8138 8138 8149 8145 8141 8136 8141 8105 8112 8064 8065 8057 8052 8041 8053 8043 8054 8057 8064 8062 8052 8045 8055 8048 8055 8055 8046 8055 8050 8049 8054 8050 8046 8054 8059 8056 8055 8063 8054 8053 8060 8062 8057 8085 8060 8072 8100 8109 8135 8145 8106 8068 8085 8087 8126 8160 8167 8172 8180 8178 8177 8173 8177 8175 8177 8176 8181 8174 8177 8183 8183 8179 8184 8188 8187 
8151 8144 8139 8145 8146 8142 8124 8144 8135 8142 8136 8130 8128 8088 8057 8055 8056 8057 8041 8052 8053 8064 8068 8074 8070 8053 8029 8053 8046 8043 8052 8050 8062 8061 8046 8041 8040 8047 8043 8052 8047 8056 8058 8043 8050 8064 8048 8051 8063 8043 8051 8060 8069 8111 8133 8103 8069 8074 8079 8141 8165 8161 8175 8176 8181 8177 8173 8177 8176 8177 8178 8171 8175 8168 8184 8178 8176 8182 8181 8185 
8156 8144 8142 8149 8144 8140 8131 8128 8131 8143 8145 8125 8095 8068 8060 8055 8052 8049 8044 8056 8062 8071 8067 8077 8078 8060 8048 8046 8042 8051 8071 8117 8126 8115 8048 8047 8045 8050 8049 8033 8035 8042 8049 8055 8052 8051 8046 8058 8056 8051 8060 8067 8058 8052 8059 8063 8061 8083 8097 8142 8164 8165 8174 8172 8176 8174 8174 8176 8169 8167 8173 8165 8174 8167 8180 8176 8183 8188 8179 8179 
8153 8149 8145 8149 8147 8144 8142 8129 8144 8144 8145 8114 8073 8066 8065 8057 8053 8055 8052 8073 8070 8064 8075 8070 8073 8061 8049 8039 8042 8046 8091 8140 8150 8126 8048 8051 8058 8073 8059 8043 8038 8045 8049 8051 8054 8051 8052 8054 8053 8068 8070 8065 8055 8050 8050 8056 8067 8090 8108 8154 8160 8166 8173 8174 8182 8177 8176 8177 8166 8170 8167 8167 8170 8171 8175 8173 8176 8182 8182 8181 
8155 8143 8150 8154 8147 8142 8135 8141 8145 8138 8141 8105 8072 8065 8064 8065 8058 8064 8063 8068 8072 8063 8080 8073 8070 8055 8036 8038 8043 8050 8066 8081 8120 8128 8047 8048 8060 8079 8080 8079 8045 8049 8052 8058 8060 8055 8053 8053 8060 8061 8066 8059 8047 8045 8053 8056 8059 8081 8123 8155 8157 8161 8164 8175 8181 8174 8177 8177 8169 8167 8172 8174 8173 8166 8172 8168 8174 8179 8184 8177 
8156 8137 8141 8153 8148 8140 8142 8132 8127 8140 8136 8094 8069 8064 8065 8069 8070 8069 8067 8070 8074 8075 8085 8076 8064 8041 8035 8041 8057 8065 8063 8069 8066 8099 8053 8041 8061 8065 8065 8079 8054 8051 8058 8065 8073 8075 8068 8037 8057 8060 8056 8059 8047 8044 8051 8049 8048 8063 8080 8146 8154 8152 8158 8165 8171 8174 8173 8174 8164 8161 8162 8169 8172 8171 8165 8174 8170 8174 8178 8180 
8155 8145 8139 8149 8141 8145 8141 8130 8134 8140 8127 8078 8067 8070 8070 8069 8069 8073 8074 8069 8071 8075 8081 8078 8054 8033 8042 8055 8063 8071 8067 8057 8049 8054 8044 8042 8046 8054 8065 8094 8053 8048 8054 8069 8071 8071 8047 8046 8055 8059 8046 8054 8044 8064 8061 8059 8053 8062 8073 8088 8094 8101 8131 8150 8162 8168 8167 8165 8164 8166 8165 8167 8169 8169 8164 8172 8179 8174 8173 8178 
8155 8150 8148 8150 8148 8137 8144 8138 8132 8143 8118 8074 8073 8071 8071 8071 8073 8076 8075 8074 8077 8083 8095 8108 8058 8055 8079 8096 8114 8126 8117 8071 8049 8048 8038 8043 8046 8063 8119 8130 8058 8047 8056 8070 8068 8050 8045 8066 8067 8056 8043 8056 8047 8067 8066 8067 8065 8071 8075 8080 8076 8082 8082 8094 8129 8156 8166 8156 8158 8162 8165 8161 8166 8165 8170 8178 8184 8178 8179 8178 
8154 8144 8144 8150 8139 8144 8140 8139 8140 8144 8126 8078 8081 8072 8073 8068 8082 8082 8080 8082 8086 8104 8123 8128 8072 8078 8127 8113 8132 8134 8115 8074 8059 8045 8033 8043 8083 8116 8122 8104 8058 8051 8053 8063 8057 8034 8060 8073 8075 8062 8046 8047 8054 8071 8068 8072 8070 8073 8078 8064 8078 8068 8074 8074 8078 8105 8142 8154 8153 8162 8159 8163 8161 8162 8170 8176 8172 8187 8181 8178 
8152 8145 8144 8151 8145 8148 8150 8139 8143 8136 8125 8082 8076 8076 8075 8089 8082 8090 8090 8092 8110 8128 8129 8133 8090 8058 8118 8103 8107 8139 8122 8078 8069 8055 8037 8038 8061 8067 8059 8049 8054 8044 8055 8066 8037 8045 8061 8068 8073 8073 8078 8047 8061 8079 8072 8074 8066 8068 8070 8064 8067 8068 8074 8064 8061 8068 8097 8143 8152 8157 8155 8164 8166 8160 8175 8166 8174 8186 8181 8179 
8158 8146 8148 8152 8148 8151 8144 8145 8143 8138 8122 8073 8074 8084 8088 8091 8088 8086 8100 8119 8123 8125 8129 8120 8075 8047 8079 8067 8108 8132 8116 8063 8058 8048 8038 8040 8059 8065 8052 8051 8055 8047 8055 8055 8051 8054 8061 8063 8076 8078 8123 8082 8062 8075 8065 8062 8062 8063 8068 8065 8063 8065 8071 8066 8061 8060 8070 8119 8149 8153 8159 8163 8166 8173 8172 8162 8183 8181 8177 8179 
8158 8145 8144 8146 8140 8150 8141 8141 8147 8139 8109 8079 8083 8082 8086 8092 8085 8097 8122 8129 8103 8115 8119 8113 8064 8058 8041 8056 8112 8123 8073 8054 8049 8042 8044 8055 8061 8063 8075 8056 8053 8056 8045 8065 8071 8057 8062 8062 8074 8075 8064 8060 8075 8072 8054 8046 8058 8062 8062 8070 8059 8060 8058 8057 8059 8054 8055 8090 8148 8154 8159 8167 8170 8164 8169 8165 8174 8181 8177 8179 
8162 8147 8145 8147 8138 8153 8139 8140 8145 8134 8099 8078 8078 8088 8092 8102 8119 8115 8109 8101 8066 8063 8060 8054 8037 8072 8041 8048 8095 8084 8051 8058 8062 8038 8044 8056 8063 8075 8124 8082 8050 8063 8048 8062 8065 8059 8069 8064 8053 8053 8049 8053 8054 8056 8050 8050 8064 8048 8048 8057 8058 8051 8051 8050 8050 8052 8053 8074 8142 8159 8164 8163 8160 8160 8167 8170 8167 8177 8174 8177 
8168 8143 8158 8158 8151 8147 8138 8145 8134 8098 8084 8083 8078 8094 8111 8131 8139 8142 8138 8122 8072 8048 8038 8041 8044 8039 8046 8040 8079 8085 8057 8063 8065 8055 8053 8071 8069 8078 8087 8071 8052 8058 8052 8059 8070 8054 8061 8063 8065 8118 8132 8108 8078 8061 8054 8047 8040 8041 8039 8050 8052 8051 8051 8052 8056 8064 8058 8069 8133 8163 8165 8164 8164 8171 8175 8167 8174 8180 8175 8171 
8168 8152 8157 8150 8153 8143 8149 8132 8100 8085 8093 8083 8088 8121 8148 8143 8148 8141 8141 8137 8129 8088 8040 8027 8034 8044 8042 8060 8042 8088 8094 8100 8123 8098 8067 8076 8072 8064 8058 8066 8048 8053 8048 8048 8051 8050 8060 8069 8108 8152 8153 8148 8113 8067 8062 8059 8043 8046 8040 8041 8050 8054 8058 8052 8055 8065 8077 8062 8127 8160 8159 8166 8160 8170 8165 8165 8176 8177 8176 8169 
8171 8154 8153 8157 8152 8146 8133 8104 8097 8107 8122 8096 8125 8146 8155 8151 8149 8146 8143 8139 8139 8137 8122 8089 8082 8069 8056 8086 8060 8044 8081 8111 8122 8098 8069 8074 8066 8060 8059 8065 8058 8054 8050 8056 8056 8060 8059 8096 8132 8147 8142 8153 8108 8082 8082 8088 8063 8063 8052 8045 8049 8053 8053 8049 8051 8046 8066 8054 8115 8157 8162 8162 8161 8163 8166 8176 8173 8172 8171 8169 
8167 8156 8159 8158 8153 8141 8111 8100 8135 8136 8141 8132 8153 8150 8152 8150 8149 8138 8145 8143 8137 8140 8140 8121 8098 8072 8077 8074 8079 8065 8064 8062 8084 8092 8060 8065 8069 8061 8058 8067 8065 8061 8063 8072 8079 8076 8085 8085 8092 8097 8092 8117 8093 8078 8079 8104 8104 8076 8057 8047 8048 8051 8049 8037 8050 8054 8058 8053 8093 8146 8155 8165 8167 8169 8172 8171 8171 8170 8171 8171 
8168 8155 8159 8159 8153 8127 8112 8136 8146 8150 8150 8154 8156 8150 8154 8151 8138 8139 8138 8137 8132 8138 8131 8083 8059 8064 8068 8070 8070 8067 8068 8065 8058 8076 8058 8062 8070 8065 8061 8070 8064 8069 8070 8096 8106 8106 8101 8092 8101 8096 8088 8097 8088 8081 8069 8099 8132 8102 8062 8048 8042 8043 8042 8043 8046 8049 8049 8062 8085 8144 8162 8165 8162 8170 8170 8174 8170 8174 8171 8167 
8169 8160 8161 8157 8149 8114 8136 8150 8151 8147 8150 8155 8153 8150 8150 8144 8148 8139 8137 8135 8136 8127 8100 8065 8061 8059 8066 8067 8065 8059 8082 8083 8071 8055 8054 8060 8067 8061 8063 8070 8060 8068 8077 8078 8079 8077 8088 8080 8088 8086 8089 8088 8081 8080 8069 8094 8143 8145 8087 8046 8043 8044 8045 8048 8055 8047 8057 8061 8091 8144 8154 8161 8162 8165 8170 8172 8176 8175 8166 8167 
8167 8161 8172 8161 8149 8138 8153 8150 8151 8152 8157 8147 8151 8149 8146 8141 8138 8139 8139 8137 8137 8124 8077 8059 8048 8051 8059 8059 8067 8065 8080 8087 8072 8055 8062 8071 8075 8058 8070 8066 8069 8075 8082 8082 8081 8079 8074 8075 8065 8066 8072 8079 8093 8084 8086 8115 8150 8155 8146 8069 8045 8042 8052 8048 8053 8050 8054 8066 8112 8157 8157 8160 8162 8169 8172 8170 8172 8164 8168 8163 
8163 8157 8179 8152 8158 8156 8152 8154 8150 8148 8145 8157 8154 8148 8157 8141 8138 8143 8147 8142 8139 8134 8083 8061 8050 8047 8060 8056 8058 8083 8092 8084 8082 8060 8077 8088 8084 8066 8084 8074 8081 8094 8100 8089 8086 8082 8080 8085 8079 8073 8084 8096 8094 8085 8098 8139 8154 8156 8152 8136 8059 8050 8043 8052 8056 8052 8054 8083 8140 8159 8167 8161 8161 8170 8172 8173 8171 8164 8164 8167 
8171 8152 8168 8149 8158 8158 8147 8150 8151 8149 8145 8154 8154 8147 8157 8153 8141 8142 8140 8139 8138 8131 8097 8051 8048 8050 8047 8048 8063 8088 8090 8098 8098 8093 8104 8110 8101 8090 8084 8085 8091 8098 8107 8086 8094 8094 8094 8095 8092 8096 8095 8105 8093 8087 8108 8144 8154 8154 8153 8150 8094 8050 8049 8054 8053 8057 8064 8118 8155 8157 8164 8170 8161 8172 8168 8174 8172 8170 8162 8170 
8172 8156 8161 8153 8149 8157 8153 8153 8154 8153 8156 8152 8149 8154 8147 8146 8140 8141 8133 8128 8140 8130 8121 8053 8041 8037 8038 8046 8068 8087 8089 8096 8101 8087 8104 8107 8092 8092 8091 8087 8093 8101 8105 8097 8095 8104 8091 8093 8097 8104 8104 8105 8088 8094 8130 8153 8151 8154 8155 8154 8135 8080 8050 8051 8058 8061 8100 8140 8156 8156 8160 8167 8163 8164 8171 8170 8174 8175 8166 8167 
8175 8155 8164 8159 8158 8151 8154 8152 8153 8153 8146 8154 8160 8159 8140 8140 8139 8134 8129 8133 8139 8127 8128 8082 8046 8040 8040 8055 8086 8086 8090 8098 8100 8074 8083 8099 8091 8090 8092 8083 8084 8082 8081 8097 8104 8104 8102 8103 8085 8088 8104 8098 8108 8119 8152 8153 8154 8158 8160 8160 8160 8130 8065 8056 8057 8085 8135 8150 8153 8161 8163 8159 8167 8170 8172 8167 8176 8174 8162 8162 
8170 8162 8160 8154 8154 8155 8157 8141 8155 8155 8151 8151 8153 8153 8145 8140 8142 8142 8128 8137 8132 8125 8130 8120 8057 8048 8046 8079 8089 8093 8095 8093 8106 8090 8091 8085 8092 8096 8097 8101 8091 8095 8084 8101 8102 8100 8109 8095 8092 8090 8099 8084 8094 8119 8155 8157 8158 8158 8159 8157 8158 8143 8081 8064 8087 8142 8149 8157 8162 8158 8160 8159 8165 8165 8166 8172 8171 8165 8161 8162 
8169 8151 8156 8158 8155 8155 8159 8150 8147 8148 8145 8143 8154 8148 8148 8150 8146 8137 8132 8136 8137 8140 8137 8139 8117 8072 8100 8103 8096 8095 8098 8092 8100 8104 8110 8107 8103 8097 8100 8098 8103 8097 8096 8104 8100 8108 8107 8102 8094 8095 8097 8091 8099 8120 8157 8154 8158 8152 8157 8158 8156 8148 8118 8129 8143 8157 8158 8157 8160 8162 8162 8157 8168 8167 8159 8168 8170 8163 8161 8158 
8174 8161 8144 8159 8157 8152 8160 8154 8146 8143 8141 8152 8150 8146 8141 8144 8142 8135 8132 8133 8137 8137 8136 8144 8134 8133 8123 8108 8099 8099 8098 8099 8105 8106 8109 8111 8103 8105 8103 8103 8103 8093 8101 8101 8100 8111 8101 8105 8098 8098 8096 8095 8106 8129 8146 8157 8154 8157 8151 8154 8155 8151 8149 8149 8148 8151 8152 8153 8153 8157 8157 8155 8164 8165 8164 8161 8168 8162 8159 8155 
8165 8160 8155 8159 8153 8153 8156 8153 8158 8156 8155 8143 8146 8136 8137 8141 8140 8139 8130 8133 8140 8133 8135 8144 8149 8144 8128 8110 8101 8102 8104 8108 8106 8117 8119 8118 8108 8102 8104 8103 8118 8119 8106 8103 8102 8102 8111 8107 8106 8104 8101 8094 8108 8137 8151 8150 8150 8156 8153 8145 8149 8152 8147 8148 8149 8146 8147 8142 8150 8152 8148 8157 8159 8157 8163 8163 8157 8158 8154 8152 
8169 8148 8160 8163 8155 8161 8164 8154 8157 8140 8142 8145 8146 8131 8136 8135 8139 8134 8132 8132 8136 8131 8139 8138 8147 8148 8141 8116 8106 8102 8107 8105 8123 8114 8122 8115 8121 8119 8111 8116 8125 8122 8120 8112 8101 8108 8112 8104 8104 8107 8094 8097 8116 8147 8151 8149 8147 8149 8144 8140 8144 8150 8147 8148 8142 8140 8140 8135 8146 8134 8148 8144 8151 8150 8152 8153 8145 8145 8150 8143 
8170 8147 8159 8157 8152 8158 8166 8148 8149 8136 8139 8142 8143 8136 8127 8131 8132 8137 8139 8133 8126 8138 8143 8141 8145 8150 8149 8125 8104 8106 8113 8109 8126 8115 8126 8116 8123 8119 8109 8120 8120 8117 8113 8116 8107 8114 8110 8112 8100 8095 8094 8112 8121 8144 8145 8145 8143 8149 8146 8139 8142 8143 8145 8140 8136 8137 8135 8138 8138 8141 8137 8143 8145 8139 8136 8137 8136 8145 8139 8144 
8167 8140 8150 8149 8147 8150 8162 8143 8141 8137 8137 8136 8130 8132 8129 8133 8132 8132 8140 8130 8136 8137 8139 8150 8140 8149 8145 8123 8115 8112 8114 8113 8117 8121 8126 8119 8119 8125 8119 8126 8120 8119 8121 8102 8111 8110 8117 8106 8106 8103 8097 8114 8125 8141 8121 8146 8143 8148 8139 8135 8145 8144 8143 8143 8137 8143 8148 8149 8149 8148 8140 8136 8141 8132 8127 8122 8125 8124 8136 8140 
8163 8143 8140 8146 8141 8143 8136 8144 8124 8119 8127 8130 8128 8126 8127 8124 8133 8136 8142 8137 8142 8145 8151 8155 8144 8160 8158 8133 8123 8123 8104 8128 8119 8116 8129 8116 8121 8117 8124 8121 8119 8117 8116 8107 8105 8111 8105 8111 8111 8101 8107 8114 8137 8148 8151 8156 8156 8159 8149 8159 8158 8158 8162 8146 8147 8152 8152 8149 8164 8149 8139 8133 8132 8123 8129 8124 8129 8133 8140 8138 
8154 8135 8137 8142 8137 8125 8127 8138 8129 8122 8111 8116 8114 8120 8125 8120 8143 8153 8151 8157 8149 8159 8159 8162 8166 8169 8172 8156 8140 8121 8120 8130 8122 8123 8129 8123 8130 8117 8107 8116 8105 8110 8111 8124 8106 8110 8112 8109 8099 8105 8102 8124 8144 8167 8168 8164 8166 8172 8176 8171 8174 8175 8175 8158 8161 8163 8148 8146 8163 8148 8145 8146 8130 8135 8132 8126 8120 8130 8147 8139 
8147 8133 8142 8142 8140 8134 8133 8135 8122 8125 8116 8122 8112 8129 8129 8143 8159 8162 8158 8156 8161 8166 8165 8168 8174 8172 8178 8168 8138 8127 8127 8122 8119 8130 8130 8125 8128 8123 8121 8115 8110 8117 8113 8120 8114 8118 8111 8111 8116 8115 8113 8133 8165 8159 8175 8171 8174 8174 8174 8176 8188 8185 8185 8176 8175 8171 8158 8154 8153 8143 8147 8149 8141 8137 8127 8124 8126 8127 8149 8142 
8152 8146 8140 8143 8129 8123 8131 8127 8111 8123 8115 8125 8129 8152 8170 8181 8186 8183 8188 8185 8181 8182 8172 8181 8186 8178 8179 8168 8148 8131 8119 8117 8125 8122 8128 8121 8125 8123 8117 8114 8113 8111 8123 8119 8118 8122 8106 8115 8113 8118 8114 8139 8170 8163 8182 8178 8188 8178 8180 8188 8193 8188 8184 8188 8191 8172 8169 8162 8153 8152 8153 8151 8151 8143 8128 8135 8116 8126 8139 8137 
8153 8145 8151 8147 8137 8129 8131 8122 8113 8122 8124 8126 8158 8197 8215 8220 8227 8225 8217 8217 8225 8223 8214 8212 8206 8178 8192 8181 8156 8137 8120 8124 8137 8122 8136 8125 8123 8120 8109 8110 8112 8116 8115 8128 8123 8124 8104 8112 8117 8109 8119 8135 8184 8188 8185 8187 8190 8194 8193 8192 8193 8191 8195 8203 8208 8193 8176 8178 8165 8144 8153 8154 8164 8168 8164 8144 8132 8134 8133 8139 
8152 8141 8155 8151 8138 8126 8135 8111 8126 8127 8129 8147 8202 8225 8236 8228 8229 8245 8230 8234 8242 8237 8235 8234 8231 8209 8198 8199 8158 8140 8135 8123 8132 8123 8126 8127 8124 8114 8100 8099 8101 8114 8113 8119 8125 8110 8116 8109 8106 8109 8111 8148 8177 8182 8191 8187 8181 8192 8187 8185 8189 8185 8198 8195 8186 8198 8181 8180 8174 8165 8161 8164 8162 8168 8177 8172 8161 8144 8135 8143 
8193 8176 8173 8147 8166 8143 8152 8131 8141 8133 8148 8190 8219 8235 8245 8246 8238 8245 8242 8242 8231 8238 8232 8233 8240 8222 8223 8205 8164 8137 8123 8128 8125 8124 8105 8117 8116 8095 8100 8100 8114 8106 8100 8117 8119 8110 8113 8113 8102 8099 8111 8150 8176 8177 8186 8181 8182 8185 8181 8180 8182 8188 8191 8184 8187 8187 8182 8186 8178 8173 8174 8165 8175 8175 8194 8204 8202 8178 8167 8163 
8214 8180 8182 8184 8168 8150 8155 8161 8154 8149 8192 8208 8211 8238 8235 8223 8221 8230 8232 8223 8237 8220 8223 8223 8233 8217 8217 8205 8162 8138 8127 8112 8115 8126 8109 8119 8116 8111 8103 8110 8109 8108 8105 8103 8109 8104 8116 8108 8101 8101 8109 8151 8176 8175 8175 8175 8179 8180 8187 8178 8191 8185 8182 8180 8185 8183 8182 8187 8183 8178 8170 8174 8182 8169 8181 8195 8194 8182 8171 8166 
8215 8201 8186 8166 8171 8163 8154 8148 8145 8163 8181 8195 8209 8217 8215 8210 8215 8214 8209 8216 8222 8220 8216 8219 8221 8213 8213 8207 8180 8140 8122 8110 8114 8122 8123 8115 8108 8108 8103 8102 8098 8107 8105 8102 8101 8098 8104 8100 8095 8094 8105 8146 8164 8168 8167 8169 8174 8176 8179 8175 8177 8171 8176 8175 8174 8170 8169 8175 8169 8167 8160 8163 8157 8139 8145 8145 8143 8168 8167 8172 


