P2
80 60
8230
8163 8173 8174 8180 8184 8185 8181 8180 8178 8180 8189 8186 8185 8184 8183 8184 8182 8182 8183 8184 8184 8189 8189 8189 8194 8199 8199 8199 8198 8202 8201 8204 8208 8204 8200 8204 8203 8202 8208 8205 8206 8205 8202 8203 8203 8207 8209 8212 8210 8207 8204 8207 8201 8203 8198 8200 8208 8207 8209 8211 8208 8213 8213 8210 8212 8210 8211 8218 8213 8218 8220 8219 8222 8222 8226 8225 8224 8230 8228 8227 
8163 8178 8176 8179 8184 8182 8182 8178 8180 8185 8184 8184 8180 8180 8183 8184 8181 8182 8179 8183 8185 8189 8187 8185 8193 8192 8195 8196 8195 8196 8200 8203 8204 8204 8201 8201 8199 8203 8206 8206 8206 8204 8202 8202 8204 8210 8211 8211 8207 8207 8206 8205 8202 8203 8198 8199 8204 8207 8207 8208 8209 8211 8212 8210 8208 8210 8212 8215 8215 8219 8219 8219 8221 8220 8222 8223 8228 8226 8229 8221 
8152 8168 8166 8171 8181 8176 8176 8178 8178 8181 8181 8181 8175 8180 8181 8178 8181 8180 8178 8179 8177 8183 8184 8179 8191 8194 8196 8194 8197 8193 8194 8200 8198 8203 8199 8199 8199 8203 8203 8203 8205 8204 8201 8198 8201 8209 8210 8209 8205 8208 8206 8204 8199 8201 8201 8202 8205 8209 8212 8207 8209 8210 8209 8208 8210 8208 8208 8216 8217 8219 8219 8218 8221 8220 8221 8219 8223 8223 8223 8222 
8161 8166 8168 8169 8179 8174 8180 8178 8182 8180 8178 8172 8180 8178 8176 8179 8179 8180 8177 8175 8175 8176 8176 8182 8189 8191 8196 8194 8196 8195 8194 8197 8201 8201 8199 8198 8201 8202 8206 8202 8205 8200 8199 8197 8200 8205 8210 8208 8207 8204 8206 8200 8204 8202 8202 8200 8203 8208 8205 8207 8207 8210 8209 8207 8207 8206 8207 8212 8213 8219 8217 8217 8219 8218 8216 8217 8223 8225 8221 8222 
8161 8162 8171 8167 8177 8176 8178 8177 8176 8180 8175 8169 8171 8175 8173 8177 8176 8177 8176 8175 8173 8176 8174 8179 8189 8193 8193 8191 8191 8195 8194 8200 8198 8197 8194 8198 8201 8198 8201 8201 8205 8200 8201 8196 8200 8205 8206 8208 8205 8202 8206 8205 8201 8203 8201 8202 8203 8207 8207 8207 8207 8207 8208 8206 8203 8200 8204 8211 8213 8215 8218 8218 8219 8221 8215 8221 8221 8218 8218 8213 
8162 8167 8169 8169 8171 8174 8180 8177 8179 8177 8163 8176 8179 8173 8171 8172 8176 8174 8176 8177 8174 8176 8177 8175 8189 8193 8192 8186 8183 8191 8196 8198 8199 8197 8194 8198 8197 8198 8202 8202 8205 8206 8201 8197 8198 8208 8207 8209 8203 8204 8204 8205 8204 8202 8202 8202 8208 8207 8208 8205 8204 8208 8208 8204 8204 8203 8205 8209 8211 8212 8216 8213 8219 8214 8215 8218 8218 8215 8221 8216 
8168 8175 8170 8180 8177 8170 8182 8181 8176 8170 8161 8178 8177 8169 8171 8176 8170 8174 8173 8175 8171 8177 8184 8179 8188 8191 8184 8183 8186 8194 8194 8199 8199 8196 8194 8197 8200 8199 8203 8201 8206 8205 8205 8198 8200 8206 8205 8208 8200 8202 8203 8205 8204 8205 8201 8202 8208 8206 8208 8206 8204 8204 8205 8204 8205 8206 8208 8212 8207 8212 8214 8215 8213 8211 8215 8217 8217 8218 8220 8215 
8168 8176 8164 8178 8170 8176 8182 8183 8179 8159 8174 8178 8177 8168 8177 8174 8174 8174 8174 8173 8177 8179 8180 8182 8186 8188 8183 8185 8190 8195 8195 8197 8196 8198 8196 8196 8197 8195 8200 8201 8205 8203 8200 8200 8198 8204 8206 8205 8201 8201 8199 8203 8200 8203 8201 8200 8205 8205 8205 8202 8203 8202 8204 8202 8202 8207 8206 8211 8208 8207 8208 8209 8213 8211 8212 8215 8217 8217 8220 8214 
8169 8166 8166 8170 8177 8176 8186 8180 8176 8170 8173 8175 8170 8172 8169 8173 8171 8172 8176 8179 8177 8175 8177 8179 8179 8187 8185 8185 8185 8192 8190 8196 8195 8195 8195 8201 8197 8199 8201 8199 8201 8199 8200 8195 8195 8206 8204 8204 8199 8197 8199 8200 8202 8201 8201 8196 8203 8207 8202 8202 8201 8200 8203 8200 8204 8203 8205 8209 8206 8209 8206 8209 8206 8207 8210 8214 8217 8219 8218 8217 
8168 8163 8167 8171 8173 8175 8171 8178 8177 8178 8171 8172 8169 8172 8166 8166 8172 8170 8176 8178 8174 8175 8176 8173 8177 8185 8182 8188 8188 8188 8187 8192 8192 8195 8192 8196 8197 8196 8197 8195 8200 8194 8194 8190 8194 8203 8204 8203 8199 8196 8197 8200 8196 8200 8196 8195 8202 8203 8204 8198 8200 8200 8201 8200 8202 8205 8203 8208 8208 8209 8207 8207 8208 8208 8212 8209 8213 8216 8217 8213 
8170 8163 8165 8166 8170 8171 8167 8175 8177 8170 8172 8171 8172 8172 8169 8168 8169 8167 8164 8171 8174 8173 8173 8175 8176 8180 8183 8186 8187 8188 8184 8184 8182 8189 8184 8182 8187 8191 8195 8191 8183 8165 8156 8167 8181 8198 8201 8200 8198 8198 8197 8200 8197 8199 8198 8197 8203 8200 8200 8203 8200 8195 8201 8198 8201 8206 8204 8207 8203 8204 8203 8205 8204 8205 8205 8206 8208 8213 8215 8215 
8164 8172 8161 8165 8164 8170 8168 8173 8173 8169 8173 8166 8170 8170 8170 8170 8165 8168 8169 8172 8175 8175 8173 8176 8178 8178 8174 8174 8177 8181 8161 8142 8140 8153 8142 8122 8141 8177 8168 8159 8124 8112 8113 8117 8129 8171 8195 8198 8193 8197 8198 8197 8196 8199 8194 8194 8196 8200 8200 8200 8201 8198 8202 8199 8201 8200 8203 8205 8201 8201 8199 8202 8204 8206 8204 8202 8210 8210 8215 8215 
8164 8168 8155 8157 8161 8169 8171 8160 8169 8173 8167 8166 8169 8165 8170 8171 8166 8170 8170 8168 8166 8174 8168 8169 8170 8149 8118 8110 8116 8118 8109 8103 8110 8113 8108 8101 8101 8112 8115 8107 8107 8110 8124 8126 8123 8130 8167 8192 8193 8193 8198 8198 8195 8196 8196 8195 8198 8198 8199 8197 8196 8198 8201 8197 8203 8200 8200 8204 8202 8198 8199 8202 8203 8205 8203 8205 8209 8212 8214 8209 
8164 8174 8165 8171 8169 8171 8172 8172 8161 8171 8174 8168 8167 8168 8170 8166 8172 8170 8172 8173 8170 8170 8164 8151 8123 8106 8101 8100 8099 8103 8104 8104 8110 8122 8114 8109 8103 8104 8119 8120 8122 8122 8161 8183 8169 8143 8131 8174 8192 8194 8195 8198 8195 8195 8196 8195 8198 8197 8198 8197 8196 8195 8197 8196 8201 8202 8202 8204 8201 8201 8201 8203 8205 8206 8202 8206 8207 8212 8210 8216 
8167 8164 8170 8171 8170 8172 8167 8173 8166 8169 8172 8172 8169 8170 8172 8172 8171 8169 8173 8171 8163 8165 8138 8103 8100 8100 8102 8098 8109 8117 8104 8107 8111 8133 8121 8117 8113 8126 8162 8179 8174 8153 8154 8186 8188 8187 8165 8174 8188 8191 8196 8199 8196 8196 8194 8191 8195 8198 8198 8194 8195 8192 8195 8196 8198 8201 8203 8204 8201 8199 8202 8204 8205 8208 8202 8204 8203 8210 8210 8210 
8170 8159 8160 8168 8166 8163 8167 8170 8169 8171 8172 8162 8169 8168 8174 8173 8173 8172 8173 8173 8162 8146 8099 8094 8098 8105 8106 8105 8113 8119 8115 8114 8115 8125 8130 8124 8118 8118 8167 8181 8186 8185 8187 8186 8180 8171 8154 8170 8171 8186 8192 8194 8196 8191 8191 8191 8193 8193 8194 8197 8194 8192 8197 8196 8200 8202 8199 8202 8199 8202 8201 8203 8203 8205 8204 8203 8205 8208 8207 8204 
8167 8160 8159 8167 8167 8162 8165 8164 8171 8174 8169 8172 8165 8170 8168 8173 8170 8175 8176 8171 8162 8117 8095 8090 8093 8106 8111 8112 8117 8120 8118 8116 8116 8128 8138 8138 8125 8112 8128 8164 8179 8178 8180 8177 8143 8119 8111 8114 8121 8157 8186 8189 8189 8188 8187 8188 8189 8192 8184 8187 8187 8190 8194 8196 8198 8200 8198 8200 8198 8199 8200 8202 8204 8204 8205 8203 8201 8208 8208 8203 
8167 8167 8166 8164 8165 8170 8171 8175 8167 8178 8172 8168 8177 8176 8173 8175 8173 8172 8175 8170 8154 8108 8096 8090 8099 8119 8122 8107 8105 8103 8101 8104 8114 8123 8143 8148 8143 8113 8116 8119 8124 8135 8148 8157 8153 8146 8123 8120 8133 8151 8160 8159 8155 8166 8174 8174 8174 8162 8144 8138 8159 8181 8191 8194 8196 8197 8199 8200 8197 8199 8201 8204 8204 8204 8204 8205 8204 8206 8203 8203 
8168 8172 8171 8166 8170 8168 8176 8177 8176 8170 8173 8173 8173 8171 8175 8176 8169 8172 8173 8166 8138 8131 8105 8106 8115 8122 8122 8104 8111 8103 8102 8107 8121 8128 8148 8149 8150 8136 8104 8098 8099 8104 8122 8152 8176 8160 8132 8143 8170 8178 8147 8130 8118 8121 8121 8127 8127 8117 8114 8114 8119 8144 8174 8191 8196 8195 8195 8196 8198 8196 8200 8201 8201 8199 8200 8203 8200 8201 8204 8198 
8167 8174 8166 8165 8168 8169 8176 8177 8175 8171 8176 8171 8173 8172 8177 8176 8172 8175 8171 8170 8141 8161 8122 8112 8117 8120 8124 8117 8119 8119 8121 8122 8117 8129 8147 8151 8159 8160 8112 8106 8104 8103 8105 8114 8127 8125 8111 8113 8145 8153 8122 8123 8114 8109 8107 8108 8118 8125 8115 8111 8113 8117 8153 8189 8193 8194 8193 8196 8196 8200 8200 8201 8199 8195 8202 8202 8199 8201 8201 8201 
8171 8173 8165 8162 8163 8168 8167 8178 8176 8172 8168 8172 8173 8170 8169 8179 8173 8173 8167 8170 8164 8167 8157 8119 8117 8121 8121 8133 8123 8122 8117 8115 8098 8102 8135 8146 8120 8132 8127 8121 8118 8102 8105 8102 8118 8132 8114 8121 8158 8150 8158 8153 8119 8108 8103 8103 8109 8121 8119 8117 8114 8115 8137 8180 8192 8193 8194 8200 8195 8200 8199 8203 8196 8197 8200 8200 8196 8200 8201 8199 
8172 8178 8162 8171 8175 8172 8158 8173 8166 8174 8169 8167 8173 8174 8166 8170 8173 8173 8162 8168 8169 8171 8172 8148 8120 8125 8127 8128 8117 8108 8103 8099 8097 8101 8130 8145 8112 8106 8119 8127 8130 8104 8101 8100 8119 8133 8115 8118 8154 8171 8161 8158 8159 8140 8117 8105 8108 8114 8120 8125 8118 8115 8129 8168 8191 8193 8194 8196 8197 8197 8197 8194 8194 8192 8199 8195 8195 8198 8200 8194 
8169 8173 8167 8172 8171 8170 8161 8155 8162 8173 8173 8164 8169 8173 8170 8169 8170 8166 8164 8168 8168 8175 8170 8171 8141 8119 8109 8111 8123 8146 8151 8102 8100 8103 8128 8143 8121 8138 8133 8126 8123 8107 8128 8128 8125 8128 8113 8125 8154 8148 8168 8179 8164 8143 8145 8143 8136 8131 8128 8142 8129 8122 8127 8151 8184 8190 8192 8198 8193 8194 8194 8192 8193 8190 8196 8195 8195 8199 8196 8191 
8169 8179 8168 8173 8172 8172 8170 8157 8173 8175 8175 8166 8174 8173 8174 8172 8170 8174 8168 8175 8173 8172 8173 8155 8139 8132 8131 8164 8174 8176 8174 8116 8101 8102 8125 8143 8161 8170 8135 8127 8125 8126 8153 8157 8140 8131 8128 8137 8149 8169 8174 8166 8174 8177 8179 8180 8180 8175 8168 8157 8146 8132 8128 8138 8178 8192 8192 8198 8189 8192 8190 8189 8191 8191 8193 8193 8191 8196 8196 8196 
8170 8171 8169 8175 8175 8174 8165 8172 8172 8169 8173 8170 8177 8174 8176 8174 8173 8176 8171 8170 8171 8171 8162 8159 8172 8173 8176 8181 8181 8180 8174 8117 8105 8104 8122 8144 8145 8158 8146 8134 8128 8130 8163 8154 8137 8141 8132 8124 8143 8146 8150 8166 8170 8174 8173 8164 8154 8162 8171 8177 8176 8161 8140 8136 8158 8183 8190 8197 8194 8191 8191 8192 8192 8191 8192 8192 8193 8194 8195 8195 
8169 8167 8163 8174 8174 8169 8173 8163 8159 8173 8172 8174 8176 8174 8176 8177 8176 8176 8167 8166 8171 8175 8177 8174 8174 8177 8184 8185 8181 8184 8168 8116 8106 8112 8125 8144 8139 8160 8161 8133 8138 8137 8127 8128 8126 8132 8130 8124 8122 8122 8122 8125 8138 8162 8142 8115 8111 8111 8126 8165 8180 8174 8167 8138 8137 8169 8189 8195 8193 8192 8190 8192 8193 8192 8188 8194 8192 8190 8192 8193 
8170 8172 8161 8170 8169 8174 8169 8160 8167 8173 8168 8175 8176 8175 8174 8174 8172 8171 8170 8161 8166 8167 8172 8171 8176 8182 8186 8187 8185 8187 8179 8137 8116 8116 8125 8145 8153 8169 8150 8134 8141 8130 8117 8122 8125 8129 8130 8127 8124 8122 8119 8119 8121 8159 8171 8162 8134 8115 8114 8132 8168 8176 8185 8161 8140 8145 8174 8191 8189 8190 8188 8191 8192 8191 8188 8195 8196 8190 8195 8195 
8166 8176 8171 8174 8178 8163 8171 8168 8166 8176 8169 8175 8177 8176 8176 8172 8170 8171 8168 8169 8165 8168 8170 8174 8177 8183 8186 8189 8184 8188 8183 8179 8138 8147 8149 8150 8158 8145 8128 8137 8141 8127 8121 8125 8125 8128 8124 8126 8125 8125 8120 8123 8134 8171 8181 8182 8179 8140 8119 8121 8158 8182 8185 8183 8160 8139 8150 8176 8185 8187 8189 8189 8188 8189 8190 8194 8198 8193 8199 8196 
8169 8171 8166 8176 8171 8174 8171 8171 8172 8181 8178 8177 8179 8172 8173 8164 8171 8173 8169 8169 8166 8166 8170 8176 8178 8184 8187 8188 8187 8189 8184 8186 8186 8184 8172 8149 8154 8153 8176 8158 8148 8170 8157 8126 8127 8123 8121 8126 8126 8136 8148 8154 8151 8171 8181 8183 8187 8183 8156 8125 8153 8175 8185 8186 8181 8148 8138 8148 8172 8185 8190 8189 8187 8189 8193 8195 8192 8197 8199 8196 
8167 8168 8169 8173 8171 8176 8177 8169 8173 8173 8180 8175 8176 8175 8168 8176 8173 8177 8174 8168 8166 8170 8173 8182 8183 8184 8188 8188 8180 8186 8184 8189 8188 8186 8175 8149 8160 8180 8183 8158 8147 8174 8168 8129 8127 8131 8131 8135 8150 8172 8184 8181 8178 8165 8168 8184 8187 8185 8180 8156 8157 8176 8187 8188 8190 8169 8142 8141 8166 8184 8186 8188 8188 8190 8194 8191 8194 8197 8197 8194 
8174 8173 8171 8176 8175 8175 8169 8173 8173 8171 8179 8173 8173 8176 8173 8176 8175 8172 8171 8168 8162 8170 8176 8180 8181 8183 8190 8189 8184 8184 8184 8190 8188 8187 8176 8149 8156 8180 8179 8157 8155 8179 8161 8138 8131 8144 8156 8179 8182 8182 8186 8185 8183 8181 8162 8167 8186 8183 8185 8181 8178 8180 8187 8192 8193 8182 8146 8145 8171 8184 8188 8189 8189 8194 8190 8189 8194 8195 8193 8197 
8174 8174 8165 8172 8167 8177 8170 8170 8176 8174 8173 8177 8177 8174 8173 8176 8174 8170 8168 8170 8162 8174 8176 8181 8182 8182 8188 8189 8185 8184 8185 8186 8184 8181 8162 8146 8148 8169 8179 8157 8152 8170 8150 8166 8161 8155 8159 8177 8185 8187 8189 8187 8187 8183 8176 8153 8172 8184 8181 8182 8182 8181 8185 8189 8191 8185 8154 8150 8176 8185 8188 8188 8189 8190 8189 8187 8193 8195 8196 8194 
8177 8176 8167 8173 8167 8178 8171 8170 8177 8180 8175 8178 8169 8175 8173 8173 8173 8168 8167 8164 8166 8176 8176 8180 8187 8185 8190 8187 8185 8185 8182 8181 8167 8129 8118 8137 8146 8150 8155 8146 8137 8145 8149 8177 8181 8161 8181 8171 8181 8189 8186 8189 8187 8188 8183 8171 8139 8156 8178 8181 8183 8182 8182 8189 8188 8188 8172 8156 8180 8190 8192 8191 8189 8189 8192 8191 8191 8196 8198 8195 
8183 8171 8181 8179 8179 8177 8171 8178 8182 8176 8177 8175 8167 8176 8172 8169 8171 8173 8173 8163 8168 8174 8171 8178 8186 8187 8189 8188 8189 8183 8179 8183 8161 8140 8112 8133 8140 8115 8113 8128 8140 8154 8157 8172 8178 8163 8189 8188 8171 8185 8189 8189 8187 8185 8182 8179 8146 8128 8133 8164 8180 8178 8186 8188 8191 8190 8187 8182 8185 8191 8190 8190 8188 8191 8193 8190 8191 8195 8196 8195 
8182 8179 8180 8178 8181 8171 8182 8183 8179 8173 8180 8175 8173 8173 8177 8171 8173 8172 8174 8171 8172 8173 8171 8170 8182 8189 8185 8187 8184 8181 8174 8160 8150 8127 8103 8127 8136 8116 8113 8117 8131 8145 8162 8174 8169 8165 8189 8192 8182 8172 8191 8193 8188 8186 8185 8183 8157 8128 8121 8130 8168 8183 8189 8188 8189 8190 8191 8189 8189 8191 8188 8189 8189 8190 8191 8189 8194 8193 8195 8195 
8180 8182 8176 8181 8180 8176 8184 8183 8179 8171 8169 8178 8177 8175 8180 8177 8175 8175 8173 8171 8173 8178 8178 8171 8183 8182 8184 8181 8176 8154 8122 8111 8115 8140 8117 8115 8123 8117 8114 8117 8122 8118 8161 8178 8168 8170 8190 8189 8187 8181 8173 8191 8188 8190 8186 8181 8161 8129 8121 8123 8142 8180 8187 8189 8188 8188 8190 8186 8186 8188 8189 8187 8185 8186 8190 8194 8189 8187 8193 8190 
8177 8181 8175 8182 8179 8178 8183 8178 8179 8171 8176 8178 8179 8176 8176 8173 8176 8167 8173 8171 8170 8175 8180 8175 8180 8178 8185 8176 8147 8123 8119 8133 8136 8141 8127 8109 8130 8125 8119 8122 8123 8118 8157 8180 8164 8181 8193 8189 8186 8186 8181 8173 8185 8189 8184 8183 8162 8133 8126 8130 8150 8182 8188 8185 8194 8191 8193 8188 8184 8184 8188 8189 8190 8191 8193 8191 8189 8188 8186 8188 
8184 8184 8181 8182 8181 8183 8182 8177 8180 8180 8180 8178 8177 8175 8176 8173 8165 8169 8165 8167 8166 8173 8176 8173 8176 8174 8168 8142 8128 8137 8159 8165 8167 8168 8144 8123 8138 8140 8139 8140 8133 8141 8165 8164 8157 8177 8180 8183 8178 8177 8180 8167 8173 8178 8180 8182 8150 8130 8128 8136 8168 8180 8184 8186 8190 8190 8189 8193 8186 8186 8188 8187 8187 8192 8191 8193 8191 8187 8186 8186 
8184 8187 8178 8183 8181 8180 8179 8181 8178 8177 8181 8176 8175 8173 8176 8166 8170 8166 8164 8166 8165 8158 8159 8166 8167 8166 8153 8137 8153 8163 8169 8169 8171 8166 8152 8137 8142 8146 8158 8162 8146 8150 8157 8156 8155 8165 8174 8178 8175 8168 8158 8155 8164 8165 8165 8168 8143 8133 8134 8159 8178 8183 8183 8186 8193 8189 8192 8194 8188 8186 8183 8187 8185 8189 8190 8190 8191 8190 8184 8187 
8178 8187 8193 8183 8186 8183 8185 8177 8179 8182 8185 8169 8173 8170 8171 8165 8165 8166 8169 8166 8163 8151 8157 8163 8162 8168 8169 8172 8169 8165 8170 8174 8166 8154 8146 8156 8151 8143 8148 8153 8143 8147 8149 8145 8151 8159 8155 8167 8163 8156 8159 8156 8157 8161 8165 8155 8139 8136 8157 8180 8181 8180 8188 8183 8189 8187 8190 8190 8185 8189 8185 8186 8184 8190 8189 8188 8188 8181 8187 8184 
8175 8182 8195 8171 8184 8187 8177 8182 8177 8180 8175 8180 8174 8169 8177 8164 8165 8168 8173 8172 8168 8159 8154 8161 8166 8170 8175 8171 8166 8154 8163 8164 8158 8149 8145 8150 8150 8138 8142 8151 8141 8147 8149 8145 8150 8154 8148 8155 8139 8148 8153 8156 8157 8157 8161 8143 8140 8145 8170 8187 8183 8186 8182 8188 8190 8188 8186 8188 8183 8186 8190 8184 8187 8189 8192 8190 8189 8181 8185 8181 
8181 8176 8189 8170 8184 8185 8176 8178 8181 8178 8173 8177 8177 8174 8177 8173 8166 8167 8168 8171 8168 8158 8150 8152 8164 8166 8165 8168 8165 8157 8161 8164 8158 8155 8139 8143 8136 8128 8138 8142 8141 8143 8144 8138 8139 8137 8145 8156 8153 8156 8160 8158 8156 8159 8158 8151 8155 8162 8181 8186 8182 8185 8188 8188 8192 8190 8188 8187 8188 8185 8187 8191 8184 8192 8193 8192 8192 8187 8184 8182 
8183 8179 8180 8176 8172 8182 8182 8180 8180 8181 8181 8176 8172 8178 8171 8166 8164 8169 8161 8158 8170 8157 8155 8156 8160 8159 8159 8161 8163 8156 8159 8166 8166 8164 8162 8165 8161 8158 8157 8167 8173 8176 8179 8182 8184 8192 8194 8194 8196 8194 8186 8174 8163 8167 8165 8157 8160 8166 8184 8186 8185 8188 8188 8188 8191 8192 8190 8187 8185 8187 8186 8190 8189 8187 8191 8189 8194 8190 8185 8180 
8187 8181 8186 8179 8179 8177 8182 8181 8181 8181 8173 8178 8180 8179 8163 8165 8163 8162 8160 8165 8169 8157 8154 8157 8163 8161 8160 8164 8163 8157 8158 8165 8172 8170 8168 8170 8170 8173 8177 8183 8188 8192 8203 8209 8217 8226 8215 8212 8196 8186 8181 8168 8171 8171 8170 8162 8166 8174 8183 8186 8192 8190 8187 8187 8189 8189 8185 8184 8185 8187 8189 8186 8186 8188 8191 8188 8191 8189 8189 8186 
8183 8192 8182 8174 8182 8180 8183 8168 8183 8184 8176 8170 8174 8174 8168 8162 8165 8172 8160 8167 8166 8161 8159 8155 8159 8169 8161 8163 8162 8164 8161 8163 8176 8169 8169 8166 8172 8173 8178 8180 8182 8189 8194 8202 8203 8205 8200 8192 8181 8174 8171 8168 8162 8167 8172 8170 8180 8181 8189 8186 8188 8186 8187 8186 8187 8188 8183 8187 8186 8188 8188 8189 8190 8187 8188 8188 8188 8184 8186 8182 
8185 8176 8176 8181 8181 8183 8185 8177 8173 8176 8171 8167 8174 8169 8167 8171 8170 8165 8164 8168 8172 8174 8173 8163 8158 8164 8167 8166 8164 8166 8169 8172 8180 8186 8184 8184 8183 8179 8185 8185 8193 8193 8195 8199 8193 8191 8179 8180 8169 8167 8167 8163 8157 8158 8178 8182 8186 8187 8187 8188 8186 8183 8180 8180 8183 8184 8184 8187 8185 8188 8186 8184 8191 8189 8186 8188 8191 8182 8185 8180 
8191 8188 8165 8183 8184 8182 8185 8178 8174 8172 8168 8173 8173 8167 8165 8165 8168 8165 8165 8167 8171 8175 8175 8168 8156 8155 8155 8161 8161 8166 8172 8176 8192 8199 8198 8202 8198 8198 8198 8197 8205 8202 8200 8200 8195 8186 8175 8173 8167 8164 8162 8162 8161 8168 8170 8168 8188 8192 8185 8184 8184 8179 8177 8175 8176 8176 8178 8178 8182 8185 8184 8182 8187 8189 8188 8184 8190 8187 8185 8177 
8181 8188 8177 8182 8175 8182 8180 8182 8185 8181 8177 8165 8167 8159 8159 8167 8168 8167 8164 8169 8177 8173 8174 8171 8166 8162 8156 8154 8157 8162 8165 8172 8182 8201 8202 8206 8205 8203 8202 8199 8209 8215 8202 8195 8189 8183 8174 8173 8164 8163 8162 8163 8169 8178 8177 8173 8188 8192 8188 8181 8179 8181 8175 8171 8175 8172 8174 8173 8176 8176 8177 8181 8181 8183 8188 8185 8184 8184 8181 8178 
8185 8172 8181 8181 8176 8185 8189 8179 8181 8165 8166 8166 8165 8155 8158 8161 8164 8165 8166 8169 8175 8171 8177 8167 8163 8165 8163 8159 8155 8159 8165 8171 8189 8191 8196 8195 8201 8198 8194 8191 8198 8196 8188 8174 8169 8173 8172 8170 8164 8164 8165 8167 8174 8180 8180 8177 8187 8185 8181 8179 8177 8178 8174 8171 8170 8169 8166 8167 8171 8168 8176 8171 8178 8176 8182 8181 8176 8171 8174 8177 
8183 8175 8178 8176 8175 8184 8192 8171 8175 8165 8167 8164 8165 8160 8150 8157 8162 8169 8176 8173 8166 8181 8180 8177 8165 8166 8166 8163 8155 8157 8169 8169 8185 8183 8190 8190 8193 8196 8195 8200 8200 8198 8181 8175 8168 8174 8169 8170 8160 8158 8163 8170 8171 8180 8173 8174 8183 8186 8183 8173 8178 8174 8172 8168 8168 8168 8166 8171 8169 8172 8169 8175 8176 8175 8170 8173 8171 8176 8173 8167 
8183 8163 8167 8168 8177 8176 8184 8168 8164 8164 8164 8158 8155 8155 8154 8159 8161 8166 8180 8173 8176 8178 8182 8185 8159 8160 8156 8156 8161 8160 8165 8167 8173 8177 8176 8177 8180 8189 8190 8192 8191 8187 8178 8166 8167 8169 8169 8171 8165 8162 8160 8168 8171 8175 8160 8176 8183 8185 8176 8176 8177 8178 8172 8175 8172 8175 8178 8184 8183 8181 8172 8169 8179 8171 8168 8163 8165 8162 8176 8172 
8176 8170 8161 8166 8168 8166 8164 8170 8148 8148 8159 8148 8148 8146 8152 8151 8164 8174 8183 8178 8181 8185 8192 8192 8158 8168 8162 8155 8162 8163 8153 8174 8170 8166 8171 8165 8171 8176 8183 8180 8182 8176 8172 8164 8165 8166 8164 8167 8165 8161 8159 8164 8169 8167 8170 8186 8194 8198 8193 8199 8197 8191 8192 8177 8177 8180 8178 8180 8193 8182 8176 8170 8167 8167 8172 8167 8169 8172 8173 8172 
8168 8161 8160 8162 8160 8152 8155 8162 8156 8151 8137 8137 8133 8142 8148 8143 8172 8187 8188 8193 8183 8195 8197 8197 8173 8162 8161 8159 8161 8154 8162 8170 8165 8165 8167 8163 8168 8164 8168 8171 8168 8167 8164 8168 8164 8167 8162 8164 8160 8157 8160 8163 8160 8165 8181 8198 8207 8211 8214 8207 8207 8206 8204 8189 8191 8189 8181 8183 8189 8182 8183 8178 8169 8174 8168 8168 8160 8162 8172 8173 
8165 8164 8166 8162 8165 8161 8160 8159 8148 8151 8141 8141 8134 8147 8153 8170 8188 8195 8193 8191 8194 8200 8200 8205 8192 8164 8163 8161 8153 8154 8164 8163 8159 8171 8165 8163 8165 8161 8166 8159 8163 8164 8158 8163 8169 8166 8162 8163 8162 8165 8161 8165 8159 8153 8189 8206 8213 8215 8213 8214 8218 8214 8216 8207 8204 8201 8188 8189 8184 8178 8186 8185 8179 8175 8165 8161 8164 8160 8174 8171 
8171 8175 8161 8163 8155 8152 8160 8156 8141 8150 8138 8146 8142 8161 8181 8192 8199 8197 8205 8201 8200 8206 8202 8207 8202 8162 8160 8156 8158 8156 8158 8154 8162 8160 8163 8163 8163 8162 8161 8159 8162 8160 8166 8164 8165 8166 8152 8167 8161 8163 8162 8168 8160 8160 8193 8213 8224 8217 8217 8223 8223 8218 8212 8216 8217 8201 8200 8197 8187 8182 8189 8185 8188 8180 8164 8170 8155 8160 8171 8172 
8175 8175 8171 8166 8164 8158 8162 8153 8142 8149 8149 8142 8164 8195 8208 8212 8214 8211 8205 8206 8217 8220 8212 8215 8205 8150 8157 8159 8165 8160 8155 8159 8168 8155 8165 8162 8162 8161 8162 8158 8162 8164 8165 8168 8163 8167 8149 8159 8166 8161 8164 8161 8161 8168 8198 8217 8228 8228 8227 8226 8224 8219 8221 8221 8222 8216 8208 8211 8203 8181 8193 8191 8197 8200 8192 8176 8166 8168 8171 8170 
8167 8170 8180 8164 8158 8153 8163 8144 8154 8156 8153 8152 8196 8213 8222 8209 8205 8224 8208 8215 8222 8220 8220 8223 8214 8163 8144 8159 8161 8162 8163 8158 8165 8156 8156 8164 8157 8156 8153 8156 8155 8162 8159 8158 8164 8155 8160 8157 8157 8160 8160 8163 8150 8163 8203 8215 8221 8229 8222 8221 8222 8218 8226 8222 8215 8224 8215 8218 8203 8199 8199 8195 8192 8193 8196 8188 8181 8169 8170 8173 
8199 8198 8188 8158 8181 8164 8173 8154 8165 8156 8163 8182 8209 8222 8226 8221 8213 8221 8219 8224 8211 8218 8217 8219 8225 8176 8166 8164 8160 8157 8152 8163 8161 8155 8142 8151 8154 8146 8146 8152 8158 8153 8149 8156 8157 8158 8159 8155 8148 8153 8157 8159 8151 8164 8205 8209 8221 8224 8217 8215 8212 8220 8222 8217 8219 8216 8214 8220 8210 8203 8204 8194 8195 8192 8197 8201 8200 8179 8181 8175 
8210 8188 8184 8185 8180 8165 8173 8178 8173 8162 8198 8201 8203 8225 8217 8203 8199 8212 8212 8206 8221 8201 8207 8211 8226 8184 8169 8158 8154 8153 8156 8146 8150 8161 8142 8149 8152 8150 8146 8151 8153 8150 8144 8143 8147 8150 8160 8154 8149 8148 8149 8151 8147 8163 8186 8199 8211 8214 8218 8212 8217 8211 8210 8208 8211 8209 8207 8215 8210 8207 8201 8203 8199 8181 8188 8190 8192 8183 8185 8179 
8208 8201 8192 8178 8183 8179 8175 8171 8168 8175 8193 8198 8205 8206 8203 8197 8202 8202 8200 8204 8208 8206 8202 8211 8219 8191 8171 8159 8150 8152 8147 8140 8143 8155 8147 8153 8149 8150 8144 8144 8153 8144 8140 8135 8142 8147 8154 8152 8149 8140 8145 8146 8143 8139 8145 8175 8183 8187 8205 8212 8209 8200 8203 8203 8205 8201 8195 8204 8194 8189 8189 8197 8193 8174 8175 8171 8169 8184 8185 8184 


