P2
80 60
8197
8134 8130 8151 8156 8159 8159 8160 8159 8160 8160 8158 8158 8158 8159 8161 8159 8162 8164 8163 8161 8160 8162 8158 8155 8155 8159 8157 8158 8153 8157 8155 8159 8160 8158 8155 8154 8159 8157 8160 8160 8155 8154 8154 8155 8155 8154 8154 8154 8154 8154 8155 8152 8153 8156 8155 8152 8155 8158 8154 8156 8162 8159 8159 8156 8157 8154 8158 8157 8161 8158 8162 8164 8163 8170 8164 8164 8165 8163 8157 8157 
8131 8131 8150 8156 8160 8160 8163 8161 8162 8161 8158 8161 8160 8159 8161 8160 8162 8164 8163 8162 8161 8159 8159 8156 8157 8160 8159 8156 8156 8156 8154 8156 8157 8157 8158 8156 8157 8156 8161 8161 8157 8156 8155 8152 8154 8154 8154 8153 8156 8154 8156 8152 8151 8153 8155 8153 8153 8158 8155 8158 8163 8160 8159 8159 8155 8156 8157 8160 8160 8158 8164 8166 8168 8168 8167 8165 8165 8160 8157 8156 
8134 8135 8153 8156 8160 8160 8159 8155 8160 8161 8160 8157 8159 8157 8163 8163 8163 8163 8160 8164 8159 8159 8156 8159 8154 8159 8159 8160 8158 8156 8155 8156 8161 8157 8156 8153 8157 8157 8163 8159 8158 8154 8154 8154 8156 8153 8156 8157 8154 8155 8157 8153 8150 8153 8156 8155 8155 8155 8158 8159 8162 8160 8159 8157 8155 8156 8158 8160 8163 8156 8163 8162 8167 8167 8166 8164 8162 8161 8156 8155 
8136 8137 8155 8160 8158 8160 8160 8160 8158 8156 8161 8159 8162 8160 8162 8163 8163 8163 8163 8159 8160 8156 8157 8157 8157 8158 8158 8158 8159 8154 8153 8156 8157 8155 8155 8155 8157 8155 8159 8161 8155 8155 8154 8150 8153 8153 8153 8157 8156 8156 8158 8154 8153 8158 8157 8156 8156 8158 8155 8159 8159 8159 8157 8156 8155 8152 8158 8157 8162 8158 8159 8164 8167 8167 8164 8164 8163 8162 8158 8155 
8133 8137 8154 8161 8164 8159 8159 8159 8160 8160 8161 8160 8160 8159 8162 8162 8163 8164 8164 8161 8160 8156 8156 8155 8156 8158 8158 8156 8158 8156 8154 8157 8157 8154 8157 8153 8157 8154 8162 8159 8158 8156 8153 8153 8153 8155 8154 8156 8156 8158 8156 8152 8156 8160 8160 8158 8155 8160 8158 8160 8160 8160 8155 8155 8155 8158 8152 8158 8155 8158 8159 8161 8162 8164 8163 8163 8163 8162 8158 8157 
8137 8141 8154 8161 8164 8161 8156 8159 8161 8159 8156 8159 8159 8159 8161 8161 8164 8163 8163 8160 8160 8153 8154 8156 8154 8156 8159 8157 8155 8155 8153 8156 8155 8153 8154 8154 8156 8157 8158 8160 8160 8156 8152 8151 8152 8154 8158 8153 8155 8156 8158 8152 8154 8159 8159 8158 8159 8158 8154 8158 8158 8156 8156 8153 8154 8157 8153 8156 8157 8155 8156 8160 8162 8161 8159 8162 8156 8156 8157 8152 
8144 8148 8157 8161 8161 8161 8158 8159 8159 8156 8158 8159 8159 8162 8163 8161 8164 8164 8166 8165 8162 8156 8155 8154 8156 8161 8159 8157 8158 8154 8156 8157 8157 8155 8153 8151 8158 8154 8160 8161 8159 8160 8157 8156 8154 8154 8153 8156 8156 8154 8158 8154 8152 8157 8155 8157 8158 8159 8155 8158 8160 8156 8152 8153 8154 8157 8155 8157 8158 8156 8155 8158 8162 8163 8160 8158 8157 8156 8153 8154 
8143 8149 8157 8161 8163 8161 8157 8159 8160 8158 8158 8156 8160 8163 8159 8164 8165 8167 8161 8167 8162 8158 8157 8158 8155 8157 8157 8157 8156 8158 8156 8155 8157 8153 8152 8151 8153 8157 8161 8160 8162 8159 8156 8155 8154 8156 8155 8155 8156 8154 8155 8150 8153 8152 8155 8158 8158 8159 8156 8158 8157 8156 8151 8151 8154 8154 8156 8157 8156 8154 8156 8157 8162 8159 8159 8160 8157 8155 8151 8151 
8138 8151 8161 8162 8160 8158 8156 8156 8154 8156 8160 8159 8160 8157 8160 8160 8167 8164 8165 8167 8164 8160 8159 8155 8158 8156 8155 8156 8158 8156 8154 8155 8154 8150 8152 8150 8157 8154 8157 8162 8160 8158 8157 8151 8155 8158 8156 8157 8161 8154 8151 8151 8153 8156 8156 8156 8155 8160 8155 8156 8156 8155 8152 8151 8154 8151 8155 8157 8156 8154 8154 8156 8158 8157 8158 8153 8156 8154 8152 8151 
8141 8156 8162 8157 8162 8157 8157 8159 8156 8155 8158 8157 8159 8160 8164 8162 8165 8165 8167 8166 8165 8162 8159 8157 8158 8156 8158 8154 8155 8153 8153 8155 8154 8152 8149 8148 8151 8152 8154 8160 8161 8156 8156 8158 8156 8159 8157 8159 8157 8155 8154 8152 8150 8157 8156 8155 8154 8155 8152 8156 8156 8153 8149 8151 8152 8151 8155 8152 8153 8152 8153 8153 8154 8155 8152 8155 8153 8152 8151 8147 
8147 8157 8163 8162 8160 8159 8156 8161 8159 8157 8160 8162 8158 8159 8160 8163 8165 8165 8166 8164 8167 8161 8160 8159 8159 8160 8157 8156 8156 8158 8155 8153 8153 8151 8148 8149 8150 8154 8154 8160 8164 8157 8157 8158 8158 8159 8160 8157 8158 8158 8153 8151 8153 8158 8156 8152 8154 8155 8152 8157 8156 8153 8151 8151 8149 8153 8156 8154 8156 8153 8153 8155 8155 8156 8153 8154 8155 8152 8152 8149 
8154 8160 8160 8161 8159 8156 8157 8160 8158 8157 8162 8160 8160 8160 8160 8161 8164 8167 8167 8167 8168 8162 8161 8160 8160 8159 8159 8158 8158 8155 8155 8153 8152 8148 8146 8146 8151 8152 8151 8157 8156 8157 8158 8157 8159 8158 8161 8156 8158 8154 8157 8154 8154 8155 8156 8154 8151 8153 8151 8154 8152 8154 8151 8152 8151 8150 8152 8154 8153 8152 8152 8155 8153 8154 8150 8156 8154 8151 8151 8146 
8158 8163 8162 8163 8159 8161 8160 8159 8160 8157 8159 8158 8160 8161 8163 8161 8166 8166 8167 8167 8166 8166 8165 8161 8160 8158 8157 8158 8157 8157 8156 8149 8151 8150 8147 8148 8152 8149 8154 8152 8155 8156 8158 8162 8162 8161 8161 8159 8157 8156 8155 8155 8154 8155 8155 8150 8151 8154 8150 8153 8154 8154 8150 8150 8151 8152 8153 8155 8154 8149 8152 8152 8153 8153 8152 8156 8152 8155 8148 8147 
8167 8165 8163 8163 8161 8159 8158 8158 8160 8162 8161 8161 8160 8160 8163 8164 8165 8168 8169 8170 8170 8166 8166 8165 8163 8161 8159 8159 8156 8155 8156 8152 8153 8152 8152 8148 8150 8150 8154 8154 8154 8157 8161 8160 8163 8163 8160 8156 8159 8157 8154 8152 8153 8155 8154 8153 8153 8156 8152 8152 8152 8152 8154 8151 8152 8150 8156 8156 8154 8150 8152 8149 8154 8153 8153 8155 8155 8155 8149 8149 
8168 8165 8164 8162 8163 8159 8162 8161 8162 8163 8164 8163 8162 8164 8164 8166 8165 8168 8169 8170 8169 8166 8168 8165 8163 8163 8161 8161 8156 8157 8155 8154 8154 8154 8150 8151 8151 8150 8150 8150 8152 8155 8158 8162 8164 8161 8158 8156 8155 8154 8155 8155 8152 8156 8155 8153 8153 8155 8154 8154 8151 8150 8149 8153 8151 8156 8153 8153 8153 8152 8151 8153 8152 8156 8149 8153 8152 8153 8151 8147 
8169 8162 8167 8168 8163 8161 8162 8164 8162 8163 8164 8165 8164 8166 8165 8169 8168 8167 8170 8171 8170 8170 8171 8170 8165 8166 8164 8161 8160 8157 8152 8154 8155 8152 8150 8147 8149 8149 8148 8151 8151 8154 8156 8162 8162 8159 8159 8157 8155 8155 8155 8155 8159 8156 8154 8152 8152 8155 8152 8152 8154 8150 8150 8152 8150 8152 8154 8154 8154 8152 8150 8153 8153 8157 8153 8154 8152 8152 8149 8148 
8168 8166 8165 8165 8163 8165 8162 8162 8164 8165 8167 8164 8164 8165 8165 8164 8168 8171 8171 8169 8169 8169 8170 8172 8170 8170 8170 8167 8159 8160 8154 8152 8153 8153 8151 8149 8148 8148 8149 8151 8150 8153 8157 8162 8161 8166 8159 8155 8154 8156 8153 8155 8156 8156 8152 8151 8150 8153 8151 8153 8151 8150 8148 8148 8152 8150 8154 8154 8155 8151 8150 8152 8153 8157 8154 8151 8155 8151 8150 8148 
8163 8169 8167 8167 8163 8164 8164 8162 8166 8168 8165 8168 8167 8166 8167 8168 8168 8170 8172 8171 8173 8172 8173 8171 8172 8173 8170 8165 8162 8156 8157 8155 8157 8155 8151 8150 8149 8148 8148 8152 8150 8153 8155 8158 8161 8161 8156 8156 8155 8154 8155 8154 8154 8153 8152 8151 8150 8151 8148 8152 8152 8148 8148 8148 8149 8151 8155 8155 8157 8154 8151 8150 8150 8156 8154 8153 8151 8151 8146 8144 
8166 8169 8168 8167 8167 8164 8168 8162 8167 8168 8167 8169 8166 8168 8170 8168 8169 8167 8169 8168 8170 8169 8171 8172 8169 8172 8171 8167 8164 8157 8156 8158 8157 8154 8156 8151 8152 8150 8150 8152 8152 8150 8151 8158 8161 8158 8161 8156 8157 8154 8157 8153 8152 8154 8152 8154 8152 8151 8148 8152 8149 8148 8150 8151 8152 8149 8154 8155 8156 8152 8152 8151 8156 8153 8152 8152 8151 8149 8142 8144 
8176 8171 8168 8168 8164 8167 8166 8169 8168 8167 8169 8169 8171 8169 8169 8171 8170 8170 8169 8168 8167 8165 8166 8165 8165 8168 8169 8166 8165 8158 8158 8157 8158 8153 8155 8150 8153 8150 8149 8150 8149 8151 8154 8153 8158 8157 8160 8160 8156 8154 8158 8154 8152 8152 8154 8150 8151 8152 8149 8148 8149 8149 8153 8155 8151 8152 8154 8154 8154 8152 8150 8150 8151 8149 8149 8150 8150 8149 8145 8144 
8183 8174 8170 8169 8166 8165 8164 8167 8168 8167 8170 8168 8167 8168 8169 8166 8167 8168 8167 8167 8162 8163 8158 8160 8162 8164 8164 8165 8164 8161 8159 8156 8157 8154 8155 8150 8152 8151 8150 8150 8150 8148 8150 8153 8156 8156 8154 8155 8156 8154 8157 8152 8154 8153 8154 8153 8152 8154 8150 8150 8150 8152 8153 8157 8151 8154 8154 8153 8152 8151 8152 8149 8149 8148 8149 8150 8149 8148 8144 8146 
8185 8175 8169 8171 8166 8169 8164 8165 8169 8166 8166 8166 8165 8167 8165 8164 8167 8163 8162 8163 8160 8158 8158 8158 8159 8162 8162 8163 8163 8160 8156 8156 8157 8156 8154 8153 8151 8151 8149 8151 8148 8151 8152 8152 8153 8153 8154 8154 8154 8154 8157 8150 8153 8154 8154 8153 8153 8155 8148 8152 8148 8150 8153 8154 8153 8154 8157 8158 8153 8153 8154 8148 8146 8146 8148 8147 8146 8147 8145 8140 
8178 8173 8170 8170 8167 8166 8165 8162 8164 8163 8165 8164 8163 8164 8163 8161 8161 8160 8159 8160 8160 8158 8161 8158 8157 8161 8161 8159 8158 8155 8157 8158 8159 8155 8157 8154 8156 8153 8151 8150 8152 8150 8150 8153 8156 8154 8152 8153 8153 8153 8154 8151 8149 8151 8152 8155 8152 8152 8150 8150 8153 8153 8153 8155 8159 8155 8158 8158 8158 8151 8150 8148 8148 8147 8147 8147 8147 8150 8147 8142 
8174 8172 8169 8167 8167 8162 8164 8161 8163 8161 8163 8161 8163 8160 8162 8160 8160 8163 8161 8160 8161 8157 8157 8157 8155 8158 8159 8158 8158 8159 8158 8158 8159 8157 8156 8155 8154 8154 8152 8149 8151 8153 8149 8151 8156 8155 8152 8154 8154 8152 8154 8151 8150 8151 8150 8152 8151 8153 8150 8151 8152 8155 8153 8156 8159 8156 8157 8159 8157 8154 8150 8149 8148 8149 8146 8149 8147 8149 8144 8143 
8174 8173 8169 8163 8161 8163 8162 8163 8163 8161 8161 8161 8162 8162 8163 8158 8159 8161 8163 8159 8160 8159 8158 8158 8159 8158 8159 8161 8161 8158 8161 8158 8161 8159 8157 8154 8156 8156 8151 8153 8150 8149 8149 8151 8154 8153 8154 8153 8152 8155 8158 8153 8151 8151 8152 8154 8153 8153 8151 8154 8153 8154 8155 8155 8158 8158 8158 8160 8160 8152 8148 8149 8151 8150 8149 8150 8147 8148 8143 8143 
8170 8166 8164 8160 8160 8158 8158 8157 8160 8159 8160 8158 8161 8161 8161 8157 8161 8161 8161 8159 8161 8159 8160 8160 8158 8161 8161 8163 8162 8160 8159 8159 8164 8161 8158 8156 8157 8154 8153 8153 8151 8150 8150 8151 8151 8152 8152 8154 8155 8154 8153 8149 8150 8152 8152 8152 8153 8154 8151 8156 8156 8152 8153 8156 8156 8157 8160 8159 8157 8150 8149 8143 8148 8152 8149 8149 8147 8147 8145 8143 
8160 8162 8162 8160 8161 8157 8158 8162 8163 8159 8161 8164 8161 8158 8160 8159 8160 8162 8162 8160 8161 8160 8160 8159 8160 8163 8165 8167 8166 8165 8163 8164 8164 8162 8157 8158 8159 8155 8155 8157 8151 8152 8150 8151 8152 8152 8152 8152 8153 8151 8154 8149 8153 8153 8156 8157 8154 8157 8151 8157 8156 8157 8156 8159 8158 8161 8162 8156 8157 8155 8151 8148 8149 8148 8151 8151 8147 8149 8145 8145 
8159 8159 8160 8161 8159 8155 8159 8161 8160 8158 8159 8162 8163 8159 8158 8158 8162 8162 8165 8162 8162 8160 8163 8163 8163 8165 8166 8171 8171 8171 8166 8164 8165 8161 8158 8158 8157 8157 8155 8157 8151 8151 8150 8149 8152 8151 8152 8153 8152 8153 8153 8154 8152 8153 8157 8156 8156 8159 8152 8156 8158 8156 8156 8157 8158 8162 8161 8154 8154 8154 8154 8149 8146 8150 8148 8151 8152 8150 8143 8144 
8155 8158 8159 8157 8155 8156 8157 8157 8159 8159 8161 8162 8161 8159 8159 8160 8162 8160 8163 8163 8162 8163 8162 8164 8165 8166 8169 8170 8176 8169 8172 8167 8168 8163 8159 8155 8157 8155 8156 8156 8154 8153 8149 8151 8151 8151 8151 8152 8154 8152 8153 8151 8154 8154 8157 8154 8154 8159 8154 8155 8160 8155 8155 8158 8159 8161 8160 8158 8157 8155 8154 8146 8151 8150 8149 8152 8152 8152 8148 8145 
8152 8155 8156 8156 8156 8157 8161 8161 8161 8160 8161 8160 8163 8158 8157 8160 8163 8161 8164 8162 8168 8166 8166 8166 8166 8167 8171 8173 8172 8175 8172 8171 8169 8165 8160 8159 8163 8157 8156 8158 8155 8152 8153 8153 8151 8151 8153 8151 8155 8153 8157 8154 8155 8154 8158 8159 8158 8156 8154 8153 8156 8156 8158 8159 8158 8159 8160 8159 8160 8157 8156 8151 8151 8149 8150 8153 8153 8155 8147 8146 
8157 8154 8158 8156 8157 8160 8161 8160 8162 8159 8163 8164 8162 8161 8163 8162 8165 8165 8165 8164 8169 8169 8172 8168 8167 8173 8174 8176 8176 8174 8174 8174 8173 8167 8167 8162 8162 8159 8160 8158 8157 8152 8155 8155 8152 8151 8152 8151 8157 8157 8158 8156 8156 8157 8155 8160 8157 8155 8154 8157 8158 8155 8160 8160 8161 8161 8164 8161 8162 8163 8162 8152 8150 8153 8150 8149 8156 8155 8148 8151 
8162 8155 8157 8159 8160 8163 8160 8164 8161 8162 8162 8162 8164 8160 8159 8164 8165 8170 8166 8168 8171 8170 8170 8171 8172 8175 8174 8176 8175 8173 8172 8176 8176 8173 8164 8161 8165 8158 8158 8159 8154 8156 8156 8156 8153 8154 8153 8152 8157 8155 8158 8157 8157 8157 8158 8155 8157 8158 8155 8157 8153 8158 8158 8158 8161 8157 8162 8159 8165 8167 8163 8153 8147 8150 8151 8152 8156 8149 8147 8144 
8164 8162 8158 8160 8164 8164 8162 8164 8164 8162 8162 8164 8165 8166 8164 8166 8168 8171 8173 8170 8173 8171 8176 8173 8172 8177 8175 8175 8175 8178 8177 8178 8179 8172 8170 8168 8166 8164 8162 8162 8160 8159 8157 8157 8158 8156 8152 8155 8153 8154 8157 8156 8158 8158 8158 8156 8156 8157 8153 8157 8157 8155 8159 8157 8161 8157 8161 8165 8170 8171 8166 8155 8149 8150 8148 8152 8152 8151 8149 8145 
8168 8160 8162 8160 8160 8164 8164 8163 8164 8165 8168 8164 8170 8169 8169 8170 8173 8175 8176 8176 8178 8175 8178 8176 8178 8179 8178 8175 8174 8175 8175 8177 8181 8173 8172 8170 8170 8171 8167 8162 8160 8159 8159 8158 8159 8159 8155 8155 8158 8156 8157 8154 8157 8157 8157 8157 8156 8159 8151 8157 8157 8158 8157 8159 8161 8164 8163 8165 8174 8166 8165 8152 8150 8150 8151 8152 8152 8151 8146 8145 
8168 8161 8156 8163 8162 8164 8165 8164 8166 8167 8169 8167 8171 8170 8173 8174 8175 8176 8179 8180 8180 8177 8180 8181 8176 8179 8175 8176 8179 8174 8174 8176 8175 8173 8171 8170 8170 8168 8167 8164 8159 8160 8158 8160 8158 8155 8157 8155 8156 8158 8159 8157 8156 8156 8159 8155 8155 8159 8156 8155 8159 8158 8159 8160 8160 8163 8165 8170 8171 8169 8165 8149 8151 8148 8148 8151 8150 8149 8147 8150 
8170 8161 8161 8164 8163 8166 8166 8167 8170 8170 8170 8173 8176 8174 8177 8178 8180 8179 8184 8183 8186 8181 8182 8179 8182 8179 8177 8177 8176 8176 8176 8173 8175 8171 8171 8172 8173 8170 8167 8166 8162 8162 8159 8155 8156 8161 8157 8157 8159 8158 8158 8159 8158 8157 8157 8159 8158 8160 8153 8156 8157 8158 8160 8160 8162 8163 8167 8168 8174 8168 8164 8151 8149 8153 8149 8151 8149 8152 8148 8148 
8169 8165 8160 8163 8165 8165 8167 8167 8169 8171 8173 8172 8178 8177 8181 8178 8182 8184 8185 8186 8186 8184 8185 8184 8182 8180 8179 8179 8176 8174 8177 8173 8174 8173 8170 8168 8171 8167 8167 8166 8165 8160 8158 8159 8162 8159 8161 8159 8157 8157 8161 8159 8160 8159 8158 8157 8159 8158 8154 8158 8157 8156 8160 8161 8165 8163 8166 8171 8171 8170 8163 8152 8150 8149 8149 8155 8155 8152 8149 8146 
8169 8167 8162 8165 8167 8169 8172 8166 8169 8171 8171 8172 8174 8178 8177 8180 8180 8183 8186 8188 8186 8186 8185 8185 8184 8185 8182 8180 8177 8176 8174 8173 8172 8173 8170 8168 8171 8167 8167 8168 8163 8163 8163 8160 8158 8160 8158 8157 8159 8159 8161 8160 8163 8162 8160 8160 8158 8161 8157 8158 8158 8157 8161 8163 8162 8165 8168 8168 8172 8168 8157 8148 8151 8151 8150 8153 8151 8150 8147 8147 
8165 8162 8165 8165 8166 8168 8169 8169 8170 8170 8169 8167 8174 8174 8177 8175 8180 8180 8185 8186 8184 8184 8184 8183 8183 8182 8183 8180 8179 8176 8174 8170 8172 8167 8167 8168 8172 8168 8165 8165 8165 8163 8163 8161 8163 8163 8162 8159 8161 8161 8161 8159 8162 8161 8160 8161 8161 8161 8156 8158 8158 8157 8161 8162 8162 8166 8167 8173 8171 8169 8150 8149 8149 8150 8153 8152 8150 8150 8145 8147 
8167 8159 8164 8165 8165 8167 8166 8166 8168 8166 8172 8169 8171 8171 8174 8174 8175 8177 8180 8184 8182 8179 8183 8183 8178 8183 8182 8179 8177 8175 8173 8171 8172 8170 8169 8170 8172 8168 8167 8167 8162 8164 8163 8163 8161 8161 8159 8159 8159 8160 8163 8161 8163 8162 8161 8161 8164 8161 8158 8160 8158 8157 8155 8160 8158 8167 8168 8172 8170 8170 8151 8147 8149 8152 8152 8152 8151 8146 8144 8145 
8168 8161 8164 8163 8164 8167 8165 8169 8166 8166 8169 8170 8170 8172 8167 8172 8175 8173 8178 8177 8179 8178 8180 8178 8176 8178 8177 8178 8175 8173 8172 8171 8170 8172 8173 8166 8171 8170 8167 8166 8165 8163 8163 8164 8164 8161 8160 8163 8160 8163 8163 8163 8164 8162 8166 8168 8165 8163 8160 8162 8158 8159 8160 8162 8166 8166 8170 8174 8172 8167 8150 8147 8148 8151 8150 8151 8150 8147 8144 8142 
8162 8163 8163 8163 8165 8165 8164 8164 8167 8168 8170 8166 8166 8165 8171 8169 8173 8172 8175 8175 8174 8173 8176 8173 8173 8176 8174 8174 8174 8174 8171 8174 8171 8171 8173 8170 8171 8170 8168 8167 8164 8165 8164 8163 8164 8160 8161 8164 8164 8161 8165 8164 8166 8165 8164 8164 8165 8163 8160 8159 8160 8160 8163 8162 8162 8165 8170 8173 8171 8165 8151 8146 8150 8153 8150 8152 8150 8147 8141 8141 
8164 8162 8164 8164 8164 8166 8165 8164 8167 8165 8168 8167 8170 8170 8169 8172 8170 8173 8173 8171 8172 8170 8171 8174 8175 8174 8174 8175 8175 8174 8171 8174 8174 8171 8170 8166 8169 8170 8168 8167 8164 8165 8166 8165 8165 8164 8164 8163 8162 8164 8165 8164 8167 8167 8166 8166 8164 8164 8160 8160 8165 8162 8161 8161 8162 8164 8166 8169 8167 8160 8146 8149 8150 8155 8151 8152 8148 8146 8142 8141 
8166 8163 8164 8163 8166 8165 8164 8165 8168 8165 8170 8167 8169 8168 8170 8170 8171 8172 8172 8172 8174 8169 8172 8171 8172 8174 8174 8175 8171 8171 8173 8172 8172 8170 8168 8165 8169 8169 8167 8168 8163 8165 8164 8164 8168 8165 8164 8164 8166 8163 8164 8166 8166 8167 8166 8166 8166 8163 8160 8163 8166 8164 8162 8162 8162 8164 8162 8167 8165 8159 8146 8148 8151 8151 8151 8150 8148 8146 8140 8140 
8166 8163 8167 8166 8166 8168 8162 8166 8169 8165 8165 8170 8168 8171 8171 8169 8170 8175 8172 8172 8172 8173 8172 8172 8172 8171 8172 8173 8173 8174 8172 8171 8172 8168 8168 8166 8168 8167 8166 8167 8164 8165 8163 8165 8168 8168 8165 8167 8166 8166 8166 8163 8166 8168 8170 8166 8167 8167 8161 8166 8162 8162 8161 8162 8162 8161 8163 8165 8164 8157 8151 8150 8151 8153 8150 8152 8150 8148 8141 8139 
8170 8164 8166 8164 8165 8164 8165 8166 8170 8169 8169 8170 8168 8170 8171 8169 8172 8174 8170 8173 8172 8171 8173 8175 8171 8174 8174 8172 8174 8173 8172 8171 8170 8167 8165 8165 8167 8167 8168 8168 8164 8165 8166 8164 8166 8165 8167 8167 8169 8166 8165 8165 8167 8169 8169 8170 8169 8166 8163 8165 8163 8161 8162 8164 8162 8160 8161 8168 8163 8157 8148 8150 8154 8153 8151 8150 8151 8146 8144 8145 
8169 8165 8167 8167 8169 8165 8167 8168 8169 8168 8169 8170 8169 8171 8174 8172 8172 8171 8176 8174 8174 8176 8174 8176 8174 8177 8175 8174 8173 8174 8172 8172 8170 8169 8167 8166 8167 8167 8169 8171 8167 8166 8167 8169 8167 8168 8168 8168 8168 8166 8169 8167 8169 8170 8171 8170 8170 8167 8165 8164 8162 8162 8163 8161 8160 8157 8162 8166 8159 8157 8149 8152 8154 8155 8153 8152 8152 8148 8143 8144 
8168 8165 8172 8165 8165 8167 8171 8168 8170 8170 8172 8170 8171 8169 8172 8170 8175 8174 8174 8177 8176 8175 8177 8176 8173 8176 8174 8175 8177 8174 8173 8170 8169 8169 8167 8166 8171 8167 8168 8172 8170 8168 8167 8168 8168 8167 8170 8170 8168 8168 8167 8168 8170 8173 8174 8170 8169 8166 8162 8161 8162 8161 8160 8162 8158 8158 8158 8161 8159 8155 8147 8155 8153 8159 8152 8152 8152 8150 8145 8144 
8170 8164 8169 8166 8170 8170 8169 8167 8170 8168 8170 8171 8172 8172 8175 8177 8175 8179 8177 8179 8176 8172 8178 8176 8176 8178 8178 8177 8175 8175 8172 8170 8170 8169 8172 8171 8174 8173 8173 8176 8175 8174 8170 8168 8168 8170 8171 8171 8171 8170 8170 8170 8172 8171 8172 8175 8168 8166 8161 8160 8161 8160 8162 8160 8157 8157 8159 8161 8158 8157 8149 8154 8157 8156 8155 8156 8153 8148 8147 8147 
8167 8162 8167 8163 8169 8169 8168 8169 8166 8165 8171 8171 8170 8172 8172 8173 8171 8175 8176 8175 8177 8173 8176 8176 8177 8180 8177 8177 8178 8174 8170 8173 8171 8173 8176 8176 8177 8179 8178 8180 8179 8174 8173 8172 8171 8171 8173 8173 8172 8170 8172 8172 8174 8174 8176 8172 8170 8168 8162 8163 8164 8160 8159 8159 8156 8156 8158 8162 8160 8157 8148 8155 8158 8159 8159 8155 8151 8149 8146 8147 
8167 8163 8167 8168 8169 8168 8167 8168 8168 8167 8172 8172 8171 8175 8174 8176 8180 8178 8177 8178 8178 8172 8179 8181 8180 8182 8178 8181 8179 8176 8170 8175 8175 8175 8179 8180 8180 8183 8183 8181 8176 8173 8178 8178 8174 8177 8177 8176 8175 8177 8177 8175 8177 8176 8173 8173 8169 8169 8165 8163 8162 8162 8159 8155 8156 8157 8157 8159 8160 8159 8155 8155 8159 8161 8158 8158 8152 8149 8145 8147 
8166 8163 8166 8167 8167 8166 8166 8165 8168 8169 8169 8172 8169 8173 8176 8175 8181 8183 8182 8180 8181 8177 8181 8178 8179 8186 8185 8180 8175 8172 8171 8173 8178 8178 8181 8181 8183 8185 8185 8183 8180 8178 8177 8178 8176 8177 8178 8176 8176 8179 8179 8177 8178 8176 8179 8173 8170 8168 8160 8164 8167 8164 8160 8160 8156 8154 8157 8156 8160 8155 8156 8154 8159 8162 8158 8156 8154 8146 8145 8147 
8165 8165 8161 8165 8168 8163 8164 8166 8167 8166 8170 8172 8173 8174 8178 8177 8181 8183 8184 8182 8182 8180 8182 8179 8181 8181 8180 8176 8173 8175 8170 8175 8178 8180 8184 8184 8185 8184 8183 8182 8179 8177 8176 8180 8177 8178 8175 8177 8178 8180 8181 8182 8181 8182 8177 8175 8172 8169 8164 8165 8166 8165 8164 8159 8157 8154 8159 8159 8162 8156 8155 8156 8159 8163 8159 8156 8152 8149 8144 8149 
8167 8167 8168 8167 8168 8165 8166 8165 8166 8168 8172 8175 8175 8177 8182 8179 8186 8184 8187 8182 8178 8179 8181 8179 8176 8179 8179 8178 8175 8175 8174 8175 8180 8181 8184 8185 8187 8185 8182 8185 8177 8178 8179 8179 8178 8180 8177 8179 8180 8180 8184 8182 8183 8182 8179 8178 8174 8169 8167 8167 8167 8166 8166 8164 8160 8159 8159 8160 8161 8153 8149 8158 8158 8160 8156 8155 8153 8147 8146 8142 
8167 8166 8166 8166 8165 8163 8163 8164 8164 8167 8171 8179 8177 8180 8182 8184 8184 8186 8183 8180 8181 8175 8175 8176 8175 8175 8177 8176 8177 8176 8174 8177 8181 8181 8184 8181 8184 8182 8183 8179 8179 8179 8181 8180 8178 8179 8177 8176 8181 8184 8184 8181 8181 8179 8179 8174 8174 8171 8167 8169 8165 8166 8165 8163 8160 8157 8159 8159 8157 8155 8154 8160 8158 8160 8155 8154 8149 8147 8141 8143 
8177 8168 8167 8164 8168 8167 8164 8166 8168 8167 8173 8177 8177 8181 8184 8186 8186 8188 8185 8180 8177 8172 8174 8169 8172 8169 8172 8173 8174 8174 8177 8177 8181 8181 8176 8176 8177 8179 8175 8175 8176 8175 8175 8178 8176 8179 8175 8181 8178 8181 8187 8184 8179 8177 8178 8175 8171 8171 8166 8170 8166 8165 8166 8165 8161 8157 8158 8158 8155 8153 8152 8156 8159 8157 8154 8153 8149 8143 8142 8147 
8175 8174 8169 8164 8168 8167 8167 8166 8163 8169 8177 8173 8177 8177 8184 8184 8185 8183 8184 8180 8176 8173 8174 8170 8170 8172 8171 8171 8173 8174 8173 8178 8179 8178 8178 8177 8179 8176 8174 8177 8173 8170 8171 8176 8175 8176 8175 8177 8181 8183 8186 8181 8180 8175 8178 8173 8170 8170 8165 8167 8164 8162 8164 8164 8160 8158 8157 8156 8154 8151 8148 8153 8156 8157 8153 8152 8150 8143 8142 8140 
8169 8168 8165 8164 8165 8165 8163 8164 8166 8169 8171 8171 8176 8171 8180 8179 8178 8176 8173 8170 8170 8170 8171 8172 8170 8171 8173 8177 8180 8180 8178 8182 8183 8180 8179 8178 8179 8175 8174 8174 8171 8170 8170 8173 8171 8174 8172 8177 8179 8180 8182 8179 8180 8179 8175 8173 8169 8170 8165 8167 8164 8163 8162 8161 8162 8157 8152 8158 8155 8151 8150 8154 8154 8156 8151 8151 8146 8142 8139 8138 
8148 8145 8148 8146 8147 8145 8147 8147 8148 8151 8151 8147 8149 8147 8142 8139 8138 8142 8141 8146 8153 8156 8165 8165 8171 8172 8166 8167 8168 8168 8174 8178 8182 8179 8184 8176 8182 8179 8179 8177 8173 8174 8169 8171 8174 8175 8179 8185 8184 8186 8189 8182 8181 8176 8180 8176 8175 8173 8170 8170 8168 8166 8166 8167 8164 8153 8153 8152 8153 8151 8149 8153 8154 8153 8153 8149 8146 8140 8146 8140 
8143 8139 8144 8141 8139 8138 8142 8138 8139 8139 8138 8137 8137 8137 8142 8139 8141 8138 8137 8135 8144 8141 8148 8148 8151 8160 8153 8151 8152 8151 8151 8157 8161 8160 8166 8165 8170 8176 8179 8180 8178 8181 8179 8178 8183 8187 8190 8195 8197 8197 8195 8187 8181 8185 8183 8181 8176 8171 8170 8176 8175 8171 8166 8167 8161 8151 8151 8156 8153 8152 8148 8154 8153 8154 8149 8150 8145 8139 8146 8140 


