P2
80 60
8178
8059 8066 8068 8079 8100 8095 8088 8080 8078 8078 8082 8083 8090 8090 8095 8096 8100 8105 8114 8113 8119 8120 8119 8124 8123 8125 8129 8131 8136 8133 8135 8141 8144 8150 8152 8153 8150 8154 8151 8153 8156 8157 8154 8154 8156 8156 8164 8165 8162 8161 8159 8152 8153 8151 8147 8145 8142 8141 8139 8135 8133 8135 8139 8141 8144 8140 8142 8144 8141 8141 8140 8141 8141 8140 8140 8140 8142 8138 8141 8142 
8056 8062 8060 8091 8124 8126 8122 8113 8114 8115 8112 8116 8117 8116 8118 8118 8120 8119 8124 8123 8125 8125 8124 8128 8128 8130 8133 8133 8135 8137 8138 8144 8146 8153 8154 8156 8157 8157 8155 8157 8159 8163 8160 8157 8158 8161 8165 8165 8163 8160 8156 8155 8154 8150 8147 8144 8141 8140 8136 8131 8132 8136 8141 8144 8145 8142 8142 8144 8142 8144 8140 8141 8134 8139 8135 8140 8141 8138 8137 8139 
8050 8053 8058 8107 8131 8130 8124 8123 8123 8124 8123 8122 8122 8120 8125 8121 8124 8123 8128 8125 8128 8126 8126 8130 8133 8134 8137 8135 8136 8137 8138 8141 8148 8150 8156 8155 8159 8159 8157 8162 8162 8164 8161 8161 8162 8163 8165 8167 8168 8160 8160 8157 8156 8153 8149 8146 8146 8145 8142 8133 8134 8137 8138 8142 8142 8141 8142 8144 8141 8142 8141 8142 8140 8141 8139 8140 8140 8140 8137 8135 
8048 8053 8070 8115 8130 8131 8124 8125 8127 8128 8125 8123 8124 8125 8126 8128 8129 8128 8131 8129 8130 8127 8123 8131 8137 8138 8137 8139 8139 8137 8137 8142 8145 8150 8156 8159 8161 8163 8160 8163 8162 8164 8162 8160 8161 8164 8167 8164 8158 8158 8155 8157 8159 8156 8153 8149 8150 8147 8141 8135 8137 8136 8138 8141 8141 8139 8139 8143 8143 8143 8140 8145 8141 8140 8141 8139 8138 8137 8140 8133 
8049 8050 8085 8118 8127 8132 8126 8124 8127 8129 8126 8123 8124 8125 8128 8126 8130 8131 8135 8137 8134 8129 8129 8135 8139 8137 8138 8138 8140 8139 8142 8143 8146 8152 8157 8160 8158 8162 8160 8161 8162 8164 8163 8162 8161 8164 8159 8130 8120 8127 8139 8152 8157 8153 8154 8151 8147 8145 8144 8139 8139 8137 8140 8142 8140 8141 8140 8143 8141 8141 8141 8145 8144 8142 8139 8138 8135 8136 8136 8135 
8047 8056 8101 8123 8126 8124 8129 8130 8131 8129 8124 8126 8128 8127 8128 8128 8130 8133 8137 8137 8137 8135 8133 8135 8137 8139 8139 8140 8140 8142 8146 8146 8148 8153 8156 8157 8158 8158 8159 8160 8162 8162 8164 8162 8162 8159 8122 8091 8087 8084 8091 8124 8152 8156 8152 8149 8146 8149 8145 8141 8140 8139 8141 8141 8142 8142 8138 8141 8141 8143 8140 8144 8140 8140 8140 8139 8137 8134 8136 8131 
8051 8075 8117 8125 8125 8129 8132 8135 8132 8126 8126 8130 8132 8130 8129 8131 8135 8134 8140 8141 8139 8140 8138 8139 8138 8140 8136 8141 8144 8145 8143 8150 8153 8153 8155 8156 8156 8159 8158 8160 8161 8164 8164 8162 8163 8157 8113 8085 8080 8078 8077 8088 8138 8154 8155 8153 8150 8149 8148 8142 8143 8139 8142 8145 8143 8143 8142 8142 8141 8140 8137 8145 8139 8137 8137 8140 8135 8132 8133 8135 
8061 8103 8122 8129 8129 8134 8133 8133 8133 8125 8131 8131 8134 8132 8132 8131 8137 8137 8139 8141 8141 8144 8140 8139 8141 8138 8139 8138 8144 8143 8146 8149 8151 8152 8158 8154 8153 8154 8156 8158 8161 8166 8165 8164 8162 8159 8126 8089 8082 8074 8075 8090 8146 8161 8158 8156 8150 8152 8149 8147 8143 8140 8143 8146 8146 8146 8141 8144 8141 8141 8139 8141 8139 8139 8137 8138 8137 8135 8137 8140 
8073 8117 8124 8131 8129 8133 8133 8132 8131 8131 8131 8131 8133 8133 8130 8136 8137 8138 8142 8143 8145 8144 8140 8139 8140 8141 8140 8137 8144 8144 8148 8148 8152 8155 8150 8126 8109 8108 8123 8145 8161 8166 8167 8167 8164 8162 8151 8097 8083 8076 8076 8102 8155 8160 8160 8154 8152 8151 8147 8146 8145 8143 8147 8147 8146 8144 8145 8145 8142 8140 8141 8140 8138 8138 8137 8137 8137 8136 8136 8137 
8093 8125 8129 8134 8134 8136 8132 8135 8136 8132 8129 8129 8133 8131 8131 8135 8136 8138 8143 8143 8144 8142 8139 8142 8141 8139 8144 8144 8146 8143 8146 8150 8150 8154 8120 8084 8079 8080 8080 8091 8125 8163 8165 8162 8155 8145 8142 8133 8086 8079 8086 8129 8152 8154 8158 8156 8151 8153 8152 8150 8147 8146 8145 8147 8150 8147 8144 8148 8144 8142 8142 8142 8137 8139 8139 8140 8139 8136 8138 8138 
8113 8130 8133 8133 8133 8135 8130 8131 8134 8132 8132 8133 8131 8132 8134 8135 8141 8138 8141 8145 8144 8142 8140 8141 8141 8142 8145 8145 8148 8150 8148 8154 8155 8155 8101 8079 8074 8074 8072 8076 8092 8153 8157 8140 8102 8086 8084 8101 8091 8096 8109 8097 8109 8124 8144 8149 8154 8155 8153 8149 8149 8149 8149 8150 8150 8150 8146 8149 8144 8145 8141 8142 8139 8138 8137 8137 8140 8136 8138 8135 
8126 8137 8130 8133 8129 8134 8128 8131 8131 8132 8128 8130 8129 8133 8135 8136 8139 8140 8145 8146 8144 8144 8140 8144 8144 8145 8145 8149 8151 8152 8150 8153 8158 8159 8123 8083 8076 8077 8070 8073 8087 8114 8096 8086 8081 8077 8078 8080 8099 8114 8087 8075 8088 8092 8107 8137 8150 8154 8152 8149 8147 8146 8151 8154 8153 8153 8149 8146 8146 8145 8143 8140 8139 8138 8136 8138 8138 8140 8136 8136 
8136 8139 8132 8132 8133 8130 8131 8130 8132 8134 8132 8130 8133 8132 8135 8136 8138 8140 8143 8145 8144 8143 8141 8145 8144 8146 8146 8149 8151 8151 8154 8156 8162 8159 8156 8120 8077 8074 8072 8073 8080 8076 8080 8080 8079 8080 8082 8085 8088 8083 8073 8068 8076 8084 8085 8103 8134 8151 8151 8148 8148 8148 8150 8153 8152 8154 8149 8150 8147 8147 8143 8144 8142 8143 8142 8144 8145 8141 8137 8135 
8141 8143 8142 8137 8136 8134 8134 8133 8131 8134 8135 8130 8135 8135 8137 8136 8139 8140 8143 8145 8143 8143 8140 8142 8142 8145 8149 8149 8150 8150 8153 8155 8157 8161 8158 8135 8107 8079 8069 8077 8077 8072 8076 8075 8089 8096 8102 8095 8074 8088 8095 8077 8076 8079 8079 8080 8097 8139 8149 8148 8145 8145 8149 8151 8152 8153 8149 8148 8149 8146 8148 8149 8146 8147 8147 8147 8146 8143 8137 8134 
8144 8147 8141 8140 8137 8136 8133 8133 8133 8134 8134 8134 8133 8136 8138 8137 8138 8143 8146 8145 8144 8142 8139 8140 8143 8145 8143 8149 8151 8150 8151 8153 8155 8159 8155 8137 8140 8127 8079 8074 8076 8077 8070 8078 8124 8115 8141 8090 8102 8126 8089 8080 8077 8075 8070 8069 8077 8112 8139 8143 8144 8144 8146 8150 8153 8152 8150 8151 8150 8146 8148 8149 8147 8148 8150 8148 8150 8148 8140 8137 
8150 8147 8144 8142 8139 8132 8133 8133 8135 8136 8138 8140 8137 8139 8142 8140 8144 8145 8147 8145 8143 8145 8140 8140 8143 8144 8150 8148 8152 8151 8149 8154 8159 8157 8140 8088 8091 8124 8089 8076 8079 8078 8075 8076 8092 8114 8120 8090 8104 8129 8095 8080 8081 8078 8070 8067 8066 8080 8128 8143 8143 8142 8145 8150 8150 8151 8149 8150 8148 8147 8149 8150 8148 8150 8149 8150 8153 8147 8147 8142 
8147 8147 8142 8138 8134 8133 8131 8136 8135 8139 8138 8138 8138 8140 8141 8140 8142 8144 8150 8148 8144 8142 8142 8141 8143 8148 8149 8149 8153 8150 8151 8153 8157 8146 8103 8071 8066 8073 8075 8082 8095 8110 8110 8079 8074 8082 8078 8087 8134 8151 8099 8080 8077 8076 8072 8068 8066 8071 8106 8139 8143 8144 8146 8150 8148 8149 8148 8150 8149 8147 8151 8151 8148 8150 8150 8148 8150 8150 8151 8146 
8147 8147 8139 8137 8134 8135 8133 8137 8139 8141 8144 8140 8142 8140 8145 8145 8144 8144 8148 8147 8144 8145 8142 8143 8147 8146 8153 8149 8154 8151 8154 8155 8151 8096 8081 8072 8069 8082 8076 8092 8142 8151 8106 8069 8070 8074 8080 8124 8152 8142 8101 8078 8077 8075 8073 8069 8066 8071 8096 8137 8143 8145 8147 8149 8151 8149 8148 8147 8149 8147 8149 8153 8152 8149 8150 8149 8148 8149 8148 8147 
8144 8146 8137 8137 8136 8136 8140 8140 8141 8142 8144 8145 8143 8145 8146 8144 8149 8147 8151 8147 8146 8149 8146 8145 8148 8151 8151 8152 8154 8152 8154 8155 8133 8080 8078 8072 8071 8076 8072 8073 8098 8109 8072 8072 8073 8072 8080 8087 8091 8086 8077 8078 8076 8075 8070 8069 8066 8067 8087 8132 8141 8143 8147 8151 8151 8148 8148 8148 8148 8148 8150 8146 8150 8148 8151 8153 8151 8148 8150 8147 
8145 8146 8139 8136 8134 8138 8140 8141 8144 8145 8148 8147 8147 8146 8147 8146 8151 8149 8152 8149 8147 8150 8148 8146 8150 8150 8155 8154 8155 8153 8155 8155 8129 8081 8077 8074 8072 8072 8072 8073 8076 8069 8068 8073 8074 8076 8081 8078 8078 8071 8079 8077 8076 8072 8068 8069 8068 8069 8077 8111 8138 8145 8146 8148 8145 8146 8144 8148 8146 8148 8149 8150 8150 8150 8150 8151 8152 8152 8152 8147 
8149 8149 8140 8139 8137 8138 8138 8145 8145 8149 8147 8148 8146 8149 8148 8152 8156 8153 8155 8152 8148 8151 8148 8148 8149 8149 8154 8154 8153 8151 8151 8154 8140 8081 8077 8074 8073 8071 8068 8072 8068 8055 8062 8072 8071 8077 8079 8078 8075 8082 8071 8074 8074 8072 8069 8065 8068 8070 8070 8087 8133 8142 8142 8123 8106 8108 8117 8128 8141 8147 8146 8150 8145 8146 8146 8149 8151 8150 8151 8147 
8148 8150 8142 8139 8138 8142 8140 8144 8146 8152 8149 8148 8150 8151 8147 8151 8151 8151 8149 8146 8150 8151 8149 8151 8151 8149 8150 8150 8151 8152 8151 8155 8144 8083 8076 8073 8071 8070 8070 8071 8068 8064 8055 8067 8069 8073 8075 8076 8080 8077 8074 8075 8074 8072 8072 8067 8065 8069 8072 8088 8122 8114 8102 8080 8082 8091 8096 8109 8122 8139 8145 8146 8146 8148 8146 8148 8149 8149 8148 8149 
8151 8146 8146 8145 8144 8143 8144 8147 8147 8151 8150 8152 8150 8149 8152 8148 8151 8151 8149 8150 8152 8153 8149 8147 8148 8149 8147 8148 8151 8150 8149 8154 8139 8081 8072 8072 8070 8069 8067 8069 8065 8066 8062 8064 8061 8068 8076 8079 8082 8080 8075 8074 8074 8074 8075 8072 8074 8110 8107 8103 8081 8072 8077 8078 8083 8092 8092 8099 8110 8132 8142 8146 8143 8146 8146 8144 8147 8147 8150 8149 
8149 8149 8148 8147 8149 8149 8145 8147 8150 8151 8151 8149 8151 8151 8152 8151 8151 8148 8150 8151 8152 8151 8148 8149 8147 8147 8146 8135 8142 8142 8144 8135 8101 8074 8072 8071 8068 8069 8070 8067 8066 8060 8063 8064 8061 8067 8076 8086 8086 8081 8075 8075 8078 8074 8073 8074 8087 8138 8144 8131 8087 8074 8078 8083 8089 8093 8097 8098 8101 8124 8143 8147 8148 8147 8145 8147 8147 8149 8151 8149 
8155 8155 8154 8149 8150 8151 8149 8149 8149 8148 8145 8147 8152 8153 8153 8151 8151 8150 8151 8151 8149 8150 8148 8148 8146 8146 8145 8130 8088 8094 8103 8092 8074 8067 8071 8069 8069 8071 8070 8068 8070 8056 8057 8056 8061 8073 8082 8087 8089 8083 8084 8072 8072 8070 8072 8075 8090 8136 8145 8140 8101 8085 8086 8089 8085 8088 8096 8102 8103 8117 8140 8149 8149 8149 8147 8150 8147 8150 8150 8153 
8159 8158 8154 8156 8152 8151 8150 8148 8147 8147 8146 8148 8151 8150 8155 8153 8150 8153 8151 8148 8148 8149 8146 8147 8144 8140 8129 8081 8067 8094 8096 8064 8063 8061 8068 8070 8066 8071 8072 8070 8071 8063 8062 8059 8065 8073 8084 8087 8082 8092 8074 8068 8070 8066 8070 8075 8088 8140 8147 8143 8117 8088 8092 8095 8094 8091 8090 8098 8099 8113 8141 8153 8150 8155 8153 8156 8156 8152 8153 8150 
8160 8161 8157 8159 8156 8154 8149 8148 8148 8148 8148 8152 8153 8149 8153 8152 8151 8148 8150 8146 8146 8146 8141 8144 8137 8107 8068 8051 8058 8068 8056 8054 8056 8058 8061 8070 8072 8073 8074 8073 8073 8071 8070 8067 8065 8068 8078 8070 8060 8064 8067 8068 8068 8062 8057 8070 8071 8123 8145 8146 8133 8096 8089 8095 8101 8097 8090 8093 8096 8110 8139 8149 8152 8153 8156 8159 8160 8160 8159 8159 
8166 8164 8161 8162 8156 8152 8153 8153 8151 8151 8153 8152 8154 8151 8152 8148 8136 8111 8116 8118 8116 8118 8122 8122 8107 8112 8055 8052 8058 8066 8054 8050 8051 8055 8055 8070 8071 8074 8074 8071 8072 8069 8070 8069 8067 8062 8055 8061 8060 8056 8071 8070 8068 8060 8057 8057 8056 8090 8137 8146 8142 8112 8087 8094 8104 8102 8093 8094 8097 8115 8142 8149 8151 8156 8158 8164 8162 8163 8164 8164 
8164 8165 8164 8156 8157 8160 8159 8157 8155 8156 8154 8154 8156 8155 8152 8146 8108 8050 8050 8047 8047 8044 8054 8080 8131 8118 8051 8057 8083 8102 8077 8054 8052 8055 8055 8056 8073 8075 8075 8074 8068 8073 8077 8069 8072 8063 8057 8057 8057 8055 8069 8071 8071 8068 8055 8054 8053 8061 8114 8142 8143 8126 8095 8096 8104 8107 8101 8098 8098 8118 8143 8150 8151 8159 8161 8165 8167 8168 8167 8164 
8171 8167 8164 8161 8161 8162 8159 8156 8156 8155 8156 8157 8153 8152 8153 8147 8114 8046 8042 8040 8042 8048 8059 8110 8140 8115 8079 8115 8140 8142 8116 8058 8054 8059 8050 8049 8067 8077 8075 8073 8068 8071 8076 8069 8067 8055 8054 8056 8064 8060 8062 8060 8068 8070 8057 8057 8065 8068 8089 8130 8137 8137 8112 8101 8101 8104 8104 8097 8098 8123 8145 8150 8154 8161 8160 8165 8170 8170 8170 8167 
8165 8168 8163 8163 8164 8160 8158 8156 8156 8155 8155 8154 8151 8151 8152 8151 8126 8058 8048 8043 8042 8056 8080 8136 8142 8132 8118 8112 8107 8116 8078 8048 8046 8049 8049 8046 8054 8074 8076 8067 8055 8063 8067 8061 8053 8054 8055 8062 8065 8066 8066 8061 8063 8070 8075 8084 8091 8094 8091 8105 8136 8140 8126 8101 8101 8103 8105 8103 8100 8128 8149 8152 8154 8160 8159 8164 8168 8169 8167 8165 
8169 8168 8164 8163 8160 8163 8157 8157 8154 8157 8150 8152 8151 8154 8154 8150 8135 8068 8050 8051 8049 8058 8104 8139 8133 8082 8074 8072 8063 8060 8053 8046 8048 8050 8051 8050 8050 8067 8073 8065 8051 8056 8053 8051 8053 8055 8060 8058 8063 8063 8063 8065 8064 8066 8089 8090 8089 8094 8094 8088 8129 8137 8133 8105 8099 8104 8104 8108 8102 8129 8148 8154 8155 8161 8162 8163 8166 8170 8167 8168 
8167 8168 8163 8162 8159 8161 8160 8158 8155 8152 8151 8152 8153 8150 8152 8149 8143 8104 8056 8056 8050 8057 8124 8133 8090 8068 8072 8065 8065 8059 8046 8042 8049 8052 8051 8050 8050 8048 8058 8058 8057 8060 8056 8052 8057 8063 8066 8066 8062 8063 8065 8071 8070 8074 8090 8088 8091 8088 8087 8089 8106 8119 8116 8104 8099 8102 8103 8107 8104 8119 8150 8153 8155 8160 8162 8163 8168 8168 8167 8166 
8169 8170 8170 8163 8162 8161 8159 8160 8159 8159 8152 8154 8153 8152 8156 8150 8150 8133 8073 8062 8059 8070 8131 8117 8073 8066 8071 8073 8065 8056 8051 8043 8046 8053 8054 8051 8054 8055 8054 8058 8065 8063 8063 8058 8062 8065 8065 8067 8067 8062 8068 8069 8071 8082 8085 8089 8087 8085 8080 8076 8074 8075 8081 8085 8096 8098 8101 8114 8120 8135 8148 8155 8157 8160 8164 8166 8167 8165 8167 8166 
8167 8169 8166 8165 8162 8161 8160 8160 8158 8155 8155 8156 8154 8153 8154 8153 8152 8149 8098 8066 8060 8085 8114 8093 8074 8073 8071 8068 8068 8062 8056 8046 8047 8052 8059 8056 8056 8056 8061 8060 8067 8067 8067 8063 8061 8064 8070 8070 8067 8060 8066 8065 8071 8074 8084 8091 8092 8092 8079 8072 8075 8073 8074 8081 8089 8102 8117 8136 8144 8150 8152 8156 8154 8158 8162 8164 8166 8166 8166 8166 
8168 8172 8166 8165 8162 8162 8164 8162 8162 8158 8155 8160 8158 8156 8153 8156 8155 8153 8127 8073 8065 8096 8085 8073 8077 8071 8072 8071 8065 8064 8063 8050 8051 8054 8052 8057 8055 8055 8060 8062 8064 8067 8067 8064 8061 8061 8071 8070 8068 8064 8064 8067 8070 8072 8084 8089 8087 8089 8090 8082 8075 8074 8077 8080 8083 8129 8144 8147 8151 8153 8156 8156 8156 8159 8164 8165 8162 8165 8164 8165 
8171 8170 8171 8163 8160 8162 8160 8162 8161 8158 8160 8160 8155 8154 8158 8154 8156 8155 8139 8074 8062 8114 8126 8101 8088 8088 8102 8102 8069 8066 8067 8064 8053 8057 8049 8049 8053 8052 8050 8053 8056 8062 8060 8060 8059 8064 8069 8069 8064 8058 8062 8067 8070 8069 8082 8090 8092 8090 8087 8088 8081 8079 8078 8077 8078 8129 8144 8152 8150 8153 8154 8156 8156 8160 8163 8163 8165 8166 8167 8166 
8169 8172 8169 8166 8167 8165 8166 8163 8164 8160 8160 8157 8158 8156 8157 8154 8154 8153 8132 8068 8059 8114 8140 8141 8138 8136 8139 8111 8072 8065 8070 8071 8064 8058 8049 8050 8049 8050 8046 8045 8051 8057 8056 8062 8058 8058 8067 8064 8061 8061 8065 8069 8073 8072 8081 8093 8089 8089 8088 8091 8087 8081 8078 8072 8074 8122 8147 8150 8150 8153 8152 8157 8159 8158 8162 8162 8164 8163 8167 8165 
8169 8170 8170 8169 8169 8167 8164 8162 8161 8163 8164 8158 8157 8155 8156 8153 8152 8149 8133 8084 8063 8109 8143 8144 8142 8144 8141 8115 8076 8071 8073 8070 8063 8060 8050 8052 8053 8051 8049 8050 8053 8057 8059 8065 8062 8053 8059 8061 8063 8058 8067 8063 8070 8070 8090 8095 8094 8091 8091 8094 8097 8099 8081 8071 8068 8100 8143 8149 8150 8153 8154 8154 8158 8160 8162 8162 8162 8161 8162 8162 
8173 8178 8172 8168 8168 8170 8167 8165 8163 8163 8159 8157 8154 8153 8153 8149 8151 8149 8152 8139 8122 8137 8143 8146 8142 8142 8144 8123 8084 8071 8073 8071 8063 8057 8049 8049 8055 8056 8050 8050 8057 8056 8058 8067 8062 8053 8061 8063 8062 8059 8067 8066 8072 8080 8091 8097 8096 8094 8090 8091 8098 8121 8093 8077 8071 8090 8138 8150 8149 8149 8151 8156 8157 8158 8158 8161 8162 8161 8165 8163 
8168 8172 8173 8164 8166 8168 8165 8163 8159 8162 8160 8154 8153 8152 8154 8150 8151 8154 8159 8152 8152 8147 8145 8149 8145 8141 8144 8141 8108 8074 8072 8068 8065 8054 8051 8053 8056 8054 8054 8055 8056 8056 8056 8066 8067 8060 8060 8065 8065 8063 8074 8078 8086 8089 8091 8097 8094 8097 8096 8097 8102 8133 8141 8125 8104 8115 8144 8151 8148 8150 8149 8152 8156 8159 8162 8164 8160 8162 8162 8163 
8169 8171 8168 8162 8163 8168 8161 8163 8159 8156 8153 8147 8149 8155 8155 8155 8151 8156 8159 8154 8152 8149 8147 8148 8146 8142 8147 8146 8135 8081 8071 8066 8061 8052 8055 8056 8058 8058 8055 8056 8056 8067 8063 8068 8073 8064 8063 8065 8066 8067 8077 8080 8083 8087 8094 8096 8094 8095 8098 8103 8116 8143 8149 8148 8149 8148 8147 8150 8149 8150 8152 8152 8156 8159 8160 8160 8160 8163 8159 8160 
8167 8167 8163 8159 8164 8163 8161 8160 8160 8156 8148 8130 8151 8157 8155 8151 8152 8153 8153 8150 8150 8149 8147 8145 8146 8145 8148 8145 8142 8096 8071 8062 8055 8054 8059 8060 8059 8060 8060 8062 8063 8061 8064 8067 8077 8066 8061 8064 8066 8070 8082 8078 8082 8090 8094 8095 8099 8097 8096 8099 8133 8147 8151 8155 8155 8152 8150 8150 8146 8149 8153 8153 8156 8159 8159 8160 8162 8165 8160 8162 
8165 8168 8164 8160 8159 8162 8159 8159 8159 8156 8142 8142 8156 8156 8155 8150 8156 8151 8155 8152 8150 8147 8145 8146 8146 8146 8145 8146 8145 8135 8079 8063 8052 8055 8056 8058 8055 8058 8062 8061 8056 8054 8061 8071 8083 8072 8064 8065 8063 8070 8085 8081 8083 8081 8090 8098 8104 8099 8093 8113 8139 8149 8155 8156 8151 8149 8148 8150 8149 8150 8152 8153 8153 8157 8161 8158 8162 8162 8162 8160 
8167 8168 8163 8160 8159 8161 8160 8159 8159 8156 8145 8145 8154 8159 8156 8151 8154 8151 8152 8152 8150 8148 8141 8145 8148 8146 8146 8144 8143 8140 8101 8069 8058 8049 8055 8055 8056 8061 8060 8054 8049 8053 8064 8078 8082 8075 8071 8064 8062 8070 8086 8083 8085 8081 8089 8100 8104 8099 8099 8131 8145 8149 8152 8156 8152 8152 8149 8149 8147 8149 8148 8154 8153 8156 8156 8156 8157 8159 8158 8161 
8168 8168 8164 8161 8162 8160 8158 8162 8157 8159 8155 8153 8156 8155 8156 8154 8158 8154 8156 8152 8149 8150 8146 8145 8147 8146 8146 8145 8146 8145 8122 8085 8071 8058 8055 8057 8053 8054 8055 8048 8047 8055 8067 8087 8087 8077 8073 8068 8064 8075 8082 8081 8083 8085 8091 8098 8104 8098 8127 8142 8146 8150 8151 8156 8155 8151 8148 8152 8151 8148 8147 8154 8151 8153 8152 8157 8156 8154 8160 8160 
8165 8169 8160 8161 8157 8161 8160 8159 8157 8159 8155 8157 8154 8155 8155 8155 8154 8155 8153 8152 8151 8151 8147 8148 8146 8147 8147 8145 8149 8147 8137 8105 8096 8075 8058 8055 8053 8052 8045 8046 8050 8055 8079 8090 8086 8075 8075 8070 8061 8071 8081 8086 8087 8089 8095 8098 8100 8121 8140 8146 8144 8146 8148 8153 8155 8150 8148 8152 8151 8150 8151 8149 8152 8155 8154 8155 8155 8157 8155 8154 
8166 8168 8159 8160 8161 8163 8161 8164 8162 8165 8162 8158 8156 8150 8155 8156 8156 8155 8155 8150 8149 8151 8146 8148 8149 8147 8147 8146 8147 8144 8143 8124 8108 8099 8082 8073 8070 8050 8047 8051 8055 8063 8087 8093 8075 8071 8074 8069 8068 8077 8085 8090 8094 8095 8099 8100 8113 8138 8139 8143 8145 8146 8149 8154 8153 8152 8150 8152 8152 8150 8150 8156 8151 8155 8156 8156 8157 8157 8159 8155 
8165 8158 8151 8161 8160 8164 8165 8162 8165 8166 8162 8163 8160 8155 8159 8153 8156 8154 8155 8152 8151 8150 8148 8147 8152 8148 8146 8147 8148 8145 8143 8139 8104 8108 8105 8090 8082 8070 8052 8055 8057 8068 8094 8092 8080 8075 8074 8075 8069 8081 8093 8097 8101 8106 8107 8115 8136 8142 8142 8142 8143 8148 8150 8153 8152 8153 8150 8152 8153 8154 8156 8154 8153 8156 8156 8159 8158 8155 8158 8155 
8163 8155 8152 8160 8160 8164 8165 8163 8160 8162 8162 8164 8158 8158 8155 8152 8154 8155 8155 8151 8148 8150 8149 8148 8148 8148 8150 8147 8144 8143 8148 8144 8129 8095 8098 8092 8090 8083 8080 8079 8078 8086 8096 8098 8089 8085 8075 8080 8069 8079 8093 8103 8108 8113 8120 8130 8140 8142 8140 8141 8143 8147 8150 8152 8153 8152 8151 8154 8156 8157 8155 8158 8152 8158 8156 8154 8153 8156 8154 8157 
8160 8158 8156 8159 8162 8161 8165 8162 8161 8162 8161 8157 8157 8161 8158 8158 8154 8154 8157 8150 8147 8150 8149 8152 8149 8150 8146 8146 8147 8142 8147 8146 8140 8119 8084 8094 8101 8097 8090 8089 8094 8101 8098 8096 8095 8091 8078 8071 8068 8073 8094 8106 8110 8121 8129 8142 8143 8143 8143 8140 8147 8146 8152 8154 8153 8151 8153 8155 8156 8158 8155 8158 8154 8158 8159 8154 8153 8150 8151 8151 
8163 8162 8159 8161 8160 8164 8159 8164 8160 8161 8160 8157 8163 8160 8159 8151 8153 8154 8158 8149 8148 8149 8150 8150 8150 8152 8149 8149 8147 8143 8139 8146 8147 8144 8123 8089 8083 8094 8107 8104 8100 8101 8100 8094 8096 8089 8077 8073 8071 8070 8086 8111 8127 8132 8142 8141 8145 8144 8143 8146 8147 8148 8151 8153 8153 8153 8152 8155 8153 8157 8155 8157 8155 8153 8154 8156 8153 8149 8147 8145 
8161 8163 8164 8162 8163 8159 8163 8167 8166 8162 8158 8157 8156 8158 8159 8149 8155 8155 8155 8152 8149 8151 8150 8150 8149 8150 8154 8153 8147 8141 8139 8143 8148 8146 8148 8132 8103 8089 8114 8109 8104 8105 8102 8100 8098 8093 8080 8074 8077 8074 8101 8125 8140 8143 8144 8141 8144 8146 8146 8146 8148 8150 8150 8151 8153 8151 8152 8156 8154 8157 8155 8158 8153 8157 8154 8150 8151 8149 8142 8151 
8166 8167 8169 8166 8165 8167 8167 8166 8163 8162 8158 8157 8157 8159 8159 8151 8155 8153 8157 8152 8150 8148 8151 8151 8153 8149 8151 8153 8148 8143 8142 8143 8143 8149 8150 8139 8138 8128 8126 8124 8119 8102 8105 8109 8116 8115 8098 8097 8112 8110 8132 8142 8148 8144 8148 8146 8146 8147 8147 8148 8147 8150 8153 8155 8156 8154 8150 8150 8151 8157 8154 8155 8155 8154 8153 8148 8147 8145 8142 8144 
8165 8169 8166 8162 8163 8163 8166 8165 8155 8162 8157 8158 8157 8160 8155 8155 8153 8149 8158 8151 8148 8152 8149 8150 8152 8148 8149 8153 8151 8148 8144 8142 8147 8153 8155 8147 8144 8145 8142 8137 8136 8124 8126 8128 8134 8134 8138 8142 8148 8144 8150 8149 8148 8146 8149 8146 8151 8146 8148 8143 8148 8150 8152 8154 8153 8151 8151 8150 8151 8153 8151 8154 8152 8151 8151 8148 8146 8142 8142 8142 
8166 8169 8171 8164 8161 8163 8165 8161 8160 8164 8161 8156 8162 8156 8157 8154 8153 8151 8152 8150 8152 8151 8149 8151 8148 8142 8147 8149 8152 8149 8148 8146 8154 8154 8159 8157 8151 8149 8145 8145 8149 8145 8145 8148 8143 8146 8149 8157 8156 8155 8155 8151 8151 8150 8153 8149 8151 8150 8148 8145 8146 8149 8152 8156 8157 8151 8148 8153 8150 8150 8150 8150 8147 8151 8149 8144 8141 8140 8139 8140 
8164 8167 8172 8160 8158 8159 8160 8157 8159 8162 8160 8153 8156 8157 8155 8150 8149 8152 8150 8152 8153 8152 8150 8149 8150 8141 8138 8150 8153 8149 8151 8149 8155 8155 8159 8158 8156 8152 8149 8149 8152 8152 8151 8150 8152 8149 8152 8158 8157 8156 8153 8156 8152 8151 8151 8150 8148 8148 8144 8143 8143 8148 8151 8153 8153 8148 8148 8153 8145 8146 8147 8149 8147 8142 8146 8143 8140 8139 8137 8136 
8166 8169 8165 8153 8155 8159 8157 8157 8158 8159 8159 8151 8151 8154 8152 8148 8146 8152 8153 8153 8147 8147 8146 8149 8151 8145 8149 8150 8152 8148 8149 8152 8154 8157 8156 8157 8155 8154 8150 8152 8156 8153 8150 8153 8151 8154 8156 8158 8159 8155 8153 8153 8154 8152 8152 8148 8149 8145 8145 8141 8141 8144 8148 8149 8153 8149 8150 8150 8148 8150 8146 8143 8138 8143 8145 8143 8138 8138 8135 8136 
8170 8162 8155 8157 8155 8153 8152 8158 8161 8160 8153 8149 8146 8152 8148 8139 8139 8145 8149 8148 8146 8141 8140 8145 8153 8149 8149 8152 8151 8148 8149 8146 8143 8153 8156 8157 8155 8156 8152 8155 8157 8152 8150 8147 8147 8148 8158 8160 8158 8157 8156 8152 8155 8152 8150 8150 8148 8147 8143 8144 8141 8143 8146 8149 8150 8146 8145 8149 8148 8147 8145 8145 8139 8140 8141 8142 8137 8134 8136 8135 
8170 8161 8155 8150 8149 8150 8152 8153 8156 8158 8151 8148 8142 8142 8138 8136 8134 8140 8144 8143 8143 8135 8139 8146 8146 8140 8145 8145 8149 8142 8144 8142 8143 8147 8152 8151 8152 8149 8152 8156 8153 8148 8147 8142 8142 8143 8146 8150 8153 8149 8152 8149 8153 8147 8148 8146 8146 8144 8139 8134 8133 8132 8139 8145 8143 8139 8137 8143 8141 8144 8141 8146 8140 8138 8142 8137 8138 8134 8132 8136 


