P2
80 60
8345
8171 8179 8178 8177 8173 8176 8175 8175 8175 8174 8170 8170 8173 8171 8169 8171 8167 8168 8167 8169 8167 8162 8162 8167 8164 8168 8162 8162 8161 8157 8159 8158 8156 8155 8157 8156 8157 8160 8158 8161 8162 8165 8168 8172 8171 8173 8172 8175 8175 8174 8174 8173 8175 8173 8171 8169 8166 8167 8166 8168 8165 8165 8161 8160 8162 8162 8161 8161 8163 8164 8159 8156 8155 8157 8158 8157 8159 8153 8142 8138 
8173 8177 8177 8176 8175 8173 8178 8175 8172 8172 8172 8171 8168 8170 8166 8169 8171 8169 8170 8170 8169 8165 8168 8169 8171 8170 8164 8162 8163 8163 8165 8167 8163 8161 8164 8162 8160 8161 8164 8166 8165 8164 8168 8171 8172 8175 8172 8173 8173 8174 8173 8171 8171 8170 8166 8167 8165 8165 8164 8162 8166 8159 8160 8160 8160 8160 8157 8159 8161 8159 8157 8153 8155 8154 8150 8151 8149 8146 8137 8132 
8171 8176 8176 8178 8175 8175 8174 8174 8172 8174 8171 8171 8173 8171 8171 8171 8172 8169 8169 8171 8173 8170 8171 8170 8173 8171 8166 8166 8166 8165 8168 8169 8168 8170 8166 8167 8166 8169 8169 8169 8168 8169 8168 8173 8171 8172 8172 8175 8175 8172 8175 8168 8167 8169 8169 8168 8165 8165 8162 8164 8164 8162 8159 8161 8159 8155 8156 8155 8156 8159 8151 8151 8149 8152 8145 8145 8145 8141 8134 8129 
8173 8177 8175 8175 8172 8173 8172 8176 8175 8170 8170 8170 8172 8174 8169 8171 8170 8171 8174 8174 8172 8173 8171 8173 8173 8172 8170 8169 8168 8166 8171 8170 8171 8171 8171 8166 8171 8170 8172 8167 8166 8167 8168 8170 8172 8173 8174 8172 8175 8174 8170 8169 8166 8166 8168 8162 8164 8165 8163 8159 8164 8162 8160 8159 8159 8156 8154 8154 8155 8159 8151 8148 8149 8144 8144 8140 8139 8139 8126 8130 
8169 8177 8176 8173 8175 8174 8177 8176 8174 8175 8171 8169 8172 8175 8168 8172 8172 8172 8172 8174 8172 8170 8174 8172 8171 8170 8172 8170 8171 8170 8170 8171 8170 8173 8170 8171 8173 8171 8172 8170 8164 8164 8169 8171 8172 8173 8172 8172 8177 8171 8171 8171 8169 8166 8167 8166 8167 8162 8164 8165 8163 8158 8161 8157 8154 8151 8152 8151 8155 8154 8148 8145 8142 8143 8140 8135 8135 8134 8125 8121 
8171 8176 8178 8172 8175 8174 8176 8180 8173 8175 8171 8172 8173 8173 8171 8171 8171 8168 8170 8171 8174 8173 8175 8173 8174 8172 8171 8172 8170 8169 8172 8171 8174 8170 8173 8171 8173 8173 8170 8166 8164 8164 8167 8168 8170 8170 8171 8173 8174 8170 8171 8168 8167 8170 8167 8163 8162 8163 8164 8163 8160 8157 8156 8157 8156 8152 8151 8150 8149 8153 8147 8143 8142 8138 8136 8132 8130 8127 8122 8121 
8171 8174 8176 8172 8173 8174 8175 8177 8174 8173 8168 8171 8174 8173 8166 8169 8170 8171 8175 8174 8173 8170 8173 8172 8173 8172 8167 8167 8169 8171 8171 8172 8171 8169 8172 8173 8173 8173 8166 8165 8163 8164 8166 8169 8171 8171 8173 8174 8172 8169 8171 8169 8165 8166 8162 8164 8164 8163 8161 8162 8160 8157 8155 8154 8152 8148 8148 8150 8146 8147 8144 8141 8141 8135 8133 8129 8125 8125 8118 8119 
8171 8172 8178 8173 8174 8174 8176 8178 8177 8168 8172 8171 8171 8171 8169 8168 8170 8168 8175 8174 8177 8173 8173 8173 8174 8172 8166 8169 8169 8168 8167 8171 8171 8170 8173 8172 8168 8168 8166 8164 8161 8161 8167 8170 8171 8171 8173 8173 8173 8171 8171 8166 8165 8162 8164 8160 8160 8160 8160 8161 8157 8157 8153 8152 8150 8147 8149 8148 8146 8145 8138 8138 8136 8134 8133 8127 8128 8122 8114 8116 
8173 8175 8178 8173 8172 8175 8178 8174 8177 8172 8169 8169 8172 8172 8168 8169 8173 8171 8172 8173 8173 8173 8174 8176 8174 8172 8170 8170 8168 8168 8169 8167 8171 8169 8170 8171 8170 8169 8163 8164 8161 8167 8166 8169 8170 8170 8173 8169 8169 8170 8168 8167 8164 8162 8164 8162 8161 8161 8159 8159 8153 8148 8153 8149 8147 8149 8146 8146 8148 8143 8138 8138 8134 8132 8131 8128 8127 8126 8115 8118 
8176 8175 8176 8177 8174 8176 8176 8178 8171 8173 8170 8169 8172 8172 8166 8169 8169 8173 8172 8174 8172 8172 8173 8173 8171 8169 8168 8170 8170 8167 8165 8167 8167 8168 8170 8167 8169 8166 8162 8159 8161 8165 8168 8173 8171 8171 8171 8171 8169 8168 8169 8166 8162 8162 8165 8162 8159 8162 8161 8159 8155 8150 8148 8146 8146 8148 8147 8145 8149 8144 8136 8138 8133 8134 8129 8126 8129 8124 8115 8119 
8180 8179 8175 8176 8173 8174 8174 8173 8172 8171 8171 8168 8169 8173 8170 8167 8169 8169 8171 8173 8171 8174 8171 8169 8172 8170 8171 8167 8166 8169 8167 8167 8164 8166 8165 8166 8168 8166 8162 8161 8156 8164 8168 8171 8173 8170 8170 8170 8172 8170 8171 8167 8166 8163 8164 8163 8162 8159 8160 8160 8157 8152 8149 8148 8147 8149 8148 8144 8143 8147 8139 8138 8134 8132 8129 8127 8127 8128 8115 8121 
8173 8175 8174 8175 8175 8174 8175 8175 8170 8173 8175 8173 8173 8172 8168 8172 8171 8171 8169 8174 8173 8172 8168 8168 8172 8171 8168 8166 8167 8166 8165 8164 8164 8165 8163 8162 8163 8163 8158 8155 8154 8160 8168 8172 8170 8169 8166 8171 8171 8168 8168 8169 8170 8168 8166 8163 8162 8158 8161 8159 8157 8152 8151 8148 8150 8149 8148 8146 8145 8144 8141 8137 8137 8132 8132 8128 8130 8126 8117 8122 
8176 8175 8175 8176 8174 8174 8175 8175 8173 8176 8173 8175 8173 8171 8170 8170 8173 8170 8171 8170 8175 8170 8171 8169 8169 8168 8169 8168 8168 8164 8165 8164 8160 8164 8161 8162 8160 8162 8159 8154 8154 8158 8168 8169 8172 8168 8167 8168 8167 8169 8172 8170 8168 8167 8168 8161 8163 8164 8158 8162 8157 8150 8149 8152 8151 8151 8147 8148 8147 8145 8137 8141 8137 8135 8135 8134 8133 8126 8121 8125 
8173 8176 8179 8176 8174 8176 8177 8176 8175 8177 8176 8177 8175 8177 8173 8172 8173 8173 8175 8174 8174 8173 8169 8171 8168 8169 8168 8165 8162 8162 8161 8163 8162 8162 8163 8159 8160 8159 8156 8155 8152 8159 8165 8170 8171 8169 8168 8168 8170 8167 8169 8169 8167 8166 8166 8163 8163 8161 8162 8161 8155 8153 8149 8149 8150 8151 8150 8147 8148 8145 8143 8140 8138 8137 8139 8136 8138 8132 8128 8126 
8174 8174 8174 8176 8176 8176 8176 8177 8177 8178 8176 8179 8179 8176 8176 8176 8176 8177 8173 8177 8173 8171 8167 8171 8170 8166 8166 8160 8160 8159 8159 8162 8165 8160 8160 8160 8162 8161 8159 8155 8152 8154 8162 8165 8165 8167 8165 8166 8167 8168 8168 8168 8168 8167 8166 8163 8162 8163 8161 8159 8159 8151 8151 8148 8150 8152 8149 8148 8148 8145 8144 8141 8141 8144 8141 8139 8141 8137 8127 8125 
8170 8175 8173 8174 8175 8178 8179 8182 8176 8175 8177 8176 8177 8179 8177 8176 8178 8177 8176 8175 8174 8169 8169 8169 8169 8165 8165 8161 8161 8165 8163 8162 8159 8158 8162 8161 8160 8160 8159 8154 8155 8155 8161 8165 8165 8168 8163 8165 8163 8167 8168 8166 8166 8163 8165 8161 8161 8159 8161 8157 8156 8152 8152 8149 8153 8150 8149 8150 8147 8146 8143 8144 8143 8141 8144 8146 8146 8142 8131 8128 
8174 8174 8175 8176 8177 8176 8180 8182 8179 8178 8182 8181 8180 8179 8181 8180 8178 8175 8176 8176 8174 8171 8170 8171 8166 8164 8163 8162 8162 8162 8164 8162 8162 8160 8163 8162 8160 8161 8157 8154 8153 8156 8161 8164 8166 8164 8162 8164 8166 8168 8165 8164 8164 8161 8161 8159 8161 8158 8161 8159 8151 8151 8152 8148 8151 8149 8149 8148 8147 8148 8144 8144 8146 8145 8144 8145 8143 8140 8131 8132 
8173 8173 8176 8176 8177 8180 8181 8181 8179 8181 8179 8180 8180 8178 8179 8179 8178 8175 8175 8175 8175 8172 8172 8170 8170 8169 8163 8164 8162 8163 8164 8164 8164 8159 8162 8165 8163 8160 8157 8156 8154 8159 8163 8162 8165 8165 8163 8165 8164 8165 8166 8165 8164 8163 8162 8158 8160 8158 8158 8160 8154 8153 8151 8148 8151 8150 8150 8150 8148 8148 8148 8145 8146 8146 8144 8144 8147 8142 8133 8136 
8172 8174 8176 8177 8177 8180 8182 8178 8182 8184 8182 8179 8181 8181 8179 8178 8179 8177 8177 8176 8174 8172 8171 8169 8167 8167 8164 8165 8165 8161 8163 8163 8164 8162 8166 8165 8163 8162 8160 8157 8155 8159 8160 8163 8163 8162 8162 8163 8166 8166 8165 8161 8165 8162 8160 8160 8164 8159 8158 8156 8154 8154 8152 8151 8153 8150 8151 8148 8149 8149 8146 8146 8145 8146 8146 8146 8147 8142 8136 8137 
8175 8176 8178 8175 8178 8179 8182 8181 8183 8179 8181 8183 8179 8181 8179 8178 8176 8174 8175 8175 8173 8173 8173 8171 8168 8167 8165 8163 8164 8169 8166 8165 8165 8163 8161 8166 8164 8161 8160 8158 8159 8159 8160 8162 8163 8164 8162 8163 8161 8162 8162 8163 8163 8160 8160 8157 8161 8159 8158 8155 8152 8152 8152 8152 8151 8152 8150 8151 8149 8149 8149 8147 8148 8145 8147 8144 8147 8146 8138 8138 
8178 8180 8176 8177 8175 8180 8179 8183 8178 8180 8183 8178 8181 8181 8180 8179 8180 8177 8173 8177 8174 8171 8173 8170 8167 8167 8166 8167 8168 8166 8167 8165 8164 8165 8167 8166 8166 8166 8160 8159 8162 8159 8160 8164 8164 8164 8162 8162 8164 8162 8161 8159 8163 8160 8161 8161 8160 8161 8155 8154 8152 8152 8153 8149 8152 8152 8152 8151 8149 8149 8148 8146 8148 8147 8147 8144 8146 8148 8140 8141 
8177 8181 8182 8184 8179 8181 8177 8178 8179 8179 8181 8181 8180 8180 8179 8176 8174 8174 8176 8172 8172 8172 8173 8173 8169 8165 8167 8166 8168 8165 8166 8167 8167 8168 8165 8165 8168 8167 8164 8161 8164 8161 8161 8160 8161 8164 8165 8163 8163 8162 8164 8162 8163 8162 8162 8159 8161 8160 8158 8155 8154 8151 8153 8150 8152 8150 8153 8151 8153 8152 8146 8150 8148 8147 8146 8146 8146 8147 8142 8142 
8181 8184 8185 8185 8181 8180 8179 8179 8178 8181 8180 8181 8179 8180 8177 8175 8176 8174 8172 8173 8176 8170 8171 8171 8169 8165 8165 8165 8167 8166 8168 8167 8170 8167 8167 8167 8167 8166 8163 8159 8162 8161 8162 8163 8162 8162 8161 8161 8162 8160 8163 8162 8163 8160 8160 8159 8158 8156 8156 8154 8152 8153 8152 8151 8150 8151 8151 8152 8151 8149 8148 8145 8146 8146 8147 8147 8147 8146 8141 8140 
8182 8186 8189 8185 8180 8181 8178 8178 8179 8179 8179 8180 8177 8180 8177 8175 8175 8173 8174 8173 8175 8170 8172 8168 8166 8166 8167 8167 8166 8165 8166 8169 8166 8166 8165 8163 8167 8165 8161 8161 8163 8161 8162 8163 8162 8159 8160 8160 8162 8160 8162 8162 8160 8157 8161 8158 8156 8156 8154 8154 8151 8153 8155 8152 8153 8154 8153 8151 8147 8146 8146 8145 8145 8147 8144 8147 8144 8147 8142 8141 
8190 8189 8191 8189 8183 8181 8176 8178 8178 8179 8180 8179 8182 8181 8178 8175 8175 8174 8176 8175 8175 8168 8170 8169 8167 8166 8168 8167 8164 8164 8166 8167 8166 8168 8167 8165 8165 8161 8160 8160 8162 8161 8160 8161 8163 8160 8163 8159 8162 8163 8162 8160 8160 8158 8158 8159 8158 8155 8154 8155 8156 8153 8152 8151 8152 8154 8152 8151 8147 8144 8145 8142 8145 8144 8143 8144 8146 8145 8138 8144 
8190 8192 8191 8190 8187 8180 8178 8179 8178 8181 8184 8180 8179 8179 8180 8175 8177 8176 8173 8173 8171 8171 8172 8167 8167 8165 8168 8166 8166 8167 8165 8169 8167 8167 8166 8161 8164 8161 8160 8159 8163 8161 8160 8163 8161 8160 8163 8162 8162 8162 8160 8162 8160 8158 8160 8158 8158 8157 8157 8156 8157 8158 8156 8153 8156 8154 8151 8151 8149 8151 8144 8143 8141 8144 8142 8145 8147 8146 8136 8140 
8191 8196 8194 8193 8186 8180 8179 8177 8180 8184 8181 8181 8180 8182 8175 8177 8176 8176 8173 8174 8170 8172 8170 8172 8169 8167 8168 8169 8164 8167 8167 8170 8170 8167 8166 8166 8165 8163 8161 8160 8160 8161 8159 8164 8162 8161 8163 8161 8163 8163 8162 8158 8161 8159 8159 8160 8158 8157 8159 8158 8158 8155 8158 8156 8156 8156 8154 8150 8150 8145 8142 8140 8140 8141 8141 8142 8148 8144 8137 8137 
8197 8194 8194 8191 8186 8182 8180 8182 8180 8182 8179 8182 8181 8180 8174 8174 8174 8176 8175 8174 8173 8172 8171 8172 8171 8170 8167 8167 8167 8167 8170 8170 8169 8167 8167 8165 8165 8163 8162 8161 8159 8160 8161 8163 8163 8159 8158 8162 8161 8162 8161 8162 8163 8160 8162 8160 8160 8159 8161 8158 8153 8157 8158 8154 8155 8156 8151 8150 8147 8146 8142 8138 8138 8141 8139 8139 8146 8144 8136 8135 
8191 8193 8189 8190 8185 8183 8181 8181 8180 8179 8180 8179 8178 8176 8176 8172 8173 8173 8174 8172 8173 8171 8172 8168 8171 8168 8170 8170 8169 8167 8168 8169 8167 8166 8168 8165 8166 8168 8161 8163 8160 8160 8159 8163 8162 8159 8160 8161 8162 8162 8163 8160 8162 8159 8161 8159 8159 8157 8156 8158 8157 8155 8160 8155 8156 8154 8153 8146 8145 8146 8141 8140 8140 8141 8138 8138 8142 8142 8137 8132 
8191 8194 8191 8189 8185 8181 8178 8179 8181 8179 8179 8178 8176 8177 8176 8174 8173 8175 8172 8172 8173 8172 8177 8174 8173 8169 8174 8174 8169 8170 8169 8173 8170 8167 8167 8167 8169 8168 8165 8164 8163 8162 8162 8162 8161 8159 8159 8160 8160 8161 8162 8161 8162 8159 8164 8160 8160 8159 8156 8158 8153 8155 8158 8155 8156 8156 8150 8150 8149 8146 8144 8138 8139 8139 8139 8137 8139 8138 8135 8138 
8189 8191 8192 8190 8186 8182 8179 8179 8176 8175 8178 8175 8176 8174 8173 8173 8171 8171 8171 8170 8169 8171 8175 8175 8174 8172 8173 8175 8173 8173 8169 8173 8172 8166 8170 8168 8167 8167 8166 8166 8162 8164 8162 8163 8163 8162 8161 8162 8163 8160 8162 8160 8161 8161 8159 8158 8158 8154 8154 8154 8156 8155 8156 8154 8156 8155 8149 8150 8145 8148 8144 8143 8140 8138 8141 8138 8141 8140 8134 8133 
8190 8190 8186 8188 8179 8180 8179 8176 8177 8181 8176 8178 8175 8173 8174 8174 8170 8171 8170 8169 8170 8172 8174 8173 8172 8175 8177 8173 8170 8171 8172 8170 8170 8166 8168 8168 8163 8167 8165 8165 8166 8165 8163 8166 8163 8163 8162 8161 8160 8161 8161 8161 8161 8161 8162 8159 8156 8157 8155 8155 8155 8154 8155 8153 8153 8153 8151 8150 8148 8147 8146 8144 8140 8139 8137 8139 8141 8141 8137 8137 
8188 8188 8188 8188 8183 8179 8177 8177 8178 8178 8175 8174 8174 8173 8176 8175 8170 8170 8170 8169 8170 8171 8173 8176 8176 8173 8175 8174 8173 8172 8169 8173 8166 8166 8168 8165 8167 8166 8164 8166 8165 8164 8161 8162 8164 8161 8160 8163 8160 8159 8160 8159 8157 8158 8158 8156 8155 8156 8153 8153 8151 8151 8155 8151 8152 8150 8150 8148 8148 8149 8145 8144 8140 8140 8140 8138 8140 8141 8135 8134 
8188 8191 8187 8186 8179 8180 8179 8178 8179 8178 8176 8177 8175 8176 8174 8175 8171 8173 8172 8172 8174 8174 8173 8172 8174 8175 8175 8175 8174 8171 8168 8167 8168 8169 8166 8165 8168 8167 8165 8165 8168 8163 8159 8161 8164 8159 8159 8160 8163 8158 8159 8158 8156 8156 8155 8154 8157 8154 8153 8155 8151 8153 8155 8152 8150 8151 8150 8148 8149 8149 8143 8144 8142 8140 8142 8139 8142 8140 8132 8135 
8188 8188 8188 8185 8181 8181 8179 8179 8180 8177 8179 8175 8180 8179 8174 8173 8173 8175 8170 8175 8178 8176 8171 8174 8175 8176 8175 8172 8173 8169 8169 8169 8169 8167 8169 8167 8165 8165 8166 8163 8166 8163 8161 8161 8162 8159 8158 8161 8158 8160 8156 8157 8159 8158 8154 8153 8154 8155 8154 8151 8154 8152 8152 8152 8151 8150 8150 8149 8147 8149 8144 8142 8138 8142 8141 8139 8139 8140 8130 8131 
8186 8188 8187 8187 8183 8181 8181 8180 8178 8178 8175 8177 8176 8176 8175 8176 8173 8177 8173 8177 8176 8177 8177 8172 8173 8175 8171 8170 8170 8170 8169 8168 8170 8166 8168 8167 8168 8167 8165 8166 8164 8163 8161 8162 8160 8158 8160 8160 8158 8157 8158 8155 8156 8157 8156 8154 8154 8156 8153 8153 8152 8155 8152 8152 8152 8150 8149 8147 8146 8145 8142 8144 8142 8141 8139 8139 8141 8140 8134 8132 
8184 8190 8186 8187 8182 8179 8178 8178 8177 8179 8178 8178 8178 8176 8178 8176 8175 8177 8177 8174 8179 8178 8175 8174 8173 8176 8174 8167 8170 8169 8169 8171 8166 8166 8167 8167 8165 8166 8165 8161 8163 8161 8160 8159 8158 8158 8157 8158 8157 8156 8156 8157 8155 8157 8154 8157 8155 8153 8153 8153 8151 8154 8152 8150 8149 8151 8148 8142 8145 8146 8142 8139 8140 8143 8142 8140 8139 8141 8133 8129 
8182 8188 8187 8191 8183 8183 8181 8182 8180 8181 8180 8179 8179 8177 8175 8178 8178 8180 8176 8178 8176 8174 8176 8179 8179 8177 8173 8167 8168 8170 8169 8169 8169 8168 8165 8164 8166 8167 8164 8162 8163 8160 8159 8156 8158 8155 8157 8156 8157 8154 8157 8156 8157 8155 8155 8155 8155 8157 8155 8154 8151 8153 8149 8147 8151 8152 8148 8146 8146 8144 8141 8143 8142 8141 8143 8145 8142 8144 8133 8135 
8184 8187 8192 8187 8186 8183 8181 8180 8178 8178 8179 8179 8178 8178 8178 8178 8174 8176 8178 8177 8179 8175 8176 8179 8177 8176 8170 8170 8168 8169 8167 8169 8167 8163 8166 8164 8164 8162 8160 8158 8161 8160 8158 8156 8156 8155 8154 8154 8155 8155 8156 8154 8156 8154 8155 8153 8154 8156 8155 8152 8149 8149 8150 8147 8146 8149 8149 8145 8146 8146 8141 8141 8141 8143 8142 8139 8143 8140 8132 8133 
8184 8189 8187 8188 8184 8182 8184 8179 8180 8179 8180 8180 8178 8179 8178 8179 8176 8180 8176 8179 8179 8176 8178 8180 8176 8174 8170 8170 8170 8170 8170 8168 8164 8161 8164 8163 8166 8165 8162 8160 8161 8159 8158 8156 8155 8151 8154 8156 8155 8157 8156 8155 8157 8154 8156 8154 8157 8156 8153 8151 8150 8148 8149 8148 8150 8147 8146 8148 8143 8147 8142 8142 8141 8143 8144 8141 8141 8140 8133 8136 
8185 8187 8189 8186 8185 8184 8182 8186 8181 8183 8183 8180 8180 8182 8179 8177 8176 8176 8177 8180 8179 8178 8178 8179 8177 8175 8173 8171 8171 8169 8167 8168 8164 8161 8162 8165 8164 8163 8159 8158 8157 8157 8157 8155 8152 8150 8154 8155 8155 8153 8155 8152 8156 8154 8155 8152 8154 8154 8151 8150 8151 8149 8147 8149 8150 8146 8147 8142 8143 8143 8142 8140 8141 8141 8143 8144 8144 8140 8134 8134 
8183 8186 8188 8183 8184 8183 8181 8184 8185 8183 8184 8182 8185 8184 8185 8180 8180 8181 8179 8181 8182 8179 8178 8180 8180 8176 8174 8172 8169 8168 8167 8166 8166 8166 8164 8165 8164 8162 8162 8158 8156 8157 8158 8155 8156 8153 8155 8154 8156 8153 8155 8154 8154 8155 8151 8152 8151 8150 8151 8150 8150 8148 8151 8150 8148 8148 8144 8143 8143 8143 8141 8144 8143 8145 8144 8142 8145 8142 8137 8137 
8182 8186 8187 8185 8183 8185 8183 8187 8188 8186 8187 8186 8189 8188 8187 8185 8183 8180 8181 8179 8180 8178 8184 8182 8179 8173 8174 8173 8167 8169 8169 8165 8164 8163 8164 8162 8162 8160 8158 8158 8158 8156 8156 8156 8157 8154 8153 8156 8155 8156 8153 8152 8153 8155 8155 8151 8150 8150 8150 8151 8150 8149 8150 8149 8149 8149 8144 8143 8144 8144 8145 8146 8146 8143 8143 8146 8146 8146 8138 8139 
8185 8189 8185 8183 8184 8186 8186 8188 8184 8189 8188 8189 8190 8187 8187 8185 8186 8183 8182 8184 8182 8182 8184 8179 8182 8176 8173 8171 8170 8169 8170 8168 8165 8165 8162 8162 8159 8160 8158 8156 8156 8153 8155 8156 8157 8155 8155 8155 8154 8153 8151 8152 8155 8154 8153 8152 8150 8150 8150 8149 8150 8151 8150 8148 8149 8147 8141 8144 8143 8146 8146 8146 8145 8146 8145 8143 8147 8146 8139 8138 
8183 8185 8187 8184 8187 8188 8186 8188 8190 8188 8188 8190 8189 8188 8189 8187 8185 8188 8185 8182 8184 8183 8180 8180 8177 8178 8172 8171 8169 8169 8166 8166 8166 8162 8164 8161 8158 8159 8154 8154 8154 8153 8152 8155 8156 8157 8153 8152 8153 8153 8150 8150 8152 8152 8155 8152 8152 8152 8149 8150 8149 8150 8148 8145 8146 8147 8145 8144 8144 8146 8144 8146 8144 8147 8145 8142 8145 8146 8140 8134 
8182 8186 8188 8189 8187 8189 8190 8193 8190 8193 8190 8190 8192 8193 8190 8190 8186 8187 8185 8182 8184 8184 8180 8181 8178 8178 8174 8172 8169 8169 8168 8166 8168 8164 8163 8162 8159 8156 8155 8153 8157 8155 8149 8154 8155 8155 8156 8152 8152 8150 8151 8151 8153 8152 8153 8154 8151 8149 8148 8148 8146 8147 8149 8144 8147 8146 8145 8144 8143 8145 8144 8143 8145 8145 8146 8145 8146 8143 8139 8138 
8184 8187 8183 8190 8188 8193 8191 8191 8191 8193 8189 8191 8193 8191 8192 8191 8190 8187 8188 8186 8186 8184 8179 8183 8179 8173 8171 8168 8169 8169 8165 8167 8165 8165 8161 8161 8157 8160 8154 8153 8155 8151 8153 8154 8154 8154 8152 8153 8153 8148 8149 8150 8150 8149 8152 8152 8151 8147 8149 8148 8148 8148 8146 8143 8148 8143 8146 8144 8144 8148 8144 8147 8144 8144 8145 8143 8147 8145 8140 8137 
8181 8186 8192 8193 8188 8193 8193 8194 8196 8193 8193 8193 8193 8197 8193 8190 8189 8188 8188 8190 8188 8183 8179 8179 8175 8170 8169 8168 8164 8166 8167 8165 8165 8162 8162 8162 8160 8155 8153 8151 8153 8155 8151 8154 8154 8152 8153 8150 8148 8148 8151 8151 8151 8151 8151 8150 8149 8148 8147 8147 8145 8145 8147 8142 8148 8145 8142 8142 8145 8149 8143 8144 8144 8145 8144 8146 8146 8144 8139 8139 
8182 8185 8186 8188 8189 8192 8193 8195 8193 8193 8194 8194 8194 8195 8190 8191 8189 8185 8187 8187 8185 8182 8178 8177 8174 8168 8166 8163 8160 8164 8163 8164 8163 8164 8162 8161 8160 8157 8153 8154 8151 8157 8152 8154 8153 8150 8148 8151 8149 8148 8149 8148 8149 8150 8148 8148 8148 8147 8146 8141 8143 8143 8144 8142 8143 8142 8144 8142 8145 8147 8143 8144 8143 8148 8146 8142 8146 8147 8139 8139 
8178 8180 8185 8186 8187 8190 8192 8193 8192 8191 8193 8193 8195 8192 8191 8187 8188 8186 8187 8183 8186 8177 8176 8174 8168 8164 8166 8159 8162 8162 8160 8160 8163 8161 8159 8160 8157 8157 8152 8150 8152 8149 8151 8152 8150 8146 8148 8150 8147 8148 8151 8150 8149 8147 8146 8145 8149 8147 8143 8144 8140 8143 8144 8141 8141 8139 8140 8143 8145 8146 8145 8142 8143 8145 8148 8144 8144 8146 8145 8140 
8177 8179 8185 8187 8185 8190 8192 8194 8190 8191 8192 8190 8196 8194 8192 8191 8188 8186 8186 8184 8182 8178 8177 8174 8169 8164 8165 8161 8159 8158 8158 8157 8158 8159 8158 8154 8154 8155 8149 8147 8149 8149 8147 8147 8146 8145 8149 8149 8146 8149 8150 8147 8149 8149 8146 8142 8146 8147 8144 8143 8144 8143 8144 8140 8139 8143 8141 8142 8144 8148 8146 8148 8143 8147 8147 8143 8146 8148 8139 8138 
8177 8183 8181 8184 8187 8188 8189 8192 8190 8191 8192 8191 8194 8192 8193 8190 8190 8186 8186 8182 8182 8180 8177 8175 8170 8165 8162 8158 8158 8156 8160 8162 8160 8159 8157 8154 8151 8151 8146 8147 8147 8145 8142 8142 8145 8144 8143 8147 8146 8145 8148 8148 8149 8147 8147 8146 8144 8144 8144 8142 8144 8143 8143 8141 8140 8139 8139 8142 8144 8148 8145 8145 8144 8145 8146 8142 8145 8145 8137 8137 
8181 8184 8185 8186 8186 8186 8190 8190 8188 8191 8189 8193 8192 8194 8193 8194 8189 8188 8189 8188 8185 8179 8178 8175 8174 8168 8170 8164 8165 8165 8165 8168 8166 8162 8161 8160 8159 8157 8152 8152 8152 8153 8148 8146 8141 8139 8140 8146 8148 8147 8146 8147 8146 8147 8148 8142 8143 8148 8143 8145 8142 8142 8141 8139 8140 8140 8139 8140 8144 8149 8147 8146 8144 8147 8143 8140 8143 8141 8136 8138 
8177 8182 8181 8186 8183 8183 8184 8187 8186 8188 8191 8190 8195 8194 8193 8190 8191 8189 8191 8186 8186 8178 8171 8167 8162 8160 8162 8170 8168 8169 8167 8166 8167 8166 8165 8165 8169 8165 8158 8155 8155 8157 8152 8150 8149 8148 8144 8139 8145 8145 8150 8148 8145 8146 8145 8141 8140 8141 8139 8141 8137 8142 8142 8139 8139 8139 8135 8139 8141 8144 8146 8144 8143 8145 8141 8141 8144 8142 8135 8140 
8171 8171 8175 8176 8175 8178 8181 8185 8184 8189 8188 8191 8194 8192 8194 8194 8195 8192 8189 8180 8169 8160 8159 8164 8165 8166 8169 8177 8182 8182 8178 8179 8178 8174 8173 8172 8176 8174 8164 8165 8166 8163 8160 8156 8152 8149 8147 8147 8143 8143 8148 8142 8142 8142 8143 8140 8139 8141 8138 8137 8140 8139 8139 8136 8139 8138 8140 8139 8143 8140 8143 8144 8143 8145 8143 8140 8142 8145 8137 8140 
8169 8173 8176 8166 8159 8156 8161 8180 8180 8177 8178 8179 8182 8184 8184 8185 8190 8189 8183 8166 8162 8164 8167 8170 8173 8168 8177 8181 8186 8182 8177 8178 8178 8173 8172 8168 8169 8166 8161 8163 8166 8167 8164 8161 8158 8152 8149 8146 8140 8139 8138 8138 8141 8137 8137 8137 8132 8133 8134 8134 8133 8138 8141 8136 8138 8140 8139 8138 8141 8140 8141 8142 8141 8142 8143 8143 8145 8147 8140 8143 
8201 8201 8187 8175 8170 8176 8181 8179 8178 8175 8175 8172 8171 8173 8171 8176 8179 8186 8174 8168 8172 8172 8172 8171 8175 8171 8175 8182 8191 8190 8189 8191 8190 8187 8180 8179 8179 8177 8170 8168 8167 8170 8165 8161 8157 8153 8146 8135 8136 8136 8135 8135 8134 8131 8132 8132 8128 8128 8133 8134 8133 8134 8139 8139 8136 8141 8138 8137 8142 8145 8149 8150 8150 8157 8156 8154 8158 8157 8146 8149 
8251 8235 8230 8230 8229 8237 8238 8231 8236 8235 8232 8227 8221 8225 8229 8239 8248 8238 8190 8177 8181 8174 8170 8172 8185 8191 8199 8213 8226 8222 8223 8232 8241 8237 8226 8218 8217 8216 8210 8202 8197 8184 8171 8163 8153 8146 8137 8124 8124 8119 8121 8120 8119 8114 8117 8122 8119 8117 8120 8124 8127 8127 8132 8136 8134 8136 8142 8145 8143 8148 8150 8149 8146 8150 8155 8155 8158 8155 8149 8145 
8251 8251 8266 8292 8285 8260 8245 8246 8272 8302 8281 8249 8243 8247 8274 8320 8311 8269 8227 8190 8182 8175 8173 8173 8192 8226 8243 8263 8272 8260 8254 8257 8267 8257 8259 8252 8248 8253 8240 8226 8213 8193 8164 8146 8142 8144 8131 8115 8113 8117 8118 8118 8114 8113 8113 8118 8120 8116 8120 8123 8127 8124 8126 8128 8131 8131 8133 8141 8144 8146 8151 8153 8148 8149 8150 8154 8154 8153 8143 8146 
8280 8301 8325 8332 8303 8282 8282 8289 8316 8334 8311 8286 8285 8287 8316 8345 8319 8286 8266 8250 8193 8175 8172 8175 8188 8219 8232 8247 8268 8251 8230 8219 8216 8224 8231 8220 8209 8204 8188 8170 8158 8157 8150 8143 8144 8149 8123 8114 8115 8116 8118 8114 8117 8115 8110 8117 8116 8112 8116 8123 8127 8126 8127 8127 8132 8135 8135 8143 8144 8148 8148 8150 8148 8152 8151 8155 8160 8150 8145 8145 


