P2
80 60
8213
8173 8174 8179 8181 8180 8181 8180 8176 8183 8177 8187 8185 8186 8185 8186 8186 8187 8187 8183 8183 8185 8191 8187 8187 8190 8189 8186 8182 8185 8186 8190 8185 8190 8187 8192 8189 8185 8187 8194 8194 8192 8194 8189 8189 8194 8191 8190 8194 8192 8191 8192 8191 8190 8190 8186 8188 8189 8189 8195 8198 8195 8197 8197 8193 8194 8198 8198 8195 8200 8202 8196 8200 8201 8206 8202 8201 8204 8203 8201 8200 
8170 8181 8185 8181 8184 8182 8178 8179 8176 8177 8181 8184 8182 8184 8181 8188 8186 8183 8185 8188 8189 8192 8190 8182 8191 8188 8180 8179 8188 8183 8188 8193 8187 8187 8185 8188 8185 8191 8196 8192 8190 8192 8184 8186 8189 8192 8194 8192 8193 8194 8189 8189 8193 8193 8193 8197 8192 8186 8193 8198 8201 8198 8197 8194 8191 8192 8202 8196 8203 8202 8200 8196 8205 8200 8205 8201 8205 8201 8204 8197 
8167 8172 8173 8171 8180 8181 8183 8179 8177 8180 8181 8183 8175 8180 8181 8183 8187 8188 8180 8187 8185 8188 8185 8180 8185 8189 8187 8186 8188 8182 8183 8187 8181 8193 8184 8183 8180 8193 8196 8196 8192 8191 8187 8189 8190 8192 8191 8191 8192 8189 8192 8183 8186 8197 8197 8194 8194 8194 8197 8195 8200 8200 8194 8195 8192 8195 8198 8196 8206 8209 8201 8198 8201 8203 8203 8200 8204 8205 8203 8199 
8173 8167 8177 8171 8177 8181 8181 8184 8180 8177 8178 8177 8182 8181 8181 8183 8184 8189 8181 8184 8182 8179 8169 8189 8188 8188 8187 8187 8188 8190 8183 8190 8191 8191 8193 8180 8188 8192 8190 8195 8192 8188 8191 8183 8188 8184 8195 8192 8193 8185 8191 8183 8193 8190 8192 8201 8198 8192 8195 8194 8200 8197 8195 8196 8189 8187 8195 8194 8202 8208 8199 8202 8203 8200 8202 8198 8205 8208 8206 8200 
8170 8164 8180 8173 8176 8179 8176 8174 8176 8176 8178 8171 8177 8181 8176 8183 8184 8182 8179 8183 8181 8185 8173 8178 8184 8187 8181 8183 8185 8186 8188 8187 8187 8181 8184 8186 8187 8186 8189 8193 8189 8187 8186 8183 8184 8183 8183 8190 8187 8193 8188 8187 8185 8192 8197 8196 8192 8198 8195 8198 8202 8200 8195 8198 8190 8194 8193 8187 8201 8198 8195 8203 8201 8204 8195 8200 8204 8205 8203 8198 
8176 8171 8180 8176 8178 8179 8182 8179 8178 8173 8169 8179 8180 8176 8176 8181 8186 8177 8179 8186 8186 8183 8185 8184 8190 8187 8185 8185 8179 8185 8189 8191 8186 8182 8188 8185 8188 8192 8189 8195 8193 8190 8192 8184 8183 8189 8189 8193 8188 8189 8192 8187 8192 8192 8195 8201 8197 8200 8200 8202 8203 8204 8198 8194 8191 8194 8195 8190 8198 8205 8198 8197 8203 8199 8199 8199 8201 8197 8204 8197 
8177 8177 8182 8177 8175 8176 8186 8181 8178 8166 8165 8184 8179 8174 8177 8183 8172 8180 8184 8186 8181 8182 8186 8182 8192 8189 8179 8173 8181 8187 8187 8189 8184 8185 8183 8184 8185 8182 8193 8194 8190 8190 8192 8188 8187 8189 8192 8189 8189 8191 8189 8183 8188 8192 8190 8193 8192 8192 8199 8205 8198 8198 8195 8193 8191 8196 8202 8200 8192 8196 8201 8202 8203 8198 8203 8198 8201 8199 8206 8204 
8175 8178 8177 8179 8175 8182 8183 8193 8186 8165 8177 8182 8178 8175 8183 8183 8182 8184 8184 8179 8188 8186 8186 8187 8192 8190 8177 8179 8184 8191 8188 8192 8192 8189 8188 8186 8186 8186 8188 8192 8189 8188 8191 8189 8185 8189 8193 8185 8186 8188 8190 8179 8192 8190 8191 8198 8192 8197 8196 8201 8199 8202 8197 8200 8193 8203 8203 8209 8200 8195 8197 8196 8203 8196 8200 8202 8199 8208 8209 8199 
8180 8173 8175 8177 8177 8175 8187 8182 8180 8167 8177 8177 8179 8180 8173 8178 8176 8178 8183 8184 8183 8177 8180 8181 8177 8183 8177 8179 8180 8183 8183 8186 8182 8181 8187 8185 8189 8189 8190 8190 8191 8191 8191 8185 8185 8191 8184 8190 8187 8182 8185 8184 8189 8185 8196 8186 8191 8193 8189 8196 8195 8194 8198 8193 8193 8190 8197 8203 8194 8200 8194 8193 8195 8197 8195 8199 8202 8204 8202 8196 
8176 8175 8178 8178 8178 8184 8176 8186 8184 8179 8179 8179 8180 8181 8180 8177 8183 8179 8189 8189 8181 8180 8183 8176 8173 8184 8180 8186 8182 8185 8180 8187 8181 8184 8192 8188 8189 8192 8189 8187 8188 8192 8188 8179 8182 8191 8192 8191 8189 8186 8186 8185 8191 8189 8192 8185 8193 8191 8193 8198 8200 8199 8195 8196 8196 8197 8198 8199 8194 8202 8200 8203 8197 8198 8202 8196 8206 8207 8208 8198 
8181 8174 8180 8176 8176 8185 8173 8181 8183 8177 8181 8176 8178 8180 8176 8179 8183 8180 8177 8179 8182 8182 8179 8183 8178 8179 8184 8185 8184 8184 8185 8180 8179 8184 8186 8181 8183 8186 8191 8186 8189 8188 8181 8191 8187 8195 8194 8188 8189 8185 8186 8185 8189 8190 8185 8184 8192 8181 8195 8191 8194 8195 8204 8196 8197 8197 8202 8199 8194 8198 8195 8201 8190 8197 8202 8193 8201 8202 8203 8202 
8177 8182 8180 8173 8172 8179 8175 8181 8185 8175 8181 8177 8181 8181 8182 8180 8186 8181 8176 8184 8192 8187 8178 8182 8186 8183 8182 8185 8186 8184 8190 8185 8181 8192 8181 8174 8186 8186 8188 8186 8185 8189 8188 8192 8191 8190 8196 8187 8187 8189 8194 8192 8190 8191 8189 8184 8189 8185 8198 8198 8192 8194 8195 8195 8196 8199 8207 8198 8198 8196 8193 8198 8196 8197 8191 8192 8202 8204 8201 8205 
8180 8177 8172 8172 8173 8177 8178 8175 8181 8179 8174 8177 8177 8180 8181 8187 8181 8182 8177 8182 8183 8184 8180 8179 8184 8180 8170 8185 8181 8180 8192 8181 8180 8186 8173 8176 8189 8192 8185 8178 8187 8188 8190 8193 8192 8188 8192 8191 8188 8186 8193 8191 8192 8193 8190 8185 8189 8190 8192 8195 8194 8191 8190 8190 8194 8198 8204 8200 8200 8191 8189 8193 8192 8193 8194 8197 8205 8201 8204 8201 
8183 8190 8186 8176 8178 8181 8183 8183 8175 8182 8183 8181 8176 8179 8185 8183 8184 8184 8186 8188 8182 8185 8183 8181 8183 8184 8186 8181 8179 8182 8191 8180 8181 8189 8184 8181 8180 8190 8182 8182 8185 8192 8192 8191 8189 8195 8191 8190 8191 8190 8190 8188 8194 8193 8193 8185 8189 8191 8193 8192 8192 8188 8196 8191 8200 8201 8201 8198 8203 8201 8195 8197 8196 8198 8195 8202 8200 8209 8206 8201 
8182 8179 8188 8180 8178 8184 8178 8184 8181 8182 8178 8184 8183 8178 8187 8184 8185 8181 8185 8189 8180 8182 8178 8178 8179 8180 8181 8177 8179 8190 8180 8178 8183 8184 8183 8186 8184 8186 8184 8182 8184 8186 8185 8189 8187 8186 8187 8183 8187 8189 8187 8192 8190 8191 8192 8191 8191 8194 8197 8193 8192 8185 8192 8192 8199 8202 8200 8195 8201 8195 8196 8198 8198 8196 8196 8196 8200 8204 8206 8202 
8188 8167 8178 8183 8178 8184 8179 8180 8180 8181 8182 8182 8182 8180 8184 8188 8187 8185 8184 8186 8177 8182 8178 8180 8178 8186 8184 8177 8179 8185 8185 8181 8179 8186 8182 8183 8186 8185 8183 8181 8190 8190 8186 8190 8188 8188 8186 8190 8181 8187 8189 8192 8196 8190 8186 8193 8190 8185 8191 8194 8195 8187 8192 8195 8203 8202 8193 8195 8197 8199 8196 8199 8197 8197 8198 8199 8200 8205 8204 8205 
8189 8173 8179 8182 8179 8172 8179 8178 8180 8184 8182 8184 8181 8177 8179 8186 8180 8191 8187 8181 8178 8181 8179 8176 8179 8185 8183 8183 8180 8182 8185 8182 8182 8187 8182 8185 8189 8186 8189 8186 8192 8185 8188 8189 8187 8189 8186 8183 8185 8192 8191 8191 8194 8188 8182 8183 8182 8186 8189 8193 8191 8185 8192 8188 8197 8196 8197 8194 8195 8196 8192 8194 8196 8202 8199 8199 8197 8202 8200 8195 
8192 8181 8180 8177 8180 8185 8178 8186 8183 8185 8182 8182 8186 8186 8191 8190 8188 8187 8186 8187 8184 8188 8185 8178 8183 8192 8194 8180 8177 8182 8186 8189 8184 8192 8185 8186 8186 8185 8185 8188 8184 8185 8187 8191 8189 8189 8189 8184 8193 8192 8187 8194 8191 8187 8185 8190 8181 8182 8186 8195 8191 8187 8196 8197 8196 8198 8198 8199 8199 8196 8194 8199 8203 8202 8202 8203 8202 8199 8200 8194 
8187 8176 8188 8180 8179 8181 8184 8183 8189 8182 8179 8187 8188 8183 8189 8186 8181 8189 8186 8182 8181 8187 8187 8184 8186 8192 8191 8179 8176 8177 8183 8184 8193 8192 8187 8187 8186 8182 8189 8185 8185 8186 8187 8186 8188 8186 8187 8194 8184 8186 8195 8190 8191 8185 8185 8182 8191 8183 8191 8191 8188 8188 8199 8192 8194 8195 8199 8191 8195 8195 8198 8199 8202 8196 8201 8201 8201 8202 8202 8200 
8183 8174 8182 8182 8175 8187 8184 8185 8189 8180 8186 8187 8187 8182 8190 8191 8183 8187 8179 8185 8179 8193 8183 8180 8185 8177 8189 8181 8184 8180 8188 8188 8179 8187 8188 8186 8186 8185 8186 8188 8187 8182 8189 8185 8185 8186 8192 8187 8189 8192 8189 8191 8186 8185 8195 8183 8188 8188 8188 8187 8188 8188 8199 8194 8194 8198 8193 8195 8193 8198 8196 8200 8201 8196 8204 8199 8199 8202 8201 8200 
8186 8181 8177 8170 8175 8175 8178 8186 8188 8183 8182 8186 8183 8180 8183 8191 8190 8182 8175 8185 8178 8183 8185 8184 8182 8179 8182 8186 8182 8186 8189 8187 8183 8187 8188 8188 8184 8182 8187 8191 8189 8189 8189 8185 8179 8191 8188 8185 8189 8187 8183 8188 8187 8189 8186 8186 8188 8189 8189 8190 8190 8187 8197 8198 8195 8194 8191 8202 8197 8195 8197 8197 8196 8197 8199 8201 8202 8202 8200 8196 
8188 8189 8181 8187 8183 8183 8171 8186 8175 8184 8182 8182 8186 8187 8178 8188 8185 8185 8182 8182 8184 8191 8186 8190 8182 8185 8182 8189 8183 8180 8183 8179 8187 8190 8188 8186 8185 8186 8192 8192 8187 8190 8187 8184 8182 8194 8186 8188 8190 8183 8187 8188 8185 8189 8189 8191 8188 8187 8185 8184 8187 8187 8196 8196 8195 8196 8195 8199 8198 8198 8194 8194 8196 8196 8201 8200 8196 8199 8202 8197 
8188 8181 8188 8187 8179 8182 8172 8172 8176 8187 8183 8183 8182 8184 8185 8186 8184 8180 8176 8180 8183 8187 8184 8188 8187 8181 8185 8187 8185 8183 8187 8182 8185 8187 8187 8188 8185 8183 8188 8178 8179 8187 8190 8190 8181 8185 8181 8183 8184 8178 8185 8189 8189 8188 8186 8190 8187 8187 8182 8183 8190 8188 8193 8195 8198 8196 8194 8197 8193 8196 8193 8192 8197 8191 8199 8199 8199 8204 8200 8198 
8184 8187 8187 8178 8184 8189 8180 8169 8184 8186 8187 8185 8185 8179 8188 8187 8183 8189 8181 8190 8183 8185 8188 8180 8183 8178 8185 8182 8186 8175 8181 8193 8190 8188 8183 8181 8189 8189 8180 8184 8184 8190 8186 8188 8187 8184 8184 8182 8180 8189 8193 8186 8181 8187 8188 8188 8193 8189 8180 8185 8187 8189 8194 8196 8198 8198 8198 8201 8196 8196 8196 8191 8196 8197 8200 8196 8199 8204 8201 8197 
8188 8175 8189 8187 8182 8183 8176 8182 8187 8179 8186 8181 8196 8182 8190 8187 8190 8189 8179 8179 8189 8186 8188 8186 8184 8186 8186 8182 8184 8175 8189 8191 8188 8193 8187 8183 8188 8187 8183 8189 8188 8192 8188 8187 8189 8189 8184 8189 8187 8185 8191 8188 8180 8182 8185 8188 8190 8189 8187 8191 8187 8185 8191 8192 8200 8199 8197 8200 8195 8201 8197 8197 8197 8193 8199 8195 8195 8197 8201 8204 
8191 8175 8184 8185 8183 8182 8181 8178 8178 8180 8186 8192 8185 8182 8188 8185 8189 8191 8185 8177 8187 8187 8192 8184 8183 8178 8182 8184 8186 8187 8185 8191 8185 8190 8189 8182 8190 8184 8189 8190 8192 8190 8188 8187 8193 8187 8189 8181 8190 8185 8188 8186 8184 8185 8185 8186 8189 8189 8188 8188 8193 8188 8193 8194 8194 8197 8198 8199 8195 8189 8186 8195 8197 8196 8198 8199 8195 8197 8204 8195 
8187 8183 8176 8185 8178 8182 8180 8171 8179 8181 8182 8189 8183 8184 8188 8190 8191 8188 8186 8175 8186 8182 8183 8190 8181 8178 8187 8186 8186 8185 8183 8191 8185 8184 8186 8184 8182 8186 8188 8186 8187 8187 8190 8188 8188 8186 8187 8180 8191 8189 8179 8186 8181 8188 8190 8190 8183 8187 8193 8192 8192 8187 8193 8194 8192 8199 8198 8193 8194 8192 8191 8194 8195 8196 8195 8198 8198 8202 8203 8200 
8185 8185 8192 8184 8186 8181 8182 8181 8184 8182 8183 8188 8190 8183 8191 8184 8190 8191 8189 8185 8184 8182 8188 8187 8180 8190 8189 8191 8188 8189 8185 8196 8187 8189 8186 8188 8179 8182 8187 8185 8186 8192 8188 8195 8189 8186 8189 8180 8192 8188 8183 8188 8184 8186 8188 8189 8192 8190 8197 8196 8195 8190 8194 8193 8195 8201 8200 8193 8190 8191 8193 8193 8193 8191 8197 8200 8204 8202 8206 8202 
8185 8185 8186 8183 8181 8185 8182 8183 8187 8187 8188 8192 8189 8185 8190 8187 8188 8189 8185 8184 8185 8186 8186 8191 8187 8185 8191 8188 8186 8184 8184 8191 8187 8186 8185 8181 8185 8178 8188 8182 8185 8188 8190 8194 8190 8183 8189 8190 8191 8187 8185 8185 8186 8190 8192 8194 8195 8193 8192 8184 8197 8185 8191 8193 8194 8198 8194 8191 8188 8192 8190 8187 8192 8194 8196 8197 8197 8211 8210 8202 
8186 8180 8185 8186 8188 8192 8187 8182 8185 8185 8191 8193 8187 8188 8184 8191 8186 8193 8188 8187 8182 8189 8187 8191 8188 8186 8187 8194 8183 8189 8188 8185 8187 8188 8189 8183 8188 8193 8194 8188 8185 8186 8190 8195 8189 8185 8181 8187 8184 8182 8195 8189 8194 8196 8194 8196 8195 8185 8187 8186 8190 8184 8193 8193 8197 8198 8196 8195 8186 8191 8192 8194 8193 8191 8202 8193 8200 8210 8208 8204 
8187 8184 8188 8186 8185 8190 8181 8188 8192 8180 8186 8185 8183 8185 8189 8191 8191 8190 8186 8186 8182 8182 8188 8191 8183 8182 8190 8193 8186 8185 8189 8187 8190 8191 8185 8175 8188 8196 8187 8185 8187 8192 8188 8187 8188 8191 8188 8190 8189 8192 8193 8193 8189 8185 8193 8195 8192 8186 8189 8188 8191 8186 8195 8196 8196 8197 8198 8195 8193 8189 8188 8194 8195 8200 8197 8197 8209 8207 8209 8206 
8188 8182 8185 8186 8183 8190 8180 8190 8192 8183 8185 8193 8185 8186 8190 8191 8189 8186 8186 8186 8181 8193 8187 8195 8192 8189 8192 8194 8196 8188 8183 8191 8192 8189 8191 8189 8188 8182 8191 8188 8186 8190 8184 8192 8194 8194 8192 8192 8193 8193 8192 8187 8193 8188 8190 8185 8188 8190 8192 8192 8192 8191 8192 8191 8195 8195 8203 8191 8195 8192 8193 8196 8199 8195 8195 8198 8205 8205 8209 8200 
8195 8189 8191 8187 8186 8187 8179 8185 8191 8187 8184 8188 8187 8188 8188 8189 8187 8186 8186 8182 8184 8192 8189 8194 8193 8190 8196 8192 8192 8196 8185 8192 8198 8182 8190 8188 8187 8183 8191 8186 8189 8195 8189 8192 8194 8198 8198 8195 8192 8195 8192 8190 8193 8194 8190 8186 8190 8191 8190 8186 8194 8191 8185 8193 8193 8195 8193 8194 8194 8193 8191 8195 8187 8191 8197 8199 8199 8201 8208 8200 
8193 8178 8194 8191 8188 8185 8182 8185 8191 8184 8188 8188 8184 8187 8190 8189 8188 8191 8192 8188 8183 8190 8188 8188 8193 8191 8191 8195 8192 8189 8183 8195 8184 8189 8194 8187 8192 8194 8192 8193 8192 8191 8191 8193 8196 8195 8196 8194 8191 8193 8193 8189 8192 8193 8193 8187 8190 8191 8190 8188 8193 8189 8191 8187 8192 8193 8196 8197 8195 8196 8194 8194 8192 8200 8204 8197 8201 8204 8204 8201 
8190 8188 8191 8188 8191 8184 8185 8191 8186 8184 8187 8185 8180 8186 8191 8186 8189 8192 8193 8185 8187 8191 8187 8183 8193 8194 8189 8189 8188 8191 8191 8186 8181 8189 8192 8195 8191 8192 8193 8190 8193 8194 8193 8194 8189 8188 8193 8195 8192 8197 8196 8189 8189 8184 8187 8190 8191 8193 8190 8188 8192 8190 8193 8191 8191 8191 8192 8191 8196 8195 8192 8191 8192 8195 8200 8195 8200 8201 8204 8196 
8193 8187 8193 8190 8189 8188 8189 8193 8190 8182 8183 8190 8189 8184 8192 8190 8193 8193 8191 8188 8190 8193 8191 8185 8190 8184 8186 8186 8186 8190 8189 8186 8195 8191 8190 8192 8195 8193 8194 8192 8191 8192 8187 8191 8194 8189 8189 8192 8185 8193 8191 8193 8191 8192 8194 8192 8193 8194 8189 8191 8193 8195 8193 8189 8193 8192 8194 8188 8194 8193 8192 8195 8189 8191 8195 8200 8199 8198 8205 8201 
8195 8193 8195 8190 8189 8187 8190 8186 8194 8180 8188 8192 8193 8187 8188 8189 8191 8187 8189 8190 8192 8190 8191 8186 8188 8183 8190 8190 8186 8189 8185 8185 8188 8193 8192 8190 8191 8188 8190 8190 8190 8191 8191 8191 8194 8196 8201 8197 8192 8191 8188 8192 8192 8192 8193 8192 8190 8192 8192 8192 8195 8190 8194 8187 8191 8193 8194 8188 8186 8186 8190 8196 8193 8199 8199 8200 8200 8200 8201 8199 
8194 8189 8193 8190 8189 8188 8189 8186 8192 8186 8188 8193 8190 8184 8191 8187 8185 8183 8187 8188 8184 8189 8188 8188 8188 8189 8192 8195 8192 8188 8189 8189 8188 8192 8189 8186 8194 8196 8190 8190 8187 8192 8190 8192 8195 8197 8191 8190 8189 8192 8193 8192 8195 8193 8193 8194 8191 8196 8193 8191 8189 8189 8193 8191 8191 8192 8190 8197 8192 8191 8190 8192 8196 8200 8199 8198 8200 8205 8203 8199 
8195 8192 8192 8191 8189 8194 8191 8190 8191 8190 8191 8190 8186 8186 8189 8189 8186 8189 8187 8188 8187 8182 8185 8193 8188 8187 8191 8187 8188 8188 8195 8193 8189 8189 8184 8188 8189 8191 8190 8191 8187 8190 8194 8188 8186 8183 8192 8186 8191 8189 8192 8191 8192 8194 8190 8195 8192 8197 8187 8189 8191 8190 8191 8188 8195 8191 8195 8194 8191 8190 8190 8188 8193 8197 8201 8199 8198 8199 8204 8201 
8192 8196 8206 8193 8195 8195 8190 8188 8193 8188 8193 8187 8188 8186 8183 8181 8184 8187 8190 8187 8188 8185 8190 8195 8186 8184 8188 8190 8192 8192 8192 8191 8192 8185 8186 8191 8192 8189 8192 8192 8189 8190 8193 8190 8188 8189 8188 8192 8186 8187 8191 8193 8191 8194 8192 8195 8195 8194 8195 8186 8188 8189 8190 8189 8192 8193 8193 8192 8195 8191 8190 8190 8190 8192 8199 8200 8197 8200 8201 8201 
8194 8193 8206 8184 8190 8198 8187 8188 8194 8190 8185 8190 8181 8182 8189 8186 8185 8190 8195 8192 8191 8186 8187 8193 8184 8186 8191 8190 8187 8192 8191 8186 8188 8185 8184 8190 8189 8181 8191 8186 8188 8194 8197 8195 8189 8189 8187 8189 8189 8189 8194 8196 8190 8194 8195 8196 8194 8191 8193 8194 8189 8192 8194 8187 8190 8188 8188 8186 8191 8189 8190 8193 8186 8196 8200 8197 8197 8192 8199 8196 
8193 8186 8194 8186 8186 8193 8184 8189 8194 8189 8187 8191 8190 8189 8197 8194 8186 8194 8192 8191 8190 8187 8187 8191 8193 8187 8185 8191 8189 8191 8186 8191 8188 8190 8189 8195 8193 8190 8182 8188 8190 8195 8195 8190 8189 8190 8192 8189 8191 8193 8194 8192 8190 8193 8198 8197 8193 8189 8188 8193 8188 8196 8194 8193 8195 8193 8187 8187 8191 8189 8190 8193 8188 8194 8202 8203 8200 8202 8201 8196 
8192 8185 8189 8182 8188 8191 8190 8190 8197 8193 8193 8191 8191 8195 8192 8189 8192 8196 8191 8184 8191 8187 8191 8188 8190 8185 8183 8189 8188 8186 8188 8190 8187 8185 8190 8189 8193 8189 8188 8187 8187 8196 8196 8193 8185 8197 8187 8186 8191 8194 8195 8188 8188 8194 8197 8198 8188 8193 8192 8193 8189 8197 8199 8193 8194 8189 8193 8189 8190 8191 8188 8195 8192 8191 8202 8196 8198 8203 8199 8194 
8196 8191 8196 8186 8185 8189 8188 8191 8193 8192 8190 8193 8200 8196 8192 8191 8188 8188 8185 8190 8193 8187 8186 8192 8197 8192 8188 8192 8192 8188 8188 8191 8188 8187 8188 8188 8187 8190 8190 8192 8193 8190 8192 8195 8198 8197 8196 8192 8186 8189 8195 8193 8198 8200 8200 8197 8196 8190 8194 8199 8198 8197 8197 8194 8195 8194 8190 8189 8186 8190 8193 8191 8193 8192 8200 8197 8201 8198 8200 8197 
8195 8199 8194 8183 8188 8187 8191 8186 8191 8191 8192 8195 8193 8197 8192 8191 8193 8198 8187 8191 8190 8182 8187 8190 8185 8194 8187 8188 8186 8192 8191 8189 8192 8188 8187 8181 8183 8186 8188 8186 8187 8190 8191 8194 8195 8193 8196 8193 8190 8188 8194 8183 8188 8194 8199 8195 8195 8194 8192 8195 8194 8191 8196 8194 8193 8190 8191 8192 8192 8188 8189 8188 8191 8192 8195 8193 8198 8196 8199 8196 
8195 8189 8187 8190 8186 8187 8188 8187 8189 8189 8189 8183 8194 8195 8194 8197 8193 8192 8187 8192 8189 8193 8191 8189 8188 8195 8196 8193 8190 8192 8194 8191 8189 8192 8193 8188 8185 8182 8189 8187 8190 8187 8196 8198 8191 8193 8196 8195 8189 8188 8194 8188 8188 8187 8197 8196 8196 8191 8196 8192 8194 8196 8192 8193 8193 8194 8192 8192 8192 8192 8187 8187 8192 8195 8193 8194 8195 8195 8195 8197 
8192 8197 8188 8191 8191 8191 8192 8191 8190 8185 8190 8197 8192 8194 8193 8197 8196 8194 8191 8190 8193 8193 8191 8195 8189 8187 8185 8186 8190 8190 8189 8189 8190 8188 8190 8191 8184 8186 8184 8182 8193 8190 8190 8196 8196 8196 8192 8195 8187 8192 8196 8193 8197 8194 8191 8196 8196 8198 8192 8191 8191 8194 8192 8193 8192 8191 8191 8191 8189 8189 8188 8188 8190 8195 8195 8190 8193 8196 8198 8188 
8199 8200 8193 8192 8188 8195 8194 8192 8202 8200 8203 8195 8196 8186 8195 8198 8195 8198 8190 8192 8200 8191 8190 8203 8197 8194 8186 8187 8188 8193 8191 8199 8193 8198 8195 8192 8186 8186 8186 8186 8194 8202 8195 8195 8196 8189 8198 8194 8192 8196 8199 8190 8198 8194 8195 8191 8195 8195 8196 8191 8192 8195 8196 8193 8194 8194 8190 8189 8190 8188 8188 8193 8189 8193 8198 8198 8196 8194 8193 8191 
8195 8183 8199 8194 8189 8196 8201 8196 8199 8188 8194 8194 8198 8186 8196 8194 8197 8194 8190 8192 8194 8190 8198 8194 8199 8193 8193 8191 8191 8188 8198 8192 8199 8194 8195 8190 8197 8191 8190 8190 8199 8204 8198 8195 8193 8190 8195 8191 8188 8197 8191 8197 8195 8196 8193 8194 8193 8192 8190 8191 8189 8193 8194 8193 8188 8191 8190 8181 8192 8186 8189 8186 8193 8197 8199 8195 8194 8192 8197 8191 
8200 8192 8197 8194 8188 8202 8199 8192 8200 8190 8197 8199 8199 8202 8196 8194 8195 8195 8198 8192 8190 8196 8196 8196 8196 8193 8192 8193 8187 8193 8196 8195 8198 8190 8192 8191 8194 8194 8187 8195 8196 8198 8194 8197 8191 8192 8190 8195 8189 8187 8193 8200 8200 8195 8194 8191 8200 8196 8192 8188 8192 8194 8193 8192 8189 8187 8189 8189 8196 8195 8191 8196 8200 8198 8202 8194 8196 8197 8191 8192 
8201 8187 8191 8190 8198 8195 8201 8195 8194 8188 8199 8195 8200 8200 8197 8198 8197 8196 8195 8189 8194 8192 8190 8198 8193 8190 8194 8192 8191 8193 8195 8196 8198 8198 8194 8191 8192 8198 8194 8197 8197 8202 8199 8192 8193 8193 8198 8194 8194 8195 8192 8197 8193 8196 8186 8196 8199 8195 8189 8190 8195 8194 8192 8190 8184 8185 8192 8192 8197 8200 8193 8193 8198 8199 8198 8193 8195 8196 8193 8191 
8196 8194 8193 8192 8193 8200 8192 8198 8191 8187 8196 8194 8202 8199 8198 8191 8193 8201 8196 8190 8191 8193 8195 8197 8195 8196 8193 8192 8195 8194 8192 8202 8196 8194 8196 8190 8193 8193 8200 8198 8197 8200 8196 8195 8197 8197 8194 8194 8197 8193 8196 8192 8197 8195 8195 8196 8196 8192 8185 8196 8196 8197 8193 8184 8183 8192 8189 8188 8197 8197 8198 8199 8197 8195 8201 8200 8200 8199 8194 8188 
8197 8195 8197 8197 8194 8189 8189 8205 8199 8192 8190 8193 8195 8199 8203 8190 8197 8202 8194 8196 8193 8195 8198 8196 8198 8195 8196 8202 8195 8193 8192 8201 8199 8196 8197 8197 8197 8193 8196 8196 8193 8198 8193 8198 8193 8194 8196 8192 8190 8188 8189 8196 8188 8198 8202 8193 8195 8195 8196 8195 8199 8196 8195 8183 8187 8194 8192 8189 8201 8195 8198 8197 8197 8198 8200 8195 8193 8192 8194 8190 
8198 8192 8199 8192 8196 8202 8201 8201 8189 8197 8192 8196 8194 8202 8199 8196 8196 8198 8191 8192 8192 8194 8194 8198 8199 8194 8194 8200 8189 8190 8196 8190 8193 8197 8196 8198 8197 8198 8197 8192 8190 8199 8191 8198 8195 8198 8199 8196 8195 8194 8198 8199 8196 8185 8199 8195 8192 8193 8190 8197 8196 8194 8194 8189 8192 8194 8190 8196 8198 8194 8195 8198 8202 8197 8196 8197 8194 8192 8193 8183 
8197 8206 8201 8199 8192 8198 8198 8197 8192 8197 8196 8195 8196 8203 8198 8195 8194 8195 8199 8197 8194 8194 8192 8197 8197 8193 8191 8193 8194 8189 8189 8189 8195 8195 8197 8193 8197 8198 8196 8193 8195 8194 8200 8195 8197 8197 8190 8199 8200 8197 8197 8198 8195 8188 8197 8193 8196 8193 8187 8194 8198 8194 8192 8191 8194 8186 8191 8188 8192 8195 8196 8194 8198 8198 8196 8193 8191 8187 8191 8181 
8202 8201 8207 8197 8193 8194 8195 8194 8187 8198 8199 8196 8196 8199 8197 8196 8195 8196 8184 8189 8194 8196 8196 8193 8196 8173 8193 8193 8195 8194 8185 8193 8196 8193 8197 8197 8194 8192 8193 8194 8197 8197 8196 8199 8197 8196 8188 8196 8197 8194 8200 8197 8195 8195 8194 8192 8192 8193 8190 8193 8191 8192 8189 8193 8193 8193 8186 8190 8196 8192 8195 8194 8193 8195 8197 8192 8188 8187 8184 8186 
8196 8198 8206 8193 8187 8189 8197 8185 8194 8194 8198 8195 8200 8202 8199 8190 8190 8196 8192 8196 8195 8195 8192 8195 8198 8183 8173 8190 8190 8194 8192 8186 8195 8190 8194 8197 8195 8193 8191 8195 8194 8199 8196 8196 8197 8189 8194 8192 8194 8193 8194 8195 8187 8189 8194 8194 8189 8191 8189 8192 8189 8190 8188 8193 8192 8192 8189 8196 8189 8192 8197 8195 8195 8193 8193 8192 8189 8183 8184 8178 
8204 8207 8208 8188 8193 8192 8194 8187 8193 8191 8197 8190 8193 8196 8200 8194 8189 8195 8194 8197 8190 8192 8189 8193 8198 8189 8193 8192 8189 8191 8191 8194 8192 8193 8185 8189 8190 8187 8188 8192 8194 8189 8185 8195 8195 8192 8193 8194 8195 8192 8193 8193 8184 8186 8194 8187 8191 8186 8188 8188 8189 8191 8190 8189 8191 8191 8192 8191 8194 8193 8195 8193 8193 8192 8192 8192 8186 8182 8183 8181 
8207 8194 8190 8190 8191 8186 8187 8199 8195 8191 8198 8191 8195 8198 8196 8186 8187 8193 8188 8188 8192 8187 8187 8190 8200 8197 8191 8194 8187 8189 8194 8183 8185 8195 8179 8187 8189 8192 8192 8193 8193 8188 8186 8185 8189 8185 8194 8194 8188 8190 8190 8187 8188 8187 8185 8186 8186 8189 8188 8189 8189 8188 8188 8191 8189 8190 8190 8198 8195 8200 8193 8193 8192 8188 8193 8188 8187 8188 8189 8182 
8213 8194 8197 8187 8188 8190 8187 8197 8194 8193 8194 8195 8189 8196 8193 8189 8190 8191 8188 8192 8190 8179 8180 8184 8190 8191 8192 8190 8190 8187 8181 8184 8185 8187 8182 8183 8182 8186 8188 8187 8188 8188 8184 8184 8188 8186 8191 8191 8188 8188 8188 8185 8185 8185 8185 8182 8179 8184 8187 8186 8188 8186 8186 8187 8186 8188 8188 8190 8191 8197 8191 8192 8192 8191 8194 8189 8185 8188 8187 8186 


