P2
80 60
8210
8179 8184 8192 8196 8199 8196 8191 8189 8194 8190 8192 8203 8200 8194 8196 8199 8192 8191 8196 8190 8197 8200 8198 8187 8192 8207 8195 8195 8192 8194 8200 8199 8197 8197 8197 8194 8193 8194 8198 8197 8199 8199 8194 8192 8196 8206 8199 8199 8199 8200 8196 8195 8196 8185 8185 8188 8185 8186 8194 8201 8199 8189 8192 8193 8194 8197 8198 8199 8197 8205 8203 8205 8205 8206 8205 8206 8196 8200 8199 8200 
8180 8193 8204 8196 8200 8198 8193 8187 8189 8195 8192 8197 8190 8192 8188 8195 8190 8193 8193 8199 8201 8202 8199 8189 8198 8193 8181 8189 8197 8191 8195 8194 8190 8193 8187 8189 8180 8198 8202 8197 8197 8199 8189 8189 8197 8197 8198 8193 8196 8200 8192 8193 8194 8191 8185 8196 8189 8188 8193 8197 8198 8196 8197 8192 8192 8195 8197 8198 8204 8203 8203 8198 8209 8205 8210 8201 8205 8200 8205 8206 
8165 8184 8187 8185 8196 8185 8182 8193 8188 8191 8194 8194 8186 8193 8191 8189 8194 8194 8189 8195 8194 8196 8194 8185 8192 8199 8189 8191 8192 8180 8185 8189 8182 8194 8191 8185 8183 8196 8197 8195 8195 8191 8188 8194 8197 8196 8195 8195 8195 8192 8195 8185 8189 8195 8196 8189 8188 8194 8194 8185 8201 8200 8192 8194 8192 8189 8194 8194 8202 8207 8196 8195 8201 8202 8203 8197 8205 8196 8200 8198 
8182 8179 8197 8184 8196 8183 8192 8195 8193 8193 8185 8182 8189 8186 8185 8189 8189 8196 8190 8184 8190 8185 8173 8194 8195 8193 8194 8192 8191 8194 8187 8189 8194 8186 8202 8185 8193 8195 8193 8197 8195 8186 8191 8186 8195 8189 8200 8195 8198 8189 8193 8185 8192 8187 8191 8195 8184 8184 8193 8190 8195 8200 8187 8194 8185 8183 8195 8193 8198 8204 8191 8201 8198 8201 8199 8192 8202 8200 8206 8201 
8186 8177 8198 8185 8193 8190 8191 8187 8184 8191 8187 8179 8185 8188 8181 8191 8189 8185 8194 8182 8186 8191 8178 8185 8192 8193 8189 8185 8181 8192 8189 8195 8188 8186 8188 8187 8189 8189 8192 8194 8194 8193 8184 8183 8186 8187 8190 8191 8191 8196 8191 8186 8188 8186 8192 8194 8182 8194 8192 8193 8199 8198 8193 8194 8190 8189 8187 8185 8198 8199 8191 8202 8198 8205 8187 8196 8198 8195 8199 8202 
8190 8186 8184 8186 8186 8183 8197 8192 8191 8192 8176 8189 8191 8185 8184 8187 8190 8182 8192 8198 8193 8186 8192 8183 8195 8196 8191 8186 8183 8189 8195 8192 8186 8188 8190 8190 8189 8192 8190 8198 8195 8190 8198 8182 8188 8193 8192 8192 8188 8192 8195 8190 8194 8194 8188 8196 8188 8194 8193 8197 8195 8193 8193 8191 8184 8194 8189 8183 8196 8203 8196 8191 8203 8188 8186 8192 8191 8186 8197 8199 
8193 8192 8188 8199 8191 8186 8200 8199 8188 8180 8172 8196 8194 8179 8185 8192 8180 8187 8193 8202 8182 8189 8192 8188 8194 8193 8179 8180 8184 8194 8191 8193 8185 8191 8189 8189 8186 8188 8193 8194 8194 8186 8190 8188 8191 8188 8197 8193 8190 8196 8193 8188 8190 8192 8191 8193 8183 8186 8195 8194 8188 8190 8189 8190 8186 8190 8198 8199 8183 8187 8197 8201 8196 8190 8193 8192 8186 8180 8195 8195 
8193 8192 8185 8200 8184 8191 8194 8202 8196 8174 8188 8199 8192 8184 8194 8192 8188 8193 8191 8190 8195 8191 8195 8192 8196 8194 8174 8182 8183 8198 8194 8190 8196 8191 8192 8194 8186 8191 8188 8190 8191 8184 8189 8192 8189 8191 8192 8184 8190 8190 8188 8182 8195 8185 8188 8190 8186 8194 8187 8192 8186 8190 8189 8189 8186 8195 8196 8199 8193 8188 8189 8188 8195 8184 8195 8190 8184 8185 8197 8190 
8196 8187 8187 8190 8193 8187 8202 8195 8194 8183 8189 8191 8189 8190 8184 8190 8187 8185 8192 8195 8195 8180 8185 8187 8184 8189 8180 8185 8184 8188 8188 8186 8182 8184 8191 8189 8189 8189 8191 8192 8188 8187 8189 8185 8188 8199 8184 8186 8191 8182 8183 8180 8185 8182 8196 8186 8185 8187 8188 8192 8184 8186 8183 8182 8184 8187 8187 8198 8189 8194 8186 8185 8183 8184 8187 8190 8189 8186 8189 8193 
8197 8178 8191 8195 8190 8197 8184 8197 8196 8192 8186 8193 8191 8192 8186 8183 8190 8187 8196 8202 8192 8185 8191 8184 8179 8190 8185 8186 8184 8188 8185 8187 8184 8186 8194 8198 8191 8193 8187 8191 8189 8193 8191 8173 8182 8194 8192 8194 8191 8185 8185 8186 8190 8185 8190 8179 8190 8190 8190 8189 8192 8189 8187 8190 8185 8185 8188 8192 8185 8196 8192 8192 8191 8187 8188 8181 8187 8187 8185 8189 
8193 8185 8192 8191 8191 8196 8180 8194 8193 8182 8188 8189 8188 8190 8182 8184 8190 8178 8182 8188 8194 8189 8186 8190 8187 8185 8189 8189 8186 8191 8191 8179 8178 8190 8188 8183 8183 8183 8189 8187 8186 8183 8175 8190 8188 8198 8195 8187 8190 8183 8184 8182 8187 8189 8184 8175 8189 8181 8191 8191 8187 8188 8193 8182 8176 8185 8196 8189 8187 8192 8183 8189 8181 8181 8184 8175 8184 8182 8186 8188 
8187 8194 8193 8188 8182 8191 8187 8197 8198 8184 8191 8186 8193 8190 8188 8187 8187 8185 8184 8199 8196 8193 8181 8188 8194 8192 8188 8189 8194 8189 8194 8189 8174 8193 8185 8177 8186 8188 8194 8185 8186 8192 8185 8196 8190 8189 8201 8187 8189 8188 8196 8192 8192 8193 8187 8183 8189 8180 8193 8196 8184 8188 8188 8188 8181 8181 8193 8186 8187 8184 8188 8185 8185 8188 8171 8177 8191 8183 8184 8186 
8192 8189 8187 8181 8180 8189 8192 8180 8187 8186 8186 8186 8184 8183 8186 8190 8186 8188 8187 8186 8185 8192 8181 8180 8191 8189 8177 8187 8186 8183 8199 8177 8181 8185 8173 8177 8189 8197 8182 8177 8183 8187 8198 8193 8190 8191 8190 8189 8187 8185 8193 8190 8189 8192 8193 8176 8190 8183 8194 8191 8185 8185 8187 8180 8185 8184 8193 8185 8193 8179 8176 8183 8186 8179 8180 8184 8193 8182 8188 8189 
8194 8201 8200 8192 8193 8191 8190 8195 8182 8196 8193 8192 8182 8185 8192 8186 8192 8190 8193 8192 8190 8190 8184 8186 8187 8189 8188 8185 8180 8186 8194 8178 8189 8188 8181 8190 8183 8191 8183 8183 8187 8186 8192 8194 8192 8197 8194 8191 8194 8190 8189 8196 8192 8191 8195 8181 8190 8188 8192 8192 8186 8179 8186 8186 8189 8193 8194 8188 8194 8191 8190 8189 8188 8185 8177 8185 8187 8193 8192 8190 
8201 8186 8196 8198 8196 8193 8186 8194 8188 8186 8191 8191 8192 8189 8196 8192 8191 8186 8194 8193 8182 8187 8184 8187 8180 8186 8188 8182 8177 8189 8181 8179 8179 8178 8178 8181 8184 8183 8184 8177 8185 8187 8185 8193 8189 8189 8186 8183 8192 8187 8189 8195 8192 8196 8191 8190 8191 8191 8191 8187 8188 8181 8183 8188 8182 8195 8192 8186 8191 8185 8189 8189 8191 8187 8177 8181 8183 8181 8191 8192 
8200 8176 8188 8195 8193 8185 8184 8190 8187 8194 8189 8188 8188 8184 8194 8196 8195 8188 8198 8196 8184 8190 8182 8186 8185 8195 8195 8175 8179 8191 8185 8177 8179 8183 8180 8182 8187 8186 8183 8177 8190 8194 8183 8190 8187 8189 8181 8190 8183 8188 8190 8192 8193 8191 8185 8192 8190 8189 8189 8194 8190 8180 8184 8184 8192 8192 8184 8188 8187 8185 8189 8182 8188 8185 8180 8183 8186 8189 8187 8187 
8203 8178 8183 8197 8187 8180 8183 8184 8190 8190 8188 8191 8183 8184 8181 8193 8185 8192 8193 8185 8182 8188 8186 8181 8180 8187 8185 8187 8184 8182 8192 8182 8177 8185 8180 8186 8185 8185 8185 8183 8189 8183 8185 8183 8181 8186 8183 8177 8185 8185 8189 8192 8193 8188 8181 8188 8183 8189 8188 8190 8188 8175 8183 8181 8188 8182 8183 8189 8183 8183 8180 8179 8182 8189 8182 8181 8182 8187 8187 8189 
8198 8188 8192 8184 8185 8193 8185 8192 8188 8194 8191 8189 8194 8195 8193 8192 8188 8188 8192 8190 8190 8191 8188 8181 8181 8198 8197 8181 8186 8187 8190 8185 8185 8187 8187 8188 8187 8184 8185 8184 8183 8184 8189 8187 8190 8188 8186 8177 8192 8190 8188 8195 8188 8191 8183 8187 8183 8183 8185 8193 8186 8185 8188 8186 8184 8185 8191 8193 8189 8188 8178 8191 8192 8187 8187 8185 8179 8180 8191 8190 
8193 8187 8190 8194 8190 8186 8192 8193 8196 8182 8191 8192 8194 8189 8190 8189 8185 8189 8189 8185 8181 8193 8187 8183 8188 8196 8196 8177 8178 8175 8185 8186 8186 8189 8184 8187 8181 8180 8184 8182 8182 8177 8185 8182 8193 8187 8185 8189 8179 8182 8192 8186 8185 8190 8181 8181 8189 8184 8188 8191 8182 8182 8188 8187 8184 8182 8188 8184 8186 8186 8186 8184 8190 8181 8184 8189 8181 8182 8187 8189 
8193 8183 8194 8190 8183 8196 8191 8194 8193 8186 8194 8194 8192 8186 8195 8192 8187 8192 8183 8190 8180 8194 8189 8182 8186 8182 8192 8183 8183 8182 8185 8185 8179 8190 8189 8188 8183 8180 8184 8188 8181 8173 8190 8183 8183 8185 8189 8182 8187 8188 8186 8189 8183 8181 8189 8181 8185 8188 8189 8185 8183 8182 8188 8188 8186 8184 8183 8185 8187 8188 8184 8186 8188 8181 8187 8185 8185 8184 8187 8187 
8195 8193 8186 8177 8178 8185 8182 8195 8195 8185 8186 8191 8189 8184 8183 8197 8190 8188 8177 8186 8175 8185 8186 8186 8182 8176 8180 8187 8176 8190 8187 8183 8183 8187 8188 8192 8181 8177 8183 8189 8186 8180 8187 8181 8176 8185 8185 8179 8186 8182 8180 8187 8183 8180 8186 8190 8184 8190 8190 8182 8183 8185 8188 8189 8186 8184 8184 8189 8186 8188 8184 8188 8183 8185 8184 8186 8181 8183 8190 8187 
8195 8197 8188 8194 8192 8190 8173 8194 8183 8189 8185 8181 8193 8191 8177 8189 8183 8186 8177 8185 8185 8194 8185 8191 8181 8185 8186 8190 8183 8179 8184 8172 8186 8189 8184 8186 8180 8184 8189 8190 8183 8186 8182 8174 8179 8188 8177 8182 8191 8177 8181 8188 8184 8183 8188 8187 8186 8189 8184 8185 8186 8184 8192 8187 8185 8185 8187 8189 8189 8186 8185 8183 8185 8176 8189 8182 8179 8183 8189 8189 
8194 8189 8190 8195 8191 8182 8176 8175 8178 8189 8191 8186 8186 8188 8182 8184 8184 8179 8174 8182 8182 8191 8181 8188 8190 8184 8187 8181 8183 8186 8185 8174 8180 8186 8186 8187 8181 8178 8185 8168 8172 8182 8183 8183 8177 8182 8171 8179 8176 8175 8180 8183 8179 8183 8183 8184 8181 8187 8179 8180 8186 8187 8189 8188 8184 8187 8183 8191 8183 8180 8186 8178 8183 8178 8183 8183 8182 8184 8191 8191 
8198 8196 8189 8191 8189 8193 8186 8174 8189 8191 8192 8186 8191 8185 8191 8188 8187 8187 8180 8200 8187 8187 8192 8182 8186 8184 8189 8178 8190 8175 8180 8188 8187 8185 8180 8180 8188 8188 8177 8179 8179 8186 8183 8180 8187 8179 8179 8175 8177 8187 8187 8182 8175 8183 8186 8184 8189 8194 8177 8183 8181 8186 8189 8189 8195 8191 8188 8195 8182 8186 8179 8182 8186 8183 8182 8182 8180 8186 8191 8188 
8198 8180 8193 8195 8190 8186 8181 8193 8193 8184 8190 8188 8195 8189 8191 8191 8189 8193 8184 8181 8187 8186 8192 8181 8186 8185 8188 8183 8184 8173 8191 8189 8182 8190 8181 8180 8187 8186 8179 8188 8178 8190 8189 8182 8189 8183 8182 8179 8183 8179 8188 8187 8173 8180 8180 8189 8187 8195 8186 8195 8176 8186 8183 8187 8191 8186 8191 8197 8191 8186 8186 8189 8189 8180 8185 8179 8179 8181 8191 8186 
8199 8179 8184 8193 8190 8181 8189 8180 8177 8187 8184 8195 8187 8186 8190 8186 8188 8193 8185 8176 8194 8189 8192 8179 8175 8181 8183 8183 8186 8187 8184 8190 8178 8186 8189 8180 8188 8184 8184 8185 8188 8188 8185 8179 8188 8186 8184 8175 8184 8185 8186 8186 8177 8187 8181 8186 8185 8185 8181 8195 8188 8181 8179 8184 8184 8188 8191 8192 8185 8181 8178 8187 8187 8184 8180 8182 8180 8181 8188 8187 
8196 8186 8179 8191 8184 8186 8182 8175 8186 8186 8180 8195 8185 8190 8186 8186 8190 8189 8191 8175 8188 8180 8182 8183 8180 8180 8186 8185 8185 8189 8182 8184 8171 8182 8182 8182 8180 8183 8183 8180 8183 8182 8181 8182 8183 8181 8184 8172 8186 8185 8172 8182 8171 8185 8184 8184 8179 8184 8186 8191 8185 8175 8188 8185 8185 8185 8188 8185 8182 8186 8183 8182 8183 8184 8179 8180 8182 8181 8187 8186 
8189 8190 8194 8193 8191 8180 8185 8185 8180 8188 8180 8191 8194 8185 8187 8188 8190 8191 8192 8185 8184 8181 8187 8187 8180 8189 8189 8191 8185 8187 8187 8193 8184 8188 8182 8187 8175 8179 8184 8182 8181 8184 8181 8189 8189 8182 8187 8174 8188 8189 8173 8183 8172 8181 8186 8183 8187 8188 8193 8196 8193 8188 8184 8189 8190 8188 8190 8179 8181 8183 8182 8179 8184 8181 8182 8186 8190 8181 8188 8187 
8188 8181 8183 8192 8185 8188 8186 8187 8188 8195 8189 8197 8191 8183 8192 8178 8186 8189 8186 8182 8183 8184 8183 8189 8186 8186 8190 8188 8189 8183 8185 8188 8182 8184 8183 8186 8183 8177 8187 8178 8182 8180 8183 8191 8185 8179 8189 8184 8184 8181 8179 8179 8183 8186 8185 8189 8190 8190 8191 8183 8187 8178 8183 8188 8185 8189 8188 8179 8173 8181 8180 8177 8175 8177 8183 8180 8179 8188 8188 8189 
8185 8182 8184 8195 8184 8195 8194 8185 8190 8183 8192 8193 8190 8185 8183 8188 8185 8195 8189 8188 8184 8186 8185 8188 8189 8188 8190 8192 8182 8190 8188 8186 8187 8186 8187 8181 8187 8191 8188 8177 8182 8175 8185 8193 8180 8179 8174 8183 8176 8182 8187 8182 8187 8190 8184 8188 8186 8179 8181 8178 8180 8177 8185 8181 8184 8184 8186 8176 8171 8176 8176 8180 8179 8177 8188 8178 8180 8189 8191 8186 
8189 8186 8187 8197 8188 8195 8181 8189 8196 8182 8193 8190 8182 8189 8185 8192 8190 8188 8191 8184 8182 8180 8186 8190 8184 8184 8191 8191 8181 8180 8187 8189 8184 8191 8184 8173 8185 8189 8179 8181 8182 8183 8184 8184 8182 8182 8182 8182 8180 8188 8186 8182 8182 8177 8184 8182 8182 8174 8183 8179 8174 8178 8187 8184 8184 8184 8186 8181 8174 8175 8174 8179 8176 8184 8182 8174 8188 8185 8187 8189 
8192 8182 8179 8189 8181 8192 8180 8190 8198 8185 8180 8190 8190 8183 8186 8187 8186 8181 8184 8183 8176 8188 8186 8191 8187 8181 8188 8193 8191 8188 8183 8185 8188 8183 8189 8189 8186 8179 8185 8182 8178 8183 8176 8191 8190 8189 8185 8183 8187 8191 8186 8180 8188 8177 8182 8177 8177 8181 8185 8184 8177 8179 8180 8180 8180 8179 8177 8173 8178 8171 8174 8180 8179 8175 8178 8176 8180 8182 8188 8189 
8195 8187 8186 8191 8179 8194 8184 8185 8194 8192 8182 8188 8179 8188 8184 8188 8184 8178 8180 8181 8181 8191 8187 8190 8192 8185 8193 8188 8188 8188 8176 8183 8189 8176 8185 8183 8184 8173 8185 8180 8178 8187 8176 8185 8186 8189 8190 8186 8183 8184 8180 8181 8187 8187 8180 8176 8177 8181 8181 8174 8177 8173 8174 8177 8175 8175 8173 8175 8177 8178 8177 8174 8170 8171 8175 8175 8172 8179 8185 8185 
8198 8179 8195 8193 8191 8190 8182 8188 8195 8186 8188 8189 8179 8188 8184 8183 8180 8189 8191 8177 8183 8187 8183 8183 8190 8190 8188 8188 8191 8186 8179 8188 8172 8183 8191 8182 8183 8187 8183 8186 8184 8186 8182 8186 8188 8186 8189 8188 8182 8183 8188 8182 8184 8184 8179 8176 8177 8180 8175 8171 8177 8172 8174 8174 8178 8178 8177 8176 8178 8177 8180 8179 8172 8178 8180 8173 8176 8177 8181 8184 
8198 8189 8198 8188 8197 8186 8192 8193 8190 8185 8187 8189 8186 8183 8188 8182 8188 8187 8192 8186 8190 8191 8182 8180 8190 8194 8181 8187 8185 8185 8188 8179 8169 8181 8185 8188 8183 8192 8182 8186 8184 8187 8183 8180 8182 8182 8183 8192 8185 8189 8189 8184 8180 8175 8178 8173 8177 8181 8174 8172 8179 8182 8180 8176 8175 8173 8177 8172 8176 8177 8173 8177 8171 8176 8177 8174 8177 8174 8179 8177 
8202 8191 8188 8194 8193 8189 8196 8196 8193 8183 8177 8192 8192 8187 8192 8190 8193 8188 8193 8187 8196 8193 8193 8177 8189 8182 8183 8178 8183 8189 8183 8174 8188 8184 8185 8186 8188 8187 8185 8185 8185 8185 8179 8185 8187 8184 8179 8178 8179 8190 8182 8187 8180 8179 8184 8173 8181 8180 8176 8177 8178 8181 8181 8177 8177 8170 8177 8171 8173 8172 8175 8173 8172 8174 8172 8179 8177 8172 8180 8179 
8205 8196 8196 8196 8192 8189 8195 8188 8192 8181 8188 8195 8194 8186 8189 8188 8190 8182 8194 8191 8191 8188 8194 8181 8192 8180 8190 8180 8179 8188 8179 8179 8183 8190 8187 8183 8184 8186 8179 8182 8184 8181 8188 8181 8187 8191 8190 8187 8183 8182 8175 8186 8184 8181 8181 8175 8177 8182 8179 8179 8180 8180 8180 8172 8178 8175 8176 8165 8167 8167 8171 8176 8176 8181 8178 8182 8178 8177 8180 8179 
8196 8192 8196 8197 8193 8188 8198 8187 8193 8189 8190 8200 8195 8187 8190 8192 8179 8183 8185 8182 8186 8188 8195 8186 8185 8190 8190 8188 8192 8187 8183 8184 8181 8186 8186 8184 8187 8184 8179 8180 8173 8182 8185 8182 8186 8193 8181 8176 8184 8180 8179 8183 8185 8183 8175 8183 8176 8184 8181 8177 8172 8176 8173 8172 8175 8171 8173 8177 8172 8172 8175 8177 8178 8181 8183 8180 8182 8183 8178 8175 
8195 8194 8192 8195 8194 8192 8190 8193 8190 8188 8190 8192 8190 8184 8187 8183 8188 8181 8184 8188 8188 8180 8184 8192 8191 8188 8188 8187 8187 8181 8187 8186 8184 8181 8176 8182 8183 8184 8179 8182 8174 8181 8184 8179 8180 8173 8181 8173 8181 8178 8179 8175 8180 8183 8172 8180 8177 8180 8175 8170 8172 8173 8172 8171 8175 8172 8177 8176 8173 8169 8167 8174 8176 8176 8180 8183 8182 8181 8179 8184 
8196 8197 8206 8193 8194 8192 8196 8189 8192 8192 8193 8186 8189 8183 8182 8179 8183 8182 8190 8180 8187 8177 8186 8190 8182 8180 8185 8187 8190 8183 8187 8184 8186 8173 8183 8187 8185 8183 8187 8184 8177 8175 8181 8179 8176 8182 8173 8181 8173 8177 8177 8176 8180 8177 8178 8176 8178 8178 8183 8173 8169 8171 8172 8168 8173 8171 8177 8178 8173 8171 8168 8167 8170 8176 8180 8178 8181 8175 8181 8180 
8189 8194 8208 8184 8195 8200 8189 8195 8192 8189 8185 8190 8183 8178 8193 8185 8182 8190 8196 8192 8191 8187 8188 8193 8183 8186 8190 8188 8183 8191 8185 8182 8184 8176 8182 8189 8186 8175 8183 8181 8177 8183 8189 8181 8182 8179 8174 8175 8178 8176 8179 8178 8175 8180 8178 8182 8174 8173 8178 8179 8172 8175 8172 8173 8177 8174 8175 8170 8173 8171 8177 8168 8171 8177 8180 8177 8177 8177 8181 8183 
8193 8190 8198 8185 8192 8192 8180 8188 8192 8190 8183 8189 8190 8186 8197 8197 8188 8190 8191 8191 8192 8184 8187 8184 8192 8189 8188 8190 8188 8187 8179 8186 8185 8182 8189 8190 8191 8183 8174 8181 8180 8182 8188 8175 8179 8173 8175 8178 8175 8181 8181 8177 8173 8179 8182 8181 8173 8173 8174 8176 8173 8179 8174 8181 8178 8177 8174 8167 8174 8171 8173 8177 8173 8177 8180 8181 8181 8187 8183 8180 
8195 8190 8190 8185 8185 8192 8185 8190 8191 8193 8190 8191 8187 8192 8183 8187 8186 8194 8184 8177 8192 8184 8189 8191 8188 8187 8181 8186 8185 8184 8184 8186 8185 8180 8186 8189 8187 8188 8178 8180 8180 8181 8185 8181 8178 8187 8175 8174 8179 8181 8180 8178 8171 8179 8179 8179 8170 8174 8175 8174 8174 8180 8177 8177 8181 8175 8180 8167 8174 8172 8170 8177 8175 8175 8179 8181 8185 8185 8186 8181 
8195 8194 8194 8190 8193 8188 8188 8192 8192 8192 8184 8192 8196 8197 8178 8184 8181 8183 8181 8184 8187 8179 8181 8190 8192 8184 8181 8187 8190 8180 8179 8185 8186 8183 8184 8184 8183 8184 8181 8182 8184 8179 8175 8184 8185 8188 8181 8179 8177 8172 8180 8177 8185 8184 8184 8177 8176 8175 8176 8185 8186 8181 8178 8181 8179 8179 8171 8169 8170 8174 8175 8177 8178 8177 8179 8177 8181 8185 8185 8180 
8197 8198 8192 8180 8190 8184 8189 8177 8192 8190 8188 8189 8190 8190 8184 8185 8186 8194 8180 8188 8185 8179 8185 8186 8182 8196 8179 8181 8182 8185 8185 8180 8189 8179 8175 8174 8176 8180 8180 8181 8174 8185 8176 8183 8181 8180 8184 8178 8175 8171 8177 8170 8174 8178 8181 8177 8176 8173 8179 8176 8178 8178 8180 8184 8180 8178 8173 8176 8178 8176 8175 8174 8178 8174 8171 8176 8179 8177 8183 8181 
8198 8191 8187 8190 8191 8187 8189 8186 8186 8185 8185 8184 8194 8190 8188 8193 8193 8184 8185 8186 8186 8186 8188 8187 8183 8191 8192 8184 8183 8185 8185 8179 8183 8184 8187 8184 8177 8174 8178 8174 8181 8178 8180 8183 8176 8180 8181 8181 8175 8173 8178 8174 8176 8173 8180 8178 8180 8172 8181 8179 8179 8180 8173 8181 8179 8178 8180 8178 8178 8179 8175 8172 8179 8175 8172 8172 8175 8175 8182 8181 
8201 8200 8181 8193 8189 8192 8194 8189 8184 8185 8184 8195 8191 8189 8187 8193 8192 8187 8188 8179 8192 8189 8188 8187 8182 8185 8182 8178 8180 8187 8182 8181 8184 8181 8182 8185 8177 8178 8177 8171 8180 8176 8173 8182 8181 8187 8175 8181 8176 8175 8178 8176 8177 8175 8174 8180 8177 8178 8181 8178 8177 8180 8173 8178 8177 8177 8177 8176 8178 8177 8177 8175 8179 8179 8175 8174 8175 8178 8187 8180 
8193 8201 8191 8193 8189 8185 8189 8191 8201 8200 8196 8189 8193 8174 8189 8197 8195 8185 8184 8185 8194 8181 8184 8191 8191 8187 8180 8178 8181 8186 8186 8186 8186 8188 8185 8185 8178 8175 8171 8173 8184 8191 8181 8183 8181 8176 8179 8179 8178 8180 8182 8176 8180 8178 8179 8179 8176 8182 8180 8175 8177 8177 8177 8181 8177 8180 8177 8174 8178 8173 8173 8178 8175 8177 8183 8181 8178 8178 8183 8182 
8199 8186 8198 8195 8191 8195 8196 8191 8198 8184 8190 8190 8193 8180 8190 8189 8188 8183 8185 8183 8189 8183 8187 8181 8193 8190 8183 8183 8180 8185 8189 8183 8189 8186 8189 8183 8187 8185 8177 8179 8188 8187 8187 8182 8175 8176 8181 8178 8174 8184 8179 8181 8181 8180 8179 8177 8177 8179 8175 8171 8175 8182 8177 8180 8175 8178 8178 8173 8179 8174 8178 8175 8178 8175 8180 8181 8175 8176 8181 8180 
8198 8185 8195 8192 8188 8197 8200 8188 8193 8188 8194 8193 8192 8192 8181 8189 8188 8186 8194 8184 8180 8189 8190 8187 8187 8188 8189 8187 8176 8181 8189 8187 8192 8183 8189 8185 8186 8184 8174 8182 8183 8188 8177 8183 8176 8184 8175 8182 8175 8172 8180 8185 8182 8178 8174 8174 8180 8181 8179 8173 8177 8178 8178 8178 8173 8174 8174 8176 8180 8179 8176 8178 8181 8182 8179 8179 8181 8177 8180 8179 
8199 8185 8188 8186 8194 8185 8197 8185 8188 8192 8191 8186 8190 8195 8186 8192 8187 8185 8191 8175 8184 8185 8185 8187 8181 8183 8182 8178 8183 8186 8191 8188 8186 8189 8190 8186 8183 8190 8182 8187 8186 8188 8186 8173 8180 8179 8183 8179 8181 8178 8179 8183 8182 8181 8168 8182 8182 8177 8175 8173 8178 8178 8175 8172 8169 8172 8177 8176 8181 8184 8178 8180 8183 8184 8179 8175 8176 8171 8178 8178 
8195 8190 8188 8192 8189 8189 8187 8200 8180 8185 8192 8191 8195 8194 8188 8183 8185 8188 8193 8181 8182 8180 8193 8189 8177 8190 8186 8181 8184 8191 8181 8193 8186 8181 8189 8182 8182 8188 8192 8190 8184 8183 8183 8176 8180 8179 8176 8181 8183 8175 8180 8180 8183 8182 8177 8179 8181 8180 8174 8181 8181 8179 8177 8167 8169 8174 8181 8176 8183 8180 8184 8182 8178 8176 8183 8179 8179 8178 8180 8180 
8192 8184 8192 8195 8192 8182 8184 8195 8193 8186 8179 8185 8182 8189 8194 8175 8183 8188 8185 8185 8179 8186 8186 8185 8185 8189 8187 8184 8183 8176 8186 8187 8182 8181 8188 8182 8184 8179 8179 8185 8177 8179 8173 8183 8181 8180 8181 8177 8174 8176 8175 8186 8169 8183 8185 8178 8180 8187 8186 8184 8185 8182 8181 8171 8172 8178 8175 8176 8183 8177 8183 8184 8180 8184 8183 8179 8170 8169 8182 8177 
8185 8188 8193 8191 8194 8195 8194 8195 8180 8189 8181 8186 8182 8196 8191 8187 8188 8192 8186 8178 8184 8183 8186 8188 8191 8183 8184 8182 8175 8175 8185 8176 8175 8181 8180 8178 8179 8180 8177 8177 8179 8180 8172 8181 8180 8181 8182 8174 8181 8181 8183 8185 8178 8170 8186 8179 8182 8184 8185 8181 8183 8182 8181 8176 8178 8178 8171 8179 8183 8179 8181 8187 8182 8181 8176 8175 8172 8166 8181 8177 
8183 8187 8184 8189 8183 8180 8189 8190 8179 8190 8181 8189 8186 8196 8189 8187 8188 8184 8189 8186 8182 8184 8179 8186 8192 8182 8183 8178 8176 8174 8174 8168 8173 8178 8178 8173 8178 8181 8179 8178 8179 8177 8182 8176 8181 8184 8171 8180 8183 8181 8179 8184 8176 8175 8182 8181 8183 8178 8182 8184 8183 8180 8177 8177 8181 8175 8177 8173 8180 8181 8184 8181 8180 8181 8175 8178 8170 8171 8179 8180 
8162 8167 8169 8175 8173 8173 8182 8178 8171 8185 8188 8182 8196 8188 8186 8187 8189 8187 8176 8179 8189 8185 8179 8181 8181 8160 8177 8176 8175 8176 8168 8172 8180 8167 8181 8175 8175 8182 8177 8180 8183 8185 8178 8180 8180 8183 8167 8179 8186 8182 8182 8181 8182 8182 8181 8182 8183 8182 8183 8183 8177 8176 8177 8177 8181 8178 8175 8176 8181 8179 8181 8183 8182 8177 8178 8173 8167 8170 8174 8176 
8157 8153 8160 8150 8151 8158 8171 8154 8161 8171 8178 8172 8179 8180 8181 8177 8175 8188 8177 8181 8188 8179 8178 8180 8181 8163 8150 8174 8179 8184 8181 8168 8178 8171 8173 8181 8178 8179 8177 8185 8182 8187 8178 8177 8180 8173 8178 8175 8181 8180 8178 8180 8171 8175 8181 8181 8178 8181 8178 8180 8176 8176 8178 8180 8174 8182 8181 8185 8181 8180 8183 8182 8179 8177 8173 8169 8173 8169 8173 8171 
8161 8166 8171 8148 8162 8156 8162 8147 8158 8160 8169 8163 8162 8170 8175 8183 8178 8186 8180 8182 8179 8180 8174 8178 8188 8180 8186 8183 8185 8182 8178 8185 8180 8179 8167 8174 8178 8174 8181 8188 8186 8177 8172 8178 8176 8171 8174 8174 8173 8168 8175 8177 8171 8166 8176 8174 8176 8177 8177 8177 8174 8175 8178 8175 8177 8178 8181 8183 8182 8181 8179 8177 8171 8169 8170 8173 8174 8163 8169 8167 
8166 8159 8154 8155 8153 8139 8142 8156 8163 8160 8169 8170 8164 8183 8180 8169 8168 8177 8179 8173 8184 8171 8173 8176 8189 8186 8192 8188 8182 8187 8190 8174 8174 8188 8175 8185 8186 8193 8183 8194 8188 8182 8177 8170 8173 8165 8172 8169 8170 8171 8167 8168 8166 8170 8169 8173 8177 8176 8178 8177 8174 8174 8174 8175 8176 8177 8180 8185 8181 8182 8177 8177 8177 8169 8172 8174 8174 8162 8169 8165 
8182 8176 8164 8154 8148 8142 8148 8159 8156 8156 8157 8160 8164 8177 8170 8167 8161 8170 8171 8176 8179 8171 8168 8170 8185 8196 8197 8201 8198 8200 8189 8188 8185 8191 8194 8193 8191 8192 8198 8200 8193 8187 8178 8174 8167 8167 8163 8168 8166 8166 8164 8164 8165 8166 8169 8170 8172 8170 8175 8176 8177 8172 8174 8174 8177 8176 8180 8183 8178 8180 8174 8175 8173 8172 8173 8174 8171 8164 8165 8168 


