P2
80 60
8301
8142 8148 8147 8146 8151 8149 8152 8149 8153 8157 8161 8161 8161 8163 8161 8163 8167 8172 8172 8171 8170 8171 8170 8174 8171 8171 8171 8171 8172 8175 8174 8171 8174 8177 8182 8182 8191 8184 8188 8187 8187 8187 8190 8192 8188 8194 8192 8195 8191 8195 8193 8191 8193 8194 8199 8203 8202 8205 8208 8214 8215 8212 8214 8216 8217 8218 8216 8215 8217 8218 8220 8218 8217 8219 8219 8222 8222 8213 8213 8211 
8147 8145 8146 8147 8148 8151 8150 8149 8152 8156 8159 8159 8160 8163 8161 8163 8166 8169 8167 8171 8168 8170 8170 8174 8169 8169 8171 8169 8171 8173 8174 8171 8173 8178 8183 8181 8189 8185 8189 8189 8192 8186 8190 8192 8186 8192 8191 8193 8193 8197 8195 8196 8192 8196 8197 8202 8202 8204 8207 8214 8213 8213 8215 8214 8216 8220 8217 8219 8216 8220 8218 8219 8219 8221 8220 8216 8216 8211 8209 8205 
8144 8148 8146 8147 8149 8145 8154 8154 8155 8156 8159 8162 8162 8163 8162 8163 8167 8167 8169 8169 8168 8168 8173 8174 8168 8168 8170 8170 8172 8176 8175 8173 8176 8176 8180 8184 8184 8185 8190 8191 8191 8190 8191 8190 8188 8190 8192 8194 8192 8195 8199 8194 8192 8195 8200 8199 8201 8205 8205 8210 8208 8211 8213 8215 8213 8218 8216 8219 8215 8218 8218 8219 8218 8217 8216 8219 8217 8208 8210 8205 
8141 8144 8148 8143 8149 8148 8153 8151 8156 8157 8157 8157 8161 8162 8162 8162 8165 8165 8165 8166 8170 8168 8174 8169 8167 8168 8167 8169 8170 8175 8176 8172 8175 8178 8179 8182 8185 8183 8188 8186 8191 8190 8191 8191 8186 8189 8188 8191 8193 8194 8194 8193 8192 8198 8196 8198 8199 8202 8204 8204 8206 8205 8211 8214 8213 8216 8215 8216 8214 8220 8221 8215 8217 8215 8213 8214 8211 8206 8205 8201 
8142 8145 8144 8146 8147 8147 8153 8152 8151 8156 8158 8158 8158 8162 8164 8160 8164 8165 8165 8164 8167 8166 8172 8167 8167 8167 8168 8170 8169 8172 8170 8172 8174 8174 8180 8180 8186 8184 8187 8187 8191 8191 8187 8189 8186 8191 8189 8191 8190 8192 8193 8193 8189 8193 8195 8195 8194 8201 8206 8204 8205 8204 8207 8214 8210 8212 8212 8219 8216 8219 8215 8212 8213 8214 8212 8209 8211 8204 8207 8197 
8141 8142 8142 8141 8147 8147 8151 8151 8155 8158 8161 8159 8159 8159 8159 8158 8162 8163 8160 8164 8165 8166 8168 8167 8165 8167 8167 8167 8170 8171 8173 8172 8174 8175 8177 8181 8183 8185 8186 8188 8190 8189 8187 8187 8184 8190 8187 8191 8188 8189 8191 8192 8189 8192 8193 8193 8196 8200 8203 8203 8203 8204 8204 8210 8210 8212 8217 8215 8214 8217 8214 8212 8211 8212 8210 8209 8208 8202 8205 8205 
8141 8144 8143 8142 8146 8148 8152 8150 8153 8154 8158 8158 8157 8159 8155 8157 8160 8159 8163 8161 8163 8164 8167 8164 8165 8166 8165 8167 8170 8171 8172 8168 8172 8175 8176 8177 8185 8181 8185 8186 8189 8188 8188 8187 8187 8188 8188 8188 8189 8189 8192 8190 8191 8193 8193 8192 8196 8194 8201 8202 8204 8201 8207 8208 8208 8213 8213 8214 8215 8216 8215 8215 8210 8209 8207 8207 8208 8201 8203 8201 
8139 8141 8141 8138 8143 8146 8151 8153 8151 8152 8157 8152 8155 8156 8158 8155 8160 8163 8161 8164 8162 8162 8165 8165 8162 8165 8164 8166 8167 8172 8171 8170 8173 8172 8177 8177 8182 8181 8184 8182 8189 8187 8189 8187 8185 8186 8187 8188 8187 8189 8189 8189 8188 8191 8194 8192 8195 8193 8200 8203 8201 8203 8205 8207 8206 8207 8210 8212 8213 8214 8210 8211 8209 8208 8203 8205 8205 8197 8198 8195 
8138 8139 8142 8141 8143 8146 8150 8148 8149 8153 8153 8149 8153 8154 8154 8155 8158 8158 8160 8163 8166 8159 8164 8162 8161 8164 8165 8164 8167 8168 8168 8168 8170 8171 8177 8176 8178 8182 8184 8183 8185 8184 8187 8187 8184 8186 8185 8189 8187 8191 8190 8189 8187 8189 8192 8192 8192 8194 8200 8202 8203 8202 8205 8208 8203 8209 8206 8208 8211 8211 8209 8210 8208 8209 8203 8204 8206 8197 8197 8191 
8138 8140 8139 8140 8142 8144 8147 8149 8148 8150 8153 8149 8151 8152 8154 8157 8158 8161 8159 8163 8164 8159 8163 8163 8162 8161 8162 8163 8163 8169 8168 8166 8172 8170 8177 8175 8180 8181 8185 8184 8184 8186 8182 8185 8183 8183 8184 8185 8186 8187 8188 8187 8185 8186 8189 8190 8193 8192 8200 8203 8202 8201 8202 8204 8203 8204 8207 8210 8207 8210 8204 8206 8205 8204 8200 8202 8203 8195 8196 8189 
8136 8137 8139 8139 8143 8142 8146 8146 8149 8149 8149 8149 8153 8155 8155 8155 8158 8158 8160 8162 8162 8158 8162 8163 8163 8160 8161 8164 8166 8170 8169 8167 8169 8170 8174 8173 8179 8181 8181 8181 8185 8184 8187 8185 8181 8181 8181 8187 8186 8186 8188 8187 8183 8187 8191 8190 8192 8193 8198 8197 8202 8199 8203 8203 8203 8202 8205 8205 8206 8207 8204 8202 8203 8201 8200 8198 8202 8195 8195 8191 
8135 8139 8140 8143 8143 8143 8147 8145 8145 8146 8151 8148 8155 8155 8153 8153 8156 8156 8158 8162 8157 8159 8163 8161 8159 8162 8161 8165 8165 8165 8170 8166 8171 8170 8173 8176 8179 8180 8181 8182 8183 8183 8185 8184 8180 8181 8184 8186 8182 8186 8186 8188 8183 8187 8187 8188 8189 8191 8195 8198 8196 8197 8196 8199 8199 8201 8199 8202 8200 8203 8202 8201 8200 8199 8196 8197 8196 8190 8192 8186 
8135 8138 8139 8139 8138 8141 8145 8141 8145 8150 8150 8150 8153 8155 8154 8151 8155 8156 8157 8158 8158 8157 8161 8159 8159 8161 8163 8162 8165 8167 8165 8166 8167 8169 8172 8175 8176 8174 8178 8176 8180 8180 8180 8180 8179 8183 8182 8185 8187 8185 8184 8186 8184 8184 8185 8187 8187 8187 8192 8192 8192 8191 8196 8195 8196 8197 8196 8195 8196 8199 8198 8199 8197 8195 8196 8197 8194 8188 8189 8188 
8135 8138 8137 8137 8144 8140 8145 8142 8146 8148 8151 8151 8152 8156 8154 8154 8156 8155 8156 8160 8162 8158 8162 8158 8160 8161 8163 8166 8164 8167 8169 8163 8169 8171 8172 8173 8178 8177 8175 8178 8177 8179 8178 8179 8180 8183 8183 8184 8183 8186 8185 8187 8182 8187 8186 8185 8186 8187 8189 8189 8191 8191 8194 8196 8192 8196 8193 8197 8195 8197 8197 8194 8194 8194 8191 8194 8194 8187 8191 8186 
8133 8137 8137 8140 8143 8140 8149 8141 8146 8148 8150 8151 8153 8156 8154 8154 8157 8159 8159 8161 8160 8159 8161 8161 8157 8162 8162 8164 8165 8167 8167 8162 8168 8167 8172 8173 8176 8176 8177 8178 8178 8179 8179 8179 8178 8182 8184 8182 8182 8186 8184 8186 8181 8183 8185 8182 8185 8184 8188 8189 8190 8186 8192 8192 8193 8194 8194 8194 8194 8196 8195 8194 8193 8192 8193 8188 8194 8189 8187 8182 
8138 8140 8139 8137 8140 8141 8144 8143 8145 8149 8150 8152 8152 8158 8156 8155 8155 8156 8159 8160 8159 8158 8159 8160 8158 8162 8161 8160 8164 8166 8165 8165 8165 8169 8171 8171 8176 8175 8179 8176 8179 8177 8180 8177 8176 8181 8182 8183 8180 8184 8185 8185 8178 8182 8182 8180 8184 8185 8186 8186 8187 8188 8189 8192 8190 8193 8190 8195 8193 8193 8192 8190 8192 8192 8187 8193 8189 8187 8185 8188 
8137 8139 8139 8141 8140 8140 8146 8142 8146 8149 8150 8149 8154 8156 8156 8157 8157 8159 8160 8160 8163 8162 8164 8162 8161 8161 8162 8162 8161 8165 8165 8163 8170 8169 8171 8171 8173 8175 8177 8176 8177 8177 8178 8179 8176 8178 8179 8180 8179 8183 8184 8183 8176 8181 8180 8179 8181 8178 8184 8182 8184 8185 8187 8186 8188 8192 8191 8192 8187 8192 8192 8190 8190 8189 8187 8189 8189 8184 8184 8181 
8137 8139 8137 8138 8140 8142 8146 8147 8147 8148 8150 8150 8154 8158 8157 8157 8158 8159 8161 8160 8160 8160 8162 8158 8159 8160 8162 8162 8163 8167 8164 8164 8165 8169 8170 8171 8175 8171 8175 8174 8176 8175 8179 8177 8177 8179 8178 8178 8181 8180 8182 8179 8176 8178 8179 8180 8179 8177 8183 8180 8186 8184 8186 8188 8189 8191 8189 8189 8190 8189 8187 8188 8190 8188 8187 8186 8189 8180 8184 8181 
8136 8136 8139 8139 8141 8142 8147 8146 8149 8150 8150 8150 8157 8156 8154 8159 8159 8161 8162 8161 8161 8161 8160 8161 8159 8161 8161 8159 8162 8162 8166 8164 8166 8167 8170 8171 8173 8171 8172 8174 8173 8172 8174 8175 8172 8177 8177 8176 8175 8176 8179 8180 8175 8174 8174 8175 8178 8175 8180 8181 8181 8179 8185 8187 8186 8189 8189 8188 8187 8192 8187 8185 8190 8185 8186 8189 8185 8184 8182 8182 
8137 8137 8140 8138 8141 8140 8147 8145 8145 8149 8152 8154 8155 8156 8156 8155 8159 8159 8161 8163 8163 8159 8161 8157 8158 8160 8161 8161 8162 8164 8163 8162 8167 8170 8172 8169 8172 8170 8172 8173 8174 8170 8174 8173 8171 8177 8174 8175 8173 8174 8179 8175 8173 8173 8173 8175 8177 8177 8179 8178 8182 8183 8182 8184 8184 8189 8188 8188 8189 8188 8186 8185 8184 8186 8182 8183 8184 8181 8180 8177 
8137 8139 8141 8141 8141 8141 8149 8142 8149 8151 8154 8155 8156 8156 8156 8157 8158 8158 8161 8163 8163 8160 8165 8159 8158 8160 8161 8160 8163 8165 8166 8163 8164 8167 8170 8169 8171 8169 8172 8170 8172 8172 8176 8174 8171 8176 8174 8173 8173 8173 8177 8174 8169 8172 8174 8171 8175 8174 8179 8179 8182 8183 8181 8186 8186 8188 8189 8187 8186 8187 8187 8186 8185 8183 8183 8184 8187 8179 8178 8181 
8136 8138 8140 8142 8139 8140 8144 8146 8148 8146 8154 8154 8156 8155 8155 8156 8157 8161 8160 8161 8162 8159 8162 8160 8159 8161 8160 8158 8159 8163 8165 8162 8165 8170 8171 8170 8173 8172 8170 8170 8173 8171 8173 8172 8173 8172 8171 8173 8170 8175 8175 8174 8172 8170 8174 8173 8174 8173 8177 8180 8180 8185 8186 8188 8185 8188 8185 8188 8185 8186 8185 8182 8187 8181 8181 8184 8186 8178 8180 8176 
8139 8140 8142 8140 8143 8143 8145 8143 8146 8150 8153 8150 8155 8159 8153 8154 8159 8156 8159 8161 8162 8159 8160 8160 8157 8159 8158 8158 8160 8162 8163 8163 8168 8167 8170 8169 8173 8172 8171 8168 8171 8171 8169 8170 8170 8173 8170 8171 8171 8172 8174 8173 8172 8173 8173 8173 8174 8174 8179 8182 8183 8179 8183 8182 8185 8186 8185 8185 8182 8187 8184 8183 8184 8181 8180 8186 8185 8180 8183 8181 
8136 8139 8141 8137 8140 8141 8141 8145 8147 8150 8155 8153 8156 8156 8157 8155 8161 8160 8161 8160 8159 8158 8164 8160 8157 8159 8160 8158 8160 8166 8163 8163 8167 8170 8168 8168 8174 8170 8170 8167 8169 8168 8167 8172 8167 8167 8169 8170 8172 8172 8172 8173 8169 8169 8172 8172 8174 8178 8179 8182 8182 8184 8181 8185 8182 8186 8184 8184 8182 8188 8180 8183 8184 8184 8182 8185 8185 8178 8181 8176 
8134 8137 8139 8139 8140 8141 8145 8143 8146 8153 8156 8152 8155 8157 8155 8156 8161 8159 8159 8160 8163 8161 8163 8160 8158 8158 8161 8162 8160 8163 8164 8164 8165 8168 8169 8167 8170 8168 8169 8171 8169 8163 8167 8169 8167 8168 8169 8168 8170 8169 8173 8172 8169 8171 8170 8174 8175 8176 8178 8179 8181 8176 8181 8180 8181 8184 8183 8182 8181 8184 8183 8181 8182 8184 8180 8185 8185 8178 8182 8180 
8133 8136 8140 8141 8143 8141 8144 8147 8146 8149 8154 8153 8155 8156 8155 8156 8161 8161 8159 8161 8164 8162 8162 8162 8159 8158 8162 8163 8162 8162 8166 8164 8160 8155 8162 8163 8162 8165 8168 8166 8169 8165 8163 8167 8165 8168 8165 8166 8167 8160 8154 8153 8165 8171 8169 8174 8175 8173 8178 8179 8179 8176 8177 8178 8179 8182 8179 8182 8181 8182 8178 8178 8180 8178 8182 8184 8183 8177 8180 8176 
8136 8138 8138 8138 8141 8143 8144 8142 8149 8151 8154 8153 8154 8156 8157 8155 8163 8161 8161 8161 8161 8159 8160 8157 8154 8160 8160 8161 8164 8164 8164 8159 8164 8160 8146 8119 8111 8116 8156 8164 8152 8162 8160 8160 8156 8162 8166 8169 8163 8147 8147 8143 8160 8167 8174 8177 8174 8174 8178 8178 8174 8170 8172 8175 8172 8177 8177 8176 8176 8177 8176 8177 8179 8176 8176 8179 8184 8175 8178 8172 
8135 8135 8138 8139 8141 8142 8147 8144 8148 8154 8152 8154 8156 8160 8157 8159 8161 8161 8160 8164 8160 8157 8157 8156 8155 8156 8161 8163 8164 8164 8164 8163 8161 8163 8167 8159 8137 8116 8121 8133 8117 8116 8097 8083 8110 8151 8164 8167 8163 8146 8148 8144 8162 8172 8174 8173 8176 8175 8173 8172 8172 8169 8170 8170 8169 8172 8172 8173 8169 8171 8173 8172 8174 8174 8173 8176 8180 8172 8173 8172 
8136 8137 8139 8142 8142 8142 8145 8147 8149 8152 8154 8152 8155 8158 8160 8158 8159 8162 8161 8165 8157 8156 8162 8161 8161 8160 8163 8160 8164 8166 8160 8161 8168 8164 8167 8161 8153 8119 8096 8104 8119 8091 8083 8077 8081 8152 8165 8165 8164 8145 8150 8146 8164 8169 8172 8170 8173 8173 8175 8175 8173 8167 8172 8170 8167 8170 8171 8168 8168 8167 8167 8167 8170 8169 8168 8173 8175 8172 8169 8171 
8136 8139 8139 8144 8143 8144 8149 8148 8151 8153 8156 8156 8156 8160 8158 8159 8163 8163 8161 8163 8158 8157 8161 8159 8162 8161 8160 8160 8159 8164 8163 8163 8161 8165 8159 8139 8124 8089 8086 8089 8092 8105 8113 8117 8127 8155 8164 8167 8163 8148 8154 8149 8167 8171 8173 8171 8172 8173 8177 8175 8172 8168 8170 8169 8167 8173 8168 8167 8167 8168 8167 8168 8170 8169 8168 8171 8174 8168 8169 8168 
8138 8142 8144 8144 8149 8148 8151 8151 8152 8154 8157 8156 8160 8162 8160 8159 8163 8164 8164 8160 8162 8158 8164 8163 8162 8164 8161 8160 8161 8163 8163 8161 8162 8160 8157 8147 8122 8074 8077 8081 8088 8114 8134 8129 8134 8151 8161 8165 8163 8150 8157 8152 8171 8169 8173 8173 8172 8174 8176 8175 8170 8169 8169 8172 8166 8170 8169 8165 8167 8166 8168 8168 8170 8166 8168 8169 8173 8168 8168 8167 
8140 8142 8146 8147 8149 8148 8154 8152 8153 8157 8158 8156 8159 8162 8158 8158 8161 8168 8169 8163 8162 8159 8161 8162 8158 8163 8161 8161 8162 8163 8161 8161 8161 8163 8146 8133 8135 8095 8067 8081 8118 8128 8158 8163 8160 8165 8164 8168 8162 8154 8156 8156 8168 8171 8172 8171 8171 8173 8174 8172 8173 8167 8168 8169 8168 8172 8167 8167 8166 8167 8168 8167 8168 8165 8169 8167 8171 8168 8170 8172 
8141 8145 8145 8147 8145 8148 8154 8154 8153 8158 8159 8159 8159 8161 8158 8160 8164 8167 8162 8164 8160 8159 8163 8164 8163 8164 8162 8159 8160 8161 8163 8160 8161 8160 8161 8157 8160 8110 8070 8099 8143 8153 8162 8166 8168 8168 8168 8169 8161 8154 8157 8159 8169 8171 8172 8172 8174 8174 8176 8173 8173 8169 8168 8169 8170 8169 8168 8170 8166 8167 8165 8165 8169 8167 8167 8170 8171 8170 8168 8165 
8144 8147 8147 8149 8150 8152 8153 8152 8157 8158 8162 8159 8159 8160 8160 8158 8162 8166 8164 8164 8161 8164 8165 8162 8160 8163 8162 8161 8162 8162 8159 8160 8161 8160 8158 8155 8155 8132 8099 8122 8140 8150 8159 8166 8166 8166 8167 8170 8161 8157 8160 8163 8170 8173 8174 8175 8174 8174 8176 8173 8173 8170 8169 8170 8169 8172 8168 8171 8167 8171 8168 8166 8169 8170 8169 8169 8175 8169 8170 8169 
8142 8145 8149 8150 8152 8150 8155 8153 8157 8159 8162 8161 8160 8159 8162 8162 8165 8166 8164 8164 8164 8163 8164 8161 8161 8160 8158 8161 8159 8155 8138 8130 8132 8129 8131 8112 8113 8090 8098 8106 8118 8108 8144 8162 8164 8165 8167 8167 8163 8161 8160 8164 8174 8175 8173 8174 8175 8174 8174 8176 8171 8168 8170 8168 8169 8172 8169 8169 8169 8169 8167 8169 8170 8169 8168 8173 8170 8168 8168 8163 
8148 8146 8151 8151 8152 8154 8157 8156 8160 8162 8165 8161 8161 8161 8161 8161 8165 8162 8163 8165 8164 8163 8167 8161 8161 8160 8160 8156 8131 8097 8088 8083 8092 8096 8102 8097 8097 8096 8095 8109 8109 8104 8112 8142 8162 8168 8166 8168 8164 8164 8168 8170 8173 8173 8177 8175 8178 8177 8176 8175 8172 8169 8170 8171 8166 8171 8168 8169 8166 8172 8165 8168 8169 8171 8171 8172 8173 8168 8168 8166 
8152 8151 8152 8152 8153 8156 8157 8156 8159 8158 8165 8158 8159 8163 8162 8161 8163 8165 8164 8165 8166 8162 8163 8160 8161 8160 8159 8126 8085 8087 8113 8103 8096 8108 8099 8096 8106 8104 8119 8104 8105 8105 8111 8113 8129 8166 8170 8172 8166 8168 8168 8171 8176 8176 8178 8178 8179 8179 8178 8176 8171 8171 8173 8171 8167 8170 8168 8170 8169 8177 8170 8171 8172 8170 8170 8170 8175 8167 8166 8167 
8150 8155 8154 8155 8155 8154 8157 8156 8158 8158 8166 8158 8160 8161 8160 8160 8165 8162 8162 8166 8164 8162 8163 8159 8161 8159 8143 8098 8092 8113 8151 8121 8122 8105 8111 8107 8113 8143 8138 8121 8107 8105 8108 8108 8110 8155 8168 8172 8167 8169 8168 8172 8176 8176 8177 8176 8182 8180 8179 8175 8172 8168 8170 8171 8166 8169 8166 8170 8168 8173 8171 8170 8172 8168 8170 8169 8174 8165 8166 8163 
8153 8154 8155 8155 8154 8154 8160 8157 8157 8157 8158 8159 8158 8160 8159 8159 8162 8164 8161 8163 8162 8156 8163 8161 8159 8159 8154 8105 8122 8157 8158 8152 8128 8142 8148 8138 8153 8167 8160 8130 8111 8104 8116 8108 8104 8115 8140 8171 8165 8173 8169 8176 8175 8178 8179 8179 8180 8179 8178 8175 8174 8169 8169 8169 8166 8169 8167 8167 8170 8170 8172 8170 8170 8171 8169 8171 8173 8164 8166 8161 
8154 8158 8159 8155 8157 8159 8161 8156 8158 8159 8157 8157 8157 8159 8159 8160 8162 8161 8162 8163 8163 8164 8165 8163 8160 8160 8158 8102 8150 8164 8162 8160 8132 8151 8167 8167 8170 8165 8161 8135 8128 8119 8136 8103 8104 8108 8109 8153 8165 8177 8173 8179 8178 8179 8179 8181 8180 8180 8180 8178 8174 8169 8168 8171 8167 8168 8167 8169 8166 8174 8169 8169 8174 8170 8169 8173 8170 8169 8167 8163 
8154 8154 8158 8155 8157 8157 8160 8156 8159 8159 8157 8156 8157 8159 8160 8158 8160 8160 8163 8163 8162 8161 8165 8167 8160 8166 8165 8138 8166 8174 8170 8169 8163 8171 8172 8172 8152 8129 8134 8120 8145 8160 8160 8140 8124 8125 8106 8125 8165 8182 8181 8180 8178 8180 8182 8182 8181 8181 8177 8177 8171 8169 8171 8168 8169 8168 8169 8169 8169 8169 8171 8171 8173 8174 8168 8168 8173 8166 8167 8163 
8154 8155 8154 8157 8159 8155 8158 8156 8158 8156 8155 8156 8155 8160 8161 8158 8163 8162 8157 8162 8162 8175 8196 8203 8199 8201 8199 8198 8204 8206 8203 8203 8206 8207 8207 8193 8145 8111 8106 8111 8147 8200 8204 8199 8195 8150 8116 8113 8159 8186 8187 8184 8179 8182 8185 8182 8182 8177 8177 8174 8171 8170 8170 8171 8169 8170 8168 8167 8168 8169 8169 8169 8172 8172 8168 8168 8170 8166 8165 8163 
8150 8155 8155 8155 8155 8156 8160 8155 8157 8157 8158 8157 8159 8161 8159 8157 8163 8161 8160 8160 8162 8181 8220 8222 8217 8217 8214 8213 8213 8210 8212 8211 8211 8213 8213 8154 8121 8124 8111 8117 8145 8202 8217 8220 8212 8205 8151 8139 8168 8194 8198 8215 8204 8195 8185 8181 8180 8179 8178 8174 8174 8170 8171 8172 8169 8172 8168 8170 8170 8172 8169 8171 8172 8170 8168 8170 8169 8165 8164 8161 
8153 8154 8156 8153 8154 8155 8155 8156 8157 8158 8160 8157 8160 8160 8160 8158 8160 8163 8159 8159 8163 8173 8221 8237 8240 8242 8243 8235 8235 8233 8231 8228 8232 8234 8200 8152 8172 8164 8138 8139 8158 8214 8231 8233 8235 8229 8216 8188 8188 8207 8219 8234 8234 8211 8183 8181 8180 8177 8178 8176 8173 8170 8170 8174 8172 8171 8168 8167 8168 8171 8170 8169 8172 8168 8167 8168 8167 8166 8164 8165 
8151 8155 8153 8154 8154 8154 8160 8155 8154 8158 8161 8158 8159 8160 8158 8157 8160 8159 8157 8159 8160 8167 8221 8238 8240 8244 8244 8243 8246 8246 8243 8240 8245 8245 8243 8246 8248 8245 8242 8241 8248 8255 8255 8260 8254 8259 8251 8244 8245 8247 8249 8250 8238 8195 8184 8181 8179 8176 8180 8177 8172 8169 8168 8173 8168 8170 8166 8169 8167 8169 8168 8170 8169 8169 8166 8166 8166 8164 8164 8162 
8149 8152 8153 8151 8154 8153 8158 8154 8157 8161 8162 8158 8159 8161 8157 8156 8161 8159 8157 8161 8161 8164 8225 8247 8249 8249 8246 8248 8247 8247 8242 8241 8243 8244 8246 8249 8250 8250 8251 8251 8251 8255 8253 8253 8255 8256 8249 8249 8247 8248 8253 8256 8237 8194 8185 8181 8177 8177 8179 8176 8171 8169 8173 8170 8168 8169 8167 8169 8168 8170 8169 8169 8170 8165 8165 8165 8166 8165 8163 8163 
8150 8154 8155 8154 8152 8157 8158 8156 8156 8156 8160 8158 8156 8159 8158 8158 8160 8161 8158 8162 8157 8163 8191 8249 8265 8267 8268 8261 8263 8259 8255 8251 8253 8253 8256 8257 8257 8259 8263 8259 8262 8266 8265 8263 8257 8260 8254 8257 8257 8258 8262 8265 8238 8190 8183 8180 8180 8180 8178 8177 8171 8172 8171 8171 8169 8169 8167 8168 8168 8166 8167 8168 8170 8168 8165 8167 8170 8164 8168 8162 
8150 8151 8153 8150 8155 8156 8160 8159 8157 8159 8156 8154 8157 8157 8157 8156 8160 8161 8157 8161 8161 8158 8166 8214 8260 8275 8280 8276 8274 8276 8273 8270 8275 8274 8274 8275 8282 8279 8281 8281 8283 8287 8290 8283 8269 8267 8268 8268 8270 8270 8272 8248 8204 8188 8184 8182 8180 8178 8179 8178 8175 8169 8172 8171 8169 8171 8168 8166 8164 8169 8167 8167 8170 8167 8166 8168 8167 8165 8165 8161 
8150 8155 8151 8152 8151 8155 8158 8158 8156 8156 8157 8154 8157 8156 8155 8154 8159 8158 8157 8157 8157 8156 8162 8191 8228 8246 8253 8255 8262 8264 8274 8273 8278 8280 8287 8289 8294 8296 8301 8295 8299 8300 8300 8295 8287 8281 8269 8267 8269 8263 8251 8217 8185 8187 8188 8183 8179 8178 8178 8178 8176 8172 8169 8168 8167 8165 8166 8166 8166 8169 8169 8169 8171 8167 8168 8166 8168 8163 8165 8165 
8150 8155 8157 8149 8153 8153 8159 8158 8155 8155 8157 8156 8156 8155 8155 8155 8154 8157 8156 8160 8157 8155 8160 8179 8213 8224 8239 8241 8245 8245 8246 8249 8258 8259 8262 8264 8268 8267 8270 8274 8275 8277 8273 8272 8263 8253 8248 8245 8243 8245 8234 8202 8184 8187 8188 8184 8183 8181 8178 8180 8178 8171 8174 8171 8165 8167 8164 8167 8165 8168 8167 8168 8167 8167 8167 8167 8168 8165 8165 8168 
8148 8149 8150 8149 8150 8155 8162 8153 8156 8152 8157 8154 8153 8155 8154 8154 8157 8156 8155 8156 8156 8155 8162 8171 8196 8211 8223 8229 8237 8238 8235 8238 8247 8249 8255 8251 8259 8254 8260 8266 8261 8255 8253 8254 8244 8236 8235 8230 8229 8232 8224 8194 8183 8183 8183 8184 8184 8180 8179 8179 8178 8172 8173 8169 8164 8167 8165 8162 8163 8166 8164 8164 8171 8167 8167 8167 8169 8164 8163 8165 
8151 8151 8151 8150 8152 8155 8157 8151 8156 8152 8154 8150 8151 8156 8155 8151 8158 8158 8156 8157 8156 8155 8157 8164 8183 8196 8212 8216 8220 8226 8225 8224 8235 8238 8240 8241 8249 8244 8245 8247 8243 8235 8234 8237 8229 8225 8223 8220 8221 8218 8211 8191 8187 8186 8186 8185 8182 8180 8183 8181 8177 8175 8171 8166 8166 8167 8160 8163 8161 8165 8167 8163 8167 8163 8168 8167 8167 8164 8163 8162 
8148 8147 8147 8146 8152 8150 8154 8151 8152 8152 8151 8150 8150 8151 8152 8152 8156 8156 8155 8159 8159 8156 8158 8162 8173 8185 8197 8197 8206 8205 8206 8208 8215 8217 8223 8226 8229 8225 8224 8225 8225 8215 8210 8215 8212 8211 8209 8207 8208 8203 8198 8189 8188 8188 8184 8184 8180 8181 8181 8177 8175 8175 8172 8168 8166 8167 8161 8162 8158 8161 8163 8163 8167 8163 8161 8166 8166 8162 8163 8161 
8147 8151 8151 8147 8151 8150 8153 8149 8148 8151 8149 8149 8148 8146 8149 8149 8153 8158 8157 8159 8156 8155 8158 8161 8169 8179 8183 8185 8190 8192 8194 8188 8198 8201 8205 8205 8209 8207 8206 8206 8206 8204 8199 8202 8202 8201 8201 8197 8196 8197 8190 8191 8189 8188 8187 8183 8182 8182 8181 8182 8178 8174 8173 8168 8165 8165 8165 8163 8163 8162 8161 8162 8164 8161 8164 8164 8169 8163 8164 8159 
8149 8151 8155 8150 8150 8153 8155 8149 8146 8151 8151 8148 8149 8149 8144 8149 8153 8158 8153 8158 8158 8158 8157 8160 8162 8169 8172 8175 8176 8179 8181 8181 8184 8188 8191 8195 8198 8196 8195 8196 8195 8194 8193 8197 8197 8195 8197 8195 8188 8190 8187 8190 8190 8187 8184 8183 8181 8181 8184 8181 8177 8171 8171 8170 8165 8163 8161 8164 8163 8165 8161 8164 8165 8161 8162 8166 8165 8159 8162 8163 
8151 8153 8151 8146 8148 8150 8151 8147 8147 8149 8152 8147 8147 8147 8147 8150 8155 8157 8158 8159 8159 8156 8157 8155 8161 8164 8166 8170 8168 8170 8170 8173 8173 8175 8177 8179 8182 8183 8187 8183 8184 8185 8189 8194 8194 8196 8190 8190 8184 8184 8179 8185 8181 8185 8184 8182 8178 8177 8181 8176 8174 8172 8169 8167 8165 8167 8165 8164 8164 8167 8165 8163 8169 8163 8162 8166 8164 8162 8162 8163 
8152 8152 8149 8151 8147 8146 8151 8145 8145 8147 8147 8146 8144 8145 8143 8146 8149 8155 8158 8162 8160 8157 8157 8149 8152 8160 8162 8164 8162 8163 8167 8162 8167 8168 8170 8168 8172 8170 8178 8181 8182 8183 8181 8181 8185 8187 8183 8185 8179 8177 8176 8178 8176 8180 8177 8179 8174 8176 8183 8176 8172 8172 8173 8168 8164 8167 8166 8165 8178 8187 8182 8168 8167 8168 8166 8165 8164 8159 8160 8152 
8153 8154 8152 8153 8152 8146 8148 8144 8145 8143 8149 8143 8141 8141 8142 8145 8153 8159 8157 8160 8160 8156 8150 8145 8150 8155 8155 8159 8157 8162 8162 8155 8159 8161 8164 8160 8166 8167 8175 8197 8196 8178 8172 8180 8185 8185 8185 8181 8173 8168 8163 8167 8173 8173 8175 8173 8175 8177 8181 8177 8172 8170 8171 8168 8164 8170 8168 8195 8260 8275 8236 8204 8188 8177 8177 8165 8163 8161 8161 8157 
8159 8155 8154 8152 8146 8146 8145 8141 8141 8145 8146 8141 8140 8142 8143 8145 8152 8160 8158 8163 8160 8152 8146 8144 8149 8153 8152 8155 8154 8160 8158 8154 8152 8153 8159 8163 8162 8162 8168 8176 8178 8166 8167 8166 8165 8173 8176 8173 8167 8165 8160 8162 8176 8178 8176 8178 8174 8179 8179 8179 8172 8171 8169 8170 8168 8174 8175 8200 8257 8273 8272 8260 8230 8194 8171 8167 8164 8158 8157 8155 
8183 8165 8160 8147 8145 8145 8145 8141 8141 8144 8146 8140 8137 8141 8142 8140 8150 8157 8160 8159 8161 8149 8142 8133 8141 8150 8152 8151 8151 8155 8159 8147 8151 8149 8153 8155 8158 8158 8158 8161 8163 8163 8164 8159 8161 8165 8165 8165 8165 8166 8164 8164 8171 8183 8178 8182 8175 8178 8180 8177 8172 8171 8171 8170 8169 8176 8174 8185 8215 8268 8274 8263 8234 8204 8170 8169 8164 8156 8159 8153 


