P2
80 60
8313
8167 8170 8177 8177 8183 8180 8185 8186 8184 8186 8188 8182 8188 8192 8189 8192 8195 8194 8193 8194 8197 8197 8196 8197 8200 8201 8201 8205 8204 8209 8208 8214 8219 8221 8219 8222 8226 8232 8233 8232 8238 8234 8237 8234 8233 8233 8232 8222 8228 8236 8237 8240 8241 8238 8238 8240 8241 8241 8244 8255 8258 8269 8285 8289 8298 8301 8306 8305 8306 8310 8300 8296 8296 8301 8307 8313 8311 8304 8307 8309 
8165 8170 8176 8180 8182 8183 8183 8186 8189 8186 8188 8187 8190 8192 8193 8192 8191 8196 8193 8198 8197 8198 8198 8198 8202 8198 8204 8203 8206 8209 8211 8211 8217 8220 8220 8220 8224 8227 8227 8234 8235 8235 8237 8233 8233 8232 8226 8225 8227 8230 8237 8238 8239 8237 8238 8239 8241 8240 8244 8251 8262 8276 8291 8298 8303 8305 8304 8309 8307 8308 8304 8298 8295 8301 8308 8312 8309 8307 8305 8308 
8163 8167 8177 8178 8182 8180 8182 8182 8183 8184 8184 8182 8188 8189 8191 8192 8194 8194 8197 8197 8195 8198 8196 8197 8201 8196 8204 8203 8203 8209 8211 8210 8215 8217 8215 8219 8226 8225 8225 8229 8234 8231 8234 8231 8229 8226 8224 8220 8224 8230 8235 8236 8242 8238 8240 8243 8242 8243 8245 8251 8261 8279 8294 8301 8304 8307 8305 8306 8312 8309 8303 8296 8293 8304 8310 8307 8308 8307 8303 8301 
8162 8167 8170 8176 8180 8177 8178 8177 8179 8179 8177 8180 8185 8189 8191 8187 8191 8194 8190 8193 8191 8195 8195 8190 8200 8195 8198 8199 8199 8204 8206 8208 8211 8214 8213 8215 8220 8224 8223 8226 8227 8226 8226 8230 8224 8224 8220 8215 8217 8228 8235 8237 8240 8240 8237 8242 8243 8245 8247 8248 8261 8285 8295 8298 8306 8305 8307 8309 8309 8308 8305 8295 8296 8305 8307 8307 8307 8305 8303 8301 
8161 8163 8165 8169 8171 8168 8170 8173 8175 8175 8174 8176 8177 8184 8182 8186 8185 8187 8187 8188 8187 8189 8189 8185 8193 8191 8194 8193 8197 8202 8201 8206 8206 8210 8211 8213 8217 8218 8220 8222 8224 8221 8225 8222 8221 8217 8212 8212 8214 8221 8230 8237 8238 8240 8241 8240 8246 8245 8248 8254 8262 8286 8298 8300 8305 8303 8305 8307 8309 8305 8299 8294 8297 8302 8303 8309 8309 8301 8303 8303 
8157 8157 8164 8159 8168 8167 8164 8170 8169 8169 8170 8171 8174 8178 8179 8180 8182 8183 8182 8186 8185 8185 8185 8184 8188 8182 8189 8189 8192 8196 8198 8200 8203 8206 8205 8208 8209 8214 8213 8215 8217 8216 8218 8216 8214 8212 8207 8202 8206 8211 8223 8237 8241 8240 8242 8243 8246 8248 8246 8255 8261 8290 8299 8300 8302 8304 8303 8308 8308 8307 8299 8293 8294 8300 8308 8308 8309 8303 8302 8301 
8152 8151 8158 8155 8160 8157 8157 8163 8162 8159 8164 8164 8170 8171 8171 8172 8172 8172 8177 8175 8177 8178 8180 8181 8183 8178 8185 8187 8188 8192 8195 8196 8199 8198 8199 8202 8207 8207 8209 8212 8211 8213 8217 8215 8213 8211 8205 8199 8193 8198 8210 8225 8238 8240 8244 8244 8247 8250 8253 8252 8266 8292 8297 8300 8306 8304 8304 8308 8309 8304 8296 8293 8294 8306 8305 8308 8305 8302 8299 8297 
8147 8142 8151 8146 8149 8149 8151 8152 8153 8156 8154 8156 8166 8165 8165 8162 8166 8168 8171 8176 8173 8176 8177 8181 8182 8180 8186 8185 8186 8191 8199 8201 8202 8203 8199 8203 8208 8210 8208 8210 8211 8211 8216 8209 8208 8209 8204 8191 8188 8193 8193 8204 8228 8239 8242 8247 8248 8248 8252 8259 8272 8295 8296 8297 8302 8306 8303 8306 8305 8301 8295 8292 8294 8301 8306 8305 8304 8298 8298 8300 
8134 8137 8139 8137 8140 8142 8145 8148 8149 8152 8154 8154 8157 8166 8168 8164 8167 8171 8174 8176 8176 8180 8179 8181 8187 8186 8193 8196 8197 8201 8214 8208 8211 8209 8203 8206 8211 8220 8211 8211 8210 8205 8206 8208 8202 8203 8197 8191 8185 8188 8183 8184 8218 8233 8240 8244 8248 8245 8252 8257 8274 8294 8295 8297 8300 8305 8303 8307 8305 8301 8292 8291 8297 8303 8305 8302 8304 8297 8297 8297 
8127 8123 8132 8129 8133 8139 8142 8147 8151 8154 8158 8157 8164 8172 8172 8172 8177 8179 8182 8184 8188 8190 8190 8189 8194 8191 8202 8201 8197 8203 8228 8208 8208 8209 8203 8204 8207 8213 8213 8211 8209 8200 8202 8198 8196 8193 8187 8183 8181 8181 8180 8180 8215 8233 8241 8246 8243 8243 8247 8255 8276 8293 8292 8295 8301 8301 8303 8303 8304 8300 8290 8291 8299 8303 8303 8304 8299 8297 8298 8294 
8123 8123 8123 8125 8131 8135 8144 8146 8148 8155 8164 8167 8178 8188 8189 8188 8193 8198 8193 8197 8197 8203 8201 8199 8202 8202 8201 8197 8197 8201 8206 8203 8204 8199 8195 8194 8200 8199 8203 8201 8195 8187 8189 8187 8186 8184 8178 8179 8177 8180 8176 8182 8215 8234 8241 8243 8246 8244 8252 8258 8282 8293 8291 8293 8297 8300 8299 8303 8303 8297 8287 8292 8298 8301 8299 8302 8300 8297 8302 8294 
8119 8122 8130 8131 8134 8138 8149 8155 8157 8166 8177 8182 8195 8203 8201 8205 8205 8205 8206 8205 8208 8209 8208 8203 8202 8205 8201 8198 8192 8194 8202 8198 8205 8196 8189 8192 8194 8198 8195 8187 8184 8178 8177 8174 8169 8167 8169 8163 8166 8171 8175 8179 8214 8237 8243 8244 8243 8249 8251 8266 8288 8293 8294 8294 8296 8298 8299 8303 8300 8294 8289 8292 8297 8301 8300 8302 8299 8301 8296 8299 
8119 8121 8131 8130 8135 8142 8151 8157 8163 8180 8188 8197 8205 8214 8213 8216 8218 8213 8213 8210 8208 8212 8208 8206 8207 8198 8196 8192 8195 8196 8194 8210 8214 8222 8197 8190 8191 8193 8185 8186 8182 8173 8173 8166 8162 8161 8153 8153 8157 8166 8170 8174 8214 8237 8240 8247 8248 8247 8251 8262 8287 8293 8292 8292 8296 8299 8297 8302 8299 8293 8286 8293 8300 8303 8299 8301 8300 8298 8294 8297 
8120 8122 8130 8130 8138 8144 8151 8158 8177 8193 8196 8206 8214 8214 8225 8223 8227 8224 8218 8212 8211 8208 8206 8204 8201 8191 8194 8196 8199 8200 8194 8201 8214 8199 8188 8193 8194 8201 8195 8182 8172 8164 8167 8170 8162 8161 8162 8160 8165 8166 8176 8175 8214 8236 8245 8252 8251 8251 8254 8263 8286 8290 8289 8290 8293 8295 8295 8298 8297 8291 8286 8295 8299 8298 8297 8301 8300 8297 8298 8298 
8119 8120 8129 8132 8140 8145 8158 8171 8188 8209 8211 8218 8225 8225 8234 8231 8235 8230 8222 8217 8209 8204 8204 8198 8196 8188 8192 8192 8194 8193 8191 8192 8186 8184 8184 8194 8204 8206 8199 8187 8178 8164 8165 8160 8155 8157 8161 8165 8180 8167 8162 8167 8212 8236 8243 8251 8255 8258 8260 8266 8283 8290 8289 8289 8294 8291 8289 8296 8294 8286 8283 8294 8301 8299 8298 8299 8301 8298 8296 8293 
8120 8119 8128 8133 8142 8151 8166 8187 8203 8220 8223 8230 8232 8237 8239 8234 8248 8246 8231 8222 8209 8203 8198 8194 8196 8190 8193 8190 8190 8193 8192 8190 8194 8189 8190 8194 8197 8200 8192 8185 8174 8168 8167 8159 8160 8160 8166 8167 8173 8158 8149 8157 8213 8237 8245 8250 8255 8259 8262 8269 8280 8284 8282 8284 8286 8283 8278 8278 8282 8276 8283 8293 8296 8300 8296 8297 8298 8298 8293 8295 
8120 8121 8135 8135 8145 8156 8173 8200 8219 8229 8232 8237 8236 8239 8243 8236 8246 8240 8231 8226 8204 8201 8193 8186 8190 8188 8191 8183 8184 8185 8186 8189 8192 8185 8183 8183 8188 8189 8188 8185 8187 8190 8185 8183 8194 8190 8180 8178 8166 8165 8158 8165 8218 8236 8241 8254 8257 8256 8267 8270 8275 8280 8275 8274 8270 8264 8254 8253 8257 8266 8281 8292 8295 8293 8295 8299 8297 8295 8292 8291 
8123 8124 8136 8136 8148 8162 8186 8213 8222 8230 8232 8233 8235 8234 8235 8228 8229 8228 8222 8212 8206 8199 8190 8188 8189 8185 8194 8192 8188 8184 8192 8198 8196 8192 8188 8187 8194 8196 8198 8187 8189 8189 8194 8186 8188 8186 8179 8181 8185 8189 8186 8191 8223 8236 8239 8249 8253 8255 8260 8265 8264 8269 8255 8249 8244 8243 8241 8240 8244 8259 8279 8290 8294 8296 8293 8297 8295 8293 8289 8291 
8127 8130 8138 8136 8150 8170 8193 8212 8221 8227 8230 8234 8236 8234 8231 8227 8226 8222 8216 8204 8200 8195 8195 8192 8197 8193 8198 8194 8192 8199 8206 8208 8207 8207 8209 8206 8206 8204 8198 8194 8195 8193 8201 8200 8193 8190 8186 8185 8183 8191 8190 8192 8222 8236 8243 8250 8253 8255 8260 8258 8252 8243 8235 8233 8234 8235 8235 8239 8239 8253 8274 8289 8292 8295 8294 8298 8293 8294 8289 8293 
8137 8143 8153 8151 8164 8185 8204 8217 8225 8232 8237 8237 8241 8234 8231 8229 8221 8218 8215 8206 8197 8199 8196 8201 8206 8202 8205 8202 8201 8206 8216 8223 8223 8221 8215 8214 8213 8202 8197 8198 8200 8192 8193 8193 8186 8179 8178 8173 8180 8180 8187 8192 8223 8235 8243 8248 8250 8249 8248 8240 8239 8236 8232 8229 8234 8234 8235 8235 8237 8244 8271 8289 8289 8293 8293 8297 8297 8292 8289 8289 
8143 8152 8161 8164 8185 8207 8215 8219 8220 8234 8230 8231 8222 8218 8214 8215 8211 8209 8201 8205 8204 8201 8201 8201 8204 8206 8207 8206 8209 8210 8214 8220 8223 8221 8219 8220 8215 8205 8192 8188 8183 8181 8180 8182 8175 8171 8172 8169 8176 8182 8193 8204 8225 8236 8243 8249 8249 8248 8246 8241 8237 8235 8229 8230 8234 8232 8232 8235 8236 8240 8263 8285 8291 8293 8292 8297 8295 8290 8289 8289 
8144 8148 8161 8168 8193 8205 8212 8208 8206 8204 8201 8193 8188 8181 8179 8176 8178 8175 8186 8187 8192 8191 8197 8191 8200 8198 8197 8196 8203 8213 8211 8208 8215 8212 8209 8212 8203 8194 8187 8183 8183 8184 8182 8179 8176 8179 8178 8176 8184 8187 8191 8198 8231 8240 8246 8249 8253 8251 8245 8241 8240 8239 8234 8230 8234 8233 8231 8236 8234 8236 8251 8284 8294 8292 8294 8294 8292 8292 8290 8286 
8147 8150 8166 8177 8206 8206 8207 8201 8191 8188 8182 8181 8178 8177 8175 8176 8176 8178 8173 8181 8187 8189 8191 8191 8196 8199 8202 8197 8205 8215 8217 8215 8225 8228 8224 8224 8224 8223 8223 8226 8226 8231 8229 8236 8234 8236 8234 8230 8231 8233 8236 8236 8242 8246 8247 8250 8252 8247 8248 8246 8247 8244 8240 8237 8236 8235 8234 8235 8233 8235 8241 8273 8293 8295 8293 8296 8295 8288 8288 8287 
8159 8167 8178 8182 8209 8209 8210 8209 8204 8204 8203 8204 8202 8204 8202 8201 8198 8201 8200 8201 8202 8202 8204 8200 8210 8211 8216 8213 8218 8222 8224 8225 8232 8233 8235 8232 8238 8241 8242 8242 8243 8242 8241 8243 8247 8251 8245 8241 8241 8243 8243 8243 8246 8242 8241 8247 8249 8248 8245 8249 8249 8248 8243 8239 8243 8241 8239 8236 8234 8232 8234 8257 8285 8294 8292 8295 8290 8290 8290 8289 
8167 8176 8189 8199 8211 8213 8205 8210 8205 8206 8205 8206 8207 8207 8207 8206 8207 8204 8208 8205 8207 8203 8206 8207 8212 8212 8218 8218 8220 8226 8229 8230 8234 8236 8235 8234 8238 8243 8241 8242 8245 8245 8246 8246 8251 8253 8248 8243 8244 8247 8247 8243 8245 8244 8245 8246 8249 8247 8244 8251 8248 8248 8245 8245 8246 8249 8245 8244 8237 8237 8234 8245 8279 8292 8289 8290 8291 8288 8285 8287 
8173 8176 8197 8203 8212 8207 8207 8208 8205 8206 8206 8209 8208 8211 8210 8209 8206 8209 8206 8206 8208 8208 8208 8206 8214 8217 8223 8223 8225 8226 8229 8230 8236 8237 8237 8237 8244 8242 8239 8240 8241 8241 8251 8253 8258 8258 8252 8248 8243 8247 8246 8246 8246 8243 8242 8245 8244 8244 8243 8244 8243 8246 8246 8245 8248 8248 8243 8246 8244 8240 8239 8245 8269 8290 8292 8290 8288 8286 8285 8290 
8176 8187 8210 8208 8207 8203 8200 8207 8206 8207 8211 8209 8210 8210 8212 8211 8212 8210 8213 8212 8212 8214 8214 8214 8223 8221 8223 8224 8227 8230 8232 8232 8236 8238 8237 8235 8238 8243 8241 8227 8198 8211 8250 8254 8260 8264 8260 8253 8246 8247 8250 8250 8247 8245 8244 8243 8245 8243 8243 8243 8243 8246 8242 8245 8247 8249 8246 8247 8245 8241 8240 8248 8260 8284 8288 8288 8289 8286 8284 8283 
8185 8198 8212 8207 8209 8204 8204 8207 8208 8208 8209 8210 8210 8210 8209 8212 8213 8213 8214 8217 8216 8217 8216 8218 8224 8224 8228 8229 8229 8231 8235 8234 8235 8237 8234 8237 8238 8237 8236 8215 8177 8201 8250 8252 8258 8261 8258 8253 8247 8246 8250 8248 8246 8242 8243 8245 8244 8243 8241 8240 8241 8244 8244 8243 8246 8249 8248 8248 8246 8243 8242 8247 8254 8278 8289 8287 8288 8286 8283 8281 
8199 8205 8208 8207 8207 8207 8204 8204 8204 8207 8207 8208 8205 8208 8210 8211 8211 8208 8212 8215 8214 8216 8218 8219 8224 8220 8226 8224 8228 8231 8234 8231 8236 8235 8233 8232 8200 8183 8209 8187 8177 8193 8245 8255 8259 8258 8256 8254 8248 8249 8248 8247 8241 8240 8244 8244 8245 8241 8241 8239 8240 8244 8241 8240 8245 8249 8247 8252 8250 8247 8243 8246 8249 8269 8282 8286 8286 8285 8280 8279 
8211 8211 8213 8210 8210 8206 8205 8206 8205 8207 8205 8204 8207 8207 8210 8213 8211 8210 8211 8212 8216 8221 8221 8219 8226 8224 8225 8228 8232 8232 8234 8235 8236 8237 8233 8215 8136 8132 8136 8167 8184 8190 8240 8257 8261 8264 8259 8254 8251 8249 8247 8242 8240 8241 8244 8244 8246 8243 8240 8239 8242 8244 8240 8242 8245 8247 8243 8251 8248 8245 8248 8251 8251 8262 8279 8284 8285 8283 8280 8278 
8224 8220 8217 8210 8211 8206 8206 8205 8205 8205 8206 8206 8206 8208 8212 8209 8210 8213 8214 8213 8217 8221 8221 8221 8227 8225 8224 8229 8233 8235 8238 8237 8239 8238 8232 8185 8133 8143 8171 8200 8172 8176 8230 8256 8262 8260 8258 8254 8248 8248 8247 8244 8243 8240 8241 8244 8246 8242 8242 8243 8241 8244 8244 8243 8245 8246 8245 8249 8247 8247 8252 8251 8250 8255 8275 8280 8282 8279 8273 8280 
8235 8227 8222 8213 8211 8205 8208 8209 8205 8209 8207 8207 8206 8207 8209 8214 8212 8215 8219 8216 8218 8222 8220 8220 8229 8225 8230 8230 8232 8234 8240 8236 8240 8237 8231 8177 8163 8162 8166 8151 8151 8172 8214 8248 8260 8260 8260 8251 8246 8248 8247 8243 8243 8238 8240 8244 8244 8242 8241 8242 8244 8245 8244 8243 8248 8248 8246 8249 8249 8248 8250 8252 8251 8252 8268 8279 8281 8277 8274 8275 
8243 8239 8225 8215 8211 8207 8211 8208 8204 8207 8207 8207 8206 8209 8209 8213 8212 8214 8217 8219 8222 8222 8218 8219 8223 8227 8228 8229 8234 8234 8238 8239 8234 8222 8206 8198 8153 8143 8165 8168 8171 8171 8180 8206 8239 8257 8259 8251 8246 8247 8246 8244 8241 8239 8242 8244 8248 8242 8246 8243 8245 8243 8243 8244 8250 8246 8247 8253 8251 8248 8252 8253 8249 8248 8261 8280 8278 8279 8273 8270 
8259 8253 8226 8219 8215 8211 8211 8212 8207 8211 8209 8206 8208 8210 8210 8211 8211 8212 8216 8221 8221 8217 8220 8217 8221 8224 8226 8229 8232 8235 8238 8233 8214 8211 8220 8220 8200 8161 8151 8145 8159 8134 8133 8145 8183 8220 8251 8249 8246 8246 8243 8241 8240 8239 8240 8246 8247 8246 8243 8243 8247 8247 8244 8245 8247 8253 8251 8253 8253 8251 8253 8253 8248 8249 8253 8271 8277 8274 8270 8270 
8253 8248 8228 8223 8221 8220 8220 8218 8209 8210 8211 8207 8207 8213 8215 8214 8214 8214 8218 8221 8221 8219 8218 8219 8225 8225 8228 8224 8231 8238 8236 8211 8212 8229 8227 8201 8189 8159 8132 8136 8141 8133 8140 8130 8136 8186 8235 8243 8241 8244 8243 8243 8240 8241 8243 8245 8247 8247 8246 8248 8248 8248 8244 8245 8250 8252 8254 8256 8252 8253 8256 8253 8248 8244 8247 8268 8275 8272 8267 8263 
8255 8242 8229 8221 8223 8220 8221 8218 8215 8219 8216 8212 8210 8212 8212 8212 8212 8214 8219 8223 8221 8222 8218 8218 8221 8221 8228 8231 8234 8238 8220 8217 8216 8199 8198 8135 8145 8127 8148 8144 8123 8123 8127 8135 8158 8221 8230 8239 8242 8240 8243 8243 8242 8239 8238 8245 8250 8245 8247 8247 8248 8246 8249 8249 8251 8251 8251 8255 8256 8256 8256 8256 8251 8244 8242 8259 8269 8272 8265 8259 
8255 8232 8229 8223 8221 8221 8219 8219 8218 8219 8216 8213 8210 8210 8213 8211 8211 8215 8217 8218 8223 8222 8221 8221 8226 8226 8232 8231 8233 8230 8216 8203 8139 8128 8149 8145 8164 8138 8178 8141 8126 8123 8126 8127 8128 8167 8232 8242 8246 8241 8244 8242 8242 8238 8242 8246 8249 8252 8248 8249 8250 8250 8247 8251 8254 8252 8250 8254 8253 8255 8258 8257 8253 8244 8242 8248 8262 8255 8255 8256 
8258 8226 8227 8217 8219 8213 8215 8217 8221 8220 8216 8214 8213 8213 8209 8211 8214 8219 8218 8221 8224 8224 8227 8225 8230 8227 8228 8229 8233 8220 8222 8168 8125 8144 8160 8156 8132 8164 8176 8153 8140 8132 8138 8137 8128 8160 8227 8250 8250 8242 8240 8241 8242 8240 8239 8246 8249 8250 8250 8251 8251 8249 8249 8250 8254 8253 8251 8250 8251 8255 8256 8255 8251 8242 8242 8242 8243 8246 8254 8255 
8257 8222 8225 8218 8215 8208 8214 8218 8217 8218 8217 8214 8213 8212 8210 8212 8214 8216 8222 8222 8229 8227 8225 8228 8230 8226 8226 8226 8230 8217 8220 8139 8119 8124 8127 8142 8124 8140 8166 8149 8153 8147 8152 8153 8152 8171 8225 8250 8242 8241 8241 8245 8243 8241 8241 8245 8249 8250 8251 8251 8251 8249 8247 8249 8250 8249 8249 8251 8249 8249 8253 8254 8251 8242 8241 8239 8249 8253 8251 8255 
8248 8223 8222 8216 8220 8216 8215 8219 8218 8217 8215 8214 8211 8211 8210 8211 8217 8220 8226 8229 8227 8229 8227 8227 8227 8227 8225 8226 8228 8216 8217 8146 8121 8121 8126 8159 8127 8146 8148 8139 8144 8149 8166 8163 8192 8201 8216 8242 8235 8240 8244 8241 8243 8241 8239 8240 8248 8252 8252 8250 8247 8250 8247 8247 8246 8250 8248 8247 8246 8246 8249 8251 8247 8243 8237 8238 8245 8252 8250 8249 
8244 8219 8224 8217 8218 8220 8216 8220 8216 8217 8217 8215 8214 8215 8213 8215 8217 8223 8225 8228 8228 8231 8226 8222 8228 8224 8224 8224 8223 8215 8210 8171 8140 8123 8147 8171 8140 8144 8150 8139 8151 8162 8160 8153 8171 8197 8202 8235 8239 8243 8240 8242 8244 8239 8240 8245 8247 8249 8248 8250 8250 8249 8249 8245 8245 8247 8245 8245 8244 8247 8244 8251 8248 8245 8238 8237 8240 8251 8251 8254 
8233 8218 8219 8217 8215 8216 8218 8221 8217 8218 8215 8212 8214 8214 8218 8222 8223 8226 8226 8225 8229 8229 8227 8224 8224 8221 8224 8222 8222 8210 8220 8202 8184 8148 8187 8180 8170 8160 8162 8159 8163 8162 8157 8153 8161 8186 8195 8228 8239 8240 8239 8242 8242 8241 8238 8244 8248 8249 8249 8249 8245 8250 8247 8243 8246 8245 8246 8245 8245 8243 8244 8250 8248 8242 8238 8238 8237 8245 8245 8247 
8225 8214 8220 8213 8216 8217 8220 8222 8213 8216 8215 8215 8216 8221 8222 8224 8225 8225 8224 8224 8225 8227 8222 8222 8226 8219 8222 8220 8217 8198 8213 8211 8197 8185 8192 8184 8175 8175 8181 8170 8184 8196 8189 8171 8190 8193 8202 8230 8238 8239 8242 8242 8244 8238 8241 8241 8245 8246 8247 8248 8248 8247 8246 8246 8244 8246 8244 8246 8242 8243 8245 8247 8247 8242 8237 8236 8232 8237 8244 8244 
8221 8218 8219 8216 8217 8216 8221 8221 8215 8215 8216 8217 8223 8223 8225 8227 8224 8226 8227 8227 8227 8224 8223 8222 8225 8218 8223 8222 8215 8201 8211 8221 8207 8208 8203 8206 8194 8191 8186 8197 8202 8199 8200 8195 8198 8204 8210 8232 8239 8241 8240 8241 8239 8239 8236 8240 8243 8246 8246 8247 8248 8252 8245 8243 8243 8244 8243 8248 8243 8245 8244 8250 8247 8240 8238 8231 8231 8231 8242 8246 
8218 8219 8219 8218 8218 8218 8217 8216 8214 8221 8222 8224 8225 8228 8225 8226 8223 8225 8228 8227 8228 8227 8225 8222 8223 8221 8219 8219 8212 8199 8221 8226 8221 8232 8230 8231 8215 8213 8204 8208 8204 8203 8210 8211 8204 8214 8227 8239 8245 8242 8242 8238 8242 8236 8234 8238 8241 8244 8248 8243 8246 8246 8244 8243 8241 8242 8240 8243 8243 8243 8244 8247 8244 8241 8237 8230 8227 8229 8237 8237 
8217 8219 8221 8218 8220 8215 8217 8217 8216 8224 8224 8222 8225 8228 8227 8227 8226 8226 8225 8227 8226 8225 8223 8221 8223 8221 8217 8215 8213 8203 8238 8251 8230 8244 8253 8251 8238 8218 8207 8219 8214 8221 8227 8230 8220 8230 8236 8243 8243 8243 8244 8240 8237 8232 8234 8235 8239 8242 8246 8244 8243 8244 8242 8241 8237 8243 8237 8239 8237 8240 8238 8239 8239 8233 8232 8229 8223 8224 8230 8225 
8215 8220 8224 8219 8220 8219 8220 8222 8224 8226 8224 8227 8222 8228 8229 8228 8227 8225 8225 8226 8225 8229 8223 8223 8225 8219 8219 8220 8216 8203 8233 8262 8240 8237 8244 8252 8254 8249 8245 8253 8241 8249 8248 8248 8241 8237 8233 8244 8246 8246 8241 8239 8237 8235 8237 8234 8234 8238 8238 8243 8242 8241 8237 8237 8237 8236 8232 8235 8234 8234 8235 8235 8234 8227 8230 8225 8220 8217 8220 8221 
8218 8222 8228 8222 8220 8219 8222 8224 8226 8227 8226 8224 8222 8227 8227 8226 8225 8224 8224 8221 8223 8224 8223 8224 8224 8219 8220 8219 8219 8210 8215 8252 8249 8233 8231 8230 8235 8249 8248 8246 8248 8252 8247 8246 8234 8228 8239 8244 8246 8248 8243 8246 8245 8237 8237 8233 8234 8231 8234 8240 8237 8238 8232 8229 8234 8232 8226 8230 8229 8229 8229 8232 8230 8228 8226 8223 8223 8218 8218 8222 
8217 8220 8223 8218 8222 8220 8221 8226 8221 8222 8222 8221 8219 8225 8224 8224 8220 8223 8218 8218 8221 8221 8220 8219 8222 8214 8220 8219 8219 8218 8204 8231 8255 8233 8224 8228 8235 8236 8237 8241 8248 8247 8248 8239 8228 8231 8244 8245 8244 8248 8245 8245 8240 8237 8234 8234 8233 8231 8229 8229 8229 8229 8227 8223 8226 8227 8221 8226 8226 8226 8225 8229 8229 8225 8224 8223 8220 8216 8216 8217 
8218 8217 8220 8214 8219 8219 8217 8223 8217 8218 8217 8219 8219 8219 8221 8215 8216 8217 8214 8215 8214 8215 8214 8214 8215 8210 8213 8212 8214 8212 8214 8207 8234 8236 8225 8217 8225 8230 8235 8238 8240 8239 8237 8231 8226 8243 8243 8241 8245 8247 8248 8248 8244 8239 8234 8237 8230 8231 8228 8226 8225 8225 8225 8222 8220 8221 8224 8225 8225 8225 8225 8229 8229 8226 8224 8224 8218 8216 8216 8220 
8210 8211 8216 8213 8216 8210 8216 8215 8215 8210 8213 8214 8214 8214 8215 8210 8210 8211 8208 8209 8210 8207 8208 8209 8211 8207 8207 8209 8212 8213 8213 8213 8209 8217 8225 8222 8223 8225 8230 8231 8233 8232 8233 8230 8237 8243 8243 8242 8246 8247 8245 8245 8243 8235 8232 8233 8231 8230 8229 8227 8225 8229 8223 8222 8219 8225 8222 8226 8223 8224 8226 8228 8228 8223 8221 8219 8218 8215 8215 8215 
8206 8207 8210 8212 8212 8207 8211 8211 8206 8209 8210 8207 8208 8208 8206 8204 8204 8209 8204 8201 8201 8205 8202 8203 8209 8203 8206 8208 8208 8210 8212 8212 8213 8211 8214 8213 8218 8220 8222 8227 8229 8228 8236 8238 8243 8243 8239 8238 8242 8245 8247 8243 8240 8239 8235 8232 8231 8224 8224 8226 8221 8223 8220 8219 8219 8221 8220 8222 8220 8221 8224 8229 8224 8222 8219 8220 8217 8212 8213 8212 
8207 8209 8212 8210 8209 8210 8208 8206 8204 8204 8201 8202 8203 8204 8204 8202 8203 8204 8197 8198 8200 8202 8203 8203 8207 8200 8205 8208 8208 8212 8214 8212 8216 8214 8217 8217 8220 8219 8221 8230 8232 8235 8241 8243 8242 8244 8242 8240 8244 8247 8244 8247 8244 8238 8234 8232 8230 8227 8223 8220 8222 8224 8220 8217 8219 8222 8216 8219 8222 8222 8224 8224 8224 8220 8217 8218 8214 8214 8214 8210 
8206 8207 8214 8207 8206 8203 8205 8204 8197 8201 8202 8200 8201 8200 8204 8197 8195 8198 8197 8196 8197 8198 8200 8201 8202 8199 8202 8206 8204 8208 8212 8213 8215 8217 8218 8219 8222 8226 8227 8234 8237 8238 8247 8244 8246 8244 8245 8243 8244 8250 8246 8245 8244 8239 8234 8231 8225 8226 8221 8221 8222 8220 8217 8219 8215 8218 8215 8217 8219 8217 8219 8221 8221 8216 8212 8211 8208 8207 8210 8210 
8207 8207 8211 8207 8203 8202 8205 8203 8199 8199 8200 8198 8200 8200 8199 8196 8195 8198 8191 8196 8197 8199 8200 8198 8199 8197 8201 8202 8206 8208 8211 8211 8215 8220 8217 8221 8224 8226 8229 8233 8238 8244 8249 8246 8244 8246 8242 8240 8246 8250 8244 8248 8244 8237 8234 8228 8227 8225 8223 8220 8225 8219 8215 8215 8218 8217 8216 8217 8219 8214 8218 8217 8218 8212 8210 8209 8205 8206 8204 8205 
8206 8207 8211 8205 8204 8201 8203 8198 8197 8196 8197 8195 8198 8199 8199 8195 8193 8194 8192 8195 8193 8198 8200 8198 8198 8195 8198 8204 8203 8205 8212 8216 8220 8219 8220 8221 8227 8230 8233 8241 8241 8246 8247 8247 8243 8246 8244 8243 8244 8248 8246 8246 8244 8235 8233 8228 8228 8223 8221 8220 8222 8218 8214 8216 8218 8216 8214 8217 8218 8218 8216 8222 8214 8212 8209 8206 8206 8205 8204 8208 
8212 8209 8211 8207 8204 8199 8203 8199 8197 8196 8195 8196 8194 8196 8196 8194 8192 8194 8193 8193 8194 8198 8199 8197 8197 8197 8198 8205 8206 8212 8209 8214 8220 8219 8217 8224 8229 8232 8236 8240 8244 8243 8250 8246 8248 8246 8242 8240 8245 8246 8243 8244 8239 8233 8233 8228 8226 8222 8219 8218 8219 8216 8212 8212 8213 8213 8210 8216 8216 8218 8218 8218 8218 8214 8208 8206 8202 8200 8206 8204 
8210 8207 8210 8202 8205 8199 8200 8200 8192 8199 8195 8192 8190 8195 8196 8187 8188 8188 8188 8192 8192 8198 8196 8197 8201 8197 8196 8204 8206 8211 8210 8214 8220 8216 8218 8223 8227 8230 8236 8237 8242 8241 8247 8246 8247 8250 8242 8240 8244 8246 8245 8242 8238 8235 8229 8228 8223 8222 8218 8222 8215 8214 8213 8211 8210 8213 8213 8217 8213 8213 8215 8213 8215 8207 8201 8199 8200 8199 8203 8202 
8217 8208 8207 8201 8202 8202 8194 8198 8190 8191 8191 8191 8193 8192 8192 8186 8188 8188 8188 8190 8194 8195 8195 8192 8198 8198 8200 8204 8209 8209 8216 8215 8220 8216 8218 8221 8226 8230 8233 8238 8244 8244 8247 8245 8242 8246 8243 8239 8242 8244 8241 8240 8240 8231 8230 8225 8224 8218 8217 8221 8216 8215 8211 8213 8210 8211 8211 8214 8214 8216 8215 8211 8208 8203 8201 8201 8200 8201 8199 8199 
8219 8206 8208 8202 8202 8199 8198 8199 8192 8194 8191 8191 8193 8193 8192 8189 8186 8187 8188 8186 8190 8194 8193 8195 8199 8199 8203 8203 8208 8209 8214 8214 8217 8218 8219 8221 8227 8235 8239 8240 8242 8244 8247 8245 8244 8243 8240 8240 8245 8248 8240 8240 8238 8231 8228 8224 8222 8219 8213 8213 8214 8208 8206 8207 8208 8208 8206 8208 8212 8210 8212 8209 8206 8206 8199 8202 8198 8199 8200 8201 


