P2
80 60
8189
8136 8138 8140 8143 8142 8138 8139 8138 8139 8142 8145 8144 8148 8147 8149 8152 8153 8157 8155 8153 8156 8153 8155 8158 8157 8159 8160 8157 8161 8160 8160 8162 8161 8159 8157 8157 8157 8154 8153 8155 8156 8154 8154 8150 8148 8149 8146 8145 8148 8148 8149 8150 8149 8149 8149 8150 8149 8152 8151 8155 8153 8152 8153 8154 8156 8158 8159 8158 8158 8158 8160 8162 8160 8161 8163 8163 8160 8160 8164 8166 
8137 8137 8141 8143 8140 8137 8142 8140 8137 8144 8146 8147 8147 8148 8151 8154 8157 8155 8155 8155 8158 8154 8156 8157 8157 8158 8163 8162 8162 8162 8161 8162 8159 8160 8157 8156 8159 8155 8155 8157 8156 8156 8154 8146 8146 8146 8147 8148 8146 8147 8147 8151 8147 8148 8151 8151 8150 8150 8152 8154 8156 8152 8155 8155 8159 8161 8154 8160 8158 8159 8161 8162 8161 8161 8164 8162 8162 8165 8163 8167 
8137 8141 8140 8140 8136 8135 8139 8140 8140 8142 8142 8144 8146 8149 8149 8153 8152 8159 8155 8156 8158 8157 8158 8159 8158 8160 8160 8160 8157 8159 8158 8161 8157 8160 8156 8157 8159 8162 8156 8158 8156 8154 8154 8150 8144 8146 8145 8145 8147 8147 8149 8149 8149 8146 8150 8150 8150 8153 8152 8156 8153 8154 8157 8158 8153 8159 8155 8157 8157 8158 8159 8162 8162 8161 8162 8161 8161 8159 8160 8163 
8138 8137 8137 8137 8138 8137 8137 8139 8141 8143 8144 8145 8146 8148 8151 8151 8156 8158 8153 8157 8153 8158 8158 8159 8158 8156 8160 8158 8155 8162 8161 8159 8160 8160 8160 8155 8154 8159 8158 8153 8154 8153 8155 8150 8146 8147 8145 8146 8150 8150 8149 8148 8147 8150 8149 8149 8149 8150 8151 8155 8156 8153 8155 8154 8158 8159 8158 8157 8159 8158 8162 8163 8165 8164 8163 8159 8161 8160 8160 8159 
8137 8134 8138 8135 8132 8138 8138 8139 8137 8141 8143 8145 8146 8150 8149 8154 8153 8157 8153 8157 8157 8158 8159 8162 8161 8160 8157 8157 8158 8159 8155 8161 8158 8159 8158 8162 8155 8158 8155 8156 8154 8151 8155 8150 8149 8147 8145 8147 8146 8150 8150 8152 8149 8147 8148 8152 8150 8152 8152 8157 8158 8153 8156 8156 8158 8157 8154 8157 8154 8156 8159 8163 8162 8163 8163 8162 8158 8161 8162 8160 
8134 8133 8134 8136 8134 8132 8135 8137 8140 8139 8140 8146 8145 8149 8148 8154 8154 8155 8156 8152 8153 8156 8157 8160 8157 8155 8160 8157 8158 8159 8158 8158 8156 8157 8158 8159 8158 8156 8157 8159 8155 8154 8154 8150 8147 8146 8144 8148 8148 8148 8151 8149 8150 8144 8147 8152 8150 8153 8153 8156 8156 8153 8155 8154 8155 8157 8155 8157 8155 8158 8161 8160 8161 8160 8162 8161 8160 8156 8160 8158 
8135 8136 8138 8137 8137 8138 8139 8141 8137 8143 8143 8143 8144 8147 8149 8153 8150 8155 8154 8153 8157 8153 8156 8159 8158 8158 8160 8156 8159 8159 8160 8158 8161 8158 8161 8156 8157 8157 8156 8154 8154 8154 8155 8151 8145 8149 8146 8145 8149 8149 8147 8150 8152 8148 8151 8150 8154 8152 8153 8156 8155 8153 8154 8157 8155 8155 8152 8155 8156 8158 8157 8161 8164 8163 8161 8159 8158 8157 8157 8158 
8133 8136 8137 8139 8139 8136 8138 8139 8137 8140 8143 8144 8147 8144 8147 8151 8154 8155 8156 8154 8156 8156 8158 8159 8160 8157 8162 8159 8158 8163 8157 8161 8159 8160 8160 8159 8159 8158 8155 8160 8152 8152 8156 8150 8148 8148 8147 8148 8150 8150 8150 8150 8150 8148 8150 8155 8153 8154 8155 8154 8158 8153 8157 8157 8156 8154 8155 8156 8157 8155 8160 8159 8161 8160 8164 8159 8159 8156 8158 8154 
8135 8137 8137 8137 8137 8136 8136 8140 8137 8144 8142 8140 8144 8148 8146 8151 8152 8156 8153 8155 8157 8156 8156 8159 8156 8161 8158 8157 8159 8160 8160 8160 8161 8162 8159 8158 8156 8157 8157 8154 8155 8155 8153 8150 8146 8148 8148 8149 8150 8146 8149 8152 8150 8151 8153 8156 8153 8154 8152 8159 8155 8154 8156 8155 8155 8156 8154 8158 8158 8158 8159 8160 8159 8159 8158 8158 8159 8157 8156 8157 
8138 8140 8138 8138 8134 8135 8139 8141 8138 8141 8141 8139 8141 8147 8145 8147 8148 8154 8155 8155 8155 8155 8157 8157 8157 8161 8160 8159 8157 8160 8158 8158 8160 8161 8157 8155 8155 8155 8155 8155 8156 8153 8152 8151 8146 8145 8146 8145 8151 8147 8151 8150 8151 8151 8152 8152 8154 8153 8153 8156 8153 8154 8157 8155 8155 8157 8154 8155 8155 8158 8160 8161 8160 8157 8158 8157 8157 8155 8154 8159 
8134 8137 8138 8139 8135 8138 8143 8139 8139 8141 8142 8142 8143 8145 8144 8148 8151 8153 8155 8155 8155 8156 8154 8157 8159 8156 8159 8158 8158 8161 8157 8160 8159 8161 8158 8154 8155 8157 8155 8153 8154 8152 8158 8149 8146 8147 8145 8148 8149 8147 8151 8151 8151 8151 8150 8155 8153 8153 8154 8157 8154 8154 8153 8154 8154 8157 8155 8153 8154 8156 8159 8158 8160 8158 8160 8158 8154 8154 8157 8155 
8135 8137 8138 8137 8136 8139 8140 8139 8138 8143 8141 8143 8145 8145 8145 8149 8149 8153 8153 8153 8154 8154 8154 8155 8157 8159 8157 8157 8159 8161 8160 8160 8160 8159 8156 8156 8156 8157 8155 8154 8154 8151 8156 8151 8147 8146 8148 8149 8150 8149 8152 8152 8150 8151 8149 8154 8150 8153 8151 8155 8152 8155 8155 8155 8155 8154 8154 8154 8157 8154 8155 8158 8160 8160 8160 8158 8155 8154 8154 8155 
8132 8135 8134 8135 8138 8138 8140 8139 8140 8142 8144 8143 8143 8144 8144 8147 8149 8152 8150 8152 8154 8153 8154 8156 8157 8156 8158 8159 8157 8157 8158 8161 8159 8158 8156 8154 8154 8155 8153 8153 8155 8154 8154 8151 8149 8147 8148 8147 8149 8152 8149 8149 8151 8151 8150 8150 8152 8153 8149 8154 8154 8151 8155 8154 8155 8154 8153 8156 8158 8157 8156 8158 8159 8155 8158 8159 8158 8155 8155 8151 
8133 8135 8134 8136 8135 8137 8136 8140 8136 8143 8142 8142 8143 8144 8146 8148 8152 8153 8152 8151 8152 8153 8153 8157 8155 8157 8154 8157 8158 8160 8160 8161 8159 8158 8158 8154 8153 8152 8152 8153 8152 8154 8155 8150 8149 8147 8149 8149 8149 8150 8153 8148 8152 8150 8152 8149 8153 8153 8151 8156 8155 8151 8158 8156 8155 8155 8153 8158 8156 8156 8156 8158 8157 8158 8160 8158 8155 8156 8153 8152 
8134 8131 8134 8133 8135 8137 8137 8135 8139 8144 8142 8141 8141 8144 8147 8149 8149 8151 8149 8149 8150 8150 8152 8157 8153 8154 8158 8156 8159 8160 8159 8162 8159 8157 8157 8156 8157 8153 8154 8156 8153 8153 8157 8150 8147 8148 8150 8148 8150 8152 8154 8153 8150 8151 8152 8151 8150 8150 8151 8154 8153 8153 8154 8155 8155 8157 8153 8155 8157 8156 8158 8159 8159 8159 8158 8160 8157 8155 8154 8154 
8133 8135 8134 8135 8135 8133 8139 8137 8137 8137 8140 8143 8140 8145 8145 8150 8148 8149 8148 8149 8150 8151 8151 8154 8154 8154 8157 8155 8156 8158 8158 8159 8160 8158 8158 8153 8157 8156 8152 8154 8152 8152 8156 8152 8150 8149 8150 8149 8150 8152 8151 8151 8149 8150 8151 8151 8150 8151 8149 8153 8152 8152 8155 8152 8155 8158 8154 8156 8156 8156 8156 8156 8158 8161 8159 8156 8154 8154 8155 8153 
8136 8133 8136 8136 8131 8131 8135 8135 8135 8141 8141 8140 8141 8143 8147 8148 8150 8151 8148 8147 8149 8152 8150 8154 8152 8153 8157 8153 8158 8157 8159 8158 8157 8159 8157 8155 8156 8156 8153 8151 8154 8155 8158 8151 8148 8146 8148 8150 8149 8149 8150 8148 8151 8150 8150 8153 8148 8154 8151 8155 8154 8153 8155 8153 8157 8158 8153 8154 8155 8151 8155 8157 8157 8156 8157 8156 8154 8157 8153 8156 
8130 8133 8134 8135 8133 8134 8133 8137 8135 8138 8138 8141 8143 8143 8143 8148 8147 8152 8149 8146 8148 8149 8151 8153 8152 8153 8154 8156 8159 8157 8159 8160 8158 8159 8155 8155 8154 8158 8155 8154 8156 8155 8153 8147 8148 8147 8148 8149 8146 8149 8151 8146 8152 8150 8149 8149 8149 8147 8150 8153 8157 8153 8156 8154 8153 8156 8153 8153 8156 8152 8157 8155 8157 8155 8159 8158 8155 8155 8152 8152 
8134 8135 8135 8136 8134 8133 8139 8135 8135 8139 8139 8143 8141 8145 8145 8148 8148 8149 8147 8147 8148 8148 8149 8153 8152 8155 8154 8158 8160 8158 8159 8162 8162 8159 8158 8158 8157 8156 8156 8154 8156 8156 8156 8150 8148 8148 8149 8149 8147 8150 8152 8151 8151 8149 8148 8150 8149 8150 8151 8154 8152 8153 8156 8153 8154 8154 8154 8154 8154 8154 8156 8156 8157 8154 8160 8155 8153 8153 8156 8154 
8133 8134 8134 8132 8131 8132 8135 8137 8138 8140 8142 8141 8139 8144 8143 8147 8146 8150 8149 8147 8146 8148 8152 8153 8149 8157 8155 8157 8155 8158 8158 8159 8158 8160 8160 8160 8159 8155 8156 8156 8156 8156 8155 8149 8149 8150 8147 8152 8149 8149 8150 8150 8150 8150 8148 8150 8148 8148 8148 8152 8152 8152 8154 8156 8155 8156 8152 8156 8155 8154 8157 8154 8160 8155 8158 8153 8153 8153 8152 8157 
8129 8132 8133 8133 8135 8136 8135 8138 8136 8138 8141 8140 8144 8143 8145 8148 8146 8149 8147 8146 8147 8148 8147 8148 8150 8151 8156 8154 8158 8159 8156 8159 8162 8159 8160 8156 8154 8157 8151 8154 8154 8155 8155 8150 8150 8149 8148 8149 8147 8146 8149 8149 8145 8147 8149 8147 8147 8151 8146 8151 8149 8150 8155 8154 8156 8156 8152 8151 8154 8151 8155 8158 8157 8154 8159 8153 8156 8154 8153 8155 
8133 8134 8134 8134 8136 8134 8134 8138 8135 8142 8140 8143 8140 8144 8144 8148 8147 8149 8144 8148 8148 8147 8147 8149 8150 8149 8154 8157 8157 8157 8156 8158 8161 8160 8163 8156 8154 8152 8151 8163 8162 8156 8156 8151 8146 8147 8148 8147 8149 8149 8148 8150 8150 8149 8148 8152 8149 8147 8150 8151 8152 8149 8154 8155 8155 8157 8151 8152 8151 8151 8155 8157 8156 8155 8157 8155 8152 8153 8150 8150 
8132 8134 8134 8135 8133 8136 8136 8138 8135 8139 8140 8142 8141 8145 8143 8148 8149 8147 8146 8146 8146 8150 8136 8132 8135 8135 8145 8151 8154 8156 8153 8159 8159 8160 8160 8156 8156 8152 8158 8174 8173 8160 8156 8148 8148 8147 8149 8146 8148 8150 8149 8149 8149 8151 8149 8149 8148 8151 8149 8152 8153 8151 8151 8154 8156 8157 8153 8153 8152 8152 8152 8154 8156 8154 8152 8154 8152 8153 8155 8153 
8132 8132 8133 8134 8131 8132 8138 8137 8137 8143 8141 8142 8143 8145 8146 8146 8149 8150 8145 8149 8150 8151 8150 8149 8132 8107 8105 8109 8125 8129 8114 8134 8144 8156 8158 8156 8159 8150 8161 8178 8182 8160 8156 8152 8148 8145 8147 8147 8148 8148 8149 8146 8147 8151 8149 8152 8149 8151 8147 8153 8155 8148 8153 8153 8153 8155 8155 8153 8155 8153 8152 8154 8156 8154 8156 8156 8156 8152 8156 8153 
8133 8135 8137 8134 8132 8136 8137 8138 8138 8139 8141 8144 8143 8144 8147 8144 8148 8149 8147 8151 8153 8151 8153 8152 8144 8122 8107 8103 8099 8099 8098 8123 8134 8151 8154 8155 8155 8152 8165 8184 8184 8163 8155 8149 8146 8145 8145 8146 8148 8147 8151 8147 8148 8151 8150 8152 8148 8149 8147 8155 8151 8153 8155 8153 8152 8156 8151 8151 8152 8151 8152 8154 8154 8154 8155 8154 8156 8153 8157 8154 
8135 8133 8134 8134 8134 8136 8137 8138 8138 8142 8143 8140 8142 8146 8142 8147 8146 8148 8150 8154 8151 8155 8153 8155 8151 8149 8141 8113 8100 8096 8099 8127 8133 8148 8153 8153 8156 8150 8166 8184 8189 8163 8157 8151 8146 8146 8149 8147 8145 8147 8147 8150 8151 8151 8149 8154 8150 8150 8149 8153 8153 8152 8152 8153 8154 8153 8152 8155 8151 8152 8152 8153 8153 8154 8157 8157 8156 8157 8156 8155 
8133 8134 8134 8134 8136 8136 8137 8138 8136 8142 8141 8142 8143 8146 8144 8146 8149 8151 8150 8153 8157 8154 8155 8158 8155 8151 8138 8102 8096 8103 8092 8099 8097 8105 8134 8150 8151 8151 8158 8175 8178 8164 8155 8153 8146 8145 8145 8146 8146 8147 8149 8148 8151 8151 8150 8150 8148 8152 8148 8153 8153 8149 8153 8153 8151 8154 8152 8154 8151 8152 8153 8155 8155 8156 8158 8159 8156 8157 8156 8153 
8138 8138 8136 8136 8138 8136 8139 8136 8139 8142 8143 8142 8143 8144 8143 8147 8147 8152 8150 8152 8157 8156 8156 8155 8151 8149 8108 8107 8104 8110 8091 8091 8095 8095 8104 8138 8149 8149 8147 8164 8166 8159 8153 8150 8149 8149 8147 8145 8147 8149 8151 8149 8150 8151 8149 8149 8150 8152 8153 8153 8152 8150 8153 8150 8150 8155 8149 8153 8152 8153 8152 8153 8153 8156 8155 8157 8156 8157 8155 8152 
8132 8137 8135 8137 8134 8135 8138 8135 8136 8138 8142 8141 8142 8141 8144 8146 8148 8151 8148 8151 8151 8154 8153 8154 8151 8139 8137 8145 8123 8108 8088 8090 8091 8093 8116 8121 8145 8146 8138 8151 8159 8155 8157 8151 8149 8145 8148 8149 8150 8147 8150 8148 8150 8147 8151 8148 8147 8153 8153 8155 8153 8151 8151 8151 8152 8154 8150 8153 8151 8151 8154 8154 8155 8153 8156 8156 8157 8154 8157 8157 
8134 8138 8135 8137 8136 8135 8138 8137 8139 8143 8141 8139 8140 8143 8141 8148 8148 8148 8146 8150 8151 8151 8152 8151 8148 8137 8150 8138 8116 8112 8107 8090 8087 8098 8103 8136 8141 8144 8134 8146 8155 8153 8155 8152 8149 8147 8146 8148 8151 8148 8148 8146 8146 8147 8149 8148 8148 8150 8151 8157 8154 8148 8153 8150 8153 8153 8151 8150 8148 8152 8152 8155 8154 8151 8156 8154 8157 8155 8158 8154 
8134 8138 8138 8135 8137 8139 8137 8135 8139 8142 8140 8139 8139 8141 8142 8145 8145 8146 8146 8146 8147 8147 8148 8151 8145 8141 8139 8142 8133 8119 8118 8090 8087 8099 8108 8142 8149 8148 8135 8147 8154 8152 8156 8153 8148 8148 8146 8148 8152 8150 8153 8145 8148 8147 8149 8149 8149 8152 8150 8153 8150 8150 8153 8152 8152 8152 8150 8151 8153 8151 8151 8156 8154 8149 8157 8154 8158 8154 8155 8155 
8138 8137 8139 8138 8137 8139 8141 8140 8138 8141 8142 8141 8139 8142 8143 8143 8144 8143 8140 8132 8124 8121 8130 8122 8113 8099 8115 8134 8129 8108 8109 8091 8089 8110 8110 8136 8149 8147 8132 8146 8148 8150 8155 8151 8149 8147 8148 8149 8151 8151 8150 8148 8148 8149 8148 8152 8148 8152 8150 8152 8153 8153 8151 8154 8152 8154 8151 8151 8152 8151 8153 8153 8153 8153 8154 8156 8157 8155 8154 8156 
8137 8138 8140 8137 8140 8140 8139 8140 8138 8142 8142 8140 8140 8139 8141 8145 8142 8123 8105 8098 8095 8099 8094 8097 8092 8095 8098 8099 8102 8107 8101 8090 8097 8098 8103 8128 8147 8148 8130 8138 8140 8146 8155 8150 8146 8151 8151 8147 8152 8149 8151 8150 8148 8149 8149 8148 8148 8152 8151 8154 8153 8150 8153 8153 8153 8151 8151 8151 8151 8152 8152 8151 8155 8153 8156 8154 8156 8155 8158 8158 
8139 8140 8137 8142 8140 8139 8138 8139 8140 8140 8140 8138 8138 8141 8139 8145 8125 8098 8094 8094 8116 8099 8092 8097 8103 8097 8098 8099 8099 8099 8093 8093 8099 8096 8101 8103 8135 8146 8129 8131 8135 8142 8155 8152 8152 8149 8153 8150 8150 8151 8151 8150 8151 8148 8151 8152 8149 8153 8150 8155 8155 8150 8155 8154 8153 8153 8148 8149 8152 8150 8151 8152 8154 8153 8152 8156 8154 8156 8157 8157 
8138 8141 8137 8137 8137 8137 8137 8138 8140 8138 8140 8139 8138 8139 8140 8136 8100 8089 8102 8116 8138 8103 8094 8100 8105 8105 8107 8100 8100 8100 8102 8102 8098 8096 8097 8098 8118 8146 8128 8126 8126 8137 8152 8151 8151 8146 8149 8150 8150 8152 8153 8152 8152 8153 8153 8157 8154 8152 8153 8152 8152 8153 8154 8156 8155 8157 8152 8152 8152 8153 8152 8154 8154 8155 8154 8157 8158 8156 8155 8152 
8141 8143 8139 8140 8140 8137 8141 8139 8139 8139 8141 8138 8138 8142 8139 8123 8091 8099 8133 8143 8145 8123 8095 8095 8103 8134 8131 8104 8104 8105 8107 8106 8097 8095 8097 8099 8106 8143 8129 8129 8124 8131 8153 8151 8150 8149 8150 8148 8150 8150 8151 8152 8154 8153 8154 8154 8151 8157 8155 8153 8153 8153 8154 8152 8155 8157 8156 8154 8153 8153 8155 8156 8153 8155 8156 8159 8155 8156 8155 8156 
8140 8141 8141 8140 8139 8137 8136 8141 8138 8140 8139 8139 8141 8141 8141 8118 8100 8127 8147 8144 8146 8138 8117 8105 8104 8136 8146 8134 8133 8112 8114 8107 8097 8108 8099 8094 8102 8131 8128 8130 8127 8135 8153 8149 8150 8149 8148 8147 8148 8153 8154 8153 8156 8153 8152 8154 8152 8154 8155 8155 8156 8151 8153 8154 8157 8158 8155 8156 8156 8155 8155 8156 8158 8152 8155 8157 8156 8157 8155 8153 
8138 8143 8142 8137 8139 8137 8136 8138 8137 8141 8141 8137 8137 8140 8139 8135 8125 8142 8146 8145 8147 8147 8141 8107 8119 8138 8146 8145 8138 8113 8112 8114 8121 8123 8099 8097 8098 8118 8123 8132 8129 8134 8153 8149 8149 8149 8151 8149 8150 8151 8153 8154 8154 8156 8156 8156 8153 8155 8150 8156 8155 8151 8154 8151 8155 8157 8153 8155 8156 8156 8154 8156 8155 8155 8157 8157 8156 8156 8155 8159 
8142 8142 8143 8141 8141 8137 8138 8140 8138 8141 8143 8139 8138 8141 8137 8144 8128 8139 8148 8145 8144 8142 8135 8125 8133 8134 8135 8138 8127 8111 8106 8108 8103 8111 8122 8106 8101 8110 8121 8130 8132 8135 8143 8146 8151 8152 8151 8151 8151 8151 8155 8154 8155 8155 8154 8155 8154 8156 8155 8157 8159 8151 8155 8150 8150 8156 8153 8154 8156 8156 8156 8156 8158 8156 8160 8161 8155 8160 8158 8151 
8138 8142 8144 8142 8137 8140 8139 8140 8136 8143 8140 8141 8136 8138 8132 8134 8131 8126 8140 8145 8141 8139 8138 8137 8129 8132 8137 8137 8134 8113 8099 8102 8105 8104 8118 8122 8106 8123 8127 8132 8133 8135 8144 8150 8155 8155 8149 8150 8152 8151 8155 8155 8155 8158 8154 8157 8155 8156 8154 8159 8160 8154 8155 8154 8153 8157 8156 8158 8154 8157 8156 8156 8157 8155 8160 8158 8162 8160 8157 8158 
8141 8143 8146 8140 8140 8141 8140 8141 8137 8140 8138 8133 8128 8125 8124 8132 8132 8138 8140 8143 8139 8140 8139 8142 8137 8137 8135 8123 8117 8102 8099 8102 8102 8102 8104 8122 8131 8138 8131 8133 8133 8137 8144 8153 8149 8148 8151 8149 8149 8154 8155 8154 8155 8153 8155 8154 8155 8156 8158 8159 8157 8154 8157 8155 8155 8155 8154 8153 8156 8155 8155 8153 8156 8158 8161 8160 8159 8157 8157 8157 
8140 8141 8145 8141 8140 8140 8137 8140 8141 8141 8137 8130 8120 8127 8129 8131 8130 8134 8138 8142 8143 8140 8140 8140 8136 8140 8125 8109 8102 8106 8100 8110 8114 8107 8104 8123 8139 8141 8135 8134 8136 8135 8143 8143 8140 8145 8150 8150 8151 8150 8153 8154 8154 8153 8154 8151 8154 8155 8154 8160 8157 8157 8155 8155 8154 8155 8156 8154 8155 8158 8155 8156 8155 8155 8157 8155 8156 8157 8157 8159 
8141 8143 8141 8137 8139 8138 8142 8140 8136 8141 8140 8135 8128 8126 8128 8133 8132 8134 8135 8130 8129 8124 8127 8130 8132 8127 8109 8109 8109 8110 8110 8117 8129 8122 8119 8125 8137 8140 8136 8137 8136 8135 8141 8138 8139 8146 8147 8149 8148 8151 8154 8150 8151 8152 8153 8154 8153 8155 8156 8160 8156 8156 8157 8156 8156 8156 8153 8152 8153 8155 8155 8153 8153 8157 8158 8157 8156 8156 8156 8158 
8142 8141 8141 8139 8137 8139 8137 8140 8138 8141 8139 8135 8127 8134 8130 8129 8129 8130 8128 8122 8121 8121 8123 8127 8129 8127 8124 8127 8126 8132 8131 8134 8135 8136 8136 8134 8136 8136 8134 8135 8138 8138 8140 8138 8141 8145 8149 8150 8150 8151 8150 8151 8152 8150 8152 8155 8153 8157 8157 8159 8160 8156 8156 8154 8155 8157 8155 8155 8154 8152 8154 8152 8157 8157 8159 8157 8157 8156 8156 8156 
8139 8141 8141 8141 8138 8140 8140 8140 8136 8137 8142 8140 8132 8129 8130 8132 8134 8134 8130 8130 8129 8128 8131 8136 8134 8133 8134 8136 8138 8137 8138 8137 8135 8138 8136 8136 8136 8139 8138 8138 8137 8139 8141 8141 8144 8146 8147 8150 8151 8150 8152 8151 8149 8151 8152 8155 8153 8157 8155 8162 8158 8156 8157 8156 8155 8156 8153 8152 8152 8153 8155 8153 8153 8159 8156 8156 8156 8156 8158 8154 
8142 8142 8143 8143 8140 8141 8140 8141 8138 8144 8142 8138 8131 8132 8133 8135 8134 8135 8134 8131 8130 8130 8133 8137 8135 8139 8136 8138 8138 8137 8138 8139 8138 8138 8140 8139 8142 8141 8139 8139 8142 8141 8140 8140 8147 8151 8150 8147 8151 8150 8155 8153 8151 8151 8151 8150 8152 8155 8155 8157 8158 8155 8157 8154 8156 8153 8153 8154 8153 8152 8153 8153 8156 8154 8155 8157 8155 8155 8156 8152 
8139 8141 8146 8143 8141 8138 8140 8140 8141 8145 8145 8144 8136 8138 8134 8135 8136 8138 8135 8132 8129 8134 8136 8140 8140 8137 8142 8141 8140 8142 8141 8144 8143 8142 8143 8141 8142 8141 8138 8135 8137 8137 8137 8136 8149 8148 8149 8148 8151 8151 8152 8153 8153 8150 8150 8151 8151 8154 8151 8156 8155 8153 8155 8155 8151 8154 8151 8152 8150 8152 8154 8153 8155 8154 8155 8155 8156 8153 8153 8154 
8141 8145 8145 8143 8142 8141 8140 8143 8138 8145 8145 8144 8142 8135 8130 8137 8136 8136 8135 8138 8132 8134 8135 8140 8140 8143 8142 8147 8142 8144 8145 8146 8142 8144 8142 8140 8140 8140 8133 8131 8135 8131 8134 8140 8148 8150 8151 8151 8154 8151 8152 8154 8150 8151 8152 8149 8149 8152 8153 8157 8154 8151 8156 8153 8154 8154 8150 8154 8152 8152 8154 8154 8153 8153 8151 8152 8151 8150 8151 8148 
8140 8145 8146 8142 8140 8144 8142 8144 8146 8145 8145 8144 8144 8140 8128 8130 8134 8134 8134 8133 8132 8131 8137 8140 8140 8139 8141 8143 8143 8142 8141 8143 8141 8142 8142 8139 8140 8141 8137 8129 8131 8129 8131 8138 8149 8153 8149 8150 8153 8148 8152 8152 8151 8152 8149 8154 8153 8151 8152 8153 8152 8151 8153 8152 8153 8155 8153 8153 8155 8153 8154 8150 8154 8153 8150 8149 8148 8150 8150 8149 
8143 8145 8143 8145 8141 8141 8148 8143 8144 8147 8146 8145 8145 8140 8123 8128 8128 8130 8131 8129 8131 8131 8135 8138 8140 8141 8139 8138 8140 8141 8140 8144 8138 8140 8141 8137 8140 8140 8134 8129 8128 8128 8127 8138 8147 8148 8152 8151 8154 8149 8154 8151 8150 8150 8150 8153 8151 8152 8147 8151 8150 8145 8151 8152 8148 8152 8148 8149 8150 8150 8151 8151 8150 8146 8148 8146 8148 8146 8144 8143 
8139 8144 8143 8144 8140 8140 8143 8142 8146 8147 8144 8146 8143 8144 8124 8123 8123 8125 8127 8130 8127 8129 8132 8134 8136 8139 8139 8138 8138 8144 8141 8142 8137 8137 8137 8134 8134 8136 8129 8127 8126 8126 8128 8138 8147 8148 8151 8151 8152 8150 8151 8153 8151 8152 8152 8154 8154 8152 8148 8150 8148 8146 8147 8147 8149 8149 8147 8152 8151 8149 8153 8151 8151 8145 8151 8146 8146 8143 8144 8145 
8139 8144 8144 8144 8145 8143 8146 8144 8140 8147 8146 8142 8144 8143 8126 8118 8123 8123 8124 8126 8127 8126 8128 8134 8134 8135 8136 8136 8138 8142 8137 8137 8138 8136 8132 8130 8128 8129 8126 8123 8124 8126 8130 8140 8144 8146 8148 8147 8149 8149 8150 8148 8151 8152 8151 8155 8149 8155 8148 8147 8143 8142 8143 8146 8144 8144 8144 8146 8148 8148 8148 8148 8146 8142 8142 8140 8141 8141 8143 8141 
8140 8140 8141 8145 8143 8142 8145 8145 8141 8145 8143 8144 8146 8144 8125 8115 8122 8119 8121 8122 8122 8122 8125 8130 8131 8130 8133 8133 8135 8136 8134 8131 8133 8133 8130 8130 8125 8124 8123 8121 8123 8123 8130 8141 8143 8144 8144 8148 8151 8150 8150 8150 8152 8153 8152 8154 8154 8154 8151 8147 8145 8140 8143 8144 8145 8144 8142 8144 8144 8147 8149 8146 8144 8137 8139 8139 8135 8136 8138 8138 
8140 8140 8140 8141 8137 8139 8140 8141 8136 8142 8141 8145 8143 8148 8131 8115 8116 8116 8118 8119 8117 8118 8121 8127 8126 8129 8129 8129 8133 8132 8130 8130 8125 8128 8129 8126 8123 8121 8121 8119 8121 8124 8129 8144 8144 8145 8152 8152 8154 8153 8157 8160 8159 8157 8157 8163 8159 8160 8156 8153 8146 8141 8137 8140 8139 8142 8136 8139 8143 8144 8143 8141 8139 8135 8138 8135 8135 8132 8137 8138 
8137 8142 8139 8141 8138 8137 8136 8133 8130 8139 8137 8143 8149 8150 8141 8114 8112 8112 8114 8114 8118 8113 8121 8123 8123 8126 8128 8126 8125 8127 8126 8125 8127 8125 8126 8122 8121 8120 8118 8119 8119 8126 8130 8152 8152 8154 8155 8159 8162 8158 8163 8162 8161 8160 8163 8164 8162 8164 8160 8157 8149 8144 8141 8138 8139 8140 8140 8140 8140 8137 8139 8138 8135 8138 8137 8131 8133 8129 8133 8140 
8134 8138 8138 8131 8129 8126 8127 8131 8132 8136 8137 8147 8149 8152 8147 8120 8112 8112 8113 8113 8113 8115 8116 8121 8122 8124 8124 8124 8126 8125 8124 8124 8122 8124 8122 8119 8120 8119 8118 8117 8119 8120 8133 8152 8154 8159 8157 8159 8162 8162 8165 8164 8166 8166 8163 8166 8163 8165 8162 8162 8152 8143 8143 8139 8139 8141 8136 8137 8136 8140 8138 8137 8135 8135 8136 8133 8133 8131 8131 8133 
8133 8133 8128 8132 8121 8122 8125 8132 8128 8139 8144 8144 8147 8152 8149 8130 8109 8110 8109 8114 8110 8111 8116 8122 8120 8123 8122 8121 8125 8124 8122 8122 8122 8123 8123 8118 8116 8119 8117 8114 8115 8118 8132 8153 8157 8157 8161 8158 8160 8163 8166 8169 8168 8168 8167 8167 8164 8164 8161 8167 8156 8151 8143 8142 8142 8141 8132 8133 8135 8138 8139 8135 8134 8133 8131 8131 8131 8132 8135 8133 
8132 8130 8127 8124 8125 8125 8128 8127 8135 8145 8144 8147 8149 8151 8150 8136 8110 8109 8107 8109 8107 8109 8112 8115 8116 8118 8118 8120 8122 8123 8120 8121 8122 8122 8119 8116 8114 8117 8118 8113 8114 8119 8137 8154 8160 8161 8160 8162 8164 8164 8167 8168 8169 8171 8169 8171 8166 8168 8165 8166 8162 8153 8147 8142 8141 8140 8134 8136 8135 8138 8135 8134 8132 8133 8134 8130 8131 8133 8134 8133 
8131 8133 8125 8125 8126 8126 8131 8133 8139 8147 8145 8146 8147 8148 8147 8142 8114 8104 8103 8106 8106 8110 8113 8118 8115 8119 8121 8117 8121 8124 8123 8123 8123 8121 8121 8120 8116 8115 8114 8116 8116 8123 8145 8157 8161 8162 8164 8165 8169 8167 8169 8171 8168 8172 8169 8169 8165 8169 8167 8167 8162 8158 8150 8148 8142 8141 8137 8134 8136 8139 8139 8134 8133 8133 8130 8128 8130 8131 8136 8132 
8135 8130 8126 8124 8125 8125 8132 8135 8134 8142 8143 8145 8147 8147 8146 8142 8115 8107 8101 8103 8104 8107 8112 8118 8115 8117 8120 8119 8120 8123 8124 8124 8124 8121 8123 8117 8114 8120 8117 8116 8116 8122 8146 8158 8161 8163 8165 8168 8167 8164 8168 8170 8170 8171 8171 8170 8167 8170 8166 8166 8166 8158 8154 8147 8138 8143 8137 8135 8137 8136 8135 8133 8133 8132 8133 8126 8133 8134 8132 8137 


