P2
80 60
8332
8201 8202 8209 8208 8220 8232 8234 8239 8244 8251 8255 8260 8268 8270 8272 8274 8276 8275 8272 8279 8279 8280 8283 8283 8286 8288 8289 8291 8295 8299 8297 8302 8305 8304 8301 8300 8302 8308 8311 8308 8304 8308 8312 8312 8311 8309 8302 8301 8296 8291 8288 8285 8285 8284 8283 8285 8287 8293 8300 8297 8299 8299 8298 8302 8304 8305 8307 8309 8317 8321 8316 8321 8321 8317 8326 8332 8330 8329 8329 8328 
8200 8206 8209 8217 8242 8259 8258 8260 8264 8266 8267 8266 8271 8271 8268 8272 8276 8274 8275 8276 8279 8284 8286 8289 8283 8288 8291 8293 8298 8299 8300 8303 8305 8304 8305 8307 8309 8307 8307 8307 8304 8309 8309 8311 8308 8307 8301 8302 8294 8290 8287 8285 8286 8282 8282 8281 8290 8296 8299 8295 8293 8297 8299 8299 8306 8305 8306 8311 8313 8319 8315 8317 8317 8314 8317 8328 8327 8326 8325 8330 
8202 8205 8207 8222 8254 8271 8266 8271 8273 8274 8272 8273 8275 8277 8276 8275 8281 8281 8278 8279 8280 8282 8288 8291 8290 8293 8295 8296 8298 8303 8304 8303 8304 8307 8307 8308 8309 8308 8312 8306 8305 8312 8310 8308 8309 8306 8303 8306 8298 8291 8287 8291 8284 8284 8281 8287 8290 8298 8296 8296 8296 8298 8299 8302 8303 8305 8306 8309 8314 8316 8314 8316 8319 8313 8315 8323 8327 8327 8324 8321 
8200 8208 8210 8225 8265 8272 8272 8273 8275 8276 8278 8277 8281 8281 8281 8278 8286 8284 8280 8287 8287 8289 8290 8296 8290 8297 8296 8298 8306 8306 8303 8305 8305 8306 8308 8311 8311 8309 8310 8306 8304 8309 8307 8306 8305 8304 8301 8306 8296 8293 8291 8287 8286 8284 8288 8290 8291 8296 8298 8295 8294 8294 8297 8301 8306 8306 8307 8309 8312 8314 8313 8315 8317 8317 8316 8321 8327 8326 8322 8324 
8207 8214 8220 8242 8268 8273 8270 8275 8275 8278 8280 8282 8278 8283 8283 8283 8287 8287 8285 8290 8289 8292 8292 8294 8292 8296 8296 8297 8301 8307 8302 8304 8307 8306 8307 8308 8308 8307 8306 8308 8301 8310 8308 8307 8304 8306 8303 8300 8297 8293 8288 8288 8284 8289 8288 8293 8293 8295 8296 8294 8295 8297 8299 8298 8304 8306 8307 8308 8312 8316 8315 8317 8319 8314 8316 8319 8328 8326 8326 8320 
8208 8212 8221 8254 8271 8272 8273 8274 8278 8283 8278 8280 8282 8284 8282 8284 8284 8288 8288 8288 8288 8287 8288 8294 8290 8294 8298 8297 8303 8304 8299 8302 8306 8302 8302 8304 8307 8305 8304 8306 8304 8305 8306 8303 8306 8302 8300 8300 8295 8290 8291 8291 8287 8292 8291 8290 8294 8295 8297 8293 8298 8300 8299 8305 8306 8305 8307 8307 8312 8315 8316 8317 8316 8315 8315 8317 8325 8326 8324 8323 
8212 8219 8230 8261 8271 8272 8273 8273 8281 8280 8278 8275 8281 8276 8281 8282 8284 8285 8286 8289 8284 8285 8289 8292 8291 8290 8296 8297 8298 8303 8299 8302 8306 8296 8290 8295 8299 8295 8299 8300 8302 8303 8304 8303 8305 8302 8302 8299 8295 8292 8287 8287 8287 8292 8291 8291 8294 8297 8297 8295 8298 8297 8299 8302 8306 8306 8306 8307 8309 8310 8311 8313 8314 8309 8313 8310 8325 8326 8324 8323 
8215 8220 8247 8268 8273 8275 8273 8275 8277 8279 8275 8274 8279 8279 8282 8277 8283 8286 8287 8285 8287 8286 8286 8289 8291 8293 8294 8295 8298 8300 8300 8297 8292 8259 8213 8255 8241 8227 8264 8299 8302 8304 8302 8302 8299 8301 8298 8296 8295 8293 8287 8290 8289 8292 8293 8296 8294 8295 8295 8294 8296 8299 8301 8304 8307 8305 8308 8307 8307 8310 8310 8313 8313 8310 8308 8310 8316 8323 8319 8317 
8220 8229 8261 8271 8277 8275 8275 8274 8279 8278 8274 8272 8279 8280 8280 8281 8286 8286 8283 8284 8283 8288 8287 8293 8288 8293 8292 8294 8299 8302 8296 8287 8253 8181 8175 8175 8168 8181 8258 8298 8299 8296 8296 8289 8285 8291 8295 8297 8294 8289 8291 8291 8292 8294 8293 8293 8295 8294 8300 8294 8295 8300 8298 8302 8306 8305 8306 8308 8307 8307 8311 8313 8312 8309 8306 8307 8311 8320 8320 8320 
8223 8238 8265 8270 8277 8277 8274 8276 8281 8275 8274 8274 8276 8280 8282 8279 8285 8282 8284 8287 8285 8289 8284 8292 8287 8290 8293 8297 8297 8299 8287 8244 8197 8189 8192 8171 8175 8212 8268 8274 8269 8270 8245 8233 8231 8270 8294 8297 8292 8292 8290 8290 8288 8296 8291 8291 8292 8293 8298 8294 8294 8296 8300 8303 8305 8301 8304 8302 8306 8306 8306 8307 8311 8309 8307 8307 8306 8313 8317 8315 
8225 8252 8266 8270 8275 8277 8276 8277 8278 8274 8275 8274 8276 8278 8278 8278 8283 8288 8286 8286 8285 8287 8286 8292 8288 8292 8293 8295 8300 8296 8265 8212 8181 8202 8201 8218 8250 8227 8187 8178 8171 8222 8220 8219 8222 8261 8292 8295 8289 8290 8288 8286 8287 8292 8291 8288 8290 8291 8293 8291 8294 8293 8295 8303 8302 8302 8299 8300 8301 8306 8305 8308 8311 8308 8305 8304 8307 8308 8314 8314 
8238 8264 8272 8273 8279 8275 8276 8274 8278 8276 8274 8272 8274 8280 8280 8278 8282 8284 8285 8285 8283 8285 8282 8287 8283 8290 8292 8293 8294 8277 8195 8162 8163 8181 8234 8220 8188 8167 8163 8159 8174 8247 8227 8217 8221 8251 8289 8292 8287 8286 8281 8284 8282 8288 8286 8286 8292 8290 8292 8290 8293 8294 8295 8299 8299 8296 8297 8298 8300 8302 8304 8306 8306 8303 8306 8306 8306 8305 8311 8307 
8251 8267 8275 8275 8277 8277 8274 8275 8277 8277 8272 8269 8275 8276 8273 8273 8280 8281 8279 8279 8277 8277 8280 8280 8281 8284 8289 8290 8285 8223 8164 8163 8179 8199 8247 8207 8179 8168 8165 8158 8172 8207 8226 8213 8220 8240 8284 8287 8284 8282 8281 8278 8280 8281 8287 8284 8286 8288 8289 8287 8288 8289 8295 8292 8295 8297 8293 8293 8297 8300 8301 8304 8304 8300 8303 8302 8303 8304 8304 8300 
8255 8272 8274 8273 8274 8273 8271 8275 8275 8273 8269 8266 8268 8274 8274 8275 8272 8276 8276 8276 8271 8274 8273 8273 8272 8280 8283 8281 8265 8190 8181 8177 8167 8159 8185 8224 8194 8174 8176 8172 8176 8222 8242 8212 8220 8233 8279 8281 8282 8283 8278 8277 8277 8277 8280 8281 8280 8284 8283 8285 8286 8284 8289 8292 8291 8293 8292 8293 8292 8293 8300 8300 8300 8301 8300 8300 8301 8299 8298 8298 
8254 8273 8274 8273 8274 8272 8271 8270 8270 8271 8268 8264 8262 8269 8268 8270 8275 8273 8272 8274 8268 8273 8271 8273 8272 8278 8279 8280 8275 8263 8203 8159 8157 8154 8162 8213 8205 8224 8210 8192 8190 8233 8253 8211 8214 8226 8271 8279 8276 8280 8277 8275 8275 8277 8276 8278 8282 8284 8286 8285 8285 8284 8289 8290 8288 8290 8290 8290 8290 8291 8293 8297 8299 8298 8298 8304 8300 8297 8298 8293 
8260 8269 8269 8272 8272 8274 8268 8267 8270 8266 8263 8262 8266 8265 8270 8269 8272 8269 8274 8271 8268 8270 8270 8276 8273 8277 8280 8278 8280 8234 8168 8161 8159 8176 8192 8258 8217 8208 8198 8182 8196 8230 8258 8211 8214 8224 8263 8276 8279 8277 8276 8273 8273 8276 8274 8273 8277 8283 8282 8281 8281 8283 8287 8287 8289 8289 8289 8288 8290 8290 8290 8293 8297 8294 8297 8297 8299 8294 8294 8288 
8265 8273 8270 8268 8265 8270 8267 8268 8266 8264 8262 8262 8262 8265 8266 8266 8274 8271 8273 8272 8272 8270 8272 8276 8276 8279 8275 8277 8278 8247 8226 8231 8216 8234 8225 8212 8189 8186 8170 8169 8184 8223 8241 8214 8213 8224 8255 8276 8275 8277 8276 8273 8276 8276 8277 8277 8276 8276 8279 8278 8279 8279 8282 8286 8287 8288 8287 8290 8286 8287 8287 8291 8295 8293 8293 8294 8295 8292 8287 8285 
8261 8270 8269 8265 8265 8268 8266 8265 8263 8260 8262 8259 8264 8268 8269 8270 8272 8274 8276 8276 8273 8274 8272 8278 8276 8281 8281 8279 8281 8277 8263 8223 8179 8167 8170 8164 8178 8182 8205 8226 8238 8245 8242 8208 8199 8207 8230 8265 8275 8280 8280 8277 8281 8281 8280 8280 8278 8279 8277 8279 8278 8277 8281 8284 8284 8286 8286 8288 8287 8284 8287 8290 8292 8288 8287 8289 8289 8285 8286 8283 
8261 8267 8266 8260 8263 8263 8262 8263 8259 8258 8260 8259 8270 8270 8271 8273 8277 8276 8280 8277 8273 8275 8273 8278 8273 8278 8278 8276 8276 8265 8198 8153 8156 8161 8174 8176 8167 8162 8191 8239 8238 8228 8221 8168 8161 8166 8171 8219 8266 8281 8281 8280 8278 8281 8284 8279 8280 8280 8279 8278 8278 8278 8283 8283 8283 8284 8284 8284 8286 8285 8285 8286 8289 8288 8285 8282 8286 8282 8277 8278 
8264 8262 8261 8261 8262 8264 8262 8260 8259 8257 8261 8263 8270 8272 8274 8274 8279 8275 8276 8275 8272 8270 8271 8274 8271 8273 8275 8270 8252 8226 8183 8152 8156 8177 8183 8170 8158 8160 8186 8183 8167 8163 8161 8158 8159 8160 8176 8244 8255 8266 8275 8281 8279 8281 8281 8280 8277 8278 8281 8279 8281 8278 8279 8280 8283 8281 8281 8285 8287 8284 8285 8285 8286 8284 8282 8283 8284 8276 8275 8273 
8260 8262 8262 8259 8260 8262 8260 8260 8257 8260 8267 8263 8271 8272 8271 8271 8276 8276 8275 8275 8270 8271 8268 8271 8268 8268 8269 8246 8222 8179 8152 8150 8158 8165 8153 8153 8157 8154 8163 8171 8158 8155 8154 8161 8159 8167 8198 8239 8252 8261 8272 8279 8278 8278 8279 8277 8278 8279 8280 8279 8280 8278 8282 8283 8282 8283 8280 8285 8285 8283 8281 8283 8285 8284 8282 8282 8282 8277 8273 8271 
8259 8261 8262 8260 8262 8261 8259 8256 8256 8265 8267 8268 8270 8274 8275 8270 8276 8274 8275 8272 8267 8268 8268 8269 8267 8263 8237 8210 8175 8165 8153 8151 8160 8158 8152 8146 8160 8164 8157 8162 8160 8168 8172 8169 8166 8160 8162 8175 8201 8241 8272 8280 8276 8279 8279 8279 8278 8278 8279 8276 8281 8279 8281 8284 8284 8284 8281 8284 8286 8282 8284 8283 8284 8282 8282 8279 8278 8273 8272 8267 
8257 8260 8261 8259 8262 8258 8258 8259 8259 8263 8267 8266 8270 8273 8273 8271 8273 8274 8274 8269 8271 8266 8268 8269 8262 8223 8165 8159 8157 8165 8153 8151 8152 8162 8152 8151 8157 8206 8167 8159 8158 8162 8171 8170 8165 8160 8155 8158 8160 8177 8226 8277 8276 8277 8277 8275 8276 8278 8278 8278 8277 8283 8283 8284 8282 8284 8284 8286 8282 8286 8284 8285 8286 8284 8283 8279 8278 8275 8268 8271 
8256 8258 8260 8254 8256 8257 8258 8257 8261 8263 8265 8265 8269 8270 8270 8269 8273 8270 8271 8269 8265 8267 8263 8265 8227 8160 8150 8153 8153 8155 8147 8147 8155 8179 8158 8151 8153 8193 8161 8157 8156 8154 8152 8158 8168 8177 8160 8157 8158 8170 8191 8255 8269 8272 8275 8275 8275 8274 8276 8277 8277 8277 8281 8282 8282 8282 8284 8282 8283 8280 8284 8280 8280 8282 8282 8278 8276 8273 8269 8269 
8254 8259 8259 8258 8259 8261 8256 8259 8260 8264 8264 8266 8266 8270 8270 8268 8272 8270 8271 8269 8266 8264 8263 8260 8229 8157 8148 8153 8153 8147 8146 8147 8147 8157 8167 8188 8185 8173 8157 8156 8155 8162 8156 8157 8157 8178 8157 8176 8202 8218 8250 8258 8257 8271 8273 8274 8272 8276 8276 8274 8280 8276 8279 8279 8282 8281 8282 8283 8284 8282 8280 8279 8283 8279 8279 8280 8278 8275 8268 8267 
8258 8261 8261 8259 8260 8260 8257 8261 8261 8263 8264 8268 8269 8269 8268 8267 8271 8273 8268 8271 8270 8267 8263 8260 8194 8152 8150 8158 8162 8149 8144 8145 8147 8157 8181 8205 8198 8175 8158 8155 8154 8154 8153 8157 8155 8156 8160 8157 8168 8233 8254 8262 8256 8266 8271 8270 8274 8275 8276 8276 8277 8278 8278 8278 8280 8282 8280 8283 8282 8282 8280 8281 8283 8281 8281 8281 8281 8276 8268 8266 
8261 8261 8263 8262 8261 8263 8259 8260 8263 8262 8267 8266 8270 8267 8273 8267 8272 8267 8269 8271 8268 8265 8263 8255 8186 8154 8148 8157 8158 8147 8143 8154 8152 8156 8162 8190 8181 8165 8156 8157 8164 8157 8155 8155 8159 8155 8155 8159 8160 8212 8250 8263 8261 8263 8270 8271 8273 8273 8274 8275 8276 8275 8280 8277 8281 8280 8279 8282 8283 8282 8281 8281 8281 8280 8282 8280 8281 8276 8269 8265 
8261 8267 8259 8261 8258 8262 8263 8262 8262 8264 8264 8265 8269 8268 8268 8267 8270 8268 8265 8270 8264 8261 8261 8247 8178 8154 8152 8155 8154 8148 8151 8167 8160 8156 8156 8169 8164 8169 8162 8163 8164 8159 8154 8158 8175 8160 8158 8157 8154 8163 8216 8258 8261 8261 8272 8272 8274 8271 8274 8273 8275 8272 8277 8277 8282 8280 8280 8283 8281 8279 8278 8280 8282 8279 8280 8281 8279 8274 8271 8269 
8266 8265 8263 8261 8262 8266 8264 8264 8266 8264 8269 8267 8271 8268 8271 8268 8270 8269 8271 8268 8263 8262 8259 8242 8190 8161 8164 8155 8156 8155 8168 8191 8163 8156 8161 8175 8158 8164 8167 8169 8170 8163 8160 8163 8173 8171 8156 8158 8154 8172 8221 8260 8261 8260 8269 8271 8271 8273 8276 8274 8273 8273 8275 8276 8280 8281 8281 8282 8281 8278 8280 8278 8282 8283 8281 8281 8278 8276 8273 8271 
8266 8266 8262 8259 8264 8270 8268 8264 8266 8267 8267 8268 8270 8268 8268 8267 8270 8268 8264 8266 8263 8262 8261 8243 8206 8170 8194 8161 8157 8171 8187 8199 8183 8158 8161 8180 8167 8168 8174 8175 8177 8178 8164 8167 8182 8175 8181 8159 8153 8186 8232 8259 8260 8263 8270 8270 8274 8271 8274 8275 8273 8273 8275 8276 8280 8278 8278 8282 8280 8279 8279 8277 8281 8278 8280 8282 8282 8278 8274 8272 
8260 8264 8262 8261 8264 8268 8269 8264 8266 8266 8270 8267 8271 8270 8267 8265 8264 8267 8263 8264 8260 8261 8259 8245 8219 8213 8214 8170 8165 8199 8202 8211 8208 8171 8169 8188 8179 8178 8178 8181 8182 8172 8165 8177 8168 8166 8189 8176 8164 8200 8221 8261 8259 8260 8267 8269 8269 8272 8270 8271 8274 8274 8273 8274 8278 8279 8277 8278 8276 8279 8279 8277 8279 8278 8276 8280 8279 8276 8272 8269 
8262 8267 8261 8261 8262 8269 8266 8266 8269 8264 8267 8268 8268 8269 8264 8265 8264 8265 8261 8264 8262 8259 8256 8253 8230 8240 8221 8205 8202 8215 8207 8211 8206 8192 8189 8190 8180 8184 8184 8183 8176 8163 8165 8164 8166 8166 8171 8192 8184 8204 8216 8258 8257 8263 8266 8269 8271 8272 8273 8269 8274 8272 8276 8275 8276 8276 8277 8278 8277 8277 8277 8280 8282 8275 8278 8278 8280 8277 8269 8266 
8261 8264 8267 8261 8266 8266 8264 8266 8268 8267 8268 8269 8267 8267 8265 8265 8263 8265 8264 8262 8259 8261 8261 8258 8237 8245 8228 8225 8206 8209 8222 8216 8206 8199 8196 8197 8200 8199 8182 8187 8199 8177 8201 8172 8176 8173 8194 8199 8193 8206 8225 8258 8253 8264 8266 8267 8270 8271 8270 8272 8270 8273 8274 8272 8275 8274 8276 8277 8277 8279 8276 8278 8280 8276 8275 8278 8280 8276 8270 8267 
8262 8269 8267 8263 8264 8265 8267 8266 8267 8267 8267 8267 8269 8269 8266 8263 8263 8264 8264 8264 8259 8263 8261 8260 8242 8247 8244 8236 8214 8212 8221 8218 8214 8214 8204 8203 8203 8207 8202 8199 8210 8213 8213 8192 8181 8196 8208 8205 8199 8214 8246 8258 8259 8265 8266 8269 8270 8269 8268 8270 8269 8272 8273 8273 8274 8272 8276 8275 8277 8275 8277 8276 8276 8275 8279 8276 8279 8278 8270 8268 
8265 8269 8267 8264 8264 8265 8264 8264 8268 8264 8264 8266 8269 8270 8262 8261 8260 8261 8264 8263 8260 8261 8260 8264 8258 8245 8245 8233 8217 8225 8222 8225 8226 8226 8214 8209 8202 8190 8191 8193 8203 8202 8203 8202 8198 8208 8214 8211 8216 8221 8249 8252 8263 8268 8266 8268 8267 8268 8266 8269 8270 8272 8270 8270 8274 8272 8274 8275 8273 8271 8273 8273 8273 8273 8274 8278 8273 8272 8271 8265 
8268 8270 8264 8261 8264 8266 8265 8270 8269 8267 8263 8265 8266 8266 8265 8262 8262 8264 8262 8263 8264 8261 8260 8261 8260 8254 8250 8236 8218 8220 8229 8228 8227 8232 8227 8216 8215 8202 8200 8197 8201 8190 8194 8203 8220 8222 8220 8211 8232 8238 8250 8248 8261 8266 8266 8264 8269 8267 8266 8268 8272 8269 8270 8272 8272 8273 8273 8273 8274 8273 8271 8275 8272 8272 8274 8268 8274 8272 8270 8265 
8268 8269 8267 8264 8263 8267 8265 8267 8268 8267 8265 8264 8266 8268 8267 8264 8264 8266 8263 8264 8260 8263 8259 8262 8260 8257 8254 8248 8236 8234 8238 8231 8228 8229 8221 8208 8208 8217 8216 8207 8209 8201 8201 8211 8224 8225 8211 8219 8251 8253 8250 8250 8263 8266 8266 8266 8264 8267 8266 8269 8269 8267 8269 8267 8273 8273 8271 8273 8271 8270 8274 8274 8275 8271 8270 8271 8272 8269 8267 8265 
8266 8271 8268 8265 8266 8265 8264 8263 8269 8268 8263 8265 8264 8267 8267 8263 8263 8265 8264 8265 8259 8260 8261 8265 8258 8256 8243 8253 8250 8235 8235 8238 8235 8227 8223 8206 8208 8213 8226 8230 8227 8229 8221 8223 8231 8215 8216 8237 8248 8257 8253 8250 8263 8266 8267 8265 8266 8267 8267 8269 8271 8269 8269 8266 8269 8272 8268 8270 8268 8272 8274 8271 8272 8269 8270 8269 8268 8266 8264 8260 
8264 8267 8268 8263 8269 8267 8266 8266 8265 8269 8265 8265 8266 8270 8266 8266 8264 8264 8265 8262 8258 8262 8259 8260 8262 8262 8238 8244 8249 8251 8236 8239 8231 8223 8223 8227 8226 8216 8224 8228 8220 8226 8222 8228 8235 8226 8228 8246 8256 8264 8253 8254 8264 8265 8266 8266 8268 8267 8270 8268 8267 8270 8270 8267 8269 8272 8269 8272 8270 8270 8270 8271 8272 8269 8270 8269 8268 8266 8264 8263 
8268 8271 8265 8266 8271 8270 8268 8265 8266 8266 8268 8263 8265 8265 8267 8263 8266 8266 8261 8264 8257 8261 8261 8262 8261 8261 8244 8238 8241 8252 8254 8251 8237 8228 8227 8231 8232 8227 8227 8228 8227 8227 8234 8239 8246 8242 8247 8257 8264 8258 8245 8260 8264 8264 8266 8267 8269 8267 8271 8269 8269 8268 8270 8270 8269 8274 8271 8271 8268 8271 8269 8273 8273 8269 8270 8268 8269 8266 8263 8260 
8267 8268 8269 8266 8271 8268 8265 8268 8268 8263 8267 8266 8267 8266 8266 8262 8265 8265 8264 8265 8259 8262 8260 8260 8261 8264 8253 8240 8243 8262 8262 8260 8255 8246 8235 8239 8241 8231 8227 8236 8238 8239 8235 8248 8254 8258 8254 8256 8260 8252 8250 8259 8263 8266 8263 8263 8268 8267 8269 8269 8269 8269 8272 8266 8270 8269 8270 8271 8272 8272 8272 8272 8272 8270 8270 8268 8269 8265 8261 8256 
8266 8272 8268 8267 8267 8267 8265 8268 8269 8268 8268 8266 8266 8265 8264 8263 8264 8266 8265 8263 8261 8262 8257 8262 8260 8263 8260 8240 8243 8251 8266 8267 8259 8256 8254 8249 8250 8245 8244 8248 8253 8255 8253 8258 8264 8264 8259 8237 8225 8241 8256 8262 8261 8268 8264 8264 8268 8269 8267 8271 8269 8269 8269 8270 8270 8272 8268 8270 8270 8277 8270 8272 8276 8269 8270 8269 8269 8264 8259 8258 
8267 8270 8267 8268 8265 8268 8268 8266 8267 8267 8267 8267 8266 8269 8268 8265 8265 8267 8262 8263 8262 8261 8260 8260 8260 8265 8266 8255 8244 8245 8261 8268 8266 8261 8257 8257 8254 8254 8256 8255 8256 8258 8259 8266 8265 8267 8254 8220 8227 8253 8259 8261 8265 8266 8266 8263 8269 8266 8267 8273 8270 8273 8273 8272 8271 8272 8271 8274 8271 8271 8270 8272 8272 8269 8266 8267 8271 8262 8260 8256 
8270 8272 8269 8268 8268 8268 8268 8267 8266 8266 8269 8265 8269 8268 8266 8265 8267 8267 8264 8265 8262 8264 8262 8263 8262 8266 8267 8265 8250 8243 8249 8265 8272 8268 8262 8264 8264 8261 8266 8264 8262 8265 8264 8268 8269 8267 8256 8245 8248 8262 8259 8262 8262 8267 8270 8266 8267 8269 8268 8273 8272 8268 8269 8273 8277 8272 8270 8274 8272 8272 8272 8272 8270 8272 8271 8270 8268 8265 8262 8256 
8270 8271 8269 8270 8270 8268 8267 8267 8267 8267 8263 8267 8269 8269 8268 8266 8265 8267 8264 8264 8263 8261 8261 8263 8263 8267 8269 8266 8262 8249 8242 8251 8266 8272 8267 8266 8265 8266 8267 8263 8264 8264 8266 8272 8270 8263 8251 8254 8258 8263 8259 8263 8261 8264 8270 8267 8269 8271 8267 8272 8271 8268 8270 8270 8273 8270 8272 8271 8273 8272 8275 8272 8272 8274 8275 8270 8272 8262 8258 8261 
8267 8269 8268 8266 8267 8267 8264 8265 8269 8267 8267 8266 8269 8268 8267 8265 8265 8268 8266 8265 8261 8260 8263 8268 8266 8265 8269 8268 8267 8267 8257 8242 8248 8260 8270 8272 8278 8275 8274 8272 8265 8270 8274 8269 8259 8254 8258 8263 8260 8261 8262 8265 8266 8269 8269 8267 8267 8268 8267 8273 8272 8270 8270 8273 8276 8270 8271 8271 8271 8273 8271 8272 8274 8271 8271 8269 8266 8264 8256 8255 
8266 8271 8268 8266 8267 8265 8268 8269 8268 8261 8264 8266 8271 8267 8264 8263 8266 8268 8266 8268 8264 8265 8259 8266 8266 8270 8270 8272 8273 8273 8267 8261 8258 8251 8250 8260 8267 8273 8277 8273 8266 8263 8258 8257 8263 8267 8266 8263 8263 8266 8264 8268 8270 8268 8269 8269 8268 8269 8269 8270 8271 8273 8272 8274 8271 8271 8272 8274 8271 8271 8272 8275 8274 8272 8270 8267 8270 8264 8262 8258 
8268 8270 8269 8262 8267 8270 8265 8265 8265 8256 8259 8263 8269 8267 8266 8262 8266 8270 8266 8262 8263 8266 8265 8269 8267 8271 8272 8273 8274 8279 8272 8268 8271 8269 8263 8259 8258 8258 8257 8256 8259 8261 8266 8272 8269 8267 8269 8269 8267 8269 8269 8271 8267 8271 8266 8263 8268 8266 8267 8268 8273 8271 8274 8272 8274 8271 8270 8274 8275 8274 8272 8274 8277 8272 8270 8268 8267 8263 8260 8260 
8269 8271 8264 8262 8264 8269 8266 8266 8264 8264 8264 8265 8270 8269 8269 8268 8270 8266 8265 8267 8264 8265 8265 8269 8267 8273 8274 8278 8277 8280 8276 8274 8274 8272 8273 8277 8277 8275 8278 8273 8270 8270 8274 8273 8273 8270 8270 8270 8266 8271 8269 8270 8271 8271 8269 8268 8269 8267 8268 8267 8269 8272 8273 8273 8272 8269 8273 8275 8273 8276 8271 8274 8277 8275 8272 8270 8267 8265 8261 8258 
8270 8273 8264 8265 8265 8267 8265 8265 8269 8264 8264 8263 8268 8267 8267 8265 8268 8265 8264 8265 8262 8265 8265 8267 8268 8273 8274 8277 8278 8279 8281 8281 8278 8275 8276 8278 8277 8274 8277 8274 8272 8272 8274 8273 8274 8272 8271 8271 8267 8270 8269 8271 8268 8268 8271 8270 8269 8267 8267 8267 8268 8267 8271 8271 8271 8269 8271 8273 8273 8275 8273 8277 8275 8274 8273 8272 8266 8265 8259 8256 
8271 8271 8271 8265 8266 8268 8266 8267 8267 8265 8266 8263 8267 8269 8266 8264 8267 8267 8265 8269 8262 8264 8263 8270 8266 8275 8276 8277 8278 8282 8279 8282 8278 8279 8277 8273 8275 8274 8281 8275 8274 8272 8273 8277 8276 8274 8272 8275 8274 8274 8275 8273 8272 8273 8274 8272 8265 8271 8267 8270 8269 8268 8273 8269 8270 8268 8275 8274 8274 8271 8270 8273 8272 8270 8270 8272 8266 8260 8261 8261 
8267 8270 8269 8264 8268 8266 8265 8267 8268 8264 8266 8262 8266 8268 8268 8263 8269 8266 8267 8264 8263 8264 8267 8270 8271 8275 8278 8282 8283 8281 8282 8283 8283 8280 8280 8277 8277 8277 8279 8276 8276 8279 8276 8277 8274 8279 8278 8273 8278 8279 8274 8274 8273 8271 8273 8268 8271 8266 8270 8268 8273 8269 8273 8270 8273 8272 8270 8273 8274 8269 8272 8276 8274 8269 8268 8270 8266 8262 8261 8258 
8266 8271 8265 8263 8264 8268 8266 8265 8269 8265 8264 8263 8268 8269 8270 8266 8266 8267 8270 8267 8264 8262 8267 8269 8270 8277 8278 8282 8282 8283 8280 8284 8284 8282 8282 8280 8281 8279 8282 8277 8275 8279 8278 8278 8277 8281 8279 8278 8278 8281 8278 8277 8274 8271 8271 8267 8271 8270 8268 8269 8269 8271 8270 8269 8269 8271 8270 8272 8273 8272 8273 8273 8271 8271 8269 8270 8265 8263 8258 8255 
8268 8267 8267 8264 8269 8267 8267 8266 8269 8266 8266 8268 8269 8271 8269 8262 8266 8267 8269 8271 8266 8267 8266 8268 8270 8277 8278 8282 8282 8282 8284 8282 8285 8283 8285 8284 8288 8282 8286 8281 8278 8280 8280 8282 8283 8284 8284 8280 8276 8278 8276 8277 8275 8271 8270 8269 8269 8271 8265 8264 8269 8271 8270 8270 8269 8270 8272 8273 8270 8269 8272 8272 8273 8270 8266 8269 8268 8260 8259 8254 
8266 8269 8264 8264 8268 8267 8265 8269 8270 8267 8268 8266 8268 8271 8269 8265 8267 8266 8265 8268 8264 8265 8266 8271 8269 8272 8278 8275 8281 8282 8282 8280 8285 8284 8285 8284 8287 8283 8288 8284 8280 8284 8283 8284 8286 8284 8283 8278 8277 8276 8275 8274 8272 8271 8271 8270 8270 8269 8270 8267 8266 8269 8268 8267 8270 8270 8269 8272 8268 8270 8269 8269 8272 8266 8269 8266 8263 8257 8260 8252 
8267 8270 8265 8266 8267 8271 8268 8268 8272 8268 8267 8268 8270 8270 8269 8268 8271 8272 8269 8268 8265 8267 8267 8270 8269 8273 8277 8276 8281 8282 8283 8282 8283 8285 8284 8287 8286 8287 8288 8286 8281 8286 8285 8284 8284 8283 8280 8279 8275 8281 8276 8275 8273 8274 8271 8272 8270 8273 8271 8268 8268 8269 8270 8269 8268 8272 8268 8269 8268 8267 8268 8268 8267 8270 8266 8264 8260 8258 8255 8252 
8267 8272 8266 8264 8268 8267 8265 8269 8273 8266 8267 8264 8272 8270 8265 8264 8270 8270 8269 8267 8261 8266 8268 8270 8269 8274 8276 8278 8278 8282 8282 8285 8285 8283 8284 8283 8286 8285 8288 8285 8283 8284 8285 8285 8283 8283 8281 8278 8280 8279 8277 8280 8274 8274 8267 8268 8271 8269 8272 8269 8271 8268 8267 8265 8272 8270 8272 8270 8270 8267 8269 8270 8267 8269 8266 8262 8260 8257 8252 8255 
8266 8271 8269 8263 8269 8266 8262 8266 8275 8269 8267 8268 8267 8269 8268 8264 8265 8266 8268 8267 8263 8265 8265 8269 8268 8273 8276 8278 8280 8284 8283 8283 8286 8284 8285 8285 8287 8287 8286 8284 8280 8285 8286 8283 8285 8285 8282 8282 8278 8280 8275 8279 8274 8275 8272 8272 8269 8275 8269 8268 8270 8272 8269 8267 8274 8272 8269 8269 8268 8264 8266 8267 8267 8265 8265 8259 8260 8254 8254 8251 
8269 8275 8265 8266 8269 8267 8266 8266 8270 8270 8268 8267 8270 8270 8267 8263 8267 8267 8268 8269 8264 8261 8263 8270 8269 8272 8278 8280 8277 8284 8281 8282 8285 8283 8283 8285 8285 8284 8286 8286 8283 8285 8282 8286 8284 8286 8282 8281 8278 8280 8277 8281 8277 8275 8271 8271 8269 8271 8270 8270 8270 8267 8269 8270 8269 8272 8274 8268 8263 8265 8264 8265 8265 8263 8262 8260 8255 8254 8256 8256 
8273 8270 8267 8263 8267 8267 8265 8265 8268 8271 8263 8267 8267 8268 8269 8261 8269 8268 8270 8267 8265 8263 8263 8270 8270 8275 8273 8275 8279 8282 8279 8282 8288 8283 8283 8285 8287 8287 8288 8283 8282 8281 8286 8286 8285 8287 8281 8282 8279 8278 8277 8278 8274 8274 8273 8275 8273 8272 8271 8270 8272 8266 8266 8267 8269 8269 8265 8265 8265 8260 8257 8264 8263 8259 8261 8261 8257 8252 8253 8251 


