P2
80 60
8324
8165 8167 8170 8168 8169 8167 8168 8161 8164 8164 8166 8166 8162 8163 8167 8169 8171 8168 8170 8171 8173 8176 8175 8175 8175 8173 8173 8173 8173 8176 8181 8181 8182 8183 8188 8191 8191 8189 8187 8190 8186 8183 8179 8177 8179 8180 8182 8178 8177 8179 8172 8172 8173 8171 8164 8166 8166 8167 8166 8167 8166 8166 8165 8162 8161 8161 8158 8158 8160 8153 8152 8153 8150 8157 8152 8148 8147 8145 8137 8136 
8162 8168 8171 8168 8172 8170 8165 8166 8164 8165 8167 8168 8168 8164 8167 8168 8171 8167 8169 8169 8173 8175 8177 8176 8175 8173 8171 8173 8178 8176 8178 8181 8181 8186 8188 8188 8189 8188 8188 8190 8183 8182 8177 8176 8177 8181 8182 8178 8178 8174 8172 8171 8173 8170 8167 8169 8166 8166 8165 8166 8166 8166 8165 8158 8161 8161 8157 8159 8158 8153 8150 8150 8151 8150 8147 8144 8142 8138 8133 8129 
8157 8164 8167 8163 8167 8166 8162 8165 8163 8164 8167 8164 8164 8163 8166 8167 8166 8166 8168 8171 8172 8172 8170 8169 8174 8176 8173 8172 8174 8172 8173 8176 8181 8186 8185 8191 8188 8187 8188 8189 8183 8180 8177 8177 8174 8179 8180 8176 8175 8175 8173 8170 8172 8170 8166 8166 8166 8166 8166 8165 8167 8165 8164 8160 8160 8156 8157 8159 8156 8152 8151 8148 8147 8150 8144 8139 8138 8139 8129 8129 
8159 8162 8167 8166 8166 8162 8164 8165 8164 8164 8162 8165 8159 8162 8162 8166 8165 8164 8169 8170 8170 8169 8167 8170 8174 8171 8172 8176 8174 8171 8174 8177 8180 8183 8186 8188 8187 8189 8186 8185 8182 8178 8176 8173 8176 8177 8177 8176 8171 8172 8174 8172 8173 8167 8165 8167 8169 8164 8167 8161 8165 8162 8162 8158 8154 8153 8149 8154 8153 8149 8147 8148 8146 8145 8141 8139 8137 8136 8130 8132 
8156 8162 8169 8164 8168 8167 8165 8163 8164 8164 8162 8164 8161 8163 8162 8162 8163 8165 8169 8173 8170 8171 8168 8171 8172 8176 8172 8173 8172 8173 8175 8178 8178 8184 8185 8189 8190 8190 8183 8186 8179 8176 8170 8172 8173 8172 8175 8175 8169 8174 8170 8169 8170 8167 8168 8165 8165 8167 8163 8164 8163 8162 8161 8156 8153 8152 8150 8153 8154 8147 8144 8144 8143 8146 8138 8136 8135 8134 8127 8120 
8156 8163 8166 8163 8167 8162 8167 8168 8164 8161 8159 8163 8159 8160 8161 8163 8164 8163 8165 8171 8168 8170 8170 8172 8174 8172 8171 8172 8175 8173 8175 8178 8183 8187 8186 8188 8189 8189 8186 8186 8183 8181 8175 8172 8172 8173 8176 8172 8172 8171 8169 8169 8170 8167 8166 8164 8166 8167 8166 8165 8163 8161 8158 8155 8155 8153 8150 8152 8150 8150 8147 8148 8141 8144 8138 8134 8133 8130 8122 8123 
8160 8171 8167 8164 8168 8168 8171 8167 8160 8157 8159 8163 8162 8162 8160 8163 8165 8166 8167 8170 8169 8169 8170 8171 8173 8171 8169 8168 8171 8170 8177 8179 8181 8183 8184 8191 8186 8186 8185 8184 8181 8182 8174 8174 8171 8172 8173 8172 8171 8171 8168 8166 8169 8168 8164 8167 8165 8162 8164 8163 8161 8159 8159 8155 8153 8154 8152 8151 8149 8146 8146 8147 8141 8142 8142 8136 8132 8130 8125 8124 
8161 8170 8169 8168 8168 8169 8166 8168 8163 8157 8159 8162 8162 8160 8161 8165 8164 8164 8167 8169 8170 8169 8169 8170 8174 8170 8168 8166 8168 8170 8174 8177 8178 8182 8185 8185 8183 8182 8182 8183 8181 8177 8173 8170 8171 8172 8172 8171 8169 8170 8167 8165 8169 8169 8164 8164 8165 8165 8165 8163 8159 8159 8159 8156 8156 8153 8152 8153 8151 8149 8144 8145 8142 8144 8141 8136 8131 8133 8125 8128 
8168 8169 8167 8166 8169 8165 8169 8167 8164 8160 8157 8163 8159 8158 8160 8161 8164 8165 8166 8170 8168 8170 8166 8170 8169 8166 8166 8169 8167 8167 8174 8175 8175 8180 8181 8186 8183 8182 8179 8181 8177 8174 8169 8167 8170 8174 8174 8172 8167 8168 8165 8162 8170 8167 8168 8166 8164 8164 8165 8163 8157 8160 8160 8154 8152 8152 8148 8153 8152 8148 8144 8144 8139 8142 8142 8139 8135 8137 8128 8129 
8163 8166 8168 8170 8166 8170 8165 8165 8163 8160 8159 8162 8159 8160 8161 8163 8165 8162 8166 8168 8169 8165 8168 8169 8166 8166 8169 8168 8165 8168 8169 8172 8172 8177 8177 8181 8183 8180 8176 8178 8176 8175 8169 8169 8167 8171 8173 8173 8167 8170 8166 8166 8167 8166 8164 8163 8164 8166 8167 8163 8160 8161 8156 8154 8153 8151 8150 8153 8151 8149 8147 8144 8139 8141 8142 8139 8141 8137 8128 8125 
8165 8165 8168 8163 8166 8165 8162 8165 8162 8159 8160 8157 8158 8157 8159 8159 8162 8163 8163 8166 8167 8167 8165 8166 8165 8164 8167 8169 8167 8167 8168 8167 8171 8175 8178 8179 8177 8178 8177 8175 8178 8170 8170 8170 8170 8173 8171 8170 8167 8168 8166 8167 8171 8168 8165 8165 8163 8164 8164 8165 8161 8160 8157 8154 8153 8149 8154 8153 8150 8151 8146 8145 8139 8144 8142 8140 8139 8138 8129 8131 
8165 8173 8168 8161 8165 8162 8157 8160 8160 8157 8160 8157 8160 8157 8159 8161 8162 8161 8163 8168 8169 8167 8164 8166 8166 8165 8164 8166 8170 8165 8169 8170 8171 8175 8172 8174 8175 8173 8172 8175 8171 8173 8168 8170 8169 8171 8173 8169 8166 8169 8168 8171 8170 8167 8166 8165 8162 8165 8165 8164 8160 8159 8157 8154 8153 8152 8152 8155 8150 8149 8145 8149 8142 8143 8142 8144 8144 8141 8134 8132 
8169 8169 8167 8161 8163 8159 8157 8155 8152 8158 8159 8160 8160 8158 8155 8162 8163 8162 8165 8165 8167 8169 8165 8164 8166 8164 8167 8163 8164 8163 8169 8166 8169 8173 8171 8173 8171 8172 8168 8170 8170 8168 8165 8167 8169 8169 8169 8169 8168 8170 8168 8169 8171 8170 8167 8166 8165 8168 8164 8163 8161 8157 8155 8153 8153 8154 8154 8154 8149 8147 8142 8144 8141 8142 8143 8145 8148 8146 8134 8133 
8165 8171 8170 8164 8166 8161 8160 8162 8152 8158 8160 8161 8160 8160 8160 8162 8164 8162 8167 8168 8167 8167 8163 8164 8162 8160 8158 8157 8165 8162 8162 8165 8164 8169 8171 8172 8164 8162 8163 8164 8165 8165 8162 8170 8167 8168 8170 8168 8169 8169 8169 8171 8171 8172 8170 8168 8167 8164 8168 8162 8159 8156 8157 8155 8156 8157 8154 8155 8152 8149 8149 8147 8143 8145 8143 8147 8148 8154 8141 8135 
8166 8165 8171 8161 8165 8159 8157 8159 8157 8162 8165 8164 8161 8160 8161 8165 8163 8163 8166 8170 8164 8159 8153 8145 8133 8105 8083 8091 8151 8154 8149 8122 8129 8148 8163 8156 8115 8110 8112 8129 8149 8159 8159 8163 8162 8164 8168 8165 8165 8169 8169 8172 8171 8172 8169 8167 8168 8170 8170 8163 8160 8158 8158 8157 8161 8157 8157 8152 8152 8150 8146 8148 8144 8146 8146 8150 8153 8152 8142 8141 
8162 8164 8166 8166 8164 8162 8156 8158 8159 8162 8164 8163 8160 8157 8160 8165 8166 8165 8168 8167 8153 8134 8098 8083 8078 8075 8082 8103 8118 8088 8091 8119 8111 8117 8125 8110 8121 8123 8132 8133 8125 8133 8141 8157 8160 8166 8162 8162 8166 8165 8171 8169 8169 8169 8169 8170 8168 8164 8163 8165 8162 8156 8157 8159 8160 8159 8155 8154 8151 8152 8147 8150 8146 8148 8148 8146 8154 8155 8141 8139 
8163 8163 8163 8165 8168 8162 8160 8161 8159 8160 8163 8162 8164 8164 8164 8164 8165 8164 8165 8154 8122 8135 8142 8092 8077 8110 8144 8101 8083 8086 8106 8123 8117 8112 8117 8121 8157 8162 8160 8159 8159 8158 8154 8160 8160 8159 8163 8165 8164 8169 8168 8170 8171 8167 8165 8165 8165 8164 8165 8161 8160 8158 8158 8159 8161 8157 8155 8156 8149 8151 8148 8150 8147 8147 8147 8150 8150 8154 8144 8143 
8166 8164 8163 8163 8162 8160 8160 8166 8160 8162 8162 8166 8163 8163 8165 8165 8163 8161 8151 8146 8157 8163 8158 8135 8149 8159 8163 8132 8134 8135 8103 8088 8081 8114 8113 8148 8150 8130 8116 8117 8134 8146 8153 8145 8146 8144 8153 8164 8167 8170 8168 8166 8170 8168 8164 8163 8160 8164 8164 8163 8162 8157 8158 8157 8157 8155 8152 8151 8151 8149 8149 8151 8148 8147 8149 8150 8150 8151 8143 8142 
8164 8161 8167 8163 8164 8163 8163 8160 8161 8161 8162 8166 8164 8160 8161 8160 8160 8159 8157 8161 8163 8163 8163 8163 8162 8161 8164 8157 8159 8156 8141 8111 8110 8106 8102 8108 8097 8071 8064 8060 8097 8123 8124 8115 8114 8113 8131 8162 8168 8169 8168 8167 8171 8165 8162 8159 8160 8159 8162 8161 8158 8155 8160 8156 8157 8153 8151 8151 8153 8149 8151 8147 8147 8151 8146 8149 8147 8150 8141 8142 
8163 8160 8164 8160 8156 8161 8164 8165 8162 8161 8163 8166 8162 8158 8157 8163 8158 8156 8156 8160 8161 8164 8161 8163 8164 8162 8161 8162 8161 8158 8155 8119 8104 8096 8132 8128 8085 8083 8065 8052 8073 8150 8151 8120 8118 8113 8135 8162 8164 8167 8164 8164 8161 8160 8160 8158 8159 8156 8158 8156 8154 8152 8155 8154 8155 8152 8150 8151 8148 8149 8147 8149 8145 8147 8149 8146 8144 8147 8142 8139 
8162 8165 8162 8155 8157 8155 8156 8160 8158 8160 8158 8162 8158 8156 8156 8158 8157 8157 8154 8161 8162 8160 8161 8162 8159 8165 8162 8162 8159 8161 8149 8151 8119 8107 8133 8111 8115 8108 8090 8075 8068 8149 8154 8120 8112 8112 8132 8163 8164 8165 8163 8160 8157 8160 8157 8156 8158 8156 8157 8157 8154 8155 8153 8154 8154 8151 8146 8149 8146 8147 8146 8147 8144 8146 8146 8144 8144 8147 8140 8142 
8162 8164 8164 8161 8158 8160 8152 8159 8150 8159 8159 8160 8159 8155 8155 8156 8155 8152 8152 8155 8163 8159 8159 8161 8162 8161 8160 8161 8160 8158 8157 8128 8117 8091 8088 8107 8137 8131 8138 8139 8126 8149 8152 8120 8117 8113 8128 8159 8160 8158 8157 8158 8157 8156 8155 8152 8156 8157 8155 8154 8152 8154 8158 8152 8150 8150 8148 8149 8148 8146 8145 8143 8142 8143 8143 8142 8141 8144 8137 8136 
8160 8164 8159 8162 8156 8156 8149 8151 8151 8158 8161 8158 8154 8154 8154 8154 8155 8148 8149 8155 8157 8159 8159 8158 8158 8158 8156 8159 8158 8155 8129 8090 8077 8078 8073 8075 8083 8078 8087 8084 8095 8128 8143 8117 8118 8113 8129 8155 8157 8157 8154 8156 8156 8155 8153 8154 8151 8155 8155 8152 8152 8151 8151 8154 8150 8147 8147 8148 8146 8144 8142 8145 8139 8143 8141 8141 8141 8142 8136 8135 
8159 8162 8160 8158 8158 8156 8154 8151 8156 8157 8154 8155 8152 8153 8156 8153 8152 8147 8154 8153 8158 8159 8157 8157 8155 8156 8155 8158 8145 8132 8115 8074 8089 8101 8075 8063 8066 8067 8125 8120 8087 8076 8098 8108 8117 8115 8129 8156 8157 8156 8154 8154 8155 8152 8155 8150 8153 8155 8152 8146 8150 8148 8152 8151 8152 8149 8149 8148 8146 8141 8140 8139 8138 8140 8140 8136 8137 8142 8132 8130 
8160 8154 8160 8163 8160 8157 8151 8154 8153 8153 8156 8152 8154 8153 8154 8154 8151 8150 8149 8153 8155 8156 8154 8155 8153 8154 8154 8154 8150 8149 8099 8100 8110 8089 8066 8063 8062 8060 8077 8140 8148 8134 8102 8103 8122 8120 8133 8154 8155 8157 8155 8154 8155 8151 8154 8150 8152 8155 8153 8150 8150 8150 8147 8148 8148 8148 8145 8150 8143 8140 8141 8140 8139 8138 8137 8134 8132 8138 8131 8130 
8155 8155 8159 8161 8159 8153 8156 8150 8149 8149 8152 8153 8148 8151 8148 8151 8152 8150 8151 8151 8156 8155 8155 8155 8151 8151 8151 8152 8153 8148 8131 8147 8149 8120 8059 8063 8061 8057 8069 8140 8151 8154 8148 8125 8129 8122 8132 8153 8157 8156 8154 8154 8153 8154 8153 8151 8152 8149 8153 8152 8150 8146 8149 8148 8150 8148 8147 8147 8141 8140 8135 8136 8136 8135 8137 8132 8133 8134 8129 8128 
8152 8154 8156 8155 8157 8156 8151 8148 8150 8149 8150 8152 8150 8150 8152 8150 8152 8150 8154 8149 8153 8153 8153 8155 8150 8150 8151 8152 8151 8149 8147 8152 8151 8101 8053 8056 8053 8061 8052 8116 8150 8152 8149 8129 8131 8128 8133 8150 8153 8154 8152 8154 8154 8151 8151 8153 8149 8152 8151 8154 8148 8147 8147 8150 8151 8147 8145 8142 8141 8138 8136 8135 8133 8135 8135 8134 8136 8135 8131 8127 
8151 8158 8156 8156 8158 8156 8154 8153 8151 8152 8150 8154 8153 8150 8150 8150 8152 8151 8154 8148 8151 8151 8150 8151 8152 8148 8147 8147 8142 8130 8109 8101 8087 8085 8059 8049 8048 8070 8081 8097 8137 8147 8148 8135 8139 8132 8133 8149 8150 8150 8151 8150 8153 8152 8153 8150 8152 8153 8153 8153 8147 8148 8151 8148 8147 8145 8144 8143 8139 8137 8138 8138 8135 8135 8138 8138 8132 8136 8135 8134 
8149 8153 8154 8155 8156 8154 8152 8150 8149 8150 8151 8156 8151 8149 8151 8149 8150 8150 8148 8149 8150 8153 8148 8151 8142 8126 8107 8093 8084 8074 8069 8063 8062 8065 8062 8047 8046 8056 8090 8076 8078 8124 8145 8136 8138 8131 8132 8147 8150 8151 8149 8148 8153 8152 8153 8152 8152 8155 8153 8149 8149 8147 8150 8146 8150 8146 8143 8142 8140 8138 8136 8135 8136 8134 8139 8138 8138 8142 8137 8140 
8152 8153 8158 8155 8156 8155 8157 8153 8151 8149 8155 8151 8152 8150 8148 8152 8151 8150 8149 8147 8151 8148 8142 8122 8086 8073 8067 8065 8084 8077 8066 8060 8059 8066 8085 8057 8054 8056 8101 8080 8070 8078 8132 8136 8136 8128 8131 8147 8145 8149 8149 8150 8153 8154 8152 8151 8152 8150 8153 8147 8149 8146 8148 8147 8146 8145 8145 8143 8138 8135 8133 8139 8136 8139 8142 8140 8143 8144 8139 8137 
8147 8154 8156 8154 8157 8156 8153 8153 8153 8149 8151 8149 8147 8151 8150 8151 8148 8146 8147 8147 8148 8143 8107 8082 8081 8086 8068 8106 8118 8077 8069 8071 8065 8093 8102 8071 8061 8059 8073 8082 8089 8085 8129 8133 8138 8129 8131 8147 8147 8146 8147 8149 8149 8152 8151 8152 8147 8151 8151 8147 8146 8148 8149 8146 8145 8145 8144 8144 8141 8137 8135 8139 8135 8140 8139 8139 8144 8147 8140 8138 
8150 8151 8152 8154 8152 8158 8151 8150 8151 8149 8149 8151 8146 8145 8148 8148 8151 8146 8148 8146 8146 8117 8076 8078 8124 8113 8102 8141 8111 8098 8102 8107 8123 8123 8110 8088 8094 8062 8068 8072 8077 8093 8124 8137 8139 8132 8133 8146 8145 8150 8147 8149 8152 8150 8147 8147 8147 8150 8151 8150 8148 8143 8145 8144 8147 8142 8144 8141 8138 8140 8139 8140 8136 8139 8140 8140 8142 8149 8141 8135 
8154 8153 8156 8154 8159 8154 8150 8149 8151 8146 8148 8146 8144 8144 8143 8151 8148 8146 8148 8142 8141 8100 8080 8134 8147 8134 8144 8148 8123 8095 8141 8136 8105 8088 8103 8105 8129 8079 8089 8097 8078 8078 8131 8136 8143 8137 8139 8148 8147 8147 8149 8147 8150 8148 8147 8143 8147 8148 8145 8147 8143 8142 8145 8146 8145 8142 8142 8142 8141 8139 8138 8137 8131 8136 8139 8140 8145 8149 8136 8136 
8154 8156 8160 8155 8155 8151 8153 8150 8148 8148 8148 8147 8144 8145 8147 8148 8150 8148 8154 8146 8144 8105 8110 8146 8153 8156 8153 8151 8145 8126 8150 8153 8123 8088 8079 8085 8129 8146 8151 8144 8090 8080 8117 8139 8150 8146 8160 8167 8156 8150 8147 8144 8146 8147 8148 8147 8146 8146 8146 8145 8141 8143 8143 8143 8146 8142 8143 8145 8140 8139 8140 8140 8132 8140 8145 8142 8146 8149 8138 8136 
8154 8150 8157 8152 8153 8151 8150 8152 8147 8145 8145 8146 8148 8144 8149 8146 8148 8150 8153 8151 8148 8112 8120 8134 8140 8143 8146 8149 8153 8154 8158 8142 8090 8064 8073 8063 8103 8168 8172 8164 8104 8087 8090 8134 8150 8152 8176 8189 8178 8153 8145 8143 8146 8141 8144 8142 8142 8145 8143 8144 8143 8144 8141 8140 8143 8141 8143 8144 8146 8138 8138 8138 8133 8142 8145 8143 8147 8147 8137 8133 
8155 8154 8157 8153 8149 8155 8151 8154 8149 8144 8144 8152 8149 8146 8147 8152 8154 8152 8152 8149 8142 8133 8126 8128 8135 8139 8148 8152 8163 8164 8158 8101 8094 8078 8066 8066 8083 8173 8183 8179 8158 8110 8131 8154 8167 8171 8178 8180 8166 8147 8144 8146 8149 8145 8145 8145 8146 8146 8142 8145 8143 8143 8144 8142 8143 8142 8142 8145 8141 8139 8140 8140 8138 8143 8148 8147 8149 8149 8137 8137 
8160 8156 8153 8153 8157 8152 8159 8151 8148 8144 8147 8152 8153 8149 8145 8148 8150 8152 8151 8152 8151 8147 8142 8145 8146 8151 8161 8169 8182 8182 8152 8115 8123 8128 8120 8121 8126 8164 8178 8178 8177 8169 8169 8171 8175 8178 8181 8180 8160 8143 8142 8142 8145 8146 8145 8144 8141 8141 8142 8142 8144 8140 8144 8139 8143 8143 8139 8140 8139 8140 8139 8139 8138 8147 8149 8149 8150 8148 8138 8137 
8155 8154 8157 8152 8158 8155 8156 8152 8151 8148 8151 8154 8151 8146 8150 8151 8148 8146 8149 8148 8149 8151 8150 8156 8150 8155 8159 8155 8157 8154 8153 8155 8159 8159 8159 8163 8164 8164 8167 8169 8170 8172 8172 8175 8178 8184 8188 8189 8163 8142 8142 8145 8148 8145 8143 8144 8138 8145 8144 8143 8140 8141 8142 8140 8143 8144 8142 8147 8142 8140 8139 8140 8139 8147 8147 8150 8150 8153 8138 8139 
8154 8153 8155 8155 8157 8157 8159 8157 8154 8152 8155 8151 8150 8147 8145 8147 8148 8150 8153 8152 8152 8146 8148 8155 8150 8152 8158 8156 8156 8156 8158 8160 8159 8162 8162 8167 8168 8166 8171 8177 8179 8181 8183 8190 8194 8203 8209 8191 8151 8142 8141 8140 8147 8144 8143 8144 8141 8145 8141 8143 8144 8140 8139 8138 8141 8142 8142 8145 8143 8138 8139 8141 8139 8144 8152 8148 8150 8151 8143 8138 
8153 8158 8165 8155 8157 8159 8160 8159 8155 8153 8157 8155 8147 8153 8149 8147 8148 8146 8159 8162 8159 8155 8156 8162 8157 8160 8163 8161 8160 8162 8164 8165 8164 8172 8171 8178 8178 8182 8182 8197 8199 8207 8206 8215 8218 8216 8201 8159 8141 8138 8139 8144 8146 8144 8143 8144 8142 8143 8141 8142 8138 8138 8142 8142 8142 8141 8138 8144 8142 8139 8136 8138 8138 8145 8151 8151 8148 8145 8143 8139 
8150 8150 8163 8149 8153 8161 8159 8160 8156 8154 8155 8154 8151 8150 8148 8150 8148 8152 8160 8169 8172 8173 8167 8175 8170 8173 8173 8171 8171 8175 8175 8182 8183 8189 8192 8198 8198 8196 8206 8211 8212 8210 8203 8206 8208 8200 8185 8151 8137 8138 8137 8139 8141 8143 8144 8144 8140 8143 8143 8142 8140 8139 8141 8141 8143 8139 8139 8137 8138 8141 8140 8137 8138 8148 8152 8148 8147 8147 8140 8140 
8143 8147 8156 8148 8153 8162 8161 8158 8159 8152 8155 8156 8155 8154 8153 8155 8154 8156 8157 8167 8180 8181 8173 8178 8180 8179 8182 8181 8179 8177 8185 8186 8189 8193 8190 8191 8190 8190 8194 8199 8193 8190 8189 8193 8198 8193 8181 8145 8138 8137 8139 8141 8141 8143 8142 8143 8141 8144 8139 8143 8140 8141 8143 8142 8146 8144 8137 8137 8140 8137 8140 8141 8138 8147 8149 8152 8152 8157 8142 8139 
8144 8145 8152 8147 8154 8156 8159 8157 8157 8156 8157 8151 8156 8156 8153 8155 8155 8158 8157 8159 8169 8173 8172 8179 8186 8181 8183 8184 8177 8172 8179 8182 8184 8182 8183 8188 8192 8194 8199 8193 8181 8176 8179 8190 8197 8191 8172 8141 8136 8138 8138 8139 8140 8144 8143 8139 8141 8142 8140 8142 8142 8144 8142 8143 8145 8142 8139 8138 8137 8140 8139 8140 8142 8142 8153 8152 8154 8153 8142 8141 
8143 8147 8151 8146 8153 8155 8156 8157 8153 8155 8152 8154 8155 8154 8157 8155 8154 8153 8155 8156 8169 8176 8177 8181 8184 8182 8183 8184 8183 8183 8186 8187 8184 8185 8186 8191 8191 8194 8185 8183 8179 8176 8178 8188 8192 8183 8168 8142 8136 8137 8134 8136 8142 8141 8144 8142 8142 8141 8141 8146 8143 8144 8141 8143 8145 8143 8137 8139 8137 8139 8140 8142 8140 8149 8151 8154 8152 8154 8143 8143 
8145 8150 8150 8145 8152 8156 8155 8151 8149 8153 8152 8156 8154 8155 8155 8157 8157 8157 8156 8157 8167 8184 8186 8189 8187 8190 8185 8182 8183 8185 8189 8185 8187 8188 8187 8190 8187 8182 8180 8180 8176 8174 8175 8181 8185 8178 8162 8140 8135 8134 8135 8138 8137 8140 8139 8138 8142 8141 8141 8142 8141 8140 8144 8142 8142 8140 8137 8139 8140 8137 8136 8138 8142 8145 8145 8151 8152 8148 8143 8142 
8143 8147 8149 8147 8152 8152 8155 8153 8150 8153 8154 8152 8154 8155 8158 8159 8159 8155 8158 8158 8167 8190 8194 8193 8193 8199 8195 8192 8191 8188 8192 8194 8195 8198 8195 8192 8188 8181 8179 8180 8176 8173 8176 8181 8182 8177 8157 8138 8131 8134 8133 8134 8135 8136 8136 8140 8141 8140 8139 8140 8139 8140 8143 8139 8142 8140 8139 8141 8141 8139 8135 8136 8143 8147 8146 8145 8149 8147 8140 8139 
8146 8149 8150 8148 8155 8153 8157 8153 8149 8149 8153 8153 8154 8153 8155 8156 8158 8155 8157 8157 8168 8185 8189 8194 8197 8200 8198 8192 8195 8192 8193 8196 8198 8199 8197 8195 8188 8182 8177 8179 8178 8177 8173 8176 8174 8172 8153 8138 8129 8134 8136 8135 8140 8135 8134 8136 8138 8142 8140 8141 8139 8139 8142 8139 8138 8140 8139 8137 8136 8137 8135 8136 8138 8147 8147 8143 8148 8145 8141 8138 
8164 8165 8160 8161 8156 8156 8155 8155 8161 8153 8153 8152 8151 8150 8153 8154 8153 8158 8154 8157 8163 8181 8189 8197 8198 8196 8196 8194 8192 8189 8195 8198 8197 8198 8198 8195 8185 8183 8179 8180 8177 8178 8172 8171 8171 8165 8144 8126 8127 8134 8134 8132 8136 8137 8136 8136 8137 8140 8136 8137 8136 8138 8135 8135 8141 8138 8136 8135 8140 8138 8136 8142 8138 8141 8153 8152 8149 8149 8139 8140 
8185 8186 8190 8182 8167 8156 8159 8155 8164 8175 8160 8156 8153 8149 8150 8151 8154 8149 8152 8151 8156 8180 8187 8197 8195 8194 8193 8191 8189 8184 8188 8190 8195 8198 8196 8192 8189 8182 8179 8180 8179 8176 8170 8173 8169 8163 8130 8105 8113 8135 8128 8133 8136 8139 8134 8134 8134 8139 8136 8134 8134 8137 8139 8136 8135 8138 8135 8134 8140 8134 8140 8138 8141 8145 8150 8152 8149 8148 8143 8147 
8171 8166 8173 8163 8156 8155 8162 8160 8172 8170 8170 8166 8166 8151 8150 8151 8160 8158 8159 8153 8151 8172 8190 8193 8191 8184 8190 8191 8185 8184 8185 8188 8191 8191 8191 8191 8187 8185 8178 8180 8179 8175 8170 8172 8165 8155 8124 8107 8102 8123 8130 8133 8139 8137 8130 8129 8133 8136 8133 8131 8135 8135 8142 8138 8137 8134 8132 8137 8138 8138 8137 8145 8150 8150 8152 8155 8151 8153 8147 8150 
8192 8176 8182 8164 8163 8158 8181 8175 8176 8178 8187 8185 8162 8151 8154 8165 8178 8170 8163 8153 8151 8164 8181 8193 8178 8177 8181 8182 8186 8186 8187 8185 8188 8187 8188 8190 8184 8181 8180 8181 8177 8173 8168 8167 8163 8152 8122 8107 8111 8126 8130 8131 8134 8136 8113 8118 8126 8123 8116 8122 8138 8137 8138 8138 8139 8130 8140 8143 8143 8140 8145 8159 8160 8168 8170 8155 8158 8161 8154 8155 
8209 8202 8175 8170 8180 8208 8200 8198 8178 8182 8224 8225 8192 8180 8180 8192 8226 8203 8183 8159 8153 8161 8180 8183 8169 8184 8179 8180 8181 8182 8182 8188 8186 8184 8190 8186 8181 8179 8177 8179 8175 8169 8164 8163 8159 8152 8123 8113 8114 8124 8124 8123 8131 8132 8129 8118 8131 8137 8120 8129 8138 8138 8127 8127 8132 8138 8136 8152 8157 8146 8165 8168 8167 8166 8176 8177 8175 8171 8164 8160 
8216 8198 8199 8223 8228 8245 8243 8263 8261 8257 8246 8254 8252 8258 8268 8249 8251 8244 8229 8188 8167 8168 8173 8178 8178 8174 8175 8173 8173 8172 8174 8180 8180 8181 8182 8182 8180 8178 8171 8174 8171 8169 8162 8165 8152 8137 8122 8120 8111 8116 8119 8123 8118 8131 8131 8120 8130 8138 8135 8129 8144 8144 8136 8126 8137 8145 8136 8141 8158 8158 8152 8177 8183 8187 8172 8176 8170 8180 8166 8165 
8201 8207 8232 8242 8243 8244 8251 8266 8271 8258 8243 8255 8257 8273 8288 8264 8251 8253 8240 8234 8207 8182 8178 8182 8178 8170 8170 8171 8163 8164 8167 8164 8166 8168 8172 8173 8176 8173 8168 8165 8159 8155 8141 8138 8128 8121 8125 8124 8122 8123 8128 8129 8120 8122 8126 8120 8120 8127 8131 8127 8135 8141 8144 8128 8146 8150 8143 8150 8161 8160 8158 8167 8179 8189 8192 8168 8172 8177 8168 8169 
8212 8246 8259 8258 8257 8262 8276 8283 8267 8271 8269 8271 8294 8304 8292 8285 8275 8261 8269 8279 8248 8197 8187 8186 8183 8174 8171 8170 8167 8162 8164 8160 8162 8165 8168 8169 8166 8163 8149 8144 8136 8130 8127 8127 8122 8122 8120 8125 8124 8126 8128 8129 8124 8129 8127 8128 8127 8126 8129 8134 8128 8136 8137 8128 8131 8137 8144 8144 8155 8175 8182 8170 8170 8185 8182 8177 8168 8182 8168 8168 
8263 8269 8261 8247 8247 8255 8297 8286 8243 8244 8243 8248 8311 8307 8278 8253 8245 8240 8251 8279 8270 8219 8204 8196 8185 8160 8166 8166 8170 8155 8149 8152 8159 8150 8153 8151 8155 8149 8136 8133 8130 8135 8128 8131 8125 8128 8123 8120 8126 8125 8128 8129 8130 8127 8130 8131 8133 8136 8137 8140 8134 8138 8146 8147 8150 8152 8160 8169 8165 8171 8189 8199 8198 8202 8207 8189 8186 8175 8174 8172 
8276 8285 8286 8284 8283 8291 8310 8299 8296 8302 8312 8308 8316 8316 8298 8279 8274 8279 8284 8284 8279 8248 8207 8199 8187 8167 8165 8175 8171 8165 8158 8148 8161 8148 8142 8151 8150 8143 8139 8141 8130 8139 8135 8134 8129 8126 8125 8123 8129 8126 8130 8133 8129 8129 8140 8141 8143 8143 8144 8141 8141 8136 8158 8165 8165 8182 8193 8220 8209 8198 8224 8229 8219 8214 8218 8232 8231 8185 8171 8166 
8280 8282 8282 8285 8303 8291 8282 8274 8278 8287 8318 8316 8293 8281 8272 8260 8255 8276 8280 8258 8247 8246 8217 8207 8197 8180 8189 8186 8179 8161 8155 8161 8162 8158 8140 8149 8148 8147 8145 8148 8142 8136 8131 8138 8130 8124 8129 8142 8147 8144 8158 8178 8182 8170 8192 8198 8204 8188 8196 8190 8166 8162 8178 8175 8183 8182 8202 8223 8230 8218 8220 8250 8254 8250 8227 8235 8219 8177 8171 8175 
8289 8285 8291 8306 8307 8288 8288 8301 8305 8312 8324 8304 8284 8276 8266 8257 8259 8276 8276 8259 8257 8253 8250 8238 8211 8200 8195 8191 8181 8167 8168 8156 8158 8160 8141 8151 8152 8152 8146 8152 8144 8146 8145 8141 8130 8123 8150 8172 8184 8182 8200 8215 8221 8200 8208 8222 8220 8205 8189 8173 8171 8170 8174 8184 8194 8198 8195 8237 8248 8252 8225 8235 8233 8226 8234 8219 8210 8168 8169 8174 
8306 8306 8309 8291 8281 8271 8276 8302 8311 8312 8293 8281 8263 8251 8249 8252 8259 8255 8248 8253 8252 8246 8249 8268 8261 8233 8193 8181 8176 8170 8175 8173 8161 8160 8152 8157 8154 8148 8152 8162 8181 8193 8191 8157 8135 8131 8148 8162 8173 8174 8188 8217 8217 8216 8212 8236 8239 8225 8192 8180 8174 8179 8169 8186 8194 8194 8196 8204 8222 8219 8210 8211 8224 8239 8231 8215 8174 8171 8170 8177 


