P2
80 60
8289
8226 8217 8224 8221 8235 8233 8225 8231 8233 8229 8234 8240 8238 8236 8234 8240 8239 8236 8239 8235 8243 8243 8244 8239 8243 8248 8246 8245 8250 8251 8251 8254 8253 8251 8254 8251 8252 8254 8255 8252 8254 8250 8254 8252 8251 8250 8247 8249 8247 8248 8245 8242 8243 8237 8235 8233 8234 8232 8233 8232 8233 8237 8237 8238 8239 8241 8244 8243 8246 8249 8250 8250 8254 8254 8253 8248 8248 8252 8245 8242 
8221 8227 8234 8226 8234 8231 8220 8228 8224 8231 8230 8235 8229 8235 8230 8234 8234 8232 8235 8241 8245 8244 8245 8237 8246 8243 8237 8242 8252 8246 8246 8255 8252 8250 8247 8245 8247 8258 8258 8255 8255 8252 8248 8247 8246 8247 8243 8245 8244 8242 8242 8242 8241 8236 8233 8234 8230 8229 8234 8232 8235 8236 8239 8234 8237 8238 8243 8243 8244 8245 8245 8246 8251 8248 8251 8247 8248 8248 8244 8242 
8213 8212 8218 8215 8230 8221 8221 8230 8224 8229 8231 8229 8222 8230 8233 8232 8236 8235 8230 8239 8238 8238 8241 8235 8240 8243 8239 8243 8246 8237 8241 8244 8249 8250 8249 8242 8247 8255 8256 8253 8250 8248 8244 8249 8245 8243 8244 8244 8237 8239 8240 8238 8235 8236 8234 8234 8230 8231 8230 8226 8234 8234 8233 8235 8231 8233 8237 8241 8242 8244 8241 8241 8244 8245 8244 8241 8246 8246 8240 8241 
8226 8209 8230 8214 8227 8222 8228 8230 8229 8228 8222 8218 8229 8228 8227 8229 8233 8235 8229 8232 8233 8230 8224 8237 8240 8240 8241 8242 8245 8247 8245 8247 8250 8248 8250 8245 8252 8253 8254 8250 8250 8247 8245 8243 8241 8241 8242 8241 8239 8240 8238 8235 8237 8234 8234 8233 8227 8225 8230 8226 8231 8230 8230 8229 8227 8226 8232 8235 8239 8241 8236 8239 8241 8241 8244 8237 8247 8246 8239 8237 
8222 8212 8226 8217 8225 8226 8231 8222 8219 8226 8220 8218 8224 8226 8224 8229 8232 8228 8235 8231 8234 8232 8230 8229 8239 8245 8239 8239 8240 8244 8244 8246 8249 8244 8247 8248 8249 8251 8252 8249 8249 8248 8242 8239 8238 8233 8236 8239 8237 8240 8237 8234 8234 8230 8234 8232 8229 8231 8227 8229 8230 8230 8227 8226 8226 8226 8223 8225 8236 8234 8236 8238 8235 8237 8236 8233 8240 8239 8235 8238 
8229 8215 8215 8218 8222 8221 8231 8228 8222 8225 8215 8223 8230 8224 8222 8227 8233 8224 8233 8236 8235 8230 8237 8231 8242 8242 8237 8236 8237 8243 8247 8250 8247 8244 8247 8247 8250 8252 8251 8249 8249 8244 8246 8239 8235 8234 8236 8238 8237 8238 8238 8233 8232 8235 8232 8231 8229 8231 8231 8232 8232 8230 8228 8225 8224 8227 8225 8223 8228 8234 8234 8235 8237 8231 8234 8231 8234 8231 8235 8229 
8229 8222 8219 8229 8228 8218 8232 8234 8222 8215 8211 8231 8228 8218 8222 8230 8226 8226 8236 8239 8231 8235 8238 8233 8244 8241 8232 8233 8236 8242 8244 8247 8246 8241 8244 8245 8246 8249 8250 8250 8247 8246 8244 8244 8240 8240 8238 8239 8236 8235 8234 8232 8237 8236 8233 8230 8228 8227 8230 8231 8225 8225 8226 8224 8223 8228 8229 8229 8225 8225 8230 8229 8230 8230 8227 8225 8227 8226 8231 8226 
8228 8223 8213 8230 8221 8223 8229 8236 8231 8206 8228 8231 8226 8221 8228 8229 8226 8232 8229 8231 8236 8233 8236 8240 8239 8238 8229 8233 8238 8243 8244 8247 8247 8241 8246 8245 8246 8246 8250 8249 8245 8246 8246 8243 8240 8236 8239 8234 8234 8233 8234 8230 8233 8232 8232 8229 8226 8224 8223 8226 8225 8225 8223 8219 8223 8227 8228 8230 8225 8224 8226 8229 8228 8223 8230 8225 8227 8224 8224 8224 
8231 8219 8214 8221 8230 8224 8235 8232 8229 8214 8223 8224 8223 8224 8219 8227 8227 8224 8234 8235 8237 8229 8229 8230 8229 8239 8230 8236 8236 8238 8242 8246 8244 8245 8245 8244 8245 8246 8249 8244 8243 8245 8240 8240 8238 8235 8237 8237 8233 8229 8233 8231 8230 8230 8228 8225 8225 8225 8226 8226 8224 8224 8221 8220 8220 8220 8226 8228 8225 8226 8224 8223 8224 8223 8221 8221 8226 8224 8218 8217 
8228 8211 8220 8224 8226 8229 8217 8227 8224 8223 8221 8224 8223 8223 8220 8219 8228 8227 8236 8239 8232 8227 8233 8227 8227 8233 8231 8238 8240 8236 8238 8240 8241 8239 8246 8247 8245 8249 8246 8244 8244 8241 8242 8237 8235 8236 8234 8237 8233 8231 8230 8231 8233 8230 8226 8226 8224 8224 8225 8222 8223 8224 8223 8220 8223 8222 8224 8224 8220 8221 8223 8221 8221 8222 8220 8218 8223 8223 8217 8215 
8231 8214 8220 8221 8223 8226 8216 8224 8224 8217 8223 8222 8221 8224 8218 8222 8228 8220 8222 8227 8232 8229 8232 8232 8229 8229 8233 8237 8239 8239 8240 8238 8238 8239 8239 8239 8239 8241 8245 8243 8240 8240 8241 8240 8238 8236 8236 8233 8230 8231 8234 8231 8233 8230 8227 8223 8223 8222 8224 8221 8224 8222 8224 8221 8216 8217 8221 8220 8220 8221 8220 8219 8216 8215 8215 8215 8217 8216 8211 8216 
8226 8223 8221 8218 8214 8219 8215 8226 8224 8217 8222 8220 8222 8220 8223 8223 8224 8221 8222 8235 8233 8230 8226 8230 8229 8231 8232 8235 8243 8239 8240 8240 8234 8238 8239 8233 8241 8240 8244 8239 8238 8242 8240 8241 8238 8237 8237 8233 8231 8232 8233 8232 8233 8231 8228 8227 8220 8220 8224 8224 8221 8222 8222 8218 8213 8216 8219 8219 8217 8213 8217 8214 8214 8212 8210 8210 8212 8214 8210 8213 
8226 8221 8211 8209 8211 8220 8221 8213 8218 8217 8221 8215 8216 8219 8222 8229 8225 8226 8227 8229 8230 8228 8226 8226 8233 8230 8225 8235 8237 8233 8242 8236 8237 8238 8234 8233 8241 8242 8241 8236 8236 8237 8239 8240 8238 8241 8232 8232 8233 8232 8235 8233 8233 8230 8227 8226 8220 8221 8220 8221 8221 8217 8218 8215 8214 8217 8216 8218 8216 8212 8211 8211 8211 8212 8208 8211 8215 8212 8210 8212 
8229 8229 8222 8218 8220 8221 8220 8223 8214 8219 8221 8219 8217 8217 8224 8222 8229 8228 8230 8232 8229 8228 8224 8227 8232 8233 8227 8231 8234 8237 8240 8232 8237 8237 8237 8238 8237 8240 8238 8233 8234 8235 8239 8239 8236 8236 8235 8235 8232 8229 8233 8232 8237 8233 8230 8228 8222 8223 8219 8220 8219 8217 8217 8216 8216 8214 8218 8216 8213 8216 8216 8214 8213 8212 8208 8212 8213 8216 8208 8210 
8232 8216 8221 8221 8220 8217 8216 8224 8217 8214 8222 8222 8223 8226 8224 8228 8226 8225 8231 8233 8223 8227 8226 8227 8229 8231 8232 8229 8234 8238 8235 8234 8236 8231 8238 8236 8238 8239 8239 8233 8234 8235 8237 8238 8233 8230 8228 8230 8230 8229 8231 8232 8232 8233 8230 8226 8223 8225 8221 8224 8221 8217 8216 8214 8217 8220 8217 8218 8217 8213 8217 8210 8209 8210 8208 8210 8214 8211 8207 8211 
8235 8206 8210 8221 8221 8212 8219 8222 8218 8223 8221 8219 8216 8216 8223 8227 8228 8226 8231 8234 8224 8224 8222 8226 8225 8235 8231 8228 8231 8233 8237 8232 8236 8233 8236 8235 8238 8239 8237 8234 8233 8236 8235 8233 8232 8230 8228 8229 8227 8230 8233 8231 8235 8233 8226 8227 8224 8223 8217 8223 8218 8214 8214 8219 8216 8215 8214 8214 8212 8214 8215 8211 8212 8212 8212 8210 8214 8212 8211 8208 
8232 8206 8209 8219 8216 8212 8215 8217 8220 8220 8219 8220 8217 8220 8219 8229 8226 8229 8231 8228 8227 8224 8227 8225 8225 8228 8230 8232 8231 8234 8236 8238 8238 8235 8237 8238 8238 8238 8236 8235 8233 8232 8233 8235 8229 8231 8226 8226 8227 8228 8232 8229 8233 8228 8224 8225 8219 8221 8218 8221 8220 8218 8214 8215 8214 8216 8214 8216 8214 8214 8215 8211 8212 8210 8213 8212 8213 8211 8208 8211 
8231 8214 8217 8210 8216 8220 8218 8224 8216 8224 8222 8218 8225 8228 8227 8227 8226 8225 8230 8229 8230 8230 8228 8222 8223 8234 8234 8229 8229 8233 8236 8236 8239 8236 8240 8235 8237 8236 8237 8233 8232 8231 8234 8235 8231 8233 8229 8228 8229 8230 8230 8230 8228 8228 8222 8226 8217 8221 8216 8221 8216 8217 8216 8214 8212 8213 8215 8217 8215 8212 8214 8212 8211 8215 8214 8217 8214 8212 8208 8209 
8229 8215 8216 8216 8216 8214 8221 8225 8225 8216 8224 8224 8226 8223 8224 8227 8226 8227 8226 8225 8224 8231 8229 8223 8227 8235 8234 8226 8230 8228 8232 8235 8237 8237 8238 8233 8235 8235 8234 8230 8231 8233 8231 8234 8230 8231 8227 8229 8226 8229 8229 8227 8227 8224 8220 8221 8221 8217 8216 8220 8217 8217 8218 8217 8214 8213 8212 8213 8213 8215 8214 8214 8212 8212 8211 8212 8209 8213 8209 8210 
8226 8212 8215 8214 8213 8221 8221 8223 8225 8218 8224 8224 8222 8220 8225 8227 8223 8225 8220 8226 8224 8229 8228 8223 8228 8224 8229 8225 8227 8228 8230 8231 8234 8233 8225 8221 8223 8228 8224 8228 8228 8224 8229 8229 8228 8226 8226 8229 8226 8228 8228 8226 8226 8226 8226 8220 8224 8219 8217 8216 8217 8216 8218 8215 8214 8211 8210 8214 8212 8215 8216 8212 8213 8216 8216 8214 8214 8215 8209 8211 
8228 8218 8208 8207 8206 8212 8213 8224 8222 8219 8220 8222 8221 8218 8218 8231 8226 8220 8216 8227 8220 8223 8229 8224 8224 8221 8223 8227 8224 8229 8229 8231 8235 8230 8228 8212 8195 8196 8195 8212 8206 8195 8194 8191 8206 8217 8220 8222 8224 8225 8227 8226 8229 8225 8226 8225 8222 8220 8218 8216 8215 8217 8215 8216 8216 8215 8212 8217 8212 8214 8215 8217 8214 8214 8215 8213 8211 8214 8209 8212 
8226 8221 8213 8221 8222 8219 8206 8223 8212 8219 8216 8216 8225 8221 8215 8222 8222 8218 8218 8223 8223 8225 8222 8227 8220 8217 8209 8205 8199 8212 8216 8215 8223 8227 8232 8229 8225 8197 8185 8182 8182 8191 8176 8189 8193 8182 8184 8211 8220 8221 8224 8224 8226 8226 8226 8224 8223 8218 8214 8215 8217 8216 8215 8216 8214 8214 8215 8214 8213 8214 8214 8212 8211 8212 8214 8214 8215 8215 8212 8213 
8231 8218 8216 8222 8220 8215 8207 8205 8208 8221 8224 8219 8217 8220 8221 8218 8218 8215 8216 8224 8227 8226 8222 8217 8195 8175 8172 8172 8180 8177 8179 8178 8180 8200 8207 8224 8218 8183 8187 8183 8188 8210 8213 8207 8220 8199 8167 8172 8204 8222 8226 8225 8226 8224 8228 8219 8224 8219 8215 8213 8217 8216 8217 8220 8216 8217 8214 8216 8214 8214 8214 8211 8213 8210 8215 8214 8215 8215 8216 8216 
8230 8222 8217 8219 8221 8222 8217 8210 8216 8221 8223 8218 8221 8222 8225 8224 8221 8223 8216 8226 8227 8223 8208 8174 8182 8196 8183 8167 8187 8208 8204 8199 8186 8181 8182 8192 8202 8183 8178 8180 8209 8222 8225 8223 8220 8218 8208 8176 8174 8217 8223 8223 8227 8224 8227 8218 8221 8219 8218 8219 8215 8217 8219 8219 8216 8216 8214 8217 8217 8213 8214 8214 8212 8214 8213 8217 8213 8217 8214 8216 
8230 8211 8218 8224 8220 8216 8215 8220 8220 8213 8222 8219 8224 8220 8223 8223 8223 8225 8217 8220 8228 8212 8184 8204 8218 8220 8214 8207 8223 8220 8227 8226 8223 8201 8188 8199 8210 8191 8181 8201 8220 8225 8224 8217 8215 8211 8207 8201 8193 8197 8220 8222 8220 8225 8225 8223 8226 8221 8218 8217 8214 8216 8216 8220 8219 8218 8214 8217 8214 8213 8213 8210 8214 8213 8215 8213 8211 8215 8215 8218 
8232 8213 8214 8224 8220 8211 8220 8211 8209 8215 8216 8223 8220 8220 8221 8222 8224 8223 8219 8221 8224 8194 8215 8218 8219 8219 8221 8223 8223 8223 8225 8229 8226 8225 8211 8192 8216 8202 8195 8213 8201 8201 8201 8186 8171 8171 8173 8178 8181 8177 8180 8183 8206 8221 8219 8220 8219 8222 8217 8221 8217 8216 8214 8216 8214 8216 8214 8215 8214 8215 8213 8215 8214 8213 8216 8211 8213 8213 8216 8217 
8228 8220 8213 8219 8213 8218 8217 8211 8213 8216 8213 8226 8219 8221 8223 8222 8221 8224 8223 8220 8211 8204 8219 8219 8216 8218 8223 8223 8225 8226 8228 8227 8224 8225 8222 8212 8194 8200 8193 8216 8206 8211 8208 8186 8183 8200 8208 8212 8208 8208 8182 8168 8178 8198 8198 8206 8214 8217 8220 8221 8219 8216 8216 8216 8217 8219 8215 8218 8212 8212 8213 8213 8214 8214 8213 8214 8217 8214 8216 8217 
8229 8223 8221 8225 8225 8212 8220 8219 8215 8220 8216 8221 8223 8220 8221 8222 8225 8225 8223 8218 8215 8217 8223 8221 8219 8222 8225 8225 8229 8228 8223 8230 8223 8221 8221 8221 8210 8188 8181 8187 8187 8180 8174 8186 8212 8219 8214 8216 8220 8222 8214 8195 8174 8185 8196 8196 8197 8214 8221 8221 8215 8215 8217 8217 8216 8216 8216 8213 8209 8209 8213 8211 8214 8211 8215 8217 8219 8218 8216 8215 
8229 8216 8216 8225 8217 8221 8218 8220 8218 8223 8222 8223 8223 8221 8225 8219 8221 8223 8221 8220 8219 8220 8220 8225 8222 8220 8223 8221 8226 8222 8223 8226 8221 8214 8210 8215 8215 8200 8187 8206 8194 8189 8196 8189 8217 8215 8214 8219 8218 8219 8220 8217 8206 8194 8201 8201 8205 8218 8222 8216 8217 8218 8216 8220 8220 8217 8215 8211 8207 8211 8212 8210 8209 8211 8213 8215 8214 8221 8217 8216 
8224 8215 8215 8222 8218 8222 8221 8221 8222 8218 8223 8223 8222 8220 8217 8222 8220 8224 8221 8222 8218 8220 8220 8224 8223 8218 8220 8219 8217 8217 8213 8204 8188 8174 8172 8172 8189 8193 8191 8199 8187 8211 8218 8216 8216 8215 8216 8216 8215 8217 8222 8220 8207 8200 8205 8203 8211 8217 8219 8218 8214 8215 8215 8218 8218 8217 8214 8211 8209 8208 8210 8211 8212 8210 8216 8211 8213 8222 8218 8220 
8230 8219 8217 8225 8220 8222 8216 8221 8222 8214 8221 8216 8215 8222 8221 8219 8221 8217 8218 8216 8214 8214 8221 8222 8217 8215 8218 8216 8201 8188 8190 8193 8174 8167 8169 8167 8169 8177 8175 8171 8173 8198 8213 8217 8215 8219 8213 8219 8217 8221 8223 8216 8199 8201 8203 8204 8215 8217 8220 8216 8214 8216 8223 8221 8218 8214 8216 8212 8208 8211 8210 8210 8212 8215 8217 8214 8219 8221 8218 8217 
8229 8219 8213 8220 8214 8223 8215 8216 8223 8217 8214 8219 8219 8215 8217 8218 8220 8214 8215 8216 8212 8221 8219 8219 8220 8212 8213 8206 8189 8170 8184 8176 8168 8166 8169 8169 8169 8172 8174 8172 8168 8171 8183 8215 8219 8220 8218 8219 8221 8222 8221 8207 8200 8203 8202 8208 8215 8217 8220 8217 8219 8220 8218 8223 8218 8218 8216 8210 8211 8212 8215 8213 8215 8213 8212 8215 8215 8221 8219 8218 
8230 8222 8214 8221 8213 8221 8216 8215 8220 8219 8215 8218 8208 8217 8215 8219 8219 8212 8214 8213 8215 8224 8217 8218 8217 8214 8215 8204 8202 8192 8179 8166 8166 8159 8171 8167 8188 8179 8184 8179 8172 8176 8173 8192 8216 8221 8218 8222 8217 8221 8216 8198 8203 8206 8203 8213 8215 8219 8218 8216 8217 8217 8218 8217 8220 8218 8215 8212 8212 8213 8215 8213 8210 8214 8211 8216 8216 8218 8214 8219 
8232 8215 8224 8224 8224 8220 8217 8219 8222 8216 8218 8217 8212 8218 8217 8216 8217 8220 8219 8214 8215 8217 8215 8216 8219 8219 8216 8215 8214 8210 8195 8170 8158 8164 8178 8170 8190 8189 8190 8209 8193 8192 8193 8180 8210 8220 8221 8217 8221 8216 8215 8203 8207 8206 8206 8217 8216 8217 8217 8214 8214 8217 8218 8219 8218 8217 8213 8215 8217 8218 8215 8215 8213 8218 8219 8215 8218 8221 8218 8215 
8234 8223 8223 8222 8222 8216 8221 8224 8217 8215 8216 8218 8214 8211 8217 8216 8218 8219 8221 8216 8218 8220 8213 8214 8217 8218 8212 8213 8215 8211 8200 8165 8160 8167 8188 8175 8170 8173 8186 8207 8213 8215 8214 8192 8192 8214 8216 8218 8219 8220 8212 8208 8210 8206 8215 8218 8219 8217 8214 8216 8216 8218 8218 8219 8216 8214 8213 8214 8214 8215 8210 8213 8211 8213 8216 8215 8217 8216 8216 8216 
8236 8223 8220 8224 8219 8217 8221 8225 8218 8209 8207 8219 8221 8214 8220 8220 8221 8221 8220 8217 8223 8221 8219 8211 8217 8210 8213 8211 8214 8207 8188 8164 8167 8169 8170 8170 8169 8173 8178 8182 8195 8202 8207 8213 8200 8212 8214 8214 8215 8218 8207 8213 8212 8211 8220 8216 8219 8216 8217 8216 8217 8221 8220 8215 8216 8213 8215 8214 8214 8213 8212 8211 8210 8209 8212 8217 8217 8214 8212 8216 
8235 8226 8226 8223 8223 8221 8224 8218 8225 8211 8216 8225 8223 8217 8217 8216 8219 8217 8218 8220 8217 8218 8223 8212 8214 8209 8213 8213 8209 8195 8176 8168 8165 8167 8167 8167 8168 8169 8171 8172 8182 8180 8190 8206 8219 8219 8220 8217 8217 8211 8211 8214 8211 8215 8220 8218 8216 8219 8215 8216 8219 8219 8219 8214 8217 8215 8216 8210 8212 8211 8212 8213 8215 8212 8216 8217 8213 8215 8217 8214 
8230 8225 8225 8226 8223 8220 8222 8222 8223 8219 8221 8224 8219 8217 8216 8220 8211 8213 8212 8217 8213 8217 8221 8215 8213 8220 8218 8216 8201 8180 8172 8170 8170 8176 8182 8175 8171 8171 8174 8173 8177 8179 8180 8192 8216 8218 8214 8216 8213 8212 8213 8216 8215 8221 8221 8219 8217 8217 8218 8216 8216 8219 8214 8216 8215 8214 8215 8213 8214 8215 8214 8213 8214 8214 8218 8213 8216 8223 8218 8215 
8230 8227 8218 8226 8228 8223 8225 8227 8220 8220 8221 8219 8219 8218 8215 8210 8219 8213 8213 8218 8214 8208 8216 8217 8219 8216 8219 8206 8186 8176 8174 8177 8187 8192 8197 8187 8168 8172 8176 8184 8176 8174 8179 8188 8200 8209 8213 8212 8211 8213 8215 8213 8214 8220 8218 8219 8216 8217 8217 8210 8213 8215 8216 8215 8215 8214 8216 8218 8215 8211 8212 8212 8209 8211 8214 8217 8217 8218 8212 8214 
8229 8226 8236 8225 8225 8226 8227 8223 8223 8224 8225 8219 8216 8216 8217 8212 8211 8210 8218 8214 8216 8210 8219 8220 8215 8212 8219 8213 8209 8186 8189 8191 8204 8192 8179 8182 8174 8175 8194 8196 8177 8171 8175 8178 8188 8202 8208 8212 8207 8208 8211 8211 8218 8218 8221 8219 8218 8216 8219 8213 8212 8213 8213 8213 8215 8214 8215 8214 8214 8214 8213 8209 8210 8211 8216 8216 8216 8218 8214 8213 
8227 8226 8235 8218 8226 8227 8225 8226 8222 8221 8218 8220 8215 8212 8224 8214 8209 8217 8225 8225 8227 8235 8247 8251 8242 8243 8250 8247 8238 8224 8217 8206 8205 8181 8178 8193 8183 8182 8201 8209 8185 8177 8180 8178 8181 8186 8205 8210 8205 8211 8212 8210 8218 8220 8219 8217 8215 8215 8217 8216 8213 8216 8217 8215 8217 8215 8216 8212 8212 8212 8215 8212 8209 8214 8217 8217 8217 8215 8215 8212 
8235 8221 8228 8217 8226 8227 8221 8223 8225 8223 8219 8222 8222 8218 8227 8226 8217 8224 8225 8238 8264 8274 8279 8272 8272 8265 8260 8260 8251 8241 8226 8225 8198 8184 8181 8204 8199 8206 8198 8218 8205 8213 8186 8179 8179 8189 8217 8211 8206 8215 8210 8214 8217 8218 8222 8217 8215 8212 8215 8215 8215 8220 8215 8219 8220 8217 8216 8211 8212 8214 8215 8218 8213 8217 8217 8219 8222 8220 8218 8216 
8236 8223 8224 8220 8224 8227 8223 8225 8224 8226 8227 8221 8224 8224 8219 8219 8220 8225 8221 8229 8263 8271 8276 8267 8266 8262 8256 8257 8255 8247 8239 8215 8181 8167 8171 8202 8210 8225 8204 8215 8227 8231 8198 8181 8185 8201 8210 8208 8211 8212 8213 8221 8216 8219 8215 8216 8211 8214 8216 8216 8218 8220 8222 8220 8219 8218 8215 8207 8214 8212 8216 8221 8217 8220 8224 8221 8227 8225 8221 8218 
8237 8229 8230 8225 8229 8224 8224 8230 8225 8227 8221 8225 8229 8227 8219 8220 8218 8216 8215 8230 8261 8261 8263 8257 8256 8246 8239 8240 8243 8237 8229 8200 8176 8168 8167 8192 8202 8213 8212 8215 8234 8230 8192 8190 8202 8240 8212 8213 8213 8212 8232 8233 8225 8217 8217 8215 8217 8215 8217 8218 8217 8221 8219 8219 8219 8218 8211 8210 8213 8215 8215 8216 8219 8220 8226 8222 8228 8227 8222 8219 
8238 8235 8229 8221 8227 8225 8230 8221 8227 8229 8223 8222 8226 8229 8223 8219 8224 8228 8219 8235 8260 8268 8268 8258 8246 8246 8236 8232 8230 8228 8225 8215 8195 8185 8184 8203 8205 8208 8210 8210 8225 8234 8218 8202 8233 8245 8222 8217 8229 8235 8258 8232 8222 8218 8220 8217 8213 8217 8216 8217 8215 8218 8218 8219 8216 8215 8212 8215 8218 8218 8214 8214 8220 8224 8223 8223 8225 8224 8221 8220 
8240 8224 8224 8228 8228 8225 8229 8225 8226 8223 8224 8221 8233 8228 8226 8231 8230 8225 8222 8229 8257 8273 8276 8269 8254 8252 8246 8236 8232 8228 8228 8223 8222 8220 8220 8221 8218 8214 8220 8215 8220 8220 8220 8226 8229 8228 8226 8239 8271 8289 8273 8232 8219 8214 8219 8217 8217 8215 8221 8217 8215 8219 8211 8218 8217 8214 8219 8216 8217 8218 8220 8216 8221 8225 8224 8228 8228 8226 8222 8215 
8243 8233 8221 8228 8229 8230 8232 8227 8225 8220 8221 8229 8227 8227 8226 8231 8232 8223 8225 8227 8242 8254 8265 8265 8259 8251 8245 8241 8237 8234 8230 8231 8228 8226 8228 8229 8225 8224 8222 8221 8222 8222 8224 8230 8233 8232 8232 8238 8252 8268 8250 8228 8217 8220 8217 8216 8214 8215 8216 8215 8217 8217 8214 8217 8215 8217 8214 8216 8217 8218 8219 8218 8225 8228 8229 8227 8225 8221 8219 8216 
8235 8239 8228 8233 8224 8229 8232 8231 8238 8235 8234 8224 8232 8218 8225 8234 8233 8230 8227 8224 8236 8230 8240 8253 8256 8253 8244 8240 8235 8236 8235 8235 8236 8237 8236 8237 8229 8228 8226 8225 8234 8240 8234 8237 8240 8239 8239 8246 8250 8247 8238 8225 8220 8219 8216 8217 8216 8216 8216 8216 8213 8219 8216 8218 8215 8214 8215 8217 8216 8219 8222 8226 8227 8230 8234 8229 8223 8216 8218 8225 
8238 8222 8233 8233 8226 8230 8235 8232 8233 8223 8229 8229 8232 8221 8229 8226 8231 8226 8227 8223 8228 8220 8235 8240 8247 8246 8239 8241 8239 8237 8243 8242 8245 8242 8246 8241 8239 8238 8235 8235 8244 8246 8248 8242 8244 8246 8256 8266 8254 8237 8224 8220 8220 8220 8215 8216 8214 8216 8216 8212 8214 8217 8219 8221 8212 8216 8212 8214 8218 8218 8223 8224 8230 8233 8237 8233 8222 8220 8227 8229 
8241 8221 8233 8230 8227 8236 8238 8227 8231 8224 8232 8234 8235 8233 8225 8224 8227 8229 8234 8227 8217 8218 8229 8244 8252 8246 8241 8241 8241 8240 8243 8246 8251 8248 8247 8247 8242 8242 8240 8241 8244 8247 8246 8245 8248 8249 8245 8240 8229 8226 8221 8220 8219 8219 8214 8214 8211 8217 8213 8213 8218 8221 8221 8219 8207 8212 8215 8217 8219 8225 8226 8233 8235 8235 8236 8234 8229 8233 8236 8237 
8237 8219 8223 8227 8232 8226 8240 8224 8227 8226 8229 8229 8230 8233 8229 8231 8228 8227 8231 8219 8220 8213 8216 8238 8245 8250 8238 8237 8240 8241 8246 8247 8246 8246 8250 8243 8244 8244 8243 8244 8247 8247 8252 8251 8270 8270 8247 8237 8230 8224 8218 8220 8220 8217 8212 8218 8217 8217 8213 8210 8217 8222 8217 8210 8207 8210 8216 8221 8225 8228 8228 8227 8235 8235 8237 8232 8235 8238 8243 8237 
8237 8227 8220 8229 8231 8230 8227 8236 8217 8219 8232 8228 8233 8233 8232 8224 8225 8225 8230 8220 8225 8213 8211 8226 8229 8239 8239 8240 8241 8242 8239 8248 8241 8241 8246 8241 8240 8243 8247 8242 8244 8242 8248 8270 8285 8253 8238 8233 8227 8221 8219 8217 8221 8218 8215 8217 8216 8215 8212 8214 8218 8223 8217 8209 8208 8215 8215 8220 8225 8226 8231 8231 8231 8231 8236 8236 8235 8241 8245 8246 
8236 8226 8230 8234 8231 8223 8222 8237 8233 8225 8218 8222 8224 8229 8232 8217 8229 8229 8224 8227 8220 8218 8208 8215 8219 8231 8235 8239 8237 8232 8232 8235 8234 8233 8241 8239 8238 8240 8234 8242 8237 8241 8251 8279 8262 8236 8229 8228 8223 8217 8219 8218 8213 8222 8220 8215 8219 8216 8221 8219 8220 8221 8218 8213 8211 8220 8217 8221 8231 8229 8229 8231 8233 8234 8238 8238 8233 8237 8249 8247 
8231 8226 8227 8230 8233 8230 8229 8231 8219 8227 8221 8225 8220 8230 8229 8228 8231 8231 8224 8221 8224 8216 8203 8211 8217 8222 8223 8228 8227 8228 8229 8226 8230 8232 8235 8232 8234 8238 8236 8229 8234 8231 8238 8246 8236 8232 8229 8224 8225 8220 8220 8221 8219 8211 8222 8217 8214 8215 8215 8215 8220 8218 8217 8213 8219 8221 8217 8222 8227 8229 8228 8233 8235 8231 8233 8230 8233 8240 8251 8250 
8233 8233 8228 8228 8222 8222 8231 8227 8214 8228 8218 8228 8225 8234 8226 8228 8226 8221 8226 8224 8225 8218 8201 8206 8215 8213 8214 8218 8219 8220 8219 8220 8226 8224 8228 8229 8227 8228 8229 8222 8228 8226 8235 8233 8232 8228 8220 8228 8224 8218 8220 8222 8215 8215 8219 8220 8225 8214 8215 8219 8218 8220 8216 8215 8219 8218 8220 8222 8227 8231 8234 8236 8233 8233 8235 8233 8234 8240 8250 8247 
8238 8243 8236 8233 8232 8231 8230 8225 8211 8229 8226 8222 8229 8223 8224 8225 8224 8224 8214 8215 8225 8221 8204 8202 8206 8187 8207 8214 8221 8216 8214 8220 8237 8227 8230 8224 8223 8223 8221 8221 8226 8230 8233 8232 8226 8223 8218 8225 8220 8215 8218 8216 8218 8219 8214 8216 8216 8216 8218 8222 8215 8217 8216 8219 8220 8221 8219 8226 8224 8227 8231 8234 8231 8232 8236 8234 8235 8242 8248 8248 
8243 8229 8236 8227 8225 8236 8240 8214 8222 8227 8228 8215 8224 8225 8223 8215 8209 8221 8216 8217 8223 8210 8203 8200 8200 8186 8190 8208 8214 8217 8216 8211 8220 8229 8220 8225 8217 8217 8215 8221 8219 8222 8226 8225 8225 8216 8222 8220 8211 8210 8213 8214 8211 8212 8216 8217 8214 8220 8215 8213 8214 8213 8217 8216 8217 8223 8224 8227 8225 8228 8233 8231 8234 8231 8234 8235 8239 8243 8247 8249 
8260 8249 8248 8229 8251 8241 8238 8217 8226 8224 8231 8220 8223 8226 8227 8220 8211 8217 8214 8218 8213 8202 8197 8197 8204 8195 8202 8204 8212 8206 8205 8217 8225 8226 8208 8214 8215 8203 8211 8217 8219 8212 8213 8218 8220 8216 8217 8218 8196 8185 8193 8210 8206 8207 8212 8209 8211 8212 8212 8209 8211 8214 8215 8215 8219 8218 8222 8227 8233 8225 8228 8227 8228 8225 8230 8231 8241 8237 8249 8250 
8260 8238 8243 8268 8253 8219 8215 8235 8247 8243 8246 8228 8219 8229 8224 8211 8213 8215 8214 8207 8210 8192 8190 8184 8201 8197 8198 8202 8200 8199 8205 8205 8219 8221 8203 8212 8210 8205 8206 8214 8214 8211 8208 8208 8209 8208 8215 8209 8189 8183 8174 8177 8203 8205 8206 8208 8208 8207 8210 8208 8214 8215 8214 8212 8216 8219 8219 8227 8229 8231 8231 8231 8228 8228 8232 8237 8242 8243 8253 8257 
8280 8268 8282 8276 8244 8221 8222 8237 8258 8269 8249 8229 8222 8221 8229 8236 8231 8213 8212 8210 8212 8201 8191 8184 8188 8195 8193 8197 8192 8195 8197 8191 8193 8197 8196 8199 8195 8199 8205 8209 8212 8208 8209 8210 8212 8213 8219 8217 8192 8195 8188 8191 8204 8210 8208 8209 8210 8214 8215 8220 8220 8220 8222 8228 8226 8230 8230 8233 8235 8241 8239 8241 8245 8242 8242 8245 8245 8261 8266 8256 


