P2
80 60
8223
8183 8187 8184 8186 8185 8185 8187 8185 8187 8189 8189 8191 8189 8193 8192 8195 8196 8195 8197 8198 8196 8199 8200 8206 8206 8206 8207 8206 8211 8208 8210 8215 8214 8213 8213 8216 8217 8217 8220 8221 8215 8219 8214 8216 8214 8217 8215 8215 8212 8208 8208 8209 8211 8207 8205 8199 8205 8203 8205 8203 8203 8201 8204 8206 8206 8204 8203 8206 8206 8209 8205 8209 8210 8207 8207 8205 8201 8203 8197 8192 
8180 8189 8185 8187 8182 8186 8187 8190 8186 8185 8193 8190 8193 8194 8192 8195 8198 8197 8200 8199 8200 8198 8198 8202 8204 8206 8208 8207 8209 8211 8213 8215 8216 8213 8214 8214 8215 8219 8220 8222 8220 8220 8214 8215 8216 8215 8217 8215 8212 8211 8208 8211 8214 8206 8206 8202 8202 8199 8205 8205 8200 8204 8204 8200 8204 8203 8204 8204 8207 8206 8207 8209 8206 8208 8205 8203 8200 8198 8196 8201 
8185 8187 8182 8185 8185 8187 8188 8187 8188 8191 8192 8193 8190 8193 8195 8196 8196 8199 8200 8200 8198 8201 8200 8199 8203 8206 8208 8210 8211 8208 8211 8213 8217 8216 8215 8214 8218 8218 8220 8223 8220 8220 8215 8214 8217 8215 8214 8214 8214 8207 8209 8212 8210 8207 8206 8201 8205 8202 8207 8207 8203 8200 8203 8203 8202 8205 8204 8208 8208 8209 8210 8208 8208 8204 8206 8206 8199 8201 8196 8198 
8182 8188 8184 8184 8184 8188 8188 8187 8187 8187 8189 8193 8192 8195 8195 8195 8196 8199 8197 8199 8196 8198 8201 8201 8202 8208 8206 8210 8211 8212 8211 8213 8212 8213 8215 8215 8217 8218 8218 8219 8219 8218 8214 8219 8215 8218 8215 8216 8211 8206 8210 8212 8211 8205 8208 8202 8201 8204 8204 8207 8204 8202 8202 8201 8198 8199 8202 8205 8210 8206 8205 8209 8208 8206 8204 8203 8198 8199 8198 8199 
8180 8189 8182 8184 8186 8189 8187 8189 8185 8187 8188 8188 8191 8192 8196 8194 8195 8196 8197 8199 8196 8196 8201 8201 8203 8208 8206 8208 8209 8210 8215 8212 8213 8212 8215 8215 8216 8220 8219 8222 8218 8217 8215 8217 8213 8214 8212 8213 8211 8208 8206 8212 8209 8208 8208 8202 8204 8204 8205 8204 8205 8203 8199 8203 8201 8202 8199 8204 8209 8202 8209 8207 8206 8206 8205 8202 8200 8199 8194 8193 
8183 8187 8181 8188 8185 8189 8189 8190 8188 8188 8189 8188 8192 8192 8196 8195 8197 8196 8197 8198 8200 8199 8202 8202 8205 8206 8205 8209 8212 8209 8213 8214 8216 8213 8215 8216 8216 8220 8220 8222 8218 8221 8217 8213 8217 8215 8213 8214 8211 8208 8207 8207 8213 8207 8208 8202 8204 8203 8207 8204 8207 8203 8200 8201 8204 8198 8198 8201 8206 8205 8208 8209 8209 8205 8205 8200 8201 8197 8194 8193 
8181 8187 8187 8186 8188 8191 8190 8191 8189 8186 8189 8191 8191 8190 8193 8196 8197 8197 8198 8201 8200 8201 8200 8201 8204 8209 8207 8207 8212 8212 8214 8215 8216 8215 8215 8213 8215 8219 8222 8219 8218 8218 8213 8214 8216 8216 8214 8213 8214 8209 8208 8208 8211 8205 8203 8202 8205 8202 8202 8206 8206 8200 8199 8201 8201 8197 8200 8201 8203 8204 8206 8207 8207 8207 8204 8200 8201 8197 8195 8197 
8182 8186 8183 8186 8187 8189 8190 8190 8185 8187 8190 8191 8192 8193 8192 8195 8198 8198 8197 8202 8199 8201 8202 8201 8203 8205 8207 8210 8211 8213 8215 8214 8217 8214 8216 8214 8215 8216 8220 8222 8215 8217 8212 8213 8212 8216 8213 8214 8210 8208 8207 8210 8208 8204 8206 8204 8203 8202 8203 8202 8204 8203 8201 8200 8201 8201 8197 8200 8202 8201 8203 8204 8204 8202 8204 8203 8198 8198 8192 8190 
8178 8186 8182 8188 8186 8186 8187 8190 8189 8186 8189 8189 8191 8191 8193 8194 8196 8196 8198 8200 8202 8200 8199 8201 8202 8207 8206 8209 8212 8208 8211 8213 8215 8213 8213 8216 8214 8219 8219 8217 8216 8215 8210 8213 8215 8214 8213 8213 8211 8207 8208 8207 8209 8203 8207 8203 8205 8200 8202 8203 8203 8203 8201 8204 8201 8204 8200 8199 8200 8199 8202 8204 8202 8202 8199 8198 8195 8195 8189 8192 
8187 8189 8185 8188 8188 8190 8190 8191 8189 8188 8190 8190 8190 8192 8193 8193 8194 8195 8199 8201 8196 8199 8199 8202 8205 8203 8204 8209 8210 8209 8215 8214 8216 8212 8212 8214 8214 8217 8217 8216 8215 8216 8211 8214 8214 8215 8213 8215 8210 8207 8207 8207 8207 8208 8206 8200 8202 8202 8203 8207 8201 8203 8203 8205 8201 8201 8199 8200 8202 8201 8200 8203 8199 8198 8198 8197 8196 8196 8196 8192 
8184 8187 8187 8190 8188 8188 8192 8192 8192 8189 8189 8189 8190 8193 8193 8195 8197 8195 8200 8198 8196 8197 8200 8196 8204 8207 8206 8207 8212 8210 8213 8213 8215 8211 8212 8215 8213 8216 8216 8219 8216 8217 8211 8217 8215 8215 8216 8216 8212 8207 8209 8209 8210 8205 8204 8202 8205 8202 8204 8205 8203 8204 8203 8199 8200 8199 8200 8200 8200 8197 8199 8198 8197 8198 8195 8196 8195 8194 8197 8193 
8185 8189 8188 8189 8189 8187 8189 8190 8189 8187 8189 8191 8190 8192 8192 8194 8196 8196 8198 8200 8198 8196 8197 8200 8200 8207 8204 8210 8210 8211 8214 8213 8216 8211 8214 8213 8213 8216 8214 8219 8216 8215 8214 8218 8218 8216 8214 8215 8212 8207 8208 8210 8210 8202 8207 8203 8203 8201 8203 8201 8201 8203 8203 8201 8199 8197 8199 8201 8202 8196 8198 8197 8197 8198 8197 8195 8193 8195 8192 8189 
8185 8191 8187 8188 8188 8190 8189 8191 8186 8185 8191 8190 8191 8192 8190 8195 8196 8195 8197 8200 8198 8197 8197 8201 8204 8204 8204 8208 8212 8210 8214 8216 8211 8211 8210 8212 8213 8216 8213 8215 8215 8212 8211 8220 8217 8213 8211 8214 8209 8210 8209 8211 8213 8204 8206 8204 8204 8204 8201 8203 8202 8204 8202 8201 8200 8199 8200 8198 8200 8198 8199 8200 8201 8197 8193 8195 8190 8191 8190 8190 
8186 8192 8187 8191 8186 8188 8193 8191 8188 8190 8191 8193 8190 8190 8195 8194 8198 8197 8201 8200 8195 8195 8198 8198 8202 8207 8207 8209 8208 8208 8211 8212 8213 8209 8214 8209 8211 8212 8213 8215 8215 8214 8210 8214 8215 8215 8213 8216 8211 8209 8210 8208 8208 8206 8208 8203 8203 8201 8203 8202 8203 8201 8203 8200 8200 8198 8199 8199 8200 8196 8197 8200 8197 8198 8195 8191 8189 8192 8190 8189 
8180 8192 8187 8188 8187 8190 8191 8191 8188 8191 8192 8195 8193 8193 8196 8198 8196 8197 8202 8200 8196 8197 8197 8196 8202 8203 8206 8207 8212 8210 8210 8212 8211 8208 8211 8211 8212 8213 8213 8217 8215 8215 8213 8215 8217 8215 8212 8215 8209 8207 8208 8209 8210 8205 8205 8205 8200 8205 8204 8204 8204 8203 8199 8204 8202 8201 8202 8199 8202 8200 8200 8201 8197 8197 8195 8197 8194 8197 8190 8191 
8187 8190 8187 8188 8187 8191 8189 8191 8190 8190 8191 8194 8193 8194 8196 8197 8197 8200 8199 8202 8199 8199 8199 8196 8201 8206 8208 8206 8211 8207 8210 8211 8211 8211 8210 8214 8210 8214 8214 8214 8212 8214 8211 8216 8213 8215 8211 8211 8210 8208 8207 8206 8210 8201 8204 8203 8203 8201 8200 8203 8202 8202 8204 8204 8202 8200 8201 8203 8201 8200 8200 8201 8199 8200 8197 8196 8195 8193 8192 8195 
8188 8190 8188 8191 8189 8192 8191 8193 8192 8190 8195 8196 8193 8196 8196 8197 8199 8199 8198 8199 8199 8198 8200 8199 8203 8207 8206 8208 8210 8209 8211 8211 8210 8210 8211 8213 8211 8211 8211 8216 8213 8215 8208 8213 8213 8211 8208 8210 8207 8205 8206 8207 8208 8206 8203 8202 8203 8203 8202 8201 8203 8203 8201 8199 8200 8200 8202 8200 8202 8202 8200 8201 8201 8198 8199 8200 8195 8196 8191 8193 
8189 8193 8187 8191 8189 8191 8189 8194 8189 8189 8195 8196 8194 8196 8194 8195 8198 8201 8201 8201 8201 8198 8199 8199 8201 8205 8207 8208 8210 8208 8210 8213 8215 8208 8212 8213 8212 8211 8213 8214 8215 8213 8211 8215 8210 8210 8210 8211 8207 8208 8207 8207 8208 8204 8204 8202 8202 8201 8203 8201 8203 8204 8203 8202 8200 8200 8201 8202 8204 8204 8198 8201 8198 8202 8199 8198 8197 8196 8193 8195 
8185 8188 8186 8191 8189 8189 8190 8192 8191 8191 8195 8197 8194 8193 8193 8194 8197 8198 8202 8202 8196 8198 8199 8200 8203 8207 8209 8210 8211 8207 8207 8211 8215 8210 8212 8211 8212 8210 8210 8214 8213 8213 8208 8214 8212 8209 8209 8210 8208 8204 8205 8207 8206 8202 8202 8200 8202 8204 8203 8202 8204 8201 8201 8202 8203 8203 8202 8204 8204 8201 8200 8202 8200 8201 8198 8199 8196 8195 8193 8191 
8188 8190 8188 8188 8190 8192 8191 8192 8189 8193 8194 8203 8196 8198 8194 8200 8197 8198 8199 8198 8198 8198 8200 8199 8204 8203 8207 8209 8208 8205 8207 8209 8213 8211 8212 8211 8207 8210 8212 8215 8213 8208 8209 8211 8210 8209 8210 8210 8207 8205 8206 8205 8205 8202 8202 8202 8202 8203 8206 8203 8200 8202 8203 8204 8203 8201 8204 8203 8202 8203 8200 8202 8202 8201 8199 8200 8195 8198 8191 8193 
8183 8193 8189 8189 8191 8192 8190 8193 8194 8193 8195 8203 8199 8196 8197 8197 8197 8199 8199 8199 8199 8199 8200 8202 8203 8205 8206 8209 8211 8206 8205 8210 8213 8211 8210 8209 8210 8209 8213 8210 8213 8210 8211 8208 8212 8209 8210 8206 8205 8203 8206 8207 8206 8204 8203 8199 8203 8201 8204 8201 8201 8202 8202 8204 8202 8203 8203 8205 8205 8199 8199 8201 8204 8203 8202 8200 8198 8196 8190 8190 
8184 8191 8190 8190 8188 8190 8191 8190 8192 8195 8199 8198 8199 8198 8196 8200 8201 8196 8198 8198 8199 8200 8199 8196 8201 8201 8202 8204 8204 8200 8197 8202 8207 8208 8211 8209 8203 8189 8181 8190 8195 8207 8208 8210 8207 8208 8207 8209 8206 8205 8205 8206 8207 8203 8201 8200 8202 8201 8201 8203 8201 8205 8204 8204 8203 8205 8204 8206 8206 8199 8201 8202 8199 8201 8202 8204 8197 8196 8194 8194 
8187 8191 8188 8187 8192 8190 8191 8192 8192 8194 8197 8200 8197 8199 8199 8200 8199 8198 8199 8199 8201 8199 8201 8197 8185 8172 8176 8187 8178 8170 8169 8173 8195 8200 8204 8204 8202 8203 8199 8179 8174 8197 8189 8190 8186 8173 8195 8206 8205 8204 8204 8207 8205 8202 8203 8201 8202 8201 8204 8201 8202 8202 8203 8205 8205 8206 8204 8204 8203 8201 8202 8205 8202 8204 8202 8200 8198 8198 8195 8194 
8188 8194 8191 8189 8193 8194 8192 8193 8193 8192 8198 8199 8199 8199 8200 8200 8200 8201 8202 8202 8199 8201 8200 8180 8171 8173 8190 8186 8173 8183 8196 8200 8186 8177 8172 8166 8181 8203 8196 8179 8176 8188 8181 8170 8170 8162 8169 8195 8203 8202 8202 8203 8207 8203 8201 8201 8202 8204 8203 8203 8201 8203 8204 8205 8204 8205 8203 8206 8204 8200 8204 8202 8202 8200 8203 8201 8197 8197 8193 8196 
8189 8192 8189 8194 8192 8193 8192 8194 8194 8193 8199 8202 8198 8200 8196 8200 8199 8197 8204 8202 8196 8201 8191 8183 8197 8202 8201 8195 8207 8207 8212 8212 8191 8169 8177 8173 8180 8187 8176 8173 8177 8182 8183 8174 8170 8161 8161 8178 8200 8204 8204 8207 8205 8202 8203 8204 8203 8202 8204 8205 8202 8203 8206 8201 8203 8202 8203 8205 8204 8205 8203 8203 8200 8203 8198 8199 8194 8200 8194 8196 
8191 8189 8190 8193 8194 8193 8196 8193 8193 8194 8197 8201 8199 8199 8199 8198 8201 8202 8203 8201 8199 8200 8199 8199 8202 8205 8208 8213 8213 8207 8214 8214 8208 8202 8208 8204 8179 8188 8191 8171 8174 8182 8187 8178 8165 8161 8163 8170 8181 8197 8202 8204 8210 8201 8202 8201 8204 8205 8203 8204 8203 8204 8205 8204 8204 8203 8205 8203 8204 8204 8202 8203 8201 8201 8202 8200 8198 8199 8198 8195 
8189 8194 8192 8193 8194 8195 8194 8194 8193 8193 8198 8201 8202 8200 8196 8198 8202 8201 8202 8201 8202 8199 8199 8199 8203 8208 8211 8210 8212 8210 8213 8216 8214 8213 8214 8210 8207 8184 8190 8183 8170 8165 8159 8167 8170 8159 8158 8158 8166 8188 8197 8204 8207 8201 8199 8198 8199 8203 8204 8204 8203 8202 8205 8203 8201 8203 8202 8204 8204 8205 8204 8203 8202 8202 8203 8200 8200 8200 8201 8202 
8189 8194 8192 8192 8193 8194 8197 8195 8195 8195 8198 8199 8200 8200 8198 8198 8199 8202 8201 8203 8202 8198 8200 8200 8204 8206 8209 8213 8212 8210 8212 8217 8215 8214 8212 8212 8212 8207 8185 8181 8174 8172 8175 8178 8187 8170 8165 8160 8163 8190 8196 8204 8203 8202 8186 8172 8186 8197 8206 8202 8205 8202 8201 8203 8201 8201 8202 8203 8206 8201 8199 8199 8202 8202 8202 8202 8199 8201 8195 8195 
8188 8194 8191 8192 8196 8195 8197 8196 8194 8197 8202 8200 8199 8198 8199 8202 8199 8202 8202 8200 8200 8198 8201 8202 8204 8205 8207 8213 8212 8210 8215 8216 8214 8212 8210 8214 8212 8211 8192 8175 8178 8178 8170 8166 8174 8197 8185 8166 8160 8186 8200 8204 8207 8198 8176 8169 8172 8185 8203 8205 8205 8204 8204 8201 8201 8199 8198 8202 8198 8196 8200 8199 8200 8203 8199 8202 8199 8203 8197 8195 
8190 8195 8190 8196 8195 8198 8201 8197 8199 8198 8202 8202 8200 8199 8201 8201 8203 8204 8203 8200 8197 8200 8204 8204 8204 8211 8206 8214 8212 8210 8216 8216 8218 8213 8214 8213 8212 8205 8193 8184 8185 8182 8197 8191 8176 8203 8203 8197 8178 8192 8202 8208 8205 8193 8174 8172 8172 8193 8204 8209 8205 8202 8201 8199 8199 8200 8197 8200 8197 8196 8198 8197 8200 8201 8200 8201 8199 8199 8197 8195 
8193 8197 8192 8197 8198 8197 8198 8198 8198 8199 8199 8200 8197 8200 8198 8201 8203 8202 8202 8203 8202 8203 8203 8202 8208 8211 8213 8215 8216 8212 8213 8215 8218 8213 8213 8214 8208 8187 8170 8169 8170 8183 8187 8190 8182 8205 8206 8207 8204 8201 8202 8207 8207 8185 8172 8172 8180 8200 8202 8205 8203 8200 8202 8199 8199 8198 8200 8199 8201 8195 8194 8199 8200 8199 8200 8202 8198 8198 8198 8198 
8197 8198 8194 8195 8197 8198 8198 8199 8199 8199 8197 8199 8199 8200 8199 8202 8200 8200 8198 8199 8197 8203 8204 8205 8209 8210 8211 8214 8212 8213 8212 8215 8216 8211 8213 8216 8182 8171 8173 8177 8168 8168 8164 8170 8170 8179 8200 8209 8207 8204 8204 8210 8201 8175 8174 8173 8188 8204 8205 8203 8201 8202 8201 8201 8197 8198 8203 8200 8199 8194 8196 8196 8198 8201 8196 8200 8197 8199 8198 8195 
8197 8198 8195 8195 8198 8197 8197 8196 8198 8202 8198 8199 8200 8201 8200 8199 8197 8199 8199 8202 8202 8205 8206 8205 8208 8214 8212 8211 8213 8210 8210 8210 8212 8211 8209 8199 8171 8177 8187 8172 8169 8166 8164 8173 8176 8169 8183 8209 8207 8203 8206 8206 8193 8173 8172 8176 8198 8202 8205 8202 8203 8200 8197 8198 8201 8199 8195 8197 8197 8196 8196 8198 8200 8196 8197 8200 8197 8200 8193 8196 
8194 8200 8197 8196 8197 8200 8198 8194 8196 8196 8196 8201 8200 8200 8201 8203 8202 8201 8205 8201 8203 8205 8206 8204 8205 8210 8214 8215 8212 8211 8212 8210 8212 8207 8207 8180 8179 8202 8192 8173 8170 8166 8164 8174 8199 8184 8170 8198 8207 8206 8204 8205 8180 8173 8172 8184 8200 8203 8208 8206 8203 8206 8201 8200 8202 8201 8197 8196 8197 8198 8197 8199 8197 8197 8200 8197 8198 8197 8194 8191 
8194 8200 8201 8199 8197 8197 8200 8198 8201 8194 8198 8200 8199 8199 8201 8200 8200 8204 8206 8205 8203 8206 8206 8204 8204 8208 8212 8217 8215 8211 8207 8211 8210 8207 8202 8181 8192 8193 8178 8172 8167 8167 8164 8170 8200 8206 8190 8189 8205 8207 8205 8196 8178 8173 8175 8192 8200 8201 8205 8203 8202 8201 8199 8197 8198 8198 8197 8195 8198 8196 8195 8197 8196 8200 8197 8198 8196 8195 8193 8192 
8197 8201 8198 8198 8198 8200 8199 8199 8197 8197 8200 8203 8198 8203 8200 8201 8203 8203 8203 8204 8203 8207 8204 8203 8206 8208 8210 8215 8212 8206 8207 8195 8184 8174 8178 8172 8168 8168 8170 8172 8169 8164 8164 8168 8179 8201 8206 8192 8207 8204 8203 8185 8176 8173 8181 8201 8201 8200 8205 8201 8200 8201 8200 8197 8196 8197 8198 8196 8197 8195 8198 8197 8198 8199 8197 8195 8196 8195 8193 8193 
8198 8200 8195 8196 8196 8199 8201 8199 8199 8199 8200 8202 8200 8201 8203 8201 8203 8200 8204 8206 8206 8207 8207 8204 8206 8207 8210 8213 8213 8200 8176 8171 8167 8169 8166 8169 8164 8163 8165 8169 8167 8167 8164 8174 8171 8170 8189 8201 8204 8202 8196 8178 8175 8171 8190 8200 8201 8201 8201 8199 8199 8198 8197 8197 8197 8197 8195 8197 8197 8196 8195 8196 8198 8199 8197 8195 8195 8195 8193 8192 
8199 8202 8198 8201 8197 8197 8197 8198 8198 8197 8198 8204 8202 8201 8199 8201 8200 8199 8206 8205 8202 8205 8206 8203 8204 8209 8207 8211 8207 8176 8171 8192 8175 8167 8174 8166 8165 8168 8170 8170 8167 8169 8163 8172 8177 8165 8167 8194 8203 8200 8187 8177 8175 8179 8197 8202 8202 8199 8202 8200 8197 8202 8202 8198 8197 8195 8193 8196 8199 8197 8197 8199 8198 8200 8194 8196 8194 8194 8189 8192 
8196 8202 8198 8201 8200 8198 8202 8203 8198 8200 8201 8202 8201 8201 8198 8200 8201 8202 8202 8203 8201 8205 8205 8204 8202 8208 8205 8210 8183 8179 8196 8204 8177 8184 8181 8181 8170 8183 8189 8188 8169 8168 8164 8166 8167 8163 8169 8193 8203 8200 8177 8179 8177 8186 8201 8202 8203 8204 8202 8200 8200 8200 8199 8198 8195 8197 8194 8196 8196 8194 8194 8197 8196 8195 8195 8196 8194 8196 8195 8192 
8196 8202 8198 8204 8201 8202 8202 8198 8200 8199 8199 8202 8204 8202 8201 8200 8202 8201 8204 8202 8201 8203 8202 8201 8204 8207 8206 8202 8184 8197 8205 8202 8179 8198 8186 8192 8198 8186 8174 8185 8171 8176 8168 8168 8168 8167 8169 8190 8201 8192 8176 8179 8180 8198 8205 8203 8203 8204 8200 8199 8198 8197 8199 8196 8196 8197 8194 8195 8199 8197 8195 8198 8197 8195 8197 8196 8196 8196 8193 8193 
8197 8201 8197 8200 8200 8202 8201 8200 8198 8201 8199 8205 8203 8202 8202 8202 8202 8201 8203 8205 8201 8205 8203 8199 8199 8201 8195 8188 8176 8181 8183 8183 8176 8182 8181 8180 8185 8173 8173 8179 8171 8179 8170 8170 8168 8166 8167 8190 8199 8182 8175 8177 8190 8202 8207 8200 8202 8201 8201 8200 8198 8197 8199 8198 8198 8194 8196 8196 8195 8197 8194 8196 8197 8198 8197 8199 8194 8194 8191 8194 
8199 8201 8199 8198 8201 8203 8203 8201 8203 8203 8201 8204 8203 8205 8205 8202 8204 8202 8203 8204 8201 8204 8207 8192 8183 8178 8180 8179 8176 8174 8174 8178 8178 8178 8180 8180 8183 8179 8171 8170 8167 8175 8177 8183 8175 8169 8168 8174 8181 8176 8175 8178 8196 8204 8203 8203 8203 8202 8200 8204 8202 8202 8200 8198 8199 8193 8196 8197 8197 8193 8197 8198 8197 8195 8198 8199 8197 8196 8190 8193 
8197 8202 8197 8201 8201 8204 8205 8203 8205 8203 8203 8205 8206 8204 8205 8205 8204 8204 8206 8205 8204 8206 8206 8192 8182 8176 8175 8179 8177 8176 8177 8178 8180 8181 8181 8181 8178 8173 8169 8171 8166 8175 8183 8185 8176 8173 8171 8170 8173 8178 8178 8183 8192 8200 8205 8202 8203 8204 8201 8204 8204 8201 8203 8202 8198 8197 8197 8195 8198 8195 8197 8198 8197 8199 8199 8197 8194 8196 8198 8191 
8195 8205 8199 8201 8201 8201 8202 8205 8200 8204 8205 8208 8207 8209 8208 8206 8207 8205 8203 8207 8206 8207 8206 8198 8182 8179 8177 8181 8180 8179 8178 8177 8177 8180 8175 8177 8171 8170 8177 8172 8170 8174 8185 8185 8184 8178 8175 8175 8177 8178 8179 8183 8202 8210 8206 8203 8201 8203 8204 8203 8206 8201 8199 8198 8199 8198 8197 8196 8195 8196 8195 8199 8201 8200 8197 8198 8194 8200 8198 8192 
8199 8206 8201 8202 8201 8204 8206 8205 8201 8203 8204 8206 8207 8207 8209 8206 8211 8206 8206 8207 8205 8206 8207 8200 8187 8179 8177 8178 8180 8180 8179 8180 8183 8180 8183 8180 8178 8180 8180 8181 8178 8184 8180 8184 8187 8186 8183 8183 8182 8178 8182 8189 8202 8206 8204 8200 8203 8202 8206 8204 8203 8201 8201 8202 8198 8198 8198 8200 8195 8198 8197 8200 8199 8198 8200 8196 8195 8199 8194 8191 
8203 8205 8201 8203 8202 8204 8204 8204 8203 8203 8202 8206 8205 8209 8207 8207 8209 8209 8209 8209 8208 8208 8205 8205 8190 8178 8177 8179 8179 8177 8183 8182 8183 8180 8183 8184 8178 8181 8184 8184 8184 8187 8181 8185 8188 8186 8186 8186 8185 8184 8190 8190 8198 8204 8206 8202 8201 8202 8204 8203 8202 8201 8201 8200 8197 8197 8195 8199 8198 8197 8200 8198 8199 8198 8200 8199 8194 8195 8191 8188 
8199 8207 8199 8203 8202 8205 8205 8207 8204 8203 8209 8208 8207 8208 8207 8208 8207 8206 8207 8209 8206 8207 8207 8207 8201 8185 8180 8179 8182 8182 8183 8184 8185 8188 8184 8182 8182 8183 8183 8185 8187 8187 8185 8186 8188 8189 8186 8188 8187 8190 8197 8200 8201 8204 8202 8203 8205 8203 8203 8202 8201 8200 8201 8198 8196 8197 8197 8198 8199 8197 8201 8198 8201 8201 8198 8197 8193 8194 8189 8192 
8203 8203 8200 8202 8205 8207 8204 8207 8207 8208 8208 8208 8208 8208 8207 8211 8208 8207 8209 8213 8206 8204 8206 8207 8209 8192 8175 8176 8179 8182 8183 8186 8188 8184 8186 8182 8187 8184 8184 8186 8186 8188 8185 8189 8191 8188 8185 8190 8187 8191 8195 8203 8206 8203 8203 8203 8202 8202 8206 8201 8201 8201 8201 8200 8199 8197 8198 8197 8199 8201 8201 8203 8200 8201 8197 8199 8197 8194 8191 8193 
8200 8204 8199 8200 8204 8208 8209 8210 8209 8207 8211 8207 8210 8210 8209 8212 8212 8209 8209 8209 8209 8210 8211 8215 8212 8193 8179 8178 8182 8180 8184 8187 8191 8190 8187 8186 8183 8183 8185 8188 8188 8187 8186 8190 8190 8187 8186 8185 8187 8197 8199 8206 8206 8205 8206 8201 8201 8203 8204 8202 8199 8199 8203 8200 8199 8199 8198 8199 8202 8201 8204 8207 8203 8202 8198 8196 8197 8191 8188 8188 
8196 8203 8200 8199 8201 8206 8209 8206 8207 8208 8209 8211 8209 8210 8211 8211 8211 8210 8210 8211 8208 8210 8209 8215 8214 8197 8177 8174 8178 8180 8184 8187 8187 8187 8186 8187 8184 8185 8186 8187 8187 8189 8189 8188 8190 8188 8188 8188 8186 8219 8207 8206 8207 8204 8204 8201 8201 8205 8202 8201 8202 8197 8200 8200 8198 8198 8198 8202 8199 8200 8202 8203 8202 8200 8200 8198 8195 8192 8190 8190 
8197 8202 8199 8202 8206 8205 8209 8209 8206 8207 8210 8209 8210 8208 8213 8211 8211 8210 8211 8208 8207 8209 8210 8211 8213 8200 8176 8172 8176 8177 8179 8185 8184 8184 8185 8186 8183 8183 8184 8190 8188 8188 8184 8186 8189 8182 8183 8188 8190 8218 8204 8208 8209 8206 8205 8204 8208 8201 8201 8201 8202 8201 8200 8200 8201 8197 8200 8198 8202 8199 8199 8201 8201 8201 8199 8201 8193 8194 8188 8192 
8192 8200 8198 8202 8200 8207 8207 8207 8206 8206 8207 8213 8209 8212 8207 8209 8208 8209 8211 8209 8210 8212 8213 8212 8214 8202 8177 8175 8179 8176 8176 8181 8179 8177 8182 8182 8181 8183 8186 8184 8183 8188 8183 8185 8185 8182 8182 8185 8189 8196 8203 8209 8211 8209 8207 8205 8205 8205 8202 8205 8204 8201 8202 8202 8200 8199 8197 8199 8202 8200 8200 8204 8202 8202 8196 8198 8197 8195 8188 8187 
8188 8193 8192 8198 8199 8203 8203 8203 8203 8204 8210 8206 8208 8209 8208 8206 8204 8206 8208 8207 8208 8211 8212 8211 8210 8202 8175 8174 8175 8171 8174 8177 8178 8175 8176 8179 8180 8176 8178 8181 8181 8183 8184 8184 8182 8179 8180 8184 8183 8181 8194 8207 8209 8206 8208 8203 8208 8202 8199 8205 8204 8204 8204 8200 8196 8198 8201 8200 8204 8201 8200 8200 8202 8203 8199 8196 8198 8195 8189 8187 
8188 8188 8188 8191 8190 8197 8201 8200 8198 8203 8206 8207 8207 8210 8208 8204 8208 8206 8210 8206 8201 8206 8208 8208 8212 8203 8179 8171 8174 8170 8174 8176 8174 8176 8175 8177 8174 8183 8179 8181 8181 8182 8184 8187 8183 8179 8181 8184 8181 8178 8192 8209 8213 8208 8207 8202 8206 8202 8201 8204 8204 8203 8202 8199 8200 8199 8198 8199 8203 8202 8201 8204 8201 8201 8197 8196 8196 8193 8190 8186 
8182 8188 8184 8183 8184 8187 8182 8187 8188 8193 8197 8202 8205 8205 8205 8207 8208 8204 8205 8205 8203 8206 8211 8209 8205 8193 8172 8172 8172 8170 8172 8173 8176 8177 8176 8177 8176 8179 8176 8180 8181 8184 8189 8183 8184 8183 8180 8185 8184 8182 8195 8210 8211 8209 8205 8202 8202 8199 8202 8202 8205 8203 8203 8200 8197 8199 8198 8198 8200 8200 8198 8201 8203 8200 8198 8197 8193 8193 8196 8187 
8184 8185 8179 8182 8180 8178 8180 8186 8183 8187 8188 8188 8188 8192 8196 8201 8199 8201 8200 8200 8201 8206 8203 8199 8182 8167 8167 8170 8171 8168 8171 8173 8176 8174 8172 8177 8174 8174 8176 8177 8178 8183 8189 8180 8181 8178 8178 8181 8181 8179 8185 8196 8206 8206 8204 8201 8202 8200 8201 8203 8201 8201 8200 8200 8198 8198 8197 8199 8200 8199 8198 8200 8199 8201 8199 8195 8192 8189 8186 8190 
8189 8188 8181 8182 8177 8177 8180 8180 8182 8184 8185 8186 8189 8191 8186 8186 8187 8185 8185 8185 8190 8193 8190 8182 8161 8162 8160 8167 8170 8165 8168 8170 8172 8169 8172 8173 8175 8173 8174 8176 8177 8184 8189 8179 8181 8178 8178 8180 8181 8173 8180 8180 8190 8200 8204 8198 8198 8200 8202 8199 8199 8197 8199 8198 8197 8200 8198 8200 8201 8199 8200 8205 8196 8199 8197 8195 8194 8194 8190 8192 
8188 8190 8180 8184 8179 8178 8179 8177 8177 8178 8181 8185 8184 8186 8187 8181 8183 8181 8182 8185 8183 8184 8182 8175 8166 8162 8159 8165 8166 8167 8171 8170 8169 8169 8166 8170 8172 8171 8174 8173 8176 8179 8180 8178 8179 8178 8179 8180 8178 8176 8178 8177 8180 8190 8198 8196 8198 8198 8196 8198 8199 8197 8197 8196 8196 8200 8197 8200 8201 8201 8199 8201 8198 8197 8198 8198 8195 8193 8192 8192 
8193 8191 8186 8179 8176 8176 8176 8180 8177 8174 8181 8181 8183 8185 8186 8183 8181 8180 8177 8185 8184 8177 8178 8176 8174 8168 8162 8164 8167 8164 8168 8168 8169 8169 8167 8168 8167 8169 8170 8177 8175 8175 8175 8178 8176 8178 8179 8181 8182 8182 8182 8181 8185 8192 8200 8197 8196 8196 8198 8197 8194 8194 8196 8194 8195 8198 8197 8201 8199 8200 8200 8198 8199 8199 8199 8201 8194 8195 8191 8195 
8197 8193 8182 8182 8176 8173 8175 8175 8173 8175 8181 8182 8181 8186 8180 8180 8179 8179 8180 8182 8184 8182 8181 8180 8183 8175 8165 8169 8166 8166 8168 8168 8169 8168 8165 8170 8167 8168 8169 8174 8177 8175 8172 8175 8180 8178 8177 8182 8188 8190 8188 8192 8188 8191 8197 8196 8200 8193 8199 8200 8194 8194 8191 8194 8196 8197 8195 8201 8201 8200 8200 8199 8205 8206 8200 8199 8196 8195 8194 8188 


