P2
80 60
8373
8258 8261 8265 8262 8260 8264 8264 8263 8265 8261 8267 8271 8269 8272 8274 8274 8273 8273 8273 8272 8274 8277 8275 8278 8278 8278 8278 8279 8282 8279 8280 8280 8279 8280 8280 8277 8277 8275 8273 8267 8267 8268 8268 8264 8262 8258 8257 8258 8255 8254 8255 8251 8247 8246 8241 8241 8241 8237 8233 8234 8238 8236 8240 8239 8238 8238 8239 8242 8245 8243 8240 8237 8239 8239 8232 8235 8237 8237 8242 8257 
8261 8264 8265 8258 8261 8262 8264 8261 8269 8265 8268 8269 8269 8274 8276 8273 8272 8273 8274 8272 8274 8272 8277 8279 8276 8277 8279 8279 8282 8279 8282 8281 8279 8285 8279 8281 8279 8275 8274 8271 8268 8266 8267 8270 8263 8256 8257 8258 8260 8254 8256 8255 8252 8248 8245 8242 8238 8238 8233 8235 8234 8240 8241 8237 8239 8241 8238 8243 8246 8242 8240 8239 8243 8238 8234 8236 8236 8233 8263 8261 
8258 8264 8262 8261 8260 8260 8264 8263 8264 8264 8266 8268 8268 8275 8269 8276 8272 8273 8273 8273 8274 8272 8277 8277 8275 8275 8276 8283 8282 8279 8282 8281 8281 8282 8281 8283 8279 8277 8275 8268 8268 8266 8270 8266 8261 8255 8254 8256 8256 8252 8252 8258 8253 8247 8243 8241 8238 8237 8233 8234 8232 8235 8238 8242 8239 8236 8237 8240 8244 8243 8243 8240 8244 8244 8235 8236 8235 8232 8294 8274 
8257 8263 8265 8259 8259 8261 8261 8262 8263 8263 8270 8264 8267 8272 8270 8270 8271 8269 8271 8270 8270 8274 8274 8275 8272 8273 8275 8278 8280 8282 8282 8282 8280 8286 8282 8279 8275 8274 8275 8268 8269 8267 8266 8262 8263 8252 8257 8253 8254 8249 8251 8250 8249 8246 8242 8242 8240 8235 8231 8233 8232 8230 8234 8241 8239 8240 8237 8240 8241 8242 8241 8244 8245 8243 8241 8240 8240 8237 8305 8309 
8257 8261 8263 8264 8262 8262 8259 8259 8263 8261 8267 8263 8265 8267 8269 8269 8269 8271 8273 8269 8272 8271 8273 8273 8273 8273 8274 8278 8280 8282 8278 8277 8279 8282 8280 8279 8273 8276 8273 8270 8268 8265 8266 8264 8261 8252 8253 8251 8255 8249 8249 8250 8250 8246 8244 8240 8236 8239 8235 8234 8234 8232 8232 8236 8237 8238 8237 8242 8240 8243 8242 8242 8245 8245 8244 8246 8243 8242 8290 8351 
8256 8262 8264 8262 8259 8261 8260 8258 8260 8259 8260 8260 8262 8265 8264 8264 8263 8268 8268 8268 8268 8269 8273 8272 8271 8268 8272 8277 8278 8275 8276 8279 8280 8279 8279 8277 8275 8275 8272 8271 8268 8262 8262 8262 8258 8251 8252 8253 8253 8251 8250 8246 8245 8242 8243 8242 8238 8236 8231 8236 8235 8230 8232 8230 8231 8235 8235 8240 8243 8239 8239 8241 8241 8243 8243 8245 8243 8244 8259 8373 
8257 8264 8264 8261 8259 8258 8258 8257 8256 8254 8259 8258 8256 8265 8262 8260 8264 8266 8264 8264 8265 8264 8269 8269 8268 8270 8270 8272 8277 8275 8273 8276 8278 8281 8278 8280 8275 8273 8273 8268 8267 8262 8263 8261 8257 8250 8249 8251 8253 8246 8247 8247 8244 8242 8239 8239 8235 8237 8232 8234 8231 8231 8231 8231 8230 8232 8233 8236 8239 8242 8236 8241 8241 8241 8245 8242 8241 8242 8243 8327 
8252 8261 8263 8257 8257 8257 8258 8259 8257 8253 8257 8254 8256 8259 8258 8262 8259 8260 8262 8261 8262 8263 8267 8267 8268 8266 8265 8270 8274 8273 8273 8274 8276 8279 8277 8278 8275 8270 8268 8267 8264 8265 8265 8263 8257 8250 8249 8251 8250 8245 8245 8244 8240 8240 8238 8234 8232 8233 8230 8232 8233 8229 8230 8226 8225 8226 8225 8231 8235 8239 8237 8240 8242 8242 8240 8245 8241 8238 8240 8258 
8255 8261 8260 8256 8256 8261 8255 8253 8256 8253 8255 8254 8254 8256 8253 8257 8260 8259 8257 8257 8260 8263 8263 8266 8266 8263 8264 8268 8269 8267 8270 8271 8274 8279 8274 8274 8269 8270 8267 8263 8260 8263 8262 8259 8255 8250 8247 8248 8249 8243 8242 8245 8242 8236 8235 8235 8233 8230 8229 8230 8229 8225 8228 8229 8224 8224 8224 8227 8231 8232 8233 8235 8239 8241 8241 8241 8240 8233 8233 8242 
8253 8258 8259 8253 8259 8257 8253 8255 8256 8252 8255 8250 8251 8255 8250 8255 8256 8254 8255 8255 8257 8260 8263 8262 8262 8260 8262 8263 8265 8267 8270 8269 8272 8272 8271 8272 8264 8264 8263 8261 8257 8259 8262 8261 8255 8248 8248 8248 8244 8241 8240 8240 8237 8236 8235 8233 8231 8233 8226 8227 8223 8224 8224 8224 8222 8223 8222 8223 8227 8226 8228 8229 8234 8234 8238 8237 8234 8232 8228 8232 
8252 8257 8255 8251 8253 8254 8255 8253 8256 8252 8254 8250 8250 8253 8249 8253 8252 8253 8255 8253 8255 8257 8260 8261 8260 8259 8257 8259 8266 8266 8267 8267 8267 8270 8268 8266 8265 8260 8260 8255 8256 8259 8258 8256 8252 8246 8248 8244 8241 8239 8239 8239 8237 8234 8236 8232 8228 8229 8224 8225 8225 8222 8220 8222 8219 8223 8217 8221 8223 8220 8219 8219 8223 8223 8226 8228 8228 8223 8222 8221 
8248 8258 8253 8254 8255 8255 8252 8253 8253 8250 8254 8249 8248 8256 8251 8253 8253 8254 8253 8255 8254 8257 8259 8258 8260 8256 8258 8261 8264 8263 8262 8266 8266 8268 8269 8266 8263 8259 8254 8251 8252 8256 8255 8253 8250 8241 8244 8244 8241 8237 8236 8237 8234 8231 8234 8232 8231 8227 8224 8226 8223 8222 8221 8219 8217 8220 8216 8217 8221 8217 8217 8214 8218 8215 8218 8219 8220 8218 8212 8219 
8248 8250 8255 8251 8253 8255 8255 8253 8254 8249 8251 8251 8251 8254 8252 8250 8252 8251 8253 8253 8251 8258 8259 8258 8257 8257 8254 8261 8262 8261 8261 8262 8265 8266 8261 8266 8261 8258 8252 8255 8251 8254 8252 8253 8247 8241 8242 8242 8241 8239 8235 8235 8233 8231 8229 8227 8229 8228 8224 8228 8221 8218 8220 8220 8219 8216 8215 8215 8218 8216 8212 8213 8214 8213 8213 8210 8212 8209 8205 8211 
8249 8252 8253 8253 8253 8254 8251 8253 8253 8249 8251 8246 8252 8252 8248 8252 8251 8251 8252 8252 8254 8255 8256 8259 8255 8253 8255 8259 8259 8259 8260 8260 8262 8262 8261 8260 8257 8256 8251 8252 8249 8252 8250 8247 8245 8238 8238 8239 8237 8236 8233 8234 8232 8228 8228 8228 8226 8225 8223 8220 8220 8220 8219 8217 8218 8214 8214 8216 8216 8213 8211 8210 8213 8208 8202 8207 8205 8203 8203 8205 
8250 8253 8256 8254 8254 8252 8254 8250 8252 8249 8253 8250 8249 8250 8247 8252 8250 8251 8252 8249 8249 8252 8258 8259 8253 8255 8255 8260 8260 8258 8258 8260 8257 8263 8257 8256 8255 8257 8252 8251 8249 8250 8249 8246 8244 8238 8237 8237 8236 8231 8232 8230 8231 8224 8227 8226 8223 8224 8222 8221 8216 8216 8217 8219 8215 8212 8213 8211 8213 8211 8208 8211 8208 8207 8202 8203 8203 8200 8199 8199 
8252 8254 8254 8252 8255 8252 8253 8253 8253 8249 8251 8250 8250 8252 8251 8250 8252 8252 8252 8250 8252 8254 8257 8256 8254 8255 8252 8256 8255 8255 8256 8256 8258 8259 8257 8258 8253 8252 8249 8248 8247 8245 8246 8246 8242 8236 8237 8238 8237 8229 8231 8230 8231 8227 8227 8226 8226 8222 8220 8220 8216 8215 8217 8215 8214 8212 8209 8210 8211 8211 8206 8208 8205 8204 8202 8202 8200 8196 8195 8195 
8248 8255 8252 8254 8256 8254 8253 8253 8251 8247 8251 8249 8249 8250 8250 8250 8248 8251 8253 8250 8250 8252 8253 8256 8253 8250 8250 8252 8257 8253 8255 8255 8258 8259 8261 8258 8251 8252 8247 8244 8241 8241 8241 8243 8240 8235 8236 8237 8237 8231 8228 8228 8227 8224 8225 8222 8222 8220 8221 8217 8213 8215 8215 8216 8212 8214 8211 8213 8211 8209 8209 8205 8207 8201 8199 8198 8195 8193 8193 8195 
8243 8254 8251 8250 8256 8254 8251 8252 8251 8250 8250 8250 8248 8251 8248 8250 8249 8246 8248 8248 8250 8250 8251 8250 8249 8248 8246 8248 8254 8250 8252 8254 8254 8260 8257 8256 8249 8250 8244 8243 8243 8243 8241 8242 8239 8231 8232 8236 8233 8233 8229 8227 8226 8222 8223 8223 8220 8218 8216 8216 8213 8210 8214 8215 8215 8210 8211 8211 8210 8208 8206 8206 8204 8202 8197 8198 8196 8190 8194 8192 
8247 8252 8253 8251 8251 8253 8252 8252 8252 8250 8246 8246 8249 8247 8248 8248 8247 8247 8244 8249 8247 8247 8248 8250 8248 8246 8247 8249 8250 8250 8254 8253 8252 8257 8254 8252 8252 8247 8244 8243 8241 8242 8242 8242 8239 8232 8233 8233 8232 8227 8227 8226 8223 8224 8222 8220 8219 8221 8217 8217 8212 8216 8214 8216 8212 8212 8211 8211 8212 8209 8206 8207 8207 8200 8196 8199 8195 8192 8193 8192 
8248 8253 8252 8247 8250 8252 8250 8254 8252 8249 8249 8247 8249 8252 8246 8246 8247 8249 8247 8247 8247 8248 8249 8249 8248 8248 8248 8249 8251 8252 8252 8252 8253 8254 8254 8248 8248 8246 8245 8242 8240 8245 8240 8238 8237 8230 8231 8233 8228 8227 8226 8226 8223 8219 8222 8220 8220 8218 8215 8214 8216 8213 8217 8218 8213 8213 8212 8213 8210 8209 8205 8206 8202 8202 8198 8196 8195 8194 8192 8192 
8248 8250 8252 8248 8249 8251 8249 8250 8248 8248 8251 8246 8249 8250 8246 8244 8247 8248 8247 8245 8247 8245 8247 8247 8245 8251 8245 8247 8249 8250 8251 8250 8250 8254 8252 8249 8246 8245 8245 8238 8240 8238 8242 8236 8235 8228 8229 8228 8232 8226 8224 8224 8221 8223 8222 8221 8220 8219 8216 8215 8216 8213 8217 8216 8212 8213 8211 8210 8211 8208 8205 8206 8204 8202 8197 8196 8195 8190 8191 8190 
8245 8250 8251 8248 8252 8250 8251 8249 8250 8246 8248 8246 8246 8249 8247 8247 8243 8245 8246 8245 8245 8243 8245 8247 8245 8248 8247 8247 8249 8248 8248 8248 8249 8251 8249 8249 8244 8241 8242 8240 8238 8239 8239 8237 8232 8227 8227 8228 8229 8225 8221 8221 8220 8217 8220 8220 8219 8216 8215 8216 8214 8216 8215 8215 8213 8213 8211 8210 8213 8210 8208 8204 8202 8199 8199 8198 8196 8193 8188 8191 
8245 8250 8250 8250 8249 8253 8251 8247 8250 8247 8249 8247 8246 8245 8245 8245 8244 8244 8243 8244 8244 8244 8245 8246 8243 8244 8245 8246 8245 8247 8247 8245 8238 8236 8240 8246 8244 8240 8237 8238 8235 8236 8237 8236 8231 8224 8228 8228 8226 8221 8224 8220 8218 8218 8220 8220 8220 8217 8215 8216 8213 8213 8216 8218 8214 8213 8210 8213 8212 8209 8205 8205 8197 8200 8197 8195 8196 8192 8190 8188 
8241 8248 8248 8247 8246 8251 8248 8248 8249 8244 8244 8244 8242 8245 8241 8243 8241 8240 8242 8243 8243 8246 8246 8246 8245 8242 8241 8243 8240 8245 8243 8232 8183 8177 8192 8231 8237 8240 8236 8234 8230 8230 8230 8226 8224 8221 8225 8227 8226 8221 8222 8219 8217 8218 8218 8215 8218 8217 8215 8213 8214 8210 8215 8216 8211 8213 8213 8212 8213 8206 8207 8204 8201 8195 8196 8198 8195 8190 8187 8189 
8242 8251 8250 8248 8250 8249 8247 8250 8249 8246 8246 8241 8245 8244 8241 8242 8240 8242 8238 8239 8242 8242 8243 8244 8241 8240 8235 8240 8240 8229 8211 8183 8179 8183 8193 8189 8233 8233 8216 8192 8185 8183 8179 8163 8193 8197 8208 8224 8224 8222 8222 8221 8219 8219 8219 8219 8217 8218 8217 8216 8215 8215 8218 8215 8215 8217 8210 8211 8212 8211 8206 8202 8203 8202 8199 8197 8199 8193 8188 8189 
8243 8248 8252 8248 8249 8250 8249 8250 8250 8248 8249 8248 8246 8244 8242 8242 8238 8240 8241 8240 8239 8238 8241 8241 8239 8235 8235 8220 8195 8208 8200 8207 8209 8173 8179 8169 8209 8201 8173 8197 8175 8174 8166 8162 8163 8202 8210 8220 8226 8223 8222 8221 8221 8219 8218 8219 8216 8218 8214 8214 8213 8215 8217 8214 8215 8214 8210 8211 8214 8207 8207 8203 8202 8199 8198 8198 8199 8193 8190 8192 
8245 8248 8250 8251 8250 8249 8249 8248 8248 8248 8247 8248 8244 8245 8242 8242 8241 8238 8241 8238 8237 8239 8240 8241 8232 8234 8222 8211 8228 8234 8232 8231 8223 8177 8167 8163 8169 8177 8169 8188 8215 8227 8225 8224 8188 8148 8160 8215 8225 8223 8221 8222 8222 8217 8218 8221 8218 8216 8212 8215 8214 8212 8213 8214 8213 8213 8212 8210 8209 8208 8203 8204 8201 8202 8199 8198 8199 8197 8192 8191 
8246 8251 8249 8250 8252 8248 8250 8248 8250 8247 8247 8246 8244 8243 8241 8240 8240 8237 8239 8238 8237 8238 8241 8239 8237 8235 8230 8235 8239 8235 8231 8200 8173 8158 8171 8157 8154 8179 8185 8217 8225 8230 8230 8229 8223 8165 8132 8149 8209 8221 8223 8224 8225 8221 8219 8220 8220 8217 8216 8214 8212 8213 8212 8214 8213 8210 8211 8210 8208 8207 8203 8204 8204 8200 8197 8196 8200 8193 8193 8191 
8245 8251 8251 8252 8249 8252 8250 8248 8249 8244 8246 8245 8242 8239 8239 8239 8240 8234 8234 8237 8236 8238 8240 8240 8238 8237 8234 8233 8238 8232 8225 8224 8191 8159 8175 8153 8167 8163 8167 8210 8227 8227 8231 8228 8227 8211 8168 8133 8171 8219 8222 8223 8222 8221 8219 8219 8216 8218 8213 8214 8212 8213 8214 8213 8212 8209 8207 8208 8210 8206 8203 8203 8204 8202 8197 8197 8199 8191 8190 8189 
8245 8252 8251 8250 8251 8251 8250 8250 8250 8248 8247 8242 8241 8241 8239 8238 8237 8237 8232 8232 8235 8236 8237 8238 8235 8235 8233 8234 8235 8233 8233 8233 8227 8192 8179 8161 8175 8208 8218 8223 8226 8225 8224 8228 8224 8221 8221 8182 8145 8203 8211 8216 8220 8220 8221 8221 8217 8217 8215 8214 8213 8210 8214 8210 8212 8207 8204 8206 8208 8206 8201 8200 8202 8199 8196 8197 8198 8195 8189 8190 
8244 8251 8252 8247 8251 8251 8247 8247 8249 8244 8242 8242 8239 8242 8237 8236 8236 8233 8231 8233 8233 8234 8236 8234 8232 8232 8232 8234 8234 8235 8233 8231 8231 8212 8166 8161 8184 8221 8219 8209 8214 8214 8187 8187 8202 8206 8214 8217 8198 8172 8164 8175 8185 8212 8220 8221 8217 8218 8213 8213 8213 8213 8210 8211 8206 8206 8204 8206 8208 8202 8201 8201 8200 8198 8201 8198 8199 8194 8192 8192 
8248 8254 8253 8248 8252 8250 8249 8243 8243 8243 8243 8240 8240 8241 8237 8235 8234 8231 8235 8231 8233 8235 8238 8234 8231 8233 8234 8236 8236 8234 8232 8233 8231 8221 8167 8170 8208 8220 8186 8158 8152 8164 8161 8155 8151 8148 8158 8178 8203 8177 8160 8165 8173 8208 8219 8221 8217 8218 8211 8211 8210 8209 8209 8207 8206 8208 8206 8203 8207 8205 8201 8200 8201 8200 8199 8197 8197 8195 8190 8187 
8251 8252 8253 8252 8253 8248 8249 8246 8242 8241 8243 8239 8238 8240 8236 8237 8233 8233 8232 8232 8234 8237 8235 8236 8233 8235 8232 8238 8236 8235 8237 8235 8232 8227 8173 8163 8210 8217 8157 8144 8140 8149 8145 8150 8148 8174 8163 8141 8156 8160 8162 8166 8176 8212 8216 8217 8209 8211 8209 8209 8208 8208 8207 8209 8205 8204 8205 8206 8204 8203 8199 8201 8199 8195 8195 8197 8198 8197 8191 8192 
8250 8255 8252 8252 8250 8251 8249 8248 8245 8240 8243 8238 8240 8242 8238 8236 8235 8232 8234 8232 8235 8236 8237 8236 8232 8232 8233 8237 8238 8235 8235 8235 8231 8223 8176 8148 8178 8179 8156 8131 8129 8138 8138 8146 8184 8208 8171 8137 8139 8156 8162 8168 8185 8211 8214 8212 8211 8208 8208 8207 8207 8206 8208 8205 8206 8203 8199 8204 8204 8203 8200 8198 8198 8196 8194 8194 8195 8196 8191 8191 
8247 8256 8251 8254 8253 8253 8246 8246 8243 8241 8245 8240 8237 8240 8234 8237 8233 8232 8235 8234 8231 8233 8234 8233 8233 8235 8232 8234 8237 8236 8233 8230 8229 8187 8171 8144 8149 8190 8167 8174 8167 8133 8157 8193 8217 8213 8184 8163 8140 8159 8167 8169 8195 8211 8211 8214 8211 8211 8208 8208 8207 8203 8208 8206 8206 8203 8203 8202 8204 8203 8198 8198 8198 8198 8198 8194 8195 8193 8192 8195 
8248 8256 8253 8253 8250 8246 8246 8243 8243 8243 8244 8238 8240 8240 8237 8239 8236 8233 8232 8232 8229 8229 8230 8236 8234 8232 8228 8229 8232 8230 8230 8226 8198 8183 8206 8152 8184 8183 8163 8207 8211 8182 8206 8218 8219 8214 8215 8207 8148 8158 8165 8168 8206 8211 8215 8212 8208 8210 8208 8207 8204 8202 8206 8206 8206 8203 8203 8205 8202 8201 8200 8197 8198 8200 8197 8196 8194 8194 8187 8192 
8248 8254 8253 8251 8250 8247 8245 8243 8245 8240 8240 8235 8237 8241 8235 8236 8235 8231 8228 8228 8228 8230 8230 8233 8233 8230 8225 8226 8215 8204 8211 8199 8166 8185 8205 8158 8144 8137 8144 8170 8192 8211 8216 8218 8219 8215 8212 8214 8167 8159 8165 8172 8210 8212 8211 8211 8210 8212 8208 8207 8202 8200 8205 8208 8203 8203 8205 8204 8202 8203 8201 8198 8196 8195 8197 8195 8196 8191 8187 8191 
8244 8253 8253 8251 8248 8249 8247 8243 8239 8241 8240 8235 8237 8239 8234 8235 8235 8232 8230 8226 8229 8229 8230 8231 8229 8229 8225 8216 8186 8167 8166 8158 8154 8149 8173 8155 8153 8146 8138 8133 8141 8179 8214 8217 8220 8215 8214 8210 8167 8162 8165 8181 8213 8214 8213 8213 8212 8210 8208 8205 8203 8199 8206 8206 8205 8203 8204 8206 8204 8205 8203 8198 8197 8196 8197 8200 8195 8190 8188 8194 
8243 8255 8256 8251 8251 8251 8247 8243 8242 8241 8240 8239 8236 8237 8234 8235 8234 8231 8233 8231 8229 8229 8232 8233 8230 8227 8225 8208 8181 8157 8157 8157 8157 8149 8159 8159 8156 8152 8149 8140 8147 8147 8167 8210 8216 8213 8216 8202 8164 8166 8172 8192 8215 8212 8214 8212 8210 8210 8211 8209 8204 8203 8207 8209 8207 8203 8203 8201 8207 8205 8202 8200 8202 8199 8196 8196 8195 8195 8191 8194 
8246 8253 8254 8252 8251 8250 8247 8245 8244 8238 8240 8241 8239 8240 8234 8236 8236 8234 8232 8232 8231 8230 8233 8234 8229 8227 8220 8204 8158 8156 8152 8152 8152 8153 8161 8157 8155 8154 8152 8149 8177 8175 8158 8182 8211 8209 8214 8194 8166 8173 8172 8205 8214 8214 8212 8213 8212 8210 8210 8207 8209 8206 8207 8209 8206 8204 8205 8202 8208 8206 8202 8201 8204 8200 8195 8199 8198 8196 8196 8196 
8247 8251 8255 8253 8251 8249 8245 8248 8242 8240 8240 8240 8241 8240 8235 8234 8237 8232 8233 8230 8228 8230 8234 8231 8228 8222 8214 8172 8156 8159 8151 8148 8148 8153 8156 8151 8144 8168 8160 8154 8174 8208 8204 8185 8202 8210 8214 8187 8174 8175 8177 8205 8214 8212 8212 8214 8212 8215 8212 8210 8208 8206 8210 8208 8207 8207 8206 8208 8208 8208 8205 8205 8205 8204 8204 8201 8204 8197 8195 8199 
8248 8249 8253 8252 8250 8250 8248 8245 8243 8238 8242 8239 8241 8243 8237 8236 8236 8236 8234 8230 8231 8232 8230 8231 8229 8220 8193 8165 8157 8159 8150 8146 8148 8147 8148 8137 8130 8140 8145 8148 8162 8203 8209 8213 8213 8207 8212 8183 8179 8179 8186 8210 8212 8210 8213 8215 8211 8214 8212 8210 8210 8207 8210 8210 8208 8209 8206 8210 8209 8209 8209 8208 8207 8208 8205 8201 8206 8199 8199 8199 
8245 8253 8251 8253 8254 8251 8248 8246 8246 8243 8245 8243 8242 8241 8238 8238 8236 8236 8235 8234 8230 8232 8233 8228 8226 8210 8184 8168 8165 8159 8143 8148 8146 8153 8149 8140 8121 8116 8127 8130 8136 8167 8206 8213 8214 8211 8207 8181 8183 8184 8193 8210 8214 8213 8213 8212 8212 8212 8212 8212 8212 8209 8212 8211 8208 8212 8208 8213 8211 8208 8209 8209 8209 8206 8206 8206 8206 8204 8202 8200 
8247 8255 8256 8256 8256 8252 8249 8247 8248 8244 8243 8245 8242 8245 8243 8238 8238 8237 8238 8234 8232 8230 8234 8231 8227 8192 8187 8173 8172 8152 8141 8143 8143 8147 8150 8148 8123 8127 8148 8128 8134 8143 8180 8208 8211 8207 8200 8181 8181 8181 8200 8213 8211 8212 8213 8212 8214 8216 8213 8212 8214 8213 8212 8213 8213 8213 8210 8213 8214 8210 8208 8212 8211 8210 8208 8213 8209 8206 8206 8207 
8249 8253 8259 8254 8254 8252 8251 8248 8246 8247 8249 8245 8245 8246 8244 8241 8238 8240 8240 8235 8233 8232 8234 8235 8227 8188 8183 8163 8162 8140 8131 8137 8138 8142 8138 8127 8124 8138 8167 8132 8131 8133 8142 8191 8208 8207 8191 8181 8181 8180 8207 8213 8210 8210 8213 8214 8216 8215 8215 8212 8215 8212 8215 8214 8209 8212 8213 8211 8214 8212 8210 8214 8211 8211 8213 8215 8213 8210 8207 8208 
8248 8254 8256 8255 8256 8255 8250 8250 8249 8249 8249 8246 8246 8246 8241 8245 8242 8242 8240 8238 8236 8236 8236 8237 8234 8215 8181 8161 8155 8134 8129 8136 8136 8147 8141 8119 8127 8154 8179 8166 8129 8121 8134 8150 8167 8200 8181 8180 8178 8181 8210 8212 8209 8210 8214 8214 8215 8216 8211 8212 8214 8212 8216 8211 8210 8213 8213 8214 8214 8213 8211 8213 8213 8214 8215 8215 8215 8214 8213 8211 
8249 8253 8256 8255 8255 8253 8254 8255 8254 8247 8251 8247 8249 8246 8245 8245 8242 8243 8240 8238 8237 8235 8241 8240 8234 8222 8174 8158 8158 8143 8150 8141 8140 8141 8158 8123 8139 8160 8210 8179 8155 8160 8135 8146 8159 8188 8176 8177 8179 8189 8212 8213 8210 8211 8213 8213 8213 8216 8212 8214 8213 8212 8213 8213 8208 8211 8213 8213 8213 8215 8213 8214 8220 8218 8215 8216 8217 8216 8214 8212 
8249 8255 8259 8257 8253 8256 8255 8259 8255 8251 8253 8250 8250 8253 8246 8247 8246 8243 8243 8242 8238 8237 8240 8240 8234 8212 8175 8169 8161 8175 8178 8159 8162 8148 8150 8141 8166 8172 8204 8215 8210 8169 8148 8151 8178 8187 8178 8176 8178 8203 8221 8223 8213 8211 8212 8214 8213 8213 8211 8214 8212 8210 8212 8210 8211 8210 8213 8213 8212 8215 8214 8215 8219 8219 8218 8218 8219 8217 8213 8214 
8253 8258 8259 8255 8260 8259 8257 8256 8257 8255 8254 8252 8252 8255 8250 8248 8247 8247 8246 8243 8245 8246 8250 8249 8238 8201 8179 8183 8173 8187 8199 8186 8161 8143 8162 8177 8212 8189 8187 8222 8224 8201 8157 8157 8202 8203 8181 8183 8183 8207 8218 8212 8210 8210 8212 8215 8214 8216 8212 8212 8215 8213 8214 8212 8212 8213 8212 8215 8214 8216 8215 8217 8219 8220 8218 8218 8221 8215 8215 8215 
8255 8258 8257 8259 8259 8256 8259 8253 8256 8255 8255 8254 8253 8252 8250 8249 8249 8246 8246 8243 8250 8258 8257 8252 8237 8206 8197 8198 8177 8184 8199 8164 8149 8137 8164 8190 8217 8215 8178 8226 8239 8223 8183 8174 8231 8204 8199 8204 8202 8206 8213 8211 8210 8209 8211 8214 8214 8214 8213 8213 8213 8211 8212 8212 8211 8214 8213 8213 8219 8216 8215 8217 8218 8215 8218 8223 8218 8216 8217 8218 
8257 8260 8261 8258 8259 8256 8256 8257 8260 8257 8256 8257 8253 8257 8252 8252 8247 8249 8246 8236 8232 8254 8249 8254 8244 8231 8224 8206 8178 8186 8186 8150 8141 8134 8169 8193 8200 8208 8185 8213 8233 8227 8210 8204 8211 8203 8205 8203 8205 8215 8222 8215 8210 8209 8212 8212 8216 8215 8211 8213 8212 8210 8212 8211 8212 8215 8214 8213 8218 8216 8218 8216 8217 8218 8218 8222 8219 8217 8220 8216 
8256 8261 8259 8260 8258 8259 8258 8259 8259 8255 8259 8255 8259 8258 8253 8251 8251 8248 8251 8235 8224 8226 8234 8241 8245 8239 8231 8220 8195 8201 8204 8192 8186 8187 8199 8205 8201 8201 8199 8197 8199 8199 8203 8204 8202 8199 8206 8209 8211 8227 8228 8211 8208 8209 8211 8211 8214 8213 8211 8214 8215 8209 8211 8212 8214 8216 8215 8215 8216 8214 8215 8218 8217 8217 8218 8220 8221 8218 8215 8218 
8254 8260 8259 8257 8259 8257 8257 8260 8260 8254 8259 8256 8257 8259 8256 8256 8253 8252 8249 8240 8216 8216 8217 8213 8214 8217 8212 8211 8211 8208 8211 8207 8208 8208 8208 8208 8201 8200 8198 8198 8197 8201 8206 8205 8206 8209 8215 8215 8217 8226 8218 8210 8209 8208 8210 8213 8211 8211 8208 8209 8215 8210 8213 8210 8211 8211 8212 8216 8216 8217 8215 8214 8218 8218 8213 8219 8220 8218 8224 8217 
8256 8256 8261 8259 8258 8260 8258 8257 8260 8254 8257 8257 8251 8257 8254 8256 8254 8251 8248 8246 8224 8216 8216 8210 8211 8217 8211 8212 8213 8212 8209 8210 8211 8215 8214 8211 8209 8206 8203 8201 8202 8205 8205 8209 8213 8214 8217 8215 8216 8211 8214 8211 8208 8209 8211 8211 8211 8211 8211 8208 8210 8210 8211 8210 8213 8212 8217 8215 8215 8213 8214 8213 8216 8216 8217 8217 8223 8219 8221 8218 
8253 8263 8260 8260 8259 8259 8259 8258 8258 8258 8256 8254 8256 8255 8254 8254 8254 8251 8249 8246 8233 8222 8221 8223 8220 8226 8225 8220 8223 8219 8216 8218 8219 8221 8218 8217 8215 8213 8211 8208 8204 8208 8208 8209 8210 8206 8208 8216 8212 8209 8211 8211 8212 8207 8208 8212 8210 8211 8211 8210 8210 8210 8211 8209 8213 8212 8212 8212 8216 8214 8210 8213 8215 8217 8218 8220 8224 8218 8217 8225 
8259 8265 8267 8260 8261 8262 8261 8255 8261 8260 8258 8253 8254 8252 8254 8254 8251 8253 8251 8248 8243 8232 8221 8229 8230 8233 8239 8234 8237 8231 8229 8228 8227 8227 8230 8226 8224 8222 8215 8209 8207 8205 8207 8206 8207 8202 8208 8213 8212 8207 8212 8213 8214 8209 8212 8207 8209 8212 8208 8209 8211 8209 8208 8210 8208 8213 8210 8213 8214 8215 8211 8215 8218 8216 8216 8224 8221 8219 8218 8215 
8261 8266 8265 8261 8261 8261 8260 8254 8259 8253 8257 8254 8254 8254 8253 8254 8249 8250 8249 8247 8243 8238 8210 8209 8207 8218 8224 8234 8231 8230 8231 8226 8221 8222 8224 8224 8217 8212 8208 8208 8208 8208 8209 8208 8206 8200 8205 8210 8211 8215 8211 8212 8215 8209 8210 8210 8211 8212 8207 8212 8208 8210 8209 8212 8212 8213 8214 8210 8215 8215 8213 8214 8215 8214 8217 8221 8221 8217 8217 8218 
8264 8269 8267 8259 8259 8260 8259 8259 8258 8256 8256 8255 8253 8258 8256 8251 8252 8250 8251 8247 8246 8241 8208 8206 8207 8208 8214 8227 8232 8231 8230 8232 8227 8223 8222 8217 8215 8214 8207 8207 8207 8207 8206 8208 8205 8198 8205 8209 8219 8217 8216 8213 8214 8210 8211 8211 8208 8209 8210 8210 8209 8210 8213 8213 8211 8212 8215 8210 8215 8213 8212 8214 8216 8218 8215 8218 8218 8216 8216 8216 
8268 8271 8266 8262 8261 8260 8258 8260 8257 8257 8260 8257 8256 8256 8255 8252 8251 8250 8249 8249 8245 8242 8213 8205 8206 8208 8208 8221 8233 8233 8226 8226 8230 8227 8222 8218 8216 8214 8209 8210 8211 8212 8215 8212 8211 8209 8213 8220 8228 8224 8213 8213 8211 8212 8209 8212 8211 8210 8208 8210 8207 8209 8213 8212 8211 8211 8212 8209 8212 8213 8212 8214 8217 8215 8211 8219 8217 8217 8217 8216 
8276 8271 8266 8263 8261 8259 8260 8257 8259 8257 8260 8258 8256 8254 8252 8253 8253 8251 8250 8247 8247 8240 8216 8204 8208 8210 8207 8221 8232 8234 8228 8225 8226 8230 8225 8220 8220 8222 8215 8219 8216 8221 8224 8224 8220 8218 8223 8226 8234 8225 8216 8210 8215 8208 8209 8213 8210 8209 8208 8209 8209 8209 8209 8209 8211 8210 8213 8212 8211 8210 8212 8216 8214 8216 8216 8216 8218 8214 8217 8216 


