P2
80 60
402
122 123 118 115 116 115 108 104 105 91 88 84 81 80 76 74 68 69 66 63 63 62 60 60 54 51 44 36 38 37 34 37 37 42 42 36 33 35 44 81 182 260 283 296 305 322 355 361 344 344 368 359 357 346 361 381 379 372 365 355 351 350 328 272 190 92 76 85 87 91 91 94 101 111 117 128 126 130 133 143 
122 124 121 117 117 114 110 103 99 94 88 85 83 81 72 79 77 71 65 63 65 61 63 62 59 56 50 43 44 39 42 42 42 43 41 34 33 31 33 45 102 230 296 321 322 306 343 345 330 327 340 353 364 364 367 366 360 352 354 344 344 347 326 258 176 85 76 80 83 86 91 92 100 114 134 146 143 150 149 138 
122 123 117 116 114 115 112 104 99 95 89 91 86 80 80 73 72 71 68 65 65 64 65 64 59 60 53 49 45 43 43 43 43 45 43 33 32 29 31 36 53 173 296 325 327 338 340 322 318 324 328 339 351 357 359 350 341 346 351 347 341 342 313 246 151 83 78 82 82 85 88 90 97 108 122 153 164 173 157 156 
122 119 121 120 112 112 112 103 99 93 93 89 89 82 79 74 74 76 69 62 64 66 64 62 56 57 57 46 46 40 39 43 39 40 36 32 27 30 31 31 36 106 269 321 334 332 322 302 308 304 310 334 350 355 355 346 337 336 344 348 340 328 296 223 120 80 73 77 74 81 82 85 97 111 155 199 204 208 181 159 
118 121 118 119 112 110 111 106 100 97 93 91 89 83 80 75 73 70 70 67 63 64 66 61 57 56 55 45 45 38 41 41 42 40 37 29 26 28 28 29 29 63 229 298 317 320 313 287 285 285 286 314 354 360 358 354 344 334 337 339 342 327 277 185 89 71 70 73 72 73 78 82 93 157 325 362 243 325 358 187 
117 122 116 117 113 110 109 103 99 97 91 93 92 84 83 79 73 72 72 62 66 65 66 62 58 56 51 44 49 40 39 41 42 38 33 28 24 25 27 23 23 37 164 281 300 312 320 289 280 285 299 331 365 366 364 354 343 331 334 337 348 323 250 126 69 67 68 70 69 71 75 78 88 233 361 345 169 287 386 284 
118 122 118 119 115 110 109 102 102 97 93 90 89 84 83 80 76 75 68 66 68 67 66 62 56 55 52 46 44 40 40 39 40 36 34 26 22 22 27 27 22 25 83 245 291 307 318 314 308 317 331 351 361 366 363 356 345 338 335 333 341 307 186 89 69 64 64 70 68 67 69 73 84 142 306 278 114 187 329 270 
116 120 116 117 113 108 109 104 100 96 92 91 90 86 83 82 75 75 74 71 70 67 68 63 58 55 55 48 46 42 40 40 41 40 36 28 22 23 24 26 23 23 34 173 274 301 318 332 327 331 330 344 361 358 361 354 345 342 338 328 331 302 171 83 70 69 68 67 66 69 64 66 70 90 160 159 85 106 190 168 
114 118 115 116 110 111 107 106 100 95 91 90 90 86 86 80 79 75 73 71 73 68 65 66 57 57 54 47 46 40 41 42 42 44 36 28 24 19 24 26 25 22 25 88 251 289 314 329 332 332 336 349 356 363 364 356 353 350 336 332 329 305 199 89 70 68 68 67 62 67 69 66 66 74 71 79 76 79 97 111 
115 116 115 114 111 109 106 106 101 94 93 88 88 86 83 80 77 74 76 74 72 68 65 64 56 58 54 46 47 43 42 45 42 43 41 29 26 22 25 26 23 18 17 41 203 287 315 335 348 346 346 347 357 364 363 360 352 347 332 329 333 314 224 100 67 68 67 66 64 65 65 59 62 65 65 69 70 76 86 105 
115 115 111 114 110 107 108 98 98 94 92 90 92 85 86 82 78 78 77 71 68 69 65 66 56 58 52 46 45 46 44 44 47 46 43 31 26 24 22 20 21 17 12 21 124 267 322 342 336 332 338 338 347 354 361 360 358 348 339 333 337 322 249 108 68 68 68 61 60 60 63 59 62 63 66 69 65 68 83 96 
114 116 112 111 109 108 104 100 103 95 95 91 89 87 85 82 80 79 73 68 71 68 66 64 56 56 54 46 42 44 44 45 40 46 42 30 25 22 21 23 18 20 13 12 59 223 315 343 341 344 351 349 352 354 362 362 360 353 343 339 341 335 277 124 71 64 66 61 60 62 60 58 59 62 60 62 62 65 79 87 
113 114 111 114 111 108 102 99 97 94 89 88 88 86 85 80 77 75 74 69 70 66 63 65 58 56 54 41 44 41 37 41 38 37 34 26 22 22 26 18 19 13 11 12 23 116 285 342 348 336 326 326 338 351 360 357 353 352 345 346 344 341 310 181 83 67 63 61 56 58 59 54 59 59 56 63 63 62 73 79 
109 109 107 111 108 104 99 98 96 92 89 86 88 86 84 78 78 75 75 68 66 64 64 61 56 55 52 41 40 39 37 35 40 38 35 25 25 24 26 23 17 16 17 14 13 31 184 319 336 326 318 317 323 341 349 349 346 349 349 344 340 340 331 289 157 85 69 61 61 56 55 52 57 58 57 63 62 59 71 81 
105 111 108 109 110 105 104 98 94 91 88 88 85 82 82 77 78 74 73 67 65 64 62 60 55 55 52 42 40 36 37 38 34 39 37 27 26 22 24 25 17 15 19 16 11 15 53 227 312 313 315 313 317 336 347 351 354 349 346 339 335 342 343 335 293 187 101 79 105 82 61 58 60 60 60 62 58 65 72 79 
105 109 106 108 107 100 99 96 91 87 84 84 83 79 79 79 74 73 73 69 63 62 60 60 53 55 51 43 41 34 34 35 35 37 32 29 28 24 26 20 15 13 14 13 10 12 19 59 212 293 309 312 320 338 350 352 351 347 349 337 338 346 350 348 343 323 258 207 233 189 126 81 73 76 71 72 71 75 78 89 
103 110 105 107 107 105 99 93 91 87 84 80 79 78 78 80 72 72 71 63 61 62 56 58 54 50 54 44 39 35 32 38 38 37 32 28 25 23 23 20 19 15 12 9 8 8 14 21 48 148 288 321 331 333 331 330 340 348 344 338 336 342 348 356 353 339 306 272 270 259 240 205 191 187 167 161 166 173 158 141 
101 108 104 103 103 101 95 92 90 84 79 80 78 77 74 73 73 71 65 63 59 58 55 56 50 50 51 42 39 35 31 42 37 37 34 31 26 24 22 21 19 16 13 7 3 3 8 18 22 47 227 306 318 314 308 316 329 345 343 328 330 337 344 345 318 288 270 267 264 271 269 258 266 277 273 274 273 276 278 272 
101 104 103 99 101 95 95 91 87 82 83 78 78 78 76 74 69 64 64 59 56 57 55 53 49 54 49 40 39 35 30 38 34 35 38 29 24 24 25 21 18 14 5 9 0 2 8 15 18 28 160 299 318 316 315 315 321 337 334 325 323 323 305 288 286 281 267 261 262 260 256 276 290 284 287 293 292 294 303 297 
95 101 101 101 101 95 95 89 86 79 78 80 79 78 77 73 66 66 63 58 57 56 55 55 50 51 49 43 38 32 34 40 38 34 35 26 26 23 22 19 16 8 5 6 5 4 12 17 19 24 100 287 326 332 321 313 315 321 310 294 282 280 282 287 282 272 265 262 262 261 277 273 273 282 286 297 293 303 307 301 
98 101 98 98 97 94 95 87 88 80 81 79 76 75 73 69 68 65 61 56 53 53 57 52 50 49 51 42 38 33 37 39 37 37 32 28 26 21 20 20 15 9 5 4 4 7 10 17 23 43 123 278 316 318 303 287 277 279 275 277 282 286 279 273 271 268 268 269 261 261 262 252 266 284 290 294 296 293 306 302 
98 97 95 97 95 92 89 87 85 82 80 78 80 75 73 70 65 64 59 57 51 52 50 51 49 48 49 43 37 33 35 36 37 37 32 29 23 22 21 17 14 12 9 8 11 14 20 48 116 195 218 245 262 264 254 257 265 271 270 268 268 271 270 273 272 275 261 252 250 245 244 249 262 278 277 290 289 290 307 285 
96 97 96 96 96 95 91 86 84 83 80 77 79 75 72 69 65 63 59 52 52 52 54 55 46 51 47 42 38 36 34 36 35 38 32 28 25 20 21 19 17 14 14 20 39 80 149 203 229 225 229 235 246 238 239 237 241 245 248 257 262 264 269 277 275 250 242 247 249 240 240 251 255 267 266 293 263 301 294 268 
94 98 93 97 98 95 93 87 83 84 78 78 77 74 72 69 64 61 57 56 54 53 53 50 46 48 47 44 39 38 36 35 35 35 33 29 25 20 23 24 28 36 73 144 198 219 233 233 242 244 242 231 230 232 224 232 247 260 252 246 254 265 266 252 242 242 247 251 242 238 243 244 251 263 273 275 257 300 272 273 
98 95 92 100 95 96 94 92 88 83 79 77 78 73 70 67 64 61 59 57 55 52 52 54 48 52 48 45 40 37 36 34 39 38 37 29 27 25 27 36 81 171 210 233 240 233 231 233 243 244 248 257 254 252 242 237 239 245 247 256 254 251 251 250 253 257 256 243 232 238 240 241 253 265 268 248 259 287 259 290 
93 95 92 93 93 94 94 89 86 79 77 77 75 73 74 65 64 63 61 55 53 54 56 56 52 50 50 44 43 39 35 38 44 39 39 30 27 30 39 122 222 241 228 220 225 219 212 220 246 242 244 240 233 233 224 229 232 245 247 241 241 247 251 258 262 260 242 229 240 242 237 239 256 271 260 232 261 271 266 296 
93 96 92 94 94 94 94 89 88 81 77 76 77 73 70 69 64 63 60 57 58 55 55 57 51 51 53 46 43 38 36 43 42 42 40 32 29 37 111 210 243 253 235 199 203 211 213 230 238 243 247 241 231 224 224 221 226 236 235 237 240 246 250 255 256 243 227 237 244 237 233 251 259 275 248 234 270 258 279 299 
94 96 92 96 93 93 92 89 85 79 76 72 75 73 71 68 64 65 59 60 57 58 55 56 56 52 54 45 47 42 38 45 42 43 45 36 36 54 184 223 255 254 220 198 212 216 222 227 230 235 241 231 221 217 215 220 223 224 230 226 230 239 239 246 239 224 231 243 233 229 242 253 267 272 236 241 273 259 291 295 
94 97 94 99 92 94 93 90 86 80 77 74 77 69 71 67 72 77 80 84 92 71 65 63 59 62 60 55 52 49 43 49 45 43 38 33 39 90 198 215 261 252 210 206 223 222 221 215 219 225 224 221 218 221 222 223 224 224 227 221 232 234 234 237 225 229 241 238 227 233 250 260 270 262 229 251 277 265 300 293 
95 96 93 96 94 96 91 88 83 82 77 76 77 78 81 91 106 136 164 185 183 124 74 71 65 61 62 55 56 54 49 45 45 45 38 38 39 111 192 202 252 237 207 207 223 217 212 211 215 218 218 218 218 220 220 225 225 225 221 225 228 232 233 233 236 245 239 224 229 240 254 262 270 250 224 263 274 285 302 289 
95 98 91 93 90 96 92 87 84 84 81 84 96 116 147 184 207 230 247 252 241 179 86 74 67 67 66 60 59 56 52 48 48 44 40 35 43 135 192 197 238 222 206 209 210 205 206 208 216 214 214 216 223 225 230 230 227 234 232 227 232 231 230 235 245 240 226 225 231 244 257 262 262 244 231 281 274 300 303 294 
98 99 94 92 92 94 93 90 88 92 101 135 185 218 242 260 265 273 270 266 255 223 118 75 66 66 66 60 58 58 53 47 48 42 42 36 48 167 195 200 238 205 205 205 200 197 202 207 211 212 207 217 223 224 230 230 236 237 234 226 227 227 230 236 234 228 223 225 231 248 261 266 266 238 246 293 283 314 305 295 
100 103 97 94 91 95 94 93 104 136 186 232 258 268 279 280 275 277 275 271 263 241 164 83 71 72 69 63 62 60 51 48 49 45 42 36 61 183 201 212 234 204 207 208 208 204 204 211 216 204 199 213 214 221 221 226 234 236 226 222 223 226 225 230 223 227 221 224 239 256 262 266 257 240 255 306 291 329 309 298 
99 102 95 93 96 98 98 98 127 201 245 264 271 273 281 280 277 278 276 271 266 251 202 94 72 75 72 63 62 58 50 49 46 46 43 35 75 197 197 208 223 207 211 208 211 208 203 213 204 198 194 203 210 221 223 226 231 231 223 235 232 219 222 227 239 227 216 230 245 259 260 264 246 238 267 307 301 338 313 316 
103 103 99 102 98 97 100 97 123 215 258 269 272 275 282 276 275 281 275 270 265 254 223 126 77 78 73 66 64 62 50 51 47 48 44 37 90 201 189 208 204 201 205 204 207 201 200 206 201 190 192 202 211 223 233 235 235 230 227 250 240 225 227 235 257 230 220 241 252 258 258 261 243 242 280 308 310 343 317 329 
98 105 98 100 99 99 102 100 111 196 253 267 274 278 280 280 279 279 278 273 265 257 241 167 94 89 75 69 65 65 54 52 47 48 43 41 113 215 186 201 193 195 207 202 201 194 199 199 195 187 190 201 211 229 240 238 236 234 244 260 232 226 231 248 248 223 222 250 260 256 263 254 246 248 292 306 317 347 321 340 
104 105 102 101 102 100 100 96 103 160 253 271 274 275 281 278 275 276 275 272 266 258 245 226 228 277 147 74 68 63 54 51 50 47 47 44 130 214 184 194 198 203 204 198 198 193 194 196 190 189 191 200 215 228 240 242 236 239 249 242 234 234 233 256 241 218 229 249 252 259 266 248 246 254 292 304 326 354 323 349 
101 107 103 104 106 105 100 97 105 137 232 268 274 275 279 275 271 274 271 265 263 257 245 234 303 337 240 78 71 63 58 50 53 50 47 48 153 227 192 191 202 207 210 203 197 192 193 192 190 192 195 203 213 226 236 237 238 244 245 242 243 247 242 243 227 226 238 245 252 256 254 240 248 258 290 308 329 353 323 356 
106 107 104 108 108 107 103 107 130 197 257 267 271 271 273 269 267 268 264 259 258 255 249 238 268 341 276 97 75 69 56 53 52 49 50 59 168 242 202 198 204 209 213 205 196 190 193 193 195 196 200 202 212 229 231 237 239 252 252 256 249 251 253 236 227 241 255 252 251 257 245 237 243 258 293 309 337 355 323 356 
109 107 108 112 106 111 107 115 218 335 315 265 269 270 270 265 261 264 255 256 252 252 246 237 230 329 345 223 83 72 57 51 53 53 52 67 187 255 214 203 213 213 213 202 199 197 196 195 195 198 199 204 217 225 235 241 248 260 267 263 257 256 259 243 235 247 260 263 255 249 240 246 250 261 288 309 329 347 322 356 
109 112 111 112 111 109 108 113 203 333 351 281 271 266 263 262 258 255 252 251 249 250 245 238 223 278 360 287 93 73 58 58 56 54 54 79 193 257 215 207 216 212 208 204 200 201 196 194 198 197 201 214 219 226 239 245 252 265 273 272 255 248 245 244 245 254 258 266 265 245 238 249 259 268 287 313 324 352 329 357 
111 116 115 117 112 110 109 108 127 182 314 305 268 264 256 253 253 252 249 249 249 246 241 239 226 233 357 336 137 75 62 61 60 61 59 92 197 259 224 210 213 215 209 204 209 208 203 198 200 199 206 217 226 235 245 249 254 263 265 262 246 239 238 244 253 258 257 262 271 253 243 249 263 276 287 306 318 348 330 350 
115 124 117 118 114 113 111 109 120 169 313 323 269 258 257 251 247 248 245 245 245 244 244 236 226 232 309 353 215 77 66 64 60 61 62 111 208 259 237 208 214 213 212 213 214 213 203 202 202 208 216 220 233 239 250 250 253 255 255 247 237 231 236 244 245 247 251 261 271 259 258 256 268 278 287 305 306 337 335 348 
122 121 121 122 118 119 114 113 125 237 351 352 283 260 252 249 245 245 243 245 245 242 241 237 231 229 250 360 311 108 73 66 63 63 65 132 218 250 228 214 216 220 221 221 222 217 208 204 208 211 221 225 236 243 248 251 252 252 244 235 235 233 235 242 244 242 247 254 266 264 266 270 272 278 286 307 310 328 329 345 
124 124 122 126 122 117 118 116 130 252 392 389 330 259 252 248 244 248 244 242 244 242 240 235 231 228 229 336 331 156 70 69 65 63 69 162 221 242 222 219 224 224 229 218 219 211 206 206 215 214 218 226 235 242 246 250 248 245 238 231 235 236 236 235 238 246 246 252 250 252 264 274 278 280 285 300 310 328 326 342 
133 136 131 130 128 123 121 118 129 189 383 382 352 274 250 243 243 244 242 243 245 240 236 236 227 227 223 264 340 203 77 70 67 65 80 186 222 233 221 220 223 215 214 215 217 207 205 210 214 214 216 223 228 241 237 237 237 239 237 237 243 253 244 235 233 241 248 255 248 246 257 267 282 285 285 301 311 331 338 336 
136 140 135 134 133 130 126 123 128 149 308 367 355 293 251 245 244 243 241 240 242 236 237 233 226 226 223 214 313 268 88 71 70 66 100 209 228 229 212 214 225 215 224 230 229 221 221 222 219 214 212 218 221 224 223 228 228 232 230 235 244 254 252 237 229 233 242 255 249 256 262 270 280 282 282 297 308 335 356 337 
140 142 138 139 132 132 125 124 128 143 269 373 384 340 250 241 241 240 241 237 238 237 233 233 224 221 218 208 245 301 135 74 72 71 129 225 234 229 230 242 234 225 240 242 245 240 236 242 238 230 225 223 222 217 216 222 222 225 230 234 235 236 238 238 233 231 237 245 251 264 272 275 282 282 282 292 301 328 360 337 
144 147 139 138 136 131 128 127 129 135 231 376 401 382 263 242 237 242 239 235 237 234 233 231 223 221 216 202 195 272 207 80 72 78 161 235 236 229 242 244 239 247 255 250 249 239 237 249 256 249 242 238 226 222 217 217 217 223 226 226 225 226 230 229 230 235 233 242 251 269 283 285 289 287 285 293 303 316 354 348 
141 147 142 140 134 132 131 126 126 128 172 342 402 393 298 241 241 241 239 238 235 234 233 229 222 219 215 202 185 225 267 127 82 103 196 240 238 227 238 247 252 241 237 239 232 225 233 252 263 256 240 234 222 222 215 217 214 222 223 218 220 223 227 231 236 241 237 241 247 267 281 287 289 292 292 300 303 311 338 348 
143 144 139 144 136 135 133 130 128 126 136 213 334 374 330 239 239 239 236 235 232 231 234 230 220 218 211 194 183 188 299 274 132 149 215 242 248 231 241 254 264 234 241 241 230 233 237 237 233 218 223 219 217 217 214 219 217 220 219 217 214 220 228 234 239 245 246 245 244 252 269 278 281 288 291 300 309 317 339 336 
138 143 141 143 136 136 134 129 127 127 127 136 183 324 341 247 237 236 236 232 231 231 230 228 218 215 202 186 183 203 318 342 257 207 230 243 248 228 241 247 243 243 242 236 232 221 224 230 240 242 252 252 250 236 225 225 225 225 222 214 210 219 225 237 237 248 251 253 249 248 262 266 269 272 276 295 299 310 332 337 
145 145 141 141 142 141 140 137 134 134 131 136 154 308 367 271 226 233 237 232 233 228 227 223 212 204 211 246 286 306 330 356 343 286 281 277 260 245 246 234 225 223 224 226 227 235 251 260 264 265 267 282 283 277 272 262 247 239 229 219 213 214 222 235 240 248 251 261 264 264 273 272 267 274 280 300 305 312 331 330 
178 151 147 145 146 143 144 140 139 137 135 140 149 207 353 315 224 228 230 233 233 232 236 231 223 276 335 348 338 332 338 353 361 347 329 316 296 265 264 256 240 231 227 233 238 251 263 259 253 251 253 265 275 274 271 275 272 253 239 226 221 215 221 231 236 241 249 256 261 272 281 276 275 285 299 315 314 318 335 333 
266 217 156 149 144 149 145 143 141 142 139 140 146 157 223 298 213 220 226 233 236 245 279 352 362 371 368 350 340 332 338 353 358 359 347 320 291 255 250 260 255 251 248 245 236 236 245 254 262 263 267 257 250 258 267 271 270 265 244 235 227 223 223 226 233 239 243 253 255 268 281 281 282 295 307 317 309 314 325 332 
308 308 215 162 158 154 152 152 148 147 145 145 150 151 157 172 185 201 214 276 337 357 388 401 387 375 367 354 335 332 340 353 357 355 349 309 275 260 245 232 235 241 253 258 260 255 249 250 255 262 273 277 263 245 246 267 269 257 246 232 236 234 228 228 228 233 239 250 249 270 287 290 293 302 303 303 300 312 332 329 
300 294 271 204 170 167 164 165 163 158 155 155 154 152 150 154 157 174 162 173 230 338 393 397 385 381 368 348 336 336 350 360 359 346 310 301 290 274 258 246 238 230 232 236 238 243 251 256 260 259 265 263 257 240 235 239 235 228 224 226 229 228 232 230 227 230 234 247 254 276 301 303 308 303 294 299 299 311 328 322 
263 261 248 233 199 186 183 173 175 169 167 165 165 163 160 159 154 153 151 145 155 187 263 320 330 330 348 349 339 344 362 367 360 336 288 273 268 256 253 251 251 245 250 247 248 236 232 237 238 236 233 230 219 215 209 209 210 214 217 219 220 224 230 232 232 234 238 251 264 291 308 300 291 284 294 304 306 303 305 310 
251 256 250 255 253 219 193 192 190 188 184 180 175 173 171 169 164 159 157 152 149 152 156 163 158 162 190 284 331 354 361 365 357 325 282 264 250 236 230 228 228 235 250 263 270 268 265 264 264 257 252 247 240 235 227 228 226 229 235 235 237 237 237 252 251 253 257 274 282 292 287 274 272 284 299 314 306 286 288 291 
261 275 276 280 278 273 220 194 201 194 190 200 196 198 187 175 169 164 158 156 156 159 154 150 143 143 141 154 217 323 343 342 335 311 269 260 248 235 228 224 219 222 227 234 233 234 245 260 273 275 272 270 271 263 266 266 262 265 261 264 261 265 263 268 271 268 268 267 262 263 262 258 271 292 302 309 302 277 285 293 


