P2
80 60
383
114 108 108 105 103 100 91 84 78 69 69 65 60 55 55 57 52 48 48 41 36 32 33 28 24 19 18 17 20 17 18 24 20 17 17 10 8 13 28 36 36 37 39 36 30 40 48 61 58 66 65 67 74 78 82 83 87 92 89 96 94 95 106 110 108 109 113 109 118 116 115 108 112 108 99 93 92 85 83 80 
108 102 105 104 98 96 90 83 77 71 67 59 57 54 52 52 45 40 38 34 29 30 25 20 19 12 12 10 14 13 12 16 14 10 10 7 5 14 32 46 56 61 70 68 57 53 49 51 48 50 51 52 59 64 69 72 76 78 82 85 86 90 94 106 106 106 109 109 110 112 112 108 106 100 100 91 85 82 80 81 
107 103 104 103 95 92 86 84 75 69 67 59 56 53 51 47 37 37 35 25 27 23 25 22 17 12 8 13 14 10 11 16 12 9 18 21 36 61 86 110 118 125 121 117 102 91 76 67 49 46 45 46 51 58 58 60 66 70 74 81 78 84 92 101 103 102 105 105 108 110 102 106 101 97 97 90 85 82 77 80 
111 105 103 103 95 90 86 80 72 66 59 56 49 47 49 44 34 32 31 26 21 19 17 18 15 15 10 14 15 9 12 13 14 20 47 73 102 118 120 125 133 139 145 137 130 127 120 118 86 70 53 42 48 47 49 52 56 64 72 69 73 79 86 96 97 95 100 99 105 107 100 100 99 93 96 91 84 77 76 77 
113 102 105 99 95 86 84 76 70 62 62 56 50 48 44 36 33 31 31 24 22 17 19 20 17 10 13 18 16 19 18 23 28 62 93 114 129 137 134 133 141 142 150 149 141 141 129 129 124 119 81 43 50 51 52 55 61 68 76 82 85 92 94 96 91 95 97 96 98 99 99 101 93 90 95 86 82 82 75 78 
111 103 98 97 94 90 85 81 76 64 61 56 50 44 41 37 31 28 30 25 25 15 16 21 18 18 15 16 16 14 16 23 43 95 111 126 135 135 129 126 136 140 140 146 150 140 127 127 129 126 108 70 75 77 77 80 88 86 91 93 91 96 95 92 90 89 91 95 95 95 97 95 94 88 90 84 83 75 71 72 
106 101 99 95 90 89 82 78 72 64 61 58 50 45 40 33 31 29 30 27 26 21 17 19 17 12 7 8 7 9 15 33 78 107 124 137 134 128 130 130 130 135 141 139 149 151 143 132 126 132 130 115 106 98 95 88 87 90 94 96 95 94 92 89 87 87 91 95 89 93 91 89 87 85 85 85 77 78 75 76 
109 97 97 93 93 88 85 81 72 64 59 53 46 44 40 33 35 32 33 29 27 21 18 16 9 2 4 10 8 11 19 47 99 109 135 144 137 139 141 140 134 132 130 133 165 184 160 145 135 126 127 127 126 99 89 81 85 88 93 94 92 91 89 87 82 86 85 91 87 87 92 89 87 85 86 86 78 74 75 75 
111 96 99 90 95 87 83 79 70 63 62 56 50 44 42 34 32 28 27 21 18 13 12 13 7 6 0 9 12 13 23 72 104 115 135 145 142 141 143 133 126 123 124 130 137 149 143 134 122 124 124 130 138 111 82 81 82 87 90 92 86 90 92 86 82 87 87 90 86 89 93 88 87 82 87 81 76 79 71 75 
106 98 99 97 91 88 82 80 71 62 61 54 48 42 37 30 22 19 19 16 14 12 9 12 11 9 7 16 18 24 38 99 110 119 134 139 141 132 135 128 128 127 125 135 129 132 133 130 123 126 129 124 137 121 84 80 82 85 87 88 88 91 86 84 80 83 83 84 87 86 85 84 81 77 81 77 77 78 70 69 
99 96 98 99 93 89 88 74 68 60 58 53 50 42 41 26 16 17 16 19 14 11 16 19 13 17 15 18 27 27 44 109 140 148 147 145 131 148 181 181 164 155 142 151 148 130 126 130 121 126 140 137 139 123 80 75 78 80 85 83 79 85 81 81 79 84 84 85 85 82 86 83 82 79 77 76 76 74 69 65 
98 92 99 92 90 86 81 74 68 60 57 56 49 44 39 27 21 22 23 22 18 15 20 21 19 22 19 22 27 30 39 110 166 205 263 246 187 189 215 215 235 240 228 188 160 145 129 137 133 131 148 158 141 116 72 71 76 77 77 78 78 80 80 73 77 78 80 82 79 78 77 78 78 77 73 75 74 70 67 68 
95 93 98 92 86 87 80 76 66 62 55 54 48 47 41 27 25 26 28 23 24 22 21 23 17 17 17 24 30 29 37 101 173 242 320 346 283 258 256 302 337 344 337 313 259 184 165 163 161 172 183 175 140 92 69 67 69 71 78 75 76 78 77 71 71 72 76 79 77 79 79 79 74 75 77 72 71 69 65 62 
91 91 97 92 90 85 81 73 69 56 56 52 45 45 39 26 22 26 28 31 29 21 22 23 18 18 20 28 29 29 37 82 170 241 332 352 339 344 355 359 369 363 358 354 349 340 282 231 208 215 201 173 115 69 65 65 67 68 71 72 71 74 78 69 67 72 70 75 79 76 73 74 74 75 73 70 66 64 62 60 
92 94 101 95 94 87 78 73 67 57 53 48 46 42 38 24 25 24 26 29 23 22 20 25 17 19 21 29 27 30 33 61 151 246 339 335 333 358 362 367 371 368 362 354 349 351 342 348 302 250 222 180 102 62 64 66 64 67 71 69 69 71 71 70 69 70 68 71 75 73 68 71 71 70 71 65 64 60 54 57 
90 93 94 97 92 85 77 70 68 56 52 48 46 43 39 29 24 23 26 20 23 19 21 18 18 16 19 24 28 28 32 43 131 251 330 306 322 336 355 370 375 374 351 328 326 328 331 358 348 278 232 172 78 59 61 63 64 66 71 69 67 69 67 64 61 62 68 67 69 70 67 67 68 68 69 61 64 59 54 56 
91 87 90 95 91 83 75 73 65 58 58 52 51 43 38 31 28 23 25 23 20 19 16 18 19 22 19 27 29 27 34 44 95 236 318 325 333 336 357 383 364 367 382 351 326 333 338 352 348 304 245 164 68 60 59 62 66 67 68 68 66 67 66 65 59 64 66 67 65 68 63 63 65 64 65 62 60 53 53 54 
87 86 88 84 84 79 75 72 63 60 55 52 52 48 42 40 27 25 20 21 18 15 15 20 17 17 18 21 25 30 33 41 86 230 307 347 351 339 366 357 327 328 370 351 330 347 359 356 336 307 253 183 71 59 62 61 63 62 68 65 62 65 64 61 59 62 65 63 63 63 63 62 62 63 64 60 57 54 52 51 
91 87 85 85 81 76 70 71 65 59 54 54 50 42 38 33 26 23 20 20 13 12 16 20 23 18 16 25 21 26 32 40 83 223 296 334 355 357 350 318 312 309 339 360 358 358 344 341 319 295 255 178 73 56 59 57 58 63 63 63 61 63 67 58 58 58 61 62 63 62 60 62 62 60 61 56 59 52 49 49 
91 88 87 85 81 75 74 70 62 55 56 53 44 43 35 32 26 20 19 19 18 18 15 16 20 24 18 22 22 27 29 38 71 207 290 323 342 346 327 296 305 316 334 349 355 349 333 333 312 295 247 159 65 57 58 57 62 61 63 64 60 63 57 57 53 55 62 64 62 65 65 59 60 58 59 55 53 51 47 50 
89 82 86 84 81 77 72 69 61 54 52 47 45 38 34 32 24 21 23 20 17 16 17 17 18 19 19 28 27 29 32 40 59 183 279 314 332 343 321 268 280 283 324 357 356 342 325 331 310 294 230 121 60 55 57 57 58 61 62 63 58 58 58 58 53 57 59 60 60 60 58 57 57 56 57 57 53 49 46 47 
89 84 86 83 81 74 72 65 62 57 55 52 46 39 31 31 27 23 21 18 16 13 15 18 18 21 23 25 29 25 33 37 47 132 252 305 332 351 346 302 288 309 354 369 367 352 329 328 309 276 200 73 55 54 53 56 55 57 63 59 59 60 55 55 54 56 59 59 61 59 58 55 59 59 59 55 49 45 44 45 
85 78 82 78 76 71 69 65 62 56 54 48 42 41 31 27 21 22 24 21 12 12 14 17 17 19 19 27 27 28 29 37 43 68 213 294 323 347 356 353 350 345 363 371 366 351 324 318 309 246 121 54 53 54 54 51 56 55 58 56 54 59 51 56 54 57 61 54 56 58 53 56 53 53 54 56 51 44 44 48 
81 79 82 82 76 70 73 68 62 60 54 51 43 36 27 26 23 23 22 20 14 9 16 16 15 21 20 28 27 28 31 38 42 51 139 290 328 355 363 370 359 364 367 375 367 344 325 313 290 158 62 49 53 49 52 52 52 56 55 58 52 58 51 53 54 54 57 57 56 53 57 52 53 50 53 53 49 43 38 40 
84 79 82 78 73 71 71 66 60 57 53 45 44 39 28 27 25 23 22 19 16 13 14 18 18 19 20 28 26 30 31 37 40 49 101 272 336 366 373 368 376 376 379 377 364 347 329 307 231 67 52 46 53 54 52 51 50 53 56 55 53 56 51 58 54 54 53 54 53 51 56 52 52 51 51 50 45 45 40 43 
79 78 81 81 75 73 70 65 61 53 52 50 42 35 29 28 23 22 19 18 15 13 15 19 18 21 24 28 24 30 30 40 42 43 71 224 336 382 372 366 375 368 369 377 365 348 322 301 171 58 52 47 48 50 52 49 51 53 54 52 47 53 48 52 50 52 56 54 53 55 54 52 52 50 53 50 45 45 40 40 
79 76 79 82 77 73 71 62 57 53 52 45 39 35 26 26 21 20 22 17 18 14 17 17 20 22 20 30 27 27 28 38 40 44 60 131 318 380 375 362 359 368 375 376 372 357 327 302 121 55 52 46 50 50 50 52 51 50 54 50 51 52 52 51 50 50 53 53 51 55 55 53 51 51 52 50 48 49 41 41 
78 78 77 79 75 67 67 60 57 57 51 46 40 34 26 24 21 17 20 17 16 15 17 17 18 20 22 26 29 26 32 37 39 45 51 68 216 353 361 351 344 355 367 371 365 357 333 316 123 54 48 46 51 48 50 50 51 49 48 50 50 52 52 52 50 51 54 52 50 53 53 51 51 49 54 46 45 44 40 43 
77 76 74 76 76 69 67 64 61 52 51 43 38 28 28 27 20 20 21 18 12 15 18 19 20 20 21 29 27 29 32 41 41 42 48 57 108 316 351 343 340 349 363 366 362 353 338 332 153 61 48 46 50 49 48 47 47 49 54 53 50 51 50 50 50 50 54 55 50 49 53 50 49 49 51 48 43 42 40 42 
78 73 77 78 73 69 65 60 57 52 51 43 36 30 23 25 22 21 20 15 17 16 15 20 21 20 23 26 27 31 32 37 43 44 48 53 83 282 350 355 353 357 368 365 358 346 343 342 280 101 54 47 49 49 50 46 46 47 49 49 49 49 49 49 53 52 51 51 49 52 49 50 51 50 52 48 46 44 43 43 
77 80 78 79 72 69 67 63 59 53 53 47 35 27 22 28 21 21 20 17 17 18 18 18 22 20 18 32 28 29 35 37 44 43 51 55 74 243 346 365 368 358 355 361 359 349 341 348 336 274 154 67 50 50 52 49 49 47 51 48 45 47 47 53 48 50 49 51 48 54 51 49 52 50 50 49 48 46 42 41 
78 78 79 76 71 72 69 69 65 55 53 48 38 29 23 26 25 21 21 22 19 15 18 24 23 25 23 30 30 33 37 42 44 44 56 55 69 207 342 355 355 344 345 359 365 349 345 356 352 349 320 187 106 59 52 48 46 46 51 48 45 48 48 47 49 49 51 51 50 51 51 49 48 50 51 52 47 43 41 47 
83 78 80 78 72 73 75 72 69 59 56 48 38 28 27 27 23 19 23 20 17 16 21 21 22 25 24 30 34 35 38 40 42 45 50 61 86 225 341 356 362 349 345 360 357 352 343 360 361 356 297 245 232 169 83 53 50 48 46 50 44 46 49 48 45 49 46 51 50 50 46 47 48 47 50 49 48 44 42 43 
91 84 81 77 75 74 74 71 70 62 57 50 37 31 26 31 25 27 22 21 20 19 20 25 26 27 28 33 38 37 41 47 46 52 61 111 213 317 347 366 371 347 344 353 352 345 344 359 361 315 273 266 262 259 221 111 70 54 53 47 47 49 47 51 50 47 48 50 48 50 51 47 47 46 49 50 46 47 40 42 
94 94 86 78 77 71 72 76 70 62 57 47 39 30 32 30 26 29 24 23 25 25 24 27 29 29 29 36 39 39 45 53 63 106 188 259 276 321 351 365 368 349 347 355 349 347 348 349 303 266 264 256 269 265 252 239 204 110 67 54 51 53 49 52 50 50 49 48 50 55 51 48 48 50 50 53 46 45 39 43 
95 94 86 83 76 75 71 72 70 62 59 52 40 36 35 33 31 32 28 29 26 26 26 28 27 29 36 43 47 52 84 151 206 240 265 265 280 288 345 369 360 353 348 353 350 345 319 281 271 274 258 264 273 266 262 269 261 239 191 118 67 56 52 54 47 50 50 52 48 52 50 49 51 52 47 50 47 43 41 43 
96 94 90 82 79 80 74 70 70 61 58 52 45 38 32 38 31 31 30 29 27 26 26 32 30 36 40 49 87 176 228 256 269 277 263 273 272 269 262 293 316 313 305 295 278 267 273 285 278 269 268 283 281 255 282 287 283 284 285 249 179 101 67 54 49 49 52 51 52 50 48 51 50 50 48 46 49 48 44 46 
99 94 91 88 84 79 72 70 65 58 56 45 42 35 30 33 31 32 27 26 30 29 28 35 37 40 52 122 222 252 242 263 261 279 291 296 292 267 245 229 229 226 236 249 256 278 284 288 285 285 302 298 278 279 273 288 287 295 289 282 245 220 126 69 50 51 53 52 49 54 54 51 47 50 48 47 50 46 43 47 
103 97 91 88 86 83 80 75 64 57 54 47 42 33 29 34 31 31 30 29 31 27 31 34 38 54 128 227 254 244 255 252 257 255 282 294 293 295 253 217 218 219 233 248 270 289 298 312 304 299 292 284 253 275 263 279 285 285 283 281 254 236 202 117 62 57 54 56 47 49 52 52 53 47 55 50 46 49 46 48 
104 99 92 91 87 84 81 72 67 60 56 52 47 35 31 38 33 31 32 36 34 31 33 38 51 130 212 252 263 238 264 247 261 250 264 280 274 292 291 260 250 262 285 292 286 286 297 294 287 284 283 258 253 275 284 266 284 280 282 255 243 257 236 204 101 61 56 53 50 53 52 53 53 49 49 52 48 48 44 49 
109 101 97 94 87 84 78 74 64 64 59 54 47 37 36 37 36 34 34 34 33 32 36 48 105 221 223 260 252 251 254 255 251 250 255 274 261 279 275 282 285 280 280 265 274 292 282 280 279 278 275 239 266 274 287 271 277 295 272 252 266 275 266 241 157 68 57 57 53 53 52 52 51 49 53 51 48 47 46 50 
111 106 98 94 92 86 78 73 70 64 60 59 49 37 37 38 38 35 38 36 36 36 40 58 186 242 223 251 247 269 249 254 239 249 251 266 254 271 266 263 272 268 261 271 277 277 269 278 271 275 258 241 267 276 283 276 284 283 251 261 284 270 270 250 196 81 61 57 53 55 55 51 51 49 52 54 54 52 43 45 
110 106 98 97 91 93 89 77 72 66 64 61 53 43 38 39 40 37 40 39 37 37 47 89 230 250 231 244 266 261 248 248 235 241 253 267 259 268 279 266 263 267 272 266 268 263 269 274 272 277 244 238 269 262 273 272 291 266 262 286 284 271 267 250 217 107 67 58 55 55 54 56 56 54 55 58 55 51 47 46 
115 107 102 95 93 94 86 79 78 69 64 63 55 44 42 44 42 42 41 41 43 42 54 150 244 254 234 236 265 252 253 242 245 244 261 266 265 266 280 272 276 280 269 263 261 264 268 270 276 268 231 241 282 244 263 278 279 267 267 293 279 278 260 254 224 134 67 62 58 56 55 55 56 55 55 53 53 53 51 49 
117 106 102 96 92 93 86 79 76 73 69 66 59 53 53 50 40 44 43 44 45 50 72 197 256 258 230 230 242 257 257 243 259 251 265 270 264 254 276 280 283 283 273 262 262 269 270 277 276 255 231 269 283 246 259 273 269 268 289 297 278 273 259 251 229 161 74 64 60 62 61 58 59 58 59 57 57 54 49 49 
117 106 102 102 97 94 88 84 78 78 73 65 64 57 55 50 44 53 50 50 47 56 97 216 255 267 232 226 248 256 253 249 256 253 266 270 252 247 273 282 282 283 276 267 272 277 280 280 268 243 243 288 268 260 255 276 279 269 296 286 272 274 264 253 235 186 85 63 65 63 62 59 64 62 63 61 60 53 51 55 
115 111 105 104 102 92 91 87 84 79 73 65 64 61 61 55 51 55 54 50 52 60 120 225 244 285 235 223 244 251 247 259 255 255 264 264 247 241 266 274 278 282 278 278 275 279 279 281 248 245 260 288 260 283 254 286 271 293 299 273 276 280 265 249 239 202 101 66 65 63 63 63 63 62 61 61 59 55 56 58 
121 112 108 103 102 98 93 89 82 81 76 70 64 63 66 59 58 58 60 58 55 63 127 241 242 288 269 235 246 248 245 260 244 254 260 256 244 246 258 268 279 284 284 281 273 280 279 261 246 248 265 270 257 285 262 293 283 299 292 268 294 278 266 250 238 212 125 69 67 70 65 65 67 63 61 62 60 59 59 62 
123 114 113 110 105 104 92 92 88 82 79 74 68 68 70 65 65 62 63 59 59 69 155 249 250 286 288 239 249 246 251 253 243 251 255 249 246 243 257 273 285 285 280 278 272 275 262 245 248 238 257 261 260 271 284 289 297 302 271 285 292 277 263 251 237 217 141 77 72 71 72 71 70 68 71 66 63 62 61 62 
124 114 115 110 103 102 97 94 90 83 78 80 71 73 74 75 73 70 67 64 65 77 181 234 254 278 290 241 248 239 250 245 243 248 251 241 245 247 255 270 284 291 277 275 287 267 244 247 250 231 240 250 260 263 295 293 304 290 274 293 281 271 264 252 234 222 159 79 70 70 70 68 71 71 70 68 67 61 60 63 
124 117 111 112 104 108 99 98 97 88 81 77 73 75 80 80 79 79 73 73 73 87 200 230 269 278 282 238 246 241 256 240 238 247 243 241 246 248 256 272 288 284 282 278 287 253 237 260 252 224 227 240 263 268 297 302 294 280 292 295 264 268 259 244 226 222 159 83 72 74 75 73 71 70 72 69 68 64 62 62 
124 110 111 108 111 103 103 99 98 95 89 85 78 81 82 86 82 81 82 76 79 107 210 234 255 294 276 236 247 242 249 233 236 246 242 242 243 247 254 268 279 277 281 278 267 244 249 267 240 224 229 246 264 270 301 301 287 281 295 275 255 269 256 235 222 215 164 87 73 71 75 71 73 72 72 71 70 68 65 66 
122 115 116 116 111 112 106 103 99 96 91 87 82 83 86 90 87 89 87 82 90 128 226 243 240 271 269 234 238 240 240 233 241 248 238 243 247 246 256 267 272 275 278 266 252 256 262 261 229 232 248 253 265 277 314 302 284 293 289 256 271 269 254 227 225 207 174 93 75 74 76 74 77 74 74 74 74 75 67 69 
125 114 118 114 118 117 110 109 106 98 100 96 87 91 89 96 93 93 89 84 95 161 249 271 258 274 259 235 235 237 229 234 240 246 242 240 248 249 258 267 273 280 279 264 252 261 264 248 225 243 272 258 263 285 310 295 289 297 269 260 278 263 242 230 221 208 186 94 76 74 78 79 76 76 79 77 75 76 74 74 
125 121 123 122 122 119 112 117 113 107 103 100 94 92 94 95 94 92 91 90 102 187 258 284 274 292 262 234 231 229 224 234 242 244 242 242 246 249 261 267 268 276 270 256 257 264 262 246 225 246 282 263 265 284 316 289 298 286 259 281 273 252 233 236 225 218 189 103 79 78 78 79 79 76 77 76 78 79 74 73 
134 129 127 127 127 125 123 122 117 116 113 106 101 99 101 102 100 98 100 101 116 212 261 282 284 289 263 228 229 227 226 238 242 247 245 241 245 249 253 259 264 276 263 252 259 266 257 243 229 252 283 270 271 294 314 307 303 276 281 284 263 249 243 238 220 218 197 113 81 80 79 78 78 75 84 81 85 82 79 85 
139 131 134 133 131 132 131 130 125 122 120 118 110 108 115 110 110 103 107 107 148 243 261 284 297 292 275 230 227 225 230 236 240 244 239 238 245 247 256 254 259 272 262 250 256 259 246 236 233 249 276 275 276 294 305 307 295 270 287 276 266 251 248 232 230 221 207 121 84 80 81 80 80 79 81 88 87 90 87 87 
142 142 143 136 139 139 139 134 130 128 128 120 118 117 116 115 114 109 113 117 194 274 269 271 280 284 276 233 231 228 232 237 240 241 240 237 242 248 249 243 250 264 258 255 262 264 248 239 240 256 264 272 275 287 298 301 273 294 282 281 265 254 247 237 226 224 208 130 88 84 83 79 82 81 87 86 92 91 91 91 
149 149 146 145 146 147 141 140 131 132 128 126 118 118 117 118 120 116 119 131 234 295 292 289 287 284 262 237 230 233 235 237 238 241 239 241 244 247 247 243 245 254 257 253 257 267 256 247 247 255 257 274 271 276 286 271 279 291 280 275 264 255 241 238 227 226 201 138 82 83 86 78 85 80 89 96 96 98 91 91 
158 156 144 144 140 141 140 135 133 131 129 131 131 123 124 122 121 118 123 150 295 315 309 310 303 295 270 239 234 238 238 241 241 240 245 243 248 249 251 243 243 252 259 257 250 252 245 245 245 255 248 272 271 277 275 272 291 278 275 275 263 246 244 227 225 210 199 144 79 72 81 72 75 78 89 99 106 93 88 90 


