P2
80 60
8412
8277 8273 8278 8276 8272 8274 8272 8270 8268 8266 8269 8268 8270 8264 8262 8261 8259 8264 8262 8259 8260 8257 8259 8264 8262 8269 8270 8268 8265 8265 8265 8264 8267 8264 8267 8267 8263 8261 8262 8263 8266 8267 8267 8271 8271 8268 8268 8265 8265 8266 8267 8263 8261 8261 8260 8262 8257 8260 8256 8258 8256 8260 8254 8252 8258 8259 8257 8256 8255 8253 8252 8254 8257 8252 8254 8258 8259 8258 8249 8240 
8279 8273 8277 8274 8268 8270 8275 8269 8265 8265 8268 8269 8266 8264 8262 8261 8259 8262 8259 8261 8263 8259 8264 8263 8264 8266 8273 8270 8268 8268 8270 8266 8266 8267 8265 8268 8265 8260 8263 8264 8264 8267 8270 8271 8268 8269 8266 8263 8266 8265 8264 8261 8262 8261 8260 8259 8256 8257 8258 8256 8256 8257 8252 8251 8251 8251 8252 8254 8252 8251 8249 8251 8249 8248 8248 8248 8249 8251 8245 8236 
8271 8271 8274 8277 8270 8272 8271 8267 8268 8265 8267 8267 8269 8264 8263 8262 8262 8262 8260 8264 8265 8259 8264 8266 8267 8266 8273 8272 8268 8269 8274 8270 8271 8270 8270 8271 8267 8265 8267 8265 8264 8266 8267 8267 8268 8265 8266 8261 8262 8261 8264 8261 8260 8262 8258 8260 8256 8257 8259 8254 8257 8252 8252 8249 8251 8247 8249 8252 8252 8247 8247 8244 8248 8244 8243 8243 8245 8246 8239 8235 
8275 8270 8270 8274 8270 8271 8267 8267 8268 8260 8266 8267 8266 8261 8262 8262 8261 8262 8264 8265 8262 8260 8266 8267 8269 8269 8275 8270 8269 8271 8269 8268 8270 8271 8273 8273 8269 8269 8267 8264 8264 8264 8267 8268 8266 8266 8264 8261 8261 8260 8261 8262 8263 8261 8261 8261 8257 8255 8255 8255 8256 8253 8251 8248 8249 8247 8247 8250 8248 8248 8247 8241 8243 8240 8241 8241 8242 8237 8233 8237 
8273 8270 8273 8271 8271 8269 8272 8268 8268 8265 8265 8266 8264 8264 8264 8261 8261 8264 8260 8262 8262 8260 8265 8268 8269 8270 8273 8270 8266 8271 8271 8268 8270 8273 8271 8276 8267 8266 8268 8263 8264 8264 8264 8264 8266 8264 8264 8260 8262 8258 8261 8261 8261 8260 8258 8257 8255 8256 8257 8254 8253 8253 8251 8246 8246 8244 8248 8247 8250 8247 8242 8241 8240 8236 8239 8234 8235 8235 8227 8229 
8271 8269 8274 8270 8271 8270 8269 8268 8268 8263 8263 8267 8264 8263 8261 8262 8261 8262 8259 8262 8267 8260 8264 8267 8268 8267 8270 8268 8268 8272 8271 8268 8270 8270 8273 8275 8269 8265 8267 8263 8259 8261 8261 8266 8266 8263 8265 8262 8259 8256 8259 8260 8257 8256 8257 8259 8255 8256 8255 8253 8251 8248 8246 8246 8245 8244 8243 8244 8247 8244 8242 8242 8237 8232 8231 8232 8232 8228 8225 8222 
8269 8269 8271 8270 8270 8268 8272 8269 8267 8265 8264 8264 8264 8261 8261 8261 8257 8261 8260 8263 8267 8262 8262 8264 8266 8268 8268 8271 8267 8270 8268 8269 8270 8270 8273 8274 8268 8268 8264 8259 8258 8257 8262 8263 8262 8264 8261 8259 8256 8256 8259 8259 8254 8254 8254 8254 8255 8253 8254 8249 8249 8245 8244 8242 8242 8239 8243 8244 8244 8239 8239 8236 8236 8233 8231 8227 8230 8227 8221 8218 
8274 8265 8269 8270 8271 8268 8271 8269 8267 8262 8263 8266 8265 8263 8260 8257 8259 8263 8261 8262 8262 8259 8265 8266 8268 8267 8271 8269 8266 8267 8265 8265 8269 8273 8271 8273 8268 8266 8262 8258 8255 8257 8265 8265 8261 8264 8262 8259 8259 8254 8256 8255 8253 8252 8253 8251 8250 8250 8252 8251 8248 8247 8244 8240 8241 8241 8242 8238 8239 8239 8237 8237 8235 8231 8227 8229 8227 8223 8220 8220 
8271 8264 8270 8269 8267 8270 8269 8267 8265 8261 8263 8265 8263 8262 8260 8258 8256 8259 8258 8260 8262 8259 8264 8267 8264 8267 8269 8266 8267 8267 8267 8264 8268 8269 8271 8270 8267 8263 8263 8258 8258 8260 8260 8263 8262 8259 8260 8256 8256 8257 8253 8256 8253 8251 8251 8251 8252 8250 8251 8249 8247 8244 8240 8239 8239 8239 8237 8238 8240 8234 8236 8234 8235 8227 8228 8227 8227 8227 8221 8221 
8271 8267 8270 8269 8265 8269 8270 8266 8264 8260 8262 8262 8261 8260 8257 8255 8256 8258 8257 8258 8262 8258 8262 8263 8266 8265 8269 8266 8265 8264 8264 8264 8264 8268 8268 8267 8262 8258 8261 8256 8252 8260 8263 8264 8261 8259 8259 8256 8253 8253 8252 8254 8250 8250 8250 8252 8249 8250 8250 8245 8243 8241 8238 8238 8239 8238 8239 8239 8237 8238 8235 8235 8236 8231 8231 8231 8227 8227 8221 8222 
8273 8267 8268 8270 8268 8265 8264 8261 8265 8261 8262 8263 8262 8260 8254 8256 8257 8255 8256 8258 8258 8258 8257 8259 8259 8262 8267 8265 8264 8266 8261 8260 8262 8263 8266 8265 8259 8259 8257 8254 8252 8255 8261 8264 8259 8257 8261 8255 8255 8254 8253 8254 8251 8251 8251 8250 8252 8250 8251 8247 8245 8242 8238 8237 8239 8236 8237 8239 8236 8237 8237 8236 8234 8229 8232 8228 8226 8226 8222 8222 
8274 8264 8265 8267 8267 8264 8262 8261 8261 8260 8265 8261 8263 8259 8258 8259 8256 8256 8256 8261 8259 8257 8258 8260 8261 8259 8267 8261 8262 8264 8259 8258 8259 8261 8261 8262 8257 8255 8249 8247 8243 8251 8254 8259 8257 8254 8254 8257 8251 8253 8252 8254 8256 8254 8250 8253 8250 8250 8251 8246 8244 8240 8240 8240 8241 8240 8239 8237 8236 8236 8238 8239 8235 8232 8231 8228 8228 8226 8221 8222 
8273 8265 8267 8271 8267 8267 8264 8263 8264 8265 8266 8265 8261 8259 8259 8257 8258 8257 8257 8256 8258 8254 8258 8260 8259 8257 8264 8261 8262 8258 8254 8252 8253 8254 8258 8261 8251 8247 8246 8236 8218 8210 8222 8223 8231 8246 8253 8251 8252 8252 8252 8254 8252 8253 8254 8251 8249 8248 8251 8246 8244 8238 8240 8241 8242 8239 8239 8239 8243 8238 8237 8239 8235 8232 8233 8233 8230 8228 8224 8219 
8271 8270 8267 8268 8266 8267 8264 8264 8263 8263 8263 8266 8262 8261 8260 8258 8257 8258 8258 8258 8256 8251 8256 8260 8257 8260 8262 8258 8253 8233 8234 8225 8212 8241 8251 8252 8243 8233 8232 8177 8148 8148 8159 8166 8200 8242 8251 8250 8250 8250 8252 8254 8254 8252 8251 8253 8250 8250 8250 8248 8246 8241 8239 8242 8240 8243 8243 8241 8244 8241 8239 8239 8238 8236 8233 8233 8231 8233 8228 8230 
8272 8261 8266 8267 8266 8267 8265 8261 8265 8264 8264 8268 8265 8261 8259 8262 8259 8261 8255 8258 8253 8256 8252 8257 8259 8256 8258 8253 8244 8180 8157 8148 8161 8231 8245 8235 8203 8177 8175 8172 8146 8155 8172 8200 8239 8249 8248 8249 8248 8248 8247 8249 8247 8249 8248 8250 8248 8248 8249 8247 8246 8241 8241 8243 8243 8242 8241 8242 8244 8238 8241 8242 8238 8237 8236 8236 8234 8235 8228 8228 
8267 8262 8264 8266 8266 8268 8264 8267 8266 8264 8263 8265 8263 8261 8260 8259 8260 8259 8259 8259 8258 8252 8253 8256 8254 8254 8257 8251 8246 8214 8182 8149 8198 8238 8201 8181 8204 8215 8161 8152 8168 8213 8225 8237 8242 8245 8244 8246 8242 8234 8242 8233 8226 8231 8237 8244 8245 8247 8247 8246 8244 8244 8241 8242 8242 8244 8241 8242 8241 8240 8238 8238 8241 8238 8239 8237 8238 8237 8227 8227 
8265 8262 8265 8263 8263 8268 8265 8266 8263 8263 8267 8270 8264 8262 8265 8263 8259 8258 8257 8258 8256 8252 8255 8254 8253 8253 8252 8249 8238 8208 8162 8154 8209 8207 8155 8150 8157 8218 8218 8157 8170 8167 8164 8173 8200 8217 8223 8230 8230 8219 8209 8194 8187 8187 8202 8231 8241 8246 8248 8244 8242 8243 8244 8246 8246 8243 8240 8243 8244 8240 8241 8241 8238 8238 8241 8235 8235 8238 8229 8228 
8264 8263 8263 8264 8268 8268 8272 8270 8266 8264 8269 8271 8266 8265 8262 8261 8262 8257 8258 8258 8256 8251 8253 8252 8251 8246 8237 8210 8223 8178 8154 8150 8191 8175 8148 8151 8149 8196 8199 8155 8150 8155 8160 8171 8181 8200 8237 8238 8242 8238 8236 8223 8202 8187 8185 8197 8223 8240 8247 8242 8245 8245 8244 8245 8245 8242 8241 8242 8241 8242 8240 8241 8240 8242 8240 8238 8239 8239 8229 8227 
8266 8263 8263 8265 8265 8272 8271 8270 8270 8267 8270 8269 8267 8266 8266 8259 8261 8256 8258 8256 8255 8250 8250 8247 8234 8193 8170 8164 8189 8199 8179 8183 8183 8196 8176 8173 8166 8158 8158 8161 8163 8179 8175 8181 8190 8190 8219 8231 8237 8240 8238 8238 8229 8211 8201 8194 8196 8223 8239 8239 8243 8246 8246 8247 8245 8242 8242 8242 8244 8239 8241 8241 8240 8241 8240 8240 8241 8237 8231 8229 
8268 8267 8266 8268 8267 8271 8273 8267 8269 8266 8267 8273 8267 8265 8263 8259 8257 8256 8256 8254 8253 8247 8249 8227 8188 8195 8230 8237 8229 8208 8192 8200 8206 8202 8194 8178 8168 8160 8166 8174 8160 8166 8208 8199 8175 8162 8175 8207 8227 8231 8237 8236 8240 8236 8218 8208 8202 8209 8224 8237 8244 8244 8246 8244 8244 8243 8242 8240 8243 8240 8239 8242 8238 8238 8239 8237 8239 8238 8229 8231 
8267 8265 8267 8270 8266 8269 8266 8266 8268 8265 8267 8267 8269 8264 8259 8257 8256 8252 8251 8253 8249 8245 8237 8203 8214 8222 8218 8207 8205 8167 8161 8173 8175 8174 8181 8181 8181 8181 8176 8162 8150 8154 8164 8161 8177 8163 8167 8174 8188 8193 8209 8233 8238 8240 8235 8220 8212 8212 8218 8222 8239 8242 8244 8242 8244 8245 8242 8242 8242 8240 8241 8238 8243 8237 8236 8237 8238 8239 8231 8231 
8269 8267 8271 8269 8269 8267 8267 8264 8266 8264 8269 8267 8268 8258 8245 8229 8228 8238 8239 8233 8226 8221 8216 8215 8176 8148 8140 8137 8136 8154 8152 8145 8148 8148 8166 8170 8180 8176 8175 8168 8148 8151 8150 8155 8158 8154 8154 8152 8157 8166 8212 8236 8237 8240 8239 8239 8228 8214 8213 8213 8231 8237 8240 8244 8246 8245 8245 8244 8243 8242 8237 8243 8240 8237 8240 8239 8239 8239 8232 8235 
8274 8268 8270 8271 8267 8265 8266 8261 8264 8258 8265 8268 8263 8245 8180 8155 8160 8176 8205 8228 8217 8192 8181 8199 8158 8136 8143 8136 8127 8128 8159 8150 8136 8146 8133 8136 8139 8139 8140 8146 8147 8148 8153 8154 8157 8157 8155 8168 8176 8210 8230 8234 8236 8236 8238 8243 8239 8227 8213 8209 8222 8243 8240 8243 8241 8243 8243 8244 8245 8238 8241 8241 8240 8239 8238 8242 8239 8240 8233 8229 
8275 8276 8275 8273 8267 8266 8263 8262 8262 8260 8264 8262 8258 8217 8158 8150 8162 8207 8224 8190 8164 8159 8181 8186 8163 8145 8155 8144 8135 8135 8154 8166 8139 8149 8139 8143 8126 8121 8126 8133 8146 8167 8181 8179 8170 8164 8162 8163 8188 8212 8231 8232 8233 8236 8238 8240 8240 8239 8235 8225 8220 8234 8239 8240 8241 8244 8244 8242 8241 8242 8239 8235 8236 8240 8237 8241 8237 8238 8233 8231 
8280 8276 8276 8276 8266 8265 8264 8259 8261 8262 8263 8264 8258 8197 8161 8160 8196 8218 8186 8177 8171 8173 8169 8167 8163 8148 8144 8134 8131 8155 8153 8136 8146 8157 8153 8150 8131 8136 8134 8133 8141 8173 8216 8226 8210 8194 8187 8176 8176 8216 8227 8225 8223 8232 8235 8239 8238 8239 8239 8240 8235 8226 8237 8239 8240 8243 8242 8244 8242 8237 8235 8237 8235 8236 8235 8236 8235 8240 8236 8227 
8280 8277 8279 8275 8269 8266 8264 8261 8259 8262 8261 8262 8248 8177 8166 8183 8218 8213 8219 8184 8173 8169 8170 8182 8175 8144 8149 8143 8134 8137 8132 8133 8142 8154 8161 8167 8163 8165 8166 8148 8145 8163 8210 8229 8229 8230 8226 8220 8200 8196 8188 8177 8177 8203 8223 8233 8238 8238 8240 8240 8239 8235 8236 8239 8243 8240 8240 8239 8239 8235 8236 8234 8238 8236 8234 8236 8237 8239 8234 8231 
8276 8278 8279 8276 8266 8263 8261 8258 8259 8261 8261 8260 8219 8169 8180 8230 8248 8246 8236 8184 8172 8178 8166 8147 8154 8155 8165 8168 8172 8142 8129 8132 8150 8154 8157 8164 8158 8159 8163 8154 8147 8146 8154 8181 8206 8214 8214 8218 8223 8223 8218 8203 8185 8175 8174 8211 8236 8237 8239 8238 8241 8240 8239 8240 8240 8240 8239 8237 8234 8234 8236 8232 8233 8235 8233 8233 8237 8237 8229 8231 
8285 8279 8276 8271 8268 8265 8263 8262 8260 8260 8256 8248 8183 8174 8218 8247 8253 8249 8234 8175 8163 8155 8150 8162 8185 8205 8183 8162 8153 8150 8144 8139 8152 8159 8157 8164 8164 8157 8160 8157 8154 8153 8157 8168 8180 8224 8230 8228 8231 8231 8231 8232 8228 8192 8174 8181 8219 8236 8238 8239 8237 8240 8238 8236 8239 8238 8235 8234 8233 8232 8234 8230 8230 8234 8234 8235 8235 8237 8233 8226 
8278 8277 8277 8273 8267 8266 8264 8260 8261 8258 8255 8217 8171 8197 8247 8248 8252 8248 8231 8190 8166 8162 8173 8201 8235 8220 8166 8159 8152 8152 8153 8149 8152 8163 8167 8172 8169 8163 8162 8180 8166 8157 8167 8205 8200 8229 8232 8230 8230 8231 8231 8236 8237 8225 8195 8190 8200 8228 8234 8238 8237 8236 8236 8238 8238 8235 8236 8233 8232 8229 8230 8234 8232 8232 8231 8234 8233 8235 8228 8226 
8281 8278 8275 8271 8265 8265 8261 8260 8263 8257 8240 8181 8181 8235 8253 8253 8250 8249 8243 8228 8177 8167 8197 8237 8240 8225 8166 8159 8150 8157 8152 8154 8154 8162 8166 8159 8158 8154 8163 8203 8216 8191 8194 8229 8229 8231 8233 8229 8229 8232 8231 8235 8234 8233 8229 8215 8219 8217 8217 8237 8237 8236 8237 8239 8239 8239 8235 8232 8234 8231 8228 8230 8232 8231 8233 8233 8234 8235 8227 8226 
8280 8275 8273 8273 8267 8264 8262 8257 8256 8252 8203 8165 8209 8250 8250 8252 8251 8249 8245 8243 8225 8193 8237 8244 8246 8235 8177 8157 8151 8155 8158 8158 8156 8159 8170 8152 8132 8138 8149 8209 8197 8216 8230 8232 8234 8233 8232 8229 8230 8229 8232 8237 8236 8236 8236 8237 8236 8232 8232 8236 8238 8239 8235 8234 8237 8235 8233 8233 8231 8231 8229 8232 8230 8229 8233 8231 8233 8233 8229 8224 
8279 8274 8271 8269 8263 8262 8261 8257 8259 8253 8201 8178 8237 8251 8253 8254 8250 8249 8244 8244 8242 8238 8245 8248 8245 8239 8195 8161 8158 8161 8168 8183 8186 8165 8173 8163 8136 8134 8147 8204 8224 8202 8233 8236 8232 8231 8233 8228 8230 8230 8230 8233 8236 8237 8234 8235 8233 8234 8235 8234 8234 8235 8234 8233 8240 8235 8233 8234 8231 8228 8230 8228 8230 8232 8229 8231 8231 8233 8225 8222 
8273 8271 8271 8271 8265 8265 8260 8259 8258 8257 8227 8189 8249 8248 8253 8254 8250 8247 8246 8245 8242 8244 8243 8248 8246 8242 8221 8184 8164 8175 8205 8229 8196 8165 8156 8159 8139 8139 8147 8197 8224 8227 8228 8234 8232 8233 8231 8231 8229 8228 8230 8232 8234 8233 8234 8234 8234 8232 8236 8236 8234 8234 8237 8233 8235 8233 8233 8232 8234 8229 8229 8229 8230 8232 8232 8231 8234 8234 8225 8220 
8276 8272 8272 8269 8266 8265 8264 8261 8259 8256 8241 8207 8253 8254 8253 8252 8251 8252 8251 8247 8248 8245 8248 8247 8248 8246 8226 8223 8203 8231 8239 8229 8164 8158 8154 8155 8146 8144 8147 8162 8215 8190 8203 8219 8229 8231 8229 8229 8227 8228 8230 8231 8231 8233 8233 8235 8235 8233 8236 8233 8233 8235 8233 8236 8233 8235 8232 8232 8234 8231 8230 8229 8232 8230 8230 8231 8235 8233 8227 8225 
8274 8272 8277 8270 8266 8268 8262 8259 8258 8256 8255 8243 8257 8256 8254 8252 8253 8252 8249 8248 8249 8249 8246 8248 8247 8245 8225 8243 8241 8241 8225 8194 8150 8147 8156 8160 8159 8146 8148 8149 8168 8167 8159 8154 8189 8228 8229 8226 8226 8226 8231 8231 8230 8233 8233 8233 8233 8237 8238 8233 8235 8234 8236 8237 8232 8231 8235 8233 8232 8230 8230 8228 8229 8231 8230 8232 8234 8236 8224 8227 
8275 8271 8275 8273 8268 8266 8262 8260 8257 8257 8256 8255 8258 8257 8254 8253 8251 8252 8248 8251 8249 8248 8250 8248 8247 8244 8206 8236 8238 8241 8228 8185 8152 8147 8159 8158 8163 8158 8172 8167 8181 8183 8166 8156 8164 8217 8227 8225 8228 8227 8228 8231 8229 8232 8231 8234 8235 8233 8235 8236 8236 8234 8234 8235 8233 8232 8234 8233 8230 8229 8230 8229 8230 8231 8234 8230 8233 8233 8228 8228 
8276 8274 8276 8274 8267 8264 8262 8261 8258 8261 8261 8258 8260 8253 8254 8253 8249 8252 8252 8250 8251 8248 8249 8245 8247 8240 8180 8220 8233 8215 8200 8207 8174 8147 8161 8162 8169 8181 8170 8179 8199 8200 8166 8163 8163 8176 8211 8224 8226 8228 8226 8230 8229 8232 8231 8233 8234 8232 8236 8235 8236 8232 8232 8233 8231 8231 8231 8231 8228 8228 8229 8229 8233 8234 8232 8233 8232 8234 8228 8227 
8275 8273 8276 8275 8267 8268 8267 8260 8259 8261 8263 8261 8261 8254 8252 8252 8250 8256 8251 8251 8250 8246 8248 8249 8248 8222 8168 8211 8198 8168 8165 8170 8188 8184 8167 8182 8185 8175 8161 8161 8196 8190 8171 8168 8165 8166 8187 8224 8226 8227 8228 8232 8230 8231 8233 8233 8232 8235 8236 8234 8231 8232 8229 8233 8229 8233 8233 8230 8231 8229 8229 8232 8231 8229 8234 8234 8235 8233 8227 8230 
8273 8274 8275 8272 8272 8268 8265 8264 8262 8261 8260 8262 8258 8256 8256 8254 8253 8251 8251 8248 8249 8243 8246 8247 8235 8192 8164 8186 8169 8175 8171 8220 8227 8214 8174 8189 8190 8189 8200 8174 8178 8196 8169 8169 8168 8169 8183 8223 8228 8233 8232 8233 8232 8230 8233 8236 8235 8236 8236 8234 8231 8231 8227 8232 8232 8233 8230 8232 8229 8229 8229 8233 8231 8231 8233 8234 8234 8233 8229 8223 
8280 8275 8275 8272 8269 8268 8269 8265 8265 8262 8262 8263 8260 8256 8256 8255 8253 8256 8250 8253 8250 8247 8245 8233 8182 8166 8167 8166 8176 8195 8192 8207 8210 8203 8178 8193 8207 8211 8210 8207 8197 8207 8194 8174 8175 8169 8177 8221 8228 8233 8234 8234 8237 8239 8239 8231 8237 8234 8234 8232 8231 8231 8228 8230 8233 8231 8231 8232 8231 8231 8231 8231 8229 8231 8236 8235 8236 8232 8228 8228 
8284 8275 8275 8274 8274 8271 8268 8266 8265 8264 8265 8263 8266 8262 8259 8258 8255 8254 8252 8253 8247 8229 8216 8195 8173 8164 8169 8174 8189 8198 8199 8204 8208 8199 8180 8197 8218 8219 8223 8225 8217 8229 8242 8229 8199 8183 8183 8222 8233 8236 8240 8239 8245 8253 8241 8236 8236 8234 8234 8234 8229 8229 8230 8233 8233 8231 8233 8231 8230 8226 8230 8231 8230 8230 8237 8236 8238 8235 8228 8231 
8278 8270 8274 8275 8270 8271 8268 8266 8268 8266 8270 8268 8267 8263 8264 8262 8258 8257 8254 8256 8231 8199 8199 8192 8169 8166 8169 8183 8197 8207 8208 8212 8215 8197 8186 8194 8226 8232 8230 8240 8249 8227 8238 8263 8267 8227 8233 8234 8235 8239 8243 8246 8255 8254 8240 8232 8231 8233 8233 8230 8234 8234 8232 8233 8230 8230 8231 8231 8231 8229 8231 8232 8235 8234 8234 8235 8236 8235 8230 8229 
8276 8272 8274 8273 8271 8271 8271 8272 8272 8271 8273 8271 8275 8273 8267 8267 8263 8261 8257 8257 8247 8204 8200 8197 8188 8181 8185 8193 8206 8209 8216 8215 8208 8206 8203 8208 8230 8234 8220 8233 8239 8233 8234 8238 8238 8234 8237 8232 8237 8245 8250 8260 8266 8255 8237 8232 8233 8229 8232 8232 8232 8232 8233 8233 8231 8233 8228 8231 8230 8231 8233 8233 8233 8234 8234 8236 8240 8236 8232 8234 
8277 8275 8275 8274 8270 8273 8272 8274 8272 8274 8275 8275 8274 8272 8271 8266 8267 8265 8258 8259 8255 8214 8201 8200 8197 8194 8199 8202 8202 8204 8209 8207 8201 8204 8217 8231 8233 8231 8236 8241 8245 8242 8243 8242 8240 8242 8244 8243 8246 8253 8264 8274 8277 8259 8231 8232 8231 8230 8231 8229 8229 8231 8232 8230 8230 8230 8227 8229 8228 8231 8234 8234 8234 8234 8235 8236 8236 8237 8230 8230 
8280 8274 8277 8277 8275 8280 8274 8276 8274 8274 8276 8277 8278 8274 8271 8271 8264 8267 8265 8264 8259 8231 8206 8204 8202 8204 8209 8212 8212 8216 8217 8209 8202 8214 8218 8239 8243 8247 8245 8250 8252 8256 8256 8259 8258 8257 8262 8257 8259 8268 8274 8274 8269 8245 8232 8231 8233 8231 8231 8231 8232 8235 8229 8230 8231 8230 8233 8231 8233 8228 8233 8235 8237 8235 8237 8238 8239 8238 8233 8229 
8282 8278 8281 8278 8280 8280 8280 8277 8279 8274 8280 8282 8281 8277 8275 8275 8273 8269 8269 8264 8264 8245 8214 8212 8209 8212 8216 8224 8222 8224 8222 8212 8210 8217 8221 8227 8238 8239 8239 8239 8246 8254 8260 8265 8268 8268 8271 8267 8264 8265 8262 8253 8236 8233 8232 8234 8231 8233 8230 8229 8229 8229 8230 8228 8229 8229 8230 8229 8229 8229 8232 8234 8236 8235 8239 8237 8237 8240 8232 8229 
8280 8274 8276 8283 8281 8283 8282 8279 8280 8280 8279 8283 8283 8276 8278 8277 8275 8273 8269 8269 8269 8259 8248 8217 8209 8206 8214 8220 8224 8225 8220 8206 8211 8221 8220 8218 8229 8231 8235 8231 8235 8244 8254 8261 8260 8263 8262 8262 8252 8254 8259 8243 8233 8231 8230 8229 8231 8233 8231 8230 8232 8230 8231 8227 8227 8228 8228 8229 8229 8229 8232 8231 8237 8233 8236 8236 8240 8239 8232 8225 
8278 8277 8281 8281 8280 8285 8284 8282 8283 8280 8282 8284 8281 8280 8278 8277 8277 8275 8272 8273 8271 8265 8257 8230 8210 8213 8218 8223 8224 8224 8221 8206 8206 8213 8220 8213 8225 8230 8235 8234 8237 8242 8248 8254 8253 8252 8256 8253 8259 8272 8267 8243 8232 8229 8232 8229 8229 8231 8227 8227 8226 8228 8228 8227 8231 8230 8228 8229 8230 8228 8233 8234 8235 8231 8235 8235 8240 8239 8229 8227 
8279 8276 8279 8283 8283 8284 8286 8285 8285 8281 8286 8288 8286 8281 8281 8277 8274 8276 8272 8272 8272 8266 8265 8238 8222 8226 8230 8228 8230 8235 8230 8218 8205 8212 8213 8216 8228 8239 8242 8241 8245 8250 8251 8252 8251 8252 8252 8253 8266 8281 8264 8243 8233 8231 8228 8230 8226 8230 8228 8230 8228 8227 8226 8229 8229 8226 8229 8229 8230 8233 8232 8236 8235 8235 8236 8238 8238 8242 8236 8227 
8279 8272 8279 8281 8281 8282 8287 8283 8283 8283 8283 8285 8285 8283 8280 8277 8275 8275 8270 8272 8272 8264 8261 8248 8227 8229 8237 8232 8232 8243 8240 8227 8209 8209 8215 8218 8237 8243 8247 8245 8252 8255 8257 8255 8252 8253 8252 8253 8264 8265 8252 8240 8232 8229 8224 8227 8225 8228 8229 8226 8225 8226 8227 8227 8224 8222 8228 8230 8228 8229 8232 8233 8235 8236 8240 8238 8240 8240 8233 8230 
8277 8275 8277 8279 8278 8286 8285 8283 8281 8280 8284 8285 8283 8284 8282 8277 8273 8277 8273 8271 8270 8268 8267 8253 8230 8232 8239 8237 8233 8243 8244 8235 8219 8211 8216 8221 8239 8248 8251 8249 8255 8256 8256 8259 8254 8254 8254 8253 8251 8252 8250 8241 8229 8230 8228 8227 8226 8229 8227 8229 8227 8227 8227 8226 8224 8221 8228 8228 8235 8233 8233 8238 8234 8234 8240 8241 8240 8241 8233 8226 
8277 8273 8277 8284 8282 8281 8282 8284 8283 8281 8284 8283 8286 8284 8281 8278 8278 8275 8275 8271 8268 8267 8268 8259 8235 8236 8236 8233 8236 8242 8246 8246 8235 8215 8212 8218 8239 8250 8253 8252 8256 8257 8257 8259 8257 8255 8253 8253 8254 8250 8248 8239 8229 8229 8226 8229 8225 8225 8229 8227 8228 8227 8226 8224 8224 8223 8225 8230 8230 8232 8231 8235 8236 8235 8238 8235 8238 8240 8231 8228 
8277 8274 8279 8281 8280 8280 8285 8282 8282 8279 8282 8287 8285 8283 8283 8278 8278 8278 8276 8275 8272 8267 8268 8264 8241 8238 8242 8237 8240 8242 8250 8248 8244 8238 8227 8232 8246 8253 8253 8251 8255 8256 8259 8261 8256 8255 8255 8252 8252 8248 8249 8242 8228 8230 8231 8230 8227 8227 8227 8226 8228 8226 8225 8228 8224 8224 8225 8227 8230 8232 8234 8237 8233 8234 8236 8236 8238 8239 8233 8231 
8278 8276 8277 8281 8277 8277 8278 8278 8280 8278 8283 8284 8286 8283 8283 8279 8279 8278 8275 8275 8277 8268 8270 8271 8251 8242 8243 8239 8237 8240 8246 8251 8251 8251 8249 8251 8252 8251 8255 8254 8255 8258 8262 8261 8258 8254 8253 8253 8249 8249 8247 8238 8229 8228 8229 8228 8225 8226 8224 8225 8226 8229 8226 8224 8225 8224 8226 8228 8229 8228 8232 8232 8238 8236 8237 8236 8235 8241 8233 8231 
8271 8264 8274 8273 8273 8271 8275 8277 8276 8278 8279 8285 8284 8282 8280 8282 8279 8280 8274 8275 8272 8271 8272 8272 8257 8247 8240 8241 8238 8237 8246 8248 8249 8254 8256 8255 8254 8256 8257 8255 8257 8257 8261 8260 8258 8258 8256 8251 8251 8250 8245 8235 8225 8226 8226 8227 8225 8225 8225 8223 8228 8229 8225 8224 8226 8224 8227 8228 8231 8230 8234 8234 8235 8236 8235 8235 8237 8243 8238 8232 
8267 8268 8275 8267 8253 8254 8259 8275 8273 8272 8270 8275 8273 8273 8273 8273 8271 8271 8276 8272 8272 8268 8268 8270 8258 8243 8244 8241 8236 8243 8247 8247 8253 8256 8260 8261 8260 8258 8261 8256 8258 8259 8264 8261 8257 8258 8256 8253 8249 8250 8239 8234 8224 8224 8225 8224 8219 8222 8221 8223 8224 8225 8228 8225 8224 8225 8229 8228 8231 8231 8232 8234 8235 8235 8235 8239 8238 8246 8240 8236 
8303 8292 8281 8274 8265 8276 8275 8273 8266 8262 8263 8259 8257 8253 8255 8258 8261 8261 8259 8259 8263 8257 8260 8257 8250 8238 8236 8233 8234 8243 8246 8244 8250 8253 8259 8262 8259 8258 8260 8259 8257 8260 8260 8263 8259 8254 8251 8249 8249 8245 8240 8232 8219 8222 8222 8222 8215 8217 8221 8221 8223 8226 8225 8225 8228 8231 8228 8228 8234 8237 8239 8244 8245 8247 8247 8252 8254 8255 8243 8236 
8344 8323 8320 8320 8319 8327 8323 8312 8315 8312 8313 8306 8299 8296 8301 8307 8310 8307 8293 8292 8287 8287 8273 8249 8242 8229 8230 8235 8240 8241 8242 8241 8250 8255 8255 8260 8256 8258 8257 8259 8258 8255 8258 8260 8257 8251 8251 8248 8247 8240 8236 8229 8222 8221 8218 8221 8211 8212 8213 8215 8220 8220 8222 8227 8228 8230 8233 8237 8238 8243 8246 8245 8247 8253 8254 8255 8256 8255 8241 8239 
8345 8338 8354 8378 8372 8345 8325 8322 8346 8375 8362 8324 8317 8318 8340 8379 8369 8331 8311 8302 8304 8329 8292 8250 8242 8230 8226 8227 8227 8232 8239 8239 8235 8245 8250 8255 8253 8251 8253 8256 8254 8254 8255 8252 8251 8251 8252 8244 8244 8242 8235 8224 8222 8219 8217 8213 8210 8209 8212 8213 8216 8216 8218 8220 8223 8224 8229 8235 8240 8239 8243 8247 8247 8247 8247 8250 8251 8249 8241 8240 
8379 8383 8408 8412 8381 8361 8357 8359 8385 8399 8382 8356 8354 8347 8373 8395 8368 8337 8315 8318 8318 8337 8315 8257 8243 8230 8223 8219 8217 8222 8225 8223 8232 8236 8237 8244 8241 8245 8250 8249 8250 8248 8248 8248 8249 8252 8250 8246 8245 8241 8237 8225 8225 8229 8214 8212 8209 8206 8211 8214 8216 8219 8219 8218 8223 8226 8230 8236 8238 8240 8244 8246 8244 8247 8247 8249 8255 8246 8242 8240 


