P2
80 60
8470
8323 8304 8322 8322 8327 8320 8313 8313 8318 8311 8316 8315 8312 8310 8313 8317 8313 8306 8309 8308 8312 8325 8324 8315 8319 8323 8318 8318 8322 8322 8324 8325 8327 8327 8324 8325 8326 8325 8327 8330 8326 8321 8315 8313 8316 8319 8320 8318 8317 8317 8317 8314 8312 8307 8307 8306 8306 8303 8306 8306 8306 8307 8303 8302 8304 8301 8302 8300 8304 8302 8299 8297 8299 8300 8299 8299 8301 8303 8295 8287 
8320 8318 8329 8320 8327 8320 8313 8311 8310 8316 8315 8311 8312 8313 8306 8316 8312 8311 8307 8313 8319 8324 8325 8316 8323 8314 8312 8316 8322 8318 8322 8322 8321 8327 8323 8322 8318 8326 8333 8330 8323 8321 8313 8312 8317 8317 8317 8315 8315 8316 8310 8312 8315 8314 8306 8310 8306 8304 8305 8307 8305 8307 8307 8303 8302 8300 8302 8303 8302 8306 8298 8292 8298 8295 8297 8289 8292 8291 8287 8284 
8301 8305 8318 8309 8319 8308 8306 8314 8305 8308 8315 8310 8300 8311 8309 8310 8313 8313 8302 8312 8312 8319 8319 8315 8318 8319 8315 8316 8318 8315 8316 8318 8319 8326 8321 8319 8315 8326 8325 8326 8325 8314 8310 8316 8315 8315 8314 8316 8314 8312 8313 8309 8309 8314 8310 8307 8303 8303 8304 8299 8305 8305 8302 8302 8301 8298 8296 8298 8302 8303 8295 8292 8292 8289 8286 8285 8289 8283 8276 8280 
8324 8301 8328 8307 8322 8306 8312 8312 8316 8311 8305 8294 8309 8307 8306 8309 8311 8313 8304 8303 8308 8309 8303 8317 8319 8314 8318 8316 8319 8322 8310 8316 8318 8322 8324 8319 8319 8321 8323 8323 8321 8311 8314 8308 8312 8312 8315 8310 8308 8306 8309 8304 8307 8308 8309 8309 8302 8299 8302 8301 8302 8306 8301 8300 8296 8296 8296 8298 8301 8302 8294 8290 8291 8291 8285 8277 8283 8281 8272 8271 
8319 8298 8326 8308 8315 8314 8314 8305 8309 8310 8303 8295 8301 8307 8300 8309 8306 8305 8308 8303 8307 8314 8308 8308 8317 8313 8315 8313 8311 8318 8316 8318 8319 8320 8318 8321 8320 8317 8321 8321 8318 8312 8310 8303 8309 8308 8310 8309 8308 8308 8309 8306 8305 8308 8306 8304 8302 8299 8304 8302 8301 8303 8298 8303 8296 8293 8291 8293 8300 8299 8293 8291 8290 8288 8277 8276 8281 8277 8268 8264 
8327 8308 8315 8307 8309 8307 8316 8311 8309 8308 8291 8301 8303 8299 8300 8304 8306 8300 8303 8309 8305 8309 8318 8309 8316 8315 8312 8310 8309 8317 8319 8317 8315 8320 8317 8320 8318 8320 8318 8323 8317 8314 8312 8306 8304 8309 8308 8308 8305 8308 8310 8307 8305 8310 8303 8304 8302 8301 8302 8302 8299 8302 8298 8298 8296 8295 8292 8293 8299 8301 8293 8292 8292 8278 8275 8278 8275 8269 8270 8261 
8327 8312 8317 8326 8315 8306 8321 8318 8310 8298 8290 8306 8304 8292 8302 8309 8300 8299 8304 8315 8305 8313 8316 8314 8317 8316 8307 8308 8306 8316 8317 8317 8315 8317 8316 8320 8313 8317 8321 8323 8322 8315 8311 8307 8308 8311 8309 8309 8303 8307 8309 8303 8307 8308 8304 8305 8298 8300 8303 8301 8297 8301 8298 8297 8296 8298 8299 8302 8289 8294 8294 8294 8291 8281 8279 8279 8271 8269 8268 8266 
8323 8315 8307 8323 8310 8309 8315 8323 8317 8288 8307 8306 8300 8299 8308 8304 8301 8305 8300 8302 8312 8314 8316 8318 8316 8312 8301 8307 8313 8316 8315 8313 8316 8319 8317 8318 8313 8316 8318 8322 8318 8309 8311 8309 8305 8306 8308 8302 8304 8301 8305 8300 8305 8305 8304 8302 8302 8300 8299 8299 8299 8297 8297 8296 8294 8301 8297 8301 8293 8293 8289 8289 8288 8278 8282 8282 8274 8276 8267 8264 
8326 8306 8311 8312 8319 8310 8319 8313 8313 8295 8303 8300 8297 8298 8298 8301 8300 8297 8303 8307 8308 8306 8309 8310 8304 8313 8302 8306 8309 8310 8311 8313 8310 8310 8315 8314 8317 8314 8314 8318 8316 8311 8306 8300 8302 8306 8303 8303 8303 8304 8306 8302 8302 8307 8303 8301 8303 8301 8297 8298 8295 8297 8295 8296 8296 8294 8295 8300 8295 8298 8290 8289 8288 8288 8284 8281 8278 8279 8269 8268 
8333 8299 8314 8319 8311 8316 8302 8313 8313 8304 8302 8303 8301 8305 8298 8298 8304 8297 8305 8310 8304 8305 8311 8307 8300 8308 8307 8311 8310 8310 8309 8309 8305 8311 8316 8316 8315 8315 8312 8310 8308 8294 8268 8272 8299 8307 8305 8302 8303 8299 8300 8301 8301 8306 8303 8298 8304 8302 8300 8297 8296 8300 8297 8298 8295 8294 8294 8297 8294 8296 8292 8291 8289 8286 8284 8278 8281 8284 8273 8269 
8325 8295 8310 8310 8307 8312 8295 8306 8309 8296 8302 8295 8294 8298 8296 8294 8299 8295 8291 8299 8300 8306 8307 8306 8302 8300 8309 8309 8306 8308 8309 8303 8300 8312 8310 8306 8306 8308 8307 8298 8277 8224 8224 8289 8300 8302 8305 8302 8300 8297 8303 8304 8303 8304 8301 8299 8301 8296 8300 8301 8298 8298 8300 8294 8295 8293 8297 8298 8296 8298 8290 8290 8289 8287 8282 8281 8284 8284 8275 8271 
8320 8312 8314 8311 8302 8309 8298 8309 8311 8296 8306 8292 8296 8296 8295 8298 8296 8292 8292 8301 8306 8307 8302 8307 8310 8303 8306 8305 8305 8306 8305 8305 8299 8307 8304 8302 8301 8302 8299 8254 8222 8234 8275 8296 8299 8303 8302 8299 8302 8297 8307 8304 8302 8305 8302 8298 8301 8294 8302 8301 8297 8300 8298 8296 8294 8295 8297 8298 8292 8291 8292 8290 8289 8288 8284 8284 8293 8289 8279 8274 
8324 8306 8301 8299 8295 8307 8308 8293 8302 8299 8296 8291 8291 8290 8298 8298 8297 8298 8296 8296 8299 8309 8299 8301 8307 8300 8297 8301 8302 8303 8310 8297 8297 8304 8294 8294 8297 8293 8276 8249 8217 8255 8250 8259 8268 8277 8289 8297 8298 8299 8306 8305 8302 8307 8306 8295 8302 8296 8302 8300 8298 8298 8300 8294 8295 8298 8298 8298 8297 8292 8290 8286 8291 8284 8286 8291 8295 8290 8282 8277 
8322 8319 8316 8313 8309 8308 8306 8307 8294 8306 8305 8298 8298 8293 8297 8297 8301 8299 8299 8299 8298 8306 8302 8307 8302 8299 8301 8301 8298 8302 8303 8291 8298 8300 8294 8286 8260 8223 8204 8205 8203 8202 8204 8215 8228 8265 8289 8296 8301 8300 8303 8305 8305 8307 8307 8297 8303 8297 8301 8299 8294 8294 8297 8298 8299 8300 8301 8299 8297 8297 8293 8290 8293 8288 8284 8291 8295 8297 8287 8284 
8329 8300 8316 8317 8311 8308 8303 8307 8299 8298 8301 8298 8300 8302 8301 8300 8297 8295 8300 8299 8293 8300 8297 8301 8297 8294 8297 8295 8291 8300 8293 8291 8292 8289 8276 8227 8190 8181 8186 8191 8191 8190 8192 8217 8222 8239 8266 8287 8297 8296 8299 8304 8305 8306 8303 8305 8300 8299 8301 8299 8298 8293 8293 8301 8300 8304 8300 8296 8296 8294 8291 8291 8293 8290 8287 8290 8292 8297 8288 8287 
8332 8288 8307 8314 8310 8303 8302 8306 8301 8302 8305 8295 8296 8293 8298 8298 8300 8296 8298 8300 8292 8301 8299 8302 8296 8296 8301 8292 8291 8300 8292 8291 8291 8266 8206 8189 8185 8187 8183 8188 8191 8189 8202 8260 8281 8284 8287 8291 8294 8295 8301 8302 8302 8305 8297 8303 8303 8296 8298 8299 8298 8292 8296 8297 8304 8298 8300 8295 8296 8296 8292 8291 8294 8289 8290 8290 8294 8296 8290 8290 
8328 8291 8303 8318 8307 8297 8303 8296 8301 8303 8298 8296 8292 8294 8293 8300 8294 8301 8299 8295 8290 8303 8303 8298 8291 8291 8295 8296 8292 8294 8297 8293 8291 8268 8218 8210 8196 8189 8186 8193 8194 8187 8223 8269 8285 8289 8289 8288 8289 8290 8299 8301 8303 8298 8293 8297 8296 8294 8295 8297 8297 8291 8297 8298 8302 8298 8295 8300 8295 8294 8290 8290 8292 8294 8292 8291 8292 8298 8290 8287 
8327 8302 8310 8302 8306 8309 8300 8307 8298 8307 8303 8296 8300 8303 8301 8301 8296 8297 8298 8295 8294 8302 8303 8291 8294 8301 8302 8292 8293 8297 8294 8297 8294 8287 8274 8258 8188 8184 8207 8216 8218 8207 8262 8272 8283 8289 8290 8290 8290 8295 8297 8302 8297 8298 8294 8296 8294 8291 8295 8296 8293 8295 8300 8300 8296 8298 8297 8297 8295 8296 8288 8294 8294 8293 8291 8289 8293 8296 8292 8286 
8317 8300 8310 8307 8304 8301 8308 8304 8309 8297 8300 8297 8304 8299 8300 8299 8292 8297 8295 8287 8283 8281 8273 8285 8294 8300 8298 8291 8288 8288 8290 8294 8294 8295 8292 8260 8199 8230 8268 8236 8253 8260 8283 8284 8286 8284 8287 8290 8286 8287 8296 8297 8296 8300 8291 8290 8295 8291 8293 8293 8287 8290 8300 8298 8296 8293 8295 8294 8295 8297 8292 8292 8295 8291 8292 8291 8292 8294 8289 8286 
8315 8296 8307 8308 8299 8310 8306 8304 8305 8296 8306 8299 8297 8293 8304 8300 8291 8293 8288 8288 8241 8239 8242 8266 8291 8283 8297 8291 8287 8294 8290 8290 8289 8295 8291 8266 8255 8273 8275 8246 8262 8277 8284 8284 8283 8285 8288 8285 8289 8293 8300 8297 8294 8295 8297 8293 8297 8292 8292 8291 8289 8290 8295 8298 8298 8295 8292 8296 8294 8294 8290 8292 8291 8288 8288 8290 8290 8291 8286 8289 
8320 8304 8298 8292 8293 8297 8294 8303 8305 8297 8299 8298 8296 8292 8288 8301 8296 8293 8283 8285 8240 8239 8243 8261 8283 8281 8285 8292 8290 8287 8293 8290 8289 8289 8288 8279 8275 8276 8274 8245 8265 8280 8282 8277 8280 8284 8283 8280 8287 8285 8288 8292 8296 8296 8295 8293 8292 8294 8293 8287 8288 8296 8296 8297 8294 8294 8293 8293 8294 8294 8291 8291 8289 8288 8288 8288 8287 8291 8286 8282 
8322 8308 8305 8312 8311 8305 8287 8302 8294 8300 8298 8289 8302 8298 8291 8295 8293 8291 8281 8280 8246 8241 8240 8257 8280 8283 8283 8291 8290 8289 8285 8277 8277 8262 8226 8211 8234 8220 8246 8239 8262 8281 8279 8277 8279 8281 8279 8283 8286 8283 8288 8289 8291 8291 8292 8294 8294 8293 8290 8290 8290 8291 8294 8293 8296 8293 8291 8294 8294 8289 8290 8288 8288 8286 8287 8285 8286 8292 8284 8284 
8320 8298 8306 8311 8306 8297 8292 8286 8287 8298 8304 8292 8293 8295 8292 8292 8290 8286 8278 8278 8254 8241 8243 8258 8282 8281 8284 8286 8287 8282 8267 8233 8214 8219 8200 8206 8201 8185 8216 8225 8263 8278 8279 8278 8276 8277 8277 8278 8276 8279 8287 8289 8288 8293 8293 8292 8291 8291 8289 8285 8289 8292 8294 8291 8294 8293 8292 8295 8290 8291 8287 8288 8288 8283 8288 8288 8288 8292 8280 8282 
8316 8305 8307 8306 8304 8305 8299 8287 8304 8300 8303 8289 8294 8294 8297 8293 8293 8295 8283 8288 8257 8234 8241 8247 8281 8281 8285 8284 8277 8230 8208 8200 8200 8196 8188 8198 8246 8228 8215 8221 8261 8278 8279 8280 8277 8274 8275 8277 8277 8285 8290 8289 8287 8288 8291 8290 8294 8291 8290 8292 8288 8293 8291 8291 8293 8292 8296 8293 8290 8289 8288 8286 8288 8287 8285 8284 8285 8291 8285 8285 
8321 8291 8307 8312 8305 8300 8293 8301 8301 8291 8297 8291 8296 8295 8296 8294 8291 8290 8281 8282 8264 8238 8244 8245 8279 8279 8281 8282 8259 8240 8197 8190 8221 8231 8193 8229 8273 8275 8246 8218 8263 8279 8277 8276 8275 8273 8274 8277 8278 8281 8289 8291 8285 8288 8283 8290 8289 8294 8289 8295 8285 8291 8291 8290 8292 8291 8293 8294 8292 8290 8288 8286 8288 8283 8288 8283 8284 8285 8284 8283 
8321 8287 8301 8314 8302 8294 8304 8289 8288 8294 8295 8297 8292 8293 8298 8294 8291 8291 8285 8275 8268 8238 8247 8243 8273 8276 8278 8285 8275 8229 8183 8213 8261 8258 8237 8265 8278 8276 8269 8240 8265 8279 8273 8266 8265 8269 8269 8273 8276 8279 8283 8285 8284 8290 8286 8289 8288 8286 8290 8295 8292 8288 8285 8290 8290 8289 8290 8291 8287 8287 8285 8284 8286 8284 8283 8285 8283 8288 8279 8280 
8315 8298 8291 8304 8295 8300 8296 8288 8295 8291 8290 8293 8288 8291 8291 8291 8292 8287 8288 8276 8268 8237 8241 8245 8270 8275 8280 8282 8278 8212 8201 8236 8238 8216 8218 8253 8242 8241 8266 8233 8263 8271 8233 8201 8207 8207 8212 8227 8239 8249 8258 8278 8280 8287 8289 8288 8284 8285 8289 8295 8287 8287 8288 8287 8288 8289 8291 8285 8282 8287 8282 8281 8285 8280 8282 8282 8287 8286 8280 8283 
8309 8302 8303 8307 8302 8293 8298 8290 8291 8293 8285 8290 8292 8288 8293 8292 8286 8286 8282 8277 8270 8237 8247 8246 8269 8279 8283 8287 8282 8246 8245 8261 8211 8200 8204 8221 8212 8238 8266 8243 8256 8265 8214 8205 8213 8199 8190 8194 8203 8210 8198 8228 8269 8281 8287 8285 8286 8288 8293 8294 8288 8289 8288 8288 8290 8289 8287 8279 8281 8283 8282 8282 8283 8282 8282 8286 8291 8287 8285 8283 
8310 8295 8295 8304 8297 8295 8293 8293 8294 8299 8294 8295 8291 8290 8293 8285 8286 8284 8281 8283 8270 8238 8246 8248 8267 8281 8282 8283 8287 8271 8246 8217 8191 8193 8210 8245 8244 8229 8257 8228 8241 8238 8240 8226 8260 8227 8196 8201 8239 8259 8227 8204 8252 8285 8289 8286 8288 8287 8290 8283 8287 8283 8288 8289 8290 8289 8287 8281 8280 8280 8283 8280 8278 8279 8284 8286 8283 8297 8289 8286 
8307 8291 8296 8303 8294 8301 8298 8290 8295 8288 8297 8290 8288 8289 8288 8285 8283 8290 8284 8280 8270 8237 8245 8251 8264 8278 8282 8282 8273 8247 8229 8209 8193 8185 8182 8185 8183 8188 8207 8211 8226 8262 8272 8272 8270 8262 8250 8265 8268 8273 8276 8250 8233 8276 8286 8287 8291 8282 8286 8285 8278 8281 8289 8290 8286 8288 8285 8281 8280 8280 8281 8279 8281 8283 8284 8284 8285 8298 8290 8287 
8312 8296 8296 8301 8297 8300 8290 8296 8299 8286 8291 8287 8286 8286 8285 8288 8286 8282 8281 8278 8270 8238 8237 8246 8260 8275 8279 8282 8276 8262 8202 8215 8219 8190 8179 8171 8181 8180 8175 8186 8214 8264 8273 8275 8273 8271 8273 8273 8270 8278 8279 8276 8252 8244 8283 8285 8284 8282 8284 8281 8279 8285 8287 8288 8289 8287 8285 8286 8278 8280 8279 8281 8283 8283 8284 8283 8292 8294 8293 8292 
8314 8291 8294 8298 8288 8298 8286 8294 8296 8287 8286 8287 8286 8283 8286 8286 8286 8277 8276 8279 8269 8249 8244 8249 8256 8277 8281 8283 8282 8261 8249 8267 8244 8190 8181 8189 8202 8186 8180 8181 8231 8266 8270 8274 8274 8276 8273 8272 8277 8277 8282 8281 8274 8231 8276 8280 8281 8282 8283 8285 8282 8283 8283 8286 8287 8286 8283 8279 8284 8278 8281 8282 8284 8279 8285 8285 8293 8298 8291 8293 
8313 8297 8294 8300 8289 8297 8288 8292 8294 8292 8287 8286 8284 8285 8285 8288 8286 8275 8276 8277 8270 8253 8241 8247 8257 8278 8281 8280 8279 8278 8268 8270 8266 8219 8191 8201 8229 8218 8194 8187 8222 8267 8266 8277 8277 8277 8279 8275 8273 8276 8278 8278 8279 8254 8272 8281 8281 8279 8282 8281 8282 8280 8280 8283 8284 8283 8284 8282 8285 8280 8283 8281 8281 8280 8284 8284 8286 8292 8288 8291 
8315 8284 8306 8304 8299 8296 8289 8292 8293 8288 8286 8287 8279 8285 8287 8285 8283 8284 8280 8274 8272 8257 8238 8243 8251 8276 8284 8282 8279 8273 8267 8262 8246 8252 8212 8208 8183 8193 8196 8191 8192 8217 8256 8276 8276 8277 8281 8278 8274 8272 8281 8279 8280 8279 8278 8278 8281 8278 8278 8279 8282 8282 8281 8283 8284 8283 8281 8283 8284 8287 8283 8284 8282 8282 8287 8284 8289 8296 8287 8289 
8318 8296 8305 8300 8302 8291 8298 8299 8292 8290 8295 8290 8288 8286 8291 8287 8288 8285 8285 8280 8280 8265 8240 8243 8248 8280 8279 8268 8261 8246 8224 8198 8188 8219 8209 8196 8189 8191 8191 8191 8187 8192 8213 8268 8275 8276 8278 8280 8278 8278 8282 8279 8284 8279 8279 8281 8282 8279 8275 8279 8280 8281 8284 8284 8284 8283 8283 8281 8286 8286 8284 8286 8281 8286 8286 8280 8291 8294 8292 8291 
8320 8300 8300 8303 8296 8295 8300 8300 8295 8289 8288 8292 8294 8292 8293 8293 8289 8287 8288 8281 8285 8274 8246 8243 8246 8265 8230 8211 8215 8228 8228 8198 8190 8219 8217 8193 8192 8198 8188 8192 8187 8192 8212 8277 8294 8285 8283 8284 8285 8285 8283 8285 8285 8285 8285 8281 8282 8282 8279 8282 8285 8286 8286 8281 8286 8281 8283 8280 8283 8285 8285 8282 8285 8281 8288 8292 8292 8293 8291 8291 
8326 8304 8304 8303 8298 8297 8299 8298 8297 8286 8292 8297 8299 8290 8292 8291 8292 8285 8288 8285 8289 8276 8251 8245 8242 8238 8213 8215 8247 8270 8264 8229 8195 8194 8195 8189 8195 8209 8193 8195 8189 8190 8195 8249 8297 8299 8294 8293 8293 8297 8294 8300 8299 8288 8286 8282 8280 8283 8285 8285 8282 8284 8281 8280 8283 8286 8285 8280 8281 8279 8285 8284 8285 8288 8294 8291 8294 8297 8291 8288 
8317 8297 8304 8306 8301 8300 8302 8296 8297 8292 8297 8296 8294 8291 8296 8293 8284 8284 8284 8283 8279 8278 8256 8252 8239 8212 8225 8262 8277 8270 8271 8270 8223 8200 8203 8207 8202 8197 8193 8192 8194 8189 8196 8220 8261 8267 8259 8268 8276 8284 8302 8311 8303 8285 8281 8283 8284 8285 8279 8284 8280 8279 8282 8281 8285 8284 8280 8285 8283 8280 8284 8285 8287 8291 8291 8292 8292 8296 8292 8292 
8315 8300 8303 8307 8303 8300 8299 8298 8293 8294 8297 8295 8294 8291 8292 8287 8287 8285 8282 8284 8278 8274 8259 8263 8246 8221 8230 8270 8273 8272 8283 8283 8266 8256 8274 8256 8211 8207 8207 8216 8218 8231 8248 8267 8279 8289 8300 8297 8300 8295 8300 8300 8292 8282 8279 8283 8284 8283 8280 8279 8277 8278 8280 8280 8285 8282 8285 8287 8287 8282 8280 8283 8284 8285 8290 8293 8294 8296 8289 8289 
8315 8305 8319 8307 8303 8302 8306 8297 8300 8299 8297 8292 8292 8289 8290 8284 8286 8285 8287 8287 8293 8289 8283 8285 8275 8267 8272 8283 8287 8282 8290 8297 8290 8296 8298 8302 8291 8290 8301 8304 8303 8305 8304 8305 8304 8306 8299 8303 8290 8284 8295 8295 8289 8285 8282 8281 8281 8280 8286 8281 8274 8279 8279 8281 8283 8284 8283 8286 8283 8287 8281 8280 8283 8287 8293 8294 8292 8291 8291 8290 
8313 8307 8321 8300 8305 8306 8300 8301 8296 8296 8293 8297 8288 8291 8299 8287 8283 8292 8294 8293 8297 8299 8293 8294 8285 8285 8288 8294 8290 8294 8295 8295 8295 8296 8297 8310 8304 8303 8313 8316 8314 8313 8309 8311 8306 8311 8304 8306 8292 8271 8294 8292 8283 8280 8279 8282 8281 8280 8282 8288 8282 8284 8286 8288 8286 8285 8285 8284 8285 8283 8287 8284 8285 8291 8294 8293 8295 8294 8293 8292 
8316 8297 8315 8297 8307 8302 8293 8295 8300 8298 8293 8298 8295 8293 8302 8300 8290 8296 8295 8297 8299 8306 8305 8299 8298 8296 8295 8299 8295 8294 8293 8291 8289 8288 8295 8306 8305 8303 8312 8318 8313 8316 8313 8306 8303 8304 8305 8306 8285 8277 8290 8285 8277 8284 8285 8280 8279 8282 8282 8285 8284 8288 8287 8289 8288 8288 8286 8281 8284 8285 8287 8288 8289 8290 8291 8297 8295 8301 8294 8295 
8319 8303 8305 8304 8297 8305 8300 8302 8305 8302 8301 8296 8295 8301 8294 8295 8293 8300 8286 8289 8301 8306 8314 8314 8301 8302 8301 8305 8300 8292 8287 8285 8280 8272 8279 8289 8299 8301 8306 8312 8314 8312 8304 8298 8293 8308 8307 8307 8301 8290 8293 8279 8276 8279 8280 8279 8280 8278 8281 8281 8282 8288 8286 8288 8289 8289 8290 8278 8286 8283 8289 8290 8288 8290 8295 8293 8300 8306 8297 8294 
8318 8306 8313 8305 8309 8298 8305 8306 8305 8307 8298 8301 8303 8305 8295 8298 8294 8294 8286 8295 8296 8290 8312 8318 8309 8298 8300 8300 8303 8290 8279 8271 8269 8268 8269 8275 8279 8287 8294 8299 8297 8289 8281 8294 8292 8308 8305 8302 8303 8296 8300 8276 8278 8281 8278 8279 8280 8279 8281 8282 8284 8284 8289 8288 8288 8285 8281 8279 8283 8286 8286 8286 8291 8291 8294 8290 8298 8303 8296 8294 
8323 8313 8311 8307 8307 8303 8309 8297 8307 8307 8302 8299 8302 8306 8300 8301 8300 8300 8288 8294 8292 8287 8294 8302 8299 8289 8286 8289 8284 8288 8285 8269 8270 8266 8263 8266 8273 8275 8284 8291 8286 8284 8277 8294 8293 8296 8305 8306 8311 8304 8294 8271 8273 8276 8279 8276 8280 8277 8282 8282 8281 8282 8286 8287 8283 8289 8280 8288 8287 8286 8282 8284 8288 8290 8287 8292 8296 8294 8292 8294 
8321 8305 8307 8314 8309 8304 8311 8302 8302 8302 8301 8299 8302 8304 8302 8306 8305 8298 8293 8295 8294 8294 8288 8293 8287 8281 8288 8285 8277 8281 8286 8277 8275 8280 8282 8283 8280 8276 8284 8285 8290 8286 8290 8297 8292 8297 8304 8308 8313 8305 8293 8268 8271 8274 8274 8278 8279 8275 8279 8279 8281 8282 8280 8284 8285 8286 8288 8287 8286 8287 8283 8282 8289 8290 8285 8289 8297 8296 8290 8293 
8323 8313 8304 8314 8309 8310 8311 8301 8305 8299 8303 8305 8306 8303 8301 8306 8306 8298 8296 8294 8299 8299 8289 8291 8290 8284 8278 8278 8278 8280 8283 8282 8281 8285 8288 8289 8285 8284 8287 8288 8293 8288 8288 8298 8299 8299 8300 8311 8311 8302 8287 8271 8274 8273 8276 8277 8276 8281 8281 8279 8281 8277 8278 8282 8280 8284 8285 8285 8287 8286 8287 8280 8289 8291 8290 8286 8296 8299 8294 8290 
8320 8315 8310 8316 8307 8306 8308 8308 8315 8312 8310 8299 8305 8297 8303 8307 8306 8301 8294 8294 8299 8298 8285 8293 8292 8285 8275 8277 8285 8288 8287 8288 8290 8293 8292 8295 8287 8284 8284 8290 8298 8300 8296 8299 8300 8294 8300 8304 8310 8305 8289 8274 8274 8274 8272 8274 8274 8277 8280 8275 8277 8281 8279 8282 8284 8283 8282 8281 8281 8286 8282 8288 8289 8286 8295 8296 8297 8298 8297 8297 
8324 8303 8320 8318 8308 8314 8315 8308 8313 8305 8308 8304 8308 8303 8310 8306 8305 8301 8298 8298 8301 8296 8295 8287 8292 8287 8283 8280 8288 8289 8292 8291 8297 8294 8296 8296 8299 8297 8294 8300 8301 8301 8302 8303 8297 8297 8303 8301 8304 8304 8281 8275 8273 8274 8271 8275 8275 8277 8275 8272 8276 8278 8279 8284 8279 8282 8285 8280 8289 8280 8287 8284 8292 8289 8296 8296 8293 8299 8294 8300 
8324 8306 8318 8315 8309 8314 8317 8310 8310 8307 8309 8308 8310 8310 8306 8302 8305 8304 8305 8299 8296 8305 8302 8285 8289 8284 8287 8289 8287 8288 8296 8293 8295 8296 8303 8301 8303 8299 8293 8301 8303 8304 8297 8299 8295 8299 8299 8303 8298 8297 8279 8278 8273 8273 8268 8270 8277 8281 8276 8275 8275 8279 8283 8280 8275 8276 8280 8281 8286 8286 8285 8287 8296 8295 8293 8296 8303 8306 8299 8301 
8320 8302 8310 8311 8314 8308 8315 8306 8307 8305 8309 8307 8309 8312 8313 8310 8306 8306 8307 8296 8301 8306 8303 8288 8280 8278 8276 8283 8288 8293 8299 8297 8291 8300 8295 8299 8296 8303 8301 8304 8301 8301 8298 8295 8295 8296 8302 8302 8301 8293 8273 8274 8271 8272 8266 8276 8276 8276 8270 8268 8276 8278 8277 8273 8272 8277 8282 8283 8291 8290 8287 8287 8298 8294 8296 8292 8302 8304 8302 8304 
8316 8305 8308 8310 8312 8307 8308 8316 8304 8303 8311 8308 8310 8311 8307 8305 8302 8306 8305 8298 8303 8310 8312 8290 8279 8281 8285 8282 8285 8295 8290 8299 8295 8298 8298 8294 8299 8300 8306 8304 8303 8299 8297 8295 8296 8295 8298 8299 8300 8294 8271 8264 8271 8274 8272 8274 8276 8271 8271 8279 8282 8280 8281 8273 8275 8279 8284 8283 8295 8291 8296 8293 8295 8296 8305 8304 8312 8320 8320 8314 
8317 8307 8313 8312 8307 8302 8305 8316 8313 8306 8302 8302 8300 8306 8309 8301 8305 8310 8304 8304 8300 8309 8310 8293 8288 8286 8284 8284 8287 8286 8289 8297 8295 8300 8302 8301 8300 8297 8297 8306 8302 8296 8292 8297 8295 8294 8297 8294 8294 8282 8265 8266 8259 8273 8276 8270 8273 8272 8279 8281 8282 8283 8286 8277 8277 8284 8283 8294 8306 8303 8319 8322 8316 8326 8326 8325 8325 8334 8338 8329 
8329 8310 8312 8307 8312 8312 8315 8317 8314 8321 8302 8303 8301 8309 8308 8303 8305 8308 8302 8297 8300 8305 8300 8292 8283 8279 8280 8279 8279 8280 8286 8290 8293 8302 8303 8301 8303 8299 8295 8298 8298 8295 8294 8300 8294 8295 8293 8292 8293 8287 8270 8268 8266 8262 8268 8268 8271 8266 8267 8275 8284 8283 8286 8290 8295 8291 8291 8315 8314 8307 8314 8325 8330 8331 8333 8333 8329 8329 8341 8338 
8327 8316 8312 8313 8311 8313 8319 8323 8336 8335 8302 8304 8305 8313 8304 8302 8300 8299 8299 8296 8298 8300 8297 8292 8274 8266 8271 8277 8278 8276 8277 8284 8288 8297 8299 8300 8299 8296 8295 8294 8294 8290 8295 8297 8291 8292 8288 8293 8292 8285 8266 8272 8267 8266 8265 8272 8280 8272 8266 8281 8292 8284 8278 8284 8291 8281 8284 8298 8314 8318 8319 8326 8329 8330 8325 8335 8335 8339 8340 8337 
8329 8332 8329 8319 8311 8318 8345 8358 8330 8318 8310 8313 8343 8343 8320 8305 8304 8306 8317 8329 8312 8309 8304 8301 8270 8243 8265 8268 8274 8274 8272 8278 8288 8288 8296 8297 8294 8295 8287 8293 8294 8296 8292 8297 8292 8292 8283 8287 8293 8278 8277 8272 8268 8270 8261 8263 8267 8273 8265 8274 8282 8283 8281 8289 8301 8299 8291 8301 8311 8312 8320 8321 8337 8342 8340 8330 8330 8341 8337 8338 
8370 8369 8350 8319 8313 8339 8405 8389 8346 8340 8345 8358 8418 8401 8360 8339 8335 8359 8391 8386 8354 8349 8322 8313 8281 8243 8243 8264 8271 8271 8275 8270 8283 8278 8284 8292 8291 8288 8285 8291 8289 8290 8287 8290 8289 8282 8283 8279 8278 8277 8276 8270 8263 8266 8272 8261 8271 8279 8266 8268 8275 8280 8284 8282 8285 8305 8301 8311 8315 8322 8327 8323 8326 8330 8342 8337 8340 8340 8337 8334 
8426 8387 8363 8348 8383 8407 8438 8421 8423 8430 8447 8443 8450 8444 8436 8421 8416 8434 8424 8409 8397 8397 8360 8323 8298 8268 8268 8263 8266 8267 8264 8272 8274 8278 8269 8275 8283 8272 8279 8288 8289 8280 8275 8279 8278 8269 8273 8272 8266 8268 8274 8260 8255 8258 8264 8254 8263 8268 8272 8270 8273 8287 8291 8288 8289 8299 8303 8311 8314 8323 8337 8341 8337 8332 8348 8342 8347 8331 8340 8341 
8398 8368 8364 8391 8420 8413 8407 8420 8427 8436 8467 8444 8421 8430 8411 8395 8412 8437 8406 8376 8379 8378 8379 8335 8316 8292 8294 8285 8280 8277 8277 8270 8268 8280 8268 8275 8279 8278 8276 8283 8278 8269 8267 8264 8259 8259 8267 8268 8265 8272 8268 8256 8254 8262 8262 8258 8258 8265 8270 8272 8272 8283 8286 8290 8292 8302 8316 8333 8333 8335 8343 8350 8350 8344 8355 8368 8366 8341 8342 8344 
8389 8382 8407 8428 8435 8426 8424 8441 8455 8467 8470 8455 8438 8437 8441 8436 8438 8431 8412 8400 8400 8406 8422 8384 8324 8304 8305 8295 8292 8290 8284 8285 8288 8287 8284 8279 8282 8283 8282 8280 8277 8269 8262 8263 8260 8257 8269 8271 8268 8271 8264 8258 8251 8259 8264 8267 8266 8270 8278 8284 8286 8294 8298 8301 8305 8308 8318 8343 8347 8348 8362 8387 8395 8389 8369 8367 8364 8380 8353 8343 


