P2
80 60
8223
8153 8161 8163 8167 8171 8170 8165 8168 8167 8165 8168 8170 8171 8169 8168 8167 8174 8171 8174 8173 8179 8179 8178 8181 8178 8181 8182 8184 8180 8180 8185 8189 8192 8193 8194 8195 8196 8199 8200 8204 8205 8205 8207 8206 8209 8204 8206 8211 8209 8210 8205 8208 8205 8201 8204 8199 8200 8198 8195 8193 8193 8192 8197 8191 8191 8191 8192 8192 8190 8190 8192 8191 8188 8188 8188 8187 8181 8177 8176 8168 
8156 8164 8166 8168 8171 8171 8168 8168 8164 8166 8169 8170 8168 8169 8171 8172 8174 8174 8171 8175 8177 8179 8180 8174 8180 8177 8179 8181 8183 8182 8185 8187 8187 8189 8190 8194 8194 8198 8204 8205 8203 8204 8206 8207 8208 8206 8211 8210 8210 8208 8205 8204 8202 8201 8197 8197 8195 8198 8194 8196 8195 8192 8194 8190 8189 8189 8190 8190 8190 8192 8190 8187 8188 8187 8184 8185 8185 8176 8179 8173 
8159 8158 8161 8164 8170 8168 8165 8167 8165 8163 8169 8169 8165 8168 8171 8169 8174 8174 8172 8175 8175 8172 8174 8173 8176 8179 8181 8181 8182 8179 8179 8186 8187 8190 8189 8193 8192 8197 8201 8205 8202 8202 8204 8202 8204 8203 8202 8208 8211 8206 8204 8204 8200 8203 8203 8198 8199 8198 8191 8196 8195 8196 8192 8191 8190 8189 8189 8192 8191 8189 8189 8189 8188 8187 8187 8184 8182 8176 8180 8176 
8161 8163 8167 8161 8171 8168 8168 8165 8163 8165 8165 8162 8166 8168 8164 8171 8176 8174 8173 8173 8171 8168 8168 8173 8175 8179 8177 8181 8182 8181 8182 8186 8190 8189 8191 8191 8193 8195 8201 8200 8201 8201 8200 8200 8202 8205 8213 8211 8208 8206 8206 8204 8202 8201 8202 8199 8200 8195 8191 8197 8196 8197 8192 8191 8188 8190 8192 8190 8192 8189 8188 8189 8191 8187 8182 8184 8180 8180 8178 8178 
8162 8162 8167 8162 8170 8169 8168 8166 8165 8165 8163 8165 8165 8166 8168 8170 8172 8168 8168 8168 8171 8168 8165 8169 8174 8179 8175 8177 8178 8181 8181 8184 8188 8187 8190 8194 8193 8197 8198 8200 8202 8199 8198 8196 8203 8200 8203 8204 8208 8207 8206 8204 8203 8199 8204 8201 8201 8198 8195 8195 8196 8197 8195 8190 8190 8191 8191 8189 8191 8189 8190 8189 8188 8186 8185 8185 8181 8179 8181 8174 
8170 8167 8169 8168 8170 8174 8172 8169 8165 8165 8163 8166 8171 8165 8164 8166 8170 8169 8172 8171 8173 8173 8170 8170 8174 8179 8176 8178 8177 8183 8183 8188 8188 8188 8190 8189 8193 8195 8195 8198 8197 8199 8200 8202 8205 8201 8205 8206 8205 8205 8205 8202 8203 8203 8203 8202 8198 8199 8195 8197 8197 8197 8194 8191 8191 8193 8192 8189 8192 8192 8192 8191 8189 8185 8182 8183 8182 8179 8182 8183 
8173 8167 8169 8170 8173 8169 8173 8171 8165 8160 8160 8171 8172 8164 8166 8170 8168 8170 8172 8174 8172 8173 8172 8172 8177 8177 8173 8175 8177 8180 8182 8188 8190 8190 8191 8192 8193 8195 8197 8200 8200 8198 8200 8199 8201 8200 8201 8201 8205 8202 8201 8204 8202 8201 8201 8200 8198 8197 8197 8197 8195 8196 8196 8194 8193 8196 8196 8194 8194 8192 8193 8195 8193 8187 8185 8182 8184 8180 8184 8185 
8174 8168 8166 8169 8172 8174 8174 8173 8168 8160 8168 8173 8171 8166 8169 8171 8171 8171 8174 8174 8176 8173 8174 8175 8175 8176 8174 8174 8178 8184 8184 8189 8193 8193 8193 8194 8195 8194 8198 8199 8201 8198 8198 8203 8204 8200 8206 8202 8201 8201 8203 8199 8200 8199 8199 8198 8199 8199 8197 8195 8195 8194 8196 8197 8192 8198 8195 8197 8195 8192 8193 8192 8189 8188 8187 8187 8185 8185 8185 8188 
8173 8171 8166 8168 8168 8171 8171 8171 8171 8165 8170 8173 8169 8170 8169 8172 8172 8175 8175 8176 8176 8173 8173 8172 8175 8176 8177 8176 8179 8182 8184 8189 8191 8191 8196 8194 8192 8193 8196 8199 8197 8197 8196 8198 8203 8200 8203 8206 8201 8200 8200 8199 8201 8200 8200 8199 8197 8195 8195 8196 8194 8196 8197 8196 8195 8196 8196 8198 8197 8196 8195 8194 8192 8190 8190 8189 8188 8187 8195 8187 
8172 8166 8167 8167 8170 8172 8165 8170 8174 8172 8172 8173 8170 8173 8172 8170 8174 8174 8177 8176 8177 8175 8174 8173 8172 8176 8177 8179 8181 8184 8185 8189 8187 8190 8194 8196 8195 8195 8195 8196 8198 8198 8196 8200 8203 8200 8207 8206 8201 8199 8200 8201 8201 8199 8198 8197 8197 8198 8194 8195 8195 8194 8195 8195 8194 8197 8196 8196 8195 8192 8194 8192 8192 8191 8191 8191 8191 8190 8195 8185 
8171 8167 8169 8166 8172 8170 8166 8168 8172 8170 8174 8170 8174 8172 8170 8172 8172 8175 8175 8176 8177 8177 8177 8172 8173 8176 8178 8181 8183 8188 8185 8190 8189 8189 8191 8191 8193 8193 8195 8199 8197 8199 8200 8201 8203 8202 8207 8203 8203 8198 8196 8203 8203 8198 8199 8195 8198 8200 8199 8198 8199 8197 8192 8195 8195 8194 8197 8196 8197 8195 8192 8190 8187 8191 8188 8190 8194 8191 8194 8190 
8173 8172 8167 8167 8167 8170 8168 8169 8172 8170 8171 8167 8172 8173 8172 8176 8175 8172 8176 8175 8179 8178 8174 8175 8177 8180 8181 8180 8183 8187 8188 8188 8190 8187 8189 8190 8191 8191 8196 8197 8198 8201 8201 8204 8205 8202 8206 8202 8201 8201 8202 8200 8202 8200 8198 8197 8201 8200 8199 8198 8198 8197 8196 8195 8197 8196 8196 8195 8193 8195 8193 8190 8190 8188 8191 8191 8195 8190 8197 8191 
8175 8174 8169 8166 8167 8175 8172 8166 8170 8171 8171 8172 8173 8172 8176 8178 8174 8177 8176 8175 8177 8177 8176 8176 8177 8180 8180 8181 8183 8184 8187 8188 8187 8185 8188 8187 8195 8192 8192 8196 8195 8199 8202 8202 8204 8201 8203 8207 8203 8203 8201 8205 8202 8199 8203 8201 8200 8200 8196 8199 8199 8199 8198 8197 8197 8199 8197 8196 8196 8193 8193 8188 8190 8188 8188 8191 8191 8190 8193 8190 
8174 8176 8177 8175 8172 8172 8171 8170 8169 8175 8174 8176 8173 8173 8176 8177 8179 8173 8174 8178 8175 8179 8177 8177 8175 8178 8182 8179 8179 8186 8188 8186 8187 8187 8190 8191 8189 8193 8192 8194 8195 8200 8203 8202 8203 8200 8204 8202 8203 8203 8204 8204 8202 8202 8205 8201 8201 8201 8199 8201 8201 8198 8196 8198 8197 8200 8196 8196 8196 8191 8189 8189 8190 8186 8187 8186 8192 8193 8193 8188 
8181 8174 8178 8176 8178 8175 8172 8174 8171 8172 8178 8177 8174 8172 8182 8181 8179 8179 8181 8182 8176 8176 8177 8177 8176 8180 8183 8178 8177 8187 8183 8186 8188 8189 8192 8195 8195 8192 8193 8196 8198 8200 8201 8199 8203 8201 8203 8201 8202 8201 8206 8207 8206 8203 8203 8204 8201 8201 8202 8201 8200 8199 8198 8199 8203 8202 8202 8200 8195 8194 8191 8189 8187 8189 8187 8190 8191 8191 8193 8186 
8179 8172 8173 8176 8174 8177 8171 8174 8173 8174 8175 8176 8175 8178 8184 8181 8180 8178 8181 8183 8176 8177 8178 8176 8178 8181 8181 8178 8181 8186 8187 8187 8186 8190 8193 8192 8194 8194 8194 8194 8197 8202 8202 8199 8201 8200 8203 8201 8203 8203 8205 8205 8201 8204 8204 8203 8202 8200 8197 8201 8199 8201 8199 8198 8203 8204 8202 8200 8199 8198 8192 8191 8191 8190 8190 8191 8193 8191 8198 8187 
8182 8174 8172 8178 8176 8172 8174 8173 8173 8176 8177 8176 8177 8180 8180 8179 8181 8180 8183 8179 8177 8178 8180 8175 8178 8179 8180 8179 8182 8184 8188 8190 8189 8192 8193 8194 8194 8193 8195 8196 8200 8197 8201 8201 8202 8200 8203 8203 8201 8206 8204 8206 8202 8202 8199 8201 8204 8199 8199 8198 8200 8198 8200 8197 8204 8205 8204 8197 8200 8197 8199 8193 8192 8191 8191 8189 8192 8191 8199 8189 
8181 8173 8179 8175 8173 8177 8175 8178 8175 8181 8180 8178 8180 8180 8182 8178 8181 8180 8179 8181 8180 8180 8180 8177 8176 8182 8182 8182 8182 8184 8188 8194 8192 8193 8195 8197 8196 8192 8195 8195 8197 8196 8201 8201 8203 8199 8203 8202 8205 8205 8207 8207 8204 8201 8200 8202 8202 8202 8199 8200 8200 8198 8199 8202 8204 8204 8203 8201 8202 8198 8200 8199 8197 8194 8194 8195 8192 8189 8197 8190 
8181 8177 8178 8176 8173 8175 8181 8179 8180 8179 8181 8180 8182 8182 8184 8184 8180 8180 8180 8179 8178 8182 8182 8177 8180 8187 8185 8180 8181 8184 8188 8193 8192 8194 8196 8198 8196 8194 8194 8195 8196 8195 8197 8202 8207 8201 8203 8203 8203 8201 8205 8204 8202 8200 8204 8203 8202 8200 8201 8203 8200 8201 8206 8204 8203 8200 8201 8201 8200 8201 8201 8198 8195 8195 8193 8192 8194 8197 8197 8190 
8184 8179 8178 8177 8172 8179 8180 8181 8181 8181 8182 8180 8178 8181 8181 8184 8184 8181 8181 8177 8179 8182 8185 8179 8180 8183 8181 8181 8183 8185 8190 8193 8193 8195 8197 8199 8197 8192 8197 8199 8199 8199 8202 8199 8207 8199 8204 8204 8205 8203 8204 8205 8201 8202 8202 8203 8204 8203 8200 8201 8198 8204 8205 8202 8201 8205 8201 8201 8202 8198 8199 8201 8201 8195 8194 8195 8195 8196 8202 8194 
8182 8179 8175 8175 8174 8176 8173 8179 8180 8179 8179 8181 8181 8179 8180 8183 8184 8177 8177 8181 8177 8179 8187 8182 8181 8181 8179 8183 8181 8186 8190 8191 8193 8197 8196 8196 8198 8193 8196 8196 8198 8197 8200 8199 8200 8198 8201 8202 8203 8201 8202 8205 8202 8203 8205 8204 8202 8206 8202 8197 8200 8201 8205 8204 8202 8203 8202 8203 8204 8199 8201 8200 8197 8194 8195 8195 8198 8196 8200 8196 
8185 8182 8178 8181 8179 8177 8167 8177 8174 8179 8178 8180 8181 8183 8177 8182 8179 8175 8177 8176 8183 8184 8183 8180 8182 8182 8182 8183 8185 8184 8188 8191 8193 8196 8198 8197 8198 8195 8195 8198 8195 8198 8196 8200 8199 8199 8200 8202 8202 8199 8201 8204 8204 8202 8204 8204 8203 8203 8198 8200 8199 8201 8205 8203 8204 8206 8201 8205 8203 8198 8201 8198 8194 8194 8195 8196 8197 8196 8204 8197 
8182 8185 8180 8182 8179 8178 8169 8170 8172 8181 8182 8180 8180 8181 8180 8180 8181 8174 8175 8179 8179 8184 8184 8182 8182 8184 8182 8182 8183 8184 8189 8190 8193 8195 8197 8198 8195 8193 8196 8197 8192 8198 8198 8200 8200 8198 8200 8202 8200 8200 8202 8202 8202 8204 8203 8203 8206 8204 8202 8198 8199 8202 8206 8204 8205 8206 8205 8203 8202 8199 8198 8197 8195 8195 8195 8196 8196 8196 8207 8202 
8186 8185 8183 8183 8182 8179 8175 8170 8181 8181 8185 8182 8180 8180 8181 8181 8182 8180 8180 8181 8182 8181 8184 8181 8181 8183 8184 8182 8184 8188 8186 8192 8192 8196 8194 8195 8195 8192 8192 8193 8193 8198 8197 8194 8197 8196 8199 8200 8201 8201 8203 8205 8201 8202 8204 8205 8207 8205 8202 8200 8201 8200 8205 8209 8209 8205 8206 8205 8204 8198 8198 8198 8197 8197 8198 8197 8200 8200 8208 8203 
8184 8183 8182 8186 8185 8181 8175 8180 8178 8177 8182 8182 8181 8180 8182 8181 8182 8180 8178 8179 8183 8184 8184 8181 8181 8184 8182 8185 8184 8184 8187 8191 8193 8194 8196 8192 8192 8187 8190 8189 8190 8193 8192 8195 8197 8195 8195 8200 8202 8200 8203 8206 8202 8200 8201 8205 8208 8205 8206 8203 8200 8200 8204 8208 8204 8205 8205 8204 8201 8198 8197 8197 8198 8196 8198 8198 8202 8202 8209 8205 
8189 8183 8180 8186 8185 8181 8179 8175 8176 8180 8180 8185 8181 8182 8184 8179 8183 8181 8179 8177 8183 8181 8184 8183 8182 8181 8184 8186 8186 8188 8190 8191 8193 8193 8192 8193 8191 8182 8177 8177 8174 8172 8188 8192 8193 8194 8195 8198 8202 8198 8200 8205 8202 8204 8204 8204 8207 8208 8206 8202 8202 8201 8205 8203 8205 8204 8204 8206 8205 8201 8198 8197 8197 8197 8197 8198 8203 8204 8211 8210 
8185 8184 8178 8182 8183 8181 8177 8176 8175 8179 8184 8179 8181 8184 8181 8180 8182 8182 8180 8179 8181 8181 8184 8185 8181 8182 8183 8186 8185 8190 8190 8188 8191 8190 8191 8191 8188 8183 8180 8180 8172 8163 8169 8172 8171 8175 8182 8189 8198 8197 8199 8204 8203 8205 8204 8206 8205 8209 8206 8206 8205 8204 8204 8203 8203 8205 8202 8205 8201 8197 8198 8196 8197 8196 8196 8197 8204 8204 8207 8212 
8185 8186 8187 8185 8185 8180 8179 8179 8176 8180 8182 8184 8182 8182 8182 8184 8181 8181 8180 8179 8178 8180 8181 8181 8179 8184 8182 8186 8187 8188 8188 8190 8191 8191 8190 8186 8184 8178 8166 8156 8150 8152 8148 8154 8155 8154 8156 8158 8167 8179 8194 8200 8199 8203 8205 8208 8207 8209 8206 8206 8206 8207 8205 8206 8204 8206 8203 8204 8201 8198 8196 8197 8196 8195 8194 8201 8204 8207 8208 8207 
8185 8187 8183 8185 8184 8184 8179 8183 8182 8184 8182 8184 8182 8182 8183 8181 8181 8180 8180 8180 8178 8182 8182 8182 8184 8185 8186 8183 8187 8188 8187 8188 8189 8186 8185 8180 8164 8150 8151 8150 8146 8145 8146 8151 8148 8146 8147 8153 8156 8158 8166 8183 8197 8203 8206 8209 8208 8209 8205 8205 8205 8206 8206 8207 8208 8205 8203 8201 8198 8198 8194 8199 8195 8196 8195 8197 8203 8206 8208 8210 
8185 8182 8185 8189 8187 8187 8184 8180 8182 8182 8185 8186 8183 8181 8180 8182 8183 8183 8183 8180 8179 8180 8180 8180 8182 8184 8183 8184 8185 8188 8186 8190 8187 8185 8174 8155 8146 8146 8148 8150 8148 8148 8147 8149 8148 8148 8146 8145 8152 8155 8158 8165 8176 8197 8206 8209 8208 8206 8204 8204 8204 8208 8208 8206 8204 8204 8202 8201 8198 8198 8198 8196 8195 8197 8197 8195 8201 8206 8213 8208 
8188 8187 8184 8186 8186 8188 8182 8181 8184 8181 8185 8182 8182 8179 8182 8182 8182 8180 8181 8178 8177 8180 8183 8182 8183 8185 8185 8183 8179 8183 8182 8184 8185 8174 8152 8146 8143 8149 8148 8151 8148 8148 8150 8151 8149 8147 8149 8152 8153 8153 8151 8155 8164 8171 8194 8203 8204 8204 8201 8202 8205 8206 8205 8205 8204 8201 8200 8202 8195 8196 8196 8194 8198 8195 8198 8196 8201 8203 8211 8209 
8192 8187 8183 8182 8186 8186 8179 8182 8182 8180 8180 8184 8182 8180 8181 8182 8181 8179 8176 8179 8176 8179 8183 8182 8183 8184 8185 8185 8184 8182 8183 8183 8178 8150 8148 8143 8143 8145 8149 8149 8150 8152 8152 8160 8161 8162 8162 8153 8157 8160 8159 8161 8165 8165 8176 8194 8202 8204 8202 8202 8204 8203 8204 8205 8203 8204 8203 8199 8197 8197 8198 8196 8197 8193 8196 8199 8204 8206 8212 8214 
8192 8187 8184 8183 8185 8187 8181 8181 8184 8183 8179 8183 8178 8179 8179 8181 8182 8178 8178 8177 8178 8185 8182 8182 8184 8186 8188 8185 8183 8183 8180 8179 8158 8147 8149 8149 8146 8144 8149 8149 8152 8153 8155 8160 8159 8163 8167 8165 8169 8167 8164 8164 8167 8166 8171 8177 8196 8202 8203 8198 8201 8205 8202 8204 8203 8205 8201 8201 8200 8200 8195 8198 8200 8194 8199 8201 8201 8199 8211 8215 
8193 8189 8188 8186 8188 8185 8178 8182 8185 8181 8184 8179 8176 8181 8180 8183 8182 8181 8182 8178 8178 8181 8183 8184 8184 8187 8185 8184 8185 8184 8181 8167 8146 8145 8150 8149 8145 8147 8153 8159 8156 8156 8156 8160 8158 8161 8161 8166 8170 8172 8171 8169 8169 8169 8172 8170 8186 8200 8198 8196 8200 8203 8203 8202 8201 8203 8200 8197 8198 8197 8198 8196 8197 8196 8195 8197 8199 8203 8208 8209 
8194 8188 8187 8186 8187 8184 8183 8184 8182 8179 8179 8181 8182 8179 8183 8181 8183 8182 8181 8183 8185 8186 8184 8182 8183 8185 8182 8184 8185 8182 8177 8150 8141 8147 8146 8149 8143 8143 8147 8163 8156 8163 8166 8171 8172 8170 8165 8162 8160 8167 8173 8173 8171 8167 8171 8169 8175 8194 8197 8200 8201 8201 8204 8202 8200 8200 8201 8199 8197 8196 8192 8195 8196 8194 8195 8197 8200 8199 8210 8208 
8194 8192 8187 8191 8188 8186 8185 8186 8181 8180 8178 8181 8182 8183 8184 8185 8183 8184 8183 8183 8184 8187 8183 8180 8181 8181 8181 8182 8178 8178 8169 8144 8145 8146 8148 8150 8148 8147 8149 8163 8166 8164 8162 8163 8170 8178 8173 8171 8164 8159 8165 8172 8175 8171 8173 8171 8171 8185 8197 8198 8202 8202 8204 8203 8201 8201 8198 8195 8197 8195 8197 8196 8198 8198 8195 8201 8202 8204 8209 8211 
8194 8195 8188 8191 8188 8189 8184 8184 8183 8180 8182 8186 8185 8183 8181 8181 8184 8181 8183 8184 8184 8186 8186 8182 8182 8184 8181 8182 8181 8175 8157 8146 8145 8143 8147 8153 8150 8152 8158 8160 8159 8154 8158 8162 8171 8175 8165 8173 8176 8167 8168 8175 8171 8175 8177 8174 8173 8180 8200 8200 8201 8202 8202 8204 8202 8201 8200 8198 8194 8196 8200 8198 8198 8200 8204 8202 8202 8203 8215 8209 
8198 8197 8191 8190 8188 8187 8187 8183 8184 8185 8182 8188 8183 8184 8183 8183 8181 8180 8182 8179 8181 8183 8186 8182 8182 8187 8184 8182 8184 8178 8153 8148 8150 8149 8151 8156 8151 8156 8157 8151 8154 8164 8170 8179 8184 8181 8172 8171 8177 8181 8179 8172 8177 8176 8177 8174 8174 8179 8196 8202 8201 8198 8198 8203 8202 8202 8200 8199 8196 8196 8199 8200 8203 8203 8204 8203 8203 8206 8212 8209 
8194 8195 8193 8191 8193 8190 8186 8184 8185 8186 8185 8185 8182 8184 8183 8180 8179 8179 8180 8184 8186 8181 8181 8181 8184 8184 8184 8183 8183 8176 8151 8147 8147 8147 8155 8151 8153 8159 8152 8148 8165 8175 8177 8182 8183 8184 8182 8172 8172 8180 8177 8166 8178 8180 8178 8175 8171 8178 8193 8199 8196 8201 8201 8203 8200 8202 8201 8198 8196 8196 8197 8199 8202 8200 8204 8206 8204 8202 8208 8205 
8197 8195 8196 8188 8191 8189 8190 8182 8186 8185 8183 8181 8184 8182 8181 8179 8179 8178 8185 8184 8181 8181 8183 8183 8180 8183 8182 8186 8184 8176 8150 8146 8145 8151 8156 8151 8160 8164 8156 8157 8166 8173 8172 8177 8182 8181 8186 8182 8169 8171 8182 8171 8172 8173 8177 8175 8175 8177 8188 8200 8200 8204 8203 8204 8205 8205 8200 8197 8197 8195 8198 8198 8199 8200 8203 8205 8206 8203 8208 8206 
8193 8193 8193 8187 8189 8190 8182 8185 8184 8184 8182 8186 8182 8181 8185 8182 8182 8186 8186 8187 8184 8182 8182 8185 8180 8183 8182 8183 8181 8176 8152 8149 8149 8153 8156 8151 8158 8159 8154 8158 8165 8175 8170 8174 8178 8181 8186 8183 8167 8164 8184 8174 8169 8174 8177 8175 8173 8172 8183 8204 8199 8206 8203 8205 8204 8205 8200 8197 8195 8196 8197 8196 8199 8200 8203 8205 8203 8204 8209 8205 
8191 8191 8192 8183 8190 8188 8182 8182 8187 8184 8184 8186 8183 8185 8188 8185 8183 8185 8187 8186 8183 8184 8183 8184 8184 8183 8181 8184 8183 8176 8152 8149 8148 8156 8154 8149 8158 8156 8151 8158 8163 8174 8172 8173 8178 8181 8185 8182 8171 8164 8183 8175 8171 8174 8179 8173 8171 8173 8186 8202 8204 8206 8205 8206 8205 8205 8198 8198 8196 8198 8197 8197 8199 8200 8202 8205 8205 8204 8213 8209 
8193 8187 8185 8184 8186 8185 8182 8187 8188 8187 8188 8186 8186 8189 8186 8184 8184 8186 8185 8183 8183 8184 8186 8185 8186 8184 8183 8182 8182 8179 8156 8148 8148 8154 8157 8151 8155 8158 8151 8156 8159 8171 8172 8176 8178 8179 8183 8180 8176 8180 8188 8177 8174 8178 8172 8174 8170 8174 8190 8207 8207 8209 8205 8207 8206 8204 8200 8199 8196 8201 8197 8198 8201 8203 8205 8207 8203 8205 8208 8208 
8193 8190 8188 8183 8186 8182 8183 8186 8188 8188 8189 8186 8188 8188 8182 8184 8184 8182 8181 8182 8181 8181 8183 8184 8187 8184 8184 8182 8181 8178 8162 8148 8147 8152 8155 8149 8153 8159 8153 8155 8158 8166 8169 8178 8181 8180 8184 8180 8167 8176 8188 8175 8181 8182 8171 8173 8172 8175 8196 8207 8213 8208 8210 8209 8208 8204 8196 8199 8196 8195 8198 8197 8199 8200 8202 8202 8201 8206 8207 8206 
8196 8197 8189 8183 8190 8187 8182 8182 8188 8187 8188 8187 8186 8186 8187 8183 8185 8186 8182 8182 8181 8183 8182 8184 8185 8190 8182 8181 8183 8182 8174 8152 8148 8152 8155 8153 8152 8159 8160 8152 8152 8164 8166 8177 8181 8182 8183 8175 8172 8180 8178 8169 8178 8188 8183 8175 8172 8181 8203 8208 8209 8209 8209 8208 8205 8203 8198 8197 8198 8198 8195 8198 8199 8200 8202 8201 8201 8200 8208 8209 
8197 8195 8189 8183 8187 8186 8186 8182 8184 8182 8183 8184 8186 8188 8189 8189 8189 8186 8186 8185 8181 8186 8184 8182 8183 8188 8187 8183 8183 8184 8184 8159 8153 8153 8159 8159 8160 8156 8161 8153 8153 8154 8165 8170 8174 8174 8175 8177 8185 8184 8176 8171 8188 8188 8180 8172 8177 8186 8205 8210 8208 8208 8207 8206 8205 8203 8204 8198 8199 8198 8198 8198 8197 8197 8200 8200 8199 8200 8200 8201 
8196 8196 8187 8187 8187 8188 8185 8187 8182 8183 8185 8188 8188 8186 8184 8187 8189 8188 8186 8183 8187 8186 8186 8184 8186 8185 8183 8183 8183 8183 8187 8174 8156 8155 8155 8167 8153 8148 8153 8159 8157 8155 8164 8164 8164 8171 8180 8189 8188 8178 8173 8186 8195 8187 8177 8173 8178 8200 8209 8208 8208 8206 8207 8208 8203 8199 8201 8201 8201 8197 8199 8196 8198 8197 8200 8199 8199 8200 8207 8198 
8193 8198 8191 8189 8190 8192 8188 8188 8192 8192 8193 8188 8187 8181 8187 8188 8187 8186 8187 8183 8187 8183 8185 8186 8188 8185 8181 8182 8185 8187 8187 8187 8168 8154 8155 8162 8157 8150 8151 8155 8164 8172 8175 8167 8169 8174 8182 8184 8181 8177 8183 8194 8193 8179 8177 8177 8188 8211 8210 8207 8206 8210 8204 8207 8205 8202 8197 8199 8200 8196 8200 8198 8198 8200 8203 8202 8200 8200 8206 8194 
8195 8193 8194 8192 8194 8191 8192 8189 8193 8190 8191 8193 8191 8183 8188 8184 8189 8185 8185 8185 8185 8184 8186 8186 8187 8189 8186 8185 8186 8187 8191 8192 8187 8165 8153 8153 8157 8159 8157 8157 8161 8166 8171 8170 8168 8163 8166 8168 8179 8181 8190 8195 8186 8172 8174 8177 8201 8212 8208 8205 8206 8210 8208 8211 8204 8202 8201 8200 8200 8198 8198 8199 8200 8199 8203 8201 8201 8203 8202 8201 
8197 8190 8194 8193 8193 8195 8193 8189 8189 8188 8189 8192 8193 8193 8184 8188 8186 8187 8190 8185 8183 8187 8190 8188 8188 8190 8186 8189 8192 8191 8194 8194 8198 8184 8165 8153 8154 8161 8167 8168 8164 8163 8165 8162 8163 8161 8165 8171 8182 8184 8184 8184 8175 8172 8177 8197 8214 8215 8211 8205 8207 8210 8211 8207 8203 8203 8198 8199 8203 8199 8200 8203 8203 8202 8201 8202 8202 8198 8206 8204 
8193 8191 8189 8189 8191 8189 8193 8187 8187 8187 8186 8190 8192 8191 8188 8186 8190 8189 8191 8184 8183 8187 8188 8190 8188 8192 8189 8188 8190 8193 8195 8196 8198 8195 8186 8164 8155 8153 8164 8173 8171 8170 8171 8170 8173 8173 8181 8186 8187 8178 8174 8170 8170 8177 8194 8213 8216 8214 8210 8207 8207 8208 8206 8203 8199 8199 8201 8202 8204 8205 8203 8202 8205 8206 8205 8201 8202 8201 8205 8198 
8195 8195 8193 8191 8190 8193 8188 8191 8185 8182 8188 8190 8192 8192 8191 8188 8189 8188 8190 8184 8185 8187 8193 8195 8191 8194 8191 8189 8191 8192 8194 8200 8198 8199 8198 8191 8174 8161 8159 8164 8165 8166 8170 8176 8181 8180 8178 8177 8173 8167 8166 8174 8183 8202 8215 8219 8216 8214 8210 8210 8213 8212 8207 8202 8200 8200 8203 8202 8209 8203 8203 8202 8204 8205 8204 8205 8201 8200 8209 8204 
8194 8194 8190 8191 8192 8189 8188 8191 8190 8187 8184 8186 8188 8193 8190 8187 8189 8188 8189 8188 8186 8186 8189 8192 8193 8191 8190 8191 8191 8193 8196 8196 8196 8199 8200 8201 8192 8183 8169 8166 8162 8161 8161 8167 8168 8164 8162 8164 8167 8164 8169 8189 8208 8218 8220 8221 8215 8216 8211 8211 8211 8214 8212 8203 8203 8205 8203 8203 8209 8202 8203 8204 8203 8204 8204 8200 8198 8198 8207 8205 
8190 8195 8193 8189 8194 8192 8186 8187 8185 8188 8185 8187 8187 8192 8191 8187 8189 8187 8190 8186 8187 8187 8191 8193 8191 8189 8191 8193 8190 8192 8193 8195 8195 8201 8203 8205 8201 8199 8195 8188 8181 8172 8162 8165 8164 8164 8166 8166 8175 8190 8207 8218 8218 8218 8220 8219 8217 8215 8212 8209 8212 8213 8212 8204 8205 8205 8198 8203 8204 8202 8206 8206 8204 8207 8201 8197 8199 8195 8205 8206 
8195 8199 8194 8190 8193 8191 8185 8187 8185 8187 8190 8190 8188 8195 8192 8186 8188 8184 8188 8184 8187 8185 8192 8192 8194 8189 8186 8189 8189 8190 8192 8196 8197 8198 8203 8203 8202 8201 8199 8201 8199 8201 8196 8193 8195 8192 8195 8207 8215 8218 8219 8223 8218 8217 8219 8216 8217 8218 8211 8208 8211 8211 8209 8205 8205 8201 8199 8201 8201 8203 8204 8206 8203 8202 8197 8199 8191 8194 8204 8200 
8195 8194 8195 8191 8188 8189 8185 8182 8182 8188 8190 8187 8196 8187 8186 8187 8186 8186 8186 8183 8189 8187 8189 8190 8186 8177 8186 8185 8192 8189 8191 8196 8199 8195 8205 8204 8203 8202 8202 8203 8204 8208 8208 8213 8211 8209 8210 8215 8220 8219 8222 8217 8217 8217 8216 8217 8217 8216 8212 8208 8207 8208 8205 8206 8203 8204 8199 8200 8203 8197 8204 8205 8201 8201 8199 8198 8195 8194 8201 8195 
8194 8199 8195 8187 8184 8184 8183 8181 8187 8188 8190 8187 8191 8191 8188 8189 8188 8187 8185 8186 8185 8187 8188 8188 8186 8175 8175 8188 8190 8194 8196 8192 8197 8197 8200 8198 8200 8200 8200 8203 8206 8210 8212 8213 8220 8213 8213 8218 8217 8221 8221 8217 8212 8214 8218 8217 8211 8214 8208 8206 8206 8206 8204 8204 8205 8201 8201 8201 8197 8198 8202 8202 8197 8202 8197 8197 8195 8193 8197 8199 
8196 8198 8191 8182 8188 8181 8182 8179 8183 8185 8186 8182 8184 8190 8188 8182 8184 8184 8186 8183 8184 8185 8189 8185 8190 8186 8186 8185 8192 8190 8192 8198 8193 8192 8194 8195 8196 8195 8200 8204 8205 8205 8205 8211 8214 8210 8215 8217 8219 8219 8217 8215 8213 8211 8215 8214 8212 8213 8209 8204 8202 8208 8206 8201 8202 8202 8201 8199 8200 8197 8200 8199 8199 8193 8191 8194 8192 8184 8194 8190 
8200 8194 8183 8178 8183 8175 8172 8181 8182 8184 8186 8183 8179 8188 8184 8181 8181 8181 8184 8181 8185 8182 8182 8182 8188 8190 8189 8189 8189 8190 8193 8186 8187 8193 8193 8196 8196 8197 8201 8206 8206 8207 8204 8206 8206 8208 8213 8218 8219 8221 8214 8216 8212 8213 8212 8213 8212 8212 8209 8203 8209 8204 8203 8202 8203 8202 8206 8206 8205 8204 8201 8202 8198 8194 8196 8196 8191 8187 8195 8192 
8206 8193 8186 8179 8177 8174 8172 8176 8183 8181 8181 8178 8181 8181 8182 8179 8178 8173 8180 8180 8180 8177 8182 8185 8185 8184 8186 8184 8182 8184 8185 8183 8184 8187 8187 8189 8193 8193 8197 8208 8205 8205 8205 8204 8207 8208 8213 8218 8216 8217 8219 8215 8214 8218 8214 8214 8212 8214 8204 8205 8206 8205 8201 8202 8204 8207 8204 8209 8205 8200 8207 8204 8203 8203 8199 8200 8195 8188 8199 8197 


