P2
80 60
8210
8129 8136 8143 8150 8154 8155 8153 8153 8154 8154 8150 8151 8155 8156 8155 8157 8154 8160 8158 8160 8166 8167 8167 8170 8171 8175 8176 8180 8176 8179 8176 8183 8182 8184 8187 8189 8187 8191 8195 8191 8192 8195 8189 8194 8194 8192 8195 8195 8195 8191 8189 8185 8183 8185 8179 8174 8170 8169 8168 8164 8163 8164 8168 8161 8165 8164 8161 8167 8167 8169 8170 8166 8168 8168 8166 8166 8163 8157 8157 8157 
8134 8142 8149 8153 8156 8155 8155 8152 8152 8153 8153 8152 8155 8153 8154 8151 8155 8157 8159 8160 8168 8168 8165 8169 8176 8175 8174 8177 8176 8176 8177 8181 8181 8185 8182 8185 8184 8190 8194 8193 8193 8190 8192 8193 8195 8194 8195 8193 8190 8187 8171 8165 8171 8180 8172 8171 8167 8166 8167 8165 8164 8166 8166 8166 8166 8164 8165 8164 8167 8170 8167 8167 8169 8167 8163 8164 8165 8158 8158 8153 
8137 8141 8146 8148 8154 8156 8154 8153 8151 8151 8153 8151 8149 8154 8155 8154 8157 8158 8162 8164 8167 8163 8164 8167 8170 8175 8176 8178 8179 8176 8175 8180 8182 8185 8181 8182 8186 8192 8195 8194 8192 8188 8192 8189 8191 8190 8190 8189 8181 8164 8146 8139 8143 8162 8169 8173 8172 8167 8167 8169 8166 8165 8167 8166 8168 8165 8166 8166 8167 8167 8168 8167 8169 8167 8168 8168 8166 8161 8158 8155 
8141 8143 8151 8150 8157 8154 8157 8152 8152 8151 8147 8149 8150 8153 8154 8154 8158 8161 8160 8163 8164 8162 8159 8168 8171 8175 8175 8179 8178 8179 8176 8179 8182 8185 8182 8184 8186 8189 8188 8189 8193 8188 8189 8187 8189 8179 8168 8160 8148 8143 8137 8135 8138 8141 8156 8171 8176 8170 8167 8168 8169 8167 8168 8165 8166 8168 8169 8164 8171 8168 8168 8167 8172 8169 8167 8166 8165 8160 8162 8158 
8147 8142 8152 8150 8154 8154 8152 8151 8152 8153 8146 8149 8149 8152 8154 8153 8156 8156 8162 8160 8164 8162 8159 8166 8167 8174 8174 8176 8177 8178 8178 8182 8182 8185 8185 8186 8185 8186 8188 8189 8189 8188 8187 8183 8184 8167 8148 8142 8139 8141 8137 8134 8135 8139 8157 8170 8175 8172 8167 8169 8170 8169 8170 8167 8166 8166 8166 8169 8167 8168 8169 8169 8169 8170 8166 8167 8167 8159 8160 8161 
8148 8149 8152 8154 8156 8155 8159 8156 8153 8154 8148 8150 8153 8150 8150 8151 8153 8157 8161 8163 8164 8163 8163 8167 8173 8175 8176 8177 8179 8178 8179 8181 8182 8185 8184 8184 8184 8190 8186 8187 8191 8188 8186 8188 8184 8181 8156 8145 8141 8140 8139 8141 8142 8135 8139 8153 8168 8171 8170 8171 8169 8168 8170 8166 8168 8168 8172 8170 8171 8173 8174 8171 8170 8168 8166 8167 8164 8161 8164 8161 
8152 8146 8152 8156 8157 8156 8160 8160 8152 8147 8144 8156 8154 8151 8152 8157 8153 8157 8165 8163 8164 8162 8164 8171 8175 8175 8173 8173 8178 8180 8178 8185 8184 8185 8184 8186 8189 8191 8190 8190 8191 8186 8184 8180 8173 8171 8160 8153 8144 8143 8145 8151 8152 8137 8133 8134 8150 8166 8168 8169 8169 8169 8170 8168 8168 8171 8176 8172 8173 8171 8175 8174 8172 8169 8167 8165 8167 8164 8167 8169 
8155 8152 8153 8158 8157 8160 8164 8161 8158 8149 8156 8158 8157 8157 8158 8157 8158 8157 8164 8166 8168 8166 8169 8173 8174 8174 8171 8178 8178 8183 8182 8185 8187 8188 8185 8189 8187 8191 8191 8190 8192 8187 8180 8154 8143 8144 8148 8142 8150 8161 8165 8149 8146 8142 8134 8135 8152 8167 8171 8173 8170 8167 8171 8168 8171 8171 8176 8173 8174 8174 8174 8172 8174 8170 8170 8171 8170 8167 8170 8167 
8153 8151 8153 8154 8158 8156 8161 8158 8158 8152 8156 8157 8156 8158 8158 8159 8158 8163 8164 8168 8168 8167 8168 8172 8173 8173 8174 8176 8180 8181 8182 8183 8186 8187 8190 8189 8186 8189 8190 8192 8192 8187 8186 8163 8146 8144 8144 8141 8144 8157 8159 8165 8159 8144 8135 8142 8162 8167 8171 8176 8168 8170 8170 8170 8171 8172 8175 8173 8174 8174 8175 8174 8173 8171 8170 8173 8172 8172 8178 8169 
8152 8148 8153 8155 8158 8159 8155 8160 8161 8160 8158 8158 8158 8161 8161 8157 8161 8162 8162 8166 8169 8170 8172 8172 8171 8172 8174 8178 8177 8182 8182 8184 8184 8189 8189 8190 8190 8190 8191 8187 8192 8188 8188 8185 8165 8148 8150 8145 8141 8148 8151 8168 8154 8146 8141 8139 8154 8166 8169 8172 8171 8170 8168 8171 8172 8173 8173 8172 8175 8175 8175 8174 8174 8174 8173 8176 8179 8174 8181 8171 
8155 8153 8154 8154 8160 8158 8156 8157 8161 8158 8160 8157 8159 8160 8160 8158 8160 8162 8164 8166 8167 8171 8170 8170 8173 8174 8176 8178 8180 8184 8182 8183 8184 8187 8190 8187 8187 8188 8188 8188 8189 8188 8191 8187 8182 8177 8156 8146 8152 8155 8149 8163 8141 8139 8134 8132 8131 8142 8162 8168 8172 8170 8169 8170 8169 8172 8176 8172 8174 8173 8175 8174 8170 8175 8173 8173 8175 8175 8178 8169 
8155 8155 8152 8151 8153 8159 8156 8158 8164 8160 8156 8156 8159 8159 8162 8163 8163 8161 8166 8166 8172 8171 8168 8174 8176 8178 8177 8179 8181 8182 8183 8183 8183 8187 8186 8188 8187 8187 8190 8186 8189 8189 8193 8191 8189 8176 8157 8156 8170 8175 8152 8160 8143 8140 8132 8130 8128 8129 8139 8165 8171 8172 8171 8172 8174 8173 8174 8173 8175 8174 8174 8172 8172 8171 8171 8174 8174 8176 8180 8173 
8155 8158 8155 8154 8154 8161 8162 8160 8162 8162 8161 8161 8159 8162 8164 8166 8167 8168 8165 8169 8172 8172 8170 8173 8177 8179 8177 8180 8182 8183 8187 8182 8183 8184 8188 8185 8184 8188 8189 8186 8188 8189 8191 8195 8183 8158 8150 8146 8149 8167 8155 8158 8143 8143 8145 8141 8137 8141 8162 8170 8174 8170 8174 8176 8173 8174 8177 8173 8177 8174 8176 8173 8172 8172 8172 8172 8175 8176 8181 8174 
8156 8161 8162 8162 8159 8158 8163 8161 8157 8165 8165 8164 8161 8162 8164 8166 8168 8165 8167 8170 8170 8169 8170 8172 8172 8177 8177 8180 8179 8182 8184 8182 8183 8183 8187 8185 8186 8187 8185 8186 8186 8186 8188 8193 8189 8185 8171 8153 8151 8149 8148 8141 8146 8150 8160 8159 8158 8170 8177 8176 8176 8172 8175 8174 8177 8178 8175 8174 8177 8175 8173 8170 8173 8171 8170 8172 8174 8175 8177 8167 
8164 8157 8162 8162 8163 8163 8160 8163 8163 8162 8166 8163 8160 8162 8168 8166 8167 8168 8169 8173 8170 8168 8170 8175 8177 8177 8181 8177 8181 8184 8183 8182 8181 8183 8185 8189 8184 8185 8182 8183 8176 8173 8183 8182 8182 8187 8188 8184 8171 8144 8144 8143 8139 8144 8145 8155 8174 8177 8175 8178 8175 8173 8175 8176 8181 8182 8178 8177 8177 8176 8174 8171 8171 8174 8169 8172 8175 8170 8176 8170 
8163 8154 8160 8161 8162 8163 8162 8164 8165 8165 8163 8161 8163 8167 8170 8167 8167 8168 8172 8171 8171 8171 8171 8175 8176 8178 8179 8179 8184 8183 8184 8183 8183 8186 8188 8187 8185 8182 8164 8157 8148 8143 8146 8144 8147 8181 8187 8185 8176 8147 8143 8151 8143 8140 8136 8151 8172 8174 8175 8177 8175 8174 8174 8176 8182 8184 8180 8179 8177 8179 8176 8173 8173 8174 8173 8175 8176 8173 8176 8170 
8164 8157 8157 8164 8162 8158 8162 8163 8163 8166 8165 8164 8164 8164 8167 8168 8167 8167 8171 8168 8171 8170 8172 8169 8175 8181 8181 8180 8184 8184 8186 8184 8184 8186 8186 8185 8184 8163 8157 8146 8153 8142 8140 8142 8145 8168 8172 8181 8168 8154 8157 8179 8155 8141 8138 8136 8158 8172 8175 8174 8172 8174 8176 8174 8182 8184 8183 8178 8179 8180 8177 8175 8178 8176 8170 8177 8178 8174 8180 8173 
8165 8158 8161 8162 8159 8163 8164 8170 8164 8168 8167 8165 8167 8168 8170 8165 8167 8171 8168 8170 8168 8171 8173 8172 8175 8179 8182 8183 8181 8186 8185 8187 8187 8187 8186 8180 8156 8147 8151 8167 8166 8144 8140 8140 8144 8154 8152 8173 8152 8176 8186 8188 8173 8158 8145 8133 8140 8169 8175 8177 8173 8175 8176 8181 8184 8180 8179 8182 8181 8181 8181 8180 8180 8179 8175 8177 8176 8176 8180 8175 
8165 8160 8164 8162 8163 8162 8170 8170 8171 8168 8167 8166 8169 8172 8173 8169 8169 8171 8173 8171 8169 8170 8166 8167 8174 8179 8182 8182 8183 8181 8185 8187 8186 8186 8178 8151 8140 8140 8163 8161 8159 8166 8144 8144 8145 8153 8155 8166 8153 8185 8189 8188 8183 8182 8176 8156 8140 8166 8176 8174 8175 8175 8181 8180 8180 8180 8184 8182 8180 8186 8186 8181 8183 8180 8179 8179 8180 8181 8180 8176 
8168 8161 8164 8164 8157 8165 8168 8170 8169 8170 8173 8169 8169 8167 8171 8171 8172 8170 8170 8171 8169 8153 8137 8139 8141 8154 8178 8183 8184 8184 8183 8185 8182 8184 8155 8145 8139 8141 8146 8142 8149 8139 8154 8154 8150 8141 8163 8146 8160 8165 8173 8174 8159 8172 8180 8178 8170 8169 8177 8178 8174 8177 8180 8180 8180 8182 8181 8181 8182 8181 8181 8184 8182 8177 8178 8179 8180 8180 8182 8176 
8167 8165 8159 8161 8159 8160 8164 8169 8168 8168 8169 8169 8168 8169 8171 8171 8173 8167 8168 8171 8169 8162 8135 8135 8137 8144 8172 8181 8182 8184 8182 8177 8173 8172 8142 8140 8147 8157 8141 8137 8139 8137 8142 8149 8144 8146 8149 8142 8156 8141 8143 8148 8143 8142 8152 8174 8179 8177 8176 8176 8175 8175 8179 8180 8181 8181 8180 8183 8183 8180 8181 8181 8183 8181 8181 8181 8185 8180 8185 8182 
8166 8167 8164 8167 8166 8164 8159 8168 8160 8169 8166 8167 8172 8168 8167 8169 8169 8168 8168 8170 8172 8171 8141 8133 8135 8140 8169 8181 8181 8181 8170 8159 8166 8154 8147 8149 8165 8152 8140 8138 8138 8145 8143 8144 8156 8150 8147 8137 8142 8138 8136 8134 8134 8137 8139 8153 8175 8174 8174 8175 8172 8177 8180 8180 8184 8186 8184 8184 8183 8184 8182 8181 8181 8182 8179 8183 8182 8183 8188 8183 
8166 8168 8165 8168 8163 8161 8159 8158 8162 8168 8169 8167 8169 8169 8169 8168 8167 8167 8167 8170 8170 8173 8149 8138 8136 8138 8160 8179 8176 8174 8176 8168 8187 8167 8154 8144 8142 8137 8139 8135 8134 8140 8139 8135 8138 8135 8137 8138 8136 8132 8132 8131 8132 8142 8136 8139 8156 8150 8153 8169 8173 8177 8180 8181 8184 8185 8184 8183 8184 8183 8182 8183 8183 8184 8180 8182 8183 8183 8189 8186 
8168 8169 8167 8167 8168 8165 8163 8161 8168 8167 8171 8168 8168 8171 8170 8169 8170 8170 8168 8169 8173 8172 8161 8137 8134 8137 8151 8163 8158 8182 8181 8171 8162 8158 8146 8137 8138 8137 8137 8134 8133 8134 8134 8136 8133 8132 8134 8133 8134 8132 8133 8132 8151 8169 8157 8167 8152 8135 8134 8159 8171 8177 8181 8182 8186 8183 8186 8184 8185 8182 8180 8182 8180 8183 8182 8184 8184 8185 8188 8185 
8166 8164 8167 8171 8168 8166 8165 8172 8169 8166 8167 8169 8169 8169 8172 8170 8172 8171 8168 8172 8172 8173 8171 8138 8136 8137 8141 8145 8153 8165 8166 8151 8147 8142 8140 8137 8135 8134 8135 8132 8133 8137 8137 8133 8135 8130 8135 8133 8133 8133 8130 8131 8138 8144 8140 8147 8144 8133 8132 8157 8173 8176 8181 8183 8186 8183 8185 8186 8183 8183 8182 8182 8184 8185 8181 8184 8186 8187 8194 8187 
8169 8165 8166 8173 8169 8167 8164 8164 8162 8166 8168 8174 8170 8171 8173 8171 8174 8172 8170 8169 8172 8174 8172 8149 8136 8135 8141 8144 8149 8146 8142 8139 8135 8136 8134 8135 8134 8131 8133 8132 8136 8136 8137 8136 8134 8132 8133 8133 8137 8135 8132 8133 8132 8133 8132 8135 8135 8133 8139 8152 8176 8176 8182 8182 8183 8184 8185 8186 8184 8183 8181 8181 8183 8182 8181 8185 8187 8186 8192 8191 
8167 8164 8164 8169 8167 8169 8165 8163 8165 8168 8169 8167 8171 8172 8175 8170 8172 8174 8172 8167 8170 8172 8169 8161 8135 8137 8138 8142 8141 8144 8140 8133 8133 8132 8135 8133 8134 8132 8131 8133 8137 8138 8138 8136 8136 8135 8137 8134 8136 8135 8134 8135 8134 8137 8132 8130 8129 8137 8156 8154 8174 8180 8181 8183 8181 8184 8183 8184 8183 8180 8180 8178 8180 8181 8183 8186 8189 8188 8193 8191 
8167 8169 8174 8173 8170 8167 8168 8168 8166 8169 8171 8170 8171 8169 8173 8175 8170 8174 8170 8171 8169 8170 8170 8169 8138 8137 8140 8140 8140 8136 8130 8132 8131 8133 8136 8132 8133 8133 8132 8135 8134 8139 8136 8138 8137 8136 8132 8131 8133 8134 8135 8133 8132 8137 8136 8134 8129 8133 8162 8175 8180 8182 8181 8182 8183 8184 8183 8183 8182 8179 8184 8182 8181 8182 8178 8187 8188 8190 8193 8187 
8168 8170 8170 8174 8171 8171 8172 8170 8172 8175 8172 8172 8171 8174 8173 8170 8171 8171 8171 8171 8171 8171 8169 8167 8143 8137 8141 8139 8138 8134 8136 8131 8133 8132 8134 8132 8134 8133 8135 8132 8133 8132 8139 8137 8138 8135 8137 8137 8136 8135 8136 8134 8136 8139 8138 8138 8131 8130 8160 8180 8183 8182 8184 8186 8185 8186 8186 8184 8181 8178 8181 8182 8182 8183 8182 8184 8189 8191 8195 8196 
8169 8170 8170 8175 8172 8174 8174 8171 8168 8171 8171 8171 8171 8172 8169 8173 8174 8173 8172 8170 8171 8170 8169 8155 8140 8138 8136 8139 8132 8132 8129 8132 8133 8133 8130 8134 8131 8135 8133 8130 8128 8129 8135 8136 8136 8136 8136 8138 8138 8140 8137 8138 8139 8140 8136 8135 8130 8134 8162 8177 8176 8180 8184 8184 8185 8184 8182 8181 8181 8178 8181 8182 8180 8183 8180 8182 8186 8190 8196 8198 
8168 8168 8172 8171 8172 8173 8172 8169 8169 8169 8168 8167 8168 8171 8173 8170 8169 8168 8172 8167 8166 8165 8168 8150 8138 8140 8139 8137 8129 8126 8130 8129 8132 8134 8128 8132 8129 8136 8133 8132 8130 8130 8133 8135 8135 8135 8135 8137 8140 8141 8140 8138 8138 8138 8142 8138 8131 8131 8162 8175 8176 8178 8183 8183 8184 8179 8181 8180 8178 8181 8180 8179 8183 8179 8182 8183 8188 8187 8195 8195 
8174 8174 8167 8171 8172 8173 8169 8171 8168 8169 8166 8166 8167 8170 8171 8171 8170 8168 8166 8166 8168 8168 8164 8145 8138 8137 8143 8141 8138 8129 8130 8132 8129 8130 8130 8131 8129 8131 8133 8135 8133 8129 8133 8139 8140 8138 8137 8139 8142 8140 8141 8135 8138 8140 8142 8145 8139 8147 8173 8175 8178 8178 8181 8183 8182 8182 8183 8180 8177 8180 8181 8179 8181 8182 8180 8184 8189 8188 8197 8196 
8176 8173 8172 8173 8171 8172 8171 8172 8170 8169 8167 8164 8165 8169 8171 8170 8168 8168 8167 8165 8169 8172 8163 8142 8139 8138 8142 8140 8138 8134 8130 8131 8130 8133 8131 8134 8133 8133 8135 8134 8134 8134 8136 8141 8140 8140 8139 8139 8139 8139 8141 8136 8138 8138 8140 8144 8152 8171 8177 8174 8178 8183 8180 8185 8182 8181 8181 8184 8183 8184 8180 8180 8180 8181 8184 8185 8188 8187 8194 8197 
8176 8173 8175 8175 8175 8170 8170 8170 8172 8169 8169 8166 8162 8170 8171 8171 8167 8169 8171 8167 8170 8173 8162 8143 8139 8138 8140 8136 8136 8137 8131 8132 8130 8135 8130 8131 8132 8137 8134 8134 8137 8135 8134 8135 8137 8137 8141 8140 8139 8142 8139 8139 8138 8138 8140 8145 8156 8175 8175 8174 8175 8175 8179 8183 8180 8183 8180 8178 8179 8179 8182 8181 8184 8183 8181 8184 8189 8186 8193 8192 
8179 8173 8174 8174 8172 8169 8172 8173 8171 8168 8167 8169 8168 8170 8173 8167 8170 8171 8172 8171 8174 8173 8161 8141 8140 8136 8131 8136 8136 8132 8129 8130 8128 8133 8131 8130 8128 8130 8132 8134 8133 8133 8133 8136 8135 8134 8140 8141 8138 8138 8137 8138 8139 8137 8138 8143 8152 8175 8177 8177 8178 8178 8180 8180 8181 8178 8179 8179 8180 8181 8177 8178 8177 8181 8180 8181 8186 8186 8192 8190 
8176 8175 8173 8175 8175 8172 8175 8175 8171 8169 8165 8168 8173 8175 8175 8172 8170 8173 8172 8173 8177 8174 8161 8139 8139 8131 8126 8130 8128 8126 8129 8129 8132 8135 8132 8131 8127 8128 8131 8129 8126 8128 8130 8132 8137 8139 8136 8137 8138 8138 8141 8141 8140 8141 8138 8143 8152 8174 8176 8174 8177 8178 8182 8180 8177 8179 8177 8177 8180 8179 8178 8179 8182 8183 8181 8183 8185 8189 8192 8192 
8178 8179 8177 8179 8176 8173 8176 8172 8173 8170 8169 8174 8171 8173 8172 8171 8172 8172 8172 8176 8176 8175 8167 8143 8139 8132 8128 8133 8130 8125 8127 8133 8129 8129 8131 8129 8128 8133 8130 8126 8128 8128 8132 8135 8138 8139 8139 8137 8136 8136 8135 8137 8141 8141 8141 8147 8157 8177 8179 8177 8177 8176 8179 8183 8179 8179 8183 8177 8178 8177 8178 8181 8182 8186 8186 8188 8189 8188 8199 8193 
8181 8181 8178 8177 8177 8172 8177 8174 8172 8175 8171 8173 8171 8173 8172 8171 8170 8171 8171 8171 8169 8170 8167 8146 8139 8137 8130 8129 8132 8130 8130 8132 8131 8133 8128 8132 8132 8131 8132 8128 8128 8130 8132 8133 8134 8138 8135 8135 8135 8137 8137 8139 8140 8140 8141 8148 8160 8179 8179 8177 8177 8176 8177 8182 8180 8181 8180 8180 8182 8176 8178 8183 8186 8186 8188 8188 8191 8191 8197 8194 
8178 8176 8177 8178 8177 8178 8176 8175 8170 8173 8173 8171 8170 8171 8173 8171 8169 8171 8168 8174 8172 8170 8166 8151 8141 8136 8133 8133 8133 8132 8131 8130 8126 8130 8131 8133 8131 8128 8128 8127 8131 8131 8131 8133 8132 8131 8132 8133 8135 8132 8138 8137 8142 8143 8145 8152 8166 8183 8178 8176 8173 8176 8178 8180 8181 8180 8180 8179 8177 8176 8179 8180 8184 8186 8187 8190 8191 8188 8194 8195 
8180 8179 8181 8177 8178 8178 8176 8171 8172 8173 8173 8169 8172 8171 8170 8165 8168 8168 8174 8172 8172 8172 8170 8162 8143 8138 8134 8133 8132 8132 8130 8130 8128 8131 8129 8132 8131 8131 8130 8128 8124 8129 8132 8129 8131 8131 8134 8136 8136 8137 8138 8141 8142 8143 8147 8155 8173 8183 8181 8174 8173 8177 8182 8180 8183 8182 8181 8178 8179 8179 8178 8180 8183 8187 8190 8190 8192 8187 8194 8191 
8176 8176 8179 8174 8176 8173 8174 8173 8172 8173 8169 8171 8170 8173 8171 8169 8167 8175 8175 8177 8174 8172 8169 8170 8148 8143 8136 8134 8132 8132 8132 8130 8129 8127 8132 8132 8131 8132 8130 8126 8128 8131 8132 8131 8131 8129 8133 8135 8135 8136 8140 8141 8140 8146 8150 8162 8182 8179 8178 8181 8176 8177 8182 8181 8182 8181 8181 8177 8177 8179 8179 8175 8182 8183 8189 8190 8190 8188 8194 8191 
8173 8173 8175 8171 8173 8175 8173 8173 8173 8172 8170 8172 8170 8173 8173 8173 8169 8173 8176 8174 8173 8176 8169 8173 8161 8145 8142 8137 8137 8133 8131 8131 8129 8131 8129 8131 8129 8132 8130 8129 8128 8130 8130 8133 8133 8134 8135 8136 8136 8139 8138 8141 8143 8146 8155 8176 8182 8183 8179 8178 8177 8181 8180 8183 8182 8181 8176 8176 8177 8177 8178 8177 8182 8186 8186 8190 8191 8191 8197 8193 
8174 8171 8171 8171 8171 8169 8171 8175 8175 8174 8176 8171 8176 8176 8175 8171 8169 8171 8171 8170 8175 8173 8172 8176 8172 8152 8143 8141 8136 8133 8134 8133 8131 8132 8131 8133 8130 8133 8131 8130 8130 8132 8134 8135 8136 8138 8137 8136 8141 8143 8139 8139 8146 8153 8162 8185 8184 8183 8181 8180 8178 8181 8182 8184 8182 8182 8178 8177 8178 8180 8179 8179 8183 8186 8189 8191 8190 8189 8194 8191 
8176 8173 8175 8170 8173 8170 8174 8175 8176 8175 8174 8173 8176 8176 8175 8173 8170 8170 8169 8171 8171 8173 8171 8177 8178 8166 8147 8145 8142 8135 8134 8135 8134 8133 8131 8133 8132 8131 8131 8132 8131 8132 8133 8138 8138 8141 8142 8141 8143 8143 8143 8143 8152 8160 8182 8189 8186 8184 8180 8184 8184 8179 8185 8185 8185 8183 8174 8175 8176 8178 8180 8179 8183 8184 8187 8189 8188 8189 8190 8192 
8179 8182 8176 8172 8174 8174 8174 8171 8176 8174 8174 8171 8174 8179 8176 8171 8173 8174 8172 8173 8170 8172 8172 8177 8176 8174 8159 8149 8147 8139 8138 8138 8133 8135 8134 8134 8133 8131 8135 8132 8129 8133 8135 8141 8141 8138 8145 8142 8142 8141 8143 8145 8155 8173 8192 8192 8187 8186 8184 8182 8182 8181 8183 8183 8182 8180 8177 8178 8178 8181 8179 8181 8184 8184 8186 8185 8189 8187 8191 8187 
8179 8175 8172 8171 8174 8173 8175 8174 8172 8170 8172 8168 8176 8175 8179 8177 8177 8174 8174 8173 8174 8176 8174 8175 8174 8175 8170 8159 8156 8157 8149 8141 8139 8140 8138 8136 8136 8133 8134 8134 8135 8132 8138 8140 8139 8141 8145 8143 8146 8145 8149 8149 8164 8186 8196 8194 8191 8185 8181 8183 8179 8181 8182 8183 8183 8181 8180 8179 8179 8179 8180 8181 8182 8183 8185 8185 8191 8186 8188 8186 
8180 8179 8172 8174 8172 8172 8175 8176 8170 8173 8172 8174 8174 8175 8174 8175 8177 8172 8173 8173 8173 8175 8174 8176 8175 8175 8169 8165 8155 8165 8165 8152 8148 8144 8138 8142 8134 8135 8130 8135 8136 8134 8138 8142 8142 8141 8145 8148 8146 8148 8155 8162 8179 8197 8195 8193 8191 8190 8183 8178 8180 8178 8183 8182 8182 8175 8180 8178 8179 8179 8180 8182 8182 8183 8186 8186 8186 8186 8193 8186 
8178 8181 8176 8177 8175 8174 8178 8175 8179 8178 8177 8171 8176 8172 8176 8177 8176 8175 8175 8173 8175 8175 8171 8180 8180 8177 8174 8169 8160 8154 8173 8174 8164 8160 8155 8148 8138 8138 8137 8137 8141 8141 8142 8142 8142 8141 8144 8147 8153 8157 8161 8172 8192 8198 8197 8194 8191 8187 8185 8180 8178 8179 8179 8184 8180 8176 8178 8176 8179 8176 8181 8182 8183 8188 8185 8184 8184 8188 8189 8182 
8176 8175 8178 8176 8175 8173 8180 8177 8175 8175 8173 8178 8178 8170 8179 8173 8174 8171 8174 8171 8175 8173 8174 8178 8179 8177 8174 8173 8173 8155 8154 8175 8187 8175 8172 8166 8151 8147 8140 8140 8146 8146 8148 8146 8144 8145 8150 8154 8161 8165 8165 8188 8199 8202 8196 8192 8189 8184 8180 8180 8180 8183 8182 8181 8177 8179 8179 8176 8179 8179 8181 8182 8182 8185 8184 8185 8186 8186 8188 8182 
8180 8175 8178 8177 8175 8180 8180 8177 8176 8177 8176 8179 8178 8181 8176 8175 8176 8176 8179 8174 8173 8175 8177 8180 8181 8179 8178 8180 8179 8174 8160 8155 8166 8182 8188 8178 8163 8160 8150 8146 8149 8154 8158 8154 8155 8155 8159 8161 8160 8168 8184 8199 8203 8203 8197 8192 8191 8186 8183 8181 8179 8182 8183 8180 8180 8176 8176 8177 8182 8179 8182 8185 8187 8187 8184 8184 8188 8181 8186 8184 
8176 8172 8173 8172 8176 8173 8180 8174 8172 8175 8174 8176 8178 8181 8178 8173 8175 8177 8177 8174 8172 8180 8176 8181 8179 8181 8177 8178 8180 8179 8179 8166 8157 8157 8160 8162 8161 8159 8160 8158 8159 8164 8162 8159 8161 8154 8157 8164 8173 8187 8200 8202 8201 8201 8195 8194 8192 8185 8183 8179 8181 8181 8180 8177 8176 8176 8179 8179 8183 8184 8185 8186 8191 8190 8191 8186 8189 8184 8189 8184 
8177 8176 8174 8176 8179 8178 8178 8179 8171 8170 8173 8175 8181 8180 8180 8175 8173 8176 8179 8169 8175 8176 8181 8185 8182 8180 8181 8183 8185 8183 8183 8185 8175 8164 8156 8152 8154 8156 8161 8159 8160 8160 8155 8153 8154 8155 8166 8182 8198 8200 8202 8205 8204 8203 8202 8197 8190 8184 8183 8183 8185 8183 8182 8179 8175 8177 8179 8182 8186 8182 8185 8184 8188 8188 8189 8188 8188 8185 8187 8187 
8176 8176 8174 8177 8176 8176 8176 8177 8178 8171 8169 8171 8173 8177 8177 8174 8174 8177 8178 8176 8175 8176 8177 8183 8185 8181 8182 8186 8184 8181 8183 8183 8183 8185 8177 8164 8149 8153 8149 8152 8151 8149 8150 8154 8157 8169 8192 8198 8203 8202 8202 8206 8203 8206 8200 8194 8190 8188 8184 8185 8182 8183 8183 8179 8178 8181 8179 8181 8184 8184 8184 8187 8187 8191 8185 8185 8186 8182 8188 8187 
8174 8175 8177 8175 8175 8174 8176 8175 8172 8175 8169 8172 8173 8180 8180 8177 8174 8174 8177 8172 8177 8178 8181 8183 8184 8180 8186 8187 8185 8182 8182 8184 8183 8189 8188 8188 8181 8177 8171 8165 8166 8168 8174 8183 8193 8196 8204 8204 8206 8209 8207 8205 8203 8204 8200 8199 8191 8187 8185 8185 8186 8183 8187 8182 8182 8179 8177 8181 8182 8184 8189 8189 8188 8191 8186 8182 8186 8181 8186 8185 
8174 8179 8175 8177 8175 8175 8173 8175 8169 8171 8173 8178 8175 8182 8178 8175 8174 8174 8177 8172 8176 8176 8179 8184 8186 8181 8177 8184 8184 8183 8184 8185 8185 8189 8193 8193 8189 8188 8186 8187 8189 8189 8195 8198 8203 8201 8202 8208 8210 8208 8207 8205 8202 8201 8200 8195 8190 8189 8186 8181 8183 8182 8183 8181 8180 8177 8178 8175 8180 8181 8184 8186 8187 8187 8181 8182 8177 8177 8188 8181 
8175 8176 8177 8175 8172 8173 8171 8171 8168 8175 8174 8172 8178 8175 8175 8173 8176 8174 8171 8172 8178 8178 8180 8183 8180 8168 8177 8182 8185 8182 8185 8189 8189 8185 8196 8195 8193 8192 8189 8188 8193 8193 8200 8200 8202 8201 8200 8208 8207 8209 8208 8202 8201 8201 8197 8194 8191 8188 8184 8180 8182 8181 8181 8178 8180 8181 8178 8178 8179 8179 8182 8186 8184 8185 8183 8182 8179 8178 8181 8179 
8179 8175 8177 8172 8169 8167 8172 8169 8169 8176 8175 8171 8177 8178 8176 8174 8172 8174 8173 8176 8175 8176 8177 8182 8182 8171 8169 8184 8185 8186 8187 8184 8189 8190 8192 8193 8191 8190 8190 8192 8193 8197 8200 8204 8205 8198 8202 8205 8205 8207 8206 8200 8200 8202 8197 8193 8186 8187 8183 8180 8176 8179 8181 8179 8181 8177 8181 8180 8180 8179 8184 8184 8180 8185 8181 8179 8184 8176 8179 8175 
8176 8180 8175 8167 8169 8165 8167 8167 8171 8170 8172 8168 8168 8172 8177 8169 8171 8170 8175 8175 8175 8174 8177 8180 8184 8179 8181 8182 8184 8184 8183 8188 8183 8186 8182 8187 8187 8186 8190 8191 8193 8191 8192 8198 8201 8198 8204 8206 8206 8206 8203 8197 8197 8195 8194 8191 8190 8184 8184 8180 8176 8182 8179 8176 8178 8178 8181 8180 8180 8180 8182 8180 8180 8177 8176 8181 8178 8167 8177 8172 
8180 8174 8165 8164 8167 8159 8160 8169 8168 8171 8168 8165 8166 8171 8171 8165 8168 8168 8170 8169 8171 8170 8174 8174 8183 8182 8184 8186 8184 8185 8184 8179 8179 8184 8183 8186 8187 8190 8189 8195 8191 8192 8190 8194 8194 8196 8203 8206 8204 8207 8200 8201 8198 8196 8192 8190 8184 8183 8183 8180 8180 8176 8178 8177 8179 8180 8183 8184 8182 8185 8182 8182 8180 8178 8180 8181 8176 8169 8174 8169 
8182 8169 8165 8163 8162 8158 8161 8164 8169 8170 8164 8162 8164 8166 8169 8164 8161 8162 8167 8170 8171 8169 8171 8179 8179 8179 8181 8181 8181 8178 8180 8172 8173 8179 8180 8180 8184 8184 8187 8193 8192 8190 8191 8193 8195 8197 8203 8204 8204 8202 8202 8198 8196 8198 8193 8189 8185 8183 8178 8178 8179 8176 8174 8177 8179 8181 8180 8183 8184 8182 8181 8181 8183 8183 8182 8186 8180 8175 8178 8176 


