P2
80 60
8215
8151 8156 8159 8164 8166 8168 8165 8165 8167 8165 8165 8168 8170 8167 8170 8166 8170 8170 8168 8170 8177 8177 8177 8178 8175 8178 8180 8181 8179 8185 8184 8183 8178 8161 8156 8168 8189 8195 8199 8201 8201 8201 8204 8202 8202 8204 8204 8190 8165 8156 8155 8157 8152 8154 8170 8157 8152 8170 8185 8188 8186 8187 8191 8186 8184 8184 8187 8188 8189 8188 8184 8185 8183 8184 8186 8186 8180 8176 8172 8177 
8153 8163 8162 8163 8167 8164 8164 8165 8164 8165 8168 8170 8167 8165 8166 8166 8168 8170 8169 8174 8174 8177 8179 8174 8179 8176 8177 8181 8181 8182 8182 8172 8155 8150 8157 8184 8188 8195 8200 8199 8199 8199 8201 8203 8201 8199 8184 8155 8147 8148 8155 8157 8153 8158 8166 8148 8137 8150 8174 8180 8185 8184 8187 8185 8182 8185 8184 8192 8190 8188 8185 8185 8183 8185 8184 8183 8185 8178 8179 8174 
8155 8160 8157 8158 8165 8168 8162 8165 8164 8167 8168 8167 8166 8165 8165 8165 8169 8169 8172 8172 8172 8172 8172 8172 8174 8177 8179 8181 8180 8181 8173 8155 8146 8149 8164 8190 8191 8197 8201 8200 8202 8198 8199 8198 8201 8194 8155 8143 8142 8145 8158 8168 8165 8172 8162 8142 8137 8142 8150 8153 8160 8168 8177 8181 8182 8185 8184 8188 8187 8187 8185 8185 8184 8187 8187 8183 8183 8178 8179 8175 
8158 8161 8163 8158 8168 8165 8166 8162 8165 8166 8165 8162 8165 8164 8162 8166 8169 8169 8168 8173 8170 8170 8165 8172 8172 8175 8177 8177 8178 8172 8154 8145 8148 8149 8166 8187 8192 8196 8199 8197 8198 8197 8198 8196 8197 8194 8156 8141 8137 8144 8167 8167 8175 8160 8149 8139 8143 8140 8137 8144 8148 8150 8155 8166 8179 8183 8184 8189 8188 8187 8186 8185 8184 8187 8185 8183 8181 8181 8179 8173 
8159 8161 8162 8160 8167 8170 8166 8164 8163 8167 8164 8161 8160 8161 8163 8164 8165 8163 8168 8168 8171 8169 8167 8167 8171 8173 8174 8172 8166 8152 8147 8144 8146 8144 8160 8187 8190 8194 8195 8195 8193 8194 8196 8190 8193 8184 8160 8137 8142 8140 8145 8148 8153 8146 8144 8143 8147 8146 8139 8143 8146 8149 8150 8155 8166 8180 8185 8189 8189 8188 8188 8187 8186 8184 8186 8182 8181 8179 8180 8178 
8166 8165 8163 8166 8168 8169 8172 8168 8164 8167 8164 8165 8167 8160 8159 8163 8165 8165 8169 8172 8171 8170 8170 8168 8173 8173 8173 8165 8146 8141 8144 8145 8146 8147 8152 8171 8189 8194 8194 8192 8194 8193 8194 8190 8182 8158 8147 8140 8147 8138 8140 8143 8150 8158 8140 8142 8142 8145 8150 8150 8149 8150 8150 8149 8158 8178 8189 8188 8193 8193 8192 8189 8187 8186 8184 8183 8182 8182 8183 8177 
8168 8166 8164 8167 8171 8172 8171 8171 8164 8163 8160 8168 8169 8161 8163 8167 8166 8167 8172 8172 8170 8170 8172 8172 8174 8169 8156 8141 8135 8142 8144 8151 8153 8154 8157 8166 8183 8192 8197 8195 8196 8193 8189 8166 8148 8148 8150 8148 8144 8146 8140 8156 8158 8147 8143 8140 8142 8158 8174 8163 8156 8153 8153 8153 8157 8175 8191 8190 8193 8190 8190 8189 8189 8186 8184 8182 8182 8181 8185 8183 
8170 8167 8163 8168 8170 8173 8174 8172 8169 8163 8168 8171 8169 8164 8167 8168 8168 8169 8171 8175 8176 8173 8175 8175 8163 8143 8134 8132 8139 8150 8162 8172 8182 8181 8178 8177 8175 8186 8194 8194 8197 8194 8171 8142 8138 8140 8144 8147 8145 8148 8145 8156 8154 8146 8143 8141 8143 8167 8183 8180 8176 8174 8173 8173 8177 8187 8192 8195 8194 8192 8191 8188 8187 8186 8186 8188 8187 8186 8189 8186 
8167 8167 8164 8166 8168 8168 8173 8170 8171 8166 8170 8171 8168 8169 8167 8166 8167 8172 8172 8176 8174 8169 8173 8171 8164 8141 8136 8133 8140 8167 8183 8185 8188 8187 8189 8190 8182 8171 8185 8194 8191 8182 8160 8139 8134 8139 8140 8141 8143 8142 8142 8152 8146 8148 8146 8143 8147 8157 8178 8172 8176 8186 8188 8190 8186 8191 8190 8195 8193 8191 8190 8188 8188 8190 8188 8191 8190 8190 8194 8180 
8169 8164 8163 8163 8169 8169 8164 8171 8171 8173 8173 8173 8171 8171 8170 8169 8171 8169 8174 8174 8174 8172 8172 8171 8169 8161 8139 8137 8141 8158 8181 8185 8185 8188 8190 8192 8191 8186 8168 8172 8170 8154 8145 8139 8136 8137 8141 8141 8139 8141 8145 8157 8156 8150 8147 8146 8150 8158 8171 8167 8166 8183 8189 8189 8187 8192 8192 8192 8192 8191 8189 8186 8187 8189 8190 8189 8189 8192 8195 8188 
8170 8168 8167 8163 8169 8169 8166 8167 8171 8171 8175 8170 8174 8169 8168 8170 8169 8170 8172 8175 8176 8176 8176 8173 8172 8171 8160 8144 8143 8150 8165 8182 8185 8186 8185 8185 8185 8185 8170 8152 8146 8146 8146 8143 8138 8140 8141 8137 8141 8141 8151 8186 8181 8160 8150 8148 8150 8153 8156 8157 8164 8178 8187 8191 8188 8187 8192 8194 8191 8189 8190 8188 8189 8189 8189 8190 8192 8189 8192 8187 
8171 8169 8162 8161 8164 8169 8166 8167 8171 8174 8171 8170 8173 8170 8171 8173 8174 8172 8173 8175 8177 8176 8175 8176 8174 8176 8175 8157 8144 8149 8148 8165 8171 8158 8151 8147 8156 8159 8151 8146 8144 8146 8146 8143 8143 8141 8139 8138 8143 8147 8158 8186 8188 8170 8150 8150 8150 8152 8157 8158 8161 8168 8187 8188 8191 8191 8193 8193 8190 8192 8187 8189 8186 8184 8186 8190 8194 8192 8196 8189 
8170 8172 8166 8165 8166 8172 8171 8168 8169 8172 8173 8172 8169 8170 8173 8178 8174 8176 8173 8176 8178 8175 8174 8175 8176 8175 8175 8175 8157 8148 8147 8143 8140 8138 8139 8138 8146 8147 8142 8141 8143 8140 8141 8142 8142 8139 8140 8157 8151 8148 8149 8161 8176 8174 8155 8154 8151 8158 8161 8164 8161 8168 8185 8190 8191 8191 8192 8194 8192 8191 8190 8186 8188 8188 8187 8189 8191 8193 8195 8186 
8171 8174 8173 8174 8172 8171 8170 8171 8168 8176 8176 8174 8171 8169 8173 8174 8175 8172 8173 8177 8175 8176 8177 8177 8175 8172 8179 8177 8176 8156 8144 8138 8138 8141 8140 8143 8145 8154 8141 8138 8138 8138 8140 8141 8138 8140 8141 8153 8138 8139 8143 8146 8151 8163 8156 8153 8158 8176 8184 8185 8172 8162 8174 8186 8190 8196 8193 8196 8192 8194 8186 8182 8186 8187 8185 8186 8190 8193 8191 8184 
8174 8171 8172 8173 8174 8174 8173 8173 8172 8174 8177 8175 8174 8168 8176 8175 8177 8174 8177 8179 8175 8176 8176 8175 8175 8176 8178 8176 8177 8167 8142 8137 8139 8140 8143 8142 8139 8142 8139 8139 8135 8135 8139 8140 8139 8139 8135 8133 8134 8138 8142 8144 8147 8158 8171 8155 8169 8191 8192 8189 8166 8156 8161 8184 8192 8196 8199 8198 8193 8193 8189 8185 8188 8188 8183 8189 8191 8189 8192 8187 
8178 8168 8168 8170 8173 8174 8171 8173 8172 8176 8176 8173 8175 8173 8176 8178 8174 8175 8178 8182 8175 8176 8174 8175 8175 8179 8178 8177 8178 8164 8143 8139 8134 8136 8139 8139 8138 8139 8136 8135 8136 8137 8137 8139 8135 8139 8138 8133 8137 8137 8142 8146 8141 8161 8174 8161 8186 8190 8187 8175 8157 8154 8153 8166 8184 8195 8198 8198 8193 8196 8190 8187 8190 8188 8187 8189 8193 8191 8195 8184 
8178 8171 8166 8174 8174 8171 8172 8171 8172 8178 8177 8177 8176 8175 8177 8175 8176 8176 8179 8178 8176 8175 8177 8172 8174 8177 8177 8178 8181 8173 8150 8139 8137 8139 8140 8139 8141 8136 8138 8135 8138 8137 8138 8139 8136 8137 8139 8135 8136 8142 8140 8142 8140 8152 8168 8178 8192 8189 8182 8156 8154 8155 8157 8155 8176 8190 8199 8197 8190 8194 8193 8189 8193 8191 8189 8188 8191 8193 8196 8191 
8176 8170 8174 8169 8168 8175 8174 8178 8172 8180 8179 8176 8178 8174 8178 8176 8177 8176 8177 8176 8177 8176 8179 8176 8174 8175 8180 8181 8180 8184 8173 8150 8141 8142 8146 8144 8142 8139 8137 8136 8133 8133 8138 8138 8139 8137 8139 8134 8137 8140 8143 8146 8143 8165 8185 8198 8192 8183 8157 8153 8152 8154 8159 8160 8162 8181 8191 8190 8181 8190 8195 8196 8196 8194 8191 8194 8191 8190 8194 8194 
8176 8175 8174 8170 8171 8173 8176 8178 8181 8180 8179 8179 8181 8179 8180 8180 8175 8177 8176 8174 8176 8181 8179 8177 8179 8180 8181 8179 8178 8182 8184 8173 8146 8150 8146 8144 8142 8136 8138 8135 8133 8132 8142 8141 8142 8137 8137 8136 8138 8136 8140 8143 8168 8190 8189 8182 8173 8154 8154 8155 8156 8156 8161 8160 8158 8162 8176 8179 8178 8188 8196 8196 8195 8194 8190 8193 8195 8198 8196 8190 
8180 8176 8174 8172 8168 8174 8175 8180 8180 8182 8184 8181 8180 8177 8178 8178 8179 8176 8176 8174 8176 8178 8181 8179 8178 8177 8178 8179 8181 8181 8182 8183 8178 8181 8163 8145 8136 8135 8140 8137 8135 8131 8144 8136 8139 8137 8142 8138 8138 8139 8144 8148 8164 8169 8160 8163 8165 8164 8158 8153 8153 8156 8161 8158 8158 8163 8164 8175 8180 8184 8196 8198 8196 8194 8193 8194 8195 8197 8198 8191 
8180 8179 8169 8170 8169 8170 8171 8177 8179 8180 8181 8179 8179 8175 8177 8178 8181 8174 8173 8176 8175 8178 8183 8181 8178 8177 8174 8177 8169 8152 8145 8164 8185 8190 8177 8140 8134 8131 8135 8135 8135 8138 8141 8131 8134 8133 8135 8137 8137 8138 8138 8143 8141 8145 8152 8156 8161 8166 8169 8160 8149 8152 8157 8158 8159 8157 8159 8168 8180 8186 8195 8196 8195 8193 8192 8194 8197 8199 8198 8197 
8180 8179 8175 8177 8176 8170 8166 8178 8172 8181 8177 8178 8179 8175 8174 8176 8171 8172 8171 8172 8177 8183 8181 8178 8178 8173 8175 8162 8137 8132 8134 8137 8177 8186 8170 8140 8137 8133 8132 8135 8137 8139 8139 8133 8133 8135 8135 8136 8137 8134 8140 8141 8140 8144 8166 8183 8184 8186 8180 8163 8149 8151 8156 8156 8163 8162 8163 8163 8165 8182 8195 8196 8193 8195 8194 8197 8198 8198 8200 8193 
8179 8183 8176 8176 8174 8171 8166 8168 8171 8182 8180 8175 8177 8174 8168 8160 8152 8159 8164 8159 8166 8177 8178 8179 8176 8174 8157 8131 8126 8130 8130 8132 8164 8165 8148 8136 8134 8134 8133 8132 8131 8136 8138 8138 8138 8138 8139 8139 8138 8137 8142 8142 8135 8144 8150 8187 8198 8195 8196 8189 8170 8153 8157 8158 8160 8159 8164 8161 8168 8176 8193 8192 8197 8196 8195 8195 8196 8200 8203 8201 
8184 8182 8176 8178 8180 8176 8171 8168 8179 8181 8185 8181 8177 8167 8150 8151 8139 8134 8143 8133 8143 8168 8173 8165 8162 8153 8128 8123 8125 8128 8127 8132 8143 8148 8142 8135 8137 8134 8133 8131 8133 8137 8138 8138 8139 8140 8142 8141 8141 8141 8145 8142 8139 8142 8142 8179 8196 8196 8196 8194 8189 8162 8155 8160 8160 8159 8165 8164 8167 8169 8188 8191 8197 8199 8196 8196 8199 8201 8208 8200 
8183 8181 8177 8182 8178 8178 8173 8176 8178 8175 8182 8180 8179 8154 8134 8131 8132 8129 8128 8130 8132 8139 8138 8129 8126 8123 8119 8124 8125 8125 8128 8131 8139 8141 8143 8138 8136 8135 8136 8136 8137 8139 8139 8138 8138 8136 8141 8141 8144 8153 8176 8145 8141 8143 8141 8171 8196 8195 8196 8197 8195 8170 8151 8154 8153 8156 8157 8166 8164 8165 8182 8194 8195 8196 8196 8198 8202 8201 8206 8205 
8183 8179 8174 8179 8179 8176 8174 8172 8174 8179 8180 8184 8178 8168 8143 8136 8135 8136 8132 8130 8133 8129 8129 8129 8123 8120 8123 8125 8126 8129 8127 8133 8137 8140 8139 8141 8138 8137 8137 8138 8139 8136 8141 8140 8137 8136 8139 8140 8144 8146 8159 8154 8152 8172 8158 8155 8173 8196 8196 8198 8198 8172 8153 8154 8158 8162 8161 8165 8165 8165 8183 8192 8193 8196 8197 8198 8204 8201 8208 8213 
8180 8178 8173 8177 8178 8176 8173 8171 8175 8180 8182 8179 8179 8177 8162 8148 8142 8134 8131 8128 8128 8125 8125 8126 8123 8124 8135 8127 8126 8128 8126 8132 8134 8138 8140 8141 8140 8138 8135 8138 8138 8139 8141 8141 8140 8139 8140 8137 8145 8147 8150 8153 8157 8157 8150 8150 8153 8187 8195 8199 8200 8174 8153 8154 8155 8156 8157 8162 8162 8163 8179 8189 8193 8194 8197 8200 8202 8202 8206 8210 
8181 8180 8182 8180 8181 8175 8178 8176 8177 8179 8179 8180 8180 8177 8176 8175 8168 8145 8132 8128 8127 8124 8124 8125 8124 8126 8150 8156 8134 8132 8135 8137 8139 8137 8139 8138 8139 8140 8136 8137 8138 8140 8140 8143 8143 8142 8140 8141 8144 8144 8149 8153 8146 8152 8157 8157 8152 8159 8179 8195 8200 8183 8159 8156 8157 8160 8160 8164 8158 8161 8182 8191 8194 8195 8194 8203 8201 8202 8207 8206 
8183 8181 8178 8180 8181 8181 8178 8178 8180 8183 8181 8182 8179 8178 8180 8176 8172 8161 8139 8130 8126 8126 8125 8127 8129 8130 8146 8167 8145 8139 8138 8135 8138 8137 8136 8135 8134 8134 8137 8137 8140 8139 8143 8144 8143 8139 8142 8145 8145 8143 8146 8149 8146 8152 8156 8160 8153 8153 8155 8169 8189 8191 8168 8158 8158 8163 8159 8161 8156 8161 8181 8192 8194 8195 8194 8196 8203 8205 8208 8206 
8181 8183 8179 8185 8182 8182 8182 8177 8182 8181 8181 8180 8181 8178 8176 8177 8176 8170 8148 8129 8124 8126 8127 8133 8153 8161 8149 8145 8136 8137 8133 8135 8135 8134 8133 8134 8132 8134 8135 8138 8140 8141 8141 8144 8143 8143 8141 8142 8146 8144 8147 8152 8152 8159 8156 8158 8151 8150 8151 8155 8159 8174 8183 8163 8160 8162 8158 8161 8158 8160 8181 8188 8191 8195 8196 8195 8200 8206 8214 8211 
8184 8184 8179 8182 8181 8183 8179 8178 8180 8179 8181 8178 8177 8177 8178 8178 8176 8167 8137 8126 8125 8125 8141 8165 8172 8173 8173 8150 8130 8133 8132 8133 8132 8135 8133 8135 8137 8143 8142 8142 8139 8142 8142 8143 8143 8141 8145 8145 8147 8147 8148 8151 8154 8154 8158 8155 8155 8151 8152 8152 8154 8159 8186 8185 8166 8156 8157 8160 8158 8167 8181 8188 8195 8192 8197 8196 8201 8202 8215 8210 
8187 8184 8177 8179 8182 8185 8178 8180 8181 8170 8158 8169 8176 8177 8178 8178 8177 8165 8147 8136 8126 8138 8157 8150 8163 8154 8157 8142 8130 8130 8131 8133 8136 8136 8140 8143 8142 8143 8145 8147 8141 8140 8143 8148 8149 8146 8146 8145 8147 8148 8143 8147 8156 8157 8158 8155 8154 8150 8152 8152 8154 8156 8166 8185 8176 8161 8161 8158 8165 8186 8189 8193 8195 8192 8196 8198 8203 8202 8212 8211 
8189 8185 8178 8181 8180 8183 8178 8178 8179 8155 8134 8142 8170 8174 8176 8177 8175 8173 8169 8165 8163 8154 8123 8122 8122 8124 8127 8129 8129 8130 8131 8136 8140 8142 8142 8147 8144 8145 8148 8146 8147 8144 8142 8147 8147 8148 8147 8145 8144 8142 8142 8144 8155 8156 8158 8155 8152 8153 8154 8149 8153 8155 8154 8162 8161 8158 8156 8163 8169 8192 8193 8191 8196 8192 8197 8199 8202 8200 8209 8212 
8189 8184 8183 8181 8185 8181 8176 8178 8174 8137 8135 8131 8145 8167 8175 8179 8175 8175 8175 8173 8171 8133 8121 8120 8119 8126 8127 8127 8131 8134 8135 8138 8138 8142 8147 8147 8147 8149 8148 8149 8147 8141 8136 8139 8142 8146 8144 8141 8146 8142 8140 8146 8155 8157 8158 8157 8154 8154 8152 8151 8154 8152 8155 8153 8156 8160 8159 8158 8167 8187 8192 8192 8194 8195 8195 8198 8202 8201 8210 8206 
8196 8185 8182 8178 8182 8179 8180 8182 8176 8144 8133 8131 8132 8133 8161 8177 8178 8177 8177 8178 8168 8126 8119 8120 8120 8121 8121 8125 8129 8135 8135 8136 8136 8142 8147 8148 8147 8146 8148 8148 8145 8138 8136 8138 8137 8139 8139 8139 8143 8142 8142 8142 8150 8153 8156 8154 8156 8154 8154 8156 8155 8156 8157 8152 8152 8154 8155 8161 8164 8184 8190 8191 8192 8194 8198 8199 8205 8203 8211 8209 
8190 8189 8182 8183 8183 8181 8182 8182 8172 8139 8129 8132 8135 8131 8136 8150 8168 8174 8175 8171 8158 8125 8123 8118 8117 8117 8120 8125 8126 8134 8136 8136 8139 8143 8146 8148 8147 8147 8146 8147 8143 8140 8135 8137 8139 8140 8137 8139 8141 8142 8144 8144 8150 8152 8153 8154 8155 8154 8156 8153 8158 8157 8157 8155 8154 8155 8156 8158 8167 8181 8189 8190 8194 8199 8199 8200 8204 8205 8211 8211 
8189 8190 8183 8185 8183 8182 8182 8178 8157 8138 8132 8136 8135 8134 8134 8133 8146 8150 8149 8152 8146 8126 8122 8119 8118 8118 8122 8126 8129 8132 8137 8138 8140 8143 8145 8144 8147 8151 8150 8145 8145 8142 8138 8139 8142 8143 8142 8137 8138 8141 8141 8141 8144 8150 8153 8156 8155 8156 8155 8155 8158 8155 8155 8157 8157 8157 8162 8161 8168 8183 8192 8195 8195 8199 8202 8204 8206 8206 8212 8208 
8191 8192 8186 8185 8186 8183 8184 8176 8147 8140 8137 8138 8135 8134 8134 8140 8158 8168 8171 8171 8161 8129 8125 8122 8123 8126 8124 8124 8131 8137 8139 8141 8141 8144 8141 8146 8147 8149 8151 8147 8146 8146 8144 8142 8140 8142 8139 8139 8138 8138 8144 8142 8141 8141 8147 8152 8154 8156 8155 8152 8156 8154 8156 8158 8158 8161 8161 8166 8179 8188 8190 8196 8196 8200 8204 8202 8206 8206 8210 8207 
8189 8191 8186 8187 8189 8185 8182 8166 8142 8138 8137 8137 8137 8134 8135 8158 8176 8178 8176 8180 8179 8158 8135 8126 8126 8124 8127 8128 8132 8138 8140 8140 8140 8139 8141 8144 8145 8147 8148 8147 8146 8147 8146 8150 8137 8136 8139 8143 8141 8137 8147 8143 8143 8143 8143 8146 8145 8152 8153 8152 8154 8152 8156 8157 8157 8160 8164 8177 8189 8190 8191 8192 8194 8198 8203 8204 8206 8206 8209 8209 
8190 8192 8190 8186 8190 8187 8184 8160 8141 8139 8136 8135 8137 8134 8152 8173 8175 8175 8182 8180 8176 8177 8157 8132 8127 8125 8128 8131 8136 8139 8141 8140 8139 8140 8141 8147 8148 8148 8150 8146 8144 8147 8146 8147 8138 8139 8143 8148 8147 8137 8146 8146 8146 8142 8144 8143 8143 8150 8153 8151 8155 8155 8156 8159 8159 8168 8174 8191 8194 8194 8193 8192 8193 8198 8201 8206 8206 8205 8206 8206 
8189 8189 8188 8184 8187 8184 8176 8149 8139 8137 8135 8136 8135 8155 8175 8177 8176 8182 8181 8184 8179 8176 8161 8135 8127 8126 8128 8131 8135 8139 8141 8140 8142 8139 8144 8146 8146 8147 8145 8145 8145 8150 8146 8143 8142 8143 8146 8146 8144 8138 8147 8151 8145 8145 8144 8145 8145 8148 8150 8158 8154 8156 8158 8160 8166 8184 8191 8193 8196 8195 8193 8190 8194 8197 8202 8205 8206 8206 8207 8206 
8188 8188 8186 8179 8188 8181 8168 8141 8137 8137 8136 8135 8140 8169 8182 8179 8177 8180 8184 8180 8180 8180 8149 8133 8132 8128 8126 8131 8137 8138 8142 8142 8142 8142 8141 8145 8146 8147 8145 8146 8148 8150 8149 8144 8144 8146 8150 8147 8145 8144 8147 8148 8148 8144 8146 8145 8147 8150 8157 8157 8158 8162 8163 8176 8189 8195 8192 8194 8196 8195 8193 8190 8193 8198 8198 8205 8207 8204 8209 8208 
8189 8185 8178 8180 8181 8179 8162 8142 8140 8136 8140 8135 8146 8177 8180 8181 8179 8178 8179 8179 8179 8174 8142 8134 8130 8130 8129 8133 8136 8140 8140 8144 8141 8142 8145 8147 8144 8149 8145 8144 8147 8150 8148 8147 8147 8150 8149 8149 8151 8149 8148 8147 8148 8146 8147 8147 8144 8151 8160 8171 8165 8165 8181 8196 8198 8198 8197 8194 8195 8198 8194 8193 8196 8201 8202 8203 8203 8203 8204 8203 
8190 8187 8183 8179 8183 8177 8167 8140 8142 8141 8138 8139 8156 8181 8179 8178 8178 8175 8178 8180 8177 8178 8166 8149 8138 8132 8135 8149 8144 8140 8140 8142 8142 8143 8145 8143 8147 8148 8146 8148 8147 8146 8147 8150 8149 8154 8152 8153 8151 8151 8150 8145 8149 8148 8147 8148 8149 8156 8166 8190 8192 8189 8197 8201 8201 8200 8197 8194 8194 8196 8193 8194 8196 8197 8201 8201 8202 8202 8204 8204 
8190 8194 8183 8178 8183 8182 8168 8139 8137 8139 8139 8137 8165 8181 8184 8179 8180 8182 8177 8178 8177 8177 8178 8175 8162 8155 8157 8169 8152 8141 8141 8144 8146 8144 8142 8145 8146 8146 8150 8145 8144 8149 8148 8153 8149 8151 8153 8152 8153 8148 8146 8144 8143 8148 8150 8150 8154 8158 8166 8168 8168 8186 8201 8200 8198 8196 8195 8196 8196 8197 8193 8195 8196 8199 8198 8197 8203 8201 8206 8201 
8192 8190 8181 8181 8183 8182 8171 8136 8135 8135 8136 8141 8178 8183 8185 8186 8183 8182 8180 8180 8179 8182 8180 8179 8174 8176 8173 8176 8171 8149 8143 8143 8146 8146 8147 8147 8145 8145 8144 8144 8148 8147 8151 8151 8149 8154 8156 8152 8150 8145 8149 8144 8144 8144 8151 8151 8153 8150 8148 8157 8160 8172 8188 8196 8198 8200 8200 8197 8196 8198 8195 8194 8196 8198 8198 8197 8200 8199 8198 8197 
8191 8191 8179 8183 8185 8184 8161 8142 8134 8137 8138 8159 8183 8183 8180 8184 8186 8183 8181 8181 8182 8184 8182 8180 8176 8176 8175 8178 8174 8158 8147 8144 8149 8148 8147 8151 8145 8143 8142 8143 8143 8146 8152 8154 8151 8154 8156 8153 8150 8145 8149 8148 8145 8148 8150 8154 8154 8155 8151 8150 8156 8154 8163 8178 8192 8192 8200 8197 8197 8194 8197 8193 8197 8196 8198 8198 8199 8198 8202 8200 
8190 8197 8185 8187 8186 8185 8170 8148 8149 8153 8157 8176 8185 8179 8185 8186 8185 8183 8182 8180 8182 8180 8180 8183 8182 8177 8174 8174 8179 8172 8146 8145 8148 8149 8149 8149 8144 8144 8140 8139 8144 8148 8156 8151 8153 8151 8151 8148 8155 8151 8152 8147 8145 8147 8152 8156 8156 8156 8153 8153 8156 8158 8158 8163 8182 8192 8194 8197 8197 8194 8195 8194 8197 8199 8200 8196 8198 8199 8202 8201 
8191 8189 8188 8186 8187 8185 8185 8180 8179 8181 8180 8189 8189 8180 8187 8181 8186 8181 8179 8180 8181 8177 8180 8182 8183 8182 8179 8176 8179 8177 8152 8146 8151 8148 8149 8147 8149 8146 8142 8142 8147 8148 8154 8152 8151 8149 8152 8151 8153 8151 8147 8151 8149 8150 8152 8156 8154 8153 8152 8153 8157 8159 8162 8164 8168 8193 8196 8198 8196 8196 8197 8197 8197 8198 8201 8199 8200 8200 8200 8198 
8194 8190 8189 8184 8187 8191 8189 8188 8186 8187 8188 8190 8190 8189 8183 8185 8185 8184 8183 8176 8178 8179 8182 8182 8184 8183 8181 8181 8183 8184 8165 8147 8153 8147 8150 8150 8150 8151 8149 8146 8147 8148 8149 8147 8145 8151 8152 8153 8150 8149 8151 8154 8155 8157 8153 8157 8158 8156 8156 8154 8159 8162 8161 8161 8169 8189 8196 8197 8201 8199 8197 8199 8202 8201 8199 8200 8199 8200 8203 8203 
8188 8187 8183 8184 8188 8187 8191 8186 8186 8186 8184 8187 8189 8189 8186 8185 8185 8185 8183 8179 8179 8182 8181 8185 8183 8184 8182 8181 8182 8188 8180 8151 8147 8149 8149 8148 8150 8151 8158 8159 8152 8154 8153 8146 8148 8147 8153 8152 8152 8151 8155 8158 8154 8154 8153 8157 8158 8155 8154 8156 8161 8162 8161 8158 8167 8189 8195 8198 8201 8201 8201 8199 8202 8205 8204 8202 8202 8199 8202 8200 
8192 8192 8187 8185 8188 8188 8186 8187 8184 8184 8188 8187 8193 8190 8188 8185 8184 8185 8183 8177 8175 8180 8185 8186 8184 8186 8188 8184 8187 8187 8174 8154 8150 8149 8152 8150 8152 8159 8164 8167 8165 8162 8164 8159 8157 8158 8158 8159 8163 8156 8156 8158 8157 8158 8160 8159 8156 8155 8156 8159 8164 8165 8162 8161 8174 8192 8197 8201 8205 8201 8202 8199 8201 8202 8207 8202 8201 8202 8205 8203 
8188 8188 8185 8189 8189 8188 8186 8188 8189 8185 8182 8185 8186 8186 8188 8183 8184 8185 8183 8180 8177 8180 8183 8184 8185 8185 8185 8186 8185 8188 8184 8171 8160 8157 8157 8156 8151 8157 8158 8167 8173 8169 8170 8171 8166 8166 8164 8158 8161 8157 8157 8161 8154 8160 8162 8160 8158 8158 8157 8161 8164 8165 8166 8165 8182 8196 8197 8200 8203 8201 8200 8204 8200 8206 8204 8200 8200 8200 8203 8203 
8187 8188 8187 8185 8188 8191 8186 8184 8185 8187 8183 8185 8186 8189 8187 8184 8184 8184 8181 8179 8181 8180 8186 8185 8186 8183 8187 8186 8186 8187 8189 8188 8187 8189 8183 8179 8164 8154 8153 8155 8159 8157 8161 8162 8162 8160 8160 8164 8173 8174 8164 8162 8157 8156 8161 8161 8161 8161 8159 8162 8167 8165 8166 8175 8192 8197 8193 8200 8199 8201 8205 8202 8202 8203 8202 8196 8200 8196 8203 8205 
8191 8195 8188 8189 8189 8187 8187 8185 8183 8187 8189 8189 8189 8194 8187 8184 8185 8182 8181 8179 8181 8180 8186 8187 8187 8183 8179 8184 8187 8188 8189 8190 8192 8191 8194 8195 8190 8180 8164 8157 8156 8155 8157 8159 8163 8162 8169 8190 8202 8193 8164 8162 8156 8157 8160 8160 8164 8165 8161 8160 8166 8165 8167 8186 8196 8193 8194 8195 8198 8200 8201 8200 8201 8201 8200 8197 8192 8195 8204 8201 
8195 8193 8190 8186 8184 8186 8184 8181 8182 8189 8190 8186 8194 8187 8184 8183 8185 8183 8181 8181 8183 8184 8184 8186 8183 8170 8183 8182 8189 8187 8189 8190 8196 8190 8197 8197 8197 8195 8193 8189 8187 8185 8187 8189 8191 8195 8196 8205 8210 8203 8173 8159 8157 8160 8157 8162 8166 8166 8161 8161 8165 8166 8175 8196 8196 8197 8194 8197 8196 8196 8201 8201 8200 8201 8200 8201 8200 8194 8199 8195 
8195 8193 8188 8184 8181 8183 8183 8180 8183 8190 8187 8184 8192 8188 8185 8181 8184 8186 8182 8184 8183 8183 8183 8185 8185 8171 8173 8185 8186 8192 8195 8190 8195 8193 8196 8195 8196 8193 8194 8197 8197 8198 8201 8201 8206 8202 8203 8207 8208 8211 8189 8162 8155 8158 8160 8162 8163 8164 8161 8162 8165 8170 8193 8199 8199 8193 8197 8197 8195 8197 8201 8200 8196 8200 8197 8196 8197 8193 8197 8193 
8190 8197 8188 8178 8186 8181 8179 8178 8183 8185 8186 8181 8181 8185 8188 8180 8181 8182 8183 8182 8182 8183 8183 8183 8188 8182 8184 8187 8189 8192 8189 8194 8191 8190 8186 8189 8191 8190 8195 8195 8196 8195 8196 8198 8202 8202 8204 8205 8209 8209 8204 8171 8156 8154 8159 8161 8165 8162 8162 8162 8166 8188 8197 8199 8197 8194 8195 8199 8197 8194 8200 8197 8197 8193 8200 8198 8194 8185 8193 8189 
8194 8190 8178 8179 8180 8175 8172 8182 8182 8187 8183 8180 8182 8183 8182 8177 8178 8179 8180 8180 8183 8179 8179 8181 8187 8186 8186 8188 8187 8191 8192 8185 8190 8190 8185 8191 8192 8196 8195 8199 8196 8197 8194 8194 8195 8199 8203 8208 8207 8210 8207 8187 8160 8158 8156 8162 8164 8163 8164 8166 8188 8195 8198 8196 8195 8194 8199 8205 8198 8202 8198 8200 8197 8194 8198 8197 8192 8189 8194 8191 
8201 8189 8180 8177 8176 8171 8170 8176 8183 8183 8180 8177 8179 8180 8181 8175 8173 8171 8178 8182 8179 8178 8181 8186 8184 8181 8183 8182 8184 8186 8184 8180 8184 8185 8184 8186 8189 8190 8192 8202 8200 8195 8196 8194 8196 8198 8201 8205 8204 8208 8212 8199 8174 8164 8163 8163 8167 8166 8165 8183 8198 8197 8194 8197 8195 8197 8197 8201 8199 8198 8199 8197 8199 8198 8198 8200 8196 8192 8195 8195 


