P2
80 60
8254
8049 8052 8046 8048 8049 8054 8055 8054 8059 8061 8061 8070 8072 8075 8081 8092 8102 8110 8112 8114 8118 8119 8123 8129 8129 8137 8135 8142 8143 8148 8143 8145 8147 8148 8144 8149 8151 8147 8143 8150 8146 8145 8143 8138 8134 8132 8138 8143 8139 8143 8140 8140 8142 8143 8143 8138 8142 8139 8137 8138 8137 8140 8133 8135 8131 8125 8117 8123 8126 8128 8131 8133 8137 8140 8146 8147 8149 8148 8149 8141 
8050 8056 8059 8059 8069 8071 8075 8080 8084 8089 8097 8102 8104 8104 8106 8111 8111 8113 8116 8116 8119 8123 8124 8127 8129 8135 8140 8145 8147 8146 8143 8144 8146 8145 8143 8146 8152 8148 8147 8149 8150 8147 8145 8142 8134 8132 8137 8141 8142 8142 8138 8141 8139 8141 8140 8139 8138 8139 8136 8137 8140 8142 8141 8138 8136 8130 8121 8125 8123 8127 8126 8132 8135 8139 8143 8145 8148 8150 8146 8143 
8077 8086 8090 8096 8101 8104 8109 8104 8104 8103 8105 8110 8113 8109 8112 8112 8114 8115 8119 8119 8123 8126 8125 8127 8131 8140 8144 8150 8150 8150 8148 8148 8150 8151 8148 8149 8151 8150 8153 8154 8151 8149 8147 8146 8137 8136 8136 8138 8142 8142 8140 8139 8142 8142 8143 8142 8140 8141 8139 8135 8139 8139 8140 8139 8135 8132 8123 8123 8123 8122 8124 8134 8133 8134 8142 8143 8148 8146 8147 8142 
8107 8114 8113 8113 8115 8116 8115 8110 8107 8107 8106 8108 8111 8112 8112 8115 8117 8118 8122 8121 8124 8126 8127 8131 8137 8143 8148 8152 8153 8149 8147 8151 8152 8151 8149 8153 8152 8154 8154 8150 8150 8150 8148 8149 8140 8141 8140 8140 8143 8140 8139 8142 8147 8143 8145 8142 8145 8140 8139 8138 8141 8138 8139 8136 8132 8134 8126 8120 8123 8121 8124 8129 8133 8135 8140 8142 8145 8143 8144 8142 
8118 8119 8115 8119 8121 8120 8120 8110 8110 8111 8109 8112 8115 8110 8111 8116 8119 8123 8124 8122 8127 8132 8131 8138 8137 8144 8149 8153 8152 8152 8153 8154 8157 8154 8152 8154 8156 8154 8154 8153 8155 8156 8150 8148 8143 8142 8146 8143 8145 8141 8143 8141 8145 8144 8147 8142 8148 8144 8142 8143 8139 8139 8137 8138 8133 8135 8128 8122 8122 8123 8123 8130 8129 8134 8136 8138 8142 8145 8146 8134 
8118 8126 8121 8121 8126 8122 8119 8114 8112 8112 8115 8117 8119 8114 8115 8119 8125 8122 8125 8125 8125 8131 8132 8134 8137 8149 8149 8153 8154 8155 8155 8157 8161 8156 8151 8155 8154 8152 8151 8155 8151 8152 8152 8148 8143 8140 8142 8145 8144 8144 8142 8140 8144 8144 8145 8143 8142 8143 8141 8142 8138 8135 8140 8136 8134 8135 8128 8120 8121 8117 8118 8127 8127 8130 8135 8137 8137 8137 8135 8128 
8123 8129 8127 8128 8132 8129 8129 8124 8118 8120 8120 8122 8122 8119 8119 8122 8123 8123 8124 8127 8130 8131 8134 8137 8140 8150 8149 8157 8158 8158 8159 8160 8161 8158 8158 8159 8156 8153 8151 8158 8156 8155 8150 8152 8145 8141 8138 8135 8138 8140 8141 8145 8144 8146 8144 8144 8146 8141 8142 8138 8139 8136 8138 8137 8136 8136 8131 8123 8116 8114 8115 8117 8120 8124 8129 8130 8132 8133 8126 8121 
8125 8133 8132 8134 8138 8136 8135 8129 8124 8121 8122 8122 8120 8118 8121 8122 8122 8123 8126 8127 8132 8133 8141 8140 8145 8151 8155 8158 8163 8161 8161 8160 8160 8158 8159 8159 8158 8154 8154 8157 8162 8156 8154 8150 8143 8140 8134 8125 8116 8131 8142 8143 8143 8146 8147 8143 8145 8141 8140 8139 8142 8140 8139 8134 8133 8133 8131 8122 8108 8106 8110 8111 8112 8117 8119 8119 8121 8115 8113 8118 
8127 8136 8136 8134 8135 8135 8136 8133 8127 8127 8127 8124 8122 8119 8121 8122 8126 8125 8127 8133 8134 8137 8143 8147 8144 8155 8158 8160 8163 8163 8162 8161 8162 8159 8156 8156 8159 8150 8153 8157 8159 8155 8155 8154 8143 8143 8140 8124 8119 8123 8136 8143 8143 8146 8150 8146 8146 8144 8144 8140 8144 8140 8143 8140 8134 8133 8131 8118 8099 8091 8092 8099 8099 8101 8104 8105 8109 8112 8112 8114 
8130 8135 8135 8134 8137 8139 8137 8132 8128 8126 8126 8122 8124 8121 8121 8124 8128 8127 8127 8134 8137 8139 8143 8147 8144 8154 8157 8164 8162 8165 8163 8160 8162 8160 8165 8163 8159 8146 8152 8155 8161 8154 8154 8153 8147 8141 8141 8129 8132 8120 8120 8136 8145 8149 8152 8149 8146 8143 8145 8145 8144 8140 8141 8137 8135 8135 8132 8124 8093 8087 8089 8093 8092 8096 8101 8104 8113 8116 8119 8121 
8130 8136 8134 8138 8138 8137 8135 8132 8128 8127 8124 8128 8123 8120 8123 8125 8129 8131 8132 8136 8139 8141 8141 8144 8145 8156 8159 8165 8166 8169 8164 8163 8167 8181 8184 8164 8159 8146 8152 8157 8156 8154 8151 8149 8144 8141 8142 8146 8147 8141 8130 8126 8137 8147 8154 8150 8151 8149 8145 8145 8145 8143 8143 8136 8136 8134 8128 8126 8106 8093 8097 8099 8102 8103 8110 8114 8118 8119 8120 8128 
8133 8139 8136 8134 8136 8136 8136 8132 8128 8129 8127 8126 8123 8127 8126 8127 8131 8136 8134 8137 8139 8142 8143 8147 8144 8154 8161 8173 8188 8191 8191 8187 8186 8185 8176 8158 8152 8138 8151 8155 8153 8148 8149 8149 8141 8145 8152 8155 8155 8152 8148 8136 8117 8146 8157 8152 8152 8150 8150 8149 8145 8145 8144 8140 8138 8132 8131 8128 8113 8103 8105 8107 8109 8110 8116 8121 8128 8126 8124 8124 
8135 8139 8135 8136 8133 8136 8136 8131 8131 8128 8127 8128 8126 8125 8130 8129 8135 8138 8138 8139 8141 8143 8142 8148 8149 8156 8163 8167 8168 8172 8163 8154 8148 8152 8149 8147 8149 8139 8152 8151 8155 8145 8138 8141 8157 8155 8150 8154 8153 8155 8151 8149 8143 8153 8155 8154 8153 8150 8149 8148 8149 8146 8145 8139 8136 8134 8129 8131 8123 8112 8111 8113 8114 8118 8123 8125 8129 8131 8125 8124 
8134 8137 8137 8138 8138 8136 8138 8135 8130 8128 8131 8129 8128 8127 8131 8133 8139 8143 8145 8143 8141 8142 8145 8147 8146 8156 8161 8161 8162 8159 8152 8139 8121 8116 8126 8139 8137 8131 8157 8143 8141 8123 8106 8134 8159 8148 8138 8151 8154 8152 8153 8152 8152 8155 8155 8150 8153 8149 8149 8148 8148 8146 8145 8141 8140 8138 8130 8132 8124 8117 8114 8114 8117 8119 8131 8129 8134 8135 8129 8128 
8137 8138 8137 8138 8140 8140 8138 8134 8130 8135 8134 8131 8130 8133 8136 8134 8136 8141 8145 8145 8143 8139 8141 8140 8146 8157 8160 8162 8159 8155 8136 8098 8090 8094 8112 8131 8130 8131 8137 8136 8128 8101 8096 8120 8149 8156 8149 8133 8149 8153 8152 8153 8153 8157 8154 8150 8152 8147 8146 8147 8147 8143 8145 8146 8142 8138 8133 8133 8128 8121 8114 8113 8118 8124 8127 8132 8134 8137 8131 8134 
8137 8139 8139 8143 8145 8143 8145 8136 8132 8134 8136 8136 8134 8134 8134 8138 8137 8136 8142 8140 8140 8140 8133 8113 8129 8154 8154 8160 8157 8147 8119 8117 8127 8109 8095 8121 8128 8123 8088 8106 8089 8079 8098 8123 8134 8176 8179 8149 8148 8154 8153 8152 8154 8153 8154 8148 8150 8150 8150 8146 8143 8140 8142 8143 8139 8141 8134 8135 8128 8123 8114 8114 8119 8126 8129 8131 8138 8136 8136 8132 
8139 8143 8139 8141 8145 8143 8142 8138 8137 8136 8141 8137 8137 8138 8136 8137 8137 8143 8144 8144 8142 8137 8120 8102 8097 8145 8155 8157 8162 8162 8166 8170 8167 8151 8118 8113 8109 8118 8109 8096 8092 8093 8111 8117 8112 8144 8156 8155 8156 8154 8154 8154 8152 8148 8151 8147 8149 8149 8147 8144 8142 8142 8142 8144 8141 8138 8134 8136 8129 8124 8115 8116 8120 8125 8128 8134 8139 8135 8134 8133 
8140 8142 8139 8141 8142 8142 8143 8139 8139 8143 8142 8142 8138 8136 8138 8137 8138 8142 8143 8142 8142 8133 8117 8118 8101 8132 8155 8157 8170 8184 8184 8181 8184 8167 8138 8117 8115 8123 8120 8102 8106 8114 8114 8113 8136 8143 8151 8154 8153 8155 8153 8152 8152 8151 8152 8147 8148 8149 8145 8143 8145 8144 8143 8140 8140 8141 8138 8132 8130 8127 8121 8122 8124 8126 8128 8132 8137 8136 8133 8133 
8143 8142 8138 8138 8143 8143 8145 8145 8144 8142 8145 8139 8138 8141 8140 8140 8140 8140 8140 8143 8139 8144 8131 8130 8140 8127 8141 8157 8169 8172 8176 8179 8180 8174 8160 8130 8111 8135 8135 8105 8107 8122 8146 8161 8170 8156 8145 8148 8153 8152 8150 8154 8154 8153 8155 8148 8150 8147 8148 8145 8147 8142 8140 8141 8142 8138 8135 8134 8131 8124 8125 8121 8126 8124 8123 8131 8136 8136 8133 8132 
8141 8144 8142 8143 8146 8145 8148 8146 8145 8142 8144 8144 8142 8141 8143 8139 8143 8142 8142 8142 8142 8149 8138 8151 8170 8154 8146 8150 8154 8163 8164 8167 8168 8160 8136 8104 8097 8136 8146 8102 8102 8140 8147 8142 8163 8148 8131 8140 8141 8144 8147 8152 8155 8152 8158 8151 8149 8148 8148 8148 8147 8145 8143 8145 8141 8140 8141 8137 8129 8128 8122 8121 8123 8123 8127 8130 8134 8135 8135 8132 
8145 8145 8141 8144 8144 8145 8146 8144 8143 8144 8145 8144 8143 8142 8142 8138 8143 8138 8142 8148 8169 8172 8169 8179 8140 8110 8122 8141 8147 8150 8144 8143 8130 8127 8117 8119 8119 8129 8127 8097 8091 8094 8117 8103 8113 8106 8124 8144 8148 8126 8137 8149 8153 8151 8156 8151 8151 8151 8147 8145 8149 8143 8147 8144 8143 8144 8139 8138 8133 8132 8128 8123 8120 8121 8125 8130 8131 8135 8132 8134 
8146 8144 8142 8142 8149 8148 8146 8147 8144 8144 8144 8145 8145 8144 8142 8141 8141 8141 8141 8137 8174 8162 8163 8153 8091 8096 8114 8127 8131 8129 8124 8115 8114 8111 8108 8126 8128 8127 8118 8099 8085 8088 8093 8079 8079 8097 8125 8139 8146 8129 8121 8146 8155 8148 8155 8153 8149 8149 8146 8145 8149 8144 8145 8144 8144 8144 8144 8143 8137 8130 8130 8125 8116 8121 8126 8130 8132 8134 8133 8129 
8147 8148 8144 8146 8150 8151 8145 8142 8145 8146 8146 8144 8142 8141 8142 8138 8139 8141 8142 8148 8167 8157 8144 8123 8095 8090 8108 8134 8128 8110 8110 8098 8105 8113 8112 8113 8110 8116 8112 8093 8089 8079 8078 8069 8087 8101 8100 8084 8109 8114 8116 8145 8150 8149 8150 8150 8148 8150 8148 8144 8145 8142 8144 8142 8145 8146 8143 8143 8136 8131 8128 8128 8118 8123 8128 8127 8131 8135 8135 8127 
8148 8149 8146 8150 8147 8146 8146 8145 8146 8146 8150 8144 8143 8143 8142 8141 8140 8140 8139 8141 8136 8138 8138 8137 8130 8099 8110 8108 8113 8103 8097 8083 8088 8104 8101 8109 8114 8111 8077 8073 8080 8070 8071 8069 8081 8087 8082 8076 8090 8096 8105 8131 8144 8143 8150 8150 8146 8146 8144 8131 8138 8143 8144 8144 8143 8144 8145 8145 8137 8132 8131 8129 8125 8120 8125 8125 8127 8134 8132 8130 
8151 8148 8148 8152 8151 8149 8146 8143 8145 8147 8151 8147 8143 8143 8143 8140 8141 8143 8141 8140 8126 8135 8141 8143 8138 8095 8070 8072 8080 8078 8076 8079 8081 8088 8100 8099 8107 8091 8075 8078 8081 8061 8057 8060 8083 8088 8085 8074 8078 8084 8107 8138 8144 8145 8150 8149 8150 8144 8129 8091 8114 8139 8143 8142 8144 8145 8146 8148 8139 8134 8130 8128 8127 8119 8125 8124 8129 8133 8133 8127 
8153 8155 8152 8153 8150 8152 8149 8148 8148 8149 8151 8146 8145 8145 8142 8143 8144 8144 8141 8143 8141 8140 8141 8143 8129 8080 8080 8079 8079 8083 8087 8084 8085 8081 8084 8095 8098 8088 8128 8149 8109 8074 8059 8060 8066 8067 8084 8085 8079 8081 8125 8144 8144 8144 8146 8149 8143 8123 8084 8083 8099 8133 8143 8143 8146 8146 8146 8146 8142 8134 8132 8131 8127 8123 8126 8124 8128 8128 8131 8131 
8153 8159 8154 8156 8153 8152 8152 8150 8149 8146 8152 8153 8150 8143 8145 8144 8143 8142 8142 8142 8142 8142 8143 8141 8121 8078 8088 8092 8087 8097 8097 8094 8091 8091 8099 8094 8095 8095 8125 8134 8097 8088 8078 8069 8057 8057 8075 8083 8079 8085 8121 8138 8140 8142 8145 8135 8108 8087 8086 8084 8096 8118 8140 8147 8144 8146 8148 8147 8144 8135 8135 8132 8131 8125 8127 8125 8125 8130 8131 8126 
8159 8158 8154 8156 8152 8156 8152 8151 8151 8153 8154 8155 8150 8146 8145 8147 8142 8142 8143 8143 8140 8142 8144 8147 8116 8080 8087 8086 8085 8106 8108 8097 8099 8098 8106 8094 8091 8095 8086 8095 8093 8091 8094 8081 8062 8062 8073 8078 8069 8075 8102 8099 8101 8118 8133 8120 8100 8094 8087 8086 8097 8106 8135 8147 8146 8145 8143 8146 8148 8139 8134 8133 8128 8126 8125 8122 8127 8127 8131 8130 
8162 8164 8158 8157 8154 8158 8152 8156 8152 8155 8155 8156 8152 8147 8146 8146 8144 8146 8145 8143 8142 8142 8143 8145 8123 8088 8088 8087 8088 8107 8116 8110 8109 8107 8112 8097 8091 8097 8103 8102 8079 8084 8097 8082 8076 8076 8085 8082 8077 8081 8086 8081 8083 8096 8137 8145 8139 8106 8092 8090 8095 8104 8130 8144 8145 8145 8147 8149 8146 8140 8135 8136 8135 8130 8122 8125 8129 8128 8132 8133 
8161 8164 8159 8159 8159 8162 8161 8158 8157 8159 8156 8156 8152 8148 8149 8147 8151 8148 8148 8146 8146 8145 8145 8147 8140 8128 8095 8090 8097 8100 8101 8104 8106 8111 8111 8104 8097 8091 8116 8093 8081 8078 8094 8091 8084 8085 8090 8084 8085 8092 8093 8083 8078 8084 8106 8142 8150 8140 8101 8090 8100 8109 8129 8141 8146 8147 8147 8147 8149 8144 8138 8138 8139 8137 8130 8131 8131 8133 8135 8132 
8166 8168 8162 8164 8164 8166 8168 8162 8160 8161 8162 8160 8160 8153 8154 8153 8149 8149 8150 8149 8148 8148 8149 8153 8152 8155 8120 8099 8100 8087 8088 8100 8109 8114 8111 8105 8095 8112 8106 8081 8075 8094 8115 8121 8109 8113 8107 8092 8109 8103 8104 8092 8085 8088 8095 8125 8150 8149 8119 8095 8096 8105 8122 8141 8146 8148 8148 8152 8153 8153 8146 8144 8143 8144 8140 8132 8138 8136 8134 8132 
8180 8181 8178 8175 8175 8178 8176 8173 8175 8178 8176 8173 8170 8167 8167 8167 8163 8166 8165 8160 8160 8157 8161 8162 8163 8163 8133 8120 8096 8077 8087 8099 8104 8110 8113 8093 8089 8102 8080 8076 8079 8079 8104 8129 8129 8134 8118 8104 8113 8118 8130 8101 8090 8091 8095 8127 8148 8148 8130 8095 8094 8101 8119 8139 8148 8151 8152 8164 8168 8172 8165 8162 8161 8159 8155 8134 8135 8131 8131 8135 
8199 8202 8200 8200 8195 8199 8199 8197 8198 8195 8196 8191 8187 8188 8187 8185 8187 8186 8182 8179 8172 8174 8177 8176 8178 8163 8121 8127 8100 8091 8094 8110 8106 8101 8078 8078 8101 8085 8080 8081 8079 8090 8101 8094 8107 8118 8117 8115 8121 8137 8135 8117 8105 8090 8082 8085 8125 8146 8140 8103 8094 8097 8118 8141 8144 8151 8155 8172 8185 8189 8186 8181 8180 8176 8170 8139 8133 8135 8132 8132 
8216 8220 8215 8214 8215 8215 8217 8216 8214 8213 8210 8207 8203 8200 8200 8201 8199 8198 8196 8189 8185 8183 8183 8183 8185 8158 8118 8108 8106 8099 8086 8090 8088 8077 8069 8088 8092 8086 8087 8087 8093 8104 8098 8094 8093 8098 8113 8122 8113 8121 8140 8120 8115 8096 8082 8071 8081 8137 8147 8120 8097 8102 8123 8145 8149 8152 8161 8178 8192 8201 8195 8190 8185 8180 8178 8149 8138 8139 8136 8136 
8231 8234 8224 8226 8225 8226 8229 8225 8221 8218 8219 8216 8210 8211 8210 8207 8205 8202 8205 8200 8191 8186 8182 8185 8186 8138 8092 8098 8107 8104 8094 8068 8075 8073 8072 8085 8087 8086 8087 8093 8099 8104 8100 8088 8096 8107 8111 8118 8126 8120 8135 8138 8118 8101 8092 8076 8078 8133 8150 8148 8139 8132 8141 8151 8151 8159 8167 8187 8202 8206 8202 8198 8190 8187 8182 8159 8139 8136 8136 8135 
8239 8240 8228 8229 8230 8232 8233 8227 8228 8227 8225 8222 8218 8213 8213 8210 8210 8208 8205 8201 8189 8187 8188 8188 8186 8122 8089 8097 8097 8088 8091 8088 8092 8089 8083 8079 8087 8082 8086 8088 8093 8098 8096 8092 8100 8129 8099 8116 8124 8111 8115 8145 8148 8136 8113 8085 8082 8133 8150 8154 8159 8153 8153 8152 8159 8167 8176 8193 8201 8209 8207 8198 8190 8187 8187 8168 8144 8138 8132 8133 
8244 8246 8237 8236 8237 8236 8236 8233 8231 8229 8228 8227 8220 8217 8219 8215 8214 8211 8212 8205 8196 8194 8191 8190 8184 8122 8089 8079 8085 8088 8095 8093 8108 8115 8089 8074 8086 8083 8079 8083 8090 8089 8094 8091 8091 8125 8132 8129 8123 8106 8095 8135 8148 8152 8151 8116 8096 8140 8156 8162 8162 8164 8163 8172 8175 8182 8189 8201 8206 8212 8211 8204 8193 8189 8188 8180 8149 8139 8134 8132 
8246 8246 8245 8241 8240 8242 8238 8235 8234 8233 8231 8227 8226 8219 8216 8214 8215 8212 8211 8207 8201 8195 8193 8190 8181 8119 8086 8077 8082 8075 8079 8093 8113 8116 8091 8072 8074 8077 8074 8081 8084 8087 8091 8092 8088 8128 8147 8148 8138 8112 8098 8106 8141 8147 8145 8144 8144 8159 8168 8170 8172 8175 8181 8185 8189 8195 8199 8206 8206 8214 8214 8205 8197 8191 8188 8184 8157 8140 8133 8135 
8251 8250 8245 8244 8244 8239 8240 8238 8232 8232 8231 8230 8223 8221 8220 8217 8215 8214 8214 8214 8211 8193 8190 8190 8179 8166 8126 8088 8089 8089 8100 8111 8110 8114 8096 8082 8080 8079 8073 8074 8077 8082 8087 8090 8108 8143 8145 8148 8147 8142 8134 8123 8109 8108 8106 8116 8152 8174 8181 8185 8189 8188 8197 8196 8196 8200 8202 8209 8211 8216 8211 8211 8199 8194 8191 8187 8164 8140 8134 8134 
8254 8251 8245 8246 8243 8245 8245 8239 8236 8234 8231 8228 8228 8225 8220 8219 8216 8216 8215 8217 8209 8192 8182 8180 8168 8168 8136 8110 8107 8106 8111 8118 8114 8110 8100 8109 8119 8122 8077 8071 8070 8076 8080 8095 8138 8147 8150 8148 8150 8146 8134 8119 8107 8105 8110 8109 8130 8183 8193 8195 8196 8200 8202 8203 8201 8202 8205 8214 8214 8213 8216 8210 8206 8194 8190 8188 8171 8140 8136 8138 
8253 8254 8245 8243 8242 8243 8241 8237 8235 8237 8234 8231 8229 8228 8225 8219 8217 8215 8216 8217 8208 8191 8178 8175 8164 8163 8142 8127 8134 8122 8113 8115 8111 8103 8105 8143 8149 8146 8100 8067 8060 8075 8084 8127 8149 8151 8151 8148 8148 8149 8127 8116 8115 8112 8114 8113 8118 8176 8200 8197 8204 8204 8205 8206 8208 8208 8210 8213 8213 8214 8215 8211 8204 8194 8192 8188 8177 8149 8136 8136 
8252 8252 8246 8241 8242 8244 8242 8239 8240 8236 8233 8234 8228 8227 8224 8218 8220 8215 8216 8214 8207 8191 8179 8175 8164 8170 8161 8136 8126 8121 8116 8112 8113 8107 8120 8157 8155 8154 8143 8087 8079 8101 8128 8151 8152 8153 8152 8151 8149 8147 8119 8117 8117 8116 8116 8114 8119 8171 8199 8200 8208 8208 8209 8205 8206 8209 8207 8210 8212 8215 8213 8210 8202 8194 8191 8188 8182 8151 8137 8136 
8250 8250 8241 8241 8240 8242 8241 8238 8239 8233 8232 8235 8230 8227 8225 8221 8219 8219 8216 8214 8211 8195 8182 8177 8169 8171 8172 8142 8123 8121 8120 8122 8119 8127 8150 8163 8156 8157 8155 8150 8148 8152 8152 8158 8155 8152 8152 8151 8149 8145 8120 8119 8117 8119 8119 8117 8118 8170 8200 8206 8208 8211 8210 8209 8205 8206 8204 8204 8206 8208 8210 8210 8205 8199 8191 8193 8182 8158 8141 8141 
8250 8248 8242 8239 8241 8240 8241 8238 8239 8235 8235 8232 8228 8229 8226 8223 8223 8221 8215 8214 8212 8197 8183 8180 8172 8177 8183 8141 8107 8122 8128 8133 8154 8169 8165 8164 8160 8158 8155 8157 8157 8156 8157 8159 8159 8154 8152 8149 8150 8148 8128 8115 8117 8119 8121 8122 8121 8172 8203 8207 8209 8209 8209 8204 8201 8202 8201 8202 8202 8209 8207 8210 8212 8204 8197 8191 8186 8166 8143 8144 
8247 8249 8239 8239 8240 8240 8237 8237 8235 8232 8232 8230 8228 8228 8226 8222 8223 8219 8219 8220 8215 8198 8187 8184 8178 8182 8189 8145 8102 8141 8159 8173 8178 8176 8169 8163 8163 8160 8161 8161 8161 8162 8163 8167 8158 8157 8152 8152 8150 8147 8140 8121 8120 8117 8121 8123 8135 8181 8199 8209 8209 8203 8206 8203 8201 8201 8199 8202 8203 8204 8208 8211 8212 8218 8212 8198 8182 8163 8146 8143 
8242 8240 8232 8235 8234 8233 8237 8233 8236 8234 8232 8232 8229 8226 8229 8222 8226 8222 8218 8218 8215 8205 8189 8189 8184 8189 8192 8184 8169 8182 8183 8183 8183 8176 8171 8171 8168 8166 8164 8163 8166 8167 8167 8168 8167 8159 8152 8152 8151 8148 8146 8145 8139 8133 8134 8140 8156 8182 8193 8204 8203 8200 8204 8202 8199 8197 8198 8198 8201 8202 8205 8210 8216 8225 8221 8198 8176 8166 8151 8148 
8226 8226 8219 8216 8219 8221 8222 8222 8226 8226 8226 8229 8227 8225 8220 8222 8221 8219 8219 8216 8214 8210 8199 8191 8188 8196 8194 8193 8194 8187 8185 8180 8178 8179 8177 8179 8173 8169 8167 8167 8169 8171 8170 8171 8165 8158 8155 8152 8151 8149 8147 8153 8155 8156 8160 8158 8163 8173 8188 8197 8202 8196 8197 8196 8193 8190 8188 8188 8188 8193 8194 8198 8210 8216 8208 8191 8174 8166 8151 8150 
8214 8208 8206 8201 8205 8206 8208 8207 8213 8215 8216 8217 8214 8217 8213 8215 8214 8215 8215 8212 8216 8214 8206 8193 8190 8201 8197 8196 8191 8185 8178 8178 8175 8175 8179 8179 8178 8176 8174 8174 8172 8173 8173 8170 8163 8160 8154 8156 8151 8149 8152 8154 8158 8158 8162 8158 8161 8166 8182 8190 8194 8192 8189 8183 8180 8179 8177 8175 8174 8177 8180 8186 8194 8194 8191 8178 8171 8161 8149 8150 
8203 8199 8194 8193 8191 8193 8196 8193 8195 8198 8203 8202 8202 8203 8204 8202 8204 8205 8205 8207 8210 8210 8208 8209 8201 8212 8197 8188 8182 8177 8174 8173 8177 8181 8181 8181 8178 8180 8177 8178 8174 8172 8172 8175 8165 8159 8158 8156 8156 8153 8153 8155 8158 8154 8165 8157 8162 8165 8177 8182 8182 8176 8176 8173 8170 8167 8171 8170 8169 8168 8175 8177 8183 8183 8179 8173 8167 8160 8157 8162 
8190 8190 8188 8186 8184 8186 8182 8186 8182 8185 8183 8186 8185 8186 8186 8187 8187 8190 8194 8194 8195 8198 8202 8206 8204 8208 8194 8187 8178 8172 8168 8167 8174 8179 8180 8182 8173 8173 8180 8178 8177 8174 8175 8177 8169 8162 8159 8158 8157 8157 8151 8155 8159 8162 8163 8160 8163 8166 8173 8172 8173 8169 8163 8162 8161 8160 8163 8167 8164 8166 8169 8174 8177 8181 8178 8175 8170 8159 8173 8181 
8186 8187 8181 8180 8182 8179 8179 8175 8172 8175 8172 8176 8172 8171 8171 8169 8174 8174 8177 8180 8185 8183 8189 8191 8192 8194 8189 8185 8177 8174 8168 8170 8175 8176 8180 8178 8176 8172 8174 8176 8179 8176 8175 8177 8171 8165 8164 8160 8158 8157 8158 8157 8162 8162 8162 8163 8167 8166 8167 8167 8166 8162 8158 8157 8154 8158 8158 8160 8160 8164 8170 8176 8176 8181 8187 8188 8175 8167 8196 8192 
8186 8184 8180 8180 8177 8176 8175 8174 8167 8169 8168 8170 8165 8163 8159 8163 8163 8166 8165 8167 8171 8175 8177 8182 8179 8186 8183 8179 8175 8174 8170 8171 8175 8177 8182 8183 8175 8173 8174 8176 8180 8179 8178 8176 8172 8168 8170 8165 8164 8159 8157 8161 8166 8166 8167 8159 8166 8166 8163 8166 8164 8159 8156 8156 8153 8156 8158 8160 8163 8167 8170 8176 8181 8184 8190 8198 8180 8173 8206 8204 
8188 8190 8187 8184 8180 8181 8176 8175 8169 8168 8165 8166 8162 8161 8160 8157 8157 8160 8160 8160 8163 8165 8169 8172 8172 8175 8179 8177 8174 8170 8169 8176 8179 8175 8185 8183 8178 8177 8172 8172 8176 8177 8175 8178 8171 8169 8170 8168 8167 8164 8163 8163 8165 8166 8165 8163 8165 8160 8163 8164 8165 8161 8157 8155 8152 8153 8153 8162 8165 8166 8170 8180 8183 8185 8191 8196 8177 8171 8216 8215 
8192 8194 8191 8191 8186 8184 8180 8180 8174 8172 8171 8166 8163 8158 8160 8158 8159 8155 8156 8156 8162 8161 8166 8169 8168 8172 8174 8177 8174 8171 8171 8171 8175 8173 8173 8175 8175 8174 8175 8175 8175 8171 8172 8177 8171 8170 8170 8169 8166 8165 8164 8165 8168 8166 8168 8163 8166 8162 8161 8161 8158 8160 8159 8156 8156 8154 8156 8162 8164 8167 8174 8183 8181 8185 8182 8177 8164 8169 8222 8219 
8197 8198 8190 8190 8188 8186 8183 8180 8175 8176 8173 8173 8165 8164 8160 8157 8159 8159 8158 8157 8162 8161 8159 8165 8164 8171 8175 8174 8176 8173 8170 8172 8174 8170 8172 8173 8177 8172 8173 8177 8176 8173 8172 8173 8171 8173 8171 8169 8167 8166 8165 8164 8166 8166 8170 8164 8167 8161 8161 8162 8163 8162 8163 8157 8155 8156 8158 8162 8164 8168 8170 8175 8176 8177 8176 8171 8163 8174 8223 8227 
8199 8202 8194 8192 8187 8186 8183 8179 8174 8176 8175 8175 8172 8170 8166 8161 8161 8161 8159 8158 8160 8161 8162 8163 8162 8165 8171 8174 8176 8175 8169 8171 8171 8167 8168 8169 8171 8169 8173 8174 8175 8173 8173 8177 8176 8175 8168 8170 8168 8166 8161 8162 8164 8166 8166 8160 8160 8160 8162 8162 8160 8159 8158 8157 8154 8157 8158 8162 8160 8165 8169 8171 8172 8174 8174 8176 8188 8228 8236 8230 
8203 8204 8195 8191 8186 8188 8182 8181 8177 8179 8177 8175 8170 8169 8169 8164 8163 8164 8161 8163 8164 8164 8168 8166 8167 8166 8170 8176 8178 8176 8168 8169 8172 8169 8167 8170 8170 8167 8170 8169 8175 8170 8170 8174 8172 8169 8168 8167 8166 8165 8164 8159 8161 8163 8161 8154 8158 8159 8158 8157 8158 8157 8155 8151 8150 8154 8149 8160 8160 8164 8165 8170 8174 8179 8196 8222 8236 8241 8236 8231 
8203 8202 8192 8185 8185 8185 8183 8183 8175 8179 8176 8176 8168 8173 8170 8166 8168 8166 8167 8169 8167 8169 8170 8173 8172 8178 8178 8183 8181 8182 8173 8170 8167 8166 8164 8170 8170 8171 8170 8172 8177 8169 8169 8170 8169 8167 8166 8165 8166 8162 8160 8159 8160 8156 8156 8152 8153 8153 8156 8152 8154 8149 8148 8141 8141 8141 8143 8150 8151 8169 8192 8201 8204 8217 8233 8236 8233 8235 8231 8225 
8202 8198 8190 8186 8184 8184 8181 8175 8176 8174 8177 8172 8171 8171 8168 8167 8167 8165 8168 8167 8171 8173 8173 8176 8173 8183 8182 8187 8187 8185 8176 8168 8168 8165 8168 8169 8171 8172 8171 8170 8177 8174 8169 8170 8164 8165 8164 8163 8164 8160 8157 8160 8155 8157 8153 8149 8150 8149 8148 8145 8141 8134 8133 8127 8121 8123 8129 8134 8145 8172 8207 8221 8225 8231 8239 8235 8220 8222 8225 8218 
8206 8199 8189 8185 8188 8184 8185 8178 8176 8177 8178 8172 8173 8176 8174 8171 8173 8173 8174 8178 8175 8177 8180 8183 8184 8187 8189 8190 8190 8191 8181 8175 8171 8165 8169 8173 8174 8175 8179 8176 8177 8173 8172 8172 8164 8165 8165 8158 8161 8159 8155 8156 8156 8150 8145 8138 8140 8130 8125 8122 8118 8111 8112 8110 8112 8122 8127 8137 8146 8167 8207 8222 8218 8222 8227 8215 8216 8208 8205 8213 


