P2
80 60
8362
8278 8280 8290 8295 8302 8303 8303 8306 8302 8298 8296 8300 8310 8310 8312 8316 8319 8326 8328 8322 8322 8311 8307 8313 8312 8304 8299 8289 8275 8262 8258 8255 8251 8252 8250 8249 8250 8255 8250 8247 8235 8231 8229 8231 8249 8286 8302 8306 8307 8307 8308 8310 8310 8309 8309 8309 8309 8312 8314 8311 8311 8313 8312 8311 8312 8320 8325 8327 8328 8329 8326 8324 8326 8328 8328 8334 8336 8341 8348 8354 
8283 8277 8278 8289 8284 8284 8277 8270 8267 8270 8275 8278 8284 8291 8302 8311 8314 8316 8316 8317 8312 8303 8302 8298 8303 8298 8297 8294 8286 8286 8285 8286 8288 8291 8303 8300 8308 8310 8314 8308 8303 8303 8301 8292 8295 8305 8312 8312 8316 8314 8317 8317 8316 8312 8311 8311 8311 8316 8314 8311 8312 8314 8311 8311 8311 8310 8312 8313 8325 8325 8326 8324 8323 8324 8326 8333 8338 8345 8352 8349 
8270 8259 8262 8261 8260 8264 8266 8264 8267 8269 8273 8277 8283 8284 8293 8297 8300 8301 8295 8292 8288 8289 8288 8293 8294 8295 8299 8296 8297 8299 8298 8302 8305 8314 8319 8324 8323 8329 8330 8326 8328 8330 8330 8334 8333 8330 8331 8326 8325 8322 8323 8324 8321 8316 8314 8316 8317 8320 8319 8312 8317 8319 8316 8314 8314 8312 8310 8315 8321 8324 8326 8324 8322 8324 8325 8334 8341 8350 8355 8354 
8267 8267 8267 8273 8274 8277 8279 8279 8284 8281 8279 8279 8278 8286 8293 8294 8297 8297 8292 8288 8286 8287 8288 8293 8295 8299 8301 8303 8299 8302 8303 8307 8313 8320 8323 8327 8330 8333 8332 8326 8326 8330 8338 8337 8337 8337 8334 8329 8326 8328 8326 8326 8325 8317 8316 8318 8316 8319 8318 8317 8318 8319 8317 8318 8316 8317 8312 8315 8317 8322 8320 8319 8320 8322 8327 8330 8345 8356 8355 8355 
8274 8272 8280 8279 8282 8283 8288 8284 8285 8286 8280 8284 8283 8293 8297 8295 8297 8295 8293 8292 8287 8285 8291 8293 8296 8298 8301 8303 8297 8307 8306 8312 8319 8320 8324 8328 8329 8331 8335 8327 8329 8335 8338 8341 8339 8335 8334 8331 8329 8329 8328 8330 8326 8320 8319 8319 8317 8318 8320 8319 8320 8321 8317 8316 8319 8316 8315 8315 8316 8321 8318 8320 8319 8322 8325 8336 8346 8355 8358 8362 
8278 8275 8281 8288 8290 8293 8297 8296 8292 8291 8279 8288 8290 8291 8294 8292 8296 8293 8290 8286 8287 8289 8289 8293 8295 8295 8295 8295 8296 8303 8303 8314 8313 8321 8326 8326 8327 8329 8332 8330 8332 8333 8336 8340 8337 8332 8332 8329 8332 8331 8330 8328 8330 8320 8317 8313 8314 8319 8321 8320 8321 8319 8316 8318 8316 8317 8314 8316 8316 8318 8319 8319 8320 8325 8327 8338 8348 8354 8355 8356 
8279 8279 8285 8290 8289 8294 8296 8294 8293 8289 8289 8293 8293 8292 8297 8296 8293 8289 8288 8289 8286 8288 8291 8296 8295 8295 8297 8298 8295 8301 8302 8308 8316 8317 8322 8322 8324 8326 8327 8328 8333 8336 8339 8340 8336 8330 8333 8331 8333 8328 8331 8328 8328 8318 8315 8314 8314 8318 8316 8315 8318 8318 8318 8318 8315 8317 8317 8315 8314 8316 8316 8315 8319 8326 8330 8341 8349 8351 8354 8350 
8285 8285 8286 8292 8291 8295 8295 8293 8293 8291 8294 8295 8299 8298 8299 8295 8293 8290 8287 8288 8284 8286 8288 8290 8295 8292 8294 8292 8289 8297 8300 8308 8314 8317 8316 8318 8320 8322 8324 8325 8327 8331 8336 8337 8333 8333 8331 8331 8328 8325 8327 8327 8322 8314 8314 8312 8316 8315 8315 8314 8316 8313 8315 8316 8314 8315 8317 8314 8315 8317 8317 8314 8319 8323 8332 8342 8350 8351 8346 8349 
8282 8288 8288 8291 8290 8293 8296 8296 8297 8298 8298 8299 8298 8298 8299 8292 8286 8286 8284 8286 8284 8284 8287 8290 8291 8292 8288 8288 8292 8296 8301 8310 8314 8315 8316 8319 8318 8320 8323 8327 8330 8330 8334 8333 8335 8333 8331 8328 8328 8325 8321 8323 8320 8317 8313 8311 8309 8314 8312 8313 8316 8316 8317 8315 8315 8317 8317 8316 8313 8312 8314 8313 8317 8326 8337 8346 8349 8349 8345 8346 
8287 8285 8287 8291 8290 8297 8297 8300 8303 8300 8299 8295 8296 8293 8291 8286 8284 8283 8284 8281 8283 8284 8286 8290 8290 8290 8287 8291 8291 8298 8300 8309 8308 8316 8316 8318 8321 8321 8321 8325 8327 8334 8331 8330 8329 8329 8326 8324 8322 8315 8317 8315 8317 8314 8312 8308 8311 8314 8313 8313 8312 8317 8315 8315 8316 8313 8314 8314 8313 8313 8311 8314 8320 8330 8339 8347 8345 8343 8343 8343 
8289 8289 8287 8290 8288 8293 8297 8298 8299 8295 8298 8296 8294 8293 8289 8283 8282 8281 8280 8282 8282 8288 8286 8291 8291 8288 8288 8292 8294 8298 8301 8309 8311 8315 8316 8316 8320 8318 8322 8324 8331 8333 8330 8306 8287 8301 8312 8314 8298 8251 8285 8292 8300 8301 8312 8316 8315 8319 8317 8313 8315 8314 8314 8316 8315 8314 8316 8313 8310 8314 8311 8318 8323 8336 8342 8345 8343 8337 8341 8342 
8296 8293 8287 8287 8285 8290 8296 8298 8298 8301 8298 8297 8293 8294 8287 8284 8283 8281 8282 8280 8283 8286 8292 8294 8292 8288 8289 8292 8294 8298 8304 8307 8313 8317 8315 8319 8318 8320 8321 8324 8329 8329 8327 8249 8176 8184 8212 8249 8267 8164 8176 8180 8196 8232 8296 8315 8319 8321 8319 8314 8315 8317 8314 8314 8313 8315 8311 8311 8310 8312 8313 8323 8330 8338 8340 8343 8338 8338 8342 8346 
8301 8294 8289 8287 8285 8295 8293 8296 8294 8297 8295 8294 8292 8290 8287 8280 8282 8282 8282 8284 8288 8287 8290 8292 8292 8289 8293 8294 8295 8300 8304 8310 8312 8310 8314 8315 8314 8317 8320 8322 8326 8326 8326 8284 8171 8152 8152 8163 8183 8154 8160 8158 8158 8187 8284 8314 8319 8324 8319 8319 8316 8316 8315 8317 8310 8310 8310 8312 8310 8310 8314 8325 8332 8338 8341 8342 8335 8337 8342 8339 
8303 8294 8289 8285 8290 8294 8294 8293 8291 8291 8295 8292 8291 8287 8284 8282 8280 8283 8284 8285 8287 8290 8292 8294 8290 8290 8290 8292 8293 8297 8302 8309 8309 8308 8310 8310 8313 8314 8315 8320 8321 8321 8320 8305 8205 8155 8153 8151 8157 8161 8172 8154 8164 8225 8275 8300 8315 8321 8320 8319 8317 8318 8317 8314 8316 8315 8312 8312 8309 8309 8310 8323 8331 8338 8337 8337 8331 8338 8343 8342 
8303 8288 8289 8287 8287 8289 8293 8292 8291 8292 8293 8290 8288 8284 8281 8282 8280 8282 8284 8287 8285 8287 8292 8296 8287 8287 8288 8288 8290 8296 8303 8307 8306 8305 8307 8307 8307 8312 8314 8306 8260 8263 8272 8263 8265 8165 8151 8152 8181 8209 8175 8152 8159 8162 8182 8232 8283 8309 8316 8317 8318 8319 8319 8320 8317 8318 8314 8314 8310 8308 8311 8324 8332 8335 8336 8332 8330 8335 8344 8347 
8301 8289 8282 8282 8279 8283 8286 8286 8287 8293 8288 8287 8282 8279 8278 8278 8277 8280 8283 8281 8286 8283 8287 8290 8285 8283 8286 8286 8288 8289 8296 8299 8301 8296 8300 8299 8302 8304 8306 8300 8206 8158 8157 8158 8176 8181 8166 8173 8218 8183 8161 8155 8156 8157 8161 8170 8213 8293 8309 8311 8312 8311 8312 8316 8319 8320 8316 8317 8313 8310 8312 8325 8330 8338 8330 8326 8334 8335 8346 8342 
8291 8284 8274 8273 8273 8274 8281 8279 8282 8283 8283 8279 8278 8274 8273 8276 8277 8276 8279 8277 8282 8282 8285 8282 8281 8282 8281 8282 8285 8287 8290 8294 8292 8291 8288 8295 8295 8299 8297 8290 8260 8166 8148 8151 8150 8154 8165 8249 8247 8218 8189 8167 8161 8171 8182 8214 8261 8296 8303 8306 8305 8308 8312 8315 8314 8318 8316 8317 8318 8317 8312 8326 8329 8331 8326 8323 8329 8338 8348 8346 
8286 8274 8268 8265 8271 8268 8273 8275 8279 8277 8277 8279 8275 8275 8276 8274 8274 8276 8276 8279 8281 8282 8281 8281 8280 8281 8282 8285 8283 8285 8289 8292 8288 8287 8282 8284 8289 8291 8288 8286 8279 8226 8156 8149 8152 8153 8155 8229 8209 8170 8198 8213 8221 8214 8264 8280 8287 8292 8292 8294 8298 8302 8303 8306 8307 8307 8306 8310 8313 8314 8313 8321 8331 8328 8318 8319 8319 8327 8348 8352 
8279 8265 8264 8263 8264 8269 8276 8273 8274 8273 8274 8274 8274 8276 8275 8274 8275 8272 8274 8278 8277 8279 8279 8282 8280 8280 8283 8284 8283 8282 8287 8286 8285 8280 8226 8213 8264 8278 8282 8281 8256 8196 8199 8168 8150 8154 8184 8229 8155 8151 8148 8142 8157 8183 8234 8270 8279 8286 8286 8292 8293 8295 8297 8298 8297 8300 8301 8304 8304 8305 8308 8316 8325 8317 8308 8305 8304 8315 8340 8346 
8274 8264 8260 8260 8263 8265 8275 8276 8274 8271 8273 8273 8274 8275 8276 8276 8275 8277 8277 8276 8278 8279 8281 8279 8281 8278 8284 8283 8280 8282 8287 8285 8283 8272 8191 8156 8188 8257 8276 8277 8265 8184 8169 8175 8186 8178 8189 8159 8142 8148 8137 8141 8150 8154 8161 8212 8264 8279 8283 8285 8285 8290 8293 8295 8294 8296 8297 8297 8301 8302 8303 8307 8316 8305 8290 8289 8295 8314 8338 8343 
8270 8263 8260 8261 8261 8264 8272 8269 8271 8270 8273 8274 8273 8273 8275 8277 8276 8279 8276 8276 8278 8279 8280 8283 8277 8277 8280 8276 8276 8278 8281 8281 8283 8269 8173 8151 8154 8170 8249 8264 8267 8215 8175 8188 8237 8259 8187 8150 8140 8135 8143 8142 8149 8151 8150 8160 8194 8261 8276 8281 8283 8286 8287 8290 8293 8297 8294 8297 8298 8301 8298 8295 8293 8286 8284 8291 8299 8319 8341 8342 
8267 8263 8262 8263 8262 8265 8266 8270 8269 8274 8274 8275 8275 8278 8279 8278 8281 8279 8275 8279 8278 8282 8283 8281 8278 8279 8279 8251 8224 8235 8253 8271 8277 8261 8170 8154 8154 8156 8186 8186 8229 8171 8169 8170 8183 8218 8171 8153 8152 8145 8151 8151 8148 8146 8143 8172 8216 8261 8272 8279 8280 8282 8285 8287 8288 8289 8290 8290 8290 8293 8291 8289 8293 8308 8311 8310 8311 8323 8337 8345 
8263 8263 8265 8266 8265 8265 8270 8269 8270 8274 8281 8282 8280 8281 8281 8280 8279 8278 8281 8278 8282 8282 8284 8282 8280 8281 8278 8224 8149 8148 8158 8182 8226 8253 8181 8155 8159 8155 8151 8157 8185 8174 8159 8166 8154 8153 8161 8168 8206 8174 8184 8161 8152 8147 8148 8152 8163 8210 8254 8273 8279 8279 8285 8284 8286 8288 8286 8286 8290 8288 8287 8285 8292 8332 8337 8334 8328 8332 8340 8348 
8263 8264 8268 8270 8272 8273 8270 8275 8272 8279 8279 8280 8283 8279 8279 8279 8280 8279 8280 8280 8281 8282 8281 8281 8280 8278 8277 8236 8148 8145 8150 8154 8154 8204 8166 8157 8164 8160 8154 8157 8151 8152 8167 8170 8160 8158 8166 8161 8157 8158 8158 8155 8156 8153 8150 8153 8153 8160 8190 8259 8277 8278 8281 8283 8282 8285 8284 8284 8284 8285 8285 8280 8286 8330 8352 8346 8339 8336 8343 8347 
8265 8264 8268 8275 8275 8274 8275 8273 8275 8278 8277 8281 8282 8281 8279 8280 8279 8281 8278 8280 8281 8278 8279 8277 8276 8275 8268 8255 8185 8146 8154 8157 8153 8159 8154 8159 8169 8171 8212 8180 8148 8151 8157 8156 8164 8151 8157 8153 8140 8139 8146 8149 8169 8156 8153 8155 8169 8201 8246 8269 8274 8278 8275 8276 8280 8284 8281 8284 8285 8280 8279 8278 8280 8309 8349 8352 8343 8338 8340 8345 
8269 8267 8269 8273 8273 8276 8276 8272 8273 8274 8277 8278 8281 8280 8278 8277 8279 8279 8280 8279 8279 8279 8276 8273 8269 8257 8218 8162 8178 8148 8154 8164 8158 8157 8161 8170 8171 8164 8175 8164 8140 8150 8162 8185 8176 8148 8152 8144 8139 8139 8142 8144 8181 8227 8220 8212 8256 8265 8274 8271 8258 8225 8236 8257 8274 8281 8283 8282 8283 8278 8279 8276 8275 8290 8336 8345 8341 8337 8341 8344 
8269 8265 8265 8273 8274 8278 8276 8275 8274 8273 8275 8277 8280 8281 8281 8279 8277 8274 8277 8280 8279 8275 8273 8252 8185 8156 8154 8146 8146 8154 8164 8164 8162 8167 8183 8182 8161 8155 8149 8145 8145 8150 8163 8186 8182 8189 8153 8145 8177 8161 8143 8147 8189 8262 8265 8268 8270 8275 8274 8262 8211 8205 8217 8227 8264 8279 8281 8282 8282 8281 8277 8274 8274 8282 8323 8335 8332 8332 8338 8341 
8268 8267 8269 8270 8274 8277 8281 8279 8275 8276 8278 8280 8280 8280 8279 8280 8278 8280 8279 8276 8276 8273 8261 8190 8140 8138 8145 8146 8151 8157 8153 8154 8151 8150 8179 8170 8156 8158 8147 8149 8152 8152 8153 8178 8185 8224 8169 8148 8238 8258 8205 8163 8182 8264 8281 8272 8273 8274 8263 8212 8205 8217 8227 8261 8275 8281 8282 8282 8284 8283 8282 8276 8275 8277 8304 8329 8331 8329 8336 8342 
8267 8265 8271 8271 8274 8279 8280 8278 8279 8279 8279 8280 8280 8281 8279 8278 8274 8277 8278 8276 8273 8261 8189 8138 8135 8139 8145 8146 8159 8178 8149 8152 8153 8150 8156 8152 8152 8153 8151 8175 8194 8156 8152 8157 8184 8212 8182 8155 8186 8241 8272 8264 8227 8278 8283 8284 8272 8266 8219 8207 8218 8231 8262 8278 8280 8280 8280 8279 8281 8281 8283 8279 8278 8277 8292 8324 8326 8329 8334 8338 
8267 8271 8271 8275 8276 8276 8281 8283 8282 8277 8279 8279 8277 8277 8278 8277 8275 8278 8276 8276 8270 8197 8139 8136 8139 8141 8149 8173 8228 8224 8163 8152 8152 8152 8156 8163 8153 8158 8152 8160 8210 8187 8158 8153 8167 8166 8162 8160 8168 8181 8251 8284 8308 8307 8292 8296 8277 8229 8215 8230 8238 8260 8277 8285 8284 8282 8281 8284 8280 8281 8283 8281 8279 8281 8289 8318 8327 8326 8332 8336 
8276 8274 8273 8277 8278 8283 8280 8281 8280 8280 8281 8278 8278 8278 8276 8277 8275 8277 8277 8275 8269 8227 8194 8177 8192 8155 8199 8244 8257 8233 8156 8152 8151 8154 8170 8182 8153 8156 8153 8161 8196 8185 8178 8172 8171 8161 8142 8143 8149 8187 8201 8261 8296 8319 8315 8288 8245 8226 8233 8241 8268 8278 8282 8284 8281 8284 8285 8284 8282 8282 8284 8285 8283 8283 8283 8315 8323 8322 8331 8329 
8281 8279 8280 8282 8281 8282 8282 8280 8279 8278 8275 8275 8273 8277 8277 8276 8276 8274 8275 8274 8274 8273 8270 8267 8248 8181 8255 8266 8273 8263 8177 8153 8152 8177 8204 8168 8153 8155 8155 8184 8195 8181 8153 8151 8160 8156 8147 8144 8145 8175 8181 8193 8261 8304 8319 8254 8231 8238 8246 8267 8277 8280 8283 8280 8281 8284 8285 8286 8286 8282 8288 8285 8286 8286 8288 8304 8320 8316 8324 8328 
8293 8283 8286 8284 8284 8282 8282 8281 8277 8277 8276 8274 8274 8275 8278 8275 8277 8276 8274 8274 8274 8275 8277 8273 8270 8261 8274 8275 8296 8299 8202 8156 8154 8207 8211 8159 8155 8154 8157 8181 8176 8148 8142 8147 8153 8169 8166 8146 8145 8143 8146 8161 8215 8286 8259 8236 8237 8246 8271 8279 8282 8283 8284 8290 8286 8287 8290 8287 8291 8289 8290 8291 8292 8291 8291 8302 8314 8312 8318 8321 
8292 8292 8291 8291 8286 8285 8282 8280 8277 8275 8275 8273 8274 8276 8275 8277 8274 8273 8273 8275 8275 8275 8276 8275 8273 8274 8270 8284 8322 8302 8235 8164 8177 8245 8230 8161 8160 8163 8158 8167 8150 8143 8144 8144 8148 8160 8175 8152 8154 8147 8144 8149 8163 8226 8229 8238 8241 8275 8282 8283 8283 8287 8287 8290 8288 8291 8292 8293 8292 8296 8297 8295 8293 8294 8290 8301 8313 8310 8314 8319 
8296 8294 8293 8290 8289 8287 8285 8280 8276 8276 8273 8274 8274 8275 8275 8276 8275 8277 8276 8274 8275 8274 8276 8273 8275 8270 8261 8294 8339 8287 8237 8194 8227 8260 8231 8165 8187 8192 8157 8155 8146 8143 8143 8148 8150 8154 8161 8153 8150 8150 8150 8149 8151 8166 8218 8245 8275 8283 8286 8287 8284 8288 8289 8293 8294 8293 8294 8296 8302 8302 8301 8298 8298 8297 8294 8298 8304 8306 8311 8313 
8298 8293 8293 8292 8287 8286 8284 8280 8275 8273 8277 8273 8275 8275 8274 8275 8275 8276 8277 8274 8273 8273 8276 8272 8274 8270 8260 8301 8338 8300 8261 8246 8248 8262 8249 8210 8220 8207 8159 8146 8143 8144 8140 8142 8144 8148 8159 8150 8146 8143 8147 8150 8155 8157 8206 8281 8299 8281 8287 8289 8287 8291 8293 8292 8293 8297 8297 8301 8302 8306 8305 8302 8304 8301 8295 8299 8305 8302 8306 8308 
8300 8296 8293 8294 8288 8283 8285 8278 8278 8272 8274 8274 8274 8275 8273 8277 8275 8279 8273 8274 8270 8273 8276 8272 8272 8271 8257 8296 8329 8302 8281 8257 8256 8259 8260 8253 8218 8201 8160 8147 8144 8144 8144 8147 8145 8150 8162 8147 8148 8146 8147 8155 8189 8209 8252 8287 8306 8291 8295 8291 8287 8292 8289 8292 8295 8297 8298 8301 8304 8308 8306 8305 8302 8307 8300 8300 8300 8301 8303 8302 
8300 8296 8293 8294 8288 8286 8284 8279 8276 8275 8275 8273 8270 8269 8272 8274 8274 8271 8275 8273 8274 8274 8272 8273 8271 8271 8258 8286 8312 8305 8275 8262 8263 8261 8256 8241 8211 8204 8177 8153 8146 8144 8141 8146 8151 8159 8170 8158 8157 8150 8149 8159 8225 8241 8259 8288 8310 8301 8299 8291 8290 8291 8288 8290 8294 8298 8296 8298 8302 8304 8306 8306 8304 8304 8302 8299 8296 8297 8296 8299 
8301 8295 8293 8294 8286 8285 8283 8277 8275 8276 8277 8268 8272 8273 8274 8272 8273 8273 8273 8273 8273 8271 8273 8273 8273 8268 8262 8277 8299 8304 8276 8264 8272 8267 8261 8245 8222 8225 8204 8168 8152 8146 8146 8152 8155 8153 8158 8149 8155 8157 8153 8156 8175 8234 8258 8292 8313 8306 8295 8290 8290 8290 8290 8292 8294 8297 8295 8300 8302 8303 8306 8302 8301 8304 8301 8299 8293 8294 8299 8300 
8301 8299 8295 8290 8288 8283 8282 8276 8273 8275 8275 8270 8271 8271 8269 8269 8272 8270 8269 8272 8273 8270 8274 8272 8271 8269 8265 8272 8292 8296 8292 8280 8279 8276 8271 8254 8242 8236 8202 8169 8154 8150 8152 8158 8155 8151 8154 8148 8158 8153 8157 8161 8165 8204 8269 8311 8323 8309 8292 8285 8289 8288 8292 8291 8293 8297 8298 8298 8299 8301 8304 8304 8302 8304 8300 8299 8291 8296 8298 8296 
8300 8297 8296 8289 8281 8282 8277 8275 8275 8274 8269 8270 8273 8268 8269 8271 8270 8272 8270 8269 8275 8270 8274 8269 8272 8269 8267 8264 8291 8295 8298 8295 8298 8297 8291 8266 8252 8240 8227 8186 8155 8150 8154 8157 8153 8147 8157 8155 8159 8164 8162 8166 8166 8192 8294 8321 8319 8298 8288 8289 8288 8287 8289 8292 8295 8298 8295 8299 8300 8298 8302 8300 8303 8302 8298 8294 8291 8293 8299 8297 
8298 8294 8294 8286 8280 8278 8276 8275 8273 8275 8273 8273 8274 8272 8271 8274 8271 8272 8270 8271 8273 8271 8272 8271 8270 8272 8274 8259 8289 8295 8308 8302 8304 8316 8305 8278 8262 8249 8243 8213 8157 8152 8153 8160 8152 8148 8152 8151 8156 8173 8214 8195 8192 8195 8285 8326 8308 8293 8287 8287 8291 8289 8289 8292 8296 8299 8293 8298 8300 8297 8299 8296 8297 8299 8298 8296 8296 8294 8294 8295 
8298 8290 8288 8283 8280 8277 8277 8274 8277 8273 8272 8269 8271 8270 8269 8269 8270 8269 8271 8271 8269 8271 8271 8270 8272 8271 8275 8246 8264 8295 8307 8291 8290 8302 8306 8298 8279 8252 8243 8221 8162 8164 8150 8160 8150 8148 8153 8148 8161 8186 8244 8263 8271 8276 8299 8318 8291 8288 8285 8287 8288 8288 8290 8294 8295 8294 8295 8294 8296 8299 8298 8296 8297 8298 8296 8295 8291 8292 8291 8294 
8295 8288 8284 8279 8274 8273 8275 8274 8274 8275 8271 8269 8270 8270 8266 8269 8268 8269 8268 8269 8270 8266 8271 8270 8273 8273 8272 8242 8245 8288 8300 8296 8281 8293 8314 8315 8299 8276 8258 8233 8211 8184 8164 8155 8153 8149 8153 8149 8153 8175 8249 8279 8286 8290 8320 8306 8290 8289 8288 8289 8287 8287 8289 8292 8292 8295 8294 8297 8296 8298 8297 8299 8294 8297 8298 8295 8293 8290 8291 8287 
8292 8292 8286 8276 8277 8273 8275 8271 8274 8270 8270 8267 8271 8273 8272 8267 8267 8271 8268 8268 8265 8270 8270 8269 8271 8277 8275 8252 8239 8259 8306 8303 8290 8298 8311 8335 8315 8292 8268 8246 8226 8216 8194 8169 8159 8161 8153 8148 8158 8160 8233 8264 8268 8310 8321 8290 8287 8290 8290 8287 8287 8290 8294 8292 8291 8295 8296 8298 8296 8299 8297 8298 8296 8299 8297 8297 8294 8289 8288 8286 
8293 8289 8282 8276 8271 8271 8275 8271 8269 8270 8269 8270 8276 8272 8273 8270 8273 8270 8269 8269 8267 8267 8271 8271 8274 8273 8278 8260 8242 8247 8287 8316 8295 8290 8292 8312 8302 8299 8279 8254 8247 8235 8213 8210 8209 8170 8149 8149 8180 8180 8228 8272 8299 8320 8296 8289 8287 8292 8288 8288 8290 8290 8293 8294 8291 8293 8296 8298 8298 8295 8298 8297 8298 8298 8297 8295 8290 8289 8286 8283 
8290 8289 8280 8278 8271 8270 8273 8274 8269 8268 8269 8271 8270 8269 8271 8272 8274 8269 8268 8269 8269 8270 8272 8272 8275 8273 8277 8273 8241 8245 8269 8301 8312 8287 8302 8303 8299 8301 8291 8273 8271 8262 8245 8237 8231 8193 8151 8153 8214 8251 8284 8298 8316 8289 8289 8291 8289 8292 8293 8292 8292 8292 8294 8292 8296 8294 8297 8297 8300 8298 8297 8299 8298 8299 8298 8296 8291 8285 8280 8281 
8290 8285 8280 8277 8269 8269 8274 8273 8271 8271 8273 8267 8271 8272 8271 8268 8271 8271 8269 8271 8270 8267 8273 8272 8274 8274 8281 8283 8255 8245 8260 8288 8301 8314 8317 8329 8314 8298 8290 8280 8277 8274 8259 8250 8247 8211 8159 8196 8238 8264 8301 8304 8284 8281 8293 8294 8290 8292 8290 8294 8289 8296 8295 8293 8295 8291 8295 8296 8298 8297 8302 8298 8301 8299 8297 8296 8292 8283 8275 8278 
8294 8278 8278 8275 8268 8272 8273 8273 8271 8272 8270 8269 8268 8270 8273 8272 8270 8270 8270 8272 8268 8270 8270 8272 8276 8280 8282 8285 8269 8248 8251 8277 8297 8291 8302 8318 8314 8294 8282 8278 8271 8266 8259 8253 8254 8247 8225 8253 8271 8291 8290 8282 8277 8292 8295 8293 8296 8296 8293 8294 8293 8295 8293 8293 8291 8292 8292 8293 8298 8299 8301 8302 8296 8301 8301 8297 8293 8285 8277 8279 
8287 8276 8271 8270 8269 8272 8276 8270 8270 8271 8269 8269 8274 8271 8269 8269 8269 8267 8268 8267 8268 8270 8271 8270 8276 8280 8284 8290 8285 8261 8251 8263 8282 8292 8285 8285 8291 8290 8286 8278 8269 8255 8256 8265 8269 8276 8276 8275 8284 8296 8289 8276 8286 8298 8295 8299 8294 8299 8298 8296 8295 8295 8294 8293 8291 8291 8295 8296 8296 8300 8301 8302 8297 8303 8301 8297 8292 8283 8272 8274 
8288 8274 8268 8269 8267 8269 8273 8275 8268 8272 8273 8272 8272 8271 8273 8273 8270 8269 8268 8266 8269 8266 8274 8271 8276 8281 8289 8293 8294 8282 8259 8253 8271 8291 8293 8286 8278 8275 8273 8276 8275 8273 8273 8267 8264 8267 8279 8280 8301 8298 8279 8277 8299 8302 8300 8299 8300 8298 8298 8297 8298 8293 8295 8294 8291 8292 8295 8298 8301 8302 8300 8303 8301 8304 8301 8300 8294 8284 8267 8270 
8282 8273 8272 8271 8268 8267 8273 8269 8270 8270 8270 8271 8272 8270 8271 8268 8271 8270 8269 8266 8267 8270 8272 8275 8277 8283 8289 8294 8296 8292 8281 8259 8254 8275 8297 8295 8286 8280 8275 8271 8272 8275 8272 8277 8280 8288 8300 8305 8296 8279 8279 8294 8304 8304 8301 8301 8301 8302 8303 8300 8301 8297 8295 8294 8292 8296 8297 8300 8300 8303 8303 8302 8301 8304 8300 8302 8294 8283 8264 8273 
8281 8275 8270 8273 8268 8267 8274 8269 8271 8270 8267 8268 8270 8269 8270 8271 8271 8270 8269 8266 8270 8269 8274 8275 8282 8286 8292 8293 8296 8297 8292 8283 8266 8254 8269 8288 8298 8291 8287 8289 8289 8287 8296 8309 8313 8320 8321 8292 8277 8283 8295 8306 8307 8307 8304 8302 8300 8302 8301 8302 8297 8299 8298 8294 8294 8300 8296 8300 8300 8305 8305 8302 8300 8306 8304 8303 8298 8286 8271 8269 
8281 8274 8273 8271 8269 8272 8273 8272 8270 8270 8267 8268 8271 8270 8270 8270 8271 8271 8271 8268 8270 8272 8275 8278 8283 8284 8291 8295 8295 8300 8300 8293 8286 8273 8260 8264 8276 8287 8295 8310 8313 8309 8317 8330 8321 8303 8286 8277 8293 8298 8304 8310 8309 8307 8302 8301 8297 8301 8305 8301 8298 8297 8296 8294 8295 8297 8295 8301 8304 8304 8302 8304 8300 8301 8302 8300 8293 8284 8271 8272 
8280 8277 8271 8271 8270 8274 8274 8270 8271 8269 8272 8269 8272 8272 8270 8270 8272 8271 8273 8269 8269 8273 8276 8275 8280 8279 8288 8296 8300 8300 8299 8298 8294 8287 8282 8279 8270 8268 8268 8275 8277 8282 8289 8291 8287 8289 8295 8298 8304 8302 8304 8309 8311 8305 8303 8304 8301 8303 8304 8298 8298 8297 8296 8295 8297 8295 8297 8299 8302 8304 8303 8301 8300 8302 8299 8298 8295 8288 8274 8275 
8282 8278 8273 8274 8270 8271 8275 8273 8269 8274 8272 8270 8271 8273 8272 8270 8271 8269 8268 8273 8272 8273 8273 8277 8278 8275 8283 8291 8295 8300 8302 8300 8295 8289 8291 8292 8292 8285 8286 8286 8288 8293 8299 8307 8304 8304 8307 8303 8308 8308 8308 8308 8308 8308 8305 8306 8303 8305 8300 8298 8297 8295 8297 8297 8294 8297 8299 8298 8303 8302 8302 8300 8299 8298 8298 8299 8296 8285 8277 8275 
8283 8278 8278 8271 8267 8271 8273 8270 8270 8272 8272 8274 8270 8272 8276 8268 8267 8270 8271 8270 8272 8272 8272 8278 8274 8272 8275 8289 8293 8301 8301 8299 8294 8292 8291 8296 8292 8293 8293 8294 8298 8303 8305 8310 8309 8307 8305 8304 8309 8307 8309 8309 8310 8304 8301 8304 8304 8304 8301 8299 8300 8297 8295 8300 8298 8299 8303 8299 8301 8304 8302 8300 8297 8299 8297 8299 8294 8287 8276 8276 
8285 8279 8275 8269 8266 8271 8274 8267 8269 8272 8268 8270 8269 8272 8272 8269 8268 8270 8271 8271 8272 8274 8271 8275 8278 8274 8277 8283 8289 8296 8298 8297 8294 8293 8289 8294 8293 8293 8293 8294 8296 8300 8302 8309 8304 8301 8305 8303 8305 8305 8309 8309 8308 8305 8302 8301 8298 8303 8301 8299 8297 8296 8298 8298 8298 8301 8300 8299 8304 8303 8301 8299 8297 8296 8295 8296 8293 8284 8282 8279 
8290 8276 8270 8267 8265 8264 8269 8271 8269 8269 8266 8267 8266 8272 8272 8265 8265 8267 8268 8270 8271 8270 8272 8274 8276 8275 8280 8281 8287 8287 8290 8285 8287 8290 8290 8298 8294 8294 8290 8295 8296 8295 8302 8305 8301 8302 8302 8300 8305 8304 8303 8304 8306 8300 8298 8299 8297 8298 8301 8299 8297 8296 8296 8297 8298 8295 8300 8299 8301 8304 8299 8301 8296 8298 8299 8297 8293 8283 8282 8279 
8291 8273 8267 8267 8261 8265 8271 8266 8270 8267 8260 8263 8264 8268 8272 8266 8267 8261 8265 8268 8266 8271 8276 8275 8274 8272 8285 8282 8295 8280 8281 8281 8283 8286 8291 8303 8301 8300 8304 8298 8296 8296 8297 8301 8301 8302 8305 8299 8303 8301 8304 8306 8306 8299 8295 8298 8296 8302 8300 8301 8297 8295 8297 8298 8302 8301 8299 8302 8304 8304 8303 8299 8297 8299 8300 8297 8293 8288 8278 8281 


