P2
80 60
8243
8215 8216 8216 8216 8220 8216 8218 8217 8218 8213 8218 8221 8219 8216 8214 8219 8217 8218 8220 8223 8226 8229 8230 8231 8231 8227 8227 8232 8230 8230 8232 8233 8233 8239 8237 8233 8235 8239 8238 8240 8240 8238 8239 8234 8235 8232 8232 8230 8233 8225 8230 8225 8225 8222 8224 8223 8221 8221 8220 8223 8222 8222 8221 8221 8221 8217 8220 8220 8220 8222 8222 8224 8223 8221 8221 8222 8219 8221 8217 8210 
8209 8213 8209 8217 8216 8213 8215 8217 8215 8214 8216 8218 8218 8216 8218 8219 8219 8219 8219 8223 8225 8228 8231 8230 8232 8232 8226 8231 8231 8232 8230 8233 8234 8236 8237 8234 8235 8240 8243 8240 8242 8239 8233 8233 8234 8229 8236 8231 8232 8224 8225 8224 8222 8221 8223 8221 8222 8220 8220 8222 8222 8223 8221 8216 8218 8218 8218 8219 8216 8218 8220 8219 8219 8221 8219 8220 8222 8219 8216 8212 
8205 8206 8211 8211 8217 8213 8216 8220 8218 8215 8216 8214 8215 8214 8214 8219 8220 8219 8217 8220 8222 8228 8227 8226 8231 8232 8231 8231 8226 8229 8231 8235 8235 8236 8234 8232 8239 8241 8243 8243 8241 8236 8235 8233 8235 8229 8230 8230 8231 8224 8225 8224 8223 8221 8221 8221 8223 8222 8221 8222 8222 8223 8222 8218 8220 8218 8218 8221 8217 8217 8219 8216 8217 8218 8221 8218 8219 8216 8214 8212 
8202 8206 8211 8213 8217 8215 8215 8215 8217 8215 8215 8214 8213 8217 8216 8217 8218 8222 8218 8220 8221 8221 8224 8229 8231 8233 8230 8231 8228 8231 8231 8234 8233 8238 8236 8235 8235 8242 8240 8242 8240 8238 8233 8232 8232 8230 8231 8226 8226 8224 8226 8224 8225 8224 8224 8225 8224 8221 8222 8222 8220 8225 8220 8220 8221 8216 8219 8217 8216 8217 8218 8216 8217 8221 8219 8218 8217 8216 8212 8209 
8203 8208 8207 8209 8213 8214 8213 8215 8214 8211 8213 8209 8214 8212 8211 8216 8217 8220 8217 8220 8219 8223 8222 8227 8230 8233 8232 8229 8229 8230 8233 8233 8232 8233 8235 8235 8237 8240 8242 8241 8240 8236 8234 8232 8233 8230 8229 8227 8225 8224 8225 8228 8221 8224 8222 8223 8224 8221 8223 8222 8226 8225 8222 8217 8219 8217 8214 8219 8218 8217 8217 8216 8218 8216 8217 8213 8216 8212 8208 8206 
8204 8208 8207 8206 8213 8212 8215 8218 8212 8213 8214 8211 8213 8212 8209 8213 8215 8214 8218 8222 8221 8222 8225 8225 8231 8230 8227 8228 8226 8230 8233 8234 8233 8236 8234 8235 8235 8238 8239 8241 8240 8234 8231 8231 8231 8229 8230 8229 8226 8224 8223 8224 8223 8225 8221 8222 8222 8221 8222 8222 8221 8222 8219 8216 8220 8215 8214 8217 8213 8215 8214 8214 8215 8212 8210 8207 8210 8208 8204 8204 
8205 8212 8212 8215 8215 8215 8220 8220 8214 8211 8212 8214 8212 8209 8209 8213 8215 8214 8218 8218 8221 8221 8223 8228 8231 8231 8226 8226 8228 8231 8234 8235 8231 8234 8235 8234 8233 8236 8236 8238 8238 8234 8230 8231 8229 8228 8227 8225 8225 8220 8222 8222 8224 8224 8220 8222 8221 8219 8219 8221 8222 8220 8218 8216 8221 8213 8213 8215 8213 8213 8212 8213 8214 8212 8207 8208 8206 8205 8200 8205 
8207 8210 8211 8214 8218 8217 8218 8218 8215 8212 8214 8210 8209 8210 8210 8213 8214 8218 8219 8220 8220 8221 8225 8226 8227 8227 8225 8224 8227 8231 8231 8235 8231 8236 8236 8233 8234 8238 8235 8237 8235 8235 8233 8229 8231 8227 8227 8227 8224 8221 8221 8222 8221 8220 8220 8219 8219 8218 8218 8219 8218 8219 8218 8214 8216 8211 8212 8216 8213 8210 8209 8208 8208 8209 8205 8202 8203 8203 8196 8200 
8210 8210 8210 8213 8215 8215 8217 8217 8214 8211 8214 8211 8210 8208 8204 8209 8212 8215 8216 8220 8219 8219 8222 8222 8224 8227 8225 8226 8228 8228 8230 8232 8231 8234 8236 8230 8233 8232 8234 8237 8237 8232 8235 8231 8230 8228 8229 8226 8224 8219 8221 8220 8220 8221 8220 8220 8218 8216 8218 8222 8218 8218 8218 8215 8216 8210 8209 8213 8207 8209 8208 8208 8210 8209 8207 8202 8203 8200 8197 8198 
8206 8210 8210 8213 8212 8214 8213 8217 8218 8211 8213 8206 8209 8207 8209 8209 8211 8214 8216 8218 8221 8219 8222 8224 8224 8223 8222 8225 8225 8228 8227 8231 8230 8233 8235 8231 8234 8230 8233 8236 8235 8236 8232 8228 8232 8226 8228 8226 8225 8217 8219 8219 8218 8220 8218 8219 8216 8216 8219 8218 8220 8218 8216 8212 8212 8210 8210 8211 8207 8208 8207 8207 8208 8204 8203 8202 8202 8201 8194 8195 
8207 8211 8208 8209 8210 8210 8211 8213 8214 8211 8212 8207 8209 8210 8205 8209 8211 8213 8208 8214 8218 8218 8222 8223 8220 8223 8221 8225 8226 8228 8229 8228 8226 8233 8231 8230 8230 8232 8232 8236 8233 8232 8231 8229 8225 8226 8225 8226 8224 8219 8219 8220 8220 8220 8220 8219 8216 8217 8217 8222 8220 8217 8214 8210 8214 8209 8210 8213 8208 8209 8207 8207 8206 8204 8203 8205 8202 8199 8197 8199 
8206 8212 8207 8205 8206 8209 8210 8211 8208 8210 8208 8206 8209 8208 8206 8207 8209 8208 8210 8213 8217 8219 8222 8223 8227 8221 8220 8226 8227 8228 8228 8226 8225 8228 8227 8226 8229 8233 8232 8232 8231 8231 8231 8227 8228 8225 8229 8223 8220 8217 8219 8218 8221 8219 8217 8219 8217 8217 8218 8220 8219 8218 8216 8212 8211 8209 8209 8209 8209 8206 8207 8205 8206 8203 8201 8202 8204 8198 8196 8197 
8207 8212 8205 8205 8205 8207 8212 8207 8207 8208 8207 8206 8206 8205 8206 8207 8208 8209 8211 8214 8217 8219 8221 8222 8222 8224 8221 8226 8224 8226 8228 8224 8225 8228 8226 8227 8227 8233 8232 8232 8231 8229 8228 8228 8230 8226 8225 8222 8219 8216 8218 8218 8217 8219 8218 8215 8216 8216 8215 8217 8219 8217 8218 8212 8210 8207 8206 8206 8207 8204 8206 8206 8202 8202 8199 8200 8203 8197 8195 8197 
8206 8214 8209 8205 8211 8208 8209 8209 8211 8209 8209 8208 8206 8208 8207 8210 8209 8210 8213 8215 8213 8219 8217 8219 8220 8223 8222 8226 8223 8223 8228 8225 8227 8226 8225 8225 8225 8232 8231 8232 8230 8228 8227 8225 8225 8225 8221 8220 8219 8219 8219 8218 8218 8220 8221 8219 8216 8215 8218 8219 8217 8214 8215 8210 8208 8209 8205 8209 8205 8205 8203 8205 8205 8200 8201 8201 8200 8200 8196 8195 
8205 8208 8209 8213 8210 8207 8211 8208 8213 8209 8210 8209 8206 8206 8205 8211 8211 8212 8213 8216 8213 8215 8215 8219 8220 8222 8220 8224 8220 8223 8225 8227 8226 8226 8225 8225 8228 8228 8228 8231 8229 8230 8226 8225 8225 8222 8222 8221 8217 8219 8221 8219 8216 8218 8216 8217 8214 8215 8217 8214 8213 8213 8214 8209 8211 8207 8203 8207 8205 8204 8202 8200 8201 8202 8198 8198 8198 8199 8196 8193 
8204 8204 8207 8209 8208 8210 8207 8210 8209 8209 8211 8209 8206 8206 8208 8212 8212 8214 8213 8215 8214 8217 8217 8220 8218 8219 8219 8218 8215 8221 8219 8222 8222 8222 8221 8222 8225 8228 8229 8229 8229 8226 8226 8223 8225 8221 8223 8218 8219 8217 8218 8218 8218 8217 8215 8214 8217 8214 8214 8215 8215 8213 8213 8209 8210 8204 8204 8207 8204 8201 8203 8202 8200 8201 8198 8202 8202 8199 8197 8197 
8204 8204 8210 8211 8209 8208 8210 8209 8210 8210 8211 8209 8209 8207 8206 8213 8210 8215 8212 8215 8214 8215 8218 8219 8219 8220 8216 8194 8181 8195 8205 8208 8214 8202 8208 8215 8221 8227 8226 8227 8228 8229 8228 8224 8221 8220 8219 8216 8217 8218 8218 8218 8220 8216 8216 8216 8213 8209 8213 8215 8216 8213 8214 8209 8207 8206 8205 8204 8204 8201 8203 8201 8201 8201 8201 8200 8203 8195 8197 8194 
8202 8206 8206 8212 8213 8207 8212 8211 8209 8213 8209 8206 8209 8212 8209 8211 8211 8213 8215 8215 8215 8215 8218 8221 8222 8215 8189 8185 8165 8159 8165 8166 8178 8181 8184 8196 8206 8218 8225 8222 8224 8224 8225 8222 8225 8220 8220 8216 8218 8216 8217 8218 8218 8216 8214 8212 8212 8214 8217 8215 8214 8216 8213 8209 8209 8204 8199 8204 8202 8202 8202 8201 8200 8202 8201 8199 8204 8198 8197 8198 
8205 8207 8206 8210 8211 8209 8210 8208 8211 8209 8210 8209 8209 8208 8209 8209 8211 8215 8215 8213 8212 8216 8220 8218 8223 8223 8222 8220 8209 8205 8209 8211 8196 8185 8204 8184 8168 8178 8197 8188 8177 8193 8220 8222 8224 8218 8217 8216 8216 8215 8215 8218 8215 8214 8214 8210 8210 8211 8212 8214 8213 8212 8213 8209 8208 8204 8203 8202 8202 8200 8202 8202 8202 8203 8198 8197 8201 8200 8193 8194 
8203 8209 8209 8206 8209 8207 8210 8212 8208 8209 8212 8208 8206 8205 8209 8213 8209 8212 8213 8212 8211 8216 8219 8218 8220 8222 8223 8222 8222 8218 8218 8208 8182 8181 8181 8185 8188 8172 8174 8187 8200 8198 8190 8210 8221 8218 8215 8214 8215 8211 8216 8215 8213 8211 8213 8214 8210 8208 8213 8211 8211 8211 8210 8206 8207 8204 8202 8202 8201 8199 8200 8199 8201 8198 8200 8200 8201 8199 8198 8190 
8207 8210 8207 8208 8208 8204 8207 8209 8208 8207 8208 8205 8206 8207 8206 8208 8210 8212 8209 8209 8210 8214 8216 8219 8221 8222 8218 8220 8218 8221 8219 8217 8203 8190 8175 8173 8165 8170 8171 8173 8184 8197 8206 8208 8208 8202 8198 8205 8211 8211 8212 8213 8215 8214 8211 8209 8211 8208 8207 8212 8212 8210 8209 8205 8205 8202 8204 8202 8202 8200 8201 8198 8200 8200 8197 8198 8200 8198 8194 8193 
8210 8209 8208 8211 8214 8209 8201 8206 8207 8210 8209 8203 8207 8206 8206 8208 8209 8208 8208 8208 8211 8215 8219 8221 8222 8221 8218 8220 8223 8222 8219 8212 8208 8214 8214 8199 8167 8167 8158 8164 8175 8167 8183 8203 8188 8182 8180 8198 8209 8207 8210 8210 8213 8212 8212 8211 8210 8208 8209 8207 8209 8208 8207 8204 8204 8206 8202 8202 8201 8200 8201 8201 8198 8197 8199 8195 8198 8196 8191 8193 
8207 8211 8212 8208 8213 8206 8203 8204 8206 8206 8210 8204 8206 8206 8207 8208 8209 8210 8206 8210 8213 8215 8219 8218 8220 8217 8217 8223 8221 8221 8218 8221 8219 8224 8219 8206 8183 8164 8152 8158 8201 8189 8190 8188 8185 8183 8180 8192 8205 8205 8209 8213 8211 8211 8211 8211 8209 8207 8209 8208 8206 8205 8209 8205 8204 8205 8203 8203 8199 8200 8198 8200 8197 8198 8196 8197 8199 8193 8192 8192 
8206 8207 8209 8207 8209 8209 8207 8203 8206 8208 8210 8205 8203 8206 8205 8208 8209 8206 8208 8209 8215 8218 8219 8221 8219 8216 8219 8221 8220 8218 8220 8222 8221 8221 8209 8200 8184 8170 8154 8155 8166 8186 8194 8201 8184 8177 8179 8193 8205 8205 8210 8214 8210 8211 8209 8211 8208 8207 8207 8205 8207 8206 8206 8203 8206 8205 8203 8204 8197 8199 8197 8196 8196 8195 8195 8196 8194 8196 8192 8190 
8207 8209 8210 8210 8207 8211 8206 8207 8206 8206 8207 8205 8207 8206 8207 8210 8205 8210 8211 8210 8214 8216 8217 8216 8216 8218 8218 8221 8216 8218 8218 8222 8220 8221 8220 8211 8180 8160 8157 8158 8162 8166 8163 8160 8158 8163 8176 8189 8206 8204 8208 8210 8208 8211 8208 8210 8209 8207 8205 8208 8207 8208 8207 8205 8207 8206 8202 8205 8199 8198 8199 8195 8195 8194 8193 8193 8197 8192 8191 8189 
8203 8206 8206 8209 8207 8202 8205 8205 8204 8207 8207 8207 8206 8205 8205 8209 8208 8208 8209 8207 8209 8211 8214 8214 8218 8217 8215 8220 8215 8218 8216 8219 8218 8222 8216 8188 8168 8172 8182 8165 8170 8183 8189 8161 8153 8153 8152 8175 8202 8203 8210 8209 8209 8210 8206 8209 8207 8205 8204 8208 8210 8207 8207 8205 8206 8207 8207 8202 8198 8195 8196 8196 8195 8193 8193 8194 8195 8192 8190 8192 
8201 8206 8204 8204 8205 8206 8203 8204 8205 8205 8205 8206 8204 8206 8205 8208 8207 8210 8209 8206 8207 8213 8215 8214 8214 8216 8216 8218 8217 8219 8216 8221 8220 8220 8217 8204 8202 8179 8181 8182 8183 8183 8209 8169 8153 8152 8150 8151 8178 8200 8206 8209 8208 8209 8209 8209 8206 8208 8206 8210 8211 8209 8206 8204 8206 8206 8204 8204 8197 8195 8198 8197 8191 8191 8191 8194 8195 8192 8189 8191 
8202 8204 8206 8204 8205 8205 8201 8205 8203 8204 8208 8205 8206 8207 8205 8211 8208 8210 8210 8206 8206 8210 8214 8214 8214 8215 8214 8216 8218 8220 8217 8219 8219 8217 8217 8211 8212 8190 8190 8185 8208 8207 8206 8189 8170 8149 8147 8154 8165 8188 8207 8209 8208 8207 8207 8208 8207 8208 8208 8210 8205 8208 8208 8206 8209 8207 8205 8201 8198 8194 8191 8196 8193 8191 8192 8195 8196 8193 8187 8185 
8205 8207 8205 8207 8204 8205 8206 8207 8209 8208 8209 8204 8205 8206 8208 8209 8208 8211 8211 8204 8207 8209 8215 8215 8216 8213 8214 8214 8217 8217 8215 8215 8215 8216 8215 8214 8211 8195 8179 8193 8204 8203 8194 8200 8189 8159 8147 8155 8193 8199 8206 8207 8209 8209 8210 8209 8211 8211 8211 8210 8208 8210 8209 8207 8209 8207 8203 8200 8195 8194 8193 8193 8193 8193 8197 8192 8199 8193 8186 8187 
8198 8206 8203 8209 8207 8207 8208 8210 8208 8207 8211 8208 8206 8204 8206 8208 8209 8213 8209 8206 8207 8211 8212 8213 8215 8213 8210 8213 8208 8207 8209 8208 8200 8179 8183 8206 8201 8191 8171 8170 8178 8168 8170 8178 8188 8166 8148 8163 8201 8202 8207 8208 8211 8209 8209 8210 8207 8209 8208 8211 8206 8208 8208 8203 8208 8206 8204 8200 8200 8192 8196 8196 8192 8195 8196 8196 8199 8196 8190 8191 
8202 8204 8207 8208 8206 8209 8208 8209 8212 8209 8206 8206 8204 8206 8207 8209 8212 8209 8208 8206 8206 8210 8213 8214 8213 8199 8182 8177 8174 8172 8170 8164 8159 8152 8175 8173 8164 8164 8163 8161 8163 8164 8163 8158 8161 8167 8161 8178 8201 8205 8207 8209 8210 8211 8209 8208 8209 8208 8208 8209 8209 8206 8209 8205 8210 8204 8202 8202 8200 8196 8195 8195 8195 8194 8197 8197 8200 8197 8188 8190 
8205 8207 8207 8207 8209 8206 8209 8212 8214 8209 8203 8203 8204 8206 8208 8211 8209 8208 8205 8205 8208 8211 8216 8212 8196 8166 8161 8164 8178 8188 8163 8155 8157 8160 8166 8162 8161 8163 8164 8162 8160 8185 8177 8159 8158 8162 8175 8182 8202 8207 8207 8209 8211 8209 8208 8211 8209 8207 8208 8210 8210 8205 8206 8204 8207 8204 8202 8202 8197 8198 8196 8195 8197 8195 8196 8199 8198 8196 8191 8187 
8204 8208 8208 8210 8206 8206 8207 8210 8211 8208 8207 8207 8202 8203 8204 8208 8207 8207 8205 8205 8206 8211 8213 8208 8178 8160 8173 8185 8205 8195 8157 8155 8159 8163 8166 8166 8162 8163 8163 8164 8174 8178 8182 8163 8159 8160 8173 8182 8200 8209 8206 8209 8207 8210 8209 8208 8207 8209 8209 8210 8205 8207 8208 8204 8207 8203 8202 8203 8199 8196 8194 8196 8198 8196 8197 8199 8198 8197 8191 8192 
8207 8211 8209 8213 8208 8208 8208 8210 8209 8205 8206 8206 8202 8201 8204 8207 8203 8208 8207 8205 8208 8209 8211 8184 8164 8180 8206 8210 8207 8198 8159 8151 8172 8167 8162 8193 8184 8169 8171 8166 8170 8168 8165 8167 8164 8164 8178 8187 8201 8205 8206 8207 8206 8208 8210 8208 8204 8208 8208 8209 8205 8205 8202 8201 8206 8205 8201 8203 8201 8200 8196 8198 8199 8202 8200 8200 8200 8198 8193 8191 
8213 8209 8211 8212 8209 8209 8212 8213 8207 8208 8205 8205 8205 8206 8205 8206 8207 8208 8208 8206 8207 8210 8197 8181 8198 8210 8210 8213 8209 8204 8168 8159 8189 8167 8165 8186 8190 8184 8173 8170 8170 8162 8158 8170 8173 8183 8190 8186 8202 8206 8210 8209 8206 8209 8208 8209 8206 8205 8207 8209 8208 8205 8207 8201 8201 8204 8201 8199 8202 8201 8199 8200 8201 8201 8203 8198 8198 8200 8196 8195 
8212 8214 8213 8215 8211 8214 8213 8211 8210 8208 8205 8204 8204 8203 8206 8209 8209 8210 8211 8205 8209 8209 8192 8199 8210 8212 8212 8211 8209 8209 8189 8182 8201 8173 8185 8199 8210 8193 8174 8176 8171 8159 8159 8162 8184 8188 8193 8190 8200 8206 8210 8209 8206 8208 8208 8206 8206 8206 8208 8209 8205 8208 8206 8202 8204 8202 8200 8204 8202 8201 8201 8200 8200 8201 8199 8200 8200 8203 8198 8195 
8212 8215 8212 8213 8214 8211 8216 8214 8207 8209 8208 8210 8210 8206 8205 8206 8209 8210 8207 8211 8206 8208 8188 8205 8206 8205 8203 8204 8201 8199 8196 8196 8197 8190 8200 8203 8204 8207 8186 8168 8162 8159 8154 8159 8192 8189 8191 8192 8201 8206 8209 8209 8209 8208 8206 8208 8208 8206 8207 8207 8207 8201 8207 8201 8205 8204 8203 8202 8199 8200 8200 8200 8200 8203 8205 8203 8203 8202 8197 8194 
8212 8213 8213 8214 8215 8216 8213 8215 8212 8209 8211 8212 8209 8206 8209 8209 8208 8210 8209 8209 8206 8198 8184 8193 8198 8195 8194 8197 8198 8198 8195 8194 8198 8201 8202 8201 8198 8204 8182 8161 8161 8158 8156 8155 8184 8190 8191 8191 8200 8208 8215 8211 8214 8213 8211 8207 8209 8207 8207 8206 8207 8203 8203 8201 8206 8204 8202 8205 8202 8203 8201 8201 8203 8203 8202 8201 8201 8201 8194 8195 
8213 8216 8217 8219 8215 8215 8214 8216 8213 8212 8210 8210 8210 8207 8207 8210 8207 8212 8209 8204 8200 8192 8193 8193 8198 8200 8199 8203 8200 8202 8202 8200 8202 8204 8206 8198 8180 8180 8166 8171 8164 8167 8165 8157 8163 8185 8192 8193 8199 8206 8208 8207 8213 8226 8210 8209 8209 8209 8206 8205 8206 8205 8205 8204 8205 8203 8205 8205 8204 8202 8199 8201 8202 8203 8204 8203 8203 8200 8198 8198 
8213 8216 8219 8219 8218 8217 8221 8219 8212 8213 8214 8211 8210 8207 8206 8205 8207 8211 8208 8208 8206 8199 8193 8195 8198 8200 8199 8201 8200 8203 8202 8199 8200 8203 8206 8190 8181 8181 8175 8180 8179 8189 8192 8181 8186 8192 8197 8197 8198 8200 8201 8204 8218 8221 8209 8209 8207 8205 8203 8204 8202 8203 8205 8203 8207 8205 8202 8202 8202 8204 8199 8202 8203 8203 8205 8203 8205 8201 8197 8197 
8212 8217 8216 8216 8212 8217 8220 8214 8211 8212 8210 8213 8207 8207 8210 8209 8209 8210 8212 8210 8209 8200 8193 8196 8196 8197 8197 8198 8198 8200 8199 8196 8195 8198 8196 8197 8201 8201 8198 8199 8199 8199 8198 8198 8199 8200 8201 8202 8203 8203 8208 8211 8217 8211 8207 8206 8207 8204 8203 8203 8206 8205 8204 8202 8205 8204 8203 8203 8200 8198 8201 8200 8202 8203 8204 8204 8204 8201 8199 8199 
8212 8215 8216 8214 8213 8215 8220 8217 8215 8214 8216 8211 8213 8210 8213 8212 8208 8214 8211 8214 8212 8204 8199 8200 8201 8197 8196 8201 8199 8200 8202 8200 8199 8200 8200 8202 8203 8205 8203 8202 8203 8205 8204 8204 8209 8204 8206 8206 8210 8210 8213 8220 8225 8210 8214 8208 8207 8203 8204 8204 8206 8207 8206 8203 8208 8203 8203 8201 8200 8202 8202 8203 8203 8202 8208 8208 8202 8201 8199 8199 
8210 8211 8213 8213 8215 8213 8215 8218 8218 8215 8218 8213 8212 8213 8209 8210 8210 8215 8211 8214 8212 8209 8203 8201 8203 8200 8200 8201 8199 8202 8204 8203 8200 8206 8204 8202 8205 8206 8203 8205 8205 8207 8208 8208 8212 8212 8212 8213 8213 8214 8217 8224 8216 8208 8210 8207 8207 8205 8204 8208 8206 8209 8208 8206 8207 8205 8203 8205 8199 8199 8203 8201 8202 8205 8207 8203 8205 8200 8199 8198 
8209 8211 8210 8213 8213 8212 8214 8216 8218 8216 8215 8215 8215 8216 8213 8213 8211 8215 8211 8211 8210 8211 8205 8201 8206 8202 8200 8202 8203 8204 8205 8203 8204 8205 8207 8206 8206 8210 8208 8209 8210 8211 8211 8212 8216 8216 8218 8213 8215 8220 8225 8210 8207 8211 8206 8206 8206 8203 8204 8207 8206 8209 8206 8205 8206 8205 8201 8203 8203 8200 8198 8201 8201 8204 8204 8206 8201 8201 8197 8196 
8210 8217 8215 8214 8217 8212 8214 8216 8215 8213 8214 8215 8216 8216 8212 8212 8214 8215 8211 8210 8210 8214 8209 8202 8200 8200 8201 8205 8204 8204 8207 8206 8206 8208 8207 8206 8206 8210 8211 8212 8210 8209 8213 8212 8215 8216 8216 8212 8217 8233 8230 8209 8207 8207 8207 8206 8207 8204 8208 8206 8210 8207 8206 8207 8204 8204 8202 8203 8202 8202 8201 8204 8203 8202 8202 8205 8202 8202 8198 8197 
8209 8213 8214 8212 8213 8212 8218 8216 8215 8214 8215 8212 8213 8219 8217 8218 8217 8214 8211 8213 8214 8215 8214 8203 8201 8201 8200 8204 8204 8203 8203 8203 8208 8209 8207 8207 8202 8206 8204 8207 8210 8210 8211 8211 8216 8216 8221 8218 8224 8233 8219 8209 8206 8206 8208 8205 8207 8207 8207 8209 8207 8208 8207 8203 8210 8204 8202 8202 8202 8200 8203 8203 8204 8201 8205 8205 8205 8200 8198 8196 
8207 8217 8215 8214 8215 8215 8219 8219 8219 8213 8217 8214 8216 8214 8215 8219 8217 8218 8213 8215 8218 8216 8217 8204 8204 8201 8199 8202 8200 8202 8202 8205 8204 8208 8211 8208 8206 8204 8205 8207 8208 8216 8212 8212 8212 8216 8219 8219 8223 8222 8216 8207 8204 8207 8207 8206 8208 8208 8206 8207 8203 8206 8206 8201 8205 8205 8202 8202 8201 8203 8203 8204 8203 8203 8203 8204 8203 8201 8196 8195 
8205 8216 8213 8216 8215 8214 8220 8220 8222 8220 8221 8216 8215 8213 8213 8216 8217 8216 8215 8215 8215 8216 8217 8206 8202 8202 8198 8201 8200 8202 8201 8203 8206 8205 8208 8205 8204 8206 8205 8210 8212 8217 8215 8215 8216 8215 8216 8217 8218 8217 8215 8210 8208 8208 8206 8206 8208 8206 8205 8204 8205 8206 8203 8204 8202 8205 8205 8203 8202 8200 8201 8205 8202 8203 8206 8208 8207 8201 8196 8196 
8200 8210 8212 8210 8213 8216 8217 8220 8221 8215 8219 8216 8216 8209 8210 8213 8213 8216 8214 8214 8213 8215 8217 8206 8205 8204 8198 8200 8198 8203 8203 8202 8205 8202 8203 8207 8206 8208 8205 8209 8215 8216 8219 8215 8218 8217 8221 8220 8218 8216 8217 8213 8210 8211 8207 8207 8208 8208 8203 8204 8205 8205 8204 8202 8204 8203 8201 8204 8202 8200 8205 8205 8203 8206 8208 8206 8207 8205 8196 8193 
8200 8200 8199 8206 8208 8214 8219 8215 8215 8216 8215 8215 8214 8206 8209 8212 8213 8212 8213 8210 8213 8214 8217 8208 8201 8202 8200 8201 8197 8203 8203 8202 8201 8203 8204 8204 8207 8211 8209 8212 8214 8219 8218 8217 8217 8218 8220 8217 8219 8218 8218 8211 8212 8211 8209 8208 8208 8205 8205 8204 8206 8205 8208 8200 8202 8203 8200 8204 8206 8205 8204 8204 8208 8207 8209 8209 8207 8202 8197 8198 
8198 8196 8194 8197 8202 8206 8211 8206 8210 8207 8211 8210 8210 8210 8211 8210 8207 8211 8209 8208 8209 8209 8215 8213 8200 8198 8198 8197 8196 8202 8203 8202 8203 8207 8205 8207 8209 8214 8215 8217 8218 8219 8221 8217 8222 8217 8221 8219 8220 8214 8217 8213 8209 8211 8210 8209 8209 8206 8204 8205 8204 8205 8205 8203 8205 8203 8202 8205 8206 8208 8207 8206 8212 8209 8211 8207 8208 8201 8197 8194 
8197 8198 8196 8199 8202 8206 8206 8212 8212 8210 8208 8208 8211 8207 8207 8202 8203 8207 8206 8203 8204 8208 8210 8212 8201 8203 8199 8200 8197 8203 8200 8203 8204 8207 8205 8205 8209 8214 8215 8219 8219 8219 8220 8221 8219 8218 8220 8221 8220 8215 8211 8201 8204 8209 8210 8210 8209 8207 8206 8208 8205 8206 8207 8203 8204 8204 8205 8208 8204 8208 8204 8208 8208 8208 8206 8205 8206 8203 8197 8199 
8195 8198 8196 8200 8205 8204 8206 8212 8209 8208 8204 8210 8206 8199 8199 8200 8202 8202 8201 8202 8197 8206 8208 8205 8205 8204 8203 8201 8199 8203 8200 8205 8202 8209 8205 8207 8209 8212 8217 8217 8217 8219 8221 8222 8220 8220 8222 8216 8217 8213 8202 8184 8189 8200 8204 8212 8210 8207 8206 8207 8204 8202 8209 8202 8203 8203 8202 8204 8206 8205 8204 8205 8207 8205 8204 8206 8204 8204 8197 8194 
8200 8200 8200 8205 8206 8209 8207 8211 8206 8213 8217 8203 8200 8200 8198 8203 8203 8201 8200 8196 8199 8202 8202 8203 8204 8202 8202 8201 8195 8199 8200 8199 8203 8208 8209 8208 8210 8214 8214 8214 8216 8219 8219 8224 8221 8222 8223 8219 8221 8214 8202 8185 8183 8184 8195 8210 8206 8203 8204 8202 8202 8199 8205 8200 8200 8201 8197 8202 8203 8202 8203 8206 8207 8203 8204 8202 8203 8198 8194 8194 
8203 8208 8206 8208 8209 8203 8208 8209 8208 8217 8213 8201 8201 8202 8202 8206 8199 8202 8201 8198 8198 8201 8204 8198 8202 8199 8199 8204 8199 8196 8199 8201 8206 8208 8211 8213 8214 8215 8214 8216 8220 8220 8225 8225 8228 8222 8222 8221 8221 8214 8200 8188 8184 8185 8188 8200 8197 8191 8192 8190 8195 8195 8193 8190 8190 8192 8188 8193 8198 8201 8201 8200 8207 8205 8201 8199 8201 8198 8192 8193 
8206 8215 8207 8204 8204 8209 8211 8213 8210 8210 8212 8208 8213 8213 8211 8209 8204 8204 8199 8199 8207 8209 8204 8201 8199 8186 8194 8195 8198 8198 8196 8199 8202 8204 8209 8211 8208 8211 8211 8213 8215 8220 8222 8220 8223 8223 8220 8221 8223 8213 8194 8186 8182 8187 8185 8193 8188 8191 8188 8190 8190 8192 8195 8188 8195 8193 8190 8191 8193 8199 8197 8197 8199 8200 8199 8198 8201 8200 8191 8192 
8209 8214 8210 8207 8206 8208 8214 8213 8215 8216 8215 8215 8218 8218 8214 8208 8204 8205 8204 8208 8210 8205 8203 8205 8198 8184 8183 8192 8197 8197 8196 8194 8200 8201 8203 8203 8207 8209 8207 8210 8212 8215 8217 8213 8221 8214 8220 8221 8219 8209 8191 8182 8184 8183 8185 8187 8184 8183 8186 8185 8185 8189 8192 8189 8187 8192 8188 8193 8192 8195 8195 8195 8201 8198 8198 8196 8199 8199 8188 8192 
8211 8213 8210 8206 8209 8209 8209 8206 8208 8211 8214 8217 8216 8219 8217 8209 8207 8210 8207 8212 8210 8207 8206 8209 8208 8199 8197 8196 8194 8194 8192 8196 8194 8197 8199 8194 8201 8203 8205 8210 8211 8211 8211 8213 8216 8213 8216 8216 8212 8201 8188 8184 8183 8181 8183 8185 8184 8181 8186 8186 8183 8187 8189 8187 8186 8187 8189 8192 8191 8193 8196 8197 8194 8197 8199 8196 8196 8193 8188 8190 
8216 8216 8208 8210 8216 8213 8205 8205 8199 8204 8204 8219 8219 8212 8204 8197 8198 8204 8209 8209 8198 8194 8196 8200 8207 8206 8202 8202 8193 8195 8195 8189 8191 8197 8195 8197 8199 8205 8207 8208 8209 8211 8210 8206 8207 8206 8209 8202 8198 8190 8187 8185 8186 8180 8179 8182 8183 8180 8187 8185 8186 8187 8188 8187 8189 8189 8193 8198 8194 8194 8197 8196 8198 8197 8199 8198 8199 8192 8190 8191 
8231 8223 8218 8216 8214 8214 8211 8210 8214 8211 8216 8219 8222 8213 8208 8204 8203 8208 8213 8208 8202 8196 8198 8203 8205 8205 8199 8200 8197 8195 8190 8190 8186 8194 8197 8193 8194 8198 8200 8201 8204 8197 8196 8192 8190 8188 8192 8193 8192 8184 8185 8182 8180 8173 8173 8175 8178 8182 8183 8187 8184 8184 8189 8186 8190 8188 8191 8196 8196 8194 8200 8200 8198 8198 8200 8196 8196 8195 8186 8193 


