P2
80 60
8161
8131 8131 8135 8135 8136 8135 8130 8133 8130 8133 8133 8134 8135 8135 8133 8137 8139 8138 8141 8139 8136 8137 8136 8136 8135 8139 8137 8142 8139 8137 8138 8140 8136 8141 8139 8139 8142 8143 8142 8145 8145 8144 8143 8141 8145 8143 8145 8148 8145 8141 8143 8141 8142 8136 8138 8142 8143 8142 8144 8146 8145 8149 8147 8147 8146 8149 8148 8152 8154 8155 8158 8158 8159 8159 8157 8153 8151 8150 8150 8150 
8132 8133 8135 8131 8135 8132 8134 8132 8133 8136 8134 8133 8134 8136 8138 8138 8137 8141 8137 8141 8139 8139 8135 8139 8137 8142 8137 8142 8142 8139 8138 8140 8138 8141 8138 8138 8140 8142 8142 8144 8145 8143 8141 8141 8143 8145 8146 8143 8145 8141 8145 8145 8142 8141 8140 8142 8143 8142 8142 8146 8147 8148 8146 8147 8147 8148 8150 8154 8157 8156 8161 8156 8160 8159 8157 8155 8150 8151 8153 8148 
8134 8134 8135 8135 8135 8133 8130 8132 8131 8134 8132 8131 8134 8136 8133 8138 8138 8140 8138 8138 8140 8136 8138 8136 8139 8138 8140 8140 8140 8139 8138 8144 8141 8139 8139 8141 8139 8142 8143 8146 8144 8142 8140 8142 8146 8145 8143 8145 8142 8144 8140 8142 8141 8140 8143 8143 8146 8141 8141 8147 8146 8149 8149 8148 8150 8149 8152 8154 8156 8153 8158 8157 8159 8158 8157 8153 8153 8152 8148 8146 
8136 8134 8134 8134 8133 8134 8132 8132 8130 8132 8131 8131 8132 8138 8134 8134 8137 8138 8137 8139 8138 8137 8136 8138 8139 8139 8138 8140 8140 8141 8137 8139 8138 8139 8139 8141 8141 8141 8143 8146 8144 8141 8139 8142 8145 8143 8145 8144 8144 8143 8142 8140 8143 8143 8142 8142 8143 8142 8141 8147 8146 8146 8150 8147 8147 8149 8150 8152 8153 8154 8156 8155 8157 8157 8155 8154 8152 8152 8147 8144 
8136 8137 8133 8130 8133 8134 8128 8133 8132 8132 8130 8132 8127 8134 8135 8136 8135 8136 8140 8136 8135 8135 8136 8139 8139 8138 8139 8139 8140 8140 8138 8141 8138 8138 8138 8139 8139 8140 8143 8144 8144 8144 8139 8141 8140 8143 8143 8144 8142 8146 8143 8142 8141 8144 8143 8144 8143 8141 8145 8147 8145 8147 8149 8145 8147 8147 8147 8150 8149 8153 8153 8154 8155 8152 8155 8151 8149 8149 8144 8141 
8135 8139 8134 8134 8135 8135 8130 8132 8134 8131 8129 8130 8131 8132 8134 8135 8138 8138 8138 8136 8138 8137 8136 8138 8135 8138 8139 8139 8140 8140 8138 8142 8141 8140 8139 8142 8140 8142 8144 8145 8144 8144 8142 8140 8145 8140 8146 8146 8143 8142 8143 8143 8144 8145 8146 8146 8147 8147 8144 8149 8147 8147 8148 8148 8151 8149 8149 8150 8150 8150 8155 8153 8153 8149 8153 8152 8147 8146 8147 8146 
8137 8138 8134 8134 8134 8135 8132 8134 8130 8131 8130 8130 8134 8134 8133 8135 8135 8136 8137 8137 8134 8137 8139 8139 8138 8139 8139 8139 8138 8136 8140 8142 8141 8139 8136 8141 8140 8142 8143 8142 8145 8145 8140 8140 8145 8142 8142 8144 8144 8144 8143 8143 8144 8144 8144 8147 8146 8146 8144 8148 8147 8146 8145 8146 8149 8151 8151 8150 8152 8150 8154 8153 8153 8153 8149 8148 8148 8146 8145 8146 
8135 8137 8138 8133 8135 8137 8134 8131 8130 8131 8133 8131 8132 8134 8134 8134 8136 8138 8138 8138 8135 8137 8137 8140 8140 8139 8137 8138 8139 8140 8137 8142 8137 8139 8140 8141 8140 8140 8143 8146 8144 8141 8140 8141 8142 8143 8144 8144 8144 8142 8143 8141 8144 8142 8142 8145 8147 8145 8144 8147 8144 8146 8147 8146 8148 8148 8149 8151 8152 8153 8150 8152 8151 8150 8150 8147 8149 8147 8145 8148 
8133 8136 8135 8134 8136 8137 8134 8134 8134 8132 8133 8132 8133 8134 8132 8132 8137 8139 8141 8138 8137 8136 8138 8139 8139 8140 8140 8139 8140 8138 8140 8141 8137 8139 8136 8140 8142 8142 8145 8144 8143 8143 8140 8138 8145 8145 8145 8144 8143 8144 8144 8143 8142 8141 8144 8147 8146 8143 8144 8145 8144 8148 8149 8149 8151 8147 8150 8148 8152 8155 8150 8152 8151 8147 8149 8148 8146 8147 8145 8143 
8138 8136 8135 8134 8135 8135 8133 8133 8131 8132 8134 8130 8132 8132 8132 8134 8134 8138 8137 8134 8136 8135 8136 8138 8137 8138 8137 8138 8139 8140 8137 8141 8138 8138 8138 8140 8136 8142 8142 8141 8142 8140 8141 8140 8146 8147 8145 8147 8144 8144 8144 8141 8143 8143 8142 8142 8146 8143 8142 8149 8147 8146 8145 8146 8147 8149 8150 8149 8151 8149 8151 8149 8150 8145 8145 8145 8150 8145 8145 8141 
8137 8136 8136 8134 8134 8134 8133 8133 8134 8135 8133 8131 8132 8134 8134 8132 8134 8134 8135 8136 8136 8136 8138 8139 8137 8139 8136 8139 8139 8137 8139 8140 8138 8139 8135 8139 8135 8140 8139 8141 8142 8141 8141 8141 8147 8144 8145 8146 8143 8143 8146 8143 8144 8142 8140 8143 8143 8140 8144 8144 8145 8144 8144 8144 8149 8147 8147 8150 8151 8148 8150 8152 8148 8144 8146 8147 8149 8146 8144 8138 
8134 8138 8135 8134 8134 8134 8130 8132 8134 8136 8133 8133 8134 8130 8132 8130 8137 8137 8134 8135 8134 8134 8137 8139 8136 8138 8138 8137 8138 8138 8137 8139 8138 8135 8138 8141 8139 8138 8140 8141 8140 8140 8141 8141 8143 8147 8147 8145 8143 8143 8145 8145 8142 8145 8140 8140 8144 8143 8140 8146 8143 8144 8145 8145 8145 8149 8148 8149 8151 8147 8146 8147 8148 8144 8145 8143 8148 8148 8145 8142 
8133 8136 8132 8132 8134 8136 8132 8132 8133 8131 8134 8132 8132 8134 8132 8133 8136 8136 8137 8136 8135 8135 8135 8137 8136 8140 8136 8140 8140 8140 8137 8135 8139 8135 8141 8139 8139 8140 8138 8140 8140 8143 8140 8143 8145 8145 8145 8142 8143 8145 8146 8145 8143 8142 8143 8144 8142 8142 8143 8144 8143 8147 8144 8145 8145 8146 8150 8150 8151 8148 8145 8146 8145 8147 8150 8147 8150 8147 8146 8143 
8134 8133 8135 8135 8132 8132 8132 8134 8132 8133 8133 8133 8133 8133 8132 8133 8138 8135 8134 8140 8134 8134 8134 8137 8137 8138 8140 8143 8138 8137 8133 8138 8136 8136 8138 8138 8139 8139 8142 8138 8139 8142 8143 8144 8144 8142 8142 8141 8142 8143 8139 8143 8143 8145 8144 8141 8143 8143 8145 8143 8142 8147 8147 8144 8147 8148 8145 8148 8150 8149 8149 8148 8148 8148 8145 8146 8147 8147 8144 8141 
8133 8137 8138 8135 8134 8133 8135 8134 8136 8134 8135 8134 8135 8133 8134 8134 8140 8138 8137 8135 8135 8136 8131 8137 8134 8137 8137 8140 8140 8138 8135 8139 8136 8137 8139 8139 8141 8137 8138 8140 8141 8142 8142 8145 8146 8144 8146 8142 8143 8141 8142 8146 8146 8144 8142 8144 8147 8144 8144 8144 8143 8144 8145 8143 8146 8149 8146 8148 8149 8148 8147 8148 8148 8146 8145 8144 8149 8148 8144 8143 
8134 8133 8137 8135 8136 8133 8133 8134 8134 8138 8132 8133 8134 8136 8138 8133 8137 8137 8136 8136 8136 8137 8135 8136 8136 8137 8138 8139 8137 8136 8135 8140 8137 8135 8138 8140 8138 8137 8137 8141 8138 8140 8141 8140 8143 8142 8142 8141 8143 8144 8146 8143 8147 8143 8142 8142 8143 8144 8141 8145 8142 8145 8143 8146 8145 8145 8146 8147 8148 8145 8147 8146 8147 8149 8148 8146 8148 8147 8145 8140 
8132 8135 8136 8132 8135 8132 8130 8135 8136 8136 8133 8133 8135 8135 8137 8132 8138 8139 8136 8137 8136 8132 8136 8136 8137 8138 8139 8137 8136 8137 8134 8139 8135 8139 8138 8136 8137 8139 8138 8138 8140 8140 8140 8142 8143 8143 8144 8141 8142 8146 8144 8146 8145 8145 8143 8143 8144 8143 8143 8144 8143 8143 8145 8143 8143 8144 8147 8146 8147 8145 8146 8145 8146 8146 8145 8144 8147 8145 8140 8144 
8134 8137 8134 8136 8137 8133 8131 8134 8134 8139 8133 8135 8135 8137 8136 8136 8134 8138 8137 8136 8134 8134 8135 8136 8138 8142 8138 8140 8139 8137 8134 8139 8137 8139 8140 8139 8139 8137 8137 8139 8138 8139 8140 8139 8141 8143 8146 8142 8141 8142 8146 8146 8144 8145 8143 8141 8140 8138 8140 8143 8143 8143 8145 8143 8143 8145 8146 8146 8150 8146 8146 8147 8149 8151 8143 8147 8146 8145 8142 8141 
8136 8134 8133 8136 8136 8132 8135 8132 8136 8139 8138 8136 8138 8142 8139 8136 8139 8137 8138 8137 8134 8134 8140 8139 8136 8139 8141 8139 8136 8138 8136 8137 8137 8139 8140 8136 8139 8140 8139 8140 8139 8140 8137 8141 8142 8139 8142 8143 8143 8145 8144 8144 8147 8143 8145 8142 8141 8143 8141 8144 8141 8143 8145 8144 8144 8144 8146 8145 8150 8147 8145 8146 8147 8145 8146 8147 8147 8147 8144 8142 
8138 8137 8134 8133 8135 8135 8137 8133 8137 8138 8137 8137 8139 8138 8137 8139 8135 8139 8139 8136 8136 8136 8137 8138 8137 8136 8141 8141 8138 8139 8137 8139 8137 8137 8139 8143 8138 8140 8141 8138 8141 8142 8139 8139 8142 8141 8143 8143 8140 8144 8147 8146 8143 8144 8144 8143 8145 8143 8142 8143 8141 8143 8146 8147 8146 8146 8145 8149 8149 8148 8147 8144 8146 8142 8145 8144 8146 8145 8144 8147 
8138 8141 8136 8137 8135 8136 8135 8136 8135 8139 8137 8135 8137 8139 8140 8139 8143 8138 8138 8137 8137 8135 8135 8137 8138 8138 8138 8142 8138 8138 8137 8140 8136 8139 8137 8142 8142 8139 8141 8140 8139 8140 8137 8139 8142 8142 8142 8141 8144 8144 8144 8146 8144 8143 8146 8143 8144 8145 8144 8142 8137 8145 8147 8147 8148 8146 8147 8145 8149 8146 8146 8143 8144 8143 8144 8143 8143 8144 8145 8144 
8140 8141 8141 8139 8136 8135 8137 8138 8136 8136 8137 8136 8141 8141 8140 8140 8141 8141 8139 8140 8137 8137 8133 8138 8136 8140 8140 8142 8139 8137 8134 8139 8137 8140 8139 8142 8139 8137 8142 8139 8140 8141 8138 8139 8140 8142 8139 8141 8143 8141 8144 8142 8144 8143 8143 8143 8143 8144 8142 8142 8141 8143 8145 8146 8147 8146 8148 8148 8147 8148 8144 8143 8143 8140 8146 8142 8145 8147 8142 8141 
8139 8141 8138 8141 8136 8136 8135 8134 8135 8137 8136 8138 8138 8139 8136 8136 8140 8139 8140 8142 8140 8136 8137 8139 8139 8139 8141 8141 8137 8136 8135 8138 8138 8138 8140 8140 8140 8139 8142 8140 8139 8141 8139 8140 8138 8141 8141 8138 8139 8142 8141 8140 8145 8145 8143 8144 8144 8144 8142 8143 8141 8144 8144 8147 8149 8147 8149 8150 8148 8149 8146 8146 8144 8142 8143 8144 8145 8147 8144 8144 
8145 8141 8138 8137 8137 8138 8134 8137 8134 8137 8137 8133 8139 8139 8138 8137 8141 8140 8138 8141 8138 8139 8136 8137 8138 8138 8136 8139 8137 8139 8136 8138 8137 8141 8135 8141 8137 8139 8142 8141 8141 8139 8139 8142 8141 8141 8139 8137 8137 8141 8143 8143 8143 8141 8143 8144 8144 8141 8141 8143 8143 8146 8145 8148 8149 8146 8150 8149 8148 8146 8148 8145 8146 8147 8144 8142 8143 8145 8146 8137 
8140 8143 8137 8135 8139 8139 8134 8138 8133 8137 8137 8137 8136 8141 8139 8135 8138 8137 8140 8138 8138 8136 8136 8137 8138 8139 8138 8139 8140 8136 8135 8140 8137 8139 8136 8137 8139 8136 8139 8141 8140 8143 8137 8142 8143 8139 8141 8141 8139 8139 8144 8141 8143 8142 8142 8141 8143 8140 8140 8142 8142 8146 8143 8147 8148 8148 8148 8150 8148 8145 8145 8145 8144 8141 8145 8144 8145 8144 8146 8144 
8139 8141 8140 8134 8137 8136 8137 8137 8137 8139 8136 8139 8141 8138 8141 8138 8141 8137 8137 8141 8135 8137 8138 8137 8140 8139 8141 8141 8140 8139 8134 8140 8140 8138 8138 8142 8139 8140 8141 8141 8141 8142 8139 8144 8141 8140 8142 8143 8141 8140 8142 8142 8142 8141 8140 8141 8142 8143 8142 8145 8146 8145 8144 8145 8147 8149 8148 8150 8147 8143 8144 8141 8144 8142 8141 8143 8142 8146 8142 8143 
8138 8138 8139 8137 8137 8136 8134 8137 8137 8140 8137 8138 8142 8138 8138 8138 8142 8139 8140 8137 8136 8137 8139 8140 8137 8138 8142 8141 8140 8140 8137 8140 8140 8142 8139 8141 8140 8139 8143 8139 8143 8144 8139 8138 8145 8142 8141 8141 8140 8143 8142 8140 8141 8141 8141 8145 8145 8144 8144 8147 8146 8146 8145 8146 8148 8149 8148 8148 8147 8145 8142 8142 8143 8145 8146 8145 8143 8145 8146 8142 
8140 8136 8140 8137 8136 8135 8138 8135 8135 8136 8136 8138 8139 8140 8141 8139 8141 8138 8138 8141 8136 8138 8138 8140 8140 8141 8139 8142 8141 8138 8139 8140 8138 8140 8140 8141 8138 8140 8142 8142 8142 8143 8139 8139 8143 8140 8140 8142 8143 8141 8140 8143 8142 8140 8144 8145 8145 8144 8142 8145 8145 8147 8145 8147 8148 8150 8145 8143 8145 8142 8145 8141 8141 8143 8145 8148 8150 8146 8144 8148 
8140 8141 8140 8138 8136 8139 8136 8139 8136 8141 8140 8137 8140 8140 8141 8141 8140 8138 8139 8139 8137 8144 8142 8142 8138 8141 8139 8142 8143 8138 8135 8139 8140 8138 8137 8138 8139 8140 8140 8142 8142 8142 8140 8140 8144 8144 8144 8143 8142 8140 8143 8144 8143 8143 8145 8144 8145 8143 8145 8146 8145 8145 8145 8147 8150 8148 8148 8141 8142 8143 8143 8142 8144 8141 8147 8142 8148 8149 8149 8147 
8140 8142 8142 8143 8139 8136 8134 8138 8138 8140 8138 8139 8141 8138 8139 8139 8140 8141 8138 8140 8140 8138 8138 8138 8140 8140 8141 8145 8141 8140 8139 8139 8139 8138 8138 8142 8140 8140 8143 8139 8140 8140 8140 8141 8142 8142 8142 8143 8142 8144 8142 8143 8143 8142 8146 8147 8147 8145 8143 8144 8145 8146 8142 8147 8146 8146 8148 8146 8142 8140 8141 8140 8141 8142 8147 8145 8148 8149 8148 8147 
8141 8144 8141 8139 8138 8139 8136 8137 8140 8140 8137 8140 8140 8136 8139 8140 8141 8139 8138 8141 8137 8139 8139 8141 8142 8141 8141 8143 8141 8138 8139 8142 8137 8139 8138 8139 8141 8142 8142 8142 8141 8140 8139 8144 8142 8143 8148 8145 8143 8147 8145 8141 8146 8143 8145 8147 8146 8146 8146 8147 8145 8145 8145 8147 8148 8146 8146 8146 8141 8140 8144 8147 8144 8145 8147 8142 8149 8151 8144 8146 
8141 8146 8142 8140 8140 8143 8138 8140 8137 8141 8137 8140 8138 8142 8140 8139 8142 8142 8140 8138 8139 8140 8141 8143 8142 8144 8143 8141 8143 8141 8139 8141 8137 8139 8137 8140 8138 8141 8143 8141 8142 8144 8140 8141 8143 8142 8146 8144 8144 8144 8143 8142 8145 8144 8144 8143 8147 8146 8144 8144 8143 8145 8145 8145 8147 8148 8146 8146 8145 8145 8146 8146 8147 8143 8146 8147 8150 8150 8148 8145 
8139 8143 8142 8140 8143 8142 8141 8140 8140 8139 8137 8142 8140 8137 8139 8139 8142 8143 8141 8141 8138 8140 8141 8143 8143 8142 8144 8143 8142 8141 8139 8141 8139 8139 8141 8140 8141 8143 8142 8143 8144 8143 8143 8142 8145 8146 8146 8146 8141 8144 8145 8146 8143 8142 8144 8143 8147 8143 8143 8144 8144 8145 8147 8147 8147 8146 8146 8145 8146 8146 8144 8145 8147 8145 8145 8146 8149 8149 8145 8141 
8143 8144 8145 8141 8145 8140 8141 8141 8140 8141 8141 8143 8142 8141 8142 8141 8143 8141 8142 8143 8142 8142 8139 8145 8143 8143 8143 8143 8141 8140 8141 8142 8138 8139 8138 8142 8141 8142 8144 8145 8143 8146 8143 8143 8145 8147 8147 8143 8145 8146 8148 8145 8146 8145 8143 8145 8145 8143 8141 8144 8143 8145 8145 8148 8146 8148 8146 8146 8147 8143 8147 8147 8147 8146 8147 8147 8147 8148 8144 8143 
8145 8143 8144 8141 8144 8142 8141 8143 8141 8140 8139 8142 8138 8141 8144 8140 8141 8140 8143 8141 8140 8142 8142 8140 8140 8141 8141 8145 8140 8139 8140 8141 8139 8142 8140 8143 8141 8143 8141 8143 8144 8142 8144 8143 8146 8145 8149 8145 8144 8146 8146 8146 8146 8145 8147 8146 8147 8146 8146 8145 8143 8147 8148 8147 8146 8147 8144 8146 8144 8147 8146 8147 8142 8144 8145 8145 8145 8147 8147 8146 
8145 8146 8144 8143 8144 8144 8139 8144 8140 8142 8140 8141 8144 8143 8142 8141 8144 8144 8142 8141 8140 8140 8143 8141 8143 8140 8139 8142 8142 8141 8136 8142 8142 8140 8140 8143 8141 8144 8141 8143 8144 8142 8142 8142 8144 8146 8148 8147 8144 8144 8148 8146 8148 8147 8147 8148 8148 8147 8143 8148 8143 8149 8147 8147 8147 8145 8145 8147 8147 8143 8147 8148 8144 8147 8147 8147 8146 8149 8144 8147 
8147 8148 8145 8143 8146 8143 8140 8144 8143 8140 8141 8142 8140 8143 8140 8140 8142 8144 8142 8143 8140 8140 8142 8143 8142 8142 8139 8144 8141 8141 8137 8142 8139 8140 8140 8140 8140 8140 8142 8142 8143 8143 8143 8143 8143 8144 8146 8145 8144 8146 8147 8145 8147 8146 8148 8146 8148 8146 8144 8148 8147 8145 8146 8147 8146 8146 8145 8144 8147 8147 8147 8148 8146 8146 8149 8148 8152 8149 8148 8143 
8145 8146 8147 8144 8145 8144 8143 8142 8139 8142 8141 8141 8141 8143 8141 8140 8141 8143 8141 8139 8143 8141 8138 8142 8141 8139 8138 8142 8141 8140 8136 8142 8138 8140 8139 8139 8139 8141 8141 8139 8144 8143 8141 8143 8143 8146 8145 8143 8143 8144 8145 8145 8147 8148 8146 8147 8148 8145 8146 8148 8143 8146 8146 8147 8146 8147 8146 8144 8145 8145 8147 8145 8145 8148 8151 8146 8149 8147 8146 8151 
8147 8147 8147 8145 8146 8147 8142 8142 8143 8145 8142 8139 8139 8140 8143 8142 8143 8142 8138 8140 8139 8141 8140 8141 8139 8141 8142 8143 8142 8142 8138 8139 8136 8137 8140 8140 8141 8139 8140 8141 8143 8141 8142 8143 8144 8143 8142 8143 8144 8144 8148 8145 8146 8147 8147 8147 8150 8144 8146 8147 8146 8144 8148 8147 8145 8144 8145 8147 8147 8146 8147 8145 8144 8145 8147 8151 8145 8146 8147 8146 
8146 8147 8146 8147 8148 8144 8143 8143 8144 8143 8143 8141 8142 8139 8139 8139 8143 8144 8142 8142 8137 8140 8140 8140 8139 8142 8141 8142 8145 8143 8139 8143 8139 8144 8143 8142 8141 8141 8143 8144 8142 8144 8143 8144 8145 8145 8146 8142 8144 8143 8147 8149 8150 8147 8149 8148 8150 8145 8146 8150 8147 8145 8145 8147 8148 8147 8147 8145 8147 8148 8147 8149 8147 8147 8150 8148 8147 8145 8146 8141 
8148 8148 8147 8142 8147 8145 8142 8146 8142 8142 8142 8141 8142 8142 8140 8139 8141 8142 8139 8139 8140 8140 8139 8143 8139 8141 8140 8141 8140 8139 8140 8141 8138 8140 8142 8141 8140 8139 8138 8141 8141 8139 8141 8141 8146 8144 8144 8146 8145 8145 8149 8150 8148 8148 8151 8149 8151 8147 8148 8150 8148 8145 8148 8147 8149 8147 8149 8146 8148 8150 8150 8146 8148 8145 8151 8147 8148 8145 8145 8142 
8147 8145 8147 8145 8143 8144 8141 8142 8140 8144 8140 8143 8143 8141 8142 8138 8143 8141 8140 8142 8136 8140 8140 8144 8138 8142 8140 8143 8142 8142 8139 8142 8139 8141 8140 8140 8136 8140 8141 8141 8139 8144 8141 8144 8147 8145 8147 8145 8145 8148 8147 8148 8150 8150 8149 8150 8150 8149 8147 8150 8147 8150 8147 8147 8151 8149 8147 8146 8147 8144 8148 8146 8148 8147 8148 8145 8145 8143 8144 8146 
8144 8146 8141 8144 8143 8146 8142 8141 8142 8144 8141 8141 8140 8142 8141 8142 8144 8143 8139 8140 8139 8141 8138 8142 8140 8143 8140 8142 8141 8143 8139 8141 8139 8142 8140 8140 8140 8142 8139 8137 8142 8141 8143 8143 8146 8144 8146 8146 8146 8145 8148 8149 8148 8149 8151 8150 8149 8150 8148 8152 8149 8151 8151 8150 8152 8149 8148 8146 8147 8145 8148 8149 8149 8146 8151 8147 8147 8144 8145 8137 
8145 8145 8145 8145 8143 8144 8140 8143 8144 8141 8142 8142 8140 8146 8144 8141 8142 8138 8140 8139 8139 8140 8141 8140 8139 8141 8143 8142 8143 8139 8138 8143 8139 8140 8137 8140 8140 8140 8138 8140 8140 8141 8140 8144 8147 8146 8145 8144 8145 8146 8146 8147 8146 8150 8150 8151 8150 8148 8149 8149 8148 8151 8150 8154 8152 8150 8146 8147 8145 8145 8148 8147 8148 8148 8150 8147 8145 8146 8146 8142 
8146 8150 8147 8143 8144 8146 8139 8143 8143 8144 8141 8140 8141 8144 8144 8142 8140 8140 8138 8142 8138 8139 8141 8145 8139 8144 8143 8146 8144 8140 8139 8141 8137 8139 8138 8141 8141 8139 8141 8140 8140 8140 8143 8143 8147 8145 8147 8144 8144 8146 8145 8146 8149 8150 8149 8150 8151 8149 8150 8152 8152 8150 8150 8149 8151 8150 8147 8147 8147 8147 8148 8150 8150 8149 8149 8146 8146 8144 8145 8138 
8148 8148 8149 8145 8145 8144 8140 8141 8143 8143 8141 8142 8142 8142 8141 8140 8143 8141 8141 8140 8138 8139 8139 8143 8137 8142 8143 8145 8147 8138 8139 8145 8139 8139 8139 8141 8140 8136 8137 8141 8139 8141 8141 8144 8145 8148 8146 8144 8145 8147 8147 8146 8148 8150 8148 8148 8151 8149 8149 8151 8149 8151 8150 8148 8151 8150 8149 8146 8147 8148 8148 8149 8150 8151 8148 8146 8147 8144 8144 8143 
8146 8151 8147 8146 8144 8144 8144 8142 8142 8142 8144 8142 8144 8146 8143 8142 8146 8143 8141 8141 8140 8141 8139 8147 8142 8146 8141 8142 8141 8141 8139 8144 8141 8141 8143 8143 8142 8139 8140 8142 8140 8144 8143 8145 8145 8144 8145 8147 8146 8144 8147 8146 8151 8148 8153 8150 8151 8149 8151 8153 8148 8150 8152 8149 8151 8147 8148 8147 8150 8148 8152 8151 8153 8148 8152 8149 8145 8146 8146 8145 
8149 8148 8149 8146 8146 8144 8141 8145 8142 8145 8143 8144 8144 8146 8146 8139 8145 8144 8142 8141 8141 8144 8141 8145 8143 8143 8143 8145 8143 8141 8140 8142 8143 8143 8141 8141 8143 8141 8142 8143 8145 8143 8146 8143 8146 8147 8146 8147 8148 8146 8147 8148 8150 8150 8151 8148 8150 8146 8149 8148 8147 8149 8150 8149 8149 8151 8147 8149 8149 8146 8152 8153 8152 8151 8152 8149 8149 8148 8145 8141 
8147 8144 8148 8146 8146 8147 8142 8143 8145 8149 8146 8143 8143 8147 8143 8142 8144 8145 8143 8140 8142 8143 8147 8147 8143 8145 8143 8148 8146 8144 8142 8145 8141 8141 8142 8144 8142 8143 8143 8145 8145 8145 8144 8142 8147 8147 8147 8145 8147 8147 8146 8147 8149 8149 8149 8150 8150 8146 8147 8150 8149 8150 8149 8144 8148 8147 8147 8145 8151 8153 8150 8152 8153 8150 8153 8151 8149 8148 8144 8144 
8148 8147 8147 8143 8147 8148 8145 8143 8144 8146 8144 8143 8146 8146 8148 8141 8145 8144 8142 8142 8140 8144 8144 8147 8144 8144 8144 8143 8144 8142 8140 8144 8144 8145 8144 8143 8144 8145 8145 8147 8145 8144 8144 8144 8150 8148 8145 8148 8146 8150 8146 8147 8152 8152 8148 8149 8149 8148 8149 8151 8149 8153 8149 8148 8147 8147 8146 8148 8150 8151 8150 8154 8155 8152 8154 8150 8150 8148 8144 8141 
8145 8146 8147 8147 8147 8147 8144 8148 8146 8143 8142 8148 8145 8149 8147 8143 8148 8145 8145 8144 8143 8143 8146 8147 8145 8147 8146 8144 8145 8144 8141 8147 8144 8143 8144 8147 8147 8146 8148 8146 8147 8141 8145 8145 8147 8149 8149 8146 8149 8149 8153 8153 8152 8152 8148 8149 8151 8148 8148 8152 8152 8153 8149 8147 8147 8147 8146 8150 8151 8153 8152 8153 8156 8155 8154 8151 8151 8144 8142 8140 
8146 8146 8147 8148 8146 8144 8143 8145 8145 8145 8144 8145 8146 8146 8145 8145 8147 8148 8144 8146 8143 8141 8144 8149 8145 8146 8148 8144 8145 8143 8142 8143 8145 8141 8145 8146 8147 8147 8148 8150 8147 8149 8146 8147 8147 8148 8149 8145 8150 8148 8153 8154 8153 8151 8151 8149 8148 8151 8147 8153 8152 8152 8149 8148 8149 8149 8148 8149 8152 8151 8157 8153 8156 8155 8156 8151 8148 8147 8143 8141 
8150 8150 8148 8149 8149 8147 8145 8145 8145 8148 8142 8145 8147 8147 8147 8146 8146 8145 8145 8145 8144 8147 8147 8149 8148 8149 8147 8145 8145 8145 8141 8143 8144 8148 8143 8145 8147 8146 8147 8150 8146 8146 8146 8148 8151 8147 8148 8150 8150 8151 8155 8153 8151 8152 8152 8150 8151 8150 8151 8152 8152 8154 8152 8153 8148 8148 8148 8151 8153 8157 8155 8156 8155 8156 8153 8150 8147 8148 8141 8140 
8152 8144 8144 8144 8144 8147 8142 8142 8142 8145 8144 8145 8142 8147 8149 8146 8146 8149 8144 8144 8145 8146 8147 8149 8148 8148 8150 8151 8146 8145 8140 8143 8143 8145 8146 8146 8147 8147 8149 8149 8150 8150 8146 8148 8150 8149 8149 8150 8150 8153 8152 8154 8153 8154 8153 8154 8151 8150 8152 8151 8154 8150 8152 8150 8151 8147 8149 8150 8154 8154 8155 8156 8156 8154 8151 8149 8148 8142 8145 8137 
8148 8146 8149 8145 8148 8144 8143 8144 8143 8145 8143 8143 8143 8147 8149 8146 8146 8148 8143 8145 8147 8145 8144 8149 8145 8146 8146 8151 8147 8144 8142 8143 8143 8144 8145 8146 8145 8146 8147 8147 8149 8150 8146 8147 8149 8151 8150 8150 8151 8152 8152 8152 8155 8151 8153 8152 8152 8151 8153 8153 8153 8153 8151 8151 8149 8148 8148 8153 8153 8153 8153 8155 8157 8152 8152 8147 8147 8143 8140 8143 
8151 8149 8148 8146 8147 8144 8139 8142 8142 8143 8141 8145 8147 8149 8145 8145 8144 8146 8145 8145 8145 8144 8143 8145 8145 8145 8145 8150 8145 8147 8142 8146 8143 8145 8145 8144 8146 8147 8146 8146 8150 8148 8145 8147 8149 8151 8152 8151 8152 8152 8152 8154 8152 8151 8152 8152 8152 8146 8151 8153 8150 8152 8148 8152 8153 8148 8148 8147 8151 8153 8156 8154 8153 8150 8150 8147 8144 8141 8139 8139 
8151 8153 8148 8145 8146 8146 8142 8143 8140 8146 8142 8145 8145 8144 8145 8141 8146 8146 8145 8145 8144 8146 8146 8145 8146 8145 8144 8148 8148 8147 8144 8145 8142 8148 8145 8144 8145 8145 8146 8149 8148 8146 8145 8145 8149 8153 8155 8150 8148 8150 8152 8150 8152 8152 8153 8149 8149 8150 8150 8147 8146 8150 8149 8150 8149 8149 8150 8146 8154 8152 8152 8152 8152 8152 8149 8145 8141 8143 8140 8133 
8152 8156 8148 8148 8145 8147 8143 8144 8143 8143 8146 8145 8143 8147 8145 8144 8146 8146 8147 8143 8146 8146 8143 8147 8145 8145 8146 8150 8148 8148 8146 8145 8146 8146 8147 8146 8143 8144 8146 8145 8146 8146 8145 8147 8147 8149 8151 8151 8151 8153 8153 8152 8149 8151 8149 8150 8151 8149 8147 8151 8148 8148 8148 8145 8149 8146 8150 8149 8148 8151 8154 8151 8148 8150 8148 8146 8142 8142 8138 8136 
8155 8156 8151 8146 8146 8147 8144 8145 8147 8144 8147 8146 8142 8147 8146 8145 8143 8148 8146 8146 8147 8146 8149 8150 8149 8153 8151 8155 8152 8153 8147 8148 8148 8149 8141 8145 8146 8146 8147 8150 8146 8151 8144 8148 8150 8148 8152 8154 8152 8153 8152 8153 8151 8150 8150 8150 8150 8149 8148 8150 8148 8149 8147 8149 8146 8145 8146 8148 8150 8152 8153 8151 8149 8149 8146 8144 8139 8141 8141 8139 
8160 8154 8154 8147 8149 8150 8147 8149 8147 8146 8150 8148 8147 8153 8150 8149 8153 8150 8150 8152 8151 8153 8147 8153 8153 8153 8157 8156 8157 8153 8149 8154 8151 8153 8151 8150 8148 8150 8150 8149 8150 8151 8147 8149 8157 8152 8155 8155 8156 8158 8156 8152 8153 8153 8151 8152 8152 8146 8149 8151 8152 8149 8146 8149 8145 8145 8149 8149 8152 8152 8152 8149 8148 8148 8145 8144 8136 8140 8138 8141 


