P2
80 60
8295
8168 8173 8179 8181 8179 8185 8187 8188 8188 8191 8190 8197 8192 8191 8190 8193 8194 8196 8201 8201 8201 8200 8200 8206 8202 8202 8206 8203 8202 8202 8207 8207 8207 8212 8212 8212 8213 8216 8218 8218 8220 8218 8219 8219 8218 8220 8222 8223 8224 8228 8226 8228 8229 8231 8233 8230 8232 8235 8244 8242 8252 8263 8275 8278 8282 8284 8286 8288 8290 8290 8289 8278 8282 8288 8293 8293 8292 8288 8290 8293 
8168 8174 8177 8182 8182 8187 8188 8186 8189 8188 8188 8193 8195 8191 8193 8191 8190 8196 8198 8199 8200 8200 8196 8201 8199 8200 8203 8203 8202 8205 8207 8206 8207 8208 8214 8213 8212 8212 8214 8217 8219 8217 8212 8214 8213 8218 8219 8221 8223 8225 8223 8228 8231 8230 8233 8233 8231 8236 8243 8244 8251 8264 8278 8284 8288 8284 8289 8293 8290 8292 8292 8283 8280 8289 8290 8292 8293 8290 8290 8288 
8163 8171 8174 8176 8177 8183 8182 8186 8183 8184 8182 8187 8188 8186 8190 8192 8190 8193 8196 8197 8195 8197 8194 8198 8199 8198 8203 8198 8201 8204 8204 8206 8206 8210 8208 8212 8211 8212 8214 8216 8216 8215 8211 8211 8211 8215 8219 8218 8223 8224 8224 8228 8229 8229 8235 8233 8234 8239 8240 8243 8250 8269 8282 8284 8290 8286 8291 8292 8292 8295 8292 8281 8281 8288 8292 8291 8292 8289 8289 8287 
8161 8168 8171 8173 8175 8178 8179 8179 8181 8179 8178 8183 8187 8184 8187 8190 8189 8192 8193 8196 8194 8197 8194 8199 8199 8200 8198 8201 8200 8203 8203 8203 8205 8212 8211 8208 8208 8212 8210 8209 8209 8206 8205 8208 8209 8210 8215 8218 8215 8220 8220 8225 8232 8233 8234 8234 8237 8243 8243 8241 8253 8273 8284 8286 8288 8286 8290 8291 8294 8293 8293 8277 8281 8291 8293 8290 8291 8290 8285 8282 
8156 8163 8164 8167 8170 8172 8173 8174 8174 8176 8174 8182 8179 8183 8185 8189 8185 8191 8193 8194 8194 8192 8193 8197 8193 8194 8197 8198 8198 8202 8202 8203 8203 8205 8206 8206 8202 8209 8206 8206 8205 8205 8202 8201 8203 8206 8209 8209 8209 8211 8211 8224 8229 8232 8234 8236 8237 8244 8244 8244 8253 8276 8285 8288 8291 8290 8289 8292 8294 8290 8289 8282 8283 8290 8294 8293 8292 8289 8287 8286 
8156 8160 8164 8163 8165 8167 8169 8169 8170 8170 8172 8177 8181 8182 8179 8186 8183 8189 8189 8190 8189 8190 8192 8195 8191 8191 8195 8196 8196 8199 8198 8201 8198 8201 8201 8202 8202 8206 8203 8200 8201 8200 8195 8197 8201 8205 8201 8201 8200 8207 8212 8226 8232 8232 8237 8238 8239 8244 8246 8245 8255 8279 8287 8287 8290 8285 8290 8291 8292 8290 8288 8280 8283 8292 8294 8293 8290 8290 8286 8278 
8150 8156 8157 8156 8157 8160 8157 8164 8164 8164 8166 8174 8175 8174 8175 8180 8175 8180 8186 8184 8187 8186 8185 8188 8185 8191 8190 8188 8192 8192 8193 8197 8197 8197 8199 8199 8201 8201 8198 8198 8194 8197 8197 8202 8204 8205 8200 8190 8188 8197 8202 8218 8228 8233 8239 8237 8237 8244 8243 8248 8260 8280 8285 8288 8289 8286 8292 8293 8291 8290 8288 8279 8284 8288 8292 8289 8287 8289 8282 8275 
8142 8148 8146 8146 8150 8152 8150 8154 8157 8157 8158 8169 8171 8170 8171 8172 8173 8174 8182 8186 8185 8188 8191 8196 8200 8202 8205 8200 8199 8199 8205 8208 8209 8210 8209 8208 8209 8208 8203 8199 8196 8197 8195 8197 8199 8201 8196 8188 8185 8187 8188 8199 8220 8233 8235 8240 8239 8246 8249 8249 8262 8280 8284 8284 8289 8288 8291 8290 8293 8288 8287 8279 8286 8291 8295 8291 8289 8287 8276 8280 
8137 8135 8139 8136 8140 8144 8144 8146 8149 8154 8161 8172 8177 8182 8183 8182 8182 8187 8197 8197 8196 8195 8198 8205 8203 8207 8210 8209 8212 8211 8213 8213 8209 8208 8202 8203 8201 8201 8194 8188 8191 8188 8187 8190 8189 8188 8189 8185 8181 8182 8174 8177 8208 8231 8231 8232 8234 8240 8243 8249 8263 8278 8283 8285 8287 8285 8289 8291 8291 8288 8282 8277 8286 8290 8289 8288 8290 8282 8275 8271 
8125 8124 8128 8129 8130 8142 8141 8144 8154 8163 8169 8180 8183 8184 8187 8190 8188 8190 8192 8192 8195 8192 8189 8195 8188 8194 8199 8198 8195 8196 8201 8189 8190 8189 8187 8183 8181 8183 8187 8188 8186 8186 8184 8180 8178 8178 8179 8180 8179 8176 8169 8176 8211 8227 8233 8233 8234 8233 8238 8243 8265 8280 8281 8283 8289 8286 8290 8292 8294 8284 8279 8279 8290 8292 8293 8288 8289 8281 8272 8273 
8118 8122 8123 8129 8129 8138 8145 8148 8152 8160 8166 8171 8177 8184 8185 8185 8184 8185 8184 8183 8186 8187 8187 8189 8185 8188 8189 8183 8179 8180 8180 8178 8176 8173 8170 8166 8170 8170 8174 8175 8173 8174 8167 8170 8168 8169 8171 8172 8174 8175 8170 8179 8212 8231 8229 8235 8232 8235 8240 8248 8271 8284 8285 8284 8286 8285 8286 8290 8292 8285 8282 8282 8287 8291 8289 8288 8286 8280 8274 8273 
8118 8123 8128 8129 8133 8141 8148 8154 8157 8163 8165 8172 8180 8181 8182 8185 8185 8183 8181 8181 8182 8182 8185 8183 8179 8180 8178 8175 8169 8171 8176 8174 8175 8172 8167 8167 8169 8171 8167 8164 8163 8160 8154 8154 8151 8153 8160 8158 8162 8169 8166 8173 8208 8230 8234 8232 8235 8240 8241 8250 8275 8282 8286 8284 8286 8286 8287 8290 8290 8282 8277 8279 8287 8289 8288 8287 8286 8281 8277 8279 
8114 8124 8130 8129 8132 8143 8150 8156 8159 8164 8167 8174 8178 8185 8186 8189 8187 8188 8183 8183 8183 8186 8185 8185 8185 8180 8177 8175 8180 8180 8174 8195 8199 8208 8175 8168 8170 8166 8162 8160 8160 8156 8153 8147 8141 8143 8148 8149 8155 8160 8161 8168 8208 8231 8237 8236 8235 8237 8240 8248 8275 8282 8284 8282 8284 8285 8288 8288 8289 8280 8276 8279 8288 8289 8287 8285 8285 8285 8280 8275 
8116 8124 8128 8130 8139 8146 8155 8160 8168 8175 8178 8187 8194 8191 8202 8201 8201 8201 8196 8193 8193 8190 8189 8193 8192 8179 8183 8185 8188 8187 8181 8186 8199 8183 8171 8177 8178 8184 8169 8155 8144 8144 8145 8151 8140 8145 8150 8154 8164 8162 8174 8170 8208 8233 8239 8244 8244 8243 8239 8251 8272 8281 8278 8282 8286 8285 8287 8289 8285 8276 8276 8283 8287 8288 8289 8284 8286 8284 8284 8282 
8114 8119 8125 8134 8141 8152 8160 8171 8184 8195 8198 8208 8215 8213 8221 8216 8217 8219 8211 8208 8203 8197 8195 8197 8186 8187 8190 8184 8185 8183 8181 8183 8171 8168 8167 8185 8190 8190 8174 8163 8154 8148 8145 8141 8141 8144 8152 8163 8180 8163 8157 8160 8209 8233 8243 8247 8250 8251 8249 8255 8273 8277 8278 8281 8285 8283 8286 8283 8279 8270 8273 8281 8285 8289 8287 8286 8285 8285 8282 8284 
8115 8115 8129 8135 8142 8157 8168 8187 8201 8211 8214 8223 8226 8231 8230 8224 8241 8248 8224 8218 8206 8196 8191 8195 8189 8191 8193 8184 8184 8184 8185 8186 8180 8175 8180 8179 8179 8179 8168 8161 8153 8150 8148 8142 8142 8147 8156 8163 8167 8147 8144 8149 8214 8231 8241 8247 8253 8256 8256 8259 8266 8273 8278 8277 8276 8271 8263 8246 8242 8257 8273 8284 8285 8288 8288 8288 8290 8285 8280 8278 
8114 8121 8132 8138 8144 8158 8177 8201 8216 8221 8228 8232 8232 8230 8230 8231 8239 8239 8228 8225 8204 8201 8189 8189 8192 8195 8197 8183 8180 8182 8183 8186 8183 8172 8174 8171 8170 8172 8162 8164 8169 8174 8161 8160 8175 8177 8175 8174 8161 8155 8146 8160 8212 8233 8240 8245 8251 8255 8261 8259 8265 8267 8262 8255 8240 8226 8223 8215 8215 8240 8270 8282 8283 8285 8287 8286 8287 8283 8281 8277 
8115 8123 8132 8136 8145 8167 8192 8212 8222 8232 8236 8239 8233 8231 8228 8228 8233 8234 8230 8221 8217 8204 8194 8196 8186 8190 8198 8199 8189 8182 8189 8197 8191 8182 8181 8179 8181 8174 8176 8167 8174 8173 8172 8171 8170 8172 8175 8179 8181 8185 8180 8188 8218 8232 8239 8245 8249 8256 8257 8257 8250 8236 8223 8211 8212 8210 8209 8208 8208 8228 8268 8280 8282 8284 8282 8286 8283 8281 8278 8276 
8115 8129 8138 8139 8151 8178 8195 8214 8222 8230 8237 8240 8242 8237 8237 8231 8229 8228 8220 8210 8203 8199 8196 8201 8198 8198 8203 8196 8191 8197 8204 8205 8203 8199 8198 8194 8191 8183 8174 8173 8179 8179 8181 8183 8177 8179 8182 8181 8180 8186 8185 8184 8214 8231 8236 8246 8246 8248 8240 8229 8222 8215 8209 8209 8208 8207 8207 8206 8208 8216 8257 8273 8274 8278 8282 8284 8283 8282 8279 8275 
8133 8141 8149 8152 8166 8199 8210 8222 8231 8234 8238 8245 8242 8237 8235 8230 8223 8220 8216 8210 8204 8202 8194 8200 8208 8207 8208 8201 8200 8199 8211 8220 8219 8214 8208 8206 8193 8184 8176 8177 8183 8181 8173 8173 8167 8171 8176 8173 8177 8178 8182 8187 8215 8231 8234 8237 8232 8234 8226 8222 8219 8218 8210 8208 8211 8207 8208 8207 8205 8208 8243 8269 8275 8278 8282 8282 8282 8276 8277 8273 
8135 8149 8159 8165 8189 8216 8219 8222 8221 8234 8231 8235 8222 8219 8214 8217 8212 8208 8204 8209 8205 8206 8199 8206 8204 8206 8202 8203 8206 8208 8206 8214 8216 8211 8203 8207 8197 8184 8171 8170 8167 8166 8161 8160 8156 8164 8171 8169 8176 8186 8198 8213 8220 8231 8232 8228 8229 8232 8228 8224 8222 8220 8217 8212 8214 8208 8209 8209 8205 8207 8229 8266 8276 8280 8282 8285 8282 8282 8280 8276 
8138 8147 8161 8173 8196 8210 8212 8203 8202 8203 8200 8195 8184 8176 8175 8182 8176 8176 8184 8189 8190 8189 8194 8195 8193 8195 8190 8191 8204 8209 8203 8201 8208 8210 8207 8204 8197 8191 8192 8198 8198 8201 8202 8207 8207 8211 8222 8219 8222 8226 8227 8233 8233 8230 8231 8229 8231 8234 8232 8225 8225 8223 8223 8221 8216 8209 8208 8208 8206 8207 8220 8256 8276 8285 8283 8281 8283 8279 8279 8281 
8142 8151 8167 8184 8202 8201 8196 8186 8177 8174 8170 8170 8167 8163 8166 8168 8163 8175 8180 8184 8182 8186 8186 8191 8196 8199 8202 8202 8207 8208 8210 8213 8216 8213 8212 8215 8214 8214 8213 8215 8220 8216 8219 8223 8225 8225 8232 8232 8235 8237 8236 8239 8232 8229 8229 8226 8229 8233 8231 8226 8227 8226 8224 8220 8222 8218 8216 8213 8209 8209 8214 8241 8270 8282 8284 8284 8280 8278 8281 8279 
8155 8169 8183 8193 8194 8197 8190 8190 8186 8187 8185 8188 8186 8183 8183 8186 8181 8187 8190 8191 8191 8191 8192 8203 8206 8208 8213 8209 8212 8215 8213 8216 8215 8216 8216 8218 8214 8216 8216 8220 8222 8226 8225 8227 8229 8231 8230 8233 8237 8238 8242 8243 8238 8233 8230 8227 8227 8232 8230 8227 8227 8230 8225 8224 8225 8222 8219 8219 8215 8210 8214 8225 8266 8278 8284 8282 8277 8277 8278 8275 
8167 8180 8190 8197 8197 8199 8189 8187 8186 8187 8187 8192 8189 8194 8192 8190 8188 8191 8192 8194 8195 8195 8197 8203 8207 8210 8213 8214 8216 8218 8215 8218 8219 8220 8216 8219 8221 8219 8224 8227 8229 8232 8231 8230 8231 8235 8232 8234 8240 8240 8240 8243 8237 8232 8226 8228 8227 8226 8227 8225 8227 8228 8227 8225 8225 8223 8222 8222 8222 8218 8216 8219 8256 8280 8283 8281 8281 8280 8280 8278 
8163 8180 8198 8197 8191 8194 8189 8190 8188 8189 8186 8193 8193 8192 8194 8192 8194 8194 8195 8197 8198 8198 8199 8207 8211 8214 8219 8219 8222 8225 8224 8223 8225 8225 8225 8226 8224 8230 8225 8229 8231 8231 8228 8231 8231 8236 8239 8237 8239 8242 8241 8241 8235 8229 8227 8229 8223 8226 8226 8224 8225 8225 8226 8227 8229 8226 8227 8224 8223 8223 8224 8223 8251 8281 8282 8280 8279 8280 8283 8278 
8166 8189 8206 8194 8189 8192 8189 8190 8191 8191 8193 8194 8195 8197 8200 8201 8201 8204 8209 8209 8212 8213 8214 8223 8222 8219 8222 8224 8225 8227 8227 8224 8223 8219 8226 8230 8226 8227 8225 8228 8226 8230 8225 8232 8235 8239 8238 8236 8238 8242 8239 8237 8232 8229 8227 8227 8224 8224 8227 8226 8227 8225 8226 8229 8230 8228 8232 8227 8222 8222 8225 8226 8242 8273 8283 8281 8280 8276 8280 8278 
8182 8202 8209 8193 8189 8193 8187 8190 8191 8193 8195 8199 8196 8198 8207 8209 8212 8212 8217 8218 8218 8220 8219 8226 8223 8223 8226 8224 8229 8229 8226 8225 8227 8226 8227 8227 8224 8225 8225 8226 8225 8229 8230 8229 8234 8238 8236 8238 8238 8242 8240 8235 8230 8228 8230 8227 8225 8228 8227 8226 8227 8225 8226 8227 8227 8226 8231 8227 8226 8227 8228 8227 8232 8270 8283 8282 8280 8279 8280 8279 
8195 8207 8201 8196 8191 8193 8193 8193 8192 8194 8193 8199 8197 8200 8206 8216 8213 8213 8216 8219 8219 8220 8220 8227 8224 8225 8227 8228 8228 8228 8225 8223 8225 8226 8224 8224 8222 8225 8226 8226 8225 8229 8228 8234 8235 8240 8239 8238 8238 8240 8235 8228 8227 8225 8227 8228 8227 8227 8229 8226 8226 8224 8222 8222 8229 8227 8229 8228 8229 8227 8228 8231 8228 8259 8281 8282 8282 8277 8278 8276 
8207 8211 8199 8194 8191 8192 8190 8193 8192 8191 8194 8196 8199 8200 8208 8214 8214 8212 8215 8218 8221 8221 8218 8224 8224 8226 8225 8225 8226 8225 8223 8224 8224 8225 8222 8227 8225 8226 8227 8228 8231 8231 8232 8233 8238 8240 8237 8238 8237 8237 8231 8225 8221 8224 8226 8231 8226 8227 8228 8226 8224 8226 8223 8225 8228 8225 8225 8226 8229 8229 8231 8229 8227 8250 8278 8281 8280 8279 8279 8275 
8219 8218 8201 8193 8192 8195 8191 8193 8193 8192 8193 8197 8197 8201 8208 8213 8209 8212 8216 8217 8218 8220 8217 8222 8224 8225 8229 8227 8227 8228 8224 8225 8225 8227 8222 8221 8223 8226 8228 8225 8228 8230 8232 8234 8235 8237 8238 8235 8235 8233 8231 8224 8224 8225 8229 8231 8229 8229 8226 8225 8222 8225 8223 8225 8228 8226 8226 8229 8228 8227 8232 8229 8224 8237 8271 8281 8280 8273 8275 8272 
8230 8222 8203 8199 8192 8193 8191 8192 8190 8193 8191 8201 8197 8202 8210 8211 8209 8212 8216 8216 8218 8220 8220 8222 8223 8224 8228 8227 8227 8227 8226 8225 8225 8224 8225 8223 8222 8224 8228 8226 8231 8230 8235 8238 8240 8239 8240 8237 8232 8233 8231 8228 8224 8229 8231 8233 8228 8228 8228 8226 8226 8226 8225 8227 8227 8225 8228 8231 8230 8229 8231 8228 8223 8233 8266 8280 8277 8276 8276 8275 
8237 8227 8200 8199 8196 8194 8193 8193 8194 8192 8194 8199 8200 8202 8207 8212 8210 8213 8214 8217 8219 8218 8220 8222 8218 8224 8225 8224 8229 8229 8226 8222 8223 8223 8226 8227 8225 8229 8228 8228 8232 8230 8235 8240 8239 8239 8239 8235 8233 8233 8230 8229 8226 8230 8234 8232 8228 8229 8228 8224 8224 8224 8224 8228 8229 8226 8231 8233 8233 8233 8233 8229 8224 8225 8255 8276 8278 8276 8272 8269 
8255 8231 8202 8198 8194 8194 8193 8191 8197 8197 8199 8202 8204 8207 8205 8208 8209 8212 8213 8217 8217 8218 8219 8221 8220 8219 8222 8225 8224 8229 8223 8219 8224 8226 8223 8227 8225 8225 8230 8230 8231 8231 8233 8236 8236 8238 8235 8233 8235 8233 8229 8230 8228 8232 8236 8234 8233 8230 8226 8227 8225 8226 8229 8231 8233 8232 8236 8235 8237 8239 8241 8229 8224 8221 8244 8270 8276 8269 8268 8263 
8257 8224 8206 8202 8197 8199 8197 8198 8196 8200 8196 8199 8202 8205 8206 8209 8207 8210 8213 8217 8218 8219 8215 8218 8218 8216 8220 8222 8221 8223 8221 8221 8222 8225 8226 8229 8226 8228 8229 8232 8232 8234 8232 8237 8237 8234 8234 8233 8232 8233 8232 8230 8231 8232 8236 8234 8230 8232 8230 8226 8223 8226 8226 8232 8233 8230 8236 8238 8243 8242 8243 8233 8225 8218 8228 8261 8269 8268 8266 8250 
8258 8214 8204 8202 8200 8202 8200 8202 8201 8206 8200 8198 8201 8201 8199 8204 8201 8209 8209 8217 8213 8216 8214 8216 8213 8215 8218 8216 8221 8221 8221 8222 8226 8227 8228 8228 8228 8230 8233 8234 8236 8234 8236 8236 8233 8234 8231 8229 8233 8233 8234 8234 8233 8235 8235 8236 8227 8230 8228 8226 8227 8231 8230 8233 8235 8237 8240 8241 8242 8243 8246 8236 8224 8217 8218 8251 8264 8264 8261 8248 
8247 8208 8206 8204 8200 8205 8204 8209 8207 8208 8203 8200 8199 8196 8196 8199 8199 8207 8209 8209 8213 8214 8211 8215 8214 8215 8217 8218 8220 8223 8225 8226 8228 8228 8228 8230 8227 8232 8231 8233 8234 8235 8233 8235 8234 8234 8231 8230 8232 8235 8235 8235 8234 8233 8236 8234 8233 8233 8232 8226 8233 8233 8235 8236 8238 8239 8240 8240 8241 8243 8247 8240 8229 8218 8216 8232 8254 8251 8248 8248 
8231 8204 8203 8200 8201 8202 8206 8211 8213 8212 8206 8203 8200 8199 8197 8198 8203 8206 8209 8212 8213 8213 8213 8217 8220 8219 8225 8225 8228 8228 8228 8226 8226 8227 8226 8228 8227 8227 8231 8232 8233 8238 8234 8236 8234 8235 8237 8232 8236 8236 8235 8237 8236 8234 8240 8240 8236 8234 8233 8234 8238 8239 8237 8239 8243 8239 8242 8238 8239 8243 8250 8243 8232 8221 8212 8216 8239 8247 8252 8248 
8223 8204 8204 8205 8198 8206 8208 8213 8212 8214 8206 8204 8202 8200 8197 8201 8202 8208 8208 8214 8217 8218 8221 8224 8224 8225 8227 8227 8227 8230 8229 8227 8227 8228 8226 8230 8226 8230 8229 8232 8235 8235 8232 8237 8237 8236 8239 8236 8236 8239 8239 8239 8237 8237 8240 8242 8238 8241 8239 8238 8243 8241 8241 8242 8241 8242 8242 8243 8239 8241 8251 8244 8234 8222 8215 8212 8235 8253 8257 8249 
8213 8205 8208 8202 8204 8211 8213 8217 8215 8212 8208 8208 8204 8201 8200 8202 8207 8210 8214 8218 8224 8224 8224 8228 8227 8226 8227 8230 8227 8230 8231 8228 8231 8226 8227 8228 8229 8231 8228 8231 8232 8237 8237 8239 8238 8239 8237 8236 8237 8241 8242 8239 8239 8238 8242 8245 8241 8242 8242 8244 8244 8243 8241 8242 8242 8243 8241 8240 8242 8242 8250 8244 8237 8226 8214 8211 8224 8250 8257 8250 
8208 8203 8204 8204 8205 8215 8215 8222 8214 8213 8209 8209 8208 8205 8202 8204 8207 8216 8219 8226 8227 8227 8227 8230 8226 8224 8229 8230 8229 8226 8228 8228 8229 8229 8227 8227 8227 8229 8231 8234 8235 8236 8238 8241 8240 8239 8241 8237 8240 8241 8244 8243 8244 8241 8243 8245 8242 8245 8244 8243 8245 8244 8242 8241 8244 8240 8242 8241 8241 8241 8249 8246 8241 8229 8214 8210 8217 8242 8253 8250 
8206 8204 8206 8202 8204 8212 8217 8219 8217 8213 8209 8209 8208 8209 8209 8214 8216 8220 8224 8225 8227 8228 8226 8229 8225 8225 8226 8226 8228 8228 8228 8228 8232 8228 8227 8227 8227 8232 8230 8234 8236 8239 8239 8238 8239 8239 8241 8239 8239 8242 8243 8242 8240 8240 8243 8245 8244 8245 8244 8243 8244 8246 8243 8241 8242 8243 8240 8243 8243 8244 8248 8247 8240 8229 8216 8211 8214 8232 8253 8252 
8198 8202 8203 8203 8204 8215 8218 8217 8216 8213 8210 8212 8212 8214 8217 8219 8219 8221 8224 8226 8225 8231 8224 8230 8227 8224 8227 8228 8228 8229 8227 8224 8231 8227 8227 8229 8229 8231 8229 8234 8235 8239 8240 8239 8240 8243 8244 8239 8240 8241 8244 8243 8241 8239 8245 8249 8247 8246 8246 8245 8243 8248 8246 8247 8244 8243 8243 8244 8241 8240 8248 8248 8241 8231 8221 8211 8209 8218 8253 8250 
8203 8203 8204 8206 8205 8214 8214 8217 8215 8212 8210 8217 8219 8220 8220 8221 8221 8224 8227 8227 8227 8223 8224 8226 8224 8227 8225 8227 8227 8227 8224 8227 8229 8229 8227 8229 8228 8230 8233 8234 8235 8236 8239 8241 8242 8242 8243 8243 8240 8244 8245 8243 8240 8239 8243 8248 8247 8247 8246 8243 8246 8248 8245 8244 8246 8243 8245 8243 8241 8242 8250 8248 8242 8239 8224 8213 8210 8212 8251 8249 
8200 8205 8205 8207 8208 8213 8215 8215 8212 8216 8216 8224 8222 8223 8221 8219 8223 8227 8229 8227 8228 8226 8224 8228 8224 8225 8226 8227 8226 8230 8226 8229 8227 8228 8227 8228 8227 8231 8232 8234 8236 8238 8240 8244 8245 8244 8244 8242 8246 8243 8242 8242 8242 8239 8242 8251 8247 8251 8248 8244 8248 8245 8246 8246 8245 8243 8241 8242 8241 8237 8246 8246 8246 8241 8230 8221 8210 8209 8241 8242 
8203 8205 8208 8210 8209 8214 8212 8214 8217 8220 8220 8223 8222 8225 8223 8223 8224 8227 8229 8227 8228 8226 8224 8227 8224 8224 8225 8224 8226 8228 8226 8226 8230 8232 8227 8228 8226 8230 8233 8234 8235 8239 8240 8244 8243 8248 8245 8243 8244 8247 8246 8243 8242 8239 8244 8246 8244 8248 8246 8248 8246 8244 8245 8246 8245 8243 8244 8241 8238 8241 8244 8243 8245 8240 8232 8221 8214 8211 8227 8235 
8204 8209 8212 8212 8212 8217 8218 8223 8224 8220 8220 8226 8224 8224 8224 8225 8222 8226 8223 8230 8227 8228 8226 8231 8228 8223 8225 8227 8229 8228 8229 8231 8232 8231 8230 8230 8231 8232 8232 8235 8236 8240 8241 8246 8246 8249 8246 8242 8245 8247 8245 8245 8243 8243 8242 8245 8244 8247 8247 8247 8245 8245 8245 8245 8243 8242 8241 8242 8241 8240 8247 8245 8243 8244 8238 8223 8216 8207 8216 8231 
8203 8212 8214 8211 8213 8217 8220 8222 8223 8223 8223 8230 8229 8225 8226 8225 8222 8223 8224 8227 8229 8226 8226 8229 8226 8226 8225 8226 8228 8226 8231 8235 8231 8233 8229 8230 8230 8233 8232 8234 8240 8241 8245 8246 8243 8248 8247 8243 8245 8248 8247 8247 8245 8241 8242 8246 8244 8246 8245 8243 8247 8244 8246 8245 8244 8240 8241 8239 8242 8245 8247 8246 8243 8243 8238 8225 8217 8209 8210 8228 
8204 8211 8213 8212 8212 8222 8221 8223 8221 8221 8219 8226 8226 8227 8223 8225 8222 8223 8224 8226 8226 8225 8224 8226 8224 8222 8226 8227 8227 8229 8231 8231 8232 8232 8232 8231 8228 8232 8234 8236 8239 8242 8244 8245 8246 8244 8246 8246 8247 8247 8246 8248 8244 8241 8239 8242 8243 8244 8241 8242 8243 8242 8241 8241 8240 8236 8238 8242 8241 8243 8246 8247 8245 8243 8236 8228 8216 8212 8211 8221 
8203 8209 8210 8214 8216 8221 8221 8224 8221 8218 8219 8222 8224 8224 8223 8222 8221 8223 8223 8224 8227 8227 8221 8226 8221 8221 8224 8225 8227 8228 8230 8229 8230 8231 8231 8228 8228 8234 8235 8237 8243 8243 8242 8241 8241 8246 8247 8247 8247 8247 8249 8249 8244 8243 8240 8241 8241 8243 8242 8241 8240 8242 8240 8241 8240 8236 8239 8239 8241 8242 8245 8246 8243 8243 8237 8231 8219 8212 8206 8206 
8202 8207 8210 8213 8215 8218 8220 8221 8220 8220 8217 8222 8222 8221 8220 8221 8217 8221 8223 8223 8223 8222 8219 8226 8222 8220 8224 8223 8224 8229 8228 8228 8230 8229 8230 8228 8230 8231 8237 8238 8240 8243 8243 8243 8242 8245 8248 8246 8249 8251 8249 8249 8248 8240 8243 8238 8239 8244 8243 8242 8243 8242 8240 8240 8239 8238 8241 8242 8240 8243 8247 8245 8243 8240 8234 8229 8221 8212 8206 8203 
8201 8208 8211 8214 8213 8217 8217 8219 8217 8217 8216 8220 8222 8218 8218 8216 8214 8219 8220 8220 8221 8222 8218 8223 8222 8218 8220 8222 8221 8226 8227 8229 8229 8232 8230 8229 8229 8235 8236 8240 8241 8242 8243 8242 8242 8243 8245 8246 8243 8249 8250 8248 8244 8243 8242 8240 8240 8242 8242 8240 8241 8239 8239 8237 8240 8238 8240 8239 8240 8241 8247 8246 8240 8238 8232 8229 8223 8213 8209 8209 
8200 8211 8213 8215 8216 8220 8217 8218 8214 8215 8212 8219 8218 8217 8215 8216 8212 8212 8212 8217 8218 8219 8219 8220 8216 8215 8217 8218 8222 8224 8224 8225 8232 8229 8230 8231 8231 8233 8235 8236 8239 8241 8241 8240 8243 8244 8244 8241 8245 8246 8248 8248 8246 8241 8240 8241 8238 8242 8243 8241 8239 8237 8242 8237 8241 8237 8237 8235 8237 8240 8245 8241 8238 8236 8232 8226 8221 8212 8205 8203 
8204 8209 8214 8218 8218 8220 8216 8219 8209 8214 8210 8217 8215 8213 8213 8212 8205 8205 8210 8213 8217 8218 8217 8217 8214 8216 8219 8221 8220 8221 8220 8224 8227 8230 8231 8231 8231 8236 8234 8236 8241 8242 8241 8244 8242 8245 8247 8245 8246 8250 8248 8249 8245 8241 8238 8238 8235 8241 8240 8239 8238 8238 8237 8240 8237 8236 8235 8235 8236 8233 8239 8239 8238 8234 8226 8222 8215 8209 8200 8199 
8201 8214 8217 8217 8217 8219 8212 8212 8213 8207 8210 8212 8213 8213 8211 8208 8203 8205 8206 8213 8217 8214 8213 8214 8215 8214 8215 8218 8216 8219 8218 8219 8223 8229 8226 8229 8227 8233 8231 8232 8236 8243 8244 8245 8242 8244 8247 8242 8245 8251 8248 8250 8242 8240 8238 8235 8235 8240 8239 8237 8240 8238 8235 8233 8237 8237 8231 8234 8233 8230 8237 8232 8235 8227 8222 8218 8214 8206 8200 8201 
8202 8214 8218 8221 8217 8213 8214 8209 8209 8208 8209 8213 8214 8212 8208 8205 8197 8200 8202 8214 8212 8215 8209 8214 8213 8212 8213 8215 8214 8216 8214 8221 8225 8225 8226 8227 8227 8230 8230 8229 8234 8239 8238 8243 8242 8241 8245 8245 8242 8248 8246 8247 8241 8240 8236 8232 8233 8233 8238 8237 8236 8233 8231 8232 8234 8228 8232 8229 8228 8228 8233 8232 8225 8226 8218 8214 8212 8207 8205 8200 
8207 8217 8218 8217 8210 8214 8211 8209 8207 8206 8206 8210 8210 8212 8209 8201 8199 8200 8204 8207 8210 8210 8206 8211 8209 8209 8208 8214 8215 8216 8213 8216 8223 8220 8220 8225 8228 8226 8229 8231 8234 8238 8240 8242 8241 8241 8245 8241 8244 8246 8243 8246 8239 8237 8234 8230 8229 8232 8235 8234 8232 8229 8228 8229 8227 8224 8226 8227 8225 8222 8231 8224 8224 8219 8213 8209 8207 8199 8197 8193 
8208 8216 8214 8212 8210 8209 8207 8206 8204 8205 8204 8207 8209 8206 8202 8197 8196 8200 8200 8202 8204 8206 8204 8204 8206 8207 8208 8214 8212 8215 8214 8215 8219 8219 8220 8222 8223 8225 8227 8228 8234 8235 8238 8238 8237 8239 8240 8240 8243 8243 8243 8242 8238 8236 8231 8227 8227 8228 8228 8226 8226 8224 8220 8220 8222 8221 8223 8223 8223 8220 8226 8222 8221 8212 8209 8208 8207 8198 8199 8195 
8206 8211 8211 8208 8207 8205 8199 8201 8199 8199 8198 8205 8206 8203 8201 8195 8192 8196 8198 8199 8198 8201 8201 8203 8207 8209 8210 8214 8210 8216 8214 8215 8218 8218 8216 8219 8219 8223 8227 8228 8232 8233 8236 8233 8230 8236 8239 8240 8241 8242 8239 8239 8236 8232 8233 8226 8226 8226 8228 8226 8224 8223 8219 8221 8217 8216 8221 8221 8222 8220 8224 8221 8218 8213 8209 8205 8205 8203 8201 8198 
8212 8208 8212 8202 8206 8206 8203 8201 8197 8199 8194 8201 8200 8200 8197 8195 8192 8194 8200 8198 8199 8197 8198 8203 8205 8209 8210 8211 8208 8213 8212 8213 8216 8214 8218 8218 8220 8222 8225 8226 8229 8232 8230 8233 8229 8232 8239 8241 8245 8244 8241 8237 8234 8229 8231 8226 8223 8227 8222 8226 8227 8224 8219 8221 8218 8216 8217 8221 8216 8218 8221 8218 8213 8212 8208 8206 8206 8199 8202 8198 


