P2
80 60
179
53 62 81 93 88 94 91 92 95 103 105 108 110 110 110 110 108 104 98 98 90 94 90 87 84 86 85 87 88 90 88 87 90 88 70 50 57 80 79 72 69 64 68 65 64 67 83 69 71 78 74 80 90 112 123 128 135 142 152 147 157 163 172 174 175 179 178 169 167 159 158 154 146 139 139 137 144 130 130 132 
72 87 84 91 90 92 91 98 98 106 107 109 111 110 109 108 106 105 98 92 89 93 88 87 82 86 83 88 88 89 82 71 79 86 75 49 63 78 75 77 72 70 76 75 74 77 79 76 76 75 81 83 99 116 129 127 135 141 152 152 157 159 168 173 172 176 175 170 153 158 155 148 146 134 138 142 142 126 129 132 
85 93 89 93 96 97 96 103 100 109 106 110 110 113 108 109 107 100 100 93 92 90 87 83 81 85 85 90 89 87 83 75 83 110 105 96 97 80 78 81 78 71 80 77 75 81 76 73 72 73 83 86 104 117 127 127 132 139 148 145 152 160 164 169 176 175 177 170 157 150 148 143 143 133 139 139 139 122 127 128 
83 93 91 95 98 100 101 105 102 108 107 110 111 110 108 108 103 99 96 92 90 88 85 84 80 82 81 87 89 88 86 92 115 153 156 159 140 83 80 77 78 73 84 78 79 75 72 72 73 74 82 88 101 118 128 127 132 137 142 143 150 157 161 165 169 170 167 168 160 141 135 136 135 125 139 134 136 124 129 126 
82 88 89 98 98 101 106 105 103 108 103 109 110 110 107 103 98 95 92 92 89 89 85 83 77 78 83 84 87 90 84 85 90 90 96 97 96 79 80 78 76 74 81 80 82 74 70 73 75 81 89 97 107 116 127 125 128 132 140 143 151 152 155 158 160 165 168 164 157 137 121 130 129 120 133 129 136 116 122 124 
75 73 79 97 98 105 103 101 107 109 106 109 112 108 106 99 93 95 91 92 87 87 82 83 79 78 80 84 87 88 81 82 78 68 74 80 86 79 77 76 77 74 78 82 81 75 71 84 96 94 95 96 108 110 122 124 126 133 139 139 147 151 154 152 154 159 163 161 146 133 117 117 123 110 122 126 139 115 122 122 
55 60 75 99 99 103 102 105 103 108 108 110 109 107 106 99 84 92 92 94 91 85 83 81 81 78 75 79 81 85 82 81 78 71 65 69 78 75 75 80 80 75 81 83 84 75 86 100 102 95 99 105 104 112 122 120 122 126 133 131 146 147 152 144 145 154 160 151 138 129 113 111 113 109 116 117 135 111 121 126 
47 60 78 99 101 104 106 105 107 108 109 107 108 106 104 94 82 90 90 92 85 84 81 80 78 77 75 79 82 83 81 83 81 68 66 70 77 72 77 77 81 76 83 81 80 84 94 97 97 94 101 106 107 115 117 116 117 121 125 127 137 145 147 141 139 141 151 138 136 124 115 104 109 107 105 110 130 110 121 119 
49 61 81 102 104 106 105 108 107 113 108 107 107 105 95 84 74 88 90 91 87 85 80 81 75 78 76 72 77 85 82 85 83 71 72 75 80 76 78 76 75 80 80 78 82 93 96 95 97 96 98 106 107 115 111 111 116 119 119 125 133 142 142 139 134 135 131 130 131 121 115 106 105 105 97 106 113 104 114 122 
48 65 89 106 102 110 107 106 109 111 108 109 106 104 89 69 64 82 84 91 85 82 83 84 77 74 73 69 71 77 79 85 84 72 69 74 77 78 78 83 77 78 81 77 84 87 90 96 96 96 99 103 104 109 108 110 112 110 113 126 130 136 137 133 130 116 121 124 124 120 110 110 106 104 95 103 105 102 119 119 
52 80 97 105 107 110 106 107 110 108 107 109 103 101 73 52 53 73 86 87 85 85 82 83 80 79 74 70 69 74 73 79 82 68 69 70 77 75 79 82 82 83 84 83 83 86 91 93 97 101 98 98 98 106 101 101 100 105 117 130 131 136 132 131 117 110 117 123 122 117 115 109 104 99 92 105 103 102 113 119 
56 91 98 105 106 107 107 107 107 108 103 105 100 92 59 49 49 62 81 87 82 85 82 81 80 82 75 69 69 68 68 67 77 69 65 68 74 77 79 86 81 81 78 81 86 89 92 92 99 95 96 97 102 106 99 93 101 105 126 132 129 132 136 122 112 109 112 113 124 118 111 109 111 102 93 97 103 99 115 115 
67 98 96 106 105 105 104 103 105 106 105 104 96 74 45 46 47 50 71 83 85 84 81 84 80 80 74 68 65 68 64 62 61 63 62 63 69 75 83 84 84 83 86 86 89 94 95 94 96 99 100 97 98 106 111 105 113 117 121 129 127 130 125 117 105 106 108 108 107 108 109 109 107 101 95 95 99 97 108 116 
80 100 97 103 104 106 103 105 104 104 103 97 87 51 45 45 46 45 56 78 82 82 82 82 76 77 76 65 61 63 63 61 64 60 59 61 71 78 83 86 88 80 86 92 94 97 98 94 96 98 97 95 97 107 112 111 113 117 121 119 123 126 122 112 107 103 106 108 109 98 103 107 104 101 97 93 99 98 112 110 
86 95 83 94 104 104 106 101 100 100 97 95 72 45 41 42 43 43 46 69 82 81 83 80 79 78 75 66 64 63 59 56 57 57 58 59 73 82 84 89 88 87 93 93 95 93 95 95 95 96 91 94 91 98 102 101 106 109 112 115 118 118 116 110 103 99 106 104 101 98 94 99 105 101 94 96 100 99 108 109 
88 82 64 86 103 101 98 101 101 97 95 89 58 42 41 41 44 41 46 53 73 82 81 82 80 80 77 66 61 62 60 55 57 56 57 62 71 83 86 91 89 87 92 91 96 94 93 90 92 89 92 90 93 92 97 100 99 106 110 104 114 112 113 104 101 101 103 96 98 95 84 89 94 93 93 94 92 97 108 110 
74 69 55 76 101 101 99 97 94 95 87 75 50 42 40 42 43 39 38 47 58 75 83 84 81 82 79 65 57 65 58 50 57 58 56 60 72 83 88 92 93 93 95 97 96 95 93 91 88 89 91 92 92 92 97 97 102 102 106 104 103 111 111 103 100 102 101 99 98 94 90 90 87 84 83 86 86 89 107 108 
62 60 57 61 93 94 98 95 96 94 83 59 42 41 41 44 40 42 43 44 49 62 77 81 84 81 76 64 57 62 62 57 62 60 61 61 74 83 90 93 91 94 96 95 95 95 92 88 88 91 89 89 91 93 97 95 97 95 104 101 101 102 105 98 97 99 102 96 98 97 90 91 87 84 77 77 79 88 104 110 
54 57 57 63 90 94 94 94 90 90 74 49 39 38 40 42 41 40 42 43 45 49 66 76 82 81 78 64 55 60 55 56 59 56 57 65 76 84 90 89 94 94 96 96 92 91 90 87 83 88 86 90 90 90 94 93 90 96 98 95 94 91 99 93 94 95 98 98 95 95 93 84 90 81 77 77 80 87 102 109 
51 55 55 57 82 88 91 91 87 84 57 39 36 42 38 42 42 43 43 46 46 48 55 76 80 82 78 68 55 58 58 59 63 62 61 68 76 81 92 93 96 94 99 95 92 87 88 85 84 87 86 86 89 86 92 90 91 90 96 90 88 83 82 91 91 93 99 96 94 89 81 82 84 78 77 81 81 87 97 114 
50 52 49 55 74 86 92 87 81 69 43 39 35 35 39 41 44 44 45 44 45 47 53 70 64 73 75 73 57 55 57 58 61 63 65 69 76 90 88 94 95 97 96 92 84 85 86 86 84 84 86 85 85 84 87 86 86 85 92 90 84 83 83 86 89 90 95 93 89 83 81 85 82 79 73 79 79 82 96 113 
41 48 51 49 62 81 87 82 69 48 37 34 37 42 37 44 46 44 41 43 46 49 46 64 64 57 68 72 58 59 58 60 65 66 68 71 83 91 92 93 94 96 95 91 87 82 83 81 82 84 84 84 82 83 83 82 79 84 86 88 82 78 81 87 87 90 92 91 84 79 84 84 89 83 77 74 79 79 92 108 
42 49 45 49 57 73 84 78 52 40 39 35 40 43 41 42 48 46 45 47 47 48 49 63 68 52 53 65 60 63 59 61 65 69 72 78 85 92 92 95 96 94 91 88 86 83 84 81 85 81 79 80 79 77 78 78 75 75 81 80 79 81 80 82 83 89 88 91 86 81 82 86 83 80 74 74 75 76 90 97 
43 48 45 49 47 67 75 70 42 38 35 38 38 43 42 45 47 48 44 47 48 50 50 64 73 51 51 54 60 61 60 62 68 68 72 78 87 92 93 98 97 93 92 89 85 83 82 79 82 83 83 77 78 77 77 76 72 71 77 76 79 77 78 74 84 83 87 85 87 83 84 86 84 80 75 71 72 73 87 96 
43 47 45 47 45 58 67 51 41 38 36 39 40 43 43 45 49 49 47 46 49 49 54 60 76 54 54 57 60 63 64 65 68 73 74 77 85 90 95 93 95 92 90 88 87 81 77 76 77 80 78 75 72 71 73 72 74 69 78 74 79 82 81 77 83 83 86 83 89 88 86 83 85 77 73 71 66 68 80 87 
42 48 44 46 43 54 60 46 40 37 39 39 38 43 44 47 48 48 46 48 49 50 51 56 77 63 51 56 61 63 62 64 72 74 75 77 88 92 94 92 92 93 90 84 82 77 75 76 77 75 74 73 69 67 70 70 67 69 79 77 82 84 82 80 81 80 84 88 89 85 85 82 80 77 73 71 70 68 80 89 
57 58 66 71 64 55 50 41 37 41 39 40 43 44 45 49 50 47 47 51 50 50 53 56 75 68 55 58 63 65 62 70 81 78 74 79 93 93 92 92 92 88 88 87 78 79 74 75 72 75 73 67 69 66 67 66 64 70 75 78 83 82 86 78 84 83 86 86 91 90 87 86 84 78 70 70 72 67 80 86 
84 94 86 92 85 75 45 38 38 42 42 41 44 45 46 50 48 49 48 50 49 53 52 53 70 76 58 61 64 64 66 71 82 77 77 81 93 95 93 92 91 90 86 83 81 78 77 73 71 74 66 66 67 64 66 65 67 69 73 78 85 87 86 83 87 90 90 89 94 87 84 85 86 76 70 68 68 67 80 80 
84 98 93 93 91 87 62 43 38 41 44 46 44 44 45 47 51 51 49 50 51 55 55 53 61 87 61 61 63 67 69 70 77 78 78 85 92 96 92 94 90 87 86 85 79 78 75 73 70 72 65 67 64 61 68 64 68 72 73 79 83 84 86 84 88 90 91 92 90 91 87 86 83 79 71 73 71 77 77 83 
88 101 94 97 94 89 79 53 40 42 46 50 48 47 48 51 50 52 53 51 53 51 55 53 59 87 73 61 62 68 65 66 71 71 80 80 87 92 93 93 92 87 90 85 81 79 77 73 70 72 67 63 61 62 64 66 66 66 74 84 83 87 84 85 87 90 88 88 89 89 87 86 88 81 74 76 76 86 78 77 
86 97 95 94 89 91 81 74 44 45 46 48 46 47 47 51 52 49 52 54 50 50 53 55 57 83 79 66 68 64 65 68 71 73 77 74 86 98 90 91 90 92 90 85 81 77 75 70 70 68 67 61 62 56 61 62 64 68 78 76 83 85 82 85 91 91 92 90 91 89 88 83 84 76 72 74 77 87 81 79 
76 92 90 92 88 87 85 80 59 42 43 46 46 49 49 51 53 48 50 52 51 55 57 55 59 75 83 66 66 68 69 71 72 74 71 72 84 97 87 91 90 89 90 81 81 76 74 67 70 70 62 59 59 59 59 61 62 70 73 77 82 85 87 86 89 87 90 89 90 89 81 82 87 79 76 75 72 77 84 83 
52 74 80 83 81 85 77 78 73 56 45 46 48 48 50 53 53 53 52 53 51 54 54 55 56 76 89 72 71 68 67 68 74 72 69 73 83 91 87 88 91 87 86 81 79 74 71 69 69 65 61 56 58 54 61 62 64 65 75 79 82 85 88 88 90 90 92 89 90 88 83 82 84 78 72 79 76 64 81 83 
42 48 53 59 61 67 65 71 75 68 46 45 50 48 51 50 50 51 50 51 52 54 54 54 58 74 98 76 70 69 67 70 73 74 71 74 93 90 85 87 87 84 85 81 80 73 71 68 64 64 57 58 57 53 61 59 63 64 72 77 84 87 86 87 88 87 90 88 93 86 83 82 82 76 78 78 71 66 78 78 
43 50 49 53 47 47 44 49 59 64 54 47 48 48 47 48 49 51 53 51 52 58 55 54 60 75 101 82 76 81 75 75 82 77 73 82 100 88 83 88 89 85 85 79 79 73 70 63 65 59 59 56 54 54 60 57 63 68 77 79 85 86 89 87 89 90 90 87 90 84 84 83 81 76 75 84 77 68 84 77 
47 57 56 56 52 50 41 42 47 50 48 49 47 46 46 51 51 50 51 50 50 55 57 55 64 72 99 87 76 79 75 81 82 76 75 91 100 88 86 88 86 87 84 78 78 71 69 65 63 60 58 53 55 55 57 62 64 68 78 81 84 87 90 89 85 87 90 86 90 84 84 81 82 79 78 82 77 72 80 84 
49 62 59 52 56 57 48 46 49 51 49 53 48 46 49 53 54 53 54 54 51 56 58 60 64 74 99 94 74 73 70 72 78 74 81 105 89 87 90 88 89 83 83 81 77 70 68 61 58 57 56 54 53 52 64 63 64 70 80 82 86 90 89 88 88 89 88 84 86 83 83 81 81 79 79 85 78 73 79 81 
54 60 58 59 60 56 49 55 60 63 65 61 60 49 51 53 55 55 57 53 54 57 60 63 66 69 95 98 74 69 66 72 74 73 85 96 81 89 87 90 89 84 84 76 74 70 65 62 59 56 56 52 52 54 63 65 70 71 80 82 87 88 91 84 89 86 88 83 85 83 82 85 80 79 85 89 87 76 81 83 
56 62 59 59 62 60 57 66 63 69 69 66 67 63 63 62 59 59 62 55 51 59 62 67 68 74 95 103 79 74 75 73 75 80 96 93 83 91 89 88 87 85 84 76 72 72 67 59 59 56 54 53 56 55 62 67 69 73 79 82 87 92 92 84 88 88 90 86 89 83 83 85 86 84 91 96 98 84 89 82 
57 67 67 67 64 65 65 69 67 66 63 61 62 66 59 59 62 61 59 59 60 61 65 67 70 73 89 112 84 84 78 78 80 79 102 87 83 93 88 91 84 81 83 74 72 68 67 60 60 59 55 50 55 55 63 66 67 72 81 81 87 87 90 84 86 87 90 86 91 81 85 85 86 82 90 94 96 88 86 92 
54 64 63 69 68 65 66 68 70 68 60 57 59 60 60 60 66 63 61 60 56 61 69 64 74 76 89 114 90 81 80 86 89 84 104 91 80 91 88 86 85 80 79 76 71 69 63 60 58 58 54 52 53 58 61 65 70 77 81 80 87 88 89 83 88 85 88 83 88 85 82 85 82 82 89 92 95 88 87 84 
57 60 66 69 70 68 66 63 60 65 61 60 60 59 60 67 68 64 62 61 60 67 69 70 74 74 82 113 103 86 99 100 98 96 108 96 88 93 88 91 86 82 83 74 73 70 66 60 63 58 54 57 56 60 64 67 71 72 83 80 85 90 90 83 88 86 88 86 89 86 82 81 80 82 90 91 89 85 85 84 
60 65 68 70 73 65 60 55 59 63 61 61 62 61 64 69 69 66 65 63 68 73 71 73 74 77 77 104 114 106 106 103 105 104 109 107 88 93 90 89 85 80 76 74 75 67 67 61 58 60 55 52 54 58 65 67 71 75 79 81 85 91 87 86 86 88 90 86 87 85 85 81 82 86 91 93 87 79 83 89 
60 64 62 63 58 56 53 55 58 62 62 60 64 65 70 71 70 70 65 69 70 71 73 76 79 78 75 90 119 118 110 103 105 106 111 108 96 96 92 90 82 79 75 70 68 68 65 60 59 60 58 54 58 57 65 70 69 71 80 81 85 90 93 92 90 90 94 90 94 92 93 94 95 102 106 105 102 85 78 77 
60 64 56 61 59 57 56 54 57 65 63 66 67 69 74 71 72 72 68 70 72 74 77 72 75 77 71 87 107 121 116 104 106 101 112 108 94 95 87 87 79 76 73 69 66 63 65 62 61 60 60 55 60 59 63 64 69 74 81 82 85 93 99 104 103 109 111 107 113 113 113 112 115 116 114 110 103 79 71 77 
67 64 65 70 65 59 57 60 66 68 67 68 71 73 77 80 78 76 71 71 74 79 78 74 72 78 75 81 95 116 114 108 104 100 106 104 89 92 89 82 80 74 69 66 63 63 63 59 59 58 57 56 59 60 68 69 67 72 81 80 84 91 104 105 102 114 114 112 113 116 114 117 119 117 117 115 101 79 71 73 
72 70 71 73 71 61 58 60 70 71 74 77 77 79 83 83 82 77 76 80 79 84 82 77 73 74 72 80 90 115 114 111 106 102 106 105 90 91 86 84 80 70 68 61 60 60 61 58 58 55 55 55 58 59 67 67 65 72 76 76 85 91 102 107 104 112 114 110 115 111 113 115 116 116 112 112 104 81 72 75 
70 69 65 66 71 59 60 60 67 69 72 78 82 80 86 88 86 86 84 85 83 85 85 84 74 72 73 81 88 114 116 112 106 102 108 99 85 90 84 83 75 70 69 65 62 58 61 59 59 57 55 56 57 58 62 63 65 70 79 81 88 93 100 103 105 108 111 102 107 108 110 103 106 118 115 105 97 87 82 77 
67 66 63 69 71 64 62 62 65 72 71 75 77 81 80 87 86 83 89 93 91 88 87 82 76 77 75 79 89 113 112 115 104 98 110 94 84 87 83 78 71 69 66 64 62 61 60 58 59 61 58 57 59 59 63 61 66 72 80 81 88 90 99 105 103 97 97 91 98 100 103 93 103 115 115 99 99 80 83 79 
65 67 64 71 74 65 64 62 65 69 73 76 78 81 83 88 89 88 94 102 100 95 90 85 83 79 80 82 91 110 113 115 105 102 115 93 83 86 79 79 74 66 67 64 64 60 61 58 63 61 57 59 58 56 64 62 65 71 78 80 84 90 100 104 98 91 90 90 92 97 105 94 103 113 114 102 101 80 81 84 
66 70 68 70 73 68 65 65 67 72 75 81 80 83 86 92 92 90 99 110 114 113 109 102 101 102 102 109 99 110 112 115 104 105 112 94 77 83 79 75 72 68 65 65 61 61 60 61 59 63 57 58 58 62 62 63 69 72 78 80 83 91 97 102 97 91 91 86 93 99 108 98 99 113 114 98 100 77 85 88 
69 68 70 74 75 72 68 68 73 76 81 81 83 86 89 93 94 98 97 110 116 115 121 118 110 114 104 111 116 115 115 115 107 107 112 90 80 80 73 73 72 68 68 68 67 62 58 61 59 61 59 58 60 56 64 64 66 71 79 83 84 94 95 100 99 93 95 86 87 98 108 96 101 112 115 102 100 81 83 91 
74 76 74 77 77 76 68 74 74 80 81 87 88 89 95 100 100 99 101 107 115 118 121 118 112 113 108 99 100 108 112 117 108 107 108 85 79 77 73 76 82 76 70 78 79 62 60 63 62 59 59 59 57 59 62 62 66 76 84 85 89 96 96 100 100 92 93 83 91 96 108 101 99 110 117 107 108 88 84 91 
75 76 77 74 76 79 73 75 80 83 84 90 94 95 95 100 104 100 102 106 110 109 115 108 103 103 100 92 94 106 110 112 111 104 106 91 80 73 71 81 81 77 78 86 82 67 59 63 62 58 62 57 59 58 66 64 71 71 81 83 84 93 95 100 102 94 92 85 88 96 108 103 104 114 118 114 115 94 86 96 
81 84 82 86 82 87 85 85 86 85 88 94 97 97 99 100 106 104 102 105 103 101 104 100 98 100 97 90 90 101 107 111 106 102 103 96 88 75 77 84 83 69 78 84 83 67 63 65 62 62 58 56 55 60 71 67 69 74 80 82 89 89 90 101 100 92 89 84 85 95 110 103 106 114 120 116 118 91 88 99 
83 84 88 92 95 96 93 98 93 90 94 102 100 103 102 105 107 101 105 101 101 99 100 99 95 94 91 92 92 99 98 105 99 98 93 95 92 74 75 76 77 75 77 79 83 77 71 64 64 59 57 52 54 59 69 68 71 74 81 82 86 90 98 100 102 94 90 85 86 94 107 108 104 112 122 120 116 93 94 109 
92 93 93 98 98 99 96 101 97 96 96 106 107 106 106 106 110 102 103 103 103 103 102 99 94 97 100 106 105 96 94 96 92 90 91 89 91 75 70 69 72 79 81 78 77 80 75 73 63 59 56 54 53 57 65 66 72 73 79 81 85 90 93 99 100 94 90 81 84 92 110 107 105 111 121 119 111 96 95 109 
95 96 97 102 104 103 99 101 102 101 104 108 111 107 108 108 110 109 109 108 106 108 109 109 102 93 99 106 100 90 82 84 77 77 77 76 71 80 80 78 79 83 80 73 77 79 79 78 74 57 59 55 56 58 64 64 68 72 78 82 85 88 89 93 98 91 91 83 81 89 108 106 110 110 119 122 115 95 102 115 
103 100 99 102 101 97 100 102 103 104 105 111 110 111 110 110 118 123 126 121 115 106 102 102 86 65 82 76 79 79 72 69 63 67 74 71 63 76 69 60 58 68 71 73 76 75 76 73 70 60 58 56 53 60 64 68 68 72 78 82 88 85 88 96 98 89 95 86 82 88 105 108 103 107 123 123 116 99 97 106 
107 109 102 103 100 101 99 99 106 104 105 106 109 116 125 135 137 135 135 130 119 108 104 96 87 52 79 62 40 63 64 62 60 78 81 47 53 27 0 5 28 62 71 80 75 72 70 71 67 62 60 59 58 65 67 69 73 71 85 80 87 87 88 93 99 84 85 83 79 76 102 106 99 107 121 127 122 99 106 100 


