P2
80 60
8213
8132 8118 8133 8135 8141 8135 8133 8133 8136 8136 8143 8145 8141 8146 8146 8144 8145 8147 8154 8152 8154 8160 8157 8155 8157 8165 8165 8169 8171 8173 8175 8178 8181 8181 8182 8182 8176 8177 8183 8184 8182 8182 8176 8177 8165 8163 8167 8167 8171 8175 8171 8173 8170 8169 8168 8170 8171 8171 8176 8184 8185 8189 8190 8189 8187 8192 8193 8197 8202 8204 8204 8206 8206 8207 8206 8210 8202 8201 8195 8194 
8128 8135 8141 8140 8144 8141 8141 8142 8141 8152 8152 8156 8154 8153 8153 8160 8164 8167 8169 8176 8181 8179 8180 8172 8180 8173 8173 8175 8179 8175 8180 8183 8184 8182 8181 8179 8179 8181 8185 8184 8185 8183 8173 8171 8168 8163 8167 8167 8168 8174 8171 8169 8171 8172 8170 8173 8173 8171 8179 8181 8185 8187 8189 8187 8188 8188 8192 8194 8201 8205 8204 8204 8207 8205 8205 8208 8204 8208 8199 8201 
8117 8124 8128 8136 8148 8140 8147 8162 8160 8169 8173 8171 8167 8172 8171 8172 8181 8182 8180 8182 8178 8182 8178 8173 8177 8183 8178 8179 8181 8175 8175 8183 8178 8186 8181 8177 8176 8185 8183 8185 8182 8178 8173 8175 8167 8166 8164 8168 8169 8167 8167 8169 8169 8172 8178 8170 8177 8173 8179 8177 8184 8187 8187 8188 8185 8187 8192 8198 8202 8205 8202 8203 8203 8201 8204 8201 8206 8203 8202 8200 
8136 8123 8145 8134 8147 8141 8154 8164 8176 8175 8172 8169 8173 8173 8173 8176 8178 8182 8180 8176 8178 8176 8168 8177 8181 8181 8182 8179 8182 8179 8178 8183 8185 8182 8186 8179 8183 8181 8180 8185 8181 8177 8175 8169 8160 8162 8166 8167 8168 8167 8164 8166 8174 8170 8174 8173 8172 8172 8175 8178 8185 8189 8186 8186 8187 8185 8190 8195 8201 8205 8203 8202 8201 8203 8201 8199 8203 8202 8200 8203 
8138 8125 8147 8140 8147 8149 8149 8149 8154 8169 8172 8165 8169 8174 8170 8175 8177 8176 8184 8181 8179 8178 8171 8169 8178 8181 8178 8180 8176 8182 8177 8184 8181 8181 8182 8180 8179 8182 8180 8182 8185 8182 8171 8163 8160 8163 8163 8165 8169 8170 8167 8164 8167 8169 8176 8177 8175 8177 8180 8182 8186 8188 8184 8182 8186 8186 8186 8193 8199 8201 8199 8205 8200 8201 8200 8200 8201 8200 8198 8199 
8151 8142 8143 8142 8147 8149 8159 8153 8155 8162 8159 8171 8175 8171 8169 8177 8180 8174 8183 8186 8182 8179 8177 8171 8178 8179 8180 8176 8175 8183 8184 8189 8180 8180 8181 8180 8183 8184 8185 8189 8187 8181 8183 8173 8170 8171 8171 8176 8178 8182 8182 8172 8177 8176 8180 8182 8180 8185 8186 8189 8187 8184 8186 8184 8185 8187 8191 8189 8196 8201 8201 8200 8202 8199 8197 8200 8196 8195 8200 8205 
8157 8152 8155 8161 8158 8153 8166 8162 8156 8147 8148 8175 8174 8167 8172 8175 8174 8176 8186 8186 8180 8181 8182 8176 8181 8183 8176 8177 8179 8187 8188 8189 8185 8188 8186 8185 8185 8188 8189 8193 8191 8190 8189 8181 8184 8179 8186 8188 8187 8190 8188 8180 8183 8180 8185 8187 8188 8188 8190 8188 8188 8187 8187 8186 8187 8191 8193 8194 8193 8195 8200 8202 8200 8196 8199 8197 8194 8199 8201 8205 
8173 8167 8159 8174 8166 8166 8173 8176 8166 8146 8163 8172 8172 8168 8177 8174 8180 8180 8182 8181 8184 8182 8182 8181 8184 8187 8173 8183 8185 8196 8193 8194 8192 8190 8192 8192 8189 8190 8189 8195 8193 8189 8189 8189 8184 8188 8189 8188 8191 8189 8185 8178 8187 8184 8187 8190 8187 8187 8189 8189 8187 8187 8187 8185 8188 8188 8193 8197 8197 8201 8201 8198 8201 8195 8198 8201 8196 8198 8198 8203 
8182 8168 8168 8174 8180 8171 8181 8175 8170 8158 8166 8174 8172 8173 8173 8177 8176 8180 8188 8189 8189 8183 8182 8182 8179 8187 8178 8187 8184 8186 8188 8191 8187 8187 8189 8191 8191 8190 8191 8193 8193 8189 8191 8190 8186 8193 8189 8192 8191 8189 8187 8181 8184 8185 8185 8186 8185 8188 8190 8191 8189 8186 8186 8186 8188 8191 8191 8194 8197 8199 8197 8195 8197 8197 8194 8195 8198 8204 8196 8198 
8185 8169 8177 8180 8176 8180 8169 8178 8180 8174 8174 8176 8174 8177 8176 8176 8185 8182 8191 8195 8188 8189 8185 8181 8183 8182 8184 8190 8185 8189 8187 8191 8186 8188 8193 8194 8196 8193 8192 8195 8192 8192 8194 8191 8190 8195 8190 8192 8195 8191 8187 8188 8188 8185 8184 8183 8185 8189 8190 8190 8189 8188 8186 8185 8188 8188 8189 8192 8193 8198 8200 8196 8194 8194 8192 8194 8195 8197 8196 8196 
8183 8169 8180 8175 8176 8183 8166 8179 8181 8173 8177 8177 8177 8178 8177 8180 8185 8181 8184 8188 8190 8186 8186 8188 8181 8183 8189 8191 8192 8196 8193 8188 8186 8194 8191 8189 8192 8193 8193 8194 8194 8192 8189 8195 8192 8198 8196 8194 8195 8192 8193 8188 8193 8189 8185 8182 8187 8187 8190 8190 8191 8190 8190 8187 8187 8189 8193 8194 8194 8195 8196 8197 8194 8192 8193 8193 8195 8193 8197 8195 
8180 8183 8181 8178 8171 8178 8173 8182 8179 8176 8181 8176 8182 8180 8178 8180 8184 8183 8186 8194 8193 8192 8184 8187 8191 8189 8193 8192 8196 8195 8198 8193 8189 8191 8189 8188 8193 8193 8193 8192 8193 8195 8194 8197 8196 8195 8196 8194 8197 8195 8196 8191 8191 8190 8186 8185 8186 8188 8190 8194 8191 8191 8187 8186 8185 8187 8192 8192 8191 8192 8193 8196 8193 8192 8189 8193 8196 8195 8192 8190 
8182 8178 8173 8169 8169 8180 8180 8172 8177 8180 8179 8181 8178 8178 8184 8189 8185 8190 8190 8191 8190 8194 8187 8185 8191 8189 8183 8193 8190 8192 8201 8192 8191 8193 8186 8185 8199 8198 8191 8191 8195 8196 8198 8199 8200 8198 8198 8196 8198 8195 8196 8195 8193 8194 8192 8184 8187 8188 8193 8195 8190 8189 8189 8184 8186 8189 8193 8192 8192 8189 8189 8188 8193 8187 8190 8194 8197 8192 8194 8188 
8184 8189 8184 8184 8180 8181 8178 8182 8172 8183 8186 8185 8178 8181 8187 8185 8192 8192 8196 8197 8195 8192 8189 8187 8189 8193 8191 8192 8186 8196 8204 8189 8196 8194 8191 8197 8192 8196 8192 8191 8192 8195 8197 8198 8198 8198 8196 8197 8196 8196 8192 8193 8194 8194 8193 8186 8191 8189 8188 8195 8192 8190 8191 8187 8191 8191 8191 8193 8192 8191 8191 8190 8191 8187 8186 8191 8193 8200 8193 8189 
8192 8178 8186 8187 8183 8187 8181 8183 8180 8180 8184 8188 8186 8186 8191 8189 8193 8191 8197 8198 8188 8192 8188 8189 8189 8190 8191 8191 8187 8197 8188 8190 8190 8191 8192 8194 8192 8193 8193 8192 8192 8196 8195 8200 8199 8193 8196 8194 8194 8199 8195 8198 8197 8194 8189 8191 8190 8188 8191 8192 8194 8194 8188 8189 8191 8194 8194 8190 8194 8189 8189 8189 8191 8187 8187 8189 8193 8192 8191 8193 
8193 8172 8181 8186 8183 8178 8179 8182 8181 8188 8185 8184 8188 8182 8190 8193 8194 8192 8198 8198 8190 8196 8190 8188 8189 8195 8195 8187 8186 8197 8197 8191 8190 8193 8190 8195 8195 8195 8192 8193 8195 8196 8193 8198 8196 8195 8191 8195 8194 8197 8199 8199 8199 8194 8190 8193 8190 8188 8194 8193 8194 8193 8189 8188 8192 8194 8191 8193 8192 8193 8192 8191 8191 8190 8188 8190 8196 8197 8194 8191 
8192 8175 8180 8191 8184 8180 8179 8178 8184 8186 8186 8188 8181 8185 8183 8193 8190 8199 8199 8194 8190 8197 8191 8188 8186 8193 8192 8194 8190 8196 8193 8193 8190 8196 8193 8195 8194 8195 8194 8193 8193 8198 8193 8197 8196 8197 8194 8198 8197 8198 8200 8197 8196 8191 8186 8188 8189 8187 8191 8194 8197 8193 8191 8191 8190 8189 8193 8197 8191 8191 8191 8190 8193 8194 8193 8192 8191 8196 8196 8194 
8189 8184 8184 8178 8179 8191 8183 8189 8182 8191 8189 8184 8193 8193 8195 8193 8195 8196 8199 8199 8196 8199 8194 8186 8184 8193 8196 8188 8191 8190 8191 8189 8186 8190 8187 8189 8187 8185 8185 8182 8185 8189 8188 8190 8192 8195 8193 8194 8198 8198 8197 8197 8193 8191 8184 8191 8189 8187 8191 8195 8192 8193 8190 8193 8191 8192 8192 8193 8191 8193 8190 8195 8195 8194 8194 8195 8193 8196 8196 8197 
8192 8180 8189 8186 8186 8183 8190 8190 8190 8181 8188 8188 8190 8192 8193 8194 8195 8197 8197 8193 8192 8199 8193 8186 8185 8187 8178 8165 8164 8166 8169 8172 8173 8170 8168 8173 8172 8168 8169 8166 8168 8170 8170 8175 8175 8186 8192 8197 8196 8196 8197 8196 8190 8193 8186 8184 8191 8188 8190 8192 8195 8195 8196 8195 8191 8190 8191 8193 8190 8193 8195 8193 8195 8194 8196 8198 8192 8194 8199 8197 
8192 8179 8187 8183 8181 8190 8189 8187 8188 8186 8193 8193 8189 8187 8195 8196 8196 8195 8193 8199 8186 8190 8177 8162 8164 8161 8166 8156 8160 8163 8162 8167 8164 8170 8169 8170 8169 8167 8164 8171 8166 8166 8171 8169 8171 8173 8178 8189 8196 8194 8196 8196 8190 8187 8192 8188 8192 8189 8192 8187 8192 8190 8195 8195 8194 8192 8189 8191 8194 8193 8194 8199 8196 8194 8197 8195 8197 8196 8194 8195 
8191 8185 8180 8172 8178 8180 8179 8190 8191 8186 8189 8194 8188 8187 8186 8194 8197 8195 8192 8193 8171 8170 8169 8166 8159 8155 8156 8164 8156 8162 8160 8164 8161 8165 8166 8167 8167 8163 8164 8173 8173 8170 8170 8169 8172 8174 8177 8178 8187 8192 8195 8192 8189 8192 8193 8191 8194 8190 8190 8187 8195 8191 8195 8191 8193 8190 8190 8194 8192 8195 8195 8196 8192 8198 8196 8197 8196 8194 8197 8196 
8195 8190 8183 8191 8191 8188 8173 8192 8181 8193 8185 8185 8190 8190 8187 8189 8195 8194 8188 8177 8172 8171 8168 8169 8164 8163 8168 8169 8165 8159 8163 8161 8164 8173 8169 8171 8160 8162 8165 8171 8170 8171 8170 8173 8170 8172 8172 8176 8180 8187 8193 8191 8190 8192 8192 8193 8193 8189 8188 8189 8191 8193 8193 8193 8191 8191 8193 8197 8194 8193 8193 8192 8197 8196 8198 8195 8192 8197 8196 8205 
8194 8183 8187 8190 8187 8187 8175 8167 8176 8188 8192 8189 8185 8187 8189 8186 8191 8187 8173 8169 8169 8176 8167 8174 8178 8174 8177 8176 8177 8179 8177 8172 8179 8181 8179 8182 8176 8175 8177 8175 8173 8177 8181 8181 8178 8174 8173 8177 8177 8182 8193 8191 8187 8189 8190 8191 8190 8195 8185 8187 8191 8191 8194 8194 8192 8190 8195 8197 8192 8190 8191 8189 8193 8195 8196 8195 8195 8199 8197 8210 
8198 8194 8187 8188 8190 8190 8187 8175 8189 8194 8192 8185 8189 8187 8189 8191 8191 8183 8166 8178 8169 8174 8179 8175 8183 8183 8183 8186 8191 8183 8186 8199 8195 8196 8191 8192 8194 8193 8183 8185 8187 8187 8191 8187 8188 8181 8178 8174 8176 8181 8189 8194 8186 8189 8192 8192 8191 8192 8189 8190 8189 8192 8194 8193 8197 8194 8193 8198 8190 8190 8188 8190 8194 8192 8195 8193 8194 8202 8199 8206 
8200 8183 8192 8194 8190 8189 8183 8190 8193 8186 8186 8185 8192 8187 8190 8190 8191 8177 8170 8163 8172 8181 8187 8187 8196 8201 8203 8201 8201 8192 8208 8208 8206 8204 8203 8198 8205 8203 8200 8202 8200 8206 8204 8193 8195 8188 8184 8173 8175 8177 8185 8188 8185 8187 8190 8189 8194 8193 8188 8192 8191 8190 8195 8198 8197 8193 8197 8200 8191 8191 8192 8195 8197 8193 8193 8193 8194 8197 8202 8209 
8200 8181 8188 8202 8195 8183 8194 8180 8173 8186 8185 8192 8189 8188 8187 8186 8186 8170 8167 8162 8177 8185 8202 8194 8201 8201 8203 8206 8207 8207 8202 8208 8201 8205 8209 8198 8205 8204 8202 8204 8203 8205 8204 8199 8206 8200 8187 8178 8178 8177 8181 8187 8187 8188 8188 8191 8191 8187 8189 8194 8194 8190 8191 8195 8193 8195 8197 8196 8192 8186 8186 8191 8195 8194 8194 8195 8195 8197 8199 8208 
8194 8191 8180 8194 8188 8196 8187 8179 8183 8190 8183 8191 8181 8186 8183 8186 8183 8171 8172 8162 8178 8188 8202 8202 8198 8199 8206 8203 8205 8208 8201 8208 8199 8205 8204 8207 8200 8203 8200 8205 8199 8200 8198 8202 8206 8205 8194 8183 8182 8179 8175 8188 8187 8190 8190 8187 8190 8188 8192 8193 8190 8189 8192 8194 8195 8194 8197 8193 8192 8193 8187 8190 8193 8193 8193 8195 8198 8197 8198 8210 
8200 8194 8195 8198 8200 8181 8190 8190 8186 8193 8187 8191 8191 8184 8187 8185 8180 8177 8177 8173 8182 8198 8207 8208 8198 8205 8208 8206 8205 8206 8203 8207 8203 8203 8204 8209 8195 8197 8204 8199 8201 8201 8201 8206 8205 8204 8202 8185 8184 8176 8174 8184 8189 8191 8195 8190 8192 8192 8198 8196 8195 8193 8193 8195 8199 8199 8196 8193 8189 8191 8190 8190 8191 8195 8189 8197 8203 8199 8202 8212 
8194 8189 8188 8202 8192 8197 8193 8191 8194 8200 8195 8197 8192 8188 8192 8180 8176 8173 8174 8173 8184 8201 8204 8207 8203 8206 8207 8206 8205 8205 8202 8205 8203 8204 8200 8201 8201 8199 8204 8197 8199 8200 8199 8205 8204 8199 8205 8191 8180 8170 8167 8180 8191 8193 8195 8195 8194 8193 8196 8188 8193 8187 8192 8196 8194 8198 8195 8193 8188 8192 8192 8189 8187 8189 8195 8197 8194 8205 8204 8205 
8195 8185 8194 8202 8189 8202 8201 8191 8196 8189 8197 8197 8194 8193 8189 8190 8175 8173 8171 8175 8184 8205 8203 8208 8208 8206 8207 8208 8200 8205 8204 8208 8205 8201 8199 8193 8201 8208 8207 8197 8201 8198 8202 8206 8201 8201 8199 8191 8173 8157 8163 8180 8192 8192 8196 8195 8193 8190 8188 8183 8189 8187 8196 8193 8197 8199 8197 8192 8190 8191 8193 8192 8189 8188 8198 8191 8193 8207 8203 8208 
8199 8194 8191 8204 8195 8203 8194 8193 8199 8189 8200 8192 8190 8191 8191 8189 8171 8164 8166 8169 8183 8202 8206 8210 8202 8203 8210 8208 8200 8199 8204 8208 8203 8210 8203 8192 8199 8204 8201 8198 8200 8199 8204 8202 8203 8204 8206 8194 8178 8168 8170 8185 8191 8191 8193 8190 8190 8187 8188 8186 8185 8192 8198 8198 8200 8196 8199 8195 8191 8187 8190 8192 8192 8194 8193 8188 8203 8204 8203 8209 
8205 8191 8189 8196 8188 8199 8186 8194 8199 8190 8187 8195 8195 8190 8192 8191 8167 8155 8162 8169 8184 8211 8208 8213 8207 8206 8208 8209 8206 8207 8194 8202 8208 8201 8210 8208 8201 8199 8205 8203 8200 8202 8200 8209 8208 8209 8210 8194 8181 8175 8179 8187 8191 8188 8192 8184 8187 8191 8193 8192 8192 8194 8196 8198 8201 8193 8195 8190 8195 8191 8193 8196 8193 8192 8194 8190 8201 8206 8206 8210 
8202 8198 8193 8196 8184 8201 8188 8191 8198 8197 8191 8193 8184 8193 8187 8189 8162 8153 8156 8164 8186 8209 8209 8212 8211 8206 8211 8207 8207 8208 8191 8203 8205 8195 8205 8204 8205 8196 8204 8202 8200 8204 8194 8205 8208 8211 8211 8197 8179 8177 8179 8190 8193 8191 8189 8185 8192 8188 8193 8187 8192 8190 8191 8195 8198 8192 8193 8193 8194 8194 8192 8193 8187 8192 8196 8198 8194 8205 8200 8209 
8206 8187 8206 8201 8198 8198 8185 8196 8198 8194 8197 8195 8183 8194 8192 8184 8158 8156 8157 8160 8188 8210 8206 8205 8210 8209 8209 8213 8209 8207 8197 8202 8194 8201 8206 8201 8204 8209 8204 8208 8203 8207 8204 8208 8213 8209 8210 8192 8179 8179 8187 8187 8194 8189 8192 8187 8194 8189 8186 8187 8196 8194 8194 8198 8200 8196 8196 8195 8195 8200 8198 8197 8191 8200 8206 8197 8202 8206 8199 8213 
8205 8197 8199 8195 8199 8193 8199 8199 8193 8191 8192 8194 8189 8187 8191 8183 8165 8149 8162 8166 8188 8209 8206 8200 8209 8209 8201 8208 8207 8206 8206 8197 8187 8201 8209 8206 8208 8212 8205 8211 8206 8204 8204 8207 8203 8199 8186 8184 8181 8192 8194 8189 8187 8181 8188 8188 8193 8191 8186 8190 8199 8201 8202 8196 8198 8194 8197 8191 8195 8197 8190 8194 8185 8198 8193 8192 8198 8202 8203 8205 
8209 8196 8196 8199 8197 8197 8199 8201 8195 8185 8183 8196 8192 8191 8193 8191 8186 8167 8157 8160 8176 8201 8206 8195 8208 8200 8199 8198 8204 8205 8203 8198 8208 8204 8202 8205 8204 8204 8201 8206 8203 8200 8195 8192 8183 8174 8168 8174 8189 8202 8194 8193 8189 8189 8194 8186 8195 8195 8191 8197 8197 8202 8203 8199 8198 8193 8197 8192 8197 8196 8197 8193 8191 8191 8190 8202 8198 8202 8201 8205 
8212 8200 8202 8197 8196 8196 8199 8191 8195 8185 8189 8194 8194 8189 8190 8193 8194 8183 8171 8153 8153 8159 8171 8167 8176 8176 8183 8183 8183 8192 8185 8180 8187 8193 8188 8185 8182 8176 8159 8162 8165 8163 8163 8156 8164 8168 8184 8194 8200 8198 8187 8193 8192 8191 8197 8191 8191 8199 8195 8196 8198 8200 8202 8193 8200 8202 8201 8189 8190 8189 8194 8196 8192 8201 8199 8198 8197 8195 8200 8197 
8207 8197 8197 8198 8200 8199 8201 8193 8196 8194 8193 8199 8191 8190 8190 8193 8189 8189 8186 8175 8153 8161 8162 8153 8153 8154 8154 8154 8154 8148 8153 8146 8154 8166 8166 8151 8155 8153 8142 8154 8152 8155 8156 8159 8174 8200 8199 8191 8199 8196 8197 8197 8196 8197 8187 8199 8191 8196 8197 8197 8193 8196 8194 8196 8202 8202 8194 8199 8196 8194 8194 8197 8195 8201 8196 8199 8198 8203 8200 8202 
8204 8199 8195 8201 8201 8199 8195 8197 8192 8191 8196 8194 8192 8187 8192 8183 8193 8189 8190 8192 8186 8182 8185 8186 8187 8174 8173 8171 8175 8165 8175 8170 8175 8172 8174 8181 8181 8181 8181 8192 8186 8190 8196 8202 8199 8192 8198 8192 8199 8193 8195 8191 8196 8196 8189 8200 8193 8198 8192 8188 8193 8196 8200 8195 8203 8199 8205 8200 8196 8190 8187 8189 8193 8194 8196 8198 8198 8198 8188 8199 
8205 8201 8211 8200 8200 8201 8199 8192 8195 8197 8196 8189 8191 8188 8188 8184 8186 8191 8195 8191 8189 8185 8193 8197 8193 8194 8203 8204 8207 8196 8202 8207 8203 8187 8197 8207 8209 8201 8205 8206 8199 8195 8201 8200 8195 8197 8191 8194 8194 8197 8195 8196 8197 8195 8199 8198 8199 8200 8202 8194 8194 8193 8196 8195 8203 8199 8201 8201 8192 8194 8189 8189 8188 8195 8200 8196 8197 8191 8195 8206 
8200 8200 8213 8187 8197 8203 8192 8196 8193 8190 8188 8194 8187 8184 8193 8185 8186 8195 8198 8196 8191 8191 8191 8194 8190 8192 8198 8200 8199 8209 8204 8198 8204 8193 8196 8202 8202 8192 8202 8197 8196 8197 8203 8196 8194 8193 8191 8192 8194 8192 8200 8194 8194 8195 8196 8203 8199 8195 8197 8201 8193 8202 8196 8200 8206 8199 8197 8191 8193 8190 8197 8188 8185 8194 8199 8195 8196 8193 8191 8192 
8203 8191 8207 8189 8200 8198 8188 8192 8194 8196 8187 8195 8192 8189 8197 8194 8190 8197 8198 8196 8196 8187 8188 8194 8195 8193 8192 8196 8199 8198 8193 8197 8198 8191 8195 8202 8203 8196 8189 8195 8196 8195 8199 8188 8191 8188 8191 8198 8194 8199 8198 8197 8195 8202 8207 8207 8198 8196 8195 8200 8194 8202 8199 8208 8203 8205 8199 8190 8196 8188 8197 8196 8189 8197 8192 8199 8196 8198 8190 8197 
8203 8192 8194 8190 8187 8197 8192 8194 8196 8195 8196 8194 8192 8197 8190 8189 8189 8201 8190 8188 8194 8184 8190 8194 8190 8189 8185 8195 8195 8193 8192 8195 8196 8183 8192 8198 8196 8196 8186 8189 8191 8191 8193 8191 8192 8201 8191 8194 8200 8203 8200 8198 8194 8199 8199 8206 8193 8193 8196 8200 8192 8205 8203 8205 8209 8205 8203 8189 8191 8190 8189 8198 8195 8190 8200 8197 8199 8198 8193 8196 
8208 8195 8203 8195 8200 8195 8197 8197 8197 8195 8192 8201 8202 8201 8187 8188 8192 8191 8191 8194 8193 8185 8187 8193 8196 8187 8186 8193 8193 8189 8188 8193 8192 8189 8188 8189 8189 8191 8193 8192 8192 8188 8189 8196 8197 8201 8196 8203 8197 8193 8203 8196 8207 8209 8205 8204 8204 8196 8203 8203 8206 8208 8204 8205 8204 8206 8198 8191 8189 8194 8199 8197 8193 8198 8198 8194 8200 8199 8191 8196 
8206 8203 8198 8192 8195 8194 8196 8179 8197 8197 8194 8193 8196 8198 8191 8190 8194 8199 8191 8197 8190 8184 8188 8189 8183 8197 8186 8188 8186 8192 8195 8188 8192 8185 8182 8178 8187 8189 8189 8189 8189 8197 8190 8201 8197 8196 8204 8202 8198 8193 8200 8186 8197 8201 8205 8200 8200 8194 8199 8198 8202 8200 8207 8207 8203 8207 8197 8199 8196 8194 8193 8192 8195 8191 8190 8199 8197 8198 8193 8193 
8204 8195 8194 8197 8198 8192 8195 8193 8191 8191 8194 8189 8199 8196 8196 8198 8199 8196 8194 8196 8192 8194 8195 8192 8188 8192 8195 8192 8191 8189 8192 8185 8188 8193 8194 8191 8188 8184 8186 8185 8191 8190 8192 8199 8193 8197 8206 8204 8197 8198 8200 8190 8195 8191 8207 8202 8205 8194 8204 8200 8202 8203 8197 8209 8201 8209 8204 8198 8198 8200 8195 8189 8196 8196 8190 8197 8198 8197 8194 8191 
8208 8205 8184 8198 8195 8195 8202 8194 8190 8191 8192 8200 8195 8195 8192 8198 8200 8194 8196 8189 8195 8195 8193 8194 8188 8184 8184 8189 8191 8191 8187 8186 8190 8190 8189 8197 8187 8191 8189 8182 8191 8185 8190 8194 8200 8201 8196 8204 8198 8201 8202 8195 8203 8198 8197 8203 8200 8200 8203 8197 8200 8200 8195 8200 8199 8201 8199 8192 8194 8196 8194 8188 8198 8194 8195 8193 8195 8196 8193 8191 
8201 8204 8196 8198 8193 8196 8194 8195 8203 8202 8204 8193 8201 8182 8192 8199 8199 8197 8194 8195 8200 8189 8188 8197 8196 8194 8186 8187 8190 8194 8192 8194 8193 8196 8194 8195 8186 8185 8185 8185 8194 8199 8196 8197 8199 8193 8200 8203 8203 8203 8209 8196 8204 8196 8204 8200 8197 8202 8200 8193 8197 8199 8195 8200 8202 8203 8201 8191 8199 8194 8190 8200 8191 8190 8197 8201 8195 8195 8192 8194 
8206 8190 8200 8201 8194 8200 8206 8197 8204 8185 8197 8197 8197 8187 8196 8192 8196 8192 8194 8192 8194 8190 8195 8190 8197 8196 8192 8193 8191 8192 8198 8192 8202 8190 8196 8192 8199 8198 8192 8190 8203 8202 8202 8195 8194 8196 8205 8199 8197 8206 8201 8201 8203 8204 8201 8205 8197 8200 8192 8186 8196 8203 8201 8200 8192 8201 8199 8182 8197 8183 8197 8191 8196 8191 8199 8201 8194 8191 8197 8199 
8203 8192 8197 8196 8189 8203 8209 8191 8201 8192 8200 8206 8202 8197 8190 8195 8195 8200 8203 8195 8182 8197 8199 8195 8196 8197 8199 8195 8190 8187 8197 8195 8204 8189 8196 8193 8198 8198 8190 8201 8198 8202 8192 8198 8197 8203 8198 8208 8198 8190 8200 8206 8200 8199 8199 8197 8197 8205 8198 8191 8194 8196 8197 8198 8185 8190 8194 8195 8197 8199 8193 8195 8206 8201 8197 8198 8200 8197 8193 8199 
8200 8179 8188 8188 8195 8191 8204 8191 8193 8194 8198 8193 8196 8202 8195 8199 8196 8193 8202 8191 8194 8193 8193 8198 8189 8191 8188 8187 8196 8192 8201 8195 8190 8196 8197 8195 8193 8204 8198 8205 8197 8202 8203 8187 8200 8199 8206 8205 8204 8206 8198 8205 8204 8203 8175 8201 8202 8199 8190 8185 8193 8192 8189 8190 8182 8189 8195 8194 8198 8204 8196 8194 8206 8202 8198 8187 8195 8194 8190 8190 
8199 8190 8186 8192 8191 8193 8191 8204 8183 8184 8200 8196 8203 8202 8197 8189 8194 8196 8203 8197 8197 8198 8204 8201 8186 8199 8197 8192 8199 8205 8180 8208 8194 8189 8200 8188 8195 8198 8203 8205 8201 8200 8199 8196 8198 8202 8197 8207 8207 8200 8202 8201 8206 8201 8201 8204 8198 8197 8185 8201 8195 8199 8190 8181 8184 8196 8197 8189 8207 8194 8202 8198 8198 8186 8198 8197 8197 8197 8192 8190 
8193 8186 8187 8193 8192 8186 8187 8201 8197 8193 8185 8190 8189 8194 8200 8179 8193 8202 8197 8200 8190 8196 8196 8196 8196 8199 8199 8201 8197 8189 8197 8203 8194 8191 8197 8192 8201 8194 8193 8203 8197 8197 8190 8205 8200 8196 8200 8203 8196 8202 8193 8205 8188 8205 8205 8195 8201 8201 8202 8200 8197 8196 8193 8180 8188 8198 8188 8189 8204 8189 8197 8203 8196 8206 8198 8190 8189 8191 8196 8194 
8192 8186 8194 8192 8193 8193 8194 8198 8185 8197 8189 8195 8190 8199 8196 8192 8198 8203 8199 8192 8197 8196 8196 8199 8202 8197 8201 8199 8191 8190 8198 8191 8190 8197 8199 8194 8201 8198 8197 8197 8196 8198 8193 8203 8201 8202 8202 8202 8210 8205 8204 8206 8202 8189 8207 8200 8202 8196 8195 8195 8198 8199 8197 8186 8190 8199 8186 8197 8201 8191 8197 8204 8200 8206 8191 8188 8189 8186 8197 8190 
8194 8196 8185 8189 8184 8183 8193 8194 8184 8198 8187 8201 8195 8202 8195 8188 8196 8194 8201 8198 8197 8199 8193 8196 8205 8193 8197 8193 8195 8190 8191 8186 8190 8192 8195 8190 8199 8200 8195 8197 8197 8191 8201 8198 8202 8204 8192 8205 8207 8208 8204 8209 8198 8188 8204 8200 8205 8194 8191 8197 8199 8192 8183 8186 8197 8181 8187 8183 8192 8198 8199 8193 8193 8196 8187 8197 8180 8191 8194 8190 
8194 8191 8196 8188 8192 8189 8197 8191 8183 8207 8201 8195 8206 8194 8194 8193 8199 8197 8195 8193 8200 8198 8194 8200 8196 8168 8195 8195 8199 8194 8181 8194 8200 8190 8202 8196 8198 8199 8192 8196 8201 8200 8203 8204 8205 8208 8190 8203 8211 8207 8206 8200 8206 8203 8200 8201 8203 8199 8200 8198 8194 8190 8188 8188 8195 8189 8188 8195 8198 8185 8202 8198 8202 8195 8198 8190 8183 8186 8185 8183 
8185 8180 8197 8184 8182 8180 8196 8183 8195 8204 8200 8189 8200 8198 8197 8187 8187 8202 8193 8199 8203 8198 8194 8198 8195 8180 8169 8195 8199 8198 8196 8191 8197 8193 8190 8199 8199 8198 8190 8196 8191 8202 8198 8200 8204 8195 8202 8201 8205 8208 8201 8204 8187 8195 8202 8200 8194 8199 8192 8193 8191 8183 8190 8190 8181 8198 8189 8196 8188 8191 8200 8199 8194 8189 8191 8183 8187 8182 8174 8183 
8199 8195 8201 8162 8191 8186 8200 8184 8198 8194 8194 8191 8191 8197 8199 8198 8190 8202 8201 8202 8189 8192 8190 8191 8207 8191 8197 8194 8197 8193 8188 8199 8195 8192 8174 8189 8195 8184 8191 8198 8201 8191 8183 8199 8202 8196 8203 8205 8201 8201 8202 8203 8190 8191 8200 8192 8197 8191 8191 8191 8188 8192 8193 8183 8189 8191 8188 8197 8197 8188 8194 8188 8194 8183 8187 8186 8187 8171 8178 8171 
8202 8185 8180 8184 8186 8180 8172 8198 8201 8190 8198 8189 8176 8198 8190 8178 8176 8190 8196 8189 8201 8178 8187 8187 8204 8193 8198 8194 8188 8192 8197 8178 8181 8195 8182 8192 8188 8194 8188 8200 8196 8193 8185 8182 8189 8192 8204 8199 8202 8200 8198 8192 8193 8195 8190 8191 8195 8196 8197 8189 8195 8184 8183 8183 8187 8189 8186 8196 8195 8200 8189 8195 8192 8178 8188 8187 8182 8169 8168 8171 
8201 8190 8187 8184 8187 8186 8181 8200 8202 8199 8198 8179 8193 8191 8195 8189 8192 8193 8192 8195 8192 8192 8195 8190 8203 8201 8201 8198 8197 8191 8175 8184 8190 8194 8197 8195 8187 8197 8193 8191 8199 8202 8194 8195 8196 8198 8205 8204 8207 8203 8201 8191 8189 8194 8191 8194 8193 8198 8196 8190 8189 8187 8187 8193 8192 8187 8192 8197 8197 8197 8195 8195 8196 8198 8187 8184 8163 8173 8178 8161 


