P2
80 60
8266
8189 8180 8194 8195 8203 8195 8194 8192 8195 8192 8199 8200 8197 8201 8202 8201 8198 8202 8204 8206 8205 8207 8204 8203 8205 8212 8213 8214 8218 8220 8223 8225 8228 8230 8229 8232 8229 8231 8234 8234 8233 8235 8229 8230 8220 8218 8220 8225 8225 8227 8227 8227 8227 8226 8223 8225 8227 8226 8232 8236 8239 8242 8242 8244 8241 8243 8246 8248 8255 8256 8254 8257 8262 8261 8261 8264 8259 8258 8250 8255 
8181 8192 8201 8199 8202 8200 8199 8199 8194 8210 8205 8208 8204 8207 8204 8211 8213 8218 8217 8225 8229 8228 8229 8221 8231 8224 8226 8225 8229 8225 8230 8233 8231 8234 8231 8230 8231 8232 8237 8237 8235 8236 8228 8227 8222 8219 8221 8223 8222 8227 8222 8223 8225 8227 8225 8226 8227 8225 8231 8234 8238 8240 8241 8238 8241 8241 8246 8249 8251 8256 8255 8256 8260 8261 8261 8259 8256 8262 8257 8255 
8172 8183 8186 8192 8208 8196 8201 8215 8216 8223 8228 8224 8220 8226 8229 8228 8236 8236 8233 8238 8232 8236 8232 8226 8232 8234 8231 8230 8233 8225 8227 8232 8230 8237 8234 8228 8230 8237 8236 8235 8234 8232 8228 8227 8220 8217 8220 8222 8222 8220 8221 8220 8223 8228 8229 8223 8230 8228 8230 8231 8236 8240 8241 8240 8240 8239 8242 8249 8254 8255 8255 8256 8255 8255 8258 8253 8260 8259 8259 8259 
8192 8182 8203 8189 8204 8200 8209 8223 8233 8233 8229 8221 8230 8231 8230 8232 8237 8236 8237 8230 8235 8230 8221 8229 8237 8235 8236 8233 8233 8234 8230 8234 8236 8233 8239 8231 8235 8234 8233 8236 8235 8231 8229 8223 8212 8214 8220 8220 8224 8219 8217 8219 8226 8226 8230 8228 8227 8227 8230 8229 8239 8242 8238 8238 8239 8239 8240 8246 8251 8255 8253 8254 8253 8256 8254 8254 8258 8258 8255 8259 
8190 8184 8203 8192 8206 8205 8206 8206 8213 8227 8229 8223 8226 8230 8230 8232 8235 8234 8237 8236 8230 8230 8225 8227 8232 8235 8232 8231 8229 8235 8232 8235 8233 8233 8231 8231 8230 8235 8232 8231 8236 8235 8226 8219 8211 8214 8216 8219 8222 8223 8219 8220 8226 8225 8231 8232 8227 8232 8235 8237 8239 8240 8240 8238 8238 8240 8238 8245 8251 8251 8252 8255 8253 8254 8252 8254 8257 8255 8253 8258 
8205 8198 8200 8203 8208 8207 8213 8208 8212 8220 8218 8226 8229 8230 8227 8231 8235 8231 8237 8238 8236 8231 8232 8224 8234 8235 8233 8227 8229 8234 8235 8236 8233 8234 8233 8232 8236 8236 8235 8239 8237 8234 8235 8225 8224 8223 8225 8230 8231 8235 8233 8229 8231 8231 8236 8237 8236 8240 8242 8244 8241 8239 8240 8239 8239 8242 8242 8242 8248 8252 8252 8252 8253 8249 8248 8250 8252 8250 8254 8261 
8214 8211 8214 8220 8214 8208 8225 8219 8211 8201 8205 8230 8231 8225 8230 8234 8232 8232 8240 8242 8235 8237 8235 8229 8237 8239 8228 8229 8231 8241 8238 8241 8237 8237 8238 8238 8237 8238 8240 8244 8245 8237 8241 8235 8235 8233 8238 8240 8238 8242 8241 8232 8237 8238 8239 8243 8244 8245 8242 8242 8242 8240 8242 8241 8240 8244 8245 8246 8243 8247 8251 8252 8254 8248 8251 8251 8248 8252 8253 8263 
8230 8229 8221 8233 8222 8225 8230 8234 8224 8205 8222 8225 8230 8228 8235 8234 8239 8240 8240 8239 8240 8239 8238 8238 8240 8242 8229 8234 8236 8248 8242 8244 8244 8242 8243 8241 8238 8241 8242 8246 8244 8240 8243 8242 8236 8237 8239 8241 8247 8243 8240 8234 8242 8241 8243 8243 8242 8244 8244 8242 8240 8242 8241 8241 8240 8244 8245 8248 8245 8250 8251 8249 8253 8250 8253 8252 8249 8251 8249 8259 
8240 8232 8228 8234 8238 8229 8239 8232 8229 8218 8222 8229 8228 8233 8231 8235 8237 8239 8248 8248 8245 8237 8237 8238 8235 8241 8230 8238 8238 8235 8239 8242 8238 8239 8240 8242 8245 8241 8242 8244 8242 8242 8240 8238 8240 8239 8242 8244 8244 8243 8241 8238 8242 8241 8242 8241 8242 8245 8244 8245 8241 8241 8241 8239 8243 8245 8243 8244 8249 8250 8248 8246 8249 8247 8249 8251 8254 8254 8251 8255 
8240 8231 8237 8237 8237 8238 8228 8238 8235 8232 8229 8231 8232 8233 8230 8230 8240 8240 8247 8250 8241 8237 8237 8232 8235 8236 8235 8240 8236 8239 8236 8240 8236 8238 8242 8243 8245 8243 8244 8246 8244 8243 8245 8240 8242 8244 8243 8244 8246 8242 8242 8244 8243 8242 8241 8239 8244 8246 8244 8242 8243 8243 8239 8238 8239 8241 8243 8248 8245 8247 8249 8250 8249 8248 8247 8248 8249 8254 8249 8251 
8240 8227 8236 8232 8233 8238 8225 8236 8234 8229 8231 8230 8233 8236 8231 8234 8239 8236 8239 8243 8242 8239 8236 8237 8235 8236 8241 8239 8242 8245 8240 8235 8236 8241 8239 8237 8241 8241 8243 8244 8245 8243 8240 8247 8248 8244 8248 8243 8247 8246 8244 8241 8245 8243 8240 8238 8243 8242 8245 8243 8244 8242 8241 8240 8239 8240 8244 8246 8244 8246 8247 8249 8245 8243 8248 8246 8248 8247 8250 8246 
8234 8239 8240 8234 8227 8235 8232 8237 8235 8232 8237 8228 8237 8233 8233 8235 8238 8239 8241 8247 8246 8242 8236 8238 8243 8238 8242 8242 8245 8244 8248 8239 8235 8238 8236 8235 8241 8242 8244 8241 8243 8243 8245 8247 8245 8244 8248 8245 8245 8247 8249 8246 8246 8243 8240 8239 8241 8243 8243 8246 8243 8242 8241 8239 8240 8241 8243 8245 8243 8241 8244 8245 8245 8243 8243 8243 8250 8248 8247 8248 
8238 8237 8228 8227 8228 8238 8236 8227 8231 8236 8232 8232 8231 8233 8233 8241 8241 8244 8245 8245 8241 8245 8238 8236 8241 8239 8232 8242 8240 8240 8251 8238 8238 8242 8234 8232 8244 8246 8240 8241 8244 8244 8248 8247 8250 8247 8247 8247 8246 8246 8248 8250 8246 8246 8246 8241 8239 8241 8244 8246 8240 8241 8241 8236 8240 8243 8246 8245 8244 8239 8238 8240 8244 8244 8242 8244 8252 8245 8247 8242 
8241 8251 8239 8241 8240 8241 8235 8238 8227 8238 8241 8237 8234 8234 8241 8236 8245 8249 8248 8248 8246 8243 8238 8239 8239 8242 8244 8240 8236 8243 8249 8235 8241 8245 8237 8244 8240 8243 8241 8241 8241 8242 8248 8247 8248 8246 8245 8247 8247 8248 8246 8245 8250 8247 8245 8240 8244 8245 8243 8246 8246 8242 8242 8241 8241 8246 8244 8247 8244 8240 8241 8242 8246 8240 8241 8242 8246 8249 8245 8242 
8245 8239 8245 8244 8239 8242 8237 8239 8233 8238 8240 8238 8240 8242 8242 8241 8245 8244 8252 8248 8242 8242 8238 8240 8242 8243 8242 8238 8237 8244 8237 8237 8238 8239 8240 8240 8242 8242 8241 8239 8238 8244 8245 8251 8246 8243 8246 8245 8246 8247 8247 8249 8248 8249 8243 8244 8245 8242 8245 8244 8244 8244 8244 8244 8243 8244 8244 8244 8245 8240 8238 8240 8242 8240 8239 8240 8243 8245 8246 8247 
8247 8232 8238 8244 8240 8235 8235 8236 8237 8241 8240 8238 8239 8237 8246 8245 8247 8246 8251 8250 8242 8246 8240 8238 8237 8243 8245 8234 8234 8244 8245 8238 8240 8242 8238 8240 8242 8246 8239 8239 8243 8245 8244 8245 8246 8245 8243 8245 8247 8248 8250 8249 8250 8247 8240 8244 8240 8242 8246 8244 8246 8243 8241 8241 8246 8245 8243 8242 8242 8242 8241 8241 8240 8243 8241 8243 8246 8249 8248 8241 
8245 8232 8233 8244 8238 8235 8234 8233 8240 8239 8243 8240 8234 8237 8234 8245 8241 8249 8250 8243 8239 8244 8239 8236 8238 8241 8240 8240 8237 8241 8242 8240 8237 8244 8238 8240 8241 8243 8242 8238 8241 8246 8245 8245 8245 8243 8243 8243 8248 8247 8251 8247 8249 8244 8239 8239 8240 8241 8243 8246 8246 8245 8241 8242 8243 8242 8242 8247 8244 8241 8240 8241 8244 8245 8243 8244 8242 8249 8248 8248 
8244 8238 8241 8234 8236 8249 8237 8244 8236 8244 8243 8236 8244 8247 8245 8242 8245 8245 8250 8251 8245 8246 8244 8237 8235 8245 8245 8235 8239 8237 8240 8236 8235 8238 8235 8238 8235 8233 8233 8230 8235 8237 8239 8241 8245 8243 8245 8245 8246 8247 8249 8248 8245 8241 8238 8240 8239 8238 8243 8246 8243 8244 8242 8244 8242 8241 8241 8245 8245 8244 8240 8246 8248 8245 8245 8244 8244 8246 8247 8250 
8242 8236 8242 8240 8240 8239 8245 8248 8243 8234 8244 8238 8243 8240 8243 8244 8244 8248 8248 8244 8241 8248 8242 8235 8235 8236 8229 8213 8213 8216 8218 8221 8220 8219 8219 8219 8219 8219 8216 8214 8217 8220 8220 8226 8228 8236 8242 8247 8248 8245 8248 8245 8240 8245 8239 8237 8240 8239 8241 8243 8245 8246 8246 8246 8243 8240 8241 8244 8243 8243 8245 8244 8246 8243 8247 8247 8243 8245 8252 8251 
8244 8235 8240 8239 8237 8245 8244 8244 8243 8241 8246 8241 8238 8238 8248 8247 8248 8248 8244 8251 8237 8239 8225 8212 8215 8211 8213 8205 8211 8212 8213 8217 8216 8219 8218 8219 8218 8215 8214 8217 8217 8217 8222 8219 8223 8224 8232 8238 8246 8245 8246 8247 8240 8242 8243 8239 8241 8243 8243 8239 8243 8244 8247 8245 8245 8242 8241 8241 8247 8248 8242 8250 8249 8243 8248 8246 8247 8248 8251 8253 
8244 8243 8237 8227 8234 8237 8232 8245 8244 8239 8241 8245 8239 8238 8238 8245 8249 8246 8244 8246 8223 8218 8220 8215 8211 8204 8205 8212 8206 8212 8209 8212 8211 8214 8214 8216 8215 8212 8214 8220 8219 8218 8219 8219 8222 8224 8229 8228 8235 8243 8247 8243 8240 8241 8243 8242 8243 8245 8243 8238 8243 8245 8245 8242 8244 8242 8245 8244 8244 8248 8247 8246 8243 8246 8249 8250 8245 8246 8250 8250 
8245 8245 8235 8245 8246 8243 8226 8245 8235 8247 8240 8235 8243 8241 8236 8240 8245 8244 8238 8231 8224 8221 8216 8218 8213 8213 8217 8219 8216 8206 8211 8209 8215 8220 8220 8222 8211 8213 8216 8221 8218 8219 8219 8219 8220 8225 8224 8226 8227 8237 8243 8240 8242 8242 8242 8243 8243 8242 8239 8241 8240 8244 8243 8244 8244 8240 8242 8247 8247 8246 8243 8243 8246 8245 8250 8245 8244 8248 8246 8257 
8244 8237 8241 8244 8243 8239 8227 8222 8228 8242 8244 8239 8239 8238 8239 8237 8240 8240 8225 8222 8219 8224 8217 8221 8227 8222 8227 8225 8225 8223 8226 8219 8224 8228 8229 8230 8224 8223 8227 8222 8221 8228 8228 8228 8230 8227 8224 8225 8224 8228 8244 8240 8237 8240 8240 8241 8241 8244 8237 8237 8241 8241 8244 8243 8244 8243 8244 8247 8243 8241 8242 8241 8242 8245 8247 8246 8246 8250 8250 8264 
8249 8247 8242 8240 8244 8242 8237 8227 8242 8246 8243 8237 8240 8240 8241 8241 8242 8236 8217 8225 8219 8224 8229 8227 8231 8232 8233 8231 8238 8229 8233 8245 8242 8244 8238 8238 8240 8240 8230 8234 8235 8235 8237 8235 8235 8230 8227 8224 8222 8229 8238 8242 8237 8239 8240 8241 8242 8244 8240 8241 8238 8241 8244 8243 8246 8244 8244 8247 8243 8243 8239 8241 8245 8242 8247 8242 8245 8251 8251 8257 
8250 8235 8245 8246 8244 8241 8234 8245 8245 8240 8239 8236 8243 8240 8241 8240 8241 8228 8218 8212 8221 8230 8238 8236 8242 8243 8245 8245 8248 8238 8255 8254 8252 8254 8250 8246 8251 8248 8244 8248 8247 8253 8252 8243 8245 8237 8231 8226 8225 8226 8234 8239 8235 8241 8239 8240 8243 8243 8241 8243 8242 8241 8245 8247 8245 8241 8245 8251 8246 8243 8243 8248 8248 8241 8242 8244 8246 8249 8255 8257 
8253 8235 8240 8253 8249 8237 8246 8232 8228 8240 8237 8242 8239 8240 8238 8239 8237 8219 8214 8209 8223 8234 8250 8241 8245 8245 8245 8249 8250 8252 8250 8256 8248 8251 8253 8244 8252 8253 8247 8251 8253 8254 8254 8247 8253 8246 8236 8228 8228 8227 8230 8238 8239 8237 8238 8239 8241 8239 8240 8244 8242 8239 8241 8244 8242 8244 8246 8248 8245 8236 8236 8240 8248 8244 8244 8244 8245 8248 8249 8261 
8247 8246 8235 8246 8241 8250 8241 8234 8236 8241 8234 8241 8233 8236 8234 8237 8233 8221 8220 8212 8228 8235 8246 8246 8242 8244 8251 8247 8251 8255 8247 8255 8244 8250 8249 8247 8246 8249 8250 8252 8249 8249 8250 8253 8256 8252 8241 8230 8231 8228 8224 8237 8238 8241 8241 8239 8241 8242 8244 8245 8239 8240 8241 8244 8243 8242 8245 8241 8243 8243 8241 8241 8241 8243 8242 8245 8250 8249 8251 8261 
8251 8248 8246 8252 8252 8235 8243 8242 8236 8242 8236 8241 8240 8236 8237 8235 8232 8225 8224 8222 8231 8241 8250 8248 8242 8248 8250 8252 8248 8249 8249 8250 8247 8251 8245 8250 8242 8244 8248 8247 8249 8253 8251 8255 8252 8250 8250 8234 8232 8226 8220 8235 8240 8240 8243 8240 8243 8244 8248 8246 8244 8246 8242 8243 8250 8247 8247 8238 8238 8243 8243 8242 8238 8243 8241 8246 8253 8250 8251 8264 
8246 8243 8240 8254 8244 8247 8245 8244 8245 8251 8244 8246 8243 8236 8241 8231 8227 8222 8224 8222 8232 8246 8246 8250 8248 8250 8252 8252 8253 8249 8247 8249 8247 8250 8248 8248 8249 8247 8251 8245 8248 8249 8250 8256 8257 8247 8252 8239 8230 8219 8217 8234 8242 8244 8245 8244 8244 8244 8247 8239 8244 8237 8241 8242 8242 8246 8245 8242 8238 8244 8243 8241 8236 8240 8243 8248 8243 8256 8252 8256 
8245 8240 8245 8255 8240 8249 8249 8244 8248 8243 8247 8245 8240 8240 8236 8240 8222 8222 8220 8225 8234 8248 8246 8252 8252 8249 8255 8254 8245 8253 8248 8249 8247 8247 8249 8246 8253 8255 8252 8245 8251 8244 8252 8257 8250 8251 8248 8240 8225 8210 8214 8233 8245 8244 8244 8245 8244 8241 8238 8233 8237 8236 8244 8243 8246 8246 8243 8243 8239 8242 8242 8244 8240 8239 8248 8241 8244 8257 8254 8256 
8247 8246 8242 8253 8248 8254 8241 8246 8251 8242 8250 8240 8236 8243 8242 8239 8221 8212 8215 8221 8233 8244 8250 8252 8249 8246 8255 8254 8244 8245 8249 8250 8248 8252 8249 8243 8252 8252 8247 8245 8247 8247 8253 8249 8251 8251 8253 8242 8228 8220 8220 8234 8243 8241 8246 8240 8241 8236 8239 8237 8233 8239 8245 8244 8250 8245 8248 8244 8241 8239 8242 8243 8242 8244 8246 8237 8255 8253 8254 8257 
8253 8245 8241 8248 8242 8252 8240 8247 8253 8241 8237 8246 8243 8238 8239 8240 8217 8206 8209 8220 8233 8255 8252 8257 8250 8248 8251 8255 8252 8251 8244 8247 8250 8248 8252 8251 8252 8245 8249 8251 8248 8249 8249 8255 8256 8256 8257 8240 8230 8226 8228 8237 8244 8242 8242 8235 8239 8242 8244 8240 8239 8242 8244 8246 8252 8242 8243 8239 8247 8241 8244 8249 8245 8241 8246 8240 8251 8258 8259 8258 
8254 8250 8245 8248 8236 8256 8239 8245 8250 8249 8245 8244 8234 8241 8236 8240 8212 8205 8207 8217 8237 8257 8250 8255 8256 8251 8256 8252 8252 8253 8240 8247 8246 8236 8245 8248 8249 8238 8250 8251 8246 8252 8242 8251 8254 8259 8258 8242 8227 8227 8229 8237 8244 8241 8239 8238 8243 8240 8245 8237 8239 8238 8242 8244 8247 8241 8242 8245 8246 8245 8244 8243 8238 8241 8245 8249 8247 8253 8254 8260 
8256 8243 8258 8252 8245 8252 8241 8249 8251 8245 8245 8244 8233 8243 8243 8233 8210 8205 8206 8213 8237 8255 8248 8249 8255 8253 8254 8257 8253 8249 8245 8252 8237 8242 8246 8246 8251 8254 8251 8252 8249 8255 8249 8254 8258 8259 8260 8239 8227 8231 8238 8238 8245 8240 8243 8235 8240 8241 8238 8235 8244 8240 8242 8246 8248 8244 8246 8245 8248 8251 8249 8249 8241 8249 8255 8246 8251 8258 8253 8266 
8256 8253 8256 8248 8253 8247 8250 8253 8246 8244 8245 8243 8240 8235 8239 8235 8214 8200 8211 8217 8239 8251 8248 8242 8251 8256 8246 8249 8248 8249 8248 8243 8236 8243 8251 8251 8255 8258 8253 8255 8251 8252 8252 8252 8251 8248 8235 8232 8230 8244 8247 8241 8238 8233 8237 8240 8241 8243 8239 8239 8246 8248 8248 8244 8247 8242 8246 8241 8244 8248 8243 8244 8236 8248 8246 8242 8251 8255 8255 8257 
8259 8251 8248 8254 8253 8249 8251 8254 8249 8240 8234 8246 8242 8240 8242 8241 8235 8216 8208 8212 8227 8250 8250 8238 8251 8245 8244 8238 8242 8248 8241 8240 8251 8247 8249 8253 8252 8250 8248 8253 8248 8247 8244 8242 8233 8223 8218 8224 8238 8249 8242 8246 8242 8241 8245 8237 8245 8244 8243 8246 8247 8250 8251 8249 8248 8247 8245 8240 8247 8250 8247 8244 8241 8240 8241 8254 8249 8252 8252 8259 
8264 8254 8257 8250 8249 8249 8251 8245 8247 8238 8240 8244 8244 8241 8240 8240 8243 8231 8217 8202 8203 8207 8224 8217 8227 8224 8232 8227 8225 8235 8230 8227 8234 8244 8238 8235 8231 8226 8212 8212 8213 8212 8213 8206 8212 8217 8234 8244 8248 8248 8239 8244 8244 8239 8248 8242 8242 8249 8246 8246 8248 8248 8252 8244 8252 8252 8251 8241 8240 8242 8245 8247 8244 8248 8251 8251 8245 8246 8251 8247 
8256 8250 8251 8251 8254 8254 8251 8246 8247 8246 8244 8249 8242 8241 8239 8243 8236 8234 8218 8216 8203 8210 8212 8204 8202 8203 8204 8202 8201 8199 8200 8196 8203 8217 8215 8200 8203 8201 8193 8204 8199 8205 8207 8208 8223 8246 8251 8244 8246 8246 8246 8244 8246 8248 8238 8249 8244 8249 8252 8245 8241 8247 8245 8245 8251 8251 8245 8252 8247 8245 8249 8248 8244 8249 8248 8250 8249 8252 8251 8252 
8256 8253 8251 8253 8253 8249 8245 8249 8244 8244 8246 8241 8241 8239 8241 8234 8243 8233 8210 8228 8232 8230 8233 8234 8236 8221 8218 8216 8220 8211 8219 8219 8221 8223 8220 8224 8225 8228 8229 8235 8233 8238 8242 8247 8249 8242 8250 8244 8249 8245 8245 8238 8246 8246 8239 8250 8247 8248 8247 8239 8241 8248 8249 8245 8252 8246 8254 8250 8245 8242 8240 8247 8244 8243 8249 8249 8249 8249 8242 8249 
8255 8256 8265 8256 8253 8253 8252 8244 8245 8249 8247 8237 8241 8238 8240 8237 8237 8238 8239 8237 8236 8231 8239 8245 8244 8241 8250 8249 8252 8242 8247 8253 8247 8233 8241 8250 8253 8244 8252 8249 8245 8244 8249 8249 8248 8247 8243 8246 8243 8245 8246 8246 8247 8246 8248 8249 8249 8252 8254 8243 8243 8243 8247 8244 8253 8248 8251 8250 8242 8248 8246 8242 8241 8246 8250 8246 8247 8241 8246 8254 
8252 8254 8265 8243 8254 8258 8245 8249 8244 8243 8238 8243 8236 8234 8243 8234 8234 8244 8248 8247 8238 8237 8239 8240 8238 8240 8246 8245 8245 8254 8248 8243 8248 8241 8242 8248 8244 8239 8248 8244 8243 8245 8253 8244 8243 8242 8241 8243 8244 8240 8250 8244 8244 8246 8248 8252 8249 8247 8248 8250 8243 8250 8244 8252 8254 8249 8246 8243 8246 8243 8250 8241 8240 8244 8250 8249 8245 8243 8242 8243 
8254 8245 8263 8243 8256 8253 8242 8245 8244 8246 8239 8244 8239 8239 8246 8245 8239 8245 8248 8246 8243 8235 8235 8242 8244 8240 8241 8242 8244 8245 8239 8242 8245 8240 8240 8246 8248 8244 8238 8242 8241 8243 8247 8239 8242 8238 8241 8245 8242 8248 8246 8246 8246 8252 8257 8255 8246 8248 8245 8252 8244 8252 8251 8253 8251 8255 8248 8242 8248 8243 8249 8249 8241 8248 8245 8249 8248 8250 8242 8249 
8257 8248 8249 8245 8241 8249 8244 8246 8246 8247 8247 8243 8240 8247 8239 8239 8239 8249 8238 8238 8241 8231 8238 8242 8239 8237 8234 8240 8241 8238 8238 8240 8238 8231 8241 8241 8244 8244 8233 8236 8235 8237 8241 8241 8239 8247 8238 8242 8247 8251 8249 8246 8245 8249 8248 8256 8245 8245 8247 8252 8243 8258 8253 8253 8257 8255 8253 8244 8244 8241 8243 8251 8247 8242 8252 8247 8251 8251 8249 8251 
8259 8250 8257 8247 8253 8250 8250 8248 8249 8250 8244 8249 8249 8250 8235 8238 8241 8240 8238 8244 8241 8232 8233 8240 8246 8235 8235 8238 8240 8235 8235 8238 8239 8238 8234 8237 8232 8239 8239 8240 8237 8237 8237 8243 8246 8250 8243 8250 8245 8241 8252 8244 8257 8259 8257 8253 8253 8249 8255 8253 8255 8257 8253 8254 8254 8255 8245 8243 8242 8247 8249 8247 8247 8248 8249 8244 8251 8250 8246 8248 
8255 8257 8253 8246 8248 8246 8248 8232 8250 8250 8245 8241 8246 8246 8241 8241 8245 8247 8240 8247 8237 8233 8234 8236 8230 8243 8233 8235 8233 8239 8240 8234 8239 8233 8229 8222 8233 8236 8237 8240 8233 8243 8236 8247 8246 8243 8251 8249 8247 8240 8248 8232 8247 8249 8258 8251 8250 8248 8249 8248 8252 8252 8256 8257 8252 8254 8244 8250 8250 8248 8244 8243 8246 8245 8245 8248 8249 8248 8245 8250 
8255 8247 8246 8249 8249 8246 8249 8245 8242 8245 8241 8237 8248 8245 8243 8247 8251 8246 8242 8246 8238 8239 8239 8238 8235 8241 8241 8234 8236 8236 8239 8233 8235 8242 8239 8237 8236 8230 8235 8230 8238 8238 8238 8245 8239 8245 8252 8252 8245 8244 8249 8241 8244 8240 8255 8254 8255 8245 8255 8252 8253 8253 8246 8258 8253 8257 8253 8248 8250 8249 8247 8242 8248 8247 8244 8246 8250 8247 8246 8244 
8260 8256 8238 8250 8246 8250 8253 8250 8241 8245 8242 8248 8245 8245 8240 8247 8249 8248 8246 8241 8243 8241 8236 8239 8234 8233 8231 8236 8236 8238 8235 8235 8237 8236 8235 8242 8234 8236 8232 8230 8237 8231 8235 8242 8248 8248 8244 8250 8245 8247 8249 8243 8252 8249 8245 8252 8252 8252 8254 8250 8250 8250 8247 8249 8249 8249 8248 8244 8246 8245 8246 8239 8250 8245 8247 8246 8248 8247 8247 8241 
8253 8260 8251 8249 8246 8250 8245 8248 8253 8257 8256 8243 8251 8232 8244 8249 8251 8247 8245 8246 8248 8237 8235 8245 8243 8242 8232 8234 8239 8241 8239 8241 8239 8243 8239 8243 8234 8232 8232 8234 8243 8247 8241 8244 8247 8241 8247 8249 8251 8251 8257 8244 8253 8247 8252 8248 8249 8257 8253 8245 8247 8250 8245 8251 8254 8253 8251 8241 8249 8247 8243 8252 8245 8245 8251 8256 8246 8249 8246 8242 
8255 8245 8254 8251 8247 8252 8256 8251 8254 8240 8248 8249 8248 8237 8249 8245 8248 8243 8246 8242 8244 8237 8243 8235 8246 8245 8238 8238 8239 8238 8242 8238 8249 8234 8242 8237 8244 8244 8236 8239 8248 8247 8249 8243 8241 8243 8252 8249 8245 8255 8250 8247 8251 8253 8250 8255 8251 8253 8242 8237 8246 8254 8253 8250 8240 8250 8247 8231 8250 8236 8248 8245 8252 8246 8255 8252 8246 8242 8247 8247 
8254 8245 8251 8249 8245 8253 8263 8243 8253 8247 8252 8253 8253 8248 8242 8247 8250 8251 8253 8245 8231 8245 8245 8243 8247 8246 8246 8241 8234 8231 8243 8240 8250 8239 8245 8241 8243 8244 8234 8244 8245 8252 8239 8247 8245 8251 8247 8258 8249 8239 8249 8256 8251 8249 8251 8248 8248 8258 8250 8242 8247 8250 8251 8248 8236 8240 8241 8245 8248 8250 8245 8250 8255 8253 8252 8252 8253 8248 8246 8252 
8252 8235 8241 8240 8251 8249 8257 8244 8248 8250 8249 8245 8244 8249 8244 8250 8249 8244 8249 8241 8242 8240 8239 8247 8238 8239 8235 8232 8241 8240 8244 8239 8237 8242 8242 8237 8240 8246 8243 8250 8242 8246 8250 8234 8247 8246 8255 8252 8250 8252 8248 8256 8251 8254 8225 8252 8252 8251 8240 8236 8246 8245 8241 8242 8234 8238 8244 8243 8252 8256 8247 8248 8256 8254 8254 8241 8247 8246 8244 8248 
8250 8248 8236 8246 8247 8245 8243 8257 8235 8238 8251 8250 8255 8250 8248 8240 8245 8248 8253 8245 8242 8244 8250 8247 8234 8246 8243 8235 8242 8249 8229 8251 8241 8235 8244 8235 8243 8244 8247 8250 8248 8246 8248 8243 8248 8247 8244 8250 8257 8247 8251 8252 8255 8249 8250 8255 8250 8249 8237 8250 8248 8247 8245 8231 8236 8244 8246 8240 8259 8243 8251 8253 8249 8242 8253 8253 8252 8250 8242 8243 
8249 8243 8245 8246 8246 8243 8242 8255 8252 8246 8236 8242 8241 8245 8250 8230 8246 8253 8250 8249 8239 8243 8242 8242 8245 8246 8246 8245 8245 8235 8240 8248 8238 8238 8245 8238 8244 8241 8238 8251 8245 8244 8239 8252 8245 8244 8245 8251 8242 8249 8242 8254 8240 8256 8256 8250 8252 8252 8255 8249 8249 8248 8246 8230 8237 8249 8236 8242 8260 8242 8249 8255 8251 8262 8252 8245 8243 8243 8249 8245 
8246 8241 8251 8244 8248 8249 8251 8254 8239 8252 8239 8249 8240 8250 8245 8244 8249 8252 8246 8241 8246 8246 8245 8247 8253 8243 8247 8244 8237 8236 8245 8237 8233 8242 8244 8238 8247 8245 8245 8243 8244 8247 8243 8247 8248 8250 8250 8250 8257 8253 8255 8255 8252 8239 8258 8251 8251 8249 8245 8245 8251 8251 8248 8241 8244 8251 8237 8249 8254 8246 8246 8258 8253 8262 8246 8244 8242 8240 8249 8244 
8248 8252 8242 8246 8239 8240 8250 8250 8238 8254 8242 8252 8246 8253 8247 8241 8247 8244 8249 8247 8246 8246 8242 8245 8253 8240 8244 8239 8243 8235 8236 8232 8236 8239 8241 8236 8244 8246 8241 8244 8244 8238 8247 8246 8249 8249 8241 8255 8256 8256 8252 8259 8248 8239 8256 8251 8255 8244 8244 8247 8250 8244 8235 8237 8248 8235 8239 8232 8247 8251 8253 8247 8248 8252 8243 8251 8238 8243 8246 8241 
8249 8250 8254 8246 8246 8246 8254 8248 8239 8261 8252 8245 8256 8246 8245 8245 8249 8250 8245 8244 8249 8248 8243 8246 8244 8214 8244 8240 8245 8240 8230 8242 8247 8236 8247 8241 8243 8246 8241 8244 8247 8247 8248 8251 8250 8255 8236 8253 8260 8256 8257 8251 8257 8254 8252 8252 8256 8253 8253 8250 8246 8242 8242 8242 8250 8242 8238 8248 8253 8239 8257 8252 8255 8254 8252 8246 8236 8241 8241 8236 
8241 8238 8252 8239 8237 8239 8249 8239 8251 8256 8252 8238 8250 8247 8249 8238 8237 8253 8239 8246 8249 8246 8244 8247 8245 8231 8215 8242 8247 8247 8244 8237 8247 8239 8237 8243 8243 8244 8236 8241 8239 8249 8246 8247 8251 8242 8247 8250 8252 8258 8254 8256 8238 8247 8252 8251 8246 8253 8245 8244 8243 8237 8244 8246 8235 8252 8241 8250 8246 8245 8255 8252 8250 8245 8245 8238 8240 8237 8230 8238 
8255 8254 8252 8217 8248 8242 8256 8241 8253 8248 8246 8239 8244 8247 8249 8250 8240 8254 8251 8250 8237 8241 8242 8242 8254 8237 8247 8242 8244 8238 8233 8239 8244 8239 8222 8235 8240 8231 8237 8244 8247 8239 8231 8245 8248 8241 8252 8254 8250 8251 8253 8254 8242 8242 8252 8246 8249 8245 8246 8245 8239 8243 8248 8236 8241 8246 8238 8250 8249 8239 8250 8242 8249 8239 8245 8240 8246 8226 8229 8224 
8258 8244 8232 8239 8241 8236 8231 8254 8256 8245 8251 8238 8227 8250 8243 8227 8230 8241 8245 8237 8251 8225 8234 8233 8252 8242 8245 8240 8237 8236 8242 8224 8228 8242 8227 8237 8235 8240 8235 8246 8243 8241 8233 8231 8236 8238 8254 8247 8252 8250 8249 8242 8242 8244 8241 8241 8247 8246 8250 8243 8246 8238 8236 8236 8238 8240 8237 8249 8249 8252 8243 8250 8248 8234 8245 8243 8239 8222 8222 8227 
8252 8249 8242 8236 8242 8242 8235 8255 8254 8254 8251 8229 8243 8243 8247 8239 8243 8243 8241 8242 8238 8240 8242 8238 8248 8244 8248 8244 8243 8234 8221 8232 8235 8243 8244 8238 8234 8244 8240 8237 8246 8251 8240 8241 8242 8244 8255 8254 8254 8253 8251 8243 8243 8244 8243 8246 8245 8249 8248 8241 8242 8242 8240 8244 8244 8238 8243 8252 8251 8254 8248 8247 8250 8249 8244 8238 8220 8226 8233 8218 


