P2
80 60
401
34 31 30 28 26 25 24 26 24 21 21 24 26 26 20 15 9 5 0 9 11 15 15 13 14 13 12 20 22 27 75 154 226 298 309 315 307 308 320 340 326 314 341 320 303 296 301 307 289 199 116 82 81 76 80 80 80 78 89 91 88 91 86 84 79 80 77 76 83 88 91 84 77 72 68 57 50 49 45 43 
29 28 30 28 22 30 32 29 30 32 30 34 31 33 24 9 5 1 7 10 12 17 15 14 17 14 16 18 26 31 54 157 229 282 302 317 314 315 325 329 323 323 329 321 307 304 307 300 271 198 114 83 84 82 82 82 82 81 91 94 88 91 89 86 80 80 84 82 81 84 84 76 75 67 62 56 50 50 48 45 
28 32 30 29 25 32 36 36 36 37 36 38 35 30 28 12 3 5 9 8 12 14 18 15 22 16 21 22 27 29 45 146 216 267 282 289 302 312 318 321 328 331 330 320 310 295 283 286 263 189 106 81 84 78 81 83 79 82 89 93 92 90 88 85 83 81 82 81 75 78 78 75 74 68 62 57 53 48 46 48 
29 27 26 28 29 34 41 39 41 41 40 40 40 36 38 22 4 8 13 13 16 14 15 11 14 15 18 22 26 30 40 121 215 260 271 268 269 286 309 315 325 331 323 309 288 256 267 281 252 174 92 78 76 77 78 79 81 81 88 94 92 89 89 82 82 84 76 74 71 76 72 70 68 63 60 56 50 48 44 43 
30 27 28 30 33 38 41 47 49 49 45 45 43 36 35 25 12 15 22 21 22 26 25 20 23 17 20 23 24 27 33 87 193 254 260 253 242 257 299 306 320 330 320 313 278 236 255 278 243 154 78 74 77 77 77 79 82 78 90 90 89 86 82 82 82 83 75 72 71 71 68 69 68 62 61 57 51 50 43 40 
28 32 38 31 33 36 46 44 49 51 48 46 43 36 36 27 16 19 24 22 25 27 23 22 28 26 27 27 26 26 30 49 154 249 255 244 222 218 270 299 311 318 318 306 267 225 250 272 235 116 70 76 75 72 75 75 78 79 87 91 90 86 83 80 78 78 72 67 63 67 64 68 65 61 60 55 49 47 44 43 
30 34 42 41 42 39 46 47 50 45 45 48 44 38 36 28 25 23 24 24 21 19 16 15 19 18 13 21 22 20 25 32 72 193 243 244 228 208 224 264 276 276 283 270 235 224 257 266 194 84 70 76 74 71 73 73 79 77 86 86 89 86 83 79 76 79 67 62 57 56 59 62 60 62 58 53 48 48 40 38 
31 33 43 41 42 44 43 44 46 45 40 44 41 35 34 29 25 24 22 21 16 15 15 9 13 17 12 14 18 18 22 30 37 84 222 248 251 207 201 218 219 217 224 219 225 256 270 250 124 75 73 75 77 74 73 71 75 73 81 88 83 83 80 72 70 68 63 56 53 52 54 62 60 58 53 51 45 45 45 35 
36 35 40 38 40 42 45 43 44 44 40 40 37 31 34 24 22 19 20 22 18 16 11 11 13 11 9 13 14 14 21 27 27 47 170 246 262 267 260 274 276 267 271 259 265 259 269 222 94 75 70 77 77 76 74 73 74 74 81 80 77 75 69 65 56 59 52 47 48 49 50 53 57 56 52 49 45 42 38 34 
36 39 42 40 41 44 47 46 47 43 39 37 33 27 29 20 19 16 19 19 17 13 11 6 8 9 6 8 10 14 20 24 26 32 92 240 276 296 289 294 310 303 298 274 280 269 262 156 82 72 72 77 78 76 72 71 73 69 78 75 73 68 63 58 48 49 47 45 39 44 47 46 50 51 53 48 40 37 31 32 
39 38 42 39 39 42 47 45 44 43 36 37 34 27 25 19 13 16 15 15 15 10 12 9 12 6 5 5 13 15 18 19 21 27 58 230 280 295 287 293 299 295 296 289 276 276 232 97 78 72 70 76 75 72 71 70 67 64 73 72 64 61 55 50 45 46 43 36 39 38 42 45 50 48 49 43 38 36 27 31 
39 40 42 39 41 44 43 44 45 42 33 33 30 25 23 14 12 20 16 14 14 11 10 8 10 7 9 10 11 14 13 17 20 25 52 241 289 288 288 286 294 293 297 291 273 281 218 87 80 71 69 71 73 69 67 63 66 61 68 69 62 57 53 47 42 41 38 38 35 41 40 42 46 44 47 40 36 31 29 22 
40 40 40 42 40 43 44 42 40 42 34 35 31 23 21 17 11 15 14 15 14 11 13 8 9 9 6 10 13 10 14 12 16 23 50 245 293 297 299 300 302 304 308 289 284 295 221 90 76 67 68 74 74 66 65 63 61 58 66 70 57 54 48 40 38 35 33 33 34 37 39 40 46 44 46 39 37 32 24 24 
39 41 42 43 42 40 43 40 37 37 30 34 31 23 20 12 12 13 17 15 16 19 12 9 10 12 10 13 12 14 17 18 17 24 56 253 298 305 306 311 313 307 302 293 308 306 236 93 80 73 64 72 73 62 61 60 60 58 67 66 56 49 44 35 36 33 30 29 32 38 36 39 42 42 39 38 36 32 25 19 
40 41 43 43 41 41 40 39 37 37 32 29 27 21 20 11 16 12 16 16 18 16 13 8 11 11 13 14 16 14 19 14 22 27 86 281 307 307 311 314 322 312 313 316 325 315 274 117 87 71 67 70 70 62 59 61 58 56 64 62 54 45 45 31 30 30 25 25 31 34 35 36 38 35 36 31 24 25 22 21 
44 44 43 43 41 38 43 39 38 38 30 30 30 23 22 15 10 13 15 14 18 17 14 10 18 14 15 17 18 18 22 23 31 61 209 304 312 313 317 326 337 331 324 327 325 321 317 250 170 96 78 77 74 64 59 59 56 50 59 61 47 41 37 31 26 28 26 23 26 32 35 31 33 34 35 27 23 20 14 14 
44 41 46 42 40 38 41 38 36 33 31 32 27 24 19 16 13 16 17 17 18 19 16 15 15 18 15 19 23 25 34 61 144 246 314 317 316 314 327 338 343 332 328 324 325 321 326 330 286 219 157 110 84 69 61 57 59 55 58 55 50 44 34 32 26 25 21 26 24 32 32 31 32 32 29 28 24 21 14 11 
43 41 43 39 38 37 40 36 34 31 28 27 29 23 20 15 16 17 17 21 19 22 17 14 21 16 15 23 36 59 142 210 270 311 328 322 318 322 328 335 340 334 329 320 318 320 333 340 279 248 241 244 194 128 82 68 60 53 56 53 43 40 34 28 23 23 20 25 25 28 32 29 30 29 30 26 25 21 16 11 
43 39 37 36 32 37 36 36 35 31 29 27 28 25 23 17 15 18 19 19 23 26 21 19 23 23 29 62 140 209 247 229 242 308 336 325 320 322 329 333 332 328 327 320 322 329 335 309 270 244 246 263 257 243 213 154 100 67 58 56 44 38 32 28 22 24 24 24 27 30 31 31 31 34 29 27 21 20 14 15 
42 38 37 36 36 38 40 36 34 34 28 29 26 24 22 23 15 17 20 22 24 27 25 26 45 75 149 210 240 236 251 227 225 251 300 316 323 331 332 332 327 325 324 317 327 323 278 256 245 246 245 245 255 260 253 250 221 181 121 71 47 40 31 25 21 24 23 27 26 29 30 31 29 28 28 23 23 20 16 13 
39 35 37 31 32 33 38 33 34 36 30 29 29 21 19 19 13 18 22 24 27 33 43 84 174 233 240 259 251 246 260 241 233 228 234 246 284 315 326 325 320 318 311 298 269 246 237 246 258 257 267 255 269 269 254 252 246 229 225 178 99 47 33 27 20 22 22 28 26 26 30 30 30 28 28 24 21 18 13 12 
37 33 33 30 31 33 37 32 31 33 28 29 24 19 21 20 20 21 22 26 37 61 149 219 249 245 245 255 247 259 266 268 260 266 249 234 239 239 237 229 227 223 225 225 229 240 249 272 290 288 282 247 254 247 251 228 249 234 230 212 186 117 45 26 19 21 23 23 25 25 29 27 28 26 25 25 16 20 14 9 
37 33 32 32 32 34 35 34 28 31 26 28 24 22 23 20 22 22 26 37 88 181 240 237 257 241 250 261 226 247 242 256 256 255 263 235 242 237 232 218 212 211 223 228 242 251 253 265 277 283 272 230 229 229 244 218 233 241 230 212 215 196 106 38 22 19 20 26 22 28 29 24 28 26 28 22 20 19 8 9 
32 30 32 32 30 31 34 32 30 30 25 29 24 23 26 23 20 24 36 76 184 240 248 234 259 239 259 270 223 244 236 245 249 233 261 232 250 259 260 254 247 240 234 228 245 237 243 246 252 268 258 229 220 231 248 226 218 233 233 211 215 211 175 81 29 26 20 22 22 30 27 26 29 27 28 20 19 18 9 8 
24 30 30 29 31 31 33 36 35 29 27 29 28 26 26 27 20 30 54 176 225 244 248 235 248 247 276 262 228 249 235 242 247 226 255 236 234 256 260 262 251 243 229 222 233 211 231 228 240 256 252 227 213 237 253 235 207 225 231 198 213 203 184 149 48 24 22 24 20 25 28 29 27 26 26 22 21 18 12 8 
24 25 29 26 29 30 34 33 35 30 26 29 27 28 28 27 28 43 130 242 250 227 253 255 226 266 276 247 242 262 235 242 252 226 244 243 224 234 243 243 244 233 216 224 217 206 229 220 232 253 253 231 211 236 254 243 199 214 225 193 208 194 193 178 91 31 26 25 22 24 30 28 28 24 26 21 19 19 10 8 
18 28 31 27 27 32 29 32 34 31 30 28 27 25 27 28 36 77 221 257 262 219 243 269 220 266 267 237 265 268 235 244 245 224 238 252 230 232 225 225 238 224 217 229 202 215 237 218 231 246 244 240 212 227 246 242 198 216 203 187 202 180 197 188 139 46 28 29 24 31 30 26 29 27 29 24 19 16 15 13 
22 26 29 29 27 28 37 31 32 34 34 29 29 29 29 29 47 166 254 264 264 235 224 270 225 254 263 244 277 263 234 246 246 236 234 260 240 231 229 218 217 213 227 225 201 231 233 215 226 239 234 247 217 210 236 234 199 217 186 183 199 173 202 189 164 86 31 27 24 30 32 28 33 31 28 23 17 13 11 11 
20 27 30 27 28 30 34 34 32 37 31 31 31 28 30 36 85 234 263 271 272 256 221 259 223 256 248 257 266 251 237 247 246 241 233 259 246 232 228 211 206 170 209 201 209 229 228 214 219 228 228 235 219 201 223 231 203 203 174 185 196 192 203 199 180 127 40 28 27 30 33 30 28 29 27 25 22 16 12 7 
24 26 31 28 32 34 38 36 34 40 33 34 33 31 35 48 155 253 266 265 271 266 240 238 222 248 223 258 260 245 243 245 243 243 231 244 242 228 241 206 192 114 88 170 217 221 220 210 218 219 216 225 212 204 206 220 198 192 163 191 178 203 195 202 192 153 54 30 28 35 34 32 31 30 29 23 20 19 13 6 
39 36 41 37 36 45 50 50 41 35 38 34 32 33 34 73 211 253 264 267 264 264 244 227 223 224 217 251 250 231 244 246 242 242 225 228 238 223 223 156 152 121 39 127 220 213 211 200 209 215 207 211 203 202 188 203 191 187 162 190 172 201 191 196 195 169 86 35 28 33 37 30 32 34 29 27 20 22 10 9 
58 61 57 52 42 49 56 56 49 49 42 38 37 32 45 130 227 242 256 261 269 257 245 234 223 215 218 245 240 218 242 247 242 244 223 220 223 217 202 119 107 142 30 66 199 206 211 197 204 209 204 204 200 197 179 184 175 182 167 180 182 200 187 203 187 176 118 44 30 35 36 35 34 32 30 24 19 19 14 8 
63 60 58 56 44 53 60 53 50 58 45 40 38 37 64 183 222 250 243 264 256 253 243 236 219 218 221 238 228 219 243 246 244 236 224 216 213 209 200 150 99 103 18 58 177 202 204 198 198 206 201 199 196 191 180 167 167 178 170 168 199 190 194 200 173 173 132 45 31 33 35 34 34 31 31 25 17 22 17 10 
60 59 62 55 45 53 57 52 51 55 48 45 51 62 115 212 225 243 252 249 267 245 240 230 219 227 220 231 223 221 237 237 236 237 231 218 214 207 208 182 138 86 34 93 186 196 193 195 189 197 196 200 194 190 181 167 169 178 165 175 198 190 204 183 169 164 132 48 35 33 34 33 36 33 32 26 22 22 19 11 
59 60 61 56 49 50 55 52 50 50 53 50 60 73 168 225 220 240 251 247 252 265 241 232 222 228 218 225 219 221 233 236 236 236 229 220 211 210 213 190 144 38 57 98 184 189 187 189 181 187 198 194 191 187 177 164 166 172 161 194 197 203 189 182 156 164 132 49 35 32 34 33 36 30 31 24 23 20 13 11 
58 61 64 59 50 52 55 56 53 55 53 59 66 103 205 230 229 236 253 248 246 251 262 235 227 228 220 222 219 224 232 235 234 232 222 212 208 211 211 201 158 83 116 123 195 191 191 190 181 176 191 191 187 180 167 163 164 168 171 211 205 200 190 184 163 172 132 58 35 35 38 35 36 32 30 28 27 20 21 15 
55 60 64 61 56 55 60 59 62 61 62 67 75 141 221 226 238 253 258 250 242 254 259 244 232 229 216 218 216 222 229 231 230 227 221 211 209 210 210 203 192 167 155 186 208 195 188 191 181 173 173 182 178 167 161 160 164 167 193 224 211 195 201 169 177 173 137 74 36 40 39 36 36 39 32 27 27 23 17 12 
55 57 64 63 59 57 60 61 62 63 65 68 87 189 227 222 240 256 267 264 252 265 266 246 229 229 212 217 215 217 223 224 225 223 219 211 213 212 209 201 190 180 185 211 217 201 192 189 179 171 166 170 169 158 155 159 167 165 210 223 200 207 201 171 186 172 145 97 40 40 41 40 43 37 38 29 27 26 14 14 
54 57 60 58 60 58 56 59 63 62 61 62 101 208 234 234 242 257 268 271 260 270 281 250 231 232 215 216 216 212 215 216 218 215 213 213 217 210 209 201 186 181 187 207 217 205 189 187 180 167 167 165 165 153 152 155 168 173 215 222 201 212 185 183 177 160 146 106 52 48 47 42 44 42 42 37 30 27 18 20 
52 52 54 53 57 54 56 57 54 54 56 68 143 213 237 241 246 256 267 269 262 265 280 254 238 235 216 216 216 207 210 207 209 206 212 213 218 214 210 197 181 179 184 195 213 202 185 185 180 167 166 169 173 155 149 157 165 173 206 219 210 207 181 177 158 141 121 107 72 51 53 48 52 50 47 41 38 32 21 14 
49 52 54 53 55 52 54 48 51 52 57 85 183 227 242 242 245 251 255 255 257 265 274 251 237 234 216 215 214 209 206 201 203 203 208 215 217 213 203 174 180 181 173 185 193 194 177 177 175 166 161 169 169 155 151 159 163 178 204 214 203 187 170 157 151 143 145 156 83 52 52 50 50 50 51 42 41 37 22 19 
53 54 51 56 58 55 54 53 51 57 58 75 135 244 265 261 262 263 262 257 250 252 264 249 235 236 219 211 212 207 205 199 201 202 210 214 217 207 192 180 187 185 186 181 186 187 174 169 169 162 158 166 162 151 147 156 167 179 206 203 186 174 174 181 196 213 224 212 110 58 55 51 49 51 49 44 41 35 26 18 
59 61 61 64 61 58 59 55 60 62 61 72 135 271 293 305 305 293 279 266 264 260 266 254 234 234 223 211 212 202 204 201 202 207 221 221 215 196 196 187 190 195 197 191 189 181 165 164 168 165 158 163 161 152 153 154 167 178 194 211 205 207 224 253 252 243 238 223 145 63 57 54 56 50 52 44 40 37 28 25 
58 60 65 65 64 56 59 57 57 60 61 83 193 290 302 318 325 323 313 309 293 271 237 246 239 234 220 214 211 206 206 203 206 220 228 217 198 198 195 194 196 206 209 201 198 181 165 162 170 164 158 164 158 155 153 153 174 185 186 208 238 245 244 260 266 252 241 230 175 73 58 56 51 50 54 45 44 42 28 26 
53 51 56 58 62 56 57 56 61 65 71 107 256 301 309 325 332 328 323 320 307 224 115 221 237 232 226 213 213 206 206 207 216 233 227 203 209 207 210 210 209 214 201 194 190 183 164 168 169 164 158 161 156 153 154 159 173 185 161 157 239 241 245 254 261 256 245 237 200 87 57 55 54 57 57 48 43 44 30 26 
54 54 57 53 62 58 58 55 60 66 79 168 289 314 324 335 339 333 325 321 291 137 82 170 233 228 225 213 216 210 212 214 225 223 207 212 219 218 213 205 202 191 187 192 196 187 172 169 163 164 153 160 155 150 162 174 180 182 158 114 226 242 241 249 258 254 243 241 217 110 62 56 57 54 55 50 46 43 26 30 
54 55 59 55 60 57 55 54 56 72 98 232 305 320 333 345 338 334 329 320 250 89 76 104 210 226 219 213 213 212 218 228 222 209 219 220 211 203 196 165 167 155 175 200 201 196 174 169 166 163 158 163 168 167 174 187 179 179 152 89 210 240 241 244 260 258 242 244 228 138 68 59 55 56 53 48 44 40 30 30 
55 59 59 55 61 57 55 54 57 76 139 287 316 326 341 351 340 335 331 312 181 78 76 83 186 223 219 219 215 219 229 230 212 214 222 211 209 204 195 149 124 122 183 192 142 180 169 159 165 177 184 195 193 190 186 183 179 189 135 78 185 245 243 247 261 261 252 248 236 178 77 57 60 59 55 52 47 45 27 26 
61 62 63 58 62 61 62 60 63 87 206 306 322 336 347 351 345 341 329 287 117 74 73 78 176 227 221 220 215 226 242 219 214 215 213 210 212 212 206 177 136 136 197 193 130 169 167 177 200 214 216 212 203 193 188 190 198 188 101 69 151 242 250 252 259 261 257 256 243 214 100 63 58 56 58 53 53 52 32 31 
64 61 64 58 64 59 65 67 75 126 270 322 331 345 359 354 346 342 321 228 87 71 74 83 184 232 234 217 214 236 245 220 214 211 210 212 221 217 206 194 143 118 185 173 167 174 190 218 220 221 216 224 221 208 204 202 201 168 91 61 113 235 251 254 258 264 263 258 249 232 132 66 63 58 60 52 54 52 35 33 
59 62 68 59 71 65 69 74 95 199 310 333 344 354 360 361 356 343 305 147 78 71 71 90 200 235 247 240 225 246 241 223 213 213 215 213 212 208 201 189 145 129 177 157 169 210 219 218 214 211 216 231 225 208 201 188 185 173 86 58 85 216 255 260 268 268 267 267 255 244 161 75 57 59 61 54 55 52 42 37 
66 67 67 65 72 71 74 90 128 276 337 347 360 371 371 372 363 340 248 94 79 75 74 92 201 246 248 251 240 241 233 218 220 224 223 217 217 210 203 178 125 136 164 155 198 222 214 216 207 205 216 227 216 194 185 185 203 172 72 55 67 177 255 269 277 277 274 276 265 253 197 82 61 59 63 58 56 52 39 33 
64 69 69 71 71 76 79 96 175 324 354 358 370 386 388 389 367 320 158 84 81 76 79 132 217 238 235 226 233 229 225 227 227 223 220 215 215 206 197 158 163 163 190 193 199 212 211 206 206 207 211 215 196 181 189 211 214 156 65 52 59 126 246 276 290 288 275 275 273 273 233 103 64 61 63 57 55 53 44 40 
71 72 77 76 78 79 85 103 215 343 360 364 361 368 382 401 365 263 107 87 82 78 89 161 225 228 224 225 227 227 229 230 227 224 215 210 210 213 208 173 143 188 195 202 200 201 196 199 205 205 195 197 199 201 214 215 195 159 68 52 53 83 226 281 283 272 266 274 272 277 253 122 72 63 63 63 54 57 47 44 
74 78 82 83 81 82 95 113 236 353 369 369 355 356 363 379 351 185 92 89 87 86 88 161 226 227 231 244 252 247 241 235 225 217 210 208 214 213 189 167 184 207 202 199 195 192 186 197 195 193 186 203 220 211 211 205 199 162 63 51 51 64 181 269 258 257 262 273 276 281 265 143 72 67 67 65 63 58 51 44 
85 81 87 86 84 88 99 122 255 366 374 369 361 353 358 349 309 135 94 88 87 86 87 117 203 220 232 240 255 252 245 231 218 214 215 215 215 199 183 185 200 201 201 193 191 189 188 198 199 200 204 210 207 216 216 202 197 140 58 49 52 58 139 240 247 261 269 278 282 288 275 155 76 71 70 66 68 60 52 49 
90 93 92 91 90 94 104 127 274 376 379 377 363 360 356 342 278 125 96 91 89 88 89 118 205 226 230 224 228 230 225 219 220 221 216 201 191 186 188 190 193 193 199 195 194 190 187 197 211 221 217 211 206 213 210 194 184 133 59 49 49 54 119 231 251 265 273 282 288 295 277 154 81 69 72 68 65 62 54 52 
97 103 100 99 100 105 109 135 284 376 383 384 374 364 363 350 311 168 103 99 98 96 106 171 222 233 244 237 225 214 215 214 214 207 195 193 195 198 195 190 194 200 208 201 193 183 179 196 211 211 195 200 212 214 205 198 182 149 64 50 49 61 166 238 256 269 280 294 294 301 275 156 82 72 75 71 69 66 57 57 
108 112 108 103 107 110 116 142 271 370 381 385 374 367 366 356 329 248 130 140 152 136 130 192 231 244 249 252 247 233 218 200 200 193 190 190 193 194 195 193 199 203 204 191 183 178 176 186 193 186 187 208 220 217 209 195 188 162 77 52 52 91 218 247 259 275 287 298 302 301 265 147 80 76 77 70 74 68 57 50 
117 114 110 106 107 111 114 133 262 369 383 388 382 373 368 360 346 315 210 177 187 184 176 190 215 228 234 230 230 222 213 198 195 190 185 180 183 177 178 178 181 183 182 175 170 172 169 174 172 173 186 203 206 209 204 196 184 159 106 56 57 163 243 251 261 282 286 301 300 295 248 114 75 70 74 73 76 55 49 53 


