P2
80 60
335
101 103 104 101 102 100 103 102 102 99 88 61 56 61 95 104 105 103 101 96 89 92 93 95 91 83 84 81 64 52 66 70 33 19 21 26 27 31 31 33 31 37 53 57 63 62 62 70 71 84 94 101 112 116 117 117 119 117 119 122 131 145 157 161 164 167 166 154 150 161 159 154 155 181 303 335 287 260 228 228 
105 105 107 107 104 106 105 103 103 96 58 42 43 51 97 104 105 106 102 96 85 89 89 92 90 86 82 85 59 46 52 59 56 75 92 108 121 127 134 144 149 148 85 60 62 59 59 64 66 84 95 104 116 120 121 114 116 115 121 126 128 146 155 160 164 166 164 163 151 162 160 152 155 163 283 334 289 262 231 229 
104 106 106 107 107 106 108 112 99 75 49 45 47 64 99 106 105 104 101 93 86 82 81 83 86 90 83 80 75 51 53 64 73 91 98 104 103 106 104 109 107 104 69 60 60 57 59 63 73 86 96 104 116 120 121 115 111 120 119 121 128 141 153 158 162 164 166 165 154 153 155 144 151 155 262 331 290 267 229 231 
106 102 108 107 110 108 106 103 89 51 49 52 58 70 103 101 103 99 97 90 84 81 80 83 86 83 81 81 79 55 50 55 54 58 60 53 56 53 53 54 58 57 54 55 57 58 61 60 77 85 95 107 114 119 117 112 111 115 118 123 126 132 146 155 155 161 159 161 152 148 141 138 139 147 239 325 288 265 233 230 
108 102 106 106 107 108 109 99 74 54 55 58 64 73 100 100 99 98 93 91 82 83 79 81 83 81 83 79 80 61 51 53 48 46 48 51 50 48 48 48 47 50 50 55 58 59 65 68 82 86 94 107 112 115 112 108 109 110 114 118 126 130 142 153 151 154 156 157 153 140 135 132 134 140 215 319 285 261 234 229 
109 107 109 107 106 106 103 88 67 63 65 62 67 76 100 97 99 99 91 90 82 79 74 71 79 77 81 81 79 63 50 53 52 44 45 47 53 56 49 50 47 48 49 51 63 62 72 75 87 88 97 104 110 111 108 108 108 112 110 119 123 126 136 144 147 150 153 151 141 137 142 133 128 132 194 312 284 258 236 230 
114 105 108 108 106 104 94 72 70 70 67 67 69 74 100 95 94 94 93 88 82 80 72 59 68 74 78 77 73 65 50 53 53 47 47 48 50 55 54 56 57 54 56 64 71 69 75 83 91 99 99 105 109 107 108 108 108 109 108 114 122 123 131 140 142 144 148 143 135 135 135 133 127 130 178 301 288 256 238 238 
107 107 106 108 105 96 76 67 71 70 70 69 70 72 92 98 95 93 91 90 84 82 72 54 53 65 68 72 78 67 52 52 54 45 48 50 50 48 53 61 62 61 60 65 66 71 75 87 92 94 94 102 104 105 107 105 103 108 106 111 116 123 126 128 134 138 140 133 130 128 133 130 130 132 163 291 289 260 239 237 
110 110 109 107 102 84 64 65 67 68 72 69 67 63 86 92 95 92 90 89 85 80 75 50 43 44 48 64 71 65 45 51 53 45 49 49 50 47 49 52 58 70 66 62 69 79 83 88 88 90 90 95 98 102 106 103 99 102 101 111 114 121 119 121 124 130 123 126 123 123 126 130 131 135 149 282 290 260 244 238 
112 113 111 105 93 67 65 60 67 67 69 66 60 60 78 92 92 91 91 89 83 80 75 46 38 37 35 41 61 66 51 53 55 48 50 48 52 45 51 57 56 69 60 69 76 83 88 90 87 92 89 93 92 96 99 98 92 93 95 109 111 111 118 117 119 111 114 120 119 117 121 128 129 134 147 267 292 265 243 237 
109 113 108 94 71 60 59 62 66 65 66 64 55 54 62 89 92 89 90 90 84 82 77 44 34 33 34 38 39 47 44 56 51 46 46 49 47 47 46 54 58 74 69 67 78 79 86 90 90 92 89 91 89 91 94 97 92 87 93 111 110 111 113 117 108 106 108 118 113 115 122 124 128 134 143 253 290 267 240 238 
114 113 105 75 59 56 60 60 62 62 61 58 54 49 51 77 89 89 89 89 83 80 74 41 35 31 34 35 35 35 40 50 51 43 44 44 45 43 49 53 67 70 66 71 80 83 84 91 89 88 90 91 89 88 90 91 93 90 91 108 107 107 113 108 98 98 106 112 104 110 116 119 124 132 140 239 293 269 242 236 
111 108 94 59 57 56 61 60 62 61 60 56 49 42 40 60 83 85 83 87 87 79 76 45 32 32 29 34 34 38 42 46 47 38 40 43 45 45 47 58 68 63 65 74 81 86 86 91 88 89 89 90 86 89 89 91 92 88 90 100 101 107 103 101 94 95 96 101 100 101 110 119 121 128 135 219 284 265 239 236 
112 106 77 55 54 53 58 56 60 57 56 52 46 44 35 40 79 81 83 85 84 78 75 45 35 34 32 35 32 36 41 46 44 37 39 40 45 48 50 67 67 62 68 76 85 86 88 89 89 89 85 84 87 86 89 86 85 87 86 90 98 103 98 95 91 91 93 95 97 96 107 111 117 122 137 211 278 261 241 239 
115 102 67 54 55 53 58 56 55 50 54 50 42 40 35 36 49 78 82 83 81 79 74 44 31 31 30 33 35 35 38 42 44 37 37 39 44 47 57 71 61 60 71 79 85 89 88 90 84 88 84 82 81 82 84 86 89 86 85 84 87 94 94 97 91 89 96 95 99 97 101 111 116 122 127 194 270 258 237 236 
112 88 61 56 55 53 58 54 56 49 52 45 41 35 35 33 33 61 80 83 84 84 76 45 36 31 30 34 34 38 35 40 41 36 35 38 43 47 66 68 60 61 71 80 86 86 89 88 83 82 81 82 79 81 81 85 85 84 85 82 81 86 94 92 91 88 91 95 100 99 107 106 114 115 124 177 263 256 234 231 
108 70 61 57 57 53 56 52 51 49 47 42 38 37 33 29 35 35 63 79 81 85 76 45 35 30 31 34 34 38 38 40 38 34 35 36 40 45 72 61 61 64 70 83 85 86 85 86 83 83 79 78 81 80 82 85 81 81 81 82 73 78 88 89 88 90 93 95 98 97 103 107 111 114 121 166 256 252 234 233 
97 59 56 55 57 47 52 53 51 45 43 41 38 33 31 28 27 28 36 63 78 79 74 47 38 30 30 36 32 38 37 36 38 34 35 38 43 47 74 62 63 66 71 81 86 85 87 83 81 78 79 81 80 80 81 77 80 81 77 77 67 73 79 84 85 88 87 97 95 95 99 104 110 111 114 156 249 249 235 229 
74 54 55 54 54 49 51 50 47 42 43 39 37 38 33 30 30 29 28 37 63 76 75 58 37 34 32 34 39 39 35 40 39 34 33 40 44 51 75 63 64 66 72 78 85 84 82 81 77 78 81 81 81 80 77 78 76 77 73 72 61 64 72 78 82 86 91 96 95 87 93 93 100 100 106 136 235 250 232 229 
57 52 50 52 51 46 49 47 49 45 40 40 39 36 33 34 31 30 30 31 40 57 77 61 37 35 33 38 37 39 40 40 40 35 38 43 45 60 71 63 65 65 73 79 82 79 81 76 73 76 78 75 81 77 75 74 71 70 69 65 52 53 56 70 79 83 88 90 90 86 87 93 95 101 103 130 224 251 230 232 
53 48 48 47 48 46 49 47 48 44 44 43 37 35 34 35 32 32 31 30 34 43 69 62 39 33 32 38 43 39 39 42 41 39 39 41 50 66 66 65 64 68 73 77 78 78 82 76 73 76 75 74 78 76 70 68 65 64 63 55 50 49 55 67 76 79 87 87 83 83 85 90 94 99 100 120 214 245 233 229 
53 49 48 44 42 45 47 47 44 43 43 39 37 36 36 35 34 32 34 33 33 42 66 52 37 35 34 37 37 39 43 45 45 39 44 49 51 72 63 63 62 68 73 77 77 77 78 74 74 73 74 75 75 73 65 59 58 58 57 50 46 46 49 61 72 74 80 83 79 79 83 88 93 96 102 112 205 248 230 230 
50 46 43 41 43 39 45 45 44 42 42 39 36 40 36 37 33 33 32 32 36 39 59 55 34 33 36 38 42 41 43 43 46 42 46 54 55 78 64 61 62 62 71 74 75 73 73 74 72 71 72 70 69 65 60 56 51 53 46 49 47 45 49 54 66 73 76 72 75 79 82 89 91 96 102 113 193 244 228 224 
50 41 39 37 41 39 44 43 43 39 42 38 40 41 37 37 36 33 35 35 37 37 54 65 42 35 35 41 42 43 43 48 47 41 47 54 63 79 61 63 62 60 64 70 73 71 72 71 71 71 70 69 64 61 56 52 51 46 45 44 44 44 48 48 63 75 71 72 76 83 84 84 89 95 102 105 182 235 229 232 
57 45 41 36 36 38 40 41 43 43 42 35 38 39 38 40 36 33 34 37 35 39 50 69 44 33 35 39 43 45 45 47 46 46 50 62 69 77 68 69 64 59 67 73 71 73 73 69 69 72 69 65 61 56 53 49 47 43 44 44 43 44 49 52 56 67 68 72 77 86 84 85 91 94 96 105 171 237 225 224 
80 72 46 36 35 38 41 42 47 41 43 41 39 40 37 39 35 34 36 36 32 41 49 66 55 36 35 41 44 48 47 48 49 42 52 64 70 74 71 69 65 64 64 69 70 68 71 70 71 68 66 63 55 53 49 48 44 43 43 42 40 47 51 52 58 65 69 77 83 88 85 87 87 93 96 102 158 231 229 229 
91 88 67 38 39 35 39 40 44 46 45 42 39 38 39 38 38 35 36 35 37 39 45 62 65 36 37 41 44 45 48 48 52 44 52 62 75 73 70 67 62 63 64 68 72 71 72 69 69 70 65 56 57 50 50 49 43 45 41 45 43 47 50 53 61 63 68 75 84 89 88 88 90 94 93 100 150 228 223 225 
97 94 87 53 37 39 39 41 41 44 47 44 39 38 37 37 40 35 39 39 38 39 43 55 75 46 41 43 45 48 49 56 53 51 55 60 77 69 67 62 64 65 65 69 70 73 73 71 65 66 60 58 52 49 50 47 42 40 44 43 47 49 51 54 63 70 68 75 83 88 88 89 92 95 95 97 145 227 223 225 
96 95 91 75 41 38 38 39 41 43 49 47 42 40 33 38 39 37 38 40 36 38 45 50 78 50 42 44 45 45 53 57 58 51 56 56 80 58 53 52 59 59 63 67 73 71 72 68 64 61 60 56 52 47 47 45 46 41 43 47 47 48 51 53 61 65 67 77 83 88 89 89 93 95 94 94 135 226 226 224 
95 96 93 85 54 38 44 45 44 45 51 50 46 38 35 36 39 36 37 38 38 38 41 48 75 59 41 44 47 51 50 54 55 50 56 56 76 53 51 53 53 54 63 69 74 70 68 65 59 58 55 52 51 42 46 46 48 43 38 40 45 49 53 58 63 65 69 74 79 87 88 92 91 95 93 94 128 222 221 223 
95 95 95 90 69 45 43 45 46 45 52 50 43 45 38 35 37 36 41 41 40 43 41 46 71 66 46 47 47 50 54 56 54 50 55 60 71 49 48 50 49 53 66 69 71 68 69 66 63 59 54 49 47 39 44 41 45 43 44 43 44 50 53 56 60 67 68 73 79 88 86 89 90 92 92 93 122 219 219 220 
81 86 90 87 82 56 45 45 47 47 50 51 45 43 41 36 38 36 40 41 44 45 42 47 67 73 51 47 52 53 58 58 56 50 57 68 60 44 47 48 49 52 65 67 68 71 70 66 61 56 51 49 45 39 41 39 40 39 40 44 45 48 55 57 61 68 67 70 81 85 85 88 86 94 89 93 117 215 220 221 
64 60 71 75 80 71 55 53 55 51 56 56 47 43 41 40 39 38 38 45 40 42 42 45 63 80 56 52 51 54 56 59 56 54 55 75 56 46 47 53 50 55 63 67 68 69 68 66 62 53 50 46 43 39 39 38 38 36 41 46 46 50 51 56 62 65 68 73 80 85 87 86 90 95 93 91 111 217 222 221 
65 63 63 63 65 66 65 62 63 60 63 58 51 43 37 40 40 35 42 37 40 45 46 47 63 88 59 57 57 56 60 61 57 55 63 78 55 51 51 52 50 58 65 66 68 67 66 62 61 53 48 46 37 36 38 38 41 39 38 44 45 51 53 59 62 66 71 75 78 86 86 87 89 94 93 91 109 216 222 224 
75 71 72 68 65 55 62 63 66 63 68 64 51 45 41 45 46 44 38 35 40 42 46 48 60 87 66 54 59 59 58 60 59 59 76 66 48 48 52 53 54 53 63 66 65 64 63 60 58 52 48 45 38 37 36 38 42 42 40 47 45 52 55 58 62 66 68 73 78 83 87 92 91 96 97 91 107 211 222 222 
77 74 72 69 66 58 62 66 64 65 70 66 56 62 56 62 61 56 51 39 39 40 44 54 62 90 76 60 60 58 61 60 54 65 76 47 38 41 39 40 42 48 62 68 65 65 66 56 54 50 50 42 41 38 36 39 40 40 44 48 44 52 56 56 62 67 67 73 79 82 90 93 92 97 97 93 102 211 225 222 
76 69 71 68 70 61 63 66 63 59 68 64 64 70 62 63 64 64 59 46 49 53 52 51 66 89 79 61 57 59 59 61 55 68 67 46 43 42 40 46 47 50 62 66 66 62 61 56 53 50 43 42 40 36 38 38 40 41 46 47 46 54 53 56 61 67 68 73 75 84 86 94 93 97 98 94 105 210 223 224 
77 71 72 73 69 66 67 70 68 64 66 68 66 70 68 65 64 60 61 56 56 56 58 59 73 91 84 63 59 60 61 61 56 75 68 56 53 48 51 58 57 57 65 64 64 58 61 54 52 50 45 42 42 39 40 44 43 42 49 50 49 52 58 60 60 63 64 70 76 84 88 91 94 98 99 96 107 215 227 225 
69 66 70 77 75 69 73 77 71 77 78 77 77 70 68 66 58 54 62 58 57 60 64 66 71 85 93 63 63 62 60 60 58 77 69 59 61 63 57 56 57 55 62 61 63 58 58 54 48 49 44 44 39 40 42 42 46 47 49 48 51 52 55 58 59 62 66 69 78 83 86 92 93 103 102 98 102 220 233 223 
69 62 72 76 78 75 75 76 80 82 82 79 79 76 64 60 60 58 61 60 62 64 68 67 68 78 102 75 63 58 59 64 57 79 72 64 70 72 67 66 66 61 63 58 60 56 57 53 50 48 45 45 45 40 43 43 44 45 46 50 48 53 56 52 58 63 66 71 76 82 87 89 92 100 101 101 106 223 233 233 
70 64 71 75 78 75 75 78 83 81 80 78 73 64 63 61 61 57 62 67 68 70 69 67 69 71 101 90 65 62 60 58 56 80 77 75 80 78 75 71 65 62 61 60 62 59 55 53 51 49 44 46 45 44 47 45 48 47 45 46 47 55 54 58 60 65 67 72 76 85 85 91 94 99 102 99 107 222 241 235 
68 56 65 71 75 74 75 77 79 77 72 71 65 62 61 65 65 62 63 67 71 70 69 74 68 70 92 105 91 73 62 54 56 78 86 83 82 78 76 73 64 61 62 60 57 55 53 53 50 49 48 47 46 44 48 47 44 42 47 47 46 53 55 57 59 61 66 70 79 84 88 92 93 102 101 104 105 223 238 240 
66 60 61 63 68 77 68 72 72 71 72 69 68 66 66 66 66 64 69 71 71 74 70 75 69 67 73 103 104 91 61 57 55 81 86 80 80 79 77 72 69 59 62 58 60 56 50 48 49 49 45 45 46 44 47 46 45 45 46 47 47 54 58 56 58 63 76 78 80 90 92 95 95 103 109 108 110 225 242 237 
67 60 62 64 66 78 74 70 75 71 73 68 69 65 67 71 68 68 69 74 76 78 78 73 68 66 64 94 104 101 65 56 53 76 88 76 81 76 81 73 69 56 57 52 55 54 50 51 47 47 48 47 44 41 45 43 44 45 45 48 46 50 52 52 56 71 93 102 107 108 112 115 112 124 126 125 131 230 243 240 
65 69 73 76 76 81 78 78 75 74 78 71 72 69 72 73 74 74 77 80 84 83 77 74 70 69 66 84 102 101 74 56 54 77 88 80 81 76 76 71 60 53 59 53 57 53 51 51 48 46 48 46 48 39 43 42 46 43 43 45 46 48 52 53 62 71 91 100 108 114 117 117 120 129 134 130 135 229 242 243 
68 66 76 77 79 82 78 76 76 75 76 72 73 73 76 76 77 75 78 83 81 83 82 83 76 72 72 82 101 99 74 54 54 78 92 80 80 78 77 69 60 54 58 50 53 50 53 48 45 48 44 44 45 41 44 44 47 45 44 46 49 53 52 56 60 71 88 98 108 111 114 117 122 129 136 136 138 229 244 245 
65 66 69 72 75 81 77 77 75 74 82 76 77 75 77 77 77 77 77 78 80 83 82 81 80 78 79 81 99 99 82 59 57 83 90 80 77 76 75 70 56 51 52 50 53 51 51 49 47 44 45 43 46 43 42 42 45 45 46 46 48 52 54 55 60 72 91 99 112 113 114 116 119 125 129 127 126 229 243 238 
69 68 73 70 75 77 75 71 75 74 82 77 80 77 78 83 83 78 80 80 80 86 82 78 81 86 80 81 98 101 92 62 66 88 83 79 79 78 74 70 55 50 52 50 53 49 53 50 47 46 47 46 46 45 44 43 44 48 47 47 50 49 55 59 58 71 92 99 103 99 100 103 104 123 130 114 114 225 243 243 
70 67 76 76 79 77 73 70 73 71 81 78 78 79 82 83 82 79 79 80 80 83 83 81 85 93 95 95 101 102 95 84 85 90 83 77 74 75 76 68 53 48 53 53 51 49 48 49 46 46 46 44 47 41 47 43 45 45 46 48 51 53 57 59 58 74 91 100 98 91 94 97 104 121 133 115 114 229 241 244 
72 71 78 75 74 80 75 71 72 71 78 79 75 79 78 82 81 78 83 81 82 84 84 86 84 91 97 103 101 101 98 99 92 92 88 77 74 73 72 67 52 47 52 48 49 46 46 45 50 48 48 44 43 42 44 44 43 43 45 48 49 51 55 59 61 68 89 97 98 90 93 95 103 122 133 114 116 228 241 240 
75 75 75 72 77 78 77 74 78 76 85 83 82 85 82 85 85 82 85 82 84 85 87 86 85 89 96 102 103 101 99 95 97 91 82 76 70 69 69 67 52 47 52 50 53 56 52 53 60 58 48 42 43 43 40 43 44 45 44 49 48 49 56 59 60 67 87 95 99 90 98 97 101 120 134 114 120 222 239 239 
74 74 78 78 78 80 81 78 83 84 88 90 90 91 90 88 91 88 89 88 86 85 83 81 85 85 90 97 100 99 98 94 92 87 81 73 74 69 68 65 52 50 53 53 60 65 64 62 65 64 50 46 44 39 43 45 43 47 45 45 48 52 55 62 64 73 87 98 103 100 101 103 105 119 135 121 125 228 240 240 
78 73 77 82 84 85 86 86 91 96 95 100 101 99 95 92 95 89 90 88 86 83 86 82 84 82 83 88 91 95 97 92 87 80 82 77 73 69 70 64 55 50 55 61 65 66 62 63 68 66 55 45 43 43 45 42 45 44 47 50 54 58 61 60 63 71 85 96 101 96 100 105 106 118 140 127 131 227 241 237 
82 77 80 81 84 91 91 91 99 104 111 111 118 111 102 95 95 93 92 92 90 85 84 82 84 83 87 84 87 92 97 89 85 76 74 81 74 71 69 70 71 76 61 66 70 68 53 56 59 61 53 49 43 44 43 44 43 46 49 59 58 57 55 59 61 70 85 95 98 94 98 103 106 123 137 131 135 229 243 244 
80 84 87 87 93 95 98 100 103 112 114 114 114 116 107 98 99 97 98 93 89 93 90 84 85 91 86 87 86 86 88 87 75 71 70 80 73 67 73 73 72 73 66 68 61 58 59 59 58 65 63 55 51 43 41 42 46 44 51 58 58 56 56 55 60 68 81 93 96 93 98 102 109 123 139 134 143 232 249 245 
88 85 93 89 91 99 101 101 104 111 116 114 115 118 109 101 103 102 101 96 95 96 96 99 98 102 95 99 89 79 79 73 69 66 75 77 70 72 70 75 71 72 70 73 63 59 63 70 70 66 67 59 60 49 42 43 44 45 48 53 57 56 56 57 59 68 82 93 99 96 96 101 111 126 144 143 147 234 248 253 
92 93 92 93 99 102 102 107 111 108 115 117 118 114 114 105 112 107 109 112 105 101 102 100 99 99 85 81 76 66 67 59 58 57 57 54 47 71 80 81 78 74 79 75 71 68 72 74 73 67 64 62 60 51 43 42 41 44 44 54 57 50 56 56 60 69 83 92 95 92 97 104 110 123 144 145 151 232 248 255 
105 97 95 98 101 105 108 108 111 116 117 120 120 120 115 120 126 126 119 116 107 100 91 93 91 88 55 51 55 56 53 39 46 53 49 20 46 70 76 71 69 82 75 71 70 71 77 72 68 62 58 52 52 44 39 41 39 41 41 53 53 55 54 56 58 64 81 93 97 92 96 102 108 125 145 151 159 230 249 262 
110 105 106 104 108 109 111 112 111 116 122 120 122 125 131 129 128 121 120 110 102 95 89 88 90 84 34 18 36 36 33 31 54 57 7 10 38 25 11 16 38 77 68 64 64 66 68 68 63 60 58 52 48 45 41 37 42 40 41 53 54 52 54 57 60 64 78 94 95 94 97 103 111 125 148 154 165 230 249 253 
123 114 113 109 114 115 114 119 119 123 125 123 126 141 145 138 132 126 118 111 92 82 73 94 74 81 16 8 18 14 43 69 73 24 0 7 10 3 2 25 52 76 79 71 78 68 66 67 65 62 61 52 49 46 34 39 43 42 42 51 52 52 56 60 64 64 83 91 95 95 97 103 111 125 149 157 173 234 249 252 


