P2
80 60
329
113 122 120 118 120 121 120 122 121 121 118 123 121 120 124 121 123 120 114 108 109 106 106 109 109 114 109 106 104 104 104 102 100 102 103 103 102 103 103 94 82 84 93 91 91 93 95 97 103 106 108 111 117 116 119 117 114 115 116 117 113 108 106 107 108 108 106 108 108 110 114 111 111 140 288 329 296 275 181 119 
115 127 121 119 122 121 122 125 121 122 117 119 119 118 118 119 115 114 109 107 106 107 108 106 105 112 107 108 105 105 104 108 108 105 106 104 104 100 99 96 91 89 95 100 93 98 99 102 104 108 116 112 117 120 118 119 118 117 118 116 113 110 106 107 107 102 103 106 103 103 104 101 102 125 273 325 281 199 126 115 
120 129 121 119 118 123 123 126 124 121 119 121 118 119 118 116 112 113 108 106 107 106 105 104 103 111 111 107 103 100 102 108 106 105 103 104 101 98 97 89 91 88 93 97 98 98 100 103 108 111 115 115 118 122 121 120 122 121 117 112 112 111 109 107 105 105 104 101 98 102 101 100 94 117 253 281 187 121 108 106 
124 126 119 122 121 123 121 119 122 118 118 117 117 119 116 111 113 112 108 104 104 106 105 104 104 107 111 103 95 100 102 104 104 104 104 101 98 96 91 91 87 89 95 98 96 97 98 107 109 113 111 115 118 123 123 121 120 115 116 114 111 107 105 102 107 102 102 98 100 96 95 90 94 108 206 184 117 102 102 105 
124 125 120 122 126 124 127 125 122 123 117 104 114 117 119 113 112 108 106 103 104 105 102 104 99 104 104 97 99 103 103 106 102 103 103 100 95 94 89 93 91 89 96 97 98 100 100 107 109 114 115 120 118 123 123 122 119 116 118 114 110 109 105 102 105 103 102 99 97 96 91 89 89 93 129 111 98 98 100 98 
125 127 119 123 124 125 125 127 121 120 114 110 111 113 114 114 109 107 110 104 101 103 107 105 100 104 101 100 102 101 102 107 104 105 101 102 99 94 88 90 91 95 99 100 101 104 104 109 112 116 117 121 119 119 120 118 114 113 114 111 109 106 103 103 102 97 101 93 94 91 85 84 84 86 98 104 98 94 97 102 
127 130 125 120 124 127 125 122 117 115 112 105 111 112 112 111 106 101 109 105 105 103 105 106 102 100 101 97 100 102 102 101 102 102 101 99 95 95 95 92 93 96 101 107 103 108 111 113 116 116 117 119 121 121 121 118 115 113 112 113 108 106 98 98 99 93 90 85 86 82 80 78 79 86 90 95 91 90 91 97 
121 130 125 122 127 125 124 119 114 117 111 104 106 111 110 104 98 104 105 102 108 106 107 103 98 99 95 100 98 99 100 104 100 100 95 92 91 95 92 92 93 95 109 105 109 111 114 120 120 122 121 119 123 120 121 116 113 112 108 106 103 101 97 93 93 87 84 78 80 76 77 76 80 79 85 94 87 89 90 89 
127 128 126 126 129 129 125 114 117 115 107 103 104 107 111 101 96 99 104 102 108 103 103 102 98 99 94 96 97 98 99 99 99 96 92 93 92 93 95 95 95 99 107 115 112 115 118 119 124 126 125 120 122 123 121 115 110 111 109 106 97 99 93 88 86 84 79 75 70 73 74 73 78 75 83 89 89 87 90 90 
129 134 128 129 127 126 118 118 114 116 110 101 105 105 104 101 94 93 95 95 106 103 106 104 102 100 97 99 97 98 101 99 93 94 92 91 90 92 96 98 98 103 110 119 116 118 123 124 125 127 125 120 124 121 122 114 107 109 100 97 94 92 88 85 83 76 72 68 66 70 70 73 73 74 83 90 86 85 87 89 
128 133 129 128 129 128 111 115 109 112 114 106 100 102 103 99 90 90 92 95 101 103 108 103 103 101 98 96 96 96 95 96 94 98 92 89 95 94 96 100 99 102 111 118 119 123 122 124 125 128 126 124 125 121 115 111 102 100 98 97 88 88 79 78 75 68 65 62 64 65 65 65 71 72 81 84 80 80 81 84 
132 136 131 131 136 129 110 112 110 116 117 110 100 102 103 100 96 93 94 96 103 99 104 105 102 100 100 97 96 94 96 97 96 97 94 92 97 95 99 99 98 104 114 119 121 125 122 122 122 125 122 123 118 119 115 109 101 94 93 91 90 83 76 73 71 66 64 60 59 60 61 61 69 68 77 81 80 79 73 75 
128 136 131 130 134 124 111 111 111 118 119 112 104 96 98 102 99 105 104 101 105 107 108 102 101 97 97 99 97 95 95 97 97 97 92 93 96 96 102 101 103 107 114 121 121 120 122 124 122 122 123 119 117 115 110 99 96 90 92 87 84 79 73 73 67 60 57 54 58 59 62 61 61 63 75 81 76 75 70 77 
130 133 132 132 133 124 112 115 119 116 115 112 112 95 99 102 101 103 106 107 109 107 105 106 102 97 95 98 97 95 95 98 94 99 92 95 92 98 100 105 110 112 116 120 121 125 121 124 119 125 121 116 115 110 106 100 92 91 95 86 77 74 69 64 60 59 54 52 54 56 62 57 62 62 69 77 74 73 70 70 
126 134 127 129 129 123 114 119 118 116 114 110 110 102 102 102 103 105 101 104 110 109 109 103 101 100 102 99 97 96 93 96 96 95 94 98 98 99 102 106 106 112 116 121 121 125 120 124 123 124 115 113 111 106 105 99 96 88 86 84 78 73 68 60 55 55 50 51 53 54 56 57 60 64 70 71 70 69 69 69 
127 134 129 126 123 120 115 121 118 118 111 109 108 108 103 102 99 104 103 102 109 109 110 105 103 102 103 103 99 102 96 99 97 99 104 103 106 109 110 114 113 116 116 120 121 122 120 120 119 120 115 112 107 106 103 95 91 86 83 82 75 67 63 57 53 50 50 44 48 52 53 54 61 63 67 70 63 66 65 67 
126 135 128 123 115 112 114 118 115 112 108 104 105 99 99 95 95 98 103 110 111 114 109 108 106 107 101 105 105 102 105 102 107 107 109 113 114 117 119 125 127 124 122 124 123 125 119 121 121 120 114 113 109 105 105 96 88 85 81 75 69 67 58 54 52 51 48 46 51 52 54 55 61 62 67 71 68 66 66 71 
127 132 125 126 120 117 116 112 114 108 106 101 102 98 97 89 92 101 106 108 104 107 110 110 106 107 106 105 105 108 105 107 106 108 109 117 120 125 124 124 130 127 127 123 123 124 118 119 119 120 115 112 106 105 103 90 88 82 75 69 64 60 56 54 48 48 51 43 46 49 50 53 57 62 63 69 67 72 68 67 
133 127 123 117 120 119 114 111 112 110 105 104 106 100 93 93 94 105 106 106 105 108 107 107 107 106 108 109 109 106 107 110 110 112 114 117 121 125 126 132 128 125 125 124 122 123 115 116 113 116 114 108 103 102 97 87 84 79 68 64 60 53 50 53 47 46 41 39 42 45 49 51 56 56 62 65 65 69 70 70 
123 123 119 119 122 118 121 114 112 108 105 99 105 96 91 97 100 98 104 101 103 106 104 105 108 111 112 111 107 111 105 109 109 114 114 119 120 126 129 134 129 128 123 125 127 123 114 116 108 113 110 106 104 97 93 84 81 78 68 62 52 50 49 48 45 47 43 40 44 44 48 49 55 56 63 63 63 71 69 69 
126 122 120 123 123 125 121 117 115 109 107 101 104 96 97 99 99 97 100 100 104 100 104 109 110 114 113 113 111 110 109 111 114 113 119 117 121 126 130 132 124 122 118 126 128 127 122 116 112 111 108 100 99 92 87 78 79 74 61 55 48 48 43 47 42 47 44 42 48 40 45 46 49 55 59 64 62 66 68 68 
125 125 116 120 125 125 121 120 116 111 108 108 105 99 95 94 95 96 96 93 98 99 105 110 111 114 113 113 113 114 113 112 114 118 120 123 126 130 131 125 122 121 116 113 116 124 123 119 112 112 108 98 93 87 83 83 78 81 62 51 44 39 40 42 42 41 40 40 40 40 47 45 48 52 58 64 61 64 68 70 
123 125 115 117 124 122 121 124 114 116 112 107 107 102 102 94 97 93 87 93 94 99 105 113 114 116 115 115 114 113 110 116 113 121 118 121 126 127 127 121 122 116 115 115 115 111 113 114 115 113 104 95 87 81 79 82 84 83 68 54 43 43 38 39 38 39 39 38 40 39 41 47 52 50 54 62 61 66 64 69 
120 124 115 113 122 126 120 125 118 116 112 108 102 104 103 97 94 95 86 90 98 104 108 114 114 118 116 113 112 112 111 116 114 118 118 121 121 118 118 115 120 116 112 113 110 113 110 108 112 112 103 92 85 76 79 82 82 77 69 44 36 36 34 33 35 38 35 36 35 39 41 43 44 51 57 58 56 59 64 71 
115 124 119 113 116 118 120 118 120 113 113 109 109 103 103 98 101 96 81 92 99 104 109 114 113 116 115 112 115 114 110 116 112 116 115 115 115 116 111 114 113 112 114 110 105 108 106 107 105 105 97 93 81 69 71 80 78 80 70 44 37 37 34 35 35 39 41 36 32 39 35 37 39 50 56 61 57 60 65 65 
116 122 122 117 120 113 119 120 117 108 112 110 111 107 101 102 99 95 83 93 100 102 110 114 114 114 116 112 113 112 111 111 110 113 114 112 114 113 115 112 106 109 111 108 106 105 103 99 102 104 98 91 84 75 76 81 77 79 74 45 41 34 33 31 34 37 39 35 34 37 36 40 42 47 56 57 58 61 66 65 
115 120 119 120 123 120 108 108 112 109 105 107 108 104 101 96 97 95 84 96 96 100 105 109 106 109 108 110 107 109 104 111 113 117 118 117 114 113 116 108 107 107 103 105 104 105 99 99 93 93 89 88 85 87 81 77 75 78 66 46 35 35 30 34 35 37 40 35 35 37 39 43 43 39 49 58 59 63 64 65 
115 121 120 120 121 120 115 112 108 104 99 103 103 103 103 96 90 93 89 87 94 98 99 102 100 100 103 101 106 109 115 116 115 118 116 117 114 117 112 112 109 101 99 104 100 102 96 98 98 95 95 88 85 85 89 85 76 72 61 43 39 39 33 35 37 40 39 36 34 38 35 41 37 41 39 60 58 61 67 65 
114 123 116 119 120 118 120 113 117 113 107 110 107 104 107 100 93 93 89 91 98 100 102 99 100 98 103 103 107 114 114 113 117 121 116 121 116 119 114 112 110 105 107 100 98 93 87 95 98 100 99 93 93 94 91 77 80 80 53 38 37 38 32 34 40 39 40 37 34 27 27 39 41 43 46 60 59 63 67 67 
118 121 117 117 120 122 116 115 112 113 110 108 112 107 107 102 94 97 93 99 105 108 110 106 105 101 103 107 112 110 116 120 116 118 119 121 114 117 114 111 109 106 102 100 99 93 95 98 103 103 98 95 96 95 96 82 78 71 42 41 39 35 35 33 38 39 41 38 27 6 0 34 49 51 58 57 57 61 63 65 
116 121 118 118 118 121 117 114 111 111 110 114 116 116 114 111 96 101 89 105 113 120 125 119 120 118 114 107 111 115 118 120 116 118 118 121 116 116 116 109 110 105 103 99 95 99 98 100 104 101 94 88 93 94 89 82 78 64 47 41 40 34 35 35 38 41 42 40 30 18 26 38 49 56 58 58 61 62 64 67 
116 119 117 117 120 123 119 113 108 114 116 117 124 121 115 118 106 111 101 104 115 124 127 131 126 128 128 123 118 116 119 121 118 121 120 116 112 113 113 110 107 106 103 100 94 100 99 103 100 103 95 94 91 86 87 78 78 76 58 41 39 34 36 36 39 39 42 40 40 37 39 48 51 60 62 61 59 62 69 62 
117 119 119 118 122 119 119 115 111 118 120 122 127 122 125 118 117 115 113 104 113 121 126 130 131 133 134 131 129 128 126 120 119 121 119 116 116 116 113 112 106 103 104 99 97 101 100 104 102 99 92 92 90 86 81 76 75 77 72 54 43 40 36 34 38 39 40 41 43 42 46 50 56 59 64 58 59 61 66 67 
114 118 120 120 122 120 119 117 116 121 127 127 129 126 125 119 120 122 123 111 111 119 123 131 133 139 138 136 133 134 134 131 123 123 122 118 115 119 115 112 111 107 103 99 99 104 101 101 99 95 93 96 89 83 80 79 71 77 75 67 46 42 35 38 38 41 41 44 45 48 48 56 58 60 65 63 63 67 66 68 
120 118 122 118 119 120 118 117 122 123 131 126 132 129 122 121 125 125 119 116 113 119 123 130 135 143 141 138 135 137 138 136 130 127 121 117 113 115 114 110 107 106 104 106 99 103 102 104 100 96 95 90 83 81 81 77 76 72 73 73 60 49 43 42 43 41 44 43 43 50 53 55 65 63 69 64 62 64 68 69 
119 122 121 119 116 120 122 126 128 131 128 127 135 128 127 123 126 126 127 121 116 116 126 133 136 144 146 143 142 142 140 139 136 133 129 118 115 117 112 109 108 108 105 99 95 100 98 98 93 95 93 89 85 83 79 76 72 73 73 73 69 54 50 47 45 44 41 46 43 49 56 58 60 68 67 66 62 64 67 71 
121 123 116 115 120 124 124 127 129 130 128 129 130 132 128 129 127 127 125 123 116 119 125 133 140 143 145 146 144 142 141 139 140 137 134 125 111 111 108 108 104 103 102 98 91 96 92 87 89 91 86 86 84 81 75 73 69 72 72 72 71 57 47 50 47 48 42 40 40 50 54 60 62 65 66 63 65 69 70 72 
121 123 117 117 125 130 129 130 129 131 129 134 132 129 127 129 127 129 132 128 125 117 123 130 135 145 147 147 143 144 140 141 139 138 138 132 121 109 109 108 105 104 100 96 88 90 86 79 86 88 89 86 84 80 77 74 68 72 72 74 71 67 52 51 46 48 45 43 49 51 53 60 61 64 70 68 65 70 67 68 
121 125 122 122 128 135 133 137 133 131 134 132 129 129 129 129 131 131 135 132 128 124 131 133 135 145 147 148 144 144 145 144 141 140 136 133 129 120 109 110 104 100 99 94 88 85 84 78 83 88 91 90 82 78 76 75 69 71 73 74 74 83 59 51 51 52 48 46 43 49 51 60 64 69 69 70 66 69 69 69 
122 127 125 128 133 135 135 137 133 133 135 135 135 128 128 131 134 135 139 138 135 131 127 135 138 145 145 149 145 145 144 140 140 139 138 133 131 126 116 111 106 102 100 92 87 93 83 79 82 85 88 84 81 81 79 74 67 70 74 73 76 81 69 51 48 48 51 49 50 50 57 63 68 68 76 68 66 70 72 73 
121 131 128 131 134 139 137 139 140 134 136 136 137 133 133 136 135 135 140 135 141 134 129 134 141 143 145 147 145 143 140 141 138 140 140 136 133 130 125 113 101 99 94 88 91 88 76 79 78 85 85 87 85 84 80 69 64 70 73 72 74 77 62 51 50 49 52 51 50 48 56 64 67 71 72 71 65 74 73 66 
123 134 132 134 138 144 139 140 137 143 143 140 136 136 136 136 138 137 141 141 142 138 135 130 136 144 143 142 143 141 140 140 137 139 141 139 135 132 127 119 107 102 97 95 96 94 93 80 79 85 88 85 84 83 75 66 64 72 71 74 73 77 54 51 50 51 52 53 50 56 57 61 68 67 75 73 66 69 70 70 
130 136 137 137 140 142 143 142 143 146 140 137 140 133 133 136 140 137 144 141 139 142 140 132 133 140 142 142 140 140 141 134 137 140 138 136 135 131 131 125 114 105 96 99 96 97 91 82 79 88 89 87 83 81 73 64 62 70 70 72 73 73 54 43 47 46 49 50 55 58 60 64 69 69 71 72 69 72 68 70 
134 142 142 139 146 145 141 143 143 142 138 135 137 130 136 139 137 141 142 145 141 144 141 136 130 141 140 140 139 139 136 139 134 138 139 139 135 132 129 125 120 105 99 99 97 92 95 85 78 83 91 88 86 84 69 58 66 68 69 69 69 69 52 40 42 45 48 50 58 61 58 59 64 69 72 70 69 70 71 72 
137 143 141 141 147 149 145 148 148 143 139 134 135 134 137 142 140 140 143 144 147 146 142 139 135 131 135 136 138 133 133 131 133 136 140 138 134 135 129 127 122 112 101 100 95 93 90 84 79 86 90 85 83 79 69 65 62 64 69 68 68 65 52 36 41 42 47 44 50 51 54 58 62 68 70 70 70 71 71 72 
141 146 146 144 145 148 146 146 148 142 137 137 134 134 137 139 140 142 145 145 148 146 148 143 138 136 131 134 135 137 137 134 132 136 133 137 135 131 129 126 120 116 104 98 96 92 91 85 82 84 89 84 81 75 70 65 67 64 68 65 68 64 52 37 38 42 45 45 46 52 54 55 64 67 75 69 68 72 69 69 
143 150 148 141 149 148 146 145 143 139 136 135 135 136 139 144 141 147 148 148 152 152 151 144 139 138 131 130 132 134 133 133 131 133 136 136 137 132 132 127 123 120 109 99 97 92 91 88 82 80 89 85 80 75 69 62 62 64 61 65 68 59 48 36 41 42 44 45 45 52 57 58 64 68 73 69 64 69 66 71 
146 152 151 150 150 150 147 148 145 141 134 135 138 139 141 145 146 147 154 150 154 156 151 146 138 139 133 129 127 133 135 132 130 134 135 136 133 132 130 124 120 120 113 102 96 94 94 86 85 82 87 82 79 75 69 60 58 65 56 60 65 58 47 36 38 44 49 45 46 57 58 60 65 70 72 70 64 68 68 75 
146 155 152 151 147 149 145 146 142 138 134 133 138 143 146 147 145 152 153 155 155 152 152 149 139 138 135 131 126 125 132 132 131 133 134 133 132 131 129 130 122 118 113 105 99 94 91 92 85 82 85 83 81 75 70 64 61 64 57 60 62 54 42 37 40 43 45 45 51 56 58 62 70 69 72 66 60 66 71 71 
154 158 155 151 151 153 150 147 145 141 138 136 143 148 146 152 151 153 155 154 154 153 152 146 136 136 132 128 129 126 125 129 127 131 129 129 131 127 129 127 126 118 115 110 99 94 94 94 86 84 88 87 80 75 69 64 59 64 59 52 55 49 43 38 40 43 46 48 51 53 58 60 69 70 70 63 59 65 72 75 
151 158 155 150 149 150 146 146 145 144 144 138 145 151 151 149 151 157 153 154 156 157 155 145 137 138 133 131 132 129 127 122 122 127 128 129 129 127 129 129 124 120 120 113 101 95 94 98 91 87 88 86 79 76 71 64 59 67 62 52 48 44 40 38 41 46 45 48 51 57 62 62 69 70 73 66 62 67 78 78 
152 162 155 154 150 152 148 145 145 143 144 139 148 151 147 155 154 155 157 156 157 153 150 146 135 132 129 127 128 132 128 129 118 120 121 123 127 127 126 126 126 123 119 117 106 96 99 100 95 93 90 83 78 78 73 65 58 63 65 59 44 45 38 38 42 44 45 46 49 57 58 64 69 70 74 65 66 69 72 83 
154 156 154 153 150 148 147 148 148 145 144 141 148 150 151 150 154 158 159 153 157 154 152 142 132 133 129 127 128 134 128 128 124 120 117 118 122 127 125 125 122 121 125 117 115 102 99 103 97 98 89 81 81 78 73 66 57 61 63 54 44 44 39 36 44 45 45 50 49 53 61 67 74 75 75 73 69 73 80 88 
155 156 155 155 157 153 149 149 149 148 146 141 147 148 154 158 156 158 160 158 155 159 150 146 132 136 130 131 128 134 127 126 125 125 115 114 116 122 123 124 123 124 120 118 112 104 98 102 100 95 89 85 82 78 75 66 55 59 65 60 50 48 39 39 43 45 45 48 48 55 59 69 77 76 80 72 73 76 89 88 
155 160 158 154 154 151 150 149 147 145 150 145 149 152 151 152 158 157 158 162 160 157 154 146 137 132 132 129 130 132 123 125 128 122 119 112 115 117 119 119 122 120 122 117 115 106 96 102 95 98 88 85 82 80 76 67 57 59 64 64 54 45 45 38 42 44 48 50 54 57 61 73 78 78 84 74 76 82 85 88 
154 161 157 158 155 151 148 153 148 146 144 141 153 152 154 157 154 158 161 158 159 158 153 150 142 136 127 126 127 131 126 125 125 120 113 104 108 109 114 116 120 122 120 116 113 106 93 100 97 96 92 89 81 80 78 68 62 58 64 63 51 46 39 40 44 47 47 50 51 55 65 78 84 84 89 81 79 85 89 92 
156 164 155 153 149 148 142 144 144 147 148 142 156 157 157 160 157 157 162 158 157 156 153 146 141 138 127 125 128 121 124 122 121 121 113 103 103 108 112 114 114 117 117 118 117 110 94 98 92 95 90 82 78 81 80 66 60 57 58 58 53 45 45 42 43 43 48 55 57 61 66 80 86 89 91 88 83 92 94 98 
165 168 157 156 146 142 131 134 135 139 137 140 154 154 154 158 158 157 161 163 157 155 156 160 145 146 140 132 127 127 125 124 122 116 114 110 107 105 108 110 110 113 115 115 111 108 92 96 97 96 95 89 88 80 78 68 59 58 56 55 48 44 40 38 43 42 50 54 58 67 73 81 88 92 94 94 89 97 99 106 
161 166 158 155 151 149 140 137 134 132 141 138 147 149 155 158 158 155 159 161 157 155 162 187 177 181 151 142 147 181 170 163 132 130 134 122 102 108 121 122 127 114 113 110 109 115 116 108 109 122 139 131 128 99 77 71 54 55 57 52 42 45 43 46 45 50 56 61 64 71 77 82 87 93 95 94 94 102 101 104 
163 163 155 150 146 148 143 141 139 139 140 144 149 148 152 156 157 158 162 160 156 158 166 188 183 182 155 141 155 196 186 182 137 136 138 122 100 109 123 126 143 130 120 110 107 125 128 113 116 121 147 135 131 114 76 71 57 53 49 44 47 44 40 46 49 54 57 61 68 75 76 81 88 92 99 99 97 100 105 107 


