P2
80 60
176
87 85 86 82 84 87 87 87 89 93 93 96 92 91 94 94 98 102 97 97 99 95 92 93 89 96 99 98 93 82 75 67 66 70 67 68 68 66 66 63 60 64 64 64 65 59 62 65 70 73 77 82 83 87 87 85 82 81 80 82 79 73 72 71 69 69 68 65 68 72 73 75 78 72 70 69 59 57 55 61 
89 94 84 81 82 84 85 90 91 91 91 89 90 92 92 92 90 96 95 94 96 94 93 91 95 100 99 97 91 83 68 71 74 71 71 70 69 61 64 69 64 62 67 67 68 64 63 69 72 77 81 81 86 88 90 88 83 87 82 82 77 73 74 74 71 69 65 69 68 64 67 74 74 71 72 70 60 57 58 59 
91 94 86 81 83 85 87 87 90 89 88 92 90 94 94 92 92 93 90 95 94 92 92 90 91 100 100 96 87 66 66 69 70 71 66 67 64 60 69 67 65 65 65 62 68 63 66 71 73 78 78 84 87 90 88 89 86 86 86 81 76 74 73 73 70 72 67 68 66 62 65 69 71 67 65 57 56 54 53 57 
93 93 87 85 85 84 85 86 89 87 85 89 86 88 90 88 91 93 92 90 89 92 90 89 89 95 95 91 69 63 64 68 69 73 69 66 61 62 68 63 64 64 66 67 66 63 68 71 75 77 80 82 88 89 89 87 85 85 80 79 73 71 76 69 70 70 66 62 62 60 60 63 61 57 60 57 55 58 54 52 
90 92 83 90 91 87 87 89 90 90 85 71 73 79 90 87 86 91 89 90 87 89 89 88 85 92 92 73 64 65 65 68 65 71 71 64 62 67 69 67 66 65 68 68 69 64 68 74 77 76 83 85 86 87 91 88 85 83 79 78 73 71 71 72 70 66 62 62 62 55 56 59 54 52 60 61 56 61 54 49 
95 96 89 91 94 90 89 89 91 88 80 78 73 76 78 80 83 89 87 87 86 88 84 89 87 91 87 69 67 64 65 71 67 68 65 67 69 69 68 66 67 68 68 68 70 67 70 74 79 82 85 87 87 88 90 87 84 82 78 80 77 74 72 71 65 65 63 58 57 57 57 56 50 52 57 59 56 56 49 50 
94 100 91 88 89 88 88 87 86 81 83 78 77 76 70 71 70 79 89 89 89 87 89 90 84 89 81 65 68 64 66 68 62 66 66 66 72 72 72 68 69 73 73 72 73 75 75 78 85 82 85 85 89 90 90 88 84 84 79 76 74 75 69 66 66 59 58 55 61 59 56 56 48 49 54 59 52 55 48 52 
97 98 93 88 88 89 90 82 76 80 79 77 75 75 67 65 63 72 78 86 88 83 89 85 81 84 70 63 62 62 64 65 64 64 67 75 70 72 72 67 72 73 74 75 81 79 81 87 90 88 87 86 90 91 91 86 83 81 78 76 74 72 66 65 59 60 54 53 56 57 54 50 46 48 52 57 49 49 44 48 
97 98 91 96 93 90 87 74 80 79 78 72 73 72 69 62 60 65 68 79 86 85 85 81 80 79 63 60 63 60 59 62 64 69 75 79 76 71 72 71 71 73 75 79 82 83 87 89 93 95 92 88 89 90 89 84 81 79 75 74 69 66 62 60 53 52 47 50 54 50 50 45 45 45 48 46 44 49 41 42 
98 100 94 93 96 91 81 74 77 83 77 71 69 72 64 58 54 59 61 60 79 83 84 82 84 78 61 62 64 60 60 65 73 83 78 78 72 73 67 69 72 78 79 83 89 88 93 96 98 96 94 91 93 93 95 84 82 79 76 65 68 59 59 55 52 45 43 45 50 44 38 41 40 39 42 45 43 51 43 40 
99 100 96 98 95 92 72 72 75 80 77 73 68 66 64 60 50 53 56 60 67 79 82 85 82 73 63 61 61 58 63 78 86 85 82 75 72 73 71 67 73 76 81 84 89 96 95 98 100 98 97 96 93 92 87 83 77 74 72 67 60 62 55 51 47 42 37 39 44 39 39 36 36 39 38 35 39 47 46 41 
96 100 98 98 102 92 73 69 76 80 80 73 67 68 66 62 55 57 56 64 58 70 81 83 77 68 63 64 64 64 81 87 83 85 78 73 73 71 72 73 72 77 83 85 91 94 97 99 99 97 94 92 87 90 85 78 72 69 65 63 59 55 54 50 42 38 35 32 35 32 36 36 35 34 35 36 35 47 45 40 
97 101 98 98 96 86 71 67 77 83 78 78 66 60 62 59 60 64 65 67 61 61 76 79 77 63 63 66 75 81 85 86 85 82 77 73 72 74 76 72 76 80 84 88 94 94 95 97 100 96 92 90 85 83 84 75 69 63 64 57 54 50 51 45 38 32 32 33 34 32 34 34 37 33 30 31 26 32 35 36 
97 103 97 98 97 82 72 74 84 78 79 74 72 59 64 63 60 65 69 69 68 65 68 81 76 60 63 78 86 82 83 80 80 80 74 75 73 72 74 78 81 84 84 88 95 97 95 101 101 96 90 86 82 81 82 74 68 65 61 56 48 49 45 37 33 31 30 31 35 38 38 41 37 33 33 35 25 15 21 35 
96 96 93 98 92 84 75 79 85 81 80 73 73 67 67 62 67 69 69 70 69 69 69 75 75 69 82 85 84 80 81 79 81 78 74 76 75 74 77 76 83 85 86 90 93 94 96 101 100 94 87 85 82 80 79 72 68 64 57 56 49 44 46 36 31 28 30 34 38 42 44 46 38 29 27 34 28 16 19 34 
97 102 95 92 86 78 76 82 80 77 73 75 73 69 69 65 63 69 69 70 69 69 69 69 65 70 75 72 68 66 67 67 67 71 74 73 73 78 80 84 86 87 88 94 94 97 94 98 97 92 86 84 81 79 79 72 66 62 55 51 47 41 36 32 27 20 21 28 34 35 39 42 35 0 2 26 34 40 34 27 
98 99 94 90 74 71 72 77 78 75 72 70 67 65 64 63 62 67 71 74 73 75 67 70 68 67 71 67 71 68 70 72 75 79 79 81 82 86 88 92 96 92 92 93 97 100 95 98 98 94 87 84 81 80 77 72 62 60 56 47 44 38 34 27 21 23 21 23 27 34 36 42 35 1 16 30 38 41 40 32 
98 100 90 89 76 75 74 74 77 74 73 74 69 66 66 62 67 74 70 73 67 72 69 69 64 67 71 70 70 74 72 76 76 80 79 83 87 90 92 93 101 98 95 89 93 96 97 98 96 90 87 86 83 78 77 68 62 52 52 44 37 34 29 27 23 25 20 17 22 25 30 35 33 27 32 33 36 37 37 31 
94 88 81 76 79 76 75 76 78 71 74 80 74 68 62 62 60 70 72 73 69 73 71 65 66 70 74 77 77 74 76 81 80 81 81 84 88 89 96 101 98 95 93 92 92 97 94 100 90 86 88 84 78 77 74 64 61 55 46 39 33 26 26 24 21 24 15 17 19 21 25 26 27 27 29 28 29 32 29 28 
93 81 76 78 79 76 79 78 76 75 72 74 78 68 61 66 65 67 68 69 67 69 68 67 67 73 82 78 78 79 75 76 79 86 84 89 86 92 100 101 97 96 91 91 93 97 91 92 88 86 82 80 77 73 69 66 61 55 45 36 25 23 21 24 19 18 15 15 16 16 18 21 25 21 24 23 24 27 28 28 
89 84 79 81 81 81 80 77 80 72 72 70 68 62 63 66 66 68 69 71 69 63 67 72 72 75 80 81 79 77 77 80 84 84 89 87 88 93 99 99 92 90 86 90 96 93 87 89 89 86 79 76 71 70 65 56 53 48 38 29 25 19 22 20 18 19 14 17 18 15 15 19 17 15 17 23 25 26 23 25 
91 84 74 79 81 82 80 77 81 72 73 74 68 63 62 61 61 64 63 66 62 66 69 70 75 77 85 82 80 81 81 82 87 86 89 90 90 94 97 92 90 88 83 82 88 91 87 84 85 86 79 74 68 67 62 59 51 46 34 24 20 16 17 17 19 17 12 12 13 11 14 15 15 18 17 18 22 24 20 21 
90 89 73 73 80 78 80 80 77 77 76 73 71 67 66 61 62 61 59 65 57 66 71 77 77 81 83 81 83 81 78 82 85 87 86 90 91 91 92 86 89 85 84 83 84 79 83 83 84 82 75 74 67 63 57 50 48 44 35 18 20 18 16 16 16 16 14 15 14 13 15 18 17 16 19 18 16 18 16 21 
86 90 78 71 76 84 80 79 81 78 75 75 67 69 66 62 61 66 60 58 63 69 73 77 76 80 85 82 84 77 78 82 86 87 89 86 87 84 85 84 86 88 83 81 81 77 72 77 81 77 74 69 62 59 50 48 46 43 35 21 16 14 14 10 9 14 12 11 11 12 15 16 13 13 14 17 16 18 17 18 
81 89 83 70 74 78 78 80 85 75 73 74 72 70 72 67 72 73 56 60 64 71 76 77 78 81 83 81 83 77 77 82 82 86 85 86 86 87 82 81 82 84 84 82 74 73 71 71 70 69 62 62 59 49 46 46 41 43 35 21 17 16 14 9 9 16 13 8 10 11 13 16 10 12 15 15 16 17 15 19 
81 90 86 82 76 73 79 77 78 72 75 74 73 69 69 68 76 71 56 64 66 70 77 77 77 78 84 83 78 79 76 77 80 86 93 91 88 90 89 85 78 81 80 79 76 71 67 64 67 65 59 55 55 50 47 44 44 42 34 20 17 14 15 7 8 14 14 13 14 12 11 17 13 14 13 15 17 20 20 18 
83 92 83 82 85 73 69 68 73 71 69 71 72 68 66 63 75 69 56 69 62 67 73 73 70 74 77 79 76 74 72 76 82 89 96 96 92 89 92 90 84 81 75 77 75 69 65 65 60 55 54 55 53 53 50 44 43 43 35 19 16 15 11 8 10 11 11 6 11 12 8 16 15 16 15 16 17 21 17 19 
81 90 83 85 83 80 78 70 67 67 62 68 64 62 69 64 66 69 60 57 60 64 65 64 64 66 72 71 77 74 81 82 84 87 95 97 94 95 91 87 87 83 79 78 75 69 62 63 64 60 57 52 53 50 52 53 44 38 27 16 15 13 14 10 12 12 12 13 12 11 9 14 13 17 14 17 15 18 15 16 
85 92 83 85 85 81 85 79 81 78 69 73 65 67 69 61 59 64 57 60 62 62 64 59 61 66 74 76 78 78 80 81 83 88 91 95 96 94 92 89 86 82 84 77 76 69 65 62 62 67 59 58 56 54 54 48 47 41 22 18 20 15 13 14 14 17 12 10 9 11 11 16 16 18 16 17 17 16 17 17 
84 92 88 84 86 84 83 83 82 77 72 71 74 69 72 68 63 65 67 72 71 71 71 64 67 66 75 76 84 80 85 84 85 87 89 98 94 94 91 88 86 85 80 76 73 66 64 65 67 68 61 59 62 62 60 50 44 35 20 23 17 17 15 14 13 14 13 12 15 12 11 16 18 19 18 18 16 17 14 17 
82 90 85 82 84 83 82 80 76 71 72 77 74 73 76 74 65 68 61 77 80 84 85 81 81 79 80 79 82 83 87 85 85 85 89 97 95 94 94 89 85 83 80 75 70 67 67 69 69 67 57 55 58 62 55 50 48 37 23 21 16 13 16 13 12 15 12 15 13 13 13 15 16 18 15 13 13 16 16 19 
81 87 84 81 84 85 85 77 71 74 72 79 80 81 78 81 74 78 65 77 84 89 86 90 89 90 93 91 85 83 85 90 86 88 85 96 93 92 92 90 86 86 82 78 69 66 65 69 66 67 58 57 59 55 51 45 47 41 29 22 20 12 15 15 12 15 14 13 16 13 10 17 16 17 17 16 14 17 17 12 
82 87 85 85 88 83 83 75 72 75 79 84 85 83 87 84 83 84 76 74 84 87 91 90 94 96 101 100 97 94 91 90 86 89 90 98 98 94 92 92 88 86 85 76 73 71 66 72 68 64 57 60 58 53 50 45 46 44 39 26 20 12 12 16 11 17 13 14 15 16 14 18 18 19 20 16 17 22 17 18 
81 89 84 87 86 84 75 76 78 83 88 89 87 89 88 85 88 88 87 79 83 85 88 95 94 101 106 103 102 99 102 98 92 90 90 96 101 97 96 93 91 84 81 78 76 73 68 68 69 62 56 60 54 48 47 44 43 46 43 35 19 15 13 14 14 17 15 15 16 16 14 19 22 21 18 19 20 23 21 15 
82 87 85 83 81 77 74 76 83 85 90 88 92 89 89 85 88 91 87 84 82 88 94 97 96 105 107 106 105 102 105 104 100 93 90 99 96 95 96 92 89 88 84 81 73 76 68 69 69 63 59 59 52 50 46 46 39 41 41 43 27 19 18 16 14 19 12 15 15 14 16 19 24 23 21 22 20 23 21 21 
83 87 81 85 73 79 82 84 89 89 89 94 98 90 94 90 90 94 92 89 81 86 95 96 98 107 113 108 110 110 109 109 103 102 96 97 94 93 92 90 89 86 83 77 67 66 64 64 63 61 54 56 52 49 47 43 38 39 44 46 35 19 22 19 16 13 16 17 16 15 16 22 27 26 24 24 20 25 20 19 
82 86 80 76 76 78 84 86 91 92 90 97 93 98 93 95 94 96 93 91 84 92 95 99 103 110 114 112 111 110 109 112 110 109 103 96 94 92 92 86 83 82 83 71 64 65 59 58 58 60 57 52 51 49 46 41 37 39 39 43 40 23 18 15 15 19 15 13 14 15 23 23 28 27 27 27 24 25 20 18 
79 81 75 73 81 87 87 87 92 92 91 97 95 93 94 94 97 97 99 95 92 87 94 97 101 111 114 116 113 112 112 113 110 112 109 99 98 87 88 87 86 83 79 68 61 59 59 56 57 58 56 54 50 49 46 43 36 39 41 43 42 27 19 18 16 17 15 17 14 13 14 21 27 29 30 27 26 27 26 21 
81 81 75 79 86 87 91 90 94 96 98 97 92 94 91 95 97 100 100 99 94 93 97 100 103 110 115 116 114 111 113 112 115 111 106 101 98 93 87 89 82 79 76 65 60 56 54 53 56 59 55 55 51 45 43 40 39 41 41 43 40 46 27 16 17 16 18 18 17 12 13 22 26 33 28 32 28 28 26 23 
80 82 81 84 89 90 93 94 95 98 95 101 96 92 94 96 100 102 104 107 100 90 96 101 103 111 110 118 115 110 111 112 112 108 109 103 99 97 90 87 83 81 78 60 61 58 52 53 52 56 52 55 49 46 47 39 39 38 41 40 38 42 37 16 16 18 21 15 20 13 18 23 29 34 38 32 34 33 22 27 
80 87 84 88 91 93 100 95 103 100 99 99 102 96 98 102 102 102 107 107 105 100 95 99 103 113 114 116 113 110 109 110 110 110 108 105 99 101 96 87 81 75 67 61 63 58 61 50 52 57 53 55 50 48 44 35 33 39 37 38 39 36 23 16 17 15 20 16 22 19 21 23 28 34 33 32 30 33 26 28 
81 92 89 97 93 99 98 101 103 103 104 102 96 95 103 100 104 105 110 112 106 105 97 97 102 111 114 115 111 107 106 108 106 108 108 106 104 98 95 89 76 70 69 67 69 64 62 53 52 53 54 53 53 48 43 33 35 37 37 40 33 38 16 21 15 20 17 20 21 23 23 24 28 27 31 31 30 33 21 24 
87 92 94 96 97 102 100 101 106 104 104 103 103 95 96 100 102 105 110 110 106 108 104 96 100 107 112 114 111 106 105 103 105 108 109 105 104 96 99 93 78 74 66 69 69 65 62 57 53 54 53 56 52 46 43 37 31 35 37 36 34 35 15 9 14 15 17 17 21 24 27 32 28 24 28 28 29 34 26 28 
91 97 100 100 101 101 106 103 110 104 101 100 102 97 103 107 102 109 112 115 109 110 108 99 97 105 112 111 111 106 105 106 103 108 108 108 103 101 99 93 87 72 74 70 73 67 63 56 52 53 56 55 51 47 41 39 35 35 33 36 33 32 13 9 10 16 15 18 25 21 26 32 30 27 29 31 25 31 29 25 
93 101 99 103 103 107 104 108 110 106 101 101 101 99 105 106 107 110 114 115 115 113 110 100 93 98 108 109 106 104 105 101 104 106 110 106 102 99 97 95 88 81 74 71 70 65 61 55 51 54 55 55 46 44 37 39 36 33 33 36 32 32 16 8 5 12 10 12 14 13 23 27 26 28 28 32 28 30 28 24 
99 104 103 102 108 108 107 106 109 107 103 102 100 100 104 112 111 114 116 118 117 114 114 107 97 97 103 106 106 104 105 103 102 108 106 110 103 100 98 92 90 86 68 70 70 62 62 58 51 52 53 51 50 44 37 39 39 32 33 31 30 32 19 6 10 11 10 10 13 11 18 20 26 29 28 29 27 31 27 24 
102 105 108 105 108 107 111 109 108 104 101 103 98 103 108 111 116 119 120 121 118 118 113 106 98 97 93 101 106 105 104 100 101 104 107 106 105 102 101 97 94 89 78 69 68 62 63 57 52 52 52 49 49 42 37 36 37 36 27 31 29 30 16 7 10 12 13 9 13 12 19 20 26 25 24 28 25 30 25 26 
100 109 109 111 111 110 108 109 110 102 99 97 101 103 110 111 112 120 124 121 121 121 117 110 100 98 96 94 99 101 100 100 101 106 105 105 101 101 99 92 91 92 81 70 69 63 61 60 53 51 52 50 44 38 33 34 36 35 25 27 26 23 17 5 6 13 6 11 13 11 14 20 24 23 25 24 28 31 23 20 
106 111 112 113 111 110 107 107 106 101 95 98 105 107 115 118 115 124 123 124 121 121 118 107 96 98 96 93 94 92 98 98 101 102 102 101 96 101 99 96 90 88 81 74 68 61 62 60 59 51 48 48 45 37 37 32 33 35 25 25 21 21 11 5 5 8 7 9 15 13 17 22 23 24 26 25 24 25 20 26 
110 118 116 113 111 110 112 107 109 100 78 99 106 116 117 120 118 123 122 122 123 121 119 111 96 98 96 93 112 121 97 96 97 100 100 98 97 93 94 95 91 89 84 84 78 50 80 74 70 52 58 47 38 35 31 28 36 38 28 24 18 13 6 1 6 9 11 12 16 16 20 25 25 21 24 24 19 21 23 26 
112 117 114 114 114 113 110 109 107 94 74 101 108 114 120 118 123 126 122 122 125 119 119 107 97 96 99 98 118 156 132 101 91 97 99 98 96 94 94 95 93 88 86 84 100 98 102 81 76 59 82 50 36 33 31 27 34 36 29 27 14 14 5 4 7 11 11 15 18 16 23 24 25 21 24 23 24 24 26 29 
111 121 115 116 113 114 111 110 104 79 78 101 114 114 117 123 121 125 127 123 124 120 117 105 94 91 95 97 119 165 166 140 92 90 91 96 93 92 94 93 92 93 89 87 104 111 101 83 84 82 106 54 39 35 33 23 26 32 31 23 15 12 7 7 12 13 13 15 21 18 25 28 28 25 26 23 26 26 32 29 
111 118 116 120 114 110 112 108 95 83 84 104 112 113 122 120 120 128 127 123 125 121 117 104 91 92 94 97 115 168 170 155 105 95 86 88 90 94 92 95 92 90 93 89 102 120 104 84 89 91 110 62 48 42 35 23 21 32 30 26 12 9 4 8 12 16 14 17 19 20 24 33 30 25 27 31 31 34 34 31 
115 119 118 115 116 118 111 99 86 83 87 103 112 116 121 124 122 128 127 124 122 122 118 113 95 94 95 101 119 168 171 154 112 106 94 83 87 89 88 90 92 91 90 88 96 117 104 89 88 96 117 70 53 46 39 26 17 27 32 28 10 10 5 10 14 15 19 16 23 21 27 32 31 30 34 32 35 39 37 40 
115 125 121 121 120 113 105 89 88 85 89 105 110 117 115 122 122 126 126 129 127 122 120 137 125 98 93 99 119 170 173 154 110 104 96 77 84 82 85 82 89 90 87 83 88 110 105 87 89 97 115 80 54 47 42 29 18 26 29 30 16 8 13 10 14 19 18 20 21 23 26 30 33 37 34 33 34 43 43 38 
115 123 117 120 114 103 92 86 88 87 88 101 110 113 120 123 122 125 126 123 124 122 121 153 164 125 94 96 117 173 175 155 113 107 86 59 76 80 77 84 86 90 87 85 89 107 102 85 86 93 112 79 48 41 40 27 21 22 28 27 16 9 10 13 12 20 18 19 19 24 27 32 39 41 35 37 43 48 43 48 
116 126 117 117 110 98 89 86 87 89 91 100 114 117 120 124 123 125 129 126 123 121 126 163 166 155 98 94 113 168 176 154 110 103 79 59 83 95 77 80 85 89 86 84 89 98 102 85 81 91 107 82 49 44 40 29 22 23 26 22 11 8 10 13 14 19 21 23 21 25 31 40 41 45 39 42 51 51 50 51 
120 128 119 117 107 94 88 88 91 88 93 96 110 116 120 120 125 131 127 129 119 121 136 167 167 161 115 106 109 166 172 151 111 102 82 68 100 103 88 80 78 80 81 81 81 92 97 85 84 91 103 84 51 43 38 28 24 23 25 18 9 5 11 11 10 18 23 24 29 30 32 41 42 48 45 50 51 57 53 62 
125 131 119 114 112 103 98 92 95 95 96 98 107 110 117 125 121 125 124 126 121 117 142 166 164 162 122 116 125 167 170 153 110 104 79 74 108 109 94 96 99 83 79 80 77 85 94 86 83 89 102 84 52 45 38 26 23 20 24 13 7 5 7 9 10 17 20 21 28 29 37 44 46 50 50 54 56 60 57 52 
128 127 116 112 109 108 101 101 99 99 97 105 107 111 117 120 120 123 124 125 119 121 140 163 159 159 124 113 124 169 168 149 108 103 82 84 102 108 96 94 115 94 88 75 73 81 88 83 84 88 95 85 53 41 40 33 28 20 19 13 11 3 6 4 9 20 18 24 27 33 37 43 49 50 55 57 57 65 63 62 


