P2
80 60
8205
8176 8172 8176 8182 8176 8181 8177 8177 8174 8176 8178 8178 8178 8176 8175 8178 8175 8176 8176 8177 8181 8187 8190 8192 8190 8188 8184 8187 8188 8190 8188 8191 8192 8194 8194 8194 8194 8200 8201 8204 8194 8196 8189 8187 8188 8188 8192 8189 8189 8187 8185 8187 8182 8182 8177 8179 8179 8181 8182 8184 8191 8193 8193 8194 8193 8195 8196 8197 8197 8201 8198 8199 8205 8202 8204 8205 8205 8200 8198 8202 
8170 8176 8178 8179 8177 8181 8177 8170 8176 8173 8177 8179 8176 8175 8177 8181 8179 8176 8180 8180 8182 8187 8191 8189 8187 8188 8186 8187 8187 8188 8189 8191 8192 8193 8193 8195 8193 8198 8204 8202 8194 8194 8191 8188 8188 8189 8191 8193 8190 8188 8183 8185 8183 8183 8180 8180 8180 8181 8184 8187 8189 8194 8190 8195 8196 8197 8197 8195 8198 8200 8200 8196 8203 8202 8204 8200 8201 8201 8196 8198 
8168 8167 8169 8175 8177 8181 8175 8172 8175 8177 8173 8174 8172 8173 8173 8178 8178 8176 8176 8180 8180 8187 8190 8186 8186 8186 8185 8188 8188 8187 8189 8190 8192 8193 8191 8190 8196 8198 8202 8200 8195 8194 8190 8187 8189 8194 8188 8191 8188 8187 8185 8185 8181 8183 8183 8182 8179 8184 8183 8184 8189 8190 8190 8191 8189 8192 8194 8197 8196 8200 8197 8201 8199 8199 8201 8200 8200 8202 8196 8198 
8165 8165 8173 8174 8176 8179 8175 8174 8174 8176 8172 8170 8173 8172 8177 8178 8175 8175 8175 8177 8176 8178 8181 8189 8185 8186 8186 8187 8188 8191 8186 8188 8194 8193 8194 8194 8192 8197 8201 8200 8193 8191 8188 8187 8192 8189 8191 8187 8186 8184 8183 8185 8181 8183 8182 8180 8180 8184 8185 8186 8189 8190 8187 8189 8189 8188 8196 8195 8196 8201 8197 8198 8201 8197 8197 8199 8199 8201 8196 8196 
8168 8170 8172 8173 8174 8178 8179 8174 8174 8174 8174 8169 8174 8171 8171 8174 8173 8175 8174 8173 8176 8179 8182 8186 8183 8185 8182 8186 8185 8186 8187 8190 8193 8189 8193 8193 8193 8197 8198 8199 8197 8191 8190 8187 8191 8186 8186 8189 8189 8186 8185 8184 8183 8186 8184 8183 8184 8183 8185 8188 8188 8188 8188 8189 8189 8189 8192 8191 8197 8196 8201 8197 8196 8197 8197 8197 8195 8195 8190 8195 
8172 8168 8176 8175 8174 8178 8180 8176 8175 8172 8169 8172 8173 8168 8171 8174 8174 8172 8175 8181 8179 8185 8187 8184 8188 8186 8183 8183 8184 8187 8189 8190 8191 8191 8191 8194 8191 8196 8197 8198 8194 8193 8191 8186 8189 8188 8188 8188 8188 8189 8185 8187 8182 8183 8181 8182 8184 8183 8190 8186 8187 8188 8187 8187 8189 8190 8189 8193 8193 8200 8198 8198 8200 8195 8198 8196 8193 8193 8191 8193 
8173 8173 8176 8180 8176 8180 8180 8177 8176 8169 8166 8174 8172 8170 8170 8176 8171 8173 8177 8178 8179 8182 8190 8187 8190 8188 8178 8176 8185 8187 8190 8191 8193 8190 8192 8192 8194 8195 8198 8199 8195 8194 8191 8189 8188 8188 8189 8187 8188 8184 8186 8184 8183 8181 8182 8183 8185 8184 8186 8187 8186 8188 8186 8190 8188 8191 8196 8194 8194 8194 8197 8198 8198 8197 8200 8196 8198 8192 8191 8195 
8171 8175 8176 8180 8175 8179 8180 8181 8181 8164 8175 8172 8173 8172 8172 8175 8174 8173 8176 8177 8179 8185 8190 8187 8187 8187 8176 8180 8186 8189 8190 8190 8192 8189 8192 8193 8194 8197 8194 8198 8194 8194 8190 8189 8189 8189 8189 8186 8189 8183 8185 8181 8183 8182 8181 8185 8182 8183 8186 8187 8188 8185 8186 8188 8193 8193 8194 8195 8194 8191 8196 8196 8200 8195 8198 8200 8196 8194 8191 8192 
8170 8176 8173 8175 8176 8177 8181 8176 8176 8167 8173 8174 8175 8174 8169 8173 8170 8173 8176 8177 8177 8181 8186 8187 8182 8183 8174 8178 8179 8185 8188 8187 8187 8189 8193 8190 8194 8197 8192 8194 8191 8192 8189 8188 8188 8189 8188 8183 8188 8182 8184 8184 8182 8180 8181 8181 8181 8183 8186 8187 8185 8186 8187 8187 8187 8186 8192 8194 8195 8194 8190 8194 8195 8195 8194 8199 8194 8194 8193 8195 
8173 8174 8175 8178 8178 8183 8178 8178 8178 8175 8173 8174 8172 8171 8168 8174 8172 8175 8176 8182 8174 8179 8187 8182 8178 8178 8177 8183 8183 8185 8186 8187 8185 8187 8190 8193 8196 8195 8195 8198 8192 8191 8190 8188 8188 8189 8189 8187 8187 8183 8182 8189 8182 8181 8180 8179 8182 8183 8185 8186 8186 8183 8183 8186 8188 8189 8191 8192 8190 8191 8191 8192 8195 8195 8199 8199 8199 8198 8194 8192 
8177 8176 8176 8176 8175 8182 8179 8174 8180 8177 8173 8173 8171 8174 8169 8172 8171 8171 8174 8174 8174 8177 8184 8186 8179 8178 8183 8182 8184 8185 8186 8184 8185 8186 8188 8188 8192 8191 8195 8195 8193 8188 8189 8189 8191 8192 8191 8186 8187 8184 8185 8184 8180 8181 8179 8180 8181 8182 8185 8183 8185 8183 8187 8185 8186 8186 8192 8189 8191 8193 8191 8192 8193 8194 8195 8197 8196 8197 8194 8198 
8173 8178 8177 8174 8172 8177 8174 8172 8175 8172 8173 8172 8173 8173 8171 8175 8174 8172 8173 8176 8176 8182 8184 8183 8183 8180 8180 8182 8183 8185 8187 8189 8186 8186 8186 8183 8187 8192 8194 8193 8188 8190 8188 8191 8189 8191 8191 8187 8188 8185 8185 8190 8183 8183 8180 8176 8180 8181 8187 8185 8185 8184 8185 8184 8183 8189 8191 8193 8192 8192 8192 8191 8193 8191 8196 8196 8197 8198 8194 8200 
8174 8176 8174 8175 8172 8176 8178 8171 8173 8173 8173 8173 8172 8172 8170 8173 8172 8173 8173 8173 8179 8182 8186 8181 8181 8180 8178 8180 8184 8184 8188 8182 8183 8184 8182 8184 8189 8190 8192 8193 8187 8189 8193 8190 8190 8190 8191 8193 8188 8187 8187 8186 8185 8182 8183 8181 8181 8182 8186 8185 8188 8186 8185 8184 8186 8189 8192 8194 8192 8193 8191 8191 8192 8191 8195 8200 8195 8198 8196 8198 
8175 8182 8181 8179 8177 8177 8175 8174 8176 8176 8176 8177 8173 8174 8174 8177 8173 8176 8178 8178 8176 8180 8183 8183 8181 8181 8179 8181 8182 8186 8188 8183 8185 8182 8186 8187 8187 8190 8190 8189 8187 8190 8189 8188 8191 8188 8189 8184 8185 8185 8186 8189 8185 8183 8183 8180 8181 8184 8185 8184 8185 8180 8184 8185 8191 8193 8191 8191 8189 8189 8192 8193 8190 8190 8194 8195 8196 8198 8197 8198 
8176 8177 8181 8179 8174 8180 8175 8176 8175 8175 8177 8174 8176 8172 8176 8177 8175 8179 8178 8177 8176 8178 8182 8183 8181 8178 8181 8183 8180 8187 8183 8183 8183 8184 8186 8188 8185 8183 8185 8188 8184 8186 8185 8184 8187 8185 8185 8185 8186 8185 8187 8190 8187 8185 8186 8181 8183 8184 8186 8189 8185 8184 8185 8188 8192 8190 8191 8189 8193 8190 8191 8194 8194 8194 8197 8194 8196 8198 8195 8196 
8173 8173 8177 8180 8176 8179 8175 8175 8174 8174 8175 8174 8175 8175 8176 8176 8177 8177 8179 8179 8176 8177 8181 8182 8181 8181 8182 8178 8184 8185 8184 8181 8185 8186 8186 8186 8187 8172 8169 8185 8176 8173 8178 8172 8176 8178 8180 8184 8185 8184 8187 8189 8186 8186 8181 8184 8183 8183 8183 8184 8182 8182 8183 8191 8192 8193 8188 8190 8188 8192 8192 8192 8194 8195 8196 8201 8196 8195 8194 8195 
8172 8170 8176 8178 8176 8176 8174 8174 8178 8179 8176 8175 8175 8172 8170 8178 8175 8178 8181 8176 8179 8181 8182 8183 8179 8182 8183 8181 8180 8181 8188 8184 8184 8187 8188 8187 8189 8172 8163 8163 8151 8156 8156 8164 8173 8175 8181 8184 8186 8187 8188 8188 8182 8180 8178 8181 8179 8180 8184 8182 8184 8183 8185 8192 8190 8193 8190 8188 8191 8192 8193 8191 8193 8192 8196 8193 8194 8194 8194 8194 
8174 8174 8176 8175 8176 8181 8177 8177 8176 8173 8175 8176 8176 8179 8178 8176 8179 8177 8178 8176 8174 8180 8184 8182 8181 8183 8184 8177 8180 8182 8185 8187 8186 8190 8190 8185 8180 8167 8155 8157 8146 8149 8172 8179 8185 8184 8187 8183 8186 8188 8185 8184 8183 8182 8180 8179 8182 8178 8181 8182 8184 8183 8186 8188 8190 8190 8190 8190 8189 8191 8193 8193 8195 8194 8195 8194 8194 8193 8191 8194 
8173 8174 8176 8176 8177 8179 8179 8179 8178 8175 8176 8176 8176 8175 8176 8176 8174 8175 8178 8173 8176 8183 8186 8185 8181 8185 8182 8179 8181 8183 8183 8185 8186 8187 8189 8175 8173 8167 8166 8161 8148 8155 8162 8163 8173 8173 8182 8184 8183 8186 8186 8187 8182 8181 8180 8180 8180 8179 8183 8182 8182 8184 8188 8191 8190 8190 8192 8190 8188 8193 8191 8191 8194 8193 8194 8192 8194 8190 8188 8195 
8175 8176 8178 8174 8172 8181 8181 8178 8184 8175 8177 8180 8177 8176 8177 8178 8175 8177 8177 8175 8177 8181 8188 8185 8181 8179 8183 8183 8181 8184 8182 8184 8187 8183 8181 8182 8177 8169 8165 8164 8153 8176 8180 8172 8179 8184 8183 8184 8182 8184 8184 8184 8181 8180 8180 8179 8181 8184 8180 8181 8184 8183 8188 8190 8191 8191 8190 8189 8192 8190 8190 8192 8193 8193 8190 8191 8189 8190 8193 8191 
8177 8178 8175 8174 8172 8172 8177 8179 8180 8177 8177 8178 8175 8177 8174 8182 8178 8173 8171 8177 8179 8184 8188 8187 8180 8177 8181 8183 8181 8183 8184 8185 8187 8179 8176 8178 8174 8179 8176 8171 8160 8179 8178 8176 8180 8181 8183 8184 8182 8181 8186 8183 8185 8180 8182 8180 8183 8182 8182 8182 8181 8185 8189 8191 8189 8188 8188 8190 8191 8190 8190 8193 8194 8192 8191 8191 8188 8191 8188 8191 
8176 8181 8176 8182 8177 8180 8171 8177 8174 8180 8178 8177 8180 8175 8172 8179 8174 8173 8170 8176 8176 8182 8185 8188 8180 8180 8178 8181 8180 8183 8183 8180 8180 8168 8173 8175 8169 8157 8157 8157 8158 8160 8156 8156 8160 8159 8167 8178 8184 8180 8185 8183 8184 8180 8184 8179 8181 8182 8182 8183 8184 8183 8189 8188 8190 8189 8189 8188 8190 8191 8194 8191 8193 8189 8190 8190 8189 8187 8186 8184 
8177 8177 8182 8181 8177 8178 8176 8168 8170 8180 8177 8176 8174 8176 8177 8178 8177 8173 8173 8176 8177 8184 8188 8189 8183 8180 8181 8182 8183 8180 8179 8177 8182 8182 8187 8183 8177 8159 8154 8153 8147 8150 8155 8164 8165 8162 8162 8163 8178 8184 8182 8185 8181 8180 8184 8182 8180 8185 8183 8183 8185 8186 8189 8189 8189 8192 8189 8189 8190 8190 8194 8189 8192 8190 8190 8190 8189 8189 8186 8189 
8176 8181 8180 8180 8177 8183 8181 8168 8178 8179 8181 8177 8179 8176 8178 8179 8175 8175 8173 8175 8177 8181 8186 8185 8182 8178 8181 8182 8180 8180 8181 8184 8187 8185 8185 8176 8162 8163 8154 8155 8150 8151 8153 8169 8181 8179 8179 8176 8174 8182 8183 8183 8181 8180 8185 8182 8182 8184 8182 8184 8185 8185 8189 8191 8189 8194 8191 8189 8188 8189 8190 8191 8192 8187 8190 8192 8189 8190 8187 8184 
8175 8175 8185 8184 8179 8179 8175 8174 8177 8173 8178 8179 8179 8175 8180 8180 8177 8177 8173 8174 8176 8182 8182 8184 8180 8183 8181 8181 8177 8180 8182 8184 8183 8185 8179 8177 8184 8180 8162 8156 8151 8155 8164 8175 8182 8182 8183 8178 8182 8181 8182 8183 8178 8177 8182 8181 8182 8187 8186 8188 8187 8185 8187 8190 8190 8190 8189 8188 8189 8188 8193 8190 8189 8188 8188 8191 8189 8187 8184 8186 
8181 8175 8180 8181 8179 8181 8178 8175 8176 8176 8179 8180 8178 8177 8180 8180 8180 8178 8173 8171 8160 8158 8159 8171 8178 8177 8179 8180 8182 8183 8183 8185 8185 8185 8185 8184 8185 8185 8162 8152 8152 8170 8184 8179 8179 8182 8183 8184 8182 8185 8183 8182 8177 8179 8181 8182 8183 8185 8187 8188 8188 8184 8189 8188 8191 8193 8191 8190 8187 8187 8190 8189 8187 8188 8189 8190 8185 8188 8185 8187 
8178 8181 8176 8184 8179 8180 8178 8168 8177 8172 8178 8180 8176 8176 8177 8178 8176 8176 8174 8167 8150 8148 8156 8167 8175 8178 8181 8182 8181 8184 8185 8183 8183 8184 8186 8186 8187 8187 8164 8158 8166 8183 8182 8183 8186 8183 8183 8182 8183 8183 8184 8183 8181 8180 8177 8181 8184 8187 8189 8189 8190 8186 8185 8188 8188 8191 8190 8186 8187 8187 8187 8185 8186 8186 8188 8188 8189 8189 8185 8191 
8176 8184 8182 8183 8178 8182 8181 8178 8176 8178 8180 8180 8180 8175 8179 8174 8177 8177 8176 8172 8155 8147 8154 8165 8177 8181 8180 8182 8183 8185 8183 8184 8184 8189 8184 8185 8184 8183 8179 8166 8172 8189 8188 8185 8187 8183 8183 8180 8183 8183 8180 8182 8179 8180 8183 8184 8186 8186 8188 8187 8187 8186 8186 8188 8188 8190 8190 8184 8183 8181 8183 8182 8185 8184 8185 8191 8190 8190 8186 8187 
8177 8178 8181 8184 8180 8183 8185 8176 8181 8178 8182 8183 8180 8179 8178 8177 8177 8176 8175 8174 8156 8145 8154 8167 8180 8181 8181 8184 8185 8183 8182 8183 8184 8179 8174 8170 8172 8177 8186 8166 8173 8188 8187 8184 8185 8182 8181 8182 8181 8181 8183 8182 8181 8183 8184 8186 8187 8186 8187 8187 8186 8183 8185 8188 8187 8186 8186 8185 8180 8182 8183 8182 8187 8185 8186 8185 8189 8190 8183 8185 
8177 8177 8180 8185 8180 8188 8182 8179 8180 8182 8182 8182 8181 8177 8173 8179 8173 8175 8176 8173 8158 8149 8155 8163 8182 8181 8180 8186 8186 8181 8186 8174 8158 8150 8150 8150 8150 8168 8182 8162 8176 8186 8187 8186 8186 8185 8181 8181 8179 8182 8182 8185 8184 8182 8184 8184 8187 8184 8184 8182 8183 8185 8181 8187 8188 8186 8188 8184 8184 8182 8182 8180 8186 8185 8186 8186 8189 8187 8186 8183 
8179 8180 8180 8186 8179 8188 8184 8181 8183 8178 8183 8178 8180 8177 8175 8174 8178 8176 8173 8174 8159 8149 8156 8164 8181 8181 8180 8187 8184 8180 8165 8156 8150 8149 8154 8160 8152 8164 8180 8163 8179 8186 8186 8183 8185 8184 8183 8182 8182 8183 8184 8185 8184 8183 8184 8181 8185 8182 8183 8184 8185 8183 8182 8186 8185 8187 8182 8182 8179 8180 8181 8185 8183 8184 8184 8189 8191 8186 8186 8185 
8178 8181 8179 8182 8179 8185 8178 8181 8183 8179 8179 8177 8178 8174 8175 8179 8176 8175 8173 8170 8161 8154 8154 8161 8182 8181 8181 8185 8181 8163 8153 8149 8149 8142 8152 8173 8172 8182 8168 8161 8180 8188 8183 8185 8188 8186 8184 8183 8184 8183 8185 8184 8183 8181 8182 8179 8181 8183 8184 8181 8183 8184 8183 8183 8183 8183 8185 8181 8179 8183 8183 8180 8181 8187 8187 8188 8188 8189 8187 8187 
8180 8182 8183 8183 8185 8183 8181 8180 8185 8179 8178 8180 8176 8175 8177 8179 8176 8175 8173 8176 8165 8149 8159 8159 8183 8184 8182 8186 8174 8153 8148 8145 8147 8144 8151 8154 8165 8171 8172 8163 8186 8188 8184 8187 8188 8187 8185 8183 8185 8183 8182 8185 8183 8183 8181 8178 8184 8185 8183 8183 8181 8181 8183 8183 8184 8184 8183 8181 8179 8180 8182 8183 8184 8184 8188 8187 8187 8190 8185 8188 
8182 8180 8185 8186 8186 8181 8181 8180 8185 8179 8180 8178 8173 8177 8177 8178 8175 8179 8178 8174 8166 8153 8156 8158 8177 8184 8182 8185 8171 8150 8154 8152 8147 8147 8150 8165 8154 8157 8169 8162 8183 8178 8168 8171 8180 8181 8187 8183 8187 8185 8186 8184 8181 8182 8179 8180 8182 8183 8183 8183 8181 8183 8184 8182 8181 8181 8184 8181 8183 8184 8184 8183 8184 8184 8188 8188 8189 8186 8181 8183 
8183 8181 8185 8186 8183 8185 8184 8187 8182 8181 8179 8177 8174 8177 8178 8178 8178 8179 8182 8175 8175 8157 8156 8156 8174 8180 8180 8180 8158 8162 8174 8172 8159 8148 8167 8159 8154 8155 8168 8162 8182 8164 8150 8150 8156 8157 8165 8169 8177 8181 8186 8184 8184 8180 8182 8179 8185 8185 8185 8183 8181 8183 8182 8184 8183 8180 8183 8179 8182 8184 8181 8183 8184 8183 8189 8187 8189 8185 8184 8187 
8187 8187 8187 8186 8182 8189 8186 8184 8181 8177 8180 8181 8183 8179 8178 8181 8180 8181 8181 8181 8175 8157 8156 8157 8174 8180 8179 8181 8168 8164 8159 8155 8154 8148 8158 8166 8155 8154 8158 8160 8177 8160 8151 8156 8154 8153 8156 8155 8157 8162 8177 8183 8183 8184 8186 8181 8179 8184 8184 8182 8185 8182 8182 8184 8183 8181 8183 8182 8179 8182 8181 8185 8189 8186 8189 8190 8190 8188 8182 8182 
8185 8189 8188 8187 8185 8188 8188 8182 8182 8177 8181 8184 8183 8176 8180 8181 8178 8179 8181 8178 8179 8159 8158 8158 8169 8179 8180 8184 8181 8175 8168 8157 8153 8150 8148 8154 8152 8154 8161 8154 8166 8179 8176 8175 8156 8157 8169 8177 8166 8154 8156 8176 8183 8182 8183 8180 8184 8182 8181 8184 8181 8179 8182 8181 8185 8182 8182 8181 8182 8182 8183 8188 8188 8186 8190 8188 8186 8186 8179 8186 
8185 8188 8184 8189 8190 8190 8188 8183 8184 8181 8184 8184 8184 8180 8180 8181 8178 8179 8176 8180 8177 8160 8159 8160 8166 8184 8182 8183 8181 8164 8169 8174 8166 8151 8150 8150 8149 8153 8151 8154 8174 8185 8184 8183 8181 8183 8185 8185 8174 8157 8153 8165 8183 8181 8183 8183 8187 8186 8186 8183 8183 8180 8181 8181 8181 8184 8182 8183 8181 8182 8183 8182 8186 8187 8186 8188 8188 8186 8181 8183 
8186 8190 8187 8192 8185 8189 8188 8185 8187 8183 8184 8182 8181 8179 8179 8182 8177 8178 8178 8182 8178 8158 8155 8158 8164 8178 8181 8181 8182 8180 8184 8180 8161 8157 8149 8152 8149 8158 8154 8160 8178 8187 8188 8185 8183 8186 8184 8185 8184 8176 8157 8155 8173 8182 8182 8182 8185 8184 8183 8184 8185 8178 8184 8185 8184 8184 8184 8180 8182 8181 8182 8182 8186 8186 8189 8187 8186 8184 8181 8177 
8184 8188 8195 8191 8189 8191 8192 8184 8187 8184 8185 8183 8182 8180 8180 8179 8176 8177 8180 8181 8180 8160 8157 8160 8161 8179 8181 8182 8186 8184 8185 8181 8170 8167 8155 8158 8156 8170 8158 8158 8178 8186 8188 8185 8187 8188 8184 8185 8185 8183 8177 8157 8169 8180 8180 8186 8184 8187 8183 8185 8185 8180 8181 8184 8187 8182 8185 8182 8181 8184 8182 8183 8189 8186 8187 8188 8186 8187 8180 8182 
8186 8190 8193 8191 8183 8192 8190 8184 8187 8184 8182 8186 8179 8177 8178 8180 8180 8178 8182 8181 8179 8167 8156 8160 8158 8180 8180 8182 8182 8175 8176 8169 8170 8167 8152 8157 8150 8160 8155 8157 8159 8180 8189 8186 8184 8185 8188 8185 8182 8184 8183 8167 8179 8184 8183 8185 8185 8187 8184 8183 8185 8183 8184 8185 8182 8186 8183 8181 8180 8183 8181 8181 8184 8187 8186 8189 8185 8185 8180 8181 
8185 8188 8194 8188 8184 8189 8187 8186 8183 8184 8182 8180 8182 8182 8183 8181 8176 8180 8180 8182 8180 8169 8156 8157 8159 8174 8162 8161 8162 8163 8150 8150 8150 8153 8148 8151 8153 8158 8152 8155 8150 8160 8180 8181 8184 8186 8184 8183 8182 8183 8182 8182 8185 8183 8184 8183 8186 8185 8183 8182 8184 8184 8186 8184 8186 8187 8185 8181 8181 8182 8183 8183 8184 8184 8183 8190 8185 8181 8183 8179 
8183 8183 8186 8183 8184 8188 8187 8187 8184 8183 8186 8184 8183 8187 8181 8180 8179 8179 8180 8178 8177 8172 8158 8156 8154 8151 8146 8152 8151 8152 8150 8150 8149 8150 8151 8152 8150 8151 8150 8152 8150 8155 8159 8159 8165 8165 8166 8169 8173 8178 8178 8184 8182 8184 8182 8185 8184 8185 8184 8184 8184 8186 8184 8187 8183 8184 8183 8182 8178 8184 8183 8183 8185 8183 8186 8188 8187 8185 8182 8182 
8183 8188 8187 8187 8183 8189 8187 8187 8185 8187 8186 8185 8189 8184 8181 8179 8179 8179 8177 8181 8175 8164 8157 8160 8151 8148 8151 8152 8153 8156 8154 8155 8153 8149 8149 8149 8149 8151 8149 8156 8150 8149 8152 8157 8160 8158 8160 8157 8158 8163 8162 8170 8179 8184 8184 8186 8187 8187 8185 8186 8185 8184 8187 8184 8185 8183 8182 8185 8183 8182 8182 8187 8185 8184 8189 8189 8189 8183 8181 8185 
8184 8191 8188 8185 8183 8189 8188 8184 8183 8184 8184 8184 8186 8184 8182 8182 8185 8182 8181 8184 8162 8152 8155 8157 8148 8150 8149 8150 8153 8154 8154 8156 8157 8149 8147 8147 8148 8148 8148 8153 8145 8152 8148 8152 8154 8152 8152 8151 8156 8159 8161 8170 8179 8183 8183 8184 8184 8185 8185 8187 8183 8182 8183 8183 8185 8182 8185 8184 8182 8183 8181 8182 8185 8183 8184 8187 8187 8183 8179 8183 
8187 8190 8187 8186 8183 8185 8189 8185 8183 8183 8187 8182 8186 8185 8182 8185 8181 8183 8178 8179 8163 8157 8157 8156 8148 8150 8150 8151 8152 8154 8154 8155 8155 8154 8151 8152 8145 8146 8150 8150 8142 8147 8149 8152 8156 8153 8153 8155 8155 8158 8161 8181 8179 8181 8182 8183 8186 8184 8184 8186 8183 8186 8184 8182 8185 8186 8184 8181 8182 8184 8182 8183 8188 8186 8188 8185 8185 8182 8182 8180 
8189 8191 8189 8190 8189 8191 8191 8186 8187 8187 8184 8187 8187 8185 8184 8185 8186 8183 8180 8178 8168 8161 8163 8163 8155 8151 8151 8151 8152 8155 8150 8153 8154 8153 8150 8152 8147 8146 8147 8149 8149 8151 8150 8151 8159 8160 8161 8157 8157 8157 8159 8175 8180 8183 8185 8184 8186 8184 8183 8185 8184 8180 8183 8185 8185 8183 8183 8179 8180 8183 8184 8183 8188 8188 8187 8188 8185 8187 8179 8185 
8190 8192 8189 8191 8190 8192 8192 8189 8192 8188 8193 8186 8186 8186 8185 8187 8187 8183 8181 8185 8174 8162 8165 8167 8162 8159 8155 8157 8155 8157 8160 8163 8165 8162 8162 8166 8159 8157 8159 8159 8162 8164 8162 8157 8162 8161 8162 8161 8162 8161 8163 8178 8184 8184 8183 8184 8185 8186 8185 8185 8183 8182 8186 8187 8183 8184 8184 8182 8184 8186 8187 8186 8190 8188 8191 8188 8186 8184 8179 8182 
8192 8191 8191 8192 8190 8193 8194 8190 8192 8189 8191 8190 8190 8183 8186 8185 8188 8186 8186 8186 8180 8176 8169 8170 8161 8158 8156 8158 8157 8159 8164 8164 8165 8164 8165 8165 8165 8164 8162 8163 8164 8165 8161 8159 8163 8161 8162 8162 8165 8167 8173 8184 8183 8183 8182 8185 8186 8183 8184 8184 8186 8181 8184 8184 8187 8182 8186 8183 8183 8185 8184 8187 8190 8190 8191 8188 8187 8185 8182 8184 
8188 8193 8190 8194 8189 8194 8195 8192 8190 8190 8190 8192 8192 8190 8187 8188 8189 8188 8184 8183 8185 8192 8190 8174 8163 8159 8159 8159 8159 8163 8167 8165 8167 8165 8165 8167 8165 8165 8163 8164 8166 8166 8164 8160 8162 8161 8158 8175 8194 8192 8183 8188 8184 8187 8185 8183 8185 8183 8184 8184 8185 8184 8184 8185 8182 8181 8183 8184 8186 8187 8184 8191 8192 8190 8190 8192 8187 8187 8180 8184 
8186 8187 8188 8194 8192 8192 8194 8189 8190 8187 8189 8193 8190 8192 8188 8189 8190 8188 8186 8186 8181 8188 8201 8183 8163 8161 8159 8161 8165 8161 8162 8165 8169 8164 8167 8165 8167 8166 8166 8166 8164 8162 8160 8156 8159 8158 8165 8193 8204 8198 8183 8186 8185 8183 8183 8183 8183 8183 8184 8186 8184 8184 8182 8184 8183 8182 8182 8185 8184 8188 8188 8190 8194 8194 8193 8194 8189 8187 8184 8183 
8191 8190 8191 8192 8190 8195 8193 8194 8190 8188 8190 8192 8189 8193 8191 8190 8189 8189 8186 8185 8184 8186 8183 8171 8159 8160 8160 8161 8160 8160 8165 8165 8166 8164 8164 8163 8164 8164 8166 8167 8161 8161 8159 8156 8157 8156 8162 8166 8179 8176 8183 8185 8184 8183 8185 8183 8185 8185 8182 8185 8186 8186 8182 8182 8181 8180 8183 8185 8187 8189 8188 8193 8192 8191 8192 8192 8188 8186 8180 8186 
8190 8189 8194 8190 8191 8193 8192 8194 8194 8189 8188 8189 8189 8191 8189 8188 8190 8188 8186 8187 8186 8189 8176 8165 8158 8158 8158 8156 8158 8159 8159 8162 8162 8160 8162 8162 8164 8164 8165 8165 8162 8159 8159 8160 8160 8158 8158 8162 8172 8171 8184 8190 8184 8182 8185 8189 8188 8185 8184 8186 8187 8185 8183 8184 8186 8183 8187 8187 8188 8190 8192 8189 8192 8187 8191 8193 8187 8188 8179 8188 
8188 8193 8189 8193 8192 8193 8191 8192 8191 8189 8191 8190 8189 8190 8193 8189 8188 8188 8186 8189 8186 8189 8181 8163 8157 8154 8153 8155 8156 8158 8160 8162 8161 8160 8161 8164 8164 8164 8164 8163 8159 8160 8160 8157 8161 8158 8157 8157 8162 8172 8185 8187 8185 8185 8185 8187 8185 8185 8186 8186 8186 8184 8184 8183 8185 8186 8182 8185 8186 8192 8190 8191 8191 8188 8190 8189 8187 8183 8184 8183 
8189 8192 8194 8194 8189 8190 8191 8191 8191 8190 8192 8192 8192 8190 8192 8187 8187 8186 8184 8187 8188 8192 8183 8166 8160 8150 8151 8153 8157 8158 8155 8155 8160 8160 8160 8164 8159 8162 8160 8161 8160 8160 8162 8155 8158 8159 8154 8157 8159 8174 8188 8191 8185 8186 8185 8187 8186 8186 8186 8187 8186 8185 8183 8185 8188 8186 8188 8185 8188 8189 8190 8193 8192 8187 8187 8188 8188 8186 8183 8182 
8184 8184 8186 8188 8184 8186 8185 8185 8186 8182 8188 8187 8188 8188 8187 8187 8186 8183 8186 8187 8188 8192 8189 8168 8153 8148 8153 8150 8155 8156 8155 8153 8155 8154 8156 8161 8161 8161 8162 8165 8159 8162 8159 8158 8160 8156 8154 8157 8160 8173 8188 8187 8183 8184 8184 8183 8184 8182 8182 8184 8183 8185 8180 8184 8186 8185 8189 8187 8184 8187 8188 8190 8190 8186 8189 8189 8184 8181 8180 8183 
8179 8178 8184 8176 8172 8172 8174 8173 8180 8177 8181 8183 8185 8187 8187 8180 8180 8185 8184 8186 8187 8189 8192 8166 8158 8148 8145 8150 8153 8156 8157 8154 8160 8155 8158 8156 8159 8157 8160 8162 8160 8163 8158 8158 8156 8155 8157 8153 8158 8176 8181 8184 8185 8182 8184 8184 8182 8181 8185 8180 8181 8182 8183 8183 8185 8183 8186 8185 8184 8191 8188 8188 8190 8186 8190 8189 8184 8187 8180 8181 
8180 8181 8181 8174 8169 8171 8171 8169 8170 8168 8169 8169 8174 8174 8177 8175 8175 8181 8180 8180 8184 8184 8189 8170 8158 8149 8151 8151 8150 8155 8154 8154 8153 8152 8154 8155 8155 8157 8159 8162 8158 8158 8155 8153 8156 8153 8154 8155 8157 8167 8176 8180 8180 8178 8184 8180 8182 8180 8178 8181 8182 8178 8180 8183 8182 8181 8184 8185 8186 8189 8188 8186 8192 8187 8191 8190 8188 8182 8177 8180 
8185 8180 8174 8169 8167 8168 8168 8168 8170 8168 8169 8172 8168 8169 8171 8166 8168 8169 8166 8170 8172 8173 8175 8161 8156 8151 8150 8148 8154 8149 8151 8147 8149 8153 8151 8154 8154 8157 8155 8161 8157 8158 8154 8153 8154 8154 8155 8155 8158 8160 8162 8168 8175 8177 8176 8177 8179 8176 8178 8180 8179 8178 8179 8182 8184 8182 8181 8182 8184 8187 8188 8188 8189 8184 8185 8190 8183 8180 8180 8178 
8194 8174 8169 8169 8165 8163 8161 8160 8162 8162 8167 8167 8163 8164 8167 8167 8165 8167 8165 8166 8165 8164 8166 8159 8151 8146 8148 8147 8146 8150 8144 8144 8141 8145 8145 8150 8150 8153 8151 8154 8155 8157 8152 8151 8153 8154 8153 8154 8155 8158 8160 8163 8167 8172 8174 8172 8167 8167 8171 8176 8175 8171 8174 8180 8179 8183 8183 8186 8186 8190 8186 8191 8187 8182 8185 8178 8180 8179 8178 8182 


