P2
80 60
8079
8029 8031 8032 8042 8039 8040 8043 8045 8044 8040 8047 8049 8049 8051 8047 8049 8051 8049 8050 8056 8054 8060 8065 8065 8063 8065 8065 8069 8065 8065 8066 8064 8064 8065 8064 8063 8065 8067 8064 8065 8070 8068 8067 8069 8072 8073 8073 8069 8069 8066 8069 8069 8068 8064 8065 8067 8066 8070 8070 8066 8066 8068 8069 8065 8065 8063 8067 8068 8069 8068 8069 8068 8069 8070 8066 8063 8062 8059 8061 8063 
8030 8031 8038 8040 8040 8043 8041 8045 8045 8043 8046 8052 8050 8051 8050 8053 8054 8053 8052 8054 8053 8059 8061 8064 8064 8068 8065 8067 8064 8063 8069 8066 8063 8067 8062 8063 8065 8065 8070 8067 8070 8068 8069 8069 8074 8071 8070 8073 8070 8071 8072 8069 8069 8066 8068 8065 8069 8068 8070 8066 8068 8071 8066 8067 8067 8064 8068 8071 8069 8070 8072 8071 8072 8072 8066 8069 8063 8062 8060 8060 
8028 8033 8039 8040 8040 8042 8041 8043 8042 8043 8046 8047 8052 8053 8050 8054 8055 8058 8058 8056 8053 8052 8058 8064 8065 8065 8065 8065 8061 8066 8067 8067 8062 8066 8062 8065 8063 8067 8067 8068 8069 8068 8068 8075 8077 8071 8072 8072 8070 8069 8068 8069 8069 8068 8071 8068 8065 8068 8067 8068 8070 8070 8068 8067 8067 8066 8069 8071 8069 8068 8069 8068 8069 8072 8067 8067 8065 8063 8059 8063 
8032 8036 8042 8039 8041 8047 8041 8045 8041 8048 8044 8051 8049 8050 8050 8053 8053 8058 8060 8063 8058 8063 8059 8064 8064 8065 8068 8066 8065 8065 8068 8063 8064 8065 8063 8064 8067 8068 8068 8068 8068 8067 8065 8070 8073 8070 8070 8073 8069 8071 8071 8066 8070 8070 8068 8067 8068 8068 8070 8072 8067 8069 8069 8068 8065 8064 8069 8067 8070 8069 8066 8067 8069 8067 8066 8067 8063 8065 8058 8059 
8034 8038 8041 8040 8039 8041 8042 8044 8046 8046 8046 8048 8046 8049 8054 8053 8053 8060 8058 8059 8057 8063 8065 8061 8063 8066 8064 8066 8065 8062 8066 8065 8065 8066 8063 8064 8065 8061 8069 8069 8069 8067 8066 8069 8071 8068 8070 8070 8070 8073 8071 8069 8068 8070 8069 8067 8067 8069 8072 8071 8073 8071 8070 8068 8066 8070 8069 8067 8069 8068 8065 8068 8065 8067 8064 8064 8065 8062 8063 8063 
8034 8039 8040 8043 8040 8044 8043 8047 8048 8047 8047 8051 8052 8049 8052 8053 8056 8059 8058 8060 8061 8065 8067 8065 8065 8064 8065 8068 8068 8065 8066 8064 8069 8069 8065 8065 8067 8067 8069 8067 8068 8066 8069 8072 8073 8070 8073 8069 8067 8070 8069 8071 8069 8070 8072 8072 8072 8072 8074 8072 8072 8072 8072 8069 8072 8067 8071 8071 8070 8069 8066 8065 8066 8064 8063 8062 8062 8060 8062 8059 
8030 8039 8043 8043 8040 8043 8042 8046 8046 8041 8047 8048 8049 8049 8049 8053 8054 8057 8058 8059 8059 8061 8066 8067 8064 8065 8061 8062 8064 8063 8067 8065 8068 8066 8064 8068 8065 8064 8067 8067 8069 8070 8069 8068 8073 8071 8070 8070 8068 8068 8072 8070 8070 8070 8071 8069 8068 8073 8072 8071 8071 8072 8069 8069 8068 8070 8071 8072 8067 8065 8067 8065 8066 8066 8059 8061 8061 8057 8053 8053 
8029 8039 8044 8041 8038 8042 8043 8048 8042 8045 8049 8047 8048 8050 8049 8052 8054 8056 8056 8064 8060 8066 8066 8069 8068 8066 8063 8064 8062 8065 8068 8067 8064 8067 8066 8064 8065 8065 8070 8066 8069 8069 8068 8069 8069 8069 8073 8072 8066 8069 8070 8069 8071 8069 8069 8068 8068 8072 8069 8071 8070 8071 8069 8069 8068 8069 8069 8071 8068 8066 8064 8065 8062 8066 8060 8062 8060 8056 8055 8053 
8033 8037 8043 8041 8039 8042 8043 8042 8044 8048 8045 8048 8048 8050 8049 8049 8055 8057 8062 8066 8061 8069 8072 8069 8067 8067 8066 8065 8060 8065 8064 8067 8062 8065 8063 8065 8066 8066 8064 8069 8068 8069 8067 8066 8072 8070 8070 8071 8068 8069 8068 8069 8067 8070 8071 8068 8068 8071 8070 8069 8071 8074 8069 8067 8068 8068 8069 8070 8065 8069 8064 8068 8062 8063 8058 8060 8060 8057 8058 8060 
8038 8040 8044 8042 8042 8045 8044 8045 8043 8045 8050 8049 8049 8048 8051 8054 8057 8057 8060 8066 8064 8067 8071 8069 8066 8067 8065 8068 8064 8066 8066 8065 8065 8067 8065 8064 8062 8062 8064 8061 8065 8066 8067 8069 8072 8069 8068 8072 8067 8070 8069 8067 8068 8070 8070 8064 8067 8074 8070 8072 8074 8074 8068 8069 8067 8067 8070 8068 8066 8065 8065 8064 8063 8059 8058 8059 8061 8061 8056 8054 
8039 8041 8044 8042 8041 8044 8045 8047 8047 8045 8050 8051 8049 8052 8052 8051 8056 8056 8061 8067 8068 8074 8072 8070 8069 8069 8068 8067 8065 8065 8063 8064 8065 8067 8061 8067 8063 8065 8063 8061 8063 8066 8068 8071 8074 8070 8069 8071 8071 8070 8071 8068 8070 8069 8069 8068 8071 8072 8070 8071 8074 8074 8073 8068 8067 8066 8068 8069 8068 8067 8064 8068 8060 8061 8061 8062 8061 8059 8058 8060 
8036 8040 8043 8041 8043 8046 8045 8046 8045 8048 8048 8051 8051 8048 8051 8054 8059 8058 8059 8064 8069 8071 8070 8070 8070 8071 8067 8066 8066 8063 8062 8065 8064 8065 8062 8064 8066 8064 8066 8068 8061 8065 8069 8070 8075 8071 8076 8068 8068 8072 8072 8072 8068 8070 8067 8064 8068 8072 8070 8070 8072 8074 8073 8071 8066 8067 8068 8070 8069 8068 8066 8065 8062 8063 8060 8062 8061 8063 8060 8059 
8036 8040 8041 8042 8043 8044 8044 8049 8045 8048 8049 8048 8049 8051 8051 8053 8054 8058 8060 8065 8064 8066 8068 8070 8069 8072 8067 8071 8065 8068 8065 8063 8062 8064 8065 8064 8063 8063 8063 8064 8063 8064 8066 8073 8073 8068 8071 8069 8067 8068 8071 8070 8071 8070 8069 8067 8070 8070 8070 8069 8071 8073 8070 8066 8067 8067 8070 8072 8067 8066 8066 8064 8062 8061 8060 8064 8064 8062 8065 8059 
8034 8042 8045 8042 8042 8044 8044 8051 8046 8049 8047 8048 8051 8050 8051 8056 8055 8056 8057 8065 8059 8067 8067 8066 8068 8068 8070 8071 8067 8065 8064 8063 8061 8065 8063 8066 8066 8063 8066 8064 8064 8065 8066 8070 8069 8062 8066 8067 8068 8069 8070 8069 8070 8068 8071 8066 8067 8069 8070 8071 8069 8070 8071 8069 8066 8069 8067 8068 8067 8064 8063 8061 8062 8059 8059 8062 8061 8061 8059 8057 
8037 8041 8050 8045 8042 8046 8044 8050 8053 8048 8053 8054 8055 8050 8055 8056 8055 8056 8057 8065 8060 8067 8066 8066 8067 8068 8070 8071 8068 8067 8067 8069 8063 8066 8066 8069 8070 8064 8064 8065 8065 8067 8068 8070 8069 8065 8068 8068 8067 8069 8069 8073 8072 8074 8070 8069 8069 8072 8072 8069 8070 8069 8069 8067 8069 8068 8071 8067 8069 8067 8067 8065 8062 8062 8059 8063 8065 8065 8062 8059 
8034 8040 8043 8040 8040 8044 8044 8048 8050 8052 8051 8051 8053 8053 8054 8054 8056 8057 8060 8062 8059 8067 8067 8068 8069 8072 8072 8074 8068 8068 8067 8064 8058 8064 8067 8067 8065 8066 8067 8068 8066 8068 8070 8068 8066 8071 8069 8067 8067 8069 8069 8070 8071 8072 8071 8068 8068 8070 8070 8068 8068 8071 8067 8069 8067 8066 8069 8068 8067 8066 8063 8063 8064 8065 8059 8062 8061 8063 8062 8058 
8039 8041 8045 8044 8043 8046 8043 8048 8046 8049 8053 8056 8054 8051 8053 8055 8057 8057 8057 8063 8063 8065 8066 8065 8069 8071 8070 8073 8067 8068 8069 8067 8067 8065 8068 8067 8068 8066 8066 8065 8067 8065 8065 8068 8068 8069 8067 8066 8066 8068 8067 8072 8071 8070 8068 8066 8067 8069 8070 8067 8067 8066 8066 8064 8067 8067 8068 8067 8066 8064 8062 8061 8063 8063 8061 8062 8061 8060 8060 8057 
8038 8045 8042 8045 8043 8048 8048 8050 8050 8054 8055 8056 8057 8056 8056 8058 8056 8057 8059 8061 8061 8065 8070 8069 8071 8071 8069 8074 8068 8070 8067 8070 8067 8072 8065 8069 8067 8068 8066 8066 8066 8067 8064 8065 8068 8067 8069 8065 8065 8070 8071 8071 8070 8071 8067 8066 8066 8062 8069 8067 8069 8070 8067 8068 8065 8065 8070 8069 8069 8064 8065 8062 8062 8063 8062 8067 8061 8063 8062 8062 
8043 8043 8046 8042 8044 8050 8047 8052 8052 8052 8056 8056 8057 8058 8056 8056 8059 8058 8060 8064 8064 8069 8070 8070 8067 8071 8072 8073 8068 8066 8070 8064 8060 8067 8066 8065 8069 8071 8072 8066 8068 8067 8066 8063 8068 8066 8067 8066 8065 8069 8070 8070 8069 8068 8065 8061 8066 8067 8069 8066 8068 8068 8070 8066 8067 8065 8065 8069 8067 8066 8060 8062 8061 8061 8062 8066 8060 8064 8059 8059 
8043 8043 8046 8045 8044 8050 8048 8049 8048 8051 8056 8055 8057 8057 8056 8056 8058 8061 8059 8064 8062 8069 8066 8068 8065 8067 8070 8069 8068 8067 8064 8060 8064 8067 8066 8067 8067 8070 8071 8069 8068 8063 8066 8062 8064 8058 8062 8064 8065 8070 8067 8065 8064 8065 8066 8060 8064 8068 8068 8065 8066 8068 8070 8070 8067 8067 8067 8066 8065 8062 8063 8061 8061 8060 8056 8059 8061 8059 8059 8058 
8039 8044 8043 8041 8046 8047 8047 8049 8051 8052 8051 8056 8056 8054 8057 8056 8058 8060 8063 8062 8062 8068 8067 8069 8069 8067 8069 8069 8069 8066 8063 8066 8069 8071 8068 8064 8065 8066 8069 8067 8070 8064 8061 8058 8059 8057 8061 8060 8064 8068 8068 8067 8061 8066 8067 8061 8061 8063 8066 8064 8061 8069 8067 8069 8068 8067 8067 8067 8064 8063 8061 8060 8060 8056 8057 8059 8059 8060 8060 8057 
8043 8045 8049 8046 8044 8048 8049 8051 8050 8051 8051 8053 8057 8054 8056 8060 8061 8060 8065 8067 8063 8067 8069 8067 8067 8066 8069 8069 8064 8064 8063 8062 8067 8070 8070 8068 8064 8066 8067 8068 8066 8063 8055 8061 8063 8053 8056 8058 8061 8065 8067 8064 8065 8063 8066 8063 8062 8062 8057 8060 8064 8066 8068 8067 8069 8067 8069 8067 8063 8063 8061 8061 8058 8056 8058 8057 8057 8061 8058 8061 
8045 8047 8048 8048 8044 8048 8046 8052 8050 8053 8052 8055 8053 8056 8053 8058 8060 8060 8061 8065 8064 8068 8069 8069 8068 8068 8069 8072 8067 8065 8066 8055 8066 8068 8069 8068 8065 8061 8068 8067 8066 8061 8066 8066 8065 8053 8053 8058 8060 8062 8065 8066 8067 8063 8065 8064 8061 8065 8062 8064 8063 8066 8067 8070 8072 8069 8068 8065 8066 8065 8065 8060 8056 8057 8055 8059 8063 8062 8060 8058 
8046 8046 8049 8043 8047 8048 8049 8050 8050 8052 8054 8055 8057 8055 8058 8056 8060 8060 8062 8063 8065 8070 8068 8068 8068 8067 8068 8069 8067 8064 8067 8062 8063 8062 8059 8067 8062 8055 8065 8063 8055 8060 8064 8066 8065 8059 8050 8052 8058 8063 8066 8066 8066 8066 8065 8062 8065 8065 8064 8063 8064 8064 8065 8071 8070 8068 8067 8069 8065 8063 8061 8058 8059 8059 8058 8060 8060 8062 8062 8057 
8046 8048 8047 8048 8048 8048 8047 8050 8051 8053 8054 8056 8056 8058 8057 8056 8059 8060 8063 8063 8064 8069 8069 8069 8066 8069 8068 8068 8070 8065 8067 8064 8063 8060 8056 8062 8064 8054 8057 8051 8059 8065 8062 8064 8064 8056 8057 8057 8063 8064 8068 8066 8065 8065 8064 8064 8067 8066 8068 8066 8067 8066 8060 8065 8068 8069 8070 8069 8065 8059 8059 8059 8057 8058 8058 8059 8060 8062 8060 8057 
8044 8046 8047 8048 8049 8048 8047 8051 8052 8050 8053 8055 8055 8056 8056 8059 8060 8058 8062 8065 8061 8067 8067 8067 8064 8068 8068 8069 8069 8066 8070 8067 8065 8062 8056 8056 8064 8056 8051 8052 8064 8065 8063 8066 8058 8056 8056 8055 8062 8070 8070 8068 8067 8070 8068 8064 8067 8070 8070 8070 8067 8067 8063 8062 8067 8070 8068 8069 8065 8060 8055 8058 8058 8057 8058 8059 8059 8059 8059 8057 
8042 8045 8043 8044 8045 8047 8046 8048 8053 8051 8054 8055 8057 8057 8058 8059 8063 8063 8063 8061 8061 8063 8069 8066 8064 8064 8065 8069 8069 8065 8068 8067 8063 8064 8060 8056 8059 8062 8055 8052 8068 8068 8066 8066 8062 8060 8060 8055 8064 8067 8067 8067 8069 8068 8069 8068 8065 8070 8070 8069 8066 8064 8062 8067 8067 8069 8066 8070 8063 8058 8057 8055 8057 8060 8061 8062 8057 8060 8061 8061 
8047 8047 8050 8046 8045 8052 8048 8051 8049 8053 8054 8056 8057 8056 8059 8060 8061 8062 8063 8066 8062 8066 8066 8066 8066 8067 8065 8071 8068 8066 8071 8067 8063 8067 8057 8059 8053 8059 8063 8059 8057 8065 8058 8056 8063 8062 8060 8057 8062 8067 8069 8070 8069 8067 8069 8068 8071 8070 8065 8066 8068 8064 8067 8067 8068 8070 8068 8064 8061 8058 8057 8056 8056 8058 8059 8060 8061 8062 8062 8061 
8043 8048 8053 8047 8049 8050 8049 8054 8051 8052 8054 8057 8056 8059 8060 8063 8063 8061 8067 8065 8062 8064 8067 8069 8066 8067 8065 8072 8067 8067 8063 8065 8065 8064 8055 8050 8051 8054 8059 8060 8059 8063 8059 8052 8058 8059 8064 8055 8061 8071 8071 8070 8072 8070 8070 8069 8068 8070 8068 8066 8069 8068 8067 8068 8068 8069 8068 8066 8063 8060 8058 8059 8059 8061 8060 8060 8064 8065 8066 8065 
8046 8048 8053 8051 8050 8051 8048 8049 8052 8052 8054 8060 8057 8060 8063 8062 8064 8062 8062 8066 8061 8067 8069 8067 8067 8067 8068 8072 8069 8069 8068 8068 8062 8064 8064 8060 8052 8052 8056 8060 8062 8061 8065 8055 8059 8057 8055 8054 8061 8070 8071 8071 8070 8071 8073 8069 8069 8071 8068 8063 8070 8071 8065 8068 8067 8066 8064 8068 8062 8058 8058 8060 8056 8057 8060 8062 8066 8065 8065 8066 
8048 8050 8050 8047 8050 8050 8049 8049 8053 8053 8054 8056 8063 8061 8061 8063 8063 8061 8063 8063 8064 8066 8068 8069 8066 8062 8067 8068 8069 8068 8068 8066 8066 8062 8060 8060 8059 8057 8054 8052 8056 8054 8051 8056 8056 8056 8059 8057 8063 8072 8072 8070 8071 8071 8068 8067 8067 8067 8066 8065 8065 8067 8066 8065 8069 8067 8064 8064 8061 8062 8057 8061 8059 8059 8059 8062 8064 8064 8066 8064 
8048 8050 8052 8049 8049 8050 8050 8052 8055 8052 8053 8059 8061 8064 8065 8064 8062 8067 8062 8065 8061 8064 8062 8058 8057 8058 8059 8061 8066 8062 8063 8064 8064 8062 8061 8062 8061 8058 8059 8053 8057 8057 8052 8055 8058 8059 8064 8064 8069 8072 8075 8073 8072 8071 8067 8065 8065 8068 8066 8067 8070 8066 8067 8067 8065 8062 8066 8064 8062 8062 8061 8063 8059 8057 8060 8064 8065 8063 8063 8065 
8049 8050 8052 8050 8055 8054 8053 8054 8054 8053 8053 8059 8064 8061 8065 8063 8064 8068 8062 8063 8059 8056 8060 8058 8065 8062 8066 8059 8062 8060 8060 8061 8061 8062 8063 8063 8062 8059 8059 8056 8055 8053 8053 8055 8060 8063 8070 8068 8069 8070 8072 8072 8071 8070 8068 8058 8063 8060 8062 8065 8064 8065 8064 8066 8063 8066 8065 8064 8063 8063 8061 8060 8059 8058 8057 8063 8063 8065 8062 8059 
8050 8053 8051 8052 8052 8053 8053 8056 8054 8055 8062 8065 8064 8062 8061 8064 8061 8063 8062 8058 8051 8055 8065 8066 8065 8065 8064 8064 8063 8062 8061 8059 8057 8059 8057 8063 8060 8060 8059 8060 8058 8056 8054 8056 8062 8064 8070 8068 8071 8071 8072 8070 8070 8064 8060 8056 8062 8061 8055 8060 8057 8058 8057 8058 8059 8063 8065 8065 8065 8061 8062 8060 8060 8063 8061 8057 8063 8063 8057 8061 
8049 8049 8053 8053 8051 8055 8052 8054 8055 8055 8061 8065 8063 8061 8060 8060 8058 8055 8055 8056 8055 8061 8066 8065 8064 8065 8060 8060 8059 8058 8057 8058 8058 8061 8055 8061 8057 8060 8060 8060 8061 8060 8055 8054 8057 8062 8072 8070 8069 8074 8073 8066 8060 8056 8062 8061 8061 8065 8060 8059 8058 8060 8060 8063 8062 8059 8061 8064 8064 8063 8061 8061 8059 8060 8061 8063 8064 8063 8060 8061 
8049 8054 8052 8051 8051 8057 8054 8057 8055 8059 8062 8061 8063 8059 8051 8051 8051 8053 8057 8063 8061 8059 8067 8063 8063 8062 8058 8063 8059 8058 8058 8058 8059 8060 8053 8054 8053 8055 8058 8059 8054 8053 8054 8054 8056 8061 8064 8070 8067 8067 8068 8066 8063 8057 8066 8063 8065 8066 8064 8064 8065 8061 8063 8067 8066 8062 8063 8061 8063 8061 8062 8061 8060 8060 8058 8063 8063 8062 8063 8062 
8051 8054 8052 8052 8053 8053 8054 8057 8057 8059 8061 8062 8059 8055 8049 8049 8051 8054 8059 8065 8060 8063 8064 8064 8059 8059 8063 8062 8060 8058 8057 8059 8062 8061 8057 8054 8058 8052 8053 8060 8058 8056 8058 8059 8058 8057 8068 8066 8065 8065 8068 8065 8064 8063 8065 8068 8068 8065 8067 8069 8065 8059 8065 8065 8067 8065 8063 8062 8064 8062 8062 8062 8060 8063 8063 8066 8065 8064 8067 8064 
8054 8055 8053 8054 8055 8055 8054 8054 8054 8055 8056 8058 8057 8055 8054 8049 8055 8060 8062 8065 8064 8063 8058 8062 8061 8062 8064 8065 8059 8058 8060 8059 8060 8062 8058 8060 8055 8054 8053 8054 8058 8055 8060 8059 8059 8054 8064 8062 8064 8068 8070 8065 8068 8070 8068 8065 8069 8067 8063 8066 8065 8059 8062 8067 8066 8066 8063 8067 8065 8064 8061 8061 8061 8063 8065 8061 8063 8062 8064 8060 
8052 8054 8057 8054 8052 8055 8049 8058 8058 8056 8057 8057 8056 8056 8050 8054 8058 8062 8065 8066 8061 8065 8063 8064 8058 8060 8066 8064 8064 8065 8064 8061 8060 8061 8056 8061 8059 8052 8051 8050 8053 8057 8058 8059 8058 8058 8064 8062 8066 8070 8069 8067 8066 8069 8070 8066 8070 8068 8065 8062 8058 8060 8063 8067 8065 8063 8067 8070 8064 8063 8065 8061 8064 8063 8063 8064 8065 8060 8062 8059 
8051 8057 8054 8058 8055 8056 8053 8058 8060 8062 8060 8059 8054 8052 8049 8055 8058 8063 8063 8064 8061 8064 8065 8060 8060 8061 8061 8065 8064 8062 8061 8058 8060 8061 8060 8061 8059 8055 8052 8053 8054 8056 8056 8061 8061 8060 8061 8063 8067 8062 8066 8067 8066 8072 8071 8070 8071 8071 8067 8067 8063 8062 8065 8069 8064 8068 8064 8067 8068 8065 8062 8060 8059 8062 8061 8063 8063 8058 8057 8057 
8051 8053 8054 8056 8055 8060 8059 8063 8060 8057 8059 8054 8054 8048 8049 8054 8059 8062 8060 8060 8056 8060 8061 8059 8059 8062 8062 8063 8058 8062 8062 8061 8056 8061 8061 8060 8059 8055 8055 8054 8053 8054 8057 8060 8061 8058 8062 8060 8057 8059 8063 8068 8066 8069 8071 8067 8069 8073 8070 8064 8062 8069 8066 8070 8067 8065 8066 8064 8064 8065 8064 8062 8062 8059 8062 8062 8061 8059 8057 8058 
8050 8056 8055 8057 8053 8061 8059 8062 8056 8057 8055 8056 8052 8049 8054 8057 8058 8057 8060 8060 8057 8065 8061 8064 8061 8060 8058 8063 8061 8059 8059 8056 8057 8062 8060 8057 8056 8054 8053 8052 8054 8053 8055 8060 8058 8057 8059 8059 8056 8062 8059 8062 8063 8065 8066 8066 8069 8071 8066 8066 8065 8070 8066 8067 8067 8066 8066 8065 8061 8063 8061 8063 8060 8063 8063 8063 8061 8059 8056 8062 
8050 8054 8058 8056 8061 8060 8059 8060 8059 8054 8055 8051 8053 8053 8055 8057 8058 8057 8062 8062 8058 8063 8061 8058 8058 8059 8057 8058 8056 8055 8056 8053 8054 8055 8053 8055 8051 8054 8052 8050 8050 8053 8055 8058 8062 8053 8059 8056 8059 8060 8059 8056 8059 8059 8064 8064 8065 8068 8064 8059 8062 8063 8060 8062 8063 8063 8066 8066 8065 8063 8061 8061 8064 8060 8062 8060 8057 8061 8055 8059 
8053 8055 8060 8058 8058 8062 8059 8058 8058 8055 8055 8053 8054 8058 8057 8059 8059 8059 8062 8061 8058 8063 8061 8055 8055 8054 8054 8053 8052 8052 8051 8053 8052 8055 8053 8052 8051 8052 8051 8054 8051 8051 8054 8060 8065 8062 8066 8060 8059 8059 8056 8058 8059 8062 8062 8062 8063 8061 8063 8062 8062 8062 8056 8062 8062 8060 8059 8061 8059 8060 8060 8063 8060 8062 8060 8060 8059 8059 8054 8056 
8052 8054 8056 8057 8057 8060 8056 8057 8057 8055 8054 8055 8054 8056 8057 8056 8060 8060 8058 8060 8059 8059 8057 8053 8052 8053 8052 8051 8051 8050 8052 8049 8052 8053 8052 8050 8054 8050 8052 8049 8050 8054 8057 8061 8066 8065 8068 8064 8062 8058 8059 8061 8059 8062 8063 8063 8063 8068 8065 8063 8057 8058 8058 8063 8063 8062 8064 8058 8060 8060 8061 8061 8065 8062 8060 8060 8060 8059 8055 8055 
8052 8056 8054 8058 8052 8059 8054 8053 8055 8058 8056 8058 8057 8058 8059 8057 8059 8059 8060 8059 8055 8059 8054 8054 8051 8054 8051 8051 8049 8049 8055 8053 8053 8054 8052 8054 8052 8049 8049 8051 8049 8053 8058 8064 8068 8067 8072 8063 8062 8064 8061 8061 8058 8061 8068 8062 8064 8067 8065 8064 8059 8063 8062 8062 8065 8065 8062 8061 8058 8062 8065 8063 8063 8064 8060 8060 8060 8058 8059 8058 
8053 8054 8054 8054 8055 8055 8057 8054 8055 8056 8056 8055 8057 8057 8057 8062 8061 8057 8061 8062 8056 8054 8056 8058 8053 8053 8051 8049 8052 8049 8056 8057 8053 8053 8052 8055 8057 8054 8048 8053 8055 8056 8060 8065 8069 8066 8067 8065 8067 8062 8065 8061 8061 8063 8067 8066 8070 8070 8068 8063 8064 8064 8064 8062 8065 8062 8066 8066 8062 8061 8064 8064 8063 8063 8062 8062 8057 8057 8058 8062 
8053 8053 8056 8056 8056 8056 8054 8056 8057 8057 8054 8059 8059 8058 8056 8058 8061 8062 8060 8062 8059 8057 8058 8059 8057 8055 8056 8058 8056 8056 8060 8060 8062 8058 8058 8056 8057 8056 8057 8057 8057 8057 8060 8067 8064 8065 8068 8069 8066 8068 8067 8064 8063 8064 8066 8064 8065 8069 8066 8068 8064 8067 8065 8063 8063 8064 8064 8062 8059 8063 8066 8068 8064 8066 8061 8060 8060 8058 8058 8057 
8052 8052 8049 8053 8055 8056 8056 8055 8054 8056 8057 8059 8059 8057 8059 8060 8058 8060 8061 8061 8057 8057 8060 8058 8057 8057 8056 8059 8058 8059 8064 8065 8062 8064 8063 8060 8061 8061 8061 8062 8063 8062 8065 8066 8070 8065 8066 8063 8064 8062 8063 8063 8063 8066 8067 8064 8066 8066 8067 8067 8065 8063 8063 8062 8061 8065 8062 8060 8061 8065 8065 8065 8066 8064 8061 8063 8064 8058 8057 8062 
8052 8053 8054 8057 8056 8056 8056 8057 8058 8058 8054 8060 8060 8059 8063 8060 8060 8062 8059 8061 8057 8059 8057 8060 8059 8062 8060 8060 8060 8060 8065 8062 8061 8065 8064 8063 8064 8063 8064 8066 8066 8064 8067 8067 8069 8064 8068 8063 8064 8066 8065 8061 8064 8066 8065 8065 8063 8066 8065 8065 8067 8066 8064 8065 8066 8063 8062 8064 8063 8066 8067 8066 8068 8066 8067 8064 8064 8059 8060 8057 
8052 8053 8057 8058 8056 8057 8053 8054 8060 8055 8056 8060 8061 8059 8062 8062 8062 8062 8061 8061 8058 8057 8060 8059 8059 8060 8061 8060 8060 8063 8065 8062 8065 8067 8064 8066 8066 8069 8069 8068 8066 8067 8069 8070 8073 8066 8070 8066 8065 8068 8070 8065 8060 8069 8068 8063 8067 8066 8066 8067 8068 8070 8065 8063 8064 8063 8061 8064 8065 8066 8068 8064 8070 8067 8067 8065 8063 8060 8061 8058 
8051 8053 8056 8057 8055 8057 8051 8056 8055 8056 8057 8059 8061 8063 8061 8060 8060 8059 8060 8059 8057 8059 8057 8057 8061 8061 8060 8061 8061 8060 8064 8063 8061 8062 8064 8063 8065 8065 8065 8068 8068 8068 8069 8068 8070 8069 8067 8066 8066 8066 8070 8061 8062 8062 8066 8064 8064 8067 8067 8067 8067 8067 8066 8063 8063 8062 8062 8066 8064 8067 8072 8070 8067 8068 8064 8068 8063 8058 8058 8056 
8048 8052 8054 8055 8054 8053 8054 8056 8053 8055 8055 8058 8062 8060 8062 8061 8058 8058 8059 8062 8057 8060 8057 8060 8061 8060 8058 8059 8059 8062 8061 8061 8062 8063 8062 8063 8065 8064 8064 8065 8066 8066 8066 8067 8071 8067 8065 8068 8065 8066 8069 8063 8064 8069 8069 8063 8068 8068 8070 8066 8066 8070 8066 8064 8062 8062 8060 8061 8065 8068 8065 8067 8066 8070 8065 8061 8058 8056 8054 8053 
8049 8052 8055 8053 8055 8056 8051 8053 8053 8056 8054 8059 8061 8059 8058 8060 8059 8058 8058 8061 8057 8060 8054 8059 8059 8059 8058 8062 8061 8060 8059 8058 8059 8066 8063 8064 8066 8064 8065 8063 8063 8066 8066 8069 8069 8067 8066 8067 8066 8069 8068 8066 8064 8064 8068 8065 8066 8067 8069 8069 8068 8069 8065 8063 8065 8066 8061 8064 8070 8070 8071 8066 8070 8067 8061 8063 8060 8058 8053 8055 
8052 8052 8057 8054 8054 8055 8054 8056 8057 8056 8054 8056 8057 8056 8059 8058 8059 8058 8060 8059 8056 8061 8056 8058 8059 8057 8057 8060 8059 8054 8059 8061 8061 8062 8062 8063 8062 8064 8062 8062 8066 8065 8068 8068 8072 8066 8066 8066 8069 8070 8068 8068 8069 8070 8064 8066 8068 8067 8067 8068 8068 8070 8069 8071 8065 8064 8058 8065 8067 8065 8067 8067 8068 8064 8063 8060 8058 8054 8053 8055 
8052 8051 8057 8053 8054 8057 8051 8054 8053 8055 8054 8053 8059 8056 8057 8058 8056 8056 8055 8057 8060 8062 8062 8056 8055 8056 8058 8061 8058 8058 8057 8059 8060 8060 8060 8061 8062 8063 8062 8061 8063 8065 8065 8067 8069 8066 8066 8067 8065 8067 8069 8070 8067 8067 8068 8063 8065 8067 8068 8065 8068 8072 8069 8072 8067 8061 8059 8059 8066 8067 8068 8066 8065 8061 8063 8062 8058 8052 8053 8055 
8057 8055 8059 8057 8056 8054 8050 8057 8051 8059 8056 8056 8058 8058 8054 8055 8057 8055 8062 8060 8058 8064 8062 8062 8060 8058 8061 8059 8059 8057 8060 8057 8061 8062 8060 8061 8061 8059 8062 8064 8064 8063 8065 8066 8068 8069 8070 8068 8064 8068 8070 8067 8066 8068 8068 8064 8065 8064 8066 8064 8068 8066 8069 8070 8067 8058 8059 8065 8066 8067 8068 8066 8067 8059 8059 8058 8054 8054 8051 8054 
8054 8055 8056 8055 8055 8059 8054 8055 8057 8054 8058 8058 8059 8055 8057 8057 8060 8056 8056 8060 8059 8065 8068 8067 8060 8058 8060 8061 8062 8062 8062 8060 8063 8062 8060 8060 8059 8060 8062 8061 8063 8066 8062 8069 8068 8067 8070 8069 8070 8071 8073 8068 8068 8070 8067 8063 8065 8065 8069 8066 8069 8071 8070 8069 8066 8061 8061 8064 8066 8066 8063 8065 8064 8063 8062 8055 8061 8054 8056 8052 
8062 8063 8059 8060 8057 8058 8055 8059 8059 8057 8060 8062 8060 8057 8058 8060 8056 8059 8060 8062 8060 8064 8067 8068 8063 8061 8063 8066 8060 8064 8065 8064 8063 8065 8059 8063 8062 8061 8062 8064 8066 8066 8067 8068 8067 8066 8069 8073 8070 8071 8074 8070 8065 8068 8066 8064 8066 8069 8070 8069 8074 8076 8070 8071 8069 8060 8067 8068 8068 8067 8069 8063 8065 8064 8060 8058 8058 8054 8056 8055 
8067 8065 8065 8065 8062 8068 8058 8064 8063 8063 8064 8062 8063 8064 8058 8062 8065 8061 8063 8065 8061 8067 8071 8067 8066 8064 8066 8065 8065 8066 8070 8065 8066 8065 8067 8065 8060 8061 8065 8065 8070 8066 8064 8067 8069 8068 8071 8073 8072 8075 8073 8071 8069 8070 8073 8069 8066 8068 8067 8068 8076 8079 8074 8073 8068 8065 8070 8068 8068 8075 8071 8070 8067 8068 8062 8060 8060 8060 8056 8056 


