P2
80 60
8255
8202 8199 8203 8209 8209 8212 8208 8206 8207 8207 8212 8213 8215 8214 8214 8215 8214 8218 8215 8219 8220 8221 8221 8227 8218 8221 8220 8219 8220 8225 8226 8229 8227 8226 8223 8224 8226 8228 8232 8227 8224 8226 8226 8223 8224 8223 8221 8221 8217 8220 8216 8214 8213 8212 8213 8214 8213 8213 8215 8218 8216 8218 8216 8218 8220 8218 8222 8222 8227 8228 8231 8229 8228 8235 8228 8228 8231 8232 8227 8223 
8201 8204 8205 8213 8217 8211 8208 8208 8207 8212 8212 8211 8213 8213 8213 8216 8214 8217 8215 8221 8221 8226 8223 8224 8222 8224 8220 8222 8222 8224 8223 8226 8227 8226 8221 8222 8226 8229 8231 8228 8227 8228 8223 8224 8225 8227 8222 8224 8222 8222 8215 8214 8215 8213 8211 8215 8213 8216 8215 8216 8219 8219 8217 8216 8221 8216 8219 8224 8225 8228 8229 8226 8233 8232 8233 8231 8227 8232 8226 8223 
8197 8197 8203 8207 8211 8209 8210 8205 8208 8210 8212 8209 8211 8213 8214 8212 8213 8217 8218 8221 8217 8222 8221 8220 8219 8224 8224 8221 8222 8224 8222 8226 8226 8228 8224 8225 8225 8231 8228 8230 8226 8226 8225 8223 8223 8224 8219 8221 8219 8217 8216 8216 8216 8215 8212 8217 8213 8215 8215 8216 8219 8221 8217 8218 8217 8219 8217 8221 8224 8227 8226 8227 8228 8234 8228 8231 8228 8227 8222 8224 
8196 8194 8210 8210 8209 8207 8207 8206 8208 8211 8206 8205 8209 8212 8212 8214 8210 8217 8214 8215 8218 8213 8214 8222 8220 8222 8223 8222 8220 8221 8223 8228 8230 8226 8223 8222 8228 8227 8231 8234 8228 8227 8223 8221 8223 8220 8220 8222 8221 8215 8214 8215 8214 8216 8217 8218 8214 8215 8217 8216 8219 8221 8217 8218 8217 8215 8217 8220 8223 8226 8227 8224 8229 8229 8227 8224 8228 8230 8222 8216 
8200 8194 8208 8207 8206 8209 8208 8205 8204 8209 8205 8206 8209 8211 8209 8214 8213 8217 8213 8219 8221 8220 8214 8220 8218 8221 8222 8219 8220 8222 8224 8226 8230 8225 8221 8226 8227 8228 8231 8229 8225 8225 8225 8221 8222 8221 8219 8222 8220 8217 8217 8216 8216 8213 8216 8219 8214 8216 8217 8218 8219 8222 8218 8218 8218 8215 8215 8217 8219 8220 8222 8223 8224 8225 8223 8226 8223 8227 8224 8218 
8202 8198 8202 8206 8209 8208 8212 8209 8205 8206 8203 8209 8210 8206 8211 8209 8211 8209 8219 8216 8216 8218 8221 8220 8220 8222 8224 8219 8222 8222 8227 8224 8227 8223 8222 8224 8228 8232 8231 8226 8228 8225 8225 8218 8219 8220 8220 8220 8220 8219 8217 8212 8214 8216 8214 8219 8214 8217 8214 8218 8220 8220 8217 8218 8219 8218 8216 8217 8221 8222 8226 8222 8225 8225 8220 8225 8221 8225 8221 8217 
8202 8201 8202 8209 8212 8209 8213 8210 8206 8198 8198 8206 8208 8207 8208 8212 8210 8210 8213 8215 8218 8218 8220 8224 8221 8222 8215 8215 8219 8221 8225 8227 8226 8225 8223 8222 8226 8230 8229 8230 8228 8227 8226 8220 8221 8224 8222 8218 8216 8217 8217 8211 8216 8216 8214 8216 8214 8216 8215 8218 8216 8219 8216 8217 8217 8218 8217 8215 8218 8218 8220 8219 8218 8221 8219 8225 8223 8222 8219 8216 
8202 8204 8205 8213 8208 8213 8211 8217 8212 8196 8206 8209 8208 8206 8211 8210 8205 8212 8213 8215 8222 8219 8217 8222 8218 8220 8217 8217 8222 8222 8226 8226 8229 8227 8219 8222 8226 8228 8230 8231 8227 8225 8226 8223 8222 8218 8222 8219 8217 8216 8213 8211 8213 8215 8214 8214 8213 8215 8213 8215 8215 8220 8216 8217 8218 8220 8215 8218 8220 8215 8221 8218 8224 8221 8219 8221 8220 8221 8219 8217 
8200 8202 8204 8210 8211 8209 8215 8211 8208 8200 8201 8205 8208 8209 8207 8209 8206 8215 8213 8218 8218 8214 8215 8220 8215 8223 8221 8217 8221 8221 8224 8222 8226 8223 8224 8228 8227 8226 8229 8227 8226 8225 8222 8220 8221 8222 8218 8217 8216 8216 8212 8209 8212 8212 8212 8213 8214 8211 8215 8216 8217 8218 8214 8215 8212 8217 8216 8218 8219 8218 8217 8215 8216 8219 8218 8218 8221 8220 8217 8216 
8202 8199 8204 8214 8207 8211 8211 8213 8213 8207 8208 8205 8204 8206 8207 8209 8212 8211 8214 8219 8218 8215 8218 8219 8216 8219 8218 8216 8221 8225 8222 8223 8224 8220 8224 8222 8226 8226 8228 8229 8226 8225 8223 8223 8222 8222 8221 8220 8218 8215 8209 8212 8213 8212 8210 8213 8213 8214 8215 8215 8215 8217 8216 8216 8215 8217 8215 8216 8217 8217 8216 8215 8217 8218 8219 8219 8216 8221 8219 8214 
8204 8202 8208 8209 8205 8211 8203 8204 8212 8206 8205 8203 8205 8204 8208 8204 8206 8211 8209 8214 8217 8216 8216 8218 8215 8217 8220 8218 8224 8224 8221 8222 8220 8220 8225 8220 8225 8226 8228 8223 8223 8223 8223 8220 8224 8222 8220 8216 8215 8216 8213 8216 8215 8209 8210 8214 8213 8213 8213 8216 8214 8216 8216 8214 8214 8216 8215 8219 8217 8218 8216 8213 8215 8216 8214 8219 8217 8221 8218 8217 
8205 8205 8204 8206 8205 8208 8203 8206 8208 8203 8210 8203 8205 8206 8208 8206 8207 8211 8211 8216 8218 8217 8217 8218 8216 8219 8218 8220 8222 8222 8223 8222 8219 8220 8218 8219 8222 8226 8225 8222 8220 8221 8224 8224 8221 8221 8220 8219 8216 8217 8214 8212 8214 8212 8211 8216 8211 8211 8211 8214 8212 8216 8215 8213 8212 8215 8217 8217 8217 8215 8216 8214 8216 8214 8212 8216 8216 8219 8214 8212 
8208 8205 8206 8208 8205 8205 8204 8200 8203 8205 8206 8204 8206 8205 8208 8208 8209 8209 8212 8216 8213 8217 8218 8217 8216 8215 8219 8218 8219 8220 8222 8220 8223 8219 8218 8216 8223 8226 8224 8221 8219 8219 8222 8226 8224 8220 8218 8218 8216 8214 8211 8214 8214 8215 8209 8213 8212 8214 8214 8213 8214 8216 8216 8216 8217 8217 8217 8215 8216 8213 8213 8212 8212 8217 8214 8217 8219 8221 8216 8210 
8209 8210 8211 8209 8208 8209 8208 8207 8202 8207 8210 8207 8208 8207 8213 8210 8213 8210 8216 8219 8217 8217 8216 8219 8215 8218 8217 8219 8219 8223 8221 8219 8222 8218 8218 8221 8223 8225 8223 8221 8219 8222 8226 8223 8220 8218 8217 8220 8217 8216 8217 8213 8214 8214 8211 8212 8213 8214 8214 8216 8215 8213 8214 8215 8218 8216 8215 8214 8214 8212 8212 8213 8213 8212 8214 8218 8220 8220 8217 8218 
8208 8206 8211 8216 8211 8208 8206 8210 8205 8207 8209 8209 8210 8203 8212 8212 8211 8211 8215 8217 8210 8213 8215 8220 8217 8220 8216 8218 8220 8221 8220 8217 8223 8217 8217 8222 8222 8223 8222 8221 8219 8222 8221 8223 8223 8220 8215 8217 8213 8216 8215 8215 8213 8213 8213 8214 8216 8215 8215 8214 8214 8215 8215 8217 8216 8219 8216 8215 8215 8215 8215 8217 8216 8217 8218 8217 8217 8223 8218 8218 
8206 8199 8210 8215 8211 8212 8203 8205 8209 8212 8209 8206 8207 8208 8213 8211 8212 8211 8216 8215 8211 8213 8216 8219 8214 8221 8219 8218 8218 8221 8219 8220 8222 8220 8222 8219 8225 8223 8224 8220 8219 8218 8220 8220 8221 8222 8215 8215 8210 8212 8214 8213 8214 8211 8213 8212 8214 8213 8214 8216 8214 8214 8215 8215 8219 8217 8214 8214 8215 8214 8216 8218 8217 8216 8218 8221 8224 8223 8219 8220 
8203 8200 8205 8212 8204 8204 8204 8205 8207 8209 8210 8207 8206 8206 8207 8209 8211 8213 8215 8211 8211 8215 8219 8217 8210 8217 8220 8219 8217 8219 8218 8220 8220 8219 8219 8220 8227 8224 8223 8220 8223 8221 8218 8221 8220 8219 8217 8215 8213 8216 8209 8212 8212 8209 8209 8211 8213 8214 8212 8215 8212 8215 8215 8213 8218 8219 8217 8213 8216 8216 8216 8217 8218 8217 8219 8220 8219 8219 8217 8221 
8202 8200 8206 8208 8210 8209 8204 8213 8205 8212 8209 8209 8208 8211 8210 8210 8213 8212 8216 8215 8216 8213 8217 8216 8213 8220 8220 8220 8218 8219 8216 8221 8226 8221 8219 8224 8220 8224 8225 8220 8217 8216 8220 8219 8223 8217 8217 8213 8213 8215 8212 8212 8209 8209 8209 8208 8210 8208 8211 8213 8214 8217 8215 8214 8215 8216 8214 8213 8212 8216 8217 8218 8216 8220 8220 8222 8221 8221 8219 8217 
8205 8203 8208 8212 8207 8209 8212 8208 8214 8212 8211 8207 8211 8206 8208 8208 8207 8209 8213 8211 8209 8214 8218 8216 8213 8216 8222 8219 8217 8217 8218 8222 8227 8221 8222 8222 8222 8223 8223 8221 8220 8218 8219 8219 8220 8217 8217 8215 8215 8210 8211 8209 8212 8206 8210 8209 8211 8211 8211 8210 8212 8214 8214 8215 8215 8216 8215 8214 8216 8214 8218 8216 8218 8220 8218 8221 8217 8219 8219 8221 
8209 8202 8213 8209 8203 8213 8209 8212 8211 8211 8213 8209 8211 8210 8211 8211 8209 8211 8207 8211 8212 8214 8218 8218 8216 8216 8222 8218 8218 8219 8220 8222 8226 8222 8226 8221 8223 8222 8222 8219 8220 8219 8220 8218 8219 8215 8215 8213 8213 8210 8212 8211 8211 8208 8212 8210 8210 8210 8213 8210 8212 8213 8212 8211 8218 8213 8214 8213 8214 8215 8217 8218 8219 8218 8215 8220 8217 8220 8217 8214 
8210 8210 8205 8204 8202 8206 8205 8214 8212 8210 8208 8211 8210 8206 8207 8205 8209 8208 8207 8213 8211 8213 8215 8217 8214 8211 8217 8216 8219 8216 8218 8219 8223 8222 8222 8224 8222 8221 8222 8219 8218 8220 8218 8217 8219 8218 8212 8214 8215 8210 8210 8210 8210 8209 8212 8211 8211 8209 8210 8212 8211 8215 8213 8213 8216 8215 8214 8215 8212 8211 8217 8214 8216 8218 8214 8217 8219 8216 8213 8216 
8210 8212 8210 8215 8211 8209 8194 8211 8201 8211 8206 8208 8211 8210 8206 8209 8204 8203 8207 8210 8210 8216 8217 8219 8215 8211 8218 8216 8216 8219 8221 8223 8223 8220 8220 8219 8219 8221 8221 8219 8218 8221 8218 8218 8216 8214 8212 8213 8214 8209 8214 8206 8211 8211 8210 8213 8212 8215 8211 8210 8211 8212 8212 8213 8214 8215 8215 8214 8216 8215 8215 8217 8213 8217 8217 8215 8220 8218 8217 8213 
8208 8210 8211 8219 8211 8209 8197 8200 8199 8212 8212 8207 8205 8213 8208 8208 8204 8204 8206 8212 8212 8216 8216 8219 8217 8212 8214 8215 8216 8217 8216 8218 8220 8214 8219 8221 8218 8219 8222 8217 8216 8216 8217 8217 8216 8213 8209 8210 8209 8208 8206 8207 8206 8206 8210 8213 8212 8212 8212 8209 8211 8212 8215 8213 8215 8217 8215 8216 8215 8214 8214 8216 8214 8215 8214 8219 8215 8219 8214 8219 
8209 8211 8210 8213 8213 8214 8208 8200 8206 8212 8212 8210 8208 8209 8209 8208 8208 8207 8209 8209 8213 8213 8215 8214 8211 8206 8207 8201 8211 8216 8212 8200 8208 8206 8208 8216 8211 8213 8215 8216 8216 8218 8222 8221 8216 8214 8207 8210 8209 8210 8209 8210 8206 8209 8210 8212 8212 8213 8209 8209 8213 8215 8212 8212 8214 8215 8216 8216 8215 8214 8219 8213 8214 8214 8217 8216 8217 8218 8216 8217 
8210 8206 8214 8214 8210 8213 8205 8209 8209 8207 8212 8209 8211 8210 8211 8209 8205 8211 8207 8210 8214 8215 8213 8195 8180 8179 8192 8204 8199 8202 8199 8194 8181 8176 8185 8193 8181 8180 8188 8214 8216 8219 8221 8218 8216 8213 8210 8211 8210 8210 8208 8209 8205 8209 8210 8212 8211 8211 8211 8210 8212 8212 8214 8215 8220 8218 8218 8217 8217 8214 8218 8218 8219 8219 8216 8217 8217 8215 8217 8217 
8208 8203 8210 8214 8210 8209 8210 8206 8202 8210 8208 8211 8209 8207 8213 8209 8208 8210 8210 8210 8213 8212 8194 8170 8163 8166 8199 8215 8203 8180 8182 8179 8178 8173 8179 8188 8178 8175 8179 8189 8212 8217 8204 8200 8194 8202 8208 8210 8211 8213 8212 8207 8209 8208 8210 8211 8208 8212 8212 8214 8213 8212 8215 8213 8216 8216 8214 8217 8216 8213 8213 8215 8217 8214 8217 8217 8219 8218 8215 8217 
8208 8208 8209 8215 8208 8211 8206 8203 8207 8211 8212 8211 8207 8212 8209 8210 8208 8212 8207 8208 8209 8209 8179 8167 8161 8167 8184 8200 8205 8196 8179 8184 8196 8179 8171 8173 8175 8171 8179 8194 8212 8212 8200 8180 8173 8172 8187 8208 8211 8211 8207 8209 8211 8208 8210 8210 8209 8213 8212 8213 8213 8216 8216 8213 8214 8215 8212 8214 8213 8211 8214 8213 8214 8215 8214 8216 8218 8218 8217 8215 
8206 8214 8210 8212 8210 8211 8210 8208 8207 8212 8211 8211 8212 8208 8210 8210 8209 8210 8209 8209 8210 8212 8181 8180 8199 8180 8174 8194 8196 8193 8171 8175 8180 8172 8169 8171 8172 8171 8179 8200 8206 8182 8174 8179 8175 8171 8185 8189 8210 8213 8210 8210 8208 8210 8212 8213 8211 8217 8215 8216 8211 8215 8214 8215 8217 8215 8216 8212 8211 8210 8211 8214 8214 8212 8212 8215 8217 8220 8215 8216 
8211 8205 8213 8216 8211 8213 8209 8207 8212 8213 8214 8214 8211 8209 8212 8210 8208 8211 8211 8210 8209 8211 8204 8210 8197 8206 8190 8195 8193 8182 8170 8170 8174 8165 8167 8169 8172 8173 8175 8179 8185 8179 8171 8172 8173 8168 8197 8193 8211 8214 8213 8211 8211 8211 8215 8214 8212 8212 8212 8212 8214 8213 8216 8215 8215 8215 8211 8212 8208 8208 8208 8209 8211 8213 8212 8217 8217 8219 8215 8211 
8207 8205 8210 8213 8214 8214 8211 8210 8213 8210 8212 8214 8214 8213 8209 8211 8212 8213 8208 8210 8210 8211 8211 8196 8194 8215 8207 8179 8171 8167 8166 8170 8169 8167 8176 8171 8171 8174 8173 8175 8184 8178 8176 8174 8189 8174 8182 8200 8213 8215 8215 8211 8213 8212 8215 8214 8212 8213 8214 8214 8213 8216 8214 8215 8214 8217 8210 8212 8208 8209 8213 8210 8211 8214 8215 8218 8216 8218 8214 8213 
8209 8208 8213 8214 8215 8217 8210 8212 8215 8209 8211 8210 8210 8212 8211 8212 8211 8209 8205 8208 8210 8210 8202 8183 8211 8216 8210 8180 8169 8166 8176 8174 8170 8172 8177 8182 8169 8170 8172 8191 8186 8174 8174 8170 8180 8194 8198 8208 8213 8215 8214 8212 8214 8215 8215 8214 8214 8215 8212 8213 8214 8217 8215 8213 8215 8214 8212 8211 8208 8208 8211 8211 8213 8216 8215 8219 8216 8218 8214 8212 
8213 8207 8211 8214 8211 8213 8211 8212 8212 8214 8209 8212 8209 8212 8208 8209 8207 8208 8209 8208 8212 8214 8204 8186 8207 8210 8199 8189 8172 8171 8178 8194 8179 8180 8184 8180 8167 8166 8169 8176 8188 8180 8176 8171 8187 8208 8208 8208 8215 8216 8212 8213 8211 8212 8212 8216 8214 8213 8212 8213 8213 8215 8218 8213 8218 8215 8212 8209 8209 8212 8211 8214 8212 8210 8214 8217 8217 8215 8212 8209 
8214 8213 8212 8216 8215 8215 8213 8211 8216 8212 8211 8210 8209 8208 8208 8210 8208 8209 8208 8208 8207 8211 8211 8195 8190 8200 8211 8195 8180 8184 8171 8173 8175 8181 8195 8175 8169 8167 8172 8188 8180 8183 8173 8180 8179 8193 8213 8214 8214 8217 8216 8212 8213 8214 8213 8216 8213 8214 8213 8214 8216 8217 8216 8214 8217 8216 8211 8208 8210 8210 8212 8213 8211 8211 8214 8217 8217 8214 8212 8211 
8216 8211 8220 8220 8217 8215 8215 8211 8215 8211 8213 8211 8211 8209 8208 8211 8212 8208 8211 8206 8211 8212 8210 8195 8171 8193 8198 8192 8190 8198 8182 8180 8171 8174 8199 8174 8173 8173 8174 8175 8180 8172 8170 8194 8180 8174 8204 8216 8219 8216 8216 8213 8212 8213 8211 8213 8213 8218 8211 8213 8213 8214 8215 8215 8214 8214 8211 8211 8214 8214 8214 8214 8213 8214 8214 8215 8216 8215 8211 8213 
8219 8217 8219 8218 8217 8213 8215 8215 8214 8212 8212 8211 8210 8206 8209 8209 8210 8212 8212 8211 8209 8192 8197 8195 8170 8177 8179 8185 8186 8193 8197 8172 8169 8168 8195 8175 8173 8170 8176 8189 8185 8171 8172 8201 8182 8177 8190 8215 8217 8218 8218 8212 8217 8215 8214 8216 8212 8217 8214 8214 8213 8214 8212 8214 8213 8213 8213 8213 8213 8211 8212 8212 8214 8215 8215 8215 8214 8213 8210 8207 
8218 8219 8220 8221 8214 8217 8217 8216 8215 8214 8210 8216 8212 8210 8214 8213 8210 8210 8215 8210 8208 8205 8204 8195 8169 8185 8180 8176 8173 8186 8197 8172 8172 8168 8188 8174 8175 8174 8175 8188 8184 8171 8175 8203 8205 8178 8194 8210 8215 8215 8217 8211 8215 8212 8212 8215 8213 8216 8214 8214 8212 8216 8215 8214 8215 8214 8212 8211 8212 8211 8212 8212 8214 8216 8213 8217 8214 8216 8210 8213 
8215 8218 8221 8218 8217 8214 8221 8216 8215 8210 8213 8216 8218 8211 8206 8212 8211 8212 8210 8211 8205 8199 8186 8186 8169 8171 8181 8175 8171 8182 8192 8173 8172 8173 8187 8172 8172 8170 8172 8174 8173 8182 8182 8192 8200 8190 8188 8218 8217 8214 8216 8213 8215 8215 8212 8214 8214 8213 8216 8215 8212 8216 8213 8215 8213 8215 8211 8209 8213 8211 8212 8213 8214 8214 8216 8219 8220 8218 8212 8215 
8221 8218 8218 8220 8217 8219 8219 8216 8212 8216 8216 8218 8215 8212 8213 8213 8209 8207 8207 8200 8190 8190 8186 8187 8173 8171 8189 8184 8173 8175 8175 8173 8173 8177 8187 8173 8175 8173 8172 8171 8172 8182 8187 8214 8210 8197 8196 8216 8214 8215 8216 8210 8211 8211 8212 8212 8214 8214 8216 8213 8215 8214 8216 8217 8215 8217 8211 8209 8213 8212 8212 8212 8213 8217 8213 8219 8216 8216 8214 8214 
8220 8219 8219 8221 8221 8222 8217 8216 8215 8218 8215 8217 8211 8212 8209 8210 8207 8204 8202 8200 8176 8177 8169 8171 8165 8171 8176 8181 8173 8169 8167 8171 8173 8183 8177 8171 8169 8172 8174 8167 8167 8173 8195 8218 8220 8219 8206 8216 8216 8215 8213 8211 8211 8214 8212 8218 8216 8215 8216 8213 8214 8215 8213 8215 8216 8216 8213 8213 8211 8212 8212 8212 8215 8217 8218 8218 8218 8214 8215 8211 
8216 8223 8223 8220 8220 8222 8220 8217 8214 8217 8214 8217 8212 8212 8207 8206 8207 8207 8212 8204 8202 8182 8180 8185 8166 8167 8173 8194 8175 8167 8170 8170 8171 8185 8175 8172 8172 8174 8171 8167 8164 8172 8180 8210 8220 8219 8215 8217 8215 8216 8212 8210 8214 8212 8214 8215 8218 8214 8214 8213 8214 8214 8213 8214 8216 8213 8211 8214 8214 8213 8214 8211 8214 8215 8217 8220 8215 8216 8213 8213 
8218 8219 8224 8215 8218 8222 8214 8218 8215 8214 8212 8218 8211 8209 8210 8209 8203 8208 8213 8209 8209 8204 8205 8179 8167 8166 8171 8189 8170 8167 8168 8172 8169 8169 8169 8171 8168 8170 8171 8173 8167 8170 8178 8195 8214 8214 8215 8215 8213 8211 8213 8213 8215 8215 8216 8218 8218 8215 8213 8214 8212 8214 8214 8215 8218 8214 8216 8213 8210 8211 8214 8211 8212 8218 8221 8219 8215 8215 8213 8209 
8214 8214 8218 8212 8212 8218 8211 8214 8218 8214 8214 8212 8213 8210 8215 8212 8207 8208 8211 8208 8204 8201 8191 8173 8166 8166 8168 8178 8169 8168 8167 8171 8170 8169 8168 8170 8172 8171 8171 8175 8176 8171 8178 8185 8191 8194 8196 8199 8206 8208 8210 8214 8213 8213 8216 8217 8218 8213 8212 8212 8213 8215 8214 8217 8218 8215 8211 8212 8212 8215 8213 8215 8215 8216 8220 8222 8219 8217 8214 8210 
8217 8211 8212 8211 8213 8214 8216 8213 8217 8219 8216 8213 8216 8214 8212 8211 8207 8206 8185 8177 8175 8177 8178 8171 8167 8169 8169 8175 8173 8166 8165 8169 8172 8167 8165 8170 8171 8173 8174 8176 8180 8181 8183 8186 8187 8183 8183 8184 8187 8184 8203 8214 8214 8218 8217 8218 8216 8214 8212 8213 8216 8218 8215 8217 8220 8218 8216 8215 8212 8213 8216 8211 8218 8220 8219 8219 8221 8218 8213 8218 
8217 8215 8216 8214 8215 8216 8213 8212 8217 8219 8216 8215 8216 8218 8213 8209 8207 8202 8177 8174 8173 8174 8173 8173 8169 8166 8170 8180 8176 8168 8169 8171 8172 8169 8166 8171 8170 8174 8171 8176 8182 8184 8182 8187 8188 8186 8184 8184 8186 8184 8200 8212 8211 8214 8213 8217 8215 8216 8215 8216 8215 8219 8215 8220 8215 8216 8215 8213 8212 8214 8216 8216 8219 8219 8222 8219 8220 8217 8216 8214 
8219 8222 8220 8219 8213 8216 8218 8214 8214 8218 8215 8214 8218 8217 8214 8210 8211 8208 8186 8194 8197 8193 8188 8184 8179 8173 8172 8180 8175 8171 8173 8175 8173 8169 8170 8171 8171 8175 8176 8177 8178 8185 8184 8188 8192 8189 8189 8184 8186 8188 8203 8209 8213 8214 8216 8220 8218 8214 8214 8217 8215 8220 8220 8218 8219 8217 8214 8215 8216 8214 8217 8215 8220 8219 8219 8218 8220 8220 8216 8213 
8218 8215 8214 8219 8216 8217 8215 8212 8215 8218 8216 8211 8218 8219 8217 8217 8213 8213 8185 8186 8212 8230 8235 8236 8218 8193 8188 8201 8207 8205 8197 8189 8182 8182 8179 8180 8178 8179 8181 8181 8178 8184 8184 8186 8188 8188 8183 8182 8183 8190 8202 8211 8209 8212 8216 8216 8215 8216 8215 8218 8217 8219 8218 8219 8217 8215 8216 8217 8216 8215 8218 8217 8223 8222 8219 8220 8224 8218 8219 8215 
8220 8220 8214 8217 8214 8223 8219 8214 8217 8215 8213 8217 8218 8216 8216 8217 8214 8213 8191 8176 8187 8200 8227 8255 8235 8198 8191 8211 8240 8237 8229 8206 8194 8190 8185 8186 8185 8182 8190 8183 8184 8185 8185 8188 8188 8188 8185 8185 8187 8193 8205 8215 8217 8215 8215 8219 8217 8216 8212 8215 8216 8218 8213 8216 8215 8216 8214 8218 8213 8215 8216 8215 8218 8221 8221 8221 8219 8222 8214 8216 
8217 8221 8215 8219 8216 8221 8221 8218 8223 8221 8225 8218 8218 8216 8220 8216 8216 8218 8200 8182 8180 8188 8220 8254 8242 8211 8195 8205 8239 8246 8230 8205 8194 8190 8190 8186 8182 8185 8188 8183 8186 8188 8188 8191 8189 8189 8184 8188 8194 8205 8212 8214 8217 8216 8215 8217 8216 8215 8217 8213 8213 8219 8215 8217 8215 8216 8215 8215 8213 8213 8216 8217 8218 8223 8222 8224 8222 8223 8214 8214 
8217 8217 8215 8219 8216 8218 8220 8219 8217 8222 8222 8216 8221 8216 8216 8219 8216 8217 8212 8195 8184 8191 8229 8254 8250 8228 8196 8191 8210 8215 8209 8193 8194 8189 8188 8187 8189 8186 8188 8187 8189 8192 8190 8190 8191 8192 8190 8198 8200 8214 8213 8212 8214 8213 8216 8216 8215 8212 8214 8214 8213 8218 8215 8219 8213 8217 8217 8216 8217 8217 8216 8221 8225 8224 8223 8223 8220 8221 8212 8215 
8215 8214 8216 8216 8213 8222 8217 8221 8220 8222 8223 8222 8219 8220 8218 8217 8214 8217 8214 8206 8176 8177 8194 8219 8236 8222 8192 8185 8186 8188 8187 8188 8194 8190 8192 8189 8194 8190 8191 8191 8190 8190 8191 8189 8187 8189 8198 8206 8198 8216 8213 8213 8214 8217 8213 8217 8216 8218 8217 8216 8216 8218 8215 8218 8215 8217 8215 8216 8217 8220 8219 8222 8226 8224 8225 8223 8224 8218 8214 8219 
8214 8208 8212 8214 8217 8216 8221 8217 8216 8218 8220 8218 8222 8219 8221 8219 8217 8220 8212 8205 8179 8177 8186 8211 8232 8221 8191 8181 8181 8185 8185 8189 8193 8189 8190 8190 8190 8193 8194 8190 8190 8188 8188 8184 8189 8187 8194 8196 8205 8218 8216 8218 8216 8217 8215 8219 8216 8213 8215 8218 8218 8221 8221 8216 8216 8215 8218 8220 8221 8222 8221 8220 8230 8226 8224 8222 8224 8217 8213 8205 
8211 8209 8210 8216 8213 8219 8213 8219 8215 8215 8217 8217 8220 8220 8220 8214 8215 8220 8217 8207 8182 8179 8185 8214 8231 8226 8191 8184 8185 8186 8185 8188 8189 8186 8189 8189 8192 8193 8193 8189 8189 8185 8189 8188 8187 8186 8188 8192 8212 8216 8215 8215 8215 8216 8217 8218 8219 8216 8217 8216 8216 8219 8217 8216 8216 8213 8216 8219 8219 8223 8224 8224 8228 8227 8225 8224 8224 8217 8210 8212 
8209 8204 8208 8213 8210 8210 8212 8221 8221 8219 8211 8213 8215 8218 8222 8213 8215 8219 8214 8212 8189 8177 8184 8205 8221 8212 8190 8182 8184 8184 8185 8185 8186 8184 8187 8189 8192 8193 8193 8191 8189 8187 8188 8189 8188 8185 8187 8191 8215 8219 8219 8217 8216 8217 8218 8221 8220 8216 8217 8216 8218 8222 8219 8217 8217 8218 8218 8223 8221 8223 8226 8224 8229 8226 8222 8224 8221 8219 8211 8213 
8193 8190 8193 8201 8203 8205 8210 8217 8210 8218 8212 8214 8215 8218 8220 8216 8215 8216 8216 8213 8193 8179 8182 8190 8200 8195 8187 8184 8186 8184 8183 8186 8187 8189 8188 8188 8190 8189 8191 8191 8189 8189 8190 8188 8188 8188 8184 8195 8213 8218 8220 8218 8213 8216 8217 8217 8218 8217 8216 8219 8216 8218 8218 8217 8218 8216 8217 8221 8220 8225 8224 8223 8225 8228 8221 8223 8219 8221 8212 8216 
8191 8196 8193 8198 8193 8196 8196 8194 8196 8205 8208 8213 8209 8216 8215 8216 8213 8213 8217 8212 8197 8178 8178 8183 8183 8183 8182 8179 8185 8183 8178 8182 8184 8188 8187 8189 8190 8187 8191 8189 8191 8187 8192 8191 8189 8187 8184 8195 8215 8221 8222 8216 8216 8219 8217 8221 8214 8216 8216 8223 8217 8220 8219 8218 8215 8217 8216 8217 8219 8224 8221 8224 8226 8224 8223 8221 8220 8219 8208 8208 
8194 8193 8191 8192 8190 8189 8188 8181 8175 8193 8197 8195 8197 8198 8202 8200 8202 8204 8207 8206 8203 8177 8177 8180 8177 8176 8179 8182 8184 8183 8181 8184 8189 8184 8186 8189 8191 8187 8191 8190 8191 8188 8195 8191 8191 8189 8182 8195 8216 8220 8219 8215 8214 8215 8215 8221 8219 8214 8214 8218 8216 8221 8218 8214 8218 8216 8215 8218 8220 8221 8223 8223 8226 8224 8222 8221 8218 8214 8210 8210 
8193 8195 8192 8190 8186 8186 8188 8184 8184 8189 8191 8188 8192 8193 8192 8188 8188 8193 8196 8196 8200 8176 8180 8182 8178 8174 8178 8178 8182 8183 8180 8184 8187 8180 8186 8187 8190 8187 8191 8187 8187 8189 8190 8188 8188 8184 8183 8191 8210 8217 8218 8212 8211 8214 8214 8220 8218 8214 8212 8214 8215 8218 8215 8216 8217 8218 8218 8221 8221 8219 8222 8223 8225 8223 8220 8219 8214 8215 8208 8209 
8192 8201 8190 8184 8184 8183 8184 8180 8183 8187 8187 8186 8186 8190 8189 8185 8185 8184 8190 8189 8188 8175 8177 8180 8179 8180 8179 8180 8180 8181 8182 8184 8184 8183 8183 8183 8186 8188 8189 8189 8184 8184 8185 8184 8185 8183 8186 8184 8193 8199 8210 8212 8210 8211 8214 8214 8216 8214 8214 8214 8213 8217 8215 8214 8216 8216 8214 8220 8218 8223 8222 8221 8218 8220 8216 8221 8211 8213 8207 8212 
8205 8189 8183 8184 8182 8180 8177 8182 8184 8183 8182 8180 8185 8184 8184 8177 8177 8182 8185 8183 8179 8172 8168 8175 8174 8177 8177 8177 8178 8176 8175 8179 8181 8180 8179 8182 8184 8182 8186 8187 8186 8179 8183 8182 8178 8178 8183 8182 8189 8187 8196 8204 8207 8210 8211 8213 8213 8209 8207 8208 8209 8216 8212 8212 8214 8211 8216 8219 8217 8219 8220 8218 8219 8217 8216 8217 8214 8213 8207 8202 
8207 8191 8182 8184 8180 8179 8179 8177 8182 8181 8180 8179 8178 8178 8179 8174 8173 8178 8181 8178 8174 8167 8165 8173 8168 8171 8170 8169 8177 8173 8171 8173 8176 8173 8174 8171 8171 8172 8180 8179 8177 8173 8175 8173 8177 8177 8179 8184 8186 8188 8193 8196 8199 8204 8204 8202 8201 8203 8198 8201 8200 8199 8201 8202 8208 8204 8209 8216 8216 8212 8215 8216 8213 8216 8212 8213 8215 8213 8205 8207 


