P2
80 60
8246
8213 8214 8218 8218 8222 8223 8221 8220 8216 8222 8227 8229 8227 8228 8229 8227 8228 8230 8229 8228 8230 8229 8233 8234 8233 8232 8227 8230 8230 8234 8233 8240 8234 8236 8231 8234 8239 8240 8239 8241 8238 8235 8235 8235 8237 8236 8237 8236 8234 8232 8231 8228 8229 8226 8226 8228 8225 8226 8228 8232 8232 8228 8233 8233 8232 8229 8234 8231 8239 8239 8236 8240 8238 8243 8243 8243 8240 8240 8237 8229 
8210 8221 8220 8218 8225 8225 8220 8223 8219 8223 8223 8225 8225 8223 8225 8224 8228 8228 8228 8232 8232 8232 8231 8230 8231 8232 8228 8231 8235 8239 8235 8238 8236 8237 8232 8237 8235 8238 8239 8239 8237 8234 8233 8234 8236 8234 8237 8236 8235 8236 8231 8228 8230 8227 8227 8227 8224 8230 8227 8230 8231 8228 8230 8229 8232 8229 8236 8235 8238 8237 8234 8237 8242 8242 8246 8241 8242 8242 8234 8237 
8203 8212 8217 8213 8220 8221 8220 8219 8216 8223 8223 8224 8222 8224 8225 8225 8226 8227 8229 8228 8228 8232 8232 8225 8232 8233 8230 8231 8235 8234 8233 8236 8232 8239 8233 8234 8237 8240 8238 8240 8236 8235 8233 8233 8232 8235 8235 8235 8234 8231 8229 8228 8232 8230 8224 8228 8224 8230 8229 8229 8234 8230 8229 8231 8230 8229 8231 8233 8235 8237 8232 8237 8235 8239 8239 8238 8239 8236 8233 8235 
8207 8210 8217 8217 8221 8217 8221 8222 8220 8221 8214 8216 8223 8221 8221 8224 8228 8227 8227 8228 8229 8224 8222 8232 8236 8230 8230 8234 8233 8235 8232 8237 8236 8235 8234 8236 8238 8239 8240 8242 8238 8234 8234 8230 8234 8228 8235 8236 8235 8233 8232 8232 8229 8232 8230 8229 8226 8230 8231 8230 8232 8234 8231 8232 8228 8230 8230 8233 8234 8235 8234 8232 8235 8237 8238 8234 8241 8239 8235 8238 
8206 8209 8218 8213 8213 8219 8222 8218 8215 8219 8216 8213 8219 8222 8218 8225 8226 8224 8228 8228 8224 8227 8221 8225 8228 8230 8228 8229 8233 8235 8232 8238 8236 8235 8230 8238 8239 8239 8242 8240 8238 8235 8234 8231 8230 8228 8231 8232 8234 8231 8230 8228 8228 8230 8228 8230 8229 8229 8228 8232 8235 8235 8232 8234 8229 8227 8228 8229 8235 8234 8232 8236 8234 8233 8233 8234 8232 8231 8230 8230 
8204 8213 8215 8215 8220 8218 8225 8221 8217 8219 8215 8217 8222 8219 8223 8223 8224 8221 8227 8229 8227 8228 8228 8225 8234 8231 8231 8228 8232 8237 8236 8237 8236 8234 8234 8237 8240 8239 8243 8237 8239 8235 8234 8231 8230 8233 8235 8236 8233 8230 8233 8230 8231 8234 8228 8232 8228 8232 8230 8234 8236 8233 8230 8230 8227 8228 8229 8229 8230 8234 8235 8231 8237 8236 8235 8232 8230 8232 8229 8231 
8210 8217 8211 8218 8220 8223 8226 8224 8216 8210 8209 8218 8221 8217 8218 8226 8222 8222 8224 8229 8227 8227 8227 8233 8235 8230 8223 8227 8231 8234 8233 8239 8237 8236 8232 8235 8238 8240 8239 8240 8239 8234 8233 8231 8230 8233 8235 8234 8233 8232 8231 8228 8231 8233 8229 8231 8229 8229 8231 8234 8233 8231 8231 8230 8233 8229 8232 8228 8230 8235 8231 8231 8234 8234 8232 8231 8231 8231 8227 8229 
8209 8220 8213 8217 8217 8221 8223 8226 8220 8206 8219 8225 8221 8214 8221 8223 8219 8225 8226 8229 8228 8228 8226 8229 8232 8233 8222 8226 8234 8238 8235 8237 8239 8237 8235 8240 8240 8237 8240 8238 8241 8233 8234 8233 8231 8232 8235 8231 8231 8229 8230 8225 8229 8230 8226 8230 8228 8228 8229 8231 8232 8231 8231 8229 8228 8232 8231 8232 8231 8229 8229 8229 8233 8230 8231 8231 8230 8230 8223 8223 
8212 8217 8216 8218 8222 8220 8229 8224 8218 8208 8214 8221 8222 8218 8217 8222 8219 8226 8229 8229 8229 8222 8225 8231 8226 8230 8224 8228 8232 8233 8232 8232 8234 8235 8235 8242 8241 8238 8237 8238 8238 8233 8231 8231 8232 8233 8233 8233 8230 8228 8224 8227 8228 8230 8226 8228 8227 8229 8229 8230 8235 8232 8228 8229 8228 8228 8231 8234 8231 8233 8229 8226 8230 8232 8231 8226 8232 8233 8227 8229 
8212 8213 8216 8222 8221 8223 8221 8226 8220 8219 8219 8217 8217 8217 8218 8220 8221 8222 8228 8229 8225 8222 8226 8226 8228 8226 8227 8227 8235 8234 8230 8233 8231 8235 8237 8238 8239 8238 8236 8240 8238 8232 8231 8229 8230 8233 8233 8234 8229 8228 8226 8225 8228 8228 8225 8226 8228 8227 8227 8233 8235 8230 8230 8228 8225 8229 8227 8231 8230 8230 8228 8226 8228 8228 8230 8231 8231 8230 8225 8228 
8213 8213 8220 8216 8218 8220 8218 8220 8221 8216 8216 8217 8218 8219 8216 8220 8221 8222 8223 8226 8226 8226 8226 8227 8225 8229 8226 8231 8233 8235 8231 8232 8228 8234 8235 8233 8237 8233 8238 8233 8234 8229 8231 8232 8231 8231 8233 8231 8230 8228 8227 8226 8225 8227 8225 8226 8224 8227 8230 8230 8228 8232 8228 8229 8226 8230 8229 8230 8230 8229 8227 8225 8227 8225 8226 8222 8230 8226 8223 8226 
8215 8218 8216 8214 8215 8221 8217 8220 8217 8213 8220 8216 8217 8216 8215 8217 8221 8221 8223 8226 8227 8226 8224 8226 8226 8228 8224 8229 8233 8233 8234 8236 8231 8235 8232 8234 8235 8236 8234 8233 8233 8226 8230 8235 8231 8230 8234 8233 8231 8228 8228 8225 8227 8228 8225 8224 8224 8225 8227 8229 8229 8229 8230 8227 8226 8230 8229 8232 8229 8229 8226 8224 8225 8223 8224 8227 8229 8225 8224 8223 
8217 8217 8219 8214 8218 8216 8217 8213 8213 8215 8219 8216 8218 8214 8220 8221 8220 8222 8224 8225 8226 8226 8224 8225 8225 8227 8225 8228 8232 8233 8232 8228 8231 8233 8229 8233 8235 8236 8233 8230 8231 8228 8232 8234 8231 8230 8233 8231 8227 8228 8225 8227 8229 8227 8225 8225 8225 8226 8227 8228 8230 8228 8229 8228 8228 8232 8229 8229 8228 8225 8225 8226 8225 8226 8227 8225 8229 8227 8222 8222 
8218 8225 8219 8217 8220 8221 8222 8220 8212 8218 8221 8219 8218 8216 8223 8221 8224 8222 8227 8228 8225 8223 8222 8226 8227 8228 8225 8226 8230 8234 8232 8229 8233 8232 8231 8234 8234 8232 8231 8232 8231 8230 8232 8233 8229 8230 8229 8231 8230 8229 8230 8225 8229 8226 8223 8225 8227 8227 8226 8228 8229 8229 8229 8228 8230 8232 8229 8229 8230 8227 8226 8224 8225 8226 8227 8227 8229 8225 8221 8220 
8216 8217 8222 8221 8219 8218 8217 8219 8215 8217 8219 8221 8219 8216 8223 8221 8225 8224 8223 8227 8221 8222 8221 8226 8226 8225 8224 8225 8230 8233 8226 8228 8231 8233 8229 8236 8232 8231 8227 8229 8225 8226 8227 8229 8227 8226 8226 8226 8227 8228 8228 8227 8227 8227 8223 8225 8225 8227 8228 8229 8230 8226 8228 8228 8226 8230 8228 8227 8226 8225 8223 8228 8224 8223 8225 8226 8228 8227 8222 8223 
8213 8210 8219 8218 8220 8219 8215 8218 8214 8222 8216 8218 8220 8217 8219 8225 8224 8224 8226 8225 8218 8221 8221 8224 8227 8227 8224 8221 8223 8229 8229 8228 8230 8230 8231 8231 8229 8226 8220 8220 8223 8223 8226 8227 8228 8228 8225 8228 8224 8224 8228 8227 8228 8226 8222 8224 8227 8224 8225 8228 8227 8228 8222 8229 8229 8228 8228 8228 8226 8226 8223 8228 8227 8222 8227 8225 8231 8225 8220 8223 
8213 8210 8217 8216 8216 8214 8215 8217 8214 8216 8217 8220 8216 8213 8219 8220 8223 8224 8227 8221 8221 8225 8223 8226 8221 8226 8222 8197 8179 8202 8225 8230 8226 8233 8227 8222 8202 8185 8175 8176 8205 8222 8224 8229 8227 8226 8226 8225 8224 8227 8225 8224 8227 8226 8222 8222 8222 8224 8222 8229 8224 8224 8226 8226 8228 8228 8229 8226 8228 8226 8225 8226 8225 8223 8224 8227 8226 8225 8218 8219 
8214 8216 8217 8214 8220 8219 8216 8222 8215 8221 8221 8223 8220 8221 8218 8222 8222 8220 8227 8226 8221 8225 8223 8223 8221 8225 8219 8178 8167 8180 8215 8216 8198 8212 8223 8195 8170 8170 8168 8181 8215 8225 8226 8227 8226 8225 8227 8225 8225 8224 8225 8225 8223 8225 8219 8223 8221 8220 8223 8226 8227 8226 8225 8230 8224 8227 8227 8225 8224 8224 8226 8225 8226 8224 8226 8224 8227 8222 8216 8219 
8216 8218 8218 8219 8216 8220 8226 8219 8222 8219 8220 8221 8222 8218 8219 8223 8222 8220 8223 8222 8219 8222 8222 8219 8219 8217 8214 8178 8165 8184 8201 8177 8173 8184 8192 8184 8166 8169 8182 8216 8223 8222 8220 8225 8226 8226 8226 8223 8221 8221 8224 8221 8224 8223 8221 8224 8221 8223 8220 8224 8226 8225 8225 8229 8225 8224 8225 8226 8228 8225 8226 8226 8226 8220 8227 8224 8225 8228 8218 8217 
8217 8215 8220 8218 8216 8225 8224 8222 8221 8219 8223 8223 8220 8219 8216 8222 8220 8221 8219 8221 8219 8219 8206 8195 8184 8176 8185 8175 8173 8199 8185 8179 8175 8177 8196 8175 8181 8180 8191 8203 8210 8214 8214 8211 8211 8211 8201 8189 8192 8203 8214 8222 8224 8223 8221 8221 8221 8224 8223 8223 8225 8224 8227 8227 8227 8222 8224 8225 8226 8223 8225 8224 8223 8222 8222 8224 8221 8221 8217 8221 
8216 8222 8215 8210 8213 8214 8217 8223 8218 8220 8215 8223 8215 8214 8213 8217 8220 8218 8215 8222 8214 8195 8184 8192 8200 8197 8179 8175 8177 8190 8187 8204 8209 8209 8195 8185 8182 8174 8171 8173 8177 8179 8194 8214 8218 8213 8206 8188 8181 8177 8182 8206 8220 8222 8222 8223 8223 8226 8222 8226 8223 8224 8224 8225 8226 8227 8223 8227 8226 8227 8223 8223 8223 8220 8224 8221 8223 8225 8217 8217 
8215 8225 8219 8225 8220 8219 8206 8221 8209 8219 8215 8215 8211 8197 8199 8214 8215 8212 8213 8215 8210 8202 8215 8221 8219 8216 8186 8175 8174 8176 8180 8184 8199 8192 8179 8178 8174 8173 8174 8174 8173 8177 8179 8201 8192 8180 8207 8220 8207 8186 8179 8179 8212 8223 8220 8224 8222 8224 8222 8224 8222 8224 8224 8224 8223 8226 8223 8227 8222 8226 8223 8222 8223 8218 8222 8218 8225 8222 8216 8222 
8218 8223 8221 8226 8222 8218 8208 8207 8207 8218 8214 8194 8180 8175 8175 8188 8194 8195 8198 8200 8203 8212 8214 8219 8195 8177 8180 8173 8174 8177 8173 8175 8179 8176 8173 8180 8174 8178 8174 8171 8175 8174 8175 8175 8172 8179 8212 8221 8218 8216 8195 8179 8185 8210 8220 8223 8225 8227 8223 8221 8223 8226 8225 8228 8226 8228 8223 8225 8223 8228 8222 8221 8222 8218 8221 8221 8223 8221 8220 8223 
8219 8225 8221 8221 8225 8223 8221 8210 8218 8214 8189 8178 8173 8174 8190 8205 8213 8212 8211 8205 8207 8214 8207 8194 8177 8161 8162 8169 8171 8173 8169 8178 8172 8169 8179 8178 8179 8175 8173 8193 8215 8207 8192 8180 8208 8219 8221 8222 8218 8220 8219 8209 8185 8189 8211 8221 8221 8225 8223 8222 8224 8226 8226 8226 8226 8227 8226 8226 8223 8222 8224 8222 8219 8222 8221 8222 8223 8221 8218 8216 
8218 8216 8221 8221 8223 8225 8216 8219 8212 8185 8176 8176 8183 8198 8214 8214 8207 8190 8172 8172 8172 8194 8182 8174 8169 8175 8163 8164 8167 8171 8169 8173 8171 8174 8180 8176 8175 8177 8179 8199 8222 8222 8223 8210 8211 8222 8224 8225 8222 8223 8221 8217 8213 8195 8190 8213 8218 8224 8225 8224 8226 8223 8225 8228 8227 8229 8228 8228 8226 8223 8220 8221 8222 8222 8222 8222 8220 8223 8218 8223 
8214 8218 8219 8223 8220 8219 8220 8211 8196 8178 8175 8186 8205 8212 8207 8192 8179 8173 8174 8171 8172 8174 8175 8174 8168 8170 8160 8167 8169 8178 8175 8173 8170 8164 8167 8169 8173 8173 8177 8201 8218 8221 8223 8226 8217 8222 8225 8222 8226 8222 8223 8219 8219 8215 8202 8193 8209 8223 8222 8225 8227 8224 8226 8226 8228 8226 8224 8225 8224 8224 8220 8222 8220 8219 8221 8222 8220 8225 8218 8219 
8215 8221 8219 8221 8219 8219 8215 8204 8183 8177 8187 8211 8213 8202 8198 8200 8201 8199 8176 8176 8179 8174 8170 8169 8164 8170 8167 8179 8180 8172 8174 8173 8165 8166 8167 8170 8172 8173 8175 8182 8181 8197 8218 8224 8225 8223 8224 8221 8225 8220 8218 8220 8218 8221 8218 8211 8190 8210 8223 8227 8226 8223 8226 8226 8226 8227 8223 8228 8223 8218 8221 8220 8218 8217 8221 8221 8223 8223 8218 8220 
8212 8222 8223 8219 8223 8220 8217 8191 8178 8188 8210 8219 8222 8214 8217 8219 8220 8209 8178 8185 8203 8184 8167 8174 8174 8174 8178 8178 8177 8172 8182 8178 8176 8176 8173 8180 8177 8177 8206 8205 8179 8178 8193 8222 8224 8221 8220 8203 8192 8192 8207 8211 8219 8222 8223 8221 8211 8189 8214 8226 8224 8223 8225 8228 8227 8225 8224 8222 8223 8221 8218 8220 8221 8215 8221 8223 8225 8225 8220 8221 
8216 8218 8222 8226 8221 8221 8210 8180 8186 8215 8222 8226 8221 8219 8219 8220 8218 8206 8185 8179 8181 8189 8178 8179 8178 8177 8177 8179 8173 8171 8168 8180 8179 8177 8173 8178 8177 8176 8191 8209 8206 8183 8180 8213 8215 8209 8196 8183 8185 8178 8178 8180 8206 8221 8221 8224 8223 8215 8213 8223 8226 8225 8226 8226 8225 8225 8223 8222 8220 8217 8216 8218 8221 8218 8221 8221 8226 8227 8222 8214 
8215 8217 8221 8222 8224 8224 8205 8183 8211 8218 8224 8224 8221 8220 8221 8219 8210 8175 8170 8167 8169 8182 8196 8185 8179 8190 8189 8178 8177 8175 8173 8178 8177 8178 8177 8180 8179 8176 8171 8193 8189 8195 8182 8191 8215 8221 8222 8222 8218 8207 8187 8176 8181 8207 8221 8224 8222 8223 8222 8230 8226 8223 8226 8226 8226 8225 8224 8220 8218 8217 8220 8220 8222 8219 8222 8223 8225 8228 8224 8223 
8218 8222 8225 8223 8222 8225 8202 8206 8223 8220 8222 8222 8223 8224 8220 8221 8200 8172 8168 8170 8184 8211 8216 8207 8197 8213 8187 8179 8180 8177 8174 8178 8177 8177 8176 8178 8178 8177 8176 8200 8209 8216 8218 8198 8217 8225 8225 8225 8227 8226 8216 8186 8182 8184 8204 8212 8221 8225 8227 8222 8226 8225 8226 8225 8225 8224 8224 8221 8219 8217 8217 8223 8222 8220 8224 8223 8226 8226 8218 8222 
8220 8219 8219 8219 8223 8221 8212 8222 8221 8224 8220 8223 8222 8219 8216 8219 8209 8176 8168 8189 8213 8217 8222 8216 8207 8203 8196 8179 8182 8175 8175 8177 8178 8176 8176 8178 8177 8177 8183 8219 8228 8225 8223 8221 8213 8227 8229 8228 8228 8225 8222 8220 8206 8204 8204 8200 8219 8224 8224 8224 8227 8226 8228 8225 8225 8227 8224 8223 8221 8222 8220 8222 8221 8221 8226 8224 8224 8222 8219 8222 
8222 8226 8220 8221 8221 8226 8217 8222 8221 8221 8221 8222 8221 8220 8219 8221 8219 8202 8190 8212 8219 8219 8224 8215 8221 8222 8207 8186 8181 8176 8175 8176 8180 8176 8177 8177 8178 8179 8204 8225 8222 8226 8223 8229 8227 8228 8233 8230 8227 8228 8227 8221 8224 8222 8222 8221 8222 8222 8223 8224 8227 8225 8226 8225 8225 8228 8225 8222 8223 8223 8219 8223 8223 8219 8224 8226 8226 8221 8222 8218 
8223 8220 8230 8226 8230 8225 8228 8222 8222 8220 8224 8224 8221 8218 8216 8220 8220 8216 8218 8214 8220 8222 8223 8213 8223 8224 8225 8195 8182 8177 8174 8180 8176 8188 8203 8185 8189 8192 8220 8228 8225 8226 8227 8231 8230 8232 8231 8228 8230 8227 8227 8225 8222 8223 8222 8222 8222 8225 8225 8223 8224 8224 8226 8227 8225 8222 8222 8225 8223 8222 8222 8219 8222 8223 8225 8225 8225 8223 8221 8219 
8228 8228 8228 8227 8229 8223 8226 8228 8220 8222 8222 8224 8219 8219 8220 8220 8222 8221 8224 8221 8223 8223 8221 8212 8224 8229 8224 8210 8185 8183 8178 8176 8176 8185 8211 8195 8188 8207 8220 8227 8230 8227 8226 8230 8231 8232 8227 8233 8229 8227 8227 8222 8226 8226 8223 8224 8226 8225 8226 8225 8225 8224 8226 8226 8224 8224 8224 8224 8223 8222 8220 8223 8223 8220 8222 8223 8225 8225 8219 8226 
8228 8229 8230 8229 8225 8226 8229 8224 8223 8222 8221 8227 8222 8220 8222 8224 8220 8223 8226 8221 8225 8226 8223 8211 8221 8224 8224 8219 8199 8193 8173 8176 8184 8180 8188 8189 8191 8221 8226 8231 8228 8227 8226 8230 8230 8227 8227 8228 8229 8225 8228 8224 8224 8222 8225 8225 8224 8225 8231 8224 8225 8227 8225 8226 8225 8225 8222 8226 8223 8222 8221 8224 8222 8224 8225 8226 8228 8224 8221 8223 
8224 8229 8231 8227 8227 8223 8232 8229 8226 8219 8226 8229 8229 8222 8218 8223 8224 8222 8223 8225 8225 8225 8222 8213 8220 8225 8224 8226 8220 8179 8171 8173 8191 8182 8206 8215 8191 8212 8218 8223 8225 8225 8226 8228 8230 8229 8231 8230 8228 8228 8225 8225 8226 8228 8222 8225 8223 8227 8231 8226 8227 8226 8226 8226 8223 8226 8226 8225 8222 8223 8222 8226 8227 8224 8228 8229 8230 8225 8220 8219 
8226 8228 8228 8227 8227 8228 8230 8228 8224 8227 8229 8226 8227 8223 8222 8222 8221 8220 8223 8222 8221 8225 8223 8207 8218 8223 8223 8219 8200 8171 8169 8178 8183 8179 8178 8187 8176 8183 8177 8184 8218 8223 8225 8227 8229 8228 8230 8229 8230 8224 8228 8226 8227 8226 8228 8225 8227 8227 8228 8227 8225 8222 8228 8229 8228 8228 8223 8225 8223 8222 8220 8222 8224 8225 8229 8230 8227 8226 8218 8221 
8227 8232 8228 8228 8232 8231 8231 8228 8224 8227 8228 8226 8224 8221 8219 8222 8221 8220 8222 8224 8223 8222 8220 8200 8201 8198 8185 8197 8188 8172 8170 8178 8191 8175 8175 8187 8190 8214 8187 8181 8189 8210 8223 8228 8228 8226 8228 8226 8227 8226 8226 8224 8225 8227 8225 8226 8226 8227 8229 8223 8224 8224 8224 8226 8222 8228 8224 8225 8224 8224 8224 8221 8224 8225 8229 8227 8230 8225 8219 8223 
8226 8234 8233 8228 8233 8228 8229 8228 8228 8225 8227 8229 8224 8222 8216 8218 8217 8217 8223 8219 8222 8221 8216 8189 8177 8170 8172 8186 8204 8184 8174 8177 8178 8174 8173 8191 8208 8211 8213 8190 8186 8182 8205 8226 8226 8225 8227 8226 8228 8224 8227 8223 8227 8225 8226 8226 8229 8226 8225 8226 8223 8221 8222 8225 8225 8226 8225 8227 8226 8227 8221 8222 8225 8228 8228 8228 8228 8226 8219 8222 
8230 8229 8230 8222 8227 8231 8225 8229 8225 8224 8223 8231 8222 8220 8222 8221 8218 8222 8224 8221 8221 8220 8208 8183 8176 8173 8184 8215 8220 8209 8183 8179 8173 8176 8171 8182 8197 8184 8179 8184 8201 8189 8184 8215 8223 8219 8226 8223 8227 8224 8227 8224 8224 8225 8228 8229 8226 8227 8227 8224 8224 8223 8225 8223 8228 8227 8227 8225 8224 8225 8224 8221 8221 8225 8231 8229 8227 8225 8218 8221 
8224 8225 8227 8222 8224 8227 8225 8225 8229 8222 8225 8226 8224 8222 8224 8223 8221 8220 8223 8215 8208 8203 8189 8179 8176 8184 8189 8192 8189 8188 8179 8179 8177 8181 8183 8179 8183 8176 8175 8172 8176 8181 8179 8189 8189 8193 8200 8202 8212 8218 8225 8224 8226 8226 8228 8229 8232 8229 8228 8225 8227 8224 8228 8225 8230 8228 8222 8226 8226 8225 8225 8223 8225 8224 8230 8228 8228 8224 8223 8220 
8225 8226 8222 8222 8228 8225 8228 8224 8231 8228 8227 8225 8226 8226 8222 8220 8219 8212 8191 8186 8183 8181 8178 8177 8178 8183 8181 8183 8184 8184 8176 8176 8181 8184 8183 8186 8186 8180 8173 8171 8173 8179 8185 8185 8188 8186 8191 8190 8193 8220 8223 8226 8227 8225 8227 8229 8227 8227 8226 8227 8228 8229 8228 8227 8228 8229 8225 8225 8227 8225 8224 8226 8226 8230 8229 8229 8230 8227 8223 8219 
8222 8229 8228 8221 8226 8225 8226 8224 8225 8229 8228 8229 8227 8228 8223 8219 8217 8208 8187 8183 8183 8178 8173 8178 8179 8181 8180 8184 8186 8182 8175 8177 8179 8182 8180 8181 8178 8176 8174 8175 8174 8178 8181 8188 8186 8189 8192 8195 8192 8200 8211 8221 8226 8227 8226 8227 8228 8230 8227 8229 8228 8228 8227 8232 8228 8227 8224 8226 8228 8225 8226 8225 8226 8227 8230 8230 8233 8230 8224 8221 
8229 8233 8230 8226 8223 8227 8229 8226 8223 8227 8226 8228 8227 8228 8224 8220 8222 8219 8192 8188 8203 8206 8194 8180 8177 8181 8180 8182 8179 8178 8177 8178 8179 8181 8177 8177 8175 8174 8174 8172 8179 8182 8184 8188 8190 8189 8193 8187 8191 8195 8215 8220 8224 8226 8227 8232 8227 8227 8229 8227 8226 8229 8229 8229 8230 8228 8222 8227 8227 8224 8227 8227 8229 8228 8230 8230 8230 8228 8223 8225 
8227 8227 8229 8226 8228 8228 8230 8226 8225 8227 8228 8226 8228 8225 8223 8229 8224 8223 8196 8187 8191 8211 8204 8191 8186 8188 8184 8183 8186 8187 8183 8187 8191 8188 8184 8185 8183 8183 8182 8181 8180 8182 8183 8187 8188 8189 8189 8188 8192 8195 8218 8225 8224 8227 8225 8229 8228 8226 8224 8228 8227 8228 8227 8228 8230 8228 8226 8230 8228 8227 8226 8227 8231 8231 8227 8230 8231 8228 8225 8223 
8228 8229 8230 8223 8225 8232 8231 8225 8225 8225 8223 8229 8228 8228 8224 8226 8225 8222 8202 8187 8187 8190 8185 8188 8189 8187 8186 8187 8190 8188 8189 8189 8192 8190 8187 8189 8186 8183 8183 8180 8183 8181 8185 8187 8188 8187 8190 8186 8188 8198 8221 8225 8226 8226 8223 8226 8225 8228 8228 8226 8225 8224 8226 8226 8226 8225 8228 8228 8224 8226 8226 8227 8229 8228 8229 8229 8229 8228 8221 8224 
8224 8230 8225 8228 8226 8231 8230 8231 8235 8235 8232 8231 8229 8227 8227 8226 8230 8227 8214 8194 8190 8193 8185 8192 8193 8198 8198 8190 8191 8190 8188 8195 8193 8195 8190 8193 8188 8186 8182 8182 8185 8185 8183 8187 8185 8187 8189 8184 8195 8217 8227 8225 8225 8225 8227 8227 8224 8225 8230 8226 8225 8226 8226 8228 8226 8226 8228 8226 8226 8229 8228 8229 8230 8231 8233 8231 8230 8230 8220 8221 
8222 8229 8228 8224 8227 8230 8233 8232 8229 8232 8231 8230 8231 8227 8229 8228 8227 8228 8223 8210 8196 8196 8187 8190 8195 8207 8209 8197 8191 8185 8196 8197 8193 8194 8191 8193 8190 8186 8183 8186 8187 8190 8185 8187 8186 8184 8188 8189 8211 8227 8226 8224 8228 8228 8229 8227 8225 8225 8225 8223 8226 8226 8228 8226 8226 8229 8227 8226 8226 8229 8226 8231 8232 8233 8234 8232 8230 8229 8221 8217 
8224 8224 8228 8226 8227 8231 8233 8232 8234 8229 8231 8234 8228 8231 8228 8228 8225 8228 8225 8218 8199 8184 8187 8187 8191 8197 8204 8200 8193 8192 8193 8198 8196 8198 8193 8194 8193 8191 8186 8189 8188 8185 8185 8187 8187 8185 8190 8192 8217 8228 8225 8226 8231 8230 8227 8228 8227 8228 8229 8225 8229 8227 8225 8227 8226 8229 8225 8225 8229 8231 8227 8232 8235 8234 8236 8233 8230 8228 8221 8224 
8224 8222 8221 8222 8228 8225 8233 8230 8228 8229 8232 8229 8230 8230 8230 8229 8226 8229 8226 8218 8204 8195 8194 8194 8191 8195 8212 8211 8201 8198 8197 8199 8196 8198 8193 8195 8195 8194 8189 8192 8190 8190 8188 8189 8189 8188 8196 8196 8220 8226 8230 8228 8228 8229 8226 8230 8227 8226 8224 8228 8229 8228 8227 8227 8226 8227 8227 8231 8234 8234 8229 8230 8234 8236 8234 8232 8236 8225 8223 8226 
8219 8222 8220 8222 8226 8225 8226 8231 8224 8224 8230 8229 8230 8233 8230 8228 8224 8227 8226 8221 8200 8201 8213 8201 8193 8200 8214 8222 8210 8198 8196 8197 8197 8197 8191 8194 8193 8196 8194 8196 8194 8190 8191 8192 8190 8191 8193 8195 8219 8226 8228 8225 8227 8230 8226 8226 8229 8225 8228 8228 8227 8228 8229 8226 8227 8228 8230 8234 8233 8235 8235 8233 8235 8233 8234 8234 8231 8228 8222 8226 
8216 8217 8219 8220 8219 8221 8224 8234 8232 8227 8222 8227 8226 8227 8232 8225 8225 8228 8224 8224 8204 8196 8221 8213 8197 8197 8207 8219 8207 8196 8197 8195 8195 8194 8191 8198 8195 8199 8195 8197 8191 8190 8190 8193 8189 8189 8194 8197 8221 8230 8233 8228 8230 8229 8227 8229 8227 8228 8230 8230 8225 8227 8230 8227 8227 8229 8226 8232 8235 8235 8234 8235 8234 8235 8235 8233 8228 8227 8223 8227 
8200 8204 8206 8210 8216 8219 8223 8230 8218 8225 8225 8226 8228 8227 8233 8231 8226 8228 8227 8224 8205 8194 8209 8212 8201 8193 8197 8202 8200 8199 8195 8193 8194 8195 8195 8197 8196 8199 8195 8196 8193 8193 8191 8195 8190 8191 8193 8202 8226 8231 8232 8227 8229 8230 8226 8229 8230 8227 8229 8230 8230 8225 8230 8230 8229 8226 8227 8232 8232 8235 8235 8235 8234 8236 8233 8232 8230 8227 8218 8223 
8199 8206 8202 8202 8204 8207 8208 8209 8209 8217 8217 8224 8221 8224 8224 8227 8223 8223 8228 8225 8210 8189 8192 8199 8199 8192 8192 8191 8200 8195 8192 8193 8194 8198 8198 8200 8198 8200 8195 8194 8194 8191 8193 8195 8193 8191 8192 8203 8229 8233 8232 8230 8229 8231 8228 8228 8227 8224 8228 8232 8229 8228 8230 8231 8228 8227 8230 8228 8234 8230 8230 8235 8234 8233 8236 8233 8229 8229 8222 8224 
8199 8205 8200 8201 8200 8200 8198 8194 8196 8203 8207 8207 8207 8208 8211 8213 8214 8217 8218 8217 8212 8190 8189 8194 8195 8188 8190 8192 8197 8196 8193 8197 8196 8196 8195 8196 8199 8198 8193 8197 8194 8195 8193 8196 8193 8191 8188 8208 8228 8232 8231 8229 8226 8228 8225 8226 8227 8227 8225 8228 8230 8229 8226 8226 8228 8228 8227 8228 8232 8232 8233 8233 8231 8232 8230 8232 8228 8226 8220 8225 
8200 8202 8200 8196 8200 8194 8197 8194 8197 8199 8200 8199 8204 8203 8202 8199 8201 8206 8205 8208 8205 8191 8192 8194 8193 8189 8186 8192 8197 8195 8192 8196 8196 8193 8192 8196 8199 8197 8194 8193 8192 8197 8194 8194 8191 8189 8193 8204 8217 8227 8226 8223 8225 8227 8224 8228 8229 8225 8224 8223 8227 8226 8225 8228 8226 8228 8229 8232 8231 8231 8233 8232 8231 8231 8233 8227 8227 8222 8220 8218 
8204 8210 8199 8193 8197 8193 8192 8190 8191 8198 8194 8196 8196 8200 8198 8196 8195 8193 8198 8197 8195 8189 8187 8194 8192 8189 8186 8190 8195 8196 8192 8197 8192 8195 8191 8194 8196 8197 8192 8194 8188 8187 8187 8192 8189 8189 8191 8196 8200 8208 8218 8224 8223 8222 8224 8223 8223 8224 8226 8223 8226 8225 8227 8226 8224 8226 8226 8230 8230 8231 8230 8229 8226 8226 8225 8227 8224 8220 8215 8221 
8210 8201 8190 8187 8193 8189 8188 8188 8195 8192 8191 8194 8191 8194 8194 8189 8190 8188 8194 8190 8187 8183 8182 8187 8190 8188 8188 8188 8193 8193 8188 8193 8192 8191 8189 8192 8194 8192 8192 8192 8192 8184 8186 8188 8183 8185 8187 8191 8195 8197 8203 8211 8216 8221 8216 8217 8219 8217 8217 8218 8222 8222 8225 8223 8222 8220 8225 8232 8228 8230 8228 8229 8226 8224 8227 8224 8224 8222 8215 8221 
8216 8198 8192 8189 8192 8190 8188 8189 8189 8189 8189 8190 8190 8189 8185 8184 8184 8188 8189 8184 8180 8179 8180 8185 8185 8186 8180 8181 8189 8190 8184 8188 8186 8185 8184 8183 8181 8183 8184 8186 8182 8178 8179 8178 8178 8183 8185 8192 8196 8197 8201 8203 8209 8213 8209 8210 8207 8210 8206 8208 8211 8205 8210 8211 8213 8211 8219 8226 8227 8222 8220 8223 8218 8221 8223 8218 8222 8219 8214 8217 


