P2
80 60
8288
8234 8236 8242 8244 8250 8246 8243 8243 8242 8241 8245 8250 8252 8249 8254 8253 8252 8252 8247 8246 8249 8251 8254 8250 8242 8240 8236 8231 8235 8236 8239 8239 8244 8253 8257 8263 8269 8269 8269 8267 8272 8269 8267 8261 8254 8247 8246 8242 8237 8233 8231 8225 8221 8219 8216 8211 8210 8213 8214 8217 8219 8218 8215 8212 8214 8213 8211 8211 8209 8209 8213 8218 8223 8225 8227 8231 8232 8235 8231 8223 
8227 8237 8243 8246 8246 8246 8243 8241 8241 8243 8244 8249 8250 8253 8253 8255 8254 8249 8248 8248 8248 8252 8254 8250 8243 8239 8234 8236 8235 8237 8239 8244 8249 8259 8262 8265 8269 8271 8269 8270 8274 8272 8272 8271 8263 8258 8251 8250 8244 8239 8233 8227 8225 8221 8217 8215 8212 8212 8217 8214 8217 8218 8217 8212 8214 8208 8213 8212 8208 8208 8208 8220 8223 8228 8230 8232 8231 8230 8229 8225 
8231 8236 8243 8244 8248 8248 8243 8244 8243 8243 8243 8252 8251 8254 8252 8251 8252 8250 8249 8246 8250 8252 8253 8249 8244 8237 8235 8237 8233 8239 8243 8247 8253 8263 8268 8268 8267 8269 8270 8272 8272 8272 8274 8273 8267 8264 8261 8258 8248 8245 8239 8230 8223 8223 8219 8216 8214 8219 8218 8216 8218 8217 8220 8217 8214 8212 8214 8213 8211 8209 8210 8218 8226 8227 8227 8232 8229 8233 8230 8229 
8229 8238 8243 8244 8251 8252 8251 8248 8247 8246 8248 8252 8254 8255 8255 8251 8252 8253 8248 8247 8253 8255 8255 8249 8244 8240 8237 8239 8236 8243 8246 8248 8254 8263 8271 8270 8272 8273 8275 8276 8274 8275 8274 8274 8270 8266 8266 8262 8257 8252 8246 8237 8229 8224 8219 8220 8216 8218 8218 8217 8221 8220 8219 8218 8217 8213 8215 8214 8212 8210 8210 8219 8226 8226 8228 8229 8227 8237 8235 8224 
8232 8242 8245 8250 8249 8248 8251 8250 8248 8250 8248 8256 8252 8253 8256 8253 8253 8252 8249 8249 8255 8255 8255 8248 8242 8242 8240 8240 8240 8241 8249 8252 8259 8268 8270 8272 8272 8275 8278 8274 8272 8272 8274 8273 8274 8270 8270 8270 8266 8260 8259 8247 8236 8231 8227 8223 8217 8223 8221 8221 8224 8225 8224 8218 8220 8215 8215 8216 8211 8213 8213 8221 8227 8227 8226 8228 8232 8236 8231 8225 
8238 8246 8253 8250 8253 8254 8252 8252 8253 8250 8251 8255 8253 8255 8254 8256 8252 8253 8255 8253 8255 8253 8256 8245 8244 8242 8240 8241 8240 8243 8252 8257 8262 8266 8268 8267 8272 8276 8267 8252 8247 8256 8268 8274 8270 8271 8272 8272 8268 8266 8263 8257 8248 8239 8234 8227 8223 8228 8227 8227 8227 8226 8224 8221 8217 8216 8216 8216 8213 8213 8212 8216 8225 8224 8225 8226 8231 8234 8230 8225 
8246 8252 8251 8252 8255 8257 8254 8255 8256 8254 8251 8254 8254 8257 8256 8258 8254 8257 8256 8253 8256 8255 8254 8250 8244 8244 8245 8242 8241 8247 8253 8258 8264 8271 8271 8271 8271 8270 8245 8162 8144 8173 8222 8261 8270 8272 8273 8273 8272 8269 8267 8258 8250 8246 8242 8240 8235 8235 8239 8234 8235 8228 8227 8224 8223 8219 8218 8213 8214 8211 8213 8211 8220 8224 8222 8226 8230 8234 8226 8222 
8249 8253 8253 8252 8256 8253 8253 8258 8255 8254 8253 8257 8256 8256 8255 8258 8255 8257 8256 8255 8259 8256 8252 8248 8243 8246 8246 8241 8240 8246 8253 8260 8266 8272 8270 8267 8269 8267 8196 8123 8118 8119 8129 8214 8266 8271 8275 8274 8272 8272 8263 8262 8252 8252 8248 8246 8246 8249 8246 8244 8241 8236 8233 8228 8226 8221 8220 8217 8212 8214 8211 8212 8215 8217 8223 8229 8225 8231 8226 8216 
8251 8251 8257 8254 8252 8256 8256 8255 8256 8254 8252 8256 8256 8256 8254 8255 8253 8257 8256 8255 8256 8252 8252 8248 8244 8246 8242 8241 8231 8234 8251 8258 8264 8268 8266 8266 8267 8266 8187 8120 8114 8115 8115 8192 8264 8269 8272 8272 8269 8270 8264 8263 8256 8253 8250 8249 8247 8251 8252 8254 8251 8245 8242 8235 8234 8225 8223 8219 8216 8212 8210 8211 8214 8217 8220 8225 8224 8227 8221 8208 
8253 8253 8254 8250 8249 8253 8253 8256 8252 8254 8251 8257 8256 8254 8254 8256 8253 8256 8256 8257 8258 8252 8251 8249 8246 8245 8243 8237 8184 8162 8210 8245 8258 8263 8263 8263 8262 8262 8225 8131 8115 8115 8115 8196 8254 8262 8261 8263 8267 8265 8264 8262 8253 8254 8251 8250 8250 8252 8258 8257 8258 8255 8251 8244 8243 8239 8233 8227 8218 8216 8214 8212 8214 8217 8221 8223 8224 8225 8214 8195 
8250 8254 8253 8250 8252 8255 8256 8253 8250 8252 8253 8260 8254 8257 8257 8257 8254 8256 8256 8257 8257 8254 8251 8246 8246 8247 8245 8231 8150 8130 8139 8174 8234 8261 8258 8260 8258 8257 8251 8176 8117 8115 8123 8174 8198 8208 8187 8207 8230 8255 8262 8259 8253 8249 8254 8249 8250 8252 8258 8258 8255 8256 8259 8252 8254 8247 8245 8239 8230 8225 8221 8218 8211 8214 8216 8219 8220 8220 8202 8188 
8250 8248 8253 8252 8253 8253 8253 8254 8253 8254 8256 8260 8258 8263 8262 8266 8261 8265 8260 8257 8261 8253 8255 8253 8251 8252 8248 8212 8133 8124 8126 8129 8155 8228 8248 8258 8258 8248 8226 8143 8119 8117 8131 8181 8210 8138 8135 8146 8160 8194 8240 8253 8248 8249 8253 8248 8251 8251 8255 8255 8255 8255 8253 8252 8256 8252 8253 8250 8245 8235 8232 8228 8224 8216 8214 8219 8220 8215 8193 8188 
8245 8248 8249 8251 8251 8253 8253 8258 8258 8260 8257 8261 8264 8266 8269 8268 8264 8263 8261 8258 8257 8253 8254 8250 8250 8253 8249 8222 8134 8123 8125 8124 8124 8145 8190 8248 8215 8166 8168 8131 8119 8118 8146 8232 8202 8127 8121 8121 8127 8145 8178 8230 8243 8247 8250 8246 8247 8250 8253 8252 8253 8251 8253 8254 8255 8252 8252 8251 8249 8245 8245 8242 8235 8225 8217 8216 8216 8205 8180 8183 
8247 8248 8250 8251 8254 8258 8257 8260 8259 8258 8256 8263 8265 8267 8264 8268 8264 8263 8262 8259 8254 8251 8251 8254 8249 8251 8248 8235 8147 8126 8124 8123 8125 8136 8191 8163 8130 8122 8121 8195 8133 8144 8152 8164 8124 8116 8112 8104 8101 8110 8137 8179 8232 8243 8247 8244 8243 8245 8249 8249 8251 8249 8250 8249 8252 8248 8248 8248 8245 8247 8246 8246 8243 8230 8215 8211 8208 8192 8180 8180 
8244 8249 8252 8256 8261 8259 8255 8260 8261 8260 8257 8267 8266 8266 8266 8265 8261 8263 8261 8254 8254 8251 8250 8252 8249 8250 8246 8245 8198 8137 8131 8131 8131 8128 8145 8161 8158 8124 8115 8140 8151 8168 8140 8129 8118 8119 8117 8112 8110 8107 8120 8185 8233 8241 8244 8245 8242 8246 8249 8246 8250 8251 8249 8248 8249 8246 8246 8247 8246 8246 8245 8243 8239 8237 8217 8210 8196 8189 8186 8187 
8249 8252 8257 8258 8260 8259 8259 8258 8259 8258 8261 8267 8265 8266 8263 8263 8259 8260 8258 8253 8251 8250 8253 8253 8249 8248 8246 8244 8244 8224 8190 8160 8129 8130 8220 8240 8148 8118 8116 8122 8134 8135 8147 8130 8118 8113 8117 8117 8117 8120 8122 8179 8230 8239 8242 8244 8243 8243 8246 8246 8247 8244 8245 8244 8246 8243 8243 8248 8247 8245 8243 8246 8243 8239 8219 8201 8183 8186 8191 8191 
8251 8253 8259 8255 8253 8256 8258 8257 8258 8257 8255 8261 8266 8261 8261 8262 8261 8256 8251 8250 8249 8247 8246 8247 8241 8243 8242 8243 8247 8252 8249 8240 8173 8159 8239 8235 8124 8113 8114 8120 8127 8132 8123 8126 8121 8124 8122 8118 8119 8118 8121 8144 8223 8236 8242 8243 8240 8240 8242 8237 8239 8229 8228 8231 8237 8241 8246 8243 8245 8246 8246 8246 8245 8238 8215 8186 8178 8187 8197 8194 
8250 8252 8252 8249 8248 8250 8253 8252 8251 8252 8254 8259 8257 8258 8257 8255 8256 8254 8254 8249 8247 8245 8244 8236 8206 8186 8199 8226 8240 8231 8192 8159 8158 8168 8201 8220 8126 8113 8114 8120 8125 8126 8122 8126 8162 8207 8176 8168 8140 8119 8122 8134 8214 8237 8241 8240 8238 8239 8237 8207 8178 8166 8167 8185 8221 8237 8240 8242 8243 8242 8243 8245 8243 8238 8223 8193 8184 8195 8205 8197 
8254 8254 8252 8247 8250 8250 8252 8251 8251 8250 8254 8260 8256 8253 8256 8254 8251 8250 8251 8246 8245 8244 8237 8185 8137 8130 8129 8141 8201 8153 8141 8129 8134 8137 8121 8142 8160 8114 8110 8113 8120 8114 8117 8124 8138 8164 8136 8141 8138 8135 8135 8133 8183 8216 8232 8234 8234 8229 8194 8145 8145 8148 8153 8158 8186 8227 8240 8238 8241 8238 8238 8238 8236 8234 8224 8200 8189 8202 8213 8207 
8259 8253 8253 8248 8249 8251 8253 8255 8255 8252 8256 8258 8257 8255 8256 8254 8251 8254 8246 8244 8243 8239 8195 8144 8127 8123 8127 8126 8144 8166 8153 8123 8123 8119 8115 8117 8147 8119 8131 8120 8119 8116 8120 8117 8111 8107 8110 8108 8109 8114 8128 8130 8133 8152 8169 8202 8213 8177 8149 8144 8147 8150 8162 8164 8176 8218 8238 8236 8237 8235 8233 8231 8228 8224 8221 8207 8196 8205 8217 8212 
8259 8257 8255 8251 8253 8254 8249 8252 8254 8253 8253 8261 8258 8259 8257 8256 8252 8247 8245 8240 8239 8224 8162 8146 8131 8128 8127 8131 8203 8225 8155 8120 8118 8117 8113 8115 8127 8120 8124 8118 8115 8111 8114 8108 8103 8105 8109 8108 8108 8111 8119 8129 8129 8137 8145 8152 8153 8152 8148 8156 8159 8162 8167 8169 8175 8201 8239 8242 8237 8232 8229 8224 8222 8220 8214 8211 8200 8211 8226 8219 
8262 8257 8256 8259 8254 8255 8254 8255 8254 8254 8256 8264 8262 8259 8257 8258 8250 8251 8242 8240 8238 8215 8159 8151 8136 8131 8131 8164 8178 8153 8148 8118 8115 8117 8115 8113 8109 8104 8116 8108 8111 8115 8114 8111 8108 8107 8111 8113 8118 8118 8121 8124 8129 8136 8143 8153 8157 8165 8165 8162 8164 8162 8167 8172 8177 8189 8232 8242 8239 8236 8231 8224 8220 8217 8214 8210 8207 8211 8229 8228 
8259 8260 8263 8257 8256 8255 8255 8255 8255 8256 8257 8263 8260 8260 8259 8256 8249 8245 8237 8240 8237 8218 8171 8154 8149 8151 8173 8178 8128 8119 8131 8125 8114 8116 8114 8107 8105 8098 8104 8105 8111 8117 8120 8122 8115 8113 8116 8120 8121 8123 8126 8125 8135 8175 8192 8210 8162 8164 8168 8166 8161 8162 8161 8168 8172 8185 8228 8237 8239 8241 8236 8233 8228 8221 8217 8211 8209 8217 8234 8236 
8264 8261 8261 8259 8260 8259 8258 8259 8257 8256 8256 8262 8261 8260 8258 8255 8249 8246 8239 8234 8234 8220 8162 8163 8193 8190 8170 8130 8117 8111 8119 8132 8118 8115 8112 8099 8098 8098 8111 8108 8114 8125 8129 8127 8122 8136 8127 8127 8131 8129 8131 8166 8212 8224 8229 8224 8189 8163 8169 8171 8170 8162 8164 8168 8170 8186 8228 8237 8236 8238 8235 8233 8234 8228 8222 8217 8211 8224 8241 8237 
8261 8263 8265 8261 8262 8261 8260 8258 8257 8260 8258 8266 8260 8260 8258 8253 8248 8244 8241 8234 8224 8188 8153 8152 8163 8131 8122 8115 8110 8109 8114 8114 8115 8115 8109 8105 8100 8100 8113 8114 8122 8129 8134 8134 8137 8148 8119 8131 8134 8138 8140 8178 8221 8229 8232 8234 8217 8164 8167 8176 8177 8172 8170 8173 8169 8191 8229 8236 8235 8235 8236 8235 8232 8232 8230 8226 8224 8232 8245 8241 
8267 8266 8269 8267 8267 8263 8259 8259 8260 8262 8260 8264 8259 8259 8258 8253 8247 8244 8236 8214 8172 8145 8147 8150 8145 8122 8111 8115 8111 8115 8116 8106 8110 8115 8108 8106 8107 8105 8100 8118 8127 8130 8134 8124 8112 8115 8116 8123 8132 8138 8141 8159 8215 8228 8235 8234 8235 8196 8169 8176 8178 8175 8174 8177 8172 8191 8234 8240 8240 8239 8234 8237 8237 8234 8233 8230 8229 8240 8253 8248 
8269 8267 8268 8265 8263 8265 8260 8263 8258 8259 8260 8264 8262 8262 8256 8249 8243 8244 8230 8167 8143 8150 8147 8148 8145 8121 8103 8107 8116 8120 8111 8106 8111 8115 8107 8110 8112 8114 8101 8104 8115 8115 8107 8107 8111 8115 8119 8119 8125 8138 8137 8125 8157 8222 8235 8235 8237 8235 8184 8171 8176 8173 8172 8179 8178 8195 8231 8241 8243 8241 8242 8241 8240 8239 8236 8239 8236 8245 8254 8248 
8268 8269 8270 8267 8265 8263 8263 8262 8259 8259 8258 8257 8254 8255 8254 8250 8241 8241 8228 8155 8146 8146 8149 8153 8144 8123 8115 8117 8135 8133 8110 8107 8118 8115 8111 8114 8118 8114 8108 8110 8114 8112 8104 8106 8107 8111 8117 8119 8121 8130 8131 8117 8122 8199 8234 8236 8239 8243 8221 8170 8170 8170 8174 8175 8184 8181 8213 8240 8245 8242 8242 8242 8239 8243 8239 8243 8240 8244 8254 8251 
8268 8270 8266 8265 8265 8263 8264 8263 8259 8259 8242 8211 8220 8225 8230 8229 8225 8222 8207 8154 8149 8153 8172 8191 8174 8132 8127 8120 8129 8136 8118 8115 8123 8119 8116 8120 8121 8111 8110 8115 8118 8115 8101 8101 8102 8109 8118 8121 8120 8125 8124 8120 8118 8175 8231 8238 8240 8243 8239 8189 8164 8169 8171 8168 8174 8178 8205 8240 8246 8247 8248 8247 8245 8247 8245 8244 8242 8243 8253 8252 
8268 8269 8268 8266 8267 8267 8264 8264 8260 8258 8210 8145 8142 8139 8144 8143 8144 8158 8173 8188 8202 8215 8230 8231 8180 8141 8133 8135 8126 8127 8139 8131 8146 8124 8124 8123 8122 8115 8116 8122 8118 8114 8107 8107 8102 8110 8124 8125 8124 8128 8131 8134 8134 8151 8228 8238 8236 8239 8233 8211 8163 8163 8171 8169 8177 8207 8238 8246 8247 8248 8247 8251 8253 8249 8248 8248 8245 8243 8255 8251 
8267 8267 8268 8266 8266 8266 8263 8264 8260 8255 8208 8144 8138 8134 8139 8140 8146 8153 8202 8223 8226 8218 8214 8200 8173 8160 8148 8133 8122 8128 8127 8123 8123 8128 8130 8128 8128 8112 8106 8115 8112 8116 8123 8120 8114 8113 8134 8144 8135 8140 8163 8184 8174 8180 8222 8225 8204 8165 8145 8158 8180 8165 8170 8180 8220 8243 8250 8249 8250 8249 8253 8253 8254 8255 8253 8253 8247 8247 8252 8251 
8265 8267 8267 8266 8267 8265 8264 8263 8263 8255 8207 8144 8141 8139 8142 8144 8147 8171 8223 8220 8172 8145 8149 8155 8158 8161 8172 8151 8130 8133 8132 8121 8113 8116 8134 8133 8129 8112 8107 8114 8124 8129 8138 8139 8122 8110 8112 8141 8169 8179 8191 8201 8185 8167 8168 8148 8127 8122 8119 8130 8178 8176 8191 8230 8249 8250 8250 8250 8250 8253 8254 8252 8259 8257 8258 8256 8254 8250 8248 8259 
8266 8263 8270 8266 8265 8267 8266 8264 8260 8257 8217 8151 8143 8136 8141 8140 8145 8207 8221 8170 8142 8143 8156 8164 8166 8181 8192 8164 8133 8130 8128 8120 8110 8115 8125 8131 8130 8128 8122 8120 8137 8142 8149 8148 8136 8112 8104 8111 8138 8169 8179 8177 8165 8143 8133 8127 8122 8120 8121 8123 8178 8229 8242 8249 8250 8251 8248 8250 8251 8250 8255 8257 8256 8260 8261 8259 8259 8255 8251 8253 
8264 8267 8272 8269 8268 8266 8267 8265 8262 8257 8235 8159 8143 8143 8146 8142 8152 8222 8204 8152 8152 8159 8166 8161 8158 8180 8184 8161 8132 8123 8121 8118 8109 8119 8126 8122 8128 8136 8138 8142 8146 8149 8153 8149 8148 8128 8108 8108 8118 8170 8186 8186 8186 8174 8165 8149 8136 8128 8125 8127 8157 8235 8249 8249 8250 8248 8248 8248 8251 8252 8254 8255 8258 8261 8261 8259 8262 8260 8253 8255 
8271 8272 8268 8270 8271 8268 8266 8264 8261 8257 8251 8197 8147 8145 8146 8138 8168 8202 8180 8165 8171 8164 8166 8157 8152 8160 8157 8143 8130 8123 8122 8118 8108 8133 8142 8139 8137 8145 8146 8151 8146 8143 8148 8150 8151 8141 8115 8112 8118 8155 8171 8173 8185 8182 8181 8198 8159 8133 8130 8129 8139 8204 8244 8247 8249 8249 8250 8250 8250 8252 8251 8253 8258 8258 8259 8263 8262 8262 8254 8252 
8275 8273 8274 8273 8271 8272 8268 8264 8264 8257 8256 8228 8156 8144 8147 8139 8179 8155 8163 8170 8172 8167 8165 8150 8146 8149 8149 8151 8141 8127 8126 8122 8107 8117 8122 8131 8135 8137 8146 8147 8144 8137 8132 8147 8149 8143 8118 8116 8116 8154 8167 8172 8186 8186 8177 8214 8211 8143 8128 8132 8138 8163 8236 8246 8250 8249 8250 8249 8249 8250 8252 8255 8258 8258 8262 8262 8265 8261 8254 8249 
8272 8275 8279 8274 8271 8271 8268 8265 8262 8259 8255 8249 8168 8146 8146 8145 8206 8183 8174 8172 8177 8178 8179 8154 8154 8157 8159 8158 8145 8133 8134 8117 8113 8106 8099 8099 8109 8121 8122 8112 8108 8106 8106 8136 8147 8142 8121 8118 8126 8158 8169 8173 8190 8189 8181 8210 8229 8205 8141 8137 8149 8159 8230 8245 8248 8247 8251 8251 8251 8253 8254 8252 8254 8260 8260 8262 8262 8260 8252 8246 
8272 8280 8279 8275 8273 8272 8271 8265 8262 8261 8257 8254 8191 8147 8149 8157 8221 8229 8222 8215 8225 8227 8198 8167 8165 8163 8161 8162 8148 8138 8137 8124 8106 8099 8097 8094 8090 8100 8112 8102 8103 8107 8108 8135 8143 8132 8122 8121 8137 8167 8177 8183 8196 8197 8187 8212 8232 8234 8209 8191 8186 8192 8240 8246 8250 8249 8250 8249 8254 8253 8251 8254 8252 8257 8257 8261 8262 8260 8252 8251 
8278 8276 8278 8275 8272 8275 8269 8263 8261 8258 8258 8254 8209 8149 8151 8173 8229 8232 8235 8228 8233 8231 8200 8168 8165 8166 8165 8162 8157 8149 8151 8126 8108 8107 8095 8096 8092 8102 8119 8118 8108 8110 8102 8116 8142 8129 8124 8129 8143 8165 8183 8192 8200 8201 8192 8215 8235 8241 8241 8247 8244 8243 8249 8248 8248 8248 8250 8251 8249 8255 8254 8255 8252 8255 8255 8258 8261 8262 8250 8250 
8279 8284 8279 8273 8272 8273 8270 8267 8264 8260 8256 8255 8203 8149 8155 8173 8230 8236 8232 8232 8237 8236 8200 8173 8167 8164 8162 8161 8158 8157 8152 8134 8128 8109 8103 8101 8102 8111 8121 8130 8116 8097 8101 8107 8136 8141 8137 8149 8169 8177 8188 8202 8205 8208 8197 8221 8235 8243 8246 8247 8249 8247 8248 8246 8249 8248 8248 8248 8251 8253 8255 8253 8254 8256 8256 8258 8258 8257 8248 8247 
8280 8283 8277 8271 8272 8269 8270 8266 8264 8259 8257 8252 8206 8162 8161 8176 8230 8234 8234 8237 8236 8235 8210 8174 8163 8161 8159 8154 8156 8152 8147 8133 8121 8116 8110 8109 8113 8127 8125 8128 8122 8116 8107 8112 8141 8150 8147 8165 8184 8193 8197 8215 8221 8217 8207 8230 8235 8242 8245 8246 8249 8245 8247 8247 8251 8248 8250 8248 8249 8251 8249 8250 8254 8256 8255 8256 8255 8253 8247 8247 
8277 8283 8277 8272 8268 8267 8266 8264 8262 8258 8254 8259 8249 8236 8217 8226 8234 8234 8233 8234 8236 8234 8232 8182 8158 8162 8159 8156 8148 8136 8135 8140 8124 8120 8118 8117 8122 8143 8141 8140 8135 8136 8136 8134 8158 8165 8171 8181 8191 8198 8210 8234 8242 8224 8219 8233 8236 8243 8244 8245 8250 8246 8247 8245 8248 8245 8246 8244 8243 8246 8248 8250 8252 8249 8255 8255 8253 8257 8244 8246 
8278 8278 8275 8270 8268 8266 8264 8263 8261 8259 8255 8259 8254 8248 8243 8242 8239 8236 8234 8233 8238 8237 8237 8199 8160 8166 8163 8152 8131 8130 8140 8143 8133 8126 8126 8133 8138 8153 8149 8146 8148 8143 8144 8142 8143 8167 8181 8196 8207 8208 8222 8243 8239 8214 8230 8238 8239 8239 8243 8248 8248 8248 8247 8246 8249 8242 8245 8243 8242 8244 8247 8251 8250 8250 8255 8253 8254 8251 8245 8243 
8278 8279 8272 8268 8267 8264 8262 8258 8260 8258 8255 8256 8253 8247 8244 8241 8239 8234 8237 8233 8238 8238 8238 8214 8167 8170 8166 8149 8128 8136 8150 8151 8137 8131 8140 8152 8137 8153 8154 8150 8146 8142 8146 8144 8144 8154 8193 8217 8226 8224 8230 8237 8225 8218 8237 8237 8240 8242 8246 8246 8249 8249 8249 8244 8248 8244 8245 8245 8240 8242 8246 8251 8249 8254 8251 8253 8251 8252 8244 8247 
8276 8276 8274 8268 8269 8264 8263 8260 8261 8257 8255 8258 8254 8250 8246 8243 8243 8237 8235 8238 8238 8240 8241 8231 8185 8187 8170 8160 8136 8148 8157 8155 8144 8135 8151 8151 8129 8136 8148 8158 8146 8147 8146 8142 8144 8154 8200 8232 8238 8234 8231 8229 8217 8233 8239 8239 8241 8242 8246 8248 8248 8248 8248 8247 8250 8245 8243 8242 8242 8242 8247 8247 8253 8250 8255 8256 8259 8256 8247 8244 
8276 8276 8274 8269 8266 8265 8267 8260 8260 8258 8253 8252 8252 8248 8249 8246 8240 8241 8236 8238 8240 8240 8245 8241 8199 8189 8180 8175 8150 8151 8158 8155 8153 8144 8153 8132 8124 8127 8130 8149 8147 8148 8145 8141 8141 8157 8226 8243 8244 8239 8231 8218 8230 8240 8242 8238 8241 8243 8248 8248 8250 8250 8248 8246 8248 8243 8246 8245 8247 8245 8248 8250 8249 8250 8253 8259 8260 8257 8250 8248 
8276 8275 8272 8267 8270 8267 8264 8262 8259 8259 8253 8253 8250 8249 8248 8246 8243 8242 8238 8238 8240 8242 8244 8243 8219 8189 8186 8182 8167 8152 8154 8155 8157 8153 8132 8123 8122 8128 8128 8138 8145 8144 8134 8136 8135 8170 8239 8255 8247 8236 8219 8228 8238 8239 8241 8241 8244 8248 8246 8248 8249 8252 8251 8247 8247 8244 8246 8246 8244 8242 8246 8247 8251 8251 8254 8255 8257 8254 8250 8246 
8271 8270 8271 8266 8265 8268 8265 8262 8260 8257 8254 8254 8251 8249 8248 8248 8243 8242 8242 8238 8240 8240 8241 8244 8236 8203 8185 8191 8178 8157 8155 8162 8161 8134 8123 8118 8125 8130 8133 8142 8139 8141 8133 8129 8139 8213 8249 8259 8246 8220 8224 8238 8241 8241 8243 8244 8243 8246 8249 8249 8251 8249 8249 8246 8245 8243 8244 8244 8245 8243 8244 8246 8252 8252 8255 8259 8260 8257 8250 8250 
8271 8271 8270 8265 8264 8269 8267 8267 8263 8258 8252 8256 8252 8252 8246 8248 8244 8239 8241 8240 8241 8240 8244 8246 8241 8228 8193 8189 8197 8183 8162 8173 8167 8128 8118 8119 8126 8135 8137 8141 8140 8137 8134 8123 8138 8220 8245 8241 8219 8226 8239 8237 8239 8240 8242 8240 8243 8244 8247 8246 8248 8247 8249 8247 8246 8242 8243 8244 8245 8243 8249 8248 8249 8251 8254 8256 8258 8258 8251 8247 
8269 8271 8269 8265 8270 8268 8268 8264 8262 8261 8257 8255 8250 8250 8247 8247 8244 8243 8240 8240 8240 8239 8241 8244 8242 8243 8223 8191 8195 8214 8206 8185 8171 8158 8131 8124 8137 8159 8151 8145 8143 8141 8136 8121 8118 8163 8216 8220 8230 8234 8240 8238 8238 8239 8242 8241 8244 8246 8246 8247 8248 8247 8248 8244 8244 8239 8241 8243 8243 8243 8247 8248 8252 8255 8256 8257 8260 8260 8256 8247 
8266 8270 8267 8267 8267 8267 8266 8263 8264 8260 8254 8254 8251 8246 8247 8244 8246 8243 8241 8240 8240 8232 8237 8242 8242 8245 8241 8223 8195 8200 8216 8226 8208 8184 8171 8168 8176 8175 8157 8146 8145 8145 8139 8125 8118 8132 8191 8230 8238 8241 8243 8241 8237 8239 8242 8242 8243 8244 8248 8247 8248 8246 8246 8242 8242 8241 8241 8242 8245 8244 8247 8248 8251 8252 8254 8256 8257 8261 8251 8250 
8268 8271 8266 8265 8264 8268 8264 8263 8262 8256 8254 8253 8252 8249 8248 8245 8246 8243 8241 8241 8241 8238 8240 8242 8241 8244 8241 8238 8229 8208 8201 8208 8224 8229 8222 8204 8183 8172 8158 8145 8143 8144 8139 8127 8120 8122 8154 8228 8239 8242 8241 8244 8239 8238 8240 8244 8244 8244 8245 8244 8246 8247 8247 8244 8241 8240 8241 8240 8240 8241 8247 8249 8249 8251 8251 8255 8255 8256 8252 8251 
8267 8270 8268 8267 8268 8269 8265 8267 8261 8260 8254 8253 8252 8250 8248 8247 8247 8245 8243 8240 8242 8241 8240 8243 8239 8243 8244 8243 8240 8239 8230 8213 8206 8207 8213 8215 8205 8183 8160 8149 8150 8156 8143 8130 8126 8131 8162 8233 8244 8242 8246 8243 8239 8239 8241 8244 8246 8246 8247 8245 8248 8248 8248 8244 8243 8238 8239 8240 8244 8243 8247 8248 8248 8250 8253 8252 8256 8259 8250 8249 
8271 8275 8271 8265 8267 8267 8266 8268 8263 8258 8253 8252 8251 8252 8251 8248 8247 8245 8244 8244 8243 8245 8244 8245 8244 8247 8248 8246 8244 8247 8246 8240 8234 8221 8213 8208 8209 8205 8188 8183 8199 8214 8188 8144 8159 8178 8205 8244 8246 8249 8250 8244 8240 8239 8243 8240 8245 8246 8247 8245 8249 8246 8246 8244 8239 8237 8237 8238 8241 8243 8243 8244 8246 8250 8249 8250 8253 8257 8249 8246 
8272 8277 8278 8272 8269 8267 8267 8266 8262 8257 8255 8256 8252 8253 8250 8248 8247 8246 8247 8244 8245 8248 8250 8249 8248 8254 8252 8253 8251 8248 8249 8248 8247 8244 8236 8238 8234 8235 8233 8237 8239 8242 8234 8213 8226 8239 8246 8253 8253 8252 8253 8245 8240 8242 8245 8245 8244 8246 8244 8245 8248 8241 8243 8243 8241 8237 8239 8238 8241 8245 8243 8243 8248 8244 8246 8249 8247 8252 8246 8244 
8272 8281 8278 8270 8270 8267 8267 8265 8263 8261 8255 8258 8254 8250 8251 8250 8246 8244 8246 8245 8252 8249 8250 8254 8253 8256 8256 8258 8256 8254 8254 8250 8247 8245 8240 8235 8241 8238 8242 8242 8246 8245 8247 8245 8242 8245 8251 8257 8254 8251 8250 8243 8240 8245 8246 8241 8242 8244 8244 8246 8243 8246 8241 8241 8236 8237 8238 8238 8236 8238 8240 8241 8244 8242 8243 8242 8244 8250 8240 8240 
8275 8280 8279 8271 8270 8268 8269 8268 8261 8258 8256 8255 8252 8251 8250 8246 8244 8243 8244 8247 8246 8247 8254 8259 8259 8258 8259 8258 8255 8258 8255 8252 8247 8246 8241 8243 8236 8237 8240 8247 8249 8250 8252 8252 8249 8251 8255 8254 8253 8253 8252 8249 8242 8244 8243 8243 8242 8244 8246 8245 8244 8241 8244 8241 8240 8237 8233 8238 8237 8239 8238 8242 8243 8238 8240 8242 8245 8246 8238 8239 
8278 8279 8276 8272 8270 8268 8267 8265 8259 8260 8252 8253 8250 8249 8249 8244 8242 8243 8245 8243 8246 8246 8254 8258 8259 8263 8257 8261 8257 8261 8261 8258 8250 8249 8243 8240 8243 8242 8242 8248 8252 8251 8254 8257 8251 8250 8256 8255 8257 8252 8253 8247 8242 8243 8244 8242 8244 8242 8245 8243 8244 8239 8242 8238 8237 8233 8235 8234 8235 8231 8232 8238 8238 8237 8239 8237 8240 8246 8237 8238 
8284 8280 8276 8270 8266 8266 8265 8262 8258 8255 8253 8253 8252 8249 8245 8244 8245 8240 8244 8239 8245 8249 8253 8259 8264 8266 8263 8262 8262 8266 8263 8262 8257 8253 8248 8243 8242 8243 8247 8251 8256 8257 8257 8259 8256 8254 8259 8258 8257 8255 8256 8245 8245 8243 8244 8244 8244 8242 8243 8239 8242 8241 8236 8234 8234 8231 8231 8231 8229 8232 8232 8233 8233 8235 8235 8236 8238 8242 8240 8237 
8288 8285 8282 8279 8276 8278 8273 8271 8269 8263 8257 8260 8255 8256 8246 8246 8248 8243 8246 8242 8248 8253 8255 8262 8264 8270 8272 8270 8267 8271 8269 8270 8262 8260 8249 8247 8230 8237 8246 8250 8252 8256 8255 8251 8250 8256 8256 8251 8254 8254 8248 8242 8241 8243 8247 8247 8243 8245 8242 8241 8239 8240 8238 8238 8235 8231 8232 8236 8229 8232 8233 8236 8236 8237 8237 8241 8242 8249 8240 8243 


