P2
80 60
8213
8090 8089 8093 8090 8095 8097 8127 8139 8144 8144 8150 8149 8147 8150 8154 8157 8153 8153 8149 8155 8160 8163 8162 8165 8165 8169 8173 8174 8174 8173 8175 8170 8168 8166 8167 8169 8166 8163 8165 8166 8168 8170 8171 8173 8176 8174 8180 8180 8176 8175 8177 8174 8171 8167 8167 8168 8168 8167 8170 8172 8171 8164 8165 8167 8167 8170 8169 8168 8169 8168 8169 8174 8170 8168 8172 8172 8170 8173 8171 8172 
8093 8089 8089 8089 8090 8106 8132 8141 8142 8143 8146 8148 8149 8152 8156 8156 8159 8155 8154 8158 8162 8164 8164 8167 8168 8169 8173 8174 8175 8174 8175 8165 8168 8167 8168 8171 8173 8167 8173 8169 8169 8172 8172 8170 8176 8174 8178 8177 8175 8177 8176 8177 8178 8171 8170 8169 8171 8170 8171 8173 8167 8167 8168 8168 8171 8167 8168 8169 8171 8171 8171 8172 8169 8172 8172 8171 8170 8174 8169 8168 
8095 8093 8092 8091 8099 8125 8137 8143 8143 8146 8145 8153 8156 8156 8156 8156 8157 8157 8159 8162 8164 8167 8165 8165 8169 8169 8172 8174 8174 8175 8174 8170 8167 8168 8170 8174 8175 8169 8171 8172 8172 8173 8169 8173 8173 8175 8176 8178 8173 8173 8177 8178 8176 8171 8172 8170 8173 8175 8171 8172 8171 8167 8165 8166 8165 8168 8168 8170 8170 8170 8171 8176 8173 8176 8174 8172 8170 8173 8167 8169 
8100 8096 8093 8100 8108 8134 8140 8144 8144 8146 8150 8156 8156 8157 8160 8161 8161 8159 8159 8160 8167 8167 8162 8167 8166 8166 8173 8171 8176 8170 8168 8168 8170 8171 8171 8172 8173 8167 8171 8173 8171 8172 8169 8171 8172 8173 8175 8178 8172 8175 8174 8178 8173 8171 8172 8171 8173 8176 8174 8173 8173 8170 8165 8164 8168 8167 8169 8171 8173 8168 8172 8173 8174 8176 8176 8173 8166 8171 8165 8166 
8099 8098 8096 8106 8124 8140 8144 8143 8146 8148 8152 8159 8158 8159 8161 8163 8163 8159 8161 8162 8165 8166 8164 8162 8163 8167 8170 8172 8174 8176 8173 8169 8169 8170 8174 8174 8173 8170 8171 8171 8171 8173 8171 8172 8174 8173 8176 8178 8177 8175 8172 8179 8175 8174 8177 8173 8174 8174 8171 8176 8172 8168 8166 8169 8168 8170 8171 8171 8171 8173 8174 8179 8175 8174 8176 8174 8171 8170 8161 8162 
8100 8100 8098 8111 8130 8143 8142 8147 8144 8149 8153 8159 8157 8159 8160 8161 8158 8159 8159 8165 8167 8164 8166 8160 8163 8168 8169 8171 8174 8171 8175 8170 8169 8174 8171 8175 8174 8171 8171 8171 8174 8175 8175 8172 8174 8175 8176 8177 8175 8177 8178 8177 8176 8176 8175 8175 8177 8174 8171 8171 8172 8168 8168 8171 8170 8171 8171 8172 8174 8176 8171 8177 8176 8178 8177 8177 8171 8170 8165 8155 
8107 8104 8107 8126 8143 8146 8143 8150 8148 8150 8159 8157 8156 8163 8162 8167 8162 8162 8160 8164 8167 8166 8164 8166 8168 8172 8172 8172 8175 8172 8178 8172 8171 8171 8172 8175 8176 8175 8173 8177 8175 8177 8175 8175 8175 8178 8175 8179 8174 8173 8178 8180 8178 8175 8174 8178 8176 8175 8173 8173 8169 8172 8172 8174 8176 8175 8174 8172 8171 8173 8175 8177 8177 8178 8175 8176 8169 8169 8166 8156 
8109 8108 8110 8137 8145 8146 8147 8149 8152 8155 8156 8158 8161 8161 8166 8165 8162 8163 8164 8166 8166 8167 8163 8170 8173 8175 8171 8175 8175 8177 8180 8173 8176 8176 8173 8177 8175 8176 8174 8175 8176 8179 8179 8178 8179 8180 8178 8179 8177 8174 8177 8181 8181 8176 8175 8175 8176 8175 8176 8175 8173 8174 8175 8175 8176 8174 8174 8173 8172 8172 8173 8177 8180 8178 8177 8171 8168 8168 8165 8163 
8112 8113 8118 8145 8149 8149 8147 8150 8154 8158 8159 8160 8161 8164 8164 8167 8165 8164 8165 8167 8170 8165 8168 8171 8171 8173 8176 8174 8176 8177 8180 8176 8178 8175 8177 8177 8177 8176 8175 8174 8176 8177 8179 8181 8181 8178 8183 8178 8177 8178 8178 8183 8181 8176 8175 8176 8175 8176 8174 8174 8177 8178 8177 8178 8179 8179 8179 8175 8175 8174 8173 8179 8176 8176 8174 8175 8171 8169 8160 8158 
8114 8118 8137 8151 8155 8156 8155 8157 8158 8161 8165 8163 8161 8165 8165 8168 8171 8166 8166 8168 8170 8169 8172 8173 8173 8175 8176 8179 8180 8177 8181 8177 8180 8178 8182 8177 8178 8177 8175 8177 8180 8181 8178 8182 8181 8183 8182 8181 8175 8178 8180 8183 8183 8177 8177 8177 8174 8177 8175 8178 8177 8179 8179 8180 8182 8181 8177 8176 8175 8177 8175 8176 8178 8174 8174 8176 8171 8169 8164 8159 
8116 8126 8149 8160 8161 8162 8160 8161 8161 8159 8163 8167 8165 8164 8167 8171 8170 8168 8170 8169 8172 8172 8171 8173 8175 8179 8175 8178 8181 8179 8182 8180 8181 8181 8182 8179 8178 8178 8178 8179 8182 8181 8180 8180 8182 8185 8184 8180 8177 8181 8181 8182 8183 8178 8174 8177 8179 8176 8178 8180 8180 8178 8180 8181 8182 8182 8182 8180 8179 8177 8179 8182 8177 8178 8180 8178 8171 8168 8169 8165 
8120 8140 8161 8166 8167 8164 8163 8163 8162 8166 8170 8173 8168 8166 8169 8169 8169 8170 8171 8174 8175 8170 8171 8178 8176 8178 8178 8179 8183 8182 8185 8182 8182 8186 8183 8181 8180 8178 8179 8182 8181 8181 8178 8184 8182 8182 8186 8181 8180 8181 8182 8181 8184 8181 8177 8178 8177 8175 8177 8177 8182 8180 8179 8183 8183 8185 8187 8184 8185 8185 8184 8188 8185 8184 8183 8179 8176 8171 8170 8165 
8125 8153 8160 8169 8167 8162 8161 8162 8165 8165 8167 8171 8168 8169 8169 8172 8171 8169 8171 8177 8173 8170 8171 8174 8176 8177 8178 8180 8183 8184 8187 8185 8184 8184 8186 8181 8181 8178 8180 8181 8181 8181 8182 8187 8183 8183 8182 8183 8182 8182 8184 8185 8181 8178 8177 8180 8176 8177 8176 8180 8179 8180 8180 8184 8181 8186 8187 8185 8189 8189 8187 8189 8187 8186 8181 8185 8179 8179 8169 8168 
8134 8160 8162 8167 8166 8162 8162 8162 8163 8164 8168 8169 8171 8168 8166 8169 8170 8171 8173 8172 8175 8172 8173 8176 8176 8176 8179 8180 8182 8184 8185 8184 8185 8185 8180 8184 8181 8178 8179 8180 8182 8180 8183 8185 8185 8182 8183 8180 8179 8181 8179 8184 8181 8174 8176 8177 8176 8174 8177 8176 8179 8177 8178 8181 8181 8184 8186 8185 8187 8186 8189 8192 8191 8187 8187 8185 8182 8179 8175 8174 
8148 8164 8168 8169 8167 8164 8164 8164 8166 8166 8169 8168 8167 8167 8170 8173 8170 8174 8176 8172 8176 8175 8172 8178 8180 8176 8178 8181 8185 8186 8188 8187 8184 8183 8186 8180 8180 8179 8180 8180 8179 8184 8184 8182 8182 8179 8180 8179 8179 8179 8178 8182 8180 8174 8176 8178 8173 8176 8175 8176 8176 8177 8178 8180 8183 8184 8185 8186 8186 8187 8189 8192 8192 8190 8186 8188 8183 8186 8178 8173 
8160 8170 8168 8168 8167 8166 8169 8167 8169 8171 8170 8171 8169 8169 8171 8170 8173 8174 8173 8173 8175 8176 8175 8178 8176 8179 8178 8183 8186 8185 8188 8184 8183 8183 8183 8184 8180 8179 8179 8179 8181 8183 8183 8182 8182 8177 8177 8179 8176 8177 8178 8182 8177 8177 8175 8178 8175 8178 8177 8177 8175 8174 8174 8177 8180 8183 8188 8184 8187 8187 8187 8190 8186 8187 8185 8185 8186 8187 8179 8179 
8167 8175 8168 8169 8168 8169 8170 8168 8173 8167 8168 8172 8172 8174 8171 8173 8172 8173 8172 8174 8177 8176 8173 8177 8179 8178 8180 8182 8185 8185 8184 8182 8182 8184 8184 8183 8180 8182 8181 8180 8181 8182 8183 8181 8182 8180 8176 8182 8180 8178 8181 8177 8178 8176 8178 8173 8178 8175 8176 8179 8175 8176 8175 8175 8180 8181 8182 8183 8186 8187 8183 8185 8186 8186 8184 8185 8182 8187 8181 8177 
8174 8177 8172 8171 8172 8171 8171 8171 8173 8168 8169 8171 8172 8171 8175 8173 8173 8175 8176 8175 8176 8174 8175 8180 8180 8181 8181 8185 8185 8181 8184 8184 8183 8183 8188 8183 8183 8181 8183 8182 8185 8184 8181 8185 8182 8180 8180 8181 8182 8183 8180 8185 8183 8177 8178 8177 8179 8180 8175 8177 8179 8175 8175 8177 8179 8180 8181 8185 8186 8184 8183 8185 8185 8183 8183 8186 8184 8187 8178 8180 
8179 8176 8170 8171 8171 8173 8174 8176 8173 8169 8170 8172 8172 8178 8176 8180 8178 8175 8180 8179 8180 8178 8180 8181 8184 8181 8187 8185 8189 8186 8187 8185 8187 8185 8183 8183 8185 8183 8181 8184 8185 8186 8182 8182 8182 8182 8185 8184 8183 8187 8180 8188 8187 8183 8180 8180 8182 8179 8176 8178 8180 8180 8175 8176 8177 8182 8183 8180 8181 8182 8181 8186 8181 8184 8185 8185 8187 8185 8179 8180 
8179 8178 8169 8171 8172 8173 8175 8172 8170 8172 8172 8174 8174 8176 8181 8180 8180 8177 8182 8178 8182 8184 8184 8183 8186 8188 8187 8189 8188 8188 8188 8187 8184 8186 8184 8181 8182 8183 8181 8184 8183 8183 8180 8181 8182 8182 8184 8184 8180 8182 8185 8184 8183 8183 8181 8182 8181 8181 8181 8181 8179 8181 8178 8179 8181 8182 8182 8183 8182 8181 8183 8182 8186 8185 8183 8185 8185 8184 8179 8178 
8180 8179 8175 8172 8177 8177 8174 8175 8173 8175 8176 8173 8175 8177 8179 8181 8181 8179 8180 8182 8181 8183 8181 8183 8186 8186 8187 8189 8190 8189 8191 8187 8186 8188 8184 8183 8184 8181 8183 8183 8181 8182 8182 8182 8182 8181 8183 8181 8183 8182 8183 8185 8186 8180 8178 8181 8180 8183 8182 8180 8180 8180 8181 8181 8183 8184 8182 8184 8184 8183 8183 8183 8183 8182 8184 8182 8184 8183 8174 8174 
8178 8176 8173 8174 8176 8173 8173 8175 8174 8173 8173 8175 8176 8177 8178 8178 8184 8183 8179 8180 8180 8184 8183 8186 8185 8185 8189 8189 8192 8190 8189 8186 8186 8185 8185 8184 8183 8180 8180 8179 8181 8181 8183 8180 8183 8183 8179 8181 8182 8182 8183 8182 8186 8181 8180 8181 8182 8181 8182 8181 8181 8181 8181 8185 8182 8186 8185 8186 8184 8185 8180 8185 8183 8184 8181 8183 8182 8180 8176 8173 
8182 8181 8176 8178 8179 8175 8174 8178 8172 8176 8176 8176 8173 8175 8178 8183 8182 8179 8181 8181 8181 8183 8182 8184 8187 8186 8186 8190 8192 8188 8189 8186 8185 8188 8186 8181 8177 8168 8163 8162 8165 8165 8170 8169 8177 8180 8181 8183 8184 8184 8185 8187 8184 8182 8183 8183 8184 8178 8180 8182 8180 8182 8178 8181 8184 8185 8185 8184 8185 8185 8182 8186 8185 8185 8182 8182 8183 8182 8176 8172 
8186 8185 8178 8180 8175 8175 8177 8175 8177 8176 8177 8178 8176 8174 8178 8181 8179 8179 8181 8177 8181 8177 8180 8182 8184 8185 8186 8188 8192 8186 8190 8186 8187 8183 8169 8165 8159 8157 8154 8155 8158 8159 8157 8158 8164 8166 8174 8180 8180 8184 8186 8182 8182 8179 8179 8180 8182 8180 8177 8181 8182 8179 8177 8179 8181 8184 8180 8182 8183 8185 8183 8188 8185 8186 8184 8181 8182 8180 8177 8177 
8185 8184 8175 8180 8178 8177 8178 8175 8174 8176 8181 8178 8177 8174 8179 8180 8183 8181 8180 8179 8178 8181 8180 8186 8185 8185 8186 8188 8190 8189 8189 8183 8176 8169 8160 8161 8160 8158 8158 8161 8163 8165 8163 8162 8161 8160 8162 8168 8172 8181 8183 8185 8182 8181 8180 8179 8183 8183 8181 8181 8180 8181 8179 8179 8182 8181 8183 8183 8184 8183 8183 8190 8185 8184 8186 8184 8182 8183 8177 8172 
8183 8184 8182 8182 8179 8178 8180 8176 8176 8175 8179 8178 8175 8171 8178 8181 8181 8180 8183 8182 8180 8181 8181 8187 8186 8185 8186 8191 8190 8189 8185 8174 8165 8165 8160 8162 8161 8163 8161 8161 8165 8168 8164 8166 8166 8169 8165 8166 8161 8171 8180 8187 8185 8180 8181 8183 8183 8181 8180 8182 8182 8181 8180 8182 8182 8184 8183 8184 8185 8185 8184 8192 8189 8187 8184 8184 8181 8184 8178 8179 
8184 8187 8182 8179 8178 8179 8179 8175 8178 8178 8181 8180 8176 8178 8179 8183 8184 8183 8185 8183 8182 8183 8183 8185 8184 8185 8187 8188 8192 8186 8173 8166 8168 8168 8164 8167 8166 8169 8173 8177 8176 8176 8175 8178 8175 8170 8169 8168 8161 8162 8170 8183 8185 8181 8186 8182 8184 8182 8180 8179 8181 8182 8185 8181 8182 8184 8187 8184 8183 8182 8187 8191 8190 8185 8184 8188 8183 8185 8179 8177 
8188 8189 8181 8180 8179 8178 8179 8176 8178 8181 8183 8184 8177 8180 8183 8189 8183 8183 8184 8182 8182 8179 8183 8185 8184 8184 8185 8187 8190 8175 8169 8166 8172 8171 8168 8178 8186 8189 8191 8195 8194 8195 8193 8193 8191 8186 8180 8171 8164 8159 8162 8174 8182 8182 8181 8185 8183 8181 8182 8179 8180 8182 8183 8184 8181 8181 8185 8186 8186 8183 8184 8190 8187 8190 8184 8183 8184 8183 8182 8170 
8186 8190 8180 8184 8183 8183 8181 8179 8183 8178 8184 8186 8184 8185 8182 8184 8185 8182 8185 8185 8184 8181 8184 8184 8185 8187 8188 8189 8181 8169 8169 8171 8171 8181 8189 8201 8205 8200 8195 8192 8189 8191 8189 8193 8199 8200 8195 8180 8170 8167 8164 8169 8181 8182 8182 8182 8182 8183 8180 8180 8180 8183 8180 8181 8182 8184 8184 8183 8187 8185 8185 8190 8189 8190 8188 8186 8184 8185 8180 8173 
8191 8194 8186 8185 8184 8179 8179 8181 8181 8181 8184 8188 8184 8187 8187 8186 8190 8183 8183 8181 8183 8184 8180 8183 8187 8185 8186 8184 8173 8167 8177 8174 8184 8199 8208 8204 8204 8198 8196 8192 8195 8188 8186 8187 8189 8196 8200 8197 8182 8169 8168 8166 8177 8181 8183 8186 8185 8181 8181 8179 8182 8182 8182 8187 8186 8186 8186 8188 8183 8188 8187 8189 8189 8190 8189 8185 8186 8187 8182 8177 
8192 8193 8188 8188 8186 8184 8181 8186 8185 8185 8187 8189 8189 8186 8190 8189 8189 8187 8183 8184 8184 8182 8183 8184 8185 8184 8185 8173 8169 8172 8173 8181 8198 8208 8206 8201 8202 8202 8200 8194 8189 8189 8192 8192 8190 8192 8191 8202 8189 8180 8171 8168 8172 8179 8184 8182 8184 8184 8183 8183 8179 8183 8180 8184 8187 8185 8186 8184 8183 8187 8187 8189 8192 8187 8186 8190 8185 8188 8180 8176 
8192 8193 8190 8190 8189 8186 8188 8188 8188 8186 8188 8190 8188 8191 8191 8190 8187 8189 8187 8185 8186 8184 8181 8185 8185 8184 8181 8167 8170 8174 8181 8195 8212 8209 8202 8202 8204 8195 8199 8188 8184 8186 8184 8187 8196 8194 8191 8194 8191 8189 8174 8169 8167 8181 8184 8186 8188 8184 8183 8184 8181 8186 8181 8185 8186 8189 8187 8185 8184 8186 8185 8191 8187 8187 8186 8188 8185 8186 8183 8176 
8194 8195 8191 8190 8191 8187 8189 8189 8186 8191 8189 8194 8190 8190 8190 8188 8189 8187 8186 8189 8185 8185 8186 8187 8189 8186 8175 8167 8173 8173 8189 8208 8213 8206 8207 8202 8194 8191 8200 8200 8199 8200 8197 8189 8192 8201 8192 8188 8191 8196 8178 8165 8166 8179 8182 8182 8183 8185 8183 8184 8182 8184 8186 8186 8186 8186 8185 8185 8183 8186 8184 8189 8189 8185 8188 8187 8186 8188 8179 8178 
8197 8195 8190 8193 8191 8189 8185 8192 8188 8188 8192 8192 8190 8191 8190 8189 8190 8187 8188 8187 8190 8187 8187 8185 8188 8187 8174 8166 8172 8173 8196 8207 8208 8209 8208 8198 8197 8203 8208 8204 8208 8207 8203 8201 8193 8198 8199 8191 8186 8195 8185 8172 8167 8181 8185 8184 8187 8186 8183 8184 8183 8184 8183 8187 8185 8186 8186 8187 8186 8185 8187 8191 8189 8186 8186 8192 8188 8188 8186 8184 
8196 8202 8197 8192 8190 8189 8191 8190 8192 8191 8190 8192 8188 8189 8190 8190 8189 8190 8187 8188 8187 8185 8185 8188 8187 8183 8170 8164 8171 8175 8197 8201 8196 8202 8208 8191 8203 8210 8213 8213 8211 8211 8208 8202 8192 8187 8191 8189 8184 8191 8190 8174 8167 8185 8186 8188 8183 8187 8183 8187 8185 8184 8185 8187 8183 8185 8187 8187 8189 8186 8183 8192 8188 8184 8188 8185 8185 8189 8185 8184 
8194 8199 8192 8191 8190 8191 8192 8194 8191 8190 8190 8191 8187 8188 8188 8193 8189 8188 8189 8186 8189 8186 8181 8186 8187 8181 8171 8163 8169 8174 8198 8202 8192 8199 8194 8191 8202 8209 8213 8209 8210 8206 8204 8202 8191 8186 8190 8185 8181 8193 8187 8172 8167 8183 8188 8191 8188 8187 8189 8186 8184 8182 8186 8183 8184 8183 8189 8188 8186 8187 8186 8190 8186 8186 8186 8187 8186 8188 8184 8180 
8197 8199 8192 8192 8194 8192 8194 8187 8192 8191 8190 8189 8188 8191 8190 8191 8189 8190 8183 8184 8188 8184 8184 8187 8188 8182 8170 8162 8172 8178 8200 8195 8194 8198 8192 8191 8200 8204 8212 8208 8205 8203 8199 8198 8190 8187 8191 8185 8183 8194 8187 8170 8173 8185 8186 8188 8186 8188 8186 8187 8184 8183 8182 8184 8186 8188 8185 8186 8187 8187 8185 8186 8186 8188 8191 8188 8186 8185 8182 8178 
8194 8195 8194 8194 8193 8192 8191 8191 8191 8192 8191 8189 8189 8189 8191 8192 8189 8187 8185 8187 8187 8186 8184 8188 8183 8182 8174 8164 8167 8174 8196 8195 8186 8193 8196 8194 8196 8200 8202 8204 8203 8200 8198 8191 8188 8187 8193 8181 8184 8194 8180 8168 8178 8187 8189 8191 8186 8189 8186 8186 8183 8183 8184 8184 8187 8184 8186 8186 8183 8186 8183 8187 8190 8188 8189 8189 8188 8185 8179 8178 
8199 8201 8195 8196 8191 8191 8191 8193 8190 8191 8188 8187 8191 8189 8189 8191 8187 8187 8186 8186 8183 8185 8185 8186 8183 8185 8177 8166 8169 8174 8191 8194 8188 8191 8197 8190 8188 8196 8196 8198 8198 8201 8192 8186 8186 8192 8188 8187 8194 8190 8174 8168 8181 8187 8190 8189 8186 8187 8183 8188 8184 8183 8182 8185 8184 8184 8186 8184 8185 8181 8183 8188 8187 8187 8189 8186 8184 8186 8178 8179 
8200 8199 8194 8196 8191 8191 8191 8193 8192 8191 8190 8187 8187 8187 8188 8190 8189 8188 8186 8187 8187 8184 8184 8185 8187 8184 8181 8171 8168 8168 8182 8193 8188 8187 8189 8190 8186 8185 8187 8192 8192 8192 8190 8187 8195 8188 8184 8187 8190 8183 8167 8176 8182 8189 8186 8191 8190 8190 8188 8188 8184 8184 8185 8183 8183 8183 8186 8184 8184 8182 8183 8192 8185 8187 8186 8185 8186 8185 8178 8181 
8200 8199 8195 8196 8193 8194 8194 8195 8190 8193 8191 8189 8189 8189 8191 8189 8190 8187 8189 8189 8186 8186 8185 8183 8186 8185 8184 8181 8168 8163 8175 8186 8190 8187 8185 8191 8190 8187 8188 8190 8186 8185 8192 8191 8191 8182 8185 8190 8187 8171 8169 8182 8183 8190 8187 8189 8189 8191 8190 8187 8186 8185 8182 8183 8181 8182 8185 8180 8181 8182 8184 8189 8186 8187 8188 8185 8185 8189 8182 8180 
8196 8197 8193 8194 8196 8194 8193 8195 8193 8191 8190 8190 8189 8186 8186 8188 8188 8188 8188 8188 8186 8185 8184 8187 8186 8187 8188 8183 8176 8165 8169 8178 8193 8189 8184 8184 8188 8188 8189 8189 8193 8194 8190 8186 8182 8180 8189 8188 8171 8168 8178 8184 8184 8190 8187 8189 8187 8189 8186 8188 8181 8184 8184 8185 8184 8182 8186 8184 8182 8183 8183 8185 8185 8186 8186 8187 8186 8186 8180 8175 
8197 8199 8196 8200 8195 8192 8192 8194 8193 8191 8190 8189 8188 8188 8187 8191 8189 8188 8185 8188 8187 8185 8184 8183 8184 8186 8185 8186 8186 8172 8165 8165 8177 8189 8188 8187 8187 8183 8179 8179 8182 8183 8186 8182 8186 8188 8187 8172 8167 8180 8184 8184 8188 8188 8188 8188 8188 8189 8185 8186 8186 8186 8184 8186 8183 8188 8186 8184 8183 8184 8181 8189 8186 8185 8186 8187 8184 8187 8183 8176 
8198 8200 8196 8196 8194 8195 8196 8195 8194 8193 8188 8191 8189 8188 8188 8186 8188 8186 8187 8186 8184 8187 8188 8185 8185 8183 8185 8184 8187 8180 8174 8163 8164 8179 8191 8194 8194 8185 8185 8182 8182 8185 8186 8189 8190 8182 8173 8171 8181 8181 8181 8184 8188 8188 8188 8188 8187 8187 8187 8186 8180 8185 8184 8183 8186 8186 8185 8183 8181 8182 8187 8186 8188 8184 8185 8185 8186 8184 8178 8175 
8198 8196 8195 8199 8196 8197 8195 8195 8193 8192 8192 8189 8187 8189 8187 8188 8190 8186 8190 8189 8190 8187 8186 8187 8189 8185 8185 8188 8188 8184 8185 8176 8166 8164 8170 8178 8186 8191 8188 8187 8189 8190 8185 8180 8173 8171 8180 8183 8181 8183 8185 8188 8189 8188 8189 8189 8187 8188 8186 8186 8183 8189 8183 8187 8187 8184 8186 8186 8186 8184 8184 8187 8187 8187 8183 8184 8186 8183 8177 8177 
8197 8199 8197 8203 8196 8194 8196 8195 8195 8192 8191 8192 8191 8186 8188 8189 8190 8189 8189 8188 8191 8186 8186 8189 8185 8183 8189 8187 8191 8187 8188 8181 8180 8177 8169 8165 8166 8170 8171 8175 8173 8172 8168 8173 8182 8186 8188 8187 8185 8183 8189 8191 8193 8187 8188 8189 8188 8188 8187 8185 8186 8185 8186 8188 8185 8185 8185 8187 8184 8186 8184 8190 8190 8185 8185 8186 8184 8182 8178 8175 
8197 8198 8195 8194 8194 8195 8197 8199 8195 8192 8194 8193 8191 8188 8189 8191 8189 8188 8188 8189 8190 8190 8189 8187 8189 8189 8188 8189 8191 8189 8193 8188 8185 8182 8181 8179 8179 8174 8176 8177 8175 8178 8181 8181 8188 8189 8189 8188 8185 8192 8194 8192 8190 8189 8190 8191 8189 8188 8187 8186 8185 8186 8185 8188 8185 8187 8183 8182 8185 8186 8185 8189 8186 8184 8183 8185 8181 8183 8175 8174 
8200 8198 8195 8196 8195 8197 8198 8199 8196 8194 8194 8194 8190 8189 8191 8193 8191 8189 8188 8187 8190 8191 8190 8192 8190 8191 8192 8187 8191 8187 8191 8188 8188 8188 8185 8182 8183 8178 8182 8182 8185 8183 8182 8183 8186 8187 8189 8196 8193 8194 8195 8195 8193 8188 8190 8189 8190 8188 8186 8186 8183 8185 8187 8188 8186 8185 8187 8184 8185 8184 8180 8187 8186 8186 8186 8186 8183 8183 8178 8171 
8199 8201 8197 8197 8198 8197 8196 8195 8197 8194 8194 8195 8191 8193 8191 8192 8194 8190 8190 8189 8192 8190 8192 8190 8190 8191 8186 8191 8193 8190 8191 8194 8193 8189 8190 8184 8184 8183 8185 8187 8184 8184 8188 8185 8186 8189 8194 8197 8193 8195 8194 8195 8193 8192 8188 8190 8188 8187 8185 8182 8185 8182 8187 8185 8187 8186 8186 8185 8182 8185 8184 8187 8187 8186 8189 8184 8180 8186 8178 8175 
8200 8201 8195 8196 8198 8197 8200 8196 8194 8196 8194 8194 8189 8191 8193 8193 8193 8194 8192 8187 8194 8189 8191 8194 8190 8190 8190 8190 8193 8193 8194 8190 8194 8192 8192 8191 8193 8191 8190 8190 8189 8192 8188 8192 8191 8196 8199 8195 8197 8194 8197 8194 8192 8189 8186 8190 8189 8186 8186 8186 8183 8188 8184 8187 8186 8186 8184 8184 8184 8185 8185 8188 8190 8188 8189 8185 8183 8183 8177 8176 
8198 8198 8197 8199 8197 8199 8195 8196 8192 8193 8196 8196 8193 8192 8190 8188 8193 8189 8192 8192 8193 8193 8192 8193 8193 8191 8190 8193 8195 8190 8196 8191 8195 8192 8193 8194 8195 8194 8196 8193 8192 8195 8195 8193 8197 8197 8197 8198 8196 8196 8195 8195 8193 8191 8188 8188 8187 8187 8183 8182 8182 8186 8185 8183 8187 8187 8185 8185 8187 8185 8185 8188 8188 8185 8189 8186 8184 8184 8176 8173 
8200 8202 8197 8198 8198 8199 8196 8195 8193 8192 8189 8194 8192 8190 8193 8191 8194 8193 8190 8192 8193 8194 8193 8193 8193 8192 8191 8192 8197 8194 8193 8192 8196 8193 8195 8195 8194 8193 8193 8197 8195 8196 8197 8196 8196 8198 8200 8200 8196 8197 8196 8195 8193 8190 8189 8189 8187 8186 8184 8183 8181 8183 8182 8187 8185 8184 8187 8185 8184 8185 8184 8190 8188 8184 8186 8184 8183 8183 8177 8174 
8203 8204 8196 8198 8196 8198 8198 8194 8196 8194 8193 8192 8189 8190 8188 8192 8192 8191 8190 8192 8195 8193 8190 8192 8192 8195 8195 8194 8196 8194 8197 8192 8195 8194 8197 8195 8196 8192 8196 8198 8194 8198 8198 8196 8197 8199 8200 8201 8196 8194 8195 8196 8193 8191 8186 8188 8187 8185 8183 8180 8181 8180 8181 8183 8183 8185 8183 8184 8185 8182 8182 8188 8187 8185 8188 8188 8184 8184 8175 8172 
8202 8203 8195 8199 8197 8199 8195 8194 8193 8191 8191 8189 8190 8189 8191 8191 8192 8192 8193 8197 8194 8193 8193 8195 8195 8196 8194 8196 8198 8194 8196 8194 8195 8196 8197 8195 8196 8195 8195 8197 8196 8199 8195 8197 8196 8200 8199 8198 8196 8197 8196 8197 8193 8190 8191 8186 8188 8185 8181 8184 8184 8182 8181 8186 8182 8184 8184 8183 8185 8184 8184 8192 8191 8189 8183 8184 8184 8181 8176 8175 
8203 8205 8200 8201 8199 8198 8194 8193 8192 8187 8190 8191 8190 8186 8189 8194 8192 8191 8192 8194 8197 8194 8195 8197 8194 8195 8193 8198 8200 8195 8198 8193 8195 8195 8193 8193 8192 8192 8194 8195 8196 8194 8194 8195 8197 8195 8199 8202 8197 8195 8193 8196 8194 8193 8187 8186 8183 8184 8181 8181 8180 8182 8182 8182 8180 8182 8183 8183 8183 8182 8183 8188 8188 8188 8185 8184 8181 8181 8172 8170 
8201 8200 8197 8198 8199 8196 8194 8191 8188 8190 8189 8193 8188 8190 8187 8189 8189 8189 8192 8193 8196 8197 8197 8198 8194 8196 8196 8199 8196 8196 8197 8195 8195 8196 8197 8190 8196 8192 8193 8197 8194 8194 8194 8196 8195 8197 8196 8196 8193 8193 8191 8193 8191 8189 8185 8187 8183 8180 8181 8180 8178 8182 8179 8183 8181 8185 8181 8182 8182 8183 8180 8184 8185 8185 8183 8182 8177 8181 8175 8170 
8202 8205 8196 8198 8196 8198 8193 8189 8191 8189 8190 8194 8187 8190 8190 8190 8191 8188 8192 8193 8194 8196 8197 8198 8196 8196 8194 8199 8199 8198 8198 8197 8197 8196 8196 8194 8198 8196 8195 8195 8195 8191 8194 8194 8195 8196 8198 8200 8196 8193 8193 8195 8194 8189 8188 8186 8184 8182 8180 8179 8181 8179 8179 8181 8181 8180 8180 8179 8182 8181 8179 8181 8181 8185 8185 8183 8180 8181 8176 8169 
8206 8202 8194 8197 8193 8191 8190 8188 8191 8187 8188 8189 8188 8185 8184 8188 8189 8187 8191 8191 8193 8191 8194 8192 8195 8197 8197 8197 8202 8198 8200 8195 8196 8195 8193 8195 8195 8196 8193 8193 8191 8197 8195 8196 8196 8196 8195 8197 8195 8193 8192 8190 8190 8187 8188 8184 8180 8180 8177 8179 8174 8177 8178 8179 8179 8182 8176 8180 8179 8180 8179 8182 8183 8184 8185 8182 8178 8177 8177 8170 
8207 8205 8194 8195 8192 8189 8191 8187 8190 8187 8184 8186 8188 8184 8185 8185 8187 8186 8188 8191 8193 8193 8193 8195 8196 8196 8198 8194 8202 8198 8200 8197 8198 8198 8195 8197 8195 8197 8195 8193 8195 8195 8194 8193 8194 8198 8198 8200 8194 8193 8193 8194 8191 8191 8187 8184 8181 8180 8178 8179 8179 8177 8179 8179 8180 8182 8180 8176 8178 8182 8179 8183 8186 8183 8182 8183 8176 8178 8175 8171 
8208 8204 8191 8191 8190 8194 8185 8188 8185 8181 8181 8186 8182 8177 8179 8184 8185 8184 8185 8187 8190 8192 8191 8196 8198 8198 8199 8198 8203 8201 8199 8197 8199 8195 8200 8200 8200 8198 8199 8198 8195 8196 8194 8198 8195 8193 8200 8200 8198 8194 8195 8192 8189 8187 8185 8187 8180 8176 8178 8179 8179 8178 8177 8177 8180 8183 8178 8177 8181 8177 8180 8183 8183 8183 8183 8182 8177 8179 8174 8172 


