P2
80 60
8359
8286 8286 8287 8283 8281 8278 8273 8271 8271 8271 8271 8270 8273 8275 8273 8275 8282 8277 8279 8280 8276 8281 8281 8280 8277 8278 8275 8276 8278 8275 8277 8280 8282 8281 8284 8286 8287 8290 8291 8291 8289 8291 8293 8295 8296 8291 8288 8282 8288 8285 8286 8287 8283 8283 8281 8280 8279 8280 8281 8284 8284 8288 8287 8290 8289 8290 8287 8294 8296 8296 8297 8292 8295 8299 8297 8299 8299 8296 8299 8296 
8284 8290 8289 8284 8278 8280 8277 8274 8274 8272 8271 8274 8276 8276 8272 8278 8281 8278 8277 8280 8281 8278 8282 8273 8277 8279 8279 8276 8278 8275 8282 8278 8283 8282 8284 8283 8288 8288 8290 8292 8290 8294 8294 8295 8295 8294 8289 8287 8288 8285 8285 8285 8283 8282 8281 8280 8281 8279 8280 8284 8286 8287 8291 8289 8291 8292 8292 8294 8297 8295 8299 8295 8299 8298 8303 8299 8301 8298 8301 8296 
8278 8278 8273 8271 8278 8273 8274 8275 8270 8272 8268 8271 8270 8276 8277 8271 8277 8277 8275 8277 8277 8277 8275 8272 8275 8280 8276 8275 8278 8278 8278 8278 8281 8284 8283 8286 8285 8285 8289 8290 8290 8291 8289 8295 8295 8293 8289 8289 8288 8286 8284 8286 8281 8284 8286 8281 8278 8281 8283 8282 8288 8290 8289 8288 8289 8289 8291 8294 8296 8296 8297 8299 8301 8298 8301 8301 8300 8294 8302 8294 
8268 8268 8270 8266 8272 8269 8273 8271 8270 8268 8268 8265 8273 8271 8272 8276 8274 8275 8273 8272 8272 8271 8273 8273 8273 8276 8276 8276 8276 8275 8277 8277 8280 8282 8285 8285 8285 8285 8289 8290 8287 8286 8288 8289 8296 8291 8287 8285 8284 8283 8282 8283 8285 8281 8284 8282 8280 8284 8281 8284 8283 8287 8288 8289 8289 8291 8290 8291 8293 8296 8297 8296 8298 8299 8300 8297 8298 8293 8297 8297 
8261 8265 8269 8262 8267 8269 8275 8273 8271 8270 8265 8261 8269 8269 8267 8270 8273 8270 8271 8273 8275 8273 8272 8268 8272 8278 8272 8275 8271 8272 8276 8278 8278 8278 8280 8282 8285 8281 8289 8291 8288 8290 8288 8289 8292 8290 8286 8284 8285 8283 8282 8286 8281 8282 8283 8284 8282 8284 8284 8287 8287 8287 8288 8287 8291 8290 8286 8291 8295 8294 8295 8296 8299 8297 8296 8297 8297 8293 8300 8295 
8261 8263 8268 8265 8267 8268 8271 8269 8267 8265 8259 8263 8260 8267 8267 8269 8272 8267 8270 8272 8271 8270 8273 8268 8271 8276 8273 8269 8270 8274 8275 8277 8278 8277 8279 8283 8282 8282 8287 8287 8287 8290 8288 8289 8288 8288 8283 8284 8282 8281 8281 8284 8280 8282 8284 8282 8284 8282 8286 8286 8287 8287 8285 8286 8287 8287 8288 8292 8294 8292 8297 8292 8297 8296 8294 8298 8295 8292 8296 8292 
8260 8264 8264 8265 8267 8264 8269 8272 8267 8258 8255 8262 8264 8266 8265 8266 8268 8269 8272 8274 8271 8271 8276 8271 8270 8276 8270 8270 8268 8273 8278 8281 8281 8278 8280 8284 8282 8282 8285 8283 8288 8287 8287 8290 8290 8287 8283 8282 8279 8281 8283 8283 8283 8282 8285 8284 8283 8282 8285 8288 8286 8287 8290 8287 8288 8290 8291 8294 8293 8292 8298 8295 8294 8292 8293 8295 8296 8291 8294 8289 
8261 8265 8261 8265 8267 8265 8268 8270 8269 8253 8262 8265 8265 8262 8265 8267 8270 8268 8268 8274 8273 8272 8275 8270 8269 8271 8267 8268 8270 8275 8276 8276 8278 8278 8279 8282 8282 8279 8282 8284 8284 8285 8286 8287 8290 8290 8280 8283 8279 8278 8281 8282 8280 8281 8284 8283 8282 8284 8284 8287 8285 8284 8286 8287 8285 8289 8289 8292 8290 8291 8291 8291 8292 8294 8293 8294 8292 8288 8295 8290 
8258 8260 8260 8261 8263 8264 8270 8273 8271 8258 8258 8263 8261 8261 8261 8263 8269 8266 8268 8274 8275 8272 8271 8269 8266 8269 8268 8270 8271 8271 8273 8275 8275 8274 8278 8280 8281 8280 8284 8282 8285 8285 8287 8288 8289 8284 8284 8278 8276 8277 8275 8277 8279 8278 8280 8280 8282 8284 8281 8283 8282 8281 8283 8285 8283 8288 8288 8290 8290 8291 8288 8289 8289 8291 8290 8290 8291 8288 8297 8290 
8258 8256 8261 8261 8262 8263 8268 8269 8266 8265 8262 8261 8264 8264 8264 8265 8270 8266 8271 8272 8272 8269 8271 8267 8269 8271 8267 8266 8270 8270 8274 8272 8273 8274 8274 8281 8282 8278 8281 8285 8280 8282 8285 8288 8287 8287 8280 8278 8275 8276 8277 8281 8280 8277 8279 8282 8280 8280 8281 8285 8284 8283 8285 8285 8287 8288 8288 8288 8288 8289 8290 8288 8289 8288 8289 8285 8290 8290 8293 8289 
8257 8260 8265 8259 8260 8262 8265 8264 8262 8263 8260 8262 8263 8264 8263 8266 8268 8264 8264 8269 8273 8267 8270 8265 8264 8267 8267 8267 8270 8270 8271 8272 8271 8271 8274 8277 8278 8275 8278 8281 8280 8281 8285 8285 8286 8286 8284 8278 8279 8277 8278 8281 8279 8281 8280 8277 8281 8280 8279 8280 8283 8284 8286 8283 8285 8286 8284 8288 8289 8288 8288 8285 8286 8287 8290 8284 8290 8284 8291 8290 
8259 8263 8263 8260 8260 8263 8265 8263 8264 8259 8261 8258 8264 8264 8263 8267 8267 8264 8265 8268 8272 8268 8268 8264 8265 8266 8268 8267 8270 8274 8273 8273 8272 8268 8273 8274 8274 8278 8278 8279 8278 8280 8281 8287 8290 8288 8281 8279 8278 8278 8279 8283 8279 8280 8279 8277 8281 8281 8281 8282 8285 8285 8289 8285 8285 8287 8289 8290 8289 8289 8287 8286 8288 8286 8289 8288 8288 8284 8288 8287 
8263 8264 8262 8257 8257 8261 8266 8261 8260 8262 8259 8261 8262 8267 8265 8265 8267 8267 8268 8269 8271 8267 8266 8266 8267 8267 8269 8269 8269 8271 8274 8271 8269 8270 8268 8273 8273 8276 8277 8277 8279 8281 8283 8288 8292 8288 8281 8277 8279 8279 8278 8284 8280 8281 8278 8280 8279 8281 8282 8286 8284 8284 8287 8287 8286 8287 8289 8291 8288 8287 8288 8285 8286 8289 8289 8288 8288 8284 8289 8285 
8264 8269 8266 8262 8265 8261 8267 8264 8262 8260 8263 8262 8266 8266 8266 8264 8271 8268 8267 8269 8270 8268 8269 8269 8264 8268 8267 8269 8267 8268 8270 8269 8268 8267 8271 8269 8272 8271 8271 8275 8276 8275 8285 8283 8285 8282 8276 8276 8275 8277 8279 8283 8280 8280 8279 8277 8279 8282 8285 8285 8284 8282 8287 8285 8286 8286 8289 8289 8289 8289 8288 8283 8286 8285 8286 8284 8285 8281 8286 8282 
8261 8261 8266 8264 8265 8261 8264 8267 8264 8265 8263 8264 8267 8268 8265 8268 8268 8267 8269 8271 8268 8268 8269 8264 8263 8268 8267 8270 8267 8266 8267 8268 8270 8267 8268 8271 8272 8270 8272 8272 8272 8279 8280 8284 8285 8282 8275 8274 8278 8275 8278 8280 8278 8279 8280 8279 8279 8282 8282 8282 8283 8282 8284 8289 8286 8288 8287 8289 8290 8287 8285 8284 8285 8286 8286 8286 8283 8281 8285 8283 
8261 8259 8266 8264 8264 8260 8264 8263 8265 8266 8261 8262 8268 8268 8266 8269 8272 8269 8267 8269 8267 8264 8270 8265 8264 8268 8267 8267 8266 8267 8269 8267 8266 8269 8272 8269 8269 8270 8272 8271 8271 8277 8282 8278 8284 8281 8275 8273 8274 8273 8278 8280 8277 8279 8276 8280 8278 8280 8279 8284 8283 8283 8287 8289 8287 8288 8287 8287 8290 8288 8285 8281 8283 8284 8283 8282 8286 8282 8285 8280 
8259 8264 8262 8262 8263 8262 8264 8262 8266 8264 8265 8266 8268 8268 8265 8269 8270 8267 8266 8268 8269 8265 8267 8267 8265 8268 8265 8268 8267 8265 8266 8268 8271 8268 8272 8269 8270 8272 8269 8271 8274 8277 8280 8282 8283 8281 8277 8272 8273 8274 8276 8280 8278 8274 8276 8279 8276 8282 8280 8285 8283 8281 8287 8290 8287 8291 8288 8288 8287 8289 8282 8282 8283 8284 8287 8284 8283 8280 8285 8281 
8262 8264 8266 8263 8265 8263 8266 8265 8266 8265 8267 8268 8268 8268 8267 8266 8269 8268 8267 8268 8269 8267 8267 8266 8266 8267 8268 8266 8262 8265 8265 8267 8272 8269 8271 8272 8272 8269 8270 8271 8271 8276 8278 8281 8284 8280 8276 8273 8274 8273 8275 8281 8277 8274 8277 8276 8279 8280 8280 8284 8283 8282 8288 8288 8289 8286 8290 8288 8286 8285 8283 8283 8281 8282 8284 8282 8285 8276 8283 8279 
8261 8260 8267 8263 8264 8266 8271 8271 8270 8268 8270 8267 8269 8265 8267 8271 8268 8266 8265 8268 8270 8268 8267 8267 8268 8270 8269 8266 8265 8266 8265 8270 8269 8268 8270 8270 8270 8267 8269 8270 8269 8273 8278 8279 8280 8276 8273 8272 8272 8274 8278 8278 8277 8279 8279 8278 8280 8281 8282 8284 8285 8283 8286 8288 8288 8292 8289 8289 8286 8285 8281 8280 8280 8282 8282 8281 8283 8280 8285 8278 
8259 8262 8262 8261 8260 8268 8270 8270 8267 8267 8270 8267 8265 8270 8266 8267 8269 8266 8266 8267 8266 8265 8267 8264 8267 8269 8268 8266 8262 8266 8267 8268 8274 8266 8268 8264 8259 8245 8262 8267 8266 8268 8266 8265 8258 8271 8272 8269 8270 8274 8275 8279 8280 8280 8283 8283 8283 8282 8284 8284 8282 8281 8285 8284 8286 8288 8286 8285 8283 8282 8283 8277 8276 8277 8277 8277 8281 8275 8279 8274 
8262 8265 8267 8260 8259 8262 8265 8266 8269 8266 8267 8268 8269 8267 8268 8267 8266 8265 8264 8266 8266 8267 8267 8265 8264 8269 8266 8263 8265 8266 8266 8265 8269 8256 8240 8221 8210 8210 8222 8237 8226 8245 8257 8262 8258 8262 8269 8267 8268 8273 8273 8276 8276 8279 8282 8284 8281 8279 8282 8280 8278 8278 8280 8285 8281 8282 8282 8282 8281 8278 8277 8274 8275 8275 8275 8274 8276 8271 8274 8271 
8263 8268 8266 8263 8267 8261 8258 8267 8265 8268 8267 8265 8268 8268 8269 8264 8266 8265 8264 8266 8270 8268 8273 8267 8265 8267 8265 8266 8267 8267 8267 8266 8269 8264 8263 8237 8204 8203 8206 8204 8184 8189 8222 8251 8255 8258 8266 8267 8268 8271 8274 8277 8278 8278 8278 8277 8278 8279 8275 8275 8278 8279 8281 8282 8283 8282 8280 8283 8279 8276 8276 8273 8271 8270 8274 8272 8275 8271 8274 8268 
8266 8273 8266 8263 8264 8261 8262 8263 8264 8267 8270 8268 8266 8269 8266 8267 8267 8265 8260 8269 8272 8271 8270 8269 8266 8267 8269 8268 8266 8268 8266 8267 8268 8266 8261 8235 8234 8211 8203 8193 8221 8194 8188 8193 8203 8223 8256 8264 8267 8268 8273 8276 8277 8275 8280 8277 8279 8276 8276 8276 8275 8276 8276 8279 8277 8282 8279 8278 8279 8274 8275 8270 8270 8267 8269 8270 8268 8270 8272 8271 
8265 8270 8269 8266 8266 8262 8264 8264 8264 8267 8269 8265 8268 8268 8268 8267 8267 8264 8265 8269 8269 8266 8269 8265 8268 8268 8268 8265 8268 8267 8268 8266 8268 8268 8268 8262 8264 8246 8203 8196 8225 8195 8181 8180 8181 8204 8240 8254 8267 8268 8274 8276 8274 8272 8276 8275 8277 8277 8274 8278 8275 8273 8276 8276 8277 8278 8275 8277 8276 8271 8272 8270 8269 8265 8270 8268 8270 8268 8272 8265 
8264 8263 8268 8268 8266 8265 8266 8268 8263 8263 8267 8268 8269 8266 8269 8267 8267 8266 8262 8265 8267 8263 8267 8265 8263 8264 8264 8264 8266 8262 8268 8266 8269 8270 8269 8263 8255 8240 8240 8238 8227 8218 8208 8181 8183 8212 8252 8261 8267 8266 8270 8276 8272 8273 8275 8272 8277 8276 8276 8278 8272 8275 8276 8277 8276 8273 8274 8275 8274 8272 8268 8263 8266 8265 8264 8266 8269 8268 8268 8267 
8261 8263 8268 8271 8267 8263 8266 8264 8262 8264 8265 8270 8267 8269 8266 8265 8269 8265 8265 8267 8266 8265 8266 8267 8264 8266 8266 8267 8262 8269 8269 8267 8266 8269 8266 8264 8258 8259 8234 8230 8236 8242 8257 8201 8200 8248 8258 8264 8265 8264 8269 8274 8273 8275 8276 8275 8276 8277 8276 8276 8277 8273 8278 8276 8277 8275 8273 8273 8272 8271 8268 8266 8266 8261 8263 8266 8266 8267 8268 8264 
8258 8259 8265 8265 8267 8264 8268 8262 8261 8263 8268 8265 8269 8269 8268 8266 8264 8265 8264 8264 8266 8264 8267 8266 8264 8269 8266 8267 8267 8267 8270 8265 8268 8268 8267 8263 8260 8260 8256 8239 8248 8255 8251 8226 8230 8256 8258 8261 8268 8264 8268 8272 8273 8273 8272 8276 8273 8275 8274 8277 8275 8274 8278 8276 8277 8275 8273 8273 8273 8268 8268 8266 8263 8263 8259 8263 8264 8260 8266 8262 
8259 8261 8264 8263 8266 8262 8266 8266 8264 8264 8266 8266 8267 8269 8267 8266 8268 8265 8265 8266 8267 8259 8268 8270 8265 8269 8267 8267 8268 8268 8265 8265 8267 8262 8260 8249 8250 8244 8226 8220 8219 8224 8216 8217 8224 8252 8250 8263 8267 8266 8270 8272 8270 8271 8273 8274 8274 8275 8274 8276 8273 8274 8276 8274 8277 8275 8273 8270 8268 8266 8266 8262 8265 8265 8262 8263 8265 8262 8265 8262 
8258 8258 8262 8264 8265 8265 8267 8266 8262 8265 8268 8266 8267 8272 8272 8269 8271 8267 8264 8268 8263 8264 8266 8270 8271 8269 8269 8267 8267 8266 8268 8263 8257 8242 8213 8181 8200 8204 8203 8203 8200 8205 8209 8213 8213 8227 8246 8264 8267 8267 8265 8269 8271 8271 8273 8273 8273 8273 8275 8274 8272 8269 8274 8273 8275 8275 8271 8270 8266 8263 8265 8261 8265 8262 8263 8263 8264 8260 8267 8264 
8258 8263 8263 8261 8262 8263 8269 8265 8266 8267 8265 8266 8266 8269 8268 8263 8267 8265 8265 8265 8266 8264 8269 8269 8268 8267 8269 8269 8265 8260 8251 8234 8208 8188 8187 8198 8200 8209 8203 8201 8202 8214 8214 8202 8209 8208 8239 8261 8264 8267 8268 8271 8270 8267 8272 8271 8269 8270 8270 8271 8269 8268 8273 8275 8271 8272 8269 8267 8264 8263 8266 8263 8265 8262 8264 8266 8264 8261 8267 8265 
8260 8263 8260 8258 8263 8265 8265 8267 8267 8266 8268 8266 8266 8265 8263 8263 8263 8264 8265 8264 8263 8261 8269 8270 8267 8268 8267 8267 8262 8224 8199 8197 8196 8185 8194 8197 8205 8241 8217 8211 8207 8218 8205 8203 8208 8209 8223 8260 8265 8266 8267 8269 8270 8268 8271 8269 8270 8270 8270 8268 8268 8268 8272 8273 8272 8271 8267 8268 8264 8266 8266 8264 8263 8264 8266 8268 8268 8261 8270 8263 
8260 8261 8260 8258 8260 8262 8265 8267 8265 8264 8266 8267 8268 8263 8262 8262 8264 8263 8261 8265 8265 8265 8269 8269 8266 8269 8266 8264 8233 8194 8191 8217 8238 8198 8245 8207 8211 8246 8243 8243 8229 8220 8198 8203 8209 8224 8251 8260 8265 8265 8267 8268 8270 8268 8267 8267 8268 8268 8268 8268 8267 8269 8268 8271 8269 8269 8266 8268 8266 8265 8262 8263 8263 8264 8265 8264 8266 8262 8271 8263 
8264 8261 8266 8262 8264 8262 8266 8265 8266 8265 8264 8265 8263 8261 8263 8263 8267 8262 8263 8265 8267 8267 8269 8271 8270 8268 8270 8266 8210 8208 8227 8265 8264 8255 8262 8227 8258 8267 8268 8246 8226 8228 8195 8199 8214 8248 8265 8263 8268 8264 8264 8269 8270 8268 8268 8265 8264 8266 8267 8267 8267 8265 8268 8267 8269 8271 8266 8269 8269 8266 8266 8262 8263 8263 8266 8265 8266 8265 8270 8265 
8259 8263 8267 8263 8261 8265 8266 8266 8266 8264 8264 8262 8264 8265 8262 8267 8266 8268 8266 8268 8269 8264 8271 8271 8274 8280 8281 8269 8214 8269 8290 8291 8292 8293 8294 8298 8309 8311 8309 8267 8224 8213 8205 8201 8215 8258 8273 8266 8277 8273 8274 8272 8273 8268 8268 8265 8267 8266 8267 8267 8265 8267 8271 8267 8267 8268 8269 8271 8267 8267 8263 8263 8265 8264 8264 8264 8267 8265 8263 8268 
8263 8267 8269 8266 8265 8264 8268 8268 8263 8259 8265 8267 8267 8267 8264 8266 8270 8271 8269 8272 8276 8273 8274 8277 8288 8292 8292 8277 8247 8298 8304 8303 8306 8307 8309 8314 8316 8309 8269 8272 8206 8211 8212 8210 8208 8256 8277 8276 8298 8294 8297 8297 8287 8272 8264 8264 8264 8267 8266 8267 8265 8268 8268 8269 8267 8268 8269 8269 8264 8264 8265 8263 8265 8264 8264 8264 8266 8265 8268 8264 
8262 8266 8266 8262 8262 8263 8270 8266 8265 8262 8260 8268 8269 8266 8269 8266 8270 8274 8273 8274 8279 8278 8279 8276 8289 8297 8299 8304 8289 8305 8308 8309 8320 8318 8320 8323 8324 8277 8248 8230 8237 8234 8261 8276 8240 8258 8285 8285 8301 8305 8307 8310 8301 8274 8270 8264 8266 8263 8265 8265 8266 8267 8267 8269 8268 8267 8265 8268 8266 8264 8265 8263 8266 8264 8264 8268 8269 8264 8266 8261 
8264 8266 8265 8262 8266 8265 8269 8268 8265 8261 8266 8268 8269 8272 8271 8269 8270 8271 8269 8272 8276 8276 8279 8274 8287 8301 8312 8317 8317 8320 8323 8323 8328 8331 8335 8334 8333 8326 8318 8313 8310 8313 8319 8320 8323 8317 8314 8310 8317 8323 8324 8320 8301 8269 8268 8265 8263 8266 8268 8268 8264 8263 8265 8264 8264 8267 8267 8268 8264 8265 8262 8261 8265 8265 8269 8267 8266 8261 8265 8263 
8263 8263 8264 8263 8261 8266 8266 8264 8262 8266 8267 8272 8269 8268 8271 8267 8268 8269 8268 8272 8270 8270 8279 8278 8289 8312 8323 8333 8329 8332 8332 8335 8335 8332 8338 8341 8341 8333 8335 8330 8325 8324 8325 8325 8327 8321 8314 8315 8317 8323 8328 8323 8301 8271 8266 8267 8267 8266 8266 8269 8263 8263 8266 8266 8267 8267 8265 8270 8265 8264 8265 8262 8266 8268 8267 8265 8268 8264 8268 8264 
8258 8261 8262 8261 8265 8264 8268 8267 8263 8267 8266 8271 8269 8267 8262 8266 8270 8267 8269 8274 8272 8270 8278 8279 8286 8310 8329 8348 8342 8342 8345 8346 8345 8338 8341 8345 8345 8343 8343 8337 8326 8324 8323 8323 8324 8319 8313 8315 8321 8325 8332 8326 8290 8271 8269 8266 8264 8266 8264 8264 8263 8261 8263 8265 8266 8265 8266 8268 8263 8265 8264 8263 8264 8269 8265 8266 8267 8263 8263 8265 
8253 8261 8263 8263 8265 8265 8267 8267 8266 8265 8268 8268 8266 8263 8263 8263 8267 8266 8273 8273 8276 8274 8278 8280 8277 8289 8319 8337 8346 8349 8355 8358 8359 8352 8348 8356 8355 8352 8358 8348 8337 8329 8325 8321 8323 8316 8315 8317 8320 8329 8327 8294 8272 8266 8268 8262 8263 8266 8266 8265 8261 8261 8262 8263 8264 8263 8265 8267 8265 8263 8261 8261 8262 8265 8267 8265 8265 8263 8264 8262 
8249 8257 8264 8253 8258 8264 8266 8266 8261 8260 8261 8267 8262 8261 8264 8261 8265 8268 8274 8275 8276 8273 8277 8279 8274 8281 8306 8317 8325 8335 8343 8352 8356 8346 8342 8348 8348 8347 8345 8342 8333 8326 8319 8316 8315 8314 8309 8307 8311 8315 8312 8284 8267 8264 8265 8266 8262 8264 8265 8264 8261 8260 8262 8264 8262 8263 8264 8266 8262 8263 8264 8265 8265 8266 8267 8263 8266 8261 8261 8261 
8245 8253 8261 8252 8256 8262 8263 8262 8261 8259 8263 8263 8267 8263 8264 8267 8268 8270 8271 8274 8276 8271 8276 8275 8275 8281 8297 8306 8311 8315 8325 8330 8333 8326 8331 8331 8333 8335 8334 8334 8329 8321 8314 8309 8310 8303 8299 8300 8301 8303 8299 8276 8266 8262 8267 8264 8263 8264 8264 8263 8262 8261 8259 8264 8263 8263 8263 8263 8261 8261 8263 8264 8265 8266 8266 8266 8264 8264 8260 8262 
8240 8246 8251 8249 8251 8259 8262 8259 8260 8262 8262 8261 8267 8265 8262 8265 8267 8270 8271 8272 8271 8269 8278 8276 8276 8277 8288 8297 8302 8306 8311 8317 8316 8311 8314 8316 8316 8316 8319 8318 8317 8309 8309 8306 8301 8299 8289 8291 8296 8295 8289 8270 8265 8263 8265 8259 8264 8261 8260 8265 8262 8262 8262 8261 8264 8265 8264 8262 8262 8259 8260 8263 8263 8263 8264 8264 8266 8261 8259 8257 
8237 8246 8248 8247 8249 8254 8259 8259 8259 8257 8259 8261 8265 8266 8262 8265 8268 8271 8268 8274 8273 8267 8277 8274 8275 8276 8281 8290 8293 8295 8300 8304 8308 8301 8301 8300 8301 8296 8303 8304 8303 8300 8297 8297 8296 8290 8286 8288 8289 8286 8278 8265 8259 8263 8265 8262 8262 8261 8260 8262 8263 8263 8264 8264 8264 8265 8260 8265 8257 8260 8261 8262 8264 8262 8262 8261 8262 8262 8262 8262 
8233 8244 8247 8245 8246 8250 8254 8251 8256 8254 8256 8254 8258 8265 8265 8266 8272 8271 8271 8276 8273 8273 8276 8272 8270 8276 8279 8285 8287 8295 8296 8294 8298 8292 8291 8290 8290 8291 8293 8294 8296 8295 8292 8297 8292 8288 8282 8284 8281 8278 8273 8266 8263 8262 8265 8262 8261 8263 8261 8260 8259 8259 8263 8260 8260 8263 8260 8260 8263 8260 8262 8262 8264 8266 8261 8260 8261 8259 8264 8257 
8233 8233 8234 8229 8237 8245 8248 8249 8248 8247 8251 8250 8256 8261 8266 8269 8270 8272 8272 8276 8276 8274 8277 8277 8271 8275 8279 8282 8286 8292 8291 8291 8295 8291 8292 8293 8290 8291 8291 8292 8293 8294 8292 8293 8294 8286 8284 8282 8281 8277 8273 8267 8264 8263 8265 8262 8260 8260 8257 8258 8256 8258 8258 8261 8259 8260 8260 8265 8264 8263 8263 8262 8265 8263 8265 8262 8260 8255 8264 8260 
8229 8228 8226 8226 8231 8240 8245 8247 8249 8250 8253 8255 8257 8265 8267 8274 8277 8276 8276 8279 8281 8279 8281 8280 8280 8278 8277 8287 8285 8291 8291 8292 8292 8290 8292 8293 8293 8294 8292 8293 8296 8294 8290 8290 8293 8287 8281 8280 8277 8273 8269 8266 8263 8262 8262 8259 8260 8260 8255 8254 8255 8255 8255 8256 8255 8259 8258 8263 8261 8264 8264 8263 8265 8267 8264 8262 8261 8260 8264 8260 
8224 8224 8223 8224 8229 8237 8249 8256 8263 8273 8283 8274 8265 8267 8273 8284 8284 8283 8283 8285 8289 8282 8287 8292 8288 8281 8275 8287 8288 8285 8288 8289 8286 8289 8290 8289 8289 8287 8287 8289 8293 8292 8290 8290 8288 8284 8280 8280 8275 8271 8255 8260 8262 8259 8263 8257 8258 8256 8254 8248 8250 8252 8250 8255 8255 8257 8258 8256 8265 8261 8263 8263 8267 8267 8267 8261 8261 8260 8261 8256 
8229 8222 8227 8235 8244 8248 8258 8273 8281 8294 8295 8284 8286 8290 8298 8301 8300 8291 8289 8289 8291 8290 8301 8299 8284 8273 8276 8284 8285 8286 8284 8286 8288 8282 8285 8287 8284 8282 8283 8281 8287 8288 8287 8284 8283 8279 8277 8275 8274 8268 8238 8237 8247 8258 8259 8259 8256 8258 8252 8249 8247 8247 8250 8250 8250 8251 8252 8256 8257 8261 8265 8262 8268 8265 8267 8266 8264 8260 8260 8259 
8234 8242 8252 8256 8258 8264 8263 8261 8264 8268 8270 8277 8299 8309 8309 8305 8300 8295 8296 8291 8292 8292 8300 8297 8274 8269 8275 8283 8279 8281 8283 8283 8284 8279 8278 8280 8284 8279 8280 8280 8281 8286 8282 8284 8282 8280 8273 8276 8270 8262 8239 8239 8238 8253 8260 8262 8261 8261 8256 8246 8246 8245 8243 8247 8241 8244 8252 8257 8257 8260 8262 8262 8267 8265 8266 8263 8264 8259 8260 8255 
8273 8291 8289 8286 8284 8282 8302 8282 8268 8265 8271 8297 8308 8318 8310 8308 8299 8298 8295 8293 8294 8291 8296 8298 8285 8273 8276 8280 8281 8279 8278 8277 8277 8274 8275 8273 8272 8276 8279 8279 8276 8279 8279 8274 8279 8278 8277 8273 8274 8256 8236 8244 8249 8266 8266 8270 8271 8271 8256 8248 8244 8242 8240 8241 8242 8247 8249 8252 8256 8260 8261 8256 8266 8264 8267 8263 8264 8259 8260 8253 
8282 8297 8297 8304 8313 8310 8302 8296 8284 8291 8301 8310 8323 8326 8315 8306 8303 8305 8302 8297 8303 8301 8306 8305 8299 8291 8274 8279 8280 8279 8276 8276 8275 8272 8270 8271 8272 8268 8273 8275 8273 8274 8274 8276 8278 8277 8268 8270 8265 8244 8236 8250 8279 8282 8284 8287 8283 8284 8269 8256 8252 8247 8242 8243 8242 8248 8249 8248 8257 8255 8260 8255 8259 8257 8263 8264 8265 8257 8257 8254 
8286 8296 8309 8310 8313 8298 8291 8284 8286 8298 8309 8319 8324 8323 8313 8302 8311 8306 8305 8308 8302 8304 8308 8309 8309 8306 8281 8267 8263 8261 8269 8272 8272 8271 8275 8272 8271 8269 8272 8274 8268 8270 8272 8275 8273 8270 8258 8247 8238 8234 8239 8266 8277 8286 8287 8287 8288 8282 8280 8271 8254 8250 8246 8240 8244 8251 8240 8248 8255 8249 8252 8258 8263 8257 8264 8262 8258 8252 8256 8257 
8290 8304 8312 8300 8291 8282 8285 8290 8301 8313 8323 8325 8325 8318 8313 8310 8311 8309 8304 8306 8307 8308 8312 8315 8317 8315 8296 8269 8254 8248 8252 8249 8248 8252 8254 8256 8258 8257 8255 8254 8248 8250 8251 8251 8250 8249 8238 8237 8235 8240 8253 8280 8280 8277 8285 8285 8283 8280 8278 8272 8263 8254 8250 8242 8250 8256 8244 8253 8258 8256 8252 8258 8260 8256 8258 8260 8261 8253 8260 8260 
8300 8310 8304 8293 8284 8284 8295 8307 8311 8326 8328 8330 8324 8318 8312 8309 8309 8305 8303 8310 8309 8308 8315 8314 8315 8315 8301 8277 8259 8250 8249 8244 8244 8245 8246 8248 8247 8247 8243 8243 8240 8241 8244 8247 8248 8246 8237 8242 8238 8243 8260 8280 8278 8278 8283 8281 8286 8285 8279 8277 8268 8256 8247 8241 8244 8251 8247 8245 8255 8259 8258 8258 8261 8262 8258 8258 8259 8260 8261 8259 
8302 8288 8282 8275 8276 8285 8307 8312 8317 8328 8331 8314 8319 8311 8312 8310 8308 8305 8299 8307 8315 8314 8316 8317 8316 8297 8309 8289 8268 8259 8251 8251 8252 8246 8248 8249 8249 8248 8240 8243 8243 8247 8245 8253 8249 8246 8237 8242 8246 8249 8274 8280 8279 8280 8282 8284 8284 8286 8284 8280 8273 8263 8253 8245 8242 8247 8246 8251 8248 8253 8261 8258 8259 8263 8262 8258 8262 8257 8257 8256 
8298 8290 8291 8276 8270 8272 8282 8285 8289 8295 8295 8289 8297 8293 8286 8285 8285 8294 8288 8296 8304 8295 8305 8311 8309 8296 8293 8298 8284 8266 8258 8253 8257 8246 8246 8253 8250 8242 8240 8242 8238 8248 8244 8251 8255 8243 8244 8249 8252 8272 8280 8284 8276 8280 8284 8282 8282 8284 8281 8279 8274 8267 8264 8253 8249 8245 8253 8258 8250 8254 8264 8260 8256 8257 8260 8261 8257 8256 8259 8258 
8288 8290 8282 8275 8275 8267 8269 8263 8269 8271 8274 8259 8265 8267 8268 8268 8269 8271 8269 8276 8273 8276 8283 8290 8298 8287 8292 8290 8293 8273 8261 8257 8252 8247 8240 8243 8246 8236 8242 8249 8246 8244 8234 8251 8255 8253 8257 8269 8271 8275 8282 8283 8274 8270 8278 8275 8279 8281 8275 8274 8273 8271 8268 8249 8247 8243 8244 8256 8260 8255 8260 8263 8262 8259 8267 8265 8264 8249 8262 8260 
8284 8278 8275 8267 8266 8264 8269 8269 8275 8284 8278 8259 8256 8254 8253 8249 8253 8257 8248 8248 8249 8246 8252 8260 8275 8268 8265 8264 8263 8260 8265 8255 8253 8253 8246 8250 8247 8247 8244 8254 8248 8251 8250 8253 8260 8263 8277 8284 8276 8273 8270 8267 8261 8264 8258 8263 8267 8269 8269 8266 8266 8258 8253 8246 8248 8245 8246 8259 8266 8266 8257 8258 8261 8261 8259 8266 8272 8261 8262 8258 
8291 8282 8275 8271 8271 8277 8286 8288 8288 8282 8282 8262 8261 8267 8262 8255 8258 8263 8258 8264 8254 8254 8260 8266 8269 8269 8262 8266 8264 8258 8261 8263 8262 8258 8259 8264 8260 8261 8261 8259 8265 8269 8270 8273 8270 8271 8277 8282 8280 8272 8263 8260 8252 8252 8258 8256 8266 8269 8262 8266 8267 8263 8260 8254 8252 8254 8252 8265 8268 8270 8266 8267 8262 8264 8265 8269 8271 8262 8262 8263 


