P2
80 60
8299
8273 8279 8280 8279 8276 8276 8275 8269 8268 8268 8267 8264 8265 8263 8262 8264 8265 8261 8265 8267 8266 8266 8266 8268 8271 8275 8278 8279 8287 8282 8286 8288 8290 8290 8291 8289 8288 8287 8288 8292 8287 8285 8285 8283 8282 8282 8279 8285 8282 8283 8279 8271 8273 8271 8268 8269 8272 8272 8271 8275 8276 8279 8283 8280 8284 8283 8284 8284 8287 8290 8289 8287 8293 8296 8293 8295 8296 8296 8295 8294 
8273 8283 8281 8283 8282 8280 8273 8266 8272 8268 8264 8266 8264 8265 8262 8267 8266 8262 8266 8267 8265 8268 8266 8263 8266 8269 8271 8276 8283 8281 8288 8284 8286 8290 8287 8288 8285 8288 8292 8291 8286 8286 8285 8279 8282 8280 8279 8282 8282 8283 8275 8275 8270 8271 8268 8268 8269 8269 8271 8277 8277 8280 8283 8280 8285 8284 8282 8283 8288 8288 8292 8291 8294 8294 8295 8296 8297 8296 8295 8297 
8262 8271 8269 8270 8276 8276 8272 8268 8268 8267 8262 8263 8260 8262 8263 8262 8263 8262 8262 8266 8260 8262 8265 8260 8266 8269 8269 8274 8283 8281 8284 8286 8288 8289 8288 8286 8288 8288 8287 8289 8286 8281 8277 8278 8280 8280 8280 8281 8279 8280 8278 8268 8270 8271 8272 8269 8270 8274 8273 8271 8278 8282 8282 8284 8287 8284 8285 8283 8288 8288 8292 8288 8292 8296 8291 8294 8293 8291 8295 8289 
8264 8263 8268 8267 8271 8268 8271 8268 8268 8262 8261 8254 8260 8260 8259 8260 8260 8262 8262 8261 8257 8254 8249 8265 8262 8268 8270 8274 8279 8281 8282 8285 8285 8287 8288 8285 8287 8288 8286 8289 8282 8279 8279 8277 8278 8279 8280 8282 8279 8276 8273 8268 8270 8272 8269 8270 8270 8274 8271 8275 8278 8284 8281 8285 8280 8281 8283 8283 8284 8289 8290 8294 8292 8292 8290 8289 8293 8291 8290 8288 
8258 8267 8267 8266 8267 8268 8272 8268 8265 8266 8256 8252 8257 8257 8252 8259 8258 8257 8256 8265 8257 8258 8249 8256 8259 8268 8269 8273 8275 8278 8281 8283 8283 8284 8287 8281 8286 8286 8287 8286 8287 8283 8277 8275 8277 8275 8274 8278 8276 8281 8271 8268 8269 8272 8271 8270 8270 8276 8276 8279 8283 8284 8281 8281 8280 8278 8281 8282 8284 8289 8291 8291 8291 8293 8290 8289 8292 8291 8291 8293 
8257 8262 8263 8260 8261 8263 8264 8264 8263 8260 8251 8255 8251 8253 8251 8254 8255 8250 8261 8263 8257 8258 8256 8257 8260 8271 8267 8267 8276 8279 8283 8284 8284 8286 8283 8283 8283 8286 8285 8288 8284 8281 8277 8272 8275 8276 8275 8278 8277 8279 8271 8267 8271 8273 8271 8271 8272 8275 8276 8280 8282 8285 8282 8283 8283 8279 8281 8281 8287 8287 8291 8288 8293 8293 8287 8291 8292 8292 8292 8287 
8255 8260 8261 8264 8259 8259 8263 8264 8259 8252 8247 8255 8251 8252 8250 8253 8252 8255 8259 8262 8254 8257 8257 8260 8263 8265 8259 8264 8273 8279 8280 8282 8285 8282 8283 8280 8279 8282 8286 8286 8282 8281 8275 8275 8273 8272 8277 8275 8275 8279 8271 8267 8271 8267 8274 8271 8273 8274 8276 8279 8278 8280 8282 8278 8281 8281 8286 8285 8281 8288 8288 8288 8290 8289 8287 8291 8287 8289 8284 8291 
8257 8259 8255 8262 8258 8261 8263 8263 8265 8249 8252 8256 8253 8252 8252 8252 8254 8253 8256 8258 8256 8256 8257 8256 8257 8265 8260 8260 8272 8279 8280 8283 8284 8279 8279 8283 8279 8282 8284 8285 8281 8276 8275 8272 8272 8270 8269 8273 8272 8270 8266 8265 8268 8267 8270 8268 8272 8274 8275 8276 8272 8278 8281 8278 8279 8281 8287 8286 8285 8285 8288 8285 8288 8286 8289 8285 8283 8288 8287 8287 
8255 8254 8256 8258 8262 8259 8262 8263 8268 8248 8250 8256 8250 8251 8249 8250 8253 8254 8258 8259 8257 8255 8253 8258 8256 8264 8260 8264 8272 8277 8282 8282 8278 8280 8280 8282 8282 8280 8281 8282 8280 8274 8273 8271 8271 8274 8271 8272 8271 8269 8267 8265 8269 8268 8268 8269 8273 8276 8271 8275 8274 8274 8279 8278 8284 8281 8282 8288 8285 8287 8289 8286 8287 8289 8288 8290 8288 8285 8289 8284 
8252 8252 8260 8260 8260 8263 8260 8266 8260 8260 8256 8254 8251 8250 8250 8250 8254 8253 8258 8258 8255 8251 8251 8252 8256 8261 8259 8266 8274 8275 8279 8279 8272 8277 8282 8278 8280 8279 8277 8278 8274 8276 8271 8269 8270 8273 8271 8276 8272 8270 8265 8265 8266 8268 8270 8265 8275 8273 8270 8275 8273 8277 8277 8278 8279 8281 8284 8283 8286 8285 8290 8286 8284 8289 8289 8287 8289 8291 8288 8286 
8254 8254 8262 8259 8256 8261 8262 8256 8262 8258 8255 8251 8253 8255 8250 8253 8257 8251 8252 8255 8256 8253 8250 8252 8252 8257 8262 8267 8275 8274 8280 8277 8274 8277 8277 8276 8278 8278 8277 8277 8277 8273 8270 8270 8272 8273 8275 8274 8274 8274 8264 8264 8266 8269 8267 8264 8272 8271 8275 8275 8279 8279 8277 8279 8279 8278 8286 8285 8283 8286 8287 8286 8283 8288 8285 8286 8289 8293 8288 8290 
8256 8260 8259 8257 8257 8262 8256 8255 8260 8254 8257 8257 8254 8256 8252 8256 8253 8252 8253 8255 8257 8254 8249 8253 8252 8255 8262 8265 8273 8273 8279 8275 8275 8278 8275 8275 8276 8279 8276 8276 8270 8273 8270 8272 8272 8271 8272 8275 8273 8274 8270 8267 8270 8271 8267 8267 8270 8273 8272 8277 8276 8277 8277 8278 8279 8279 8283 8286 8288 8286 8282 8282 8285 8283 8279 8283 8285 8286 8288 8288 
8257 8260 8258 8256 8253 8254 8256 8256 8253 8255 8252 8255 8252 8256 8253 8253 8255 8254 8253 8254 8250 8252 8246 8251 8251 8257 8259 8264 8266 8274 8276 8271 8272 8272 8272 8272 8276 8279 8271 8270 8272 8269 8268 8269 8273 8271 8271 8272 8271 8273 8271 8272 8270 8269 8266 8265 8267 8270 8270 8274 8275 8276 8276 8277 8281 8280 8285 8284 8284 8283 8283 8279 8280 8282 8279 8280 8284 8286 8282 8282 
8257 8264 8261 8259 8258 8256 8259 8258 8256 8256 8256 8253 8255 8256 8254 8257 8256 8254 8255 8257 8254 8250 8251 8253 8252 8256 8260 8261 8269 8269 8276 8272 8272 8273 8272 8271 8273 8275 8270 8271 8272 8267 8267 8270 8270 8268 8269 8272 8268 8271 8268 8270 8269 8269 8267 8264 8270 8269 8269 8275 8276 8276 8278 8280 8288 8284 8286 8285 8282 8287 8282 8279 8279 8282 8283 8283 8283 8287 8283 8284 
8256 8255 8263 8260 8257 8254 8256 8260 8259 8256 8255 8258 8255 8258 8253 8255 8253 8254 8258 8258 8248 8249 8245 8252 8249 8258 8259 8263 8269 8271 8271 8269 8268 8274 8272 8271 8271 8268 8271 8268 8268 8267 8269 8266 8266 8267 8267 8269 8270 8270 8268 8268 8266 8266 8269 8265 8271 8272 8270 8274 8276 8276 8276 8284 8286 8285 8284 8283 8284 8284 8283 8280 8280 8283 8277 8283 8283 8284 8280 8283 
8255 8255 8256 8260 8256 8254 8256 8257 8257 8259 8253 8252 8254 8254 8254 8253 8256 8255 8258 8257 8250 8248 8251 8250 8253 8256 8260 8263 8264 8270 8269 8264 8266 8270 8267 8267 8271 8268 8268 8268 8265 8264 8263 8264 8264 8264 8263 8266 8267 8267 8265 8265 8265 8265 8264 8267 8269 8269 8273 8279 8277 8274 8277 8281 8285 8283 8280 8284 8285 8284 8281 8280 8278 8284 8280 8280 8281 8280 8280 8280 
8252 8253 8254 8261 8258 8252 8258 8258 8259 8258 8256 8255 8254 8257 8253 8253 8253 8254 8254 8254 8251 8250 8246 8251 8252 8260 8260 8264 8270 8266 8265 8249 8249 8262 8263 8268 8267 8266 8270 8266 8264 8265 8263 8268 8264 8266 8266 8264 8259 8263 8262 8259 8264 8262 8263 8263 8266 8270 8269 8277 8275 8278 8276 8283 8284 8283 8282 8286 8283 8283 8280 8279 8280 8284 8281 8283 8283 8281 8277 8277 
8254 8256 8259 8260 8256 8257 8256 8260 8260 8261 8256 8256 8256 8257 8256 8255 8256 8253 8256 8254 8253 8248 8252 8249 8255 8263 8265 8262 8268 8264 8233 8214 8210 8204 8229 8244 8252 8260 8264 8261 8262 8266 8263 8264 8268 8265 8263 8262 8237 8236 8241 8255 8260 8263 8264 8267 8268 8271 8270 8278 8278 8279 8280 8281 8283 8281 8283 8285 8282 8282 8279 8278 8280 8283 8281 8283 8281 8280 8275 8278 
8253 8254 8259 8258 8261 8261 8260 8264 8264 8260 8259 8255 8260 8254 8254 8257 8253 8253 8254 8252 8253 8249 8250 8254 8254 8262 8264 8260 8264 8246 8222 8248 8213 8205 8219 8204 8223 8234 8248 8230 8253 8255 8261 8259 8265 8263 8264 8260 8225 8224 8218 8245 8258 8262 8264 8266 8272 8271 8272 8279 8275 8274 8280 8281 8284 8281 8279 8281 8280 8283 8279 8278 8278 8279 8279 8278 8280 8277 8277 8279 
8253 8255 8255 8262 8257 8261 8261 8261 8261 8258 8256 8257 8255 8258 8254 8253 8253 8250 8250 8253 8246 8248 8250 8251 8252 8256 8260 8256 8253 8205 8242 8260 8222 8200 8198 8208 8204 8219 8227 8199 8216 8221 8220 8235 8257 8260 8257 8253 8225 8224 8221 8254 8258 8265 8270 8265 8270 8274 8273 8275 8277 8275 8280 8281 8282 8279 8281 8278 8278 8280 8279 8277 8277 8277 8275 8276 8274 8279 8274 8275 
8254 8257 8254 8256 8254 8256 8256 8261 8263 8259 8258 8258 8256 8257 8257 8254 8253 8250 8248 8248 8249 8249 8250 8252 8251 8255 8254 8258 8260 8219 8244 8256 8210 8198 8195 8215 8209 8199 8213 8198 8196 8204 8186 8203 8233 8247 8257 8244 8225 8223 8221 8254 8260 8264 8271 8269 8272 8270 8270 8270 8271 8274 8276 8281 8280 8275 8278 8278 8281 8277 8277 8272 8274 8274 8275 8276 8274 8276 8275 8272 
8253 8261 8258 8261 8258 8255 8251 8259 8259 8260 8256 8256 8256 8255 8254 8251 8250 8247 8247 8250 8252 8252 8251 8252 8250 8250 8253 8256 8261 8251 8229 8236 8200 8201 8200 8193 8187 8193 8192 8189 8176 8193 8194 8189 8208 8221 8250 8237 8223 8221 8229 8256 8256 8261 8264 8266 8267 8268 8266 8267 8272 8269 8274 8277 8277 8275 8276 8276 8276 8275 8274 8273 8272 8272 8272 8274 8277 8276 8271 8268 
8253 8261 8257 8259 8257 8255 8250 8253 8254 8258 8255 8256 8254 8255 8250 8253 8253 8247 8244 8249 8251 8250 8249 8249 8253 8255 8257 8256 8259 8231 8198 8203 8192 8203 8191 8186 8182 8191 8193 8208 8181 8199 8198 8203 8212 8215 8246 8226 8219 8217 8234 8257 8257 8259 8262 8261 8267 8267 8263 8266 8268 8270 8270 8270 8272 8273 8269 8273 8274 8273 8275 8269 8268 8270 8271 8270 8273 8273 8272 8270 
8251 8261 8257 8260 8257 8257 8253 8253 8256 8258 8258 8255 8253 8258 8252 8251 8249 8247 8248 8248 8251 8248 8248 8247 8252 8250 8255 8254 8244 8188 8183 8199 8191 8192 8192 8184 8194 8195 8200 8212 8182 8209 8218 8213 8188 8211 8243 8223 8218 8216 8245 8256 8255 8256 8261 8260 8264 8266 8265 8264 8267 8268 8268 8270 8271 8271 8268 8272 8270 8268 8268 8268 8269 8270 8271 8268 8273 8271 8272 8271 
8250 8250 8256 8257 8259 8257 8251 8258 8254 8254 8257 8256 8255 8254 8250 8250 8249 8247 8244 8248 8249 8249 8246 8249 8247 8253 8253 8253 8226 8189 8186 8197 8188 8194 8192 8185 8221 8197 8229 8212 8187 8220 8231 8241 8227 8194 8222 8219 8218 8218 8248 8252 8252 8257 8262 8261 8264 8268 8266 8267 8267 8265 8267 8268 8269 8268 8269 8269 8268 8268 8266 8261 8263 8270 8271 8272 8273 8274 8267 8267 
8254 8253 8253 8261 8255 8254 8254 8251 8251 8255 8254 8255 8252 8255 8252 8248 8251 8250 8250 8245 8245 8246 8249 8246 8246 8250 8253 8254 8237 8215 8196 8202 8201 8216 8194 8191 8217 8201 8201 8203 8221 8242 8202 8225 8237 8215 8200 8217 8222 8223 8250 8252 8253 8254 8259 8260 8265 8266 8265 8266 8267 8268 8269 8268 8272 8269 8268 8266 8268 8269 8266 8264 8264 8267 8267 8272 8273 8275 8269 8268 
8250 8251 8255 8256 8254 8254 8255 8251 8250 8251 8253 8256 8255 8253 8250 8248 8249 8248 8251 8247 8246 8246 8246 8246 8247 8248 8253 8251 8221 8194 8204 8199 8194 8204 8190 8191 8195 8196 8194 8190 8212 8228 8239 8247 8229 8232 8210 8216 8222 8233 8248 8251 8253 8255 8261 8257 8261 8269 8265 8267 8266 8267 8267 8272 8272 8266 8265 8265 8265 8268 8266 8262 8264 8268 8269 8273 8272 8274 8269 8263 
8247 8253 8253 8253 8252 8250 8253 8252 8254 8253 8252 8255 8253 8253 8253 8253 8254 8250 8250 8251 8248 8241 8247 8248 8250 8255 8256 8247 8215 8200 8202 8191 8181 8198 8194 8200 8233 8197 8188 8194 8197 8192 8219 8247 8238 8245 8223 8215 8222 8237 8252 8251 8254 8257 8261 8260 8262 8264 8265 8269 8264 8268 8269 8268 8270 8268 8263 8262 8265 8262 8264 8257 8263 8266 8267 8271 8272 8274 8268 8269 
8248 8250 8258 8255 8255 8254 8256 8253 8252 8253 8254 8254 8254 8258 8256 8254 8252 8250 8250 8253 8246 8244 8244 8250 8253 8244 8249 8237 8206 8206 8204 8196 8189 8198 8195 8197 8214 8197 8194 8202 8193 8184 8200 8225 8233 8246 8221 8221 8221 8246 8251 8251 8254 8260 8260 8262 8264 8263 8264 8263 8264 8263 8265 8273 8269 8269 8263 8263 8263 8263 8262 8259 8262 8266 8266 8271 8272 8272 8270 8271 
8243 8251 8254 8255 8251 8255 8257 8255 8254 8253 8253 8256 8254 8258 8253 8249 8251 8252 8253 8250 8246 8246 8247 8250 8249 8244 8227 8219 8206 8210 8202 8199 8197 8203 8191 8185 8191 8194 8193 8209 8194 8188 8196 8231 8214 8230 8215 8218 8220 8247 8255 8256 8255 8258 8260 8258 8265 8261 8260 8260 8259 8261 8267 8269 8272 8270 8266 8261 8261 8263 8261 8260 8263 8263 8265 8268 8270 8270 8269 8271 
8246 8249 8247 8253 8249 8253 8252 8258 8254 8254 8256 8252 8251 8252 8249 8249 8246 8249 8247 8248 8246 8244 8248 8251 8251 8241 8209 8204 8225 8202 8190 8193 8200 8214 8190 8186 8184 8189 8193 8192 8196 8192 8206 8245 8247 8236 8214 8219 8219 8253 8256 8253 8254 8256 8259 8255 8260 8256 8255 8258 8258 8260 8265 8269 8270 8264 8263 8260 8262 8260 8264 8261 8263 8261 8266 8267 8270 8270 8270 8271 
8247 8248 8250 8251 8249 8253 8252 8253 8253 8253 8251 8254 8252 8249 8246 8249 8250 8249 8250 8251 8248 8248 8248 8249 8218 8197 8190 8229 8234 8220 8199 8189 8200 8207 8191 8189 8183 8182 8193 8199 8208 8195 8211 8250 8253 8236 8217 8219 8228 8256 8251 8252 8252 8256 8253 8254 8257 8262 8255 8256 8261 8261 8263 8266 8268 8261 8259 8260 8260 8264 8264 8263 8261 8264 8263 8268 8271 8274 8271 8270 
8247 8251 8249 8254 8252 8251 8254 8254 8254 8256 8251 8254 8249 8246 8246 8251 8250 8250 8249 8249 8248 8246 8249 8222 8193 8191 8222 8256 8259 8235 8221 8198 8193 8195 8193 8188 8186 8188 8200 8220 8246 8207 8224 8249 8255 8235 8220 8219 8232 8253 8254 8255 8254 8255 8256 8249 8259 8262 8258 8262 8262 8262 8263 8264 8263 8263 8258 8261 8265 8263 8262 8262 8263 8266 8267 8266 8271 8275 8274 8272 
8248 8251 8253 8254 8251 8255 8252 8253 8255 8252 8255 8251 8250 8252 8248 8249 8249 8253 8253 8250 8249 8247 8248 8223 8230 8224 8242 8245 8244 8222 8219 8200 8196 8192 8193 8190 8191 8195 8214 8251 8256 8242 8244 8254 8257 8227 8217 8220 8240 8257 8257 8255 8252 8251 8252 8253 8257 8262 8258 8260 8260 8260 8262 8263 8264 8263 8263 8263 8262 8263 8265 8260 8265 8268 8269 8265 8272 8279 8270 8265 
8252 8254 8257 8251 8253 8253 8257 8259 8253 8251 8251 8253 8254 8254 8250 8249 8252 8255 8255 8254 8256 8253 8249 8242 8230 8229 8236 8238 8225 8208 8236 8203 8194 8197 8198 8195 8192 8195 8208 8247 8262 8259 8255 8254 8254 8219 8213 8222 8246 8258 8258 8257 8268 8257 8256 8251 8257 8260 8256 8259 8261 8261 8261 8263 8264 8263 8263 8261 8264 8269 8266 8260 8266 8267 8263 8266 8270 8273 8269 8269 
8254 8254 8251 8251 8251 8253 8255 8253 8253 8251 8249 8252 8256 8254 8251 8251 8254 8255 8253 8256 8255 8257 8256 8250 8225 8215 8223 8227 8220 8219 8236 8210 8210 8209 8207 8207 8201 8197 8220 8232 8255 8253 8251 8257 8253 8222 8220 8230 8252 8258 8256 8255 8263 8260 8258 8253 8259 8260 8259 8257 8259 8262 8262 8262 8266 8262 8262 8261 8261 8264 8262 8262 8265 8268 8264 8266 8270 8271 8266 8266 
8253 8255 8250 8248 8251 8254 8255 8252 8252 8248 8251 8252 8254 8256 8252 8252 8254 8252 8254 8254 8255 8254 8253 8250 8226 8217 8221 8221 8223 8222 8226 8228 8240 8246 8248 8251 8256 8259 8260 8263 8264 8265 8267 8266 8266 8263 8264 8262 8262 8258 8249 8255 8261 8258 8256 8254 8256 8255 8256 8258 8261 8260 8259 8262 8265 8262 8261 8260 8259 8260 8261 8262 8265 8267 8265 8269 8270 8270 8266 8266 
8243 8252 8250 8249 8250 8252 8253 8249 8249 8249 8253 8252 8252 8251 8250 8251 8246 8248 8251 8253 8247 8248 8250 8251 8233 8224 8225 8223 8225 8226 8229 8232 8238 8245 8252 8254 8262 8267 8268 8274 8268 8271 8268 8265 8267 8267 8269 8265 8257 8252 8253 8262 8263 8259 8257 8255 8257 8257 8253 8259 8257 8259 8261 8258 8261 8262 8261 8261 8259 8258 8261 8259 8262 8266 8267 8266 8268 8267 8262 8263 
8243 8249 8250 8254 8249 8252 8253 8251 8251 8251 8249 8253 8249 8249 8244 8244 8249 8248 8248 8251 8247 8247 8253 8257 8252 8235 8227 8230 8232 8233 8236 8238 8241 8239 8244 8252 8261 8265 8268 8272 8271 8271 8271 8267 8267 8269 8270 8273 8259 8254 8257 8270 8261 8260 8255 8257 8257 8259 8257 8257 8258 8256 8256 8261 8262 8259 8262 8260 8260 8260 8264 8261 8262 8267 8266 8269 8265 8266 8262 8263 
8238 8254 8251 8252 8253 8252 8252 8256 8251 8253 8251 8252 8250 8247 8245 8241 8244 8244 8252 8251 8248 8246 8251 8259 8252 8235 8213 8214 8220 8228 8234 8236 8236 8232 8237 8252 8261 8269 8281 8281 8279 8280 8279 8279 8277 8276 8276 8273 8257 8257 8264 8260 8257 8257 8258 8256 8256 8256 8256 8258 8256 8257 8257 8259 8262 8259 8258 8261 8261 8262 8260 8259 8261 8266 8264 8266 8266 8261 8260 8259 
8235 8248 8250 8243 8244 8249 8251 8249 8249 8248 8246 8250 8244 8246 8246 8241 8241 8248 8254 8248 8250 8248 8247 8256 8249 8234 8214 8205 8212 8213 8218 8222 8225 8221 8223 8237 8244 8248 8256 8261 8270 8277 8277 8273 8272 8267 8261 8259 8249 8246 8257 8256 8255 8256 8255 8254 8256 8258 8260 8260 8257 8259 8255 8260 8260 8259 8261 8258 8262 8261 8264 8262 8261 8265 8265 8266 8263 8264 8261 8257 
8235 8235 8245 8242 8244 8247 8247 8246 8246 8249 8245 8247 8245 8245 8246 8244 8245 8247 8250 8253 8250 8249 8249 8253 8255 8240 8215 8212 8211 8211 8215 8218 8219 8221 8224 8230 8234 8235 8236 8239 8243 8256 8264 8259 8258 8254 8257 8258 8248 8242 8253 8256 8253 8256 8259 8258 8255 8255 8254 8257 8256 8257 8257 8260 8263 8261 8261 8255 8259 8258 8262 8260 8267 8266 8265 8263 8262 8263 8260 8264 
8227 8234 8234 8238 8238 8243 8244 8246 8248 8250 8245 8244 8246 8246 8241 8243 8244 8247 8249 8248 8249 8247 8251 8256 8255 8246 8217 8211 8215 8216 8218 8221 8223 8218 8225 8225 8226 8231 8229 8232 8234 8237 8247 8248 8246 8251 8252 8246 8243 8246 8252 8252 8255 8255 8258 8256 8258 8257 8255 8256 8257 8259 8260 8260 8263 8263 8260 8253 8256 8260 8260 8260 8262 8264 8260 8263 8264 8265 8261 8257 
8226 8234 8232 8236 8236 8241 8245 8245 8245 8244 8240 8243 8244 8245 8242 8242 8243 8248 8246 8250 8249 8243 8248 8254 8254 8251 8220 8214 8219 8217 8220 8223 8226 8220 8221 8222 8223 8226 8228 8232 8229 8232 8233 8243 8243 8242 8245 8246 8243 8245 8248 8252 8253 8256 8259 8254 8258 8256 8255 8260 8258 8258 8258 8257 8264 8261 8256 8255 8254 8259 8261 8262 8260 8263 8264 8260 8263 8264 8262 8258 
8221 8231 8230 8228 8233 8237 8237 8237 8243 8242 8240 8236 8236 8245 8242 8242 8248 8249 8247 8252 8246 8245 8250 8249 8249 8252 8226 8217 8219 8222 8226 8224 8228 8220 8217 8219 8221 8225 8227 8225 8226 8227 8232 8238 8241 8240 8241 8245 8242 8243 8249 8251 8254 8256 8258 8255 8256 8257 8255 8257 8259 8257 8259 8259 8259 8260 8258 8256 8258 8259 8259 8260 8261 8265 8257 8257 8260 8263 8261 8254 
8218 8221 8216 8217 8222 8228 8230 8234 8235 8232 8235 8231 8234 8239 8243 8247 8243 8250 8252 8251 8252 8251 8251 8255 8252 8255 8228 8219 8223 8225 8234 8228 8231 8233 8233 8232 8231 8229 8227 8230 8232 8233 8235 8239 8239 8242 8240 8245 8242 8246 8253 8253 8255 8256 8256 8255 8254 8256 8253 8256 8255 8254 8251 8257 8257 8255 8257 8261 8260 8261 8263 8260 8263 8267 8260 8262 8259 8257 8256 8259 
8216 8217 8213 8218 8218 8227 8233 8233 8237 8234 8236 8236 8237 8242 8241 8251 8253 8251 8254 8259 8261 8258 8260 8264 8261 8253 8232 8221 8224 8226 8234 8232 8233 8232 8237 8236 8235 8234 8230 8230 8234 8233 8234 8235 8241 8241 8243 8246 8247 8249 8258 8256 8253 8256 8254 8253 8257 8256 8249 8248 8251 8251 8250 8251 8253 8255 8256 8254 8261 8262 8264 8262 8264 8269 8261 8261 8261 8263 8253 8259 
8215 8218 8212 8214 8216 8224 8237 8242 8246 8253 8251 8244 8239 8241 8244 8256 8259 8256 8260 8262 8269 8262 8263 8261 8247 8240 8226 8221 8225 8227 8230 8233 8233 8239 8238 8236 8233 8231 8232 8231 8236 8240 8237 8238 8237 8236 8239 8247 8247 8251 8255 8255 8258 8253 8257 8252 8252 8253 8250 8248 8245 8248 8244 8250 8254 8256 8252 8252 8262 8258 8260 8262 8264 8270 8266 8265 8265 8262 8261 8259 
8214 8215 8219 8229 8233 8236 8243 8254 8259 8258 8252 8244 8251 8262 8260 8263 8266 8268 8269 8268 8270 8267 8265 8248 8240 8240 8233 8218 8223 8225 8228 8228 8238 8233 8236 8234 8237 8233 8229 8231 8237 8238 8239 8234 8232 8233 8239 8241 8246 8245 8235 8253 8257 8257 8256 8252 8254 8254 8244 8241 8246 8241 8242 8248 8246 8248 8249 8246 8255 8254 8263 8260 8264 8268 8267 8269 8264 8259 8258 8257 
8220 8228 8238 8244 8240 8244 8239 8242 8242 8242 8245 8252 8272 8278 8269 8271 8275 8278 8280 8275 8272 8275 8267 8239 8237 8237 8238 8221 8223 8225 8229 8229 8231 8231 8230 8235 8236 8230 8229 8233 8234 8236 8234 8234 8228 8231 8235 8246 8240 8242 8232 8249 8261 8260 8258 8256 8259 8260 8252 8244 8242 8239 8244 8243 8234 8238 8244 8249 8253 8256 8256 8266 8266 8268 8270 8268 8268 8266 8257 8258 
8255 8268 8266 8265 8263 8251 8262 8243 8238 8239 8251 8273 8278 8281 8274 8283 8278 8281 8281 8275 8276 8278 8274 8256 8241 8243 8241 8225 8223 8223 8228 8227 8229 8230 8227 8227 8227 8233 8233 8234 8233 8234 8232 8224 8232 8232 8239 8240 8244 8241 8247 8270 8267 8267 8261 8266 8271 8267 8254 8247 8243 8242 8237 8233 8234 8238 8244 8245 8252 8259 8259 8255 8267 8269 8266 8262 8264 8263 8258 8254 
8260 8269 8264 8274 8276 8267 8252 8250 8241 8265 8279 8278 8286 8287 8280 8280 8281 8286 8283 8275 8281 8281 8283 8284 8249 8244 8244 8226 8228 8226 8224 8226 8226 8225 8225 8225 8227 8230 8230 8232 8233 8231 8227 8225 8227 8230 8227 8234 8233 8237 8271 8281 8288 8282 8284 8285 8284 8285 8268 8258 8249 8247 8243 8234 8238 8244 8245 8242 8256 8250 8259 8255 8256 8254 8265 8266 8267 8260 8255 8257 
8256 8264 8268 8272 8264 8248 8246 8250 8267 8287 8279 8276 8276 8286 8282 8276 8282 8284 8282 8281 8280 8281 8285 8288 8270 8244 8234 8227 8227 8222 8224 8229 8224 8225 8231 8230 8229 8231 8231 8235 8226 8224 8225 8226 8225 8223 8224 8226 8227 8253 8276 8283 8276 8286 8288 8285 8288 8287 8280 8273 8258 8247 8245 8236 8246 8255 8238 8245 8256 8251 8252 8262 8261 8261 8265 8267 8258 8259 8258 8258 
8257 8263 8264 8258 8250 8245 8252 8271 8288 8290 8282 8279 8279 8283 8281 8284 8286 8285 8285 8278 8281 8285 8289 8297 8294 8260 8239 8228 8227 8225 8228 8222 8224 8229 8229 8227 8228 8230 8229 8226 8221 8222 8220 8222 8226 8228 8227 8233 8248 8275 8281 8280 8277 8272 8282 8283 8283 8280 8277 8272 8267 8255 8249 8239 8250 8254 8237 8255 8257 8257 8252 8261 8262 8259 8259 8263 8260 8260 8254 8262 
8254 8258 8252 8248 8247 8260 8280 8292 8287 8289 8281 8282 8281 8287 8285 8282 8281 8280 8283 8285 8286 8287 8288 8296 8298 8278 8248 8235 8231 8228 8226 8225 8224 8226 8228 8227 8230 8229 8224 8223 8224 8220 8225 8225 8228 8231 8226 8241 8259 8281 8276 8279 8274 8276 8280 8278 8284 8285 8276 8278 8272 8257 8245 8238 8240 8246 8243 8237 8254 8260 8262 8256 8262 8265 8258 8261 8260 8261 8257 8261 
8249 8247 8244 8249 8255 8279 8297 8292 8285 8285 8282 8270 8286 8285 8285 8287 8283 8281 8275 8281 8292 8292 8296 8299 8299 8277 8266 8247 8240 8235 8230 8232 8232 8229 8229 8230 8228 8228 8222 8228 8227 8228 8229 8233 8234 8232 8231 8252 8282 8280 8281 8278 8272 8278 8279 8279 8285 8284 8279 8281 8272 8261 8249 8239 8238 8243 8245 8246 8245 8249 8264 8260 8261 8268 8266 8262 8262 8263 8259 8258 
8246 8246 8257 8263 8260 8260 8266 8261 8262 8258 8256 8254 8267 8269 8263 8260 8259 8268 8262 8268 8275 8271 8279 8291 8294 8285 8276 8263 8252 8244 8239 8234 8237 8231 8232 8235 8235 8228 8225 8231 8224 8228 8229 8234 8239 8238 8252 8277 8286 8282 8279 8280 8271 8277 8283 8280 8279 8282 8277 8274 8274 8264 8258 8248 8247 8244 8252 8253 8248 8253 8263 8266 8257 8263 8262 8261 8258 8262 8257 8260 
8252 8260 8266 8260 8263 8253 8248 8243 8246 8239 8234 8233 8241 8246 8248 8245 8243 8244 8245 8248 8245 8252 8256 8264 8276 8272 8282 8281 8277 8255 8244 8242 8234 8234 8221 8226 8233 8224 8230 8235 8234 8226 8227 8249 8257 8265 8276 8283 8278 8278 8280 8278 8270 8268 8277 8273 8276 8277 8272 8269 8267 8270 8260 8248 8244 8239 8243 8254 8259 8249 8261 8264 8265 8264 8265 8270 8267 8255 8258 8259 
8265 8265 8263 8260 8254 8243 8239 8243 8241 8243 8238 8232 8232 8237 8236 8231 8229 8228 8228 8228 8225 8224 8229 8239 8253 8247 8256 8262 8266 8263 8268 8251 8246 8250 8243 8242 8241 8245 8242 8254 8245 8250 8256 8262 8263 8262 8272 8281 8276 8276 8266 8261 8258 8257 8253 8256 8262 8262 8266 8260 8265 8254 8250 8244 8244 8242 8241 8256 8263 8265 8256 8258 8264 8266 8265 8274 8274 8264 8260 8262 
8283 8272 8267 8262 8254 8247 8246 8241 8246 8246 8241 8234 8233 8247 8241 8232 8233 8237 8237 8242 8233 8238 8235 8243 8244 8250 8258 8260 8262 8264 8264 8263 8262 8261 8261 8266 8265 8266 8264 8262 8261 8263 8266 8270 8267 8263 8275 8281 8282 8278 8255 8250 8243 8243 8248 8246 8258 8258 8259 8261 8262 8257 8254 8249 8254 8249 8251 8259 8262 8269 8263 8266 8267 8268 8268 8272 8272 8273 8265 8263 


