P2
80 60
8220
8176 8172 8171 8174 8176 8180 8180 8181 8181 8184 8183 8184 8190 8190 8189 8189 8191 8190 8193 8194 8199 8195 8199 8200 8202 8211 8216 8211 8211 8209 8211 8209 8212 8210 8210 8211 8214 8210 8214 8216 8218 8215 8215 8212 8215 8208 8208 8213 8211 8207 8204 8204 8201 8199 8196 8195 8194 8191 8193 8190 8192 8192 8189 8194 8196 8197 8197 8202 8195 8197 8196 8197 8195 8195 8194 8191 8192 8188 8187 8191 
8173 8171 8176 8177 8178 8181 8180 8179 8180 8182 8188 8184 8191 8190 8188 8191 8194 8196 8193 8195 8200 8193 8203 8198 8204 8212 8216 8214 8209 8206 8210 8212 8210 8211 8210 8213 8212 8213 8217 8218 8218 8216 8217 8215 8217 8209 8208 8206 8209 8205 8205 8203 8203 8201 8196 8195 8192 8192 8192 8192 8192 8194 8191 8194 8198 8198 8198 8199 8194 8196 8198 8193 8194 8194 8192 8195 8191 8190 8184 8182 
8178 8175 8174 8179 8178 8179 8179 8178 8180 8187 8188 8188 8188 8187 8188 8193 8192 8196 8196 8198 8198 8197 8198 8199 8205 8214 8220 8218 8213 8205 8210 8211 8210 8214 8213 8213 8211 8216 8217 8218 8217 8219 8214 8214 8218 8212 8209 8211 8210 8205 8204 8203 8203 8201 8200 8195 8196 8193 8190 8192 8193 8194 8193 8194 8197 8198 8199 8202 8199 8203 8195 8196 8196 8193 8193 8195 8191 8190 8185 8185 
8175 8173 8175 8181 8183 8183 8182 8180 8182 8184 8186 8188 8188 8187 8186 8191 8196 8192 8193 8198 8201 8195 8199 8203 8203 8214 8219 8219 8213 8209 8208 8212 8211 8211 8213 8212 8213 8216 8217 8218 8220 8218 8216 8215 8217 8211 8210 8211 8208 8205 8204 8204 8201 8202 8199 8197 8195 8193 8194 8194 8195 8197 8194 8195 8198 8194 8195 8197 8200 8200 8198 8197 8199 8192 8193 8192 8190 8188 8186 8183 
8176 8173 8177 8177 8182 8180 8180 8181 8183 8183 8184 8186 8188 8187 8190 8193 8195 8196 8191 8195 8197 8191 8197 8202 8204 8214 8217 8217 8213 8210 8210 8212 8210 8212 8212 8213 8215 8214 8217 8218 8218 8215 8216 8215 8213 8209 8206 8210 8210 8210 8203 8203 8202 8205 8201 8195 8196 8194 8197 8194 8195 8193 8194 8194 8195 8192 8193 8195 8196 8197 8195 8201 8198 8194 8194 8193 8189 8188 8187 8185 
8181 8176 8176 8178 8183 8183 8184 8184 8183 8184 8185 8184 8188 8188 8191 8190 8193 8193 8193 8195 8195 8194 8199 8202 8204 8212 8218 8213 8215 8208 8208 8212 8210 8212 8212 8214 8216 8216 8216 8220 8214 8216 8215 8211 8214 8208 8207 8207 8210 8208 8203 8205 8200 8201 8201 8196 8193 8194 8197 8192 8195 8193 8192 8196 8190 8193 8191 8192 8197 8192 8196 8194 8197 8196 8194 8191 8187 8188 8183 8181 
8178 8174 8176 8180 8182 8183 8181 8180 8182 8183 8184 8184 8185 8187 8186 8190 8189 8195 8194 8196 8199 8194 8198 8201 8204 8214 8215 8212 8209 8210 8212 8210 8208 8211 8214 8212 8213 8211 8218 8216 8217 8215 8212 8212 8212 8209 8207 8207 8208 8208 8203 8203 8202 8201 8197 8195 8197 8194 8192 8191 8195 8195 8193 8194 8193 8191 8191 8193 8192 8194 8193 8193 8194 8191 8194 8190 8187 8184 8181 8182 
8176 8174 8173 8177 8181 8180 8182 8181 8183 8182 8182 8183 8185 8187 8188 8189 8191 8194 8195 8198 8200 8196 8201 8200 8204 8210 8218 8212 8210 8210 8212 8213 8211 8210 8212 8212 8214 8212 8215 8216 8216 8215 8214 8211 8213 8207 8207 8210 8208 8206 8205 8203 8201 8196 8198 8195 8194 8197 8193 8192 8194 8191 8191 8192 8194 8189 8190 8193 8193 8191 8193 8190 8191 8187 8190 8190 8189 8183 8178 8182 
8176 8175 8179 8178 8180 8183 8180 8181 8184 8184 8183 8184 8186 8186 8185 8189 8191 8193 8195 8196 8199 8197 8199 8198 8202 8209 8216 8215 8209 8208 8212 8211 8210 8210 8211 8211 8211 8211 8214 8214 8214 8214 8212 8212 8212 8208 8206 8207 8210 8204 8203 8203 8202 8196 8198 8194 8197 8195 8191 8194 8195 8194 8193 8194 8189 8190 8189 8189 8190 8190 8190 8190 8191 8188 8189 8190 8186 8186 8182 8181 
8178 8180 8178 8179 8184 8184 8183 8183 8185 8186 8183 8186 8184 8187 8187 8188 8191 8193 8195 8195 8196 8194 8197 8199 8202 8212 8215 8213 8210 8207 8210 8212 8205 8209 8211 8213 8211 8211 8213 8215 8214 8215 8213 8211 8213 8207 8206 8208 8208 8203 8202 8206 8200 8200 8199 8196 8197 8193 8191 8192 8196 8192 8193 8192 8188 8190 8188 8190 8189 8188 8190 8189 8190 8187 8185 8184 8188 8188 8180 8184 
8179 8178 8179 8179 8184 8186 8184 8185 8185 8184 8183 8185 8187 8188 8186 8186 8193 8193 8192 8196 8197 8191 8196 8199 8204 8211 8217 8213 8211 8208 8210 8210 8207 8207 8208 8209 8211 8210 8212 8212 8216 8216 8214 8214 8214 8207 8210 8209 8207 8205 8203 8206 8198 8204 8199 8198 8197 8195 8193 8194 8193 8195 8193 8190 8192 8191 8191 8189 8189 8187 8189 8191 8190 8188 8185 8184 8184 8185 8183 8184 
8179 8179 8179 8181 8183 8184 8180 8181 8185 8184 8186 8185 8188 8187 8189 8190 8192 8194 8193 8194 8198 8193 8199 8200 8200 8211 8214 8217 8215 8209 8211 8210 8208 8207 8208 8211 8209 8208 8213 8213 8216 8213 8213 8214 8216 8208 8209 8207 8206 8204 8203 8207 8200 8203 8200 8197 8195 8195 8195 8193 8193 8194 8190 8193 8190 8192 8187 8191 8192 8188 8188 8186 8189 8185 8184 8184 8186 8182 8178 8179 
8182 8177 8179 8184 8182 8182 8182 8183 8182 8186 8185 8187 8190 8188 8188 8190 8190 8194 8193 8196 8198 8197 8197 8201 8202 8211 8214 8215 8212 8207 8210 8210 8207 8209 8208 8207 8212 8211 8209 8213 8211 8214 8213 8212 8214 8210 8207 8208 8208 8206 8203 8206 8200 8203 8201 8196 8197 8199 8195 8191 8197 8194 8191 8193 8194 8193 8191 8193 8192 8189 8190 8186 8188 8187 8186 8185 8186 8181 8178 8176 
8184 8180 8180 8186 8185 8183 8184 8183 8185 8184 8186 8186 8189 8189 8189 8189 8192 8196 8195 8198 8199 8196 8201 8201 8204 8212 8216 8217 8211 8210 8209 8209 8206 8206 8210 8208 8212 8211 8209 8210 8211 8215 8214 8216 8214 8210 8203 8206 8208 8205 8204 8204 8200 8203 8200 8199 8198 8195 8196 8195 8193 8196 8194 8191 8195 8192 8191 8191 8192 8190 8189 8187 8189 8192 8187 8183 8184 8186 8177 8177 
8180 8178 8184 8181 8185 8184 8183 8183 8184 8187 8186 8188 8188 8191 8190 8192 8194 8196 8196 8197 8197 8191 8197 8196 8202 8210 8216 8213 8213 8206 8209 8208 8207 8207 8209 8207 8208 8209 8209 8208 8213 8211 8211 8212 8214 8208 8205 8204 8207 8203 8203 8204 8199 8200 8201 8198 8197 8196 8194 8194 8194 8197 8195 8194 8193 8199 8191 8193 8192 8189 8191 8188 8188 8188 8185 8187 8187 8187 8181 8184 
8182 8179 8180 8180 8185 8186 8184 8186 8183 8190 8185 8187 8191 8192 8191 8194 8195 8197 8194 8198 8198 8197 8197 8198 8201 8212 8218 8217 8213 8209 8208 8209 8204 8207 8208 8209 8209 8205 8207 8210 8212 8215 8212 8210 8212 8205 8202 8206 8207 8204 8205 8205 8203 8200 8199 8195 8197 8196 8197 8193 8198 8196 8194 8196 8196 8198 8191 8193 8190 8192 8193 8189 8191 8193 8188 8187 8187 8187 8179 8180 
8181 8180 8182 8183 8189 8184 8182 8184 8185 8187 8192 8189 8190 8191 8193 8195 8193 8198 8198 8197 8198 8199 8198 8197 8201 8216 8218 8217 8213 8207 8209 8209 8207 8208 8208 8211 8208 8208 8209 8212 8212 8210 8198 8212 8213 8203 8205 8206 8206 8206 8201 8204 8201 8199 8197 8197 8196 8195 8195 8195 8194 8198 8197 8195 8195 8195 8193 8195 8191 8191 8189 8190 8191 8192 8188 8187 8188 8186 8182 8183 
8182 8180 8181 8184 8189 8186 8186 8189 8186 8189 8189 8190 8189 8190 8190 8197 8198 8198 8197 8199 8199 8197 8197 8199 8201 8213 8220 8216 8213 8209 8209 8211 8206 8209 8210 8211 8209 8207 8207 8209 8209 8202 8170 8205 8209 8203 8200 8204 8205 8204 8202 8204 8199 8199 8196 8193 8192 8195 8193 8193 8195 8194 8189 8193 8195 8193 8194 8194 8192 8185 8187 8189 8190 8190 8192 8188 8188 8184 8180 8180 
8183 8180 8181 8183 8189 8184 8185 8186 8187 8190 8190 8190 8190 8192 8195 8195 8197 8199 8196 8198 8200 8197 8202 8201 8204 8212 8219 8216 8211 8208 8210 8210 8209 8209 8210 8211 8209 8207 8204 8207 8202 8189 8160 8197 8203 8200 8195 8202 8201 8200 8202 8204 8201 8198 8199 8197 8196 8194 8197 8194 8197 8197 8194 8195 8196 8199 8193 8197 8192 8190 8190 8190 8193 8191 8191 8189 8189 8188 8185 8183 
8185 8179 8181 8183 8188 8187 8180 8186 8190 8192 8189 8191 8194 8193 8192 8195 8197 8198 8197 8198 8200 8195 8200 8199 8205 8213 8220 8216 8211 8205 8208 8209 8208 8211 8211 8211 8210 8206 8202 8182 8168 8158 8154 8164 8163 8155 8154 8165 8188 8199 8199 8203 8199 8197 8198 8195 8196 8196 8193 8191 8192 8193 8193 8196 8196 8195 8196 8192 8194 8191 8194 8193 8192 8188 8189 8190 8189 8188 8184 8188 
8180 8181 8185 8183 8184 8188 8184 8187 8189 8194 8192 8194 8191 8195 8195 8193 8197 8195 8195 8196 8196 8196 8201 8199 8203 8213 8218 8214 8209 8207 8206 8209 8206 8210 8209 8212 8207 8204 8175 8160 8160 8157 8159 8157 8151 8150 8151 8152 8162 8175 8185 8199 8200 8197 8193 8194 8196 8194 8194 8195 8195 8195 8194 8200 8195 8198 8195 8195 8192 8192 8196 8194 8195 8191 8191 8191 8189 8190 8187 8190 
8186 8180 8184 8186 8189 8185 8189 8188 8190 8191 8193 8192 8194 8194 8193 8194 8195 8193 8197 8195 8197 8194 8200 8197 8201 8209 8213 8214 8210 8206 8205 8207 8206 8208 8210 8209 8207 8200 8182 8158 8157 8159 8155 8149 8150 8145 8173 8168 8194 8199 8197 8200 8199 8199 8198 8194 8196 8193 8194 8194 8194 8198 8197 8198 8196 8196 8196 8196 8194 8192 8195 8195 8196 8193 8192 8190 8189 8192 8186 8189 
8184 8183 8181 8184 8189 8183 8184 8184 8187 8191 8194 8195 8195 8196 8194 8196 8195 8198 8195 8199 8199 8197 8203 8198 8201 8208 8215 8211 8212 8208 8208 8210 8208 8207 8210 8207 8207 8206 8189 8174 8160 8155 8149 8145 8148 8150 8183 8198 8201 8200 8197 8201 8200 8199 8194 8196 8197 8194 8193 8193 8197 8194 8196 8197 8196 8198 8198 8195 8197 8192 8195 8194 8197 8193 8192 8190 8187 8192 8190 8186 
8186 8185 8186 8185 8186 8186 8183 8186 8188 8190 8194 8193 8195 8194 8195 8200 8197 8200 8196 8199 8200 8196 8199 8200 8201 8198 8184 8179 8191 8204 8206 8213 8209 8207 8207 8209 8208 8205 8200 8184 8184 8184 8173 8150 8147 8156 8172 8198 8202 8200 8200 8200 8197 8200 8197 8198 8198 8196 8194 8193 8196 8197 8197 8196 8198 8196 8195 8196 8197 8194 8195 8191 8193 8191 8193 8192 8188 8191 8189 8185 
8185 8182 8185 8186 8188 8184 8187 8185 8189 8190 8192 8193 8198 8196 8194 8196 8195 8199 8197 8196 8199 8195 8199 8198 8200 8184 8162 8162 8183 8206 8208 8211 8212 8209 8209 8209 8207 8207 8200 8204 8207 8207 8204 8175 8151 8179 8186 8183 8203 8200 8202 8203 8196 8199 8198 8197 8197 8195 8197 8197 8196 8198 8197 8199 8199 8200 8194 8197 8193 8193 8196 8192 8195 8189 8193 8190 8190 8190 8187 8184 
8185 8183 8184 8185 8187 8187 8186 8184 8188 8191 8195 8198 8196 8196 8195 8197 8196 8200 8195 8197 8199 8197 8198 8200 8200 8184 8167 8163 8185 8206 8208 8209 8211 8211 8210 8211 8209 8207 8211 8211 8212 8208 8205 8186 8167 8200 8202 8200 8203 8203 8202 8202 8199 8199 8198 8198 8197 8195 8195 8198 8197 8198 8200 8199 8197 8201 8197 8197 8194 8190 8192 8191 8194 8194 8191 8193 8192 8191 8188 8187 
8185 8182 8183 8186 8188 8189 8187 8185 8190 8191 8194 8194 8199 8198 8191 8196 8198 8199 8198 8198 8199 8197 8201 8200 8200 8185 8171 8169 8189 8207 8209 8212 8207 8210 8209 8207 8208 8205 8207 8207 8208 8208 8207 8182 8183 8203 8206 8205 8206 8202 8200 8201 8201 8199 8200 8198 8199 8197 8197 8195 8197 8198 8198 8198 8198 8200 8197 8197 8193 8191 8193 8193 8197 8195 8194 8193 8194 8191 8187 8189 
8184 8184 8185 8188 8186 8188 8188 8190 8188 8192 8193 8196 8197 8197 8197 8194 8197 8199 8199 8199 8201 8195 8200 8201 8201 8186 8171 8172 8191 8207 8210 8212 8208 8209 8208 8205 8196 8181 8174 8168 8175 8180 8179 8178 8184 8205 8203 8205 8206 8204 8198 8202 8198 8200 8201 8201 8200 8195 8200 8196 8196 8200 8198 8202 8200 8198 8200 8197 8193 8192 8192 8193 8193 8192 8196 8192 8193 8192 8188 8187 
8184 8181 8183 8187 8189 8187 8189 8189 8190 8193 8193 8194 8194 8196 8194 8195 8197 8196 8198 8200 8199 8194 8200 8200 8202 8181 8172 8170 8189 8208 8209 8210 8208 8208 8197 8173 8165 8156 8150 8148 8151 8155 8158 8172 8188 8204 8203 8204 8205 8206 8199 8203 8197 8201 8202 8200 8201 8199 8199 8198 8197 8198 8197 8199 8201 8196 8197 8195 8195 8191 8193 8193 8195 8193 8194 8191 8196 8192 8190 8191 
8182 8184 8186 8186 8191 8190 8188 8192 8190 8193 8194 8196 8196 8195 8195 8193 8194 8197 8198 8196 8197 8196 8202 8200 8200 8180 8168 8167 8188 8206 8207 8211 8210 8200 8176 8157 8156 8164 8152 8148 8176 8172 8163 8169 8196 8203 8200 8205 8201 8206 8199 8205 8199 8199 8201 8199 8200 8201 8198 8198 8198 8198 8198 8196 8198 8195 8195 8194 8193 8192 8189 8193 8193 8192 8193 8193 8194 8191 8190 8191 
8187 8183 8187 8187 8192 8191 8193 8193 8191 8195 8197 8196 8195 8197 8197 8196 8196 8198 8199 8196 8198 8198 8201 8201 8205 8181 8175 8169 8192 8208 8209 8211 8208 8194 8175 8153 8165 8195 8171 8156 8202 8208 8180 8161 8201 8205 8201 8205 8206 8203 8202 8204 8198 8202 8201 8199 8201 8200 8197 8197 8196 8199 8196 8198 8195 8195 8193 8193 8193 8192 8194 8190 8194 8194 8192 8197 8198 8193 8190 8193 
8185 8183 8189 8191 8195 8190 8192 8191 8192 8194 8192 8196 8195 8196 8196 8195 8198 8197 8196 8197 8199 8199 8200 8201 8203 8178 8171 8171 8196 8208 8208 8208 8206 8201 8169 8155 8179 8192 8203 8200 8207 8209 8203 8164 8204 8206 8203 8203 8206 8201 8200 8200 8200 8200 8198 8200 8200 8201 8197 8197 8195 8198 8201 8198 8194 8196 8193 8192 8189 8188 8190 8190 8192 8193 8191 8191 8191 8193 8190 8188 
8186 8188 8188 8192 8192 8193 8191 8192 8192 8196 8194 8195 8195 8198 8196 8198 8199 8196 8198 8196 8201 8201 8202 8203 8203 8180 8169 8173 8194 8206 8206 8206 8204 8198 8168 8173 8168 8180 8191 8189 8201 8211 8203 8165 8204 8205 8184 8179 8189 8192 8195 8198 8195 8199 8199 8199 8201 8198 8199 8199 8196 8199 8194 8196 8195 8197 8193 8192 8192 8190 8190 8189 8192 8190 8190 8190 8190 8193 8185 8184 
8191 8188 8188 8190 8194 8191 8191 8192 8192 8195 8195 8195 8194 8194 8197 8200 8196 8198 8200 8197 8201 8201 8201 8201 8204 8179 8170 8170 8194 8206 8205 8206 8203 8201 8189 8169 8165 8173 8176 8176 8179 8201 8205 8168 8205 8203 8162 8155 8157 8155 8156 8163 8169 8177 8188 8197 8201 8198 8195 8197 8194 8202 8198 8198 8195 8197 8191 8192 8190 8190 8190 8189 8190 8191 8193 8191 8190 8191 8186 8184 
8192 8190 8189 8192 8194 8192 8190 8191 8192 8193 8196 8192 8191 8195 8196 8198 8197 8199 8202 8202 8201 8201 8201 8202 8203 8179 8169 8167 8195 8205 8202 8207 8198 8186 8173 8160 8151 8151 8170 8155 8156 8188 8201 8164 8196 8176 8155 8152 8154 8151 8148 8146 8153 8155 8157 8181 8197 8195 8194 8193 8195 8196 8197 8196 8195 8194 8190 8190 8189 8190 8188 8187 8193 8190 8190 8191 8188 8189 8186 8187 
8193 8192 8190 8199 8195 8192 8192 8190 8193 8195 8194 8194 8196 8197 8197 8199 8199 8199 8202 8201 8206 8202 8203 8202 8201 8177 8170 8168 8196 8206 8207 8203 8201 8186 8163 8166 8158 8149 8158 8151 8152 8163 8175 8161 8179 8197 8178 8160 8159 8156 8150 8149 8165 8176 8160 8167 8195 8192 8192 8193 8195 8196 8195 8194 8193 8193 8192 8195 8193 8189 8191 8189 8191 8191 8191 8186 8189 8187 8184 8185 
8193 8190 8190 8191 8196 8194 8192 8192 8192 8193 8194 8198 8197 8197 8199 8196 8199 8200 8202 8204 8204 8201 8206 8204 8203 8177 8172 8174 8196 8207 8208 8207 8204 8187 8195 8184 8161 8151 8153 8153 8153 8156 8153 8159 8200 8207 8200 8190 8188 8192 8163 8176 8195 8198 8176 8163 8185 8193 8192 8192 8195 8195 8196 8194 8196 8194 8191 8190 8194 8189 8191 8193 8194 8186 8190 8188 8190 8187 8182 8186 
8196 8193 8191 8194 8196 8194 8195 8195 8192 8193 8197 8199 8198 8199 8198 8197 8196 8197 8201 8203 8206 8205 8205 8204 8204 8177 8171 8172 8197 8209 8209 8209 8207 8205 8208 8199 8185 8156 8169 8175 8160 8162 8153 8158 8189 8208 8203 8205 8205 8202 8199 8199 8198 8198 8197 8188 8175 8193 8192 8193 8191 8195 8195 8194 8193 8195 8190 8193 8191 8188 8191 8191 8193 8191 8187 8189 8190 8187 8181 8185 
8196 8193 8191 8194 8198 8197 8195 8196 8195 8196 8197 8197 8198 8197 8196 8197 8200 8198 8199 8205 8204 8199 8203 8202 8204 8183 8172 8169 8197 8209 8209 8206 8204 8205 8203 8204 8203 8173 8183 8181 8174 8164 8158 8172 8204 8204 8203 8204 8205 8205 8202 8204 8203 8200 8203 8199 8182 8193 8197 8192 8192 8196 8195 8196 8195 8195 8191 8191 8190 8191 8190 8191 8191 8189 8189 8188 8186 8187 8181 8183 
8192 8193 8192 8195 8195 8199 8196 8197 8192 8197 8196 8194 8196 8196 8196 8199 8199 8197 8199 8204 8205 8199 8204 8201 8202 8180 8171 8168 8198 8209 8208 8202 8194 8191 8188 8176 8198 8174 8170 8160 8158 8158 8156 8157 8169 8191 8198 8204 8203 8202 8204 8205 8205 8201 8201 8201 8185 8198 8195 8192 8190 8194 8195 8196 8195 8194 8190 8192 8191 8189 8191 8190 8188 8190 8189 8188 8186 8185 8183 8185 
8192 8188 8190 8193 8196 8197 8196 8195 8193 8197 8201 8197 8198 8201 8199 8201 8197 8198 8202 8205 8204 8200 8205 8199 8201 8181 8172 8172 8190 8194 8178 8172 8165 8167 8157 8159 8171 8162 8156 8161 8156 8156 8158 8154 8158 8163 8196 8203 8204 8205 8202 8205 8203 8202 8199 8201 8194 8195 8194 8193 8192 8194 8195 8195 8195 8194 8188 8190 8188 8189 8190 8190 8190 8190 8189 8190 8188 8190 8183 8184 
8193 8192 8190 8194 8196 8197 8196 8196 8194 8199 8199 8199 8202 8200 8201 8200 8200 8203 8200 8204 8203 8201 8199 8191 8182 8172 8175 8171 8169 8164 8157 8161 8159 8162 8158 8157 8163 8161 8157 8158 8155 8157 8154 8159 8158 8154 8177 8191 8196 8198 8202 8203 8202 8200 8201 8197 8200 8196 8196 8198 8196 8196 8196 8195 8196 8193 8191 8192 8192 8187 8192 8191 8192 8190 8187 8189 8188 8189 8185 8180 
8194 8193 8190 8194 8195 8196 8198 8200 8197 8201 8201 8199 8200 8202 8198 8202 8200 8202 8203 8203 8205 8191 8169 8158 8160 8166 8172 8170 8165 8159 8161 8163 8165 8164 8162 8159 8157 8160 8158 8161 8156 8159 8158 8158 8159 8158 8159 8168 8168 8171 8175 8181 8188 8195 8198 8199 8196 8199 8196 8193 8199 8197 8198 8197 8197 8197 8191 8194 8193 8192 8191 8192 8192 8190 8189 8186 8189 8190 8185 8181 
8196 8194 8192 8195 8196 8199 8196 8195 8199 8201 8201 8198 8201 8203 8201 8201 8201 8203 8200 8203 8205 8198 8177 8158 8158 8168 8171 8171 8167 8162 8165 8167 8163 8169 8170 8165 8157 8159 8161 8160 8159 8160 8163 8158 8159 8161 8160 8170 8170 8168 8166 8171 8173 8174 8196 8202 8201 8199 8197 8195 8198 8198 8195 8197 8196 8198 8192 8193 8191 8190 8189 8189 8190 8191 8190 8188 8189 8190 8186 8182 
8195 8194 8193 8197 8195 8197 8195 8195 8197 8199 8199 8200 8205 8204 8205 8204 8204 8204 8204 8202 8204 8200 8185 8164 8159 8170 8174 8170 8165 8162 8166 8168 8168 8168 8174 8170 8172 8170 8165 8163 8162 8163 8165 8159 8163 8162 8162 8169 8171 8170 8172 8173 8171 8176 8198 8208 8201 8199 8196 8196 8197 8196 8197 8195 8194 8194 8194 8190 8190 8189 8189 8190 8194 8189 8190 8189 8186 8190 8182 8181 
8197 8194 8193 8192 8198 8196 8194 8199 8196 8202 8200 8199 8200 8204 8204 8200 8201 8203 8204 8204 8205 8202 8183 8167 8164 8168 8175 8178 8170 8161 8164 8169 8168 8172 8176 8177 8175 8174 8168 8169 8169 8171 8169 8171 8169 8170 8170 8173 8173 8175 8173 8176 8178 8181 8193 8196 8200 8196 8196 8197 8193 8194 8196 8195 8194 8190 8191 8192 8188 8188 8189 8193 8192 8191 8188 8188 8190 8187 8179 8183 
8196 8196 8195 8195 8198 8199 8201 8199 8199 8199 8202 8204 8202 8205 8204 8204 8206 8204 8206 8206 8207 8201 8187 8168 8161 8168 8175 8177 8177 8173 8165 8171 8176 8180 8181 8178 8182 8180 8176 8179 8182 8185 8185 8187 8188 8181 8179 8183 8176 8174 8173 8177 8182 8181 8192 8197 8198 8199 8199 8194 8198 8196 8195 8196 8193 8196 8190 8191 8190 8191 8194 8191 8197 8188 8190 8188 8189 8184 8179 8180 
8196 8194 8196 8195 8199 8200 8200 8200 8201 8206 8203 8201 8208 8205 8207 8205 8204 8205 8206 8208 8209 8202 8200 8188 8167 8171 8177 8175 8177 8171 8171 8172 8177 8181 8183 8179 8180 8179 8179 8178 8183 8188 8185 8188 8189 8175 8177 8180 8175 8177 8176 8176 8177 8181 8195 8197 8198 8196 8195 8196 8195 8197 8194 8193 8192 8194 8190 8193 8192 8191 8191 8191 8193 8190 8191 8188 8187 8186 8182 8183 
8195 8194 8196 8199 8200 8199 8199 8203 8203 8206 8203 8205 8207 8205 8203 8207 8206 8205 8206 8209 8211 8207 8209 8205 8187 8182 8182 8175 8177 8176 8179 8180 8179 8182 8183 8184 8183 8181 8179 8179 8182 8186 8184 8187 8187 8181 8178 8184 8178 8177 8176 8181 8181 8190 8199 8195 8198 8194 8191 8195 8195 8196 8197 8197 8193 8195 8195 8193 8194 8192 8192 8191 8194 8190 8190 8188 8186 8188 8179 8187 
8199 8193 8191 8198 8198 8199 8201 8201 8205 8206 8205 8205 8208 8210 8205 8206 8206 8208 8208 8208 8210 8211 8211 8208 8195 8195 8194 8186 8179 8178 8180 8185 8183 8185 8184 8187 8183 8183 8184 8184 8186 8187 8188 8191 8192 8189 8187 8187 8184 8183 8179 8183 8191 8200 8201 8197 8198 8195 8195 8195 8195 8196 8196 8196 8194 8196 8193 8193 8192 8192 8195 8194 8194 8192 8192 8190 8186 8184 8179 8182 
8194 8191 8192 8193 8203 8198 8199 8200 8205 8205 8206 8207 8207 8207 8206 8208 8208 8211 8207 8205 8214 8210 8212 8210 8202 8199 8202 8195 8191 8183 8186 8188 8191 8193 8193 8195 8198 8190 8194 8196 8195 8198 8195 8197 8196 8193 8191 8189 8193 8190 8190 8192 8196 8200 8201 8198 8198 8195 8195 8195 8195 8197 8193 8196 8194 8194 8194 8193 8190 8194 8192 8191 8191 8190 8190 8188 8187 8182 8177 8182 
8188 8190 8192 8194 8196 8199 8200 8203 8202 8204 8204 8204 8208 8208 8207 8207 8204 8208 8209 8209 8213 8209 8215 8213 8202 8200 8207 8204 8199 8189 8193 8196 8196 8194 8200 8200 8200 8196 8200 8200 8203 8202 8202 8203 8201 8197 8197 8197 8195 8193 8194 8198 8202 8204 8203 8201 8198 8197 8198 8200 8195 8197 8196 8197 8195 8193 8193 8195 8194 8191 8192 8189 8193 8192 8193 8189 8189 8184 8181 8188 
8185 8183 8183 8191 8195 8198 8197 8199 8200 8199 8203 8202 8208 8205 8205 8206 8203 8208 8206 8204 8210 8208 8213 8213 8206 8203 8208 8205 8202 8197 8196 8199 8200 8200 8200 8201 8201 8201 8202 8203 8205 8208 8205 8208 8206 8201 8200 8201 8199 8196 8197 8197 8203 8206 8205 8202 8199 8196 8193 8197 8196 8197 8196 8196 8195 8195 8194 8196 8193 8192 8193 8191 8190 8189 8190 8189 8187 8185 8183 8182 
8182 8173 8176 8180 8183 8192 8194 8192 8193 8199 8205 8201 8203 8204 8202 8203 8206 8205 8203 8203 8205 8203 8213 8214 8207 8203 8211 8205 8203 8196 8199 8200 8197 8203 8205 8204 8202 8202 8205 8205 8206 8208 8208 8209 8205 8201 8200 8202 8203 8199 8200 8202 8205 8205 8203 8199 8198 8195 8193 8193 8197 8200 8194 8194 8194 8193 8191 8192 8194 8194 8196 8189 8192 8187 8186 8188 8187 8184 8179 8177 
8181 8175 8175 8173 8173 8178 8176 8181 8181 8188 8192 8196 8202 8201 8198 8200 8202 8203 8203 8203 8205 8208 8209 8211 8207 8204 8210 8209 8208 8200 8200 8206 8201 8202 8204 8207 8205 8202 8205 8202 8206 8208 8209 8211 8210 8202 8203 8203 8205 8206 8216 8209 8210 8206 8205 8198 8195 8193 8193 8194 8196 8201 8197 8197 8191 8194 8194 8193 8192 8194 8193 8191 8194 8193 8186 8187 8185 8182 8178 8181 
8182 8174 8170 8173 8171 8171 8170 8176 8176 8184 8181 8180 8182 8188 8189 8195 8195 8197 8194 8197 8204 8202 8200 8203 8205 8199 8206 8203 8202 8198 8199 8200 8202 8204 8203 8203 8208 8202 8205 8204 8207 8208 8210 8211 8210 8201 8198 8202 8206 8209 8219 8206 8205 8204 8202 8198 8196 8194 8193 8194 8196 8196 8197 8195 8193 8193 8192 8193 8191 8192 8190 8193 8193 8185 8188 8186 8182 8180 8178 8180 
8180 8177 8173 8173 8173 8167 8173 8172 8173 8178 8177 8179 8180 8185 8182 8182 8181 8181 8181 8190 8193 8189 8192 8193 8194 8201 8207 8197 8199 8199 8197 8200 8204 8201 8201 8207 8204 8201 8201 8203 8205 8210 8209 8207 8206 8201 8200 8200 8204 8204 8201 8202 8205 8203 8201 8196 8194 8193 8191 8194 8191 8193 8192 8194 8194 8194 8191 8194 8192 8192 8193 8194 8190 8190 8189 8185 8184 8181 8180 8177 
8181 8177 8172 8173 8172 8170 8169 8172 8172 8173 8175 8178 8180 8181 8179 8181 8179 8178 8176 8179 8185 8184 8181 8180 8185 8198 8204 8198 8197 8197 8197 8197 8198 8195 8198 8200 8199 8199 8201 8199 8203 8203 8207 8207 8204 8199 8200 8202 8200 8199 8191 8191 8194 8196 8196 8192 8197 8191 8188 8190 8193 8191 8190 8192 8191 8193 8190 8195 8193 8191 8191 8190 8190 8187 8190 8188 8186 8181 8179 8178 
8187 8181 8174 8169 8175 8171 8167 8167 8173 8170 8172 8174 8176 8180 8178 8176 8176 8174 8172 8180 8182 8176 8181 8177 8181 8192 8200 8197 8194 8192 8191 8194 8195 8197 8195 8193 8196 8196 8198 8198 8200 8200 8200 8202 8203 8196 8196 8198 8200 8203 8194 8184 8184 8189 8193 8190 8188 8185 8189 8191 8192 8188 8190 8187 8191 8191 8193 8194 8191 8193 8192 8186 8190 8189 8190 8188 8186 8182 8178 8179 
8193 8181 8174 8172 8175 8168 8171 8170 8172 8171 8168 8174 8177 8177 8177 8179 8174 8172 8176 8178 8182 8177 8180 8176 8178 8188 8201 8198 8194 8184 8183 8183 8187 8197 8197 8191 8193 8195 8195 8195 8195 8198 8201 8200 8204 8204 8196 8198 8207 8208 8198 8192 8188 8193 8199 8197 8194 8192 8192 8193 8192 8189 8190 8193 8192 8194 8194 8198 8193 8192 8192 8190 8192 8189 8194 8185 8185 8184 8176 8180 


