P2
80 60
8217
8132 8138 8144 8164 8167 8171 8165 8166 8170 8169 8177 8177 8175 8176 8175 8172 8173 8175 8183 8186 8182 8187 8185 8187 8190 8188 8189 8192 8193 8195 8200 8202 8199 8196 8193 8200 8202 8201 8204 8205 8203 8204 8200 8200 8200 8203 8202 8202 8201 8197 8195 8192 8191 8190 8189 8184 8187 8190 8186 8188 8192 8193 8191 8191 8191 8191 8192 8196 8200 8200 8203 8207 8202 8206 8206 8205 8205 8212 8210 8207 
8120 8131 8149 8165 8170 8170 8168 8167 8172 8174 8174 8176 8174 8172 8173 8171 8172 8176 8180 8183 8186 8185 8183 8188 8189 8190 8191 8195 8194 8195 8201 8198 8198 8197 8194 8195 8199 8202 8200 8205 8200 8202 8200 8197 8198 8204 8200 8200 8197 8196 8195 8193 8191 8187 8189 8183 8183 8187 8190 8190 8192 8190 8187 8187 8189 8191 8194 8198 8199 8199 8201 8203 8202 8205 8205 8206 8203 8210 8203 8208 
8108 8120 8156 8165 8169 8167 8168 8172 8173 8175 8175 8174 8174 8173 8172 8168 8175 8179 8182 8186 8184 8187 8186 8186 8188 8193 8189 8195 8195 8197 8200 8195 8190 8185 8188 8196 8199 8199 8202 8203 8200 8202 8198 8198 8201 8201 8197 8201 8199 8197 8196 8193 8192 8190 8190 8190 8189 8188 8186 8191 8191 8194 8191 8192 8191 8192 8193 8196 8198 8200 8203 8204 8201 8201 8201 8201 8202 8207 8207 8205 
8110 8131 8161 8167 8169 8170 8171 8172 8173 8174 8172 8172 8174 8171 8172 8175 8177 8180 8179 8181 8181 8183 8180 8185 8189 8191 8192 8194 8194 8198 8199 8188 8157 8144 8151 8169 8193 8199 8200 8198 8198 8197 8195 8195 8198 8196 8198 8198 8195 8195 8196 8195 8192 8190 8187 8182 8183 8184 8189 8191 8193 8194 8191 8189 8191 8193 8193 8196 8199 8200 8198 8201 8200 8201 8203 8200 8203 8202 8207 8202 
8115 8145 8164 8165 8166 8170 8173 8167 8172 8172 8171 8170 8170 8174 8170 8174 8174 8177 8182 8181 8183 8180 8180 8182 8186 8195 8192 8192 8191 8198 8200 8172 8140 8132 8130 8135 8176 8193 8180 8172 8168 8168 8175 8174 8188 8194 8195 8198 8199 8200 8195 8193 8191 8170 8160 8158 8163 8174 8186 8189 8192 8194 8192 8190 8191 8196 8194 8197 8201 8201 8201 8201 8201 8201 8199 8200 8200 8202 8203 8205 
8131 8158 8167 8170 8170 8169 8174 8176 8174 8170 8166 8173 8176 8174 8169 8172 8174 8176 8185 8185 8183 8182 8183 8180 8189 8193 8190 8190 8189 8195 8203 8183 8144 8132 8131 8137 8164 8169 8144 8146 8146 8148 8152 8155 8162 8175 8193 8197 8196 8200 8196 8194 8177 8149 8155 8157 8156 8166 8180 8188 8191 8193 8192 8193 8193 8196 8195 8197 8197 8200 8201 8199 8202 8202 8197 8200 8198 8199 8203 8206 
8148 8168 8169 8176 8171 8172 8177 8181 8176 8169 8165 8179 8177 8173 8172 8174 8170 8174 8179 8186 8181 8185 8187 8189 8192 8192 8186 8187 8189 8197 8199 8197 8176 8142 8133 8135 8149 8154 8139 8136 8135 8134 8142 8143 8154 8171 8195 8200 8201 8197 8196 8190 8159 8148 8151 8156 8158 8167 8168 8183 8193 8194 8196 8195 8194 8196 8196 8198 8199 8199 8202 8204 8203 8199 8200 8200 8199 8201 8200 8196 
8160 8173 8170 8175 8173 8175 8179 8184 8183 8168 8176 8178 8177 8176 8176 8174 8174 8178 8181 8181 8186 8185 8187 8186 8189 8190 8184 8185 8186 8192 8191 8181 8176 8163 8146 8139 8142 8157 8142 8142 8136 8135 8133 8147 8180 8196 8196 8198 8195 8193 8194 8171 8150 8150 8150 8157 8159 8164 8167 8171 8187 8192 8196 8195 8195 8196 8197 8202 8200 8197 8202 8201 8201 8203 8200 8200 8198 8200 8198 8197 
8168 8171 8172 8173 8176 8178 8180 8180 8178 8173 8176 8177 8173 8176 8172 8172 8175 8176 8184 8184 8185 8185 8182 8153 8146 8165 8166 8159 8158 8158 8149 8141 8141 8154 8160 8151 8146 8143 8152 8168 8164 8164 8157 8151 8178 8192 8186 8176 8174 8178 8169 8153 8153 8153 8154 8153 8157 8162 8167 8169 8180 8190 8194 8195 8197 8195 8196 8199 8201 8201 8200 8203 8203 8200 8197 8201 8198 8200 8198 8193 
8174 8172 8175 8176 8177 8177 8175 8178 8175 8176 8176 8178 8176 8176 8174 8173 8179 8180 8187 8189 8182 8182 8179 8148 8118 8122 8127 8140 8139 8137 8136 8133 8138 8142 8161 8158 8151 8158 8188 8196 8195 8190 8180 8172 8163 8163 8155 8155 8155 8164 8172 8161 8157 8153 8155 8154 8157 8164 8162 8170 8175 8191 8192 8195 8193 8197 8199 8202 8202 8201 8201 8203 8203 8201 8198 8199 8199 8201 8199 8200 
8178 8177 8179 8175 8175 8180 8172 8176 8177 8175 8177 8177 8177 8177 8173 8172 8176 8175 8182 8183 8183 8181 8183 8151 8121 8122 8126 8138 8133 8136 8136 8138 8135 8142 8158 8148 8158 8178 8193 8194 8173 8146 8139 8138 8144 8149 8147 8149 8155 8176 8192 8187 8172 8158 8154 8156 8159 8160 8165 8167 8171 8185 8191 8190 8193 8195 8197 8201 8198 8201 8200 8204 8201 8202 8200 8201 8200 8200 8202 8198 
8181 8186 8179 8175 8171 8173 8173 8176 8178 8177 8176 8175 8177 8177 8174 8175 8174 8177 8183 8187 8184 8185 8183 8170 8133 8130 8126 8152 8146 8141 8137 8139 8141 8141 8151 8150 8156 8172 8170 8163 8142 8140 8139 8139 8138 8147 8148 8149 8165 8192 8194 8196 8191 8178 8161 8155 8158 8160 8163 8165 8168 8175 8183 8193 8196 8193 8197 8198 8201 8199 8197 8202 8198 8200 8201 8200 8203 8204 8200 8200 
8181 8184 8178 8176 8170 8176 8174 8174 8174 8176 8174 8178 8175 8174 8174 8175 8178 8179 8182 8185 8185 8185 8176 8180 8167 8142 8137 8141 8147 8162 8141 8136 8135 8155 8142 8140 8150 8149 8144 8140 8139 8139 8139 8144 8145 8148 8148 8163 8187 8193 8197 8194 8195 8194 8184 8171 8160 8160 8161 8162 8169 8174 8175 8186 8195 8196 8199 8198 8197 8198 8199 8199 8199 8199 8199 8200 8202 8203 8202 8198 
8181 8189 8183 8181 8178 8177 8177 8179 8173 8179 8180 8179 8177 8177 8177 8172 8177 8185 8184 8184 8184 8177 8173 8180 8177 8182 8170 8163 8150 8160 8155 8154 8141 8157 8142 8142 8141 8144 8142 8138 8138 8143 8142 8145 8145 8148 8148 8157 8188 8195 8195 8195 8195 8195 8193 8186 8183 8165 8161 8164 8165 8166 8172 8182 8192 8194 8197 8199 8200 8196 8199 8199 8197 8198 8199 8199 8203 8203 8204 8198 
8181 8180 8180 8179 8178 8176 8173 8179 8178 8180 8180 8182 8180 8179 8181 8178 8178 8180 8184 8180 8153 8131 8128 8135 8165 8183 8171 8146 8133 8137 8140 8174 8142 8140 8138 8140 8147 8147 8142 8142 8140 8144 8141 8145 8146 8149 8147 8151 8178 8191 8195 8194 8196 8194 8195 8188 8188 8182 8167 8161 8162 8165 8170 8187 8193 8196 8199 8199 8198 8196 8198 8198 8200 8199 8196 8195 8201 8202 8203 8201 
8183 8179 8177 8178 8178 8175 8174 8179 8179 8180 8184 8180 8179 8178 8180 8179 8178 8184 8185 8158 8128 8121 8120 8120 8140 8167 8151 8130 8129 8130 8135 8163 8144 8139 8139 8143 8145 8141 8144 8146 8142 8142 8146 8149 8145 8148 8150 8152 8165 8183 8192 8196 8193 8192 8193 8193 8193 8189 8186 8174 8166 8168 8175 8185 8193 8194 8193 8194 8197 8192 8197 8199 8196 8194 8197 8197 8198 8203 8202 8199 
8181 8177 8174 8181 8173 8177 8177 8179 8179 8182 8183 8181 8180 8179 8177 8178 8178 8182 8174 8141 8127 8126 8122 8119 8132 8172 8175 8156 8133 8129 8137 8145 8145 8147 8139 8141 8151 8146 8155 8154 8145 8146 8144 8140 8139 8145 8144 8145 8152 8173 8190 8190 8194 8191 8190 8187 8188 8189 8188 8184 8176 8177 8183 8189 8195 8193 8193 8190 8195 8194 8196 8195 8193 8193 8197 8195 8199 8200 8200 8199 
8186 8179 8178 8175 8175 8179 8175 8182 8182 8184 8182 8184 8183 8187 8181 8183 8181 8181 8160 8140 8133 8131 8130 8133 8170 8193 8193 8190 8174 8141 8137 8140 8137 8154 8157 8148 8148 8147 8146 8152 8151 8149 8139 8142 8141 8142 8143 8146 8146 8153 8182 8190 8194 8191 8189 8183 8181 8183 8188 8189 8185 8183 8187 8189 8191 8194 8193 8193 8194 8195 8195 8193 8195 8194 8196 8196 8197 8200 8200 8195 
8183 8179 8180 8178 8180 8178 8183 8185 8185 8185 8184 8187 8186 8186 8183 8183 8181 8180 8152 8144 8138 8141 8152 8173 8185 8195 8196 8194 8181 8145 8139 8138 8138 8143 8158 8163 8145 8147 8149 8151 8149 8141 8142 8141 8138 8144 8140 8146 8142 8145 8159 8182 8191 8187 8187 8179 8169 8166 8173 8187 8185 8187 8189 8193 8192 8193 8193 8192 8193 8193 8194 8194 8194 8197 8196 8195 8194 8199 8196 8197 
8180 8182 8177 8179 8174 8181 8183 8186 8187 8186 8189 8188 8185 8185 8185 8182 8181 8181 8156 8151 8160 8181 8188 8186 8176 8163 8174 8178 8157 8139 8142 8140 8142 8146 8148 8154 8146 8141 8141 8147 8150 8140 8139 8136 8135 8139 8140 8138 8144 8151 8169 8188 8188 8186 8180 8152 8141 8147 8156 8178 8187 8185 8191 8196 8194 8194 8190 8192 8197 8194 8198 8196 8195 8194 8195 8192 8197 8195 8196 8190 
8184 8183 8182 8176 8176 8177 8180 8184 8188 8186 8186 8190 8187 8185 8182 8182 8182 8182 8171 8177 8183 8188 8189 8179 8140 8134 8135 8152 8172 8144 8144 8143 8145 8148 8144 8137 8133 8132 8136 8139 8148 8159 8144 8140 8133 8135 8138 8142 8150 8178 8189 8188 8184 8174 8147 8141 8140 8145 8146 8163 8176 8188 8188 8190 8193 8194 8191 8194 8194 8194 8196 8198 8195 8192 8192 8193 8196 8195 8193 8190 
8185 8189 8182 8188 8184 8185 8175 8186 8179 8185 8185 8185 8189 8187 8182 8182 8181 8182 8176 8183 8185 8192 8187 8160 8133 8134 8134 8142 8147 8140 8146 8144 8149 8147 8144 8133 8135 8137 8137 8139 8136 8146 8158 8144 8143 8144 8146 8164 8178 8179 8181 8180 8168 8151 8148 8143 8144 8145 8144 8152 8171 8182 8186 8192 8192 8194 8193 8194 8195 8196 8194 8197 8192 8195 8199 8193 8196 8197 8195 8193 
8190 8189 8185 8186 8187 8184 8174 8177 8175 8186 8188 8188 8188 8188 8183 8180 8183 8183 8178 8184 8183 8186 8171 8143 8138 8133 8134 8139 8138 8139 8151 8145 8150 8149 8146 8138 8138 8135 8134 8135 8137 8141 8152 8154 8146 8156 8170 8190 8200 8201 8192 8168 8157 8156 8149 8145 8143 8145 8144 8145 8154 8169 8180 8188 8194 8194 8194 8192 8196 8195 8196 8197 8195 8197 8196 8198 8200 8201 8201 8195 
8191 8193 8188 8189 8186 8186 8183 8178 8184 8187 8188 8186 8188 8187 8184 8183 8185 8187 8182 8186 8164 8148 8140 8133 8135 8133 8137 8141 8135 8138 8138 8151 8152 8151 8146 8145 8141 8140 8132 8141 8142 8142 8141 8137 8129 8132 8147 8162 8169 8174 8180 8173 8163 8176 8175 8164 8155 8146 8147 8150 8152 8165 8185 8190 8191 8191 8194 8192 8193 8195 8193 8197 8195 8197 8197 8195 8199 8198 8202 8200 
8189 8185 8186 8190 8188 8184 8180 8188 8188 8186 8187 8189 8191 8189 8185 8183 8185 8187 8173 8150 8141 8137 8135 8127 8129 8128 8131 8141 8135 8135 8142 8147 8154 8152 8148 8142 8142 8141 8141 8146 8143 8145 8144 8142 8132 8126 8128 8143 8160 8175 8183 8181 8171 8176 8187 8182 8179 8163 8150 8149 8150 8161 8179 8189 8193 8196 8191 8195 8192 8196 8196 8198 8195 8197 8198 8194 8199 8201 8201 8201 
8185 8184 8182 8189 8188 8180 8190 8178 8182 8187 8188 8192 8189 8186 8188 8183 8180 8171 8142 8129 8137 8137 8136 8130 8126 8126 8125 8135 8136 8138 8140 8145 8148 8152 8147 8144 8141 8141 8142 8147 8145 8144 8146 8150 8140 8130 8125 8136 8146 8158 8171 8176 8175 8182 8198 8188 8187 8184 8174 8169 8170 8177 8187 8190 8193 8193 8193 8193 8193 8195 8192 8197 8196 8197 8201 8196 8198 8201 8202 8204 
8188 8188 8183 8188 8182 8186 8184 8180 8179 8183 8180 8190 8184 8185 8175 8174 8162 8154 8132 8131 8135 8137 8143 8153 8130 8129 8132 8132 8137 8139 8144 8143 8141 8145 8145 8141 8141 8138 8143 8143 8141 8144 8144 8146 8146 8138 8129 8136 8144 8147 8147 8161 8173 8179 8206 8193 8192 8188 8184 8188 8186 8184 8187 8186 8191 8192 8194 8189 8193 8192 8192 8196 8195 8196 8198 8197 8202 8202 8202 8202 
8188 8190 8187 8188 8189 8180 8183 8172 8163 8166 8157 8161 8156 8151 8146 8144 8163 8165 8133 8134 8147 8164 8178 8176 8139 8136 8132 8134 8138 8138 8142 8139 8137 8138 8139 8140 8141 8140 8139 8142 8138 8142 8144 8149 8146 8144 8138 8140 8144 8139 8137 8144 8157 8173 8207 8202 8189 8191 8191 8191 8189 8188 8192 8191 8191 8196 8194 8191 8188 8189 8195 8194 8192 8197 8199 8198 8200 8202 8207 8210 
8185 8186 8184 8191 8185 8185 8177 8145 8136 8137 8135 8130 8135 8132 8134 8143 8176 8169 8148 8162 8170 8162 8154 8157 8151 8143 8135 8138 8136 8136 8141 8137 8133 8137 8141 8140 8142 8138 8134 8136 8133 8137 8142 8146 8146 8146 8144 8148 8141 8141 8136 8137 8149 8173 8199 8209 8190 8195 8186 8188 8186 8191 8189 8191 8193 8194 8191 8190 8190 8193 8191 8193 8193 8194 8199 8197 8201 8209 8208 8212 
8188 8185 8188 8189 8185 8189 8174 8142 8143 8135 8138 8139 8135 8136 8137 8161 8179 8181 8177 8157 8135 8134 8140 8152 8151 8147 8144 8142 8136 8139 8140 8133 8131 8131 8138 8137 8136 8138 8134 8128 8127 8130 8134 8137 8135 8137 8140 8142 8142 8144 8139 8145 8146 8168 8195 8213 8194 8192 8190 8190 8188 8192 8185 8190 8191 8193 8190 8189 8191 8189 8191 8193 8192 8202 8201 8198 8202 8207 8207 8211 
8187 8190 8188 8188 8188 8190 8168 8148 8142 8139 8137 8136 8135 8137 8143 8175 8185 8182 8171 8133 8130 8132 8142 8146 8151 8160 8156 8144 8141 8142 8145 8136 8131 8134 8130 8131 8137 8143 8134 8133 8127 8125 8128 8131 8131 8133 8138 8142 8144 8146 8139 8142 8143 8162 8186 8212 8195 8188 8187 8186 8186 8187 8186 8191 8190 8191 8188 8188 8190 8191 8190 8191 8193 8197 8198 8199 8202 8207 8211 8214 
8189 8187 8185 8186 8185 8186 8171 8150 8150 8142 8134 8138 8136 8133 8150 8181 8182 8179 8146 8132 8131 8141 8144 8145 8158 8161 8153 8151 8152 8151 8148 8147 8136 8133 8132 8136 8138 8132 8139 8142 8132 8127 8123 8127 8134 8139 8137 8139 8143 8141 8138 8142 8147 8157 8181 8200 8192 8188 8187 8188 8188 8188 8185 8190 8192 8189 8191 8189 8189 8193 8192 8192 8196 8199 8199 8200 8204 8208 8208 8211 
8193 8193 8189 8186 8186 8188 8173 8149 8149 8145 8138 8138 8134 8130 8156 8179 8180 8175 8141 8138 8139 8146 8144 8149 8162 8157 8159 8160 8158 8154 8155 8151 8147 8130 8132 8132 8135 8134 8140 8148 8146 8132 8127 8132 8143 8144 8141 8141 8139 8141 8142 8142 8145 8153 8170 8179 8187 8188 8186 8189 8186 8188 8189 8189 8191 8193 8189 8189 8193 8192 8192 8196 8194 8196 8200 8198 8204 8206 8206 8211 
8193 8191 8194 8192 8190 8188 8181 8155 8149 8146 8144 8140 8133 8131 8166 8175 8174 8156 8147 8144 8143 8148 8152 8156 8159 8160 8159 8162 8158 8159 8156 8153 8147 8139 8136 8135 8138 8135 8142 8148 8150 8144 8134 8136 8143 8146 8145 8141 8136 8139 8137 8138 8135 8142 8163 8179 8192 8190 8190 8188 8186 8188 8187 8187 8187 8191 8192 8190 8192 8189 8193 8196 8194 8199 8203 8197 8203 8207 8203 8209 
8193 8194 8196 8193 8192 8190 8186 8177 8148 8146 8150 8144 8137 8133 8174 8180 8160 8143 8150 8144 8151 8165 8173 8160 8157 8159 8158 8161 8160 8158 8157 8152 8147 8144 8141 8139 8138 8140 8147 8149 8145 8147 8150 8149 8152 8147 8146 8145 8140 8138 8137 8136 8135 8144 8160 8177 8183 8185 8184 8185 8185 8189 8189 8190 8187 8190 8190 8188 8190 8193 8193 8194 8194 8193 8200 8198 8203 8204 8205 8211 
8196 8196 8194 8196 8191 8190 8193 8184 8156 8147 8144 8144 8145 8142 8177 8183 8174 8161 8160 8165 8177 8192 8188 8165 8157 8152 8158 8160 8158 8157 8156 8153 8149 8153 8150 8145 8138 8139 8146 8149 8142 8141 8151 8154 8152 8150 8150 8147 8140 8139 8135 8142 8146 8154 8163 8179 8186 8187 8187 8190 8184 8188 8187 8188 8185 8190 8189 8186 8191 8188 8194 8194 8194 8197 8199 8199 8202 8204 8205 8211 
8199 8201 8196 8194 8195 8192 8191 8189 8168 8147 8144 8147 8146 8150 8181 8183 8184 8183 8187 8188 8188 8191 8193 8168 8155 8154 8158 8159 8162 8156 8154 8154 8149 8157 8151 8151 8147 8145 8140 8147 8141 8138 8153 8160 8156 8151 8149 8150 8138 8136 8138 8149 8153 8158 8173 8180 8184 8186 8191 8186 8186 8186 8187 8188 8188 8187 8185 8187 8189 8187 8193 8197 8195 8197 8203 8199 8203 8203 8204 8208 
8198 8199 8196 8193 8195 8192 8195 8190 8179 8153 8149 8146 8145 8146 8178 8184 8181 8184 8185 8189 8188 8191 8193 8177 8158 8157 8157 8161 8157 8155 8159 8154 8149 8153 8154 8152 8153 8146 8144 8145 8146 8144 8152 8159 8159 8155 8143 8144 8140 8136 8141 8155 8160 8163 8172 8186 8189 8189 8187 8186 8187 8185 8186 8186 8187 8187 8184 8188 8191 8189 8193 8193 8196 8198 8202 8203 8205 8201 8204 8208 
8197 8198 8196 8197 8195 8196 8190 8193 8189 8160 8148 8149 8143 8143 8179 8178 8182 8189 8185 8191 8187 8188 8186 8188 8169 8158 8154 8156 8160 8156 8162 8154 8149 8153 8152 8154 8152 8145 8145 8146 8147 8151 8156 8160 8157 8153 8145 8141 8141 8140 8142 8152 8160 8167 8174 8183 8185 8191 8186 8185 8183 8186 8186 8187 8189 8187 8187 8189 8193 8187 8195 8195 8195 8201 8199 8199 8203 8205 8202 8204 
8196 8203 8204 8197 8195 8197 8194 8189 8191 8168 8148 8147 8145 8151 8177 8178 8182 8185 8189 8187 8186 8186 8190 8191 8176 8164 8159 8157 8160 8159 8158 8153 8153 8153 8151 8154 8155 8149 8145 8145 8141 8150 8159 8162 8157 8155 8148 8142 8142 8139 8143 8148 8163 8173 8178 8185 8189 8189 8189 8187 8186 8186 8182 8187 8183 8187 8189 8187 8190 8189 8192 8194 8193 8198 8198 8199 8200 8196 8196 8202 
8196 8199 8201 8191 8193 8194 8189 8191 8192 8181 8164 8163 8159 8173 8188 8181 8182 8189 8191 8193 8190 8192 8193 8194 8184 8172 8165 8158 8158 8160 8156 8149 8154 8151 8154 8156 8155 8148 8144 8146 8143 8156 8162 8162 8159 8157 8145 8143 8144 8143 8144 8150 8162 8176 8179 8185 8187 8188 8189 8189 8185 8188 8190 8187 8190 8188 8188 8184 8192 8189 8195 8192 8192 8198 8198 8199 8199 8200 8196 8199 
8197 8198 8202 8187 8192 8197 8189 8192 8193 8194 8188 8190 8190 8187 8188 8187 8183 8190 8193 8192 8191 8190 8191 8194 8193 8186 8173 8156 8155 8150 8150 8150 8155 8155 8156 8159 8160 8149 8144 8146 8143 8155 8163 8161 8160 8156 8151 8147 8149 8145 8146 8153 8174 8179 8184 8186 8188 8188 8188 8193 8190 8191 8189 8191 8188 8189 8186 8185 8189 8186 8196 8194 8193 8197 8198 8196 8201 8199 8196 8201 
8197 8196 8194 8188 8188 8191 8189 8194 8195 8194 8193 8196 8191 8193 8185 8182 8184 8188 8189 8189 8190 8188 8194 8193 8192 8191 8184 8167 8159 8151 8150 8150 8148 8153 8157 8160 8157 8145 8146 8146 8146 8148 8160 8164 8160 8161 8154 8149 8152 8150 8152 8160 8179 8181 8187 8189 8188 8190 8190 8192 8190 8192 8188 8189 8191 8189 8184 8183 8189 8190 8192 8193 8192 8195 8198 8197 8201 8199 8197 8203 
8197 8199 8195 8189 8190 8192 8192 8193 8195 8196 8191 8197 8196 8193 8183 8183 8185 8187 8185 8190 8191 8187 8192 8191 8195 8194 8192 8183 8170 8160 8155 8149 8148 8146 8152 8155 8144 8144 8146 8148 8148 8147 8153 8163 8164 8165 8157 8154 8151 8148 8157 8168 8184 8182 8188 8190 8188 8193 8193 8195 8195 8195 8190 8192 8196 8190 8187 8187 8192 8192 8198 8195 8192 8195 8195 8197 8198 8197 8195 8199 
8198 8202 8195 8189 8193 8190 8192 8190 8195 8197 8193 8190 8193 8191 8186 8184 8186 8189 8188 8191 8189 8188 8188 8192 8191 8199 8194 8189 8178 8174 8167 8158 8151 8149 8147 8145 8144 8141 8146 8147 8144 8148 8141 8153 8157 8161 8156 8154 8152 8155 8175 8180 8183 8182 8191 8195 8196 8192 8191 8192 8194 8191 8191 8190 8191 8192 8190 8190 8192 8190 8189 8192 8197 8196 8196 8196 8200 8196 8195 8199 
8200 8197 8192 8195 8192 8193 8195 8191 8192 8192 8189 8189 8196 8189 8189 8188 8188 8188 8191 8190 8189 8194 8194 8192 8194 8197 8198 8199 8181 8180 8180 8169 8162 8159 8152 8150 8148 8141 8142 8144 8148 8140 8139 8141 8148 8156 8162 8163 8165 8178 8182 8184 8180 8182 8195 8194 8195 8193 8194 8191 8196 8191 8192 8192 8191 8194 8192 8191 8192 8195 8195 8193 8193 8196 8196 8195 8198 8194 8196 8199 
8198 8205 8189 8195 8191 8194 8195 8196 8191 8191 8189 8197 8194 8191 8188 8189 8193 8190 8190 8190 8197 8192 8195 8196 8195 8196 8196 8197 8194 8184 8182 8183 8179 8175 8164 8159 8151 8147 8144 8146 8150 8145 8144 8153 8160 8171 8179 8185 8186 8192 8189 8183 8183 8190 8193 8195 8194 8197 8194 8190 8193 8191 8191 8190 8193 8191 8190 8191 8192 8191 8195 8195 8192 8193 8197 8193 8197 8195 8194 8202 
8201 8204 8196 8197 8191 8194 8197 8196 8200 8198 8195 8195 8195 8188 8190 8191 8190 8190 8189 8193 8198 8191 8193 8201 8200 8199 8195 8197 8199 8195 8189 8187 8190 8198 8188 8180 8169 8161 8160 8161 8168 8167 8171 8169 8176 8186 8189 8189 8194 8191 8192 8184 8189 8194 8194 8198 8193 8195 8198 8193 8194 8190 8190 8191 8194 8192 8190 8187 8189 8190 8194 8194 8193 8195 8197 8196 8195 8195 8192 8202 
8200 8194 8199 8197 8194 8198 8202 8197 8198 8195 8196 8198 8196 8190 8191 8190 8190 8190 8191 8191 8194 8191 8198 8197 8202 8201 8200 8201 8200 8204 8197 8185 8190 8195 8196 8193 8186 8175 8168 8165 8172 8183 8184 8183 8187 8185 8192 8194 8188 8187 8183 8192 8196 8195 8194 8199 8197 8197 8193 8191 8192 8193 8194 8189 8190 8190 8188 8189 8192 8190 8192 8194 8196 8198 8197 8198 8192 8192 8193 8198 
8200 8196 8197 8193 8193 8200 8202 8192 8196 8191 8199 8201 8199 8198 8191 8189 8190 8193 8194 8191 8191 8196 8200 8197 8202 8201 8204 8203 8200 8203 8209 8197 8192 8191 8193 8195 8199 8188 8177 8175 8176 8182 8183 8189 8186 8193 8190 8192 8187 8183 8191 8200 8197 8198 8197 8197 8194 8196 8195 8190 8193 8194 8192 8186 8187 8188 8186 8190 8192 8195 8195 8198 8198 8201 8201 8198 8195 8195 8195 8197 
8197 8194 8197 8192 8196 8198 8202 8194 8196 8195 8193 8196 8198 8196 8191 8189 8187 8191 8195 8190 8192 8194 8197 8199 8198 8200 8198 8199 8206 8211 8217 8209 8201 8196 8193 8193 8193 8197 8191 8189 8188 8193 8197 8190 8191 8192 8194 8190 8188 8194 8194 8197 8200 8196 8194 8198 8197 8196 8196 8190 8194 8195 8190 8187 8185 8189 8190 8189 8194 8199 8198 8198 8197 8202 8199 8196 8195 8198 8195 8196 
8196 8201 8195 8193 8197 8199 8191 8204 8191 8192 8193 8195 8196 8195 8191 8186 8186 8192 8196 8190 8190 8194 8200 8203 8196 8206 8201 8199 8209 8214 8211 8211 8207 8204 8196 8199 8194 8195 8198 8199 8198 8198 8194 8186 8189 8186 8187 8191 8196 8194 8199 8199 8200 8197 8200 8197 8197 8196 8191 8196 8197 8195 8191 8183 8185 8189 8186 8188 8196 8196 8198 8199 8197 8198 8198 8200 8196 8197 8195 8197 
8200 8200 8199 8199 8199 8195 8194 8205 8198 8195 8193 8190 8193 8194 8194 8188 8188 8196 8195 8192 8188 8198 8200 8200 8202 8206 8206 8206 8208 8208 8213 8214 8207 8207 8207 8206 8205 8200 8202 8201 8198 8196 8190 8192 8195 8199 8197 8198 8197 8195 8197 8202 8197 8196 8200 8196 8197 8198 8197 8198 8195 8196 8193 8184 8189 8191 8184 8187 8194 8191 8196 8201 8197 8201 8200 8193 8194 8196 8196 8203 
8198 8200 8201 8196 8202 8200 8198 8200 8192 8197 8192 8194 8191 8197 8195 8187 8190 8195 8193 8192 8192 8197 8198 8202 8204 8204 8204 8204 8201 8205 8211 8208 8205 8212 8211 8210 8210 8211 8210 8207 8204 8204 8201 8203 8202 8203 8202 8199 8198 8199 8201 8205 8197 8194 8198 8196 8198 8194 8194 8193 8197 8197 8195 8188 8188 8185 8184 8193 8192 8192 8196 8199 8197 8199 8197 8192 8191 8194 8192 8197 
8198 8206 8201 8205 8197 8203 8199 8198 8189 8199 8191 8198 8197 8198 8191 8187 8189 8192 8196 8195 8193 8198 8197 8200 8203 8201 8198 8201 8202 8202 8205 8204 8206 8208 8209 8207 8213 8213 8208 8210 8208 8204 8205 8203 8204 8204 8195 8204 8202 8203 8203 8204 8198 8197 8198 8195 8196 8191 8193 8194 8195 8192 8190 8188 8191 8186 8186 8186 8189 8195 8195 8198 8194 8198 8196 8193 8192 8188 8191 8187 
8197 8206 8208 8204 8197 8199 8202 8196 8191 8204 8201 8196 8200 8197 8194 8188 8188 8191 8187 8192 8199 8196 8197 8201 8200 8185 8197 8199 8202 8205 8206 8207 8208 8206 8209 8213 8212 8212 8208 8208 8209 8207 8205 8203 8204 8202 8193 8202 8205 8206 8204 8204 8202 8199 8199 8196 8195 8195 8194 8194 8190 8187 8186 8187 8190 8186 8185 8190 8187 8187 8196 8198 8198 8195 8196 8189 8188 8188 8189 8183 
8200 8202 8211 8198 8193 8197 8199 8190 8197 8199 8198 8190 8195 8194 8196 8186 8184 8191 8188 8192 8199 8197 8196 8200 8200 8187 8185 8200 8206 8207 8207 8211 8213 8205 8208 8215 8214 8211 8207 8208 8205 8209 8203 8200 8202 8199 8199 8200 8204 8204 8203 8202 8196 8194 8196 8195 8192 8194 8192 8190 8192 8186 8189 8189 8186 8187 8187 8193 8187 8189 8194 8196 8191 8193 8187 8186 8188 8186 8182 8180 
8206 8210 8208 8190 8195 8195 8199 8191 8197 8193 8196 8187 8190 8193 8195 8188 8182 8188 8191 8192 8190 8193 8197 8200 8203 8198 8203 8203 8203 8203 8205 8211 8210 8210 8200 8209 8209 8205 8204 8206 8208 8202 8198 8203 8202 8200 8198 8203 8203 8204 8202 8202 8195 8192 8195 8188 8194 8190 8189 8187 8186 8185 8189 8183 8186 8187 8188 8194 8190 8188 8193 8193 8190 8186 8187 8186 8185 8178 8177 8176 
8206 8201 8194 8194 8193 8189 8187 8199 8197 8191 8191 8189 8186 8190 8188 8179 8179 8183 8187 8186 8192 8187 8189 8196 8206 8205 8204 8204 8202 8206 8211 8203 8202 8210 8200 8209 8208 8209 8201 8209 8207 8204 8196 8193 8194 8195 8200 8204 8200 8201 8200 8195 8192 8193 8193 8187 8192 8191 8189 8187 8188 8187 8185 8181 8185 8187 8187 8193 8193 8192 8191 8189 8189 8189 8188 8188 8185 8181 8176 8182 
8211 8202 8195 8189 8186 8188 8184 8188 8190 8191 8188 8184 8185 8181 8179 8175 8176 8180 8188 8183 8185 8186 8185 8190 8198 8202 8200 8202 8203 8204 8208 8203 8205 8206 8203 8205 8206 8207 8207 8208 8208 8202 8196 8194 8193 8197 8197 8201 8198 8200 8197 8190 8193 8190 8189 8184 8188 8190 8188 8184 8186 8187 8184 8183 8185 8187 8186 8195 8197 8196 8194 8195 8194 8191 8189 8187 8184 8181 8179 8180 


