P2
80 60
8241
8066 8066 8065 8073 8077 8079 8094 8111 8127 8135 8141 8137 8132 8125 8119 8115 8113 8114 8112 8108 8113 8118 8123 8130 8131 8135 8140 8140 8140 8139 8138 8137 8139 8141 8141 8147 8148 8154 8154 8147 8142 8133 8128 8123 8125 8132 8136 8143 8146 8144 8141 8139 8137 8135 8132 8129 8125 8124 8130 8133 8159 8182 8189 8193 8198 8201 8202 8202 8205 8207 8209 8210 8211 8212 8209 8214 8212 8214 8209 8212 
8065 8067 8073 8078 8081 8090 8110 8125 8135 8139 8137 8134 8121 8111 8106 8105 8100 8098 8095 8096 8098 8101 8106 8113 8120 8123 8133 8134 8141 8139 8137 8139 8135 8141 8142 8149 8151 8151 8150 8146 8138 8130 8129 8126 8127 8132 8135 8143 8138 8135 8127 8128 8124 8117 8123 8121 8111 8116 8125 8130 8158 8183 8191 8193 8198 8200 8202 8202 8202 8207 8208 8208 8208 8208 8212 8212 8214 8215 8206 8202 
8069 8078 8080 8086 8089 8106 8132 8139 8145 8138 8133 8121 8109 8098 8095 8092 8095 8090 8087 8090 8094 8093 8096 8105 8115 8116 8122 8125 8127 8127 8124 8128 8128 8131 8134 8141 8145 8142 8145 8137 8132 8122 8120 8116 8116 8121 8125 8123 8119 8115 8111 8110 8101 8103 8109 8107 8106 8110 8122 8125 8162 8181 8190 8196 8199 8202 8203 8203 8203 8206 8206 8207 8211 8210 8210 8210 8213 8208 8208 8202 
8075 8082 8084 8089 8096 8121 8144 8145 8140 8134 8122 8113 8103 8094 8091 8089 8087 8088 8086 8086 8089 8090 8092 8102 8109 8112 8117 8119 8121 8124 8122 8127 8126 8128 8129 8129 8132 8139 8139 8132 8125 8115 8110 8113 8112 8113 8115 8115 8110 8108 8103 8104 8095 8096 8099 8100 8103 8110 8124 8135 8166 8183 8192 8193 8198 8198 8202 8203 8205 8203 8205 8208 8208 8209 8211 8210 8212 8209 8208 8200 
8083 8089 8091 8094 8104 8128 8149 8150 8145 8127 8111 8106 8096 8090 8089 8086 8089 8087 8088 8089 8086 8091 8092 8103 8110 8114 8121 8123 8124 8129 8122 8123 8124 8127 8129 8129 8130 8138 8134 8122 8118 8112 8112 8107 8110 8115 8119 8118 8113 8117 8114 8109 8103 8102 8105 8101 8098 8103 8112 8129 8169 8185 8193 8193 8200 8196 8203 8203 8201 8207 8206 8209 8209 8206 8209 8208 8215 8209 8205 8204 
8092 8095 8095 8106 8125 8142 8157 8153 8147 8125 8111 8102 8097 8095 8091 8090 8093 8090 8091 8090 8098 8100 8104 8117 8131 8133 8129 8132 8128 8127 8123 8126 8127 8128 8130 8129 8131 8137 8133 8121 8119 8114 8110 8112 8118 8126 8130 8125 8118 8114 8105 8107 8104 8104 8104 8101 8100 8100 8105 8128 8172 8185 8194 8196 8200 8199 8202 8206 8207 8205 8208 8208 8207 8209 8209 8206 8211 8209 8205 8203 
8097 8095 8104 8121 8141 8158 8159 8153 8142 8124 8122 8113 8107 8105 8103 8102 8101 8102 8103 8108 8112 8119 8127 8132 8137 8137 8139 8135 8132 8131 8127 8126 8128 8129 8134 8131 8137 8137 8139 8123 8122 8124 8125 8129 8134 8136 8129 8118 8119 8121 8105 8104 8099 8100 8099 8096 8098 8101 8103 8135 8168 8184 8194 8198 8199 8200 8201 8203 8204 8207 8206 8209 8207 8207 8205 8204 8211 8210 8202 8205 
8093 8096 8112 8139 8161 8167 8160 8142 8143 8141 8140 8137 8139 8134 8133 8133 8130 8131 8132 8137 8140 8139 8142 8144 8150 8152 8153 8149 8144 8143 8144 8140 8140 8145 8147 8146 8154 8154 8151 8143 8135 8135 8137 8135 8139 8140 8130 8125 8125 8117 8108 8106 8101 8101 8099 8097 8101 8100 8113 8141 8173 8184 8190 8192 8194 8197 8196 8198 8197 8201 8199 8197 8201 8197 8196 8202 8207 8203 8195 8200 
8098 8108 8128 8161 8172 8176 8156 8141 8141 8144 8147 8145 8146 8147 8144 8146 8148 8148 8148 8150 8151 8150 8152 8155 8154 8158 8163 8165 8166 8167 8167 8168 8168 8171 8172 8168 8175 8175 8177 8169 8167 8166 8171 8168 8164 8160 8159 8153 8151 8145 8136 8135 8123 8126 8123 8124 8122 8125 8135 8157 8177 8182 8184 8185 8184 8185 8186 8185 8188 8189 8189 8191 8188 8191 8191 8199 8206 8200 8195 8196 
8103 8118 8155 8176 8183 8175 8151 8141 8146 8146 8145 8146 8152 8150 8153 8149 8149 8150 8152 8156 8155 8152 8153 8157 8160 8164 8168 8169 8167 8175 8172 8175 8177 8176 8178 8174 8180 8182 8180 8181 8182 8178 8184 8181 8177 8176 8175 8180 8179 8181 8176 8178 8173 8175 8173 8169 8164 8166 8167 8170 8175 8178 8183 8179 8184 8182 8183 8182 8188 8188 8188 8188 8189 8188 8189 8197 8203 8200 8198 8195 
8109 8134 8165 8180 8186 8171 8146 8143 8146 8145 8148 8151 8152 8151 8151 8152 8153 8152 8153 8156 8159 8159 8160 8156 8163 8167 8170 8174 8174 8173 8175 8175 8175 8178 8177 8175 8181 8183 8184 8181 8182 8182 8183 8182 8180 8179 8178 8181 8183 8185 8181 8183 8185 8181 8179 8181 8177 8173 8170 8172 8176 8176 8181 8181 8180 8182 8182 8182 8186 8188 8189 8188 8186 8184 8187 8193 8200 8199 8197 8197 
8127 8158 8175 8186 8189 8157 8150 8145 8149 8149 8147 8152 8154 8151 8152 8153 8154 8156 8156 8160 8165 8159 8163 8163 8168 8169 8175 8174 8176 8180 8175 8178 8179 8177 8174 8175 8179 8181 8185 8184 8183 8184 8188 8182 8182 8182 8181 8184 8187 8185 8183 8188 8185 8187 8186 8187 8183 8176 8174 8173 8177 8177 8178 8181 8181 8183 8184 8184 8186 8187 8185 8186 8188 8185 8186 8188 8197 8200 8197 8198 
8157 8176 8190 8197 8188 8153 8150 8147 8148 8149 8149 8152 8155 8153 8155 8153 8156 8160 8159 8163 8164 8161 8165 8167 8168 8171 8175 8173 8174 8176 8175 8178 8175 8176 8176 8175 8177 8181 8184 8185 8184 8186 8192 8187 8183 8189 8187 8187 8190 8194 8189 8193 8189 8188 8189 8188 8183 8179 8180 8177 8179 8179 8178 8178 8183 8181 8185 8182 8186 8190 8184 8186 8186 8184 8187 8187 8194 8199 8200 8198 
8176 8195 8203 8203 8178 8151 8153 8151 8151 8151 8151 8149 8153 8154 8157 8154 8158 8160 8164 8163 8162 8160 8163 8163 8165 8166 8172 8172 8172 8172 8175 8180 8178 8176 8175 8174 8175 8183 8183 8183 8184 8185 8190 8186 8190 8190 8189 8188 8189 8194 8192 8196 8189 8192 8192 8193 8186 8184 8182 8178 8182 8178 8181 8181 8184 8183 8185 8186 8186 8189 8185 8187 8186 8184 8185 8185 8196 8201 8199 8193 
8188 8208 8209 8201 8163 8153 8152 8150 8151 8152 8151 8154 8155 8153 8154 8157 8157 8160 8160 8160 8161 8161 8163 8163 8162 8166 8172 8170 8173 8175 8176 8177 8173 8176 8175 8176 8179 8182 8185 8183 8186 8185 8187 8188 8187 8193 8191 8190 8192 8192 8188 8191 8193 8192 8197 8196 8191 8189 8188 8184 8185 8187 8186 8187 8186 8186 8186 8184 8188 8186 8184 8187 8186 8186 8184 8183 8194 8199 8196 8198 
8198 8207 8208 8186 8157 8151 8151 8157 8153 8151 8153 8153 8157 8152 8153 8158 8159 8161 8161 8161 8162 8160 8161 8160 8164 8168 8172 8172 8173 8174 8176 8174 8175 8174 8176 8174 8179 8182 8183 8183 8184 8185 8187 8185 8189 8191 8186 8191 8188 8193 8192 8192 8192 8195 8200 8197 8197 8191 8190 8187 8190 8188 8192 8190 8187 8187 8186 8184 8189 8186 8187 8186 8184 8184 8184 8185 8195 8200 8196 8196 
8193 8204 8206 8168 8153 8150 8152 8152 8156 8153 8153 8157 8158 8156 8155 8156 8158 8159 8158 8162 8161 8163 8159 8161 8164 8168 8173 8172 8173 8178 8177 8176 8179 8181 8177 8177 8176 8181 8181 8179 8186 8184 8186 8186 8188 8189 8185 8189 8187 8192 8190 8190 8192 8199 8201 8201 8199 8196 8193 8191 8196 8191 8189 8190 8190 8189 8188 8186 8185 8189 8186 8189 8185 8185 8184 8183 8195 8201 8198 8198 
8196 8197 8193 8161 8157 8150 8153 8151 8155 8152 8155 8160 8160 8157 8155 8158 8160 8159 8158 8162 8162 8160 8160 8161 8166 8171 8174 8173 8173 8177 8175 8178 8180 8176 8178 8176 8175 8179 8179 8179 8181 8182 8188 8186 8187 8188 8186 8185 8191 8189 8189 8192 8191 8196 8197 8199 8199 8198 8195 8193 8196 8193 8191 8190 8191 8189 8189 8187 8191 8188 8187 8188 8186 8182 8183 8184 8192 8200 8197 8192 
8198 8200 8174 8158 8150 8148 8154 8155 8156 8156 8158 8158 8161 8159 8157 8156 8160 8163 8162 8164 8163 8159 8163 8165 8168 8170 8174 8170 8171 8174 8173 8173 8173 8173 8178 8173 8176 8179 8178 8178 8182 8184 8187 8187 8187 8187 8186 8185 8186 8188 8189 8192 8191 8195 8203 8199 8199 8199 8198 8195 8196 8192 8193 8192 8192 8191 8190 8188 8188 8190 8188 8190 8188 8185 8187 8184 8194 8197 8195 8193 
8196 8194 8163 8159 8155 8155 8160 8158 8158 8159 8159 8160 8160 8159 8156 8157 8161 8161 8163 8163 8161 8160 8164 8165 8167 8168 8171 8167 8169 8173 8170 8173 8172 8173 8177 8172 8176 8178 8178 8180 8185 8184 8189 8187 8184 8188 8183 8187 8186 8189 8187 8192 8194 8197 8197 8199 8199 8199 8198 8195 8195 8196 8194 8190 8192 8192 8194 8189 8192 8190 8189 8192 8190 8189 8189 8185 8191 8199 8197 8193 
8197 8194 8160 8156 8155 8157 8159 8161 8165 8161 8158 8160 8159 8159 8155 8156 8158 8160 8161 8163 8162 8166 8165 8164 8166 8169 8167 8168 8167 8171 8168 8173 8170 8173 8172 8173 8176 8179 8180 8179 8182 8180 8185 8185 8185 8184 8185 8184 8186 8188 8185 8190 8191 8196 8198 8198 8200 8200 8197 8194 8197 8195 8192 8192 8193 8190 8192 8189 8190 8194 8190 8194 8190 8189 8185 8184 8188 8195 8192 8192 
8201 8176 8158 8157 8156 8155 8159 8160 8160 8164 8161 8160 8159 8155 8158 8158 8160 8163 8160 8161 8161 8158 8164 8163 8166 8166 8172 8166 8167 8170 8169 8169 8169 8170 8170 8170 8173 8175 8177 8175 8182 8178 8182 8183 8183 8183 8181 8181 8185 8185 8183 8187 8194 8194 8195 8202 8198 8201 8199 8195 8195 8195 8192 8192 8193 8192 8192 8188 8191 8195 8194 8191 8191 8190 8189 8186 8187 8194 8191 8197 
8203 8166 8156 8156 8158 8155 8157 8159 8159 8159 8157 8157 8160 8158 8158 8159 8161 8160 8159 8161 8162 8160 8165 8165 8169 8169 8173 8170 8170 8171 8169 8168 8168 8171 8166 8167 8170 8173 8177 8176 8179 8177 8183 8181 8182 8181 8181 8179 8181 8181 8184 8187 8192 8196 8197 8200 8201 8200 8197 8197 8198 8196 8194 8195 8193 8192 8191 8190 8192 8195 8190 8195 8191 8194 8190 8186 8186 8193 8186 8195 
8189 8162 8162 8157 8155 8155 8158 8157 8158 8156 8156 8156 8159 8158 8156 8162 8159 8161 8159 8159 8163 8162 8164 8167 8168 8169 8174 8172 8171 8167 8167 8163 8154 8150 8145 8149 8155 8163 8172 8178 8180 8177 8185 8179 8180 8181 8178 8178 8181 8182 8182 8189 8191 8191 8198 8201 8200 8201 8200 8199 8198 8198 8197 8196 8196 8196 8193 8192 8192 8196 8195 8197 8196 8192 8193 8187 8187 8184 8186 8189 
8166 8159 8160 8159 8155 8154 8155 8160 8159 8155 8156 8155 8154 8160 8160 8159 8159 8162 8164 8161 8164 8162 8164 8166 8169 8171 8173 8173 8167 8160 8145 8140 8137 8139 8140 8138 8139 8143 8147 8156 8173 8177 8181 8181 8186 8184 8178 8180 8177 8180 8182 8188 8190 8194 8199 8199 8200 8200 8200 8197 8200 8199 8197 8196 8196 8195 8194 8193 8195 8195 8195 8197 8196 8192 8192 8186 8186 8171 8171 8176 
8159 8159 8159 8160 8156 8154 8157 8160 8160 8155 8155 8156 8157 8160 8158 8163 8161 8162 8162 8166 8164 8165 8165 8171 8174 8175 8176 8168 8148 8143 8140 8141 8138 8146 8144 8143 8147 8147 8145 8145 8154 8170 8181 8179 8182 8183 8177 8180 8179 8184 8182 8190 8191 8194 8198 8198 8199 8199 8199 8196 8200 8198 8200 8198 8198 8197 8197 8192 8196 8194 8196 8198 8195 8194 8190 8188 8184 8172 8174 8178 
8157 8158 8162 8157 8160 8156 8160 8158 8158 8157 8157 8160 8157 8156 8159 8163 8163 8167 8166 8168 8171 8169 8171 8176 8178 8178 8177 8146 8141 8143 8142 8141 8145 8157 8158 8162 8160 8156 8156 8151 8151 8153 8178 8181 8185 8185 8181 8183 8184 8185 8185 8190 8190 8195 8196 8197 8199 8200 8198 8198 8201 8203 8203 8200 8198 8196 8197 8195 8197 8194 8193 8194 8192 8193 8190 8189 8188 8185 8177 8186 
8160 8161 8160 8161 8156 8155 8156 8158 8159 8158 8159 8163 8161 8162 8164 8169 8172 8173 8173 8175 8176 8174 8175 8176 8179 8177 8159 8139 8142 8141 8151 8164 8175 8177 8170 8178 8182 8187 8178 8161 8157 8151 8160 8184 8185 8190 8185 8185 8188 8189 8189 8195 8193 8195 8198 8196 8199 8197 8199 8198 8204 8205 8203 8199 8198 8198 8197 8197 8194 8192 8193 8195 8192 8194 8188 8186 8191 8191 8192 8198 
8165 8166 8163 8160 8159 8156 8161 8159 8159 8159 8160 8163 8166 8168 8172 8174 8173 8178 8175 8176 8179 8175 8175 8177 8178 8169 8147 8139 8144 8163 8179 8153 8119 8117 8110 8117 8148 8180 8182 8188 8171 8160 8156 8167 8190 8190 8187 8185 8188 8191 8189 8193 8193 8195 8198 8197 8197 8200 8199 8198 8203 8201 8203 8198 8197 8194 8195 8193 8191 8193 8191 8194 8194 8192 8194 8188 8191 8194 8203 8210 
8162 8168 8167 8161 8157 8159 8159 8158 8158 8162 8166 8164 8169 8173 8171 8174 8174 8176 8177 8181 8177 8177 8177 8180 8174 8156 8142 8141 8161 8183 8142 8111 8156 8185 8181 8182 8192 8174 8121 8168 8194 8169 8157 8159 8185 8188 8186 8188 8187 8189 8189 8193 8189 8193 8196 8196 8196 8197 8196 8197 8200 8198 8199 8195 8195 8191 8193 8191 8191 8192 8190 8193 8195 8194 8191 8189 8193 8195 8210 8219 
8163 8166 8164 8163 8159 8156 8163 8160 8164 8166 8166 8170 8169 8171 8173 8176 8177 8179 8178 8181 8179 8177 8179 8177 8175 8149 8144 8148 8181 8186 8161 8178 8181 8193 8192 8189 8188 8185 8165 8138 8195 8190 8163 8157 8185 8192 8188 8187 8189 8191 8190 8193 8190 8190 8196 8194 8196 8192 8193 8193 8197 8200 8198 8194 8192 8194 8190 8190 8190 8190 8190 8191 8197 8196 8196 8190 8191 8190 8209 8228 
8162 8166 8163 8161 8162 8164 8162 8161 8167 8169 8172 8171 8174 8173 8172 8176 8173 8179 8177 8179 8181 8178 8181 8180 8172 8146 8149 8165 8177 8164 8190 8184 8190 8199 8196 8194 8196 8186 8192 8188 8191 8193 8172 8153 8181 8191 8189 8188 8187 8189 8191 8195 8191 8192 8196 8193 8194 8192 8191 8191 8196 8193 8196 8192 8190 8192 8191 8192 8191 8191 8190 8192 8196 8195 8195 8189 8191 8189 8203 8239 
8168 8168 8166 8162 8164 8163 8165 8165 8166 8168 8171 8171 8174 8172 8177 8178 8176 8179 8179 8179 8179 8179 8178 8180 8169 8146 8149 8172 8157 8137 8187 8189 8194 8197 8199 8198 8190 8192 8192 8192 8185 8191 8172 8154 8186 8191 8189 8188 8188 8190 8191 8193 8191 8194 8195 8193 8192 8191 8189 8186 8191 8190 8194 8190 8190 8189 8191 8190 8188 8192 8188 8193 8195 8192 8194 8189 8191 8190 8200 8239 
8166 8166 8166 8166 8166 8165 8167 8165 8168 8167 8170 8170 8176 8172 8175 8175 8174 8177 8176 8180 8182 8181 8180 8182 8174 8146 8154 8174 8166 8170 8188 8190 8191 8197 8197 8196 8188 8173 8173 8189 8182 8192 8172 8157 8189 8191 8187 8187 8187 8189 8190 8192 8191 8191 8192 8192 8191 8188 8186 8185 8187 8185 8190 8189 8189 8188 8188 8188 8191 8191 8190 8190 8192 8192 8192 8191 8194 8189 8194 8241 
8165 8168 8167 8167 8163 8166 8165 8166 8166 8168 8166 8170 8171 8173 8174 8173 8172 8173 8176 8178 8178 8178 8176 8176 8174 8152 8150 8174 8183 8183 8193 8188 8188 8189 8193 8193 8177 8129 8166 8180 8177 8181 8158 8164 8187 8191 8186 8191 8185 8191 8189 8190 8187 8187 8190 8188 8190 8188 8186 8182 8185 8183 8185 8186 8187 8187 8187 8186 8189 8191 8190 8194 8192 8191 8189 8191 8188 8190 8191 8232 
8168 8169 8169 8165 8163 8163 8168 8167 8167 8170 8168 8170 8170 8171 8173 8173 8175 8177 8179 8178 8179 8176 8177 8178 8179 8163 8151 8168 8181 8151 8182 8187 8178 8179 8186 8181 8129 8108 8170 8179 8184 8179 8159 8178 8189 8189 8189 8188 8190 8195 8190 8190 8188 8188 8189 8192 8191 8190 8188 8183 8183 8184 8183 8183 8184 8184 8187 8188 8190 8191 8193 8192 8192 8192 8192 8189 8192 8190 8191 8222 
8169 8172 8170 8168 8163 8161 8167 8165 8170 8166 8166 8169 8170 8173 8172 8173 8175 8176 8179 8181 8180 8180 8178 8182 8180 8176 8152 8151 8175 8164 8170 8190 8177 8162 8178 8175 8149 8171 8176 8177 8186 8164 8170 8188 8186 8187 8186 8188 8188 8191 8189 8188 8185 8188 8188 8192 8190 8186 8185 8182 8185 8183 8183 8184 8181 8183 8188 8188 8192 8188 8193 8194 8195 8193 8188 8190 8194 8191 8192 8216 
8171 8173 8171 8168 8165 8167 8169 8169 8172 8168 8170 8169 8170 8172 8175 8174 8177 8181 8181 8181 8181 8178 8180 8178 8182 8178 8170 8150 8157 8179 8182 8183 8188 8189 8189 8186 8182 8146 8161 8185 8171 8164 8185 8186 8188 8191 8189 8191 8190 8191 8188 8186 8187 8188 8188 8193 8189 8186 8186 8182 8184 8183 8182 8181 8180 8185 8186 8190 8186 8192 8191 8192 8193 8195 8192 8191 8196 8189 8192 8210 
8173 8175 8171 8170 8166 8163 8169 8169 8172 8170 8170 8170 8170 8171 8172 8176 8176 8179 8176 8179 8178 8179 8181 8181 8180 8178 8174 8162 8149 8157 8181 8188 8181 8180 8177 8177 8172 8173 8179 8162 8172 8182 8184 8186 8188 8188 8190 8189 8188 8188 8188 8192 8188 8186 8188 8188 8186 8184 8185 8182 8185 8184 8183 8180 8183 8182 8185 8186 8188 8189 8191 8191 8192 8191 8192 8190 8191 8191 8191 8216 
8174 8173 8171 8168 8167 8168 8170 8168 8173 8169 8169 8171 8172 8170 8170 8173 8177 8180 8178 8179 8179 8178 8180 8179 8181 8181 8178 8170 8164 8161 8153 8162 8173 8178 8178 8176 8171 8163 8164 8176 8182 8181 8187 8188 8187 8188 8186 8187 8190 8190 8188 8189 8190 8190 8185 8186 8183 8185 8184 8185 8184 8186 8185 8183 8182 8181 8183 8185 8186 8189 8188 8188 8190 8190 8189 8189 8193 8190 8192 8208 
8175 8176 8174 8170 8167 8165 8170 8169 8171 8166 8170 8172 8170 8172 8174 8175 8175 8176 8177 8178 8180 8178 8179 8182 8181 8182 8179 8179 8170 8172 8167 8165 8164 8165 8163 8168 8174 8177 8178 8178 8181 8184 8190 8189 8190 8187 8184 8187 8188 8189 8192 8192 8187 8187 8186 8185 8187 8185 8185 8184 8182 8183 8186 8181 8185 8184 8183 8182 8183 8186 8188 8187 8190 8192 8190 8190 8189 8189 8190 8205 
8174 8175 8174 8168 8166 8167 8172 8170 8167 8165 8172 8168 8171 8170 8173 8174 8175 8175 8177 8180 8179 8177 8179 8180 8178 8179 8184 8181 8177 8176 8173 8171 8171 8172 8175 8174 8178 8181 8183 8184 8186 8189 8191 8188 8188 8189 8183 8186 8186 8189 8188 8190 8184 8182 8184 8183 8184 8185 8186 8184 8187 8185 8185 8184 8182 8183 8183 8182 8183 8186 8187 8188 8190 8194 8192 8189 8194 8191 8188 8198 
8171 8174 8174 8169 8168 8171 8171 8169 8169 8166 8166 8171 8172 8172 8174 8173 8173 8176 8175 8180 8177 8178 8176 8179 8179 8182 8187 8183 8181 8178 8176 8173 8176 8178 8178 8177 8179 8184 8187 8186 8190 8188 8191 8186 8186 8184 8185 8188 8187 8190 8187 8187 8185 8184 8186 8186 8188 8189 8188 8188 8187 8190 8187 8185 8184 8183 8184 8184 8183 8186 8186 8189 8189 8191 8189 8185 8190 8189 8188 8191 
8169 8171 8170 8168 8166 8170 8172 8174 8167 8167 8164 8172 8173 8172 8173 8174 8175 8176 8174 8177 8177 8176 8174 8176 8180 8184 8186 8184 8180 8180 8180 8179 8178 8181 8181 8181 8183 8186 8189 8186 8189 8190 8191 8188 8186 8187 8183 8188 8187 8187 8188 8187 8188 8189 8191 8188 8189 8191 8190 8190 8192 8190 8190 8189 8187 8184 8186 8183 8188 8185 8185 8188 8189 8188 8188 8186 8190 8188 8184 8185 
8166 8171 8165 8168 8168 8169 8173 8169 8169 8165 8167 8169 8172 8174 8175 8174 8173 8175 8175 8176 8179 8177 8179 8180 8180 8180 8184 8182 8182 8182 8181 8181 8182 8184 8182 8184 8186 8187 8190 8189 8189 8189 8190 8186 8186 8186 8184 8187 8188 8191 8189 8193 8188 8189 8192 8192 8193 8193 8193 8189 8193 8191 8190 8189 8188 8187 8187 8187 8188 8188 8187 8187 8188 8189 8188 8187 8188 8189 8183 8180 
8167 8167 8168 8169 8167 8167 8174 8168 8170 8165 8168 8169 8173 8170 8172 8176 8174 8177 8175 8176 8178 8179 8179 8179 8178 8178 8181 8180 8182 8183 8182 8182 8182 8184 8180 8185 8185 8187 8189 8188 8187 8188 8189 8188 8184 8187 8184 8187 8186 8188 8191 8193 8189 8190 8192 8191 8192 8196 8193 8189 8193 8191 8191 8190 8187 8188 8186 8186 8190 8188 8189 8190 8187 8187 8187 8186 8189 8187 8186 8184 
8166 8166 8165 8165 8167 8168 8172 8170 8168 8167 8166 8170 8172 8171 8171 8176 8174 8177 8178 8178 8177 8176 8178 8178 8180 8181 8183 8181 8180 8180 8180 8182 8182 8183 8183 8182 8184 8187 8190 8184 8186 8186 8187 8189 8186 8184 8186 8185 8189 8190 8187 8194 8192 8194 8194 8192 8195 8193 8192 8191 8192 8190 8191 8188 8187 8187 8187 8184 8186 8188 8185 8187 8187 8188 8187 8185 8188 8183 8181 8179 
8162 8163 8161 8164 8166 8163 8169 8170 8169 8167 8164 8169 8173 8173 8173 8176 8177 8177 8176 8177 8178 8177 8180 8179 8181 8181 8180 8179 8180 8182 8181 8180 8181 8183 8180 8182 8184 8185 8188 8184 8186 8189 8188 8188 8187 8189 8187 8187 8186 8190 8187 8195 8192 8190 8193 8193 8191 8194 8192 8194 8195 8189 8191 8190 8187 8188 8186 8183 8187 8187 8187 8185 8187 8186 8185 8186 8186 8182 8181 8181 
8165 8167 8164 8167 8164 8162 8167 8165 8167 8165 8167 8167 8171 8172 8174 8173 8176 8176 8176 8180 8180 8178 8178 8175 8177 8177 8183 8178 8178 8182 8181 8183 8182 8183 8181 8181 8183 8186 8190 8186 8189 8187 8191 8191 8189 8187 8188 8188 8189 8194 8190 8194 8191 8193 8193 8193 8192 8192 8196 8192 8193 8190 8191 8190 8188 8187 8188 8188 8186 8187 8187 8184 8187 8187 8188 8186 8184 8186 8183 8179 
8166 8169 8167 8169 8164 8166 8166 8167 8168 8168 8166 8171 8174 8171 8172 8178 8179 8177 8176 8182 8177 8177 8178 8177 8179 8177 8182 8180 8181 8184 8185 8183 8182 8185 8183 8181 8187 8188 8190 8183 8186 8190 8191 8191 8189 8192 8188 8190 8191 8193 8191 8194 8195 8193 8193 8194 8194 8195 8195 8191 8193 8191 8191 8190 8188 8187 8187 8187 8190 8187 8188 8188 8187 8187 8187 8184 8185 8186 8180 8181 
8165 8170 8168 8169 8165 8167 8167 8163 8167 8168 8168 8170 8172 8175 8172 8173 8176 8176 8178 8178 8176 8174 8179 8177 8177 8180 8183 8184 8180 8181 8180 8180 8182 8185 8183 8185 8185 8185 8188 8183 8184 8191 8192 8192 8190 8190 8189 8191 8191 8192 8191 8194 8188 8191 8190 8194 8193 8193 8192 8191 8194 8190 8192 8188 8191 8187 8187 8185 8182 8185 8186 8188 8187 8188 8188 8185 8183 8184 8184 8179 
8169 8170 8167 8167 8165 8164 8165 8166 8167 8168 8168 8169 8174 8171 8169 8174 8174 8178 8176 8177 8176 8176 8176 8175 8181 8180 8184 8182 8180 8182 8179 8180 8181 8185 8185 8184 8185 8185 8185 8186 8189 8187 8193 8191 8188 8187 8189 8191 8191 8192 8192 8192 8189 8188 8194 8192 8192 8193 8194 8190 8192 8192 8190 8188 8190 8188 8188 8188 8186 8189 8185 8185 8188 8187 8187 8185 8185 8184 8182 8175 
8166 8169 8166 8167 8167 8166 8167 8166 8164 8169 8168 8168 8170 8168 8169 8173 8175 8176 8174 8174 8177 8176 8173 8177 8179 8177 8184 8182 8180 8179 8181 8180 8183 8185 8184 8182 8185 8189 8188 8187 8189 8187 8194 8193 8188 8190 8186 8191 8189 8193 8190 8192 8190 8191 8192 8193 8193 8194 8192 8189 8192 8192 8188 8187 8189 8184 8186 8186 8187 8187 8188 8187 8187 8183 8187 8185 8181 8184 8180 8182 
8167 8170 8170 8169 8168 8166 8168 8166 8167 8168 8165 8168 8170 8171 8169 8170 8174 8175 8176 8175 8174 8176 8179 8177 8178 8178 8184 8179 8181 8182 8183 8183 8183 8185 8181 8185 8188 8188 8188 8189 8190 8191 8194 8194 8191 8190 8186 8188 8190 8192 8188 8191 8191 8191 8192 8191 8191 8193 8193 8190 8193 8191 8193 8191 8188 8187 8189 8188 8188 8187 8190 8187 8188 8186 8187 8184 8187 8184 8182 8174 
8166 8170 8168 8169 8169 8166 8169 8164 8167 8165 8167 8166 8166 8172 8167 8174 8172 8174 8172 8175 8175 8174 8175 8177 8177 8178 8180 8184 8180 8183 8181 8181 8183 8184 8182 8183 8185 8186 8187 8189 8187 8190 8195 8194 8192 8191 8188 8187 8185 8192 8191 8190 8190 8191 8190 8189 8190 8191 8195 8191 8194 8190 8190 8188 8190 8188 8186 8189 8187 8187 8191 8188 8189 8187 8188 8182 8184 8185 8181 8180 
8166 8168 8169 8169 8168 8164 8167 8167 8163 8162 8163 8164 8165 8167 8169 8168 8174 8171 8172 8178 8177 8173 8174 8175 8174 8174 8181 8178 8179 8181 8180 8179 8183 8184 8184 8183 8183 8187 8189 8187 8190 8190 8194 8192 8191 8191 8186 8187 8186 8189 8192 8190 8185 8188 8194 8189 8190 8193 8194 8191 8195 8190 8192 8187 8187 8188 8192 8187 8189 8190 8189 8190 8188 8187 8187 8184 8186 8186 8180 8183 
8170 8172 8170 8172 8168 8163 8166 8164 8163 8160 8164 8166 8168 8168 8165 8168 8172 8168 8171 8171 8170 8172 8173 8172 8175 8175 8176 8177 8176 8177 8179 8179 8179 8185 8184 8184 8182 8189 8187 8186 8188 8190 8191 8192 8191 8191 8186 8191 8186 8190 8191 8191 8186 8189 8190 8188 8189 8196 8193 8190 8194 8191 8193 8188 8189 8184 8189 8190 8189 8187 8188 8190 8189 8188 8187 8188 8189 8187 8186 8180 
8173 8171 8172 8169 8166 8166 8164 8163 8160 8161 8160 8163 8164 8167 8166 8166 8169 8168 8168 8173 8167 8170 8171 8172 8174 8175 8179 8175 8175 8178 8178 8180 8179 8182 8181 8181 8186 8185 8186 8186 8188 8188 8190 8189 8192 8190 8186 8189 8189 8191 8191 8189 8187 8186 8188 8187 8190 8193 8194 8191 8192 8189 8191 8189 8188 8186 8184 8186 8187 8187 8187 8188 8187 8188 8187 8189 8188 8193 8185 8186 
8178 8180 8175 8171 8168 8168 8169 8163 8162 8159 8161 8164 8166 8169 8167 8167 8170 8168 8168 8171 8171 8171 8169 8171 8177 8173 8180 8176 8176 8182 8180 8178 8179 8182 8179 8181 8183 8188 8187 8186 8188 8188 8190 8187 8187 8190 8190 8191 8190 8188 8189 8190 8187 8189 8189 8187 8188 8194 8191 8194 8191 8188 8191 8188 8187 8185 8187 8187 8189 8186 8188 8190 8187 8189 8189 8186 8191 8194 8191 8186 
8184 8179 8173 8170 8168 8170 8167 8161 8159 8161 8162 8165 8164 8165 8165 8168 8171 8170 8171 8171 8171 8173 8172 8171 8173 8174 8177 8176 8177 8179 8181 8180 8175 8183 8182 8178 8182 8189 8186 8185 8188 8188 8190 8186 8187 8188 8189 8191 8190 8189 8188 8192 8184 8188 8191 8189 8190 8194 8192 8190 8188 8184 8188 8185 8189 8187 8185 8183 8184 8186 8187 8187 8187 8186 8185 8186 8191 8193 8187 8186 


