P2
80 60
8273
8244 8250 8255 8255 8254 8260 8247 8248 8247 8249 8254 8255 8257 8253 8253 8257 8256 8256 8253 8253 8255 8254 8250 8253 8248 8248 8247 8245 8246 8246 8252 8245 8247 8248 8243 8244 8242 8246 8250 8252 8248 8248 8248 8248 8248 8250 8248 8253 8248 8249 8248 8244 8242 8242 8246 8244 8240 8242 8249 8248 8252 8247 8250 8253 8253 8251 8255 8255 8256 8258 8258 8261 8261 8273 8271 8264 8267 8267 8264 8260 
8243 8255 8259 8255 8259 8258 8250 8252 8250 8251 8251 8254 8255 8251 8255 8257 8255 8254 8256 8257 8257 8256 8252 8249 8254 8251 8241 8243 8249 8248 8250 8247 8246 8248 8240 8245 8240 8249 8249 8253 8250 8251 8244 8247 8249 8252 8252 8251 8250 8255 8249 8246 8247 8246 8247 8249 8246 8246 8250 8251 8254 8251 8252 8249 8251 8254 8253 8258 8259 8264 8256 8255 8266 8270 8273 8266 8268 8273 8262 8260 
8241 8247 8251 8251 8255 8250 8249 8254 8251 8249 8254 8252 8249 8257 8256 8253 8255 8255 8255 8253 8253 8256 8254 8244 8251 8254 8250 8247 8247 8246 8244 8244 8243 8250 8243 8246 8240 8248 8251 8252 8249 8244 8243 8246 8247 8249 8250 8253 8250 8247 8250 8246 8246 8250 8250 8248 8246 8247 8251 8248 8256 8253 8252 8251 8252 8254 8254 8259 8260 8261 8256 8255 8260 8268 8264 8261 8268 8268 8258 8261 
8237 8239 8256 8249 8256 8253 8253 8253 8252 8250 8248 8246 8251 8252 8250 8254 8254 8255 8252 8252 8251 8244 8240 8249 8252 8251 8248 8248 8246 8250 8244 8247 8249 8248 8252 8243 8249 8245 8247 8246 8249 8245 8245 8242 8246 8245 8248 8252 8250 8246 8250 8244 8247 8248 8251 8248 8247 8248 8251 8253 8254 8253 8251 8251 8247 8248 8255 8260 8257 8263 8253 8257 8258 8264 8266 8258 8268 8266 8262 8255 
8241 8243 8254 8248 8252 8252 8253 8246 8248 8248 8248 8245 8248 8250 8245 8252 8253 8254 8254 8254 8250 8250 8239 8242 8246 8250 8244 8245 8243 8246 8244 8246 8245 8243 8244 8248 8246 8244 8248 8251 8251 8244 8243 8241 8243 8244 8244 8249 8246 8249 8251 8246 8246 8248 8250 8245 8248 8250 8255 8252 8257 8255 8247 8254 8249 8248 8251 8253 8257 8258 8253 8259 8258 8266 8254 8258 8259 8261 8260 8257 
8242 8245 8251 8250 8250 8251 8256 8252 8248 8246 8242 8245 8250 8246 8250 8252 8254 8246 8252 8255 8248 8248 8250 8244 8253 8249 8248 8243 8243 8248 8252 8248 8245 8240 8247 8245 8247 8250 8246 8252 8248 8247 8247 8242 8240 8244 8248 8250 8246 8248 8249 8246 8248 8251 8247 8253 8250 8251 8259 8255 8256 8255 8249 8249 8249 8250 8251 8252 8254 8257 8259 8252 8263 8259 8255 8257 8258 8257 8257 8261 
8247 8250 8250 8252 8252 8251 8257 8254 8248 8240 8237 8248 8249 8245 8248 8255 8251 8250 8250 8254 8250 8246 8249 8249 8255 8250 8238 8239 8245 8252 8251 8251 8243 8245 8241 8244 8246 8246 8249 8251 8252 8248 8250 8246 8246 8245 8252 8249 8249 8251 8248 8242 8248 8247 8249 8250 8249 8247 8254 8255 8253 8253 8254 8250 8252 8251 8257 8258 8252 8253 8260 8252 8259 8257 8261 8261 8258 8256 8259 8259 
8245 8249 8254 8252 8248 8254 8254 8262 8251 8234 8246 8250 8249 8245 8248 8252 8246 8251 8251 8252 8254 8250 8249 8250 8253 8255 8238 8244 8248 8250 8250 8250 8252 8245 8243 8246 8243 8246 8245 8251 8252 8246 8246 8246 8246 8248 8252 8246 8248 8245 8244 8245 8244 8247 8248 8248 8246 8249 8249 8247 8250 8251 8255 8252 8248 8259 8256 8258 8258 8251 8251 8250 8254 8256 8259 8263 8254 8263 8263 8263 
8247 8247 8252 8250 8255 8253 8258 8254 8249 8239 8242 8247 8248 8246 8243 8248 8247 8252 8254 8253 8251 8244 8248 8248 8243 8250 8241 8241 8242 8244 8247 8246 8246 8241 8246 8244 8246 8244 8246 8248 8249 8247 8245 8245 8245 8248 8246 8249 8245 8241 8244 8244 8244 8246 8250 8245 8249 8248 8251 8250 8251 8249 8254 8250 8253 8249 8255 8259 8257 8257 8249 8248 8244 8257 8257 8259 8263 8267 8270 8271 
8249 8243 8251 8254 8250 8255 8248 8253 8252 8250 8248 8248 8245 8247 8246 8242 8251 8251 8256 8258 8251 8245 8251 8243 8245 8250 8243 8246 8247 8247 8241 8246 8242 8241 8246 8247 8245 8251 8246 8248 8249 8249 8247 8240 8239 8248 8250 8248 8245 8244 8242 8240 8244 8242 8244 8243 8246 8246 8250 8250 8252 8253 8252 8250 8250 8246 8257 8255 8254 8256 8253 8249 8253 8255 8261 8253 8261 8265 8268 8273 
8249 8250 8255 8249 8250 8255 8243 8249 8251 8243 8248 8243 8245 8246 8244 8244 8247 8247 8248 8253 8249 8247 8247 8247 8242 8242 8244 8246 8243 8246 8247 8239 8239 8242 8243 8237 8242 8242 8246 8246 8245 8244 8240 8246 8243 8251 8249 8248 8248 8246 8238 8243 8246 8245 8241 8242 8248 8242 8253 8249 8250 8250 8251 8248 8249 8251 8258 8255 8254 8254 8254 8249 8249 8253 8257 8251 8259 8261 8261 8261 
8250 8255 8254 8246 8246 8251 8246 8250 8252 8243 8248 8243 8245 8245 8246 8247 8250 8246 8245 8250 8252 8251 8245 8245 8249 8249 8242 8243 8244 8245 8247 8245 8240 8246 8239 8235 8242 8243 8245 8243 8243 8245 8245 8250 8248 8247 8249 8247 8243 8244 8249 8246 8246 8245 8243 8244 8239 8243 8249 8250 8247 8249 8251 8249 8249 8252 8254 8255 8254 8250 8249 8252 8248 8252 8249 8250 8259 8259 8254 8257 
8248 8252 8253 8248 8249 8249 8249 8246 8246 8245 8248 8243 8243 8244 8245 8251 8247 8248 8249 8250 8248 8248 8242 8243 8246 8242 8236 8245 8244 8241 8250 8239 8240 8242 8234 8235 8246 8249 8241 8240 8242 8245 8249 8248 8244 8243 8249 8246 8246 8244 8248 8247 8245 8244 8244 8241 8245 8243 8249 8249 8249 8248 8250 8250 8249 8250 8256 8252 8251 8246 8250 8247 8247 8248 8248 8254 8262 8257 8257 8257 
8252 8260 8256 8249 8250 8251 8253 8250 8240 8249 8247 8248 8244 8243 8249 8250 8251 8249 8250 8252 8249 8249 8246 8243 8246 8248 8244 8241 8240 8242 8251 8233 8243 8241 8239 8242 8238 8242 8239 8240 8239 8243 8249 8250 8248 8245 8248 8247 8251 8246 8245 8245 8244 8248 8247 8242 8247 8246 8250 8248 8248 8246 8249 8251 8251 8252 8252 8252 8251 8250 8250 8250 8248 8251 8249 8257 8258 8262 8254 8254 
8254 8249 8257 8255 8253 8252 8249 8253 8245 8247 8246 8248 8247 8245 8249 8251 8252 8248 8252 8252 8243 8245 8242 8244 8242 8244 8244 8238 8243 8248 8237 8235 8241 8238 8242 8242 8242 8242 8239 8239 8239 8238 8244 8243 8243 8243 8244 8244 8240 8244 8245 8247 8246 8245 8244 8244 8247 8251 8248 8248 8250 8244 8248 8251 8251 8257 8250 8251 8248 8250 8251 8248 8247 8249 8250 8252 8252 8256 8254 8252 
8252 8243 8254 8251 8251 8251 8244 8248 8248 8249 8246 8247 8245 8244 8248 8250 8249 8249 8249 8250 8242 8246 8242 8241 8243 8247 8247 8236 8240 8247 8244 8240 8241 8242 8239 8239 8242 8240 8237 8239 8242 8240 8241 8243 8242 8242 8244 8244 8236 8240 8242 8243 8245 8244 8243 8247 8246 8244 8249 8249 8249 8241 8246 8249 8252 8249 8250 8249 8248 8249 8249 8250 8248 8247 8245 8252 8254 8257 8253 8252 
8250 8243 8252 8254 8249 8248 8248 8247 8248 8248 8246 8248 8246 8240 8245 8250 8250 8250 8252 8245 8243 8249 8246 8241 8238 8247 8245 8244 8242 8245 8246 8243 8241 8245 8241 8240 8246 8243 8242 8243 8242 8240 8241 8241 8242 8239 8242 8238 8237 8243 8241 8246 8243 8242 8238 8243 8237 8243 8246 8247 8248 8243 8245 8248 8250 8251 8249 8251 8248 8245 8249 8252 8248 8251 8249 8252 8255 8255 8250 8252 
8256 8248 8256 8251 8250 8251 8245 8252 8247 8250 8249 8251 8249 8248 8250 8248 8251 8247 8253 8249 8246 8251 8246 8238 8243 8249 8252 8242 8239 8246 8247 8245 8246 8249 8245 8245 8244 8242 8241 8244 8240 8237 8241 8242 8245 8244 8245 8236 8245 8244 8242 8246 8239 8243 8240 8242 8238 8242 8242 8248 8249 8246 8247 8249 8247 8249 8250 8252 8248 8248 8249 8252 8250 8249 8251 8254 8257 8252 8251 8248 
8254 8248 8255 8253 8251 8252 8256 8251 8255 8247 8249 8248 8250 8246 8247 8252 8247 8249 8248 8245 8245 8248 8248 8244 8245 8249 8251 8239 8238 8241 8242 8244 8247 8245 8245 8242 8244 8239 8242 8243 8242 8239 8240 8242 8243 8241 8245 8249 8239 8239 8245 8243 8241 8239 8239 8240 8242 8244 8245 8247 8243 8246 8249 8249 8247 8247 8248 8249 8249 8250 8250 8250 8249 8249 8251 8256 8253 8254 8249 8252 
8254 8246 8255 8251 8246 8254 8250 8254 8254 8248 8255 8252 8249 8250 8248 8250 8248 8248 8247 8247 8241 8252 8245 8246 8248 8241 8250 8239 8240 8241 8242 8245 8242 8246 8249 8245 8241 8241 8242 8243 8243 8236 8243 8244 8239 8243 8243 8242 8242 8243 8240 8244 8240 8237 8241 8243 8245 8245 8242 8243 8245 8245 8244 8247 8246 8248 8248 8247 8248 8248 8251 8250 8248 8247 8250 8249 8252 8255 8248 8251 
8256 8252 8251 8244 8247 8246 8245 8255 8253 8246 8247 8249 8248 8244 8244 8249 8250 8245 8243 8247 8243 8244 8246 8245 8242 8241 8244 8244 8243 8244 8247 8240 8244 8244 8245 8248 8243 8242 8241 8245 8245 8239 8244 8242 8238 8241 8242 8239 8240 8238 8240 8240 8242 8241 8241 8242 8243 8244 8245 8244 8245 8245 8246 8244 8245 8248 8245 8250 8249 8247 8248 8247 8247 8246 8249 8252 8250 8251 8252 8251 
8256 8257 8254 8259 8252 8251 8235 8252 8242 8250 8247 8246 8253 8250 8242 8249 8245 8241 8243 8247 8246 8250 8247 8247 8241 8244 8243 8245 8239 8246 8243 8241 8245 8248 8245 8241 8242 8242 8242 8247 8241 8241 8241 8239 8237 8240 8240 8240 8243 8236 8238 8241 8237 8239 8244 8244 8243 8246 8243 8242 8245 8241 8244 8248 8248 8249 8248 8248 8247 8247 8249 8246 8245 8243 8247 8250 8249 8251 8248 8249 
8255 8255 8257 8255 8254 8248 8239 8240 8238 8249 8254 8245 8247 8248 8246 8249 8245 8242 8240 8243 8246 8251 8244 8247 8247 8246 8244 8246 8244 8247 8249 8241 8248 8245 8243 8245 8242 8240 8246 8238 8239 8240 8245 8243 8238 8238 8236 8239 8238 8235 8240 8238 8236 8241 8246 8242 8245 8243 8241 8240 8242 8244 8248 8249 8251 8250 8248 8251 8249 8248 8248 8246 8246 8243 8248 8247 8250 8256 8251 8245 
8254 8258 8256 8255 8255 8256 8247 8241 8250 8252 8253 8249 8249 8247 8250 8248 8248 8248 8245 8249 8248 8246 8248 8243 8243 8244 8245 8241 8244 8243 8242 8248 8247 8246 8244 8242 8247 8244 8240 8241 8242 8244 8244 8244 8245 8242 8240 8238 8239 8239 8242 8238 8236 8241 8244 8246 8242 8243 8244 8243 8242 8247 8245 8249 8249 8250 8249 8250 8247 8245 8247 8245 8248 8243 8245 8245 8249 8251 8249 8248 
8256 8250 8261 8258 8254 8256 8248 8252 8252 8245 8251 8249 8255 8249 8252 8250 8247 8247 8244 8247 8249 8248 8248 8244 8241 8245 8247 8243 8244 8242 8251 8248 8246 8248 8245 8241 8248 8245 8242 8247 8244 8245 8246 8247 8241 8244 8245 8243 8239 8245 8244 8240 8237 8242 8240 8242 8245 8245 8246 8247 8246 8244 8244 8244 8248 8248 8251 8250 8249 8246 8246 8244 8246 8245 8249 8246 8249 8253 8253 8251 
8253 8250 8255 8251 8251 8248 8252 8248 8245 8246 8247 8251 8252 8248 8250 8249 8250 8247 8246 8242 8246 8247 8249 8244 8243 8242 8243 8242 8244 8245 8243 8244 8243 8249 8245 8244 8244 8246 8242 8246 8247 8244 8244 8247 8241 8242 8245 8239 8242 8242 8243 8238 8237 8241 8240 8241 8243 8242 8246 8246 8249 8243 8244 8246 8247 8248 8250 8249 8245 8244 8245 8246 8246 8244 8247 8249 8248 8251 8249 8255 
8255 8253 8254 8255 8248 8252 8250 8243 8246 8247 8247 8251 8248 8249 8252 8253 8247 8246 8246 8244 8243 8244 8245 8245 8242 8241 8249 8246 8247 8248 8244 8246 8244 8244 8244 8246 8240 8242 8243 8244 8245 8242 8243 8244 8241 8241 8245 8239 8247 8243 8240 8241 8236 8245 8245 8242 8243 8247 8247 8246 8248 8244 8247 8247 8250 8247 8249 8246 8246 8243 8244 8243 8246 8245 8245 8247 8251 8253 8251 8245 
8254 8258 8259 8253 8254 8250 8252 8249 8247 8250 8248 8249 8252 8244 8249 8248 8248 8251 8249 8245 8244 8244 8246 8243 8246 8247 8247 8250 8251 8246 8247 8248 8243 8247 8243 8245 8244 8242 8243 8246 8244 8244 8245 8243 8243 8242 8243 8240 8247 8242 8240 8240 8239 8243 8245 8245 8244 8248 8250 8250 8247 8244 8246 8248 8247 8247 8249 8244 8242 8243 8244 8242 8244 8242 8247 8247 8251 8251 8249 8248 
8252 8252 8258 8259 8248 8257 8251 8252 8253 8255 8255 8254 8252 8252 8250 8251 8248 8250 8246 8246 8246 8245 8247 8248 8247 8248 8252 8249 8247 8245 8247 8246 8247 8246 8242 8241 8243 8241 8247 8241 8240 8240 8247 8247 8243 8242 8246 8246 8244 8246 8243 8241 8240 8246 8248 8248 8245 8245 8248 8245 8250 8244 8243 8248 8250 8250 8246 8243 8241 8241 8242 8243 8242 8243 8249 8246 8253 8255 8252 8249 
8254 8248 8258 8259 8256 8259 8255 8251 8257 8249 8256 8252 8250 8251 8249 8251 8250 8249 8245 8242 8246 8245 8246 8248 8249 8249 8248 8252 8245 8249 8248 8246 8246 8244 8246 8243 8245 8248 8246 8243 8243 8237 8247 8244 8244 8242 8241 8243 8240 8244 8244 8243 8242 8249 8245 8249 8246 8246 8245 8243 8247 8244 8247 8250 8250 8249 8250 8244 8239 8240 8242 8243 8242 8242 8247 8248 8248 8256 8253 8257 
8258 8254 8261 8258 8258 8257 8250 8256 8256 8248 8255 8253 8251 8249 8252 8249 8250 8248 8244 8245 8243 8242 8249 8251 8246 8245 8247 8248 8246 8247 8246 8246 8248 8245 8239 8239 8243 8246 8246 8244 8243 8240 8243 8245 8245 8244 8245 8246 8244 8245 8244 8244 8242 8244 8248 8248 8247 8245 8245 8246 8246 8246 8246 8250 8251 8249 8248 8246 8242 8244 8241 8249 8246 8249 8248 8247 8253 8257 8254 8253 
8258 8251 8256 8254 8254 8255 8254 8252 8253 8251 8248 8250 8248 8249 8247 8252 8250 8244 8244 8243 8243 8248 8248 8250 8250 8249 8251 8251 8248 8246 8243 8245 8247 8245 8245 8246 8243 8244 8247 8245 8244 8242 8242 8248 8247 8246 8247 8245 8246 8245 8244 8244 8246 8245 8243 8246 8245 8247 8247 8245 8246 8246 8244 8247 8249 8246 8246 8246 8246 8243 8244 8246 8244 8246 8247 8249 8249 8254 8252 8254 
8261 8257 8258 8257 8254 8257 8253 8254 8254 8252 8249 8251 8248 8247 8247 8249 8248 8247 8242 8242 8243 8247 8248 8251 8251 8249 8253 8249 8249 8247 8245 8246 8250 8240 8244 8244 8244 8241 8250 8245 8241 8245 8244 8246 8247 8249 8251 8249 8247 8247 8246 8244 8242 8244 8244 8246 8246 8246 8246 8242 8245 8244 8248 8250 8248 8243 8246 8246 8247 8246 8245 8248 8246 8246 8247 8254 8255 8253 8253 8254 
8260 8256 8266 8261 8257 8259 8257 8253 8254 8251 8252 8251 8248 8248 8245 8249 8247 8249 8246 8243 8246 8247 8246 8249 8250 8253 8248 8253 8250 8246 8243 8243 8245 8245 8246 8247 8247 8246 8247 8248 8248 8245 8247 8248 8250 8251 8250 8249 8248 8248 8246 8246 8245 8245 8245 8244 8245 8246 8245 8244 8245 8245 8249 8247 8247 8249 8247 8249 8246 8246 8249 8246 8247 8248 8250 8251 8256 8253 8250 8251 
8262 8262 8264 8263 8257 8255 8257 8257 8253 8251 8251 8253 8246 8249 8250 8249 8251 8250 8251 8251 8246 8249 8248 8247 8250 8253 8249 8249 8250 8246 8246 8242 8242 8243 8247 8249 8249 8248 8250 8250 8249 8247 8245 8249 8248 8249 8250 8249 8247 8248 8249 8247 8244 8245 8244 8244 8247 8245 8244 8246 8249 8247 8247 8246 8248 8245 8249 8250 8250 8248 8246 8246 8246 8252 8250 8253 8255 8256 8249 8253 
8267 8262 8267 8265 8257 8259 8261 8260 8255 8253 8249 8256 8252 8247 8250 8252 8255 8252 8254 8249 8252 8251 8252 8246 8249 8247 8245 8243 8248 8249 8246 8239 8249 8245 8245 8249 8252 8249 8247 8250 8249 8245 8246 8249 8249 8249 8249 8248 8246 8246 8245 8247 8245 8245 8246 8246 8247 8245 8247 8243 8246 8248 8249 8247 8247 8245 8250 8247 8246 8248 8246 8249 8249 8248 8247 8252 8254 8256 8248 8248 
8262 8265 8264 8261 8258 8257 8261 8259 8255 8250 8255 8255 8255 8250 8246 8253 8254 8250 8250 8248 8250 8251 8251 8247 8248 8249 8252 8248 8248 8249 8245 8242 8244 8245 8246 8246 8249 8247 8246 8250 8248 8244 8247 8249 8248 8250 8251 8250 8246 8248 8250 8246 8243 8245 8244 8248 8245 8245 8250 8246 8246 8248 8248 8250 8246 8247 8250 8248 8248 8248 8246 8247 8252 8254 8259 8256 8257 8253 8251 8248 
8263 8262 8265 8262 8262 8258 8262 8259 8257 8253 8258 8255 8253 8249 8250 8251 8251 8247 8247 8250 8246 8250 8249 8247 8249 8249 8251 8253 8251 8249 8245 8246 8246 8248 8245 8248 8251 8247 8245 8246 8247 8250 8248 8251 8249 8250 8249 8245 8247 8246 8245 8244 8246 8246 8246 8246 8247 8251 8248 8245 8244 8246 8245 8248 8247 8249 8246 8249 8247 8249 8246 8250 8248 8257 8255 8258 8257 8255 8252 8254 
8262 8266 8265 8260 8261 8264 8261 8258 8256 8257 8253 8254 8252 8250 8249 8249 8248 8246 8246 8249 8247 8246 8247 8250 8245 8250 8249 8250 8249 8249 8247 8247 8249 8246 8245 8250 8248 8248 8247 8245 8243 8245 8250 8249 8247 8249 8248 8247 8245 8245 8247 8247 8247 8249 8243 8249 8249 8250 8248 8245 8245 8245 8246 8247 8248 8249 8248 8247 8248 8246 8245 8248 8247 8252 8258 8256 8259 8254 8255 8251 
8261 8266 8270 8262 8261 8261 8264 8259 8254 8256 8255 8254 8253 8248 8247 8250 8248 8243 8249 8247 8248 8251 8248 8250 8246 8246 8248 8249 8248 8252 8249 8246 8247 8245 8245 8251 8249 8248 8249 8250 8243 8247 8246 8248 8248 8246 8246 8247 8244 8246 8248 8244 8245 8244 8247 8251 8249 8249 8247 8248 8246 8245 8246 8247 8246 8250 8251 8250 8250 8251 8247 8248 8249 8254 8256 8256 8257 8252 8253 8249 
8262 8260 8267 8256 8257 8263 8258 8259 8258 8253 8252 8257 8251 8249 8250 8250 8245 8248 8251 8250 8247 8246 8245 8250 8249 8248 8247 8250 8250 8251 8248 8247 8251 8245 8250 8250 8253 8248 8247 8248 8246 8248 8249 8250 8245 8243 8243 8248 8244 8245 8245 8245 8247 8245 8249 8249 8249 8248 8249 8247 8247 8247 8243 8247 8250 8251 8250 8248 8247 8249 8246 8249 8244 8252 8256 8258 8259 8252 8253 8255 
8258 8257 8263 8256 8258 8257 8254 8257 8258 8253 8255 8253 8254 8251 8254 8253 8248 8250 8249 8252 8250 8249 8247 8251 8249 8252 8250 8249 8248 8250 8250 8249 8250 8249 8251 8249 8252 8249 8246 8249 8249 8249 8247 8251 8246 8246 8248 8246 8246 8246 8245 8246 8245 8247 8249 8249 8250 8247 8246 8246 8248 8246 8246 8248 8250 8252 8247 8250 8248 8247 8246 8249 8246 8255 8256 8259 8255 8253 8252 8249 
8260 8260 8258 8254 8256 8258 8258 8255 8256 8255 8257 8254 8253 8257 8251 8254 8248 8252 8246 8246 8248 8246 8248 8250 8247 8251 8248 8251 8248 8249 8251 8250 8250 8250 8251 8251 8253 8248 8247 8249 8246 8249 8251 8251 8250 8249 8249 8247 8246 8248 8245 8244 8247 8248 8249 8249 8250 8250 8247 8245 8247 8250 8249 8250 8253 8249 8248 8247 8247 8250 8252 8249 8250 8255 8256 8258 8259 8257 8247 8251 
8260 8260 8260 8256 8256 8256 8258 8256 8256 8258 8257 8256 8256 8257 8251 8250 8249 8246 8247 8247 8248 8245 8244 8249 8251 8250 8249 8248 8249 8250 8249 8250 8252 8250 8246 8249 8249 8249 8248 8250 8250 8251 8249 8253 8250 8250 8249 8249 8247 8246 8247 8244 8245 8248 8252 8251 8250 8251 8248 8249 8250 8247 8250 8250 8253 8251 8249 8252 8245 8249 8247 8250 8250 8256 8256 8255 8258 8256 8246 8255 
8261 8265 8264 8258 8255 8256 8257 8256 8255 8252 8255 8256 8255 8258 8253 8251 8253 8252 8249 8247 8249 8246 8245 8246 8246 8252 8247 8245 8250 8250 8249 8247 8247 8249 8248 8247 8246 8246 8248 8248 8249 8247 8252 8254 8251 8250 8250 8250 8246 8245 8248 8244 8242 8246 8251 8251 8250 8251 8249 8250 8249 8250 8249 8252 8249 8247 8248 8250 8249 8250 8253 8250 8256 8255 8258 8257 8256 8254 8251 8252 
8262 8259 8263 8260 8258 8260 8260 8254 8257 8256 8256 8256 8257 8257 8255 8256 8254 8255 8252 8250 8251 8249 8246 8251 8247 8252 8250 8247 8249 8251 8249 8249 8248 8250 8248 8248 8244 8246 8246 8246 8247 8248 8251 8251 8251 8252 8251 8249 8246 8245 8246 8244 8244 8247 8251 8250 8251 8247 8250 8248 8250 8249 8248 8249 8250 8247 8248 8251 8252 8251 8248 8250 8256 8255 8256 8256 8257 8255 8252 8251 
8263 8268 8267 8260 8259 8262 8261 8256 8256 8255 8254 8256 8256 8258 8256 8254 8255 8254 8253 8250 8250 8249 8249 8249 8246 8248 8247 8247 8249 8251 8251 8249 8252 8251 8248 8247 8246 8246 8246 8249 8248 8250 8251 8254 8251 8251 8250 8252 8249 8248 8251 8247 8247 8248 8247 8251 8251 8251 8248 8249 8247 8248 8247 8249 8252 8251 8252 8250 8250 8250 8252 8253 8250 8254 8258 8257 8257 8258 8253 8253 
8265 8265 8263 8259 8259 8261 8263 8261 8266 8263 8261 8260 8257 8253 8254 8256 8257 8256 8252 8251 8251 8249 8250 8254 8250 8251 8249 8248 8251 8254 8251 8249 8249 8253 8251 8250 8245 8245 8245 8246 8252 8253 8250 8252 8247 8250 8249 8250 8249 8251 8251 8250 8249 8249 8250 8252 8249 8248 8249 8246 8246 8246 8247 8250 8249 8249 8250 8250 8251 8252 8250 8254 8255 8255 8262 8258 8260 8262 8251 8257 
8263 8259 8263 8260 8259 8260 8263 8264 8264 8262 8258 8259 8259 8255 8255 8255 8254 8254 8248 8249 8250 8251 8249 8254 8249 8253 8247 8247 8248 8247 8251 8249 8252 8251 8250 8252 8251 8245 8246 8249 8252 8252 8252 8250 8249 8249 8249 8250 8249 8250 8250 8252 8251 8250 8248 8249 8251 8250 8249 8247 8246 8246 8247 8248 8251 8250 8253 8251 8248 8250 8250 8254 8256 8258 8260 8260 8259 8258 8252 8256 
8259 8258 8265 8262 8256 8263 8263 8263 8264 8258 8261 8262 8257 8260 8253 8256 8252 8254 8250 8250 8247 8248 8249 8250 8253 8250 8247 8249 8248 8251 8250 8248 8251 8251 8251 8250 8251 8249 8247 8250 8250 8249 8249 8251 8248 8250 8249 8249 8249 8249 8252 8250 8251 8250 8247 8247 8246 8247 8249 8245 8247 8250 8248 8250 8249 8248 8253 8250 8252 8254 8251 8258 8260 8261 8262 8260 8258 8255 8252 8254 
8262 8253 8259 8256 8258 8256 8264 8258 8259 8259 8261 8258 8258 8257 8255 8256 8252 8253 8254 8248 8250 8247 8252 8250 8249 8251 8247 8247 8251 8251 8252 8250 8252 8250 8247 8248 8251 8248 8251 8252 8251 8251 8253 8250 8248 8252 8249 8250 8251 8250 8252 8249 8248 8249 8247 8250 8247 8249 8247 8247 8250 8250 8250 8247 8246 8248 8253 8253 8256 8261 8258 8254 8257 8262 8262 8258 8263 8258 8248 8252 
8261 8258 8258 8255 8256 8256 8256 8264 8254 8253 8258 8257 8260 8260 8256 8254 8252 8254 8251 8248 8248 8250 8252 8253 8252 8256 8252 8249 8250 8252 8252 8249 8250 8248 8249 8247 8248 8249 8248 8252 8250 8250 8251 8248 8248 8248 8249 8251 8253 8250 8251 8252 8248 8250 8249 8248 8252 8250 8249 8248 8250 8252 8251 8248 8248 8250 8252 8256 8257 8261 8261 8263 8259 8262 8261 8262 8261 8257 8254 8251 
8250 8249 8257 8256 8253 8251 8251 8264 8260 8254 8251 8253 8248 8257 8259 8250 8251 8255 8250 8251 8250 8248 8254 8254 8252 8255 8252 8250 8250 8249 8250 8250 8249 8247 8248 8248 8250 8251 8248 8250 8250 8249 8248 8251 8254 8249 8250 8250 8251 8252 8254 8250 8250 8251 8250 8252 8250 8250 8250 8252 8251 8251 8249 8248 8249 8249 8253 8256 8260 8257 8259 8259 8261 8263 8263 8258 8258 8257 8249 8253 
8234 8234 8239 8243 8241 8247 8254 8262 8251 8256 8252 8255 8251 8257 8260 8257 8256 8258 8254 8248 8249 8251 8250 8251 8250 8250 8249 8248 8248 8251 8246 8247 8247 8246 8248 8246 8248 8246 8247 8247 8244 8247 8246 8252 8248 8251 8252 8253 8250 8252 8252 8250 8247 8250 8247 8251 8252 8250 8250 8252 8250 8250 8255 8251 8254 8254 8252 8255 8258 8261 8258 8262 8260 8266 8261 8259 8260 8258 8250 8251 
8231 8233 8239 8235 8230 8235 8235 8235 8238 8243 8244 8248 8248 8251 8252 8255 8250 8249 8253 8250 8248 8246 8249 8248 8249 8243 8239 8235 8231 8229 8220 8219 8222 8223 8222 8223 8222 8222 8222 8225 8229 8229 8235 8244 8246 8249 8249 8254 8256 8255 8255 8251 8248 8250 8252 8251 8251 8249 8248 8253 8251 8250 8252 8252 8252 8249 8252 8252 8256 8255 8258 8261 8260 8260 8264 8260 8258 8259 8253 8251 
8233 8235 8236 8233 8228 8230 8226 8225 8222 8228 8234 8234 8233 8233 8236 8239 8241 8243 8242 8240 8245 8241 8236 8230 8224 8213 8212 8208 8209 8209 8210 8210 8214 8209 8211 8216 8212 8211 8207 8212 8207 8212 8213 8217 8218 8224 8232 8245 8252 8250 8253 8249 8246 8247 8246 8253 8252 8247 8246 8246 8253 8252 8250 8250 8251 8252 8250 8254 8256 8254 8258 8259 8256 8261 8261 8261 8259 8255 8247 8247 
8239 8234 8236 8232 8226 8222 8224 8221 8223 8224 8225 8224 8229 8228 8231 8224 8228 8228 8229 8228 8228 8219 8215 8210 8210 8201 8203 8203 8207 8210 8208 8205 8211 8206 8209 8211 8211 8207 8209 8207 8209 8213 8208 8210 8208 8208 8214 8219 8233 8245 8250 8245 8244 8246 8250 8251 8249 8247 8248 8247 8248 8247 8251 8253 8252 8252 8256 8260 8256 8253 8257 8256 8258 8259 8259 8255 8253 8253 8249 8247 
8235 8242 8234 8224 8225 8221 8221 8218 8219 8221 8220 8223 8222 8225 8223 8221 8222 8220 8217 8214 8209 8203 8208 8208 8214 8208 8205 8204 8208 8210 8207 8206 8209 8209 8209 8209 8210 8206 8205 8206 8205 8206 8205 8206 8206 8206 8210 8211 8214 8228 8243 8245 8241 8242 8244 8247 8246 8243 8247 8244 8247 8247 8249 8248 8249 8250 8251 8257 8253 8256 8254 8253 8254 8256 8253 8255 8253 8248 8246 8247 
8246 8228 8223 8223 8217 8218 8215 8218 8216 8219 8218 8217 8220 8219 8215 8214 8216 8217 8214 8205 8204 8203 8204 8208 8209 8210 8205 8204 8203 8207 8204 8203 8205 8203 8205 8202 8210 8204 8206 8208 8208 8203 8202 8205 8203 8205 8207 8210 8214 8219 8237 8236 8236 8240 8240 8236 8239 8239 8242 8239 8241 8249 8249 8244 8246 8245 8250 8254 8254 8254 8254 8254 8253 8254 8253 8252 8251 8250 8246 8246 
8249 8230 8227 8222 8216 8216 8215 8218 8216 8216 8218 8213 8219 8212 8213 8209 8210 8208 8206 8202 8197 8199 8199 8200 8203 8202 8194 8193 8199 8199 8200 8198 8197 8198 8200 8196 8193 8193 8194 8198 8198 8194 8194 8195 8195 8201 8201 8207 8212 8210 8219 8219 8223 8224 8227 8215 8218 8222 8220 8222 8221 8227 8227 8227 8233 8228 8238 8241 8247 8242 8243 8243 8243 8247 8246 8242 8250 8245 8247 8248 


