P2
80 60
8325
8307 8313 8317 8315 8320 8317 8311 8311 8317 8311 8310 8319 8311 8309 8310 8314 8313 8308 8311 8305 8310 8313 8312 8300 8309 8320 8311 8307 8314 8313 8314 8313 8317 8309 8313 8312 8311 8309 8317 8315 8318 8314 8313 8306 8311 8316 8313 8315 8314 8316 8313 8311 8311 8303 8301 8303 8300 8304 8309 8311 8310 8308 8309 8307 8310 8311 8314 8313 8313 8317 8314 8315 8316 8321 8322 8322 8316 8315 8321 8317 
8308 8319 8320 8313 8318 8317 8312 8309 8308 8317 8311 8312 8307 8308 8305 8311 8310 8310 8304 8312 8313 8316 8314 8304 8313 8305 8300 8305 8310 8305 8310 8311 8309 8310 8308 8308 8303 8314 8320 8315 8313 8314 8303 8304 8314 8312 8315 8311 8313 8316 8306 8315 8312 8307 8303 8308 8304 8302 8310 8311 8314 8312 8314 8307 8308 8308 8317 8314 8317 8318 8315 8311 8317 8317 8322 8314 8318 8317 8314 8310 
8293 8305 8309 8305 8315 8309 8306 8312 8305 8308 8310 8309 8301 8308 8306 8309 8311 8311 8303 8309 8305 8306 8308 8302 8309 8311 8305 8307 8311 8302 8303 8308 8306 8312 8308 8302 8301 8313 8313 8315 8316 8308 8302 8311 8313 8311 8311 8314 8311 8311 8310 8306 8305 8311 8309 8308 8304 8309 8306 8300 8315 8313 8304 8310 8309 8307 8309 8310 8316 8322 8311 8309 8311 8314 8314 8304 8315 8313 8311 8309 
8304 8300 8318 8299 8315 8304 8311 8310 8314 8309 8305 8294 8304 8305 8303 8310 8309 8313 8303 8304 8302 8300 8285 8308 8308 8307 8308 8313 8313 8311 8302 8307 8309 8307 8316 8305 8310 8313 8311 8314 8314 8306 8312 8304 8311 8304 8316 8314 8315 8308 8308 8303 8310 8307 8308 8314 8300 8306 8305 8303 8309 8316 8303 8309 8302 8301 8310 8312 8315 8323 8309 8317 8308 8312 8311 8300 8314 8311 8312 8306 
8307 8296 8313 8298 8309 8313 8308 8304 8307 8309 8305 8297 8301 8306 8298 8307 8308 8305 8309 8299 8304 8305 8295 8301 8309 8308 8305 8307 8303 8312 8306 8312 8310 8304 8306 8308 8310 8309 8310 8312 8311 8313 8300 8299 8304 8302 8305 8309 8311 8311 8309 8304 8306 8307 8312 8308 8299 8308 8309 8308 8311 8315 8308 8310 8302 8304 8301 8297 8315 8313 8303 8314 8311 8312 8299 8302 8314 8305 8305 8305 
8311 8303 8305 8301 8303 8303 8312 8307 8308 8308 8295 8302 8307 8299 8293 8302 8306 8297 8306 8313 8301 8300 8309 8296 8310 8311 8306 8305 8302 8308 8311 8311 8306 8305 8309 8309 8308 8311 8309 8315 8313 8311 8314 8302 8307 8309 8305 8312 8306 8314 8311 8307 8313 8309 8308 8314 8307 8308 8311 8309 8309 8312 8310 8307 8300 8310 8304 8299 8311 8317 8310 8303 8316 8300 8297 8301 8302 8295 8300 8302 
8309 8311 8310 8316 8306 8300 8321 8314 8306 8300 8291 8311 8307 8293 8299 8308 8300 8301 8307 8317 8302 8307 8312 8303 8312 8311 8296 8300 8302 8311 8309 8312 8305 8305 8304 8308 8304 8304 8312 8312 8317 8305 8311 8306 8307 8305 8310 8308 8308 8309 8306 8304 8308 8308 8305 8313 8304 8302 8309 8310 8306 8309 8307 8306 8300 8308 8310 8314 8297 8301 8316 8315 8309 8301 8305 8301 8299 8290 8303 8301 
8313 8311 8300 8316 8303 8306 8313 8319 8312 8289 8308 8313 8304 8298 8309 8305 8305 8307 8304 8302 8310 8307 8309 8308 8312 8310 8292 8300 8300 8312 8311 8306 8315 8310 8311 8310 8302 8308 8310 8313 8312 8306 8309 8308 8304 8307 8309 8305 8309 8305 8306 8300 8309 8304 8306 8306 8306 8309 8304 8305 8300 8306 8304 8309 8301 8313 8310 8316 8306 8301 8302 8304 8311 8299 8302 8300 8295 8299 8304 8299 
8314 8305 8305 8305 8310 8306 8314 8309 8308 8294 8305 8305 8297 8301 8296 8300 8300 8301 8307 8309 8307 8295 8301 8302 8297 8308 8297 8302 8303 8304 8305 8306 8304 8303 8308 8306 8310 8304 8312 8310 8307 8305 8307 8301 8304 8312 8305 8306 8308 8302 8302 8299 8305 8302 8309 8302 8305 8304 8303 8304 8304 8301 8300 8300 8300 8302 8302 8311 8304 8307 8303 8298 8295 8299 8298 8299 8301 8300 8298 8297 
8322 8297 8307 8309 8306 8310 8300 8309 8308 8308 8301 8304 8300 8302 8296 8295 8305 8305 8310 8312 8301 8298 8302 8298 8297 8305 8301 8303 8302 8301 8306 8303 8302 8302 8313 8309 8308 8311 8308 8309 8307 8307 8308 8294 8298 8309 8310 8310 8309 8303 8301 8305 8306 8303 8303 8295 8307 8306 8306 8306 8309 8305 8304 8304 8300 8301 8301 8304 8300 8309 8305 8307 8302 8300 8298 8290 8300 8300 8296 8290 
8317 8299 8304 8305 8302 8307 8294 8304 8306 8300 8305 8299 8299 8299 8293 8299 8305 8297 8293 8301 8302 8301 8303 8303 8299 8299 8308 8306 8305 8305 8305 8297 8297 8312 8304 8300 8300 8304 8309 8304 8306 8303 8295 8307 8306 8311 8312 8306 8307 8303 8301 8300 8306 8305 8298 8294 8304 8294 8306 8305 8304 8306 8309 8298 8296 8300 8307 8304 8303 8301 8297 8304 8294 8298 8295 8289 8297 8293 8292 8295 
8308 8313 8309 8302 8295 8305 8298 8308 8309 8298 8307 8295 8298 8300 8297 8299 8300 8297 8295 8307 8309 8305 8296 8304 8307 8305 8307 8304 8311 8303 8307 8300 8295 8307 8300 8298 8304 8306 8310 8302 8304 8305 8302 8309 8308 8310 8312 8303 8307 8307 8311 8306 8307 8309 8300 8297 8306 8290 8310 8310 8304 8305 8303 8301 8299 8301 8309 8301 8302 8296 8298 8300 8293 8299 8288 8290 8299 8293 8293 8293 
8308 8306 8298 8295 8293 8306 8303 8291 8299 8300 8298 8296 8291 8297 8298 8302 8297 8303 8301 8299 8299 8305 8296 8298 8307 8301 8294 8304 8305 8300 8315 8299 8301 8305 8291 8295 8307 8314 8299 8297 8301 8303 8310 8309 8307 8303 8308 8304 8306 8304 8312 8307 8303 8307 8306 8292 8302 8299 8305 8304 8304 8302 8304 8296 8300 8298 8304 8302 8305 8291 8290 8294 8294 8291 8291 8296 8305 8291 8295 8294 
8307 8317 8309 8304 8303 8304 8300 8301 8293 8304 8305 8302 8296 8295 8297 8297 8300 8302 8302 8307 8302 8301 8296 8301 8300 8300 8302 8301 8298 8303 8313 8295 8305 8305 8300 8303 8297 8306 8299 8300 8303 8303 8307 8309 8306 8311 8307 8309 8309 8306 8304 8309 8307 8308 8310 8295 8301 8302 8303 8305 8302 8298 8304 8297 8301 8305 8305 8300 8304 8298 8296 8300 8294 8295 8290 8299 8301 8304 8299 8293 
8315 8301 8309 8303 8305 8306 8297 8304 8296 8298 8302 8301 8303 8303 8300 8301 8302 8297 8305 8304 8295 8300 8296 8299 8297 8300 8301 8298 8293 8306 8295 8295 8300 8296 8298 8300 8300 8300 8301 8295 8299 8301 8300 8307 8305 8303 8300 8302 8305 8302 8305 8307 8305 8308 8303 8306 8306 8304 8303 8302 8306 8297 8300 8302 8300 8307 8304 8302 8303 8292 8296 8298 8298 8299 8292 8294 8299 8295 8297 8295 
8313 8294 8301 8305 8301 8295 8297 8301 8298 8302 8301 8298 8296 8297 8304 8304 8303 8300 8306 8303 8293 8300 8295 8299 8296 8306 8303 8292 8294 8303 8302 8297 8299 8299 8297 8300 8302 8298 8298 8294 8304 8303 8298 8302 8303 8302 8294 8303 8298 8300 8302 8305 8307 8306 8295 8306 8303 8300 8305 8307 8303 8296 8299 8298 8304 8304 8297 8299 8297 8297 8302 8295 8296 8292 8292 8301 8300 8295 8296 8295 
8316 8296 8299 8304 8297 8297 8297 8292 8300 8301 8301 8302 8294 8299 8293 8304 8295 8303 8304 8297 8292 8299 8302 8295 8292 8301 8298 8300 8300 8300 8306 8300 8298 8309 8300 8303 8302 8303 8300 8298 8301 8301 8300 8299 8300 8302 8296 8297 8300 8302 8305 8308 8309 8297 8293 8301 8294 8299 8300 8302 8305 8295 8299 8295 8302 8296 8298 8300 8293 8292 8288 8293 8295 8299 8296 8295 8295 8300 8298 8296 
8314 8301 8303 8294 8297 8305 8299 8303 8297 8304 8304 8301 8305 8306 8304 8305 8299 8302 8302 8304 8300 8303 8300 8292 8294 8308 8310 8299 8300 8300 8301 8302 8302 8303 8299 8303 8302 8302 8302 8299 8299 8298 8303 8300 8300 8301 8303 8297 8308 8305 8301 8308 8299 8298 8295 8299 8292 8297 8298 8301 8302 8299 8302 8300 8298 8298 8305 8301 8301 8295 8293 8299 8303 8298 8297 8301 8296 8293 8298 8293 
8310 8303 8301 8300 8297 8300 8305 8304 8304 8297 8301 8306 8307 8299 8300 8301 8299 8303 8299 8296 8293 8306 8300 8297 8300 8307 8308 8291 8295 8289 8297 8302 8304 8305 8301 8300 8299 8298 8299 8297 8295 8295 8303 8296 8302 8298 8299 8305 8297 8298 8306 8304 8295 8300 8289 8290 8299 8296 8295 8302 8297 8296 8306 8299 8296 8290 8297 8295 8297 8296 8294 8297 8302 8297 8295 8299 8296 8293 8299 8298 
8306 8300 8302 8298 8293 8307 8303 8303 8306 8300 8306 8304 8300 8299 8300 8300 8298 8299 8295 8300 8291 8303 8301 8294 8301 8293 8305 8295 8298 8297 8299 8300 8298 8303 8302 8301 8298 8300 8301 8301 8296 8293 8300 8298 8299 8300 8304 8295 8300 8305 8302 8307 8297 8296 8298 8295 8297 8299 8298 8294 8297 8296 8306 8302 8301 8293 8295 8295 8298 8300 8297 8300 8297 8291 8299 8299 8294 8295 8301 8300 
8310 8303 8296 8286 8288 8294 8293 8304 8303 8297 8297 8300 8295 8294 8293 8305 8301 8298 8289 8297 8288 8300 8299 8297 8294 8292 8295 8299 8294 8304 8298 8297 8298 8302 8302 8305 8298 8296 8300 8303 8299 8293 8299 8290 8292 8298 8297 8296 8300 8295 8295 8299 8297 8294 8297 8300 8294 8301 8298 8287 8294 8300 8300 8300 8300 8295 8295 8299 8296 8296 8294 8297 8293 8293 8296 8297 8290 8295 8296 8300 
8309 8307 8297 8303 8303 8298 8285 8302 8288 8301 8297 8293 8304 8302 8292 8297 8298 8297 8289 8292 8296 8304 8296 8301 8295 8300 8295 8300 8299 8294 8300 8295 8302 8303 8300 8299 8296 8299 8301 8301 8299 8298 8296 8286 8293 8300 8292 8299 8308 8293 8296 8298 8294 8294 8297 8301 8296 8302 8292 8296 8295 8295 8302 8297 8297 8299 8295 8301 8296 8297 8297 8292 8293 8286 8298 8291 8292 8292 8296 8298 
8308 8300 8301 8300 8295 8298 8289 8281 8290 8302 8306 8296 8296 8298 8294 8295 8291 8291 8286 8293 8295 8303 8295 8300 8301 8295 8301 8295 8301 8299 8298 8292 8296 8303 8300 8300 8297 8298 8301 8287 8289 8297 8298 8297 8296 8293 8283 8295 8294 8291 8297 8300 8292 8296 8293 8297 8295 8298 8289 8289 8298 8297 8299 8299 8296 8299 8297 8301 8294 8292 8293 8288 8293 8288 8296 8294 8298 8297 8293 8296 
8310 8305 8304 8296 8299 8303 8294 8285 8298 8303 8305 8295 8299 8297 8297 8296 8297 8298 8290 8302 8298 8301 8301 8293 8299 8296 8299 8299 8298 8289 8293 8304 8304 8303 8295 8297 8300 8303 8291 8292 8293 8300 8299 8297 8299 8291 8294 8292 8292 8303 8300 8298 8289 8296 8296 8298 8301 8303 8291 8297 8294 8298 8302 8302 8304 8299 8297 8302 8294 8295 8289 8289 8295 8292 8295 8290 8293 8299 8294 8298 
8306 8293 8300 8303 8298 8298 8292 8299 8302 8294 8299 8297 8301 8297 8298 8298 8296 8300 8292 8291 8300 8297 8303 8292 8296 8295 8298 8297 8300 8289 8301 8303 8300 8302 8299 8296 8302 8299 8298 8298 8297 8301 8302 8298 8301 8295 8298 8298 8297 8295 8303 8300 8287 8293 8291 8298 8298 8301 8296 8303 8288 8300 8297 8301 8304 8298 8294 8302 8298 8296 8297 8301 8295 8291 8297 8290 8294 8290 8299 8297 
8309 8290 8296 8304 8296 8294 8300 8287 8288 8297 8293 8299 8296 8297 8297 8298 8294 8301 8294 8288 8298 8297 8298 8293 8291 8294 8295 8298 8300 8300 8296 8301 8297 8300 8300 8293 8303 8302 8301 8298 8303 8302 8299 8293 8301 8298 8297 8291 8300 8298 8297 8302 8292 8298 8291 8295 8293 8292 8293 8302 8297 8292 8293 8301 8300 8301 8299 8300 8293 8290 8287 8294 8296 8293 8291 8296 8291 8290 8295 8293 
8300 8297 8288 8299 8292 8299 8293 8287 8292 8296 8293 8302 8294 8298 8294 8295 8295 8296 8298 8290 8296 8293 8293 8297 8292 8293 8300 8300 8302 8300 8294 8299 8296 8296 8298 8299 8294 8298 8299 8297 8298 8295 8294 8296 8296 8297 8295 8288 8304 8302 8288 8298 8287 8297 8296 8295 8291 8296 8297 8299 8293 8290 8299 8300 8299 8300 8299 8296 8295 8298 8291 8295 8293 8295 8290 8293 8299 8292 8294 8299 
8300 8301 8301 8300 8301 8291 8296 8296 8291 8297 8293 8299 8299 8294 8294 8295 8298 8299 8295 8293 8294 8290 8298 8297 8293 8299 8299 8303 8299 8300 8297 8300 8296 8300 8296 8301 8290 8294 8300 8295 8295 8296 8295 8300 8298 8295 8297 8290 8302 8306 8290 8299 8288 8294 8298 8297 8296 8300 8303 8306 8303 8299 8301 8300 8303 8303 8301 8292 8291 8294 8293 8293 8294 8295 8292 8297 8301 8295 8297 8298 
8299 8296 8291 8299 8293 8300 8296 8294 8299 8304 8300 8303 8298 8293 8297 8292 8295 8297 8294 8290 8289 8296 8296 8298 8298 8298 8300 8302 8301 8300 8298 8300 8299 8301 8299 8299 8297 8295 8303 8295 8296 8295 8298 8301 8297 8288 8298 8303 8302 8299 8297 8294 8298 8298 8301 8302 8301 8302 8300 8291 8301 8293 8297 8300 8302 8302 8299 8292 8288 8295 8293 8292 8285 8288 8293 8295 8292 8304 8303 8301 
8298 8291 8296 8300 8294 8302 8299 8295 8301 8296 8302 8301 8298 8295 8293 8298 8295 8298 8297 8294 8292 8293 8295 8299 8301 8297 8300 8304 8296 8299 8298 8298 8299 8295 8298 8297 8303 8305 8303 8290 8298 8290 8297 8303 8292 8292 8287 8297 8292 8293 8302 8295 8303 8307 8299 8301 8301 8297 8296 8292 8292 8292 8301 8299 8298 8298 8299 8290 8287 8287 8289 8291 8291 8289 8301 8288 8292 8305 8302 8299 
8302 8296 8294 8298 8297 8303 8293 8296 8303 8293 8300 8295 8293 8297 8293 8295 8296 8295 8297 8290 8288 8285 8295 8299 8297 8294 8303 8301 8293 8294 8294 8298 8301 8299 8295 8291 8302 8307 8295 8292 8298 8291 8296 8294 8297 8295 8296 8296 8293 8301 8303 8295 8298 8292 8301 8297 8299 8291 8300 8292 8289 8295 8302 8300 8301 8295 8300 8295 8291 8285 8288 8293 8290 8297 8299 8289 8305 8301 8302 8299 
8303 8293 8295 8295 8293 8301 8293 8296 8302 8295 8291 8296 8295 8292 8294 8296 8294 8289 8292 8296 8286 8297 8295 8302 8299 8294 8298 8300 8301 8296 8289 8294 8301 8291 8300 8299 8302 8294 8298 8296 8295 8296 8292 8304 8301 8301 8297 8297 8304 8303 8299 8296 8301 8295 8298 8291 8295 8295 8300 8300 8292 8297 8295 8297 8299 8295 8294 8290 8295 8290 8292 8294 8296 8290 8293 8292 8299 8303 8302 8301 
8302 8297 8293 8298 8294 8301 8291 8293 8301 8300 8291 8296 8285 8292 8291 8292 8293 8291 8288 8290 8291 8297 8297 8303 8301 8300 8302 8302 8301 8299 8288 8298 8300 8289 8297 8297 8296 8292 8301 8296 8294 8300 8291 8298 8301 8307 8307 8302 8298 8298 8294 8296 8300 8302 8297 8293 8294 8297 8299 8290 8292 8293 8290 8293 8293 8293 8292 8293 8293 8295 8295 8293 8285 8284 8293 8297 8291 8298 8302 8301 
8307 8291 8301 8297 8296 8302 8292 8294 8299 8296 8297 8297 8284 8291 8290 8290 8293 8294 8296 8286 8294 8297 8291 8293 8302 8302 8305 8299 8302 8297 8289 8298 8287 8294 8299 8298 8297 8298 8298 8301 8301 8300 8298 8301 8304 8303 8304 8303 8300 8298 8301 8297 8299 8300 8298 8295 8296 8298 8291 8288 8296 8289 8294 8297 8295 8295 8292 8291 8294 8301 8300 8298 8286 8294 8299 8291 8295 8301 8299 8302 
8307 8303 8300 8296 8300 8297 8299 8304 8296 8297 8299 8297 8292 8288 8291 8292 8294 8296 8299 8297 8296 8298 8294 8292 8302 8301 8296 8300 8302 8299 8299 8293 8286 8294 8300 8304 8298 8302 8298 8302 8299 8299 8301 8296 8302 8299 8297 8306 8299 8305 8304 8301 8296 8295 8295 8295 8298 8298 8289 8290 8299 8299 8300 8295 8294 8292 8297 8290 8297 8296 8295 8294 8285 8295 8296 8289 8298 8295 8299 8291 
8307 8300 8300 8298 8298 8299 8304 8303 8296 8292 8289 8300 8298 8293 8298 8299 8298 8295 8301 8292 8302 8300 8300 8292 8300 8290 8295 8292 8298 8296 8295 8288 8299 8297 8297 8301 8299 8298 8297 8300 8297 8301 8294 8298 8305 8297 8293 8298 8297 8303 8297 8303 8299 8299 8300 8295 8300 8297 8294 8294 8298 8301 8297 8297 8299 8291 8296 8288 8296 8295 8295 8292 8287 8290 8290 8301 8299 8295 8299 8296 
8310 8303 8302 8298 8296 8297 8302 8296 8298 8291 8293 8304 8299 8292 8294 8295 8297 8294 8298 8297 8295 8298 8305 8292 8300 8288 8298 8294 8292 8299 8289 8290 8300 8300 8297 8295 8296 8298 8295 8299 8299 8296 8299 8298 8306 8305 8306 8305 8300 8300 8296 8302 8301 8298 8299 8296 8298 8302 8300 8295 8299 8296 8297 8291 8297 8301 8298 8287 8286 8289 8294 8297 8293 8297 8300 8300 8294 8291 8295 8297 
8305 8301 8302 8300 8298 8298 8301 8295 8300 8297 8300 8304 8298 8293 8294 8295 8290 8292 8289 8291 8291 8295 8301 8295 8298 8298 8302 8298 8302 8296 8295 8299 8298 8296 8298 8296 8300 8298 8295 8297 8294 8298 8299 8299 8304 8306 8301 8296 8301 8298 8301 8301 8305 8301 8295 8300 8298 8301 8300 8295 8290 8296 8294 8293 8297 8295 8294 8298 8294 8292 8292 8296 8293 8300 8297 8297 8296 8299 8296 8298 
8301 8302 8299 8303 8301 8304 8297 8300 8296 8300 8300 8299 8297 8291 8294 8287 8295 8292 8293 8294 8296 8288 8292 8303 8302 8297 8299 8297 8301 8294 8297 8297 8298 8293 8287 8297 8301 8296 8296 8297 8290 8298 8299 8299 8298 8293 8302 8294 8299 8297 8299 8298 8300 8299 8295 8301 8298 8301 8295 8288 8290 8293 8292 8290 8296 8295 8300 8301 8295 8293 8289 8295 8291 8294 8294 8296 8296 8295 8290 8289 
8302 8305 8312 8302 8303 8304 8304 8298 8296 8300 8301 8296 8296 8292 8289 8286 8287 8291 8294 8291 8294 8289 8295 8301 8298 8292 8297 8300 8303 8296 8298 8299 8296 8286 8289 8298 8299 8293 8301 8297 8291 8292 8298 8300 8296 8297 8293 8300 8294 8296 8297 8297 8300 8300 8299 8301 8300 8298 8301 8291 8286 8291 8292 8290 8296 8291 8297 8299 8295 8294 8292 8290 8294 8295 8299 8296 8297 8289 8293 8295 
8301 8304 8312 8296 8300 8307 8296 8298 8297 8295 8291 8301 8289 8289 8298 8288 8287 8296 8298 8297 8299 8294 8295 8300 8294 8293 8301 8301 8297 8302 8301 8293 8299 8288 8292 8300 8298 8292 8302 8294 8294 8301 8304 8299 8299 8297 8293 8297 8296 8296 8299 8300 8296 8296 8298 8303 8296 8295 8296 8297 8290 8296 8291 8294 8297 8293 8295 8293 8293 8293 8297 8290 8287 8296 8298 8294 8292 8289 8292 8292 
8304 8297 8307 8291 8298 8305 8292 8294 8298 8296 8297 8301 8296 8295 8301 8298 8289 8297 8301 8300 8299 8293 8294 8296 8303 8298 8297 8300 8301 8298 8292 8299 8302 8296 8298 8303 8302 8299 8292 8297 8295 8300 8303 8295 8300 8294 8295 8300 8295 8299 8299 8299 8292 8296 8302 8300 8296 8297 8293 8295 8290 8295 8295 8299 8299 8298 8295 8290 8294 8295 8296 8299 8292 8299 8294 8302 8297 8299 8292 8293 
8304 8301 8297 8291 8291 8300 8295 8295 8300 8301 8301 8298 8294 8299 8290 8291 8291 8303 8292 8286 8299 8290 8299 8301 8299 8297 8294 8295 8299 8296 8296 8299 8298 8290 8297 8299 8299 8300 8293 8294 8294 8298 8303 8300 8298 8300 8294 8295 8301 8300 8301 8298 8292 8298 8297 8300 8294 8293 8293 8293 8292 8300 8296 8296 8304 8300 8297 8289 8291 8294 8291 8300 8293 8293 8301 8297 8301 8298 8298 8297 
8306 8303 8304 8293 8297 8293 8297 8296 8299 8301 8297 8299 8301 8304 8289 8290 8291 8292 8287 8294 8295 8289 8295 8300 8302 8296 8292 8295 8298 8292 8294 8298 8303 8296 8294 8297 8292 8298 8298 8296 8298 8292 8294 8301 8302 8303 8297 8297 8294 8293 8299 8295 8300 8302 8299 8300 8300 8297 8296 8299 8300 8301 8297 8299 8297 8299 8291 8286 8289 8294 8297 8294 8295 8297 8297 8294 8299 8298 8292 8295 
8305 8309 8303 8291 8297 8297 8299 8291 8301 8301 8297 8296 8298 8302 8295 8291 8298 8303 8289 8297 8294 8290 8294 8296 8294 8304 8294 8298 8295 8300 8301 8296 8304 8294 8289 8288 8291 8295 8298 8298 8295 8299 8291 8302 8300 8298 8304 8298 8293 8293 8299 8289 8292 8298 8300 8299 8297 8299 8297 8297 8300 8295 8296 8302 8296 8298 8291 8295 8298 8294 8293 8295 8298 8296 8295 8296 8296 8292 8295 8295 
8308 8298 8300 8299 8301 8298 8300 8295 8296 8300 8297 8296 8301 8299 8298 8300 8304 8297 8297 8299 8297 8299 8299 8302 8298 8304 8306 8303 8301 8299 8301 8297 8300 8301 8302 8301 8295 8292 8298 8289 8296 8296 8296 8303 8301 8301 8303 8301 8294 8292 8299 8293 8294 8291 8300 8302 8299 8292 8295 8295 8299 8297 8291 8301 8298 8300 8299 8295 8299 8299 8297 8292 8299 8300 8293 8294 8300 8295 8294 8299 
8310 8309 8297 8302 8299 8306 8302 8297 8298 8297 8298 8305 8301 8302 8297 8302 8304 8300 8298 8295 8304 8300 8298 8304 8298 8299 8298 8296 8299 8301 8297 8299 8300 8298 8297 8303 8292 8296 8293 8290 8300 8291 8294 8298 8304 8300 8297 8300 8297 8295 8300 8298 8299 8296 8292 8299 8298 8301 8300 8294 8295 8297 8289 8298 8294 8298 8298 8293 8294 8297 8296 8294 8298 8299 8296 8294 8299 8296 8297 8301 
8306 8311 8302 8302 8298 8301 8301 8300 8307 8311 8307 8300 8302 8293 8297 8307 8308 8302 8298 8296 8305 8295 8294 8302 8305 8301 8294 8292 8299 8298 8300 8301 8299 8301 8299 8300 8291 8291 8292 8290 8300 8306 8298 8300 8300 8299 8299 8300 8301 8299 8302 8298 8300 8297 8298 8294 8295 8301 8293 8292 8293 8296 8289 8297 8297 8300 8295 8292 8295 8295 8292 8301 8297 8297 8303 8303 8299 8295 8294 8296 
8313 8300 8306 8307 8298 8307 8312 8306 8309 8299 8305 8304 8304 8299 8304 8302 8304 8298 8300 8298 8301 8295 8303 8301 8308 8303 8300 8299 8297 8296 8302 8298 8307 8297 8303 8299 8301 8300 8297 8296 8303 8304 8306 8300 8297 8299 8301 8298 8297 8305 8301 8302 8301 8301 8297 8297 8297 8299 8295 8291 8294 8302 8299 8301 8292 8296 8294 8290 8295 8295 8299 8297 8301 8299 8305 8305 8303 8296 8300 8304 
8309 8298 8312 8304 8299 8312 8313 8302 8309 8301 8307 8309 8308 8308 8299 8301 8303 8304 8307 8299 8296 8304 8308 8304 8304 8303 8303 8304 8294 8290 8302 8299 8308 8298 8305 8298 8302 8302 8294 8297 8302 8306 8299 8300 8297 8302 8298 8305 8297 8293 8299 8304 8301 8300 8294 8297 8299 8301 8301 8290 8295 8298 8299 8300 8289 8293 8293 8296 8301 8302 8297 8303 8306 8303 8304 8305 8304 8303 8301 8302 
8309 8295 8301 8299 8302 8303 8309 8299 8305 8306 8309 8307 8304 8308 8303 8305 8305 8302 8306 8295 8298 8301 8299 8306 8301 8298 8295 8294 8302 8300 8301 8298 8297 8301 8302 8298 8295 8305 8300 8305 8302 8303 8301 8293 8298 8300 8301 8299 8299 8299 8298 8305 8303 8303 8291 8302 8302 8301 8294 8286 8297 8298 8296 8292 8288 8293 8296 8297 8303 8307 8300 8303 8305 8309 8303 8302 8303 8299 8299 8301 
8308 8300 8298 8301 8303 8304 8300 8313 8297 8298 8308 8306 8311 8311 8305 8300 8303 8303 8307 8295 8300 8300 8307 8306 8296 8305 8301 8295 8302 8304 8291 8305 8296 8293 8302 8291 8297 8300 8306 8305 8304 8300 8298 8296 8300 8299 8299 8301 8301 8296 8301 8301 8307 8303 8297 8302 8302 8297 8290 8301 8302 8302 8299 8288 8292 8297 8299 8297 8307 8299 8306 8304 8302 8299 8308 8303 8305 8302 8302 8302 
8303 8301 8303 8308 8302 8297 8299 8314 8314 8304 8298 8304 8299 8304 8308 8293 8306 8307 8302 8306 8296 8304 8303 8304 8305 8305 8305 8301 8303 8289 8293 8298 8295 8294 8299 8290 8299 8296 8294 8303 8297 8296 8292 8300 8296 8297 8299 8299 8295 8295 8295 8306 8294 8309 8307 8301 8300 8299 8302 8300 8303 8302 8300 8289 8295 8299 8295 8296 8308 8299 8305 8308 8303 8307 8306 8304 8298 8298 8305 8301 
8299 8296 8304 8302 8302 8308 8306 8308 8298 8308 8298 8308 8299 8309 8307 8302 8308 8308 8304 8298 8302 8302 8301 8305 8308 8302 8301 8299 8288 8285 8288 8285 8283 8288 8287 8283 8288 8290 8288 8285 8286 8286 8282 8290 8288 8291 8292 8294 8298 8299 8302 8307 8302 8294 8304 8301 8297 8295 8293 8297 8305 8303 8301 8295 8297 8301 8293 8303 8306 8298 8302 8308 8304 8309 8304 8298 8298 8297 8301 8301 
8312 8305 8298 8303 8300 8307 8307 8303 8292 8308 8296 8308 8301 8312 8302 8306 8303 8302 8306 8304 8300 8304 8297 8303 8307 8292 8285 8279 8277 8271 8272 8270 8279 8283 8284 8281 8284 8284 8283 8281 8286 8281 8287 8287 8286 8287 8276 8287 8286 8291 8296 8309 8300 8295 8306 8301 8300 8294 8291 8298 8301 8300 8294 8295 8299 8294 8296 8291 8301 8303 8304 8306 8300 8304 8301 8302 8295 8296 8303 8304 
8311 8308 8312 8315 8312 8308 8313 8302 8288 8309 8307 8296 8304 8300 8301 8302 8305 8304 8298 8300 8303 8303 8299 8297 8288 8263 8280 8277 8280 8277 8272 8275 8288 8280 8291 8290 8288 8287 8285 8283 8288 8291 8287 8289 8286 8286 8274 8288 8290 8285 8290 8293 8304 8302 8304 8301 8303 8301 8299 8300 8300 8299 8298 8299 8304 8298 8300 8301 8301 8300 8306 8308 8305 8303 8303 8301 8297 8297 8301 8303 
8307 8307 8324 8310 8300 8305 8312 8297 8301 8304 8305 8295 8305 8308 8303 8298 8295 8307 8292 8297 8302 8297 8290 8285 8286 8267 8266 8281 8286 8286 8287 8278 8288 8281 8286 8293 8289 8286 8281 8284 8284 8288 8287 8288 8290 8280 8283 8286 8287 8285 8285 8294 8285 8293 8299 8299 8298 8300 8290 8290 8295 8294 8298 8298 8296 8305 8300 8305 8300 8297 8305 8306 8302 8301 8300 8297 8301 8295 8296 8298 
8322 8320 8319 8295 8309 8308 8314 8297 8304 8302 8307 8301 8305 8311 8309 8305 8297 8305 8302 8301 8296 8292 8279 8284 8296 8283 8287 8283 8286 8281 8278 8284 8284 8285 8273 8282 8284 8278 8278 8280 8282 8277 8274 8282 8285 8280 8283 8288 8283 8284 8289 8292 8282 8285 8296 8293 8292 8292 8292 8290 8289 8296 8298 8292 8297 8301 8301 8301 8305 8299 8302 8302 8301 8293 8297 8295 8297 8290 8293 8294 
8325 8307 8298 8301 8307 8303 8297 8310 8313 8306 8314 8312 8308 8324 8309 8299 8294 8305 8303 8301 8303 8287 8278 8283 8295 8286 8287 8285 8286 8283 8287 8278 8281 8292 8279 8285 8286 8287 8280 8284 8281 8279 8276 8273 8273 8274 8284 8280 8280 8284 8284 8283 8278 8287 8284 8287 8290 8289 8294 8288 8294 8293 8295 8294 8294 8298 8298 8304 8303 8302 8296 8301 8299 8291 8296 8294 8295 8288 8292 8294 
8324 8313 8301 8298 8309 8307 8300 8301 8303 8302 8309 8319 8325 8319 8313 8302 8302 8306 8307 8305 8303 8294 8289 8285 8287 8287 8289 8285 8286 8286 8286 8289 8293 8296 8293 8291 8294 8289 8289 8284 8284 8287 8280 8281 8280 8279 8282 8283 8279 8278 8281 8280 8279 8283 8283 8283 8287 8297 8293 8288 8295 8294 8292 8292 8293 8299 8300 8303 8305 8301 8302 8304 8301 8293 8293 8292 8289 8289 8292 8290 


