P2
80 60
8233
8212 8191 8199 8203 8206 8204 8199 8195 8198 8200 8202 8212 8206 8200 8202 8205 8205 8199 8206 8204 8207 8209 8206 8198 8205 8212 8203 8204 8205 8204 8207 8209 8210 8208 8208 8202 8201 8199 8206 8206 8208 8203 8200 8201 8200 8205 8204 8207 8205 8206 8202 8203 8202 8200 8194 8194 8196 8197 8197 8208 8209 8204 8205 8205 8209 8214 8214 8215 8218 8216 8217 8218 8217 8220 8226 8226 8221 8227 8223 8219 
8209 8204 8211 8207 8209 8206 8201 8199 8195 8206 8201 8209 8205 8202 8198 8208 8203 8207 8202 8207 8214 8210 8207 8198 8211 8201 8195 8200 8209 8200 8206 8206 8203 8204 8199 8200 8196 8205 8214 8203 8205 8203 8199 8200 8201 8205 8203 8206 8202 8209 8198 8203 8204 8201 8196 8205 8201 8197 8202 8205 8207 8203 8213 8205 8208 8214 8216 8218 8221 8222 8222 8214 8219 8219 8221 8220 8223 8224 8224 8213 
8187 8194 8198 8195 8203 8199 8193 8200 8196 8199 8204 8204 8194 8202 8202 8202 8208 8207 8202 8211 8206 8206 8204 8200 8205 8209 8202 8201 8207 8195 8200 8203 8198 8207 8198 8197 8194 8208 8208 8203 8206 8201 8201 8204 8201 8203 8202 8206 8201 8204 8202 8197 8199 8206 8204 8203 8196 8202 8205 8196 8213 8212 8202 8209 8209 8211 8216 8217 8226 8227 8220 8216 8217 8219 8216 8214 8220 8216 8220 8210 
8209 8189 8209 8196 8206 8201 8202 8204 8205 8202 8195 8192 8200 8202 8196 8205 8204 8210 8202 8202 8204 8197 8189 8202 8207 8203 8208 8206 8209 8206 8200 8204 8207 8202 8209 8198 8206 8207 8206 8205 8205 8202 8201 8198 8201 8200 8207 8207 8203 8202 8201 8198 8202 8201 8203 8204 8194 8198 8203 8202 8209 8213 8201 8212 8206 8209 8214 8215 8220 8225 8218 8223 8220 8224 8221 8215 8221 8222 8228 8214 
8204 8185 8202 8194 8198 8204 8202 8195 8196 8201 8198 8190 8196 8199 8194 8201 8203 8199 8204 8201 8201 8204 8194 8194 8201 8205 8201 8201 8199 8205 8196 8203 8201 8199 8199 8200 8204 8200 8203 8203 8203 8201 8196 8198 8196 8197 8197 8204 8203 8204 8202 8197 8202 8198 8202 8204 8193 8202 8206 8204 8210 8210 8206 8210 8206 8204 8206 8208 8221 8217 8217 8222 8217 8225 8213 8218 8223 8218 8228 8220 
8216 8194 8199 8197 8200 8199 8205 8203 8200 8201 8189 8199 8203 8196 8194 8203 8201 8198 8201 8208 8206 8199 8204 8197 8210 8210 8204 8200 8198 8203 8207 8206 8201 8198 8202 8204 8206 8208 8203 8209 8210 8204 8205 8194 8200 8202 8200 8206 8200 8205 8207 8201 8204 8206 8206 8207 8205 8206 8209 8211 8209 8209 8210 8209 8207 8213 8212 8205 8217 8220 8216 8217 8224 8211 8211 8220 8220 8217 8226 8229 
8210 8197 8200 8209 8203 8196 8212 8209 8197 8187 8183 8204 8203 8190 8195 8204 8195 8197 8206 8213 8196 8200 8204 8201 8208 8204 8194 8196 8199 8208 8204 8207 8200 8197 8200 8204 8200 8199 8208 8205 8208 8201 8204 8201 8205 8203 8204 8205 8201 8206 8203 8201 8204 8206 8205 8206 8200 8200 8209 8208 8207 8207 8209 8208 8205 8214 8216 8222 8210 8211 8220 8224 8220 8214 8220 8220 8220 8216 8229 8230 
8216 8204 8195 8210 8199 8202 8205 8215 8209 8181 8204 8208 8203 8198 8207 8205 8201 8207 8206 8201 8209 8204 8206 8209 8209 8209 8193 8200 8202 8213 8209 8206 8208 8206 8208 8205 8205 8206 8206 8206 8208 8203 8202 8202 8203 8203 8206 8206 8202 8201 8199 8198 8209 8203 8201 8203 8203 8204 8207 8208 8207 8206 8208 8208 8207 8216 8221 8222 8215 8216 8214 8213 8222 8214 8221 8220 8219 8228 8230 8229 
8219 8196 8195 8200 8207 8201 8209 8206 8202 8190 8198 8197 8199 8200 8195 8200 8197 8202 8207 8207 8212 8198 8199 8198 8197 8205 8197 8200 8201 8202 8204 8203 8200 8197 8203 8203 8207 8204 8206 8204 8204 8201 8203 8199 8199 8206 8200 8202 8202 8198 8198 8194 8203 8204 8208 8198 8203 8202 8202 8205 8202 8204 8208 8206 8210 8210 8213 8219 8215 8219 8214 8211 8211 8218 8216 8224 8223 8224 8228 8229 
8222 8194 8202 8204 8204 8206 8194 8206 8208 8201 8199 8203 8198 8202 8201 8196 8202 8202 8214 8213 8204 8202 8204 8200 8196 8203 8202 8203 8206 8203 8201 8202 8201 8200 8207 8208 8206 8208 8208 8206 8205 8206 8206 8196 8199 8206 8208 8210 8205 8203 8197 8202 8203 8201 8204 8198 8205 8203 8207 8209 8210 8211 8209 8213 8211 8211 8212 8217 8216 8216 8220 8220 8219 8218 8217 8217 8222 8227 8226 8222 
8219 8191 8201 8203 8205 8204 8189 8203 8205 8195 8200 8198 8200 8202 8199 8201 8206 8200 8198 8207 8208 8204 8202 8202 8199 8199 8206 8207 8205 8205 8204 8199 8197 8206 8203 8198 8201 8202 8206 8200 8206 8202 8197 8208 8205 8209 8209 8204 8203 8203 8202 8196 8202 8203 8202 8197 8208 8202 8213 8209 8211 8211 8214 8209 8208 8213 8220 8218 8217 8217 8215 8221 8213 8213 8219 8214 8217 8222 8224 8217 
8216 8208 8206 8204 8195 8204 8198 8206 8210 8197 8205 8198 8202 8200 8199 8202 8202 8198 8200 8211 8212 8208 8199 8203 8205 8207 8203 8202 8208 8204 8208 8205 8193 8205 8198 8194 8204 8203 8208 8199 8205 8207 8204 8208 8206 8206 8206 8204 8205 8202 8208 8203 8206 8205 8206 8196 8205 8200 8209 8211 8211 8214 8214 8212 8209 8212 8221 8216 8216 8214 8216 8218 8213 8217 8212 8216 8227 8225 8223 8218 
8218 8199 8194 8195 8192 8203 8205 8191 8199 8200 8198 8196 8197 8195 8201 8209 8200 8204 8203 8206 8207 8207 8199 8201 8207 8201 8192 8202 8203 8202 8214 8199 8202 8202 8192 8196 8208 8209 8201 8197 8200 8203 8209 8208 8205 8204 8206 8206 8203 8203 8211 8204 8208 8208 8210 8198 8205 8204 8208 8211 8210 8211 8214 8208 8214 8214 8220 8214 8217 8209 8205 8213 8211 8212 8215 8214 8224 8224 8225 8215 
8218 8213 8209 8209 8205 8203 8206 8202 8196 8203 8209 8202 8201 8199 8202 8201 8207 8205 8205 8208 8204 8203 8200 8204 8200 8204 8203 8200 8199 8202 8211 8197 8201 8202 8197 8204 8197 8206 8200 8199 8202 8202 8202 8208 8203 8208 8203 8209 8208 8204 8204 8207 8209 8205 8210 8199 8207 8205 8210 8209 8209 8208 8214 8214 8217 8220 8221 8218 8221 8217 8217 8217 8216 8215 8211 8219 8217 8232 8225 8220 
8226 8201 8209 8213 8208 8206 8202 8204 8199 8195 8204 8201 8203 8203 8206 8207 8204 8203 8209 8211 8201 8204 8200 8202 8202 8203 8204 8199 8199 8209 8199 8198 8200 8199 8204 8200 8202 8203 8200 8198 8203 8201 8201 8209 8204 8206 8200 8205 8202 8204 8207 8208 8210 8210 8209 8208 8210 8210 8212 8215 8217 8210 8214 8222 8216 8223 8221 8218 8218 8214 8218 8214 8217 8214 8212 8213 8217 8218 8223 8216 
8230 8193 8203 8208 8208 8200 8200 8202 8204 8206 8205 8203 8202 8200 8208 8212 8211 8206 8212 8213 8202 8204 8199 8202 8201 8210 8207 8195 8200 8207 8206 8198 8199 8205 8202 8204 8205 8205 8201 8201 8207 8207 8198 8207 8203 8206 8198 8208 8200 8206 8204 8209 8208 8211 8207 8206 8210 8212 8212 8218 8216 8211 8216 8216 8221 8224 8216 8221 8216 8218 8220 8217 8218 8217 8215 8219 8220 8223 8221 8216 
8228 8195 8198 8214 8202 8199 8201 8196 8202 8201 8201 8206 8198 8199 8198 8207 8202 8209 8205 8206 8200 8202 8204 8199 8198 8206 8202 8205 8202 8204 8209 8203 8199 8206 8204 8204 8207 8207 8203 8202 8205 8203 8202 8203 8202 8208 8200 8203 8201 8205 8209 8210 8209 8202 8204 8204 8203 8209 8211 8217 8217 8209 8216 8215 8220 8216 8217 8220 8215 8215 8214 8216 8216 8221 8215 8215 8212 8221 8220 8219 
8227 8203 8207 8201 8203 8209 8203 8206 8199 8207 8206 8202 8212 8209 8208 8209 8207 8208 8211 8210 8208 8210 8207 8197 8196 8212 8212 8202 8203 8202 8208 8202 8206 8208 8209 8207 8207 8207 8204 8203 8198 8204 8204 8206 8205 8208 8204 8205 8210 8210 8205 8208 8209 8204 8207 8205 8206 8208 8212 8215 8215 8216 8218 8221 8219 8219 8221 8226 8220 8220 8214 8224 8222 8218 8217 8219 8214 8215 8223 8221 
8222 8200 8207 8207 8204 8202 8211 8210 8208 8197 8204 8207 8208 8204 8205 8208 8202 8211 8207 8205 8202 8212 8207 8203 8206 8211 8212 8199 8200 8200 8206 8207 8208 8207 8210 8207 8205 8205 8205 8201 8203 8201 8204 8205 8206 8206 8203 8207 8202 8205 8214 8206 8204 8206 8205 8202 8212 8207 8216 8218 8216 8214 8221 8221 8217 8214 8219 8218 8217 8218 8221 8219 8221 8217 8214 8220 8214 8216 8224 8222 
8220 8200 8206 8207 8199 8211 8208 8210 8208 8205 8211 8209 8206 8205 8212 8212 8207 8209 8205 8210 8201 8213 8211 8204 8207 8202 8208 8202 8206 8205 8205 8204 8205 8210 8212 8209 8207 8206 8204 8208 8203 8201 8205 8207 8204 8205 8206 8206 8204 8207 8208 8208 8204 8207 8213 8206 8215 8215 8215 8215 8216 8215 8221 8221 8220 8219 8217 8218 8220 8223 8217 8224 8218 8214 8218 8218 8218 8219 8224 8215 
8224 8208 8201 8197 8197 8202 8200 8209 8208 8205 8207 8206 8205 8202 8202 8214 8210 8204 8199 8209 8198 8207 8210 8207 8204 8196 8197 8208 8200 8207 8208 8207 8208 8208 8211 8209 8205 8204 8207 8208 8205 8203 8202 8204 8198 8207 8201 8202 8207 8205 8203 8207 8206 8206 8207 8212 8212 8218 8215 8212 8214 8218 8224 8223 8222 8220 8216 8225 8219 8222 8220 8221 8214 8218 8217 8222 8214 8221 8224 8213 
8226 8210 8205 8211 8212 8207 8196 8207 8198 8205 8202 8198 8214 8210 8197 8208 8207 8205 8197 8202 8210 8210 8205 8212 8201 8206 8205 8208 8209 8201 8206 8203 8208 8212 8208 8207 8204 8207 8208 8207 8205 8206 8202 8200 8198 8206 8199 8206 8205 8202 8204 8206 8207 8211 8214 8213 8214 8221 8218 8216 8219 8218 8226 8222 8218 8223 8220 8222 8219 8219 8219 8218 8215 8214 8220 8219 8213 8221 8223 8224 
8225 8208 8207 8209 8209 8204 8193 8191 8196 8204 8209 8204 8204 8207 8204 8207 8206 8202 8196 8203 8204 8214 8205 8212 8209 8206 8204 8205 8208 8205 8208 8203 8207 8207 8209 8207 8204 8204 8209 8197 8201 8204 8207 8206 8200 8202 8200 8205 8201 8204 8206 8207 8204 8211 8209 8212 8213 8218 8212 8212 8222 8218 8223 8219 8220 8220 8218 8223 8218 8217 8217 8214 8215 8217 8219 8216 8219 8222 8224 8225 
8223 8212 8210 8207 8211 8210 8203 8189 8204 8207 8212 8202 8207 8202 8209 8208 8205 8210 8203 8215 8210 8207 8212 8205 8209 8204 8207 8207 8208 8202 8202 8210 8211 8209 8205 8203 8207 8207 8203 8202 8203 8208 8208 8205 8207 8203 8201 8203 8200 8207 8205 8208 8203 8213 8213 8215 8223 8224 8213 8219 8217 8221 8223 8224 8224 8224 8222 8227 8215 8218 8215 8215 8217 8216 8217 8217 8214 8226 8226 8226 
8229 8202 8209 8213 8209 8208 8201 8210 8211 8200 8208 8204 8217 8205 8208 8209 8210 8214 8205 8203 8209 8210 8212 8205 8205 8205 8205 8205 8207 8200 8212 8210 8206 8209 8205 8204 8207 8204 8203 8210 8205 8209 8208 8206 8206 8207 8207 8206 8207 8210 8213 8210 8204 8207 8208 8215 8221 8222 8221 8223 8219 8218 8217 8223 8223 8220 8222 8227 8219 8219 8218 8220 8218 8216 8216 8211 8213 8215 8224 8230 
8225 8201 8205 8215 8210 8202 8208 8194 8193 8205 8205 8213 8206 8206 8211 8206 8205 8214 8207 8200 8214 8209 8215 8205 8205 8203 8206 8205 8209 8209 8208 8209 8208 8209 8210 8203 8209 8207 8211 8207 8210 8207 8208 8206 8209 8209 8206 8202 8209 8209 8209 8211 8209 8212 8209 8215 8217 8216 8221 8228 8222 8218 8216 8220 8222 8220 8220 8224 8217 8213 8213 8219 8220 8220 8214 8218 8214 8218 8223 8228 
8221 8207 8197 8208 8205 8206 8200 8196 8203 8205 8203 8213 8206 8208 8208 8208 8211 8207 8212 8199 8210 8202 8205 8210 8203 8201 8209 8207 8209 8210 8205 8208 8207 8202 8209 8208 8204 8207 8206 8208 8210 8206 8206 8209 8211 8209 8207 8203 8212 8213 8208 8212 8207 8215 8213 8213 8211 8218 8223 8222 8222 8217 8222 8220 8218 8220 8221 8217 8216 8216 8216 8214 8217 8217 8215 8220 8219 8221 8225 8229 
8220 8208 8211 8213 8213 8197 8209 8206 8197 8207 8198 8208 8210 8204 8208 8206 8209 8210 8209 8208 8208 8205 8208 8210 8203 8209 8208 8210 8211 8210 8207 8210 8204 8207 8208 8206 8201 8204 8207 8204 8207 8207 8210 8211 8209 8210 8212 8207 8215 8215 8207 8216 8210 8212 8220 8215 8221 8221 8226 8227 8225 8223 8224 8221 8221 8224 8221 8217 8215 8216 8216 8214 8216 8219 8217 8223 8224 8224 8226 8233 
8218 8203 8203 8213 8208 8208 8203 8208 8209 8210 8208 8210 8211 8204 8211 8199 8206 8209 8205 8207 8205 8206 8205 8211 8208 8210 8210 8210 8209 8209 8208 8206 8207 8206 8204 8205 8204 8205 8207 8204 8208 8207 8210 8214 8213 8207 8214 8212 8216 8212 8212 8209 8213 8218 8220 8223 8223 8224 8224 8219 8224 8217 8221 8223 8221 8222 8219 8216 8216 8216 8216 8215 8212 8213 8216 8217 8214 8233 8226 8228 
8218 8202 8206 8211 8206 8215 8213 8201 8209 8201 8213 8210 8212 8207 8206 8210 8209 8212 8210 8207 8205 8208 8208 8211 8208 8209 8211 8214 8207 8205 8211 8208 8206 8206 8205 8203 8213 8210 8210 8203 8205 8205 8212 8215 8209 8212 8207 8212 8210 8211 8217 8214 8220 8226 8223 8225 8223 8219 8220 8217 8219 8218 8225 8224 8223 8225 8220 8219 8214 8214 8215 8217 8212 8213 8220 8212 8217 8231 8226 8228 
8222 8207 8207 8214 8212 8214 8202 8210 8212 8203 8210 8203 8203 8210 8206 8210 8209 8207 8211 8206 8205 8200 8210 8213 8206 8205 8209 8212 8206 8203 8207 8207 8209 8207 8206 8198 8207 8210 8207 8205 8207 8209 8210 8208 8209 8210 8210 8213 8212 8218 8216 8213 8214 8214 8219 8217 8217 8214 8217 8219 8216 8222 8222 8222 8222 8220 8220 8215 8213 8213 8211 8213 8213 8218 8215 8210 8227 8224 8228 8230 
8222 8206 8205 8212 8204 8211 8202 8211 8213 8202 8201 8208 8210 8203 8209 8209 8210 8206 8210 8208 8203 8206 8210 8215 8210 8208 8207 8214 8212 8205 8206 8207 8209 8205 8209 8211 8211 8205 8211 8209 8207 8208 8205 8214 8217 8214 8214 8213 8216 8218 8212 8213 8216 8214 8218 8214 8215 8217 8218 8218 8216 8218 8215 8220 8220 8218 8217 8216 8212 8214 8215 8215 8215 8214 8213 8214 8222 8224 8228 8229 
8226 8209 8204 8210 8205 8212 8202 8204 8212 8212 8206 8207 8204 8206 8206 8209 8210 8208 8205 8206 8204 8214 8207 8214 8213 8209 8213 8211 8213 8213 8205 8208 8211 8201 8209 8211 8208 8208 8212 8211 8208 8212 8209 8215 8217 8221 8223 8219 8217 8215 8211 8213 8217 8217 8217 8212 8217 8215 8218 8212 8214 8213 8211 8212 8214 8214 8213 8216 8213 8216 8210 8212 8209 8210 8212 8218 8217 8221 8227 8231 
8227 8204 8216 8215 8212 8210 8203 8208 8212 8205 8209 8206 8201 8207 8206 8205 8208 8209 8213 8206 8208 8211 8207 8211 8212 8213 8214 8216 8214 8212 8205 8212 8203 8208 8212 8212 8211 8216 8213 8214 8215 8213 8214 8214 8218 8213 8216 8217 8212 8213 8216 8210 8216 8217 8217 8213 8217 8214 8214 8210 8217 8210 8214 8214 8213 8214 8214 8216 8215 8219 8216 8215 8210 8215 8217 8213 8219 8222 8225 8228 
8229 8211 8214 8211 8215 8208 8209 8211 8209 8205 8209 8207 8207 8201 8209 8203 8210 8207 8212 8209 8210 8212 8206 8209 8213 8213 8206 8210 8211 8210 8209 8207 8201 8207 8211 8213 8211 8213 8212 8214 8212 8215 8215 8215 8213 8216 8218 8215 8216 8219 8215 8215 8212 8210 8213 8211 8213 8212 8210 8210 8213 8212 8214 8213 8210 8209 8213 8212 8211 8214 8212 8208 8205 8216 8211 8211 8218 8218 8219 8223 
8232 8212 8209 8218 8212 8209 8212 8214 8212 8201 8200 8210 8214 8209 8210 8212 8211 8211 8212 8209 8217 8214 8212 8205 8211 8205 8207 8205 8208 8211 8208 8204 8212 8212 8209 8211 8212 8213 8211 8211 8211 8216 8210 8214 8217 8213 8208 8212 8209 8214 8210 8215 8217 8211 8215 8208 8215 8212 8212 8211 8214 8212 8216 8213 8213 8212 8211 8212 8211 8213 8208 8209 8207 8209 8213 8218 8217 8220 8218 8224 
8233 8218 8215 8215 8213 8209 8216 8207 8209 8200 8207 8214 8216 8206 8210 8212 8209 8206 8212 8213 8210 8211 8212 8206 8210 8203 8205 8207 8204 8207 8204 8205 8208 8208 8207 8208 8210 8210 8208 8208 8213 8215 8211 8215 8219 8221 8223 8218 8212 8213 8211 8214 8215 8214 8215 8210 8214 8215 8216 8213 8212 8215 8216 8211 8215 8215 8212 8208 8204 8205 8209 8214 8208 8218 8219 8218 8215 8219 8219 8219 
8231 8214 8216 8217 8214 8211 8218 8209 8210 8209 8211 8213 8212 8206 8212 8212 8206 8207 8206 8206 8206 8211 8208 8208 8208 8210 8211 8209 8211 8209 8208 8210 8207 8209 8207 8204 8210 8211 8209 8209 8208 8212 8213 8214 8214 8217 8210 8209 8212 8212 8211 8213 8215 8214 8214 8213 8212 8217 8216 8213 8208 8209 8213 8210 8213 8213 8208 8213 8208 8211 8209 8213 8209 8218 8213 8215 8216 8219 8218 8218 
8227 8219 8212 8215 8211 8216 8213 8212 8208 8211 8209 8209 8212 8206 8209 8205 8208 8205 8205 8209 8209 8205 8204 8215 8211 8204 8206 8209 8211 8209 8207 8208 8203 8201 8198 8207 8209 8210 8209 8211 8205 8212 8210 8213 8209 8210 8214 8207 8213 8213 8213 8210 8213 8213 8212 8215 8213 8216 8213 8206 8207 8208 8212 8209 8211 8211 8215 8214 8211 8205 8205 8205 8211 8212 8214 8219 8215 8216 8216 8223 
8229 8219 8226 8220 8216 8219 8221 8210 8212 8210 8211 8206 8206 8205 8205 8206 8204 8204 8212 8207 8210 8203 8207 8213 8208 8203 8205 8211 8210 8207 8206 8209 8205 8197 8203 8211 8208 8204 8208 8210 8206 8207 8212 8210 8209 8207 8206 8209 8205 8206 8209 8210 8212 8211 8212 8214 8215 8213 8217 8208 8208 8207 8210 8209 8210 8211 8212 8215 8206 8212 8208 8204 8204 8210 8214 8217 8215 8211 8219 8223 
8223 8217 8224 8214 8215 8218 8211 8212 8207 8211 8204 8210 8204 8205 8212 8206 8203 8209 8214 8212 8210 8206 8206 8212 8204 8204 8206 8208 8208 8210 8209 8206 8204 8197 8201 8210 8208 8202 8211 8208 8205 8211 8212 8210 8212 8205 8210 8210 8207 8209 8211 8212 8208 8212 8215 8218 8216 8207 8211 8214 8211 8210 8209 8211 8211 8208 8212 8207 8207 8205 8210 8204 8204 8212 8213 8214 8213 8210 8215 8211 
8225 8210 8218 8207 8216 8217 8205 8206 8210 8209 8211 8209 8212 8207 8216 8213 8209 8213 8215 8211 8210 8207 8205 8209 8213 8208 8205 8211 8210 8208 8205 8208 8207 8204 8207 8210 8210 8208 8202 8206 8207 8209 8214 8209 8211 8206 8209 8208 8208 8212 8211 8212 8206 8211 8219 8217 8212 8208 8210 8211 8208 8211 8211 8214 8211 8214 8210 8209 8207 8207 8210 8207 8204 8210 8210 8216 8213 8223 8216 8223 
8229 8207 8205 8209 8205 8211 8208 8212 8212 8212 8211 8212 8212 8213 8209 8206 8208 8209 8208 8201 8211 8205 8206 8208 8209 8206 8201 8209 8209 8205 8206 8207 8206 8197 8204 8208 8207 8206 8202 8203 8206 8209 8211 8210 8211 8212 8209 8204 8212 8213 8214 8211 8208 8213 8212 8215 8211 8208 8209 8213 8210 8216 8215 8213 8214 8212 8210 8203 8206 8202 8204 8207 8207 8210 8210 8213 8214 8222 8214 8218 
8229 8211 8213 8209 8211 8210 8210 8209 8214 8216 8209 8214 8214 8216 8207 8208 8206 8206 8205 8209 8209 8202 8206 8211 8213 8208 8205 8208 8209 8203 8206 8207 8210 8203 8204 8205 8204 8208 8208 8205 8207 8204 8206 8217 8216 8214 8214 8210 8212 8206 8213 8210 8216 8215 8219 8215 8218 8211 8213 8215 8216 8212 8216 8216 8212 8212 8207 8206 8206 8206 8208 8206 8210 8209 8212 8210 8212 8218 8213 8217 
8230 8221 8214 8208 8213 8209 8214 8203 8215 8213 8211 8209 8211 8213 8212 8209 8211 8212 8208 8209 8206 8201 8206 8207 8204 8210 8202 8207 8204 8209 8211 8201 8211 8206 8199 8200 8202 8206 8207 8210 8204 8206 8206 8212 8215 8212 8217 8213 8209 8206 8211 8206 8207 8213 8216 8214 8214 8213 8213 8211 8213 8213 8213 8214 8212 8211 8206 8211 8207 8207 8204 8206 8206 8207 8205 8209 8212 8212 8211 8213 
8231 8212 8208 8212 8212 8212 8211 8208 8206 8210 8207 8206 8216 8213 8214 8218 8216 8212 8208 8211 8208 8208 8208 8211 8208 8211 8213 8210 8211 8208 8209 8205 8206 8209 8209 8207 8203 8204 8205 8203 8208 8207 8210 8217 8215 8213 8215 8213 8208 8209 8214 8205 8206 8207 8216 8214 8218 8212 8213 8210 8213 8212 8208 8212 8212 8213 8213 8211 8211 8210 8209 8205 8206 8208 8204 8206 8209 8207 8209 8216 
8231 8219 8207 8216 8214 8214 8211 8214 8206 8207 8208 8218 8214 8210 8211 8212 8214 8211 8214 8209 8216 8210 8208 8210 8204 8204 8202 8202 8209 8207 8209 8204 8205 8206 8206 8208 8202 8204 8205 8200 8208 8205 8205 8210 8212 8211 8210 8212 8210 8208 8211 8207 8214 8211 8211 8211 8215 8215 8212 8211 8208 8210 8208 8209 8210 8210 8210 8205 8208 8204 8206 8205 8205 8211 8207 8203 8207 8210 8212 8209 
8229 8221 8213 8214 8213 8214 8215 8214 8219 8220 8220 8211 8215 8203 8215 8218 8216 8213 8213 8208 8219 8207 8204 8215 8215 8209 8200 8202 8207 8206 8209 8211 8208 8211 8207 8209 8204 8199 8203 8201 8213 8215 8212 8213 8216 8211 8214 8212 8212 8214 8216 8210 8215 8212 8215 8211 8213 8214 8211 8208 8206 8213 8207 8216 8212 8211 8210 8205 8210 8206 8209 8211 8206 8209 8210 8212 8206 8211 8213 8212 
8228 8212 8218 8220 8213 8214 8220 8215 8221 8211 8214 8215 8217 8206 8215 8211 8217 8211 8210 8208 8213 8203 8211 8207 8214 8209 8205 8206 8205 8207 8209 8207 8212 8208 8207 8205 8207 8206 8204 8201 8214 8211 8211 8208 8207 8206 8213 8208 8206 8210 8208 8213 8215 8215 8212 8211 8212 8212 8210 8206 8209 8210 8216 8213 8204 8209 8209 8202 8208 8202 8207 8205 8210 8210 8212 8215 8207 8205 8210 8212 
8230 8211 8217 8217 8214 8221 8226 8212 8218 8209 8216 8220 8219 8219 8210 8214 8215 8216 8219 8213 8205 8212 8214 8213 8214 8214 8210 8209 8208 8205 8210 8206 8210 8205 8209 8204 8208 8207 8204 8209 8214 8213 8207 8210 8206 8210 8208 8212 8209 8206 8213 8214 8214 8211 8213 8207 8213 8213 8212 8210 8208 8212 8216 8213 8202 8207 8205 8208 8213 8212 8206 8214 8215 8215 8212 8212 8211 8214 8208 8213 
8229 8205 8210 8210 8218 8214 8224 8212 8215 8213 8215 8215 8215 8220 8213 8216 8213 8211 8217 8207 8207 8210 8204 8214 8207 8207 8205 8206 8212 8208 8212 8210 8207 8208 8209 8205 8207 8210 8210 8210 8212 8212 8214 8201 8209 8207 8216 8211 8213 8210 8208 8213 8213 8212 8198 8210 8213 8211 8207 8203 8211 8214 8213 8207 8205 8207 8208 8209 8215 8217 8211 8211 8217 8219 8215 8212 8213 8209 8210 8205 
8229 8212 8208 8213 8218 8220 8216 8220 8210 8206 8215 8218 8222 8222 8215 8213 8214 8217 8217 8210 8212 8211 8212 8215 8207 8211 8209 8207 8210 8212 8204 8209 8208 8203 8210 8204 8206 8209 8214 8210 8215 8208 8210 8205 8209 8210 8208 8211 8216 8211 8211 8213 8218 8213 8214 8215 8214 8212 8210 8215 8214 8216 8213 8205 8202 8210 8209 8204 8218 8208 8215 8214 8212 8211 8218 8215 8215 8217 8213 8206 
8224 8212 8211 8213 8214 8214 8215 8221 8218 8212 8207 8213 8211 8219 8221 8210 8211 8219 8213 8212 8207 8213 8212 8214 8211 8214 8210 8211 8212 8204 8208 8210 8208 8206 8210 8205 8205 8207 8205 8211 8208 8205 8204 8212 8209 8209 8211 8209 8208 8210 8206 8214 8210 8212 8219 8212 8216 8215 8214 8217 8216 8215 8215 8204 8208 8213 8207 8205 8218 8211 8216 8218 8210 8221 8218 8215 8207 8207 8218 8209 
8222 8212 8213 8211 8214 8217 8220 8220 8213 8217 8209 8215 8214 8217 8220 8217 8215 8219 8214 8209 8211 8212 8212 8216 8215 8210 8209 8210 8207 8203 8211 8207 8202 8207 8210 8210 8207 8206 8207 8202 8205 8207 8206 8212 8208 8212 8213 8211 8216 8210 8217 8217 8216 8207 8217 8213 8215 8213 8212 8212 8216 8215 8215 8207 8208 8213 8205 8213 8215 8210 8211 8215 8215 8220 8212 8207 8207 8206 8217 8207 
8225 8220 8210 8216 8216 8215 8220 8216 8215 8219 8214 8221 8216 8223 8220 8217 8216 8212 8214 8211 8212 8213 8209 8212 8215 8205 8205 8206 8205 8202 8201 8202 8202 8206 8207 8202 8206 8203 8202 8198 8203 8203 8206 8207 8207 8212 8203 8214 8216 8212 8213 8217 8206 8204 8217 8211 8221 8211 8209 8213 8216 8213 8208 8209 8214 8205 8207 8207 8212 8212 8218 8214 8208 8216 8207 8216 8201 8208 8214 8207 
8222 8215 8217 8215 8214 8211 8219 8218 8213 8220 8220 8219 8222 8219 8218 8216 8217 8216 8210 8210 8215 8215 8212 8214 8212 8190 8204 8204 8207 8205 8199 8202 8205 8199 8206 8203 8199 8200 8194 8192 8191 8197 8196 8204 8203 8206 8198 8209 8214 8211 8215 8214 8214 8213 8212 8211 8221 8217 8215 8213 8214 8208 8207 8209 8213 8211 8206 8209 8214 8205 8216 8213 8209 8215 8216 8215 8203 8207 8211 8203 
8220 8213 8216 8214 8205 8210 8216 8210 8216 8222 8221 8214 8222 8218 8220 8210 8211 8220 8211 8214 8214 8212 8211 8213 8213 8195 8187 8202 8202 8199 8195 8184 8188 8180 8178 8184 8179 8177 8171 8171 8169 8177 8170 8173 8177 8172 8180 8185 8193 8203 8206 8211 8201 8205 8214 8213 8215 8212 8210 8205 8207 8204 8210 8209 8209 8214 8207 8214 8207 8205 8214 8214 8212 8214 8211 8211 8212 8207 8206 8204 
8223 8217 8211 8198 8211 8211 8216 8208 8217 8215 8216 8212 8211 8217 8219 8216 8209 8216 8215 8213 8208 8208 8206 8207 8213 8195 8186 8177 8178 8172 8166 8177 8177 8170 8161 8169 8171 8164 8165 8167 8169 8164 8155 8167 8169 8162 8165 8165 8163 8170 8180 8197 8200 8204 8211 8207 8210 8208 8208 8207 8200 8208 8206 8204 8207 8208 8208 8212 8213 8203 8214 8207 8212 8205 8210 8209 8211 8199 8204 8195 
8219 8204 8194 8199 8203 8200 8202 8211 8218 8212 8218 8210 8206 8218 8211 8201 8203 8208 8206 8205 8211 8200 8190 8185 8187 8168 8167 8166 8166 8165 8169 8160 8163 8170 8163 8165 8163 8167 8162 8168 8163 8161 8156 8157 8158 8157 8165 8162 8163 8164 8163 8163 8186 8202 8207 8206 8210 8209 8212 8206 8207 8204 8202 8202 8206 8208 8207 8215 8212 8213 8211 8211 8211 8203 8207 8208 8204 8192 8198 8198 
8211 8189 8186 8188 8189 8188 8190 8198 8206 8202 8202 8200 8204 8208 8206 8203 8203 8203 8202 8201 8196 8183 8168 8159 8166 8162 8165 8165 8162 8164 8160 8156 8159 8161 8160 8160 8156 8157 8162 8162 8163 8159 8157 8157 8154 8155 8161 8165 8163 8157 8159 8161 8176 8195 8204 8204 8211 8209 8212 8205 8205 8206 8202 8203 8204 8203 8207 8209 8214 8210 8210 8211 8211 8207 8203 8199 8190 8193 8192 8192 


