P2
80 60
8308
8298 8299 8294 8301 8300 8301 8304 8300 8299 8294 8293 8294 8293 8297 8294 8296 8296 8295 8300 8302 8300 8296 8298 8300 8296 8294 8295 8291 8290 8292 8293 8291 8292 8294 8294 8292 8291 8293 8290 8291 8290 8288 8287 8283 8283 8283 8283 8283 8281 8279 8280 8275 8277 8273 8272 8269 8270 8272 8270 8274 8275 8275 8271 8270 8270 8268 8271 8270 8274 8277 8275 8281 8278 8277 8278 8276 8276 8274 8269 8275 
8297 8301 8295 8297 8299 8301 8302 8299 8298 8297 8294 8297 8295 8291 8293 8295 8296 8297 8300 8302 8299 8298 8299 8299 8295 8297 8293 8294 8292 8296 8294 8292 8294 8294 8291 8287 8288 8292 8292 8289 8289 8286 8284 8283 8282 8287 8285 8283 8280 8282 8280 8276 8277 8272 8271 8273 8270 8274 8271 8275 8274 8276 8272 8270 8272 8268 8271 8270 8273 8276 8276 8278 8278 8276 8279 8278 8278 8277 8271 8272 
8298 8298 8297 8299 8301 8301 8302 8301 8297 8295 8295 8297 8294 8294 8298 8295 8299 8296 8298 8300 8301 8299 8298 8298 8296 8297 8296 8295 8291 8296 8295 8293 8293 8293 8291 8290 8288 8289 8290 8290 8291 8288 8284 8282 8286 8286 8283 8284 8281 8283 8282 8280 8277 8278 8273 8272 8270 8276 8272 8276 8276 8274 8272 8272 8270 8269 8272 8270 8272 8276 8271 8274 8278 8280 8281 8277 8278 8276 8268 8275 
8292 8298 8297 8303 8302 8305 8304 8301 8300 8297 8293 8296 8294 8298 8296 8296 8297 8294 8295 8298 8299 8296 8299 8299 8297 8296 8294 8294 8294 8295 8295 8291 8293 8294 8292 8291 8290 8291 8291 8289 8290 8290 8284 8282 8286 8284 8283 8284 8281 8281 8284 8279 8282 8278 8276 8275 8274 8273 8272 8271 8277 8274 8273 8269 8273 8271 8270 8271 8272 8273 8269 8272 8275 8278 8279 8277 8273 8277 8270 8271 
8295 8299 8298 8303 8301 8303 8305 8300 8302 8297 8294 8294 8295 8296 8293 8297 8297 8296 8296 8297 8297 8293 8296 8297 8294 8293 8293 8292 8290 8293 8295 8292 8295 8291 8289 8290 8291 8293 8290 8292 8289 8287 8284 8282 8279 8281 8284 8282 8280 8282 8280 8279 8280 8276 8275 8273 8274 8276 8272 8274 8275 8272 8269 8270 8266 8271 8269 8271 8276 8272 8268 8270 8273 8273 8274 8277 8278 8275 8272 8273 
8299 8302 8301 8302 8300 8305 8300 8301 8296 8292 8291 8292 8294 8293 8295 8292 8290 8290 8294 8299 8295 8292 8294 8295 8294 8294 8289 8288 8289 8291 8294 8293 8293 8293 8292 8290 8291 8290 8288 8289 8288 8286 8283 8277 8282 8279 8280 8280 8278 8281 8280 8277 8274 8277 8275 8272 8272 8274 8272 8275 8274 8274 8268 8267 8268 8265 8268 8270 8268 8270 8267 8267 8267 8270 8269 8274 8274 8274 8268 8272 
8297 8303 8298 8303 8303 8303 8300 8299 8296 8292 8291 8294 8292 8295 8294 8291 8291 8292 8297 8295 8294 8293 8295 8291 8290 8292 8290 8288 8289 8291 8295 8288 8290 8290 8291 8288 8288 8288 8289 8288 8287 8286 8282 8279 8282 8282 8280 8281 8276 8279 8278 8273 8277 8274 8275 8272 8272 8272 8273 8274 8272 8272 8270 8267 8268 8268 8269 8267 8270 8267 8265 8264 8267 8265 8270 8269 8271 8272 8273 8274 
8295 8298 8297 8303 8298 8301 8301 8301 8298 8294 8290 8293 8291 8295 8293 8291 8293 8293 8293 8294 8291 8290 8295 8298 8293 8290 8289 8289 8290 8292 8288 8288 8292 8291 8287 8286 8286 8287 8288 8287 8287 8282 8282 8279 8278 8281 8282 8281 8278 8276 8278 8273 8277 8272 8275 8272 8271 8273 8270 8273 8268 8272 8268 8267 8269 8266 8264 8267 8266 8267 8261 8263 8262 8263 8262 8267 8272 8274 8271 8268 
8292 8295 8292 8299 8296 8302 8298 8297 8294 8291 8287 8291 8289 8293 8290 8287 8290 8292 8294 8293 8289 8288 8294 8291 8288 8291 8288 8284 8290 8287 8289 8285 8287 8288 8286 8285 8285 8286 8285 8285 8285 8280 8279 8279 8277 8277 8278 8279 8276 8276 8275 8270 8275 8272 8273 8271 8271 8271 8269 8269 8269 8266 8265 8263 8264 8263 8264 8261 8265 8263 8257 8260 8260 8258 8259 8264 8274 8276 8269 8270 
8293 8293 8292 8295 8296 8299 8297 8296 8298 8291 8290 8291 8289 8291 8290 8289 8291 8293 8292 8291 8292 8291 8292 8292 8290 8292 8287 8288 8288 8287 8285 8283 8286 8285 8284 8284 8284 8285 8282 8283 8283 8280 8280 8277 8279 8279 8278 8280 8278 8278 8274 8274 8272 8273 8271 8267 8268 8271 8267 8269 8268 8265 8263 8261 8264 8262 8262 8262 8257 8262 8258 8255 8254 8258 8253 8263 8264 8268 8270 8270 
8291 8296 8294 8293 8293 8300 8299 8296 8294 8293 8290 8289 8290 8291 8289 8288 8292 8290 8293 8291 8290 8291 8291 8290 8288 8289 8287 8286 8285 8286 8284 8283 8284 8283 8283 8281 8280 8285 8284 8283 8280 8278 8278 8278 8283 8279 8280 8279 8276 8277 8276 8273 8273 8272 8270 8269 8266 8269 8267 8267 8268 8265 8266 8261 8262 8262 8265 8264 8259 8256 8253 8251 8253 8256 8256 8256 8254 8257 8255 8256 
8291 8295 8295 8296 8295 8298 8294 8296 8296 8292 8291 8293 8289 8290 8291 8291 8285 8288 8290 8291 8287 8290 8291 8290 8288 8288 8286 8283 8285 8285 8282 8281 8284 8284 8285 8280 8280 8287 8284 8282 8281 8281 8278 8279 8279 8277 8279 8276 8275 8276 8276 8271 8273 8271 8266 8266 8266 8267 8266 8265 8266 8266 8265 8262 8266 8261 8262 8260 8261 8258 8255 8254 8251 8252 8252 8250 8250 8249 8244 8250 
8291 8294 8294 8296 8294 8297 8293 8295 8295 8291 8288 8289 8291 8293 8287 8290 8284 8289 8289 8291 8288 8284 8290 8289 8286 8285 8281 8284 8282 8282 8281 8281 8282 8283 8282 8280 8280 8281 8282 8280 8279 8280 8280 8279 8280 8280 8278 8277 8276 8275 8276 8271 8273 8266 8267 8266 8265 8267 8263 8268 8266 8264 8263 8260 8261 8260 8260 8258 8260 8258 8254 8253 8251 8249 8248 8247 8244 8244 8240 8245 
8288 8295 8295 8294 8294 8295 8296 8291 8290 8287 8287 8288 8286 8291 8287 8287 8287 8289 8288 8291 8285 8285 8285 8286 8285 8283 8283 8281 8283 8281 8277 8278 8281 8281 8279 8278 8280 8280 8278 8280 8279 8277 8278 8277 8278 8278 8275 8274 8273 8273 8275 8271 8269 8266 8266 8265 8262 8263 8264 8264 8263 8263 8260 8259 8261 8260 8258 8259 8258 8256 8253 8252 8253 8247 8249 8244 8244 8245 8240 8241 
8291 8294 8293 8295 8296 8296 8295 8294 8292 8289 8289 8288 8289 8288 8285 8286 8288 8285 8289 8289 8287 8284 8285 8284 8284 8283 8280 8280 8281 8281 8277 8279 8281 8280 8279 8279 8280 8284 8278 8279 8279 8279 8276 8275 8277 8278 8275 8273 8272 8273 8273 8268 8270 8268 8266 8266 8266 8266 8263 8261 8264 8263 8262 8263 8262 8262 8260 8255 8256 8256 8250 8250 8248 8248 8248 8246 8243 8240 8235 8243 
8289 8293 8290 8294 8294 8296 8294 8293 8291 8288 8284 8287 8286 8290 8288 8285 8287 8286 8289 8292 8289 8287 8284 8285 8280 8284 8278 8280 8277 8278 8280 8277 8278 8277 8277 8277 8276 8278 8278 8276 8276 8275 8276 8273 8276 8274 8274 8273 8269 8270 8273 8266 8269 8265 8264 8264 8263 8264 8264 8265 8261 8263 8263 8265 8262 8259 8259 8257 8258 8254 8251 8249 8250 8249 8245 8245 8241 8239 8237 8241 
8288 8293 8291 8292 8294 8298 8293 8295 8292 8288 8287 8286 8289 8289 8287 8288 8286 8288 8289 8289 8286 8285 8284 8285 8284 8284 8281 8281 8278 8276 8279 8277 8277 8279 8277 8278 8274 8276 8277 8276 8276 8274 8274 8272 8272 8274 8272 8269 8272 8267 8271 8267 8269 8263 8267 8262 8263 8264 8264 8262 8261 8262 8262 8262 8261 8257 8260 8258 8256 8255 8252 8252 8248 8246 8247 8245 8240 8239 8230 8236 
8286 8292 8292 8293 8295 8295 8292 8292 8293 8288 8285 8288 8289 8289 8286 8286 8285 8284 8285 8285 8283 8285 8283 8283 8280 8283 8281 8281 8279 8278 8278 8278 8278 8281 8277 8276 8275 8274 8274 8275 8275 8274 8271 8269 8273 8273 8269 8271 8271 8269 8272 8268 8267 8266 8265 8262 8261 8265 8264 8263 8262 8263 8264 8260 8263 8261 8259 8256 8256 8254 8252 8249 8248 8247 8243 8245 8238 8237 8232 8236 
8287 8292 8292 8292 8290 8291 8292 8291 8288 8284 8287 8290 8287 8288 8286 8287 8284 8286 8285 8284 8280 8282 8282 8283 8280 8282 8280 8278 8276 8279 8282 8279 8278 8278 8276 8276 8277 8273 8275 8275 8272 8271 8270 8267 8273 8270 8269 8270 8266 8268 8273 8268 8266 8266 8263 8259 8263 8262 8260 8262 8261 8263 8259 8259 8263 8261 8259 8256 8255 8255 8251 8251 8249 8246 8244 8245 8237 8237 8236 8232 
8287 8293 8291 8294 8291 8293 8288 8290 8288 8285 8286 8287 8289 8288 8284 8285 8284 8284 8288 8284 8282 8282 8284 8282 8281 8280 8282 8279 8279 8278 8280 8275 8277 8278 8278 8276 8274 8274 8273 8275 8273 8272 8273 8268 8270 8270 8271 8268 8270 8272 8270 8265 8267 8263 8267 8262 8263 8264 8263 8260 8260 8262 8263 8263 8262 8262 8261 8258 8253 8255 8250 8248 8248 8246 8243 8243 8239 8239 8232 8231 
8289 8293 8291 8290 8291 8290 8288 8288 8286 8281 8283 8286 8288 8287 8287 8284 8284 8281 8282 8282 8278 8281 8280 8283 8278 8278 8277 8279 8277 8276 8278 8275 8277 8277 8276 8273 8275 8271 8275 8274 8273 8271 8270 8264 8269 8267 8270 8267 8267 8271 8268 8266 8268 8263 8263 8265 8261 8263 8259 8262 8261 8262 8261 8261 8264 8260 8258 8257 8254 8253 8248 8249 8246 8241 8248 8244 8239 8240 8233 8236 
8288 8292 8288 8289 8288 8289 8291 8286 8283 8283 8282 8284 8284 8286 8285 8284 8285 8282 8279 8282 8280 8279 8280 8283 8280 8276 8276 8274 8276 8275 8277 8275 8276 8278 8274 8273 8276 8273 8273 8272 8271 8269 8266 8265 8269 8268 8267 8267 8266 8268 8269 8266 8268 8264 8262 8261 8263 8264 8260 8260 8260 8262 8262 8261 8262 8263 8260 8257 8256 8252 8249 8248 8246 8246 8247 8244 8240 8240 8238 8238 
8290 8291 8293 8290 8291 8287 8285 8284 8283 8283 8284 8285 8287 8286 8284 8286 8285 8280 8282 8281 8279 8280 8278 8279 8277 8277 8274 8276 8277 8276 8280 8276 8278 8278 8273 8273 8276 8274 8274 8272 8271 8268 8267 8267 8269 8268 8268 8272 8269 8266 8270 8267 8266 8265 8265 8263 8264 8265 8262 8261 8261 8260 8258 8261 8260 8261 8261 8257 8257 8252 8252 8247 8249 8248 8248 8247 8244 8240 8236 8238 
8287 8293 8292 8291 8289 8287 8286 8282 8282 8280 8281 8283 8287 8287 8283 8281 8282 8281 8281 8282 8277 8276 8275 8277 8276 8276 8273 8271 8277 8278 8278 8275 8279 8277 8274 8272 8273 8275 8274 8274 8272 8269 8265 8265 8267 8264 8269 8267 8265 8266 8266 8266 8268 8265 8264 8264 8261 8265 8261 8263 8259 8264 8258 8261 8261 8260 8260 8258 8259 8254 8252 8251 8250 8247 8246 8246 8243 8245 8236 8239 
8289 8295 8289 8294 8288 8285 8284 8282 8284 8281 8283 8282 8284 8286 8284 8282 8281 8281 8278 8280 8277 8278 8277 8278 8276 8278 8275 8271 8275 8278 8277 8274 8276 8278 8274 8271 8270 8274 8272 8272 8272 8270 8268 8266 8269 8267 8268 8267 8265 8268 8269 8266 8266 8263 8263 8263 8262 8268 8263 8264 8263 8261 8259 8262 8262 8261 8259 8260 8254 8253 8248 8250 8250 8243 8248 8246 8243 8245 8240 8237 
8287 8293 8292 8289 8288 8285 8282 8283 8283 8282 8282 8282 8284 8286 8282 8281 8280 8279 8280 8280 8279 8278 8278 8275 8277 8274 8273 8273 8276 8277 8277 8277 8277 8276 8274 8272 8271 8273 8273 8272 8273 8270 8266 8268 8268 8269 8267 8269 8266 8267 8267 8268 8267 8265 8265 8263 8262 8263 8263 8260 8263 8262 8260 8259 8259 8257 8257 8255 8257 8252 8250 8248 8250 8248 8248 8247 8244 8243 8241 8238 
8287 8292 8291 8289 8286 8284 8283 8284 8282 8282 8280 8283 8282 8284 8283 8283 8279 8280 8279 8279 8276 8277 8280 8280 8276 8277 8276 8277 8277 8277 8279 8273 8274 8277 8276 8274 8271 8272 8275 8272 8272 8270 8267 8265 8269 8268 8269 8270 8267 8268 8270 8266 8267 8264 8268 8263 8262 8264 8264 8265 8265 8261 8261 8260 8259 8256 8258 8253 8253 8253 8248 8248 8250 8247 8246 8247 8243 8245 8239 8241 
8289 8293 8289 8289 8284 8286 8291 8284 8283 8283 8282 8285 8283 8284 8282 8282 8279 8280 8280 8279 8277 8276 8280 8277 8279 8280 8279 8278 8279 8279 8278 8276 8274 8275 8276 8275 8271 8270 8270 8271 8271 8269 8267 8267 8270 8267 8266 8267 8267 8269 8268 8266 8267 8265 8265 8264 8261 8267 8266 8264 8261 8263 8263 8259 8261 8259 8260 8254 8255 8253 8249 8247 8249 8246 8247 8248 8243 8248 8242 8239 
8289 8290 8287 8287 8288 8286 8288 8286 8286 8282 8284 8283 8285 8284 8282 8282 8281 8279 8277 8280 8277 8278 8281 8278 8281 8281 8279 8280 8278 8279 8278 8274 8275 8278 8276 8271 8272 8271 8271 8269 8271 8267 8268 8266 8269 8269 8268 8269 8265 8268 8270 8266 8267 8270 8265 8263 8264 8265 8259 8263 8263 8264 8261 8260 8259 8256 8260 8256 8254 8252 8246 8247 8248 8246 8247 8250 8246 8248 8244 8241 
8287 8287 8285 8286 8286 8285 8284 8284 8286 8284 8285 8284 8283 8281 8282 8282 8280 8281 8282 8280 8274 8278 8277 8281 8279 8282 8276 8277 8277 8279 8278 8275 8274 8275 8273 8274 8270 8272 8271 8271 8268 8269 8268 8270 8269 8269 8269 8267 8268 8268 8269 8266 8267 8266 8263 8264 8263 8264 8262 8262 8262 8263 8260 8256 8258 8257 8256 8254 8253 8252 8250 8248 8247 8247 8248 8247 8247 8247 8244 8245 
8287 8292 8286 8286 8288 8286 8285 8285 8286 8281 8284 8284 8286 8282 8281 8282 8280 8280 8280 8279 8279 8279 8279 8282 8278 8277 8278 8278 8278 8277 8279 8275 8277 8278 8275 8272 8271 8273 8273 8271 8269 8271 8269 8268 8271 8268 8272 8269 8271 8268 8270 8267 8268 8266 8264 8261 8260 8263 8261 8263 8261 8261 8260 8256 8256 8255 8256 8255 8254 8253 8248 8249 8248 8248 8250 8249 8246 8248 8244 8239 
8289 8290 8288 8285 8285 8284 8286 8286 8285 8285 8282 8283 8285 8284 8280 8280 8280 8279 8280 8278 8278 8274 8278 8279 8278 8279 8277 8278 8279 8276 8279 8274 8276 8278 8277 8272 8273 8274 8271 8272 8271 8271 8267 8268 8272 8270 8273 8269 8269 8271 8271 8266 8269 8264 8265 8261 8262 8267 8258 8263 8262 8262 8260 8259 8257 8253 8253 8254 8254 8251 8248 8249 8247 8249 8249 8247 8246 8247 8241 8243 
8286 8291 8285 8287 8284 8287 8287 8286 8287 8285 8283 8281 8283 8285 8283 8279 8281 8279 8278 8277 8277 8277 8279 8279 8278 8277 8276 8277 8280 8277 8278 8275 8275 8275 8277 8274 8276 8272 8273 8274 8271 8271 8269 8269 8273 8270 8270 8272 8268 8271 8271 8266 8268 8267 8264 8263 8262 8264 8260 8261 8263 8262 8260 8256 8256 8254 8255 8253 8253 8252 8248 8249 8247 8249 8247 8248 8249 8248 8242 8242 
8288 8290 8288 8288 8285 8284 8286 8285 8286 8285 8282 8283 8280 8283 8284 8281 8282 8277 8280 8281 8277 8276 8277 8279 8280 8275 8278 8277 8274 8276 8277 8271 8276 8273 8277 8274 8276 8275 8272 8271 8272 8272 8270 8271 8269 8273 8271 8270 8272 8270 8273 8269 8270 8268 8265 8261 8263 8262 8262 8261 8260 8261 8262 8260 8255 8257 8255 8251 8254 8252 8251 8251 8251 8251 8249 8250 8249 8248 8243 8246 
8291 8291 8285 8284 8287 8288 8287 8284 8287 8284 8284 8285 8282 8284 8285 8281 8280 8279 8284 8282 8278 8279 8281 8280 8280 8278 8275 8277 8274 8277 8274 8272 8276 8274 8272 8273 8273 8274 8273 8272 8272 8270 8270 8270 8269 8272 8271 8270 8270 8268 8271 8269 8270 8266 8265 8264 8264 8263 8263 8264 8263 8262 8258 8255 8260 8260 8254 8250 8250 8257 8253 8250 8252 8250 8251 8253 8248 8248 8240 8248 
8289 8292 8288 8285 8287 8288 8287 8289 8290 8285 8286 8285 8284 8285 8282 8281 8283 8279 8283 8281 8277 8277 8282 8281 8278 8278 8276 8278 8276 8275 8276 8271 8272 8276 8273 8273 8274 8273 8272 8272 8269 8269 8268 8271 8269 8271 8271 8270 8268 8270 8269 8269 8270 8272 8268 8263 8262 8267 8264 8262 8264 8263 8263 8259 8258 8256 8256 8252 8253 8254 8253 8251 8251 8250 8247 8253 8248 8249 8245 8247 
8291 8291 8290 8292 8289 8290 8289 8288 8290 8289 8286 8286 8286 8285 8287 8281 8280 8280 8281 8284 8279 8279 8280 8281 8277 8275 8274 8276 8276 8276 8277 8272 8274 8275 8274 8271 8273 8272 8269 8272 8270 8271 8267 8268 8272 8271 8271 8270 8270 8268 8266 8269 8267 8270 8269 8265 8264 8266 8264 8265 8262 8263 8264 8260 8259 8259 8255 8256 8257 8253 8253 8254 8249 8251 8253 8251 8251 8250 8245 8247 
8288 8291 8291 8291 8288 8290 8288 8288 8291 8287 8288 8285 8285 8286 8284 8283 8282 8279 8282 8283 8281 8279 8282 8282 8281 8278 8276 8278 8276 8276 8275 8272 8275 8272 8273 8270 8271 8271 8268 8271 8271 8269 8268 8267 8269 8269 8271 8269 8267 8267 8268 8269 8268 8267 8268 8267 8267 8268 8266 8265 8263 8262 8264 8262 8262 8259 8257 8258 8258 8257 8255 8253 8254 8254 8252 8255 8249 8253 8247 8245 
8291 8293 8292 8290 8290 8290 8288 8289 8289 8289 8287 8287 8283 8287 8283 8280 8284 8281 8283 8283 8280 8280 8280 8282 8279 8278 8277 8276 8276 8276 8275 8274 8273 8273 8272 8271 8272 8272 8270 8268 8268 8269 8269 8266 8266 8269 8269 8268 8265 8268 8269 8267 8268 8271 8268 8265 8265 8267 8264 8265 8259 8261 8262 8262 8262 8260 8258 8259 8261 8259 8254 8254 8251 8253 8258 8256 8253 8252 8249 8243 
8291 8292 8290 8292 8289 8288 8290 8287 8291 8288 8287 8288 8285 8284 8283 8279 8280 8282 8280 8283 8283 8282 8281 8278 8277 8279 8278 8272 8272 8276 8275 8274 8273 8269 8271 8271 8272 8269 8270 8269 8269 8268 8268 8267 8268 8270 8269 8266 8264 8268 8269 8269 8269 8267 8266 8266 8265 8265 8264 8265 8263 8262 8265 8260 8261 8259 8259 8258 8260 8256 8254 8254 8255 8254 8256 8259 8254 8252 8250 8249 
8288 8290 8290 8289 8289 8290 8288 8286 8287 8289 8286 8287 8286 8288 8284 8282 8283 8279 8281 8283 8280 8281 8281 8279 8278 8280 8277 8277 8276 8276 8279 8272 8273 8272 8274 8271 8274 8270 8271 8271 8269 8269 8266 8267 8267 8268 8267 8267 8263 8266 8268 8268 8270 8269 8267 8264 8266 8266 8265 8265 8263 8263 8264 8264 8262 8261 8262 8257 8257 8261 8253 8255 8259 8259 8256 8255 8252 8254 8249 8250 
8284 8287 8286 8288 8284 8289 8288 8286 8288 8285 8284 8286 8287 8285 8281 8281 8280 8279 8281 8283 8279 8277 8280 8280 8277 8278 8274 8275 8275 8277 8275 8274 8272 8270 8272 8271 8271 8270 8269 8269 8268 8269 8267 8267 8268 8266 8267 8268 8267 8267 8269 8268 8269 8270 8268 8267 8267 8266 8264 8265 8266 8267 8265 8260 8264 8260 8263 8259 8259 8258 8255 8256 8257 8255 8256 8256 8254 8254 8249 8252 
8290 8291 8287 8288 8287 8290 8287 8288 8287 8286 8285 8286 8283 8285 8279 8280 8279 8278 8280 8284 8278 8280 8279 8280 8276 8279 8276 8275 8276 8277 8275 8271 8274 8273 8273 8272 8272 8268 8266 8269 8269 8270 8268 8267 8269 8270 8270 8268 8270 8270 8268 8266 8268 8269 8270 8264 8264 8265 8263 8265 8265 8264 8263 8261 8263 8263 8261 8259 8261 8260 8257 8256 8255 8259 8260 8257 8257 8257 8250 8255 
8291 8294 8289 8290 8288 8290 8288 8286 8285 8286 8284 8286 8286 8288 8284 8278 8281 8278 8281 8280 8278 8277 8279 8278 8278 8282 8274 8278 8276 8277 8276 8274 8273 8273 8270 8271 8271 8269 8268 8269 8271 8268 8268 8267 8269 8273 8268 8268 8268 8271 8269 8264 8267 8265 8266 8264 8264 8266 8263 8266 8266 8266 8263 8264 8263 8262 8262 8261 8260 8259 8260 8260 8262 8258 8261 8259 8257 8259 8256 8257 
8291 8291 8285 8293 8289 8290 8289 8286 8289 8287 8284 8287 8286 8290 8285 8280 8281 8280 8281 8284 8279 8279 8278 8279 8277 8277 8276 8277 8275 8273 8276 8273 8271 8271 8272 8271 8271 8271 8268 8268 8269 8269 8266 8269 8268 8269 8270 8269 8266 8267 8267 8266 8266 8264 8266 8264 8263 8264 8260 8261 8265 8264 8263 8263 8265 8259 8261 8259 8260 8259 8258 8260 8261 8260 8258 8261 8259 8260 8254 8255 
8291 8291 8289 8289 8290 8292 8290 8289 8290 8289 8288 8287 8286 8286 8283 8279 8282 8282 8281 8286 8283 8281 8278 8276 8276 8276 8274 8277 8277 8277 8276 8273 8273 8273 8271 8270 8267 8265 8268 8267 8268 8269 8268 8267 8270 8269 8270 8268 8265 8268 8268 8263 8266 8264 8266 8262 8262 8266 8260 8266 8263 8264 8263 8263 8260 8262 8261 8261 8262 8263 8257 8260 8259 8262 8260 8265 8259 8259 8260 8256 
8292 8292 8291 8293 8290 8291 8290 8289 8288 8289 8287 8288 8285 8285 8283 8281 8279 8281 8284 8287 8279 8280 8281 8280 8278 8276 8274 8276 8273 8274 8276 8271 8272 8272 8271 8269 8270 8268 8268 8269 8269 8270 8267 8269 8268 8269 8268 8269 8267 8269 8268 8265 8266 8263 8263 8261 8262 8267 8264 8266 8264 8263 8259 8263 8264 8262 8262 8262 8265 8262 8259 8262 8263 8264 8262 8261 8261 8261 8255 8259 
8291 8293 8289 8292 8289 8291 8288 8288 8288 8287 8286 8286 8287 8285 8278 8281 8282 8279 8283 8284 8279 8280 8278 8281 8278 8277 8275 8273 8272 8274 8273 8272 8274 8273 8272 8270 8270 8268 8267 8270 8269 8272 8268 8268 8269 8269 8266 8267 8267 8264 8264 8262 8263 8263 8264 8262 8262 8263 8259 8260 8263 8263 8264 8265 8259 8258 8261 8260 8260 8263 8262 8264 8263 8263 8268 8264 8263 8261 8259 8262 
8292 8297 8290 8290 8292 8291 8289 8286 8289 8287 8287 8285 8284 8287 8281 8279 8278 8283 8282 8282 8279 8277 8280 8280 8277 8277 8273 8275 8274 8276 8276 8273 8277 8272 8273 8269 8268 8269 8269 8269 8270 8274 8268 8268 8270 8269 8267 8267 8265 8266 8266 8265 8266 8265 8262 8266 8264 8265 8263 8263 8262 8262 8262 8261 8259 8258 8260 8258 8262 8258 8264 8262 8262 8263 8264 8266 8264 8266 8265 8260 
8289 8295 8291 8290 8286 8288 8287 8288 8290 8285 8287 8288 8283 8287 8283 8281 8280 8279 8283 8282 8279 8280 8280 8278 8278 8278 8272 8276 8272 8275 8276 8273 8273 8279 8275 8274 8272 8272 8268 8269 8268 8271 8269 8269 8271 8269 8265 8267 8265 8265 8265 8263 8264 8265 8265 8263 8263 8261 8261 8260 8262 8262 8259 8260 8257 8259 8259 8257 8260 8260 8261 8263 8263 8264 8267 8264 8268 8268 8258 8262 
8290 8293 8288 8288 8287 8288 8290 8288 8289 8287 8285 8287 8285 8287 8282 8282 8281 8277 8284 8284 8277 8279 8281 8282 8278 8278 8275 8274 8273 8274 8274 8274 8278 8276 8273 8272 8274 8269 8271 8270 8269 8268 8270 8266 8268 8270 8262 8265 8264 8266 8264 8265 8265 8263 8265 8263 8264 8262 8259 8257 8258 8258 8256 8259 8256 8258 8260 8259 8261 8260 8261 8261 8264 8265 8270 8268 8268 8267 8261 8264 
8294 8294 8289 8294 8290 8292 8290 8286 8288 8287 8282 8287 8280 8286 8281 8281 8282 8280 8281 8282 8275 8278 8281 8279 8279 8278 8274 8276 8272 8272 8277 8273 8272 8274 8271 8270 8271 8269 8270 8268 8272 8267 8265 8264 8267 8267 8264 8263 8263 8265 8266 8262 8266 8265 8264 8262 8264 8264 8259 8261 8259 8258 8259 8262 8257 8258 8255 8258 8261 8262 8264 8264 8268 8268 8268 8272 8270 8271 8265 8265 
8292 8293 8289 8287 8290 8292 8288 8286 8288 8286 8284 8287 8283 8284 8282 8282 8280 8278 8281 8279 8275 8278 8280 8281 8279 8277 8278 8278 8274 8272 8272 8269 8271 8269 8268 8269 8271 8269 8269 8266 8265 8263 8266 8264 8263 8265 8266 8262 8261 8266 8265 8261 8263 8265 8263 8263 8264 8261 8259 8259 8258 8259 8260 8259 8261 8256 8258 8259 8260 8261 8265 8266 8266 8269 8270 8272 8271 8271 8266 8257 
8294 8295 8289 8289 8289 8287 8290 8286 8284 8282 8282 8286 8282 8283 8283 8281 8279 8278 8277 8277 8278 8278 8280 8280 8280 8278 8277 8273 8274 8273 8271 8268 8271 8272 8271 8268 8266 8266 8263 8264 8264 8264 8263 8265 8267 8263 8263 8263 8262 8264 8264 8262 8264 8262 8259 8258 8262 8260 8256 8258 8259 8258 8258 8258 8259 8258 8257 8259 8260 8262 8262 8266 8268 8270 8269 8271 8268 8269 8264 8264 
8295 8295 8290 8287 8282 8288 8289 8282 8283 8279 8281 8284 8281 8282 8282 8281 8279 8278 8277 8278 8277 8274 8279 8282 8278 8279 8276 8275 8269 8271 8270 8266 8268 8268 8271 8268 8268 8266 8265 8262 8264 8265 8265 8261 8262 8264 8262 8260 8260 8263 8262 8260 8264 8262 8262 8258 8258 8261 8258 8261 8261 8263 8259 8257 8260 8256 8257 8260 8260 8260 8261 8263 8268 8268 8269 8269 8267 8269 8263 8260 
8298 8298 8288 8287 8284 8288 8287 8280 8281 8280 8283 8286 8281 8281 8279 8277 8280 8278 8277 8280 8275 8278 8280 8279 8277 8279 8275 8276 8270 8268 8270 8268 8269 8270 8269 8269 8264 8264 8260 8263 8265 8262 8261 8261 8265 8261 8263 8260 8264 8262 8263 8264 8266 8263 8262 8259 8260 8258 8258 8262 8261 8262 8258 8258 8256 8258 8261 8261 8261 8262 8262 8266 8268 8266 8269 8269 8266 8266 8262 8260 
8298 8295 8286 8289 8284 8285 8281 8276 8277 8278 8284 8278 8280 8277 8278 8277 8277 8275 8275 8279 8274 8277 8275 8276 8276 8276 8278 8273 8273 8269 8269 8265 8269 8270 8268 8267 8263 8262 8261 8261 8262 8264 8259 8260 8263 8259 8262 8261 8260 8261 8266 8262 8263 8259 8262 8259 8256 8259 8259 8261 8261 8262 8260 8260 8258 8260 8260 8261 8262 8267 8265 8263 8264 8265 8263 8265 8264 8265 8263 8261 
8280 8282 8293 8303 8293 8274 8273 8268 8271 8273 8273 8272 8274 8275 8270 8270 8273 8266 8271 8271 8272 8269 8269 8271 8272 8275 8272 8271 8266 8265 8265 8265 8263 8257 8260 8257 8262 8259 8258 8262 8259 8259 8263 8258 8259 8261 8260 8262 8262 8261 8265 8261 8262 8259 8262 8258 8258 8259 8258 8259 8262 8262 8262 8257 8256 8260 8264 8259 8266 8266 8261 8266 8262 8262 8263 8263 8261 8262 8258 8258 
8291 8294 8293 8296 8282 8267 8263 8253 8261 8261 8260 8263 8261 8266 8266 8265 8266 8263 8268 8271 8268 8264 8272 8269 8269 8269 8268 8264 8259 8257 8258 8257 8254 8254 8255 8255 8260 8261 8259 8264 8264 8265 8268 8270 8270 8266 8264 8263 8256 8260 8261 8255 8258 8259 8259 8258 8254 8256 8258 8259 8261 8263 8261 8261 8259 8261 8261 8262 8264 8263 8261 8265 8260 8260 8261 8261 8261 8262 8254 8258 
8308 8284 8279 8280 8279 8273 8263 8258 8253 8257 8264 8264 8265 8259 8260 8261 8263 8265 8266 8262 8261 8266 8267 8273 8272 8266 8262 8264 8263 8263 8261 8259 8264 8255 8254 8257 8255 8260 8260 8261 8263 8266 8268 8271 8270 8270 8271 8270 8261 8261 8254 8249 8255 8256 8257 8253 8253 8257 8258 8259 8260 8260 8261 8260 8261 8259 8259 8258 8262 8260 8258 8260 8258 8254 8251 8254 8255 8255 8251 8257 


