P2
80 60
8277
8219 8218 8232 8231 8238 8237 8234 8234 8232 8235 8232 8235 8237 8241 8244 8245 8250 8247 8252 8253 8255 8253 8254 8253 8253 8253 8251 8256 8253 8255 8253 8255 8254 8257 8251 8253 8253 8255 8256 8259 8259 8263 8264 8262 8265 8266 8266 8273 8269 8269 8267 8270 8263 8270 8269 8265 8261 8260 8260 8262 8261 8262 8257 8258 8261 8258 8257 8259 8262 8264 8266 8264 8263 8262 8265 8266 8262 8260 8258 8259 
8225 8231 8238 8234 8236 8237 8239 8236 8233 8235 8236 8236 8238 8242 8243 8246 8248 8247 8251 8250 8253 8252 8253 8250 8252 8251 8252 8254 8252 8254 8253 8251 8251 8252 8249 8251 8249 8252 8256 8254 8256 8257 8257 8260 8264 8267 8264 8266 8268 8268 8265 8268 8265 8266 8266 8261 8261 8257 8256 8260 8260 8260 8255 8258 8258 8258 8262 8260 8262 8263 8264 8264 8265 8267 8265 8266 8263 8262 8261 8258 
8235 8239 8240 8240 8239 8241 8239 8237 8236 8233 8233 8234 8236 8240 8243 8247 8250 8247 8250 8251 8251 8250 8250 8250 8248 8250 8252 8253 8249 8252 8253 8251 8253 8250 8247 8246 8247 8249 8256 8253 8256 8256 8254 8255 8262 8261 8265 8265 8268 8268 8265 8265 8265 8264 8266 8263 8260 8259 8255 8260 8258 8257 8256 8257 8254 8256 8261 8262 8260 8261 8263 8261 8262 8264 8267 8265 8262 8262 8262 8258 
8238 8242 8242 8244 8240 8240 8242 8235 8232 8237 8235 8231 8237 8236 8241 8246 8250 8249 8250 8250 8248 8248 8247 8248 8250 8252 8250 8252 8248 8251 8253 8251 8254 8249 8251 8248 8251 8252 8254 8254 8253 8252 8253 8255 8259 8259 8260 8262 8266 8263 8264 8264 8265 8265 8264 8259 8257 8257 8256 8257 8260 8256 8253 8257 8254 8258 8256 8257 8260 8257 8261 8262 8262 8262 8264 8263 8258 8262 8262 8255 
8242 8244 8245 8244 8241 8244 8242 8235 8231 8232 8233 8232 8234 8239 8242 8242 8247 8247 8250 8247 8249 8246 8245 8247 8249 8250 8248 8249 8249 8250 8252 8252 8252 8253 8248 8250 8253 8254 8258 8257 8258 8256 8254 8253 8254 8260 8255 8259 8263 8264 8263 8261 8260 8264 8265 8257 8258 8255 8252 8257 8259 8256 8255 8255 8254 8253 8258 8257 8256 8259 8260 8259 8262 8260 8262 8257 8257 8257 8258 8255 
8240 8247 8249 8243 8240 8239 8241 8237 8235 8232 8233 8232 8236 8239 8239 8242 8246 8245 8249 8248 8249 8248 8249 8247 8249 8251 8249 8250 8250 8255 8255 8254 8253 8255 8253 8255 8258 8257 8259 8257 8258 8257 8253 8254 8254 8258 8258 8260 8262 8262 8260 8257 8259 8265 8265 8259 8256 8255 8256 8257 8257 8256 8253 8253 8253 8253 8255 8255 8257 8257 8259 8255 8257 8257 8260 8257 8256 8255 8258 8253 
8246 8247 8250 8244 8239 8239 8240 8236 8233 8228 8232 8234 8235 8238 8238 8243 8245 8246 8250 8249 8249 8248 8249 8246 8251 8249 8249 8254 8254 8255 8256 8255 8255 8257 8255 8258 8258 8260 8260 8261 8257 8257 8253 8254 8258 8258 8260 8262 8261 8262 8260 8257 8259 8260 8261 8257 8255 8256 8257 8253 8255 8253 8253 8253 8254 8255 8253 8255 8251 8257 8256 8255 8255 8257 8256 8255 8251 8255 8255 8250 
8245 8250 8252 8245 8240 8239 8240 8238 8235 8234 8234 8234 8238 8239 8241 8246 8247 8247 8252 8253 8255 8252 8252 8250 8254 8254 8252 8256 8255 8257 8259 8255 8258 8257 8256 8257 8261 8260 8259 8259 8260 8256 8259 8258 8258 8264 8262 8265 8265 8261 8259 8259 8258 8261 8262 8260 8255 8255 8258 8255 8256 8252 8252 8253 8250 8250 8255 8253 8253 8253 8254 8251 8255 8255 8251 8254 8251 8253 8255 8252 
8238 8242 8245 8240 8238 8238 8236 8235 8234 8236 8236 8239 8243 8239 8239 8247 8247 8248 8253 8256 8257 8258 8252 8256 8258 8253 8253 8256 8254 8257 8258 8260 8257 8261 8259 8258 8261 8261 8263 8260 8262 8258 8260 8262 8260 8264 8261 8261 8265 8264 8261 8258 8256 8262 8263 8257 8258 8255 8254 8256 8256 8250 8252 8251 8250 8250 8252 8251 8252 8250 8256 8252 8251 8254 8253 8248 8247 8251 8257 8249 
8240 8241 8242 8237 8235 8238 8237 8234 8239 8236 8243 8238 8241 8243 8243 8246 8251 8249 8255 8256 8255 8254 8254 8255 8256 8257 8254 8254 8257 8256 8261 8260 8260 8260 8261 8258 8258 8258 8262 8261 8262 8258 8260 8263 8264 8263 8262 8262 8265 8263 8260 8258 8257 8262 8260 8258 8257 8256 8253 8255 8256 8252 8250 8250 8251 8251 8253 8252 8252 8251 8254 8255 8250 8250 8250 8249 8245 8251 8254 8250 
8240 8248 8242 8237 8236 8238 8237 8235 8236 8242 8241 8243 8243 8244 8244 8253 8255 8250 8257 8256 8257 8258 8254 8254 8255 8254 8255 8258 8256 8257 8258 8258 8260 8258 8256 8260 8258 8259 8260 8261 8259 8258 8257 8264 8262 8264 8262 8263 8265 8263 8261 8259 8264 8262 8261 8257 8255 8254 8254 8251 8256 8252 8253 8250 8251 8250 8254 8253 8253 8257 8253 8254 8250 8252 8248 8245 8246 8245 8251 8243 
8239 8243 8244 8241 8236 8238 8238 8237 8240 8245 8247 8248 8246 8250 8250 8252 8255 8252 8255 8254 8254 8256 8256 8255 8255 8254 8254 8257 8255 8258 8258 8257 8257 8256 8255 8255 8255 8254 8256 8256 8256 8257 8258 8263 8264 8264 8265 8264 8264 8263 8260 8259 8258 8262 8260 8254 8255 8254 8255 8253 8257 8252 8249 8251 8250 8247 8253 8253 8253 8252 8252 8249 8252 8253 8252 8250 8247 8248 8252 8246 
8237 8242 8244 8239 8240 8242 8241 8239 8246 8247 8250 8247 8249 8250 8253 8258 8257 8252 8259 8257 8255 8257 8255 8252 8258 8255 8253 8256 8258 8259 8258 8256 8257 8253 8255 8255 8256 8256 8256 8255 8255 8255 8258 8262 8262 8264 8265 8264 8263 8261 8261 8259 8257 8260 8261 8255 8251 8254 8255 8253 8256 8252 8247 8251 8248 8251 8252 8255 8252 8252 8251 8248 8248 8250 8249 8251 8252 8253 8258 8249 
8234 8242 8243 8240 8243 8243 8244 8244 8244 8248 8247 8247 8251 8251 8255 8253 8253 8253 8258 8256 8255 8256 8254 8254 8256 8256 8254 8255 8256 8257 8261 8260 8256 8255 8254 8258 8255 8257 8256 8257 8257 8256 8256 8260 8260 8263 8263 8264 8265 8263 8261 8260 8262 8263 8263 8256 8253 8253 8253 8257 8254 8250 8251 8251 8250 8251 8253 8252 8251 8255 8249 8250 8253 8250 8253 8253 8253 8256 8260 8257 
8232 8239 8245 8243 8244 8246 8245 8243 8245 8248 8250 8248 8249 8252 8253 8255 8257 8254 8256 8255 8254 8256 8248 8251 8256 8255 8255 8257 8257 8257 8257 8259 8256 8255 8256 8257 8256 8256 8256 8255 8255 8255 8257 8260 8262 8261 8260 8261 8264 8263 8261 8262 8261 8263 8260 8254 8255 8254 8253 8253 8252 8249 8247 8251 8252 8250 8254 8253 8253 8250 8252 8250 8251 8250 8252 8255 8254 8255 8259 8257 
8238 8243 8246 8246 8244 8246 8248 8245 8247 8248 8249 8247 8254 8252 8256 8255 8261 8256 8255 8254 8253 8252 8252 8251 8251 8254 8254 8256 8257 8257 8257 8256 8255 8259 8255 8258 8259 8256 8258 8256 8258 8255 8257 8260 8261 8262 8260 8262 8259 8263 8260 8259 8259 8256 8258 8254 8254 8252 8254 8253 8256 8250 8247 8252 8251 8253 8254 8251 8251 8253 8250 8249 8250 8251 8252 8254 8254 8253 8261 8258 
8240 8245 8248 8247 8246 8250 8249 8248 8251 8247 8249 8250 8251 8251 8252 8255 8259 8258 8255 8254 8255 8252 8250 8252 8253 8254 8256 8257 8256 8257 8256 8254 8258 8256 8260 8259 8259 8255 8257 8255 8253 8257 8260 8258 8259 8260 8258 8258 8262 8264 8262 8259 8258 8259 8258 8254 8254 8252 8251 8251 8251 8251 8249 8251 8250 8254 8252 8251 8250 8251 8250 8250 8250 8252 8253 8252 8252 8255 8260 8250 
8244 8251 8255 8249 8251 8255 8250 8247 8247 8250 8249 8251 8255 8254 8254 8254 8259 8256 8257 8256 8253 8256 8253 8253 8254 8255 8254 8257 8255 8256 8260 8255 8259 8259 8257 8257 8255 8254 8256 8255 8254 8256 8255 8258 8256 8258 8255 8258 8260 8261 8258 8259 8257 8256 8255 8253 8252 8251 8249 8250 8248 8250 8249 8255 8249 8250 8252 8250 8250 8249 8251 8250 8248 8248 8252 8255 8252 8253 8259 8256 
8245 8250 8251 8249 8251 8252 8250 8252 8253 8253 8249 8252 8253 8255 8253 8255 8259 8253 8256 8257 8254 8256 8256 8255 8258 8254 8256 8257 8256 8257 8258 8258 8258 8259 8255 8257 8258 8253 8254 8255 8253 8253 8254 8255 8255 8254 8254 8256 8259 8259 8259 8258 8257 8256 8253 8253 8251 8249 8249 8250 8251 8251 8252 8255 8255 8250 8251 8249 8251 8249 8251 8250 8252 8251 8252 8255 8254 8255 8259 8254 
8247 8252 8256 8248 8249 8252 8252 8252 8250 8254 8254 8251 8252 8255 8253 8253 8256 8254 8256 8255 8251 8256 8259 8253 8256 8256 8255 8253 8256 8257 8257 8260 8258 8256 8256 8254 8253 8253 8251 8250 8251 8252 8251 8254 8253 8253 8247 8253 8254 8254 8257 8256 8250 8254 8256 8250 8251 8249 8251 8249 8250 8251 8253 8256 8254 8254 8252 8250 8251 8250 8250 8250 8252 8252 8252 8254 8251 8255 8262 8253 
8245 8250 8251 8248 8248 8246 8247 8250 8251 8250 8252 8250 8251 8251 8251 8255 8256 8252 8253 8254 8254 8255 8258 8254 8255 8254 8252 8251 8255 8256 8259 8256 8260 8255 8253 8252 8250 8247 8242 8238 8232 8232 8232 8234 8240 8242 8243 8253 8253 8252 8250 8250 8247 8252 8254 8251 8249 8250 8247 8249 8250 8250 8250 8253 8251 8251 8251 8251 8249 8247 8249 8248 8248 8249 8249 8252 8251 8253 8257 8256 
8243 8249 8249 8249 8247 8247 8245 8246 8245 8249 8252 8252 8251 8249 8251 8255 8255 8254 8251 8252 8253 8256 8255 8252 8256 8252 8252 8254 8254 8253 8255 8254 8256 8252 8251 8248 8238 8224 8220 8216 8216 8218 8221 8221 8220 8223 8224 8232 8246 8248 8250 8247 8246 8251 8253 8249 8251 8253 8248 8250 8250 8251 8250 8251 8251 8250 8251 8249 8250 8247 8247 8246 8246 8246 8248 8248 8251 8254 8256 8252 
8242 8246 8249 8251 8251 8249 8244 8243 8245 8250 8251 8249 8250 8250 8249 8250 8255 8248 8251 8253 8254 8255 8255 8255 8256 8253 8251 8253 8255 8254 8256 8254 8253 8248 8236 8222 8221 8218 8217 8214 8215 8214 8219 8221 8221 8221 8219 8224 8229 8234 8244 8245 8247 8253 8254 8250 8249 8249 8246 8246 8250 8249 8248 8253 8251 8249 8251 8248 8250 8244 8247 8244 8246 8247 8251 8248 8249 8251 8255 8250 
8242 8249 8250 8249 8251 8250 8248 8243 8250 8249 8251 8251 8250 8254 8253 8252 8251 8252 8253 8255 8256 8256 8257 8253 8256 8252 8252 8252 8250 8255 8251 8250 8249 8227 8217 8216 8215 8215 8217 8219 8217 8220 8223 8225 8225 8226 8220 8222 8225 8228 8230 8237 8247 8249 8250 8248 8247 8249 8248 8250 8251 8251 8252 8256 8253 8253 8252 8249 8247 8248 8247 8246 8248 8248 8251 8251 8249 8253 8255 8249 
8242 8245 8251 8248 8250 8251 8249 8247 8250 8252 8252 8251 8250 8253 8252 8250 8250 8253 8254 8255 8255 8256 8256 8254 8252 8253 8251 8252 8252 8251 8250 8243 8225 8219 8211 8211 8214 8215 8220 8223 8227 8229 8232 8236 8235 8231 8227 8223 8226 8224 8230 8233 8237 8244 8247 8246 8246 8247 8248 8251 8251 8248 8249 8253 8251 8251 8248 8249 8247 8249 8247 8244 8246 8245 8246 8249 8249 8252 8256 8252 
8242 8249 8249 8250 8250 8254 8253 8246 8246 8251 8256 8253 8251 8253 8252 8250 8251 8252 8253 8253 8256 8256 8252 8254 8252 8250 8249 8252 8250 8249 8245 8224 8219 8214 8214 8217 8220 8222 8233 8241 8246 8250 8252 8255 8253 8248 8237 8231 8230 8227 8231 8233 8237 8239 8248 8245 8250 8249 8247 8248 8250 8249 8248 8252 8249 8251 8251 8250 8246 8248 8245 8243 8245 8244 8247 8248 8245 8252 8254 8249 
8242 8246 8250 8251 8252 8251 8250 8247 8247 8250 8254 8253 8250 8256 8253 8252 8255 8252 8255 8254 8253 8255 8253 8252 8253 8252 8250 8253 8254 8249 8227 8218 8214 8215 8217 8223 8233 8245 8252 8256 8257 8259 8263 8263 8261 8260 8255 8252 8242 8234 8233 8238 8234 8236 8243 8248 8248 8247 8247 8246 8249 8245 8248 8250 8249 8248 8248 8248 8244 8244 8243 8245 8248 8246 8247 8246 8246 8248 8254 8247 
8247 8244 8249 8250 8251 8251 8253 8249 8253 8254 8255 8254 8253 8254 8250 8254 8253 8252 8255 8253 8253 8254 8254 8253 8253 8253 8252 8251 8251 8236 8220 8216 8215 8219 8228 8243 8253 8256 8260 8259 8262 8263 8262 8266 8263 8261 8257 8259 8260 8248 8238 8235 8236 8233 8236 8244 8248 8248 8245 8247 8245 8244 8247 8246 8249 8248 8248 8246 8244 8243 8245 8242 8244 8247 8246 8247 8247 8249 8254 8248 
8241 8245 8249 8248 8253 8251 8254 8249 8252 8256 8254 8253 8252 8254 8252 8250 8254 8254 8254 8252 8255 8256 8254 8254 8253 8251 8250 8252 8248 8223 8219 8217 8218 8224 8243 8256 8260 8262 8262 8261 8259 8259 8258 8257 8260 8263 8258 8257 8260 8260 8251 8231 8232 8227 8230 8238 8245 8246 8241 8246 8245 8246 8245 8246 8245 8247 8245 8244 8243 8241 8244 8242 8241 8242 8246 8246 8244 8248 8253 8255 
8239 8246 8249 8252 8253 8255 8255 8251 8252 8256 8256 8254 8256 8255 8251 8254 8255 8251 8254 8254 8254 8254 8255 8256 8254 8253 8250 8253 8237 8219 8215 8217 8225 8240 8255 8261 8262 8263 8258 8255 8254 8255 8255 8253 8252 8259 8253 8260 8261 8257 8259 8245 8231 8226 8228 8231 8243 8247 8244 8242 8241 8245 8244 8245 8247 8244 8244 8243 8244 8238 8241 8244 8246 8245 8247 8247 8247 8247 8256 8253 
8240 8245 8250 8252 8255 8255 8253 8251 8256 8252 8256 8250 8253 8252 8248 8252 8253 8253 8253 8254 8251 8256 8253 8256 8256 8252 8253 8254 8226 8218 8217 8218 8232 8249 8256 8262 8262 8256 8256 8256 8256 8250 8257 8258 8256 8253 8255 8256 8264 8260 8260 8254 8242 8231 8229 8231 8241 8245 8243 8242 8242 8243 8242 8244 8247 8244 8245 8244 8240 8244 8241 8242 8243 8245 8245 8250 8246 8250 8252 8253 
8240 8245 8249 8252 8254 8255 8252 8253 8253 8254 8254 8250 8252 8248 8250 8252 8255 8250 8251 8251 8250 8255 8254 8254 8251 8252 8251 8248 8220 8215 8216 8222 8244 8254 8258 8260 8256 8253 8259 8258 8254 8251 8254 8259 8257 8256 8260 8253 8260 8262 8258 8255 8247 8233 8229 8226 8236 8244 8243 8244 8244 8241 8241 8246 8244 8244 8243 8243 8243 8241 8240 8241 8242 8245 8242 8249 8248 8249 8253 8251 
8242 8249 8254 8253 8253 8256 8255 8252 8253 8254 8256 8251 8254 8246 8250 8248 8252 8249 8251 8253 8251 8254 8253 8252 8252 8253 8252 8243 8219 8217 8217 8228 8250 8252 8251 8258 8253 8250 8252 8254 8252 8259 8259 8260 8260 8264 8264 8257 8254 8256 8256 8254 8252 8235 8227 8222 8233 8241 8243 8242 8243 8242 8243 8245 8244 8242 8240 8243 8243 8242 8240 8240 8242 8244 8245 8247 8250 8250 8258 8251 
8241 8251 8256 8252 8255 8255 8253 8250 8253 8256 8256 8251 8250 8250 8251 8248 8249 8252 8253 8253 8251 8254 8253 8252 8252 8250 8250 8239 8219 8215 8217 8236 8252 8250 8254 8251 8252 8256 8255 8256 8261 8265 8267 8265 8263 8263 8263 8256 8222 8240 8260 8256 8258 8242 8228 8222 8231 8241 8243 8245 8244 8245 8242 8241 8242 8240 8241 8239 8241 8240 8242 8243 8244 8245 8247 8244 8249 8249 8254 8250 
8246 8252 8259 8252 8253 8253 8258 8255 8257 8256 8257 8253 8252 8248 8252 8248 8252 8250 8256 8251 8253 8249 8252 8251 8250 8248 8249 8238 8218 8216 8218 8236 8249 8248 8252 8249 8255 8258 8260 8258 8267 8270 8273 8272 8266 8265 8259 8249 8197 8214 8255 8255 8257 8247 8232 8221 8230 8243 8243 8241 8242 8243 8244 8245 8246 8241 8242 8240 8239 8240 8243 8241 8241 8244 8246 8244 8245 8245 8257 8247 
8246 8255 8258 8253 8251 8256 8259 8254 8255 8254 8253 8255 8252 8253 8250 8249 8252 8251 8253 8252 8251 8252 8253 8254 8251 8248 8247 8235 8216 8212 8218 8240 8248 8246 8252 8250 8256 8261 8259 8260 8265 8269 8274 8274 8270 8270 8261 8258 8224 8221 8258 8261 8260 8249 8232 8220 8232 8242 8242 8243 8243 8244 8242 8246 8248 8241 8244 8241 8240 8241 8240 8241 8242 8246 8243 8246 8242 8246 8253 8246 
8251 8258 8261 8255 8252 8257 8260 8256 8255 8252 8257 8257 8256 8256 8249 8245 8253 8251 8252 8251 8251 8253 8255 8251 8251 8248 8248 8236 8216 8214 8218 8238 8248 8248 8254 8255 8254 8256 8259 8260 8260 8265 8273 8275 8276 8271 8265 8260 8220 8227 8258 8258 8261 8250 8232 8224 8236 8242 8243 8242 8245 8244 8244 8245 8246 8243 8241 8241 8241 8240 8241 8241 8242 8243 8246 8247 8242 8240 8250 8245 
8251 8259 8262 8255 8258 8257 8259 8256 8256 8255 8257 8256 8252 8253 8251 8254 8250 8247 8251 8251 8251 8253 8254 8252 8250 8250 8247 8243 8218 8212 8216 8233 8251 8253 8254 8256 8256 8263 8263 8259 8260 8264 8268 8277 8277 8274 8261 8260 8239 8241 8253 8258 8261 8247 8232 8228 8240 8246 8244 8244 8245 8245 8245 8245 8249 8244 8243 8240 8240 8239 8240 8239 8238 8241 8242 8242 8242 8241 8242 8244 
8252 8258 8262 8257 8253 8255 8256 8255 8258 8254 8255 8254 8252 8252 8247 8247 8251 8247 8249 8248 8249 8249 8249 8248 8250 8249 8247 8246 8223 8213 8219 8233 8249 8251 8251 8256 8256 8260 8264 8257 8257 8260 8267 8271 8269 8268 8260 8256 8254 8256 8252 8255 8257 8242 8230 8229 8243 8243 8241 8242 8243 8245 8240 8244 8247 8243 8242 8241 8242 8238 8237 8233 8236 8242 8239 8237 8235 8236 8240 8235 
8250 8259 8261 8255 8252 8255 8260 8251 8253 8257 8257 8253 8250 8251 8249 8246 8248 8247 8251 8252 8249 8249 8249 8250 8250 8247 8250 8248 8232 8217 8215 8228 8253 8249 8248 8253 8251 8254 8257 8256 8259 8261 8260 8263 8262 8261 8261 8259 8255 8251 8253 8256 8254 8237 8229 8236 8244 8244 8244 8242 8242 8243 8242 8243 8243 8243 8240 8241 8240 8236 8235 8236 8236 8236 8238 8239 8235 8236 8237 8236 
8251 8259 8259 8251 8254 8256 8255 8254 8256 8256 8257 8255 8250 8250 8249 8249 8250 8252 8252 8251 8252 8250 8249 8252 8251 8247 8249 8250 8242 8221 8216 8220 8243 8251 8249 8251 8256 8252 8255 8255 8259 8262 8260 8257 8259 8258 8257 8259 8256 8255 8252 8256 8241 8233 8236 8240 8243 8245 8243 8245 8244 8245 8245 8243 8245 8242 8244 8241 8238 8235 8234 8234 8234 8235 8236 8238 8234 8232 8238 8235 
8248 8254 8259 8250 8250 8257 8253 8255 8257 8254 8257 8250 8253 8253 8250 8251 8252 8252 8253 8253 8248 8250 8249 8252 8251 8247 8247 8250 8252 8231 8218 8220 8229 8248 8251 8252 8255 8253 8257 8254 8253 8255 8255 8257 8259 8256 8253 8256 8255 8253 8256 8249 8230 8230 8237 8240 8243 8243 8243 8243 8247 8243 8244 8245 8245 8240 8242 8239 8238 8233 8231 8235 8237 8234 8236 8238 8233 8233 8235 8231 
8245 8254 8252 8249 8248 8251 8252 8253 8255 8255 8257 8255 8253 8254 8251 8251 8252 8252 8252 8251 8249 8250 8247 8249 8248 8249 8247 8250 8247 8245 8228 8216 8222 8235 8250 8253 8255 8254 8259 8256 8252 8257 8256 8256 8257 8254 8251 8255 8256 8255 8252 8236 8227 8235 8246 8245 8243 8245 8243 8246 8248 8247 8243 8244 8245 8241 8241 8239 8235 8235 8233 8234 8235 8234 8235 8237 8231 8230 8235 8235 
8249 8256 8253 8247 8246 8252 8253 8250 8255 8257 8256 8254 8258 8255 8250 8251 8253 8251 8252 8251 8247 8253 8251 8250 8249 8249 8249 8251 8253 8251 8243 8221 8218 8220 8237 8251 8255 8250 8255 8254 8254 8254 8254 8255 8257 8254 8249 8253 8256 8253 8237 8229 8232 8241 8249 8245 8246 8244 8244 8245 8248 8247 8243 8246 8243 8245 8240 8239 8236 8235 8236 8236 8234 8236 8237 8238 8235 8233 8236 8233 
8247 8254 8250 8248 8248 8250 8248 8252 8255 8255 8257 8251 8251 8254 8251 8253 8252 8253 8254 8250 8250 8251 8247 8249 8250 8250 8250 8256 8253 8254 8253 8243 8226 8217 8217 8235 8246 8250 8251 8250 8250 8251 8250 8253 8253 8254 8253 8254 8249 8233 8230 8231 8235 8245 8250 8245 8244 8244 8247 8244 8246 8245 8245 8243 8243 8242 8239 8236 8237 8239 8238 8238 8236 8235 8236 8233 8238 8234 8241 8231 
8252 8251 8252 8251 8250 8252 8251 8253 8253 8251 8254 8253 8254 8253 8252 8254 8253 8254 8254 8250 8251 8254 8251 8252 8251 8253 8252 8254 8258 8259 8257 8254 8248 8228 8220 8220 8223 8234 8249 8254 8253 8251 8253 8255 8252 8252 8248 8238 8231 8229 8231 8235 8239 8247 8254 8247 8245 8247 8244 8244 8245 8242 8246 8243 8242 8238 8238 8239 8235 8237 8237 8236 8236 8237 8237 8239 8236 8233 8235 8233 
8252 8256 8255 8252 8251 8250 8254 8253 8253 8253 8255 8251 8251 8254 8253 8258 8254 8254 8256 8252 8252 8254 8250 8253 8250 8253 8252 8257 8260 8262 8258 8256 8256 8252 8234 8227 8222 8217 8224 8227 8234 8239 8241 8241 8235 8230 8225 8225 8230 8234 8238 8241 8245 8247 8249 8245 8243 8245 8245 8243 8246 8242 8240 8239 8239 8238 8238 8239 8237 8236 8239 8237 8238 8238 8237 8239 8236 8234 8239 8237 
8253 8259 8257 8254 8251 8255 8257 8254 8257 8258 8258 8253 8254 8254 8253 8259 8257 8255 8256 8256 8255 8254 8253 8250 8255 8255 8252 8258 8258 8262 8262 8261 8258 8258 8257 8248 8233 8228 8227 8221 8223 8219 8221 8226 8225 8229 8231 8235 8239 8238 8243 8247 8245 8249 8250 8247 8245 8246 8244 8242 8243 8241 8241 8239 8239 8241 8239 8237 8236 8237 8238 8241 8242 8241 8240 8238 8236 8235 8236 8240 
8250 8252 8256 8249 8245 8254 8253 8252 8255 8254 8259 8255 8255 8255 8256 8256 8254 8256 8257 8256 8250 8251 8252 8255 8256 8253 8252 8256 8256 8262 8260 8262 8265 8261 8261 8258 8251 8243 8238 8234 8235 8234 8235 8232 8234 8237 8236 8239 8247 8247 8246 8250 8247 8248 8250 8244 8244 8244 8243 8241 8242 8241 8236 8238 8237 8237 8239 8235 8239 8239 8239 8239 8242 8239 8240 8242 8236 8235 8239 8232 
8247 8252 8253 8246 8244 8250 8253 8249 8254 8254 8254 8253 8255 8254 8253 8252 8255 8253 8255 8255 8251 8253 8253 8254 8255 8254 8253 8255 8254 8256 8259 8259 8263 8261 8258 8260 8256 8253 8250 8245 8248 8244 8243 8241 8240 8243 8242 8248 8246 8250 8246 8248 8249 8251 8248 8242 8245 8245 8242 8242 8242 8237 8238 8239 8240 8234 8240 8240 8238 8239 8241 8243 8242 8239 8244 8243 8238 8238 8244 8236 
8242 8245 8245 8243 8244 8248 8250 8252 8249 8252 8252 8250 8254 8252 8252 8251 8254 8255 8253 8251 8250 8250 8254 8256 8253 8254 8253 8255 8255 8258 8257 8258 8261 8258 8257 8258 8258 8255 8255 8252 8251 8252 8250 8247 8246 8245 8249 8251 8249 8248 8250 8247 8251 8251 8251 8249 8245 8245 8242 8239 8240 8237 8236 8236 8237 8234 8240 8240 8240 8240 8244 8241 8243 8245 8245 8241 8237 8235 8241 8236 
8243 8242 8245 8241 8241 8247 8247 8247 8249 8250 8249 8249 8251 8251 8252 8252 8251 8251 8250 8250 8251 8255 8254 8251 8251 8254 8254 8253 8256 8255 8257 8258 8259 8256 8255 8256 8254 8254 8254 8253 8250 8252 8250 8250 8248 8251 8247 8251 8250 8249 8248 8246 8250 8253 8252 8248 8245 8242 8241 8242 8237 8238 8234 8235 8236 8233 8241 8240 8238 8238 8240 8238 8243 8241 8240 8240 8238 8235 8238 8234 
8239 8240 8244 8242 8241 8245 8247 8245 8249 8249 8251 8250 8251 8251 8253 8248 8250 8250 8253 8250 8248 8251 8253 8252 8252 8253 8252 8255 8253 8255 8257 8256 8259 8253 8254 8257 8254 8254 8256 8251 8251 8249 8251 8250 8250 8249 8249 8251 8250 8250 8248 8251 8249 8252 8253 8247 8243 8241 8243 8238 8237 8237 8235 8236 8237 8233 8240 8235 8238 8236 8237 8236 8240 8237 8240 8237 8236 8235 8237 8232 
8238 8240 8244 8241 8241 8245 8249 8245 8247 8247 8245 8246 8249 8251 8250 8249 8250 8253 8251 8250 8250 8250 8250 8254 8253 8253 8251 8257 8251 8256 8257 8257 8256 8258 8257 8254 8256 8253 8253 8251 8250 8249 8250 8248 8248 8249 8247 8248 8252 8252 8251 8248 8248 8254 8252 8244 8242 8243 8238 8237 8238 8238 8235 8236 8236 8234 8233 8233 8235 8237 8236 8236 8240 8238 8238 8240 8233 8232 8236 8231 
8233 8242 8245 8239 8242 8245 8244 8245 8243 8246 8244 8245 8249 8249 8250 8247 8251 8250 8251 8251 8249 8252 8250 8252 8252 8251 8249 8251 8253 8254 8253 8254 8257 8255 8255 8256 8253 8255 8252 8252 8250 8249 8250 8250 8250 8248 8247 8250 8251 8251 8251 8248 8248 8252 8253 8246 8245 8241 8238 8239 8241 8239 8236 8237 8235 8234 8237 8234 8233 8238 8239 8236 8236 8237 8235 8234 8232 8229 8226 8225 
8235 8241 8244 8242 8239 8240 8243 8241 8244 8242 8240 8240 8244 8248 8245 8247 8246 8247 8248 8249 8249 8250 8251 8249 8249 8250 8247 8250 8254 8252 8254 8254 8254 8253 8254 8254 8252 8250 8250 8251 8251 8248 8247 8250 8245 8248 8243 8251 8250 8252 8249 8245 8246 8249 8251 8244 8242 8238 8234 8236 8236 8237 8236 8237 8234 8236 8236 8234 8235 8236 8236 8235 8234 8236 8235 8231 8229 8225 8227 8223 
8239 8244 8246 8239 8237 8237 8241 8241 8241 8241 8241 8240 8242 8245 8246 8246 8248 8246 8249 8250 8249 8249 8250 8247 8252 8249 8248 8252 8251 8255 8254 8252 8253 8252 8250 8249 8250 8247 8247 8247 8248 8245 8244 8245 8245 8244 8245 8249 8251 8250 8249 8245 8244 8247 8247 8242 8237 8238 8234 8235 8235 8237 8232 8236 8237 8237 8237 8235 8236 8236 8236 8234 8233 8233 8231 8228 8222 8223 8226 8224 
8240 8242 8242 8236 8236 8238 8239 8241 8240 8239 8239 8237 8239 8243 8245 8244 8246 8249 8248 8249 8247 8245 8246 8247 8249 8248 8249 8249 8251 8253 8255 8252 8255 8251 8248 8247 8246 8243 8244 8244 8244 8241 8238 8237 8244 8244 8241 8245 8247 8246 8244 8242 8241 8246 8246 8243 8238 8236 8238 8237 8237 8236 8234 8238 8236 8235 8236 8236 8235 8234 8239 8233 8233 8230 8231 8227 8223 8218 8224 8218 
8240 8241 8237 8232 8235 8240 8243 8240 8240 8242 8238 8238 8241 8246 8242 8243 8245 8244 8249 8251 8244 8246 8243 8248 8250 8251 8249 8249 8252 8251 8251 8250 8252 8249 8246 8247 8245 8244 8243 8242 8239 8237 8235 8235 8233 8238 8239 8241 8245 8244 8244 8240 8241 8243 8242 8240 8237 8235 8235 8237 8236 8236 8235 8234 8238 8233 8235 8235 8236 8237 8236 8233 8233 8234 8229 8228 8222 8217 8219 8214 
8245 8235 8238 8232 8229 8236 8242 8237 8237 8241 8239 8236 8239 8240 8242 8241 8243 8241 8248 8243 8243 8244 8245 8248 8248 8251 8248 8249 8247 8249 8248 8245 8247 8247 8244 8244 8243 8239 8241 8238 8235 8237 8233 8234 8234 8235 8234 8234 8238 8235 8237 8236 8235 8237 8237 8234 8232 8232 8233 8236 8235 8233 8229 8234 8235 8231 8233 8233 8228 8230 8231 8231 8228 8230 8229 8220 8222 8218 8218 8217 


