P2
80 60
8257
8214 8215 8219 8223 8221 8221 8221 8223 8221 8221 8222 8216 8219 8219 8220 8218 8216 8222 8219 8220 8222 8223 8220 8216 8218 8222 8220 8216 8215 8217 8219 8222 8217 8221 8218 8216 8218 8220 8223 8223 8222 8219 8220 8222 8222 8221 8223 8227 8223 8227 8221 8223 8220 8222 8222 8220 8216 8217 8220 8226 8227 8228 8227 8226 8228 8227 8231 8230 8231 8230 8230 8229 8230 8230 8231 8229 8231 8232 8233 8226 
8214 8214 8220 8220 8220 8221 8224 8220 8220 8221 8221 8218 8216 8219 8219 8218 8216 8222 8221 8221 8221 8222 8220 8217 8216 8218 8217 8217 8221 8218 8218 8219 8220 8220 8219 8214 8218 8218 8225 8223 8223 8220 8219 8219 8220 8222 8222 8223 8228 8229 8224 8221 8222 8221 8222 8219 8220 8219 8221 8224 8226 8229 8230 8227 8229 8229 8229 8230 8231 8230 8231 8234 8231 8229 8231 8231 8231 8234 8230 8227 
8211 8212 8217 8221 8223 8223 8221 8221 8222 8221 8224 8220 8218 8220 8218 8218 8219 8224 8220 8222 8220 8220 8217 8212 8217 8219 8220 8218 8218 8219 8218 8220 8218 8221 8218 8215 8217 8218 8220 8227 8220 8219 8221 8220 8220 8221 8222 8224 8226 8228 8223 8219 8222 8225 8219 8219 8223 8221 8224 8223 8229 8228 8231 8231 8227 8231 8230 8233 8230 8234 8231 8233 8233 8229 8231 8230 8238 8232 8231 8230 
8210 8210 8219 8219 8222 8220 8222 8221 8220 8220 8216 8215 8218 8217 8217 8218 8217 8221 8220 8216 8220 8215 8217 8215 8217 8220 8219 8215 8217 8219 8214 8217 8218 8217 8220 8213 8220 8217 8219 8220 8221 8219 8219 8218 8218 8217 8220 8222 8222 8225 8222 8218 8220 8225 8223 8222 8218 8222 8222 8223 8228 8225 8228 8229 8227 8227 8231 8234 8230 8229 8228 8234 8230 8230 8227 8228 8232 8230 8231 8228 
8214 8208 8218 8220 8220 8220 8221 8219 8218 8215 8217 8213 8216 8214 8216 8214 8216 8218 8217 8220 8216 8215 8213 8210 8213 8218 8218 8214 8214 8219 8216 8216 8216 8216 8213 8212 8216 8215 8218 8220 8218 8217 8216 8213 8215 8216 8216 8219 8220 8222 8218 8219 8217 8221 8222 8218 8221 8221 8222 8227 8227 8228 8225 8225 8225 8227 8228 8231 8230 8230 8228 8232 8228 8225 8229 8227 8228 8229 8227 8230 
8211 8212 8218 8222 8220 8221 8224 8221 8218 8214 8212 8212 8218 8215 8218 8217 8218 8217 8215 8219 8217 8216 8216 8212 8215 8218 8215 8214 8212 8220 8218 8218 8213 8217 8215 8216 8217 8214 8219 8223 8220 8220 8217 8216 8216 8217 8218 8219 8220 8220 8221 8220 8221 8219 8220 8222 8222 8221 8222 8224 8226 8223 8227 8225 8225 8224 8227 8229 8228 8228 8230 8230 8227 8226 8224 8226 8228 8228 8226 8228 
8214 8217 8221 8221 8218 8223 8224 8223 8218 8211 8212 8215 8217 8216 8215 8215 8216 8216 8217 8221 8217 8217 8219 8213 8217 8219 8214 8214 8213 8219 8219 8218 8216 8215 8216 8214 8216 8218 8219 8221 8218 8218 8215 8218 8216 8217 8220 8219 8220 8221 8218 8219 8221 8222 8222 8224 8221 8221 8220 8226 8225 8222 8222 8220 8225 8224 8229 8230 8231 8227 8230 8227 8226 8225 8228 8227 8226 8226 8230 8230 
8219 8217 8222 8221 8220 8220 8222 8221 8219 8213 8217 8218 8219 8213 8219 8216 8216 8217 8218 8221 8219 8219 8219 8211 8217 8220 8214 8214 8215 8217 8219 8220 8216 8218 8217 8214 8215 8215 8219 8220 8219 8217 8219 8216 8218 8221 8217 8220 8217 8221 8221 8221 8221 8223 8223 8222 8223 8223 8221 8223 8227 8223 8222 8223 8224 8225 8231 8231 8230 8229 8228 8229 8228 8229 8227 8230 8230 8227 8226 8226 
8216 8218 8220 8221 8221 8220 8224 8220 8221 8215 8214 8213 8218 8215 8216 8212 8217 8218 8218 8222 8217 8217 8216 8214 8213 8215 8215 8216 8214 8215 8215 8215 8214 8211 8213 8216 8218 8216 8220 8220 8217 8218 8216 8215 8216 8220 8219 8218 8221 8221 8218 8219 8221 8219 8222 8221 8222 8219 8220 8223 8222 8222 8223 8221 8222 8224 8224 8228 8226 8226 8228 8226 8228 8227 8226 8230 8228 8228 8228 8229 
8216 8216 8219 8218 8219 8222 8220 8221 8219 8220 8217 8214 8216 8216 8218 8214 8216 8217 8219 8220 8217 8216 8218 8214 8212 8214 8217 8217 8217 8215 8215 8212 8212 8215 8215 8215 8217 8216 8219 8218 8218 8217 8216 8216 8217 8221 8219 8219 8219 8219 8220 8219 8219 8220 8221 8219 8216 8220 8221 8225 8221 8218 8221 8221 8222 8222 8225 8226 8225 8227 8225 8227 8225 8222 8225 8230 8229 8228 8226 8228 
8218 8219 8222 8220 8221 8221 8222 8222 8221 8216 8214 8216 8218 8215 8216 8216 8216 8218 8215 8219 8218 8215 8218 8213 8212 8215 8216 8217 8217 8217 8215 8214 8213 8216 8214 8214 8217 8215 8218 8219 8215 8214 8217 8215 8217 8221 8218 8218 8219 8221 8220 8221 8222 8223 8222 8218 8219 8221 8221 8223 8223 8223 8220 8221 8223 8224 8227 8225 8225 8226 8224 8224 8222 8223 8223 8228 8226 8226 8225 8224 
8224 8220 8222 8221 8218 8219 8221 8223 8223 8219 8219 8213 8216 8215 8217 8215 8215 8215 8215 8220 8219 8220 8216 8215 8216 8214 8216 8216 8216 8217 8218 8215 8214 8216 8214 8210 8215 8216 8216 8215 8216 8216 8219 8218 8218 8218 8221 8219 8220 8220 8220 8223 8224 8223 8223 8221 8219 8220 8219 8219 8223 8220 8222 8219 8222 8221 8228 8226 8226 8223 8224 8226 8224 8220 8225 8225 8227 8225 8228 8226 
8220 8224 8223 8221 8220 8221 8220 8220 8222 8222 8217 8218 8217 8217 8218 8218 8217 8219 8218 8220 8218 8218 8217 8214 8215 8217 8215 8214 8213 8217 8217 8215 8213 8214 8213 8211 8213 8213 8213 8213 8212 8214 8214 8218 8219 8220 8219 8220 8219 8220 8221 8222 8222 8221 8221 8223 8221 8219 8220 8225 8220 8219 8219 8221 8221 8224 8223 8228 8223 8222 8223 8227 8224 8221 8224 8226 8226 8228 8229 8232 
8220 8223 8225 8227 8224 8222 8224 8223 8221 8224 8220 8219 8216 8219 8224 8218 8220 8222 8220 8224 8221 8219 8219 8211 8213 8218 8214 8217 8214 8216 8220 8212 8213 8215 8212 8212 8216 8214 8211 8211 8212 8217 8219 8215 8219 8218 8218 8219 8221 8219 8220 8224 8221 8225 8222 8222 8221 8219 8222 8222 8222 8223 8223 8222 8224 8221 8227 8225 8223 8225 8223 8222 8224 8222 8222 8225 8228 8227 8228 8230 
8217 8219 8226 8227 8226 8223 8226 8221 8218 8218 8219 8221 8219 8220 8222 8222 8222 8222 8221 8224 8219 8220 8220 8212 8212 8217 8215 8215 8212 8218 8216 8212 8212 8213 8211 8213 8213 8214 8212 8213 8214 8215 8216 8216 8216 8218 8216 8219 8219 8220 8223 8222 8223 8224 8222 8220 8221 8222 8222 8221 8219 8220 8222 8221 8225 8224 8224 8227 8225 8225 8225 8223 8225 8223 8224 8225 8225 8229 8226 8227 
8221 8219 8225 8228 8226 8221 8221 8221 8220 8220 8220 8220 8221 8220 8224 8220 8223 8222 8220 8223 8221 8219 8216 8211 8216 8217 8219 8216 8215 8216 8213 8216 8213 8215 8214 8211 8215 8210 8214 8212 8213 8214 8215 8215 8213 8216 8216 8218 8220 8219 8223 8223 8220 8225 8222 8221 8219 8219 8219 8223 8222 8219 8221 8221 8221 8223 8225 8226 8223 8223 8225 8226 8222 8221 8223 8224 8227 8227 8225 8226 
8222 8219 8223 8224 8223 8220 8221 8221 8221 8222 8223 8220 8223 8221 8222 8220 8221 8224 8223 8221 8221 8220 8217 8213 8213 8216 8216 8217 8215 8217 8217 8214 8216 8218 8216 8212 8215 8212 8214 8215 8212 8212 8215 8214 8215 8214 8217 8216 8219 8220 8221 8221 8224 8224 8220 8220 8219 8219 8220 8221 8223 8220 8219 8224 8223 8226 8226 8227 8226 8224 8225 8223 8224 8224 8227 8225 8227 8228 8224 8223 
8223 8220 8221 8223 8227 8222 8220 8223 8224 8226 8224 8220 8223 8224 8228 8222 8224 8222 8228 8224 8220 8222 8220 8212 8213 8219 8219 8216 8218 8217 8218 8218 8217 8219 8216 8217 8214 8213 8212 8213 8212 8215 8215 8216 8213 8218 8218 8219 8218 8219 8222 8222 8221 8223 8219 8220 8218 8219 8218 8220 8222 8222 8223 8224 8225 8225 8228 8227 8224 8224 8225 8227 8223 8225 8225 8228 8225 8226 8225 8226 
8222 8218 8220 8226 8224 8222 8225 8224 8225 8223 8226 8220 8224 8222 8226 8224 8221 8221 8220 8221 8219 8221 8220 8212 8217 8220 8224 8214 8217 8215 8217 8216 8218 8217 8218 8216 8217 8212 8214 8216 8212 8214 8214 8218 8217 8218 8218 8218 8220 8218 8220 8219 8220 8223 8219 8217 8220 8217 8219 8219 8221 8219 8223 8224 8224 8225 8226 8226 8223 8225 8225 8225 8224 8225 8226 8226 8228 8223 8220 8223 
8222 8217 8221 8220 8223 8223 8223 8224 8223 8221 8225 8223 8224 8222 8222 8224 8220 8224 8221 8219 8216 8221 8223 8215 8217 8216 8221 8217 8217 8215 8216 8216 8217 8218 8217 8216 8217 8214 8213 8214 8212 8212 8215 8216 8215 8216 8215 8219 8217 8219 8219 8218 8222 8220 8219 8219 8217 8220 8217 8217 8218 8221 8224 8225 8226 8223 8224 8228 8223 8223 8223 8225 8225 8226 8226 8227 8222 8222 8218 8214 
8224 8221 8222 8221 8219 8219 8222 8222 8222 8222 8221 8224 8224 8222 8223 8221 8224 8223 8222 8223 8219 8222 8221 8218 8213 8218 8216 8216 8217 8219 8217 8219 8218 8221 8219 8217 8217 8214 8213 8216 8213 8212 8213 8215 8215 8214 8216 8216 8219 8220 8220 8217 8221 8220 8223 8218 8220 8219 8219 8217 8220 8219 8223 8224 8226 8225 8230 8226 8224 8225 8221 8223 8223 8223 8224 8224 8225 8223 8222 8223 
8225 8223 8228 8225 8224 8224 8219 8225 8218 8222 8223 8222 8225 8221 8224 8224 8222 8221 8218 8222 8220 8223 8224 8219 8215 8219 8217 8218 8219 8218 8216 8217 8218 8220 8220 8216 8217 8214 8216 8217 8214 8215 8213 8219 8216 8216 8214 8216 8216 8220 8221 8218 8221 8219 8223 8222 8221 8221 8222 8222 8222 8222 8225 8227 8228 8226 8227 8228 8225 8224 8221 8223 8223 8226 8224 8226 8227 8225 8223 8222 
8227 8225 8228 8227 8229 8223 8219 8219 8220 8223 8225 8223 8224 8222 8222 8222 8220 8220 8220 8222 8221 8226 8226 8219 8219 8217 8221 8220 8220 8220 8218 8217 8219 8221 8220 8215 8217 8219 8217 8217 8215 8217 8215 8216 8216 8215 8215 8217 8220 8218 8221 8221 8220 8223 8221 8222 8220 8223 8219 8220 8223 8222 8225 8226 8229 8224 8229 8226 8226 8223 8226 8225 8225 8225 8227 8223 8227 8226 8224 8223 
8223 8224 8226 8228 8224 8224 8220 8215 8224 8224 8225 8224 8224 8222 8225 8222 8218 8224 8221 8223 8223 8228 8226 8219 8220 8221 8221 8219 8219 8219 8219 8222 8220 8220 8218 8215 8219 8218 8218 8216 8217 8215 8216 8218 8218 8214 8217 8216 8220 8219 8222 8221 8221 8220 8220 8221 8222 8220 8220 8221 8222 8223 8226 8225 8226 8227 8228 8226 8227 8226 8223 8224 8222 8223 8225 8226 8227 8225 8225 8224 
8226 8223 8229 8228 8227 8225 8222 8224 8228 8221 8226 8225 8225 8222 8223 8224 8224 8223 8222 8226 8226 8227 8227 8218 8217 8220 8219 8218 8218 8223 8220 8222 8220 8220 8218 8218 8220 8217 8216 8221 8217 8221 8218 8219 8218 8216 8217 8220 8222 8223 8222 8223 8223 8220 8222 8224 8223 8225 8224 8225 8222 8225 8225 8223 8227 8224 8229 8227 8222 8225 8222 8224 8225 8220 8225 8226 8229 8227 8226 8227 
8222 8221 8227 8231 8228 8223 8223 8220 8221 8225 8224 8225 8226 8225 8227 8224 8224 8226 8225 8226 8225 8225 8225 8217 8215 8219 8221 8220 8222 8222 8220 8224 8224 8223 8220 8218 8219 8217 8217 8222 8218 8222 8222 8223 8220 8218 8217 8218 8223 8226 8223 8221 8223 8224 8222 8223 8225 8223 8226 8229 8226 8224 8226 8225 8228 8228 8228 8227 8225 8223 8225 8225 8225 8224 8225 8224 8225 8226 8226 8226 
8225 8223 8228 8229 8225 8221 8223 8220 8221 8223 8225 8224 8229 8224 8224 8224 8224 8227 8226 8225 8221 8222 8224 8220 8218 8220 8221 8223 8222 8222 8220 8222 8220 8220 8219 8219 8220 8216 8218 8217 8216 8221 8222 8224 8219 8220 8218 8219 8222 8223 8223 8224 8226 8227 8227 8223 8225 8225 8229 8229 8227 8225 8227 8227 8228 8227 8229 8228 8226 8225 8223 8224 8225 8222 8228 8225 8230 8227 8228 8222 
8224 8224 8230 8228 8227 8221 8224 8221 8219 8225 8229 8226 8227 8225 8227 8225 8223 8225 8225 8224 8222 8223 8222 8218 8218 8223 8224 8225 8225 8222 8221 8223 8221 8220 8221 8219 8219 8216 8220 8217 8217 8219 8219 8219 8219 8218 8218 8220 8221 8221 8224 8223 8225 8224 8226 8226 8227 8227 8226 8228 8230 8226 8230 8229 8227 8229 8228 8227 8224 8223 8224 8222 8223 8222 8227 8226 8228 8228 8225 8226 
8225 8223 8227 8228 8226 8229 8225 8227 8228 8227 8229 8227 8229 8225 8229 8226 8224 8224 8225 8225 8222 8221 8224 8221 8219 8222 8227 8225 8226 8223 8221 8222 8221 8222 8219 8218 8219 8219 8218 8219 8218 8217 8220 8220 8218 8220 8221 8217 8223 8221 8223 8223 8227 8224 8226 8226 8227 8224 8227 8226 8228 8226 8227 8229 8229 8227 8227 8227 8222 8221 8224 8226 8224 8223 8224 8225 8227 8231 8222 8226 
8226 8223 8229 8229 8230 8232 8231 8227 8226 8227 8230 8228 8226 8226 8226 8226 8225 8227 8225 8224 8223 8223 8226 8222 8220 8224 8225 8224 8222 8223 8222 8220 8221 8224 8221 8220 8223 8221 8221 8220 8218 8218 8223 8222 8220 8221 8221 8219 8222 8224 8224 8224 8228 8225 8224 8227 8230 8224 8221 8226 8225 8228 8226 8228 8228 8228 8228 8225 8223 8222 8224 8223 8223 8222 8223 8226 8225 8230 8228 8223 
8224 8225 8228 8229 8229 8225 8227 8231 8226 8227 8229 8226 8228 8226 8227 8228 8225 8226 8222 8224 8222 8225 8225 8222 8223 8226 8225 8225 8223 8227 8222 8221 8221 8222 8221 8220 8221 8221 8222 8222 8218 8219 8220 8224 8220 8220 8221 8223 8223 8225 8226 8223 8227 8224 8225 8225 8226 8224 8225 8226 8226 8226 8224 8227 8226 8225 8228 8225 8223 8224 8223 8226 8225 8222 8223 8224 8226 8231 8230 8226 
8227 8225 8231 8229 8229 8227 8225 8230 8231 8226 8227 8225 8225 8226 8228 8228 8226 8224 8224 8226 8225 8229 8225 8222 8224 8226 8227 8226 8227 8224 8224 8227 8223 8222 8219 8221 8221 8221 8223 8221 8220 8220 8222 8224 8224 8222 8222 8222 8225 8225 8226 8223 8223 8228 8224 8224 8224 8224 8220 8225 8225 8225 8223 8224 8225 8225 8225 8226 8223 8221 8222 8228 8225 8224 8224 8226 8228 8229 8226 8229 
8226 8224 8230 8229 8231 8227 8227 8229 8233 8229 8224 8227 8223 8224 8226 8227 8223 8225 8226 8225 8223 8227 8225 8223 8223 8227 8228 8225 8225 8225 8223 8222 8222 8223 8223 8224 8225 8221 8224 8223 8219 8221 8224 8224 8224 8223 8222 8224 8224 8227 8227 8221 8224 8225 8226 8222 8227 8226 8222 8223 8225 8222 8224 8222 8223 8224 8225 8224 8225 8222 8224 8226 8224 8223 8225 8228 8227 8229 8229 8225 
8229 8231 8232 8232 8232 8226 8230 8228 8228 8229 8227 8224 8224 8223 8227 8225 8224 8225 8224 8228 8225 8228 8226 8224 8226 8227 8228 8228 8225 8226 8225 8221 8219 8222 8223 8221 8224 8222 8222 8224 8223 8223 8224 8223 8221 8224 8226 8227 8226 8230 8227 8224 8224 8226 8226 8222 8224 8222 8221 8224 8224 8225 8224 8221 8224 8222 8223 8224 8223 8223 8225 8223 8223 8225 8229 8229 8228 8223 8228 8226 
8232 8228 8233 8234 8231 8228 8230 8231 8232 8229 8229 8227 8229 8224 8228 8220 8225 8226 8226 8228 8228 8227 8227 8222 8223 8228 8225 8226 8225 8224 8223 8219 8220 8223 8224 8223 8223 8224 8224 8222 8222 8226 8222 8225 8226 8226 8228 8226 8228 8232 8229 8224 8225 8222 8224 8224 8225 8222 8222 8222 8224 8224 8224 8223 8226 8222 8224 8225 8223 8222 8225 8224 8227 8223 8226 8228 8228 8226 8228 8223 
8232 8229 8230 8234 8232 8230 8231 8231 8230 8226 8227 8227 8226 8227 8228 8226 8228 8229 8226 8227 8226 8230 8228 8224 8225 8223 8226 8222 8225 8224 8222 8223 8222 8223 8224 8223 8225 8223 8222 8223 8221 8223 8223 8226 8224 8224 8223 8224 8224 8226 8227 8225 8225 8224 8225 8225 8225 8221 8223 8224 8222 8223 8223 8222 8227 8220 8225 8224 8222 8224 8223 8224 8223 8227 8225 8227 8230 8227 8225 8225 
8231 8231 8233 8234 8233 8229 8233 8231 8228 8227 8227 8229 8229 8229 8226 8226 8228 8228 8225 8227 8226 8230 8229 8222 8224 8225 8222 8222 8223 8222 8223 8221 8222 8226 8223 8223 8224 8222 8220 8221 8220 8224 8222 8224 8223 8224 8224 8225 8227 8228 8227 8222 8225 8223 8224 8224 8223 8223 8222 8222 8224 8222 8223 8224 8224 8222 8224 8222 8222 8222 8222 8227 8226 8225 8228 8226 8227 8228 8225 8222 
8232 8233 8235 8233 8232 8232 8233 8229 8229 8227 8233 8232 8229 8226 8227 8226 8226 8225 8228 8229 8226 8230 8230 8225 8225 8228 8227 8225 8226 8226 8221 8223 8225 8224 8223 8225 8223 8219 8223 8223 8221 8224 8223 8227 8224 8226 8225 8223 8225 8226 8225 8223 8225 8225 8226 8226 8224 8223 8222 8223 8227 8221 8222 8222 8224 8222 8226 8222 8221 8223 8224 8224 8227 8227 8227 8227 8229 8227 8225 8223 
8235 8232 8236 8237 8233 8235 8234 8231 8233 8231 8234 8231 8230 8225 8227 8224 8225 8227 8226 8226 8225 8228 8229 8225 8226 8227 8229 8227 8225 8226 8227 8223 8223 8225 8222 8224 8223 8226 8224 8219 8223 8223 8225 8225 8223 8226 8224 8227 8226 8223 8224 8224 8227 8225 8226 8227 8226 8226 8225 8226 8224 8223 8225 8223 8223 8220 8226 8222 8223 8222 8222 8224 8225 8223 8228 8228 8226 8224 8225 8228 
8234 8234 8239 8238 8236 8232 8234 8232 8231 8231 8231 8229 8227 8226 8227 8226 8225 8228 8226 8229 8228 8227 8227 8225 8226 8226 8225 8227 8227 8227 8226 8222 8222 8225 8223 8227 8226 8224 8224 8224 8221 8224 8225 8228 8224 8223 8223 8223 8224 8227 8227 8228 8229 8226 8225 8227 8228 8223 8224 8222 8226 8225 8224 8222 8223 8222 8227 8226 8223 8222 8222 8225 8224 8227 8230 8230 8226 8227 8227 8225 
8232 8234 8240 8235 8237 8232 8232 8233 8232 8230 8230 8227 8228 8226 8229 8224 8223 8227 8229 8231 8226 8230 8227 8226 8226 8230 8229 8227 8227 8226 8227 8226 8225 8223 8222 8225 8227 8223 8224 8224 8222 8226 8226 8228 8225 8224 8225 8223 8227 8229 8229 8228 8231 8229 8230 8226 8227 8224 8226 8224 8224 8222 8222 8223 8226 8223 8225 8224 8221 8221 8221 8223 8224 8225 8229 8230 8226 8224 8224 8228 
8232 8233 8237 8234 8235 8232 8231 8231 8231 8232 8229 8226 8229 8229 8232 8226 8224 8227 8225 8232 8226 8229 8229 8226 8225 8230 8230 8227 8227 8227 8227 8226 8228 8227 8223 8222 8224 8224 8222 8224 8222 8226 8228 8225 8225 8224 8228 8225 8225 8227 8232 8228 8229 8230 8228 8228 8226 8223 8224 8223 8222 8225 8227 8225 8225 8224 8223 8223 8220 8221 8220 8225 8225 8225 8229 8229 8231 8227 8225 8225 
8234 8231 8232 8231 8232 8228 8229 8230 8230 8230 8230 8227 8229 8229 8226 8226 8228 8229 8227 8231 8228 8227 8229 8225 8228 8229 8229 8226 8227 8228 8225 8226 8229 8227 8225 8225 8227 8224 8223 8224 8224 8225 8226 8227 8227 8228 8227 8226 8229 8230 8230 8228 8227 8231 8234 8231 8227 8229 8224 8224 8228 8227 8227 8228 8227 8224 8227 8223 8221 8222 8223 8225 8227 8224 8230 8229 8232 8227 8229 8228 
8234 8230 8233 8230 8230 8230 8227 8231 8230 8231 8229 8226 8231 8230 8227 8224 8228 8229 8227 8230 8225 8226 8227 8226 8225 8228 8227 8229 8228 8225 8226 8228 8226 8227 8226 8224 8225 8222 8224 8223 8224 8228 8225 8230 8229 8229 8229 8226 8229 8230 8229 8226 8225 8229 8231 8231 8227 8226 8224 8227 8226 8227 8232 8228 8226 8226 8227 8224 8223 8222 8224 8228 8226 8226 8229 8230 8229 8227 8225 8228 
8234 8234 8235 8232 8232 8229 8230 8232 8227 8228 8229 8231 8232 8231 8229 8226 8227 8230 8225 8229 8227 8228 8228 8226 8226 8232 8229 8230 8228 8228 8227 8227 8228 8227 8225 8226 8227 8226 8225 8226 8226 8228 8225 8229 8230 8231 8230 8228 8227 8231 8229 8227 8227 8225 8229 8230 8227 8227 8227 8229 8227 8228 8228 8229 8230 8228 8227 8227 8224 8225 8224 8227 8226 8224 8231 8229 8228 8225 8227 8225 
8234 8233 8232 8234 8233 8231 8229 8230 8231 8229 8231 8230 8236 8233 8230 8230 8228 8231 8229 8230 8227 8229 8228 8227 8228 8227 8230 8230 8226 8229 8228 8230 8230 8230 8228 8228 8228 8224 8224 8227 8228 8231 8227 8232 8229 8228 8231 8229 8230 8231 8231 8225 8226 8226 8227 8230 8228 8229 8224 8229 8229 8228 8229 8230 8227 8227 8227 8228 8226 8225 8226 8227 8227 8226 8230 8229 8229 8226 8221 8227 
8234 8234 8232 8234 8234 8230 8233 8232 8230 8232 8233 8232 8233 8231 8231 8232 8230 8234 8228 8231 8228 8229 8232 8228 8226 8227 8229 8231 8230 8229 8228 8226 8227 8231 8229 8227 8225 8225 8226 8228 8226 8230 8231 8228 8231 8230 8231 8228 8229 8230 8232 8226 8231 8227 8229 8229 8227 8228 8225 8225 8227 8227 8229 8228 8231 8227 8229 8228 8226 8227 8223 8227 8231 8227 8229 8226 8228 8226 8225 8222 
8237 8237 8232 8234 8237 8234 8237 8233 8235 8234 8234 8234 8234 8232 8231 8234 8233 8233 8232 8232 8233 8232 8234 8229 8229 8231 8230 8227 8229 8230 8228 8230 8231 8231 8229 8229 8228 8229 8229 8229 8234 8231 8234 8230 8231 8233 8231 8228 8230 8227 8231 8229 8235 8227 8228 8227 8227 8228 8225 8229 8230 8226 8227 8228 8228 8230 8227 8229 8227 8229 8228 8228 8231 8229 8231 8230 8227 8225 8223 8225 
8234 8234 8238 8236 8237 8239 8239 8238 8236 8236 8236 8233 8235 8234 8236 8232 8234 8234 8231 8233 8231 8236 8232 8228 8232 8230 8229 8228 8232 8232 8229 8228 8232 8233 8232 8230 8233 8227 8229 8231 8234 8235 8232 8233 8231 8233 8230 8229 8230 8230 8230 8233 8229 8231 8228 8229 8229 8226 8224 8225 8226 8225 8227 8226 8227 8228 8228 8228 8225 8228 8227 8228 8232 8228 8233 8230 8228 8228 8227 8229 
8235 8233 8238 8237 8240 8238 8239 8236 8235 8235 8235 8237 8238 8236 8237 8233 8233 8234 8233 8235 8231 8232 8231 8229 8231 8230 8234 8230 8230 8230 8230 8236 8232 8232 8232 8233 8234 8232 8229 8234 8232 8237 8233 8232 8231 8232 8229 8229 8229 8233 8231 8231 8229 8231 8230 8228 8227 8229 8224 8225 8227 8226 8223 8226 8225 8227 8228 8231 8228 8229 8229 8233 8231 8232 8232 8229 8227 8226 8224 8228 
8233 8232 8236 8238 8237 8237 8238 8238 8237 8235 8239 8236 8238 8239 8240 8233 8234 8235 8237 8234 8232 8230 8234 8231 8230 8231 8234 8230 8232 8231 8229 8233 8233 8235 8233 8232 8233 8235 8234 8236 8233 8234 8235 8232 8233 8232 8232 8230 8232 8234 8233 8233 8230 8233 8230 8229 8227 8226 8224 8229 8228 8228 8226 8225 8223 8225 8228 8230 8231 8229 8227 8237 8233 8234 8235 8234 8230 8224 8225 8221 
8234 8237 8238 8239 8239 8240 8239 8239 8237 8234 8235 8233 8238 8238 8239 8233 8233 8235 8233 8233 8230 8233 8234 8232 8230 8233 8232 8233 8232 8233 8233 8234 8232 8233 8233 8231 8236 8234 8234 8234 8232 8234 8233 8230 8232 8230 8229 8233 8234 8232 8236 8230 8231 8232 8229 8229 8229 8226 8224 8226 8226 8224 8226 8223 8224 8225 8228 8229 8227 8233 8231 8232 8235 8232 8232 8230 8231 8222 8223 8223 
8236 8234 8235 8241 8239 8239 8239 8241 8241 8237 8236 8234 8238 8237 8238 8234 8235 8235 8235 8234 8233 8235 8236 8231 8233 8235 8230 8231 8230 8233 8233 8233 8233 8234 8230 8234 8237 8234 8235 8235 8234 8234 8233 8234 8233 8233 8231 8233 8234 8236 8234 8231 8231 8232 8230 8230 8229 8229 8225 8228 8230 8226 8228 8224 8225 8225 8228 8229 8226 8229 8230 8234 8234 8229 8233 8224 8227 8222 8223 8215 
8237 8238 8243 8243 8239 8239 8241 8238 8242 8239 8238 8234 8238 8235 8238 8234 8239 8238 8234 8234 8231 8234 8235 8229 8234 8233 8231 8236 8233 8234 8234 8233 8234 8236 8235 8235 8233 8233 8235 8235 8234 8233 8231 8234 8233 8233 8230 8231 8234 8240 8237 8232 8232 8231 8227 8223 8226 8226 8222 8224 8227 8226 8228 8224 8224 8227 8227 8229 8231 8230 8229 8233 8233 8230 8228 8225 8224 8223 8217 8219 
8240 8241 8242 8246 8245 8243 8240 8240 8241 8240 8238 8237 8240 8237 8238 8235 8237 8234 8235 8235 8235 8234 8233 8229 8232 8230 8231 8233 8232 8232 8229 8231 8233 8235 8234 8233 8235 8235 8234 8232 8231 8235 8234 8236 8233 8232 8231 8231 8235 8237 8237 8232 8234 8234 8229 8229 8227 8226 8225 8226 8227 8225 8225 8226 8225 8226 8228 8228 8227 8229 8229 8234 8232 8227 8228 8226 8225 8219 8213 8214 
8248 8243 8245 8245 8243 8241 8241 8239 8239 8242 8242 8234 8239 8239 8236 8234 8237 8235 8232 8235 8233 8236 8232 8228 8230 8226 8226 8231 8231 8233 8228 8230 8233 8233 8234 8233 8233 8236 8231 8233 8231 8232 8234 8235 8231 8230 8233 8231 8236 8236 8233 8233 8232 8228 8228 8228 8227 8223 8225 8225 8223 8222 8224 8226 8225 8225 8228 8227 8227 8227 8227 8233 8229 8228 8226 8224 8220 8214 8212 8211 
8248 8244 8245 8242 8241 8240 8239 8237 8239 8239 8241 8238 8238 8238 8239 8234 8232 8234 8233 8234 8230 8232 8233 8229 8230 8229 8227 8229 8231 8231 8230 8227 8228 8230 8234 8232 8231 8230 8231 8228 8231 8233 8231 8232 8229 8231 8230 8230 8233 8235 8235 8231 8230 8229 8229 8228 8226 8227 8221 8222 8225 8223 8224 8225 8222 8226 8227 8226 8226 8228 8230 8230 8227 8225 8225 8220 8221 8212 8216 8208 
8243 8247 8243 8244 8242 8238 8239 8235 8238 8236 8238 8235 8238 8236 8238 8229 8233 8236 8234 8233 8232 8232 8232 8229 8231 8229 8230 8229 8229 8230 8228 8230 8228 8231 8231 8228 8229 8228 8229 8229 8230 8230 8229 8231 8231 8231 8230 8232 8232 8233 8232 8231 8229 8231 8231 8225 8222 8225 8222 8226 8223 8222 8224 8227 8226 8228 8230 8229 8230 8227 8232 8229 8230 8225 8222 8224 8219 8214 8213 8213 
8252 8240 8243 8244 8238 8232 8238 8238 8236 8236 8236 8232 8236 8238 8237 8229 8231 8233 8234 8236 8233 8235 8233 8227 8233 8230 8235 8232 8230 8230 8230 8227 8227 8231 8228 8228 8231 8229 8229 8230 8228 8235 8230 8228 8229 8230 8231 8232 8232 8235 8233 8230 8229 8231 8229 8230 8229 8226 8228 8226 8232 8223 8226 8230 8228 8229 8233 8237 8235 8232 8232 8234 8229 8230 8225 8222 8221 8214 8210 8212 
8257 8238 8237 8237 8236 8231 8230 8233 8229 8228 8230 8227 8231 8230 8231 8226 8229 8232 8231 8233 8233 8234 8229 8226 8228 8230 8229 8230 8230 8234 8227 8223 8225 8230 8225 8229 8229 8228 8225 8232 8229 8231 8230 8228 8229 8229 8235 8231 8230 8237 8238 8231 8232 8238 8231 8230 8230 8228 8225 8227 8231 8228 8232 8230 8232 8236 8235 8237 8238 8233 8236 8233 8234 8232 8227 8223 8218 8216 8217 8210 


