P2
80 60
8302
8166 8166 8171 8168 8172 8171 8172 8167 8174 8175 8176 8180 8183 8182 8182 8183 8185 8191 8188 8186 8186 8187 8186 8192 8193 8197 8195 8198 8197 8203 8204 8207 8208 8208 8205 8208 8210 8211 8210 8213 8210 8211 8214 8217 8217 8211 8211 8214 8213 8212 8208 8210 8209 8215 8213 8215 8217 8215 8221 8223 8228 8229 8233 8237 8234 8236 8239 8241 8238 8234 8238 8240 8240 8241 8244 8246 8239 8236 8237 8236 
8165 8164 8170 8170 8173 8172 8173 8173 8175 8177 8181 8183 8183 8183 8182 8185 8185 8187 8188 8186 8187 8186 8190 8188 8195 8194 8196 8197 8196 8201 8204 8206 8205 8207 8204 8206 8208 8208 8211 8212 8212 8212 8214 8216 8213 8210 8212 8210 8211 8211 8208 8209 8209 8213 8210 8212 8215 8214 8220 8223 8226 8228 8235 8234 8234 8236 8239 8239 8238 8234 8239 8239 8239 8244 8246 8243 8240 8237 8237 8233 
8165 8164 8171 8169 8168 8172 8173 8173 8175 8179 8178 8180 8182 8183 8181 8186 8183 8186 8188 8186 8188 8188 8191 8193 8194 8195 8191 8195 8194 8196 8202 8202 8205 8205 8204 8205 8207 8208 8209 8211 8211 8211 8213 8213 8216 8209 8211 8209 8207 8209 8207 8208 8211 8213 8211 8211 8212 8212 8220 8224 8225 8227 8232 8234 8233 8234 8239 8238 8237 8234 8234 8239 8238 8240 8243 8240 8238 8239 8235 8229 
8163 8166 8175 8168 8169 8170 8172 8170 8176 8177 8177 8179 8178 8181 8180 8182 8184 8190 8187 8185 8187 8186 8191 8192 8194 8193 8191 8193 8192 8194 8197 8199 8202 8206 8205 8204 8209 8209 8209 8212 8211 8211 8215 8212 8213 8211 8211 8210 8208 8209 8206 8205 8209 8212 8210 8213 8212 8214 8217 8222 8222 8224 8229 8231 8231 8234 8235 8241 8238 8233 8238 8236 8236 8242 8239 8238 8235 8236 8230 8230 
8165 8163 8173 8167 8167 8169 8173 8170 8172 8173 8177 8175 8178 8180 8179 8180 8182 8183 8186 8184 8184 8187 8186 8189 8191 8190 8188 8192 8192 8195 8196 8199 8197 8199 8201 8205 8206 8205 8212 8210 8212 8212 8211 8213 8214 8210 8212 8211 8207 8209 8205 8208 8207 8212 8209 8210 8212 8213 8217 8218 8221 8222 8224 8226 8230 8232 8235 8238 8235 8233 8236 8237 8237 8236 8236 8236 8234 8232 8227 8230 
8162 8162 8170 8164 8168 8168 8171 8169 8173 8172 8172 8175 8175 8178 8177 8177 8181 8184 8184 8187 8187 8184 8186 8185 8190 8188 8186 8191 8187 8196 8196 8198 8198 8199 8197 8204 8206 8207 8211 8211 8209 8213 8212 8211 8213 8210 8210 8211 8205 8205 8209 8203 8207 8210 8206 8209 8209 8211 8213 8217 8219 8220 8223 8228 8229 8231 8234 8235 8235 8234 8235 8236 8238 8238 8232 8231 8230 8229 8225 8228 
8163 8160 8167 8165 8165 8167 8168 8167 8169 8170 8168 8173 8173 8172 8173 8176 8182 8183 8184 8182 8186 8186 8187 8185 8187 8188 8185 8187 8189 8191 8195 8195 8196 8197 8195 8199 8202 8204 8209 8208 8208 8211 8210 8209 8207 8207 8205 8207 8202 8204 8204 8203 8204 8208 8208 8206 8209 8213 8212 8215 8215 8219 8223 8225 8228 8229 8229 8233 8232 8232 8233 8236 8232 8233 8229 8226 8225 8227 8221 8222 
8161 8157 8164 8163 8165 8167 8168 8166 8167 8166 8167 8169 8171 8171 8173 8175 8180 8181 8185 8185 8185 8183 8183 8185 8184 8185 8186 8188 8189 8191 8194 8196 8196 8195 8197 8200 8202 8203 8207 8206 8207 8209 8209 8207 8208 8205 8204 8204 8205 8203 8202 8203 8206 8211 8207 8205 8205 8206 8211 8212 8216 8220 8222 8225 8226 8228 8229 8229 8229 8228 8231 8231 8231 8230 8229 8226 8223 8226 8219 8219 
8159 8156 8165 8163 8163 8164 8165 8163 8161 8163 8165 8169 8169 8169 8173 8173 8177 8177 8180 8179 8181 8180 8188 8186 8186 8184 8185 8187 8187 8191 8193 8194 8194 8197 8196 8195 8200 8199 8203 8205 8206 8206 8207 8207 8206 8204 8203 8202 8201 8202 8198 8201 8205 8206 8203 8204 8205 8204 8209 8215 8215 8217 8219 8225 8224 8223 8225 8226 8227 8224 8226 8227 8227 8227 8223 8220 8222 8221 8217 8215 
8155 8154 8157 8163 8162 8165 8161 8159 8163 8161 8166 8169 8169 8170 8170 8174 8174 8178 8179 8177 8181 8183 8179 8186 8184 8185 8187 8186 8185 8190 8196 8195 8193 8194 8195 8193 8198 8199 8202 8206 8205 8207 8207 8207 8205 8202 8202 8201 8199 8201 8197 8200 8204 8203 8202 8202 8202 8203 8209 8213 8212 8214 8218 8220 8219 8223 8224 8224 8222 8222 8225 8225 8226 8222 8223 8221 8221 8219 8215 8214 
8157 8153 8161 8159 8163 8162 8162 8163 8163 8163 8161 8167 8170 8169 8170 8172 8172 8175 8177 8176 8177 8178 8179 8180 8183 8184 8181 8185 8187 8188 8191 8193 8196 8192 8194 8194 8199 8197 8203 8201 8203 8204 8204 8207 8206 8201 8203 8202 8196 8203 8197 8199 8202 8200 8199 8202 8202 8201 8206 8209 8213 8210 8213 8218 8221 8218 8219 8220 8219 8219 8225 8220 8223 8220 8220 8221 8222 8218 8214 8211 
8153 8152 8159 8157 8160 8157 8161 8157 8162 8160 8161 8162 8166 8167 8167 8171 8171 8177 8174 8174 8175 8181 8182 8182 8182 8183 8182 8183 8183 8187 8190 8189 8193 8191 8194 8194 8194 8196 8198 8200 8199 8201 8203 8204 8204 8201 8201 8199 8196 8199 8196 8194 8200 8201 8199 8200 8201 8199 8206 8207 8208 8207 8212 8215 8218 8219 8216 8218 8218 8216 8219 8218 8220 8219 8219 8219 8215 8216 8214 8210 
8156 8154 8158 8155 8153 8156 8159 8160 8160 8163 8162 8166 8166 8170 8167 8169 8171 8175 8177 8175 8176 8177 8180 8179 8183 8181 8180 8183 8185 8186 8190 8189 8190 8189 8188 8189 8193 8192 8195 8197 8195 8201 8200 8203 8200 8199 8200 8198 8199 8198 8199 8198 8198 8202 8200 8200 8199 8200 8203 8204 8207 8206 8213 8215 8214 8216 8214 8217 8212 8212 8217 8215 8216 8217 8216 8215 8216 8213 8216 8210 
8153 8151 8159 8156 8157 8157 8158 8158 8160 8163 8162 8167 8167 8169 8172 8168 8172 8173 8176 8176 8179 8175 8178 8179 8181 8182 8181 8183 8183 8188 8189 8189 8189 8185 8186 8190 8191 8191 8194 8197 8197 8199 8201 8201 8202 8197 8198 8199 8197 8197 8194 8198 8199 8200 8197 8196 8196 8197 8199 8202 8204 8204 8210 8213 8211 8214 8212 8214 8214 8211 8212 8212 8212 8214 8211 8215 8215 8213 8210 8210 
8152 8153 8156 8154 8155 8155 8158 8158 8159 8161 8164 8165 8166 8167 8168 8170 8171 8176 8175 8175 8178 8177 8178 8181 8182 8182 8179 8184 8185 8186 8187 8189 8187 8188 8187 8188 8190 8192 8195 8196 8196 8196 8199 8200 8200 8200 8199 8200 8196 8198 8195 8196 8198 8199 8195 8194 8197 8196 8196 8198 8200 8205 8208 8210 8208 8212 8212 8212 8212 8207 8211 8207 8211 8213 8210 8214 8214 8212 8209 8211 
8151 8151 8157 8155 8155 8158 8161 8158 8158 8162 8163 8170 8169 8169 8170 8170 8172 8174 8175 8174 8176 8176 8176 8182 8179 8181 8180 8185 8184 8189 8185 8190 8187 8186 8186 8187 8192 8188 8191 8197 8196 8197 8197 8198 8201 8196 8197 8196 8194 8195 8194 8195 8195 8199 8195 8194 8196 8193 8195 8199 8198 8204 8204 8207 8208 8209 8208 8211 8207 8208 8210 8210 8210 8210 8211 8211 8211 8213 8208 8206 
8153 8149 8156 8156 8158 8157 8158 8159 8159 8162 8163 8168 8169 8172 8171 8171 8173 8176 8177 8178 8180 8174 8178 8183 8185 8182 8182 8181 8182 8184 8187 8187 8186 8187 8186 8185 8189 8189 8191 8193 8194 8195 8198 8198 8198 8194 8195 8195 8194 8193 8190 8191 8195 8196 8195 8193 8194 8192 8196 8195 8200 8202 8203 8207 8207 8208 8207 8209 8208 8203 8207 8208 8209 8212 8211 8211 8210 8213 8209 8207 
8153 8154 8158 8154 8156 8158 8162 8158 8164 8164 8163 8169 8173 8173 8171 8170 8174 8177 8179 8175 8179 8177 8178 8181 8183 8182 8179 8182 8184 8187 8189 8187 8189 8183 8186 8185 8187 8188 8190 8188 8193 8192 8198 8197 8195 8194 8193 8192 8191 8192 8191 8188 8193 8194 8193 8192 8191 8190 8194 8192 8197 8198 8202 8205 8207 8205 8205 8210 8206 8203 8207 8207 8207 8208 8208 8207 8209 8209 8207 8205 
8154 8154 8158 8155 8157 8158 8158 8160 8163 8164 8166 8170 8173 8171 8172 8175 8176 8177 8174 8175 8176 8176 8180 8183 8180 8180 8183 8183 8182 8185 8187 8187 8188 8184 8185 8185 8184 8184 8187 8189 8188 8191 8192 8194 8195 8193 8192 8192 8190 8191 8188 8188 8194 8192 8193 8190 8189 8192 8192 8193 8196 8196 8202 8202 8204 8205 8204 8209 8207 8203 8204 8205 8207 8206 8207 8208 8209 8206 8201 8204 
8151 8150 8158 8158 8155 8159 8162 8158 8165 8165 8165 8170 8169 8171 8171 8174 8178 8179 8176 8175 8180 8176 8180 8182 8183 8180 8178 8183 8179 8186 8187 8185 8189 8187 8182 8184 8187 8182 8186 8189 8188 8188 8192 8192 8194 8191 8192 8189 8188 8190 8188 8188 8187 8189 8189 8186 8191 8190 8191 8191 8196 8198 8204 8203 8202 8204 8202 8206 8207 8202 8202 8203 8205 8206 8207 8205 8207 8204 8201 8203 
8151 8153 8159 8157 8157 8161 8162 8161 8164 8167 8168 8170 8174 8171 8172 8172 8173 8182 8178 8178 8181 8180 8180 8181 8182 8180 8177 8181 8182 8184 8187 8188 8187 8184 8182 8182 8183 8183 8186 8188 8187 8187 8189 8194 8192 8191 8192 8192 8188 8191 8189 8188 8186 8189 8188 8189 8187 8192 8190 8192 8193 8196 8200 8203 8203 8203 8203 8203 8204 8204 8200 8202 8203 8203 8208 8205 8205 8204 8202 8200 
8152 8152 8160 8156 8160 8161 8164 8160 8161 8164 8165 8168 8168 8170 8171 8169 8171 8178 8176 8176 8179 8179 8180 8182 8182 8180 8179 8183 8181 8183 8186 8185 8186 8181 8181 8182 8184 8180 8186 8187 8186 8187 8190 8191 8189 8190 8189 8189 8186 8189 8186 8185 8190 8189 8187 8188 8189 8187 8191 8190 8193 8197 8201 8200 8204 8201 8201 8205 8202 8201 8199 8200 8205 8203 8203 8207 8206 8203 8206 8202 
8153 8154 8161 8162 8160 8161 8161 8159 8161 8164 8169 8173 8171 8173 8173 8175 8175 8173 8175 8177 8179 8177 8177 8176 8178 8179 8179 8181 8179 8183 8184 8186 8185 8182 8182 8181 8183 8182 8183 8187 8185 8188 8188 8191 8189 8190 8188 8188 8184 8187 8185 8186 8186 8187 8187 8186 8187 8186 8190 8191 8197 8197 8200 8201 8202 8201 8202 8203 8202 8197 8201 8202 8202 8205 8199 8203 8200 8203 8203 8203 
8154 8154 8162 8160 8160 8161 8161 8161 8161 8165 8166 8171 8171 8173 8174 8175 8173 8175 8176 8177 8176 8179 8176 8177 8177 8180 8179 8180 8177 8182 8186 8187 8184 8184 8181 8183 8185 8180 8185 8183 8186 8184 8186 8188 8187 8186 8187 8186 8184 8183 8184 8186 8187 8187 8185 8185 8184 8187 8190 8192 8194 8194 8200 8197 8201 8199 8200 8203 8199 8199 8201 8199 8200 8199 8198 8204 8201 8199 8198 8199 
8157 8157 8164 8158 8159 8158 8164 8160 8162 8168 8168 8170 8173 8172 8171 8175 8177 8176 8177 8175 8179 8178 8178 8177 8177 8176 8178 8180 8178 8184 8183 8185 8185 8182 8182 8180 8185 8179 8185 8183 8183 8186 8183 8184 8188 8186 8184 8187 8182 8184 8184 8186 8187 8190 8185 8185 8186 8185 8190 8190 8192 8197 8198 8198 8198 8197 8197 8201 8200 8197 8198 8197 8196 8196 8196 8197 8197 8195 8197 8199 
8156 8155 8164 8162 8160 8158 8163 8163 8164 8166 8168 8170 8174 8174 8172 8174 8174 8181 8179 8177 8180 8178 8178 8175 8176 8179 8177 8180 8178 8183 8185 8184 8182 8185 8183 8181 8182 8177 8183 8184 8184 8183 8182 8189 8180 8182 8180 8181 8181 8187 8183 8185 8186 8190 8187 8185 8187 8187 8190 8192 8192 8189 8195 8196 8193 8196 8195 8197 8195 8193 8199 8198 8197 8196 8195 8198 8196 8199 8197 8199 
8153 8156 8162 8160 8160 8163 8165 8162 8164 8167 8169 8170 8173 8176 8175 8174 8176 8176 8177 8175 8175 8173 8176 8175 8177 8176 8178 8180 8181 8185 8186 8181 8182 8183 8182 8182 8179 8175 8180 8182 8181 8180 8171 8157 8161 8150 8157 8179 8181 8184 8182 8182 8187 8187 8188 8186 8190 8189 8187 8184 8185 8183 8186 8190 8190 8190 8190 8191 8194 8192 8193 8189 8190 8193 8192 8196 8197 8193 8194 8195 
8156 8155 8158 8158 8159 8164 8166 8160 8164 8166 8168 8172 8172 8172 8173 8175 8179 8178 8176 8174 8173 8173 8174 8174 8176 8177 8176 8179 8182 8183 8184 8186 8184 8182 8180 8179 8168 8142 8139 8144 8164 8149 8110 8103 8095 8109 8153 8181 8180 8184 8182 8182 8185 8187 8189 8188 8187 8189 8183 8174 8182 8183 8184 8187 8187 8186 8184 8185 8186 8184 8189 8188 8188 8188 8187 8194 8198 8192 8192 8193 
8158 8156 8163 8162 8162 8165 8166 8162 8168 8168 8172 8172 8174 8174 8172 8178 8177 8177 8179 8175 8173 8174 8177 8175 8180 8179 8177 8180 8181 8186 8185 8188 8186 8182 8180 8175 8134 8102 8115 8100 8110 8148 8148 8122 8137 8155 8180 8180 8179 8183 8181 8186 8188 8188 8187 8188 8187 8188 8176 8169 8180 8182 8183 8186 8183 8184 8184 8185 8183 8182 8184 8186 8183 8186 8190 8189 8190 8190 8189 8188 
8155 8158 8163 8163 8166 8164 8167 8168 8169 8170 8168 8173 8173 8175 8176 8175 8173 8176 8176 8173 8172 8171 8176 8180 8180 8179 8175 8179 8179 8182 8185 8183 8181 8179 8177 8133 8123 8164 8168 8157 8152 8120 8138 8146 8177 8179 8181 8182 8179 8181 8181 8185 8187 8188 8187 8187 8189 8183 8168 8177 8179 8182 8184 8182 8183 8180 8182 8182 8177 8179 8183 8183 8182 8182 8185 8188 8188 8187 8188 8188 
8162 8160 8164 8163 8165 8162 8163 8163 8167 8171 8173 8175 8175 8172 8172 8174 8174 8175 8174 8173 8173 8172 8177 8181 8182 8179 8179 8180 8180 8181 8182 8183 8179 8179 8177 8142 8174 8174 8178 8172 8173 8151 8158 8161 8178 8177 8165 8148 8139 8148 8169 8178 8186 8186 8186 8185 8185 8173 8175 8181 8182 8182 8181 8184 8182 8180 8182 8182 8181 8177 8179 8179 8183 8182 8182 8184 8185 8188 8184 8184 
8161 8159 8166 8162 8164 8166 8166 8165 8169 8172 8174 8176 8175 8174 8174 8172 8174 8178 8177 8175 8175 8171 8176 8180 8180 8178 8177 8179 8181 8180 8183 8184 8180 8178 8173 8174 8177 8174 8172 8172 8176 8173 8143 8155 8139 8109 8108 8122 8115 8117 8121 8126 8167 8185 8189 8187 8180 8171 8182 8182 8182 8184 8183 8182 8181 8183 8182 8182 8181 8176 8180 8180 8182 8182 8181 8182 8185 8183 8184 8184 
8161 8163 8166 8164 8164 8165 8166 8164 8171 8172 8172 8174 8174 8174 8174 8174 8177 8177 8178 8175 8175 8174 8177 8179 8178 8179 8178 8179 8178 8181 8183 8183 8180 8178 8177 8177 8177 8173 8172 8176 8176 8176 8150 8111 8100 8127 8169 8178 8174 8181 8178 8166 8146 8178 8187 8187 8174 8181 8182 8184 8183 8185 8182 8186 8186 8184 8184 8185 8182 8180 8183 8179 8182 8184 8187 8184 8187 8186 8184 8186 
8164 8163 8169 8166 8165 8169 8167 8172 8172 8176 8173 8176 8177 8177 8177 8174 8176 8176 8178 8174 8175 8174 8178 8178 8179 8181 8179 8178 8181 8183 8182 8183 8180 8179 8176 8177 8175 8171 8172 8168 8174 8175 8158 8147 8142 8172 8183 8182 8183 8185 8185 8185 8185 8185 8185 8175 8178 8185 8182 8184 8179 8185 8183 8184 8185 8185 8187 8187 8184 8180 8183 8181 8183 8183 8188 8184 8187 8184 8180 8185 
8163 8164 8174 8166 8167 8170 8169 8170 8175 8173 8174 8175 8176 8177 8175 8176 8176 8176 8175 8176 8176 8177 8178 8179 8178 8181 8176 8178 8178 8181 8178 8177 8178 8177 8175 8174 8173 8164 8139 8116 8139 8130 8117 8140 8158 8176 8178 8182 8183 8185 8183 8184 8188 8189 8180 8172 8183 8184 8184 8185 8182 8181 8183 8184 8186 8185 8185 8187 8183 8182 8187 8183 8185 8186 8186 8188 8188 8184 8180 8178 
8166 8165 8174 8170 8173 8170 8175 8171 8173 8176 8175 8175 8175 8175 8177 8177 8179 8180 8179 8178 8177 8178 8178 8178 8181 8180 8177 8176 8175 8178 8181 8179 8175 8175 8175 8172 8161 8126 8113 8087 8096 8097 8101 8119 8154 8177 8181 8183 8184 8186 8185 8185 8188 8190 8175 8180 8188 8187 8184 8186 8186 8184 8185 8185 8183 8184 8186 8186 8186 8184 8187 8184 8187 8188 8185 8187 8186 8185 8180 8183 
8165 8165 8169 8173 8169 8170 8175 8170 8175 8178 8175 8176 8177 8174 8176 8175 8179 8178 8176 8175 8178 8176 8178 8181 8179 8180 8173 8177 8176 8178 8180 8175 8170 8171 8170 8168 8144 8126 8095 8099 8103 8104 8108 8110 8153 8176 8180 8184 8184 8184 8183 8184 8186 8180 8176 8185 8189 8187 8185 8184 8187 8181 8183 8182 8181 8183 8184 8186 8186 8184 8185 8185 8184 8183 8186 8185 8184 8186 8182 8183 
8167 8169 8173 8173 8172 8174 8174 8173 8177 8177 8174 8176 8174 8173 8173 8177 8177 8178 8177 8176 8174 8176 8175 8177 8177 8178 8176 8177 8174 8175 8175 8169 8158 8151 8146 8141 8151 8120 8130 8127 8095 8094 8129 8102 8134 8175 8180 8182 8183 8184 8184 8184 8179 8172 8184 8187 8189 8186 8185 8184 8185 8182 8182 8183 8184 8183 8183 8184 8185 8183 8184 8181 8186 8186 8187 8189 8186 8188 8182 8183 
8169 8172 8176 8175 8174 8175 8177 8176 8175 8174 8174 8171 8172 8174 8173 8174 8175 8174 8176 8173 8177 8174 8175 8177 8180 8177 8177 8179 8178 8178 8167 8135 8112 8119 8128 8119 8124 8118 8107 8104 8082 8083 8103 8099 8096 8136 8177 8184 8184 8187 8184 8183 8174 8182 8186 8187 8190 8187 8185 8185 8186 8184 8185 8185 8184 8184 8181 8184 8182 8179 8183 8188 8189 8187 8188 8190 8189 8187 8180 8182 
8173 8174 8177 8177 8177 8174 8176 8176 8175 8173 8172 8171 8175 8174 8174 8172 8175 8176 8175 8175 8178 8176 8176 8178 8175 8178 8176 8179 8178 8175 8149 8106 8104 8109 8105 8123 8122 8117 8099 8089 8087 8083 8099 8096 8092 8099 8161 8183 8183 8190 8182 8176 8178 8188 8187 8188 8189 8190 8186 8186 8185 8184 8184 8186 8182 8182 8183 8183 8182 8179 8184 8185 8187 8188 8190 8189 8189 8188 8181 8183 
8173 8172 8176 8176 8176 8176 8175 8171 8174 8172 8171 8170 8172 8173 8174 8171 8175 8175 8174 8173 8173 8175 8175 8178 8181 8181 8177 8181 8176 8178 8161 8107 8114 8113 8146 8155 8153 8139 8101 8093 8091 8096 8093 8096 8094 8094 8130 8179 8182 8187 8178 8173 8185 8192 8188 8188 8188 8189 8185 8189 8184 8185 8185 8187 8183 8182 8183 8183 8184 8185 8187 8188 8188 8189 8192 8189 8189 8187 8183 8184 
8173 8168 8176 8178 8175 8171 8171 8170 8174 8171 8171 8172 8172 8172 8171 8171 8172 8176 8173 8171 8175 8172 8174 8179 8184 8194 8199 8201 8200 8200 8149 8116 8119 8115 8157 8192 8198 8183 8112 8107 8117 8148 8103 8093 8101 8139 8123 8161 8181 8187 8178 8180 8189 8190 8188 8192 8192 8188 8188 8182 8187 8183 8185 8186 8182 8184 8181 8183 8185 8186 8189 8189 8187 8190 8189 8186 8188 8184 8184 8185 
8171 8173 8178 8175 8172 8172 8172 8168 8171 8170 8170 8174 8174 8174 8171 8174 8171 8176 8173 8172 8172 8174 8175 8177 8192 8217 8217 8217 8213 8209 8170 8145 8135 8130 8154 8202 8200 8187 8141 8142 8173 8178 8106 8096 8090 8114 8138 8159 8181 8180 8176 8180 8184 8193 8193 8193 8193 8194 8187 8187 8188 8184 8185 8184 8183 8184 8181 8185 8185 8183 8184 8189 8189 8191 8192 8187 8189 8186 8188 8184 
8170 8172 8179 8174 8171 8171 8169 8169 8171 8171 8170 8170 8173 8172 8172 8171 8169 8174 8174 8171 8173 8172 8173 8175 8183 8217 8225 8231 8231 8231 8224 8178 8190 8201 8204 8208 8212 8202 8194 8158 8188 8187 8113 8102 8092 8123 8118 8131 8158 8180 8177 8177 8184 8192 8195 8196 8203 8200 8187 8189 8189 8185 8185 8186 8184 8184 8182 8188 8184 8183 8183 8186 8188 8192 8192 8189 8190 8189 8184 8188 
8171 8171 8180 8175 8169 8173 8169 8171 8172 8171 8170 8172 8173 8172 8169 8171 8173 8173 8176 8174 8176 8172 8170 8176 8181 8212 8224 8229 8233 8237 8240 8239 8241 8238 8238 8241 8241 8237 8237 8221 8224 8223 8189 8184 8187 8204 8193 8195 8202 8211 8208 8211 8219 8221 8209 8204 8213 8195 8188 8190 8188 8185 8183 8182 8183 8185 8182 8184 8182 8183 8184 8189 8187 8188 8188 8189 8188 8190 8189 8184 
8172 8172 8175 8172 8173 8172 8171 8170 8171 8170 8171 8170 8169 8172 8169 8171 8173 8175 8170 8171 8171 8172 8175 8174 8178 8215 8227 8231 8235 8240 8240 8244 8242 8241 8238 8238 8242 8239 8247 8244 8246 8245 8248 8249 8252 8252 8253 8251 8243 8239 8231 8236 8237 8227 8207 8204 8206 8192 8190 8188 8187 8183 8184 8187 8185 8186 8182 8184 8186 8182 8185 8186 8189 8188 8188 8189 8189 8190 8184 8186 
8171 8171 8174 8171 8171 8171 8170 8171 8171 8170 8166 8169 8172 8170 8168 8170 8173 8170 8168 8170 8171 8170 8175 8174 8176 8200 8235 8241 8241 8244 8239 8245 8246 8251 8243 8242 8240 8240 8247 8252 8249 8247 8246 8246 8245 8240 8246 8243 8242 8238 8236 8237 8238 8221 8198 8200 8200 8192 8189 8189 8186 8187 8185 8187 8185 8185 8181 8182 8184 8179 8186 8185 8187 8189 8188 8189 8187 8187 8189 8183 
8170 8169 8174 8167 8168 8169 8167 8167 8172 8168 8166 8171 8172 8171 8167 8172 8169 8171 8171 8167 8171 8172 8171 8175 8175 8177 8198 8233 8243 8246 8238 8243 8246 8252 8252 8247 8239 8243 8250 8250 8255 8243 8237 8240 8234 8223 8237 8237 8236 8236 8241 8244 8239 8215 8192 8196 8197 8191 8187 8188 8185 8187 8187 8187 8184 8180 8182 8182 8183 8179 8186 8183 8187 8187 8187 8185 8187 8185 8187 8185 
8172 8171 8172 8169 8168 8169 8169 8168 8170 8168 8166 8170 8172 8169 8169 8169 8169 8173 8168 8169 8173 8169 8172 8172 8173 8172 8184 8208 8220 8236 8238 8237 8238 8245 8242 8243 8241 8243 8249 8252 8251 8244 8240 8235 8234 8227 8231 8228 8222 8232 8241 8236 8217 8197 8192 8194 8191 8188 8187 8190 8186 8185 8185 8186 8181 8179 8180 8182 8180 8177 8184 8187 8187 8190 8188 8185 8186 8187 8185 8183 
8168 8167 8173 8169 8167 8169 8169 8166 8169 8169 8169 8171 8170 8167 8167 8167 8169 8172 8171 8168 8171 8172 8170 8174 8171 8174 8175 8188 8200 8212 8219 8216 8222 8221 8225 8227 8232 8234 8239 8240 8240 8240 8238 8237 8234 8230 8229 8224 8216 8221 8214 8196 8184 8187 8190 8192 8190 8191 8187 8188 8185 8185 8184 8186 8181 8180 8179 8181 8180 8178 8182 8185 8184 8188 8186 8186 8186 8187 8183 8186 
8167 8167 8172 8170 8170 8170 8171 8169 8170 8171 8169 8167 8167 8168 8165 8167 8170 8172 8170 8173 8171 8169 8173 8173 8173 8174 8173 8175 8183 8195 8199 8199 8205 8205 8207 8211 8217 8221 8224 8224 8227 8225 8225 8223 8222 8218 8215 8209 8201 8203 8195 8190 8183 8185 8186 8191 8191 8189 8187 8191 8189 8188 8185 8189 8183 8177 8182 8181 8180 8179 8184 8181 8185 8188 8187 8186 8186 8186 8183 8186 
8165 8164 8171 8169 8167 8169 8168 8172 8170 8167 8167 8170 8168 8166 8165 8165 8167 8169 8169 8168 8172 8171 8170 8174 8171 8170 8173 8167 8173 8181 8181 8188 8193 8194 8193 8194 8203 8206 8208 8211 8210 8210 8209 8211 8206 8207 8200 8197 8199 8193 8187 8188 8183 8179 8182 8192 8195 8191 8193 8188 8188 8187 8186 8186 8183 8182 8179 8179 8182 8179 8181 8181 8185 8185 8188 8186 8185 8182 8183 8180 
8163 8168 8172 8166 8168 8167 8171 8168 8169 8166 8166 8166 8167 8164 8163 8165 8169 8170 8167 8168 8174 8171 8170 8172 8172 8170 8172 8161 8165 8169 8174 8178 8180 8180 8179 8182 8186 8188 8193 8197 8199 8197 8199 8204 8197 8195 8192 8191 8189 8188 8185 8186 8181 8176 8182 8191 8195 8193 8191 8191 8188 8189 8184 8184 8181 8181 8176 8177 8175 8180 8178 8179 8180 8185 8185 8186 8185 8182 8179 8176 
8166 8164 8172 8169 8167 8166 8169 8165 8166 8165 8163 8164 8165 8161 8158 8163 8169 8174 8172 8168 8172 8170 8171 8172 8170 8171 8171 8158 8153 8158 8167 8169 8170 8169 8170 8172 8176 8175 8181 8185 8188 8191 8193 8194 8190 8187 8187 8186 8182 8186 8187 8185 8177 8174 8182 8191 8196 8193 8191 8189 8186 8189 8184 8185 8180 8178 8174 8179 8176 8172 8178 8175 8178 8183 8185 8184 8180 8181 8178 8177 
8170 8166 8170 8171 8165 8167 8167 8164 8168 8164 8164 8163 8167 8162 8158 8160 8166 8169 8174 8168 8172 8170 8168 8173 8170 8175 8170 8154 8147 8154 8161 8161 8162 8161 8162 8168 8171 8172 8179 8179 8178 8181 8183 8185 8185 8182 8180 8185 8180 8185 8191 8185 8178 8176 8187 8192 8193 8191 8187 8190 8188 8185 8183 8184 8179 8175 8174 8176 8175 8173 8176 8175 8176 8180 8176 8182 8181 8182 8178 8178 
8168 8164 8167 8167 8163 8164 8164 8163 8165 8164 8161 8160 8160 8161 8160 8161 8162 8168 8169 8169 8171 8168 8169 8170 8171 8170 8170 8155 8143 8150 8155 8155 8155 8157 8160 8162 8163 8162 8169 8171 8172 8174 8176 8179 8177 8177 8178 8176 8178 8182 8192 8186 8173 8177 8188 8189 8189 8187 8186 8185 8187 8183 8183 8179 8177 8173 8172 8174 8174 8174 8176 8178 8180 8178 8181 8180 8183 8180 8180 8176 
8170 8168 8168 8164 8162 8163 8161 8157 8163 8162 8159 8156 8157 8156 8158 8159 8163 8167 8169 8169 8171 8172 8172 8171 8170 8169 8160 8150 8142 8144 8147 8145 8149 8151 8153 8158 8156 8153 8162 8167 8165 8167 8168 8173 8170 8173 8172 8173 8175 8186 8192 8183 8170 8174 8183 8184 8185 8182 8182 8180 8178 8180 8180 8177 8177 8175 8175 8178 8191 8197 8195 8183 8183 8183 8180 8187 8183 8181 8179 8181 
8171 8168 8171 8168 8162 8159 8161 8159 8160 8158 8158 8156 8158 8159 8158 8159 8163 8167 8167 8168 8174 8176 8173 8177 8169 8156 8143 8137 8138 8139 8143 8139 8143 8147 8147 8155 8151 8152 8156 8161 8160 8164 8167 8168 8168 8167 8170 8171 8169 8180 8186 8177 8166 8169 8173 8176 8182 8181 8180 8181 8177 8176 8179 8178 8179 8180 8178 8213 8280 8294 8260 8231 8213 8201 8202 8192 8187 8183 8179 8182 
8176 8171 8170 8166 8160 8158 8154 8155 8157 8154 8153 8155 8156 8156 8156 8160 8161 8166 8170 8178 8178 8177 8176 8181 8167 8146 8136 8133 8129 8132 8138 8138 8142 8142 8142 8147 8146 8146 8152 8159 8158 8159 8163 8164 8164 8164 8163 8163 8164 8175 8176 8169 8162 8161 8164 8176 8181 8182 8181 8183 8182 8183 8186 8187 8185 8186 8191 8221 8281 8301 8302 8289 8260 8221 8201 8193 8187 8185 8180 8179 
8204 8187 8184 8166 8160 8156 8157 8153 8156 8153 8152 8154 8154 8154 8155 8157 8162 8169 8170 8178 8179 8177 8177 8177 8164 8143 8132 8135 8130 8128 8133 8130 8134 8134 8140 8141 8144 8139 8150 8155 8156 8158 8159 8162 8161 8160 8162 8161 8160 8166 8158 8158 8155 8157 8157 8171 8178 8186 8187 8184 8185 8185 8187 8186 8187 8187 8191 8203 8223 8276 8295 8292 8263 8230 8198 8193 8186 8185 8182 8180 


