P2
80 60
8229
8105 8109 8106 8111 8111 8114 8139 8151 8151 8151 8153 8154 8157 8154 8156 8158 8159 8161 8160 8159 8162 8166 8164 8168 8168 8173 8177 8179 8177 8182 8183 8181 8181 8185 8189 8189 8186 8188 8189 8190 8190 8194 8192 8193 8189 8192 8191 8191 8189 8191 8187 8185 8183 8183 8179 8174 8173 8181 8178 8184 8180 8182 8181 8183 8180 8185 8182 8186 8183 8187 8187 8188 8188 8186 8191 8188 8188 8189 8191 8185 
8103 8109 8104 8108 8109 8122 8143 8152 8152 8154 8155 8156 8159 8156 8159 8158 8162 8160 8161 8161 8164 8167 8165 8166 8171 8177 8179 8179 8178 8180 8184 8183 8184 8184 8189 8189 8189 8189 8195 8192 8194 8194 8195 8191 8195 8189 8190 8191 8189 8190 8187 8189 8189 8184 8179 8174 8177 8182 8182 8183 8180 8180 8182 8180 8184 8182 8181 8186 8183 8184 8183 8185 8185 8189 8188 8185 8185 8187 8191 8185 
8104 8111 8108 8110 8115 8136 8149 8154 8151 8155 8154 8160 8165 8160 8159 8161 8162 8164 8165 8165 8162 8167 8168 8170 8172 8171 8178 8179 8177 8183 8183 8184 8180 8186 8191 8195 8189 8191 8194 8195 8195 8194 8191 8193 8192 8193 8191 8189 8187 8189 8187 8187 8187 8185 8181 8180 8180 8185 8183 8185 8184 8183 8184 8181 8180 8180 8182 8185 8183 8186 8185 8186 8188 8189 8189 8187 8188 8189 8187 8189 
8106 8113 8109 8116 8123 8146 8149 8156 8155 8153 8158 8161 8163 8160 8162 8161 8163 8164 8164 8160 8163 8168 8169 8167 8169 8171 8176 8176 8177 8181 8180 8181 8183 8185 8189 8197 8191 8190 8191 8190 8189 8183 8184 8188 8190 8190 8188 8191 8189 8189 8186 8187 8187 8182 8180 8179 8181 8187 8187 8185 8186 8182 8180 8183 8182 8180 8183 8190 8184 8186 8187 8185 8187 8189 8190 8188 8188 8189 8186 8187 
8109 8118 8109 8120 8139 8151 8152 8154 8156 8156 8159 8163 8165 8161 8161 8162 8162 8164 8164 8165 8167 8167 8167 8166 8167 8171 8176 8178 8174 8182 8182 8178 8183 8185 8193 8193 8193 8190 8188 8182 8152 8150 8164 8180 8186 8189 8191 8191 8192 8187 8189 8189 8187 8186 8181 8180 8182 8185 8185 8186 8181 8184 8179 8181 8183 8182 8186 8188 8185 8187 8187 8187 8186 8193 8189 8189 8188 8187 8182 8185 
8111 8119 8117 8126 8147 8156 8152 8157 8152 8159 8158 8165 8164 8161 8163 8162 8162 8162 8162 8165 8166 8168 8166 8162 8166 8172 8177 8178 8175 8183 8183 8183 8179 8187 8188 8195 8191 8190 8169 8146 8132 8135 8145 8153 8157 8179 8188 8189 8192 8189 8189 8186 8188 8187 8184 8181 8182 8184 8185 8186 8183 8182 8182 8188 8184 8184 8186 8187 8188 8186 8188 8189 8187 8194 8190 8191 8187 8188 8186 8183 
8114 8124 8120 8138 8156 8156 8155 8156 8155 8159 8164 8161 8162 8163 8163 8164 8166 8164 8163 8166 8168 8170 8167 8167 8172 8172 8178 8178 8176 8184 8184 8186 8186 8187 8190 8191 8189 8190 8170 8141 8141 8143 8134 8129 8148 8187 8190 8192 8189 8188 8189 8189 8189 8187 8182 8184 8181 8185 8185 8188 8185 8183 8185 8186 8185 8189 8185 8191 8187 8188 8191 8193 8193 8191 8191 8192 8189 8184 8186 8182 
8120 8126 8126 8149 8160 8157 8153 8158 8161 8162 8160 8162 8165 8166 8164 8164 8163 8166 8168 8167 8168 8167 8167 8170 8173 8177 8178 8181 8178 8184 8186 8186 8185 8186 8188 8190 8188 8186 8157 8142 8146 8148 8135 8149 8184 8192 8192 8190 8189 8188 8187 8186 8188 8186 8185 8182 8181 8184 8185 8186 8185 8187 8187 8188 8189 8190 8186 8190 8191 8190 8188 8193 8192 8191 8193 8187 8190 8186 8183 8184 
8121 8129 8139 8158 8164 8160 8158 8161 8163 8165 8167 8165 8168 8165 8166 8166 8166 8168 8168 8166 8169 8171 8170 8172 8173 8177 8179 8181 8180 8184 8184 8188 8189 8187 8167 8156 8163 8186 8180 8169 8163 8145 8174 8191 8194 8194 8194 8191 8189 8187 8188 8184 8177 8182 8180 8184 8183 8187 8187 8187 8188 8191 8193 8191 8192 8192 8189 8192 8192 8187 8189 8193 8193 8192 8191 8191 8194 8187 8183 8182 
8121 8133 8153 8164 8168 8165 8161 8165 8165 8170 8171 8171 8166 8168 8165 8169 8170 8168 8171 8169 8169 8169 8174 8176 8174 8171 8179 8181 8181 8185 8188 8189 8186 8156 8136 8131 8154 8162 8134 8136 8166 8154 8186 8176 8186 8186 8182 8182 8186 8181 8163 8147 8145 8153 8170 8180 8183 8185 8185 8189 8188 8191 8193 8193 8195 8196 8191 8191 8189 8189 8190 8192 8194 8191 8193 8192 8191 8185 8183 8187 
8124 8139 8158 8171 8170 8168 8167 8164 8164 8167 8169 8174 8169 8166 8167 8169 8170 8172 8173 8168 8172 8174 8173 8169 8156 8145 8173 8183 8182 8188 8191 8184 8160 8136 8140 8142 8147 8133 8126 8150 8181 8161 8149 8125 8134 8137 8129 8135 8157 8148 8131 8136 8139 8141 8156 8179 8183 8185 8187 8192 8189 8192 8194 8193 8196 8198 8194 8192 8192 8193 8195 8195 8193 8191 8191 8193 8187 8187 8184 8181 
8128 8152 8172 8176 8177 8171 8169 8168 8166 8169 8172 8171 8171 8167 8171 8169 8170 8172 8177 8173 8175 8178 8169 8149 8129 8132 8159 8180 8184 8191 8185 8143 8124 8126 8135 8154 8164 8139 8121 8153 8175 8143 8118 8111 8112 8115 8121 8129 8152 8140 8134 8151 8153 8167 8167 8179 8183 8185 8186 8191 8189 8191 8195 8193 8196 8196 8200 8198 8196 8196 8196 8197 8199 8195 8197 8194 8190 8188 8185 8184 
8134 8164 8175 8178 8178 8172 8168 8170 8172 8170 8172 8172 8170 8173 8172 8173 8175 8173 8179 8174 8175 8176 8169 8131 8127 8131 8144 8179 8185 8191 8164 8117 8120 8124 8134 8133 8129 8129 8135 8137 8128 8128 8119 8115 8111 8120 8150 8154 8133 8131 8130 8144 8172 8184 8182 8182 8182 8185 8187 8191 8188 8192 8192 8194 8193 8200 8200 8199 8199 8200 8199 8204 8200 8201 8197 8195 8193 8195 8188 8188 
8142 8174 8176 8177 8176 8172 8171 8169 8167 8171 8173 8171 8176 8171 8171 8175 8175 8176 8176 8174 8175 8178 8173 8150 8126 8129 8135 8162 8182 8187 8133 8115 8125 8157 8157 8125 8118 8114 8107 8109 8116 8119 8122 8118 8115 8112 8114 8120 8126 8128 8129 8128 8139 8173 8181 8182 8183 8182 8185 8184 8190 8190 8189 8194 8195 8195 8198 8202 8203 8203 8201 8203 8203 8203 8200 8199 8194 8196 8193 8191 
8155 8177 8179 8178 8175 8172 8173 8171 8170 8175 8177 8176 8177 8173 8171 8175 8175 8177 8178 8174 8179 8182 8176 8172 8133 8129 8136 8141 8179 8187 8133 8145 8166 8182 8127 8119 8118 8129 8126 8108 8110 8117 8128 8132 8120 8116 8113 8115 8138 8167 8153 8136 8134 8148 8181 8179 8183 8184 8185 8187 8187 8187 8190 8192 8194 8196 8198 8202 8200 8204 8200 8202 8202 8202 8199 8203 8198 8199 8194 8193 
8169 8183 8182 8180 8176 8175 8174 8176 8173 8178 8178 8174 8178 8174 8173 8175 8178 8179 8180 8178 8180 8181 8180 8179 8156 8129 8133 8136 8163 8190 8174 8194 8195 8183 8115 8118 8130 8158 8123 8107 8113 8113 8115 8113 8128 8125 8122 8123 8130 8174 8185 8177 8164 8152 8178 8183 8181 8186 8184 8188 8187 8185 8185 8190 8193 8193 8197 8200 8198 8199 8201 8201 8200 8204 8198 8202 8202 8202 8197 8192 
8176 8186 8180 8180 8176 8176 8177 8175 8178 8177 8177 8176 8178 8179 8175 8178 8180 8180 8181 8180 8184 8186 8184 8186 8179 8140 8135 8135 8141 8187 8194 8196 8194 8174 8117 8129 8153 8136 8111 8114 8109 8110 8109 8104 8128 8167 8153 8130 8126 8169 8187 8188 8186 8184 8184 8182 8184 8187 8189 8188 8188 8188 8188 8190 8190 8192 8194 8197 8198 8200 8201 8201 8198 8201 8201 8200 8201 8203 8196 8198 
8183 8187 8181 8178 8180 8179 8178 8179 8179 8178 8178 8177 8181 8181 8181 8181 8181 8185 8186 8182 8184 8185 8185 8188 8185 8166 8134 8136 8136 8167 8194 8196 8186 8157 8126 8159 8161 8116 8111 8113 8106 8107 8106 8105 8154 8182 8176 8165 8133 8169 8180 8187 8189 8186 8184 8184 8187 8192 8188 8189 8190 8187 8191 8188 8192 8193 8193 8199 8194 8199 8198 8199 8202 8200 8201 8203 8200 8202 8195 8197 
8183 8187 8180 8180 8183 8180 8179 8183 8180 8180 8179 8178 8182 8183 8183 8184 8184 8184 8188 8184 8186 8186 8188 8188 8189 8184 8149 8134 8138 8149 8187 8178 8168 8166 8165 8170 8154 8115 8113 8101 8100 8105 8102 8100 8143 8161 8161 8164 8147 8160 8179 8183 8190 8192 8187 8188 8189 8191 8190 8192 8193 8192 8193 8194 8194 8193 8192 8197 8196 8196 8197 8200 8200 8202 8200 8201 8201 8203 8201 8198 
8187 8189 8184 8181 8183 8182 8181 8181 8181 8183 8180 8181 8182 8184 8187 8184 8187 8186 8185 8186 8188 8189 8187 8187 8188 8189 8175 8140 8136 8144 8156 8163 8166 8171 8170 8163 8127 8109 8113 8103 8102 8102 8104 8122 8134 8141 8146 8151 8147 8145 8158 8171 8179 8189 8192 8187 8188 8190 8191 8193 8192 8195 8194 8195 8195 8195 8195 8199 8195 8196 8200 8197 8199 8200 8202 8199 8203 8203 8199 8196 
8185 8189 8184 8181 8186 8185 8185 8185 8182 8184 8186 8181 8183 8183 8184 8187 8186 8189 8188 8187 8187 8188 8189 8189 8191 8190 8189 8154 8136 8141 8144 8159 8171 8168 8147 8128 8114 8116 8107 8097 8098 8100 8107 8130 8137 8139 8142 8150 8147 8151 8147 8154 8173 8184 8198 8191 8189 8190 8189 8192 8193 8193 8195 8196 8197 8198 8192 8198 8199 8194 8198 8200 8196 8199 8198 8200 8203 8201 8203 8200 
8186 8189 8185 8186 8185 8183 8181 8185 8185 8188 8186 8184 8186 8185 8184 8185 8191 8188 8189 8184 8187 8188 8187 8193 8191 8190 8195 8181 8139 8143 8141 8156 8163 8146 8136 8119 8127 8127 8104 8102 8109 8121 8125 8119 8130 8122 8137 8144 8151 8152 8151 8144 8154 8179 8209 8212 8193 8190 8191 8192 8192 8192 8194 8195 8197 8199 8195 8200 8199 8199 8197 8201 8200 8199 8199 8198 8202 8200 8199 8197 
8186 8191 8188 8189 8187 8184 8181 8188 8184 8185 8184 8183 8186 8184 8185 8188 8189 8190 8189 8186 8186 8189 8186 8187 8190 8190 8196 8184 8148 8139 8143 8142 8146 8138 8131 8109 8112 8119 8112 8115 8111 8118 8116 8113 8117 8121 8126 8136 8135 8145 8143 8141 8146 8168 8209 8227 8200 8191 8188 8193 8192 8192 8192 8193 8196 8194 8196 8198 8197 8198 8198 8198 8200 8198 8197 8201 8199 8198 8197 8201 
8188 8195 8189 8193 8187 8184 8184 8184 8186 8187 8184 8184 8186 8183 8184 8183 8189 8189 8189 8182 8188 8184 8187 8190 8189 8190 8192 8176 8162 8139 8141 8135 8114 8115 8111 8124 8123 8118 8115 8112 8115 8119 8124 8114 8116 8122 8127 8128 8123 8129 8138 8139 8150 8164 8194 8222 8214 8189 8190 8191 8190 8192 8193 8194 8194 8194 8193 8198 8196 8198 8197 8201 8198 8199 8201 8197 8200 8198 8196 8196 
8188 8196 8190 8191 8187 8189 8184 8186 8187 8188 8189 8185 8184 8184 8185 8190 8188 8192 8188 8186 8188 8189 8187 8191 8191 8193 8188 8171 8164 8158 8139 8118 8110 8113 8123 8131 8124 8112 8109 8111 8114 8117 8122 8109 8108 8117 8123 8125 8121 8127 8136 8148 8153 8165 8184 8205 8221 8192 8187 8193 8190 8192 8193 8194 8195 8195 8196 8199 8197 8195 8197 8202 8198 8198 8200 8199 8199 8201 8199 8188 
8188 8196 8192 8190 8188 8188 8188 8190 8187 8189 8188 8184 8186 8184 8186 8189 8190 8189 8190 8188 8186 8187 8188 8193 8190 8190 8182 8173 8180 8172 8130 8114 8114 8127 8125 8122 8116 8110 8108 8110 8115 8117 8118 8109 8109 8114 8117 8127 8126 8132 8137 8145 8155 8155 8168 8198 8207 8194 8193 8191 8192 8195 8194 8195 8197 8196 8197 8200 8200 8193 8199 8200 8199 8201 8200 8198 8198 8202 8198 8194 
8190 8201 8197 8193 8192 8192 8189 8193 8191 8192 8192 8190 8189 8190 8189 8194 8191 8194 8191 8190 8191 8192 8191 8194 8191 8193 8178 8175 8189 8166 8140 8120 8112 8119 8122 8120 8124 8115 8110 8114 8115 8115 8117 8111 8112 8111 8115 8130 8131 8139 8136 8139 8149 8154 8177 8208 8202 8198 8193 8195 8194 8196 8197 8197 8197 8197 8198 8202 8197 8197 8199 8200 8198 8201 8202 8202 8202 8200 8197 8196 
8195 8203 8198 8198 8199 8194 8192 8195 8194 8199 8196 8196 8196 8197 8195 8197 8198 8198 8195 8193 8195 8193 8195 8195 8192 8193 8178 8183 8187 8154 8138 8115 8113 8116 8118 8115 8115 8120 8112 8112 8115 8116 8114 8117 8122 8128 8130 8131 8129 8140 8147 8149 8152 8160 8179 8208 8201 8196 8198 8197 8193 8197 8195 8200 8195 8196 8198 8201 8200 8197 8199 8202 8199 8201 8198 8200 8201 8201 8198 8195 
8199 8209 8202 8202 8202 8198 8196 8199 8200 8199 8202 8200 8202 8201 8196 8199 8202 8196 8196 8198 8199 8197 8197 8200 8197 8196 8181 8187 8185 8152 8138 8119 8113 8120 8115 8112 8113 8127 8128 8125 8123 8122 8119 8126 8135 8133 8134 8138 8138 8145 8150 8161 8154 8161 8168 8198 8199 8198 8196 8200 8194 8198 8198 8198 8197 8197 8200 8199 8201 8200 8201 8202 8200 8200 8202 8198 8201 8202 8197 8195 
8200 8211 8205 8201 8204 8198 8198 8201 8200 8203 8204 8206 8200 8203 8199 8199 8203 8199 8199 8198 8197 8198 8197 8198 8198 8194 8177 8192 8179 8149 8144 8135 8121 8124 8121 8118 8123 8133 8134 8129 8132 8128 8127 8133 8137 8136 8136 8135 8138 8144 8156 8166 8159 8162 8164 8196 8200 8198 8199 8198 8197 8197 8199 8201 8198 8202 8201 8206 8200 8201 8199 8201 8200 8203 8202 8201 8203 8203 8197 8193 
8205 8214 8208 8207 8208 8203 8202 8206 8205 8208 8208 8205 8206 8202 8203 8202 8204 8204 8202 8201 8200 8198 8196 8200 8198 8193 8174 8186 8173 8151 8150 8139 8131 8134 8134 8133 8132 8138 8138 8138 8139 8131 8129 8136 8129 8131 8134 8135 8130 8143 8160 8174 8172 8170 8163 8180 8195 8199 8201 8202 8196 8200 8200 8202 8201 8199 8202 8204 8202 8202 8201 8204 8203 8204 8203 8207 8203 8206 8199 8198 
8207 8212 8212 8210 8209 8208 8205 8205 8205 8208 8208 8208 8206 8206 8204 8206 8204 8205 8206 8200 8199 8202 8198 8199 8201 8198 8181 8182 8176 8159 8153 8144 8142 8138 8140 8141 8140 8142 8142 8141 8143 8131 8134 8138 8130 8136 8137 8133 8128 8147 8154 8163 8169 8167 8160 8167 8199 8202 8200 8201 8199 8202 8202 8202 8202 8202 8202 8204 8201 8203 8201 8205 8201 8204 8202 8203 8203 8205 8202 8197 
8205 8214 8211 8209 8211 8208 8207 8206 8203 8211 8207 8208 8208 8205 8207 8204 8205 8203 8202 8203 8200 8200 8202 8202 8200 8202 8189 8187 8190 8161 8150 8148 8143 8143 8144 8148 8142 8145 8141 8146 8144 8137 8146 8145 8141 8142 8143 8145 8143 8151 8158 8161 8162 8158 8157 8172 8196 8199 8199 8202 8199 8200 8204 8203 8202 8203 8201 8202 8201 8202 8199 8204 8201 8204 8205 8204 8208 8207 8199 8197 
8209 8216 8212 8213 8209 8209 8206 8212 8204 8209 8211 8209 8206 8208 8207 8206 8206 8206 8203 8203 8203 8202 8202 8202 8200 8203 8195 8187 8194 8169 8154 8142 8141 8142 8146 8152 8146 8142 8143 8149 8146 8145 8151 8150 8149 8147 8150 8151 8150 8157 8163 8165 8164 8168 8170 8190 8199 8200 8200 8201 8200 8201 8200 8200 8204 8202 8202 8203 8201 8202 8203 8203 8202 8203 8205 8207 8206 8208 8202 8197 
8207 8216 8214 8210 8214 8211 8211 8209 8210 8209 8211 8208 8206 8207 8205 8204 8206 8203 8204 8203 8202 8201 8200 8202 8201 8200 8202 8191 8199 8186 8158 8145 8145 8143 8148 8152 8148 8137 8141 8151 8150 8152 8158 8155 8153 8149 8150 8150 8156 8161 8163 8160 8164 8170 8181 8196 8199 8204 8200 8201 8202 8202 8201 8205 8199 8200 8202 8200 8203 8199 8201 8201 8200 8202 8205 8203 8207 8209 8202 8202 
8204 8214 8211 8211 8211 8211 8210 8212 8207 8206 8209 8207 8206 8204 8204 8206 8205 8205 8202 8201 8201 8201 8195 8200 8200 8199 8202 8198 8188 8195 8166 8152 8149 8148 8157 8153 8148 8141 8153 8156 8153 8155 8160 8157 8155 8154 8155 8147 8163 8165 8161 8161 8161 8172 8183 8196 8201 8204 8205 8201 8200 8201 8202 8201 8199 8200 8201 8203 8202 8199 8201 8202 8202 8203 8206 8205 8209 8208 8203 8198 
8211 8216 8213 8211 8216 8212 8209 8210 8208 8211 8207 8208 8207 8205 8209 8203 8205 8204 8200 8201 8203 8202 8201 8195 8198 8199 8202 8199 8180 8177 8158 8152 8157 8159 8157 8154 8142 8151 8159 8158 8149 8140 8162 8163 8161 8161 8157 8157 8181 8175 8161 8163 8172 8182 8183 8199 8200 8203 8200 8205 8200 8199 8202 8202 8203 8203 8197 8204 8201 8200 8201 8202 8201 8201 8204 8204 8206 8203 8201 8198 
8211 8220 8216 8215 8216 8209 8208 8209 8209 8210 8211 8206 8208 8208 8208 8204 8204 8204 8201 8204 8199 8202 8198 8201 8197 8198 8201 8198 8180 8166 8168 8170 8160 8152 8157 8160 8142 8153 8164 8158 8164 8161 8171 8170 8167 8164 8162 8160 8174 8173 8161 8173 8182 8178 8186 8201 8199 8205 8202 8204 8200 8203 8203 8205 8203 8199 8200 8201 8199 8201 8199 8200 8205 8203 8205 8203 8207 8204 8201 8200 
8212 8222 8215 8216 8214 8210 8207 8213 8208 8208 8209 8207 8210 8206 8206 8205 8206 8203 8203 8200 8200 8201 8198 8199 8197 8200 8199 8199 8190 8162 8165 8178 8184 8167 8161 8160 8157 8165 8170 8169 8162 8166 8174 8172 8170 8161 8165 8165 8169 8176 8183 8178 8170 8176 8195 8199 8201 8202 8201 8205 8204 8203 8203 8203 8202 8198 8197 8201 8201 8198 8201 8202 8201 8201 8204 8204 8206 8204 8199 8197 
8212 8220 8217 8216 8214 8212 8210 8210 8210 8210 8210 8207 8209 8207 8207 8205 8203 8206 8204 8203 8200 8200 8201 8201 8201 8199 8203 8199 8197 8170 8160 8156 8177 8181 8164 8163 8160 8157 8167 8167 8166 8171 8175 8174 8169 8158 8164 8174 8183 8186 8176 8166 8169 8183 8200 8200 8202 8208 8208 8206 8204 8201 8204 8202 8202 8201 8199 8202 8200 8198 8202 8207 8201 8205 8204 8200 8202 8205 8203 8197 
8211 8221 8217 8218 8215 8212 8214 8214 8208 8209 8211 8208 8209 8208 8208 8207 8204 8205 8203 8203 8201 8201 8203 8200 8199 8200 8203 8204 8196 8186 8159 8153 8163 8186 8185 8178 8168 8166 8170 8177 8170 8172 8173 8173 8170 8172 8181 8182 8179 8171 8163 8165 8175 8195 8200 8201 8204 8204 8207 8206 8210 8206 8204 8203 8203 8200 8198 8202 8198 8198 8205 8206 8205 8206 8204 8204 8206 8205 8203 8194 
8213 8218 8218 8216 8217 8213 8211 8212 8210 8212 8210 8206 8209 8206 8202 8204 8207 8206 8205 8202 8201 8202 8200 8201 8200 8202 8206 8199 8199 8195 8175 8161 8158 8177 8191 8182 8173 8172 8181 8184 8183 8186 8181 8183 8182 8175 8172 8167 8165 8163 8161 8173 8188 8200 8201 8200 8201 8206 8204 8207 8206 8206 8206 8205 8207 8202 8201 8203 8200 8198 8200 8201 8203 8203 8204 8204 8205 8208 8202 8198 
8216 8222 8220 8217 8215 8212 8212 8214 8212 8210 8211 8209 8211 8206 8203 8206 8207 8207 8206 8203 8203 8204 8199 8199 8200 8202 8203 8205 8198 8199 8193 8172 8159 8164 8185 8193 8175 8163 8168 8172 8173 8172 8173 8170 8167 8166 8163 8163 8161 8164 8173 8187 8199 8201 8202 8201 8202 8205 8203 8206 8205 8206 8204 8208 8204 8204 8203 8203 8197 8200 8199 8202 8202 8201 8205 8203 8206 8208 8203 8200 
8213 8222 8221 8219 8217 8214 8214 8214 8215 8215 8210 8211 8211 8207 8208 8205 8207 8206 8208 8204 8198 8205 8203 8203 8201 8200 8204 8201 8197 8199 8199 8194 8173 8164 8166 8184 8188 8182 8177 8168 8167 8167 8166 8163 8160 8160 8162 8161 8166 8171 8186 8196 8199 8206 8205 8202 8201 8204 8204 8205 8203 8206 8208 8206 8205 8203 8201 8203 8201 8202 8204 8204 8202 8203 8204 8207 8208 8206 8203 8207 
8214 8221 8219 8219 8217 8218 8214 8212 8213 8212 8214 8210 8209 8209 8205 8207 8209 8208 8205 8205 8204 8207 8204 8203 8204 8201 8203 8199 8196 8201 8201 8199 8193 8182 8170 8165 8174 8189 8191 8182 8174 8172 8167 8166 8166 8166 8170 8176 8182 8193 8197 8198 8201 8206 8203 8203 8203 8206 8204 8207 8207 8209 8206 8208 8207 8204 8202 8204 8201 8202 8205 8203 8204 8207 8203 8203 8206 8208 8205 8204 
8215 8219 8219 8217 8221 8216 8214 8215 8211 8214 8210 8212 8212 8206 8208 8209 8208 8208 8207 8202 8205 8204 8204 8202 8201 8199 8205 8198 8200 8205 8205 8203 8199 8197 8192 8185 8174 8172 8178 8184 8186 8185 8182 8179 8182 8181 8189 8195 8200 8197 8201 8200 8204 8204 8202 8201 8206 8208 8206 8207 8209 8205 8208 8209 8206 8205 8204 8201 8200 8202 8201 8203 8204 8206 8205 8202 8206 8202 8202 8203 
8212 8221 8217 8217 8217 8217 8214 8216 8215 8216 8214 8213 8209 8207 8206 8210 8209 8207 8205 8203 8204 8207 8205 8205 8201 8202 8203 8199 8198 8204 8207 8206 8207 8203 8199 8197 8195 8192 8192 8193 8190 8191 8191 8195 8205 8205 8201 8201 8199 8204 8201 8201 8202 8206 8205 8204 8201 8206 8207 8208 8210 8206 8207 8207 8205 8204 8199 8202 8203 8202 8203 8204 8204 8204 8204 8203 8200 8206 8203 8199 
8216 8221 8216 8215 8217 8216 8215 8215 8214 8214 8214 8213 8210 8210 8209 8210 8210 8210 8206 8204 8206 8209 8205 8206 8205 8204 8204 8199 8197 8204 8206 8205 8207 8209 8205 8202 8200 8198 8205 8203 8205 8204 8205 8203 8205 8204 8203 8208 8203 8206 8203 8203 8204 8206 8202 8203 8205 8208 8206 8207 8205 8205 8210 8211 8207 8203 8201 8204 8202 8202 8202 8203 8204 8204 8206 8203 8202 8205 8202 8205 
8217 8225 8220 8217 8219 8218 8214 8216 8212 8216 8212 8215 8210 8209 8207 8209 8210 8209 8209 8205 8208 8209 8208 8208 8206 8206 8203 8202 8201 8204 8205 8207 8209 8206 8212 8208 8204 8202 8206 8206 8206 8206 8207 8204 8208 8206 8203 8204 8202 8205 8204 8203 8202 8208 8205 8206 8205 8208 8204 8208 8209 8206 8208 8207 8207 8206 8203 8204 8203 8204 8205 8204 8202 8205 8206 8204 8204 8205 8203 8205 
8216 8224 8220 8218 8217 8217 8215 8212 8213 8211 8210 8210 8211 8211 8211 8209 8212 8211 8208 8205 8209 8207 8207 8209 8205 8206 8203 8201 8200 8205 8209 8205 8209 8210 8214 8213 8212 8209 8209 8211 8211 8211 8207 8207 8205 8206 8203 8205 8206 8206 8204 8203 8204 8211 8206 8203 8205 8205 8205 8207 8206 8208 8210 8209 8206 8205 8202 8206 8202 8202 8206 8204 8204 8207 8208 8204 8206 8208 8202 8200 
8212 8221 8217 8217 8219 8216 8212 8213 8211 8210 8211 8210 8208 8206 8207 8206 8212 8207 8209 8207 8206 8210 8209 8208 8205 8207 8205 8204 8202 8206 8208 8207 8212 8210 8216 8216 8214 8212 8214 8210 8210 8211 8209 8205 8208 8207 8204 8206 8205 8206 8204 8205 8208 8211 8208 8206 8204 8204 8203 8207 8206 8205 8208 8208 8207 8206 8203 8205 8203 8204 8208 8209 8206 8203 8205 8205 8207 8205 8200 8198 
8212 8222 8218 8216 8217 8215 8209 8209 8207 8207 8205 8207 8206 8209 8206 8208 8206 8206 8205 8206 8208 8207 8206 8206 8207 8205 8203 8206 8204 8206 8208 8209 8212 8212 8214 8217 8214 8213 8211 8214 8214 8212 8212 8207 8210 8207 8208 8207 8207 8206 8207 8209 8210 8214 8208 8205 8205 8205 8205 8206 8205 8203 8206 8208 8206 8205 8203 8204 8203 8204 8205 8206 8204 8206 8205 8203 8203 8204 8200 8196 
8212 8223 8215 8213 8216 8213 8210 8207 8209 8207 8205 8205 8203 8203 8201 8202 8205 8206 8205 8204 8204 8210 8205 8204 8206 8206 8206 8206 8205 8207 8210 8212 8213 8213 8216 8218 8216 8215 8217 8217 8216 8213 8215 8207 8210 8210 8209 8209 8209 8209 8209 8211 8212 8214 8209 8202 8206 8204 8203 8204 8205 8208 8208 8205 8203 8203 8202 8206 8202 8201 8204 8204 8204 8204 8207 8206 8206 8206 8199 8196 
8213 8222 8219 8215 8219 8210 8211 8211 8208 8207 8207 8205 8205 8204 8205 8202 8206 8207 8203 8204 8204 8210 8206 8207 8205 8204 8207 8207 8207 8208 8210 8213 8212 8214 8217 8218 8216 8214 8219 8220 8221 8217 8214 8216 8212 8212 8211 8211 8211 8212 8209 8213 8214 8214 8208 8203 8204 8204 8203 8206 8207 8206 8206 8209 8206 8205 8203 8205 8204 8203 8205 8203 8205 8204 8203 8203 8206 8204 8199 8193 
8214 8224 8219 8218 8219 8216 8208 8208 8207 8204 8206 8202 8205 8203 8204 8205 8205 8203 8204 8202 8206 8208 8204 8206 8203 8204 8206 8210 8207 8209 8213 8211 8213 8212 8216 8217 8217 8214 8218 8221 8219 8216 8217 8215 8217 8213 8214 8216 8212 8209 8210 8211 8214 8211 8208 8203 8201 8204 8201 8205 8206 8203 8205 8206 8203 8201 8202 8203 8203 8201 8203 8203 8204 8205 8206 8203 8205 8204 8195 8193 
8215 8219 8216 8220 8220 8213 8208 8209 8203 8207 8207 8206 8204 8203 8205 8202 8201 8204 8206 8201 8207 8208 8206 8207 8203 8206 8208 8209 8207 8211 8214 8213 8214 8214 8219 8218 8216 8216 8219 8222 8218 8215 8219 8216 8217 8215 8215 8212 8211 8212 8208 8213 8214 8214 8207 8203 8201 8201 8202 8201 8201 8205 8204 8206 8201 8202 8200 8202 8200 8201 8201 8203 8202 8205 8204 8204 8201 8205 8201 8195 
8215 8224 8218 8218 8218 8218 8209 8207 8208 8208 8209 8207 8205 8205 8202 8207 8204 8202 8207 8204 8205 8208 8207 8206 8204 8207 8211 8211 8209 8215 8215 8216 8216 8221 8219 8221 8221 8219 8221 8220 8220 8220 8218 8217 8216 8217 8214 8218 8212 8213 8212 8215 8213 8213 8208 8203 8200 8203 8201 8203 8204 8202 8204 8204 8203 8204 8201 8203 8206 8202 8202 8203 8203 8205 8207 8206 8206 8204 8203 8197 
8219 8225 8221 8218 8215 8212 8206 8206 8207 8207 8208 8206 8206 8204 8204 8204 8205 8203 8209 8205 8204 8204 8205 8202 8205 8206 8211 8213 8210 8214 8219 8217 8220 8218 8219 8223 8218 8220 8221 8221 8220 8220 8220 8218 8219 8218 8214 8217 8213 8211 8213 8211 8209 8209 8207 8201 8197 8200 8198 8205 8198 8204 8203 8201 8202 8201 8197 8204 8201 8200 8202 8202 8201 8206 8208 8206 8207 8203 8203 8201 
8216 8225 8219 8216 8213 8209 8205 8207 8202 8205 8204 8202 8205 8201 8199 8200 8201 8202 8205 8204 8204 8204 8204 8202 8206 8204 8211 8207 8210 8215 8213 8218 8217 8218 8222 8223 8217 8219 8223 8219 8223 8219 8219 8218 8217 8214 8214 8216 8213 8210 8211 8210 8209 8208 8202 8199 8199 8197 8195 8202 8196 8201 8198 8201 8201 8201 8198 8197 8196 8200 8199 8201 8203 8203 8202 8199 8201 8201 8198 8199 
8219 8225 8216 8216 8212 8209 8200 8206 8198 8201 8199 8202 8199 8194 8196 8198 8200 8203 8201 8198 8200 8206 8203 8204 8206 8209 8213 8212 8210 8216 8215 8218 8219 8219 8223 8229 8221 8221 8225 8223 8222 8219 8219 8218 8219 8213 8215 8213 8214 8210 8213 8207 8209 8206 8202 8198 8196 8195 8193 8199 8198 8197 8197 8197 8198 8201 8196 8198 8198 8199 8203 8203 8202 8203 8203 8202 8205 8198 8201 8194 


