P2
80 60
8239
8194 8196 8201 8198 8201 8198 8201 8196 8201 8202 8201 8202 8206 8204 8199 8198 8200 8203 8205 8207 8208 8211 8216 8216 8216 8214 8213 8215 8221 8225 8225 8220 8227 8227 8223 8224 8224 8226 8224 8225 8226 8219 8223 8223 8220 8220 8217 8219 8217 8214 8217 8218 8208 8212 8210 8206 8206 8204 8202 8203 8206 8204 8209 8206 8202 8204 8206 8203 8204 8206 8205 8206 8208 8204 8209 8204 8209 8209 8204 8206 
8194 8197 8200 8199 8200 8196 8198 8198 8198 8201 8201 8203 8203 8201 8202 8202 8205 8200 8205 8210 8209 8211 8216 8213 8217 8218 8214 8218 8223 8226 8226 8224 8224 8224 8223 8223 8223 8225 8225 8227 8225 8223 8223 8221 8220 8221 8219 8218 8214 8210 8213 8215 8208 8211 8208 8207 8204 8203 8205 8205 8207 8206 8206 8202 8203 8203 8204 8204 8204 8203 8205 8207 8207 8207 8209 8208 8206 8207 8203 8201 
8193 8190 8198 8194 8200 8197 8198 8201 8199 8200 8203 8200 8199 8201 8203 8200 8204 8203 8205 8206 8208 8209 8212 8209 8216 8216 8217 8221 8220 8223 8225 8226 8221 8223 8221 8223 8222 8224 8226 8228 8227 8220 8221 8220 8220 8218 8215 8215 8215 8212 8211 8213 8208 8208 8209 8210 8207 8209 8204 8205 8208 8204 8206 8203 8202 8203 8204 8204 8206 8206 8202 8204 8203 8206 8206 8204 8204 8207 8199 8199 
8189 8189 8197 8193 8201 8200 8198 8202 8200 8204 8204 8197 8198 8204 8200 8200 8207 8202 8206 8206 8206 8204 8207 8210 8215 8215 8218 8222 8219 8224 8224 8221 8222 8221 8224 8220 8225 8225 8225 8226 8227 8222 8221 8217 8217 8216 8214 8215 8215 8214 8213 8214 8210 8209 8212 8208 8206 8209 8205 8207 8203 8203 8205 8204 8202 8201 8206 8202 8206 8203 8204 8205 8209 8203 8202 8202 8204 8203 8199 8195 
8189 8191 8192 8196 8199 8198 8196 8197 8201 8200 8197 8197 8200 8198 8197 8201 8204 8201 8206 8207 8207 8205 8207 8208 8219 8220 8220 8217 8220 8224 8224 8222 8219 8222 8219 8220 8225 8225 8226 8226 8223 8219 8220 8218 8216 8215 8210 8211 8213 8210 8213 8215 8212 8212 8208 8207 8207 8211 8205 8206 8206 8204 8205 8201 8204 8202 8202 8203 8205 8205 8199 8204 8203 8202 8201 8199 8195 8196 8193 8193 
8189 8194 8196 8193 8203 8200 8198 8201 8198 8197 8197 8196 8200 8198 8198 8196 8199 8196 8203 8209 8208 8205 8210 8210 8215 8217 8215 8213 8216 8224 8223 8224 8218 8218 8222 8220 8224 8222 8220 8224 8226 8220 8219 8217 8217 8216 8213 8210 8214 8211 8213 8214 8209 8214 8208 8206 8207 8207 8207 8204 8203 8203 8205 8204 8203 8201 8200 8200 8201 8202 8202 8202 8200 8198 8195 8194 8189 8192 8189 8190 
8191 8194 8197 8199 8200 8199 8202 8204 8199 8198 8193 8197 8197 8197 8193 8197 8202 8197 8205 8205 8205 8207 8212 8212 8216 8216 8210 8211 8218 8225 8223 8224 8217 8220 8223 8221 8221 8221 8222 8223 8225 8219 8217 8218 8215 8214 8210 8212 8211 8209 8212 8212 8209 8209 8205 8203 8202 8204 8202 8204 8200 8199 8203 8201 8200 8201 8199 8197 8199 8198 8198 8197 8197 8196 8190 8193 8190 8189 8187 8188 
8191 8195 8197 8201 8201 8202 8201 8203 8201 8196 8199 8195 8196 8196 8196 8196 8198 8199 8204 8206 8206 8204 8213 8216 8213 8217 8209 8207 8216 8225 8223 8220 8219 8220 8222 8222 8223 8217 8219 8222 8223 8219 8219 8216 8216 8214 8210 8210 8209 8207 8210 8209 8207 8208 8204 8203 8203 8204 8203 8203 8202 8197 8202 8199 8199 8198 8198 8198 8197 8198 8194 8198 8197 8195 8193 8190 8187 8188 8188 8187 
8194 8194 8199 8199 8200 8200 8201 8202 8203 8195 8197 8197 8198 8197 8193 8193 8197 8197 8206 8207 8204 8202 8208 8206 8206 8217 8211 8211 8215 8222 8221 8218 8218 8220 8221 8219 8224 8220 8219 8221 8224 8219 8222 8217 8215 8213 8215 8211 8212 8208 8208 8211 8206 8207 8205 8207 8198 8203 8202 8203 8200 8200 8200 8196 8197 8199 8198 8197 8198 8197 8194 8194 8196 8194 8190 8190 8187 8187 8191 8187 
8195 8194 8199 8194 8201 8196 8194 8202 8202 8200 8194 8191 8194 8197 8194 8195 8201 8197 8204 8206 8205 8201 8204 8206 8207 8209 8208 8211 8217 8221 8217 8217 8216 8218 8220 8217 8222 8219 8216 8221 8220 8217 8219 8214 8212 8214 8213 8210 8212 8205 8208 8211 8205 8208 8205 8205 8205 8203 8202 8203 8200 8197 8201 8198 8197 8197 8199 8198 8194 8194 8193 8195 8195 8192 8190 8187 8186 8188 8187 8187 
8190 8190 8199 8194 8194 8196 8195 8196 8197 8199 8196 8192 8196 8195 8192 8194 8196 8198 8196 8201 8202 8203 8208 8210 8208 8210 8208 8212 8218 8221 8218 8215 8215 8217 8218 8214 8220 8218 8217 8217 8219 8215 8216 8215 8213 8214 8211 8209 8208 8206 8206 8209 8209 8208 8204 8204 8201 8200 8201 8200 8200 8196 8201 8198 8195 8196 8196 8194 8195 8194 8192 8192 8191 8188 8186 8186 8188 8190 8184 8188 
8193 8195 8190 8190 8194 8193 8195 8195 8196 8191 8193 8192 8193 8194 8191 8194 8199 8193 8199 8202 8204 8204 8205 8207 8212 8210 8208 8210 8218 8222 8219 8219 8215 8217 8213 8213 8220 8216 8214 8213 8216 8214 8216 8215 8212 8216 8210 8210 8211 8205 8206 8208 8206 8207 8209 8202 8201 8197 8201 8202 8199 8196 8201 8198 8195 8191 8195 8193 8194 8194 8191 8192 8189 8187 8185 8189 8191 8188 8185 8186 
8195 8195 8194 8187 8189 8190 8193 8194 8195 8195 8191 8190 8190 8191 8195 8193 8195 8197 8202 8200 8200 8199 8206 8205 8209 8209 8208 8214 8219 8222 8220 8214 8215 8216 8212 8213 8217 8213 8212 8214 8214 8214 8216 8217 8215 8213 8209 8206 8208 8206 8206 8208 8208 8211 8206 8204 8199 8199 8201 8203 8198 8198 8199 8198 8193 8190 8194 8193 8195 8193 8190 8190 8187 8189 8186 8187 8191 8190 8185 8190 
8191 8199 8197 8189 8193 8189 8193 8193 8198 8193 8194 8192 8191 8193 8193 8192 8194 8196 8204 8203 8199 8201 8204 8205 8206 8209 8208 8210 8213 8217 8221 8213 8212 8213 8215 8210 8212 8210 8209 8208 8209 8211 8208 8210 8209 8210 8206 8206 8205 8203 8206 8209 8205 8207 8204 8200 8200 8199 8203 8204 8197 8196 8197 8198 8193 8189 8192 8188 8191 8196 8190 8191 8188 8187 8187 8187 8187 8187 8185 8186 
8190 8192 8195 8195 8196 8191 8193 8193 8197 8195 8197 8193 8190 8193 8191 8195 8196 8197 8200 8202 8199 8199 8205 8204 8210 8205 8208 8209 8211 8219 8214 8210 8211 8211 8212 8212 8210 8206 8206 8207 8195 8178 8177 8189 8205 8208 8205 8203 8204 8203 8208 8207 8207 8206 8204 8201 8197 8198 8200 8199 8194 8194 8196 8197 8191 8191 8193 8192 8189 8190 8191 8188 8185 8188 8186 8188 8188 8189 8185 8184 
8191 8189 8194 8193 8192 8195 8192 8195 8196 8194 8193 8191 8192 8192 8191 8196 8197 8196 8203 8203 8199 8200 8202 8203 8204 8207 8211 8205 8211 8219 8213 8212 8212 8209 8210 8199 8187 8169 8173 8186 8152 8143 8140 8173 8189 8199 8200 8201 8203 8203 8205 8208 8207 8206 8205 8199 8199 8195 8198 8197 8194 8193 8196 8197 8196 8191 8190 8188 8190 8189 8188 8189 8187 8188 8184 8187 8188 8188 8182 8185 
8187 8188 8193 8194 8193 8190 8193 8192 8195 8192 8191 8191 8191 8189 8190 8195 8196 8200 8202 8198 8199 8198 8201 8203 8201 8210 8208 8209 8208 8213 8213 8213 8210 8206 8176 8148 8141 8140 8140 8142 8167 8157 8142 8140 8140 8166 8191 8200 8201 8202 8204 8207 8204 8206 8200 8199 8198 8196 8196 8196 8195 8197 8195 8193 8191 8192 8190 8186 8190 8189 8188 8188 8187 8187 8187 8187 8188 8186 8183 8183 
8187 8189 8196 8190 8191 8188 8190 8192 8195 8195 8193 8189 8193 8194 8194 8194 8193 8197 8205 8200 8201 8196 8202 8202 8208 8209 8211 8207 8210 8214 8213 8210 8210 8208 8176 8137 8134 8132 8136 8149 8165 8156 8142 8138 8140 8162 8182 8199 8205 8203 8206 8203 8202 8200 8198 8198 8192 8196 8195 8194 8195 8198 8194 8193 8191 8192 8189 8188 8188 8190 8187 8187 8187 8187 8188 8185 8189 8186 8180 8182 
8194 8191 8195 8191 8194 8192 8191 8191 8196 8195 8189 8194 8194 8195 8194 8194 8195 8200 8199 8198 8195 8199 8202 8205 8207 8210 8211 8205 8201 8202 8206 8210 8210 8199 8150 8138 8142 8149 8164 8171 8171 8158 8144 8139 8133 8158 8191 8198 8201 8200 8201 8204 8200 8200 8197 8192 8193 8195 8195 8195 8192 8192 8194 8193 8189 8193 8190 8186 8186 8189 8185 8185 8188 8188 8187 8185 8186 8185 8183 8181 
8193 8192 8194 8192 8192 8191 8191 8194 8197 8198 8194 8194 8192 8191 8194 8196 8195 8196 8199 8197 8199 8201 8205 8203 8205 8205 8207 8194 8167 8170 8177 8207 8208 8176 8158 8173 8194 8195 8201 8204 8192 8147 8169 8157 8134 8166 8194 8196 8200 8200 8200 8204 8199 8197 8194 8194 8193 8196 8193 8195 8190 8191 8193 8192 8191 8190 8188 8185 8189 8190 8188 8188 8187 8186 8185 8186 8185 8187 8181 8185 
8194 8195 8196 8191 8193 8190 8190 8193 8196 8196 8193 8189 8191 8195 8193 8196 8195 8196 8196 8197 8197 8198 8204 8203 8207 8205 8203 8194 8164 8172 8175 8204 8205 8205 8205 8196 8191 8183 8187 8192 8191 8158 8195 8193 8150 8179 8196 8195 8196 8194 8197 8200 8198 8197 8198 8199 8195 8197 8194 8191 8193 8189 8194 8193 8190 8189 8189 8185 8189 8191 8188 8187 8187 8187 8183 8188 8185 8190 8183 8183 
8194 8199 8194 8194 8193 8191 8184 8187 8191 8194 8194 8189 8194 8193 8193 8193 8195 8192 8197 8197 8199 8200 8203 8206 8203 8204 8203 8195 8169 8173 8171 8196 8194 8174 8161 8150 8149 8143 8140 8140 8147 8158 8197 8198 8193 8194 8194 8194 8194 8194 8196 8199 8198 8201 8199 8196 8192 8192 8191 8189 8190 8192 8190 8190 8192 8191 8192 8187 8188 8191 8189 8186 8187 8185 8184 8185 8187 8188 8181 8183 
8197 8198 8197 8195 8195 8191 8186 8188 8189 8192 8195 8195 8190 8192 8193 8192 8193 8193 8194 8197 8200 8201 8205 8208 8206 8206 8206 8198 8167 8172 8171 8193 8184 8167 8141 8138 8147 8154 8142 8141 8166 8154 8175 8199 8198 8198 8195 8191 8194 8191 8196 8197 8196 8200 8195 8195 8192 8193 8188 8186 8187 8187 8191 8192 8190 8194 8191 8189 8188 8186 8186 8182 8185 8185 8182 8186 8185 8183 8181 8179 
8193 8194 8196 8196 8194 8195 8190 8188 8190 8191 8194 8191 8190 8193 8193 8192 8194 8191 8199 8195 8201 8199 8210 8203 8206 8205 8204 8197 8169 8170 8171 8195 8197 8159 8139 8142 8176 8192 8166 8153 8178 8174 8196 8200 8198 8196 8191 8192 8191 8189 8194 8199 8193 8197 8196 8192 8194 8190 8189 8190 8190 8188 8192 8194 8190 8194 8192 8188 8189 8187 8185 8183 8184 8182 8179 8183 8184 8184 8180 8180 
8194 8192 8199 8192 8194 8193 8190 8191 8193 8193 8196 8192 8194 8193 8194 8193 8194 8198 8201 8192 8199 8199 8201 8200 8204 8207 8202 8196 8166 8168 8172 8195 8196 8155 8150 8176 8199 8200 8201 8191 8169 8179 8203 8193 8161 8174 8185 8180 8168 8179 8189 8194 8193 8195 8196 8192 8193 8195 8189 8192 8189 8191 8192 8189 8190 8192 8192 8192 8188 8189 8182 8182 8185 8184 8181 8182 8182 8182 8177 8181 
8194 8193 8195 8195 8197 8191 8191 8189 8192 8193 8193 8192 8191 8193 8196 8195 8198 8199 8198 8193 8195 8198 8201 8198 8202 8202 8202 8198 8167 8165 8169 8194 8205 8185 8183 8199 8204 8202 8203 8202 8180 8187 8200 8178 8143 8145 8148 8145 8141 8141 8146 8166 8176 8185 8192 8190 8192 8192 8192 8193 8193 8191 8192 8192 8193 8191 8192 8191 8190 8184 8181 8184 8183 8184 8182 8183 8183 8181 8178 8184 
8192 8195 8194 8193 8194 8190 8188 8188 8189 8195 8193 8192 8190 8192 8193 8193 8197 8200 8198 8194 8193 8196 8200 8200 8203 8199 8200 8198 8174 8173 8168 8188 8202 8202 8202 8202 8202 8201 8201 8201 8179 8180 8199 8172 8141 8148 8144 8133 8136 8133 8150 8153 8141 8146 8164 8181 8188 8193 8193 8194 8190 8191 8190 8195 8192 8195 8191 8188 8186 8184 8183 8184 8177 8184 8179 8181 8182 8180 8179 8180 
8190 8193 8192 8192 8195 8190 8190 8190 8192 8196 8195 8191 8193 8192 8194 8192 8195 8194 8196 8193 8193 8196 8200 8199 8203 8203 8198 8198 8175 8175 8170 8187 8198 8201 8202 8198 8193 8187 8197 8198 8180 8177 8193 8177 8144 8135 8147 8131 8130 8144 8186 8190 8177 8180 8174 8164 8189 8194 8196 8193 8191 8190 8191 8190 8191 8195 8188 8186 8186 8184 8180 8180 8182 8179 8180 8182 8183 8183 8182 8180 
8188 8192 8196 8194 8197 8192 8189 8193 8196 8198 8196 8195 8192 8193 8192 8192 8197 8198 8197 8193 8194 8194 8202 8201 8204 8199 8199 8200 8176 8174 8171 8184 8196 8177 8169 8167 8153 8156 8178 8193 8177 8169 8182 8179 8167 8141 8180 8152 8148 8178 8193 8195 8196 8197 8197 8188 8185 8196 8193 8192 8190 8191 8193 8193 8195 8196 8190 8187 8183 8184 8180 8181 8180 8184 8181 8184 8186 8182 8178 8181 
8189 8191 8195 8192 8195 8195 8191 8194 8196 8195 8201 8194 8192 8192 8193 8190 8197 8199 8196 8192 8192 8194 8197 8204 8202 8201 8201 8201 8179 8176 8173 8180 8195 8189 8165 8150 8150 8160 8161 8154 8146 8153 8164 8192 8192 8187 8191 8185 8188 8191 8199 8194 8193 8201 8197 8197 8194 8191 8195 8191 8188 8191 8194 8195 8197 8193 8189 8189 8182 8182 8179 8182 8183 8182 8184 8181 8184 8181 8180 8182 
8188 8193 8197 8193 8193 8194 8191 8195 8199 8194 8193 8195 8189 8194 8195 8191 8197 8196 8195 8192 8193 8193 8199 8200 8203 8200 8200 8199 8182 8175 8172 8177 8195 8195 8166 8144 8149 8146 8142 8137 8146 8154 8143 8187 8195 8196 8193 8191 8193 8192 8199 8197 8194 8195 8197 8193 8195 8194 8192 8190 8189 8191 8196 8195 8190 8190 8188 8185 8183 8184 8182 8182 8184 8185 8185 8184 8184 8186 8182 8179 
8189 8192 8194 8192 8192 8192 8194 8196 8198 8194 8192 8190 8192 8192 8196 8194 8192 8193 8191 8193 8193 8194 8199 8201 8202 8201 8198 8201 8186 8174 8169 8172 8191 8192 8156 8151 8148 8140 8158 8156 8144 8162 8166 8183 8196 8200 8196 8193 8193 8193 8194 8195 8192 8197 8196 8191 8192 8192 8192 8193 8191 8190 8190 8191 8190 8192 8191 8188 8186 8183 8183 8183 8183 8184 8184 8187 8189 8183 8183 8183 
8195 8198 8196 8195 8194 8190 8192 8192 8200 8194 8193 8193 8188 8190 8188 8193 8195 8191 8190 8190 8195 8194 8198 8201 8202 8199 8198 8198 8185 8167 8162 8160 8169 8176 8167 8169 8154 8139 8159 8178 8154 8162 8186 8179 8195 8200 8195 8194 8195 8193 8195 8195 8196 8197 8194 8192 8189 8193 8193 8192 8191 8189 8189 8191 8190 8192 8191 8187 8188 8187 8185 8186 8184 8187 8183 8190 8188 8185 8179 8180 
8194 8199 8199 8197 8198 8193 8191 8194 8195 8191 8192 8194 8188 8191 8190 8191 8191 8192 8198 8192 8194 8195 8196 8195 8199 8201 8200 8197 8178 8151 8146 8145 8151 8146 8143 8157 8177 8140 8137 8146 8145 8150 8155 8165 8193 8202 8197 8195 8196 8195 8194 8194 8193 8198 8194 8190 8191 8189 8192 8189 8189 8191 8190 8191 8189 8193 8191 8188 8189 8185 8186 8188 8187 8189 8190 8187 8186 8187 8179 8180 
8201 8200 8203 8203 8200 8194 8196 8198 8193 8194 8195 8193 8191 8191 8194 8191 8192 8196 8196 8196 8195 8195 8195 8196 8198 8196 8199 8190 8166 8155 8147 8153 8179 8151 8143 8149 8157 8145 8142 8142 8141 8140 8143 8142 8174 8195 8195 8195 8196 8195 8196 8198 8195 8197 8196 8193 8192 8192 8189 8190 8189 8187 8190 8189 8188 8190 8192 8190 8188 8192 8188 8189 8186 8190 8190 8189 8190 8185 8182 8179 
8203 8205 8201 8202 8200 8197 8198 8197 8198 8195 8193 8195 8195 8193 8195 8195 8198 8198 8201 8197 8198 8197 8197 8198 8198 8196 8196 8177 8151 8153 8151 8161 8185 8160 8142 8145 8147 8148 8145 8143 8138 8139 8144 8138 8143 8178 8193 8195 8197 8198 8200 8196 8197 8197 8194 8193 8191 8191 8194 8191 8190 8189 8190 8191 8190 8193 8188 8190 8188 8188 8189 8187 8189 8193 8190 8191 8189 8190 8184 8183 
8202 8202 8204 8196 8203 8200 8200 8199 8196 8195 8199 8198 8197 8194 8196 8193 8197 8195 8196 8196 8197 8196 8200 8197 8195 8191 8190 8167 8151 8158 8163 8164 8177 8170 8144 8144 8150 8146 8142 8141 8142 8138 8143 8152 8141 8152 8184 8189 8190 8190 8193 8195 8192 8194 8197 8196 8193 8188 8192 8193 8189 8188 8191 8192 8190 8189 8191 8187 8189 8190 8189 8189 8189 8192 8190 8192 8194 8192 8185 8183 
8205 8203 8201 8198 8200 8200 8201 8199 8198 8198 8197 8198 8197 8195 8197 8194 8196 8193 8198 8198 8195 8187 8183 8179 8185 8181 8179 8160 8152 8151 8167 8164 8179 8179 8149 8151 8167 8150 8140 8138 8144 8143 8142 8157 8153 8153 8182 8188 8189 8188 8187 8190 8187 8192 8197 8195 8193 8193 8193 8190 8185 8188 8191 8192 8192 8193 8191 8191 8188 8191 8186 8189 8191 8193 8193 8189 8193 8192 8187 8188 
8203 8207 8206 8204 8202 8199 8199 8196 8199 8200 8197 8198 8195 8195 8194 8195 8193 8197 8200 8195 8186 8179 8183 8181 8182 8182 8178 8162 8175 8168 8172 8167 8179 8180 8172 8178 8181 8154 8142 8142 8144 8154 8148 8154 8159 8160 8172 8187 8193 8189 8189 8191 8192 8194 8196 8194 8189 8191 8190 8190 8187 8186 8190 8194 8192 8195 8192 8191 8189 8191 8190 8188 8191 8192 8193 8193 8194 8191 8184 8186 
8203 8206 8208 8203 8205 8201 8202 8201 8201 8198 8199 8199 8197 8196 8195 8191 8195 8196 8198 8197 8196 8187 8183 8185 8185 8185 8184 8185 8187 8180 8173 8167 8176 8182 8186 8178 8174 8157 8149 8150 8153 8165 8163 8170 8182 8181 8186 8209 8226 8225 8205 8195 8196 8196 8194 8193 8190 8191 8190 8191 8188 8187 8189 8189 8191 8196 8193 8192 8194 8193 8190 8190 8193 8194 8193 8191 8192 8189 8190 8192 
8201 8204 8209 8201 8203 8202 8202 8202 8203 8201 8197 8200 8197 8194 8198 8195 8195 8199 8204 8201 8201 8188 8182 8184 8185 8187 8186 8189 8194 8197 8195 8192 8190 8190 8192 8191 8196 8188 8188 8187 8189 8191 8196 8193 8195 8206 8222 8238 8239 8228 8206 8199 8201 8201 8197 8192 8191 8192 8186 8189 8187 8186 8191 8191 8191 8193 8191 8190 8193 8191 8188 8191 8193 8199 8196 8193 8194 8192 8188 8197 
8199 8199 8206 8201 8201 8200 8201 8203 8204 8202 8201 8198 8199 8199 8202 8198 8198 8201 8201 8202 8201 8194 8187 8186 8189 8189 8190 8192 8195 8198 8199 8194 8194 8196 8201 8199 8201 8196 8196 8195 8199 8200 8200 8200 8200 8204 8207 8215 8216 8209 8201 8203 8204 8199 8199 8193 8189 8191 8193 8188 8190 8187 8194 8191 8193 8194 8190 8189 8192 8191 8190 8191 8193 8195 8198 8195 8192 8189 8187 8193 
8198 8196 8200 8200 8201 8199 8201 8203 8206 8202 8201 8203 8199 8200 8195 8197 8198 8201 8203 8203 8202 8193 8190 8187 8187 8186 8195 8193 8196 8198 8201 8197 8194 8201 8204 8202 8204 8199 8198 8196 8200 8201 8202 8202 8203 8211 8203 8199 8195 8193 8194 8201 8201 8195 8197 8194 8189 8190 8191 8191 8189 8190 8193 8193 8191 8192 8189 8188 8192 8189 8191 8190 8189 8194 8196 8193 8193 8190 8188 8187 
8200 8200 8200 8201 8202 8198 8200 8201 8203 8202 8201 8201 8200 8203 8200 8199 8199 8201 8200 8201 8201 8197 8193 8185 8189 8189 8194 8197 8198 8200 8203 8194 8194 8199 8202 8201 8205 8203 8200 8201 8206 8208 8210 8213 8209 8214 8205 8192 8189 8185 8192 8196 8196 8197 8194 8193 8189 8191 8190 8189 8191 8190 8191 8192 8189 8190 8188 8188 8189 8191 8189 8189 8192 8193 8194 8194 8191 8192 8185 8191 
8202 8201 8204 8200 8205 8197 8200 8200 8203 8202 8199 8203 8203 8207 8202 8201 8202 8202 8202 8199 8199 8202 8198 8188 8190 8193 8191 8196 8197 8199 8200 8195 8193 8196 8200 8204 8205 8202 8204 8205 8211 8212 8212 8210 8203 8205 8197 8189 8190 8187 8189 8199 8194 8198 8195 8194 8193 8193 8192 8191 8189 8189 8191 8195 8192 8191 8190 8185 8189 8193 8190 8187 8191 8195 8191 8192 8188 8191 8191 8189 
8199 8200 8203 8198 8202 8199 8201 8202 8202 8201 8201 8201 8200 8204 8205 8201 8203 8201 8202 8202 8201 8201 8201 8187 8190 8193 8192 8193 8197 8204 8201 8199 8199 8198 8199 8201 8199 8201 8206 8210 8210 8205 8206 8205 8196 8198 8194 8195 8191 8188 8194 8202 8195 8194 8193 8188 8190 8194 8191 8192 8191 8188 8190 8190 8195 8191 8190 8190 8190 8189 8188 8190 8193 8194 8194 8190 8191 8187 8189 8190 
8198 8202 8202 8201 8204 8200 8204 8204 8205 8200 8205 8204 8205 8203 8203 8203 8203 8204 8200 8202 8201 8205 8204 8191 8194 8192 8193 8194 8201 8207 8203 8201 8201 8197 8198 8202 8205 8204 8217 8214 8212 8209 8201 8201 8194 8197 8193 8195 8191 8190 8196 8204 8192 8193 8193 8193 8191 8191 8190 8188 8187 8188 8192 8192 8190 8190 8191 8189 8187 8190 8192 8193 8190 8192 8193 8190 8189 8189 8187 8186 
8194 8201 8202 8199 8206 8201 8202 8206 8209 8204 8204 8204 8203 8202 8202 8201 8205 8203 8202 8202 8201 8202 8205 8194 8194 8192 8189 8194 8200 8205 8200 8203 8200 8200 8203 8200 8204 8208 8206 8205 8206 8202 8198 8198 8196 8192 8191 8191 8193 8192 8197 8200 8196 8194 8195 8193 8190 8190 8189 8185 8187 8187 8191 8189 8189 8192 8191 8187 8190 8193 8191 8191 8193 8193 8194 8193 8191 8188 8186 8189 
8190 8191 8197 8196 8204 8204 8202 8205 8206 8204 8202 8204 8205 8197 8200 8199 8200 8200 8202 8201 8202 8202 8204 8196 8193 8196 8192 8190 8195 8206 8204 8198 8200 8199 8201 8200 8202 8197 8196 8197 8200 8197 8200 8197 8195 8195 8189 8189 8191 8193 8198 8201 8200 8201 8198 8194 8192 8194 8190 8190 8186 8186 8189 8191 8191 8192 8192 8193 8191 8194 8192 8195 8192 8195 8194 8193 8192 8189 8185 8188 
8187 8182 8189 8186 8195 8199 8202 8201 8206 8203 8201 8202 8201 8193 8201 8197 8202 8197 8202 8197 8202 8202 8205 8193 8190 8193 8195 8194 8195 8203 8205 8199 8199 8197 8200 8198 8200 8195 8193 8196 8198 8197 8196 8201 8193 8194 8190 8190 8191 8190 8197 8203 8201 8200 8198 8192 8194 8194 8193 8189 8187 8189 8194 8189 8191 8193 8191 8191 8194 8192 8192 8197 8197 8199 8196 8196 8193 8193 8191 8190 
8183 8179 8180 8181 8187 8188 8197 8194 8200 8197 8198 8197 8200 8198 8198 8196 8198 8198 8198 8197 8198 8197 8202 8196 8189 8188 8190 8191 8194 8202 8208 8201 8198 8201 8199 8202 8200 8197 8197 8197 8198 8197 8200 8196 8191 8191 8189 8189 8190 8189 8191 8203 8200 8201 8197 8195 8194 8195 8191 8187 8186 8188 8190 8191 8190 8194 8192 8194 8194 8196 8195 8192 8197 8200 8197 8196 8195 8191 8187 8189 
8186 8182 8185 8185 8188 8190 8191 8200 8200 8194 8193 8198 8200 8198 8195 8189 8191 8194 8194 8193 8193 8197 8200 8198 8192 8191 8191 8191 8197 8204 8202 8201 8197 8199 8197 8196 8200 8197 8197 8199 8201 8196 8196 8196 8189 8193 8187 8189 8190 8187 8191 8187 8192 8200 8199 8196 8196 8194 8193 8191 8187 8188 8190 8191 8190 8193 8196 8192 8194 8196 8195 8195 8195 8197 8195 8193 8194 8192 8186 8185 
8185 8187 8185 8187 8194 8189 8194 8198 8196 8194 8193 8197 8195 8189 8187 8184 8191 8192 8192 8191 8188 8191 8196 8192 8191 8194 8195 8194 8196 8199 8201 8199 8196 8199 8200 8196 8201 8196 8195 8196 8196 8195 8196 8196 8192 8192 8187 8188 8190 8185 8181 8171 8171 8186 8192 8197 8196 8192 8193 8192 8188 8187 8191 8189 8189 8194 8194 8192 8195 8193 8191 8195 8196 8192 8193 8193 8192 8194 8183 8189 
8187 8188 8188 8191 8195 8194 8191 8195 8195 8199 8203 8192 8192 8191 8188 8188 8192 8186 8190 8186 8185 8187 8190 8188 8190 8194 8192 8193 8193 8195 8195 8195 8196 8199 8200 8199 8202 8197 8190 8191 8193 8194 8196 8198 8193 8192 8189 8186 8189 8187 8180 8170 8167 8169 8181 8196 8192 8193 8189 8185 8183 8184 8189 8186 8188 8188 8187 8191 8194 8189 8193 8194 8191 8192 8193 8192 8192 8186 8184 8180 
8194 8195 8194 8190 8195 8189 8196 8198 8195 8205 8200 8191 8192 8191 8188 8192 8190 8189 8189 8187 8184 8189 8190 8184 8185 8187 8188 8195 8196 8195 8192 8193 8198 8199 8203 8201 8202 8195 8191 8192 8195 8194 8198 8198 8198 8191 8184 8187 8189 8186 8178 8177 8171 8170 8171 8186 8183 8177 8177 8172 8173 8175 8174 8173 8173 8178 8174 8177 8189 8186 8185 8187 8190 8190 8187 8184 8183 8188 8181 8184 
8194 8200 8192 8191 8195 8195 8193 8198 8200 8195 8197 8199 8200 8199 8196 8193 8195 8193 8190 8188 8192 8193 8192 8191 8185 8170 8184 8185 8191 8197 8193 8194 8195 8193 8201 8196 8198 8191 8190 8189 8191 8194 8196 8196 8193 8191 8182 8186 8191 8185 8176 8173 8166 8172 8171 8176 8172 8178 8174 8171 8169 8173 8178 8172 8177 8178 8175 8175 8181 8183 8180 8183 8184 8186 8182 8187 8189 8183 8176 8181 
8199 8197 8201 8194 8193 8190 8195 8200 8199 8203 8202 8204 8206 8205 8200 8191 8194 8192 8192 8197 8194 8187 8192 8190 8190 8168 8168 8182 8192 8191 8192 8189 8193 8189 8193 8195 8195 8190 8186 8188 8188 8188 8193 8187 8190 8182 8181 8182 8185 8183 8174 8168 8169 8169 8173 8169 8167 8166 8169 8166 8163 8171 8172 8172 8172 8177 8175 8175 8179 8181 8182 8182 8184 8185 8184 8178 8182 8182 8178 8182 
8200 8202 8200 8193 8198 8197 8194 8194 8197 8199 8207 8207 8208 8205 8207 8197 8196 8197 8197 8201 8197 8192 8195 8199 8196 8189 8186 8185 8187 8191 8190 8189 8184 8187 8187 8184 8190 8182 8183 8192 8190 8184 8186 8188 8184 8182 8180 8180 8181 8175 8172 8170 8169 8168 8171 8169 8168 8167 8169 8169 8159 8168 8173 8172 8170 8172 8178 8178 8175 8182 8181 8185 8183 8184 8182 8183 8181 8181 8180 8175 
8206 8201 8197 8193 8202 8195 8189 8188 8189 8192 8196 8208 8209 8201 8195 8185 8187 8192 8202 8196 8189 8181 8183 8187 8201 8197 8193 8191 8189 8191 8190 8181 8182 8186 8182 8183 8186 8185 8184 8190 8191 8183 8187 8179 8181 8179 8176 8178 8177 8174 8172 8174 8171 8168 8169 8169 8165 8165 8174 8166 8167 8167 8171 8174 8173 8175 8179 8183 8179 8181 8182 8184 8181 8182 8182 8184 8186 8179 8177 8180 
8222 8209 8204 8200 8200 8196 8195 8199 8203 8203 8205 8208 8209 8203 8197 8190 8191 8190 8200 8195 8188 8182 8183 8189 8190 8194 8188 8186 8187 8190 8189 8181 8179 8186 8186 8181 8182 8179 8180 8182 8187 8177 8177 8177 8172 8173 8171 8175 8175 8171 8171 8171 8163 8157 8154 8159 8161 8165 8166 8169 8167 8164 8169 8170 8173 8174 8175 8179 8179 8183 8184 8188 8185 8182 8183 8187 8183 8179 8177 8180 


