P2
80 60
8179
8085 8085 8093 8116 8123 8125 8122 8120 8120 8124 8131 8134 8135 8135 8136 8135 8138 8140 8141 8143 8144 8147 8150 8152 8151 8150 8150 8151 8151 8152 8156 8160 8159 8157 8156 8161 8158 8159 8165 8166 8164 8161 8164 8158 8165 8165 8164 8163 8163 8158 8157 8149 8148 8145 8141 8142 8144 8144 8141 8146 8145 8148 8147 8147 8146 8148 8148 8147 8148 8152 8153 8153 8151 8148 8149 8153 8153 8159 8162 8156 
8074 8081 8101 8116 8127 8126 8126 8121 8126 8129 8134 8135 8133 8135 8135 8137 8139 8141 8140 8144 8151 8148 8149 8148 8151 8149 8153 8153 8156 8152 8161 8159 8160 8159 8158 8159 8156 8159 8159 8160 8147 8142 8141 8142 8155 8161 8160 8162 8161 8158 8153 8151 8146 8146 8144 8141 8140 8143 8144 8148 8147 8145 8147 8145 8141 8146 8149 8149 8149 8151 8150 8151 8149 8152 8149 8150 8150 8155 8157 8161 
8064 8071 8104 8118 8124 8124 8124 8129 8128 8131 8133 8130 8134 8134 8135 8138 8140 8144 8144 8145 8147 8148 8151 8150 8149 8157 8151 8154 8155 8154 8153 8156 8159 8159 8156 8158 8154 8156 8147 8128 8108 8103 8107 8108 8125 8132 8140 8155 8162 8155 8156 8153 8147 8147 8148 8146 8145 8143 8144 8145 8149 8149 8146 8147 8146 8149 8147 8150 8150 8150 8152 8151 8151 8150 8148 8149 8149 8152 8157 8156 
8065 8081 8116 8121 8126 8127 8127 8127 8129 8133 8132 8129 8132 8133 8134 8140 8141 8146 8142 8144 8146 8146 8145 8150 8150 8151 8155 8152 8155 8157 8158 8157 8158 8157 8158 8158 8155 8144 8118 8105 8104 8109 8116 8105 8102 8104 8120 8154 8159 8158 8156 8157 8149 8148 8150 8147 8149 8146 8147 8145 8148 8152 8149 8146 8146 8144 8149 8151 8151 8150 8152 8147 8147 8146 8150 8148 8147 8150 8154 8153 
8072 8096 8120 8119 8126 8130 8130 8124 8128 8130 8130 8126 8135 8137 8134 8140 8140 8142 8145 8144 8146 8146 8144 8144 8150 8153 8154 8150 8154 8155 8155 8159 8156 8155 8156 8160 8156 8148 8135 8113 8109 8124 8126 8109 8102 8111 8144 8160 8160 8163 8156 8152 8151 8149 8151 8148 8146 8144 8149 8146 8151 8154 8151 8149 8143 8150 8149 8147 8150 8150 8151 8149 8148 8148 8145 8146 8147 8147 8156 8152 
8089 8109 8120 8125 8127 8127 8133 8131 8131 8131 8124 8134 8140 8135 8134 8140 8143 8142 8145 8149 8148 8150 8149 8149 8154 8155 8152 8151 8150 8153 8162 8161 8161 8156 8158 8159 8154 8126 8113 8117 8116 8116 8124 8111 8127 8145 8161 8163 8162 8163 8157 8156 8154 8152 8151 8152 8150 8151 8152 8152 8150 8155 8151 8150 8151 8151 8149 8148 8149 8151 8152 8149 8148 8145 8143 8146 8144 8144 8154 8152 
8106 8120 8124 8131 8129 8131 8139 8137 8134 8126 8127 8141 8142 8137 8138 8142 8140 8145 8147 8153 8148 8150 8152 8153 8156 8155 8151 8150 8153 8159 8162 8163 8159 8160 8154 8144 8131 8145 8157 8159 8156 8136 8123 8126 8149 8163 8167 8165 8165 8160 8156 8157 8155 8155 8153 8151 8152 8150 8154 8153 8154 8156 8156 8153 8150 8153 8151 8151 8151 8148 8153 8149 8151 8146 8145 8145 8147 8143 8150 8150 
8117 8127 8125 8134 8129 8137 8139 8143 8139 8128 8139 8140 8139 8138 8141 8143 8145 8145 8147 8147 8154 8152 8155 8156 8158 8157 8151 8152 8153 8161 8163 8161 8154 8154 8134 8106 8099 8115 8154 8168 8165 8151 8123 8151 8164 8169 8166 8166 8166 8163 8161 8157 8156 8155 8150 8152 8152 8151 8153 8151 8152 8154 8156 8153 8150 8151 8151 8153 8151 8148 8150 8151 8149 8149 8147 8146 8144 8145 8149 8151 
8123 8125 8128 8129 8136 8134 8141 8139 8137 8132 8137 8137 8140 8140 8138 8141 8145 8145 8149 8153 8153 8150 8153 8153 8152 8157 8156 8153 8156 8158 8160 8137 8126 8113 8107 8105 8099 8109 8143 8144 8146 8149 8133 8154 8166 8168 8168 8165 8164 8157 8156 8156 8153 8155 8152 8149 8148 8150 8154 8153 8151 8153 8155 8155 8152 8154 8152 8153 8151 8149 8152 8153 8151 8146 8143 8148 8148 8143 8146 8147 
8133 8127 8130 8134 8137 8138 8134 8136 8136 8136 8138 8141 8139 8141 8141 8146 8148 8148 8154 8156 8152 8151 8152 8153 8152 8155 8158 8159 8159 8156 8139 8104 8096 8097 8118 8122 8109 8110 8114 8101 8101 8125 8139 8153 8164 8168 8166 8166 8164 8160 8155 8157 8153 8153 8150 8146 8151 8150 8148 8154 8151 8155 8151 8151 8148 8152 8154 8155 8151 8152 8154 8153 8151 8151 8149 8144 8146 8145 8153 8143 
8135 8130 8135 8133 8134 8139 8132 8135 8136 8134 8139 8139 8139 8140 8139 8145 8144 8144 8145 8150 8151 8152 8154 8153 8150 8154 8158 8158 8157 8156 8120 8095 8093 8097 8098 8111 8133 8127 8106 8099 8100 8107 8122 8147 8147 8150 8154 8157 8153 8151 8152 8156 8155 8152 8148 8148 8149 8149 8151 8150 8153 8154 8152 8150 8148 8150 8151 8157 8154 8151 8154 8151 8151 8149 8146 8150 8147 8145 8148 8149 
8139 8140 8136 8132 8133 8132 8135 8134 8136 8136 8140 8137 8142 8141 8140 8145 8143 8145 8144 8153 8153 8153 8151 8156 8157 8155 8158 8157 8159 8149 8109 8098 8095 8097 8095 8109 8104 8129 8121 8108 8103 8111 8116 8119 8103 8102 8107 8111 8107 8113 8132 8149 8153 8150 8147 8148 8149 8148 8152 8150 8151 8152 8152 8151 8150 8153 8152 8151 8151 8149 8151 8149 8152 8150 8145 8147 8149 8149 8153 8151 
8141 8140 8134 8133 8131 8137 8136 8132 8134 8135 8136 8140 8140 8139 8142 8144 8146 8150 8147 8153 8154 8153 8151 8151 8157 8157 8157 8157 8157 8141 8111 8101 8107 8131 8128 8097 8094 8100 8102 8107 8105 8103 8117 8113 8105 8100 8094 8096 8094 8093 8103 8130 8146 8143 8137 8144 8145 8149 8148 8150 8152 8155 8151 8151 8152 8153 8155 8154 8151 8149 8150 8150 8149 8149 8150 8152 8150 8151 8154 8150 
8144 8144 8141 8138 8135 8137 8136 8139 8132 8140 8143 8143 8141 8141 8145 8141 8148 8152 8149 8152 8150 8147 8145 8152 8153 8156 8155 8154 8158 8150 8154 8144 8151 8148 8111 8097 8093 8098 8094 8091 8095 8102 8119 8127 8111 8098 8089 8087 8091 8089 8099 8114 8119 8107 8107 8115 8141 8147 8150 8152 8151 8151 8153 8151 8152 8154 8152 8155 8151 8146 8150 8151 8150 8148 8147 8150 8153 8151 8153 8149 
8140 8136 8139 8138 8140 8139 8137 8141 8134 8137 8142 8143 8145 8146 8147 8146 8148 8150 8148 8131 8119 8116 8128 8151 8154 8154 8158 8156 8156 8160 8158 8158 8157 8129 8095 8097 8096 8105 8095 8092 8090 8109 8117 8115 8100 8097 8087 8087 8088 8092 8102 8128 8107 8098 8098 8101 8122 8146 8151 8151 8152 8154 8150 8151 8152 8155 8156 8155 8152 8150 8150 8148 8151 8149 8146 8150 8156 8148 8152 8151 
8141 8137 8133 8137 8138 8139 8140 8142 8139 8140 8145 8142 8143 8146 8145 8149 8149 8152 8150 8116 8109 8115 8118 8146 8150 8156 8161 8157 8160 8161 8163 8159 8151 8111 8093 8098 8114 8108 8112 8100 8093 8097 8103 8111 8103 8100 8093 8089 8093 8102 8092 8108 8100 8102 8102 8103 8118 8141 8150 8151 8153 8150 8152 8150 8154 8153 8154 8152 8151 8148 8151 8149 8150 8148 8147 8152 8151 8148 8153 8150 
8144 8133 8137 8138 8136 8138 8138 8142 8140 8142 8145 8147 8144 8143 8146 8149 8151 8155 8152 8132 8112 8117 8120 8136 8150 8158 8157 8158 8157 8160 8160 8158 8142 8102 8097 8114 8133 8127 8131 8099 8094 8096 8097 8102 8100 8097 8092 8091 8089 8090 8088 8097 8097 8096 8117 8124 8133 8142 8149 8148 8150 8150 8149 8150 8153 8151 8154 8150 8148 8149 8149 8150 8150 8149 8149 8147 8150 8146 8151 8152 
8146 8136 8139 8134 8139 8143 8140 8145 8145 8145 8146 8147 8147 8151 8150 8150 8151 8153 8151 8145 8116 8117 8121 8123 8149 8157 8158 8154 8159 8157 8152 8147 8131 8115 8132 8137 8134 8130 8120 8095 8094 8092 8094 8094 8098 8096 8093 8091 8093 8091 8101 8099 8091 8089 8112 8137 8141 8142 8148 8151 8149 8151 8151 8150 8152 8154 8150 8153 8152 8144 8148 8147 8147 8149 8149 8148 8148 8147 8150 8150 
8144 8134 8141 8139 8144 8144 8150 8148 8149 8143 8147 8148 8150 8152 8149 8151 8149 8152 8150 8151 8127 8119 8121 8123 8147 8158 8162 8158 8154 8144 8142 8140 8141 8140 8141 8140 8117 8106 8098 8095 8093 8090 8096 8097 8095 8095 8101 8093 8094 8094 8132 8117 8091 8089 8113 8140 8146 8148 8148 8150 8149 8151 8154 8154 8153 8152 8152 8151 8150 8150 8151 8149 8147 8148 8147 8148 8147 8147 8151 8150 
8141 8139 8141 8140 8139 8150 8147 8148 8148 8145 8149 8151 8149 8152 8155 8153 8151 8152 8150 8153 8140 8121 8123 8123 8132 8155 8159 8152 8143 8139 8142 8143 8146 8142 8126 8121 8104 8099 8097 8098 8091 8087 8099 8095 8094 8091 8095 8093 8097 8095 8123 8142 8111 8094 8109 8137 8147 8150 8147 8148 8148 8149 8154 8153 8152 8153 8152 8152 8149 8149 8151 8152 8148 8147 8146 8148 8147 8144 8147 8143 
8144 8143 8144 8135 8139 8141 8145 8148 8151 8146 8151 8152 8150 8149 8148 8151 8152 8152 8150 8153 8149 8127 8122 8125 8124 8148 8147 8140 8139 8141 8146 8145 8124 8108 8111 8106 8105 8101 8098 8097 8096 8092 8097 8093 8090 8092 8097 8103 8095 8097 8135 8142 8143 8117 8107 8141 8148 8148 8149 8145 8145 8150 8151 8154 8152 8154 8151 8154 8150 8152 8153 8153 8149 8148 8145 8149 8148 8147 8148 8145 
8149 8146 8143 8147 8147 8148 8141 8150 8141 8149 8149 8149 8155 8154 8149 8152 8151 8153 8145 8150 8153 8145 8122 8125 8123 8135 8138 8138 8141 8145 8142 8135 8109 8101 8107 8110 8109 8102 8103 8100 8099 8095 8093 8088 8088 8094 8107 8113 8096 8110 8139 8143 8164 8154 8137 8146 8150 8150 8148 8146 8146 8151 8153 8153 8150 8156 8155 8156 8148 8152 8151 8149 8148 8148 8147 8145 8147 8146 8150 8149 
8149 8145 8147 8149 8151 8147 8138 8141 8139 8148 8154 8151 8153 8155 8151 8150 8151 8150 8145 8153 8153 8156 8130 8129 8127 8126 8135 8138 8140 8136 8132 8118 8103 8109 8116 8113 8106 8105 8102 8096 8100 8100 8096 8090 8089 8094 8106 8113 8099 8114 8130 8134 8163 8178 8150 8148 8147 8148 8146 8147 8150 8153 8152 8152 8152 8155 8154 8153 8151 8150 8151 8151 8149 8147 8147 8151 8153 8149 8153 8149 
8151 8148 8149 8151 8151 8150 8148 8140 8149 8149 8153 8152 8156 8152 8155 8153 8155 8155 8150 8157 8154 8160 8144 8124 8125 8122 8133 8139 8136 8120 8119 8122 8119 8104 8106 8112 8103 8105 8099 8101 8103 8105 8096 8090 8091 8102 8107 8112 8117 8120 8120 8124 8140 8179 8157 8149 8151 8149 8151 8150 8149 8152 8155 8153 8151 8156 8154 8154 8148 8151 8152 8148 8147 8149 8148 8149 8151 8150 8153 8154 
8151 8143 8150 8151 8151 8148 8144 8151 8151 8148 8150 8150 8154 8158 8157 8155 8156 8156 8149 8152 8157 8161 8153 8128 8124 8127 8129 8136 8126 8114 8107 8111 8112 8104 8109 8108 8105 8104 8102 8104 8106 8104 8094 8091 8098 8108 8109 8109 8118 8119 8116 8118 8125 8154 8157 8151 8154 8151 8150 8151 8150 8152 8153 8151 8153 8155 8153 8153 8152 8151 8152 8150 8149 8149 8148 8150 8150 8153 8153 8157 
8151 8144 8145 8152 8152 8146 8156 8143 8144 8149 8150 8157 8155 8155 8156 8153 8157 8157 8155 8151 8155 8158 8156 8134 8121 8126 8126 8130 8118 8107 8105 8109 8108 8115 8111 8110 8107 8103 8103 8104 8111 8104 8100 8102 8106 8111 8108 8107 8109 8117 8115 8117 8120 8141 8147 8149 8150 8151 8152 8152 8150 8152 8154 8151 8153 8154 8152 8154 8150 8149 8149 8149 8151 8149 8151 8153 8152 8152 8157 8158 
8152 8148 8146 8150 8147 8150 8148 8144 8147 8151 8152 8160 8153 8157 8152 8153 8155 8157 8153 8152 8154 8154 8155 8143 8122 8123 8131 8124 8114 8105 8110 8114 8116 8114 8109 8103 8103 8101 8106 8104 8107 8102 8103 8107 8108 8110 8107 8105 8113 8115 8114 8117 8122 8148 8150 8152 8153 8150 8157 8155 8152 8153 8154 8149 8151 8153 8151 8152 8151 8147 8148 8149 8149 8151 8147 8152 8153 8151 8157 8164 
8151 8148 8149 8148 8151 8144 8152 8149 8151 8153 8152 8159 8158 8154 8155 8154 8157 8158 8155 8154 8153 8153 8154 8142 8127 8130 8131 8127 8114 8108 8110 8115 8111 8111 8111 8105 8100 8102 8104 8105 8104 8105 8106 8105 8107 8106 8108 8106 8117 8121 8119 8124 8125 8156 8156 8153 8152 8150 8152 8157 8152 8150 8152 8152 8150 8155 8152 8151 8148 8147 8147 8151 8147 8150 8150 8153 8153 8154 8161 8163 
8148 8146 8147 8149 8150 8151 8152 8149 8154 8156 8158 8156 8157 8153 8155 8152 8155 8160 8156 8154 8153 8154 8152 8144 8139 8133 8131 8133 8112 8108 8112 8112 8109 8115 8115 8112 8109 8107 8108 8112 8110 8108 8113 8110 8107 8111 8114 8115 8118 8118 8120 8125 8128 8158 8159 8154 8150 8154 8150 8152 8153 8154 8152 8154 8154 8153 8151 8150 8147 8148 8148 8149 8151 8151 8152 8152 8154 8158 8162 8164 
8148 8142 8147 8149 8150 8157 8155 8152 8155 8150 8160 8158 8158 8156 8151 8156 8157 8158 8154 8153 8154 8156 8153 8144 8143 8137 8135 8135 8124 8114 8114 8110 8110 8115 8119 8117 8117 8116 8115 8112 8115 8115 8119 8122 8121 8121 8118 8120 8119 8119 8122 8127 8136 8155 8156 8152 8153 8157 8155 8151 8152 8155 8153 8151 8155 8155 8153 8151 8145 8146 8149 8150 8149 8153 8154 8152 8156 8158 8163 8165 
8149 8148 8147 8149 8150 8156 8150 8154 8156 8152 8155 8157 8156 8155 8153 8155 8156 8158 8157 8156 8152 8152 8155 8148 8143 8135 8136 8132 8128 8116 8112 8112 8111 8119 8114 8109 8115 8120 8117 8119 8123 8119 8122 8126 8126 8125 8123 8124 8122 8125 8125 8121 8127 8153 8158 8151 8154 8153 8153 8151 8151 8149 8153 8153 8153 8152 8150 8149 8148 8145 8151 8148 8148 8153 8151 8152 8157 8159 8164 8167 
8150 8147 8146 8150 8149 8154 8151 8152 8157 8151 8149 8156 8154 8154 8155 8157 8157 8155 8154 8154 8151 8159 8158 8152 8149 8137 8131 8129 8126 8124 8116 8115 8114 8118 8121 8117 8107 8111 8120 8119 8124 8123 8125 8128 8127 8129 8123 8125 8124 8126 8122 8119 8128 8155 8159 8151 8149 8148 8154 8151 8151 8148 8153 8154 8155 8150 8150 8151 8147 8147 8151 8150 8151 8152 8152 8157 8156 8157 8162 8163 
8153 8152 8149 8148 8151 8156 8147 8151 8154 8156 8155 8155 8152 8154 8154 8156 8154 8157 8155 8155 8153 8160 8159 8155 8154 8143 8138 8134 8134 8127 8125 8121 8118 8120 8125 8121 8112 8112 8120 8126 8127 8127 8130 8128 8128 8124 8130 8127 8129 8128 8124 8122 8124 8147 8153 8147 8151 8153 8151 8148 8149 8149 8150 8151 8151 8152 8149 8150 8150 8149 8150 8152 8150 8149 8151 8157 8158 8158 8157 8164 
8154 8149 8154 8153 8155 8154 8152 8154 8154 8155 8156 8156 8152 8153 8154 8154 8154 8156 8161 8154 8155 8163 8157 8156 8155 8153 8138 8137 8134 8129 8132 8130 8122 8124 8127 8127 8123 8119 8121 8130 8128 8128 8131 8124 8128 8120 8126 8130 8132 8132 8127 8123 8131 8149 8151 8148 8152 8152 8151 8149 8149 8152 8152 8149 8150 8151 8151 8151 8152 8151 8150 8151 8150 8154 8158 8152 8157 8159 8160 8167 
8156 8151 8155 8153 8158 8154 8154 8157 8153 8152 8160 8157 8152 8153 8156 8156 8158 8158 8160 8156 8160 8160 8156 8157 8157 8152 8140 8134 8131 8129 8130 8125 8120 8127 8131 8131 8127 8129 8131 8130 8127 8129 8131 8125 8129 8122 8122 8132 8132 8131 8133 8131 8136 8149 8148 8148 8151 8150 8148 8148 8150 8151 8154 8150 8148 8149 8149 8148 8149 8151 8149 8150 8148 8147 8151 8155 8156 8157 8163 8168 
8159 8157 8153 8155 8155 8157 8159 8153 8154 8153 8152 8157 8160 8158 8153 8156 8158 8163 8160 8160 8160 8161 8163 8158 8155 8146 8138 8133 8134 8131 8128 8127 8126 8136 8135 8137 8134 8132 8134 8131 8129 8132 8131 8132 8133 8130 8125 8126 8131 8131 8129 8132 8139 8150 8148 8149 8150 8151 8149 8152 8146 8153 8154 8151 8148 8152 8150 8150 8146 8146 8152 8148 8147 8148 8150 8153 8153 8156 8160 8164 
8160 8158 8158 8153 8160 8158 8158 8156 8157 8152 8153 8158 8160 8158 8157 8156 8159 8159 8158 8158 8157 8162 8162 8158 8156 8149 8145 8136 8135 8132 8129 8133 8131 8137 8138 8138 8137 8137 8134 8134 8127 8130 8136 8138 8135 8134 8129 8127 8129 8129 8128 8136 8144 8148 8148 8151 8152 8152 8153 8150 8152 8151 8150 8151 8149 8151 8149 8147 8148 8148 8150 8152 8149 8151 8153 8155 8155 8155 8159 8158 
8162 8157 8159 8154 8158 8158 8161 8153 8156 8157 8159 8157 8159 8157 8155 8157 8154 8157 8155 8160 8155 8159 8158 8158 8157 8155 8155 8150 8136 8132 8133 8131 8133 8138 8141 8140 8137 8129 8129 8134 8136 8132 8135 8131 8137 8140 8127 8121 8128 8135 8133 8144 8145 8147 8147 8153 8151 8152 8152 8149 8149 8151 8152 8150 8148 8153 8148 8153 8149 8148 8149 8151 8151 8152 8156 8158 8156 8156 8158 8159 
8159 8159 8158 8159 8159 8160 8160 8157 8157 8156 8157 8159 8158 8156 8156 8153 8154 8158 8154 8158 8155 8155 8157 8162 8160 8150 8154 8158 8147 8134 8136 8128 8131 8133 8133 8137 8129 8114 8121 8134 8135 8129 8130 8127 8132 8133 8130 8126 8131 8138 8143 8143 8146 8149 8146 8152 8151 8153 8150 8147 8147 8153 8150 8151 8151 8152 8149 8152 8154 8149 8150 8150 8151 8154 8152 8154 8157 8154 8155 8158 
8158 8163 8166 8158 8160 8162 8161 8154 8155 8156 8158 8155 8156 8154 8153 8150 8150 8155 8159 8154 8155 8155 8159 8163 8157 8147 8149 8156 8152 8139 8133 8128 8123 8126 8130 8137 8133 8129 8130 8137 8128 8124 8130 8125 8129 8134 8127 8131 8140 8147 8141 8140 8145 8149 8150 8151 8150 8153 8154 8150 8150 8152 8148 8149 8148 8150 8149 8150 8149 8148 8149 8151 8150 8154 8155 8156 8156 8150 8152 8154 
8158 8159 8163 8154 8160 8161 8157 8154 8157 8157 8157 8157 8153 8155 8157 8151 8156 8156 8159 8161 8157 8158 8159 8160 8159 8152 8149 8149 8154 8151 8146 8138 8128 8119 8131 8129 8126 8131 8136 8134 8131 8132 8134 8126 8134 8140 8135 8146 8152 8148 8143 8144 8146 8150 8152 8149 8150 8150 8153 8152 8150 8153 8153 8151 8148 8150 8150 8149 8149 8149 8150 8150 8148 8153 8154 8156 8151 8149 8151 8153 
8160 8156 8164 8150 8156 8161 8154 8155 8156 8157 8156 8158 8155 8155 8157 8156 8153 8158 8161 8160 8160 8157 8159 8162 8164 8156 8149 8146 8150 8155 8167 8164 8146 8137 8135 8138 8136 8134 8135 8138 8135 8142 8146 8143 8145 8151 8154 8152 8146 8149 8143 8146 8153 8151 8155 8153 8153 8152 8152 8156 8155 8155 8156 8153 8150 8153 8148 8148 8146 8147 8151 8149 8149 8151 8154 8155 8156 8150 8149 8151 
8161 8155 8154 8151 8152 8156 8154 8157 8156 8158 8158 8162 8157 8160 8154 8152 8154 8158 8154 8155 8157 8154 8163 8161 8158 8157 8150 8146 8147 8153 8162 8168 8173 8176 8170 8157 8149 8143 8143 8146 8142 8145 8158 8160 8163 8161 8150 8148 8152 8148 8145 8147 8150 8152 8157 8153 8150 8153 8152 8155 8156 8158 8156 8154 8153 8152 8148 8147 8147 8149 8150 8153 8149 8150 8152 8153 8153 8149 8150 8157 
8161 8159 8159 8152 8154 8154 8158 8155 8160 8158 8155 8158 8162 8159 8152 8153 8154 8155 8155 8157 8158 8154 8160 8159 8161 8160 8156 8152 8149 8148 8160 8164 8159 8155 8161 8166 8160 8161 8158 8159 8159 8154 8157 8160 8157 8156 8151 8152 8148 8144 8148 8151 8155 8154 8157 8155 8151 8152 8155 8156 8157 8158 8158 8154 8155 8153 8148 8149 8147 8149 8152 8151 8146 8149 8150 8152 8153 8149 8148 8151 
8161 8162 8157 8151 8157 8152 8158 8153 8155 8159 8156 8153 8158 8160 8153 8154 8156 8157 8154 8156 8156 8156 8158 8161 8157 8162 8158 8157 8152 8149 8159 8161 8163 8151 8146 8146 8145 8149 8148 8150 8148 8149 8151 8152 8152 8154 8155 8153 8145 8149 8152 8151 8151 8154 8156 8155 8153 8153 8153 8155 8156 8157 8156 8154 8155 8152 8152 8149 8151 8149 8148 8147 8152 8150 8149 8150 8152 8148 8145 8152 
8163 8153 8151 8154 8155 8156 8158 8153 8154 8154 8154 8150 8161 8157 8157 8158 8159 8157 8160 8157 8156 8160 8162 8159 8159 8161 8162 8163 8156 8152 8153 8155 8160 8162 8155 8151 8144 8143 8147 8146 8148 8143 8149 8150 8153 8159 8153 8152 8150 8151 8150 8150 8150 8151 8153 8153 8153 8153 8154 8153 8155 8155 8154 8153 8152 8153 8150 8151 8148 8149 8150 8148 8149 8149 8146 8150 8151 8143 8150 8153 
8163 8162 8153 8155 8154 8158 8159 8157 8153 8154 8153 8160 8159 8156 8158 8159 8160 8157 8158 8158 8162 8160 8162 8163 8162 8161 8159 8160 8162 8160 8159 8151 8151 8160 8159 8163 8150 8149 8149 8145 8151 8150 8153 8157 8158 8154 8151 8157 8156 8155 8155 8155 8152 8156 8154 8154 8153 8154 8155 8151 8154 8156 8155 8152 8153 8154 8152 8150 8148 8149 8152 8150 8147 8150 8151 8152 8151 8145 8146 8152 
8164 8161 8157 8158 8153 8157 8163 8159 8161 8161 8158 8157 8160 8152 8157 8159 8162 8159 8158 8161 8162 8158 8161 8167 8165 8162 8159 8161 8163 8165 8166 8162 8155 8159 8156 8158 8153 8153 8153 8155 8161 8160 8159 8155 8152 8159 8158 8159 8158 8160 8160 8154 8154 8154 8153 8154 8153 8154 8157 8152 8153 8154 8153 8152 8154 8152 8151 8148 8147 8145 8149 8152 8148 8148 8148 8153 8150 8146 8149 8152 
8162 8154 8161 8156 8155 8160 8166 8161 8159 8156 8159 8158 8161 8152 8158 8159 8158 8158 8157 8157 8160 8154 8164 8164 8167 8164 8162 8163 8163 8164 8170 8168 8168 8161 8158 8157 8154 8153 8151 8152 8159 8161 8161 8159 8160 8160 8160 8158 8156 8155 8153 8158 8157 8153 8156 8155 8153 8154 8151 8148 8150 8154 8155 8152 8147 8151 8147 8149 8148 8148 8151 8146 8151 8152 8149 8152 8147 8145 8144 8154 
8165 8154 8158 8155 8158 8162 8166 8156 8159 8153 8162 8162 8161 8161 8160 8160 8161 8163 8162 8159 8155 8163 8167 8163 8167 8167 8164 8165 8161 8164 8172 8169 8169 8166 8166 8165 8164 8164 8162 8166 8164 8165 8164 8163 8162 8161 8161 8161 8156 8153 8154 8163 8158 8153 8152 8153 8154 8154 8152 8151 8153 8154 8153 8149 8146 8148 8146 8150 8148 8151 8147 8152 8150 8155 8147 8148 8149 8144 8146 8151 
8162 8152 8157 8154 8158 8161 8165 8156 8155 8156 8157 8159 8159 8161 8158 8158 8157 8159 8162 8157 8158 8159 8166 8167 8162 8163 8163 8163 8168 8169 8175 8175 8169 8170 8167 8168 8163 8169 8168 8173 8169 8167 8171 8160 8165 8162 8166 8165 8161 8161 8158 8159 8159 8153 8152 8154 8156 8155 8155 8149 8157 8154 8153 8147 8145 8145 8147 8149 8150 8152 8151 8150 8153 8156 8149 8148 8148 8149 8145 8148 
8160 8158 8154 8154 8158 8161 8157 8163 8152 8153 8154 8157 8159 8159 8156 8156 8157 8162 8161 8157 8155 8161 8168 8170 8162 8168 8165 8164 8171 8172 8167 8175 8172 8169 8169 8166 8165 8168 8173 8171 8169 8167 8170 8163 8163 8166 8163 8162 8161 8158 8159 8159 8158 8155 8157 8154 8154 8154 8151 8153 8158 8156 8153 8142 8144 8150 8147 8147 8151 8149 8154 8154 8150 8149 8150 8152 8150 8147 8147 8148 
8157 8155 8157 8159 8159 8156 8156 8163 8159 8156 8154 8153 8156 8159 8160 8153 8157 8164 8160 8159 8153 8162 8165 8165 8165 8168 8171 8170 8170 8169 8174 8175 8170 8170 8171 8170 8170 8168 8171 8171 8168 8167 8166 8169 8170 8168 8165 8166 8163 8162 8159 8163 8154 8155 8157 8153 8156 8154 8156 8155 8155 8157 8155 8144 8148 8150 8147 8148 8151 8150 8150 8155 8150 8153 8152 8148 8146 8144 8146 8152 
8157 8155 8159 8157 8160 8163 8161 8162 8150 8159 8154 8155 8152 8162 8159 8155 8158 8162 8157 8156 8157 8161 8165 8168 8168 8167 8170 8168 8165 8165 8171 8171 8168 8174 8175 8175 8173 8173 8172 8169 8167 8168 8169 8172 8172 8171 8169 8165 8168 8165 8166 8164 8158 8151 8155 8154 8157 8151 8153 8151 8158 8158 8154 8145 8146 8148 8143 8153 8151 8148 8152 8155 8151 8152 8151 8144 8144 8144 8145 8147 
8158 8161 8160 8163 8159 8162 8161 8158 8151 8158 8153 8157 8157 8164 8156 8154 8156 8158 8163 8161 8159 8162 8161 8165 8166 8163 8164 8164 8167 8164 8170 8167 8168 8171 8176 8171 8174 8176 8174 8171 8171 8166 8173 8169 8170 8172 8164 8170 8169 8168 8165 8165 8154 8152 8152 8153 8156 8149 8150 8153 8154 8155 8149 8147 8149 8147 8147 8146 8145 8150 8154 8150 8149 8150 8148 8146 8142 8138 8142 8140 
8161 8158 8161 8162 8157 8162 8166 8158 8147 8161 8159 8155 8163 8158 8158 8153 8156 8158 8150 8158 8161 8161 8162 8167 8164 8148 8163 8165 8169 8168 8169 8171 8171 8170 8175 8176 8173 8176 8171 8170 8173 8172 8174 8174 8174 8171 8160 8167 8168 8168 8166 8164 8160 8157 8155 8153 8155 8155 8153 8151 8151 8150 8147 8147 8148 8146 8145 8149 8145 8146 8149 8151 8152 8147 8149 8146 8140 8137 8138 8134 
8162 8158 8168 8156 8154 8156 8164 8150 8155 8158 8157 8149 8156 8157 8157 8150 8151 8156 8152 8158 8162 8159 8163 8168 8162 8149 8149 8163 8170 8168 8171 8170 8174 8168 8171 8177 8174 8173 8170 8175 8171 8172 8173 8170 8171 8165 8166 8165 8168 8166 8161 8162 8151 8151 8151 8153 8152 8152 8147 8149 8146 8146 8148 8145 8146 8144 8146 8152 8145 8144 8149 8150 8145 8145 8142 8139 8138 8136 8134 8131 
8162 8166 8166 8148 8157 8155 8160 8148 8157 8154 8156 8150 8150 8157 8158 8153 8149 8154 8153 8157 8153 8157 8160 8162 8168 8161 8167 8166 8165 8166 8167 8173 8173 8171 8163 8168 8169 8167 8164 8174 8170 8164 8165 8172 8170 8167 8164 8167 8167 8165 8162 8159 8150 8149 8152 8147 8149 8149 8149 8146 8145 8146 8148 8144 8145 8144 8146 8150 8147 8143 8146 8147 8142 8139 8136 8140 8137 8129 8130 8130 
8170 8158 8151 8152 8154 8152 8149 8159 8156 8152 8151 8147 8148 8153 8152 8145 8145 8149 8149 8150 8156 8152 8155 8161 8166 8165 8166 8166 8165 8167 8171 8166 8163 8173 8163 8167 8169 8172 8164 8175 8171 8165 8165 8162 8161 8162 8164 8168 8164 8165 8158 8153 8150 8150 8149 8145 8147 8148 8151 8147 8146 8147 8145 8140 8144 8142 8147 8150 8148 8147 8146 8144 8140 8140 8139 8140 8138 8128 8131 8131 
8169 8155 8156 8146 8149 8148 8146 8150 8149 8150 8148 8144 8147 8145 8143 8142 8142 8147 8148 8150 8148 8150 8150 8157 8158 8162 8163 8163 8165 8162 8167 8163 8163 8164 8165 8165 8163 8167 8169 8174 8171 8162 8164 8161 8161 8165 8164 8167 8164 8163 8155 8148 8147 8147 8146 8146 8146 8146 8146 8145 8144 8146 8145 8142 8143 8146 8145 8153 8150 8152 8149 8149 8145 8144 8140 8140 8136 8128 8131 8135 


