P2
80 60
8415
8270 8272 8268 8270 8273 8267 8270 8261 8262 8263 8260 8262 8264 8257 8264 8266 8266 8264 8262 8266 8272 8269 8267 8262 8266 8261 8263 8261 8262 8265 8271 8267 8263 8266 8266 8265 8269 8268 8265 8270 8269 8269 8271 8265 8265 8264 8262 8265 8268 8267 8265 8260 8261 8257 8255 8249 8253 8254 8252 8254 8255 8255 8250 8254 8251 8252 8255 8253 8250 8248 8249 8248 8252 8251 8247 8246 8247 8248 8245 8242 
8263 8272 8269 8272 8271 8270 8264 8260 8258 8261 8260 8261 8262 8258 8262 8266 8264 8265 8262 8268 8267 8268 8265 8260 8264 8263 8263 8264 8263 8264 8267 8267 8264 8265 8268 8266 8263 8265 8268 8269 8269 8268 8268 8261 8263 8267 8264 8262 8267 8268 8262 8264 8263 8256 8255 8254 8257 8253 8257 8252 8257 8253 8252 8250 8248 8252 8253 8255 8251 8250 8248 8246 8248 8249 8248 8239 8245 8244 8242 8237 
8265 8267 8265 8265 8270 8262 8264 8260 8259 8259 8262 8258 8254 8259 8262 8262 8262 8261 8261 8264 8263 8267 8267 8255 8264 8260 8265 8260 8261 8263 8266 8265 8262 8266 8269 8265 8264 8270 8268 8268 8268 8267 8264 8263 8261 8266 8266 8263 8266 8265 8264 8261 8259 8260 8254 8254 8256 8251 8253 8253 8256 8254 8253 8251 8249 8252 8253 8251 8249 8250 8246 8246 8243 8245 8241 8238 8242 8239 8238 8232 
8259 8263 8262 8266 8266 8260 8262 8258 8257 8262 8255 8254 8254 8256 8257 8260 8265 8263 8261 8263 8262 8262 8257 8260 8259 8259 8263 8262 8259 8261 8264 8263 8262 8265 8266 8266 8265 8266 8264 8266 8264 8260 8263 8259 8262 8262 8263 8261 8265 8262 8261 8262 8256 8256 8252 8254 8255 8253 8253 8250 8256 8252 8249 8249 8244 8246 8249 8250 8248 8247 8243 8247 8243 8242 8240 8233 8236 8234 8231 8227 
8261 8265 8267 8264 8266 8261 8263 8257 8259 8259 8254 8255 8256 8258 8259 8260 8264 8259 8260 8262 8264 8263 8257 8255 8258 8264 8263 8258 8260 8262 8265 8263 8262 8264 8267 8265 8268 8265 8263 8265 8266 8263 8262 8257 8258 8264 8262 8264 8264 8265 8262 8258 8254 8256 8253 8254 8256 8253 8251 8254 8253 8251 8248 8248 8245 8243 8245 8241 8246 8244 8241 8247 8239 8243 8235 8231 8236 8234 8230 8228 
8262 8265 8263 8266 8266 8259 8263 8263 8260 8256 8250 8253 8256 8254 8257 8258 8262 8254 8258 8263 8262 8262 8261 8254 8261 8259 8263 8259 8261 8259 8265 8264 8259 8262 8268 8268 8268 8267 8263 8266 8266 8266 8266 8259 8260 8259 8261 8259 8265 8263 8261 8255 8258 8256 8254 8251 8253 8252 8253 8254 8254 8252 8248 8245 8244 8246 8243 8244 8241 8244 8242 8245 8243 8236 8235 8234 8236 8226 8227 8225 
8263 8273 8260 8263 8267 8261 8264 8260 8254 8252 8251 8255 8256 8252 8254 8255 8254 8253 8260 8263 8261 8260 8260 8258 8262 8260 8254 8254 8256 8259 8265 8263 8261 8264 8269 8267 8267 8264 8264 8264 8264 8266 8264 8258 8258 8259 8259 8258 8263 8263 8259 8256 8256 8254 8253 8253 8252 8251 8252 8253 8250 8253 8247 8246 8246 8245 8248 8246 8238 8235 8244 8246 8237 8234 8234 8228 8231 8226 8226 8225 
8262 8269 8258 8262 8265 8264 8267 8259 8257 8249 8255 8252 8253 8254 8256 8260 8257 8257 8259 8263 8261 8259 8259 8255 8259 8256 8251 8251 8253 8258 8264 8258 8259 8259 8266 8263 8262 8260 8260 8264 8266 8265 8263 8259 8256 8259 8258 8256 8260 8257 8258 8255 8257 8255 8254 8250 8252 8250 8251 8248 8251 8249 8246 8244 8243 8246 8248 8244 8240 8241 8239 8238 8235 8233 8236 8233 8233 8229 8230 8227 
8265 8266 8262 8264 8267 8261 8263 8260 8257 8252 8255 8252 8252 8251 8252 8257 8258 8254 8259 8262 8264 8259 8256 8253 8255 8256 8252 8253 8253 8256 8260 8257 8257 8257 8260 8263 8263 8263 8258 8260 8261 8264 8262 8253 8257 8257 8257 8261 8260 8256 8256 8253 8255 8252 8251 8251 8251 8251 8252 8253 8250 8246 8244 8245 8242 8243 8240 8246 8243 8242 8241 8237 8239 8233 8235 8233 8235 8233 8230 8223 
8263 8265 8263 8265 8264 8264 8263 8259 8257 8252 8252 8250 8252 8253 8251 8256 8256 8255 8258 8267 8262 8259 8258 8255 8252 8253 8257 8255 8253 8255 8257 8257 8249 8255 8261 8261 8264 8254 8256 8259 8259 8259 8256 8254 8254 8257 8259 8259 8259 8260 8255 8259 8255 8253 8250 8249 8252 8252 8249 8251 8247 8248 8245 8243 8243 8243 8245 8242 8241 8241 8240 8242 8233 8236 8233 8236 8235 8235 8231 8231 
8261 8265 8261 8261 8262 8260 8259 8257 8256 8255 8254 8252 8253 8252 8254 8253 8256 8255 8255 8260 8260 8262 8255 8255 8253 8252 8258 8258 8257 8255 8258 8253 8248 8255 8256 8256 8254 8250 8255 8258 8258 8255 8257 8257 8255 8260 8260 8257 8261 8261 8254 8256 8257 8254 8251 8249 8251 8250 8250 8249 8248 8243 8244 8244 8240 8241 8247 8242 8240 8241 8238 8241 8234 8233 8236 8232 8236 8235 8237 8232 
8264 8269 8259 8259 8259 8257 8255 8257 8258 8253 8252 8250 8251 8254 8253 8255 8256 8256 8253 8264 8259 8262 8251 8252 8252 8251 8253 8252 8254 8259 8259 8254 8249 8253 8253 8245 8255 8251 8253 8254 8255 8257 8254 8255 8255 8257 8257 8256 8257 8258 8258 8258 8259 8256 8254 8249 8251 8251 8251 8251 8246 8246 8242 8242 8239 8244 8246 8243 8241 8238 8236 8240 8236 8235 8231 8232 8238 8239 8237 8236 
8266 8272 8259 8256 8257 8256 8254 8249 8248 8252 8254 8250 8250 8251 8251 8258 8257 8255 8258 8261 8262 8259 8253 8252 8254 8252 8255 8252 8251 8255 8258 8251 8250 8249 8237 8218 8245 8246 8244 8249 8249 8251 8258 8254 8255 8258 8255 8255 8258 8258 8259 8261 8259 8258 8254 8252 8250 8249 8254 8249 8249 8245 8245 8244 8242 8245 8246 8244 8240 8238 8237 8241 8238 8235 8235 8238 8243 8244 8239 8232 
8266 8272 8260 8259 8259 8257 8255 8252 8249 8253 8253 8250 8250 8249 8252 8256 8256 8257 8256 8261 8259 8259 8254 8252 8252 8254 8256 8252 8248 8255 8257 8242 8242 8226 8192 8226 8232 8221 8204 8205 8222 8233 8245 8256 8254 8254 8252 8254 8258 8258 8257 8260 8256 8258 8254 8249 8251 8248 8252 8253 8247 8245 8246 8246 8246 8245 8245 8245 8245 8240 8241 8245 8238 8237 8234 8238 8244 8247 8243 8238 
8263 8262 8262 8258 8257 8252 8255 8253 8249 8252 8254 8252 8253 8251 8254 8256 8255 8255 8257 8264 8254 8254 8256 8254 8251 8255 8255 8255 8253 8252 8236 8199 8170 8175 8164 8179 8172 8153 8144 8139 8163 8206 8230 8246 8249 8249 8251 8251 8253 8259 8256 8260 8258 8255 8252 8249 8251 8251 8252 8250 8247 8245 8241 8248 8247 8250 8247 8246 8243 8241 8242 8242 8239 8236 8237 8238 8243 8247 8245 8243 
8260 8259 8254 8260 8259 8253 8253 8252 8252 8253 8252 8251 8252 8250 8252 8255 8256 8252 8256 8258 8253 8251 8250 8252 8253 8251 8257 8247 8252 8241 8208 8150 8135 8149 8154 8158 8169 8200 8193 8143 8141 8192 8239 8247 8250 8254 8251 8252 8256 8255 8257 8260 8256 8254 8251 8253 8252 8250 8250 8251 8248 8242 8245 8247 8247 8248 8249 8248 8240 8240 8241 8243 8235 8238 8236 8239 8241 8248 8247 8240 
8259 8255 8256 8256 8256 8252 8253 8251 8252 8251 8254 8250 8248 8251 8253 8254 8255 8247 8232 8223 8221 8249 8252 8246 8250 8248 8254 8253 8247 8246 8189 8137 8159 8189 8169 8197 8186 8211 8230 8189 8140 8175 8243 8248 8252 8251 8249 8249 8255 8258 8255 8259 8256 8253 8247 8250 8251 8248 8249 8247 8247 8243 8244 8246 8248 8245 8248 8246 8240 8239 8238 8240 8236 8235 8239 8238 8244 8250 8248 8243 
8261 8261 8256 8253 8255 8251 8253 8251 8251 8253 8251 8250 8248 8253 8254 8254 8250 8230 8180 8182 8185 8238 8251 8243 8246 8250 8254 8244 8242 8244 8180 8170 8227 8241 8198 8175 8222 8232 8236 8223 8146 8170 8243 8250 8253 8251 8252 8250 8256 8260 8257 8254 8258 8252 8248 8246 8247 8248 8248 8248 8245 8244 8243 8247 8242 8245 8245 8244 8242 8238 8238 8240 8238 8237 8237 8241 8242 8246 8246 8242 
8260 8257 8255 8256 8257 8256 8256 8255 8255 8250 8251 8249 8250 8251 8250 8250 8249 8237 8180 8180 8186 8229 8248 8246 8246 8250 8251 8242 8239 8241 8212 8231 8240 8246 8215 8179 8238 8240 8240 8241 8180 8199 8249 8250 8250 8255 8252 8252 8254 8257 8255 8255 8252 8251 8244 8243 8248 8247 8247 8246 8245 8244 8245 8246 8242 8242 8241 8244 8243 8240 8239 8239 8238 8233 8235 8235 8241 8242 8244 8238 
8263 8261 8253 8252 8251 8253 8254 8253 8253 8251 8252 8250 8249 8249 8248 8249 8244 8239 8184 8179 8181 8220 8247 8243 8245 8239 8242 8230 8214 8215 8219 8204 8223 8245 8230 8207 8242 8244 8242 8242 8235 8242 8252 8250 8248 8251 8252 8255 8255 8257 8256 8253 8251 8247 8246 8242 8243 8245 8246 8243 8245 8244 8243 8243 8240 8239 8243 8241 8240 8235 8239 8237 8236 8237 8236 8234 8235 8241 8238 8242 
8261 8259 8253 8250 8247 8246 8248 8251 8248 8250 8248 8245 8247 8247 8244 8247 8244 8240 8190 8176 8180 8207 8243 8242 8237 8211 8177 8149 8141 8144 8150 8166 8210 8233 8231 8214 8244 8241 8241 8247 8246 8247 8251 8246 8245 8250 8248 8251 8253 8251 8251 8251 8247 8246 8241 8242 8244 8242 8243 8241 8241 8240 8240 8242 8239 8238 8240 8237 8238 8236 8235 8237 8234 8233 8232 8235 8236 8241 8239 8237 
8259 8260 8252 8252 8250 8247 8243 8249 8239 8247 8247 8244 8247 8245 8244 8245 8241 8235 8198 8176 8183 8196 8239 8235 8205 8144 8137 8143 8158 8174 8199 8202 8189 8227 8220 8216 8242 8244 8244 8246 8249 8248 8248 8248 8244 8248 8245 8248 8251 8249 8245 8248 8244 8246 8243 8240 8244 8244 8242 8241 8238 8239 8241 8242 8239 8241 8238 8237 8235 8232 8234 8234 8230 8230 8232 8229 8235 8239 8236 8236 
8257 8258 8251 8254 8248 8244 8240 8235 8240 8246 8245 8242 8241 8244 8242 8242 8238 8235 8208 8175 8181 8189 8233 8236 8191 8183 8186 8207 8223 8231 8240 8236 8228 8204 8201 8221 8245 8242 8242 8244 8244 8244 8250 8245 8245 8245 8241 8244 8250 8247 8246 8245 8240 8242 8241 8238 8239 8241 8238 8238 8237 8237 8238 8239 8239 8239 8237 8234 8230 8228 8232 8230 8231 8230 8229 8230 8233 8236 8234 8232 
8255 8256 8250 8252 8250 8245 8242 8237 8241 8243 8243 8240 8244 8245 8240 8241 8239 8233 8218 8177 8183 8187 8224 8225 8201 8229 8235 8232 8232 8235 8236 8241 8240 8235 8191 8221 8242 8239 8236 8240 8239 8240 8245 8246 8244 8241 8244 8244 8248 8248 8248 8244 8241 8237 8239 8237 8237 8236 8236 8235 8236 8235 8233 8238 8237 8237 8237 8233 8231 8226 8229 8228 8228 8227 8227 8223 8228 8235 8234 8230 
8253 8249 8249 8254 8252 8243 8243 8244 8242 8240 8241 8239 8243 8241 8240 8243 8240 8235 8225 8182 8184 8187 8218 8214 8223 8234 8234 8233 8231 8233 8214 8227 8235 8233 8199 8185 8200 8192 8183 8212 8222 8233 8241 8243 8244 8244 8243 8248 8247 8248 8243 8239 8239 8237 8238 8236 8235 8236 8235 8233 8233 8233 8232 8235 8236 8238 8233 8237 8231 8229 8229 8229 8226 8225 8227 8221 8227 8232 8229 8229 
8251 8249 8246 8251 8251 8242 8247 8239 8239 8240 8236 8240 8242 8238 8240 8239 8237 8235 8231 8188 8186 8187 8211 8227 8227 8229 8234 8234 8229 8229 8177 8174 8213 8218 8183 8149 8144 8156 8159 8181 8171 8170 8213 8235 8238 8240 8239 8242 8246 8244 8243 8240 8235 8236 8238 8235 8232 8234 8235 8236 8232 8230 8231 8236 8236 8236 8235 8235 8227 8225 8224 8224 8225 8223 8223 8218 8225 8228 8229 8227 
8249 8252 8244 8250 8247 8246 8244 8236 8239 8239 8238 8240 8239 8239 8240 8240 8238 8235 8233 8198 8180 8188 8199 8231 8232 8229 8234 8231 8228 8207 8160 8149 8145 8140 8146 8145 8149 8158 8196 8217 8178 8157 8167 8199 8226 8237 8235 8238 8245 8243 8238 8238 8238 8240 8236 8236 8234 8236 8240 8237 8234 8230 8232 8233 8233 8235 8233 8231 8229 8225 8225 8223 8223 8223 8222 8221 8226 8224 8227 8225 
8252 8255 8247 8251 8251 8245 8245 8239 8240 8240 8240 8241 8241 8240 8239 8237 8238 8239 8236 8210 8184 8188 8197 8233 8234 8231 8237 8224 8179 8151 8164 8137 8120 8127 8141 8138 8169 8215 8228 8235 8224 8181 8157 8163 8210 8236 8235 8236 8243 8242 8240 8238 8237 8238 8237 8235 8237 8238 8238 8237 8232 8232 8229 8233 8235 8235 8232 8228 8225 8226 8224 8223 8223 8219 8222 8224 8228 8229 8227 8229 
8247 8249 8247 8253 8250 8245 8247 8242 8244 8241 8239 8240 8244 8236 8242 8238 8239 8240 8234 8220 8182 8189 8189 8226 8235 8236 8235 8195 8178 8175 8153 8139 8134 8136 8141 8168 8149 8198 8227 8229 8233 8229 8177 8164 8206 8232 8232 8235 8239 8240 8237 8237 8239 8237 8238 8238 8235 8239 8238 8234 8233 8231 8231 8232 8234 8236 8231 8227 8226 8224 8226 8227 8219 8221 8228 8227 8228 8238 8233 8233 
8246 8246 8245 8250 8247 8248 8249 8243 8243 8238 8242 8237 8236 8238 8236 8241 8239 8237 8233 8226 8184 8186 8186 8219 8233 8233 8222 8186 8210 8166 8172 8169 8192 8163 8145 8188 8208 8207 8224 8229 8233 8229 8211 8188 8227 8231 8230 8234 8238 8238 8238 8238 8238 8236 8233 8236 8235 8234 8235 8230 8233 8231 8231 8232 8234 8233 8232 8228 8224 8222 8224 8229 8226 8224 8229 8225 8236 8237 8238 8236 
8246 8250 8243 8246 8248 8246 8244 8242 8245 8237 8241 8237 8236 8242 8238 8240 8237 8236 8235 8229 8188 8184 8185 8211 8232 8230 8223 8222 8211 8217 8214 8175 8184 8142 8138 8149 8164 8204 8220 8226 8231 8227 8233 8229 8234 8231 8230 8232 8235 8236 8235 8236 8235 8234 8235 8233 8233 8231 8232 8232 8228 8230 8230 8230 8228 8232 8228 8230 8225 8222 8223 8224 8223 8227 8228 8223 8235 8237 8236 8230 
8249 8248 8242 8248 8247 8245 8244 8239 8242 8239 8239 8236 8235 8238 8236 8240 8238 8235 8235 8237 8195 8182 8185 8203 8232 8235 8233 8227 8217 8208 8186 8161 8148 8125 8138 8178 8151 8157 8214 8225 8230 8229 8227 8233 8234 8235 8232 8235 8238 8239 8234 8233 8236 8233 8229 8229 8230 8231 8231 8231 8231 8227 8227 8228 8229 8230 8229 8225 8226 8222 8225 8228 8227 8226 8228 8224 8233 8239 8235 8237 
8254 8253 8249 8249 8249 8246 8241 8238 8243 8238 8237 8235 8231 8236 8235 8240 8237 8234 8234 8232 8208 8186 8186 8193 8231 8227 8213 8176 8168 8157 8140 8143 8132 8130 8134 8149 8138 8132 8182 8220 8229 8233 8232 8233 8236 8239 8234 8235 8239 8236 8233 8235 8235 8232 8232 8227 8231 8229 8230 8227 8230 8226 8228 8230 8229 8227 8227 8230 8225 8227 8228 8224 8218 8224 8227 8226 8231 8238 8237 8236 
8252 8252 8251 8249 8247 8244 8242 8239 8242 8239 8238 8237 8233 8238 8236 8238 8237 8236 8238 8233 8217 8185 8188 8185 8206 8172 8184 8164 8152 8162 8140 8136 8132 8128 8134 8163 8167 8142 8138 8184 8226 8231 8234 8240 8247 8250 8254 8255 8254 8245 8235 8237 8233 8230 8230 8229 8229 8227 8226 8229 8227 8229 8227 8229 8232 8227 8230 8231 8227 8229 8224 8227 8218 8226 8231 8226 8234 8241 8238 8234 
8254 8252 8250 8247 8246 8240 8247 8242 8242 8237 8235 8235 8236 8237 8240 8237 8236 8239 8240 8240 8228 8191 8189 8181 8157 8141 8151 8157 8157 8147 8143 8129 8133 8141 8148 8144 8144 8155 8153 8168 8223 8240 8242 8242 8245 8249 8254 8262 8268 8258 8234 8232 8232 8228 8229 8228 8229 8226 8227 8226 8231 8228 8229 8228 8229 8228 8234 8230 8228 8229 8230 8228 8221 8230 8229 8229 8235 8240 8236 8234 
8252 8252 8247 8249 8243 8243 8248 8245 8240 8234 8233 8238 8238 8236 8242 8243 8238 8238 8241 8229 8225 8197 8195 8184 8160 8144 8156 8179 8173 8154 8150 8149 8180 8209 8164 8145 8149 8200 8190 8181 8197 8225 8241 8245 8261 8264 8265 8266 8266 8246 8232 8232 8228 8232 8226 8228 8228 8228 8226 8228 8229 8227 8226 8227 8230 8231 8230 8228 8229 8226 8227 8228 8222 8229 8233 8234 8236 8237 8236 8233 
8251 8249 8246 8249 8248 8245 8251 8242 8241 8232 8237 8242 8242 8240 8236 8237 8239 8236 8237 8235 8235 8224 8220 8208 8189 8179 8182 8224 8194 8205 8219 8219 8225 8248 8219 8215 8220 8243 8250 8253 8257 8260 8268 8267 8275 8275 8272 8272 8268 8241 8230 8230 8228 8228 8227 8225 8223 8227 8227 8227 8227 8227 8226 8230 8227 8230 8231 8228 8225 8223 8223 8224 8226 8236 8234 8233 8236 8237 8237 8233 
8253 8249 8247 8248 8250 8250 8247 8245 8243 8240 8239 8243 8239 8237 8239 8241 8239 8233 8236 8234 8236 8246 8250 8246 8249 8251 8256 8254 8259 8263 8267 8271 8271 8273 8272 8266 8266 8260 8258 8259 8260 8268 8271 8271 8281 8287 8283 8281 8270 8235 8225 8232 8228 8231 8228 8224 8228 8228 8227 8226 8227 8224 8226 8228 8229 8232 8230 8229 8227 8227 8224 8225 8224 8237 8236 8233 8239 8245 8240 8231 
8252 8251 8248 8252 8252 8251 8252 8248 8248 8242 8245 8240 8241 8238 8236 8237 8236 8233 8236 8239 8243 8245 8249 8252 8256 8258 8264 8266 8265 8268 8275 8282 8283 8285 8280 8278 8274 8267 8265 8266 8270 8274 8282 8285 8297 8302 8296 8277 8249 8230 8226 8228 8228 8230 8228 8226 8228 8228 8229 8227 8227 8224 8226 8228 8228 8229 8233 8230 8230 8224 8223 8226 8223 8229 8236 8234 8239 8241 8241 8234 
8252 8255 8257 8250 8252 8252 8255 8249 8246 8243 8245 8241 8241 8243 8238 8234 8236 8233 8239 8245 8251 8252 8256 8256 8260 8266 8272 8271 8272 8275 8285 8291 8294 8299 8297 8291 8286 8282 8281 8287 8290 8283 8272 8275 8287 8288 8272 8259 8230 8223 8226 8229 8229 8229 8226 8226 8227 8225 8227 8225 8227 8228 8226 8228 8226 8229 8227 8231 8229 8226 8222 8224 8219 8234 8243 8234 8240 8236 8235 8235 
8249 8249 8255 8246 8253 8254 8250 8251 8245 8244 8242 8243 8240 8244 8239 8237 8235 8238 8243 8247 8246 8251 8263 8265 8270 8279 8288 8286 8285 8284 8287 8288 8281 8280 8292 8305 8306 8296 8299 8297 8290 8281 8276 8274 8268 8263 8260 8253 8228 8226 8225 8227 8227 8228 8228 8226 8229 8224 8225 8226 8225 8225 8225 8229 8229 8231 8227 8224 8225 8224 8226 8220 8224 8235 8237 8235 8236 8235 8237 8232 
8249 8244 8249 8245 8248 8252 8249 8249 8250 8242 8243 8242 8243 8243 8243 8241 8241 8240 8242 8246 8248 8241 8246 8254 8258 8274 8277 8285 8279 8270 8273 8271 8264 8268 8281 8288 8295 8283 8277 8282 8281 8279 8275 8269 8267 8264 8259 8247 8227 8226 8227 8226 8225 8227 8226 8225 8228 8225 8225 8228 8225 8227 8230 8230 8228 8230 8225 8223 8224 8222 8226 8229 8224 8233 8236 8235 8239 8245 8239 8235 
8248 8242 8245 8243 8246 8249 8250 8248 8248 8245 8245 8240 8243 8245 8239 8242 8241 8242 8238 8241 8246 8240 8240 8247 8255 8261 8264 8267 8266 8267 8273 8269 8267 8265 8274 8278 8280 8277 8272 8274 8274 8271 8268 8263 8266 8264 8251 8240 8226 8227 8224 8225 8225 8228 8227 8227 8225 8225 8225 8229 8227 8229 8228 8227 8229 8228 8227 8223 8221 8223 8223 8227 8228 8227 8238 8237 8244 8248 8239 8235 
8246 8246 8242 8241 8247 8246 8249 8243 8242 8242 8243 8240 8240 8244 8242 8242 8240 8237 8235 8240 8238 8238 8243 8244 8248 8252 8262 8259 8261 8261 8266 8268 8262 8264 8268 8267 8269 8266 8264 8264 8268 8262 8259 8256 8257 8258 8249 8237 8222 8220 8220 8223 8223 8224 8225 8224 8227 8225 8226 8229 8230 8228 8228 8228 8230 8229 8223 8221 8221 8224 8225 8226 8227 8232 8237 8239 8241 8245 8243 8240 
8245 8252 8245 8244 8249 8246 8247 8242 8241 8241 8239 8238 8242 8241 8241 8244 8243 8240 8237 8242 8242 8239 8242 8241 8243 8246 8257 8254 8253 8257 8260 8259 8261 8263 8265 8261 8263 8257 8256 8255 8257 8255 8255 8252 8251 8250 8245 8232 8222 8221 8222 8223 8219 8225 8223 8222 8226 8225 8228 8231 8226 8226 8228 8230 8230 8230 8224 8226 8223 8222 8225 8225 8227 8232 8236 8236 8244 8240 8238 8234 
8246 8250 8240 8243 8247 8245 8248 8241 8240 8241 8240 8240 8244 8246 8248 8248 8245 8241 8240 8243 8241 8245 8238 8234 8234 8241 8249 8252 8246 8250 8256 8255 8252 8256 8261 8256 8254 8247 8247 8246 8250 8247 8253 8252 8249 8250 8242 8231 8221 8221 8220 8219 8223 8224 8223 8222 8227 8225 8225 8228 8228 8226 8225 8226 8226 8229 8228 8225 8224 8225 8225 8223 8232 8231 8233 8231 8240 8237 8237 8236 
8250 8254 8245 8244 8253 8247 8252 8243 8239 8237 8244 8240 8241 8244 8245 8245 8244 8240 8241 8244 8246 8246 8236 8234 8233 8234 8239 8243 8245 8243 8249 8250 8249 8249 8255 8257 8248 8245 8240 8238 8248 8248 8245 8245 8245 8246 8242 8227 8221 8220 8220 8222 8225 8220 8218 8221 8226 8228 8227 8224 8225 8226 8225 8227 8224 8228 8226 8225 8223 8223 8221 8223 8226 8233 8234 8230 8239 8238 8237 8231 
8263 8264 8255 8257 8251 8248 8248 8244 8252 8245 8243 8240 8240 8240 8240 8242 8244 8244 8241 8243 8244 8243 8237 8239 8235 8230 8234 8238 8242 8240 8245 8241 8242 8249 8249 8248 8241 8238 8233 8238 8245 8246 8244 8238 8237 8238 8236 8212 8209 8218 8219 8216 8219 8222 8219 8218 8221 8223 8224 8221 8222 8223 8219 8221 8225 8224 8224 8220 8224 8225 8222 8227 8222 8226 8237 8236 8241 8242 8240 8235 
8287 8289 8281 8279 8262 8249 8252 8249 8257 8267 8253 8247 8247 8240 8243 8245 8242 8239 8240 8242 8245 8241 8245 8239 8236 8232 8231 8230 8234 8238 8242 8237 8242 8243 8246 8244 8246 8236 8233 8237 8243 8243 8240 8237 8234 8237 8230 8204 8203 8208 8211 8220 8220 8222 8217 8218 8220 8221 8222 8221 8223 8222 8225 8223 8218 8225 8224 8217 8226 8219 8225 8224 8226 8228 8238 8237 8242 8241 8246 8241 
8276 8269 8269 8261 8255 8256 8261 8252 8269 8265 8262 8262 8261 8250 8246 8249 8254 8250 8252 8244 8239 8248 8243 8240 8234 8229 8228 8232 8228 8236 8244 8242 8240 8239 8244 8244 8243 8237 8230 8236 8244 8237 8236 8235 8231 8231 8226 8204 8199 8201 8205 8220 8222 8222 8215 8213 8216 8217 8220 8218 8223 8222 8223 8224 8222 8219 8220 8221 8222 8221 8225 8232 8239 8235 8237 8243 8246 8248 8245 8244 
8299 8280 8278 8264 8268 8262 8289 8275 8273 8276 8285 8279 8262 8254 8253 8262 8273 8265 8254 8244 8250 8245 8232 8231 8219 8216 8218 8222 8229 8233 8242 8239 8236 8239 8241 8245 8238 8235 8229 8235 8240 8236 8234 8230 8227 8227 8225 8205 8204 8207 8211 8220 8220 8221 8198 8207 8211 8208 8203 8211 8228 8223 8225 8224 8221 8218 8227 8229 8231 8227 8236 8245 8249 8252 8253 8239 8252 8254 8254 8253 
8317 8310 8276 8274 8286 8320 8316 8302 8279 8280 8327 8329 8295 8279 8277 8290 8323 8300 8279 8264 8267 8254 8251 8229 8212 8220 8222 8217 8223 8228 8230 8236 8231 8234 8241 8236 8235 8229 8229 8232 8235 8229 8229 8223 8225 8227 8220 8207 8208 8210 8211 8211 8217 8220 8215 8206 8215 8223 8205 8218 8226 8225 8213 8215 8219 8226 8225 8240 8244 8236 8255 8254 8251 8255 8262 8263 8268 8264 8263 8265 
8324 8301 8301 8340 8347 8355 8349 8361 8361 8360 8354 8353 8351 8357 8364 8350 8350 8341 8325 8326 8331 8307 8264 8234 8220 8214 8221 8214 8216 8216 8223 8222 8222 8223 8231 8229 8232 8230 8226 8229 8231 8227 8226 8228 8224 8222 8213 8213 8212 8206 8209 8213 8205 8216 8216 8206 8215 8221 8222 8215 8231 8232 8223 8214 8223 8232 8226 8232 8246 8246 8244 8265 8269 8271 8261 8268 8267 8275 8270 8267 
8306 8315 8339 8362 8361 8345 8354 8362 8377 8372 8349 8348 8350 8367 8388 8366 8347 8345 8333 8339 8363 8365 8304 8261 8247 8226 8232 8219 8211 8215 8218 8214 8211 8217 8225 8223 8226 8225 8222 8223 8227 8228 8220 8224 8221 8215 8210 8218 8217 8214 8213 8215 8205 8209 8212 8206 8206 8211 8218 8214 8221 8229 8228 8216 8233 8239 8235 8243 8250 8248 8247 8256 8266 8274 8277 8259 8268 8274 8276 8270 
8329 8364 8365 8367 8362 8361 8377 8384 8371 8368 8365 8366 8387 8401 8386 8376 8364 8349 8354 8378 8381 8375 8337 8277 8263 8243 8243 8244 8241 8242 8238 8226 8225 8230 8236 8233 8232 8230 8223 8223 8223 8219 8221 8217 8219 8213 8207 8220 8214 8214 8216 8217 8213 8214 8216 8215 8217 8214 8215 8219 8219 8224 8223 8219 8223 8226 8237 8238 8245 8260 8268 8258 8259 8274 8268 8266 8264 8280 8279 8269 
8376 8382 8364 8350 8344 8355 8403 8393 8343 8342 8338 8335 8397 8400 8370 8346 8333 8331 8341 8384 8379 8328 8303 8292 8265 8233 8246 8244 8250 8240 8237 8233 8234 8232 8237 8229 8234 8231 8223 8221 8223 8224 8220 8224 8218 8215 8210 8216 8216 8213 8216 8215 8214 8217 8217 8219 8219 8219 8227 8224 8223 8226 8233 8235 8239 8243 8248 8257 8255 8254 8273 8280 8285 8287 8294 8274 8281 8276 8276 8271 
8383 8388 8382 8386 8383 8389 8409 8392 8390 8396 8403 8392 8396 8398 8380 8363 8360 8371 8381 8390 8388 8370 8356 8330 8273 8242 8235 8250 8254 8256 8254 8239 8243 8240 8239 8241 8237 8229 8230 8228 8225 8228 8224 8225 8221 8206 8212 8213 8220 8218 8215 8223 8216 8217 8225 8227 8228 8228 8230 8229 8230 8226 8249 8255 8252 8274 8287 8306 8289 8278 8307 8314 8308 8299 8304 8317 8325 8279 8275 8271 
8381 8381 8377 8386 8407 8388 8379 8361 8369 8378 8403 8396 8377 8369 8361 8350 8347 8374 8381 8365 8348 8345 8339 8335 8317 8280 8263 8254 8249 8244 8248 8252 8247 8246 8234 8238 8239 8231 8227 8230 8230 8220 8216 8225 8220 8211 8217 8228 8235 8232 8245 8267 8262 8255 8273 8281 8284 8273 8279 8273 8254 8248 8267 8267 8272 8275 8295 8313 8312 8303 8306 8336 8345 8340 8320 8326 8314 8273 8277 8276 
8393 8394 8389 8413 8411 8388 8387 8394 8400 8403 8411 8386 8367 8363 8353 8347 8357 8381 8386 8366 8361 8353 8352 8355 8377 8360 8310 8272 8250 8245 8256 8248 8246 8253 8243 8250 8245 8240 8235 8243 8241 8241 8242 8227 8214 8212 8236 8254 8272 8269 8288 8301 8301 8285 8290 8301 8302 8284 8270 8254 8260 8260 8265 8277 8286 8292 8292 8327 8330 8333 8313 8325 8324 8318 8325 8313 8306 8268 8274 8280 
8415 8414 8410 8392 8377 8364 8366 8391 8406 8400 8381 8360 8346 8336 8338 8347 8363 8370 8354 8350 8348 8342 8346 8364 8372 8365 8341 8313 8282 8271 8271 8282 8276 8268 8254 8255 8253 8253 8261 8284 8311 8317 8307 8256 8218 8215 8227 8244 8257 8257 8275 8299 8300 8298 8294 8316 8319 8300 8275 8266 8264 8267 8260 8276 8281 8288 8291 8297 8309 8308 8301 8299 8314 8330 8322 8310 8274 8273 8271 8273 


