P2
80 60
8342
8291 8280 8289 8288 8298 8295 8290 8292 8293 8291 8295 8294 8293 8293 8294 8296 8293 8292 8294 8289 8298 8309 8310 8303 8305 8303 8301 8297 8300 8302 8302 8303 8298 8299 8300 8303 8300 8300 8304 8307 8306 8302 8298 8294 8294 8298 8296 8296 8293 8293 8294 8289 8288 8281 8277 8284 8284 8283 8288 8294 8291 8291 8295 8299 8298 8300 8302 8306 8307 8310 8310 8315 8316 8319 8321 8318 8315 8312 8311 8317 
8285 8289 8299 8293 8293 8293 8286 8288 8286 8293 8289 8293 8288 8290 8287 8292 8288 8290 8291 8298 8303 8310 8310 8304 8310 8294 8293 8295 8300 8297 8296 8302 8296 8297 8294 8297 8292 8306 8307 8308 8304 8302 8293 8293 8293 8297 8297 8294 8289 8294 8289 8290 8288 8287 8279 8284 8285 8282 8286 8285 8289 8290 8295 8291 8297 8297 8301 8302 8307 8309 8310 8305 8313 8314 8315 8312 8314 8311 8307 8311 
8272 8273 8282 8280 8291 8283 8282 8290 8285 8287 8291 8286 8282 8289 8290 8290 8291 8293 8287 8296 8295 8306 8308 8299 8302 8298 8296 8297 8294 8288 8293 8298 8292 8299 8295 8292 8294 8304 8304 8305 8299 8295 8290 8294 8293 8296 8294 8295 8290 8287 8290 8286 8283 8285 8284 8278 8280 8285 8284 8283 8290 8291 8288 8293 8290 8289 8295 8297 8305 8306 8303 8301 8308 8308 8308 8306 8315 8307 8304 8304 
8283 8269 8294 8278 8290 8284 8291 8292 8290 8287 8284 8276 8287 8285 8282 8287 8287 8293 8284 8289 8291 8294 8290 8302 8301 8296 8296 8296 8298 8299 8290 8297 8297 8295 8298 8295 8300 8300 8300 8303 8299 8295 8292 8291 8291 8289 8290 8293 8290 8289 8284 8280 8287 8284 8284 8283 8278 8279 8282 8280 8287 8287 8283 8290 8286 8284 8291 8296 8299 8305 8298 8302 8305 8307 8307 8304 8313 8308 8301 8306 
8283 8272 8288 8279 8285 8285 8290 8283 8283 8283 8280 8274 8281 8285 8281 8285 8286 8285 8290 8284 8292 8296 8293 8297 8299 8296 8294 8291 8289 8296 8290 8296 8295 8293 8294 8300 8299 8298 8300 8299 8301 8295 8290 8286 8286 8284 8285 8291 8288 8288 8286 8284 8284 8280 8282 8280 8278 8285 8284 8284 8286 8291 8283 8284 8285 8283 8283 8285 8294 8298 8296 8300 8301 8304 8299 8300 8307 8304 8301 8305 
8292 8276 8279 8279 8280 8283 8289 8288 8285 8285 8270 8278 8285 8281 8277 8283 8284 8280 8290 8294 8291 8293 8301 8294 8300 8297 8294 8290 8288 8293 8295 8299 8289 8290 8293 8298 8295 8296 8299 8305 8298 8295 8294 8286 8285 8286 8287 8292 8286 8286 8287 8282 8287 8284 8282 8285 8283 8283 8286 8287 8283 8288 8284 8284 8281 8284 8283 8280 8288 8298 8297 8293 8303 8294 8291 8297 8299 8297 8297 8299 
8291 8283 8284 8290 8286 8279 8292 8295 8282 8274 8269 8289 8285 8276 8278 8285 8279 8281 8288 8291 8286 8299 8303 8296 8300 8294 8284 8287 8286 8295 8297 8297 8295 8292 8292 8296 8295 8297 8298 8301 8299 8294 8300 8291 8292 8286 8290 8287 8286 8289 8284 8281 8284 8282 8280 8281 8281 8279 8281 8287 8276 8284 8283 8282 8279 8285 8285 8289 8279 8283 8295 8293 8296 8290 8291 8293 8289 8292 8296 8302 
8287 8283 8275 8289 8280 8282 8288 8296 8289 8264 8286 8286 8282 8275 8283 8284 8282 8288 8286 8288 8293 8298 8301 8302 8299 8293 8283 8287 8286 8295 8295 8298 8296 8296 8294 8297 8294 8295 8296 8302 8296 8291 8295 8291 8287 8286 8288 8284 8285 8284 8279 8279 8284 8279 8280 8278 8280 8279 8281 8284 8278 8284 8286 8281 8280 8288 8287 8288 8283 8281 8284 8288 8295 8285 8289 8288 8289 8289 8293 8297 
8291 8279 8278 8282 8286 8281 8293 8290 8286 8270 8277 8281 8276 8283 8275 8284 8279 8281 8288 8290 8290 8293 8296 8295 8287 8292 8283 8287 8286 8286 8293 8294 8289 8288 8295 8296 8296 8294 8294 8297 8295 8292 8292 8288 8287 8288 8286 8286 8285 8279 8278 8278 8281 8280 8279 8275 8276 8280 8273 8277 8275 8280 8276 8275 8279 8278 8280 8285 8282 8283 8281 8278 8281 8279 8283 8282 8285 8285 8283 8288 
8288 8271 8282 8283 8284 8286 8275 8285 8283 8277 8278 8278 8280 8281 8276 8273 8281 8282 8289 8290 8288 8290 8299 8291 8284 8287 8287 8288 8289 8288 8288 8290 8287 8288 8294 8297 8296 8293 8295 8298 8294 8290 8291 8280 8285 8285 8286 8289 8284 8280 8278 8280 8281 8277 8279 8271 8279 8278 8278 8278 8277 8278 8280 8275 8277 8273 8278 8280 8277 8280 8280 8280 8281 8275 8278 8273 8280 8281 8274 8279 
8289 8272 8281 8280 8278 8283 8273 8283 8285 8274 8279 8278 8277 8278 8277 8278 8282 8275 8273 8281 8288 8292 8296 8293 8287 8281 8287 8290 8290 8287 8285 8284 8280 8288 8290 8286 8286 8292 8293 8293 8294 8288 8285 8288 8285 8286 8287 8283 8284 8277 8281 8276 8278 8277 8276 8272 8276 8269 8277 8275 8276 8275 8279 8270 8270 8270 8280 8274 8273 8274 8273 8275 8274 8270 8270 8269 8271 8268 8267 8277 
8285 8279 8281 8279 8273 8279 8274 8285 8282 8276 8279 8273 8277 8276 8277 8278 8278 8276 8277 8288 8289 8296 8292 8297 8292 8287 8289 8286 8291 8289 8292 8290 8283 8289 8285 8285 8291 8289 8296 8289 8289 8291 8289 8292 8289 8287 8287 8283 8282 8280 8285 8281 8282 8277 8276 8275 8275 8269 8281 8280 8274 8275 8276 8270 8268 8270 8280 8276 8275 8271 8275 8271 8272 8270 8263 8266 8271 8267 8263 8271 
8282 8277 8275 8269 8270 8278 8282 8271 8275 8274 8276 8273 8272 8275 8278 8280 8278 8279 8282 8281 8284 8294 8293 8291 8290 8285 8278 8290 8285 8286 8290 8282 8285 8286 8283 8282 8294 8295 8289 8287 8288 8288 8293 8288 8288 8284 8286 8284 8282 8282 8284 8281 8283 8281 8277 8269 8275 8272 8274 8275 8273 8273 8277 8266 8272 8269 8274 8270 8273 8266 8266 8267 8268 8265 8265 8264 8270 8266 8260 8264 
8285 8286 8284 8281 8282 8281 8282 8283 8268 8279 8277 8276 8273 8274 8281 8276 8282 8283 8285 8282 8284 8290 8291 8294 8288 8285 8284 8285 8281 8286 8290 8282 8290 8288 8288 8292 8286 8289 8288 8288 8289 8288 8291 8286 8282 8285 8284 8287 8285 8283 8282 8285 8283 8280 8284 8274 8277 8275 8276 8275 8274 8271 8271 8269 8273 8275 8273 8274 8273 8271 8270 8266 8270 8266 8262 8269 8265 8267 8259 8263 
8289 8273 8283 8280 8279 8278 8275 8282 8273 8273 8279 8278 8278 8280 8276 8278 8277 8277 8285 8285 8278 8289 8288 8293 8285 8285 8286 8283 8278 8287 8280 8280 8282 8280 8284 8285 8286 8287 8288 8285 8284 8283 8284 8287 8284 8282 8280 8281 8280 8277 8280 8281 8286 8281 8278 8277 8277 8275 8275 8277 8274 8272 8270 8272 8271 8273 8273 8268 8267 8271 8271 8269 8271 8267 8263 8263 8263 8268 8260 8261 
8293 8264 8272 8280 8280 8272 8276 8277 8274 8277 8276 8274 8273 8273 8278 8279 8279 8278 8286 8283 8276 8288 8288 8290 8283 8286 8287 8278 8278 8285 8281 8285 8281 8282 8282 8289 8290 8287 8285 8282 8284 8283 8280 8281 8280 8279 8280 8280 8277 8281 8281 8283 8283 8283 8275 8279 8278 8278 8274 8276 8272 8271 8268 8270 8272 8276 8271 8270 8271 8271 8265 8265 8266 8267 8265 8267 8262 8263 8256 8259 
8289 8264 8273 8282 8275 8273 8271 8272 8277 8278 8277 8275 8273 8276 8270 8282 8277 8281 8283 8283 8278 8289 8291 8286 8283 8286 8284 8281 8279 8282 8283 8284 8281 8287 8284 8287 8284 8283 8286 8282 8279 8269 8260 8245 8255 8278 8279 8275 8280 8279 8279 8280 8281 8279 8274 8276 8271 8275 8274 8276 8272 8271 8270 8269 8269 8273 8270 8273 8265 8271 8269 8267 8269 8270 8266 8269 8263 8269 8258 8259 
8286 8269 8277 8270 8275 8279 8276 8279 8273 8281 8279 8275 8282 8282 8277 8280 8277 8279 8282 8281 8283 8290 8292 8281 8282 8287 8287 8278 8279 8285 8280 8286 8284 8286 8284 8285 8286 8282 8282 8278 8263 8210 8212 8244 8271 8278 8280 8277 8280 8281 8279 8281 8276 8278 8270 8277 8270 8271 8272 8277 8274 8273 8271 8270 8269 8274 8273 8274 8271 8270 8266 8270 8268 8269 8267 8267 8259 8264 8253 8262 
8286 8270 8277 8276 8273 8274 8280 8283 8280 8272 8276 8275 8281 8275 8279 8279 8273 8280 8276 8275 8276 8292 8294 8286 8288 8287 8288 8275 8277 8276 8278 8285 8284 8285 8284 8280 8280 8267 8253 8233 8231 8191 8237 8261 8270 8273 8272 8277 8273 8275 8281 8275 8275 8275 8271 8271 8275 8271 8272 8276 8270 8269 8272 8270 8267 8268 8269 8270 8271 8273 8272 8273 8274 8268 8265 8266 8261 8266 8259 8265 
8283 8270 8277 8273 8271 8281 8280 8280 8279 8271 8278 8277 8276 8273 8278 8278 8275 8277 8273 8281 8273 8292 8295 8285 8284 8276 8283 8275 8275 8279 8276 8280 8281 8285 8283 8282 8263 8236 8217 8212 8205 8197 8218 8223 8225 8234 8249 8256 8262 8275 8278 8276 8274 8276 8275 8275 8275 8272 8272 8272 8270 8270 8274 8272 8268 8268 8266 8269 8267 8272 8270 8271 8268 8266 8267 8268 8264 8266 8261 8264 
8283 8275 8268 8268 8265 8271 8269 8281 8280 8273 8275 8276 8274 8274 8270 8282 8276 8276 8266 8278 8273 8286 8294 8287 8282 8274 8280 8280 8275 8282 8280 8278 8281 8281 8284 8267 8229 8214 8214 8219 8215 8208 8213 8224 8237 8249 8260 8265 8271 8270 8273 8274 8278 8274 8276 8278 8276 8274 8273 8271 8269 8271 8271 8274 8270 8271 8268 8273 8271 8273 8271 8274 8271 8270 8268 8270 8263 8268 8262 8264 
8282 8279 8275 8284 8279 8277 8262 8281 8268 8274 8272 8270 8278 8276 8266 8273 8272 8273 8268 8276 8276 8286 8287 8285 8278 8277 8276 8280 8278 8278 8277 8273 8279 8282 8280 8263 8231 8216 8216 8218 8209 8208 8230 8261 8271 8274 8273 8279 8275 8270 8273 8274 8276 8275 8273 8274 8273 8274 8269 8270 8270 8270 8273 8272 8271 8272 8271 8272 8270 8270 8269 8268 8266 8264 8269 8268 8264 8268 8262 8265 
8285 8275 8278 8282 8278 8275 8262 8261 8268 8274 8277 8274 8273 8275 8272 8270 8270 8268 8268 8270 8276 8270 8263 8260 8267 8276 8280 8279 8279 8278 8275 8274 8276 8278 8275 8261 8254 8221 8210 8205 8203 8213 8227 8249 8266 8270 8264 8269 8272 8269 8276 8274 8275 8273 8274 8272 8275 8271 8270 8268 8270 8271 8270 8267 8270 8273 8272 8274 8270 8272 8269 8269 8272 8266 8271 8272 8268 8270 8263 8271 
8287 8279 8277 8280 8277 8279 8274 8267 8274 8279 8278 8271 8277 8274 8276 8275 8276 8274 8268 8280 8277 8249 8245 8235 8250 8272 8280 8272 8276 8273 8272 8283 8279 8277 8274 8273 8265 8234 8233 8216 8204 8234 8248 8240 8254 8265 8270 8270 8270 8273 8275 8271 8273 8273 8273 8272 8275 8273 8271 8272 8266 8270 8274 8272 8273 8272 8272 8273 8268 8271 8267 8268 8268 8269 8266 8268 8266 8266 8267 8267 
8286 8267 8278 8282 8278 8274 8269 8280 8276 8269 8274 8270 8278 8276 8278 8276 8274 8278 8269 8270 8276 8254 8248 8235 8250 8267 8273 8273 8276 8272 8278 8277 8275 8275 8274 8272 8270 8269 8261 8239 8218 8260 8271 8270 8267 8268 8271 8270 8273 8272 8276 8273 8270 8272 8274 8274 8277 8277 8273 8275 8268 8268 8267 8274 8272 8273 8270 8274 8272 8268 8267 8269 8270 8269 8267 8267 8263 8266 8267 8268 
8290 8268 8270 8284 8276 8272 8278 8266 8265 8270 8272 8277 8277 8274 8274 8274 8273 8278 8271 8269 8272 8253 8243 8234 8244 8265 8269 8270 8272 8273 8271 8275 8270 8276 8274 8269 8272 8272 8265 8259 8240 8264 8273 8268 8271 8273 8271 8272 8274 8276 8276 8273 8270 8273 8270 8271 8270 8271 8272 8276 8272 8268 8265 8268 8269 8273 8271 8272 8268 8268 8266 8269 8268 8265 8265 8268 8261 8265 8268 8270 
8283 8276 8268 8279 8272 8276 8272 8266 8271 8272 8267 8276 8270 8276 8276 8273 8272 8275 8273 8273 8269 8247 8236 8236 8245 8264 8273 8272 8275 8272 8267 8266 8255 8252 8248 8234 8230 8240 8247 8259 8239 8265 8271 8270 8273 8269 8269 8269 8272 8272 8271 8272 8270 8274 8272 8272 8271 8270 8271 8274 8268 8262 8269 8265 8269 8271 8273 8269 8264 8266 8267 8265 8268 8269 8265 8270 8267 8268 8265 8269 
8284 8279 8280 8280 8279 8269 8275 8271 8269 8275 8270 8276 8277 8274 8272 8275 8274 8275 8272 8271 8267 8247 8243 8239 8242 8264 8271 8273 8270 8257 8235 8224 8214 8208 8204 8210 8204 8202 8238 8253 8236 8264 8270 8268 8271 8270 8269 8269 8275 8275 8268 8270 8267 8271 8273 8273 8273 8273 8278 8277 8270 8270 8271 8270 8274 8273 8272 8264 8266 8267 8264 8266 8267 8268 8266 8272 8272 8270 8270 8270 
8285 8271 8274 8282 8273 8279 8273 8277 8275 8278 8275 8275 8276 8271 8277 8266 8270 8278 8268 8273 8263 8248 8241 8244 8249 8266 8268 8267 8254 8235 8210 8201 8224 8219 8197 8238 8245 8228 8246 8250 8239 8264 8270 8270 8269 8267 8267 8272 8267 8268 8270 8266 8271 8274 8272 8274 8275 8276 8276 8270 8270 8265 8271 8269 8274 8272 8271 8263 8264 8268 8266 8266 8263 8263 8266 8271 8266 8278 8272 8275 
8280 8273 8277 8279 8275 8282 8278 8275 8278 8273 8278 8277 8275 8274 8269 8271 8269 8277 8271 8273 8265 8248 8244 8244 8251 8263 8269 8265 8247 8218 8198 8234 8256 8257 8244 8262 8262 8264 8240 8234 8244 8262 8267 8269 8263 8266 8261 8270 8263 8268 8272 8270 8277 8275 8276 8274 8272 8270 8270 8272 8267 8270 8273 8272 8275 8275 8274 8265 8264 8265 8268 8267 8266 8265 8271 8268 8266 8276 8272 8276 
8285 8276 8276 8278 8276 8282 8273 8277 8278 8268 8276 8270 8269 8274 8269 8271 8273 8270 8267 8264 8261 8240 8247 8245 8248 8257 8264 8262 8237 8199 8222 8255 8256 8254 8243 8260 8263 8270 8255 8236 8247 8262 8263 8263 8263 8262 8263 8270 8264 8271 8270 8271 8271 8272 8273 8272 8272 8271 8272 8269 8267 8269 8276 8276 8273 8270 8272 8268 8265 8263 8263 8268 8266 8271 8270 8269 8276 8274 8275 8276 
8286 8272 8274 8275 8271 8282 8273 8273 8277 8273 8270 8273 8273 8268 8269 8270 8269 8265 8263 8264 8261 8247 8247 8244 8253 8256 8261 8252 8232 8208 8234 8251 8244 8218 8229 8258 8263 8259 8263 8239 8250 8257 8255 8262 8262 8266 8266 8264 8268 8273 8270 8267 8274 8269 8270 8269 8269 8272 8272 8273 8270 8273 8274 8276 8274 8276 8272 8268 8270 8267 8269 8270 8272 8268 8268 8272 8273 8277 8274 8276 
8289 8277 8273 8278 8270 8274 8272 8272 8279 8273 8269 8270 8264 8270 8266 8269 8265 8263 8258 8262 8261 8254 8246 8244 8252 8258 8262 8250 8245 8243 8243 8244 8225 8196 8202 8226 8229 8243 8256 8234 8254 8251 8223 8222 8229 8238 8246 8255 8253 8261 8261 8263 8270 8271 8269 8268 8272 8274 8275 8271 8273 8275 8270 8272 8273 8274 8269 8267 8272 8271 8271 8272 8267 8265 8268 8274 8271 8275 8272 8277 
8289 8273 8285 8281 8277 8278 8275 8276 8276 8270 8270 8270 8263 8268 8267 8264 8262 8268 8265 8263 8261 8251 8244 8237 8250 8264 8263 8259 8260 8248 8228 8224 8201 8202 8217 8224 8217 8229 8254 8237 8256 8245 8219 8230 8225 8217 8213 8215 8224 8228 8245 8258 8272 8271 8266 8267 8268 8276 8268 8270 8271 8271 8271 8274 8273 8273 8274 8271 8271 8273 8276 8273 8271 8273 8276 8272 8272 8279 8273 8279 
8292 8277 8282 8280 8277 8272 8277 8280 8272 8272 8273 8271 8269 8264 8266 8267 8268 8266 8267 8268 8262 8253 8232 8222 8242 8266 8259 8262 8263 8248 8225 8219 8205 8201 8204 8207 8205 8220 8243 8232 8243 8247 8233 8258 8248 8208 8197 8223 8248 8236 8222 8229 8263 8267 8267 8268 8268 8273 8264 8272 8273 8277 8274 8274 8272 8270 8269 8271 8275 8273 8270 8270 8271 8270 8273 8272 8275 8278 8273 8279 
8293 8278 8280 8284 8279 8275 8281 8283 8274 8266 8262 8271 8274 8266 8271 8273 8270 8269 8268 8267 8267 8250 8237 8231 8249 8257 8258 8260 8258 8239 8233 8238 8225 8204 8201 8201 8209 8209 8210 8220 8244 8264 8260 8265 8265 8245 8248 8263 8267 8261 8231 8226 8259 8270 8269 8267 8272 8275 8265 8274 8270 8277 8276 8273 8273 8273 8272 8272 8272 8271 8271 8268 8270 8269 8271 8276 8273 8276 8272 8278 
8292 8284 8285 8280 8281 8277 8282 8273 8277 8266 8271 8277 8279 8271 8272 8268 8266 8266 8268 8271 8267 8250 8250 8241 8253 8255 8261 8261 8259 8259 8255 8251 8219 8212 8207 8209 8210 8206 8207 8212 8232 8262 8269 8268 8268 8273 8267 8271 8264 8260 8254 8227 8250 8268 8269 8268 8267 8275 8273 8273 8274 8276 8271 8270 8273 8275 8274 8269 8265 8267 8270 8271 8269 8272 8274 8276 8270 8272 8273 8276 
8286 8281 8286 8284 8281 8280 8280 8279 8281 8274 8277 8277 8275 8269 8267 8268 8260 8263 8260 8263 8259 8252 8253 8244 8245 8261 8265 8262 8262 8260 8256 8256 8244 8237 8212 8216 8232 8221 8201 8205 8250 8263 8266 8265 8270 8273 8266 8265 8263 8264 8266 8253 8235 8268 8262 8270 8268 8271 8268 8272 8269 8274 8267 8272 8269 8273 8274 8275 8273 8272 8272 8270 8267 8272 8274 8273 8275 8283 8276 8278 
8288 8283 8280 8284 8285 8284 8279 8280 8274 8275 8278 8271 8271 8272 8268 8260 8266 8262 8262 8268 8265 8247 8249 8255 8258 8259 8261 8260 8261 8253 8253 8242 8247 8239 8214 8208 8205 8215 8211 8208 8235 8260 8263 8264 8262 8260 8266 8262 8262 8261 8263 8255 8235 8267 8265 8270 8272 8272 8272 8269 8268 8273 8268 8271 8272 8274 8277 8275 8275 8270 8268 8270 8269 8268 8274 8277 8274 8277 8275 8278 
8288 8285 8296 8287 8284 8284 8285 8279 8280 8278 8281 8274 8273 8271 8267 8262 8260 8265 8267 8262 8264 8247 8254 8258 8251 8252 8251 8243 8238 8231 8218 8212 8217 8221 8216 8210 8205 8212 8210 8205 8204 8241 8260 8264 8257 8263 8260 8265 8263 8262 8265 8264 8258 8268 8266 8270 8271 8269 8271 8269 8264 8271 8269 8270 8272 8273 8273 8274 8273 8273 8270 8268 8267 8268 8274 8278 8272 8273 8271 8281 
8284 8286 8295 8279 8286 8288 8282 8283 8277 8276 8274 8276 8266 8266 8277 8265 8260 8269 8276 8269 8269 8258 8257 8258 8249 8229 8220 8220 8222 8233 8224 8207 8215 8219 8203 8205 8212 8209 8212 8207 8205 8223 8258 8262 8258 8259 8258 8257 8260 8255 8266 8263 8266 8265 8267 8269 8270 8269 8270 8273 8266 8272 8270 8271 8274 8274 8270 8270 8269 8271 8273 8267 8268 8273 8274 8276 8271 8271 8273 8276 
8292 8280 8290 8277 8284 8284 8280 8279 8283 8278 8274 8278 8278 8274 8277 8277 8267 8273 8274 8272 8267 8253 8255 8252 8246 8217 8207 8215 8238 8241 8237 8214 8212 8209 8205 8211 8212 8208 8204 8212 8208 8219 8255 8261 8259 8253 8258 8261 8258 8263 8266 8265 8263 8267 8266 8269 8267 8268 8269 8269 8266 8275 8271 8276 8274 8275 8272 8265 8271 8271 8271 8275 8270 8275 8273 8279 8278 8279 8278 8280 
8294 8281 8285 8281 8282 8285 8282 8282 8279 8282 8280 8277 8278 8278 8271 8270 8269 8275 8266 8261 8260 8248 8252 8240 8236 8217 8216 8234 8236 8238 8246 8235 8207 8205 8206 8206 8208 8206 8203 8210 8206 8211 8233 8252 8246 8248 8253 8258 8262 8268 8271 8268 8267 8267 8267 8267 8264 8266 8268 8271 8270 8277 8274 8273 8274 8273 8270 8263 8268 8271 8272 8278 8273 8276 8280 8281 8283 8280 8279 8283 
8294 8289 8291 8282 8286 8283 8285 8285 8283 8283 8278 8284 8283 8282 8271 8271 8270 8268 8267 8267 8273 8267 8263 8261 8247 8228 8236 8244 8245 8241 8241 8240 8226 8229 8209 8204 8199 8204 8203 8210 8205 8202 8205 8232 8233 8246 8249 8243 8247 8269 8280 8291 8271 8264 8268 8266 8268 8267 8271 8274 8270 8278 8274 8275 8273 8273 8267 8265 8268 8272 8272 8275 8277 8278 8283 8279 8285 8284 8282 8278 
8294 8293 8290 8284 8287 8284 8286 8276 8284 8285 8281 8277 8280 8283 8273 8271 8273 8280 8269 8272 8266 8276 8281 8288 8287 8294 8285 8282 8278 8269 8265 8261 8265 8247 8227 8222 8216 8222 8216 8222 8216 8218 8213 8223 8222 8235 8245 8243 8250 8256 8270 8268 8264 8266 8266 8265 8265 8270 8269 8272 8269 8270 8273 8275 8271 8273 8269 8272 8273 8271 8271 8276 8277 8282 8277 8283 8282 8281 8274 8282 
8298 8282 8283 8289 8288 8284 8286 8281 8281 8279 8281 8275 8284 8282 8280 8283 8280 8278 8274 8268 8258 8275 8281 8285 8288 8299 8302 8297 8298 8294 8299 8302 8309 8309 8298 8294 8283 8276 8273 8266 8265 8259 8259 8267 8265 8265 8262 8266 8260 8266 8272 8267 8262 8262 8266 8270 8267 8268 8273 8272 8270 8273 8265 8271 8272 8273 8275 8273 8274 8274 8276 8276 8285 8284 8282 8283 8284 8280 8278 8283 
8299 8290 8283 8287 8288 8287 8290 8281 8280 8275 8275 8281 8281 8278 8278 8281 8281 8277 8279 8268 8263 8261 8268 8269 8270 8282 8278 8280 8284 8292 8293 8300 8305 8306 8303 8306 8303 8297 8285 8282 8278 8272 8269 8273 8275 8271 8267 8266 8264 8263 8271 8263 8267 8266 8259 8266 8268 8267 8270 8269 8272 8272 8266 8268 8271 8274 8273 8271 8274 8275 8278 8281 8284 8288 8284 8285 8282 8278 8276 8290 
8295 8294 8287 8289 8282 8285 8290 8288 8292 8288 8286 8277 8285 8270 8279 8285 8284 8279 8277 8271 8274 8254 8257 8264 8266 8270 8263 8263 8265 8278 8291 8296 8298 8297 8294 8296 8289 8290 8279 8275 8279 8276 8274 8271 8274 8271 8268 8265 8263 8271 8275 8264 8268 8266 8266 8264 8265 8269 8270 8267 8265 8272 8268 8275 8271 8271 8273 8272 8276 8276 8278 8284 8286 8286 8292 8292 8278 8273 8274 8285 
8296 8280 8296 8292 8285 8287 8291 8285 8290 8278 8284 8282 8284 8273 8279 8279 8280 8274 8280 8273 8270 8258 8265 8257 8264 8259 8259 8262 8261 8265 8275 8279 8288 8285 8291 8292 8291 8288 8279 8279 8279 8281 8284 8275 8274 8269 8270 8267 8271 8273 8267 8263 8267 8265 8263 8267 8269 8269 8266 8263 8265 8274 8272 8275 8268 8271 8271 8272 8277 8275 8280 8286 8288 8291 8293 8294 8276 8271 8282 8293 
8297 8277 8292 8289 8283 8293 8297 8281 8287 8276 8287 8287 8285 8285 8277 8277 8279 8279 8284 8275 8265 8267 8273 8273 8268 8265 8264 8264 8257 8265 8272 8271 8277 8278 8285 8286 8284 8283 8279 8281 8283 8281 8279 8272 8271 8271 8269 8277 8293 8275 8264 8269 8266 8263 8262 8261 8267 8269 8269 8267 8269 8274 8276 8274 8264 8268 8270 8274 8276 8283 8284 8291 8291 8296 8291 8290 8284 8286 8289 8299 
8295 8278 8288 8285 8292 8286 8297 8279 8285 8282 8282 8281 8280 8287 8282 8284 8281 8277 8284 8269 8271 8265 8269 8277 8270 8264 8262 8263 8262 8272 8272 8272 8275 8280 8282 8280 8279 8287 8284 8289 8288 8282 8282 8273 8273 8273 8270 8270 8275 8264 8261 8268 8269 8263 8258 8266 8267 8268 8265 8264 8272 8273 8269 8268 8263 8268 8274 8276 8282 8288 8288 8290 8291 8293 8291 8289 8290 8291 8296 8303 
8296 8285 8282 8290 8292 8290 8283 8292 8274 8273 8288 8283 8287 8288 8287 8275 8278 8277 8282 8267 8275 8266 8275 8275 8266 8266 8267 8271 8272 8278 8272 8280 8275 8275 8282 8282 8280 8287 8287 8285 8283 8279 8272 8263 8266 8266 8266 8267 8266 8262 8266 8265 8269 8263 8261 8263 8268 8266 8266 8272 8272 8277 8272 8264 8265 8274 8275 8278 8284 8283 8289 8288 8288 8288 8291 8291 8288 8298 8297 8304 
8294 8283 8290 8294 8290 8281 8279 8294 8289 8279 8275 8279 8276 8282 8286 8267 8281 8283 8277 8274 8272 8266 8270 8269 8266 8264 8264 8269 8270 8270 8268 8273 8272 8274 8282 8280 8281 8280 8277 8286 8276 8273 8266 8267 8269 8264 8263 8265 8259 8260 8264 8266 8262 8269 8268 8264 8269 8269 8274 8272 8275 8276 8272 8264 8271 8280 8275 8279 8288 8289 8287 8291 8288 8291 8291 8290 8289 8295 8303 8306 
8287 8283 8289 8290 8289 8290 8287 8290 8275 8283 8275 8280 8277 8284 8283 8283 8281 8282 8276 8274 8274 8264 8266 8271 8270 8262 8258 8254 8261 8266 8269 8267 8270 8271 8278 8276 8277 8282 8278 8273 8273 8267 8263 8265 8260 8262 8262 8257 8262 8266 8268 8268 8267 8259 8268 8264 8265 8269 8266 8271 8277 8279 8274 8273 8275 8281 8277 8281 8283 8286 8285 8291 8292 8291 8289 8286 8288 8296 8307 8311 
8290 8290 8287 8288 8281 8279 8285 8281 8270 8285 8272 8284 8280 8289 8282 8279 8280 8275 8278 8276 8275 8269 8265 8266 8269 8256 8253 8248 8256 8260 8262 8259 8263 8263 8270 8271 8270 8269 8273 8269 8267 8261 8265 8257 8259 8254 8251 8261 8262 8267 8267 8269 8265 8262 8269 8266 8274 8264 8267 8271 8275 8275 8272 8271 8275 8275 8278 8275 8285 8288 8291 8290 8287 8287 8291 8291 8288 8298 8308 8313 
8300 8302 8298 8293 8290 8289 8291 8282 8271 8284 8283 8279 8287 8280 8281 8279 8278 8278 8270 8267 8280 8274 8266 8266 8263 8237 8251 8255 8259 8260 8257 8260 8267 8261 8274 8269 8267 8267 8262 8263 8266 8267 8265 8260 8257 8255 8246 8257 8264 8265 8267 8265 8266 8266 8262 8268 8268 8273 8275 8275 8272 8275 8274 8277 8281 8281 8279 8283 8286 8287 8289 8294 8290 8289 8293 8292 8292 8300 8307 8310 
8304 8288 8297 8286 8284 8297 8298 8272 8280 8285 8287 8271 8280 8279 8280 8267 8262 8278 8270 8271 8278 8264 8263 8263 8255 8236 8236 8252 8255 8262 8259 8257 8262 8260 8260 8264 8260 8258 8254 8264 8259 8260 8257 8255 8254 8245 8250 8247 8242 8257 8261 8264 8259 8261 8263 8264 8267 8272 8268 8268 8270 8272 8276 8275 8274 8280 8279 8285 8281 8286 8286 8289 8288 8286 8286 8288 8294 8299 8309 8311 
8319 8306 8311 8290 8310 8303 8296 8278 8289 8286 8291 8279 8285 8285 8286 8276 8266 8274 8269 8270 8263 8261 8259 8257 8263 8247 8250 8251 8254 8253 8249 8259 8258 8254 8251 8252 8254 8247 8251 8255 8260 8251 8245 8253 8251 8244 8248 8239 8225 8225 8242 8260 8253 8258 8260 8263 8262 8266 8265 8268 8263 8273 8275 8273 8279 8278 8281 8282 8286 8280 8283 8282 8286 8282 8287 8289 8298 8297 8312 8316 
8318 8297 8307 8325 8308 8281 8277 8296 8305 8305 8312 8289 8282 8287 8281 8269 8267 8272 8271 8262 8263 8250 8246 8248 8263 8248 8248 8249 8246 8244 8249 8239 8241 8249 8246 8248 8246 8247 8245 8252 8251 8247 8239 8237 8238 8236 8239 8228 8224 8224 8216 8231 8251 8252 8255 8256 8262 8262 8268 8267 8273 8271 8269 8268 8270 8278 8279 8282 8287 8285 8284 8284 8285 8284 8285 8290 8296 8302 8312 8324 
8339 8327 8342 8332 8303 8283 8286 8299 8321 8336 8314 8291 8284 8284 8289 8300 8288 8277 8269 8264 8266 8262 8243 8244 8245 8248 8245 8246 8236 8242 8236 8234 8236 8240 8238 8241 8235 8236 8243 8245 8245 8240 8237 8236 8238 8238 8241 8231 8227 8227 8228 8238 8253 8259 8259 8261 8264 8267 8270 8275 8278 8274 8271 8279 8277 8284 8286 8285 8292 8291 8290 8291 8291 8294 8299 8300 8301 8309 8322 8326 


