P2
80 60
8225
8201 8176 8190 8192 8195 8189 8189 8188 8185 8185 8189 8192 8189 8183 8186 8188 8188 8182 8189 8191 8196 8200 8199 8189 8196 8196 8193 8192 8194 8197 8198 8200 8200 8202 8201 8199 8200 8199 8205 8208 8205 8203 8200 8199 8200 8199 8200 8198 8200 8198 8197 8195 8195 8188 8183 8183 8184 8183 8187 8193 8196 8193 8195 8193 8197 8201 8202 8204 8206 8210 8207 8208 8209 8209 8212 8212 8208 8214 8211 8205 
8195 8190 8198 8193 8196 8192 8185 8186 8182 8190 8185 8189 8186 8183 8179 8189 8185 8186 8186 8195 8201 8199 8198 8188 8196 8188 8186 8188 8196 8192 8195 8194 8194 8196 8193 8195 8194 8201 8205 8203 8201 8203 8196 8198 8200 8197 8198 8196 8196 8200 8194 8194 8195 8191 8186 8191 8188 8185 8189 8192 8197 8195 8202 8194 8193 8196 8204 8203 8208 8214 8209 8206 8209 8209 8211 8210 8211 8213 8210 8207 
8178 8177 8186 8179 8189 8184 8182 8188 8180 8186 8188 8186 8179 8184 8184 8184 8188 8188 8185 8196 8194 8199 8192 8188 8192 8194 8189 8192 8193 8188 8189 8193 8193 8200 8193 8192 8195 8203 8206 8203 8203 8199 8197 8199 8199 8195 8198 8197 8194 8194 8196 8192 8191 8194 8190 8190 8185 8189 8190 8189 8199 8199 8193 8194 8197 8195 8201 8203 8213 8214 8211 8207 8208 8209 8205 8209 8212 8210 8214 8207 
8198 8175 8196 8181 8190 8186 8187 8187 8186 8185 8182 8175 8182 8182 8177 8186 8184 8189 8186 8192 8192 8187 8182 8191 8193 8191 8192 8193 8194 8197 8187 8190 8200 8197 8199 8194 8198 8202 8200 8202 8202 8199 8197 8196 8197 8194 8198 8197 8197 8196 8193 8187 8194 8191 8191 8191 8186 8188 8188 8191 8194 8197 8196 8198 8193 8193 8199 8200 8208 8214 8207 8209 8211 8211 8212 8204 8213 8214 8214 8207 
8194 8171 8189 8182 8186 8186 8188 8182 8179 8185 8181 8178 8177 8182 8177 8183 8183 8178 8187 8186 8190 8194 8185 8184 8191 8190 8189 8189 8190 8193 8191 8193 8195 8194 8195 8199 8199 8197 8200 8203 8201 8201 8196 8194 8195 8193 8193 8195 8197 8195 8192 8189 8193 8190 8191 8191 8187 8194 8191 8193 8201 8199 8194 8195 8194 8194 8198 8200 8206 8210 8208 8211 8209 8212 8205 8206 8211 8211 8211 8207 
8203 8184 8187 8181 8184 8183 8194 8186 8183 8186 8171 8182 8185 8179 8175 8179 8183 8177 8184 8193 8194 8189 8194 8185 8194 8192 8190 8187 8186 8193 8196 8196 8195 8194 8194 8197 8199 8201 8201 8205 8201 8200 8200 8194 8197 8195 8198 8197 8195 8198 8195 8195 8198 8191 8193 8193 8193 8195 8195 8201 8198 8198 8201 8197 8197 8198 8199 8199 8205 8209 8207 8209 8211 8207 8205 8207 8209 8211 8216 8217 
8204 8186 8187 8195 8189 8183 8195 8194 8183 8172 8168 8189 8184 8174 8176 8183 8176 8180 8187 8197 8190 8192 8195 8188 8195 8192 8183 8186 8187 8197 8193 8196 8193 8195 8193 8198 8193 8198 8202 8205 8207 8201 8200 8196 8199 8196 8198 8198 8197 8199 8195 8192 8198 8196 8195 8193 8195 8192 8195 8199 8199 8196 8201 8198 8195 8201 8204 8207 8202 8203 8210 8213 8210 8206 8209 8209 8208 8212 8214 8222 
8203 8190 8183 8197 8187 8187 8192 8200 8193 8165 8187 8192 8186 8181 8188 8184 8183 8184 8186 8190 8198 8195 8196 8195 8193 8191 8179 8186 8191 8198 8197 8196 8200 8200 8200 8198 8199 8201 8203 8205 8203 8200 8200 8200 8198 8196 8197 8196 8198 8194 8192 8190 8199 8193 8192 8193 8192 8194 8195 8197 8196 8196 8199 8197 8199 8203 8206 8207 8202 8201 8202 8206 8208 8207 8208 8209 8207 8215 8218 8221 
8208 8181 8183 8188 8192 8187 8196 8191 8186 8175 8183 8182 8180 8181 8178 8181 8179 8182 8189 8194 8198 8190 8191 8189 8185 8189 8184 8189 8190 8193 8193 8194 8196 8195 8199 8198 8201 8198 8204 8204 8201 8200 8198 8198 8197 8199 8198 8196 8195 8191 8191 8188 8193 8193 8194 8191 8193 8194 8197 8197 8197 8198 8203 8201 8197 8201 8201 8208 8203 8208 8205 8207 8204 8207 8207 8211 8213 8214 8217 8218 
8212 8179 8186 8191 8190 8193 8180 8192 8188 8186 8184 8183 8182 8182 8180 8177 8184 8182 8193 8194 8190 8193 8192 8190 8186 8187 8188 8191 8190 8192 8193 8194 8193 8195 8199 8201 8201 8201 8201 8199 8201 8200 8199 8196 8194 8200 8199 8201 8195 8195 8190 8193 8197 8190 8193 8190 8194 8194 8198 8202 8200 8201 8203 8199 8200 8201 8200 8205 8204 8209 8208 8208 8210 8207 8207 8209 8210 8216 8215 8211 
8208 8175 8188 8188 8189 8191 8178 8187 8190 8180 8184 8182 8181 8183 8177 8180 8187 8180 8181 8189 8191 8190 8191 8190 8185 8182 8190 8191 8192 8195 8192 8192 8190 8199 8194 8193 8193 8196 8200 8199 8200 8198 8196 8201 8200 8202 8200 8196 8194 8194 8194 8193 8194 8192 8191 8188 8195 8197 8201 8201 8200 8200 8205 8201 8199 8201 8206 8207 8207 8206 8207 8209 8204 8206 8207 8204 8209 8213 8213 8205 
8203 8196 8193 8189 8182 8188 8183 8191 8193 8183 8186 8179 8185 8181 8181 8185 8181 8181 8181 8195 8196 8199 8189 8191 8191 8191 8187 8189 8194 8194 8198 8193 8188 8199 8191 8190 8197 8198 8200 8200 8198 8201 8200 8203 8202 8201 8198 8197 8195 8197 8199 8198 8199 8197 8193 8191 8195 8196 8202 8204 8202 8203 8206 8201 8198 8201 8208 8204 8204 8201 8205 8207 8206 8205 8202 8206 8213 8214 8215 8207 
8206 8187 8185 8180 8178 8190 8193 8180 8181 8186 8182 8179 8180 8181 8183 8186 8181 8182 8187 8191 8191 8195 8187 8187 8194 8186 8184 8192 8192 8191 8204 8190 8194 8196 8186 8188 8200 8201 8198 8197 8198 8196 8203 8203 8199 8197 8196 8196 8196 8197 8199 8200 8201 8199 8200 8192 8199 8195 8200 8203 8201 8199 8205 8202 8202 8204 8209 8205 8204 8198 8202 8204 8207 8202 8205 8206 8213 8215 8214 8207 
8206 8202 8195 8193 8190 8188 8188 8187 8177 8190 8192 8187 8182 8181 8185 8185 8186 8184 8186 8192 8192 8195 8191 8188 8189 8189 8191 8189 8189 8192 8197 8187 8195 8198 8189 8198 8193 8199 8195 8197 8199 8197 8200 8200 8198 8198 8198 8197 8198 8196 8199 8200 8200 8197 8198 8191 8198 8197 8198 8202 8201 8201 8204 8203 8208 8207 8211 8208 8208 8205 8206 8207 8207 8203 8204 8209 8209 8215 8215 8206 
8218 8188 8194 8196 8190 8192 8187 8187 8185 8182 8186 8188 8187 8188 8190 8186 8186 8184 8190 8195 8189 8193 8189 8188 8188 8188 8192 8187 8187 8196 8189 8189 8192 8191 8195 8195 8195 8194 8195 8193 8191 8184 8188 8188 8189 8194 8193 8194 8196 8197 8199 8201 8202 8201 8197 8198 8202 8201 8201 8203 8202 8199 8204 8207 8208 8215 8208 8208 8209 8208 8209 8209 8206 8205 8204 8205 8207 8213 8212 8213 
8220 8176 8188 8192 8193 8186 8185 8189 8184 8189 8186 8185 8182 8180 8191 8191 8189 8185 8195 8196 8189 8195 8188 8190 8187 8195 8192 8184 8187 8198 8194 8191 8192 8195 8193 8194 8196 8195 8192 8173 8161 8158 8161 8176 8191 8194 8194 8194 8194 8197 8200 8199 8202 8198 8196 8196 8200 8196 8201 8205 8201 8201 8204 8206 8211 8210 8209 8208 8205 8208 8209 8206 8208 8206 8207 8205 8207 8211 8211 8206 
8217 8178 8183 8196 8186 8184 8184 8179 8183 8185 8185 8189 8180 8182 8179 8186 8184 8187 8192 8191 8185 8193 8190 8188 8183 8192 8189 8191 8189 8193 8196 8193 8191 8195 8195 8193 8189 8192 8182 8149 8146 8166 8190 8191 8194 8196 8193 8191 8195 8196 8201 8201 8202 8194 8193 8195 8197 8197 8197 8205 8202 8199 8204 8205 8211 8208 8205 8206 8208 8203 8205 8205 8208 8204 8209 8205 8203 8214 8210 8208 
8213 8187 8192 8187 8185 8191 8187 8194 8182 8190 8187 8186 8189 8186 8186 8187 8186 8184 8193 8193 8194 8195 8192 8185 8185 8197 8198 8192 8189 8192 8197 8194 8195 8197 8192 8177 8151 8153 8155 8144 8149 8166 8180 8192 8195 8193 8195 8190 8198 8201 8199 8201 8202 8194 8195 8192 8193 8193 8197 8204 8202 8201 8208 8207 8208 8208 8206 8210 8208 8208 8209 8212 8210 8205 8209 8207 8204 8209 8213 8211 
8212 8186 8194 8191 8188 8185 8192 8191 8191 8182 8186 8189 8192 8186 8185 8187 8180 8189 8188 8189 8190 8197 8194 8188 8192 8199 8198 8186 8189 8189 8193 8197 8198 8197 8174 8163 8144 8136 8141 8140 8141 8139 8158 8166 8174 8187 8192 8196 8194 8198 8204 8200 8199 8194 8195 8189 8198 8194 8200 8202 8203 8202 8209 8210 8207 8205 8208 8210 8207 8209 8209 8207 8208 8206 8207 8207 8204 8206 8210 8203 
8209 8186 8191 8191 8182 8194 8190 8193 8191 8188 8192 8189 8188 8184 8189 8192 8184 8187 8187 8191 8188 8199 8195 8188 8193 8187 8193 8191 8192 8193 8193 8195 8192 8188 8191 8187 8149 8138 8148 8140 8156 8140 8155 8161 8161 8165 8182 8184 8192 8198 8199 8202 8195 8196 8197 8193 8202 8199 8200 8200 8198 8202 8211 8208 8206 8205 8209 8210 8209 8210 8211 8210 8208 8205 8209 8210 8205 8211 8214 8207 
8211 8191 8186 8180 8180 8185 8182 8192 8190 8186 8188 8189 8187 8183 8182 8194 8189 8183 8182 8191 8186 8192 8197 8191 8188 8183 8185 8199 8189 8197 8195 8196 8191 8181 8172 8166 8142 8137 8142 8146 8143 8139 8140 8138 8140 8148 8147 8154 8167 8186 8192 8201 8200 8196 8196 8198 8199 8202 8204 8202 8201 8204 8212 8209 8207 8206 8208 8207 8208 8211 8209 8208 8204 8203 8205 8208 8205 8209 8212 8207 
8211 8195 8189 8197 8196 8192 8179 8191 8181 8189 8184 8180 8193 8190 8176 8188 8184 8183 8179 8185 8196 8198 8193 8195 8185 8191 8193 8196 8193 8192 8195 8190 8193 8191 8190 8183 8160 8142 8151 8147 8141 8142 8139 8137 8136 8161 8177 8184 8185 8182 8190 8201 8198 8198 8198 8197 8198 8202 8200 8200 8202 8205 8210 8208 8208 8209 8209 8211 8211 8210 8209 8205 8205 8205 8206 8208 8206 8211 8211 8209 
8210 8191 8193 8196 8193 8186 8173 8174 8175 8187 8191 8186 8185 8188 8183 8184 8182 8176 8176 8184 8188 8197 8190 8193 8190 8191 8191 8189 8192 8195 8194 8190 8194 8196 8195 8180 8172 8170 8166 8143 8142 8140 8140 8140 8138 8156 8180 8190 8192 8195 8194 8198 8198 8202 8197 8199 8202 8201 8197 8197 8203 8202 8209 8207 8206 8209 8211 8208 8206 8208 8207 8206 8205 8204 8206 8204 8206 8209 8214 8213 
8211 8194 8194 8193 8193 8194 8186 8174 8188 8190 8191 8183 8189 8183 8187 8185 8184 8186 8178 8189 8185 8189 8195 8188 8190 8187 8193 8192 8196 8191 8189 8198 8198 8199 8192 8186 8197 8197 8186 8157 8152 8143 8143 8140 8147 8171 8188 8190 8195 8199 8196 8199 8194 8201 8199 8199 8208 8204 8201 8200 8202 8204 8208 8211 8211 8214 8209 8212 8207 8207 8203 8207 8207 8208 8207 8206 8204 8214 8212 8214 
8215 8187 8194 8199 8192 8190 8181 8194 8193 8183 8188 8188 8197 8185 8188 8187 8188 8184 8156 8150 8155 8163 8193 8188 8185 8187 8188 8192 8195 8185 8199 8197 8194 8199 8194 8192 8193 8195 8189 8163 8147 8149 8143 8145 8169 8189 8191 8195 8196 8198 8199 8201 8194 8193 8196 8200 8204 8205 8206 8204 8201 8204 8203 8208 8211 8208 8211 8211 8205 8208 8207 8207 8207 8204 8208 8205 8204 8208 8213 8216 
8214 8184 8191 8200 8196 8187 8192 8178 8176 8190 8187 8194 8190 8186 8187 8187 8187 8182 8145 8135 8145 8153 8190 8186 8185 8180 8190 8190 8193 8197 8195 8196 8194 8195 8196 8193 8196 8197 8197 8165 8156 8156 8150 8172 8192 8192 8194 8193 8199 8199 8199 8201 8201 8197 8198 8199 8203 8200 8205 8209 8204 8203 8203 8208 8210 8210 8213 8212 8208 8205 8205 8207 8207 8208 8205 8207 8206 8210 8215 8216 
8208 8188 8184 8194 8190 8189 8186 8178 8183 8187 8185 8194 8185 8189 8186 8185 8188 8180 8150 8131 8141 8147 8182 8190 8185 8182 8192 8190 8192 8196 8193 8195 8194 8190 8193 8192 8189 8194 8194 8165 8167 8173 8181 8195 8197 8194 8195 8189 8200 8203 8197 8200 8198 8199 8200 8197 8202 8202 8205 8208 8202 8204 8204 8206 8209 8206 8209 8206 8203 8206 8204 8204 8205 8203 8207 8208 8208 8211 8214 8216 
8205 8193 8196 8196 8196 8182 8191 8188 8181 8189 8181 8189 8189 8184 8188 8184 8185 8184 8152 8139 8139 8147 8182 8191 8184 8191 8193 8193 8193 8193 8193 8191 8189 8190 8176 8181 8181 8190 8188 8168 8180 8196 8198 8199 8198 8198 8200 8194 8203 8204 8198 8204 8198 8198 8204 8200 8206 8201 8208 8208 8208 8205 8206 8206 8208 8212 8207 8204 8205 8202 8206 8201 8201 8205 8206 8211 8213 8213 8216 8217 
8203 8189 8188 8197 8191 8193 8189 8188 8189 8195 8193 8192 8191 8185 8189 8181 8184 8185 8159 8139 8139 8148 8175 8192 8188 8191 8195 8193 8191 8192 8187 8166 8151 8151 8145 8150 8162 8185 8188 8165 8179 8195 8199 8203 8201 8197 8200 8200 8204 8200 8201 8197 8202 8204 8205 8207 8207 8205 8206 8205 8206 8201 8205 8209 8206 8206 8203 8201 8202 8203 8202 8201 8200 8202 8206 8208 8208 8219 8217 8214 
8205 8185 8190 8198 8190 8196 8196 8185 8190 8185 8195 8192 8191 8188 8185 8190 8185 8190 8163 8140 8139 8148 8171 8189 8189 8189 8193 8193 8185 8182 8154 8144 8138 8141 8139 8137 8152 8186 8188 8162 8182 8195 8201 8202 8199 8200 8198 8202 8201 8203 8204 8207 8211 8208 8205 8206 8205 8201 8203 8200 8200 8199 8208 8206 8206 8205 8206 8202 8199 8198 8201 8201 8199 8203 8207 8205 8207 8218 8217 8212 
8208 8191 8194 8197 8194 8199 8187 8189 8195 8185 8194 8185 8184 8189 8186 8187 8186 8183 8170 8138 8137 8143 8170 8190 8188 8183 8193 8191 8176 8150 8141 8136 8136 8150 8166 8161 8180 8172 8169 8160 8185 8200 8200 8200 8200 8199 8201 8200 8203 8208 8207 8204 8205 8198 8202 8202 8203 8197 8203 8201 8201 8203 8204 8206 8206 8203 8204 8200 8199 8201 8200 8202 8202 8204 8206 8202 8214 8214 8215 8217 
8208 8189 8189 8198 8189 8194 8190 8192 8196 8187 8182 8189 8189 8185 8186 8187 8185 8177 8171 8141 8137 8145 8163 8187 8191 8188 8191 8190 8157 8137 8136 8134 8137 8141 8181 8192 8194 8193 8173 8156 8190 8198 8197 8204 8208 8205 8204 8202 8208 8208 8205 8206 8210 8202 8201 8202 8199 8203 8202 8202 8202 8203 8200 8206 8203 8204 8203 8200 8200 8201 8200 8202 8204 8204 8203 8204 8211 8214 8214 8220 
8212 8193 8190 8195 8188 8195 8185 8187 8192 8192 8188 8188 8183 8183 8186 8186 8184 8179 8171 8141 8138 8150 8156 8186 8194 8190 8195 8177 8153 8139 8141 8134 8135 8143 8170 8181 8184 8191 8186 8160 8188 8197 8194 8198 8201 8205 8207 8205 8203 8207 8202 8204 8205 8205 8198 8199 8202 8202 8203 8198 8200 8201 8198 8201 8201 8202 8197 8201 8201 8202 8201 8202 8197 8197 8202 8205 8204 8210 8213 8217 
8214 8188 8201 8198 8195 8195 8187 8190 8193 8188 8192 8187 8181 8187 8182 8184 8183 8182 8181 8146 8143 8149 8154 8181 8192 8193 8194 8190 8160 8140 8153 8150 8135 8142 8148 8154 8153 8162 8174 8164 8190 8167 8159 8169 8166 8170 8183 8191 8193 8201 8201 8205 8206 8207 8199 8204 8200 8202 8198 8197 8197 8199 8199 8201 8203 8203 8199 8203 8202 8206 8202 8202 8198 8205 8204 8204 8205 8213 8211 8217 
8216 8194 8199 8194 8198 8192 8192 8195 8189 8187 8190 8189 8187 8182 8185 8183 8186 8186 8182 8151 8145 8149 8148 8178 8190 8193 8190 8191 8171 8142 8169 8171 8147 8139 8146 8147 8143 8146 8160 8160 8165 8149 8148 8148 8145 8149 8149 8152 8157 8166 8182 8202 8198 8198 8196 8195 8201 8200 8196 8196 8200 8201 8198 8200 8199 8198 8202 8198 8202 8201 8201 8198 8196 8201 8199 8201 8206 8207 8209 8212 
8218 8196 8194 8200 8194 8190 8197 8198 8193 8182 8183 8192 8191 8188 8188 8190 8188 8184 8185 8156 8153 8148 8153 8173 8187 8188 8187 8185 8171 8144 8142 8139 8146 8144 8150 8172 8164 8157 8147 8153 8166 8156 8164 8153 8146 8143 8147 8152 8155 8153 8153 8180 8200 8201 8201 8196 8202 8202 8199 8197 8198 8203 8200 8202 8200 8199 8200 8197 8201 8200 8200 8200 8198 8198 8203 8207 8205 8206 8206 8207 
8218 8202 8199 8196 8195 8193 8198 8194 8193 8183 8188 8193 8193 8186 8188 8188 8184 8179 8186 8166 8149 8149 8150 8171 8187 8184 8187 8187 8178 8154 8148 8143 8146 8143 8139 8143 8139 8147 8159 8151 8164 8182 8186 8154 8154 8168 8187 8173 8170 8150 8144 8154 8190 8201 8200 8199 8201 8201 8202 8198 8200 8198 8200 8199 8198 8201 8202 8195 8195 8193 8199 8198 8199 8202 8205 8206 8205 8207 8209 8207 
8217 8198 8202 8200 8199 8194 8200 8192 8195 8192 8193 8195 8194 8186 8188 8192 8183 8183 8182 8164 8143 8147 8149 8168 8184 8190 8191 8187 8169 8169 8180 8171 8156 8145 8141 8136 8144 8148 8147 8148 8172 8194 8201 8185 8195 8203 8197 8196 8194 8179 8151 8151 8172 8198 8197 8202 8199 8203 8203 8198 8193 8195 8195 8199 8200 8199 8197 8198 8201 8197 8199 8201 8200 8205 8205 8208 8207 8210 8207 8206 
8215 8201 8198 8201 8197 8198 8197 8196 8191 8194 8193 8192 8191 8185 8190 8185 8186 8182 8181 8174 8148 8140 8146 8167 8189 8188 8191 8188 8192 8190 8186 8181 8146 8139 8140 8152 8145 8145 8146 8147 8171 8192 8201 8200 8197 8196 8201 8196 8200 8196 8173 8151 8163 8191 8198 8200 8201 8201 8201 8192 8193 8196 8195 8198 8198 8200 8201 8198 8198 8193 8193 8194 8199 8199 8204 8204 8204 8205 8208 8208 
8214 8204 8214 8204 8202 8198 8202 8193 8193 8194 8195 8188 8188 8186 8184 8183 8182 8180 8188 8177 8145 8142 8146 8160 8185 8183 8188 8192 8193 8190 8189 8175 8172 8160 8151 8178 8166 8146 8150 8148 8176 8191 8200 8197 8198 8197 8196 8199 8197 8200 8193 8156 8179 8192 8196 8201 8201 8199 8203 8192 8193 8195 8195 8196 8199 8197 8201 8199 8199 8199 8196 8192 8194 8199 8203 8206 8204 8202 8206 8209 
8213 8203 8210 8197 8198 8202 8195 8196 8192 8191 8186 8191 8185 8184 8193 8184 8180 8190 8192 8186 8152 8144 8145 8157 8181 8188 8190 8193 8190 8191 8188 8181 8187 8172 8151 8173 8155 8144 8153 8145 8151 8175 8197 8198 8197 8194 8198 8195 8195 8198 8199 8180 8194 8198 8201 8202 8201 8194 8196 8198 8193 8200 8195 8199 8201 8198 8199 8193 8196 8194 8196 8190 8192 8200 8203 8201 8201 8203 8204 8203 
8214 8196 8206 8192 8199 8201 8188 8193 8194 8191 8191 8191 8189 8187 8194 8190 8184 8189 8193 8191 8157 8147 8145 8151 8187 8188 8187 8189 8188 8185 8176 8169 8173 8172 8146 8149 8142 8143 8140 8144 8145 8153 8181 8196 8196 8195 8197 8198 8196 8200 8202 8201 8197 8199 8202 8202 8197 8196 8199 8198 8195 8198 8197 8202 8197 8200 8197 8193 8193 8196 8193 8194 8195 8201 8200 8206 8204 8209 8202 8213 
8217 8196 8194 8193 8190 8196 8193 8197 8197 8196 8195 8193 8190 8193 8188 8188 8184 8191 8185 8181 8160 8144 8148 8150 8177 8182 8176 8172 8159 8152 8144 8147 8143 8139 8140 8141 8141 8146 8141 8142 8145 8148 8163 8186 8188 8190 8186 8189 8192 8198 8197 8198 8199 8199 8198 8198 8199 8193 8198 8195 8194 8200 8197 8201 8200 8198 8196 8192 8194 8194 8193 8198 8194 8199 8199 8201 8201 8207 8206 8213 
8219 8197 8203 8195 8197 8195 8194 8195 8200 8200 8192 8198 8197 8194 8186 8187 8183 8183 8184 8189 8165 8144 8148 8149 8168 8148 8138 8148 8143 8138 8141 8147 8142 8139 8139 8141 8135 8143 8146 8146 8145 8144 8146 8156 8163 8167 8164 8165 8165 8167 8172 8173 8188 8194 8206 8201 8201 8195 8197 8201 8199 8198 8201 8202 8199 8198 8193 8192 8192 8194 8194 8193 8195 8198 8200 8200 8204 8207 8201 8207 
8220 8208 8199 8195 8197 8195 8199 8189 8198 8197 8193 8191 8190 8191 8190 8188 8189 8191 8185 8186 8165 8144 8149 8145 8142 8138 8135 8138 8138 8141 8147 8147 8148 8139 8133 8135 8139 8142 8146 8147 8142 8144 8144 8150 8157 8158 8165 8160 8157 8158 8162 8163 8171 8193 8225 8222 8201 8200 8199 8196 8199 8199 8197 8198 8197 8196 8195 8194 8196 8197 8194 8193 8194 8194 8199 8197 8200 8202 8201 8203 
8219 8199 8196 8197 8196 8197 8196 8192 8191 8193 8188 8188 8194 8192 8193 8195 8193 8188 8181 8167 8153 8149 8151 8150 8141 8138 8141 8140 8142 8147 8149 8148 8149 8147 8141 8142 8141 8139 8142 8141 8140 8140 8144 8148 8149 8155 8156 8151 8147 8150 8160 8158 8169 8206 8203 8201 8204 8196 8195 8195 8198 8196 8195 8197 8200 8201 8200 8196 8193 8197 8194 8195 8193 8195 8193 8196 8201 8197 8198 8200 
8221 8204 8194 8201 8202 8198 8198 8195 8192 8191 8190 8198 8193 8193 8190 8192 8193 8191 8176 8150 8154 8153 8155 8152 8143 8136 8134 8137 8140 8146 8146 8150 8149 8146 8141 8144 8138 8138 8139 8137 8140 8139 8141 8146 8150 8150 8148 8148 8148 8150 8155 8159 8172 8172 8179 8194 8201 8196 8196 8194 8194 8196 8193 8198 8194 8194 8194 8194 8194 8196 8192 8193 8194 8196 8195 8196 8197 8201 8199 8197 
8219 8207 8201 8202 8200 8196 8199 8197 8206 8204 8202 8193 8194 8185 8191 8197 8194 8190 8182 8160 8161 8153 8149 8154 8150 8142 8136 8136 8142 8146 8147 8149 8147 8152 8144 8145 8138 8137 8139 8142 8145 8152 8149 8149 8154 8150 8155 8157 8162 8165 8166 8166 8171 8169 8181 8194 8197 8197 8193 8190 8192 8196 8195 8201 8200 8197 8196 8192 8196 8194 8193 8196 8196 8196 8198 8200 8195 8198 8199 8196 
8220 8199 8204 8206 8199 8199 8205 8198 8203 8195 8196 8195 8196 8188 8197 8192 8195 8187 8186 8167 8159 8147 8155 8150 8154 8151 8146 8145 8148 8149 8154 8155 8157 8157 8156 8151 8153 8153 8152 8151 8159 8160 8160 8158 8156 8156 8163 8158 8160 8165 8165 8169 8174 8172 8182 8189 8195 8193 8193 8191 8191 8197 8197 8198 8193 8194 8194 8191 8198 8193 8197 8195 8194 8197 8197 8197 8198 8197 8199 8195 
8217 8199 8204 8204 8200 8204 8210 8197 8199 8192 8199 8199 8200 8200 8191 8192 8193 8194 8198 8173 8150 8154 8157 8154 8156 8153 8153 8153 8152 8154 8159 8156 8161 8155 8158 8158 8160 8158 8155 8161 8161 8164 8159 8164 8158 8162 8160 8164 8162 8161 8167 8171 8173 8176 8191 8191 8197 8197 8193 8193 8194 8198 8198 8201 8190 8194 8195 8195 8201 8203 8196 8201 8203 8201 8201 8201 8199 8201 8197 8200 
8219 8192 8197 8199 8203 8197 8209 8195 8199 8198 8200 8197 8196 8201 8195 8195 8195 8191 8198 8176 8159 8155 8151 8158 8153 8151 8151 8152 8154 8156 8159 8157 8159 8160 8159 8161 8161 8162 8163 8166 8162 8166 8166 8156 8161 8159 8167 8163 8167 8168 8163 8170 8185 8202 8188 8197 8199 8196 8197 8192 8195 8197 8197 8190 8193 8191 8195 8195 8200 8202 8200 8199 8203 8203 8199 8199 8203 8199 8197 8194 
8219 8199 8194 8199 8202 8202 8199 8205 8194 8192 8199 8197 8203 8201 8199 8193 8195 8197 8198 8189 8176 8157 8156 8154 8151 8156 8157 8154 8155 8159 8152 8160 8160 8160 8161 8160 8160 8165 8167 8165 8165 8159 8158 8159 8163 8164 8161 8164 8164 8164 8164 8186 8216 8209 8197 8201 8200 8195 8197 8199 8200 8202 8196 8192 8192 8196 8198 8191 8206 8201 8207 8203 8201 8204 8202 8204 8203 8202 8197 8196 
8216 8196 8199 8201 8197 8197 8200 8204 8204 8198 8189 8194 8193 8197 8201 8193 8192 8197 8196 8198 8188 8170 8156 8153 8152 8155 8153 8157 8155 8155 8156 8160 8161 8160 8162 8161 8161 8162 8160 8168 8161 8157 8155 8167 8162 8160 8159 8162 8160 8162 8160 8189 8206 8210 8201 8199 8203 8200 8205 8201 8199 8201 8198 8191 8194 8197 8193 8190 8203 8197 8203 8200 8201 8205 8202 8199 8193 8198 8203 8200 
8214 8196 8200 8199 8200 8204 8204 8205 8197 8200 8192 8199 8195 8201 8200 8196 8195 8198 8195 8195 8195 8178 8154 8153 8153 8148 8153 8154 8154 8154 8154 8153 8155 8161 8159 8161 8158 8164 8161 8157 8155 8160 8157 8165 8163 8161 8161 8160 8167 8162 8166 8178 8189 8189 8198 8198 8201 8198 8199 8198 8197 8201 8201 8193 8196 8197 8192 8202 8204 8195 8203 8202 8203 8207 8201 8197 8196 8194 8200 8198 
8215 8205 8200 8198 8198 8200 8203 8203 8197 8205 8199 8202 8197 8204 8200 8196 8196 8193 8198 8197 8199 8187 8155 8152 8151 8142 8144 8151 8151 8149 8149 8149 8153 8158 8160 8160 8158 8162 8157 8157 8156 8158 8163 8162 8162 8164 8151 8165 8164 8163 8165 8178 8179 8192 8198 8197 8202 8195 8200 8197 8200 8199 8195 8193 8201 8190 8193 8190 8199 8198 8203 8200 8199 8202 8195 8200 8192 8195 8199 8195 
8213 8203 8202 8202 8197 8200 8204 8202 8197 8203 8205 8199 8203 8202 8197 8195 8198 8197 8191 8195 8203 8192 8161 8150 8148 8127 8142 8145 8150 8150 8146 8149 8155 8152 8158 8158 8158 8160 8156 8156 8157 8164 8161 8167 8163 8157 8149 8159 8164 8164 8167 8169 8181 8193 8198 8199 8202 8199 8198 8196 8196 8196 8194 8197 8202 8196 8194 8197 8200 8196 8206 8201 8201 8201 8204 8198 8193 8193 8195 8191 
8211 8198 8204 8199 8189 8195 8200 8196 8201 8206 8204 8195 8199 8203 8198 8190 8191 8197 8192 8201 8202 8195 8164 8150 8147 8135 8128 8146 8151 8152 8154 8148 8156 8150 8151 8158 8158 8157 8154 8157 8153 8160 8160 8165 8164 8153 8157 8156 8159 8160 8160 8165 8169 8189 8198 8201 8197 8197 8194 8192 8191 8191 8193 8192 8193 8196 8195 8198 8193 8194 8202 8202 8201 8200 8198 8197 8199 8195 8190 8195 
8213 8204 8200 8185 8195 8197 8201 8195 8198 8198 8199 8192 8193 8199 8200 8193 8187 8194 8197 8198 8196 8192 8166 8151 8151 8142 8146 8145 8149 8147 8144 8151 8151 8150 8144 8150 8156 8150 8152 8154 8158 8154 8147 8163 8162 8155 8157 8156 8155 8159 8160 8163 8171 8186 8195 8195 8196 8198 8194 8193 8185 8194 8193 8195 8196 8193 8198 8199 8198 8199 8203 8198 8197 8195 8198 8196 8199 8184 8191 8184 
8210 8188 8181 8186 8188 8186 8186 8197 8200 8194 8200 8193 8187 8199 8192 8181 8181 8186 8186 8188 8197 8187 8164 8145 8152 8145 8149 8146 8146 8146 8148 8138 8143 8153 8144 8150 8148 8153 8148 8158 8155 8151 8148 8151 8154 8148 8157 8154 8158 8158 8160 8156 8172 8189 8191 8190 8196 8197 8197 8191 8195 8188 8187 8188 8195 8194 8196 8202 8199 8203 8200 8201 8199 8191 8196 8196 8193 8181 8185 8184 
8201 8176 8174 8175 8176 8176 8176 8185 8188 8186 8186 8186 8184 8189 8186 8184 8181 8182 8184 8188 8187 8188 8176 8148 8153 8146 8150 8153 8147 8152 8148 8140 8141 8142 8150 8144 8146 8150 8150 8156 8156 8152 8153 8156 8149 8148 8156 8156 8161 8160 8155 8158 8165 8163 8185 8192 8199 8201 8200 8196 8196 8193 8188 8195 8194 8193 8200 8203 8202 8206 8202 8203 8205 8204 8198 8194 8192 8191 8189 8186 


