P2
80 60
8201
8095 8099 8098 8102 8105 8105 8109 8106 8109 8107 8110 8113 8127 8131 8136 8139 8146 8144 8146 8148 8150 8154 8160 8159 8158 8156 8160 8160 8160 8162 8162 8164 8170 8170 8170 8177 8178 8180 8185 8188 8189 8184 8183 8185 8185 8188 8194 8191 8190 8188 8187 8186 8184 8183 8181 8178 8176 8174 8174 8177 8175 8171 8168 8169 8169 8171 8172 8173 8177 8175 8180 8178 8179 8176 8180 8179 8176 8182 8180 8181 
8096 8099 8097 8099 8104 8121 8135 8136 8134 8134 8136 8139 8145 8146 8149 8147 8148 8146 8146 8148 8153 8156 8156 8155 8156 8156 8161 8161 8160 8160 8162 8164 8167 8166 8171 8174 8178 8180 8183 8188 8188 8185 8183 8187 8186 8190 8195 8192 8192 8188 8187 8187 8186 8184 8184 8182 8178 8173 8175 8177 8174 8174 8173 8171 8169 8167 8170 8172 8175 8176 8177 8178 8182 8178 8179 8180 8177 8182 8185 8182 
8092 8099 8096 8097 8109 8136 8141 8143 8146 8146 8144 8149 8147 8152 8153 8152 8151 8151 8153 8154 8159 8159 8159 8157 8158 8160 8162 8162 8160 8163 8164 8162 8167 8168 8173 8173 8177 8180 8186 8190 8188 8190 8184 8185 8190 8190 8198 8193 8190 8187 8184 8186 8189 8188 8188 8185 8182 8177 8178 8180 8177 8176 8175 8172 8169 8174 8173 8176 8177 8177 8180 8182 8181 8178 8177 8183 8178 8181 8183 8180 
8093 8099 8100 8101 8123 8143 8147 8147 8148 8148 8150 8152 8153 8154 8153 8153 8154 8156 8158 8153 8155 8156 8159 8157 8161 8161 8165 8167 8163 8164 8166 8167 8169 8172 8173 8177 8181 8184 8189 8188 8192 8191 8190 8186 8189 8190 8196 8194 8192 8188 8187 8185 8190 8188 8187 8188 8184 8183 8184 8180 8177 8177 8174 8173 8170 8174 8175 8174 8175 8180 8178 8178 8182 8180 8179 8179 8173 8181 8181 8179 
8100 8101 8102 8104 8134 8147 8149 8150 8150 8148 8153 8153 8149 8153 8149 8151 8153 8152 8155 8159 8158 8160 8159 8160 8161 8162 8168 8167 8168 8169 8169 8172 8174 8173 8175 8179 8185 8185 8189 8194 8192 8191 8189 8189 8187 8190 8190 8190 8190 8185 8186 8186 8188 8189 8187 8189 8184 8185 8184 8183 8179 8176 8176 8174 8172 8176 8178 8177 8177 8180 8181 8181 8179 8178 8176 8178 8173 8177 8176 8179 
8100 8106 8105 8116 8145 8152 8154 8148 8150 8153 8150 8155 8152 8153 8152 8155 8153 8159 8158 8160 8164 8163 8164 8162 8161 8163 8166 8169 8171 8170 8169 8171 8173 8175 8178 8180 8186 8185 8186 8194 8192 8189 8188 8188 8182 8172 8158 8152 8164 8164 8159 8155 8158 8172 8179 8184 8185 8188 8185 8188 8182 8183 8178 8177 8177 8178 8179 8179 8179 8180 8177 8178 8178 8179 8176 8176 8175 8174 8174 8176 
8115 8113 8110 8135 8154 8153 8151 8154 8153 8150 8152 8156 8158 8156 8154 8157 8158 8160 8162 8164 8165 8164 8167 8165 8164 8166 8170 8169 8166 8168 8170 8173 8172 8175 8176 8181 8183 8184 8190 8194 8192 8190 8189 8177 8137 8121 8119 8118 8122 8120 8122 8120 8121 8122 8132 8152 8178 8187 8187 8185 8182 8182 8180 8180 8177 8180 8179 8182 8179 8179 8179 8180 8180 8179 8177 8177 8173 8176 8172 8171 
8120 8117 8127 8151 8154 8157 8157 8155 8152 8150 8152 8158 8162 8158 8158 8158 8161 8168 8167 8166 8168 8170 8167 8167 8168 8167 8169 8168 8168 8170 8171 8170 8178 8175 8180 8183 8184 8186 8192 8195 8194 8190 8191 8185 8159 8125 8119 8118 8120 8125 8137 8123 8116 8116 8115 8131 8180 8188 8188 8187 8184 8182 8183 8181 8182 8184 8180 8183 8180 8181 8179 8181 8179 8179 8175 8178 8171 8178 8177 8172 
8120 8126 8137 8151 8159 8155 8160 8155 8158 8157 8158 8160 8163 8158 8159 8161 8163 8168 8170 8171 8170 8169 8170 8166 8164 8164 8167 8171 8171 8174 8174 8172 8176 8178 8179 8187 8190 8190 8196 8197 8193 8194 8187 8178 8159 8142 8125 8134 8140 8148 8145 8130 8122 8123 8132 8164 8185 8189 8189 8188 8184 8184 8185 8184 8182 8187 8185 8186 8186 8183 8182 8182 8181 8178 8177 8177 8176 8176 8173 8173 
8133 8134 8149 8158 8161 8160 8158 8159 8161 8158 8162 8162 8162 8161 8162 8165 8167 8168 8169 8173 8171 8167 8164 8165 8161 8163 8170 8172 8175 8176 8174 8174 8176 8177 8184 8188 8193 8190 8191 8194 8193 8186 8149 8129 8121 8118 8120 8126 8147 8146 8161 8155 8139 8145 8152 8161 8179 8184 8191 8190 8187 8187 8184 8183 8182 8185 8187 8189 8184 8189 8183 8182 8183 8181 8177 8183 8178 8181 8176 8176 
8140 8147 8157 8162 8164 8162 8159 8159 8162 8164 8163 8161 8164 8161 8162 8164 8164 8168 8168 8168 8172 8167 8167 8165 8164 8163 8170 8169 8174 8175 8174 8174 8176 8178 8184 8189 8188 8192 8193 8197 8196 8160 8124 8118 8115 8120 8121 8119 8132 8141 8161 8132 8122 8122 8118 8123 8136 8166 8183 8188 8188 8187 8186 8186 8185 8187 8187 8190 8185 8185 8183 8183 8181 8184 8185 8185 8179 8181 8178 8177 
8148 8157 8164 8164 8166 8163 8159 8160 8161 8158 8162 8161 8163 8161 8161 8162 8161 8166 8165 8167 8168 8166 8166 8165 8167 8164 8169 8174 8175 8176 8173 8175 8178 8179 8181 8187 8190 8191 8192 8197 8195 8193 8177 8157 8137 8135 8123 8131 8148 8145 8141 8123 8119 8120 8118 8114 8113 8125 8156 8187 8186 8186 8183 8185 8184 8186 8188 8188 8186 8188 8187 8185 8185 8187 8186 8187 8182 8188 8184 8185 
8154 8168 8169 8165 8168 8164 8159 8160 8159 8163 8160 8162 8161 8160 8161 8161 8163 8166 8167 8167 8166 8163 8165 8161 8166 8166 8172 8174 8174 8174 8175 8172 8177 8179 8184 8188 8189 8187 8190 8194 8196 8196 8192 8189 8186 8162 8129 8156 8177 8147 8159 8135 8121 8125 8129 8122 8133 8162 8183 8189 8186 8188 8184 8184 8185 8187 8186 8185 8186 8185 8186 8185 8185 8187 8188 8187 8188 8192 8188 8184 
8157 8173 8173 8174 8170 8167 8162 8161 8162 8162 8161 8160 8163 8160 8162 8165 8165 8168 8168 8167 8165 8165 8164 8163 8166 8165 8170 8173 8173 8176 8174 8176 8177 8179 8182 8188 8191 8189 8192 8197 8194 8196 8193 8192 8164 8131 8124 8126 8149 8139 8134 8132 8128 8152 8177 8163 8182 8188 8188 8190 8186 8185 8185 8186 8184 8186 8187 8189 8186 8187 8186 8185 8186 8188 8186 8187 8187 8194 8189 8186 
8167 8172 8173 8173 8169 8164 8162 8163 8163 8161 8161 8163 8160 8162 8162 8163 8166 8166 8170 8170 8168 8164 8166 8163 8162 8169 8171 8172 8171 8174 8175 8174 8178 8180 8180 8189 8190 8186 8193 8192 8195 8193 8193 8192 8171 8148 8137 8134 8133 8124 8133 8133 8135 8143 8159 8180 8185 8189 8189 8188 8186 8187 8183 8184 8182 8188 8186 8186 8187 8189 8187 8186 8187 8189 8189 8190 8188 8194 8189 8189 
8170 8173 8170 8173 8170 8165 8163 8163 8161 8163 8160 8164 8164 8165 8163 8167 8167 8169 8170 8167 8163 8164 8163 8161 8164 8169 8174 8173 8173 8176 8174 8177 8179 8183 8187 8187 8190 8190 8192 8193 8187 8188 8188 8189 8189 8186 8186 8183 8145 8119 8122 8128 8127 8122 8124 8135 8173 8187 8188 8188 8185 8184 8180 8186 8181 8186 8186 8187 8187 8187 8188 8186 8187 8185 8189 8190 8189 8191 8191 8187 
8167 8171 8169 8171 8171 8164 8159 8159 8164 8161 8165 8163 8164 8164 8163 8162 8164 8170 8169 8167 8166 8163 8163 8163 8164 8168 8172 8172 8173 8176 8178 8174 8178 8179 8183 8186 8192 8189 8190 8183 8144 8136 8145 8158 8172 8184 8186 8187 8168 8118 8124 8144 8122 8117 8117 8130 8172 8183 8186 8191 8183 8185 8183 8187 8183 8188 8187 8184 8185 8187 8189 8185 8189 8188 8187 8188 8188 8188 8187 8186 
8172 8175 8174 8171 8170 8168 8163 8163 8163 8163 8167 8163 8164 8164 8163 8166 8166 8167 8167 8169 8169 8168 8167 8163 8166 8170 8173 8174 8173 8177 8178 8177 8181 8186 8184 8187 8192 8188 8190 8186 8165 8124 8116 8123 8130 8139 8149 8179 8163 8126 8156 8183 8147 8119 8116 8113 8140 8180 8185 8186 8185 8184 8183 8184 8184 8187 8184 8183 8187 8186 8185 8185 8187 8188 8186 8189 8187 8188 8189 8185 
8173 8173 8173 8173 8172 8167 8167 8168 8167 8161 8165 8166 8166 8165 8165 8166 8167 8170 8168 8163 8168 8168 8169 8166 8166 8171 8172 8171 8173 8173 8175 8176 8184 8186 8185 8189 8191 8187 8185 8160 8133 8117 8115 8121 8123 8125 8133 8173 8142 8157 8191 8191 8178 8151 8133 8116 8118 8168 8185 8184 8184 8185 8185 8186 8187 8186 8185 8185 8186 8187 8186 8187 8185 8187 8186 8190 8188 8187 8189 8187 
8178 8176 8177 8174 8167 8169 8167 8169 8168 8164 8165 8165 8168 8168 8166 8167 8168 8167 8167 8166 8166 8168 8171 8167 8166 8169 8173 8174 8173 8175 8176 8181 8183 8185 8186 8190 8188 8184 8169 8152 8133 8141 8119 8120 8117 8126 8152 8167 8133 8173 8191 8192 8193 8191 8182 8152 8122 8160 8183 8185 8187 8188 8187 8187 8187 8187 8188 8188 8186 8187 8188 8184 8187 8184 8189 8183 8188 8186 8188 8186 
8175 8178 8174 8167 8166 8165 8164 8168 8167 8165 8167 8168 8168 8167 8164 8165 8168 8165 8164 8167 8164 8166 8168 8167 8165 8166 8171 8174 8175 8178 8177 8181 8183 8184 8187 8188 8184 8163 8129 8135 8149 8173 8155 8124 8119 8125 8152 8147 8129 8178 8194 8190 8187 8189 8190 8190 8174 8174 8185 8186 8184 8187 8188 8188 8189 8188 8186 8188 8189 8190 8188 8187 8185 8187 8191 8188 8189 8188 8186 8181 
8176 8179 8172 8172 8172 8167 8159 8165 8164 8168 8167 8168 8170 8167 8166 8168 8167 8165 8164 8167 8169 8170 8166 8153 8139 8139 8147 8168 8177 8178 8177 8181 8183 8184 8185 8186 8153 8114 8115 8132 8136 8139 8133 8134 8152 8169 8148 8122 8123 8179 8178 8144 8146 8149 8181 8186 8186 8188 8184 8184 8189 8184 8186 8189 8187 8187 8187 8189 8188 8187 8187 8186 8187 8187 8190 8189 8190 8186 8184 8185 
8174 8177 8171 8172 8172 8169 8161 8161 8163 8171 8171 8171 8171 8171 8168 8168 8168 8166 8167 8165 8168 8169 8166 8138 8105 8103 8111 8142 8173 8176 8178 8178 8182 8184 8182 8160 8113 8113 8121 8114 8109 8117 8112 8128 8170 8181 8182 8138 8120 8154 8122 8106 8108 8115 8128 8138 8162 8181 8182 8183 8182 8186 8185 8188 8187 8190 8187 8188 8190 8187 8187 8187 8187 8188 8189 8191 8191 8192 8190 8191 
8174 8176 8176 8174 8177 8174 8170 8168 8171 8172 8174 8172 8175 8170 8173 8172 8170 8167 8167 8166 8170 8170 8171 8156 8105 8097 8104 8121 8171 8174 8178 8178 8181 8185 8179 8127 8112 8126 8162 8120 8111 8112 8124 8128 8119 8134 8148 8145 8111 8106 8108 8108 8103 8113 8118 8116 8119 8154 8177 8178 8177 8182 8185 8187 8184 8187 8188 8186 8187 8187 8188 8188 8189 8189 8189 8193 8187 8194 8195 8193 
8179 8177 8179 8180 8177 8173 8169 8174 8172 8169 8175 8177 8174 8173 8173 8172 8174 8174 8169 8168 8171 8168 8172 8165 8127 8096 8104 8113 8160 8175 8178 8181 8180 8183 8169 8118 8122 8142 8133 8111 8113 8117 8131 8116 8107 8108 8112 8111 8104 8103 8106 8105 8107 8115 8119 8114 8114 8127 8154 8148 8150 8168 8182 8184 8186 8189 8192 8190 8187 8187 8187 8188 8189 8188 8193 8193 8189 8192 8195 8191 
8178 8178 8181 8179 8178 8171 8175 8166 8168 8171 8173 8176 8174 8172 8172 8172 8174 8176 8172 8168 8171 8168 8170 8163 8145 8102 8105 8110 8141 8173 8176 8181 8181 8178 8157 8133 8139 8137 8119 8109 8111 8117 8123 8113 8112 8109 8111 8109 8105 8105 8108 8105 8109 8109 8110 8114 8133 8158 8135 8118 8113 8138 8174 8184 8184 8187 8188 8188 8184 8188 8186 8188 8189 8190 8190 8189 8190 8191 8194 8192 
8182 8182 8179 8181 8176 8175 8171 8167 8171 8171 8173 8174 8174 8172 8174 8173 8174 8171 8172 8170 8170 8170 8167 8165 8157 8113 8108 8112 8126 8171 8174 8175 8166 8149 8141 8141 8141 8114 8110 8111 8108 8108 8108 8110 8106 8105 8109 8107 8109 8113 8112 8111 8110 8112 8110 8111 8118 8131 8126 8114 8110 8123 8163 8183 8185 8188 8188 8189 8188 8184 8187 8187 8187 8186 8192 8194 8192 8192 8195 8197 
8180 8181 8180 8183 8181 8174 8172 8172 8171 8172 8176 8177 8177 8174 8172 8173 8173 8172 8171 8169 8169 8168 8168 8166 8163 8137 8109 8111 8116 8160 8170 8157 8143 8139 8141 8146 8145 8129 8113 8111 8106 8109 8107 8112 8110 8109 8111 8114 8116 8114 8112 8111 8110 8113 8116 8110 8108 8113 8114 8117 8129 8125 8150 8180 8183 8188 8186 8185 8186 8183 8185 8184 8190 8189 8192 8195 8200 8196 8196 8197 
8184 8183 8179 8181 8178 8180 8175 8175 8174 8176 8178 8177 8180 8175 8174 8174 8175 8175 8172 8168 8168 8167 8169 8169 8166 8158 8114 8111 8113 8139 8153 8138 8140 8140 8141 8136 8116 8108 8106 8110 8106 8111 8112 8111 8109 8107 8109 8113 8114 8109 8113 8111 8114 8115 8112 8115 8110 8108 8107 8113 8148 8161 8164 8179 8185 8187 8186 8185 8182 8185 8183 8184 8188 8188 8190 8193 8192 8197 8197 8198 
8180 8181 8182 8182 8180 8181 8177 8174 8181 8172 8179 8183 8176 8175 8175 8175 8173 8174 8171 8171 8169 8168 8168 8171 8167 8164 8129 8116 8112 8119 8130 8137 8140 8136 8132 8119 8106 8101 8109 8110 8108 8105 8106 8109 8110 8107 8112 8113 8112 8115 8117 8115 8113 8115 8115 8115 8111 8106 8105 8108 8135 8174 8181 8182 8187 8186 8185 8180 8179 8184 8186 8184 8187 8189 8192 8198 8195 8201 8198 8197 
8180 8181 8181 8183 8181 8181 8176 8177 8179 8174 8177 8175 8172 8173 8174 8173 8177 8172 8173 8171 8168 8170 8170 8170 8172 8169 8155 8116 8112 8118 8126 8136 8143 8131 8115 8102 8102 8102 8102 8108 8104 8106 8103 8109 8110 8113 8111 8111 8114 8112 8115 8114 8116 8112 8110 8115 8119 8110 8106 8109 8127 8167 8179 8184 8185 8186 8181 8181 8181 8182 8181 8183 8186 8187 8187 8192 8193 8199 8201 8197 
8180 8182 8178 8181 8178 8182 8176 8176 8178 8176 8174 8177 8171 8173 8175 8173 8176 8172 8173 8170 8171 8172 8173 8174 8173 8171 8169 8126 8116 8115 8122 8134 8134 8120 8112 8108 8100 8101 8108 8111 8104 8105 8107 8111 8110 8110 8109 8115 8117 8112 8116 8118 8115 8115 8111 8118 8132 8119 8110 8112 8131 8172 8180 8183 8184 8184 8185 8182 8185 8182 8184 8183 8185 8188 8186 8196 8196 8199 8198 8200 
8181 8183 8181 8180 8178 8180 8174 8176 8179 8177 8177 8177 8172 8172 8173 8175 8174 8173 8172 8169 8169 8172 8172 8173 8171 8172 8174 8141 8117 8115 8115 8132 8122 8104 8104 8107 8105 8105 8110 8113 8112 8108 8111 8115 8116 8108 8115 8116 8116 8116 8115 8117 8119 8118 8113 8117 8123 8131 8118 8116 8137 8178 8181 8178 8181 8183 8184 8179 8185 8181 8184 8183 8182 8187 8191 8191 8193 8195 8195 8197 
8180 8180 8179 8179 8182 8181 8174 8178 8178 8176 8177 8177 8177 8172 8172 8176 8175 8177 8177 8172 8172 8174 8174 8171 8173 8171 8173 8145 8116 8114 8112 8117 8107 8105 8107 8107 8113 8117 8112 8113 8111 8114 8112 8114 8112 8110 8113 8111 8110 8110 8110 8116 8116 8115 8112 8116 8119 8132 8127 8124 8154 8176 8179 8176 8180 8182 8179 8181 8179 8180 8183 8184 8183 8189 8187 8186 8192 8194 8192 8192 
8180 8185 8180 8181 8180 8179 8179 8176 8178 8173 8175 8177 8177 8174 8176 8177 8176 8180 8179 8177 8177 8176 8175 8170 8174 8173 8166 8137 8116 8115 8111 8108 8103 8105 8108 8114 8117 8113 8112 8111 8109 8109 8107 8110 8111 8110 8110 8109 8110 8104 8108 8110 8115 8114 8112 8116 8118 8123 8125 8139 8168 8176 8179 8179 8178 8180 8180 8178 8179 8178 8183 8183 8186 8184 8188 8190 8190 8196 8194 8192 
8182 8184 8181 8180 8183 8178 8177 8176 8176 8175 8172 8178 8179 8176 8177 8179 8179 8179 8179 8179 8180 8179 8179 8168 8173 8169 8156 8129 8123 8114 8110 8104 8102 8100 8107 8113 8117 8116 8106 8107 8108 8108 8108 8110 8113 8108 8112 8110 8109 8108 8107 8111 8116 8114 8116 8118 8117 8114 8117 8128 8165 8172 8176 8177 8180 8181 8181 8179 8178 8180 8182 8182 8185 8186 8189 8189 8190 8196 8194 8191 
8182 8186 8184 8181 8182 8180 8179 8177 8174 8173 8176 8176 8175 8175 8175 8177 8176 8177 8175 8177 8176 8175 8175 8169 8173 8168 8152 8133 8132 8117 8108 8104 8104 8102 8107 8111 8110 8111 8109 8108 8106 8109 8107 8111 8111 8111 8115 8113 8112 8106 8112 8113 8118 8123 8122 8124 8122 8119 8117 8117 8159 8175 8178 8182 8179 8181 8179 8180 8181 8180 8182 8182 8185 8182 8191 8188 8189 8198 8190 8192 
8184 8187 8183 8183 8182 8180 8181 8179 8178 8178 8177 8178 8175 8172 8176 8177 8174 8174 8175 8174 8177 8178 8176 8172 8172 8170 8148 8134 8137 8126 8116 8111 8106 8108 8105 8110 8115 8113 8115 8111 8111 8109 8105 8107 8113 8113 8111 8109 8110 8106 8108 8112 8119 8123 8122 8126 8123 8120 8116 8119 8155 8176 8178 8176 8180 8180 8180 8182 8181 8182 8183 8181 8184 8187 8192 8190 8192 8195 8192 8191 
8178 8186 8184 8183 8182 8180 8178 8177 8179 8177 8176 8177 8172 8174 8174 8172 8173 8175 8175 8173 8175 8173 8172 8175 8172 8167 8145 8132 8136 8123 8123 8115 8114 8105 8103 8109 8107 8110 8110 8119 8115 8108 8110 8112 8116 8110 8107 8110 8106 8105 8106 8112 8123 8127 8125 8123 8129 8122 8113 8121 8154 8175 8178 8176 8178 8179 8181 8179 8182 8180 8182 8181 8182 8188 8188 8189 8190 8195 8197 8194 
8182 8188 8187 8187 8186 8183 8180 8177 8176 8177 8177 8174 8173 8173 8171 8171 8171 8174 8176 8176 8177 8175 8174 8172 8172 8168 8146 8133 8136 8117 8112 8112 8110 8102 8102 8104 8110 8109 8108 8115 8116 8116 8114 8114 8111 8106 8104 8104 8104 8106 8115 8119 8122 8124 8135 8135 8131 8126 8123 8155 8166 8174 8178 8175 8181 8179 8181 8182 8181 8182 8183 8182 8184 8188 8190 8190 8190 8195 8192 8195 
8181 8185 8189 8179 8183 8179 8177 8177 8176 8176 8173 8176 8170 8172 8175 8171 8172 8176 8176 8178 8177 8174 8173 8170 8171 8170 8154 8137 8137 8116 8112 8113 8108 8104 8109 8105 8105 8106 8103 8103 8112 8119 8116 8119 8119 8113 8103 8105 8104 8103 8123 8126 8123 8126 8133 8137 8130 8127 8137 8171 8171 8176 8181 8178 8182 8182 8181 8182 8181 8181 8183 8185 8184 8188 8192 8189 8190 8192 8195 8190 
8179 8184 8183 8175 8178 8181 8175 8175 8176 8175 8172 8174 8174 8171 8175 8176 8172 8176 8179 8178 8174 8175 8171 8173 8172 8168 8156 8136 8139 8117 8111 8108 8113 8112 8107 8110 8111 8107 8100 8104 8108 8117 8117 8121 8120 8105 8104 8108 8106 8121 8131 8132 8132 8129 8130 8136 8126 8128 8162 8185 8173 8180 8181 8181 8183 8183 8181 8181 8180 8185 8187 8182 8184 8188 8193 8194 8188 8192 8193 8193 
8180 8186 8179 8174 8175 8178 8172 8173 8178 8178 8173 8175 8171 8177 8173 8172 8172 8176 8177 8171 8175 8172 8172 8170 8174 8169 8163 8137 8138 8120 8111 8115 8117 8113 8109 8110 8112 8106 8106 8110 8115 8123 8123 8120 8117 8113 8104 8109 8118 8131 8136 8135 8140 8140 8132 8136 8128 8134 8172 8183 8179 8180 8182 8182 8182 8181 8182 8181 8181 8186 8182 8185 8187 8189 8192 8189 8193 8188 8193 8192 
8180 8183 8179 8178 8178 8175 8177 8177 8177 8177 8175 8178 8175 8177 8172 8172 8175 8175 8172 8174 8176 8171 8171 8171 8170 8169 8171 8149 8141 8131 8120 8116 8116 8116 8113 8118 8116 8113 8113 8117 8121 8127 8123 8122 8127 8118 8111 8124 8128 8130 8134 8141 8146 8146 8139 8136 8129 8138 8146 8176 8184 8186 8185 8184 8186 8184 8187 8180 8181 8182 8185 8184 8186 8188 8189 8190 8189 8193 8187 8190 
8185 8187 8181 8179 8181 8177 8176 8175 8174 8176 8175 8174 8177 8175 8176 8173 8175 8178 8174 8179 8176 8171 8171 8171 8169 8172 8172 8158 8139 8144 8134 8122 8119 8121 8123 8121 8125 8119 8122 8127 8126 8127 8128 8129 8133 8128 8126 8132 8128 8125 8133 8139 8144 8147 8138 8134 8136 8145 8146 8180 8184 8184 8185 8184 8187 8186 8184 8185 8182 8183 8184 8182 8185 8188 8188 8186 8189 8188 8189 8185 
8182 8184 8175 8180 8179 8177 8175 8172 8173 8174 8173 8169 8179 8176 8179 8177 8177 8174 8174 8178 8175 8174 8174 8172 8172 8170 8174 8170 8145 8145 8144 8129 8129 8128 8128 8130 8129 8126 8128 8127 8126 8125 8127 8132 8135 8137 8133 8134 8131 8133 8139 8140 8140 8138 8135 8134 8141 8142 8160 8183 8182 8185 8183 8182 8186 8184 8181 8182 8181 8184 8182 8183 8183 8187 8187 8185 8186 8188 8186 8181 
8185 8185 8175 8177 8178 8180 8178 8176 8172 8170 8174 8176 8176 8176 8175 8177 8178 8176 8175 8176 8177 8177 8173 8171 8171 8170 8173 8172 8161 8144 8151 8141 8132 8135 8134 8132 8128 8126 8126 8126 8128 8125 8122 8128 8133 8138 8139 8138 8135 8137 8138 8135 8138 8133 8131 8132 8127 8142 8172 8182 8182 8183 8181 8183 8183 8184 8182 8182 8181 8182 8183 8184 8188 8190 8188 8188 8185 8187 8182 8183 
8181 8183 8178 8178 8182 8180 8175 8177 8180 8176 8178 8175 8177 8175 8179 8181 8180 8178 8174 8176 8178 8174 8172 8176 8174 8171 8172 8175 8169 8160 8148 8156 8144 8139 8140 8130 8128 8127 8123 8127 8135 8133 8125 8127 8131 8135 8140 8139 8140 8138 8139 8138 8137 8136 8130 8131 8137 8161 8178 8181 8180 8183 8182 8180 8181 8181 8181 8181 8181 8183 8183 8186 8187 8187 8192 8189 8187 8186 8180 8181 
8179 8181 8181 8179 8180 8179 8179 8176 8181 8172 8176 8181 8182 8172 8181 8176 8177 8177 8174 8173 8176 8172 8177 8173 8175 8173 8176 8176 8173 8171 8160 8152 8154 8141 8137 8132 8129 8127 8130 8135 8138 8136 8131 8134 8136 8137 8139 8142 8137 8136 8135 8135 8133 8133 8130 8135 8153 8169 8180 8184 8181 8180 8180 8183 8181 8179 8180 8179 8179 8180 8183 8186 8189 8189 8187 8188 8185 8183 8180 8179 
8177 8179 8179 8179 8179 8177 8178 8177 8174 8174 8175 8179 8180 8181 8176 8173 8175 8179 8175 8173 8173 8174 8175 8172 8174 8174 8174 8175 8173 8173 8170 8162 8149 8151 8139 8129 8132 8126 8132 8136 8141 8140 8133 8133 8136 8135 8138 8138 8130 8123 8131 8131 8135 8131 8140 8151 8163 8177 8180 8183 8184 8182 8184 8181 8182 8177 8181 8180 8184 8186 8186 8186 8186 8187 8187 8190 8186 8187 8182 8179 
8179 8180 8177 8176 8181 8177 8180 8176 8172 8173 8174 8178 8181 8181 8176 8177 8179 8180 8176 8172 8171 8175 8176 8176 8173 8174 8175 8175 8175 8175 8173 8168 8155 8149 8141 8138 8131 8128 8132 8141 8139 8141 8136 8134 8131 8134 8137 8132 8123 8120 8127 8128 8141 8155 8159 8161 8170 8182 8183 8183 8184 8183 8178 8178 8177 8180 8182 8179 8184 8183 8185 8187 8189 8185 8186 8182 8187 8183 8181 8176 
8179 8181 8175 8178 8180 8176 8175 8178 8171 8173 8174 8176 8181 8182 8178 8175 8174 8178 8176 8173 8174 8174 8176 8173 8174 8172 8175 8180 8177 8178 8174 8175 8161 8150 8143 8131 8130 8136 8136 8137 8140 8136 8133 8129 8132 8131 8131 8133 8124 8118 8126 8140 8169 8171 8163 8165 8176 8187 8189 8187 8183 8183 8182 8180 8177 8181 8180 8181 8183 8183 8184 8183 8185 8184 8184 8183 8185 8186 8184 8179 
8174 8183 8179 8179 8180 8175 8174 8176 8178 8173 8174 8173 8176 8175 8177 8169 8177 8179 8176 8175 8173 8176 8177 8176 8178 8174 8181 8183 8178 8175 8172 8177 8169 8157 8153 8143 8138 8130 8133 8136 8133 8128 8123 8127 8131 8134 8131 8126 8126 8135 8161 8173 8173 8163 8167 8178 8184 8186 8186 8187 8183 8184 8181 8180 8178 8181 8179 8181 8182 8183 8185 8184 8184 8187 8186 8181 8179 8182 8183 8178 
8178 8183 8180 8182 8183 8179 8178 8177 8169 8175 8173 8172 8174 8179 8177 8179 8175 8176 8177 8176 8174 8177 8179 8176 8177 8176 8179 8180 8175 8175 8173 8175 8177 8173 8161 8157 8151 8144 8135 8131 8131 8125 8122 8127 8128 8128 8138 8147 8156 8167 8176 8167 8167 8171 8179 8186 8185 8186 8182 8187 8184 8183 8179 8177 8176 8181 8180 8179 8182 8184 8183 8183 8182 8185 8181 8178 8179 8179 8174 8178 
8178 8186 8180 8183 8179 8179 8176 8179 8173 8177 8175 8174 8176 8180 8177 8178 8173 8172 8178 8174 8173 8177 8176 8178 8179 8174 8179 8179 8178 8178 8172 8173 8175 8177 8174 8169 8161 8155 8151 8151 8149 8148 8143 8144 8150 8149 8153 8168 8173 8170 8170 8169 8174 8183 8182 8187 8188 8186 8184 8186 8180 8179 8177 8181 8177 8181 8180 8178 8180 8182 8184 8180 8185 8184 8180 8179 8174 8175 8173 8170 
8181 8188 8184 8183 8178 8178 8175 8178 8171 8178 8181 8175 8183 8176 8174 8175 8175 8174 8168 8173 8175 8175 8177 8175 8176 8165 8176 8177 8178 8179 8176 8177 8184 8176 8178 8179 8173 8162 8161 8158 8160 8160 8158 8158 8165 8160 8152 8166 8167 8168 8177 8176 8181 8184 8185 8185 8185 8185 8181 8182 8176 8177 8175 8181 8175 8179 8179 8180 8183 8179 8178 8183 8180 8179 8180 8176 8173 8174 8168 8167 
8182 8187 8186 8179 8172 8175 8175 8172 8177 8179 8180 8175 8177 8177 8173 8174 8171 8173 8170 8170 8175 8173 8174 8174 8176 8164 8172 8177 8179 8180 8175 8178 8182 8176 8176 8178 8181 8175 8173 8171 8170 8165 8165 8160 8164 8164 8165 8172 8172 8177 8181 8182 8183 8185 8186 8184 8184 8182 8183 8179 8175 8173 8176 8177 8176 8177 8182 8179 8178 8179 8175 8179 8176 8178 8177 8175 8171 8167 8165 8161 
8184 8194 8184 8170 8182 8177 8176 8173 8178 8178 8178 8173 8172 8178 8176 8172 8167 8174 8172 8169 8174 8171 8174 8172 8177 8169 8179 8180 8177 8177 8177 8178 8180 8180 8177 8180 8179 8175 8179 8179 8180 8178 8171 8174 8176 8175 8178 8181 8184 8180 8182 8183 8182 8184 8187 8182 8181 8177 8179 8176 8171 8175 8174 8173 8174 8177 8181 8179 8182 8177 8179 8177 8176 8173 8172 8173 8168 8165 8167 8161 
8190 8186 8173 8174 8176 8171 8169 8180 8181 8177 8178 8172 8171 8178 8173 8165 8163 8170 8170 8168 8172 8165 8169 8169 8176 8177 8179 8177 8174 8179 8177 8172 8174 8177 8176 8179 8179 8175 8178 8183 8182 8184 8173 8179 8180 8178 8182 8188 8185 8186 8184 8185 8186 8185 8185 8184 8179 8179 8178 8179 8174 8173 8173 8170 8173 8175 8178 8177 8182 8180 8181 8176 8178 8174 8174 8174 8170 8168 8164 8161 
8188 8185 8174 8174 8168 8163 8166 8172 8175 8171 8172 8172 8169 8169 8172 8164 8166 8167 8166 8165 8166 8162 8170 8170 8174 8176 8179 8178 8177 8177 8171 8171 8171 8173 8179 8177 8175 8177 8180 8179 8182 8182 8177 8179 8179 8183 8187 8193 8189 8188 8190 8191 8185 8184 8180 8181 8178 8180 8174 8178 8174 8172 8172 8173 8171 8175 8179 8177 8175 8175 8176 8177 8173 8176 8177 8173 8171 8172 8159 8162 


