P2
80 60
8251
8238 8241 8243 8242 8239 8240 8238 8240 8237 8234 8233 8233 8233 8234 8234 8232 8234 8236 8233 8236 8238 8231 8233 8230 8235 8239 8236 8235 8230 8227 8230 8226 8228 8229 8231 8233 8237 8234 8235 8236 8237 8236 8235 8229 8233 8238 8235 8230 8227 8224 8222 8219 8220 8219 8213 8214 8211 8211 8210 8209 8211 8207 8208 8205 8204 8203 8201 8206 8210 8208 8212 8220 8214 8222 8217 8217 8216 8214 8212 8211 
8237 8244 8243 8240 8240 8241 8237 8238 8238 8234 8233 8232 8232 8236 8234 8235 8235 8233 8233 8234 8234 8232 8232 8233 8234 8240 8238 8237 8231 8226 8229 8228 8228 8230 8229 8231 8235 8232 8235 8236 8236 8237 8232 8231 8236 8240 8237 8230 8227 8224 8225 8218 8220 8219 8213 8217 8213 8210 8210 8212 8210 8210 8207 8205 8205 8202 8202 8207 8208 8205 8213 8213 8213 8219 8219 8221 8219 8218 8215 8211 
8238 8238 8240 8237 8240 8238 8238 8238 8239 8233 8234 8233 8230 8233 8231 8234 8234 8232 8232 8235 8236 8232 8229 8232 8231 8238 8233 8234 8230 8225 8225 8227 8228 8229 8229 8232 8232 8230 8233 8237 8235 8233 8228 8230 8232 8234 8236 8230 8227 8227 8222 8221 8219 8218 8212 8215 8211 8208 8211 8210 8209 8211 8206 8207 8205 8202 8203 8206 8205 8204 8211 8211 8211 8217 8216 8219 8216 8216 8217 8209 
8233 8234 8236 8237 8238 8237 8234 8235 8236 8233 8234 8231 8232 8233 8233 8232 8232 8233 8232 8233 8234 8230 8229 8231 8236 8236 8235 8234 8229 8222 8227 8227 8227 8229 8226 8230 8234 8230 8234 8235 8232 8235 8229 8230 8231 8234 8232 8231 8228 8225 8221 8222 8219 8217 8212 8214 8209 8210 8209 8208 8209 8208 8203 8204 8205 8204 8201 8206 8206 8206 8205 8208 8211 8211 8211 8212 8213 8211 8214 8214 
8232 8236 8239 8237 8234 8239 8234 8236 8235 8231 8233 8229 8230 8233 8233 8230 8232 8230 8231 8230 8233 8228 8227 8231 8232 8237 8235 8231 8231 8225 8226 8229 8230 8227 8227 8229 8230 8231 8232 8234 8235 8233 8228 8229 8230 8231 8233 8227 8225 8225 8219 8220 8216 8214 8210 8209 8210 8209 8207 8207 8207 8205 8203 8203 8202 8202 8204 8206 8205 8207 8205 8205 8206 8206 8205 8208 8209 8207 8206 8206 
8229 8236 8235 8236 8237 8236 8235 8235 8232 8230 8232 8227 8229 8231 8231 8228 8229 8231 8228 8228 8231 8226 8227 8226 8229 8233 8237 8232 8228 8219 8224 8222 8225 8225 8225 8229 8231 8227 8231 8229 8231 8230 8226 8227 8224 8227 8225 8221 8221 8217 8218 8216 8216 8211 8209 8210 8206 8204 8206 8204 8203 8203 8204 8201 8199 8200 8203 8204 8204 8202 8201 8203 8200 8200 8201 8201 8204 8202 8203 8199 
8233 8235 8233 8233 8235 8235 8232 8234 8230 8228 8229 8227 8225 8230 8227 8229 8227 8229 8228 8227 8228 8224 8226 8227 8228 8233 8234 8232 8224 8221 8221 8222 8224 8222 8223 8223 8226 8228 8230 8229 8231 8229 8223 8225 8223 8225 8225 8221 8220 8218 8214 8214 8211 8211 8210 8208 8205 8202 8203 8203 8201 8200 8200 8201 8200 8199 8200 8202 8202 8203 8200 8200 8200 8197 8200 8198 8203 8198 8200 8196 
8231 8235 8234 8231 8236 8233 8232 8234 8229 8227 8226 8228 8227 8228 8229 8226 8223 8226 8225 8228 8224 8224 8226 8224 8228 8230 8231 8232 8224 8214 8219 8219 8222 8223 8218 8221 8224 8225 8229 8228 8226 8226 8222 8220 8222 8223 8222 8216 8217 8213 8212 8213 8208 8206 8206 8202 8201 8198 8201 8200 8201 8198 8196 8198 8197 8197 8197 8197 8200 8199 8196 8197 8194 8197 8193 8192 8194 8196 8196 8193 
8229 8235 8232 8235 8234 8234 8231 8232 8229 8226 8229 8225 8222 8226 8226 8226 8226 8226 8222 8225 8228 8223 8222 8223 8227 8227 8230 8229 8224 8218 8217 8218 8220 8222 8218 8219 8225 8221 8224 8227 8221 8221 8219 8220 8221 8222 8223 8215 8215 8209 8210 8208 8207 8204 8203 8201 8198 8194 8198 8199 8199 8198 8195 8193 8195 8192 8195 8203 8197 8197 8192 8196 8190 8192 8192 8191 8195 8191 8191 8189 
8229 8231 8229 8232 8233 8235 8231 8232 8229 8226 8226 8223 8223 8223 8225 8227 8227 8224 8224 8222 8226 8223 8222 8224 8224 8226 8227 8224 8224 8218 8220 8217 8217 8218 8217 8218 8221 8221 8221 8223 8223 8220 8217 8219 8217 8219 8218 8217 8213 8212 8208 8207 8205 8205 8203 8200 8196 8195 8195 8196 8195 8197 8195 8192 8191 8193 8196 8198 8193 8191 8191 8189 8186 8189 8189 8188 8190 8186 8185 8185 
8233 8232 8231 8231 8233 8231 8229 8230 8228 8225 8225 8222 8221 8221 8220 8221 8221 8222 8222 8221 8227 8224 8218 8220 8221 8223 8221 8225 8220 8216 8216 8213 8216 8214 8214 8214 8217 8220 8220 8220 8217 8219 8215 8215 8216 8217 8215 8212 8210 8209 8206 8205 8204 8200 8199 8195 8192 8192 8193 8196 8193 8194 8191 8188 8187 8186 8190 8189 8187 8188 8188 8188 8183 8181 8183 8183 8186 8184 8185 8179 
8229 8230 8232 8231 8232 8232 8226 8227 8229 8225 8224 8219 8219 8220 8221 8220 8220 8222 8220 8220 8222 8224 8219 8222 8221 8222 8227 8222 8220 8214 8212 8211 8212 8211 8212 8213 8216 8218 8216 8216 8217 8215 8212 8213 8214 8216 8213 8211 8208 8205 8204 8202 8201 8199 8193 8195 8191 8191 8190 8193 8191 8187 8194 8189 8186 8187 8188 8187 8186 8183 8185 8182 8183 8184 8180 8181 8183 8181 8181 8177 
8228 8233 8233 8230 8231 8228 8226 8226 8225 8224 8224 8219 8219 8220 8222 8220 8220 8222 8219 8220 8223 8223 8217 8218 8221 8224 8220 8225 8220 8213 8212 8208 8212 8211 8209 8212 8213 8211 8213 8214 8213 8213 8209 8211 8214 8215 8213 8208 8207 8203 8203 8200 8201 8200 8195 8192 8192 8190 8190 8193 8190 8189 8190 8187 8186 8183 8184 8186 8183 8179 8183 8182 8181 8181 8180 8180 8180 8177 8178 8176 
8229 8232 8231 8231 8230 8228 8224 8223 8223 8221 8221 8217 8219 8220 8221 8220 8220 8222 8221 8221 8220 8219 8217 8218 8222 8220 8222 8222 8216 8207 8208 8205 8209 8207 8206 8208 8211 8208 8212 8212 8212 8210 8208 8211 8213 8212 8207 8205 8197 8197 8198 8196 8196 8197 8193 8192 8193 8190 8190 8190 8188 8190 8191 8183 8183 8180 8180 8183 8179 8178 8177 8179 8179 8180 8177 8180 8176 8177 8177 8177 
8229 8233 8232 8229 8230 8228 8225 8220 8223 8219 8222 8218 8219 8220 8220 8220 8219 8220 8220 8218 8220 8215 8218 8218 8221 8221 8219 8220 8216 8207 8206 8205 8209 8207 8207 8210 8209 8207 8212 8210 8208 8206 8208 8208 8213 8208 8205 8182 8147 8166 8187 8185 8182 8189 8189 8192 8190 8189 8192 8189 8188 8189 8186 8184 8183 8180 8179 8180 8179 8178 8177 8179 8178 8180 8178 8179 8176 8175 8176 8172 
8232 8232 8231 8228 8228 8226 8224 8222 8220 8219 8220 8219 8216 8219 8218 8217 8218 8220 8222 8220 8217 8212 8214 8216 8216 8220 8218 8217 8211 8209 8207 8206 8205 8204 8206 8208 8208 8207 8208 8209 8205 8205 8206 8207 8207 8207 8186 8133 8097 8111 8131 8117 8133 8155 8157 8169 8182 8188 8188 8189 8186 8186 8183 8185 8182 8180 8180 8180 8178 8177 8175 8177 8177 8177 8178 8180 8177 8176 8176 8172 
8227 8229 8228 8227 8226 8225 8222 8225 8218 8221 8218 8214 8218 8217 8218 8216 8213 8219 8217 8216 8215 8216 8213 8209 8215 8218 8216 8215 8212 8205 8207 8205 8206 8205 8207 8205 8206 8206 8204 8208 8207 8205 8203 8202 8202 8195 8130 8102 8129 8112 8139 8161 8174 8187 8190 8188 8189 8187 8191 8187 8187 8187 8183 8186 8183 8177 8179 8180 8178 8177 8177 8177 8177 8178 8177 8177 8175 8175 8173 8175 
8225 8225 8226 8225 8224 8224 8220 8221 8217 8218 8217 8217 8216 8218 8218 8212 8215 8214 8215 8211 8216 8215 8214 8214 8214 8217 8217 8213 8209 8202 8207 8206 8205 8204 8202 8201 8207 8204 8202 8207 8204 8200 8197 8198 8197 8195 8184 8155 8116 8142 8174 8175 8179 8181 8183 8187 8188 8187 8188 8188 8186 8188 8180 8183 8180 8179 8178 8178 8177 8176 8177 8179 8178 8178 8176 8178 8175 8173 8174 8174 
8221 8225 8225 8223 8220 8223 8220 8224 8221 8216 8217 8216 8217 8216 8216 8216 8211 8211 8213 8211 8214 8210 8211 8209 8210 8215 8217 8209 8208 8204 8204 8202 8205 8205 8202 8200 8206 8202 8200 8198 8199 8196 8191 8179 8163 8146 8140 8125 8101 8109 8107 8099 8111 8128 8146 8173 8184 8186 8186 8187 8185 8185 8186 8182 8179 8177 8177 8178 8176 8177 8178 8179 8179 8176 8176 8175 8175 8173 8171 8176 
8220 8225 8224 8220 8218 8223 8219 8219 8219 8214 8215 8214 8214 8213 8214 8212 8212 8212 8209 8209 8208 8209 8211 8209 8214 8214 8212 8210 8210 8203 8204 8203 8204 8202 8201 8200 8202 8197 8194 8195 8193 8188 8140 8108 8105 8099 8090 8082 8076 8084 8116 8105 8111 8160 8167 8165 8183 8187 8188 8186 8184 8185 8188 8182 8178 8178 8176 8176 8177 8178 8177 8179 8178 8179 8175 8173 8172 8170 8171 8170 
8217 8222 8223 8221 8222 8217 8217 8217 8216 8213 8214 8215 8214 8213 8212 8211 8209 8212 8209 8207 8211 8205 8206 8208 8210 8214 8214 8211 8209 8205 8200 8199 8200 8201 8198 8200 8200 8195 8192 8166 8160 8136 8110 8115 8121 8114 8084 8073 8071 8078 8141 8170 8157 8158 8184 8188 8186 8187 8186 8186 8185 8187 8184 8182 8180 8180 8179 8182 8178 8181 8178 8182 8178 8180 8178 8171 8176 8170 8172 8173 
8217 8221 8223 8217 8220 8217 8215 8215 8213 8214 8215 8211 8213 8212 8210 8208 8207 8207 8207 8204 8205 8205 8208 8206 8209 8212 8212 8212 8207 8200 8201 8198 8201 8200 8199 8198 8199 8189 8136 8102 8108 8112 8118 8107 8110 8114 8082 8074 8076 8080 8158 8176 8178 8185 8183 8188 8189 8187 8184 8183 8186 8184 8181 8184 8179 8178 8180 8179 8178 8175 8181 8181 8178 8179 8178 8176 8175 8172 8171 8169 
8218 8225 8221 8222 8222 8219 8217 8214 8211 8214 8213 8212 8211 8211 8212 8206 8208 8208 8204 8205 8204 8205 8205 8206 8209 8207 8208 8207 8201 8198 8197 8196 8200 8199 8200 8198 8197 8184 8173 8176 8182 8182 8180 8166 8118 8102 8084 8082 8087 8107 8127 8136 8143 8155 8163 8177 8180 8185 8184 8183 8184 8184 8181 8180 8181 8179 8179 8179 8179 8177 8181 8180 8176 8179 8176 8175 8173 8171 8171 8170 
8218 8222 8224 8219 8220 8217 8216 8215 8213 8211 8215 8210 8211 8211 8209 8209 8204 8205 8204 8202 8202 8203 8203 8205 8208 8209 8205 8206 8200 8194 8194 8193 8195 8197 8197 8196 8197 8191 8193 8190 8189 8190 8183 8168 8126 8099 8096 8083 8093 8099 8100 8100 8109 8147 8170 8174 8170 8174 8183 8184 8183 8183 8183 8181 8182 8181 8180 8181 8184 8178 8180 8179 8178 8177 8177 8177 8176 8174 8175 8169 
8220 8222 8222 8217 8218 8217 8212 8214 8214 8211 8214 8214 8209 8211 8207 8203 8203 8204 8202 8200 8201 8199 8200 8200 8202 8202 8200 8201 8198 8195 8195 8192 8196 8196 8197 8192 8196 8192 8191 8193 8189 8181 8138 8095 8085 8088 8086 8079 8092 8134 8147 8144 8133 8128 8147 8183 8184 8184 8186 8184 8182 8183 8180 8182 8183 8181 8181 8181 8181 8177 8180 8178 8181 8180 8181 8177 8176 8176 8174 8169 
8217 8220 8221 8219 8220 8215 8211 8214 8216 8213 8214 8213 8213 8209 8208 8206 8202 8204 8203 8200 8202 8202 8200 8193 8161 8145 8139 8157 8196 8193 8193 8194 8194 8194 8192 8188 8195 8192 8193 8188 8161 8153 8125 8093 8088 8087 8086 8083 8105 8149 8150 8167 8182 8183 8176 8185 8184 8185 8187 8188 8184 8185 8181 8183 8183 8184 8181 8183 8183 8178 8181 8181 8180 8178 8182 8178 8177 8175 8173 8172 
8215 8219 8220 8217 8218 8218 8214 8217 8214 8214 8213 8212 8209 8212 8206 8204 8204 8201 8199 8200 8201 8201 8199 8186 8112 8105 8111 8137 8192 8192 8190 8189 8192 8192 8193 8191 8193 8190 8183 8163 8178 8183 8148 8101 8090 8084 8084 8082 8101 8176 8185 8183 8186 8188 8187 8189 8186 8185 8186 8186 8186 8188 8183 8186 8183 8183 8182 8180 8180 8180 8182 8181 8180 8181 8181 8179 8176 8175 8176 8172 
8218 8220 8218 8218 8219 8215 8214 8213 8214 8212 8212 8208 8210 8211 8206 8207 8200 8202 8201 8197 8199 8197 8198 8188 8117 8103 8110 8138 8193 8192 8189 8186 8195 8197 8192 8194 8191 8192 8185 8193 8193 8188 8125 8090 8085 8086 8085 8084 8106 8160 8186 8191 8189 8188 8189 8191 8190 8189 8189 8191 8190 8190 8184 8186 8187 8180 8185 8182 8181 8180 8179 8182 8178 8181 8181 8180 8179 8176 8175 8176 
8219 8219 8219 8221 8224 8218 8216 8215 8214 8213 8213 8211 8208 8212 8206 8204 8202 8202 8199 8198 8199 8197 8198 8188 8118 8109 8114 8133 8190 8191 8189 8188 8194 8196 8196 8196 8193 8193 8195 8195 8194 8182 8134 8095 8087 8086 8084 8105 8178 8188 8191 8191 8189 8192 8191 8190 8190 8192 8190 8192 8188 8187 8185 8188 8187 8185 8183 8181 8182 8179 8181 8180 8180 8180 8179 8181 8180 8179 8178 8175 
8217 8222 8219 8219 8222 8218 8217 8216 8218 8214 8214 8211 8207 8207 8210 8208 8203 8201 8198 8197 8201 8197 8196 8193 8120 8109 8115 8133 8189 8188 8189 8189 8192 8193 8196 8193 8197 8190 8191 8187 8181 8159 8130 8089 8084 8087 8092 8146 8184 8190 8188 8192 8193 8195 8192 8190 8188 8188 8189 8192 8189 8188 8189 8186 8188 8184 8187 8185 8180 8185 8179 8181 8179 8182 8181 8181 8181 8178 8175 8176 
8216 8221 8221 8219 8223 8219 8216 8217 8216 8216 8213 8212 8209 8208 8209 8205 8203 8200 8201 8201 8199 8197 8198 8191 8124 8110 8116 8131 8192 8187 8188 8186 8191 8189 8194 8192 8188 8177 8143 8119 8109 8116 8096 8083 8084 8093 8100 8170 8189 8189 8191 8193 8193 8196 8189 8190 8188 8188 8190 8190 8187 8189 8186 8188 8186 8184 8184 8183 8182 8182 8179 8181 8177 8179 8181 8178 8178 8176 8177 8176 
8216 8222 8223 8221 8221 8220 8217 8218 8214 8213 8212 8211 8209 8207 8207 8205 8202 8200 8201 8201 8198 8198 8200 8194 8129 8114 8120 8127 8188 8190 8186 8186 8189 8190 8192 8187 8177 8108 8096 8091 8098 8090 8084 8082 8112 8148 8114 8179 8187 8189 8191 8191 8194 8197 8189 8188 8186 8188 8187 8187 8188 8189 8185 8185 8187 8184 8185 8185 8181 8178 8178 8181 8181 8181 8179 8177 8176 8177 8176 8174 
8217 8225 8227 8222 8221 8222 8217 8216 8213 8213 8212 8212 8209 8210 8209 8209 8206 8203 8203 8199 8201 8198 8198 8194 8134 8115 8120 8125 8185 8189 8189 8187 8186 8185 8183 8154 8117 8099 8083 8070 8078 8105 8083 8122 8134 8147 8123 8183 8189 8190 8190 8194 8192 8193 8190 8189 8185 8187 8185 8187 8187 8185 8181 8188 8188 8186 8185 8183 8183 8177 8180 8180 8180 8177 8178 8179 8181 8178 8179 8174 
8219 8223 8228 8223 8223 8222 8216 8216 8212 8214 8208 8209 8211 8210 8208 8204 8207 8205 8201 8203 8201 8198 8198 8197 8138 8116 8115 8124 8183 8189 8189 8184 8183 8182 8146 8101 8086 8084 8073 8073 8086 8147 8130 8155 8175 8129 8132 8185 8187 8186 8185 8190 8189 8190 8184 8188 8186 8185 8185 8187 8187 8186 8185 8184 8184 8185 8183 8186 8183 8183 8182 8181 8180 8180 8179 8182 8181 8179 8178 8179 
8223 8226 8225 8223 8224 8224 8218 8216 8214 8212 8210 8210 8207 8211 8210 8206 8208 8206 8203 8204 8206 8200 8198 8195 8140 8112 8117 8122 8181 8188 8187 8187 8184 8174 8115 8085 8078 8077 8074 8079 8083 8122 8164 8174 8181 8139 8138 8186 8183 8182 8182 8182 8182 8185 8182 8186 8185 8185 8187 8186 8185 8187 8185 8183 8185 8183 8182 8184 8179 8183 8184 8182 8181 8179 8181 8179 8182 8179 8180 8175 
8224 8228 8228 8223 8224 8220 8218 8216 8215 8209 8211 8208 8210 8212 8209 8207 8206 8205 8205 8201 8205 8201 8200 8196 8145 8112 8114 8119 8174 8187 8187 8181 8175 8154 8094 8078 8089 8121 8083 8084 8081 8097 8117 8144 8167 8131 8145 8188 8175 8150 8142 8157 8173 8181 8179 8180 8181 8184 8185 8182 8185 8186 8184 8182 8185 8182 8182 8184 8182 8181 8182 8182 8181 8182 8184 8182 8181 8180 8177 8173 
8232 8230 8231 8225 8227 8223 8218 8221 8215 8213 8210 8211 8211 8212 8208 8204 8203 8205 8207 8206 8205 8203 8203 8199 8151 8116 8118 8117 8175 8187 8183 8168 8167 8150 8076 8115 8123 8083 8074 8102 8144 8122 8097 8081 8100 8104 8142 8182 8159 8091 8089 8104 8119 8138 8154 8165 8175 8180 8182 8182 8186 8185 8186 8187 8184 8184 8183 8187 8184 8181 8183 8186 8184 8185 8186 8182 8184 8182 8180 8179 
8228 8230 8230 8223 8225 8221 8219 8222 8215 8213 8212 8210 8209 8210 8209 8208 8203 8205 8204 8205 8206 8204 8203 8201 8158 8118 8122 8118 8169 8185 8186 8181 8176 8138 8090 8128 8118 8084 8075 8083 8113 8125 8089 8075 8092 8103 8135 8170 8134 8092 8092 8092 8097 8108 8104 8113 8126 8137 8167 8180 8182 8186 8188 8185 8185 8187 8187 8187 8187 8184 8186 8189 8183 8186 8184 8185 8189 8182 8182 8180 
8227 8232 8229 8226 8225 8223 8216 8219 8215 8213 8212 8210 8209 8208 8209 8206 8203 8204 8200 8204 8204 8202 8203 8199 8161 8120 8124 8119 8167 8186 8190 8181 8172 8136 8112 8127 8111 8079 8084 8066 8078 8079 8072 8068 8078 8090 8116 8134 8146 8097 8096 8109 8087 8093 8095 8114 8121 8110 8115 8155 8181 8183 8188 8185 8187 8187 8188 8189 8187 8186 8186 8190 8186 8186 8186 8184 8186 8188 8184 8176 
8226 8228 8230 8223 8224 8221 8218 8216 8216 8211 8211 8211 8208 8208 8205 8204 8203 8204 8202 8203 8206 8205 8204 8198 8168 8122 8125 8117 8163 8187 8187 8180 8175 8168 8131 8094 8118 8143 8098 8069 8078 8073 8069 8072 8069 8082 8115 8172 8177 8145 8151 8140 8090 8097 8124 8172 8171 8125 8111 8123 8169 8185 8188 8187 8189 8188 8189 8188 8190 8190 8188 8189 8189 8191 8187 8186 8185 8184 8185 8180 
8225 8229 8226 8225 8225 8222 8218 8218 8216 8214 8214 8209 8208 8208 8206 8202 8201 8202 8203 8202 8205 8203 8202 8198 8174 8123 8123 8120 8160 8187 8189 8185 8178 8164 8127 8159 8171 8122 8080 8072 8070 8070 8068 8098 8071 8077 8104 8159 8180 8175 8179 8165 8149 8172 8183 8184 8182 8164 8131 8114 8148 8184 8189 8188 8193 8193 8191 8187 8188 8189 8191 8193 8192 8192 8191 8190 8188 8187 8185 8183 
8226 8229 8226 8225 8226 8221 8218 8217 8217 8213 8215 8210 8208 8209 8206 8206 8204 8202 8201 8202 8205 8205 8204 8200 8177 8120 8123 8124 8152 8186 8187 8185 8182 8176 8173 8175 8179 8143 8102 8081 8074 8084 8095 8087 8077 8084 8152 8178 8184 8183 8184 8185 8186 8189 8187 8190 8188 8183 8174 8131 8118 8173 8191 8192 8195 8190 8193 8190 8193 8191 8195 8197 8195 8195 8192 8193 8188 8190 8188 8186 
8224 8229 8229 8222 8224 8221 8218 8219 8215 8214 8213 8210 8208 8208 8207 8206 8205 8205 8203 8204 8204 8202 8202 8195 8180 8122 8122 8121 8151 8185 8184 8182 8182 8177 8173 8173 8176 8170 8163 8106 8076 8083 8120 8122 8104 8089 8129 8176 8183 8183 8187 8187 8187 8190 8189 8192 8188 8184 8188 8168 8123 8156 8188 8195 8195 8194 8195 8196 8195 8193 8196 8200 8199 8195 8195 8192 8194 8190 8189 8183 
8226 8227 8227 8222 8222 8219 8218 8220 8217 8215 8216 8212 8210 8208 8207 8205 8204 8206 8203 8204 8204 8201 8201 8199 8184 8123 8124 8120 8145 8182 8182 8175 8173 8157 8137 8141 8118 8130 8161 8118 8084 8076 8080 8100 8105 8092 8093 8127 8173 8179 8185 8187 8188 8191 8188 8190 8188 8185 8185 8184 8144 8162 8189 8195 8196 8197 8196 8195 8196 8195 8197 8201 8200 8197 8195 8193 8195 8191 8190 8187 
8229 8227 8229 8222 8226 8223 8218 8219 8215 8218 8224 8215 8210 8213 8209 8208 8207 8208 8202 8206 8204 8202 8201 8201 8186 8127 8121 8121 8141 8160 8126 8110 8109 8113 8117 8080 8077 8074 8099 8095 8082 8080 8085 8091 8088 8088 8089 8088 8124 8173 8177 8183 8183 8186 8186 8189 8186 8187 8190 8193 8177 8183 8196 8194 8195 8197 8198 8196 8198 8195 8197 8201 8198 8195 8198 8196 8197 8193 8192 8186 
8230 8227 8228 8222 8225 8222 8219 8218 8222 8219 8221 8215 8211 8214 8213 8209 8207 8206 8205 8206 8203 8204 8201 8200 8189 8130 8123 8121 8130 8103 8095 8095 8095 8107 8114 8131 8092 8077 8090 8107 8081 8085 8093 8098 8088 8089 8085 8082 8107 8151 8157 8157 8162 8166 8176 8182 8183 8186 8191 8192 8192 8195 8195 8194 8197 8197 8197 8196 8199 8196 8199 8201 8199 8200 8199 8194 8194 8195 8192 8192 
8229 8228 8232 8225 8225 8226 8221 8222 8224 8221 8220 8212 8213 8215 8212 8212 8209 8210 8209 8208 8206 8205 8202 8191 8176 8131 8127 8123 8108 8087 8092 8104 8122 8142 8150 8147 8121 8087 8079 8091 8084 8088 8086 8086 8090 8093 8088 8088 8097 8138 8149 8149 8153 8152 8156 8157 8158 8171 8187 8193 8193 8196 8195 8198 8199 8200 8199 8202 8201 8196 8199 8206 8204 8204 8200 8199 8195 8197 8193 8189 
8226 8229 8226 8224 8228 8225 8221 8222 8221 8220 8218 8215 8213 8213 8211 8213 8211 8214 8210 8214 8210 8205 8195 8170 8166 8133 8128 8121 8106 8087 8106 8147 8159 8160 8165 8157 8155 8132 8085 8082 8088 8093 8092 8088 8087 8090 8092 8091 8095 8113 8137 8137 8146 8154 8150 8148 8152 8159 8172 8185 8192 8193 8194 8196 8196 8199 8196 8202 8201 8198 8201 8204 8202 8205 8201 8198 8199 8193 8191 8190 
8224 8225 8229 8228 8226 8226 8221 8221 8222 8218 8217 8213 8212 8213 8213 8213 8211 8210 8209 8212 8209 8205 8195 8171 8168 8142 8133 8125 8111 8093 8108 8172 8164 8156 8186 8161 8138 8168 8103 8088 8089 8092 8085 8083 8088 8086 8083 8084 8089 8094 8112 8113 8121 8125 8124 8128 8143 8152 8164 8179 8188 8194 8194 8195 8197 8199 8197 8200 8199 8200 8204 8203 8204 8203 8203 8200 8198 8195 8192 8189 
8225 8226 8232 8227 8230 8229 8226 8225 8223 8217 8217 8217 8214 8212 8214 8212 8213 8214 8207 8209 8208 8208 8211 8198 8185 8161 8145 8135 8124 8106 8100 8153 8151 8141 8149 8132 8116 8120 8108 8107 8096 8088 8073 8086 8089 8089 8086 8091 8096 8103 8108 8110 8107 8108 8115 8127 8133 8145 8166 8177 8188 8190 8194 8196 8196 8196 8195 8201 8200 8201 8201 8204 8204 8203 8202 8200 8199 8196 8193 8191 
8224 8230 8231 8229 8229 8229 8226 8225 8221 8218 8222 8217 8216 8214 8214 8213 8210 8212 8206 8207 8206 8207 8207 8203 8198 8190 8174 8145 8123 8147 8134 8128 8138 8138 8133 8121 8108 8102 8098 8098 8088 8079 8081 8087 8089 8090 8091 8093 8098 8102 8107 8111 8108 8123 8138 8158 8158 8165 8170 8178 8190 8190 8190 8192 8193 8193 8196 8198 8200 8201 8202 8204 8204 8205 8203 8202 8198 8196 8198 8192 
8225 8229 8229 8227 8232 8229 8225 8226 8220 8219 8220 8216 8215 8215 8214 8211 8212 8210 8207 8205 8206 8206 8208 8202 8193 8197 8195 8193 8183 8181 8175 8162 8155 8142 8134 8122 8105 8096 8098 8091 8089 8085 8087 8097 8095 8101 8109 8105 8109 8111 8120 8132 8146 8164 8175 8176 8166 8158 8164 8179 8188 8191 8190 8189 8190 8193 8196 8196 8202 8202 8202 8204 8203 8203 8201 8201 8197 8195 8195 8194 
8226 8226 8232 8230 8227 8229 8227 8225 8223 8219 8217 8215 8209 8214 8217 8211 8210 8211 8206 8205 8206 8203 8207 8210 8211 8207 8203 8199 8193 8186 8182 8183 8184 8184 8182 8176 8173 8169 8165 8160 8157 8158 8155 8162 8164 8168 8175 8177 8178 8178 8181 8185 8187 8185 8180 8176 8164 8158 8173 8184 8187 8193 8187 8191 8191 8191 8194 8198 8198 8198 8201 8206 8203 8204 8201 8196 8194 8195 8191 8189 
8226 8228 8230 8229 8228 8226 8224 8225 8224 8217 8216 8217 8214 8212 8216 8213 8209 8210 8204 8206 8203 8204 8205 8217 8224 8223 8218 8208 8196 8188 8187 8183 8183 8182 8185 8180 8180 8183 8182 8184 8183 8185 8183 8184 8183 8185 8184 8182 8186 8187 8185 8185 8186 8186 8185 8180 8169 8173 8184 8188 8187 8189 8186 8189 8189 8192 8193 8198 8197 8197 8199 8203 8198 8204 8198 8198 8197 8192 8192 8192 
8225 8227 8229 8226 8229 8228 8226 8225 8220 8218 8218 8215 8213 8215 8216 8210 8206 8206 8202 8204 8207 8206 8206 8206 8222 8239 8239 8230 8212 8204 8202 8188 8191 8186 8187 8185 8185 8183 8182 8185 8186 8185 8186 8186 8187 8187 8190 8186 8190 8191 8187 8191 8192 8191 8191 8184 8174 8181 8186 8186 8185 8187 8184 8186 8192 8190 8193 8193 8194 8196 8199 8201 8202 8201 8200 8195 8194 8191 8189 8188 
8221 8227 8227 8223 8226 8227 8226 8223 8223 8217 8217 8214 8213 8214 8214 8210 8207 8205 8204 8202 8205 8207 8206 8204 8208 8229 8244 8251 8239 8229 8226 8211 8205 8203 8203 8197 8199 8193 8189 8190 8191 8194 8197 8197 8196 8198 8196 8197 8199 8196 8196 8195 8195 8199 8194 8186 8185 8182 8180 8182 8181 8185 8189 8186 8191 8190 8190 8192 8195 8194 8196 8199 8198 8204 8195 8198 8192 8190 8190 8190 
8217 8226 8224 8221 8224 8223 8222 8221 8219 8215 8215 8212 8211 8211 8209 8207 8206 8205 8201 8203 8203 8202 8203 8203 8204 8210 8224 8238 8232 8231 8233 8229 8230 8227 8223 8221 8221 8210 8206 8199 8191 8197 8202 8211 8212 8211 8213 8212 8214 8208 8196 8191 8190 8192 8182 8182 8181 8180 8179 8177 8181 8182 8188 8187 8187 8186 8188 8192 8194 8198 8195 8197 8197 8195 8194 8196 8195 8190 8189 8187 
8224 8222 8223 8214 8220 8216 8220 8219 8215 8215 8210 8209 8208 8210 8209 8203 8204 8201 8200 8200 8202 8202 8200 8201 8204 8205 8218 8221 8226 8220 8210 8206 8207 8211 8209 8221 8224 8212 8198 8182 8174 8176 8194 8209 8210 8205 8205 8200 8196 8188 8185 8189 8189 8188 8179 8181 8175 8175 8177 8176 8177 8184 8184 8183 8188 8186 8188 8190 8195 8198 8197 8199 8195 8194 8194 8192 8193 8191 8187 8184 
8233 8220 8214 8208 8208 8211 8209 8208 8209 8209 8208 8205 8204 8205 8206 8205 8201 8198 8196 8200 8200 8200 8197 8200 8203 8207 8209 8218 8219 8210 8194 8188 8189 8186 8186 8191 8194 8184 8176 8169 8168 8170 8174 8185 8189 8185 8187 8183 8185 8183 8185 8189 8191 8186 8180 8179 8176 8174 8175 8178 8180 8184 8181 8186 8187 8189 8188 8190 8197 8198 8194 8197 8194 8198 8194 8193 8190 8188 8191 8191 
8249 8218 8212 8208 8208 8209 8204 8206 8208 8206 8207 8201 8199 8203 8202 8200 8197 8197 8192 8196 8199 8196 8194 8197 8199 8203 8204 8207 8205 8203 8199 8193 8194 8187 8183 8186 8186 8178 8181 8173 8175 8174 8177 8182 8185 8187 8186 8183 8189 8187 8188 8197 8196 8189 8181 8181 8178 8176 8176 8179 8184 8184 8186 8189 8193 8196 8192 8197 8199 8205 8197 8200 8198 8198 8194 8194 8190 8190 8197 8190 


