P2
80 60
8287
8287 8280 8282 8286 8285 8280 8278 8273 8274 8272 8274 8275 8274 8269 8273 8270 8273 8269 8271 8268 8275 8269 8265 8262 8268 8273 8272 8273 8268 8271 8270 8269 8267 8267 8268 8266 8270 8269 8269 8273 8271 8268 8263 8267 8265 8263 8260 8263 8262 8261 8257 8255 8249 8248 8240 8242 8241 8242 8243 8243 8244 8244 8242 8242 8240 8241 8244 8243 8248 8253 8251 8250 8252 8253 8257 8260 8255 8259 8255 8255 
8284 8281 8281 8286 8282 8283 8275 8270 8274 8273 8270 8274 8275 8269 8267 8273 8270 8266 8266 8266 8270 8272 8266 8263 8268 8268 8268 8271 8266 8268 8269 8268 8263 8264 8265 8265 8267 8270 8270 8271 8271 8269 8261 8264 8264 8262 8261 8261 8258 8259 8256 8257 8249 8249 8243 8242 8240 8241 8241 8241 8240 8241 8244 8240 8237 8235 8240 8244 8244 8247 8250 8249 8251 8254 8254 8254 8254 8257 8255 8255 
8274 8271 8275 8277 8278 8271 8269 8273 8272 8272 8271 8272 8265 8268 8268 8267 8270 8270 8263 8268 8265 8264 8261 8260 8262 8267 8269 8268 8267 8264 8262 8263 8261 8267 8264 8263 8264 8268 8270 8270 8268 8265 8261 8262 8262 8255 8259 8258 8258 8260 8252 8251 8249 8248 8246 8246 8239 8237 8241 8238 8242 8244 8239 8237 8237 8237 8239 8241 8246 8248 8246 8246 8247 8251 8250 8252 8254 8259 8253 8255 
8277 8264 8275 8271 8274 8269 8270 8269 8273 8268 8266 8263 8262 8265 8264 8263 8266 8262 8261 8260 8260 8255 8247 8259 8263 8267 8270 8270 8267 8265 8261 8262 8262 8263 8262 8260 8266 8269 8267 8269 8268 8265 8260 8263 8260 8257 8255 8257 8257 8256 8251 8247 8247 8241 8242 8241 8238 8238 8238 8236 8242 8242 8237 8241 8235 8236 8239 8244 8244 8246 8245 8249 8249 8250 8249 8249 8257 8256 8255 8253 
8281 8267 8273 8265 8269 8272 8271 8267 8266 8266 8258 8258 8259 8261 8261 8262 8260 8257 8261 8256 8257 8255 8249 8255 8262 8268 8267 8266 8260 8267 8263 8265 8259 8260 8262 8259 8263 8264 8265 8266 8268 8262 8258 8258 8258 8252 8254 8253 8257 8254 8247 8246 8243 8243 8238 8242 8235 8237 8236 8237 8241 8243 8239 8237 8236 8235 8238 8241 8243 8244 8241 8243 8247 8248 8244 8248 8249 8256 8255 8252 
8281 8267 8268 8267 8263 8269 8275 8267 8265 8263 8251 8262 8262 8256 8254 8259 8259 8253 8260 8261 8261 8251 8256 8256 8263 8268 8268 8266 8260 8266 8267 8263 8259 8259 8263 8261 8262 8262 8262 8267 8267 8266 8262 8259 8257 8252 8250 8254 8253 8255 8248 8245 8243 8241 8238 8243 8236 8234 8239 8239 8240 8242 8238 8234 8235 8237 8236 8241 8238 8239 8241 8243 8243 8243 8242 8243 8244 8246 8254 8251 
8276 8267 8267 8270 8269 8267 8272 8265 8260 8252 8249 8262 8257 8252 8259 8258 8253 8255 8259 8261 8257 8252 8258 8255 8262 8268 8256 8258 8258 8267 8267 8261 8261 8259 8259 8259 8260 8262 8266 8265 8265 8262 8259 8259 8254 8251 8249 8251 8251 8252 8245 8243 8243 8240 8236 8240 8236 8232 8236 8237 8233 8235 8235 8233 8232 8234 8236 8240 8232 8237 8241 8239 8238 8234 8238 8238 8240 8239 8244 8247 
8274 8269 8263 8272 8266 8266 8270 8271 8267 8250 8256 8263 8257 8257 8263 8261 8257 8256 8260 8255 8262 8255 8255 8259 8262 8264 8254 8256 8256 8265 8265 8260 8258 8258 8259 8258 8260 8263 8263 8264 8264 8259 8259 8257 8251 8252 8247 8247 8247 8249 8239 8240 8239 8236 8234 8235 8231 8232 8234 8230 8230 8233 8231 8231 8230 8235 8235 8241 8236 8234 8234 8236 8236 8234 8235 8238 8234 8238 8239 8241 
8274 8261 8259 8263 8266 8263 8269 8266 8263 8254 8256 8261 8258 8257 8254 8261 8254 8256 8260 8260 8261 8251 8251 8252 8253 8262 8255 8257 8255 8260 8259 8254 8252 8253 8257 8259 8263 8262 8261 8263 8261 8258 8256 8255 8253 8249 8246 8247 8246 8243 8237 8237 8236 8236 8233 8233 8231 8230 8231 8229 8227 8233 8230 8227 8230 8230 8233 8235 8237 8233 8234 8233 8236 8235 8232 8235 8229 8234 8239 8231 
8270 8257 8261 8263 8264 8267 8261 8263 8261 8256 8256 8257 8255 8255 8254 8252 8258 8254 8257 8257 8255 8253 8250 8252 8254 8259 8257 8257 8256 8257 8253 8250 8249 8253 8257 8257 8261 8258 8261 8258 8258 8256 8252 8253 8250 8248 8247 8247 8243 8244 8239 8239 8237 8236 8232 8230 8232 8228 8230 8229 8228 8230 8229 8229 8224 8229 8230 8235 8234 8232 8231 8233 8231 8232 8230 8228 8228 8234 8230 8230 
8272 8259 8262 8262 8262 8264 8257 8260 8262 8258 8254 8258 8255 8255 8254 8253 8256 8249 8247 8253 8256 8251 8250 8251 8249 8257 8257 8258 8253 8256 8255 8246 8247 8251 8252 8251 8252 8255 8255 8254 8253 8251 8248 8251 8251 8250 8249 8245 8241 8244 8238 8241 8237 8236 8226 8226 8229 8227 8227 8227 8228 8228 8226 8225 8221 8225 8231 8232 8229 8227 8228 8229 8228 8225 8224 8220 8223 8227 8227 8226 
8268 8264 8261 8256 8261 8259 8257 8257 8260 8260 8257 8259 8256 8256 8253 8251 8252 8249 8247 8252 8254 8249 8245 8250 8251 8255 8256 8257 8255 8255 8254 8248 8246 8248 8246 8248 8250 8253 8255 8251 8250 8251 8246 8250 8249 8249 8245 8246 8242 8244 8242 8240 8236 8233 8231 8228 8228 8221 8232 8229 8226 8225 8223 8224 8221 8225 8229 8229 8226 8223 8226 8225 8221 8223 8218 8218 8221 8224 8223 8223 
8264 8263 8256 8255 8258 8263 8260 8253 8257 8257 8256 8255 8252 8252 8253 8254 8253 8249 8253 8251 8250 8251 8245 8250 8250 8252 8255 8256 8251 8250 8254 8245 8244 8245 8246 8244 8250 8250 8251 8246 8245 8245 8244 8251 8247 8245 8244 8241 8244 8242 8241 8240 8237 8233 8230 8225 8226 8223 8228 8227 8226 8224 8222 8221 8222 8225 8227 8225 8225 8221 8221 8219 8221 8222 8218 8222 8223 8225 8221 8220 
8265 8262 8259 8265 8262 8261 8257 8253 8252 8254 8253 8253 8254 8253 8255 8252 8254 8252 8250 8251 8251 8247 8241 8246 8247 8252 8253 8254 8246 8250 8249 8245 8245 8245 8244 8246 8248 8248 8249 8247 8244 8244 8245 8252 8243 8244 8242 8242 8243 8242 8240 8236 8236 8234 8234 8225 8224 8225 8230 8224 8223 8223 8224 8223 8225 8227 8228 8226 8222 8220 8222 8221 8219 8221 8218 8221 8220 8224 8219 8220 
8267 8256 8264 8264 8263 8262 8255 8255 8251 8252 8254 8255 8254 8256 8255 8254 8254 8253 8251 8254 8248 8245 8242 8245 8250 8253 8256 8252 8245 8251 8245 8244 8245 8240 8244 8242 8245 8245 8247 8246 8245 8245 8244 8252 8245 8239 8240 8239 8242 8241 8235 8238 8235 8234 8227 8227 8229 8227 8225 8227 8225 8223 8223 8228 8223 8227 8229 8226 8220 8221 8221 8219 8220 8220 8218 8219 8218 8223 8220 8219 
8268 8252 8253 8263 8260 8256 8253 8251 8255 8254 8254 8257 8255 8256 8260 8256 8258 8250 8255 8253 8247 8245 8242 8243 8244 8252 8255 8248 8248 8249 8247 8242 8244 8242 8242 8245 8244 8244 8244 8242 8245 8247 8242 8247 8243 8235 8231 8235 8235 8238 8234 8234 8232 8232 8226 8227 8226 8224 8226 8226 8226 8222 8221 8226 8225 8226 8223 8225 8221 8219 8220 8221 8221 8222 8218 8215 8217 8219 8217 8214 
8271 8250 8252 8261 8257 8256 8252 8250 8256 8255 8254 8256 8253 8254 8255 8256 8254 8253 8252 8252 8247 8245 8246 8242 8240 8250 8253 8251 8245 8247 8250 8243 8242 8242 8244 8244 8245 8244 8247 8243 8242 8240 8240 8239 8226 8218 8212 8213 8225 8230 8231 8232 8233 8224 8222 8225 8222 8221 8225 8223 8223 8222 8222 8223 8224 8223 8223 8224 8225 8221 8221 8220 8220 8221 8221 8216 8213 8218 8215 8216 
8266 8253 8258 8255 8259 8254 8255 8258 8253 8256 8254 8254 8256 8260 8261 8255 8253 8251 8249 8250 8251 8248 8244 8241 8241 8255 8255 8250 8245 8245 8247 8243 8244 8243 8244 8245 8243 8239 8242 8240 8238 8236 8236 8229 8172 8173 8172 8156 8162 8192 8209 8229 8227 8226 8218 8224 8221 8221 8223 8225 8224 8223 8220 8223 8224 8224 8223 8225 8221 8219 8220 8222 8223 8222 8219 8218 8215 8219 8220 8217 
8266 8253 8255 8256 8254 8256 8258 8255 8258 8253 8255 8254 8254 8257 8256 8255 8250 8249 8248 8246 8245 8246 8246 8242 8246 8255 8255 8244 8242 8244 8244 8247 8246 8242 8243 8243 8243 8237 8237 8237 8238 8236 8233 8193 8181 8169 8157 8154 8152 8148 8153 8194 8221 8223 8219 8219 8222 8223 8222 8221 8222 8221 8222 8222 8223 8226 8225 8225 8224 8223 8222 8224 8224 8220 8220 8220 8216 8220 8218 8215 
8261 8249 8255 8253 8253 8257 8257 8257 8257 8250 8254 8253 8251 8253 8256 8255 8249 8248 8243 8244 8238 8247 8242 8240 8244 8245 8250 8246 8242 8242 8243 8242 8240 8241 8244 8240 8239 8238 8237 8234 8234 8231 8227 8203 8199 8163 8195 8196 8190 8192 8148 8158 8211 8221 8222 8218 8222 8221 8220 8218 8221 8223 8224 8224 8224 8225 8225 8226 8224 8222 8224 8223 8221 8222 8220 8221 8216 8219 8215 8214 
8262 8255 8248 8248 8248 8252 8245 8255 8254 8249 8247 8252 8251 8251 8249 8255 8247 8246 8238 8244 8241 8241 8244 8243 8240 8242 8244 8246 8240 8244 8242 8239 8240 8239 8239 8239 8238 8235 8235 8233 8217 8204 8198 8177 8150 8144 8158 8143 8136 8147 8149 8147 8207 8221 8222 8222 8222 8221 8218 8218 8218 8223 8225 8224 8223 8225 8224 8228 8225 8222 8225 8223 8222 8222 8221 8221 8218 8219 8217 8215 
8261 8256 8250 8259 8259 8253 8242 8251 8244 8250 8246 8246 8252 8251 8248 8250 8245 8244 8239 8241 8243 8244 8244 8245 8241 8245 8245 8251 8242 8240 8238 8238 8238 8237 8237 8234 8229 8223 8218 8220 8208 8158 8137 8146 8132 8129 8124 8132 8124 8143 8147 8169 8188 8210 8219 8224 8223 8219 8220 8218 8220 8223 8224 8224 8226 8225 8225 8226 8223 8223 8222 8220 8221 8220 8220 8221 8215 8223 8216 8220 
8261 8252 8252 8259 8256 8252 8241 8236 8239 8250 8251 8247 8247 8253 8249 8247 8243 8238 8235 8243 8243 8245 8239 8241 8241 8243 8246 8245 8241 8241 8241 8231 8234 8234 8233 8211 8175 8154 8150 8157 8146 8134 8140 8148 8131 8128 8119 8118 8122 8131 8187 8189 8206 8211 8218 8219 8221 8218 8219 8216 8220 8223 8222 8225 8223 8226 8226 8227 8227 8223 8221 8221 8220 8220 8220 8223 8219 8225 8220 8218 
8259 8256 8253 8256 8254 8253 8248 8235 8246 8251 8248 8246 8248 8251 8250 8245 8244 8242 8238 8244 8244 8243 8243 8239 8238 8239 8245 8244 8240 8237 8234 8237 8237 8235 8223 8155 8145 8155 8175 8210 8162 8155 8175 8151 8141 8172 8126 8122 8124 8129 8176 8215 8212 8218 8215 8218 8223 8220 8219 8218 8219 8221 8224 8226 8226 8228 8225 8229 8227 8224 8221 8225 8223 8221 8220 8222 8221 8226 8221 8218 
8262 8245 8250 8258 8254 8249 8245 8248 8251 8246 8247 8246 8246 8251 8250 8248 8246 8242 8240 8235 8247 8242 8242 8236 8237 8240 8241 8242 8236 8230 8240 8238 8234 8233 8211 8195 8218 8223 8223 8222 8202 8215 8174 8138 8138 8175 8157 8125 8127 8133 8171 8215 8218 8218 8216 8219 8223 8220 8220 8221 8220 8221 8223 8224 8227 8226 8227 8229 8225 8222 8223 8225 8223 8222 8225 8223 8222 8224 8221 8220 
8261 8243 8247 8257 8252 8248 8251 8238 8236 8244 8241 8250 8247 8248 8250 8245 8241 8245 8239 8235 8242 8242 8241 8233 8232 8233 8235 8237 8235 8236 8235 8238 8231 8234 8233 8228 8230 8229 8224 8204 8182 8175 8161 8152 8149 8140 8141 8132 8131 8137 8200 8216 8217 8218 8217 8218 8219 8216 8219 8223 8217 8219 8222 8224 8224 8229 8225 8228 8222 8220 8221 8224 8224 8221 8222 8223 8220 8225 8222 8221 
8260 8248 8244 8254 8245 8250 8244 8234 8237 8243 8238 8247 8244 8246 8243 8241 8244 8241 8239 8232 8237 8233 8233 8234 8228 8221 8221 8221 8230 8235 8234 8233 8232 8231 8232 8232 8228 8214 8168 8140 8137 8137 8153 8151 8145 8148 8144 8181 8154 8142 8179 8215 8217 8219 8217 8219 8217 8219 8221 8223 8221 8221 8224 8223 8224 8225 8225 8225 8218 8218 8217 8222 8223 8223 8224 8224 8224 8226 8224 8221 
8258 8254 8251 8253 8253 8244 8245 8245 8240 8244 8240 8246 8247 8246 8245 8247 8243 8243 8238 8237 8235 8234 8234 8234 8221 8177 8180 8182 8229 8234 8232 8232 8228 8229 8230 8226 8200 8157 8142 8136 8140 8138 8145 8146 8167 8182 8159 8184 8198 8159 8183 8204 8218 8221 8219 8220 8220 8218 8221 8226 8223 8222 8222 8226 8226 8227 8224 8221 8217 8216 8217 8221 8222 8223 8223 8227 8220 8227 8223 8225 
8257 8247 8245 8252 8247 8250 8244 8244 8243 8249 8248 8249 8247 8246 8249 8239 8240 8242 8238 8235 8234 8230 8233 8233 8220 8174 8174 8180 8225 8228 8228 8224 8224 8227 8223 8209 8211 8173 8141 8136 8137 8141 8169 8162 8181 8208 8204 8204 8220 8211 8218 8220 8221 8222 8220 8223 8221 8222 8223 8220 8220 8222 8221 8223 8224 8225 8220 8222 8218 8216 8216 8218 8221 8222 8224 8224 8220 8225 8223 8225 
8253 8242 8243 8252 8248 8251 8251 8241 8246 8244 8247 8248 8245 8243 8243 8241 8236 8240 8240 8235 8233 8234 8231 8231 8223 8178 8176 8178 8219 8224 8227 8223 8225 8223 8223 8217 8215 8158 8136 8131 8134 8135 8156 8162 8190 8214 8212 8220 8224 8222 8223 8222 8224 8224 8222 8224 8223 8218 8221 8220 8216 8217 8220 8222 8222 8223 8220 8220 8214 8215 8216 8218 8218 8221 8220 8221 8220 8226 8222 8223 
8251 8246 8247 8251 8248 8253 8240 8244 8248 8241 8246 8242 8241 8242 8240 8242 8240 8235 8236 8231 8228 8228 8230 8233 8223 8175 8176 8178 8218 8225 8225 8221 8222 8225 8221 8220 8210 8156 8130 8131 8132 8148 8183 8162 8199 8216 8217 8221 8223 8226 8226 8224 8223 8220 8219 8222 8221 8217 8216 8218 8217 8219 8219 8221 8222 8226 8219 8217 8216 8215 8215 8215 8218 8217 8221 8222 8220 8225 8225 8219 
8254 8245 8242 8246 8243 8249 8238 8240 8249 8241 8238 8243 8238 8239 8242 8240 8239 8230 8233 8230 8226 8236 8230 8234 8225 8174 8176 8177 8218 8224 8221 8222 8223 8218 8221 8214 8180 8140 8130 8129 8131 8136 8184 8165 8205 8216 8218 8223 8222 8226 8223 8223 8224 8218 8217 8218 8220 8216 8217 8218 8218 8217 8218 8223 8223 8220 8221 8220 8220 8217 8214 8214 8213 8219 8218 8221 8219 8223 8220 8218 
8255 8245 8240 8247 8242 8249 8237 8238 8249 8246 8239 8243 8235 8239 8239 8239 8235 8231 8231 8226 8228 8233 8230 8232 8226 8182 8179 8177 8216 8224 8217 8217 8223 8214 8213 8181 8136 8124 8128 8129 8131 8136 8170 8165 8209 8219 8221 8221 8222 8224 8222 8224 8221 8221 8218 8217 8218 8218 8214 8215 8218 8217 8218 8220 8219 8217 8218 8220 8216 8213 8215 8214 8213 8215 8216 8217 8220 8222 8219 8218 
8257 8242 8247 8246 8248 8248 8240 8243 8249 8242 8240 8245 8232 8240 8238 8236 8232 8236 8233 8230 8230 8232 8227 8227 8228 8186 8177 8178 8214 8226 8218 8219 8214 8207 8166 8131 8123 8128 8127 8136 8145 8151 8179 8171 8214 8216 8216 8221 8221 8224 8222 8223 8220 8222 8218 8220 8219 8218 8215 8215 8216 8219 8219 8221 8217 8219 8219 8220 8214 8217 8213 8214 8216 8218 8216 8216 8219 8222 8221 8217 
8254 8243 8250 8247 8248 8244 8247 8249 8246 8241 8242 8244 8238 8238 8238 8235 8238 8234 8237 8231 8234 8233 8227 8225 8226 8184 8173 8176 8210 8224 8222 8214 8209 8182 8154 8125 8125 8128 8127 8126 8153 8182 8193 8178 8216 8210 8212 8211 8217 8221 8219 8220 8220 8219 8217 8217 8220 8217 8214 8216 8219 8221 8222 8222 8221 8221 8219 8220 8219 8218 8216 8215 8216 8219 8216 8217 8218 8221 8222 8220 
8260 8247 8246 8248 8248 8248 8251 8249 8245 8237 8238 8245 8243 8239 8243 8240 8236 8235 8236 8235 8238 8234 8231 8226 8226 8181 8169 8176 8205 8223 8215 8200 8189 8166 8133 8124 8129 8129 8127 8138 8160 8161 8182 8177 8216 8210 8182 8166 8185 8206 8213 8216 8220 8220 8219 8219 8221 8218 8218 8216 8219 8219 8221 8222 8219 8221 8220 8218 8216 8219 8216 8215 8216 8218 8218 8218 8216 8219 8221 8215 
8264 8248 8248 8250 8247 8252 8252 8247 8245 8238 8236 8250 8244 8240 8239 8237 8235 8230 8235 8234 8234 8235 8228 8223 8223 8183 8169 8174 8200 8195 8188 8198 8196 8165 8129 8119 8129 8131 8132 8129 8131 8146 8159 8168 8214 8207 8159 8143 8148 8159 8171 8192 8210 8215 8220 8219 8219 8221 8220 8218 8218 8219 8220 8221 8219 8218 8219 8220 8217 8218 8217 8218 8217 8216 8220 8222 8218 8219 8219 8217 
8259 8249 8249 8249 8248 8251 8252 8244 8244 8242 8241 8247 8242 8238 8239 8236 8232 8229 8230 8231 8230 8229 8229 8226 8225 8189 8173 8178 8200 8214 8220 8210 8178 8140 8126 8118 8117 8126 8147 8130 8126 8139 8175 8162 8185 8184 8160 8134 8134 8144 8142 8146 8158 8181 8203 8222 8220 8220 8220 8220 8217 8218 8218 8218 8218 8220 8220 8221 8219 8216 8218 8216 8218 8218 8221 8221 8220 8218 8214 8217 
8260 8251 8248 8249 8250 8251 8247 8244 8242 8241 8239 8242 8237 8234 8235 8233 8234 8231 8227 8230 8229 8225 8227 8230 8224 8191 8174 8176 8199 8222 8222 8213 8198 8177 8134 8142 8143 8125 8129 8124 8119 8128 8137 8157 8200 8208 8187 8135 8153 8137 8129 8140 8156 8152 8165 8212 8220 8222 8222 8217 8216 8214 8215 8216 8218 8219 8222 8223 8222 8219 8217 8217 8220 8221 8222 8223 8217 8219 8218 8216 
8254 8250 8257 8245 8246 8248 8249 8241 8239 8242 8240 8238 8236 8234 8233 8229 8232 8229 8234 8228 8233 8223 8226 8229 8224 8192 8175 8179 8196 8223 8225 8217 8209 8159 8164 8185 8149 8123 8123 8122 8118 8120 8123 8149 8205 8209 8206 8175 8194 8148 8154 8182 8208 8176 8157 8197 8218 8218 8219 8217 8216 8215 8216 8216 8218 8219 8219 8222 8221 8218 8216 8215 8218 8221 8223 8223 8218 8217 8216 8216 
8249 8244 8258 8241 8246 8248 8245 8243 8242 8241 8237 8238 8234 8234 8240 8231 8233 8236 8236 8239 8233 8231 8229 8227 8226 8198 8174 8178 8195 8223 8223 8214 8208 8192 8205 8192 8182 8127 8130 8168 8147 8124 8123 8160 8204 8207 8209 8211 8210 8209 8213 8215 8217 8209 8181 8167 8201 8216 8217 8217 8216 8219 8219 8222 8220 8221 8221 8223 8219 8217 8216 8219 8220 8222 8224 8223 8218 8220 8217 8218 
8249 8239 8249 8236 8242 8247 8238 8239 8240 8239 8239 8239 8238 8237 8241 8237 8234 8233 8236 8236 8235 8227 8228 8230 8227 8200 8171 8176 8192 8225 8218 8213 8210 8200 8204 8198 8196 8152 8124 8148 8147 8134 8130 8165 8185 8201 8211 8213 8213 8221 8217 8217 8216 8217 8214 8191 8178 8211 8215 8216 8216 8218 8220 8221 8220 8223 8218 8221 8220 8216 8218 8218 8221 8224 8224 8225 8226 8227 8217 8218 
8247 8239 8239 8236 8236 8242 8238 8240 8240 8241 8239 8239 8238 8244 8235 8235 8235 8236 8231 8230 8231 8228 8227 8232 8228 8204 8169 8175 8186 8208 8187 8175 8169 8168 8146 8135 8157 8157 8122 8129 8131 8134 8138 8142 8147 8161 8199 8212 8215 8218 8215 8214 8215 8217 8216 8212 8187 8210 8217 8213 8219 8219 8222 8222 8222 8221 8219 8218 8215 8218 8218 8221 8224 8225 8228 8227 8225 8227 8223 8221 
8250 8240 8241 8237 8238 8240 8240 8239 8243 8241 8239 8241 8241 8244 8237 8234 8235 8233 8230 8229 8234 8227 8226 8229 8229 8203 8169 8171 8176 8153 8141 8143 8154 8155 8147 8130 8135 8165 8133 8130 8136 8137 8137 8145 8145 8148 8174 8196 8199 8205 8210 8210 8215 8218 8217 8216 8213 8213 8219 8218 8220 8221 8223 8223 8222 8221 8218 8220 8218 8223 8220 8223 8224 8229 8225 8227 8223 8227 8224 8224 
8247 8242 8241 8235 8240 8235 8241 8232 8241 8241 8236 8239 8241 8242 8240 8238 8237 8238 8232 8233 8229 8227 8225 8227 8218 8202 8171 8169 8154 8147 8151 8164 8173 8168 8164 8138 8125 8150 8134 8138 8138 8140 8136 8146 8148 8144 8155 8181 8182 8186 8189 8187 8187 8201 8213 8219 8217 8215 8219 8217 8220 8221 8219 8224 8222 8220 8218 8222 8222 8220 8221 8224 8226 8227 8223 8227 8227 8227 8224 8224 
8251 8236 8233 8240 8240 8240 8240 8234 8236 8238 8238 8237 8243 8241 8240 8241 8241 8235 8234 8233 8234 8233 8229 8229 8203 8197 8174 8170 8158 8149 8170 8181 8180 8186 8186 8182 8141 8133 8137 8140 8145 8136 8137 8145 8147 8146 8157 8180 8175 8183 8187 8183 8184 8189 8214 8221 8217 8213 8216 8219 8220 8219 8219 8222 8221 8220 8219 8227 8223 8221 8223 8222 8227 8226 8224 8224 8228 8229 8227 8226 
8249 8246 8237 8239 8238 8242 8242 8237 8236 8235 8239 8243 8242 8240 8243 8242 8241 8236 8235 8233 8235 8232 8232 8227 8209 8212 8181 8173 8160 8155 8174 8186 8188 8189 8203 8189 8164 8143 8151 8150 8151 8134 8131 8138 8147 8145 8157 8168 8171 8167 8171 8168 8180 8189 8200 8216 8216 8216 8217 8218 8217 8216 8220 8221 8219 8219 8220 8225 8224 8222 8225 8223 8225 8229 8226 8229 8232 8231 8234 8233 
8252 8245 8237 8243 8240 8240 8242 8240 8245 8249 8242 8241 8242 8240 8242 8246 8239 8235 8236 8236 8236 8232 8229 8224 8213 8213 8188 8180 8169 8172 8171 8182 8185 8189 8188 8178 8170 8166 8166 8145 8151 8139 8139 8147 8154 8153 8165 8172 8168 8176 8179 8182 8184 8187 8201 8217 8219 8216 8218 8215 8216 8221 8221 8222 8218 8223 8221 8222 8223 8222 8226 8226 8227 8230 8231 8232 8229 8232 8236 8232 
8250 8235 8243 8244 8239 8246 8249 8241 8244 8240 8239 8243 8241 8239 8243 8241 8240 8236 8237 8233 8234 8230 8233 8226 8215 8209 8204 8197 8191 8194 8198 8192 8194 8187 8189 8188 8182 8177 8173 8170 8174 8176 8173 8179 8183 8182 8186 8187 8186 8192 8186 8188 8186 8192 8204 8215 8217 8215 8218 8215 8215 8217 8221 8222 8216 8221 8222 8223 8224 8221 8226 8226 8230 8228 8230 8234 8229 8235 8235 8232 
8247 8234 8242 8242 8241 8248 8248 8241 8241 8239 8238 8242 8242 8243 8236 8240 8236 8238 8237 8236 8231 8231 8233 8233 8223 8219 8211 8206 8196 8196 8199 8196 8197 8195 8197 8195 8195 8196 8195 8195 8200 8203 8198 8201 8198 8193 8192 8195 8191 8188 8186 8189 8190 8199 8213 8216 8216 8219 8216 8213 8215 8218 8220 8220 8217 8218 8221 8225 8223 8225 8227 8231 8232 8232 8238 8232 8235 8239 8238 8230 
8249 8236 8237 8240 8243 8242 8248 8235 8237 8239 8240 8240 8239 8243 8241 8240 8237 8235 8236 8232 8233 8233 8232 8236 8230 8228 8224 8212 8203 8203 8204 8198 8195 8198 8196 8197 8196 8201 8203 8205 8206 8208 8205 8204 8205 8198 8200 8201 8195 8191 8186 8186 8198 8210 8214 8218 8217 8216 8216 8216 8214 8218 8215 8217 8213 8220 8221 8226 8224 8227 8229 8231 8230 8234 8232 8235 8231 8234 8236 8235 
8242 8237 8234 8241 8242 8244 8239 8243 8234 8233 8237 8240 8241 8243 8239 8238 8234 8236 8238 8230 8230 8228 8235 8234 8233 8245 8238 8228 8221 8217 8208 8213 8204 8203 8205 8201 8204 8207 8209 8213 8212 8213 8208 8209 8207 8201 8197 8199 8198 8194 8192 8198 8219 8217 8213 8216 8218 8215 8215 8215 8217 8220 8221 8213 8218 8220 8225 8224 8226 8228 8229 8230 8231 8231 8231 8234 8232 8237 8235 8230 
8240 8236 8238 8244 8240 8238 8241 8244 8244 8237 8231 8239 8235 8241 8242 8240 8234 8237 8234 8235 8232 8232 8231 8234 8236 8240 8238 8231 8224 8218 8216 8221 8217 8216 8217 8213 8217 8216 8211 8215 8216 8215 8210 8210 8207 8199 8196 8200 8200 8207 8211 8219 8219 8221 8217 8219 8216 8216 8217 8218 8218 8219 8220 8215 8216 8222 8224 8225 8224 8225 8228 8228 8231 8232 8231 8234 8229 8236 8237 8233 
8238 8240 8237 8243 8243 8243 8242 8243 8235 8237 8232 8235 8235 8243 8240 8236 8237 8234 8232 8232 8231 8229 8232 8235 8236 8235 8235 8232 8217 8214 8216 8212 8214 8220 8222 8217 8218 8218 8217 8212 8212 8214 8212 8217 8214 8212 8209 8214 8219 8224 8228 8233 8228 8216 8220 8219 8215 8215 8216 8218 8220 8219 8219 8218 8220 8220 8222 8223 8227 8226 8226 8229 8230 8232 8233 8227 8229 8231 8235 8233 
8239 8239 8236 8243 8239 8238 8240 8237 8231 8233 8228 8240 8237 8239 8235 8234 8234 8230 8235 8231 8230 8230 8229 8231 8233 8231 8230 8229 8221 8214 8213 8212 8213 8220 8226 8223 8224 8222 8223 8223 8223 8223 8227 8234 8229 8224 8222 8233 8234 8240 8239 8239 8226 8215 8218 8218 8220 8212 8212 8215 8216 8216 8218 8221 8218 8220 8222 8220 8223 8226 8227 8228 8230 8231 8230 8229 8224 8229 8231 8231 
8247 8240 8241 8246 8239 8237 8239 8232 8225 8232 8230 8233 8241 8237 8233 8234 8230 8230 8226 8226 8229 8227 8228 8231 8227 8219 8229 8234 8227 8225 8221 8217 8218 8220 8231 8236 8237 8235 8233 8238 8236 8238 8239 8242 8240 8235 8230 8241 8244 8244 8246 8243 8226 8217 8214 8214 8217 8212 8211 8211 8213 8213 8217 8219 8219 8219 8220 8222 8223 8224 8227 8230 8230 8227 8227 8224 8224 8229 8229 8231 
8273 8259 8259 8259 8248 8239 8238 8227 8228 8230 8228 8228 8235 8234 8232 8227 8225 8230 8224 8224 8231 8227 8225 8232 8229 8221 8224 8235 8233 8235 8231 8226 8227 8228 8236 8243 8243 8243 8242 8246 8247 8248 8248 8252 8250 8240 8242 8247 8250 8249 8244 8241 8218 8212 8211 8212 8211 8215 8209 8206 8211 8214 8215 8218 8215 8222 8222 8223 8224 8225 8225 8229 8225 8225 8227 8226 8226 8224 8221 8229 
8265 8259 8265 8262 8251 8239 8239 8234 8239 8227 8224 8217 8220 8227 8230 8221 8215 8221 8221 8225 8221 8223 8217 8225 8231 8227 8233 8235 8235 8235 8234 8233 8235 8234 8234 8240 8246 8245 8249 8252 8253 8247 8247 8258 8252 8249 8246 8249 8249 8250 8248 8240 8212 8204 8208 8207 8207 8207 8208 8208 8205 8215 8216 8214 8213 8220 8220 8222 8223 8222 8226 8224 8221 8221 8222 8224 8219 8220 8222 8223 
8265 8245 8229 8231 8230 8230 8232 8230 8226 8220 8217 8211 8206 8213 8212 8202 8204 8205 8209 8209 8214 8206 8204 8215 8223 8227 8234 8237 8234 8235 8234 8231 8231 8241 8235 8244 8248 8249 8254 8256 8256 8251 8247 8249 8248 8245 8250 8253 8252 8250 8242 8232 8207 8203 8200 8203 8205 8205 8209 8207 8210 8210 8212 8212 8212 8220 8221 8224 8222 8226 8225 8222 8223 8220 8221 8220 8219 8226 8224 8223 
8261 8228 8219 8223 8225 8228 8230 8224 8224 8218 8210 8213 8206 8207 8207 8208 8205 8204 8201 8206 8206 8199 8199 8204 8213 8221 8226 8235 8230 8232 8234 8231 8232 8240 8244 8247 8251 8254 8259 8259 8259 8254 8253 8257 8250 8249 8248 8252 8255 8254 8246 8225 8193 8192 8199 8201 8203 8206 8206 8208 8211 8215 8216 8220 8220 8221 8227 8227 8228 8224 8226 8224 8225 8224 8228 8225 8222 8232 8228 8225 


