P2
80 60
8201
8165 8166 8169 8168 8166 8165 8169 8169 8167 8169 8169 8169 8172 8173 8176 8172 8172 8173 8172 8175 8177 8178 8177 8186 8185 8186 8182 8186 8183 8184 8185 8187 8187 8188 8190 8190 8188 8188 8194 8191 8193 8193 8189 8189 8187 8184 8185 8185 8186 8185 8185 8181 8180 8174 8174 8178 8177 8180 8179 8180 8179 8179 8187 8180 8186 8189 8190 8192 8195 8198 8191 8192 8190 8192 8193 8191 8196 8190 8193 8191 
8158 8166 8168 8168 8171 8168 8168 8166 8168 8166 8170 8168 8173 8175 8173 8172 8175 8172 8173 8174 8177 8178 8176 8182 8186 8185 8185 8185 8185 8186 8184 8187 8188 8187 8187 8190 8188 8190 8191 8193 8193 8194 8190 8189 8185 8186 8182 8183 8187 8185 8184 8183 8177 8176 8174 8177 8176 8176 8178 8179 8180 8181 8182 8184 8183 8186 8192 8191 8195 8194 8193 8189 8192 8191 8193 8193 8196 8190 8192 8190 
8159 8163 8165 8167 8166 8168 8170 8171 8168 8170 8166 8166 8171 8173 8173 8177 8175 8174 8172 8176 8177 8177 8176 8182 8184 8185 8183 8185 8184 8188 8188 8187 8189 8190 8187 8190 8188 8190 8192 8194 8193 8194 8185 8188 8186 8186 8186 8187 8186 8184 8183 8182 8178 8173 8176 8177 8179 8177 8176 8183 8181 8182 8184 8182 8181 8183 8189 8194 8196 8193 8198 8193 8192 8190 8189 8189 8192 8191 8193 8189 
8157 8159 8167 8163 8167 8167 8171 8165 8169 8166 8163 8169 8169 8173 8170 8171 8176 8173 8173 8174 8175 8176 8177 8183 8185 8186 8183 8180 8181 8185 8183 8190 8189 8190 8190 8193 8190 8189 8193 8191 8194 8192 8187 8187 8183 8183 8185 8184 8185 8184 8184 8181 8175 8177 8177 8178 8178 8178 8179 8181 8179 8182 8181 8181 8182 8182 8185 8190 8192 8195 8194 8196 8191 8190 8190 8191 8191 8188 8189 8185 
8158 8162 8166 8164 8168 8168 8168 8167 8169 8167 8166 8166 8166 8168 8169 8168 8172 8172 8173 8172 8173 8175 8176 8182 8182 8185 8179 8181 8178 8184 8182 8188 8189 8190 8190 8191 8190 8190 8190 8190 8192 8193 8185 8187 8181 8182 8181 8183 8181 8183 8182 8178 8180 8179 8177 8177 8180 8178 8178 8182 8181 8180 8181 8182 8182 8182 8187 8188 8188 8192 8189 8193 8192 8189 8189 8188 8188 8186 8190 8188 
8156 8168 8166 8167 8170 8169 8173 8170 8168 8169 8166 8171 8169 8170 8170 8169 8172 8175 8175 8176 8172 8175 8173 8182 8181 8184 8181 8180 8183 8183 8183 8189 8190 8190 8188 8188 8187 8187 8188 8190 8192 8194 8186 8188 8184 8184 8184 8185 8185 8182 8184 8179 8180 8178 8178 8179 8180 8177 8178 8180 8182 8178 8182 8180 8181 8184 8185 8186 8189 8190 8189 8192 8190 8189 8189 8190 8189 8187 8189 8188 
8161 8163 8167 8167 8171 8169 8173 8174 8169 8169 8167 8168 8172 8173 8170 8172 8174 8176 8174 8175 8176 8178 8179 8183 8181 8183 8179 8181 8180 8185 8184 8189 8191 8192 8191 8190 8191 8191 8191 8192 8189 8192 8189 8190 8186 8186 8183 8186 8182 8182 8183 8181 8178 8177 8177 8177 8181 8178 8180 8180 8182 8178 8180 8178 8182 8180 8188 8184 8187 8188 8189 8191 8188 8192 8188 8190 8190 8187 8186 8185 
8159 8168 8166 8167 8169 8169 8177 8169 8168 8168 8168 8168 8169 8172 8171 8172 8171 8174 8173 8175 8177 8177 8176 8182 8183 8185 8181 8180 8179 8184 8181 8185 8190 8191 8188 8189 8190 8188 8192 8190 8191 8195 8190 8187 8184 8185 8185 8185 8182 8181 8183 8181 8175 8176 8177 8179 8179 8178 8177 8181 8179 8178 8178 8175 8180 8180 8184 8184 8186 8186 8184 8187 8189 8190 8188 8188 8190 8186 8186 8187 
8161 8168 8169 8166 8170 8169 8174 8172 8168 8167 8165 8169 8170 8172 8169 8172 8179 8173 8172 8174 8176 8175 8177 8184 8183 8182 8181 8180 8183 8184 8182 8184 8188 8187 8185 8188 8186 8187 8189 8190 8190 8191 8187 8188 8187 8185 8185 8185 8184 8183 8181 8181 8177 8177 8174 8179 8178 8178 8180 8179 8181 8181 8177 8177 8178 8181 8183 8182 8184 8185 8184 8187 8188 8187 8187 8186 8188 8186 8187 8179 
8162 8166 8168 8167 8170 8168 8173 8169 8172 8168 8165 8171 8170 8170 8170 8171 8174 8171 8173 8173 8178 8177 8177 8184 8182 8184 8181 8182 8179 8184 8184 8186 8189 8189 8185 8188 8185 8190 8191 8190 8190 8192 8188 8188 8188 8188 8184 8187 8183 8182 8183 8180 8180 8176 8179 8177 8177 8180 8181 8184 8181 8178 8176 8179 8177 8181 8184 8184 8180 8184 8186 8183 8186 8188 8186 8189 8191 8183 8190 8180 
8159 8166 8169 8168 8170 8166 8170 8168 8168 8167 8168 8167 8170 8168 8169 8173 8173 8171 8172 8174 8174 8176 8177 8182 8182 8185 8181 8179 8184 8185 8182 8183 8184 8188 8184 8186 8187 8185 8192 8190 8189 8192 8187 8189 8186 8185 8186 8184 8185 8185 8185 8180 8179 8176 8177 8175 8177 8177 8178 8183 8180 8178 8176 8180 8180 8179 8181 8182 8183 8182 8183 8184 8184 8181 8183 8188 8191 8187 8188 8184 
8159 8168 8170 8169 8168 8167 8166 8170 8167 8168 8165 8168 8170 8173 8169 8172 8173 8174 8176 8174 8173 8175 8176 8183 8182 8183 8181 8183 8180 8185 8185 8184 8186 8187 8183 8185 8187 8187 8186 8190 8189 8189 8188 8190 8187 8182 8184 8187 8185 8182 8185 8184 8180 8176 8177 8178 8179 8177 8177 8181 8179 8177 8177 8179 8180 8180 8183 8180 8180 8180 8184 8181 8185 8183 8182 8185 8188 8183 8185 8181 
8162 8168 8170 8170 8167 8166 8171 8168 8170 8170 8166 8168 8169 8169 8172 8174 8174 8174 8173 8175 8179 8178 8177 8181 8184 8185 8184 8180 8182 8184 8183 8186 8183 8186 8184 8183 8188 8184 8184 8187 8186 8188 8188 8189 8188 8184 8185 8187 8182 8185 8186 8180 8179 8179 8178 8178 8179 8177 8176 8179 8177 8180 8176 8178 8178 8179 8181 8183 8182 8182 8182 8180 8183 8180 8183 8185 8187 8182 8183 8183 
8161 8169 8169 8169 8170 8170 8172 8171 8172 8173 8172 8173 8170 8172 8172 8173 8176 8175 8175 8176 8177 8176 8175 8182 8181 8186 8181 8179 8181 8183 8183 8185 8185 8186 8182 8186 8188 8186 8184 8187 8189 8189 8185 8184 8186 8182 8184 8185 8185 8182 8182 8181 8180 8178 8177 8177 8180 8176 8179 8182 8179 8175 8176 8180 8179 8180 8182 8185 8179 8180 8180 8179 8182 8183 8183 8184 8183 8182 8184 8179 
8162 8167 8172 8168 8170 8174 8174 8170 8172 8172 8173 8175 8174 8170 8175 8175 8176 8175 8176 8176 8176 8176 8175 8182 8182 8185 8183 8182 8183 8184 8182 8185 8184 8185 8185 8188 8186 8186 8186 8183 8187 8184 8183 8186 8177 8181 8175 8178 8180 8181 8183 8181 8178 8177 8176 8177 8180 8177 8180 8178 8177 8176 8177 8179 8176 8177 8182 8182 8183 8179 8180 8180 8180 8180 8180 8180 8184 8183 8183 8177 
8164 8169 8169 8171 8174 8170 8172 8171 8171 8171 8171 8175 8171 8174 8173 8174 8176 8174 8175 8174 8179 8176 8174 8183 8185 8186 8183 8182 8183 8182 8182 8186 8185 8186 8183 8184 8186 8188 8184 8185 8172 8162 8152 8155 8152 8149 8147 8153 8169 8179 8184 8181 8176 8174 8175 8178 8178 8176 8177 8180 8176 8176 8178 8177 8177 8179 8181 8183 8178 8179 8180 8180 8179 8179 8182 8186 8182 8181 8182 8183 
8166 8165 8170 8170 8170 8171 8173 8173 8171 8168 8171 8175 8172 8177 8174 8172 8180 8176 8175 8175 8177 8175 8174 8183 8184 8185 8180 8182 8183 8182 8181 8185 8185 8183 8185 8188 8188 8182 8183 8185 8170 8156 8157 8156 8145 8152 8161 8169 8173 8178 8180 8180 8178 8176 8173 8179 8178 8175 8178 8180 8177 8177 8178 8178 8178 8179 8180 8181 8179 8180 8180 8180 8182 8181 8181 8184 8183 8180 8182 8183 
8165 8169 8169 8168 8171 8173 8170 8170 8170 8175 8174 8175 8176 8176 8175 8176 8178 8173 8177 8176 8178 8176 8176 8181 8181 8184 8180 8180 8183 8186 8184 8183 8189 8186 8187 8188 8187 8184 8186 8184 8159 8155 8159 8155 8145 8151 8166 8164 8171 8176 8179 8181 8182 8178 8176 8178 8179 8176 8177 8180 8177 8176 8176 8181 8179 8181 8178 8178 8179 8179 8181 8182 8182 8182 8182 8180 8185 8179 8180 8179 
8168 8170 8172 8171 8173 8170 8176 8174 8172 8174 8175 8174 8175 8176 8177 8176 8178 8176 8176 8175 8176 8177 8177 8183 8182 8185 8183 8183 8181 8183 8185 8186 8190 8188 8186 8189 8187 8187 8186 8184 8172 8175 8158 8141 8141 8144 8142 8140 8147 8165 8174 8176 8178 8179 8176 8178 8177 8177 8177 8178 8179 8176 8175 8175 8175 8179 8177 8179 8182 8179 8184 8180 8181 8181 8181 8183 8181 8177 8178 8181 
8165 8169 8171 8170 8171 8168 8173 8173 8175 8176 8175 8179 8177 8179 8174 8174 8175 8173 8174 8176 8176 8176 8176 8184 8185 8183 8182 8183 8181 8185 8184 8187 8190 8189 8190 8189 8183 8185 8183 8169 8154 8151 8150 8140 8141 8154 8140 8138 8138 8140 8159 8165 8170 8176 8173 8178 8177 8177 8178 8180 8175 8176 8177 8181 8175 8180 8178 8180 8178 8181 8176 8180 8178 8180 8180 8181 8181 8180 8181 8176 
8167 8171 8173 8173 8172 8172 8176 8173 8173 8175 8174 8178 8175 8177 8174 8176 8176 8176 8175 8175 8175 8177 8176 8181 8186 8186 8181 8180 8180 8183 8185 8186 8189 8189 8185 8183 8184 8173 8174 8158 8151 8159 8152 8142 8157 8173 8160 8141 8141 8139 8153 8170 8172 8174 8177 8175 8177 8177 8176 8178 8175 8176 8177 8178 8176 8177 8178 8179 8179 8180 8179 8178 8181 8178 8179 8181 8180 8179 8180 8177 
8167 8171 8172 8173 8171 8173 8172 8173 8175 8175 8175 8177 8179 8174 8175 8173 8175 8176 8174 8174 8176 8179 8176 8182 8185 8186 8181 8182 8184 8183 8186 8185 8188 8184 8161 8158 8159 8158 8150 8153 8164 8179 8162 8149 8171 8177 8171 8161 8147 8139 8158 8175 8176 8174 8176 8176 8178 8175 8179 8178 8176 8176 8179 8179 8179 8179 8180 8178 8179 8179 8181 8178 8181 8182 8180 8180 8181 8178 8181 8178 
8165 8172 8175 8173 8173 8173 8173 8170 8170 8174 8175 8177 8178 8176 8177 8176 8179 8174 8175 8174 8178 8181 8177 8184 8186 8185 8182 8183 8183 8185 8183 8183 8183 8181 8155 8166 8176 8162 8152 8149 8158 8175 8158 8153 8179 8178 8179 8177 8166 8146 8163 8174 8177 8177 8177 8175 8178 8179 8176 8177 8176 8178 8176 8178 8178 8179 8180 8178 8180 8179 8178 8180 8183 8180 8179 8178 8180 8175 8180 8177 
8164 8172 8175 8170 8172 8173 8175 8172 8173 8173 8174 8177 8179 8177 8180 8175 8179 8176 8177 8177 8177 8178 8177 8185 8185 8184 8180 8182 8181 8183 8184 8185 8186 8183 8178 8180 8178 8164 8154 8146 8152 8154 8148 8167 8178 8177 8179 8179 8175 8163 8172 8178 8177 8175 8173 8175 8176 8175 8176 8181 8178 8175 8180 8179 8177 8180 8180 8178 8179 8179 8182 8181 8183 8179 8179 8176 8177 8175 8178 8173 
8168 8175 8174 8172 8173 8174 8172 8172 8173 8173 8176 8178 8180 8181 8178 8176 8178 8179 8177 8180 8178 8179 8176 8184 8185 8181 8180 8178 8182 8182 8181 8182 8173 8160 8155 8158 8153 8151 8147 8148 8147 8157 8151 8170 8178 8179 8182 8182 8181 8178 8182 8177 8174 8176 8177 8176 8179 8178 8176 8179 8179 8178 8177 8179 8180 8182 8182 8177 8179 8180 8177 8177 8182 8180 8178 8179 8177 8177 8179 8178 
8166 8173 8173 8171 8175 8175 8177 8176 8174 8174 8174 8177 8178 8180 8180 8178 8178 8179 8177 8176 8178 8176 8179 8186 8180 8182 8180 8180 8181 8181 8176 8159 8155 8148 8149 8149 8159 8151 8149 8148 8144 8147 8154 8164 8157 8169 8178 8180 8180 8180 8178 8181 8177 8175 8176 8177 8179 8177 8178 8181 8179 8177 8179 8177 8180 8182 8180 8180 8181 8179 8181 8179 8181 8178 8177 8177 8178 8175 8176 8175 
8168 8170 8175 8175 8173 8172 8173 8173 8172 8177 8172 8179 8178 8177 8179 8177 8178 8179 8177 8178 8178 8180 8176 8184 8182 8183 8178 8180 8180 8172 8152 8149 8148 8147 8147 8159 8175 8177 8171 8152 8143 8151 8146 8160 8169 8163 8177 8183 8184 8181 8182 8180 8177 8179 8176 8177 8178 8179 8179 8182 8181 8180 8180 8178 8178 8179 8180 8181 8179 8179 8178 8178 8180 8180 8180 8180 8179 8175 8179 8174 
8169 8172 8176 8172 8173 8176 8177 8176 8175 8174 8175 8175 8179 8178 8177 8180 8180 8180 8177 8176 8177 8180 8178 8184 8183 8183 8184 8179 8170 8155 8153 8149 8147 8148 8148 8166 8184 8183 8179 8169 8148 8156 8157 8160 8158 8180 8181 8182 8182 8181 8184 8179 8183 8178 8177 8176 8179 8176 8179 8181 8184 8179 8179 8180 8179 8181 8180 8182 8180 8178 8178 8177 8179 8178 8177 8179 8177 8174 8177 8174 
8170 8171 8176 8174 8174 8173 8176 8174 8174 8173 8176 8178 8177 8178 8178 8178 8179 8178 8174 8174 8176 8178 8177 8177 8170 8170 8181 8181 8168 8173 8151 8147 8149 8150 8162 8175 8183 8183 8184 8183 8158 8147 8172 8183 8176 8177 8179 8181 8184 8179 8185 8180 8181 8179 8175 8178 8176 8177 8177 8181 8179 8178 8180 8178 8179 8179 8182 8183 8180 8179 8178 8177 8179 8179 8178 8177 8176 8174 8178 8175 
8169 8169 8176 8176 8176 8177 8175 8173 8174 8177 8176 8178 8176 8178 8178 8176 8178 8178 8176 8174 8177 8176 8174 8159 8153 8161 8182 8182 8181 8174 8153 8149 8151 8155 8178 8186 8185 8183 8182 8182 8175 8148 8177 8184 8181 8179 8182 8180 8182 8182 8181 8184 8180 8177 8176 8180 8178 8180 8179 8179 8181 8179 8178 8180 8176 8178 8179 8180 8178 8177 8176 8176 8178 8175 8177 8180 8178 8177 8180 8178 
8172 8173 8176 8172 8174 8175 8178 8177 8176 8176 8173 8172 8176 8180 8178 8178 8182 8180 8177 8174 8176 8175 8174 8159 8154 8160 8182 8182 8180 8165 8150 8149 8164 8180 8184 8186 8183 8183 8182 8183 8178 8149 8181 8184 8182 8179 8183 8181 8181 8179 8186 8182 8181 8176 8177 8177 8179 8181 8176 8182 8181 8178 8177 8178 8176 8180 8178 8180 8178 8177 8176 8177 8178 8177 8178 8178 8178 8176 8178 8178 
8172 8176 8176 8175 8175 8173 8177 8176 8175 8177 8176 8178 8176 8177 8178 8176 8179 8177 8177 8174 8176 8178 8174 8159 8153 8158 8181 8182 8180 8158 8147 8158 8183 8187 8183 8182 8168 8158 8169 8167 8156 8154 8182 8185 8183 8180 8180 8183 8184 8183 8184 8180 8178 8178 8179 8178 8176 8177 8175 8181 8180 8177 8176 8181 8177 8177 8180 8180 8179 8177 8175 8175 8177 8178 8177 8181 8183 8177 8181 8180 
8173 8177 8178 8176 8179 8175 8175 8173 8179 8179 8180 8176 8178 8176 8176 8177 8177 8177 8177 8177 8178 8176 8177 8159 8154 8159 8180 8182 8178 8155 8162 8180 8186 8185 8174 8155 8155 8148 8151 8144 8147 8153 8179 8187 8181 8184 8181 8182 8184 8183 8186 8181 8177 8177 8178 8179 8178 8177 8177 8176 8177 8179 8178 8177 8177 8180 8179 8180 8179 8177 8177 8177 8177 8177 8177 8180 8181 8178 8181 8181 
8175 8179 8182 8178 8181 8175 8178 8175 8177 8178 8180 8178 8177 8178 8178 8175 8180 8178 8181 8177 8181 8181 8176 8163 8153 8159 8180 8182 8181 8171 8183 8185 8184 8173 8151 8147 8149 8146 8147 8151 8147 8150 8173 8185 8184 8181 8182 8183 8186 8183 8185 8182 8179 8178 8179 8180 8180 8179 8179 8178 8177 8181 8177 8178 8179 8179 8181 8181 8178 8176 8178 8179 8181 8177 8177 8179 8182 8179 8179 8179 
8176 8178 8180 8179 8179 8179 8180 8178 8177 8177 8178 8180 8178 8177 8179 8177 8184 8178 8183 8181 8180 8181 8177 8162 8153 8155 8180 8183 8186 8183 8183 8185 8165 8147 8143 8147 8150 8145 8146 8154 8153 8150 8175 8185 8185 8183 8183 8181 8184 8182 8186 8182 8180 8179 8174 8178 8178 8177 8178 8178 8181 8177 8178 8175 8176 8177 8178 8179 8178 8176 8179 8178 8179 8179 8176 8176 8182 8178 8183 8178 
8180 8182 8188 8179 8179 8180 8180 8178 8178 8177 8176 8178 8183 8180 8179 8179 8184 8180 8183 8180 8181 8180 8175 8164 8150 8154 8179 8184 8183 8176 8172 8162 8150 8144 8143 8144 8148 8146 8147 8152 8157 8153 8177 8185 8181 8178 8181 8185 8184 8182 8184 8181 8180 8179 8179 8176 8182 8177 8178 8180 8178 8178 8176 8176 8177 8178 8177 8179 8175 8176 8179 8178 8180 8178 8180 8180 8181 8178 8182 8176 
8177 8179 8185 8181 8179 8176 8180 8180 8180 8176 8178 8179 8181 8178 8180 8178 8178 8179 8181 8179 8178 8179 8176 8164 8153 8155 8179 8181 8169 8153 8151 8151 8155 8143 8142 8143 8154 8151 8146 8147 8158 8156 8182 8184 8177 8160 8163 8172 8177 8179 8182 8181 8177 8179 8177 8179 8179 8177 8181 8181 8178 8175 8178 8177 8178 8176 8176 8178 8177 8178 8176 8177 8178 8182 8179 8177 8179 8175 8180 8177 
8177 8181 8183 8180 8180 8179 8186 8182 8180 8180 8179 8177 8181 8178 8176 8176 8179 8179 8181 8180 8180 8179 8178 8168 8150 8158 8175 8172 8169 8176 8174 8178 8169 8148 8141 8148 8148 8145 8148 8151 8165 8155 8180 8184 8179 8156 8147 8148 8150 8155 8164 8171 8177 8177 8179 8180 8178 8186 8180 8181 8178 8177 8176 8178 8179 8178 8178 8180 8177 8174 8175 8178 8178 8178 8178 8178 8183 8177 8177 8175 
8177 8183 8184 8184 8184 8181 8186 8179 8180 8179 8178 8181 8180 8178 8181 8179 8179 8178 8177 8178 8179 8181 8178 8171 8153 8159 8170 8179 8183 8177 8165 8161 8159 8147 8141 8149 8150 8147 8150 8157 8168 8150 8174 8166 8161 8160 8147 8146 8146 8147 8146 8147 8151 8166 8180 8182 8179 8183 8182 8181 8182 8178 8176 8176 8177 8177 8179 8175 8176 8175 8180 8177 8178 8177 8179 8180 8182 8176 8181 8179 
8176 8181 8181 8182 8183 8180 8185 8180 8178 8177 8178 8181 8179 8177 8180 8178 8181 8180 8179 8179 8178 8178 8179 8168 8156 8155 8178 8184 8186 8177 8172 8172 8165 8147 8140 8149 8150 8145 8145 8150 8157 8144 8163 8181 8183 8170 8149 8149 8153 8151 8150 8145 8143 8147 8168 8181 8182 8184 8176 8183 8180 8179 8177 8179 8178 8177 8178 8178 8178 8178 8178 8178 8180 8179 8177 8181 8184 8176 8181 8181 
8176 8180 8183 8179 8182 8181 8182 8177 8177 8177 8179 8180 8182 8181 8176 8178 8179 8181 8178 8178 8179 8178 8177 8171 8154 8154 8177 8183 8183 8182 8180 8174 8153 8151 8153 8149 8147 8143 8144 8148 8146 8148 8176 8189 8186 8183 8182 8166 8164 8172 8152 8146 8144 8148 8159 8172 8179 8179 8178 8181 8179 8180 8179 8177 8177 8178 8180 8174 8177 8176 8176 8177 8179 8177 8180 8178 8184 8180 8180 8180 
8176 8180 8181 8175 8178 8176 8180 8178 8179 8178 8180 8179 8178 8183 8179 8178 8182 8181 8178 8179 8179 8179 8177 8169 8155 8154 8173 8184 8181 8184 8180 8173 8157 8151 8149 8144 8144 8142 8145 8144 8144 8149 8173 8190 8186 8186 8184 8183 8180 8179 8171 8166 8153 8163 8174 8164 8172 8178 8180 8180 8181 8177 8179 8180 8176 8178 8178 8175 8175 8175 8176 8178 8179 8178 8181 8179 8182 8176 8180 8174 
8176 8179 8182 8177 8179 8176 8180 8176 8178 8177 8176 8181 8181 8179 8179 8178 8182 8181 8177 8183 8182 8179 8177 8171 8156 8150 8173 8182 8184 8184 8184 8182 8179 8159 8145 8146 8151 8160 8151 8143 8143 8151 8181 8192 8187 8185 8188 8187 8185 8184 8184 8179 8179 8177 8179 8177 8165 8170 8177 8183 8180 8179 8180 8178 8178 8177 8178 8177 8177 8177 8179 8180 8179 8177 8179 8182 8180 8177 8178 8178 
8173 8179 8180 8174 8178 8177 8179 8177 8177 8179 8179 8182 8181 8181 8182 8182 8181 8182 8183 8184 8176 8178 8179 8173 8152 8152 8173 8184 8182 8185 8185 8182 8181 8169 8150 8151 8146 8152 8166 8149 8150 8159 8179 8170 8180 8186 8187 8187 8187 8183 8185 8183 8180 8181 8180 8180 8178 8169 8180 8182 8179 8179 8178 8179 8177 8179 8178 8177 8176 8176 8178 8180 8180 8180 8180 8179 8183 8178 8178 8177 
8175 8179 8182 8178 8176 8173 8181 8180 8179 8179 8182 8181 8178 8182 8180 8182 8183 8185 8180 8181 8177 8180 8177 8177 8154 8153 8168 8176 8173 8171 8164 8166 8160 8149 8145 8153 8146 8153 8153 8144 8148 8150 8165 8162 8158 8172 8187 8186 8184 8185 8184 8182 8183 8179 8181 8183 8183 8174 8179 8183 8179 8179 8179 8179 8176 8179 8176 8175 8177 8176 8176 8179 8179 8179 8177 8179 8180 8175 8182 8178 
8180 8182 8183 8181 8180 8174 8181 8178 8179 8179 8182 8183 8179 8180 8182 8181 8186 8182 8180 8181 8179 8180 8180 8176 8153 8152 8157 8154 8147 8150 8156 8158 8149 8148 8155 8154 8143 8158 8147 8146 8145 8148 8153 8161 8153 8156 8196 8190 8171 8172 8174 8178 8180 8180 8182 8181 8183 8177 8179 8182 8182 8177 8179 8177 8176 8178 8177 8179 8176 8177 8176 8180 8179 8179 8179 8180 8181 8182 8184 8179 
8176 8182 8182 8181 8176 8179 8181 8179 8178 8180 8182 8181 8180 8181 8184 8183 8183 8180 8181 8180 8181 8181 8176 8175 8151 8151 8147 8148 8150 8152 8154 8153 8152 8148 8155 8146 8145 8143 8145 8143 8146 8149 8149 8177 8175 8152 8154 8160 8155 8155 8155 8154 8158 8172 8179 8182 8181 8178 8179 8181 8179 8179 8178 8176 8175 8176 8171 8178 8178 8181 8178 8179 8178 8181 8182 8180 8184 8181 8180 8181 
8174 8182 8184 8182 8181 8180 8182 8180 8183 8182 8184 8182 8182 8183 8184 8182 8182 8182 8183 8177 8174 8170 8162 8160 8150 8148 8145 8148 8150 8153 8155 8152 8153 8151 8152 8146 8143 8141 8145 8144 8144 8143 8147 8148 8148 8146 8146 8146 8153 8150 8151 8150 8149 8168 8178 8181 8180 8179 8183 8180 8180 8179 8180 8174 8174 8176 8176 8179 8178 8178 8183 8182 8181 8181 8182 8179 8182 8178 8180 8179 
8174 8180 8182 8179 8181 8180 8182 8182 8182 8184 8182 8184 8183 8183 8183 8185 8186 8183 8178 8169 8158 8154 8146 8153 8149 8152 8148 8149 8151 8152 8155 8152 8155 8153 8147 8148 8150 8144 8142 8143 8146 8149 8145 8148 8146 8145 8145 8141 8143 8144 8150 8146 8155 8172 8181 8181 8179 8178 8178 8180 8180 8177 8177 8177 8173 8176 8176 8177 8177 8179 8179 8182 8183 8182 8183 8181 8181 8173 8179 8175 
8176 8181 8182 8183 8181 8181 8184 8181 8180 8178 8181 8183 8186 8184 8182 8183 8184 8183 8178 8166 8165 8147 8146 8154 8147 8149 8147 8149 8152 8150 8153 8153 8158 8153 8151 8150 8149 8142 8143 8144 8145 8147 8142 8143 8144 8143 8144 8147 8147 8148 8144 8147 8153 8173 8179 8176 8180 8177 8178 8182 8179 8179 8177 8174 8177 8175 8175 8175 8175 8180 8180 8183 8182 8181 8180 8181 8181 8175 8177 8174 
8177 8185 8183 8182 8180 8183 8186 8181 8184 8183 8185 8183 8185 8187 8186 8184 8185 8183 8185 8177 8170 8155 8150 8152 8153 8152 8150 8150 8151 8151 8150 8150 8151 8153 8146 8146 8145 8144 8145 8146 8146 8148 8149 8155 8152 8151 8149 8150 8147 8147 8149 8150 8158 8175 8177 8179 8180 8178 8180 8179 8181 8178 8178 8176 8174 8176 8175 8178 8179 8181 8182 8182 8182 8184 8184 8182 8181 8178 8175 8171 
8177 8183 8183 8179 8184 8182 8187 8180 8181 8181 8184 8182 8185 8186 8185 8185 8185 8181 8181 8170 8158 8154 8152 8156 8156 8156 8153 8152 8154 8155 8151 8154 8153 8156 8151 8152 8151 8151 8150 8152 8154 8155 8155 8152 8153 8147 8149 8150 8149 8146 8152 8151 8159 8177 8180 8180 8180 8180 8181 8181 8179 8176 8175 8177 8174 8177 8178 8176 8182 8178 8180 8180 8181 8182 8181 8181 8180 8176 8175 8180 
8176 8183 8183 8182 8183 8185 8184 8184 8185 8182 8187 8185 8184 8184 8183 8184 8185 8180 8179 8177 8161 8154 8152 8161 8157 8157 8153 8155 8152 8151 8154 8155 8156 8156 8153 8154 8154 8152 8154 8153 8157 8154 8152 8153 8151 8149 8150 8152 8148 8145 8150 8159 8176 8183 8181 8179 8182 8181 8177 8183 8181 8179 8174 8178 8177 8173 8177 8179 8178 8180 8182 8180 8183 8183 8182 8180 8180 8177 8178 8175 
8179 8185 8187 8184 8183 8180 8184 8181 8182 8183 8185 8186 8187 8187 8187 8184 8185 8182 8179 8186 8176 8165 8161 8162 8154 8155 8151 8154 8152 8151 8152 8152 8155 8154 8152 8151 8154 8152 8152 8152 8158 8155 8154 8149 8146 8145 8145 8147 8151 8148 8151 8167 8183 8181 8178 8179 8180 8182 8175 8178 8178 8176 8177 8175 8175 8174 8176 8180 8179 8180 8182 8182 8179 8179 8176 8179 8177 8175 8175 8175 
8180 8187 8185 8186 8181 8184 8183 8182 8182 8183 8184 8187 8184 8185 8184 8183 8185 8180 8181 8182 8185 8184 8178 8167 8158 8158 8152 8151 8149 8152 8154 8152 8155 8156 8154 8153 8153 8152 8149 8153 8159 8153 8153 8148 8145 8142 8148 8143 8148 8146 8152 8172 8181 8185 8180 8179 8182 8178 8177 8181 8178 8175 8177 8176 8176 8176 8178 8179 8180 8179 8183 8181 8183 8181 8180 8177 8178 8171 8178 8177 
8180 8186 8184 8181 8187 8181 8183 8181 8178 8182 8184 8186 8182 8182 8181 8181 8183 8183 8178 8181 8182 8187 8201 8189 8165 8155 8145 8146 8147 8153 8151 8151 8152 8152 8150 8150 8150 8148 8145 8149 8150 8153 8148 8150 8148 8146 8147 8147 8149 8149 8154 8170 8181 8183 8182 8178 8179 8180 8179 8180 8179 8175 8175 8175 8177 8175 8177 8180 8177 8179 8181 8181 8182 8178 8180 8176 8174 8173 8178 8171 
8180 8183 8184 8178 8179 8180 8180 8181 8180 8179 8182 8185 8182 8182 8182 8181 8179 8182 8177 8180 8180 8176 8197 8198 8166 8151 8148 8141 8147 8145 8146 8148 8152 8148 8147 8147 8147 8147 8147 8145 8150 8152 8146 8150 8149 8148 8150 8145 8150 8150 8152 8173 8184 8180 8178 8177 8178 8178 8180 8181 8177 8176 8173 8174 8176 8173 8180 8182 8179 8183 8181 8181 8184 8179 8178 8176 8176 8173 8177 8177 
8178 8184 8183 8180 8177 8179 8177 8174 8175 8177 8180 8182 8180 8178 8180 8180 8177 8180 8178 8178 8179 8168 8161 8165 8161 8150 8144 8144 8147 8147 8147 8147 8148 8149 8146 8149 8146 8144 8148 8147 8147 8152 8149 8149 8147 8146 8146 8148 8148 8147 8154 8174 8178 8180 8178 8178 8177 8178 8178 8179 8180 8175 8173 8176 8175 8178 8178 8179 8184 8183 8183 8181 8180 8181 8176 8174 8171 8171 8176 8178 
8176 8179 8176 8173 8177 8172 8175 8173 8177 8175 8174 8180 8180 8177 8180 8177 8178 8179 8177 8178 8179 8169 8147 8155 8154 8151 8146 8145 8147 8147 8146 8148 8148 8148 8148 8145 8145 8145 8145 8148 8150 8152 8149 8150 8147 8147 8145 8150 8154 8151 8155 8177 8179 8181 8182 8180 8178 8179 8180 8182 8177 8177 8174 8177 8183 8181 8180 8184 8183 8184 8180 8182 8181 8180 8177 8179 8175 8173 8180 8177 
8175 8172 8172 8167 8166 8167 8167 8166 8162 8164 8162 8162 8156 8165 8167 8168 8174 8175 8177 8175 8176 8173 8149 8151 8149 8153 8144 8145 8142 8144 8144 8148 8146 8147 8146 8148 8146 8146 8147 8147 8152 8156 8156 8154 8147 8148 8154 8155 8157 8154 8156 8176 8177 8186 8184 8184 8187 8186 8183 8184 8185 8183 8179 8182 8184 8186 8185 8188 8183 8186 8184 8178 8182 8176 8178 8176 8176 8176 8179 8178 


