P2
80 60
8329
8140 8142 8139 8144 8150 8156 8157 8189 8214 8222 8221 8219 8212 8205 8200 8200 8191 8189 8181 8185 8187 8198 8200 8208 8220 8231 8232 8233 8239 8236 8241 8241 8247 8249 8248 8251 8253 8253 8250 8243 8232 8212 8208 8200 8201 8202 8204 8210 8208 8202 8192 8185 8183 8178 8176 8174 8173 8179 8184 8186 8212 8237 8246 8249 8255 8259 8263 8264 8268 8269 8277 8278 8280 8285 8287 8287 8291 8297 8298 8296 
8139 8141 8139 8146 8146 8156 8178 8209 8221 8227 8222 8219 8207 8193 8187 8186 8180 8179 8177 8174 8179 8183 8189 8193 8212 8221 8229 8233 8237 8237 8239 8241 8244 8249 8249 8251 8254 8252 8249 8246 8225 8209 8208 8201 8197 8204 8209 8210 8203 8188 8177 8177 8177 8172 8176 8172 8167 8172 8181 8185 8215 8237 8244 8249 8254 8260 8264 8263 8267 8273 8274 8279 8280 8281 8284 8289 8291 8296 8292 8298 
8138 8147 8146 8151 8157 8178 8204 8216 8226 8227 8225 8208 8191 8181 8177 8173 8170 8172 8171 8171 8174 8176 8180 8188 8207 8210 8216 8224 8226 8227 8234 8235 8241 8244 8243 8253 8254 8249 8246 8240 8218 8204 8197 8191 8186 8195 8198 8190 8175 8167 8162 8161 8160 8161 8162 8162 8163 8167 8176 8181 8214 8239 8245 8250 8259 8261 8264 8262 8269 8273 8276 8274 8281 8280 8284 8285 8291 8294 8292 8295 
8148 8153 8152 8156 8168 8195 8220 8228 8229 8223 8215 8194 8179 8175 8172 8168 8168 8169 8170 8170 8170 8173 8180 8186 8200 8203 8211 8218 8223 8226 8234 8231 8240 8240 8238 8239 8241 8241 8239 8223 8211 8196 8189 8187 8186 8187 8188 8177 8167 8165 8161 8159 8157 8158 8157 8156 8161 8166 8171 8186 8223 8240 8244 8250 8253 8261 8263 8263 8268 8268 8272 8274 8275 8277 8282 8282 8288 8291 8289 8288 
8154 8158 8159 8163 8180 8217 8234 8238 8232 8213 8199 8185 8178 8172 8171 8169 8166 8167 8170 8170 8175 8178 8184 8191 8207 8213 8217 8223 8223 8226 8231 8230 8236 8239 8238 8236 8241 8238 8228 8219 8206 8194 8190 8186 8188 8191 8186 8171 8171 8168 8165 8163 8159 8158 8158 8157 8152 8159 8167 8186 8222 8240 8245 8249 8253 8257 8258 8261 8261 8269 8267 8269 8269 8271 8277 8276 8285 8289 8287 8288 
8161 8161 8160 8176 8209 8235 8234 8240 8232 8208 8189 8180 8177 8173 8173 8172 8166 8169 8171 8171 8181 8185 8192 8203 8223 8229 8222 8228 8229 8226 8229 8229 8239 8240 8238 8240 8239 8236 8227 8215 8204 8191 8190 8188 8187 8197 8192 8181 8172 8168 8164 8159 8157 8154 8156 8151 8151 8155 8156 8182 8221 8237 8244 8249 8254 8255 8257 8256 8260 8261 8261 8262 8266 8266 8271 8270 8277 8283 8280 8288 
8166 8165 8170 8195 8228 8242 8242 8239 8230 8211 8202 8191 8182 8181 8179 8181 8176 8177 8177 8185 8199 8203 8208 8218 8234 8237 8236 8230 8234 8231 8231 8228 8241 8240 8239 8239 8238 8242 8231 8214 8203 8195 8198 8198 8204 8204 8191 8175 8173 8168 8159 8154 8156 8152 8153 8153 8153 8156 8156 8186 8224 8237 8247 8250 8255 8256 8257 8258 8259 8259 8258 8257 8259 8261 8265 8267 8274 8279 8276 8283 
8170 8168 8183 8221 8243 8246 8244 8237 8236 8235 8227 8220 8220 8220 8218 8212 8210 8209 8216 8219 8226 8227 8226 8237 8251 8249 8248 8242 8238 8243 8240 8239 8238 8246 8245 8241 8265 8252 8238 8223 8213 8207 8205 8203 8208 8206 8188 8179 8174 8163 8158 8157 8154 8153 8150 8154 8151 8158 8167 8197 8229 8239 8248 8247 8253 8256 8258 8255 8260 8259 8258 8258 8260 8260 8258 8262 8268 8273 8272 8279 
8172 8176 8207 8245 8251 8253 8241 8240 8237 8240 8240 8238 8241 8240 8237 8240 8241 8239 8242 8245 8246 8252 8248 8248 8261 8262 8270 8272 8277 8277 8280 8279 8281 8283 8280 8280 8279 8272 8262 8250 8239 8233 8228 8223 8221 8212 8199 8194 8184 8176 8172 8168 8165 8166 8168 8167 8169 8167 8180 8210 8236 8241 8249 8253 8261 8259 8260 8259 8258 8260 8259 8259 8260 8260 8260 8261 8267 8272 8269 8273 
8174 8195 8239 8259 8266 8259 8243 8240 8239 8239 8242 8242 8242 8243 8243 8245 8243 8243 8244 8245 8252 8254 8251 8253 8265 8272 8280 8286 8290 8295 8294 8298 8299 8303 8298 8295 8289 8280 8273 8272 8268 8259 8260 8256 8249 8240 8237 8251 8250 8247 8242 8238 8231 8227 8224 8219 8223 8225 8232 8243 8255 8259 8259 8260 8261 8264 8264 8261 8260 8258 8259 8259 8260 8259 8263 8258 8265 8268 8266 8270 
8182 8216 8254 8277 8279 8266 8245 8240 8242 8242 8241 8244 8248 8246 8246 8244 8247 8249 8251 8253 8257 8259 8257 8257 8266 8270 8279 8284 8291 8293 8297 8301 8302 8302 8298 8294 8287 8281 8271 8276 8271 8267 8265 8258 8254 8249 8252 8269 8271 8273 8275 8278 8274 8272 8274 8268 8262 8258 8256 8258 8260 8264 8266 8264 8269 8268 8267 8266 8264 8265 8264 8260 8261 8262 8261 8257 8263 8268 8265 8268 
8207 8252 8266 8282 8288 8269 8244 8244 8242 8243 8243 8244 8249 8249 8247 8247 8252 8256 8259 8260 8263 8268 8264 8265 8268 8250 8252 8263 8273 8295 8300 8304 8304 8303 8298 8297 8286 8279 8274 8276 8275 8269 8268 8258 8256 8253 8258 8271 8276 8279 8279 8280 8282 8283 8283 8281 8275 8267 8265 8263 8266 8264 8267 8268 8269 8271 8271 8271 8273 8272 8271 8268 8265 8265 8266 8261 8259 8268 8262 8268 
8253 8276 8282 8293 8289 8263 8250 8245 8247 8245 8247 8248 8249 8250 8250 8253 8258 8262 8264 8270 8270 8273 8274 8274 8251 8223 8226 8251 8261 8294 8302 8304 8304 8301 8296 8287 8282 8277 8266 8260 8269 8267 8265 8258 8256 8256 8261 8274 8280 8285 8286 8285 8286 8287 8288 8287 8277 8275 8268 8267 8267 8270 8270 8268 8267 8271 8273 8271 8272 8273 8272 8269 8270 8270 8269 8266 8265 8265 8268 8265 
8276 8294 8292 8293 8290 8259 8249 8245 8245 8249 8247 8249 8248 8250 8254 8257 8261 8266 8270 8271 8276 8280 8276 8277 8278 8255 8233 8252 8257 8293 8301 8298 8290 8285 8265 8239 8251 8256 8231 8225 8241 8257 8263 8244 8235 8246 8262 8276 8285 8286 8288 8289 8289 8290 8291 8289 8283 8277 8271 8272 8269 8268 8269 8269 8270 8271 8273 8270 8272 8274 8271 8271 8274 8273 8272 8269 8266 8271 8269 8267 
8288 8296 8298 8294 8272 8258 8249 8249 8249 8247 8247 8247 8252 8249 8253 8260 8264 8268 8269 8270 8277 8281 8278 8277 8285 8291 8289 8290 8264 8290 8298 8264 8224 8216 8199 8202 8210 8211 8214 8221 8225 8228 8226 8198 8201 8210 8257 8276 8282 8286 8287 8290 8291 8295 8298 8295 8286 8277 8272 8269 8272 8267 8270 8269 8269 8271 8271 8269 8274 8275 8275 8276 8271 8275 8275 8271 8269 8268 8263 8269 
8294 8298 8292 8293 8259 8253 8250 8247 8248 8249 8249 8249 8251 8255 8257 8263 8267 8269 8270 8271 8282 8283 8280 8280 8288 8292 8295 8296 8293 8282 8293 8243 8210 8202 8195 8201 8204 8205 8217 8232 8252 8259 8252 8226 8236 8251 8266 8278 8284 8287 8289 8289 8293 8297 8296 8299 8293 8284 8276 8272 8271 8272 8269 8268 8271 8272 8273 8271 8272 8275 8275 8271 8274 8273 8274 8271 8270 8271 8264 8261 
8295 8294 8294 8278 8252 8251 8248 8245 8248 8249 8250 8252 8253 8254 8259 8265 8267 8267 8270 8273 8282 8283 8280 8281 8291 8291 8294 8294 8300 8286 8273 8244 8202 8204 8197 8196 8198 8217 8242 8267 8264 8266 8271 8262 8264 8262 8267 8279 8282 8289 8290 8290 8293 8297 8299 8299 8294 8284 8276 8274 8274 8271 8273 8270 8272 8272 8273 8274 8273 8275 8275 8277 8274 8272 8273 8270 8266 8270 8266 8265 
8295 8298 8293 8262 8255 8249 8245 8246 8248 8247 8250 8248 8250 8254 8258 8266 8265 8264 8267 8271 8277 8279 8277 8281 8285 8289 8289 8293 8292 8289 8240 8184 8187 8203 8208 8186 8183 8192 8253 8261 8267 8266 8269 8262 8262 8262 8268 8277 8283 8287 8292 8294 8297 8297 8299 8298 8294 8286 8278 8275 8273 8272 8274 8270 8273 8276 8277 8274 8277 8277 8275 8276 8274 8275 8274 8271 8266 8270 8265 8265 
8293 8301 8282 8256 8250 8246 8245 8243 8246 8249 8247 8249 8249 8252 8256 8257 8255 8257 8259 8262 8267 8268 8273 8272 8276 8262 8239 8279 8285 8276 8216 8185 8203 8215 8208 8187 8179 8184 8199 8217 8245 8261 8261 8259 8262 8265 8266 8276 8285 8287 8287 8292 8294 8295 8297 8294 8292 8283 8277 8277 8275 8274 8272 8274 8277 8280 8278 8276 8275 8279 8279 8277 8276 8274 8276 8269 8272 8270 8264 8269 
8296 8298 8269 8252 8246 8248 8244 8243 8250 8251 8253 8248 8251 8250 8251 8254 8253 8254 8257 8256 8259 8267 8266 8265 8248 8217 8215 8235 8227 8206 8187 8179 8196 8218 8203 8194 8186 8186 8167 8175 8195 8208 8211 8228 8257 8260 8265 8276 8281 8282 8288 8292 8292 8293 8293 8291 8285 8279 8275 8274 8275 8275 8274 8276 8278 8279 8277 8277 8278 8276 8277 8277 8277 8275 8274 8273 8269 8268 8265 8268 
8297 8300 8263 8254 8250 8251 8248 8253 8256 8260 8258 8258 8257 8255 8256 8256 8257 8264 8261 8260 8262 8265 8265 8257 8251 8254 8263 8250 8211 8196 8185 8181 8192 8198 8196 8197 8184 8183 8177 8174 8193 8190 8201 8200 8240 8261 8264 8273 8275 8279 8285 8284 8285 8284 8287 8284 8280 8275 8275 8274 8274 8273 8274 8274 8276 8278 8275 8274 8277 8276 8274 8273 8276 8274 8272 8271 8270 8268 8265 8267 
8299 8299 8261 8261 8255 8254 8254 8260 8267 8264 8264 8264 8263 8262 8260 8257 8264 8266 8266 8262 8265 8270 8271 8271 8275 8276 8274 8261 8222 8194 8194 8190 8190 8192 8189 8186 8171 8182 8205 8199 8193 8184 8188 8202 8213 8259 8260 8268 8270 8274 8275 8278 8279 8281 8279 8278 8278 8276 8274 8273 8276 8275 8277 8277 8277 8277 8275 8274 8274 8275 8272 8273 8272 8270 8272 8269 8269 8265 8262 8263 
8312 8281 8262 8257 8256 8259 8258 8265 8265 8266 8267 8266 8265 8263 8261 8265 8269 8270 8269 8266 8268 8271 8270 8274 8276 8269 8250 8234 8216 8192 8187 8187 8184 8181 8175 8177 8163 8184 8213 8230 8211 8192 8192 8229 8251 8261 8265 8267 8271 8274 8273 8279 8279 8280 8281 8278 8279 8278 8281 8280 8281 8282 8285 8280 8284 8282 8281 8277 8279 8277 8277 8279 8277 8275 8278 8274 8274 8265 8260 8259 
8310 8272 8264 8259 8257 8259 8263 8264 8265 8266 8267 8265 8268 8266 8266 8268 8270 8271 8270 8273 8275 8273 8277 8277 8265 8237 8218 8211 8212 8197 8203 8194 8192 8176 8162 8181 8188 8210 8213 8221 8241 8239 8226 8230 8259 8263 8264 8268 8270 8273 8278 8280 8282 8280 8281 8283 8285 8287 8285 8288 8285 8293 8292 8289 8292 8289 8288 8286 8288 8286 8290 8285 8288 8285 8282 8280 8278 8264 8258 8261 
8295 8268 8262 8257 8257 8262 8262 8264 8269 8270 8267 8269 8269 8267 8267 8269 8273 8272 8272 8276 8278 8279 8276 8274 8266 8230 8203 8207 8207 8208 8185 8178 8178 8173 8157 8170 8197 8204 8215 8223 8225 8242 8259 8264 8264 8265 8265 8267 8268 8275 8276 8281 8281 8282 8285 8286 8290 8291 8293 8294 8296 8298 8297 8296 8297 8296 8298 8293 8295 8297 8296 8296 8296 8292 8288 8283 8282 8267 8260 8261 
8275 8266 8262 8259 8259 8266 8265 8264 8269 8268 8268 8268 8269 8269 8273 8275 8274 8277 8281 8278 8276 8279 8272 8275 8266 8234 8210 8201 8199 8203 8190 8186 8186 8178 8164 8168 8181 8190 8198 8198 8189 8210 8253 8268 8265 8266 8267 8273 8272 8273 8281 8283 8284 8282 8285 8289 8293 8292 8297 8301 8303 8302 8302 8301 8302 8301 8299 8294 8297 8298 8299 8297 8296 8294 8288 8284 8283 8270 8261 8268 
8267 8265 8259 8261 8264 8268 8264 8268 8268 8270 8268 8273 8273 8275 8278 8281 8281 8281 8281 8281 8275 8242 8212 8205 8212 8218 8204 8205 8210 8203 8190 8181 8183 8184 8182 8183 8178 8193 8192 8178 8178 8196 8260 8280 8267 8265 8265 8272 8276 8280 8281 8285 8283 8285 8288 8292 8293 8296 8297 8301 8304 8303 8304 8301 8300 8302 8299 8298 8296 8295 8297 8297 8294 8295 8293 8286 8285 8277 8267 8266 
8261 8264 8261 8264 8269 8270 8266 8269 8271 8271 8272 8275 8276 8280 8281 8279 8280 8279 8283 8276 8250 8203 8195 8195 8199 8208 8218 8207 8202 8195 8189 8184 8188 8185 8186 8176 8183 8194 8196 8189 8189 8207 8268 8283 8269 8265 8268 8272 8277 8280 8286 8285 8286 8287 8284 8289 8292 8296 8298 8301 8307 8302 8301 8305 8301 8298 8299 8295 8296 8296 8295 8297 8296 8296 8294 8288 8288 8285 8268 8277 
8261 8263 8261 8265 8272 8271 8268 8268 8271 8274 8275 8277 8283 8280 8280 8284 8279 8280 8280 8274 8224 8197 8195 8201 8207 8222 8220 8219 8205 8192 8187 8184 8189 8184 8173 8174 8185 8193 8197 8216 8217 8225 8259 8289 8272 8270 8270 8276 8280 8284 8286 8289 8288 8291 8290 8291 8293 8295 8298 8301 8302 8301 8306 8301 8301 8300 8296 8294 8295 8295 8295 8298 8295 8298 8296 8290 8290 8289 8279 8286 
8261 8263 8263 8271 8270 8273 8271 8273 8272 8273 8277 8277 8279 8281 8279 8280 8280 8280 8281 8261 8210 8198 8199 8205 8216 8214 8244 8264 8224 8186 8184 8183 8180 8175 8175 8175 8185 8190 8196 8210 8215 8227 8257 8291 8273 8275 8274 8278 8285 8285 8289 8288 8290 8288 8292 8290 8292 8294 8294 8295 8298 8297 8300 8297 8295 8293 8293 8293 8294 8297 8298 8297 8297 8298 8295 8290 8291 8297 8295 8303 
8263 8265 8267 8270 8275 8277 8272 8272 8272 8274 8278 8278 8278 8280 8279 8280 8277 8282 8279 8246 8204 8201 8203 8213 8214 8210 8257 8266 8212 8181 8190 8190 8181 8176 8173 8180 8188 8188 8199 8205 8213 8228 8255 8289 8274 8277 8279 8282 8283 8285 8287 8285 8291 8290 8291 8294 8290 8293 8294 8294 8299 8297 8297 8294 8293 8291 8290 8293 8294 8295 8295 8295 8298 8296 8294 8291 8294 8297 8307 8315 
8265 8274 8273 8273 8275 8277 8277 8274 8273 8274 8276 8278 8280 8280 8280 8278 8279 8278 8280 8265 8211 8207 8209 8207 8215 8209 8254 8245 8201 8204 8202 8191 8182 8183 8180 8190 8187 8177 8195 8219 8219 8230 8271 8284 8273 8277 8276 8280 8284 8283 8286 8289 8291 8288 8289 8290 8293 8294 8293 8296 8296 8295 8295 8291 8291 8292 8295 8291 8294 8293 8295 8294 8295 8296 8295 8291 8297 8300 8308 8325 
8265 8271 8275 8280 8279 8278 8273 8273 8272 8271 8272 8273 8276 8274 8273 8276 8273 8273 8275 8264 8213 8217 8210 8206 8214 8217 8234 8216 8210 8204 8187 8197 8183 8178 8187 8187 8181 8183 8198 8222 8237 8240 8278 8262 8266 8275 8276 8281 8282 8288 8284 8290 8288 8290 8287 8291 8290 8290 8293 8293 8293 8292 8290 8290 8288 8288 8290 8291 8289 8293 8292 8294 8295 8295 8295 8294 8295 8301 8305 8329 
8271 8278 8277 8280 8279 8280 8278 8272 8270 8271 8271 8274 8272 8273 8273 8272 8268 8270 8271 8253 8217 8218 8212 8210 8216 8218 8232 8224 8216 8203 8193 8199 8193 8180 8177 8177 8187 8194 8205 8234 8247 8247 8268 8254 8264 8272 8275 8279 8283 8283 8285 8285 8288 8287 8286 8287 8289 8289 8289 8289 8290 8289 8289 8284 8284 8291 8288 8288 8290 8292 8293 8295 8294 8296 8295 8291 8290 8296 8304 8324 
8273 8279 8281 8281 8280 8281 8279 8273 8272 8272 8271 8274 8276 8274 8272 8270 8269 8271 8271 8245 8215 8217 8213 8216 8212 8234 8231 8216 8215 8208 8202 8206 8201 8193 8181 8182 8206 8210 8230 8252 8257 8275 8260 8249 8266 8272 8273 8281 8281 8282 8286 8286 8287 8285 8285 8289 8289 8288 8288 8289 8288 8289 8288 8285 8286 8285 8288 8286 8287 8288 8294 8294 8293 8295 8292 8288 8292 8299 8305 8308 
8277 8285 8283 8284 8283 8282 8279 8276 8278 8271 8273 8274 8273 8276 8273 8273 8271 8272 8270 8248 8215 8219 8213 8215 8240 8246 8233 8210 8219 8222 8214 8212 8205 8199 8190 8200 8217 8230 8243 8261 8281 8274 8257 8251 8268 8273 8276 8280 8284 8286 8284 8285 8288 8286 8286 8289 8287 8291 8286 8286 8289 8289 8288 8285 8285 8285 8286 8284 8286 8289 8292 8292 8293 8293 8292 8287 8292 8297 8301 8305 
8280 8288 8286 8286 8285 8283 8277 8275 8278 8276 8276 8276 8278 8273 8273 8272 8271 8275 8275 8269 8257 8267 8260 8257 8261 8250 8246 8235 8237 8241 8231 8204 8212 8215 8196 8208 8237 8250 8265 8283 8270 8264 8257 8252 8269 8273 8278 8284 8287 8285 8286 8286 8288 8284 8285 8286 8288 8290 8286 8286 8288 8285 8289 8286 8285 8284 8285 8284 8286 8289 8289 8289 8289 8293 8293 8291 8291 8298 8296 8304 
8283 8293 8289 8287 8285 8284 8277 8276 8281 8275 8278 8279 8277 8277 8274 8275 8273 8274 8278 8277 8276 8273 8267 8266 8263 8255 8236 8240 8254 8262 8254 8239 8236 8240 8227 8235 8258 8275 8274 8266 8261 8259 8253 8261 8273 8279 8279 8285 8287 8287 8287 8285 8286 8286 8285 8287 8284 8285 8285 8287 8290 8285 8287 8286 8284 8280 8280 8279 8284 8285 8284 8288 8289 8291 8291 8287 8290 8295 8293 8300 
8290 8298 8291 8292 8288 8284 8278 8277 8279 8278 8281 8280 8279 8278 8276 8276 8278 8280 8283 8280 8280 8274 8270 8265 8266 8258 8238 8232 8234 8245 8258 8262 8269 8274 8271 8262 8263 8260 8257 8256 8265 8254 8253 8265 8275 8277 8283 8286 8286 8289 8288 8284 8282 8285 8280 8283 8284 8285 8283 8288 8287 8287 8285 8283 8283 8281 8282 8281 8284 8282 8287 8285 8289 8288 8288 8286 8291 8294 8291 8299 
8293 8297 8294 8291 8290 8285 8279 8278 8281 8281 8278 8280 8282 8279 8278 8280 8278 8281 8282 8281 8278 8274 8270 8266 8272 8264 8253 8235 8233 8231 8234 8243 8249 8247 8244 8245 8247 8250 8250 8263 8262 8251 8264 8267 8279 8281 8283 8286 8287 8289 8287 8283 8283 8278 8278 8281 8283 8285 8284 8288 8289 8282 8284 8282 8282 8285 8281 8282 8284 8280 8285 8284 8288 8289 8290 8288 8288 8293 8291 8298 
8294 8299 8296 8292 8285 8285 8280 8279 8280 8278 8280 8280 8278 8279 8279 8280 8278 8280 8282 8283 8278 8278 8271 8270 8274 8267 8257 8249 8238 8236 8232 8231 8234 8236 8236 8240 8243 8251 8262 8259 8254 8258 8264 8273 8280 8282 8284 8284 8286 8287 8285 8282 8279 8274 8280 8280 8284 8285 8284 8287 8290 8286 8284 8285 8284 8284 8286 8283 8283 8280 8286 8282 8287 8287 8286 8284 8288 8294 8289 8297 
8291 8297 8293 8290 8287 8282 8276 8279 8280 8279 8278 8280 8276 8278 8281 8278 8280 8279 8280 8280 8280 8280 8272 8270 8275 8273 8265 8258 8251 8243 8238 8236 8242 8240 8242 8249 8257 8260 8254 8260 8263 8265 8273 8279 8287 8284 8284 8286 8286 8283 8283 8279 8279 8279 8281 8281 8282 8286 8287 8285 8288 8286 8286 8286 8282 8289 8287 8284 8281 8284 8283 8283 8285 8284 8287 8285 8287 8292 8286 8291 
8292 8294 8289 8287 8287 8281 8277 8276 8278 8275 8278 8276 8276 8283 8280 8282 8278 8279 8280 8278 8278 8274 8272 8270 8274 8276 8271 8268 8255 8250 8250 8250 8251 8251 8246 8253 8259 8263 8263 8268 8269 8269 8280 8280 8289 8285 8287 8286 8283 8281 8281 8283 8278 8278 8279 8281 8284 8283 8288 8288 8289 8287 8287 8287 8285 8284 8287 8286 8284 8285 8283 8283 8285 8289 8287 8285 8291 8291 8286 8290 
8287 8294 8290 8284 8285 8283 8278 8280 8278 8278 8276 8279 8277 8280 8282 8278 8277 8277 8280 8277 8279 8273 8269 8272 8278 8279 8275 8272 8263 8259 8257 8256 8258 8258 8254 8261 8268 8268 8266 8275 8277 8276 8280 8285 8289 8290 8287 8287 8283 8282 8280 8277 8281 8280 8280 8285 8287 8290 8288 8291 8293 8290 8292 8288 8291 8289 8288 8287 8287 8283 8285 8283 8286 8289 8290 8285 8293 8291 8285 8288 
8289 8290 8285 8283 8284 8283 8281 8279 8275 8276 8277 8278 8280 8278 8278 8278 8275 8278 8280 8276 8280 8275 8275 8274 8279 8278 8277 8272 8271 8268 8268 8267 8268 8272 8266 8274 8281 8281 8276 8284 8285 8282 8286 8289 8291 8289 8287 8288 8284 8280 8282 8284 8285 8284 8283 8289 8293 8291 8295 8296 8295 8293 8295 8293 8292 8289 8287 8288 8290 8288 8283 8284 8284 8287 8290 8286 8290 8291 8286 8290 
8285 8287 8281 8281 8285 8285 8281 8278 8279 8276 8274 8278 8281 8278 8280 8281 8279 8279 8279 8279 8279 8281 8278 8276 8282 8280 8275 8273 8273 8272 8270 8272 8276 8279 8279 8285 8288 8286 8283 8289 8290 8285 8287 8290 8291 8293 8288 8287 8287 8282 8282 8282 8284 8288 8287 8291 8293 8296 8295 8295 8297 8293 8294 8290 8291 8293 8289 8287 8288 8287 8287 8285 8287 8286 8285 8286 8287 8291 8287 8284 
8289 8287 8283 8281 8282 8277 8278 8277 8279 8277 8276 8277 8275 8276 8281 8279 8277 8277 8279 8278 8279 8280 8279 8277 8282 8279 8276 8275 8274 8273 8273 8276 8281 8283 8285 8289 8289 8292 8287 8289 8289 8281 8288 8289 8294 8288 8287 8288 8287 8287 8285 8286 8287 8286 8290 8291 8293 8294 8295 8294 8297 8295 8294 8292 8293 8294 8291 8289 8290 8288 8287 8284 8284 8283 8288 8286 8290 8290 8288 8286 
8283 8287 8278 8277 8277 8278 8281 8278 8274 8277 8273 8276 8275 8276 8277 8281 8277 8276 8278 8276 8279 8279 8279 8275 8280 8275 8267 8270 8272 8269 8275 8279 8285 8286 8291 8295 8297 8293 8288 8289 8285 8286 8289 8289 8293 8289 8285 8288 8286 8284 8288 8289 8288 8289 8289 8291 8290 8297 8295 8295 8297 8296 8296 8292 8292 8290 8292 8289 8291 8289 8286 8285 8284 8284 8285 8285 8289 8289 8283 8283 
8282 8284 8277 8276 8280 8277 8279 8277 8276 8275 8277 8277 8274 8276 8274 8276 8274 8274 8276 8275 8278 8279 8274 8273 8277 8272 8268 8268 8270 8269 8275 8276 8284 8291 8290 8291 8297 8291 8288 8289 8288 8286 8291 8292 8294 8292 8290 8287 8286 8286 8288 8289 8292 8292 8291 8293 8293 8294 8295 8300 8299 8296 8295 8294 8293 8291 8288 8290 8289 8289 8288 8286 8286 8287 8287 8284 8290 8291 8284 8286 
8281 8286 8276 8280 8277 8278 8279 8278 8274 8273 8273 8275 8278 8274 8274 8275 8275 8276 8275 8277 8278 8278 8272 8272 8274 8272 8268 8270 8269 8271 8274 8276 8284 8289 8288 8291 8291 8291 8287 8292 8290 8288 8294 8293 8298 8295 8290 8291 8290 8288 8289 8292 8289 8290 8292 8291 8293 8295 8296 8296 8298 8298 8295 8292 8291 8291 8289 8289 8287 8287 8287 8287 8285 8286 8287 8285 8289 8288 8285 8286 
8276 8284 8275 8279 8277 8278 8275 8276 8275 8273 8274 8276 8277 8276 8276 8271 8275 8276 8276 8275 8278 8277 8278 8272 8272 8273 8265 8267 8271 8270 8272 8276 8283 8288 8287 8288 8291 8287 8286 8290 8288 8287 8293 8294 8298 8295 8293 8290 8292 8292 8289 8293 8291 8290 8289 8293 8292 8295 8293 8295 8298 8297 8297 8297 8294 8292 8290 8288 8290 8287 8285 8286 8285 8286 8286 8286 8290 8290 8285 8287 
8277 8281 8272 8274 8278 8276 8275 8275 8275 8277 8276 8275 8277 8276 8270 8274 8273 8273 8275 8275 8279 8278 8273 8272 8272 8267 8260 8263 8268 8267 8273 8279 8286 8290 8289 8288 8289 8288 8286 8289 8291 8289 8296 8296 8296 8293 8291 8292 8291 8290 8288 8290 8290 8288 8289 8290 8293 8294 8294 8300 8298 8296 8297 8294 8295 8292 8291 8291 8285 8286 8285 8287 8288 8286 8286 8288 8288 8290 8286 8291 
8276 8278 8278 8275 8275 8280 8273 8275 8274 8272 8276 8275 8275 8273 8274 8274 8273 8269 8274 8272 8275 8278 8275 8269 8267 8266 8262 8261 8265 8271 8276 8282 8288 8292 8290 8292 8290 8287 8287 8288 8290 8289 8297 8299 8297 8288 8291 8289 8289 8287 8286 8287 8289 8290 8290 8291 8293 8296 8296 8297 8295 8295 8295 8295 8295 8294 8294 8293 8288 8288 8286 8287 8287 8289 8290 8289 8291 8296 8288 8292 
8285 8281 8278 8278 8276 8278 8273 8271 8273 8270 8272 8274 8273 8272 8275 8274 8273 8271 8274 8274 8274 8275 8270 8267 8268 8264 8260 8260 8265 8269 8277 8280 8290 8293 8292 8293 8293 8287 8285 8289 8290 8293 8298 8297 8295 8293 8289 8287 8289 8286 8287 8287 8285 8288 8288 8292 8294 8293 8290 8296 8295 8292 8295 8290 8292 8295 8293 8291 8292 8288 8286 8283 8287 8288 8291 8289 8294 8295 8292 8293 
8280 8282 8277 8275 8279 8278 8272 8269 8273 8270 8271 8271 8270 8271 8273 8272 8270 8271 8271 8270 8272 8272 8267 8262 8267 8261 8260 8263 8267 8270 8274 8280 8287 8294 8291 8291 8289 8288 8285 8289 8292 8291 8298 8298 8299 8291 8287 8286 8285 8285 8284 8287 8288 8287 8288 8287 8290 8291 8294 8294 8299 8294 8292 8291 8292 8291 8290 8289 8294 8288 8289 8286 8284 8286 8293 8294 8299 8298 8294 8303 
8280 8284 8279 8280 8278 8277 8273 8273 8267 8270 8269 8271 8269 8268 8272 8268 8269 8269 8270 8269 8270 8270 8266 8262 8264 8264 8260 8262 8266 8270 8276 8280 8291 8293 8294 8292 8289 8286 8284 8289 8288 8292 8300 8298 8296 8292 8289 8287 8283 8284 8281 8282 8282 8283 8289 8290 8290 8291 8292 8295 8293 8291 8293 8289 8289 8289 8290 8289 8289 8289 8286 8287 8287 8289 8294 8296 8302 8305 8301 8303 
8281 8285 8279 8275 8275 8277 8273 8271 8271 8271 8270 8268 8270 8269 8270 8271 8269 8266 8269 8269 8270 8268 8261 8259 8259 8259 8258 8260 8266 8266 8276 8278 8290 8291 8289 8289 8285 8285 8283 8287 8287 8288 8295 8296 8294 8291 8287 8286 8284 8282 8281 8283 8285 8282 8287 8290 8292 8291 8291 8293 8292 8291 8293 8290 8288 8290 8287 8287 8290 8286 8288 8288 8289 8291 8299 8302 8312 8316 8311 8314 
8284 8286 8280 8281 8275 8276 8269 8272 8269 8266 8267 8269 8269 8270 8271 8272 8270 8266 8271 8268 8267 8264 8259 8254 8258 8259 8255 8258 8263 8266 8273 8278 8284 8290 8286 8286 8287 8282 8283 8286 8283 8286 8297 8294 8293 8291 8288 8286 8285 8282 8280 8280 8281 8284 8283 8287 8289 8290 8291 8292 8291 8292 8291 8290 8289 8290 8289 8288 8290 8292 8285 8288 8293 8300 8301 8311 8325 8328 8318 8319 
8284 8289 8281 8281 8277 8275 8269 8267 8269 8266 8269 8268 8267 8270 8269 8270 8271 8267 8269 8267 8268 8265 8256 8254 8257 8257 8255 8257 8264 8266 8271 8278 8286 8288 8286 8284 8284 8280 8278 8284 8285 8286 8295 8294 8295 8287 8286 8285 8283 8282 8280 8279 8278 8282 8282 8287 8289 8291 8290 8289 8289 8289 8289 8289 8285 8287 8288 8290 8289 8289 8290 8289 8294 8300 8306 8317 8325 8325 8324 8323 
8290 8289 8278 8283 8278 8276 8271 8270 8266 8267 8269 8268 8271 8268 8268 8271 8270 8271 8269 8265 8268 8269 8257 8255 8253 8257 8255 8258 8265 8266 8274 8279 8288 8287 8286 8284 8282 8278 8279 8283 8285 8286 8293 8289 8294 8289 8285 8284 8284 8281 8278 8278 8279 8281 8287 8287 8289 8293 8289 8290 8289 8289 8291 8288 8285 8287 8288 8286 8290 8291 8291 8290 8293 8297 8304 8315 8327 8323 8323 8320 


