P2
80 60
740
372 377 382 379 381 383 380 380 377 376 370 370 364 361 356 350 344 339 335 332 326 330 328 338 349 354 356 356 355 351 349 354 349 346 344 341 347 343 342 344 341 338 341 343 343 343 348 353 357 365 372 379 388 394 404 404 410 406 410 413 414 415 414 419 421 429 427 433 434 427 425 416 408 406 382 372 367 365 365 361 
373 375 381 382 379 379 380 379 378 377 369 362 361 362 347 339 328 315 308 307 301 305 310 318 340 346 350 351 347 346 346 344 344 340 341 340 337 338 340 340 340 340 342 341 341 345 345 350 355 368 375 376 379 394 405 402 408 405 404 411 412 410 414 417 424 429 427 427 428 427 421 414 396 396 375 370 360 357 367 366 
375 374 380 380 377 381 383 382 377 376 372 366 362 354 342 320 293 266 246 239 231 229 242 260 317 342 343 349 346 345 344 344 342 336 338 338 341 334 335 339 342 345 346 347 345 349 350 354 373 379 381 384 393 403 407 405 408 406 401 408 411 414 414 421 423 427 426 425 427 418 414 400 385 388 362 361 357 356 362 356 
375 375 382 379 378 377 382 382 379 374 373 368 356 337 306 267 227 191 170 150 130 108 123 185 300 332 340 343 343 341 343 341 340 336 336 332 338 337 339 347 356 365 359 356 357 363 370 377 387 400 401 407 402 404 403 402 405 400 404 408 409 411 416 420 425 425 424 420 420 403 401 394 375 377 364 358 353 354 360 359 
378 379 381 378 378 381 378 378 376 368 365 361 344 305 254 175 138 128 123 85 43 27 41 160 289 325 335 337 338 336 338 342 336 334 334 336 341 347 364 399 414 413 409 399 397 403 408 421 433 430 431 426 413 405 403 403 404 402 403 406 404 414 413 420 420 422 419 403 417 401 382 381 372 377 358 355 357 358 362 357 
376 381 380 378 375 374 370 368 365 359 356 351 321 278 204 107 62 63 68 30 2 0 29 146 275 307 323 327 329 333 337 337 338 335 336 345 363 397 427 434 432 428 427 435 439 435 426 435 444 458 448 434 413 408 400 401 406 404 403 408 409 408 409 415 420 414 412 392 384 387 370 363 360 363 355 358 356 357 359 351 
377 374 378 375 373 371 372 366 358 352 344 334 301 253 172 76 33 29 33 20 6 16 45 149 256 289 311 320 328 333 337 341 342 345 357 386 422 444 446 439 428 421 417 428 435 441 439 446 457 464 469 455 430 418 417 413 416 412 406 408 409 409 410 409 414 414 409 388 380 370 364 360 356 361 356 360 360 360 361 352 
373 373 375 373 373 373 368 362 355 347 331 312 272 233 174 90 57 59 75 74 80 93 127 196 279 299 319 332 336 339 349 350 355 373 413 427 435 439 439 436 431 424 425 422 438 440 447 451 452 463 475 471 456 455 448 435 421 412 408 410 415 416 412 406 409 409 398 385 379 363 359 355 357 357 357 362 360 358 363 352 
372 371 374 376 374 373 367 357 349 334 313 292 274 265 215 163 152 169 193 204 220 232 257 289 318 326 333 342 343 343 350 360 386 421 429 426 433 434 432 439 434 443 453 437 453 473 488 477 470 464 467 470 466 461 462 450 425 409 408 417 416 414 412 406 397 394 382 376 377 363 356 351 355 360 363 362 362 361 361 354 
377 380 378 375 371 370 363 356 343 324 310 304 304 297 280 268 284 298 307 321 323 320 322 330 335 339 342 344 335 338 340 375 415 422 424 430 450 434 431 428 448 465 489 452 467 508 513 477 470 463 459 460 462 461 459 456 431 410 411 413 418 416 412 403 389 389 379 373 363 353 356 351 353 361 359 361 365 359 362 356 
380 379 383 377 377 377 366 357 342 329 326 331 332 321 322 332 337 337 333 332 332 330 329 328 333 336 329 333 331 329 338 384 419 415 420 430 446 447 446 435 447 483 504 472 469 508 492 485 481 468 456 448 454 454 457 454 447 423 412 414 416 409 396 395 394 381 379 362 355 349 350 349 359 363 359 364 362 359 360 351 
383 384 388 378 380 374 368 359 348 344 345 346 342 336 335 336 335 335 333 337 332 329 327 322 324 324 326 325 328 322 345 405 422 417 432 442 457 465 472 459 482 500 561 531 501 512 498 550 515 470 456 453 452 453 448 443 449 441 417 412 411 400 388 390 379 370 371 355 358 353 353 356 361 365 360 360 357 353 356 354 
386 383 385 382 374 372 363 360 353 350 350 343 341 339 342 335 333 334 334 335 332 332 329 325 328 323 323 322 320 324 371 417 422 423 454 463 470 473 487 486 507 533 584 588 553 570 557 561 495 482 476 473 473 472 452 453 465 457 420 413 406 397 386 382 377 370 358 356 354 349 355 356 360 363 363 362 358 356 355 350 
374 374 373 366 365 362 358 355 348 347 347 340 340 338 337 335 332 331 335 332 335 332 327 328 333 331 331 333 328 342 389 423 427 430 445 473 489 497 523 540 542 567 616 670 647 627 616 557 549 531 512 498 510 473 460 456 453 450 436 421 405 389 386 376 370 362 355 355 356 350 352 357 357 362 358 357 361 351 353 355 
367 364 368 362 363 361 358 353 346 345 339 346 340 336 336 336 337 340 339 326 308 292 283 291 315 326 330 337 335 348 393 427 438 449 464 487 524 555 577 611 648 660 678 712 721 694 686 648 641 628 587 576 543 517 506 486 475 470 461 442 409 393 385 374 364 362 355 352 356 351 356 356 356 359 357 358 354 349 356 350 
369 364 370 368 366 358 355 354 346 341 341 345 336 333 331 329 332 334 336 321 286 271 265 281 324 334 338 341 342 351 404 447 452 457 494 534 586 640 683 694 689 698 720 729 725 712 727 713 704 701 672 669 652 596 549 518 502 487 469 445 412 385 379 365 364 356 350 353 352 352 353 353 360 359 352 353 349 348 354 347 
369 370 369 365 359 361 350 350 342 335 336 337 335 335 334 336 339 337 333 328 311 296 300 317 326 335 345 348 347 358 413 465 483 517 573 631 677 701 710 704 715 716 726 731 727 722 718 710 701 706 711 713 704 647 563 514 501 480 444 442 417 382 365 356 358 354 350 353 354 356 357 355 359 355 345 347 347 347 350 346 
371 368 368 355 351 349 346 338 336 336 331 335 334 340 338 337 341 343 338 335 322 307 305 318 336 340 344 351 348 364 426 465 500 550 619 683 705 705 701 705 713 715 727 727 727 713 713 704 699 698 703 719 713 672 595 533 492 450 431 426 396 372 365 359 355 355 351 355 360 356 352 357 357 343 344 339 347 347 345 342 
370 365 366 357 347 347 343 342 334 337 338 335 334 340 341 343 345 346 339 342 334 326 310 318 340 347 347 350 356 379 436 463 496 553 619 691 708 696 692 701 711 713 721 721 720 713 710 700 694 695 698 709 719 706 636 566 526 472 432 426 406 368 362 361 359 353 351 355 358 359 357 357 360 346 339 342 344 342 343 342 
370 370 366 357 348 346 342 338 333 344 341 337 334 337 338 339 339 340 339 338 340 337 315 326 342 344 345 351 351 388 440 458 487 552 624 690 710 684 693 710 712 716 723 725 726 718 708 693 685 681 681 688 700 717 689 597 565 501 431 423 406 374 354 356 360 357 350 353 361 359 359 360 354 350 344 345 345 342 345 338 
372 368 365 354 350 347 341 339 337 346 348 345 336 337 335 335 339 342 339 339 339 342 328 332 343 346 347 349 350 373 441 433 465 541 616 701 696 687 695 709 711 718 725 726 725 711 705 683 664 658 660 666 679 705 705 628 577 514 451 430 406 374 357 353 360 358 351 353 357 360 360 352 352 352 344 345 346 342 343 339 
372 370 366 355 348 341 341 340 341 348 346 345 338 339 335 338 342 345 342 345 342 343 342 342 344 348 347 351 349 361 433 443 477 542 637 705 678 667 670 679 693 715 732 730 722 714 719 718 696 682 685 685 690 699 694 654 587 499 430 418 402 381 358 354 360 359 357 356 360 356 358 357 351 352 346 347 348 342 340 335 
370 368 364 358 349 349 343 338 335 339 345 341 338 341 339 344 343 345 342 342 343 348 344 344 346 346 349 349 352 385 435 454 481 548 655 698 664 672 693 705 705 724 740 731 713 706 728 720 696 679 682 695 708 700 681 652 585 500 435 420 402 383 356 355 364 359 358 359 362 360 359 354 356 352 346 348 346 347 341 339 
370 368 363 354 351 346 340 336 339 336 339 340 337 345 339 345 348 343 343 345 343 344 344 344 347 347 345 349 356 397 429 452 471 548 643 691 698 699 693 695 693 716 730 716 706 685 700 716 709 700 704 701 691 682 658 644 591 499 433 417 407 384 353 356 359 363 362 359 362 358 360 356 357 357 348 352 350 345 343 339 
366 366 362 355 353 348 344 342 339 344 340 340 344 342 344 350 349 348 347 350 348 346 347 347 346 342 346 351 352 395 426 455 460 527 628 678 705 706 706 711 707 711 712 702 700 697 702 715 713 714 705 691 681 676 658 638 594 493 435 419 412 388 355 360 364 365 366 362 360 358 363 358 360 357 349 349 350 344 347 340 
364 368 361 354 350 349 347 341 341 344 345 344 343 346 343 346 350 348 348 347 351 347 345 347 347 346 349 351 353 393 424 453 458 509 617 663 686 692 706 710 707 701 701 706 706 709 710 719 714 714 702 686 677 670 669 636 599 490 434 426 415 390 361 362 368 368 369 363 362 358 360 358 357 360 347 353 353 343 346 340 
365 366 362 354 348 347 342 344 344 344 344 348 345 343 345 347 351 352 348 345 346 350 349 348 351 348 351 353 355 390 428 449 463 494 597 657 680 681 690 699 705 699 702 697 701 698 700 708 722 718 708 696 682 668 666 639 597 487 434 427 421 390 357 366 370 369 367 363 360 356 363 354 361 361 349 346 350 346 347 343 
368 368 365 357 348 346 344 344 345 346 346 347 347 343 346 349 350 350 348 347 349 349 353 348 354 351 353 354 359 375 427 451 469 482 582 652 670 673 685 700 708 702 686 684 691 689 687 685 722 729 715 703 694 672 654 639 587 484 439 434 422 387 361 357 365 373 369 364 360 356 361 357 355 355 350 344 348 342 350 347 
366 364 366 357 353 350 351 349 347 347 348 348 348 347 348 349 349 349 349 351 351 349 354 352 356 354 352 354 359 369 422 451 467 479 552 644 663 670 681 696 711 704 687 681 686 690 696 708 723 719 717 703 700 679 660 642 584 475 435 431 422 377 362 359 368 369 366 361 363 358 356 353 350 350 346 342 344 345 348 344 
369 368 365 357 354 351 352 345 348 345 344 349 349 352 352 350 351 350 347 353 352 352 352 350 358 354 357 352 359 365 410 452 463 469 525 626 659 667 677 690 709 707 709 698 702 710 712 718 721 723 717 712 695 676 657 633 578 471 438 434 422 378 362 363 369 369 365 359 359 355 350 352 353 356 345 344 346 345 347 342 
370 366 366 362 352 354 352 355 348 345 341 351 351 353 352 354 354 349 353 352 354 356 353 353 355 357 356 359 361 369 394 451 463 472 507 602 656 667 678 698 708 696 697 694 695 697 703 713 716 716 720 710 689 672 656 625 553 467 443 442 419 378 370 364 369 372 364 360 362 359 354 345 347 354 347 343 346 342 346 343 
372 369 372 365 359 358 353 353 350 346 345 351 355 355 353 350 352 353 353 355 354 358 354 354 360 362 361 367 369 369 381 438 464 474 492 570 654 670 684 696 706 712 708 699 695 702 709 721 729 736 724 709 691 676 651 618 527 457 445 443 398 372 370 365 371 370 365 361 362 355 355 345 348 352 343 340 347 345 346 343 
374 371 367 363 359 357 355 355 353 347 346 346 349 351 350 350 353 353 353 355 355 359 357 355 366 367 370 371 369 374 381 416 459 471 482 537 639 661 682 695 707 727 709 687 691 692 701 722 731 735 712 704 685 671 648 599 447 430 412 392 382 377 370 365 369 367 364 363 359 356 351 348 349 354 345 344 344 342 347 342 
371 372 365 363 357 359 354 358 351 345 347 354 349 348 352 353 354 353 353 356 356 360 363 363 366 369 370 374 374 373 380 389 440 469 479 497 606 654 678 693 696 689 707 705 708 720 719 715 716 706 705 694 683 668 642 542 402 424 394 381 380 377 371 367 367 372 365 361 362 355 352 349 348 353 347 343 344 343 348 349 
371 370 368 362 359 357 354 351 351 348 350 352 351 354 353 353 355 354 353 357 359 364 369 365 375 372 372 377 372 373 375 379 396 442 456 460 492 639 672 687 702 684 682 681 687 697 697 695 695 697 698 698 690 669 634 467 394 416 389 381 378 375 369 366 368 369 366 362 359 354 352 348 352 353 346 346 347 348 349 350 
372 372 372 366 359 358 358 357 356 347 351 350 351 353 355 354 356 357 354 357 360 365 368 368 375 374 374 378 375 376 373 373 375 374 392 446 414 544 664 686 708 700 689 682 686 698 698 704 699 692 697 691 680 667 624 445 397 413 384 383 381 376 370 367 367 369 367 362 361 359 353 349 353 359 350 347 347 349 347 346 
371 370 372 367 360 364 363 362 361 348 349 350 353 354 358 359 357 357 356 358 361 365 370 371 379 377 377 378 377 376 378 378 374 372 374 423 408 409 574 676 698 702 700 700 703 709 704 702 696 694 688 682 676 663 652 558 451 420 400 402 397 383 372 369 370 372 365 364 366 361 360 352 355 360 352 349 350 348 349 343 
378 372 376 371 362 366 367 369 362 354 350 354 355 355 355 359 362 359 358 361 359 371 370 377 381 378 379 381 378 380 373 376 375 370 373 392 416 380 418 603 682 690 693 687 684 686 683 686 686 690 682 677 673 663 669 658 608 554 559 548 497 453 420 405 415 393 380 373 375 370 360 355 361 363 354 352 352 350 354 348 
378 374 375 368 369 372 366 368 365 356 359 356 356 360 360 361 361 359 361 364 367 374 374 378 381 377 380 384 380 375 375 377 376 371 369 374 406 383 384 456 647 678 682 680 678 677 675 679 682 686 680 675 669 664 670 673 624 620 623 621 602 599 571 566 576 542 498 487 475 432 399 401 397 377 362 360 357 350 352 351 
375 378 374 374 370 373 370 367 369 362 362 362 357 357 362 364 363 359 362 366 368 373 377 377 382 384 382 381 378 376 375 377 374 370 372 369 393 399 383 395 575 668 678 671 676 678 680 682 682 685 680 675 662 666 671 676 617 634 630 624 603 622 614 602 600 607 598 578 580 570 541 539 521 465 407 371 361 352 358 350 
379 377 378 376 371 371 369 369 367 363 362 359 361 363 362 363 363 363 362 368 371 374 381 385 384 380 382 382 377 372 376 375 373 371 367 368 383 415 386 389 511 672 675 672 669 673 675 676 675 681 678 671 669 668 674 677 619 628 617 607 588 627 636 613 601 614 607 587 596 579 581 575 568 540 501 433 393 375 366 356 
380 377 379 376 372 375 374 372 370 364 364 362 361 364 364 363 365 365 367 370 372 378 383 385 392 386 386 384 375 371 376 375 371 370 372 368 377 403 410 388 457 670 681 676 680 679 672 677 671 674 680 678 677 675 677 668 631 626 607 588 574 620 629 600 608 600 597 593 589 588 581 586 563 546 527 518 511 454 399 361 
379 378 379 373 371 375 374 372 373 369 365 367 367 370 365 369 369 370 374 379 383 384 384 389 389 389 387 386 378 372 375 376 374 371 372 371 378 388 444 453 551 674 686 680 679 683 674 667 664 665 683 689 682 680 679 656 642 625 609 580 565 622 607 590 611 605 595 596 594 593 594 589 554 561 542 558 562 542 482 387 
379 380 380 378 376 374 373 374 376 376 373 378 376 376 376 376 374 374 378 383 383 387 390 386 389 388 388 384 376 373 370 372 374 375 371 377 395 425 528 592 637 679 683 674 676 678 676 664 662 665 686 689 684 677 675 637 648 631 603 563 573 617 602 600 616 605 600 595 603 596 606 579 569 571 565 582 584 571 551 494 
383 385 386 383 377 376 375 376 378 378 378 382 381 378 380 379 377 379 385 392 386 387 389 389 392 391 386 382 378 374 372 376 373 379 385 405 508 584 599 605 653 681 680 674 675 682 679 671 665 668 682 682 677 675 667 628 630 626 582 551 584 622 592 606 612 597 597 590 608 598 611 573 573 566 591 602 596 584 580 552 
390 387 388 384 384 377 379 375 377 384 382 388 386 387 388 386 389 384 387 391 392 391 391 391 392 390 387 383 382 379 379 382 384 395 456 556 603 615 611 613 645 680 683 676 682 694 695 676 669 669 680 683 680 678 643 627 627 608 559 554 602 614 586 602 606 585 598 591 606 612 600 582 576 574 601 600 589 582 580 567 
389 392 390 386 384 379 377 378 385 388 387 392 388 386 393 397 395 396 391 394 396 390 394 388 390 384 387 396 391 390 390 395 423 543 603 630 615 611 622 615 615 675 686 677 679 691 696 686 671 672 681 687 682 676 608 611 623 587 548 578 622 609 580 600 599 577 596 586 599 610 590 592 574 576 595 587 577 578 577 570 
393 394 395 388 384 385 389 389 387 389 390 397 389 391 396 399 400 403 397 400 405 399 399 395 390 388 395 403 402 398 402 458 573 628 624 643 616 597 619 620 617 635 688 684 682 686 693 685 674 677 686 687 680 643 596 614 617 570 560 610 635 595 580 594 587 575 594 576 589 609 589 603 574 583 588 567 570 572 586 573 
393 395 397 392 387 387 391 394 393 392 391 399 396 396 399 402 407 410 402 407 410 407 405 399 402 397 401 407 405 419 492 608 633 644 628 646 639 586 627 623 614 609 658 686 683 690 695 684 681 687 691 686 652 577 605 611 608 560 591 642 632 588 587 601 591 570 591 564 578 598 596 609 573 579 569 569 566 578 577 571 
395 397 397 393 390 387 390 390 389 389 394 398 396 400 402 403 405 405 407 408 408 408 403 402 399 405 407 411 423 530 603 639 640 653 630 632 639 584 625 628 606 592 597 679 688 693 697 694 691 685 670 625 588 581 607 605 586 570 626 645 622 584 598 614 600 566 588 554 573 590 602 603 565 566 578 568 582 577 567 563 
398 400 396 392 387 390 385 389 391 388 391 398 396 397 396 401 402 404 400 405 400 400 397 399 404 407 413 425 518 616 627 658 643 654 636 613 634 586 621 633 607 592 575 582 625 648 654 646 634 603 582 585 574 599 611 595 577 597 646 639 614 586 602 607 598 571 586 558 575 593 608 595 563 582 584 585 583 561 565 573 
402 397 397 392 391 387 384 386 396 396 396 398 399 400 396 398 394 396 398 408 400 395 397 397 408 409 416 493 594 642 632 665 654 653 633 600 624 578 599 635 621 603 580 555 558 564 566 564 562 572 588 592 568 598 596 605 575 617 631 627 597 590 603 597 582 571 583 561 585 595 611 596 572 596 598 593 581 572 582 585 
399 400 393 393 394 396 395 393 404 404 395 396 397 394 394 398 389 392 397 405 402 394 398 404 408 412 455 567 623 646 630 665 655 653 631 597 615 580 583 624 615 621 604 576 554 563 563 563 570 585 600 583 567 590 620 613 594 634 618 618 584 590 595 590 581 571 590 568 580 596 607 602 591 614 604 594 598 588 595 583 
403 404 397 394 395 398 398 400 404 404 389 393 395 393 392 396 394 398 399 409 402 396 400 404 414 420 525 583 624 640 620 655 651 644 620 594 615 589 570 610 607 607 602 595 566 570 590 600 592 580 569 562 583 620 631 589 606 631 611 610 575 588 587 586 576 572 592 576 568 596 609 608 608 610 600 611 602 607 606 600 
399 404 406 402 400 401 404 409 408 411 396 401 399 393 394 398 398 399 399 407 403 401 404 412 419 453 573 583 616 631 607 640 641 635 615 588 615 605 566 597 610 594 597 580 590 573 619 603 567 564 572 565 610 626 619 570 624 615 606 605 573 582 582 584 571 573 589 590 570 586 621 614 609 602 608 609 616 620 623 607 
404 403 407 408 408 408 411 414 412 413 409 413 403 397 399 402 400 401 406 407 404 408 407 415 427 503 588 582 603 627 601 630 631 628 619 589 609 610 567 586 611 582 595 575 586 585 617 581 563 576 583 576 611 620 589 572 628 607 605 603 572 587 584 586 564 570 590 592 571 586 621 623 602 605 617 620 632 634 629 614 
404 408 412 411 416 416 417 414 413 411 408 413 405 400 400 400 400 400 402 403 408 410 413 414 439 548 591 575 592 624 596 621 630 630 625 599 610 616 581 570 600 592 588 587 581 580 589 586 574 589 570 586 608 608 568 585 624 601 601 596 575 585 590 585 560 559 587 596 574 579 612 618 609 619 621 632 641 631 629 632 
401 405 406 404 410 418 412 411 406 403 402 415 412 404 407 397 396 397 400 404 396 403 408 411 455 569 584 574 580 618 598 612 628 627 632 604 606 610 594 560 589 598 578 586 578 579 569 573 580 589 572 599 608 593 559 596 618 596 599 597 575 582 598 587 562 559 579 594 576 569 606 613 623 625 633 639 642 630 637 642 
411 408 410 406 406 416 408 410 404 408 404 416 412 408 407 402 398 398 399 406 398 401 404 409 471 582 578 572 570 608 597 600 626 624 631 612 602 608 601 558 572 593 589 588 592 593 554 572 590 586 586 609 599 562 562 603 614 595 596 589 574 580 595 597 564 551 572 590 579 563 595 615 630 638 634 634 628 625 644 641 
412 416 414 412 410 416 413 415 408 411 410 419 417 409 408 410 407 409 404 405 403 406 407 407 482 585 575 569 571 596 595 597 624 625 625 611 592 609 605 570 551 579 597 593 585 577 556 579 601 581 604 609 582 558 571 609 609 591 594 592 577 579 594 598 558 546 567 587 583 556 583 608 637 644 629 628 617 623 644 643 


