P2
80 60
8196
8163 8166 8169 8172 8176 8174 8171 8168 8170 8171 8177 8178 8178 8172 8174 8176 8175 8171 8179 8178 8182 8187 8188 8181 8186 8188 8184 8186 8191 8191 8195 8193 8195 8189 8186 8185 8186 8187 8192 8194 8190 8187 8185 8186 8185 8187 8188 8190 8187 8186 8185 8183 8180 8178 8177 8176 8178 8180 8184 8183 8184 8184 8186 8183 8187 8186 8187 8189 8189 8193 8190 8188 8192 8191 8194 8193 8187 8189 8187 8184 
8160 8174 8179 8174 8176 8178 8173 8169 8164 8175 8172 8176 8171 8171 8168 8177 8171 8175 8175 8182 8186 8189 8189 8180 8189 8179 8177 8181 8191 8185 8189 8187 8187 8187 8182 8182 8180 8190 8193 8191 8191 8188 8183 8180 8185 8187 8184 8186 8187 8187 8182 8185 8181 8183 8174 8180 8178 8175 8180 8183 8181 8185 8186 8182 8181 8188 8187 8187 8192 8190 8189 8182 8188 8186 8194 8186 8186 8186 8191 8187 
8147 8161 8165 8162 8173 8169 8164 8171 8164 8167 8172 8169 8165 8170 8171 8171 8175 8174 8175 8179 8179 8185 8182 8179 8185 8186 8180 8185 8189 8185 8182 8185 8184 8189 8185 8180 8179 8188 8190 8190 8188 8185 8183 8187 8183 8186 8184 8187 8185 8184 8182 8180 8178 8180 8180 8180 8178 8176 8181 8176 8183 8185 8181 8181 8178 8181 8186 8187 8188 8195 8184 8183 8184 8185 8184 8182 8184 8181 8182 8191 
8162 8159 8172 8161 8173 8164 8169 8171 8169 8169 8164 8156 8166 8167 8165 8170 8173 8175 8173 8174 8173 8172 8166 8182 8184 8183 8183 8187 8187 8187 8182 8183 8188 8182 8186 8181 8189 8185 8187 8191 8188 8183 8183 8179 8185 8178 8183 8185 8185 8180 8180 8179 8178 8180 8180 8182 8175 8175 8177 8173 8181 8182 8183 8179 8176 8176 8180 8183 8187 8189 8182 8188 8183 8185 8184 8177 8184 8181 8183 8189 
8164 8156 8169 8159 8171 8172 8170 8163 8162 8168 8165 8155 8161 8165 8163 8168 8168 8166 8173 8168 8168 8173 8166 8174 8180 8180 8181 8180 8180 8185 8181 8188 8184 8182 8178 8179 8185 8183 8186 8188 8185 8183 8179 8177 8177 8178 8180 8180 8179 8183 8180 8178 8176 8179 8181 8181 8174 8177 8179 8177 8181 8183 8179 8179 8178 8178 8173 8171 8183 8182 8182 8186 8181 8187 8175 8180 8178 8181 8181 8184 
8168 8168 8161 8157 8162 8163 8173 8166 8165 8165 8155 8161 8165 8159 8160 8165 8168 8160 8170 8175 8173 8171 8178 8173 8182 8179 8179 8180 8174 8181 8185 8184 8183 8181 8180 8177 8181 8184 8184 8189 8185 8180 8184 8176 8177 8180 8178 8177 8180 8180 8180 8179 8177 8180 8178 8181 8175 8178 8180 8179 8178 8181 8178 8177 8176 8179 8174 8169 8179 8185 8183 8178 8191 8179 8173 8180 8178 8180 8182 8181 
8171 8169 8165 8171 8167 8161 8172 8174 8161 8152 8149 8170 8167 8152 8163 8169 8159 8160 8171 8179 8166 8173 8177 8178 8182 8180 8165 8170 8178 8183 8186 8186 8182 8183 8178 8180 8177 8181 8185 8184 8185 8179 8182 8179 8179 8178 8180 8179 8174 8179 8179 8176 8174 8177 8175 8178 8176 8174 8176 8176 8175 8176 8173 8175 8175 8177 8180 8178 8172 8170 8180 8181 8179 8179 8182 8181 8176 8179 8184 8181 
8172 8170 8159 8174 8161 8166 8171 8175 8167 8146 8166 8169 8164 8159 8170 8166 8165 8167 8170 8171 8173 8174 8175 8179 8184 8176 8164 8172 8177 8184 8184 8183 8183 8183 8178 8179 8179 8181 8182 8186 8182 8179 8179 8178 8178 8178 8182 8175 8176 8175 8175 8176 8175 8176 8174 8176 8175 8175 8178 8173 8171 8173 8171 8172 8172 8180 8176 8176 8174 8172 8174 8172 8180 8176 8180 8180 8175 8180 8182 8184 
8174 8165 8161 8164 8168 8166 8175 8172 8167 8155 8164 8166 8162 8166 8159 8164 8165 8164 8169 8175 8173 8169 8170 8173 8171 8175 8168 8173 8177 8182 8182 8179 8180 8180 8180 8180 8177 8177 8180 8182 8179 8180 8178 8173 8177 8181 8175 8176 8178 8175 8174 8173 8173 8173 8175 8172 8174 8175 8176 8172 8172 8173 8170 8169 8170 8170 8170 8176 8172 8179 8170 8170 8167 8172 8173 8178 8175 8180 8180 8182 
8173 8156 8164 8166 8166 8170 8158 8171 8168 8165 8160 8166 8164 8167 8163 8161 8167 8163 8176 8176 8171 8168 8172 8171 8167 8170 8170 8174 8175 8178 8178 8177 8177 8177 8182 8177 8179 8182 8178 8180 8177 8180 8177 8169 8170 8178 8179 8179 8177 8174 8171 8173 8174 8175 8175 8168 8174 8173 8172 8169 8172 8175 8170 8172 8168 8167 8170 8175 8170 8175 8172 8174 8170 8169 8172 8170 8173 8175 8178 8174 
8170 8162 8166 8165 8166 8169 8154 8168 8166 8156 8161 8163 8162 8165 8158 8162 8166 8158 8160 8170 8172 8169 8170 8176 8170 8167 8173 8176 8178 8181 8179 8173 8171 8181 8177 8172 8172 8174 8180 8180 8179 8173 8171 8177 8177 8182 8182 8176 8177 8173 8173 8174 8175 8177 8169 8169 8172 8169 8174 8174 8168 8169 8170 8168 8164 8167 8174 8173 8168 8173 8169 8171 8166 8166 8164 8166 8166 8174 8173 8174 
8166 8175 8169 8163 8160 8164 8158 8169 8169 8159 8163 8164 8162 8163 8162 8165 8162 8157 8162 8175 8175 8176 8163 8173 8178 8172 8170 8173 8181 8181 8181 8180 8170 8178 8174 8170 8174 8178 8181 8179 8175 8177 8176 8179 8179 8177 8181 8175 8175 8174 8179 8178 8176 8177 8172 8170 8171 8167 8175 8171 8166 8170 8168 8168 8167 8166 8173 8168 8171 8168 8167 8167 8166 8169 8163 8164 8168 8171 8169 8169 
8171 8165 8162 8157 8156 8166 8164 8156 8162 8158 8162 8160 8160 8157 8161 8164 8159 8161 8168 8167 8163 8172 8163 8167 8175 8167 8166 8176 8178 8174 8186 8173 8176 8176 8168 8166 8176 8181 8175 8174 8172 8175 8179 8177 8177 8176 8179 8179 8174 8173 8180 8176 8176 8178 8176 8170 8171 8167 8175 8169 8165 8166 8170 8165 8168 8168 8171 8170 8172 8166 8164 8166 8168 8165 8163 8170 8171 8172 8172 8171 
8173 8179 8171 8167 8169 8168 8165 8167 8156 8166 8169 8167 8161 8158 8166 8160 8167 8166 8171 8170 8167 8171 8167 8174 8171 8170 8170 8170 8170 8176 8180 8172 8178 8177 8168 8171 8170 8175 8173 8173 8172 8173 8177 8175 8175 8177 8178 8178 8176 8177 8176 8180 8178 8178 8178 8169 8171 8170 8172 8169 8165 8168 8167 8169 8171 8172 8169 8169 8175 8173 8171 8167 8170 8168 8165 8170 8170 8174 8170 8172 
8179 8164 8171 8173 8169 8169 8160 8168 8160 8158 8163 8163 8164 8163 8166 8165 8163 8162 8171 8174 8160 8167 8166 8169 8165 8169 8170 8170 8171 8175 8170 8170 8175 8169 8171 8168 8169 8168 8169 8166 8170 8171 8174 8175 8174 8175 8175 8172 8174 8176 8176 8179 8174 8177 8173 8176 8174 8172 8175 8169 8168 8164 8165 8172 8168 8174 8171 8170 8170 8170 8170 8170 8169 8168 8163 8168 8166 8170 8168 8170 
8174 8154 8162 8170 8168 8163 8161 8166 8159 8167 8164 8162 8161 8159 8164 8169 8170 8163 8169 8171 8163 8169 8166 8169 8170 8175 8172 8165 8169 8176 8172 8171 8171 8173 8167 8167 8170 8168 8166 8162 8169 8173 8173 8173 8175 8174 8171 8175 8171 8172 8172 8176 8175 8175 8171 8175 8173 8169 8173 8170 8166 8164 8163 8168 8171 8173 8165 8171 8169 8171 8172 8167 8167 8169 8165 8169 8169 8170 8167 8169 
8180 8157 8159 8173 8167 8160 8160 8158 8164 8164 8163 8168 8158 8157 8159 8168 8163 8168 8173 8166 8160 8170 8170 8165 8167 8170 8169 8173 8172 8173 8176 8173 8170 8174 8165 8168 8169 8169 8169 8169 8168 8172 8172 8176 8170 8172 8173 8167 8174 8172 8173 8175 8176 8172 8166 8173 8168 8172 8173 8171 8170 8160 8165 8168 8173 8168 8167 8171 8166 8170 8165 8162 8169 8167 8167 8168 8165 8170 8172 8170 
8177 8171 8164 8161 8162 8171 8162 8168 8158 8164 8164 8164 8165 8166 8169 8167 8165 8166 8169 8168 8168 8169 8168 8167 8164 8177 8176 8167 8171 8175 8174 8171 8171 8175 8171 8171 8172 8169 8169 8170 8164 8169 8170 8174 8173 8174 8173 8166 8172 8173 8174 8174 8172 8173 8166 8170 8166 8168 8170 8170 8168 8166 8169 8172 8168 8169 8170 8172 8169 8168 8166 8169 8168 8169 8170 8169 8166 8168 8170 8170 
8171 8164 8165 8168 8165 8164 8171 8166 8169 8159 8165 8166 8165 8163 8166 8167 8161 8166 8167 8163 8162 8175 8168 8167 8172 8175 8175 8168 8168 8166 8174 8173 8170 8172 8168 8170 8169 8170 8170 8168 8167 8169 8172 8174 8172 8173 8174 8172 8168 8169 8174 8174 8168 8170 8165 8163 8169 8167 8170 8169 8164 8164 8171 8168 8170 8168 8170 8169 8168 8167 8170 8164 8169 8165 8169 8171 8163 8169 8170 8174 
8169 8161 8167 8163 8158 8173 8167 8169 8167 8161 8167 8167 8164 8162 8170 8168 8163 8167 8162 8166 8158 8172 8169 8165 8170 8165 8170 8167 8166 8171 8172 8171 8169 8174 8170 8170 8170 8166 8169 8173 8166 8168 8171 8169 8166 8171 8173 8169 8170 8171 8171 8172 8167 8169 8169 8167 8170 8167 8170 8161 8165 8167 8169 8172 8170 8169 8168 8168 8167 8170 8168 8164 8169 8164 8170 8171 8167 8172 8171 8171 
8172 8171 8159 8152 8154 8162 8159 8172 8168 8161 8163 8165 8163 8158 8160 8169 8166 8164 8155 8165 8154 8167 8170 8168 8165 8157 8160 8171 8164 8173 8170 8169 8169 8172 8170 8170 8168 8164 8169 8170 8169 8169 8170 8169 8166 8170 8170 8166 8167 8169 8166 8170 8169 8168 8167 8170 8165 8170 8170 8161 8164 8168 8167 8173 8169 8171 8167 8171 8171 8171 8167 8167 8166 8163 8165 8167 8165 8167 8171 8172 
8172 8173 8161 8172 8169 8167 8152 8170 8158 8163 8159 8159 8165 8166 8156 8162 8160 8162 8155 8161 8163 8167 8168 8171 8164 8161 8166 8167 8166 8166 8168 8168 8171 8170 8169 8166 8165 8165 8171 8168 8166 8168 8166 8166 8163 8168 8165 8165 8169 8165 8167 8169 8168 8168 8172 8169 8167 8167 8164 8163 8164 8165 8168 8169 8171 8169 8168 8171 8170 8167 8166 8164 8164 8161 8167 8168 8165 8169 8173 8173 
8172 8167 8165 8173 8167 8162 8150 8151 8154 8165 8167 8163 8162 8163 8158 8160 8160 8156 8154 8161 8163 8170 8165 8169 8170 8162 8166 8166 8173 8169 8166 8165 8169 8167 8166 8166 8164 8162 8170 8162 8163 8166 8168 8167 8165 8165 8160 8161 8161 8163 8166 8169 8163 8170 8169 8172 8168 8168 8166 8161 8165 8166 8169 8166 8173 8170 8170 8173 8170 8166 8164 8164 8166 8162 8167 8165 8166 8168 8173 8174 
8174 8172 8165 8165 8164 8169 8162 8151 8163 8164 8168 8162 8164 8161 8164 8162 8161 8160 8157 8170 8163 8167 8168 8162 8166 8161 8163 8166 8168 8165 8163 8167 8169 8166 8162 8163 8167 8163 8163 8162 8162 8169 8165 8166 8166 8161 8165 8161 8162 8167 8169 8167 8161 8164 8166 8170 8170 8170 8163 8162 8160 8165 8168 8171 8173 8173 8173 8172 8167 8167 8167 8164 8168 8165 8164 8163 8166 8174 8176 8169 
8176 8159 8166 8171 8168 8161 8156 8166 8166 8157 8165 8160 8166 8162 8165 8162 8161 8163 8158 8159 8166 8163 8168 8155 8159 8158 8161 8165 8166 8163 8169 8171 8164 8169 8164 8159 8165 8165 8160 8166 8161 8168 8166 8165 8164 8163 8162 8160 8161 8165 8171 8167 8163 8165 8165 8169 8171 8169 8170 8170 8161 8168 8167 8169 8171 8172 8172 8174 8170 8167 8168 8169 8168 8162 8167 8168 8165 8170 8174 8172 
8174 8159 8159 8169 8162 8157 8162 8155 8153 8160 8159 8164 8161 8159 8162 8160 8162 8161 8160 8155 8164 8163 8168 8158 8153 8155 8160 8163 8164 8166 8166 8164 8161 8166 8164 8156 8162 8156 8148 8143 8146 8160 8164 8160 8165 8164 8164 8159 8159 8166 8167 8166 8160 8167 8165 8168 8169 8165 8168 8168 8168 8166 8164 8170 8176 8171 8174 8171 8168 8168 8166 8166 8167 8166 8168 8166 8165 8171 8171 8172 
8169 8164 8151 8165 8157 8163 8156 8151 8159 8158 8155 8166 8158 8159 8159 8158 8161 8160 8163 8154 8159 8157 8156 8160 8158 8155 8159 8163 8162 8166 8163 8161 8160 8157 8159 8159 8156 8135 8123 8109 8117 8142 8155 8159 8161 8152 8136 8135 8159 8164 8162 8163 8163 8169 8167 8168 8168 8170 8170 8168 8167 8161 8170 8167 8168 8171 8169 8168 8166 8165 8164 8165 8167 8167 8166 8169 8166 8169 8171 8172 
8167 8167 8165 8168 8163 8158 8161 8160 8154 8163 8155 8162 8164 8157 8159 8160 8160 8160 8165 8160 8157 8155 8141 8140 8149 8159 8157 8153 8150 8157 8155 8155 8144 8131 8131 8149 8149 8145 8121 8111 8120 8132 8132 8145 8149 8111 8111 8124 8158 8163 8158 8165 8160 8164 8172 8169 8172 8171 8176 8173 8172 8171 8170 8168 8174 8169 8173 8166 8162 8166 8167 8167 8166 8166 8170 8173 8171 8176 8173 8172 
8166 8161 8159 8166 8159 8165 8161 8160 8159 8166 8167 8168 8163 8157 8163 8151 8158 8159 8159 8158 8154 8151 8131 8128 8153 8153 8153 8135 8125 8119 8119 8119 8115 8115 8127 8133 8135 8123 8124 8123 8137 8145 8146 8158 8126 8116 8114 8144 8162 8161 8163 8163 8166 8170 8170 8171 8172 8174 8175 8167 8168 8166 8166 8171 8169 8170 8168 8166 8163 8167 8163 8168 8161 8166 8168 8171 8167 8176 8176 8174 
8161 8158 8159 8167 8161 8167 8166 8161 8162 8158 8166 8166 8161 8160 8156 8158 8153 8158 8155 8152 8145 8148 8130 8129 8137 8137 8136 8131 8118 8109 8109 8106 8111 8118 8132 8136 8145 8125 8122 8118 8111 8116 8152 8160 8136 8115 8108 8121 8158 8162 8167 8163 8165 8169 8170 8164 8157 8160 8168 8164 8166 8166 8172 8173 8173 8173 8168 8168 8161 8168 8165 8167 8164 8164 8168 8170 8168 8178 8177 8178 
8169 8166 8159 8171 8164 8171 8156 8167 8167 8154 8167 8160 8154 8161 8153 8153 8147 8144 8156 8149 8148 8145 8136 8123 8114 8115 8116 8127 8110 8105 8116 8105 8109 8121 8118 8134 8134 8111 8110 8149 8137 8113 8131 8141 8109 8110 8103 8116 8137 8152 8158 8161 8162 8166 8164 8143 8135 8138 8156 8165 8163 8168 8172 8171 8169 8170 8168 8170 8162 8166 8164 8166 8167 8168 8169 8164 8171 8173 8178 8176 
8170 8161 8155 8163 8158 8167 8156 8163 8167 8157 8156 8162 8158 8152 8146 8137 8145 8148 8154 8156 8149 8157 8144 8118 8131 8119 8115 8123 8109 8108 8106 8107 8110 8109 8117 8111 8110 8106 8124 8139 8136 8108 8118 8124 8115 8113 8108 8115 8121 8157 8160 8160 8167 8168 8154 8140 8135 8141 8161 8166 8166 8167 8168 8171 8170 8170 8166 8165 8169 8167 8164 8167 8166 8166 8167 8168 8167 8174 8176 8177 
8172 8167 8159 8166 8157 8163 8157 8160 8164 8166 8157 8158 8151 8155 8137 8150 8156 8150 8150 8151 8150 8161 8155 8143 8143 8122 8134 8134 8106 8111 8106 8100 8107 8105 8106 8107 8109 8114 8131 8112 8122 8107 8108 8115 8127 8117 8113 8109 8116 8144 8160 8159 8165 8168 8149 8138 8141 8147 8166 8165 8168 8169 8169 8169 8169 8170 8167 8166 8167 8170 8165 8167 8166 8165 8166 8169 8166 8173 8174 8174 
8176 8158 8168 8169 8164 8163 8155 8161 8163 8158 8159 8157 8149 8155 8152 8152 8154 8157 8161 8149 8141 8139 8146 8139 8130 8128 8127 8117 8111 8110 8105 8108 8103 8105 8111 8108 8109 8115 8115 8111 8123 8113 8104 8110 8118 8117 8119 8114 8115 8135 8161 8161 8164 8164 8144 8141 8141 8154 8165 8161 8167 8165 8168 8168 8168 8168 8166 8167 8167 8170 8167 8167 8165 8165 8169 8165 8169 8173 8172 8173 
8174 8166 8168 8165 8170 8162 8163 8166 8161 8158 8164 8162 8155 8155 8159 8152 8158 8155 8157 8130 8119 8142 8143 8129 8114 8122 8132 8131 8110 8108 8111 8107 8100 8105 8116 8116 8129 8137 8135 8136 8120 8115 8108 8108 8111 8113 8117 8130 8115 8134 8163 8163 8159 8154 8140 8139 8145 8161 8164 8159 8166 8164 8170 8166 8167 8165 8165 8164 8166 8168 8168 8169 8166 8166 8165 8166 8166 8171 8171 8172 
8179 8169 8162 8170 8165 8163 8168 8171 8164 8154 8152 8161 8162 8156 8160 8158 8162 8155 8148 8120 8140 8158 8161 8138 8121 8124 8128 8121 8116 8110 8102 8102 8107 8109 8124 8124 8137 8147 8145 8135 8130 8133 8104 8108 8115 8114 8113 8130 8122 8140 8157 8165 8161 8150 8143 8139 8152 8164 8164 8165 8167 8166 8169 8164 8165 8166 8165 8161 8166 8163 8167 8164 8163 8166 8167 8166 8165 8165 8172 8171 
8181 8175 8171 8168 8165 8165 8170 8162 8165 8154 8160 8163 8163 8155 8156 8157 8158 8152 8139 8147 8158 8158 8160 8144 8142 8120 8121 8119 8118 8108 8099 8105 8104 8112 8111 8110 8109 8109 8110 8120 8124 8143 8115 8112 8133 8129 8118 8141 8134 8142 8150 8164 8161 8145 8140 8142 8155 8167 8167 8166 8169 8163 8167 8163 8164 8165 8164 8162 8165 8162 8167 8167 8163 8165 8170 8168 8167 8165 8168 8169 
8176 8169 8169 8169 8169 8168 8171 8161 8163 8158 8162 8167 8157 8155 8157 8160 8150 8151 8152 8151 8152 8153 8145 8139 8141 8129 8130 8116 8120 8108 8102 8107 8109 8115 8110 8105 8108 8106 8107 8111 8104 8122 8118 8123 8157 8145 8117 8139 8151 8152 8151 8162 8153 8143 8138 8146 8166 8168 8167 8167 8164 8164 8163 8163 8163 8166 8165 8164 8163 8163 8162 8167 8165 8170 8167 8164 8163 8165 8168 8162 
8174 8174 8167 8171 8171 8170 8165 8165 8159 8161 8164 8162 8157 8156 8156 8151 8155 8149 8148 8158 8156 8150 8140 8153 8149 8141 8122 8115 8109 8104 8108 8109 8109 8106 8104 8107 8106 8105 8104 8108 8099 8112 8130 8143 8158 8146 8125 8119 8154 8158 8157 8152 8143 8141 8138 8154 8165 8168 8164 8160 8162 8164 8164 8163 8166 8168 8166 8167 8166 8165 8164 8162 8165 8164 8165 8168 8163 8165 8160 8164 
8175 8174 8179 8172 8171 8168 8170 8161 8162 8163 8163 8157 8156 8154 8152 8149 8151 8149 8157 8150 8157 8149 8152 8153 8143 8125 8112 8111 8110 8105 8107 8114 8123 8103 8101 8119 8112 8108 8111 8106 8100 8109 8133 8151 8155 8158 8138 8122 8142 8160 8158 8147 8138 8142 8139 8160 8167 8166 8169 8165 8160 8162 8162 8167 8165 8165 8165 8166 8167 8166 8163 8160 8162 8167 8168 8166 8163 8164 8160 8166 
8172 8171 8179 8163 8167 8172 8161 8168 8161 8160 8156 8162 8153 8149 8161 8153 8150 8155 8164 8161 8157 8157 8152 8137 8119 8111 8111 8108 8106 8110 8110 8108 8109 8101 8106 8115 8110 8105 8109 8101 8100 8112 8144 8131 8146 8151 8144 8129 8140 8157 8162 8144 8138 8140 8147 8167 8167 8166 8168 8163 8163 8168 8166 8167 8168 8169 8164 8162 8166 8166 8168 8165 8163 8168 8170 8169 8167 8164 8162 8168 
8173 8166 8170 8159 8164 8166 8155 8160 8161 8160 8158 8162 8158 8154 8164 8164 8155 8157 8162 8160 8162 8152 8132 8112 8114 8110 8109 8109 8109 8111 8104 8108 8109 8109 8108 8110 8114 8111 8101 8098 8100 8119 8155 8134 8130 8138 8155 8147 8136 8162 8156 8135 8132 8142 8155 8168 8165 8166 8165 8164 8165 8170 8169 8168 8170 8168 8165 8163 8165 8165 8167 8167 8166 8170 8173 8172 8174 8169 8168 8168 
8172 8168 8162 8159 8155 8164 8159 8161 8166 8164 8165 8162 8159 8162 8154 8155 8154 8160 8154 8150 8160 8146 8119 8111 8111 8109 8105 8107 8106 8106 8105 8110 8110 8107 8108 8109 8113 8112 8106 8106 8105 8128 8156 8150 8131 8138 8148 8152 8149 8164 8149 8134 8134 8146 8163 8171 8171 8169 8169 8166 8166 8172 8169 8168 8172 8168 8164 8163 8164 8163 8166 8167 8168 8172 8177 8176 8176 8175 8172 8173 
8174 8166 8167 8161 8164 8160 8160 8165 8165 8163 8159 8163 8168 8170 8150 8155 8152 8152 8151 8157 8155 8142 8110 8110 8114 8108 8102 8109 8110 8101 8102 8111 8114 8107 8104 8105 8107 8112 8111 8110 8109 8130 8153 8156 8154 8143 8158 8163 8161 8156 8142 8136 8137 8153 8167 8168 8168 8164 8167 8170 8169 8170 8170 8169 8172 8171 8164 8162 8164 8161 8165 8166 8167 8173 8176 8178 8177 8179 8174 8174 
8175 8174 8164 8159 8163 8161 8164 8154 8168 8163 8163 8158 8165 8165 8156 8157 8160 8164 8151 8161 8154 8131 8107 8105 8104 8115 8115 8115 8107 8108 8112 8112 8114 8111 8105 8104 8106 8113 8115 8114 8107 8128 8150 8158 8157 8152 8163 8164 8159 8150 8135 8132 8131 8158 8165 8168 8170 8167 8170 8171 8172 8171 8171 8172 8169 8172 8165 8166 8165 8164 8166 8165 8170 8171 8171 8179 8177 8178 8177 8178 
8177 8167 8162 8161 8165 8161 8164 8161 8159 8159 8160 8157 8166 8161 8163 8168 8165 8158 8162 8160 8160 8145 8121 8111 8104 8120 8145 8137 8118 8113 8127 8114 8113 8115 8112 8118 8113 8110 8115 8124 8130 8119 8144 8158 8156 8160 8167 8166 8156 8141 8132 8132 8138 8161 8161 8167 8171 8166 8169 8170 8165 8169 8167 8171 8172 8168 8167 8166 8166 8167 8165 8168 8169 8172 8172 8176 8177 8182 8178 8181 
8177 8175 8155 8169 8168 8170 8169 8164 8162 8158 8159 8166 8163 8160 8161 8165 8165 8159 8159 8151 8156 8146 8127 8114 8107 8117 8129 8127 8125 8118 8119 8121 8120 8115 8116 8122 8119 8115 8121 8131 8134 8121 8133 8144 8146 8157 8151 8157 8154 8136 8137 8136 8147 8161 8158 8166 8172 8168 8171 8167 8170 8169 8165 8170 8170 8168 8169 8163 8165 8167 8166 8168 8168 8173 8173 8177 8177 8181 8181 8184 
8174 8175 8166 8172 8164 8166 8166 8165 8171 8172 8172 8161 8164 8150 8162 8172 8166 8159 8147 8136 8135 8126 8128 8129 8122 8120 8126 8120 8121 8123 8122 8122 8122 8120 8123 8126 8122 8125 8124 8127 8142 8146 8145 8149 8146 8147 8150 8151 8143 8138 8140 8142 8152 8162 8163 8165 8163 8171 8169 8169 8166 8168 8168 8172 8169 8168 8170 8164 8165 8166 8166 8168 8168 8171 8171 8180 8181 8182 8184 8185 
8177 8166 8171 8174 8168 8171 8172 8169 8170 8160 8165 8165 8164 8156 8164 8162 8160 8148 8127 8125 8132 8127 8134 8132 8138 8134 8133 8131 8125 8126 8123 8121 8122 8119 8123 8128 8136 8138 8135 8136 8141 8152 8154 8154 8147 8149 8154 8151 8139 8139 8137 8152 8161 8167 8162 8164 8169 8169 8167 8166 8167 8169 8170 8171 8169 8166 8166 8164 8168 8167 8170 8165 8169 8169 8172 8176 8179 8179 8183 8187 
8176 8163 8170 8171 8165 8174 8177 8164 8167 8163 8169 8167 8168 8169 8159 8163 8161 8155 8146 8127 8126 8136 8138 8142 8142 8142 8143 8141 8127 8124 8133 8131 8128 8116 8124 8126 8133 8139 8136 8139 8139 8155 8153 8151 8146 8154 8151 8151 8136 8138 8134 8157 8162 8166 8159 8163 8165 8169 8164 8168 8170 8173 8170 8169 8164 8165 8164 8167 8170 8171 8170 8171 8176 8171 8173 8179 8179 8186 8188 8188 
8179 8165 8163 8164 8170 8164 8175 8163 8164 8167 8171 8162 8163 8170 8162 8166 8163 8158 8145 8123 8130 8131 8131 8143 8138 8140 8140 8138 8134 8131 8135 8138 8131 8131 8127 8129 8130 8136 8133 8140 8140 8150 8153 8145 8146 8152 8154 8147 8141 8145 8146 8168 8165 8168 8157 8167 8169 8167 8165 8167 8170 8171 8168 8166 8164 8166 8165 8168 8173 8175 8171 8171 8174 8173 8175 8177 8177 8184 8187 8196 
8177 8169 8160 8170 8167 8169 8162 8175 8153 8157 8170 8166 8167 8170 8166 8161 8161 8160 8153 8128 8126 8130 8137 8140 8130 8141 8141 8143 8143 8144 8130 8142 8134 8135 8137 8126 8133 8139 8145 8142 8138 8139 8144 8144 8146 8146 8145 8146 8144 8145 8152 8162 8163 8168 8162 8168 8170 8168 8167 8171 8170 8172 8174 8167 8167 8169 8167 8167 8172 8168 8176 8174 8171 8173 8173 8176 8181 8186 8191 8193 
8175 8165 8169 8171 8168 8162 8159 8174 8169 8161 8156 8162 8157 8166 8166 8150 8161 8165 8146 8130 8126 8137 8139 8137 8140 8140 8141 8140 8140 8137 8140 8142 8141 8140 8142 8137 8139 8138 8140 8142 8137 8137 8136 8143 8142 8146 8146 8144 8142 8149 8155 8168 8157 8166 8167 8167 8168 8170 8174 8175 8174 8176 8171 8166 8166 8171 8169 8167 8172 8168 8172 8173 8175 8177 8173 8175 8175 8182 8194 8191 
8171 8168 8170 8171 8175 8171 8168 8171 8156 8167 8157 8164 8159 8169 8166 8162 8163 8167 8156 8134 8131 8138 8140 8147 8147 8138 8138 8140 8135 8138 8143 8137 8140 8146 8145 8142 8138 8137 8136 8135 8139 8142 8135 8141 8143 8150 8149 8147 8154 8163 8172 8172 8161 8159 8167 8170 8170 8171 8172 8171 8174 8175 8171 8172 8171 8171 8164 8167 8170 8167 8171 8173 8174 8172 8172 8173 8168 8178 8192 8188 
8175 8177 8166 8173 8164 8161 8169 8171 8158 8169 8159 8164 8161 8172 8164 8161 8162 8158 8167 8156 8135 8142 8140 8149 8148 8141 8139 8142 8144 8138 8138 8138 8142 8148 8147 8142 8141 8139 8135 8139 8140 8140 8145 8144 8149 8150 8145 8160 8168 8183 8170 8169 8160 8163 8167 8168 8168 8169 8170 8174 8176 8175 8172 8172 8169 8170 8166 8163 8166 8169 8171 8169 8171 8171 8165 8167 8166 8175 8186 8183 
8173 8170 8171 8174 8168 8164 8165 8165 8153 8168 8170 8161 8171 8166 8165 8161 8163 8161 8155 8153 8145 8142 8142 8149 8146 8125 8141 8144 8149 8150 8138 8144 8149 8145 8152 8146 8141 8140 8138 8141 8145 8149 8145 8148 8147 8155 8149 8167 8192 8189 8168 8167 8166 8167 8167 8168 8172 8172 8175 8175 8174 8173 8170 8172 8175 8171 8165 8168 8168 8168 8167 8169 8167 8168 8166 8170 8158 8168 8172 8172 
8166 8170 8172 8164 8157 8159 8166 8156 8165 8165 8168 8154 8166 8166 8164 8154 8153 8165 8158 8161 8150 8139 8142 8151 8149 8132 8123 8146 8152 8157 8155 8142 8150 8148 8144 8152 8147 8143 8140 8148 8144 8150 8146 8147 8155 8147 8158 8164 8173 8173 8163 8165 8159 8163 8166 8168 8169 8174 8172 8171 8169 8171 8168 8172 8169 8173 8169 8168 8165 8164 8169 8165 8165 8164 8162 8163 8159 8159 8159 8161 
8166 8173 8169 8148 8159 8156 8163 8149 8158 8155 8158 8155 8154 8161 8163 8160 8154 8163 8162 8161 8145 8144 8140 8148 8154 8140 8150 8150 8153 8146 8143 8151 8146 8148 8133 8144 8143 8133 8138 8148 8148 8144 8139 8147 8154 8151 8157 8160 8163 8162 8162 8159 8156 8159 8163 8163 8167 8171 8171 8172 8171 8173 8170 8170 8169 8173 8170 8169 8169 8165 8168 8160 8160 8157 8159 8160 8160 8151 8153 8163 
8155 8149 8138 8143 8152 8141 8142 8157 8155 8147 8157 8151 8146 8161 8158 8142 8145 8152 8158 8148 8150 8133 8138 8145 8154 8148 8153 8153 8150 8150 8153 8137 8142 8153 8139 8148 8144 8145 8138 8149 8148 8147 8144 8143 8151 8148 8162 8161 8166 8164 8157 8156 8155 8161 8158 8162 8170 8172 8174 8171 8172 8172 8171 8168 8166 8171 8168 8170 8173 8171 8166 8165 8163 8158 8157 8159 8152 8153 8151 8153 
8149 8133 8125 8126 8129 8127 8128 8139 8133 8131 8138 8139 8134 8144 8140 8135 8132 8142 8141 8139 8142 8130 8131 8139 8151 8149 8151 8157 8153 8153 8141 8142 8140 8144 8143 8142 8139 8144 8144 8145 8151 8146 8140 8148 8151 8154 8164 8167 8166 8169 8167 8168 8164 8167 8168 8173 8182 8179 8185 8186 8179 8181 8181 8183 8182 8183 8180 8183 8182 8179 8179 8172 8169 8165 8165 8163 8158 8157 8155 8152 


