P2
80 60
8435
8306 8307 8303 8306 8304 8303 8300 8300 8302 8301 8302 8302 8300 8301 8299 8302 8304 8305 8302 8304 8310 8306 8309 8306 8306 8302 8302 8303 8308 8306 8303 8302 8303 8297 8303 8300 8306 8303 8306 8307 8309 8307 8306 8304 8304 8306 8305 8307 8310 8304 8303 8301 8302 8299 8300 8302 8304 8302 8304 8305 8307 8306 8304 8306 8308 8309 8311 8311 8314 8314 8320 8317 8317 8319 8317 8324 8322 8319 8315 8318 
8305 8304 8305 8304 8305 8307 8303 8302 8303 8302 8306 8302 8304 8303 8299 8303 8304 8304 8303 8305 8309 8310 8310 8308 8309 8302 8301 8304 8306 8308 8303 8302 8303 8302 8302 8302 8306 8306 8308 8308 8309 8306 8308 8304 8307 8308 8307 8308 8308 8304 8304 8304 8299 8302 8302 8303 8301 8304 8307 8307 8306 8305 8306 8305 8308 8311 8310 8308 8315 8316 8317 8317 8319 8321 8322 8325 8324 8324 8319 8311 
8301 8304 8307 8304 8303 8303 8302 8304 8301 8299 8305 8301 8298 8300 8299 8300 8300 8302 8300 8304 8309 8307 8311 8309 8305 8300 8302 8305 8304 8304 8303 8301 8304 8303 8303 8304 8307 8304 8309 8308 8309 8308 8308 8301 8306 8306 8306 8302 8307 8305 8305 8303 8301 8299 8301 8301 8300 8304 8306 8303 8307 8306 8304 8307 8307 8309 8310 8309 8309 8314 8317 8314 8316 8317 8314 8317 8321 8322 8320 8311 
8301 8304 8304 8305 8302 8301 8300 8301 8302 8300 8299 8295 8295 8299 8298 8298 8301 8302 8298 8300 8307 8305 8306 8306 8307 8299 8301 8300 8302 8306 8302 8298 8301 8298 8303 8303 8301 8300 8305 8308 8308 8308 8308 8307 8300 8302 8301 8303 8306 8304 8301 8303 8298 8300 8298 8302 8299 8301 8304 8304 8308 8307 8307 8304 8301 8309 8306 8306 8310 8311 8314 8309 8307 8310 8311 8313 8315 8318 8311 8309 
8298 8302 8303 8300 8301 8297 8299 8300 8298 8300 8298 8293 8294 8295 8296 8298 8300 8302 8298 8297 8305 8305 8306 8305 8304 8302 8301 8299 8301 8303 8302 8299 8299 8299 8302 8304 8302 8301 8307 8307 8306 8308 8311 8308 8305 8303 8304 8302 8306 8300 8304 8302 8300 8298 8300 8302 8297 8298 8300 8304 8304 8303 8301 8302 8305 8306 8303 8305 8305 8308 8315 8304 8307 8305 8303 8306 8310 8307 8305 8305 
8299 8300 8301 8294 8299 8298 8299 8301 8299 8295 8292 8293 8292 8293 8294 8296 8300 8300 8298 8300 8304 8306 8305 8308 8306 8302 8301 8301 8302 8305 8301 8298 8300 8298 8300 8303 8303 8300 8304 8304 8308 8305 8310 8305 8303 8300 8300 8298 8306 8303 8301 8299 8299 8299 8300 8300 8301 8298 8299 8300 8303 8304 8301 8302 8300 8303 8306 8299 8304 8306 8309 8303 8301 8303 8302 8302 8302 8302 8299 8304 
8296 8296 8300 8294 8298 8295 8299 8299 8298 8292 8294 8291 8294 8295 8293 8298 8300 8301 8298 8301 8306 8305 8307 8306 8304 8298 8297 8300 8302 8305 8301 8299 8298 8297 8299 8302 8304 8300 8303 8306 8305 8301 8305 8301 8300 8301 8302 8300 8300 8300 8303 8300 8298 8299 8300 8297 8299 8299 8300 8300 8298 8305 8299 8298 8299 8299 8302 8298 8301 8303 8304 8301 8298 8296 8301 8302 8297 8295 8296 8295 
8300 8297 8302 8295 8299 8301 8296 8300 8299 8296 8292 8294 8298 8297 8296 8297 8298 8301 8299 8300 8305 8305 8307 8306 8308 8301 8297 8298 8302 8303 8300 8300 8298 8296 8301 8299 8300 8298 8302 8302 8302 8304 8305 8305 8299 8298 8301 8302 8302 8299 8299 8297 8299 8298 8300 8299 8296 8297 8300 8297 8300 8300 8299 8300 8297 8297 8301 8297 8297 8305 8301 8294 8296 8295 8297 8293 8300 8290 8289 8291 
8297 8300 8297 8297 8297 8295 8297 8300 8299 8296 8291 8291 8295 8295 8292 8296 8298 8298 8297 8300 8300 8303 8304 8307 8302 8297 8297 8295 8299 8303 8300 8298 8296 8295 8300 8300 8301 8297 8302 8300 8304 8303 8301 8301 8301 8302 8300 8298 8301 8295 8300 8298 8297 8296 8296 8297 8295 8294 8299 8295 8297 8299 8297 8296 8295 8297 8297 8293 8296 8301 8303 8292 8294 8294 8292 8293 8292 8290 8283 8284 
8296 8295 8300 8295 8295 8297 8294 8297 8297 8295 8292 8291 8291 8297 8292 8291 8295 8296 8299 8299 8301 8301 8304 8301 8299 8296 8293 8297 8295 8300 8297 8296 8294 8293 8298 8300 8300 8296 8302 8302 8303 8301 8303 8302 8297 8302 8300 8298 8297 8297 8297 8297 8294 8296 8294 8293 8293 8297 8296 8295 8296 8297 8294 8295 8293 8296 8298 8290 8294 8296 8293 8290 8290 8289 8285 8285 8284 8283 8283 8279 
8293 8293 8296 8294 8295 8291 8292 8298 8297 8294 8292 8292 8289 8294 8290 8290 8292 8293 8292 8294 8300 8302 8301 8300 8296 8296 8294 8295 8296 8295 8296 8290 8293 8293 8295 8294 8294 8296 8300 8297 8301 8301 8301 8302 8300 8299 8299 8298 8298 8294 8295 8295 8293 8292 8293 8292 8291 8296 8295 8293 8294 8296 8292 8295 8290 8293 8295 8292 8295 8290 8292 8286 8283 8284 8284 8284 8280 8281 8281 8279 
8294 8293 8298 8295 8294 8292 8290 8297 8291 8291 8292 8289 8287 8289 8289 8291 8295 8292 8289 8291 8300 8300 8298 8300 8296 8293 8291 8295 8295 8293 8295 8290 8289 8292 8291 8294 8295 8291 8295 8293 8294 8298 8300 8300 8301 8301 8300 8298 8298 8294 8297 8297 8294 8292 8294 8293 8290 8292 8296 8293 8293 8293 8292 8292 8292 8291 8294 8294 8293 8290 8289 8285 8284 8284 8279 8282 8281 8276 8281 8277 
8297 8295 8296 8292 8288 8292 8290 8291 8290 8289 8293 8287 8288 8291 8287 8291 8290 8291 8291 8294 8297 8299 8298 8299 8297 8288 8290 8293 8293 8295 8296 8289 8289 8289 8291 8291 8295 8292 8295 8294 8294 8298 8301 8301 8301 8301 8300 8295 8299 8295 8296 8296 8294 8292 8294 8293 8290 8294 8294 8291 8292 8291 8288 8288 8288 8291 8292 8290 8290 8288 8289 8287 8288 8280 8278 8278 8279 8274 8275 8278 
8298 8298 8294 8290 8291 8289 8288 8292 8288 8289 8290 8290 8289 8291 8287 8292 8292 8292 8289 8292 8298 8297 8300 8297 8295 8291 8292 8294 8293 8293 8294 8292 8290 8289 8292 8291 8296 8292 8295 8293 8295 8295 8300 8297 8298 8298 8295 8292 8296 8296 8294 8297 8294 8294 8295 8292 8290 8293 8292 8292 8289 8289 8291 8290 8292 8293 8290 8288 8290 8290 8289 8285 8286 8285 8280 8281 8279 8276 8274 8275 
8294 8293 8294 8291 8289 8288 8284 8289 8291 8292 8290 8286 8285 8291 8287 8291 8292 8294 8291 8291 8293 8297 8297 8297 8293 8288 8289 8292 8292 8295 8292 8289 8287 8287 8287 8290 8292 8293 8293 8293 8293 8294 8292 8292 8290 8295 8291 8292 8294 8292 8295 8296 8292 8293 8292 8292 8288 8288 8291 8288 8291 8288 8286 8288 8291 8291 8292 8289 8289 8290 8290 8283 8283 8283 8281 8279 8280 8278 8276 8275 
8292 8289 8295 8292 8290 8288 8285 8287 8290 8289 8289 8287 8286 8287 8287 8291 8294 8293 8291 8295 8295 8296 8297 8297 8291 8288 8289 8293 8292 8292 8290 8290 8285 8286 8288 8288 8292 8287 8291 8293 8291 8293 8292 8289 8289 8290 8286 8289 8291 8289 8294 8294 8291 8291 8291 8292 8289 8290 8289 8287 8288 8290 8286 8288 8290 8291 8290 8285 8288 8288 8288 8284 8283 8283 8282 8280 8278 8278 8275 8276 
8291 8289 8292 8291 8288 8288 8287 8288 8286 8286 8288 8287 8285 8288 8289 8291 8291 8289 8289 8290 8294 8296 8294 8297 8291 8290 8290 8290 8292 8293 8287 8287 8286 8284 8286 8287 8287 8283 8289 8287 8290 8290 8289 8290 8287 8287 8287 8285 8291 8290 8292 8294 8292 8291 8288 8288 8288 8287 8289 8289 8289 8290 8287 8287 8290 8292 8289 8287 8286 8287 8288 8283 8284 8281 8281 8280 8281 8277 8273 8273 
8290 8291 8289 8289 8288 8289 8285 8291 8289 8293 8288 8287 8288 8289 8288 8290 8291 8292 8286 8291 8291 8294 8295 8297 8294 8287 8288 8287 8290 8290 8289 8284 8288 8289 8288 8288 8286 8285 8288 8289 8290 8288 8294 8294 8289 8289 8289 8285 8290 8292 8292 8291 8289 8287 8286 8285 8282 8288 8287 8286 8287 8288 8287 8290 8291 8291 8293 8290 8288 8290 8291 8284 8284 8284 8278 8282 8280 8278 8275 8274 
8292 8293 8294 8291 8289 8285 8287 8288 8287 8288 8287 8289 8289 8289 8288 8290 8290 8293 8289 8286 8287 8289 8293 8295 8291 8291 8290 8285 8287 8288 8288 8288 8288 8288 8289 8289 8291 8285 8290 8287 8288 8288 8291 8288 8289 8293 8287 8287 8288 8288 8288 8288 8284 8287 8285 8285 8285 8286 8285 8287 8287 8288 8289 8285 8292 8292 8288 8287 8288 8287 8289 8285 8283 8285 8279 8278 8280 8274 8271 8275 
8289 8292 8292 8287 8283 8284 8286 8285 8286 8285 8287 8288 8287 8288 8285 8288 8291 8287 8283 8282 8278 8269 8265 8285 8289 8287 8285 8286 8284 8285 8285 8283 8286 8288 8291 8290 8286 8286 8287 8286 8287 8285 8293 8289 8287 8289 8284 8281 8286 8288 8286 8290 8285 8281 8284 8286 8283 8288 8286 8284 8286 8287 8286 8293 8294 8292 8288 8286 8286 8287 8288 8281 8283 8280 8278 8281 8276 8275 8270 8281 
8291 8291 8290 8285 8282 8282 8282 8285 8284 8284 8288 8285 8284 8287 8285 8286 8287 8287 8282 8273 8239 8238 8235 8269 8283 8282 8283 8284 8282 8283 8282 8282 8281 8287 8287 8288 8286 8278 8285 8283 8285 8287 8289 8286 8285 8285 8283 8286 8282 8282 8284 8283 8282 8282 8284 8285 8283 8286 8287 8282 8285 8287 8284 8288 8290 8289 8291 8286 8288 8285 8288 8281 8281 8280 8276 8281 8278 8273 8271 8272 
8287 8288 8290 8286 8285 8281 8282 8284 8285 8287 8288 8286 8287 8284 8280 8285 8288 8283 8281 8273 8238 8238 8234 8263 8284 8282 8283 8285 8284 8284 8279 8274 8273 8279 8284 8282 8270 8256 8262 8267 8282 8284 8286 8281 8282 8282 8280 8280 8280 8283 8284 8285 8283 8284 8285 8286 8283 8286 8287 8284 8287 8285 8284 8286 8288 8289 8287 8286 8285 8284 8289 8281 8282 8282 8277 8278 8279 8274 8273 8271 
8289 8289 8288 8288 8283 8281 8281 8284 8283 8284 8287 8284 8283 8283 8283 8285 8286 8282 8277 8272 8240 8238 8238 8256 8282 8278 8282 8283 8271 8258 8248 8225 8253 8257 8254 8258 8262 8233 8220 8244 8256 8257 8277 8279 8281 8274 8269 8273 8274 8276 8282 8282 8282 8283 8285 8285 8284 8284 8286 8282 8286 8284 8284 8284 8288 8289 8289 8285 8284 8282 8283 8281 8278 8277 8277 8276 8278 8272 8270 8270 
8287 8288 8289 8284 8282 8280 8279 8284 8282 8282 8283 8287 8288 8286 8285 8284 8284 8280 8275 8279 8246 8239 8242 8250 8284 8280 8282 8266 8224 8211 8205 8221 8267 8254 8228 8230 8237 8245 8215 8243 8259 8227 8236 8270 8270 8263 8261 8242 8229 8258 8276 8279 8280 8284 8284 8286 8284 8288 8287 8284 8287 8285 8285 8285 8285 8286 8289 8284 8282 8282 8283 8279 8281 8278 8277 8277 8278 8275 8273 8275 
8288 8286 8288 8284 8284 8283 8281 8284 8287 8288 8289 8288 8288 8289 8285 8287 8283 8283 8280 8281 8251 8246 8244 8248 8277 8276 8280 8258 8211 8207 8206 8244 8255 8238 8229 8237 8230 8236 8218 8220 8224 8218 8234 8253 8265 8261 8240 8204 8209 8213 8230 8266 8278 8280 8281 8285 8284 8285 8286 8282 8282 8285 8283 8284 8284 8287 8287 8285 8284 8282 8286 8278 8276 8277 8274 8278 8275 8278 8274 8270 
8287 8285 8288 8285 8283 8280 8284 8290 8285 8287 8289 8286 8287 8287 8285 8284 8284 8285 8281 8270 8254 8240 8242 8239 8271 8280 8277 8274 8215 8213 8219 8233 8225 8202 8223 8245 8234 8211 8207 8208 8208 8215 8236 8248 8243 8243 8212 8202 8199 8196 8207 8237 8275 8276 8282 8283 8280 8284 8285 8279 8282 8285 8284 8282 8284 8283 8287 8282 8281 8281 8285 8278 8274 8277 8274 8275 8277 8275 8272 8275 
8285 8282 8286 8285 8284 8281 8282 8286 8284 8287 8283 8285 8286 8286 8282 8285 8285 8284 8280 8273 8259 8241 8246 8241 8273 8277 8277 8278 8249 8246 8235 8233 8213 8193 8202 8226 8236 8231 8200 8200 8204 8224 8245 8254 8223 8228 8203 8199 8210 8203 8216 8218 8268 8279 8279 8281 8278 8282 8284 8282 8283 8284 8280 8280 8285 8285 8282 8280 8284 8277 8280 8280 8274 8277 8273 8276 8278 8275 8272 8274 
8282 8283 8284 8283 8282 8282 8281 8285 8283 8284 8283 8282 8285 8284 8279 8282 8285 8283 8282 8275 8266 8240 8244 8242 8267 8276 8279 8275 8256 8269 8251 8247 8210 8187 8194 8207 8220 8246 8221 8205 8209 8218 8232 8222 8209 8220 8213 8211 8224 8222 8227 8220 8242 8275 8279 8280 8281 8282 8281 8280 8281 8280 8278 8281 8281 8281 8282 8279 8280 8279 8281 8271 8275 8273 8275 8280 8277 8272 8271 8272 
8282 8282 8286 8284 8281 8284 8282 8284 8284 8286 8284 8283 8284 8283 8284 8282 8282 8283 8278 8273 8268 8238 8245 8243 8261 8275 8277 8259 8265 8274 8270 8260 8207 8194 8193 8200 8202 8240 8243 8216 8203 8215 8217 8206 8214 8232 8237 8212 8235 8218 8218 8247 8238 8276 8279 8281 8279 8282 8281 8278 8281 8280 8278 8280 8280 8281 8278 8274 8275 8274 8277 8274 8275 8274 8274 8275 8278 8275 8273 8274 
8283 8282 8285 8282 8283 8282 8286 8284 8284 8285 8282 8284 8281 8283 8279 8280 8279 8283 8281 8276 8274 8244 8246 8245 8259 8274 8275 8249 8259 8272 8262 8244 8219 8209 8215 8212 8199 8230 8242 8224 8206 8215 8218 8220 8220 8209 8227 8225 8245 8239 8222 8265 8256 8275 8280 8282 8280 8278 8283 8280 8283 8281 8281 8280 8283 8282 8281 8279 8275 8279 8279 8276 8276 8277 8275 8276 8276 8275 8272 8273 
8283 8283 8283 8282 8284 8282 8281 8282 8283 8282 8280 8280 8280 8281 8279 8279 8282 8279 8276 8277 8278 8243 8245 8246 8256 8272 8276 8269 8247 8255 8237 8260 8226 8225 8238 8208 8213 8216 8216 8217 8205 8209 8211 8207 8209 8200 8197 8220 8260 8265 8245 8259 8261 8276 8278 8281 8276 8281 8280 8277 8280 8279 8284 8279 8280 8282 8280 8279 8276 8276 8279 8276 8276 8278 8274 8277 8277 8275 8272 8270 
8283 8282 8285 8282 8282 8283 8282 8280 8281 8282 8279 8280 8277 8279 8280 8279 8279 8278 8276 8276 8276 8250 8248 8251 8251 8266 8269 8261 8237 8222 8220 8250 8227 8237 8228 8209 8212 8228 8218 8212 8214 8215 8214 8220 8223 8203 8192 8196 8228 8270 8274 8260 8266 8280 8278 8278 8277 8277 8282 8277 8278 8279 8277 8279 8278 8280 8279 8276 8275 8277 8279 8272 8275 8277 8276 8274 8275 8276 8270 8272 
8287 8282 8287 8283 8284 8283 8285 8281 8283 8283 8281 8278 8279 8281 8280 8279 8279 8278 8276 8276 8278 8253 8248 8252 8248 8259 8257 8246 8238 8227 8218 8251 8236 8230 8211 8208 8209 8213 8221 8214 8214 8212 8226 8240 8229 8203 8193 8193 8212 8241 8277 8276 8267 8281 8278 8283 8280 8276 8278 8279 8278 8278 8276 8276 8279 8279 8280 8278 8280 8277 8280 8274 8273 8273 8273 8276 8275 8273 8272 8275 
8284 8284 8288 8287 8286 8285 8284 8283 8283 8283 8281 8282 8280 8279 8277 8281 8282 8283 8279 8277 8279 8260 8247 8249 8245 8265 8253 8253 8228 8213 8214 8242 8243 8219 8210 8212 8208 8206 8219 8215 8215 8210 8222 8219 8224 8210 8221 8199 8228 8255 8272 8281 8277 8281 8276 8278 8277 8279 8280 8277 8277 8278 8277 8279 8280 8280 8277 8276 8275 8274 8277 8274 8276 8274 8270 8274 8276 8277 8274 8271 
8285 8285 8287 8286 8286 8282 8283 8283 8286 8284 8286 8282 8281 8284 8278 8281 8283 8282 8279 8278 8282 8266 8243 8246 8243 8260 8267 8258 8231 8209 8206 8224 8226 8216 8213 8216 8215 8211 8218 8217 8214 8211 8214 8206 8224 8223 8219 8204 8220 8271 8279 8280 8279 8277 8277 8277 8279 8277 8281 8277 8279 8279 8279 8280 8277 8279 8275 8276 8274 8276 8277 8272 8277 8275 8275 8273 8277 8273 8273 8271 
8288 8287 8290 8289 8285 8286 8282 8287 8290 8291 8287 8284 8281 8285 8282 8284 8281 8280 8279 8282 8283 8273 8247 8248 8241 8242 8246 8233 8227 8216 8210 8221 8232 8217 8215 8217 8219 8215 8218 8218 8216 8215 8212 8208 8218 8226 8242 8231 8220 8268 8277 8278 8277 8278 8276 8278 8277 8278 8278 8275 8279 8280 8278 8278 8277 8278 8278 8274 8276 8271 8280 8275 8275 8276 8273 8274 8275 8274 8272 8275 
8290 8291 8290 8292 8288 8284 8288 8291 8290 8287 8283 8283 8281 8284 8278 8283 8280 8279 8278 8278 8284 8279 8250 8252 8246 8252 8260 8233 8254 8226 8214 8211 8230 8216 8216 8223 8219 8218 8220 8225 8222 8221 8222 8218 8220 8238 8254 8267 8253 8249 8279 8281 8276 8277 8276 8279 8276 8277 8279 8275 8278 8279 8275 8276 8277 8280 8278 8275 8275 8275 8281 8279 8274 8278 8277 8279 8278 8278 8273 8273 
8291 8289 8290 8291 8285 8286 8287 8288 8286 8285 8283 8279 8281 8282 8279 8281 8280 8278 8277 8277 8282 8279 8252 8255 8244 8252 8255 8249 8230 8226 8214 8218 8251 8226 8221 8225 8220 8222 8220 8225 8228 8223 8225 8214 8221 8262 8265 8254 8275 8270 8276 8281 8279 8277 8274 8277 8278 8277 8281 8274 8276 8277 8274 8277 8278 8279 8278 8275 8274 8275 8278 8278 8275 8277 8277 8277 8280 8279 8272 8274 
8290 8290 8291 8287 8287 8286 8288 8288 8284 8286 8287 8282 8279 8283 8279 8280 8278 8280 8278 8278 8282 8279 8259 8252 8246 8248 8268 8264 8230 8225 8236 8237 8249 8230 8222 8226 8225 8225 8224 8226 8232 8221 8221 8204 8206 8264 8272 8254 8266 8277 8276 8281 8278 8278 8277 8277 8277 8278 8278 8274 8273 8276 8273 8274 8274 8280 8279 8275 8275 8276 8276 8276 8278 8278 8278 8280 8284 8281 8277 8277 
8291 8288 8286 8286 8286 8288 8289 8290 8283 8285 8279 8279 8280 8279 8279 8280 8278 8277 8278 8278 8283 8284 8263 8250 8246 8244 8264 8256 8230 8223 8252 8263 8257 8235 8229 8226 8224 8223 8227 8229 8225 8231 8227 8205 8234 8280 8287 8284 8268 8290 8291 8288 8285 8277 8275 8277 8277 8277 8275 8272 8274 8276 8272 8275 8277 8275 8278 8272 8276 8274 8279 8277 8278 8279 8277 8279 8282 8283 8276 8277 
8292 8289 8286 8284 8287 8289 8285 8288 8283 8283 8282 8281 8282 8281 8283 8279 8279 8283 8276 8280 8285 8285 8261 8251 8247 8238 8248 8245 8227 8225 8253 8264 8263 8239 8221 8220 8222 8218 8247 8226 8220 8226 8229 8228 8273 8283 8287 8293 8292 8298 8304 8303 8298 8287 8282 8279 8279 8277 8279 8275 8274 8275 8273 8277 8277 8276 8275 8272 8274 8280 8280 8277 8277 8280 8279 8277 8279 8281 8277 8275 
8289 8286 8287 8282 8283 8285 8285 8286 8286 8286 8285 8282 8285 8284 8284 8285 8282 8281 8279 8281 8294 8296 8273 8261 8256 8244 8254 8255 8237 8232 8253 8277 8269 8259 8222 8222 8225 8227 8249 8257 8226 8242 8231 8235 8288 8298 8301 8314 8313 8310 8309 8306 8298 8282 8280 8280 8276 8273 8278 8274 8274 8274 8274 8273 8275 8279 8273 8275 8274 8279 8280 8281 8280 8279 8278 8279 8282 8279 8278 8273 
8288 8285 8288 8287 8280 8283 8285 8285 8286 8288 8288 8285 8288 8288 8285 8285 8281 8286 8282 8283 8289 8296 8296 8300 8299 8284 8286 8284 8280 8271 8265 8283 8277 8276 8237 8235 8234 8256 8251 8301 8263 8294 8248 8248 8307 8327 8327 8331 8329 8322 8322 8313 8298 8287 8281 8280 8277 8276 8277 8276 8276 8274 8275 8274 8276 8276 8275 8271 8274 8276 8280 8279 8278 8278 8279 8280 8279 8279 8276 8279 
8289 8287 8290 8286 8287 8286 8284 8285 8286 8287 8288 8286 8289 8288 8287 8286 8288 8286 8284 8284 8287 8293 8296 8303 8303 8303 8303 8307 8314 8317 8315 8319 8317 8313 8317 8317 8320 8324 8320 8321 8323 8328 8327 8326 8327 8334 8337 8337 8332 8326 8323 8307 8297 8289 8276 8276 8273 8275 8274 8272 8275 8277 8271 8275 8275 8273 8276 8274 8275 8276 8280 8277 8277 8279 8280 8281 8278 8281 8279 8275 
8287 8288 8287 8287 8286 8287 8289 8287 8292 8289 8288 8288 8292 8289 8288 8289 8289 8288 8288 8289 8292 8295 8308 8318 8316 8310 8314 8316 8317 8321 8321 8322 8320 8320 8324 8325 8331 8331 8331 8324 8329 8329 8333 8333 8331 8337 8340 8339 8332 8323 8315 8305 8300 8286 8277 8275 8272 8274 8276 8272 8276 8275 8273 8276 8276 8278 8278 8273 8273 8277 8280 8280 8280 8279 8275 8281 8279 8277 8280 8276 
8288 8287 8289 8288 8286 8290 8290 8291 8290 8288 8289 8290 8291 8293 8288 8290 8292 8288 8285 8289 8293 8297 8317 8332 8337 8331 8331 8332 8336 8335 8333 8332 8332 8329 8333 8336 8338 8343 8340 8336 8339 8341 8343 8343 8341 8344 8345 8344 8338 8328 8316 8309 8293 8280 8272 8272 8272 8276 8275 8273 8274 8275 8271 8277 8274 8276 8273 8273 8276 8277 8281 8279 8280 8280 8278 8281 8283 8281 8278 8280 
8287 8288 8289 8287 8289 8295 8290 8290 8289 8293 8293 8292 8292 8294 8291 8293 8293 8291 8289 8288 8296 8296 8302 8320 8337 8349 8360 8364 8366 8365 8357 8357 8359 8353 8355 8360 8364 8369 8359 8355 8358 8363 8361 8360 8359 8362 8359 8352 8341 8323 8308 8292 8275 8275 8271 8273 8272 8274 8275 8273 8272 8276 8272 8273 8277 8276 8278 8276 8276 8278 8277 8278 8278 8281 8281 8281 8281 8281 8277 8282 
8287 8289 8291 8289 8288 8292 8291 8290 8291 8294 8293 8295 8294 8296 8295 8295 8293 8292 8292 8292 8297 8299 8300 8298 8306 8319 8336 8356 8366 8371 8374 8376 8376 8381 8384 8384 8384 8382 8379 8379 8381 8378 8377 8375 8365 8353 8337 8321 8309 8294 8280 8270 8273 8272 8271 8273 8271 8271 8271 8271 8273 8275 8271 8275 8274 8278 8274 8276 8277 8277 8280 8280 8279 8282 8281 8282 8285 8284 8278 8279 
8289 8288 8292 8291 8292 8292 8294 8295 8296 8296 8294 8298 8299 8297 8294 8297 8296 8296 8294 8291 8297 8297 8301 8290 8294 8302 8319 8337 8346 8348 8352 8361 8362 8366 8373 8375 8371 8360 8360 8355 8354 8354 8350 8339 8325 8312 8295 8290 8289 8283 8274 8265 8269 8272 8271 8271 8273 8270 8274 8271 8276 8272 8270 8273 8272 8275 8276 8274 8276 8283 8281 8281 8280 8283 8278 8285 8285 8286 8282 8285 
8288 8288 8291 8291 8289 8293 8291 8297 8295 8295 8295 8296 8299 8300 8299 8300 8301 8297 8297 8296 8299 8299 8298 8286 8289 8292 8302 8317 8328 8329 8329 8339 8347 8350 8355 8350 8345 8329 8334 8329 8331 8325 8319 8309 8296 8287 8284 8277 8282 8279 8264 8263 8273 8274 8272 8275 8271 8275 8273 8268 8274 8271 8273 8271 8271 8276 8277 8275 8280 8278 8282 8285 8285 8283 8283 8284 8286 8285 8282 8281 
8290 8286 8292 8290 8288 8294 8294 8295 8294 8294 8293 8297 8297 8300 8298 8299 8300 8298 8297 8297 8299 8301 8303 8289 8279 8281 8287 8295 8305 8308 8305 8313 8316 8315 8320 8321 8317 8310 8312 8310 8307 8304 8298 8289 8279 8278 8273 8269 8275 8268 8260 8261 8270 8274 8273 8274 8272 8271 8271 8271 8273 8273 8272 8271 8271 8270 8278 8274 8277 8280 8284 8282 8282 8284 8284 8285 8286 8286 8282 8279 
8290 8285 8288 8290 8293 8290 8296 8297 8295 8295 8295 8293 8297 8299 8298 8302 8299 8299 8298 8296 8300 8300 8303 8292 8274 8269 8272 8278 8284 8291 8282 8286 8290 8291 8294 8292 8290 8289 8294 8288 8288 8289 8284 8279 8273 8271 8269 8261 8266 8260 8255 8260 8274 8271 8271 8274 8270 8272 8272 8272 8272 8275 8272 8270 8271 8276 8276 8276 8279 8282 8284 8283 8283 8284 8283 8287 8288 8286 8279 8277 
8291 8285 8291 8289 8287 8290 8294 8301 8294 8296 8295 8294 8295 8299 8297 8298 8298 8300 8298 8298 8303 8301 8301 8296 8273 8263 8263 8267 8271 8279 8275 8273 8273 8272 8275 8275 8279 8276 8280 8276 8274 8276 8276 8272 8267 8264 8261 8257 8259 8257 8255 8265 8272 8273 8271 8273 8272 8270 8272 8271 8273 8276 8273 8271 8273 8278 8278 8274 8285 8283 8290 8283 8285 8285 8286 8285 8287 8287 8281 8281 
8293 8289 8292 8286 8289 8293 8290 8293 8296 8296 8294 8292 8294 8296 8296 8299 8297 8296 8298 8297 8300 8298 8303 8302 8276 8263 8261 8263 8264 8269 8267 8263 8266 8263 8271 8268 8269 8269 8269 8264 8268 8267 8267 8265 8263 8259 8256 8255 8257 8255 8257 8267 8272 8271 8270 8273 8271 8272 8272 8272 8272 8275 8272 8273 8274 8275 8278 8275 8282 8284 8288 8285 8284 8287 8283 8284 8285 8285 8280 8276 
8306 8310 8314 8296 8287 8290 8295 8301 8289 8293 8290 8293 8289 8288 8288 8292 8294 8296 8295 8294 8295 8295 8299 8301 8278 8260 8254 8261 8260 8265 8261 8261 8260 8253 8263 8263 8264 8261 8264 8258 8258 8263 8266 8262 8258 8256 8252 8255 8255 8251 8259 8265 8270 8271 8271 8272 8271 8270 8270 8273 8272 8274 8274 8273 8270 8273 8273 8275 8277 8282 8287 8283 8284 8281 8283 8284 8285 8286 8277 8279 
8368 8362 8349 8340 8331 8337 8335 8326 8308 8314 8314 8304 8295 8285 8284 8286 8292 8294 8287 8287 8290 8289 8292 8289 8277 8255 8256 8261 8255 8253 8257 8257 8255 8248 8256 8254 8257 8252 8257 8251 8255 8263 8263 8258 8257 8255 8247 8251 8251 8254 8256 8246 8258 8266 8267 8271 8267 8268 8270 8269 8270 8270 8271 8274 8271 8273 8275 8275 8279 8285 8287 8283 8287 8283 8282 8282 8283 8282 8278 8279 
8381 8368 8368 8375 8378 8368 8357 8348 8350 8373 8384 8342 8324 8318 8321 8342 8357 8329 8299 8296 8301 8292 8283 8279 8265 8248 8248 8254 8253 8249 8251 8253 8251 8250 8252 8249 8253 8245 8250 8246 8249 8257 8262 8258 8253 8248 8245 8245 8249 8250 8246 8243 8240 8249 8265 8266 8262 8269 8270 8265 8271 8268 8270 8275 8273 8276 8275 8272 8277 8282 8285 8283 8281 8283 8281 8279 8280 8281 8277 8279 
8399 8398 8407 8393 8386 8383 8376 8370 8373 8384 8380 8358 8344 8344 8356 8391 8376 8348 8324 8317 8310 8291 8276 8277 8266 8241 8243 8252 8251 8242 8242 8248 8248 8243 8246 8249 8249 8244 8247 8248 8248 8250 8254 8250 8249 8247 8247 8246 8248 8242 8240 8239 8237 8239 8253 8250 8249 8254 8256 8253 8258 8261 8265 8264 8264 8272 8274 8273 8277 8276 8280 8277 8279 8279 8274 8275 8276 8277 8275 8276 
8411 8422 8399 8388 8394 8391 8390 8394 8385 8382 8391 8390 8393 8402 8397 8391 8398 8394 8388 8390 8381 8306 8278 8279 8271 8242 8241 8249 8248 8241 8237 8238 8237 8241 8245 8249 8249 8245 8248 8249 8249 8245 8248 8244 8245 8247 8244 8243 8248 8243 8237 8236 8236 8239 8238 8243 8244 8244 8250 8247 8251 8248 8251 8253 8251 8255 8259 8262 8267 8274 8277 8275 8273 8277 8275 8274 8275 8271 8278 8274 
8435 8414 8401 8392 8392 8387 8389 8391 8384 8390 8393 8392 8393 8395 8396 8393 8397 8394 8391 8383 8376 8365 8275 8274 8272 8243 8238 8240 8241 8235 8229 8233 8236 8237 8245 8240 8243 8243 8250 8246 8250 8250 8255 8253 8246 8241 8235 8239 8245 8241 8235 8236 8239 8239 8242 8241 8242 8242 8245 8247 8246 8250 8245 8249 8254 8255 8255 8257 8265 8269 8272 8267 8273 8275 8273 8272 8271 8279 8274 8274 


