P2
80 60
8439
8297 8298 8297 8295 8296 8296 8291 8293 8294 8292 8289 8293 8290 8290 8291 8289 8290 8294 8295 8294 8295 8294 8291 8293 8295 8297 8298 8298 8299 8301 8299 8298 8298 8298 8301 8297 8300 8302 8300 8301 8299 8300 8301 8299 8299 8297 8293 8293 8293 8291 8293 8292 8288 8288 8289 8289 8290 8292 8293 8293 8293 8295 8294 8293 8294 8295 8301 8301 8298 8302 8302 8304 8306 8313 8312 8309 8308 8305 8309 8300 
8299 8296 8296 8298 8294 8295 8293 8294 8295 8294 8292 8292 8290 8289 8293 8295 8292 8292 8294 8293 8296 8296 8296 8294 8297 8301 8300 8300 8299 8302 8300 8298 8300 8299 8301 8298 8302 8301 8299 8304 8301 8302 8298 8296 8302 8300 8298 8294 8292 8292 8293 8294 8292 8288 8290 8291 8288 8291 8291 8293 8293 8296 8296 8296 8297 8294 8300 8297 8299 8303 8303 8306 8305 8309 8309 8306 8309 8307 8308 8305 
8295 8295 8297 8295 8294 8293 8292 8294 8295 8296 8290 8291 8290 8290 8293 8290 8293 8293 8294 8292 8293 8294 8292 8296 8297 8301 8302 8300 8297 8301 8300 8297 8298 8298 8299 8298 8296 8302 8303 8306 8301 8301 8295 8298 8299 8298 8297 8293 8294 8290 8292 8290 8288 8287 8286 8289 8289 8289 8290 8288 8292 8294 8295 8295 8296 8296 8299 8298 8298 8298 8299 8302 8308 8306 8305 8306 8307 8303 8307 8300 
8291 8295 8292 8295 8298 8294 8292 8290 8295 8292 8292 8291 8292 8290 8292 8288 8291 8291 8294 8294 8295 8296 8293 8297 8295 8302 8300 8299 8299 8300 8299 8299 8302 8299 8298 8298 8301 8302 8300 8305 8302 8299 8297 8296 8299 8297 8295 8295 8292 8292 8293 8292 8288 8286 8290 8289 8291 8289 8288 8290 8292 8292 8295 8296 8301 8295 8298 8297 8295 8299 8298 8301 8303 8305 8303 8302 8303 8301 8301 8298 
8290 8293 8295 8292 8296 8294 8293 8291 8292 8292 8291 8291 8292 8287 8289 8290 8293 8295 8294 8293 8295 8292 8293 8300 8300 8301 8299 8298 8298 8303 8300 8298 8302 8295 8299 8296 8299 8302 8302 8305 8300 8300 8299 8296 8298 8295 8296 8293 8293 8289 8292 8291 8292 8289 8287 8291 8291 8289 8291 8292 8289 8294 8293 8296 8297 8295 8297 8297 8295 8295 8295 8296 8298 8300 8297 8302 8302 8295 8301 8297 
8292 8292 8293 8294 8295 8294 8294 8291 8292 8291 8288 8288 8291 8289 8287 8288 8290 8291 8296 8296 8297 8294 8291 8292 8298 8303 8301 8298 8298 8302 8301 8298 8299 8298 8297 8292 8298 8301 8299 8303 8300 8299 8298 8295 8296 8294 8292 8293 8292 8289 8290 8290 8286 8287 8290 8292 8291 8289 8292 8290 8290 8294 8293 8293 8293 8293 8297 8294 8291 8294 8295 8297 8294 8295 8296 8295 8295 8291 8296 8293 
8291 8290 8292 8291 8293 8293 8292 8290 8293 8290 8288 8285 8290 8285 8291 8287 8288 8291 8292 8297 8296 8294 8291 8292 8299 8302 8298 8301 8299 8300 8300 8299 8301 8298 8299 8299 8298 8301 8297 8299 8299 8295 8298 8296 8294 8298 8292 8291 8290 8287 8289 8290 8286 8287 8289 8288 8289 8290 8289 8290 8293 8292 8291 8293 8290 8291 8291 8290 8290 8292 8290 8292 8296 8293 8293 8291 8292 8288 8289 8289 
8288 8295 8290 8290 8296 8290 8293 8292 8291 8290 8290 8285 8287 8285 8286 8289 8293 8295 8297 8295 8294 8293 8290 8291 8300 8299 8296 8300 8299 8301 8298 8299 8300 8299 8301 8299 8297 8298 8300 8303 8300 8297 8300 8297 8297 8295 8295 8292 8291 8288 8289 8288 8289 8289 8290 8287 8291 8288 8288 8291 8287 8290 8289 8291 8288 8288 8289 8287 8288 8286 8287 8287 8290 8287 8292 8287 8289 8281 8286 8285 
8290 8292 8289 8289 8292 8289 8288 8289 8296 8290 8291 8287 8288 8287 8290 8286 8292 8292 8294 8294 8292 8292 8292 8290 8294 8297 8299 8297 8296 8297 8297 8298 8300 8294 8302 8297 8298 8298 8300 8304 8299 8297 8299 8296 8298 8294 8292 8290 8288 8288 8286 8291 8285 8285 8291 8289 8287 8289 8287 8287 8287 8284 8291 8288 8286 8290 8289 8290 8284 8286 8285 8288 8288 8287 8293 8291 8285 8280 8284 8280 
8290 8290 8289 8289 8290 8289 8286 8287 8290 8290 8289 8282 8287 8286 8284 8285 8287 8293 8290 8293 8293 8291 8291 8288 8294 8298 8295 8297 8294 8297 8298 8293 8293 8295 8300 8298 8298 8299 8299 8302 8297 8297 8296 8298 8299 8296 8295 8292 8287 8285 8289 8288 8287 8287 8288 8285 8291 8288 8284 8286 8288 8288 8288 8288 8284 8283 8287 8285 8285 8283 8282 8285 8282 8285 8285 8284 8282 8277 8278 8276 
8291 8289 8287 8291 8290 8286 8288 8289 8291 8289 8286 8284 8288 8286 8286 8285 8286 8289 8290 8292 8293 8291 8289 8289 8294 8297 8295 8297 8296 8296 8295 8292 8293 8295 8299 8295 8294 8299 8299 8299 8295 8296 8296 8297 8298 8297 8294 8290 8285 8285 8292 8287 8285 8283 8284 8285 8284 8287 8285 8287 8285 8287 8287 8285 8285 8283 8285 8282 8281 8281 8282 8282 8281 8279 8278 8278 8276 8274 8278 8273 
8292 8289 8288 8288 8288 8286 8287 8289 8288 8283 8287 8285 8286 8284 8284 8285 8284 8288 8287 8291 8291 8289 8289 8287 8294 8297 8293 8298 8294 8296 8296 8292 8292 8291 8295 8292 8294 8296 8296 8294 8295 8294 8297 8297 8295 8296 8296 8289 8287 8283 8286 8284 8284 8283 8284 8285 8286 8285 8285 8281 8285 8288 8286 8284 8285 8282 8283 8279 8283 8280 8281 8281 8281 8280 8277 8275 8278 8272 8276 8271 
8291 8288 8289 8288 8289 8287 8286 8282 8287 8285 8285 8282 8285 8282 8287 8286 8285 8285 8291 8288 8290 8289 8289 8287 8294 8293 8296 8291 8295 8295 8295 8291 8292 8290 8292 8291 8296 8293 8295 8293 8294 8293 8294 8294 8296 8295 8291 8287 8286 8283 8285 8283 8282 8283 8284 8284 8285 8282 8283 8282 8286 8284 8285 8282 8286 8279 8284 8280 8278 8279 8280 8278 8276 8276 8279 8273 8277 8269 8274 8271 
8287 8288 8290 8289 8290 8289 8286 8288 8283 8284 8285 8284 8284 8281 8286 8284 8286 8285 8289 8289 8290 8290 8287 8288 8291 8295 8292 8293 8291 8293 8289 8291 8292 8290 8292 8292 8292 8291 8293 8293 8291 8296 8292 8291 8292 8292 8291 8286 8286 8281 8286 8285 8284 8285 8281 8282 8282 8284 8281 8283 8282 8286 8284 8284 8282 8284 8281 8279 8279 8281 8278 8280 8276 8277 8275 8277 8271 8268 8274 8272 
8289 8288 8288 8290 8291 8286 8280 8283 8287 8285 8284 8284 8283 8281 8283 8285 8284 8284 8285 8287 8287 8289 8284 8287 8289 8293 8290 8293 8290 8292 8295 8290 8292 8294 8289 8292 8292 8292 8291 8294 8290 8293 8291 8291 8292 8291 8288 8286 8281 8281 8286 8285 8283 8282 8283 8284 8282 8285 8282 8282 8284 8283 8282 8285 8284 8284 8282 8280 8279 8280 8279 8279 8280 8276 8276 8272 8271 8269 8272 8267 
8287 8291 8288 8289 8288 8285 8283 8284 8285 8285 8283 8283 8282 8282 8282 8283 8283 8285 8285 8287 8287 8286 8285 8285 8290 8293 8290 8290 8287 8292 8290 8288 8288 8287 8293 8289 8293 8291 8288 8290 8291 8289 8289 8290 8287 8288 8287 8284 8283 8281 8284 8287 8282 8281 8283 8283 8284 8283 8283 8282 8283 8281 8284 8282 8282 8282 8282 8277 8279 8279 8278 8277 8276 8277 8275 8276 8273 8267 8269 8267 
8286 8284 8283 8289 8289 8283 8284 8284 8287 8285 8284 8281 8282 8282 8285 8282 8284 8284 8286 8283 8287 8288 8286 8288 8290 8293 8290 8289 8288 8288 8287 8289 8289 8290 8290 8288 8291 8288 8289 8292 8287 8288 8291 8288 8290 8287 8287 8281 8279 8280 8281 8282 8282 8281 8283 8282 8282 8285 8282 8282 8282 8284 8282 8280 8283 8281 8281 8281 8279 8278 8277 8278 8278 8274 8275 8275 8273 8266 8271 8263 
8286 8291 8288 8285 8285 8282 8282 8282 8285 8285 8284 8284 8282 8284 8286 8280 8282 8282 8285 8287 8285 8284 8284 8283 8287 8291 8289 8287 8287 8288 8286 8285 8286 8284 8291 8287 8287 8288 8288 8291 8286 8287 8289 8287 8287 8286 8283 8282 8281 8280 8281 8284 8282 8281 8282 8280 8280 8280 8279 8278 8280 8284 8280 8282 8280 8281 8284 8281 8280 8280 8278 8278 8274 8277 8278 8273 8276 8270 8272 8267 
8287 8290 8286 8284 8285 8285 8281 8284 8287 8283 8282 8280 8284 8281 8281 8283 8284 8282 8281 8283 8287 8288 8284 8283 8288 8289 8288 8283 8282 8275 8269 8273 8282 8285 8289 8288 8281 8283 8286 8286 8285 8282 8285 8284 8286 8283 8281 8281 8277 8276 8280 8280 8278 8278 8280 8281 8279 8281 8278 8278 8281 8282 8281 8283 8283 8283 8281 8281 8277 8276 8276 8279 8277 8276 8275 8272 8274 8267 8270 8263 
8293 8295 8293 8289 8284 8281 8282 8283 8282 8283 8279 8285 8282 8285 8282 8283 8281 8281 8282 8285 8284 8285 8284 8283 8283 8279 8272 8246 8240 8232 8220 8221 8249 8272 8278 8284 8255 8245 8266 8284 8278 8263 8258 8271 8280 8283 8280 8276 8279 8276 8279 8281 8277 8280 8283 8280 8280 8279 8278 8281 8280 8282 8283 8284 8280 8279 8283 8279 8280 8278 8275 8278 8278 8273 8275 8274 8273 8267 8271 8267 
8289 8289 8289 8287 8284 8281 8280 8280 8281 8281 8284 8283 8285 8284 8281 8278 8281 8283 8281 8283 8284 8285 8283 8280 8266 8243 8260 8242 8217 8217 8237 8243 8245 8247 8235 8237 8261 8254 8243 8256 8235 8249 8237 8234 8245 8269 8275 8275 8275 8274 8279 8277 8276 8279 8279 8278 8279 8281 8278 8280 8282 8280 8278 8283 8281 8280 8281 8280 8281 8279 8280 8277 8278 8274 8277 8275 8272 8266 8269 8269 
8286 8287 8287 8286 8287 8283 8282 8281 8281 8282 8284 8282 8284 8281 8280 8279 8278 8281 8281 8282 8286 8284 8281 8264 8265 8279 8282 8270 8263 8272 8282 8279 8250 8243 8232 8256 8264 8244 8246 8254 8250 8266 8275 8275 8264 8251 8249 8270 8274 8271 8278 8275 8274 8276 8279 8277 8278 8280 8281 8283 8280 8279 8280 8278 8280 8279 8285 8279 8281 8278 8278 8277 8274 8273 8276 8274 8272 8263 8268 8264 
8288 8288 8285 8283 8284 8280 8278 8278 8282 8280 8284 8284 8279 8281 8279 8281 8280 8281 8279 8284 8286 8284 8274 8279 8284 8287 8286 8283 8281 8285 8283 8285 8281 8280 8262 8234 8234 8227 8228 8249 8269 8279 8274 8275 8271 8273 8270 8259 8264 8268 8274 8274 8274 8273 8278 8278 8282 8279 8278 8281 8283 8281 8280 8280 8281 8283 8282 8280 8280 8280 8278 8278 8276 8275 8275 8274 8274 8271 8270 8269 
8287 8285 8283 8281 8280 8280 8280 8283 8281 8282 8283 8282 8282 8278 8281 8284 8280 8281 8279 8280 8285 8285 8283 8282 8284 8287 8285 8284 8284 8286 8283 8279 8279 8279 8280 8254 8247 8237 8233 8249 8252 8247 8227 8223 8223 8234 8250 8264 8245 8243 8250 8253 8271 8274 8277 8277 8277 8279 8280 8281 8280 8284 8278 8279 8285 8283 8281 8281 8278 8279 8278 8276 8278 8276 8273 8271 8270 8266 8270 8265 
8287 8288 8285 8280 8280 8282 8278 8277 8282 8282 8283 8281 8280 8280 8281 8281 8282 8281 8278 8284 8282 8284 8284 8280 8279 8283 8283 8283 8283 8286 8283 8281 8284 8280 8280 8274 8232 8230 8228 8216 8221 8219 8215 8204 8202 8202 8229 8235 8234 8240 8246 8248 8269 8271 8275 8278 8277 8277 8279 8277 8278 8278 8279 8279 8279 8281 8279 8278 8276 8278 8273 8273 8273 8273 8270 8269 8267 8266 8268 8262 
8282 8285 8285 8278 8283 8283 8276 8279 8284 8286 8284 8282 8282 8281 8282 8281 8280 8279 8278 8280 8285 8286 8284 8282 8281 8285 8284 8286 8283 8286 8284 8279 8283 8280 8284 8274 8263 8230 8224 8247 8230 8219 8208 8204 8190 8185 8213 8260 8238 8243 8248 8252 8267 8272 8278 8273 8275 8276 8277 8279 8276 8277 8277 8280 8281 8277 8278 8276 8275 8276 8270 8271 8275 8273 8270 8272 8270 8267 8268 8266 
8284 8284 8281 8282 8283 8280 8281 8281 8286 8284 8281 8282 8280 8283 8280 8275 8281 8279 8277 8279 8282 8284 8280 8281 8283 8284 8288 8285 8284 8287 8283 8281 8286 8281 8283 8268 8249 8231 8213 8229 8239 8253 8247 8232 8197 8185 8210 8261 8243 8242 8247 8253 8269 8272 8271 8274 8277 8276 8278 8278 8277 8277 8276 8276 8276 8275 8275 8274 8273 8273 8270 8271 8273 8272 8272 8267 8269 8269 8270 8263 
8282 8287 8280 8280 8281 8284 8278 8283 8285 8279 8278 8280 8280 8281 8279 8278 8277 8280 8282 8284 8283 8284 8280 8279 8281 8283 8286 8284 8283 8286 8284 8282 8279 8273 8268 8241 8221 8213 8208 8206 8217 8213 8219 8227 8226 8210 8209 8258 8238 8244 8247 8253 8269 8271 8277 8274 8277 8275 8275 8276 8276 8274 8275 8273 8276 8276 8277 8272 8270 8269 8268 8270 8271 8270 8269 8267 8270 8263 8269 8264 
8284 8282 8282 8280 8282 8281 8279 8283 8282 8282 8276 8279 8277 8278 8278 8279 8278 8282 8281 8282 8281 8282 8279 8276 8281 8285 8284 8285 8285 8283 8283 8279 8276 8261 8249 8217 8227 8247 8214 8209 8205 8205 8220 8231 8217 8218 8230 8252 8240 8246 8250 8254 8269 8270 8273 8274 8275 8273 8271 8272 8273 8273 8272 8275 8275 8274 8273 8270 8271 8271 8272 8271 8268 8271 8269 8268 8268 8266 8270 8265 
8282 8285 8282 8283 8282 8279 8277 8282 8283 8279 8279 8278 8277 8277 8278 8277 8276 8279 8281 8280 8281 8279 8277 8278 8282 8286 8286 8285 8285 8284 8278 8279 8277 8273 8244 8242 8248 8219 8204 8206 8204 8205 8206 8236 8257 8237 8227 8247 8240 8251 8250 8258 8270 8270 8274 8274 8273 8272 8272 8271 8272 8272 8274 8277 8275 8274 8274 8270 8271 8271 8273 8271 8268 8271 8269 8270 8269 8267 8269 8266 
8281 8285 8280 8280 8279 8280 8279 8281 8282 8277 8279 8279 8280 8278 8277 8278 8277 8279 8280 8278 8281 8281 8278 8277 8285 8284 8284 8283 8282 8279 8276 8277 8278 8275 8270 8263 8250 8239 8201 8204 8200 8204 8206 8227 8267 8270 8256 8241 8243 8255 8255 8263 8267 8270 8270 8274 8274 8272 8272 8271 8270 8271 8276 8275 8275 8271 8272 8271 8268 8270 8265 8269 8271 8269 8272 8268 8269 8265 8266 8262 
8283 8280 8282 8280 8280 8279 8280 8281 8281 8281 8280 8279 8280 8278 8278 8277 8277 8280 8282 8280 8281 8282 8280 8280 8284 8286 8283 8283 8279 8278 8276 8274 8278 8274 8271 8271 8269 8255 8213 8199 8198 8204 8227 8220 8263 8273 8274 8263 8251 8259 8258 8264 8269 8271 8272 8270 8272 8271 8267 8273 8271 8270 8272 8273 8271 8272 8272 8272 8268 8267 8265 8268 8269 8268 8271 8271 8268 8264 8269 8263 
8279 8286 8283 8283 8281 8282 8280 8283 8281 8279 8282 8278 8281 8277 8276 8277 8276 8278 8279 8279 8279 8278 8278 8278 8283 8283 8285 8280 8278 8276 8273 8272 8271 8266 8258 8250 8245 8238 8208 8199 8194 8200 8249 8259 8267 8270 8268 8263 8256 8260 8258 8266 8270 8268 8274 8271 8272 8270 8271 8273 8269 8271 8270 8272 8272 8271 8271 8270 8269 8269 8267 8268 8269 8271 8270 8271 8265 8265 8268 8267 
8285 8283 8283 8285 8285 8279 8283 8281 8284 8281 8282 8283 8280 8279 8281 8279 8280 8280 8281 8279 8279 8281 8280 8281 8284 8285 8281 8279 8269 8261 8246 8235 8235 8222 8216 8207 8201 8205 8202 8199 8192 8196 8224 8228 8241 8261 8270 8267 8260 8262 8260 8270 8270 8270 8272 8272 8273 8271 8270 8271 8272 8270 8270 8273 8272 8273 8273 8271 8269 8267 8266 8266 8270 8272 8273 8270 8269 8267 8268 8261 
8286 8284 8282 8287 8286 8285 8287 8281 8285 8288 8283 8281 8281 8279 8281 8276 8278 8281 8279 8278 8281 8281 8282 8282 8281 8283 8275 8249 8227 8222 8217 8214 8218 8218 8209 8205 8204 8199 8206 8207 8193 8198 8226 8220 8212 8223 8259 8263 8261 8265 8260 8269 8269 8270 8271 8271 8271 8274 8275 8274 8272 8271 8272 8272 8271 8273 8273 8269 8268 8267 8266 8269 8269 8272 8269 8271 8269 8267 8271 8258 
8288 8287 8286 8284 8286 8283 8283 8285 8287 8285 8283 8283 8281 8282 8281 8279 8279 8280 8282 8279 8281 8282 8278 8281 8283 8274 8232 8220 8226 8227 8212 8233 8249 8216 8208 8205 8202 8210 8217 8218 8207 8196 8207 8222 8210 8214 8239 8259 8262 8264 8260 8264 8266 8267 8271 8272 8273 8271 8270 8270 8269 8270 8270 8271 8269 8271 8271 8268 8268 8265 8267 8268 8270 8272 8270 8273 8273 8267 8266 8268 
8289 8290 8288 8286 8287 8284 8283 8287 8286 8283 8283 8285 8281 8280 8281 8280 8282 8280 8279 8280 8282 8284 8281 8280 8278 8240 8223 8227 8257 8242 8226 8264 8242 8230 8219 8228 8222 8210 8231 8216 8200 8193 8203 8204 8213 8227 8237 8259 8258 8262 8256 8266 8267 8267 8270 8271 8272 8273 8274 8271 8271 8270 8272 8272 8271 8269 8269 8267 8268 8267 8267 8270 8271 8275 8271 8274 8271 8272 8272 8267 
8290 8293 8290 8287 8289 8286 8284 8286 8287 8285 8283 8283 8282 8280 8279 8279 8278 8280 8280 8282 8282 8284 8283 8279 8269 8239 8229 8268 8274 8253 8266 8273 8246 8241 8262 8261 8260 8243 8230 8225 8236 8202 8200 8206 8207 8213 8241 8258 8261 8263 8260 8265 8270 8271 8271 8272 8272 8274 8272 8272 8271 8270 8269 8271 8269 8267 8268 8268 8269 8267 8266 8269 8271 8273 8271 8274 8277 8270 8272 8268 
8287 8289 8288 8286 8288 8284 8285 8284 8286 8284 8281 8281 8282 8280 8278 8279 8278 8281 8277 8279 8281 8281 8280 8280 8274 8234 8262 8279 8280 8279 8278 8279 8267 8253 8278 8270 8233 8225 8232 8224 8248 8225 8230 8242 8215 8213 8235 8260 8261 8260 8263 8266 8269 8269 8272 8269 8275 8274 8272 8270 8271 8268 8270 8269 8268 8269 8270 8267 8269 8268 8265 8269 8272 8272 8274 8274 8277 8271 8274 8270 
8285 8288 8286 8286 8287 8286 8287 8286 8289 8285 8284 8285 8285 8283 8280 8279 8280 8282 8280 8284 8283 8287 8283 8283 8279 8259 8278 8287 8288 8293 8300 8304 8304 8290 8302 8294 8256 8217 8209 8213 8273 8309 8318 8308 8244 8218 8228 8262 8262 8264 8269 8280 8275 8271 8272 8272 8272 8270 8269 8272 8269 8268 8266 8272 8267 8269 8271 8267 8268 8267 8268 8271 8273 8273 8275 8274 8275 8272 8273 8264 
8288 8286 8285 8288 8286 8285 8286 8285 8287 8285 8286 8283 8284 8286 8283 8284 8281 8282 8282 8282 8290 8290 8290 8288 8284 8278 8277 8284 8285 8292 8299 8301 8309 8303 8293 8245 8212 8199 8206 8198 8243 8334 8340 8329 8258 8224 8218 8241 8263 8267 8275 8307 8309 8291 8274 8271 8272 8270 8269 8270 8270 8271 8270 8270 8268 8269 8270 8268 8269 8268 8268 8269 8274 8274 8274 8276 8275 8271 8272 8268 
8288 8288 8288 8286 8288 8286 8284 8289 8287 8289 8289 8285 8289 8286 8288 8286 8285 8284 8284 8288 8293 8296 8294 8292 8289 8291 8289 8292 8290 8298 8306 8308 8318 8313 8280 8229 8219 8223 8201 8205 8225 8339 8366 8357 8319 8245 8237 8263 8269 8273 8280 8297 8301 8283 8274 8271 8272 8271 8267 8267 8267 8270 8271 8270 8269 8268 8269 8267 8268 8268 8266 8273 8272 8276 8276 8274 8276 8271 8276 8263 
8289 8289 8288 8290 8289 8288 8288 8287 8286 8288 8286 8286 8290 8287 8288 8286 8287 8286 8285 8286 8290 8293 8297 8294 8296 8300 8297 8298 8295 8297 8309 8310 8320 8287 8273 8269 8274 8284 8259 8262 8261 8307 8330 8319 8308 8287 8281 8281 8283 8283 8286 8290 8295 8278 8272 8273 8273 8271 8268 8271 8270 8271 8270 8271 8269 8266 8272 8268 8271 8271 8269 8272 8275 8275 8275 8276 8276 8271 8271 8270 
8286 8288 8288 8290 8290 8287 8286 8288 8291 8289 8292 8289 8292 8289 8290 8286 8285 8287 8288 8288 8289 8298 8297 8293 8292 8294 8294 8291 8290 8292 8292 8292 8293 8290 8290 8303 8313 8314 8309 8304 8295 8290 8289 8290 8290 8294 8286 8285 8287 8283 8293 8294 8293 8275 8271 8269 8272 8269 8270 8269 8269 8273 8270 8273 8271 8271 8271 8269 8269 8269 8269 8273 8274 8281 8278 8275 8276 8273 8274 8273 
8287 8293 8290 8289 8292 8290 8288 8292 8290 8292 8289 8292 8294 8289 8291 8288 8288 8291 8291 8288 8292 8296 8298 8296 8296 8295 8294 8294 8293 8292 8290 8292 8294 8289 8293 8297 8307 8312 8305 8303 8290 8290 8288 8294 8295 8298 8295 8292 8292 8294 8297 8303 8295 8273 8270 8270 8269 8268 8269 8268 8272 8271 8269 8275 8269 8272 8272 8268 8268 8270 8269 8274 8276 8280 8279 8275 8278 8275 8275 8269 
8286 8291 8293 8291 8292 8289 8292 8292 8293 8296 8295 8289 8292 8291 8293 8293 8291 8290 8294 8294 8292 8297 8300 8306 8302 8301 8300 8302 8300 8301 8298 8300 8299 8296 8298 8295 8300 8301 8301 8299 8295 8292 8300 8304 8301 8304 8302 8298 8296 8300 8301 8291 8273 8270 8270 8266 8270 8269 8270 8269 8269 8271 8273 8273 8272 8270 8272 8267 8270 8270 8270 8274 8278 8277 8278 8278 8276 8273 8275 8269 
8290 8291 8292 8292 8294 8290 8290 8292 8293 8290 8294 8293 8293 8292 8294 8291 8293 8292 8291 8294 8294 8293 8294 8307 8310 8311 8307 8310 8308 8310 8309 8308 8313 8308 8309 8308 8309 8309 8306 8309 8306 8309 8305 8304 8301 8304 8303 8300 8298 8292 8295 8281 8268 8266 8270 8269 8271 8270 8270 8270 8270 8269 8270 8272 8270 8271 8270 8269 8266 8271 8271 8276 8280 8278 8282 8279 8276 8272 8274 8274 
8292 8297 8294 8293 8293 8292 8291 8295 8294 8295 8295 8293 8294 8290 8293 8294 8296 8295 8291 8296 8293 8295 8294 8292 8298 8299 8299 8304 8305 8305 8303 8300 8305 8303 8303 8305 8312 8311 8309 8306 8300 8304 8301 8300 8299 8297 8295 8297 8297 8295 8296 8278 8268 8268 8267 8267 8271 8272 8271 8270 8270 8272 8270 8269 8271 8271 8270 8269 8271 8273 8273 8275 8277 8280 8280 8276 8278 8274 8276 8271 
8294 8294 8293 8292 8294 8293 8294 8293 8295 8294 8297 8293 8297 8295 8297 8296 8294 8296 8298 8296 8294 8292 8294 8285 8290 8291 8291 8297 8301 8300 8298 8298 8301 8295 8297 8299 8308 8309 8305 8303 8301 8299 8297 8295 8293 8291 8288 8293 8295 8299 8298 8277 8267 8265 8270 8268 8268 8268 8269 8268 8271 8273 8270 8273 8272 8271 8274 8269 8269 8274 8272 8277 8279 8278 8280 8279 8278 8275 8277 8272 
8292 8289 8291 8292 8296 8295 8295 8292 8295 8292 8296 8297 8298 8296 8295 8298 8296 8298 8297 8297 8297 8296 8295 8284 8284 8281 8281 8281 8285 8288 8285 8288 8294 8293 8297 8292 8294 8297 8293 8296 8298 8292 8285 8286 8285 8285 8286 8287 8291 8295 8291 8275 8265 8268 8270 8270 8270 8268 8272 8269 8269 8268 8270 8269 8274 8271 8272 8268 8271 8275 8274 8279 8280 8280 8281 8279 8277 8277 8274 8275 
8291 8292 8289 8291 8296 8293 8292 8296 8296 8294 8297 8296 8295 8295 8295 8299 8298 8296 8294 8299 8298 8295 8294 8286 8280 8281 8276 8271 8275 8278 8273 8274 8282 8281 8282 8283 8282 8287 8282 8283 8287 8284 8279 8280 8281 8284 8285 8286 8290 8295 8289 8271 8264 8267 8271 8270 8271 8270 8269 8268 8268 8269 8270 8272 8272 8270 8270 8270 8273 8277 8275 8281 8279 8282 8281 8278 8281 8271 8277 8272 
8291 8296 8290 8292 8294 8295 8292 8295 8298 8295 8295 8299 8299 8297 8296 8299 8299 8299 8302 8300 8296 8297 8294 8287 8283 8281 8274 8271 8271 8277 8271 8271 8273 8270 8274 8271 8276 8280 8276 8277 8277 8277 8278 8277 8282 8282 8285 8286 8293 8290 8285 8271 8266 8267 8268 8271 8269 8270 8271 8270 8269 8272 8270 8271 8270 8272 8274 8274 8271 8274 8274 8276 8281 8283 8283 8280 8279 8275 8279 8274 
8294 8297 8291 8291 8293 8293 8294 8297 8298 8295 8293 8296 8296 8295 8298 8297 8297 8299 8296 8298 8299 8297 8293 8290 8284 8279 8274 8269 8267 8269 8272 8269 8270 8267 8273 8270 8271 8273 8275 8275 8274 8274 8276 8276 8281 8281 8286 8287 8289 8290 8282 8273 8266 8267 8270 8270 8268 8268 8270 8267 8273 8270 8270 8271 8270 8270 8271 8272 8274 8276 8277 8279 8282 8283 8286 8286 8283 8275 8279 8274 
8299 8298 8294 8298 8297 8293 8293 8297 8298 8296 8295 8294 8294 8294 8297 8296 8297 8297 8297 8296 8297 8296 8293 8292 8285 8280 8275 8270 8269 8268 8270 8272 8273 8263 8274 8270 8271 8272 8271 8275 8273 8274 8273 8277 8279 8282 8283 8288 8289 8285 8279 8270 8265 8265 8270 8270 8270 8269 8267 8268 8271 8271 8269 8270 8271 8271 8274 8270 8273 8275 8277 8277 8282 8284 8284 8282 8280 8277 8279 8279 
8310 8319 8315 8302 8297 8297 8297 8303 8300 8299 8296 8294 8294 8289 8289 8289 8292 8294 8295 8297 8297 8296 8295 8293 8287 8279 8273 8270 8266 8264 8267 8270 8270 8265 8270 8268 8270 8270 8273 8271 8273 8276 8274 8278 8280 8284 8284 8287 8287 8289 8276 8266 8266 8266 8271 8270 8270 8269 8268 8266 8270 8270 8269 8270 8271 8271 8273 8273 8275 8276 8275 8283 8280 8282 8283 8282 8276 8274 8275 8272 
8371 8369 8351 8339 8334 8334 8337 8327 8311 8308 8312 8302 8297 8286 8287 8285 8289 8289 8289 8290 8287 8289 8287 8282 8282 8275 8271 8265 8264 8264 8265 8266 8269 8267 8265 8265 8267 8268 8269 8271 8272 8279 8276 8276 8277 8279 8280 8285 8291 8285 8266 8253 8257 8267 8266 8268 8268 8266 8266 8265 8269 8269 8270 8271 8274 8269 8271 8271 8276 8275 8276 8280 8283 8280 8283 8279 8283 8278 8279 8273 
8385 8370 8370 8369 8384 8378 8362 8340 8346 8365 8387 8354 8326 8310 8318 8336 8358 8336 8301 8293 8293 8284 8279 8277 8276 8265 8262 8259 8259 8261 8257 8262 8267 8262 8264 8264 8267 8267 8266 8270 8278 8280 8275 8277 8273 8276 8280 8279 8283 8278 8260 8254 8247 8256 8264 8263 8264 8264 8263 8263 8266 8269 8268 8269 8270 8269 8275 8273 8274 8274 8277 8278 8280 8280 8280 8280 8275 8276 8276 8272 
8395 8399 8406 8398 8390 8386 8380 8369 8376 8390 8395 8370 8349 8348 8356 8400 8402 8355 8322 8315 8306 8287 8278 8278 8272 8260 8255 8257 8256 8254 8252 8254 8259 8260 8261 8261 8262 8261 8262 8265 8266 8273 8272 8270 8271 8275 8278 8282 8279 8272 8258 8254 8247 8248 8254 8247 8249 8250 8255 8254 8253 8259 8264 8263 8259 8266 8268 8271 8270 8270 8271 8276 8277 8274 8277 8275 8273 8270 8276 8272 
8404 8424 8408 8399 8394 8388 8386 8390 8394 8395 8390 8390 8396 8395 8400 8402 8397 8395 8383 8380 8371 8303 8275 8275 8275 8262 8255 8253 8251 8251 8246 8246 8248 8249 8254 8249 8252 8254 8257 8260 8260 8263 8263 8269 8269 8274 8277 8279 8278 8271 8260 8253 8243 8241 8245 8243 8246 8247 8249 8252 8253 8253 8253 8256 8255 8256 8261 8263 8264 8270 8269 8278 8277 8275 8274 8274 8272 8270 8271 8270 
8439 8422 8409 8397 8395 8391 8390 8394 8397 8393 8392 8392 8393 8396 8401 8398 8395 8386 8377 8370 8364 8362 8272 8275 8276 8259 8252 8245 8245 8241 8242 8245 8250 8247 8251 8251 8250 8250 8255 8261 8261 8260 8264 8266 8272 8277 8275 8279 8279 8272 8259 8249 8240 8242 8245 8247 8246 8246 8245 8252 8255 8251 8252 8254 8255 8258 8261 8264 8266 8269 8270 8276 8276 8278 8275 8277 8275 8272 8272 8270 


