P2
80 60
8150
8013 8042 8065 8076 8083 8079 8079 8083 8085 8088 8089 8088 8094 8092 8092 8095 8095 8097 8098 8098 8099 8103 8103 8104 8106 8104 8107 8107 8110 8116 8117 8117 8122 8120 8119 8117 8119 8123 8123 8125 8124 8128 8124 8125 8125 8126 8124 8123 8119 8118 8115 8112 8107 8109 8106 8107 8104 8109 8102 8104 8097 8101 8100 8098 8096 8098 8095 8102 8101 8100 8098 8097 8096 8096 8094 8097 8094 8094 8078 8073 
8010 8050 8065 8077 8081 8079 8080 8084 8088 8085 8089 8088 8091 8091 8092 8095 8098 8098 8098 8100 8103 8105 8104 8100 8104 8104 8103 8107 8113 8115 8114 8121 8120 8120 8117 8121 8122 8126 8126 8126 8126 8125 8123 8126 8126 8125 8125 8124 8123 8119 8117 8113 8114 8108 8108 8107 8107 8108 8103 8105 8102 8102 8098 8099 8102 8098 8099 8099 8101 8102 8097 8093 8097 8094 8094 8098 8096 8086 8075 8075 
8017 8058 8070 8074 8079 8079 8079 8087 8089 8089 8090 8087 8091 8091 8093 8096 8098 8101 8102 8099 8102 8106 8104 8101 8104 8104 8108 8112 8111 8115 8115 8121 8120 8123 8122 8122 8123 8127 8130 8128 8124 8127 8123 8128 8128 8127 8125 8124 8125 8121 8119 8115 8116 8116 8113 8107 8110 8107 8105 8105 8108 8104 8104 8098 8099 8100 8096 8099 8103 8104 8098 8096 8098 8096 8095 8092 8089 8077 8073 8074 
8037 8066 8074 8076 8083 8081 8082 8085 8093 8090 8089 8084 8088 8093 8092 8095 8098 8101 8100 8101 8103 8104 8103 8105 8108 8106 8112 8112 8114 8115 8117 8120 8122 8125 8126 8125 8129 8128 8130 8129 8127 8128 8128 8126 8129 8126 8126 8128 8124 8122 8123 8121 8118 8115 8114 8113 8114 8114 8106 8108 8108 8102 8105 8105 8100 8098 8100 8098 8100 8101 8103 8099 8102 8097 8096 8090 8080 8077 8073 8070 
8051 8071 8078 8075 8080 8079 8083 8088 8089 8092 8089 8084 8090 8091 8088 8097 8100 8101 8104 8105 8103 8104 8102 8103 8103 8106 8111 8113 8116 8119 8120 8121 8121 8125 8126 8129 8132 8129 8130 8132 8127 8132 8129 8127 8129 8129 8129 8128 8126 8124 8122 8121 8119 8119 8118 8117 8116 8114 8114 8111 8112 8112 8108 8105 8102 8102 8101 8100 8104 8103 8095 8100 8099 8097 8093 8081 8074 8072 8068 8068 
8060 8080 8078 8076 8083 8083 8088 8092 8088 8088 8085 8088 8093 8091 8091 8098 8100 8101 8101 8108 8111 8106 8106 8110 8110 8112 8114 8113 8116 8121 8118 8124 8126 8127 8131 8132 8134 8132 8130 8130 8130 8131 8129 8133 8131 8131 8130 8128 8128 8124 8126 8121 8123 8119 8118 8117 8118 8118 8118 8118 8117 8115 8112 8108 8105 8104 8102 8102 8105 8102 8100 8101 8100 8097 8095 8087 8073 8071 8067 8069 
8070 8083 8081 8084 8086 8089 8095 8094 8092 8085 8087 8092 8093 8095 8097 8097 8100 8104 8107 8109 8111 8109 8110 8109 8110 8110 8113 8115 8116 8121 8123 8126 8128 8131 8133 8135 8135 8136 8135 8134 8131 8134 8134 8134 8133 8133 8129 8133 8130 8125 8130 8127 8122 8120 8122 8120 8118 8119 8122 8121 8118 8117 8116 8111 8106 8108 8103 8103 8105 8104 8103 8100 8100 8096 8093 8085 8074 8070 8068 8070 
8076 8090 8090 8091 8088 8091 8094 8097 8095 8089 8092 8091 8097 8095 8097 8100 8104 8105 8108 8110 8113 8108 8110 8110 8113 8113 8114 8118 8120 8122 8125 8129 8131 8135 8134 8136 8136 8135 8134 8136 8133 8137 8134 8135 8134 8134 8133 8131 8132 8130 8125 8128 8123 8122 8121 8122 8121 8124 8122 8121 8120 8117 8119 8114 8110 8111 8106 8106 8104 8103 8101 8099 8099 8099 8093 8087 8079 8074 8070 8070 
8084 8089 8091 8091 8093 8092 8097 8096 8096 8090 8095 8095 8094 8096 8094 8097 8103 8103 8105 8110 8108 8107 8109 8108 8111 8113 8117 8118 8119 8123 8126 8129 8129 8129 8134 8131 8134 8134 8137 8135 8134 8137 8135 8134 8136 8134 8135 8132 8130 8127 8124 8122 8123 8119 8122 8119 8122 8122 8125 8124 8121 8119 8121 8115 8115 8113 8110 8110 8110 8109 8102 8101 8102 8101 8092 8093 8083 8074 8073 8073 
8091 8098 8094 8097 8095 8097 8096 8099 8095 8093 8094 8095 8091 8095 8096 8096 8104 8106 8106 8112 8110 8109 8110 8108 8110 8112 8114 8120 8122 8122 8123 8128 8130 8130 8131 8131 8133 8136 8135 8134 8132 8135 8134 8137 8137 8133 8136 8131 8130 8129 8125 8125 8123 8120 8120 8122 8123 8123 8122 8124 8123 8122 8118 8118 8115 8115 8115 8115 8112 8111 8107 8104 8104 8103 8100 8098 8094 8079 8075 8073 
8091 8099 8096 8097 8098 8097 8095 8096 8093 8093 8095 8096 8095 8098 8098 8101 8102 8105 8105 8109 8107 8107 8109 8107 8110 8109 8113 8119 8121 8127 8126 8122 8131 8127 8128 8128 8130 8132 8133 8136 8129 8134 8136 8137 8137 8137 8136 8131 8130 8127 8124 8124 8126 8122 8119 8119 8124 8124 8125 8124 8123 8121 8122 8118 8117 8116 8110 8116 8117 8113 8110 8110 8104 8107 8103 8103 8100 8084 8076 8074 
8093 8101 8097 8095 8093 8096 8096 8095 8097 8092 8096 8096 8096 8100 8101 8102 8104 8103 8105 8110 8111 8110 8107 8109 8110 8111 8115 8119 8123 8123 8123 8125 8131 8129 8132 8127 8132 8130 8131 8129 8133 8137 8134 8136 8143 8138 8135 8134 8128 8131 8126 8127 8126 8123 8119 8120 8121 8124 8126 8126 8124 8120 8120 8117 8119 8116 8120 8115 8115 8117 8114 8112 8109 8106 8105 8110 8110 8090 8077 8078 
8102 8103 8094 8098 8095 8096 8095 8093 8094 8095 8094 8095 8100 8099 8101 8104 8103 8106 8105 8111 8112 8109 8107 8110 8113 8113 8118 8120 8119 8123 8126 8126 8128 8131 8127 8130 8131 8128 8128 8129 8131 8135 8139 8138 8141 8139 8134 8131 8130 8128 8124 8125 8127 8123 8121 8121 8122 8124 8124 8123 8122 8124 8120 8119 8119 8120 8117 8116 8116 8118 8115 8113 8112 8111 8110 8114 8114 8101 8080 8080 
8097 8105 8099 8097 8097 8100 8097 8094 8094 8096 8100 8099 8101 8101 8103 8107 8108 8107 8112 8111 8111 8113 8108 8110 8113 8110 8117 8119 8120 8124 8126 8128 8127 8128 8131 8127 8133 8130 8129 8127 8127 8134 8135 8138 8136 8136 8136 8134 8130 8130 8126 8126 8125 8124 8118 8121 8120 8121 8121 8121 8119 8123 8121 8119 8122 8121 8118 8118 8115 8115 8111 8111 8110 8110 8112 8111 8110 8103 8083 8082 
8100 8101 8102 8098 8100 8099 8096 8097 8097 8099 8103 8103 8105 8105 8106 8107 8110 8109 8109 8116 8109 8108 8108 8110 8111 8113 8116 8118 8123 8123 8124 8126 8128 8131 8129 8131 8133 8128 8127 8129 8128 8133 8133 8132 8136 8136 8133 8136 8131 8130 8130 8127 8126 8123 8120 8119 8119 8120 8119 8119 8121 8118 8122 8119 8122 8118 8119 8117 8117 8115 8117 8110 8112 8113 8112 8112 8110 8108 8087 8088 
8098 8098 8097 8098 8100 8097 8095 8098 8099 8103 8107 8101 8105 8106 8108 8107 8109 8112 8112 8112 8112 8111 8109 8109 8110 8112 8117 8119 8123 8125 8124 8128 8131 8132 8136 8133 8136 8133 8129 8131 8129 8134 8135 8138 8136 8136 8131 8132 8129 8131 8129 8129 8128 8125 8123 8117 8116 8117 8122 8121 8120 8117 8121 8120 8122 8119 8118 8114 8116 8117 8116 8113 8114 8112 8111 8111 8109 8107 8094 8090 
8101 8101 8096 8098 8103 8097 8099 8100 8101 8101 8105 8105 8105 8105 8109 8110 8110 8112 8112 8111 8115 8113 8111 8108 8113 8115 8118 8120 8123 8125 8124 8131 8133 8133 8133 8136 8138 8136 8133 8134 8134 8135 8134 8139 8135 8136 8135 8131 8132 8132 8129 8126 8130 8126 8120 8121 8119 8118 8119 8122 8119 8119 8122 8119 8120 8124 8119 8116 8118 8114 8113 8111 8113 8111 8110 8112 8108 8109 8100 8100 
8098 8101 8099 8098 8102 8102 8101 8106 8103 8106 8110 8109 8109 8109 8113 8112 8111 8114 8113 8116 8112 8116 8112 8113 8115 8117 8122 8124 8127 8128 8132 8135 8136 8138 8136 8135 8141 8134 8133 8133 8133 8134 8135 8137 8137 8133 8132 8132 8133 8129 8127 8128 8126 8122 8121 8120 8119 8120 8120 8124 8124 8121 8124 8123 8120 8121 8119 8117 8117 8117 8114 8114 8114 8110 8107 8110 8110 8108 8099 8099 
8100 8103 8098 8098 8103 8102 8107 8107 8110 8108 8112 8111 8111 8110 8113 8113 8114 8117 8114 8115 8114 8114 8117 8117 8116 8120 8125 8128 8129 8130 8133 8137 8137 8139 8137 8137 8137 8136 8137 8133 8134 8135 8132 8133 8134 8135 8133 8134 8131 8128 8130 8126 8124 8119 8118 8119 8124 8120 8120 8122 8123 8121 8126 8123 8121 8120 8126 8121 8121 8120 8117 8111 8112 8110 8108 8109 8108 8108 8098 8102 
8102 8103 8100 8102 8101 8105 8105 8112 8113 8109 8115 8113 8112 8116 8115 8116 8117 8117 8113 8116 8113 8114 8114 8119 8117 8116 8126 8128 8129 8130 8134 8137 8139 8139 8141 8135 8135 8133 8135 8133 8132 8132 8131 8134 8134 8135 8131 8130 8131 8127 8126 8125 8125 8118 8119 8118 8123 8119 8120 8119 8123 8122 8128 8125 8123 8125 8125 8123 8123 8121 8121 8118 8114 8110 8104 8106 8108 8108 8103 8104 
8104 8109 8101 8101 8104 8106 8108 8111 8113 8110 8113 8114 8112 8113 8117 8114 8117 8116 8114 8115 8114 8118 8118 8118 8118 8121 8122 8126 8131 8131 8135 8138 8135 8137 8137 8136 8132 8131 8130 8130 8130 8132 8132 8134 8132 8133 8132 8128 8128 8129 8126 8124 8122 8120 8119 8116 8119 8123 8124 8124 8124 8121 8124 8127 8124 8123 8123 8125 8124 8123 8121 8123 8120 8118 8115 8113 8114 8108 8103 8106 
8107 8112 8107 8112 8111 8113 8106 8110 8109 8111 8114 8112 8114 8113 8115 8117 8115 8116 8115 8117 8117 8119 8118 8116 8118 8118 8125 8127 8128 8132 8132 8136 8135 8138 8132 8134 8132 8131 8130 8129 8126 8130 8131 8130 8131 8130 8130 8128 8127 8124 8126 8123 8125 8122 8120 8119 8123 8122 8121 8123 8123 8124 8125 8128 8124 8126 8126 8123 8122 8126 8123 8123 8121 8122 8122 8120 8119 8117 8110 8112 
8109 8115 8112 8112 8111 8108 8109 8108 8104 8115 8113 8113 8115 8115 8118 8116 8118 8113 8113 8116 8120 8121 8120 8119 8120 8119 8124 8126 8131 8131 8132 8130 8134 8134 8131 8130 8129 8127 8125 8124 8125 8130 8127 8127 8126 8128 8126 8126 8128 8123 8124 8124 8123 8120 8120 8121 8121 8123 8120 8125 8124 8124 8125 8126 8126 8125 8125 8126 8124 8123 8121 8121 8123 8123 8119 8120 8124 8123 8121 8113 
8111 8114 8115 8110 8111 8110 8107 8107 8111 8112 8116 8116 8117 8117 8118 8117 8119 8116 8116 8116 8122 8118 8120 8117 8120 8116 8122 8125 8127 8129 8129 8132 8131 8133 8128 8127 8128 8125 8122 8124 8120 8126 8125 8126 8124 8127 8123 8127 8126 8126 8122 8124 8120 8122 8121 8120 8124 8121 8123 8120 8122 8124 8127 8127 8127 8128 8129 8129 8127 8127 8125 8123 8126 8122 8124 8123 8124 8127 8124 8120 
8108 8111 8114 8111 8111 8109 8107 8110 8110 8109 8114 8114 8117 8119 8116 8119 8122 8119 8119 8120 8120 8122 8121 8120 8118 8120 8124 8126 8128 8127 8130 8133 8132 8128 8126 8124 8120 8120 8113 8115 8116 8121 8121 8122 8124 8122 8123 8124 8124 8122 8124 8122 8121 8120 8120 8121 8120 8121 8124 8121 8123 8124 8126 8124 8130 8129 8129 8127 8126 8127 8127 8123 8124 8124 8125 8124 8125 8127 8123 8127 
8107 8111 8110 8113 8110 8111 8111 8110 8109 8110 8113 8118 8116 8119 8119 8123 8123 8121 8120 8120 8120 8120 8117 8120 8114 8119 8121 8122 8128 8126 8127 8129 8129 8122 8108 8092 8083 8073 8074 8075 8078 8081 8083 8103 8116 8119 8123 8123 8123 8121 8122 8120 8119 8118 8121 8121 8121 8121 8123 8124 8124 8124 8126 8125 8126 8128 8131 8130 8125 8129 8128 8126 8126 8127 8130 8127 8128 8130 8134 8131 
8109 8110 8106 8111 8113 8111 8109 8110 8111 8113 8113 8117 8118 8119 8121 8120 8120 8121 8120 8120 8118 8121 8118 8120 8118 8118 8122 8126 8126 8124 8124 8123 8099 8074 8066 8075 8078 8079 8073 8074 8077 8080 8078 8078 8093 8103 8113 8114 8121 8120 8121 8124 8120 8119 8119 8119 8119 8122 8123 8125 8125 8126 8125 8126 8126 8128 8130 8128 8128 8126 8125 8125 8129 8128 8128 8131 8134 8134 8135 8132 
8108 8115 8111 8113 8113 8113 8113 8116 8115 8113 8119 8117 8120 8122 8123 8121 8124 8122 8123 8120 8119 8121 8121 8117 8120 8118 8123 8127 8128 8123 8109 8080 8073 8076 8074 8076 8072 8072 8071 8068 8068 8069 8070 8077 8082 8083 8090 8104 8118 8117 8120 8122 8121 8121 8121 8122 8123 8123 8125 8124 8123 8122 8126 8126 8127 8127 8129 8127 8124 8124 8123 8124 8128 8128 8130 8131 8138 8137 8140 8136 
8107 8114 8112 8114 8112 8112 8114 8116 8116 8116 8118 8118 8124 8123 8121 8122 8121 8122 8124 8118 8118 8121 8121 8121 8121 8120 8123 8124 8123 8113 8082 8081 8078 8072 8067 8074 8078 8082 8079 8081 8078 8076 8077 8076 8070 8072 8079 8087 8099 8113 8118 8117 8119 8118 8118 8119 8122 8121 8124 8124 8122 8124 8126 8124 8129 8127 8127 8125 8123 8123 8122 8125 8126 8129 8129 8129 8140 8141 8144 8143 
8110 8116 8113 8117 8116 8115 8116 8116 8114 8116 8121 8121 8121 8120 8121 8120 8123 8124 8120 8120 8119 8122 8122 8125 8121 8123 8127 8124 8109 8092 8079 8075 8070 8078 8081 8084 8083 8085 8086 8084 8082 8083 8085 8086 8082 8075 8073 8070 8084 8100 8115 8120 8120 8119 8118 8119 8121 8121 8124 8123 8122 8125 8126 8126 8126 8129 8124 8126 8121 8124 8124 8125 8125 8127 8129 8133 8140 8142 8150 8145 
8107 8118 8114 8119 8119 8118 8112 8118 8118 8116 8118 8119 8120 8120 8122 8121 8123 8119 8121 8119 8120 8123 8122 8124 8121 8123 8125 8116 8092 8083 8071 8075 8079 8081 8082 8086 8092 8096 8095 8091 8092 8095 8091 8090 8087 8088 8079 8075 8082 8088 8103 8116 8120 8118 8117 8119 8117 8120 8121 8123 8123 8123 8127 8125 8124 8127 8125 8124 8123 8123 8122 8124 8126 8130 8129 8132 8135 8143 8144 8143 
8110 8120 8116 8116 8117 8122 8116 8116 8116 8118 8118 8118 8120 8117 8119 8122 8125 8120 8119 8121 8120 8121 8126 8125 8124 8122 8123 8104 8086 8071 8072 8079 8080 8088 8089 8087 8080 8086 8087 8084 8075 8080 8086 8092 8093 8085 8088 8087 8087 8086 8091 8109 8119 8119 8117 8118 8117 8115 8121 8121 8123 8123 8126 8125 8123 8125 8126 8119 8121 8124 8126 8125 8128 8128 8130 8131 8139 8143 8144 8145 
8113 8121 8118 8117 8119 8119 8114 8118 8118 8119 8117 8118 8116 8118 8119 8120 8120 8122 8119 8117 8123 8122 8124 8126 8126 8125 8114 8092 8079 8073 8078 8082 8088 8087 8075 8070 8070 8080 8085 8080 8075 8074 8073 8075 8086 8089 8087 8091 8089 8085 8085 8100 8117 8117 8117 8114 8116 8117 8118 8119 8118 8120 8120 8125 8125 8127 8122 8123 8123 8126 8126 8127 8130 8131 8132 8135 8135 8140 8142 8143 
8115 8122 8121 8122 8121 8122 8120 8118 8118 8117 8119 8119 8116 8119 8117 8119 8120 8123 8124 8122 8122 8123 8121 8123 8123 8119 8100 8086 8071 8078 8082 8088 8088 8071 8070 8076 8080 8079 8080 8073 8079 8082 8086 8080 8076 8082 8092 8087 8090 8082 8085 8093 8109 8115 8117 8115 8116 8119 8119 8118 8120 8121 8123 8121 8123 8123 8124 8128 8128 8128 8127 8129 8132 8135 8137 8135 8138 8145 8145 8143 
8120 8124 8123 8124 8121 8120 8120 8125 8122 8119 8120 8118 8119 8119 8122 8121 8123 8123 8124 8124 8126 8122 8121 8123 8123 8115 8090 8079 8072 8083 8087 8085 8072 8072 8078 8080 8067 8061 8075 8076 8062 8067 8082 8085 8080 8073 8082 8089 8086 8088 8090 8084 8105 8111 8114 8113 8118 8115 8120 8120 8118 8121 8126 8122 8119 8122 8125 8126 8128 8130 8129 8127 8129 8133 8133 8136 8140 8143 8144 8144 
8123 8128 8124 8123 8124 8123 8124 8127 8124 8116 8118 8118 8123 8123 8125 8123 8128 8123 8124 8123 8125 8124 8125 8121 8122 8102 8085 8082 8081 8086 8094 8079 8071 8077 8083 8073 8067 8069 8073 8076 8070 8072 8071 8075 8084 8076 8074 8087 8090 8085 8089 8088 8099 8113 8115 8117 8116 8118 8119 8120 8122 8121 8122 8123 8122 8123 8123 8121 8128 8128 8127 8130 8128 8135 8128 8136 8138 8143 8145 8143 
8128 8131 8127 8126 8122 8123 8125 8125 8127 8120 8122 8121 8119 8122 8121 8122 8127 8122 8125 8125 8124 8126 8122 8120 8118 8105 8085 8087 8080 8088 8091 8072 8074 8081 8070 8070 8074 8078 8091 8101 8104 8088 8070 8069 8078 8084 8076 8079 8091 8088 8090 8087 8098 8113 8114 8115 8119 8118 8121 8123 8122 8122 8124 8121 8123 8125 8122 8120 8123 8124 8126 8128 8127 8133 8136 8133 8137 8144 8141 8142 
8127 8131 8130 8128 8127 8127 8126 8125 8127 8124 8126 8128 8124 8121 8123 8121 8119 8121 8125 8121 8121 8125 8121 8121 8118 8104 8088 8088 8084 8092 8081 8069 8077 8075 8062 8074 8101 8119 8128 8126 8126 8121 8095 8069 8071 8091 8083 8085 8092 8084 8089 8088 8097 8114 8115 8116 8120 8120 8118 8122 8121 8122 8122 8121 8123 8123 8124 8125 8122 8125 8126 8127 8130 8133 8133 8137 8139 8140 8140 8140 
8124 8134 8129 8129 8130 8128 8125 8124 8124 8125 8125 8125 8124 8120 8118 8115 8121 8121 8124 8123 8124 8120 8120 8121 8118 8104 8088 8088 8086 8091 8077 8064 8073 8069 8067 8100 8124 8133 8135 8134 8130 8126 8108 8072 8068 8090 8083 8074 8089 8082 8086 8088 8097 8112 8118 8120 8121 8122 8121 8122 8122 8119 8122 8119 8124 8125 8123 8122 8122 8123 8122 8125 8129 8134 8133 8137 8136 8140 8138 8140 
8125 8135 8133 8130 8129 8127 8125 8127 8122 8122 8124 8124 8121 8119 8119 8117 8120 8121 8121 8121 8122 8120 8118 8121 8118 8108 8092 8089 8083 8092 8077 8066 8074 8064 8070 8116 8127 8136 8134 8133 8133 8127 8107 8077 8067 8085 8078 8072 8084 8079 8082 8085 8101 8115 8118 8118 8119 8119 8122 8118 8124 8120 8117 8121 8123 8125 8123 8123 8126 8126 8125 8127 8129 8133 8132 8135 8136 8141 8135 8137 
8123 8130 8132 8125 8125 8127 8123 8125 8122 8124 8124 8124 8121 8122 8122 8117 8120 8123 8125 8123 8122 8121 8121 8122 8120 8112 8094 8086 8083 8087 8079 8068 8073 8071 8065 8100 8128 8129 8136 8134 8135 8126 8086 8071 8071 8086 8074 8074 8085 8078 8086 8089 8104 8119 8121 8120 8121 8123 8123 8124 8125 8121 8123 8122 8124 8123 8122 8123 8124 8126 8126 8127 8127 8131 8132 8129 8136 8137 8137 8138 
8125 8135 8124 8124 8122 8121 8122 8124 8124 8119 8122 8125 8122 8124 8124 8122 8121 8124 8124 8123 8124 8117 8120 8122 8121 8115 8099 8086 8081 8081 8078 8069 8071 8076 8067 8075 8119 8127 8127 8125 8125 8121 8092 8080 8086 8089 8073 8077 8087 8083 8087 8091 8113 8118 8122 8122 8123 8124 8124 8125 8128 8121 8126 8125 8124 8126 8120 8121 8124 8122 8126 8124 8127 8126 8130 8132 8133 8137 8136 8135 
8122 8126 8123 8122 8124 8123 8123 8122 8126 8124 8124 8122 8123 8121 8123 8119 8121 8123 8121 8122 8121 8119 8123 8121 8122 8117 8107 8091 8085 8080 8083 8071 8068 8075 8083 8086 8111 8105 8117 8118 8114 8102 8080 8082 8096 8081 8074 8084 8084 8087 8088 8095 8116 8117 8121 8124 8121 8122 8121 8126 8125 8125 8129 8126 8129 8124 8123 8119 8121 8121 8123 8125 8125 8123 8128 8128 8130 8129 8128 8132 
8126 8129 8124 8123 8125 8125 8124 8123 8125 8122 8123 8125 8125 8125 8123 8122 8124 8121 8118 8122 8120 8120 8120 8120 8122 8119 8119 8098 8087 8080 8078 8074 8069 8069 8094 8121 8100 8074 8072 8076 8081 8078 8077 8091 8086 8074 8082 8086 8079 8089 8094 8109 8118 8118 8122 8122 8124 8124 8123 8128 8126 8127 8129 8128 8124 8125 8124 8119 8117 8122 8124 8120 8122 8125 8124 8121 8124 8126 8120 8125 
8126 8133 8125 8123 8127 8125 8123 8118 8126 8124 8122 8127 8126 8126 8126 8123 8125 8121 8120 8124 8118 8118 8120 8121 8123 8118 8119 8113 8096 8088 8082 8085 8089 8070 8081 8111 8121 8106 8097 8096 8103 8115 8108 8090 8075 8081 8090 8085 8086 8090 8103 8116 8121 8121 8122 8124 8124 8124 8124 8123 8122 8126 8128 8126 8126 8125 8124 8124 8124 8120 8118 8118 8121 8121 8115 8117 8119 8122 8119 8119 
8126 8129 8124 8123 8124 8124 8122 8123 8123 8124 8124 8122 8125 8126 8128 8127 8127 8124 8121 8123 8121 8122 8123 8122 8125 8121 8124 8121 8110 8095 8088 8086 8119 8104 8078 8077 8084 8092 8096 8099 8113 8088 8073 8074 8081 8096 8096 8086 8093 8101 8113 8118 8123 8122 8123 8122 8121 8123 8123 8127 8122 8127 8123 8124 8126 8126 8125 8126 8122 8121 8119 8119 8119 8120 8113 8115 8120 8120 8117 8118 
8125 8130 8126 8125 8126 8125 8125 8126 8123 8123 8124 8127 8128 8129 8125 8126 8129 8124 8124 8126 8125 8125 8120 8128 8125 8124 8122 8124 8121 8110 8099 8100 8118 8124 8116 8092 8072 8064 8063 8065 8098 8072 8073 8085 8088 8089 8090 8097 8105 8111 8122 8122 8125 8123 8122 8122 8120 8120 8122 8122 8121 8123 8126 8123 8121 8122 8124 8119 8121 8119 8118 8119 8116 8117 8118 8113 8118 8120 8115 8118 
8126 8134 8128 8125 8127 8123 8125 8127 8131 8130 8128 8127 8127 8125 8127 8124 8129 8125 8125 8125 8126 8124 8121 8127 8127 8126 8122 8126 8128 8121 8114 8109 8110 8116 8127 8123 8106 8096 8085 8071 8100 8094 8086 8085 8088 8092 8101 8107 8117 8119 8122 8126 8123 8120 8124 8121 8122 8119 8121 8121 8120 8121 8128 8123 8121 8120 8123 8121 8122 8119 8115 8117 8116 8117 8116 8118 8119 8123 8118 8116 
8121 8128 8130 8127 8129 8129 8128 8129 8128 8129 8127 8125 8130 8122 8126 8124 8129 8126 8125 8123 8127 8123 8124 8127 8129 8125 8129 8128 8127 8129 8125 8123 8118 8111 8111 8112 8117 8118 8114 8088 8105 8094 8093 8096 8105 8108 8117 8118 8123 8125 8125 8124 8124 8122 8122 8119 8121 8117 8119 8122 8118 8120 8124 8122 8117 8119 8121 8117 8118 8116 8120 8113 8118 8120 8117 8118 8116 8121 8116 8122 
8121 8125 8128 8128 8126 8132 8130 8126 8130 8124 8128 8129 8129 8127 8127 8124 8125 8127 8127 8126 8124 8127 8127 8126 8126 8127 8130 8134 8130 8134 8133 8129 8128 8127 8118 8116 8113 8108 8104 8106 8104 8107 8108 8112 8119 8121 8124 8125 8128 8126 8126 8127 8127 8124 8123 8118 8123 8120 8118 8121 8123 8123 8122 8122 8119 8117 8115 8118 8120 8115 8115 8115 8114 8121 8117 8118 8119 8122 8120 8115 
8125 8129 8125 8125 8128 8129 8137 8127 8127 8122 8128 8127 8130 8131 8129 8127 8129 8130 8126 8124 8123 8125 8124 8128 8128 8128 8127 8129 8132 8140 8137 8136 8132 8133 8131 8128 8126 8122 8125 8121 8122 8125 8123 8124 8124 8126 8129 8130 8130 8127 8127 8125 8125 8123 8121 8120 8121 8119 8120 8119 8126 8124 8121 8118 8117 8117 8116 8117 8118 8114 8115 8115 8116 8117 8119 8114 8118 8119 8114 8117 
8124 8130 8124 8126 8130 8132 8126 8133 8126 8125 8125 8126 8128 8130 8127 8124 8127 8129 8126 8124 8125 8126 8129 8130 8129 8130 8130 8134 8135 8137 8137 8140 8140 8137 8133 8131 8129 8129 8127 8127 8124 8129 8128 8127 8128 8132 8133 8132 8128 8127 8129 8124 8127 8123 8125 8120 8122 8119 8118 8118 8124 8123 8120 8115 8116 8115 8113 8112 8112 8114 8113 8115 8115 8120 8116 8113 8115 8116 8115 8115 
8126 8131 8130 8130 8131 8128 8132 8131 8130 8125 8121 8127 8129 8130 8130 8125 8128 8127 8127 8128 8127 8128 8131 8131 8129 8132 8132 8137 8135 8140 8137 8140 8140 8142 8141 8141 8136 8131 8131 8130 8133 8133 8133 8135 8138 8135 8134 8133 8129 8129 8126 8125 8126 8124 8122 8121 8123 8121 8120 8122 8123 8123 8125 8113 8113 8114 8114 8110 8112 8113 8110 8109 8113 8117 8116 8114 8113 8116 8110 8113 
8127 8134 8129 8131 8133 8133 8134 8136 8126 8127 8125 8125 8129 8128 8127 8125 8126 8130 8128 8125 8125 8126 8127 8131 8132 8131 8134 8137 8132 8138 8139 8139 8140 8141 8142 8146 8142 8139 8134 8137 8134 8139 8133 8140 8139 8137 8135 8133 8134 8131 8130 8130 8126 8123 8124 8120 8120 8119 8120 8122 8124 8118 8118 8114 8110 8109 8110 8113 8112 8114 8114 8112 8112 8115 8113 8111 8113 8116 8110 8113 
8128 8134 8133 8131 8131 8133 8132 8132 8130 8127 8126 8130 8126 8128 8128 8128 8129 8127 8127 8127 8128 8129 8128 8130 8132 8129 8130 8133 8133 8135 8135 8141 8141 8139 8143 8145 8146 8141 8139 8138 8135 8140 8140 8140 8141 8138 8137 8133 8135 8130 8128 8129 8127 8124 8121 8122 8120 8119 8119 8119 8118 8117 8118 8109 8110 8108 8108 8107 8112 8113 8110 8111 8112 8114 8111 8108 8110 8110 8109 8109 
8123 8135 8131 8129 8128 8129 8131 8131 8125 8128 8125 8127 8128 8128 8126 8126 8126 8125 8122 8122 8128 8131 8129 8129 8128 8120 8128 8132 8135 8136 8137 8137 8141 8141 8144 8140 8141 8143 8138 8138 8138 8139 8137 8138 8143 8136 8132 8135 8131 8127 8127 8126 8124 8120 8118 8116 8120 8118 8117 8115 8115 8115 8115 8108 8108 8108 8107 8106 8109 8112 8109 8110 8111 8109 8110 8106 8110 8107 8104 8105 
8127 8133 8131 8126 8126 8126 8130 8127 8130 8130 8128 8127 8130 8131 8126 8121 8122 8123 8128 8123 8126 8126 8130 8130 8130 8124 8127 8135 8138 8140 8140 8139 8142 8141 8140 8142 8142 8137 8138 8137 8140 8139 8139 8138 8139 8133 8134 8131 8131 8127 8125 8124 8119 8120 8116 8116 8114 8117 8114 8114 8111 8110 8111 8107 8105 8108 8108 8105 8107 8110 8111 8110 8110 8107 8108 8105 8105 8106 8103 8101 
8122 8133 8128 8118 8123 8123 8126 8123 8128 8126 8126 8127 8126 8124 8126 8120 8121 8124 8125 8123 8124 8122 8129 8128 8128 8126 8133 8131 8139 8137 8137 8143 8141 8141 8136 8137 8139 8138 8135 8135 8136 8136 8132 8140 8136 8133 8129 8133 8126 8127 8123 8119 8119 8116 8114 8109 8113 8111 8112 8109 8108 8106 8109 8107 8105 8106 8106 8105 8109 8111 8111 8110 8107 8105 8104 8104 8105 8101 8099 8097 
8130 8125 8115 8112 8123 8120 8119 8126 8128 8128 8128 8124 8127 8123 8122 8118 8116 8121 8121 8123 8121 8125 8127 8127 8131 8133 8135 8135 8137 8141 8140 8136 8137 8139 8137 8140 8137 8137 8135 8136 8134 8132 8131 8134 8133 8128 8134 8130 8126 8125 8122 8115 8116 8115 8114 8112 8111 8111 8109 8109 8109 8110 8111 8106 8108 8107 8109 8110 8113 8113 8109 8105 8107 8104 8106 8106 8107 8103 8101 8101 
8134 8120 8117 8113 8118 8118 8118 8119 8125 8126 8125 8121 8122 8120 8117 8115 8115 8115 8121 8124 8123 8124 8126 8130 8130 8135 8135 8140 8133 8137 8140 8137 8140 8136 8137 8136 8135 8132 8133 8135 8130 8131 8129 8131 8135 8129 8128 8129 8125 8122 8119 8118 8115 8112 8111 8112 8110 8111 8110 8107 8111 8110 8110 8108 8109 8111 8110 8109 8112 8113 8116 8114 8110 8106 8108 8101 8105 8105 8104 8107 


