P2
80 60
8162
8027 8051 8074 8092 8096 8093 8091 8094 8096 8102 8103 8105 8106 8104 8107 8105 8105 8106 8103 8107 8108 8114 8113 8116 8119 8122 8125 8125 8121 8128 8125 8127 8135 8131 8131 8131 8135 8133 8137 8135 8141 8139 8143 8142 8143 8143 8144 8139 8136 8132 8132 8130 8126 8124 8119 8121 8119 8120 8117 8116 8112 8113 8111 8114 8112 8114 8113 8109 8118 8117 8119 8115 8112 8113 8115 8115 8114 8105 8099 8100 
8022 8058 8080 8095 8098 8095 8094 8097 8099 8100 8103 8102 8104 8103 8105 8102 8108 8105 8106 8109 8112 8113 8113 8116 8120 8123 8126 8124 8124 8126 8127 8129 8131 8132 8132 8135 8140 8137 8139 8138 8143 8142 8141 8144 8140 8142 8142 8138 8137 8131 8130 8127 8125 8122 8120 8120 8122 8120 8118 8115 8111 8111 8114 8112 8112 8109 8116 8110 8114 8115 8118 8117 8110 8114 8107 8114 8110 8101 8098 8099 
8029 8069 8079 8092 8093 8093 8093 8098 8098 8103 8103 8100 8103 8106 8105 8104 8106 8108 8107 8113 8113 8117 8115 8115 8119 8123 8126 8128 8126 8127 8128 8130 8136 8136 8134 8136 8141 8139 8139 8138 8141 8143 8140 8143 8145 8145 8139 8140 8139 8138 8133 8133 8129 8127 8123 8122 8124 8119 8117 8121 8115 8113 8112 8109 8113 8115 8114 8111 8115 8116 8119 8119 8111 8110 8107 8109 8105 8095 8092 8094 
8045 8080 8084 8091 8097 8093 8095 8100 8102 8101 8099 8098 8105 8105 8106 8104 8108 8112 8108 8111 8113 8114 8115 8114 8118 8126 8127 8128 8128 8129 8130 8129 8136 8138 8138 8135 8144 8141 8143 8140 8141 8143 8140 8142 8141 8144 8141 8142 8136 8136 8135 8134 8129 8129 8124 8122 8125 8123 8120 8119 8118 8114 8114 8110 8110 8111 8114 8113 8115 8116 8118 8116 8113 8113 8108 8107 8099 8090 8090 8098 
8062 8086 8090 8091 8096 8092 8098 8102 8098 8102 8101 8096 8104 8103 8103 8105 8110 8110 8112 8115 8114 8115 8114 8121 8121 8123 8127 8127 8129 8132 8132 8131 8136 8140 8138 8142 8145 8142 8142 8140 8141 8143 8141 8143 8142 8143 8139 8142 8140 8139 8135 8135 8133 8128 8125 8126 8129 8125 8121 8121 8119 8118 8114 8115 8112 8113 8113 8112 8117 8118 8115 8116 8112 8111 8110 8102 8091 8087 8087 8092 
8077 8094 8090 8094 8095 8094 8098 8103 8100 8101 8099 8103 8104 8103 8105 8106 8107 8111 8113 8116 8115 8118 8117 8117 8127 8125 8127 8126 8131 8132 8132 8134 8138 8143 8139 8143 8146 8143 8146 8142 8142 8146 8143 8144 8145 8140 8142 8140 8141 8138 8137 8136 8131 8131 8129 8125 8128 8128 8123 8121 8121 8119 8120 8115 8115 8116 8117 8115 8118 8117 8119 8117 8114 8114 8111 8100 8089 8085 8085 8089 
8086 8101 8092 8098 8097 8097 8104 8103 8101 8099 8102 8101 8102 8105 8108 8108 8111 8114 8114 8118 8116 8119 8116 8119 8124 8126 8128 8129 8131 8133 8135 8135 8139 8143 8139 8142 8148 8144 8144 8141 8144 8147 8146 8141 8142 8128 8132 8137 8137 8139 8137 8133 8131 8130 8129 8127 8132 8131 8127 8126 8124 8122 8122 8120 8118 8119 8117 8115 8119 8114 8118 8114 8115 8113 8111 8099 8085 8086 8088 8092 
8090 8099 8098 8104 8101 8099 8105 8106 8104 8101 8102 8102 8108 8109 8109 8109 8114 8114 8116 8120 8121 8119 8118 8122 8127 8126 8131 8131 8130 8134 8136 8136 8140 8144 8142 8148 8149 8146 8150 8145 8146 8146 8144 8147 8134 8080 8082 8112 8127 8133 8110 8114 8123 8126 8128 8127 8135 8131 8131 8128 8124 8126 8122 8122 8120 8118 8121 8121 8118 8117 8119 8117 8112 8113 8107 8105 8092 8087 8088 8087 
8094 8107 8100 8103 8106 8105 8111 8107 8106 8104 8106 8103 8107 8109 8108 8111 8111 8115 8116 8120 8121 8120 8118 8121 8127 8127 8130 8131 8130 8134 8134 8137 8140 8144 8143 8143 8150 8148 8145 8144 8145 8144 8144 8145 8126 8066 8059 8064 8089 8108 8070 8067 8079 8089 8110 8121 8131 8136 8130 8130 8126 8127 8128 8125 8126 8122 8123 8121 8121 8116 8118 8119 8112 8109 8107 8107 8098 8089 8091 8094 
8106 8111 8103 8111 8104 8105 8107 8110 8107 8107 8103 8106 8106 8108 8109 8108 8116 8112 8114 8117 8115 8118 8117 8120 8125 8126 8131 8129 8131 8135 8134 8134 8138 8140 8139 8142 8146 8145 8145 8142 8128 8122 8133 8140 8117 8068 8061 8060 8063 8065 8058 8062 8056 8056 8062 8099 8126 8133 8128 8130 8128 8126 8124 8125 8122 8123 8125 8124 8122 8123 8123 8120 8115 8114 8111 8111 8108 8091 8090 8092 
8107 8115 8107 8111 8112 8108 8106 8106 8105 8107 8108 8107 8106 8109 8110 8111 8114 8112 8111 8118 8116 8118 8118 8120 8121 8125 8127 8127 8132 8129 8134 8134 8138 8142 8136 8140 8145 8144 8145 8139 8098 8068 8075 8095 8114 8071 8062 8065 8062 8064 8064 8058 8053 8059 8079 8110 8129 8134 8131 8129 8129 8127 8127 8126 8127 8127 8127 8125 8124 8125 8125 8125 8119 8118 8117 8118 8113 8099 8093 8093 
8109 8116 8103 8111 8105 8107 8104 8106 8107 8107 8109 8106 8108 8109 8108 8111 8113 8114 8113 8117 8118 8118 8119 8121 8121 8125 8129 8130 8131 8133 8133 8130 8132 8128 8132 8138 8142 8141 8141 8133 8099 8063 8060 8066 8072 8071 8065 8067 8086 8083 8062 8056 8057 8077 8108 8121 8131 8131 8129 8131 8128 8130 8125 8127 8132 8127 8127 8126 8127 8125 8127 8125 8121 8118 8122 8122 8124 8105 8096 8097 
8112 8118 8109 8109 8106 8106 8105 8103 8106 8108 8106 8107 8109 8111 8110 8111 8113 8115 8113 8115 8118 8118 8118 8120 8124 8126 8131 8128 8131 8130 8134 8129 8101 8079 8122 8136 8143 8139 8138 8132 8108 8064 8061 8066 8068 8071 8088 8101 8085 8071 8060 8062 8056 8056 8068 8104 8125 8130 8128 8129 8127 8128 8125 8127 8128 8130 8129 8129 8129 8127 8129 8123 8124 8121 8123 8125 8128 8114 8097 8102 
8114 8119 8111 8108 8110 8110 8109 8104 8105 8105 8109 8111 8109 8111 8114 8115 8115 8114 8115 8117 8116 8118 8119 8120 8123 8117 8122 8126 8127 8129 8134 8116 8067 8059 8090 8132 8139 8136 8131 8094 8104 8072 8062 8063 8065 8066 8112 8112 8087 8067 8061 8056 8056 8054 8056 8063 8108 8129 8130 8128 8129 8127 8125 8127 8129 8131 8130 8127 8128 8129 8128 8127 8124 8122 8125 8124 8129 8119 8100 8104 
8115 8117 8109 8111 8112 8108 8107 8108 8106 8110 8116 8113 8116 8115 8118 8117 8119 8118 8116 8120 8117 8117 8118 8122 8119 8071 8063 8080 8109 8128 8130 8088 8060 8060 8063 8118 8139 8133 8128 8070 8086 8093 8060 8064 8067 8083 8114 8074 8072 8099 8090 8065 8068 8067 8068 8075 8104 8128 8127 8128 8126 8127 8128 8126 8129 8127 8130 8126 8128 8127 8128 8125 8123 8121 8124 8126 8123 8121 8107 8111 
8114 8114 8108 8112 8111 8109 8110 8110 8108 8112 8115 8114 8116 8117 8117 8117 8119 8121 8119 8116 8120 8119 8119 8120 8109 8054 8049 8052 8064 8098 8119 8064 8058 8059 8060 8101 8102 8124 8118 8069 8066 8099 8099 8072 8057 8076 8075 8059 8056 8060 8084 8094 8107 8116 8119 8120 8124 8127 8127 8128 8126 8128 8131 8129 8129 8129 8130 8126 8129 8128 8131 8128 8125 8123 8123 8126 8123 8122 8113 8114 
8114 8115 8106 8113 8114 8108 8113 8111 8110 8114 8118 8112 8114 8117 8121 8118 8118 8122 8120 8118 8122 8119 8115 8115 8108 8055 8052 8052 8051 8073 8116 8068 8066 8065 8055 8067 8065 8087 8072 8065 8071 8092 8100 8070 8056 8055 8051 8051 8050 8057 8057 8066 8099 8125 8127 8123 8129 8125 8126 8125 8127 8128 8126 8129 8128 8129 8130 8126 8130 8130 8129 8123 8125 8121 8123 8125 8128 8125 8116 8112 
8115 8118 8110 8111 8116 8112 8112 8116 8115 8121 8122 8120 8121 8120 8120 8123 8122 8125 8121 8121 8121 8116 8108 8082 8066 8058 8055 8054 8055 8091 8081 8064 8066 8065 8056 8055 8060 8068 8073 8065 8066 8059 8065 8068 8062 8056 8053 8054 8048 8055 8056 8060 8059 8107 8122 8123 8127 8125 8126 8129 8130 8126 8129 8128 8130 8130 8132 8128 8129 8129 8129 8126 8126 8126 8123 8122 8125 8122 8118 8116 
8116 8117 8109 8112 8115 8116 8117 8121 8122 8120 8126 8123 8122 8123 8124 8122 8124 8127 8122 8122 8119 8077 8049 8046 8048 8052 8074 8075 8084 8111 8077 8069 8073 8068 8065 8058 8062 8064 8069 8064 8062 8063 8067 8076 8068 8063 8058 8063 8063 8058 8058 8059 8057 8064 8108 8122 8128 8129 8127 8127 8128 8128 8129 8128 8130 8131 8133 8130 8134 8133 8133 8129 8127 8125 8122 8121 8125 8122 8119 8117 
8116 8117 8112 8117 8115 8115 8117 8122 8122 8124 8125 8123 8125 8126 8122 8125 8127 8125 8125 8121 8097 8048 8042 8045 8049 8056 8063 8063 8058 8087 8076 8069 8069 8063 8062 8057 8063 8073 8064 8061 8068 8066 8072 8076 8072 8077 8075 8071 8077 8056 8084 8080 8066 8063 8083 8123 8129 8130 8128 8127 8128 8129 8130 8132 8131 8132 8134 8132 8134 8132 8135 8132 8128 8125 8120 8121 8123 8123 8122 8117 
8118 8122 8111 8115 8117 8117 8119 8123 8126 8122 8123 8123 8124 8124 8125 8124 8127 8126 8124 8116 8066 8042 8043 8050 8067 8051 8053 8050 8054 8079 8060 8060 8063 8059 8067 8065 8065 8062 8059 8062 8057 8062 8064 8062 8068 8069 8064 8060 8053 8052 8054 8108 8121 8119 8120 8123 8132 8130 8130 8128 8128 8129 8129 8129 8133 8130 8133 8134 8136 8134 8135 8134 8130 8130 8125 8126 8127 8124 8121 8123 
8121 8125 8116 8123 8122 8120 8119 8120 8118 8122 8123 8122 8125 8123 8123 8124 8125 8123 8117 8115 8060 8048 8062 8099 8096 8052 8052 8051 8063 8073 8057 8059 8061 8062 8057 8060 8061 8058 8068 8068 8059 8058 8062 8063 8061 8059 8063 8058 8052 8048 8049 8069 8112 8120 8124 8125 8129 8128 8126 8126 8127 8128 8129 8131 8129 8131 8133 8130 8134 8134 8136 8135 8132 8133 8133 8133 8132 8131 8127 8127 
8125 8128 8119 8124 8121 8119 8120 8118 8121 8125 8123 8123 8125 8126 8127 8126 8123 8121 8119 8120 8106 8077 8112 8118 8073 8052 8052 8054 8082 8072 8057 8057 8060 8062 8073 8064 8059 8057 8066 8074 8061 8059 8072 8069 8058 8057 8075 8070 8053 8051 8046 8047 8071 8118 8125 8127 8128 8129 8125 8126 8127 8129 8129 8132 8132 8134 8134 8135 8134 8136 8135 8132 8134 8134 8137 8137 8139 8138 8135 8133 
8122 8127 8120 8121 8119 8120 8121 8120 8121 8122 8126 8126 8125 8128 8128 8128 8124 8118 8121 8122 8119 8110 8122 8120 8070 8050 8052 8063 8090 8068 8058 8057 8062 8065 8068 8069 8063 8055 8077 8071 8062 8064 8095 8088 8058 8056 8084 8109 8084 8056 8056 8051 8051 8098 8123 8126 8127 8126 8126 8127 8126 8132 8131 8133 8133 8133 8136 8134 8136 8134 8138 8136 8135 8133 8135 8136 8140 8139 8140 8138 
8122 8126 8121 8123 8120 8119 8120 8118 8121 8121 8127 8122 8125 8128 8128 8127 8129 8124 8128 8126 8125 8126 8124 8122 8076 8053 8060 8096 8106 8091 8061 8057 8063 8069 8066 8071 8070 8064 8064 8067 8073 8068 8090 8090 8062 8057 8086 8114 8118 8108 8115 8106 8102 8120 8124 8124 8117 8112 8125 8127 8128 8127 8131 8133 8135 8136 8136 8136 8138 8137 8136 8134 8134 8136 8136 8139 8142 8144 8144 8147 
8123 8129 8117 8126 8122 8122 8121 8125 8121 8126 8127 8125 8129 8129 8127 8129 8129 8128 8129 8126 8126 8128 8126 8124 8086 8057 8085 8106 8107 8099 8062 8059 8066 8068 8067 8084 8088 8078 8069 8071 8078 8079 8067 8070 8067 8059 8067 8089 8112 8122 8131 8131 8122 8125 8123 8110 8086 8090 8098 8113 8127 8132 8131 8131 8135 8136 8133 8134 8137 8140 8140 8134 8135 8135 8136 8138 8144 8144 8147 8150 
8121 8124 8117 8124 8126 8124 8118 8123 8123 8125 8125 8125 8128 8130 8130 8129 8130 8127 8126 8126 8126 8124 8123 8125 8101 8079 8110 8113 8102 8096 8068 8067 8070 8071 8070 8084 8080 8063 8055 8058 8064 8060 8054 8057 8065 8068 8070 8072 8097 8112 8126 8135 8129 8124 8108 8084 8088 8090 8094 8104 8123 8128 8130 8133 8130 8133 8133 8132 8136 8136 8138 8137 8135 8138 8137 8140 8143 8148 8146 8151 
8121 8132 8122 8127 8129 8125 8125 8127 8124 8122 8127 8126 8130 8134 8129 8130 8129 8130 8125 8125 8125 8126 8126 8121 8109 8110 8118 8116 8105 8098 8085 8095 8069 8082 8071 8058 8058 8052 8053 8060 8064 8057 8052 8058 8072 8079 8079 8077 8076 8098 8115 8132 8141 8109 8086 8087 8092 8099 8107 8124 8127 8130 8131 8135 8134 8136 8135 8131 8133 8133 8136 8135 8134 8136 8142 8143 8150 8154 8152 8152 
8125 8129 8122 8127 8122 8124 8123 8126 8127 8126 8128 8128 8129 8128 8129 8128 8130 8126 8125 8125 8122 8127 8126 8119 8112 8115 8118 8111 8108 8105 8108 8102 8085 8077 8052 8052 8056 8054 8055 8062 8062 8056 8055 8058 8063 8066 8071 8079 8070 8084 8106 8124 8116 8094 8085 8091 8098 8110 8120 8126 8127 8129 8127 8128 8133 8132 8130 8132 8133 8131 8136 8138 8135 8139 8140 8145 8148 8156 8156 8156 
8126 8130 8125 8129 8129 8125 8128 8128 8124 8126 8130 8130 8130 8130 8132 8128 8129 8127 8125 8126 8127 8126 8126 8119 8114 8122 8121 8113 8104 8100 8104 8104 8094 8064 8054 8055 8055 8055 8059 8061 8068 8067 8062 8059 8056 8055 8065 8067 8069 8078 8097 8113 8097 8100 8097 8096 8117 8123 8123 8126 8126 8126 8127 8130 8133 8130 8132 8133 8132 8130 8137 8137 8134 8137 8139 8147 8149 8156 8155 8162 
8123 8131 8124 8131 8129 8127 8126 8127 8129 8127 8131 8128 8131 8131 8130 8130 8131 8129 8125 8126 8127 8125 8126 8116 8117 8120 8118 8109 8105 8108 8111 8109 8088 8064 8055 8055 8055 8054 8053 8062 8068 8063 8062 8065 8058 8059 8057 8072 8086 8089 8095 8101 8103 8104 8107 8116 8124 8126 8125 8125 8127 8126 8126 8128 8129 8128 8131 8128 8130 8134 8135 8136 8134 8139 8140 8143 8151 8154 8158 8158 
8124 8134 8126 8129 8129 8130 8127 8126 8126 8127 8129 8129 8127 8127 8129 8133 8131 8125 8124 8123 8124 8128 8129 8116 8118 8121 8117 8112 8105 8102 8104 8109 8110 8090 8061 8058 8059 8057 8056 8067 8063 8059 8059 8061 8062 8062 8058 8071 8085 8093 8099 8103 8106 8109 8122 8121 8124 8124 8124 8122 8123 8123 8125 8128 8130 8129 8135 8130 8129 8133 8135 8137 8135 8137 8140 8142 8152 8155 8157 8162 
8124 8135 8128 8133 8130 8129 8127 8128 8128 8129 8127 8127 8128 8127 8128 8129 8127 8128 8126 8124 8126 8128 8128 8118 8118 8122 8114 8107 8106 8101 8106 8110 8102 8078 8060 8063 8069 8062 8063 8066 8067 8064 8061 8063 8062 8062 8061 8062 8083 8100 8103 8106 8109 8122 8140 8121 8125 8126 8124 8122 8122 8125 8125 8127 8128 8127 8130 8128 8131 8133 8132 8136 8139 8140 8141 8146 8149 8153 8159 8162 
8131 8138 8127 8133 8129 8130 8132 8129 8129 8128 8128 8128 8127 8129 8128 8126 8127 8128 8127 8128 8127 8127 8126 8121 8120 8120 8111 8113 8109 8103 8111 8110 8100 8070 8065 8066 8068 8065 8066 8069 8070 8067 8060 8061 8067 8072 8070 8069 8087 8101 8102 8103 8117 8131 8144 8120 8123 8127 8122 8122 8122 8124 8121 8125 8129 8128 8130 8130 8131 8134 8139 8139 8140 8143 8146 8148 8152 8156 8159 8162 
8133 8139 8129 8138 8132 8132 8130 8136 8131 8128 8129 8127 8130 8131 8130 8129 8132 8129 8128 8127 8127 8128 8128 8123 8116 8125 8115 8111 8110 8106 8100 8095 8076 8068 8063 8067 8070 8065 8066 8063 8065 8069 8064 8064 8070 8086 8086 8092 8095 8096 8092 8102 8119 8137 8136 8121 8124 8122 8126 8125 8125 8125 8126 8124 8128 8127 8126 8131 8132 8136 8135 8138 8137 8140 8144 8146 8151 8156 8158 8161 
8139 8141 8132 8135 8134 8132 8132 8135 8131 8122 8124 8128 8131 8131 8131 8130 8132 8130 8128 8129 8128 8131 8130 8128 8120 8123 8118 8113 8105 8097 8096 8095 8070 8070 8069 8070 8070 8066 8065 8064 8062 8067 8064 8067 8067 8082 8090 8087 8086 8089 8088 8106 8130 8145 8125 8119 8123 8122 8123 8122 8124 8120 8124 8123 8128 8127 8127 8129 8131 8131 8136 8139 8138 8141 8141 8147 8151 8152 8154 8157 
8140 8143 8133 8139 8132 8130 8134 8135 8133 8128 8131 8128 8129 8130 8130 8130 8131 8129 8129 8129 8130 8132 8127 8128 8121 8122 8122 8113 8103 8100 8105 8102 8098 8106 8099 8084 8069 8064 8063 8061 8062 8064 8065 8067 8066 8080 8094 8091 8087 8087 8094 8116 8147 8131 8122 8118 8125 8123 8123 8125 8124 8123 8122 8123 8127 8127 8127 8125 8129 8129 8136 8133 8139 8137 8144 8144 8149 8152 8155 8157 
8140 8145 8137 8140 8135 8135 8134 8134 8131 8132 8132 8134 8132 8131 8132 8128 8128 8127 8129 8128 8128 8132 8127 8129 8128 8118 8123 8114 8103 8104 8114 8114 8120 8114 8107 8085 8068 8064 8064 8061 8063 8072 8069 8068 8070 8076 8091 8090 8088 8089 8097 8136 8140 8128 8124 8120 8126 8124 8124 8123 8126 8125 8128 8125 8128 8126 8127 8128 8132 8131 8134 8133 8137 8140 8141 8151 8153 8152 8156 8150 
8138 8146 8135 8139 8139 8135 8135 8134 8132 8133 8134 8131 8132 8130 8128 8126 8128 8130 8127 8129 8128 8128 8127 8128 8133 8124 8125 8118 8108 8114 8114 8115 8115 8112 8103 8073 8068 8066 8068 8061 8071 8085 8086 8084 8077 8079 8093 8095 8099 8108 8124 8150 8117 8125 8126 8123 8125 8126 8123 8126 8127 8124 8124 8126 8130 8130 8129 8129 8129 8133 8130 8135 8136 8138 8142 8146 8151 8153 8154 8153 
8139 8146 8140 8142 8140 8139 8135 8135 8131 8133 8132 8132 8130 8129 8128 8125 8127 8128 8128 8128 8126 8128 8127 8130 8133 8129 8120 8126 8116 8120 8115 8112 8117 8114 8108 8096 8073 8063 8064 8063 8067 8090 8093 8093 8095 8093 8094 8095 8102 8115 8134 8123 8110 8127 8125 8123 8127 8125 8125 8124 8125 8125 8123 8124 8128 8131 8127 8128 8132 8131 8133 8137 8135 8139 8141 8145 8151 8151 8149 8154 
8136 8144 8138 8137 8135 8136 8132 8133 8132 8135 8134 8131 8129 8129 8131 8127 8128 8130 8127 8129 8126 8127 8128 8131 8134 8131 8112 8119 8123 8121 8115 8112 8119 8121 8122 8110 8076 8061 8064 8067 8067 8088 8092 8095 8097 8097 8093 8097 8106 8123 8116 8102 8115 8129 8126 8126 8126 8127 8128 8125 8127 8125 8126 8126 8128 8127 8127 8127 8129 8131 8135 8138 8136 8136 8139 8141 8149 8148 8151 8150 
8136 8145 8132 8135 8132 8133 8132 8130 8130 8132 8134 8130 8129 8131 8131 8127 8127 8131 8130 8129 8128 8127 8129 8127 8134 8131 8117 8098 8114 8120 8118 8113 8113 8120 8118 8113 8078 8064 8067 8084 8077 8092 8098 8100 8101 8102 8098 8114 8119 8111 8099 8103 8121 8128 8125 8126 8131 8132 8128 8126 8128 8127 8128 8128 8129 8132 8128 8123 8127 8130 8132 8136 8133 8136 8137 8142 8150 8150 8150 8149 
8133 8136 8133 8137 8135 8133 8133 8132 8133 8134 8133 8130 8133 8130 8131 8125 8129 8131 8127 8129 8129 8127 8128 8130 8134 8132 8126 8101 8094 8103 8121 8118 8115 8114 8109 8107 8079 8078 8098 8100 8099 8103 8100 8103 8108 8107 8117 8117 8102 8095 8099 8107 8125 8127 8130 8128 8129 8129 8127 8127 8130 8129 8130 8133 8132 8130 8126 8124 8127 8129 8135 8135 8131 8135 8138 8141 8145 8147 8150 8149 
8137 8141 8135 8135 8135 8133 8132 8131 8131 8133 8132 8133 8133 8134 8132 8127 8133 8129 8126 8129 8129 8128 8126 8127 8133 8133 8131 8109 8091 8086 8090 8111 8122 8118 8112 8109 8106 8110 8110 8109 8106 8109 8106 8113 8120 8122 8111 8096 8088 8098 8104 8118 8128 8130 8130 8129 8132 8128 8127 8130 8129 8132 8130 8132 8130 8130 8127 8121 8125 8129 8134 8132 8133 8136 8133 8135 8145 8146 8144 8148 
8142 8142 8133 8133 8133 8134 8133 8129 8133 8134 8132 8133 8135 8134 8131 8132 8131 8130 8128 8130 8128 8126 8126 8130 8132 8132 8133 8123 8101 8090 8085 8083 8101 8114 8118 8116 8118 8110 8112 8109 8111 8115 8116 8120 8119 8107 8097 8090 8092 8097 8113 8126 8127 8128 8126 8128 8132 8131 8129 8129 8130 8130 8129 8127 8131 8129 8129 8126 8131 8127 8127 8129 8130 8132 8130 8131 8136 8143 8141 8149 
8136 8142 8132 8136 8134 8134 8133 8132 8131 8134 8135 8132 8136 8135 8135 8134 8135 8131 8131 8129 8129 8129 8131 8129 8134 8135 8135 8127 8118 8097 8093 8085 8096 8101 8103 8108 8111 8103 8105 8103 8105 8106 8105 8105 8100 8101 8095 8094 8098 8109 8124 8132 8130 8132 8130 8125 8131 8133 8128 8130 8129 8129 8131 8126 8129 8129 8129 8128 8130 8129 8130 8129 8130 8130 8128 8133 8140 8140 8138 8142 
8139 8143 8132 8137 8135 8135 8137 8136 8132 8133 8135 8133 8136 8138 8134 8133 8137 8134 8131 8131 8130 8130 8130 8134 8135 8136 8134 8132 8125 8115 8104 8097 8096 8101 8106 8102 8099 8096 8093 8091 8094 8094 8095 8096 8096 8097 8095 8105 8110 8124 8128 8134 8133 8130 8128 8130 8129 8131 8129 8129 8125 8130 8130 8127 8129 8130 8130 8126 8129 8128 8130 8132 8130 8129 8133 8133 8141 8143 8136 8138 
8137 8147 8135 8140 8137 8134 8137 8137 8140 8139 8138 8136 8136 8137 8136 8134 8137 8136 8132 8134 8133 8133 8130 8135 8138 8136 8136 8136 8132 8128 8125 8111 8108 8108 8113 8115 8107 8097 8092 8087 8098 8095 8090 8093 8094 8098 8106 8119 8125 8128 8134 8134 8133 8130 8130 8129 8134 8130 8128 8129 8124 8129 8128 8125 8128 8128 8130 8129 8129 8127 8130 8133 8130 8133 8133 8138 8138 8142 8142 8139 
8134 8141 8135 8139 8138 8139 8138 8138 8136 8140 8139 8135 8141 8133 8132 8134 8136 8138 8132 8133 8132 8131 8130 8133 8139 8135 8136 8136 8133 8130 8131 8130 8125 8115 8107 8108 8104 8106 8100 8090 8103 8098 8101 8106 8111 8115 8125 8128 8129 8132 8135 8138 8133 8132 8129 8126 8134 8128 8128 8127 8123 8127 8129 8127 8127 8127 8125 8126 8130 8126 8133 8129 8130 8133 8132 8136 8136 8142 8139 8142 
8135 8140 8135 8139 8137 8140 8139 8137 8135 8135 8140 8138 8137 8136 8136 8135 8136 8136 8134 8135 8131 8133 8133 8135 8138 8139 8143 8140 8136 8138 8136 8133 8134 8136 8127 8122 8120 8113 8111 8107 8111 8115 8118 8123 8129 8132 8135 8134 8136 8135 8139 8138 8136 8134 8129 8127 8132 8130 8126 8129 8126 8128 8130 8131 8128 8124 8126 8127 8132 8128 8132 8130 8130 8136 8135 8134 8140 8138 8138 8141 
8137 8143 8134 8136 8139 8136 8144 8136 8135 8133 8138 8135 8138 8139 8137 8135 8137 8138 8133 8131 8130 8131 8131 8133 8139 8139 8139 8139 8139 8141 8142 8138 8136 8142 8136 8138 8137 8132 8132 8129 8131 8135 8138 8139 8135 8135 8137 8137 8137 8137 8137 8137 8133 8132 8128 8128 8131 8130 8128 8126 8130 8132 8127 8127 8126 8128 8126 8127 8131 8128 8133 8134 8132 8131 8134 8131 8134 8137 8134 8139 
8137 8143 8130 8137 8140 8138 8133 8141 8133 8136 8137 8136 8139 8140 8136 8133 8135 8137 8135 8134 8132 8131 8135 8136 8142 8143 8143 8144 8144 8142 8141 8139 8142 8141 8138 8137 8139 8140 8135 8135 8138 8136 8139 8142 8140 8141 8139 8139 8138 8138 8141 8136 8136 8132 8132 8129 8132 8131 8128 8130 8131 8132 8128 8124 8125 8129 8127 8126 8126 8131 8131 8133 8130 8133 8131 8135 8134 8139 8134 8135 
8137 8144 8138 8143 8142 8136 8142 8143 8136 8136 8134 8136 8139 8137 8140 8133 8136 8134 8136 8137 8133 8136 8137 8138 8140 8142 8146 8146 8143 8146 8147 8143 8143 8147 8143 8144 8142 8139 8138 8138 8143 8140 8139 8145 8146 8143 8142 8143 8138 8141 8140 8140 8134 8134 8129 8129 8133 8132 8131 8132 8130 8132 8130 8127 8125 8127 8126 8126 8128 8132 8129 8129 8129 8132 8132 8129 8132 8133 8131 8133 
8141 8146 8138 8142 8141 8142 8143 8143 8133 8137 8135 8134 8140 8138 8136 8134 8137 8135 8136 8134 8134 8134 8131 8140 8143 8144 8144 8144 8144 8143 8148 8144 8147 8147 8146 8146 8150 8141 8139 8140 8141 8143 8138 8148 8149 8146 8144 8143 8144 8144 8143 8141 8134 8133 8131 8130 8136 8132 8129 8131 8131 8129 8129 8128 8125 8123 8125 8126 8130 8130 8131 8131 8127 8131 8130 8128 8131 8133 8127 8130 
8141 8144 8140 8143 8144 8143 8144 8140 8139 8140 8138 8139 8138 8137 8136 8135 8135 8134 8134 8134 8136 8135 8133 8137 8142 8142 8143 8142 8145 8144 8147 8146 8148 8149 8149 8149 8152 8145 8141 8139 8140 8148 8149 8150 8152 8150 8143 8144 8143 8142 8141 8140 8132 8135 8130 8132 8132 8132 8128 8130 8127 8127 8127 8124 8126 8122 8123 8123 8124 8128 8130 8129 8128 8130 8127 8124 8127 8126 8126 8125 
8136 8147 8140 8142 8139 8139 8140 8143 8138 8141 8138 8135 8139 8138 8132 8135 8134 8132 8128 8132 8137 8138 8134 8135 8140 8136 8141 8142 8144 8144 8147 8146 8148 8151 8150 8150 8152 8148 8143 8143 8143 8148 8148 8151 8152 8148 8144 8149 8142 8140 8143 8139 8133 8133 8131 8126 8131 8130 8126 8129 8125 8126 8126 8123 8119 8124 8121 8122 8123 8125 8126 8128 8125 8124 8125 8121 8128 8125 8122 8126 
8139 8147 8137 8139 8138 8138 8141 8137 8139 8144 8138 8135 8139 8138 8137 8131 8130 8132 8133 8132 8134 8137 8135 8138 8142 8137 8139 8141 8146 8150 8150 8144 8152 8152 8148 8152 8152 8148 8145 8144 8145 8149 8149 8149 8149 8150 8146 8145 8141 8142 8140 8136 8129 8130 8127 8129 8129 8130 8125 8129 8123 8121 8124 8121 8117 8123 8121 8120 8122 8126 8129 8124 8122 8124 8125 8116 8123 8121 8118 8120 
8137 8148 8139 8134 8132 8136 8141 8136 8139 8137 8137 8130 8135 8136 8140 8129 8131 8133 8128 8133 8132 8134 8133 8138 8142 8143 8145 8145 8146 8146 8145 8146 8150 8150 8142 8148 8153 8147 8142 8144 8150 8150 8147 8148 8149 8146 8142 8148 8143 8141 8139 8133 8129 8128 8125 8124 8129 8128 8123 8123 8121 8117 8122 8115 8119 8119 8121 8119 8124 8124 8125 8125 8120 8121 8119 8118 8119 8115 8116 8120 
8145 8139 8125 8129 8133 8132 8133 8140 8142 8137 8137 8133 8135 8132 8132 8127 8127 8130 8130 8129 8130 8133 8133 8136 8147 8147 8145 8146 8144 8144 8147 8142 8144 8151 8143 8148 8151 8147 8144 8143 8144 8148 8144 8147 8145 8144 8144 8145 8142 8139 8136 8130 8126 8131 8125 8127 8128 8129 8123 8126 8120 8121 8118 8118 8120 8118 8121 8122 8125 8126 8128 8123 8119 8118 8120 8117 8119 8116 8120 8122 
8146 8132 8127 8127 8131 8129 8130 8134 8134 8135 8137 8129 8131 8128 8129 8126 8124 8126 8128 8131 8132 8131 8135 8138 8143 8148 8147 8146 8140 8136 8138 8141 8143 8142 8138 8142 8143 8139 8141 8143 8141 8137 8133 8139 8142 8138 8140 8141 8135 8136 8134 8132 8125 8123 8124 8122 8126 8125 8122 8121 8122 8119 8118 8119 8119 8122 8124 8121 8123 8125 8130 8128 8125 8119 8120 8113 8115 8117 8116 8117 


