P2
80 60
8139
8008 8030 8058 8071 8076 8074 8075 8080 8078 8083 8087 8085 8086 8088 8087 8086 8086 8084 8085 8089 8087 8094 8099 8097 8096 8098 8099 8101 8103 8104 8105 8105 8112 8111 8111 8113 8115 8117 8122 8119 8121 8118 8119 8125 8125 8122 8123 8119 8118 8113 8113 8107 8104 8098 8099 8097 8096 8093 8095 8090 8093 8089 8089 8091 8093 8089 8093 8089 8090 8093 8092 8091 8093 8091 8090 8092 8089 8084 8075 8074 
8003 8035 8061 8071 8080 8076 8076 8080 8080 8081 8086 8084 8083 8084 8087 8087 8088 8085 8085 8090 8093 8094 8099 8097 8099 8098 8099 8100 8103 8102 8108 8110 8112 8114 8113 8116 8118 8122 8124 8124 8122 8119 8122 8126 8122 8124 8124 8122 8119 8112 8112 8109 8106 8100 8098 8100 8101 8097 8094 8095 8094 8087 8089 8092 8092 8088 8089 8088 8087 8090 8090 8088 8089 8090 8087 8095 8085 8074 8074 8066 
8010 8047 8063 8070 8077 8077 8076 8081 8082 8084 8084 8083 8083 8088 8087 8087 8087 8089 8089 8092 8095 8097 8102 8097 8098 8099 8101 8103 8105 8107 8109 8112 8110 8113 8112 8115 8120 8123 8128 8125 8122 8119 8117 8115 8114 8121 8126 8123 8120 8115 8114 8110 8106 8105 8102 8101 8101 8096 8098 8097 8096 8091 8090 8090 8092 8088 8091 8088 8091 8092 8094 8090 8091 8090 8089 8089 8082 8069 8072 8065 
8026 8057 8069 8074 8080 8078 8077 8083 8085 8084 8085 8083 8085 8090 8089 8089 8093 8091 8090 8094 8092 8094 8099 8097 8099 8101 8102 8106 8107 8108 8110 8110 8107 8084 8099 8113 8121 8124 8127 8123 8122 8116 8087 8063 8062 8085 8111 8122 8121 8117 8117 8111 8108 8108 8102 8105 8102 8098 8101 8098 8098 8091 8094 8091 8090 8090 8090 8091 8091 8092 8093 8092 8093 8088 8086 8087 8072 8068 8068 8062 
8044 8064 8073 8073 8077 8076 8080 8085 8080 8084 8086 8083 8086 8088 8087 8089 8093 8091 8092 8096 8097 8099 8099 8099 8096 8103 8103 8109 8104 8109 8107 8106 8077 8045 8057 8100 8123 8127 8128 8124 8122 8102 8042 8034 8037 8043 8073 8115 8124 8120 8119 8114 8112 8111 8107 8108 8104 8102 8102 8098 8102 8097 8094 8096 8092 8090 8093 8094 8091 8094 8093 8090 8092 8091 8087 8080 8064 8062 8064 8060 
8056 8072 8071 8074 8079 8078 8081 8085 8083 8082 8085 8087 8087 8084 8088 8091 8092 8094 8092 8098 8095 8098 8102 8103 8102 8104 8101 8103 8105 8107 8108 8092 8043 8038 8039 8062 8113 8124 8126 8127 8123 8092 8038 8034 8033 8037 8052 8115 8122 8122 8122 8120 8113 8109 8106 8109 8106 8107 8106 8102 8103 8096 8098 8096 8091 8093 8092 8093 8092 8095 8094 8090 8093 8093 8089 8079 8067 8063 8065 8064 
8066 8082 8077 8079 8080 8084 8088 8090 8085 8085 8085 8086 8086 8089 8092 8091 8092 8094 8096 8098 8098 8102 8104 8102 8100 8104 8101 8105 8109 8110 8109 8077 8037 8034 8038 8043 8088 8122 8131 8126 8123 8107 8047 8032 8034 8034 8067 8121 8123 8120 8122 8116 8114 8112 8109 8111 8110 8108 8107 8103 8104 8101 8100 8102 8097 8096 8097 8095 8094 8096 8093 8092 8093 8092 8087 8083 8065 8063 8067 8061 
8071 8078 8082 8085 8084 8086 8088 8091 8086 8082 8086 8087 8089 8090 8091 8092 8093 8095 8094 8101 8100 8102 8102 8103 8104 8104 8106 8110 8108 8112 8111 8074 8037 8034 8036 8039 8075 8115 8110 8125 8118 8102 8053 8034 8033 8044 8096 8123 8120 8118 8119 8116 8113 8109 8108 8112 8109 8111 8110 8109 8106 8105 8101 8103 8100 8098 8098 8101 8096 8094 8097 8095 8093 8092 8088 8085 8069 8066 8069 8059 
8077 8084 8086 8085 8088 8089 8094 8091 8088 8085 8088 8089 8090 8091 8091 8093 8093 8094 8099 8101 8101 8101 8103 8101 8104 8105 8105 8109 8112 8111 8113 8094 8044 8038 8037 8036 8069 8075 8092 8108 8077 8048 8043 8035 8035 8064 8109 8112 8103 8094 8095 8095 8103 8108 8110 8110 8112 8112 8111 8111 8109 8105 8104 8103 8103 8099 8104 8099 8099 8099 8098 8095 8095 8094 8087 8089 8075 8068 8068 8062 
8087 8089 8088 8089 8087 8090 8090 8091 8089 8089 8087 8091 8088 8090 8092 8092 8092 8094 8095 8098 8096 8100 8100 8100 8103 8102 8104 8100 8104 8106 8110 8113 8097 8063 8043 8054 8052 8065 8061 8049 8040 8052 8082 8051 8037 8048 8067 8078 8058 8041 8039 8047 8060 8079 8098 8109 8114 8112 8110 8110 8107 8107 8106 8107 8105 8104 8103 8102 8100 8101 8100 8097 8098 8096 8091 8093 8090 8069 8072 8068 
8091 8091 8090 8091 8092 8090 8089 8088 8087 8087 8093 8091 8089 8093 8093 8096 8095 8094 8093 8098 8100 8101 8103 8103 8101 8100 8085 8055 8048 8060 8094 8106 8102 8092 8067 8087 8078 8052 8038 8039 8038 8043 8089 8081 8043 8064 8064 8064 8038 8030 8031 8035 8044 8046 8063 8096 8111 8112 8112 8111 8112 8106 8109 8108 8106 8106 8103 8104 8100 8102 8100 8101 8098 8100 8100 8099 8093 8077 8074 8068 
8092 8093 8091 8092 8092 8091 8090 8087 8088 8085 8092 8090 8089 8092 8093 8096 8096 8093 8096 8098 8099 8099 8102 8103 8100 8083 8045 8032 8036 8031 8049 8073 8051 8041 8042 8064 8088 8041 8034 8037 8037 8043 8082 8071 8042 8041 8039 8035 8028 8019 8028 8031 8041 8038 8042 8063 8099 8111 8113 8112 8110 8107 8110 8110 8110 8105 8105 8103 8106 8104 8102 8100 8102 8101 8101 8103 8100 8082 8077 8074 
8095 8095 8092 8092 8091 8088 8088 8085 8087 8089 8088 8090 8091 8092 8094 8095 8093 8097 8096 8099 8096 8101 8103 8099 8095 8052 8039 8032 8032 8032 8042 8033 8030 8032 8031 8033 8059 8038 8035 8035 8037 8057 8069 8042 8036 8032 8033 8032 8026 8022 8024 8031 8037 8040 8039 8045 8073 8104 8113 8109 8109 8108 8106 8109 8110 8107 8106 8104 8105 8104 8104 8102 8103 8102 8102 8106 8104 8091 8077 8073 
8096 8097 8093 8094 8094 8093 8092 8087 8088 8089 8092 8094 8092 8095 8096 8096 8098 8096 8098 8099 8095 8100 8105 8101 8085 8043 8037 8035 8036 8064 8084 8032 8029 8030 8030 8031 8044 8047 8045 8036 8051 8068 8041 8043 8056 8043 8033 8027 8028 8023 8029 8043 8051 8049 8048 8058 8066 8097 8114 8110 8110 8109 8108 8111 8111 8110 8105 8105 8102 8104 8103 8101 8104 8102 8101 8107 8106 8097 8081 8075 
8097 8094 8096 8096 8097 8093 8091 8091 8091 8092 8096 8098 8097 8096 8099 8099 8098 8099 8103 8102 8098 8101 8104 8103 8070 8052 8056 8064 8085 8103 8096 8033 8029 8029 8032 8043 8036 8044 8066 8032 8070 8040 8038 8058 8059 8048 8036 8030 8025 8025 8033 8068 8099 8098 8095 8100 8104 8106 8112 8110 8111 8106 8107 8109 8111 8109 8108 8106 8103 8103 8103 8101 8104 8102 8104 8106 8103 8098 8088 8081 
8093 8092 8094 8096 8090 8092 8091 8092 8092 8094 8097 8095 8097 8097 8096 8096 8099 8101 8103 8101 8101 8102 8103 8102 8095 8097 8096 8100 8105 8103 8088 8034 8029 8030 8046 8090 8047 8041 8052 8030 8055 8031 8051 8036 8038 8036 8035 8032 8026 8025 8036 8087 8108 8109 8106 8108 8107 8105 8107 8109 8111 8108 8111 8107 8110 8105 8106 8104 8105 8104 8106 8104 8105 8106 8102 8104 8102 8099 8095 8082 
8096 8094 8091 8092 8098 8092 8093 8095 8093 8097 8102 8098 8098 8094 8074 8077 8089 8099 8097 8100 8102 8102 8098 8095 8092 8077 8055 8069 8080 8068 8041 8031 8030 8037 8043 8052 8053 8037 8029 8029 8030 8030 8035 8036 8033 8035 8032 8036 8028 8025 8037 8081 8104 8110 8105 8104 8104 8104 8106 8108 8109 8108 8106 8106 8110 8107 8108 8103 8105 8106 8102 8104 8104 8103 8104 8108 8107 8105 8099 8083 
8096 8096 8097 8092 8096 8097 8097 8100 8096 8102 8103 8104 8100 8090 8049 8041 8048 8065 8082 8095 8089 8082 8070 8047 8041 8040 8034 8032 8035 8035 8032 8032 8032 8033 8032 8030 8052 8066 8030 8029 8029 8030 8033 8034 8035 8036 8040 8036 8033 8031 8033 8041 8053 8077 8087 8100 8103 8105 8103 8101 8099 8096 8099 8108 8109 8108 8109 8108 8105 8107 8106 8103 8104 8105 8103 8107 8108 8099 8101 8087 
8095 8094 8092 8095 8098 8097 8101 8106 8104 8103 8108 8105 8103 8080 8040 8035 8032 8037 8039 8055 8075 8091 8073 8038 8037 8038 8034 8026 8025 8026 8027 8029 8031 8033 8031 8029 8029 8029 8030 8023 8025 8031 8039 8039 8036 8038 8035 8038 8036 8034 8037 8035 8035 8032 8033 8049 8080 8084 8068 8055 8047 8054 8063 8078 8100 8106 8108 8108 8108 8109 8106 8104 8105 8104 8099 8106 8102 8101 8102 8093 
8098 8096 8095 8099 8098 8099 8101 8107 8106 8104 8108 8109 8099 8072 8039 8036 8034 8036 8051 8089 8099 8094 8051 8043 8043 8037 8030 8024 8025 8030 8029 8030 8032 8033 8038 8031 8026 8027 8026 8026 8028 8034 8044 8044 8040 8041 8039 8040 8039 8036 8035 8038 8033 8033 8032 8036 8043 8039 8033 8034 8035 8038 8041 8050 8066 8091 8106 8108 8109 8109 8111 8110 8108 8104 8102 8104 8102 8103 8103 8096 
8097 8101 8096 8099 8102 8100 8104 8106 8108 8104 8106 8106 8100 8062 8043 8034 8034 8052 8089 8098 8098 8092 8079 8085 8090 8058 8028 8026 8033 8077 8030 8033 8031 8033 8041 8036 8029 8025 8026 8030 8035 8036 8041 8042 8051 8044 8040 8042 8039 8038 8038 8036 8033 8032 8027 8032 8040 8040 8045 8046 8043 8042 8045 8044 8053 8062 8095 8110 8109 8108 8111 8109 8111 8110 8106 8108 8108 8104 8108 8101 
8103 8104 8101 8105 8106 8104 8100 8106 8101 8106 8109 8105 8101 8069 8041 8033 8043 8085 8093 8096 8070 8043 8040 8047 8071 8063 8028 8030 8026 8048 8031 8031 8035 8039 8039 8036 8029 8029 8025 8029 8033 8032 8032 8029 8044 8040 8037 8040 8039 8037 8063 8069 8067 8079 8050 8037 8041 8041 8047 8042 8045 8045 8047 8053 8050 8056 8087 8106 8111 8107 8111 8113 8111 8113 8111 8114 8111 8111 8112 8104 
8106 8107 8105 8108 8108 8101 8104 8103 8102 8106 8107 8104 8103 8069 8039 8038 8081 8096 8093 8057 8033 8037 8035 8036 8040 8058 8047 8026 8022 8025 8030 8027 8034 8036 8041 8034 8029 8028 8028 8031 8028 8024 8022 8027 8028 8029 8034 8037 8038 8036 8057 8096 8103 8099 8063 8042 8037 8041 8045 8045 8046 8046 8049 8054 8054 8055 8077 8104 8111 8114 8108 8111 8111 8112 8116 8117 8119 8118 8119 8108 
8107 8106 8105 8104 8108 8107 8105 8103 8103 8105 8108 8106 8100 8069 8042 8066 8099 8081 8063 8041 8036 8034 8034 8032 8055 8091 8087 8032 8025 8025 8024 8028 8037 8041 8039 8037 8033 8034 8032 8029 8028 8020 8024 8028 8028 8035 8031 8036 8038 8036 8034 8062 8095 8100 8062 8043 8038 8043 8045 8045 8048 8050 8053 8053 8055 8056 8067 8100 8109 8112 8113 8114 8113 8114 8113 8116 8118 8121 8124 8121 
8104 8105 8107 8106 8107 8104 8104 8106 8103 8103 8106 8104 8100 8063 8046 8095 8102 8053 8040 8040 8036 8033 8029 8039 8079 8094 8069 8024 8022 8021 8031 8028 8037 8040 8038 8043 8037 8036 8027 8023 8029 8021 8022 8025 8029 8039 8039 8038 8035 8031 8032 8032 8062 8100 8076 8042 8039 8040 8049 8050 8049 8049 8051 8053 8059 8057 8066 8101 8113 8112 8111 8112 8114 8113 8117 8119 8121 8121 8127 8120 
8104 8108 8101 8108 8106 8109 8105 8108 8106 8105 8109 8105 8091 8052 8071 8106 8107 8083 8050 8044 8040 8040 8031 8036 8035 8039 8030 8021 8022 8018 8022 8025 8037 8036 8037 8039 8037 8032 8035 8032 8034 8028 8024 8029 8034 8037 8040 8035 8035 8035 8035 8031 8037 8080 8087 8046 8043 8045 8050 8050 8051 8051 8052 8054 8059 8058 8072 8104 8111 8115 8112 8111 8113 8116 8119 8120 8121 8121 8130 8127 
8103 8107 8102 8110 8111 8107 8105 8108 8108 8106 8107 8100 8057 8047 8097 8109 8109 8106 8097 8093 8090 8051 8033 8037 8036 8034 8031 8027 8020 8017 8022 8032 8036 8037 8034 8038 8040 8038 8037 8038 8039 8033 8030 8031 8031 8036 8038 8038 8037 8034 8035 8030 8032 8058 8089 8058 8042 8043 8049 8052 8051 8046 8053 8057 8058 8057 8077 8107 8111 8112 8113 8114 8117 8118 8120 8121 8125 8127 8131 8129 
8104 8112 8108 8110 8112 8110 8109 8114 8107 8108 8109 8106 8087 8071 8105 8110 8110 8113 8105 8102 8083 8038 8039 8038 8038 8036 8033 8036 8030 8019 8023 8031 8035 8038 8038 8040 8041 8045 8043 8044 8047 8040 8028 8028 8028 8026 8033 8033 8034 8036 8037 8038 8030 8051 8097 8067 8042 8042 8044 8049 8051 8047 8053 8055 8057 8058 8085 8108 8108 8110 8110 8114 8112 8117 8120 8122 8129 8129 8134 8129 
8105 8109 8108 8112 8110 8107 8111 8112 8110 8111 8113 8111 8111 8107 8113 8111 8111 8109 8108 8101 8058 8033 8040 8039 8038 8034 8034 8036 8034 8032 8022 8023 8027 8031 8030 8033 8035 8039 8039 8044 8045 8041 8029 8028 8029 8026 8027 8036 8043 8049 8057 8054 8045 8054 8100 8079 8043 8040 8042 8045 8049 8052 8053 8056 8061 8062 8099 8107 8107 8109 8109 8112 8116 8120 8119 8123 8129 8130 8138 8133 
8105 8109 8108 8110 8111 8109 8111 8113 8109 8108 8111 8111 8113 8112 8114 8110 8111 8108 8104 8100 8051 8032 8039 8037 8035 8038 8038 8040 8032 8026 8020 8021 8019 8024 8023 8024 8019 8027 8035 8041 8046 8042 8025 8025 8028 8027 8036 8046 8051 8054 8054 8058 8053 8055 8094 8085 8046 8040 8042 8047 8048 8048 8049 8059 8066 8067 8097 8109 8106 8109 8111 8112 8114 8117 8118 8123 8127 8129 8137 8133 
8104 8112 8109 8113 8113 8112 8111 8113 8113 8109 8112 8112 8112 8113 8114 8112 8109 8108 8106 8101 8065 8032 8036 8034 8031 8036 8036 8038 8032 8026 8021 8022 8021 8021 8023 8021 8021 8024 8033 8039 8044 8036 8026 8026 8028 8029 8036 8053 8050 8046 8055 8052 8049 8049 8056 8064 8048 8046 8042 8044 8047 8049 8057 8063 8064 8071 8094 8105 8106 8110 8109 8111 8115 8120 8120 8124 8126 8130 8136 8127 
8104 8114 8112 8112 8116 8116 8111 8113 8109 8111 8112 8111 8111 8110 8112 8117 8113 8106 8106 8100 8063 8034 8039 8033 8032 8035 8040 8041 8035 8029 8027 8025 8023 8023 8025 8023 8022 8026 8029 8041 8041 8031 8029 8027 8030 8031 8033 8053 8059 8061 8055 8036 8026 8027 8025 8025 8026 8032 8042 8049 8051 8054 8064 8079 8079 8075 8104 8105 8105 8108 8111 8114 8116 8115 8118 8126 8129 8129 8135 8132 
8108 8114 8112 8114 8116 8113 8111 8111 8112 8111 8110 8110 8107 8108 8110 8112 8109 8108 8106 8101 8066 8036 8039 8042 8034 8033 8036 8040 8038 8025 8024 8023 8027 8022 8030 8031 8028 8027 8027 8030 8040 8029 8036 8034 8032 8033 8035 8040 8057 8062 8062 8052 8037 8026 8026 8027 8032 8037 8036 8064 8061 8069 8086 8101 8099 8091 8109 8107 8106 8110 8111 8114 8117 8119 8123 8128 8128 8130 8137 8134 
8114 8116 8116 8120 8118 8117 8113 8114 8113 8110 8110 8112 8108 8111 8112 8109 8112 8109 8108 8105 8087 8079 8088 8082 8031 8028 8035 8043 8037 8025 8026 8024 8028 8030 8038 8041 8031 8029 8028 8030 8032 8030 8037 8034 8034 8033 8036 8040 8058 8062 8056 8048 8046 8033 8027 8029 8030 8031 8037 8073 8095 8098 8105 8107 8111 8108 8110 8108 8108 8112 8114 8116 8122 8125 8126 8129 8130 8132 8138 8138 
8115 8117 8117 8121 8116 8118 8114 8121 8113 8109 8113 8111 8113 8111 8113 8111 8111 8111 8109 8106 8108 8110 8108 8089 8034 8035 8038 8041 8041 8028 8021 8026 8030 8033 8035 8034 8031 8027 8024 8028 8028 8026 8027 8029 8036 8036 8036 8042 8057 8060 8057 8045 8049 8044 8026 8024 8028 8029 8037 8079 8101 8104 8106 8108 8107 8109 8108 8111 8108 8112 8113 8116 8118 8120 8123 8127 8131 8129 8139 8133 
8119 8120 8117 8120 8118 8120 8120 8120 8115 8105 8108 8113 8113 8117 8117 8114 8114 8112 8110 8110 8108 8113 8111 8086 8038 8034 8038 8041 8037 8026 8024 8031 8034 8038 8037 8032 8036 8031 8028 8030 8032 8031 8030 8032 8038 8039 8036 8043 8054 8053 8051 8046 8047 8057 8032 8025 8027 8030 8034 8078 8103 8102 8104 8105 8108 8108 8107 8109 8109 8112 8112 8117 8117 8121 8121 8129 8128 8130 8137 8132 
8121 8122 8119 8122 8118 8114 8116 8117 8116 8113 8115 8114 8113 8113 8115 8115 8114 8113 8110 8110 8111 8112 8109 8095 8041 8036 8038 8041 8032 8027 8027 8032 8039 8045 8044 8034 8040 8039 8031 8035 8038 8035 8030 8035 8038 8039 8038 8041 8052 8052 8049 8045 8054 8061 8047 8027 8029 8031 8033 8065 8102 8103 8104 8106 8108 8107 8106 8104 8105 8109 8110 8112 8116 8118 8125 8122 8128 8131 8134 8130 
8123 8123 8122 8124 8121 8119 8118 8118 8114 8113 8116 8118 8114 8114 8117 8111 8109 8109 8107 8108 8108 8112 8109 8103 8046 8036 8039 8039 8033 8030 8029 8034 8045 8050 8046 8037 8040 8044 8040 8040 8042 8042 8039 8040 8041 8041 8039 8041 8048 8051 8049 8052 8059 8063 8057 8048 8034 8037 8032 8053 8099 8105 8107 8106 8108 8107 8107 8106 8106 8109 8110 8113 8115 8120 8121 8126 8128 8126 8134 8130 
8119 8125 8120 8121 8124 8120 8118 8119 8117 8116 8115 8116 8113 8113 8111 8108 8110 8109 8107 8109 8107 8106 8110 8107 8070 8038 8040 8036 8031 8030 8031 8040 8046 8048 8046 8038 8038 8040 8040 8040 8048 8044 8043 8049 8046 8040 8041 8050 8054 8049 8052 8059 8063 8065 8075 8098 8078 8057 8043 8075 8105 8104 8105 8108 8110 8109 8109 8108 8109 8109 8107 8113 8116 8118 8121 8125 8124 8126 8132 8125 
8119 8128 8127 8125 8125 8121 8119 8119 8111 8115 8117 8117 8112 8112 8111 8107 8107 8107 8107 8107 8107 8109 8110 8111 8095 8066 8044 8031 8026 8028 8036 8040 8041 8042 8042 8038 8035 8039 8037 8042 8046 8046 8052 8054 8054 8051 8052 8054 8054 8054 8060 8062 8064 8066 8090 8101 8101 8099 8092 8099 8107 8104 8106 8107 8109 8109 8106 8107 8109 8110 8111 8113 8113 8120 8118 8124 8126 8124 8125 8124 
8115 8121 8123 8118 8116 8119 8116 8117 8112 8115 8115 8114 8111 8109 8113 8108 8106 8109 8108 8108 8107 8108 8111 8110 8108 8098 8056 8033 8027 8029 8038 8040 8041 8039 8042 8035 8040 8036 8036 8048 8057 8056 8060 8064 8065 8063 8063 8065 8063 8061 8067 8067 8066 8085 8100 8104 8105 8104 8106 8108 8107 8107 8108 8106 8108 8106 8106 8106 8108 8110 8109 8113 8114 8115 8117 8117 8121 8121 8124 8118 
8116 8123 8120 8119 8118 8118 8115 8114 8112 8111 8114 8112 8112 8110 8114 8110 8109 8110 8109 8108 8106 8107 8112 8109 8110 8107 8083 8043 8033 8028 8036 8039 8043 8041 8039 8037 8041 8038 8035 8050 8057 8057 8067 8068 8075 8077 8073 8070 8071 8070 8072 8067 8077 8100 8100 8107 8108 8109 8105 8110 8108 8108 8110 8108 8107 8110 8106 8102 8105 8109 8112 8113 8111 8111 8114 8118 8117 8117 8121 8115 
8117 8118 8117 8115 8118 8117 8115 8115 8115 8114 8115 8115 8114 8112 8113 8109 8109 8109 8106 8109 8110 8109 8112 8110 8111 8109 8099 8066 8044 8038 8037 8039 8040 8036 8034 8037 8038 8039 8042 8053 8060 8064 8067 8074 8079 8082 8078 8076 8076 8073 8068 8066 8099 8102 8106 8107 8105 8108 8106 8110 8111 8108 8110 8113 8113 8108 8109 8105 8103 8106 8110 8111 8108 8108 8110 8115 8115 8114 8115 8110 
8119 8121 8117 8115 8118 8119 8116 8114 8115 8112 8117 8119 8116 8113 8114 8110 8111 8108 8107 8111 8107 8110 8111 8109 8110 8111 8106 8083 8062 8044 8034 8038 8040 8037 8034 8036 8043 8055 8055 8057 8064 8068 8071 8078 8083 8084 8084 8079 8072 8068 8072 8087 8103 8107 8105 8108 8109 8109 8112 8112 8113 8114 8112 8113 8110 8109 8106 8100 8100 8105 8109 8109 8109 8108 8107 8109 8111 8112 8113 8112 
8123 8125 8117 8116 8118 8120 8120 8113 8115 8114 8116 8117 8116 8118 8116 8113 8114 8109 8106 8113 8109 8108 8112 8108 8106 8106 8103 8101 8076 8061 8043 8042 8040 8035 8035 8034 8041 8053 8060 8060 8063 8069 8075 8080 8086 8084 8081 8078 8070 8071 8084 8099 8104 8106 8103 8110 8110 8110 8113 8112 8113 8111 8112 8113 8112 8108 8108 8107 8106 8103 8105 8108 8108 8104 8104 8105 8108 8110 8112 8103 
8118 8121 8119 8117 8115 8117 8116 8118 8113 8115 8114 8114 8118 8118 8117 8117 8115 8111 8108 8110 8109 8110 8113 8106 8103 8105 8101 8103 8094 8072 8067 8056 8049 8039 8036 8038 8041 8051 8063 8062 8063 8068 8076 8082 8081 8078 8076 8074 8075 8077 8098 8104 8105 8108 8103 8105 8107 8110 8109 8112 8109 8109 8108 8109 8111 8106 8107 8105 8105 8105 8105 8106 8105 8105 8098 8101 8109 8105 8109 8101 
8121 8122 8120 8117 8119 8118 8117 8119 8114 8115 8117 8118 8119 8118 8116 8117 8117 8111 8108 8111 8111 8111 8113 8107 8106 8105 8102 8106 8102 8092 8076 8070 8061 8040 8038 8042 8044 8053 8058 8063 8062 8063 8070 8074 8074 8078 8078 8081 8082 8093 8105 8104 8108 8104 8102 8106 8105 8109 8110 8110 8106 8108 8109 8110 8110 8106 8105 8101 8103 8101 8103 8105 8102 8103 8106 8104 8107 8107 8111 8109 
8119 8126 8118 8121 8122 8114 8118 8117 8120 8119 8121 8119 8117 8116 8118 8116 8118 8113 8112 8113 8111 8115 8113 8109 8109 8107 8105 8106 8108 8104 8097 8084 8079 8063 8050 8053 8056 8063 8060 8065 8067 8068 8071 8071 8076 8079 8082 8089 8100 8101 8109 8107 8105 8104 8105 8108 8111 8105 8110 8109 8106 8105 8108 8106 8108 8106 8105 8102 8102 8102 8100 8103 8105 8106 8105 8110 8107 8111 8110 8104 
8116 8118 8120 8121 8119 8120 8122 8121 8116 8120 8117 8117 8120 8113 8118 8116 8116 8114 8110 8110 8111 8111 8113 8111 8109 8105 8106 8108 8107 8104 8109 8106 8097 8083 8064 8055 8059 8067 8066 8066 8068 8068 8074 8075 8082 8085 8096 8105 8109 8107 8109 8108 8104 8103 8103 8103 8109 8108 8108 8108 8106 8105 8108 8108 8106 8105 8101 8098 8103 8102 8103 8102 8105 8107 8106 8105 8106 8106 8108 8106 
8116 8119 8119 8119 8118 8123 8120 8118 8114 8114 8119 8120 8117 8119 8118 8115 8116 8117 8112 8110 8110 8113 8112 8112 8110 8110 8110 8111 8111 8112 8109 8113 8112 8106 8090 8075 8076 8084 8079 8081 8076 8079 8086 8087 8096 8104 8116 8114 8111 8109 8110 8109 8104 8105 8103 8105 8109 8106 8106 8108 8108 8105 8105 8108 8105 8102 8101 8098 8103 8102 8102 8102 8105 8107 8104 8104 8103 8106 8111 8102 
8119 8118 8115 8116 8123 8119 8126 8118 8115 8113 8120 8120 8120 8121 8121 8118 8119 8116 8110 8110 8108 8114 8113 8116 8112 8113 8110 8114 8114 8115 8116 8116 8116 8118 8117 8114 8109 8106 8102 8102 8102 8104 8110 8109 8111 8116 8118 8114 8113 8113 8112 8108 8103 8105 8101 8105 8107 8106 8108 8106 8109 8108 8106 8106 8103 8102 8104 8101 8100 8099 8100 8102 8104 8102 8105 8101 8103 8103 8106 8103 
8117 8121 8114 8118 8122 8122 8117 8123 8113 8115 8120 8120 8120 8120 8120 8115 8117 8119 8111 8111 8112 8115 8120 8117 8119 8117 8116 8121 8123 8116 8116 8118 8119 8116 8118 8116 8119 8120 8121 8118 8115 8114 8119 8117 8118 8118 8122 8119 8115 8109 8114 8107 8108 8104 8108 8110 8108 8107 8107 8106 8109 8108 8106 8103 8102 8105 8100 8099 8097 8101 8101 8102 8102 8104 8103 8105 8104 8105 8106 8103 
8120 8122 8120 8122 8123 8120 8121 8124 8119 8117 8115 8118 8120 8121 8125 8114 8116 8116 8118 8116 8115 8117 8119 8120 8119 8118 8120 8121 8121 8121 8120 8118 8120 8120 8122 8124 8119 8117 8121 8121 8121 8116 8119 8121 8122 8122 8122 8119 8115 8114 8111 8109 8107 8107 8107 8109 8108 8110 8108 8109 8109 8108 8106 8102 8101 8102 8100 8095 8095 8100 8097 8097 8100 8103 8104 8104 8099 8102 8102 8105 
8121 8124 8120 8123 8124 8124 8124 8128 8115 8117 8115 8118 8123 8119 8122 8115 8116 8118 8116 8112 8112 8116 8116 8120 8120 8119 8121 8122 8121 8121 8121 8119 8122 8119 8123 8122 8120 8119 8119 8120 8119 8119 8118 8122 8125 8122 8122 8122 8119 8116 8116 8112 8109 8109 8109 8108 8108 8106 8109 8110 8109 8104 8104 8102 8096 8095 8096 8097 8098 8098 8101 8100 8096 8099 8102 8102 8099 8103 8103 8094 
8121 8123 8124 8122 8124 8123 8121 8121 8120 8118 8117 8121 8119 8121 8118 8119 8115 8111 8111 8112 8114 8117 8117 8117 8120 8119 8119 8118 8124 8120 8120 8120 8122 8118 8122 8122 8122 8119 8120 8117 8117 8119 8122 8123 8128 8124 8124 8122 8121 8117 8116 8113 8109 8110 8106 8108 8105 8107 8107 8108 8106 8102 8103 8100 8099 8094 8093 8091 8095 8097 8098 8097 8100 8099 8097 8096 8096 8095 8101 8095 
8115 8123 8122 8122 8120 8121 8121 8120 8119 8120 8121 8116 8121 8120 8119 8116 8114 8114 8107 8113 8117 8119 8118 8116 8117 8110 8115 8118 8123 8121 8123 8122 8122 8122 8121 8120 8121 8121 8120 8120 8118 8116 8122 8123 8127 8123 8123 8126 8122 8116 8119 8115 8109 8108 8104 8104 8107 8108 8104 8101 8102 8099 8099 8094 8093 8094 8091 8093 8090 8096 8093 8095 8097 8092 8092 8094 8096 8094 8094 8091 
8119 8123 8122 8118 8118 8118 8122 8120 8120 8122 8119 8120 8121 8119 8118 8110 8111 8112 8111 8111 8112 8117 8119 8120 8119 8112 8113 8119 8126 8126 8127 8125 8128 8125 8126 8127 8124 8122 8121 8123 8119 8121 8127 8126 8127 8126 8125 8125 8122 8121 8120 8111 8106 8107 8100 8109 8104 8105 8101 8103 8099 8095 8094 8094 8092 8091 8091 8092 8091 8095 8096 8094 8093 8095 8093 8093 8091 8091 8092 8092 
8120 8125 8121 8111 8116 8117 8119 8115 8119 8119 8117 8114 8116 8117 8118 8113 8109 8111 8109 8112 8110 8114 8115 8118 8118 8117 8123 8120 8125 8123 8125 8129 8129 8127 8121 8123 8123 8121 8118 8122 8127 8124 8124 8128 8127 8126 8123 8129 8123 8121 8119 8108 8106 8105 8099 8099 8100 8099 8100 8098 8094 8092 8093 8090 8090 8089 8091 8091 8091 8093 8093 8093 8088 8089 8089 8094 8091 8087 8090 8092 
8121 8113 8106 8108 8115 8112 8116 8122 8121 8120 8119 8116 8114 8115 8113 8107 8105 8109 8108 8111 8108 8115 8114 8117 8123 8125 8124 8123 8126 8122 8126 8123 8122 8127 8122 8121 8120 8121 8123 8125 8125 8122 8123 8125 8124 8123 8125 8125 8122 8118 8118 8106 8107 8106 8098 8105 8101 8103 8101 8098 8096 8092 8093 8092 8094 8093 8092 8095 8096 8095 8096 8093 8091 8089 8091 8092 8091 8085 8094 8087 
8125 8107 8109 8110 8112 8111 8111 8114 8115 8115 8120 8113 8109 8109 8110 8105 8106 8103 8105 8115 8112 8111 8115 8118 8121 8125 8125 8122 8119 8115 8119 8120 8124 8121 8119 8116 8116 8113 8119 8122 8121 8116 8115 8116 8122 8118 8122 8121 8115 8113 8114 8106 8101 8097 8096 8099 8099 8099 8098 8096 8096 8092 8093 8093 8096 8092 8094 8094 8094 8096 8098 8096 8096 8091 8093 8088 8088 8090 8090 8087 


