P2
80 60
8336
8241 8248 8260 8264 8268 8273 8271 8271 8274 8273 8273 8275 8275 8275 8274 8278 8276 8276 8278 8279 8282 8287 8292 8290 8293 8295 8294 8293 8294 8298 8300 8300 8301 8299 8304 8304 8309 8311 8309 8306 8310 8313 8311 8309 8310 8311 8309 8310 8314 8313 8314 8312 8314 8315 8314 8314 8310 8307 8308 8308 8306 8306 8307 8308 8307 8305 8309 8308 8311 8313 8315 8324 8327 8328 8331 8329 8331 8331 8334 8336 
8253 8259 8268 8267 8270 8271 8272 8270 8275 8275 8275 8274 8277 8272 8278 8279 8278 8278 8285 8287 8287 8287 8288 8291 8295 8298 8296 8293 8296 8301 8302 8306 8305 8305 8308 8310 8311 8306 8309 8306 8306 8308 8307 8306 8309 8311 8310 8312 8313 8310 8312 8312 8312 8311 8314 8309 8309 8309 8309 8307 8305 8306 8305 8306 8307 8303 8309 8309 8309 8313 8313 8322 8325 8327 8330 8331 8333 8335 8336 8333 
8262 8263 8269 8270 8272 8272 8271 8271 8274 8274 8273 8273 8276 8275 8275 8277 8279 8282 8285 8287 8288 8289 8293 8291 8292 8298 8292 8295 8293 8300 8304 8303 8297 8284 8303 8301 8287 8271 8280 8304 8280 8277 8262 8284 8307 8311 8309 8309 8311 8310 8314 8313 8312 8312 8313 8311 8313 8311 8308 8306 8306 8303 8305 8304 8305 8307 8307 8309 8308 8311 8315 8320 8325 8327 8331 8330 8334 8335 8334 8325 
8265 8261 8270 8270 8274 8277 8274 8272 8272 8274 8274 8276 8275 8278 8276 8277 8277 8283 8285 8285 8288 8287 8291 8292 8294 8299 8292 8294 8295 8297 8302 8303 8302 8269 8260 8251 8243 8239 8255 8298 8283 8236 8209 8236 8300 8300 8287 8288 8289 8296 8307 8314 8310 8312 8312 8312 8307 8309 8312 8311 8311 8307 8308 8304 8303 8306 8309 8310 8310 8315 8314 8317 8323 8326 8331 8331 8333 8330 8332 8330 
8264 8263 8271 8271 8272 8274 8273 8271 8271 8273 8272 8273 8275 8279 8276 8277 8278 8281 8284 8285 8287 8287 8289 8293 8294 8299 8293 8292 8292 8296 8302 8304 8303 8284 8237 8239 8234 8238 8261 8298 8274 8230 8208 8232 8291 8252 8213 8217 8221 8235 8272 8300 8308 8310 8312 8315 8309 8311 8312 8312 8311 8306 8305 8305 8305 8303 8306 8307 8310 8314 8315 8315 8321 8328 8331 8332 8330 8332 8330 8328 
8264 8265 8273 8270 8270 8270 8273 8268 8271 8272 8273 8277 8276 8276 8273 8274 8279 8278 8285 8287 8286 8288 8292 8293 8295 8301 8295 8291 8293 8295 8300 8304 8305 8270 8218 8228 8235 8238 8263 8276 8250 8229 8222 8235 8267 8208 8192 8193 8202 8202 8218 8257 8298 8309 8312 8310 8307 8306 8310 8307 8311 8305 8304 8305 8305 8306 8307 8311 8309 8311 8311 8312 8318 8325 8330 8329 8328 8329 8331 8330 
8267 8267 8274 8269 8271 8273 8271 8271 8271 8273 8273 8275 8277 8276 8273 8276 8277 8277 8283 8286 8289 8288 8294 8294 8293 8290 8289 8289 8291 8295 8301 8304 8299 8257 8211 8205 8218 8211 8206 8227 8233 8231 8236 8246 8254 8207 8194 8192 8195 8197 8202 8218 8277 8305 8312 8315 8309 8310 8308 8307 8310 8306 8304 8304 8303 8304 8306 8309 8309 8311 8310 8313 8316 8322 8328 8326 8328 8326 8331 8327 
8265 8266 8271 8271 8271 8271 8272 8273 8273 8275 8275 8274 8277 8276 8275 8273 8276 8281 8282 8287 8288 8287 8293 8292 8279 8278 8292 8290 8293 8298 8303 8305 8304 8264 8205 8197 8209 8219 8206 8235 8259 8237 8224 8223 8231 8235 8206 8199 8200 8201 8208 8227 8274 8305 8311 8314 8313 8308 8308 8308 8309 8304 8306 8305 8305 8303 8307 8309 8307 8309 8310 8311 8312 8320 8324 8324 8325 8327 8326 8325 
8266 8264 8273 8271 8276 8273 8274 8277 8277 8277 8277 8273 8274 8273 8276 8277 8278 8279 8284 8286 8286 8288 8290 8282 8253 8288 8295 8292 8297 8300 8307 8306 8309 8289 8229 8200 8228 8229 8206 8263 8284 8239 8209 8195 8229 8287 8273 8254 8226 8233 8263 8296 8308 8309 8312 8311 8310 8306 8306 8306 8308 8305 8304 8303 8304 8304 8305 8304 8306 8309 8311 8310 8312 8315 8321 8324 8322 8326 8329 8325 
8264 8264 8273 8268 8273 8274 8275 8276 8274 8278 8279 8277 8276 8277 8276 8279 8278 8280 8284 8286 8285 8290 8286 8253 8245 8294 8296 8296 8298 8304 8305 8307 8305 8296 8266 8221 8227 8220 8218 8233 8279 8241 8220 8206 8223 8267 8296 8291 8244 8257 8297 8305 8307 8308 8308 8310 8308 8304 8308 8306 8304 8303 8302 8303 8306 8303 8305 8305 8308 8310 8308 8310 8308 8311 8318 8324 8324 8328 8327 8322 
8269 8266 8271 8268 8271 8272 8274 8273 8275 8279 8279 8276 8281 8277 8281 8278 8280 8283 8286 8288 8290 8287 8263 8238 8239 8291 8298 8295 8298 8303 8304 8302 8290 8234 8208 8217 8222 8218 8221 8219 8249 8224 8221 8219 8224 8242 8288 8277 8232 8228 8265 8298 8309 8307 8307 8308 8305 8305 8305 8301 8303 8303 8304 8303 8303 8301 8305 8306 8309 8308 8308 8309 8307 8310 8315 8320 8325 8326 8327 8324 
8272 8270 8271 8271 8273 8274 8275 8274 8277 8278 8279 8277 8279 8282 8283 8281 8281 8284 8288 8291 8288 8278 8245 8233 8233 8262 8292 8297 8298 8301 8302 8300 8259 8204 8206 8198 8197 8197 8213 8221 8235 8237 8225 8217 8221 8231 8252 8230 8221 8220 8233 8279 8306 8304 8306 8308 8304 8301 8301 8299 8299 8299 8297 8301 8301 8302 8303 8305 8304 8303 8305 8309 8309 8311 8313 8320 8321 8328 8325 8320 
8270 8267 8273 8273 8272 8271 8274 8270 8273 8278 8283 8278 8284 8284 8286 8285 8286 8285 8289 8287 8276 8252 8233 8236 8238 8243 8266 8291 8294 8303 8303 8294 8252 8223 8212 8198 8188 8190 8210 8228 8270 8290 8242 8222 8219 8225 8226 8221 8218 8219 8225 8250 8297 8304 8306 8303 8301 8300 8298 8296 8299 8297 8296 8298 8299 8298 8300 8303 8301 8302 8304 8304 8306 8310 8311 8318 8323 8327 8326 8321 
8271 8269 8276 8273 8271 8271 8273 8273 8277 8280 8283 8280 8284 8281 8282 8286 8284 8286 8286 8276 8245 8233 8243 8266 8279 8283 8272 8265 8280 8294 8290 8255 8224 8201 8215 8200 8192 8191 8213 8233 8264 8288 8266 8225 8216 8217 8236 8257 8255 8235 8233 8241 8278 8299 8302 8304 8301 8298 8296 8295 8295 8293 8296 8297 8298 8298 8300 8302 8302 8300 8301 8305 8305 8306 8310 8314 8320 8324 8326 8315 
8271 8268 8273 8273 8272 8272 8277 8274 8277 8282 8284 8283 8281 8282 8285 8284 8280 8276 8263 8247 8232 8263 8289 8294 8297 8303 8297 8289 8272 8257 8232 8213 8208 8210 8229 8199 8195 8194 8225 8222 8228 8231 8241 8226 8217 8217 8264 8292 8264 8231 8235 8239 8256 8280 8297 8302 8294 8294 8281 8275 8284 8289 8294 8296 8294 8296 8300 8297 8297 8296 8297 8295 8299 8301 8306 8312 8320 8324 8320 8314 
8269 8270 8272 8273 8274 8273 8277 8275 8279 8283 8282 8282 8284 8286 8286 8283 8264 8242 8239 8236 8257 8287 8293 8294 8295 8302 8296 8293 8286 8235 8212 8210 8210 8216 8219 8228 8219 8226 8226 8213 8215 8217 8224 8233 8228 8223 8272 8292 8247 8228 8231 8233 8240 8247 8265 8288 8294 8289 8250 8243 8255 8280 8289 8295 8294 8293 8298 8295 8296 8293 8291 8295 8296 8296 8299 8308 8314 8322 8318 8315 
8270 8270 8273 8273 8275 8275 8281 8276 8281 8286 8281 8285 8286 8285 8286 8285 8268 8248 8241 8237 8239 8262 8284 8293 8297 8301 8290 8288 8257 8210 8207 8204 8208 8204 8211 8203 8209 8254 8215 8197 8202 8210 8221 8237 8250 8230 8279 8284 8237 8219 8225 8228 8232 8236 8241 8254 8271 8252 8232 8231 8236 8260 8288 8292 8294 8293 8296 8295 8294 8291 8294 8296 8293 8294 8298 8299 8313 8319 8324 8318 
8272 8269 8273 8271 8275 8276 8277 8274 8281 8283 8281 8284 8285 8283 8284 8283 8282 8278 8255 8241 8239 8237 8259 8282 8293 8281 8249 8251 8220 8206 8208 8206 8204 8195 8196 8203 8212 8209 8209 8214 8209 8198 8196 8205 8229 8238 8266 8267 8223 8219 8222 8220 8226 8226 8227 8235 8238 8229 8226 8220 8228 8242 8280 8295 8295 8295 8293 8295 8297 8294 8291 8293 8295 8293 8292 8293 8304 8317 8319 8320 
8271 8266 8273 8271 8276 8274 8283 8276 8282 8283 8286 8285 8284 8284 8284 8284 8283 8284 8283 8266 8244 8243 8241 8246 8243 8223 8215 8220 8214 8223 8219 8198 8199 8193 8197 8208 8211 8206 8207 8227 8199 8188 8189 8203 8260 8281 8260 8239 8218 8217 8220 8217 8216 8219 8218 8224 8229 8232 8223 8218 8227 8234 8269 8293 8294 8290 8294 8292 8294 8293 8292 8294 8293 8291 8292 8292 8294 8313 8320 8314 
8268 8270 8271 8271 8274 8276 8279 8276 8282 8282 8283 8283 8285 8285 8283 8285 8283 8284 8286 8284 8275 8255 8243 8222 8214 8214 8207 8209 8250 8269 8230 8193 8193 8190 8190 8201 8210 8195 8197 8207 8191 8185 8192 8238 8278 8275 8256 8225 8225 8224 8220 8217 8217 8214 8217 8221 8221 8225 8226 8215 8220 8228 8255 8290 8296 8295 8296 8293 8293 8292 8292 8291 8291 8292 8288 8288 8289 8306 8318 8310 
8265 8268 8272 8269 8272 8275 8276 8275 8279 8282 8283 8283 8286 8286 8281 8284 8283 8284 8285 8286 8286 8280 8249 8216 8212 8213 8209 8200 8215 8226 8219 8202 8197 8188 8187 8185 8193 8192 8189 8204 8202 8194 8210 8263 8252 8234 8230 8233 8254 8259 8234 8217 8219 8217 8218 8218 8214 8222 8228 8218 8218 8224 8249 8286 8295 8292 8297 8294 8295 8293 8293 8291 8291 8290 8286 8290 8287 8298 8320 8311 
8272 8270 8276 8274 8275 8274 8275 8274 8277 8280 8282 8283 8282 8282 8281 8281 8284 8283 8284 8284 8284 8281 8230 8215 8210 8213 8210 8195 8184 8183 8189 8194 8200 8196 8188 8183 8185 8190 8191 8204 8208 8201 8209 8232 8230 8235 8225 8226 8243 8271 8266 8239 8225 8219 8214 8216 8216 8224 8239 8222 8217 8222 8240 8277 8291 8292 8295 8296 8297 8297 8296 8296 8293 8291 8293 8292 8291 8295 8310 8305 
8272 8272 8274 8274 8275 8271 8270 8272 8277 8281 8284 8282 8286 8281 8279 8280 8282 8281 8286 8286 8285 8280 8225 8213 8209 8214 8204 8195 8185 8180 8180 8181 8183 8186 8193 8188 8188 8194 8191 8188 8188 8184 8189 8197 8211 8252 8259 8229 8234 8272 8288 8286 8258 8227 8217 8217 8219 8236 8276 8241 8221 8223 8233 8266 8288 8286 8293 8293 8295 8293 8296 8296 8296 8293 8294 8293 8289 8296 8303 8302 
8272 8270 8276 8277 8276 8271 8271 8270 8277 8282 8282 8283 8282 8280 8281 8278 8281 8283 8285 8282 8287 8287 8245 8221 8212 8210 8203 8202 8192 8181 8183 8180 8182 8191 8204 8197 8202 8200 8199 8178 8180 8179 8180 8182 8188 8209 8251 8270 8239 8247 8287 8288 8286 8251 8220 8218 8216 8246 8283 8270 8231 8224 8228 8257 8284 8290 8293 8294 8292 8294 8295 8294 8294 8293 8294 8293 8295 8292 8301 8295 
8273 8274 8280 8272 8277 8274 8269 8272 8279 8281 8282 8283 8284 8280 8282 8283 8283 8282 8285 8282 8282 8287 8288 8274 8224 8213 8210 8251 8222 8183 8183 8181 8178 8192 8214 8199 8199 8200 8196 8177 8181 8180 8184 8187 8190 8213 8252 8276 8285 8250 8283 8287 8289 8274 8212 8204 8202 8240 8279 8281 8251 8229 8233 8247 8280 8288 8291 8293 8291 8292 8295 8297 8294 8294 8295 8297 8293 8295 8296 8293 
8273 8272 8278 8275 8274 8271 8274 8273 8274 8279 8279 8284 8282 8281 8279 8282 8283 8278 8284 8282 8285 8289 8290 8287 8271 8247 8263 8276 8214 8177 8181 8183 8185 8203 8211 8203 8194 8198 8200 8186 8183 8187 8191 8190 8211 8237 8241 8258 8285 8288 8288 8288 8287 8282 8223 8207 8202 8232 8280 8282 8275 8243 8234 8246 8276 8285 8292 8289 8292 8289 8293 8295 8294 8293 8297 8294 8295 8295 8300 8291 
8274 8272 8277 8275 8278 8272 8274 8270 8275 8280 8281 8279 8283 8283 8279 8279 8280 8278 8283 8281 8285 8284 8287 8281 8248 8266 8282 8268 8204 8174 8178 8184 8202 8208 8210 8206 8199 8206 8199 8193 8197 8201 8212 8199 8214 8225 8222 8228 8241 8260 8283 8281 8285 8287 8247 8211 8205 8239 8281 8284 8284 8272 8248 8253 8281 8287 8287 8290 8288 8289 8292 8290 8291 8290 8295 8293 8294 8297 8296 8291 
8272 8270 8273 8271 8274 8269 8271 8272 8278 8279 8281 8281 8284 8281 8281 8280 8277 8279 8282 8282 8282 8283 8282 8239 8192 8204 8263 8240 8197 8175 8177 8186 8195 8204 8200 8197 8188 8195 8197 8193 8192 8204 8210 8222 8222 8221 8205 8211 8218 8227 8243 8257 8277 8285 8281 8233 8217 8255 8282 8278 8277 8278 8271 8266 8285 8285 8287 8285 8288 8287 8290 8291 8288 8291 8292 8293 8295 8294 8293 8290 
8272 8271 8277 8270 8275 8273 8272 8273 8277 8280 8278 8282 8280 8280 8277 8278 8279 8278 8279 8279 8283 8282 8258 8193 8180 8188 8205 8209 8198 8180 8182 8186 8193 8197 8188 8182 8181 8186 8192 8189 8202 8206 8220 8217 8214 8209 8200 8204 8208 8215 8225 8229 8250 8280 8287 8277 8256 8270 8253 8233 8234 8235 8272 8282 8285 8286 8288 8285 8287 8288 8290 8290 8290 8289 8290 8293 8291 8292 8290 8290 
8272 8272 8278 8272 8274 8274 8272 8272 8277 8279 8281 8279 8280 8279 8280 8279 8276 8275 8278 8276 8276 8273 8218 8181 8177 8179 8184 8197 8197 8189 8188 8193 8195 8196 8186 8183 8184 8185 8188 8187 8201 8214 8220 8216 8206 8205 8202 8205 8205 8208 8215 8216 8225 8242 8255 8254 8272 8241 8222 8222 8223 8226 8251 8279 8285 8285 8286 8286 8289 8287 8289 8291 8289 8287 8292 8291 8290 8292 8292 8287 
8274 8272 8278 8273 8273 8273 8274 8275 8276 8280 8279 8276 8276 8280 8276 8275 8274 8273 8272 8262 8259 8250 8190 8180 8176 8184 8181 8193 8192 8198 8205 8203 8204 8198 8189 8186 8186 8185 8187 8192 8205 8209 8212 8211 8207 8204 8204 8205 8205 8208 8210 8211 8213 8218 8216 8216 8223 8220 8218 8215 8222 8224 8239 8270 8282 8282 8287 8286 8285 8289 8288 8294 8290 8290 8288 8292 8292 8293 8293 8287 
8272 8273 8275 8273 8275 8276 8274 8275 8274 8280 8276 8275 8275 8272 8274 8274 8269 8254 8225 8210 8206 8222 8183 8181 8177 8183 8180 8191 8194 8201 8207 8206 8210 8210 8203 8191 8187 8187 8187 8202 8216 8210 8210 8209 8207 8211 8204 8205 8208 8208 8209 8213 8214 8216 8218 8206 8211 8216 8213 8214 8219 8225 8234 8260 8283 8285 8286 8285 8288 8287 8291 8288 8288 8292 8293 8292 8293 8292 8292 8286 
8277 8274 8278 8271 8274 8273 8273 8272 8275 8278 8276 8276 8274 8269 8266 8261 8242 8209 8203 8201 8198 8220 8197 8182 8182 8185 8191 8199 8198 8199 8203 8198 8199 8202 8205 8195 8192 8188 8190 8205 8213 8216 8214 8214 8210 8211 8206 8208 8209 8207 8210 8210 8211 8215 8217 8211 8211 8215 8217 8217 8221 8225 8233 8257 8279 8280 8287 8287 8289 8290 8292 8290 8289 8292 8293 8291 8290 8292 8289 8285 
8274 8274 8276 8272 8272 8272 8272 8272 8277 8278 8277 8276 8270 8239 8227 8232 8198 8192 8199 8198 8195 8202 8231 8206 8194 8201 8208 8207 8197 8185 8187 8191 8201 8208 8210 8197 8196 8195 8192 8205 8214 8218 8222 8210 8207 8212 8208 8211 8211 8210 8210 8209 8209 8216 8218 8214 8209 8214 8215 8218 8223 8227 8232 8260 8282 8283 8285 8288 8287 8290 8291 8292 8290 8289 8291 8292 8292 8292 8292 8285 
8276 8275 8278 8277 8272 8273 8273 8275 8275 8279 8276 8272 8253 8236 8199 8189 8184 8183 8195 8200 8194 8194 8225 8267 8238 8225 8212 8205 8181 8174 8179 8189 8204 8215 8211 8201 8201 8200 8201 8209 8213 8211 8218 8215 8209 8214 8214 8214 8216 8216 8213 8212 8212 8211 8217 8216 8209 8215 8211 8214 8226 8228 8239 8272 8281 8285 8283 8285 8287 8291 8290 8291 8291 8290 8292 8291 8295 8291 8294 8285 
8273 8276 8276 8277 8273 8272 8276 8273 8276 8278 8277 8272 8224 8201 8189 8181 8183 8185 8185 8194 8197 8211 8219 8239 8234 8218 8203 8194 8175 8178 8187 8201 8209 8216 8214 8207 8209 8208 8200 8195 8195 8205 8215 8218 8216 8217 8215 8215 8212 8214 8216 8212 8214 8212 8213 8215 8209 8214 8215 8215 8226 8236 8267 8282 8282 8282 8282 8287 8287 8288 8292 8291 8290 8292 8292 8292 8292 8295 8291 8282 
8276 8277 8280 8275 8277 8273 8275 8273 8277 8278 8279 8278 8262 8233 8213 8185 8182 8186 8193 8199 8239 8272 8271 8258 8226 8217 8199 8186 8184 8195 8203 8207 8209 8217 8215 8212 8215 8196 8181 8179 8182 8205 8221 8221 8221 8215 8210 8212 8212 8213 8214 8212 8211 8212 8213 8217 8211 8215 8220 8221 8233 8265 8281 8284 8283 8283 8286 8285 8285 8288 8288 8291 8291 8292 8293 8295 8292 8293 8290 8287 
8274 8277 8278 8277 8278 8274 8276 8273 8274 8278 8278 8280 8277 8271 8255 8203 8191 8196 8198 8235 8268 8273 8271 8257 8221 8205 8181 8181 8197 8201 8205 8205 8206 8212 8210 8211 8209 8185 8177 8177 8182 8207 8227 8217 8218 8216 8212 8215 8214 8214 8215 8214 8214 8215 8212 8216 8216 8218 8227 8237 8265 8279 8285 8285 8284 8282 8286 8286 8287 8289 8290 8289 8288 8291 8291 8293 8289 8290 8293 8289 
8274 8275 8279 8276 8277 8275 8273 8275 8276 8279 8277 8277 8278 8273 8251 8204 8203 8204 8232 8250 8213 8203 8202 8201 8223 8210 8186 8194 8203 8201 8204 8202 8206 8212 8208 8210 8210 8199 8180 8178 8192 8218 8225 8218 8216 8216 8213 8214 8219 8221 8218 8214 8217 8216 8212 8216 8217 8229 8258 8274 8281 8282 8283 8286 8282 8281 8284 8288 8285 8286 8289 8288 8291 8293 8290 8288 8289 8291 8291 8283 
8273 8278 8279 8277 8272 8273 8274 8275 8276 8275 8278 8276 8276 8276 8253 8239 8258 8261 8262 8200 8169 8169 8180 8189 8214 8209 8189 8200 8203 8203 8202 8205 8206 8210 8209 8208 8210 8209 8191 8182 8209 8220 8215 8209 8213 8213 8215 8208 8216 8225 8228 8223 8227 8229 8218 8216 8226 8264 8283 8283 8284 8283 8283 8285 8284 8283 8285 8287 8286 8287 8287 8290 8292 8289 8289 8288 8287 8288 8293 8286 
8272 8274 8281 8273 8275 8274 8272 8275 8274 8274 8272 8275 8276 8275 8270 8269 8272 8268 8251 8177 8165 8167 8173 8186 8190 8190 8199 8196 8200 8199 8202 8202 8205 8206 8209 8212 8212 8212 8207 8200 8210 8209 8214 8211 8211 8214 8215 8214 8210 8217 8219 8222 8221 8226 8237 8220 8231 8280 8285 8286 8285 8282 8281 8285 8286 8283 8286 8283 8287 8286 8286 8288 8288 8289 8289 8288 8286 8290 8288 8280 
8272 8273 8277 8273 8273 8270 8274 8267 8258 8249 8267 8273 8275 8275 8273 8275 8274 8269 8228 8172 8167 8166 8172 8185 8193 8190 8199 8197 8201 8200 8204 8202 8202 8206 8211 8210 8207 8211 8211 8205 8203 8210 8208 8210 8212 8220 8218 8221 8220 8219 8219 8209 8208 8214 8220 8215 8234 8281 8288 8283 8284 8285 8282 8286 8284 8285 8285 8286 8284 8284 8285 8289 8286 8287 8287 8287 8286 8288 8290 8281 
8275 8276 8278 8274 8273 8272 8270 8263 8229 8212 8230 8258 8268 8272 8273 8272 8272 8269 8218 8168 8165 8168 8180 8196 8194 8193 8196 8200 8200 8201 8203 8201 8208 8205 8209 8210 8210 8211 8212 8205 8195 8202 8207 8207 8208 8217 8217 8218 8222 8223 8215 8207 8213 8210 8210 8219 8244 8278 8282 8284 8287 8286 8288 8285 8283 8282 8282 8284 8282 8283 8283 8287 8286 8285 8285 8287 8287 8289 8288 8285 
8273 8274 8274 8270 8273 8272 8270 8262 8221 8211 8205 8207 8221 8233 8259 8266 8260 8245 8205 8174 8172 8183 8193 8192 8193 8195 8193 8198 8199 8203 8202 8204 8208 8206 8205 8208 8210 8211 8207 8207 8196 8200 8205 8206 8208 8211 8212 8222 8222 8226 8219 8213 8213 8210 8219 8225 8242 8243 8248 8268 8284 8285 8287 8284 8283 8284 8284 8283 8284 8283 8285 8286 8286 8285 8287 8287 8286 8286 8282 8280 
8272 8273 8277 8270 8271 8271 8269 8266 8241 8215 8206 8203 8202 8203 8209 8233 8242 8258 8231 8192 8228 8212 8196 8195 8191 8201 8196 8199 8203 8202 8203 8204 8205 8206 8204 8209 8211 8210 8207 8208 8203 8202 8206 8205 8204 8203 8205 8211 8212 8210 8223 8224 8223 8223 8226 8228 8229 8227 8229 8239 8270 8284 8285 8285 8284 8280 8281 8281 8281 8281 8283 8285 8283 8284 8286 8285 8286 8286 8285 8277 
8273 8271 8274 8272 8272 8271 8269 8269 8243 8212 8207 8207 8204 8204 8210 8251 8271 8273 8269 8262 8270 8235 8204 8198 8197 8199 8196 8199 8201 8202 8203 8206 8208 8206 8210 8209 8211 8208 8209 8197 8199 8205 8205 8205 8203 8201 8201 8204 8206 8204 8217 8224 8222 8223 8223 8223 8225 8226 8225 8229 8249 8279 8284 8280 8281 8280 8279 8276 8280 8281 8283 8285 8283 8285 8283 8285 8284 8283 8284 8278 
8271 8269 8278 8273 8271 8272 8268 8265 8235 8219 8209 8205 8207 8204 8220 8274 8277 8275 8278 8276 8277 8268 8218 8204 8199 8203 8198 8204 8205 8203 8207 8208 8208 8210 8214 8215 8209 8210 8204 8196 8198 8205 8207 8204 8204 8203 8200 8203 8206 8207 8215 8222 8225 8224 8221 8221 8222 8223 8227 8226 8241 8274 8282 8280 8279 8275 8279 8278 8280 8280 8282 8283 8286 8286 8285 8284 8282 8285 8282 8277 
8270 8273 8276 8273 8269 8272 8271 8266 8231 8215 8213 8209 8205 8203 8241 8272 8277 8277 8277 8281 8279 8266 8224 8207 8204 8207 8204 8209 8205 8210 8207 8210 8210 8212 8217 8219 8213 8209 8200 8196 8201 8209 8210 8205 8205 8203 8202 8204 8210 8210 8219 8220 8227 8226 8222 8222 8222 8225 8226 8229 8243 8274 8281 8279 8278 8277 8282 8278 8279 8282 8282 8286 8286 8285 8285 8285 8283 8285 8282 8276 
8272 8270 8274 8272 8273 8271 8274 8270 8231 8216 8214 8206 8203 8221 8265 8279 8275 8273 8279 8278 8280 8270 8251 8227 8214 8217 8226 8243 8212 8210 8213 8213 8210 8211 8218 8221 8222 8214 8204 8195 8207 8207 8214 8213 8209 8209 8208 8214 8217 8218 8225 8221 8221 8225 8224 8225 8223 8225 8229 8233 8248 8271 8279 8277 8280 8276 8280 8276 8279 8280 8283 8285 8287 8287 8287 8285 8285 8284 8286 8278 
8271 8273 8275 8273 8271 8274 8272 8267 8232 8214 8212 8207 8201 8239 8275 8274 8275 8276 8281 8282 8280 8280 8282 8273 8262 8266 8271 8265 8219 8213 8217 8216 8214 8213 8219 8223 8223 8221 8221 8213 8210 8215 8226 8220 8221 8225 8225 8226 8229 8227 8225 8222 8222 8227 8228 8231 8227 8230 8235 8237 8259 8277 8279 8280 8277 8278 8275 8278 8281 8285 8283 8287 8288 8286 8287 8284 8284 8286 8280 8278 
8273 8270 8274 8273 8271 8272 8272 8267 8230 8218 8212 8205 8205 8233 8270 8275 8275 8280 8281 8283 8282 8284 8289 8286 8287 8287 8283 8272 8232 8220 8221 8218 8217 8222 8221 8224 8229 8237 8233 8231 8224 8227 8237 8230 8234 8248 8249 8249 8231 8224 8228 8224 8221 8227 8235 8235 8236 8238 8240 8245 8270 8280 8281 8277 8278 8278 8278 8278 8284 8283 8284 8286 8288 8286 8286 8283 8283 8285 8277 8277 
8270 8270 8274 8273 8269 8268 8271 8266 8234 8219 8211 8206 8208 8232 8273 8276 8276 8279 8279 8281 8283 8284 8287 8291 8288 8293 8286 8280 8273 8258 8226 8220 8219 8220 8219 8219 8218 8252 8256 8252 8250 8254 8257 8253 8260 8268 8273 8283 8251 8229 8226 8227 8227 8233 8243 8245 8240 8237 8244 8255 8277 8282 8284 8275 8276 8274 8275 8281 8284 8283 8284 8286 8285 8286 8286 8283 8282 8283 8277 8279 
8270 8273 8274 8272 8271 8269 8271 8269 8246 8219 8211 8208 8208 8233 8270 8275 8277 8278 8279 8282 8282 8282 8288 8289 8290 8296 8287 8285 8283 8279 8249 8215 8211 8214 8215 8213 8227 8270 8275 8275 8278 8275 8279 8278 8279 8289 8289 8290 8285 8251 8235 8227 8227 8243 8248 8249 8247 8250 8250 8267 8282 8282 8283 8280 8278 8278 8277 8277 8281 8282 8286 8287 8287 8286 8287 8284 8283 8283 8283 8275 
8273 8270 8275 8274 8271 8272 8273 8272 8256 8222 8212 8206 8208 8234 8273 8278 8279 8280 8279 8282 8280 8281 8285 8286 8289 8297 8285 8284 8280 8283 8280 8232 8209 8205 8212 8217 8242 8277 8277 8277 8284 8280 8286 8287 8293 8292 8290 8291 8293 8283 8244 8232 8233 8241 8253 8257 8254 8254 8260 8278 8287 8285 8282 8279 8280 8278 8277 8281 8281 8283 8283 8288 8288 8287 8286 8285 8282 8286 8278 8277 
8275 8269 8274 8272 8268 8270 8274 8273 8267 8230 8211 8211 8210 8242 8271 8275 8278 8277 8279 8279 8279 8280 8284 8284 8286 8290 8285 8283 8284 8286 8280 8253 8237 8225 8228 8240 8276 8287 8287 8289 8292 8292 8295 8294 8293 8294 8291 8294 8296 8276 8242 8235 8237 8249 8259 8262 8258 8260 8271 8286 8287 8282 8284 8278 8277 8276 8277 8278 8280 8281 8281 8288 8287 8289 8285 8280 8279 8281 8283 8278 
8273 8273 8275 8272 8272 8272 8275 8273 8265 8232 8218 8217 8223 8263 8273 8278 8277 8276 8277 8279 8277 8280 8284 8284 8284 8289 8283 8284 8287 8288 8289 8285 8284 8281 8283 8287 8293 8291 8289 8291 8294 8295 8300 8293 8295 8295 8291 8294 8297 8282 8245 8241 8246 8255 8261 8261 8262 8271 8284 8284 8285 8282 8281 8282 8279 8278 8279 8279 8281 8281 8284 8286 8287 8284 8282 8279 8277 8277 8277 8273 
8274 8271 8272 8275 8272 8270 8269 8270 8271 8252 8236 8242 8262 8272 8275 8274 8273 8274 8281 8277 8277 8278 8282 8282 8282 8287 8281 8285 8285 8290 8292 8293 8289 8291 8293 8290 8291 8290 8289 8290 8294 8294 8295 8292 8292 8292 8291 8293 8298 8293 8267 8254 8251 8259 8266 8268 8271 8282 8287 8283 8284 8285 8281 8282 8280 8277 8279 8280 8282 8280 8284 8286 8284 8283 8281 8282 8278 8280 8278 8271 
8273 8271 8275 8267 8271 8266 8267 8265 8271 8272 8267 8269 8272 8277 8271 8272 8275 8275 8277 8279 8274 8274 8279 8284 8284 8288 8283 8287 8286 8288 8293 8293 8294 8293 8293 8290 8287 8287 8290 8291 8294 8291 8293 8289 8289 8293 8290 8292 8295 8293 8290 8279 8278 8276 8282 8287 8287 8287 8287 8286 8286 8287 8280 8279 8280 8279 8281 8281 8280 8283 8283 8284 8286 8282 8280 8281 8279 8278 8277 8274 
8276 8269 8268 8266 8266 8262 8266 8269 8271 8272 8272 8272 8275 8273 8270 8271 8270 8273 8276 8276 8273 8276 8279 8280 8282 8289 8286 8283 8286 8290 8288 8292 8289 8289 8291 8289 8290 8291 8289 8289 8294 8294 8296 8289 8289 8289 8292 8293 8296 8294 8296 8299 8297 8295 8296 8296 8290 8291 8291 8287 8284 8283 8281 8281 8280 8282 8281 8284 8285 8286 8288 8289 8283 8280 8281 8282 8276 8275 8275 8273 
8277 8268 8269 8265 8265 8266 8263 8264 8266 8268 8265 8267 8265 8266 8266 8265 8263 8264 8272 8271 8269 8267 8276 8277 8282 8286 8284 8282 8286 8286 8287 8291 8292 8290 8290 8286 8290 8288 8292 8292 8295 8294 8294 8289 8289 8289 8290 8293 8300 8298 8298 8299 8298 8299 8299 8295 8292 8292 8293 8290 8288 8285 8282 8280 8287 8283 8283 8279 8284 8283 8290 8290 8285 8283 8280 8279 8273 8276 8276 8273 


