P2
80 60
8302
8264 8270 8273 8273 8278 8276 8268 8272 8270 8269 8269 8274 8275 8270 8271 8270 8271 8269 8270 8270 8273 8279 8281 8277 8279 8279 8277 8282 8286 8281 8282 8285 8288 8288 8290 8286 8285 8287 8293 8290 8288 8286 8286 8281 8283 8282 8283 8284 8286 8277 8278 8278 8276 8273 8274 8274 8277 8275 8275 8278 8280 8277 8276 8276 8276 8274 8277 8279 8282 8281 8278 8280 8283 8284 8287 8289 8286 8286 8280 8282 
8266 8271 8275 8272 8276 8274 8266 8263 8268 8271 8268 8272 8266 8271 8269 8271 8271 8271 8269 8272 8276 8279 8281 8275 8278 8278 8275 8281 8285 8281 8283 8286 8286 8288 8289 8286 8286 8292 8291 8291 8286 8286 8282 8284 8282 8284 8285 8284 8285 8283 8280 8279 8276 8277 8276 8276 8274 8272 8275 8278 8278 8279 8276 8274 8274 8274 8278 8278 8280 8278 8276 8278 8282 8281 8287 8284 8283 8283 8286 8287 
8253 8258 8268 8262 8274 8266 8263 8269 8268 8268 8270 8266 8262 8267 8270 8268 8271 8271 8268 8271 8271 8277 8277 8272 8276 8280 8277 8283 8284 8278 8278 8283 8290 8287 8288 8282 8286 8291 8291 8293 8289 8284 8282 8282 8284 8284 8286 8287 8284 8277 8280 8276 8273 8277 8279 8278 8275 8275 8276 8276 8278 8278 8274 8277 8273 8273 8275 8276 8280 8280 8276 8275 8276 8280 8282 8280 8283 8280 8283 8283 
8262 8257 8275 8261 8277 8265 8267 8269 8270 8269 8261 8257 8266 8267 8265 8272 8273 8273 8267 8267 8267 8269 8264 8275 8276 8280 8279 8283 8286 8282 8278 8285 8289 8284 8288 8283 8288 8291 8291 8291 8289 8283 8282 8282 8283 8283 8285 8284 8284 8279 8276 8275 8276 8274 8278 8279 8277 8273 8275 8276 8276 8278 8274 8276 8270 8272 8274 8274 8279 8278 8270 8274 8276 8277 8276 8276 8279 8279 8280 8281 
8261 8254 8272 8262 8272 8271 8267 8265 8267 8270 8263 8256 8260 8264 8262 8271 8270 8268 8272 8268 8269 8270 8264 8270 8277 8282 8277 8277 8286 8284 8284 8285 8286 8287 8287 8289 8288 8288 8289 8287 8288 8284 8281 8279 8279 8279 8283 8285 8283 8280 8280 8272 8273 8275 8277 8279 8278 8273 8278 8279 8279 8276 8275 8275 8271 8271 8271 8266 8274 8274 8271 8276 8276 8272 8268 8271 8272 8272 8271 8272 
8267 8263 8267 8262 8267 8266 8272 8269 8265 8268 8257 8263 8268 8262 8259 8264 8270 8264 8271 8274 8268 8268 8273 8269 8276 8280 8278 8276 8277 8280 8282 8281 8285 8284 8285 8285 8285 8286 8285 8288 8287 8282 8285 8281 8279 8281 8279 8283 8281 8281 8278 8275 8275 8277 8277 8279 8277 8278 8279 8282 8277 8280 8275 8271 8269 8272 8270 8269 8275 8273 8271 8272 8272 8266 8265 8268 8266 8266 8268 8267 
8267 8271 8267 8275 8272 8263 8273 8277 8264 8260 8254 8268 8265 8259 8261 8267 8263 8262 8267 8272 8270 8272 8278 8273 8277 8279 8271 8272 8279 8281 8280 8285 8284 8285 8284 8283 8283 8285 8286 8289 8288 8283 8286 8280 8278 8280 8281 8282 8280 8274 8278 8275 8275 8278 8279 8278 8276 8276 8279 8277 8273 8274 8275 8275 8269 8274 8276 8277 8272 8270 8271 8272 8272 8266 8267 8264 8266 8263 8262 8266 
8267 8270 8265 8277 8268 8266 8271 8274 8272 8253 8267 8270 8267 8260 8267 8266 8264 8268 8268 8267 8272 8272 8275 8277 8276 8278 8267 8271 8277 8279 8281 8281 8284 8284 8285 8287 8281 8285 8285 8288 8288 8283 8285 8281 8279 8281 8281 8281 8276 8278 8275 8272 8275 8273 8275 8278 8276 8274 8277 8276 8273 8271 8271 8275 8268 8274 8276 8276 8269 8270 8265 8266 8270 8264 8265 8265 8259 8262 8261 8268 
8270 8264 8262 8266 8272 8265 8275 8269 8268 8256 8263 8265 8263 8261 8261 8263 8264 8266 8267 8270 8269 8269 8269 8271 8271 8280 8270 8274 8276 8279 8278 8283 8282 8282 8286 8287 8288 8284 8285 8285 8285 8282 8280 8279 8277 8281 8280 8279 8277 8273 8274 8274 8273 8273 8275 8271 8276 8276 8274 8275 8272 8268 8271 8271 8270 8272 8272 8274 8269 8270 8266 8267 8262 8263 8263 8264 8262 8261 8261 8262 
8275 8257 8266 8269 8268 8270 8257 8268 8266 8265 8258 8262 8263 8262 8260 8260 8266 8266 8271 8268 8266 8266 8268 8267 8268 8274 8273 8277 8277 8274 8276 8279 8282 8280 8283 8286 8288 8290 8284 8283 8281 8279 8282 8275 8277 8281 8279 8281 8277 8275 8275 8273 8272 8273 8273 8272 8276 8272 8275 8274 8272 8273 8270 8273 8270 8270 8267 8270 8268 8269 8267 8266 8265 8261 8263 8261 8260 8266 8260 8267 
8273 8259 8266 8266 8264 8267 8259 8265 8265 8261 8260 8258 8258 8261 8257 8262 8263 8263 8263 8265 8268 8266 8270 8272 8268 8271 8275 8277 8282 8274 8277 8272 8278 8282 8283 8280 8283 8286 8284 8284 8280 8282 8278 8280 8280 8279 8282 8281 8278 8273 8274 8273 8276 8273 8271 8270 8275 8271 8275 8275 8269 8270 8269 8268 8267 8269 8273 8271 8268 8268 8269 8267 8260 8263 8261 8260 8258 8262 8258 8260 
8268 8267 8266 8263 8258 8266 8256 8262 8265 8258 8262 8258 8260 8262 8260 8262 8261 8260 8263 8269 8269 8266 8267 8270 8272 8274 8272 8277 8281 8276 8277 8276 8276 8283 8277 8276 8280 8283 8282 8279 8279 8281 8278 8282 8279 8280 8281 8277 8277 8275 8276 8273 8276 8277 8274 8271 8271 8268 8277 8272 8270 8268 8270 8270 8267 8269 8273 8271 8266 8267 8267 8266 8263 8260 8259 8258 8260 8260 8260 8256 
8266 8263 8258 8256 8255 8263 8261 8255 8258 8263 8258 8259 8255 8260 8260 8262 8262 8264 8264 8264 8263 8268 8266 8265 8270 8271 8273 8276 8277 8275 8278 8274 8276 8279 8274 8273 8282 8283 8277 8276 8277 8281 8279 8278 8281 8279 8280 8278 8275 8274 8275 8276 8276 8278 8276 8271 8274 8270 8274 8274 8270 8270 8267 8269 8267 8270 8271 8268 8267 8266 8262 8261 8262 8258 8260 8262 8263 8262 8257 8260 
8265 8272 8268 8265 8264 8263 8262 8263 8254 8263 8262 8261 8260 8260 8262 8263 8265 8264 8265 8267 8266 8263 8267 8269 8267 8273 8270 8272 8275 8273 8278 8274 8276 8278 8275 8278 8275 8279 8275 8274 8277 8276 8282 8280 8280 8276 8277 8278 8276 8273 8274 8276 8273 8276 8278 8272 8275 8272 8274 8272 8269 8266 8271 8273 8274 8272 8273 8274 8271 8266 8263 8264 8259 8259 8258 8261 8263 8262 8257 8258 
8275 8259 8267 8264 8266 8264 8259 8265 8257 8261 8260 8262 8262 8264 8264 8262 8263 8264 8269 8266 8263 8265 8265 8267 8270 8268 8272 8270 8275 8276 8269 8270 8275 8277 8278 8274 8274 8278 8275 8273 8277 8278 8276 8278 8279 8277 8275 8275 8273 8270 8275 8275 8275 8272 8273 8277 8275 8272 8275 8273 8271 8270 8268 8272 8271 8271 8272 8271 8270 8268 8262 8264 8261 8261 8260 8259 8260 8260 8254 8257 
8272 8252 8258 8266 8264 8260 8261 8262 8258 8263 8263 8259 8258 8260 8265 8268 8265 8262 8270 8266 8260 8264 8266 8264 8264 8270 8269 8267 8273 8273 8273 8273 8273 8276 8276 8276 8276 8274 8272 8272 8274 8274 8273 8274 8271 8274 8274 8271 8272 8269 8274 8272 8274 8274 8272 8275 8274 8273 8273 8274 8272 8266 8268 8273 8272 8272 8271 8271 8270 8269 8265 8261 8263 8261 8259 8262 8259 8260 8258 8258 
8272 8256 8259 8268 8259 8260 8258 8255 8263 8262 8261 8262 8256 8260 8259 8262 8261 8263 8268 8262 8262 8264 8269 8265 8265 8272 8270 8275 8274 8270 8276 8274 8275 8274 8277 8275 8277 8273 8272 8273 8274 8271 8273 8272 8272 8271 8270 8271 8272 8272 8272 8272 8271 8270 8272 8275 8272 8272 8272 8273 8269 8266 8270 8271 8271 8273 8270 8271 8267 8267 8262 8264 8262 8264 8262 8262 8260 8260 8256 8263 
8271 8261 8262 8261 8262 8263 8260 8265 8256 8266 8264 8262 8265 8266 8266 8263 8262 8265 8268 8267 8263 8270 8270 8266 8266 8274 8273 8272 8272 8272 8271 8275 8277 8278 8276 8278 8277 8271 8272 8273 8269 8269 8273 8271 8271 8271 8269 8271 8274 8272 8273 8274 8269 8270 8268 8274 8272 8271 8273 8276 8269 8269 8271 8272 8273 8270 8271 8271 8268 8267 8264 8267 8266 8263 8265 8267 8261 8259 8262 8262 
8267 8261 8262 8262 8261 8261 8262 8265 8266 8260 8261 8264 8263 8263 8264 8265 8261 8267 8267 8260 8260 8268 8269 8267 8266 8271 8275 8270 8271 8269 8269 8273 8275 8276 8277 8275 8277 8271 8273 8271 8267 8266 8270 8267 8269 8268 8270 8270 8269 8271 8277 8270 8267 8267 8264 8269 8272 8270 8274 8273 8266 8267 8271 8272 8269 8267 8268 8269 8268 8268 8266 8266 8265 8263 8265 8265 8261 8263 8259 8263 
8267 8258 8262 8261 8256 8263 8263 8262 8265 8262 8261 8265 8262 8260 8264 8267 8265 8262 8263 8261 8255 8267 8264 8263 8263 8265 8270 8269 8268 8267 8269 8270 8273 8273 8271 8269 8268 8267 8272 8270 8263 8228 8240 8237 8243 8262 8265 8267 8267 8264 8270 8271 8266 8267 8271 8268 8271 8272 8270 8269 8269 8268 8273 8272 8271 8265 8267 8267 8268 8269 8267 8265 8263 8262 8261 8262 8262 8265 8263 8263 
8266 8264 8253 8252 8257 8259 8254 8266 8265 8258 8257 8261 8260 8257 8257 8264 8265 8263 8258 8263 8258 8264 8266 8264 8261 8264 8263 8259 8266 8266 8265 8265 8264 8257 8244 8232 8234 8231 8249 8264 8259 8219 8203 8206 8223 8249 8249 8253 8261 8259 8266 8267 8264 8265 8267 8269 8269 8268 8271 8267 8265 8268 8271 8273 8271 8269 8268 8268 8269 8269 8264 8263 8262 8260 8263 8264 8261 8263 8264 8269 
8271 8268 8258 8266 8265 8262 8249 8264 8254 8265 8254 8254 8261 8259 8256 8261 8260 8261 8255 8257 8260 8262 8266 8265 8263 8260 8261 8223 8258 8264 8257 8249 8226 8216 8201 8203 8226 8212 8228 8230 8211 8219 8226 8241 8255 8261 8256 8244 8232 8245 8258 8263 8264 8265 8267 8266 8268 8268 8269 8266 8267 8269 8272 8271 8270 8266 8269 8269 8270 8268 8264 8263 8260 8257 8259 8263 8262 8265 8266 8272 
8268 8260 8261 8264 8262 8259 8249 8247 8251 8263 8258 8259 8257 8259 8258 8255 8259 8257 8254 8257 8260 8262 8267 8265 8262 8262 8261 8226 8257 8258 8254 8223 8202 8195 8198 8192 8205 8216 8228 8242 8218 8236 8225 8207 8208 8243 8255 8240 8213 8192 8236 8258 8259 8262 8265 8267 8262 8261 8260 8264 8264 8268 8269 8270 8269 8268 8269 8268 8265 8264 8263 8259 8260 8258 8259 8261 8264 8264 8262 8267 
8266 8264 8263 8262 8266 8263 8259 8251 8259 8260 8262 8261 8265 8261 8262 8261 8259 8261 8256 8257 8260 8260 8267 8262 8251 8242 8246 8223 8234 8241 8234 8208 8196 8200 8203 8194 8218 8212 8223 8238 8201 8208 8248 8243 8221 8219 8226 8196 8188 8199 8224 8237 8249 8261 8266 8266 8252 8237 8239 8252 8262 8266 8266 8270 8267 8270 8271 8268 8267 8265 8260 8258 8260 8258 8259 8261 8263 8263 8264 8271 
8265 8255 8263 8267 8263 8261 8251 8262 8263 8256 8260 8260 8263 8259 8261 8261 8259 8260 8257 8257 8259 8261 8262 8235 8244 8257 8258 8222 8218 8242 8233 8240 8216 8203 8200 8191 8195 8202 8208 8219 8204 8220 8225 8253 8225 8222 8208 8207 8188 8205 8199 8215 8252 8259 8261 8265 8242 8232 8235 8254 8263 8264 8268 8269 8272 8271 8270 8268 8267 8265 8261 8261 8259 8256 8259 8261 8262 8262 8264 8268 
8267 8252 8259 8267 8262 8257 8263 8252 8248 8256 8256 8261 8261 8259 8262 8259 8259 8261 8257 8255 8259 8254 8231 8232 8254 8255 8258 8245 8226 8241 8226 8219 8213 8202 8203 8187 8182 8199 8200 8200 8214 8222 8198 8228 8201 8191 8210 8211 8192 8197 8210 8211 8250 8259 8261 8252 8235 8234 8238 8261 8264 8264 8267 8265 8270 8268 8266 8269 8263 8261 8261 8260 8261 8259 8258 8262 8261 8263 8264 8265 
8261 8258 8255 8266 8257 8260 8256 8251 8254 8258 8253 8259 8258 8259 8261 8256 8260 8261 8257 8253 8254 8240 8207 8250 8247 8229 8237 8250 8210 8192 8219 8234 8210 8192 8199 8194 8196 8205 8196 8203 8243 8221 8204 8237 8203 8188 8195 8196 8197 8200 8207 8214 8246 8262 8262 8248 8234 8234 8246 8265 8264 8265 8265 8267 8268 8268 8267 8264 8262 8261 8258 8261 8260 8258 8259 8263 8264 8263 8264 8266 
8262 8264 8262 8262 8265 8259 8260 8256 8253 8258 8254 8260 8261 8260 8261 8259 8260 8261 8262 8254 8254 8225 8231 8245 8196 8218 8250 8259 8228 8217 8253 8241 8213 8200 8201 8194 8204 8200 8202 8209 8242 8258 8252 8240 8232 8206 8195 8194 8199 8203 8205 8222 8245 8260 8261 8240 8239 8242 8259 8269 8267 8267 8267 8266 8267 8266 8267 8263 8263 8260 8260 8261 8260 8263 8264 8264 8267 8265 8266 8269 
8258 8258 8259 8263 8257 8261 8258 8257 8257 8260 8261 8261 8262 8258 8261 8257 8260 8262 8257 8255 8253 8242 8241 8227 8220 8260 8264 8264 8260 8231 8229 8235 8221 8201 8194 8203 8199 8198 8204 8209 8219 8230 8241 8235 8247 8229 8201 8212 8200 8208 8214 8237 8242 8263 8256 8240 8242 8245 8261 8262 8267 8264 8264 8267 8267 8266 8264 8261 8260 8259 8259 8261 8256 8259 8261 8265 8264 8270 8269 8270 
8262 8252 8257 8259 8262 8266 8260 8258 8263 8263 8263 8261 8262 8259 8259 8259 8259 8262 8260 8257 8254 8257 8258 8238 8261 8263 8261 8244 8244 8222 8217 8223 8200 8190 8197 8199 8200 8200 8204 8195 8189 8192 8204 8213 8229 8231 8222 8239 8209 8218 8238 8251 8248 8263 8244 8236 8238 8247 8262 8263 8259 8264 8268 8267 8266 8263 8263 8260 8258 8258 8258 8262 8258 8260 8262 8263 8260 8271 8265 8270 
8263 8258 8256 8259 8262 8264 8258 8260 8261 8258 8259 8257 8260 8262 8260 8261 8260 8260 8260 8254 8253 8255 8262 8263 8261 8264 8260 8253 8263 8243 8216 8217 8202 8203 8191 8189 8196 8204 8197 8191 8195 8193 8194 8218 8196 8194 8222 8250 8254 8223 8247 8255 8256 8248 8235 8235 8237 8251 8263 8263 8264 8262 8268 8268 8264 8263 8264 8257 8257 8258 8257 8261 8257 8259 8260 8262 8269 8268 8264 8267 
8263 8259 8258 8258 8261 8261 8256 8256 8261 8257 8254 8260 8258 8256 8256 8260 8260 8256 8258 8256 8253 8262 8261 8266 8265 8264 8265 8267 8265 8244 8209 8204 8207 8201 8197 8197 8206 8195 8195 8198 8195 8197 8194 8209 8210 8191 8193 8235 8261 8248 8232 8257 8260 8241 8231 8232 8241 8261 8263 8263 8259 8262 8264 8263 8264 8264 8261 8261 8259 8258 8257 8260 8257 8259 8261 8266 8267 8266 8266 8267 
8262 8260 8258 8261 8258 8262 8256 8256 8263 8264 8254 8258 8254 8259 8258 8259 8259 8257 8257 8255 8257 8264 8264 8267 8264 8266 8263 8259 8240 8208 8232 8206 8194 8192 8192 8199 8201 8193 8196 8199 8201 8203 8197 8197 8214 8216 8195 8227 8261 8262 8235 8255 8260 8236 8229 8231 8251 8264 8262 8263 8265 8261 8262 8262 8262 8261 8261 8258 8259 8261 8258 8259 8260 8260 8262 8264 8262 8267 8264 8270 
8265 8257 8263 8261 8261 8260 8254 8254 8260 8260 8258 8256 8249 8256 8256 8257 8258 8260 8262 8256 8258 8264 8262 8262 8267 8266 8256 8211 8199 8206 8241 8215 8191 8194 8193 8197 8197 8204 8204 8200 8205 8207 8214 8198 8229 8252 8216 8227 8260 8262 8252 8257 8249 8235 8230 8234 8258 8265 8261 8260 8262 8263 8264 8264 8261 8261 8259 8262 8262 8260 8260 8260 8257 8261 8264 8262 8266 8265 8268 8269 
8268 8262 8263 8262 8262 8257 8264 8263 8261 8259 8258 8259 8259 8256 8259 8259 8262 8260 8260 8262 8259 8267 8263 8261 8267 8259 8225 8196 8196 8196 8207 8195 8193 8192 8196 8205 8203 8206 8203 8204 8204 8214 8229 8210 8256 8263 8248 8221 8258 8266 8266 8261 8242 8228 8231 8243 8265 8264 8261 8259 8264 8265 8267 8260 8263 8261 8259 8262 8260 8261 8260 8260 8259 8262 8262 8264 8267 8266 8264 8266 
8268 8263 8264 8261 8261 8261 8266 8266 8260 8258 8251 8262 8263 8259 8261 8265 8263 8262 8264 8261 8264 8267 8269 8260 8263 8233 8205 8193 8195 8197 8202 8194 8200 8195 8201 8208 8208 8205 8203 8204 8202 8208 8205 8218 8255 8262 8262 8233 8254 8265 8266 8258 8234 8231 8234 8254 8267 8263 8266 8262 8263 8263 8267 8264 8262 8261 8263 8258 8260 8259 8260 8259 8257 8261 8264 8267 8268 8267 8267 8267 
8267 8267 8264 8263 8263 8261 8263 8259 8261 8253 8256 8264 8267 8258 8261 8261 8264 8261 8266 8266 8262 8265 8271 8258 8262 8257 8233 8199 8198 8207 8228 8217 8206 8202 8203 8211 8210 8207 8201 8205 8206 8209 8210 8226 8229 8265 8268 8261 8264 8264 8262 8249 8232 8234 8244 8261 8266 8267 8265 8264 8263 8260 8265 8264 8263 8266 8264 8260 8257 8257 8258 8259 8259 8259 8269 8271 8267 8265 8266 8268 
8264 8262 8265 8265 8260 8261 8260 8261 8261 8259 8261 8265 8263 8257 8262 8261 8258 8257 8259 8255 8259 8260 8268 8263 8264 8264 8251 8209 8200 8221 8248 8216 8206 8201 8201 8207 8209 8208 8206 8208 8208 8234 8238 8258 8236 8258 8266 8265 8265 8264 8260 8238 8239 8240 8251 8267 8270 8265 8265 8265 8262 8261 8262 8265 8263 8263 8263 8265 8263 8259 8256 8259 8259 8264 8268 8268 8269 8264 8267 8267 
8268 8265 8264 8265 8266 8264 8262 8263 8259 8263 8262 8260 8262 8258 8260 8256 8263 8258 8257 8258 8258 8258 8263 8265 8263 8259 8251 8226 8206 8218 8242 8215 8209 8205 8203 8214 8218 8204 8211 8217 8227 8247 8253 8258 8251 8255 8260 8258 8263 8261 8251 8232 8239 8242 8260 8269 8269 8268 8265 8262 8259 8263 8264 8264 8261 8261 8263 8265 8266 8259 8259 8261 8263 8264 8268 8269 8269 8266 8263 8271 
8263 8266 8272 8266 8268 8268 8265 8261 8263 8263 8261 8257 8260 8258 8257 8254 8255 8258 8262 8258 8259 8256 8253 8247 8238 8239 8238 8236 8223 8214 8235 8223 8219 8213 8213 8211 8210 8212 8219 8224 8252 8247 8237 8238 8247 8246 8246 8246 8247 8245 8239 8238 8243 8246 8262 8266 8269 8266 8265 8263 8261 8261 8265 8263 8265 8264 8266 8263 8262 8261 8258 8259 8260 8261 8268 8268 8268 8263 8263 8266 
8262 8266 8271 8261 8267 8270 8261 8264 8261 8261 8256 8263 8255 8256 8266 8256 8255 8265 8267 8264 8261 8263 8253 8241 8237 8237 8242 8242 8240 8243 8243 8229 8228 8222 8248 8234 8215 8212 8223 8233 8264 8258 8252 8233 8247 8245 8244 8244 8245 8242 8242 8244 8243 8248 8267 8269 8267 8264 8264 8264 8261 8261 8264 8265 8266 8264 8263 8260 8261 8262 8262 8262 8258 8266 8269 8270 8266 8266 8262 8269 
8264 8262 8270 8256 8263 8264 8261 8257 8259 8263 8259 8261 8262 8259 8268 8265 8260 8268 8267 8266 8263 8260 8255 8240 8243 8241 8240 8243 8244 8244 8243 8240 8250 8238 8261 8252 8235 8228 8232 8247 8257 8256 8256 8249 8250 8248 8246 8248 8247 8246 8245 8243 8246 8259 8269 8269 8272 8264 8263 8265 8260 8264 8266 8265 8266 8266 8266 8261 8262 8261 8262 8261 8262 8267 8266 8273 8273 8270 8266 8266 
8262 8262 8263 8260 8261 8264 8260 8259 8262 8263 8260 8262 8262 8267 8259 8262 8261 8272 8262 8256 8267 8259 8260 8246 8240 8240 8239 8243 8244 8238 8238 8246 8248 8240 8246 8245 8243 8244 8239 8239 8242 8240 8247 8247 8247 8246 8242 8242 8244 8244 8246 8243 8248 8263 8270 8269 8266 8265 8265 8261 8262 8266 8267 8265 8264 8267 8264 8262 8259 8263 8264 8264 8264 8263 8274 8271 8271 8270 8268 8273 
8265 8264 8266 8260 8266 8257 8263 8259 8265 8267 8262 8265 8268 8269 8257 8259 8257 8259 8257 8264 8262 8259 8261 8248 8246 8243 8240 8244 8246 8237 8238 8244 8250 8245 8243 8245 8243 8246 8245 8244 8245 8240 8241 8248 8248 8249 8245 8246 8244 8245 8247 8248 8257 8266 8272 8268 8270 8265 8265 8267 8264 8266 8267 8266 8268 8268 8264 8261 8261 8265 8264 8262 8264 8265 8269 8269 8271 8271 8270 8275 
8262 8269 8263 8260 8263 8259 8261 8255 8265 8263 8259 8257 8265 8267 8262 8259 8265 8269 8258 8266 8262 8256 8264 8256 8242 8253 8244 8246 8245 8246 8246 8247 8254 8249 8243 8243 8241 8245 8244 8245 8242 8243 8244 8248 8248 8249 8249 8250 8246 8246 8251 8247 8256 8266 8270 8270 8269 8266 8265 8267 8266 8267 8268 8266 8265 8267 8261 8263 8264 8266 8263 8264 8267 8269 8268 8270 8272 8271 8271 8270 
8266 8260 8256 8264 8265 8263 8263 8259 8259 8260 8259 8258 8266 8265 8264 8266 8270 8264 8264 8266 8265 8270 8269 8266 8248 8248 8251 8252 8253 8251 8251 8254 8255 8257 8260 8253 8251 8245 8247 8244 8250 8248 8248 8252 8251 8250 8252 8254 8252 8249 8255 8255 8262 8264 8271 8271 8271 8263 8265 8269 8266 8265 8264 8267 8264 8267 8264 8263 8266 8267 8264 8265 8266 8266 8267 8267 8272 8273 8267 8274 
8265 8267 8257 8262 8265 8265 8265 8262 8259 8260 8259 8267 8265 8265 8264 8269 8271 8267 8266 8264 8273 8268 8269 8272 8255 8245 8248 8250 8253 8248 8249 8251 8257 8255 8256 8258 8248 8251 8248 8247 8253 8250 8251 8257 8255 8250 8252 8255 8253 8250 8258 8261 8267 8266 8265 8270 8269 8267 8265 8266 8264 8267 8264 8268 8266 8267 8265 8265 8263 8267 8265 8265 8267 8270 8268 8269 8272 8273 8270 8272 
8264 8265 8263 8266 8266 8264 8265 8265 8270 8273 8269 8263 8266 8263 8267 8275 8273 8270 8268 8266 8272 8267 8267 8271 8269 8259 8254 8254 8259 8256 8255 8262 8259 8261 8261 8259 8248 8246 8244 8247 8256 8259 8257 8257 8256 8253 8254 8256 8256 8253 8260 8263 8270 8266 8269 8266 8272 8266 8267 8265 8267 8266 8265 8268 8268 8269 8264 8264 8264 8265 8263 8268 8270 8268 8272 8278 8274 8272 8273 8269 
8265 8256 8264 8264 8260 8267 8270 8267 8270 8261 8265 8264 8268 8265 8271 8268 8268 8266 8268 8265 8271 8265 8272 8274 8272 8268 8263 8265 8266 8263 8267 8265 8273 8266 8270 8263 8262 8260 8256 8252 8261 8263 8264 8261 8256 8256 8258 8259 8260 8263 8266 8268 8271 8270 8267 8269 8269 8267 8263 8266 8266 8269 8267 8267 8260 8267 8266 8263 8264 8264 8266 8267 8267 8270 8275 8277 8274 8274 8271 8274 
8263 8256 8264 8262 8262 8269 8267 8261 8269 8263 8269 8273 8273 8273 8267 8266 8270 8272 8277 8267 8265 8275 8276 8274 8276 8273 8273 8274 8271 8271 8275 8277 8284 8273 8279 8271 8274 8271 8265 8266 8271 8272 8270 8268 8260 8265 8264 8267 8265 8268 8272 8273 8268 8271 8270 8268 8272 8270 8266 8264 8265 8268 8269 8268 8261 8261 8263 8265 8269 8269 8270 8271 8271 8271 8277 8279 8276 8276 8273 8274 
8259 8248 8260 8256 8266 8261 8268 8258 8261 8266 8267 8268 8270 8272 8271 8269 8269 8268 8273 8263 8265 8270 8273 8277 8272 8273 8270 8273 8283 8278 8279 8282 8282 8283 8283 8278 8277 8280 8278 8276 8281 8279 8279 8272 8273 8273 8272 8274 8274 8275 8273 8275 8274 8272 8268 8272 8272 8267 8263 8263 8266 8268 8266 8263 8259 8262 8264 8269 8269 8270 8270 8270 8271 8275 8275 8278 8276 8272 8271 8273 
8257 8247 8251 8256 8259 8262 8255 8267 8256 8257 8264 8265 8272 8273 8270 8267 8265 8268 8274 8265 8268 8271 8278 8275 8270 8280 8281 8282 8289 8288 8280 8287 8286 8285 8289 8284 8282 8281 8286 8285 8283 8280 8282 8279 8275 8277 8277 8278 8281 8279 8278 8273 8275 8272 8271 8271 8272 8268 8264 8269 8268 8268 8266 8260 8258 8265 8265 8264 8270 8268 8272 8271 8269 8272 8274 8277 8274 8275 8273 8270 
8259 8256 8257 8256 8258 8253 8255 8263 8262 8258 8252 8259 8259 8266 8269 8260 8269 8273 8269 8271 8265 8269 8275 8275 8273 8282 8285 8289 8291 8284 8286 8292 8292 8289 8294 8288 8290 8287 8287 8290 8285 8285 8285 8285 8282 8282 8284 8283 8283 8280 8277 8277 8271 8278 8276 8274 8270 8270 8267 8271 8271 8272 8271 8263 8263 8266 8264 8265 8271 8270 8269 8269 8271 8274 8279 8275 8272 8274 8272 8273 
8260 8255 8259 8259 8267 8274 8268 8263 8249 8258 8251 8253 8255 8263 8265 8262 8265 8269 8264 8264 8267 8267 8270 8274 8275 8281 8284 8291 8289 8285 8290 8290 8291 8295 8296 8291 8294 8294 8287 8287 8288 8287 8288 8290 8289 8289 8288 8284 8289 8289 8284 8279 8273 8270 8278 8272 8271 8267 8267 8269 8270 8270 8270 8265 8261 8263 8261 8269 8269 8270 8268 8273 8273 8273 8275 8277 8272 8271 8269 8271 
8267 8267 8259 8267 8275 8270 8272 8268 8250 8262 8248 8251 8254 8260 8256 8261 8260 8257 8261 8259 8260 8263 8266 8272 8276 8278 8282 8290 8295 8289 8290 8291 8294 8296 8298 8292 8295 8298 8292 8291 8286 8291 8297 8296 8293 8290 8287 8290 8293 8292 8282 8276 8271 8267 8275 8269 8271 8266 8267 8267 8267 8267 8267 8265 8266 8262 8265 8265 8268 8268 8270 8270 8271 8272 8273 8274 8269 8272 8264 8275 
8271 8270 8278 8276 8268 8264 8269 8271 8257 8268 8264 8260 8270 8267 8267 8264 8265 8265 8256 8256 8263 8263 8271 8272 8269 8262 8283 8290 8298 8293 8287 8293 8301 8293 8299 8301 8297 8296 8293 8291 8293 8295 8298 8298 8294 8293 8282 8292 8297 8291 8284 8278 8275 8272 8270 8268 8270 8270 8266 8266 8265 8267 8266 8268 8268 8262 8266 8265 8268 8269 8267 8271 8272 8270 8274 8274 8270 8269 8268 8274 
8271 8270 8277 8272 8265 8264 8270 8255 8263 8268 8267 8263 8274 8277 8278 8265 8262 8270 8260 8266 8270 8266 8271 8270 8272 8262 8269 8288 8300 8296 8296 8294 8302 8293 8299 8302 8299 8297 8291 8294 8295 8296 8295 8297 8295 8286 8288 8291 8292 8290 8279 8278 8272 8267 8266 8268 8268 8266 8263 8265 8263 8265 8269 8271 8265 8271 8271 8272 8270 8271 8273 8273 8273 8274 8272 8272 8273 8270 8272 8278 
8283 8278 8272 8249 8263 8266 8274 8256 8265 8264 8270 8270 8279 8286 8286 8274 8270 8274 8277 8274 8269 8270 8270 8271 8274 8272 8283 8287 8293 8292 8290 8298 8298 8297 8291 8297 8295 8291 8289 8296 8295 8290 8291 8294 8291 8285 8289 8292 8289 8280 8279 8274 8269 8264 8267 8265 8270 8269 8266 8268 8270 8272 8274 8280 8275 8279 8283 8284 8283 8285 8285 8285 8281 8279 8283 8283 8277 8279 8283 8278 
8287 8270 8258 8262 8265 8264 8263 8264 8262 8257 8266 8276 8277 8285 8274 8260 8256 8266 8275 8265 8262 8259 8262 8266 8276 8274 8280 8287 8289 8289 8288 8288 8289 8296 8291 8292 8295 8294 8287 8293 8293 8286 8287 8286 8285 8284 8291 8285 8284 8280 8272 8272 8265 8265 8265 8263 8268 8271 8269 8270 8273 8276 8274 8277 8276 8278 8279 8284 8284 8283 8284 8291 8287 8283 8290 8289 8286 8282 8284 8286 
8286 8275 8269 8272 8272 8264 8270 8277 8279 8280 8282 8282 8284 8288 8276 8272 8272 8273 8275 8273 8266 8261 8268 8269 8271 8268 8272 8276 8281 8278 8279 8284 8285 8291 8286 8289 8291 8288 8288 8291 8288 8287 8285 8281 8282 8280 8287 8281 8276 8269 8269 8265 8263 8265 8265 8265 8269 8270 8270 8269 8267 8273 8268 8273 8277 8274 8283 8284 8284 8283 8284 8289 8291 8286 8285 8289 8291 8287 8290 8287 


