P2
80 60
8316
8289 8278 8288 8283 8291 8288 8284 8279 8283 8280 8284 8278 8282 8278 8279 8279 8280 8275 8276 8282 8285 8288 8285 8284 8283 8285 8286 8283 8285 8281 8285 8291 8291 8290 8292 8293 8295 8295 8299 8297 8295 8291 8288 8286 8287 8288 8288 8284 8284 8287 8284 8283 8278 8274 8277 8274 8270 8270 8270 8272 8273 8269 8272 8269 8272 8270 8271 8271 8272 8273 8275 8277 8278 8282 8283 8285 8286 8282 8282 8274 
8288 8285 8291 8283 8290 8289 8281 8280 8279 8285 8283 8281 8279 8279 8276 8281 8278 8277 8277 8281 8284 8288 8287 8282 8282 8283 8281 8285 8288 8282 8287 8291 8289 8290 8287 8290 8290 8293 8296 8297 8293 8290 8286 8284 8289 8286 8282 8280 8280 8278 8278 8278 8276 8277 8275 8272 8271 8269 8270 8270 8272 8270 8275 8268 8271 8269 8271 8271 8272 8271 8273 8271 8274 8278 8280 8278 8284 8281 8283 8278 
8263 8271 8277 8270 8283 8278 8275 8279 8274 8277 8281 8276 8272 8278 8276 8272 8281 8278 8276 8278 8280 8282 8281 8277 8284 8282 8284 8282 8283 8276 8283 8284 8289 8289 8288 8286 8290 8291 8296 8295 8289 8288 8282 8285 8283 8281 8280 8280 8280 8280 8278 8279 8277 8277 8276 8276 8270 8270 8269 8267 8271 8269 8271 8267 8266 8265 8266 8269 8269 8271 8273 8268 8268 8274 8273 8271 8281 8279 8278 8275 
8282 8267 8283 8269 8284 8281 8284 8281 8283 8279 8275 8267 8276 8276 8271 8274 8278 8273 8275 8275 8277 8275 8267 8279 8282 8281 8282 8285 8282 8281 8281 8282 8284 8284 8287 8288 8291 8290 8292 8290 8286 8280 8283 8282 8279 8279 8278 8277 8276 8274 8274 8276 8276 8273 8275 8274 8270 8269 8268 8268 8271 8270 8266 8265 8263 8264 8261 8267 8268 8265 8265 8265 8264 8263 8264 8262 8273 8274 8273 8268 
8280 8268 8282 8274 8279 8281 8283 8276 8275 8278 8276 8265 8269 8275 8267 8270 8275 8270 8273 8273 8272 8275 8267 8273 8277 8282 8280 8281 8280 8278 8279 8282 8282 8284 8284 8288 8289 8288 8290 8291 8288 8284 8280 8280 8278 8280 8274 8282 8275 8279 8275 8274 8271 8276 8277 8276 8271 8271 8271 8269 8269 8269 8269 8266 8261 8260 8260 8260 8263 8265 8263 8263 8261 8259 8259 8260 8262 8264 8267 8259 
8286 8271 8274 8271 8278 8281 8283 8284 8276 8280 8265 8270 8274 8271 8267 8270 8276 8266 8274 8278 8276 8272 8274 8270 8279 8281 8279 8277 8280 8277 8280 8279 8282 8281 8281 8284 8287 8287 8287 8290 8287 8280 8280 8276 8273 8278 8274 8276 8272 8276 8272 8278 8271 8273 8275 8275 8272 8272 8266 8270 8269 8270 8265 8266 8260 8264 8259 8256 8259 8263 8261 8259 8261 8256 8252 8253 8254 8256 8257 8255 
8287 8274 8278 8278 8276 8276 8287 8285 8271 8266 8259 8276 8273 8265 8267 8269 8269 8270 8272 8278 8272 8276 8274 8275 8282 8282 8271 8272 8278 8277 8277 8278 8280 8280 8281 8282 8285 8286 8286 8288 8285 8281 8278 8277 8278 8279 8275 8275 8274 8281 8272 8273 8268 8270 8274 8278 8272 8267 8269 8271 8265 8268 8263 8262 8257 8262 8257 8260 8253 8253 8256 8262 8256 8256 8252 8255 8251 8250 8251 8254 
8285 8277 8266 8283 8275 8280 8283 8290 8287 8262 8272 8276 8271 8267 8271 8267 8271 8271 8270 8272 8276 8273 8275 8278 8278 8273 8267 8273 8274 8272 8279 8280 8280 8284 8281 8282 8282 8283 8286 8284 8282 8276 8278 8276 8273 8280 8272 8271 8270 8270 8269 8270 8271 8269 8273 8271 8267 8271 8265 8266 8262 8264 8263 8262 8257 8267 8262 8263 8257 8255 8251 8256 8253 8252 8247 8247 8246 8247 8246 8248 
8287 8271 8270 8272 8278 8275 8283 8281 8275 8265 8268 8268 8266 8269 8265 8266 8268 8268 8273 8278 8274 8269 8270 8271 8270 8278 8270 8271 8273 8273 8272 8277 8279 8280 8280 8283 8282 8281 8285 8284 8278 8277 8275 8277 8276 8277 8270 8276 8270 8272 8271 8267 8272 8268 8273 8269 8269 8269 8264 8264 8267 8262 8261 8259 8257 8261 8254 8259 8255 8254 8253 8254 8251 8248 8248 8249 8248 8249 8245 8248 
8291 8262 8277 8278 8278 8280 8271 8279 8276 8274 8270 8271 8268 8267 8265 8259 8265 8266 8273 8278 8272 8270 8269 8267 8268 8271 8270 8273 8271 8269 8273 8274 8274 8273 8278 8282 8282 8280 8284 8283 8276 8272 8273 8270 8271 8274 8273 8272 8267 8265 8266 8267 8268 8269 8270 8265 8268 8268 8267 8268 8268 8263 8263 8261 8256 8258 8253 8262 8254 8257 8249 8249 8246 8246 8244 8241 8241 8246 8244 8242 
8286 8264 8272 8271 8277 8276 8265 8277 8274 8264 8266 8263 8270 8265 8261 8263 8268 8262 8264 8271 8270 8269 8268 8266 8265 8269 8274 8275 8274 8269 8273 8268 8273 8276 8273 8278 8277 8282 8281 8279 8275 8275 8271 8273 8275 8274 8273 8272 8273 8271 8267 8268 8268 8268 8268 8266 8266 8262 8266 8264 8265 8260 8260 8254 8252 8257 8256 8256 8251 8256 8253 8251 8245 8247 8242 8247 8242 8245 8238 8238 
8277 8277 8275 8271 8266 8276 8264 8273 8274 8265 8271 8263 8268 8264 8266 8262 8264 8263 8263 8270 8272 8270 8266 8268 8269 8269 8268 8270 8273 8265 8274 8269 8270 8274 8267 8277 8275 8278 8276 8277 8270 8270 8273 8273 8273 8275 8271 8270 8266 8267 8269 8272 8268 8268 8268 8263 8267 8261 8268 8264 8266 8263 8260 8255 8251 8253 8255 8255 8254 8253 8249 8246 8245 8242 8238 8237 8241 8242 8237 8232 
8284 8272 8265 8260 8260 8273 8271 8260 8266 8266 8266 8260 8263 8259 8265 8265 8263 8263 8266 8268 8267 8268 8264 8268 8269 8268 8268 8271 8270 8270 8270 8268 8272 8271 8268 8270 8274 8279 8276 8275 8271 8270 8273 8274 8275 8275 8272 8273 8264 8269 8268 8266 8267 8269 8270 8264 8264 8261 8264 8262 8261 8259 8255 8253 8254 8253 8258 8255 8256 8252 8253 8249 8248 8244 8241 8244 8249 8247 8240 8240 
8282 8280 8278 8274 8274 8272 8272 8274 8263 8271 8273 8267 8262 8259 8266 8263 8267 8267 8265 8269 8263 8266 8263 8266 8262 8268 8267 8266 8265 8261 8271 8264 8267 8272 8269 8270 8271 8275 8273 8273 8267 8267 8271 8269 8270 8271 8266 8265 8262 8265 8264 8267 8268 8267 8270 8263 8261 8261 8263 8262 8263 8259 8258 8253 8254 8257 8258 8257 8258 8252 8251 8247 8248 8244 8239 8245 8244 8244 8239 8240 
8287 8267 8275 8274 8271 8272 8268 8273 8265 8264 8270 8266 8265 8264 8267 8267 8265 8265 8268 8270 8261 8266 8263 8263 8262 8265 8267 8266 8266 8264 8266 8265 8267 8266 8267 8270 8271 8271 8270 8269 8269 8265 8267 8268 8266 8268 8264 8265 8263 8266 8266 8267 8266 8266 8268 8265 8265 8266 8261 8261 8261 8256 8255 8255 8258 8257 8262 8257 8258 8252 8255 8255 8250 8248 8244 8242 8244 8243 8240 8240 
8291 8256 8266 8274 8273 8264 8263 8271 8265 8271 8272 8266 8265 8268 8268 8269 8265 8266 8268 8272 8261 8267 8260 8265 8265 8271 8265 8268 8270 8264 8262 8266 8262 8265 8263 8270 8268 8266 8270 8268 8268 8265 8264 8265 8266 8263 8263 8258 8258 8258 8264 8263 8265 8264 8265 8265 8262 8263 8259 8259 8260 8257 8256 8254 8260 8259 8263 8257 8258 8251 8253 8249 8250 8246 8244 8247 8247 8244 8242 8243 
8286 8255 8262 8271 8268 8265 8264 8266 8264 8271 8265 8268 8259 8260 8257 8267 8264 8268 8266 8271 8262 8266 8266 8264 8265 8265 8265 8266 8265 8263 8263 8265 8266 8266 8265 8268 8270 8268 8268 8265 8262 8261 8260 8264 8265 8257 8261 8254 8257 8259 8262 8263 8263 8261 8261 8262 8262 8262 8261 8261 8259 8257 8251 8256 8257 8258 8262 8256 8257 8254 8254 8251 8252 8251 8249 8248 8248 8246 8246 8243 
8285 8261 8272 8265 8267 8271 8266 8273 8261 8277 8265 8267 8269 8269 8263 8267 8263 8265 8265 8265 8265 8268 8266 8261 8263 8269 8271 8265 8269 8261 8265 8265 8265 8264 8263 8266 8262 8261 8264 8262 8256 8261 8256 8264 8260 8257 8258 8253 8257 8256 8259 8260 8258 8258 8261 8259 8259 8258 8260 8259 8255 8265 8255 8258 8257 8256 8262 8256 8260 8252 8252 8255 8254 8252 8248 8252 8248 8245 8247 8245 
8280 8262 8269 8265 8269 8271 8270 8276 8269 8267 8264 8269 8265 8269 8263 8268 8261 8267 8262 8264 8261 8268 8265 8266 8266 8264 8268 8265 8264 8260 8259 8262 8262 8261 8259 8255 8235 8219 8227 8252 8257 8255 8255 8256 8257 8251 8252 8253 8254 8255 8261 8258 8258 8255 8256 8259 8259 8258 8260 8259 8258 8255 8256 8257 8258 8256 8257 8256 8259 8255 8257 8256 8258 8255 8249 8254 8249 8248 8247 8246 
8277 8263 8269 8267 8262 8275 8270 8277 8271 8268 8271 8271 8262 8265 8262 8267 8262 8265 8262 8268 8258 8269 8265 8264 8265 8262 8269 8264 8264 8259 8258 8258 8243 8231 8215 8207 8198 8214 8190 8238 8251 8249 8237 8216 8213 8204 8211 8218 8233 8250 8258 8261 8257 8255 8259 8257 8259 8258 8257 8249 8254 8258 8257 8259 8256 8255 8256 8259 8258 8255 8254 8256 8255 8254 8253 8253 8251 8253 8247 8247 
8284 8270 8261 8260 8261 8264 8261 8273 8269 8266 8264 8264 8263 8260 8253 8265 8263 8264 8258 8262 8258 8265 8262 8262 8262 8260 8259 8264 8261 8257 8257 8236 8224 8235 8240 8238 8195 8194 8212 8242 8232 8216 8203 8202 8201 8203 8195 8200 8224 8247 8249 8254 8253 8255 8260 8258 8258 8256 8257 8254 8253 8255 8253 8256 8256 8255 8255 8257 8254 8259 8257 8257 8255 8258 8250 8257 8248 8252 8251 8248 
8280 8274 8264 8276 8272 8271 8254 8272 8260 8271 8262 8259 8265 8265 8254 8264 8260 8257 8255 8256 8262 8263 8263 8262 8260 8263 8260 8269 8261 8256 8249 8236 8254 8253 8254 8245 8204 8179 8188 8184 8203 8197 8205 8229 8245 8248 8241 8227 8207 8213 8233 8250 8253 8255 8259 8258 8259 8256 8253 8249 8252 8257 8256 8260 8257 8259 8260 8260 8258 8257 8255 8254 8257 8255 8254 8254 8253 8255 8251 8248 
8281 8270 8267 8273 8266 8266 8254 8249 8255 8264 8265 8260 8259 8261 8256 8256 8255 8250 8252 8259 8258 8261 8257 8259 8261 8258 8259 8260 8258 8252 8253 8250 8255 8254 8233 8201 8181 8197 8187 8183 8209 8219 8247 8250 8250 8251 8248 8248 8238 8204 8200 8224 8247 8254 8258 8255 8257 8256 8259 8252 8253 8256 8254 8258 8255 8256 8258 8257 8256 8254 8252 8252 8255 8250 8255 8251 8253 8256 8251 8251 
8279 8272 8266 8269 8269 8270 8262 8252 8263 8264 8270 8258 8262 8260 8260 8258 8254 8259 8253 8260 8257 8254 8246 8230 8221 8231 8239 8231 8221 8202 8205 8240 8252 8242 8241 8203 8178 8193 8184 8205 8207 8248 8250 8255 8251 8247 8245 8245 8246 8242 8216 8191 8237 8249 8257 8254 8258 8256 8251 8253 8251 8256 8255 8263 8258 8261 8259 8258 8256 8256 8255 8252 8255 8250 8254 8254 8254 8258 8250 8249 
8281 8261 8269 8273 8266 8264 8260 8265 8265 8257 8260 8258 8265 8260 8260 8262 8258 8260 8252 8247 8230 8192 8180 8176 8192 8189 8181 8173 8178 8186 8219 8221 8217 8204 8196 8220 8194 8174 8177 8196 8242 8255 8251 8248 8246 8243 8244 8246 8245 8245 8249 8221 8209 8238 8256 8253 8259 8257 8252 8255 8253 8254 8253 8258 8257 8261 8259 8259 8256 8254 8254 8254 8254 8250 8253 8249 8251 8252 8252 8251 
8284 8258 8263 8272 8269 8258 8267 8252 8250 8261 8261 8261 8259 8262 8261 8259 8256 8250 8236 8211 8202 8184 8189 8208 8239 8230 8193 8203 8228 8222 8206 8203 8193 8219 8230 8238 8209 8208 8190 8229 8243 8240 8229 8218 8194 8188 8191 8199 8211 8223 8241 8241 8237 8232 8245 8246 8253 8250 8256 8253 8252 8249 8256 8259 8257 8259 8258 8257 8253 8251 8252 8254 8253 8249 8253 8253 8249 8255 8252 8251 
8275 8263 8255 8268 8261 8265 8258 8255 8259 8258 8256 8260 8260 8261 8257 8256 8245 8226 8219 8231 8247 8242 8245 8253 8251 8250 8252 8255 8259 8254 8247 8239 8214 8201 8227 8241 8221 8220 8191 8198 8189 8199 8196 8206 8187 8203 8195 8188 8179 8185 8192 8216 8231 8244 8222 8194 8208 8226 8245 8253 8252 8253 8255 8253 8255 8257 8253 8253 8250 8253 8250 8250 8251 8248 8250 8253 8255 8254 8255 8255 
8278 8268 8268 8268 8266 8256 8259 8262 8257 8262 8255 8259 8262 8254 8252 8244 8220 8236 8247 8254 8253 8253 8257 8259 8251 8258 8255 8262 8259 8255 8253 8255 8252 8241 8214 8206 8216 8199 8198 8225 8232 8222 8202 8195 8227 8241 8238 8229 8215 8184 8175 8211 8235 8241 8205 8192 8196 8202 8235 8253 8252 8251 8255 8254 8258 8257 8260 8253 8250 8246 8249 8247 8252 8251 8252 8255 8254 8257 8253 8256 
8271 8257 8261 8268 8261 8265 8259 8265 8260 8268 8262 8266 8262 8253 8249 8224 8238 8255 8257 8255 8255 8256 8258 8257 8255 8255 8259 8263 8260 8254 8251 8254 8252 8251 8253 8230 8200 8188 8194 8213 8202 8181 8198 8195 8201 8239 8247 8247 8245 8232 8197 8214 8247 8235 8197 8196 8203 8205 8238 8246 8253 8250 8255 8253 8252 8256 8249 8247 8248 8248 8249 8247 8248 8249 8248 8255 8250 8261 8254 8252 
8271 8258 8262 8264 8260 8271 8268 8262 8263 8259 8264 8266 8259 8243 8226 8247 8252 8258 8251 8255 8252 8257 8252 8256 8258 8254 8259 8259 8255 8255 8251 8252 8256 8254 8251 8248 8231 8196 8217 8240 8194 8208 8239 8244 8225 8229 8241 8243 8236 8242 8242 8238 8250 8222 8200 8202 8209 8215 8243 8244 8251 8248 8255 8253 8253 8259 8251 8248 8244 8244 8245 8249 8248 8249 8250 8250 8246 8261 8253 8253 
8272 8260 8266 8268 8264 8273 8255 8265 8265 8257 8265 8253 8255 8249 8257 8258 8256 8254 8254 8252 8249 8257 8256 8260 8255 8253 8258 8262 8257 8255 8254 8254 8255 8248 8238 8233 8237 8203 8217 8221 8194 8230 8243 8248 8243 8242 8239 8243 8238 8250 8248 8248 8247 8202 8203 8205 8207 8220 8244 8243 8246 8250 8254 8253 8252 8251 8246 8246 8245 8247 8246 8250 8247 8250 8249 8250 8257 8261 8254 8254 
8278 8259 8265 8261 8253 8269 8253 8263 8263 8258 8252 8257 8255 8252 8252 8251 8254 8250 8248 8253 8253 8255 8254 8260 8254 8254 8254 8258 8255 8254 8247 8244 8235 8211 8176 8172 8175 8185 8202 8183 8174 8178 8204 8229 8241 8245 8243 8243 8242 8245 8243 8246 8235 8200 8205 8204 8207 8237 8249 8245 8245 8244 8250 8249 8248 8251 8244 8246 8242 8246 8245 8246 8245 8248 8249 8249 8254 8255 8250 8252 
8275 8262 8260 8262 8252 8269 8255 8260 8263 8263 8255 8258 8253 8255 8256 8255 8258 8254 8251 8252 8249 8255 8257 8259 8254 8256 8254 8256 8255 8249 8223 8192 8175 8166 8166 8165 8164 8169 8175 8175 8173 8172 8173 8181 8189 8219 8241 8243 8244 8247 8247 8248 8220 8200 8202 8201 8212 8240 8246 8244 8245 8243 8246 8247 8247 8246 8243 8247 8247 8248 8245 8246 8246 8246 8247 8251 8250 8248 8253 8250 
8281 8260 8275 8267 8265 8266 8254 8262 8260 8257 8259 8253 8247 8253 8250 8246 8253 8254 8256 8248 8250 8256 8252 8256 8255 8255 8253 8256 8250 8212 8190 8198 8168 8161 8165 8165 8164 8169 8174 8191 8202 8184 8175 8175 8180 8186 8199 8235 8241 8243 8244 8240 8206 8198 8205 8206 8225 8242 8243 8244 8246 8240 8245 8245 8245 8246 8243 8244 8244 8247 8247 8246 8245 8247 8247 8247 8253 8255 8249 8250 
8281 8267 8270 8262 8267 8261 8263 8269 8261 8257 8264 8261 8258 8256 8262 8255 8257 8259 8257 8257 8254 8255 8249 8251 8255 8254 8250 8251 8243 8230 8228 8180 8193 8183 8166 8166 8167 8172 8179 8205 8232 8232 8220 8199 8182 8179 8179 8211 8234 8247 8247 8234 8202 8205 8207 8207 8235 8243 8243 8241 8247 8244 8247 8246 8246 8242 8242 8245 8242 8246 8246 8245 8247 8248 8249 8250 8251 8252 8250 8249 
8288 8270 8270 8269 8266 8261 8266 8265 8264 8250 8252 8258 8259 8253 8255 8253 8255 8259 8254 8260 8258 8255 8252 8254 8253 8248 8249 8249 8248 8234 8200 8215 8207 8171 8164 8165 8169 8172 8173 8195 8234 8241 8238 8240 8229 8217 8218 8206 8204 8244 8239 8228 8205 8211 8214 8214 8245 8244 8244 8242 8247 8245 8246 8245 8245 8245 8242 8243 8246 8245 8244 8246 8246 8244 8247 8248 8255 8256 8250 8249 
8285 8270 8268 8265 8266 8265 8268 8263 8264 8256 8259 8264 8268 8258 8257 8261 8258 8254 8256 8257 8256 8256 8256 8252 8250 8246 8251 8247 8251 8230 8230 8235 8231 8199 8165 8166 8171 8163 8167 8182 8219 8232 8239 8246 8244 8245 8240 8238 8231 8244 8240 8221 8210 8218 8217 8228 8245 8242 8245 8242 8247 8243 8246 8243 8243 8245 8248 8240 8242 8241 8243 8247 8247 8246 8251 8251 8251 8250 8250 8249 
8282 8267 8269 8269 8265 8265 8267 8260 8263 8261 8263 8266 8262 8256 8261 8257 8254 8255 8254 8257 8257 8257 8255 8253 8251 8252 8250 8250 8248 8239 8226 8209 8194 8170 8163 8168 8166 8158 8165 8166 8164 8180 8202 8214 8239 8243 8244 8237 8242 8240 8230 8213 8213 8218 8217 8239 8250 8244 8247 8242 8240 8239 8241 8241 8246 8243 8248 8244 8245 8238 8241 8245 8242 8248 8250 8247 8253 8256 8248 8245 
8283 8269 8265 8269 8269 8274 8266 8265 8263 8262 8266 8262 8263 8260 8261 8254 8255 8257 8255 8258 8252 8249 8252 8257 8254 8250 8248 8248 8232 8195 8179 8165 8153 8157 8163 8165 8170 8161 8157 8161 8155 8173 8170 8177 8192 8226 8238 8231 8240 8239 8226 8215 8219 8221 8225 8242 8244 8243 8243 8237 8237 8238 8241 8243 8244 8244 8253 8247 8244 8246 8242 8244 8244 8245 8245 8251 8251 8252 8248 8248 
8279 8273 8280 8273 8269 8271 8270 8262 8266 8265 8268 8260 8259 8256 8254 8253 8252 8256 8256 8255 8253 8253 8252 8256 8252 8247 8239 8204 8179 8168 8171 8159 8155 8158 8157 8186 8185 8160 8159 8158 8156 8180 8174 8172 8171 8193 8227 8237 8236 8233 8214 8214 8218 8223 8232 8244 8245 8240 8241 8236 8236 8239 8238 8242 8239 8244 8244 8243 8245 8246 8239 8244 8243 8246 8247 8251 8248 8248 8247 8246 
8283 8272 8282 8262 8267 8278 8262 8269 8263 8262 8259 8264 8257 8255 8261 8260 8252 8259 8261 8264 8261 8256 8255 8255 8251 8235 8195 8170 8166 8168 8186 8154 8155 8171 8176 8229 8228 8177 8158 8161 8164 8174 8180 8174 8173 8178 8211 8234 8239 8230 8212 8218 8220 8221 8238 8241 8244 8240 8243 8237 8240 8241 8241 8243 8245 8249 8245 8240 8241 8248 8243 8244 8245 8250 8249 8252 8248 8249 8245 8241 
8279 8267 8277 8259 8265 8271 8258 8259 8265 8264 8261 8266 8263 8261 8265 8262 8255 8260 8261 8261 8259 8254 8252 8253 8246 8200 8172 8174 8172 8183 8218 8181 8175 8214 8203 8223 8235 8195 8160 8161 8183 8209 8198 8177 8180 8184 8206 8234 8236 8220 8215 8213 8218 8223 8245 8242 8246 8238 8237 8239 8246 8243 8247 8244 8244 8250 8241 8246 8245 8245 8245 8244 8245 8249 8248 8253 8248 8254 8247 8244 
8282 8268 8268 8262 8261 8269 8262 8265 8268 8266 8269 8259 8266 8264 8261 8253 8259 8262 8255 8257 8261 8255 8255 8255 8236 8202 8188 8175 8181 8212 8227 8210 8229 8224 8191 8181 8200 8195 8170 8167 8218 8237 8214 8183 8189 8193 8198 8230 8235 8214 8220 8216 8221 8230 8240 8241 8242 8238 8244 8241 8246 8244 8247 8249 8245 8250 8244 8245 8241 8244 8246 8249 8248 8248 8255 8251 8249 8248 8246 8244 
8277 8271 8272 8266 8270 8262 8266 8264 8269 8271 8264 8268 8269 8270 8257 8256 8259 8255 8248 8255 8255 8247 8242 8240 8237 8222 8186 8181 8190 8220 8223 8219 8223 8194 8174 8181 8197 8194 8191 8177 8231 8237 8231 8216 8195 8196 8195 8216 8231 8211 8218 8216 8219 8243 8246 8245 8242 8240 8242 8242 8246 8245 8247 8251 8246 8252 8242 8241 8242 8248 8246 8247 8249 8249 8253 8250 8253 8256 8245 8249 
8284 8278 8270 8261 8264 8267 8267 8257 8271 8269 8265 8258 8262 8264 8265 8257 8263 8264 8246 8242 8245 8238 8239 8237 8233 8232 8217 8217 8221 8230 8230 8232 8235 8226 8204 8177 8177 8192 8206 8199 8236 8254 8249 8234 8202 8196 8212 8213 8213 8219 8219 8222 8227 8255 8244 8243 8242 8240 8245 8244 8245 8243 8245 8248 8246 8246 8243 8246 8244 8244 8245 8247 8250 8252 8251 8248 8247 8249 8246 8246 
8283 8272 8267 8269 8268 8265 8269 8267 8265 8266 8265 8257 8268 8264 8265 8269 8270 8256 8236 8237 8248 8249 8245 8239 8235 8236 8234 8233 8236 8236 8248 8251 8240 8192 8184 8177 8181 8199 8213 8216 8235 8253 8260 8252 8204 8198 8223 8242 8214 8220 8222 8222 8246 8261 8253 8249 8245 8241 8244 8244 8245 8243 8245 8247 8246 8247 8244 8245 8246 8246 8246 8247 8248 8252 8248 8249 8254 8254 8247 8248 
8287 8278 8263 8274 8272 8270 8274 8267 8264 8260 8263 8268 8268 8268 8263 8268 8270 8262 8242 8239 8252 8248 8246 8243 8239 8238 8236 8237 8241 8243 8254 8258 8212 8180 8180 8175 8167 8185 8212 8220 8236 8258 8261 8259 8222 8219 8246 8255 8219 8225 8221 8229 8265 8276 8245 8242 8239 8241 8243 8243 8246 8244 8243 8246 8243 8244 8243 8241 8244 8247 8245 8248 8249 8250 8248 8249 8248 8251 8249 8252 
8282 8282 8272 8275 8268 8269 8270 8269 8277 8275 8276 8264 8270 8252 8271 8272 8274 8263 8253 8238 8236 8229 8230 8245 8247 8238 8236 8239 8245 8244 8250 8233 8201 8195 8178 8172 8170 8190 8205 8218 8237 8261 8268 8270 8244 8227 8256 8240 8220 8225 8225 8255 8290 8276 8245 8245 8241 8240 8240 8241 8241 8241 8241 8243 8242 8248 8243 8246 8246 8250 8246 8251 8249 8250 8253 8254 8251 8253 8250 8250 
8289 8274 8281 8281 8270 8277 8277 8271 8277 8266 8269 8269 8273 8262 8273 8266 8270 8261 8257 8238 8227 8209 8214 8210 8222 8221 8219 8226 8231 8228 8231 8214 8210 8211 8188 8185 8185 8203 8211 8217 8227 8244 8254 8254 8244 8237 8238 8229 8221 8234 8232 8264 8285 8258 8242 8244 8242 8241 8243 8241 8243 8242 8243 8245 8240 8241 8243 8239 8241 8246 8246 8250 8247 8253 8254 8251 8251 8253 8250 8248 
8285 8269 8280 8273 8269 8275 8277 8268 8274 8265 8272 8272 8273 8272 8266 8265 8265 8271 8272 8249 8224 8222 8219 8213 8218 8219 8215 8216 8210 8206 8215 8212 8215 8210 8213 8209 8213 8213 8212 8218 8220 8223 8223 8230 8228 8230 8228 8231 8229 8233 8237 8251 8261 8254 8239 8239 8242 8242 8241 8240 8239 8242 8242 8242 8236 8242 8243 8243 8250 8251 8247 8251 8253 8252 8256 8252 8251 8254 8252 8251 
8285 8268 8274 8269 8277 8269 8278 8268 8269 8271 8275 8266 8269 8274 8270 8273 8267 8264 8273 8249 8233 8225 8221 8228 8212 8215 8213 8211 8216 8216 8216 8213 8214 8215 8221 8217 8217 8223 8221 8222 8220 8222 8228 8226 8235 8235 8240 8239 8244 8249 8251 8267 8262 8249 8241 8243 8244 8240 8242 8235 8244 8242 8242 8237 8235 8243 8243 8250 8249 8254 8249 8252 8252 8254 8253 8255 8251 8254 8250 8248 
8284 8274 8271 8270 8274 8275 8269 8280 8262 8263 8274 8265 8274 8271 8269 8262 8265 8267 8275 8260 8254 8235 8239 8234 8220 8228 8225 8219 8222 8222 8213 8225 8222 8214 8221 8220 8218 8223 8229 8229 8225 8225 8230 8233 8241 8244 8244 8248 8252 8264 8273 8278 8258 8247 8240 8241 8241 8236 8240 8239 8242 8240 8240 8236 8237 8241 8241 8242 8247 8249 8252 8254 8248 8254 8253 8254 8249 8258 8251 8249 
8283 8271 8276 8279 8273 8266 8264 8281 8276 8269 8260 8265 8262 8272 8274 8256 8267 8273 8266 8265 8257 8253 8245 8239 8234 8234 8233 8234 8228 8219 8223 8227 8223 8220 8227 8224 8228 8227 8229 8235 8230 8230 8233 8242 8247 8249 8263 8284 8297 8302 8282 8263 8245 8245 8241 8241 8241 8237 8239 8241 8242 8239 8241 8235 8239 8241 8241 8240 8247 8250 8248 8252 8252 8254 8254 8251 8248 8249 8253 8252 
8277 8269 8278 8272 8279 8276 8273 8279 8262 8269 8261 8270 8261 8275 8272 8265 8267 8274 8267 8263 8264 8253 8249 8246 8242 8237 8237 8240 8228 8228 8231 8232 8228 8237 8236 8237 8238 8235 8238 8236 8234 8237 8240 8251 8255 8266 8294 8303 8313 8310 8286 8269 8246 8240 8241 8242 8240 8234 8241 8237 8244 8241 8241 8242 8239 8242 8236 8244 8244 8244 8247 8253 8251 8252 8249 8250 8247 8248 8255 8252 
8286 8281 8275 8275 8268 8268 8274 8271 8257 8275 8266 8272 8268 8279 8271 8272 8268 8264 8269 8265 8266 8261 8247 8249 8247 8240 8239 8239 8239 8232 8232 8233 8235 8238 8242 8242 8245 8245 8244 8244 8243 8247 8252 8260 8266 8273 8277 8286 8294 8292 8281 8272 8243 8236 8238 8236 8240 8232 8234 8238 8242 8236 8237 8237 8238 8235 8234 8239 8244 8249 8246 8248 8247 8251 8246 8251 8246 8250 8250 8246 
8284 8277 8283 8274 8268 8266 8272 8269 8260 8275 8272 8267 8277 8272 8270 8266 8270 8265 8265 8263 8272 8269 8258 8252 8250 8234 8244 8245 8247 8240 8234 8241 8245 8241 8250 8253 8250 8246 8248 8251 8253 8256 8261 8269 8274 8275 8273 8279 8279 8279 8280 8264 8239 8239 8238 8240 8239 8236 8236 8236 8233 8233 8239 8238 8243 8242 8241 8238 8240 8242 8249 8250 8247 8248 8249 8247 8242 8248 8243 8248 
8275 8265 8281 8271 8263 8264 8272 8257 8267 8274 8272 8258 8270 8271 8269 8263 8261 8271 8260 8265 8270 8270 8268 8269 8259 8242 8234 8252 8256 8251 8246 8239 8249 8245 8253 8264 8260 8254 8252 8256 8254 8261 8265 8269 8278 8269 8278 8275 8280 8282 8279 8261 8233 8231 8237 8233 8235 8237 8233 8231 8233 8231 8238 8237 8235 8240 8237 8244 8241 8242 8247 8246 8245 8249 8242 8247 8242 8245 8239 8240 
8292 8287 8291 8280 8291 8272 8277 8256 8261 8260 8262 8256 8260 8263 8272 8261 8261 8265 8264 8266 8260 8265 8273 8272 8275 8264 8265 8265 8264 8257 8251 8256 8252 8252 8247 8255 8260 8256 8257 8261 8262 8260 8262 8275 8280 8275 8279 8279 8277 8278 8274 8254 8227 8229 8235 8227 8227 8226 8228 8227 8229 8231 8233 8231 8237 8237 8238 8242 8244 8242 8247 8240 8239 8237 8238 8240 8239 8232 8238 8232 
8311 8298 8295 8299 8296 8279 8267 8268 8253 8243 8254 8240 8237 8256 8250 8240 8245 8254 8254 8247 8261 8253 8271 8273 8285 8275 8276 8272 8275 8274 8273 8257 8257 8261 8251 8260 8262 8266 8264 8271 8269 8274 8273 8275 8277 8278 8286 8282 8281 8280 8268 8238 8228 8224 8225 8224 8228 8225 8230 8230 8230 8230 8230 8232 8233 8237 8241 8243 8243 8247 8242 8243 8241 8234 8240 8242 8239 8231 8231 8233 
8316 8304 8297 8289 8291 8277 8271 8270 8254 8245 8241 8235 8246 8250 8246 8233 8232 8240 8234 8238 8246 8251 8271 8279 8277 8276 8279 8282 8278 8278 8272 8266 8266 8265 8266 8269 8268 8275 8271 8278 8281 8282 8283 8281 8284 8285 8291 8287 8286 8288 8273 8239 8232 8228 8232 8230 8232 8235 8236 8242 8246 8247 8247 8242 8246 8246 8250 8255 8253 8253 8249 8248 8247 8244 8242 8238 8238 8238 8236 8235 


