P2
80 60
8307
8279 8265 8277 8272 8278 8278 8269 8264 8276 8268 8274 8277 8278 8275 8275 8277 8270 8267 8268 8270 8277 8282 8281 8275 8277 8283 8281 8274 8275 8280 8281 8286 8289 8282 8287 8286 8287 8280 8281 8284 8284 8281 8274 8277 8274 8282 8283 8283 8279 8273 8269 8270 8268 8262 8263 8260 8261 8255 8260 8261 8257 8254 8255 8257 8258 8257 8259 8259 8257 8255 8260 8265 8265 8271 8272 8272 8271 8275 8274 8270 
8277 8274 8285 8277 8278 8281 8268 8267 8267 8274 8270 8276 8272 8275 8271 8278 8269 8269 8267 8273 8279 8283 8282 8274 8280 8278 8272 8273 8275 8274 8280 8283 8282 8281 8282 8281 8277 8284 8287 8282 8282 8283 8270 8271 8269 8278 8274 8275 8273 8276 8266 8269 8267 8269 8263 8265 8260 8254 8259 8258 8258 8255 8256 8255 8257 8254 8256 8259 8260 8259 8260 8254 8263 8265 8266 8271 8273 8272 8273 8270 
8252 8261 8268 8261 8273 8269 8265 8271 8264 8267 8272 8273 8267 8275 8274 8270 8268 8266 8264 8271 8270 8274 8277 8271 8274 8280 8276 8273 8271 8272 8274 8278 8277 8281 8280 8275 8277 8282 8281 8281 8279 8275 8269 8271 8272 8274 8271 8271 8269 8270 8266 8263 8260 8266 8265 8264 8262 8259 8260 8254 8257 8258 8253 8252 8252 8250 8252 8255 8258 8260 8256 8252 8258 8262 8258 8256 8269 8268 8271 8269 
8274 8255 8278 8263 8272 8267 8271 8268 8271 8273 8262 8259 8269 8271 8267 8271 8266 8266 8264 8264 8267 8262 8259 8275 8271 8274 8275 8275 8271 8274 8268 8275 8278 8274 8277 8273 8279 8281 8277 8279 8275 8267 8273 8264 8267 8262 8272 8275 8270 8266 8264 8262 8263 8261 8263 8264 8256 8257 8256 8252 8257 8257 8251 8252 8252 8246 8249 8252 8256 8254 8253 8257 8253 8259 8254 8253 8263 8263 8267 8263 
8271 8257 8275 8264 8271 8277 8270 8268 8262 8272 8264 8260 8264 8264 8260 8268 8265 8265 8264 8261 8263 8270 8261 8266 8269 8277 8272 8273 8265 8275 8269 8275 8275 8276 8273 8273 8275 8276 8276 8274 8273 8274 8268 8260 8263 8265 8264 8264 8265 8264 8262 8261 8258 8261 8264 8263 8257 8258 8259 8256 8256 8256 8253 8252 8245 8245 8244 8244 8254 8253 8247 8256 8253 8254 8243 8251 8257 8254 8256 8258 
8274 8266 8265 8263 8264 8268 8270 8267 8265 8269 8253 8264 8267 8262 8259 8265 8263 8260 8263 8267 8266 8264 8267 8265 8273 8277 8270 8266 8262 8269 8273 8270 8271 8264 8253 8248 8259 8266 8268 8276 8275 8267 8269 8259 8261 8265 8264 8270 8266 8267 8265 8261 8262 8262 8261 8264 8259 8260 8258 8258 8257 8257 8256 8248 8244 8246 8245 8240 8245 8253 8247 8247 8253 8242 8244 8247 8250 8241 8252 8252 
8275 8269 8269 8271 8271 8267 8278 8276 8260 8258 8250 8273 8268 8258 8264 8269 8257 8258 8264 8267 8261 8269 8271 8271 8274 8272 8260 8259 8261 8268 8271 8273 8267 8246 8209 8196 8202 8228 8267 8273 8275 8269 8270 8265 8263 8263 8267 8265 8263 8265 8259 8257 8257 8257 8259 8262 8258 8255 8260 8258 8250 8252 8252 8245 8244 8243 8250 8250 8240 8239 8247 8251 8244 8241 8244 8245 8241 8240 8245 8246 
8276 8266 8259 8272 8265 8269 8271 8276 8270 8250 8264 8269 8265 8263 8263 8264 8260 8263 8263 8257 8269 8264 8270 8270 8270 8271 8257 8261 8259 8269 8272 8268 8261 8211 8186 8174 8169 8235 8266 8270 8269 8262 8264 8262 8258 8261 8265 8263 8261 8260 8255 8254 8260 8258 8259 8262 8259 8258 8253 8255 8246 8252 8252 8246 8245 8247 8250 8250 8243 8238 8239 8242 8241 8237 8241 8243 8237 8241 8241 8244 
8275 8262 8264 8268 8271 8269 8275 8270 8265 8250 8259 8263 8262 8263 8261 8262 8257 8257 8267 8262 8270 8258 8265 8263 8262 8267 8256 8257 8257 8260 8264 8265 8240 8188 8174 8166 8178 8246 8269 8264 8263 8261 8260 8259 8259 8263 8258 8259 8259 8256 8251 8254 8254 8256 8258 8254 8254 8258 8254 8250 8247 8242 8248 8243 8243 8239 8243 8246 8242 8243 8238 8238 8236 8239 8237 8240 8239 8241 8237 8236 
8283 8251 8268 8267 8266 8270 8260 8268 8266 8262 8257 8263 8257 8261 8259 8250 8257 8255 8265 8265 8261 8258 8263 8256 8255 8262 8257 8258 8259 8253 8256 8252 8230 8180 8171 8163 8187 8254 8265 8262 8263 8261 8261 8252 8254 8260 8264 8263 8260 8256 8250 8254 8254 8254 8255 8250 8253 8253 8254 8251 8250 8248 8250 8243 8239 8238 8239 8242 8238 8240 8242 8241 8238 8234 8235 8236 8238 8241 8234 8235 
8278 8255 8266 8265 8264 8268 8251 8262 8261 8255 8258 8256 8257 8262 8255 8256 8258 8249 8251 8256 8263 8258 8262 8262 8255 8254 8259 8257 8249 8224 8200 8202 8221 8203 8169 8162 8214 8257 8262 8261 8260 8258 8248 8257 8256 8261 8261 8256 8257 8252 8251 8251 8252 8257 8252 8246 8252 8245 8252 8251 8245 8246 8245 8237 8234 8234 8243 8238 8239 8238 8238 8237 8233 8236 8233 8228 8232 8238 8231 8231 
8268 8266 8265 8262 8255 8265 8252 8262 8259 8255 8253 8256 8255 8258 8256 8254 8251 8249 8249 8256 8259 8259 8255 8253 8249 8247 8246 8246 8228 8190 8166 8175 8183 8187 8168 8164 8226 8256 8260 8254 8258 8260 8256 8268 8258 8258 8261 8253 8257 8257 8257 8255 8253 8255 8250 8249 8252 8242 8254 8253 8243 8247 8242 8236 8231 8233 8243 8239 8235 8234 8238 8236 8232 8230 8228 8226 8237 8234 8231 8228 
8268 8262 8257 8253 8248 8264 8258 8249 8250 8250 8244 8232 8238 8246 8254 8255 8253 8250 8255 8250 8254 8258 8254 8237 8206 8203 8201 8196 8194 8183 8165 8156 8171 8178 8202 8181 8210 8257 8254 8248 8257 8253 8258 8258 8253 8259 8258 8254 8253 8253 8251 8252 8254 8255 8255 8250 8251 8247 8251 8253 8244 8241 8241 8235 8239 8234 8242 8244 8239 8233 8233 8232 8236 8228 8227 8233 8241 8231 8228 8230 
8274 8271 8268 8262 8260 8262 8260 8257 8239 8238 8223 8199 8192 8217 8247 8249 8254 8250 8251 8251 8253 8250 8230 8203 8189 8194 8192 8194 8189 8208 8182 8153 8157 8166 8176 8220 8241 8252 8237 8240 8249 8247 8255 8252 8250 8255 8256 8253 8252 8253 8253 8252 8254 8254 8256 8246 8251 8249 8249 8246 8241 8237 8240 8235 8240 8241 8242 8242 8240 8237 8238 8240 8242 8231 8224 8235 8234 8242 8231 8232 
8279 8258 8265 8266 8261 8261 8255 8256 8214 8193 8181 8176 8171 8179 8211 8244 8256 8247 8251 8246 8238 8220 8189 8185 8183 8198 8187 8185 8200 8214 8158 8150 8146 8155 8156 8174 8200 8203 8182 8187 8217 8231 8241 8239 8235 8243 8247 8251 8246 8247 8249 8249 8250 8257 8249 8252 8252 8251 8252 8247 8247 8241 8238 8240 8241 8243 8245 8242 8242 8237 8239 8239 8237 8233 8230 8230 8235 8234 8231 8238 
8279 8246 8256 8265 8259 8257 8250 8250 8214 8197 8175 8163 8155 8153 8170 8209 8241 8215 8195 8218 8208 8187 8179 8182 8179 8179 8188 8177 8189 8200 8191 8152 8156 8177 8174 8165 8165 8174 8180 8185 8190 8190 8187 8183 8175 8186 8213 8243 8238 8243 8244 8250 8248 8249 8246 8250 8247 8246 8247 8246 8243 8234 8236 8238 8246 8245 8238 8243 8237 8237 8244 8236 8239 8233 8230 8232 8233 8235 8232 8234 
8276 8246 8256 8267 8257 8254 8250 8247 8233 8218 8183 8170 8156 8173 8183 8199 8209 8194 8205 8222 8184 8183 8185 8182 8177 8185 8178 8156 8145 8159 8173 8158 8156 8169 8177 8161 8163 8180 8198 8201 8207 8200 8201 8180 8180 8167 8167 8192 8228 8238 8242 8243 8249 8245 8241 8244 8242 8245 8247 8245 8242 8234 8237 8238 8242 8242 8240 8246 8237 8237 8238 8236 8235 8240 8235 8235 8241 8239 8235 8236 
8274 8258 8259 8257 8253 8259 8254 8258 8246 8253 8236 8224 8220 8219 8215 8201 8178 8225 8241 8225 8187 8183 8182 8175 8176 8190 8174 8144 8180 8144 8144 8156 8161 8157 8153 8157 8172 8178 8176 8177 8209 8218 8229 8212 8183 8171 8175 8168 8193 8232 8240 8244 8243 8242 8241 8245 8242 8241 8241 8246 8241 8242 8239 8241 8239 8243 8244 8244 8239 8238 8234 8246 8240 8240 8238 8237 8235 8229 8235 8239 
8269 8254 8259 8261 8259 8261 8260 8260 8260 8251 8253 8252 8244 8187 8179 8180 8218 8213 8245 8213 8179 8180 8178 8178 8179 8183 8157 8140 8205 8166 8141 8146 8158 8156 8154 8150 8160 8159 8185 8181 8193 8203 8234 8225 8210 8175 8171 8171 8160 8181 8231 8241 8238 8242 8236 8237 8242 8241 8245 8245 8237 8238 8242 8241 8240 8241 8240 8243 8236 8244 8239 8244 8244 8237 8243 8239 8239 8237 8238 8239 
8267 8255 8261 8258 8252 8269 8258 8260 8259 8257 8265 8256 8224 8178 8208 8233 8240 8200 8199 8190 8172 8176 8182 8176 8180 8160 8149 8144 8193 8155 8153 8156 8160 8161 8172 8158 8153 8172 8179 8157 8174 8185 8188 8170 8170 8168 8167 8163 8165 8171 8218 8237 8235 8238 8246 8239 8244 8243 8244 8239 8239 8236 8244 8239 8239 8236 8236 8237 8237 8243 8239 8242 8240 8236 8241 8237 8237 8239 8239 8243 
8275 8261 8254 8246 8252 8256 8249 8261 8259 8252 8252 8252 8243 8226 8225 8238 8214 8170 8166 8166 8176 8172 8182 8183 8170 8136 8142 8156 8157 8161 8160 8167 8163 8166 8175 8159 8161 8145 8152 8144 8156 8167 8192 8189 8189 8176 8161 8159 8157 8161 8204 8232 8235 8237 8238 8245 8238 8243 8240 8238 8236 8241 8244 8243 8243 8239 8240 8249 8237 8242 8240 8239 8238 8241 8243 8240 8243 8240 8245 8238 
8272 8264 8259 8269 8261 8259 8243 8256 8244 8257 8251 8248 8245 8222 8193 8209 8209 8212 8171 8161 8184 8187 8187 8186 8154 8138 8142 8151 8154 8151 8157 8159 8171 8172 8166 8162 8157 8148 8157 8151 8164 8170 8169 8156 8158 8161 8152 8160 8170 8158 8176 8213 8228 8237 8241 8245 8240 8244 8238 8236 8234 8237 8243 8237 8237 8241 8239 8241 8241 8241 8240 8236 8244 8233 8244 8237 8236 8241 8244 8243 
8270 8257 8259 8265 8257 8256 8243 8236 8243 8255 8256 8239 8185 8189 8214 8234 8235 8235 8220 8189 8188 8191 8186 8189 8171 8149 8156 8145 8159 8159 8158 8157 8163 8167 8171 8172 8168 8168 8177 8166 8165 8161 8176 8202 8170 8158 8141 8147 8179 8177 8167 8170 8190 8218 8236 8241 8240 8241 8235 8237 8239 8242 8242 8242 8241 8240 8239 8251 8238 8237 8236 8237 8237 8234 8245 8241 8245 8246 8242 8244 
8272 8264 8261 8261 8259 8263 8251 8240 8251 8255 8258 8229 8198 8227 8249 8246 8243 8246 8231 8211 8191 8194 8194 8184 8207 8211 8170 8154 8157 8147 8156 8160 8162 8159 8156 8162 8172 8177 8177 8177 8180 8178 8188 8207 8200 8159 8149 8145 8149 8203 8198 8183 8172 8184 8223 8238 8245 8245 8235 8239 8235 8239 8240 8241 8240 8240 8242 8244 8234 8237 8238 8235 8237 8235 8238 8236 8239 8246 8243 8243 
8274 8251 8262 8267 8257 8258 8247 8257 8255 8249 8249 8226 8226 8237 8229 8212 8217 8224 8230 8204 8191 8190 8189 8178 8175 8176 8166 8163 8162 8157 8158 8158 8153 8151 8151 8159 8164 8166 8166 8180 8196 8206 8199 8188 8197 8178 8158 8155 8153 8167 8191 8182 8175 8163 8187 8223 8241 8245 8242 8243 8237 8243 8238 8246 8240 8245 8240 8252 8241 8239 8241 8238 8240 8238 8241 8238 8238 8240 8244 8244 
8275 8248 8255 8265 8259 8250 8255 8246 8237 8250 8240 8232 8212 8199 8183 8172 8166 8175 8210 8189 8190 8185 8175 8167 8163 8184 8158 8162 8172 8168 8157 8154 8148 8159 8170 8170 8177 8170 8177 8174 8186 8187 8189 8186 8200 8183 8172 8152 8157 8161 8165 8163 8163 8162 8175 8197 8230 8236 8239 8243 8238 8235 8236 8243 8237 8246 8239 8243 8235 8233 8236 8237 8241 8237 8238 8241 8240 8243 8244 8245 
8268 8254 8252 8261 8251 8259 8251 8245 8245 8226 8192 8192 8185 8191 8191 8202 8204 8198 8191 8174 8183 8173 8166 8167 8159 8150 8166 8180 8173 8165 8153 8149 8142 8162 8168 8172 8163 8166 8179 8188 8206 8211 8210 8209 8203 8190 8184 8172 8187 8178 8171 8167 8162 8159 8166 8170 8203 8231 8240 8242 8237 8235 8240 8238 8237 8240 8239 8240 8237 8235 8234 8235 8237 8235 8237 8240 8244 8243 8244 8245 
8268 8262 8263 8262 8260 8250 8249 8250 8226 8197 8182 8202 8203 8214 8230 8219 8205 8187 8183 8171 8176 8176 8175 8161 8149 8159 8173 8179 8179 8185 8177 8172 8175 8182 8182 8186 8186 8178 8191 8214 8214 8216 8218 8218 8218 8194 8179 8177 8192 8189 8177 8181 8169 8159 8164 8162 8174 8219 8240 8242 8240 8241 8241 8243 8243 8242 8240 8232 8231 8232 8233 8232 8235 8234 8236 8243 8249 8245 8244 8244 
8266 8254 8255 8263 8253 8258 8249 8249 8212 8219 8199 8215 8219 8217 8209 8174 8170 8163 8171 8162 8176 8199 8172 8158 8152 8154 8165 8163 8164 8179 8205 8182 8183 8186 8178 8199 8202 8186 8194 8196 8211 8212 8212 8218 8218 8185 8185 8178 8187 8184 8185 8178 8183 8177 8168 8160 8164 8192 8233 8231 8236 8229 8237 8240 8238 8240 8235 8232 8232 8231 8232 8234 8232 8231 8238 8240 8236 8250 8244 8244 
8265 8251 8255 8259 8251 8251 8247 8217 8208 8215 8243 8255 8248 8218 8177 8177 8167 8168 8165 8165 8173 8181 8170 8168 8161 8155 8164 8168 8168 8180 8213 8194 8183 8183 8182 8192 8201 8192 8194 8175 8171 8165 8169 8177 8169 8171 8172 8168 8171 8181 8185 8177 8183 8187 8179 8168 8162 8167 8215 8226 8231 8228 8243 8238 8236 8236 8234 8227 8226 8226 8231 8232 8230 8234 8238 8238 8239 8251 8244 8240 
8266 8255 8261 8260 8245 8212 8200 8213 8247 8245 8258 8249 8238 8196 8175 8177 8175 8174 8190 8181 8178 8173 8172 8171 8162 8159 8170 8179 8169 8171 8171 8167 8170 8172 8173 8196 8202 8193 8191 8160 8155 8158 8156 8167 8159 8172 8184 8180 8172 8179 8191 8179 8179 8178 8189 8181 8168 8163 8199 8222 8222 8229 8237 8236 8234 8232 8234 8230 8228 8222 8227 8231 8229 8233 8235 8234 8242 8243 8243 8241 
8270 8252 8257 8245 8201 8196 8205 8240 8254 8243 8244 8252 8247 8204 8180 8181 8177 8182 8194 8194 8189 8186 8175 8178 8171 8168 8175 8184 8178 8175 8168 8163 8163 8174 8177 8207 8204 8178 8173 8144 8137 8150 8153 8160 8163 8165 8179 8180 8177 8176 8179 8182 8189 8175 8184 8181 8175 8172 8197 8231 8223 8233 8232 8230 8231 8230 8227 8224 8226 8225 8233 8232 8233 8234 8233 8235 8240 8247 8239 8239 
8272 8258 8252 8221 8183 8204 8231 8245 8252 8252 8248 8250 8243 8202 8176 8181 8183 8213 8218 8196 8191 8194 8179 8177 8173 8171 8182 8179 8178 8174 8172 8193 8194 8174 8177 8208 8193 8177 8154 8131 8126 8151 8157 8172 8169 8185 8185 8195 8176 8177 8186 8189 8192 8187 8187 8180 8183 8182 8182 8212 8219 8223 8228 8229 8232 8231 8230 8226 8230 8228 8230 8229 8224 8227 8228 8237 8231 8238 8238 8236 
8274 8248 8254 8208 8202 8233 8242 8252 8251 8250 8250 8249 8234 8187 8178 8178 8200 8236 8235 8220 8198 8197 8179 8170 8176 8180 8184 8191 8191 8199 8214 8227 8211 8201 8184 8204 8192 8186 8165 8137 8130 8132 8158 8176 8174 8174 8175 8184 8176 8179 8193 8190 8197 8191 8186 8186 8186 8184 8182 8188 8222 8222 8228 8228 8229 8227 8225 8225 8228 8234 8231 8234 8226 8234 8232 8233 8234 8241 8235 8236 
8277 8259 8238 8197 8216 8241 8250 8257 8250 8247 8251 8252 8237 8179 8183 8189 8228 8240 8237 8233 8219 8202 8180 8167 8173 8180 8175 8192 8193 8182 8208 8220 8222 8199 8190 8197 8211 8192 8173 8155 8136 8149 8151 8158 8149 8152 8150 8184 8185 8195 8200 8197 8194 8189 8186 8187 8190 8189 8184 8182 8208 8224 8230 8227 8226 8227 8229 8230 8226 8232 8226 8230 8224 8237 8229 8232 8235 8241 8237 8234 
8279 8255 8221 8207 8233 8251 8259 8258 8252 8240 8242 8252 8242 8184 8190 8221 8243 8243 8243 8240 8243 8216 8189 8167 8177 8173 8179 8178 8190 8193 8201 8217 8229 8200 8190 8192 8204 8182 8169 8170 8161 8153 8135 8132 8135 8138 8154 8151 8170 8189 8197 8206 8200 8192 8193 8186 8196 8194 8191 8192 8198 8223 8231 8229 8227 8227 8227 8224 8227 8225 8227 8227 8224 8226 8230 8236 8234 8237 8235 8235 
8280 8250 8213 8214 8242 8254 8258 8253 8253 8245 8249 8256 8237 8186 8210 8242 8246 8231 8231 8221 8219 8208 8181 8169 8176 8175 8212 8218 8213 8188 8182 8208 8223 8194 8176 8175 8175 8169 8180 8175 8169 8168 8166 8161 8171 8174 8160 8157 8176 8188 8194 8200 8206 8198 8200 8194 8194 8199 8192 8196 8204 8217 8230 8223 8227 8229 8230 8225 8224 8221 8225 8229 8231 8232 8235 8235 8235 8241 8236 8236 
8273 8226 8205 8213 8246 8257 8258 8249 8254 8254 8254 8261 8226 8210 8236 8230 8210 8189 8185 8183 8179 8182 8188 8185 8183 8193 8202 8223 8227 8196 8183 8185 8191 8176 8178 8170 8172 8162 8166 8181 8162 8179 8179 8181 8208 8215 8205 8195 8177 8174 8188 8198 8199 8203 8200 8202 8198 8203 8196 8203 8220 8219 8226 8223 8230 8233 8229 8229 8227 8223 8226 8229 8227 8235 8235 8236 8235 8239 8231 8232 
8267 8213 8200 8206 8237 8259 8256 8260 8253 8255 8258 8254 8236 8217 8212 8204 8210 8203 8211 8226 8229 8196 8191 8202 8191 8184 8192 8199 8211 8178 8182 8182 8181 8168 8162 8176 8187 8186 8170 8187 8194 8214 8206 8183 8186 8193 8215 8208 8183 8178 8185 8191 8196 8203 8205 8208 8205 8201 8199 8207 8224 8220 8225 8223 8226 8227 8229 8234 8228 8225 8224 8228 8228 8226 8236 8237 8234 8237 8230 8236 
8251 8211 8210 8212 8244 8261 8262 8256 8257 8261 8258 8247 8227 8221 8231 8232 8240 8239 8247 8240 8241 8224 8221 8207 8180 8180 8186 8185 8185 8174 8179 8183 8176 8163 8170 8190 8187 8177 8189 8214 8210 8210 8201 8184 8177 8176 8174 8189 8173 8166 8174 8188 8200 8202 8206 8210 8209 8202 8211 8217 8217 8220 8227 8223 8225 8231 8227 8228 8228 8225 8224 8222 8227 8229 8233 8234 8231 8226 8229 8235 
8233 8194 8215 8208 8250 8266 8253 8260 8254 8256 8246 8244 8244 8246 8262 8252 8247 8251 8254 8252 8249 8243 8215 8199 8177 8182 8193 8185 8183 8178 8175 8174 8180 8174 8178 8183 8187 8200 8211 8214 8210 8219 8222 8229 8218 8218 8194 8187 8180 8171 8178 8183 8198 8199 8212 8212 8208 8203 8207 8223 8221 8223 8224 8225 8227 8227 8225 8230 8227 8230 8232 8228 8229 8234 8235 8232 8229 8233 8230 8233 
8218 8194 8212 8217 8254 8264 8248 8250 8256 8258 8250 8258 8259 8256 8266 8259 8249 8252 8254 8250 8248 8220 8206 8200 8216 8208 8195 8196 8190 8183 8173 8179 8185 8186 8191 8188 8183 8186 8202 8211 8217 8222 8227 8222 8221 8220 8216 8200 8179 8173 8172 8179 8188 8200 8205 8210 8201 8198 8218 8222 8221 8225 8226 8228 8232 8231 8228 8225 8226 8226 8229 8230 8227 8232 8234 8232 8231 8237 8233 8233 
8204 8190 8205 8233 8248 8258 8254 8257 8261 8260 8260 8260 8261 8262 8255 8252 8249 8255 8247 8241 8242 8206 8214 8208 8223 8214 8193 8194 8187 8182 8180 8181 8191 8183 8187 8178 8184 8185 8195 8203 8207 8216 8216 8216 8217 8228 8214 8194 8186 8183 8179 8180 8186 8200 8205 8204 8201 8203 8227 8220 8223 8227 8232 8229 8229 8230 8230 8224 8228 8228 8227 8233 8229 8229 8235 8233 8238 8237 8233 8230 
8206 8203 8229 8249 8263 8256 8254 8258 8257 8264 8257 8262 8264 8266 8252 8253 8247 8243 8246 8245 8228 8200 8211 8215 8236 8222 8205 8196 8194 8185 8184 8188 8193 8185 8182 8173 8179 8193 8204 8204 8203 8200 8197 8210 8211 8217 8204 8195 8178 8174 8176 8176 8187 8195 8200 8197 8205 8216 8228 8226 8232 8227 8230 8229 8232 8231 8225 8222 8225 8227 8230 8231 8232 8231 8239 8235 8239 8237 8233 8231 
8213 8213 8241 8251 8260 8261 8256 8250 8261 8260 8258 8256 8259 8260 8257 8253 8251 8251 8237 8239 8222 8200 8218 8224 8227 8236 8211 8199 8189 8190 8196 8188 8199 8186 8177 8176 8175 8185 8194 8193 8196 8204 8199 8209 8210 8210 8205 8194 8182 8179 8179 8175 8179 8192 8197 8201 8219 8222 8226 8227 8227 8225 8233 8232 8228 8227 8224 8225 8229 8226 8227 8228 8227 8232 8228 8232 8232 8235 8231 8235 
8220 8211 8241 8261 8257 8260 8258 8258 8251 8256 8256 8252 8262 8260 8258 8261 8256 8241 8244 8241 8227 8217 8220 8236 8231 8235 8224 8212 8203 8194 8196 8187 8191 8189 8184 8184 8174 8172 8185 8185 8198 8205 8206 8219 8214 8213 8193 8189 8181 8179 8183 8177 8181 8181 8205 8218 8226 8221 8230 8228 8225 8227 8226 8227 8226 8230 8228 8230 8229 8229 8231 8232 8231 8234 8232 8234 8233 8235 8231 8232 
8231 8224 8242 8265 8262 8265 8262 8259 8249 8252 8253 8262 8259 8263 8255 8262 8259 8244 8238 8231 8225 8201 8203 8201 8190 8186 8186 8190 8186 8187 8185 8181 8182 8179 8181 8179 8169 8165 8165 8169 8189 8192 8194 8206 8214 8202 8191 8194 8185 8184 8183 8183 8203 8221 8220 8222 8227 8224 8228 8225 8228 8225 8223 8226 8223 8222 8226 8224 8224 8224 8226 8229 8230 8233 8229 8236 8234 8237 8232 8235 
8236 8239 8260 8267 8258 8259 8257 8258 8264 8265 8263 8256 8263 8248 8256 8266 8257 8250 8237 8225 8218 8200 8192 8198 8185 8171 8169 8173 8179 8181 8181 8179 8179 8182 8182 8183 8174 8174 8179 8176 8188 8195 8194 8195 8195 8193 8194 8190 8186 8187 8198 8209 8236 8231 8228 8225 8225 8227 8227 8222 8219 8222 8219 8224 8225 8225 8225 8224 8225 8233 8227 8231 8230 8230 8239 8240 8233 8239 8238 8236 
8252 8248 8268 8273 8260 8266 8263 8264 8262 8256 8258 8262 8261 8254 8263 8258 8255 8249 8235 8220 8224 8215 8222 8215 8220 8208 8200 8193 8191 8189 8189 8190 8191 8186 8195 8189 8197 8187 8192 8187 8192 8192 8201 8195 8191 8189 8194 8189 8185 8204 8220 8234 8252 8232 8229 8223 8226 8223 8224 8221 8225 8226 8231 8228 8218 8225 8224 8224 8227 8225 8226 8231 8234 8234 8237 8238 8236 8234 8235 8235 
8269 8253 8272 8267 8258 8263 8263 8257 8258 8252 8260 8265 8263 8264 8258 8260 8255 8257 8247 8231 8223 8233 8240 8234 8236 8234 8230 8227 8218 8217 8225 8223 8226 8216 8224 8218 8222 8215 8213 8213 8217 8218 8214 8213 8203 8189 8193 8196 8206 8220 8237 8254 8258 8228 8226 8219 8229 8227 8226 8219 8219 8223 8224 8223 8213 8223 8222 8227 8226 8236 8229 8235 8241 8235 8237 8236 8236 8239 8235 8237 
8275 8257 8263 8262 8266 8261 8264 8253 8254 8261 8261 8260 8260 8266 8261 8260 8257 8251 8252 8225 8233 8232 8228 8244 8231 8235 8230 8223 8234 8233 8241 8232 8234 8229 8233 8227 8228 8227 8226 8224 8221 8222 8227 8210 8214 8200 8212 8218 8235 8241 8258 8279 8266 8229 8222 8224 8228 8226 8219 8216 8224 8223 8224 8222 8213 8221 8221 8225 8230 8234 8230 8232 8237 8239 8237 8233 8235 8237 8235 8232 
8276 8267 8263 8266 8259 8264 8254 8265 8247 8250 8262 8260 8266 8266 8262 8256 8254 8254 8257 8238 8237 8241 8247 8250 8235 8248 8241 8236 8237 8244 8231 8243 8239 8228 8239 8228 8231 8225 8232 8229 8227 8224 8225 8223 8225 8222 8222 8226 8242 8259 8289 8268 8235 8224 8226 8225 8225 8222 8219 8222 8224 8221 8223 8217 8214 8227 8221 8224 8230 8227 8235 8235 8232 8232 8235 8234 8235 8238 8235 8237 
8275 8263 8268 8271 8263 8260 8253 8269 8261 8256 8248 8255 8254 8264 8263 8246 8256 8261 8253 8251 8231 8242 8240 8245 8245 8250 8247 8244 8243 8236 8238 8245 8242 8234 8245 8237 8238 8231 8225 8230 8227 8225 8222 8227 8226 8229 8234 8237 8259 8293 8298 8249 8223 8227 8225 8221 8225 8224 8226 8223 8219 8220 8227 8216 8216 8225 8220 8224 8230 8227 8232 8237 8236 8237 8236 8234 8234 8233 8240 8235 
8269 8264 8270 8269 8265 8265 8260 8267 8247 8259 8249 8259 8253 8271 8263 8259 8258 8261 8250 8252 8245 8244 8241 8251 8245 8241 8247 8245 8238 8234 8242 8239 8238 8241 8246 8241 8240 8234 8229 8223 8225 8227 8227 8237 8239 8245 8253 8251 8273 8282 8275 8236 8223 8216 8228 8219 8222 8218 8219 8219 8228 8221 8223 8219 8219 8219 8212 8225 8232 8226 8227 8234 8235 8232 8228 8226 8228 8231 8239 8236 
8275 8273 8268 8268 8258 8256 8262 8258 8246 8263 8254 8264 8261 8269 8262 8260 8255 8252 8256 8252 8252 8252 8246 8251 8249 8241 8243 8240 8240 8236 8234 8232 8233 8234 8243 8241 8242 8240 8234 8235 8241 8238 8247 8245 8250 8257 8251 8264 8271 8269 8257 8238 8224 8215 8226 8220 8225 8216 8218 8218 8220 8217 8219 8220 8222 8219 8221 8218 8223 8229 8228 8231 8231 8231 8232 8233 8233 8235 8234 8232 
8275 8264 8276 8265 8259 8255 8259 8256 8244 8263 8261 8257 8269 8264 8261 8258 8257 8258 8250 8249 8262 8259 8258 8261 8258 8238 8257 8256 8254 8241 8237 8243 8251 8239 8257 8252 8246 8243 8241 8246 8250 8251 8252 8261 8263 8265 8258 8267 8274 8262 8247 8225 8225 8221 8219 8220 8224 8217 8220 8215 8216 8213 8219 8217 8218 8220 8217 8225 8219 8220 8228 8228 8225 8226 8232 8226 8225 8233 8228 8233 
8269 8259 8276 8264 8255 8255 8258 8246 8253 8262 8259 8253 8264 8262 8260 8254 8249 8261 8247 8251 8262 8258 8260 8263 8257 8243 8240 8259 8262 8259 8254 8245 8254 8246 8255 8262 8257 8249 8246 8252 8252 8260 8259 8259 8262 8256 8265 8265 8270 8263 8243 8226 8212 8215 8222 8219 8221 8218 8215 8214 8215 8208 8218 8217 8216 8225 8221 8229 8221 8221 8227 8229 8227 8227 8224 8227 8229 8230 8228 8228 
8286 8281 8285 8275 8283 8266 8262 8247 8248 8250 8251 8249 8254 8257 8260 8257 8247 8257 8250 8254 8255 8260 8261 8260 8265 8253 8260 8260 8259 8253 8250 8257 8253 8254 8244 8254 8252 8247 8248 8253 8257 8252 8248 8264 8264 8265 8265 8268 8264 8256 8235 8221 8210 8210 8215 8212 8214 8209 8214 8208 8207 8212 8219 8215 8215 8216 8219 8222 8228 8221 8225 8223 8221 8218 8225 8220 8230 8218 8229 8227 
8305 8290 8288 8293 8288 8271 8257 8259 8244 8233 8243 8236 8234 8249 8244 8235 8233 8240 8240 8237 8257 8252 8254 8258 8265 8254 8257 8258 8259 8256 8262 8248 8245 8253 8245 8254 8251 8253 8249 8256 8253 8258 8252 8254 8257 8260 8267 8269 8265 8255 8224 8213 8207 8210 8209 8210 8209 8210 8212 8208 8216 8206 8209 8209 8213 8213 8221 8221 8224 8226 8221 8222 8221 8214 8223 8224 8224 8218 8224 8226 
8307 8295 8288 8286 8283 8271 8262 8261 8241 8237 8233 8230 8241 8244 8239 8234 8225 8233 8224 8231 8243 8257 8251 8257 8254 8250 8254 8253 8253 8252 8253 8247 8243 8248 8250 8253 8247 8249 8252 8255 8257 8260 8257 8256 8258 8264 8267 8268 8272 8254 8212 8203 8205 8208 8210 8208 8212 8210 8210 8212 8212 8214 8216 8215 8213 8218 8226 8226 8229 8229 8224 8224 8221 8222 8224 8224 8224 8223 8231 8227 


