P2
80 60
8365
8208 8214 8218 8215 8214 8212 8212 8205 8211 8213 8210 8212 8212 8214 8220 8217 8214 8212 8213 8207 8215 8218 8216 8217 8213 8216 8219 8224 8220 8225 8227 8221 8221 8223 8221 8217 8222 8220 8222 8221 8221 8220 8220 8219 8222 8227 8226 8223 8221 8220 8214 8216 8212 8212 8205 8205 8206 8201 8211 8209 8207 8208 8206 8206 8207 8205 8205 8199 8202 8202 8201 8205 8200 8203 8202 8194 8195 8191 8184 8186 
8211 8214 8217 8214 8217 8214 8208 8207 8208 8213 8212 8215 8213 8213 8215 8213 8215 8211 8212 8209 8212 8215 8218 8218 8216 8216 8220 8222 8224 8222 8225 8220 8219 8224 8222 8217 8220 8220 8223 8223 8220 8222 8216 8219 8221 8226 8226 8227 8221 8222 8217 8214 8213 8213 8208 8209 8206 8208 8208 8207 8209 8210 8207 8202 8203 8204 8202 8201 8202 8200 8199 8195 8201 8200 8194 8192 8191 8185 8182 8178 
8206 8212 8215 8210 8213 8212 8205 8207 8212 8211 8208 8209 8207 8212 8217 8214 8213 8211 8211 8207 8213 8213 8215 8213 8215 8216 8224 8221 8220 8223 8222 8218 8221 8224 8223 8217 8217 8226 8223 8219 8219 8217 8216 8218 8220 8224 8228 8225 8220 8219 8217 8214 8213 8212 8208 8208 8207 8207 8208 8208 8209 8208 8205 8203 8202 8202 8201 8201 8203 8201 8195 8197 8192 8197 8190 8188 8186 8182 8179 8182 
8206 8207 8212 8212 8209 8209 8208 8206 8207 8211 8205 8210 8210 8210 8212 8211 8210 8208 8209 8210 8211 8208 8211 8215 8213 8216 8222 8224 8220 8220 8218 8214 8222 8223 8221 8217 8217 8220 8218 8218 8216 8215 8217 8214 8218 8223 8225 8221 8221 8220 8213 8213 8210 8209 8204 8209 8208 8208 8209 8206 8209 8208 8204 8199 8199 8198 8197 8196 8198 8200 8193 8194 8192 8192 8188 8184 8184 8180 8179 8171 
8203 8209 8215 8210 8210 8209 8208 8205 8207 8208 8206 8206 8208 8208 8211 8209 8211 8207 8209 8208 8209 8208 8208 8209 8212 8218 8221 8220 8219 8219 8219 8220 8217 8220 8221 8217 8219 8221 8214 8214 8217 8215 8211 8215 8218 8221 8223 8224 8220 8218 8212 8212 8211 8209 8207 8206 8207 8208 8206 8207 8207 8205 8204 8199 8200 8198 8195 8191 8200 8197 8193 8196 8193 8191 8185 8181 8181 8177 8175 8173 
8207 8211 8211 8210 8210 8207 8208 8210 8208 8207 8201 8205 8208 8207 8211 8207 8208 8208 8208 8211 8208 8207 8213 8210 8212 8216 8221 8219 8220 8220 8221 8218 8219 8219 8221 8216 8219 8219 8217 8214 8218 8218 8217 8217 8216 8220 8221 8222 8217 8218 8209 8209 8209 8209 8208 8206 8208 8209 8212 8209 8205 8205 8203 8200 8197 8198 8197 8194 8196 8197 8194 8192 8192 8191 8183 8180 8178 8172 8172 8173 
8205 8215 8212 8207 8208 8211 8213 8206 8204 8205 8197 8205 8206 8206 8208 8209 8207 8205 8207 8207 8210 8208 8209 8211 8215 8215 8217 8215 8215 8217 8221 8216 8217 8221 8221 8216 8215 8217 8214 8215 8218 8218 8216 8217 8216 8220 8221 8220 8216 8216 8211 8209 8208 8210 8205 8208 8206 8208 8209 8209 8207 8205 8202 8199 8197 8200 8198 8193 8193 8193 8192 8192 8192 8186 8185 8179 8176 8175 8173 8166 
8209 8213 8213 8209 8210 8212 8208 8206 8208 8203 8202 8203 8204 8207 8209 8208 8208 8204 8208 8206 8210 8209 8209 8213 8213 8211 8213 8213 8213 8217 8220 8212 8215 8217 8218 8211 8211 8215 8216 8214 8218 8214 8214 8213 8212 8216 8219 8217 8214 8215 8209 8208 8208 8209 8205 8205 8207 8207 8210 8205 8207 8204 8203 8199 8201 8200 8201 8196 8196 8194 8191 8193 8188 8188 8185 8181 8178 8176 8172 8172 
8212 8211 8210 8208 8210 8208 8209 8207 8209 8203 8200 8202 8204 8205 8207 8207 8207 8203 8207 8206 8211 8206 8207 8208 8206 8210 8213 8213 8214 8215 8216 8212 8213 8216 8214 8213 8211 8215 8211 8211 8213 8212 8210 8211 8213 8216 8216 8216 8212 8210 8206 8207 8208 8208 8204 8203 8205 8206 8207 8205 8202 8201 8201 8200 8197 8199 8195 8195 8194 8196 8193 8189 8187 8186 8186 8181 8180 8178 8172 8172 
8209 8210 8213 8209 8210 8212 8203 8205 8204 8202 8197 8204 8203 8205 8206 8205 8206 8204 8206 8206 8208 8202 8207 8210 8205 8211 8215 8214 8214 8216 8215 8211 8209 8213 8213 8210 8212 8212 8213 8209 8214 8211 8210 8210 8211 8217 8215 8218 8213 8213 8207 8208 8208 8206 8203 8204 8206 8208 8207 8205 8204 8205 8202 8199 8198 8200 8196 8194 8197 8199 8196 8193 8190 8189 8189 8187 8182 8177 8174 8171 
8210 8211 8213 8207 8205 8209 8203 8204 8205 8203 8200 8201 8202 8205 8207 8205 8203 8204 8203 8205 8206 8206 8206 8207 8207 8208 8212 8215 8215 8215 8214 8205 8211 8212 8211 8205 8206 8210 8208 8206 8212 8207 8211 8210 8211 8217 8216 8216 8214 8211 8208 8209 8208 8209 8205 8206 8203 8206 8206 8205 8205 8203 8198 8197 8198 8198 8199 8195 8195 8198 8193 8189 8187 8185 8186 8183 8183 8182 8177 8177 
8213 8215 8214 8203 8204 8204 8197 8199 8204 8197 8202 8201 8203 8204 8205 8205 8203 8199 8202 8203 8208 8207 8205 8203 8205 8206 8212 8211 8214 8215 8212 8210 8207 8214 8206 8202 8203 8211 8207 8204 8207 8208 8208 8210 8211 8215 8214 8214 8210 8213 8208 8210 8209 8207 8207 8205 8203 8207 8210 8204 8201 8202 8201 8196 8197 8201 8201 8194 8193 8194 8189 8190 8188 8184 8183 8184 8187 8183 8178 8180 
8213 8214 8208 8203 8202 8199 8200 8197 8196 8202 8197 8201 8203 8201 8203 8205 8205 8205 8205 8202 8205 8206 8207 8206 8205 8208 8214 8210 8210 8210 8216 8208 8206 8208 8206 8201 8203 8204 8202 8202 8206 8205 8206 8209 8210 8215 8212 8216 8213 8212 8208 8210 8209 8208 8205 8205 8206 8206 8209 8204 8204 8201 8202 8198 8197 8201 8197 8195 8195 8191 8188 8190 8188 8185 8184 8188 8189 8187 8179 8183 
8211 8217 8210 8204 8203 8201 8199 8199 8195 8202 8200 8202 8203 8203 8207 8204 8205 8202 8205 8204 8206 8205 8205 8205 8204 8206 8211 8213 8210 8209 8212 8206 8204 8201 8201 8197 8195 8199 8198 8199 8202 8200 8203 8209 8209 8213 8210 8214 8212 8212 8212 8210 8209 8212 8207 8206 8203 8206 8208 8204 8203 8204 8199 8198 8202 8199 8200 8197 8196 8195 8192 8193 8194 8188 8188 8188 8192 8194 8186 8181 
8208 8209 8211 8203 8204 8198 8198 8199 8196 8202 8202 8204 8205 8202 8206 8205 8205 8204 8205 8207 8202 8201 8204 8203 8203 8206 8209 8206 8206 8204 8208 8203 8202 8177 8150 8145 8139 8179 8195 8194 8200 8200 8202 8203 8208 8210 8212 8212 8211 8214 8209 8212 8209 8212 8208 8207 8207 8206 8208 8204 8202 8199 8199 8198 8201 8206 8201 8196 8195 8195 8193 8193 8191 8189 8189 8189 8191 8192 8185 8183 
8206 8206 8205 8206 8205 8199 8194 8195 8198 8203 8200 8204 8203 8203 8208 8206 8206 8206 8206 8202 8200 8200 8202 8202 8201 8199 8197 8156 8148 8154 8165 8186 8196 8163 8127 8130 8168 8178 8177 8171 8191 8192 8197 8204 8204 8207 8208 8211 8209 8207 8208 8210 8207 8209 8209 8209 8207 8208 8206 8206 8204 8199 8199 8201 8202 8203 8199 8194 8196 8194 8192 8192 8190 8190 8188 8190 8194 8196 8188 8186 
8207 8205 8206 8204 8202 8199 8195 8199 8201 8202 8199 8203 8203 8204 8208 8206 8207 8202 8208 8198 8189 8203 8203 8190 8176 8167 8136 8124 8150 8152 8142 8167 8151 8131 8145 8145 8168 8184 8189 8171 8153 8144 8172 8193 8202 8207 8208 8210 8201 8190 8196 8203 8207 8204 8202 8206 8203 8204 8205 8201 8201 8198 8201 8201 8203 8202 8199 8194 8191 8193 8192 8192 8193 8191 8190 8190 8191 8197 8189 8185 
8207 8206 8206 8200 8202 8198 8197 8202 8199 8202 8201 8205 8207 8208 8209 8209 8206 8202 8202 8190 8147 8196 8199 8186 8154 8132 8114 8111 8112 8128 8151 8157 8166 8130 8140 8156 8132 8139 8181 8147 8129 8125 8147 8150 8192 8207 8207 8209 8188 8168 8171 8179 8207 8207 8202 8202 8200 8203 8205 8203 8202 8199 8199 8200 8199 8201 8197 8191 8193 8193 8192 8191 8191 8190 8189 8190 8190 8194 8189 8188 
8206 8201 8206 8202 8201 8201 8200 8198 8202 8203 8201 8209 8209 8205 8210 8200 8201 8199 8196 8187 8154 8190 8192 8164 8138 8118 8116 8115 8110 8134 8149 8157 8159 8121 8145 8183 8177 8148 8158 8128 8119 8120 8124 8137 8175 8204 8207 8207 8179 8170 8175 8184 8204 8208 8202 8200 8198 8201 8206 8201 8199 8199 8199 8199 8201 8198 8196 8190 8195 8193 8193 8193 8192 8189 8188 8188 8189 8191 8187 8184 
8208 8202 8203 8198 8195 8200 8200 8200 8202 8202 8203 8206 8204 8205 8202 8201 8187 8172 8179 8177 8144 8141 8158 8151 8150 8125 8111 8111 8106 8111 8137 8131 8140 8134 8149 8141 8168 8126 8122 8140 8118 8121 8130 8142 8157 8206 8207 8204 8171 8176 8175 8190 8197 8201 8199 8199 8198 8200 8204 8197 8197 8196 8197 8195 8195 8195 8195 8191 8192 8193 8192 8190 8191 8188 8189 8187 8186 8187 8184 8180 
8208 8204 8204 8193 8195 8195 8193 8199 8199 8202 8198 8202 8202 8202 8198 8174 8154 8185 8191 8190 8167 8134 8185 8163 8170 8127 8109 8108 8099 8099 8114 8116 8123 8141 8132 8108 8156 8118 8110 8111 8117 8121 8119 8142 8148 8201 8203 8196 8173 8181 8174 8194 8198 8200 8195 8194 8197 8198 8200 8195 8196 8194 8199 8196 8194 8195 8190 8188 8190 8189 8190 8188 8188 8186 8186 8184 8187 8186 8179 8182 
8206 8210 8205 8201 8200 8198 8188 8198 8192 8200 8198 8198 8197 8196 8181 8137 8179 8187 8184 8185 8187 8143 8141 8142 8137 8119 8123 8113 8104 8118 8110 8111 8133 8186 8168 8152 8166 8134 8115 8115 8119 8120 8116 8127 8161 8195 8198 8182 8177 8182 8173 8197 8196 8198 8192 8196 8198 8196 8199 8198 8194 8195 8197 8196 8192 8194 8189 8188 8190 8187 8184 8188 8187 8185 8183 8183 8183 8182 8179 8179 
8205 8203 8201 8204 8198 8192 8189 8191 8192 8201 8197 8195 8198 8195 8158 8149 8187 8174 8147 8151 8168 8133 8103 8146 8165 8130 8128 8126 8110 8119 8114 8116 8126 8177 8189 8186 8165 8172 8134 8121 8144 8119 8124 8137 8160 8184 8197 8173 8180 8180 8178 8194 8194 8196 8194 8195 8194 8197 8196 8195 8193 8193 8194 8194 8193 8194 8190 8188 8187 8185 8183 8186 8187 8183 8179 8180 8184 8182 8177 8176 
8199 8205 8200 8198 8198 8198 8191 8189 8198 8197 8194 8198 8198 8198 8165 8167 8182 8124 8153 8181 8187 8169 8130 8174 8146 8139 8136 8109 8123 8114 8116 8131 8128 8128 8136 8144 8159 8176 8172 8153 8175 8123 8142 8152 8180 8182 8190 8175 8183 8179 8186 8192 8192 8193 8192 8192 8193 8195 8195 8190 8192 8192 8192 8191 8192 8193 8191 8185 8185 8182 8182 8185 8183 8182 8179 8175 8179 8180 8174 8174 
8202 8197 8200 8204 8197 8191 8190 8195 8197 8194 8198 8195 8195 8194 8195 8188 8168 8143 8183 8186 8188 8179 8155 8143 8138 8132 8114 8115 8123 8119 8122 8137 8124 8115 8115 8118 8129 8117 8124 8158 8187 8170 8142 8180 8195 8185 8186 8180 8185 8181 8191 8194 8190 8192 8190 8193 8191 8194 8194 8193 8193 8190 8188 8191 8192 8194 8191 8188 8188 8183 8181 8183 8181 8180 8174 8174 8175 8177 8172 8171 
8197 8195 8199 8202 8197 8191 8191 8187 8191 8193 8190 8192 8192 8191 8194 8192 8176 8182 8186 8182 8161 8168 8162 8139 8124 8118 8116 8115 8128 8118 8124 8116 8122 8121 8118 8113 8137 8134 8110 8112 8160 8195 8167 8167 8195 8192 8177 8186 8188 8183 8191 8194 8189 8190 8190 8189 8189 8192 8193 8193 8192 8186 8188 8191 8193 8197 8190 8186 8182 8181 8178 8178 8179 8176 8173 8171 8173 8174 8169 8171 
8198 8198 8195 8198 8195 8194 8189 8188 8191 8190 8190 8195 8193 8193 8196 8193 8193 8187 8189 8184 8179 8182 8184 8150 8117 8114 8112 8117 8140 8139 8133 8121 8115 8124 8121 8114 8116 8131 8121 8109 8143 8189 8188 8158 8190 8194 8173 8188 8186 8187 8194 8195 8188 8191 8190 8192 8189 8191 8193 8193 8190 8186 8189 8191 8191 8191 8187 8183 8182 8179 8178 8176 8176 8177 8171 8170 8174 8172 8172 8168 
8196 8199 8198 8196 8198 8193 8192 8189 8188 8194 8188 8192 8194 8192 8193 8193 8193 8191 8189 8185 8185 8183 8164 8136 8126 8112 8115 8113 8134 8143 8139 8132 8126 8123 8126 8122 8115 8128 8164 8134 8139 8184 8190 8179 8189 8186 8179 8188 8180 8193 8192 8191 8190 8190 8190 8191 8190 8190 8194 8193 8189 8188 8187 8187 8188 8192 8185 8181 8179 8177 8176 8176 8174 8174 8173 8175 8173 8174 8174 8173 
8191 8195 8199 8198 8196 8194 8190 8191 8191 8193 8190 8197 8196 8191 8199 8192 8191 8192 8187 8184 8177 8141 8118 8138 8147 8108 8111 8115 8121 8140 8139 8144 8134 8130 8127 8135 8122 8150 8179 8173 8146 8170 8191 8194 8192 8184 8188 8191 8180 8192 8191 8189 8190 8190 8190 8191 8192 8193 8194 8190 8191 8190 8189 8187 8191 8192 8186 8182 8179 8177 8177 8179 8175 8175 8178 8181 8177 8182 8180 8175 
8192 8195 8195 8196 8192 8198 8194 8193 8195 8191 8192 8194 8195 8191 8194 8194 8192 8189 8186 8180 8151 8107 8109 8144 8124 8104 8112 8112 8116 8142 8134 8130 8133 8134 8134 8134 8132 8165 8180 8183 8167 8166 8188 8190 8191 8182 8194 8192 8182 8191 8189 8188 8188 8192 8190 8190 8193 8187 8190 8186 8190 8189 8187 8188 8190 8190 8190 8182 8179 8179 8175 8179 8178 8180 8180 8177 8183 8184 8181 8178 
8193 8195 8196 8194 8197 8197 8190 8192 8197 8189 8189 8192 8191 8195 8197 8193 8188 8186 8184 8162 8125 8106 8107 8119 8114 8108 8116 8119 8120 8140 8141 8133 8134 8136 8129 8135 8140 8146 8171 8183 8185 8179 8187 8190 8187 8183 8191 8185 8183 8191 8187 8190 8187 8191 8189 8191 8188 8189 8191 8188 8186 8189 8189 8189 8188 8188 8185 8181 8180 8177 8176 8179 8180 8181 8179 8178 8186 8186 8182 8183 
8195 8191 8192 8195 8193 8196 8188 8191 8192 8194 8189 8193 8191 8190 8195 8194 8193 8186 8184 8179 8129 8106 8109 8128 8139 8136 8120 8123 8125 8138 8133 8131 8137 8136 8135 8143 8143 8168 8160 8183 8186 8188 8184 8193 8185 8190 8190 8184 8191 8191 8188 8186 8188 8188 8184 8186 8189 8189 8191 8189 8190 8187 8185 8184 8186 8185 8186 8178 8182 8179 8177 8182 8179 8178 8178 8178 8181 8186 8184 8180 
8198 8200 8199 8197 8197 8194 8187 8187 8191 8191 8187 8189 8185 8190 8191 8194 8191 8189 8186 8180 8147 8112 8114 8143 8169 8134 8124 8121 8124 8129 8132 8126 8130 8136 8143 8169 8173 8180 8180 8188 8191 8190 8190 8191 8187 8192 8186 8182 8193 8191 8189 8187 8186 8188 8184 8186 8184 8188 8186 8184 8187 8185 8184 8186 8186 8186 8181 8179 8181 8180 8179 8177 8175 8175 8176 8179 8179 8184 8182 8182 
8201 8196 8201 8199 8193 8195 8193 8190 8189 8191 8191 8190 8187 8190 8194 8193 8189 8191 8193 8182 8176 8126 8121 8158 8180 8133 8126 8126 8124 8131 8138 8127 8135 8144 8178 8191 8188 8209 8210 8215 8215 8213 8210 8199 8189 8191 8188 8193 8194 8191 8186 8184 8184 8185 8183 8186 8184 8185 8186 8184 8185 8186 8183 8185 8186 8185 8182 8182 8181 8183 8180 8181 8172 8180 8183 8180 8182 8185 8182 8180 
8200 8197 8201 8195 8193 8192 8192 8190 8193 8189 8187 8190 8190 8192 8197 8191 8193 8192 8198 8196 8195 8176 8135 8150 8185 8155 8157 8150 8138 8129 8134 8136 8138 8155 8199 8208 8189 8194 8218 8223 8220 8219 8215 8200 8190 8193 8201 8196 8192 8189 8184 8185 8184 8181 8183 8184 8183 8184 8186 8183 8185 8184 8183 8183 8183 8185 8185 8182 8184 8181 8181 8178 8177 8184 8181 8182 8183 8183 8186 8182 
8199 8198 8199 8195 8192 8193 8191 8193 8192 8187 8185 8192 8194 8190 8197 8196 8198 8200 8205 8200 8199 8194 8183 8171 8183 8157 8159 8155 8169 8154 8139 8140 8147 8177 8212 8232 8231 8220 8231 8226 8225 8215 8205 8193 8191 8196 8205 8189 8187 8189 8183 8186 8183 8184 8182 8184 8184 8183 8183 8183 8187 8183 8181 8184 8185 8186 8183 8181 8182 8183 8180 8180 8178 8181 8184 8184 8189 8187 8183 8185 
8201 8196 8199 8194 8197 8197 8197 8193 8193 8186 8187 8197 8195 8193 8194 8195 8197 8203 8211 8212 8208 8205 8203 8200 8196 8168 8178 8175 8189 8193 8168 8162 8171 8190 8200 8209 8213 8211 8208 8206 8203 8197 8193 8192 8193 8192 8189 8188 8185 8186 8180 8182 8180 8185 8181 8182 8180 8184 8182 8182 8183 8180 8186 8182 8185 8187 8182 8179 8181 8181 8179 8181 8179 8186 8187 8185 8187 8189 8186 8184 
8201 8196 8200 8196 8196 8197 8194 8195 8194 8191 8192 8197 8197 8193 8198 8196 8190 8193 8208 8212 8210 8199 8200 8197 8186 8180 8185 8185 8184 8186 8183 8176 8180 8189 8194 8193 8203 8202 8201 8201 8206 8205 8200 8195 8197 8197 8192 8185 8182 8183 8179 8180 8183 8183 8181 8183 8178 8184 8183 8183 8182 8182 8183 8183 8185 8188 8185 8184 8182 8183 8180 8180 8181 8189 8186 8187 8188 8195 8185 8185 
8200 8199 8198 8196 8200 8202 8196 8195 8195 8196 8197 8194 8195 8193 8194 8191 8190 8205 8210 8210 8207 8195 8193 8193 8184 8179 8187 8187 8184 8185 8183 8182 8186 8193 8195 8197 8205 8209 8211 8212 8220 8216 8210 8210 8210 8206 8189 8180 8182 8179 8180 8179 8181 8180 8180 8182 8180 8183 8181 8180 8181 8181 8181 8184 8185 8184 8184 8184 8182 8178 8176 8180 8181 8182 8189 8186 8192 8191 8188 8187 
8199 8201 8208 8196 8199 8199 8199 8200 8196 8198 8196 8195 8195 8196 8195 8189 8191 8205 8220 8215 8212 8208 8199 8194 8186 8184 8191 8191 8188 8189 8191 8192 8195 8205 8211 8219 8229 8235 8236 8234 8236 8235 8227 8226 8211 8194 8183 8181 8181 8179 8178 8181 8180 8182 8179 8183 8182 8181 8183 8180 8180 8181 8182 8182 8183 8185 8181 8182 8181 8178 8176 8178 8176 8184 8188 8189 8189 8186 8186 8187 
8196 8195 8207 8193 8197 8203 8198 8200 8199 8198 8194 8198 8195 8195 8196 8194 8192 8196 8213 8225 8227 8226 8215 8211 8199 8199 8201 8200 8198 8201 8205 8205 8213 8226 8237 8241 8249 8251 8252 8243 8237 8234 8226 8222 8208 8191 8177 8179 8179 8179 8178 8181 8180 8179 8180 8182 8179 8180 8181 8181 8181 8181 8182 8183 8185 8184 8179 8175 8177 8180 8179 8174 8178 8189 8190 8188 8193 8185 8189 8189 
8192 8191 8201 8190 8195 8202 8198 8197 8202 8196 8193 8198 8198 8197 8200 8196 8196 8196 8198 8204 8215 8215 8215 8216 8203 8202 8205 8208 8202 8200 8200 8199 8205 8218 8226 8232 8236 8235 8230 8228 8231 8227 8216 8214 8209 8194 8183 8182 8181 8179 8178 8179 8179 8181 8180 8180 8180 8179 8179 8183 8182 8182 8184 8187 8186 8184 8180 8176 8180 8178 8181 8182 8178 8187 8188 8191 8195 8198 8189 8186 
8189 8186 8199 8190 8195 8198 8197 8196 8200 8200 8197 8192 8198 8198 8197 8197 8198 8197 8192 8196 8209 8205 8211 8215 8200 8203 8206 8205 8205 8202 8203 8204 8211 8215 8222 8225 8228 8226 8223 8222 8221 8220 8220 8220 8212 8197 8181 8181 8178 8180 8176 8178 8176 8178 8181 8182 8179 8180 8181 8179 8182 8183 8182 8184 8183 8182 8178 8174 8175 8177 8177 8180 8185 8183 8193 8191 8194 8198 8191 8188 
8192 8189 8196 8189 8193 8199 8196 8196 8195 8196 8194 8196 8197 8199 8199 8195 8193 8191 8189 8192 8205 8215 8214 8217 8207 8210 8211 8213 8210 8210 8208 8210 8216 8222 8221 8222 8222 8226 8224 8225 8225 8221 8220 8220 8212 8197 8183 8183 8178 8178 8174 8176 8177 8178 8180 8178 8182 8183 8183 8184 8184 8186 8183 8183 8184 8185 8179 8174 8176 8179 8178 8182 8183 8190 8193 8194 8195 8198 8189 8186 
8188 8196 8196 8190 8192 8196 8195 8193 8196 8197 8191 8195 8197 8196 8198 8198 8198 8196 8193 8193 8205 8216 8214 8215 8215 8212 8217 8214 8214 8215 8219 8216 8221 8223 8219 8219 8220 8218 8219 8216 8220 8216 8216 8215 8210 8194 8181 8180 8178 8176 8175 8175 8173 8179 8176 8176 8178 8178 8182 8181 8182 8179 8182 8183 8182 8182 8177 8178 8180 8178 8177 8181 8183 8188 8185 8190 8195 8190 8190 8188 
8187 8192 8191 8189 8190 8194 8195 8191 8193 8194 8192 8194 8198 8200 8203 8202 8199 8195 8195 8192 8202 8214 8216 8210 8217 8215 8214 8218 8213 8215 8218 8217 8218 8224 8221 8214 8218 8215 8215 8215 8217 8215 8213 8214 8207 8192 8182 8180 8174 8177 8173 8175 8173 8176 8175 8177 8180 8176 8180 8181 8181 8183 8182 8183 8182 8183 8181 8180 8177 8182 8179 8178 8187 8187 8184 8187 8191 8188 8185 8187 
8190 8194 8193 8189 8194 8195 8196 8194 8191 8191 8190 8196 8196 8198 8199 8198 8198 8193 8192 8189 8201 8205 8209 8209 8213 8215 8211 8210 8214 8213 8215 8210 8217 8218 8216 8216 8213 8215 8211 8207 8215 8213 8210 8209 8204 8186 8179 8180 8175 8176 8173 8174 8175 8169 8170 8176 8177 8179 8180 8180 8181 8179 8178 8181 8177 8180 8177 8176 8178 8181 8176 8176 8181 8187 8186 8183 8194 8188 8184 8182 
8205 8206 8201 8200 8193 8195 8195 8196 8201 8199 8194 8194 8194 8193 8196 8196 8198 8194 8192 8190 8200 8197 8203 8208 8210 8212 8213 8210 8208 8212 8216 8212 8212 8222 8214 8212 8212 8210 8209 8209 8213 8215 8211 8207 8200 8171 8167 8175 8173 8175 8175 8170 8173 8176 8174 8175 8176 8179 8178 8178 8176 8180 8176 8177 8178 8179 8176 8172 8178 8182 8177 8182 8182 8182 8192 8192 8194 8195 8186 8183 
8231 8228 8230 8224 8206 8195 8200 8195 8204 8219 8199 8197 8199 8194 8198 8193 8196 8190 8192 8187 8202 8201 8204 8206 8208 8214 8214 8206 8210 8207 8211 8210 8215 8219 8219 8212 8213 8208 8207 8209 8215 8215 8211 8204 8190 8162 8154 8155 8164 8176 8169 8172 8174 8175 8172 8174 8175 8176 8175 8174 8175 8177 8180 8179 8175 8180 8177 8170 8180 8179 8180 8181 8185 8184 8193 8191 8194 8190 8189 8192 
8214 8209 8216 8205 8195 8199 8202 8196 8214 8212 8207 8209 8210 8199 8197 8198 8203 8200 8197 8185 8194 8202 8206 8204 8202 8207 8214 8213 8206 8210 8212 8208 8215 8216 8219 8213 8214 8213 8212 8210 8213 8213 8207 8203 8185 8157 8152 8155 8152 8169 8168 8177 8176 8177 8169 8169 8171 8173 8174 8171 8177 8179 8181 8180 8178 8177 8174 8173 8177 8179 8179 8188 8195 8191 8191 8197 8196 8196 8192 8198 
8236 8218 8222 8208 8208 8204 8222 8215 8215 8223 8225 8228 8208 8199 8200 8207 8222 8213 8200 8182 8185 8199 8201 8205 8191 8200 8204 8207 8213 8215 8215 8210 8215 8217 8217 8211 8211 8213 8211 8210 8212 8209 8206 8200 8184 8159 8157 8156 8159 8172 8170 8173 8171 8177 8150 8158 8162 8161 8156 8162 8178 8179 8177 8177 8177 8171 8184 8179 8181 8182 8187 8198 8206 8208 8207 8192 8198 8203 8203 8199 
8255 8244 8221 8213 8224 8257 8246 8241 8222 8228 8270 8270 8239 8226 8229 8236 8271 8244 8220 8182 8181 8188 8203 8198 8192 8205 8207 8206 8212 8215 8214 8218 8212 8216 8217 8204 8209 8211 8212 8211 8212 8206 8201 8196 8185 8162 8162 8164 8157 8164 8161 8162 8167 8171 8169 8156 8168 8176 8155 8170 8178 8178 8163 8167 8170 8179 8176 8190 8196 8187 8208 8209 8208 8207 8212 8217 8220 8211 8211 8207 
8267 8240 8241 8269 8273 8292 8284 8302 8304 8302 8290 8298 8297 8304 8314 8294 8294 8287 8258 8211 8190 8190 8190 8191 8192 8195 8205 8200 8204 8203 8203 8205 8206 8208 8209 8207 8210 8213 8208 8208 8210 8205 8198 8200 8183 8168 8167 8166 8152 8159 8157 8165 8154 8168 8167 8157 8166 8176 8175 8168 8184 8184 8175 8166 8177 8187 8176 8177 8200 8198 8194 8219 8227 8225 8207 8215 8216 8222 8216 8209 
8243 8254 8279 8289 8287 8285 8293 8308 8316 8305 8283 8297 8300 8317 8335 8307 8295 8292 8276 8262 8229 8203 8199 8196 8194 8189 8201 8198 8195 8197 8199 8193 8196 8204 8209 8200 8207 8209 8205 8200 8199 8196 8182 8183 8172 8169 8173 8167 8164 8165 8165 8166 8156 8159 8165 8157 8153 8162 8171 8166 8173 8179 8179 8164 8184 8191 8184 8186 8198 8199 8196 8206 8218 8229 8224 8207 8215 8220 8217 8215 
8266 8297 8304 8305 8299 8304 8317 8325 8315 8315 8309 8316 8341 8354 8341 8325 8314 8299 8300 8310 8269 8218 8211 8208 8209 8201 8204 8206 8206 8203 8203 8195 8200 8203 8206 8198 8202 8200 8188 8180 8176 8174 8173 8175 8172 8174 8164 8169 8165 8165 8169 8170 8157 8165 8167 8167 8163 8165 8170 8173 8169 8174 8176 8168 8172 8179 8185 8180 8195 8214 8222 8210 8211 8224 8220 8218 8212 8225 8221 8215 
8311 8316 8308 8289 8287 8299 8340 8332 8288 8287 8284 8292 8353 8355 8323 8295 8286 8276 8285 8315 8306 8248 8228 8218 8211 8192 8206 8207 8210 8198 8192 8192 8198 8186 8191 8182 8188 8186 8174 8170 8173 8177 8176 8179 8173 8177 8165 8165 8168 8167 8167 8168 8163 8164 8169 8171 8167 8171 8179 8180 8172 8175 8186 8188 8189 8193 8198 8201 8204 8207 8226 8239 8237 8240 8249 8230 8229 8218 8220 8219 
8323 8326 8331 8328 8325 8334 8353 8337 8338 8350 8355 8348 8357 8358 8341 8319 8309 8317 8321 8318 8320 8278 8234 8222 8213 8201 8204 8216 8216 8211 8203 8190 8199 8188 8184 8184 8187 8183 8178 8177 8175 8182 8180 8178 8179 8171 8167 8168 8171 8168 8171 8175 8165 8166 8177 8181 8176 8179 8184 8181 8181 8173 8198 8204 8205 8222 8237 8252 8245 8238 8266 8269 8263 8252 8256 8271 8274 8226 8218 8218 
8327 8327 8327 8330 8349 8335 8324 8311 8322 8333 8358 8355 8336 8325 8318 8300 8297 8315 8315 8299 8288 8277 8244 8224 8215 8208 8226 8227 8220 8210 8201 8206 8205 8199 8181 8180 8184 8182 8180 8181 8183 8179 8179 8181 8176 8166 8171 8186 8190 8186 8196 8218 8216 8207 8228 8236 8239 8226 8237 8228 8207 8203 8217 8215 8222 8223 8243 8259 8268 8259 8258 8288 8297 8290 8272 8279 8263 8219 8220 8218 
8339 8335 8339 8355 8351 8333 8328 8340 8349 8356 8365 8346 8324 8321 8311 8296 8301 8316 8318 8301 8304 8294 8287 8255 8231 8227 8231 8228 8222 8217 8218 8202 8204 8203 8184 8186 8187 8188 8181 8189 8185 8189 8198 8189 8174 8167 8193 8214 8226 8220 8238 8256 8256 8239 8243 8257 8255 8241 8231 8210 8212 8210 8214 8223 8233 8241 8238 8274 8286 8295 8267 8275 8277 8268 8276 8259 8254 8215 8220 8223 
8358 8357 8356 8340 8324 8312 8314 8341 8357 8358 8335 8322 8303 8295 8294 8292 8304 8299 8291 8290 8296 8289 8293 8303 8292 8259 8229 8221 8220 8221 8227 8223 8214 8214 8199 8198 8195 8190 8194 8206 8239 8252 8251 8208 8176 8173 8188 8207 8214 8212 8226 8257 8255 8254 8244 8272 8276 8261 8229 8216 8216 8219 8206 8224 8229 8236 8237 8238 8259 8259 8254 8250 8268 8284 8272 8259 8220 8217 8219 8220 


