P2
80 60
8167
8034 8038 8031 8038 8039 8044 8050 8050 8057 8059 8059 8065 8070 8074 8078 8086 8093 8098 8099 8099 8101 8100 8102 8105 8106 8108 8104 8107 8110 8111 8114 8115 8122 8127 8130 8133 8138 8134 8136 8135 8138 8135 8134 8135 8128 8124 8125 8123 8123 8123 8119 8120 8118 8119 8117 8116 8116 8116 8117 8120 8122 8124 8124 8123 8126 8123 8118 8121 8121 8122 8125 8128 8131 8130 8133 8135 8136 8133 8131 8131 
8037 8045 8046 8056 8061 8063 8065 8073 8076 8081 8089 8089 8095 8094 8098 8100 8102 8102 8104 8101 8104 8102 8104 8103 8109 8107 8109 8112 8116 8114 8120 8119 8124 8129 8131 8135 8139 8141 8137 8139 8142 8139 8139 8135 8132 8128 8129 8122 8125 8123 8122 8122 8116 8116 8115 8114 8118 8118 8121 8120 8124 8127 8123 8128 8129 8127 8117 8122 8120 8125 8125 8132 8133 8136 8132 8138 8135 8133 8130 8127 
8062 8072 8072 8079 8087 8090 8093 8093 8092 8092 8096 8098 8101 8097 8101 8101 8103 8104 8104 8104 8107 8108 8108 8105 8111 8112 8114 8115 8120 8119 8121 8125 8126 8132 8132 8137 8142 8143 8142 8144 8141 8144 8142 8141 8134 8129 8129 8125 8125 8123 8119 8120 8119 8117 8118 8118 8119 8118 8120 8123 8122 8128 8126 8126 8128 8123 8121 8121 8121 8122 8126 8130 8132 8133 8132 8134 8134 8134 8130 8128 
8090 8095 8094 8098 8099 8097 8099 8097 8095 8094 8093 8096 8101 8104 8101 8102 8108 8105 8107 8110 8108 8107 8107 8109 8116 8114 8118 8121 8124 8123 8126 8127 8132 8135 8141 8144 8142 8148 8146 8146 8146 8144 8146 8144 8140 8134 8131 8129 8124 8125 8122 8124 8117 8119 8120 8117 8118 8121 8120 8122 8125 8129 8126 8127 8127 8123 8119 8123 8123 8122 8125 8129 8130 8133 8129 8132 8132 8130 8127 8124 
8098 8098 8096 8101 8102 8102 8103 8098 8099 8095 8093 8100 8103 8105 8108 8108 8111 8112 8111 8111 8109 8112 8113 8117 8118 8119 8120 8123 8126 8125 8128 8133 8137 8139 8139 8141 8142 8147 8146 8149 8146 8144 8147 8145 8141 8139 8134 8131 8124 8126 8119 8121 8119 8121 8122 8121 8122 8121 8121 8122 8124 8127 8126 8125 8125 8126 8118 8121 8119 8121 8124 8129 8127 8131 8130 8133 8129 8129 8124 8116 
8101 8102 8103 8105 8105 8105 8102 8098 8102 8100 8100 8105 8108 8110 8112 8111 8117 8113 8115 8112 8113 8117 8118 8114 8121 8121 8124 8126 8127 8130 8130 8138 8140 8139 8142 8146 8146 8149 8149 8149 8152 8151 8149 8146 8142 8139 8138 8132 8125 8130 8122 8122 8120 8122 8122 8121 8119 8123 8120 8123 8124 8125 8123 8124 8126 8126 8123 8119 8119 8120 8120 8125 8124 8125 8129 8128 8125 8126 8122 8118 
8107 8108 8107 8113 8113 8113 8110 8108 8106 8106 8108 8111 8111 8113 8116 8115 8117 8114 8112 8116 8114 8116 8120 8122 8121 8123 8126 8127 8132 8134 8133 8142 8142 8143 8145 8150 8147 8151 8150 8150 8151 8152 8149 8145 8143 8142 8133 8131 8128 8128 8124 8123 8119 8119 8120 8120 8121 8125 8124 8122 8127 8127 8124 8127 8129 8126 8123 8119 8118 8116 8117 8122 8118 8126 8122 8124 8122 8119 8116 8108 
8108 8108 8114 8112 8113 8114 8115 8112 8111 8107 8108 8113 8115 8115 8114 8116 8117 8115 8118 8120 8119 8122 8124 8123 8127 8127 8129 8129 8137 8135 8137 8140 8140 8142 8146 8151 8149 8153 8152 8153 8155 8152 8151 8146 8145 8143 8136 8133 8131 8129 8120 8122 8121 8122 8123 8120 8123 8120 8122 8123 8126 8127 8126 8126 8127 8128 8126 8117 8110 8108 8109 8114 8112 8116 8113 8112 8111 8107 8101 8108 
8108 8114 8113 8116 8115 8116 8116 8116 8114 8114 8112 8112 8114 8113 8113 8115 8119 8117 8116 8123 8121 8125 8131 8130 8129 8130 8129 8132 8136 8136 8139 8144 8143 8143 8146 8149 8148 8152 8152 8152 8151 8151 8151 8147 8145 8144 8136 8135 8134 8128 8126 8123 8119 8119 8125 8122 8124 8122 8125 8124 8128 8131 8129 8124 8129 8125 8127 8117 8100 8095 8094 8097 8098 8101 8098 8098 8099 8102 8104 8102 
8111 8114 8114 8112 8121 8118 8119 8118 8114 8115 8111 8113 8115 8116 8116 8118 8119 8120 8118 8126 8126 8127 8128 8128 8130 8128 8133 8135 8137 8138 8139 8139 8142 8144 8144 8148 8151 8152 8153 8152 8148 8150 8150 8144 8146 8144 8140 8137 8136 8129 8126 8125 8123 8121 8126 8126 8123 8125 8126 8127 8128 8129 8134 8128 8128 8129 8125 8119 8096 8093 8094 8094 8096 8095 8098 8101 8103 8107 8106 8104 
8109 8114 8112 8118 8115 8117 8117 8116 8115 8113 8113 8113 8114 8114 8119 8119 8123 8124 8125 8127 8127 8128 8129 8129 8132 8132 8135 8136 8137 8141 8136 8139 8139 8142 8147 8147 8146 8149 8151 8145 8145 8139 8141 8139 8144 8143 8143 8138 8136 8131 8127 8126 8121 8125 8127 8127 8126 8126 8129 8131 8132 8134 8130 8128 8129 8129 8124 8123 8106 8097 8097 8100 8100 8101 8105 8110 8113 8109 8110 8108 
8110 8114 8117 8116 8115 8115 8115 8118 8113 8115 8113 8113 8115 8119 8118 8121 8125 8129 8127 8128 8129 8129 8130 8128 8129 8130 8133 8136 8139 8139 8137 8139 8142 8143 8142 8142 8148 8150 8151 8144 8134 8106 8095 8094 8113 8124 8139 8141 8137 8135 8129 8129 8129 8128 8130 8126 8128 8128 8130 8129 8134 8136 8134 8135 8135 8126 8124 8124 8114 8103 8105 8108 8107 8105 8109 8114 8117 8116 8114 8110 
8110 8118 8113 8114 8114 8115 8116 8115 8116 8115 8114 8115 8118 8119 8120 8126 8131 8130 8131 8131 8130 8130 8129 8130 8132 8135 8134 8138 8140 8139 8138 8141 8140 8140 8144 8144 8146 8145 8143 8138 8112 8079 8074 8075 8082 8114 8136 8139 8139 8137 8132 8131 8129 8128 8130 8130 8129 8132 8131 8131 8134 8134 8132 8129 8130 8128 8124 8124 8118 8114 8113 8113 8111 8117 8118 8119 8122 8119 8116 8113 
8113 8115 8113 8119 8118 8115 8119 8116 8116 8119 8119 8119 8122 8119 8124 8125 8129 8133 8132 8134 8129 8131 8133 8128 8131 8136 8137 8138 8139 8137 8136 8139 8142 8138 8144 8145 8147 8148 8144 8123 8087 8087 8071 8064 8081 8093 8108 8131 8140 8137 8133 8134 8130 8130 8129 8132 8129 8130 8128 8134 8128 8133 8137 8132 8134 8129 8127 8126 8123 8117 8114 8117 8117 8123 8126 8122 8126 8125 8119 8117 
8116 8121 8114 8120 8118 8119 8118 8121 8115 8121 8123 8122 8124 8125 8126 8128 8129 8134 8131 8132 8130 8131 8130 8130 8132 8133 8135 8133 8136 8134 8137 8136 8136 8138 8142 8142 8142 8136 8121 8079 8074 8088 8070 8069 8073 8091 8107 8117 8139 8137 8136 8134 8129 8132 8131 8130 8129 8131 8131 8131 8129 8136 8133 8133 8135 8131 8124 8126 8125 8123 8115 8119 8118 8122 8124 8127 8127 8126 8123 8122 
8116 8119 8118 8122 8123 8122 8120 8121 8117 8122 8124 8125 8126 8128 8129 8129 8128 8131 8134 8134 8130 8132 8132 8127 8133 8133 8131 8135 8137 8133 8135 8136 8137 8137 8140 8137 8130 8100 8073 8070 8068 8091 8076 8083 8073 8076 8107 8131 8140 8139 8134 8134 8132 8132 8129 8130 8130 8130 8129 8131 8130 8134 8132 8132 8131 8133 8127 8128 8126 8123 8116 8117 8121 8125 8125 8127 8125 8128 8126 8122 
8116 8122 8118 8125 8123 8122 8125 8124 8123 8123 8127 8125 8127 8130 8130 8130 8128 8131 8130 8129 8132 8130 8133 8128 8133 8131 8132 8134 8136 8133 8132 8131 8134 8135 8130 8122 8123 8119 8120 8127 8084 8083 8070 8070 8070 8083 8097 8115 8135 8141 8135 8135 8132 8129 8127 8128 8127 8129 8130 8128 8130 8130 8134 8132 8135 8136 8131 8126 8126 8119 8118 8117 8121 8123 8125 8127 8127 8126 8124 8122 
8119 8122 8118 8121 8121 8124 8124 8126 8125 8130 8127 8129 8130 8132 8133 8131 8130 8129 8130 8132 8131 8127 8132 8129 8134 8133 8133 8133 8135 8133 8133 8134 8132 8120 8116 8122 8125 8123 8122 8084 8061 8069 8067 8068 8065 8089 8116 8122 8126 8137 8134 8138 8128 8131 8127 8130 8129 8130 8130 8127 8127 8133 8129 8134 8132 8133 8130 8127 8126 8120 8121 8118 8120 8122 8127 8127 8128 8127 8126 8121 
8123 8121 8118 8119 8126 8129 8130 8128 8131 8132 8129 8129 8130 8134 8132 8133 8133 8131 8131 8131 8130 8129 8133 8131 8134 8133 8131 8134 8134 8130 8130 8130 8118 8115 8119 8123 8118 8116 8096 8065 8059 8061 8077 8065 8066 8084 8109 8121 8118 8124 8132 8132 8127 8131 8131 8131 8129 8130 8130 8130 8130 8135 8132 8134 8131 8132 8132 8126 8126 8124 8124 8119 8122 8122 8123 8125 8128 8130 8125 8121 
8124 8123 8121 8123 8124 8124 8129 8131 8130 8132 8131 8132 8133 8136 8137 8133 8135 8133 8130 8131 8131 8132 8131 8130 8133 8132 8130 8131 8132 8131 8129 8121 8112 8116 8117 8106 8092 8089 8066 8060 8059 8058 8068 8067 8070 8076 8095 8108 8111 8113 8110 8099 8113 8130 8129 8131 8129 8128 8128 8129 8131 8134 8130 8132 8133 8133 8134 8129 8127 8125 8121 8118 8118 8122 8123 8123 8126 8125 8125 8120 
8124 8126 8121 8126 8123 8126 8129 8127 8132 8129 8130 8129 8132 8133 8134 8131 8131 8130 8129 8133 8132 8130 8129 8128 8130 8113 8119 8132 8132 8131 8121 8110 8113 8108 8096 8078 8062 8065 8063 8062 8066 8066 8070 8075 8072 8070 8076 8081 8091 8086 8071 8082 8119 8133 8127 8132 8129 8130 8128 8130 8134 8132 8133 8132 8136 8133 8132 8132 8127 8122 8122 8119 8117 8117 8120 8126 8125 8129 8130 8124 
8124 8126 8124 8125 8127 8128 8129 8129 8130 8131 8134 8134 8133 8136 8135 8131 8129 8131 8132 8127 8129 8130 8130 8130 8127 8096 8093 8121 8131 8126 8114 8110 8091 8075 8074 8061 8061 8074 8073 8066 8077 8071 8074 8073 8070 8071 8072 8069 8075 8070 8069 8099 8121 8128 8127 8132 8130 8129 8128 8130 8132 8132 8132 8132 8132 8134 8134 8132 8128 8125 8123 8121 8119 8118 8122 8124 8125 8129 8127 8126 
8126 8126 8123 8127 8130 8131 8130 8129 8132 8133 8131 8131 8135 8136 8132 8131 8131 8130 8128 8130 8130 8130 8131 8128 8125 8093 8088 8093 8119 8121 8107 8110 8082 8059 8057 8063 8071 8071 8067 8066 8069 8076 8067 8066 8072 8072 8070 8065 8065 8067 8084 8077 8089 8125 8131 8131 8130 8129 8134 8128 8133 8134 8131 8136 8134 8137 8136 8136 8128 8125 8124 8121 8118 8121 8126 8122 8123 8126 8130 8128 
8127 8128 8125 8128 8132 8129 8127 8129 8133 8132 8135 8132 8134 8133 8135 8133 8132 8131 8130 8128 8131 8133 8131 8130 8131 8121 8096 8090 8094 8107 8108 8105 8077 8058 8063 8077 8070 8067 8061 8069 8084 8078 8070 8067 8073 8071 8070 8068 8069 8070 8092 8100 8117 8131 8128 8131 8128 8129 8130 8131 8133 8135 8133 8134 8135 8136 8136 8136 8131 8127 8126 8122 8122 8122 8121 8127 8124 8130 8128 8124 
8126 8128 8129 8134 8131 8131 8130 8131 8134 8133 8138 8133 8137 8135 8137 8133 8132 8131 8131 8132 8131 8130 8131 8132 8132 8133 8118 8096 8087 8087 8100 8097 8083 8060 8055 8063 8073 8072 8063 8067 8072 8080 8075 8069 8075 8072 8069 8074 8067 8073 8069 8079 8115 8130 8130 8132 8129 8133 8130 8130 8132 8136 8134 8136 8137 8139 8136 8136 8131 8126 8128 8122 8122 8119 8118 8118 8126 8129 8129 8125 
8128 8137 8131 8132 8132 8133 8131 8130 8134 8135 8139 8132 8136 8134 8135 8135 8134 8132 8128 8131 8131 8131 8131 8132 8136 8134 8130 8120 8097 8093 8093 8094 8085 8060 8059 8058 8063 8068 8074 8068 8077 8083 8067 8069 8071 8070 8076 8076 8068 8084 8098 8076 8096 8129 8128 8131 8127 8131 8132 8131 8134 8137 8134 8133 8136 8137 8136 8137 8135 8128 8127 8124 8123 8120 8122 8122 8127 8128 8128 8125 
8128 8134 8132 8133 8134 8131 8133 8132 8134 8134 8133 8137 8137 8135 8138 8135 8134 8129 8129 8130 8129 8131 8129 8129 8132 8133 8132 8132 8122 8096 8087 8086 8075 8061 8069 8065 8060 8066 8072 8072 8071 8079 8068 8071 8072 8073 8084 8081 8078 8078 8097 8109 8090 8127 8130 8134 8132 8134 8131 8131 8134 8136 8127 8129 8135 8136 8137 8134 8131 8127 8127 8125 8127 8120 8121 8121 8122 8125 8125 8124 
8133 8139 8133 8135 8130 8135 8133 8134 8137 8137 8138 8136 8136 8135 8136 8135 8135 8131 8132 8130 8130 8129 8132 8130 8130 8130 8134 8132 8132 8114 8093 8089 8068 8078 8082 8075 8066 8065 8069 8069 8063 8072 8069 8070 8072 8072 8081 8086 8090 8097 8101 8110 8119 8130 8133 8133 8132 8132 8133 8135 8136 8135 8133 8135 8136 8138 8137 8139 8137 8129 8127 8125 8126 8121 8126 8122 8123 8127 8127 8123 
8134 8140 8134 8134 8132 8136 8135 8136 8137 8140 8136 8137 8137 8137 8135 8135 8133 8133 8132 8131 8130 8129 8130 8131 8133 8130 8133 8133 8131 8118 8111 8098 8085 8092 8088 8084 8067 8066 8066 8067 8072 8073 8078 8075 8078 8079 8085 8087 8093 8103 8106 8112 8125 8131 8132 8134 8135 8135 8131 8134 8136 8135 8136 8136 8138 8134 8134 8138 8137 8128 8126 8127 8129 8125 8123 8123 8124 8125 8126 8127 
8135 8138 8136 8133 8136 8135 8137 8138 8138 8142 8141 8141 8139 8137 8135 8136 8137 8132 8133 8131 8132 8128 8132 8132 8133 8135 8132 8129 8131 8123 8112 8106 8093 8092 8095 8088 8068 8067 8073 8070 8073 8068 8072 8074 8079 8085 8091 8097 8104 8106 8110 8118 8125 8130 8130 8132 8132 8133 8132 8134 8134 8138 8137 8136 8138 8137 8137 8137 8139 8132 8129 8127 8128 8127 8124 8124 8125 8124 8128 8123 
8136 8141 8135 8137 8134 8141 8141 8139 8139 8142 8140 8139 8140 8135 8137 8137 8134 8133 8132 8135 8132 8134 8132 8135 8136 8139 8134 8132 8132 8129 8111 8110 8095 8092 8088 8090 8094 8081 8074 8071 8073 8071 8073 8075 8075 8076 8089 8095 8102 8103 8111 8124 8129 8134 8132 8133 8133 8134 8133 8134 8135 8137 8136 8135 8138 8136 8138 8135 8137 8133 8133 8128 8128 8129 8125 8124 8129 8128 8126 8125 
8138 8140 8137 8139 8137 8142 8137 8140 8141 8142 8141 8138 8140 8137 8138 8135 8136 8137 8135 8134 8135 8135 8135 8137 8140 8138 8138 8135 8132 8127 8119 8113 8098 8091 8099 8098 8098 8094 8080 8071 8068 8071 8079 8084 8076 8074 8087 8100 8106 8113 8118 8130 8127 8132 8133 8130 8131 8133 8133 8130 8137 8138 8136 8134 8135 8135 8139 8138 8139 8135 8134 8130 8130 8127 8127 8123 8127 8129 8126 8128 
8139 8143 8140 8141 8138 8143 8144 8143 8146 8142 8140 8139 8136 8137 8136 8135 8135 8135 8136 8140 8135 8138 8138 8138 8143 8141 8137 8138 8132 8128 8118 8111 8110 8102 8100 8100 8099 8100 8091 8088 8070 8066 8083 8090 8088 8085 8093 8104 8112 8116 8121 8132 8125 8130 8132 8133 8128 8131 8136 8133 8134 8137 8138 8138 8137 8135 8136 8140 8140 8137 8138 8134 8133 8129 8129 8127 8127 8125 8129 8125 
8142 8145 8137 8142 8142 8142 8143 8143 8146 8146 8142 8139 8140 8138 8138 8138 8138 8139 8135 8138 8138 8140 8137 8138 8142 8139 8136 8135 8132 8129 8120 8106 8085 8111 8108 8102 8100 8100 8097 8092 8084 8081 8096 8095 8093 8102 8109 8111 8114 8114 8127 8130 8130 8133 8130 8133 8130 8134 8133 8135 8133 8140 8132 8135 8135 8137 8137 8141 8139 8138 8136 8135 8131 8132 8129 8128 8129 8129 8128 8125 
8143 8148 8142 8148 8142 8145 8149 8148 8144 8142 8141 8139 8139 8138 8141 8136 8139 8136 8138 8140 8137 8137 8136 8134 8138 8136 8137 8137 8136 8129 8123 8113 8081 8086 8110 8112 8105 8102 8103 8100 8098 8097 8100 8101 8109 8110 8118 8114 8106 8124 8125 8134 8128 8131 8130 8136 8133 8136 8137 8133 8139 8138 8135 8135 8134 8135 8136 8137 8138 8141 8136 8138 8131 8130 8133 8131 8125 8128 8130 8122 
8146 8150 8142 8141 8142 8144 8146 8146 8147 8144 8141 8142 8142 8138 8138 8137 8136 8136 8136 8137 8138 8137 8137 8135 8140 8137 8137 8137 8135 8128 8119 8117 8106 8095 8084 8091 8116 8111 8112 8104 8102 8102 8106 8110 8117 8116 8112 8104 8116 8128 8126 8131 8129 8127 8130 8134 8133 8132 8135 8136 8140 8137 8133 8133 8137 8137 8138 8142 8140 8140 8140 8140 8138 8135 8135 8132 8128 8130 8126 8129 
8146 8151 8148 8145 8144 8147 8148 8146 8145 8142 8142 8143 8141 8142 8142 8137 8138 8138 8138 8137 8136 8138 8138 8135 8139 8136 8136 8135 8134 8127 8127 8122 8116 8108 8097 8072 8075 8092 8106 8108 8113 8107 8114 8104 8098 8101 8105 8118 8122 8130 8127 8134 8129 8132 8133 8132 8134 8136 8139 8140 8136 8135 8135 8134 8137 8134 8136 8138 8141 8144 8142 8140 8136 8135 8133 8131 8131 8131 8131 8129 
8151 8151 8151 8146 8145 8149 8150 8145 8147 8142 8144 8142 8142 8139 8138 8137 8138 8139 8135 8138 8138 8138 8139 8135 8135 8133 8135 8136 8135 8132 8126 8123 8119 8120 8113 8102 8090 8084 8079 8084 8088 8092 8092 8099 8098 8109 8120 8123 8123 8130 8129 8135 8130 8131 8133 8132 8134 8136 8140 8137 8135 8136 8137 8134 8136 8137 8136 8143 8142 8143 8143 8143 8136 8137 8133 8135 8132 8130 8132 8127 
8152 8154 8151 8148 8147 8149 8147 8144 8143 8144 8146 8143 8139 8140 8139 8138 8140 8139 8138 8141 8142 8140 8138 8135 8135 8137 8137 8135 8136 8133 8129 8127 8127 8124 8121 8119 8115 8106 8101 8098 8101 8103 8105 8113 8118 8123 8121 8124 8125 8130 8130 8135 8132 8136 8134 8134 8139 8139 8141 8139 8139 8136 8140 8136 8136 8139 8137 8140 8140 8144 8139 8143 8136 8139 8136 8136 8134 8133 8131 8129 
8154 8151 8149 8149 8146 8148 8144 8147 8144 8143 8142 8141 8142 8141 8138 8136 8135 8136 8137 8138 8136 8140 8137 8136 8137 8139 8136 8138 8136 8135 8131 8129 8128 8128 8127 8124 8124 8123 8120 8118 8119 8122 8122 8123 8124 8101 8093 8114 8124 8130 8133 8135 8131 8131 8135 8135 8138 8139 8142 8139 8139 8140 8139 8138 8137 8139 8139 8146 8142 8143 8143 8144 8138 8136 8136 8135 8135 8132 8133 8125 
8152 8152 8151 8147 8145 8147 8146 8145 8144 8147 8146 8141 8144 8141 8139 8137 8138 8135 8140 8137 8136 8137 8138 8137 8136 8137 8133 8137 8135 8136 8133 8130 8133 8130 8134 8133 8130 8131 8129 8125 8128 8131 8129 8130 8128 8079 8064 8084 8115 8131 8132 8137 8133 8135 8140 8139 8143 8140 8140 8137 8140 8139 8141 8142 8140 8141 8140 8141 8143 8140 8141 8142 8140 8141 8139 8137 8136 8129 8129 8129 
8150 8152 8147 8144 8143 8147 8145 8146 8145 8146 8140 8142 8142 8140 8140 8138 8138 8133 8133 8136 8132 8135 8134 8136 8133 8139 8133 8136 8135 8135 8137 8137 8134 8135 8140 8140 8136 8139 8137 8137 8137 8139 8139 8140 8138 8121 8105 8105 8123 8133 8132 8134 8132 8134 8138 8140 8143 8142 8145 8139 8141 8141 8142 8140 8139 8138 8139 8143 8143 8141 8142 8142 8141 8138 8137 8137 8134 8130 8126 8125 
8148 8151 8143 8142 8138 8144 8142 8142 8142 8140 8143 8142 8140 8142 8141 8138 8137 8137 8134 8132 8134 8136 8133 8135 8136 8136 8132 8135 8136 8135 8134 8137 8138 8141 8141 8140 8141 8146 8141 8141 8143 8142 8145 8146 8145 8143 8139 8137 8136 8135 8131 8139 8133 8136 8141 8139 8141 8140 8138 8140 8143 8141 8142 8144 8137 8139 8137 8139 8139 8141 8143 8144 8142 8142 8137 8139 8132 8128 8128 8124 
8150 8149 8144 8143 8139 8142 8143 8141 8144 8140 8142 8141 8143 8144 8143 8138 8139 8137 8132 8135 8138 8135 8133 8132 8132 8135 8134 8136 8135 8137 8137 8139 8143 8141 8142 8142 8144 8142 8141 8143 8145 8147 8151 8151 8152 8151 8147 8141 8144 8141 8135 8133 8131 8135 8140 8141 8141 8140 8142 8142 8142 8144 8145 8142 8139 8140 8139 8141 8137 8140 8142 8145 8146 8144 8142 8139 8136 8132 8126 8128 
8147 8148 8143 8141 8143 8142 8141 8142 8142 8143 8142 8140 8141 8142 8143 8140 8137 8133 8134 8137 8134 8133 8134 8136 8136 8132 8132 8135 8137 8137 8137 8139 8142 8145 8140 8142 8146 8146 8148 8146 8150 8151 8152 8156 8156 8153 8152 8146 8145 8141 8140 8138 8136 8136 8141 8142 8139 8139 8140 8141 8145 8145 8144 8144 8140 8142 8138 8140 8139 8143 8143 8144 8143 8145 8141 8145 8139 8132 8130 8127 
8149 8147 8141 8145 8140 8140 8142 8141 8143 8143 8145 8142 8142 8140 8141 8140 8140 8135 8134 8135 8131 8135 8133 8134 8133 8136 8135 8136 8136 8137 8140 8139 8143 8141 8142 8141 8144 8146 8148 8151 8152 8153 8154 8158 8158 8156 8151 8148 8145 8143 8138 8137 8137 8135 8139 8138 8140 8139 8140 8141 8144 8142 8146 8143 8138 8140 8137 8142 8141 8139 8142 8146 8146 8151 8148 8143 8139 8129 8130 8128 
8151 8149 8142 8138 8143 8139 8142 8143 8139 8141 8142 8143 8144 8140 8138 8141 8138 8136 8137 8134 8133 8135 8137 8137 8137 8138 8135 8136 8139 8138 8139 8137 8141 8143 8144 8147 8146 8148 8149 8148 8152 8154 8155 8159 8160 8156 8154 8149 8145 8144 8141 8139 8140 8139 8141 8137 8139 8140 8138 8138 8141 8142 8142 8141 8138 8140 8137 8139 8141 8140 8144 8146 8150 8149 8150 8146 8136 8133 8132 8130 
8146 8146 8142 8140 8143 8145 8142 8140 8145 8144 8143 8143 8140 8141 8140 8139 8136 8136 8136 8134 8136 8136 8134 8135 8133 8134 8134 8135 8135 8139 8139 8141 8143 8143 8145 8145 8148 8149 8150 8152 8153 8157 8157 8157 8156 8155 8153 8151 8146 8143 8141 8142 8139 8137 8138 8139 8139 8138 8140 8138 8141 8141 8139 8137 8137 8138 8139 8139 8142 8141 8144 8142 8147 8149 8149 8139 8135 8130 8133 8130 
8147 8147 8145 8143 8141 8144 8145 8145 8147 8147 8145 8145 8139 8140 8141 8136 8133 8134 8134 8135 8136 8135 8138 8139 8134 8137 8133 8135 8136 8137 8138 8140 8145 8144 8147 8148 8150 8152 8152 8153 8154 8156 8156 8159 8157 8157 8155 8153 8148 8148 8142 8141 8139 8136 8141 8137 8142 8136 8137 8136 8139 8139 8137 8137 8139 8136 8140 8143 8139 8142 8145 8141 8145 8144 8143 8139 8136 8132 8139 8131 
8141 8145 8141 8140 8140 8144 8141 8147 8145 8145 8139 8142 8141 8142 8139 8136 8134 8137 8138 8135 8134 8135 8136 8137 8137 8136 8137 8134 8136 8136 8138 8139 8144 8145 8147 8149 8151 8153 8157 8156 8156 8156 8159 8156 8158 8157 8155 8151 8147 8146 8138 8140 8140 8140 8137 8137 8140 8141 8140 8136 8137 8139 8137 8133 8136 8136 8137 8143 8139 8141 8140 8144 8143 8148 8145 8139 8135 8132 8142 8137 
8142 8143 8139 8139 8143 8141 8142 8140 8140 8139 8136 8139 8141 8136 8140 8135 8135 8136 8135 8134 8134 8131 8135 8135 8135 8134 8136 8135 8137 8137 8140 8140 8144 8146 8148 8149 8151 8150 8153 8153 8155 8159 8155 8157 8157 8159 8157 8152 8147 8149 8142 8142 8140 8139 8134 8138 8140 8136 8140 8138 8139 8138 8135 8135 8135 8136 8137 8136 8136 8139 8142 8144 8145 8145 8144 8143 8138 8130 8147 8139 
8140 8143 8138 8135 8136 8137 8139 8142 8136 8135 8137 8136 8138 8136 8133 8135 8131 8135 8132 8133 8132 8131 8134 8136 8133 8136 8134 8135 8133 8136 8138 8139 8144 8143 8145 8150 8154 8153 8153 8158 8156 8157 8156 8157 8160 8154 8156 8151 8147 8147 8139 8145 8139 8142 8139 8134 8141 8136 8140 8137 8137 8136 8130 8132 8133 8134 8136 8141 8141 8140 8141 8141 8147 8144 8141 8142 8134 8130 8152 8144 
8141 8143 8141 8137 8141 8137 8138 8137 8137 8137 8137 8135 8136 8135 8135 8131 8132 8134 8132 8132 8132 8131 8132 8132 8133 8135 8134 8134 8137 8136 8136 8140 8145 8141 8147 8148 8152 8152 8154 8153 8152 8157 8160 8159 8158 8160 8158 8153 8151 8147 8142 8142 8138 8141 8137 8135 8141 8134 8140 8136 8138 8137 8135 8133 8133 8131 8130 8138 8138 8138 8140 8141 8143 8143 8143 8141 8130 8130 8152 8146 
8143 8145 8138 8143 8139 8140 8139 8140 8141 8137 8138 8133 8135 8133 8134 8134 8133 8131 8130 8129 8132 8131 8132 8134 8134 8133 8130 8134 8135 8133 8135 8140 8142 8143 8145 8149 8152 8149 8154 8152 8153 8155 8157 8159 8160 8158 8155 8152 8149 8148 8145 8144 8139 8140 8140 8138 8137 8137 8135 8134 8134 8137 8135 8130 8133 8128 8130 8135 8137 8138 8141 8146 8141 8143 8138 8134 8129 8128 8154 8153 
8144 8146 8139 8143 8138 8139 8138 8137 8135 8140 8136 8135 8135 8136 8131 8129 8133 8130 8128 8129 8130 8129 8129 8129 8130 8131 8130 8133 8136 8133 8133 8137 8138 8141 8144 8146 8151 8148 8152 8155 8156 8154 8154 8154 8159 8160 8157 8151 8149 8152 8144 8143 8137 8142 8142 8137 8140 8134 8133 8135 8134 8136 8134 8131 8131 8126 8133 8131 8130 8134 8137 8141 8141 8139 8137 8133 8126 8129 8157 8153 
8145 8147 8140 8138 8139 8137 8135 8134 8134 8135 8133 8136 8135 8135 8131 8128 8128 8128 8131 8128 8127 8129 8129 8129 8127 8125 8128 8131 8130 8131 8131 8133 8136 8138 8143 8145 8147 8150 8154 8152 8153 8155 8153 8158 8159 8161 8154 8151 8148 8148 8141 8141 8136 8138 8135 8132 8134 8135 8131 8135 8131 8132 8127 8125 8127 8126 8127 8133 8132 8134 8138 8140 8135 8135 8135 8133 8134 8151 8164 8155 
8149 8146 8139 8138 8136 8138 8134 8134 8134 8134 8134 8134 8133 8130 8132 8131 8125 8125 8124 8124 8127 8125 8128 8125 8126 8121 8122 8130 8129 8131 8130 8131 8137 8136 8138 8142 8145 8147 8150 8147 8152 8150 8149 8151 8155 8153 8151 8147 8147 8144 8141 8139 8136 8133 8131 8130 8135 8132 8133 8127 8127 8127 8123 8122 8123 8121 8122 8130 8127 8127 8130 8132 8134 8134 8143 8153 8161 8160 8162 8157 
8146 8148 8138 8130 8131 8131 8134 8134 8130 8131 8130 8130 8128 8131 8126 8124 8123 8126 8125 8122 8122 8125 8126 8126 8130 8127 8124 8126 8130 8131 8134 8131 8132 8135 8138 8141 8142 8146 8146 8146 8147 8146 8147 8147 8151 8149 8153 8145 8143 8141 8138 8137 8131 8130 8127 8124 8126 8126 8128 8124 8124 8124 8119 8115 8116 8117 8119 8126 8128 8136 8147 8153 8153 8159 8164 8162 8162 8160 8160 8155 
8145 8144 8137 8133 8135 8131 8130 8131 8130 8127 8128 8126 8127 8125 8126 8123 8118 8120 8123 8121 8123 8123 8126 8124 8123 8126 8121 8124 8129 8129 8131 8130 8131 8133 8137 8137 8139 8140 8144 8144 8148 8147 8147 8145 8146 8147 8148 8144 8141 8141 8139 8137 8131 8130 8128 8129 8126 8127 8126 8120 8120 8115 8113 8112 8110 8115 8121 8129 8137 8147 8158 8167 8165 8166 8165 8165 8163 8157 8158 8155 
8146 8143 8136 8131 8135 8128 8132 8131 8131 8129 8129 8124 8127 8129 8125 8125 8125 8123 8128 8126 8126 8124 8127 8127 8127 8126 8126 8126 8127 8130 8129 8130 8130 8129 8135 8138 8137 8138 8143 8144 8144 8145 8150 8147 8146 8150 8148 8142 8143 8139 8135 8138 8129 8129 8124 8120 8121 8115 8112 8109 8109 8106 8107 8109 8111 8119 8124 8132 8139 8147 8160 8166 8165 8166 8166 8162 8160 8153 8155 8157 


