P2
80 60
8334
8296 8301 8304 8304 8298 8296 8298 8298 8299 8296 8297 8294 8297 8303 8297 8300 8304 8302 8301 8303 8304 8302 8300 8303 8301 8302 8304 8307 8308 8309 8308 8308 8314 8310 8309 8310 8313 8310 8309 8306 8304 8311 8307 8304 8305 8300 8298 8301 8299 8294 8293 8293 8288 8289 8288 8286 8284 8281 8287 8284 8286 8286 8285 8284 8284 8278 8278 8279 8274 8274 8273 8274 8273 8273 8274 8272 8268 8269 8271 8268 
8302 8300 8305 8301 8299 8300 8299 8300 8297 8295 8296 8295 8296 8302 8301 8302 8301 8301 8300 8298 8301 8297 8298 8306 8306 8303 8304 8310 8309 8308 8308 8309 8311 8307 8310 8311 8313 8310 8308 8309 8305 8310 8308 8305 8303 8297 8297 8299 8297 8296 8292 8290 8287 8287 8289 8285 8282 8283 8284 8282 8286 8287 8284 8282 8284 8277 8277 8280 8274 8272 8274 8276 8275 8270 8275 8272 8271 8268 8269 8265 
8300 8304 8302 8294 8295 8297 8299 8297 8294 8296 8293 8292 8295 8302 8299 8303 8302 8302 8298 8301 8300 8299 8295 8303 8305 8303 8306 8311 8312 8307 8308 8311 8310 8309 8309 8309 8313 8310 8306 8306 8305 8308 8307 8303 8301 8298 8297 8296 8296 8294 8292 8289 8286 8289 8289 8284 8286 8282 8283 8281 8284 8284 8282 8283 8283 8282 8278 8279 8274 8275 8274 8276 8272 8272 8275 8275 8274 8271 8271 8266 
8299 8303 8301 8296 8292 8297 8295 8293 8294 8292 8293 8293 8295 8298 8294 8300 8297 8301 8296 8300 8297 8295 8298 8303 8303 8302 8306 8308 8309 8307 8307 8308 8311 8306 8305 8307 8307 8306 8305 8307 8301 8307 8304 8300 8298 8294 8295 8295 8294 8291 8291 8286 8283 8287 8284 8284 8283 8283 8281 8281 8282 8282 8282 8281 8283 8277 8277 8279 8276 8274 8273 8275 8276 8273 8274 8277 8274 8270 8269 8268 
8298 8296 8299 8294 8291 8294 8291 8294 8287 8290 8291 8289 8295 8297 8293 8294 8296 8293 8293 8296 8294 8297 8293 8299 8301 8299 8304 8309 8307 8307 8306 8307 8310 8305 8304 8305 8307 8305 8305 8303 8300 8302 8302 8298 8295 8293 8291 8293 8292 8290 8286 8289 8285 8284 8282 8284 8282 8281 8283 8279 8279 8282 8280 8279 8282 8276 8276 8276 8278 8273 8273 8273 8270 8272 8275 8274 8273 8271 8271 8265 
8295 8301 8293 8291 8291 8292 8290 8288 8291 8288 8288 8288 8294 8295 8289 8295 8293 8292 8292 8296 8296 8293 8294 8302 8300 8298 8303 8308 8309 8305 8304 8304 8307 8305 8305 8303 8308 8303 8302 8304 8300 8304 8299 8298 8295 8294 8291 8292 8290 8286 8286 8285 8285 8286 8281 8281 8283 8282 8282 8278 8281 8279 8276 8275 8280 8276 8275 8277 8276 8274 8273 8273 8270 8269 8273 8271 8272 8270 8268 8268 
8293 8294 8293 8289 8288 8287 8287 8286 8287 8288 8285 8281 8289 8288 8288 8290 8292 8292 8290 8294 8292 8289 8295 8299 8301 8297 8302 8305 8302 8300 8299 8304 8302 8304 8303 8305 8304 8301 8303 8300 8300 8301 8301 8295 8298 8294 8293 8290 8291 8286 8285 8285 8285 8283 8279 8280 8283 8280 8279 8276 8278 8277 8276 8273 8275 8272 8273 8273 8269 8271 8271 8270 8267 8266 8267 8267 8268 8265 8268 8261 
8292 8294 8294 8289 8289 8285 8288 8289 8289 8282 8286 8286 8289 8291 8290 8292 8292 8294 8293 8296 8292 8294 8297 8301 8299 8299 8305 8310 8306 8302 8303 8305 8309 8300 8303 8305 8303 8303 8304 8298 8299 8300 8299 8299 8295 8295 8290 8293 8290 8287 8282 8284 8282 8284 8282 8280 8281 8281 8279 8278 8277 8277 8278 8272 8274 8272 8270 8268 8270 8267 8268 8267 8262 8265 8265 8260 8262 8262 8265 8256 
8291 8293 8288 8292 8287 8287 8289 8287 8293 8285 8286 8288 8288 8294 8290 8293 8292 8293 8295 8294 8294 8291 8294 8304 8303 8300 8306 8309 8304 8303 8300 8303 8307 8303 8301 8302 8303 8304 8299 8299 8295 8301 8301 8298 8294 8294 8291 8290 8292 8287 8287 8286 8284 8285 8282 8284 8281 8278 8278 8275 8278 8276 8274 8273 8278 8272 8271 8269 8266 8265 8266 8265 8263 8265 8264 8262 8261 8260 8261 8252 
8288 8290 8288 8289 8283 8285 8287 8288 8290 8291 8289 8286 8291 8291 8291 8293 8293 8292 8294 8293 8293 8293 8297 8301 8302 8299 8302 8304 8303 8301 8300 8300 8305 8300 8301 8299 8302 8302 8298 8298 8296 8298 8298 8297 8295 8291 8286 8291 8288 8287 8283 8284 8286 8283 8282 8280 8279 8278 8276 8278 8280 8279 8273 8273 8275 8267 8268 8267 8264 8265 8262 8264 8259 8264 8264 8257 8257 8255 8255 8252 
8283 8285 8288 8285 8277 8283 8283 8285 8284 8282 8286 8285 8291 8290 8291 8292 8294 8293 8296 8292 8293 8295 8294 8300 8299 8295 8301 8304 8302 8299 8299 8302 8304 8298 8299 8298 8301 8304 8299 8295 8293 8298 8294 8293 8293 8288 8289 8287 8287 8285 8285 8283 8282 8283 8280 8279 8278 8274 8275 8275 8276 8275 8275 8272 8274 8270 8268 8269 8267 8266 8265 8261 8256 8263 8261 8257 8254 8253 8253 8251 
8282 8284 8286 8279 8282 8284 8284 8282 8282 8277 8285 8286 8288 8291 8288 8290 8292 8290 8292 8292 8293 8294 8292 8299 8296 8297 8300 8304 8301 8299 8296 8302 8304 8298 8297 8296 8300 8298 8298 8293 8290 8294 8293 8291 8289 8289 8286 8283 8285 8282 8280 8280 8280 8281 8278 8278 8278 8273 8276 8271 8274 8276 8269 8270 8271 8268 8264 8266 8262 8263 8262 8259 8256 8259 8259 8259 8254 8252 8252 8250 
8281 8285 8285 8279 8278 8281 8283 8282 8280 8280 8285 8285 8288 8289 8288 8291 8289 8292 8290 8290 8289 8295 8294 8297 8299 8296 8299 8300 8301 8296 8300 8298 8301 8297 8298 8296 8296 8293 8294 8290 8290 8296 8292 8289 8288 8284 8283 8282 8284 8279 8279 8278 8280 8279 8275 8276 8274 8275 8271 8270 8270 8273 8271 8268 8269 8267 8262 8265 8260 8262 8259 8260 8256 8257 8257 8251 8251 8249 8248 8246 
8280 8284 8283 8281 8279 8282 8281 8281 8279 8282 8282 8283 8287 8287 8289 8288 8289 8288 8290 8289 8291 8290 8291 8297 8295 8294 8299 8301 8300 8298 8295 8295 8299 8295 8294 8296 8296 8295 8293 8291 8290 8293 8289 8286 8286 8283 8282 8284 8281 8279 8280 8274 8278 8274 8274 8272 8274 8270 8272 8271 8271 8268 8269 8266 8268 8261 8264 8263 8259 8257 8256 8256 8253 8259 8255 8255 8246 8243 8247 8245 
8276 8282 8281 8278 8278 8278 8278 8280 8279 8279 8282 8282 8282 8286 8286 8287 8286 8285 8287 8285 8288 8288 8286 8293 8292 8291 8294 8298 8297 8292 8294 8293 8297 8293 8290 8296 8294 8293 8288 8288 8288 8290 8288 8288 8283 8285 8278 8281 8281 8282 8275 8275 8274 8272 8271 8273 8272 8271 8271 8266 8268 8267 8268 8264 8264 8259 8259 8259 8258 8255 8255 8253 8253 8251 8251 8248 8244 8246 8245 8243 
8277 8280 8279 8278 8275 8279 8279 8280 8282 8277 8278 8277 8278 8282 8283 8285 8283 8285 8289 8287 8286 8287 8285 8289 8292 8289 8295 8294 8296 8294 8291 8296 8292 8289 8288 8294 8292 8289 8289 8285 8286 8290 8284 8285 8283 8282 8279 8283 8281 8279 8276 8273 8272 8279 8270 8273 8273 8272 8271 8269 8266 8267 8264 8263 8265 8259 8258 8259 8259 8255 8253 8253 8250 8253 8252 8249 8246 8245 8248 8241 
8274 8278 8278 8278 8276 8273 8279 8277 8274 8278 8276 8278 8280 8284 8283 8285 8282 8285 8283 8285 8285 8287 8285 8291 8289 8288 8294 8294 8298 8295 8292 8293 8291 8289 8286 8288 8292 8288 8287 8287 8283 8286 8285 8284 8280 8280 8278 8280 8279 8278 8275 8276 8273 8273 8274 8271 8275 8272 8271 8269 8268 8266 8267 8261 8264 8258 8256 8258 8258 8254 8251 8251 8249 8251 8250 8251 8248 8246 8245 8242 
8277 8280 8277 8279 8272 8277 8276 8279 8275 8276 8276 8279 8281 8280 8283 8285 8283 8283 8284 8284 8284 8285 8286 8291 8288 8286 8293 8290 8293 8290 8290 8291 8290 8287 8287 8284 8289 8289 8287 8283 8282 8285 8284 8280 8281 8280 8278 8277 8280 8275 8272 8274 8272 8275 8271 8271 8271 8271 8272 8264 8269 8266 8265 8263 8260 8256 8255 8259 8255 8254 8252 8252 8250 8250 8248 8247 8243 8245 8245 8240 
8277 8282 8278 8276 8273 8275 8274 8274 8278 8276 8280 8279 8280 8282 8278 8282 8281 8281 8284 8283 8282 8288 8285 8286 8287 8287 8289 8293 8292 8287 8285 8286 8288 8286 8285 8288 8289 8289 8286 8282 8280 8284 8280 8281 8278 8276 8276 8276 8279 8271 8271 8272 8269 8269 8269 8270 8271 8270 8269 8266 8265 8266 8265 8260 8263 8257 8256 8254 8254 8250 8252 8251 8247 8248 8250 8250 8246 8243 8242 8238 
8273 8278 8280 8273 8272 8277 8276 8274 8277 8277 8281 8278 8281 8280 8281 8282 8283 8284 8282 8283 8285 8285 8284 8285 8285 8283 8287 8291 8288 8285 8285 8286 8288 8286 8283 8286 8288 8284 8284 8281 8278 8282 8281 8277 8275 8276 8274 8276 8277 8272 8271 8271 8271 8272 8270 8270 8270 8266 8267 8265 8267 8264 8266 8258 8258 8256 8254 8255 8252 8249 8251 8250 8248 8249 8247 8248 8244 8244 8242 8236 
8275 8281 8277 8270 8272 8273 8275 8277 8276 8275 8278 8281 8281 8280 8280 8280 8281 8281 8282 8284 8280 8281 8281 8285 8282 8283 8288 8290 8290 8285 8282 8283 8285 8283 8283 8286 8284 8287 8282 8281 8277 8283 8278 8275 8274 8273 8271 8269 8272 8270 8269 8269 8271 8276 8273 8268 8269 8269 8268 8266 8266 8264 8261 8256 8257 8250 8252 8252 8251 8251 8251 8250 8245 8246 8247 8249 8243 8245 8244 8240 
8271 8284 8273 8272 8269 8273 8277 8276 8277 8275 8279 8277 8279 8282 8280 8279 8278 8278 8281 8280 8282 8282 8277 8282 8280 8284 8289 8287 8284 8282 8279 8282 8282 8280 8279 8282 8281 8280 8278 8277 8276 8281 8276 8275 8272 8270 8267 8270 8270 8270 8267 8272 8271 8272 8267 8268 8266 8264 8266 8262 8264 8262 8262 8258 8257 8253 8253 8253 8251 8247 8251 8249 8244 8247 8248 8246 8243 8244 8240 8238 
8270 8275 8274 8272 8268 8272 8270 8273 8273 8272 8275 8275 8275 8278 8279 8282 8279 8279 8276 8277 8277 8278 8276 8280 8280 8278 8283 8284 8283 8278 8278 8280 8283 8280 8276 8276 8275 8272 8265 8269 8270 8277 8272 8271 8271 8266 8268 8268 8264 8264 8263 8266 8266 8270 8267 8265 8265 8264 8264 8260 8263 8261 8259 8256 8256 8252 8252 8253 8250 8247 8247 8246 8247 8245 8248 8246 8241 8244 8243 8238 
8272 8272 8274 8269 8266 8266 8275 8273 8273 8275 8274 8270 8270 8279 8279 8277 8279 8275 8279 8278 8277 8275 8276 8277 8277 8278 8275 8278 8274 8272 8271 8274 8278 8272 8241 8243 8250 8228 8246 8234 8260 8272 8272 8270 8264 8264 8264 8264 8265 8265 8265 8266 8264 8266 8267 8266 8264 8263 8264 8265 8264 8261 8259 8255 8257 8251 8252 8252 8251 8249 8249 8246 8245 8247 8245 8245 8243 8242 8240 8236 
8270 8274 8274 8268 8268 8267 8271 8271 8275 8276 8274 8272 8271 8278 8273 8276 8277 8274 8276 8276 8276 8276 8273 8275 8274 8260 8252 8238 8218 8228 8233 8248 8241 8242 8219 8238 8199 8237 8260 8237 8224 8243 8248 8257 8260 8265 8262 8262 8264 8264 8263 8262 8264 8264 8267 8264 8263 8262 8262 8261 8260 8262 8257 8252 8254 8250 8250 8250 8246 8247 8247 8247 8244 8245 8249 8248 8242 8241 8241 8240 
8267 8272 8274 8268 8267 8269 8269 8275 8271 8273 8275 8274 8276 8279 8276 8276 8274 8275 8276 8276 8276 8275 8272 8252 8258 8249 8224 8204 8219 8226 8215 8200 8202 8204 8240 8231 8201 8225 8258 8243 8225 8219 8233 8249 8262 8265 8265 8265 8265 8265 8263 8265 8263 8265 8263 8262 8266 8261 8261 8262 8259 8263 8256 8253 8253 8253 8248 8249 8246 8249 8244 8246 8245 8245 8244 8249 8243 8242 8242 8241 
8267 8273 8273 8273 8270 8268 8272 8271 8274 8272 8274 8272 8274 8277 8276 8276 8278 8275 8274 8275 8272 8274 8271 8248 8226 8215 8197 8206 8203 8197 8198 8227 8191 8199 8216 8199 8195 8204 8209 8209 8207 8215 8227 8248 8245 8258 8263 8263 8263 8262 8261 8262 8261 8264 8263 8266 8266 8262 8262 8258 8260 8260 8255 8252 8253 8251 8249 8249 8247 8248 8244 8239 8242 8245 8245 8246 8244 8243 8242 8243 
8266 8271 8273 8270 8267 8269 8270 8271 8272 8272 8272 8272 8275 8277 8276 8275 8274 8272 8274 8271 8273 8262 8251 8227 8207 8208 8192 8200 8202 8196 8197 8212 8203 8190 8190 8183 8208 8217 8209 8225 8226 8206 8211 8229 8233 8250 8261 8263 8264 8261 8259 8264 8266 8267 8265 8262 8262 8264 8263 8259 8260 8259 8255 8250 8253 8250 8251 8248 8246 8248 8244 8243 8243 8243 8243 8246 8243 8243 8243 8240 
8266 8271 8271 8272 8267 8270 8270 8271 8271 8269 8272 8273 8276 8277 8276 8274 8274 8274 8274 8273 8259 8258 8264 8230 8222 8235 8198 8196 8207 8199 8191 8196 8194 8187 8198 8194 8198 8200 8209 8213 8207 8202 8206 8220 8228 8249 8259 8264 8262 8260 8260 8262 8262 8266 8264 8262 8262 8261 8260 8256 8260 8257 8253 8252 8250 8250 8247 8250 8245 8245 8241 8242 8242 8244 8243 8247 8242 8242 8243 8240 
8263 8271 8271 8267 8265 8269 8269 8272 8271 8266 8271 8268 8272 8275 8275 8273 8270 8269 8268 8260 8255 8266 8263 8234 8208 8214 8205 8192 8196 8196 8196 8206 8195 8190 8200 8193 8195 8200 8219 8220 8205 8199 8207 8228 8223 8248 8261 8262 8265 8259 8259 8261 8261 8264 8260 8259 8261 8261 8258 8256 8259 8257 8254 8250 8252 8249 8248 8246 8243 8242 8241 8241 8239 8238 8241 8242 8244 8239 8243 8236 
8267 8269 8271 8269 8268 8267 8270 8268 8272 8269 8272 8270 8272 8275 8270 8271 8269 8265 8263 8241 8264 8252 8212 8194 8216 8219 8224 8205 8200 8206 8207 8199 8207 8212 8246 8227 8202 8205 8234 8222 8207 8204 8207 8230 8225 8236 8256 8263 8260 8261 8258 8261 8263 8261 8262 8263 8262 8260 8261 8256 8258 8256 8254 8252 8250 8249 8245 8245 8241 8241 8241 8241 8239 8239 8240 8240 8241 8242 8239 8236 
8268 8270 8270 8270 8269 8268 8268 8271 8273 8269 8271 8270 8272 8274 8273 8270 8267 8262 8254 8251 8262 8208 8204 8220 8253 8222 8239 8210 8209 8209 8204 8192 8199 8221 8226 8211 8207 8211 8249 8222 8212 8218 8205 8231 8234 8232 8254 8261 8263 8260 8259 8262 8263 8264 8260 8261 8258 8260 8261 8256 8258 8256 8254 8254 8251 8250 8244 8243 8242 8244 8243 8241 8240 8242 8240 8240 8239 8240 8237 8236 
8266 8275 8268 8269 8269 8267 8268 8270 8274 8269 8274 8270 8272 8271 8271 8269 8268 8266 8259 8256 8261 8205 8242 8244 8222 8209 8208 8210 8219 8206 8202 8189 8202 8208 8196 8193 8202 8209 8237 8232 8232 8216 8217 8239 8238 8241 8255 8258 8259 8261 8257 8261 8260 8262 8262 8262 8259 8256 8260 8255 8255 8255 8254 8254 8252 8248 8245 8245 8243 8243 8246 8241 8239 8243 8239 8240 8239 8237 8236 8232 
8269 8270 8270 8268 8265 8268 8268 8268 8272 8268 8270 8266 8269 8270 8268 8269 8266 8267 8267 8266 8260 8240 8238 8238 8240 8229 8213 8208 8203 8202 8198 8200 8205 8202 8195 8196 8191 8186 8198 8234 8249 8225 8228 8247 8240 8252 8253 8257 8258 8258 8256 8260 8260 8260 8260 8261 8259 8260 8256 8254 8254 8254 8252 8250 8250 8245 8247 8247 8246 8245 8244 8239 8238 8239 8239 8239 8235 8235 8233 8231 
8265 8271 8269 8269 8268 8268 8269 8272 8271 8269 8271 8269 8268 8270 8269 8267 8269 8265 8267 8265 8263 8253 8249 8255 8248 8247 8207 8200 8205 8202 8204 8208 8221 8237 8205 8197 8195 8188 8192 8224 8249 8243 8224 8245 8243 8252 8254 8255 8257 8259 8258 8259 8259 8261 8261 8261 8257 8258 8260 8254 8252 8253 8253 8252 8251 8244 8247 8247 8246 8243 8241 8240 8236 8240 8238 8236 8233 8233 8232 8230 
8266 8274 8273 8270 8270 8269 8269 8268 8267 8267 8270 8267 8265 8271 8269 8270 8268 8265 8268 8265 8266 8263 8260 8256 8232 8210 8204 8198 8203 8204 8204 8206 8209 8233 8227 8200 8199 8196 8204 8220 8227 8250 8227 8244 8242 8252 8252 8257 8257 8254 8253 8257 8256 8259 8259 8258 8255 8258 8257 8254 8254 8253 8252 8248 8253 8248 8247 8247 8247 8244 8243 8239 8239 8240 8239 8236 8234 8237 8235 8231 
8268 8273 8270 8270 8271 8270 8271 8270 8269 8267 8269 8265 8267 8266 8267 8267 8264 8265 8267 8266 8267 8264 8259 8225 8202 8201 8202 8198 8190 8204 8203 8209 8208 8207 8213 8206 8215 8218 8240 8249 8226 8230 8235 8243 8241 8253 8254 8256 8256 8255 8256 8254 8256 8257 8256 8259 8257 8258 8257 8253 8255 8253 8250 8251 8252 8250 8252 8249 8249 8246 8245 8242 8239 8242 8241 8239 8232 8232 8235 8228 
8267 8272 8271 8270 8268 8268 8272 8269 8268 8267 8268 8267 8266 8267 8262 8264 8268 8264 8266 8265 8264 8264 8250 8209 8201 8206 8206 8200 8197 8208 8214 8218 8218 8211 8212 8223 8223 8232 8249 8255 8247 8227 8238 8244 8242 8253 8255 8258 8255 8252 8250 8254 8258 8258 8257 8258 8258 8256 8258 8256 8252 8251 8252 8250 8252 8249 8251 8247 8250 8246 8245 8246 8246 8243 8241 8236 8234 8233 8232 8231 
8265 8272 8272 8271 8268 8269 8268 8272 8270 8271 8270 8266 8263 8268 8268 8266 8266 8261 8261 8262 8263 8260 8240 8205 8208 8212 8237 8203 8197 8216 8236 8237 8230 8222 8214 8233 8214 8213 8248 8254 8250 8239 8239 8246 8241 8253 8251 8255 8254 8252 8252 8256 8257 8254 8256 8261 8257 8260 8257 8255 8255 8254 8251 8250 8254 8250 8250 8250 8246 8248 8244 8246 8243 8242 8242 8240 8235 8234 8231 8228 
8267 8271 8272 8270 8272 8269 8269 8269 8269 8269 8270 8267 8265 8268 8265 8268 8265 8263 8260 8261 8264 8260 8248 8208 8218 8216 8212 8202 8202 8223 8238 8236 8227 8223 8221 8235 8229 8214 8243 8252 8253 8248 8246 8251 8243 8252 8252 8253 8256 8256 8251 8255 8256 8257 8258 8258 8257 8258 8256 8256 8253 8253 8254 8252 8253 8252 8250 8250 8247 8246 8248 8249 8244 8244 8243 8240 8237 8231 8236 8229 
8267 8271 8267 8268 8267 8267 8271 8270 8267 8266 8271 8267 8266 8268 8268 8270 8268 8265 8263 8263 8264 8262 8258 8227 8220 8231 8208 8205 8205 8219 8229 8232 8225 8220 8222 8241 8244 8241 8250 8250 8249 8247 8253 8251 8246 8253 8252 8255 8254 8249 8252 8256 8254 8254 8255 8257 8259 8256 8254 8253 8254 8252 8250 8250 8253 8249 8250 8251 8246 8248 8248 8247 8243 8245 8244 8243 8239 8235 8234 8230 
8264 8269 8270 8266 8267 8266 8269 8269 8269 8268 8269 8265 8268 8269 8266 8270 8266 8268 8261 8261 8261 8267 8256 8247 8219 8236 8225 8222 8215 8213 8223 8227 8225 8214 8235 8255 8244 8262 8264 8255 8255 8253 8260 8259 8250 8259 8259 8256 8255 8256 8255 8252 8257 8256 8257 8255 8258 8255 8256 8255 8250 8254 8251 8251 8252 8248 8247 8249 8248 8250 8247 8248 8242 8246 8244 8244 8240 8235 8235 8233 
8263 8267 8271 8268 8265 8266 8268 8269 8271 8269 8269 8270 8269 8270 8269 8268 8265 8265 8254 8245 8260 8268 8263 8255 8246 8240 8241 8235 8227 8224 8218 8229 8228 8217 8243 8270 8258 8261 8268 8261 8260 8256 8269 8272 8263 8266 8273 8271 8259 8257 8251 8255 8254 8256 8255 8258 8258 8257 8256 8251 8252 8255 8251 8253 8251 8250 8251 8248 8250 8249 8249 8246 8247 8247 8245 8244 8237 8239 8236 8231 
8268 8267 8270 8266 8269 8269 8272 8272 8272 8269 8268 8269 8270 8274 8271 8273 8271 8263 8258 8249 8251 8257 8265 8263 8256 8252 8258 8253 8241 8236 8225 8247 8237 8221 8249 8279 8285 8276 8273 8268 8268 8266 8278 8287 8282 8278 8271 8268 8257 8254 8257 8255 8255 8257 8255 8259 8259 8257 8256 8252 8253 8254 8249 8252 8250 8249 8248 8248 8248 8248 8247 8248 8245 8247 8249 8245 8242 8240 8239 8232 
8268 8271 8272 8269 8269 8270 8273 8270 8270 8267 8269 8268 8270 8276 8276 8280 8274 8270 8268 8251 8241 8246 8247 8253 8252 8256 8258 8260 8259 8256 8252 8257 8257 8256 8257 8271 8276 8274 8272 8274 8268 8280 8293 8298 8297 8284 8274 8271 8258 8255 8256 8253 8256 8258 8255 8258 8253 8254 8256 8252 8254 8252 8251 8250 8251 8247 8249 8249 8246 8247 8249 8250 8246 8247 8246 8246 8244 8243 8241 8231 
8268 8274 8275 8271 8270 8273 8274 8274 8275 8272 8276 8269 8274 8276 8275 8281 8278 8276 8271 8256 8247 8249 8248 8256 8258 8260 8265 8266 8267 8264 8259 8265 8266 8265 8268 8274 8278 8278 8276 8277 8276 8284 8291 8292 8290 8284 8279 8270 8258 8254 8253 8256 8255 8255 8254 8254 8255 8253 8250 8250 8251 8254 8249 8249 8252 8249 8249 8249 8248 8248 8250 8250 8250 8248 8249 8249 8246 8242 8241 8234 
8265 8269 8272 8272 8270 8274 8274 8276 8277 8273 8277 8274 8273 8278 8278 8278 8281 8275 8277 8269 8257 8257 8258 8265 8269 8269 8270 8273 8271 8271 8271 8271 8276 8271 8275 8281 8286 8284 8283 8280 8283 8289 8290 8291 8284 8284 8277 8266 8255 8255 8250 8251 8257 8256 8254 8253 8256 8254 8252 8252 8252 8251 8252 8247 8252 8250 8250 8249 8250 8249 8251 8252 8248 8249 8251 8248 8245 8242 8240 8240 
8265 8267 8271 8270 8271 8276 8278 8276 8279 8273 8277 8273 8274 8277 8279 8280 8280 8275 8280 8275 8268 8260 8261 8269 8277 8274 8277 8283 8282 8280 8280 8283 8288 8286 8287 8291 8297 8290 8291 8294 8292 8296 8291 8284 8278 8280 8268 8258 8256 8252 8251 8250 8251 8254 8250 8252 8253 8249 8251 8251 8246 8252 8248 8248 8251 8253 8250 8251 8250 8249 8252 8252 8251 8253 8252 8250 8246 8243 8242 8240 
8262 8264 8267 8269 8272 8270 8278 8280 8278 8273 8276 8274 8277 8279 8280 8279 8279 8279 8279 8276 8274 8265 8263 8270 8271 8271 8283 8290 8284 8284 8280 8284 8292 8293 8294 8297 8296 8287 8287 8291 8288 8285 8283 8278 8280 8278 8262 8253 8255 8250 8252 8253 8252 8253 8251 8251 8252 8249 8250 8248 8250 8249 8250 8250 8250 8252 8250 8250 8251 8251 8252 8253 8252 8254 8252 8249 8246 8245 8244 8245 
8263 8269 8268 8271 8275 8275 8279 8275 8273 8273 8278 8273 8277 8280 8280 8283 8281 8279 8276 8278 8285 8281 8279 8281 8281 8285 8288 8292 8290 8285 8285 8287 8294 8292 8293 8296 8294 8290 8285 8286 8284 8286 8286 8283 8286 8282 8261 8252 8252 8253 8251 8250 8252 8256 8255 8252 8253 8250 8250 8250 8249 8249 8250 8249 8251 8247 8249 8252 8256 8251 8251 8253 8254 8251 8252 8249 8246 8242 8243 8240 
8263 8268 8268 8270 8273 8273 8280 8278 8275 8274 8277 8273 8273 8280 8278 8280 8283 8280 8279 8278 8284 8292 8292 8301 8297 8297 8301 8302 8302 8295 8292 8299 8297 8297 8296 8296 8297 8292 8291 8292 8287 8292 8292 8296 8293 8282 8259 8253 8254 8250 8250 8250 8253 8254 8251 8252 8254 8253 8253 8246 8247 8250 8247 8249 8251 8248 8252 8252 8255 8253 8254 8253 8251 8252 8252 8250 8244 8246 8243 8236 
8258 8262 8266 8266 8270 8274 8277 8277 8277 8271 8276 8275 8275 8282 8278 8279 8277 8279 8277 8277 8282 8295 8302 8305 8305 8302 8310 8312 8307 8301 8299 8301 8300 8298 8297 8300 8298 8297 8296 8297 8296 8299 8299 8301 8298 8282 8257 8252 8252 8253 8252 8250 8252 8256 8254 8252 8251 8249 8252 8245 8248 8250 8249 8246 8247 8248 8247 8252 8250 8251 8255 8256 8254 8253 8250 8247 8244 8247 8241 8236 
8256 8261 8265 8267 8267 8272 8275 8275 8276 8270 8273 8273 8276 8278 8277 8280 8280 8276 8279 8275 8283 8299 8305 8306 8309 8304 8314 8314 8309 8303 8302 8304 8305 8300 8299 8303 8304 8302 8299 8299 8298 8301 8302 8304 8297 8278 8255 8253 8252 8253 8252 8251 8252 8255 8250 8253 8253 8250 8249 8246 8248 8248 8248 8249 8249 8251 8247 8248 8250 8251 8255 8252 8251 8252 8249 8246 8245 8246 8239 8236 
8256 8257 8259 8265 8269 8274 8275 8273 8274 8270 8271 8272 8274 8277 8279 8280 8278 8274 8273 8271 8278 8297 8305 8309 8307 8307 8313 8315 8313 8308 8304 8305 8306 8306 8304 8308 8307 8304 8303 8298 8298 8304 8304 8304 8294 8274 8252 8253 8253 8251 8249 8250 8255 8256 8251 8251 8253 8250 8250 8247 8245 8248 8243 8248 8250 8247 8248 8249 8247 8249 8255 8253 8253 8252 8249 8245 8242 8242 8241 8237 
8271 8267 8278 8290 8293 8288 8280 8282 8284 8280 8277 8271 8275 8276 8275 8274 8272 8274 8271 8272 8272 8293 8302 8307 8309 8308 8312 8316 8315 8310 8306 8307 8309 8306 8304 8308 8310 8306 8302 8301 8297 8303 8302 8301 8295 8265 8250 8251 8251 8247 8247 8251 8250 8255 8252 8249 8249 8247 8250 8243 8244 8244 8247 8246 8247 8246 8249 8250 8250 8249 8253 8256 8250 8252 8247 8248 8242 8240 8242 8238 
8293 8305 8311 8312 8307 8298 8303 8312 8334 8311 8297 8290 8290 8281 8270 8269 8269 8265 8268 8265 8271 8284 8301 8306 8308 8303 8311 8317 8313 8307 8309 8308 8311 8304 8302 8308 8311 8306 8304 8299 8296 8300 8302 8297 8289 8253 8232 8239 8246 8246 8248 8250 8249 8253 8249 8251 8247 8243 8250 8242 8239 8242 8244 8248 8249 8246 8249 8249 8252 8251 8253 8252 8249 8246 8245 8243 8244 8241 8237 8238 
8295 8310 8306 8300 8291 8292 8298 8310 8312 8303 8303 8312 8302 8274 8260 8257 8257 8261 8260 8256 8266 8275 8299 8304 8303 8301 8311 8312 8312 8310 8309 8310 8310 8308 8307 8303 8307 8306 8303 8298 8295 8300 8298 8292 8287 8248 8228 8228 8235 8246 8247 8250 8249 8253 8248 8250 8244 8247 8244 8240 8239 8242 8243 8246 8248 8247 8248 8250 8249 8248 8249 8253 8247 8247 8245 8242 8240 8242 8240 8236 
8296 8288 8289 8285 8285 8287 8288 8290 8298 8307 8312 8300 8276 8265 8260 8260 8257 8256 8254 8249 8254 8271 8289 8300 8303 8298 8306 8310 8309 8309 8308 8308 8309 8307 8304 8303 8309 8305 8302 8298 8293 8299 8294 8291 8281 8238 8225 8230 8230 8243 8247 8248 8248 8251 8248 8246 8243 8245 8247 8242 8239 8242 8245 8243 8246 8246 8247 8245 8244 8249 8251 8249 8245 8246 8246 8243 8243 8242 8243 8232 
8306 8302 8305 8312 8306 8287 8285 8289 8298 8321 8312 8273 8261 8265 8264 8272 8260 8255 8254 8253 8261 8271 8284 8295 8292 8296 8302 8308 8306 8309 8305 8310 8311 8303 8301 8303 8303 8299 8300 8298 8295 8299 8296 8292 8277 8236 8227 8232 8234 8243 8244 8244 8248 8246 8245 8248 8243 8241 8242 8238 8239 8241 8243 8240 8246 8246 8247 8248 8248 8244 8247 8245 8244 8243 8245 8242 8243 8244 8243 8243 
8331 8330 8322 8311 8308 8301 8300 8308 8309 8311 8306 8284 8278 8275 8272 8279 8270 8264 8265 8262 8263 8266 8276 8295 8296 8296 8301 8309 8304 8307 8311 8303 8307 8305 8305 8308 8307 8306 8297 8300 8299 8305 8300 8294 8280 8241 8234 8238 8237 8234 8235 8233 8240 8249 8246 8248 8252 8252 8250 8249 8247 8243 8244 8248 8248 8244 8247 8257 8251 8251 8257 8256 8248 8245 8245 8247 8245 8251 8245 8245 


