P2
80 60
8202
8120 8121 8129 8153 8155 8160 8156 8153 8155 8159 8164 8162 8164 8165 8164 8163 8163 8165 8166 8169 8171 8174 8172 8173 8173 8173 8175 8179 8182 8185 8186 8186 8188 8186 8186 8184 8187 8192 8193 8193 8191 8193 8193 8192 8192 8192 8192 8191 8188 8188 8184 8184 8178 8178 8178 8178 8178 8179 8175 8179 8177 8178 8177 8178 8177 8177 8180 8181 8187 8185 8183 8185 8185 8189 8186 8187 8188 8196 8192 8193 
8107 8116 8136 8151 8158 8159 8156 8154 8157 8159 8164 8160 8163 8162 8162 8162 8165 8164 8166 8170 8175 8173 8172 8171 8177 8177 8179 8183 8183 8184 8188 8185 8187 8187 8184 8182 8187 8187 8190 8191 8192 8191 8191 8193 8192 8195 8191 8191 8187 8187 8184 8180 8178 8179 8180 8175 8173 8179 8178 8179 8180 8179 8173 8174 8177 8176 8181 8183 8183 8183 8183 8184 8182 8186 8187 8186 8187 8192 8190 8186 
8095 8106 8139 8151 8161 8157 8156 8159 8159 8161 8160 8158 8159 8161 8160 8163 8165 8164 8170 8172 8173 8177 8173 8171 8176 8178 8179 8185 8186 8186 8185 8184 8185 8185 8186 8184 8188 8189 8190 8194 8196 8191 8191 8193 8194 8193 8192 8189 8189 8188 8184 8186 8182 8181 8182 8179 8179 8178 8180 8181 8179 8179 8179 8180 8176 8178 8179 8181 8182 8181 8187 8184 8184 8183 8183 8186 8186 8189 8194 8189 
8099 8115 8150 8154 8158 8155 8159 8159 8163 8162 8160 8158 8159 8161 8162 8165 8168 8167 8168 8169 8170 8171 8166 8169 8173 8173 8181 8181 8185 8189 8187 8186 8185 8183 8187 8185 8187 8188 8194 8194 8198 8195 8191 8191 8195 8190 8191 8188 8186 8185 8185 8185 8181 8180 8184 8181 8179 8179 8181 8180 8181 8182 8179 8178 8177 8178 8181 8182 8183 8186 8180 8184 8182 8183 8185 8184 8184 8185 8191 8184 
8104 8130 8152 8154 8156 8159 8160 8155 8159 8160 8158 8154 8163 8165 8164 8169 8166 8165 8168 8166 8171 8170 8168 8167 8174 8177 8182 8183 8185 8186 8187 8186 8185 8185 8185 8188 8186 8189 8194 8193 8195 8194 8193 8193 8192 8191 8191 8187 8190 8190 8186 8185 8180 8183 8185 8181 8180 8180 8182 8181 8182 8184 8179 8177 8179 8180 8180 8181 8185 8184 8185 8184 8182 8185 8183 8183 8181 8184 8189 8180 
8122 8145 8151 8155 8158 8160 8165 8162 8162 8160 8153 8161 8166 8162 8161 8164 8167 8166 8169 8173 8173 8172 8171 8167 8176 8177 8180 8179 8183 8185 8189 8185 8186 8186 8187 8190 8192 8193 8194 8197 8198 8195 8193 8192 8190 8193 8192 8190 8190 8190 8187 8187 8182 8182 8185 8184 8181 8183 8183 8184 8181 8185 8182 8178 8179 8185 8182 8181 8182 8183 8183 8182 8184 8183 8184 8183 8183 8179 8187 8179 
8138 8154 8154 8161 8159 8160 8167 8168 8164 8157 8155 8165 8167 8161 8164 8166 8162 8166 8169 8173 8171 8172 8173 8176 8177 8175 8177 8180 8182 8190 8189 8188 8187 8187 8189 8190 8191 8194 8200 8198 8200 8195 8194 8191 8193 8193 8192 8191 8193 8189 8190 8186 8183 8185 8186 8185 8184 8186 8186 8185 8186 8184 8184 8181 8182 8184 8183 8185 8184 8180 8184 8185 8184 8181 8181 8182 8181 8183 8182 8178 
8148 8159 8157 8160 8159 8165 8167 8173 8168 8155 8166 8165 8165 8163 8167 8164 8166 8170 8170 8171 8176 8177 8177 8177 8183 8178 8178 8180 8183 8189 8191 8187 8188 8188 8191 8190 8192 8194 8199 8197 8201 8201 8197 8194 8193 8192 8195 8191 8189 8188 8188 8185 8184 8186 8184 8185 8183 8184 8184 8187 8183 8183 8182 8184 8182 8180 8184 8187 8183 8182 8185 8185 8184 8185 8183 8185 8182 8186 8184 8177 
8157 8160 8157 8159 8164 8166 8169 8169 8167 8162 8163 8163 8165 8166 8162 8163 8169 8167 8173 8176 8175 8173 8176 8174 8174 8178 8180 8181 8188 8190 8190 8189 8187 8186 8191 8192 8192 8191 8194 8196 8198 8196 8197 8194 8197 8197 8196 8193 8190 8186 8184 8184 8183 8183 8187 8179 8183 8183 8185 8182 8182 8182 8183 8181 8181 8185 8185 8186 8184 8182 8182 8185 8184 8183 8179 8185 8179 8183 8184 8175 
8165 8160 8162 8165 8166 8166 8164 8167 8166 8164 8166 8164 8164 8167 8166 8164 8168 8172 8177 8178 8175 8174 8174 8171 8175 8178 8183 8187 8188 8191 8191 8188 8188 8190 8193 8192 8192 8193 8195 8194 8197 8194 8194 8195 8194 8197 8195 8194 8190 8188 8185 8186 8186 8184 8184 8179 8181 8184 8182 8185 8184 8183 8180 8180 8180 8184 8187 8187 8185 8182 8185 8184 8186 8182 8181 8181 8183 8187 8186 8174 
8167 8166 8167 8161 8166 8169 8163 8164 8167 8166 8165 8164 8166 8169 8164 8166 8169 8169 8172 8173 8177 8176 8176 8172 8176 8176 8183 8185 8189 8192 8190 8189 8189 8191 8192 8191 8192 8191 8195 8196 8196 8194 8194 8194 8194 8198 8193 8195 8194 8190 8187 8186 8185 8184 8182 8179 8180 8182 8186 8182 8181 8183 8181 8180 8179 8182 8185 8186 8187 8185 8184 8188 8185 8185 8184 8185 8183 8187 8185 8180 
8170 8173 8167 8165 8161 8164 8164 8163 8169 8165 8166 8164 8165 8169 8167 8168 8169 8165 8172 8177 8175 8176 8173 8174 8177 8176 8182 8188 8190 8192 8195 8191 8189 8188 8187 8189 8191 8194 8193 8193 8194 8190 8192 8191 8192 8192 8193 8189 8188 8189 8188 8187 8187 8186 8180 8180 8180 8171 8165 8172 8173 8175 8180 8182 8180 8179 8183 8186 8185 8183 8185 8186 8184 8184 8183 8185 8187 8189 8188 8182 
8171 8172 8163 8164 8160 8164 8167 8161 8164 8166 8163 8166 8166 8166 8167 8169 8171 8170 8169 8175 8179 8174 8173 8173 8180 8178 8182 8189 8190 8192 8194 8188 8187 8187 8187 8190 8191 8190 8191 8190 8193 8189 8192 8195 8191 8191 8189 8189 8188 8186 8190 8183 8184 8185 8183 8182 8175 8152 8140 8147 8153 8172 8180 8180 8181 8183 8183 8184 8184 8182 8184 8184 8183 8185 8184 8185 8187 8186 8191 8180 
8174 8178 8170 8169 8168 8166 8168 8168 8163 8169 8171 8169 8165 8168 8170 8169 8173 8173 8174 8178 8180 8175 8173 8174 8178 8179 8182 8186 8186 8191 8192 8185 8185 8187 8190 8190 8189 8191 8190 8189 8191 8190 8190 8195 8190 8189 8189 8190 8188 8187 8186 8185 8186 8185 8182 8181 8172 8140 8140 8144 8156 8174 8180 8181 8181 8183 8183 8184 8184 8179 8183 8185 8186 8181 8180 8185 8186 8188 8194 8178 
8173 8170 8168 8169 8168 8167 8167 8173 8167 8167 8170 8169 8169 8171 8174 8172 8172 8172 8177 8178 8174 8172 8172 8173 8178 8177 8182 8185 8184 8188 8186 8170 8153 8179 8189 8191 8191 8190 8191 8187 8190 8191 8191 8193 8187 8191 8186 8184 8185 8184 8185 8184 8183 8184 8183 8175 8155 8137 8143 8148 8167 8178 8176 8179 8183 8185 8184 8186 8183 8184 8182 8185 8184 8184 8179 8183 8187 8185 8189 8179 
8174 8167 8165 8169 8167 8166 8168 8169 8168 8170 8172 8168 8170 8170 8172 8172 8172 8176 8182 8174 8175 8176 8171 8175 8174 8176 8184 8182 8182 8181 8170 8134 8131 8169 8185 8185 8191 8188 8189 8191 8191 8186 8191 8189 8188 8188 8186 8183 8183 8183 8183 8187 8181 8183 8177 8175 8142 8139 8144 8154 8176 8176 8177 8178 8185 8183 8183 8181 8182 8181 8183 8183 8183 8181 8182 8183 8183 8186 8189 8178 
8174 8168 8165 8169 8168 8168 8167 8169 8169 8169 8172 8171 8169 8170 8169 8173 8174 8175 8179 8177 8176 8178 8177 8173 8175 8176 8170 8147 8144 8147 8134 8128 8137 8152 8151 8162 8181 8187 8189 8189 8192 8189 8191 8188 8183 8186 8183 8183 8184 8184 8184 8183 8181 8180 8178 8159 8136 8139 8145 8165 8178 8178 8177 8180 8182 8180 8182 8181 8180 8178 8181 8181 8180 8180 8180 8180 8184 8185 8185 8182 
8178 8170 8170 8167 8170 8172 8172 8172 8172 8175 8172 8173 8173 8178 8175 8175 8175 8176 8178 8177 8176 8178 8179 8169 8175 8175 8158 8162 8159 8129 8126 8131 8135 8138 8137 8144 8174 8189 8186 8189 8187 8188 8188 8166 8156 8179 8185 8181 8181 8184 8183 8183 8179 8181 8172 8148 8138 8142 8150 8175 8177 8176 8179 8179 8182 8182 8182 8181 8181 8180 8180 8180 8181 8181 8180 8183 8184 8184 8186 8178 
8175 8168 8171 8171 8170 8175 8177 8176 8174 8172 8174 8175 8177 8180 8175 8175 8176 8178 8178 8179 8178 8180 8179 8174 8171 8162 8157 8149 8135 8123 8132 8129 8153 8139 8133 8155 8167 8175 8154 8150 8171 8183 8188 8149 8132 8140 8163 8181 8182 8184 8184 8181 8178 8175 8166 8137 8141 8147 8160 8179 8177 8176 8177 8181 8179 8180 8181 8179 8180 8181 8180 8177 8180 8181 8182 8181 8183 8184 8186 8180 
8173 8170 8168 8169 8166 8175 8177 8176 8174 8175 8176 8176 8176 8177 8179 8178 8179 8177 8175 8178 8179 8182 8180 8160 8133 8122 8130 8129 8125 8125 8129 8130 8133 8137 8134 8135 8140 8140 8140 8135 8135 8149 8164 8137 8130 8129 8139 8175 8179 8179 8177 8178 8173 8173 8152 8137 8141 8152 8171 8178 8177 8172 8180 8182 8181 8180 8178 8178 8180 8181 8182 8179 8181 8180 8178 8180 8182 8185 8182 8175 
8177 8173 8169 8166 8166 8172 8173 8176 8177 8175 8176 8176 8177 8178 8176 8178 8177 8177 8174 8177 8177 8179 8178 8170 8156 8137 8146 8139 8125 8121 8134 8148 8142 8147 8140 8135 8134 8133 8144 8149 8133 8129 8137 8130 8125 8128 8130 8145 8149 8166 8165 8156 8170 8165 8138 8139 8145 8160 8174 8175 8173 8175 8176 8181 8177 8181 8181 8181 8179 8179 8181 8179 8180 8179 8178 8181 8181 8181 8181 8175 
8177 8178 8172 8176 8176 8178 8171 8178 8170 8174 8176 8174 8181 8181 8175 8175 8175 8177 8172 8175 8178 8181 8155 8134 8149 8136 8130 8124 8122 8123 8133 8135 8140 8161 8148 8132 8129 8129 8132 8149 8143 8128 8129 8124 8127 8128 8126 8125 8126 8124 8132 8132 8149 8137 8140 8142 8148 8171 8175 8177 8175 8179 8176 8180 8177 8182 8180 8180 8180 8182 8180 8180 8181 8178 8181 8179 8181 8184 8182 8176 
8180 8180 8175 8178 8177 8176 8167 8168 8168 8179 8179 8175 8180 8178 8178 8174 8176 8175 8172 8175 8177 8181 8139 8119 8124 8140 8141 8140 8138 8126 8151 8152 8138 8142 8154 8157 8144 8144 8149 8138 8128 8124 8131 8129 8126 8127 8126 8124 8119 8120 8121 8123 8125 8129 8133 8141 8158 8175 8178 8177 8175 8178 8174 8176 8181 8182 8180 8179 8179 8178 8180 8179 8179 8181 8180 8183 8185 8185 8188 8181 
8179 8181 8178 8180 8178 8178 8177 8168 8177 8179 8179 8176 8181 8181 8179 8179 8179 8177 8175 8181 8181 8182 8154 8118 8122 8142 8156 8146 8135 8130 8140 8132 8126 8125 8127 8132 8134 8136 8127 8128 8129 8129 8130 8137 8130 8131 8143 8143 8137 8122 8119 8121 8124 8123 8126 8145 8168 8177 8179 8177 8177 8176 8178 8182 8180 8181 8179 8181 8180 8178 8178 8180 8182 8181 8180 8181 8184 8185 8188 8186 
8180 8174 8177 8180 8182 8177 8172 8179 8177 8176 8178 8178 8183 8181 8181 8180 8178 8180 8174 8173 8183 8183 8170 8127 8118 8119 8115 8123 8133 8128 8130 8141 8146 8138 8130 8127 8132 8130 8128 8126 8124 8129 8128 8127 8121 8121 8132 8142 8131 8140 8122 8126 8119 8120 8135 8151 8174 8176 8178 8177 8176 8176 8175 8177 8180 8183 8178 8182 8178 8178 8179 8178 8179 8181 8179 8180 8183 8185 8187 8185 
8179 8173 8172 8179 8180 8172 8183 8169 8173 8177 8177 8181 8182 8181 8180 8179 8180 8180 8179 8175 8181 8180 8176 8157 8122 8114 8121 8147 8156 8147 8136 8139 8134 8142 8137 8145 8139 8133 8129 8126 8125 8124 8126 8129 8126 8126 8118 8122 8161 8135 8121 8127 8121 8118 8126 8160 8175 8177 8179 8182 8177 8174 8176 8179 8181 8182 8180 8179 8178 8179 8175 8179 8180 8179 8181 8181 8183 8187 8189 8193 
8179 8179 8174 8177 8173 8179 8175 8170 8172 8176 8175 8181 8177 8183 8177 8175 8180 8182 8177 8176 8178 8179 8173 8154 8135 8128 8149 8160 8154 8141 8134 8141 8131 8130 8131 8133 8133 8127 8130 8126 8124 8122 8125 8124 8124 8125 8120 8123 8169 8124 8117 8130 8126 8131 8124 8153 8176 8176 8182 8179 8179 8177 8176 8175 8178 8182 8179 8177 8177 8175 8178 8177 8178 8180 8182 8184 8186 8187 8187 8186 
8181 8179 8177 8179 8177 8173 8179 8177 8173 8179 8173 8180 8182 8179 8176 8178 8180 8180 8179 8176 8178 8174 8174 8143 8126 8129 8150 8163 8136 8127 8126 8133 8129 8127 8130 8126 8124 8125 8138 8132 8126 8125 8126 8126 8127 8123 8115 8116 8129 8119 8117 8117 8127 8140 8145 8144 8175 8178 8180 8182 8175 8175 8176 8176 8178 8182 8180 8176 8174 8176 8176 8177 8179 8182 8183 8186 8187 8188 8192 8191 
8178 8176 8174 8179 8175 8179 8179 8178 8179 8182 8181 8180 8181 8177 8177 8177 8178 8180 8176 8175 8176 8173 8166 8154 8131 8120 8148 8152 8134 8125 8129 8134 8134 8133 8129 8125 8126 8127 8141 8137 8126 8124 8124 8127 8134 8127 8120 8119 8115 8122 8124 8118 8124 8141 8156 8168 8176 8181 8176 8178 8177 8176 8177 8179 8181 8180 8178 8176 8176 8176 8175 8177 8178 8180 8183 8184 8187 8194 8193 8196 
8181 8175 8174 8177 8176 8181 8182 8180 8182 8180 8183 8182 8178 8180 8175 8178 8181 8177 8177 8174 8172 8153 8126 8125 8133 8128 8128 8129 8129 8130 8132 8138 8130 8130 8130 8127 8129 8131 8130 8124 8131 8123 8122 8120 8131 8126 8115 8116 8115 8123 8133 8125 8124 8141 8154 8173 8178 8179 8180 8178 8176 8176 8175 8178 8177 8181 8177 8175 8176 8175 8176 8175 8178 8184 8184 8182 8187 8193 8200 8197 
8178 8179 8176 8178 8177 8179 8175 8179 8179 8178 8178 8179 8179 8180 8178 8178 8179 8177 8176 8171 8151 8122 8129 8144 8147 8140 8135 8127 8127 8130 8129 8135 8132 8130 8128 8124 8131 8132 8124 8122 8124 8132 8129 8123 8126 8127 8116 8117 8118 8121 8134 8126 8122 8134 8153 8169 8178 8178 8179 8176 8175 8175 8177 8180 8179 8177 8177 8175 8175 8175 8177 8175 8177 8182 8183 8184 8188 8192 8199 8198 
8180 8179 8175 8176 8176 8181 8177 8179 8182 8179 8174 8178 8179 8177 8180 8179 8179 8174 8171 8158 8119 8125 8143 8147 8151 8145 8134 8128 8130 8131 8129 8130 8128 8126 8130 8129 8129 8126 8127 8122 8123 8130 8128 8130 8130 8130 8117 8120 8119 8122 8127 8131 8125 8131 8150 8168 8175 8177 8178 8179 8177 8175 8178 8177 8176 8179 8178 8176 8174 8174 8177 8178 8179 8179 8183 8186 8188 8193 8198 8197 
8182 8181 8176 8175 8177 8182 8174 8175 8179 8180 8177 8180 8176 8177 8178 8177 8177 8176 8174 8134 8114 8129 8150 8147 8152 8136 8125 8129 8130 8128 8129 8123 8125 8121 8127 8126 8124 8126 8127 8126 8128 8126 8130 8134 8134 8126 8124 8118 8120 8122 8124 8134 8127 8130 8148 8166 8175 8182 8179 8177 8175 8173 8178 8179 8176 8179 8178 8177 8176 8175 8176 8179 8178 8180 8181 8186 8188 8190 8195 8195 
8183 8178 8182 8181 8179 8181 8179 8178 8178 8181 8181 8176 8177 8178 8176 8177 8176 8174 8175 8122 8116 8139 8155 8149 8144 8122 8124 8129 8129 8128 8133 8126 8120 8122 8128 8127 8124 8126 8126 8130 8129 8127 8125 8128 8128 8123 8127 8130 8120 8121 8125 8136 8134 8138 8154 8180 8179 8178 8177 8177 8178 8174 8176 8176 8176 8179 8178 8177 8178 8177 8177 8181 8179 8181 8185 8181 8186 8191 8194 8193 
8183 8181 8182 8181 8182 8182 8181 8183 8179 8180 8184 8179 8179 8177 8179 8179 8180 8177 8176 8131 8123 8157 8160 8152 8142 8129 8128 8123 8127 8125 8127 8125 8120 8123 8124 8128 8129 8128 8130 8129 8129 8126 8128 8135 8133 8125 8123 8138 8134 8124 8127 8126 8132 8155 8158 8191 8177 8177 8176 8178 8172 8174 8179 8175 8174 8177 8173 8174 8177 8176 8176 8179 8180 8179 8181 8185 8187 8188 8193 8193 
8185 8187 8180 8183 8180 8181 8186 8183 8181 8179 8176 8181 8184 8183 8178 8180 8182 8182 8179 8163 8135 8172 8177 8168 8159 8138 8130 8125 8124 8122 8128 8133 8126 8129 8129 8127 8127 8128 8129 8127 8127 8130 8133 8138 8138 8129 8126 8133 8136 8131 8128 8134 8140 8163 8176 8192 8177 8176 8177 8177 8172 8176 8175 8177 8177 8177 8177 8176 8177 8175 8178 8179 8179 8181 8183 8183 8186 8188 8193 8191 
8190 8188 8184 8180 8185 8181 8184 8182 8182 8177 8179 8182 8183 8182 8176 8178 8179 8178 8180 8177 8171 8178 8187 8183 8162 8142 8135 8129 8129 8125 8128 8135 8127 8129 8128 8129 8129 8128 8122 8122 8124 8128 8132 8136 8135 8136 8135 8136 8132 8135 8130 8137 8141 8165 8188 8186 8175 8177 8180 8178 8173 8173 8173 8174 8173 8175 8174 8174 8174 8173 8177 8177 8178 8181 8187 8184 8188 8188 8190 8192 
8191 8188 8185 8183 8185 8183 8185 8179 8182 8181 8183 8180 8184 8180 8176 8179 8174 8177 8175 8179 8178 8181 8191 8185 8164 8150 8139 8139 8133 8128 8127 8130 8127 8130 8131 8126 8124 8123 8124 8120 8125 8127 8130 8130 8138 8147 8142 8132 8133 8133 8134 8142 8149 8175 8179 8178 8176 8177 8178 8178 8175 8172 8174 8174 8174 8176 8173 8177 8178 8176 8178 8179 8180 8179 8184 8188 8187 8187 8192 8196 
8187 8188 8186 8186 8185 8188 8183 8182 8181 8181 8182 8182 8179 8180 8179 8173 8176 8177 8176 8178 8177 8176 8179 8190 8162 8142 8136 8141 8148 8139 8136 8128 8128 8123 8123 8122 8117 8117 8118 8117 8120 8123 8125 8127 8136 8141 8140 8134 8132 8137 8138 8146 8162 8188 8174 8178 8179 8176 8176 8175 8171 8172 8173 8174 8174 8175 8175 8174 8179 8173 8176 8179 8179 8181 8184 8185 8186 8187 8190 8187 
8187 8190 8192 8187 8185 8188 8186 8180 8182 8181 8181 8177 8181 8177 8175 8172 8174 8176 8179 8178 8179 8177 8179 8189 8162 8143 8144 8142 8149 8148 8137 8132 8131 8125 8121 8124 8120 8122 8121 8120 8117 8120 8126 8129 8129 8134 8130 8130 8129 8134 8138 8154 8183 8187 8174 8180 8176 8177 8180 8174 8173 8173 8170 8177 8173 8175 8174 8175 8174 8175 8176 8177 8179 8181 8184 8184 8186 8183 8186 8186 
8189 8188 8192 8180 8181 8186 8180 8181 8184 8184 8180 8182 8178 8176 8179 8172 8175 8176 8180 8183 8181 8180 8180 8184 8172 8156 8148 8140 8142 8144 8143 8134 8135 8129 8128 8124 8124 8124 8124 8130 8124 8133 8128 8127 8129 8136 8130 8134 8135 8141 8142 8169 8189 8174 8175 8178 8178 8176 8179 8180 8174 8175 8175 8176 8173 8175 8174 8173 8174 8177 8176 8176 8176 8183 8183 8182 8182 8184 8184 8182 
8187 8187 8194 8177 8182 8186 8180 8183 8184 8185 8180 8183 8182 8179 8181 8180 8176 8178 8183 8180 8181 8178 8179 8179 8172 8168 8157 8144 8139 8138 8141 8136 8143 8147 8143 8134 8132 8127 8127 8138 8125 8133 8137 8127 8130 8135 8136 8137 8139 8141 8149 8171 8176 8168 8177 8180 8178 8177 8179 8180 8178 8179 8176 8178 8177 8177 8174 8172 8173 8173 8176 8176 8175 8178 8184 8182 8185 8183 8184 8184 
8190 8188 8184 8177 8178 8179 8181 8184 8183 8183 8182 8183 8183 8182 8176 8175 8176 8177 8176 8176 8180 8177 8180 8179 8174 8158 8160 8149 8142 8138 8141 8141 8139 8145 8150 8152 8136 8127 8129 8136 8130 8129 8134 8134 8132 8139 8137 8138 8139 8140 8155 8164 8166 8168 8182 8180 8178 8178 8180 8181 8179 8182 8178 8180 8181 8179 8174 8172 8175 8176 8176 8177 8175 8177 8181 8180 8182 8180 8182 8187 
8189 8191 8187 8179 8180 8183 8181 8182 8185 8184 8179 8181 8185 8185 8174 8175 8177 8177 8172 8179 8180 8177 8180 8180 8181 8168 8157 8156 8148 8140 8144 8144 8142 8141 8143 8143 8127 8127 8135 8136 8131 8132 8134 8140 8146 8150 8145 8141 8134 8146 8161 8166 8168 8173 8181 8182 8180 8180 8181 8183 8184 8183 8181 8179 8181 8181 8177 8176 8175 8179 8180 8178 8176 8177 8178 8178 8180 8182 8181 8181 
8191 8192 8186 8178 8181 8181 8185 8181 8184 8186 8180 8177 8182 8181 8176 8176 8179 8177 8176 8180 8180 8177 8178 8180 8180 8181 8161 8159 8160 8149 8147 8144 8141 8139 8139 8132 8123 8129 8135 8137 8135 8136 8138 8139 8143 8148 8149 8144 8152 8158 8167 8169 8165 8174 8184 8182 8182 8180 8181 8181 8181 8180 8180 8179 8181 8182 8182 8175 8179 8178 8176 8177 8181 8180 8180 8179 8181 8178 8180 8180 
8191 8184 8181 8182 8181 8182 8186 8179 8181 8182 8177 8176 8185 8180 8180 8182 8183 8177 8180 8179 8177 8183 8181 8177 8182 8182 8178 8170 8166 8166 8157 8144 8144 8144 8141 8132 8129 8134 8136 8133 8142 8134 8135 8139 8140 8150 8150 8158 8160 8169 8172 8167 8164 8175 8184 8182 8184 8184 8181 8179 8181 8177 8178 8179 8180 8181 8179 8176 8177 8179 8176 8176 8176 8179 8178 8178 8178 8177 8181 8181 
8191 8192 8179 8184 8182 8187 8186 8185 8181 8183 8178 8184 8185 8182 8179 8184 8185 8178 8179 8180 8186 8182 8182 8182 8183 8181 8179 8177 8172 8171 8169 8158 8148 8145 8144 8138 8136 8140 8141 8133 8141 8139 8140 8142 8146 8154 8163 8168 8172 8179 8172 8167 8173 8181 8184 8185 8184 8186 8184 8180 8178 8180 8179 8178 8180 8180 8180 8174 8178 8178 8178 8179 8175 8177 8178 8174 8178 8179 8180 8181 
8192 8192 8186 8184 8181 8188 8190 8182 8188 8189 8184 8182 8186 8177 8179 8183 8184 8180 8180 8184 8187 8180 8177 8186 8187 8183 8181 8184 8181 8173 8172 8168 8163 8162 8156 8153 8146 8140 8139 8138 8147 8148 8152 8156 8159 8166 8170 8175 8178 8176 8173 8174 8178 8181 8186 8185 8185 8183 8185 8181 8180 8179 8178 8179 8179 8179 8178 8172 8179 8175 8178 8179 8177 8179 8179 8179 8176 8177 8179 8182 
8191 8182 8188 8185 8181 8189 8193 8186 8186 8183 8182 8185 8185 8177 8180 8182 8182 8180 8179 8179 8184 8178 8183 8184 8187 8185 8188 8190 8189 8183 8176 8168 8176 8173 8170 8166 8167 8161 8155 8153 8162 8166 8166 8165 8164 8170 8177 8181 8172 8169 8169 8181 8183 8181 8184 8184 8186 8185 8180 8180 8177 8179 8181 8179 8176 8175 8175 8177 8180 8176 8177 8176 8180 8180 8182 8181 8175 8176 8177 8178 
8191 8181 8184 8180 8182 8190 8194 8181 8184 8178 8186 8187 8187 8188 8180 8182 8183 8185 8183 8180 8179 8184 8185 8182 8188 8187 8191 8191 8189 8190 8185 8173 8173 8173 8180 8174 8170 8169 8164 8164 8167 8170 8164 8169 8169 8177 8180 8175 8167 8170 8178 8187 8184 8183 8183 8182 8184 8185 8182 8179 8180 8180 8180 8176 8172 8172 8174 8176 8177 8177 8176 8182 8179 8183 8180 8178 8177 8177 8179 8180 
8186 8180 8183 8181 8182 8186 8193 8182 8182 8182 8183 8181 8183 8185 8183 8181 8181 8181 8185 8179 8181 8183 8184 8185 8185 8183 8187 8189 8195 8198 8200 8186 8173 8174 8175 8180 8177 8179 8174 8176 8175 8175 8179 8174 8180 8177 8175 8174 8176 8180 8181 8184 8184 8182 8179 8185 8184 8184 8181 8178 8181 8180 8178 8171 8170 8173 8175 8175 8179 8182 8181 8179 8182 8186 8182 8176 8178 8180 8177 8177 
8186 8186 8180 8181 8182 8188 8185 8190 8181 8181 8181 8181 8183 8184 8181 8180 8178 8183 8185 8179 8178 8183 8189 8187 8184 8190 8190 8190 8201 8201 8195 8195 8191 8181 8175 8173 8173 8177 8182 8184 8184 8181 8182 8174 8172 8175 8177 8182 8184 8181 8185 8184 8186 8184 8186 8182 8184 8182 8180 8186 8184 8182 8177 8167 8171 8176 8172 8173 8180 8179 8184 8182 8180 8180 8180 8184 8180 8179 8179 8180 
8185 8186 8184 8186 8186 8186 8185 8192 8187 8184 8180 8176 8181 8183 8185 8176 8179 8183 8183 8182 8179 8184 8185 8184 8188 8191 8196 8199 8198 8196 8198 8198 8193 8189 8191 8187 8182 8175 8179 8179 8177 8177 8175 8181 8185 8189 8188 8186 8184 8183 8183 8189 8181 8183 8188 8185 8185 8183 8185 8185 8185 8186 8181 8170 8176 8177 8174 8177 8182 8177 8183 8183 8178 8184 8181 8177 8176 8175 8178 8183 
8186 8186 8186 8185 8191 8189 8189 8189 8178 8184 8180 8180 8179 8186 8183 8180 8182 8184 8180 8181 8182 8184 8184 8187 8189 8189 8194 8195 8190 8195 8198 8196 8192 8196 8195 8197 8193 8193 8192 8189 8190 8193 8191 8193 8194 8193 8191 8187 8185 8186 8189 8192 8182 8181 8186 8184 8188 8180 8181 8180 8185 8183 8181 8173 8176 8177 8168 8180 8180 8177 8182 8183 8182 8183 8180 8174 8174 8175 8177 8176 
8187 8192 8186 8189 8182 8188 8188 8187 8178 8186 8179 8184 8184 8188 8182 8181 8179 8177 8185 8182 8180 8185 8181 8185 8190 8186 8191 8192 8195 8195 8195 8193 8193 8193 8196 8194 8197 8199 8194 8193 8195 8187 8192 8195 8194 8194 8184 8192 8191 8189 8190 8193 8182 8182 8183 8183 8185 8180 8183 8184 8184 8178 8177 8176 8175 8174 8173 8174 8177 8182 8186 8180 8180 8182 8180 8175 8173 8171 8176 8168 
8185 8192 8191 8189 8186 8188 8192 8184 8177 8189 8188 8181 8188 8184 8183 8179 8181 8178 8176 8183 8187 8187 8183 8186 8187 8171 8189 8191 8198 8196 8198 8195 8196 8191 8197 8198 8197 8197 8194 8193 8196 8193 8198 8196 8196 8193 8184 8190 8191 8194 8191 8190 8190 8185 8183 8184 8184 8184 8181 8181 8178 8177 8175 8177 8177 8173 8174 8178 8177 8173 8180 8183 8182 8178 8180 8175 8172 8173 8171 8168 
8189 8190 8198 8184 8180 8185 8188 8178 8184 8187 8184 8178 8186 8183 8180 8176 8175 8180 8174 8181 8186 8183 8184 8186 8186 8173 8177 8192 8200 8198 8199 8196 8201 8192 8195 8202 8200 8196 8191 8194 8191 8193 8194 8191 8192 8190 8190 8190 8191 8192 8189 8188 8183 8181 8181 8183 8182 8182 8181 8180 8177 8175 8176 8176 8172 8173 8175 8181 8174 8175 8178 8176 8176 8174 8172 8171 8171 8170 8169 8164 
8195 8195 8192 8175 8184 8182 8187 8178 8183 8180 8181 8175 8179 8181 8182 8179 8172 8176 8178 8181 8176 8181 8181 8184 8190 8183 8192 8195 8194 8194 8192 8198 8197 8196 8187 8196 8197 8190 8189 8196 8196 8190 8187 8193 8190 8189 8188 8190 8190 8193 8189 8186 8180 8177 8183 8175 8180 8179 8180 8177 8174 8175 8177 8171 8172 8173 8177 8179 8179 8174 8176 8176 8172 8169 8168 8168 8168 8163 8163 8163 
8197 8186 8178 8180 8181 8176 8177 8185 8187 8179 8177 8174 8175 8178 8176 8169 8167 8171 8173 8173 8180 8174 8174 8179 8188 8185 8194 8194 8193 8194 8198 8191 8187 8198 8188 8194 8194 8196 8189 8197 8194 8189 8187 8184 8186 8188 8191 8193 8188 8190 8185 8183 8178 8180 8177 8175 8178 8180 8182 8177 8177 8174 8175 8169 8173 8173 8175 8179 8178 8176 8175 8173 8170 8172 8171 8170 8168 8164 8160 8164 
8197 8190 8182 8174 8175 8176 8175 8178 8177 8177 8175 8169 8173 8171 8167 8165 8165 8168 8173 8173 8173 8173 8173 8176 8183 8185 8191 8192 8191 8193 8194 8189 8191 8192 8189 8191 8193 8192 8194 8195 8197 8188 8189 8185 8185 8191 8190 8192 8188 8188 8184 8180 8178 8178 8176 8175 8177 8178 8178 8175 8173 8172 8174 8173 8173 8172 8175 8181 8182 8182 8178 8176 8178 8172 8174 8169 8166 8162 8164 8162 


