P2
80 60
8323
8221 8229 8240 8246 8260 8270 8270 8271 8270 8269 8268 8273 8278 8272 8271 8268 8271 8269 8265 8263 8265 8263 8258 8256 8258 8258 8258 8263 8269 8268 8275 8279 8281 8281 8282 8284 8284 8286 8288 8288 8286 8287 8289 8284 8290 8290 8297 8297 8300 8297 8298 8295 8294 8294 8292 8290 8293 8291 8295 8299 8299 8297 8304 8304 8302 8304 8303 8301 8304 8301 8302 8304 8316 8319 8318 8319 8317 8323 8314 8318 
8217 8230 8238 8241 8255 8264 8269 8270 8269 8271 8268 8267 8272 8267 8269 8270 8273 8266 8266 8269 8266 8263 8266 8263 8262 8265 8271 8274 8279 8280 8287 8290 8290 8288 8289 8292 8291 8293 8296 8295 8290 8295 8291 8289 8295 8293 8288 8282 8293 8299 8299 8296 8291 8295 8292 8288 8286 8287 8290 8292 8293 8297 8301 8302 8303 8304 8305 8308 8306 8304 8303 8305 8316 8317 8320 8318 8318 8318 8318 8316 
8220 8231 8239 8246 8255 8258 8261 8267 8265 8264 8260 8263 8265 8263 8263 8263 8264 8266 8264 8263 8265 8262 8264 8262 8263 8267 8271 8278 8280 8284 8287 8293 8294 8293 8291 8290 8293 8296 8295 8295 8293 8296 8292 8291 8295 8279 8246 8251 8291 8296 8298 8294 8291 8296 8289 8290 8289 8287 8288 8288 8292 8293 8295 8296 8299 8301 8302 8303 8306 8305 8303 8307 8311 8317 8317 8316 8315 8319 8318 8317 
8228 8238 8245 8248 8256 8254 8261 8261 8263 8259 8255 8254 8254 8258 8259 8261 8263 8264 8259 8257 8260 8262 8260 8262 8265 8268 8268 8275 8282 8283 8285 8288 8292 8294 8292 8293 8297 8296 8297 8297 8290 8294 8295 8292 8293 8270 8238 8246 8289 8295 8295 8295 8295 8294 8291 8287 8289 8286 8287 8290 8292 8291 8293 8294 8293 8293 8295 8297 8301 8303 8306 8305 8310 8317 8315 8315 8317 8317 8316 8314 
8224 8237 8248 8249 8254 8257 8258 8259 8254 8256 8253 8250 8257 8255 8256 8257 8261 8261 8257 8259 8262 8262 8261 8262 8264 8266 8268 8273 8276 8280 8287 8286 8293 8292 8289 8294 8295 8293 8296 8295 8293 8293 8295 8292 8295 8267 8236 8247 8287 8294 8295 8293 8293 8292 8287 8285 8287 8284 8285 8287 8291 8290 8291 8292 8291 8291 8292 8291 8297 8301 8299 8300 8300 8314 8313 8312 8314 8312 8310 8312 
8226 8243 8252 8252 8254 8255 8260 8259 8258 8260 8252 8257 8255 8256 8255 8255 8257 8260 8261 8261 8261 8261 8261 8262 8265 8266 8271 8274 8278 8282 8285 8286 8291 8288 8287 8289 8293 8290 8291 8291 8289 8295 8295 8295 8289 8267 8233 8247 8287 8293 8296 8293 8292 8293 8291 8287 8286 8286 8285 8290 8289 8290 8291 8292 8293 8291 8292 8292 8296 8293 8295 8298 8296 8308 8310 8309 8308 8311 8312 8315 
8229 8249 8257 8257 8259 8262 8264 8264 8257 8254 8255 8254 8256 8251 8254 8257 8258 8261 8262 8264 8262 8263 8262 8264 8267 8269 8268 8274 8280 8280 8286 8287 8289 8285 8287 8290 8292 8289 8292 8289 8291 8294 8294 8295 8292 8270 8233 8243 8288 8295 8296 8291 8291 8294 8286 8286 8285 8284 8284 8288 8286 8288 8292 8292 8291 8293 8291 8294 8296 8293 8295 8295 8293 8300 8309 8309 8310 8312 8312 8311 
8233 8253 8257 8260 8261 8262 8265 8262 8258 8257 8254 8252 8250 8252 8257 8259 8259 8261 8261 8262 8265 8262 8263 8262 8260 8266 8266 8269 8274 8279 8284 8287 8286 8286 8289 8291 8289 8290 8289 8292 8291 8294 8298 8292 8293 8270 8235 8242 8285 8294 8296 8291 8292 8293 8288 8286 8284 8286 8289 8288 8287 8289 8290 8291 8290 8292 8292 8292 8292 8294 8290 8289 8292 8294 8308 8308 8306 8312 8310 8309 
8238 8252 8258 8259 8262 8263 8264 8262 8256 8254 8252 8255 8251 8256 8257 8255 8260 8258 8261 8261 8263 8262 8260 8262 8258 8264 8266 8271 8274 8278 8279 8284 8286 8290 8289 8287 8291 8290 8287 8291 8292 8293 8297 8293 8292 8270 8231 8241 8287 8291 8294 8293 8289 8292 8289 8285 8286 8287 8287 8291 8287 8291 8291 8292 8294 8292 8292 8291 8292 8292 8291 8291 8291 8290 8303 8307 8309 8310 8309 8310 
8242 8254 8258 8260 8260 8259 8253 8257 8257 8256 8255 8253 8252 8252 8255 8255 8260 8259 8259 8263 8262 8261 8261 8260 8259 8260 8265 8270 8274 8274 8281 8281 8286 8288 8287 8289 8289 8287 8290 8289 8290 8293 8293 8273 8275 8268 8230 8236 8258 8273 8279 8286 8292 8293 8287 8287 8285 8287 8289 8290 8289 8289 8293 8293 8291 8293 8292 8291 8293 8290 8292 8291 8292 8292 8300 8305 8305 8310 8308 8306 
8246 8253 8256 8258 8258 8253 8253 8256 8251 8255 8254 8253 8250 8254 8255 8255 8258 8257 8258 8259 8265 8261 8261 8261 8262 8264 8263 8271 8276 8279 8283 8284 8286 8287 8285 8289 8291 8290 8291 8290 8290 8294 8290 8252 8227 8254 8230 8235 8240 8221 8243 8257 8288 8289 8286 8285 8284 8285 8285 8290 8284 8289 8290 8291 8292 8292 8292 8291 8290 8293 8293 8292 8291 8290 8294 8302 8304 8305 8308 8307 
8248 8258 8260 8258 8255 8250 8247 8253 8251 8253 8254 8255 8253 8253 8256 8254 8256 8258 8257 8260 8264 8264 8260 8260 8261 8262 8267 8270 8277 8279 8285 8286 8283 8287 8284 8286 8291 8287 8287 8288 8282 8284 8289 8280 8228 8226 8214 8209 8208 8202 8206 8230 8267 8285 8282 8284 8279 8280 8285 8285 8284 8285 8286 8290 8288 8289 8290 8289 8288 8290 8290 8288 8288 8289 8293 8299 8305 8310 8307 8309 
8251 8262 8262 8254 8256 8252 8252 8251 8250 8254 8251 8250 8254 8258 8257 8257 8258 8261 8263 8263 8262 8263 8262 8261 8259 8263 8266 8275 8275 8278 8286 8286 8285 8287 8284 8287 8290 8287 8285 8279 8260 8246 8247 8242 8226 8204 8199 8196 8200 8200 8210 8216 8229 8272 8282 8281 8278 8280 8280 8282 8284 8284 8284 8287 8286 8288 8287 8288 8288 8287 8286 8284 8285 8287 8289 8297 8305 8310 8305 8307 
8257 8266 8266 8260 8258 8251 8251 8251 8249 8254 8256 8256 8256 8254 8259 8258 8260 8259 8262 8265 8263 8261 8259 8262 8263 8262 8266 8273 8275 8278 8283 8284 8286 8287 8282 8281 8286 8285 8283 8254 8216 8210 8206 8199 8199 8191 8201 8204 8211 8208 8207 8214 8235 8274 8281 8277 8279 8277 8282 8283 8282 8279 8281 8283 8284 8286 8285 8286 8288 8286 8282 8284 8286 8288 8287 8292 8305 8308 8305 8302 
8259 8260 8264 8261 8257 8254 8246 8249 8249 8249 8253 8255 8253 8253 8261 8258 8262 8263 8261 8263 8264 8261 8258 8259 8261 8262 8269 8271 8274 8276 8278 8275 8280 8277 8255 8235 8274 8280 8278 8255 8265 8261 8242 8210 8204 8199 8205 8197 8196 8214 8207 8210 8238 8272 8280 8278 8277 8280 8280 8279 8276 8278 8279 8284 8285 8284 8284 8285 8285 8286 8285 8284 8284 8292 8290 8290 8300 8306 8300 8294 
8263 8257 8263 8263 8259 8252 8251 8249 8247 8255 8251 8252 8252 8253 8256 8258 8259 8260 8263 8265 8264 8262 8261 8262 8262 8264 8267 8269 8274 8275 8255 8238 8271 8252 8214 8254 8275 8272 8274 8278 8276 8258 8206 8194 8195 8197 8199 8199 8198 8195 8199 8207 8220 8247 8275 8276 8278 8279 8279 8274 8275 8277 8279 8280 8285 8285 8286 8286 8283 8282 8284 8283 8285 8288 8290 8288 8294 8300 8296 8294 
8261 8256 8260 8260 8260 8255 8250 8247 8249 8250 8249 8253 8253 8255 8258 8258 8261 8260 8266 8264 8261 8261 8257 8257 8262 8267 8266 8268 8273 8261 8219 8201 8219 8206 8211 8230 8208 8209 8223 8247 8255 8234 8203 8193 8195 8192 8201 8213 8218 8204 8200 8202 8243 8237 8265 8273 8275 8277 8275 8277 8274 8276 8281 8286 8286 8284 8283 8284 8283 8280 8281 8281 8282 8288 8285 8288 8286 8297 8297 8299 
8263 8258 8261 8256 8253 8252 8249 8251 8249 8252 8254 8255 8259 8257 8262 8262 8263 8265 8264 8265 8265 8264 8265 8261 8263 8269 8267 8269 8271 8261 8209 8201 8200 8195 8195 8197 8202 8197 8212 8227 8233 8219 8199 8203 8196 8195 8203 8222 8239 8244 8216 8205 8217 8254 8258 8275 8271 8275 8274 8277 8274 8278 8281 8284 8280 8282 8285 8284 8282 8281 8282 8281 8282 8282 8284 8283 8282 8288 8297 8292 
8264 8259 8257 8256 8253 8248 8248 8253 8252 8257 8252 8257 8257 8257 8262 8261 8261 8263 8266 8264 8265 8264 8263 8262 8263 8264 8269 8269 8270 8254 8210 8187 8202 8194 8212 8225 8204 8196 8220 8225 8197 8193 8194 8193 8200 8199 8195 8194 8209 8224 8253 8257 8249 8231 8261 8272 8271 8271 8273 8273 8274 8275 8279 8280 8279 8278 8280 8281 8280 8280 8281 8280 8280 8283 8280 8278 8279 8282 8288 8289 
8261 8255 8254 8249 8243 8245 8251 8250 8253 8257 8254 8258 8259 8259 8261 8260 8262 8264 8264 8265 8263 8263 8263 8261 8264 8266 8264 8266 8268 8262 8231 8187 8182 8187 8218 8240 8221 8215 8214 8197 8197 8189 8186 8185 8197 8192 8195 8190 8192 8189 8209 8253 8268 8253 8251 8266 8270 8267 8270 8269 8271 8272 8276 8277 8280 8279 8279 8276 8278 8279 8278 8277 8277 8277 8275 8275 8272 8276 8281 8284 
8254 8260 8253 8244 8242 8242 8243 8251 8254 8259 8260 8259 8259 8259 8264 8262 8263 8262 8260 8263 8267 8263 8264 8264 8262 8264 8266 8267 8265 8243 8194 8189 8192 8183 8199 8205 8194 8179 8189 8212 8220 8197 8188 8193 8195 8201 8197 8192 8193 8193 8194 8229 8253 8265 8261 8270 8269 8269 8272 8270 8268 8271 8275 8277 8278 8278 8277 8281 8275 8277 8279 8275 8277 8281 8278 8275 8275 8274 8275 8279 
8255 8259 8250 8249 8247 8250 8241 8251 8252 8260 8262 8259 8261 8261 8262 8262 8265 8264 8262 8264 8268 8269 8267 8267 8264 8264 8264 8265 8240 8198 8185 8192 8185 8186 8198 8190 8187 8190 8226 8234 8200 8194 8192 8195 8199 8199 8195 8191 8188 8219 8228 8224 8242 8244 8263 8265 8268 8268 8271 8268 8269 8271 8274 8278 8279 8279 8280 8279 8280 8279 8277 8276 8275 8276 8276 8272 8271 8274 8275 8275 
8253 8253 8249 8251 8251 8245 8246 8249 8254 8263 8264 8264 8265 8263 8265 8264 8265 8264 8268 8264 8273 8270 8269 8267 8268 8268 8265 8245 8193 8187 8198 8184 8184 8200 8199 8215 8204 8194 8205 8207 8197 8194 8190 8189 8193 8195 8196 8192 8185 8193 8204 8236 8235 8209 8216 8226 8252 8266 8269 8272 8271 8272 8274 8277 8278 8281 8284 8281 8278 8275 8277 8275 8274 8275 8276 8273 8273 8276 8273 8274 
8251 8252 8248 8252 8253 8253 8252 8254 8261 8267 8267 8266 8263 8267 8268 8267 8266 8267 8267 8268 8274 8271 8270 8270 8270 8265 8265 8213 8194 8201 8192 8183 8195 8196 8185 8216 8221 8205 8186 8193 8194 8194 8197 8195 8195 8191 8195 8194 8194 8194 8196 8206 8201 8188 8185 8205 8240 8268 8269 8269 8270 8271 8275 8278 8279 8281 8281 8281 8277 8279 8274 8275 8275 8275 8277 8275 8274 8279 8271 8274 
8252 8244 8250 8248 8256 8254 8255 8264 8263 8267 8271 8269 8267 8270 8271 8267 8269 8269 8268 8269 8272 8271 8269 8268 8266 8264 8257 8219 8209 8182 8181 8181 8184 8185 8190 8205 8217 8197 8181 8190 8202 8200 8201 8197 8193 8190 8195 8192 8196 8193 8198 8205 8192 8180 8203 8236 8259 8264 8272 8269 8269 8269 8274 8278 8278 8280 8283 8283 8279 8278 8276 8278 8274 8277 8278 8275 8277 8279 8276 8275 
8248 8243 8249 8255 8256 8255 8266 8261 8266 8266 8269 8270 8272 8269 8271 8267 8269 8270 8268 8269 8271 8268 8266 8266 8265 8264 8263 8232 8219 8209 8199 8189 8186 8191 8196 8191 8192 8186 8195 8205 8216 8211 8197 8195 8194 8188 8190 8186 8190 8194 8210 8198 8175 8174 8193 8202 8232 8262 8270 8271 8272 8271 8276 8279 8277 8279 8280 8283 8278 8280 8277 8277 8277 8277 8278 8275 8278 8280 8277 8277 
8248 8250 8256 8258 8262 8262 8261 8263 8266 8269 8268 8271 8270 8269 8268 8265 8271 8269 8269 8267 8268 8268 8265 8265 8262 8263 8257 8230 8233 8240 8222 8208 8192 8194 8199 8190 8186 8196 8200 8219 8219 8200 8194 8190 8194 8188 8193 8203 8198 8193 8188 8187 8186 8184 8184 8198 8225 8254 8269 8271 8270 8269 8272 8276 8277 8280 8281 8279 8278 8277 8276 8277 8275 8278 8275 8277 8282 8280 8277 8280 
8248 8260 8262 8260 8263 8264 8264 8263 8267 8268 8268 8270 8268 8270 8270 8267 8268 8269 8268 8268 8269 8269 8268 8267 8264 8264 8246 8231 8237 8234 8214 8211 8217 8220 8207 8191 8192 8211 8199 8198 8192 8190 8191 8191 8194 8191 8194 8197 8193 8185 8182 8196 8201 8206 8209 8216 8211 8224 8266 8271 8270 8268 8274 8276 8279 8279 8280 8276 8273 8275 8278 8277 8277 8276 8276 8277 8281 8283 8280 8280 
8251 8257 8263 8260 8263 8264 8265 8267 8265 8271 8268 8271 8269 8267 8268 8267 8266 8267 8269 8267 8269 8266 8268 8269 8266 8264 8244 8234 8239 8221 8206 8207 8218 8218 8215 8200 8194 8190 8192 8186 8178 8179 8184 8188 8186 8193 8202 8195 8195 8189 8203 8196 8219 8235 8217 8240 8241 8252 8266 8271 8269 8271 8274 8275 8280 8279 8277 8276 8272 8274 8276 8277 8273 8279 8277 8278 8281 8285 8281 8281 
8250 8259 8260 8261 8263 8265 8265 8267 8269 8268 8269 8274 8271 8267 8266 8269 8270 8267 8268 8267 8268 8269 8267 8266 8266 8263 8240 8234 8234 8210 8205 8205 8205 8194 8193 8197 8199 8190 8188 8188 8184 8184 8182 8182 8185 8191 8213 8192 8196 8194 8226 8202 8203 8235 8229 8248 8249 8264 8268 8269 8266 8270 8273 8277 8278 8279 8278 8277 8274 8272 8270 8275 8273 8275 8277 8280 8283 8284 8283 8280 
8255 8258 8259 8260 8262 8263 8266 8268 8270 8270 8270 8269 8265 8266 8266 8266 8267 8267 8268 8270 8269 8268 8270 8267 8267 8263 8241 8233 8233 8213 8207 8203 8198 8186 8188 8195 8196 8188 8186 8192 8194 8184 8181 8185 8184 8195 8200 8198 8195 8192 8222 8208 8189 8220 8243 8247 8250 8266 8267 8269 8267 8266 8272 8276 8275 8278 8276 8273 8270 8272 8272 8275 8273 8275 8276 8278 8281 8286 8281 8277 
8257 8258 8260 8258 8261 8265 8264 8266 8267 8267 8267 8268 8266 8267 8265 8265 8268 8268 8267 8267 8268 8266 8271 8269 8268 8265 8248 8235 8229 8201 8200 8205 8192 8184 8184 8190 8191 8189 8188 8192 8199 8198 8193 8201 8211 8208 8202 8197 8196 8193 8207 8218 8189 8218 8243 8244 8253 8265 8265 8265 8265 8272 8272 8273 8275 8276 8273 8273 8270 8272 8271 8273 8273 8273 8274 8277 8273 8281 8279 8276 
8258 8264 8266 8263 8264 8264 8265 8265 8266 8267 8266 8268 8264 8264 8265 8263 8266 8268 8266 8268 8271 8269 8269 8271 8266 8266 8255 8237 8235 8210 8205 8205 8184 8191 8191 8186 8182 8188 8188 8187 8187 8199 8207 8218 8227 8203 8205 8200 8208 8200 8207 8226 8198 8214 8242 8243 8256 8264 8263 8264 8267 8268 8271 8272 8270 8271 8274 8274 8270 8270 8272 8273 8269 8270 8271 8271 8271 8271 8271 8276 
8259 8266 8270 8264 8268 8267 8265 8267 8269 8269 8269 8266 8270 8265 8270 8266 8266 8270 8271 8268 8269 8269 8270 8268 8270 8267 8265 8240 8241 8223 8216 8206 8192 8208 8196 8185 8182 8185 8185 8186 8187 8193 8206 8215 8225 8211 8223 8228 8233 8215 8210 8223 8209 8218 8243 8245 8260 8266 8265 8265 8265 8268 8267 8269 8268 8271 8269 8268 8269 8267 8268 8268 8267 8267 8271 8270 8264 8268 8268 8270 
8266 8271 8270 8267 8269 8265 8271 8270 8266 8268 8270 8269 8266 8264 8269 8268 8268 8269 8271 8269 8270 8271 8269 8270 8270 8266 8264 8252 8240 8217 8203 8210 8211 8207 8198 8184 8182 8182 8191 8191 8190 8191 8190 8216 8232 8237 8250 8250 8239 8229 8228 8224 8221 8229 8241 8253 8261 8264 8263 8263 8267 8266 8267 8268 8268 8266 8267 8269 8269 8267 8268 8267 8264 8265 8268 8267 8265 8266 8266 8263 
8270 8271 8271 8269 8271 8268 8271 8272 8271 8269 8270 8271 8272 8269 8270 8267 8269 8273 8273 8269 8273 8270 8269 8269 8267 8264 8266 8262 8246 8232 8202 8202 8206 8204 8200 8188 8182 8188 8193 8194 8201 8196 8206 8227 8239 8252 8255 8254 8237 8229 8225 8224 8221 8239 8249 8262 8262 8266 8263 8266 8269 8266 8266 8265 8267 8267 8268 8268 8268 8268 8267 8269 8266 8267 8268 8270 8268 8264 8261 8264 
8268 8276 8274 8269 8270 8270 8273 8273 8271 8266 8267 8273 8272 8271 8270 8270 8272 8268 8273 8270 8273 8271 8271 8267 8268 8264 8262 8262 8246 8251 8227 8204 8207 8200 8198 8203 8200 8200 8191 8195 8212 8219 8227 8232 8244 8247 8254 8250 8229 8218 8222 8215 8226 8248 8256 8265 8266 8266 8266 8265 8268 8268 8266 8265 8268 8269 8273 8270 8273 8271 8269 8270 8270 8273 8272 8270 8271 8272 8266 8267 
8267 8270 8273 8270 8272 8270 8273 8271 8268 8270 8268 8271 8270 8269 8270 8266 8266 8268 8270 8269 8270 8270 8269 8269 8264 8261 8264 8260 8241 8251 8252 8219 8206 8200 8199 8202 8204 8202 8194 8184 8198 8224 8233 8235 8242 8240 8245 8238 8226 8227 8219 8220 8243 8255 8261 8268 8269 8268 8267 8266 8263 8265 8264 8268 8267 8271 8270 8272 8271 8271 8271 8272 8270 8273 8274 8276 8274 8272 8270 8271 
8268 8274 8277 8274 8273 8272 8272 8268 8271 8271 8272 8268 8268 8265 8268 8265 8264 8265 8267 8267 8270 8271 8268 8271 8270 8263 8264 8262 8246 8244 8255 8249 8223 8207 8198 8207 8212 8215 8213 8205 8204 8213 8220 8225 8226 8224 8230 8228 8225 8216 8222 8242 8257 8257 8264 8271 8269 8268 8265 8266 8267 8262 8266 8268 8270 8270 8270 8268 8270 8272 8272 8274 8270 8275 8277 8277 8274 8273 8272 8268 
8264 8273 8278 8273 8274 8274 8274 8271 8271 8272 8270 8270 8268 8266 8267 8264 8265 8268 8269 8270 8272 8269 8269 8270 8267 8264 8264 8262 8247 8243 8251 8261 8255 8228 8211 8212 8214 8211 8211 8206 8205 8205 8218 8215 8215 8222 8226 8225 8221 8229 8250 8260 8264 8262 8269 8274 8269 8265 8268 8265 8268 8265 8268 8267 8270 8270 8270 8270 8269 8269 8270 8273 8271 8277 8277 8275 8271 8272 8273 8271 
8265 8273 8274 8271 8273 8275 8273 8273 8270 8273 8271 8271 8269 8266 8272 8268 8269 8270 8271 8276 8274 8270 8269 8269 8267 8264 8266 8267 8256 8247 8249 8264 8268 8252 8243 8230 8222 8212 8202 8199 8202 8210 8221 8219 8218 8223 8231 8236 8247 8257 8268 8269 8263 8264 8268 8272 8270 8267 8266 8270 8267 8269 8269 8269 8270 8274 8272 8273 8271 8272 8271 8274 8273 8276 8277 8274 8272 8270 8270 8272 
8266 8273 8273 8268 8271 8269 8272 8273 8274 8273 8271 8272 8268 8270 8273 8272 8269 8267 8272 8273 8270 8269 8269 8268 8270 8265 8268 8269 8261 8249 8252 8264 8273 8271 8261 8254 8252 8243 8228 8228 8224 8225 8230 8230 8239 8245 8251 8257 8260 8269 8274 8268 8264 8268 8273 8270 8270 8268 8268 8270 8270 8272 8271 8272 8275 8272 8275 8272 8271 8272 8276 8277 8274 8276 8276 8273 8272 8276 8272 8272 
8263 8270 8270 8267 8268 8267 8271 8270 8274 8274 8270 8271 8271 8275 8270 8269 8271 8272 8270 8270 8271 8270 8269 8269 8269 8267 8267 8269 8269 8256 8251 8261 8273 8275 8266 8265 8261 8257 8254 8253 8251 8254 8255 8251 8253 8257 8263 8266 8269 8274 8275 8261 8266 8277 8275 8273 8271 8269 8271 8272 8274 8272 8275 8275 8277 8277 8275 8273 8275 8274 8275 8276 8276 8276 8276 8275 8274 8278 8272 8273 
8266 8274 8272 8268 8271 8269 8269 8273 8274 8276 8271 8274 8273 8272 8269 8266 8271 8271 8269 8270 8271 8270 8269 8270 8274 8268 8272 8271 8273 8265 8258 8257 8271 8276 8272 8271 8266 8263 8263 8261 8256 8260 8262 8261 8265 8266 8274 8273 8270 8275 8270 8261 8272 8274 8274 8275 8276 8272 8275 8276 8276 8276 8280 8279 8278 8279 8277 8275 8272 8275 8277 8277 8277 8280 8278 8278 8275 8274 8270 8273 
8270 8274 8273 8266 8268 8267 8271 8274 8273 8272 8273 8270 8269 8272 8273 8268 8271 8272 8269 8270 8268 8267 8267 8267 8272 8271 8268 8269 8275 8271 8267 8258 8261 8274 8276 8273 8272 8270 8269 8269 8269 8272 8271 8272 8273 8273 8275 8271 8274 8267 8266 8273 8274 8277 8273 8275 8275 8274 8275 8274 8273 8276 8280 8279 8280 8275 8275 8276 8276 8278 8275 8276 8280 8279 8278 8276 8277 8275 8270 8274 
8267 8274 8274 8275 8270 8275 8274 8272 8271 8272 8273 8269 8272 8273 8275 8272 8273 8274 8270 8268 8270 8270 8272 8271 8271 8270 8272 8274 8275 8275 8274 8269 8262 8268 8277 8281 8278 8270 8273 8273 8270 8272 8273 8273 8275 8274 8277 8276 8271 8266 8274 8273 8274 8275 8274 8273 8274 8270 8272 8274 8275 8275 8278 8278 8279 8278 8277 8278 8276 8281 8277 8280 8280 8280 8277 8279 8276 8277 8271 8274 
8276 8285 8280 8276 8279 8281 8279 8277 8277 8278 8275 8276 8276 8275 8276 8275 8280 8276 8272 8273 8274 8272 8272 8273 8270 8273 8273 8277 8277 8280 8280 8280 8276 8269 8266 8277 8281 8281 8283 8280 8278 8277 8279 8274 8281 8282 8280 8272 8272 8277 8279 8278 8278 8279 8276 8275 8275 8274 8274 8274 8275 8277 8277 8276 8278 8278 8280 8278 8277 8277 8279 8278 8281 8279 8276 8277 8273 8278 8272 8274 
8282 8287 8287 8281 8287 8286 8284 8284 8284 8285 8284 8279 8279 8272 8277 8276 8279 8279 8276 8277 8277 8275 8273 8275 8272 8273 8272 8276 8280 8280 8282 8282 8280 8285 8277 8273 8272 8274 8280 8282 8283 8284 8280 8279 8278 8276 8279 8277 8278 8280 8282 8280 8277 8278 8276 8274 8274 8275 8275 8275 8276 8274 8278 8278 8278 8278 8278 8276 8277 8280 8274 8280 8279 8280 8278 8277 8276 8276 8274 8271 
8286 8290 8293 8290 8292 8291 8289 8291 8290 8291 8288 8284 8281 8279 8282 8281 8285 8284 8281 8279 8280 8275 8274 8277 8278 8276 8278 8281 8284 8287 8293 8293 8288 8287 8286 8289 8288 8283 8282 8279 8280 8283 8283 8280 8282 8282 8287 8281 8279 8280 8281 8281 8277 8278 8278 8275 8275 8272 8276 8276 8278 8278 8276 8278 8278 8278 8278 8279 8278 8277 8278 8278 8281 8281 8281 8278 8274 8276 8277 8274 
8285 8285 8292 8290 8290 8293 8292 8290 8288 8289 8290 8287 8291 8288 8284 8283 8290 8291 8286 8280 8276 8279 8279 8280 8282 8282 8284 8285 8289 8293 8295 8297 8295 8294 8293 8292 8296 8293 8292 8293 8294 8293 8295 8288 8290 8283 8285 8284 8281 8283 8284 8283 8283 8281 8279 8277 8278 8278 8276 8278 8280 8281 8279 8277 8277 8277 8279 8277 8279 8282 8280 8283 8283 8282 8282 8279 8275 8277 8276 8274 
8283 8288 8292 8290 8291 8294 8295 8291 8289 8292 8291 8290 8290 8292 8290 8290 8290 8291 8288 8283 8279 8283 8282 8285 8286 8287 8288 8288 8291 8295 8301 8305 8299 8303 8299 8301 8299 8300 8298 8298 8297 8299 8301 8293 8293 8289 8289 8290 8288 8286 8286 8288 8284 8288 8278 8277 8278 8277 8278 8276 8279 8278 8279 8276 8277 8276 8279 8281 8279 8282 8282 8281 8283 8285 8283 8280 8277 8278 8274 8276 
8287 8289 8292 8290 8292 8293 8291 8299 8293 8291 8292 8292 8296 8293 8294 8290 8290 8293 8291 8284 8284 8287 8289 8286 8287 8291 8290 8295 8295 8296 8303 8307 8303 8305 8303 8302 8304 8302 8303 8307 8300 8301 8303 8300 8298 8294 8297 8297 8290 8292 8290 8291 8291 8289 8284 8281 8280 8280 8280 8280 8280 8281 8282 8278 8276 8278 8282 8278 8281 8282 8285 8286 8287 8286 8284 8279 8279 8279 8277 8276 
8286 8294 8292 8295 8295 8295 8298 8302 8301 8297 8291 8294 8294 8293 8292 8291 8294 8295 8292 8294 8291 8290 8288 8292 8291 8294 8296 8297 8302 8297 8302 8307 8302 8308 8306 8305 8305 8306 8304 8304 8304 8303 8301 8300 8303 8300 8303 8300 8296 8296 8294 8298 8292 8292 8286 8282 8279 8280 8279 8280 8281 8280 8280 8279 8278 8280 8279 8280 8279 8284 8285 8290 8290 8289 8287 8282 8281 8280 8279 8279 
8285 8293 8296 8293 8293 8297 8299 8302 8294 8299 8297 8298 8299 8295 8293 8295 8299 8300 8296 8293 8295 8296 8293 8294 8298 8298 8301 8301 8303 8301 8303 8303 8302 8309 8308 8308 8309 8307 8306 8305 8303 8304 8303 8301 8303 8301 8305 8303 8304 8302 8301 8297 8298 8294 8288 8282 8283 8278 8278 8281 8281 8280 8281 8277 8278 8279 8279 8281 8281 8285 8289 8295 8289 8291 8293 8287 8282 8280 8277 8277 
8284 8297 8296 8295 8293 8296 8299 8300 8297 8297 8295 8298 8299 8292 8294 8294 8296 8299 8297 8299 8297 8296 8296 8300 8298 8297 8301 8303 8304 8307 8308 8306 8307 8308 8309 8312 8311 8312 8311 8307 8307 8308 8309 8310 8310 8304 8307 8307 8311 8309 8300 8305 8299 8295 8290 8286 8281 8282 8279 8279 8283 8277 8278 8279 8278 8279 8281 8279 8283 8287 8290 8293 8293 8292 8291 8286 8282 8282 8282 8275 
8287 8301 8302 8295 8294 8297 8303 8302 8293 8301 8299 8297 8296 8291 8294 8293 8298 8298 8296 8298 8298 8299 8293 8300 8297 8295 8297 8300 8309 8310 8312 8311 8311 8312 8313 8309 8312 8313 8313 8312 8311 8312 8316 8313 8313 8311 8312 8313 8316 8313 8306 8304 8301 8299 8291 8284 8282 8281 8277 8281 8279 8277 8276 8281 8280 8278 8279 8281 8286 8287 8291 8294 8294 8296 8293 8286 8284 8285 8279 8280 
8288 8300 8305 8296 8295 8298 8300 8302 8300 8299 8296 8296 8295 8293 8297 8291 8293 8296 8293 8297 8296 8295 8294 8298 8299 8291 8290 8300 8309 8312 8312 8312 8315 8313 8312 8313 8312 8309 8310 8310 8308 8311 8315 8315 8316 8313 8313 8316 8312 8310 8308 8303 8302 8295 8291 8285 8283 8279 8277 8277 8273 8272 8277 8278 8279 8279 8280 8278 8282 8288 8289 8293 8293 8294 8291 8286 8282 8280 8280 8277 
8288 8298 8302 8292 8297 8299 8302 8301 8303 8298 8295 8291 8291 8292 8298 8293 8289 8296 8295 8296 8297 8294 8292 8299 8300 8296 8299 8301 8310 8311 8313 8314 8316 8313 8310 8312 8311 8309 8304 8308 8305 8308 8311 8313 8311 8311 8314 8313 8313 8309 8307 8305 8297 8292 8289 8282 8279 8277 8276 8276 8274 8276 8278 8276 8274 8275 8279 8281 8282 8286 8288 8290 8288 8294 8290 8283 8278 8274 8277 8278 
8287 8289 8290 8286 8290 8290 8291 8301 8299 8291 8291 8289 8290 8294 8297 8288 8288 8291 8293 8295 8293 8290 8293 8294 8303 8299 8302 8307 8309 8310 8315 8312 8311 8314 8312 8314 8313 8312 8311 8309 8308 8309 8310 8311 8310 8309 8312 8312 8312 8309 8303 8297 8295 8289 8284 8280 8277 8275 8275 8275 8273 8276 8273 8274 8274 8271 8277 8281 8283 8284 8285 8287 8286 8285 8286 8281 8273 8274 8270 8272 
8292 8284 8282 8280 8286 8286 8288 8292 8295 8290 8286 8288 8290 8289 8289 8288 8281 8289 8286 8289 8291 8294 8290 8294 8296 8300 8302 8307 8312 8312 8313 8308 8308 8315 8314 8314 8314 8314 8311 8311 8308 8304 8308 8303 8308 8306 8313 8312 8312 8309 8302 8298 8294 8291 8284 8281 8275 8276 8276 8275 8272 8273 8274 8271 8270 8271 8277 8276 8282 8285 8285 8287 8288 8283 8289 8281 8271 8273 8272 8270 


