P2
80 60
8207
8135 8136 8141 8146 8146 8150 8154 8153 8149 8151 8154 8152 8154 8156 8154 8159 8159 8162 8161 8166 8167 8168 8169 8166 8165 8164 8168 8171 8170 8174 8178 8179 8181 8180 8181 8187 8189 8190 8194 8194 8195 8198 8194 8195 8191 8192 8190 8191 8190 8190 8189 8188 8185 8182 8179 8175 8174 8169 8168 8171 8165 8166 8165 8164 8163 8165 8165 8165 8166 8168 8168 8167 8167 8168 8166 8165 8168 8164 8162 8172 
8138 8138 8145 8148 8149 8152 8152 8153 8152 8152 8153 8154 8155 8154 8158 8161 8163 8163 8164 8167 8169 8171 8170 8168 8166 8168 8171 8170 8174 8177 8179 8183 8184 8183 8182 8185 8186 8192 8197 8197 8197 8198 8196 8195 8191 8190 8191 8193 8189 8190 8189 8189 8183 8185 8181 8175 8174 8174 8171 8173 8170 8166 8167 8164 8163 8162 8163 8165 8169 8172 8169 8166 8168 8167 8168 8167 8168 8163 8162 8163 
8138 8137 8146 8144 8151 8150 8150 8153 8152 8154 8155 8153 8152 8157 8162 8162 8164 8166 8167 8168 8169 8171 8171 8167 8169 8171 8172 8175 8175 8181 8181 8183 8185 8187 8186 8188 8192 8196 8200 8199 8199 8199 8198 8196 8195 8196 8195 8194 8193 8192 8194 8192 8185 8187 8183 8180 8182 8180 8178 8180 8174 8170 8171 8164 8167 8164 8166 8164 8169 8170 8168 8166 8168 8168 8165 8166 8165 8164 8165 8166 
8144 8138 8146 8150 8148 8153 8155 8155 8155 8158 8152 8154 8155 8161 8162 8165 8165 8165 8170 8171 8169 8169 8167 8169 8171 8174 8176 8177 8177 8182 8185 8185 8184 8189 8185 8189 8197 8198 8200 8201 8202 8204 8201 8197 8196 8198 8198 8194 8197 8196 8193 8194 8187 8190 8188 8182 8185 8183 8182 8182 8177 8177 8175 8172 8174 8169 8169 8170 8173 8172 8169 8168 8170 8169 8164 8164 8166 8168 8162 8167 
8150 8146 8150 8150 8154 8155 8155 8157 8156 8157 8152 8151 8156 8158 8161 8164 8165 8165 8165 8172 8168 8171 8173 8170 8171 8174 8177 8178 8178 8183 8190 8189 8188 8188 8188 8191 8197 8203 8206 8204 8203 8206 8200 8201 8196 8200 8202 8200 8197 8196 8198 8194 8189 8189 8190 8187 8189 8186 8185 8184 8181 8181 8180 8177 8178 8173 8172 8170 8169 8172 8170 8168 8166 8165 8164 8162 8163 8163 8162 8167 
8156 8154 8154 8156 8155 8159 8161 8158 8153 8154 8151 8153 8156 8159 8158 8163 8162 8165 8167 8171 8172 8170 8172 8170 8173 8170 8177 8174 8178 8185 8187 8192 8188 8190 8192 8192 8198 8201 8206 8204 8205 8207 8205 8199 8199 8205 8201 8198 8200 8198 8198 8194 8192 8191 8189 8187 8188 8187 8187 8186 8182 8180 8183 8179 8182 8177 8175 8178 8177 8176 8173 8170 8169 8169 8165 8160 8160 8164 8163 8163 
8164 8158 8159 8157 8160 8159 8161 8159 8154 8151 8146 8153 8153 8155 8155 8159 8161 8164 8166 8173 8170 8169 8170 8173 8170 8172 8171 8173 8177 8186 8187 8188 8192 8190 8189 8192 8197 8201 8203 8205 8205 8205 8203 8201 8199 8202 8199 8197 8198 8197 8193 8193 8192 8191 8189 8187 8188 8186 8186 8186 8182 8181 8182 8181 8181 8181 8181 8181 8179 8177 8175 8170 8172 8169 8163 8163 8164 8162 8160 8163 
8162 8163 8162 8159 8162 8165 8162 8165 8156 8150 8149 8153 8157 8158 8158 8159 8161 8162 8167 8169 8168 8170 8167 8168 8169 8169 8169 8172 8176 8184 8186 8189 8192 8189 8193 8192 8197 8202 8204 8204 8204 8204 8202 8201 8199 8200 8200 8197 8197 8200 8193 8193 8191 8193 8190 8189 8191 8189 8181 8185 8184 8181 8182 8181 8181 8179 8183 8183 8182 8180 8172 8172 8169 8167 8168 8166 8161 8164 8162 8164 
8163 8156 8158 8156 8159 8156 8163 8160 8156 8151 8152 8156 8156 8158 8155 8156 8158 8162 8165 8166 8168 8166 8171 8168 8162 8166 8167 8172 8177 8182 8185 8189 8188 8192 8188 8190 8196 8200 8199 8200 8201 8203 8199 8198 8196 8197 8196 8198 8197 8195 8193 8193 8189 8190 8189 8184 8186 8185 8184 8181 8181 8176 8180 8178 8182 8178 8179 8179 8180 8178 8175 8174 8169 8170 8166 8168 8162 8164 8162 8166 
8160 8156 8160 8156 8156 8160 8154 8156 8155 8153 8153 8156 8155 8155 8155 8157 8159 8161 8162 8167 8168 8167 8166 8165 8164 8167 8170 8174 8178 8183 8186 8188 8189 8189 8190 8191 8194 8192 8189 8192 8197 8197 8195 8196 8196 8196 8197 8197 8196 8193 8192 8191 8190 8190 8186 8184 8184 8183 8181 8177 8180 8177 8178 8179 8177 8180 8179 8179 8177 8176 8175 8171 8169 8163 8165 8165 8164 8164 8163 8169 
8160 8152 8157 8155 8155 8158 8153 8153 8155 8156 8152 8155 8154 8158 8156 8155 8161 8159 8160 8166 8168 8170 8168 8168 8168 8167 8170 8178 8177 8185 8183 8190 8190 8189 8190 8191 8182 8151 8143 8150 8174 8163 8167 8184 8187 8190 8196 8193 8193 8195 8191 8190 8185 8187 8184 8182 8182 8181 8181 8180 8179 8175 8178 8176 8177 8177 8176 8177 8176 8172 8170 8169 8168 8165 8165 8168 8166 8167 8167 8170 
8155 8155 8155 8151 8153 8156 8153 8156 8156 8152 8153 8155 8155 8161 8158 8158 8161 8161 8161 8164 8170 8169 8167 8166 8168 8172 8174 8176 8180 8185 8186 8187 8187 8186 8184 8181 8173 8171 8169 8150 8130 8133 8122 8133 8145 8159 8190 8193 8195 8194 8193 8188 8188 8189 8183 8178 8177 8178 8178 8177 8176 8173 8178 8177 8176 8176 8175 8172 8173 8173 8167 8168 8164 8164 8165 8165 8168 8168 8167 8166 
8157 8155 8156 8154 8154 8156 8154 8153 8151 8156 8156 8157 8158 8162 8160 8159 8162 8161 8165 8169 8169 8170 8167 8166 8168 8171 8172 8175 8179 8184 8178 8159 8173 8185 8173 8134 8127 8134 8146 8135 8119 8117 8118 8123 8161 8185 8193 8192 8193 8194 8192 8189 8186 8186 8184 8176 8176 8177 8176 8176 8172 8175 8178 8173 8173 8174 8176 8174 8172 8172 8169 8166 8168 8167 8165 8166 8170 8168 8169 8168 
8159 8158 8158 8157 8157 8160 8154 8155 8155 8159 8160 8160 8164 8165 8162 8160 8165 8165 8166 8168 8168 8169 8167 8166 8169 8169 8171 8175 8175 8180 8170 8118 8124 8170 8177 8138 8118 8114 8110 8110 8113 8123 8125 8124 8136 8156 8173 8181 8190 8193 8193 8188 8186 8184 8183 8178 8178 8178 8175 8172 8173 8169 8173 8174 8177 8175 8174 8173 8171 8173 8170 8167 8166 8166 8164 8164 8165 8169 8168 8171 
8161 8154 8157 8159 8162 8160 8157 8161 8156 8159 8160 8164 8163 8166 8166 8164 8166 8167 8163 8168 8168 8167 8168 8167 8167 8172 8172 8171 8175 8180 8167 8118 8116 8133 8170 8133 8139 8109 8103 8104 8108 8117 8146 8150 8121 8124 8128 8149 8189 8194 8190 8190 8185 8183 8179 8179 8178 8177 8173 8174 8174 8174 8174 8174 8177 8173 8174 8171 8173 8173 8171 8168 8165 8167 8164 8164 8166 8165 8166 8170 
8156 8155 8158 8161 8162 8159 8161 8161 8162 8160 8164 8164 8163 8164 8166 8165 8167 8164 8164 8168 8167 8168 8167 8165 8165 8167 8170 8175 8174 8178 8174 8118 8114 8118 8165 8120 8113 8108 8104 8107 8111 8117 8123 8119 8115 8120 8126 8153 8177 8188 8187 8189 8187 8184 8182 8174 8178 8174 8176 8176 8178 8175 8178 8177 8178 8176 8174 8172 8169 8171 8171 8167 8165 8163 8164 8165 8164 8164 8167 8173 
8160 8156 8157 8163 8165 8164 8164 8161 8164 8159 8166 8166 8166 8167 8164 8168 8169 8168 8167 8167 8167 8168 8169 8165 8164 8166 8170 8175 8173 8177 8179 8134 8116 8123 8159 8133 8116 8109 8107 8109 8112 8117 8116 8115 8114 8117 8117 8125 8143 8163 8176 8183 8182 8183 8181 8175 8179 8175 8178 8177 8177 8178 8180 8179 8178 8178 8174 8172 8171 8169 8167 8165 8165 8164 8164 8165 8163 8166 8166 8168 
8162 8162 8165 8167 8164 8167 8166 8164 8165 8166 8165 8167 8164 8165 8168 8166 8168 8165 8165 8170 8166 8167 8167 8166 8166 8169 8176 8174 8173 8173 8173 8152 8114 8112 8112 8111 8116 8115 8111 8123 8115 8119 8123 8120 8117 8121 8116 8116 8123 8125 8139 8153 8171 8175 8179 8176 8178 8175 8180 8181 8180 8178 8183 8181 8185 8180 8178 8174 8166 8156 8161 8167 8164 8164 8164 8163 8158 8165 8168 8168 
8168 8163 8166 8165 8166 8170 8169 8169 8165 8168 8166 8167 8167 8167 8166 8170 8169 8168 8168 8170 8168 8167 8169 8167 8165 8173 8174 8175 8172 8156 8124 8125 8114 8107 8110 8111 8117 8115 8112 8110 8111 8115 8124 8120 8113 8113 8110 8113 8121 8113 8117 8128 8137 8156 8171 8172 8175 8174 8177 8182 8179 8180 8181 8182 8182 8180 8178 8173 8145 8133 8145 8159 8163 8164 8164 8162 8164 8163 8161 8169 
8172 8166 8167 8168 8164 8170 8169 8168 8166 8165 8166 8167 8166 8167 8165 8167 8167 8166 8168 8170 8169 8168 8167 8166 8163 8164 8169 8167 8163 8162 8133 8107 8108 8119 8136 8137 8130 8113 8112 8110 8108 8106 8111 8116 8113 8111 8108 8110 8117 8112 8112 8125 8130 8125 8121 8144 8172 8177 8176 8177 8179 8179 8180 8181 8182 8179 8170 8144 8130 8132 8137 8145 8160 8166 8167 8161 8165 8165 8167 8167 
8171 8167 8168 8164 8166 8167 8166 8170 8164 8167 8165 8167 8168 8168 8166 8165 8167 8165 8165 8169 8167 8166 8167 8164 8152 8138 8131 8127 8112 8116 8118 8107 8104 8120 8133 8128 8115 8109 8114 8124 8115 8113 8108 8108 8111 8112 8116 8118 8123 8115 8110 8115 8120 8114 8113 8116 8160 8173 8177 8177 8175 8179 8180 8178 8179 8170 8143 8130 8129 8134 8136 8146 8165 8174 8169 8166 8165 8165 8166 8168 
8172 8167 8170 8172 8169 8169 8163 8169 8164 8167 8165 8165 8167 8164 8165 8165 8168 8164 8163 8163 8165 8164 8158 8130 8104 8097 8105 8108 8109 8109 8113 8105 8105 8110 8111 8109 8107 8109 8119 8118 8109 8115 8112 8109 8117 8118 8116 8112 8114 8111 8108 8106 8106 8108 8108 8111 8141 8170 8173 8175 8175 8178 8179 8176 8167 8139 8131 8129 8135 8137 8144 8167 8173 8173 8172 8174 8169 8169 8168 8172 
8174 8169 8171 8172 8173 8171 8163 8164 8165 8168 8169 8168 8166 8166 8167 8164 8165 8165 8163 8164 8167 8157 8113 8095 8096 8099 8109 8129 8122 8118 8112 8109 8105 8104 8102 8109 8109 8111 8121 8113 8107 8111 8117 8127 8116 8110 8108 8105 8107 8108 8103 8101 8097 8104 8106 8110 8133 8167 8175 8177 8173 8175 8179 8167 8140 8131 8133 8133 8136 8150 8171 8176 8176 8174 8175 8168 8173 8174 8171 8173 
8171 8169 8170 8171 8172 8173 8168 8168 8167 8168 8167 8169 8168 8164 8168 8165 8169 8164 8165 8165 8166 8131 8097 8097 8098 8117 8149 8150 8122 8122 8120 8112 8109 8106 8104 8115 8110 8121 8131 8120 8110 8122 8113 8119 8114 8113 8109 8104 8105 8111 8108 8110 8106 8107 8109 8119 8134 8150 8170 8175 8174 8176 8167 8133 8129 8134 8134 8133 8150 8171 8177 8178 8173 8173 8172 8173 8172 8171 8176 8176 
8176 8169 8171 8168 8171 8167 8168 8169 8163 8167 8168 8166 8169 8167 8165 8169 8167 8166 8167 8167 8163 8123 8100 8116 8142 8160 8160 8134 8120 8118 8120 8113 8107 8107 8110 8107 8111 8120 8118 8120 8113 8113 8111 8112 8111 8110 8108 8106 8106 8108 8110 8124 8112 8107 8105 8111 8122 8132 8156 8169 8169 8162 8137 8130 8130 8132 8136 8153 8171 8175 8180 8175 8177 8174 8175 8173 8174 8175 8177 8177 
8173 8168 8170 8170 8171 8169 8168 8163 8166 8165 8169 8169 8169 8167 8167 8168 8165 8168 8166 8165 8162 8155 8153 8161 8162 8165 8154 8125 8120 8120 8121 8109 8106 8107 8110 8117 8115 8112 8110 8113 8114 8114 8112 8116 8115 8116 8108 8105 8107 8107 8112 8125 8119 8110 8108 8109 8113 8117 8117 8132 8151 8129 8131 8126 8132 8137 8159 8176 8175 8180 8176 8177 8175 8176 8174 8173 8174 8175 8176 8182 
8175 8168 8170 8170 8171 8169 8165 8165 8165 8165 8166 8169 8167 8167 8165 8166 8166 8166 8167 8165 8165 8166 8169 8164 8163 8164 8143 8122 8124 8126 8112 8106 8104 8106 8108 8108 8110 8110 8109 8104 8110 8115 8111 8111 8113 8118 8110 8109 8105 8106 8103 8106 8105 8123 8118 8106 8106 8105 8106 8113 8117 8123 8126 8126 8139 8160 8174 8178 8176 8177 8176 8175 8174 8176 8176 8177 8179 8176 8180 8181 
8172 8171 8176 8172 8170 8169 8168 8166 8166 8168 8170 8170 8172 8169 8167 8168 8171 8170 8166 8165 8167 8167 8168 8168 8166 8164 8137 8121 8125 8124 8108 8109 8105 8105 8103 8106 8108 8110 8110 8109 8113 8120 8113 8115 8108 8114 8113 8106 8104 8103 8102 8103 8108 8127 8127 8110 8107 8101 8099 8100 8105 8121 8126 8140 8165 8176 8178 8175 8177 8174 8176 8173 8177 8176 8177 8179 8179 8181 8180 8181 
8170 8172 8173 8172 8175 8170 8169 8168 8171 8172 8172 8171 8168 8171 8168 8165 8170 8170 8167 8167 8169 8168 8169 8172 8169 8165 8131 8123 8123 8121 8115 8108 8107 8105 8107 8106 8104 8109 8106 8108 8113 8116 8115 8115 8103 8108 8112 8107 8102 8108 8109 8106 8105 8115 8123 8155 8119 8102 8102 8100 8105 8116 8129 8158 8179 8177 8180 8175 8175 8175 8173 8171 8175 8174 8176 8182 8183 8178 8182 8183 
8171 8170 8170 8169 8176 8175 8168 8172 8171 8171 8172 8170 8169 8171 8168 8167 8167 8169 8166 8168 8166 8170 8171 8171 8167 8162 8131 8122 8124 8121 8121 8113 8105 8103 8107 8118 8109 8112 8110 8106 8109 8118 8115 8116 8109 8108 8126 8117 8103 8117 8132 8111 8106 8108 8127 8125 8106 8100 8104 8104 8110 8117 8127 8149 8176 8179 8179 8175 8174 8172 8176 8175 8172 8175 8176 8180 8179 8185 8183 8177 
8175 8169 8168 8173 8173 8172 8170 8173 8173 8170 8170 8170 8171 8169 8168 8170 8169 8169 8168 8167 8167 8170 8172 8173 8168 8163 8132 8125 8125 8121 8122 8120 8109 8104 8110 8115 8108 8107 8110 8109 8112 8113 8113 8117 8116 8114 8122 8111 8112 8120 8131 8110 8104 8105 8113 8108 8101 8104 8106 8104 8116 8151 8165 8177 8179 8179 8179 8173 8172 8174 8173 8171 8172 8174 8174 8177 8176 8179 8181 8184 
8173 8168 8168 8171 8171 8172 8170 8173 8171 8171 8167 8169 8169 8170 8167 8170 8172 8168 8167 8166 8167 8168 8168 8171 8170 8163 8136 8121 8121 8122 8121 8121 8117 8111 8117 8113 8105 8102 8107 8109 8111 8109 8112 8114 8115 8115 8120 8128 8118 8122 8115 8110 8104 8105 8106 8101 8101 8107 8115 8109 8116 8159 8174 8180 8178 8176 8178 8174 8178 8175 8173 8172 8171 8176 8175 8175 8178 8180 8182 8182 
8172 8170 8174 8170 8172 8170 8170 8171 8170 8172 8168 8168 8166 8169 8169 8170 8172 8168 8168 8167 8168 8171 8171 8169 8168 8166 8139 8123 8124 8119 8121 8119 8123 8119 8120 8114 8106 8108 8108 8111 8114 8113 8110 8114 8115 8112 8114 8118 8122 8117 8113 8111 8107 8105 8107 8107 8106 8108 8124 8120 8119 8149 8173 8177 8179 8176 8176 8177 8176 8176 8177 8173 8175 8175 8176 8175 8177 8178 8177 8180 
8178 8168 8174 8173 8174 8174 8172 8173 8172 8171 8171 8168 8170 8169 8172 8169 8168 8169 8171 8169 8169 8169 8170 8170 8168 8166 8143 8127 8124 8119 8122 8122 8123 8121 8119 8111 8110 8110 8111 8113 8112 8113 8113 8110 8114 8120 8120 8116 8118 8113 8118 8117 8105 8106 8113 8120 8111 8112 8131 8127 8137 8164 8176 8178 8175 8175 8174 8172 8176 8177 8172 8171 8173 8175 8174 8175 8175 8179 8180 8180 
8175 8172 8175 8173 8173 8172 8172 8175 8172 8170 8167 8165 8168 8170 8169 8168 8169 8171 8171 8172 8170 8170 8168 8167 8165 8164 8149 8127 8123 8118 8126 8124 8125 8120 8115 8113 8110 8109 8113 8110 8113 8110 8110 8110 8117 8126 8134 8121 8114 8115 8118 8127 8105 8107 8125 8125 8112 8113 8135 8139 8159 8172 8177 8172 8175 8176 8175 8175 8175 8177 8175 8171 8172 8174 8174 8175 8171 8173 8175 8176 
8182 8174 8174 8175 8174 8173 8171 8174 8171 8168 8168 8172 8172 8173 8169 8172 8173 8171 8170 8172 8170 8173 8168 8167 8167 8167 8157 8125 8125 8117 8121 8126 8129 8127 8123 8116 8110 8108 8106 8109 8115 8110 8112 8118 8129 8133 8126 8128 8119 8113 8123 8130 8106 8115 8134 8128 8112 8126 8149 8165 8170 8175 8175 8174 8174 8174 8173 8174 8174 8173 8174 8172 8169 8175 8172 8173 8174 8173 8172 8175 
8177 8178 8175 8175 8174 8172 8174 8171 8171 8168 8170 8170 8171 8168 8169 8170 8173 8170 8169 8170 8172 8171 8169 8167 8164 8165 8160 8140 8121 8120 8119 8123 8131 8135 8130 8125 8111 8108 8106 8105 8107 8107 8112 8117 8120 8126 8129 8125 8123 8117 8130 8126 8110 8127 8137 8131 8114 8140 8175 8173 8167 8174 8175 8172 8172 8174 8176 8171 8173 8173 8172 8167 8171 8172 8173 8173 8174 8175 8174 8175 
8185 8174 8174 8173 8174 8171 8176 8172 8174 8171 8168 8169 8171 8171 8171 8168 8171 8171 8170 8172 8171 8171 8170 8168 8167 8164 8167 8157 8128 8126 8123 8124 8130 8136 8134 8127 8118 8122 8114 8105 8106 8108 8109 8116 8117 8116 8120 8126 8125 8126 8135 8135 8132 8138 8141 8135 8128 8161 8179 8171 8170 8172 8174 8172 8175 8174 8177 8174 8173 8175 8167 8167 8170 8170 8172 8173 8175 8175 8173 8175 
8182 8177 8175 8177 8176 8178 8174 8174 8173 8171 8173 8168 8168 8171 8167 8168 8169 8168 8167 8170 8168 8169 8168 8168 8170 8162 8167 8164 8145 8127 8133 8129 8131 8134 8132 8134 8132 8117 8109 8106 8108 8106 8109 8113 8114 8117 8127 8124 8128 8139 8139 8138 8140 8142 8150 8155 8155 8168 8169 8169 8170 8172 8172 8171 8174 8174 8176 8170 8172 8172 8172 8168 8170 8169 8169 8173 8173 8173 8173 8173 
8183 8179 8178 8177 8177 8178 8174 8173 8171 8171 8169 8167 8166 8167 8167 8164 8168 8167 8171 8171 8170 8168 8168 8171 8170 8164 8167 8166 8157 8133 8131 8131 8132 8133 8131 8128 8112 8111 8111 8107 8113 8111 8111 8109 8111 8116 8128 8141 8138 8142 8141 8143 8145 8151 8172 8180 8161 8161 8170 8168 8169 8171 8174 8174 8175 8176 8171 8173 8172 8171 8171 8165 8170 8172 8172 8172 8172 8175 8173 8175 
8181 8177 8178 8175 8174 8173 8176 8173 8170 8168 8170 8169 8165 8165 8167 8165 8166 8172 8169 8171 8171 8170 8168 8166 8167 8163 8169 8164 8163 8146 8133 8133 8132 8138 8131 8113 8116 8113 8117 8126 8131 8117 8111 8110 8113 8114 8124 8137 8143 8141 8147 8148 8149 8165 8185 8185 8160 8166 8171 8168 8171 8169 8175 8171 8171 8169 8169 8169 8171 8172 8167 8168 8169 8167 8171 8172 8172 8172 8172 8177 
8175 8171 8173 8172 8172 8173 8173 8170 8171 8171 8170 8167 8165 8167 8170 8169 8169 8167 8168 8171 8166 8169 8169 8167 8171 8164 8168 8165 8163 8147 8135 8131 8137 8139 8122 8118 8124 8132 8139 8141 8138 8112 8111 8112 8121 8123 8124 8136 8143 8142 8146 8146 8160 8186 8191 8166 8167 8170 8171 8171 8170 8169 8173 8174 8172 8172 8167 8167 8169 8168 8166 8162 8168 8163 8165 8172 8169 8170 8171 8175 
8176 8169 8170 8165 8170 8173 8171 8172 8172 8169 8169 8167 8169 8168 8165 8166 8167 8166 8167 8167 8167 8167 8170 8166 8167 8165 8167 8164 8164 8157 8132 8137 8137 8136 8133 8130 8134 8133 8136 8140 8134 8115 8117 8116 8120 8129 8135 8141 8143 8145 8143 8147 8172 8189 8168 8169 8172 8174 8170 8173 8171 8172 8172 8172 8172 8168 8166 8164 8163 8166 8163 8165 8164 8164 8165 8168 8169 8169 8171 8173 
8177 8171 8173 8171 8171 8170 8170 8170 8171 8171 8170 8170 8171 8169 8166 8164 8165 8165 8165 8169 8166 8168 8165 8165 8165 8165 8165 8163 8162 8163 8150 8144 8144 8138 8133 8135 8135 8134 8133 8132 8129 8117 8131 8131 8128 8130 8147 8150 8143 8148 8150 8152 8161 8162 8167 8170 8174 8174 8173 8175 8171 8170 8171 8172 8167 8168 8164 8164 8161 8164 8164 8163 8164 8165 8164 8166 8167 8168 8170 8175 
8175 8168 8169 8169 8168 8169 8170 8167 8169 8168 8171 8172 8173 8170 8166 8166 8168 8168 8165 8164 8164 8167 8162 8163 8164 8164 8162 8167 8165 8165 8165 8152 8144 8143 8139 8133 8134 8132 8133 8131 8126 8122 8137 8143 8146 8147 8151 8147 8146 8147 8151 8148 8155 8166 8171 8174 8174 8174 8175 8172 8172 8169 8171 8170 8168 8164 8165 8164 8164 8164 8165 8161 8161 8165 8164 8166 8163 8167 8167 8172 
8176 8170 8170 8171 8169 8169 8168 8168 8165 8168 8168 8167 8169 8168 8168 8168 8172 8167 8165 8167 8167 8169 8166 8165 8165 8164 8164 8167 8165 8168 8169 8166 8153 8151 8140 8145 8147 8140 8135 8135 8134 8126 8140 8147 8147 8147 8148 8145 8145 8146 8150 8155 8163 8172 8173 8173 8176 8179 8176 8172 8170 8167 8168 8167 8165 8164 8164 8165 8164 8166 8165 8153 8154 8163 8163 8163 8165 8163 8165 8171 
8176 8171 8168 8170 8169 8174 8171 8171 8168 8167 8167 8169 8171 8169 8172 8169 8171 8165 8167 8167 8166 8169 8167 8165 8166 8165 8167 8168 8167 8171 8170 8171 8168 8157 8151 8149 8154 8159 8155 8146 8147 8146 8146 8151 8154 8154 8153 8150 8145 8150 8157 8163 8169 8175 8175 8176 8177 8172 8173 8171 8169 8168 8167 8164 8164 8163 8163 8162 8163 8164 8161 8160 8158 8164 8165 8165 8159 8160 8162 8164 
8178 8170 8174 8172 8168 8174 8174 8172 8172 8171 8173 8170 8170 8166 8167 8169 8169 8167 8166 8168 8168 8169 8168 8170 8169 8166 8168 8169 8169 8174 8170 8172 8171 8168 8161 8156 8154 8151 8155 8159 8164 8166 8166 8167 8162 8162 8158 8159 8157 8165 8165 8171 8175 8175 8175 8174 8175 8174 8172 8169 8166 8165 8166 8165 8165 8164 8164 8162 8168 8166 8167 8165 8166 8168 8163 8163 8164 8165 8166 8166 
8175 8167 8174 8171 8169 8173 8174 8177 8172 8170 8169 8169 8171 8167 8169 8168 8166 8167 8164 8164 8167 8168 8167 8172 8171 8168 8168 8170 8169 8176 8173 8175 8174 8171 8169 8165 8164 8156 8157 8157 8160 8163 8164 8162 8162 8162 8164 8161 8166 8167 8176 8175 8178 8179 8176 8176 8175 8174 8169 8168 8163 8162 8164 8163 8163 8164 8164 8165 8165 8163 8168 8166 8169 8167 8166 8166 8167 8166 8162 8167 
8173 8169 8171 8173 8171 8176 8175 8171 8171 8168 8168 8172 8171 8173 8168 8171 8168 8170 8167 8168 8167 8169 8167 8165 8167 8169 8171 8171 8171 8176 8176 8178 8177 8174 8169 8170 8168 8170 8168 8167 8166 8169 8166 8167 8166 8162 8168 8169 8168 8174 8178 8179 8182 8180 8177 8175 8176 8174 8169 8169 8164 8162 8165 8163 8164 8161 8163 8164 8167 8166 8166 8167 8167 8167 8167 8171 8168 8165 8167 8167 
8174 8168 8173 8174 8173 8172 8178 8169 8168 8169 8168 8171 8172 8176 8169 8169 8172 8170 8168 8168 8167 8167 8168 8166 8169 8169 8170 8171 8170 8177 8180 8180 8176 8175 8169 8171 8172 8172 8172 8171 8172 8175 8173 8171 8172 8170 8170 8169 8172 8176 8180 8179 8179 8181 8177 8178 8174 8173 8169 8167 8165 8164 8166 8162 8160 8159 8164 8164 8168 8165 8170 8164 8168 8171 8167 8168 8169 8164 8161 8166 
8173 8168 8173 8176 8172 8175 8170 8172 8165 8168 8168 8169 8174 8174 8169 8167 8170 8168 8168 8166 8165 8171 8171 8168 8170 8168 8172 8171 8173 8176 8180 8179 8182 8176 8177 8175 8174 8180 8180 8177 8178 8176 8176 8175 8175 8175 8174 8173 8172 8178 8181 8181 8181 8181 8179 8175 8179 8175 8171 8167 8164 8165 8166 8160 8162 8160 8162 8161 8164 8167 8167 8166 8168 8169 8167 8167 8168 8165 8161 8162 
8174 8168 8172 8175 8173 8171 8174 8170 8169 8165 8166 8166 8170 8171 8172 8167 8170 8167 8168 8170 8166 8169 8172 8170 8172 8170 8169 8174 8172 8177 8182 8184 8181 8180 8181 8181 8179 8181 8183 8176 8178 8178 8176 8180 8182 8179 8178 8179 8176 8180 8184 8185 8183 8183 8182 8176 8176 8175 8173 8169 8167 8165 8162 8161 8161 8160 8159 8164 8164 8166 8166 8167 8169 8170 8168 8168 8166 8159 8163 8163 
8175 8169 8174 8176 8176 8174 8173 8173 8167 8167 8164 8168 8170 8171 8169 8170 8169 8166 8164 8167 8167 8169 8168 8172 8172 8172 8173 8175 8173 8176 8180 8181 8184 8181 8177 8184 8185 8184 8183 8181 8179 8184 8184 8184 8183 8187 8185 8184 8185 8185 8188 8185 8183 8179 8179 8176 8178 8174 8168 8165 8167 8162 8159 8159 8161 8161 8162 8165 8164 8166 8167 8166 8172 8168 8168 8164 8161 8160 8160 8161 
8173 8174 8173 8173 8173 8171 8172 8166 8168 8168 8167 8169 8170 8172 8169 8168 8166 8165 8165 8168 8167 8168 8171 8172 8169 8171 8169 8174 8174 8176 8177 8184 8184 8181 8184 8184 8187 8188 8183 8181 8185 8187 8191 8187 8188 8188 8189 8188 8189 8192 8188 8187 8184 8180 8180 8175 8176 8172 8168 8167 8165 8164 8162 8164 8163 8163 8163 8162 8165 8162 8163 8166 8171 8164 8162 8160 8160 8159 8159 8164 
8175 8172 8177 8175 8172 8171 8171 8168 8164 8171 8165 8165 8170 8169 8169 8166 8169 8167 8166 8165 8169 8168 8166 8168 8171 8164 8168 8169 8174 8181 8180 8183 8183 8181 8184 8184 8185 8186 8184 8184 8188 8188 8191 8191 8189 8190 8189 8190 8190 8190 8192 8187 8182 8182 8176 8174 8173 8169 8168 8164 8165 8164 8164 8163 8162 8162 8165 8163 8165 8164 8166 8164 8166 8164 8164 8159 8158 8156 8156 8157 
8176 8170 8175 8170 8168 8169 8168 8165 8166 8165 8167 8168 8171 8170 8169 8165 8162 8164 8162 8165 8168 8166 8164 8168 8168 8162 8165 8172 8175 8180 8182 8181 8185 8180 8183 8186 8186 8187 8188 8186 8187 8192 8192 8191 8189 8187 8190 8188 8188 8188 8188 8186 8180 8176 8175 8172 8170 8170 8165 8164 8158 8162 8163 8164 8162 8163 8165 8164 8164 8166 8164 8164 8164 8160 8161 8161 8160 8152 8154 8158 
8174 8171 8172 8170 8168 8166 8168 8161 8167 8168 8164 8164 8163 8168 8169 8165 8161 8163 8163 8166 8165 8166 8165 8167 8168 8168 8169 8172 8172 8176 8181 8182 8183 8180 8183 8182 8186 8185 8187 8187 8189 8191 8188 8188 8188 8188 8189 8189 8186 8189 8186 8183 8180 8178 8174 8170 8170 8171 8164 8166 8160 8163 8164 8164 8163 8163 8165 8166 8166 8166 8165 8162 8163 8158 8160 8159 8157 8150 8158 8157 
8178 8166 8168 8163 8163 8161 8163 8167 8166 8164 8166 8161 8161 8168 8168 8158 8157 8159 8157 8160 8162 8160 8160 8163 8167 8166 8164 8171 8167 8178 8177 8178 8179 8177 8175 8177 8182 8184 8185 8184 8188 8186 8187 8185 8187 8186 8188 8187 8185 8187 8183 8179 8179 8175 8172 8169 8169 8171 8165 8166 8162 8165 8161 8161 8163 8164 8167 8167 8168 8167 8168 8159 8156 8156 8161 8161 8156 8155 8150 8157 
8180 8165 8162 8160 8160 8159 8161 8162 8164 8166 8163 8159 8159 8165 8162 8158 8155 8155 8154 8147 8150 8150 8155 8157 8164 8165 8158 8156 8162 8170 8174 8174 8168 8165 8174 8177 8178 8184 8185 8181 8184 8185 8180 8185 8186 8187 8187 8185 8188 8186 8187 8184 8178 8177 8171 8171 8171 8169 8165 8168 8166 8163 8160 8162 8163 8161 8161 8159 8163 8165 8165 8163 8163 8163 8162 8167 8158 8156 8153 8158 


